<?xml version="1.0" encoding="utf-8" standalone="no"?>
<!DOCTYPE svg PUBLIC "-//W3C//DTD SVG 1.1//EN"
  "http://www.w3.org/Graphics/SVG/1.1/DTD/svg11.dtd">
<!-- Created with matplotlib (https://matplotlib.org/) -->
<svg height="345.6pt" version="1.1" viewBox="0 0 460.8 345.6" width="460.8pt" xmlns="http://www.w3.org/2000/svg" xmlns:xlink="http://www.w3.org/1999/xlink">
 <defs>
  <style type="text/css">
*{stroke-linecap:butt;stroke-linejoin:round;}
  </style>
 </defs>
 <g id="figure_1">
  <g id="patch_1">
   <path d="M 0 345.6 
L 460.8 345.6 
L 460.8 0 
L 0 0 
z
" style="fill:#ffffff;"/>
  </g>
  <g id="axes_1">
   <g id="patch_2">
    <path d="M 57.6 307.584 
L 414.72 307.584 
L 414.72 41.472 
L 57.6 41.472 
z
" style="fill:#ffffff;"/>
   </g>
   <g id="matplotlib.axis_1">
    <g id="xtick_1">
     <g id="line2d_1">
      <path clip-path="url(#pd320c4b0ac)" d="M 57.6 307.584 
L 57.6 41.472 
" style="fill:none;stroke:#b0b0b0;stroke-linecap:square;stroke-width:0.8;"/>
     </g>
     <g id="line2d_2">
      <defs>
       <path d="M 0 0 
L 0 3.5 
" id="m5927e21d9f" style="stroke:#000000;stroke-width:0.8;"/>
      </defs>
      <g>
       <use style="stroke:#000000;stroke-width:0.8;" x="57.6" xlink:href="#m5927e21d9f" y="307.584"/>
      </g>
     </g>
     <g id="text_1">
      <!-- 0.0 -->
      <defs>
       <path d="M 31.78125 66.40625 
Q 24.171875 66.40625 20.328125 58.90625 
Q 16.5 51.421875 16.5 36.375 
Q 16.5 21.390625 20.328125 13.890625 
Q 24.171875 6.390625 31.78125 6.390625 
Q 39.453125 6.390625 43.28125 13.890625 
Q 47.125 21.390625 47.125 36.375 
Q 47.125 51.421875 43.28125 58.90625 
Q 39.453125 66.40625 31.78125 66.40625 
z
M 31.78125 74.21875 
Q 44.046875 74.21875 50.515625 64.515625 
Q 56.984375 54.828125 56.984375 36.375 
Q 56.984375 17.96875 50.515625 8.265625 
Q 44.046875 -1.421875 31.78125 -1.421875 
Q 19.53125 -1.421875 13.0625 8.265625 
Q 6.59375 17.96875 6.59375 36.375 
Q 6.59375 54.828125 13.0625 64.515625 
Q 19.53125 74.21875 31.78125 74.21875 
z
" id="DejaVuSans-48"/>
       <path d="M 10.6875 12.40625 
L 21 12.40625 
L 21 0 
L 10.6875 0 
z
" id="DejaVuSans-46"/>
      </defs>
      <g transform="translate(49.648438 322.182437)scale(0.1 -0.1)">
       <use xlink:href="#DejaVuSans-48"/>
       <use x="63.623047" xlink:href="#DejaVuSans-46"/>
       <use x="95.410156" xlink:href="#DejaVuSans-48"/>
      </g>
     </g>
    </g>
    <g id="xtick_2">
     <g id="line2d_3">
      <path clip-path="url(#pd320c4b0ac)" d="M 115.475989 307.584 
L 115.475989 41.472 
" style="fill:none;stroke:#b0b0b0;stroke-linecap:square;stroke-width:0.8;"/>
     </g>
     <g id="line2d_4">
      <g>
       <use style="stroke:#000000;stroke-width:0.8;" x="115.475989" xlink:href="#m5927e21d9f" y="307.584"/>
      </g>
     </g>
     <g id="text_2">
      <!-- 0.5 -->
      <defs>
       <path d="M 10.796875 72.90625 
L 49.515625 72.90625 
L 49.515625 64.59375 
L 19.828125 64.59375 
L 19.828125 46.734375 
Q 21.96875 47.46875 24.109375 47.828125 
Q 26.265625 48.1875 28.421875 48.1875 
Q 40.625 48.1875 47.75 41.5 
Q 54.890625 34.8125 54.890625 23.390625 
Q 54.890625 11.625 47.5625 5.09375 
Q 40.234375 -1.421875 26.90625 -1.421875 
Q 22.3125 -1.421875 17.546875 -0.640625 
Q 12.796875 0.140625 7.71875 1.703125 
L 7.71875 11.625 
Q 12.109375 9.234375 16.796875 8.0625 
Q 21.484375 6.890625 26.703125 6.890625 
Q 35.15625 6.890625 40.078125 11.328125 
Q 45.015625 15.765625 45.015625 23.390625 
Q 45.015625 31 40.078125 35.4375 
Q 35.15625 39.890625 26.703125 39.890625 
Q 22.75 39.890625 18.8125 39.015625 
Q 14.890625 38.140625 10.796875 36.28125 
z
" id="DejaVuSans-53"/>
      </defs>
      <g transform="translate(107.524426 322.182437)scale(0.1 -0.1)">
       <use xlink:href="#DejaVuSans-48"/>
       <use x="63.623047" xlink:href="#DejaVuSans-46"/>
       <use x="95.410156" xlink:href="#DejaVuSans-53"/>
      </g>
     </g>
    </g>
    <g id="xtick_3">
     <g id="line2d_5">
      <path clip-path="url(#pd320c4b0ac)" d="M 173.351977 307.584 
L 173.351977 41.472 
" style="fill:none;stroke:#b0b0b0;stroke-linecap:square;stroke-width:0.8;"/>
     </g>
     <g id="line2d_6">
      <g>
       <use style="stroke:#000000;stroke-width:0.8;" x="173.351977" xlink:href="#m5927e21d9f" y="307.584"/>
      </g>
     </g>
     <g id="text_3">
      <!-- 1.0 -->
      <defs>
       <path d="M 12.40625 8.296875 
L 28.515625 8.296875 
L 28.515625 63.921875 
L 10.984375 60.40625 
L 10.984375 69.390625 
L 28.421875 72.90625 
L 38.28125 72.90625 
L 38.28125 8.296875 
L 54.390625 8.296875 
L 54.390625 0 
L 12.40625 0 
z
" id="DejaVuSans-49"/>
      </defs>
      <g transform="translate(165.400415 322.182437)scale(0.1 -0.1)">
       <use xlink:href="#DejaVuSans-49"/>
       <use x="63.623047" xlink:href="#DejaVuSans-46"/>
       <use x="95.410156" xlink:href="#DejaVuSans-48"/>
      </g>
     </g>
    </g>
    <g id="xtick_4">
     <g id="line2d_7">
      <path clip-path="url(#pd320c4b0ac)" d="M 231.227966 307.584 
L 231.227966 41.472 
" style="fill:none;stroke:#b0b0b0;stroke-linecap:square;stroke-width:0.8;"/>
     </g>
     <g id="line2d_8">
      <g>
       <use style="stroke:#000000;stroke-width:0.8;" x="231.227966" xlink:href="#m5927e21d9f" y="307.584"/>
      </g>
     </g>
     <g id="text_4">
      <!-- 1.5 -->
      <g transform="translate(223.276404 322.182437)scale(0.1 -0.1)">
       <use xlink:href="#DejaVuSans-49"/>
       <use x="63.623047" xlink:href="#DejaVuSans-46"/>
       <use x="95.410156" xlink:href="#DejaVuSans-53"/>
      </g>
     </g>
    </g>
    <g id="xtick_5">
     <g id="line2d_9">
      <path clip-path="url(#pd320c4b0ac)" d="M 289.103955 307.584 
L 289.103955 41.472 
" style="fill:none;stroke:#b0b0b0;stroke-linecap:square;stroke-width:0.8;"/>
     </g>
     <g id="line2d_10">
      <g>
       <use style="stroke:#000000;stroke-width:0.8;" x="289.103955" xlink:href="#m5927e21d9f" y="307.584"/>
      </g>
     </g>
     <g id="text_5">
      <!-- 2.0 -->
      <defs>
       <path d="M 19.1875 8.296875 
L 53.609375 8.296875 
L 53.609375 0 
L 7.328125 0 
L 7.328125 8.296875 
Q 12.9375 14.109375 22.625 23.890625 
Q 32.328125 33.6875 34.8125 36.53125 
Q 39.546875 41.84375 41.421875 45.53125 
Q 43.3125 49.21875 43.3125 52.78125 
Q 43.3125 58.59375 39.234375 62.25 
Q 35.15625 65.921875 28.609375 65.921875 
Q 23.96875 65.921875 18.8125 64.3125 
Q 13.671875 62.703125 7.8125 59.421875 
L 7.8125 69.390625 
Q 13.765625 71.78125 18.9375 73 
Q 24.125 74.21875 28.421875 74.21875 
Q 39.75 74.21875 46.484375 68.546875 
Q 53.21875 62.890625 53.21875 53.421875 
Q 53.21875 48.921875 51.53125 44.890625 
Q 49.859375 40.875 45.40625 35.40625 
Q 44.1875 33.984375 37.640625 27.21875 
Q 31.109375 20.453125 19.1875 8.296875 
z
" id="DejaVuSans-50"/>
      </defs>
      <g transform="translate(281.152392 322.182437)scale(0.1 -0.1)">
       <use xlink:href="#DejaVuSans-50"/>
       <use x="63.623047" xlink:href="#DejaVuSans-46"/>
       <use x="95.410156" xlink:href="#DejaVuSans-48"/>
      </g>
     </g>
    </g>
    <g id="xtick_6">
     <g id="line2d_11">
      <path clip-path="url(#pd320c4b0ac)" d="M 346.979944 307.584 
L 346.979944 41.472 
" style="fill:none;stroke:#b0b0b0;stroke-linecap:square;stroke-width:0.8;"/>
     </g>
     <g id="line2d_12">
      <g>
       <use style="stroke:#000000;stroke-width:0.8;" x="346.979944" xlink:href="#m5927e21d9f" y="307.584"/>
      </g>
     </g>
     <g id="text_6">
      <!-- 2.5 -->
      <g transform="translate(339.028381 322.182437)scale(0.1 -0.1)">
       <use xlink:href="#DejaVuSans-50"/>
       <use x="63.623047" xlink:href="#DejaVuSans-46"/>
       <use x="95.410156" xlink:href="#DejaVuSans-53"/>
      </g>
     </g>
    </g>
    <g id="xtick_7">
     <g id="line2d_13">
      <path clip-path="url(#pd320c4b0ac)" d="M 404.855932 307.584 
L 404.855932 41.472 
" style="fill:none;stroke:#b0b0b0;stroke-linecap:square;stroke-width:0.8;"/>
     </g>
     <g id="line2d_14">
      <g>
       <use style="stroke:#000000;stroke-width:0.8;" x="404.855932" xlink:href="#m5927e21d9f" y="307.584"/>
      </g>
     </g>
     <g id="text_7">
      <!-- 3.0 -->
      <defs>
       <path d="M 40.578125 39.3125 
Q 47.65625 37.796875 51.625 33 
Q 55.609375 28.21875 55.609375 21.1875 
Q 55.609375 10.40625 48.1875 4.484375 
Q 40.765625 -1.421875 27.09375 -1.421875 
Q 22.515625 -1.421875 17.65625 -0.515625 
Q 12.796875 0.390625 7.625 2.203125 
L 7.625 11.71875 
Q 11.71875 9.328125 16.59375 8.109375 
Q 21.484375 6.890625 26.8125 6.890625 
Q 36.078125 6.890625 40.9375 10.546875 
Q 45.796875 14.203125 45.796875 21.1875 
Q 45.796875 27.640625 41.28125 31.265625 
Q 36.765625 34.90625 28.71875 34.90625 
L 20.21875 34.90625 
L 20.21875 43.015625 
L 29.109375 43.015625 
Q 36.375 43.015625 40.234375 45.921875 
Q 44.09375 48.828125 44.09375 54.296875 
Q 44.09375 59.90625 40.109375 62.90625 
Q 36.140625 65.921875 28.71875 65.921875 
Q 24.65625 65.921875 20.015625 65.03125 
Q 15.375 64.15625 9.8125 62.3125 
L 9.8125 71.09375 
Q 15.4375 72.65625 20.34375 73.4375 
Q 25.25 74.21875 29.59375 74.21875 
Q 40.828125 74.21875 47.359375 69.109375 
Q 53.90625 64.015625 53.90625 55.328125 
Q 53.90625 49.265625 50.4375 45.09375 
Q 46.96875 40.921875 40.578125 39.3125 
z
" id="DejaVuSans-51"/>
      </defs>
      <g transform="translate(396.90437 322.182437)scale(0.1 -0.1)">
       <use xlink:href="#DejaVuSans-51"/>
       <use x="63.623047" xlink:href="#DejaVuSans-46"/>
       <use x="95.410156" xlink:href="#DejaVuSans-48"/>
      </g>
     </g>
    </g>
    <g id="text_8">
     <!-- Hours -->
     <defs>
      <path d="M 9.8125 72.90625 
L 19.671875 72.90625 
L 19.671875 43.015625 
L 55.515625 43.015625 
L 55.515625 72.90625 
L 65.375 72.90625 
L 65.375 0 
L 55.515625 0 
L 55.515625 34.71875 
L 19.671875 34.71875 
L 19.671875 0 
L 9.8125 0 
z
" id="DejaVuSans-72"/>
      <path d="M 30.609375 48.390625 
Q 23.390625 48.390625 19.1875 42.75 
Q 14.984375 37.109375 14.984375 27.296875 
Q 14.984375 17.484375 19.15625 11.84375 
Q 23.34375 6.203125 30.609375 6.203125 
Q 37.796875 6.203125 41.984375 11.859375 
Q 46.1875 17.53125 46.1875 27.296875 
Q 46.1875 37.015625 41.984375 42.703125 
Q 37.796875 48.390625 30.609375 48.390625 
z
M 30.609375 56 
Q 42.328125 56 49.015625 48.375 
Q 55.71875 40.765625 55.71875 27.296875 
Q 55.71875 13.875 49.015625 6.21875 
Q 42.328125 -1.421875 30.609375 -1.421875 
Q 18.84375 -1.421875 12.171875 6.21875 
Q 5.515625 13.875 5.515625 27.296875 
Q 5.515625 40.765625 12.171875 48.375 
Q 18.84375 56 30.609375 56 
z
" id="DejaVuSans-111"/>
      <path d="M 8.5 21.578125 
L 8.5 54.6875 
L 17.484375 54.6875 
L 17.484375 21.921875 
Q 17.484375 14.15625 20.5 10.265625 
Q 23.53125 6.390625 29.59375 6.390625 
Q 36.859375 6.390625 41.078125 11.03125 
Q 45.3125 15.671875 45.3125 23.6875 
L 45.3125 54.6875 
L 54.296875 54.6875 
L 54.296875 0 
L 45.3125 0 
L 45.3125 8.40625 
Q 42.046875 3.421875 37.71875 1 
Q 33.40625 -1.421875 27.6875 -1.421875 
Q 18.265625 -1.421875 13.375 4.4375 
Q 8.5 10.296875 8.5 21.578125 
z
M 31.109375 56 
z
" id="DejaVuSans-117"/>
      <path d="M 41.109375 46.296875 
Q 39.59375 47.171875 37.8125 47.578125 
Q 36.03125 48 33.890625 48 
Q 26.265625 48 22.1875 43.046875 
Q 18.109375 38.09375 18.109375 28.8125 
L 18.109375 0 
L 9.078125 0 
L 9.078125 54.6875 
L 18.109375 54.6875 
L 18.109375 46.1875 
Q 20.953125 51.171875 25.484375 53.578125 
Q 30.03125 56 36.53125 56 
Q 37.453125 56 38.578125 55.875 
Q 39.703125 55.765625 41.0625 55.515625 
z
" id="DejaVuSans-114"/>
      <path d="M 44.28125 53.078125 
L 44.28125 44.578125 
Q 40.484375 46.53125 36.375 47.5 
Q 32.28125 48.484375 27.875 48.484375 
Q 21.1875 48.484375 17.84375 46.4375 
Q 14.5 44.390625 14.5 40.28125 
Q 14.5 37.15625 16.890625 35.375 
Q 19.28125 33.59375 26.515625 31.984375 
L 29.59375 31.296875 
Q 39.15625 29.25 43.1875 25.515625 
Q 47.21875 21.78125 47.21875 15.09375 
Q 47.21875 7.46875 41.1875 3.015625 
Q 35.15625 -1.421875 24.609375 -1.421875 
Q 20.21875 -1.421875 15.453125 -0.5625 
Q 10.6875 0.296875 5.421875 2 
L 5.421875 11.28125 
Q 10.40625 8.6875 15.234375 7.390625 
Q 20.0625 6.109375 24.8125 6.109375 
Q 31.15625 6.109375 34.5625 8.28125 
Q 37.984375 10.453125 37.984375 14.40625 
Q 37.984375 18.0625 35.515625 20.015625 
Q 33.0625 21.96875 24.703125 23.78125 
L 21.578125 24.515625 
Q 13.234375 26.265625 9.515625 29.90625 
Q 5.8125 33.546875 5.8125 39.890625 
Q 5.8125 47.609375 11.28125 51.796875 
Q 16.75 56 26.8125 56 
Q 31.78125 56 36.171875 55.265625 
Q 40.578125 54.546875 44.28125 53.078125 
z
" id="DejaVuSans-115"/>
     </defs>
     <g transform="translate(221.511562 335.860562)scale(0.1 -0.1)">
      <use xlink:href="#DejaVuSans-72"/>
      <use x="75.195312" xlink:href="#DejaVuSans-111"/>
      <use x="136.376953" xlink:href="#DejaVuSans-117"/>
      <use x="199.755859" xlink:href="#DejaVuSans-114"/>
      <use x="240.869141" xlink:href="#DejaVuSans-115"/>
     </g>
    </g>
   </g>
   <g id="matplotlib.axis_2">
    <g id="ytick_1">
     <g id="line2d_15">
      <path clip-path="url(#pd320c4b0ac)" d="M 57.6 289.297621 
L 414.72 289.297621 
" style="fill:none;stroke:#b0b0b0;stroke-linecap:square;stroke-width:0.8;"/>
     </g>
     <g id="line2d_16">
      <defs>
       <path d="M 0 0 
L -3.5 0 
" id="m2c70c9a03d" style="stroke:#000000;stroke-width:0.8;"/>
      </defs>
      <g>
       <use style="stroke:#000000;stroke-width:0.8;" x="57.6" xlink:href="#m2c70c9a03d" y="289.297621"/>
      </g>
     </g>
     <g id="text_9">
      <!-- −20 -->
      <defs>
       <path d="M 10.59375 35.5 
L 73.1875 35.5 
L 73.1875 27.203125 
L 10.59375 27.203125 
z
" id="DejaVuSans-8722"/>
      </defs>
      <g transform="translate(29.495313 293.09684)scale(0.1 -0.1)">
       <use xlink:href="#DejaVuSans-8722"/>
       <use x="83.789062" xlink:href="#DejaVuSans-50"/>
       <use x="147.412109" xlink:href="#DejaVuSans-48"/>
      </g>
     </g>
    </g>
    <g id="ytick_2">
     <g id="line2d_17">
      <path clip-path="url(#pd320c4b0ac)" d="M 57.6 258.345728 
L 414.72 258.345728 
" style="fill:none;stroke:#b0b0b0;stroke-linecap:square;stroke-width:0.8;"/>
     </g>
     <g id="line2d_18">
      <g>
       <use style="stroke:#000000;stroke-width:0.8;" x="57.6" xlink:href="#m2c70c9a03d" y="258.345728"/>
      </g>
     </g>
     <g id="text_10">
      <!-- −15 -->
      <g transform="translate(29.495313 262.144946)scale(0.1 -0.1)">
       <use xlink:href="#DejaVuSans-8722"/>
       <use x="83.789062" xlink:href="#DejaVuSans-49"/>
       <use x="147.412109" xlink:href="#DejaVuSans-53"/>
      </g>
     </g>
    </g>
    <g id="ytick_3">
     <g id="line2d_19">
      <path clip-path="url(#pd320c4b0ac)" d="M 57.6 227.393834 
L 414.72 227.393834 
" style="fill:none;stroke:#b0b0b0;stroke-linecap:square;stroke-width:0.8;"/>
     </g>
     <g id="line2d_20">
      <g>
       <use style="stroke:#000000;stroke-width:0.8;" x="57.6" xlink:href="#m2c70c9a03d" y="227.393834"/>
      </g>
     </g>
     <g id="text_11">
      <!-- −10 -->
      <g transform="translate(29.495313 231.193053)scale(0.1 -0.1)">
       <use xlink:href="#DejaVuSans-8722"/>
       <use x="83.789062" xlink:href="#DejaVuSans-49"/>
       <use x="147.412109" xlink:href="#DejaVuSans-48"/>
      </g>
     </g>
    </g>
    <g id="ytick_4">
     <g id="line2d_21">
      <path clip-path="url(#pd320c4b0ac)" d="M 57.6 196.44194 
L 414.72 196.44194 
" style="fill:none;stroke:#b0b0b0;stroke-linecap:square;stroke-width:0.8;"/>
     </g>
     <g id="line2d_22">
      <g>
       <use style="stroke:#000000;stroke-width:0.8;" x="57.6" xlink:href="#m2c70c9a03d" y="196.44194"/>
      </g>
     </g>
     <g id="text_12">
      <!-- −5 -->
      <g transform="translate(35.857813 200.241159)scale(0.1 -0.1)">
       <use xlink:href="#DejaVuSans-8722"/>
       <use x="83.789062" xlink:href="#DejaVuSans-53"/>
      </g>
     </g>
    </g>
    <g id="ytick_5">
     <g id="line2d_23">
      <path clip-path="url(#pd320c4b0ac)" d="M 57.6 165.490047 
L 414.72 165.490047 
" style="fill:none;stroke:#b0b0b0;stroke-linecap:square;stroke-width:0.8;"/>
     </g>
     <g id="line2d_24">
      <g>
       <use style="stroke:#000000;stroke-width:0.8;" x="57.6" xlink:href="#m2c70c9a03d" y="165.490047"/>
      </g>
     </g>
     <g id="text_13">
      <!-- 0 -->
      <g transform="translate(44.2375 169.289266)scale(0.1 -0.1)">
       <use xlink:href="#DejaVuSans-48"/>
      </g>
     </g>
    </g>
    <g id="ytick_6">
     <g id="line2d_25">
      <path clip-path="url(#pd320c4b0ac)" d="M 57.6 134.538153 
L 414.72 134.538153 
" style="fill:none;stroke:#b0b0b0;stroke-linecap:square;stroke-width:0.8;"/>
     </g>
     <g id="line2d_26">
      <g>
       <use style="stroke:#000000;stroke-width:0.8;" x="57.6" xlink:href="#m2c70c9a03d" y="134.538153"/>
      </g>
     </g>
     <g id="text_14">
      <!-- 5 -->
      <g transform="translate(44.2375 138.337372)scale(0.1 -0.1)">
       <use xlink:href="#DejaVuSans-53"/>
      </g>
     </g>
    </g>
    <g id="ytick_7">
     <g id="line2d_27">
      <path clip-path="url(#pd320c4b0ac)" d="M 57.6 103.58626 
L 414.72 103.58626 
" style="fill:none;stroke:#b0b0b0;stroke-linecap:square;stroke-width:0.8;"/>
     </g>
     <g id="line2d_28">
      <g>
       <use style="stroke:#000000;stroke-width:0.8;" x="57.6" xlink:href="#m2c70c9a03d" y="103.58626"/>
      </g>
     </g>
     <g id="text_15">
      <!-- 10 -->
      <g transform="translate(37.875 107.385478)scale(0.1 -0.1)">
       <use xlink:href="#DejaVuSans-49"/>
       <use x="63.623047" xlink:href="#DejaVuSans-48"/>
      </g>
     </g>
    </g>
    <g id="ytick_8">
     <g id="line2d_29">
      <path clip-path="url(#pd320c4b0ac)" d="M 57.6 72.634366 
L 414.72 72.634366 
" style="fill:none;stroke:#b0b0b0;stroke-linecap:square;stroke-width:0.8;"/>
     </g>
     <g id="line2d_30">
      <g>
       <use style="stroke:#000000;stroke-width:0.8;" x="57.6" xlink:href="#m2c70c9a03d" y="72.634366"/>
      </g>
     </g>
     <g id="text_16">
      <!-- 15 -->
      <g transform="translate(37.875 76.433585)scale(0.1 -0.1)">
       <use xlink:href="#DejaVuSans-49"/>
       <use x="63.623047" xlink:href="#DejaVuSans-53"/>
      </g>
     </g>
    </g>
    <g id="ytick_9">
     <g id="line2d_31">
      <path clip-path="url(#pd320c4b0ac)" d="M 57.6 41.682472 
L 414.72 41.682472 
" style="fill:none;stroke:#b0b0b0;stroke-linecap:square;stroke-width:0.8;"/>
     </g>
     <g id="line2d_32">
      <g>
       <use style="stroke:#000000;stroke-width:0.8;" x="57.6" xlink:href="#m2c70c9a03d" y="41.682472"/>
      </g>
     </g>
     <g id="text_17">
      <!-- 20 -->
      <g transform="translate(37.875 45.481691)scale(0.1 -0.1)">
       <use xlink:href="#DejaVuSans-50"/>
       <use x="63.623047" xlink:href="#DejaVuSans-48"/>
      </g>
     </g>
    </g>
    <g id="text_18">
     <!-- Mean reward -->
     <defs>
      <path d="M 9.8125 72.90625 
L 24.515625 72.90625 
L 43.109375 23.296875 
L 61.8125 72.90625 
L 76.515625 72.90625 
L 76.515625 0 
L 66.890625 0 
L 66.890625 64.015625 
L 48.09375 14.015625 
L 38.1875 14.015625 
L 19.390625 64.015625 
L 19.390625 0 
L 9.8125 0 
z
" id="DejaVuSans-77"/>
      <path d="M 56.203125 29.59375 
L 56.203125 25.203125 
L 14.890625 25.203125 
Q 15.484375 15.921875 20.484375 11.0625 
Q 25.484375 6.203125 34.421875 6.203125 
Q 39.59375 6.203125 44.453125 7.46875 
Q 49.3125 8.734375 54.109375 11.28125 
L 54.109375 2.78125 
Q 49.265625 0.734375 44.1875 -0.34375 
Q 39.109375 -1.421875 33.890625 -1.421875 
Q 20.796875 -1.421875 13.15625 6.1875 
Q 5.515625 13.8125 5.515625 26.8125 
Q 5.515625 40.234375 12.765625 48.109375 
Q 20.015625 56 32.328125 56 
Q 43.359375 56 49.78125 48.890625 
Q 56.203125 41.796875 56.203125 29.59375 
z
M 47.21875 32.234375 
Q 47.125 39.59375 43.09375 43.984375 
Q 39.0625 48.390625 32.421875 48.390625 
Q 24.90625 48.390625 20.390625 44.140625 
Q 15.875 39.890625 15.1875 32.171875 
z
" id="DejaVuSans-101"/>
      <path d="M 34.28125 27.484375 
Q 23.390625 27.484375 19.1875 25 
Q 14.984375 22.515625 14.984375 16.5 
Q 14.984375 11.71875 18.140625 8.90625 
Q 21.296875 6.109375 26.703125 6.109375 
Q 34.1875 6.109375 38.703125 11.40625 
Q 43.21875 16.703125 43.21875 25.484375 
L 43.21875 27.484375 
z
M 52.203125 31.203125 
L 52.203125 0 
L 43.21875 0 
L 43.21875 8.296875 
Q 40.140625 3.328125 35.546875 0.953125 
Q 30.953125 -1.421875 24.3125 -1.421875 
Q 15.921875 -1.421875 10.953125 3.296875 
Q 6 8.015625 6 15.921875 
Q 6 25.140625 12.171875 29.828125 
Q 18.359375 34.515625 30.609375 34.515625 
L 43.21875 34.515625 
L 43.21875 35.40625 
Q 43.21875 41.609375 39.140625 45 
Q 35.0625 48.390625 27.6875 48.390625 
Q 23 48.390625 18.546875 47.265625 
Q 14.109375 46.140625 10.015625 43.890625 
L 10.015625 52.203125 
Q 14.9375 54.109375 19.578125 55.046875 
Q 24.21875 56 28.609375 56 
Q 40.484375 56 46.34375 49.84375 
Q 52.203125 43.703125 52.203125 31.203125 
z
" id="DejaVuSans-97"/>
      <path d="M 54.890625 33.015625 
L 54.890625 0 
L 45.90625 0 
L 45.90625 32.71875 
Q 45.90625 40.484375 42.875 44.328125 
Q 39.84375 48.1875 33.796875 48.1875 
Q 26.515625 48.1875 22.3125 43.546875 
Q 18.109375 38.921875 18.109375 30.90625 
L 18.109375 0 
L 9.078125 0 
L 9.078125 54.6875 
L 18.109375 54.6875 
L 18.109375 46.1875 
Q 21.34375 51.125 25.703125 53.5625 
Q 30.078125 56 35.796875 56 
Q 45.21875 56 50.046875 50.171875 
Q 54.890625 44.34375 54.890625 33.015625 
z
" id="DejaVuSans-110"/>
      <path id="DejaVuSans-32"/>
      <path d="M 4.203125 54.6875 
L 13.1875 54.6875 
L 24.421875 12.015625 
L 35.59375 54.6875 
L 46.1875 54.6875 
L 57.421875 12.015625 
L 68.609375 54.6875 
L 77.59375 54.6875 
L 63.28125 0 
L 52.6875 0 
L 40.921875 44.828125 
L 29.109375 0 
L 18.5 0 
z
" id="DejaVuSans-119"/>
      <path d="M 45.40625 46.390625 
L 45.40625 75.984375 
L 54.390625 75.984375 
L 54.390625 0 
L 45.40625 0 
L 45.40625 8.203125 
Q 42.578125 3.328125 38.25 0.953125 
Q 33.9375 -1.421875 27.875 -1.421875 
Q 17.96875 -1.421875 11.734375 6.484375 
Q 5.515625 14.40625 5.515625 27.296875 
Q 5.515625 40.1875 11.734375 48.09375 
Q 17.96875 56 27.875 56 
Q 33.9375 56 38.25 53.625 
Q 42.578125 51.265625 45.40625 46.390625 
z
M 14.796875 27.296875 
Q 14.796875 17.390625 18.875 11.75 
Q 22.953125 6.109375 30.078125 6.109375 
Q 37.203125 6.109375 41.296875 11.75 
Q 45.40625 17.390625 45.40625 27.296875 
Q 45.40625 37.203125 41.296875 42.84375 
Q 37.203125 48.484375 30.078125 48.484375 
Q 22.953125 48.484375 18.875 42.84375 
Q 14.796875 37.203125 14.796875 27.296875 
z
" id="DejaVuSans-100"/>
     </defs>
     <g transform="translate(23.415625 207.253)rotate(-90)scale(0.1 -0.1)">
      <use xlink:href="#DejaVuSans-77"/>
      <use x="86.279297" xlink:href="#DejaVuSans-101"/>
      <use x="147.802734" xlink:href="#DejaVuSans-97"/>
      <use x="209.082031" xlink:href="#DejaVuSans-110"/>
      <use x="272.460938" xlink:href="#DejaVuSans-32"/>
      <use x="304.248047" xlink:href="#DejaVuSans-114"/>
      <use x="345.330078" xlink:href="#DejaVuSans-101"/>
      <use x="406.853516" xlink:href="#DejaVuSans-119"/>
      <use x="488.640625" xlink:href="#DejaVuSans-97"/>
      <use x="549.919922" xlink:href="#DejaVuSans-114"/>
      <use x="591.017578" xlink:href="#DejaVuSans-100"/>
     </g>
    </g>
   </g>
   <g id="line2d_33">
    <path clip-path="url(#pd320c4b0ac)" d="M 57.6 295.488 
L 57.826424 294.49754 
L 58.071721 292.392811 
L 58.194711 292.134882 
L 59.441241 291.904098 
L 59.748989 292.083296 
L 60.098125 291.447962 
L 61.292861 291.15473 
L 61.480115 290.907121 
L 61.676873 290.349986 
L 61.86956 290.473797 
L 63.337961 290.349986 
L 63.608232 290.473797 
L 63.800253 290.349986 
L 64.002227 290.6595 
L 65.144657 290.288081 
L 65.448054 290.6595 
L 65.549255 290.349986 
L 66.430538 290.907121 
L 66.656876 290.783311 
L 66.885582 290.969026 
L 67.191584 290.969026 
L 67.288553 291.030932 
L 67.886236 290.907121 
L 68.240663 291.216635 
L 68.45259 290.969026 
L 68.776456 290.969026 
L 69.131152 291.092837 
L 69.131981 290.969026 
L 69.283568 291.092837 
L 69.66757 290.6595 
L 70.107569 290.597595 
L 70.899308 290.164271 
L 71.159372 289.792851 
L 71.199168 289.978567 
L 72.884754 289.916662 
L 72.987681 290.040472 
L 73.175374 290.411891 
L 73.696275 290.164271 
L 73.705697 290.226176 
L 73.744335 290.040472 
L 74.079525 289.978567 
L 74.561076 290.473797 
L 74.893288 290.288081 
L 75.662325 289.978567 
L 75.713287 289.792851 
L 76.558865 289.854756 
L 76.677057 289.916662 
L 76.778226 290.226176 
L 76.945783 290.226176 
L 77.142434 290.411891 
L 77.846399 290.721406 
L 78.123927 290.226176 
L 79.005522 290.597595 
L 79.131122 290.411891 
L 80.105274 290.535702 
L 80.244999 290.411891 
L 80.446729 290.411891 
L 80.514001 290.226176 
L 80.850778 289.916662 
L 81.550321 289.978567 
L 81.71412 289.792851 
L 81.748607 290.040472 
L 82.217133 290.535702 
L 82.692605 289.854756 
L 82.928258 289.916662 
L 83.02775 289.916662 
L 83.610734 290.226176 
L 83.716541 290.535702 
L 83.889191 290.535702 
L 84.051421 290.721406 
L 84.424773 290.288081 
L 84.686593 290.6595 
L 85.19145 290.721406 
L 85.359289 290.411891 
L 85.628906 290.597595 
L 85.703836 290.411891 
L 85.817476 290.473797 
L 86.136327 289.916662 
L 86.187585 290.102365 
L 86.337703 290.102365 
L 86.340247 290.226176 
L 86.808934 290.535702 
L 87.140883 290.845216 
L 87.470606 290.783311 
L 87.809402 290.969026 
L 89.003687 290.783311 
L 90.003133 291.278541 
L 90.521417 291.030932 
L 90.553264 291.15473 
L 91.129747 290.721406 
L 91.255544 290.349986 
L 91.531594 290.226176 
L 91.564254 289.978567 
L 91.734508 289.978567 
L 91.749236 289.854756 
L 91.904662 289.792851 
L 92.30397 290.535702 
L 92.470934 290.535702 
L 92.887668 291.030932 
L 93.104839 290.721406 
L 93.232359 290.783311 
L 93.556647 290.6595 
L 93.898071 290.845216 
L 94.101853 290.473797 
L 94.14645 290.597595 
L 94.147021 290.721406 
L 94.429605 290.288081 
L 94.450617 290.349986 
L 94.722364 290.288081 
L 94.733625 290.164271 
L 94.965356 290.226176 
L 95.057753 290.535702 
L 95.127638 290.349986 
L 95.333049 290.411891 
L 95.837195 289.730946 
L 96.3317 289.421432 
L 96.607012 289.545242 
L 96.761804 289.483337 
L 97.272636 289.483337 
L 97.868362 288.802391 
L 97.962483 288.492877 
L 98.690916 289.111906 
L 98.937476 288.988107 
L 99.041623 289.111906 
L 99.051813 288.926202 
L 99.638166 289.916662 
L 100.441895 289.669041 
L 101.069687 289.297621 
L 101.302817 289.483337 
L 101.34427 289.235716 
L 102.106531 289.545242 
L 102.325269 289.421432 
L 102.598971 289.730946 
L 102.96234 289.669041 
L 103.202701 289.607135 
L 104.675237 289.111906 
L 104.87294 289.483337 
L 105.053901 289.173811 
L 105.26047 289.297621 
L 106.281368 289.730946 
L 106.451131 289.545242 
L 106.839137 289.792851 
L 107.075535 289.669041 
L 107.423115 289.792851 
L 108.247717 289.235716 
L 108.909789 289.297621 
L 109.638507 288.926202 
L 110.104136 289.421432 
L 110.199207 289.173811 
L 110.35475 289.235716 
L 111.368608 289.545242 
L 111.520271 289.359526 
L 111.727691 289.916662 
L 111.804717 289.854756 
L 112.081116 290.349986 
L 113.779902 290.288081 
L 114.153003 290.040472 
L 114.313027 290.164271 
L 114.769488 289.854756 
L 114.926423 290.102365 
L 115.671183 289.916662 
L 115.692716 289.792851 
L 115.85555 289.730946 
L 117.270531 289.05 
L 117.500013 289.173811 
L 118.025802 288.926202 
L 118.307827 288.988107 
L 118.901619 288.802391 
L 119.147093 288.554771 
L 120.111808 288.864297 
L 120.518458 288.926202 
L 120.699225 289.235716 
L 120.94345 288.926202 
L 121.568473 289.235716 
L 122.231616 289.297621 
L 122.235799 289.359526 
L 122.803262 288.802391 
L 122.810122 288.864297 
L 122.852768 288.926202 
L 123.100429 288.802391 
L 123.462074 288.492877 
L 123.836681 288.059541 
L 124.18593 287.378607 
L 124.622682 287.130986 
L 124.851112 287.440512 
L 124.959785 287.192892 
L 125.092686 287.192892 
L 125.190354 287.502406 
L 125.254979 287.316702 
L 125.948426 286.821472 
L 126.86558 285.831012 
L 127.741284 285.583392 
L 128.121813 286.140527 
L 128.603929 286.078622 
L 128.650118 286.388148 
L 129.080433 286.326242 
L 129.115011 286.140527 
L 129.442666 285.459581 
L 129.654828 285.831012 
L 130.354703 286.016716 
L 130.869642 286.573851 
L 131.393852 286.573851 
L 132.343928 286.326242 
L 132.612032 285.954811 
L 132.837527 286.140527 
L 133.263671 285.769107 
L 133.523366 285.088162 
L 133.933781 285.583392 
L 134.157357 285.583392 
L 134.514582 284.840553 
L 135.085079 284.469122 
L 135.152446 284.097702 
L 135.789322 283.788188 
L 135.829572 283.911987 
L 136.559236 282.983432 
L 136.900279 282.302499 
L 137.024797 282.054878 
L 137.061581 282.240593 
L 137.399188 281.931067 
L 138.341591 282.364392 
L 138.383318 282.612013 
L 138.760324 282.859622 
L 140.293424 282.302499 
L 140.459746 282.054878 
L 140.775555 281.931067 
L 140.818972 281.621553 
L 141.091831 282.178688 
L 141.457649 281.745363 
L 141.764091 281.621553 
L 142.016586 281.869162 
L 142.164931 282.240593 
L 142.406759 282.364392 
L 142.77657 281.869162 
L 142.914925 281.312027 
L 143.697821 280.878702 
L 143.836884 280.569188 
L 144.046919 280.383473 
L 144.608455 279.331108 
L 144.789486 279.393013 
L 144.906005 279.207309 
L 145.03164 279.269203 
L 145.677269 278.835878 
L 145.795526 278.526364 
L 145.964344 278.835878 
L 146.824306 277.721608 
L 146.871707 277.907323 
L 146.883626 277.969229 
L 147.304658 278.464459 
L 147.886843 277.907323 
L 148.419472 277.659714 
L 148.571289 278.031134 
L 149.320309 278.154944 
L 149.43343 277.535904 
L 149.725381 277.040674 
L 150.058146 277.288283 
L 150.135566 277.535904 
L 150.366291 277.783513 
L 150.773026 277.783513 
L 150.833246 277.535904 
L 151.46524 277.412094 
L 151.816365 277.288283 
L 152.581378 278.093039 
L 152.655721 277.721608 
L 153.35289 277.040674 
L 154.016339 276.669243 
L 154.445704 277.597809 
L 154.746825 276.545444 
L 155.589951 276.669243 
L 155.642449 276.11212 
L 155.730037 276.297824 
L 156.180115 276.731148 
L 156.365451 276.359729 
L 156.845671 275.554985 
L 157.772537 275.802594 
L 158.96067 275.554985 
L 160.078225 275.61689 
L 160.248452 275.121648 
L 160.797211 275.183554 
L 160.985996 274.99785 
L 161.295977 275.307364 
L 161.948082 274.440715 
L 162.665937 274.131189 
L 163.270249 274.00739 
L 163.834781 273.697864 
L 164.250064 273.078824 
L 164.789997 273.140729 
L 164.962797 273.202634 
L 165.156843 272.89312 
L 166.268508 272.212175 
L 166.774947 272.088364 
L 166.808171 271.90266 
L 167.490095 273.01693 
L 168.201752 272.645499 
L 168.484888 272.831215 
L 169.254521 273.140729 
L 169.479611 273.759769 
L 170.050626 273.326445 
L 170.168228 273.51216 
L 170.312376 273.140729 
L 170.973823 273.01693 
L 171.331014 273.078824 
L 171.565035 272.89312 
L 172.09629 272.76931 
L 172.343948 272.088364 
L 172.966486 272.955025 
L 173.453949 271.65504 
L 173.650061 271.964566 
L 174.531745 269.859836 
L 174.59864 269.612215 
L 174.647662 269.67412 
L 175.287683 268.621755 
L 175.915963 268.002715 
L 175.920418 267.383675 
L 176.36595 267.074161 
L 176.760216 267.321782 
L 177.008058 265.093241 
L 177.35951 265.34085 
L 177.652803 265.155147 
L 178.075203 264.598012 
L 178.217735 264.102782 
L 178.958891 264.350397 
L 179.647648 265.155147 
L 180.804525 262.493282 
L 181.126351 262.802802 
L 181.196689 262.059957 
L 181.482107 262.307572 
L 181.852314 261.998052 
L 182.954396 260.759977 
L 183.429973 261.936147 
L 183.524116 261.379012 
L 184.383862 262.493282 
L 185.211807 261.131397 
L 185.46623 261.317107 
L 185.514935 262.369471 
L 186.100894 260.759977 
L 186.514745 260.017133 
L 187.028458 260.017133 
L 187.094004 261.379012 
L 187.137335 261.317107 
L 187.631525 262.183762 
L 189.586329 261.069492 
L 189.691197 261.440917 
L 190.6388 260.698072 
L 191.434758 258.593343 
L 191.487489 257.974302 
L 192.241937 256.550518 
L 192.545108 255.621964 
L 192.675527 255.931478 
L 192.991488 255.064829 
L 194.740084 256.798133 
L 195.270113 254.631498 
L 195.557133 255.002923 
L 196.56458 253.702944 
L 196.817956 251.660119 
L 196.926999 253.022004 
L 197.063398 252.960099 
L 197.687974 250.731565 
L 198.045969 250.607754 
L 198.662707 249.741099 
L 198.788823 250.422045 
L 198.947951 250.112524 
L 199.104781 250.298234 
L 200.163378 250.050619 
L 200.299419 249.803004 
L 200.330731 248.688734 
L 201.323776 247.636375 
L 202.371353 246.76972 
L 202.946508 245.16022 
L 204.324927 244.417376 
L 204.994465 242.684071 
L 205.085803 241.879321 
L 205.576705 243.241206 
L 206.256899 242.560261 
L 206.998018 242.498356 
L 207.43421 243.179301 
L 207.661461 242.374551 
L 208.549619 243.984051 
L 208.791031 243.798335 
L 209.353582 244.293565 
L 209.827571 243.612626 
L 210.308372 243.365011 
L 211.26141 242.622166 
L 211.508713 243.365011 
L 211.705699 242.622166 
L 212.192827 236.927017 
L 213.650136 228.136679 
L 214.01021 227.022409 
L 214.250141 228.693814 
L 215.270341 225.412915 
L 215.518169 227.455739 
L 216.867045 223.308185 
L 217.036667 221.63678 
L 218.981845 213.032154 
L 220.453049 210.865522 
L 220.46956 211.422657 
L 221.033129 211.113137 
L 221.311964 214.641654 
L 221.861776 215.941631 
L 222.039061 217.427326 
L 222.16598 217.241611 
L 224.079076 219.717766 
L 224.900028 220.95584 
L 225.815705 220.83203 
L 225.907661 220.15109 
L 226.443925 221.512975 
L 226.570732 223.43199 
L 229.159595 222.25582 
L 229.658055 223.122475 
L 230.020411 221.512975 
L 230.431465 221.574881 
L 230.570707 222.07011 
L 230.841541 222.193915 
L 230.874367 222.07011 
L 231.683266 220.64632 
L 232.669457 216.374962 
L 233.092496 215.941631 
L 234.682941 214.146424 
L 234.891214 212.846445 
L 235.265241 213.589289 
L 235.439814 212.660732 
L 236.795129 209.936965 
L 236.866093 210.741715 
L 237.370672 212.1036 
L 238.715989 210.4941 
L 239.223851 210.060772 
L 239.454321 209.50364 
L 240.21191 209.936965 
L 241.229936 210.18458 
L 241.489067 209.565543 
L 241.808613 209.68935 
L 242.113973 209.070313 
L 243.013918 209.99887 
L 244.315231 207.770333 
L 244.74626 205.789414 
L 244.765235 204.675144 
L 245.078712 204.675144 
L 245.457166 205.913221 
L 245.854196 205.975123 
L 247.285464 205.170373 
L 247.687078 204.365627 
L 247.912463 202.570414 
L 250.648594 198.73238 
L 251.198822 199.722842 
L 251.491542 199.165707 
L 251.712046 197.92763 
L 252.730092 198.05144 
L 252.984854 196.751461 
L 253.610988 197.24669 
L 253.621186 196.689555 
L 255.276767 196.318133 
L 256.605205 198.175248 
L 257.821052 195.822903 
L 258.926924 193.780079 
L 259.47996 194.027694 
L 260.374943 193.284846 
L 260.619505 193.532464 
L 260.633525 194.089596 
L 261.197853 193.222944 
L 263.836777 195.203866 
L 263.990103 195.018153 
L 264.475088 193.718173 
L 264.516394 194.151501 
L 264.725787 193.532464 
L 264.958131 193.965788 
L 265.30741 194.337211 
L 265.440162 194.151501 
L 266.717705 193.718173 
L 268.916965 191.922964 
L 269.841873 194.832441 
L 270.159487 194.646731 
L 270.826865 195.822903 
L 270.843387 194.770538 
L 272.831628 193.284846 
L 273.194229 193.656271 
L 273.535152 193.656271 
L 273.72703 194.027694 
L 274.97859 192.542001 
L 275.602903 189.323004 
L 276.302546 186.908757 
L 276.575569 187.032565 
L 277.352725 184.618317 
L 277.674706 184.556413 
L 278.650265 183.875472 
L 279.551439 183.627857 
L 282.123778 174.342288 
L 282.566269 173.166117 
L 282.648101 173.785155 
L 285.544266 163.199607 
L 285.850746 161.342493 
L 286.348318 162.085338 
L 286.402942 161.590108 
L 286.831137 161.528205 
L 286.906191 159.671091 
L 287.423098 159.98061 
L 288.274277 158.061592 
L 290.007434 154.718788 
L 290.725928 150.756945 
L 291.058432 151.561695 
L 291.767828 152.056925 
L 292.667561 149.51887 
L 293.087471 152.985482 
L 294.014619 151.128369 
L 294.762545 150.50933 
L 295.481013 151.871213 
L 295.585288 150.633137 
L 297.54085 147.476044 
L 299.258765 154.471173 
L 299.729716 153.728327 
L 300.774873 153.60452 
L 301.201682 153.356904 
L 302.420538 151.871213 
L 304.401996 134.042923 
L 304.794474 128.719197 
L 305.061334 127.543025 
L 306.088649 122.466916 
L 306.920001 119.000301 
L 307.485549 114.233713 
L 307.500948 112.995638 
L 309.059133 93.248327 
L 309.644375 87.491273 
L 310.134717 85.386549 
L 311.345669 78.143805 
L 311.658688 77.40096 
L 312.307352 73.501021 
L 312.625688 73.315306 
L 313.088893 71.891521 
L 313.630679 70.901062 
L 314.024215 71.334386 
L 314.03729 70.962961 
L 315.250412 72.015326 
L 315.268712 71.520096 
L 316.161811 70.591541 
L 316.312674 71.210582 
L 316.433837 71.210582 
L 317.592601 72.634366 
L 317.69775 72.386751 
L 317.830507 74.243866 
L 318.426482 72.881981 
L 319.711053 74.986711 
L 320.122066 74.801001 
L 321.88976 75.543846 
L 321.900782 75.48194 
L 322.318594 75.420035 
L 322.710055 74.243866 
L 322.998621 74.491481 
L 326.362352 67.001122 
L 327.040679 66.753507 
L 327.575675 65.886852 
L 328.052131 66.072568 
L 328.86753 65.824947 
L 329.069265 66.505892 
L 330.099631 65.144013 
L 330.23944 66.258272 
L 330.450318 66.320177 
L 330.558109 66.567798 
L 330.841472 66.443987 
L 330.932784 66.258272 
L 331.175482 66.691602 
L 332.777187 67.805872 
L 332.995957 68.301102 
L 333.256277 67.991582 
L 333.478363 68.239197 
L 334.245656 68.239197 
L 335.273101 67.929677 
L 336.18067 67.434447 
L 336.36161 64.834487 
L 337.139546 65.763042 
L 337.484706 65.886852 
L 339.204633 65.267812 
L 339.634049 66.134473 
L 339.884557 69.229657 
L 340.257292 68.920136 
L 340.297031 68.424907 
L 341.617767 66.258272 
L 342.536516 65.515433 
L 342.777594 65.082108 
L 343.450543 64.710677 
L 343.660855 65.515433 
L 344.597744 64.648772 
L 345.598903 64.648772 
L 345.769608 63.782123 
L 346.566965 61.801203 
L 347.179959 61.615488 
L 347.550252 60.996459 
L 347.593351 59.015528 
L 347.956014 58.520298 
L 348.157418 58.767919 
L 348.184816 57.715554 
L 349.339304 59.696474 
L 349.889753 60.005988 
L 349.937047 59.758379 
L 350.076479 59.882189 
L 350.608326 60.563123 
L 350.929636 61.429784 
L 351.42148 62.110717 
L 352.381981 60.315514 
L 353.110318 62.729758 
L 353.534117 61.429784 
L 353.983453 62.110717 
L 354.172603 62.172623 
L 354.775223 61.677393 
L 354.87585 63.658312 
L 355.991444 65.453528 
L 356.123371 64.834487 
L 356.278434 64.710677 
L 357.985079 62.544054 
L 358.326907 62.296433 
L 359.068958 62.729758 
L 359.288913 61.367879 
L 359.976477 62.544054 
L 361.178675 61.491689 
L 361.417913 63.534514 
L 362.052892 66.072568 
L 362.385115 67.991582 
L 362.988272 66.258272 
L 363.324004 66.567798 
L 363.605114 66.134473 
L 363.730167 65.020203 
L 364.818438 66.258272 
L 367.245084 67.186832 
L 367.814909 67.124927 
L 368.146116 66.072568 
L 368.971354 66.072568 
L 369.092525 66.753507 
L 370.061987 62.729758 
L 370.194438 63.039284 
L 370.983791 59.077433 
L 372.757086 58.458393 
L 373.333302 58.706014 
L 373.729753 58.582203 
L 374.02287 59.015528 
L 374.244486 58.086974 
L 374.854483 60.253609 
L 375.165053 59.201244 
L 375.890009 59.448865 
L 376.015737 59.201244 
L 376.742454 60.067893 
L 377.252741 59.634568 
L 377.775763 58.582203 
L 377.878856 58.458393 
L 377.919298 58.520298 
L 378.780287 59.820284 
L 378.820866 60.191703 
L 379.031307 60.315514 
L 379.370767 60.872649 
L 379.480751 61.615488 
L 379.491432 61.305973 
L 379.854034 61.429784 
L 380.236029 62.544054 
L 380.299922 61.863108 
L 380.601651 61.801203 
L 381.580021 63.534514 
L 382.792795 61.863108 
L 382.805857 62.358338 
L 383.267555 61.305973 
L 383.624936 60.191703 
L 383.908442 60.005988 
L 384.385084 60.129798 
L 385.846376 61.120258 
L 386.266771 63.844028 
L 386.715174 62.667852 
L 387.394644 61.986919 
L 387.655267 60.686933 
L 387.868359 60.625028 
L 387.957985 61.491689 
L 388.160141 61.677393 
L 389.007341 61.677393 
L 390.133098 61.244068 
L 390.209845 61.491689 
L 390.753024 62.605947 
L 391.897384 62.110717 
L 392.995316 62.482149 
L 394.696509 58.767919 
L 394.749388 58.210784 
L 395.141467 57.963163 
L 395.379749 58.582203 
L 395.391854 58.334594 
L 396.056554 59.077433 
L 396.62127 58.210784 
L 396.982481 58.148879 
L 398.195055 58.706014 
L 398.521052 59.634568 
L 399.592009 60.067893 
L 399.883889 60.253609 
L 399.981452 60.748838 
L 400.873243 59.696474 
L 401.06427 59.820284 
L 401.082861 60.129798 
L 401.112836 59.758379 
L 401.595063 60.067893 
L 402.029455 61.182163 
L 403.466489 61.615488 
L 404.661471 61.615488 
L 405.072494 61.801203 
L 405.393752 60.996459 
L 405.459861 61.305973 
L 407.012422 57.591744 
L 407.261571 58.148879 
L 407.482881 57.839365 
L 408.191257 58.025068 
L 408.252317 57.90127 
L 408.283744 57.467933 
L 408.468927 57.158419 
L 408.55684 57.344135 
L 410.038834 56.725095 
L 410.659798 56.601284 
L 411.770678 55.734635 
L 412.1907 56.415569 
L 413.067505 54.434649 
L 413.541472 54.248945 
L 413.928896 54.248945 
L 414.72 53.568 
L 414.72 53.568 
" style="fill:none;stroke:#000000;stroke-linecap:square;stroke-width:0.8;"/>
   </g>
   <g id="patch_3">
    <path d="M 57.6 307.584 
L 57.6 41.472 
" style="fill:none;stroke:#000000;stroke-linecap:square;stroke-linejoin:miter;stroke-width:0.8;"/>
   </g>
   <g id="patch_4">
    <path d="M 414.72 307.584 
L 414.72 41.472 
" style="fill:none;stroke:#000000;stroke-linecap:square;stroke-linejoin:miter;stroke-width:0.8;"/>
   </g>
   <g id="patch_5">
    <path d="M 57.6 307.584 
L 414.72 307.584 
" style="fill:none;stroke:#000000;stroke-linecap:square;stroke-linejoin:miter;stroke-width:0.8;"/>
   </g>
   <g id="patch_6">
    <path d="M 57.6 41.472 
L 414.72 41.472 
" style="fill:none;stroke:#000000;stroke-linecap:square;stroke-linejoin:miter;stroke-width:0.8;"/>
   </g>
  </g>
  <g id="axes_2">
   <g id="matplotlib.axis_3">
    <g id="xtick_8">
     <g id="line2d_34">
      <defs>
       <path d="M 0 0 
L 0 -3.5 
" id="m8fca992d27" style="stroke:#000000;stroke-width:0.8;"/>
      </defs>
      <g>
       <use style="stroke:#000000;stroke-width:0.8;" x="57.6" xlink:href="#m8fca992d27" y="41.472"/>
      </g>
     </g>
    </g>
    <g id="xtick_9">
     <g id="line2d_35">
      <g>
       <use style="stroke:#000000;stroke-width:0.8;" x="98.12003" xlink:href="#m8fca992d27" y="41.472"/>
      </g>
     </g>
     <g id="text_19">
      <!-- 1,000K -->
      <defs>
       <path d="M 11.71875 12.40625 
L 22.015625 12.40625 
L 22.015625 4 
L 14.015625 -11.625 
L 7.71875 -11.625 
L 11.71875 4 
z
" id="DejaVuSans-44"/>
       <path d="M 9.8125 72.90625 
L 19.671875 72.90625 
L 19.671875 42.09375 
L 52.390625 72.90625 
L 65.09375 72.90625 
L 28.90625 38.921875 
L 67.671875 0 
L 54.6875 0 
L 19.671875 35.109375 
L 19.671875 0 
L 9.8125 0 
z
" id="DejaVuSans-75"/>
      </defs>
      <g transform="translate(80.527061 32.392313)scale(0.1 -0.1)">
       <use xlink:href="#DejaVuSans-49"/>
       <use x="63.623047" xlink:href="#DejaVuSans-44"/>
       <use x="95.410156" xlink:href="#DejaVuSans-48"/>
       <use x="159.033203" xlink:href="#DejaVuSans-48"/>
       <use x="222.65625" xlink:href="#DejaVuSans-48"/>
       <use x="286.279297" xlink:href="#DejaVuSans-75"/>
      </g>
     </g>
    </g>
    <g id="xtick_10">
     <g id="line2d_36">
      <g>
       <use style="stroke:#000000;stroke-width:0.8;" x="138.640059" xlink:href="#m8fca992d27" y="41.472"/>
      </g>
     </g>
     <g id="text_20">
      <!-- 2.00M -->
      <g transform="translate(123.193184 32.392313)scale(0.1 -0.1)">
       <use xlink:href="#DejaVuSans-50"/>
       <use x="63.623047" xlink:href="#DejaVuSans-46"/>
       <use x="95.410156" xlink:href="#DejaVuSans-48"/>
       <use x="159.033203" xlink:href="#DejaVuSans-48"/>
       <use x="222.65625" xlink:href="#DejaVuSans-77"/>
      </g>
     </g>
    </g>
    <g id="xtick_11">
     <g id="line2d_37">
      <g>
       <use style="stroke:#000000;stroke-width:0.8;" x="179.160089" xlink:href="#m8fca992d27" y="41.472"/>
      </g>
     </g>
     <g id="text_21">
      <!-- 3.00M -->
      <g transform="translate(163.713214 32.392313)scale(0.1 -0.1)">
       <use xlink:href="#DejaVuSans-51"/>
       <use x="63.623047" xlink:href="#DejaVuSans-46"/>
       <use x="95.410156" xlink:href="#DejaVuSans-48"/>
       <use x="159.033203" xlink:href="#DejaVuSans-48"/>
       <use x="222.65625" xlink:href="#DejaVuSans-77"/>
      </g>
     </g>
    </g>
    <g id="xtick_12">
     <g id="line2d_38">
      <g>
       <use style="stroke:#000000;stroke-width:0.8;" x="219.680119" xlink:href="#m8fca992d27" y="41.472"/>
      </g>
     </g>
     <g id="text_22">
      <!-- 4.00M -->
      <defs>
       <path d="M 37.796875 64.3125 
L 12.890625 25.390625 
L 37.796875 25.390625 
z
M 35.203125 72.90625 
L 47.609375 72.90625 
L 47.609375 25.390625 
L 58.015625 25.390625 
L 58.015625 17.1875 
L 47.609375 17.1875 
L 47.609375 0 
L 37.796875 0 
L 37.796875 17.1875 
L 4.890625 17.1875 
L 4.890625 26.703125 
z
" id="DejaVuSans-52"/>
      </defs>
      <g transform="translate(204.233244 32.392313)scale(0.1 -0.1)">
       <use xlink:href="#DejaVuSans-52"/>
       <use x="63.623047" xlink:href="#DejaVuSans-46"/>
       <use x="95.410156" xlink:href="#DejaVuSans-48"/>
       <use x="159.033203" xlink:href="#DejaVuSans-48"/>
       <use x="222.65625" xlink:href="#DejaVuSans-77"/>
      </g>
     </g>
    </g>
    <g id="xtick_13">
     <g id="line2d_39">
      <g>
       <use style="stroke:#000000;stroke-width:0.8;" x="260.200149" xlink:href="#m8fca992d27" y="41.472"/>
      </g>
     </g>
     <g id="text_23">
      <!-- 5.00M -->
      <g transform="translate(244.753274 32.392313)scale(0.1 -0.1)">
       <use xlink:href="#DejaVuSans-53"/>
       <use x="63.623047" xlink:href="#DejaVuSans-46"/>
       <use x="95.410156" xlink:href="#DejaVuSans-48"/>
       <use x="159.033203" xlink:href="#DejaVuSans-48"/>
       <use x="222.65625" xlink:href="#DejaVuSans-77"/>
      </g>
     </g>
    </g>
    <g id="xtick_14">
     <g id="line2d_40">
      <g>
       <use style="stroke:#000000;stroke-width:0.8;" x="300.720178" xlink:href="#m8fca992d27" y="41.472"/>
      </g>
     </g>
     <g id="text_24">
      <!-- 6.00M -->
      <defs>
       <path d="M 33.015625 40.375 
Q 26.375 40.375 22.484375 35.828125 
Q 18.609375 31.296875 18.609375 23.390625 
Q 18.609375 15.53125 22.484375 10.953125 
Q 26.375 6.390625 33.015625 6.390625 
Q 39.65625 6.390625 43.53125 10.953125 
Q 47.40625 15.53125 47.40625 23.390625 
Q 47.40625 31.296875 43.53125 35.828125 
Q 39.65625 40.375 33.015625 40.375 
z
M 52.59375 71.296875 
L 52.59375 62.3125 
Q 48.875 64.0625 45.09375 64.984375 
Q 41.3125 65.921875 37.59375 65.921875 
Q 27.828125 65.921875 22.671875 59.328125 
Q 17.53125 52.734375 16.796875 39.40625 
Q 19.671875 43.65625 24.015625 45.921875 
Q 28.375 48.1875 33.59375 48.1875 
Q 44.578125 48.1875 50.953125 41.515625 
Q 57.328125 34.859375 57.328125 23.390625 
Q 57.328125 12.15625 50.6875 5.359375 
Q 44.046875 -1.421875 33.015625 -1.421875 
Q 20.359375 -1.421875 13.671875 8.265625 
Q 6.984375 17.96875 6.984375 36.375 
Q 6.984375 53.65625 15.1875 63.9375 
Q 23.390625 74.21875 37.203125 74.21875 
Q 40.921875 74.21875 44.703125 73.484375 
Q 48.484375 72.75 52.59375 71.296875 
z
" id="DejaVuSans-54"/>
      </defs>
      <g transform="translate(285.273303 32.392313)scale(0.1 -0.1)">
       <use xlink:href="#DejaVuSans-54"/>
       <use x="63.623047" xlink:href="#DejaVuSans-46"/>
       <use x="95.410156" xlink:href="#DejaVuSans-48"/>
       <use x="159.033203" xlink:href="#DejaVuSans-48"/>
       <use x="222.65625" xlink:href="#DejaVuSans-77"/>
      </g>
     </g>
    </g>
    <g id="xtick_15">
     <g id="line2d_41">
      <g>
       <use style="stroke:#000000;stroke-width:0.8;" x="341.240208" xlink:href="#m8fca992d27" y="41.472"/>
      </g>
     </g>
     <g id="text_25">
      <!-- 7.00M -->
      <defs>
       <path d="M 8.203125 72.90625 
L 55.078125 72.90625 
L 55.078125 68.703125 
L 28.609375 0 
L 18.3125 0 
L 43.21875 64.59375 
L 8.203125 64.59375 
z
" id="DejaVuSans-55"/>
      </defs>
      <g transform="translate(325.793333 32.392313)scale(0.1 -0.1)">
       <use xlink:href="#DejaVuSans-55"/>
       <use x="63.623047" xlink:href="#DejaVuSans-46"/>
       <use x="95.410156" xlink:href="#DejaVuSans-48"/>
       <use x="159.033203" xlink:href="#DejaVuSans-48"/>
       <use x="222.65625" xlink:href="#DejaVuSans-77"/>
      </g>
     </g>
    </g>
    <g id="xtick_16">
     <g id="line2d_42">
      <g>
       <use style="stroke:#000000;stroke-width:0.8;" x="381.760238" xlink:href="#m8fca992d27" y="41.472"/>
      </g>
     </g>
     <g id="text_26">
      <!-- 8.00M -->
      <defs>
       <path d="M 31.78125 34.625 
Q 24.75 34.625 20.71875 30.859375 
Q 16.703125 27.09375 16.703125 20.515625 
Q 16.703125 13.921875 20.71875 10.15625 
Q 24.75 6.390625 31.78125 6.390625 
Q 38.8125 6.390625 42.859375 10.171875 
Q 46.921875 13.96875 46.921875 20.515625 
Q 46.921875 27.09375 42.890625 30.859375 
Q 38.875 34.625 31.78125 34.625 
z
M 21.921875 38.8125 
Q 15.578125 40.375 12.03125 44.71875 
Q 8.5 49.078125 8.5 55.328125 
Q 8.5 64.0625 14.71875 69.140625 
Q 20.953125 74.21875 31.78125 74.21875 
Q 42.671875 74.21875 48.875 69.140625 
Q 55.078125 64.0625 55.078125 55.328125 
Q 55.078125 49.078125 51.53125 44.71875 
Q 48 40.375 41.703125 38.8125 
Q 48.828125 37.15625 52.796875 32.3125 
Q 56.78125 27.484375 56.78125 20.515625 
Q 56.78125 9.90625 50.3125 4.234375 
Q 43.84375 -1.421875 31.78125 -1.421875 
Q 19.734375 -1.421875 13.25 4.234375 
Q 6.78125 9.90625 6.78125 20.515625 
Q 6.78125 27.484375 10.78125 32.3125 
Q 14.796875 37.15625 21.921875 38.8125 
z
M 18.3125 54.390625 
Q 18.3125 48.734375 21.84375 45.5625 
Q 25.390625 42.390625 31.78125 42.390625 
Q 38.140625 42.390625 41.71875 45.5625 
Q 45.3125 48.734375 45.3125 54.390625 
Q 45.3125 60.0625 41.71875 63.234375 
Q 38.140625 66.40625 31.78125 66.40625 
Q 25.390625 66.40625 21.84375 63.234375 
Q 18.3125 60.0625 18.3125 54.390625 
z
" id="DejaVuSans-56"/>
      </defs>
      <g transform="translate(366.313363 32.392313)scale(0.1 -0.1)">
       <use xlink:href="#DejaVuSans-56"/>
       <use x="63.623047" xlink:href="#DejaVuSans-46"/>
       <use x="95.410156" xlink:href="#DejaVuSans-48"/>
       <use x="159.033203" xlink:href="#DejaVuSans-48"/>
       <use x="222.65625" xlink:href="#DejaVuSans-77"/>
      </g>
     </g>
    </g>
    <g id="text_27">
     <!-- Steps -->
     <defs>
      <path d="M 53.515625 70.515625 
L 53.515625 60.890625 
Q 47.90625 63.578125 42.921875 64.890625 
Q 37.9375 66.21875 33.296875 66.21875 
Q 25.25 66.21875 20.875 63.09375 
Q 16.5 59.96875 16.5 54.203125 
Q 16.5 49.359375 19.40625 46.890625 
Q 22.3125 44.4375 30.421875 42.921875 
L 36.375 41.703125 
Q 47.40625 39.59375 52.65625 34.296875 
Q 57.90625 29 57.90625 20.125 
Q 57.90625 9.515625 50.796875 4.046875 
Q 43.703125 -1.421875 29.984375 -1.421875 
Q 24.8125 -1.421875 18.96875 -0.25 
Q 13.140625 0.921875 6.890625 3.21875 
L 6.890625 13.375 
Q 12.890625 10.015625 18.65625 8.296875 
Q 24.421875 6.59375 29.984375 6.59375 
Q 38.421875 6.59375 43.015625 9.90625 
Q 47.609375 13.234375 47.609375 19.390625 
Q 47.609375 24.75 44.3125 27.78125 
Q 41.015625 30.8125 33.5 32.328125 
L 27.484375 33.5 
Q 16.453125 35.6875 11.515625 40.375 
Q 6.59375 45.0625 6.59375 53.421875 
Q 6.59375 63.09375 13.40625 68.65625 
Q 20.21875 74.21875 32.171875 74.21875 
Q 37.3125 74.21875 42.625 73.28125 
Q 47.953125 72.359375 53.515625 70.515625 
z
" id="DejaVuSans-83"/>
      <path d="M 18.3125 70.21875 
L 18.3125 54.6875 
L 36.8125 54.6875 
L 36.8125 47.703125 
L 18.3125 47.703125 
L 18.3125 18.015625 
Q 18.3125 11.328125 20.140625 9.421875 
Q 21.96875 7.515625 27.59375 7.515625 
L 36.8125 7.515625 
L 36.8125 0 
L 27.59375 0 
Q 17.1875 0 13.234375 3.875 
Q 9.28125 7.765625 9.28125 18.015625 
L 9.28125 47.703125 
L 2.6875 47.703125 
L 2.6875 54.6875 
L 9.28125 54.6875 
L 9.28125 70.21875 
z
" id="DejaVuSans-116"/>
      <path d="M 18.109375 8.203125 
L 18.109375 -20.796875 
L 9.078125 -20.796875 
L 9.078125 54.6875 
L 18.109375 54.6875 
L 18.109375 46.390625 
Q 20.953125 51.265625 25.265625 53.625 
Q 29.59375 56 35.59375 56 
Q 45.5625 56 51.78125 48.09375 
Q 58.015625 40.1875 58.015625 27.296875 
Q 58.015625 14.40625 51.78125 6.484375 
Q 45.5625 -1.421875 35.59375 -1.421875 
Q 29.59375 -1.421875 25.265625 0.953125 
Q 20.953125 3.328125 18.109375 8.203125 
z
M 48.6875 27.296875 
Q 48.6875 37.203125 44.609375 42.84375 
Q 40.53125 48.484375 33.40625 48.484375 
Q 26.265625 48.484375 22.1875 42.84375 
Q 18.109375 37.203125 18.109375 27.296875 
Q 18.109375 17.390625 22.1875 11.75 
Q 26.265625 6.109375 33.40625 6.109375 
Q 40.53125 6.109375 44.609375 11.75 
Q 48.6875 17.390625 48.6875 27.296875 
z
" id="DejaVuSans-112"/>
     </defs>
     <g transform="translate(222.170156 20.793875)scale(0.1 -0.1)">
      <use xlink:href="#DejaVuSans-83"/>
      <use x="63.476562" xlink:href="#DejaVuSans-116"/>
      <use x="102.685547" xlink:href="#DejaVuSans-101"/>
      <use x="164.208984" xlink:href="#DejaVuSans-112"/>
      <use x="227.685547" xlink:href="#DejaVuSans-115"/>
     </g>
    </g>
   </g>
   <g id="patch_7">
    <path d="M 57.6 307.584 
L 57.6 41.472 
" style="fill:none;stroke:#000000;stroke-linecap:square;stroke-linejoin:miter;stroke-width:0.8;"/>
   </g>
   <g id="patch_8">
    <path d="M 414.72 307.584 
L 414.72 41.472 
" style="fill:none;stroke:#000000;stroke-linecap:square;stroke-linejoin:miter;stroke-width:0.8;"/>
   </g>
   <g id="patch_9">
    <path d="M 57.6 307.584 
L 414.72 307.584 
" style="fill:none;stroke:#000000;stroke-linecap:square;stroke-linejoin:miter;stroke-width:0.8;"/>
   </g>
   <g id="patch_10">
    <path d="M 57.6 41.472 
L 414.72 41.472 
" style="fill:none;stroke:#000000;stroke-linecap:square;stroke-linejoin:miter;stroke-width:0.8;"/>
   </g>
  </g>
 </g>
 <defs>
  <clipPath id="pd320c4b0ac">
   <rect height="266.112" width="357.12" x="57.6" y="41.472"/>
  </clipPath>
 </defs>
</svg>
