<?xml version="1.0" encoding="utf-8" standalone="no"?>
<!DOCTYPE svg PUBLIC "-//W3C//DTD SVG 1.1//EN"
  "http://www.w3.org/Graphics/SVG/1.1/DTD/svg11.dtd">
<!-- Created with matplotlib (https://matplotlib.org/) -->
<svg height="345.6pt" version="1.1" viewBox="0 0 460.8 345.6" width="460.8pt" xmlns="http://www.w3.org/2000/svg" xmlns:xlink="http://www.w3.org/1999/xlink">
 <defs>
  <style type="text/css">
*{stroke-linecap:butt;stroke-linejoin:round;}
  </style>
 </defs>
 <g id="figure_1">
  <g id="patch_1">
   <path d="M 0 345.6 
L 460.8 345.6 
L 460.8 0 
L 0 0 
z
" style="fill:#ffffff;"/>
  </g>
  <g id="axes_1">
   <g id="patch_2">
    <path d="M 57.6 307.584 
L 414.72 307.584 
L 414.72 41.472 
L 57.6 41.472 
z
" style="fill:#ffffff;"/>
   </g>
   <g id="matplotlib.axis_1">
    <g id="xtick_1">
     <g id="line2d_1">
      <path clip-path="url(#p25df005a35)" d="M 57.6 307.584 
L 57.6 41.472 
" style="fill:none;stroke:#b0b0b0;stroke-linecap:square;stroke-width:0.8;"/>
     </g>
     <g id="line2d_2">
      <defs>
       <path d="M 0 0 
L 0 3.5 
" id="m6eba5b2d86" style="stroke:#000000;stroke-width:0.8;"/>
      </defs>
      <g>
       <use style="stroke:#000000;stroke-width:0.8;" x="57.6" xlink:href="#m6eba5b2d86" y="307.584"/>
      </g>
     </g>
     <g id="text_1">
      <!-- 0.0 -->
      <defs>
       <path d="M 31.78125 66.40625 
Q 24.171875 66.40625 20.328125 58.90625 
Q 16.5 51.421875 16.5 36.375 
Q 16.5 21.390625 20.328125 13.890625 
Q 24.171875 6.390625 31.78125 6.390625 
Q 39.453125 6.390625 43.28125 13.890625 
Q 47.125 21.390625 47.125 36.375 
Q 47.125 51.421875 43.28125 58.90625 
Q 39.453125 66.40625 31.78125 66.40625 
z
M 31.78125 74.21875 
Q 44.046875 74.21875 50.515625 64.515625 
Q 56.984375 54.828125 56.984375 36.375 
Q 56.984375 17.96875 50.515625 8.265625 
Q 44.046875 -1.421875 31.78125 -1.421875 
Q 19.53125 -1.421875 13.0625 8.265625 
Q 6.59375 17.96875 6.59375 36.375 
Q 6.59375 54.828125 13.0625 64.515625 
Q 19.53125 74.21875 31.78125 74.21875 
z
" id="DejaVuSans-48"/>
       <path d="M 10.6875 12.40625 
L 21 12.40625 
L 21 0 
L 10.6875 0 
z
" id="DejaVuSans-46"/>
      </defs>
      <g transform="translate(49.648438 322.182437)scale(0.1 -0.1)">
       <use xlink:href="#DejaVuSans-48"/>
       <use x="63.623047" xlink:href="#DejaVuSans-46"/>
       <use x="95.410156" xlink:href="#DejaVuSans-48"/>
      </g>
     </g>
    </g>
    <g id="xtick_2">
     <g id="line2d_3">
      <path clip-path="url(#p25df005a35)" d="M 115.28408 307.584 
L 115.28408 41.472 
" style="fill:none;stroke:#b0b0b0;stroke-linecap:square;stroke-width:0.8;"/>
     </g>
     <g id="line2d_4">
      <g>
       <use style="stroke:#000000;stroke-width:0.8;" x="115.28408" xlink:href="#m6eba5b2d86" y="307.584"/>
      </g>
     </g>
     <g id="text_2">
      <!-- 0.5 -->
      <defs>
       <path d="M 10.796875 72.90625 
L 49.515625 72.90625 
L 49.515625 64.59375 
L 19.828125 64.59375 
L 19.828125 46.734375 
Q 21.96875 47.46875 24.109375 47.828125 
Q 26.265625 48.1875 28.421875 48.1875 
Q 40.625 48.1875 47.75 41.5 
Q 54.890625 34.8125 54.890625 23.390625 
Q 54.890625 11.625 47.5625 5.09375 
Q 40.234375 -1.421875 26.90625 -1.421875 
Q 22.3125 -1.421875 17.546875 -0.640625 
Q 12.796875 0.140625 7.71875 1.703125 
L 7.71875 11.625 
Q 12.109375 9.234375 16.796875 8.0625 
Q 21.484375 6.890625 26.703125 6.890625 
Q 35.15625 6.890625 40.078125 11.328125 
Q 45.015625 15.765625 45.015625 23.390625 
Q 45.015625 31 40.078125 35.4375 
Q 35.15625 39.890625 26.703125 39.890625 
Q 22.75 39.890625 18.8125 39.015625 
Q 14.890625 38.140625 10.796875 36.28125 
z
" id="DejaVuSans-53"/>
      </defs>
      <g transform="translate(107.332518 322.182437)scale(0.1 -0.1)">
       <use xlink:href="#DejaVuSans-48"/>
       <use x="63.623047" xlink:href="#DejaVuSans-46"/>
       <use x="95.410156" xlink:href="#DejaVuSans-53"/>
      </g>
     </g>
    </g>
    <g id="xtick_3">
     <g id="line2d_5">
      <path clip-path="url(#p25df005a35)" d="M 172.96816 307.584 
L 172.96816 41.472 
" style="fill:none;stroke:#b0b0b0;stroke-linecap:square;stroke-width:0.8;"/>
     </g>
     <g id="line2d_6">
      <g>
       <use style="stroke:#000000;stroke-width:0.8;" x="172.96816" xlink:href="#m6eba5b2d86" y="307.584"/>
      </g>
     </g>
     <g id="text_3">
      <!-- 1.0 -->
      <defs>
       <path d="M 12.40625 8.296875 
L 28.515625 8.296875 
L 28.515625 63.921875 
L 10.984375 60.40625 
L 10.984375 69.390625 
L 28.421875 72.90625 
L 38.28125 72.90625 
L 38.28125 8.296875 
L 54.390625 8.296875 
L 54.390625 0 
L 12.40625 0 
z
" id="DejaVuSans-49"/>
      </defs>
      <g transform="translate(165.016598 322.182437)scale(0.1 -0.1)">
       <use xlink:href="#DejaVuSans-49"/>
       <use x="63.623047" xlink:href="#DejaVuSans-46"/>
       <use x="95.410156" xlink:href="#DejaVuSans-48"/>
      </g>
     </g>
    </g>
    <g id="xtick_4">
     <g id="line2d_7">
      <path clip-path="url(#p25df005a35)" d="M 230.65224 307.584 
L 230.65224 41.472 
" style="fill:none;stroke:#b0b0b0;stroke-linecap:square;stroke-width:0.8;"/>
     </g>
     <g id="line2d_8">
      <g>
       <use style="stroke:#000000;stroke-width:0.8;" x="230.65224" xlink:href="#m6eba5b2d86" y="307.584"/>
      </g>
     </g>
     <g id="text_4">
      <!-- 1.5 -->
      <g transform="translate(222.700678 322.182437)scale(0.1 -0.1)">
       <use xlink:href="#DejaVuSans-49"/>
       <use x="63.623047" xlink:href="#DejaVuSans-46"/>
       <use x="95.410156" xlink:href="#DejaVuSans-53"/>
      </g>
     </g>
    </g>
    <g id="xtick_5">
     <g id="line2d_9">
      <path clip-path="url(#p25df005a35)" d="M 288.33632 307.584 
L 288.33632 41.472 
" style="fill:none;stroke:#b0b0b0;stroke-linecap:square;stroke-width:0.8;"/>
     </g>
     <g id="line2d_10">
      <g>
       <use style="stroke:#000000;stroke-width:0.8;" x="288.33632" xlink:href="#m6eba5b2d86" y="307.584"/>
      </g>
     </g>
     <g id="text_5">
      <!-- 2.0 -->
      <defs>
       <path d="M 19.1875 8.296875 
L 53.609375 8.296875 
L 53.609375 0 
L 7.328125 0 
L 7.328125 8.296875 
Q 12.9375 14.109375 22.625 23.890625 
Q 32.328125 33.6875 34.8125 36.53125 
Q 39.546875 41.84375 41.421875 45.53125 
Q 43.3125 49.21875 43.3125 52.78125 
Q 43.3125 58.59375 39.234375 62.25 
Q 35.15625 65.921875 28.609375 65.921875 
Q 23.96875 65.921875 18.8125 64.3125 
Q 13.671875 62.703125 7.8125 59.421875 
L 7.8125 69.390625 
Q 13.765625 71.78125 18.9375 73 
Q 24.125 74.21875 28.421875 74.21875 
Q 39.75 74.21875 46.484375 68.546875 
Q 53.21875 62.890625 53.21875 53.421875 
Q 53.21875 48.921875 51.53125 44.890625 
Q 49.859375 40.875 45.40625 35.40625 
Q 44.1875 33.984375 37.640625 27.21875 
Q 31.109375 20.453125 19.1875 8.296875 
z
" id="DejaVuSans-50"/>
      </defs>
      <g transform="translate(280.384758 322.182437)scale(0.1 -0.1)">
       <use xlink:href="#DejaVuSans-50"/>
       <use x="63.623047" xlink:href="#DejaVuSans-46"/>
       <use x="95.410156" xlink:href="#DejaVuSans-48"/>
      </g>
     </g>
    </g>
    <g id="xtick_6">
     <g id="line2d_11">
      <path clip-path="url(#p25df005a35)" d="M 346.020401 307.584 
L 346.020401 41.472 
" style="fill:none;stroke:#b0b0b0;stroke-linecap:square;stroke-width:0.8;"/>
     </g>
     <g id="line2d_12">
      <g>
       <use style="stroke:#000000;stroke-width:0.8;" x="346.020401" xlink:href="#m6eba5b2d86" y="307.584"/>
      </g>
     </g>
     <g id="text_6">
      <!-- 2.5 -->
      <g transform="translate(338.068838 322.182437)scale(0.1 -0.1)">
       <use xlink:href="#DejaVuSans-50"/>
       <use x="63.623047" xlink:href="#DejaVuSans-46"/>
       <use x="95.410156" xlink:href="#DejaVuSans-53"/>
      </g>
     </g>
    </g>
    <g id="xtick_7">
     <g id="line2d_13">
      <path clip-path="url(#p25df005a35)" d="M 403.704481 307.584 
L 403.704481 41.472 
" style="fill:none;stroke:#b0b0b0;stroke-linecap:square;stroke-width:0.8;"/>
     </g>
     <g id="line2d_14">
      <g>
       <use style="stroke:#000000;stroke-width:0.8;" x="403.704481" xlink:href="#m6eba5b2d86" y="307.584"/>
      </g>
     </g>
     <g id="text_7">
      <!-- 3.0 -->
      <defs>
       <path d="M 40.578125 39.3125 
Q 47.65625 37.796875 51.625 33 
Q 55.609375 28.21875 55.609375 21.1875 
Q 55.609375 10.40625 48.1875 4.484375 
Q 40.765625 -1.421875 27.09375 -1.421875 
Q 22.515625 -1.421875 17.65625 -0.515625 
Q 12.796875 0.390625 7.625 2.203125 
L 7.625 11.71875 
Q 11.71875 9.328125 16.59375 8.109375 
Q 21.484375 6.890625 26.8125 6.890625 
Q 36.078125 6.890625 40.9375 10.546875 
Q 45.796875 14.203125 45.796875 21.1875 
Q 45.796875 27.640625 41.28125 31.265625 
Q 36.765625 34.90625 28.71875 34.90625 
L 20.21875 34.90625 
L 20.21875 43.015625 
L 29.109375 43.015625 
Q 36.375 43.015625 40.234375 45.921875 
Q 44.09375 48.828125 44.09375 54.296875 
Q 44.09375 59.90625 40.109375 62.90625 
Q 36.140625 65.921875 28.71875 65.921875 
Q 24.65625 65.921875 20.015625 65.03125 
Q 15.375 64.15625 9.8125 62.3125 
L 9.8125 71.09375 
Q 15.4375 72.65625 20.34375 73.4375 
Q 25.25 74.21875 29.59375 74.21875 
Q 40.828125 74.21875 47.359375 69.109375 
Q 53.90625 64.015625 53.90625 55.328125 
Q 53.90625 49.265625 50.4375 45.09375 
Q 46.96875 40.921875 40.578125 39.3125 
z
" id="DejaVuSans-51"/>
      </defs>
      <g transform="translate(395.752918 322.182437)scale(0.1 -0.1)">
       <use xlink:href="#DejaVuSans-51"/>
       <use x="63.623047" xlink:href="#DejaVuSans-46"/>
       <use x="95.410156" xlink:href="#DejaVuSans-48"/>
      </g>
     </g>
    </g>
    <g id="text_8">
     <!-- Hours -->
     <defs>
      <path d="M 9.8125 72.90625 
L 19.671875 72.90625 
L 19.671875 43.015625 
L 55.515625 43.015625 
L 55.515625 72.90625 
L 65.375 72.90625 
L 65.375 0 
L 55.515625 0 
L 55.515625 34.71875 
L 19.671875 34.71875 
L 19.671875 0 
L 9.8125 0 
z
" id="DejaVuSans-72"/>
      <path d="M 30.609375 48.390625 
Q 23.390625 48.390625 19.1875 42.75 
Q 14.984375 37.109375 14.984375 27.296875 
Q 14.984375 17.484375 19.15625 11.84375 
Q 23.34375 6.203125 30.609375 6.203125 
Q 37.796875 6.203125 41.984375 11.859375 
Q 46.1875 17.53125 46.1875 27.296875 
Q 46.1875 37.015625 41.984375 42.703125 
Q 37.796875 48.390625 30.609375 48.390625 
z
M 30.609375 56 
Q 42.328125 56 49.015625 48.375 
Q 55.71875 40.765625 55.71875 27.296875 
Q 55.71875 13.875 49.015625 6.21875 
Q 42.328125 -1.421875 30.609375 -1.421875 
Q 18.84375 -1.421875 12.171875 6.21875 
Q 5.515625 13.875 5.515625 27.296875 
Q 5.515625 40.765625 12.171875 48.375 
Q 18.84375 56 30.609375 56 
z
" id="DejaVuSans-111"/>
      <path d="M 8.5 21.578125 
L 8.5 54.6875 
L 17.484375 54.6875 
L 17.484375 21.921875 
Q 17.484375 14.15625 20.5 10.265625 
Q 23.53125 6.390625 29.59375 6.390625 
Q 36.859375 6.390625 41.078125 11.03125 
Q 45.3125 15.671875 45.3125 23.6875 
L 45.3125 54.6875 
L 54.296875 54.6875 
L 54.296875 0 
L 45.3125 0 
L 45.3125 8.40625 
Q 42.046875 3.421875 37.71875 1 
Q 33.40625 -1.421875 27.6875 -1.421875 
Q 18.265625 -1.421875 13.375 4.4375 
Q 8.5 10.296875 8.5 21.578125 
z
M 31.109375 56 
z
" id="DejaVuSans-117"/>
      <path d="M 41.109375 46.296875 
Q 39.59375 47.171875 37.8125 47.578125 
Q 36.03125 48 33.890625 48 
Q 26.265625 48 22.1875 43.046875 
Q 18.109375 38.09375 18.109375 28.8125 
L 18.109375 0 
L 9.078125 0 
L 9.078125 54.6875 
L 18.109375 54.6875 
L 18.109375 46.1875 
Q 20.953125 51.171875 25.484375 53.578125 
Q 30.03125 56 36.53125 56 
Q 37.453125 56 38.578125 55.875 
Q 39.703125 55.765625 41.0625 55.515625 
z
" id="DejaVuSans-114"/>
      <path d="M 44.28125 53.078125 
L 44.28125 44.578125 
Q 40.484375 46.53125 36.375 47.5 
Q 32.28125 48.484375 27.875 48.484375 
Q 21.1875 48.484375 17.84375 46.4375 
Q 14.5 44.390625 14.5 40.28125 
Q 14.5 37.15625 16.890625 35.375 
Q 19.28125 33.59375 26.515625 31.984375 
L 29.59375 31.296875 
Q 39.15625 29.25 43.1875 25.515625 
Q 47.21875 21.78125 47.21875 15.09375 
Q 47.21875 7.46875 41.1875 3.015625 
Q 35.15625 -1.421875 24.609375 -1.421875 
Q 20.21875 -1.421875 15.453125 -0.5625 
Q 10.6875 0.296875 5.421875 2 
L 5.421875 11.28125 
Q 10.40625 8.6875 15.234375 7.390625 
Q 20.0625 6.109375 24.8125 6.109375 
Q 31.15625 6.109375 34.5625 8.28125 
Q 37.984375 10.453125 37.984375 14.40625 
Q 37.984375 18.0625 35.515625 20.015625 
Q 33.0625 21.96875 24.703125 23.78125 
L 21.578125 24.515625 
Q 13.234375 26.265625 9.515625 29.90625 
Q 5.8125 33.546875 5.8125 39.890625 
Q 5.8125 47.609375 11.28125 51.796875 
Q 16.75 56 26.8125 56 
Q 31.78125 56 36.171875 55.265625 
Q 40.578125 54.546875 44.28125 53.078125 
z
" id="DejaVuSans-115"/>
     </defs>
     <g transform="translate(221.511562 335.860562)scale(0.1 -0.1)">
      <use xlink:href="#DejaVuSans-72"/>
      <use x="75.195312" xlink:href="#DejaVuSans-111"/>
      <use x="136.376953" xlink:href="#DejaVuSans-117"/>
      <use x="199.755859" xlink:href="#DejaVuSans-114"/>
      <use x="240.869141" xlink:href="#DejaVuSans-115"/>
     </g>
    </g>
   </g>
   <g id="matplotlib.axis_2">
    <g id="ytick_1">
     <g id="line2d_15">
      <path clip-path="url(#p25df005a35)" d="M 57.6 302.600609 
L 414.72 302.600609 
" style="fill:none;stroke:#b0b0b0;stroke-linecap:square;stroke-width:0.8;"/>
     </g>
     <g id="line2d_16">
      <defs>
       <path d="M 0 0 
L -3.5 0 
" id="m9f598908c0" style="stroke:#000000;stroke-width:0.8;"/>
      </defs>
      <g>
       <use style="stroke:#000000;stroke-width:0.8;" x="57.6" xlink:href="#m9f598908c0" y="302.600609"/>
      </g>
     </g>
     <g id="text_9">
      <!-- −0.0180 -->
      <defs>
       <path d="M 10.59375 35.5 
L 73.1875 35.5 
L 73.1875 27.203125 
L 10.59375 27.203125 
z
" id="DejaVuSans-8722"/>
       <path d="M 31.78125 34.625 
Q 24.75 34.625 20.71875 30.859375 
Q 16.703125 27.09375 16.703125 20.515625 
Q 16.703125 13.921875 20.71875 10.15625 
Q 24.75 6.390625 31.78125 6.390625 
Q 38.8125 6.390625 42.859375 10.171875 
Q 46.921875 13.96875 46.921875 20.515625 
Q 46.921875 27.09375 42.890625 30.859375 
Q 38.875 34.625 31.78125 34.625 
z
M 21.921875 38.8125 
Q 15.578125 40.375 12.03125 44.71875 
Q 8.5 49.078125 8.5 55.328125 
Q 8.5 64.0625 14.71875 69.140625 
Q 20.953125 74.21875 31.78125 74.21875 
Q 42.671875 74.21875 48.875 69.140625 
Q 55.078125 64.0625 55.078125 55.328125 
Q 55.078125 49.078125 51.53125 44.71875 
Q 48 40.375 41.703125 38.8125 
Q 48.828125 37.15625 52.796875 32.3125 
Q 56.78125 27.484375 56.78125 20.515625 
Q 56.78125 9.90625 50.3125 4.234375 
Q 43.84375 -1.421875 31.78125 -1.421875 
Q 19.734375 -1.421875 13.25 4.234375 
Q 6.78125 9.90625 6.78125 20.515625 
Q 6.78125 27.484375 10.78125 32.3125 
Q 14.796875 37.15625 21.921875 38.8125 
z
M 18.3125 54.390625 
Q 18.3125 48.734375 21.84375 45.5625 
Q 25.390625 42.390625 31.78125 42.390625 
Q 38.140625 42.390625 41.71875 45.5625 
Q 45.3125 48.734375 45.3125 54.390625 
Q 45.3125 60.0625 41.71875 63.234375 
Q 38.140625 66.40625 31.78125 66.40625 
Q 25.390625 66.40625 21.84375 63.234375 
Q 18.3125 60.0625 18.3125 54.390625 
z
" id="DejaVuSans-56"/>
      </defs>
      <g transform="translate(7.229687 306.399828)scale(0.1 -0.1)">
       <use xlink:href="#DejaVuSans-8722"/>
       <use x="83.789062" xlink:href="#DejaVuSans-48"/>
       <use x="147.412109" xlink:href="#DejaVuSans-46"/>
       <use x="179.199219" xlink:href="#DejaVuSans-48"/>
       <use x="242.822266" xlink:href="#DejaVuSans-49"/>
       <use x="306.445312" xlink:href="#DejaVuSans-56"/>
       <use x="370.068359" xlink:href="#DejaVuSans-48"/>
      </g>
     </g>
    </g>
    <g id="ytick_2">
     <g id="line2d_17">
      <path clip-path="url(#p25df005a35)" d="M 57.6 262.805294 
L 414.72 262.805294 
" style="fill:none;stroke:#b0b0b0;stroke-linecap:square;stroke-width:0.8;"/>
     </g>
     <g id="line2d_18">
      <g>
       <use style="stroke:#000000;stroke-width:0.8;" x="57.6" xlink:href="#m9f598908c0" y="262.805294"/>
      </g>
     </g>
     <g id="text_10">
      <!-- −0.0175 -->
      <defs>
       <path d="M 8.203125 72.90625 
L 55.078125 72.90625 
L 55.078125 68.703125 
L 28.609375 0 
L 18.3125 0 
L 43.21875 64.59375 
L 8.203125 64.59375 
z
" id="DejaVuSans-55"/>
      </defs>
      <g transform="translate(7.229687 266.604512)scale(0.1 -0.1)">
       <use xlink:href="#DejaVuSans-8722"/>
       <use x="83.789062" xlink:href="#DejaVuSans-48"/>
       <use x="147.412109" xlink:href="#DejaVuSans-46"/>
       <use x="179.199219" xlink:href="#DejaVuSans-48"/>
       <use x="242.822266" xlink:href="#DejaVuSans-49"/>
       <use x="306.445312" xlink:href="#DejaVuSans-55"/>
       <use x="370.068359" xlink:href="#DejaVuSans-53"/>
      </g>
     </g>
    </g>
    <g id="ytick_3">
     <g id="line2d_19">
      <path clip-path="url(#p25df005a35)" d="M 57.6 223.009978 
L 414.72 223.009978 
" style="fill:none;stroke:#b0b0b0;stroke-linecap:square;stroke-width:0.8;"/>
     </g>
     <g id="line2d_20">
      <g>
       <use style="stroke:#000000;stroke-width:0.8;" x="57.6" xlink:href="#m9f598908c0" y="223.009978"/>
      </g>
     </g>
     <g id="text_11">
      <!-- −0.0170 -->
      <g transform="translate(7.229687 226.809197)scale(0.1 -0.1)">
       <use xlink:href="#DejaVuSans-8722"/>
       <use x="83.789062" xlink:href="#DejaVuSans-48"/>
       <use x="147.412109" xlink:href="#DejaVuSans-46"/>
       <use x="179.199219" xlink:href="#DejaVuSans-48"/>
       <use x="242.822266" xlink:href="#DejaVuSans-49"/>
       <use x="306.445312" xlink:href="#DejaVuSans-55"/>
       <use x="370.068359" xlink:href="#DejaVuSans-48"/>
      </g>
     </g>
    </g>
    <g id="ytick_4">
     <g id="line2d_21">
      <path clip-path="url(#p25df005a35)" d="M 57.6 183.214663 
L 414.72 183.214663 
" style="fill:none;stroke:#b0b0b0;stroke-linecap:square;stroke-width:0.8;"/>
     </g>
     <g id="line2d_22">
      <g>
       <use style="stroke:#000000;stroke-width:0.8;" x="57.6" xlink:href="#m9f598908c0" y="183.214663"/>
      </g>
     </g>
     <g id="text_12">
      <!-- −0.0165 -->
      <defs>
       <path d="M 33.015625 40.375 
Q 26.375 40.375 22.484375 35.828125 
Q 18.609375 31.296875 18.609375 23.390625 
Q 18.609375 15.53125 22.484375 10.953125 
Q 26.375 6.390625 33.015625 6.390625 
Q 39.65625 6.390625 43.53125 10.953125 
Q 47.40625 15.53125 47.40625 23.390625 
Q 47.40625 31.296875 43.53125 35.828125 
Q 39.65625 40.375 33.015625 40.375 
z
M 52.59375 71.296875 
L 52.59375 62.3125 
Q 48.875 64.0625 45.09375 64.984375 
Q 41.3125 65.921875 37.59375 65.921875 
Q 27.828125 65.921875 22.671875 59.328125 
Q 17.53125 52.734375 16.796875 39.40625 
Q 19.671875 43.65625 24.015625 45.921875 
Q 28.375 48.1875 33.59375 48.1875 
Q 44.578125 48.1875 50.953125 41.515625 
Q 57.328125 34.859375 57.328125 23.390625 
Q 57.328125 12.15625 50.6875 5.359375 
Q 44.046875 -1.421875 33.015625 -1.421875 
Q 20.359375 -1.421875 13.671875 8.265625 
Q 6.984375 17.96875 6.984375 36.375 
Q 6.984375 53.65625 15.1875 63.9375 
Q 23.390625 74.21875 37.203125 74.21875 
Q 40.921875 74.21875 44.703125 73.484375 
Q 48.484375 72.75 52.59375 71.296875 
z
" id="DejaVuSans-54"/>
      </defs>
      <g transform="translate(7.229687 187.013882)scale(0.1 -0.1)">
       <use xlink:href="#DejaVuSans-8722"/>
       <use x="83.789062" xlink:href="#DejaVuSans-48"/>
       <use x="147.412109" xlink:href="#DejaVuSans-46"/>
       <use x="179.199219" xlink:href="#DejaVuSans-48"/>
       <use x="242.822266" xlink:href="#DejaVuSans-49"/>
       <use x="306.445312" xlink:href="#DejaVuSans-54"/>
       <use x="370.068359" xlink:href="#DejaVuSans-53"/>
      </g>
     </g>
    </g>
    <g id="ytick_5">
     <g id="line2d_23">
      <path clip-path="url(#p25df005a35)" d="M 57.6 143.419348 
L 414.72 143.419348 
" style="fill:none;stroke:#b0b0b0;stroke-linecap:square;stroke-width:0.8;"/>
     </g>
     <g id="line2d_24">
      <g>
       <use style="stroke:#000000;stroke-width:0.8;" x="57.6" xlink:href="#m9f598908c0" y="143.419348"/>
      </g>
     </g>
     <g id="text_13">
      <!-- −0.0160 -->
      <g transform="translate(7.229687 147.218567)scale(0.1 -0.1)">
       <use xlink:href="#DejaVuSans-8722"/>
       <use x="83.789062" xlink:href="#DejaVuSans-48"/>
       <use x="147.412109" xlink:href="#DejaVuSans-46"/>
       <use x="179.199219" xlink:href="#DejaVuSans-48"/>
       <use x="242.822266" xlink:href="#DejaVuSans-49"/>
       <use x="306.445312" xlink:href="#DejaVuSans-54"/>
       <use x="370.068359" xlink:href="#DejaVuSans-48"/>
      </g>
     </g>
    </g>
    <g id="ytick_6">
     <g id="line2d_25">
      <path clip-path="url(#p25df005a35)" d="M 57.6 103.624033 
L 414.72 103.624033 
" style="fill:none;stroke:#b0b0b0;stroke-linecap:square;stroke-width:0.8;"/>
     </g>
     <g id="line2d_26">
      <g>
       <use style="stroke:#000000;stroke-width:0.8;" x="57.6" xlink:href="#m9f598908c0" y="103.624033"/>
      </g>
     </g>
     <g id="text_14">
      <!-- −0.0155 -->
      <g transform="translate(7.229687 107.423252)scale(0.1 -0.1)">
       <use xlink:href="#DejaVuSans-8722"/>
       <use x="83.789062" xlink:href="#DejaVuSans-48"/>
       <use x="147.412109" xlink:href="#DejaVuSans-46"/>
       <use x="179.199219" xlink:href="#DejaVuSans-48"/>
       <use x="242.822266" xlink:href="#DejaVuSans-49"/>
       <use x="306.445312" xlink:href="#DejaVuSans-53"/>
       <use x="370.068359" xlink:href="#DejaVuSans-53"/>
      </g>
     </g>
    </g>
    <g id="ytick_7">
     <g id="line2d_27">
      <path clip-path="url(#p25df005a35)" d="M 57.6 63.828718 
L 414.72 63.828718 
" style="fill:none;stroke:#b0b0b0;stroke-linecap:square;stroke-width:0.8;"/>
     </g>
     <g id="line2d_28">
      <g>
       <use style="stroke:#000000;stroke-width:0.8;" x="57.6" xlink:href="#m9f598908c0" y="63.828718"/>
      </g>
     </g>
     <g id="text_15">
      <!-- −0.0150 -->
      <g transform="translate(7.229687 67.627936)scale(0.1 -0.1)">
       <use xlink:href="#DejaVuSans-8722"/>
       <use x="83.789062" xlink:href="#DejaVuSans-48"/>
       <use x="147.412109" xlink:href="#DejaVuSans-46"/>
       <use x="179.199219" xlink:href="#DejaVuSans-48"/>
       <use x="242.822266" xlink:href="#DejaVuSans-49"/>
       <use x="306.445312" xlink:href="#DejaVuSans-53"/>
       <use x="370.068359" xlink:href="#DejaVuSans-48"/>
      </g>
     </g>
    </g>
    <g id="text_16">
     <!-- Entropy loss -->
     <defs>
      <path d="M 9.8125 72.90625 
L 55.90625 72.90625 
L 55.90625 64.59375 
L 19.671875 64.59375 
L 19.671875 43.015625 
L 54.390625 43.015625 
L 54.390625 34.71875 
L 19.671875 34.71875 
L 19.671875 8.296875 
L 56.78125 8.296875 
L 56.78125 0 
L 9.8125 0 
z
" id="DejaVuSans-69"/>
      <path d="M 54.890625 33.015625 
L 54.890625 0 
L 45.90625 0 
L 45.90625 32.71875 
Q 45.90625 40.484375 42.875 44.328125 
Q 39.84375 48.1875 33.796875 48.1875 
Q 26.515625 48.1875 22.3125 43.546875 
Q 18.109375 38.921875 18.109375 30.90625 
L 18.109375 0 
L 9.078125 0 
L 9.078125 54.6875 
L 18.109375 54.6875 
L 18.109375 46.1875 
Q 21.34375 51.125 25.703125 53.5625 
Q 30.078125 56 35.796875 56 
Q 45.21875 56 50.046875 50.171875 
Q 54.890625 44.34375 54.890625 33.015625 
z
" id="DejaVuSans-110"/>
      <path d="M 18.3125 70.21875 
L 18.3125 54.6875 
L 36.8125 54.6875 
L 36.8125 47.703125 
L 18.3125 47.703125 
L 18.3125 18.015625 
Q 18.3125 11.328125 20.140625 9.421875 
Q 21.96875 7.515625 27.59375 7.515625 
L 36.8125 7.515625 
L 36.8125 0 
L 27.59375 0 
Q 17.1875 0 13.234375 3.875 
Q 9.28125 7.765625 9.28125 18.015625 
L 9.28125 47.703125 
L 2.6875 47.703125 
L 2.6875 54.6875 
L 9.28125 54.6875 
L 9.28125 70.21875 
z
" id="DejaVuSans-116"/>
      <path d="M 18.109375 8.203125 
L 18.109375 -20.796875 
L 9.078125 -20.796875 
L 9.078125 54.6875 
L 18.109375 54.6875 
L 18.109375 46.390625 
Q 20.953125 51.265625 25.265625 53.625 
Q 29.59375 56 35.59375 56 
Q 45.5625 56 51.78125 48.09375 
Q 58.015625 40.1875 58.015625 27.296875 
Q 58.015625 14.40625 51.78125 6.484375 
Q 45.5625 -1.421875 35.59375 -1.421875 
Q 29.59375 -1.421875 25.265625 0.953125 
Q 20.953125 3.328125 18.109375 8.203125 
z
M 48.6875 27.296875 
Q 48.6875 37.203125 44.609375 42.84375 
Q 40.53125 48.484375 33.40625 48.484375 
Q 26.265625 48.484375 22.1875 42.84375 
Q 18.109375 37.203125 18.109375 27.296875 
Q 18.109375 17.390625 22.1875 11.75 
Q 26.265625 6.109375 33.40625 6.109375 
Q 40.53125 6.109375 44.609375 11.75 
Q 48.6875 17.390625 48.6875 27.296875 
z
" id="DejaVuSans-112"/>
      <path d="M 32.171875 -5.078125 
Q 28.375 -14.84375 24.75 -17.8125 
Q 21.140625 -20.796875 15.09375 -20.796875 
L 7.90625 -20.796875 
L 7.90625 -13.28125 
L 13.1875 -13.28125 
Q 16.890625 -13.28125 18.9375 -11.515625 
Q 21 -9.765625 23.484375 -3.21875 
L 25.09375 0.875 
L 2.984375 54.6875 
L 12.5 54.6875 
L 29.59375 11.921875 
L 46.6875 54.6875 
L 56.203125 54.6875 
z
" id="DejaVuSans-121"/>
      <path id="DejaVuSans-32"/>
      <path d="M 9.421875 75.984375 
L 18.40625 75.984375 
L 18.40625 0 
L 9.421875 0 
z
" id="DejaVuSans-108"/>
     </defs>
     <g transform="translate(1.15 205.310031)rotate(-90)scale(0.1 -0.1)">
      <use xlink:href="#DejaVuSans-69"/>
      <use x="63.183594" xlink:href="#DejaVuSans-110"/>
      <use x="126.5625" xlink:href="#DejaVuSans-116"/>
      <use x="165.771484" xlink:href="#DejaVuSans-114"/>
      <use x="206.853516" xlink:href="#DejaVuSans-111"/>
      <use x="268.035156" xlink:href="#DejaVuSans-112"/>
      <use x="331.511719" xlink:href="#DejaVuSans-121"/>
      <use x="390.691406" xlink:href="#DejaVuSans-32"/>
      <use x="422.478516" xlink:href="#DejaVuSans-108"/>
      <use x="450.261719" xlink:href="#DejaVuSans-111"/>
      <use x="511.443359" xlink:href="#DejaVuSans-115"/>
      <use x="563.542969" xlink:href="#DejaVuSans-115"/>
     </g>
    </g>
   </g>
   <g id="line2d_29">
    <path clip-path="url(#p25df005a35)" d="M 57.6 295.437299 
L 58.269164 275.799482 
L 58.578035 213.712461 
L 59.419559 216.802714 
L 59.523158 185.534013 
L 59.678069 266.758065 
L 60.246393 290.824232 
L 61.031164 290.365401 
L 61.187432 285.435377 
L 62.225845 291.180771 
L 62.642135 294.963643 
L 62.853866 295.488 
L 63.897882 294.647279 
L 64.575838 294.523047 
L 65.15071 293.158117 
L 65.412269 293.359884 
L 65.567754 292.550444 
L 66.034558 293.254776 
L 66.608117 295.159628 
L 66.974347 294.946298 
L 67.026079 295.108779 
L 67.651531 295.369549 
L 68.381326 294.048056 
L 68.955709 293.945172 
L 69.528086 293.454171 
L 70.623018 294.569152 
L 70.885091 294.616295 
L 71.45604 293.020394 
L 71.560595 293.697744 
L 72.55098 286.911048 
L 72.811852 288.751413 
L 73.125204 288.996765 
L 73.386484 287.802618 
L 73.48972 287.946865 
L 73.907811 285.066978 
L 74.535822 285.939424 
L 75.004822 286.063953 
L 75.419709 286.754794 
L 76.256125 280.511135 
L 76.464666 281.779406 
L 76.984329 282.769561 
L 79.33142 292.007259 
L 80.220211 291.927353 
L 80.376442 291.648793 
L 80.531613 292.007111 
L 81.471491 291.270313 
L 81.523264 291.070177 
L 83.033827 288.539861 
L 84.128812 291.832325 
L 84.285337 290.738544 
L 84.701409 291.169355 
L 85.014025 289.612295 
L 85.118981 290.505792 
L 85.275315 290.507571 
L 85.587918 291.348144 
L 85.848044 292.891269 
L 86.367723 292.494406 
L 86.679662 291.224208 
L 87.202913 292.083163 
L 87.620079 290.169119 
L 87.880837 289.921246 
L 87.932888 289.524383 
L 88.244338 290.618907 
L 88.712616 291.283507 
L 89.649834 290.921186 
L 89.754264 290.450347 
L 90.382777 286.861088 
L 90.748828 287.035726 
L 90.801391 286.812463 
L 90.904675 286.980132 
L 91.061542 287.783049 
L 91.16498 286.664658 
L 91.78959 287.144392 
L 91.944572 286.988138 
L 92.152376 286.097161 
L 92.464722 286.835589 
L 92.935754 288.72369 
L 93.196001 288.894176 
L 94.549056 287.989857 
L 94.757767 288.599457 
L 94.96675 287.512791 
L 95.018998 287.84991 
L 95.382968 289.112103 
L 95.851054 285.505054 
L 96.060666 286.82032 
L 96.268282 283.245737 
L 96.529122 285.370888 
L 96.738687 285.945354 
L 97.413993 288.548608 
L 97.621073 290.075425 
L 97.673933 289.76766 
L 97.98642 289.178815 
L 98.247656 290.074536 
L 98.611366 287.87274 
L 98.715194 288.485157 
L 98.924732 288.938206 
L 99.133404 288.405251 
L 99.443619 285.6705 
L 99.49569 285.960475 
L 100.695128 285.784503 
L 100.904391 286.301448 
L 102.619178 289.420609 
L 102.983363 290.381708 
L 103.295737 291.98606 
L 103.711264 291.95552 
L 104.232111 291.503064 
L 104.596114 290.822304 
L 105.116618 291.142522 
L 105.843649 292.477802 
L 105.895549 292.308946 
L 106.416783 291.486164 
L 106.573109 292.457047 
L 107.041959 291.745896 
L 107.250422 291.723807 
L 107.458329 291.363265 
L 107.925517 290.809407 
L 107.977459 290.967737 
L 108.291214 291.021996 
L 108.342532 291.200191 
L 108.601384 291.56859 
L 109.223328 289.521567 
L 109.535611 290.199213 
L 109.691172 291.194113 
L 110.158787 290.700444 
L 110.314024 291.877097 
L 110.729536 291.981316 
L 111.354333 292.587803 
L 111.719268 291.613954 
L 112.39604 292.469945 
L 112.709548 292.519312 
L 112.866619 292.145131 
L 112.970613 292.704327 
L 113.17808 292.78705 
L 113.385781 291.775842 
L 113.489994 291.989469 
L 113.751093 291.300259 
L 113.803953 291.73374 
L 114.270326 290.693921 
L 114.583327 289.568117 
L 114.79263 290.383339 
L 114.84447 290.229456 
L 115.366062 287.91173 
L 115.625683 287.861473 
L 116.355009 288.216975 
L 117.552974 288.414887 
L 117.813537 286.939957 
L 117.865408 287.642213 
L 118.802944 284.558631 
L 119.428731 287.924924 
L 119.480283 285.81104 
L 119.794135 284.1591 
L 120.159167 284.886262 
L 121.511973 285.896135 
L 121.616101 284.577014 
L 122.13847 282.674089 
L 122.712151 282.28701 
L 122.867571 283.033593 
L 123.024306 281.108727 
L 124.37748 286.404185 
L 124.741544 286.759389 
L 125.054751 287.351348 
L 125.575038 287.840274 
L 125.8873 287.268032 
L 126.46021 280.418479 
L 126.616843 283.094079 
L 126.929342 280.04667 
L 126.981854 281.665995 
L 127.920506 278.636228 
L 129.481381 275.814455 
L 129.637503 273.185553 
L 129.68922 274.031166 
L 129.793155 276.665405 
L 129.845321 272.397758 
L 130.988368 266.561932 
L 131.611707 266.940412 
L 131.922124 256.679795 
L 132.130355 252.02166 
L 132.338284 257.727768 
L 133.636038 261.338078 
L 133.689212 259.882865 
L 134.259262 264.14221 
L 134.675096 260.626186 
L 134.883548 253.046061 
L 134.987073 260.458665 
L 135.507176 259.028654 
L 135.870598 260.378758 
L 136.647838 259.934604 
L 136.699632 267.915298 
L 136.856399 257.670247 
L 138.103354 260.615216 
L 138.155911 251.677574 
L 138.988501 247.881211 
L 139.040151 251.109631 
L 139.508055 233.012864 
L 139.818601 235.563934 
L 140.493863 246.558236 
L 140.856658 242.168876 
L 140.90887 250.29011 
L 141.168745 240.546735 
L 141.583519 231.671357 
L 142.051083 232.415568 
L 142.310013 230.678533 
L 142.568382 231.231502 
L 142.723506 235.828855 
L 142.984024 235.754879 
L 143.139652 238.140948 
L 143.347158 215.896171 
L 143.762926 243.300165 
L 144.176734 208.048901 
L 144.539499 202.762783 
L 144.903208 221.576335 
L 145.369695 225.459275 
L 145.57655 222.444185 
L 145.628044 229.435316 
L 145.679467 223.392386 
L 145.783377 226.360037 
L 145.939559 238.225154 
L 146.300818 236.712716 
L 147.288547 180.394513 
L 147.600358 219.412195 
L 147.756497 194.824043 
L 148.016693 212.201506 
L 148.172644 194.24943 
L 148.224458 212.21559 
L 148.27612 211.460706 
L 149.259484 205.831539 
L 149.727349 216.829547 
L 150.038424 202.840465 
L 150.403421 210.885796 
L 150.455378 206.693756 
L 150.922183 183.464308 
L 151.285023 199.915066 
L 151.905579 170.663887 
L 152.372477 231.328902 
L 152.579683 201.453298 
L 153.098485 205.01528 
L 153.306984 199.934486 
L 153.567405 231.211637 
L 153.775471 218.154894 
L 154.448988 224.736413 
L 154.603367 215.474847 
L 154.914264 218.931571 
L 155.017553 197.661235 
L 156.782738 220.257956 
L 157.094202 201.459377 
L 157.974602 199.333336 
L 158.078266 228.87108 
L 158.181917 216.136334 
L 158.752224 193.433318 
L 158.907296 183.942114 
L 159.685195 205.947173 
L 159.788374 192.479039 
L 160.411352 227.416608 
L 160.462949 225.897648 
L 160.514863 217.127083 
L 161.448508 214.375135 
L 161.654731 202.92052 
L 162.069347 212.407721 
L 162.276507 212.868479 
L 162.950804 190.859714 
L 163.105684 199.967398 
L 163.260852 170.531204 
L 164.506657 192.780726 
L 165.128206 192.366963 
L 165.179685 201.513932 
L 165.334457 179.68188 
L 165.385874 215.492933 
L 165.488891 192.061125 
L 165.59237 219.017407 
L 165.799583 209.755989 
L 166.007245 209.026159 
L 166.266899 200.700341 
L 166.370726 209.564748 
L 167.149679 201.67671 
L 167.356457 197.436637 
L 168.70493 162.049428 
L 168.860223 223.189433 
L 168.911714 199.119264 
L 169.22185 185.129145 
L 169.483362 213.392243 
L 169.949979 194.338527 
L 170.159003 178.144092 
L 170.366387 184.925154 
L 170.57406 185.250709 
L 171.09296 190.260936 
L 171.19651 174.161232 
L 171.300597 181.337822 
L 171.353006 178.869623 
L 171.559536 189.249432 
L 171.71569 165.522164 
L 172.129916 158.670535 
L 172.337622 180.945407 
L 173.061631 196.1528 
L 173.374069 195.602203 
L 173.633194 158.727166 
L 173.788177 209.290042 
L 173.94457 166.07365 
L 174.152993 203.650498 
L 174.204332 192.73803 
L 174.567675 194.977185 
L 174.722848 222.303645 
L 174.981541 180.712508 
L 175.967461 188.322134 
L 176.485502 154.518078 
L 176.796996 156.966263 
L 177.316379 205.882685 
L 177.367999 172.266312 
L 177.990422 146.706536 
L 178.769894 143.570771 
L 179.288977 193.662808 
L 179.755865 186.781085 
L 180.638274 127.211186 
L 181.729791 192.691776 
L 182.250668 200.383978 
L 182.459082 195.605613 
L 182.980892 208.923867 
L 183.395769 181.06623 
L 183.447954 199.116892 
L 184.017684 194.22319 
L 184.433222 195.290138 
L 184.745259 170.30038 
L 184.79773 212.760554 
L 185.005259 177.584452 
L 185.266143 214.033272 
L 186.567874 205.437345 
L 186.620295 182.267789 
L 187.14068 215.317851 
L 187.245187 199.078199 
L 187.453471 202.0162 
L 187.505312 186.01864 
L 188.233398 174.175908 
L 188.548202 214.887187 
L 189.016294 164.122692 
L 189.120291 199.460386 
L 189.798021 162.385806 
L 190.00611 181.345087 
L 190.109675 155.337154 
L 190.266242 213.728176 
L 190.786104 165.351381 
L 191.306069 173.201912 
L 191.409796 156.944026 
L 192.034468 197.179573 
L 192.086685 176.921185 
L 192.138581 181.741208 
L 192.555843 176.189724 
L 192.867905 178.720929 
L 193.753493 161.173424 
L 194.065353 129.196834 
L 194.117744 133.52897 
L 194.535088 173.365579 
L 194.847633 98.224855 
L 195.418451 154.105056 
L 196.613675 101.765265 
L 196.716806 116.213326 
L 196.977092 119.186314 
L 197.236271 130.070615 
L 199.053378 179.178278 
L 199.676228 187.237395 
L 199.832436 168.549855 
L 200.143454 201.908127 
L 200.558131 167.107391 
L 200.61022 195.142927 
L 200.713743 172.138669 
L 201.184756 194.970069 
L 202.380231 187.375415 
L 202.43324 199.766372 
L 202.485373 174.118239 
L 202.849265 171.7974 
L 203.421392 207.833198 
L 203.525107 204.862879 
L 204.147213 174.057309 
L 204.355278 214.806984 
L 204.511637 123.585161 
L 206.012339 144.229293 
L 206.637035 179.443199 
L 206.688619 168.134313 
L 207.104834 165.212768 
L 207.156358 169.177393 
L 207.466714 155.553153 
L 207.622076 160.163552 
L 207.934058 160.861064 
L 208.141509 117.495978 
L 209.021206 130.746186 
L 209.124361 173.273813 
L 209.228626 124.127605 
L 209.79778 130.190993 
L 210.728172 126.107768 
L 211.607252 153.006678 
L 211.969442 152.767997 
L 212.176859 103.414759 
L 213.007255 169.967265 
L 213.213875 176.037917 
L 213.473073 172.005097 
L 213.681285 137.246168 
L 213.784697 137.794096 
L 213.888269 162.766954 
L 214.095761 144.876994 
L 214.147313 125.463477 
L 214.718222 127.121051 
L 214.872778 160.940822 
L 215.288041 123.048796 
L 215.444099 140.045555 
L 215.495517 137.994084 
L 215.909528 142.146245 
L 216.68701 135.678878 
L 216.893797 114.242503 
L 216.996738 137.471062 
L 217.775013 93.392601 
L 218.448143 138.365152 
L 219.63876 114.943276 
L 220.415984 96.120459 
L 220.467621 106.51828 
L 220.828982 82.48925 
L 221.088342 97.391472 
L 221.3489 71.14345 
L 221.659988 103.320176 
L 222.488477 92.542615 
L 223.060023 125.365929 
L 223.421642 131.540504 
L 223.473595 120.61336 
L 223.835408 133.154048 
L 223.9906 126.819957 
L 225.231733 150.897538 
L 225.387678 104.968039 
L 225.75022 114.106114 
L 226.059863 137.711966 
L 226.111401 122.961774 
L 227.149353 145.6427 
L 227.408681 125.011318 
L 227.875797 119.784647 
L 227.979334 145.33879 
L 228.082819 120.027924 
L 228.44599 90.885857 
L 229.117687 108.964168 
L 229.53055 126.295007 
L 229.945954 128.234846 
L 230.256583 122.533334 
L 230.308652 128.806198 
L 230.568114 102.775583 
L 230.827496 106.348535 
L 231.189074 134.871365 
L 231.811622 125.672064 
L 232.691271 131.490693 
L 232.794763 134.137681 
L 232.899846 62.33219 
L 233.054925 125.393207 
L 233.315049 121.5921 
L 234.196203 118.80902 
L 234.454064 143.734586 
L 235.59398 117.591302 
L 235.750009 82.857279 
L 236.009031 158.728352 
L 236.371107 116.335632 
L 236.681895 136.594465 
L 236.992614 137.717155 
L 237.044111 100.466752 
L 237.354782 100.461711 
L 237.718431 87.772181 
L 238.028912 148.434972 
L 238.184141 135.177648 
L 239.063347 110.984062 
L 239.167159 146.368824 
L 239.684463 96.05686 
L 239.84025 131.775331 
L 239.943508 120.834992 
L 240.202098 116.530876 
L 241.02873 84.638714 
L 241.132082 110.955968 
L 241.441813 134.576646 
L 241.648192 106.371513 
L 241.751817 141.545688 
L 242.480571 141.594759 
L 243.101872 115.179734 
L 243.36057 132.511684 
L 243.980801 102.719174 
L 244.342575 59.809732 
L 244.394241 82.49392 
L 245.325981 89.614028 
L 245.430539 124.010488 
L 245.53374 118.62697 
L 245.689201 139.10788 
L 245.844198 113.602067 
L 246.725566 107.070656 
L 247.295083 109.550196 
L 247.346673 71.759573 
L 247.657493 108.555667 
L 248.019991 99.946175 
L 249.262599 86.49583 
L 249.572284 115.444803 
L 249.675437 86.014836 
L 250.76141 98.518536 
L 250.91716 109.481335 
L 251.124306 103.379105 
L 251.176771 150.70007 
L 251.228708 63.34362 
L 251.539542 109.239911 
L 251.693858 113.32069 
L 251.798109 124.368213 
L 252.265737 141.601875 
L 252.627287 143.927903 
L 252.886434 120.664209 
L 253.300497 115.40611 
L 253.509161 139.021451 
L 253.715655 102.050793 
L 254.389038 87.669741 
L 254.492322 147.717891 
L 254.647425 99.817865 
L 255.270011 115.552728 
L 255.478889 79.823509 
L 255.739171 115.234882 
L 255.843222 101.751849 
L 256.362678 117.507245 
L 256.466663 107.942657 
L 256.570669 113.145756 
L 257.247383 123.363974 
L 258.07849 107.682851 
L 258.337154 108.085495 
L 258.700909 106.334377 
L 259.999713 145.2786 
L 260.051895 120.427159 
L 260.103924 122.386715 
L 260.467059 118.857497 
L 260.985346 105.073518 
L 261.402928 129.913915 
L 261.766687 137.082056 
L 261.974504 117.675359 
L 262.545948 139.215805 
L 262.85823 112.97816 
L 263.169707 117.495385 
L 264.105543 111.421471 
L 264.313235 57.15044 
L 264.884544 140.774496 
L 265.144838 118.538021 
L 265.406207 83.182908 
L 265.667771 129.219072 
L 266.239915 98.30187 
L 266.291487 124.383483 
L 266.862028 122.636812 
L 266.96541 69.527016 
L 267.017014 102.670919 
L 267.381771 90.31873 
L 267.537658 121.295157 
L 267.589433 110.178847 
L 267.641112 103.2843 
L 269.09587 161.170904 
L 269.978416 146.905783 
L 270.24005 120.197966 
L 270.291905 144.140047 
L 270.396471 136.460151 
L 270.812314 136.356377 
L 273.825927 144.929029 
L 274.553734 88.826899 
L 274.605168 131.538577 
L 275.174489 104.468884 
L 275.329772 85.617677 
L 275.432769 118.642091 
L 275.588284 85.619901 
L 275.640492 108.33107 
L 275.743492 96.375966 
L 276.935952 105.57549 
L 277.194333 134.262803 
L 277.34994 91.378489 
L 277.764246 78.014722 
L 278.332575 155.275927 
L 278.953121 97.096086 
L 279.005027 75.815669 
L 279.471636 72.443446 
L 279.782258 142.301462 
L 280.920971 87.953045 
L 281.127666 118.877214 
L 281.695928 74.219989 
L 282.368668 113.782041 
L 282.679857 130.263042 
L 282.938422 125.783547 
L 283.249382 116.351346 
L 283.71645 121.142609 
L 284.078529 119.839796 
L 284.284676 147.882151 
L 284.751272 86.489085 
L 285.528161 90.236081 
L 285.890897 95.149205 
L 286.202504 62.602597 
L 286.410432 115.95137 
L 286.462141 88.464504 
L 287.445199 108.987739 
L 287.496874 129.800505 
L 287.600377 110.417231 
L 287.90967 107.336022 
L 288.065904 150.268221 
L 289.461116 75.720048 
L 289.771499 103.917324 
L 289.977722 140.176459 
L 290.133073 138.609022 
L 290.546546 130.7238 
L 290.651577 94.438943 
L 291.53234 84.288698 
L 291.58396 53.568 
L 292.565938 107.512364 
L 292.61792 144.937331 
L 292.773544 136.350743 
L 293.240875 66.797676 
L 293.758174 137.066638 
L 293.809723 117.369818 
L 294.483376 148.690405 
L 294.586385 57.785316 
L 295.102889 118.015591 
L 295.258122 97.172434 
L 295.826399 88.321073 
L 295.981528 98.104254 
L 296.085361 142.943381 
L 296.188665 81.846146 
L 296.808606 135.310627 
L 297.686641 116.735608 
L 298.462239 144.0763 
L 298.773978 134.877888 
L 299.137792 95.121334 
L 299.55167 145.433817 
L 299.759721 113.217805 
L 300.226772 158.625022 
L 300.745239 149.302081 
L 302.090968 123.768694 
L 302.349388 145.220783 
L 302.660037 142.794687 
L 303.178111 130.405213 
L 303.438894 160.152285 
L 303.749491 110.617071 
L 303.958912 176.522395 
L 304.01084 156.69304 
L 304.425455 145.460502 
L 304.580519 131.570006 
L 304.736052 168.183235 
L 304.891566 155.904058 
L 304.943064 168.991934 
L 305.358483 146.923869 
L 305.513883 151.247554 
L 305.565405 149.463228 
L 305.669386 167.217985 
L 305.928682 152.939521 
L 305.980701 194.222597 
L 306.290612 133.612286 
L 306.601021 141.652724 
L 306.704826 139.943412 
L 306.86074 121.397894 
L 307.900002 169.458029 
L 308.003845 164.207046 
L 308.315669 103.675084 
L 308.679209 152.160917 
L 309.305038 131.324061 
L 310.294087 120.453547 
L 310.397311 144.854163 
L 311.227591 139.709326 
L 311.383211 161.737809 
L 311.486957 148.025805 
L 311.538704 178.441628 
L 312.524575 127.05671 
L 313.768945 120.399733 
L 313.923942 138.822204 
L 314.599557 201.38036 
L 315.012783 131.584683 
L 315.427981 147.243494 
L 315.479712 154.588644 
L 315.635567 160.857209 
L 315.790521 184.590408 
L 318.071541 144.275992 
L 318.382036 182.334501 
L 318.538494 137.730201 
L 318.900939 163.593888 
L 319.577452 134.771149 
L 319.681189 149.156352 
L 319.733425 180.784705 
L 320.096508 169.280723 
L 321.028758 131.962866 
L 321.856829 144.465751 
L 322.221175 141.367196 
L 322.533117 162.871173 
L 322.844506 154.28251 
L 323.521579 200.994171 
L 323.625937 132.477884 
L 324.092001 172.889996 
L 325.284262 140.400167 
L 325.544419 148.096371 
L 326.427119 168.471579 
L 327.359715 129.528023 
L 327.77654 148.077544 
L 328.971247 171.52729 
L 329.126292 169.985796 
L 329.17813 153.972817 
L 329.281546 173.759328 
L 329.38533 137.713894 
L 329.437287 187.548274 
L 329.645265 149.606881 
L 330.579119 144.169845 
L 330.786443 126.042242 
L 331.980942 157.469124 
L 332.657502 168.532065 
L 333.491266 164.346103 
L 334.113381 137.900539 
L 334.892312 148.583518 
L 335.04824 174.383012 
L 335.619249 187.786658 
L 335.671157 143.717834 
L 335.827052 175.817026 
L 336.710151 192.214563 
L 336.917157 165.904498 
L 337.594018 169.613691 
L 337.958636 93.650035 
L 338.062153 181.464575 
L 338.787882 148.111641 
L 339.048264 180.992699 
L 339.774941 89.336209 
L 339.826822 208.344806 
L 339.931495 87.804573 
L 340.191992 137.86407 
L 341.646359 106.744805 
L 342.112811 155.830082 
L 342.476354 161.500462 
L 342.68269 136.316053 
L 342.995144 113.665073 
L 343.307596 165.574496 
L 343.565892 159.14597 
L 343.722703 178.685943 
L 343.826857 168.346754 
L 344.604764 148.160267 
L 345.073154 180.810797 
L 345.487912 199.497448 
L 346.007986 144.865134 
L 346.373346 156.809712 
L 346.633118 141.045051 
L 346.737098 211.513482 
L 346.89274 176.487557 
L 347.360324 156.131769 
L 347.46437 178.613893 
L 347.775483 145.686434 
L 348.40015 184.752889 
L 348.659568 216.073773 
L 349.074407 193.153721 
L 349.178537 143.500353 
L 349.697301 150.057855 
L 349.80105 179.102226 
L 350.578812 186.203654 
L 351.251953 156.040003 
L 351.460218 126.936184 
L 352.239345 192.971374 
L 354.001296 168.575947 
L 354.364822 126.538432 
L 354.520042 130.710161 
L 354.728294 93.188165 
L 356.021362 114.439822 
L 356.385095 206.742233 
L 356.748346 143.111199 
L 357.266186 151.804526 
L 357.420623 179.776166 
L 357.679012 148.792104 
L 357.937692 175.591687 
L 358.247834 141.303597 
L 358.350928 201.23389 
L 358.86912 155.868034 
L 358.920547 183.056623 
L 359.801579 172.440653 
L 359.957029 158.551639 
L 360.320296 171.952024 
L 360.941658 172.07848 
L 361.720961 97.850526 
L 361.824445 179.813229 
L 362.186963 123.789004 
L 362.704492 171.932158 
L 363.117936 140.786801 
L 363.32647 152.135418 
L 363.481516 103.017748 
L 363.584723 198.598465 
L 364.050315 161.220123 
L 364.567225 151.65346 
L 364.61892 160.036947 
L 365.135439 136.266538 
L 365.342128 168.445636 
L 365.394324 160.87826 
L 366.381474 157.803278 
L 366.640461 177.439761 
L 366.795987 197.790063 
L 366.952298 156.703418 
L 367.418025 85.766593 
L 368.352469 173.54244 
L 369.387517 188.687568 
L 369.645135 154.080891 
L 369.852729 160.583097 
L 370.113 175.222102 
L 370.425897 159.551283 
L 370.47797 187.085885 
L 370.529462 156.5737 
L 370.684557 138.243439 
L 370.83909 93.002854 
L 371.564611 160.03502 
L 371.97952 180.13404 
L 372.859453 144.253903 
L 372.911906 161.82913 
L 373.119279 182.556134 
L 373.377836 191.64751 
L 373.740951 157.388477 
L 374.208228 167.188632 
L 374.311766 164.3295 
L 374.830569 166.597118 
L 375.142061 149.741343 
L 375.245995 178.125709 
L 375.558635 133.763352 
L 375.765583 221.071991 
L 376.128666 201.440549 
L 376.491327 166.72224 
L 376.595057 191.009001 
L 377.008819 171.259997 
L 377.786695 180.633936 
L 377.99376 165.256501 
L 378.252422 162.441695 
L 378.40862 157.455337 
L 379.237225 202.243466 
L 379.75652 165.16177 
L 379.80835 168.173895 
L 379.912191 171.938236 
L 380.223843 190.907747 
L 380.275638 189.19799 
L 380.902208 160.100249 
L 381.163271 162.090197 
L 381.319047 119.554713 
L 381.525409 171.936161 
L 381.834949 204.698026 
L 382.506677 127.818118 
L 382.867695 160.561897 
L 383.853212 174.454024 
L 384.88884 165.140274 
L 385.043897 181.73172 
L 385.250177 157.837671 
L 385.301828 218.072171 
L 385.663302 206.597246 
L 386.543509 183.187082 
L 387.11303 161.895842 
L 387.682996 192.675617 
L 388.046513 183.00518 
L 388.357572 177.98087 
L 389.600927 164.290065 
L 390.791576 139.789529 
L 391.258161 110.040456 
L 392.036464 141.424717 
L 392.088735 193.830626 
L 392.45259 163.221189 
L 392.65913 193.389881 
L 393.180063 125.482898 
L 393.336113 180.739637 
L 393.38846 157.681862 
L 393.910006 163.6225 
L 394.116417 161.5184 
L 394.530899 114.086693 
L 394.582743 191.957202 
L 394.790467 174.870011 
L 395.256625 179.515693 
L 395.308824 163.624723 
L 395.827264 211.216984 
L 395.87904 147.875628 
L 395.931417 172.921424 
L 396.346537 167.592759 
L 396.554229 220.794766 
L 397.384473 193.363493 
L 397.800772 153.849178 
L 398.476067 162.260535 
L 398.633458 184.035363 
L 398.841033 175.709545 
L 398.944535 185.287327 
L 398.996655 175.883145 
L 399.152085 192.280385 
L 399.620822 180.069107 
L 399.673158 193.996665 
L 400.298144 161.856408 
L 400.816664 191.144797 
L 401.076131 173.539178 
L 402.527682 189.762967 
L 402.943831 178.087461 
L 403.411334 179.997799 
L 403.515375 156.289506 
L 403.723299 162.057434 
L 404.034895 196.857131 
L 404.138428 138.009354 
L 404.19036 188.473348 
L 404.555062 191.54077 
L 404.711474 169.75853 
L 404.971727 181.768634 
L 405.127894 183.404711 
L 405.179934 176.466061 
L 405.543668 193.634196 
L 405.751655 197.183131 
L 405.960307 188.509669 
L 406.478121 178.486548 
L 406.529744 130.446574 
L 407.153286 167.290479 
L 407.361434 208.94566 
L 407.72578 152.211025 
L 407.933371 184.575286 
L 408.505612 185.414376 
L 409.129741 202.772567 
L 409.957632 167.335991 
L 411.044125 190.619699 
L 411.250739 179.2822 
L 412.026209 177.40003 
L 412.285253 171.16319 
L 412.75245 188.126445 
L 412.95968 186.289046 
L 413.168859 175.594059 
L 413.582952 168.594774 
L 413.944603 165.648175 
L 413.996512 128.725551 
L 414.72 137.99957 
L 414.72 137.99957 
" style="fill:none;stroke:#000000;stroke-linecap:square;stroke-width:0.8;"/>
   </g>
   <g id="patch_3">
    <path d="M 57.6 307.584 
L 57.6 41.472 
" style="fill:none;stroke:#000000;stroke-linecap:square;stroke-linejoin:miter;stroke-width:0.8;"/>
   </g>
   <g id="patch_4">
    <path d="M 414.72 307.584 
L 414.72 41.472 
" style="fill:none;stroke:#000000;stroke-linecap:square;stroke-linejoin:miter;stroke-width:0.8;"/>
   </g>
   <g id="patch_5">
    <path d="M 57.6 307.584 
L 414.72 307.584 
" style="fill:none;stroke:#000000;stroke-linecap:square;stroke-linejoin:miter;stroke-width:0.8;"/>
   </g>
   <g id="patch_6">
    <path d="M 57.6 41.472 
L 414.72 41.472 
" style="fill:none;stroke:#000000;stroke-linecap:square;stroke-linejoin:miter;stroke-width:0.8;"/>
   </g>
  </g>
  <g id="axes_2">
   <g id="matplotlib.axis_3">
    <g id="xtick_8">
     <g id="line2d_30">
      <defs>
       <path d="M 0 0 
L 0 -3.5 
" id="mf18b0d1398" style="stroke:#000000;stroke-width:0.8;"/>
      </defs>
      <g>
       <use style="stroke:#000000;stroke-width:0.8;" x="57.6" xlink:href="#mf18b0d1398" y="41.472"/>
      </g>
     </g>
    </g>
    <g id="xtick_9">
     <g id="line2d_31">
      <g>
       <use style="stroke:#000000;stroke-width:0.8;" x="98.12288" xlink:href="#mf18b0d1398" y="41.472"/>
      </g>
     </g>
     <g id="text_17">
      <!-- 1,000K -->
      <defs>
       <path d="M 11.71875 12.40625 
L 22.015625 12.40625 
L 22.015625 4 
L 14.015625 -11.625 
L 7.71875 -11.625 
L 11.71875 4 
z
" id="DejaVuSans-44"/>
       <path d="M 9.8125 72.90625 
L 19.671875 72.90625 
L 19.671875 42.09375 
L 52.390625 72.90625 
L 65.09375 72.90625 
L 28.90625 38.921875 
L 67.671875 0 
L 54.6875 0 
L 19.671875 35.109375 
L 19.671875 0 
L 9.8125 0 
z
" id="DejaVuSans-75"/>
      </defs>
      <g transform="translate(80.529912 32.392313)scale(0.1 -0.1)">
       <use xlink:href="#DejaVuSans-49"/>
       <use x="63.623047" xlink:href="#DejaVuSans-44"/>
       <use x="95.410156" xlink:href="#DejaVuSans-48"/>
       <use x="159.033203" xlink:href="#DejaVuSans-48"/>
       <use x="222.65625" xlink:href="#DejaVuSans-48"/>
       <use x="286.279297" xlink:href="#DejaVuSans-75"/>
      </g>
     </g>
    </g>
    <g id="xtick_10">
     <g id="line2d_32">
      <g>
       <use style="stroke:#000000;stroke-width:0.8;" x="138.645761" xlink:href="#mf18b0d1398" y="41.472"/>
      </g>
     </g>
     <g id="text_18">
      <!-- 2.00M -->
      <defs>
       <path d="M 9.8125 72.90625 
L 24.515625 72.90625 
L 43.109375 23.296875 
L 61.8125 72.90625 
L 76.515625 72.90625 
L 76.515625 0 
L 66.890625 0 
L 66.890625 64.015625 
L 48.09375 14.015625 
L 38.1875 14.015625 
L 19.390625 64.015625 
L 19.390625 0 
L 9.8125 0 
z
" id="DejaVuSans-77"/>
      </defs>
      <g transform="translate(123.198886 32.392313)scale(0.1 -0.1)">
       <use xlink:href="#DejaVuSans-50"/>
       <use x="63.623047" xlink:href="#DejaVuSans-46"/>
       <use x="95.410156" xlink:href="#DejaVuSans-48"/>
       <use x="159.033203" xlink:href="#DejaVuSans-48"/>
       <use x="222.65625" xlink:href="#DejaVuSans-77"/>
      </g>
     </g>
    </g>
    <g id="xtick_11">
     <g id="line2d_33">
      <g>
       <use style="stroke:#000000;stroke-width:0.8;" x="179.168641" xlink:href="#mf18b0d1398" y="41.472"/>
      </g>
     </g>
     <g id="text_19">
      <!-- 3.00M -->
      <g transform="translate(163.721766 32.392313)scale(0.1 -0.1)">
       <use xlink:href="#DejaVuSans-51"/>
       <use x="63.623047" xlink:href="#DejaVuSans-46"/>
       <use x="95.410156" xlink:href="#DejaVuSans-48"/>
       <use x="159.033203" xlink:href="#DejaVuSans-48"/>
       <use x="222.65625" xlink:href="#DejaVuSans-77"/>
      </g>
     </g>
    </g>
    <g id="xtick_12">
     <g id="line2d_34">
      <g>
       <use style="stroke:#000000;stroke-width:0.8;" x="219.691522" xlink:href="#mf18b0d1398" y="41.472"/>
      </g>
     </g>
     <g id="text_20">
      <!-- 4.00M -->
      <defs>
       <path d="M 37.796875 64.3125 
L 12.890625 25.390625 
L 37.796875 25.390625 
z
M 35.203125 72.90625 
L 47.609375 72.90625 
L 47.609375 25.390625 
L 58.015625 25.390625 
L 58.015625 17.1875 
L 47.609375 17.1875 
L 47.609375 0 
L 37.796875 0 
L 37.796875 17.1875 
L 4.890625 17.1875 
L 4.890625 26.703125 
z
" id="DejaVuSans-52"/>
      </defs>
      <g transform="translate(204.244647 32.392313)scale(0.1 -0.1)">
       <use xlink:href="#DejaVuSans-52"/>
       <use x="63.623047" xlink:href="#DejaVuSans-46"/>
       <use x="95.410156" xlink:href="#DejaVuSans-48"/>
       <use x="159.033203" xlink:href="#DejaVuSans-48"/>
       <use x="222.65625" xlink:href="#DejaVuSans-77"/>
      </g>
     </g>
    </g>
    <g id="xtick_13">
     <g id="line2d_35">
      <g>
       <use style="stroke:#000000;stroke-width:0.8;" x="260.214402" xlink:href="#mf18b0d1398" y="41.472"/>
      </g>
     </g>
     <g id="text_21">
      <!-- 5.00M -->
      <g transform="translate(244.767527 32.392313)scale(0.1 -0.1)">
       <use xlink:href="#DejaVuSans-53"/>
       <use x="63.623047" xlink:href="#DejaVuSans-46"/>
       <use x="95.410156" xlink:href="#DejaVuSans-48"/>
       <use x="159.033203" xlink:href="#DejaVuSans-48"/>
       <use x="222.65625" xlink:href="#DejaVuSans-77"/>
      </g>
     </g>
    </g>
    <g id="xtick_14">
     <g id="line2d_36">
      <g>
       <use style="stroke:#000000;stroke-width:0.8;" x="300.737282" xlink:href="#mf18b0d1398" y="41.472"/>
      </g>
     </g>
     <g id="text_22">
      <!-- 6.00M -->
      <g transform="translate(285.290407 32.392313)scale(0.1 -0.1)">
       <use xlink:href="#DejaVuSans-54"/>
       <use x="63.623047" xlink:href="#DejaVuSans-46"/>
       <use x="95.410156" xlink:href="#DejaVuSans-48"/>
       <use x="159.033203" xlink:href="#DejaVuSans-48"/>
       <use x="222.65625" xlink:href="#DejaVuSans-77"/>
      </g>
     </g>
    </g>
    <g id="xtick_15">
     <g id="line2d_37">
      <g>
       <use style="stroke:#000000;stroke-width:0.8;" x="341.260163" xlink:href="#mf18b0d1398" y="41.472"/>
      </g>
     </g>
     <g id="text_23">
      <!-- 7.00M -->
      <g transform="translate(325.813288 32.392313)scale(0.1 -0.1)">
       <use xlink:href="#DejaVuSans-55"/>
       <use x="63.623047" xlink:href="#DejaVuSans-46"/>
       <use x="95.410156" xlink:href="#DejaVuSans-48"/>
       <use x="159.033203" xlink:href="#DejaVuSans-48"/>
       <use x="222.65625" xlink:href="#DejaVuSans-77"/>
      </g>
     </g>
    </g>
    <g id="xtick_16">
     <g id="line2d_38">
      <g>
       <use style="stroke:#000000;stroke-width:0.8;" x="381.783043" xlink:href="#mf18b0d1398" y="41.472"/>
      </g>
     </g>
     <g id="text_24">
      <!-- 8.00M -->
      <g transform="translate(366.336168 32.392313)scale(0.1 -0.1)">
       <use xlink:href="#DejaVuSans-56"/>
       <use x="63.623047" xlink:href="#DejaVuSans-46"/>
       <use x="95.410156" xlink:href="#DejaVuSans-48"/>
       <use x="159.033203" xlink:href="#DejaVuSans-48"/>
       <use x="222.65625" xlink:href="#DejaVuSans-77"/>
      </g>
     </g>
    </g>
    <g id="text_25">
     <!-- Steps -->
     <defs>
      <path d="M 53.515625 70.515625 
L 53.515625 60.890625 
Q 47.90625 63.578125 42.921875 64.890625 
Q 37.9375 66.21875 33.296875 66.21875 
Q 25.25 66.21875 20.875 63.09375 
Q 16.5 59.96875 16.5 54.203125 
Q 16.5 49.359375 19.40625 46.890625 
Q 22.3125 44.4375 30.421875 42.921875 
L 36.375 41.703125 
Q 47.40625 39.59375 52.65625 34.296875 
Q 57.90625 29 57.90625 20.125 
Q 57.90625 9.515625 50.796875 4.046875 
Q 43.703125 -1.421875 29.984375 -1.421875 
Q 24.8125 -1.421875 18.96875 -0.25 
Q 13.140625 0.921875 6.890625 3.21875 
L 6.890625 13.375 
Q 12.890625 10.015625 18.65625 8.296875 
Q 24.421875 6.59375 29.984375 6.59375 
Q 38.421875 6.59375 43.015625 9.90625 
Q 47.609375 13.234375 47.609375 19.390625 
Q 47.609375 24.75 44.3125 27.78125 
Q 41.015625 30.8125 33.5 32.328125 
L 27.484375 33.5 
Q 16.453125 35.6875 11.515625 40.375 
Q 6.59375 45.0625 6.59375 53.421875 
Q 6.59375 63.09375 13.40625 68.65625 
Q 20.21875 74.21875 32.171875 74.21875 
Q 37.3125 74.21875 42.625 73.28125 
Q 47.953125 72.359375 53.515625 70.515625 
z
" id="DejaVuSans-83"/>
      <path d="M 56.203125 29.59375 
L 56.203125 25.203125 
L 14.890625 25.203125 
Q 15.484375 15.921875 20.484375 11.0625 
Q 25.484375 6.203125 34.421875 6.203125 
Q 39.59375 6.203125 44.453125 7.46875 
Q 49.3125 8.734375 54.109375 11.28125 
L 54.109375 2.78125 
Q 49.265625 0.734375 44.1875 -0.34375 
Q 39.109375 -1.421875 33.890625 -1.421875 
Q 20.796875 -1.421875 13.15625 6.1875 
Q 5.515625 13.8125 5.515625 26.8125 
Q 5.515625 40.234375 12.765625 48.109375 
Q 20.015625 56 32.328125 56 
Q 43.359375 56 49.78125 48.890625 
Q 56.203125 41.796875 56.203125 29.59375 
z
M 47.21875 32.234375 
Q 47.125 39.59375 43.09375 43.984375 
Q 39.0625 48.390625 32.421875 48.390625 
Q 24.90625 48.390625 20.390625 44.140625 
Q 15.875 39.890625 15.1875 32.171875 
z
" id="DejaVuSans-101"/>
     </defs>
     <g transform="translate(222.170156 20.793875)scale(0.1 -0.1)">
      <use xlink:href="#DejaVuSans-83"/>
      <use x="63.476562" xlink:href="#DejaVuSans-116"/>
      <use x="102.685547" xlink:href="#DejaVuSans-101"/>
      <use x="164.208984" xlink:href="#DejaVuSans-112"/>
      <use x="227.685547" xlink:href="#DejaVuSans-115"/>
     </g>
    </g>
   </g>
   <g id="patch_7">
    <path d="M 57.6 307.584 
L 57.6 41.472 
" style="fill:none;stroke:#000000;stroke-linecap:square;stroke-linejoin:miter;stroke-width:0.8;"/>
   </g>
   <g id="patch_8">
    <path d="M 414.72 307.584 
L 414.72 41.472 
" style="fill:none;stroke:#000000;stroke-linecap:square;stroke-linejoin:miter;stroke-width:0.8;"/>
   </g>
   <g id="patch_9">
    <path d="M 57.6 307.584 
L 414.72 307.584 
" style="fill:none;stroke:#000000;stroke-linecap:square;stroke-linejoin:miter;stroke-width:0.8;"/>
   </g>
   <g id="patch_10">
    <path d="M 57.6 41.472 
L 414.72 41.472 
" style="fill:none;stroke:#000000;stroke-linecap:square;stroke-linejoin:miter;stroke-width:0.8;"/>
   </g>
  </g>
 </g>
 <defs>
  <clipPath id="p25df005a35">
   <rect height="266.112" width="357.12" x="57.6" y="41.472"/>
  </clipPath>
 </defs>
</svg>
