<?xml version="1.0" encoding="utf-8" standalone="no"?>
<!DOCTYPE svg PUBLIC "-//W3C//DTD SVG 1.1//EN"
  "http://www.w3.org/Graphics/SVG/1.1/DTD/svg11.dtd">
<!-- Created with matplotlib (https://matplotlib.org/) -->
<svg height="345.6pt" version="1.1" viewBox="0 0 460.8 345.6" width="460.8pt" xmlns="http://www.w3.org/2000/svg" xmlns:xlink="http://www.w3.org/1999/xlink">
 <defs>
  <style type="text/css">
*{stroke-linecap:butt;stroke-linejoin:round;}
  </style>
 </defs>
 <g id="figure_1">
  <g id="patch_1">
   <path d="M 0 345.6 
L 460.8 345.6 
L 460.8 0 
L 0 0 
z
" style="fill:#ffffff;"/>
  </g>
  <g id="axes_1">
   <g id="patch_2">
    <path d="M 57.6 307.584 
L 414.72 307.584 
L 414.72 41.472 
L 57.6 41.472 
z
" style="fill:#ffffff;"/>
   </g>
   <g id="matplotlib.axis_1">
    <g id="xtick_1">
     <g id="line2d_1">
      <path clip-path="url(#pb91a002943)" d="M 57.6 307.584 
L 57.6 41.472 
" style="fill:none;stroke:#b0b0b0;stroke-linecap:square;stroke-width:0.8;"/>
     </g>
     <g id="line2d_2">
      <defs>
       <path d="M 0 0 
L 0 3.5 
" id="mb53b27e07f" style="stroke:#000000;stroke-width:0.8;"/>
      </defs>
      <g>
       <use style="stroke:#000000;stroke-width:0.8;" x="57.6" xlink:href="#mb53b27e07f" y="307.584"/>
      </g>
     </g>
     <g id="text_1">
      <!-- 0.0 -->
      <defs>
       <path d="M 31.78125 66.40625 
Q 24.171875 66.40625 20.328125 58.90625 
Q 16.5 51.421875 16.5 36.375 
Q 16.5 21.390625 20.328125 13.890625 
Q 24.171875 6.390625 31.78125 6.390625 
Q 39.453125 6.390625 43.28125 13.890625 
Q 47.125 21.390625 47.125 36.375 
Q 47.125 51.421875 43.28125 58.90625 
Q 39.453125 66.40625 31.78125 66.40625 
z
M 31.78125 74.21875 
Q 44.046875 74.21875 50.515625 64.515625 
Q 56.984375 54.828125 56.984375 36.375 
Q 56.984375 17.96875 50.515625 8.265625 
Q 44.046875 -1.421875 31.78125 -1.421875 
Q 19.53125 -1.421875 13.0625 8.265625 
Q 6.59375 17.96875 6.59375 36.375 
Q 6.59375 54.828125 13.0625 64.515625 
Q 19.53125 74.21875 31.78125 74.21875 
z
" id="DejaVuSans-48"/>
       <path d="M 10.6875 12.40625 
L 21 12.40625 
L 21 0 
L 10.6875 0 
z
" id="DejaVuSans-46"/>
      </defs>
      <g transform="translate(49.648438 322.182437)scale(0.1 -0.1)">
       <use xlink:href="#DejaVuSans-48"/>
       <use x="63.623047" xlink:href="#DejaVuSans-46"/>
       <use x="95.410156" xlink:href="#DejaVuSans-48"/>
      </g>
     </g>
    </g>
    <g id="xtick_2">
     <g id="line2d_3">
      <path clip-path="url(#pb91a002943)" d="M 115.28408 307.584 
L 115.28408 41.472 
" style="fill:none;stroke:#b0b0b0;stroke-linecap:square;stroke-width:0.8;"/>
     </g>
     <g id="line2d_4">
      <g>
       <use style="stroke:#000000;stroke-width:0.8;" x="115.28408" xlink:href="#mb53b27e07f" y="307.584"/>
      </g>
     </g>
     <g id="text_2">
      <!-- 0.5 -->
      <defs>
       <path d="M 10.796875 72.90625 
L 49.515625 72.90625 
L 49.515625 64.59375 
L 19.828125 64.59375 
L 19.828125 46.734375 
Q 21.96875 47.46875 24.109375 47.828125 
Q 26.265625 48.1875 28.421875 48.1875 
Q 40.625 48.1875 47.75 41.5 
Q 54.890625 34.8125 54.890625 23.390625 
Q 54.890625 11.625 47.5625 5.09375 
Q 40.234375 -1.421875 26.90625 -1.421875 
Q 22.3125 -1.421875 17.546875 -0.640625 
Q 12.796875 0.140625 7.71875 1.703125 
L 7.71875 11.625 
Q 12.109375 9.234375 16.796875 8.0625 
Q 21.484375 6.890625 26.703125 6.890625 
Q 35.15625 6.890625 40.078125 11.328125 
Q 45.015625 15.765625 45.015625 23.390625 
Q 45.015625 31 40.078125 35.4375 
Q 35.15625 39.890625 26.703125 39.890625 
Q 22.75 39.890625 18.8125 39.015625 
Q 14.890625 38.140625 10.796875 36.28125 
z
" id="DejaVuSans-53"/>
      </defs>
      <g transform="translate(107.332518 322.182437)scale(0.1 -0.1)">
       <use xlink:href="#DejaVuSans-48"/>
       <use x="63.623047" xlink:href="#DejaVuSans-46"/>
       <use x="95.410156" xlink:href="#DejaVuSans-53"/>
      </g>
     </g>
    </g>
    <g id="xtick_3">
     <g id="line2d_5">
      <path clip-path="url(#pb91a002943)" d="M 172.96816 307.584 
L 172.96816 41.472 
" style="fill:none;stroke:#b0b0b0;stroke-linecap:square;stroke-width:0.8;"/>
     </g>
     <g id="line2d_6">
      <g>
       <use style="stroke:#000000;stroke-width:0.8;" x="172.96816" xlink:href="#mb53b27e07f" y="307.584"/>
      </g>
     </g>
     <g id="text_3">
      <!-- 1.0 -->
      <defs>
       <path d="M 12.40625 8.296875 
L 28.515625 8.296875 
L 28.515625 63.921875 
L 10.984375 60.40625 
L 10.984375 69.390625 
L 28.421875 72.90625 
L 38.28125 72.90625 
L 38.28125 8.296875 
L 54.390625 8.296875 
L 54.390625 0 
L 12.40625 0 
z
" id="DejaVuSans-49"/>
      </defs>
      <g transform="translate(165.016598 322.182437)scale(0.1 -0.1)">
       <use xlink:href="#DejaVuSans-49"/>
       <use x="63.623047" xlink:href="#DejaVuSans-46"/>
       <use x="95.410156" xlink:href="#DejaVuSans-48"/>
      </g>
     </g>
    </g>
    <g id="xtick_4">
     <g id="line2d_7">
      <path clip-path="url(#pb91a002943)" d="M 230.65224 307.584 
L 230.65224 41.472 
" style="fill:none;stroke:#b0b0b0;stroke-linecap:square;stroke-width:0.8;"/>
     </g>
     <g id="line2d_8">
      <g>
       <use style="stroke:#000000;stroke-width:0.8;" x="230.65224" xlink:href="#mb53b27e07f" y="307.584"/>
      </g>
     </g>
     <g id="text_4">
      <!-- 1.5 -->
      <g transform="translate(222.700678 322.182437)scale(0.1 -0.1)">
       <use xlink:href="#DejaVuSans-49"/>
       <use x="63.623047" xlink:href="#DejaVuSans-46"/>
       <use x="95.410156" xlink:href="#DejaVuSans-53"/>
      </g>
     </g>
    </g>
    <g id="xtick_5">
     <g id="line2d_9">
      <path clip-path="url(#pb91a002943)" d="M 288.33632 307.584 
L 288.33632 41.472 
" style="fill:none;stroke:#b0b0b0;stroke-linecap:square;stroke-width:0.8;"/>
     </g>
     <g id="line2d_10">
      <g>
       <use style="stroke:#000000;stroke-width:0.8;" x="288.33632" xlink:href="#mb53b27e07f" y="307.584"/>
      </g>
     </g>
     <g id="text_5">
      <!-- 2.0 -->
      <defs>
       <path d="M 19.1875 8.296875 
L 53.609375 8.296875 
L 53.609375 0 
L 7.328125 0 
L 7.328125 8.296875 
Q 12.9375 14.109375 22.625 23.890625 
Q 32.328125 33.6875 34.8125 36.53125 
Q 39.546875 41.84375 41.421875 45.53125 
Q 43.3125 49.21875 43.3125 52.78125 
Q 43.3125 58.59375 39.234375 62.25 
Q 35.15625 65.921875 28.609375 65.921875 
Q 23.96875 65.921875 18.8125 64.3125 
Q 13.671875 62.703125 7.8125 59.421875 
L 7.8125 69.390625 
Q 13.765625 71.78125 18.9375 73 
Q 24.125 74.21875 28.421875 74.21875 
Q 39.75 74.21875 46.484375 68.546875 
Q 53.21875 62.890625 53.21875 53.421875 
Q 53.21875 48.921875 51.53125 44.890625 
Q 49.859375 40.875 45.40625 35.40625 
Q 44.1875 33.984375 37.640625 27.21875 
Q 31.109375 20.453125 19.1875 8.296875 
z
" id="DejaVuSans-50"/>
      </defs>
      <g transform="translate(280.384758 322.182437)scale(0.1 -0.1)">
       <use xlink:href="#DejaVuSans-50"/>
       <use x="63.623047" xlink:href="#DejaVuSans-46"/>
       <use x="95.410156" xlink:href="#DejaVuSans-48"/>
      </g>
     </g>
    </g>
    <g id="xtick_6">
     <g id="line2d_11">
      <path clip-path="url(#pb91a002943)" d="M 346.020401 307.584 
L 346.020401 41.472 
" style="fill:none;stroke:#b0b0b0;stroke-linecap:square;stroke-width:0.8;"/>
     </g>
     <g id="line2d_12">
      <g>
       <use style="stroke:#000000;stroke-width:0.8;" x="346.020401" xlink:href="#mb53b27e07f" y="307.584"/>
      </g>
     </g>
     <g id="text_6">
      <!-- 2.5 -->
      <g transform="translate(338.068838 322.182437)scale(0.1 -0.1)">
       <use xlink:href="#DejaVuSans-50"/>
       <use x="63.623047" xlink:href="#DejaVuSans-46"/>
       <use x="95.410156" xlink:href="#DejaVuSans-53"/>
      </g>
     </g>
    </g>
    <g id="xtick_7">
     <g id="line2d_13">
      <path clip-path="url(#pb91a002943)" d="M 403.704481 307.584 
L 403.704481 41.472 
" style="fill:none;stroke:#b0b0b0;stroke-linecap:square;stroke-width:0.8;"/>
     </g>
     <g id="line2d_14">
      <g>
       <use style="stroke:#000000;stroke-width:0.8;" x="403.704481" xlink:href="#mb53b27e07f" y="307.584"/>
      </g>
     </g>
     <g id="text_7">
      <!-- 3.0 -->
      <defs>
       <path d="M 40.578125 39.3125 
Q 47.65625 37.796875 51.625 33 
Q 55.609375 28.21875 55.609375 21.1875 
Q 55.609375 10.40625 48.1875 4.484375 
Q 40.765625 -1.421875 27.09375 -1.421875 
Q 22.515625 -1.421875 17.65625 -0.515625 
Q 12.796875 0.390625 7.625 2.203125 
L 7.625 11.71875 
Q 11.71875 9.328125 16.59375 8.109375 
Q 21.484375 6.890625 26.8125 6.890625 
Q 36.078125 6.890625 40.9375 10.546875 
Q 45.796875 14.203125 45.796875 21.1875 
Q 45.796875 27.640625 41.28125 31.265625 
Q 36.765625 34.90625 28.71875 34.90625 
L 20.21875 34.90625 
L 20.21875 43.015625 
L 29.109375 43.015625 
Q 36.375 43.015625 40.234375 45.921875 
Q 44.09375 48.828125 44.09375 54.296875 
Q 44.09375 59.90625 40.109375 62.90625 
Q 36.140625 65.921875 28.71875 65.921875 
Q 24.65625 65.921875 20.015625 65.03125 
Q 15.375 64.15625 9.8125 62.3125 
L 9.8125 71.09375 
Q 15.4375 72.65625 20.34375 73.4375 
Q 25.25 74.21875 29.59375 74.21875 
Q 40.828125 74.21875 47.359375 69.109375 
Q 53.90625 64.015625 53.90625 55.328125 
Q 53.90625 49.265625 50.4375 45.09375 
Q 46.96875 40.921875 40.578125 39.3125 
z
" id="DejaVuSans-51"/>
      </defs>
      <g transform="translate(395.752918 322.182437)scale(0.1 -0.1)">
       <use xlink:href="#DejaVuSans-51"/>
       <use x="63.623047" xlink:href="#DejaVuSans-46"/>
       <use x="95.410156" xlink:href="#DejaVuSans-48"/>
      </g>
     </g>
    </g>
    <g id="text_8">
     <!-- Hours -->
     <defs>
      <path d="M 9.8125 72.90625 
L 19.671875 72.90625 
L 19.671875 43.015625 
L 55.515625 43.015625 
L 55.515625 72.90625 
L 65.375 72.90625 
L 65.375 0 
L 55.515625 0 
L 55.515625 34.71875 
L 19.671875 34.71875 
L 19.671875 0 
L 9.8125 0 
z
" id="DejaVuSans-72"/>
      <path d="M 30.609375 48.390625 
Q 23.390625 48.390625 19.1875 42.75 
Q 14.984375 37.109375 14.984375 27.296875 
Q 14.984375 17.484375 19.15625 11.84375 
Q 23.34375 6.203125 30.609375 6.203125 
Q 37.796875 6.203125 41.984375 11.859375 
Q 46.1875 17.53125 46.1875 27.296875 
Q 46.1875 37.015625 41.984375 42.703125 
Q 37.796875 48.390625 30.609375 48.390625 
z
M 30.609375 56 
Q 42.328125 56 49.015625 48.375 
Q 55.71875 40.765625 55.71875 27.296875 
Q 55.71875 13.875 49.015625 6.21875 
Q 42.328125 -1.421875 30.609375 -1.421875 
Q 18.84375 -1.421875 12.171875 6.21875 
Q 5.515625 13.875 5.515625 27.296875 
Q 5.515625 40.765625 12.171875 48.375 
Q 18.84375 56 30.609375 56 
z
" id="DejaVuSans-111"/>
      <path d="M 8.5 21.578125 
L 8.5 54.6875 
L 17.484375 54.6875 
L 17.484375 21.921875 
Q 17.484375 14.15625 20.5 10.265625 
Q 23.53125 6.390625 29.59375 6.390625 
Q 36.859375 6.390625 41.078125 11.03125 
Q 45.3125 15.671875 45.3125 23.6875 
L 45.3125 54.6875 
L 54.296875 54.6875 
L 54.296875 0 
L 45.3125 0 
L 45.3125 8.40625 
Q 42.046875 3.421875 37.71875 1 
Q 33.40625 -1.421875 27.6875 -1.421875 
Q 18.265625 -1.421875 13.375 4.4375 
Q 8.5 10.296875 8.5 21.578125 
z
M 31.109375 56 
z
" id="DejaVuSans-117"/>
      <path d="M 41.109375 46.296875 
Q 39.59375 47.171875 37.8125 47.578125 
Q 36.03125 48 33.890625 48 
Q 26.265625 48 22.1875 43.046875 
Q 18.109375 38.09375 18.109375 28.8125 
L 18.109375 0 
L 9.078125 0 
L 9.078125 54.6875 
L 18.109375 54.6875 
L 18.109375 46.1875 
Q 20.953125 51.171875 25.484375 53.578125 
Q 30.03125 56 36.53125 56 
Q 37.453125 56 38.578125 55.875 
Q 39.703125 55.765625 41.0625 55.515625 
z
" id="DejaVuSans-114"/>
      <path d="M 44.28125 53.078125 
L 44.28125 44.578125 
Q 40.484375 46.53125 36.375 47.5 
Q 32.28125 48.484375 27.875 48.484375 
Q 21.1875 48.484375 17.84375 46.4375 
Q 14.5 44.390625 14.5 40.28125 
Q 14.5 37.15625 16.890625 35.375 
Q 19.28125 33.59375 26.515625 31.984375 
L 29.59375 31.296875 
Q 39.15625 29.25 43.1875 25.515625 
Q 47.21875 21.78125 47.21875 15.09375 
Q 47.21875 7.46875 41.1875 3.015625 
Q 35.15625 -1.421875 24.609375 -1.421875 
Q 20.21875 -1.421875 15.453125 -0.5625 
Q 10.6875 0.296875 5.421875 2 
L 5.421875 11.28125 
Q 10.40625 8.6875 15.234375 7.390625 
Q 20.0625 6.109375 24.8125 6.109375 
Q 31.15625 6.109375 34.5625 8.28125 
Q 37.984375 10.453125 37.984375 14.40625 
Q 37.984375 18.0625 35.515625 20.015625 
Q 33.0625 21.96875 24.703125 23.78125 
L 21.578125 24.515625 
Q 13.234375 26.265625 9.515625 29.90625 
Q 5.8125 33.546875 5.8125 39.890625 
Q 5.8125 47.609375 11.28125 51.796875 
Q 16.75 56 26.8125 56 
Q 31.78125 56 36.171875 55.265625 
Q 40.578125 54.546875 44.28125 53.078125 
z
" id="DejaVuSans-115"/>
     </defs>
     <g transform="translate(221.511562 335.860562)scale(0.1 -0.1)">
      <use xlink:href="#DejaVuSans-72"/>
      <use x="75.195312" xlink:href="#DejaVuSans-111"/>
      <use x="136.376953" xlink:href="#DejaVuSans-117"/>
      <use x="199.755859" xlink:href="#DejaVuSans-114"/>
      <use x="240.869141" xlink:href="#DejaVuSans-115"/>
     </g>
    </g>
   </g>
   <g id="matplotlib.axis_2">
    <g id="ytick_1">
     <g id="line2d_15">
      <path clip-path="url(#pb91a002943)" d="M 57.6 261.062236 
L 414.72 261.062236 
" style="fill:none;stroke:#b0b0b0;stroke-linecap:square;stroke-width:0.8;"/>
     </g>
     <g id="line2d_16">
      <defs>
       <path d="M 0 0 
L -3.5 0 
" id="me4766ee420" style="stroke:#000000;stroke-width:0.8;"/>
      </defs>
      <g>
       <use style="stroke:#000000;stroke-width:0.8;" x="57.6" xlink:href="#me4766ee420" y="261.062236"/>
      </g>
     </g>
     <g id="text_9">
      <!-- 0.02 -->
      <g transform="translate(28.334375 264.861455)scale(0.1 -0.1)">
       <use xlink:href="#DejaVuSans-48"/>
       <use x="63.623047" xlink:href="#DejaVuSans-46"/>
       <use x="95.410156" xlink:href="#DejaVuSans-48"/>
       <use x="159.033203" xlink:href="#DejaVuSans-50"/>
      </g>
     </g>
    </g>
    <g id="ytick_2">
     <g id="line2d_17">
      <path clip-path="url(#pb91a002943)" d="M 57.6 213.341909 
L 414.72 213.341909 
" style="fill:none;stroke:#b0b0b0;stroke-linecap:square;stroke-width:0.8;"/>
     </g>
     <g id="line2d_18">
      <g>
       <use style="stroke:#000000;stroke-width:0.8;" x="57.6" xlink:href="#me4766ee420" y="213.341909"/>
      </g>
     </g>
     <g id="text_10">
      <!-- 0.04 -->
      <defs>
       <path d="M 37.796875 64.3125 
L 12.890625 25.390625 
L 37.796875 25.390625 
z
M 35.203125 72.90625 
L 47.609375 72.90625 
L 47.609375 25.390625 
L 58.015625 25.390625 
L 58.015625 17.1875 
L 47.609375 17.1875 
L 47.609375 0 
L 37.796875 0 
L 37.796875 17.1875 
L 4.890625 17.1875 
L 4.890625 26.703125 
z
" id="DejaVuSans-52"/>
      </defs>
      <g transform="translate(28.334375 217.141128)scale(0.1 -0.1)">
       <use xlink:href="#DejaVuSans-48"/>
       <use x="63.623047" xlink:href="#DejaVuSans-46"/>
       <use x="95.410156" xlink:href="#DejaVuSans-48"/>
       <use x="159.033203" xlink:href="#DejaVuSans-52"/>
      </g>
     </g>
    </g>
    <g id="ytick_3">
     <g id="line2d_19">
      <path clip-path="url(#pb91a002943)" d="M 57.6 165.621582 
L 414.72 165.621582 
" style="fill:none;stroke:#b0b0b0;stroke-linecap:square;stroke-width:0.8;"/>
     </g>
     <g id="line2d_20">
      <g>
       <use style="stroke:#000000;stroke-width:0.8;" x="57.6" xlink:href="#me4766ee420" y="165.621582"/>
      </g>
     </g>
     <g id="text_11">
      <!-- 0.06 -->
      <defs>
       <path d="M 33.015625 40.375 
Q 26.375 40.375 22.484375 35.828125 
Q 18.609375 31.296875 18.609375 23.390625 
Q 18.609375 15.53125 22.484375 10.953125 
Q 26.375 6.390625 33.015625 6.390625 
Q 39.65625 6.390625 43.53125 10.953125 
Q 47.40625 15.53125 47.40625 23.390625 
Q 47.40625 31.296875 43.53125 35.828125 
Q 39.65625 40.375 33.015625 40.375 
z
M 52.59375 71.296875 
L 52.59375 62.3125 
Q 48.875 64.0625 45.09375 64.984375 
Q 41.3125 65.921875 37.59375 65.921875 
Q 27.828125 65.921875 22.671875 59.328125 
Q 17.53125 52.734375 16.796875 39.40625 
Q 19.671875 43.65625 24.015625 45.921875 
Q 28.375 48.1875 33.59375 48.1875 
Q 44.578125 48.1875 50.953125 41.515625 
Q 57.328125 34.859375 57.328125 23.390625 
Q 57.328125 12.15625 50.6875 5.359375 
Q 44.046875 -1.421875 33.015625 -1.421875 
Q 20.359375 -1.421875 13.671875 8.265625 
Q 6.984375 17.96875 6.984375 36.375 
Q 6.984375 53.65625 15.1875 63.9375 
Q 23.390625 74.21875 37.203125 74.21875 
Q 40.921875 74.21875 44.703125 73.484375 
Q 48.484375 72.75 52.59375 71.296875 
z
" id="DejaVuSans-54"/>
      </defs>
      <g transform="translate(28.334375 169.420801)scale(0.1 -0.1)">
       <use xlink:href="#DejaVuSans-48"/>
       <use x="63.623047" xlink:href="#DejaVuSans-46"/>
       <use x="95.410156" xlink:href="#DejaVuSans-48"/>
       <use x="159.033203" xlink:href="#DejaVuSans-54"/>
      </g>
     </g>
    </g>
    <g id="ytick_4">
     <g id="line2d_21">
      <path clip-path="url(#pb91a002943)" d="M 57.6 117.901255 
L 414.72 117.901255 
" style="fill:none;stroke:#b0b0b0;stroke-linecap:square;stroke-width:0.8;"/>
     </g>
     <g id="line2d_22">
      <g>
       <use style="stroke:#000000;stroke-width:0.8;" x="57.6" xlink:href="#me4766ee420" y="117.901255"/>
      </g>
     </g>
     <g id="text_12">
      <!-- 0.08 -->
      <defs>
       <path d="M 31.78125 34.625 
Q 24.75 34.625 20.71875 30.859375 
Q 16.703125 27.09375 16.703125 20.515625 
Q 16.703125 13.921875 20.71875 10.15625 
Q 24.75 6.390625 31.78125 6.390625 
Q 38.8125 6.390625 42.859375 10.171875 
Q 46.921875 13.96875 46.921875 20.515625 
Q 46.921875 27.09375 42.890625 30.859375 
Q 38.875 34.625 31.78125 34.625 
z
M 21.921875 38.8125 
Q 15.578125 40.375 12.03125 44.71875 
Q 8.5 49.078125 8.5 55.328125 
Q 8.5 64.0625 14.71875 69.140625 
Q 20.953125 74.21875 31.78125 74.21875 
Q 42.671875 74.21875 48.875 69.140625 
Q 55.078125 64.0625 55.078125 55.328125 
Q 55.078125 49.078125 51.53125 44.71875 
Q 48 40.375 41.703125 38.8125 
Q 48.828125 37.15625 52.796875 32.3125 
Q 56.78125 27.484375 56.78125 20.515625 
Q 56.78125 9.90625 50.3125 4.234375 
Q 43.84375 -1.421875 31.78125 -1.421875 
Q 19.734375 -1.421875 13.25 4.234375 
Q 6.78125 9.90625 6.78125 20.515625 
Q 6.78125 27.484375 10.78125 32.3125 
Q 14.796875 37.15625 21.921875 38.8125 
z
M 18.3125 54.390625 
Q 18.3125 48.734375 21.84375 45.5625 
Q 25.390625 42.390625 31.78125 42.390625 
Q 38.140625 42.390625 41.71875 45.5625 
Q 45.3125 48.734375 45.3125 54.390625 
Q 45.3125 60.0625 41.71875 63.234375 
Q 38.140625 66.40625 31.78125 66.40625 
Q 25.390625 66.40625 21.84375 63.234375 
Q 18.3125 60.0625 18.3125 54.390625 
z
" id="DejaVuSans-56"/>
      </defs>
      <g transform="translate(28.334375 121.700474)scale(0.1 -0.1)">
       <use xlink:href="#DejaVuSans-48"/>
       <use x="63.623047" xlink:href="#DejaVuSans-46"/>
       <use x="95.410156" xlink:href="#DejaVuSans-48"/>
       <use x="159.033203" xlink:href="#DejaVuSans-56"/>
      </g>
     </g>
    </g>
    <g id="ytick_5">
     <g id="line2d_23">
      <path clip-path="url(#pb91a002943)" d="M 57.6 70.180928 
L 414.72 70.180928 
" style="fill:none;stroke:#b0b0b0;stroke-linecap:square;stroke-width:0.8;"/>
     </g>
     <g id="line2d_24">
      <g>
       <use style="stroke:#000000;stroke-width:0.8;" x="57.6" xlink:href="#me4766ee420" y="70.180928"/>
      </g>
     </g>
     <g id="text_13">
      <!-- 0.10 -->
      <g transform="translate(28.334375 73.980147)scale(0.1 -0.1)">
       <use xlink:href="#DejaVuSans-48"/>
       <use x="63.623047" xlink:href="#DejaVuSans-46"/>
       <use x="95.410156" xlink:href="#DejaVuSans-49"/>
       <use x="159.033203" xlink:href="#DejaVuSans-48"/>
      </g>
     </g>
    </g>
    <g id="text_14">
     <!-- Value loss -->
     <defs>
      <path d="M 28.609375 0 
L 0.78125 72.90625 
L 11.078125 72.90625 
L 34.1875 11.53125 
L 57.328125 72.90625 
L 67.578125 72.90625 
L 39.796875 0 
z
" id="DejaVuSans-86"/>
      <path d="M 34.28125 27.484375 
Q 23.390625 27.484375 19.1875 25 
Q 14.984375 22.515625 14.984375 16.5 
Q 14.984375 11.71875 18.140625 8.90625 
Q 21.296875 6.109375 26.703125 6.109375 
Q 34.1875 6.109375 38.703125 11.40625 
Q 43.21875 16.703125 43.21875 25.484375 
L 43.21875 27.484375 
z
M 52.203125 31.203125 
L 52.203125 0 
L 43.21875 0 
L 43.21875 8.296875 
Q 40.140625 3.328125 35.546875 0.953125 
Q 30.953125 -1.421875 24.3125 -1.421875 
Q 15.921875 -1.421875 10.953125 3.296875 
Q 6 8.015625 6 15.921875 
Q 6 25.140625 12.171875 29.828125 
Q 18.359375 34.515625 30.609375 34.515625 
L 43.21875 34.515625 
L 43.21875 35.40625 
Q 43.21875 41.609375 39.140625 45 
Q 35.0625 48.390625 27.6875 48.390625 
Q 23 48.390625 18.546875 47.265625 
Q 14.109375 46.140625 10.015625 43.890625 
L 10.015625 52.203125 
Q 14.9375 54.109375 19.578125 55.046875 
Q 24.21875 56 28.609375 56 
Q 40.484375 56 46.34375 49.84375 
Q 52.203125 43.703125 52.203125 31.203125 
z
" id="DejaVuSans-97"/>
      <path d="M 9.421875 75.984375 
L 18.40625 75.984375 
L 18.40625 0 
L 9.421875 0 
z
" id="DejaVuSans-108"/>
      <path d="M 56.203125 29.59375 
L 56.203125 25.203125 
L 14.890625 25.203125 
Q 15.484375 15.921875 20.484375 11.0625 
Q 25.484375 6.203125 34.421875 6.203125 
Q 39.59375 6.203125 44.453125 7.46875 
Q 49.3125 8.734375 54.109375 11.28125 
L 54.109375 2.78125 
Q 49.265625 0.734375 44.1875 -0.34375 
Q 39.109375 -1.421875 33.890625 -1.421875 
Q 20.796875 -1.421875 13.15625 6.1875 
Q 5.515625 13.8125 5.515625 26.8125 
Q 5.515625 40.234375 12.765625 48.109375 
Q 20.015625 56 32.328125 56 
Q 43.359375 56 49.78125 48.890625 
Q 56.203125 41.796875 56.203125 29.59375 
z
M 47.21875 32.234375 
Q 47.125 39.59375 43.09375 43.984375 
Q 39.0625 48.390625 32.421875 48.390625 
Q 24.90625 48.390625 20.390625 44.140625 
Q 15.875 39.890625 15.1875 32.171875 
z
" id="DejaVuSans-101"/>
      <path id="DejaVuSans-32"/>
     </defs>
     <g transform="translate(22.254687 199.888156)rotate(-90)scale(0.1 -0.1)">
      <use xlink:href="#DejaVuSans-86"/>
      <use x="68.298828" xlink:href="#DejaVuSans-97"/>
      <use x="129.578125" xlink:href="#DejaVuSans-108"/>
      <use x="157.361328" xlink:href="#DejaVuSans-117"/>
      <use x="220.740234" xlink:href="#DejaVuSans-101"/>
      <use x="282.263672" xlink:href="#DejaVuSans-32"/>
      <use x="314.050781" xlink:href="#DejaVuSans-108"/>
      <use x="341.833984" xlink:href="#DejaVuSans-111"/>
      <use x="403.015625" xlink:href="#DejaVuSans-115"/>
      <use x="455.115234" xlink:href="#DejaVuSans-115"/>
     </g>
    </g>
   </g>
   <g id="line2d_25">
    <path clip-path="url(#pb91a002943)" d="M 57.6 161.49826 
L 58.269164 61.957455 
L 58.578035 94.123569 
L 59.419559 84.136708 
L 59.678069 136.079485 
L 60.091175 114.602503 
L 60.246393 100.551683 
L 61.031164 159.39175 
L 61.187432 114.880307 
L 62.225845 92.619386 
L 62.642135 94.98683 
L 62.853866 97.400353 
L 63.897883 114.996268 
L 64.575838 136.943724 
L 65.150711 151.833699 
L 65.412269 124.449067 
L 65.567754 127.880708 
L 66.034558 96.550656 
L 66.608117 93.852414 
L 66.974347 68.129506 
L 67.026079 141.934515 
L 67.235305 53.568 
L 68.119968 167.793276 
L 68.381326 186.148393 
L 68.955709 189.358406 
L 69.268745 198.318447 
L 69.528086 210.919545 
L 70.309569 173.009979 
L 70.623018 179.273227 
L 70.885091 165.699681 
L 71.248442 214.82957 
L 71.45604 225.876362 
L 71.560596 181.824603 
L 72.55098 188.043115 
L 72.811852 145.903934 
L 73.125204 188.48886 
L 73.48972 219.109246 
L 73.907811 211.946658 
L 74.535822 156.557743 
L 75.004822 204.101603 
L 75.41971 219.097389 
L 76.256125 201.934233 
L 76.464666 203.386666 
L 76.984329 229.741492 
L 79.27929 189.307847 
L 79.33142 198.26108 
L 80.220211 176.529751 
L 80.32423 229.703635 
L 80.376442 223.896541 
L 80.531613 216.253436 
L 81.314569 202.456732 
L 81.471491 208.161722 
L 81.523264 200.570375 
L 82.045336 231.133296 
L 82.928929 213.246145 
L 83.033827 166.803583 
L 84.128812 231.841771 
L 84.285337 212.170838 
L 84.701409 211.730052 
L 85.118981 167.896099 
L 85.275315 212.967817 
L 85.587918 166.492615 
L 85.848044 208.967998 
L 86.367723 238.686333 
L 86.679662 216.631592 
L 87.202913 217.727566 
L 87.515216 223.857983 
L 87.620079 223.640985 
L 87.880838 256.888745 
L 87.932888 203.736531 
L 88.244338 241.407522 
L 88.712616 203.99022 
L 89.649834 223.722351 
L 89.754264 193.331843 
L 90.382777 259.393282 
L 90.748828 171.126218 
L 90.904675 235.767734 
L 91.061542 205.384771 
L 91.16498 227.484551 
L 91.78959 201.807597 
L 91.944572 225.394093 
L 92.152376 191.456818 
L 92.464722 234.108907 
L 92.674392 196.3026 
L 92.935754 256.055282 
L 93.196001 243.065948 
L 94.549056 234.054358 
L 94.757767 231.627395 
L 94.96675 213.046916 
L 95.018998 217.131292 
L 95.382968 239.48989 
L 96.060666 150.743547 
L 96.268282 232.572192 
L 96.529123 157.450319 
L 96.738687 222.659852 
L 97.206969 211.294581 
L 97.413993 215.823387 
L 97.465643 265.208824 
L 97.517459 235.032153 
L 97.673933 150.006558 
L 97.98642 227.460311 
L 98.247656 213.493249 
L 98.611366 150.181734 
L 98.715194 233.231068 
L 98.924732 197.634629 
L 99.133404 254.654919 
L 99.443619 219.92618 
L 99.49569 185.961617 
L 100.695128 200.684833 
L 100.904391 222.234861 
L 102.619178 180.126302 
L 102.878567 264.832872 
L 102.983364 164.854917 
L 103.295737 250.929403 
L 103.711264 227.904048 
L 104.022976 187.485941 
L 104.232111 222.793359 
L 104.596114 240.420993 
L 104.700656 171.582487 
L 105.012891 219.77126 
L 105.116618 215.422769 
L 105.843649 235.595708 
L 105.895549 255.992009 
L 106.416784 240.15434 
L 106.573109 222.305455 
L 107.041959 248.493725 
L 107.925516 180.146488 
L 107.977459 218.180574 
L 108.291214 210.914327 
L 108.342532 233.673579 
L 108.601384 223.139641 
L 109.223328 237.13713 
L 109.53561 159.968531 
L 109.691172 234.200148 
L 110.158787 229.78645 
L 110.314024 225.040247 
L 110.729536 185.281532 
L 111.354333 188.273036 
L 111.719268 220.266009 
L 112.39604 255.937997 
L 112.709548 237.182942 
L 112.866621 179.880852 
L 113.17808 252.780676 
L 113.385781 185.347468 
L 113.489994 240.498124 
L 113.803953 189.642245 
L 114.270326 242.182634 
L 114.79263 193.423262 
L 114.844471 220.714581 
L 115.366062 221.34673 
L 115.625683 233.570275 
L 116.355009 203.796395 
L 117.501146 194.38868 
L 117.552974 209.302432 
L 117.760925 218.769248 
L 117.813537 164.738156 
L 117.865408 219.728284 
L 118.802944 225.40844 
L 119.428731 203.696843 
L 119.480283 243.233614 
L 119.794135 166.913384 
L 120.159167 197.795424 
L 121.511973 183.417761 
L 121.616101 234.052962 
L 122.13847 178.952509 
L 122.712151 206.2263 
L 122.867571 222.997424 
L 123.024306 164.684015 
L 124.06479 190.441002 
L 124.37748 183.455884 
L 124.741544 225.584496 
L 125.054751 234.473344 
L 125.575038 217.635222 
L 125.8873 225.742322 
L 126.46021 204.573553 
L 126.616843 192.420654 
L 126.772377 222.48912 
L 126.929342 228.687188 
L 126.981854 201.798486 
L 127.920506 229.044901 
L 129.481381 234.130435 
L 129.637503 174.824739 
L 129.68922 229.294821 
L 129.793155 210.498678 
L 129.845321 166.824249 
L 130.988368 234.39044 
L 131.611707 203.660773 
L 131.715296 205.746413 
L 131.922124 220.081544 
L 132.130355 156.692494 
L 132.338284 217.857402 
L 133.636038 223.315813 
L 133.689212 175.503961 
L 134.259262 199.05757 
L 134.883548 207.599909 
L 134.987073 231.796519 
L 135.507176 194.754117 
L 135.870598 217.887481 
L 136.647838 222.845704 
L 136.699632 249.361768 
L 136.856399 213.904684 
L 138.103354 235.941186 
L 138.15591 201.416285 
L 138.988501 213.104097 
L 139.040151 229.279649 
L 139.508054 188.550583 
L 139.818601 229.908757 
L 140.025601 223.640354 
L 140.493863 222.700278 
L 140.90887 232.592458 
L 141.168745 208.999713 
L 141.583519 199.41778 
L 142.051083 234.567186 
L 142.310013 212.880335 
L 142.568381 230.193673 
L 142.723506 217.849944 
L 142.984024 219.311942 
L 143.139652 214.87772 
L 143.347158 212.404759 
L 143.762926 237.297693 
L 144.176734 215.396059 
L 144.539499 238.774499 
L 144.903208 235.368942 
L 145.369695 234.649321 
L 145.57655 237.176284 
L 145.628044 217.058423 
L 145.679467 233.148173 
L 145.783377 245.254527 
L 145.939559 219.775074 
L 146.300818 201.547197 
L 146.769625 225.549662 
L 147.288547 230.572878 
L 147.496001 219.001081 
L 147.600358 221.794751 
L 147.756497 248.479717 
L 148.016693 259.024569 
L 148.172644 250.743053 
L 148.27612 236.686704 
L 149.259484 234.648876 
L 149.727349 242.790766 
L 150.038424 264.109388 
L 150.403421 251.28904 
L 150.455377 258.091235 
L 151.285023 240.766587 
L 151.905579 217.343845 
L 152.372477 270.67284 
L 152.579683 209.023401 
L 153.098485 244.097169 
L 153.306984 244.045055 
L 153.567405 230.327997 
L 153.775471 266.969137 
L 154.448988 251.492949 
L 154.603367 228.033182 
L 154.914264 223.946175 
L 154.965981 253.66339 
L 155.017553 242.880719 
L 156.782738 254.22475 
L 157.094203 225.656218 
L 157.974602 237.182453 
L 158.078266 231.145553 
L 158.181917 266.513027 
L 158.648388 251.025719 
L 158.752224 239.831363 
L 158.907296 243.101432 
L 159.685195 247.257934 
L 159.788374 276.576808 
L 160.411352 215.520437 
L 160.514863 251.093153 
L 161.448508 255.964072 
L 162.069347 248.694217 
L 162.276507 225.782463 
L 162.794509 240.60397 
L 162.950804 254.855801 
L 163.260852 214.2371 
L 164.506657 248.551372 
L 165.128206 260.384481 
L 165.179685 238.613371 
L 165.334457 239.773783 
L 165.385873 228.086967 
L 165.799583 282.872353 
L 166.007245 255.079172 
L 166.266895 261.325855 
L 166.370727 248.475459 
L 167.149679 255.358843 
L 167.356457 262.753974 
L 168.70493 226.30658 
L 169.11811 262.096906 
L 169.22185 253.179744 
L 169.483362 246.398566 
L 169.949979 249.16677 
L 170.159003 252.187651 
L 170.366387 267.580144 
L 170.574061 258.920062 
L 171.09296 250.909265 
L 171.300597 228.421116 
L 171.353006 251.039372 
L 171.559536 243.907241 
L 171.71569 259.730369 
L 172.129916 254.422006 
L 172.337622 248.133252 
L 173.061631 251.562947 
L 173.374069 222.170961 
L 173.633194 231.489213 
L 173.68457 227.994694 
L 173.788177 253.530706 
L 174.048865 238.991292 
L 174.152993 257.50424 
L 174.204332 246.943175 
L 174.567675 242.120859 
L 174.722848 264.03696 
L 174.981541 245.916408 
L 175.967461 250.408237 
L 176.485502 240.164713 
L 176.796996 231.228235 
L 177.107441 264.836094 
L 177.316379 248.605086 
L 177.367999 253.454401 
L 177.938477 256.627677 
L 177.990421 263.87892 
L 178.769894 213.090782 
L 179.288977 258.258145 
L 179.755865 266.352987 
L 180.638274 239.458922 
L 181.573191 257.651867 
L 181.729791 267.935559 
L 182.250668 259.84025 
L 182.459083 246.863511 
L 182.980892 225.555901 
L 183.395769 248.798182 
L 183.447954 236.429668 
L 184.017684 240.585348 
L 184.433222 251.937801 
L 184.745259 234.57767 
L 184.797731 252.256582 
L 184.901633 249.111421 
L 185.005259 226.860713 
L 185.266143 263.033396 
L 186.567874 232.039364 
L 186.620295 260.495651 
L 187.14068 262.086324 
L 187.245187 240.137105 
L 187.453471 248.40743 
L 187.505312 241.158294 
L 188.233398 239.870229 
L 188.548202 246.656495 
L 188.912212 215.453941 
L 189.120291 251.346842 
L 189.798021 237.955952 
L 190.00611 237.647789 
L 190.109675 229.742434 
L 190.266242 203.888313 
L 190.786104 247.528996 
L 191.306069 222.022975 
L 191.409796 252.244667 
L 192.034468 241.601733 
L 192.086685 225.579705 
L 192.138582 255.665086 
L 192.555843 231.246003 
L 192.867905 262.463637 
L 193.753493 247.082713 
L 194.065353 202.683649 
L 194.117744 241.953628 
L 194.535088 245.343022 
L 194.847633 231.260803 
L 195.158911 244.040099 
L 195.418451 219.878439 
L 196.613675 217.087196 
L 196.716806 240.679292 
L 196.977092 230.630743 
L 197.236271 246.95745 
L 197.912193 256.255463 
L 198.275094 235.058601 
L 199.053379 234.426994 
L 199.676228 239.731633 
L 199.832436 225.49561 
L 200.143454 228.436191 
L 200.558131 244.121123 
L 200.61022 223.224314 
L 200.713743 233.811574 
L 201.184756 230.05749 
L 202.380231 213.525905 
L 202.43324 203.945093 
L 202.485373 229.469714 
L 202.849265 244.017469 
L 203.421392 244.401145 
L 203.525107 228.191195 
L 204.147213 197.038186 
L 204.198759 232.961388 
L 204.355278 261.981057 
L 204.459421 238.194616 
L 204.511637 184.727354 
L 206.012339 211.43719 
L 206.637035 247.338349 
L 206.688619 214.907434 
L 207.156358 260.793473 
L 207.622076 239.036384 
L 207.934058 232.225874 
L 208.141509 224.267685 
L 209.021206 245.4626 
L 209.124361 255.634865 
L 209.176819 250.41485 
L 209.228626 251.276871 
L 209.79778 220.991755 
L 210.728172 221.211134 
L 211.607252 257.987456 
L 211.969442 231.555087 
L 212.021299 210.96405 
L 212.176858 220.654592 
L 213.213875 229.943707 
L 213.473073 219.704747 
L 213.576856 250.414144 
L 213.784697 210.536037 
L 213.88827 247.183358 
L 214.095761 218.823486 
L 214.147312 223.782589 
L 214.718222 216.05562 
L 214.872778 244.281278 
L 215.444099 218.282037 
L 215.495517 235.883303 
L 215.909528 204.123985 
L 216.68701 236.210791 
L 216.893797 226.747765 
L 216.996738 239.764139 
L 217.775013 212.702652 
L 218.448143 233.481789 
L 219.63876 204.530425 
L 220.415984 221.511756 
L 220.467621 256.009475 
L 220.777498 233.070167 
L 220.828982 191.677771 
L 221.088342 233.515708 
L 221.3489 202.255378 
L 221.555335 239.820092 
L 221.659988 229.012564 
L 222.488477 226.41215 
L 223.060023 225.133782 
L 223.421642 242.678312 
L 223.473595 211.809276 
L 223.835408 234.185216 
L 223.9906 206.840449 
L 225.231733 224.775909 
L 225.387678 235.531008 
L 225.75022 228.044622 
L 225.905327 215.844071 
L 226.059864 235.09364 
L 226.111401 214.987094 
L 227.149353 231.916346 
L 227.408681 210.053839 
L 227.875797 248.55455 
L 228.082819 235.754623 
L 228.44599 222.802363 
L 229.117687 227.961993 
L 229.53055 246.762656 
L 229.945954 205.573627 
L 230.256583 222.0674 
L 230.308652 248.96035 
L 230.568115 244.944301 
L 230.827496 225.334726 
L 231.189074 235.175379 
L 231.811622 229.659583 
L 232.691271 235.43378 
L 232.794763 247.481518 
L 232.899846 241.903252 
L 233.054925 253.487836 
L 233.315049 244.24611 
L 234.196203 236.093163 
L 234.454064 237.872804 
L 235.59398 217.254044 
L 235.750009 240.418051 
L 236.009031 259.908203 
L 236.371107 235.627925 
L 236.577867 250.040849 
L 236.681896 244.100271 
L 236.992614 246.22106 
L 237.044112 237.720355 
L 237.718431 216.977839 
L 238.028912 257.303998 
L 238.184141 240.648964 
L 239.063347 239.901379 
L 239.167159 229.896927 
L 239.684463 264.515091 
L 239.943509 240.57765 
L 240.202098 240.373221 
L 241.02873 219.656455 
L 241.132081 237.320928 
L 241.441813 239.025385 
L 241.648192 231.099857 
L 241.751817 200.013859 
L 242.480571 234.147706 
L 243.36057 222.855615 
L 243.980801 222.238132 
L 244.342575 229.615691 
L 244.394241 234.11768 
L 245.325981 216.996621 
L 245.430539 237.794153 
L 245.53374 218.700193 
L 245.689201 251.463288 
L 245.844198 238.779073 
L 246.725567 227.299081 
L 247.295083 244.322166 
L 247.346673 255.204101 
L 247.657493 233.952512 
L 248.019991 228.926655 
L 249.262599 245.17173 
L 249.572283 234.931507 
L 249.675437 224.192576 
L 250.76141 246.313373 
L 250.91716 226.996602 
L 251.176771 258.177934 
L 251.228708 207.079561 
L 251.539542 241.798545 
L 251.693858 206.589284 
L 251.798109 262.210387 
L 252.265737 228.673926 
L 252.627287 231.922062 
L 252.886434 221.647485 
L 253.300497 237.157391 
L 253.509161 236.174672 
L 253.715655 221.290643 
L 254.389039 226.146656 
L 254.492322 243.496988 
L 254.647424 225.278106 
L 255.270011 226.443126 
L 255.478889 249.778884 
L 255.739171 223.88208 
L 255.843222 235.626196 
L 256.362678 242.069371 
L 256.466663 239.518009 
L 256.570669 248.957906 
L 257.247383 251.800099 
L 258.07849 240.241292 
L 258.337154 231.183632 
L 258.700909 234.458838 
L 259.999713 232.655398 
L 260.051895 212.345623 
L 260.103924 239.957857 
L 260.467059 228.983258 
L 260.985346 246.802486 
L 261.402928 223.9503 
L 261.766687 248.461673 
L 261.974504 230.673106 
L 262.545948 225.973141 
L 262.85823 226.928382 
L 263.169707 226.968221 
L 264.105543 239.402657 
L 264.313235 201.666491 
L 264.884544 257.676248 
L 265.406207 239.08157 
L 265.615169 240.272554 
L 265.667771 221.305336 
L 266.239915 219.670499 
L 266.291487 241.667691 
L 266.862028 248.026065 
L 266.96541 186.614343 
L 267.017014 237.029538 
L 267.381771 238.180576 
L 267.537658 224.704355 
L 267.589433 191.177876 
L 267.641112 238.311941 
L 269.09587 243.44091 
L 269.978417 239.503072 
L 270.24005 214.531295 
L 270.291905 254.873516 
L 270.396472 220.166981 
L 270.812314 251.93709 
L 273.825927 244.05033 
L 274.553734 220.683053 
L 274.605168 226.11999 
L 275.174489 250.383189 
L 275.329772 238.307074 
L 275.432769 250.48719 
L 275.588284 246.479425 
L 275.640492 232.54733 
L 275.743492 243.009883 
L 276.935952 239.185171 
L 277.194333 241.361599 
L 277.34994 220.650521 
L 277.504878 240.352302 
L 277.764245 242.238548 
L 278.332575 243.991861 
L 278.79723 242.195394 
L 278.953121 229.772068 
L 279.005027 245.80298 
L 279.471636 214.681077 
L 279.782258 245.141842 
L 280.610137 241.026698 
L 280.920971 228.615714 
L 281.127666 226.120914 
L 281.59295 240.035743 
L 281.695928 251.397396 
L 282.161755 224.487562 
L 282.368668 253.960127 
L 282.679857 235.923258 
L 282.938422 239.491436 
L 283.249382 241.567903 
L 283.71645 209.158197 
L 284.078529 255.591373 
L 284.284676 250.924532 
L 284.751272 213.401527 
L 285.890896 246.425169 
L 286.202504 225.880273 
L 286.410432 250.138917 
L 286.462141 244.918627 
L 287.445199 247.355762 
L 287.600377 231.103021 
L 287.90967 225.310594 
L 288.065904 236.624164 
L 289.461116 234.749935 
L 289.771499 202.284604 
L 289.977722 248.343352 
L 290.133073 240.4826 
L 290.546545 240.617231 
L 290.651577 241.662229 
L 291.53234 233.701169 
L 291.58396 247.565919 
L 292.565938 254.704557 
L 292.61792 253.991086 
L 292.773544 219.172346 
L 293.137385 204.975389 
L 293.240875 221.942577 
L 293.654922 217.019447 
L 293.758174 257.222383 
L 293.809723 256.068624 
L 294.483376 244.141078 
L 294.586385 235.056699 
L 295.102889 224.027826 
L 295.258122 247.049634 
L 295.826399 232.141308 
L 295.981528 244.962203 
L 296.085361 242.764234 
L 296.188665 224.301817 
L 296.808606 227.12602 
L 297.686641 210.978983 
L 298.462239 247.427537 
L 298.773978 241.001677 
L 299.137791 192.351696 
L 299.55167 223.892853 
L 299.759721 230.137559 
L 300.122003 231.512084 
L 300.174626 237.088082 
L 300.226772 236.004811 
L 300.745239 232.30292 
L 301.831978 232.516576 
L 302.090968 244.066085 
L 302.349388 235.49648 
L 302.660037 230.493219 
L 303.178111 242.82396 
L 303.438894 227.235714 
L 303.74949 217.398128 
L 303.958912 243.929929 
L 304.01084 222.766409 
L 304.425455 236.293063 
L 304.580518 247.467607 
L 304.6319 235.724757 
L 304.736053 255.701249 
L 304.891566 241.314485 
L 304.943064 243.233667 
L 305.358483 247.744958 
L 305.513882 242.206425 
L 305.669386 249.158322 
L 305.772669 231.027219 
L 305.928682 241.458587 
L 305.980702 254.009348 
L 306.290612 263.915737 
L 306.601021 223.734707 
L 306.704827 252.564101 
L 306.86074 238.270636 
L 307.900002 246.127437 
L 308.003845 266.89917 
L 308.315669 248.919649 
L 308.679209 246.387931 
L 309.305039 262.335979 
L 310.294087 253.061876 
L 310.397312 205.022258 
L 311.227591 268.864014 
L 311.383211 232.416152 
L 311.538704 269.032759 
L 312.524575 243.551337 
L 313.768945 255.771496 
L 313.923942 246.719364 
L 314.599557 262.975727 
L 315.012783 259.882297 
L 315.427981 269.513642 
L 315.635567 239.395026 
L 315.73901 247.918353 
L 315.790521 261.509405 
L 316.931962 237.71228 
L 318.071541 257.176464 
L 318.382036 271.962725 
L 318.538494 250.759404 
L 318.900939 253.258421 
L 319.577452 280.002829 
L 319.68119 258.207782 
L 319.733425 265.813667 
L 320.096508 264.332537 
L 321.028758 248.135252 
L 321.856829 260.177932 
L 322.221176 273.92236 
L 322.533117 268.02448 
L 322.844506 240.555678 
L 323.521579 257.516893 
L 323.625937 250.57125 
L 323.936288 267.773831 
L 324.092001 263.539762 
L 325.284262 261.708981 
L 325.544419 264.34711 
L 326.219505 261.002404 
L 326.427119 269.478078 
L 327.359715 274.097972 
L 327.77654 285.462914 
L 328.971247 231.473898 
L 329.126292 248.377302 
L 329.281546 273.090776 
L 329.38533 260.629882 
L 329.437287 265.172594 
L 329.645265 269.608363 
L 330.579119 266.126408 
L 330.786443 264.722529 
L 331.980942 272.209399 
L 332.657502 271.278936 
L 333.491266 276.395787 
L 334.061708 263.478386 
L 334.113381 277.7426 
L 334.892312 265.267147 
L 335.04824 279.749373 
L 335.671157 266.363658 
L 335.827052 286.970106 
L 336.710151 268.735124 
L 336.917158 245.958167 
L 337.594018 249.766302 
L 337.958636 258.149429 
L 338.062153 280.921798 
L 339.048265 258.641657 
L 339.774941 272.717428 
L 340.191992 248.413928 
L 341.646359 268.97281 
L 342.112811 282.393544 
L 342.476354 268.374896 
L 342.68269 255.128637 
L 343.307595 277.804642 
L 343.565892 276.225695 
L 343.826857 271.5765 
L 344.604764 272.90479 
L 345.073154 272.020006 
L 346.007985 278.424931 
L 346.373346 260.332372 
L 346.633118 279.250127 
L 346.737098 273.670928 
L 346.89274 273.08276 
L 347.360324 270.461967 
L 347.46437 258.739574 
L 347.775483 273.581371 
L 348.40015 264.235891 
L 348.659568 264.468075 
L 349.074407 262.996851 
L 349.178537 252.691324 
L 349.801051 270.936045 
L 350.578812 257.242307 
L 351.148588 254.697242 
L 351.251953 282.665933 
L 351.460218 267.531639 
L 352.083222 267.673038 
L 352.239345 270.040789 
L 354.001296 265.711017 
L 354.364822 263.126451 
L 354.728294 268.664042 
L 355.452044 264.850965 
L 356.021362 252.244943 
L 356.385095 268.716574 
L 356.748346 255.0336 
L 357.266186 256.827551 
L 357.679012 265.076673 
L 357.937692 254.59476 
L 358.247834 263.271731 
L 358.350928 278.638349 
L 358.86912 268.807918 
L 358.920547 278.307615 
L 359.801579 265.146373 
L 359.957029 272.10233 
L 360.320296 294.109373 
L 360.941658 274.184883 
L 361.720972 270.697435 
L 361.824445 256.800485 
L 362.186963 252.635601 
L 362.704492 272.54786 
L 363.117936 274.402813 
L 363.222876 240.666039 
L 363.326469 264.254259 
L 363.481516 264.724329 
L 363.584723 270.013474 
L 364.567225 280.974416 
L 364.61892 285.650557 
L 365.135438 261.721154 
L 365.342128 276.485656 
L 365.394324 268.573756 
L 366.381474 274.379319 
L 366.744459 271.802875 
L 366.795987 273.274694 
L 366.952299 263.163383 
L 367.418025 256.179625 
L 368.352468 259.728165 
L 369.387517 282.743006 
L 369.852729 276.585132 
L 370.113 281.751533 
L 370.425897 257.672342 
L 370.47797 281.081761 
L 370.529462 264.990742 
L 370.684557 267.542856 
L 370.83909 278.638775 
L 371.564611 277.7905 
L 371.823984 283.663114 
L 371.97952 276.268305 
L 372.859453 280.725957 
L 372.911906 277.044606 
L 373.119279 283.523632 
L 373.74095 269.595257 
L 374.311766 276.101499 
L 374.830569 273.496934 
L 375.142061 270.493255 
L 375.245995 280.991824 
L 375.558635 256.61778 
L 375.661651 281.221175 
L 375.765583 276.991886 
L 376.128666 270.463847 
L 376.387536 251.948192 
L 376.491327 279.601051 
L 376.595057 269.659944 
L 377.008819 285.722803 
L 377.786695 278.686403 
L 377.99376 262.159464 
L 378.252422 275.38112 
L 378.40862 274.056489 
L 379.75652 267.725806 
L 379.912191 269.77342 
L 380.223843 250.694917 
L 380.275638 278.639009 
L 380.534887 273.94857 
L 380.902208 280.649002 
L 381.163271 262.850095 
L 381.319047 263.568112 
L 381.525409 272.507301 
L 381.834949 277.161905 
L 382.506677 273.189837 
L 382.867695 244.576002 
L 383.853211 270.769712 
L 384.88884 266.994518 
L 385.043897 274.484793 
L 385.250177 266.454469 
L 385.301828 281.331564 
L 385.663302 267.53215 
L 386.543509 254.77207 
L 387.11303 277.980108 
L 387.682995 272.341144 
L 388.357572 282.39257 
L 389.600927 240.911569 
L 390.791576 282.356176 
L 391.258161 266.985692 
L 392.036464 260.177479 
L 392.088736 273.012929 
L 392.452591 277.66454 
L 392.65913 274.61552 
L 393.180063 270.324131 
L 393.336113 284.901419 
L 393.38846 277.829515 
L 393.910006 285.41806 
L 394.116417 267.078991 
L 394.530899 249.600645 
L 394.582744 273.402106 
L 394.790467 282.466279 
L 395.256625 261.717941 
L 395.308824 269.648086 
L 395.827264 283.374712 
L 395.931417 259.807633 
L 396.346537 249.129171 
L 396.554229 262.166668 
L 397.384475 266.699852 
L 397.800773 265.86027 
L 398.476067 273.40755 
L 398.633458 259.021552 
L 398.841033 285.993268 
L 398.944535 281.687949 
L 398.996655 285.579139 
L 399.152085 276.128538 
L 399.620822 259.366927 
L 399.673158 287.442639 
L 400.142366 273.251588 
L 400.298144 253.621263 
L 400.816664 289.696931 
L 401.076131 273.864673 
L 402.527682 284.639243 
L 402.943831 284.437876 
L 403.411334 269.348305 
L 403.515375 272.079539 
L 403.723299 273.856093 
L 404.034895 283.590859 
L 404.19036 267.286197 
L 404.555062 280.817472 
L 404.711474 267.10331 
L 404.971728 285.961225 
L 405.127894 287.224057 
L 405.179934 277.915243 
L 405.543668 286.296167 
L 405.751655 275.467777 
L 405.960307 276.651621 
L 406.478121 269.778922 
L 406.529744 274.471662 
L 407.153286 291.734437 
L 407.361434 279.627044 
L 407.72578 287.348629 
L 407.93337 295.488 
L 408.505612 261.671187 
L 409.129741 259.229163 
L 409.957632 276.736594 
L 411.044124 287.240746 
L 411.250738 292.383199 
L 412.026209 277.848607 
L 412.285253 263.342364 
L 412.441874 276.419078 
L 412.75245 287.192432 
L 412.95968 253.877459 
L 413.168859 274.88988 
L 413.582952 282.915891 
L 413.893096 277.841094 
L 413.996512 267.37147 
L 414.72 275.998773 
L 414.72 275.998773 
" style="fill:none;stroke:#000000;stroke-linecap:square;stroke-width:0.8;"/>
   </g>
   <g id="patch_3">
    <path d="M 57.6 307.584 
L 57.6 41.472 
" style="fill:none;stroke:#000000;stroke-linecap:square;stroke-linejoin:miter;stroke-width:0.8;"/>
   </g>
   <g id="patch_4">
    <path d="M 414.72 307.584 
L 414.72 41.472 
" style="fill:none;stroke:#000000;stroke-linecap:square;stroke-linejoin:miter;stroke-width:0.8;"/>
   </g>
   <g id="patch_5">
    <path d="M 57.6 307.584 
L 414.72 307.584 
" style="fill:none;stroke:#000000;stroke-linecap:square;stroke-linejoin:miter;stroke-width:0.8;"/>
   </g>
   <g id="patch_6">
    <path d="M 57.6 41.472 
L 414.72 41.472 
" style="fill:none;stroke:#000000;stroke-linecap:square;stroke-linejoin:miter;stroke-width:0.8;"/>
   </g>
  </g>
  <g id="axes_2">
   <g id="matplotlib.axis_3">
    <g id="xtick_8">
     <g id="line2d_26">
      <defs>
       <path d="M 0 0 
L 0 -3.5 
" id="m5e5791129c" style="stroke:#000000;stroke-width:0.8;"/>
      </defs>
      <g>
       <use style="stroke:#000000;stroke-width:0.8;" x="57.6" xlink:href="#m5e5791129c" y="41.472"/>
      </g>
     </g>
    </g>
    <g id="xtick_9">
     <g id="line2d_27">
      <g>
       <use style="stroke:#000000;stroke-width:0.8;" x="98.12288" xlink:href="#m5e5791129c" y="41.472"/>
      </g>
     </g>
     <g id="text_15">
      <!-- 1,000K -->
      <defs>
       <path d="M 11.71875 12.40625 
L 22.015625 12.40625 
L 22.015625 4 
L 14.015625 -11.625 
L 7.71875 -11.625 
L 11.71875 4 
z
" id="DejaVuSans-44"/>
       <path d="M 9.8125 72.90625 
L 19.671875 72.90625 
L 19.671875 42.09375 
L 52.390625 72.90625 
L 65.09375 72.90625 
L 28.90625 38.921875 
L 67.671875 0 
L 54.6875 0 
L 19.671875 35.109375 
L 19.671875 0 
L 9.8125 0 
z
" id="DejaVuSans-75"/>
      </defs>
      <g transform="translate(80.529912 32.392313)scale(0.1 -0.1)">
       <use xlink:href="#DejaVuSans-49"/>
       <use x="63.623047" xlink:href="#DejaVuSans-44"/>
       <use x="95.410156" xlink:href="#DejaVuSans-48"/>
       <use x="159.033203" xlink:href="#DejaVuSans-48"/>
       <use x="222.65625" xlink:href="#DejaVuSans-48"/>
       <use x="286.279297" xlink:href="#DejaVuSans-75"/>
      </g>
     </g>
    </g>
    <g id="xtick_10">
     <g id="line2d_28">
      <g>
       <use style="stroke:#000000;stroke-width:0.8;" x="138.645761" xlink:href="#m5e5791129c" y="41.472"/>
      </g>
     </g>
     <g id="text_16">
      <!-- 2.00M -->
      <defs>
       <path d="M 9.8125 72.90625 
L 24.515625 72.90625 
L 43.109375 23.296875 
L 61.8125 72.90625 
L 76.515625 72.90625 
L 76.515625 0 
L 66.890625 0 
L 66.890625 64.015625 
L 48.09375 14.015625 
L 38.1875 14.015625 
L 19.390625 64.015625 
L 19.390625 0 
L 9.8125 0 
z
" id="DejaVuSans-77"/>
      </defs>
      <g transform="translate(123.198886 32.392313)scale(0.1 -0.1)">
       <use xlink:href="#DejaVuSans-50"/>
       <use x="63.623047" xlink:href="#DejaVuSans-46"/>
       <use x="95.410156" xlink:href="#DejaVuSans-48"/>
       <use x="159.033203" xlink:href="#DejaVuSans-48"/>
       <use x="222.65625" xlink:href="#DejaVuSans-77"/>
      </g>
     </g>
    </g>
    <g id="xtick_11">
     <g id="line2d_29">
      <g>
       <use style="stroke:#000000;stroke-width:0.8;" x="179.168641" xlink:href="#m5e5791129c" y="41.472"/>
      </g>
     </g>
     <g id="text_17">
      <!-- 3.00M -->
      <g transform="translate(163.721766 32.392313)scale(0.1 -0.1)">
       <use xlink:href="#DejaVuSans-51"/>
       <use x="63.623047" xlink:href="#DejaVuSans-46"/>
       <use x="95.410156" xlink:href="#DejaVuSans-48"/>
       <use x="159.033203" xlink:href="#DejaVuSans-48"/>
       <use x="222.65625" xlink:href="#DejaVuSans-77"/>
      </g>
     </g>
    </g>
    <g id="xtick_12">
     <g id="line2d_30">
      <g>
       <use style="stroke:#000000;stroke-width:0.8;" x="219.691522" xlink:href="#m5e5791129c" y="41.472"/>
      </g>
     </g>
     <g id="text_18">
      <!-- 4.00M -->
      <g transform="translate(204.244647 32.392313)scale(0.1 -0.1)">
       <use xlink:href="#DejaVuSans-52"/>
       <use x="63.623047" xlink:href="#DejaVuSans-46"/>
       <use x="95.410156" xlink:href="#DejaVuSans-48"/>
       <use x="159.033203" xlink:href="#DejaVuSans-48"/>
       <use x="222.65625" xlink:href="#DejaVuSans-77"/>
      </g>
     </g>
    </g>
    <g id="xtick_13">
     <g id="line2d_31">
      <g>
       <use style="stroke:#000000;stroke-width:0.8;" x="260.214402" xlink:href="#m5e5791129c" y="41.472"/>
      </g>
     </g>
     <g id="text_19">
      <!-- 5.00M -->
      <g transform="translate(244.767527 32.392313)scale(0.1 -0.1)">
       <use xlink:href="#DejaVuSans-53"/>
       <use x="63.623047" xlink:href="#DejaVuSans-46"/>
       <use x="95.410156" xlink:href="#DejaVuSans-48"/>
       <use x="159.033203" xlink:href="#DejaVuSans-48"/>
       <use x="222.65625" xlink:href="#DejaVuSans-77"/>
      </g>
     </g>
    </g>
    <g id="xtick_14">
     <g id="line2d_32">
      <g>
       <use style="stroke:#000000;stroke-width:0.8;" x="300.737282" xlink:href="#m5e5791129c" y="41.472"/>
      </g>
     </g>
     <g id="text_20">
      <!-- 6.00M -->
      <g transform="translate(285.290407 32.392313)scale(0.1 -0.1)">
       <use xlink:href="#DejaVuSans-54"/>
       <use x="63.623047" xlink:href="#DejaVuSans-46"/>
       <use x="95.410156" xlink:href="#DejaVuSans-48"/>
       <use x="159.033203" xlink:href="#DejaVuSans-48"/>
       <use x="222.65625" xlink:href="#DejaVuSans-77"/>
      </g>
     </g>
    </g>
    <g id="xtick_15">
     <g id="line2d_33">
      <g>
       <use style="stroke:#000000;stroke-width:0.8;" x="341.260163" xlink:href="#m5e5791129c" y="41.472"/>
      </g>
     </g>
     <g id="text_21">
      <!-- 7.00M -->
      <defs>
       <path d="M 8.203125 72.90625 
L 55.078125 72.90625 
L 55.078125 68.703125 
L 28.609375 0 
L 18.3125 0 
L 43.21875 64.59375 
L 8.203125 64.59375 
z
" id="DejaVuSans-55"/>
      </defs>
      <g transform="translate(325.813288 32.392313)scale(0.1 -0.1)">
       <use xlink:href="#DejaVuSans-55"/>
       <use x="63.623047" xlink:href="#DejaVuSans-46"/>
       <use x="95.410156" xlink:href="#DejaVuSans-48"/>
       <use x="159.033203" xlink:href="#DejaVuSans-48"/>
       <use x="222.65625" xlink:href="#DejaVuSans-77"/>
      </g>
     </g>
    </g>
    <g id="xtick_16">
     <g id="line2d_34">
      <g>
       <use style="stroke:#000000;stroke-width:0.8;" x="381.783043" xlink:href="#m5e5791129c" y="41.472"/>
      </g>
     </g>
     <g id="text_22">
      <!-- 8.00M -->
      <g transform="translate(366.336168 32.392313)scale(0.1 -0.1)">
       <use xlink:href="#DejaVuSans-56"/>
       <use x="63.623047" xlink:href="#DejaVuSans-46"/>
       <use x="95.410156" xlink:href="#DejaVuSans-48"/>
       <use x="159.033203" xlink:href="#DejaVuSans-48"/>
       <use x="222.65625" xlink:href="#DejaVuSans-77"/>
      </g>
     </g>
    </g>
    <g id="text_23">
     <!-- Steps -->
     <defs>
      <path d="M 53.515625 70.515625 
L 53.515625 60.890625 
Q 47.90625 63.578125 42.921875 64.890625 
Q 37.9375 66.21875 33.296875 66.21875 
Q 25.25 66.21875 20.875 63.09375 
Q 16.5 59.96875 16.5 54.203125 
Q 16.5 49.359375 19.40625 46.890625 
Q 22.3125 44.4375 30.421875 42.921875 
L 36.375 41.703125 
Q 47.40625 39.59375 52.65625 34.296875 
Q 57.90625 29 57.90625 20.125 
Q 57.90625 9.515625 50.796875 4.046875 
Q 43.703125 -1.421875 29.984375 -1.421875 
Q 24.8125 -1.421875 18.96875 -0.25 
Q 13.140625 0.921875 6.890625 3.21875 
L 6.890625 13.375 
Q 12.890625 10.015625 18.65625 8.296875 
Q 24.421875 6.59375 29.984375 6.59375 
Q 38.421875 6.59375 43.015625 9.90625 
Q 47.609375 13.234375 47.609375 19.390625 
Q 47.609375 24.75 44.3125 27.78125 
Q 41.015625 30.8125 33.5 32.328125 
L 27.484375 33.5 
Q 16.453125 35.6875 11.515625 40.375 
Q 6.59375 45.0625 6.59375 53.421875 
Q 6.59375 63.09375 13.40625 68.65625 
Q 20.21875 74.21875 32.171875 74.21875 
Q 37.3125 74.21875 42.625 73.28125 
Q 47.953125 72.359375 53.515625 70.515625 
z
" id="DejaVuSans-83"/>
      <path d="M 18.3125 70.21875 
L 18.3125 54.6875 
L 36.8125 54.6875 
L 36.8125 47.703125 
L 18.3125 47.703125 
L 18.3125 18.015625 
Q 18.3125 11.328125 20.140625 9.421875 
Q 21.96875 7.515625 27.59375 7.515625 
L 36.8125 7.515625 
L 36.8125 0 
L 27.59375 0 
Q 17.1875 0 13.234375 3.875 
Q 9.28125 7.765625 9.28125 18.015625 
L 9.28125 47.703125 
L 2.6875 47.703125 
L 2.6875 54.6875 
L 9.28125 54.6875 
L 9.28125 70.21875 
z
" id="DejaVuSans-116"/>
      <path d="M 18.109375 8.203125 
L 18.109375 -20.796875 
L 9.078125 -20.796875 
L 9.078125 54.6875 
L 18.109375 54.6875 
L 18.109375 46.390625 
Q 20.953125 51.265625 25.265625 53.625 
Q 29.59375 56 35.59375 56 
Q 45.5625 56 51.78125 48.09375 
Q 58.015625 40.1875 58.015625 27.296875 
Q 58.015625 14.40625 51.78125 6.484375 
Q 45.5625 -1.421875 35.59375 -1.421875 
Q 29.59375 -1.421875 25.265625 0.953125 
Q 20.953125 3.328125 18.109375 8.203125 
z
M 48.6875 27.296875 
Q 48.6875 37.203125 44.609375 42.84375 
Q 40.53125 48.484375 33.40625 48.484375 
Q 26.265625 48.484375 22.1875 42.84375 
Q 18.109375 37.203125 18.109375 27.296875 
Q 18.109375 17.390625 22.1875 11.75 
Q 26.265625 6.109375 33.40625 6.109375 
Q 40.53125 6.109375 44.609375 11.75 
Q 48.6875 17.390625 48.6875 27.296875 
z
" id="DejaVuSans-112"/>
     </defs>
     <g transform="translate(222.170156 20.793875)scale(0.1 -0.1)">
      <use xlink:href="#DejaVuSans-83"/>
      <use x="63.476562" xlink:href="#DejaVuSans-116"/>
      <use x="102.685547" xlink:href="#DejaVuSans-101"/>
      <use x="164.208984" xlink:href="#DejaVuSans-112"/>
      <use x="227.685547" xlink:href="#DejaVuSans-115"/>
     </g>
    </g>
   </g>
   <g id="patch_7">
    <path d="M 57.6 307.584 
L 57.6 41.472 
" style="fill:none;stroke:#000000;stroke-linecap:square;stroke-linejoin:miter;stroke-width:0.8;"/>
   </g>
   <g id="patch_8">
    <path d="M 414.72 307.584 
L 414.72 41.472 
" style="fill:none;stroke:#000000;stroke-linecap:square;stroke-linejoin:miter;stroke-width:0.8;"/>
   </g>
   <g id="patch_9">
    <path d="M 57.6 307.584 
L 414.72 307.584 
" style="fill:none;stroke:#000000;stroke-linecap:square;stroke-linejoin:miter;stroke-width:0.8;"/>
   </g>
   <g id="patch_10">
    <path d="M 57.6 41.472 
L 414.72 41.472 
" style="fill:none;stroke:#000000;stroke-linecap:square;stroke-linejoin:miter;stroke-width:0.8;"/>
   </g>
  </g>
 </g>
 <defs>
  <clipPath id="pb91a002943">
   <rect height="266.112" width="357.12" x="57.6" y="41.472"/>
  </clipPath>
 </defs>
</svg>
