<?xml version="1.0" encoding="utf-8" standalone="no"?>
<!DOCTYPE svg PUBLIC "-//W3C//DTD SVG 1.1//EN"
  "http://www.w3.org/Graphics/SVG/1.1/DTD/svg11.dtd">
<!-- Created with matplotlib (https://matplotlib.org/) -->
<svg height="345.6pt" version="1.1" viewBox="0 0 460.8 345.6" width="460.8pt" xmlns="http://www.w3.org/2000/svg" xmlns:xlink="http://www.w3.org/1999/xlink">
 <defs>
  <style type="text/css">
*{stroke-linecap:butt;stroke-linejoin:round;}
  </style>
 </defs>
 <g id="figure_1">
  <g id="patch_1">
   <path d="M 0 345.6 
L 460.8 345.6 
L 460.8 0 
L 0 0 
z
" style="fill:#ffffff;"/>
  </g>
  <g id="axes_1">
   <g id="patch_2">
    <path d="M 57.6 307.584 
L 414.72 307.584 
L 414.72 41.472 
L 57.6 41.472 
z
" style="fill:#ffffff;"/>
   </g>
   <g id="matplotlib.axis_1">
    <g id="xtick_1">
     <g id="line2d_1">
      <path clip-path="url(#pd859004a54)" d="M 57.6 307.584 
L 57.6 41.472 
" style="fill:none;stroke:#b0b0b0;stroke-linecap:square;stroke-width:0.8;"/>
     </g>
     <g id="line2d_2">
      <defs>
       <path d="M 0 0 
L 0 3.5 
" id="m27ee1fad91" style="stroke:#000000;stroke-width:0.8;"/>
      </defs>
      <g>
       <use style="stroke:#000000;stroke-width:0.8;" x="57.6" xlink:href="#m27ee1fad91" y="307.584"/>
      </g>
     </g>
     <g id="text_1">
      <!-- 0.0 -->
      <defs>
       <path d="M 31.78125 66.40625 
Q 24.171875 66.40625 20.328125 58.90625 
Q 16.5 51.421875 16.5 36.375 
Q 16.5 21.390625 20.328125 13.890625 
Q 24.171875 6.390625 31.78125 6.390625 
Q 39.453125 6.390625 43.28125 13.890625 
Q 47.125 21.390625 47.125 36.375 
Q 47.125 51.421875 43.28125 58.90625 
Q 39.453125 66.40625 31.78125 66.40625 
z
M 31.78125 74.21875 
Q 44.046875 74.21875 50.515625 64.515625 
Q 56.984375 54.828125 56.984375 36.375 
Q 56.984375 17.96875 50.515625 8.265625 
Q 44.046875 -1.421875 31.78125 -1.421875 
Q 19.53125 -1.421875 13.0625 8.265625 
Q 6.59375 17.96875 6.59375 36.375 
Q 6.59375 54.828125 13.0625 64.515625 
Q 19.53125 74.21875 31.78125 74.21875 
z
" id="DejaVuSans-48"/>
       <path d="M 10.6875 12.40625 
L 21 12.40625 
L 21 0 
L 10.6875 0 
z
" id="DejaVuSans-46"/>
      </defs>
      <g transform="translate(49.648438 322.182437)scale(0.1 -0.1)">
       <use xlink:href="#DejaVuSans-48"/>
       <use x="63.623047" xlink:href="#DejaVuSans-46"/>
       <use x="95.410156" xlink:href="#DejaVuSans-48"/>
      </g>
     </g>
    </g>
    <g id="xtick_2">
     <g id="line2d_3">
      <path clip-path="url(#pd859004a54)" d="M 115.28408 307.584 
L 115.28408 41.472 
" style="fill:none;stroke:#b0b0b0;stroke-linecap:square;stroke-width:0.8;"/>
     </g>
     <g id="line2d_4">
      <g>
       <use style="stroke:#000000;stroke-width:0.8;" x="115.28408" xlink:href="#m27ee1fad91" y="307.584"/>
      </g>
     </g>
     <g id="text_2">
      <!-- 0.5 -->
      <defs>
       <path d="M 10.796875 72.90625 
L 49.515625 72.90625 
L 49.515625 64.59375 
L 19.828125 64.59375 
L 19.828125 46.734375 
Q 21.96875 47.46875 24.109375 47.828125 
Q 26.265625 48.1875 28.421875 48.1875 
Q 40.625 48.1875 47.75 41.5 
Q 54.890625 34.8125 54.890625 23.390625 
Q 54.890625 11.625 47.5625 5.09375 
Q 40.234375 -1.421875 26.90625 -1.421875 
Q 22.3125 -1.421875 17.546875 -0.640625 
Q 12.796875 0.140625 7.71875 1.703125 
L 7.71875 11.625 
Q 12.109375 9.234375 16.796875 8.0625 
Q 21.484375 6.890625 26.703125 6.890625 
Q 35.15625 6.890625 40.078125 11.328125 
Q 45.015625 15.765625 45.015625 23.390625 
Q 45.015625 31 40.078125 35.4375 
Q 35.15625 39.890625 26.703125 39.890625 
Q 22.75 39.890625 18.8125 39.015625 
Q 14.890625 38.140625 10.796875 36.28125 
z
" id="DejaVuSans-53"/>
      </defs>
      <g transform="translate(107.332517 322.182437)scale(0.1 -0.1)">
       <use xlink:href="#DejaVuSans-48"/>
       <use x="63.623047" xlink:href="#DejaVuSans-46"/>
       <use x="95.410156" xlink:href="#DejaVuSans-53"/>
      </g>
     </g>
    </g>
    <g id="xtick_3">
     <g id="line2d_5">
      <path clip-path="url(#pd859004a54)" d="M 172.96816 307.584 
L 172.96816 41.472 
" style="fill:none;stroke:#b0b0b0;stroke-linecap:square;stroke-width:0.8;"/>
     </g>
     <g id="line2d_6">
      <g>
       <use style="stroke:#000000;stroke-width:0.8;" x="172.96816" xlink:href="#m27ee1fad91" y="307.584"/>
      </g>
     </g>
     <g id="text_3">
      <!-- 1.0 -->
      <defs>
       <path d="M 12.40625 8.296875 
L 28.515625 8.296875 
L 28.515625 63.921875 
L 10.984375 60.40625 
L 10.984375 69.390625 
L 28.421875 72.90625 
L 38.28125 72.90625 
L 38.28125 8.296875 
L 54.390625 8.296875 
L 54.390625 0 
L 12.40625 0 
z
" id="DejaVuSans-49"/>
      </defs>
      <g transform="translate(165.016597 322.182437)scale(0.1 -0.1)">
       <use xlink:href="#DejaVuSans-49"/>
       <use x="63.623047" xlink:href="#DejaVuSans-46"/>
       <use x="95.410156" xlink:href="#DejaVuSans-48"/>
      </g>
     </g>
    </g>
    <g id="xtick_4">
     <g id="line2d_7">
      <path clip-path="url(#pd859004a54)" d="M 230.65224 307.584 
L 230.65224 41.472 
" style="fill:none;stroke:#b0b0b0;stroke-linecap:square;stroke-width:0.8;"/>
     </g>
     <g id="line2d_8">
      <g>
       <use style="stroke:#000000;stroke-width:0.8;" x="230.65224" xlink:href="#m27ee1fad91" y="307.584"/>
      </g>
     </g>
     <g id="text_4">
      <!-- 1.5 -->
      <g transform="translate(222.700677 322.182437)scale(0.1 -0.1)">
       <use xlink:href="#DejaVuSans-49"/>
       <use x="63.623047" xlink:href="#DejaVuSans-46"/>
       <use x="95.410156" xlink:href="#DejaVuSans-53"/>
      </g>
     </g>
    </g>
    <g id="xtick_5">
     <g id="line2d_9">
      <path clip-path="url(#pd859004a54)" d="M 288.33632 307.584 
L 288.33632 41.472 
" style="fill:none;stroke:#b0b0b0;stroke-linecap:square;stroke-width:0.8;"/>
     </g>
     <g id="line2d_10">
      <g>
       <use style="stroke:#000000;stroke-width:0.8;" x="288.33632" xlink:href="#m27ee1fad91" y="307.584"/>
      </g>
     </g>
     <g id="text_5">
      <!-- 2.0 -->
      <defs>
       <path d="M 19.1875 8.296875 
L 53.609375 8.296875 
L 53.609375 0 
L 7.328125 0 
L 7.328125 8.296875 
Q 12.9375 14.109375 22.625 23.890625 
Q 32.328125 33.6875 34.8125 36.53125 
Q 39.546875 41.84375 41.421875 45.53125 
Q 43.3125 49.21875 43.3125 52.78125 
Q 43.3125 58.59375 39.234375 62.25 
Q 35.15625 65.921875 28.609375 65.921875 
Q 23.96875 65.921875 18.8125 64.3125 
Q 13.671875 62.703125 7.8125 59.421875 
L 7.8125 69.390625 
Q 13.765625 71.78125 18.9375 73 
Q 24.125 74.21875 28.421875 74.21875 
Q 39.75 74.21875 46.484375 68.546875 
Q 53.21875 62.890625 53.21875 53.421875 
Q 53.21875 48.921875 51.53125 44.890625 
Q 49.859375 40.875 45.40625 35.40625 
Q 44.1875 33.984375 37.640625 27.21875 
Q 31.109375 20.453125 19.1875 8.296875 
z
" id="DejaVuSans-50"/>
      </defs>
      <g transform="translate(280.384757 322.182437)scale(0.1 -0.1)">
       <use xlink:href="#DejaVuSans-50"/>
       <use x="63.623047" xlink:href="#DejaVuSans-46"/>
       <use x="95.410156" xlink:href="#DejaVuSans-48"/>
      </g>
     </g>
    </g>
    <g id="xtick_6">
     <g id="line2d_11">
      <path clip-path="url(#pd859004a54)" d="M 346.0204 307.584 
L 346.0204 41.472 
" style="fill:none;stroke:#b0b0b0;stroke-linecap:square;stroke-width:0.8;"/>
     </g>
     <g id="line2d_12">
      <g>
       <use style="stroke:#000000;stroke-width:0.8;" x="346.0204" xlink:href="#m27ee1fad91" y="307.584"/>
      </g>
     </g>
     <g id="text_6">
      <!-- 2.5 -->
      <g transform="translate(338.068837 322.182437)scale(0.1 -0.1)">
       <use xlink:href="#DejaVuSans-50"/>
       <use x="63.623047" xlink:href="#DejaVuSans-46"/>
       <use x="95.410156" xlink:href="#DejaVuSans-53"/>
      </g>
     </g>
    </g>
    <g id="xtick_7">
     <g id="line2d_13">
      <path clip-path="url(#pd859004a54)" d="M 403.70448 307.584 
L 403.70448 41.472 
" style="fill:none;stroke:#b0b0b0;stroke-linecap:square;stroke-width:0.8;"/>
     </g>
     <g id="line2d_14">
      <g>
       <use style="stroke:#000000;stroke-width:0.8;" x="403.70448" xlink:href="#m27ee1fad91" y="307.584"/>
      </g>
     </g>
     <g id="text_7">
      <!-- 3.0 -->
      <defs>
       <path d="M 40.578125 39.3125 
Q 47.65625 37.796875 51.625 33 
Q 55.609375 28.21875 55.609375 21.1875 
Q 55.609375 10.40625 48.1875 4.484375 
Q 40.765625 -1.421875 27.09375 -1.421875 
Q 22.515625 -1.421875 17.65625 -0.515625 
Q 12.796875 0.390625 7.625 2.203125 
L 7.625 11.71875 
Q 11.71875 9.328125 16.59375 8.109375 
Q 21.484375 6.890625 26.8125 6.890625 
Q 36.078125 6.890625 40.9375 10.546875 
Q 45.796875 14.203125 45.796875 21.1875 
Q 45.796875 27.640625 41.28125 31.265625 
Q 36.765625 34.90625 28.71875 34.90625 
L 20.21875 34.90625 
L 20.21875 43.015625 
L 29.109375 43.015625 
Q 36.375 43.015625 40.234375 45.921875 
Q 44.09375 48.828125 44.09375 54.296875 
Q 44.09375 59.90625 40.109375 62.90625 
Q 36.140625 65.921875 28.71875 65.921875 
Q 24.65625 65.921875 20.015625 65.03125 
Q 15.375 64.15625 9.8125 62.3125 
L 9.8125 71.09375 
Q 15.4375 72.65625 20.34375 73.4375 
Q 25.25 74.21875 29.59375 74.21875 
Q 40.828125 74.21875 47.359375 69.109375 
Q 53.90625 64.015625 53.90625 55.328125 
Q 53.90625 49.265625 50.4375 45.09375 
Q 46.96875 40.921875 40.578125 39.3125 
z
" id="DejaVuSans-51"/>
      </defs>
      <g transform="translate(395.752917 322.182437)scale(0.1 -0.1)">
       <use xlink:href="#DejaVuSans-51"/>
       <use x="63.623047" xlink:href="#DejaVuSans-46"/>
       <use x="95.410156" xlink:href="#DejaVuSans-48"/>
      </g>
     </g>
    </g>
    <g id="text_8">
     <!-- Hours -->
     <defs>
      <path d="M 9.8125 72.90625 
L 19.671875 72.90625 
L 19.671875 43.015625 
L 55.515625 43.015625 
L 55.515625 72.90625 
L 65.375 72.90625 
L 65.375 0 
L 55.515625 0 
L 55.515625 34.71875 
L 19.671875 34.71875 
L 19.671875 0 
L 9.8125 0 
z
" id="DejaVuSans-72"/>
      <path d="M 30.609375 48.390625 
Q 23.390625 48.390625 19.1875 42.75 
Q 14.984375 37.109375 14.984375 27.296875 
Q 14.984375 17.484375 19.15625 11.84375 
Q 23.34375 6.203125 30.609375 6.203125 
Q 37.796875 6.203125 41.984375 11.859375 
Q 46.1875 17.53125 46.1875 27.296875 
Q 46.1875 37.015625 41.984375 42.703125 
Q 37.796875 48.390625 30.609375 48.390625 
z
M 30.609375 56 
Q 42.328125 56 49.015625 48.375 
Q 55.71875 40.765625 55.71875 27.296875 
Q 55.71875 13.875 49.015625 6.21875 
Q 42.328125 -1.421875 30.609375 -1.421875 
Q 18.84375 -1.421875 12.171875 6.21875 
Q 5.515625 13.875 5.515625 27.296875 
Q 5.515625 40.765625 12.171875 48.375 
Q 18.84375 56 30.609375 56 
z
" id="DejaVuSans-111"/>
      <path d="M 8.5 21.578125 
L 8.5 54.6875 
L 17.484375 54.6875 
L 17.484375 21.921875 
Q 17.484375 14.15625 20.5 10.265625 
Q 23.53125 6.390625 29.59375 6.390625 
Q 36.859375 6.390625 41.078125 11.03125 
Q 45.3125 15.671875 45.3125 23.6875 
L 45.3125 54.6875 
L 54.296875 54.6875 
L 54.296875 0 
L 45.3125 0 
L 45.3125 8.40625 
Q 42.046875 3.421875 37.71875 1 
Q 33.40625 -1.421875 27.6875 -1.421875 
Q 18.265625 -1.421875 13.375 4.4375 
Q 8.5 10.296875 8.5 21.578125 
z
M 31.109375 56 
z
" id="DejaVuSans-117"/>
      <path d="M 41.109375 46.296875 
Q 39.59375 47.171875 37.8125 47.578125 
Q 36.03125 48 33.890625 48 
Q 26.265625 48 22.1875 43.046875 
Q 18.109375 38.09375 18.109375 28.8125 
L 18.109375 0 
L 9.078125 0 
L 9.078125 54.6875 
L 18.109375 54.6875 
L 18.109375 46.1875 
Q 20.953125 51.171875 25.484375 53.578125 
Q 30.03125 56 36.53125 56 
Q 37.453125 56 38.578125 55.875 
Q 39.703125 55.765625 41.0625 55.515625 
z
" id="DejaVuSans-114"/>
      <path d="M 44.28125 53.078125 
L 44.28125 44.578125 
Q 40.484375 46.53125 36.375 47.5 
Q 32.28125 48.484375 27.875 48.484375 
Q 21.1875 48.484375 17.84375 46.4375 
Q 14.5 44.390625 14.5 40.28125 
Q 14.5 37.15625 16.890625 35.375 
Q 19.28125 33.59375 26.515625 31.984375 
L 29.59375 31.296875 
Q 39.15625 29.25 43.1875 25.515625 
Q 47.21875 21.78125 47.21875 15.09375 
Q 47.21875 7.46875 41.1875 3.015625 
Q 35.15625 -1.421875 24.609375 -1.421875 
Q 20.21875 -1.421875 15.453125 -0.5625 
Q 10.6875 0.296875 5.421875 2 
L 5.421875 11.28125 
Q 10.40625 8.6875 15.234375 7.390625 
Q 20.0625 6.109375 24.8125 6.109375 
Q 31.15625 6.109375 34.5625 8.28125 
Q 37.984375 10.453125 37.984375 14.40625 
Q 37.984375 18.0625 35.515625 20.015625 
Q 33.0625 21.96875 24.703125 23.78125 
L 21.578125 24.515625 
Q 13.234375 26.265625 9.515625 29.90625 
Q 5.8125 33.546875 5.8125 39.890625 
Q 5.8125 47.609375 11.28125 51.796875 
Q 16.75 56 26.8125 56 
Q 31.78125 56 36.171875 55.265625 
Q 40.578125 54.546875 44.28125 53.078125 
z
" id="DejaVuSans-115"/>
     </defs>
     <g transform="translate(221.511562 335.860562)scale(0.1 -0.1)">
      <use xlink:href="#DejaVuSans-72"/>
      <use x="75.195312" xlink:href="#DejaVuSans-111"/>
      <use x="136.376953" xlink:href="#DejaVuSans-117"/>
      <use x="199.755859" xlink:href="#DejaVuSans-114"/>
      <use x="240.869141" xlink:href="#DejaVuSans-115"/>
     </g>
    </g>
   </g>
   <g id="matplotlib.axis_2">
    <g id="ytick_1">
     <g id="line2d_15">
      <path clip-path="url(#pd859004a54)" d="M 57.6 278.440137 
L 414.72 278.440137 
" style="fill:none;stroke:#b0b0b0;stroke-linecap:square;stroke-width:0.8;"/>
     </g>
     <g id="line2d_16">
      <defs>
       <path d="M 0 0 
L -3.5 0 
" id="m23c1c62984" style="stroke:#000000;stroke-width:0.8;"/>
      </defs>
      <g>
       <use style="stroke:#000000;stroke-width:0.8;" x="57.6" xlink:href="#m23c1c62984" y="278.440137"/>
      </g>
     </g>
     <g id="text_9">
      <!-- 0.000025 -->
      <g transform="translate(2.884375 282.239356)scale(0.1 -0.1)">
       <use xlink:href="#DejaVuSans-48"/>
       <use x="63.623047" xlink:href="#DejaVuSans-46"/>
       <use x="95.410156" xlink:href="#DejaVuSans-48"/>
       <use x="159.033203" xlink:href="#DejaVuSans-48"/>
       <use x="222.65625" xlink:href="#DejaVuSans-48"/>
       <use x="286.279297" xlink:href="#DejaVuSans-48"/>
       <use x="349.902344" xlink:href="#DejaVuSans-50"/>
       <use x="413.525391" xlink:href="#DejaVuSans-53"/>
      </g>
     </g>
    </g>
    <g id="ytick_2">
     <g id="line2d_17">
      <path clip-path="url(#pd859004a54)" d="M 57.6 242.955242 
L 414.72 242.955242 
" style="fill:none;stroke:#b0b0b0;stroke-linecap:square;stroke-width:0.8;"/>
     </g>
     <g id="line2d_18">
      <g>
       <use style="stroke:#000000;stroke-width:0.8;" x="57.6" xlink:href="#m23c1c62984" y="242.955242"/>
      </g>
     </g>
     <g id="text_10">
      <!-- 0.000050 -->
      <g transform="translate(2.884375 246.754461)scale(0.1 -0.1)">
       <use xlink:href="#DejaVuSans-48"/>
       <use x="63.623047" xlink:href="#DejaVuSans-46"/>
       <use x="95.410156" xlink:href="#DejaVuSans-48"/>
       <use x="159.033203" xlink:href="#DejaVuSans-48"/>
       <use x="222.65625" xlink:href="#DejaVuSans-48"/>
       <use x="286.279297" xlink:href="#DejaVuSans-48"/>
       <use x="349.902344" xlink:href="#DejaVuSans-53"/>
       <use x="413.525391" xlink:href="#DejaVuSans-48"/>
      </g>
     </g>
    </g>
    <g id="ytick_3">
     <g id="line2d_19">
      <path clip-path="url(#pd859004a54)" d="M 57.6 207.470347 
L 414.72 207.470347 
" style="fill:none;stroke:#b0b0b0;stroke-linecap:square;stroke-width:0.8;"/>
     </g>
     <g id="line2d_20">
      <g>
       <use style="stroke:#000000;stroke-width:0.8;" x="57.6" xlink:href="#m23c1c62984" y="207.470347"/>
      </g>
     </g>
     <g id="text_11">
      <!-- 0.000075 -->
      <defs>
       <path d="M 8.203125 72.90625 
L 55.078125 72.90625 
L 55.078125 68.703125 
L 28.609375 0 
L 18.3125 0 
L 43.21875 64.59375 
L 8.203125 64.59375 
z
" id="DejaVuSans-55"/>
      </defs>
      <g transform="translate(2.884375 211.269566)scale(0.1 -0.1)">
       <use xlink:href="#DejaVuSans-48"/>
       <use x="63.623047" xlink:href="#DejaVuSans-46"/>
       <use x="95.410156" xlink:href="#DejaVuSans-48"/>
       <use x="159.033203" xlink:href="#DejaVuSans-48"/>
       <use x="222.65625" xlink:href="#DejaVuSans-48"/>
       <use x="286.279297" xlink:href="#DejaVuSans-48"/>
       <use x="349.902344" xlink:href="#DejaVuSans-55"/>
       <use x="413.525391" xlink:href="#DejaVuSans-53"/>
      </g>
     </g>
    </g>
    <g id="ytick_4">
     <g id="line2d_21">
      <path clip-path="url(#pd859004a54)" d="M 57.6 171.985452 
L 414.72 171.985452 
" style="fill:none;stroke:#b0b0b0;stroke-linecap:square;stroke-width:0.8;"/>
     </g>
     <g id="line2d_22">
      <g>
       <use style="stroke:#000000;stroke-width:0.8;" x="57.6" xlink:href="#m23c1c62984" y="171.985452"/>
      </g>
     </g>
     <g id="text_12">
      <!-- 0.000100 -->
      <g transform="translate(2.884375 175.784671)scale(0.1 -0.1)">
       <use xlink:href="#DejaVuSans-48"/>
       <use x="63.623047" xlink:href="#DejaVuSans-46"/>
       <use x="95.410156" xlink:href="#DejaVuSans-48"/>
       <use x="159.033203" xlink:href="#DejaVuSans-48"/>
       <use x="222.65625" xlink:href="#DejaVuSans-48"/>
       <use x="286.279297" xlink:href="#DejaVuSans-49"/>
       <use x="349.902344" xlink:href="#DejaVuSans-48"/>
       <use x="413.525391" xlink:href="#DejaVuSans-48"/>
      </g>
     </g>
    </g>
    <g id="ytick_5">
     <g id="line2d_23">
      <path clip-path="url(#pd859004a54)" d="M 57.6 136.500557 
L 414.72 136.500557 
" style="fill:none;stroke:#b0b0b0;stroke-linecap:square;stroke-width:0.8;"/>
     </g>
     <g id="line2d_24">
      <g>
       <use style="stroke:#000000;stroke-width:0.8;" x="57.6" xlink:href="#m23c1c62984" y="136.500557"/>
      </g>
     </g>
     <g id="text_13">
      <!-- 0.000125 -->
      <g transform="translate(2.884375 140.299776)scale(0.1 -0.1)">
       <use xlink:href="#DejaVuSans-48"/>
       <use x="63.623047" xlink:href="#DejaVuSans-46"/>
       <use x="95.410156" xlink:href="#DejaVuSans-48"/>
       <use x="159.033203" xlink:href="#DejaVuSans-48"/>
       <use x="222.65625" xlink:href="#DejaVuSans-48"/>
       <use x="286.279297" xlink:href="#DejaVuSans-49"/>
       <use x="349.902344" xlink:href="#DejaVuSans-50"/>
       <use x="413.525391" xlink:href="#DejaVuSans-53"/>
      </g>
     </g>
    </g>
    <g id="ytick_6">
     <g id="line2d_25">
      <path clip-path="url(#pd859004a54)" d="M 57.6 101.015662 
L 414.72 101.015662 
" style="fill:none;stroke:#b0b0b0;stroke-linecap:square;stroke-width:0.8;"/>
     </g>
     <g id="line2d_26">
      <g>
       <use style="stroke:#000000;stroke-width:0.8;" x="57.6" xlink:href="#m23c1c62984" y="101.015662"/>
      </g>
     </g>
     <g id="text_14">
      <!-- 0.000150 -->
      <g transform="translate(2.884375 104.814881)scale(0.1 -0.1)">
       <use xlink:href="#DejaVuSans-48"/>
       <use x="63.623047" xlink:href="#DejaVuSans-46"/>
       <use x="95.410156" xlink:href="#DejaVuSans-48"/>
       <use x="159.033203" xlink:href="#DejaVuSans-48"/>
       <use x="222.65625" xlink:href="#DejaVuSans-48"/>
       <use x="286.279297" xlink:href="#DejaVuSans-49"/>
       <use x="349.902344" xlink:href="#DejaVuSans-53"/>
       <use x="413.525391" xlink:href="#DejaVuSans-48"/>
      </g>
     </g>
    </g>
    <g id="ytick_7">
     <g id="line2d_27">
      <path clip-path="url(#pd859004a54)" d="M 57.6 65.530767 
L 414.72 65.530767 
" style="fill:none;stroke:#b0b0b0;stroke-linecap:square;stroke-width:0.8;"/>
     </g>
     <g id="line2d_28">
      <g>
       <use style="stroke:#000000;stroke-width:0.8;" x="57.6" xlink:href="#m23c1c62984" y="65.530767"/>
      </g>
     </g>
     <g id="text_15">
      <!-- 0.000175 -->
      <g transform="translate(2.884375 69.329986)scale(0.1 -0.1)">
       <use xlink:href="#DejaVuSans-48"/>
       <use x="63.623047" xlink:href="#DejaVuSans-46"/>
       <use x="95.410156" xlink:href="#DejaVuSans-48"/>
       <use x="159.033203" xlink:href="#DejaVuSans-48"/>
       <use x="222.65625" xlink:href="#DejaVuSans-48"/>
       <use x="286.279297" xlink:href="#DejaVuSans-49"/>
       <use x="349.902344" xlink:href="#DejaVuSans-55"/>
       <use x="413.525391" xlink:href="#DejaVuSans-53"/>
      </g>
     </g>
    </g>
    <g id="text_16">
     <!-- Gradient L2 -->
     <defs>
      <path d="M 59.515625 10.40625 
L 59.515625 29.984375 
L 43.40625 29.984375 
L 43.40625 38.09375 
L 69.28125 38.09375 
L 69.28125 6.78125 
Q 63.578125 2.734375 56.6875 0.65625 
Q 49.8125 -1.421875 42 -1.421875 
Q 24.90625 -1.421875 15.25 8.5625 
Q 5.609375 18.5625 5.609375 36.375 
Q 5.609375 54.25 15.25 64.234375 
Q 24.90625 74.21875 42 74.21875 
Q 49.125 74.21875 55.546875 72.453125 
Q 61.96875 70.703125 67.390625 67.28125 
L 67.390625 56.78125 
Q 61.921875 61.421875 55.765625 63.765625 
Q 49.609375 66.109375 42.828125 66.109375 
Q 29.4375 66.109375 22.71875 58.640625 
Q 16.015625 51.171875 16.015625 36.375 
Q 16.015625 21.625 22.71875 14.15625 
Q 29.4375 6.6875 42.828125 6.6875 
Q 48.046875 6.6875 52.140625 7.59375 
Q 56.25 8.5 59.515625 10.40625 
z
" id="DejaVuSans-71"/>
      <path d="M 34.28125 27.484375 
Q 23.390625 27.484375 19.1875 25 
Q 14.984375 22.515625 14.984375 16.5 
Q 14.984375 11.71875 18.140625 8.90625 
Q 21.296875 6.109375 26.703125 6.109375 
Q 34.1875 6.109375 38.703125 11.40625 
Q 43.21875 16.703125 43.21875 25.484375 
L 43.21875 27.484375 
z
M 52.203125 31.203125 
L 52.203125 0 
L 43.21875 0 
L 43.21875 8.296875 
Q 40.140625 3.328125 35.546875 0.953125 
Q 30.953125 -1.421875 24.3125 -1.421875 
Q 15.921875 -1.421875 10.953125 3.296875 
Q 6 8.015625 6 15.921875 
Q 6 25.140625 12.171875 29.828125 
Q 18.359375 34.515625 30.609375 34.515625 
L 43.21875 34.515625 
L 43.21875 35.40625 
Q 43.21875 41.609375 39.140625 45 
Q 35.0625 48.390625 27.6875 48.390625 
Q 23 48.390625 18.546875 47.265625 
Q 14.109375 46.140625 10.015625 43.890625 
L 10.015625 52.203125 
Q 14.9375 54.109375 19.578125 55.046875 
Q 24.21875 56 28.609375 56 
Q 40.484375 56 46.34375 49.84375 
Q 52.203125 43.703125 52.203125 31.203125 
z
" id="DejaVuSans-97"/>
      <path d="M 45.40625 46.390625 
L 45.40625 75.984375 
L 54.390625 75.984375 
L 54.390625 0 
L 45.40625 0 
L 45.40625 8.203125 
Q 42.578125 3.328125 38.25 0.953125 
Q 33.9375 -1.421875 27.875 -1.421875 
Q 17.96875 -1.421875 11.734375 6.484375 
Q 5.515625 14.40625 5.515625 27.296875 
Q 5.515625 40.1875 11.734375 48.09375 
Q 17.96875 56 27.875 56 
Q 33.9375 56 38.25 53.625 
Q 42.578125 51.265625 45.40625 46.390625 
z
M 14.796875 27.296875 
Q 14.796875 17.390625 18.875 11.75 
Q 22.953125 6.109375 30.078125 6.109375 
Q 37.203125 6.109375 41.296875 11.75 
Q 45.40625 17.390625 45.40625 27.296875 
Q 45.40625 37.203125 41.296875 42.84375 
Q 37.203125 48.484375 30.078125 48.484375 
Q 22.953125 48.484375 18.875 42.84375 
Q 14.796875 37.203125 14.796875 27.296875 
z
" id="DejaVuSans-100"/>
      <path d="M 9.421875 54.6875 
L 18.40625 54.6875 
L 18.40625 0 
L 9.421875 0 
z
M 9.421875 75.984375 
L 18.40625 75.984375 
L 18.40625 64.59375 
L 9.421875 64.59375 
z
" id="DejaVuSans-105"/>
      <path d="M 56.203125 29.59375 
L 56.203125 25.203125 
L 14.890625 25.203125 
Q 15.484375 15.921875 20.484375 11.0625 
Q 25.484375 6.203125 34.421875 6.203125 
Q 39.59375 6.203125 44.453125 7.46875 
Q 49.3125 8.734375 54.109375 11.28125 
L 54.109375 2.78125 
Q 49.265625 0.734375 44.1875 -0.34375 
Q 39.109375 -1.421875 33.890625 -1.421875 
Q 20.796875 -1.421875 13.15625 6.1875 
Q 5.515625 13.8125 5.515625 26.8125 
Q 5.515625 40.234375 12.765625 48.109375 
Q 20.015625 56 32.328125 56 
Q 43.359375 56 49.78125 48.890625 
Q 56.203125 41.796875 56.203125 29.59375 
z
M 47.21875 32.234375 
Q 47.125 39.59375 43.09375 43.984375 
Q 39.0625 48.390625 32.421875 48.390625 
Q 24.90625 48.390625 20.390625 44.140625 
Q 15.875 39.890625 15.1875 32.171875 
z
" id="DejaVuSans-101"/>
      <path d="M 54.890625 33.015625 
L 54.890625 0 
L 45.90625 0 
L 45.90625 32.71875 
Q 45.90625 40.484375 42.875 44.328125 
Q 39.84375 48.1875 33.796875 48.1875 
Q 26.515625 48.1875 22.3125 43.546875 
Q 18.109375 38.921875 18.109375 30.90625 
L 18.109375 0 
L 9.078125 0 
L 9.078125 54.6875 
L 18.109375 54.6875 
L 18.109375 46.1875 
Q 21.34375 51.125 25.703125 53.5625 
Q 30.078125 56 35.796875 56 
Q 45.21875 56 50.046875 50.171875 
Q 54.890625 44.34375 54.890625 33.015625 
z
" id="DejaVuSans-110"/>
      <path d="M 18.3125 70.21875 
L 18.3125 54.6875 
L 36.8125 54.6875 
L 36.8125 47.703125 
L 18.3125 47.703125 
L 18.3125 18.015625 
Q 18.3125 11.328125 20.140625 9.421875 
Q 21.96875 7.515625 27.59375 7.515625 
L 36.8125 7.515625 
L 36.8125 0 
L 27.59375 0 
Q 17.1875 0 13.234375 3.875 
Q 9.28125 7.765625 9.28125 18.015625 
L 9.28125 47.703125 
L 2.6875 47.703125 
L 2.6875 54.6875 
L 9.28125 54.6875 
L 9.28125 70.21875 
z
" id="DejaVuSans-116"/>
      <path id="DejaVuSans-32"/>
      <path d="M 9.8125 72.90625 
L 19.671875 72.90625 
L 19.671875 8.296875 
L 55.171875 8.296875 
L 55.171875 0 
L 9.8125 0 
z
" id="DejaVuSans-76"/>
     </defs>
     <g transform="translate(-3.195313 203.84675)rotate(-90)scale(0.1 -0.1)">
      <use xlink:href="#DejaVuSans-71"/>
      <use x="77.490234" xlink:href="#DejaVuSans-114"/>
      <use x="118.603516" xlink:href="#DejaVuSans-97"/>
      <use x="179.882812" xlink:href="#DejaVuSans-100"/>
      <use x="243.359375" xlink:href="#DejaVuSans-105"/>
      <use x="271.142578" xlink:href="#DejaVuSans-101"/>
      <use x="332.666016" xlink:href="#DejaVuSans-110"/>
      <use x="396.044922" xlink:href="#DejaVuSans-116"/>
      <use x="435.253906" xlink:href="#DejaVuSans-32"/>
      <use x="467.041016" xlink:href="#DejaVuSans-76"/>
      <use x="522.753906" xlink:href="#DejaVuSans-50"/>
     </g>
    </g>
   </g>
   <g id="line2d_29">
    <path clip-path="url(#pd859004a54)" d="M 57.6 268.745962 
L 58.578034 203.024472 
L 59.419559 220.589784 
L 59.678069 265.92246 
L 60.091174 263.130425 
L 60.246393 275.860036 
L 61.031164 283.810249 
L 61.187431 278.505462 
L 62.225845 280.68561 
L 62.642136 292.337936 
L 62.853865 294.17036 
L 63.897884 290.871309 
L 64.575838 294.495533 
L 65.150712 295.357772 
L 65.41227 288.120739 
L 65.567755 289.285527 
L 66.034557 286.161025 
L 66.608117 278.49887 
L 66.870688 284.601046 
L 66.974347 281.18973 
L 67.026078 285.162075 
L 67.235305 281.53167 
L 67.651531 283.811222 
L 68.119968 289.938148 
L 68.381326 287.427482 
L 68.95571 292.353823 
L 69.268744 292.140903 
L 69.528086 290.376311 
L 70.309569 289.249476 
L 70.623018 289.089852 
L 70.885092 285.517097 
L 71.456045 295.488 
L 71.560596 289.930299 
L 72.550981 285.772325 
L 72.811852 287.295148 
L 73.125204 287.606062 
L 73.386487 290.364339 
L 73.48972 289.751641 
L 73.907812 284.21184 
L 74.535822 280.137258 
L 75.004822 287.045526 
L 75.41971 286.93734 
L 76.256126 280.951607 
L 76.464665 283.630559 
L 76.984329 288.800379 
L 79.279291 293.865101 
L 79.331421 286.463689 
L 80.220212 285.355764 
L 80.376442 289.278297 
L 80.531612 285.387426 
L 81.471491 290.444988 
L 81.523263 288.097786 
L 82.045336 290.653079 
L 82.92893 283.457971 
L 83.033828 287.998802 
L 84.128813 289.16286 
L 84.285337 284.870378 
L 84.70141 289.359074 
L 85.014026 283.292257 
L 85.118981 291.216267 
L 85.275315 285.892142 
L 85.587918 286.482028 
L 85.848045 287.228996 
L 86.367723 287.054738 
L 86.679662 283.784737 
L 87.202915 285.169663 
L 87.515216 287.325614 
L 87.620078 284.216134 
L 87.880838 282.732816 
L 87.932888 290.760379 
L 88.244338 281.332515 
L 88.712622 286.258599 
L 89.649834 285.571174 
L 89.754265 285.717969 
L 90.382777 289.485206 
L 90.801391 284.980753 
L 90.904676 280.960401 
L 91.061542 282.742596 
L 91.16498 281.792872 
L 91.789589 287.441496 
L 91.944571 286.857873 
L 92.152377 282.053377 
L 92.309626 286.86314 
L 92.464722 287.402151 
L 92.935754 278.900358 
L 93.196001 284.33381 
L 94.549058 283.408523 
L 94.757767 283.694333 
L 94.96675 282.540709 
L 95.018999 287.107191 
L 95.382968 282.982436 
L 95.851055 287.654614 
L 96.060667 280.835782 
L 96.268283 281.134857 
L 96.529123 268.635118 
L 96.738688 281.11703 
L 97.413993 286.485777 
L 97.621073 274.321411 
L 97.673935 278.757672 
L 97.98642 278.553996 
L 98.247655 288.128585 
L 98.611366 274.616147 
L 98.715195 290.383752 
L 98.924733 287.40858 
L 99.133404 282.31336 
L 99.443619 280.423801 
L 99.495689 290.247535 
L 100.695128 273.686262 
L 100.90439 284.651266 
L 102.619179 285.014506 
L 102.878568 288.051524 
L 102.983363 287.891683 
L 103.295737 287.973133 
L 104.022977 283.946042 
L 104.232112 284.971497 
L 104.596114 288.89442 
L 104.700658 279.949461 
L 105.012892 287.329322 
L 105.116619 284.036663 
L 105.84365 282.781197 
L 105.895548 290.296157 
L 106.416784 289.462909 
L 106.573109 286.950051 
L 107.04196 288.880161 
L 107.250421 287.238639 
L 107.45833 290.761257 
L 107.925517 282.481257 
L 107.977459 284.491028 
L 108.291214 288.216275 
L 108.342532 286.808557 
L 108.601385 283.008778 
L 109.223327 286.807299 
L 109.535611 286.403426 
L 109.691173 279.415557 
L 110.158787 283.665605 
L 110.314025 282.405296 
L 110.729536 284.48354 
L 111.354333 284.004511 
L 111.719268 286.410015 
L 112.396042 285.195193 
L 112.709549 287.916812 
L 112.866623 282.433998 
L 112.970612 285.200424 
L 113.17808 283.452937 
L 113.385781 276.309792 
L 113.489994 293.852219 
L 113.751093 285.155391 
L 113.803953 290.706198 
L 114.270327 281.936625 
L 114.583327 279.974239 
L 114.792632 275.675264 
L 114.844471 280.73663 
L 115.366062 288.045513 
L 115.625684 285.350691 
L 116.355009 282.889925 
L 117.501147 280.611908 
L 117.552975 273.722031 
L 117.760926 277.105241 
L 117.813538 268.930777 
L 117.865409 282.944234 
L 118.802945 281.458518 
L 119.428732 272.958005 
L 119.480283 283.330536 
L 119.794135 279.233112 
L 120.159168 277.393359 
L 121.511974 278.374595 
L 121.616102 278.777758 
L 122.138471 276.058336 
L 122.712153 281.958669 
L 122.867572 277.861178 
L 123.024307 281.861196 
L 124.064791 277.629641 
L 124.377481 270.761354 
L 125.575039 280.612254 
L 125.8873 278.861651 
L 126.042769 274.376173 
L 126.46021 266.862491 
L 126.616844 276.045264 
L 126.772377 271.647616 
L 126.929342 274.65062 
L 126.981854 264.878503 
L 127.920508 274.993747 
L 129.481381 262.802512 
L 129.68922 269.943865 
L 129.845321 266.855076 
L 130.988368 269.555124 
L 131.611707 263.982807 
L 131.715297 248.924482 
L 131.922126 251.074257 
L 132.338286 268.698327 
L 133.636039 263.946439 
L 133.689212 256.254126 
L 134.259264 249.336465 
L 134.675097 262.768468 
L 134.883547 255.885172 
L 134.987073 260.5803 
L 135.507176 250.56973 
L 135.8706 258.654171 
L 136.647838 248.675982 
L 136.699634 273.413896 
L 136.856399 248.17177 
L 138.103354 252.931352 
L 138.155911 258.307422 
L 138.988501 261.376408 
L 139.040153 254.693703 
L 139.508054 243.126887 
L 139.8186 256.268822 
L 140.0256 245.63897 
L 140.493864 246.830207 
L 140.856659 261.321848 
L 140.90887 243.632359 
L 141.168745 232.563456 
L 141.583519 245.209383 
L 142.051083 248.72635 
L 142.310015 206.787976 
L 142.568382 246.408578 
L 142.984023 226.981255 
L 143.139653 245.872024 
L 143.34716 189.212925 
L 143.762927 214.846651 
L 144.176734 214.579417 
L 144.5395 203.629218 
L 144.903208 217.21605 
L 145.369697 225.576514 
L 145.57655 243.544152 
L 145.679468 221.059446 
L 145.783376 242.636874 
L 145.939561 209.947684 
L 146.300819 221.990436 
L 146.769626 207.473864 
L 147.288547 206.721746 
L 147.756497 245.544071 
L 148.016694 220.201874 
L 148.172644 220.222746 
L 148.224458 215.137224 
L 148.276122 216.340993 
L 149.259485 231.897747 
L 149.727348 227.934707 
L 150.038424 205.481273 
L 150.403421 210.07719 
L 150.455378 202.444596 
L 150.922185 225.553907 
L 151.285024 221.176384 
L 151.905578 204.835517 
L 152.372478 212.778039 
L 152.579683 201.566451 
L 153.098485 212.363794 
L 153.306985 211.373225 
L 153.567406 195.883682 
L 153.775471 225.835227 
L 154.448988 236.333605 
L 154.603367 201.307769 
L 154.914265 206.579309 
L 154.965981 226.288592 
L 155.017554 224.194895 
L 156.782738 228.77858 
L 157.094204 205.461836 
L 157.974603 225.756759 
L 158.078266 206.589947 
L 158.181916 227.238719 
L 158.49312 217.982895 
L 158.648388 202.301633 
L 158.752225 207.623199 
L 158.907297 190.060077 
L 159.788373 234.466472 
L 160.411351 207.109697 
L 160.46295 221.949147 
L 160.514863 203.608687 
L 161.448509 191.182104 
L 161.654731 203.752497 
L 162.069348 193.545265 
L 162.276507 210.425629 
L 162.79451 205.957699 
L 162.950805 217.341611 
L 163.105684 190.195821 
L 163.260852 191.34786 
L 164.506657 187.323991 
L 165.179686 207.61409 
L 165.334456 204.140913 
L 165.385874 222.240815 
L 165.592371 160.115193 
L 165.799584 221.697219 
L 166.266894 214.283184 
L 166.370727 199.910339 
L 167.14968 202.159403 
L 167.356458 235.332285 
L 168.70493 188.764383 
L 168.860224 200.00181 
L 168.911714 197.665841 
L 169.11811 232.521697 
L 169.221851 205.880729 
L 169.483363 209.152418 
L 169.949979 207.207353 
L 170.159004 199.837045 
L 170.366389 208.685265 
L 170.574061 201.096376 
L 171.092959 169.467248 
L 171.196511 218.107867 
L 171.300597 171.439143 
L 171.353006 212.475351 
L 171.71569 190.218583 
L 172.129916 184.637869 
L 172.337623 194.112883 
L 173.061632 211.661526 
L 173.633196 155.923224 
L 173.684571 163.119163 
L 173.788178 206.469941 
L 174.048866 182.538616 
L 174.152993 200.74169 
L 174.204333 195.712897 
L 174.567675 182.446402 
L 174.722848 202.282041 
L 174.981542 192.75004 
L 175.967461 183.995966 
L 176.485502 156.687725 
L 176.796998 171.883276 
L 177.107441 207.246247 
L 177.316379 208.613613 
L 177.367999 202.053784 
L 177.938476 185.592922 
L 177.990423 166.366975 
L 178.769894 173.911177 
L 179.288977 184.694908 
L 179.755866 196.842649 
L 180.638276 185.336863 
L 181.573192 204.302403 
L 181.62646 196.856054 
L 181.729791 202.641995 
L 182.250865 213.158678 
L 182.459083 195.632188 
L 182.980893 196.497546 
L 183.39577 170.377676 
L 183.447956 197.303935 
L 184.017685 202.777316 
L 184.433222 199.001791 
L 184.74526 174.92016 
L 184.901634 194.951391 
L 185.005259 190.135395 
L 185.266144 201.31946 
L 186.567875 190.190884 
L 186.620295 197.033067 
L 187.14068 204.555188 
L 187.245188 186.420875 
L 187.453471 194.4187 
L 187.505313 210.822627 
L 188.233398 177.798217 
L 188.808438 139.665669 
L 189.016294 190.350165 
L 189.120291 175.250339 
L 189.798023 162.666686 
L 190.109676 130.016513 
L 190.266242 143.19131 
L 190.786104 159.135148 
L 191.306069 139.312759 
L 191.409798 179.378784 
L 192.034469 146.544111 
L 192.138584 179.563263 
L 192.555844 188.748561 
L 192.867905 192.165217 
L 193.753495 196.736741 
L 194.065353 162.644936 
L 194.117744 169.045568 
L 194.535088 168.373704 
L 194.847635 163.336732 
L 195.158911 196.875924 
L 195.418453 182.730944 
L 196.613675 170.58374 
L 196.716806 165.769562 
L 196.977092 185.702269 
L 197.236272 156.192048 
L 197.912194 166.228122 
L 198.275095 166.801193 
L 199.053379 169.10965 
L 199.676228 171.43241 
L 199.832438 164.910276 
L 200.143453 184.873903 
L 200.61022 147.362108 
L 200.713742 189.127424 
L 201.184757 184.021392 
L 202.380231 162.88662 
L 202.43324 141.643047 
L 202.485374 148.734318 
L 202.849265 173.565837 
L 203.421393 139.775966 
L 203.52511 156.595428 
L 204.147213 134.091317 
L 204.355279 193.128769 
L 204.459422 187.213415 
L 204.511637 115.574319 
L 206.012339 168.224276 
L 206.637036 208.012513 
L 206.688619 148.895054 
L 207.104834 179.754094 
L 207.156359 147.4527 
L 207.466715 168.293966 
L 207.622077 161.852056 
L 207.934059 159.050504 
L 208.14151 146.454974 
L 209.021207 175.01288 
L 209.124362 144.31026 
L 209.176818 183.253782 
L 209.228626 147.56025 
L 209.797779 109.447283 
L 210.728173 118.865455 
L 211.607251 132.577207 
L 211.969443 142.311709 
L 212.176859 85.776158 
L 213.007255 132.592781 
L 213.213876 170.994587 
L 213.473073 130.950467 
L 213.576856 146.724841 
L 213.784697 123.900899 
L 213.888272 148.322345 
L 214.147314 109.814755 
L 214.718222 147.448094 
L 214.872778 106.509532 
L 215.288041 108.176261 
L 215.444101 112.457553 
L 215.495519 121.287018 
L 215.90953 102.564999 
L 216.68701 80.274532 
L 216.893797 140.75535 
L 216.996737 97.252097 
L 217.775014 102.886204 
L 218.448144 110.922871 
L 219.63876 157.633576 
L 220.415984 126.365775 
L 220.467621 135.616415 
L 220.777498 96.696913 
L 220.828983 108.283997 
L 221.088343 123.87446 
L 221.3489 130.159342 
L 221.555335 141.644772 
L 221.659989 120.650247 
L 222.488477 147.553238 
L 223.060024 135.369093 
L 223.421642 109.932384 
L 223.473596 78.895795 
L 223.835409 129.200416 
L 223.990601 121.184734 
L 225.231733 167.093708 
L 225.387678 119.199486 
L 225.905327 129.294127 
L 225.956728 118.767819 
L 226.059864 151.166374 
L 226.111401 91.254567 
L 227.149354 102.665898 
L 227.408682 67.199674 
L 227.875798 77.392157 
L 227.979334 100.00765 
L 228.082819 88.201087 
L 228.445991 118.624391 
L 229.117688 123.930559 
L 229.53055 136.002146 
L 229.945954 53.568 
L 230.256583 100.652993 
L 230.308652 143.976238 
L 230.827497 103.114689 
L 231.189075 139.923277 
L 231.811622 117.046334 
L 232.691273 112.132341 
L 232.794762 158.315323 
L 232.899846 124.687005 
L 233.054926 135.702504 
L 233.31505 129.347355 
L 234.196203 123.446325 
L 234.454064 124.709973 
L 235.59398 141.926175 
L 235.750009 163.206141 
L 236.009031 135.395779 
L 236.371107 76.274003 
L 236.577868 113.980585 
L 236.681896 96.131072 
L 236.992615 108.302938 
L 237.044113 79.131096 
L 237.718433 121.460023 
L 238.028913 102.31968 
L 238.184141 102.706093 
L 239.063348 120.432544 
L 239.167158 111.598865 
L 239.684463 91.484395 
L 239.840251 91.710814 
L 239.94351 94.086048 
L 240.202099 119.837393 
L 241.028731 132.408705 
L 241.132081 107.755892 
L 241.441813 137.296817 
L 241.648193 91.220301 
L 241.751817 116.560778 
L 242.48057 124.471594 
L 243.101871 112.041624 
L 243.360572 90.982439 
L 243.980802 122.056145 
L 244.342577 119.860754 
L 244.394241 99.997488 
L 245.325982 112.423265 
L 245.43054 95.065401 
L 245.533739 136.816177 
L 245.844198 78.788988 
L 246.725568 92.546347 
L 247.346673 106.594899 
L 247.657493 97.003742 
L 248.01999 111.872626 
L 249.262599 146.856207 
L 249.572284 177.963849 
L 249.675438 109.439062 
L 250.76141 149.203494 
L 250.91716 142.649696 
L 251.176773 93.68528 
L 251.22871 109.92404 
L 251.539541 108.024117 
L 251.693858 115.714525 
L 251.79811 148.507382 
L 252.265738 131.664177 
L 252.627288 108.156391 
L 252.886435 122.440162 
L 253.300497 103.78775 
L 253.50916 120.524665 
L 253.715655 88.081537 
L 254.389039 95.942389 
L 254.492326 120.54028 
L 254.647426 125.664644 
L 255.270012 103.299798 
L 255.478889 136.681094 
L 255.739172 118.939895 
L 255.843222 103.535471 
L 256.362678 115.204906 
L 256.466665 112.255134 
L 256.570669 103.998079 
L 257.247384 152.337312 
L 258.07849 121.162551 
L 258.337153 131.115623 
L 258.70091 108.909222 
L 259.999713 148.231949 
L 260.051895 133.242172 
L 260.103924 150.414173 
L 260.467059 67.809862 
L 260.98535 149.403909 
L 261.40293 113.777051 
L 261.766688 160.785662 
L 261.974506 149.028062 
L 262.545948 124.220782 
L 262.85823 152.123636 
L 263.169707 83.876441 
L 264.105543 100.291263 
L 264.313236 101.064357 
L 264.884544 130.45859 
L 265.406208 61.460805 
L 265.61517 99.107302 
L 265.667772 94.567576 
L 266.239915 123.928535 
L 266.291487 117.958104 
L 266.862029 116.519757 
L 266.96541 91.992113 
L 267.017015 137.512 
L 267.381772 99.5437 
L 267.537657 101.070636 
L 267.589433 99.565098 
L 267.641111 81.772572 
L 269.095873 130.973889 
L 269.978417 127.890191 
L 270.24005 101.185746 
L 270.291904 80.589313 
L 270.396473 135.414761 
L 270.812314 155.802145 
L 273.825927 118.876133 
L 274.553735 128.397889 
L 274.605168 98.784115 
L 275.17449 120.823087 
L 275.329772 146.019021 
L 275.432769 135.572544 
L 275.588285 106.894891 
L 275.640494 116.63844 
L 275.743492 120.890071 
L 276.935952 128.734152 
L 277.194332 181.097274 
L 277.504879 120.435394 
L 277.764245 134.29578 
L 278.332576 132.055299 
L 278.79723 121.324424 
L 278.953122 150.911099 
L 279.005027 131.589571 
L 279.471636 86.443787 
L 279.782257 121.801098 
L 280.610137 90.149467 
L 280.92097 116.157779 
L 281.127667 110.543419 
L 281.59295 77.396288 
L 281.695928 119.268329 
L 282.161754 112.080311 
L 282.368668 128.867541 
L 282.679857 131.915527 
L 282.938422 93.536338 
L 283.249382 96.656079 
L 283.716449 105.001558 
L 284.078529 129.187548 
L 284.284676 69.777119 
L 284.751273 119.447882 
L 285.528161 104.321597 
L 285.890896 102.733089 
L 286.202504 105.078848 
L 286.410432 122.778551 
L 286.462141 119.183003 
L 287.4452 120.721857 
L 287.496874 102.76593 
L 287.600378 120.3416 
L 287.90967 125.935512 
L 288.065904 119.374805 
L 289.461117 105.060217 
L 289.977722 135.91777 
L 290.133074 102.168218 
L 290.546546 160.833592 
L 290.651577 109.756136 
L 291.532341 128.930621 
L 291.58396 108.730619 
L 292.565937 145.632867 
L 292.617921 94.874694 
L 292.773543 98.189356 
L 293.137384 110.119146 
L 293.240875 92.98671 
L 293.654922 149.151207 
L 293.758174 129.120915 
L 293.809723 90.821599 
L 294.483376 137.017025 
L 294.586385 79.029226 
L 295.102889 106.850297 
L 295.258122 91.532252 
L 295.826401 77.848156 
L 296.085361 140.789121 
L 296.188665 103.12671 
L 296.808606 81.368396 
L 297.686641 131.741922 
L 298.462239 98.255224 
L 298.773978 133.231576 
L 299.137792 91.94692 
L 299.551671 139.732756 
L 299.759722 92.690105 
L 300.226773 160.627859 
L 300.74524 134.252838 
L 302.090969 106.144457 
L 302.660037 165.746108 
L 303.17811 163.071202 
L 303.438893 165.784403 
L 303.749492 89.215596 
L 303.958912 187.214943 
L 304.01084 142.052407 
L 304.580519 164.535461 
L 304.6319 145.097667 
L 304.736053 164.319483 
L 304.891566 156.501118 
L 304.943063 170.941731 
L 305.513883 146.362244 
L 305.565405 180.976608 
L 305.669387 177.566262 
L 305.77267 159.044338 
L 305.928683 159.197144 
L 305.980701 162.682528 
L 306.290612 127.731334 
L 306.601021 135.837071 
L 306.704826 114.712699 
L 306.86074 121.183474 
L 307.900002 175.946833 
L 308.003846 151.546259 
L 308.315669 161.455698 
L 308.679209 142.007783 
L 309.30504 180.28916 
L 310.294087 144.383781 
L 310.397312 106.844514 
L 311.227592 176.152164 
L 311.38321 162.277764 
L 311.486958 178.297881 
L 311.538704 170.251413 
L 312.524576 92.586686 
L 313.768945 158.434667 
L 313.923943 123.950491 
L 314.599559 163.110044 
L 315.012783 143.227239 
L 315.427982 139.878724 
L 315.479711 165.015244 
L 315.79052 154.869947 
L 316.518038 145.814155 
L 316.931962 154.926056 
L 318.382036 174.907736 
L 318.538493 170.862065 
L 318.90094 195.798408 
L 319.577453 161.818801 
L 319.681191 150.5065 
L 319.733426 177.323567 
L 320.096507 198.44638 
L 321.028758 140.263959 
L 321.85683 200.313493 
L 322.481667 184.913065 
L 322.533116 168.99296 
L 322.844506 145.370745 
L 323.521579 155.69446 
L 323.625939 128.982114 
L 323.936289 155.241394 
L 324.092001 156.196096 
L 325.284263 165.051008 
L 325.544419 181.586806 
L 326.219506 188.870074 
L 326.427119 166.29776 
L 327.359715 194.836859 
L 327.77654 191.763995 
L 328.971247 149.16362 
L 329.126292 158.863401 
L 329.281546 189.548444 
L 329.38533 176.508802 
L 329.437287 185.586488 
L 329.645609 148.780853 
L 330.579119 193.285333 
L 330.786443 192.549006 
L 331.980941 201.002562 
L 332.657503 191.030518 
L 333.491267 193.861048 
L 334.061709 152.050931 
L 334.11338 169.65967 
L 334.892312 174.348173 
L 335.04824 202.061788 
L 335.61925 186.641542 
L 335.671157 166.821786 
L 335.827051 196.732176 
L 336.710152 184.354009 
L 336.917157 154.117622 
L 337.594019 176.979373 
L 338.062152 206.206302 
L 338.787882 135.949765 
L 339.048265 181.665274 
L 339.77494 167.913884 
L 339.826823 163.086239 
L 339.931495 169.805215 
L 340.191992 176.284727 
L 341.64636 198.898361 
L 342.112811 183.685016 
L 342.476353 162.528081 
L 342.682689 75.707521 
L 342.995145 181.572162 
L 343.307595 215.748651 
L 343.565893 209.11716 
L 343.722703 208.14992 
L 343.826856 208.607427 
L 344.604766 206.110845 
L 345.073153 181.671388 
L 345.487912 186.587343 
L 346.007985 206.851283 
L 346.373347 201.341963 
L 346.633119 206.124168 
L 346.737098 156.2618 
L 346.89274 202.666925 
L 347.360324 156.762878 
L 348.400151 206.250152 
L 348.659568 206.517117 
L 349.074406 204.860406 
L 349.178537 195.462662 
L 349.697301 176.588241 
L 349.801051 198.44387 
L 350.578813 205.467548 
L 351.148588 219.129832 
L 351.251953 233.400161 
L 351.460219 165.116464 
L 352.083221 170.998677 
L 352.239344 189.107864 
L 354.001685 164.545974 
L 354.364823 203.830779 
L 354.520042 183.548322 
L 354.728294 191.274958 
L 355.452045 169.189078 
L 356.021362 169.402981 
L 356.385096 203.236908 
L 356.748346 118.078213 
L 357.266186 219.762781 
L 357.679013 156.358857 
L 357.937692 156.469702 
L 358.247834 166.108675 
L 358.350928 164.938408 
L 358.86912 224.678365 
L 358.920547 209.547185 
L 359.80158 180.164033 
L 359.957028 154.090347 
L 360.320295 209.71577 
L 360.941657 160.7635 
L 361.72114 194.305429 
L 361.824443 172.642479 
L 362.186963 177.047483 
L 362.704493 190.308969 
L 363.117937 223.00765 
L 363.32647 174.448721 
L 363.481516 199.153966 
L 363.584724 173.992051 
L 364.050315 174.389318 
L 364.567223 196.01704 
L 364.618919 211.164125 
L 365.135438 174.394698 
L 365.394324 244.094751 
L 366.381473 216.744973 
L 366.640461 229.673728 
L 367.418025 111.603265 
L 368.352469 162.374883 
L 369.387518 199.29884 
L 369.645135 217.144108 
L 369.852729 222.958625 
L 370.425897 196.01136 
L 370.477971 206.357692 
L 370.529462 195.389368 
L 370.684558 223.404059 
L 370.839091 211.587954 
L 371.564611 199.322366 
L 371.823985 201.667753 
L 371.979519 186.432204 
L 372.911907 217.904654 
L 373.119279 188.593236 
L 373.377837 241.781094 
L 373.740951 217.351122 
L 374.208229 208.35712 
L 374.311767 218.558331 
L 374.830847 202.42519 
L 375.142062 185.805038 
L 375.245994 201.16273 
L 375.558635 161.829335 
L 375.661651 206.936536 
L 375.765583 197.443243 
L 376.128665 231.145598 
L 376.491328 199.17584 
L 376.595056 174.373537 
L 377.008818 203.439802 
L 377.786695 207.057471 
L 377.993761 195.70826 
L 378.252421 210.55024 
L 378.408621 206.770109 
L 379.237225 221.294623 
L 379.75652 187.763393 
L 379.80835 188.498337 
L 379.912191 222.576582 
L 380.223843 176.11389 
L 380.275638 187.411681 
L 380.534887 199.805619 
L 380.902209 200.140704 
L 381.163271 229.277525 
L 381.319047 193.023873 
L 381.525409 183.950731 
L 381.834949 212.793995 
L 382.506677 184.177863 
L 382.867695 217.464353 
L 383.853212 222.30311 
L 384.88884 190.153458 
L 385.043897 209.837634 
L 385.250177 172.507055 
L 385.301827 189.534843 
L 385.663301 182.428381 
L 386.54351 150.871297 
L 387.11303 209.020143 
L 388.046513 184.519754 
L 388.357572 165.327103 
L 389.600927 155.725649 
L 390.791575 201.039441 
L 391.258161 204.37138 
L 392.036464 200.981741 
L 392.088736 214.157106 
L 392.452591 160.173409 
L 392.659131 169.990923 
L 393.336112 183.211326 
L 393.38846 205.156877 
L 393.910007 176.76861 
L 394.116416 192.733578 
L 394.530899 145.170011 
L 394.582744 171.074088 
L 394.790467 219.335916 
L 395.256625 158.555529 
L 395.308823 191.883039 
L 395.827263 185.575933 
L 395.879041 175.276003 
L 395.931418 209.392779 
L 396.346535 133.608074 
L 396.554229 188.879648 
L 397.384476 195.974491 
L 397.800772 182.393009 
L 398.476066 170.602299 
L 398.633458 150.417705 
L 398.996655 223.883615 
L 399.152086 188.826069 
L 399.620822 223.877026 
L 399.673158 204.242628 
L 400.142366 181.399331 
L 400.298143 180.568549 
L 400.816664 190.948807 
L 401.076131 200.893452 
L 402.527682 202.333854 
L 402.943832 192.144624 
L 403.411334 190.902447 
L 403.515374 150.69571 
L 403.723298 199.516367 
L 404.034895 221.476087 
L 404.19036 157.809638 
L 404.555063 197.626379 
L 404.711473 192.197903 
L 404.971727 196.056812 
L 405.127894 223.636241 
L 405.179934 196.344937 
L 405.543668 180.518905 
L 405.751654 229.174653 
L 405.960308 204.717009 
L 406.478122 200.784435 
L 406.529743 182.03318 
L 407.361433 210.360421 
L 407.72578 192.396087 
L 407.93337 244.627741 
L 408.505612 196.801112 
L 409.129742 156.483365 
L 409.957632 220.440026 
L 411.044125 218.222926 
L 411.250739 222.235197 
L 412.026208 183.910186 
L 412.285254 162.650596 
L 412.75245 222.450287 
L 412.95968 165.391401 
L 413.168858 149.8177 
L 413.582951 184.940681 
L 413.893097 175.894649 
L 413.996512 230.552631 
L 414.72 206.468434 
L 414.72 206.468434 
" style="fill:none;stroke:#000000;stroke-linecap:square;stroke-width:0.8;"/>
   </g>
   <g id="patch_3">
    <path d="M 57.6 307.584 
L 57.6 41.472 
" style="fill:none;stroke:#000000;stroke-linecap:square;stroke-linejoin:miter;stroke-width:0.8;"/>
   </g>
   <g id="patch_4">
    <path d="M 414.72 307.584 
L 414.72 41.472 
" style="fill:none;stroke:#000000;stroke-linecap:square;stroke-linejoin:miter;stroke-width:0.8;"/>
   </g>
   <g id="patch_5">
    <path d="M 57.6 307.584 
L 414.72 307.584 
" style="fill:none;stroke:#000000;stroke-linecap:square;stroke-linejoin:miter;stroke-width:0.8;"/>
   </g>
   <g id="patch_6">
    <path d="M 57.6 41.472 
L 414.72 41.472 
" style="fill:none;stroke:#000000;stroke-linecap:square;stroke-linejoin:miter;stroke-width:0.8;"/>
   </g>
  </g>
  <g id="axes_2">
   <g id="matplotlib.axis_3">
    <g id="xtick_8">
     <g id="line2d_30">
      <defs>
       <path d="M 0 0 
L 0 -3.5 
" id="m3134df5769" style="stroke:#000000;stroke-width:0.8;"/>
      </defs>
      <g>
       <use style="stroke:#000000;stroke-width:0.8;" x="57.6" xlink:href="#m3134df5769" y="41.472"/>
      </g>
     </g>
    </g>
    <g id="xtick_9">
     <g id="line2d_31">
      <g>
       <use style="stroke:#000000;stroke-width:0.8;" x="98.12288" xlink:href="#m3134df5769" y="41.472"/>
      </g>
     </g>
     <g id="text_17">
      <!-- 1,000K -->
      <defs>
       <path d="M 11.71875 12.40625 
L 22.015625 12.40625 
L 22.015625 4 
L 14.015625 -11.625 
L 7.71875 -11.625 
L 11.71875 4 
z
" id="DejaVuSans-44"/>
       <path d="M 9.8125 72.90625 
L 19.671875 72.90625 
L 19.671875 42.09375 
L 52.390625 72.90625 
L 65.09375 72.90625 
L 28.90625 38.921875 
L 67.671875 0 
L 54.6875 0 
L 19.671875 35.109375 
L 19.671875 0 
L 9.8125 0 
z
" id="DejaVuSans-75"/>
      </defs>
      <g transform="translate(80.529912 32.392313)scale(0.1 -0.1)">
       <use xlink:href="#DejaVuSans-49"/>
       <use x="63.623047" xlink:href="#DejaVuSans-44"/>
       <use x="95.410156" xlink:href="#DejaVuSans-48"/>
       <use x="159.033203" xlink:href="#DejaVuSans-48"/>
       <use x="222.65625" xlink:href="#DejaVuSans-48"/>
       <use x="286.279297" xlink:href="#DejaVuSans-75"/>
      </g>
     </g>
    </g>
    <g id="xtick_10">
     <g id="line2d_32">
      <g>
       <use style="stroke:#000000;stroke-width:0.8;" x="138.645761" xlink:href="#m3134df5769" y="41.472"/>
      </g>
     </g>
     <g id="text_18">
      <!-- 2.00M -->
      <defs>
       <path d="M 9.8125 72.90625 
L 24.515625 72.90625 
L 43.109375 23.296875 
L 61.8125 72.90625 
L 76.515625 72.90625 
L 76.515625 0 
L 66.890625 0 
L 66.890625 64.015625 
L 48.09375 14.015625 
L 38.1875 14.015625 
L 19.390625 64.015625 
L 19.390625 0 
L 9.8125 0 
z
" id="DejaVuSans-77"/>
      </defs>
      <g transform="translate(123.198886 32.392313)scale(0.1 -0.1)">
       <use xlink:href="#DejaVuSans-50"/>
       <use x="63.623047" xlink:href="#DejaVuSans-46"/>
       <use x="95.410156" xlink:href="#DejaVuSans-48"/>
       <use x="159.033203" xlink:href="#DejaVuSans-48"/>
       <use x="222.65625" xlink:href="#DejaVuSans-77"/>
      </g>
     </g>
    </g>
    <g id="xtick_11">
     <g id="line2d_33">
      <g>
       <use style="stroke:#000000;stroke-width:0.8;" x="179.168641" xlink:href="#m3134df5769" y="41.472"/>
      </g>
     </g>
     <g id="text_19">
      <!-- 3.00M -->
      <g transform="translate(163.721766 32.392313)scale(0.1 -0.1)">
       <use xlink:href="#DejaVuSans-51"/>
       <use x="63.623047" xlink:href="#DejaVuSans-46"/>
       <use x="95.410156" xlink:href="#DejaVuSans-48"/>
       <use x="159.033203" xlink:href="#DejaVuSans-48"/>
       <use x="222.65625" xlink:href="#DejaVuSans-77"/>
      </g>
     </g>
    </g>
    <g id="xtick_12">
     <g id="line2d_34">
      <g>
       <use style="stroke:#000000;stroke-width:0.8;" x="219.691522" xlink:href="#m3134df5769" y="41.472"/>
      </g>
     </g>
     <g id="text_20">
      <!-- 4.00M -->
      <defs>
       <path d="M 37.796875 64.3125 
L 12.890625 25.390625 
L 37.796875 25.390625 
z
M 35.203125 72.90625 
L 47.609375 72.90625 
L 47.609375 25.390625 
L 58.015625 25.390625 
L 58.015625 17.1875 
L 47.609375 17.1875 
L 47.609375 0 
L 37.796875 0 
L 37.796875 17.1875 
L 4.890625 17.1875 
L 4.890625 26.703125 
z
" id="DejaVuSans-52"/>
      </defs>
      <g transform="translate(204.244647 32.392313)scale(0.1 -0.1)">
       <use xlink:href="#DejaVuSans-52"/>
       <use x="63.623047" xlink:href="#DejaVuSans-46"/>
       <use x="95.410156" xlink:href="#DejaVuSans-48"/>
       <use x="159.033203" xlink:href="#DejaVuSans-48"/>
       <use x="222.65625" xlink:href="#DejaVuSans-77"/>
      </g>
     </g>
    </g>
    <g id="xtick_13">
     <g id="line2d_35">
      <g>
       <use style="stroke:#000000;stroke-width:0.8;" x="260.214402" xlink:href="#m3134df5769" y="41.472"/>
      </g>
     </g>
     <g id="text_21">
      <!-- 5.00M -->
      <g transform="translate(244.767527 32.392313)scale(0.1 -0.1)">
       <use xlink:href="#DejaVuSans-53"/>
       <use x="63.623047" xlink:href="#DejaVuSans-46"/>
       <use x="95.410156" xlink:href="#DejaVuSans-48"/>
       <use x="159.033203" xlink:href="#DejaVuSans-48"/>
       <use x="222.65625" xlink:href="#DejaVuSans-77"/>
      </g>
     </g>
    </g>
    <g id="xtick_14">
     <g id="line2d_36">
      <g>
       <use style="stroke:#000000;stroke-width:0.8;" x="300.737282" xlink:href="#m3134df5769" y="41.472"/>
      </g>
     </g>
     <g id="text_22">
      <!-- 6.00M -->
      <defs>
       <path d="M 33.015625 40.375 
Q 26.375 40.375 22.484375 35.828125 
Q 18.609375 31.296875 18.609375 23.390625 
Q 18.609375 15.53125 22.484375 10.953125 
Q 26.375 6.390625 33.015625 6.390625 
Q 39.65625 6.390625 43.53125 10.953125 
Q 47.40625 15.53125 47.40625 23.390625 
Q 47.40625 31.296875 43.53125 35.828125 
Q 39.65625 40.375 33.015625 40.375 
z
M 52.59375 71.296875 
L 52.59375 62.3125 
Q 48.875 64.0625 45.09375 64.984375 
Q 41.3125 65.921875 37.59375 65.921875 
Q 27.828125 65.921875 22.671875 59.328125 
Q 17.53125 52.734375 16.796875 39.40625 
Q 19.671875 43.65625 24.015625 45.921875 
Q 28.375 48.1875 33.59375 48.1875 
Q 44.578125 48.1875 50.953125 41.515625 
Q 57.328125 34.859375 57.328125 23.390625 
Q 57.328125 12.15625 50.6875 5.359375 
Q 44.046875 -1.421875 33.015625 -1.421875 
Q 20.359375 -1.421875 13.671875 8.265625 
Q 6.984375 17.96875 6.984375 36.375 
Q 6.984375 53.65625 15.1875 63.9375 
Q 23.390625 74.21875 37.203125 74.21875 
Q 40.921875 74.21875 44.703125 73.484375 
Q 48.484375 72.75 52.59375 71.296875 
z
" id="DejaVuSans-54"/>
      </defs>
      <g transform="translate(285.290407 32.392313)scale(0.1 -0.1)">
       <use xlink:href="#DejaVuSans-54"/>
       <use x="63.623047" xlink:href="#DejaVuSans-46"/>
       <use x="95.410156" xlink:href="#DejaVuSans-48"/>
       <use x="159.033203" xlink:href="#DejaVuSans-48"/>
       <use x="222.65625" xlink:href="#DejaVuSans-77"/>
      </g>
     </g>
    </g>
    <g id="xtick_15">
     <g id="line2d_37">
      <g>
       <use style="stroke:#000000;stroke-width:0.8;" x="341.260163" xlink:href="#m3134df5769" y="41.472"/>
      </g>
     </g>
     <g id="text_23">
      <!-- 7.00M -->
      <g transform="translate(325.813288 32.392313)scale(0.1 -0.1)">
       <use xlink:href="#DejaVuSans-55"/>
       <use x="63.623047" xlink:href="#DejaVuSans-46"/>
       <use x="95.410156" xlink:href="#DejaVuSans-48"/>
       <use x="159.033203" xlink:href="#DejaVuSans-48"/>
       <use x="222.65625" xlink:href="#DejaVuSans-77"/>
      </g>
     </g>
    </g>
    <g id="xtick_16">
     <g id="line2d_38">
      <g>
       <use style="stroke:#000000;stroke-width:0.8;" x="381.783043" xlink:href="#m3134df5769" y="41.472"/>
      </g>
     </g>
     <g id="text_24">
      <!-- 8.00M -->
      <defs>
       <path d="M 31.78125 34.625 
Q 24.75 34.625 20.71875 30.859375 
Q 16.703125 27.09375 16.703125 20.515625 
Q 16.703125 13.921875 20.71875 10.15625 
Q 24.75 6.390625 31.78125 6.390625 
Q 38.8125 6.390625 42.859375 10.171875 
Q 46.921875 13.96875 46.921875 20.515625 
Q 46.921875 27.09375 42.890625 30.859375 
Q 38.875 34.625 31.78125 34.625 
z
M 21.921875 38.8125 
Q 15.578125 40.375 12.03125 44.71875 
Q 8.5 49.078125 8.5 55.328125 
Q 8.5 64.0625 14.71875 69.140625 
Q 20.953125 74.21875 31.78125 74.21875 
Q 42.671875 74.21875 48.875 69.140625 
Q 55.078125 64.0625 55.078125 55.328125 
Q 55.078125 49.078125 51.53125 44.71875 
Q 48 40.375 41.703125 38.8125 
Q 48.828125 37.15625 52.796875 32.3125 
Q 56.78125 27.484375 56.78125 20.515625 
Q 56.78125 9.90625 50.3125 4.234375 
Q 43.84375 -1.421875 31.78125 -1.421875 
Q 19.734375 -1.421875 13.25 4.234375 
Q 6.78125 9.90625 6.78125 20.515625 
Q 6.78125 27.484375 10.78125 32.3125 
Q 14.796875 37.15625 21.921875 38.8125 
z
M 18.3125 54.390625 
Q 18.3125 48.734375 21.84375 45.5625 
Q 25.390625 42.390625 31.78125 42.390625 
Q 38.140625 42.390625 41.71875 45.5625 
Q 45.3125 48.734375 45.3125 54.390625 
Q 45.3125 60.0625 41.71875 63.234375 
Q 38.140625 66.40625 31.78125 66.40625 
Q 25.390625 66.40625 21.84375 63.234375 
Q 18.3125 60.0625 18.3125 54.390625 
z
" id="DejaVuSans-56"/>
      </defs>
      <g transform="translate(366.336168 32.392313)scale(0.1 -0.1)">
       <use xlink:href="#DejaVuSans-56"/>
       <use x="63.623047" xlink:href="#DejaVuSans-46"/>
       <use x="95.410156" xlink:href="#DejaVuSans-48"/>
       <use x="159.033203" xlink:href="#DejaVuSans-48"/>
       <use x="222.65625" xlink:href="#DejaVuSans-77"/>
      </g>
     </g>
    </g>
    <g id="text_25">
     <!-- Steps -->
     <defs>
      <path d="M 53.515625 70.515625 
L 53.515625 60.890625 
Q 47.90625 63.578125 42.921875 64.890625 
Q 37.9375 66.21875 33.296875 66.21875 
Q 25.25 66.21875 20.875 63.09375 
Q 16.5 59.96875 16.5 54.203125 
Q 16.5 49.359375 19.40625 46.890625 
Q 22.3125 44.4375 30.421875 42.921875 
L 36.375 41.703125 
Q 47.40625 39.59375 52.65625 34.296875 
Q 57.90625 29 57.90625 20.125 
Q 57.90625 9.515625 50.796875 4.046875 
Q 43.703125 -1.421875 29.984375 -1.421875 
Q 24.8125 -1.421875 18.96875 -0.25 
Q 13.140625 0.921875 6.890625 3.21875 
L 6.890625 13.375 
Q 12.890625 10.015625 18.65625 8.296875 
Q 24.421875 6.59375 29.984375 6.59375 
Q 38.421875 6.59375 43.015625 9.90625 
Q 47.609375 13.234375 47.609375 19.390625 
Q 47.609375 24.75 44.3125 27.78125 
Q 41.015625 30.8125 33.5 32.328125 
L 27.484375 33.5 
Q 16.453125 35.6875 11.515625 40.375 
Q 6.59375 45.0625 6.59375 53.421875 
Q 6.59375 63.09375 13.40625 68.65625 
Q 20.21875 74.21875 32.171875 74.21875 
Q 37.3125 74.21875 42.625 73.28125 
Q 47.953125 72.359375 53.515625 70.515625 
z
" id="DejaVuSans-83"/>
      <path d="M 18.109375 8.203125 
L 18.109375 -20.796875 
L 9.078125 -20.796875 
L 9.078125 54.6875 
L 18.109375 54.6875 
L 18.109375 46.390625 
Q 20.953125 51.265625 25.265625 53.625 
Q 29.59375 56 35.59375 56 
Q 45.5625 56 51.78125 48.09375 
Q 58.015625 40.1875 58.015625 27.296875 
Q 58.015625 14.40625 51.78125 6.484375 
Q 45.5625 -1.421875 35.59375 -1.421875 
Q 29.59375 -1.421875 25.265625 0.953125 
Q 20.953125 3.328125 18.109375 8.203125 
z
M 48.6875 27.296875 
Q 48.6875 37.203125 44.609375 42.84375 
Q 40.53125 48.484375 33.40625 48.484375 
Q 26.265625 48.484375 22.1875 42.84375 
Q 18.109375 37.203125 18.109375 27.296875 
Q 18.109375 17.390625 22.1875 11.75 
Q 26.265625 6.109375 33.40625 6.109375 
Q 40.53125 6.109375 44.609375 11.75 
Q 48.6875 17.390625 48.6875 27.296875 
z
" id="DejaVuSans-112"/>
     </defs>
     <g transform="translate(222.170156 20.793875)scale(0.1 -0.1)">
      <use xlink:href="#DejaVuSans-83"/>
      <use x="63.476562" xlink:href="#DejaVuSans-116"/>
      <use x="102.685547" xlink:href="#DejaVuSans-101"/>
      <use x="164.208984" xlink:href="#DejaVuSans-112"/>
      <use x="227.685547" xlink:href="#DejaVuSans-115"/>
     </g>
    </g>
   </g>
   <g id="patch_7">
    <path d="M 57.6 307.584 
L 57.6 41.472 
" style="fill:none;stroke:#000000;stroke-linecap:square;stroke-linejoin:miter;stroke-width:0.8;"/>
   </g>
   <g id="patch_8">
    <path d="M 414.72 307.584 
L 414.72 41.472 
" style="fill:none;stroke:#000000;stroke-linecap:square;stroke-linejoin:miter;stroke-width:0.8;"/>
   </g>
   <g id="patch_9">
    <path d="M 57.6 307.584 
L 414.72 307.584 
" style="fill:none;stroke:#000000;stroke-linecap:square;stroke-linejoin:miter;stroke-width:0.8;"/>
   </g>
   <g id="patch_10">
    <path d="M 57.6 41.472 
L 414.72 41.472 
" style="fill:none;stroke:#000000;stroke-linecap:square;stroke-linejoin:miter;stroke-width:0.8;"/>
   </g>
  </g>
 </g>
 <defs>
  <clipPath id="pd859004a54">
   <rect height="266.112" width="357.12" x="57.6" y="41.472"/>
  </clipPath>
 </defs>
</svg>
