<?xml version="1.0" encoding="utf-8" standalone="no"?>
<!DOCTYPE svg PUBLIC "-//W3C//DTD SVG 1.1//EN"
  "http://www.w3.org/Graphics/SVG/1.1/DTD/svg11.dtd">
<!-- Created with matplotlib (https://matplotlib.org/) -->
<svg height="345.6pt" version="1.1" viewBox="0 0 460.8 345.6" width="460.8pt" xmlns="http://www.w3.org/2000/svg" xmlns:xlink="http://www.w3.org/1999/xlink">
 <defs>
  <style type="text/css">
*{stroke-linecap:butt;stroke-linejoin:round;}
  </style>
 </defs>
 <g id="figure_1">
  <g id="patch_1">
   <path d="M 0 345.6 
L 460.8 345.6 
L 460.8 0 
L 0 0 
z
" style="fill:#ffffff;"/>
  </g>
  <g id="axes_1">
   <g id="patch_2">
    <path d="M 57.6 307.584 
L 414.72 307.584 
L 414.72 41.472 
L 57.6 41.472 
z
" style="fill:#ffffff;"/>
   </g>
   <g id="matplotlib.axis_1">
    <g id="xtick_1">
     <g id="line2d_1">
      <path clip-path="url(#pec0c14d27f)" d="M 57.6 307.584 
L 57.6 41.472 
" style="fill:none;stroke:#b0b0b0;stroke-linecap:square;stroke-width:0.8;"/>
     </g>
     <g id="line2d_2">
      <defs>
       <path d="M 0 0 
L 0 3.5 
" id="m98931b8910" style="stroke:#000000;stroke-width:0.8;"/>
      </defs>
      <g>
       <use style="stroke:#000000;stroke-width:0.8;" x="57.6" xlink:href="#m98931b8910" y="307.584"/>
      </g>
     </g>
     <g id="text_1">
      <!-- 0.0 -->
      <defs>
       <path d="M 31.78125 66.40625 
Q 24.171875 66.40625 20.328125 58.90625 
Q 16.5 51.421875 16.5 36.375 
Q 16.5 21.390625 20.328125 13.890625 
Q 24.171875 6.390625 31.78125 6.390625 
Q 39.453125 6.390625 43.28125 13.890625 
Q 47.125 21.390625 47.125 36.375 
Q 47.125 51.421875 43.28125 58.90625 
Q 39.453125 66.40625 31.78125 66.40625 
z
M 31.78125 74.21875 
Q 44.046875 74.21875 50.515625 64.515625 
Q 56.984375 54.828125 56.984375 36.375 
Q 56.984375 17.96875 50.515625 8.265625 
Q 44.046875 -1.421875 31.78125 -1.421875 
Q 19.53125 -1.421875 13.0625 8.265625 
Q 6.59375 17.96875 6.59375 36.375 
Q 6.59375 54.828125 13.0625 64.515625 
Q 19.53125 74.21875 31.78125 74.21875 
z
" id="DejaVuSans-48"/>
       <path d="M 10.6875 12.40625 
L 21 12.40625 
L 21 0 
L 10.6875 0 
z
" id="DejaVuSans-46"/>
      </defs>
      <g transform="translate(49.648438 322.182437)scale(0.1 -0.1)">
       <use xlink:href="#DejaVuSans-48"/>
       <use x="63.623047" xlink:href="#DejaVuSans-46"/>
       <use x="95.410156" xlink:href="#DejaVuSans-48"/>
      </g>
     </g>
    </g>
    <g id="xtick_2">
     <g id="line2d_3">
      <path clip-path="url(#pec0c14d27f)" d="M 98.444673 307.584 
L 98.444673 41.472 
" style="fill:none;stroke:#b0b0b0;stroke-linecap:square;stroke-width:0.8;"/>
     </g>
     <g id="line2d_4">
      <g>
       <use style="stroke:#000000;stroke-width:0.8;" x="98.444673" xlink:href="#m98931b8910" y="307.584"/>
      </g>
     </g>
     <g id="text_2">
      <!-- 0.2 -->
      <defs>
       <path d="M 19.1875 8.296875 
L 53.609375 8.296875 
L 53.609375 0 
L 7.328125 0 
L 7.328125 8.296875 
Q 12.9375 14.109375 22.625 23.890625 
Q 32.328125 33.6875 34.8125 36.53125 
Q 39.546875 41.84375 41.421875 45.53125 
Q 43.3125 49.21875 43.3125 52.78125 
Q 43.3125 58.59375 39.234375 62.25 
Q 35.15625 65.921875 28.609375 65.921875 
Q 23.96875 65.921875 18.8125 64.3125 
Q 13.671875 62.703125 7.8125 59.421875 
L 7.8125 69.390625 
Q 13.765625 71.78125 18.9375 73 
Q 24.125 74.21875 28.421875 74.21875 
Q 39.75 74.21875 46.484375 68.546875 
Q 53.21875 62.890625 53.21875 53.421875 
Q 53.21875 48.921875 51.53125 44.890625 
Q 49.859375 40.875 45.40625 35.40625 
Q 44.1875 33.984375 37.640625 27.21875 
Q 31.109375 20.453125 19.1875 8.296875 
z
" id="DejaVuSans-50"/>
      </defs>
      <g transform="translate(90.49311 322.182437)scale(0.1 -0.1)">
       <use xlink:href="#DejaVuSans-48"/>
       <use x="63.623047" xlink:href="#DejaVuSans-46"/>
       <use x="95.410156" xlink:href="#DejaVuSans-50"/>
      </g>
     </g>
    </g>
    <g id="xtick_3">
     <g id="line2d_5">
      <path clip-path="url(#pec0c14d27f)" d="M 139.289346 307.584 
L 139.289346 41.472 
" style="fill:none;stroke:#b0b0b0;stroke-linecap:square;stroke-width:0.8;"/>
     </g>
     <g id="line2d_6">
      <g>
       <use style="stroke:#000000;stroke-width:0.8;" x="139.289346" xlink:href="#m98931b8910" y="307.584"/>
      </g>
     </g>
     <g id="text_3">
      <!-- 0.4 -->
      <defs>
       <path d="M 37.796875 64.3125 
L 12.890625 25.390625 
L 37.796875 25.390625 
z
M 35.203125 72.90625 
L 47.609375 72.90625 
L 47.609375 25.390625 
L 58.015625 25.390625 
L 58.015625 17.1875 
L 47.609375 17.1875 
L 47.609375 0 
L 37.796875 0 
L 37.796875 17.1875 
L 4.890625 17.1875 
L 4.890625 26.703125 
z
" id="DejaVuSans-52"/>
      </defs>
      <g transform="translate(131.337783 322.182437)scale(0.1 -0.1)">
       <use xlink:href="#DejaVuSans-48"/>
       <use x="63.623047" xlink:href="#DejaVuSans-46"/>
       <use x="95.410156" xlink:href="#DejaVuSans-52"/>
      </g>
     </g>
    </g>
    <g id="xtick_4">
     <g id="line2d_7">
      <path clip-path="url(#pec0c14d27f)" d="M 180.134019 307.584 
L 180.134019 41.472 
" style="fill:none;stroke:#b0b0b0;stroke-linecap:square;stroke-width:0.8;"/>
     </g>
     <g id="line2d_8">
      <g>
       <use style="stroke:#000000;stroke-width:0.8;" x="180.134019" xlink:href="#m98931b8910" y="307.584"/>
      </g>
     </g>
     <g id="text_4">
      <!-- 0.6 -->
      <defs>
       <path d="M 33.015625 40.375 
Q 26.375 40.375 22.484375 35.828125 
Q 18.609375 31.296875 18.609375 23.390625 
Q 18.609375 15.53125 22.484375 10.953125 
Q 26.375 6.390625 33.015625 6.390625 
Q 39.65625 6.390625 43.53125 10.953125 
Q 47.40625 15.53125 47.40625 23.390625 
Q 47.40625 31.296875 43.53125 35.828125 
Q 39.65625 40.375 33.015625 40.375 
z
M 52.59375 71.296875 
L 52.59375 62.3125 
Q 48.875 64.0625 45.09375 64.984375 
Q 41.3125 65.921875 37.59375 65.921875 
Q 27.828125 65.921875 22.671875 59.328125 
Q 17.53125 52.734375 16.796875 39.40625 
Q 19.671875 43.65625 24.015625 45.921875 
Q 28.375 48.1875 33.59375 48.1875 
Q 44.578125 48.1875 50.953125 41.515625 
Q 57.328125 34.859375 57.328125 23.390625 
Q 57.328125 12.15625 50.6875 5.359375 
Q 44.046875 -1.421875 33.015625 -1.421875 
Q 20.359375 -1.421875 13.671875 8.265625 
Q 6.984375 17.96875 6.984375 36.375 
Q 6.984375 53.65625 15.1875 63.9375 
Q 23.390625 74.21875 37.203125 74.21875 
Q 40.921875 74.21875 44.703125 73.484375 
Q 48.484375 72.75 52.59375 71.296875 
z
" id="DejaVuSans-54"/>
      </defs>
      <g transform="translate(172.182456 322.182437)scale(0.1 -0.1)">
       <use xlink:href="#DejaVuSans-48"/>
       <use x="63.623047" xlink:href="#DejaVuSans-46"/>
       <use x="95.410156" xlink:href="#DejaVuSans-54"/>
      </g>
     </g>
    </g>
    <g id="xtick_5">
     <g id="line2d_9">
      <path clip-path="url(#pec0c14d27f)" d="M 220.978692 307.584 
L 220.978692 41.472 
" style="fill:none;stroke:#b0b0b0;stroke-linecap:square;stroke-width:0.8;"/>
     </g>
     <g id="line2d_10">
      <g>
       <use style="stroke:#000000;stroke-width:0.8;" x="220.978692" xlink:href="#m98931b8910" y="307.584"/>
      </g>
     </g>
     <g id="text_5">
      <!-- 0.8 -->
      <defs>
       <path d="M 31.78125 34.625 
Q 24.75 34.625 20.71875 30.859375 
Q 16.703125 27.09375 16.703125 20.515625 
Q 16.703125 13.921875 20.71875 10.15625 
Q 24.75 6.390625 31.78125 6.390625 
Q 38.8125 6.390625 42.859375 10.171875 
Q 46.921875 13.96875 46.921875 20.515625 
Q 46.921875 27.09375 42.890625 30.859375 
Q 38.875 34.625 31.78125 34.625 
z
M 21.921875 38.8125 
Q 15.578125 40.375 12.03125 44.71875 
Q 8.5 49.078125 8.5 55.328125 
Q 8.5 64.0625 14.71875 69.140625 
Q 20.953125 74.21875 31.78125 74.21875 
Q 42.671875 74.21875 48.875 69.140625 
Q 55.078125 64.0625 55.078125 55.328125 
Q 55.078125 49.078125 51.53125 44.71875 
Q 48 40.375 41.703125 38.8125 
Q 48.828125 37.15625 52.796875 32.3125 
Q 56.78125 27.484375 56.78125 20.515625 
Q 56.78125 9.90625 50.3125 4.234375 
Q 43.84375 -1.421875 31.78125 -1.421875 
Q 19.734375 -1.421875 13.25 4.234375 
Q 6.78125 9.90625 6.78125 20.515625 
Q 6.78125 27.484375 10.78125 32.3125 
Q 14.796875 37.15625 21.921875 38.8125 
z
M 18.3125 54.390625 
Q 18.3125 48.734375 21.84375 45.5625 
Q 25.390625 42.390625 31.78125 42.390625 
Q 38.140625 42.390625 41.71875 45.5625 
Q 45.3125 48.734375 45.3125 54.390625 
Q 45.3125 60.0625 41.71875 63.234375 
Q 38.140625 66.40625 31.78125 66.40625 
Q 25.390625 66.40625 21.84375 63.234375 
Q 18.3125 60.0625 18.3125 54.390625 
z
" id="DejaVuSans-56"/>
      </defs>
      <g transform="translate(213.027129 322.182437)scale(0.1 -0.1)">
       <use xlink:href="#DejaVuSans-48"/>
       <use x="63.623047" xlink:href="#DejaVuSans-46"/>
       <use x="95.410156" xlink:href="#DejaVuSans-56"/>
      </g>
     </g>
    </g>
    <g id="xtick_6">
     <g id="line2d_11">
      <path clip-path="url(#pec0c14d27f)" d="M 261.823365 307.584 
L 261.823365 41.472 
" style="fill:none;stroke:#b0b0b0;stroke-linecap:square;stroke-width:0.8;"/>
     </g>
     <g id="line2d_12">
      <g>
       <use style="stroke:#000000;stroke-width:0.8;" x="261.823365" xlink:href="#m98931b8910" y="307.584"/>
      </g>
     </g>
     <g id="text_6">
      <!-- 1.0 -->
      <defs>
       <path d="M 12.40625 8.296875 
L 28.515625 8.296875 
L 28.515625 63.921875 
L 10.984375 60.40625 
L 10.984375 69.390625 
L 28.421875 72.90625 
L 38.28125 72.90625 
L 38.28125 8.296875 
L 54.390625 8.296875 
L 54.390625 0 
L 12.40625 0 
z
" id="DejaVuSans-49"/>
      </defs>
      <g transform="translate(253.871802 322.182437)scale(0.1 -0.1)">
       <use xlink:href="#DejaVuSans-49"/>
       <use x="63.623047" xlink:href="#DejaVuSans-46"/>
       <use x="95.410156" xlink:href="#DejaVuSans-48"/>
      </g>
     </g>
    </g>
    <g id="xtick_7">
     <g id="line2d_13">
      <path clip-path="url(#pec0c14d27f)" d="M 302.668038 307.584 
L 302.668038 41.472 
" style="fill:none;stroke:#b0b0b0;stroke-linecap:square;stroke-width:0.8;"/>
     </g>
     <g id="line2d_14">
      <g>
       <use style="stroke:#000000;stroke-width:0.8;" x="302.668038" xlink:href="#m98931b8910" y="307.584"/>
      </g>
     </g>
     <g id="text_7">
      <!-- 1.2 -->
      <g transform="translate(294.716475 322.182437)scale(0.1 -0.1)">
       <use xlink:href="#DejaVuSans-49"/>
       <use x="63.623047" xlink:href="#DejaVuSans-46"/>
       <use x="95.410156" xlink:href="#DejaVuSans-50"/>
      </g>
     </g>
    </g>
    <g id="xtick_8">
     <g id="line2d_15">
      <path clip-path="url(#pec0c14d27f)" d="M 343.512711 307.584 
L 343.512711 41.472 
" style="fill:none;stroke:#b0b0b0;stroke-linecap:square;stroke-width:0.8;"/>
     </g>
     <g id="line2d_16">
      <g>
       <use style="stroke:#000000;stroke-width:0.8;" x="343.512711" xlink:href="#m98931b8910" y="307.584"/>
      </g>
     </g>
     <g id="text_8">
      <!-- 1.4 -->
      <g transform="translate(335.561148 322.182437)scale(0.1 -0.1)">
       <use xlink:href="#DejaVuSans-49"/>
       <use x="63.623047" xlink:href="#DejaVuSans-46"/>
       <use x="95.410156" xlink:href="#DejaVuSans-52"/>
      </g>
     </g>
    </g>
    <g id="xtick_9">
     <g id="line2d_17">
      <path clip-path="url(#pec0c14d27f)" d="M 384.357384 307.584 
L 384.357384 41.472 
" style="fill:none;stroke:#b0b0b0;stroke-linecap:square;stroke-width:0.8;"/>
     </g>
     <g id="line2d_18">
      <g>
       <use style="stroke:#000000;stroke-width:0.8;" x="384.357384" xlink:href="#m98931b8910" y="307.584"/>
      </g>
     </g>
     <g id="text_9">
      <!-- 1.6 -->
      <g transform="translate(376.405821 322.182437)scale(0.1 -0.1)">
       <use xlink:href="#DejaVuSans-49"/>
       <use x="63.623047" xlink:href="#DejaVuSans-46"/>
       <use x="95.410156" xlink:href="#DejaVuSans-54"/>
      </g>
     </g>
    </g>
    <g id="text_10">
     <!-- Hours -->
     <defs>
      <path d="M 9.8125 72.90625 
L 19.671875 72.90625 
L 19.671875 43.015625 
L 55.515625 43.015625 
L 55.515625 72.90625 
L 65.375 72.90625 
L 65.375 0 
L 55.515625 0 
L 55.515625 34.71875 
L 19.671875 34.71875 
L 19.671875 0 
L 9.8125 0 
z
" id="DejaVuSans-72"/>
      <path d="M 30.609375 48.390625 
Q 23.390625 48.390625 19.1875 42.75 
Q 14.984375 37.109375 14.984375 27.296875 
Q 14.984375 17.484375 19.15625 11.84375 
Q 23.34375 6.203125 30.609375 6.203125 
Q 37.796875 6.203125 41.984375 11.859375 
Q 46.1875 17.53125 46.1875 27.296875 
Q 46.1875 37.015625 41.984375 42.703125 
Q 37.796875 48.390625 30.609375 48.390625 
z
M 30.609375 56 
Q 42.328125 56 49.015625 48.375 
Q 55.71875 40.765625 55.71875 27.296875 
Q 55.71875 13.875 49.015625 6.21875 
Q 42.328125 -1.421875 30.609375 -1.421875 
Q 18.84375 -1.421875 12.171875 6.21875 
Q 5.515625 13.875 5.515625 27.296875 
Q 5.515625 40.765625 12.171875 48.375 
Q 18.84375 56 30.609375 56 
z
" id="DejaVuSans-111"/>
      <path d="M 8.5 21.578125 
L 8.5 54.6875 
L 17.484375 54.6875 
L 17.484375 21.921875 
Q 17.484375 14.15625 20.5 10.265625 
Q 23.53125 6.390625 29.59375 6.390625 
Q 36.859375 6.390625 41.078125 11.03125 
Q 45.3125 15.671875 45.3125 23.6875 
L 45.3125 54.6875 
L 54.296875 54.6875 
L 54.296875 0 
L 45.3125 0 
L 45.3125 8.40625 
Q 42.046875 3.421875 37.71875 1 
Q 33.40625 -1.421875 27.6875 -1.421875 
Q 18.265625 -1.421875 13.375 4.4375 
Q 8.5 10.296875 8.5 21.578125 
z
M 31.109375 56 
z
" id="DejaVuSans-117"/>
      <path d="M 41.109375 46.296875 
Q 39.59375 47.171875 37.8125 47.578125 
Q 36.03125 48 33.890625 48 
Q 26.265625 48 22.1875 43.046875 
Q 18.109375 38.09375 18.109375 28.8125 
L 18.109375 0 
L 9.078125 0 
L 9.078125 54.6875 
L 18.109375 54.6875 
L 18.109375 46.1875 
Q 20.953125 51.171875 25.484375 53.578125 
Q 30.03125 56 36.53125 56 
Q 37.453125 56 38.578125 55.875 
Q 39.703125 55.765625 41.0625 55.515625 
z
" id="DejaVuSans-114"/>
      <path d="M 44.28125 53.078125 
L 44.28125 44.578125 
Q 40.484375 46.53125 36.375 47.5 
Q 32.28125 48.484375 27.875 48.484375 
Q 21.1875 48.484375 17.84375 46.4375 
Q 14.5 44.390625 14.5 40.28125 
Q 14.5 37.15625 16.890625 35.375 
Q 19.28125 33.59375 26.515625 31.984375 
L 29.59375 31.296875 
Q 39.15625 29.25 43.1875 25.515625 
Q 47.21875 21.78125 47.21875 15.09375 
Q 47.21875 7.46875 41.1875 3.015625 
Q 35.15625 -1.421875 24.609375 -1.421875 
Q 20.21875 -1.421875 15.453125 -0.5625 
Q 10.6875 0.296875 5.421875 2 
L 5.421875 11.28125 
Q 10.40625 8.6875 15.234375 7.390625 
Q 20.0625 6.109375 24.8125 6.109375 
Q 31.15625 6.109375 34.5625 8.28125 
Q 37.984375 10.453125 37.984375 14.40625 
Q 37.984375 18.0625 35.515625 20.015625 
Q 33.0625 21.96875 24.703125 23.78125 
L 21.578125 24.515625 
Q 13.234375 26.265625 9.515625 29.90625 
Q 5.8125 33.546875 5.8125 39.890625 
Q 5.8125 47.609375 11.28125 51.796875 
Q 16.75 56 26.8125 56 
Q 31.78125 56 36.171875 55.265625 
Q 40.578125 54.546875 44.28125 53.078125 
z
" id="DejaVuSans-115"/>
     </defs>
     <g transform="translate(221.511562 335.860562)scale(0.1 -0.1)">
      <use xlink:href="#DejaVuSans-72"/>
      <use x="75.195312" xlink:href="#DejaVuSans-111"/>
      <use x="136.376953" xlink:href="#DejaVuSans-117"/>
      <use x="199.755859" xlink:href="#DejaVuSans-114"/>
      <use x="240.869141" xlink:href="#DejaVuSans-115"/>
     </g>
    </g>
   </g>
   <g id="matplotlib.axis_2">
    <g id="ytick_1">
     <g id="line2d_19">
      <path clip-path="url(#pec0c14d27f)" d="M 57.6 279.081174 
L 414.72 279.081174 
" style="fill:none;stroke:#b0b0b0;stroke-linecap:square;stroke-width:0.8;"/>
     </g>
     <g id="line2d_20">
      <defs>
       <path d="M 0 0 
L -3.5 0 
" id="meacd921d0d" style="stroke:#000000;stroke-width:0.8;"/>
      </defs>
      <g>
       <use style="stroke:#000000;stroke-width:0.8;" x="57.6" xlink:href="#meacd921d0d" y="279.081174"/>
      </g>
     </g>
     <g id="text_11">
      <!-- 159.0 -->
      <defs>
       <path d="M 10.796875 72.90625 
L 49.515625 72.90625 
L 49.515625 64.59375 
L 19.828125 64.59375 
L 19.828125 46.734375 
Q 21.96875 47.46875 24.109375 47.828125 
Q 26.265625 48.1875 28.421875 48.1875 
Q 40.625 48.1875 47.75 41.5 
Q 54.890625 34.8125 54.890625 23.390625 
Q 54.890625 11.625 47.5625 5.09375 
Q 40.234375 -1.421875 26.90625 -1.421875 
Q 22.3125 -1.421875 17.546875 -0.640625 
Q 12.796875 0.140625 7.71875 1.703125 
L 7.71875 11.625 
Q 12.109375 9.234375 16.796875 8.0625 
Q 21.484375 6.890625 26.703125 6.890625 
Q 35.15625 6.890625 40.078125 11.328125 
Q 45.015625 15.765625 45.015625 23.390625 
Q 45.015625 31 40.078125 35.4375 
Q 35.15625 39.890625 26.703125 39.890625 
Q 22.75 39.890625 18.8125 39.015625 
Q 14.890625 38.140625 10.796875 36.28125 
z
" id="DejaVuSans-53"/>
       <path d="M 10.984375 1.515625 
L 10.984375 10.5 
Q 14.703125 8.734375 18.5 7.8125 
Q 22.3125 6.890625 25.984375 6.890625 
Q 35.75 6.890625 40.890625 13.453125 
Q 46.046875 20.015625 46.78125 33.40625 
Q 43.953125 29.203125 39.59375 26.953125 
Q 35.25 24.703125 29.984375 24.703125 
Q 19.046875 24.703125 12.671875 31.3125 
Q 6.296875 37.9375 6.296875 49.421875 
Q 6.296875 60.640625 12.9375 67.421875 
Q 19.578125 74.21875 30.609375 74.21875 
Q 43.265625 74.21875 49.921875 64.515625 
Q 56.59375 54.828125 56.59375 36.375 
Q 56.59375 19.140625 48.40625 8.859375 
Q 40.234375 -1.421875 26.421875 -1.421875 
Q 22.703125 -1.421875 18.890625 -0.6875 
Q 15.09375 0.046875 10.984375 1.515625 
z
M 30.609375 32.421875 
Q 37.25 32.421875 41.125 36.953125 
Q 45.015625 41.5 45.015625 49.421875 
Q 45.015625 57.28125 41.125 61.84375 
Q 37.25 66.40625 30.609375 66.40625 
Q 23.96875 66.40625 20.09375 61.84375 
Q 16.21875 57.28125 16.21875 49.421875 
Q 16.21875 41.5 20.09375 36.953125 
Q 23.96875 32.421875 30.609375 32.421875 
z
" id="DejaVuSans-57"/>
      </defs>
      <g transform="translate(21.971875 282.880393)scale(0.1 -0.1)">
       <use xlink:href="#DejaVuSans-49"/>
       <use x="63.623047" xlink:href="#DejaVuSans-53"/>
       <use x="127.246094" xlink:href="#DejaVuSans-57"/>
       <use x="190.869141" xlink:href="#DejaVuSans-46"/>
       <use x="222.65625" xlink:href="#DejaVuSans-48"/>
      </g>
     </g>
    </g>
    <g id="ytick_2">
     <g id="line2d_21">
      <path clip-path="url(#pec0c14d27f)" d="M 57.6 231.445265 
L 414.72 231.445265 
" style="fill:none;stroke:#b0b0b0;stroke-linecap:square;stroke-width:0.8;"/>
     </g>
     <g id="line2d_22">
      <g>
       <use style="stroke:#000000;stroke-width:0.8;" x="57.6" xlink:href="#meacd921d0d" y="231.445265"/>
      </g>
     </g>
     <g id="text_12">
      <!-- 159.5 -->
      <g transform="translate(21.971875 235.244484)scale(0.1 -0.1)">
       <use xlink:href="#DejaVuSans-49"/>
       <use x="63.623047" xlink:href="#DejaVuSans-53"/>
       <use x="127.246094" xlink:href="#DejaVuSans-57"/>
       <use x="190.869141" xlink:href="#DejaVuSans-46"/>
       <use x="222.65625" xlink:href="#DejaVuSans-53"/>
      </g>
     </g>
    </g>
    <g id="ytick_3">
     <g id="line2d_23">
      <path clip-path="url(#pec0c14d27f)" d="M 57.6 183.809356 
L 414.72 183.809356 
" style="fill:none;stroke:#b0b0b0;stroke-linecap:square;stroke-width:0.8;"/>
     </g>
     <g id="line2d_24">
      <g>
       <use style="stroke:#000000;stroke-width:0.8;" x="57.6" xlink:href="#meacd921d0d" y="183.809356"/>
      </g>
     </g>
     <g id="text_13">
      <!-- 160.0 -->
      <g transform="translate(21.971875 187.608574)scale(0.1 -0.1)">
       <use xlink:href="#DejaVuSans-49"/>
       <use x="63.623047" xlink:href="#DejaVuSans-54"/>
       <use x="127.246094" xlink:href="#DejaVuSans-48"/>
       <use x="190.869141" xlink:href="#DejaVuSans-46"/>
       <use x="222.65625" xlink:href="#DejaVuSans-48"/>
      </g>
     </g>
    </g>
    <g id="ytick_4">
     <g id="line2d_25">
      <path clip-path="url(#pec0c14d27f)" d="M 57.6 136.173446 
L 414.72 136.173446 
" style="fill:none;stroke:#b0b0b0;stroke-linecap:square;stroke-width:0.8;"/>
     </g>
     <g id="line2d_26">
      <g>
       <use style="stroke:#000000;stroke-width:0.8;" x="57.6" xlink:href="#meacd921d0d" y="136.173446"/>
      </g>
     </g>
     <g id="text_14">
      <!-- 160.5 -->
      <g transform="translate(21.971875 139.972665)scale(0.1 -0.1)">
       <use xlink:href="#DejaVuSans-49"/>
       <use x="63.623047" xlink:href="#DejaVuSans-54"/>
       <use x="127.246094" xlink:href="#DejaVuSans-48"/>
       <use x="190.869141" xlink:href="#DejaVuSans-46"/>
       <use x="222.65625" xlink:href="#DejaVuSans-53"/>
      </g>
     </g>
    </g>
    <g id="ytick_5">
     <g id="line2d_27">
      <path clip-path="url(#pec0c14d27f)" d="M 57.6 88.537537 
L 414.72 88.537537 
" style="fill:none;stroke:#b0b0b0;stroke-linecap:square;stroke-width:0.8;"/>
     </g>
     <g id="line2d_28">
      <g>
       <use style="stroke:#000000;stroke-width:0.8;" x="57.6" xlink:href="#meacd921d0d" y="88.537537"/>
      </g>
     </g>
     <g id="text_15">
      <!-- 161.0 -->
      <g transform="translate(21.971875 92.336756)scale(0.1 -0.1)">
       <use xlink:href="#DejaVuSans-49"/>
       <use x="63.623047" xlink:href="#DejaVuSans-54"/>
       <use x="127.246094" xlink:href="#DejaVuSans-49"/>
       <use x="190.869141" xlink:href="#DejaVuSans-46"/>
       <use x="222.65625" xlink:href="#DejaVuSans-48"/>
      </g>
     </g>
    </g>
    <g id="text_16">
     <!-- FPS -->
     <defs>
      <path d="M 9.8125 72.90625 
L 51.703125 72.90625 
L 51.703125 64.59375 
L 19.671875 64.59375 
L 19.671875 43.109375 
L 48.578125 43.109375 
L 48.578125 34.8125 
L 19.671875 34.8125 
L 19.671875 0 
L 9.8125 0 
z
" id="DejaVuSans-70"/>
      <path d="M 19.671875 64.796875 
L 19.671875 37.40625 
L 32.078125 37.40625 
Q 38.96875 37.40625 42.71875 40.96875 
Q 46.484375 44.53125 46.484375 51.125 
Q 46.484375 57.671875 42.71875 61.234375 
Q 38.96875 64.796875 32.078125 64.796875 
z
M 9.8125 72.90625 
L 32.078125 72.90625 
Q 44.34375 72.90625 50.609375 67.359375 
Q 56.890625 61.8125 56.890625 51.125 
Q 56.890625 40.328125 50.609375 34.8125 
Q 44.34375 29.296875 32.078125 29.296875 
L 19.671875 29.296875 
L 19.671875 0 
L 9.8125 0 
z
" id="DejaVuSans-80"/>
      <path d="M 53.515625 70.515625 
L 53.515625 60.890625 
Q 47.90625 63.578125 42.921875 64.890625 
Q 37.9375 66.21875 33.296875 66.21875 
Q 25.25 66.21875 20.875 63.09375 
Q 16.5 59.96875 16.5 54.203125 
Q 16.5 49.359375 19.40625 46.890625 
Q 22.3125 44.4375 30.421875 42.921875 
L 36.375 41.703125 
Q 47.40625 39.59375 52.65625 34.296875 
Q 57.90625 29 57.90625 20.125 
Q 57.90625 9.515625 50.796875 4.046875 
Q 43.703125 -1.421875 29.984375 -1.421875 
Q 24.8125 -1.421875 18.96875 -0.25 
Q 13.140625 0.921875 6.890625 3.21875 
L 6.890625 13.375 
Q 12.890625 10.015625 18.65625 8.296875 
Q 24.421875 6.59375 29.984375 6.59375 
Q 38.421875 6.59375 43.015625 9.90625 
Q 47.609375 13.234375 47.609375 19.390625 
Q 47.609375 24.75 44.3125 27.78125 
Q 41.015625 30.8125 33.5 32.328125 
L 27.484375 33.5 
Q 16.453125 35.6875 11.515625 40.375 
Q 6.59375 45.0625 6.59375 53.421875 
Q 6.59375 63.09375 13.40625 68.65625 
Q 20.21875 74.21875 32.171875 74.21875 
Q 37.3125 74.21875 42.625 73.28125 
Q 47.953125 72.359375 53.515625 70.515625 
z
" id="DejaVuSans-83"/>
     </defs>
     <g transform="translate(15.892188 183.592844)rotate(-90)scale(0.1 -0.1)">
      <use xlink:href="#DejaVuSans-70"/>
      <use x="57.519531" xlink:href="#DejaVuSans-80"/>
      <use x="117.822266" xlink:href="#DejaVuSans-83"/>
     </g>
    </g>
   </g>
   <g id="line2d_29">
    <path clip-path="url(#pec0c14d27f)" d="M 57.6 77.077763 
L 57.838648 77.077763 
L 58.467126 100.096165 
L 58.571835 96.556326 
L 58.956615 94.180927 
L 59.50051 92.011958 
L 59.606319 107.268882 
L 60.308594 104.67833 
L 60.731338 104.186968 
L 61.453055 109.482916 
L 62.465601 112.022587 
L 62.569766 106.963598 
L 62.895464 114.954766 
L 63.453558 111.920826 
L 63.522955 107.811124 
L 65.079402 114.589879 
L 65.254269 111.608273 
L 65.77956 106.626332 
L 65.98758 101.929322 
L 66.161896 101.929322 
L 66.425255 103.628735 
L 66.633925 112.636062 
L 67.928903 104.428288 
L 68.214348 106.943245 
L 68.964051 115.325468 
L 69.244939 114.341291 
L 69.95561 119.531116 
L 71.884954 109.36371 
L 72.690425 102.211346 
L 73.329682 106.076821 
L 73.364828 106.076821 
L 73.722094 107.090072 
L 74.388114 106.489681 
L 75.132025 109.189262 
L 75.73072 107.254344 
L 75.906628 107.254344 
L 76.863732 114.115962 
L 77.209807 103.955825 
L 77.417825 103.955825 
L 77.694205 98.934633 
L 78.931797 98.060939 
L 79.350976 93.180759 
L 79.592452 93.180759 
L 79.698032 87.181205 
L 80.296876 87.197196 
L 80.649426 87.942961 
L 82.173177 96.099854 
L 82.453849 94.691187 
L 82.73587 94.285596 
L 83.04983 92.878383 
L 83.645866 89.098678 
L 83.954713 81.719531 
L 84.230125 81.719531 
L 84.470357 74.495934 
L 84.641806 74.495934 
L 84.710897 66.730095 
L 84.952197 66.730095 
L 85.089973 60.313319 
L 85.235368 60.313319 
L 85.477217 61.931324 
L 86.277419 53.568 
L 86.417318 53.568 
L 87.835825 62.162467 
L 88.046806 61.919694 
L 88.540561 63.155366 
L 88.685317 63.155366 
L 89.003824 67.426433 
L 89.286009 67.426433 
L 90.174092 73.799596 
L 90.28132 73.799596 
L 90.608868 84.019336 
L 90.892144 85.221573 
L 91.246321 85.221573 
L 91.494653 87.028563 
L 91.672925 87.028563 
L 92.318171 89.339998 
L 92.42448 95.300301 
L 92.74441 95.300301 
L 93.816398 101.626945 
L 94.275925 109.013361 
L 95.024773 108.956665 
L 95.20193 114.332568 
L 95.563249 115.658372 
L 95.775889 115.658372 
L 95.953332 121.881801 
L 96.310067 124.617726 
L 97.800204 128.850995 
L 98.012762 128.850995 
L 98.64874 128.9891 
L 99.115645 129.253679 
L 99.5782 133.957958 
L 100.500187 137.092205 
L 100.934202 142.510267 
L 101.324381 142.510267 
L 101.538158 143.604927 
L 102.248574 145.550022 
L 102.471741 152.511947 
L 102.719928 152.511947 
L 102.93408 153.272249 
L 103.609926 154.599507 
L 103.999993 154.599507 
L 104.223176 156.931294 
L 104.258979 156.931294 
L 106.077325 168.341641 
L 106.218827 168.341641 
L 107.000205 168.850447 
L 107.4251 169.520618 
L 107.784218 172.303062 
L 107.92516 172.303062 
L 108.84195 171.006333 
L 109.230642 169.424672 
L 109.52184 169.424672 
L 109.735867 172.545836 
L 110.873468 174.508375 
L 111.018805 174.508375 
L 111.908287 178.850674 
L 112.513252 180.471586 
L 113.054343 185.107539 
L 113.800271 185.193309 
L 114.589267 185.737005 
L 114.767249 190.846875 
L 115.334986 190.846875 
L 115.761495 191.621715 
L 116.045892 191.621715 
L 116.303515 191.783079 
L 116.552304 191.783079 
L 116.872744 197.134269 
L 117.156874 197.134269 
L 117.264489 197.634353 
L 117.831739 197.634353 
L 118.192781 200.653755 
L 118.405609 200.653755 
L 118.511833 199.59253 
L 118.830414 199.59253 
L 119.537529 198.983416 
L 119.860401 198.144613 
L 120.074354 198.144613 
L 120.3565 199.181124 
L 120.67415 199.181124 
L 120.921012 197.377042 
L 121.666452 195.655822 
L 122.30115 195.568599 
L 122.61778 193.363286 
L 123.191479 193.363286 
L 123.474334 195.745954 
L 124.672766 193.661301 
L 124.889622 192.101446 
L 125.492946 193.870639 
L 126.026853 193.870639 
L 126.67531 195.072876 
L 127.248184 199.961778 
L 128.031129 202.591581 
L 128.32423 202.591581 
L 128.923796 205.967148 
L 129.138507 205.967148 
L 129.99822 210.24839 
L 130.458679 210.24839 
L 130.600445 209.50844 
L 131.277614 209.50844 
L 133.024983 213.334664 
L 133.418945 213.334664 
L 133.739009 214.410426 
L 134.163538 214.410426 
L 134.587407 213.679199 
L 135.229908 213.679199 
L 135.372437 214.214173 
L 136.07923 213.08753 
L 136.644452 213.08753 
L 137.005484 211.444812 
L 137.184016 211.444812 
L 137.860378 213.907435 
L 138.649515 213.907435 
L 138.793224 216.75239 
L 139.256855 216.75239 
L 140.145809 217.173972 
L 140.475548 217.173972 
L 141.835374 223.612554 
L 143.405663 226.649401 
L 143.696827 226.649401 
L 144.018674 229.549598 
L 144.267184 229.549598 
L 145.193699 230.18924 
L 145.62912 234.419602 
L 146.305475 234.419602 
L 146.518525 234.554799 
L 147.378271 234.554799 
L 147.592577 236.043421 
L 148.482253 236.043421 
L 148.915256 236.47518 
L 149.479139 236.47518 
L 150.079126 236.667072 
L 150.325577 233.899165 
L 151.037258 233.899165 
L 151.216311 233.692735 
L 152.926232 233.638947 
L 153.174225 234.522817 
L 153.703632 234.522817 
L 154.239937 232.334949 
L 154.733646 232.334949 
L 155.976643 231.845041 
L 156.047661 231.988961 
L 156.682971 231.988961 
L 157.211975 229.604839 
L 158.912135 228.4404 
L 159.239408 228.4404 
L 159.559393 230.160165 
L 159.774061 230.160165 
L 160.629725 231.214121 
L 162.312029 235.097041 
L 162.595501 235.097041 
L 163.420518 235.979457 
L 164.023295 235.979457 
L 164.560945 235.267128 
L 164.949088 235.267128 
L 166.011845 235.075235 
L 167.004193 234.505372 
L 167.823535 232.808866 
L 168.356195 232.808866 
L 168.641037 233.143225 
L 169.210954 233.143225 
L 169.789112 235.595671 
L 170.468486 237.135174 
L 170.823035 237.135174 
L 171.787704 237.918736 
L 172.28482 237.918736 
L 173.178012 237.744288 
L 173.497317 239.248901 
L 174.344844 237.037774 
L 175.167051 237.037774 
L 175.769166 237.297992 
L 176.874796 237.89693 
L 177.227253 237.89693 
L 177.831042 236.252759 
L 178.007854 236.252759 
L 178.797835 238.683399 
L 179.081599 238.683399 
L 179.544177 237.520413 
L 180.469807 237.520413 
L 180.57575 237.786446 
L 181.180672 237.786446 
L 181.721579 239.670484 
L 182.968382 239.714096 
L 183.543524 241.816193 
L 184.144258 241.816193 
L 184.852732 240.006296 
L 185.496811 240.006296 
L 185.638149 240.532547 
L 186.45191 240.532547 
L 186.843534 238.747364 
L 187.339622 238.747364 
L 188.482099 237.960894 
L 189.333169 239.097713 
L 189.545245 239.097713 
L 189.865188 237.511691 
L 191.250833 237.571294 
L 191.781498 236.600201 
L 192.7119 236.600201 
L 193.064771 237.446273 
L 193.20753 237.446273 
L 194.416324 236.693239 
L 194.663204 236.693239 
L 196.510169 236.344344 
L 196.764438 236.739759 
L 197.736491 236.739759 
L 198.515707 240.039732 
L 198.914358 240.720079 
L 199.448665 240.720079 
L 199.874907 241.548706 
L 200.735697 241.548706 
L 202.417853 242.913761 
L 202.987818 242.913761 
L 205.589614 246.056731 
L 206.307793 246.056731 
L 207.196774 247.95676 
L 207.773549 247.95676 
L 208.164045 249.243313 
L 208.624088 249.243313 
L 209.163959 249.477364 
L 210.088704 249.477364 
L 210.482047 249.616922 
L 211.343722 249.616922 
L 212.265402 251.371577 
L 212.591207 251.371577 
L 213.126514 251.886199 
L 213.767174 251.886199 
L 214.555108 251.631795 
L 215.841819 252.434256 
L 216.060848 252.434256 
L 216.664599 255.295202 
L 217.302986 255.295202 
L 218.129128 255.911584 
L 218.838469 255.911584 
L 219.837034 254.978288 
L 220.331329 254.978288 
L 220.475376 254.770404 
L 220.900846 254.770404 
L 221.516441 256.652988 
L 222.512859 256.652988 
L 222.948036 256.881224 
L 223.621736 256.881224 
L 224.725265 257.369678 
L 225.292463 257.078931 
L 226.464947 257.078931 
L 226.785879 256.154358 
L 229.067991 256.087486 
L 229.49599 256.698054 
L 230.259785 256.698054 
L 231.008032 260.296042 
L 231.727579 260.296042 
L 232.684518 261.925676 
L 233.151853 259.971859 
L 233.97132 259.971859 
L 235.539509 261.476473 
L 236.679232 261.476473 
L 236.92891 261.03163 
L 237.571032 261.03163 
L 238.575097 261.16392 
L 239.360627 261.16392 
L 239.574494 263.02179 
L 240.682817 263.02179 
L 241.286677 264.046672 
L 241.929072 264.046672 
L 242.212497 263.385223 
L 243.341673 263.385223 
L 244.278086 261.557882 
L 245.096553 262.744127 
L 246.132155 263.289277 
L 247.09844 263.289277 
L 247.633428 264.296714 
L 248.347532 264.481338 
L 249.204041 264.481338 
L 249.769729 264.788075 
L 250.551143 261.665458 
L 250.72721 261.665458 
L 252.430651 260.018379 
L 253.209902 260.018379 
L 254.073079 258.586452 
L 254.356297 258.586452 
L 254.960897 259.650584 
L 255.713465 259.650584 
L 255.925384 260.485027 
L 256.880041 260.485027 
L 257.243924 257.903198 
L 258.307244 259.089444 
L 258.984936 259.089444 
L 260.439321 258.544294 
L 260.546422 257.452541 
L 261.192098 257.452541 
L 261.833754 258.304428 
L 262.547777 258.304428 
L 262.725852 259.04147 
L 264.54675 259.128694 
L 265.583723 260.214633 
L 265.838162 260.214633 
L 266.481092 262.810999 
L 266.802181 263.184608 
L 267.477289 263.184608 
L 268.050415 263.485531 
L 268.724359 262.350166 
L 269.440025 262.350166 
L 270.078611 263.324167 
L 270.788238 262.166996 
L 270.968932 262.166996 
L 271.293797 263.828612 
L 271.787931 263.828612 
L 272.565214 261.413962 
L 273.204977 260.047453 
L 273.522902 260.047453 
L 274.16021 257.664786 
L 274.807262 257.664786 
L 275.091533 258.930987 
L 275.588015 258.930987 
L 275.73007 257.281 
L 276.558768 257.281 
L 276.983797 259.291512 
L 277.550472 259.291512 
L 278.020544 257.616813 
L 278.876432 257.616813 
L 279.125549 259.669483 
L 279.807848 259.669483 
L 280.730851 259.544462 
L 281.976589 259.702919 
L 282.582095 259.034202 
L 282.977397 259.034202 
L 283.372472 260.876081 
L 283.832629 260.876081 
L 284.684726 259.884635 
L 286.642562 258.095091 
L 286.786077 258.465792 
L 287.247359 258.465792 
L 288.06696 258.241918 
L 288.250646 258.241918 
L 288.606356 260.160845 
L 289.313645 260.160845 
L 290.027482 257.986061 
L 290.88513 258.820503 
L 291.242409 258.820503 
L 291.59984 259.855561 
L 291.925424 259.855561 
L 292.032182 261.730876 
L 292.56562 261.730876 
L 293.854749 263.161349 
L 294.711229 263.161349 
L 294.966894 263.638173 
L 295.651474 263.638173 
L 295.7945 267.893248 
L 296.758938 267.893248 
L 296.906572 269.707506 
L 297.692015 269.707506 
L 298.701381 271.725287 
L 299.593077 274.025092 
L 300.634559 273.924785 
L 300.918905 276.829342 
L 301.20181 276.829342 
L 301.449522 274.814469 
L 302.376862 274.597863 
L 302.875871 274.321654 
L 303.772521 274.052713 
L 304.375484 274.977287 
L 304.906966 274.977287 
L 305.119501 272.728363 
L 305.836063 272.728363 
L 306.472805 273.670381 
L 306.61533 273.670381 
L 307.366154 272.598981 
L 307.756169 272.598981 
L 308.215895 270.447456 
L 308.429052 270.447456 
L 308.935937 272.825763 
L 309.360358 272.825763 
L 309.895847 272.276252 
L 310.217591 272.181759 
L 311.14494 272.911533 
L 311.640006 270.614636 
L 312.099981 270.614636 
L 312.355918 271.891013 
L 313.062046 271.891013 
L 313.380836 269.184163 
L 313.699977 269.184163 
L 313.8062 267.021009 
L 314.488526 267.021009 
L 314.597151 269.415306 
L 314.917207 269.415306 
L 315.380287 268.939936 
L 316.237784 270.416928 
L 316.804195 270.416928 
L 317.193604 268.588132 
L 317.839892 269.572309 
L 318.44409 269.572309 
L 318.69378 268.896324 
L 318.907621 268.896324 
L 319.734191 270.280277 
L 320.268337 270.280277 
L 320.410847 271.023134 
L 321.480567 272.36493 
L 321.906191 269.844157 
L 323.223525 269.831074 
L 323.791462 268.428222 
L 324.0393 268.428222 
L 324.331841 266.766605 
L 325.007777 269.822351 
L 325.610662 268.231968 
L 326.539229 268.295932 
L 327.932262 266.853829 
L 329.064008 266.580528 
L 329.634163 266.580528 
L 329.669986 265.874014 
L 330.201442 265.874014 
L 330.592646 263.995791 
L 331.053682 263.995791 
L 331.736738 263.088662 
L 331.986107 263.088662 
L 332.057684 265.208204 
L 332.557311 265.208204 
L 332.701474 265.591989 
L 333.204375 265.591989 
L 333.916709 268.77421 
L 334.198855 267.592326 
L 334.588596 267.592326 
L 334.987334 266.516563 
L 335.805134 267.891794 
L 335.983158 267.891794 
L 336.598861 267.182373 
L 338.341154 267.861266 
L 338.484499 267.861266 
L 339.126843 268.8091 
L 339.340162 268.8091 
L 340.878424 270.597191 
L 341.484182 270.597191 
L 342.093022 272.161407 
L 342.555123 271.159785 
L 343.088307 271.159785 
L 343.627703 270.347149 
L 343.698512 270.347149 
L 343.841084 272.268983 
L 344.126346 272.268983 
L 346.271453 272.846115 
L 346.522264 275.779747 
L 347.136095 275.779747 
L 347.386897 278.663953 
L 348.845804 277.498059 
L 350.136221 277.301805 
L 350.850733 280.489841 
L 351.169272 280.489841 
L 351.811496 278.880559 
L 352.133475 278.880559 
L 352.453075 279.784781 
L 352.737133 279.784781 
L 353.525009 278.262723 
L 353.708114 281.232698 
L 353.920658 281.232698 
L 354.381462 279.572536 
L 354.912077 279.572536 
L 355.23018 277.016874 
L 357.047396 274.618215 
L 357.543714 275.13429 
L 357.721581 275.13429 
L 358.289085 272.85193 
L 358.430093 272.85193 
L 358.536449 270.919919 
L 359.039496 270.919919 
L 359.182419 272.523386 
L 359.713715 272.523386 
L 359.890583 270.857409 
L 360.427241 270.857409 
L 361.534253 271.861938 
L 361.962685 271.861938 
L 362.400997 271.975329 
L 362.9007 276.657802 
L 363.220291 276.657802 
L 363.754086 276.377231 
L 364.150339 277.543125 
L 364.755508 277.543125 
L 366.118001 278.159508 
L 366.296776 280.313939 
L 366.579417 280.313939 
L 367.726331 282.190708 
L 368.223063 280.152575 
L 369.189229 278.634878 
L 369.542295 278.634878 
L 370.181266 280.598871 
L 370.358038 278.181314 
L 371.001755 278.181314 
L 371.108447 278.55783 
L 371.852837 278.55783 
L 372.242559 276.683969 
L 372.744669 276.683969 
L 373.20906 276.942733 
L 373.959045 276.922381 
L 374.13911 277.349779 
L 374.959945 278.951792 
L 375.136838 278.951792 
L 375.527204 277.070662 
L 375.960095 277.070662 
L 376.562855 278.934347 
L 376.77539 276.442649 
L 377.200673 276.442649 
L 377.413185 274.619669 
L 377.879217 274.619669 
L 378.447041 274.908962 
L 379.4104 273.44796 
L 379.693366 273.852098 
L 380.04744 273.852098 
L 380.438997 271.867753 
L 381.189063 270.603006 
L 381.827667 271.771807 
L 383.008504 270.03605 
L 383.221881 272.517571 
L 385.398702 272.157046 
L 385.50673 273.684919 
L 385.757493 273.684919 
L 386.733693 278.999765 
L 387.482921 279.09135 
L 387.840413 278.903819 
L 388.490399 282.711144 
L 388.738889 282.711144 
L 389.881645 282.181986 
L 390.060891 282.557049 
L 390.523447 282.557049 
L 390.631417 282.692246 
L 391.199479 282.692246 
L 392.271772 282.424759 
L 392.98506 281.854896 
L 393.240964 281.854896 
L 394.16725 283.547041 
L 394.665832 283.547041 
L 395.957399 285.955875 
L 396.676867 286.269882 
L 396.995955 288.559511 
L 397.354758 288.559511 
L 397.708306 287.839913 
L 398.494341 286.743799 
L 398.884633 286.743799 
L 399.278548 286.460321 
L 399.850053 286.668204 
L 400.706106 288.716514 
L 400.91959 286.66239 
L 401.060951 286.66239 
L 401.785494 286.992387 
L 402.105186 286.992387 
L 402.388822 289.532058 
L 404.245298 289.629458 
L 404.599177 288.527528 
L 405.20649 288.527528 
L 406.447557 285.099627 
L 407.984693 285.306057 
L 408.996548 291.41028 
L 409.849931 290.516235 
L 410.205489 289.588753 
L 412.183043 294.364265 
L 412.644855 294.364265 
L 413.864159 293.833652 
L 414.72 295.488 
L 414.72 295.488 
" style="fill:none;stroke:#000000;stroke-linecap:square;stroke-width:0.8;"/>
   </g>
   <g id="patch_3">
    <path d="M 57.6 307.584 
L 57.6 41.472 
" style="fill:none;stroke:#000000;stroke-linecap:square;stroke-linejoin:miter;stroke-width:0.8;"/>
   </g>
   <g id="patch_4">
    <path d="M 414.72 307.584 
L 414.72 41.472 
" style="fill:none;stroke:#000000;stroke-linecap:square;stroke-linejoin:miter;stroke-width:0.8;"/>
   </g>
   <g id="patch_5">
    <path d="M 57.6 307.584 
L 414.72 307.584 
" style="fill:none;stroke:#000000;stroke-linecap:square;stroke-linejoin:miter;stroke-width:0.8;"/>
   </g>
   <g id="patch_6">
    <path d="M 57.6 41.472 
L 414.72 41.472 
" style="fill:none;stroke:#000000;stroke-linecap:square;stroke-linejoin:miter;stroke-width:0.8;"/>
   </g>
  </g>
  <g id="axes_2">
   <g id="matplotlib.axis_3">
    <g id="xtick_10">
     <g id="line2d_30">
      <defs>
       <path d="M 0 0 
L 0 -3.5 
" id="m42b7702bb2" style="stroke:#000000;stroke-width:0.8;"/>
      </defs>
      <g>
       <use style="stroke:#000000;stroke-width:0.8;" x="57.6" xlink:href="#m42b7702bb2" y="41.472"/>
      </g>
     </g>
    </g>
    <g id="xtick_11">
     <g id="line2d_31">
      <g>
       <use style="stroke:#000000;stroke-width:0.8;" x="128.704032" xlink:href="#m42b7702bb2" y="41.472"/>
      </g>
     </g>
     <g id="text_17">
      <!-- 200K -->
      <defs>
       <path d="M 9.8125 72.90625 
L 19.671875 72.90625 
L 19.671875 42.09375 
L 52.390625 72.90625 
L 65.09375 72.90625 
L 28.90625 38.921875 
L 67.671875 0 
L 54.6875 0 
L 19.671875 35.109375 
L 19.671875 0 
L 9.8125 0 
z
" id="DejaVuSans-75"/>
      </defs>
      <g transform="translate(115.881376 32.392313)scale(0.1 -0.1)">
       <use xlink:href="#DejaVuSans-50"/>
       <use x="63.623047" xlink:href="#DejaVuSans-48"/>
       <use x="127.246094" xlink:href="#DejaVuSans-48"/>
       <use x="190.869141" xlink:href="#DejaVuSans-75"/>
      </g>
     </g>
    </g>
    <g id="xtick_12">
     <g id="line2d_32">
      <g>
       <use style="stroke:#000000;stroke-width:0.8;" x="199.808064" xlink:href="#m42b7702bb2" y="41.472"/>
      </g>
     </g>
     <g id="text_18">
      <!-- 400K -->
      <g transform="translate(186.985407 32.392313)scale(0.1 -0.1)">
       <use xlink:href="#DejaVuSans-52"/>
       <use x="63.623047" xlink:href="#DejaVuSans-48"/>
       <use x="127.246094" xlink:href="#DejaVuSans-48"/>
       <use x="190.869141" xlink:href="#DejaVuSans-75"/>
      </g>
     </g>
    </g>
    <g id="xtick_13">
     <g id="line2d_33">
      <g>
       <use style="stroke:#000000;stroke-width:0.8;" x="270.912096" xlink:href="#m42b7702bb2" y="41.472"/>
      </g>
     </g>
     <g id="text_19">
      <!-- 600K -->
      <g transform="translate(258.089439 32.392313)scale(0.1 -0.1)">
       <use xlink:href="#DejaVuSans-54"/>
       <use x="63.623047" xlink:href="#DejaVuSans-48"/>
       <use x="127.246094" xlink:href="#DejaVuSans-48"/>
       <use x="190.869141" xlink:href="#DejaVuSans-75"/>
      </g>
     </g>
    </g>
    <g id="xtick_14">
     <g id="line2d_34">
      <g>
       <use style="stroke:#000000;stroke-width:0.8;" x="342.016127" xlink:href="#m42b7702bb2" y="41.472"/>
      </g>
     </g>
     <g id="text_20">
      <!-- 800K -->
      <g transform="translate(329.193471 32.392313)scale(0.1 -0.1)">
       <use xlink:href="#DejaVuSans-56"/>
       <use x="63.623047" xlink:href="#DejaVuSans-48"/>
       <use x="127.246094" xlink:href="#DejaVuSans-48"/>
       <use x="190.869141" xlink:href="#DejaVuSans-75"/>
      </g>
     </g>
    </g>
    <g id="xtick_15">
     <g id="line2d_35">
      <g>
       <use style="stroke:#000000;stroke-width:0.8;" x="413.120159" xlink:href="#m42b7702bb2" y="41.472"/>
      </g>
     </g>
     <g id="text_21">
      <!-- 1,000K -->
      <defs>
       <path d="M 11.71875 12.40625 
L 22.015625 12.40625 
L 22.015625 4 
L 14.015625 -11.625 
L 7.71875 -11.625 
L 11.71875 4 
z
" id="DejaVuSans-44"/>
      </defs>
      <g transform="translate(395.527191 32.392313)scale(0.1 -0.1)">
       <use xlink:href="#DejaVuSans-49"/>
       <use x="63.623047" xlink:href="#DejaVuSans-44"/>
       <use x="95.410156" xlink:href="#DejaVuSans-48"/>
       <use x="159.033203" xlink:href="#DejaVuSans-48"/>
       <use x="222.65625" xlink:href="#DejaVuSans-48"/>
       <use x="286.279297" xlink:href="#DejaVuSans-75"/>
      </g>
     </g>
    </g>
    <g id="text_22">
     <!-- Train steps -->
     <defs>
      <path d="M -0.296875 72.90625 
L 61.375 72.90625 
L 61.375 64.59375 
L 35.5 64.59375 
L 35.5 0 
L 25.59375 0 
L 25.59375 64.59375 
L -0.296875 64.59375 
z
" id="DejaVuSans-84"/>
      <path d="M 34.28125 27.484375 
Q 23.390625 27.484375 19.1875 25 
Q 14.984375 22.515625 14.984375 16.5 
Q 14.984375 11.71875 18.140625 8.90625 
Q 21.296875 6.109375 26.703125 6.109375 
Q 34.1875 6.109375 38.703125 11.40625 
Q 43.21875 16.703125 43.21875 25.484375 
L 43.21875 27.484375 
z
M 52.203125 31.203125 
L 52.203125 0 
L 43.21875 0 
L 43.21875 8.296875 
Q 40.140625 3.328125 35.546875 0.953125 
Q 30.953125 -1.421875 24.3125 -1.421875 
Q 15.921875 -1.421875 10.953125 3.296875 
Q 6 8.015625 6 15.921875 
Q 6 25.140625 12.171875 29.828125 
Q 18.359375 34.515625 30.609375 34.515625 
L 43.21875 34.515625 
L 43.21875 35.40625 
Q 43.21875 41.609375 39.140625 45 
Q 35.0625 48.390625 27.6875 48.390625 
Q 23 48.390625 18.546875 47.265625 
Q 14.109375 46.140625 10.015625 43.890625 
L 10.015625 52.203125 
Q 14.9375 54.109375 19.578125 55.046875 
Q 24.21875 56 28.609375 56 
Q 40.484375 56 46.34375 49.84375 
Q 52.203125 43.703125 52.203125 31.203125 
z
" id="DejaVuSans-97"/>
      <path d="M 9.421875 54.6875 
L 18.40625 54.6875 
L 18.40625 0 
L 9.421875 0 
z
M 9.421875 75.984375 
L 18.40625 75.984375 
L 18.40625 64.59375 
L 9.421875 64.59375 
z
" id="DejaVuSans-105"/>
      <path d="M 54.890625 33.015625 
L 54.890625 0 
L 45.90625 0 
L 45.90625 32.71875 
Q 45.90625 40.484375 42.875 44.328125 
Q 39.84375 48.1875 33.796875 48.1875 
Q 26.515625 48.1875 22.3125 43.546875 
Q 18.109375 38.921875 18.109375 30.90625 
L 18.109375 0 
L 9.078125 0 
L 9.078125 54.6875 
L 18.109375 54.6875 
L 18.109375 46.1875 
Q 21.34375 51.125 25.703125 53.5625 
Q 30.078125 56 35.796875 56 
Q 45.21875 56 50.046875 50.171875 
Q 54.890625 44.34375 54.890625 33.015625 
z
" id="DejaVuSans-110"/>
      <path id="DejaVuSans-32"/>
      <path d="M 18.3125 70.21875 
L 18.3125 54.6875 
L 36.8125 54.6875 
L 36.8125 47.703125 
L 18.3125 47.703125 
L 18.3125 18.015625 
Q 18.3125 11.328125 20.140625 9.421875 
Q 21.96875 7.515625 27.59375 7.515625 
L 36.8125 7.515625 
L 36.8125 0 
L 27.59375 0 
Q 17.1875 0 13.234375 3.875 
Q 9.28125 7.765625 9.28125 18.015625 
L 9.28125 47.703125 
L 2.6875 47.703125 
L 2.6875 54.6875 
L 9.28125 54.6875 
L 9.28125 70.21875 
z
" id="DejaVuSans-116"/>
      <path d="M 56.203125 29.59375 
L 56.203125 25.203125 
L 14.890625 25.203125 
Q 15.484375 15.921875 20.484375 11.0625 
Q 25.484375 6.203125 34.421875 6.203125 
Q 39.59375 6.203125 44.453125 7.46875 
Q 49.3125 8.734375 54.109375 11.28125 
L 54.109375 2.78125 
Q 49.265625 0.734375 44.1875 -0.34375 
Q 39.109375 -1.421875 33.890625 -1.421875 
Q 20.796875 -1.421875 13.15625 6.1875 
Q 5.515625 13.8125 5.515625 26.8125 
Q 5.515625 40.234375 12.765625 48.109375 
Q 20.015625 56 32.328125 56 
Q 43.359375 56 49.78125 48.890625 
Q 56.203125 41.796875 56.203125 29.59375 
z
M 47.21875 32.234375 
Q 47.125 39.59375 43.09375 43.984375 
Q 39.0625 48.390625 32.421875 48.390625 
Q 24.90625 48.390625 20.390625 44.140625 
Q 15.875 39.890625 15.1875 32.171875 
z
" id="DejaVuSans-101"/>
      <path d="M 18.109375 8.203125 
L 18.109375 -20.796875 
L 9.078125 -20.796875 
L 9.078125 54.6875 
L 18.109375 54.6875 
L 18.109375 46.390625 
Q 20.953125 51.265625 25.265625 53.625 
Q 29.59375 56 35.59375 56 
Q 45.5625 56 51.78125 48.09375 
Q 58.015625 40.1875 58.015625 27.296875 
Q 58.015625 14.40625 51.78125 6.484375 
Q 45.5625 -1.421875 35.59375 -1.421875 
Q 29.59375 -1.421875 25.265625 0.953125 
Q 20.953125 3.328125 18.109375 8.203125 
z
M 48.6875 27.296875 
Q 48.6875 37.203125 44.609375 42.84375 
Q 40.53125 48.484375 33.40625 48.484375 
Q 26.265625 48.484375 22.1875 42.84375 
Q 18.109375 37.203125 18.109375 27.296875 
Q 18.109375 17.390625 22.1875 11.75 
Q 26.265625 6.109375 33.40625 6.109375 
Q 40.53125 6.109375 44.609375 11.75 
Q 48.6875 17.390625 48.6875 27.296875 
z
" id="DejaVuSans-112"/>
     </defs>
     <g transform="translate(208.430312 20.793875)scale(0.1 -0.1)">
      <use xlink:href="#DejaVuSans-84"/>
      <use x="60.865234" xlink:href="#DejaVuSans-114"/>
      <use x="101.978516" xlink:href="#DejaVuSans-97"/>
      <use x="163.257812" xlink:href="#DejaVuSans-105"/>
      <use x="191.041016" xlink:href="#DejaVuSans-110"/>
      <use x="254.419922" xlink:href="#DejaVuSans-32"/>
      <use x="286.207031" xlink:href="#DejaVuSans-115"/>
      <use x="338.306641" xlink:href="#DejaVuSans-116"/>
      <use x="377.515625" xlink:href="#DejaVuSans-101"/>
      <use x="439.039062" xlink:href="#DejaVuSans-112"/>
      <use x="502.515625" xlink:href="#DejaVuSans-115"/>
     </g>
    </g>
   </g>
   <g id="patch_7">
    <path d="M 57.6 307.584 
L 57.6 41.472 
" style="fill:none;stroke:#000000;stroke-linecap:square;stroke-linejoin:miter;stroke-width:0.8;"/>
   </g>
   <g id="patch_8">
    <path d="M 414.72 307.584 
L 414.72 41.472 
" style="fill:none;stroke:#000000;stroke-linecap:square;stroke-linejoin:miter;stroke-width:0.8;"/>
   </g>
   <g id="patch_9">
    <path d="M 57.6 307.584 
L 414.72 307.584 
" style="fill:none;stroke:#000000;stroke-linecap:square;stroke-linejoin:miter;stroke-width:0.8;"/>
   </g>
   <g id="patch_10">
    <path d="M 57.6 41.472 
L 414.72 41.472 
" style="fill:none;stroke:#000000;stroke-linecap:square;stroke-linejoin:miter;stroke-width:0.8;"/>
   </g>
  </g>
 </g>
 <defs>
  <clipPath id="pec0c14d27f">
   <rect height="266.112" width="357.12" x="57.6" y="41.472"/>
  </clipPath>
 </defs>
</svg>
