<?xml version="1.0" encoding="utf-8" standalone="no"?>
<!DOCTYPE svg PUBLIC "-//W3C//DTD SVG 1.1//EN"
  "http://www.w3.org/Graphics/SVG/1.1/DTD/svg11.dtd">
<!-- Created with matplotlib (https://matplotlib.org/) -->
<svg height="345.6pt" version="1.1" viewBox="0 0 460.8 345.6" width="460.8pt" xmlns="http://www.w3.org/2000/svg" xmlns:xlink="http://www.w3.org/1999/xlink">
 <defs>
  <style type="text/css">
*{stroke-linecap:butt;stroke-linejoin:round;}
  </style>
 </defs>
 <g id="figure_1">
  <g id="patch_1">
   <path d="M 0 345.6 
L 460.8 345.6 
L 460.8 0 
L 0 0 
z
" style="fill:#ffffff;"/>
  </g>
  <g id="axes_1">
   <g id="patch_2">
    <path d="M 57.6 307.584 
L 414.72 307.584 
L 414.72 41.472 
L 57.6 41.472 
z
" style="fill:#ffffff;"/>
   </g>
   <g id="matplotlib.axis_1">
    <g id="xtick_1">
     <g id="line2d_1">
      <path clip-path="url(#p2dd08f8cea)" d="M 57.6 307.584 
L 57.6 41.472 
" style="fill:none;stroke:#b0b0b0;stroke-linecap:square;stroke-width:0.8;"/>
     </g>
     <g id="line2d_2">
      <defs>
       <path d="M 0 0 
L 0 3.5 
" id="m47919ad367" style="stroke:#000000;stroke-width:0.8;"/>
      </defs>
      <g>
       <use style="stroke:#000000;stroke-width:0.8;" x="57.6" xlink:href="#m47919ad367" y="307.584"/>
      </g>
     </g>
     <g id="text_1">
      <!-- 0.0 -->
      <defs>
       <path d="M 31.78125 66.40625 
Q 24.171875 66.40625 20.328125 58.90625 
Q 16.5 51.421875 16.5 36.375 
Q 16.5 21.390625 20.328125 13.890625 
Q 24.171875 6.390625 31.78125 6.390625 
Q 39.453125 6.390625 43.28125 13.890625 
Q 47.125 21.390625 47.125 36.375 
Q 47.125 51.421875 43.28125 58.90625 
Q 39.453125 66.40625 31.78125 66.40625 
z
M 31.78125 74.21875 
Q 44.046875 74.21875 50.515625 64.515625 
Q 56.984375 54.828125 56.984375 36.375 
Q 56.984375 17.96875 50.515625 8.265625 
Q 44.046875 -1.421875 31.78125 -1.421875 
Q 19.53125 -1.421875 13.0625 8.265625 
Q 6.59375 17.96875 6.59375 36.375 
Q 6.59375 54.828125 13.0625 64.515625 
Q 19.53125 74.21875 31.78125 74.21875 
z
" id="DejaVuSans-48"/>
       <path d="M 10.6875 12.40625 
L 21 12.40625 
L 21 0 
L 10.6875 0 
z
" id="DejaVuSans-46"/>
      </defs>
      <g transform="translate(49.648438 322.182437)scale(0.1 -0.1)">
       <use xlink:href="#DejaVuSans-48"/>
       <use x="63.623047" xlink:href="#DejaVuSans-46"/>
       <use x="95.410156" xlink:href="#DejaVuSans-48"/>
      </g>
     </g>
    </g>
    <g id="xtick_2">
     <g id="line2d_3">
      <path clip-path="url(#p2dd08f8cea)" d="M 98.374873 307.584 
L 98.374873 41.472 
" style="fill:none;stroke:#b0b0b0;stroke-linecap:square;stroke-width:0.8;"/>
     </g>
     <g id="line2d_4">
      <g>
       <use style="stroke:#000000;stroke-width:0.8;" x="98.374873" xlink:href="#m47919ad367" y="307.584"/>
      </g>
     </g>
     <g id="text_2">
      <!-- 0.2 -->
      <defs>
       <path d="M 19.1875 8.296875 
L 53.609375 8.296875 
L 53.609375 0 
L 7.328125 0 
L 7.328125 8.296875 
Q 12.9375 14.109375 22.625 23.890625 
Q 32.328125 33.6875 34.8125 36.53125 
Q 39.546875 41.84375 41.421875 45.53125 
Q 43.3125 49.21875 43.3125 52.78125 
Q 43.3125 58.59375 39.234375 62.25 
Q 35.15625 65.921875 28.609375 65.921875 
Q 23.96875 65.921875 18.8125 64.3125 
Q 13.671875 62.703125 7.8125 59.421875 
L 7.8125 69.390625 
Q 13.765625 71.78125 18.9375 73 
Q 24.125 74.21875 28.421875 74.21875 
Q 39.75 74.21875 46.484375 68.546875 
Q 53.21875 62.890625 53.21875 53.421875 
Q 53.21875 48.921875 51.53125 44.890625 
Q 49.859375 40.875 45.40625 35.40625 
Q 44.1875 33.984375 37.640625 27.21875 
Q 31.109375 20.453125 19.1875 8.296875 
z
" id="DejaVuSans-50"/>
      </defs>
      <g transform="translate(90.423311 322.182437)scale(0.1 -0.1)">
       <use xlink:href="#DejaVuSans-48"/>
       <use x="63.623047" xlink:href="#DejaVuSans-46"/>
       <use x="95.410156" xlink:href="#DejaVuSans-50"/>
      </g>
     </g>
    </g>
    <g id="xtick_3">
     <g id="line2d_5">
      <path clip-path="url(#p2dd08f8cea)" d="M 139.149746 307.584 
L 139.149746 41.472 
" style="fill:none;stroke:#b0b0b0;stroke-linecap:square;stroke-width:0.8;"/>
     </g>
     <g id="line2d_6">
      <g>
       <use style="stroke:#000000;stroke-width:0.8;" x="139.149746" xlink:href="#m47919ad367" y="307.584"/>
      </g>
     </g>
     <g id="text_3">
      <!-- 0.4 -->
      <defs>
       <path d="M 37.796875 64.3125 
L 12.890625 25.390625 
L 37.796875 25.390625 
z
M 35.203125 72.90625 
L 47.609375 72.90625 
L 47.609375 25.390625 
L 58.015625 25.390625 
L 58.015625 17.1875 
L 47.609375 17.1875 
L 47.609375 0 
L 37.796875 0 
L 37.796875 17.1875 
L 4.890625 17.1875 
L 4.890625 26.703125 
z
" id="DejaVuSans-52"/>
      </defs>
      <g transform="translate(131.198184 322.182437)scale(0.1 -0.1)">
       <use xlink:href="#DejaVuSans-48"/>
       <use x="63.623047" xlink:href="#DejaVuSans-46"/>
       <use x="95.410156" xlink:href="#DejaVuSans-52"/>
      </g>
     </g>
    </g>
    <g id="xtick_4">
     <g id="line2d_7">
      <path clip-path="url(#p2dd08f8cea)" d="M 179.924619 307.584 
L 179.924619 41.472 
" style="fill:none;stroke:#b0b0b0;stroke-linecap:square;stroke-width:0.8;"/>
     </g>
     <g id="line2d_8">
      <g>
       <use style="stroke:#000000;stroke-width:0.8;" x="179.924619" xlink:href="#m47919ad367" y="307.584"/>
      </g>
     </g>
     <g id="text_4">
      <!-- 0.6 -->
      <defs>
       <path d="M 33.015625 40.375 
Q 26.375 40.375 22.484375 35.828125 
Q 18.609375 31.296875 18.609375 23.390625 
Q 18.609375 15.53125 22.484375 10.953125 
Q 26.375 6.390625 33.015625 6.390625 
Q 39.65625 6.390625 43.53125 10.953125 
Q 47.40625 15.53125 47.40625 23.390625 
Q 47.40625 31.296875 43.53125 35.828125 
Q 39.65625 40.375 33.015625 40.375 
z
M 52.59375 71.296875 
L 52.59375 62.3125 
Q 48.875 64.0625 45.09375 64.984375 
Q 41.3125 65.921875 37.59375 65.921875 
Q 27.828125 65.921875 22.671875 59.328125 
Q 17.53125 52.734375 16.796875 39.40625 
Q 19.671875 43.65625 24.015625 45.921875 
Q 28.375 48.1875 33.59375 48.1875 
Q 44.578125 48.1875 50.953125 41.515625 
Q 57.328125 34.859375 57.328125 23.390625 
Q 57.328125 12.15625 50.6875 5.359375 
Q 44.046875 -1.421875 33.015625 -1.421875 
Q 20.359375 -1.421875 13.671875 8.265625 
Q 6.984375 17.96875 6.984375 36.375 
Q 6.984375 53.65625 15.1875 63.9375 
Q 23.390625 74.21875 37.203125 74.21875 
Q 40.921875 74.21875 44.703125 73.484375 
Q 48.484375 72.75 52.59375 71.296875 
z
" id="DejaVuSans-54"/>
      </defs>
      <g transform="translate(171.973057 322.182437)scale(0.1 -0.1)">
       <use xlink:href="#DejaVuSans-48"/>
       <use x="63.623047" xlink:href="#DejaVuSans-46"/>
       <use x="95.410156" xlink:href="#DejaVuSans-54"/>
      </g>
     </g>
    </g>
    <g id="xtick_5">
     <g id="line2d_9">
      <path clip-path="url(#p2dd08f8cea)" d="M 220.699492 307.584 
L 220.699492 41.472 
" style="fill:none;stroke:#b0b0b0;stroke-linecap:square;stroke-width:0.8;"/>
     </g>
     <g id="line2d_10">
      <g>
       <use style="stroke:#000000;stroke-width:0.8;" x="220.699492" xlink:href="#m47919ad367" y="307.584"/>
      </g>
     </g>
     <g id="text_5">
      <!-- 0.8 -->
      <defs>
       <path d="M 31.78125 34.625 
Q 24.75 34.625 20.71875 30.859375 
Q 16.703125 27.09375 16.703125 20.515625 
Q 16.703125 13.921875 20.71875 10.15625 
Q 24.75 6.390625 31.78125 6.390625 
Q 38.8125 6.390625 42.859375 10.171875 
Q 46.921875 13.96875 46.921875 20.515625 
Q 46.921875 27.09375 42.890625 30.859375 
Q 38.875 34.625 31.78125 34.625 
z
M 21.921875 38.8125 
Q 15.578125 40.375 12.03125 44.71875 
Q 8.5 49.078125 8.5 55.328125 
Q 8.5 64.0625 14.71875 69.140625 
Q 20.953125 74.21875 31.78125 74.21875 
Q 42.671875 74.21875 48.875 69.140625 
Q 55.078125 64.0625 55.078125 55.328125 
Q 55.078125 49.078125 51.53125 44.71875 
Q 48 40.375 41.703125 38.8125 
Q 48.828125 37.15625 52.796875 32.3125 
Q 56.78125 27.484375 56.78125 20.515625 
Q 56.78125 9.90625 50.3125 4.234375 
Q 43.84375 -1.421875 31.78125 -1.421875 
Q 19.734375 -1.421875 13.25 4.234375 
Q 6.78125 9.90625 6.78125 20.515625 
Q 6.78125 27.484375 10.78125 32.3125 
Q 14.796875 37.15625 21.921875 38.8125 
z
M 18.3125 54.390625 
Q 18.3125 48.734375 21.84375 45.5625 
Q 25.390625 42.390625 31.78125 42.390625 
Q 38.140625 42.390625 41.71875 45.5625 
Q 45.3125 48.734375 45.3125 54.390625 
Q 45.3125 60.0625 41.71875 63.234375 
Q 38.140625 66.40625 31.78125 66.40625 
Q 25.390625 66.40625 21.84375 63.234375 
Q 18.3125 60.0625 18.3125 54.390625 
z
" id="DejaVuSans-56"/>
      </defs>
      <g transform="translate(212.74793 322.182437)scale(0.1 -0.1)">
       <use xlink:href="#DejaVuSans-48"/>
       <use x="63.623047" xlink:href="#DejaVuSans-46"/>
       <use x="95.410156" xlink:href="#DejaVuSans-56"/>
      </g>
     </g>
    </g>
    <g id="xtick_6">
     <g id="line2d_11">
      <path clip-path="url(#p2dd08f8cea)" d="M 261.474365 307.584 
L 261.474365 41.472 
" style="fill:none;stroke:#b0b0b0;stroke-linecap:square;stroke-width:0.8;"/>
     </g>
     <g id="line2d_12">
      <g>
       <use style="stroke:#000000;stroke-width:0.8;" x="261.474365" xlink:href="#m47919ad367" y="307.584"/>
      </g>
     </g>
     <g id="text_6">
      <!-- 1.0 -->
      <defs>
       <path d="M 12.40625 8.296875 
L 28.515625 8.296875 
L 28.515625 63.921875 
L 10.984375 60.40625 
L 10.984375 69.390625 
L 28.421875 72.90625 
L 38.28125 72.90625 
L 38.28125 8.296875 
L 54.390625 8.296875 
L 54.390625 0 
L 12.40625 0 
z
" id="DejaVuSans-49"/>
      </defs>
      <g transform="translate(253.522803 322.182437)scale(0.1 -0.1)">
       <use xlink:href="#DejaVuSans-49"/>
       <use x="63.623047" xlink:href="#DejaVuSans-46"/>
       <use x="95.410156" xlink:href="#DejaVuSans-48"/>
      </g>
     </g>
    </g>
    <g id="xtick_7">
     <g id="line2d_13">
      <path clip-path="url(#p2dd08f8cea)" d="M 302.249238 307.584 
L 302.249238 41.472 
" style="fill:none;stroke:#b0b0b0;stroke-linecap:square;stroke-width:0.8;"/>
     </g>
     <g id="line2d_14">
      <g>
       <use style="stroke:#000000;stroke-width:0.8;" x="302.249238" xlink:href="#m47919ad367" y="307.584"/>
      </g>
     </g>
     <g id="text_7">
      <!-- 1.2 -->
      <g transform="translate(294.297676 322.182437)scale(0.1 -0.1)">
       <use xlink:href="#DejaVuSans-49"/>
       <use x="63.623047" xlink:href="#DejaVuSans-46"/>
       <use x="95.410156" xlink:href="#DejaVuSans-50"/>
      </g>
     </g>
    </g>
    <g id="xtick_8">
     <g id="line2d_15">
      <path clip-path="url(#p2dd08f8cea)" d="M 343.024111 307.584 
L 343.024111 41.472 
" style="fill:none;stroke:#b0b0b0;stroke-linecap:square;stroke-width:0.8;"/>
     </g>
     <g id="line2d_16">
      <g>
       <use style="stroke:#000000;stroke-width:0.8;" x="343.024111" xlink:href="#m47919ad367" y="307.584"/>
      </g>
     </g>
     <g id="text_8">
      <!-- 1.4 -->
      <g transform="translate(335.072549 322.182437)scale(0.1 -0.1)">
       <use xlink:href="#DejaVuSans-49"/>
       <use x="63.623047" xlink:href="#DejaVuSans-46"/>
       <use x="95.410156" xlink:href="#DejaVuSans-52"/>
      </g>
     </g>
    </g>
    <g id="xtick_9">
     <g id="line2d_17">
      <path clip-path="url(#p2dd08f8cea)" d="M 383.798984 307.584 
L 383.798984 41.472 
" style="fill:none;stroke:#b0b0b0;stroke-linecap:square;stroke-width:0.8;"/>
     </g>
     <g id="line2d_18">
      <g>
       <use style="stroke:#000000;stroke-width:0.8;" x="383.798984" xlink:href="#m47919ad367" y="307.584"/>
      </g>
     </g>
     <g id="text_9">
      <!-- 1.6 -->
      <g transform="translate(375.847422 322.182437)scale(0.1 -0.1)">
       <use xlink:href="#DejaVuSans-49"/>
       <use x="63.623047" xlink:href="#DejaVuSans-46"/>
       <use x="95.410156" xlink:href="#DejaVuSans-54"/>
      </g>
     </g>
    </g>
    <g id="text_10">
     <!-- Hours -->
     <defs>
      <path d="M 9.8125 72.90625 
L 19.671875 72.90625 
L 19.671875 43.015625 
L 55.515625 43.015625 
L 55.515625 72.90625 
L 65.375 72.90625 
L 65.375 0 
L 55.515625 0 
L 55.515625 34.71875 
L 19.671875 34.71875 
L 19.671875 0 
L 9.8125 0 
z
" id="DejaVuSans-72"/>
      <path d="M 30.609375 48.390625 
Q 23.390625 48.390625 19.1875 42.75 
Q 14.984375 37.109375 14.984375 27.296875 
Q 14.984375 17.484375 19.15625 11.84375 
Q 23.34375 6.203125 30.609375 6.203125 
Q 37.796875 6.203125 41.984375 11.859375 
Q 46.1875 17.53125 46.1875 27.296875 
Q 46.1875 37.015625 41.984375 42.703125 
Q 37.796875 48.390625 30.609375 48.390625 
z
M 30.609375 56 
Q 42.328125 56 49.015625 48.375 
Q 55.71875 40.765625 55.71875 27.296875 
Q 55.71875 13.875 49.015625 6.21875 
Q 42.328125 -1.421875 30.609375 -1.421875 
Q 18.84375 -1.421875 12.171875 6.21875 
Q 5.515625 13.875 5.515625 27.296875 
Q 5.515625 40.765625 12.171875 48.375 
Q 18.84375 56 30.609375 56 
z
" id="DejaVuSans-111"/>
      <path d="M 8.5 21.578125 
L 8.5 54.6875 
L 17.484375 54.6875 
L 17.484375 21.921875 
Q 17.484375 14.15625 20.5 10.265625 
Q 23.53125 6.390625 29.59375 6.390625 
Q 36.859375 6.390625 41.078125 11.03125 
Q 45.3125 15.671875 45.3125 23.6875 
L 45.3125 54.6875 
L 54.296875 54.6875 
L 54.296875 0 
L 45.3125 0 
L 45.3125 8.40625 
Q 42.046875 3.421875 37.71875 1 
Q 33.40625 -1.421875 27.6875 -1.421875 
Q 18.265625 -1.421875 13.375 4.4375 
Q 8.5 10.296875 8.5 21.578125 
z
M 31.109375 56 
z
" id="DejaVuSans-117"/>
      <path d="M 41.109375 46.296875 
Q 39.59375 47.171875 37.8125 47.578125 
Q 36.03125 48 33.890625 48 
Q 26.265625 48 22.1875 43.046875 
Q 18.109375 38.09375 18.109375 28.8125 
L 18.109375 0 
L 9.078125 0 
L 9.078125 54.6875 
L 18.109375 54.6875 
L 18.109375 46.1875 
Q 20.953125 51.171875 25.484375 53.578125 
Q 30.03125 56 36.53125 56 
Q 37.453125 56 38.578125 55.875 
Q 39.703125 55.765625 41.0625 55.515625 
z
" id="DejaVuSans-114"/>
      <path d="M 44.28125 53.078125 
L 44.28125 44.578125 
Q 40.484375 46.53125 36.375 47.5 
Q 32.28125 48.484375 27.875 48.484375 
Q 21.1875 48.484375 17.84375 46.4375 
Q 14.5 44.390625 14.5 40.28125 
Q 14.5 37.15625 16.890625 35.375 
Q 19.28125 33.59375 26.515625 31.984375 
L 29.59375 31.296875 
Q 39.15625 29.25 43.1875 25.515625 
Q 47.21875 21.78125 47.21875 15.09375 
Q 47.21875 7.46875 41.1875 3.015625 
Q 35.15625 -1.421875 24.609375 -1.421875 
Q 20.21875 -1.421875 15.453125 -0.5625 
Q 10.6875 0.296875 5.421875 2 
L 5.421875 11.28125 
Q 10.40625 8.6875 15.234375 7.390625 
Q 20.0625 6.109375 24.8125 6.109375 
Q 31.15625 6.109375 34.5625 8.28125 
Q 37.984375 10.453125 37.984375 14.40625 
Q 37.984375 18.0625 35.515625 20.015625 
Q 33.0625 21.96875 24.703125 23.78125 
L 21.578125 24.515625 
Q 13.234375 26.265625 9.515625 29.90625 
Q 5.8125 33.546875 5.8125 39.890625 
Q 5.8125 47.609375 11.28125 51.796875 
Q 16.75 56 26.8125 56 
Q 31.78125 56 36.171875 55.265625 
Q 40.578125 54.546875 44.28125 53.078125 
z
" id="DejaVuSans-115"/>
     </defs>
     <g transform="translate(221.511562 335.860562)scale(0.1 -0.1)">
      <use xlink:href="#DejaVuSans-72"/>
      <use x="75.195312" xlink:href="#DejaVuSans-111"/>
      <use x="136.376953" xlink:href="#DejaVuSans-117"/>
      <use x="199.755859" xlink:href="#DejaVuSans-114"/>
      <use x="240.869141" xlink:href="#DejaVuSans-115"/>
     </g>
    </g>
   </g>
   <g id="matplotlib.axis_2">
    <g id="ytick_1">
     <g id="line2d_19">
      <path clip-path="url(#p2dd08f8cea)" d="M 57.6 278.074365 
L 414.72 278.074365 
" style="fill:none;stroke:#b0b0b0;stroke-linecap:square;stroke-width:0.8;"/>
     </g>
     <g id="line2d_20">
      <defs>
       <path d="M 0 0 
L -3.5 0 
" id="m430bba8475" style="stroke:#000000;stroke-width:0.8;"/>
      </defs>
      <g>
       <use style="stroke:#000000;stroke-width:0.8;" x="57.6" xlink:href="#m430bba8475" y="278.074365"/>
      </g>
     </g>
     <g id="text_11">
      <!-- 1000 -->
      <g transform="translate(25.15 281.873584)scale(0.1 -0.1)">
       <use xlink:href="#DejaVuSans-49"/>
       <use x="63.623047" xlink:href="#DejaVuSans-48"/>
       <use x="127.246094" xlink:href="#DejaVuSans-48"/>
       <use x="190.869141" xlink:href="#DejaVuSans-48"/>
      </g>
     </g>
    </g>
    <g id="ytick_2">
     <g id="line2d_21">
      <path clip-path="url(#p2dd08f8cea)" d="M 57.6 242.095781 
L 414.72 242.095781 
" style="fill:none;stroke:#b0b0b0;stroke-linecap:square;stroke-width:0.8;"/>
     </g>
     <g id="line2d_22">
      <g>
       <use style="stroke:#000000;stroke-width:0.8;" x="57.6" xlink:href="#m430bba8475" y="242.095781"/>
      </g>
     </g>
     <g id="text_12">
      <!-- 1500 -->
      <defs>
       <path d="M 10.796875 72.90625 
L 49.515625 72.90625 
L 49.515625 64.59375 
L 19.828125 64.59375 
L 19.828125 46.734375 
Q 21.96875 47.46875 24.109375 47.828125 
Q 26.265625 48.1875 28.421875 48.1875 
Q 40.625 48.1875 47.75 41.5 
Q 54.890625 34.8125 54.890625 23.390625 
Q 54.890625 11.625 47.5625 5.09375 
Q 40.234375 -1.421875 26.90625 -1.421875 
Q 22.3125 -1.421875 17.546875 -0.640625 
Q 12.796875 0.140625 7.71875 1.703125 
L 7.71875 11.625 
Q 12.109375 9.234375 16.796875 8.0625 
Q 21.484375 6.890625 26.703125 6.890625 
Q 35.15625 6.890625 40.078125 11.328125 
Q 45.015625 15.765625 45.015625 23.390625 
Q 45.015625 31 40.078125 35.4375 
Q 35.15625 39.890625 26.703125 39.890625 
Q 22.75 39.890625 18.8125 39.015625 
Q 14.890625 38.140625 10.796875 36.28125 
z
" id="DejaVuSans-53"/>
      </defs>
      <g transform="translate(25.15 245.895)scale(0.1 -0.1)">
       <use xlink:href="#DejaVuSans-49"/>
       <use x="63.623047" xlink:href="#DejaVuSans-53"/>
       <use x="127.246094" xlink:href="#DejaVuSans-48"/>
       <use x="190.869141" xlink:href="#DejaVuSans-48"/>
      </g>
     </g>
    </g>
    <g id="ytick_3">
     <g id="line2d_23">
      <path clip-path="url(#p2dd08f8cea)" d="M 57.6 206.117197 
L 414.72 206.117197 
" style="fill:none;stroke:#b0b0b0;stroke-linecap:square;stroke-width:0.8;"/>
     </g>
     <g id="line2d_24">
      <g>
       <use style="stroke:#000000;stroke-width:0.8;" x="57.6" xlink:href="#m430bba8475" y="206.117197"/>
      </g>
     </g>
     <g id="text_13">
      <!-- 2000 -->
      <g transform="translate(25.15 209.916416)scale(0.1 -0.1)">
       <use xlink:href="#DejaVuSans-50"/>
       <use x="63.623047" xlink:href="#DejaVuSans-48"/>
       <use x="127.246094" xlink:href="#DejaVuSans-48"/>
       <use x="190.869141" xlink:href="#DejaVuSans-48"/>
      </g>
     </g>
    </g>
    <g id="ytick_4">
     <g id="line2d_25">
      <path clip-path="url(#p2dd08f8cea)" d="M 57.6 170.138613 
L 414.72 170.138613 
" style="fill:none;stroke:#b0b0b0;stroke-linecap:square;stroke-width:0.8;"/>
     </g>
     <g id="line2d_26">
      <g>
       <use style="stroke:#000000;stroke-width:0.8;" x="57.6" xlink:href="#m430bba8475" y="170.138613"/>
      </g>
     </g>
     <g id="text_14">
      <!-- 2500 -->
      <g transform="translate(25.15 173.937831)scale(0.1 -0.1)">
       <use xlink:href="#DejaVuSans-50"/>
       <use x="63.623047" xlink:href="#DejaVuSans-53"/>
       <use x="127.246094" xlink:href="#DejaVuSans-48"/>
       <use x="190.869141" xlink:href="#DejaVuSans-48"/>
      </g>
     </g>
    </g>
    <g id="ytick_5">
     <g id="line2d_27">
      <path clip-path="url(#p2dd08f8cea)" d="M 57.6 134.160029 
L 414.72 134.160029 
" style="fill:none;stroke:#b0b0b0;stroke-linecap:square;stroke-width:0.8;"/>
     </g>
     <g id="line2d_28">
      <g>
       <use style="stroke:#000000;stroke-width:0.8;" x="57.6" xlink:href="#m430bba8475" y="134.160029"/>
      </g>
     </g>
     <g id="text_15">
      <!-- 3000 -->
      <defs>
       <path d="M 40.578125 39.3125 
Q 47.65625 37.796875 51.625 33 
Q 55.609375 28.21875 55.609375 21.1875 
Q 55.609375 10.40625 48.1875 4.484375 
Q 40.765625 -1.421875 27.09375 -1.421875 
Q 22.515625 -1.421875 17.65625 -0.515625 
Q 12.796875 0.390625 7.625 2.203125 
L 7.625 11.71875 
Q 11.71875 9.328125 16.59375 8.109375 
Q 21.484375 6.890625 26.8125 6.890625 
Q 36.078125 6.890625 40.9375 10.546875 
Q 45.796875 14.203125 45.796875 21.1875 
Q 45.796875 27.640625 41.28125 31.265625 
Q 36.765625 34.90625 28.71875 34.90625 
L 20.21875 34.90625 
L 20.21875 43.015625 
L 29.109375 43.015625 
Q 36.375 43.015625 40.234375 45.921875 
Q 44.09375 48.828125 44.09375 54.296875 
Q 44.09375 59.90625 40.109375 62.90625 
Q 36.140625 65.921875 28.71875 65.921875 
Q 24.65625 65.921875 20.015625 65.03125 
Q 15.375 64.15625 9.8125 62.3125 
L 9.8125 71.09375 
Q 15.4375 72.65625 20.34375 73.4375 
Q 25.25 74.21875 29.59375 74.21875 
Q 40.828125 74.21875 47.359375 69.109375 
Q 53.90625 64.015625 53.90625 55.328125 
Q 53.90625 49.265625 50.4375 45.09375 
Q 46.96875 40.921875 40.578125 39.3125 
z
" id="DejaVuSans-51"/>
      </defs>
      <g transform="translate(25.15 137.959247)scale(0.1 -0.1)">
       <use xlink:href="#DejaVuSans-51"/>
       <use x="63.623047" xlink:href="#DejaVuSans-48"/>
       <use x="127.246094" xlink:href="#DejaVuSans-48"/>
       <use x="190.869141" xlink:href="#DejaVuSans-48"/>
      </g>
     </g>
    </g>
    <g id="ytick_6">
     <g id="line2d_29">
      <path clip-path="url(#p2dd08f8cea)" d="M 57.6 98.181444 
L 414.72 98.181444 
" style="fill:none;stroke:#b0b0b0;stroke-linecap:square;stroke-width:0.8;"/>
     </g>
     <g id="line2d_30">
      <g>
       <use style="stroke:#000000;stroke-width:0.8;" x="57.6" xlink:href="#m430bba8475" y="98.181444"/>
      </g>
     </g>
     <g id="text_16">
      <!-- 3500 -->
      <g transform="translate(25.15 101.980663)scale(0.1 -0.1)">
       <use xlink:href="#DejaVuSans-51"/>
       <use x="63.623047" xlink:href="#DejaVuSans-53"/>
       <use x="127.246094" xlink:href="#DejaVuSans-48"/>
       <use x="190.869141" xlink:href="#DejaVuSans-48"/>
      </g>
     </g>
    </g>
    <g id="ytick_7">
     <g id="line2d_31">
      <path clip-path="url(#p2dd08f8cea)" d="M 57.6 62.20286 
L 414.72 62.20286 
" style="fill:none;stroke:#b0b0b0;stroke-linecap:square;stroke-width:0.8;"/>
     </g>
     <g id="line2d_32">
      <g>
       <use style="stroke:#000000;stroke-width:0.8;" x="57.6" xlink:href="#m430bba8475" y="62.20286"/>
      </g>
     </g>
     <g id="text_17">
      <!-- 4000 -->
      <g transform="translate(25.15 66.002079)scale(0.1 -0.1)">
       <use xlink:href="#DejaVuSans-52"/>
       <use x="63.623047" xlink:href="#DejaVuSans-48"/>
       <use x="127.246094" xlink:href="#DejaVuSans-48"/>
       <use x="190.869141" xlink:href="#DejaVuSans-48"/>
      </g>
     </g>
    </g>
    <g id="text_18">
     <!-- Episode steps -->
     <defs>
      <path d="M 9.8125 72.90625 
L 55.90625 72.90625 
L 55.90625 64.59375 
L 19.671875 64.59375 
L 19.671875 43.015625 
L 54.390625 43.015625 
L 54.390625 34.71875 
L 19.671875 34.71875 
L 19.671875 8.296875 
L 56.78125 8.296875 
L 56.78125 0 
L 9.8125 0 
z
" id="DejaVuSans-69"/>
      <path d="M 18.109375 8.203125 
L 18.109375 -20.796875 
L 9.078125 -20.796875 
L 9.078125 54.6875 
L 18.109375 54.6875 
L 18.109375 46.390625 
Q 20.953125 51.265625 25.265625 53.625 
Q 29.59375 56 35.59375 56 
Q 45.5625 56 51.78125 48.09375 
Q 58.015625 40.1875 58.015625 27.296875 
Q 58.015625 14.40625 51.78125 6.484375 
Q 45.5625 -1.421875 35.59375 -1.421875 
Q 29.59375 -1.421875 25.265625 0.953125 
Q 20.953125 3.328125 18.109375 8.203125 
z
M 48.6875 27.296875 
Q 48.6875 37.203125 44.609375 42.84375 
Q 40.53125 48.484375 33.40625 48.484375 
Q 26.265625 48.484375 22.1875 42.84375 
Q 18.109375 37.203125 18.109375 27.296875 
Q 18.109375 17.390625 22.1875 11.75 
Q 26.265625 6.109375 33.40625 6.109375 
Q 40.53125 6.109375 44.609375 11.75 
Q 48.6875 17.390625 48.6875 27.296875 
z
" id="DejaVuSans-112"/>
      <path d="M 9.421875 54.6875 
L 18.40625 54.6875 
L 18.40625 0 
L 9.421875 0 
z
M 9.421875 75.984375 
L 18.40625 75.984375 
L 18.40625 64.59375 
L 9.421875 64.59375 
z
" id="DejaVuSans-105"/>
      <path d="M 45.40625 46.390625 
L 45.40625 75.984375 
L 54.390625 75.984375 
L 54.390625 0 
L 45.40625 0 
L 45.40625 8.203125 
Q 42.578125 3.328125 38.25 0.953125 
Q 33.9375 -1.421875 27.875 -1.421875 
Q 17.96875 -1.421875 11.734375 6.484375 
Q 5.515625 14.40625 5.515625 27.296875 
Q 5.515625 40.1875 11.734375 48.09375 
Q 17.96875 56 27.875 56 
Q 33.9375 56 38.25 53.625 
Q 42.578125 51.265625 45.40625 46.390625 
z
M 14.796875 27.296875 
Q 14.796875 17.390625 18.875 11.75 
Q 22.953125 6.109375 30.078125 6.109375 
Q 37.203125 6.109375 41.296875 11.75 
Q 45.40625 17.390625 45.40625 27.296875 
Q 45.40625 37.203125 41.296875 42.84375 
Q 37.203125 48.484375 30.078125 48.484375 
Q 22.953125 48.484375 18.875 42.84375 
Q 14.796875 37.203125 14.796875 27.296875 
z
" id="DejaVuSans-100"/>
      <path d="M 56.203125 29.59375 
L 56.203125 25.203125 
L 14.890625 25.203125 
Q 15.484375 15.921875 20.484375 11.0625 
Q 25.484375 6.203125 34.421875 6.203125 
Q 39.59375 6.203125 44.453125 7.46875 
Q 49.3125 8.734375 54.109375 11.28125 
L 54.109375 2.78125 
Q 49.265625 0.734375 44.1875 -0.34375 
Q 39.109375 -1.421875 33.890625 -1.421875 
Q 20.796875 -1.421875 13.15625 6.1875 
Q 5.515625 13.8125 5.515625 26.8125 
Q 5.515625 40.234375 12.765625 48.109375 
Q 20.015625 56 32.328125 56 
Q 43.359375 56 49.78125 48.890625 
Q 56.203125 41.796875 56.203125 29.59375 
z
M 47.21875 32.234375 
Q 47.125 39.59375 43.09375 43.984375 
Q 39.0625 48.390625 32.421875 48.390625 
Q 24.90625 48.390625 20.390625 44.140625 
Q 15.875 39.890625 15.1875 32.171875 
z
" id="DejaVuSans-101"/>
      <path id="DejaVuSans-32"/>
      <path d="M 18.3125 70.21875 
L 18.3125 54.6875 
L 36.8125 54.6875 
L 36.8125 47.703125 
L 18.3125 47.703125 
L 18.3125 18.015625 
Q 18.3125 11.328125 20.140625 9.421875 
Q 21.96875 7.515625 27.59375 7.515625 
L 36.8125 7.515625 
L 36.8125 0 
L 27.59375 0 
Q 17.1875 0 13.234375 3.875 
Q 9.28125 7.765625 9.28125 18.015625 
L 9.28125 47.703125 
L 2.6875 47.703125 
L 2.6875 54.6875 
L 9.28125 54.6875 
L 9.28125 70.21875 
z
" id="DejaVuSans-116"/>
     </defs>
     <g transform="translate(19.070312 209.174875)rotate(-90)scale(0.1 -0.1)">
      <use xlink:href="#DejaVuSans-69"/>
      <use x="63.183594" xlink:href="#DejaVuSans-112"/>
      <use x="126.660156" xlink:href="#DejaVuSans-105"/>
      <use x="154.443359" xlink:href="#DejaVuSans-115"/>
      <use x="206.542969" xlink:href="#DejaVuSans-111"/>
      <use x="267.724609" xlink:href="#DejaVuSans-100"/>
      <use x="331.201172" xlink:href="#DejaVuSans-101"/>
      <use x="392.724609" xlink:href="#DejaVuSans-32"/>
      <use x="424.511719" xlink:href="#DejaVuSans-115"/>
      <use x="476.611328" xlink:href="#DejaVuSans-116"/>
      <use x="515.820312" xlink:href="#DejaVuSans-101"/>
      <use x="577.34375" xlink:href="#DejaVuSans-112"/>
      <use x="640.820312" xlink:href="#DejaVuSans-115"/>
     </g>
    </g>
   </g>
   <g id="line2d_33">
    <path clip-path="url(#p2dd08f8cea)" d="M 57.6 270.08712 
L 57.600052 293.473199 
L 57.663044 278.865894 
L 57.927749 295.488 
L 58.268438 280.23308 
L 58.587484 290.235127 
L 58.926822 280.017209 
L 59.23306 286.709225 
L 59.603588 273.684978 
L 59.937627 281.240481 
L 60.281217 283.255281 
L 60.573993 290.019255 
L 60.898042 283.471153 
L 61.229209 282.247881 
L 61.559356 282.53571 
L 61.870486 287.572711 
L 62.211867 282.607667 
L 62.549587 280.089166 
L 62.956521 266.057518 
L 63.228229 293.617114 
L 63.540294 287.932497 
L 63.893383 277.210879 
L 64.163485 294.120814 
L 64.503211 279.657423 
L 64.835706 284.334639 
L 65.121565 291.242527 
L 65.397285 294.264728 
L 65.769268 273.325192 
L 66.367313 293.401242 
L 66.66699 287.86054 
L 66.973925 287.644669 
L 68.013283 274.620421 
L 68.410056 268.432105 
L 68.804139 270.159077 
L 69.110895 287.140968 
L 69.407366 291.314484 
L 69.743851 281.096566 
L 70.105242 276.203479 
L 70.725695 290.882741 
L 71.04815 283.399196 
L 71.335852 291.098613 
L 71.68482 278.146322 
L 71.970194 291.17057 
L 72.279114 286.997054 
L 72.656352 272.317792 
L 72.96967 285.485954 
L 73.287256 284.694425 
L 73.57317 291.386441 
L 73.886983 286.925097 
L 74.17494 291.386441 
L 74.454853 293.473199 
L 74.742012 290.954698 
L 75.027716 291.314484 
L 75.362715 281.312438 
L 75.670887 287.86054 
L 75.958458 291.314484 
L 76.266306 286.709225 
L 76.590581 283.902896 
L 76.944664 278.434151 
L 77.292009 279.801337 
L 77.565147 293.545156 
L 77.832988 294.192771 
L 78.101818 294.192771 
L 78.39838 288.148369 
L 78.691634 289.155769 
L 79.012975 286.205525 
L 79.314325 288.652069 
L 79.660249 279.081766 
L 79.99319 281.096566 
L 80.271345 292.034056 
L 80.606204 280.448952 
L 80.884131 294.048857 
L 81.247283 275.91565 
L 81.640783 269.439505 
L 81.943523 287.86054 
L 82.259353 285.773782 
L 82.638164 274.548464 
L 82.921218 291.890142 
L 83.19744 293.473199 
L 83.54176 279.297637 
L 83.888004 278.434151 
L 84.195431 287.069011 
L 84.582555 268.935805 
L 85.014004 259.65333 
L 85.322145 285.342039 
L 85.711626 268.576019 
L 86.047293 281.600267 
L 86.416296 272.533663 
L 86.768542 277.642622 
L 87.12407 276.923051 
L 87.526218 267.568619 
L 87.897457 275.771736 
L 88.308796 266.27339 
L 88.665279 276.923051 
L 89.147227 251.666084 
L 89.522577 274.188678 
L 89.964489 260.085073 
L 90.325429 276.563265 
L 90.725355 268.791891 
L 91.110676 273.756935 
L 91.48383 273.972807 
L 91.980859 248.931712 
L 92.447231 255.3359 
L 93.007221 237.706394 
L 93.483753 253.321099 
L 93.863941 272.677578 
L 94.330695 255.407857 
L 94.711641 274.044764 
L 95.245509 240.944466 
L 95.698306 259.14963 
L 96.116942 264.906203 
L 96.941093 267.78449 
L 97.429053 250.586727 
L 97.917677 251.666084 
L 98.339702 263.826846 
L 98.938112 227.992176 
L 99.368754 262.243788 
L 99.892792 244.758196 
L 100.356789 255.983515 
L 100.891368 241.448167 
L 101.47907 232.309606 
L 101.965471 251.234341 
L 102.56163 229.287405 
L 103.057684 251.234341 
L 103.506335 258.861801 
L 104.08321 233.029178 
L 104.717228 221.875817 
L 105.299119 234.108535 
L 105.840254 240.224895 
L 106.456261 226.193247 
L 107.16108 206.836769 
L 107.716747 237.202694 
L 108.272754 237.922265 
L 108.912322 219.357316 
L 109.494244 231.014377 
L 110.180202 211.87377 
L 110.834307 217.414472 
L 111.385972 238.138137 
L 111.987771 228.711748 
L 112.487125 249.003669 
L 113.006127 245.046025 
L 113.607292 229.647191 
L 114.260922 217.198601 
L 114.791424 242.38361 
L 115.36171 236.051379 
L 116.098718 200.648452 
L 116.661732 235.691593 
L 117.289661 224.682146 
L 117.82405 241.664038 
L 118.537894 206.476983 
L 119.088394 237.850308 
L 119.553742 255.3359 
L 120.188674 220.724502 
L 120.868374 212.449428 
L 121.38367 244.758196 
L 121.843388 256.127429 
L 122.600855 196.115151 
L 123.176902 232.165692 
L 123.864054 211.513985 
L 124.493458 221.300159 
L 125.321887 180.860231 
L 126.017208 209.571141 
L 126.640904 223.81866 
L 127.3328 211.729856 
L 127.90341 235.043979 
L 128.58693 211.37007 
L 129.247745 217.342515 
L 130.032629 190.358577 
L 130.573774 241.951867 
L 131.11883 239.145537 
L 131.938064 184.458089 
L 132.659149 205.757411 
L 133.382115 202.519338 
L 134.087497 207.412426 
L 134.903385 184.098303 
L 135.817136 164.957697 
L 136.54291 202.23151 
L 137.28822 197.986037 
L 138.313842 143.586418 
L 139.290813 153.660421 
L 140.228207 160.136566 
L 141.043359 186.97659 
L 141.983721 160.712224 
L 142.739365 198.561694 
L 143.652773 164.597911 
L 144.463753 187.192462 
L 145.328257 175.175615 
L 146.031774 209.427227 
L 146.88979 176.254972 
L 148.01503 123.150582 
L 149.028694 144.953604 
L 150.027014 147.903848 
L 150.775309 197.050594 
L 152.736863 134.807643 
L 153.671745 161.143967 
L 154.519022 177.118458 
L 155.526887 145.457304 
L 156.516931 149.486905 
L 157.664043 115.738993 
L 158.943587 89.690499 
L 159.826823 172.009499 
L 160.781613 157.186322 
L 161.695404 168.267726 
L 162.460334 194.172307 
L 163.572676 125.309297 
L 164.637092 133.8722 
L 165.688378 136.894401 
L 166.868791 110.414163 
L 167.78241 163.878339 
L 169.028012 97.893616 
L 170.033241 147.975805 
L 170.800002 195.467536 
L 172.047809 97.893616 
L 172.901951 176.902587 
L 173.798312 169.347084 
L 174.667299 172.729071 
L 175.841849 112.285049 
L 176.996024 116.674437 
L 178.050616 135.239386 
L 179.004062 158.409594 
L 179.803814 187.408333 
L 180.999753 107.967619 
L 182.09883 128.763241 
L 182.94303 179.061302 
L 183.852368 167.116412 
L 184.834253 149.990606 
L 186.013266 111.637435 
L 186.941462 160.928095 
L 187.917239 151.861492 
L 189.134128 104.441718 
L 190.178048 137.470058 
L 191.158943 151.357792 
L 192.017919 175.463443 
L 193.203253 110.558077 
L 194.663052 53.568 
L 196.03177 72.420778 
L 197.214971 110.630035 
L 198.267438 139.125073 
L 199.202799 161.000052 
L 199.969087 195.251664 
L 201.318174 77.96148 
L 202.574567 95.662943 
L 203.792241 105.521076 
L 204.811865 144.593818 
L 205.760138 157.474151 
L 206.780479 144.737732 
L 208.218661 60.116102 
L 209.51074 88.683098 
L 210.822001 84.725454 
L 211.952933 122.43101 
L 213.21968 94.079886 
L 214.516297 87.387869 
L 215.539732 143.442503 
L 216.860245 85.301111 
L 218.174789 84.58154 
L 219.485523 84.005882 
L 220.784025 87.10004 
L 221.882189 129.194984 
L 223.06525 110.845906 
L 224.407871 78.824966 
L 225.581862 112.285049 
L 226.93635 75.155151 
L 228.22703 88.827012 
L 229.553369 82.206953 
L 230.9916 62.490689 
L 232.182231 110.48612 
L 233.208426 141.139874 
L 234.43791 102.35496 
L 235.825092 69.686406 
L 237.106086 90.553985 
L 238.488783 70.477935 
L 239.860792 74.219707 
L 241.180633 84.005882 
L 242.457027 91.345513 
L 243.868898 62.778518 
L 245.035386 115.019422 
L 246.421546 70.190106 
L 247.478593 136.966358 
L 248.599065 123.582325 
L 249.780555 111.349606 
L 250.68398 165.461397 
L 251.730116 137.542015 
L 252.652155 163.302682 
L 253.655551 146.104919 
L 254.963752 86.308512 
L 256.143004 112.141135 
L 257.415674 90.41007 
L 258.583659 114.659636 
L 259.837758 95.878815 
L 260.838632 146.82449 
L 261.948583 126.100826 
L 263.02894 132.001314 
L 264.313046 90.338113 
L 265.25477 160.208523 
L 266.348044 130.778042 
L 267.098981 198.345823 
L 268.115087 144.737732 
L 269.041346 162.007453 
L 269.854432 186.113104 
L 270.687392 180.932188 
L 271.514481 183.66656 
L 272.368048 176.039101 
L 273.107898 199.713009 
L 274.098643 148.047762 
L 275.145846 139.053116 
L 275.972979 181.795674 
L 277.138384 115.810951 
L 278.077252 159.057209 
L 279.296923 104.945418 
L 280.26465 155.315436 
L 280.968922 206.764811 
L 281.797103 182.587203 
L 282.565542 194.244264 
L 283.524656 157.186322 
L 284.438783 164.525954 
L 285.209674 193.884478 
L 286.262763 136.030915 
L 287.02521 195.971236 
L 287.980959 156.538708 
L 288.841113 177.118458 
L 289.626976 189.926834 
L 290.57926 157.905894 
L 291.5747 149.342991 
L 292.284131 207.412426 
L 293.151595 174.312128 
L 294.143223 150.710177 
L 295.058363 165.245525 
L 296.039578 154.379993 
L 297.161367 124.589725 
L 298.012152 178.485644 
L 298.705569 210.434627 
L 299.682735 154.020207 
L 300.348339 215.471629 
L 301.016286 216.335115 
L 301.6368 223.81866 
L 302.239914 228.064133 
L 303.114691 173.088857 
L 303.761083 219.285359 
L 304.619308 177.118458 
L 305.330811 205.181754 
L 306.189724 176.974544 
L 306.907944 204.030439 
L 307.600199 210.434627 
L 308.423883 182.371331 
L 309.123157 209.787012 
L 309.878349 197.122551 
L 310.475911 229.215448 
L 311.903037 196.690808 
L 312.605128 208.707655 
L 313.340479 200.072795 
L 314.030354 209.571141 
L 314.831029 189.423134 
L 315.579834 198.41778 
L 316.192897 226.696947 
L 317.183639 148.551462 
L 318.000655 185.393532 
L 318.89033 169.778827 
L 319.819645 163.014853 
L 320.527979 207.196554 
L 321.278873 198.92148 
L 321.959964 211.226156 
L 322.978318 144.162075 
L 323.611482 221.444074 
L 324.302816 209.499184 
L 325.00745 208.995484 
L 325.742561 200.648452 
L 326.54711 187.408333 
L 327.15755 226.265204 
L 327.779552 224.034532 
L 328.414966 222.523431 
L 329.144196 201.368024 
L 329.89833 197.194508 
L 330.619824 203.23891 
L 331.352758 201.368024 
L 332.25568 168.699469 
L 332.836095 232.813306 
L 333.517954 213.600742 
L 334.168555 217.99013 
L 334.839256 213.960528 
L 335.517372 213.528785 
L 336.221854 207.268512 
L 336.953257 204.030439 
L 337.538942 231.230249 
L 338.164983 222.595388 
L 338.934377 194.963836 
L 339.598958 215.6875 
L 340.38194 193.092949 
L 341.055427 213.528785 
L 341.753536 209.643098 
L 342.444765 209.85897 
L 343.356854 165.173568 
L 344.004197 220.00493 
L 344.592986 230.870463 
L 345.189779 230.366763 
L 345.955231 194.60405 
L 346.598391 221.300159 
L 347.36201 197.194508 
L 347.969069 227.12869 
L 348.741273 193.740564 
L 349.414168 214.032485 
L 350.22481 186.185061 
L 350.865828 221.875817 
L 351.557825 209.499184 
L 352.38161 184.098303 
L 352.995805 225.329761 
L 353.782427 192.661206 
L 354.472573 209.85897 
L 355.234792 194.747964 
L 355.85285 225.113889 
L 356.460747 226.265204 
L 357.382755 164.022253 
L 358.031282 217.99013 
L 358.650386 224.106489 
L 359.282753 222.883217 
L 359.940268 216.407072 
L 360.770204 182.65916 
L 361.396673 223.530832 
L 362.149552 197.91408 
L 362.801143 220.364716 
L 363.593129 189.854877 
L 364.238034 220.220802 
L 365.018961 192.013592 
L 365.642237 224.538232 
L 366.315525 214.967929 
L 367.128571 184.602004 
L 367.792077 217.774258 
L 368.388694 228.711748 
L 369.063165 213.097042 
L 369.731389 215.903372 
L 370.434988 206.764811 
L 371.17671 200.360623 
L 372.03651 175.247572 
L 372.933626 168.915341 
L 373.524753 230.582634 
L 374.137083 226.481076 
L 374.858505 205.037839 
L 375.555127 208.419826 
L 376.197614 221.012331 
L 376.797815 227.776305 
L 377.480649 211.226156 
L 378.11506 221.947774 
L 378.887933 193.092949 
L 379.674414 191.29402 
L 380.3879 204.893925 
L 381.131695 199.065394 
L 381.799589 215.543586 
L 382.40701 226.553033 
L 383.161778 198.705609 
L 383.813246 217.414472 
L 384.44586 221.659945 
L 385.037564 231.590035 
L 385.619728 232.957221 
L 386.435138 188.127905 
L 387.198648 195.827322 
L 387.820499 224.32236 
L 389.257728 198.92148 
L 390.017477 196.762765 
L 390.709635 210.290713 
L 391.414842 206.980683 
L 392.093288 213.456828 
L 392.706317 225.977375 
L 393.487649 193.380778 
L 394.282862 189.135305 
L 394.917558 221.659945 
L 395.600161 213.456828 
L 396.227251 223.530832 
L 396.919158 211.37007 
L 397.63524 205.109797 
L 398.429591 189.063348 
L 399.035539 227.560433 
L 399.654228 225.185847 
L 400.301466 220.220802 
L 400.946454 218.925573 
L 401.652803 207.55634 
L 402.318725 216.694901 
L 403.045631 202.303467 
L 403.805004 197.770165 
L 404.442817 220.796459 
L 405.516719 132.576971 
L 406.113621 228.495876 
L 406.710745 228.711748 
L 407.384014 214.967929 
L 408.104945 204.318268 
L 408.694933 233.388964 
L 409.351383 217.126644 
L 409.958685 227.056733 
L 410.761754 188.631605 
L 411.495213 202.159553 
L 412.14548 220.076888 
L 412.803226 217.198601 
L 413.504094 208.419826 
L 414.108245 228.927619 
L 414.72 226.409118 
L 414.72 226.409118 
" style="fill:none;stroke:#000000;stroke-linecap:square;stroke-width:0.8;"/>
   </g>
   <g id="patch_3">
    <path d="M 57.6 307.584 
L 57.6 41.472 
" style="fill:none;stroke:#000000;stroke-linecap:square;stroke-linejoin:miter;stroke-width:0.8;"/>
   </g>
   <g id="patch_4">
    <path d="M 414.72 307.584 
L 414.72 41.472 
" style="fill:none;stroke:#000000;stroke-linecap:square;stroke-linejoin:miter;stroke-width:0.8;"/>
   </g>
   <g id="patch_5">
    <path d="M 57.6 307.584 
L 414.72 307.584 
" style="fill:none;stroke:#000000;stroke-linecap:square;stroke-linejoin:miter;stroke-width:0.8;"/>
   </g>
   <g id="patch_6">
    <path d="M 57.6 41.472 
L 414.72 41.472 
" style="fill:none;stroke:#000000;stroke-linecap:square;stroke-linejoin:miter;stroke-width:0.8;"/>
   </g>
  </g>
  <g id="axes_2">
   <g id="matplotlib.axis_3">
    <g id="xtick_10">
     <g id="line2d_34">
      <defs>
       <path d="M 0 0 
L 0 -3.5 
" id="mdd3ef9c71a" style="stroke:#000000;stroke-width:0.8;"/>
      </defs>
      <g>
       <use style="stroke:#000000;stroke-width:0.8;" x="57.6" xlink:href="#mdd3ef9c71a" y="41.472"/>
      </g>
     </g>
    </g>
    <g id="xtick_11">
     <g id="line2d_35">
      <g>
       <use style="stroke:#000000;stroke-width:0.8;" x="127.7611" xlink:href="#mdd3ef9c71a" y="41.472"/>
      </g>
     </g>
     <g id="text_19">
      <!-- 100 -->
      <g transform="translate(118.21735 32.392313)scale(0.1 -0.1)">
       <use xlink:href="#DejaVuSans-49"/>
       <use x="63.623047" xlink:href="#DejaVuSans-48"/>
       <use x="127.246094" xlink:href="#DejaVuSans-48"/>
      </g>
     </g>
    </g>
    <g id="xtick_12">
     <g id="line2d_36">
      <g>
       <use style="stroke:#000000;stroke-width:0.8;" x="197.9222" xlink:href="#mdd3ef9c71a" y="41.472"/>
      </g>
     </g>
     <g id="text_20">
      <!-- 200 -->
      <g transform="translate(188.37845 32.392313)scale(0.1 -0.1)">
       <use xlink:href="#DejaVuSans-50"/>
       <use x="63.623047" xlink:href="#DejaVuSans-48"/>
       <use x="127.246094" xlink:href="#DejaVuSans-48"/>
      </g>
     </g>
    </g>
    <g id="xtick_13">
     <g id="line2d_37">
      <g>
       <use style="stroke:#000000;stroke-width:0.8;" x="268.083301" xlink:href="#mdd3ef9c71a" y="41.472"/>
      </g>
     </g>
     <g id="text_21">
      <!-- 300 -->
      <g transform="translate(258.539551 32.392313)scale(0.1 -0.1)">
       <use xlink:href="#DejaVuSans-51"/>
       <use x="63.623047" xlink:href="#DejaVuSans-48"/>
       <use x="127.246094" xlink:href="#DejaVuSans-48"/>
      </g>
     </g>
    </g>
    <g id="xtick_14">
     <g id="line2d_38">
      <g>
       <use style="stroke:#000000;stroke-width:0.8;" x="338.244401" xlink:href="#mdd3ef9c71a" y="41.472"/>
      </g>
     </g>
     <g id="text_22">
      <!-- 400 -->
      <g transform="translate(328.700651 32.392313)scale(0.1 -0.1)">
       <use xlink:href="#DejaVuSans-52"/>
       <use x="63.623047" xlink:href="#DejaVuSans-48"/>
       <use x="127.246094" xlink:href="#DejaVuSans-48"/>
      </g>
     </g>
    </g>
    <g id="xtick_15">
     <g id="line2d_39">
      <g>
       <use style="stroke:#000000;stroke-width:0.8;" x="408.405501" xlink:href="#mdd3ef9c71a" y="41.472"/>
      </g>
     </g>
     <g id="text_23">
      <!-- 500 -->
      <g transform="translate(398.861751 32.392313)scale(0.1 -0.1)">
       <use xlink:href="#DejaVuSans-53"/>
       <use x="63.623047" xlink:href="#DejaVuSans-48"/>
       <use x="127.246094" xlink:href="#DejaVuSans-48"/>
      </g>
     </g>
    </g>
    <g id="text_24">
     <!-- Episodes -->
     <g transform="translate(213.917812 20.793875)scale(0.1 -0.1)">
      <use xlink:href="#DejaVuSans-69"/>
      <use x="63.183594" xlink:href="#DejaVuSans-112"/>
      <use x="126.660156" xlink:href="#DejaVuSans-105"/>
      <use x="154.443359" xlink:href="#DejaVuSans-115"/>
      <use x="206.542969" xlink:href="#DejaVuSans-111"/>
      <use x="267.724609" xlink:href="#DejaVuSans-100"/>
      <use x="331.201172" xlink:href="#DejaVuSans-101"/>
      <use x="392.724609" xlink:href="#DejaVuSans-115"/>
     </g>
    </g>
   </g>
   <g id="patch_7">
    <path d="M 57.6 307.584 
L 57.6 41.472 
" style="fill:none;stroke:#000000;stroke-linecap:square;stroke-linejoin:miter;stroke-width:0.8;"/>
   </g>
   <g id="patch_8">
    <path d="M 414.72 307.584 
L 414.72 41.472 
" style="fill:none;stroke:#000000;stroke-linecap:square;stroke-linejoin:miter;stroke-width:0.8;"/>
   </g>
   <g id="patch_9">
    <path d="M 57.6 307.584 
L 414.72 307.584 
" style="fill:none;stroke:#000000;stroke-linecap:square;stroke-linejoin:miter;stroke-width:0.8;"/>
   </g>
   <g id="patch_10">
    <path d="M 57.6 41.472 
L 414.72 41.472 
" style="fill:none;stroke:#000000;stroke-linecap:square;stroke-linejoin:miter;stroke-width:0.8;"/>
   </g>
  </g>
 </g>
 <defs>
  <clipPath id="p2dd08f8cea">
   <rect height="266.112" width="357.12" x="57.6" y="41.472"/>
  </clipPath>
 </defs>
</svg>
