<?xml version="1.0" encoding="utf-8" standalone="no"?>
<!DOCTYPE svg PUBLIC "-//W3C//DTD SVG 1.1//EN"
  "http://www.w3.org/Graphics/SVG/1.1/DTD/svg11.dtd">
<!-- Created with matplotlib (https://matplotlib.org/) -->
<svg height="345.6pt" version="1.1" viewBox="0 0 460.8 345.6" width="460.8pt" xmlns="http://www.w3.org/2000/svg" xmlns:xlink="http://www.w3.org/1999/xlink">
 <defs>
  <style type="text/css">
*{stroke-linecap:butt;stroke-linejoin:round;}
  </style>
 </defs>
 <g id="figure_1">
  <g id="patch_1">
   <path d="M 0 345.6 
L 460.8 345.6 
L 460.8 0 
L 0 0 
z
" style="fill:#ffffff;"/>
  </g>
  <g id="axes_1">
   <g id="patch_2">
    <path d="M 57.6 307.584 
L 414.72 307.584 
L 414.72 41.472 
L 57.6 41.472 
z
" style="fill:#ffffff;"/>
   </g>
   <g id="matplotlib.axis_1">
    <g id="xtick_1">
     <g id="line2d_1">
      <path clip-path="url(#pcacd7db8ac)" d="M 57.6 307.584 
L 57.6 41.472 
" style="fill:none;stroke:#b0b0b0;stroke-linecap:square;stroke-width:0.8;"/>
     </g>
     <g id="line2d_2">
      <defs>
       <path d="M 0 0 
L 0 3.5 
" id="m3f494dbb8a" style="stroke:#000000;stroke-width:0.8;"/>
      </defs>
      <g>
       <use style="stroke:#000000;stroke-width:0.8;" x="57.6" xlink:href="#m3f494dbb8a" y="307.584"/>
      </g>
     </g>
     <g id="text_1">
      <!-- 0.0 -->
      <defs>
       <path d="M 31.78125 66.40625 
Q 24.171875 66.40625 20.328125 58.90625 
Q 16.5 51.421875 16.5 36.375 
Q 16.5 21.390625 20.328125 13.890625 
Q 24.171875 6.390625 31.78125 6.390625 
Q 39.453125 6.390625 43.28125 13.890625 
Q 47.125 21.390625 47.125 36.375 
Q 47.125 51.421875 43.28125 58.90625 
Q 39.453125 66.40625 31.78125 66.40625 
z
M 31.78125 74.21875 
Q 44.046875 74.21875 50.515625 64.515625 
Q 56.984375 54.828125 56.984375 36.375 
Q 56.984375 17.96875 50.515625 8.265625 
Q 44.046875 -1.421875 31.78125 -1.421875 
Q 19.53125 -1.421875 13.0625 8.265625 
Q 6.59375 17.96875 6.59375 36.375 
Q 6.59375 54.828125 13.0625 64.515625 
Q 19.53125 74.21875 31.78125 74.21875 
z
" id="DejaVuSans-48"/>
       <path d="M 10.6875 12.40625 
L 21 12.40625 
L 21 0 
L 10.6875 0 
z
" id="DejaVuSans-46"/>
      </defs>
      <g transform="translate(49.648438 322.182437)scale(0.1 -0.1)">
       <use xlink:href="#DejaVuSans-48"/>
       <use x="63.623047" xlink:href="#DejaVuSans-46"/>
       <use x="95.410156" xlink:href="#DejaVuSans-48"/>
      </g>
     </g>
    </g>
    <g id="xtick_2">
     <g id="line2d_3">
      <path clip-path="url(#pcacd7db8ac)" d="M 98.440628 307.584 
L 98.440628 41.472 
" style="fill:none;stroke:#b0b0b0;stroke-linecap:square;stroke-width:0.8;"/>
     </g>
     <g id="line2d_4">
      <g>
       <use style="stroke:#000000;stroke-width:0.8;" x="98.440628" xlink:href="#m3f494dbb8a" y="307.584"/>
      </g>
     </g>
     <g id="text_2">
      <!-- 0.2 -->
      <defs>
       <path d="M 19.1875 8.296875 
L 53.609375 8.296875 
L 53.609375 0 
L 7.328125 0 
L 7.328125 8.296875 
Q 12.9375 14.109375 22.625 23.890625 
Q 32.328125 33.6875 34.8125 36.53125 
Q 39.546875 41.84375 41.421875 45.53125 
Q 43.3125 49.21875 43.3125 52.78125 
Q 43.3125 58.59375 39.234375 62.25 
Q 35.15625 65.921875 28.609375 65.921875 
Q 23.96875 65.921875 18.8125 64.3125 
Q 13.671875 62.703125 7.8125 59.421875 
L 7.8125 69.390625 
Q 13.765625 71.78125 18.9375 73 
Q 24.125 74.21875 28.421875 74.21875 
Q 39.75 74.21875 46.484375 68.546875 
Q 53.21875 62.890625 53.21875 53.421875 
Q 53.21875 48.921875 51.53125 44.890625 
Q 49.859375 40.875 45.40625 35.40625 
Q 44.1875 33.984375 37.640625 27.21875 
Q 31.109375 20.453125 19.1875 8.296875 
z
" id="DejaVuSans-50"/>
      </defs>
      <g transform="translate(90.489065 322.182437)scale(0.1 -0.1)">
       <use xlink:href="#DejaVuSans-48"/>
       <use x="63.623047" xlink:href="#DejaVuSans-46"/>
       <use x="95.410156" xlink:href="#DejaVuSans-50"/>
      </g>
     </g>
    </g>
    <g id="xtick_3">
     <g id="line2d_5">
      <path clip-path="url(#pcacd7db8ac)" d="M 139.281255 307.584 
L 139.281255 41.472 
" style="fill:none;stroke:#b0b0b0;stroke-linecap:square;stroke-width:0.8;"/>
     </g>
     <g id="line2d_6">
      <g>
       <use style="stroke:#000000;stroke-width:0.8;" x="139.281255" xlink:href="#m3f494dbb8a" y="307.584"/>
      </g>
     </g>
     <g id="text_3">
      <!-- 0.4 -->
      <defs>
       <path d="M 37.796875 64.3125 
L 12.890625 25.390625 
L 37.796875 25.390625 
z
M 35.203125 72.90625 
L 47.609375 72.90625 
L 47.609375 25.390625 
L 58.015625 25.390625 
L 58.015625 17.1875 
L 47.609375 17.1875 
L 47.609375 0 
L 37.796875 0 
L 37.796875 17.1875 
L 4.890625 17.1875 
L 4.890625 26.703125 
z
" id="DejaVuSans-52"/>
      </defs>
      <g transform="translate(131.329693 322.182437)scale(0.1 -0.1)">
       <use xlink:href="#DejaVuSans-48"/>
       <use x="63.623047" xlink:href="#DejaVuSans-46"/>
       <use x="95.410156" xlink:href="#DejaVuSans-52"/>
      </g>
     </g>
    </g>
    <g id="xtick_4">
     <g id="line2d_7">
      <path clip-path="url(#pcacd7db8ac)" d="M 180.121883 307.584 
L 180.121883 41.472 
" style="fill:none;stroke:#b0b0b0;stroke-linecap:square;stroke-width:0.8;"/>
     </g>
     <g id="line2d_8">
      <g>
       <use style="stroke:#000000;stroke-width:0.8;" x="180.121883" xlink:href="#m3f494dbb8a" y="307.584"/>
      </g>
     </g>
     <g id="text_4">
      <!-- 0.6 -->
      <defs>
       <path d="M 33.015625 40.375 
Q 26.375 40.375 22.484375 35.828125 
Q 18.609375 31.296875 18.609375 23.390625 
Q 18.609375 15.53125 22.484375 10.953125 
Q 26.375 6.390625 33.015625 6.390625 
Q 39.65625 6.390625 43.53125 10.953125 
Q 47.40625 15.53125 47.40625 23.390625 
Q 47.40625 31.296875 43.53125 35.828125 
Q 39.65625 40.375 33.015625 40.375 
z
M 52.59375 71.296875 
L 52.59375 62.3125 
Q 48.875 64.0625 45.09375 64.984375 
Q 41.3125 65.921875 37.59375 65.921875 
Q 27.828125 65.921875 22.671875 59.328125 
Q 17.53125 52.734375 16.796875 39.40625 
Q 19.671875 43.65625 24.015625 45.921875 
Q 28.375 48.1875 33.59375 48.1875 
Q 44.578125 48.1875 50.953125 41.515625 
Q 57.328125 34.859375 57.328125 23.390625 
Q 57.328125 12.15625 50.6875 5.359375 
Q 44.046875 -1.421875 33.015625 -1.421875 
Q 20.359375 -1.421875 13.671875 8.265625 
Q 6.984375 17.96875 6.984375 36.375 
Q 6.984375 53.65625 15.1875 63.9375 
Q 23.390625 74.21875 37.203125 74.21875 
Q 40.921875 74.21875 44.703125 73.484375 
Q 48.484375 72.75 52.59375 71.296875 
z
" id="DejaVuSans-54"/>
      </defs>
      <g transform="translate(172.17032 322.182437)scale(0.1 -0.1)">
       <use xlink:href="#DejaVuSans-48"/>
       <use x="63.623047" xlink:href="#DejaVuSans-46"/>
       <use x="95.410156" xlink:href="#DejaVuSans-54"/>
      </g>
     </g>
    </g>
    <g id="xtick_5">
     <g id="line2d_9">
      <path clip-path="url(#pcacd7db8ac)" d="M 220.96251 307.584 
L 220.96251 41.472 
" style="fill:none;stroke:#b0b0b0;stroke-linecap:square;stroke-width:0.8;"/>
     </g>
     <g id="line2d_10">
      <g>
       <use style="stroke:#000000;stroke-width:0.8;" x="220.96251" xlink:href="#m3f494dbb8a" y="307.584"/>
      </g>
     </g>
     <g id="text_5">
      <!-- 0.8 -->
      <defs>
       <path d="M 31.78125 34.625 
Q 24.75 34.625 20.71875 30.859375 
Q 16.703125 27.09375 16.703125 20.515625 
Q 16.703125 13.921875 20.71875 10.15625 
Q 24.75 6.390625 31.78125 6.390625 
Q 38.8125 6.390625 42.859375 10.171875 
Q 46.921875 13.96875 46.921875 20.515625 
Q 46.921875 27.09375 42.890625 30.859375 
Q 38.875 34.625 31.78125 34.625 
z
M 21.921875 38.8125 
Q 15.578125 40.375 12.03125 44.71875 
Q 8.5 49.078125 8.5 55.328125 
Q 8.5 64.0625 14.71875 69.140625 
Q 20.953125 74.21875 31.78125 74.21875 
Q 42.671875 74.21875 48.875 69.140625 
Q 55.078125 64.0625 55.078125 55.328125 
Q 55.078125 49.078125 51.53125 44.71875 
Q 48 40.375 41.703125 38.8125 
Q 48.828125 37.15625 52.796875 32.3125 
Q 56.78125 27.484375 56.78125 20.515625 
Q 56.78125 9.90625 50.3125 4.234375 
Q 43.84375 -1.421875 31.78125 -1.421875 
Q 19.734375 -1.421875 13.25 4.234375 
Q 6.78125 9.90625 6.78125 20.515625 
Q 6.78125 27.484375 10.78125 32.3125 
Q 14.796875 37.15625 21.921875 38.8125 
z
M 18.3125 54.390625 
Q 18.3125 48.734375 21.84375 45.5625 
Q 25.390625 42.390625 31.78125 42.390625 
Q 38.140625 42.390625 41.71875 45.5625 
Q 45.3125 48.734375 45.3125 54.390625 
Q 45.3125 60.0625 41.71875 63.234375 
Q 38.140625 66.40625 31.78125 66.40625 
Q 25.390625 66.40625 21.84375 63.234375 
Q 18.3125 60.0625 18.3125 54.390625 
z
" id="DejaVuSans-56"/>
      </defs>
      <g transform="translate(213.010948 322.182437)scale(0.1 -0.1)">
       <use xlink:href="#DejaVuSans-48"/>
       <use x="63.623047" xlink:href="#DejaVuSans-46"/>
       <use x="95.410156" xlink:href="#DejaVuSans-56"/>
      </g>
     </g>
    </g>
    <g id="xtick_6">
     <g id="line2d_11">
      <path clip-path="url(#pcacd7db8ac)" d="M 261.803138 307.584 
L 261.803138 41.472 
" style="fill:none;stroke:#b0b0b0;stroke-linecap:square;stroke-width:0.8;"/>
     </g>
     <g id="line2d_12">
      <g>
       <use style="stroke:#000000;stroke-width:0.8;" x="261.803138" xlink:href="#m3f494dbb8a" y="307.584"/>
      </g>
     </g>
     <g id="text_6">
      <!-- 1.0 -->
      <defs>
       <path d="M 12.40625 8.296875 
L 28.515625 8.296875 
L 28.515625 63.921875 
L 10.984375 60.40625 
L 10.984375 69.390625 
L 28.421875 72.90625 
L 38.28125 72.90625 
L 38.28125 8.296875 
L 54.390625 8.296875 
L 54.390625 0 
L 12.40625 0 
z
" id="DejaVuSans-49"/>
      </defs>
      <g transform="translate(253.851575 322.182437)scale(0.1 -0.1)">
       <use xlink:href="#DejaVuSans-49"/>
       <use x="63.623047" xlink:href="#DejaVuSans-46"/>
       <use x="95.410156" xlink:href="#DejaVuSans-48"/>
      </g>
     </g>
    </g>
    <g id="xtick_7">
     <g id="line2d_13">
      <path clip-path="url(#pcacd7db8ac)" d="M 302.643765 307.584 
L 302.643765 41.472 
" style="fill:none;stroke:#b0b0b0;stroke-linecap:square;stroke-width:0.8;"/>
     </g>
     <g id="line2d_14">
      <g>
       <use style="stroke:#000000;stroke-width:0.8;" x="302.643765" xlink:href="#m3f494dbb8a" y="307.584"/>
      </g>
     </g>
     <g id="text_7">
      <!-- 1.2 -->
      <g transform="translate(294.692203 322.182437)scale(0.1 -0.1)">
       <use xlink:href="#DejaVuSans-49"/>
       <use x="63.623047" xlink:href="#DejaVuSans-46"/>
       <use x="95.410156" xlink:href="#DejaVuSans-50"/>
      </g>
     </g>
    </g>
    <g id="xtick_8">
     <g id="line2d_15">
      <path clip-path="url(#pcacd7db8ac)" d="M 343.484393 307.584 
L 343.484393 41.472 
" style="fill:none;stroke:#b0b0b0;stroke-linecap:square;stroke-width:0.8;"/>
     </g>
     <g id="line2d_16">
      <g>
       <use style="stroke:#000000;stroke-width:0.8;" x="343.484393" xlink:href="#m3f494dbb8a" y="307.584"/>
      </g>
     </g>
     <g id="text_8">
      <!-- 1.4 -->
      <g transform="translate(335.53283 322.182437)scale(0.1 -0.1)">
       <use xlink:href="#DejaVuSans-49"/>
       <use x="63.623047" xlink:href="#DejaVuSans-46"/>
       <use x="95.410156" xlink:href="#DejaVuSans-52"/>
      </g>
     </g>
    </g>
    <g id="xtick_9">
     <g id="line2d_17">
      <path clip-path="url(#pcacd7db8ac)" d="M 384.32502 307.584 
L 384.32502 41.472 
" style="fill:none;stroke:#b0b0b0;stroke-linecap:square;stroke-width:0.8;"/>
     </g>
     <g id="line2d_18">
      <g>
       <use style="stroke:#000000;stroke-width:0.8;" x="384.32502" xlink:href="#m3f494dbb8a" y="307.584"/>
      </g>
     </g>
     <g id="text_9">
      <!-- 1.6 -->
      <g transform="translate(376.373458 322.182437)scale(0.1 -0.1)">
       <use xlink:href="#DejaVuSans-49"/>
       <use x="63.623047" xlink:href="#DejaVuSans-46"/>
       <use x="95.410156" xlink:href="#DejaVuSans-54"/>
      </g>
     </g>
    </g>
    <g id="text_10">
     <!-- Hours -->
     <defs>
      <path d="M 9.8125 72.90625 
L 19.671875 72.90625 
L 19.671875 43.015625 
L 55.515625 43.015625 
L 55.515625 72.90625 
L 65.375 72.90625 
L 65.375 0 
L 55.515625 0 
L 55.515625 34.71875 
L 19.671875 34.71875 
L 19.671875 0 
L 9.8125 0 
z
" id="DejaVuSans-72"/>
      <path d="M 30.609375 48.390625 
Q 23.390625 48.390625 19.1875 42.75 
Q 14.984375 37.109375 14.984375 27.296875 
Q 14.984375 17.484375 19.15625 11.84375 
Q 23.34375 6.203125 30.609375 6.203125 
Q 37.796875 6.203125 41.984375 11.859375 
Q 46.1875 17.53125 46.1875 27.296875 
Q 46.1875 37.015625 41.984375 42.703125 
Q 37.796875 48.390625 30.609375 48.390625 
z
M 30.609375 56 
Q 42.328125 56 49.015625 48.375 
Q 55.71875 40.765625 55.71875 27.296875 
Q 55.71875 13.875 49.015625 6.21875 
Q 42.328125 -1.421875 30.609375 -1.421875 
Q 18.84375 -1.421875 12.171875 6.21875 
Q 5.515625 13.875 5.515625 27.296875 
Q 5.515625 40.765625 12.171875 48.375 
Q 18.84375 56 30.609375 56 
z
" id="DejaVuSans-111"/>
      <path d="M 8.5 21.578125 
L 8.5 54.6875 
L 17.484375 54.6875 
L 17.484375 21.921875 
Q 17.484375 14.15625 20.5 10.265625 
Q 23.53125 6.390625 29.59375 6.390625 
Q 36.859375 6.390625 41.078125 11.03125 
Q 45.3125 15.671875 45.3125 23.6875 
L 45.3125 54.6875 
L 54.296875 54.6875 
L 54.296875 0 
L 45.3125 0 
L 45.3125 8.40625 
Q 42.046875 3.421875 37.71875 1 
Q 33.40625 -1.421875 27.6875 -1.421875 
Q 18.265625 -1.421875 13.375 4.4375 
Q 8.5 10.296875 8.5 21.578125 
z
M 31.109375 56 
z
" id="DejaVuSans-117"/>
      <path d="M 41.109375 46.296875 
Q 39.59375 47.171875 37.8125 47.578125 
Q 36.03125 48 33.890625 48 
Q 26.265625 48 22.1875 43.046875 
Q 18.109375 38.09375 18.109375 28.8125 
L 18.109375 0 
L 9.078125 0 
L 9.078125 54.6875 
L 18.109375 54.6875 
L 18.109375 46.1875 
Q 20.953125 51.171875 25.484375 53.578125 
Q 30.03125 56 36.53125 56 
Q 37.453125 56 38.578125 55.875 
Q 39.703125 55.765625 41.0625 55.515625 
z
" id="DejaVuSans-114"/>
      <path d="M 44.28125 53.078125 
L 44.28125 44.578125 
Q 40.484375 46.53125 36.375 47.5 
Q 32.28125 48.484375 27.875 48.484375 
Q 21.1875 48.484375 17.84375 46.4375 
Q 14.5 44.390625 14.5 40.28125 
Q 14.5 37.15625 16.890625 35.375 
Q 19.28125 33.59375 26.515625 31.984375 
L 29.59375 31.296875 
Q 39.15625 29.25 43.1875 25.515625 
Q 47.21875 21.78125 47.21875 15.09375 
Q 47.21875 7.46875 41.1875 3.015625 
Q 35.15625 -1.421875 24.609375 -1.421875 
Q 20.21875 -1.421875 15.453125 -0.5625 
Q 10.6875 0.296875 5.421875 2 
L 5.421875 11.28125 
Q 10.40625 8.6875 15.234375 7.390625 
Q 20.0625 6.109375 24.8125 6.109375 
Q 31.15625 6.109375 34.5625 8.28125 
Q 37.984375 10.453125 37.984375 14.40625 
Q 37.984375 18.0625 35.515625 20.015625 
Q 33.0625 21.96875 24.703125 23.78125 
L 21.578125 24.515625 
Q 13.234375 26.265625 9.515625 29.90625 
Q 5.8125 33.546875 5.8125 39.890625 
Q 5.8125 47.609375 11.28125 51.796875 
Q 16.75 56 26.8125 56 
Q 31.78125 56 36.171875 55.265625 
Q 40.578125 54.546875 44.28125 53.078125 
z
" id="DejaVuSans-115"/>
     </defs>
     <g transform="translate(221.511562 335.860562)scale(0.1 -0.1)">
      <use xlink:href="#DejaVuSans-72"/>
      <use x="75.195312" xlink:href="#DejaVuSans-111"/>
      <use x="136.376953" xlink:href="#DejaVuSans-117"/>
      <use x="199.755859" xlink:href="#DejaVuSans-114"/>
      <use x="240.869141" xlink:href="#DejaVuSans-115"/>
     </g>
    </g>
   </g>
   <g id="matplotlib.axis_2">
    <g id="ytick_1">
     <g id="line2d_19">
      <path clip-path="url(#pcacd7db8ac)" d="M 57.6 263.904031 
L 414.72 263.904031 
" style="fill:none;stroke:#b0b0b0;stroke-linecap:square;stroke-width:0.8;"/>
     </g>
     <g id="line2d_20">
      <defs>
       <path d="M 0 0 
L -3.5 0 
" id="m4c951ab824" style="stroke:#000000;stroke-width:0.8;"/>
      </defs>
      <g>
       <use style="stroke:#000000;stroke-width:0.8;" x="57.6" xlink:href="#m4c951ab824" y="263.904031"/>
      </g>
     </g>
     <g id="text_11">
      <!-- 0.005 -->
      <defs>
       <path d="M 10.796875 72.90625 
L 49.515625 72.90625 
L 49.515625 64.59375 
L 19.828125 64.59375 
L 19.828125 46.734375 
Q 21.96875 47.46875 24.109375 47.828125 
Q 26.265625 48.1875 28.421875 48.1875 
Q 40.625 48.1875 47.75 41.5 
Q 54.890625 34.8125 54.890625 23.390625 
Q 54.890625 11.625 47.5625 5.09375 
Q 40.234375 -1.421875 26.90625 -1.421875 
Q 22.3125 -1.421875 17.546875 -0.640625 
Q 12.796875 0.140625 7.71875 1.703125 
L 7.71875 11.625 
Q 12.109375 9.234375 16.796875 8.0625 
Q 21.484375 6.890625 26.703125 6.890625 
Q 35.15625 6.890625 40.078125 11.328125 
Q 45.015625 15.765625 45.015625 23.390625 
Q 45.015625 31 40.078125 35.4375 
Q 35.15625 39.890625 26.703125 39.890625 
Q 22.75 39.890625 18.8125 39.015625 
Q 14.890625 38.140625 10.796875 36.28125 
z
" id="DejaVuSans-53"/>
      </defs>
      <g transform="translate(21.971875 267.70325)scale(0.1 -0.1)">
       <use xlink:href="#DejaVuSans-48"/>
       <use x="63.623047" xlink:href="#DejaVuSans-46"/>
       <use x="95.410156" xlink:href="#DejaVuSans-48"/>
       <use x="159.033203" xlink:href="#DejaVuSans-48"/>
       <use x="222.65625" xlink:href="#DejaVuSans-53"/>
      </g>
     </g>
    </g>
    <g id="ytick_2">
     <g id="line2d_21">
      <path clip-path="url(#pcacd7db8ac)" d="M 57.6 216.257446 
L 414.72 216.257446 
" style="fill:none;stroke:#b0b0b0;stroke-linecap:square;stroke-width:0.8;"/>
     </g>
     <g id="line2d_22">
      <g>
       <use style="stroke:#000000;stroke-width:0.8;" x="57.6" xlink:href="#m4c951ab824" y="216.257446"/>
      </g>
     </g>
     <g id="text_12">
      <!-- 0.010 -->
      <g transform="translate(21.971875 220.056665)scale(0.1 -0.1)">
       <use xlink:href="#DejaVuSans-48"/>
       <use x="63.623047" xlink:href="#DejaVuSans-46"/>
       <use x="95.410156" xlink:href="#DejaVuSans-48"/>
       <use x="159.033203" xlink:href="#DejaVuSans-49"/>
       <use x="222.65625" xlink:href="#DejaVuSans-48"/>
      </g>
     </g>
    </g>
    <g id="ytick_3">
     <g id="line2d_23">
      <path clip-path="url(#pcacd7db8ac)" d="M 57.6 168.610861 
L 414.72 168.610861 
" style="fill:none;stroke:#b0b0b0;stroke-linecap:square;stroke-width:0.8;"/>
     </g>
     <g id="line2d_24">
      <g>
       <use style="stroke:#000000;stroke-width:0.8;" x="57.6" xlink:href="#m4c951ab824" y="168.610861"/>
      </g>
     </g>
     <g id="text_13">
      <!-- 0.015 -->
      <g transform="translate(21.971875 172.41008)scale(0.1 -0.1)">
       <use xlink:href="#DejaVuSans-48"/>
       <use x="63.623047" xlink:href="#DejaVuSans-46"/>
       <use x="95.410156" xlink:href="#DejaVuSans-48"/>
       <use x="159.033203" xlink:href="#DejaVuSans-49"/>
       <use x="222.65625" xlink:href="#DejaVuSans-53"/>
      </g>
     </g>
    </g>
    <g id="ytick_4">
     <g id="line2d_25">
      <path clip-path="url(#pcacd7db8ac)" d="M 57.6 120.964276 
L 414.72 120.964276 
" style="fill:none;stroke:#b0b0b0;stroke-linecap:square;stroke-width:0.8;"/>
     </g>
     <g id="line2d_26">
      <g>
       <use style="stroke:#000000;stroke-width:0.8;" x="57.6" xlink:href="#m4c951ab824" y="120.964276"/>
      </g>
     </g>
     <g id="text_14">
      <!-- 0.020 -->
      <g transform="translate(21.971875 124.763495)scale(0.1 -0.1)">
       <use xlink:href="#DejaVuSans-48"/>
       <use x="63.623047" xlink:href="#DejaVuSans-46"/>
       <use x="95.410156" xlink:href="#DejaVuSans-48"/>
       <use x="159.033203" xlink:href="#DejaVuSans-50"/>
       <use x="222.65625" xlink:href="#DejaVuSans-48"/>
      </g>
     </g>
    </g>
    <g id="ytick_5">
     <g id="line2d_27">
      <path clip-path="url(#pcacd7db8ac)" d="M 57.6 73.317691 
L 414.72 73.317691 
" style="fill:none;stroke:#b0b0b0;stroke-linecap:square;stroke-width:0.8;"/>
     </g>
     <g id="line2d_28">
      <g>
       <use style="stroke:#000000;stroke-width:0.8;" x="57.6" xlink:href="#m4c951ab824" y="73.317691"/>
      </g>
     </g>
     <g id="text_15">
      <!-- 0.025 -->
      <g transform="translate(21.971875 77.11691)scale(0.1 -0.1)">
       <use xlink:href="#DejaVuSans-48"/>
       <use x="63.623047" xlink:href="#DejaVuSans-46"/>
       <use x="95.410156" xlink:href="#DejaVuSans-48"/>
       <use x="159.033203" xlink:href="#DejaVuSans-50"/>
       <use x="222.65625" xlink:href="#DejaVuSans-53"/>
      </g>
     </g>
    </g>
    <g id="text_16">
     <!-- Loss -->
     <defs>
      <path d="M 9.8125 72.90625 
L 19.671875 72.90625 
L 19.671875 8.296875 
L 55.171875 8.296875 
L 55.171875 0 
L 9.8125 0 
z
" id="DejaVuSans-76"/>
     </defs>
     <g transform="translate(15.892188 185.581906)rotate(-90)scale(0.1 -0.1)">
      <use xlink:href="#DejaVuSans-76"/>
      <use x="55.697266" xlink:href="#DejaVuSans-111"/>
      <use x="116.878906" xlink:href="#DejaVuSans-115"/>
      <use x="168.978516" xlink:href="#DejaVuSans-115"/>
     </g>
    </g>
   </g>
   <g id="line2d_29">
    <path clip-path="url(#pcacd7db8ac)" d="M 57.6 114.232285 
L 57.813221 119.222641 
L 58.572384 53.568 
L 59.605793 124.193366 
L 60.731352 82.6101 
L 61.453206 86.503683 
L 62.56919 201.262649 
L 62.895269 182.906395 
L 63.523129 166.524285 
L 65.079171 213.023562 
L 65.254083 233.132184 
L 65.779265 198.760894 
L 66.161888 225.299448 
L 66.424898 225.060625 
L 66.632744 213.567041 
L 67.858491 248.868399 
L 67.928283 230.18634 
L 68.213737 249.552017 
L 68.963381 245.177386 
L 69.244048 237.83625 
L 69.954865 248.80738 
L 71.84909 246.282196 
L 71.884028 229.049133 
L 72.478917 242.51205 
L 72.583982 212.86471 
L 72.68941 222.908984 
L 73.328359 228.725431 
L 73.363495 236.659412 
L 73.716345 235.070908 
L 75.128645 243.157843 
L 75.729037 223.43514 
L 75.904905 224.813105 
L 76.862784 227.751281 
L 77.208822 229.925686 
L 77.415792 239.075031 
L 77.692963 234.110807 
L 78.859892 229.235745 
L 79.349235 242.119093 
L 79.591114 240.146139 
L 79.625644 237.708954 
L 79.696175 239.125139 
L 79.800138 234.446109 
L 79.868932 215.993368 
L 80.294937 237.754353 
L 80.647398 242.92096 
L 82.171195 219.872129 
L 82.45179 220.925416 
L 82.733636 216.826931 
L 83.047896 224.596292 
L 83.500116 219.503245 
L 83.643022 225.634412 
L 84.090054 234.288872 
L 84.226863 230.824026 
L 84.46888 231.999432 
L 84.640339 226.139658 
L 84.709351 239.503789 
L 84.882297 222.823626 
L 84.950696 232.110332 
L 85.087747 218.172476 
L 85.23353 229.195852 
L 85.441444 224.797689 
L 85.475607 216.140477 
L 86.275019 216.02569 
L 86.414793 232.987018 
L 87.58496 218.421975 
L 87.833189 212.945436 
L 88.0433 221.609295 
L 88.538191 229.597706 
L 88.682398 214.608267 
L 88.930464 229.772275 
L 89.000907 223.681098 
L 89.283067 225.745774 
L 89.780116 222.104185 
L 89.815284 235.796784 
L 90.170466 207.789218 
L 90.27825 209.6729 
L 90.60576 219.587698 
L 91.207758 226.540767 
L 91.243011 228.895234 
L 91.455489 223.531175 
L 91.49076 235.604927 
L 91.669664 204.044316 
L 92.314819 210.56888 
L 92.421143 191.953098 
L 92.739173 218.766897 
L 93.805553 207.908061 
L 94.27246 213.143825 
L 94.484706 204.715451 
L 94.589971 206.125331 
L 94.660828 213.099264 
L 94.801709 209.408624 
L 95.020712 211.656362 
L 95.198181 207.176949 
L 95.557969 194.142954 
L 95.772155 215.247399 
L 95.949597 215.557638 
L 96.305877 208.058969 
L 97.796428 220.135455 
L 97.973589 196.778222 
L 98.00878 218.976601 
L 98.644936 213.833171 
L 99.111571 222.820724 
L 99.572561 207.578724 
L 100.496012 214.880867 
L 100.930008 194.051215 
L 101.320146 197.847262 
L 101.426653 210.371618 
L 101.53362 197.793054 
L 102.24417 203.451138 
L 102.467375 197.605706 
L 102.715364 197.11481 
L 102.928426 196.039656 
L 103.497038 209.517288 
L 103.60503 216.753793 
L 103.995261 187.767409 
L 104.102764 210.257665 
L 104.218064 207.411761 
L 104.253928 201.683575 
L 105.966332 203.782934 
L 106.072554 194.729911 
L 106.214075 201.883898 
L 106.995279 199.71662 
L 107.420296 183.418191 
L 107.920426 200.028296 
L 108.802002 201.409714 
L 108.837131 209.38885 
L 109.225227 209.248636 
L 109.516604 202.654698 
L 109.658946 212.565778 
L 109.729739 204.149066 
L 110.86721 196.086657 
L 111.010123 205.927608 
L 111.902292 224.760725 
L 112.472492 200.392929 
L 112.507875 206.681377 
L 113.191482 204.522627 
L 113.759172 203.852734 
L 113.794784 210.943071 
L 114.583404 209.965158 
L 114.76088 219.129764 
L 115.04621 197.837136 
L 115.223382 210.937284 
L 115.32932 207.660479 
L 115.755524 207.026512 
L 116.039282 225.365379 
L 116.297756 199.183436 
L 116.545409 213.041258 
L 116.866919 218.368353 
L 117.008491 216.182402 
L 117.150971 222.656778 
L 117.258609 211.267722 
L 117.506212 218.293742 
L 117.825788 214.54585 
L 118.186925 221.325335 
L 118.328976 205.815083 
L 118.399695 218.345181 
L 118.505453 207.051778 
L 118.682576 203.574285 
L 118.823485 215.548044 
L 119.53147 214.427903 
L 119.854406 211.924977 
L 120.06836 195.524691 
L 120.315205 198.448472 
L 120.35047 214.192905 
L 120.668065 205.23275 
L 120.915014 213.452555 
L 121.659671 217.758126 
L 121.801157 211.536586 
L 122.153274 205.712037 
L 122.294775 222.529655 
L 122.611059 206.543248 
L 123.078155 214.214409 
L 123.18522 204.311201 
L 123.397245 213.088561 
L 123.467803 211.515952 
L 124.666399 207.377495 
L 124.882419 198.97437 
L 125.486196 215.979727 
L 125.842774 207.142506 
L 126.019779 223.691517 
L 126.668401 224.226867 
L 127.17026 210.112081 
L 127.241274 212.979755 
L 128.023396 215.882458 
L 128.316888 209.582553 
L 128.916933 218.478943 
L 129.131606 231.941292 
L 129.990489 218.572156 
L 130.451647 232.234811 
L 130.557242 239.343434 
L 130.593178 237.323935 
L 130.734292 215.073949 
L 131.023917 232.03999 
L 131.270508 217.373658 
L 131.814714 200.140661 
L 133.017655 210.614088 
L 133.159054 226.513956 
L 133.411311 228.745745 
L 133.731536 221.000923 
L 134.156152 221.290279 
L 134.509057 210.265874 
L 134.579963 224.638776 
L 134.650343 206.032855 
L 134.935383 230.479451 
L 135.364932 196.886123 
L 136.071657 206.014856 
L 136.282922 223.522158 
L 136.353659 215.159698 
L 136.601611 218.151105 
L 136.63676 213.04771 
L 136.889869 207.696156 
L 136.997585 214.261819 
L 137.176087 218.26702 
L 137.852361 213.179884 
L 138.209086 212.848265 
L 138.421859 224.737722 
L 138.641427 219.819758 
L 138.785148 219.15259 
L 139.211997 230.327673 
L 139.247375 221.966544 
L 140.137619 214.143712 
L 140.46712 223.375385 
L 141.720729 215.317316 
L 141.827065 200.50312 
L 143.397185 224.392436 
L 143.680397 207.755058 
L 143.937736 207.524241 
L 144.009655 225.877095 
L 144.081078 219.219293 
L 144.258492 208.905809 
L 145.149547 231.170537 
L 145.184953 225.191272 
L 145.549429 201.733522 
L 145.620369 221.368609 
L 146.29669 237.502165 
L 146.509562 234.73692 
L 146.829737 216.761239 
L 147.368821 228.028638 
L 147.511733 204.307971 
L 147.583111 210.735203 
L 148.472765 223.953476 
L 148.906425 217.131534 
L 149.258085 208.355603 
L 149.470281 230.542036 
L 150.070283 224.749836 
L 150.281572 219.362401 
L 150.316667 202.74721 
L 150.815818 205.808267 
L 151.027996 216.417604 
L 151.207074 214.091448 
L 152.024017 226.978448 
L 152.272555 213.968744 
L 152.456005 197.61577 
L 152.91696 215.972725 
L 153.164819 194.905873 
L 153.69434 222.467486 
L 154.124804 204.860804 
L 154.230584 206.280632 
L 154.724201 223.959351 
L 155.967142 219.165556 
L 156.00227 205.019478 
L 156.038087 220.891567 
L 156.673212 204.573746 
L 157.202409 236.652126 
L 158.90224 214.943258 
L 159.229225 193.450821 
L 159.549186 200.257818 
L 159.763865 230.793337 
L 160.513217 223.071368 
L 160.584014 232.661302 
L 160.61949 190.260049 
L 162.301857 226.351617 
L 162.585239 221.622474 
L 163.410082 218.847667 
L 163.72997 215.52442 
L 163.871633 212.395123 
L 164.012832 230.279056 
L 164.445229 235.736399 
L 164.550628 203.322284 
L 164.832918 223.099501 
L 164.938653 217.298452 
L 165.786738 208.404317 
L 165.930485 231.587904 
L 166.001272 219.499145 
L 166.993532 247.605803 
L 167.811976 220.042668 
L 168.629942 237.478039 
L 168.809327 231.402215 
L 168.987069 243.863169 
L 169.199842 222.509961 
L 169.777645 236.632663 
L 170.420725 232.328157 
L 170.457279 237.254694 
L 170.705611 225.380591 
L 170.811839 235.003965 
L 171.670065 220.125098 
L 171.776447 232.577523 
L 172.024385 215.103848 
L 172.238104 236.674162 
L 172.273434 232.552638 
L 173.166683 229.050615 
L 173.485642 220.925815 
L 174.333484 228.121425 
L 174.616966 223.979817 
L 175.120299 238.188498 
L 175.155544 235.166366 
L 175.757625 233.970123 
L 176.792686 235.614609 
L 176.863109 232.771252 
L 177.215201 238.414936 
L 177.817908 227.701351 
L 177.996014 220.219926 
L 178.785943 193.471686 
L 179.069627 223.216126 
L 179.459776 234.712133 
L 179.532124 225.844453 
L 179.780097 240.751196 
L 179.997514 207.589684 
L 180.247001 226.647096 
L 180.45787 230.071855 
L 180.563857 221.025267 
L 181.168137 217.624009 
L 181.602395 233.019731 
L 181.709294 227.430383 
L 181.958851 230.412481 
L 182.52796 232.244742 
L 182.598876 232.904757 
L 182.812067 226.61386 
L 182.955796 236.227552 
L 184.131905 206.241547 
L 184.840216 220.381377 
L 185.48428 230.73636 
L 185.555317 214.130657 
L 185.731218 233.061673 
L 185.838672 238.166489 
L 186.439366 224.732486 
L 186.830606 238.922201 
L 187.326958 221.695115 
L 188.469298 232.573662 
L 189.320223 234.773396 
L 189.461793 211.455683 
L 189.532285 222.756638 
L 189.746412 236.870066 
L 189.852221 217.168897 
L 189.922681 223.410326 
L 190.493133 235.954534 
L 190.95493 224.743916 
L 191.697661 215.987563 
L 191.881275 240.872312 
L 192.447015 227.221593 
L 192.625874 232.952805 
L 192.698686 216.966062 
L 193.051451 213.011181 
L 193.194298 232.057518 
L 194.224686 239.860874 
L 194.402928 238.719428 
L 194.649776 236.030938 
L 196.2133 226.958995 
L 196.74994 251.091784 
L 196.893561 232.903878 
L 197.29608 221.165224 
L 197.508481 238.241752 
L 197.72266 233.029023 
L 198.501429 245.841625 
L 198.899907 233.682826 
L 199.077658 236.042972 
L 199.399027 246.759642 
L 199.434504 225.24469 
L 199.860703 242.962871 
L 200.252983 245.455804 
L 200.721458 238.748156 
L 202.402659 244.199123 
L 202.58138 244.096396 
L 202.616882 255.935914 
L 202.97328 241.86359 
L 205.575085 214.858032 
L 205.972384 237.276943 
L 206.007852 231.076286 
L 206.078754 249.285212 
L 206.149663 246.71927 
L 206.293013 227.313847 
L 207.181917 242.427206 
L 207.369445 225.498564 
L 207.476217 243.4244 
L 207.7584 223.608235 
L 208.149196 232.051678 
L 208.573963 231.172862 
L 208.609255 244.416978 
L 209.148794 236.393973 
L 209.718089 248.937468 
L 209.931598 249.203749 
L 210.073479 241.900261 
L 210.39497 251.518768 
L 210.466486 247.436466 
L 210.796393 249.252437 
L 210.937722 234.518226 
L 211.328515 237.113091 
L 212.250048 244.051139 
L 212.57541 237.773612 
L 213.111036 231.446359 
L 213.359974 227.010558 
L 213.573979 235.92278 
L 213.716192 229.723729 
L 213.751646 230.644656 
L 214.433719 231.126739 
L 214.539694 243.5928 
L 215.824619 242.387709 
L 216.045162 241.74977 
L 216.577927 222.757526 
L 216.648576 238.360183 
L 217.251567 239.520199 
L 217.286905 236.484772 
L 217.969297 242.657487 
L 218.004623 215.094894 
L 218.112486 230.096012 
L 218.431626 235.201209 
L 218.822471 234.738163 
L 219.713134 241.019062 
L 219.820869 219.996963 
L 220.209503 212.969798 
L 220.387776 244.054689 
L 220.458973 241.95852 
L 220.884541 222.247079 
L 221.498729 225.898546 
L 222.247223 228.943903 
L 222.49641 239.877883 
L 222.781415 238.324768 
L 222.9317 231.163268 
L 223.179224 230.730175 
L 223.215711 228.930973 
L 223.251046 235.254955 
L 223.605367 244.318787 
L 224.527814 242.118294 
L 224.708788 249.82207 
L 225.275997 238.893682 
L 225.664802 248.412266 
L 225.805763 240.580102 
L 225.841566 224.7685 
L 226.124527 244.618442 
L 226.341143 245.872071 
L 226.448041 238.542805 
L 226.769038 237.019545 
L 226.911166 232.12376 
L 227.159776 239.730152 
L 227.19653 245.376028 
L 227.622452 240.786683 
L 227.693264 247.320964 
L 227.800754 217.29965 
L 229.050919 230.989019 
L 229.478888 228.254814 
L 230.171782 238.947699 
L 230.242619 237.134679 
L 230.990731 252.770887 
L 231.706813 237.485693 
L 232.560965 246.011743 
L 232.667304 233.074365 
L 233.128423 251.340724 
L 233.419422 213.567289 
L 233.739248 241.70611 
L 233.845875 241.08021 
L 233.916853 242.124391 
L 233.952296 248.825671 
L 235.5221 236.134171 
L 235.734177 237.049462 
L 235.840239 223.525024 
L 236.086405 236.275938 
L 236.626393 238.045906 
L 236.661646 241.161393 
L 236.911282 204.295555 
L 237.553052 243.908786 
L 238.377445 231.385956 
L 238.556671 239.513321 
L 239.271534 252.052085 
L 239.342534 238.839692 
L 239.556404 240.625204 
L 240.486523 224.545962 
L 240.664601 253.157175 
L 241.268654 229.370855 
L 241.909604 222.22167 
L 242.194351 225.100056 
L 243.005333 234.483259 
L 243.147404 237.814436 
L 243.288193 255.386928 
L 243.323358 245.912824 
L 244.259521 239.400331 
L 245.077608 243.949397 
L 246.113572 230.900075 
L 246.503748 237.441239 
L 247.079579 243.566207 
L 247.577851 232.821076 
L 247.614485 227.213624 
L 248.328567 215.168111 
L 249.18526 245.815871 
L 249.75092 220.285564 
L 250.425138 243.017141 
L 250.531947 241.172265 
L 250.70826 251.883285 
L 252.269524 240.075229 
L 252.62366 247.294157 
L 252.837192 249.486205 
L 253.013805 249.825962 
L 253.190618 239.727112 
L 254.053603 238.794368 
L 254.336847 253.423403 
L 254.940211 245.206331 
L 255.118801 229.609137 
L 255.189582 241.296468 
L 255.623126 242.107139 
L 255.694001 250.879458 
L 255.90591 227.924625 
L 256.330855 232.380918 
L 256.506813 235.655221 
L 256.860528 225.530478 
L 257.213453 232.57557 
L 258.216069 242.047894 
L 258.287545 231.663553 
L 258.429293 247.365689 
L 260.419345 218.851332 
L 260.526443 227.931778 
L 261.172023 222.966183 
L 261.813599 248.098584 
L 262.419843 233.758777 
L 262.527412 247.812596 
L 262.705468 243.864269 
L 262.882868 236.748462 
L 263.52443 250.32954 
L 263.55984 250.127463 
L 264.169267 250.634715 
L 264.276864 250.131799 
L 264.526128 250.433731 
L 265.492041 229.351002 
L 265.562933 252.103266 
L 265.812907 217.167193 
L 266.459776 256.491574 
L 266.781386 252.555397 
L 267.102255 244.341746 
L 267.456578 254.430283 
L 267.851006 256.107647 
L 267.992956 231.777587 
L 268.029568 237.724733 
L 268.702869 241.515052 
L 268.880931 264.033121 
L 268.952501 254.083649 
L 269.094726 260.267067 
L 269.419057 255.37985 
L 270.057665 234.938673 
L 270.767238 224.865413 
L 270.944459 256.970422 
L 271.272384 241.411664 
L 271.485017 237.704796 
L 271.520244 250.637795 
L 271.766902 253.893722 
L 272.54336 237.976238 
L 273.183836 257.709791 
L 273.501476 245.73877 
L 274.138573 263.580552 
L 274.500294 257.911175 
L 274.785826 245.783628 
L 275.070092 237.765549 
L 275.140674 245.128743 
L 275.566453 243.786765 
L 275.63712 250.588903 
L 275.708536 249.638365 
L 276.537101 257.37504 
L 276.856253 247.221987 
L 276.96201 256.995608 
L 277.528316 241.876064 
L 277.927666 249.706315 
L 277.998598 246.715307 
L 278.212093 258.964316 
L 278.675201 250.830153 
L 278.854482 259.605756 
L 279.103541 251.373961 
L 279.316331 226.273642 
L 279.785982 231.558759 
L 280.708865 261.527609 
L 281.528234 251.284413 
L 281.671148 252.794517 
L 281.70662 260.334924 
L 281.954364 262.180515 
L 282.559359 253.688779 
L 282.954918 253.848647 
L 283.350138 259.342634 
L 283.598 243.594354 
L 283.810261 243.652972 
L 284.662316 250.393434 
L 286.619715 258.928794 
L 286.763292 266.818845 
L 287.224614 262.581211 
L 287.758644 269.962314 
L 288.043817 266.26413 
L 288.079505 255.943182 
L 288.227881 247.568409 
L 288.583593 252.154332 
L 288.936762 247.437367 
L 289.00863 259.750793 
L 289.290814 244.812545 
L 290.004239 243.409397 
L 290.861609 253.644653 
L 291.112643 251.268496 
L 291.219164 247.781206 
L 291.576532 262.759835 
L 291.90215 251.274766 
L 292.008891 257.165065 
L 292.363647 259.085063 
L 292.542244 252.382701 
L 293.83072 264.086499 
L 294.152318 259.51462 
L 294.223767 247.375961 
L 294.366632 246.827734 
L 294.579598 253.05412 
L 294.687624 241.402665 
L 294.937301 262.285558 
L 295.23587 251.529449 
L 295.34347 264.85 
L 295.627729 265.353635 
L 295.770776 249.460073 
L 295.91422 257.599463 
L 296.734999 264.897223 
L 296.88267 257.632899 
L 297.132514 266.130688 
L 297.27521 266.958699 
L 297.667948 261.755515 
L 298.097224 262.840761 
L 298.677058 257.893497 
L 299.568966 269.585887 
L 300.103837 264.693314 
L 300.610545 264.812912 
L 300.893693 256.730884 
L 301.177751 265.070292 
L 301.389991 274.676249 
L 301.425271 252.596265 
L 302.352539 273.762852 
L 302.851479 270.531934 
L 303.747158 269.046357 
L 304.350416 252.505413 
L 304.881542 279.303668 
L 305.094459 251.037266 
L 305.741237 261.7186 
L 305.811625 253.868451 
L 306.448282 256.162809 
L 306.590148 267.431268 
L 307.341497 275.746714 
L 307.4834 273.170579 
L 308.191181 278.550145 
L 308.404318 254.052387 
L 308.910454 272.25353 
L 309.335487 263.812257 
L 309.870764 279.623378 
L 310.156293 280.150893 
L 310.191747 269.477227 
L 310.977462 277.645287 
L 311.118849 269.761267 
L 311.614237 261.179186 
L 312.039613 269.229472 
L 312.074851 282.360177 
L 312.330348 259.808875 
L 312.823865 280.696547 
L 313.036537 280.876128 
L 313.284589 255.025596 
L 313.355044 267.44841 
L 313.674756 278.741735 
L 313.745244 277.348243 
L 313.780952 262.026185 
L 314.462928 272.055026 
L 314.57094 275.314516 
L 314.891663 278.864031 
L 315.354693 265.227328 
L 316.211261 270.057826 
L 316.777164 259.829682 
L 317.167914 272.056344 
L 317.814062 260.558775 
L 318.169542 269.244027 
L 318.205844 254.80258 
L 318.418248 267.094676 
L 318.84622 275.486691 
L 318.881718 275.937912 
L 319.67188 272.023826 
L 319.708194 264.644311 
L 319.849822 271.727011 
L 319.92091 267.487473 
L 320.241931 280.079076 
L 320.384855 268.593925 
L 321.419167 240.908117 
L 321.454579 274.535274 
L 321.773099 264.323831 
L 321.878835 265.639064 
L 322.12671 263.265033 
L 322.481473 239.024289 
L 322.516744 260.327469 
L 322.594527 251.612025 
L 322.983682 279.325371 
L 323.126675 278.206461 
L 323.197208 262.44034 
L 323.765154 269.757646 
L 323.977672 269.348062 
L 324.012998 275.787214 
L 324.300779 268.491402 
L 324.98095 256.743518 
L 325.584311 276.587907 
L 326.512559 275.492837 
L 327.329774 277.350101 
L 327.79864 281.707295 
L 327.905688 274.82893 
L 329.002079 280.912164 
L 329.037316 275.276463 
L 329.607327 268.230677 
L 329.642591 274.464459 
L 330.103784 282.457669 
L 330.174537 283.175828 
L 330.565611 264.34573 
L 330.778042 268.530243 
L 330.883958 277.728449 
L 331.026678 266.339788 
L 331.673953 278.372195 
L 331.70946 267.20405 
L 331.958733 283.052263 
L 332.029846 277.897891 
L 332.530004 278.752585 
L 332.672223 281.392534 
L 333.070752 286.181566 
L 333.176776 272.827654 
L 333.889515 264.73259 
L 334.171681 276.083805 
L 334.526051 283.428617 
L 334.561342 280.447021 
L 334.959695 272.443341 
L 335.777155 284.495461 
L 335.955448 290.704809 
L 336.570774 282.63516 
L 338.13463 269.229383 
L 338.171299 262.772806 
L 338.313251 285.062234 
L 338.456584 288.940277 
L 339.098885 286.301033 
L 339.312111 280.933683 
L 340.850351 277.322715 
L 341.13535 284.377811 
L 341.420651 279.279452 
L 341.456069 281.162573 
L 342.064065 278.197182 
L 342.526775 277.600758 
L 342.669043 288.061773 
L 343.059979 289.229433 
L 343.493061 287.70308 
L 343.599255 283.553968 
L 343.670134 289.016645 
L 343.812715 276.655678 
L 344.097908 262.435641 
L 346.242738 278.479898 
L 346.457967 278.347334 
L 346.49352 275.284879 
L 347.107311 263.735986 
L 347.357767 274.786073 
L 348.172907 275.606657 
L 348.313818 287.667021 
L 348.710385 281.268224 
L 348.816909 286.096057 
L 349.42187 283.469318 
L 349.635502 285.895551 
L 350.106554 281.553531 
L 350.82078 282.203537 
L 351.140074 287.587902 
L 351.70785 292.162419 
L 351.778577 282.954318 
L 352.104348 272.030398 
L 352.707956 290.073801 
L 353.42244 290.470708 
L 353.493792 277.630848 
L 353.607021 279.324018 
L 353.678834 284.585829 
L 353.891356 264.119469 
L 354.316985 281.789068 
L 354.352207 279.430055 
L 354.599425 257.985822 
L 354.705039 285.183263 
L 354.882769 285.475399 
L 355.130089 275.529424 
L 355.200745 282.13834 
L 357.017862 284.553019 
L 357.408138 292.174188 
L 357.514153 284.615704 
L 357.691521 287.970722 
L 358.258871 283.600792 
L 358.400425 287.477894 
L 358.435668 286.465943 
L 358.506768 276.697642 
L 358.867397 279.515349 
L 359.009539 291.593338 
L 359.152446 275.856365 
L 359.472105 286.241631 
L 359.507323 278.661779 
L 359.683423 288.012931 
L 359.825571 279.203226 
L 359.860791 288.135319 
L 360.391996 286.341436 
L 361.504143 288.386849 
L 361.932125 286.295348 
L 362.193063 290.893003 
L 362.370751 290.938857 
L 362.870464 272.225335 
L 363.189912 270.538941 
L 363.72378 290.941641 
L 364.119935 282.924833 
L 364.368469 291.460646 
L 364.403956 275.179581 
L 364.72495 291.706884 
L 366.087599 278.035895 
L 366.19542 275.525794 
L 366.266222 287.426153 
L 366.372074 272.569671 
L 366.407335 276.768393 
L 366.548924 281.316565 
L 367.695795 280.208017 
L 368.191572 285.131316 
L 369.158103 284.967291 
L 369.370459 288.800553 
L 369.511394 283.425127 
L 370.150476 293.157207 
L 370.327223 284.545719 
L 370.865296 289.244549 
L 370.97084 283.624355 
L 371.077452 283.840287 
L 371.821777 286.770964 
L 372.211468 285.83581 
L 372.677872 283.13324 
L 372.71337 287.553283 
L 373.071121 289.69608 
L 373.177682 275.238525 
L 373.319643 271.560452 
L 374.107611 294.049402 
L 374.858047 290.682493 
L 374.928586 279.06881 
L 375.105471 289.151585 
L 375.495809 282.004514 
L 375.77813 283.946817 
L 375.928649 287.559953 
L 376.531425 283.43934 
L 376.743899 288.498546 
L 377.098649 273.1992 
L 377.169146 292.800487 
L 377.381789 291.210954 
L 377.741825 284.163381 
L 377.847419 289.296596 
L 378.38016 270.35745 
L 378.415351 289.634972 
L 379.378637 291.427705 
L 380.015624 270.949701 
L 380.407016 283.236796 
L 381.156724 285.547914 
L 381.760347 285.70882 
L 381.795636 283.448639 
L 382.940928 285.232727 
L 382.976165 284.966029 
L 383.189792 275.397148 
L 385.045736 286.780731 
L 385.11704 281.624452 
L 385.366106 285.239153 
L 385.473502 283.587154 
L 385.724851 277.362732 
L 386.700994 270.696244 
L 387.450104 283.318294 
L 387.807381 267.915903 
L 388.386246 281.850715 
L 388.457606 267.786853 
L 388.528452 282.671227 
L 388.706009 279.233179 
L 389.848708 289.682302 
L 390.027582 282.445169 
L 390.419631 290.194577 
L 390.49051 286.616641 
L 390.598405 285.463454 
L 391.166456 281.200644 
L 392.130911 273.006997 
L 392.237604 284.172305 
L 392.95184 285.936635 
L 393.20698 281.329323 
L 394.133138 270.881835 
L 394.382779 289.675635 
L 394.63204 282.668767 
L 395.81674 290.893054 
L 395.923691 282.729154 
L 396.607569 295.488 
L 396.643033 293.862073 
L 396.962462 285.416153 
L 397.209482 284.87371 
L 397.320111 289.594064 
L 397.568995 277.456799 
L 397.674712 287.350031 
L 398.351898 275.51336 
L 398.459193 287.564881 
L 398.850789 278.979271 
L 399.600751 282.772845 
L 399.708564 292.165974 
L 399.81601 280.420687 
L 400.850283 272.94691 
L 400.885466 268.784903 
L 401.026935 275.833068 
L 401.715662 272.994306 
L 401.751059 276.171469 
L 402.071077 281.03215 
L 402.35468 287.426089 
L 402.780417 277.200916 
L 404.103048 284.466804 
L 404.211058 274.768772 
L 404.52927 288.957711 
L 404.564516 259.781598 
L 404.777521 291.55694 
L 404.848147 280.80017 
L 405.171686 288.673008 
L 406.411934 277.363435 
L 407.41473 271.214247 
L 407.521905 287.318315 
L 407.629436 282.625777 
L 407.949806 288.335723 
L 408.961743 288.190588 
L 409.813937 280.270336 
L 410.170532 281.176984 
L 412.147755 290.155337 
L 412.361477 280.072391 
L 412.503157 283.932526 
L 412.609623 279.734396 
L 413.003091 282.102426 
L 413.572794 283.506082 
L 413.643566 290.877367 
L 413.828752 295.223335 
L 414.72 285.663757 
L 414.72 285.663757 
" style="fill:none;stroke:#000000;stroke-linecap:square;stroke-width:0.8;"/>
   </g>
   <g id="patch_3">
    <path d="M 57.6 307.584 
L 57.6 41.472 
" style="fill:none;stroke:#000000;stroke-linecap:square;stroke-linejoin:miter;stroke-width:0.8;"/>
   </g>
   <g id="patch_4">
    <path d="M 414.72 307.584 
L 414.72 41.472 
" style="fill:none;stroke:#000000;stroke-linecap:square;stroke-linejoin:miter;stroke-width:0.8;"/>
   </g>
   <g id="patch_5">
    <path d="M 57.6 307.584 
L 414.72 307.584 
" style="fill:none;stroke:#000000;stroke-linecap:square;stroke-linejoin:miter;stroke-width:0.8;"/>
   </g>
   <g id="patch_6">
    <path d="M 57.6 41.472 
L 414.72 41.472 
" style="fill:none;stroke:#000000;stroke-linecap:square;stroke-linejoin:miter;stroke-width:0.8;"/>
   </g>
  </g>
  <g id="axes_2">
   <g id="matplotlib.axis_3">
    <g id="xtick_10">
     <g id="line2d_30">
      <defs>
       <path d="M 0 0 
L 0 -3.5 
" id="mb97f372d5f" style="stroke:#000000;stroke-width:0.8;"/>
      </defs>
      <g>
       <use style="stroke:#000000;stroke-width:0.8;" x="57.6" xlink:href="#mb97f372d5f" y="41.472"/>
      </g>
     </g>
    </g>
    <g id="xtick_11">
     <g id="line2d_31">
      <g>
       <use style="stroke:#000000;stroke-width:0.8;" x="128.704032" xlink:href="#mb97f372d5f" y="41.472"/>
      </g>
     </g>
     <g id="text_17">
      <!-- 200K -->
      <defs>
       <path d="M 9.8125 72.90625 
L 19.671875 72.90625 
L 19.671875 42.09375 
L 52.390625 72.90625 
L 65.09375 72.90625 
L 28.90625 38.921875 
L 67.671875 0 
L 54.6875 0 
L 19.671875 35.109375 
L 19.671875 0 
L 9.8125 0 
z
" id="DejaVuSans-75"/>
      </defs>
      <g transform="translate(115.881376 32.392313)scale(0.1 -0.1)">
       <use xlink:href="#DejaVuSans-50"/>
       <use x="63.623047" xlink:href="#DejaVuSans-48"/>
       <use x="127.246094" xlink:href="#DejaVuSans-48"/>
       <use x="190.869141" xlink:href="#DejaVuSans-75"/>
      </g>
     </g>
    </g>
    <g id="xtick_12">
     <g id="line2d_32">
      <g>
       <use style="stroke:#000000;stroke-width:0.8;" x="199.808064" xlink:href="#mb97f372d5f" y="41.472"/>
      </g>
     </g>
     <g id="text_18">
      <!-- 400K -->
      <g transform="translate(186.985407 32.392313)scale(0.1 -0.1)">
       <use xlink:href="#DejaVuSans-52"/>
       <use x="63.623047" xlink:href="#DejaVuSans-48"/>
       <use x="127.246094" xlink:href="#DejaVuSans-48"/>
       <use x="190.869141" xlink:href="#DejaVuSans-75"/>
      </g>
     </g>
    </g>
    <g id="xtick_13">
     <g id="line2d_33">
      <g>
       <use style="stroke:#000000;stroke-width:0.8;" x="270.912096" xlink:href="#mb97f372d5f" y="41.472"/>
      </g>
     </g>
     <g id="text_19">
      <!-- 600K -->
      <g transform="translate(258.089439 32.392313)scale(0.1 -0.1)">
       <use xlink:href="#DejaVuSans-54"/>
       <use x="63.623047" xlink:href="#DejaVuSans-48"/>
       <use x="127.246094" xlink:href="#DejaVuSans-48"/>
       <use x="190.869141" xlink:href="#DejaVuSans-75"/>
      </g>
     </g>
    </g>
    <g id="xtick_14">
     <g id="line2d_34">
      <g>
       <use style="stroke:#000000;stroke-width:0.8;" x="342.016127" xlink:href="#mb97f372d5f" y="41.472"/>
      </g>
     </g>
     <g id="text_20">
      <!-- 800K -->
      <g transform="translate(329.193471 32.392313)scale(0.1 -0.1)">
       <use xlink:href="#DejaVuSans-56"/>
       <use x="63.623047" xlink:href="#DejaVuSans-48"/>
       <use x="127.246094" xlink:href="#DejaVuSans-48"/>
       <use x="190.869141" xlink:href="#DejaVuSans-75"/>
      </g>
     </g>
    </g>
    <g id="xtick_15">
     <g id="line2d_35">
      <g>
       <use style="stroke:#000000;stroke-width:0.8;" x="413.120159" xlink:href="#mb97f372d5f" y="41.472"/>
      </g>
     </g>
     <g id="text_21">
      <!-- 1,000K -->
      <defs>
       <path d="M 11.71875 12.40625 
L 22.015625 12.40625 
L 22.015625 4 
L 14.015625 -11.625 
L 7.71875 -11.625 
L 11.71875 4 
z
" id="DejaVuSans-44"/>
      </defs>
      <g transform="translate(395.527191 32.392313)scale(0.1 -0.1)">
       <use xlink:href="#DejaVuSans-49"/>
       <use x="63.623047" xlink:href="#DejaVuSans-44"/>
       <use x="95.410156" xlink:href="#DejaVuSans-48"/>
       <use x="159.033203" xlink:href="#DejaVuSans-48"/>
       <use x="222.65625" xlink:href="#DejaVuSans-48"/>
       <use x="286.279297" xlink:href="#DejaVuSans-75"/>
      </g>
     </g>
    </g>
    <g id="text_22">
     <!-- Train steps -->
     <defs>
      <path d="M -0.296875 72.90625 
L 61.375 72.90625 
L 61.375 64.59375 
L 35.5 64.59375 
L 35.5 0 
L 25.59375 0 
L 25.59375 64.59375 
L -0.296875 64.59375 
z
" id="DejaVuSans-84"/>
      <path d="M 34.28125 27.484375 
Q 23.390625 27.484375 19.1875 25 
Q 14.984375 22.515625 14.984375 16.5 
Q 14.984375 11.71875 18.140625 8.90625 
Q 21.296875 6.109375 26.703125 6.109375 
Q 34.1875 6.109375 38.703125 11.40625 
Q 43.21875 16.703125 43.21875 25.484375 
L 43.21875 27.484375 
z
M 52.203125 31.203125 
L 52.203125 0 
L 43.21875 0 
L 43.21875 8.296875 
Q 40.140625 3.328125 35.546875 0.953125 
Q 30.953125 -1.421875 24.3125 -1.421875 
Q 15.921875 -1.421875 10.953125 3.296875 
Q 6 8.015625 6 15.921875 
Q 6 25.140625 12.171875 29.828125 
Q 18.359375 34.515625 30.609375 34.515625 
L 43.21875 34.515625 
L 43.21875 35.40625 
Q 43.21875 41.609375 39.140625 45 
Q 35.0625 48.390625 27.6875 48.390625 
Q 23 48.390625 18.546875 47.265625 
Q 14.109375 46.140625 10.015625 43.890625 
L 10.015625 52.203125 
Q 14.9375 54.109375 19.578125 55.046875 
Q 24.21875 56 28.609375 56 
Q 40.484375 56 46.34375 49.84375 
Q 52.203125 43.703125 52.203125 31.203125 
z
" id="DejaVuSans-97"/>
      <path d="M 9.421875 54.6875 
L 18.40625 54.6875 
L 18.40625 0 
L 9.421875 0 
z
M 9.421875 75.984375 
L 18.40625 75.984375 
L 18.40625 64.59375 
L 9.421875 64.59375 
z
" id="DejaVuSans-105"/>
      <path d="M 54.890625 33.015625 
L 54.890625 0 
L 45.90625 0 
L 45.90625 32.71875 
Q 45.90625 40.484375 42.875 44.328125 
Q 39.84375 48.1875 33.796875 48.1875 
Q 26.515625 48.1875 22.3125 43.546875 
Q 18.109375 38.921875 18.109375 30.90625 
L 18.109375 0 
L 9.078125 0 
L 9.078125 54.6875 
L 18.109375 54.6875 
L 18.109375 46.1875 
Q 21.34375 51.125 25.703125 53.5625 
Q 30.078125 56 35.796875 56 
Q 45.21875 56 50.046875 50.171875 
Q 54.890625 44.34375 54.890625 33.015625 
z
" id="DejaVuSans-110"/>
      <path id="DejaVuSans-32"/>
      <path d="M 18.3125 70.21875 
L 18.3125 54.6875 
L 36.8125 54.6875 
L 36.8125 47.703125 
L 18.3125 47.703125 
L 18.3125 18.015625 
Q 18.3125 11.328125 20.140625 9.421875 
Q 21.96875 7.515625 27.59375 7.515625 
L 36.8125 7.515625 
L 36.8125 0 
L 27.59375 0 
Q 17.1875 0 13.234375 3.875 
Q 9.28125 7.765625 9.28125 18.015625 
L 9.28125 47.703125 
L 2.6875 47.703125 
L 2.6875 54.6875 
L 9.28125 54.6875 
L 9.28125 70.21875 
z
" id="DejaVuSans-116"/>
      <path d="M 56.203125 29.59375 
L 56.203125 25.203125 
L 14.890625 25.203125 
Q 15.484375 15.921875 20.484375 11.0625 
Q 25.484375 6.203125 34.421875 6.203125 
Q 39.59375 6.203125 44.453125 7.46875 
Q 49.3125 8.734375 54.109375 11.28125 
L 54.109375 2.78125 
Q 49.265625 0.734375 44.1875 -0.34375 
Q 39.109375 -1.421875 33.890625 -1.421875 
Q 20.796875 -1.421875 13.15625 6.1875 
Q 5.515625 13.8125 5.515625 26.8125 
Q 5.515625 40.234375 12.765625 48.109375 
Q 20.015625 56 32.328125 56 
Q 43.359375 56 49.78125 48.890625 
Q 56.203125 41.796875 56.203125 29.59375 
z
M 47.21875 32.234375 
Q 47.125 39.59375 43.09375 43.984375 
Q 39.0625 48.390625 32.421875 48.390625 
Q 24.90625 48.390625 20.390625 44.140625 
Q 15.875 39.890625 15.1875 32.171875 
z
" id="DejaVuSans-101"/>
      <path d="M 18.109375 8.203125 
L 18.109375 -20.796875 
L 9.078125 -20.796875 
L 9.078125 54.6875 
L 18.109375 54.6875 
L 18.109375 46.390625 
Q 20.953125 51.265625 25.265625 53.625 
Q 29.59375 56 35.59375 56 
Q 45.5625 56 51.78125 48.09375 
Q 58.015625 40.1875 58.015625 27.296875 
Q 58.015625 14.40625 51.78125 6.484375 
Q 45.5625 -1.421875 35.59375 -1.421875 
Q 29.59375 -1.421875 25.265625 0.953125 
Q 20.953125 3.328125 18.109375 8.203125 
z
M 48.6875 27.296875 
Q 48.6875 37.203125 44.609375 42.84375 
Q 40.53125 48.484375 33.40625 48.484375 
Q 26.265625 48.484375 22.1875 42.84375 
Q 18.109375 37.203125 18.109375 27.296875 
Q 18.109375 17.390625 22.1875 11.75 
Q 26.265625 6.109375 33.40625 6.109375 
Q 40.53125 6.109375 44.609375 11.75 
Q 48.6875 17.390625 48.6875 27.296875 
z
" id="DejaVuSans-112"/>
     </defs>
     <g transform="translate(208.430312 20.793875)scale(0.1 -0.1)">
      <use xlink:href="#DejaVuSans-84"/>
      <use x="60.865234" xlink:href="#DejaVuSans-114"/>
      <use x="101.978516" xlink:href="#DejaVuSans-97"/>
      <use x="163.257812" xlink:href="#DejaVuSans-105"/>
      <use x="191.041016" xlink:href="#DejaVuSans-110"/>
      <use x="254.419922" xlink:href="#DejaVuSans-32"/>
      <use x="286.207031" xlink:href="#DejaVuSans-115"/>
      <use x="338.306641" xlink:href="#DejaVuSans-116"/>
      <use x="377.515625" xlink:href="#DejaVuSans-101"/>
      <use x="439.039062" xlink:href="#DejaVuSans-112"/>
      <use x="502.515625" xlink:href="#DejaVuSans-115"/>
     </g>
    </g>
   </g>
   <g id="patch_7">
    <path d="M 57.6 307.584 
L 57.6 41.472 
" style="fill:none;stroke:#000000;stroke-linecap:square;stroke-linejoin:miter;stroke-width:0.8;"/>
   </g>
   <g id="patch_8">
    <path d="M 414.72 307.584 
L 414.72 41.472 
" style="fill:none;stroke:#000000;stroke-linecap:square;stroke-linejoin:miter;stroke-width:0.8;"/>
   </g>
   <g id="patch_9">
    <path d="M 57.6 307.584 
L 414.72 307.584 
" style="fill:none;stroke:#000000;stroke-linecap:square;stroke-linejoin:miter;stroke-width:0.8;"/>
   </g>
   <g id="patch_10">
    <path d="M 57.6 41.472 
L 414.72 41.472 
" style="fill:none;stroke:#000000;stroke-linecap:square;stroke-linejoin:miter;stroke-width:0.8;"/>
   </g>
  </g>
 </g>
 <defs>
  <clipPath id="pcacd7db8ac">
   <rect height="266.112" width="357.12" x="57.6" y="41.472"/>
  </clipPath>
 </defs>
</svg>
