<?xml version="1.0" encoding="utf-8" standalone="no"?>
<!DOCTYPE svg PUBLIC "-//W3C//DTD SVG 1.1//EN"
  "http://www.w3.org/Graphics/SVG/1.1/DTD/svg11.dtd">
<!-- Created with matplotlib (https://matplotlib.org/) -->
<svg height="345.6pt" version="1.1" viewBox="0 0 460.8 345.6" width="460.8pt" xmlns="http://www.w3.org/2000/svg" xmlns:xlink="http://www.w3.org/1999/xlink">
 <defs>
  <style type="text/css">
*{stroke-linecap:butt;stroke-linejoin:round;}
  </style>
 </defs>
 <g id="figure_1">
  <g id="patch_1">
   <path d="M 0 345.6 
L 460.8 345.6 
L 460.8 0 
L 0 0 
z
" style="fill:#ffffff;"/>
  </g>
  <g id="axes_1">
   <g id="patch_2">
    <path d="M 57.6 307.584 
L 414.72 307.584 
L 414.72 41.472 
L 57.6 41.472 
z
" style="fill:#ffffff;"/>
   </g>
   <g id="matplotlib.axis_1">
    <g id="xtick_1">
     <g id="line2d_1">
      <path clip-path="url(#pb0465e582b)" d="M 57.6 307.584 
L 57.6 41.472 
" style="fill:none;stroke:#b0b0b0;stroke-linecap:square;stroke-width:0.8;"/>
     </g>
     <g id="line2d_2">
      <defs>
       <path d="M 0 0 
L 0 3.5 
" id="m7d85310c23" style="stroke:#000000;stroke-width:0.8;"/>
      </defs>
      <g>
       <use style="stroke:#000000;stroke-width:0.8;" x="57.6" xlink:href="#m7d85310c23" y="307.584"/>
      </g>
     </g>
     <g id="text_1">
      <!-- 0.0 -->
      <defs>
       <path d="M 31.78125 66.40625 
Q 24.171875 66.40625 20.328125 58.90625 
Q 16.5 51.421875 16.5 36.375 
Q 16.5 21.390625 20.328125 13.890625 
Q 24.171875 6.390625 31.78125 6.390625 
Q 39.453125 6.390625 43.28125 13.890625 
Q 47.125 21.390625 47.125 36.375 
Q 47.125 51.421875 43.28125 58.90625 
Q 39.453125 66.40625 31.78125 66.40625 
z
M 31.78125 74.21875 
Q 44.046875 74.21875 50.515625 64.515625 
Q 56.984375 54.828125 56.984375 36.375 
Q 56.984375 17.96875 50.515625 8.265625 
Q 44.046875 -1.421875 31.78125 -1.421875 
Q 19.53125 -1.421875 13.0625 8.265625 
Q 6.59375 17.96875 6.59375 36.375 
Q 6.59375 54.828125 13.0625 64.515625 
Q 19.53125 74.21875 31.78125 74.21875 
z
" id="DejaVuSans-48"/>
       <path d="M 10.6875 12.40625 
L 21 12.40625 
L 21 0 
L 10.6875 0 
z
" id="DejaVuSans-46"/>
      </defs>
      <g transform="translate(49.648438 322.182437)scale(0.1 -0.1)">
       <use xlink:href="#DejaVuSans-48"/>
       <use x="63.623047" xlink:href="#DejaVuSans-46"/>
       <use x="95.410156" xlink:href="#DejaVuSans-48"/>
      </g>
     </g>
    </g>
    <g id="xtick_2">
     <g id="line2d_3">
      <path clip-path="url(#pb0465e582b)" d="M 114.028575 307.584 
L 114.028575 41.472 
" style="fill:none;stroke:#b0b0b0;stroke-linecap:square;stroke-width:0.8;"/>
     </g>
     <g id="line2d_4">
      <g>
       <use style="stroke:#000000;stroke-width:0.8;" x="114.028575" xlink:href="#m7d85310c23" y="307.584"/>
      </g>
     </g>
     <g id="text_2">
      <!-- 0.2 -->
      <defs>
       <path d="M 19.1875 8.296875 
L 53.609375 8.296875 
L 53.609375 0 
L 7.328125 0 
L 7.328125 8.296875 
Q 12.9375 14.109375 22.625 23.890625 
Q 32.328125 33.6875 34.8125 36.53125 
Q 39.546875 41.84375 41.421875 45.53125 
Q 43.3125 49.21875 43.3125 52.78125 
Q 43.3125 58.59375 39.234375 62.25 
Q 35.15625 65.921875 28.609375 65.921875 
Q 23.96875 65.921875 18.8125 64.3125 
Q 13.671875 62.703125 7.8125 59.421875 
L 7.8125 69.390625 
Q 13.765625 71.78125 18.9375 73 
Q 24.125 74.21875 28.421875 74.21875 
Q 39.75 74.21875 46.484375 68.546875 
Q 53.21875 62.890625 53.21875 53.421875 
Q 53.21875 48.921875 51.53125 44.890625 
Q 49.859375 40.875 45.40625 35.40625 
Q 44.1875 33.984375 37.640625 27.21875 
Q 31.109375 20.453125 19.1875 8.296875 
z
" id="DejaVuSans-50"/>
      </defs>
      <g transform="translate(106.077012 322.182437)scale(0.1 -0.1)">
       <use xlink:href="#DejaVuSans-48"/>
       <use x="63.623047" xlink:href="#DejaVuSans-46"/>
       <use x="95.410156" xlink:href="#DejaVuSans-50"/>
      </g>
     </g>
    </g>
    <g id="xtick_3">
     <g id="line2d_5">
      <path clip-path="url(#pb0465e582b)" d="M 170.45715 307.584 
L 170.45715 41.472 
" style="fill:none;stroke:#b0b0b0;stroke-linecap:square;stroke-width:0.8;"/>
     </g>
     <g id="line2d_6">
      <g>
       <use style="stroke:#000000;stroke-width:0.8;" x="170.45715" xlink:href="#m7d85310c23" y="307.584"/>
      </g>
     </g>
     <g id="text_3">
      <!-- 0.4 -->
      <defs>
       <path d="M 37.796875 64.3125 
L 12.890625 25.390625 
L 37.796875 25.390625 
z
M 35.203125 72.90625 
L 47.609375 72.90625 
L 47.609375 25.390625 
L 58.015625 25.390625 
L 58.015625 17.1875 
L 47.609375 17.1875 
L 47.609375 0 
L 37.796875 0 
L 37.796875 17.1875 
L 4.890625 17.1875 
L 4.890625 26.703125 
z
" id="DejaVuSans-52"/>
      </defs>
      <g transform="translate(162.505587 322.182437)scale(0.1 -0.1)">
       <use xlink:href="#DejaVuSans-48"/>
       <use x="63.623047" xlink:href="#DejaVuSans-46"/>
       <use x="95.410156" xlink:href="#DejaVuSans-52"/>
      </g>
     </g>
    </g>
    <g id="xtick_4">
     <g id="line2d_7">
      <path clip-path="url(#pb0465e582b)" d="M 226.885725 307.584 
L 226.885725 41.472 
" style="fill:none;stroke:#b0b0b0;stroke-linecap:square;stroke-width:0.8;"/>
     </g>
     <g id="line2d_8">
      <g>
       <use style="stroke:#000000;stroke-width:0.8;" x="226.885725" xlink:href="#m7d85310c23" y="307.584"/>
      </g>
     </g>
     <g id="text_4">
      <!-- 0.6 -->
      <defs>
       <path d="M 33.015625 40.375 
Q 26.375 40.375 22.484375 35.828125 
Q 18.609375 31.296875 18.609375 23.390625 
Q 18.609375 15.53125 22.484375 10.953125 
Q 26.375 6.390625 33.015625 6.390625 
Q 39.65625 6.390625 43.53125 10.953125 
Q 47.40625 15.53125 47.40625 23.390625 
Q 47.40625 31.296875 43.53125 35.828125 
Q 39.65625 40.375 33.015625 40.375 
z
M 52.59375 71.296875 
L 52.59375 62.3125 
Q 48.875 64.0625 45.09375 64.984375 
Q 41.3125 65.921875 37.59375 65.921875 
Q 27.828125 65.921875 22.671875 59.328125 
Q 17.53125 52.734375 16.796875 39.40625 
Q 19.671875 43.65625 24.015625 45.921875 
Q 28.375 48.1875 33.59375 48.1875 
Q 44.578125 48.1875 50.953125 41.515625 
Q 57.328125 34.859375 57.328125 23.390625 
Q 57.328125 12.15625 50.6875 5.359375 
Q 44.046875 -1.421875 33.015625 -1.421875 
Q 20.359375 -1.421875 13.671875 8.265625 
Q 6.984375 17.96875 6.984375 36.375 
Q 6.984375 53.65625 15.1875 63.9375 
Q 23.390625 74.21875 37.203125 74.21875 
Q 40.921875 74.21875 44.703125 73.484375 
Q 48.484375 72.75 52.59375 71.296875 
z
" id="DejaVuSans-54"/>
      </defs>
      <g transform="translate(218.934162 322.182437)scale(0.1 -0.1)">
       <use xlink:href="#DejaVuSans-48"/>
       <use x="63.623047" xlink:href="#DejaVuSans-46"/>
       <use x="95.410156" xlink:href="#DejaVuSans-54"/>
      </g>
     </g>
    </g>
    <g id="xtick_5">
     <g id="line2d_9">
      <path clip-path="url(#pb0465e582b)" d="M 283.3143 307.584 
L 283.3143 41.472 
" style="fill:none;stroke:#b0b0b0;stroke-linecap:square;stroke-width:0.8;"/>
     </g>
     <g id="line2d_10">
      <g>
       <use style="stroke:#000000;stroke-width:0.8;" x="283.3143" xlink:href="#m7d85310c23" y="307.584"/>
      </g>
     </g>
     <g id="text_5">
      <!-- 0.8 -->
      <defs>
       <path d="M 31.78125 34.625 
Q 24.75 34.625 20.71875 30.859375 
Q 16.703125 27.09375 16.703125 20.515625 
Q 16.703125 13.921875 20.71875 10.15625 
Q 24.75 6.390625 31.78125 6.390625 
Q 38.8125 6.390625 42.859375 10.171875 
Q 46.921875 13.96875 46.921875 20.515625 
Q 46.921875 27.09375 42.890625 30.859375 
Q 38.875 34.625 31.78125 34.625 
z
M 21.921875 38.8125 
Q 15.578125 40.375 12.03125 44.71875 
Q 8.5 49.078125 8.5 55.328125 
Q 8.5 64.0625 14.71875 69.140625 
Q 20.953125 74.21875 31.78125 74.21875 
Q 42.671875 74.21875 48.875 69.140625 
Q 55.078125 64.0625 55.078125 55.328125 
Q 55.078125 49.078125 51.53125 44.71875 
Q 48 40.375 41.703125 38.8125 
Q 48.828125 37.15625 52.796875 32.3125 
Q 56.78125 27.484375 56.78125 20.515625 
Q 56.78125 9.90625 50.3125 4.234375 
Q 43.84375 -1.421875 31.78125 -1.421875 
Q 19.734375 -1.421875 13.25 4.234375 
Q 6.78125 9.90625 6.78125 20.515625 
Q 6.78125 27.484375 10.78125 32.3125 
Q 14.796875 37.15625 21.921875 38.8125 
z
M 18.3125 54.390625 
Q 18.3125 48.734375 21.84375 45.5625 
Q 25.390625 42.390625 31.78125 42.390625 
Q 38.140625 42.390625 41.71875 45.5625 
Q 45.3125 48.734375 45.3125 54.390625 
Q 45.3125 60.0625 41.71875 63.234375 
Q 38.140625 66.40625 31.78125 66.40625 
Q 25.390625 66.40625 21.84375 63.234375 
Q 18.3125 60.0625 18.3125 54.390625 
z
" id="DejaVuSans-56"/>
      </defs>
      <g transform="translate(275.362737 322.182437)scale(0.1 -0.1)">
       <use xlink:href="#DejaVuSans-48"/>
       <use x="63.623047" xlink:href="#DejaVuSans-46"/>
       <use x="95.410156" xlink:href="#DejaVuSans-56"/>
      </g>
     </g>
    </g>
    <g id="xtick_6">
     <g id="line2d_11">
      <path clip-path="url(#pb0465e582b)" d="M 339.742875 307.584 
L 339.742875 41.472 
" style="fill:none;stroke:#b0b0b0;stroke-linecap:square;stroke-width:0.8;"/>
     </g>
     <g id="line2d_12">
      <g>
       <use style="stroke:#000000;stroke-width:0.8;" x="339.742875" xlink:href="#m7d85310c23" y="307.584"/>
      </g>
     </g>
     <g id="text_6">
      <!-- 1.0 -->
      <defs>
       <path d="M 12.40625 8.296875 
L 28.515625 8.296875 
L 28.515625 63.921875 
L 10.984375 60.40625 
L 10.984375 69.390625 
L 28.421875 72.90625 
L 38.28125 72.90625 
L 38.28125 8.296875 
L 54.390625 8.296875 
L 54.390625 0 
L 12.40625 0 
z
" id="DejaVuSans-49"/>
      </defs>
      <g transform="translate(331.791312 322.182437)scale(0.1 -0.1)">
       <use xlink:href="#DejaVuSans-49"/>
       <use x="63.623047" xlink:href="#DejaVuSans-46"/>
       <use x="95.410156" xlink:href="#DejaVuSans-48"/>
      </g>
     </g>
    </g>
    <g id="xtick_7">
     <g id="line2d_13">
      <path clip-path="url(#pb0465e582b)" d="M 396.17145 307.584 
L 396.17145 41.472 
" style="fill:none;stroke:#b0b0b0;stroke-linecap:square;stroke-width:0.8;"/>
     </g>
     <g id="line2d_14">
      <g>
       <use style="stroke:#000000;stroke-width:0.8;" x="396.17145" xlink:href="#m7d85310c23" y="307.584"/>
      </g>
     </g>
     <g id="text_7">
      <!-- 1.2 -->
      <g transform="translate(388.219887 322.182437)scale(0.1 -0.1)">
       <use xlink:href="#DejaVuSans-49"/>
       <use x="63.623047" xlink:href="#DejaVuSans-46"/>
       <use x="95.410156" xlink:href="#DejaVuSans-50"/>
      </g>
     </g>
    </g>
    <g id="text_8">
     <!-- Hours -->
     <defs>
      <path d="M 9.8125 72.90625 
L 19.671875 72.90625 
L 19.671875 43.015625 
L 55.515625 43.015625 
L 55.515625 72.90625 
L 65.375 72.90625 
L 65.375 0 
L 55.515625 0 
L 55.515625 34.71875 
L 19.671875 34.71875 
L 19.671875 0 
L 9.8125 0 
z
" id="DejaVuSans-72"/>
      <path d="M 30.609375 48.390625 
Q 23.390625 48.390625 19.1875 42.75 
Q 14.984375 37.109375 14.984375 27.296875 
Q 14.984375 17.484375 19.15625 11.84375 
Q 23.34375 6.203125 30.609375 6.203125 
Q 37.796875 6.203125 41.984375 11.859375 
Q 46.1875 17.53125 46.1875 27.296875 
Q 46.1875 37.015625 41.984375 42.703125 
Q 37.796875 48.390625 30.609375 48.390625 
z
M 30.609375 56 
Q 42.328125 56 49.015625 48.375 
Q 55.71875 40.765625 55.71875 27.296875 
Q 55.71875 13.875 49.015625 6.21875 
Q 42.328125 -1.421875 30.609375 -1.421875 
Q 18.84375 -1.421875 12.171875 6.21875 
Q 5.515625 13.875 5.515625 27.296875 
Q 5.515625 40.765625 12.171875 48.375 
Q 18.84375 56 30.609375 56 
z
" id="DejaVuSans-111"/>
      <path d="M 8.5 21.578125 
L 8.5 54.6875 
L 17.484375 54.6875 
L 17.484375 21.921875 
Q 17.484375 14.15625 20.5 10.265625 
Q 23.53125 6.390625 29.59375 6.390625 
Q 36.859375 6.390625 41.078125 11.03125 
Q 45.3125 15.671875 45.3125 23.6875 
L 45.3125 54.6875 
L 54.296875 54.6875 
L 54.296875 0 
L 45.3125 0 
L 45.3125 8.40625 
Q 42.046875 3.421875 37.71875 1 
Q 33.40625 -1.421875 27.6875 -1.421875 
Q 18.265625 -1.421875 13.375 4.4375 
Q 8.5 10.296875 8.5 21.578125 
z
M 31.109375 56 
z
" id="DejaVuSans-117"/>
      <path d="M 41.109375 46.296875 
Q 39.59375 47.171875 37.8125 47.578125 
Q 36.03125 48 33.890625 48 
Q 26.265625 48 22.1875 43.046875 
Q 18.109375 38.09375 18.109375 28.8125 
L 18.109375 0 
L 9.078125 0 
L 9.078125 54.6875 
L 18.109375 54.6875 
L 18.109375 46.1875 
Q 20.953125 51.171875 25.484375 53.578125 
Q 30.03125 56 36.53125 56 
Q 37.453125 56 38.578125 55.875 
Q 39.703125 55.765625 41.0625 55.515625 
z
" id="DejaVuSans-114"/>
      <path d="M 44.28125 53.078125 
L 44.28125 44.578125 
Q 40.484375 46.53125 36.375 47.5 
Q 32.28125 48.484375 27.875 48.484375 
Q 21.1875 48.484375 17.84375 46.4375 
Q 14.5 44.390625 14.5 40.28125 
Q 14.5 37.15625 16.890625 35.375 
Q 19.28125 33.59375 26.515625 31.984375 
L 29.59375 31.296875 
Q 39.15625 29.25 43.1875 25.515625 
Q 47.21875 21.78125 47.21875 15.09375 
Q 47.21875 7.46875 41.1875 3.015625 
Q 35.15625 -1.421875 24.609375 -1.421875 
Q 20.21875 -1.421875 15.453125 -0.5625 
Q 10.6875 0.296875 5.421875 2 
L 5.421875 11.28125 
Q 10.40625 8.6875 15.234375 7.390625 
Q 20.0625 6.109375 24.8125 6.109375 
Q 31.15625 6.109375 34.5625 8.28125 
Q 37.984375 10.453125 37.984375 14.40625 
Q 37.984375 18.0625 35.515625 20.015625 
Q 33.0625 21.96875 24.703125 23.78125 
L 21.578125 24.515625 
Q 13.234375 26.265625 9.515625 29.90625 
Q 5.8125 33.546875 5.8125 39.890625 
Q 5.8125 47.609375 11.28125 51.796875 
Q 16.75 56 26.8125 56 
Q 31.78125 56 36.171875 55.265625 
Q 40.578125 54.546875 44.28125 53.078125 
z
" id="DejaVuSans-115"/>
     </defs>
     <g transform="translate(221.511562 335.860562)scale(0.1 -0.1)">
      <use xlink:href="#DejaVuSans-72"/>
      <use x="75.195312" xlink:href="#DejaVuSans-111"/>
      <use x="136.376953" xlink:href="#DejaVuSans-117"/>
      <use x="199.755859" xlink:href="#DejaVuSans-114"/>
      <use x="240.869141" xlink:href="#DejaVuSans-115"/>
     </g>
    </g>
   </g>
   <g id="matplotlib.axis_2">
    <g id="ytick_1">
     <g id="line2d_15">
      <path clip-path="url(#pb0465e582b)" d="M 57.6 285.36935 
L 414.72 285.36935 
" style="fill:none;stroke:#b0b0b0;stroke-linecap:square;stroke-width:0.8;"/>
     </g>
     <g id="line2d_16">
      <defs>
       <path d="M 0 0 
L -3.5 0 
" id="meaa7fe4cac" style="stroke:#000000;stroke-width:0.8;"/>
      </defs>
      <g>
       <use style="stroke:#000000;stroke-width:0.8;" x="57.6" xlink:href="#meaa7fe4cac" y="285.36935"/>
      </g>
     </g>
     <g id="text_9">
      <!-- 200 -->
      <g transform="translate(31.5125 289.168568)scale(0.1 -0.1)">
       <use xlink:href="#DejaVuSans-50"/>
       <use x="63.623047" xlink:href="#DejaVuSans-48"/>
       <use x="127.246094" xlink:href="#DejaVuSans-48"/>
      </g>
     </g>
    </g>
    <g id="ytick_2">
     <g id="line2d_17">
      <path clip-path="url(#pb0465e582b)" d="M 57.6 252.036894 
L 414.72 252.036894 
" style="fill:none;stroke:#b0b0b0;stroke-linecap:square;stroke-width:0.8;"/>
     </g>
     <g id="line2d_18">
      <g>
       <use style="stroke:#000000;stroke-width:0.8;" x="57.6" xlink:href="#meaa7fe4cac" y="252.036894"/>
      </g>
     </g>
     <g id="text_10">
      <!-- 205 -->
      <defs>
       <path d="M 10.796875 72.90625 
L 49.515625 72.90625 
L 49.515625 64.59375 
L 19.828125 64.59375 
L 19.828125 46.734375 
Q 21.96875 47.46875 24.109375 47.828125 
Q 26.265625 48.1875 28.421875 48.1875 
Q 40.625 48.1875 47.75 41.5 
Q 54.890625 34.8125 54.890625 23.390625 
Q 54.890625 11.625 47.5625 5.09375 
Q 40.234375 -1.421875 26.90625 -1.421875 
Q 22.3125 -1.421875 17.546875 -0.640625 
Q 12.796875 0.140625 7.71875 1.703125 
L 7.71875 11.625 
Q 12.109375 9.234375 16.796875 8.0625 
Q 21.484375 6.890625 26.703125 6.890625 
Q 35.15625 6.890625 40.078125 11.328125 
Q 45.015625 15.765625 45.015625 23.390625 
Q 45.015625 31 40.078125 35.4375 
Q 35.15625 39.890625 26.703125 39.890625 
Q 22.75 39.890625 18.8125 39.015625 
Q 14.890625 38.140625 10.796875 36.28125 
z
" id="DejaVuSans-53"/>
      </defs>
      <g transform="translate(31.5125 255.836113)scale(0.1 -0.1)">
       <use xlink:href="#DejaVuSans-50"/>
       <use x="63.623047" xlink:href="#DejaVuSans-48"/>
       <use x="127.246094" xlink:href="#DejaVuSans-53"/>
      </g>
     </g>
    </g>
    <g id="ytick_3">
     <g id="line2d_19">
      <path clip-path="url(#pb0465e582b)" d="M 57.6 218.704439 
L 414.72 218.704439 
" style="fill:none;stroke:#b0b0b0;stroke-linecap:square;stroke-width:0.8;"/>
     </g>
     <g id="line2d_20">
      <g>
       <use style="stroke:#000000;stroke-width:0.8;" x="57.6" xlink:href="#meaa7fe4cac" y="218.704439"/>
      </g>
     </g>
     <g id="text_11">
      <!-- 210 -->
      <g transform="translate(31.5125 222.503657)scale(0.1 -0.1)">
       <use xlink:href="#DejaVuSans-50"/>
       <use x="63.623047" xlink:href="#DejaVuSans-49"/>
       <use x="127.246094" xlink:href="#DejaVuSans-48"/>
      </g>
     </g>
    </g>
    <g id="ytick_4">
     <g id="line2d_21">
      <path clip-path="url(#pb0465e582b)" d="M 57.6 185.371983 
L 414.72 185.371983 
" style="fill:none;stroke:#b0b0b0;stroke-linecap:square;stroke-width:0.8;"/>
     </g>
     <g id="line2d_22">
      <g>
       <use style="stroke:#000000;stroke-width:0.8;" x="57.6" xlink:href="#meaa7fe4cac" y="185.371983"/>
      </g>
     </g>
     <g id="text_12">
      <!-- 215 -->
      <g transform="translate(31.5125 189.171202)scale(0.1 -0.1)">
       <use xlink:href="#DejaVuSans-50"/>
       <use x="63.623047" xlink:href="#DejaVuSans-49"/>
       <use x="127.246094" xlink:href="#DejaVuSans-53"/>
      </g>
     </g>
    </g>
    <g id="ytick_5">
     <g id="line2d_23">
      <path clip-path="url(#pb0465e582b)" d="M 57.6 152.039528 
L 414.72 152.039528 
" style="fill:none;stroke:#b0b0b0;stroke-linecap:square;stroke-width:0.8;"/>
     </g>
     <g id="line2d_24">
      <g>
       <use style="stroke:#000000;stroke-width:0.8;" x="57.6" xlink:href="#meaa7fe4cac" y="152.039528"/>
      </g>
     </g>
     <g id="text_13">
      <!-- 220 -->
      <g transform="translate(31.5125 155.838746)scale(0.1 -0.1)">
       <use xlink:href="#DejaVuSans-50"/>
       <use x="63.623047" xlink:href="#DejaVuSans-50"/>
       <use x="127.246094" xlink:href="#DejaVuSans-48"/>
      </g>
     </g>
    </g>
    <g id="ytick_6">
     <g id="line2d_25">
      <path clip-path="url(#pb0465e582b)" d="M 57.6 118.707072 
L 414.72 118.707072 
" style="fill:none;stroke:#b0b0b0;stroke-linecap:square;stroke-width:0.8;"/>
     </g>
     <g id="line2d_26">
      <g>
       <use style="stroke:#000000;stroke-width:0.8;" x="57.6" xlink:href="#meaa7fe4cac" y="118.707072"/>
      </g>
     </g>
     <g id="text_14">
      <!-- 225 -->
      <g transform="translate(31.5125 122.506291)scale(0.1 -0.1)">
       <use xlink:href="#DejaVuSans-50"/>
       <use x="63.623047" xlink:href="#DejaVuSans-50"/>
       <use x="127.246094" xlink:href="#DejaVuSans-53"/>
      </g>
     </g>
    </g>
    <g id="ytick_7">
     <g id="line2d_27">
      <path clip-path="url(#pb0465e582b)" d="M 57.6 85.374617 
L 414.72 85.374617 
" style="fill:none;stroke:#b0b0b0;stroke-linecap:square;stroke-width:0.8;"/>
     </g>
     <g id="line2d_28">
      <g>
       <use style="stroke:#000000;stroke-width:0.8;" x="57.6" xlink:href="#meaa7fe4cac" y="85.374617"/>
      </g>
     </g>
     <g id="text_15">
      <!-- 230 -->
      <defs>
       <path d="M 40.578125 39.3125 
Q 47.65625 37.796875 51.625 33 
Q 55.609375 28.21875 55.609375 21.1875 
Q 55.609375 10.40625 48.1875 4.484375 
Q 40.765625 -1.421875 27.09375 -1.421875 
Q 22.515625 -1.421875 17.65625 -0.515625 
Q 12.796875 0.390625 7.625 2.203125 
L 7.625 11.71875 
Q 11.71875 9.328125 16.59375 8.109375 
Q 21.484375 6.890625 26.8125 6.890625 
Q 36.078125 6.890625 40.9375 10.546875 
Q 45.796875 14.203125 45.796875 21.1875 
Q 45.796875 27.640625 41.28125 31.265625 
Q 36.765625 34.90625 28.71875 34.90625 
L 20.21875 34.90625 
L 20.21875 43.015625 
L 29.109375 43.015625 
Q 36.375 43.015625 40.234375 45.921875 
Q 44.09375 48.828125 44.09375 54.296875 
Q 44.09375 59.90625 40.109375 62.90625 
Q 36.140625 65.921875 28.71875 65.921875 
Q 24.65625 65.921875 20.015625 65.03125 
Q 15.375 64.15625 9.8125 62.3125 
L 9.8125 71.09375 
Q 15.4375 72.65625 20.34375 73.4375 
Q 25.25 74.21875 29.59375 74.21875 
Q 40.828125 74.21875 47.359375 69.109375 
Q 53.90625 64.015625 53.90625 55.328125 
Q 53.90625 49.265625 50.4375 45.09375 
Q 46.96875 40.921875 40.578125 39.3125 
z
" id="DejaVuSans-51"/>
      </defs>
      <g transform="translate(31.5125 89.173836)scale(0.1 -0.1)">
       <use xlink:href="#DejaVuSans-50"/>
       <use x="63.623047" xlink:href="#DejaVuSans-51"/>
       <use x="127.246094" xlink:href="#DejaVuSans-48"/>
      </g>
     </g>
    </g>
    <g id="ytick_8">
     <g id="line2d_29">
      <path clip-path="url(#pb0465e582b)" d="M 57.6 52.042161 
L 414.72 52.042161 
" style="fill:none;stroke:#b0b0b0;stroke-linecap:square;stroke-width:0.8;"/>
     </g>
     <g id="line2d_30">
      <g>
       <use style="stroke:#000000;stroke-width:0.8;" x="57.6" xlink:href="#meaa7fe4cac" y="52.042161"/>
      </g>
     </g>
     <g id="text_16">
      <!-- 235 -->
      <g transform="translate(31.5125 55.84138)scale(0.1 -0.1)">
       <use xlink:href="#DejaVuSans-50"/>
       <use x="63.623047" xlink:href="#DejaVuSans-51"/>
       <use x="127.246094" xlink:href="#DejaVuSans-53"/>
      </g>
     </g>
    </g>
    <g id="text_17">
     <!-- FPS -->
     <defs>
      <path d="M 9.8125 72.90625 
L 51.703125 72.90625 
L 51.703125 64.59375 
L 19.671875 64.59375 
L 19.671875 43.109375 
L 48.578125 43.109375 
L 48.578125 34.8125 
L 19.671875 34.8125 
L 19.671875 0 
L 9.8125 0 
z
" id="DejaVuSans-70"/>
      <path d="M 19.671875 64.796875 
L 19.671875 37.40625 
L 32.078125 37.40625 
Q 38.96875 37.40625 42.71875 40.96875 
Q 46.484375 44.53125 46.484375 51.125 
Q 46.484375 57.671875 42.71875 61.234375 
Q 38.96875 64.796875 32.078125 64.796875 
z
M 9.8125 72.90625 
L 32.078125 72.90625 
Q 44.34375 72.90625 50.609375 67.359375 
Q 56.890625 61.8125 56.890625 51.125 
Q 56.890625 40.328125 50.609375 34.8125 
Q 44.34375 29.296875 32.078125 29.296875 
L 19.671875 29.296875 
L 19.671875 0 
L 9.8125 0 
z
" id="DejaVuSans-80"/>
      <path d="M 53.515625 70.515625 
L 53.515625 60.890625 
Q 47.90625 63.578125 42.921875 64.890625 
Q 37.9375 66.21875 33.296875 66.21875 
Q 25.25 66.21875 20.875 63.09375 
Q 16.5 59.96875 16.5 54.203125 
Q 16.5 49.359375 19.40625 46.890625 
Q 22.3125 44.4375 30.421875 42.921875 
L 36.375 41.703125 
Q 47.40625 39.59375 52.65625 34.296875 
Q 57.90625 29 57.90625 20.125 
Q 57.90625 9.515625 50.796875 4.046875 
Q 43.703125 -1.421875 29.984375 -1.421875 
Q 24.8125 -1.421875 18.96875 -0.25 
Q 13.140625 0.921875 6.890625 3.21875 
L 6.890625 13.375 
Q 12.890625 10.015625 18.65625 8.296875 
Q 24.421875 6.59375 29.984375 6.59375 
Q 38.421875 6.59375 43.015625 9.90625 
Q 47.609375 13.234375 47.609375 19.390625 
Q 47.609375 24.75 44.3125 27.78125 
Q 41.015625 30.8125 33.5 32.328125 
L 27.484375 33.5 
Q 16.453125 35.6875 11.515625 40.375 
Q 6.59375 45.0625 6.59375 53.421875 
Q 6.59375 63.09375 13.40625 68.65625 
Q 20.21875 74.21875 32.171875 74.21875 
Q 37.3125 74.21875 42.625 73.28125 
Q 47.953125 72.359375 53.515625 70.515625 
z
" id="DejaVuSans-83"/>
     </defs>
     <g transform="translate(25.432812 183.592844)rotate(-90)scale(0.1 -0.1)">
      <use xlink:href="#DejaVuSans-70"/>
      <use x="57.519531" xlink:href="#DejaVuSans-80"/>
      <use x="117.822266" xlink:href="#DejaVuSans-83"/>
     </g>
    </g>
   </g>
   <g id="line2d_31">
    <path clip-path="url(#pb0465e582b)" d="M 57.6 295.488 
L 58.549045 289.207851 
L 60.158969 281.559534 
L 60.304468 279.793833 
L 60.666189 279.793833 
L 61.322916 274.107846 
L 62.428318 269.889716 
L 62.648812 268.173046 
L 63.013202 266.608654 
L 63.597037 263.366654 
L 64.699166 259.496211 
L 64.923152 259.496211 
L 64.997752 258.300971 
L 65.511189 258.147573 
L 65.877332 256.033676 
L 66.462161 253.320125 
L 67.420828 250.143939 
L 68.225192 247.929235 
L 68.60118 247.332327 
L 68.828278 246.299639 
L 69.577432 245.520037 
L 70.317611 244.331205 
L 70.683049 243.396883 
L 70.901384 242.214257 
L 71.194507 241.15624 
L 71.787602 240.717205 
L 72.446227 238.602698 
L 73.630123 235.876024 
L 74.078626 235.876024 
L 74.445159 235.530981 
L 74.668852 234.670205 
L 75.546141 233.197974 
L 75.987617 231.758091 
L 76.366469 232.06336 
L 76.585024 232.06336 
L 76.877757 231.169524 
L 77.176664 230.687257 
L 77.322172 230.687257 
L 78.716531 230.245781 
L 79.085021 230.245781 
L 79.158198 229.558645 
L 79.531494 228.734387 
L 79.896739 228.734387 
L 80.698173 226.610114 
L 81.21117 225.819628 
L 82.746603 222.314268 
L 83.929075 222.201864 
L 84.221683 222.733263 
L 84.667319 222.733263 
L 84.959082 222.375607 
L 85.104318 222.375607 
L 86.063764 221.605668 
L 87.235959 220.348581 
L 88.269563 222.464309 
L 88.857395 222.464309 
L 89.519058 221.398561 
L 89.957351 221.398561 
L 90.404584 220.719054 
L 91.287708 221.085968 
L 91.360085 221.085968 
L 92.088158 220.616823 
L 93.483688 219.320674 
L 94.507956 218.37384 
L 95.018919 218.37384 
L 95.244503 217.71539 
L 95.829253 217.71539 
L 96.411663 217.241566 
L 96.629472 217.241566 
L 97.075604 216.871601 
L 97.440862 216.30226 
L 98.179945 216.30226 
L 98.617328 215.893233 
L 99.053108 215.29307 
L 99.782234 215.29307 
L 100.008587 214.947417 
L 100.808067 214.947417 
L 101.462874 214.323247 
L 101.907763 213.605696 
L 102.421402 213.605696 
L 102.78516 213.386484 
L 102.931408 212.768621 
L 104.390383 212.768621 
L 104.53736 213.638044 
L 106.007498 213.638044 
L 106.299774 212.926087 
L 107.846879 212.926087 
L 108.574287 212.661507 
L 108.867159 212.098167 
L 110.198964 212.098167 
L 110.347587 211.945177 
L 110.857449 211.543983 
L 111.816887 211.543983 
L 112.112943 211.304324 
L 112.335992 211.304324 
L 112.481892 211.528928 
L 114.085996 211.528928 
L 114.536862 211.200669 
L 115.490132 211.153673 
L 116.147973 211.153673 
L 116.599195 210.63916 
L 118.354813 210.630514 
L 118.645485 210.245596 
L 119.163627 210.245596 
L 121.600159 209.520009 
L 125.744791 209.452668 
L 125.967123 210.566124 
L 127.97663 210.648722 
L 128.731399 211.02123 
L 129.251836 211.02123 
L 129.622549 211.153165 
L 133.567781 211.250615 
L 134.085556 211.279402 
L 135.501431 211.138517 
L 136.613485 211.208705 
L 137.058638 211.74285 
L 138.627547 211.74285 
L 139.671775 211.914355 
L 142.437353 211.914355 
L 142.893606 212.093081 
L 144.231207 212.804529 
L 145.669707 212.804529 
L 145.818358 213.05497 
L 146.19961 213.05497 
L 146.348943 213.747701 
L 148.462017 213.747701 
L 149.057291 214.095592 
L 150.331955 214.095592 
L 151.30224 214.351729 
L 153.227746 214.351729 
L 153.966587 214.200468 
L 154.409496 213.974644 
L 155.971117 213.974644 
L 158.112673 213.814634 
L 160.044954 213.814634 
L 161.659807 213.36085 
L 163.584577 213.36085 
L 165.498998 212.690803 
L 166.304901 212.690803 
L 166.972173 212.371699 
L 167.410254 212.371699 
L 168.07085 211.977321 
L 169.991087 211.977321 
L 170.505121 211.77764 
L 171.986736 211.646621 
L 173.755116 211.646621 
L 174.489852 211.191514 
L 177.427573 211.191514 
L 177.722804 210.869257 
L 178.088086 210.869257 
L 178.31422 210.566937 
L 181.531561 210.566937 
L 182.140251 211.550595 
L 184.231032 211.550595 
L 185.426494 211.673374 
L 185.579143 211.673374 
L 186.023869 211.959316 
L 188.42328 211.959316 
L 188.871668 212.200704 
L 190.661794 212.240274 
L 191.560558 212.240274 
L 192.231823 212.431716 
L 192.527996 212.431716 
L 193.581059 212.626311 
L 194.259391 212.626311 
L 195.457534 212.881533 
L 196.354198 212.881533 
L 197.241915 213.023741 
L 199.554734 213.098406 
L 200.015332 213.720948 
L 207.245971 213.8185 
L 207.468013 214.282049 
L 210.240776 214.282049 
L 210.686314 214.475119 
L 210.909228 214.400861 
L 213.078096 214.400861 
L 213.153134 214.529032 
L 214.200632 214.529032 
L 214.423947 214.698502 
L 218.154961 214.806938 
L 218.46249 214.951689 
L 220.977475 215.052395 
L 222.453269 214.818433 
L 223.638832 214.818433 
L 224.373225 214.549478 
L 226.152824 214.549478 
L 227.324082 214.363021 
L 228.131161 214.363021 
L 229.032003 214.03761 
L 230.277686 214.03761 
L 230.869386 213.834165 
L 231.529846 213.834165 
L 232.791848 213.439176 
L 234.334286 213.439176 
L 235.068207 213.229831 
L 244.038342 213.16361 
L 244.404753 212.629261 
L 246.460297 212.629261 
L 247.190358 212.279234 
L 248.076719 212.279234 
L 249.1772 211.976609 
L 252.355709 211.902555 
L 252.502674 211.60054 
L 252.952145 211.60054 
L 253.389633 211.717115 
L 255.951759 211.717115 
L 256.31755 211.287438 
L 257.80266 211.426493 
L 260.016085 211.426493 
L 260.457886 211.100574 
L 263.62891 211.100574 
L 263.774967 210.896824 
L 264.297485 211.128649 
L 266.660821 211.128649 
L 266.808132 210.649231 
L 269.009116 210.649231 
L 269.750413 210.401638 
L 270.408403 210.401638 
L 270.845977 209.972979 
L 272.695843 209.972979 
L 273.362744 209.856914 
L 274.18562 210.151197 
L 275.515896 210.151197 
L 277.374134 210.351591 
L 279.059442 210.351591 
L 279.579445 210.013872 
L 279.726774 210.013872 
L 279.872885 210.209688 
L 282.30563 210.209688 
L 282.903325 209.817751 
L 288.207607 209.748579 
L 289.385611 209.426525 
L 291.074596 209.45338 
L 292.242651 208.628614 
L 294.386668 208.628614 
L 297.946876 208.496171 
L 300.779569 208.563002 
L 301.806659 211.68436 
L 303.804938 211.68436 
L 304.694964 211.452941 
L 306.699241 211.426595 
L 306.846273 211.098641 
L 308.60334 211.098641 
L 308.970102 210.35271 
L 309.344025 210.35271 
L 311.202 210.501937 
L 312.39528 210.478337 
L 312.549508 210.719318 
L 314.712256 210.667541 
L 315.158793 210.936597 
L 317.256866 210.967114 
L 317.629289 211.48356 
L 319.880484 211.48356 
L 320.400596 211.729016 
L 320.929305 211.820872 
L 324.696657 211.757905 
L 324.988264 211.401876 
L 326.99766 211.460977 
L 327.88486 212.622852 
L 328.863213 212.622852 
L 331.2465 212.855797 
L 333.493078 214.03822 
L 334.454622 214.03822 
L 334.983157 213.903133 
L 335.292208 214.717015 
L 337.067252 214.708776 
L 338.196068 214.921172 
L 338.420269 214.815788 
L 339.616254 214.815788 
L 340.144718 214.529947 
L 342.577928 214.575519 
L 343.31045 225.921351 
L 344.407339 225.921351 
L 344.554084 225.201663 
L 346.112951 226.389681 
L 346.18695 225.626966 
L 346.555707 225.626966 
L 346.702609 225.212141 
L 347.44437 225.212141 
L 348.862308 224.508322 
L 350.794581 224.517884 
L 351.608885 223.718243 
L 352.72771 223.669416 
L 353.02108 223.175451 
L 354.048736 223.175451 
L 354.124031 222.662057 
L 354.281719 222.662057 
L 355.015445 222.87069 
L 357.404477 222.789109 
L 360.16504 222.498081 
L 360.313283 222.231974 
L 360.90597 222.231974 
L 361.517128 221.999742 
L 361.890799 222.646697 
L 362.411201 222.510084 
L 364.50401 222.229431 
L 365.036247 222.818202 
L 367.709181 222.741299 
L 367.858658 222.442845 
L 368.304268 222.385575 
L 368.619239 222.385575 
L 370.927277 221.890288 
L 371.14956 221.890288 
L 371.522302 222.073796 
L 372.347223 221.905953 
L 373.013782 221.899138 
L 373.321942 221.642187 
L 373.988979 221.642187 
L 374.434117 221.783174 
L 375.635609 221.275884 
L 376.082385 221.935148 
L 377.184919 221.935148 
L 377.853318 221.281173 
L 379.716779 221.203356 
L 380.089769 221.021272 
L 380.618324 221.254013 
L 380.916179 221.254013 
L 381.807142 221.104074 
L 383.238458 221.478108 
L 383.461192 221.478108 
L 383.683591 221.315352 
L 384.128042 221.315352 
L 385.559213 221.480244 
L 387.120793 221.397137 
L 387.651493 224.797723 
L 388.406282 224.797723 
L 388.853625 225.334411 
L 390.126246 225.250795 
L 391.092721 225.207563 
L 391.465428 224.955393 
L 392.967839 225.287822 
L 393.190723 224.940542 
L 393.85861 224.940542 
L 394.452283 224.657956 
L 394.681272 224.400496 
L 395.671642 224.400496 
L 395.820159 224.918366 
L 395.894835 224.630389 
L 398.130548 224.650225 
L 399.029529 226.3849 
L 400.298528 225.895717 
L 400.741578 225.895717 
L 401.409942 225.680675 
L 402.396208 225.680675 
L 402.844389 226.730859 
L 403.884339 226.730859 
L 403.959159 226.44685 
L 404.710165 227.014767 
L 405.909704 227.48086 
L 406.659926 227.394904 
L 407.105003 227.045996 
L 407.474948 227.045996 
L 408.594867 226.385816 
L 409.051482 226.385816 
L 409.420842 226.55376 
L 410.237283 226.238013 
L 410.458722 226.238013 
L 410.757474 225.930099 
L 410.904883 225.930099 
L 411.20189 225.557082 
L 411.962062 225.557082 
L 412.261388 225.802335 
L 412.70667 225.536839 
L 413.299965 225.536839 
L 413.523231 225.222923 
L 414.424232 225.603061 
L 414.72 225.603061 
L 414.72 225.603061 
" style="fill:none;stroke:#000000;stroke-linecap:square;stroke-width:0.8;"/>
   </g>
   <g id="line2d_32">
    <path clip-path="url(#pb0465e582b)" d="M 57.6 53.568 
L 57.69949 53.568 
L 58.206116 62.110866 
L 58.510146 62.110866 
L 58.612165 62.376667 
L 58.914896 62.376667 
L 59.119394 64.828893 
L 59.545211 65.646946 
L 60.455789 66.987853 
L 60.55743 66.78156 
L 61.674618 66.673022 
L 61.877242 68.992195 
L 62.587188 69.088323 
L 62.794967 68.819674 
L 62.89719 68.819674 
L 63.302114 69.663666 
L 63.707845 69.750232 
L 64.016588 69.737109 
L 64.418443 69.988263 
L 64.822991 69.921939 
L 65.124007 69.625215 
L 65.626927 69.543633 
L 65.827211 69.22809 
L 66.028015 68.965747 
L 66.127798 68.965747 
L 66.650718 69.757759 
L 67.868293 69.990399 
L 68.574393 69.851853 
L 68.88336 72.545263 
L 69.283747 72.545263 
L 69.795227 72.039295 
L 69.895739 73.053673 
L 70.296087 73.053673 
L 71.000582 72.340902 
L 71.205448 72.340902 
L 71.606264 72.466326 
L 71.708447 72.093615 
L 72.109802 71.599548 
L 72.720786 71.599548 
L 72.821631 71.723243 
L 73.021207 71.723243 
L 73.122207 71.356838 
L 73.223126 71.386541 
L 73.733026 71.386541 
L 73.834007 71.506269 
L 75.855061 71.232228 
L 76.468814 71.181672 
L 77.174636 71.646646 
L 77.576622 71.646646 
L 78.080693 72.266136 
L 78.180684 72.266136 
L 78.596379 72.772003 
L 79.199277 72.772003 
L 79.30003 72.512305 
L 79.709687 72.415465 
L 80.013282 72.730195 
L 80.314349 72.730195 
L 80.72189 72.533463 
L 80.822919 72.790618 
L 81.425172 72.790618 
L 82.134238 72.39746 
L 83.261955 72.39746 
L 83.468041 72.745148 
L 83.569995 82.249597 
L 84.577526 82.249597 
L 84.778831 81.8659 
L 85.285568 82.556596 
L 85.503059 82.556596 
L 85.912375 83.025029 
L 86.626607 82.717013 
L 87.327928 82.717013 
L 87.430104 82.474201 
L 87.630539 82.474201 
L 87.841405 82.009634 
L 88.343185 82.198736 
L 88.542759 82.198736 
L 88.842898 81.541201 
L 89.244894 81.237559 
L 89.444916 80.676152 
L 90.168066 80.676152 
L 90.26844 80.871155 
L 90.668375 80.871155 
L 90.868888 80.28269 
L 91.470445 79.875799 
L 91.670268 79.875799 
L 92.070028 79.359862 
L 92.371151 79.359862 
L 93.187945 79.171167 
L 93.402462 79.171167 
L 93.604093 79.441342 
L 94.0078 79.174015 
L 94.611166 79.174015 
L 94.712664 78.81585 
L 94.919211 78.81585 
L 95.522274 79.012683 
L 96.432361 79.012683 
L 96.934732 78.444664 
L 98.148418 78.636106 
L 99.263801 78.636106 
L 99.678157 78.354741 
L 99.881533 80.250952 
L 100.684318 80.250952 
L 101.900387 79.990949 
L 102.217604 79.990949 
L 102.520842 80.297338 
L 102.822407 79.88414 
L 103.83475 79.88414 
L 104.135659 79.630444 
L 105.553611 79.578362 
L 106.265815 79.251324 
L 106.565998 79.251324 
L 106.666713 79.058458 
L 107.382476 79.058458 
L 108.798796 78.803236 
L 109.710183 78.803236 
L 110.312272 78.514141 
L 110.91926 77.808389 
L 112.041865 77.808389 
L 112.242807 77.929134 
L 114.619394 77.961075 
L 114.826012 78.897228 
L 115.335248 78.897228 
L 115.84782 79.018888 
L 116.051737 79.018888 
L 116.2705 79.155807 
L 116.679952 79.155807 
L 117.291208 79.685476 
L 118.409018 79.685476 
L 118.622938 79.830329 
L 118.84098 82.840097 
L 121.495371 82.819447 
L 122.323052 83.716742 
L 124.576812 83.758957 
L 124.780839 83.86719 
L 124.984898 83.765874 
L 125.709306 83.765874 
L 126.024684 84.325654 
L 127.458723 84.390959 
L 127.869173 84.617801 
L 128.392179 84.617801 
L 128.614588 85.120107 
L 130.864129 85.120107 
L 131.390696 87.694299 
L 134.076278 87.694299 
L 134.383073 87.920936 
L 134.487521 90.02222 
L 134.692202 90.111634 
L 137.691051 90.111634 
L 137.89587 90.360854 
L 138.408666 90.19291 
L 141.185727 90.19291 
L 141.496296 90.363702 
L 141.916538 96.266766 
L 144.908492 96.261171 
L 145.113381 96.572849 
L 145.828583 96.572849 
L 146.239698 96.340311 
L 148.511292 96.42586 
L 148.918743 96.19912 
L 160.658159 96.264324 
L 160.979005 96.076544 
L 161.808567 96.630424 
L 162.015975 97.261714 
L 165.111445 97.303827 
L 166.869905 97.545927 
L 169.442369 97.440644 
L 169.646277 97.159483 
L 172.422657 97.085022 
L 172.728522 96.969872 
L 173.035358 96.587497 
L 176.234011 96.587497 
L 177.459617 97.763105 
L 178.704739 97.718143 
L 179.418945 97.182981 
L 181.083135 97.182981 
L 181.288644 97.411246 
L 183.863044 97.453258 
L 184.169695 97.241675 
L 184.374203 97.241675 
L 184.682792 97.011884 
L 185.726492 97.11737 
L 185.93142 98.200512 
L 186.44185 98.200512 
L 186.646573 97.94824 
L 187.987791 97.94824 
L 188.614757 98.23052 
L 190.157993 98.23052 
L 190.467221 99.398397 
L 192.217244 99.398397 
L 192.84068 106.130601 
L 193.975375 106.130601 
L 194.284418 108.484767 
L 195.829572 108.484767 
L 196.2385 108.212252 
L 196.443098 108.212252 
L 196.545517 107.812991 
L 196.95316 107.223407 
L 198.08865 107.223407 
L 198.598942 106.531896 
L 200.459099 106.459165 
L 201.90922 105.754939 
L 202.41937 105.770605 
L 202.828782 105.309496 
L 203.133343 105.309496 
L 203.337077 104.847676 
L 204.170308 104.847676 
L 204.395392 105.353339 
L 204.804025 105.353339 
L 206.233956 104.531725 
L 207.682127 104.736595 
L 208.094238 104.736595 
L 208.402391 104.50131 
L 208.708044 104.50131 
L 208.913594 104.099099 
L 209.340439 104.922035 
L 210.054455 104.922035 
L 210.769161 104.659285 
L 210.974786 111.701947 
L 212.115749 111.701947 
L 212.422198 111.527492 
L 212.627616 110.817164 
L 213.546948 110.817164 
L 214.483007 110.633758 
L 216.034196 110.622772 
L 216.146072 110.472934 
L 216.450963 110.472934 
L 217.269596 110.171429 
L 217.880859 110.171429 
L 218.922694 109.616125 
L 219.844585 109.616125 
L 220.049591 109.193264 
L 220.471938 108.930108 
L 220.779166 108.930108 
L 220.993776 109.376263 
L 221.609177 109.376263 
L 222.122362 108.760537 
L 222.838619 108.760537 
L 223.04615 108.35446 
L 223.578502 108.35446 
L 223.783747 108.782305 
L 223.988001 108.526575 
L 224.599333 108.526575 
L 224.905679 107.992429 
L 225.415535 107.992429 
L 225.62368 107.471915 
L 225.726104 107.612292 
L 226.440873 107.612292 
L 226.761159 107.135417 
L 227.174715 107.135417 
L 227.378935 107.617988 
L 227.481312 107.617988 
L 227.687323 107.170307 
L 228.099026 107.170307 
L 228.404608 106.867581 
L 228.812721 106.867581 
L 228.914981 106.360494 
L 229.118864 106.360494 
L 229.629574 106.021351 
L 230.041805 106.021351 
L 230.562657 105.689735 
L 231.075684 105.697466 
L 231.279863 105.259245 
L 231.994325 105.259245 
L 232.404564 104.830179 
L 233.145114 104.830179 
L 233.350262 105.28376 
L 233.760046 104.900266 
L 234.066819 104.900266 
L 234.272388 104.566311 
L 235.302318 104.566311 
L 235.405884 104.412608 
L 235.826597 105.88728 
L 236.029825 105.88728 
L 236.233957 105.365342 
L 237.048873 105.365342 
L 238.192597 104.5302 
L 238.703536 104.5302 
L 239.727498 104.150062 
L 239.83067 103.886499 
L 241.065087 103.886499 
L 241.692946 103.711028 
L 241.898507 103.711028 
L 242.205595 105.420984 
L 243.757789 105.397791 
L 244.166901 105.064853 
L 244.370951 105.064853 
L 244.473292 104.688175 
L 244.785589 104.688175 
L 245.308123 105.024978 
L 245.51188 105.024978 
L 245.922526 104.688683 
L 246.331403 104.688683 
L 246.433962 104.33062 
L 247.776073 104.412506 
L 248.711879 103.988323 
L 249.746828 104.048848 
L 249.85065 104.297662 
L 250.055073 104.297662 
L 250.362553 104.007956 
L 251.70471 104.008058 
L 251.81364 103.719369 
L 252.226649 103.719369 
L 252.636222 103.873377 
L 253.152776 103.873377 
L 253.357447 103.711231 
L 253.767643 103.711231 
L 253.973378 103.448787 
L 254.496009 103.759753 
L 255.210243 103.759753 
L 255.312545 103.384091 
L 255.731638 103.384091 
L 256.039291 103.683156 
L 256.764375 103.416032 
L 257.792192 103.381955 
L 258.215745 103.716521 
L 258.947962 103.716521 
L 259.154625 103.920271 
L 259.358819 103.920271 
L 259.871716 103.540541 
L 260.498253 103.377378 
L 260.601885 103.377378 
L 261.845106 103.888432 
L 262.050268 103.562004 
L 263.392646 103.653859 
L 263.495153 103.184206 
L 263.815121 103.184206 
L 263.917966 103.857813 
L 264.534861 103.857813 
L 264.534861 103.857813 
" style="fill:none;stroke:#000000;stroke-dasharray:0.8,1.32;stroke-dashoffset:0;stroke-width:0.8;"/>
   </g>
   <g id="patch_3">
    <path d="M 57.6 307.584 
L 57.6 41.472 
" style="fill:none;stroke:#000000;stroke-linecap:square;stroke-linejoin:miter;stroke-width:0.8;"/>
   </g>
   <g id="patch_4">
    <path d="M 414.72 307.584 
L 414.72 41.472 
" style="fill:none;stroke:#000000;stroke-linecap:square;stroke-linejoin:miter;stroke-width:0.8;"/>
   </g>
   <g id="patch_5">
    <path d="M 57.6 307.584 
L 414.72 307.584 
" style="fill:none;stroke:#000000;stroke-linecap:square;stroke-linejoin:miter;stroke-width:0.8;"/>
   </g>
   <g id="patch_6">
    <path d="M 57.6 41.472 
L 414.72 41.472 
" style="fill:none;stroke:#000000;stroke-linecap:square;stroke-linejoin:miter;stroke-width:0.8;"/>
   </g>
   <g id="legend_1">
    <g id="patch_7">
     <path d="M 64.6 78.82825 
L 129.759375 78.82825 
Q 131.759375 78.82825 131.759375 76.82825 
L 131.759375 48.472 
Q 131.759375 46.472 129.759375 46.472 
L 64.6 46.472 
Q 62.6 46.472 62.6 48.472 
L 62.6 76.82825 
Q 62.6 78.82825 64.6 78.82825 
z
" style="fill:#ffffff;opacity:0.8;stroke:#cccccc;stroke-linejoin:miter;"/>
    </g>
    <g id="line2d_33">
     <path d="M 66.6 54.570437 
L 86.6 54.570437 
" style="fill:none;stroke:#000000;stroke-linecap:square;stroke-width:0.8;"/>
    </g>
    <g id="line2d_34"/>
    <g id="text_18">
     <!-- 2 envs -->
     <defs>
      <path id="DejaVuSans-32"/>
      <path d="M 56.203125 29.59375 
L 56.203125 25.203125 
L 14.890625 25.203125 
Q 15.484375 15.921875 20.484375 11.0625 
Q 25.484375 6.203125 34.421875 6.203125 
Q 39.59375 6.203125 44.453125 7.46875 
Q 49.3125 8.734375 54.109375 11.28125 
L 54.109375 2.78125 
Q 49.265625 0.734375 44.1875 -0.34375 
Q 39.109375 -1.421875 33.890625 -1.421875 
Q 20.796875 -1.421875 13.15625 6.1875 
Q 5.515625 13.8125 5.515625 26.8125 
Q 5.515625 40.234375 12.765625 48.109375 
Q 20.015625 56 32.328125 56 
Q 43.359375 56 49.78125 48.890625 
Q 56.203125 41.796875 56.203125 29.59375 
z
M 47.21875 32.234375 
Q 47.125 39.59375 43.09375 43.984375 
Q 39.0625 48.390625 32.421875 48.390625 
Q 24.90625 48.390625 20.390625 44.140625 
Q 15.875 39.890625 15.1875 32.171875 
z
" id="DejaVuSans-101"/>
      <path d="M 54.890625 33.015625 
L 54.890625 0 
L 45.90625 0 
L 45.90625 32.71875 
Q 45.90625 40.484375 42.875 44.328125 
Q 39.84375 48.1875 33.796875 48.1875 
Q 26.515625 48.1875 22.3125 43.546875 
Q 18.109375 38.921875 18.109375 30.90625 
L 18.109375 0 
L 9.078125 0 
L 9.078125 54.6875 
L 18.109375 54.6875 
L 18.109375 46.1875 
Q 21.34375 51.125 25.703125 53.5625 
Q 30.078125 56 35.796875 56 
Q 45.21875 56 50.046875 50.171875 
Q 54.890625 44.34375 54.890625 33.015625 
z
" id="DejaVuSans-110"/>
      <path d="M 2.984375 54.6875 
L 12.5 54.6875 
L 29.59375 8.796875 
L 46.6875 54.6875 
L 56.203125 54.6875 
L 35.6875 0 
L 23.484375 0 
z
" id="DejaVuSans-118"/>
     </defs>
     <g transform="translate(94.6 58.070437)scale(0.1 -0.1)">
      <use xlink:href="#DejaVuSans-50"/>
      <use x="63.623047" xlink:href="#DejaVuSans-32"/>
      <use x="95.410156" xlink:href="#DejaVuSans-101"/>
      <use x="156.933594" xlink:href="#DejaVuSans-110"/>
      <use x="220.3125" xlink:href="#DejaVuSans-118"/>
      <use x="279.492188" xlink:href="#DejaVuSans-115"/>
     </g>
    </g>
    <g id="line2d_35">
     <path d="M 66.6 69.248562 
L 86.6 69.248562 
" style="fill:none;stroke:#000000;stroke-dasharray:0.8,1.32;stroke-dashoffset:0;stroke-width:0.8;"/>
    </g>
    <g id="line2d_36"/>
    <g id="text_19">
     <!-- 3 envs -->
     <g transform="translate(94.6 72.748562)scale(0.1 -0.1)">
      <use xlink:href="#DejaVuSans-51"/>
      <use x="63.623047" xlink:href="#DejaVuSans-32"/>
      <use x="95.410156" xlink:href="#DejaVuSans-101"/>
      <use x="156.933594" xlink:href="#DejaVuSans-110"/>
      <use x="220.3125" xlink:href="#DejaVuSans-118"/>
      <use x="279.492188" xlink:href="#DejaVuSans-115"/>
     </g>
    </g>
   </g>
  </g>
 </g>
 <defs>
  <clipPath id="pb0465e582b">
   <rect height="266.112" width="357.12" x="57.6" y="41.472"/>
  </clipPath>
 </defs>
</svg>
