<?xml version="1.0" encoding="utf-8" standalone="no"?>
<!DOCTYPE svg PUBLIC "-//W3C//DTD SVG 1.1//EN"
  "http://www.w3.org/Graphics/SVG/1.1/DTD/svg11.dtd">
<!-- Created with matplotlib (https://matplotlib.org/) -->
<svg height="345.6pt" version="1.1" viewBox="0 0 460.8 345.6" width="460.8pt" xmlns="http://www.w3.org/2000/svg" xmlns:xlink="http://www.w3.org/1999/xlink">
 <defs>
  <style type="text/css">
*{stroke-linecap:butt;stroke-linejoin:round;}
  </style>
 </defs>
 <g id="figure_1">
  <g id="patch_1">
   <path d="M 0 345.6 
L 460.8 345.6 
L 460.8 0 
L 0 0 
z
" style="fill:#ffffff;"/>
  </g>
  <g id="axes_1">
   <g id="patch_2">
    <path d="M 57.6 307.584 
L 414.72 307.584 
L 414.72 41.472 
L 57.6 41.472 
z
" style="fill:#ffffff;"/>
   </g>
   <g id="matplotlib.axis_1">
    <g id="xtick_1">
     <g id="line2d_1">
      <path clip-path="url(#p782a7a715e)" d="M 57.6 307.584 
L 57.6 41.472 
" style="fill:none;stroke:#b0b0b0;stroke-linecap:square;stroke-width:0.8;"/>
     </g>
     <g id="line2d_2">
      <defs>
       <path d="M 0 0 
L 0 3.5 
" id="m521856d5dd" style="stroke:#000000;stroke-width:0.8;"/>
      </defs>
      <g>
       <use style="stroke:#000000;stroke-width:0.8;" x="57.6" xlink:href="#m521856d5dd" y="307.584"/>
      </g>
     </g>
     <g id="text_1">
      <!-- 0.0 -->
      <defs>
       <path d="M 31.78125 66.40625 
Q 24.171875 66.40625 20.328125 58.90625 
Q 16.5 51.421875 16.5 36.375 
Q 16.5 21.390625 20.328125 13.890625 
Q 24.171875 6.390625 31.78125 6.390625 
Q 39.453125 6.390625 43.28125 13.890625 
Q 47.125 21.390625 47.125 36.375 
Q 47.125 51.421875 43.28125 58.90625 
Q 39.453125 66.40625 31.78125 66.40625 
z
M 31.78125 74.21875 
Q 44.046875 74.21875 50.515625 64.515625 
Q 56.984375 54.828125 56.984375 36.375 
Q 56.984375 17.96875 50.515625 8.265625 
Q 44.046875 -1.421875 31.78125 -1.421875 
Q 19.53125 -1.421875 13.0625 8.265625 
Q 6.59375 17.96875 6.59375 36.375 
Q 6.59375 54.828125 13.0625 64.515625 
Q 19.53125 74.21875 31.78125 74.21875 
z
" id="DejaVuSans-48"/>
       <path d="M 10.6875 12.40625 
L 21 12.40625 
L 21 0 
L 10.6875 0 
z
" id="DejaVuSans-46"/>
      </defs>
      <g transform="translate(49.648438 322.182437)scale(0.1 -0.1)">
       <use xlink:href="#DejaVuSans-48"/>
       <use x="63.623047" xlink:href="#DejaVuSans-46"/>
       <use x="95.410156" xlink:href="#DejaVuSans-48"/>
      </g>
     </g>
    </g>
    <g id="xtick_2">
     <g id="line2d_3">
      <path clip-path="url(#p782a7a715e)" d="M 100.739906 307.584 
L 100.739906 41.472 
" style="fill:none;stroke:#b0b0b0;stroke-linecap:square;stroke-width:0.8;"/>
     </g>
     <g id="line2d_4">
      <g>
       <use style="stroke:#000000;stroke-width:0.8;" x="100.739906" xlink:href="#m521856d5dd" y="307.584"/>
      </g>
     </g>
     <g id="text_2">
      <!-- 0.1 -->
      <defs>
       <path d="M 12.40625 8.296875 
L 28.515625 8.296875 
L 28.515625 63.921875 
L 10.984375 60.40625 
L 10.984375 69.390625 
L 28.421875 72.90625 
L 38.28125 72.90625 
L 38.28125 8.296875 
L 54.390625 8.296875 
L 54.390625 0 
L 12.40625 0 
z
" id="DejaVuSans-49"/>
      </defs>
      <g transform="translate(92.788343 322.182437)scale(0.1 -0.1)">
       <use xlink:href="#DejaVuSans-48"/>
       <use x="63.623047" xlink:href="#DejaVuSans-46"/>
       <use x="95.410156" xlink:href="#DejaVuSans-49"/>
      </g>
     </g>
    </g>
    <g id="xtick_3">
     <g id="line2d_5">
      <path clip-path="url(#p782a7a715e)" d="M 143.879811 307.584 
L 143.879811 41.472 
" style="fill:none;stroke:#b0b0b0;stroke-linecap:square;stroke-width:0.8;"/>
     </g>
     <g id="line2d_6">
      <g>
       <use style="stroke:#000000;stroke-width:0.8;" x="143.879811" xlink:href="#m521856d5dd" y="307.584"/>
      </g>
     </g>
     <g id="text_3">
      <!-- 0.2 -->
      <defs>
       <path d="M 19.1875 8.296875 
L 53.609375 8.296875 
L 53.609375 0 
L 7.328125 0 
L 7.328125 8.296875 
Q 12.9375 14.109375 22.625 23.890625 
Q 32.328125 33.6875 34.8125 36.53125 
Q 39.546875 41.84375 41.421875 45.53125 
Q 43.3125 49.21875 43.3125 52.78125 
Q 43.3125 58.59375 39.234375 62.25 
Q 35.15625 65.921875 28.609375 65.921875 
Q 23.96875 65.921875 18.8125 64.3125 
Q 13.671875 62.703125 7.8125 59.421875 
L 7.8125 69.390625 
Q 13.765625 71.78125 18.9375 73 
Q 24.125 74.21875 28.421875 74.21875 
Q 39.75 74.21875 46.484375 68.546875 
Q 53.21875 62.890625 53.21875 53.421875 
Q 53.21875 48.921875 51.53125 44.890625 
Q 49.859375 40.875 45.40625 35.40625 
Q 44.1875 33.984375 37.640625 27.21875 
Q 31.109375 20.453125 19.1875 8.296875 
z
" id="DejaVuSans-50"/>
      </defs>
      <g transform="translate(135.928249 322.182437)scale(0.1 -0.1)">
       <use xlink:href="#DejaVuSans-48"/>
       <use x="63.623047" xlink:href="#DejaVuSans-46"/>
       <use x="95.410156" xlink:href="#DejaVuSans-50"/>
      </g>
     </g>
    </g>
    <g id="xtick_4">
     <g id="line2d_7">
      <path clip-path="url(#p782a7a715e)" d="M 187.019717 307.584 
L 187.019717 41.472 
" style="fill:none;stroke:#b0b0b0;stroke-linecap:square;stroke-width:0.8;"/>
     </g>
     <g id="line2d_8">
      <g>
       <use style="stroke:#000000;stroke-width:0.8;" x="187.019717" xlink:href="#m521856d5dd" y="307.584"/>
      </g>
     </g>
     <g id="text_4">
      <!-- 0.3 -->
      <defs>
       <path d="M 40.578125 39.3125 
Q 47.65625 37.796875 51.625 33 
Q 55.609375 28.21875 55.609375 21.1875 
Q 55.609375 10.40625 48.1875 4.484375 
Q 40.765625 -1.421875 27.09375 -1.421875 
Q 22.515625 -1.421875 17.65625 -0.515625 
Q 12.796875 0.390625 7.625 2.203125 
L 7.625 11.71875 
Q 11.71875 9.328125 16.59375 8.109375 
Q 21.484375 6.890625 26.8125 6.890625 
Q 36.078125 6.890625 40.9375 10.546875 
Q 45.796875 14.203125 45.796875 21.1875 
Q 45.796875 27.640625 41.28125 31.265625 
Q 36.765625 34.90625 28.71875 34.90625 
L 20.21875 34.90625 
L 20.21875 43.015625 
L 29.109375 43.015625 
Q 36.375 43.015625 40.234375 45.921875 
Q 44.09375 48.828125 44.09375 54.296875 
Q 44.09375 59.90625 40.109375 62.90625 
Q 36.140625 65.921875 28.71875 65.921875 
Q 24.65625 65.921875 20.015625 65.03125 
Q 15.375 64.15625 9.8125 62.3125 
L 9.8125 71.09375 
Q 15.4375 72.65625 20.34375 73.4375 
Q 25.25 74.21875 29.59375 74.21875 
Q 40.828125 74.21875 47.359375 69.109375 
Q 53.90625 64.015625 53.90625 55.328125 
Q 53.90625 49.265625 50.4375 45.09375 
Q 46.96875 40.921875 40.578125 39.3125 
z
" id="DejaVuSans-51"/>
      </defs>
      <g transform="translate(179.068154 322.182437)scale(0.1 -0.1)">
       <use xlink:href="#DejaVuSans-48"/>
       <use x="63.623047" xlink:href="#DejaVuSans-46"/>
       <use x="95.410156" xlink:href="#DejaVuSans-51"/>
      </g>
     </g>
    </g>
    <g id="xtick_5">
     <g id="line2d_9">
      <path clip-path="url(#p782a7a715e)" d="M 230.159623 307.584 
L 230.159623 41.472 
" style="fill:none;stroke:#b0b0b0;stroke-linecap:square;stroke-width:0.8;"/>
     </g>
     <g id="line2d_10">
      <g>
       <use style="stroke:#000000;stroke-width:0.8;" x="230.159623" xlink:href="#m521856d5dd" y="307.584"/>
      </g>
     </g>
     <g id="text_5">
      <!-- 0.4 -->
      <defs>
       <path d="M 37.796875 64.3125 
L 12.890625 25.390625 
L 37.796875 25.390625 
z
M 35.203125 72.90625 
L 47.609375 72.90625 
L 47.609375 25.390625 
L 58.015625 25.390625 
L 58.015625 17.1875 
L 47.609375 17.1875 
L 47.609375 0 
L 37.796875 0 
L 37.796875 17.1875 
L 4.890625 17.1875 
L 4.890625 26.703125 
z
" id="DejaVuSans-52"/>
      </defs>
      <g transform="translate(222.20806 322.182437)scale(0.1 -0.1)">
       <use xlink:href="#DejaVuSans-48"/>
       <use x="63.623047" xlink:href="#DejaVuSans-46"/>
       <use x="95.410156" xlink:href="#DejaVuSans-52"/>
      </g>
     </g>
    </g>
    <g id="xtick_6">
     <g id="line2d_11">
      <path clip-path="url(#p782a7a715e)" d="M 273.299528 307.584 
L 273.299528 41.472 
" style="fill:none;stroke:#b0b0b0;stroke-linecap:square;stroke-width:0.8;"/>
     </g>
     <g id="line2d_12">
      <g>
       <use style="stroke:#000000;stroke-width:0.8;" x="273.299528" xlink:href="#m521856d5dd" y="307.584"/>
      </g>
     </g>
     <g id="text_6">
      <!-- 0.5 -->
      <defs>
       <path d="M 10.796875 72.90625 
L 49.515625 72.90625 
L 49.515625 64.59375 
L 19.828125 64.59375 
L 19.828125 46.734375 
Q 21.96875 47.46875 24.109375 47.828125 
Q 26.265625 48.1875 28.421875 48.1875 
Q 40.625 48.1875 47.75 41.5 
Q 54.890625 34.8125 54.890625 23.390625 
Q 54.890625 11.625 47.5625 5.09375 
Q 40.234375 -1.421875 26.90625 -1.421875 
Q 22.3125 -1.421875 17.546875 -0.640625 
Q 12.796875 0.140625 7.71875 1.703125 
L 7.71875 11.625 
Q 12.109375 9.234375 16.796875 8.0625 
Q 21.484375 6.890625 26.703125 6.890625 
Q 35.15625 6.890625 40.078125 11.328125 
Q 45.015625 15.765625 45.015625 23.390625 
Q 45.015625 31 40.078125 35.4375 
Q 35.15625 39.890625 26.703125 39.890625 
Q 22.75 39.890625 18.8125 39.015625 
Q 14.890625 38.140625 10.796875 36.28125 
z
" id="DejaVuSans-53"/>
      </defs>
      <g transform="translate(265.347966 322.182437)scale(0.1 -0.1)">
       <use xlink:href="#DejaVuSans-48"/>
       <use x="63.623047" xlink:href="#DejaVuSans-46"/>
       <use x="95.410156" xlink:href="#DejaVuSans-53"/>
      </g>
     </g>
    </g>
    <g id="xtick_7">
     <g id="line2d_13">
      <path clip-path="url(#p782a7a715e)" d="M 316.439434 307.584 
L 316.439434 41.472 
" style="fill:none;stroke:#b0b0b0;stroke-linecap:square;stroke-width:0.8;"/>
     </g>
     <g id="line2d_14">
      <g>
       <use style="stroke:#000000;stroke-width:0.8;" x="316.439434" xlink:href="#m521856d5dd" y="307.584"/>
      </g>
     </g>
     <g id="text_7">
      <!-- 0.6 -->
      <defs>
       <path d="M 33.015625 40.375 
Q 26.375 40.375 22.484375 35.828125 
Q 18.609375 31.296875 18.609375 23.390625 
Q 18.609375 15.53125 22.484375 10.953125 
Q 26.375 6.390625 33.015625 6.390625 
Q 39.65625 6.390625 43.53125 10.953125 
Q 47.40625 15.53125 47.40625 23.390625 
Q 47.40625 31.296875 43.53125 35.828125 
Q 39.65625 40.375 33.015625 40.375 
z
M 52.59375 71.296875 
L 52.59375 62.3125 
Q 48.875 64.0625 45.09375 64.984375 
Q 41.3125 65.921875 37.59375 65.921875 
Q 27.828125 65.921875 22.671875 59.328125 
Q 17.53125 52.734375 16.796875 39.40625 
Q 19.671875 43.65625 24.015625 45.921875 
Q 28.375 48.1875 33.59375 48.1875 
Q 44.578125 48.1875 50.953125 41.515625 
Q 57.328125 34.859375 57.328125 23.390625 
Q 57.328125 12.15625 50.6875 5.359375 
Q 44.046875 -1.421875 33.015625 -1.421875 
Q 20.359375 -1.421875 13.671875 8.265625 
Q 6.984375 17.96875 6.984375 36.375 
Q 6.984375 53.65625 15.1875 63.9375 
Q 23.390625 74.21875 37.203125 74.21875 
Q 40.921875 74.21875 44.703125 73.484375 
Q 48.484375 72.75 52.59375 71.296875 
z
" id="DejaVuSans-54"/>
      </defs>
      <g transform="translate(308.487871 322.182437)scale(0.1 -0.1)">
       <use xlink:href="#DejaVuSans-48"/>
       <use x="63.623047" xlink:href="#DejaVuSans-46"/>
       <use x="95.410156" xlink:href="#DejaVuSans-54"/>
      </g>
     </g>
    </g>
    <g id="xtick_8">
     <g id="line2d_15">
      <path clip-path="url(#p782a7a715e)" d="M 359.579339 307.584 
L 359.579339 41.472 
" style="fill:none;stroke:#b0b0b0;stroke-linecap:square;stroke-width:0.8;"/>
     </g>
     <g id="line2d_16">
      <g>
       <use style="stroke:#000000;stroke-width:0.8;" x="359.579339" xlink:href="#m521856d5dd" y="307.584"/>
      </g>
     </g>
     <g id="text_8">
      <!-- 0.7 -->
      <defs>
       <path d="M 8.203125 72.90625 
L 55.078125 72.90625 
L 55.078125 68.703125 
L 28.609375 0 
L 18.3125 0 
L 43.21875 64.59375 
L 8.203125 64.59375 
z
" id="DejaVuSans-55"/>
      </defs>
      <g transform="translate(351.627777 322.182437)scale(0.1 -0.1)">
       <use xlink:href="#DejaVuSans-48"/>
       <use x="63.623047" xlink:href="#DejaVuSans-46"/>
       <use x="95.410156" xlink:href="#DejaVuSans-55"/>
      </g>
     </g>
    </g>
    <g id="xtick_9">
     <g id="line2d_17">
      <path clip-path="url(#p782a7a715e)" d="M 402.719245 307.584 
L 402.719245 41.472 
" style="fill:none;stroke:#b0b0b0;stroke-linecap:square;stroke-width:0.8;"/>
     </g>
     <g id="line2d_18">
      <g>
       <use style="stroke:#000000;stroke-width:0.8;" x="402.719245" xlink:href="#m521856d5dd" y="307.584"/>
      </g>
     </g>
     <g id="text_9">
      <!-- 0.8 -->
      <defs>
       <path d="M 31.78125 34.625 
Q 24.75 34.625 20.71875 30.859375 
Q 16.703125 27.09375 16.703125 20.515625 
Q 16.703125 13.921875 20.71875 10.15625 
Q 24.75 6.390625 31.78125 6.390625 
Q 38.8125 6.390625 42.859375 10.171875 
Q 46.921875 13.96875 46.921875 20.515625 
Q 46.921875 27.09375 42.890625 30.859375 
Q 38.875 34.625 31.78125 34.625 
z
M 21.921875 38.8125 
Q 15.578125 40.375 12.03125 44.71875 
Q 8.5 49.078125 8.5 55.328125 
Q 8.5 64.0625 14.71875 69.140625 
Q 20.953125 74.21875 31.78125 74.21875 
Q 42.671875 74.21875 48.875 69.140625 
Q 55.078125 64.0625 55.078125 55.328125 
Q 55.078125 49.078125 51.53125 44.71875 
Q 48 40.375 41.703125 38.8125 
Q 48.828125 37.15625 52.796875 32.3125 
Q 56.78125 27.484375 56.78125 20.515625 
Q 56.78125 9.90625 50.3125 4.234375 
Q 43.84375 -1.421875 31.78125 -1.421875 
Q 19.734375 -1.421875 13.25 4.234375 
Q 6.78125 9.90625 6.78125 20.515625 
Q 6.78125 27.484375 10.78125 32.3125 
Q 14.796875 37.15625 21.921875 38.8125 
z
M 18.3125 54.390625 
Q 18.3125 48.734375 21.84375 45.5625 
Q 25.390625 42.390625 31.78125 42.390625 
Q 38.140625 42.390625 41.71875 45.5625 
Q 45.3125 48.734375 45.3125 54.390625 
Q 45.3125 60.0625 41.71875 63.234375 
Q 38.140625 66.40625 31.78125 66.40625 
Q 25.390625 66.40625 21.84375 63.234375 
Q 18.3125 60.0625 18.3125 54.390625 
z
" id="DejaVuSans-56"/>
      </defs>
      <g transform="translate(394.767683 322.182437)scale(0.1 -0.1)">
       <use xlink:href="#DejaVuSans-48"/>
       <use x="63.623047" xlink:href="#DejaVuSans-46"/>
       <use x="95.410156" xlink:href="#DejaVuSans-56"/>
      </g>
     </g>
    </g>
    <g id="text_10">
     <!-- Hours -->
     <defs>
      <path d="M 9.8125 72.90625 
L 19.671875 72.90625 
L 19.671875 43.015625 
L 55.515625 43.015625 
L 55.515625 72.90625 
L 65.375 72.90625 
L 65.375 0 
L 55.515625 0 
L 55.515625 34.71875 
L 19.671875 34.71875 
L 19.671875 0 
L 9.8125 0 
z
" id="DejaVuSans-72"/>
      <path d="M 30.609375 48.390625 
Q 23.390625 48.390625 19.1875 42.75 
Q 14.984375 37.109375 14.984375 27.296875 
Q 14.984375 17.484375 19.15625 11.84375 
Q 23.34375 6.203125 30.609375 6.203125 
Q 37.796875 6.203125 41.984375 11.859375 
Q 46.1875 17.53125 46.1875 27.296875 
Q 46.1875 37.015625 41.984375 42.703125 
Q 37.796875 48.390625 30.609375 48.390625 
z
M 30.609375 56 
Q 42.328125 56 49.015625 48.375 
Q 55.71875 40.765625 55.71875 27.296875 
Q 55.71875 13.875 49.015625 6.21875 
Q 42.328125 -1.421875 30.609375 -1.421875 
Q 18.84375 -1.421875 12.171875 6.21875 
Q 5.515625 13.875 5.515625 27.296875 
Q 5.515625 40.765625 12.171875 48.375 
Q 18.84375 56 30.609375 56 
z
" id="DejaVuSans-111"/>
      <path d="M 8.5 21.578125 
L 8.5 54.6875 
L 17.484375 54.6875 
L 17.484375 21.921875 
Q 17.484375 14.15625 20.5 10.265625 
Q 23.53125 6.390625 29.59375 6.390625 
Q 36.859375 6.390625 41.078125 11.03125 
Q 45.3125 15.671875 45.3125 23.6875 
L 45.3125 54.6875 
L 54.296875 54.6875 
L 54.296875 0 
L 45.3125 0 
L 45.3125 8.40625 
Q 42.046875 3.421875 37.71875 1 
Q 33.40625 -1.421875 27.6875 -1.421875 
Q 18.265625 -1.421875 13.375 4.4375 
Q 8.5 10.296875 8.5 21.578125 
z
M 31.109375 56 
z
" id="DejaVuSans-117"/>
      <path d="M 41.109375 46.296875 
Q 39.59375 47.171875 37.8125 47.578125 
Q 36.03125 48 33.890625 48 
Q 26.265625 48 22.1875 43.046875 
Q 18.109375 38.09375 18.109375 28.8125 
L 18.109375 0 
L 9.078125 0 
L 9.078125 54.6875 
L 18.109375 54.6875 
L 18.109375 46.1875 
Q 20.953125 51.171875 25.484375 53.578125 
Q 30.03125 56 36.53125 56 
Q 37.453125 56 38.578125 55.875 
Q 39.703125 55.765625 41.0625 55.515625 
z
" id="DejaVuSans-114"/>
      <path d="M 44.28125 53.078125 
L 44.28125 44.578125 
Q 40.484375 46.53125 36.375 47.5 
Q 32.28125 48.484375 27.875 48.484375 
Q 21.1875 48.484375 17.84375 46.4375 
Q 14.5 44.390625 14.5 40.28125 
Q 14.5 37.15625 16.890625 35.375 
Q 19.28125 33.59375 26.515625 31.984375 
L 29.59375 31.296875 
Q 39.15625 29.25 43.1875 25.515625 
Q 47.21875 21.78125 47.21875 15.09375 
Q 47.21875 7.46875 41.1875 3.015625 
Q 35.15625 -1.421875 24.609375 -1.421875 
Q 20.21875 -1.421875 15.453125 -0.5625 
Q 10.6875 0.296875 5.421875 2 
L 5.421875 11.28125 
Q 10.40625 8.6875 15.234375 7.390625 
Q 20.0625 6.109375 24.8125 6.109375 
Q 31.15625 6.109375 34.5625 8.28125 
Q 37.984375 10.453125 37.984375 14.40625 
Q 37.984375 18.0625 35.515625 20.015625 
Q 33.0625 21.96875 24.703125 23.78125 
L 21.578125 24.515625 
Q 13.234375 26.265625 9.515625 29.90625 
Q 5.8125 33.546875 5.8125 39.890625 
Q 5.8125 47.609375 11.28125 51.796875 
Q 16.75 56 26.8125 56 
Q 31.78125 56 36.171875 55.265625 
Q 40.578125 54.546875 44.28125 53.078125 
z
" id="DejaVuSans-115"/>
     </defs>
     <g transform="translate(221.511562 335.860562)scale(0.1 -0.1)">
      <use xlink:href="#DejaVuSans-72"/>
      <use x="75.195312" xlink:href="#DejaVuSans-111"/>
      <use x="136.376953" xlink:href="#DejaVuSans-117"/>
      <use x="199.755859" xlink:href="#DejaVuSans-114"/>
      <use x="240.869141" xlink:href="#DejaVuSans-115"/>
     </g>
    </g>
   </g>
   <g id="matplotlib.axis_2">
    <g id="ytick_1">
     <g id="line2d_19">
      <path clip-path="url(#p782a7a715e)" d="M 57.6 299.110554 
L 414.72 299.110554 
" style="fill:none;stroke:#b0b0b0;stroke-linecap:square;stroke-width:0.8;"/>
     </g>
     <g id="line2d_20">
      <defs>
       <path d="M 0 0 
L -3.5 0 
" id="mddfcc15f5b" style="stroke:#000000;stroke-width:0.8;"/>
      </defs>
      <g>
       <use style="stroke:#000000;stroke-width:0.8;" x="57.6" xlink:href="#mddfcc15f5b" y="299.110554"/>
      </g>
     </g>
     <g id="text_11">
      <!-- 242.5 -->
      <g transform="translate(21.971875 302.909772)scale(0.1 -0.1)">
       <use xlink:href="#DejaVuSans-50"/>
       <use x="63.623047" xlink:href="#DejaVuSans-52"/>
       <use x="127.246094" xlink:href="#DejaVuSans-50"/>
       <use x="190.869141" xlink:href="#DejaVuSans-46"/>
       <use x="222.65625" xlink:href="#DejaVuSans-53"/>
      </g>
     </g>
    </g>
    <g id="ytick_2">
     <g id="line2d_21">
      <path clip-path="url(#p782a7a715e)" d="M 57.6 268.584441 
L 414.72 268.584441 
" style="fill:none;stroke:#b0b0b0;stroke-linecap:square;stroke-width:0.8;"/>
     </g>
     <g id="line2d_22">
      <g>
       <use style="stroke:#000000;stroke-width:0.8;" x="57.6" xlink:href="#mddfcc15f5b" y="268.584441"/>
      </g>
     </g>
     <g id="text_12">
      <!-- 245.0 -->
      <g transform="translate(21.971875 272.38366)scale(0.1 -0.1)">
       <use xlink:href="#DejaVuSans-50"/>
       <use x="63.623047" xlink:href="#DejaVuSans-52"/>
       <use x="127.246094" xlink:href="#DejaVuSans-53"/>
       <use x="190.869141" xlink:href="#DejaVuSans-46"/>
       <use x="222.65625" xlink:href="#DejaVuSans-48"/>
      </g>
     </g>
    </g>
    <g id="ytick_3">
     <g id="line2d_23">
      <path clip-path="url(#p782a7a715e)" d="M 57.6 238.058329 
L 414.72 238.058329 
" style="fill:none;stroke:#b0b0b0;stroke-linecap:square;stroke-width:0.8;"/>
     </g>
     <g id="line2d_24">
      <g>
       <use style="stroke:#000000;stroke-width:0.8;" x="57.6" xlink:href="#mddfcc15f5b" y="238.058329"/>
      </g>
     </g>
     <g id="text_13">
      <!-- 247.5 -->
      <g transform="translate(21.971875 241.857548)scale(0.1 -0.1)">
       <use xlink:href="#DejaVuSans-50"/>
       <use x="63.623047" xlink:href="#DejaVuSans-52"/>
       <use x="127.246094" xlink:href="#DejaVuSans-55"/>
       <use x="190.869141" xlink:href="#DejaVuSans-46"/>
       <use x="222.65625" xlink:href="#DejaVuSans-53"/>
      </g>
     </g>
    </g>
    <g id="ytick_4">
     <g id="line2d_25">
      <path clip-path="url(#p782a7a715e)" d="M 57.6 207.532216 
L 414.72 207.532216 
" style="fill:none;stroke:#b0b0b0;stroke-linecap:square;stroke-width:0.8;"/>
     </g>
     <g id="line2d_26">
      <g>
       <use style="stroke:#000000;stroke-width:0.8;" x="57.6" xlink:href="#mddfcc15f5b" y="207.532216"/>
      </g>
     </g>
     <g id="text_14">
      <!-- 250.0 -->
      <g transform="translate(21.971875 211.331435)scale(0.1 -0.1)">
       <use xlink:href="#DejaVuSans-50"/>
       <use x="63.623047" xlink:href="#DejaVuSans-53"/>
       <use x="127.246094" xlink:href="#DejaVuSans-48"/>
       <use x="190.869141" xlink:href="#DejaVuSans-46"/>
       <use x="222.65625" xlink:href="#DejaVuSans-48"/>
      </g>
     </g>
    </g>
    <g id="ytick_5">
     <g id="line2d_27">
      <path clip-path="url(#p782a7a715e)" d="M 57.6 177.006104 
L 414.72 177.006104 
" style="fill:none;stroke:#b0b0b0;stroke-linecap:square;stroke-width:0.8;"/>
     </g>
     <g id="line2d_28">
      <g>
       <use style="stroke:#000000;stroke-width:0.8;" x="57.6" xlink:href="#mddfcc15f5b" y="177.006104"/>
      </g>
     </g>
     <g id="text_15">
      <!-- 252.5 -->
      <g transform="translate(21.971875 180.805323)scale(0.1 -0.1)">
       <use xlink:href="#DejaVuSans-50"/>
       <use x="63.623047" xlink:href="#DejaVuSans-53"/>
       <use x="127.246094" xlink:href="#DejaVuSans-50"/>
       <use x="190.869141" xlink:href="#DejaVuSans-46"/>
       <use x="222.65625" xlink:href="#DejaVuSans-53"/>
      </g>
     </g>
    </g>
    <g id="ytick_6">
     <g id="line2d_29">
      <path clip-path="url(#p782a7a715e)" d="M 57.6 146.479992 
L 414.72 146.479992 
" style="fill:none;stroke:#b0b0b0;stroke-linecap:square;stroke-width:0.8;"/>
     </g>
     <g id="line2d_30">
      <g>
       <use style="stroke:#000000;stroke-width:0.8;" x="57.6" xlink:href="#mddfcc15f5b" y="146.479992"/>
      </g>
     </g>
     <g id="text_16">
      <!-- 255.0 -->
      <g transform="translate(21.971875 150.27921)scale(0.1 -0.1)">
       <use xlink:href="#DejaVuSans-50"/>
       <use x="63.623047" xlink:href="#DejaVuSans-53"/>
       <use x="127.246094" xlink:href="#DejaVuSans-53"/>
       <use x="190.869141" xlink:href="#DejaVuSans-46"/>
       <use x="222.65625" xlink:href="#DejaVuSans-48"/>
      </g>
     </g>
    </g>
    <g id="ytick_7">
     <g id="line2d_31">
      <path clip-path="url(#p782a7a715e)" d="M 57.6 115.953879 
L 414.72 115.953879 
" style="fill:none;stroke:#b0b0b0;stroke-linecap:square;stroke-width:0.8;"/>
     </g>
     <g id="line2d_32">
      <g>
       <use style="stroke:#000000;stroke-width:0.8;" x="57.6" xlink:href="#mddfcc15f5b" y="115.953879"/>
      </g>
     </g>
     <g id="text_17">
      <!-- 257.5 -->
      <g transform="translate(21.971875 119.753098)scale(0.1 -0.1)">
       <use xlink:href="#DejaVuSans-50"/>
       <use x="63.623047" xlink:href="#DejaVuSans-53"/>
       <use x="127.246094" xlink:href="#DejaVuSans-55"/>
       <use x="190.869141" xlink:href="#DejaVuSans-46"/>
       <use x="222.65625" xlink:href="#DejaVuSans-53"/>
      </g>
     </g>
    </g>
    <g id="ytick_8">
     <g id="line2d_33">
      <path clip-path="url(#p782a7a715e)" d="M 57.6 85.427767 
L 414.72 85.427767 
" style="fill:none;stroke:#b0b0b0;stroke-linecap:square;stroke-width:0.8;"/>
     </g>
     <g id="line2d_34">
      <g>
       <use style="stroke:#000000;stroke-width:0.8;" x="57.6" xlink:href="#mddfcc15f5b" y="85.427767"/>
      </g>
     </g>
     <g id="text_18">
      <!-- 260.0 -->
      <g transform="translate(21.971875 89.226985)scale(0.1 -0.1)">
       <use xlink:href="#DejaVuSans-50"/>
       <use x="63.623047" xlink:href="#DejaVuSans-54"/>
       <use x="127.246094" xlink:href="#DejaVuSans-48"/>
       <use x="190.869141" xlink:href="#DejaVuSans-46"/>
       <use x="222.65625" xlink:href="#DejaVuSans-48"/>
      </g>
     </g>
    </g>
    <g id="ytick_9">
     <g id="line2d_35">
      <path clip-path="url(#p782a7a715e)" d="M 57.6 54.901654 
L 414.72 54.901654 
" style="fill:none;stroke:#b0b0b0;stroke-linecap:square;stroke-width:0.8;"/>
     </g>
     <g id="line2d_36">
      <g>
       <use style="stroke:#000000;stroke-width:0.8;" x="57.6" xlink:href="#mddfcc15f5b" y="54.901654"/>
      </g>
     </g>
     <g id="text_19">
      <!-- 262.5 -->
      <g transform="translate(21.971875 58.700873)scale(0.1 -0.1)">
       <use xlink:href="#DejaVuSans-50"/>
       <use x="63.623047" xlink:href="#DejaVuSans-54"/>
       <use x="127.246094" xlink:href="#DejaVuSans-50"/>
       <use x="190.869141" xlink:href="#DejaVuSans-46"/>
       <use x="222.65625" xlink:href="#DejaVuSans-53"/>
      </g>
     </g>
    </g>
    <g id="text_20">
     <!-- FPS -->
     <defs>
      <path d="M 9.8125 72.90625 
L 51.703125 72.90625 
L 51.703125 64.59375 
L 19.671875 64.59375 
L 19.671875 43.109375 
L 48.578125 43.109375 
L 48.578125 34.8125 
L 19.671875 34.8125 
L 19.671875 0 
L 9.8125 0 
z
" id="DejaVuSans-70"/>
      <path d="M 19.671875 64.796875 
L 19.671875 37.40625 
L 32.078125 37.40625 
Q 38.96875 37.40625 42.71875 40.96875 
Q 46.484375 44.53125 46.484375 51.125 
Q 46.484375 57.671875 42.71875 61.234375 
Q 38.96875 64.796875 32.078125 64.796875 
z
M 9.8125 72.90625 
L 32.078125 72.90625 
Q 44.34375 72.90625 50.609375 67.359375 
Q 56.890625 61.8125 56.890625 51.125 
Q 56.890625 40.328125 50.609375 34.8125 
Q 44.34375 29.296875 32.078125 29.296875 
L 19.671875 29.296875 
L 19.671875 0 
L 9.8125 0 
z
" id="DejaVuSans-80"/>
      <path d="M 53.515625 70.515625 
L 53.515625 60.890625 
Q 47.90625 63.578125 42.921875 64.890625 
Q 37.9375 66.21875 33.296875 66.21875 
Q 25.25 66.21875 20.875 63.09375 
Q 16.5 59.96875 16.5 54.203125 
Q 16.5 49.359375 19.40625 46.890625 
Q 22.3125 44.4375 30.421875 42.921875 
L 36.375 41.703125 
Q 47.40625 39.59375 52.65625 34.296875 
Q 57.90625 29 57.90625 20.125 
Q 57.90625 9.515625 50.796875 4.046875 
Q 43.703125 -1.421875 29.984375 -1.421875 
Q 24.8125 -1.421875 18.96875 -0.25 
Q 13.140625 0.921875 6.890625 3.21875 
L 6.890625 13.375 
Q 12.890625 10.015625 18.65625 8.296875 
Q 24.421875 6.59375 29.984375 6.59375 
Q 38.421875 6.59375 43.015625 9.90625 
Q 47.609375 13.234375 47.609375 19.390625 
Q 47.609375 24.75 44.3125 27.78125 
Q 41.015625 30.8125 33.5 32.328125 
L 27.484375 33.5 
Q 16.453125 35.6875 11.515625 40.375 
Q 6.59375 45.0625 6.59375 53.421875 
Q 6.59375 63.09375 13.40625 68.65625 
Q 20.21875 74.21875 32.171875 74.21875 
Q 37.3125 74.21875 42.625 73.28125 
Q 47.953125 72.359375 53.515625 70.515625 
z
" id="DejaVuSans-83"/>
     </defs>
     <g transform="translate(15.892188 183.592844)rotate(-90)scale(0.1 -0.1)">
      <use xlink:href="#DejaVuSans-70"/>
      <use x="57.519531" xlink:href="#DejaVuSans-80"/>
      <use x="117.822266" xlink:href="#DejaVuSans-83"/>
     </g>
    </g>
   </g>
   <g id="line2d_37">
    <path clip-path="url(#p782a7a715e)" d="M 57.6 232.683281 
L 57.813924 232.683281 
L 58.577385 257.155036 
L 59.931183 257.155036 
L 60.12294 256.581367 
L 60.318376 257.767831 
L 60.509218 256.737873 
L 61.477044 256.737873 
L 63.024833 264.660427 
L 63.215667 264.660427 
L 63.59701 263.817531 
L 64.173608 261.183387 
L 64.364883 261.183387 
L 64.746692 259.818431 
L 65.14825 259.818431 
L 65.339721 260.838515 
L 66.305309 258.037431 
L 66.878792 257.348432 
L 67.070346 256.25848 
L 67.659244 256.25848 
L 68.23613 255.258891 
L 68.426414 255.258891 
L 68.810927 254.257999 
L 69.192322 254.257999 
L 69.38375 253.090166 
L 69.573846 253.090166 
L 69.769075 251.87091 
L 70.370428 254.093295 
L 70.581071 254.093295 
L 70.772408 256.018691 
L 71.349698 256.018691 
L 71.925073 255.186973 
L 72.884323 253.201397 
L 73.076948 253.201397 
L 73.271631 263.63196 
L 73.668197 263.63196 
L 73.860472 263.859639 
L 76.355269 262.190242 
L 76.740566 261.469942 
L 76.937942 260.773118 
L 77.156208 260.773118 
L 78.550353 275.581375 
L 79.702598 275.49511 
L 79.893971 275.49511 
L 80.664794 273.011324 
L 81.067182 273.011324 
L 81.650988 273.732742 
L 81.875904 273.732742 
L 82.451311 293.516584 
L 83.216416 291.475299 
L 84.170884 291.475299 
L 84.372492 289.664116 
L 84.563461 289.664116 
L 84.759072 295.353293 
L 84.951396 295.353293 
L 85.339744 294.064914 
L 86.327112 294.064914 
L 86.522135 293.846737 
L 86.715817 295.488 
L 87.102137 293.7424 
L 88.446343 293.7424 
L 89.244408 287.74375 
L 90.774774 287.74375 
L 90.967633 285.962564 
L 91.540808 285.962564 
L 91.742659 284.503146 
L 92.514892 284.584193 
L 93.088458 284.584193 
L 93.471157 283.144152 
L 93.663088 281.660141 
L 95.048888 282.35212 
L 95.82844 281.755348 
L 96.598556 283.512687 
L 96.789521 283.512687 
L 96.981603 282.074136 
L 98.162939 279.153437 
L 99.129855 279.153437 
L 99.710441 279.341989 
L 99.901672 278.375006 
L 100.282973 278.375006 
L 100.476649 280.532366 
L 101.621939 280.532366 
L 101.832547 279.64848 
L 102.023491 279.64848 
L 102.612918 279.190141 
L 102.806634 281.528787 
L 104.144618 281.528787 
L 104.529634 279.861813 
L 105.100548 279.861813 
L 106.055213 275.739185 
L 107.618437 275.739185 
L 108.387908 272.544228 
L 110.516575 272.544228 
L 111.283047 269.537264 
L 113.221755 269.537264 
L 113.805988 269.113767 
L 114.953174 265.036787 
L 116.697481 265.036787 
L 117.279209 264.334001 
L 118.044563 269.11004 
L 118.425265 269.11004 
L 118.616775 267.539019 
L 119.966847 267.539019 
L 120.542009 266.542411 
L 120.751758 271.177782 
L 121.132138 271.177782 
L 122.278558 269.796244 
L 122.664165 268.383219 
L 124.037743 268.383219 
L 125.008586 267.311899 
L 125.96133 267.311899 
L 126.15613 270.102363 
L 127.300752 270.102363 
L 127.68322 268.664744 
L 128.262355 268.664744 
L 128.454634 267.703536 
L 130.014512 267.703536 
L 130.400915 266.391122 
L 131.549759 266.391122 
L 131.745615 265.387248 
L 132.132324 264.786377 
L 132.70665 264.786377 
L 133.668284 263.694376 
L 134.466202 265.637844 
L 135.040082 265.637844 
L 135.627304 265.202609 
L 136.972374 264.00981 
L 137.16453 263.233056 
L 137.93225 261.548754 
L 138.317466 261.548754 
L 138.701881 260.753182 
L 139.092532 260.753182 
L 139.512498 263.98298 
L 139.893473 263.98298 
L 141.616592 261.526582 
L 141.812845 261.526582 
L 142.006452 260.618661 
L 142.784799 260.618661 
L 143.370531 261.358338 
L 143.952925 260.975085 
L 145.150703 260.975085 
L 145.348235 261.8858 
L 145.926994 261.8858 
L 146.336217 266.131024 
L 147.495649 266.131024 
L 147.92252 265.466247 
L 148.308389 270.280854 
L 148.501728 270.280854 
L 149.276947 268.936766 
L 150.836835 268.756784 
L 151.224915 267.900659 
L 152.799613 267.900659 
L 154.167125 268.222614 
L 154.748971 267.960094 
L 154.947711 267.481074 
L 155.529613 268.387505 
L 160.986115 268.311115 
L 161.180502 267.797813 
L 161.373681 267.797813 
L 161.56822 267.199177 
L 162.180629 267.219858 
L 162.758281 269.954986 
L 164.705639 269.954986 
L 165.091722 269.510994 
L 166.830453 269.510994 
L 167.026492 268.809139 
L 167.833014 268.809139 
L 168.037062 270.580637 
L 169.966359 270.580637 
L 170.353383 270.041623 
L 173.099002 270.102549 
L 173.485523 269.622784 
L 173.871979 269.622784 
L 174.260518 268.839695 
L 178.953888 268.75697 
L 179.342557 269.218663 
L 179.731175 268.571585 
L 180.506751 268.571585 
L 181.088571 268.073934 
L 184.999853 268.175104 
L 185.603159 268.614438 
L 185.99242 268.232117 
L 186.38985 268.232117 
L 186.970081 268.855532 
L 193.829756 268.821063 
L 194.215975 269.495902 
L 198.705392 269.495902 
L 200.06101 269.276421 
L 200.254208 268.614252 
L 200.449693 268.614252 
L 200.660256 268.423091 
L 201.042072 271.675993 
L 205.288003 271.675993 
L 205.480619 270.739565 
L 207.204392 270.739565 
L 207.397161 269.472426 
L 207.990869 268.838205 
L 211.658553 268.838205 
L 212.043567 268.050085 
L 214.946998 268.050085 
L 215.140152 267.449773 
L 216.684784 267.448283 
L 216.878105 266.181889 
L 217.454058 265.449664 
L 218.059646 265.449664 
L 218.25191 265.883596 
L 221.331574 265.883596 
L 221.715777 264.934313 
L 222.293031 264.934313 
L 223.105847 266.480927 
L 226.222568 266.480927 
L 226.41455 266.175927 
L 227.975425 266.175927 
L 228.35869 265.795468 
L 228.933976 264.529074 
L 231.448779 264.529074 
L 232.445709 264.005897 
L 235.748747 264.026765 
L 235.979816 271.056676 
L 236.363293 271.056676 
L 237.515255 269.647191 
L 241.002913 269.647191 
L 241.386504 268.981296 
L 241.957739 268.981296 
L 242.342395 267.400399 
L 243.868838 267.400399 
L 244.280747 266.191391 
L 248.522979 266.191391 
L 250.086049 265.608592 
L 250.850298 265.608592 
L 251.233653 265.282725 
L 252.583029 265.282725 
L 252.966427 264.335305 
L 253.159574 264.335305 
L 253.351198 263.656367 
L 255.879922 263.656367 
L 256.074711 263.35882 
L 257.996124 263.35882 
L 258.189062 262.40432 
L 259.388378 262.40432 
L 260.354187 262.977243 
L 260.739379 262.383266 
L 263.280467 262.383266 
L 263.667436 268.628412 
L 265.59052 268.628412 
L 265.974955 267.586902 
L 266.384298 268.650025 
L 268.890546 268.650025 
L 270.058367 267.626029 
L 272.382723 267.626029 
L 272.955361 266.87331 
L 273.349772 265.466992 
L 275.27348 265.466992 
L 275.466072 264.837055 
L 282.25 264.771099 
L 282.633357 263.798154 
L 286.133315 263.697357 
L 286.32619 263.037796 
L 287.09638 263.037796 
L 287.483105 279.476137 
L 290.758643 279.476137 
L 291.140719 278.313708 
L 291.540592 278.313708 
L 291.926198 277.556704 
L 293.28641 277.556704 
L 294.247549 276.772497 
L 295.791672 276.772497 
L 295.984065 275.680868 
L 296.565759 275.680868 
L 296.950969 274.398637 
L 298.675216 274.398637 
L 299.072954 273.405942 
L 300.231444 273.405942 
L 300.615003 272.44753 
L 301.766435 272.44753 
L 301.959321 271.213928 
L 303.903624 271.12375 
L 304.679354 270.56331 
L 305.259986 270.56331 
L 305.453424 269.968028 
L 306.047675 269.968028 
L 306.436253 271.201631 
L 307.796128 271.201631 
L 308.182194 270.670815 
L 309.533111 270.670815 
L 309.737321 270.181547 
L 310.121747 270.181547 
L 310.895483 268.640523 
L 311.289312 268.640523 
L 311.483079 268.317263 
L 312.835522 268.317263 
L 313.626586 271.542217 
L 313.818585 271.542217 
L 314.012451 270.661499 
L 314.794983 270.661499 
L 315.180002 270.379974 
L 316.72535 270.379974 
L 317.318933 269.995417 
L 317.705498 269.094762 
L 318.093734 269.094762 
L 318.28733 268.840068 
L 318.489091 268.840068 
L 318.682261 269.105196 
L 321.01079 269.105196 
L 321.204366 268.58705 
L 321.593996 268.061078 
L 324.69298 268.067413 
L 324.887242 270.711245 
L 326.04691 270.711245 
L 326.241899 269.963929 
L 326.626288 269.065883 
L 328.37204 269.065883 
L 329.14316 268.507679 
L 330.692877 266.371 
L 331.473546 266.371 
L 332.250858 266.199216 
L 332.635079 266.199216 
L 332.829624 265.433455 
L 333.214002 265.433455 
L 333.409987 264.808549 
L 333.794099 264.808549 
L 334.186959 264.488084 
L 334.961695 264.488084 
L 335.367242 264.030118 
L 336.526253 264.129425 
L 338.078224 263.348386 
L 338.867999 263.91721 
L 340.022539 263.91721 
L 340.988565 262.658828 
L 341.182008 262.658828 
L 341.958727 262.046033 
L 344.30568 262.057771 
L 344.882851 261.435287 
L 345.073732 261.435287 
L 345.651425 260.418185 
L 345.843704 259.697139 
L 346.427033 259.697139 
L 347.964475 258.920944 
L 348.354964 258.920944 
L 348.738673 258.616689 
L 348.929315 258.616689 
L 349.127304 258.381744 
L 352.250272 258.409692 
L 352.44534 271.315284 
L 352.643676 270.799559 
L 354.7845 270.799559 
L 355.754531 270.592934 
L 356.144232 269.304369 
L 359.067029 269.344799 
L 359.645725 268.573076 
L 361.00962 268.591521 
L 361.402657 268.591521 
L 362.944051 268.351359 
L 363.137621 266.36951 
L 363.331622 266.432671 
L 365.855393 266.432671 
L 366.048566 265.978431 
L 366.433132 265.978431 
L 366.627661 265.235028 
L 367.014309 265.235028 
L 367.403318 264.263759 
L 369.353914 264.263759 
L 369.556197 264.411136 
L 369.942614 264.411136 
L 370.138185 263.950002 
L 370.528213 263.580723 
L 372.663032 263.616868 
L 373.053674 263.247588 
L 373.447354 263.533584 
L 373.834332 263.533584 
L 374.22456 263.095182 
L 374.609509 263.095182 
L 374.997257 262.578153 
L 376.545346 262.578153 
L 377.131991 276.7779 
L 377.712677 276.7779 
L 377.90727 276.213734 
L 378.688389 276.213734 
L 378.893715 276.569412 
L 379.66836 276.569412 
L 380.444069 277.064083 
L 381.221727 277.064083 
L 381.805027 276.554507 
L 381.999297 275.794335 
L 383.170167 275.794335 
L 383.364927 275.446482 
L 383.557577 275.446482 
L 383.753343 274.867596 
L 384.530625 274.867596 
L 384.918446 274.254987 
L 385.111971 274.254987 
L 385.498644 273.582757 
L 386.472849 273.582757 
L 387.053731 273.067778 
L 388.408167 273.163544 
L 388.603892 272.261399 
L 388.990632 271.955654 
L 390.359269 271.955654 
L 391.138721 271.293857 
L 391.922667 271.422975 
L 392.119886 270.909673 
L 394.067277 270.909673 
L 394.264204 273.002008 
L 395.633228 272.977042 
L 395.830333 272.564164 
L 397.585766 272.564164 
L 398.173273 275.128998 
L 398.948929 275.128998 
L 399.539423 274.635073 
L 399.733918 276.65195 
L 400.516891 276.65195 
L 401.097088 276.165478 
L 401.291573 275.740676 
L 402.835621 275.740676 
L 403.03141 274.890327 
L 403.226561 275.055403 
L 403.226561 275.055403 
" style="fill:none;stroke:#000000;stroke-linecap:square;stroke-width:0.8;"/>
   </g>
   <g id="line2d_38">
    <path clip-path="url(#p782a7a715e)" d="M 57.6 94.522998 
L 58.06067 94.522998 
L 58.76945 95.381545 
L 59.231846 97.175029 
L 59.700539 97.230551 
L 59.934491 98.319013 
L 60.860287 98.405836 
L 61.095144 99.070241 
L 61.556932 99.070241 
L 61.79006 100.908441 
L 62.498351 100.908441 
L 62.962203 101.680909 
L 63.196287 102.337116 
L 64.357241 104.168609 
L 64.596877 104.168609 
L 64.829409 105.107272 
L 65.292523 105.018585 
L 65.756283 104.991755 
L 66.460162 105.715782 
L 66.691972 106.131268 
L 67.386013 105.875641 
L 67.616109 105.875641 
L 68.079038 105.485867 
L 68.310867 105.485867 
L 69.002857 105.320045 
L 69.715359 114.496883 
L 70.644464 114.485704 
L 71.345134 122.23014 
L 71.578289 122.868088 
L 72.506042 122.868088 
L 72.73953 122.550605 
L 72.973654 122.483158 
L 73.216335 123.073409 
L 73.449351 123.073409 
L 73.915291 124.658964 
L 74.611448 124.658964 
L 75.086701 129.790495 
L 75.784212 129.790495 
L 76.48017 129.568406 
L 76.960989 147.171785 
L 78.128305 147.171785 
L 78.59094 146.623455 
L 78.824197 146.055003 
L 79.057612 146.055003 
L 79.294032 147.949843 
L 80.711866 147.997354 
L 81.180681 150.155459 
L 81.651755 150.891596 
L 83.043911 150.891596 
L 83.745782 148.878073 
L 85.182877 148.788827 
L 85.416217 150.25607 
L 86.349229 148.742248 
L 86.812999 148.742248 
L 87.046484 147.906431 
L 87.511659 147.906431 
L 87.747113 147.359779 
L 88.446989 146.596998 
L 89.382569 146.596998 
L 89.848238 146.25194 
L 90.31169 145.638586 
L 90.773901 145.638586 
L 91.00832 144.85736 
L 91.240288 145.569462 
L 91.482321 144.926297 
L 92.413105 144.985732 
L 92.64517 144.327848 
L 93.108325 143.417133 
L 93.343135 142.544053 
L 94.042746 142.544053 
L 94.27505 142.300351 
L 94.969887 142.300351 
L 95.213604 142.420712 
L 95.676908 141.566636 
L 97.532628 141.586013 
L 98.461943 140.385948 
L 98.700736 139.911959 
L 98.931281 139.911959 
L 99.406834 140.647164 
L 100.100652 140.704549 
L 100.563097 140.704549 
L 100.794597 139.778183 
L 101.255802 139.778183 
L 101.952193 138.359755 
L 102.66137 138.869145 
L 103.599001 139.162221 
L 104.531199 138.185735 
L 105.694074 138.185735 
L 105.935886 137.540148 
L 106.169062 139.916989 
L 107.338287 139.916989 
L 107.572164 139.692291 
L 109.212792 139.79756 
L 109.446112 139.408717 
L 109.930903 139.408717 
L 110.172736 141.248967 
L 111.800297 141.248967 
L 112.033057 140.704177 
L 112.965719 140.704177 
L 113.438206 140.44501 
L 115.777008 140.260743 
L 116.010322 140.260743 
L 116.247269 140.118025 
L 118.126228 140.118025 
L 118.361525 141.861203 
L 118.827778 141.861203 
L 119.29466 141.601478 
L 119.762473 141.601478 
L 120.228435 141.253252 
L 121.425277 141.253252 
L 121.662755 142.397049 
L 123.761077 142.397049 
L 124.956618 148.066291 
L 126.593558 147.966612 
L 126.827944 147.489082 
L 128.244274 147.489082 
L 129.173305 147.364064 
L 129.408916 147.551871 
L 129.872629 147.551871 
L 130.571556 146.873492 
L 133.147738 146.808468 
L 133.381731 146.25902 
L 134.77216 146.25902 
L 135.248257 145.486365 
L 135.723739 146.312493 
L 136.650809 146.312493 
L 137.114889 145.616787 
L 137.811187 145.616787 
L 138.044847 159.531283 
L 141.318964 159.531283 
L 141.552758 168.19426 
L 142.736039 168.19426 
L 142.969385 168.062721 
L 143.200566 168.062721 
L 143.432914 166.846819 
L 143.90002 166.046589 
L 145.757059 166.046589 
L 146.003358 165.294429 
L 146.707835 165.294429 
L 147.172403 164.91602 
L 147.636109 164.91602 
L 147.869325 163.795884 
L 148.568196 163.795884 
L 148.800444 162.871195 
L 149.262995 162.871195 
L 150.682874 162.415837 
L 151.148566 162.415837 
L 151.382354 162.098167 
L 151.613313 162.098167 
L 152.313272 160.428398 
L 152.778557 159.741076 
L 154.671447 159.800697 
L 155.371005 159.124182 
L 157.478653 159.124182 
L 157.943669 158.314636 
L 158.409262 158.314636 
L 159.104618 157.306663 
L 160.754033 157.300328 
L 161.219307 156.458177 
L 162.14866 156.458177 
L 162.383478 155.632049 
L 162.851755 155.632049 
L 163.550415 155.022608 
L 166.131941 155.022608 
L 166.366373 154.740897 
L 166.831386 154.740897 
L 167.064914 154.048172 
L 167.528245 153.106155 
L 168.240966 153.106155 
L 169.172599 153.467609 
L 170.10573 153.467609 
L 170.804121 152.806744 
L 172.454543 152.821091 
L 172.687011 152.179603 
L 174.081573 152.179603 
L 175.030005 150.580447 
L 177.826054 150.488407 
L 178.061087 150.963887 
L 181.578469 151.054437 
L 182.047887 150.475179 
L 184.157968 150.475179 
L 184.391934 150.251412 
L 185.08912 150.298923 
L 185.551602 150.298923 
L 185.794079 149.865551 
L 187.202942 149.865551 
L 187.66733 149.749848 
L 188.364232 149.749848 
L 189.059395 148.971604 
L 189.302035 148.216462 
L 192.105939 148.216462 
L 192.340065 148.005738 
L 193.291554 148.005738 
L 193.52609 148.555931 
L 193.993289 148.555931 
L 194.458609 148.293225 
L 194.692294 147.598636 
L 194.924262 147.598636 
L 195.860141 147.33593 
L 197.28288 147.33593 
L 197.751315 147.569198 
L 201.264153 147.569198 
L 202.661984 147.399278 
L 203.590307 147.399278 
L 203.824064 146.76841 
L 205.231471 146.76841 
L 205.696176 146.547997 
L 205.93349 145.894398 
L 208.73155 145.894398 
L 209.199957 145.263344 
L 210.839198 145.263344 
L 211.071885 145.047403 
L 211.544462 144.445973 
L 217.392478 144.388588 
L 217.627959 144.197613 
L 218.095304 144.197613 
L 218.328481 143.860194 
L 224.432047 143.86597 
L 224.666637 143.42589 
L 227.020337 143.427194 
L 227.253459 143.606431 
L 230.295569 143.606431 
L 230.528535 143.394589 
L 231.236306 143.394589 
L 231.702856 143.547368 
L 231.937234 143.187405 
L 233.585868 143.187405 
L 233.819996 143.416574 
L 236.15415 143.416574 
L 236.386815 143.046177 
L 237.785411 143.046177 
L 238.019301 142.614295 
L 238.250549 142.614295 
L 238.486237 142.271845 
L 239.886994 142.204398 
L 240.353025 141.642654 
L 245.737707 141.57912 
L 246.205397 140.90484 
L 247.615712 140.90484 
L 248.103674 141.566077 
L 250.432244 141.566077 
L 251.140522 141.149287 
L 251.388388 142.441579 
L 252.088137 142.441579 
L 252.554738 142.114221 
L 254.647775 142.114221 
L 255.141398 141.604831 
L 255.374091 141.604831 
L 255.608651 143.250752 
L 257.94092 143.250752 
L 258.407054 142.843837 
L 259.350444 142.843837 
L 260.301759 144.787864 
L 260.767546 144.787864 
L 261.001063 144.36269 
L 265.682129 144.273071 
L 266.173444 149.260581 
L 270.402814 149.211207 
L 270.637007 149.128855 
L 270.873699 149.544527 
L 272.052692 149.544527 
L 272.287203 149.709231 
L 273.929937 149.709231 
L 275.577643 149.387835 
L 275.812372 150.362643 
L 276.044796 150.362643 
L 276.278408 149.790651 
L 277.22254 149.364918 
L 278.156602 149.364918 
L 278.622594 149.235428 
L 279.559195 149.235428 
L 280.037469 148.856646 
L 280.275724 148.856646 
L 280.51444 150.427854 
L 280.747676 150.427854 
L 281.448418 150.194027 
L 282.382673 150.194027 
L 282.616192 149.686687 
L 283.801101 149.686687 
L 284.281068 150.487848 
L 284.981337 150.487848 
L 285.920376 150.028019 
L 286.624376 150.028019 
L 287.328026 149.797359 
L 287.58086 154.958888 
L 289.456847 154.910445 
L 290.618639 154.234675 
L 290.851009 154.234675 
L 291.328512 153.971223 
L 291.560895 153.971223 
L 292.035365 153.548844 
L 292.269094 155.675834 
L 292.732421 155.675834 
L 293.19729 154.7109 
L 294.831192 154.7109 
L 295.304105 154.346279 
L 295.53541 154.346279 
L 296.015956 154.807971 
L 296.711293 154.807971 
L 297.180165 154.455646 
L 299.532914 154.455646 
L 299.767954 159.046674 
L 301.624817 159.046674 
L 301.860473 158.10298 
L 303.264951 158.649633 
L 303.498452 158.130555 
L 303.729953 158.130555 
L 304.19476 157.162827 
L 305.124431 157.162827 
L 306.300249 156.332973 
L 306.532572 156.332973 
L 306.766955 156.173299 
L 307.000104 155.51113 
L 307.463014 155.51113 
L 307.930629 154.596315 
L 308.858703 154.596315 
L 309.094326 153.815835 
L 310.498225 153.81509 
L 310.732673 153.204717 
L 310.964552 153.204717 
L 311.198336 152.430012 
L 312.592732 152.430012 
L 313.071542 151.770265 
L 313.30471 151.770265 
L 313.537951 152.222083 
L 315.182017 152.122963 
L 315.649122 156.606672 
L 316.580602 156.606672 
L 317.289646 156.212798 
L 318.455591 156.212798 
L 318.691576 155.613231 
L 319.39157 154.739966 
L 320.092307 154.070903 
L 320.804426 154.070903 
L 321.041591 154.21623 
L 322.209811 154.21623 
L 322.676625 153.781926 
L 323.142146 153.781926 
L 323.846311 153.507854 
L 324.089401 153.762362 
L 325.253684 153.762362 
L 325.720523 153.335138 
L 327.12027 153.335138 
L 327.353609 152.7311 
L 327.588583 152.7311 
L 327.831607 153.634177 
L 328.064075 153.634177 
L 328.301011 152.996601 
L 328.532509 152.996601 
L 328.765932 152.754576 
L 330.627268 152.754576 
L 331.092769 152.008564 
L 331.339028 152.008564 
L 332.274355 154.708292 
L 332.971621 153.862228 
L 333.904366 153.668831 
L 335.783438 153.668831 
L 336.25077 153.282411 
L 336.484205 153.282411 
L 336.720373 152.871769 
L 336.954858 176.629931 
L 337.188802 176.629931 
L 337.422766 175.628293 
L 340.698215 175.628293 
L 341.164739 173.748544 
L 341.400395 173.748544 
L 341.633719 173.240273 
L 341.8678 172.320241 
L 344.212068 172.320241 
L 344.679352 171.644471 
L 344.91299 171.644471 
L 345.15068 171.024223 
L 345.861661 171.024223 
L 346.09804 171.313573 
L 346.568972 171.404123 
L 348.675921 171.404123 
L 349.14376 170.648236 
L 349.378088 170.038049 
L 350.322198 170.038049 
L 350.790892 169.192731 
L 351.26222 169.266326 
L 353.151785 169.266326 
L 353.390462 169.117832 
L 353.624944 168.551429 
L 354.32582 168.551429 
L 354.564446 167.860008 
L 355.733298 167.860008 
L 356.68723 166.924326 
L 357.39285 166.924326 
L 357.628698 167.342607 
L 358.335209 167.342607 
L 358.804792 166.977799 
L 359.040288 167.12648 
L 360.46169 167.12648 
L 360.930565 166.696088 
L 361.627924 166.696088 
L 361.863962 165.84723 
L 362.793661 165.84723 
L 363.262541 164.55736 
L 364.915339 164.55736 
L 365.400841 167.786227 
L 365.869747 167.786227 
L 366.105338 167.579043 
L 367.056719 167.579043 
L 367.525955 167.340744 
L 368.948239 167.340744 
L 370.359284 166.965875 
L 370.594365 166.682115 
L 371.304638 166.133971 
L 371.776004 168.324868 
L 373.889135 168.324868 
L 374.593447 167.372231 
L 374.83495 167.372231 
L 375.54953 183.133684 
L 378.619178 183.133684 
L 379.089594 182.924824 
L 379.558848 181.551111 
L 380.499637 181.460002 
L 382.842252 181.460002 
L 383.309976 180.509601 
L 383.545457 183.397509 
L 384.244674 182.077269 
L 384.711848 182.077269 
L 385.409604 181.06557 
L 386.362452 181.06557 
L 387.544471 180.662008 
L 388.962963 180.77119 
L 391.565428 180.798765 
L 391.805037 181.480311 
L 392.039455 181.480311 
L 392.512435 180.504198 
L 393.941735 180.504198 
L 393.941735 180.504198 
" style="fill:none;stroke:#000000;stroke-dasharray:0.8,1.32;stroke-dashoffset:0;stroke-width:0.8;"/>
   </g>
   <g id="line2d_39">
    <path clip-path="url(#p782a7a715e)" d="M 57.6 53.568 
L 58.154699 56.87512 
L 58.995737 56.87512 
L 59.550201 58.937645 
L 60.105388 58.937645 
L 60.384542 60.854097 
L 60.660284 60.854097 
L 60.940397 64.284931 
L 61.769619 64.284931 
L 62.04719 64.884871 
L 62.327946 65.844401 
L 62.616615 65.844401 
L 62.895678 68.752431 
L 63.172977 78.434559 
L 63.725828 78.434559 
L 64.003491 78.56908 
L 64.279524 78.56908 
L 65.669326 80.423675 
L 65.950182 80.423675 
L 66.241136 81.646285 
L 66.518409 81.646285 
L 66.795792 83.152468 
L 67.351787 83.38201 
L 68.185829 83.954375 
L 68.463442 84.403398 
L 69.018043 84.804351 
L 69.294457 84.804351 
L 69.576154 85.732581 
L 70.433658 85.732581 
L 70.99343 90.628608 
L 71.271387 90.628608 
L 71.829933 90.922989 
L 72.110413 92.487675 
L 72.942791 92.487675 
L 73.224361 95.096853 
L 74.0798 96.993184 
L 74.359019 96.993184 
L 74.637958 97.580081 
L 75.471628 97.580081 
L 75.751747 114.879578 
L 76.307692 114.758844 
L 77.148736 114.860946 
L 77.429035 115.375552 
L 77.708993 115.375552 
L 78.825969 115.851032 
L 79.942207 115.741106 
L 80.225125 116.833666 
L 81.072577 116.961479 
L 81.352292 116.961479 
L 81.632956 117.597937 
L 82.190714 117.490246 
L 82.749924 117.522292 
L 83.029803 119.635495 
L 83.312062 119.505446 
L 83.589495 119.505446 
L 84.450278 119.680584 
L 85.008954 122.151515 
L 85.286424 122.151515 
L 85.566696 123.313758 
L 86.126419 123.298107 
L 86.407496 123.53063 
L 86.981245 123.53063 
L 87.541317 124.405573 
L 87.820098 124.405573 
L 88.10613 125.759722 
L 88.384708 125.464969 
L 88.941935 125.464969 
L 89.221939 125.126246 
L 90.060114 125.040913 
L 90.339067 124.802427 
L 91.19664 124.802427 
L 91.777084 130.450429 
L 92.057208 130.249952 
L 92.617459 130.249952 
L 92.899167 130.77462 
L 93.732306 130.77462 
L 94.581244 130.913985 
L 94.862681 133.185557 
L 95.433725 135.427504 
L 96.276011 135.427504 
L 97.116344 135.572272 
L 97.671844 135.572272 
L 98.250881 143.869323 
L 100.21575 143.804858 
L 100.496394 143.14362 
L 101.33218 143.14362 
L 101.61896 143.019347 
L 102.743254 143.121821 
L 103.304517 143.63885 
L 103.582356 143.63885 
L 104.140447 142.955254 
L 104.418755 142.250418 
L 104.696475 143.639222 
L 105.252384 142.710434 
L 105.543877 142.710434 
L 105.823398 143.20585 
L 106.401157 144.796807 
L 106.682298 144.796807 
L 106.961626 144.419889 
L 107.239602 144.419889 
L 108.082243 143.693627 
L 108.360294 143.693627 
L 108.643714 144.22761 
L 109.49412 144.22761 
L 109.788795 148.442092 
L 110.070618 148.442092 
L 110.628838 148.184602 
L 110.9083 148.184602 
L 111.748925 147.882397 
L 112.868123 147.127442 
L 113.146114 147.127442 
L 113.731193 146.398571 
L 114.010156 146.398571 
L 114.289261 147.705955 
L 114.849188 146.972613 
L 115.685807 146.972613 
L 115.964624 146.357768 
L 116.801896 146.357768 
L 117.094615 146.541849 
L 117.374606 146.541849 
L 117.655816 146.712701 
L 119.058883 146.712701 
L 119.338229 146.359631 
L 119.617162 145.701002 
L 119.900695 145.866451 
L 120.457264 145.21043 
L 120.7498 145.21043 
L 121.029822 146.388883 
L 122.147384 146.388883 
L 122.427516 145.830865 
L 123.275187 145.830865 
L 123.835492 145.55847 
L 124.961616 145.55847 
L 125.242439 144.924993 
L 126.081615 144.924993 
L 126.641276 144.139855 
L 127.492814 144.139855 
L 127.775428 144.617012 
L 130.572852 144.510252 
L 131.144935 143.889632 
L 131.722979 143.889632 
L 132.280774 144.782834 
L 132.841372 144.782834 
L 133.400674 146.098229 
L 133.679816 145.398051 
L 135.356256 145.398051 
L 135.636513 144.828109 
L 135.915496 144.668249 
L 137.046676 144.640115 
L 138.444446 144.24885 
L 139.011435 143.675554 
L 140.13087 143.675554 
L 140.411787 143.526687 
L 140.692641 146.002462 
L 140.974315 145.764908 
L 142.674691 145.764908 
L 143.51634 145.891045 
L 143.798891 146.565325 
L 144.36069 146.371369 
L 145.218268 146.371369 
L 145.499745 146.574081 
L 147.192955 146.574081 
L 147.478149 165.178912 
L 148.03876 165.178912 
L 148.322349 164.311795 
L 151.433612 164.311795 
L 151.99876 163.723593 
L 153.120672 163.723593 
L 153.424431 163.235071 
L 153.983056 163.235071 
L 154.263812 164.065484 
L 154.824182 164.065484 
L 155.118906 163.29581 
L 155.682417 163.29581 
L 155.96416 163.842091 
L 156.523732 163.842091 
L 156.808292 163.339408 
L 158.778763 163.339408 
L 159.06054 162.917029 
L 159.354427 165.240956 
L 160.496825 165.240956 
L 160.795979 166.337056 
L 161.358502 165.632407 
L 161.63999 165.632407 
L 162.201861 165.35051 
L 164.472648 165.292379 
L 164.753021 165.21189 
L 165.315965 164.562018 
L 166.155101 164.562018 
L 166.456747 164.874098 
L 168.718048 164.874098 
L 169.282044 164.70306 
L 169.562791 164.108896 
L 172.679721 164.097344 
L 172.962456 163.434616 
L 174.089644 163.183648 
L 174.368913 163.183648 
L 175.22674 162.734438 
L 178.324055 162.680034 
L 178.90884 161.857632 
L 182.292478 161.87999 
L 182.591606 164.941545 
L 183.154191 164.941545 
L 183.437695 164.595928 
L 184.587046 164.595928 
L 184.870291 165.312874 
L 185.15203 165.021288 
L 185.433708 165.021288 
L 186.01068 164.70306 
L 189.104893 164.70306 
L 189.387158 164.418182 
L 189.674497 164.418182 
L 189.955783 164.773301 
L 190.239002 164.477617 
L 190.521481 164.477617 
L 191.660245 163.949968 
L 194.490212 164.003068 
L 194.774075 164.144296 
L 197.056133 164.144296 
L 197.338031 164.450042 
L 197.903146 164.450042 
L 199.039326 163.7521 
L 199.322119 164.112063 
L 200.447245 164.112063 
L 200.740609 163.682604 
L 205.273534 163.79104 
L 206.982126 165.295174 
L 207.549464 166.08851 
L 207.853657 167.553331 
L 213.825388 167.508988 
L 214.390132 167.956707 
L 215.237697 167.956707 
L 216.081632 167.09257 
L 217.776167 167.09257 
L 218.059899 166.78906 
L 219.19283 166.78906 
L 220.033176 166.953392 
L 220.331429 166.119625 
L 223.150557 166.08292 
L 223.433127 165.976347 
L 224.300009 165.976347 
L 224.581889 166.971464 
L 225.144561 166.971464 
L 225.708419 165.945791 
L 227.428562 165.925856 
L 228.272348 165.925856 
L 228.834198 166.094845 
L 229.395758 164.90689 
L 230.806967 164.90689 
L 232.501973 164.751129 
L 232.781236 164.751129 
L 233.06194 163.936739 
L 233.930393 163.936739 
L 235.06972 164.288319 
L 236.474581 164.289064 
L 236.756835 163.755267 
L 238.470894 163.753777 
L 238.752067 165.48 
L 239.600281 165.48 
L 239.88136 165.148356 
L 240.162341 165.148356 
L 240.44324 164.567607 
L 241.021841 164.567607 
L 241.30279 165.109416 
L 241.583309 165.109416 
L 242.44908 166.096894 
L 242.730987 166.096894 
L 243.295881 165.837914 
L 243.577373 165.502172 
L 246.693882 165.4269 
L 246.976766 165.291075 
L 247.8287 165.291075 
L 249.255619 164.669523 
L 252.099514 164.669523 
L 252.674611 165.028927 
L 253.234835 165.028927 
L 253.796714 164.808142 
L 255.21853 164.651823 
L 256.061117 164.57357 
L 256.345171 164.088588 
L 256.921139 164.088588 
L 257.203634 164.770506 
L 257.485635 164.770506 
L 257.768092 164.418182 
L 259.457494 164.418182 
L 260.034336 164.020023 
L 263.719597 163.936739 
L 264.00063 164.222735 
L 265.686484 164.222735 
L 265.982998 163.754708 
L 267.682233 163.754708 
L 267.966722 182.373326 
L 268.249308 182.373326 
L 268.811525 181.590983 
L 269.660963 181.590983 
L 269.94184 180.974089 
L 272.47773 180.974089 
L 272.75901 180.23348 
L 273.344634 180.23348 
L 273.625559 181.224498 
L 273.907814 180.454079 
L 274.486375 179.992387 
L 274.767487 180.521712 
L 275.612242 180.521712 
L 275.8936 179.709931 
L 279.579447 179.709931 
L 280.141416 178.667489 
L 280.424363 177.763854 
L 281.008054 177.763854 
L 281.288086 178.604514 
L 281.58416 178.604514 
L 281.866857 179.434555 
L 282.148298 178.638796 
L 284.970135 178.638796 
L 285.256757 178.117296 
L 285.537273 178.117296 
L 285.82022 177.508973 
L 286.945735 177.508973 
L 287.227255 176.817738 
L 287.512677 178.013332 
L 290.344914 178.013332 
L 291.192046 177.636599 
L 291.763841 177.636599 
L 292.046568 177.42364 
L 292.344717 177.42364 
L 292.626248 178.429563 
L 293.749316 178.429563 
L 294.030968 177.561514 
L 298.289844 177.453823 
L 298.862848 177.066471 
L 299.452327 178.653515 
L 300.573859 178.653515 
L 300.856463 177.79441 
L 301.135637 177.79441 
L 302.264465 176.731287 
L 305.382199 176.808795 
L 305.666181 176.200098 
L 306.245131 176.200098 
L 306.526274 176.6603 
L 308.501617 176.638688 
L 308.783163 175.99161 
L 310.474357 175.99161 
L 310.755344 175.381237 
L 312.161214 175.381237 
L 312.735632 179.580999 
L 313.017911 179.78483 
L 313.310512 179.78483 
L 313.593051 180.065982 
L 313.880534 180.065982 
L 314.164305 180.582265 
L 317.263855 180.582265 
L 317.548009 179.931647 
L 318.690355 179.931647 
L 319.537931 179.801598 
L 320.102254 179.157129 
L 322.642538 179.157129 
L 323.500295 178.568741 
L 324.356569 178.603769 
L 325.199854 178.603769 
L 325.483792 186.087362 
L 326.047824 185.677838 
L 326.891277 185.677838 
L 327.473603 185.398176 
L 327.777153 184.9104 
L 329.74548 184.9104 
L 330.026473 184.556584 
L 330.307145 184.556584 
L 330.590576 183.531284 
L 331.150984 183.531284 
L 331.724141 183.269882 
L 332.015865 184.023346 
L 333.979862 184.023346 
L 334.262131 182.979042 
L 335.396524 182.979042 
L 335.678025 182.512132 
L 336.799825 182.512132 
L 337.376136 181.533784 
L 337.65728 180.60779 
L 338.792648 180.60779 
L 339.919533 179.71552 
L 342.466778 179.71552 
L 343.030515 178.375158 
L 343.58991 178.375158 
L 343.871947 177.433514 
L 345.271389 177.433514 
L 345.831697 176.385297 
L 349.244569 176.297169 
L 349.535868 175.96124 
L 350.095709 175.96124 
L 350.377852 175.776787 
L 350.658652 174.939853 
L 350.942362 174.730992 
L 351.221649 174.730992 
L 351.800265 175.12058 
L 354.624451 175.12058 
L 355.186985 174.613612 
L 355.754527 173.43162 
L 356.036518 173.794565 
L 356.319085 173.315172 
L 358.298219 173.315172 
L 358.57987 172.91012 
L 359.420324 172.91012 
L 359.981899 171.483866 
L 360.833512 171.483866 
L 361.408729 171.597706 
L 362.809003 171.597706 
L 363.092419 170.75984 
L 363.372131 170.75984 
L 363.652723 169.842231 
L 364.223745 169.842231 
L 364.787363 170.07494 
L 365.353561 169.687029 
L 365.9159 169.687029 
L 366.221926 169.114478 
L 366.503822 172.911238 
L 368.480423 172.911238 
L 369.329218 172.311485 
L 369.891668 172.311485 
L 370.178084 171.986921 
L 371.021086 171.348787 
L 371.314582 171.348787 
L 372.181615 173.87673 
L 372.746119 173.87673 
L 373.590621 173.210276 
L 373.874146 173.210276 
L 374.436987 172.655611 
L 374.717255 172.655611 
L 375.011211 172.121628 
L 375.852884 172.121628 
L 376.139083 171.97127 
L 376.420458 172.209569 
L 377.855284 172.209569 
L 378.136735 172.691757 
L 378.714255 171.948167 
L 379.837868 171.96773 
L 380.119227 171.35568 
L 381.528165 171.35568 
L 382.094097 170.791141 
L 383.813389 170.791141 
L 384.094364 171.144956 
L 384.376836 170.437698 
L 385.222371 170.437698 
L 385.503255 169.884524 
L 388.065289 169.884524 
L 389.772307 170.119283 
L 390.054303 169.60505 
L 390.616583 168.896487 
L 391.456387 168.896487 
L 392.303044 167.476382 
L 392.582877 167.476382 
L 392.867017 166.71118 
L 394.587085 166.71118 
L 394.870692 167.393099 
L 396.000643 167.394403 
L 396.281707 166.778627 
L 398.8282 166.877747 
L 399.392193 166.268492 
L 399.674637 165.725379 
L 399.958418 165.725379 
L 400.244047 165.950263 
L 400.538749 165.950263 
L 400.821669 167.62674 
L 403.374448 167.651706 
L 403.658162 167.045618 
L 405.933029 166.975004 
L 406.219403 167.990989 
L 406.499705 167.990989 
L 406.781746 167.39049 
L 408.49109 167.39049 
L 408.772135 167.539171 
L 409.053987 166.906626 
L 410.740291 166.906626 
L 411.024905 166.336311 
L 412.745053 166.336311 
L 413.026059 166.868245 
L 413.310519 166.868245 
L 413.87332 167.111761 
L 414.1552 166.486482 
L 414.72 166.410465 
L 414.72 166.410465 
" style="fill:none;stroke:#000000;stroke-dasharray:2.96,1.28;stroke-dashoffset:0;stroke-width:0.8;"/>
   </g>
   <g id="patch_3">
    <path d="M 57.6 307.584 
L 57.6 41.472 
" style="fill:none;stroke:#000000;stroke-linecap:square;stroke-linejoin:miter;stroke-width:0.8;"/>
   </g>
   <g id="patch_4">
    <path d="M 414.72 307.584 
L 414.72 41.472 
" style="fill:none;stroke:#000000;stroke-linecap:square;stroke-linejoin:miter;stroke-width:0.8;"/>
   </g>
   <g id="patch_5">
    <path d="M 57.6 307.584 
L 414.72 307.584 
" style="fill:none;stroke:#000000;stroke-linecap:square;stroke-linejoin:miter;stroke-width:0.8;"/>
   </g>
   <g id="patch_6">
    <path d="M 57.6 41.472 
L 414.72 41.472 
" style="fill:none;stroke:#000000;stroke-linecap:square;stroke-linejoin:miter;stroke-width:0.8;"/>
   </g>
   <g id="legend_1">
    <g id="patch_7">
     <path d="M 64.6 93.506375 
L 129.759375 93.506375 
Q 131.759375 93.506375 131.759375 91.506375 
L 131.759375 48.472 
Q 131.759375 46.472 129.759375 46.472 
L 64.6 46.472 
Q 62.6 46.472 62.6 48.472 
L 62.6 91.506375 
Q 62.6 93.506375 64.6 93.506375 
z
" style="fill:#ffffff;opacity:0.8;stroke:#cccccc;stroke-linejoin:miter;"/>
    </g>
    <g id="line2d_40">
     <path d="M 66.6 54.570438 
L 86.6 54.570438 
" style="fill:none;stroke:#000000;stroke-linecap:square;stroke-width:0.8;"/>
    </g>
    <g id="line2d_41"/>
    <g id="text_21">
     <!-- 4 envs -->
     <defs>
      <path id="DejaVuSans-32"/>
      <path d="M 56.203125 29.59375 
L 56.203125 25.203125 
L 14.890625 25.203125 
Q 15.484375 15.921875 20.484375 11.0625 
Q 25.484375 6.203125 34.421875 6.203125 
Q 39.59375 6.203125 44.453125 7.46875 
Q 49.3125 8.734375 54.109375 11.28125 
L 54.109375 2.78125 
Q 49.265625 0.734375 44.1875 -0.34375 
Q 39.109375 -1.421875 33.890625 -1.421875 
Q 20.796875 -1.421875 13.15625 6.1875 
Q 5.515625 13.8125 5.515625 26.8125 
Q 5.515625 40.234375 12.765625 48.109375 
Q 20.015625 56 32.328125 56 
Q 43.359375 56 49.78125 48.890625 
Q 56.203125 41.796875 56.203125 29.59375 
z
M 47.21875 32.234375 
Q 47.125 39.59375 43.09375 43.984375 
Q 39.0625 48.390625 32.421875 48.390625 
Q 24.90625 48.390625 20.390625 44.140625 
Q 15.875 39.890625 15.1875 32.171875 
z
" id="DejaVuSans-101"/>
      <path d="M 54.890625 33.015625 
L 54.890625 0 
L 45.90625 0 
L 45.90625 32.71875 
Q 45.90625 40.484375 42.875 44.328125 
Q 39.84375 48.1875 33.796875 48.1875 
Q 26.515625 48.1875 22.3125 43.546875 
Q 18.109375 38.921875 18.109375 30.90625 
L 18.109375 0 
L 9.078125 0 
L 9.078125 54.6875 
L 18.109375 54.6875 
L 18.109375 46.1875 
Q 21.34375 51.125 25.703125 53.5625 
Q 30.078125 56 35.796875 56 
Q 45.21875 56 50.046875 50.171875 
Q 54.890625 44.34375 54.890625 33.015625 
z
" id="DejaVuSans-110"/>
      <path d="M 2.984375 54.6875 
L 12.5 54.6875 
L 29.59375 8.796875 
L 46.6875 54.6875 
L 56.203125 54.6875 
L 35.6875 0 
L 23.484375 0 
z
" id="DejaVuSans-118"/>
     </defs>
     <g transform="translate(94.6 58.070438)scale(0.1 -0.1)">
      <use xlink:href="#DejaVuSans-52"/>
      <use x="63.623047" xlink:href="#DejaVuSans-32"/>
      <use x="95.410156" xlink:href="#DejaVuSans-101"/>
      <use x="156.933594" xlink:href="#DejaVuSans-110"/>
      <use x="220.3125" xlink:href="#DejaVuSans-118"/>
      <use x="279.492188" xlink:href="#DejaVuSans-115"/>
     </g>
    </g>
    <g id="line2d_42">
     <path d="M 66.6 69.248563 
L 86.6 69.248563 
" style="fill:none;stroke:#000000;stroke-dasharray:0.8,1.32;stroke-dashoffset:0;stroke-width:0.8;"/>
    </g>
    <g id="line2d_43"/>
    <g id="text_22">
     <!-- 5 envs -->
     <g transform="translate(94.6 72.748563)scale(0.1 -0.1)">
      <use xlink:href="#DejaVuSans-53"/>
      <use x="63.623047" xlink:href="#DejaVuSans-32"/>
      <use x="95.410156" xlink:href="#DejaVuSans-101"/>
      <use x="156.933594" xlink:href="#DejaVuSans-110"/>
      <use x="220.3125" xlink:href="#DejaVuSans-118"/>
      <use x="279.492188" xlink:href="#DejaVuSans-115"/>
     </g>
    </g>
    <g id="line2d_44">
     <path d="M 66.6 83.926688 
L 86.6 83.926688 
" style="fill:none;stroke:#000000;stroke-dasharray:2.96,1.28;stroke-dashoffset:0;stroke-width:0.8;"/>
    </g>
    <g id="line2d_45"/>
    <g id="text_23">
     <!-- 6 envs -->
     <g transform="translate(94.6 87.426688)scale(0.1 -0.1)">
      <use xlink:href="#DejaVuSans-54"/>
      <use x="63.623047" xlink:href="#DejaVuSans-32"/>
      <use x="95.410156" xlink:href="#DejaVuSans-101"/>
      <use x="156.933594" xlink:href="#DejaVuSans-110"/>
      <use x="220.3125" xlink:href="#DejaVuSans-118"/>
      <use x="279.492188" xlink:href="#DejaVuSans-115"/>
     </g>
    </g>
   </g>
  </g>
 </g>
 <defs>
  <clipPath id="p782a7a715e">
   <rect height="266.112" width="357.12" x="57.6" y="41.472"/>
  </clipPath>
 </defs>
</svg>
