<?xml version="1.0" encoding="utf-8" standalone="no"?>
<!DOCTYPE svg PUBLIC "-//W3C//DTD SVG 1.1//EN"
  "http://www.w3.org/Graphics/SVG/1.1/DTD/svg11.dtd">
<!-- Created with matplotlib (https://matplotlib.org/) -->
<svg height="345.6pt" version="1.1" viewBox="0 0 460.8 345.6" width="460.8pt" xmlns="http://www.w3.org/2000/svg" xmlns:xlink="http://www.w3.org/1999/xlink">
 <defs>
  <style type="text/css">
*{stroke-linecap:butt;stroke-linejoin:round;}
  </style>
 </defs>
 <g id="figure_1">
  <g id="patch_1">
   <path d="M 0 345.6 
L 460.8 345.6 
L 460.8 0 
L 0 0 
z
" style="fill:#ffffff;"/>
  </g>
  <g id="axes_1">
   <g id="patch_2">
    <path d="M 57.6 307.584 
L 414.72 307.584 
L 414.72 41.472 
L 57.6 41.472 
z
" style="fill:#ffffff;"/>
   </g>
   <g id="matplotlib.axis_1">
    <g id="xtick_1">
     <g id="line2d_1">
      <path clip-path="url(#pa391a46222)" d="M 57.6 307.584 
L 57.6 41.472 
" style="fill:none;stroke:#b0b0b0;stroke-linecap:square;stroke-width:0.8;"/>
     </g>
     <g id="line2d_2">
      <defs>
       <path d="M 0 0 
L 0 3.5 
" id="maf6afdc3fb" style="stroke:#000000;stroke-width:0.8;"/>
      </defs>
      <g>
       <use style="stroke:#000000;stroke-width:0.8;" x="57.6" xlink:href="#maf6afdc3fb" y="307.584"/>
      </g>
     </g>
     <g id="text_1">
      <!-- 0.0 -->
      <defs>
       <path d="M 31.78125 66.40625 
Q 24.171875 66.40625 20.328125 58.90625 
Q 16.5 51.421875 16.5 36.375 
Q 16.5 21.390625 20.328125 13.890625 
Q 24.171875 6.390625 31.78125 6.390625 
Q 39.453125 6.390625 43.28125 13.890625 
Q 47.125 21.390625 47.125 36.375 
Q 47.125 51.421875 43.28125 58.90625 
Q 39.453125 66.40625 31.78125 66.40625 
z
M 31.78125 74.21875 
Q 44.046875 74.21875 50.515625 64.515625 
Q 56.984375 54.828125 56.984375 36.375 
Q 56.984375 17.96875 50.515625 8.265625 
Q 44.046875 -1.421875 31.78125 -1.421875 
Q 19.53125 -1.421875 13.0625 8.265625 
Q 6.59375 17.96875 6.59375 36.375 
Q 6.59375 54.828125 13.0625 64.515625 
Q 19.53125 74.21875 31.78125 74.21875 
z
" id="DejaVuSans-48"/>
       <path d="M 10.6875 12.40625 
L 21 12.40625 
L 21 0 
L 10.6875 0 
z
" id="DejaVuSans-46"/>
      </defs>
      <g transform="translate(49.648438 322.182437)scale(0.1 -0.1)">
       <use xlink:href="#DejaVuSans-48"/>
       <use x="63.623047" xlink:href="#DejaVuSans-46"/>
       <use x="95.410156" xlink:href="#DejaVuSans-48"/>
      </g>
     </g>
    </g>
    <g id="xtick_2">
     <g id="line2d_3">
      <path clip-path="url(#pa391a46222)" d="M 126.214666 307.584 
L 126.214666 41.472 
" style="fill:none;stroke:#b0b0b0;stroke-linecap:square;stroke-width:0.8;"/>
     </g>
     <g id="line2d_4">
      <g>
       <use style="stroke:#000000;stroke-width:0.8;" x="126.214666" xlink:href="#maf6afdc3fb" y="307.584"/>
      </g>
     </g>
     <g id="text_2">
      <!-- 0.1 -->
      <defs>
       <path d="M 12.40625 8.296875 
L 28.515625 8.296875 
L 28.515625 63.921875 
L 10.984375 60.40625 
L 10.984375 69.390625 
L 28.421875 72.90625 
L 38.28125 72.90625 
L 38.28125 8.296875 
L 54.390625 8.296875 
L 54.390625 0 
L 12.40625 0 
z
" id="DejaVuSans-49"/>
      </defs>
      <g transform="translate(118.263104 322.182437)scale(0.1 -0.1)">
       <use xlink:href="#DejaVuSans-48"/>
       <use x="63.623047" xlink:href="#DejaVuSans-46"/>
       <use x="95.410156" xlink:href="#DejaVuSans-49"/>
      </g>
     </g>
    </g>
    <g id="xtick_3">
     <g id="line2d_5">
      <path clip-path="url(#pa391a46222)" d="M 194.829332 307.584 
L 194.829332 41.472 
" style="fill:none;stroke:#b0b0b0;stroke-linecap:square;stroke-width:0.8;"/>
     </g>
     <g id="line2d_6">
      <g>
       <use style="stroke:#000000;stroke-width:0.8;" x="194.829332" xlink:href="#maf6afdc3fb" y="307.584"/>
      </g>
     </g>
     <g id="text_3">
      <!-- 0.2 -->
      <defs>
       <path d="M 19.1875 8.296875 
L 53.609375 8.296875 
L 53.609375 0 
L 7.328125 0 
L 7.328125 8.296875 
Q 12.9375 14.109375 22.625 23.890625 
Q 32.328125 33.6875 34.8125 36.53125 
Q 39.546875 41.84375 41.421875 45.53125 
Q 43.3125 49.21875 43.3125 52.78125 
Q 43.3125 58.59375 39.234375 62.25 
Q 35.15625 65.921875 28.609375 65.921875 
Q 23.96875 65.921875 18.8125 64.3125 
Q 13.671875 62.703125 7.8125 59.421875 
L 7.8125 69.390625 
Q 13.765625 71.78125 18.9375 73 
Q 24.125 74.21875 28.421875 74.21875 
Q 39.75 74.21875 46.484375 68.546875 
Q 53.21875 62.890625 53.21875 53.421875 
Q 53.21875 48.921875 51.53125 44.890625 
Q 49.859375 40.875 45.40625 35.40625 
Q 44.1875 33.984375 37.640625 27.21875 
Q 31.109375 20.453125 19.1875 8.296875 
z
" id="DejaVuSans-50"/>
      </defs>
      <g transform="translate(186.87777 322.182437)scale(0.1 -0.1)">
       <use xlink:href="#DejaVuSans-48"/>
       <use x="63.623047" xlink:href="#DejaVuSans-46"/>
       <use x="95.410156" xlink:href="#DejaVuSans-50"/>
      </g>
     </g>
    </g>
    <g id="xtick_4">
     <g id="line2d_7">
      <path clip-path="url(#pa391a46222)" d="M 263.443999 307.584 
L 263.443999 41.472 
" style="fill:none;stroke:#b0b0b0;stroke-linecap:square;stroke-width:0.8;"/>
     </g>
     <g id="line2d_8">
      <g>
       <use style="stroke:#000000;stroke-width:0.8;" x="263.443999" xlink:href="#maf6afdc3fb" y="307.584"/>
      </g>
     </g>
     <g id="text_4">
      <!-- 0.3 -->
      <defs>
       <path d="M 40.578125 39.3125 
Q 47.65625 37.796875 51.625 33 
Q 55.609375 28.21875 55.609375 21.1875 
Q 55.609375 10.40625 48.1875 4.484375 
Q 40.765625 -1.421875 27.09375 -1.421875 
Q 22.515625 -1.421875 17.65625 -0.515625 
Q 12.796875 0.390625 7.625 2.203125 
L 7.625 11.71875 
Q 11.71875 9.328125 16.59375 8.109375 
Q 21.484375 6.890625 26.8125 6.890625 
Q 36.078125 6.890625 40.9375 10.546875 
Q 45.796875 14.203125 45.796875 21.1875 
Q 45.796875 27.640625 41.28125 31.265625 
Q 36.765625 34.90625 28.71875 34.90625 
L 20.21875 34.90625 
L 20.21875 43.015625 
L 29.109375 43.015625 
Q 36.375 43.015625 40.234375 45.921875 
Q 44.09375 48.828125 44.09375 54.296875 
Q 44.09375 59.90625 40.109375 62.90625 
Q 36.140625 65.921875 28.71875 65.921875 
Q 24.65625 65.921875 20.015625 65.03125 
Q 15.375 64.15625 9.8125 62.3125 
L 9.8125 71.09375 
Q 15.4375 72.65625 20.34375 73.4375 
Q 25.25 74.21875 29.59375 74.21875 
Q 40.828125 74.21875 47.359375 69.109375 
Q 53.90625 64.015625 53.90625 55.328125 
Q 53.90625 49.265625 50.4375 45.09375 
Q 46.96875 40.921875 40.578125 39.3125 
z
" id="DejaVuSans-51"/>
      </defs>
      <g transform="translate(255.492436 322.182437)scale(0.1 -0.1)">
       <use xlink:href="#DejaVuSans-48"/>
       <use x="63.623047" xlink:href="#DejaVuSans-46"/>
       <use x="95.410156" xlink:href="#DejaVuSans-51"/>
      </g>
     </g>
    </g>
    <g id="xtick_5">
     <g id="line2d_9">
      <path clip-path="url(#pa391a46222)" d="M 332.058665 307.584 
L 332.058665 41.472 
" style="fill:none;stroke:#b0b0b0;stroke-linecap:square;stroke-width:0.8;"/>
     </g>
     <g id="line2d_10">
      <g>
       <use style="stroke:#000000;stroke-width:0.8;" x="332.058665" xlink:href="#maf6afdc3fb" y="307.584"/>
      </g>
     </g>
     <g id="text_5">
      <!-- 0.4 -->
      <defs>
       <path d="M 37.796875 64.3125 
L 12.890625 25.390625 
L 37.796875 25.390625 
z
M 35.203125 72.90625 
L 47.609375 72.90625 
L 47.609375 25.390625 
L 58.015625 25.390625 
L 58.015625 17.1875 
L 47.609375 17.1875 
L 47.609375 0 
L 37.796875 0 
L 37.796875 17.1875 
L 4.890625 17.1875 
L 4.890625 26.703125 
z
" id="DejaVuSans-52"/>
      </defs>
      <g transform="translate(324.107102 322.182437)scale(0.1 -0.1)">
       <use xlink:href="#DejaVuSans-48"/>
       <use x="63.623047" xlink:href="#DejaVuSans-46"/>
       <use x="95.410156" xlink:href="#DejaVuSans-52"/>
      </g>
     </g>
    </g>
    <g id="xtick_6">
     <g id="line2d_11">
      <path clip-path="url(#pa391a46222)" d="M 400.673331 307.584 
L 400.673331 41.472 
" style="fill:none;stroke:#b0b0b0;stroke-linecap:square;stroke-width:0.8;"/>
     </g>
     <g id="line2d_12">
      <g>
       <use style="stroke:#000000;stroke-width:0.8;" x="400.673331" xlink:href="#maf6afdc3fb" y="307.584"/>
      </g>
     </g>
     <g id="text_6">
      <!-- 0.5 -->
      <defs>
       <path d="M 10.796875 72.90625 
L 49.515625 72.90625 
L 49.515625 64.59375 
L 19.828125 64.59375 
L 19.828125 46.734375 
Q 21.96875 47.46875 24.109375 47.828125 
Q 26.265625 48.1875 28.421875 48.1875 
Q 40.625 48.1875 47.75 41.5 
Q 54.890625 34.8125 54.890625 23.390625 
Q 54.890625 11.625 47.5625 5.09375 
Q 40.234375 -1.421875 26.90625 -1.421875 
Q 22.3125 -1.421875 17.546875 -0.640625 
Q 12.796875 0.140625 7.71875 1.703125 
L 7.71875 11.625 
Q 12.109375 9.234375 16.796875 8.0625 
Q 21.484375 6.890625 26.703125 6.890625 
Q 35.15625 6.890625 40.078125 11.328125 
Q 45.015625 15.765625 45.015625 23.390625 
Q 45.015625 31 40.078125 35.4375 
Q 35.15625 39.890625 26.703125 39.890625 
Q 22.75 39.890625 18.8125 39.015625 
Q 14.890625 38.140625 10.796875 36.28125 
z
" id="DejaVuSans-53"/>
      </defs>
      <g transform="translate(392.721769 322.182437)scale(0.1 -0.1)">
       <use xlink:href="#DejaVuSans-48"/>
       <use x="63.623047" xlink:href="#DejaVuSans-46"/>
       <use x="95.410156" xlink:href="#DejaVuSans-53"/>
      </g>
     </g>
    </g>
    <g id="text_7">
     <!-- Hours -->
     <defs>
      <path d="M 9.8125 72.90625 
L 19.671875 72.90625 
L 19.671875 43.015625 
L 55.515625 43.015625 
L 55.515625 72.90625 
L 65.375 72.90625 
L 65.375 0 
L 55.515625 0 
L 55.515625 34.71875 
L 19.671875 34.71875 
L 19.671875 0 
L 9.8125 0 
z
" id="DejaVuSans-72"/>
      <path d="M 30.609375 48.390625 
Q 23.390625 48.390625 19.1875 42.75 
Q 14.984375 37.109375 14.984375 27.296875 
Q 14.984375 17.484375 19.15625 11.84375 
Q 23.34375 6.203125 30.609375 6.203125 
Q 37.796875 6.203125 41.984375 11.859375 
Q 46.1875 17.53125 46.1875 27.296875 
Q 46.1875 37.015625 41.984375 42.703125 
Q 37.796875 48.390625 30.609375 48.390625 
z
M 30.609375 56 
Q 42.328125 56 49.015625 48.375 
Q 55.71875 40.765625 55.71875 27.296875 
Q 55.71875 13.875 49.015625 6.21875 
Q 42.328125 -1.421875 30.609375 -1.421875 
Q 18.84375 -1.421875 12.171875 6.21875 
Q 5.515625 13.875 5.515625 27.296875 
Q 5.515625 40.765625 12.171875 48.375 
Q 18.84375 56 30.609375 56 
z
" id="DejaVuSans-111"/>
      <path d="M 8.5 21.578125 
L 8.5 54.6875 
L 17.484375 54.6875 
L 17.484375 21.921875 
Q 17.484375 14.15625 20.5 10.265625 
Q 23.53125 6.390625 29.59375 6.390625 
Q 36.859375 6.390625 41.078125 11.03125 
Q 45.3125 15.671875 45.3125 23.6875 
L 45.3125 54.6875 
L 54.296875 54.6875 
L 54.296875 0 
L 45.3125 0 
L 45.3125 8.40625 
Q 42.046875 3.421875 37.71875 1 
Q 33.40625 -1.421875 27.6875 -1.421875 
Q 18.265625 -1.421875 13.375 4.4375 
Q 8.5 10.296875 8.5 21.578125 
z
M 31.109375 56 
z
" id="DejaVuSans-117"/>
      <path d="M 41.109375 46.296875 
Q 39.59375 47.171875 37.8125 47.578125 
Q 36.03125 48 33.890625 48 
Q 26.265625 48 22.1875 43.046875 
Q 18.109375 38.09375 18.109375 28.8125 
L 18.109375 0 
L 9.078125 0 
L 9.078125 54.6875 
L 18.109375 54.6875 
L 18.109375 46.1875 
Q 20.953125 51.171875 25.484375 53.578125 
Q 30.03125 56 36.53125 56 
Q 37.453125 56 38.578125 55.875 
Q 39.703125 55.765625 41.0625 55.515625 
z
" id="DejaVuSans-114"/>
      <path d="M 44.28125 53.078125 
L 44.28125 44.578125 
Q 40.484375 46.53125 36.375 47.5 
Q 32.28125 48.484375 27.875 48.484375 
Q 21.1875 48.484375 17.84375 46.4375 
Q 14.5 44.390625 14.5 40.28125 
Q 14.5 37.15625 16.890625 35.375 
Q 19.28125 33.59375 26.515625 31.984375 
L 29.59375 31.296875 
Q 39.15625 29.25 43.1875 25.515625 
Q 47.21875 21.78125 47.21875 15.09375 
Q 47.21875 7.46875 41.1875 3.015625 
Q 35.15625 -1.421875 24.609375 -1.421875 
Q 20.21875 -1.421875 15.453125 -0.5625 
Q 10.6875 0.296875 5.421875 2 
L 5.421875 11.28125 
Q 10.40625 8.6875 15.234375 7.390625 
Q 20.0625 6.109375 24.8125 6.109375 
Q 31.15625 6.109375 34.5625 8.28125 
Q 37.984375 10.453125 37.984375 14.40625 
Q 37.984375 18.0625 35.515625 20.015625 
Q 33.0625 21.96875 24.703125 23.78125 
L 21.578125 24.515625 
Q 13.234375 26.265625 9.515625 29.90625 
Q 5.8125 33.546875 5.8125 39.890625 
Q 5.8125 47.609375 11.28125 51.796875 
Q 16.75 56 26.8125 56 
Q 31.78125 56 36.171875 55.265625 
Q 40.578125 54.546875 44.28125 53.078125 
z
" id="DejaVuSans-115"/>
     </defs>
     <g transform="translate(221.511562 335.860562)scale(0.1 -0.1)">
      <use xlink:href="#DejaVuSans-72"/>
      <use x="75.195312" xlink:href="#DejaVuSans-111"/>
      <use x="136.376953" xlink:href="#DejaVuSans-117"/>
      <use x="199.755859" xlink:href="#DejaVuSans-114"/>
      <use x="240.869141" xlink:href="#DejaVuSans-115"/>
     </g>
    </g>
   </g>
   <g id="matplotlib.axis_2">
    <g id="ytick_1">
     <g id="line2d_13">
      <path clip-path="url(#pa391a46222)" d="M 57.6 302.270353 
L 414.72 302.270353 
" style="fill:none;stroke:#b0b0b0;stroke-linecap:square;stroke-width:0.8;"/>
     </g>
     <g id="line2d_14">
      <defs>
       <path d="M 0 0 
L -3.5 0 
" id="m34f0ebb7ad" style="stroke:#000000;stroke-width:0.8;"/>
      </defs>
      <g>
       <use style="stroke:#000000;stroke-width:0.8;" x="57.6" xlink:href="#m34f0ebb7ad" y="302.270353"/>
      </g>
     </g>
     <g id="text_8">
      <!-- 280 -->
      <defs>
       <path d="M 31.78125 34.625 
Q 24.75 34.625 20.71875 30.859375 
Q 16.703125 27.09375 16.703125 20.515625 
Q 16.703125 13.921875 20.71875 10.15625 
Q 24.75 6.390625 31.78125 6.390625 
Q 38.8125 6.390625 42.859375 10.171875 
Q 46.921875 13.96875 46.921875 20.515625 
Q 46.921875 27.09375 42.890625 30.859375 
Q 38.875 34.625 31.78125 34.625 
z
M 21.921875 38.8125 
Q 15.578125 40.375 12.03125 44.71875 
Q 8.5 49.078125 8.5 55.328125 
Q 8.5 64.0625 14.71875 69.140625 
Q 20.953125 74.21875 31.78125 74.21875 
Q 42.671875 74.21875 48.875 69.140625 
Q 55.078125 64.0625 55.078125 55.328125 
Q 55.078125 49.078125 51.53125 44.71875 
Q 48 40.375 41.703125 38.8125 
Q 48.828125 37.15625 52.796875 32.3125 
Q 56.78125 27.484375 56.78125 20.515625 
Q 56.78125 9.90625 50.3125 4.234375 
Q 43.84375 -1.421875 31.78125 -1.421875 
Q 19.734375 -1.421875 13.25 4.234375 
Q 6.78125 9.90625 6.78125 20.515625 
Q 6.78125 27.484375 10.78125 32.3125 
Q 14.796875 37.15625 21.921875 38.8125 
z
M 18.3125 54.390625 
Q 18.3125 48.734375 21.84375 45.5625 
Q 25.390625 42.390625 31.78125 42.390625 
Q 38.140625 42.390625 41.71875 45.5625 
Q 45.3125 48.734375 45.3125 54.390625 
Q 45.3125 60.0625 41.71875 63.234375 
Q 38.140625 66.40625 31.78125 66.40625 
Q 25.390625 66.40625 21.84375 63.234375 
Q 18.3125 60.0625 18.3125 54.390625 
z
" id="DejaVuSans-56"/>
      </defs>
      <g transform="translate(31.5125 306.069572)scale(0.1 -0.1)">
       <use xlink:href="#DejaVuSans-50"/>
       <use x="63.623047" xlink:href="#DejaVuSans-56"/>
       <use x="127.246094" xlink:href="#DejaVuSans-48"/>
      </g>
     </g>
    </g>
    <g id="ytick_2">
     <g id="line2d_15">
      <path clip-path="url(#pa391a46222)" d="M 57.6 264.033487 
L 414.72 264.033487 
" style="fill:none;stroke:#b0b0b0;stroke-linecap:square;stroke-width:0.8;"/>
     </g>
     <g id="line2d_16">
      <g>
       <use style="stroke:#000000;stroke-width:0.8;" x="57.6" xlink:href="#m34f0ebb7ad" y="264.033487"/>
      </g>
     </g>
     <g id="text_9">
      <!-- 300 -->
      <g transform="translate(31.5125 267.832706)scale(0.1 -0.1)">
       <use xlink:href="#DejaVuSans-51"/>
       <use x="63.623047" xlink:href="#DejaVuSans-48"/>
       <use x="127.246094" xlink:href="#DejaVuSans-48"/>
      </g>
     </g>
    </g>
    <g id="ytick_3">
     <g id="line2d_17">
      <path clip-path="url(#pa391a46222)" d="M 57.6 225.796621 
L 414.72 225.796621 
" style="fill:none;stroke:#b0b0b0;stroke-linecap:square;stroke-width:0.8;"/>
     </g>
     <g id="line2d_18">
      <g>
       <use style="stroke:#000000;stroke-width:0.8;" x="57.6" xlink:href="#m34f0ebb7ad" y="225.796621"/>
      </g>
     </g>
     <g id="text_10">
      <!-- 320 -->
      <g transform="translate(31.5125 229.59584)scale(0.1 -0.1)">
       <use xlink:href="#DejaVuSans-51"/>
       <use x="63.623047" xlink:href="#DejaVuSans-50"/>
       <use x="127.246094" xlink:href="#DejaVuSans-48"/>
      </g>
     </g>
    </g>
    <g id="ytick_4">
     <g id="line2d_19">
      <path clip-path="url(#pa391a46222)" d="M 57.6 187.559755 
L 414.72 187.559755 
" style="fill:none;stroke:#b0b0b0;stroke-linecap:square;stroke-width:0.8;"/>
     </g>
     <g id="line2d_20">
      <g>
       <use style="stroke:#000000;stroke-width:0.8;" x="57.6" xlink:href="#m34f0ebb7ad" y="187.559755"/>
      </g>
     </g>
     <g id="text_11">
      <!-- 340 -->
      <g transform="translate(31.5125 191.358974)scale(0.1 -0.1)">
       <use xlink:href="#DejaVuSans-51"/>
       <use x="63.623047" xlink:href="#DejaVuSans-52"/>
       <use x="127.246094" xlink:href="#DejaVuSans-48"/>
      </g>
     </g>
    </g>
    <g id="ytick_5">
     <g id="line2d_21">
      <path clip-path="url(#pa391a46222)" d="M 57.6 149.322889 
L 414.72 149.322889 
" style="fill:none;stroke:#b0b0b0;stroke-linecap:square;stroke-width:0.8;"/>
     </g>
     <g id="line2d_22">
      <g>
       <use style="stroke:#000000;stroke-width:0.8;" x="57.6" xlink:href="#m34f0ebb7ad" y="149.322889"/>
      </g>
     </g>
     <g id="text_12">
      <!-- 360 -->
      <defs>
       <path d="M 33.015625 40.375 
Q 26.375 40.375 22.484375 35.828125 
Q 18.609375 31.296875 18.609375 23.390625 
Q 18.609375 15.53125 22.484375 10.953125 
Q 26.375 6.390625 33.015625 6.390625 
Q 39.65625 6.390625 43.53125 10.953125 
Q 47.40625 15.53125 47.40625 23.390625 
Q 47.40625 31.296875 43.53125 35.828125 
Q 39.65625 40.375 33.015625 40.375 
z
M 52.59375 71.296875 
L 52.59375 62.3125 
Q 48.875 64.0625 45.09375 64.984375 
Q 41.3125 65.921875 37.59375 65.921875 
Q 27.828125 65.921875 22.671875 59.328125 
Q 17.53125 52.734375 16.796875 39.40625 
Q 19.671875 43.65625 24.015625 45.921875 
Q 28.375 48.1875 33.59375 48.1875 
Q 44.578125 48.1875 50.953125 41.515625 
Q 57.328125 34.859375 57.328125 23.390625 
Q 57.328125 12.15625 50.6875 5.359375 
Q 44.046875 -1.421875 33.015625 -1.421875 
Q 20.359375 -1.421875 13.671875 8.265625 
Q 6.984375 17.96875 6.984375 36.375 
Q 6.984375 53.65625 15.1875 63.9375 
Q 23.390625 74.21875 37.203125 74.21875 
Q 40.921875 74.21875 44.703125 73.484375 
Q 48.484375 72.75 52.59375 71.296875 
z
" id="DejaVuSans-54"/>
      </defs>
      <g transform="translate(31.5125 153.122108)scale(0.1 -0.1)">
       <use xlink:href="#DejaVuSans-51"/>
       <use x="63.623047" xlink:href="#DejaVuSans-54"/>
       <use x="127.246094" xlink:href="#DejaVuSans-48"/>
      </g>
     </g>
    </g>
    <g id="ytick_6">
     <g id="line2d_23">
      <path clip-path="url(#pa391a46222)" d="M 57.6 111.086023 
L 414.72 111.086023 
" style="fill:none;stroke:#b0b0b0;stroke-linecap:square;stroke-width:0.8;"/>
     </g>
     <g id="line2d_24">
      <g>
       <use style="stroke:#000000;stroke-width:0.8;" x="57.6" xlink:href="#m34f0ebb7ad" y="111.086023"/>
      </g>
     </g>
     <g id="text_13">
      <!-- 380 -->
      <g transform="translate(31.5125 114.885241)scale(0.1 -0.1)">
       <use xlink:href="#DejaVuSans-51"/>
       <use x="63.623047" xlink:href="#DejaVuSans-56"/>
       <use x="127.246094" xlink:href="#DejaVuSans-48"/>
      </g>
     </g>
    </g>
    <g id="ytick_7">
     <g id="line2d_25">
      <path clip-path="url(#pa391a46222)" d="M 57.6 72.849157 
L 414.72 72.849157 
" style="fill:none;stroke:#b0b0b0;stroke-linecap:square;stroke-width:0.8;"/>
     </g>
     <g id="line2d_26">
      <g>
       <use style="stroke:#000000;stroke-width:0.8;" x="57.6" xlink:href="#m34f0ebb7ad" y="72.849157"/>
      </g>
     </g>
     <g id="text_14">
      <!-- 400 -->
      <g transform="translate(31.5125 76.648375)scale(0.1 -0.1)">
       <use xlink:href="#DejaVuSans-52"/>
       <use x="63.623047" xlink:href="#DejaVuSans-48"/>
       <use x="127.246094" xlink:href="#DejaVuSans-48"/>
      </g>
     </g>
    </g>
    <g id="text_15">
     <!-- FPS -->
     <defs>
      <path d="M 9.8125 72.90625 
L 51.703125 72.90625 
L 51.703125 64.59375 
L 19.671875 64.59375 
L 19.671875 43.109375 
L 48.578125 43.109375 
L 48.578125 34.8125 
L 19.671875 34.8125 
L 19.671875 0 
L 9.8125 0 
z
" id="DejaVuSans-70"/>
      <path d="M 19.671875 64.796875 
L 19.671875 37.40625 
L 32.078125 37.40625 
Q 38.96875 37.40625 42.71875 40.96875 
Q 46.484375 44.53125 46.484375 51.125 
Q 46.484375 57.671875 42.71875 61.234375 
Q 38.96875 64.796875 32.078125 64.796875 
z
M 9.8125 72.90625 
L 32.078125 72.90625 
Q 44.34375 72.90625 50.609375 67.359375 
Q 56.890625 61.8125 56.890625 51.125 
Q 56.890625 40.328125 50.609375 34.8125 
Q 44.34375 29.296875 32.078125 29.296875 
L 19.671875 29.296875 
L 19.671875 0 
L 9.8125 0 
z
" id="DejaVuSans-80"/>
      <path d="M 53.515625 70.515625 
L 53.515625 60.890625 
Q 47.90625 63.578125 42.921875 64.890625 
Q 37.9375 66.21875 33.296875 66.21875 
Q 25.25 66.21875 20.875 63.09375 
Q 16.5 59.96875 16.5 54.203125 
Q 16.5 49.359375 19.40625 46.890625 
Q 22.3125 44.4375 30.421875 42.921875 
L 36.375 41.703125 
Q 47.40625 39.59375 52.65625 34.296875 
Q 57.90625 29 57.90625 20.125 
Q 57.90625 9.515625 50.796875 4.046875 
Q 43.703125 -1.421875 29.984375 -1.421875 
Q 24.8125 -1.421875 18.96875 -0.25 
Q 13.140625 0.921875 6.890625 3.21875 
L 6.890625 13.375 
Q 12.890625 10.015625 18.65625 8.296875 
Q 24.421875 6.59375 29.984375 6.59375 
Q 38.421875 6.59375 43.015625 9.90625 
Q 47.609375 13.234375 47.609375 19.390625 
Q 47.609375 24.75 44.3125 27.78125 
Q 41.015625 30.8125 33.5 32.328125 
L 27.484375 33.5 
Q 16.453125 35.6875 11.515625 40.375 
Q 6.59375 45.0625 6.59375 53.421875 
Q 6.59375 63.09375 13.40625 68.65625 
Q 20.21875 74.21875 32.171875 74.21875 
Q 37.3125 74.21875 42.625 73.28125 
Q 47.953125 72.359375 53.515625 70.515625 
z
" id="DejaVuSans-83"/>
     </defs>
     <g transform="translate(25.432812 183.592844)rotate(-90)scale(0.1 -0.1)">
      <use xlink:href="#DejaVuSans-70"/>
      <use x="57.519531" xlink:href="#DejaVuSans-80"/>
      <use x="117.822266" xlink:href="#DejaVuSans-83"/>
     </g>
    </g>
   </g>
   <g id="line2d_27">
    <path clip-path="url(#pa391a46222)" d="M 57.6 295.488 
L 57.747823 295.488 
L 58.387631 291.09551 
L 58.550026 285.428652 
L 58.836891 285.428652 
L 58.974375 280.884873 
L 59.130158 280.884873 
L 59.600029 275.752162 
L 59.729973 271.422451 
L 59.888689 271.422451 
L 60.444333 267.49176 
L 61.846691 249.309119 
L 62.362668 245.584911 
L 62.977841 237.590969 
L 63.296927 237.590969 
L 63.558813 234.890712 
L 63.708959 230.295882 
L 63.988564 230.295882 
L 64.280219 227.856835 
L 64.474803 227.856835 
L 64.905458 224.212792 
L 65.063173 224.212792 
L 65.260696 220.89583 
L 65.412502 220.89583 
L 65.590406 214.83532 
L 66.62864 199.806742 
L 66.946911 199.806742 
L 67.123235 195.968703 
L 67.277447 195.968703 
L 67.459033 192.485517 
L 67.940427 190.256569 
L 68.10884 190.256569 
L 68.258357 188.012511 
L 68.417274 188.012511 
L 69.226694 181.834494 
L 69.976879 177.921364 
L 70.460435 177.921364 
L 70.626071 177.176651 
L 70.775434 177.176651 
L 72.787814 167.727765 
L 73.248173 166.379707 
L 73.398592 163.782079 
L 74.521225 156.505779 
L 75.001717 154.177937 
L 75.314275 154.177937 
L 76.253827 148.67176 
L 76.548992 148.67176 
L 77.004462 143.00817 
L 77.154414 143.00817 
L 78.184052 139.229525 
L 78.478084 139.291313 
L 78.822613 137.830941 
L 79.044237 137.830941 
L 79.177796 132.833765 
L 79.333437 132.833765 
L 80.311521 129.408457 
L 81.091943 128.351832 
L 81.41457 126.187473 
L 81.583067 123.40495 
L 81.73823 123.40495 
L 82.231602 121.255001 
L 82.71728 120.417869 
L 82.998247 118.401472 
L 83.165817 118.401472 
L 83.58775 116.78182 
L 84.335914 115.603546 
L 84.647829 115.603546 
L 84.965606 115.385103 
L 85.407286 115.778114 
L 85.710567 114.605149 
L 85.859177 114.605149 
L 86.196386 113.649869 
L 86.527562 113.649869 
L 86.683251 112.869041 
L 87.727492 108.314585 
L 88.92549 104.744698 
L 89.056179 104.744698 
L 89.186968 102.991086 
L 89.8536 101.438939 
L 90.734112 99.046451 
L 91.443584 97.904293 
L 91.624178 97.904293 
L 91.914127 97.639991 
L 92.212502 99.226153 
L 92.526062 99.226153 
L 92.9739 96.156923 
L 93.294291 96.156923 
L 93.787079 95.435898 
L 96.697336 87.333669 
L 97.195035 86.562642 
L 97.486761 86.562642 
L 97.648762 88.305693 
L 97.981583 85.905854 
L 98.632252 83.987651 
L 98.939536 82.207784 
L 99.238083 82.207784 
L 99.586835 82.649104 
L 100.672078 80.379374 
L 101.347573 82.069448 
L 103.636081 82.375058 
L 104.096008 82.727636 
L 104.260585 82.292209 
L 105.028142 82.330016 
L 105.34249 81.856956 
L 105.818325 82.399271 
L 106.431705 81.76553 
L 106.578942 80.52121 
L 107.23723 80.468408 
L 107.686895 79.070466 
L 107.849359 78.085897 
L 108.009161 78.085897 
L 108.55659 76.864448 
L 108.703952 75.835128 
L 109.002118 75.835128 
L 110.223979 75.510031 
L 110.674728 74.58089 
L 110.813155 74.822846 
L 111.280277 74.822846 
L 112.206595 75.301448 
L 112.869456 75.553906 
L 113.21716 74.388352 
L 114.352546 72.996127 
L 115.291469 75.767215 
L 116.035414 75.930814 
L 116.188757 75.096891 
L 116.646995 75.096891 
L 117.22301 73.962493 
L 117.495129 73.962493 
L 117.947246 72.333155 
L 118.087648 72.333155 
L 118.255206 70.369385 
L 119.826373 71.084692 
L 120.591518 71.939444 
L 121.751792 72.065469 
L 122.596863 72.913919 
L 122.748292 73.664701 
L 123.077049 73.664701 
L 123.382597 74.097386 
L 124.021839 73.241234 
L 125.411573 73.728355 
L 125.568159 74.261568 
L 125.874946 74.261568 
L 126.33433 74.890526 
L 127.305228 73.049688 
L 128.376054 74.37925 
L 128.531468 74.37925 
L 128.704321 75.997269 
L 129.207242 75.997269 
L 129.347722 73.982622 
L 129.793856 73.982622 
L 129.980972 73.566156 
L 130.1637 73.566156 
L 130.785885 72.193069 
L 130.927135 72.193069 
L 131.508351 71.37735 
L 132.787251 68.521721 
L 133.228918 67.167479 
L 133.387873 67.167479 
L 133.735614 68.089502 
L 134.021966 68.089502 
L 134.498836 66.443712 
L 136.326015 63.07103 
L 136.788202 62.467395 
L 137.07625 62.467395 
L 137.367619 62.025141 
L 137.844465 62.025141 
L 138.121255 62.646747 
L 139.081979 63.352661 
L 140.084282 63.459899 
L 140.370708 63.013561 
L 140.856325 63.013561 
L 140.990127 62.249302 
L 141.625373 62.249302 
L 141.77486 62.937946 
L 142.097329 62.937946 
L 142.576157 64.085997 
L 142.873649 64.085997 
L 143.170574 63.270336 
L 144.056507 63.199097 
L 144.329018 62.277716 
L 144.920562 63.688085 
L 145.209948 63.688085 
L 145.832498 63.973683 
L 146.606684 64.427839 
L 147.077814 65.047928 
L 147.364629 65.047928 
L 147.523278 64.417046 
L 148.168947 64.417046 
L 148.465423 62.571832 
L 148.621882 62.571832 
L 149.409449 64.334604 
L 149.552707 64.334604 
L 150.059466 65.29181 
L 150.207279 65.29181 
L 150.899233 64.049065 
L 151.502542 64.049065 
L 151.798448 64.308408 
L 152.121225 64.308408 
L 152.433189 64.674755 
L 152.895415 64.674755 
L 153.543688 64.014116 
L 153.674754 63.119515 
L 153.979691 63.119515 
L 154.432454 62.868982 
L 155.117491 62.187048 
L 155.963878 60.428535 
L 157.081053 59.060757 
L 157.244789 59.060757 
L 157.563113 58.227826 
L 158.176362 58.227826 
L 158.320182 60.257993 
L 158.767786 60.257993 
L 159.508256 59.994741 
L 160.144821 58.989518 
L 160.649333 58.723874 
L 161.734322 58.777843 
L 161.901237 59.537143 
L 162.33003 59.537143 
L 162.627647 59.803837 
L 163.362473 59.803837 
L 163.520643 59.577517 
L 163.993735 59.577517 
L 164.311274 59.198101 
L 164.472247 59.198101 
L 165.55549 58.725683 
L 166.154655 58.118313 
L 166.615911 58.118313 
L 167.125336 58.696219 
L 167.409531 57.672967 
L 167.716817 57.672967 
L 168.331259 58.239204 
L 168.943414 58.239204 
L 169.085657 58.654152 
L 169.688093 58.654152 
L 169.849937 58.129749 
L 170.779188 58.129749 
L 171.677977 56.57766 
L 172.36369 56.57766 
L 172.55098 56.716462 
L 172.843797 56.716462 
L 173.304062 56.26073 
L 173.940986 56.26073 
L 174.088538 55.257083 
L 174.786967 55.257083 
L 175.757882 53.568 
L 176.21252 54.791374 
L 176.344454 54.791374 
L 176.937241 54.478529 
L 177.554896 54.478529 
L 177.703338 55.624363 
L 179.247307 55.543089 
L 179.552781 55.072421 
L 180.334266 55.072421 
L 180.487051 56.136456 
L 181.514567 56.136456 
L 181.790712 55.309943 
L 184.007186 55.205914 
L 184.764735 55.180068 
L 185.427669 54.253143 
L 185.864999 54.253143 
L 186.386652 55.946952 
L 186.826116 55.946952 
L 187.144944 55.394426 
L 187.453338 55.394426 
L 188.185491 54.479346 
L 188.974596 54.479346 
L 189.477158 55.480602 
L 190.720857 55.784287 
L 191.027531 55.784287 
L 191.309292 55.243138 
L 191.964356 55.243138 
L 192.290802 55.764333 
L 193.0671 55.764333 
L 193.238886 55.289581 
L 194.190352 55.289581 
L 194.330141 54.938403 
L 195.046873 54.938403 
L 195.391774 56.207287 
L 195.99285 56.207287 
L 196.443502 56.784667 
L 197.089181 56.784667 
L 198.323023 56.90159 
L 198.486197 57.128201 
L 199.105159 57.128201 
L 199.405576 56.465171 
L 200.526487 56.465171 
L 200.70374 56.618559 
L 202.11963 56.618559 
L 202.589877 57.65278 
L 203.578899 59.045646 
L 204.027416 59.045646 
L 205.128585 60.505842 
L 205.726856 60.505842 
L 205.888467 61.238769 
L 207.042471 61.238769 
L 207.386539 60.050577 
L 208.254078 60.050577 
L 208.399452 60.776387 
L 209.448255 60.776387 
L 209.915094 61.843455 
L 210.805393 61.843455 
L 211.958554 62.167444 
L 212.380929 62.995357 
L 214.597212 63.041508 
L 215.052812 63.172259 
L 216.283609 62.37451 
L 216.911015 62.37451 
L 217.232027 64.493186 
L 218.183391 64.493186 
L 218.364957 65.311939 
L 219.349688 65.311939 
L 220.44458 66.72966 
L 220.598952 66.72966 
L 221.113253 67.02821 
L 221.421802 67.02821 
L 222.481071 66.360395 
L 223.135939 66.360395 
L 223.736295 66.072755 
L 225.011132 66.072755 
L 225.605991 66.549316 
L 225.879631 66.549316 
L 226.956752 66.719974 
L 228.034104 66.149829 
L 228.842381 66.149829 
L 229.012756 64.28046 
L 230.393731 63.686102 
L 231.207103 63.686102 
L 231.822993 63.345193 
L 232.974718 63.345193 
L 233.118556 63.704013 
L 236.3539 63.77782 
L 236.798885 64.998335 
L 237.915753 64.998335 
L 240.383969 64.088156 
L 241.256277 64.088156 
L 241.714802 63.835931 
L 243.390727 63.835931 
L 243.707238 65.099738 
L 245.057546 65.099738 
L 245.342188 64.528718 
L 245.924582 64.528718 
L 247.760142 63.783071 
L 248.83505 63.783071 
L 248.974765 63.373607 
L 250.696709 63.373607 
L 250.988598 63.934359 
L 252.513556 63.934359 
L 252.670567 63.306627 
L 253.918517 63.306627 
L 255.153817 63.479036 
L 255.820819 63.479036 
L 255.951848 63.961372 
L 257.205535 63.961372 
L 257.931224 64.347032 
L 259.136495 64.347032 
L 259.449933 64.850431 
L 261.15263 64.850431 
L 261.457603 65.153474 
L 262.235297 65.153474 
L 263.028314 66.488404 
L 264.413637 66.488404 
L 264.613286 65.322324 
L 265.794494 65.322324 
L 266.103021 65.57274 
L 267.06488 65.57274 
L 267.670996 64.251988 
L 268.748456 64.251988 
L 269.36144 64.941799 
L 270.022805 64.941799 
L 271.342673 64.127597 
L 271.956469 64.127597 
L 272.283375 62.13623 
L 273.401294 62.13623 
L 273.573488 61.312926 
L 274.045522 61.312926 
L 277.02428 62.059389 
L 277.763261 62.059389 
L 278.215846 62.615882 
L 279.168218 62.615882 
L 279.978391 63.072664 
L 280.43119 63.072664 
L 280.6218 61.812241 
L 281.431564 61.812241 
L 282.386362 62.299595 
L 283.413261 62.299595 
L 283.566538 62.914783 
L 285.240642 61.478683 
L 285.866579 61.478683 
L 286.963198 62.35158 
L 287.863807 62.35158 
L 288.298309 60.98952 
L 289.497608 60.98952 
L 291.050059 61.688141 
L 293.024663 61.612468 
L 293.33344 60.392653 
L 294.419585 60.392653 
L 294.718065 61.113853 
L 296.035177 61.113853 
L 296.859193 60.70894 
L 297.631665 59.618359 
L 298.500515 59.618359 
L 298.795501 60.399713 
L 300.22254 60.399713 
L 301.089797 61.074004 
L 302.639884 61.364153 
L 304.014879 61.319285 
L 304.917118 61.68044 
L 305.691881 61.68044 
L 306.52805 61.525768 
L 306.669416 61.525768 
L 307.322477 63.162165 
L 308.199706 63.162165 
L 309.012596 63.302484 
L 309.63312 63.061812 
L 311.159061 63.111347 
L 311.760381 63.527287 
L 312.087105 63.527287 
L 312.252948 63.186553 
L 313.124971 63.186553 
L 313.258484 62.440206 
L 313.897125 62.440206 
L 314.23476 63.191629 
L 314.859419 63.191629 
L 315.015848 63.566086 
L 315.752198 63.566086 
L 316.308983 64.298547 
L 316.629058 64.298547 
L 316.967046 64.413312 
L 317.504824 64.413312 
L 317.773656 63.84655 
L 321.441272 63.917264 
L 321.583052 63.056503 
L 321.87303 63.056503 
L 323.426275 62.303854 
L 324.670359 62.3227 
L 325.139841 60.997339 
L 325.854265 60.997339 
L 326.00211 60.594468 
L 326.455719 60.594468 
L 326.801718 59.457619 
L 327.117045 59.457619 
L 327.565462 58.304316 
L 328.313342 58.304316 
L 328.839287 59.183748 
L 329.2094 56.720371 
L 329.662796 56.720371 
L 330.846248 56.963027 
L 331.332941 56.664068 
L 332.210682 56.92452 
L 332.89786 57.317355 
L 333.769361 57.317355 
L 333.925912 57.968834 
L 334.219423 57.968834 
L 334.985233 58.282554 
L 335.631455 58.282554 
L 335.774349 58.697852 
L 336.390023 58.697852 
L 336.680166 59.984356 
L 337.286735 59.984356 
L 337.443456 59.047746 
L 337.761871 59.047746 
L 338.368038 59.311115 
L 338.831457 59.311115 
L 339.278396 60.267912 
L 339.764637 60.267912 
L 340.765729 60.144804 
L 341.378629 61.10831 
L 342.157456 60.814719 
L 342.307789 60.814719 
L 343.187992 60.972017 
L 343.635827 60.972017 
L 343.773934 60.638635 
L 344.22099 60.638635 
L 344.887257 60.271121 
L 345.521286 60.271121 
L 345.674061 60.752524 
L 345.849573 60.752524 
L 346.99429 60.227129 
L 347.332766 59.216421 
L 347.512841 59.216421 
L 348.583037 58.848382 
L 348.753375 58.848382 
L 348.924262 59.326051 
L 349.417873 59.326051 
L 349.87464 58.442652 
L 351.134185 57.516194 
L 351.287402 57.516194 
L 352.022181 57.240515 
L 352.663528 57.240515 
L 353.118287 56.087446 
L 353.707774 56.087446 
L 353.882517 55.860893 
L 354.407511 55.860893 
L 355.012183 55.503765 
L 355.329135 55.503765 
L 356.25401 55.715323 
L 356.721266 55.715323 
L 357.039024 57.276689 
L 357.332126 57.276689 
L 357.603588 57.788723 
L 358.378911 57.788723 
L 359.167831 57.525938 
L 359.678716 59.660659 
L 360.004699 59.660659 
L 360.524037 60.184887 
L 361.445481 60.184887 
L 361.755805 61.568184 
L 362.721172 63.012744 
L 364.256825 63.116714 
L 365.039445 63.695203 
L 365.189411 63.695203 
L 367.115874 62.04387 
L 367.764304 62.04387 
L 368.071268 61.532594 
L 368.235355 61.532594 
L 368.886417 62.027767 
L 369.35681 62.027767 
L 369.515997 61.243845 
L 370.564972 61.275002 
L 371.333889 61.96913 
L 372.224819 61.96913 
L 372.527041 62.805386 
L 373.02305 62.805386 
L 373.491606 62.401349 
L 373.786904 62.401349 
L 374.421866 62.226547 
L 374.921259 62.226547 
L 375.351526 60.878432 
L 375.816258 60.878432 
L 377.049597 59.510479 
L 377.534314 59.510479 
L 378.334621 59.090513 
L 379.324495 59.404 
L 379.478369 58.238445 
L 380.254268 58.238445 
L 380.565105 58.783211 
L 381.191726 58.783211 
L 381.843306 57.614097 
L 382.62752 58.220241 
L 384.035269 58.19352 
L 384.196968 58.631514 
L 384.880821 58.631514 
L 385.142031 57.088935 
L 385.742327 57.088935 
L 386.194828 56.21703 
L 386.493552 56.21703 
L 386.769303 56.660976 
L 387.07031 56.660976 
L 387.719245 55.353877 
L 388.353085 55.353877 
L 388.533636 54.704441 
L 389.277966 54.704441 
L 389.428976 55.577046 
L 390.222593 55.577046 
L 390.508756 55.68936 
L 391.265458 55.68936 
L 391.73491 56.255596 
L 392.189864 56.184649 
L 393.162067 57.945087 
L 393.983944 57.945087 
L 394.272165 57.616781 
L 394.612388 57.616781 
L 395.234409 57.74969 
L 396.332277 57.57063 
L 396.78668 57.797708 
L 397.099155 57.797708 
L 397.51423 57.018513 
L 398.253869 57.018513 
L 398.570953 56.029043 
L 400.090489 55.919005 
L 400.543437 56.456536 
L 401.025788 56.456536 
L 401.625245 56.233133 
L 402.737887 56.051623 
L 403.228396 57.590642 
L 403.396147 57.590642 
L 403.717002 57.043076 
L 404.476978 57.043076 
L 404.620529 57.383927 
L 405.356872 57.383927 
L 405.657912 58.709521 
L 406.086004 58.709521 
L 406.69516 59.624076 
L 407.5542 59.624076 
L 407.834453 60.116857 
L 408.340567 60.116857 
L 409.285081 60.949321 
L 410.176143 62.071642 
L 410.847749 62.071642 
L 411.995799 60.179461 
L 412.319863 60.179461 
L 412.873221 59.532475 
L 413.882766 57.739713 
L 414.079675 57.739713 
L 414.511792 60.266511 
L 414.72 60.266511 
L 414.72 60.266511 
" style="fill:none;stroke:#000000;stroke-linecap:square;stroke-width:0.8;"/>
   </g>
   <g id="patch_3">
    <path d="M 57.6 307.584 
L 57.6 41.472 
" style="fill:none;stroke:#000000;stroke-linecap:square;stroke-linejoin:miter;stroke-width:0.8;"/>
   </g>
   <g id="patch_4">
    <path d="M 414.72 307.584 
L 414.72 41.472 
" style="fill:none;stroke:#000000;stroke-linecap:square;stroke-linejoin:miter;stroke-width:0.8;"/>
   </g>
   <g id="patch_5">
    <path d="M 57.6 307.584 
L 414.72 307.584 
" style="fill:none;stroke:#000000;stroke-linecap:square;stroke-linejoin:miter;stroke-width:0.8;"/>
   </g>
   <g id="patch_6">
    <path d="M 57.6 41.472 
L 414.72 41.472 
" style="fill:none;stroke:#000000;stroke-linecap:square;stroke-linejoin:miter;stroke-width:0.8;"/>
   </g>
  </g>
  <g id="axes_2">
   <g id="matplotlib.axis_3">
    <g id="xtick_7">
     <g id="line2d_28">
      <defs>
       <path d="M 0 0 
L 0 -3.5 
" id="mb92905b902" style="stroke:#000000;stroke-width:0.8;"/>
      </defs>
      <g>
       <use style="stroke:#000000;stroke-width:0.8;" x="57.6" xlink:href="#mb92905b902" y="41.472"/>
      </g>
     </g>
    </g>
    <g id="xtick_8">
     <g id="line2d_29">
      <g>
       <use style="stroke:#000000;stroke-width:0.8;" x="135.133652" xlink:href="#mb92905b902" y="41.472"/>
      </g>
     </g>
     <g id="text_16">
      <!-- 50.0K -->
      <defs>
       <path d="M 9.8125 72.90625 
L 19.671875 72.90625 
L 19.671875 42.09375 
L 52.390625 72.90625 
L 65.09375 72.90625 
L 28.90625 38.921875 
L 67.671875 0 
L 54.6875 0 
L 19.671875 35.109375 
L 19.671875 0 
L 9.8125 0 
z
" id="DejaVuSans-75"/>
      </defs>
      <g transform="translate(120.721933 32.392313)scale(0.1 -0.1)">
       <use xlink:href="#DejaVuSans-53"/>
       <use x="63.623047" xlink:href="#DejaVuSans-48"/>
       <use x="127.246094" xlink:href="#DejaVuSans-46"/>
       <use x="159.033203" xlink:href="#DejaVuSans-48"/>
       <use x="222.65625" xlink:href="#DejaVuSans-75"/>
      </g>
     </g>
    </g>
    <g id="xtick_9">
     <g id="line2d_30">
      <g>
       <use style="stroke:#000000;stroke-width:0.8;" x="212.667304" xlink:href="#mb92905b902" y="41.472"/>
      </g>
     </g>
     <g id="text_17">
      <!-- 100K -->
      <g transform="translate(199.844647 32.392313)scale(0.1 -0.1)">
       <use xlink:href="#DejaVuSans-49"/>
       <use x="63.623047" xlink:href="#DejaVuSans-48"/>
       <use x="127.246094" xlink:href="#DejaVuSans-48"/>
       <use x="190.869141" xlink:href="#DejaVuSans-75"/>
      </g>
     </g>
    </g>
    <g id="xtick_10">
     <g id="line2d_31">
      <g>
       <use style="stroke:#000000;stroke-width:0.8;" x="290.200955" xlink:href="#mb92905b902" y="41.472"/>
      </g>
     </g>
     <g id="text_18">
      <!-- 150K -->
      <g transform="translate(277.378299 32.392313)scale(0.1 -0.1)">
       <use xlink:href="#DejaVuSans-49"/>
       <use x="63.623047" xlink:href="#DejaVuSans-53"/>
       <use x="127.246094" xlink:href="#DejaVuSans-48"/>
       <use x="190.869141" xlink:href="#DejaVuSans-75"/>
      </g>
     </g>
    </g>
    <g id="xtick_11">
     <g id="line2d_32">
      <g>
       <use style="stroke:#000000;stroke-width:0.8;" x="367.734607" xlink:href="#mb92905b902" y="41.472"/>
      </g>
     </g>
     <g id="text_19">
      <!-- 200K -->
      <g transform="translate(354.911951 32.392313)scale(0.1 -0.1)">
       <use xlink:href="#DejaVuSans-50"/>
       <use x="63.623047" xlink:href="#DejaVuSans-48"/>
       <use x="127.246094" xlink:href="#DejaVuSans-48"/>
       <use x="190.869141" xlink:href="#DejaVuSans-75"/>
      </g>
     </g>
    </g>
    <g id="text_20">
     <!-- Train steps -->
     <defs>
      <path d="M -0.296875 72.90625 
L 61.375 72.90625 
L 61.375 64.59375 
L 35.5 64.59375 
L 35.5 0 
L 25.59375 0 
L 25.59375 64.59375 
L -0.296875 64.59375 
z
" id="DejaVuSans-84"/>
      <path d="M 34.28125 27.484375 
Q 23.390625 27.484375 19.1875 25 
Q 14.984375 22.515625 14.984375 16.5 
Q 14.984375 11.71875 18.140625 8.90625 
Q 21.296875 6.109375 26.703125 6.109375 
Q 34.1875 6.109375 38.703125 11.40625 
Q 43.21875 16.703125 43.21875 25.484375 
L 43.21875 27.484375 
z
M 52.203125 31.203125 
L 52.203125 0 
L 43.21875 0 
L 43.21875 8.296875 
Q 40.140625 3.328125 35.546875 0.953125 
Q 30.953125 -1.421875 24.3125 -1.421875 
Q 15.921875 -1.421875 10.953125 3.296875 
Q 6 8.015625 6 15.921875 
Q 6 25.140625 12.171875 29.828125 
Q 18.359375 34.515625 30.609375 34.515625 
L 43.21875 34.515625 
L 43.21875 35.40625 
Q 43.21875 41.609375 39.140625 45 
Q 35.0625 48.390625 27.6875 48.390625 
Q 23 48.390625 18.546875 47.265625 
Q 14.109375 46.140625 10.015625 43.890625 
L 10.015625 52.203125 
Q 14.9375 54.109375 19.578125 55.046875 
Q 24.21875 56 28.609375 56 
Q 40.484375 56 46.34375 49.84375 
Q 52.203125 43.703125 52.203125 31.203125 
z
" id="DejaVuSans-97"/>
      <path d="M 9.421875 54.6875 
L 18.40625 54.6875 
L 18.40625 0 
L 9.421875 0 
z
M 9.421875 75.984375 
L 18.40625 75.984375 
L 18.40625 64.59375 
L 9.421875 64.59375 
z
" id="DejaVuSans-105"/>
      <path d="M 54.890625 33.015625 
L 54.890625 0 
L 45.90625 0 
L 45.90625 32.71875 
Q 45.90625 40.484375 42.875 44.328125 
Q 39.84375 48.1875 33.796875 48.1875 
Q 26.515625 48.1875 22.3125 43.546875 
Q 18.109375 38.921875 18.109375 30.90625 
L 18.109375 0 
L 9.078125 0 
L 9.078125 54.6875 
L 18.109375 54.6875 
L 18.109375 46.1875 
Q 21.34375 51.125 25.703125 53.5625 
Q 30.078125 56 35.796875 56 
Q 45.21875 56 50.046875 50.171875 
Q 54.890625 44.34375 54.890625 33.015625 
z
" id="DejaVuSans-110"/>
      <path id="DejaVuSans-32"/>
      <path d="M 18.3125 70.21875 
L 18.3125 54.6875 
L 36.8125 54.6875 
L 36.8125 47.703125 
L 18.3125 47.703125 
L 18.3125 18.015625 
Q 18.3125 11.328125 20.140625 9.421875 
Q 21.96875 7.515625 27.59375 7.515625 
L 36.8125 7.515625 
L 36.8125 0 
L 27.59375 0 
Q 17.1875 0 13.234375 3.875 
Q 9.28125 7.765625 9.28125 18.015625 
L 9.28125 47.703125 
L 2.6875 47.703125 
L 2.6875 54.6875 
L 9.28125 54.6875 
L 9.28125 70.21875 
z
" id="DejaVuSans-116"/>
      <path d="M 56.203125 29.59375 
L 56.203125 25.203125 
L 14.890625 25.203125 
Q 15.484375 15.921875 20.484375 11.0625 
Q 25.484375 6.203125 34.421875 6.203125 
Q 39.59375 6.203125 44.453125 7.46875 
Q 49.3125 8.734375 54.109375 11.28125 
L 54.109375 2.78125 
Q 49.265625 0.734375 44.1875 -0.34375 
Q 39.109375 -1.421875 33.890625 -1.421875 
Q 20.796875 -1.421875 13.15625 6.1875 
Q 5.515625 13.8125 5.515625 26.8125 
Q 5.515625 40.234375 12.765625 48.109375 
Q 20.015625 56 32.328125 56 
Q 43.359375 56 49.78125 48.890625 
Q 56.203125 41.796875 56.203125 29.59375 
z
M 47.21875 32.234375 
Q 47.125 39.59375 43.09375 43.984375 
Q 39.0625 48.390625 32.421875 48.390625 
Q 24.90625 48.390625 20.390625 44.140625 
Q 15.875 39.890625 15.1875 32.171875 
z
" id="DejaVuSans-101"/>
      <path d="M 18.109375 8.203125 
L 18.109375 -20.796875 
L 9.078125 -20.796875 
L 9.078125 54.6875 
L 18.109375 54.6875 
L 18.109375 46.390625 
Q 20.953125 51.265625 25.265625 53.625 
Q 29.59375 56 35.59375 56 
Q 45.5625 56 51.78125 48.09375 
Q 58.015625 40.1875 58.015625 27.296875 
Q 58.015625 14.40625 51.78125 6.484375 
Q 45.5625 -1.421875 35.59375 -1.421875 
Q 29.59375 -1.421875 25.265625 0.953125 
Q 20.953125 3.328125 18.109375 8.203125 
z
M 48.6875 27.296875 
Q 48.6875 37.203125 44.609375 42.84375 
Q 40.53125 48.484375 33.40625 48.484375 
Q 26.265625 48.484375 22.1875 42.84375 
Q 18.109375 37.203125 18.109375 27.296875 
Q 18.109375 17.390625 22.1875 11.75 
Q 26.265625 6.109375 33.40625 6.109375 
Q 40.53125 6.109375 44.609375 11.75 
Q 48.6875 17.390625 48.6875 27.296875 
z
" id="DejaVuSans-112"/>
     </defs>
     <g transform="translate(208.430312 20.793875)scale(0.1 -0.1)">
      <use xlink:href="#DejaVuSans-84"/>
      <use x="60.865234" xlink:href="#DejaVuSans-114"/>
      <use x="101.978516" xlink:href="#DejaVuSans-97"/>
      <use x="163.257812" xlink:href="#DejaVuSans-105"/>
      <use x="191.041016" xlink:href="#DejaVuSans-110"/>
      <use x="254.419922" xlink:href="#DejaVuSans-32"/>
      <use x="286.207031" xlink:href="#DejaVuSans-115"/>
      <use x="338.306641" xlink:href="#DejaVuSans-116"/>
      <use x="377.515625" xlink:href="#DejaVuSans-101"/>
      <use x="439.039062" xlink:href="#DejaVuSans-112"/>
      <use x="502.515625" xlink:href="#DejaVuSans-115"/>
     </g>
    </g>
   </g>
   <g id="patch_7">
    <path d="M 57.6 307.584 
L 57.6 41.472 
" style="fill:none;stroke:#000000;stroke-linecap:square;stroke-linejoin:miter;stroke-width:0.8;"/>
   </g>
   <g id="patch_8">
    <path d="M 414.72 307.584 
L 414.72 41.472 
" style="fill:none;stroke:#000000;stroke-linecap:square;stroke-linejoin:miter;stroke-width:0.8;"/>
   </g>
   <g id="patch_9">
    <path d="M 57.6 307.584 
L 414.72 307.584 
" style="fill:none;stroke:#000000;stroke-linecap:square;stroke-linejoin:miter;stroke-width:0.8;"/>
   </g>
   <g id="patch_10">
    <path d="M 57.6 41.472 
L 414.72 41.472 
" style="fill:none;stroke:#000000;stroke-linecap:square;stroke-linejoin:miter;stroke-width:0.8;"/>
   </g>
  </g>
 </g>
 <defs>
  <clipPath id="pa391a46222">
   <rect height="266.112" width="357.12" x="57.6" y="41.472"/>
  </clipPath>
 </defs>
</svg>
