<?xml version="1.0" encoding="utf-8" standalone="no"?>
<!DOCTYPE svg PUBLIC "-//W3C//DTD SVG 1.1//EN"
  "http://www.w3.org/Graphics/SVG/1.1/DTD/svg11.dtd">
<!-- Created with matplotlib (https://matplotlib.org/) -->
<svg height="345.6pt" version="1.1" viewBox="0 0 460.8 345.6" width="460.8pt" xmlns="http://www.w3.org/2000/svg" xmlns:xlink="http://www.w3.org/1999/xlink">
 <defs>
  <style type="text/css">
*{stroke-linecap:butt;stroke-linejoin:round;}
  </style>
 </defs>
 <g id="figure_1">
  <g id="patch_1">
   <path d="M 0 345.6 
L 460.8 345.6 
L 460.8 0 
L 0 0 
z
" style="fill:#ffffff;"/>
  </g>
  <g id="axes_1">
   <g id="patch_2">
    <path d="M 57.6 307.584 
L 414.72 307.584 
L 414.72 41.472 
L 57.6 41.472 
z
" style="fill:#ffffff;"/>
   </g>
   <g id="matplotlib.axis_1">
    <g id="xtick_1">
     <g id="line2d_1">
      <path clip-path="url(#p54e0ea8ae3)" d="M 57.6 307.584 
L 57.6 41.472 
" style="fill:none;stroke:#b0b0b0;stroke-linecap:square;stroke-width:0.8;"/>
     </g>
     <g id="line2d_2">
      <defs>
       <path d="M 0 0 
L 0 3.5 
" id="md15df3c4eb" style="stroke:#000000;stroke-width:0.8;"/>
      </defs>
      <g>
       <use style="stroke:#000000;stroke-width:0.8;" x="57.6" xlink:href="#md15df3c4eb" y="307.584"/>
      </g>
     </g>
     <g id="text_1">
      <!-- 0 -->
      <defs>
       <path d="M 31.78125 66.40625 
Q 24.171875 66.40625 20.328125 58.90625 
Q 16.5 51.421875 16.5 36.375 
Q 16.5 21.390625 20.328125 13.890625 
Q 24.171875 6.390625 31.78125 6.390625 
Q 39.453125 6.390625 43.28125 13.890625 
Q 47.125 21.390625 47.125 36.375 
Q 47.125 51.421875 43.28125 58.90625 
Q 39.453125 66.40625 31.78125 66.40625 
z
M 31.78125 74.21875 
Q 44.046875 74.21875 50.515625 64.515625 
Q 56.984375 54.828125 56.984375 36.375 
Q 56.984375 17.96875 50.515625 8.265625 
Q 44.046875 -1.421875 31.78125 -1.421875 
Q 19.53125 -1.421875 13.0625 8.265625 
Q 6.59375 17.96875 6.59375 36.375 
Q 6.59375 54.828125 13.0625 64.515625 
Q 19.53125 74.21875 31.78125 74.21875 
z
" id="DejaVuSans-48"/>
      </defs>
      <g transform="translate(54.41875 322.182437)scale(0.1 -0.1)">
       <use xlink:href="#DejaVuSans-48"/>
      </g>
     </g>
    </g>
    <g id="xtick_2">
     <g id="line2d_3">
      <path clip-path="url(#p54e0ea8ae3)" d="M 122.862024 307.584 
L 122.862024 41.472 
" style="fill:none;stroke:#b0b0b0;stroke-linecap:square;stroke-width:0.8;"/>
     </g>
     <g id="line2d_4">
      <g>
       <use style="stroke:#000000;stroke-width:0.8;" x="122.862024" xlink:href="#md15df3c4eb" y="307.584"/>
      </g>
     </g>
     <g id="text_2">
      <!-- 5 -->
      <defs>
       <path d="M 10.796875 72.90625 
L 49.515625 72.90625 
L 49.515625 64.59375 
L 19.828125 64.59375 
L 19.828125 46.734375 
Q 21.96875 47.46875 24.109375 47.828125 
Q 26.265625 48.1875 28.421875 48.1875 
Q 40.625 48.1875 47.75 41.5 
Q 54.890625 34.8125 54.890625 23.390625 
Q 54.890625 11.625 47.5625 5.09375 
Q 40.234375 -1.421875 26.90625 -1.421875 
Q 22.3125 -1.421875 17.546875 -0.640625 
Q 12.796875 0.140625 7.71875 1.703125 
L 7.71875 11.625 
Q 12.109375 9.234375 16.796875 8.0625 
Q 21.484375 6.890625 26.703125 6.890625 
Q 35.15625 6.890625 40.078125 11.328125 
Q 45.015625 15.765625 45.015625 23.390625 
Q 45.015625 31 40.078125 35.4375 
Q 35.15625 39.890625 26.703125 39.890625 
Q 22.75 39.890625 18.8125 39.015625 
Q 14.890625 38.140625 10.796875 36.28125 
z
" id="DejaVuSans-53"/>
      </defs>
      <g transform="translate(119.680774 322.182437)scale(0.1 -0.1)">
       <use xlink:href="#DejaVuSans-53"/>
      </g>
     </g>
    </g>
    <g id="xtick_3">
     <g id="line2d_5">
      <path clip-path="url(#p54e0ea8ae3)" d="M 188.124048 307.584 
L 188.124048 41.472 
" style="fill:none;stroke:#b0b0b0;stroke-linecap:square;stroke-width:0.8;"/>
     </g>
     <g id="line2d_6">
      <g>
       <use style="stroke:#000000;stroke-width:0.8;" x="188.124048" xlink:href="#md15df3c4eb" y="307.584"/>
      </g>
     </g>
     <g id="text_3">
      <!-- 10 -->
      <defs>
       <path d="M 12.40625 8.296875 
L 28.515625 8.296875 
L 28.515625 63.921875 
L 10.984375 60.40625 
L 10.984375 69.390625 
L 28.421875 72.90625 
L 38.28125 72.90625 
L 38.28125 8.296875 
L 54.390625 8.296875 
L 54.390625 0 
L 12.40625 0 
z
" id="DejaVuSans-49"/>
      </defs>
      <g transform="translate(181.761548 322.182437)scale(0.1 -0.1)">
       <use xlink:href="#DejaVuSans-49"/>
       <use x="63.623047" xlink:href="#DejaVuSans-48"/>
      </g>
     </g>
    </g>
    <g id="xtick_4">
     <g id="line2d_7">
      <path clip-path="url(#p54e0ea8ae3)" d="M 253.386072 307.584 
L 253.386072 41.472 
" style="fill:none;stroke:#b0b0b0;stroke-linecap:square;stroke-width:0.8;"/>
     </g>
     <g id="line2d_8">
      <g>
       <use style="stroke:#000000;stroke-width:0.8;" x="253.386072" xlink:href="#md15df3c4eb" y="307.584"/>
      </g>
     </g>
     <g id="text_4">
      <!-- 15 -->
      <g transform="translate(247.023572 322.182437)scale(0.1 -0.1)">
       <use xlink:href="#DejaVuSans-49"/>
       <use x="63.623047" xlink:href="#DejaVuSans-53"/>
      </g>
     </g>
    </g>
    <g id="xtick_5">
     <g id="line2d_9">
      <path clip-path="url(#p54e0ea8ae3)" d="M 318.648096 307.584 
L 318.648096 41.472 
" style="fill:none;stroke:#b0b0b0;stroke-linecap:square;stroke-width:0.8;"/>
     </g>
     <g id="line2d_10">
      <g>
       <use style="stroke:#000000;stroke-width:0.8;" x="318.648096" xlink:href="#md15df3c4eb" y="307.584"/>
      </g>
     </g>
     <g id="text_5">
      <!-- 20 -->
      <defs>
       <path d="M 19.1875 8.296875 
L 53.609375 8.296875 
L 53.609375 0 
L 7.328125 0 
L 7.328125 8.296875 
Q 12.9375 14.109375 22.625 23.890625 
Q 32.328125 33.6875 34.8125 36.53125 
Q 39.546875 41.84375 41.421875 45.53125 
Q 43.3125 49.21875 43.3125 52.78125 
Q 43.3125 58.59375 39.234375 62.25 
Q 35.15625 65.921875 28.609375 65.921875 
Q 23.96875 65.921875 18.8125 64.3125 
Q 13.671875 62.703125 7.8125 59.421875 
L 7.8125 69.390625 
Q 13.765625 71.78125 18.9375 73 
Q 24.125 74.21875 28.421875 74.21875 
Q 39.75 74.21875 46.484375 68.546875 
Q 53.21875 62.890625 53.21875 53.421875 
Q 53.21875 48.921875 51.53125 44.890625 
Q 49.859375 40.875 45.40625 35.40625 
Q 44.1875 33.984375 37.640625 27.21875 
Q 31.109375 20.453125 19.1875 8.296875 
z
" id="DejaVuSans-50"/>
      </defs>
      <g transform="translate(312.285596 322.182437)scale(0.1 -0.1)">
       <use xlink:href="#DejaVuSans-50"/>
       <use x="63.623047" xlink:href="#DejaVuSans-48"/>
      </g>
     </g>
    </g>
    <g id="xtick_6">
     <g id="line2d_11">
      <path clip-path="url(#p54e0ea8ae3)" d="M 383.91012 307.584 
L 383.91012 41.472 
" style="fill:none;stroke:#b0b0b0;stroke-linecap:square;stroke-width:0.8;"/>
     </g>
     <g id="line2d_12">
      <g>
       <use style="stroke:#000000;stroke-width:0.8;" x="383.91012" xlink:href="#md15df3c4eb" y="307.584"/>
      </g>
     </g>
     <g id="text_6">
      <!-- 25 -->
      <g transform="translate(377.54762 322.182437)scale(0.1 -0.1)">
       <use xlink:href="#DejaVuSans-50"/>
       <use x="63.623047" xlink:href="#DejaVuSans-53"/>
      </g>
     </g>
    </g>
    <g id="text_7">
     <!-- Hours -->
     <defs>
      <path d="M 9.8125 72.90625 
L 19.671875 72.90625 
L 19.671875 43.015625 
L 55.515625 43.015625 
L 55.515625 72.90625 
L 65.375 72.90625 
L 65.375 0 
L 55.515625 0 
L 55.515625 34.71875 
L 19.671875 34.71875 
L 19.671875 0 
L 9.8125 0 
z
" id="DejaVuSans-72"/>
      <path d="M 30.609375 48.390625 
Q 23.390625 48.390625 19.1875 42.75 
Q 14.984375 37.109375 14.984375 27.296875 
Q 14.984375 17.484375 19.15625 11.84375 
Q 23.34375 6.203125 30.609375 6.203125 
Q 37.796875 6.203125 41.984375 11.859375 
Q 46.1875 17.53125 46.1875 27.296875 
Q 46.1875 37.015625 41.984375 42.703125 
Q 37.796875 48.390625 30.609375 48.390625 
z
M 30.609375 56 
Q 42.328125 56 49.015625 48.375 
Q 55.71875 40.765625 55.71875 27.296875 
Q 55.71875 13.875 49.015625 6.21875 
Q 42.328125 -1.421875 30.609375 -1.421875 
Q 18.84375 -1.421875 12.171875 6.21875 
Q 5.515625 13.875 5.515625 27.296875 
Q 5.515625 40.765625 12.171875 48.375 
Q 18.84375 56 30.609375 56 
z
" id="DejaVuSans-111"/>
      <path d="M 8.5 21.578125 
L 8.5 54.6875 
L 17.484375 54.6875 
L 17.484375 21.921875 
Q 17.484375 14.15625 20.5 10.265625 
Q 23.53125 6.390625 29.59375 6.390625 
Q 36.859375 6.390625 41.078125 11.03125 
Q 45.3125 15.671875 45.3125 23.6875 
L 45.3125 54.6875 
L 54.296875 54.6875 
L 54.296875 0 
L 45.3125 0 
L 45.3125 8.40625 
Q 42.046875 3.421875 37.71875 1 
Q 33.40625 -1.421875 27.6875 -1.421875 
Q 18.265625 -1.421875 13.375 4.4375 
Q 8.5 10.296875 8.5 21.578125 
z
M 31.109375 56 
z
" id="DejaVuSans-117"/>
      <path d="M 41.109375 46.296875 
Q 39.59375 47.171875 37.8125 47.578125 
Q 36.03125 48 33.890625 48 
Q 26.265625 48 22.1875 43.046875 
Q 18.109375 38.09375 18.109375 28.8125 
L 18.109375 0 
L 9.078125 0 
L 9.078125 54.6875 
L 18.109375 54.6875 
L 18.109375 46.1875 
Q 20.953125 51.171875 25.484375 53.578125 
Q 30.03125 56 36.53125 56 
Q 37.453125 56 38.578125 55.875 
Q 39.703125 55.765625 41.0625 55.515625 
z
" id="DejaVuSans-114"/>
      <path d="M 44.28125 53.078125 
L 44.28125 44.578125 
Q 40.484375 46.53125 36.375 47.5 
Q 32.28125 48.484375 27.875 48.484375 
Q 21.1875 48.484375 17.84375 46.4375 
Q 14.5 44.390625 14.5 40.28125 
Q 14.5 37.15625 16.890625 35.375 
Q 19.28125 33.59375 26.515625 31.984375 
L 29.59375 31.296875 
Q 39.15625 29.25 43.1875 25.515625 
Q 47.21875 21.78125 47.21875 15.09375 
Q 47.21875 7.46875 41.1875 3.015625 
Q 35.15625 -1.421875 24.609375 -1.421875 
Q 20.21875 -1.421875 15.453125 -0.5625 
Q 10.6875 0.296875 5.421875 2 
L 5.421875 11.28125 
Q 10.40625 8.6875 15.234375 7.390625 
Q 20.0625 6.109375 24.8125 6.109375 
Q 31.15625 6.109375 34.5625 8.28125 
Q 37.984375 10.453125 37.984375 14.40625 
Q 37.984375 18.0625 35.515625 20.015625 
Q 33.0625 21.96875 24.703125 23.78125 
L 21.578125 24.515625 
Q 13.234375 26.265625 9.515625 29.90625 
Q 5.8125 33.546875 5.8125 39.890625 
Q 5.8125 47.609375 11.28125 51.796875 
Q 16.75 56 26.8125 56 
Q 31.78125 56 36.171875 55.265625 
Q 40.578125 54.546875 44.28125 53.078125 
z
" id="DejaVuSans-115"/>
     </defs>
     <g transform="translate(221.511562 335.860562)scale(0.1 -0.1)">
      <use xlink:href="#DejaVuSans-72"/>
      <use x="75.195312" xlink:href="#DejaVuSans-111"/>
      <use x="136.376953" xlink:href="#DejaVuSans-117"/>
      <use x="199.755859" xlink:href="#DejaVuSans-114"/>
      <use x="240.869141" xlink:href="#DejaVuSans-115"/>
     </g>
    </g>
   </g>
   <g id="matplotlib.axis_2">
    <g id="ytick_1">
     <g id="line2d_13">
      <path clip-path="url(#p54e0ea8ae3)" d="M 57.6 294.751827 
L 414.72 294.751827 
" style="fill:none;stroke:#b0b0b0;stroke-linecap:square;stroke-width:0.8;"/>
     </g>
     <g id="line2d_14">
      <defs>
       <path d="M 0 0 
L -3.5 0 
" id="m96ac7e6359" style="stroke:#000000;stroke-width:0.8;"/>
      </defs>
      <g>
       <use style="stroke:#000000;stroke-width:0.8;" x="57.6" xlink:href="#m96ac7e6359" y="294.751827"/>
      </g>
     </g>
     <g id="text_8">
      <!-- 0.25 -->
      <defs>
       <path d="M 10.6875 12.40625 
L 21 12.40625 
L 21 0 
L 10.6875 0 
z
" id="DejaVuSans-46"/>
      </defs>
      <g transform="translate(28.334375 298.551046)scale(0.1 -0.1)">
       <use xlink:href="#DejaVuSans-48"/>
       <use x="63.623047" xlink:href="#DejaVuSans-46"/>
       <use x="95.410156" xlink:href="#DejaVuSans-50"/>
       <use x="159.033203" xlink:href="#DejaVuSans-53"/>
      </g>
     </g>
    </g>
    <g id="ytick_2">
     <g id="line2d_15">
      <path clip-path="url(#p54e0ea8ae3)" d="M 57.6 254.609691 
L 414.72 254.609691 
" style="fill:none;stroke:#b0b0b0;stroke-linecap:square;stroke-width:0.8;"/>
     </g>
     <g id="line2d_16">
      <g>
       <use style="stroke:#000000;stroke-width:0.8;" x="57.6" xlink:href="#m96ac7e6359" y="254.609691"/>
      </g>
     </g>
     <g id="text_9">
      <!-- 0.30 -->
      <defs>
       <path d="M 40.578125 39.3125 
Q 47.65625 37.796875 51.625 33 
Q 55.609375 28.21875 55.609375 21.1875 
Q 55.609375 10.40625 48.1875 4.484375 
Q 40.765625 -1.421875 27.09375 -1.421875 
Q 22.515625 -1.421875 17.65625 -0.515625 
Q 12.796875 0.390625 7.625 2.203125 
L 7.625 11.71875 
Q 11.71875 9.328125 16.59375 8.109375 
Q 21.484375 6.890625 26.8125 6.890625 
Q 36.078125 6.890625 40.9375 10.546875 
Q 45.796875 14.203125 45.796875 21.1875 
Q 45.796875 27.640625 41.28125 31.265625 
Q 36.765625 34.90625 28.71875 34.90625 
L 20.21875 34.90625 
L 20.21875 43.015625 
L 29.109375 43.015625 
Q 36.375 43.015625 40.234375 45.921875 
Q 44.09375 48.828125 44.09375 54.296875 
Q 44.09375 59.90625 40.109375 62.90625 
Q 36.140625 65.921875 28.71875 65.921875 
Q 24.65625 65.921875 20.015625 65.03125 
Q 15.375 64.15625 9.8125 62.3125 
L 9.8125 71.09375 
Q 15.4375 72.65625 20.34375 73.4375 
Q 25.25 74.21875 29.59375 74.21875 
Q 40.828125 74.21875 47.359375 69.109375 
Q 53.90625 64.015625 53.90625 55.328125 
Q 53.90625 49.265625 50.4375 45.09375 
Q 46.96875 40.921875 40.578125 39.3125 
z
" id="DejaVuSans-51"/>
      </defs>
      <g transform="translate(28.334375 258.40891)scale(0.1 -0.1)">
       <use xlink:href="#DejaVuSans-48"/>
       <use x="63.623047" xlink:href="#DejaVuSans-46"/>
       <use x="95.410156" xlink:href="#DejaVuSans-51"/>
       <use x="159.033203" xlink:href="#DejaVuSans-48"/>
      </g>
     </g>
    </g>
    <g id="ytick_3">
     <g id="line2d_17">
      <path clip-path="url(#p54e0ea8ae3)" d="M 57.6 214.467555 
L 414.72 214.467555 
" style="fill:none;stroke:#b0b0b0;stroke-linecap:square;stroke-width:0.8;"/>
     </g>
     <g id="line2d_18">
      <g>
       <use style="stroke:#000000;stroke-width:0.8;" x="57.6" xlink:href="#m96ac7e6359" y="214.467555"/>
      </g>
     </g>
     <g id="text_10">
      <!-- 0.35 -->
      <g transform="translate(28.334375 218.266773)scale(0.1 -0.1)">
       <use xlink:href="#DejaVuSans-48"/>
       <use x="63.623047" xlink:href="#DejaVuSans-46"/>
       <use x="95.410156" xlink:href="#DejaVuSans-51"/>
       <use x="159.033203" xlink:href="#DejaVuSans-53"/>
      </g>
     </g>
    </g>
    <g id="ytick_4">
     <g id="line2d_19">
      <path clip-path="url(#p54e0ea8ae3)" d="M 57.6 174.325418 
L 414.72 174.325418 
" style="fill:none;stroke:#b0b0b0;stroke-linecap:square;stroke-width:0.8;"/>
     </g>
     <g id="line2d_20">
      <g>
       <use style="stroke:#000000;stroke-width:0.8;" x="57.6" xlink:href="#m96ac7e6359" y="174.325418"/>
      </g>
     </g>
     <g id="text_11">
      <!-- 0.40 -->
      <defs>
       <path d="M 37.796875 64.3125 
L 12.890625 25.390625 
L 37.796875 25.390625 
z
M 35.203125 72.90625 
L 47.609375 72.90625 
L 47.609375 25.390625 
L 58.015625 25.390625 
L 58.015625 17.1875 
L 47.609375 17.1875 
L 47.609375 0 
L 37.796875 0 
L 37.796875 17.1875 
L 4.890625 17.1875 
L 4.890625 26.703125 
z
" id="DejaVuSans-52"/>
      </defs>
      <g transform="translate(28.334375 178.124637)scale(0.1 -0.1)">
       <use xlink:href="#DejaVuSans-48"/>
       <use x="63.623047" xlink:href="#DejaVuSans-46"/>
       <use x="95.410156" xlink:href="#DejaVuSans-52"/>
       <use x="159.033203" xlink:href="#DejaVuSans-48"/>
      </g>
     </g>
    </g>
    <g id="ytick_5">
     <g id="line2d_21">
      <path clip-path="url(#p54e0ea8ae3)" d="M 57.6 134.183282 
L 414.72 134.183282 
" style="fill:none;stroke:#b0b0b0;stroke-linecap:square;stroke-width:0.8;"/>
     </g>
     <g id="line2d_22">
      <g>
       <use style="stroke:#000000;stroke-width:0.8;" x="57.6" xlink:href="#m96ac7e6359" y="134.183282"/>
      </g>
     </g>
     <g id="text_12">
      <!-- 0.45 -->
      <g transform="translate(28.334375 137.982501)scale(0.1 -0.1)">
       <use xlink:href="#DejaVuSans-48"/>
       <use x="63.623047" xlink:href="#DejaVuSans-46"/>
       <use x="95.410156" xlink:href="#DejaVuSans-52"/>
       <use x="159.033203" xlink:href="#DejaVuSans-53"/>
      </g>
     </g>
    </g>
    <g id="ytick_6">
     <g id="line2d_23">
      <path clip-path="url(#p54e0ea8ae3)" d="M 57.6 94.041146 
L 414.72 94.041146 
" style="fill:none;stroke:#b0b0b0;stroke-linecap:square;stroke-width:0.8;"/>
     </g>
     <g id="line2d_24">
      <g>
       <use style="stroke:#000000;stroke-width:0.8;" x="57.6" xlink:href="#m96ac7e6359" y="94.041146"/>
      </g>
     </g>
     <g id="text_13">
      <!-- 0.50 -->
      <g transform="translate(28.334375 97.840365)scale(0.1 -0.1)">
       <use xlink:href="#DejaVuSans-48"/>
       <use x="63.623047" xlink:href="#DejaVuSans-46"/>
       <use x="95.410156" xlink:href="#DejaVuSans-53"/>
       <use x="159.033203" xlink:href="#DejaVuSans-48"/>
      </g>
     </g>
    </g>
    <g id="ytick_7">
     <g id="line2d_25">
      <path clip-path="url(#p54e0ea8ae3)" d="M 57.6 53.89901 
L 414.72 53.89901 
" style="fill:none;stroke:#b0b0b0;stroke-linecap:square;stroke-width:0.8;"/>
     </g>
     <g id="line2d_26">
      <g>
       <use style="stroke:#000000;stroke-width:0.8;" x="57.6" xlink:href="#m96ac7e6359" y="53.89901"/>
      </g>
     </g>
     <g id="text_14">
      <!-- 0.55 -->
      <g transform="translate(28.334375 57.698229)scale(0.1 -0.1)">
       <use xlink:href="#DejaVuSans-48"/>
       <use x="63.623047" xlink:href="#DejaVuSans-46"/>
       <use x="95.410156" xlink:href="#DejaVuSans-53"/>
       <use x="159.033203" xlink:href="#DejaVuSans-53"/>
      </g>
     </g>
    </g>
    <g id="text_15">
     <!-- Value loss -->
     <defs>
      <path d="M 28.609375 0 
L 0.78125 72.90625 
L 11.078125 72.90625 
L 34.1875 11.53125 
L 57.328125 72.90625 
L 67.578125 72.90625 
L 39.796875 0 
z
" id="DejaVuSans-86"/>
      <path d="M 34.28125 27.484375 
Q 23.390625 27.484375 19.1875 25 
Q 14.984375 22.515625 14.984375 16.5 
Q 14.984375 11.71875 18.140625 8.90625 
Q 21.296875 6.109375 26.703125 6.109375 
Q 34.1875 6.109375 38.703125 11.40625 
Q 43.21875 16.703125 43.21875 25.484375 
L 43.21875 27.484375 
z
M 52.203125 31.203125 
L 52.203125 0 
L 43.21875 0 
L 43.21875 8.296875 
Q 40.140625 3.328125 35.546875 0.953125 
Q 30.953125 -1.421875 24.3125 -1.421875 
Q 15.921875 -1.421875 10.953125 3.296875 
Q 6 8.015625 6 15.921875 
Q 6 25.140625 12.171875 29.828125 
Q 18.359375 34.515625 30.609375 34.515625 
L 43.21875 34.515625 
L 43.21875 35.40625 
Q 43.21875 41.609375 39.140625 45 
Q 35.0625 48.390625 27.6875 48.390625 
Q 23 48.390625 18.546875 47.265625 
Q 14.109375 46.140625 10.015625 43.890625 
L 10.015625 52.203125 
Q 14.9375 54.109375 19.578125 55.046875 
Q 24.21875 56 28.609375 56 
Q 40.484375 56 46.34375 49.84375 
Q 52.203125 43.703125 52.203125 31.203125 
z
" id="DejaVuSans-97"/>
      <path d="M 9.421875 75.984375 
L 18.40625 75.984375 
L 18.40625 0 
L 9.421875 0 
z
" id="DejaVuSans-108"/>
      <path d="M 56.203125 29.59375 
L 56.203125 25.203125 
L 14.890625 25.203125 
Q 15.484375 15.921875 20.484375 11.0625 
Q 25.484375 6.203125 34.421875 6.203125 
Q 39.59375 6.203125 44.453125 7.46875 
Q 49.3125 8.734375 54.109375 11.28125 
L 54.109375 2.78125 
Q 49.265625 0.734375 44.1875 -0.34375 
Q 39.109375 -1.421875 33.890625 -1.421875 
Q 20.796875 -1.421875 13.15625 6.1875 
Q 5.515625 13.8125 5.515625 26.8125 
Q 5.515625 40.234375 12.765625 48.109375 
Q 20.015625 56 32.328125 56 
Q 43.359375 56 49.78125 48.890625 
Q 56.203125 41.796875 56.203125 29.59375 
z
M 47.21875 32.234375 
Q 47.125 39.59375 43.09375 43.984375 
Q 39.0625 48.390625 32.421875 48.390625 
Q 24.90625 48.390625 20.390625 44.140625 
Q 15.875 39.890625 15.1875 32.171875 
z
" id="DejaVuSans-101"/>
      <path id="DejaVuSans-32"/>
     </defs>
     <g transform="translate(22.254687 199.888156)rotate(-90)scale(0.1 -0.1)">
      <use xlink:href="#DejaVuSans-86"/>
      <use x="68.298828" xlink:href="#DejaVuSans-97"/>
      <use x="129.578125" xlink:href="#DejaVuSans-108"/>
      <use x="157.361328" xlink:href="#DejaVuSans-117"/>
      <use x="220.740234" xlink:href="#DejaVuSans-101"/>
      <use x="282.263672" xlink:href="#DejaVuSans-32"/>
      <use x="314.050781" xlink:href="#DejaVuSans-108"/>
      <use x="341.833984" xlink:href="#DejaVuSans-111"/>
      <use x="403.015625" xlink:href="#DejaVuSans-115"/>
      <use x="455.115234" xlink:href="#DejaVuSans-115"/>
     </g>
    </g>
   </g>
   <g id="line2d_27">
    <path clip-path="url(#p54e0ea8ae3)" d="M 57.6 295.488 
L 58.445962 271.449877 
L 58.673994 272.303936 
L 59.616828 284.132542 
L 59.669904 267.267248 
L 59.75687 281.823723 
L 60.224618 263.002311 
L 60.337013 234.208374 
L 61.096722 236.258642 
L 61.216967 231.500842 
L 62.834505 173.25434 
L 63.00877 175.435176 
L 64.791928 224.50952 
L 65.280618 230.44781 
L 65.427177 227.08323 
L 65.69868 232.74634 
L 65.967107 209.15361 
L 66.738509 206.855199 
L 66.965323 177.316044 
L 67.099028 188.493345 
L 67.512255 186.807144 
L 68.436169 173.424243 
L 68.85724 192.359306 
L 69.517003 200.043853 
L 69.953836 180.067218 
L 70.194055 141.48097 
L 71.163926 134.287325 
L 71.338916 169.57472 
L 71.630097 182.791259 
L 71.862734 205.749767 
L 72.183708 205.796903 
L 72.257037 213.392108 
L 73.591642 164.334082 
L 74.027552 133.677005 
L 74.42572 144.917807 
L 74.512518 140.212119 
L 75.087778 155.667708 
L 75.860403 134.860007 
L 76.466274 141.94359 
L 76.899473 124.450319 
L 78.142491 128.650558 
L 78.369935 121.33137 
L 79.154257 114.97884 
L 82.588167 118.307864 
L 82.640469 120.464319 
L 83.97319 106.315002 
L 84.12888 101.468219 
L 84.195416 106.034056 
L 84.389881 111.221697 
L 84.980113 118.656498 
L 85.755605 107.693101 
L 86.014748 126.109412 
L 86.874856 114.106405 
L 88.374178 180.044081 
L 88.514691 165.144618 
L 90.096848 171.03929 
L 90.210479 164.292665 
L 90.419018 160.739185 
L 91.147806 129.990949 
L 91.701767 119.50436 
L 92.054409 97.041132 
L 92.613628 125.773172 
L 93.002194 156.775843 
L 93.935389 147.343819 
L 94.553512 155.249902 
L 95.236252 158.403784 
L 95.581731 179.678483 
L 96.178703 186.578142 
L 96.336412 171.562085 
L 96.57262 169.305546 
L 96.73775 166.580452 
L 96.813178 172.150464 
L 97.501637 160.753804 
L 98.504075 168.22806 
L 100.317691 239.621044 
L 100.462848 214.110934 
L 101.652549 207.568833 
L 102.457661 180.861461 
L 102.542228 190.058311 
L 102.712269 180.174266 
L 103.24464 204.70944 
L 103.758198 233.895749 
L 103.863786 255.071034 
L 104.226617 227.104477 
L 104.332097 236.196481 
L 104.450832 219.831922 
L 104.757885 216.962767 
L 104.878728 215.412707 
L 105.259987 218.227501 
L 106.905323 147.489699 
L 107.121084 123.226283 
L 107.604384 128.793041 
L 108.314507 177.155473 
L 108.673395 184.344955 
L 108.816225 190.839825 
L 109.350532 186.093653 
L 109.7207 189.177286 
L 109.761748 188.117219 
L 109.806765 180.191373 
L 109.89617 182.65928 
L 109.941987 176.203243 
L 110.371424 181.984766 
L 110.601447 190.460612 
L 110.710033 189.644884 
L 111.115555 161.664761 
L 111.166399 170.61366 
L 111.224403 155.666607 
L 111.63757 154.586848 
L 111.756767 149.512452 
L 111.917479 167.712825 
L 112.127936 175.365263 
L 112.157488 169.540792 
L 113.327376 175.31205 
L 113.479073 180.762022 
L 113.936826 158.143989 
L 115.673572 137.530548 
L 115.900345 165.537349 
L 115.97997 151.654503 
L 116.327298 158.441492 
L 117.310578 192.198424 
L 117.568754 184.301528 
L 117.796084 168.145131 
L 118.09998 164.762654 
L 119.00586 168.649862 
L 119.045313 156.244195 
L 119.551949 169.848057 
L 119.643387 180.428725 
L 120.131868 174.947505 
L 120.493235 182.641359 
L 120.600552 205.059701 
L 120.635305 189.976315 
L 121.113768 175.580076 
L 121.155054 170.936046 
L 121.559073 183.576816 
L 121.600678 181.117954 
L 121.789367 179.505709 
L 122.44236 115.346065 
L 122.907327 111.147668 
L 123.04319 124.234334 
L 123.565506 121.396378 
L 123.649441 153.734464 
L 124.083834 156.167295 
L 124.690408 199.176849 
L 125.124113 187.7248 
L 125.761743 204.032341 
L 126.125343 210.131418 
L 126.243561 197.868568 
L 126.511035 187.438566 
L 126.629691 198.442088 
L 126.759623 194.992474 
L 127.009827 202.649361 
L 127.23454 165.90668 
L 127.724237 190.955486 
L 128.133397 199.389054 
L 128.316113 170.762076 
L 128.923681 147.458427 
L 129.299158 123.889265 
L 130.025922 153.219157 
L 131.272627 174.840098 
L 131.304986 160.111854 
L 131.599024 148.377232 
L 131.629153 160.002246 
L 131.664314 158.501763 
L 132.597833 187.983757 
L 133.107669 188.13002 
L 133.146518 197.82696 
L 133.561201 151.950235 
L 133.734746 173.294106 
L 135.355727 141.361145 
L 135.44749 142.182712 
L 136.053678 120.661593 
L 136.660086 123.060352 
L 136.951142 108.590419 
L 137.08818 111.658118 
L 138.370345 127.711751 
L 138.645288 127.67342 
L 138.98067 146.014673 
L 139.312904 175.633528 
L 139.771964 181.601606 
L 139.961157 197.323233 
L 140.198131 186.087552 
L 140.469713 135.019621 
L 140.822662 163.630497 
L 140.928031 161.328353 
L 140.965252 158.640489 
L 141.918521 116.065274 
L 142.826647 107.098167 
L 143.608683 116.311239 
L 143.888022 110.44583 
L 143.930656 121.649019 
L 144.019771 118.960318 
L 144.070895 113.605215 
L 145.42253 143.885088 
L 145.968336 115.565089 
L 146.177498 120.987689 
L 146.457166 103.236273 
L 146.65072 115.739178 
L 147.215882 108.638464 
L 148.402063 156.343155 
L 148.433356 164.442995 
L 148.94025 170.970142 
L 149.36351 164.085054 
L 149.398597 149.039663 
L 149.660431 145.36545 
L 149.739056 146.914767 
L 150.547932 184.767188 
L 151.180947 180.085211 
L 151.218904 175.114201 
L 151.316688 183.461921 
L 152.529294 179.955146 
L 152.55521 192.096425 
L 152.612044 190.881361 
L 153.400961 179.797924 
L 153.438939 170.77928 
L 153.963109 169.460159 
L 154.192929 170.125318 
L 154.475167 177.341311 
L 154.80345 167.177731 
L 155.199852 164.001717 
L 155.234878 152.27389 
L 155.562328 178.048916 
L 155.951814 166.649504 
L 156.261712 176.55872 
L 156.570548 159.614325 
L 156.766366 110.318804 
L 157.009649 102.387693 
L 157.428532 131.039268 
L 157.574381 112.634633 
L 158.031073 113.364274 
L 158.537878 123.133161 
L 158.721714 116.887319 
L 158.849344 132.625983 
L 159.284046 139.205863 
L 159.719963 151.610813 
L 159.880355 177.982448 
L 160.177104 170.267705 
L 160.545179 181.655919 
L 160.941077 204.442945 
L 161.332293 194.473554 
L 161.431452 178.286865 
L 161.490054 195.356947 
L 161.578361 194.808981 
L 161.885681 183.588827 
L 162.0134 184.735628 
L 162.04513 181.645702 
L 163.00366 128.884392 
L 163.490286 129.29514 
L 163.935991 121.874312 
L 164.363197 127.54716 
L 164.400995 129.566515 
L 164.97021 109.487116 
L 165.299035 81.447727 
L 165.996106 85.540224 
L 166.604795 53.568 
L 166.935688 116.745267 
L 167.570511 126.058951 
L 167.778134 122.852574 
L 168.165097 145.081226 
L 168.363524 149.005902 
L 169.251935 103.157627 
L 169.906484 108.662008 
L 169.959378 103.842645 
L 170.012635 125.183477 
L 171.536881 150.462289 
L 171.71896 146.289805 
L 172.057585 164.45204 
L 172.40194 146.236234 
L 172.524475 163.504499 
L 172.588343 156.02864 
L 172.796855 148.569601 
L 173.10195 128.027917 
L 173.300088 114.452742 
L 173.401208 133.295879 
L 174.132057 108.831528 
L 174.342252 137.030291 
L 174.807491 147.058423 
L 174.858732 138.692423 
L 175.467101 167.09272 
L 175.874869 129.689761 
L 176.345872 142.332445 
L 176.499011 113.058564 
L 176.957836 84.233403 
L 177.308955 126.808307 
L 177.428678 103.084579 
L 177.55538 121.919342 
L 177.915152 139.88265 
L 179.007454 181.376361 
L 179.698905 167.276141 
L 179.74441 174.818397 
L 179.896208 153.956383 
L 179.943915 170.993901 
L 180.29589 140.220853 
L 180.555389 137.926581 
L 180.709435 147.044186 
L 180.77014 168.24957 
L 181.48647 169.800754 
L 181.628643 162.731264 
L 182.040766 174.26007 
L 182.083624 170.795908 
L 183.032706 126.03177 
L 183.156315 135.198233 
L 183.200164 123.014341 
L 183.572031 104.160796 
L 183.659903 105.095105 
L 183.881876 108.883185 
L 184.302279 140.531491 
L 184.592574 147.601245 
L 184.654964 156.939166 
L 184.706214 185.921597 
L 184.823855 160.406151 
L 185.28216 157.532808 
L 185.496444 166.032964 
L 185.600995 145.035215 
L 185.731742 142.391256 
L 185.974153 129.1818 
L 186.272853 103.571604 
L 186.593768 104.673423 
L 187.257793 119.136776 
L 187.574712 104.348094 
L 187.652524 128.832376 
L 187.846473 135.842935 
L 187.877024 146.953959 
L 188.093056 120.53093 
L 188.216777 142.350151 
L 188.383043 131.107793 
L 188.425318 145.015858 
L 188.877738 139.57115 
L 189.005927 141.526933 
L 189.290704 164.105248 
L 190.158029 163.757858 
L 190.579813 145.606007 
L 190.790295 127.988773 
L 191.14695 132.471537 
L 191.291718 126.29714 
L 191.477843 142.836769 
L 192.094046 150.46607 
L 192.141874 134.294072 
L 192.217143 137.967615 
L 192.853365 110.782118 
L 193.314795 129.128611 
L 193.782776 160.168393 
L 194.671548 117.639236 
L 195.594241 113.244761 
L 195.633173 111.735568 
L 195.70632 100.065308 
L 196.17108 107.408494 
L 196.250332 111.802467 
L 196.410624 131.229891 
L 196.954012 150.3127 
L 197.468966 148.866075 
L 197.505298 154.43659 
L 198.089346 111.957966 
L 198.572967 140.540655 
L 198.944335 148.353807 
L 198.985513 143.549399 
L 199.062784 144.021518 
L 199.1383 143.563348 
L 200.944451 112.375484 
L 201.576091 118.921605 
L 201.830624 119.036045 
L 202.020187 130.745856 
L 202.066035 117.721974 
L 202.847474 107.807901 
L 203.684993 146.530483 
L 203.875241 124.185021 
L 203.980549 136.96868 
L 204.718214 148.235562 
L 205.09361 76.251305 
L 205.195896 133.76685 
L 205.335329 133.200197 
L 205.962343 91.880385 
L 206.620999 149.926789 
L 206.858313 150.03374 
L 207.62452 152.226252 
L 207.736901 161.486508 
L 208.293916 105.666807 
L 208.623065 160.919089 
L 209.778102 176.667227 
L 210.276155 147.583037 
L 210.331679 148.755702 
L 210.902238 147.450412 
L 211.213646 148.372662 
L 211.703525 111.678671 
L 211.962305 134.888265 
L 213.14523 172.215113 
L 213.439516 163.229942 
L 213.631196 197.054873 
L 213.920061 206.636391 
L 214.417544 198.456276 
L 214.759959 166.735209 
L 215.272807 183.229594 
L 215.780437 175.434076 
L 216.014999 182.322131 
L 216.207496 183.725735 
L 216.608376 146.326341 
L 216.643289 155.910945 
L 216.709561 149.085075 
L 217.160164 138.113711 
L 218.227993 156.080872 
L 218.260779 152.512199 
L 218.293018 157.542522 
L 219.15306 115.031311 
L 219.22125 120.995536 
L 219.802519 67.172796 
L 219.842301 73.358582 
L 219.958415 89.861556 
L 220.162252 85.066813 
L 220.186952 86.986538 
L 220.239807 110.524788 
L 221.114981 146.703065 
L 221.530755 136.133619 
L 222.041744 142.389438 
L 222.073635 139.710858 
L 222.507804 128.81077 
L 222.540314 119.788656 
L 222.74457 151.863812 
L 222.99646 148.469157 
L 223.212495 162.812878 
L 223.528689 150.704785 
L 224.332404 130.807036 
L 224.566147 161.037956 
L 224.608046 154.348253 
L 224.652179 146.624825 
L 225.189673 179.717172 
L 226.000742 186.440612 
L 226.726393 160.663027 
L 227.130658 160.807448 
L 227.167322 150.3244 
L 227.442042 136.56468 
L 228.031619 190.449463 
L 228.297244 186.056352 
L 228.457423 186.615707 
L 228.523247 178.056716 
L 228.588212 190.372467 
L 228.850691 168.666204 
L 228.980405 152.897058 
L 229.01245 155.280791 
L 229.804746 191.965355 
L 230.218771 203.852653 
L 230.300463 203.043169 
L 230.328847 199.302201 
L 230.73206 213.43386 
L 231.423089 170.826056 
L 231.626819 178.133783 
L 231.698669 169.534667 
L 232.420567 178.338355 
L 233.093581 190.575269 
L 234.008032 215.209523 
L 234.607417 178.365823 
L 234.811452 182.115812 
L 235.284057 142.465166 
L 235.4197 154.097646 
L 235.758624 152.629439 
L 235.817084 148.691196 
L 236.551291 187.62103 
L 237.315459 136.250405 
L 237.566156 184.272506 
L 237.600694 179.380812 
L 237.993499 169.612093 
L 238.075764 173.726149 
L 239.338602 209.551413 
L 239.4412 190.687054 
L 239.816304 163.758336 
L 239.932357 168.138503 
L 240.047608 148.44827 
L 240.085538 148.979368 
L 241.172613 140.752812 
L 241.561965 144.910103 
L 242.146796 165.527348 
L 242.23111 180.960636 
L 242.316183 163.539576 
L 242.784184 115.676323 
L 243.524979 129.235156 
L 243.614686 135.620394 
L 244.033835 124.602085 
L 244.509355 149.552266 
L 244.768101 156.097357 
L 244.961022 154.951418 
L 245.180707 158.095537 
L 245.574576 155.749752 
L 245.911313 143.592466 
L 246.777535 205.380245 
L 247.320265 210.949276 
L 247.394659 225.818113 
L 247.607579 217.379783 
L 247.925303 159.175775 
L 248.928859 159.378241 
L 249.353856 133.553161 
L 250.421495 143.23273 
L 250.810658 144.326127 
L 250.963829 141.692744 
L 251.376413 125.436788 
L 251.747567 151.885801 
L 252.11493 142.397549 
L 252.21517 142.734986 
L 252.520191 137.746581 
L 252.78248 135.659921 
L 253.102722 179.858028 
L 253.633391 175.100778 
L 254.286286 155.868117 
L 254.44319 170.045236 
L 254.939251 169.507486 
L 255.154505 179.616489 
L 255.690195 195.692829 
L 256.210163 185.804165 
L 256.820029 201.644397 
L 256.890292 193.703118 
L 257.231817 182.550845 
L 257.372369 167.225034 
L 257.589026 174.14216 
L 258.155109 177.32662 
L 258.729005 188.144113 
L 259.057965 171.298917 
L 259.627809 163.997506 
L 259.653227 172.850197 
L 260.066358 152.077022 
L 260.680719 143.577512 
L 260.961003 150.213381 
L 261.032298 148.229724 
L 261.231458 123.71819 
L 261.507051 119.107849 
L 262.381353 127.21793 
L 262.919359 139.975605 
L 263.319224 143.239549 
L 265.018605 96.887284 
L 265.441729 110.631955 
L 265.53353 107.447184 
L 266.48025 162.885064 
L 266.580008 156.536147 
L 266.847838 169.334162 
L 266.918175 150.845234 
L 267.31275 168.622466 
L 267.366751 156.324971 
L 267.766773 155.535154 
L 268.166401 129.811356 
L 268.310578 152.553353 
L 268.858319 175.558805 
L 269.185351 173.585771 
L 269.901661 144.142706 
L 270.194168 136.899437 
L 270.869215 188.045248 
L 271.208487 180.434659 
L 271.257741 191.541854 
L 271.763028 194.763712 
L 271.826359 196.917702 
L 271.890192 184.236209 
L 272.731025 186.298823 
L 273.574309 149.452181 
L 274.37567 141.722676 
L 275.991554 130.358676 
L 276.014006 145.891452 
L 276.040561 131.784963 
L 276.496193 146.647316 
L 276.993735 186.440876 
L 277.458152 211.788836 
L 277.988328 193.555348 
L 278.605237 199.757978 
L 278.84271 182.853037 
L 279.252091 196.08087 
L 280.18416 201.309904 
L 280.315951 210.743651 
L 280.889236 197.314811 
L 281.225041 161.180965 
L 281.45727 149.213298 
L 281.709628 154.905455 
L 281.754909 153.732406 
L 282.387302 151.688383 
L 282.429741 140.84225 
L 283.154587 159.555944 
L 283.243468 172.252678 
L 283.279252 171.149519 
L 283.742247 176.677659 
L 283.875238 199.336655 
L 283.923221 180.694764 
L 284.17142 186.286812 
L 284.485063 176.764322 
L 285.758764 192.02352 
L 286.605688 193.790785 
L 286.903776 196.579906 
L 286.932098 221.674986 
L 286.987599 206.169822 
L 287.428852 190.942924 
L 290.102118 199.272484 
L 290.844059 206.97543 
L 290.871346 206.824669 
L 291.312942 229.454689 
L 291.342255 228.441279 
L 291.407428 214.153906 
L 291.608161 203.103775 
L 291.708791 210.471079 
L 291.740215 207.568139 
L 291.797899 200.094912 
L 292.79813 186.586852 
L 293.213015 172.13094 
L 293.521214 181.544469 
L 293.691743 190.199143 
L 294.325807 146.536249 
L 294.858418 167.069559 
L 294.981511 148.222259 
L 295.025572 150.040129 
L 295.987087 166.406554 
L 297.020253 182.046305 
L 297.173936 173.321407 
L 297.684264 177.906983 
L 297.902136 183.460725 
L 298.302433 183.05883 
L 298.43453 165.265998 
L 299.053053 151.153026 
L 299.444863 149.716474 
L 300.085401 195.4778 
L 300.432837 188.534882 
L 300.860322 183.555139 
L 301.492356 164.8157 
L 301.879112 160.371577 
L 302.000121 152.438122 
L 302.12308 155.228416 
L 302.396774 110.737351 
L 302.424202 151.017027 
L 303.343257 187.761288 
L 303.391311 179.218471 
L 303.711577 192.486882 
L 303.812142 170.73413 
L 305.62914 138.397097 
L 306.140671 168.89243 
L 306.697085 146.70029 
L 306.794053 157.865316 
L 308.034348 116.479347 
L 309.408514 118.740409 
L 309.466213 128.818211 
L 309.652331 131.626928 
L 310.191619 151.349965 
L 310.296529 144.917377 
L 310.910325 179.997017 
L 311.026881 170.531209 
L 311.089873 150.697129 
L 312.097758 145.178559 
L 312.359783 144.400275 
L 312.83197 177.6904 
L 312.924554 196.183778 
L 313.403892 229.031332 
L 313.490456 206.692092 
L 313.552527 217.840322 
L 313.777566 211.623503 
L 314.361163 217.284172 
L 315.362172 183.137309 
L 315.943281 173.639726 
L 316.315587 176.879911 
L 316.548536 183.634144 
L 316.981319 166.590549 
L 317.306187 179.36672 
L 317.646653 158.085297 
L 317.687433 144.261932 
L 318.293948 149.784736 
L 319.835199 102.247412 
L 320.126275 63.109584 
L 320.551298 72.078414 
L 320.861948 123.728478 
L 321.590946 135.079653 
L 322.038471 128.396697 
L 322.398811 107.809958 
L 322.822708 118.493869 
L 322.873284 122.679274 
L 323.514223 136.223344 
L 323.878357 167.245396 
L 324.062196 137.99939 
L 324.319353 134.549153 
L 324.386239 125.80686 
L 324.760162 109.040957 
L 325.282413 146.859234 
L 325.399965 159.378265 
L 325.566582 149.420478 
L 325.755542 164.733057 
L 326.121666 178.469234 
L 326.837297 136.135102 
L 327.041632 145.797444 
L 328.416781 141.166551 
L 328.473199 151.219183 
L 328.801523 176.654451 
L 329.200965 191.762697 
L 329.705414 185.195401 
L 330.724925 179.857789 
L 330.816393 165.187662 
L 331.942349 191.432486 
L 332.160661 173.706002 
L 332.216824 193.430642 
L 333.47311 154.450515 
L 334.949442 151.382912 
L 335.029765 164.430458 
L 335.588665 180.217429 
L 336.037726 181.182843 
L 336.50344 174.61337 
L 336.790613 146.387665 
L 337.791847 131.952545 
L 338.288976 152.604986 
L 339.384098 176.350918 
L 339.599956 170.043107 
L 339.871074 153.174223 
L 340.135926 150.845713 
L 340.962586 138.362404 
L 341.048671 139.057638 
L 341.090858 138.073873 
L 341.581369 137.800919 
L 342.670183 141.22687 
L 343.983907 195.787554 
L 344.017833 179.214092 
L 344.446825 205.980396 
L 345.138366 193.213557 
L 345.417714 173.514422 
L 345.687678 172.596886 
L 345.830248 160.466877 
L 347.461491 170.772269 
L 347.715614 184.186418 
L 348.740612 173.746845 
L 348.950834 162.559136 
L 350.22003 150.717227 
L 350.808443 149.456679 
L 351.034283 165.488132 
L 352.411202 205.516555 
L 352.597473 190.083434 
L 352.769459 199.601809 
L 353.064106 198.731073 
L 353.117531 212.513619 
L 353.373259 240.896403 
L 354.13729 258.688517 
L 354.664146 239.472867 
L 354.891494 224.238408 
L 356.000183 228.214072 
L 357.087873 165.660093 
L 357.617939 151.903243 
L 358.279695 162.464746 
L 358.318707 161.438798 
L 359.038382 150.864758 
L 359.272781 158.02103 
L 359.823424 187.20533 
L 360.616543 171.921199 
L 360.735059 159.462176 
L 360.988019 172.859097 
L 361.276543 161.650022 
L 361.678961 159.433655 
L 361.826632 165.783554 
L 362.326255 136.866921 
L 362.885315 154.681646 
L 363.642815 184.122342 
L 363.786124 201.179887 
L 364.231984 192.442786 
L 364.576884 166.731022 
L 365.155047 154.945436 
L 365.610226 162.968807 
L 366.003276 167.867271 
L 366.148752 157.91037 
L 366.501057 164.003608 
L 366.726402 150.340982 
L 367.065663 147.273738 
L 367.184303 155.812966 
L 367.270041 148.241089 
L 368.135317 188.699138 
L 368.615529 161.995354 
L 368.788369 162.274171 
L 369.090033 150.016202 
L 369.303074 125.053747 
L 369.667886 156.837311 
L 369.978089 146.411855 
L 370.445317 135.138943 
L 370.543236 146.204842 
L 370.584569 144.179194 
L 371.239277 104.410255 
L 371.278588 117.756596 
L 371.692056 123.909578 
L 372.41498 132.239401 
L 372.801425 126.455916 
L 373.321895 161.89704 
L 373.411914 146.088678 
L 374.065875 132.946479 
L 374.156092 138.331299 
L 375.925421 150.273365 
L 376.202244 167.173855 
L 376.313348 163.171058 
L 376.994874 150.341484 
L 377.28565 166.045502 
L 377.725195 157.353861 
L 378.642171 158.621683 
L 379.518733 154.341745 
L 380.051473 149.872045 
L 380.236376 146.667965 
L 380.441337 139.678533 
L 381.550398 151.31386 
L 382.274524 162.830344 
L 382.75554 168.575091 
L 382.941845 184.934626 
L 383.376701 176.883261 
L 383.625465 184.24968 
L 383.771174 184.156151 
L 384.097357 183.712432 
L 384.293735 178.275596 
L 384.36479 155.430308 
L 384.872366 156.9763 
L 385.050539 156.957087 
L 385.879236 122.00184 
L 386.128308 140.042767 
L 386.883468 178.40267 
L 386.944333 175.855088 
L 387.716821 183.423256 
L 387.800549 194.476617 
L 387.858891 180.340531 
L 388.256102 181.913823 
L 388.790379 194.955794 
L 389.153737 196.245198 
L 389.212805 204.711952 
L 389.386809 194.981778 
L 389.613934 207.465518 
L 389.918058 231.264161 
L 390.421417 214.881394 
L 390.598669 221.630746 
L 390.922269 220.20075 
L 391.170685 216.019605 
L 391.345955 209.149064 
L 391.390218 201.681077 
L 392.412944 174.68649 
L 392.650858 155.76272 
L 392.883114 149.916285 
L 392.908768 161.22298 
L 392.988525 149.876997 
L 393.369559 168.878265 
L 394.285106 180.935346 
L 394.787397 145.630269 
L 395.345655 146.772404 
L 395.562136 139.177151 
L 395.890915 136.179965 
L 395.940013 125.466002 
L 396.125818 135.755866 
L 396.58436 141.206723 
L 396.695571 130.079716 
L 396.851145 130.670583 
L 397.192244 129.069105 
L 398.108813 102.901923 
L 398.249305 114.79092 
L 398.511915 121.677611 
L 399.168789 177.346623 
L 399.368167 182.107772 
L 399.503955 172.299287 
L 399.652702 187.021526 
L 400.069549 208.2979 
L 400.633056 184.895769 
L 401.18734 187.286321 
L 401.604361 174.893024 
L 401.684122 177.025193 
L 402.142377 222.536247 
L 402.741144 180.767166 
L 402.930195 197.174027 
L 403.154778 191.694697 
L 403.188267 174.724533 
L 403.400786 172.029874 
L 403.831765 163.255136 
L 404.235349 160.261108 
L 404.381048 139.213257 
L 404.751063 140.960327 
L 404.885893 146.382712 
L 405.97184 173.534066 
L 406.673727 154.682244 
L 406.722572 161.827964 
L 406.825701 139.499466 
L 407.278443 149.772845 
L 407.331273 140.799804 
L 407.585546 145.393659 
L 407.99767 147.527048 
L 408.14709 189.386859 
L 408.412449 195.660408 
L 408.543186 215.487645 
L 409.600866 181.930548 
L 410.077383 161.559867 
L 410.747062 151.378869 
L 411.239197 151.661083 
L 412.535114 109.329583 
L 412.666661 123.83543 
L 412.862536 109.078282 
L 412.918539 122.343249 
L 413.444777 133.917755 
L 414.679942 150.667292 
L 414.72 149.117807 
L 414.72 149.117807 
" style="fill:none;stroke:#000000;stroke-linecap:square;stroke-width:0.8;"/>
   </g>
   <g id="patch_3">
    <path d="M 57.6 307.584 
L 57.6 41.472 
" style="fill:none;stroke:#000000;stroke-linecap:square;stroke-linejoin:miter;stroke-width:0.8;"/>
   </g>
   <g id="patch_4">
    <path d="M 414.72 307.584 
L 414.72 41.472 
" style="fill:none;stroke:#000000;stroke-linecap:square;stroke-linejoin:miter;stroke-width:0.8;"/>
   </g>
   <g id="patch_5">
    <path d="M 57.6 307.584 
L 414.72 307.584 
" style="fill:none;stroke:#000000;stroke-linecap:square;stroke-linejoin:miter;stroke-width:0.8;"/>
   </g>
   <g id="patch_6">
    <path d="M 57.6 41.472 
L 414.72 41.472 
" style="fill:none;stroke:#000000;stroke-linecap:square;stroke-linejoin:miter;stroke-width:0.8;"/>
   </g>
  </g>
  <g id="axes_2">
   <g id="matplotlib.axis_3">
    <g id="xtick_7">
     <g id="line2d_28">
      <defs>
       <path d="M 0 0 
L 0 -3.5 
" id="m0ba5f2e49a" style="stroke:#000000;stroke-width:0.8;"/>
      </defs>
      <g>
       <use style="stroke:#000000;stroke-width:0.8;" x="57.6" xlink:href="#m0ba5f2e49a" y="41.472"/>
      </g>
     </g>
    </g>
    <g id="xtick_8">
     <g id="line2d_29">
      <g>
       <use style="stroke:#000000;stroke-width:0.8;" x="113.798659" xlink:href="#m0ba5f2e49a" y="41.472"/>
      </g>
     </g>
     <g id="text_16">
      <!-- 10.0K -->
      <defs>
       <path d="M 9.8125 72.90625 
L 19.671875 72.90625 
L 19.671875 42.09375 
L 52.390625 72.90625 
L 65.09375 72.90625 
L 28.90625 38.921875 
L 67.671875 0 
L 54.6875 0 
L 19.671875 35.109375 
L 19.671875 0 
L 9.8125 0 
z
" id="DejaVuSans-75"/>
      </defs>
      <g transform="translate(99.38694 32.392313)scale(0.1 -0.1)">
       <use xlink:href="#DejaVuSans-49"/>
       <use x="63.623047" xlink:href="#DejaVuSans-48"/>
       <use x="127.246094" xlink:href="#DejaVuSans-46"/>
       <use x="159.033203" xlink:href="#DejaVuSans-48"/>
       <use x="222.65625" xlink:href="#DejaVuSans-75"/>
      </g>
     </g>
    </g>
    <g id="xtick_9">
     <g id="line2d_30">
      <g>
       <use style="stroke:#000000;stroke-width:0.8;" x="169.997318" xlink:href="#m0ba5f2e49a" y="41.472"/>
      </g>
     </g>
     <g id="text_17">
      <!-- 20.0K -->
      <g transform="translate(155.5856 32.392313)scale(0.1 -0.1)">
       <use xlink:href="#DejaVuSans-50"/>
       <use x="63.623047" xlink:href="#DejaVuSans-48"/>
       <use x="127.246094" xlink:href="#DejaVuSans-46"/>
       <use x="159.033203" xlink:href="#DejaVuSans-48"/>
       <use x="222.65625" xlink:href="#DejaVuSans-75"/>
      </g>
     </g>
    </g>
    <g id="xtick_10">
     <g id="line2d_31">
      <g>
       <use style="stroke:#000000;stroke-width:0.8;" x="226.195978" xlink:href="#m0ba5f2e49a" y="41.472"/>
      </g>
     </g>
     <g id="text_18">
      <!-- 30.0K -->
      <g transform="translate(211.784259 32.392313)scale(0.1 -0.1)">
       <use xlink:href="#DejaVuSans-51"/>
       <use x="63.623047" xlink:href="#DejaVuSans-48"/>
       <use x="127.246094" xlink:href="#DejaVuSans-46"/>
       <use x="159.033203" xlink:href="#DejaVuSans-48"/>
       <use x="222.65625" xlink:href="#DejaVuSans-75"/>
      </g>
     </g>
    </g>
    <g id="xtick_11">
     <g id="line2d_32">
      <g>
       <use style="stroke:#000000;stroke-width:0.8;" x="282.394637" xlink:href="#m0ba5f2e49a" y="41.472"/>
      </g>
     </g>
     <g id="text_19">
      <!-- 40.0K -->
      <g transform="translate(267.982918 32.392313)scale(0.1 -0.1)">
       <use xlink:href="#DejaVuSans-52"/>
       <use x="63.623047" xlink:href="#DejaVuSans-48"/>
       <use x="127.246094" xlink:href="#DejaVuSans-46"/>
       <use x="159.033203" xlink:href="#DejaVuSans-48"/>
       <use x="222.65625" xlink:href="#DejaVuSans-75"/>
      </g>
     </g>
    </g>
    <g id="xtick_12">
     <g id="line2d_33">
      <g>
       <use style="stroke:#000000;stroke-width:0.8;" x="338.593296" xlink:href="#m0ba5f2e49a" y="41.472"/>
      </g>
     </g>
     <g id="text_20">
      <!-- 50.0K -->
      <g transform="translate(324.181577 32.392313)scale(0.1 -0.1)">
       <use xlink:href="#DejaVuSans-53"/>
       <use x="63.623047" xlink:href="#DejaVuSans-48"/>
       <use x="127.246094" xlink:href="#DejaVuSans-46"/>
       <use x="159.033203" xlink:href="#DejaVuSans-48"/>
       <use x="222.65625" xlink:href="#DejaVuSans-75"/>
      </g>
     </g>
    </g>
    <g id="xtick_13">
     <g id="line2d_34">
      <g>
       <use style="stroke:#000000;stroke-width:0.8;" x="394.791955" xlink:href="#m0ba5f2e49a" y="41.472"/>
      </g>
     </g>
     <g id="text_21">
      <!-- 60.0K -->
      <defs>
       <path d="M 33.015625 40.375 
Q 26.375 40.375 22.484375 35.828125 
Q 18.609375 31.296875 18.609375 23.390625 
Q 18.609375 15.53125 22.484375 10.953125 
Q 26.375 6.390625 33.015625 6.390625 
Q 39.65625 6.390625 43.53125 10.953125 
Q 47.40625 15.53125 47.40625 23.390625 
Q 47.40625 31.296875 43.53125 35.828125 
Q 39.65625 40.375 33.015625 40.375 
z
M 52.59375 71.296875 
L 52.59375 62.3125 
Q 48.875 64.0625 45.09375 64.984375 
Q 41.3125 65.921875 37.59375 65.921875 
Q 27.828125 65.921875 22.671875 59.328125 
Q 17.53125 52.734375 16.796875 39.40625 
Q 19.671875 43.65625 24.015625 45.921875 
Q 28.375 48.1875 33.59375 48.1875 
Q 44.578125 48.1875 50.953125 41.515625 
Q 57.328125 34.859375 57.328125 23.390625 
Q 57.328125 12.15625 50.6875 5.359375 
Q 44.046875 -1.421875 33.015625 -1.421875 
Q 20.359375 -1.421875 13.671875 8.265625 
Q 6.984375 17.96875 6.984375 36.375 
Q 6.984375 53.65625 15.1875 63.9375 
Q 23.390625 74.21875 37.203125 74.21875 
Q 40.921875 74.21875 44.703125 73.484375 
Q 48.484375 72.75 52.59375 71.296875 
z
" id="DejaVuSans-54"/>
      </defs>
      <g transform="translate(380.380237 32.392313)scale(0.1 -0.1)">
       <use xlink:href="#DejaVuSans-54"/>
       <use x="63.623047" xlink:href="#DejaVuSans-48"/>
       <use x="127.246094" xlink:href="#DejaVuSans-46"/>
       <use x="159.033203" xlink:href="#DejaVuSans-48"/>
       <use x="222.65625" xlink:href="#DejaVuSans-75"/>
      </g>
     </g>
    </g>
    <g id="text_22">
     <!-- Steps -->
     <defs>
      <path d="M 53.515625 70.515625 
L 53.515625 60.890625 
Q 47.90625 63.578125 42.921875 64.890625 
Q 37.9375 66.21875 33.296875 66.21875 
Q 25.25 66.21875 20.875 63.09375 
Q 16.5 59.96875 16.5 54.203125 
Q 16.5 49.359375 19.40625 46.890625 
Q 22.3125 44.4375 30.421875 42.921875 
L 36.375 41.703125 
Q 47.40625 39.59375 52.65625 34.296875 
Q 57.90625 29 57.90625 20.125 
Q 57.90625 9.515625 50.796875 4.046875 
Q 43.703125 -1.421875 29.984375 -1.421875 
Q 24.8125 -1.421875 18.96875 -0.25 
Q 13.140625 0.921875 6.890625 3.21875 
L 6.890625 13.375 
Q 12.890625 10.015625 18.65625 8.296875 
Q 24.421875 6.59375 29.984375 6.59375 
Q 38.421875 6.59375 43.015625 9.90625 
Q 47.609375 13.234375 47.609375 19.390625 
Q 47.609375 24.75 44.3125 27.78125 
Q 41.015625 30.8125 33.5 32.328125 
L 27.484375 33.5 
Q 16.453125 35.6875 11.515625 40.375 
Q 6.59375 45.0625 6.59375 53.421875 
Q 6.59375 63.09375 13.40625 68.65625 
Q 20.21875 74.21875 32.171875 74.21875 
Q 37.3125 74.21875 42.625 73.28125 
Q 47.953125 72.359375 53.515625 70.515625 
z
" id="DejaVuSans-83"/>
      <path d="M 18.3125 70.21875 
L 18.3125 54.6875 
L 36.8125 54.6875 
L 36.8125 47.703125 
L 18.3125 47.703125 
L 18.3125 18.015625 
Q 18.3125 11.328125 20.140625 9.421875 
Q 21.96875 7.515625 27.59375 7.515625 
L 36.8125 7.515625 
L 36.8125 0 
L 27.59375 0 
Q 17.1875 0 13.234375 3.875 
Q 9.28125 7.765625 9.28125 18.015625 
L 9.28125 47.703125 
L 2.6875 47.703125 
L 2.6875 54.6875 
L 9.28125 54.6875 
L 9.28125 70.21875 
z
" id="DejaVuSans-116"/>
      <path d="M 18.109375 8.203125 
L 18.109375 -20.796875 
L 9.078125 -20.796875 
L 9.078125 54.6875 
L 18.109375 54.6875 
L 18.109375 46.390625 
Q 20.953125 51.265625 25.265625 53.625 
Q 29.59375 56 35.59375 56 
Q 45.5625 56 51.78125 48.09375 
Q 58.015625 40.1875 58.015625 27.296875 
Q 58.015625 14.40625 51.78125 6.484375 
Q 45.5625 -1.421875 35.59375 -1.421875 
Q 29.59375 -1.421875 25.265625 0.953125 
Q 20.953125 3.328125 18.109375 8.203125 
z
M 48.6875 27.296875 
Q 48.6875 37.203125 44.609375 42.84375 
Q 40.53125 48.484375 33.40625 48.484375 
Q 26.265625 48.484375 22.1875 42.84375 
Q 18.109375 37.203125 18.109375 27.296875 
Q 18.109375 17.390625 22.1875 11.75 
Q 26.265625 6.109375 33.40625 6.109375 
Q 40.53125 6.109375 44.609375 11.75 
Q 48.6875 17.390625 48.6875 27.296875 
z
" id="DejaVuSans-112"/>
     </defs>
     <g transform="translate(222.170156 20.793875)scale(0.1 -0.1)">
      <use xlink:href="#DejaVuSans-83"/>
      <use x="63.476562" xlink:href="#DejaVuSans-116"/>
      <use x="102.685547" xlink:href="#DejaVuSans-101"/>
      <use x="164.208984" xlink:href="#DejaVuSans-112"/>
      <use x="227.685547" xlink:href="#DejaVuSans-115"/>
     </g>
    </g>
   </g>
   <g id="patch_7">
    <path d="M 57.6 307.584 
L 57.6 41.472 
" style="fill:none;stroke:#000000;stroke-linecap:square;stroke-linejoin:miter;stroke-width:0.8;"/>
   </g>
   <g id="patch_8">
    <path d="M 414.72 307.584 
L 414.72 41.472 
" style="fill:none;stroke:#000000;stroke-linecap:square;stroke-linejoin:miter;stroke-width:0.8;"/>
   </g>
   <g id="patch_9">
    <path d="M 57.6 307.584 
L 414.72 307.584 
" style="fill:none;stroke:#000000;stroke-linecap:square;stroke-linejoin:miter;stroke-width:0.8;"/>
   </g>
   <g id="patch_10">
    <path d="M 57.6 41.472 
L 414.72 41.472 
" style="fill:none;stroke:#000000;stroke-linecap:square;stroke-linejoin:miter;stroke-width:0.8;"/>
   </g>
  </g>
 </g>
 <defs>
  <clipPath id="p54e0ea8ae3">
   <rect height="266.112" width="357.12" x="57.6" y="41.472"/>
  </clipPath>
 </defs>
</svg>
