<?xml version="1.0" encoding="utf-8" standalone="no"?>
<!DOCTYPE svg PUBLIC "-//W3C//DTD SVG 1.1//EN"
  "http://www.w3.org/Graphics/SVG/1.1/DTD/svg11.dtd">
<!-- Created with matplotlib (https://matplotlib.org/) -->
<svg height="345.6pt" version="1.1" viewBox="0 0 460.8 345.6" width="460.8pt" xmlns="http://www.w3.org/2000/svg" xmlns:xlink="http://www.w3.org/1999/xlink">
 <defs>
  <style type="text/css">
*{stroke-linecap:butt;stroke-linejoin:round;}
  </style>
 </defs>
 <g id="figure_1">
  <g id="patch_1">
   <path d="M 0 345.6 
L 460.8 345.6 
L 460.8 0 
L 0 0 
z
" style="fill:#ffffff;"/>
  </g>
  <g id="axes_1">
   <g id="patch_2">
    <path d="M 57.6 307.584 
L 414.72 307.584 
L 414.72 41.472 
L 57.6 41.472 
z
" style="fill:#ffffff;"/>
   </g>
   <g id="matplotlib.axis_1">
    <g id="xtick_1">
     <g id="line2d_1">
      <path clip-path="url(#pe8f3781732)" d="M 57.6 307.584 
L 57.6 41.472 
" style="fill:none;stroke:#b0b0b0;stroke-linecap:square;stroke-width:0.8;"/>
     </g>
     <g id="line2d_2">
      <defs>
       <path d="M 0 0 
L 0 3.5 
" id="mdc5f2a3ac2" style="stroke:#000000;stroke-width:0.8;"/>
      </defs>
      <g>
       <use style="stroke:#000000;stroke-width:0.8;" x="57.6" xlink:href="#mdc5f2a3ac2" y="307.584"/>
      </g>
     </g>
     <g id="text_1">
      <!-- 0 -->
      <defs>
       <path d="M 31.78125 66.40625 
Q 24.171875 66.40625 20.328125 58.90625 
Q 16.5 51.421875 16.5 36.375 
Q 16.5 21.390625 20.328125 13.890625 
Q 24.171875 6.390625 31.78125 6.390625 
Q 39.453125 6.390625 43.28125 13.890625 
Q 47.125 21.390625 47.125 36.375 
Q 47.125 51.421875 43.28125 58.90625 
Q 39.453125 66.40625 31.78125 66.40625 
z
M 31.78125 74.21875 
Q 44.046875 74.21875 50.515625 64.515625 
Q 56.984375 54.828125 56.984375 36.375 
Q 56.984375 17.96875 50.515625 8.265625 
Q 44.046875 -1.421875 31.78125 -1.421875 
Q 19.53125 -1.421875 13.0625 8.265625 
Q 6.59375 17.96875 6.59375 36.375 
Q 6.59375 54.828125 13.0625 64.515625 
Q 19.53125 74.21875 31.78125 74.21875 
z
" id="DejaVuSans-48"/>
      </defs>
      <g transform="translate(54.41875 322.182437)scale(0.1 -0.1)">
       <use xlink:href="#DejaVuSans-48"/>
      </g>
     </g>
    </g>
    <g id="xtick_2">
     <g id="line2d_3">
      <path clip-path="url(#pe8f3781732)" d="M 122.862024 307.584 
L 122.862024 41.472 
" style="fill:none;stroke:#b0b0b0;stroke-linecap:square;stroke-width:0.8;"/>
     </g>
     <g id="line2d_4">
      <g>
       <use style="stroke:#000000;stroke-width:0.8;" x="122.862024" xlink:href="#mdc5f2a3ac2" y="307.584"/>
      </g>
     </g>
     <g id="text_2">
      <!-- 5 -->
      <defs>
       <path d="M 10.796875 72.90625 
L 49.515625 72.90625 
L 49.515625 64.59375 
L 19.828125 64.59375 
L 19.828125 46.734375 
Q 21.96875 47.46875 24.109375 47.828125 
Q 26.265625 48.1875 28.421875 48.1875 
Q 40.625 48.1875 47.75 41.5 
Q 54.890625 34.8125 54.890625 23.390625 
Q 54.890625 11.625 47.5625 5.09375 
Q 40.234375 -1.421875 26.90625 -1.421875 
Q 22.3125 -1.421875 17.546875 -0.640625 
Q 12.796875 0.140625 7.71875 1.703125 
L 7.71875 11.625 
Q 12.109375 9.234375 16.796875 8.0625 
Q 21.484375 6.890625 26.703125 6.890625 
Q 35.15625 6.890625 40.078125 11.328125 
Q 45.015625 15.765625 45.015625 23.390625 
Q 45.015625 31 40.078125 35.4375 
Q 35.15625 39.890625 26.703125 39.890625 
Q 22.75 39.890625 18.8125 39.015625 
Q 14.890625 38.140625 10.796875 36.28125 
z
" id="DejaVuSans-53"/>
      </defs>
      <g transform="translate(119.680774 322.182437)scale(0.1 -0.1)">
       <use xlink:href="#DejaVuSans-53"/>
      </g>
     </g>
    </g>
    <g id="xtick_3">
     <g id="line2d_5">
      <path clip-path="url(#pe8f3781732)" d="M 188.124048 307.584 
L 188.124048 41.472 
" style="fill:none;stroke:#b0b0b0;stroke-linecap:square;stroke-width:0.8;"/>
     </g>
     <g id="line2d_6">
      <g>
       <use style="stroke:#000000;stroke-width:0.8;" x="188.124048" xlink:href="#mdc5f2a3ac2" y="307.584"/>
      </g>
     </g>
     <g id="text_3">
      <!-- 10 -->
      <defs>
       <path d="M 12.40625 8.296875 
L 28.515625 8.296875 
L 28.515625 63.921875 
L 10.984375 60.40625 
L 10.984375 69.390625 
L 28.421875 72.90625 
L 38.28125 72.90625 
L 38.28125 8.296875 
L 54.390625 8.296875 
L 54.390625 0 
L 12.40625 0 
z
" id="DejaVuSans-49"/>
      </defs>
      <g transform="translate(181.761548 322.182437)scale(0.1 -0.1)">
       <use xlink:href="#DejaVuSans-49"/>
       <use x="63.623047" xlink:href="#DejaVuSans-48"/>
      </g>
     </g>
    </g>
    <g id="xtick_4">
     <g id="line2d_7">
      <path clip-path="url(#pe8f3781732)" d="M 253.386072 307.584 
L 253.386072 41.472 
" style="fill:none;stroke:#b0b0b0;stroke-linecap:square;stroke-width:0.8;"/>
     </g>
     <g id="line2d_8">
      <g>
       <use style="stroke:#000000;stroke-width:0.8;" x="253.386072" xlink:href="#mdc5f2a3ac2" y="307.584"/>
      </g>
     </g>
     <g id="text_4">
      <!-- 15 -->
      <g transform="translate(247.023572 322.182437)scale(0.1 -0.1)">
       <use xlink:href="#DejaVuSans-49"/>
       <use x="63.623047" xlink:href="#DejaVuSans-53"/>
      </g>
     </g>
    </g>
    <g id="xtick_5">
     <g id="line2d_9">
      <path clip-path="url(#pe8f3781732)" d="M 318.648096 307.584 
L 318.648096 41.472 
" style="fill:none;stroke:#b0b0b0;stroke-linecap:square;stroke-width:0.8;"/>
     </g>
     <g id="line2d_10">
      <g>
       <use style="stroke:#000000;stroke-width:0.8;" x="318.648096" xlink:href="#mdc5f2a3ac2" y="307.584"/>
      </g>
     </g>
     <g id="text_5">
      <!-- 20 -->
      <defs>
       <path d="M 19.1875 8.296875 
L 53.609375 8.296875 
L 53.609375 0 
L 7.328125 0 
L 7.328125 8.296875 
Q 12.9375 14.109375 22.625 23.890625 
Q 32.328125 33.6875 34.8125 36.53125 
Q 39.546875 41.84375 41.421875 45.53125 
Q 43.3125 49.21875 43.3125 52.78125 
Q 43.3125 58.59375 39.234375 62.25 
Q 35.15625 65.921875 28.609375 65.921875 
Q 23.96875 65.921875 18.8125 64.3125 
Q 13.671875 62.703125 7.8125 59.421875 
L 7.8125 69.390625 
Q 13.765625 71.78125 18.9375 73 
Q 24.125 74.21875 28.421875 74.21875 
Q 39.75 74.21875 46.484375 68.546875 
Q 53.21875 62.890625 53.21875 53.421875 
Q 53.21875 48.921875 51.53125 44.890625 
Q 49.859375 40.875 45.40625 35.40625 
Q 44.1875 33.984375 37.640625 27.21875 
Q 31.109375 20.453125 19.1875 8.296875 
z
" id="DejaVuSans-50"/>
      </defs>
      <g transform="translate(312.285596 322.182437)scale(0.1 -0.1)">
       <use xlink:href="#DejaVuSans-50"/>
       <use x="63.623047" xlink:href="#DejaVuSans-48"/>
      </g>
     </g>
    </g>
    <g id="xtick_6">
     <g id="line2d_11">
      <path clip-path="url(#pe8f3781732)" d="M 383.91012 307.584 
L 383.91012 41.472 
" style="fill:none;stroke:#b0b0b0;stroke-linecap:square;stroke-width:0.8;"/>
     </g>
     <g id="line2d_12">
      <g>
       <use style="stroke:#000000;stroke-width:0.8;" x="383.91012" xlink:href="#mdc5f2a3ac2" y="307.584"/>
      </g>
     </g>
     <g id="text_6">
      <!-- 25 -->
      <g transform="translate(377.54762 322.182437)scale(0.1 -0.1)">
       <use xlink:href="#DejaVuSans-50"/>
       <use x="63.623047" xlink:href="#DejaVuSans-53"/>
      </g>
     </g>
    </g>
    <g id="text_7">
     <!-- Hours -->
     <defs>
      <path d="M 9.8125 72.90625 
L 19.671875 72.90625 
L 19.671875 43.015625 
L 55.515625 43.015625 
L 55.515625 72.90625 
L 65.375 72.90625 
L 65.375 0 
L 55.515625 0 
L 55.515625 34.71875 
L 19.671875 34.71875 
L 19.671875 0 
L 9.8125 0 
z
" id="DejaVuSans-72"/>
      <path d="M 30.609375 48.390625 
Q 23.390625 48.390625 19.1875 42.75 
Q 14.984375 37.109375 14.984375 27.296875 
Q 14.984375 17.484375 19.15625 11.84375 
Q 23.34375 6.203125 30.609375 6.203125 
Q 37.796875 6.203125 41.984375 11.859375 
Q 46.1875 17.53125 46.1875 27.296875 
Q 46.1875 37.015625 41.984375 42.703125 
Q 37.796875 48.390625 30.609375 48.390625 
z
M 30.609375 56 
Q 42.328125 56 49.015625 48.375 
Q 55.71875 40.765625 55.71875 27.296875 
Q 55.71875 13.875 49.015625 6.21875 
Q 42.328125 -1.421875 30.609375 -1.421875 
Q 18.84375 -1.421875 12.171875 6.21875 
Q 5.515625 13.875 5.515625 27.296875 
Q 5.515625 40.765625 12.171875 48.375 
Q 18.84375 56 30.609375 56 
z
" id="DejaVuSans-111"/>
      <path d="M 8.5 21.578125 
L 8.5 54.6875 
L 17.484375 54.6875 
L 17.484375 21.921875 
Q 17.484375 14.15625 20.5 10.265625 
Q 23.53125 6.390625 29.59375 6.390625 
Q 36.859375 6.390625 41.078125 11.03125 
Q 45.3125 15.671875 45.3125 23.6875 
L 45.3125 54.6875 
L 54.296875 54.6875 
L 54.296875 0 
L 45.3125 0 
L 45.3125 8.40625 
Q 42.046875 3.421875 37.71875 1 
Q 33.40625 -1.421875 27.6875 -1.421875 
Q 18.265625 -1.421875 13.375 4.4375 
Q 8.5 10.296875 8.5 21.578125 
z
M 31.109375 56 
z
" id="DejaVuSans-117"/>
      <path d="M 41.109375 46.296875 
Q 39.59375 47.171875 37.8125 47.578125 
Q 36.03125 48 33.890625 48 
Q 26.265625 48 22.1875 43.046875 
Q 18.109375 38.09375 18.109375 28.8125 
L 18.109375 0 
L 9.078125 0 
L 9.078125 54.6875 
L 18.109375 54.6875 
L 18.109375 46.1875 
Q 20.953125 51.171875 25.484375 53.578125 
Q 30.03125 56 36.53125 56 
Q 37.453125 56 38.578125 55.875 
Q 39.703125 55.765625 41.0625 55.515625 
z
" id="DejaVuSans-114"/>
      <path d="M 44.28125 53.078125 
L 44.28125 44.578125 
Q 40.484375 46.53125 36.375 47.5 
Q 32.28125 48.484375 27.875 48.484375 
Q 21.1875 48.484375 17.84375 46.4375 
Q 14.5 44.390625 14.5 40.28125 
Q 14.5 37.15625 16.890625 35.375 
Q 19.28125 33.59375 26.515625 31.984375 
L 29.59375 31.296875 
Q 39.15625 29.25 43.1875 25.515625 
Q 47.21875 21.78125 47.21875 15.09375 
Q 47.21875 7.46875 41.1875 3.015625 
Q 35.15625 -1.421875 24.609375 -1.421875 
Q 20.21875 -1.421875 15.453125 -0.5625 
Q 10.6875 0.296875 5.421875 2 
L 5.421875 11.28125 
Q 10.40625 8.6875 15.234375 7.390625 
Q 20.0625 6.109375 24.8125 6.109375 
Q 31.15625 6.109375 34.5625 8.28125 
Q 37.984375 10.453125 37.984375 14.40625 
Q 37.984375 18.0625 35.515625 20.015625 
Q 33.0625 21.96875 24.703125 23.78125 
L 21.578125 24.515625 
Q 13.234375 26.265625 9.515625 29.90625 
Q 5.8125 33.546875 5.8125 39.890625 
Q 5.8125 47.609375 11.28125 51.796875 
Q 16.75 56 26.8125 56 
Q 31.78125 56 36.171875 55.265625 
Q 40.578125 54.546875 44.28125 53.078125 
z
" id="DejaVuSans-115"/>
     </defs>
     <g transform="translate(221.511562 335.860562)scale(0.1 -0.1)">
      <use xlink:href="#DejaVuSans-72"/>
      <use x="75.195312" xlink:href="#DejaVuSans-111"/>
      <use x="136.376953" xlink:href="#DejaVuSans-117"/>
      <use x="199.755859" xlink:href="#DejaVuSans-114"/>
      <use x="240.869141" xlink:href="#DejaVuSans-115"/>
     </g>
    </g>
   </g>
   <g id="matplotlib.axis_2">
    <g id="ytick_1">
     <g id="line2d_13">
      <path clip-path="url(#pe8f3781732)" d="M 57.6 295.456263 
L 414.72 295.456263 
" style="fill:none;stroke:#b0b0b0;stroke-linecap:square;stroke-width:0.8;"/>
     </g>
     <g id="line2d_14">
      <defs>
       <path d="M 0 0 
L -3.5 0 
" id="m06dd644b01" style="stroke:#000000;stroke-width:0.8;"/>
      </defs>
      <g>
       <use style="stroke:#000000;stroke-width:0.8;" x="57.6" xlink:href="#m06dd644b01" y="295.456263"/>
      </g>
     </g>
     <g id="text_8">
      <!-- 0.4 -->
      <defs>
       <path d="M 10.6875 12.40625 
L 21 12.40625 
L 21 0 
L 10.6875 0 
z
" id="DejaVuSans-46"/>
       <path d="M 37.796875 64.3125 
L 12.890625 25.390625 
L 37.796875 25.390625 
z
M 35.203125 72.90625 
L 47.609375 72.90625 
L 47.609375 25.390625 
L 58.015625 25.390625 
L 58.015625 17.1875 
L 47.609375 17.1875 
L 47.609375 0 
L 37.796875 0 
L 37.796875 17.1875 
L 4.890625 17.1875 
L 4.890625 26.703125 
z
" id="DejaVuSans-52"/>
      </defs>
      <g transform="translate(34.696875 299.255482)scale(0.1 -0.1)">
       <use xlink:href="#DejaVuSans-48"/>
       <use x="63.623047" xlink:href="#DejaVuSans-46"/>
       <use x="95.410156" xlink:href="#DejaVuSans-52"/>
      </g>
     </g>
    </g>
    <g id="ytick_2">
     <g id="line2d_15">
      <path clip-path="url(#pe8f3781732)" d="M 57.6 261.507639 
L 414.72 261.507639 
" style="fill:none;stroke:#b0b0b0;stroke-linecap:square;stroke-width:0.8;"/>
     </g>
     <g id="line2d_16">
      <g>
       <use style="stroke:#000000;stroke-width:0.8;" x="57.6" xlink:href="#m06dd644b01" y="261.507639"/>
      </g>
     </g>
     <g id="text_9">
      <!-- 0.5 -->
      <g transform="translate(34.696875 265.306858)scale(0.1 -0.1)">
       <use xlink:href="#DejaVuSans-48"/>
       <use x="63.623047" xlink:href="#DejaVuSans-46"/>
       <use x="95.410156" xlink:href="#DejaVuSans-53"/>
      </g>
     </g>
    </g>
    <g id="ytick_3">
     <g id="line2d_17">
      <path clip-path="url(#pe8f3781732)" d="M 57.6 227.559015 
L 414.72 227.559015 
" style="fill:none;stroke:#b0b0b0;stroke-linecap:square;stroke-width:0.8;"/>
     </g>
     <g id="line2d_18">
      <g>
       <use style="stroke:#000000;stroke-width:0.8;" x="57.6" xlink:href="#m06dd644b01" y="227.559015"/>
      </g>
     </g>
     <g id="text_10">
      <!-- 0.6 -->
      <defs>
       <path d="M 33.015625 40.375 
Q 26.375 40.375 22.484375 35.828125 
Q 18.609375 31.296875 18.609375 23.390625 
Q 18.609375 15.53125 22.484375 10.953125 
Q 26.375 6.390625 33.015625 6.390625 
Q 39.65625 6.390625 43.53125 10.953125 
Q 47.40625 15.53125 47.40625 23.390625 
Q 47.40625 31.296875 43.53125 35.828125 
Q 39.65625 40.375 33.015625 40.375 
z
M 52.59375 71.296875 
L 52.59375 62.3125 
Q 48.875 64.0625 45.09375 64.984375 
Q 41.3125 65.921875 37.59375 65.921875 
Q 27.828125 65.921875 22.671875 59.328125 
Q 17.53125 52.734375 16.796875 39.40625 
Q 19.671875 43.65625 24.015625 45.921875 
Q 28.375 48.1875 33.59375 48.1875 
Q 44.578125 48.1875 50.953125 41.515625 
Q 57.328125 34.859375 57.328125 23.390625 
Q 57.328125 12.15625 50.6875 5.359375 
Q 44.046875 -1.421875 33.015625 -1.421875 
Q 20.359375 -1.421875 13.671875 8.265625 
Q 6.984375 17.96875 6.984375 36.375 
Q 6.984375 53.65625 15.1875 63.9375 
Q 23.390625 74.21875 37.203125 74.21875 
Q 40.921875 74.21875 44.703125 73.484375 
Q 48.484375 72.75 52.59375 71.296875 
z
" id="DejaVuSans-54"/>
      </defs>
      <g transform="translate(34.696875 231.358233)scale(0.1 -0.1)">
       <use xlink:href="#DejaVuSans-48"/>
       <use x="63.623047" xlink:href="#DejaVuSans-46"/>
       <use x="95.410156" xlink:href="#DejaVuSans-54"/>
      </g>
     </g>
    </g>
    <g id="ytick_4">
     <g id="line2d_19">
      <path clip-path="url(#pe8f3781732)" d="M 57.6 193.61039 
L 414.72 193.61039 
" style="fill:none;stroke:#b0b0b0;stroke-linecap:square;stroke-width:0.8;"/>
     </g>
     <g id="line2d_20">
      <g>
       <use style="stroke:#000000;stroke-width:0.8;" x="57.6" xlink:href="#m06dd644b01" y="193.61039"/>
      </g>
     </g>
     <g id="text_11">
      <!-- 0.7 -->
      <defs>
       <path d="M 8.203125 72.90625 
L 55.078125 72.90625 
L 55.078125 68.703125 
L 28.609375 0 
L 18.3125 0 
L 43.21875 64.59375 
L 8.203125 64.59375 
z
" id="DejaVuSans-55"/>
      </defs>
      <g transform="translate(34.696875 197.409609)scale(0.1 -0.1)">
       <use xlink:href="#DejaVuSans-48"/>
       <use x="63.623047" xlink:href="#DejaVuSans-46"/>
       <use x="95.410156" xlink:href="#DejaVuSans-55"/>
      </g>
     </g>
    </g>
    <g id="ytick_5">
     <g id="line2d_21">
      <path clip-path="url(#pe8f3781732)" d="M 57.6 159.661766 
L 414.72 159.661766 
" style="fill:none;stroke:#b0b0b0;stroke-linecap:square;stroke-width:0.8;"/>
     </g>
     <g id="line2d_22">
      <g>
       <use style="stroke:#000000;stroke-width:0.8;" x="57.6" xlink:href="#m06dd644b01" y="159.661766"/>
      </g>
     </g>
     <g id="text_12">
      <!-- 0.8 -->
      <defs>
       <path d="M 31.78125 34.625 
Q 24.75 34.625 20.71875 30.859375 
Q 16.703125 27.09375 16.703125 20.515625 
Q 16.703125 13.921875 20.71875 10.15625 
Q 24.75 6.390625 31.78125 6.390625 
Q 38.8125 6.390625 42.859375 10.171875 
Q 46.921875 13.96875 46.921875 20.515625 
Q 46.921875 27.09375 42.890625 30.859375 
Q 38.875 34.625 31.78125 34.625 
z
M 21.921875 38.8125 
Q 15.578125 40.375 12.03125 44.71875 
Q 8.5 49.078125 8.5 55.328125 
Q 8.5 64.0625 14.71875 69.140625 
Q 20.953125 74.21875 31.78125 74.21875 
Q 42.671875 74.21875 48.875 69.140625 
Q 55.078125 64.0625 55.078125 55.328125 
Q 55.078125 49.078125 51.53125 44.71875 
Q 48 40.375 41.703125 38.8125 
Q 48.828125 37.15625 52.796875 32.3125 
Q 56.78125 27.484375 56.78125 20.515625 
Q 56.78125 9.90625 50.3125 4.234375 
Q 43.84375 -1.421875 31.78125 -1.421875 
Q 19.734375 -1.421875 13.25 4.234375 
Q 6.78125 9.90625 6.78125 20.515625 
Q 6.78125 27.484375 10.78125 32.3125 
Q 14.796875 37.15625 21.921875 38.8125 
z
M 18.3125 54.390625 
Q 18.3125 48.734375 21.84375 45.5625 
Q 25.390625 42.390625 31.78125 42.390625 
Q 38.140625 42.390625 41.71875 45.5625 
Q 45.3125 48.734375 45.3125 54.390625 
Q 45.3125 60.0625 41.71875 63.234375 
Q 38.140625 66.40625 31.78125 66.40625 
Q 25.390625 66.40625 21.84375 63.234375 
Q 18.3125 60.0625 18.3125 54.390625 
z
" id="DejaVuSans-56"/>
      </defs>
      <g transform="translate(34.696875 163.460984)scale(0.1 -0.1)">
       <use xlink:href="#DejaVuSans-48"/>
       <use x="63.623047" xlink:href="#DejaVuSans-46"/>
       <use x="95.410156" xlink:href="#DejaVuSans-56"/>
      </g>
     </g>
    </g>
    <g id="ytick_6">
     <g id="line2d_23">
      <path clip-path="url(#pe8f3781732)" d="M 57.6 125.713141 
L 414.72 125.713141 
" style="fill:none;stroke:#b0b0b0;stroke-linecap:square;stroke-width:0.8;"/>
     </g>
     <g id="line2d_24">
      <g>
       <use style="stroke:#000000;stroke-width:0.8;" x="57.6" xlink:href="#m06dd644b01" y="125.713141"/>
      </g>
     </g>
     <g id="text_13">
      <!-- 0.9 -->
      <defs>
       <path d="M 10.984375 1.515625 
L 10.984375 10.5 
Q 14.703125 8.734375 18.5 7.8125 
Q 22.3125 6.890625 25.984375 6.890625 
Q 35.75 6.890625 40.890625 13.453125 
Q 46.046875 20.015625 46.78125 33.40625 
Q 43.953125 29.203125 39.59375 26.953125 
Q 35.25 24.703125 29.984375 24.703125 
Q 19.046875 24.703125 12.671875 31.3125 
Q 6.296875 37.9375 6.296875 49.421875 
Q 6.296875 60.640625 12.9375 67.421875 
Q 19.578125 74.21875 30.609375 74.21875 
Q 43.265625 74.21875 49.921875 64.515625 
Q 56.59375 54.828125 56.59375 36.375 
Q 56.59375 19.140625 48.40625 8.859375 
Q 40.234375 -1.421875 26.421875 -1.421875 
Q 22.703125 -1.421875 18.890625 -0.6875 
Q 15.09375 0.046875 10.984375 1.515625 
z
M 30.609375 32.421875 
Q 37.25 32.421875 41.125 36.953125 
Q 45.015625 41.5 45.015625 49.421875 
Q 45.015625 57.28125 41.125 61.84375 
Q 37.25 66.40625 30.609375 66.40625 
Q 23.96875 66.40625 20.09375 61.84375 
Q 16.21875 57.28125 16.21875 49.421875 
Q 16.21875 41.5 20.09375 36.953125 
Q 23.96875 32.421875 30.609375 32.421875 
z
" id="DejaVuSans-57"/>
      </defs>
      <g transform="translate(34.696875 129.51236)scale(0.1 -0.1)">
       <use xlink:href="#DejaVuSans-48"/>
       <use x="63.623047" xlink:href="#DejaVuSans-46"/>
       <use x="95.410156" xlink:href="#DejaVuSans-57"/>
      </g>
     </g>
    </g>
    <g id="ytick_7">
     <g id="line2d_25">
      <path clip-path="url(#pe8f3781732)" d="M 57.6 91.764517 
L 414.72 91.764517 
" style="fill:none;stroke:#b0b0b0;stroke-linecap:square;stroke-width:0.8;"/>
     </g>
     <g id="line2d_26">
      <g>
       <use style="stroke:#000000;stroke-width:0.8;" x="57.6" xlink:href="#m06dd644b01" y="91.764517"/>
      </g>
     </g>
     <g id="text_14">
      <!-- 1.0 -->
      <g transform="translate(34.696875 95.563735)scale(0.1 -0.1)">
       <use xlink:href="#DejaVuSans-49"/>
       <use x="63.623047" xlink:href="#DejaVuSans-46"/>
       <use x="95.410156" xlink:href="#DejaVuSans-48"/>
      </g>
     </g>
    </g>
    <g id="ytick_8">
     <g id="line2d_27">
      <path clip-path="url(#pe8f3781732)" d="M 57.6 57.815892 
L 414.72 57.815892 
" style="fill:none;stroke:#b0b0b0;stroke-linecap:square;stroke-width:0.8;"/>
     </g>
     <g id="line2d_28">
      <g>
       <use style="stroke:#000000;stroke-width:0.8;" x="57.6" xlink:href="#m06dd644b01" y="57.815892"/>
      </g>
     </g>
     <g id="text_15">
      <!-- 1.1 -->
      <g transform="translate(34.696875 61.615111)scale(0.1 -0.1)">
       <use xlink:href="#DejaVuSans-49"/>
       <use x="63.623047" xlink:href="#DejaVuSans-46"/>
       <use x="95.410156" xlink:href="#DejaVuSans-49"/>
      </g>
     </g>
    </g>
    <g id="text_16">
     <!-- Policy loss -->
     <defs>
      <path d="M 19.671875 64.796875 
L 19.671875 37.40625 
L 32.078125 37.40625 
Q 38.96875 37.40625 42.71875 40.96875 
Q 46.484375 44.53125 46.484375 51.125 
Q 46.484375 57.671875 42.71875 61.234375 
Q 38.96875 64.796875 32.078125 64.796875 
z
M 9.8125 72.90625 
L 32.078125 72.90625 
Q 44.34375 72.90625 50.609375 67.359375 
Q 56.890625 61.8125 56.890625 51.125 
Q 56.890625 40.328125 50.609375 34.8125 
Q 44.34375 29.296875 32.078125 29.296875 
L 19.671875 29.296875 
L 19.671875 0 
L 9.8125 0 
z
" id="DejaVuSans-80"/>
      <path d="M 9.421875 75.984375 
L 18.40625 75.984375 
L 18.40625 0 
L 9.421875 0 
z
" id="DejaVuSans-108"/>
      <path d="M 9.421875 54.6875 
L 18.40625 54.6875 
L 18.40625 0 
L 9.421875 0 
z
M 9.421875 75.984375 
L 18.40625 75.984375 
L 18.40625 64.59375 
L 9.421875 64.59375 
z
" id="DejaVuSans-105"/>
      <path d="M 48.78125 52.59375 
L 48.78125 44.1875 
Q 44.96875 46.296875 41.140625 47.34375 
Q 37.3125 48.390625 33.40625 48.390625 
Q 24.65625 48.390625 19.8125 42.84375 
Q 14.984375 37.3125 14.984375 27.296875 
Q 14.984375 17.28125 19.8125 11.734375 
Q 24.65625 6.203125 33.40625 6.203125 
Q 37.3125 6.203125 41.140625 7.25 
Q 44.96875 8.296875 48.78125 10.40625 
L 48.78125 2.09375 
Q 45.015625 0.34375 40.984375 -0.53125 
Q 36.96875 -1.421875 32.421875 -1.421875 
Q 20.0625 -1.421875 12.78125 6.34375 
Q 5.515625 14.109375 5.515625 27.296875 
Q 5.515625 40.671875 12.859375 48.328125 
Q 20.21875 56 33.015625 56 
Q 37.15625 56 41.109375 55.140625 
Q 45.0625 54.296875 48.78125 52.59375 
z
" id="DejaVuSans-99"/>
      <path d="M 32.171875 -5.078125 
Q 28.375 -14.84375 24.75 -17.8125 
Q 21.140625 -20.796875 15.09375 -20.796875 
L 7.90625 -20.796875 
L 7.90625 -13.28125 
L 13.1875 -13.28125 
Q 16.890625 -13.28125 18.9375 -11.515625 
Q 21 -9.765625 23.484375 -3.21875 
L 25.09375 0.875 
L 2.984375 54.6875 
L 12.5 54.6875 
L 29.59375 11.921875 
L 46.6875 54.6875 
L 56.203125 54.6875 
z
" id="DejaVuSans-121"/>
      <path id="DejaVuSans-32"/>
     </defs>
     <g transform="translate(28.617187 200.333469)rotate(-90)scale(0.1 -0.1)">
      <use xlink:href="#DejaVuSans-80"/>
      <use x="60.255859" xlink:href="#DejaVuSans-111"/>
      <use x="121.4375" xlink:href="#DejaVuSans-108"/>
      <use x="149.220703" xlink:href="#DejaVuSans-105"/>
      <use x="177.003906" xlink:href="#DejaVuSans-99"/>
      <use x="231.984375" xlink:href="#DejaVuSans-121"/>
      <use x="291.164062" xlink:href="#DejaVuSans-32"/>
      <use x="322.951172" xlink:href="#DejaVuSans-108"/>
      <use x="350.734375" xlink:href="#DejaVuSans-111"/>
      <use x="411.916016" xlink:href="#DejaVuSans-115"/>
      <use x="464.015625" xlink:href="#DejaVuSans-115"/>
     </g>
    </g>
   </g>
   <g id="line2d_29">
    <path clip-path="url(#pe8f3781732)" d="M 57.6 60.861205 
L 58.445962 78.180952 
L 58.673994 79.544586 
L 59.616828 93.187075 
L 59.75687 81.601833 
L 60.224618 64.535468 
L 60.337013 54.512649 
L 61.216967 65.844913 
L 62.288437 94.117195 
L 63.00877 125.61329 
L 64.075981 111.6452 
L 64.791928 79.942688 
L 65.280618 73.214039 
L 65.427177 63.812149 
L 65.69868 62.101769 
L 65.967107 54.289902 
L 66.738509 77.077054 
L 67.099028 108.82471 
L 67.512255 123.035134 
L 68.03354 148.509063 
L 68.43617 158.444771 
L 68.85724 165.439874 
L 69.517003 172.545743 
L 69.953836 175.784065 
L 70.194055 175.314715 
L 71.163926 169.317843 
L 71.338916 140.501139 
L 72.183708 86.018882 
L 73.39453 111.369236 
L 73.591642 110.784405 
L 74.027552 117.697051 
L 74.42572 126.155627 
L 74.512519 134.600504 
L 75.860403 161.992727 
L 76.466274 165.509887 
L 76.899473 180.703608 
L 78.142491 201.833091 
L 78.369935 209.979139 
L 79.154257 205.295515 
L 82.640469 221.282264 
L 84.12888 225.810544 
L 84.195416 233.262573 
L 84.389881 229.869393 
L 84.980113 237.184371 
L 85.755605 242.147217 
L 85.941673 246.558377 
L 86.014748 242.57551 
L 86.874856 247.642019 
L 88.374178 250.398648 
L 88.514691 244.660864 
L 90.096848 247.269008 
L 90.210479 243.941531 
L 90.419018 241.656802 
L 91.147806 257.698044 
L 91.701767 262.669176 
L 91.842716 254.202395 
L 92.054409 253.061871 
L 92.613628 262.531366 
L 93.002194 262.722475 
L 93.935389 262.09424 
L 94.553512 264.563765 
L 95.236252 268.401153 
L 95.581731 276.186138 
L 96.178703 275.134709 
L 96.336412 278.279383 
L 96.57262 269.198936 
L 96.813178 275.279035 
L 97.501637 272.582322 
L 98.504075 284.654143 
L 100.317691 285.141087 
L 100.462848 281.15299 
L 101.652549 282.625407 
L 102.457661 282.946546 
L 102.542228 284.330536 
L 102.712269 284.733545 
L 103.0093 295.488 
L 103.24464 288.740694 
L 103.863786 189.529691 
L 104.226617 172.668023 
L 104.450832 126.359514 
L 104.726631 117.288568 
L 104.878728 102.575508 
L 105.259987 100.60695 
L 106.578956 120.630877 
L 107.076213 138.002527 
L 107.121084 136.559208 
L 107.604384 148.000295 
L 108.314507 110.493993 
L 108.673395 98.526412 
L 108.816225 106.087507 
L 109.350532 107.543554 
L 109.7207 111.860399 
L 109.89617 124.894443 
L 109.941987 129.69462 
L 110.371424 138.645229 
L 110.601447 139.616447 
L 110.710033 151.81074 
L 111.115555 153.464523 
L 111.166399 154.346524 
L 111.224403 154.075841 
L 111.63757 171.846646 
L 111.917479 146.56072 
L 112.127936 145.433552 
L 112.157488 145.868421 
L 113.327376 109.933626 
L 113.479073 111.326661 
L 113.936826 121.552073 
L 115.673572 148.154121 
L 115.97997 154.748087 
L 116.327298 133.066148 
L 116.7805 114.045491 
L 116.994953 114.416418 
L 117.568754 96.029479 
L 117.796084 99.407867 
L 118.09998 112.779511 
L 119.00586 137.43526 
L 119.045313 133.073493 
L 119.551949 132.015165 
L 119.643387 123.470853 
L 120.131868 100.887589 
L 120.493235 100.066596 
L 120.600552 98.511802 
L 120.635305 95.768853 
L 121.113768 95.368059 
L 121.155054 90.216421 
L 121.789367 118.992634 
L 122.44236 120.766957 
L 123.04319 145.762855 
L 123.565506 132.404344 
L 123.649441 133.978866 
L 124.083834 118.153733 
L 124.690408 89.325274 
L 125.124113 84.693897 
L 125.761743 80.408861 
L 126.243561 104.042279 
L 126.759623 95.295173 
L 127.009827 95.281777 
L 127.198842 100.794933 
L 127.23454 99.630735 
L 128.133397 109.720572 
L 128.316113 118.987313 
L 128.923681 118.061766 
L 129.299158 130.609361 
L 130.025922 141.755889 
L 131.272627 127.8775 
L 131.304986 125.817137 
L 131.664314 115.394475 
L 132.597833 81.891031 
L 133.107669 78.62778 
L 133.146518 84.713039 
L 133.492584 81.263869 
L 133.561201 81.942347 
L 135.355727 135.006782 
L 135.44749 146.374841 
L 136.053678 152.446603 
L 136.660086 172.193938 
L 137.08818 174.411224 
L 138.645288 210.354922 
L 138.98067 173.190429 
L 139.312904 159.760184 
L 139.961157 109.958394 
L 140.198131 111.236919 
L 140.469713 125.307337 
L 140.713851 123.097983 
L 140.965252 132.877316 
L 141.918521 146.206952 
L 143.608683 181.744575 
L 143.930656 177.851045 
L 144.019771 183.385913 
L 144.070895 182.086809 
L 145.42253 207.09671 
L 145.811725 209.905221 
L 145.968336 207.943462 
L 146.177498 216.540182 
L 146.65072 220.08047 
L 146.856003 217.39262 
L 147.215882 224.218741 
L 148.94025 115.97026 
L 149.398597 127.792898 
L 149.660431 131.016812 
L 149.739056 136.870806 
L 150.214163 137.197964 
L 150.547932 118.038253 
L 151.218904 93.292033 
L 151.316688 98.248363 
L 152.529294 115.423127 
L 152.612044 112.082599 
L 153.011669 102.363951 
L 153.438939 106.322455 
L 154.192929 145.757372 
L 154.80345 154.625402 
L 155.199852 148.540144 
L 155.234878 141.874324 
L 155.562328 133.643876 
L 155.951814 129.011447 
L 156.261712 129.920098 
L 156.430204 130.918268 
L 156.570548 138.259207 
L 156.766366 141.784379 
L 157.196271 158.575225 
L 157.428532 163.956125 
L 157.574381 162.247688 
L 158.031073 173.141238 
L 158.537878 173.10012 
L 158.849344 190.221808 
L 159.284046 200.843278 
L 159.719963 180.356133 
L 160.09101 135.787426 
L 160.177104 137.848437 
L 161.332293 73.450221 
L 161.578361 84.886371 
L 161.885681 87.64561 
L 162.04513 100.810878 
L 163.490286 154.26002 
L 163.935991 158.687772 
L 164.363197 174.849837 
L 164.400995 173.417748 
L 164.97021 181.508392 
L 165.299035 192.605587 
L 165.996106 204.205276 
L 166.604795 210.155223 
L 166.935688 222.415179 
L 167.570511 232.866089 
L 167.778134 226.054881 
L 168.165097 225.753077 
L 168.363524 231.726578 
L 169.251935 233.485785 
L 169.558381 233.318968 
L 169.906484 244.550887 
L 169.959378 238.482828 
L 170.012635 244.435608 
L 171.536881 95.186126 
L 171.71896 105.819293 
L 172.057585 93.445961 
L 172.40194 103.115417 
L 172.588343 116.635221 
L 172.796855 116.016922 
L 173.300088 127.083825 
L 173.401208 134.893628 
L 174.132057 148.641703 
L 174.342252 149.524655 
L 174.858732 99.501737 
L 175.467101 98.968445 
L 175.742633 92.852773 
L 175.874869 106.97649 
L 176.208838 117.344882 
L 176.499011 135.322872 
L 176.957836 143.682196 
L 177.03743 142.465346 
L 177.308955 154.675929 
L 177.428678 151.672616 
L 177.55538 155.205518 
L 177.915152 169.600869 
L 179.007454 188.379496 
L 179.74441 193.890163 
L 179.896208 199.738247 
L 179.943915 199.084274 
L 180.136598 192.383063 
L 180.555389 148.029454 
L 180.709435 139.38767 
L 180.77014 142.837022 
L 181.48647 113.900487 
L 182.040766 139.15513 
L 182.083624 136.317724 
L 183.156315 166.384583 
L 183.200164 163.57583 
L 183.572031 176.964633 
L 183.659903 176.86105 
L 183.881876 182.647863 
L 184.302279 166.181384 
L 184.706214 156.089017 
L 184.823855 140.378879 
L 185.496444 110.170416 
L 185.731742 120.390587 
L 185.974153 122.498159 
L 186.272853 134.233422 
L 186.593768 135.990767 
L 187.574712 156.767333 
L 187.652524 164.161551 
L 187.846473 165.177082 
L 187.877024 167.673752 
L 188.093056 155.017475 
L 188.216777 165.526196 
L 188.299979 165.50588 
L 188.383043 157.278084 
L 188.425318 167.021924 
L 189.005927 175.323112 
L 189.290704 160.587329 
L 190.579813 117.238365 
L 190.790295 127.269845 
L 191.477843 138.807918 
L 192.094046 149.828159 
L 192.141874 146.615354 
L 192.217143 159.7409 
L 192.853365 177.347235 
L 193.782776 135.061618 
L 194.671548 122.079821 
L 195.594241 147.258583 
L 195.633173 143.687376 
L 195.70632 150.790392 
L 196.250332 161.952035 
L 196.410624 159.642983 
L 196.954012 165.746413 
L 197.468966 176.837578 
L 197.505298 176.424764 
L 198.089346 183.434983 
L 198.572967 183.490791 
L 198.944335 182.49861 
L 199.062784 186.730144 
L 199.1383 185.451983 
L 199.483066 191.797382 
L 200.894494 193.285421 
L 200.944451 190.984989 
L 201.576091 196.507352 
L 201.830624 193.149158 
L 202.020187 195.24546 
L 202.066035 200.399748 
L 202.847474 193.989658 
L 203.281889 197.7051 
L 203.684993 193.122934 
L 203.786342 199.193785 
L 203.875241 198.286369 
L 204.718214 200.883789 
L 205.09361 145.565645 
L 205.195896 204.628045 
L 205.335329 212.64042 
L 205.909844 215.646424 
L 205.962343 213.536869 
L 206.620999 220.337798 
L 207.679961 211.882945 
L 207.736901 213.913927 
L 207.94824 216.984481 
L 208.293916 217.927895 
L 208.623065 229.11293 
L 209.778102 232.355966 
L 210.331679 233.678664 
L 210.902238 230.390221 
L 211.213646 232.280388 
L 211.703525 231.328738 
L 211.962305 234.718256 
L 213.14523 206.387252 
L 213.490664 172.269536 
L 213.631196 143.093318 
L 214.417544 81.49823 
L 215.272807 74.967884 
L 215.780437 74.430848 
L 216.014999 73.663255 
L 216.207496 91.972957 
L 216.608376 98.649764 
L 216.709561 113.787151 
L 217.160164 129.864249 
L 218.227993 95.963068 
L 218.260779 96.274079 
L 218.293018 98.333593 
L 218.643112 94.484823 
L 219.15306 107.619779 
L 219.22125 116.652947 
L 219.802519 123.06065 
L 219.958415 129.231421 
L 220.162252 132.030179 
L 220.239807 124.863645 
L 221.114981 103.950008 
L 221.530755 100.340456 
L 222.073635 116.048266 
L 222.507804 119.964378 
L 222.540314 112.961464 
L 222.74457 122.948184 
L 222.99646 116.35094 
L 223.212495 129.552125 
L 223.452724 128.080052 
L 223.528689 124.315278 
L 224.332404 151.284307 
L 224.566147 143.052039 
L 224.608046 145.268576 
L 224.652179 147.617632 
L 225.189673 135.778098 
L 226.000742 101.881489 
L 226.726393 95.231534 
L 227.167322 132.684132 
L 227.442042 133.480904 
L 228.297244 108.614611 
L 228.457423 107.54578 
L 228.523247 104.353655 
L 228.588212 107.887042 
L 228.789771 104.173078 
L 229.553787 133.784874 
L 229.804746 132.530023 
L 230.328847 113.754654 
L 230.73206 105.662229 
L 231.35356 113.06448 
L 231.423089 119.810288 
L 231.626819 123.365125 
L 231.698669 121.40802 
L 232.420567 153.628102 
L 233.093581 126.021004 
L 234.008032 75.140852 
L 234.811452 103.919493 
L 234.996151 102.078254 
L 235.086132 111.021073 
L 235.4197 106.687656 
L 235.758624 105.761724 
L 235.817084 103.137109 
L 236.551291 104.801819 
L 237.315459 126.273253 
L 237.600694 156.866808 
L 238.075764 138.326852 
L 239.338602 125.914022 
L 239.973798 140.637907 
L 240.047608 137.700014 
L 240.085538 142.715329 
L 241.561965 172.182708 
L 242.146796 174.750868 
L 242.23111 179.762358 
L 242.316183 178.758199 
L 242.784184 187.176082 
L 243.524979 196.642845 
L 243.614686 199.787297 
L 244.033835 195.551432 
L 244.509355 202.530793 
L 244.768101 202.61499 
L 244.961022 206.032857 
L 245.180707 199.558095 
L 245.574576 199.041558 
L 245.911313 198.846978 
L 246.477663 163.494849 
L 247.320265 127.624058 
L 247.394659 118.923755 
L 247.607579 118.328725 
L 247.726504 122.133181 
L 247.925303 137.7539 
L 248.928859 188.650017 
L 249.353856 193.669743 
L 250.421495 213.176667 
L 250.810658 224.138489 
L 250.963829 224.782244 
L 251.747567 232.178789 
L 252.11493 238.899223 
L 252.21517 231.988196 
L 252.78248 228.992694 
L 253.102722 235.853943 
L 253.633391 236.587359 
L 253.989704 236.375782 
L 254.286286 230.082164 
L 254.44319 200.749166 
L 254.939251 148.321788 
L 255.154505 146.325589 
L 255.787537 111.148007 
L 255.857701 120.561633 
L 256.210163 126.277705 
L 256.820029 120.91103 
L 256.890292 118.524074 
L 257.589026 134.184473 
L 258.155109 123.531194 
L 258.729005 121.606991 
L 259.057965 127.187893 
L 259.653227 131.793106 
L 260.035759 121.330682 
L 260.066358 117.438286 
L 260.680719 119.764375 
L 260.961003 121.432707 
L 261.231458 145.937766 
L 261.507051 153.730511 
L 262.381353 192.379664 
L 262.919359 163.906044 
L 263.72092 144.499688 
L 265.53353 189.162265 
L 266.48025 157.729141 
L 266.580008 145.606419 
L 266.847838 142.412472 
L 266.918175 132.503394 
L 267.239175 124.214386 
L 267.31275 112.514433 
L 267.366751 112.950679 
L 267.766773 113.09034 
L 268.310578 106.024212 
L 268.727417 108.793083 
L 269.185351 121.916221 
L 269.901661 149.177423 
L 270.194168 162.983775 
L 270.869215 147.466639 
L 271.208487 147.772308 
L 271.257741 141.709429 
L 271.763028 118.368062 
L 271.826359 119.277644 
L 271.890192 122.279985 
L 272.731025 128.595113 
L 273.574309 184.497703 
L 274.029134 179.447786 
L 274.37567 213.655122 
L 275.991554 208.269508 
L 277.458152 136.008614 
L 277.698568 145.738351 
L 277.988328 142.193652 
L 278.605237 155.389049 
L 278.84271 164.814755 
L 279.252091 166.988151 
L 280.18416 152.545694 
L 280.315951 141.033379 
L 280.889236 140.098302 
L 281.225041 145.264468 
L 281.754909 184.085881 
L 282.387302 201.467466 
L 282.429741 205.795319 
L 283.154587 203.781779 
L 283.279252 208.024321 
L 283.742247 206.5464 
L 283.923221 211.027148 
L 284.17142 219.262249 
L 284.485063 218.533143 
L 285.758764 197.507708 
L 286.987599 101.290669 
L 287.428852 93.239119 
L 290.102118 116.455414 
L 290.844059 132.739758 
L 290.871346 126.791652 
L 291.312942 115.630151 
L 291.407428 107.627266 
L 291.608161 109.589328 
L 291.708791 111.906474 
L 291.797899 115.668557 
L 292.79813 121.353163 
L 293.11914 122.321184 
L 293.521214 121.817596 
L 293.691743 121.981864 
L 294.325807 142.371517 
L 295.025572 181.856373 
L 295.584621 187.812937 
L 295.987087 198.986519 
L 297.020253 188.665679 
L 297.173936 166.939122 
L 297.902136 132.451552 
L 298.43453 99.93693 
L 298.840902 114.778866 
L 299.053053 133.35484 
L 299.444863 146.808841 
L 299.894666 153.969203 
L 300.085401 138.472666 
L 300.432837 132.742045 
L 300.860322 111.944475 
L 301.492356 124.011329 
L 301.879112 128.976481 
L 302.12308 141.24273 
L 302.396774 53.568 
L 302.424202 121.819053 
L 303.318288 127.269298 
L 303.391311 112.869334 
L 303.711577 107.182441 
L 303.812142 113.759571 
L 305.62914 187.372523 
L 305.995306 187.329281 
L 306.794053 206.762651 
L 308.034348 222.166188 
L 309.408514 228.026758 
L 309.466213 230.542024 
L 309.652331 233.470346 
L 310.191619 248.123712 
L 310.296529 243.465767 
L 310.910325 240.8626 
L 311.026881 244.355801 
L 311.089873 239.574807 
L 312.097758 252.873444 
L 312.359783 248.019867 
L 313.777566 118.942391 
L 314.361163 127.750182 
L 315.362172 168.806829 
L 315.943281 124.064203 
L 316.315587 116.442585 
L 316.548536 101.343341 
L 316.981319 119.918586 
L 317.306187 128.355976 
L 317.687433 154.901589 
L 318.293948 179.642426 
L 319.835199 212.644123 
L 320.126275 215.985016 
L 320.551298 205.037965 
L 320.861948 227.76943 
L 321.590946 239.497874 
L 322.038471 241.04518 
L 322.398811 239.106469 
L 322.822708 251.17391 
L 322.873284 248.08648 
L 323.514223 253.206835 
L 323.702867 253.195908 
L 323.772661 253.450848 
L 323.878357 256.530406 
L 324.062196 249.957161 
L 324.319353 253.193662 
L 324.386239 257.022561 
L 324.760162 255.270092 
L 325.09917 252.242558 
L 325.167234 253.252545 
L 325.282413 244.044122 
L 325.399965 252.671438 
L 325.755542 250.234502 
L 326.121666 252.427384 
L 326.705338 252.05502 
L 326.837297 256.370246 
L 327.041632 257.268072 
L 328.416781 223.707626 
L 328.473199 213.475072 
L 329.200965 149.886395 
L 329.705414 96.273432 
L 330.724925 133.206235 
L 330.816393 146.021175 
L 331.942349 193.870029 
L 332.067621 193.727737 
L 332.160661 189.931962 
L 332.216824 199.437495 
L 333.473111 211.97983 
L 334.949442 179.566889 
L 335.029765 166.703749 
L 335.588665 125.434129 
L 336.037726 108.523634 
L 336.671785 136.823092 
L 336.790613 147.510973 
L 338.288976 195.771326 
L 339.599956 133.688434 
L 339.871074 135.251018 
L 340.135926 146.444591 
L 340.962586 163.595842 
L 341.048671 171.686992 
L 341.090858 168.795012 
L 341.581369 178.415621 
L 342.670183 186.469073 
L 343.412715 168.414756 
L 344.017833 134.681039 
L 344.446825 126.736451 
L 345.138366 157.591685 
L 345.417714 155.416528 
L 345.830248 184.130519 
L 347.715614 211.232553 
L 348.740612 225.534398 
L 348.950834 231.030091 
L 350.22003 228.332427 
L 351.034283 237.875476 
L 352.411202 242.810174 
L 352.769459 248.91668 
L 353.064106 245.35812 
L 353.117531 246.552063 
L 353.311756 245.503447 
L 353.373259 248.01582 
L 354.13729 253.774061 
L 354.664146 249.703455 
L 354.891494 253.985395 
L 356.000183 150.660018 
L 356.647329 123.569761 
L 357.087873 153.86908 
L 357.617939 175.235536 
L 358.279695 191.676762 
L 358.318707 191.242358 
L 359.272781 157.461554 
L 359.823424 99.200519 
L 360.735059 88.154722 
L 360.988019 74.017731 
L 361.276543 100.902482 
L 361.826632 124.701179 
L 362.687095 146.536539 
L 362.885315 154.914074 
L 363.585797 113.455743 
L 363.642815 97.171641 
L 363.786124 96.704274 
L 364.231984 83.900889 
L 364.576884 80.829263 
L 365.155047 106.363472 
L 365.610226 107.378093 
L 365.969945 102.59295 
L 366.148752 120.564344 
L 366.501057 122.328529 
L 366.726402 129.411715 
L 367.065663 130.346995 
L 367.270041 140.133308 
L 367.981629 145.287678 
L 368.135317 154.872147 
L 368.615529 149.430846 
L 368.788369 157.926108 
L 369.090033 161.748997 
L 369.303074 158.7143 
L 369.667886 175.856101 
L 369.978089 181.362256 
L 370.356626 182.734044 
L 370.445317 179.366462 
L 370.543236 194.387356 
L 370.584569 191.780142 
L 371.239277 196.326512 
L 371.278588 197.385934 
L 371.692056 202.256994 
L 372.801425 191.49315 
L 373.321895 192.803424 
L 373.411914 191.832004 
L 374.065875 200.270265 
L 374.156092 203.319005 
L 375.008932 203.257288 
L 375.925421 206.894259 
L 376.017077 204.322578 
L 376.313348 213.706458 
L 376.994874 215.615262 
L 377.28565 214.356264 
L 377.725195 220.542029 
L 378.642171 220.066366 
L 379.518733 212.318442 
L 380.236376 230.85522 
L 380.441337 230.50728 
L 381.550398 238.376473 
L 382.274524 237.636157 
L 382.75554 226.223641 
L 383.376701 112.215806 
L 383.625465 123.162432 
L 383.771174 99.612341 
L 384.097357 90.88203 
L 384.293735 92.684216 
L 384.36479 95.251384 
L 384.872366 84.456095 
L 385.050539 99.627396 
L 386.419948 167.489331 
L 386.944333 143.456981 
L 387.716821 127.395544 
L 387.858891 118.747366 
L 388.256102 117.914313 
L 388.790379 128.600172 
L 389.279892 114.072464 
L 389.386809 122.095888 
L 389.613934 126.10769 
L 389.918058 128.656991 
L 390.421417 141.52523 
L 390.598669 139.422919 
L 390.922269 156.746876 
L 391.170685 155.093093 
L 391.345955 163.818001 
L 391.390218 163.035718 
L 392.412944 183.684804 
L 392.650858 183.955709 
L 392.883114 183.952411 
L 392.988525 165.938079 
L 393.369559 144.81078 
L 394.285106 121.219451 
L 394.787397 146.53923 
L 395.562136 180.23359 
L 395.890915 183.795954 
L 395.940013 187.993575 
L 396.125818 189.996552 
L 396.851145 209.227491 
L 397.192244 209.903258 
L 398.108812 224.360791 
L 398.249305 200.513873 
L 398.511915 189.285213 
L 399.168789 111.638765 
L 399.368167 104.740001 
L 399.503955 92.02917 
L 399.652702 106.844295 
L 400.069549 110.912027 
L 400.633056 130.818894 
L 401.18734 141.134938 
L 401.604361 156.157836 
L 401.684122 152.769958 
L 402.324337 183.798099 
L 402.741144 182.361013 
L 402.868798 157.441946 
L 402.930195 162.794679 
L 403.154778 161.068779 
L 403.188267 143.428085 
L 403.400786 141.0955 
L 403.831765 130.351103 
L 404.235349 134.553802 
L 404.381048 147.254313 
L 404.751063 157.588994 
L 404.885893 169.644172 
L 405.97184 201.9716 
L 406.673727 218.960971 
L 406.825701 227.258801 
L 407.278443 226.010688 
L 407.585546 236.213437 
L 407.99767 215.249596 
L 408.14709 193.689715 
L 408.543186 173.009022 
L 408.927134 150.902899 
L 409.600866 143.083342 
L 410.747062 181.86475 
L 411.239197 192.178346 
L 412.535114 205.273904 
L 412.666661 209.013608 
L 412.862536 209.284169 
L 412.918539 213.556295 
L 413.444777 218.525009 
L 414.72 235.861409 
L 414.72 235.861409 
" style="fill:none;stroke:#000000;stroke-linecap:square;stroke-width:0.8;"/>
   </g>
   <g id="patch_3">
    <path d="M 57.6 307.584 
L 57.6 41.472 
" style="fill:none;stroke:#000000;stroke-linecap:square;stroke-linejoin:miter;stroke-width:0.8;"/>
   </g>
   <g id="patch_4">
    <path d="M 414.72 307.584 
L 414.72 41.472 
" style="fill:none;stroke:#000000;stroke-linecap:square;stroke-linejoin:miter;stroke-width:0.8;"/>
   </g>
   <g id="patch_5">
    <path d="M 57.6 307.584 
L 414.72 307.584 
" style="fill:none;stroke:#000000;stroke-linecap:square;stroke-linejoin:miter;stroke-width:0.8;"/>
   </g>
   <g id="patch_6">
    <path d="M 57.6 41.472 
L 414.72 41.472 
" style="fill:none;stroke:#000000;stroke-linecap:square;stroke-linejoin:miter;stroke-width:0.8;"/>
   </g>
  </g>
  <g id="axes_2">
   <g id="matplotlib.axis_3">
    <g id="xtick_7">
     <g id="line2d_30">
      <defs>
       <path d="M 0 0 
L 0 -3.5 
" id="mc557a77e68" style="stroke:#000000;stroke-width:0.8;"/>
      </defs>
      <g>
       <use style="stroke:#000000;stroke-width:0.8;" x="57.6" xlink:href="#mc557a77e68" y="41.472"/>
      </g>
     </g>
    </g>
    <g id="xtick_8">
     <g id="line2d_31">
      <g>
       <use style="stroke:#000000;stroke-width:0.8;" x="113.798659" xlink:href="#mc557a77e68" y="41.472"/>
      </g>
     </g>
     <g id="text_17">
      <!-- 10.0K -->
      <defs>
       <path d="M 9.8125 72.90625 
L 19.671875 72.90625 
L 19.671875 42.09375 
L 52.390625 72.90625 
L 65.09375 72.90625 
L 28.90625 38.921875 
L 67.671875 0 
L 54.6875 0 
L 19.671875 35.109375 
L 19.671875 0 
L 9.8125 0 
z
" id="DejaVuSans-75"/>
      </defs>
      <g transform="translate(99.38694 32.392313)scale(0.1 -0.1)">
       <use xlink:href="#DejaVuSans-49"/>
       <use x="63.623047" xlink:href="#DejaVuSans-48"/>
       <use x="127.246094" xlink:href="#DejaVuSans-46"/>
       <use x="159.033203" xlink:href="#DejaVuSans-48"/>
       <use x="222.65625" xlink:href="#DejaVuSans-75"/>
      </g>
     </g>
    </g>
    <g id="xtick_9">
     <g id="line2d_32">
      <g>
       <use style="stroke:#000000;stroke-width:0.8;" x="169.997318" xlink:href="#mc557a77e68" y="41.472"/>
      </g>
     </g>
     <g id="text_18">
      <!-- 20.0K -->
      <g transform="translate(155.5856 32.392313)scale(0.1 -0.1)">
       <use xlink:href="#DejaVuSans-50"/>
       <use x="63.623047" xlink:href="#DejaVuSans-48"/>
       <use x="127.246094" xlink:href="#DejaVuSans-46"/>
       <use x="159.033203" xlink:href="#DejaVuSans-48"/>
       <use x="222.65625" xlink:href="#DejaVuSans-75"/>
      </g>
     </g>
    </g>
    <g id="xtick_10">
     <g id="line2d_33">
      <g>
       <use style="stroke:#000000;stroke-width:0.8;" x="226.195978" xlink:href="#mc557a77e68" y="41.472"/>
      </g>
     </g>
     <g id="text_19">
      <!-- 30.0K -->
      <defs>
       <path d="M 40.578125 39.3125 
Q 47.65625 37.796875 51.625 33 
Q 55.609375 28.21875 55.609375 21.1875 
Q 55.609375 10.40625 48.1875 4.484375 
Q 40.765625 -1.421875 27.09375 -1.421875 
Q 22.515625 -1.421875 17.65625 -0.515625 
Q 12.796875 0.390625 7.625 2.203125 
L 7.625 11.71875 
Q 11.71875 9.328125 16.59375 8.109375 
Q 21.484375 6.890625 26.8125 6.890625 
Q 36.078125 6.890625 40.9375 10.546875 
Q 45.796875 14.203125 45.796875 21.1875 
Q 45.796875 27.640625 41.28125 31.265625 
Q 36.765625 34.90625 28.71875 34.90625 
L 20.21875 34.90625 
L 20.21875 43.015625 
L 29.109375 43.015625 
Q 36.375 43.015625 40.234375 45.921875 
Q 44.09375 48.828125 44.09375 54.296875 
Q 44.09375 59.90625 40.109375 62.90625 
Q 36.140625 65.921875 28.71875 65.921875 
Q 24.65625 65.921875 20.015625 65.03125 
Q 15.375 64.15625 9.8125 62.3125 
L 9.8125 71.09375 
Q 15.4375 72.65625 20.34375 73.4375 
Q 25.25 74.21875 29.59375 74.21875 
Q 40.828125 74.21875 47.359375 69.109375 
Q 53.90625 64.015625 53.90625 55.328125 
Q 53.90625 49.265625 50.4375 45.09375 
Q 46.96875 40.921875 40.578125 39.3125 
z
" id="DejaVuSans-51"/>
      </defs>
      <g transform="translate(211.784259 32.392313)scale(0.1 -0.1)">
       <use xlink:href="#DejaVuSans-51"/>
       <use x="63.623047" xlink:href="#DejaVuSans-48"/>
       <use x="127.246094" xlink:href="#DejaVuSans-46"/>
       <use x="159.033203" xlink:href="#DejaVuSans-48"/>
       <use x="222.65625" xlink:href="#DejaVuSans-75"/>
      </g>
     </g>
    </g>
    <g id="xtick_11">
     <g id="line2d_34">
      <g>
       <use style="stroke:#000000;stroke-width:0.8;" x="282.394637" xlink:href="#mc557a77e68" y="41.472"/>
      </g>
     </g>
     <g id="text_20">
      <!-- 40.0K -->
      <g transform="translate(267.982918 32.392313)scale(0.1 -0.1)">
       <use xlink:href="#DejaVuSans-52"/>
       <use x="63.623047" xlink:href="#DejaVuSans-48"/>
       <use x="127.246094" xlink:href="#DejaVuSans-46"/>
       <use x="159.033203" xlink:href="#DejaVuSans-48"/>
       <use x="222.65625" xlink:href="#DejaVuSans-75"/>
      </g>
     </g>
    </g>
    <g id="xtick_12">
     <g id="line2d_35">
      <g>
       <use style="stroke:#000000;stroke-width:0.8;" x="338.593296" xlink:href="#mc557a77e68" y="41.472"/>
      </g>
     </g>
     <g id="text_21">
      <!-- 50.0K -->
      <g transform="translate(324.181577 32.392313)scale(0.1 -0.1)">
       <use xlink:href="#DejaVuSans-53"/>
       <use x="63.623047" xlink:href="#DejaVuSans-48"/>
       <use x="127.246094" xlink:href="#DejaVuSans-46"/>
       <use x="159.033203" xlink:href="#DejaVuSans-48"/>
       <use x="222.65625" xlink:href="#DejaVuSans-75"/>
      </g>
     </g>
    </g>
    <g id="xtick_13">
     <g id="line2d_36">
      <g>
       <use style="stroke:#000000;stroke-width:0.8;" x="394.791955" xlink:href="#mc557a77e68" y="41.472"/>
      </g>
     </g>
     <g id="text_22">
      <!-- 60.0K -->
      <g transform="translate(380.380237 32.392313)scale(0.1 -0.1)">
       <use xlink:href="#DejaVuSans-54"/>
       <use x="63.623047" xlink:href="#DejaVuSans-48"/>
       <use x="127.246094" xlink:href="#DejaVuSans-46"/>
       <use x="159.033203" xlink:href="#DejaVuSans-48"/>
       <use x="222.65625" xlink:href="#DejaVuSans-75"/>
      </g>
     </g>
    </g>
    <g id="text_23">
     <!-- Steps -->
     <defs>
      <path d="M 53.515625 70.515625 
L 53.515625 60.890625 
Q 47.90625 63.578125 42.921875 64.890625 
Q 37.9375 66.21875 33.296875 66.21875 
Q 25.25 66.21875 20.875 63.09375 
Q 16.5 59.96875 16.5 54.203125 
Q 16.5 49.359375 19.40625 46.890625 
Q 22.3125 44.4375 30.421875 42.921875 
L 36.375 41.703125 
Q 47.40625 39.59375 52.65625 34.296875 
Q 57.90625 29 57.90625 20.125 
Q 57.90625 9.515625 50.796875 4.046875 
Q 43.703125 -1.421875 29.984375 -1.421875 
Q 24.8125 -1.421875 18.96875 -0.25 
Q 13.140625 0.921875 6.890625 3.21875 
L 6.890625 13.375 
Q 12.890625 10.015625 18.65625 8.296875 
Q 24.421875 6.59375 29.984375 6.59375 
Q 38.421875 6.59375 43.015625 9.90625 
Q 47.609375 13.234375 47.609375 19.390625 
Q 47.609375 24.75 44.3125 27.78125 
Q 41.015625 30.8125 33.5 32.328125 
L 27.484375 33.5 
Q 16.453125 35.6875 11.515625 40.375 
Q 6.59375 45.0625 6.59375 53.421875 
Q 6.59375 63.09375 13.40625 68.65625 
Q 20.21875 74.21875 32.171875 74.21875 
Q 37.3125 74.21875 42.625 73.28125 
Q 47.953125 72.359375 53.515625 70.515625 
z
" id="DejaVuSans-83"/>
      <path d="M 18.3125 70.21875 
L 18.3125 54.6875 
L 36.8125 54.6875 
L 36.8125 47.703125 
L 18.3125 47.703125 
L 18.3125 18.015625 
Q 18.3125 11.328125 20.140625 9.421875 
Q 21.96875 7.515625 27.59375 7.515625 
L 36.8125 7.515625 
L 36.8125 0 
L 27.59375 0 
Q 17.1875 0 13.234375 3.875 
Q 9.28125 7.765625 9.28125 18.015625 
L 9.28125 47.703125 
L 2.6875 47.703125 
L 2.6875 54.6875 
L 9.28125 54.6875 
L 9.28125 70.21875 
z
" id="DejaVuSans-116"/>
      <path d="M 56.203125 29.59375 
L 56.203125 25.203125 
L 14.890625 25.203125 
Q 15.484375 15.921875 20.484375 11.0625 
Q 25.484375 6.203125 34.421875 6.203125 
Q 39.59375 6.203125 44.453125 7.46875 
Q 49.3125 8.734375 54.109375 11.28125 
L 54.109375 2.78125 
Q 49.265625 0.734375 44.1875 -0.34375 
Q 39.109375 -1.421875 33.890625 -1.421875 
Q 20.796875 -1.421875 13.15625 6.1875 
Q 5.515625 13.8125 5.515625 26.8125 
Q 5.515625 40.234375 12.765625 48.109375 
Q 20.015625 56 32.328125 56 
Q 43.359375 56 49.78125 48.890625 
Q 56.203125 41.796875 56.203125 29.59375 
z
M 47.21875 32.234375 
Q 47.125 39.59375 43.09375 43.984375 
Q 39.0625 48.390625 32.421875 48.390625 
Q 24.90625 48.390625 20.390625 44.140625 
Q 15.875 39.890625 15.1875 32.171875 
z
" id="DejaVuSans-101"/>
      <path d="M 18.109375 8.203125 
L 18.109375 -20.796875 
L 9.078125 -20.796875 
L 9.078125 54.6875 
L 18.109375 54.6875 
L 18.109375 46.390625 
Q 20.953125 51.265625 25.265625 53.625 
Q 29.59375 56 35.59375 56 
Q 45.5625 56 51.78125 48.09375 
Q 58.015625 40.1875 58.015625 27.296875 
Q 58.015625 14.40625 51.78125 6.484375 
Q 45.5625 -1.421875 35.59375 -1.421875 
Q 29.59375 -1.421875 25.265625 0.953125 
Q 20.953125 3.328125 18.109375 8.203125 
z
M 48.6875 27.296875 
Q 48.6875 37.203125 44.609375 42.84375 
Q 40.53125 48.484375 33.40625 48.484375 
Q 26.265625 48.484375 22.1875 42.84375 
Q 18.109375 37.203125 18.109375 27.296875 
Q 18.109375 17.390625 22.1875 11.75 
Q 26.265625 6.109375 33.40625 6.109375 
Q 40.53125 6.109375 44.609375 11.75 
Q 48.6875 17.390625 48.6875 27.296875 
z
" id="DejaVuSans-112"/>
     </defs>
     <g transform="translate(222.170156 20.793875)scale(0.1 -0.1)">
      <use xlink:href="#DejaVuSans-83"/>
      <use x="63.476562" xlink:href="#DejaVuSans-116"/>
      <use x="102.685547" xlink:href="#DejaVuSans-101"/>
      <use x="164.208984" xlink:href="#DejaVuSans-112"/>
      <use x="227.685547" xlink:href="#DejaVuSans-115"/>
     </g>
    </g>
   </g>
   <g id="patch_7">
    <path d="M 57.6 307.584 
L 57.6 41.472 
" style="fill:none;stroke:#000000;stroke-linecap:square;stroke-linejoin:miter;stroke-width:0.8;"/>
   </g>
   <g id="patch_8">
    <path d="M 414.72 307.584 
L 414.72 41.472 
" style="fill:none;stroke:#000000;stroke-linecap:square;stroke-linejoin:miter;stroke-width:0.8;"/>
   </g>
   <g id="patch_9">
    <path d="M 57.6 307.584 
L 414.72 307.584 
" style="fill:none;stroke:#000000;stroke-linecap:square;stroke-linejoin:miter;stroke-width:0.8;"/>
   </g>
   <g id="patch_10">
    <path d="M 57.6 41.472 
L 414.72 41.472 
" style="fill:none;stroke:#000000;stroke-linecap:square;stroke-linejoin:miter;stroke-width:0.8;"/>
   </g>
  </g>
 </g>
 <defs>
  <clipPath id="pe8f3781732">
   <rect height="266.112" width="357.12" x="57.6" y="41.472"/>
  </clipPath>
 </defs>
</svg>
