<?xml version="1.0" encoding="utf-8" standalone="no"?>
<!DOCTYPE svg PUBLIC "-//W3C//DTD SVG 1.1//EN"
  "http://www.w3.org/Graphics/SVG/1.1/DTD/svg11.dtd">
<!-- Created with matplotlib (https://matplotlib.org/) -->
<svg height="345.6pt" version="1.1" viewBox="0 0 460.8 345.6" width="460.8pt" xmlns="http://www.w3.org/2000/svg" xmlns:xlink="http://www.w3.org/1999/xlink">
 <defs>
  <style type="text/css">
*{stroke-linecap:butt;stroke-linejoin:round;}
  </style>
 </defs>
 <g id="figure_1">
  <g id="patch_1">
   <path d="M 0 345.6 
L 460.8 345.6 
L 460.8 0 
L 0 0 
z
" style="fill:#ffffff;"/>
  </g>
  <g id="axes_1">
   <g id="patch_2">
    <path d="M 57.6 307.584 
L 414.72 307.584 
L 414.72 41.472 
L 57.6 41.472 
z
" style="fill:#ffffff;"/>
   </g>
   <g id="matplotlib.axis_1">
    <g id="xtick_1">
     <g id="line2d_1">
      <path clip-path="url(#p3585a2485c)" d="M 57.6 307.584 
L 57.6 41.472 
" style="fill:none;stroke:#b0b0b0;stroke-linecap:square;stroke-width:0.8;"/>
     </g>
     <g id="line2d_2">
      <defs>
       <path d="M 0 0 
L 0 3.5 
" id="md35c4eae1a" style="stroke:#000000;stroke-width:0.8;"/>
      </defs>
      <g>
       <use style="stroke:#000000;stroke-width:0.8;" x="57.6" xlink:href="#md35c4eae1a" y="307.584"/>
      </g>
     </g>
     <g id="text_1">
      <!-- 0 -->
      <defs>
       <path d="M 31.78125 66.40625 
Q 24.171875 66.40625 20.328125 58.90625 
Q 16.5 51.421875 16.5 36.375 
Q 16.5 21.390625 20.328125 13.890625 
Q 24.171875 6.390625 31.78125 6.390625 
Q 39.453125 6.390625 43.28125 13.890625 
Q 47.125 21.390625 47.125 36.375 
Q 47.125 51.421875 43.28125 58.90625 
Q 39.453125 66.40625 31.78125 66.40625 
z
M 31.78125 74.21875 
Q 44.046875 74.21875 50.515625 64.515625 
Q 56.984375 54.828125 56.984375 36.375 
Q 56.984375 17.96875 50.515625 8.265625 
Q 44.046875 -1.421875 31.78125 -1.421875 
Q 19.53125 -1.421875 13.0625 8.265625 
Q 6.59375 17.96875 6.59375 36.375 
Q 6.59375 54.828125 13.0625 64.515625 
Q 19.53125 74.21875 31.78125 74.21875 
z
" id="DejaVuSans-48"/>
      </defs>
      <g transform="translate(54.41875 322.182437)scale(0.1 -0.1)">
       <use xlink:href="#DejaVuSans-48"/>
      </g>
     </g>
    </g>
    <g id="xtick_2">
     <g id="line2d_3">
      <path clip-path="url(#p3585a2485c)" d="M 106.616307 307.584 
L 106.616307 41.472 
" style="fill:none;stroke:#b0b0b0;stroke-linecap:square;stroke-width:0.8;"/>
     </g>
     <g id="line2d_4">
      <g>
       <use style="stroke:#000000;stroke-width:0.8;" x="106.616307" xlink:href="#md35c4eae1a" y="307.584"/>
      </g>
     </g>
     <g id="text_2">
      <!-- 2 -->
      <defs>
       <path d="M 19.1875 8.296875 
L 53.609375 8.296875 
L 53.609375 0 
L 7.328125 0 
L 7.328125 8.296875 
Q 12.9375 14.109375 22.625 23.890625 
Q 32.328125 33.6875 34.8125 36.53125 
Q 39.546875 41.84375 41.421875 45.53125 
Q 43.3125 49.21875 43.3125 52.78125 
Q 43.3125 58.59375 39.234375 62.25 
Q 35.15625 65.921875 28.609375 65.921875 
Q 23.96875 65.921875 18.8125 64.3125 
Q 13.671875 62.703125 7.8125 59.421875 
L 7.8125 69.390625 
Q 13.765625 71.78125 18.9375 73 
Q 24.125 74.21875 28.421875 74.21875 
Q 39.75 74.21875 46.484375 68.546875 
Q 53.21875 62.890625 53.21875 53.421875 
Q 53.21875 48.921875 51.53125 44.890625 
Q 49.859375 40.875 45.40625 35.40625 
Q 44.1875 33.984375 37.640625 27.21875 
Q 31.109375 20.453125 19.1875 8.296875 
z
" id="DejaVuSans-50"/>
      </defs>
      <g transform="translate(103.435057 322.182437)scale(0.1 -0.1)">
       <use xlink:href="#DejaVuSans-50"/>
      </g>
     </g>
    </g>
    <g id="xtick_3">
     <g id="line2d_5">
      <path clip-path="url(#p3585a2485c)" d="M 155.632614 307.584 
L 155.632614 41.472 
" style="fill:none;stroke:#b0b0b0;stroke-linecap:square;stroke-width:0.8;"/>
     </g>
     <g id="line2d_6">
      <g>
       <use style="stroke:#000000;stroke-width:0.8;" x="155.632614" xlink:href="#md35c4eae1a" y="307.584"/>
      </g>
     </g>
     <g id="text_3">
      <!-- 4 -->
      <defs>
       <path d="M 37.796875 64.3125 
L 12.890625 25.390625 
L 37.796875 25.390625 
z
M 35.203125 72.90625 
L 47.609375 72.90625 
L 47.609375 25.390625 
L 58.015625 25.390625 
L 58.015625 17.1875 
L 47.609375 17.1875 
L 47.609375 0 
L 37.796875 0 
L 37.796875 17.1875 
L 4.890625 17.1875 
L 4.890625 26.703125 
z
" id="DejaVuSans-52"/>
      </defs>
      <g transform="translate(152.451364 322.182437)scale(0.1 -0.1)">
       <use xlink:href="#DejaVuSans-52"/>
      </g>
     </g>
    </g>
    <g id="xtick_4">
     <g id="line2d_7">
      <path clip-path="url(#p3585a2485c)" d="M 204.648922 307.584 
L 204.648922 41.472 
" style="fill:none;stroke:#b0b0b0;stroke-linecap:square;stroke-width:0.8;"/>
     </g>
     <g id="line2d_8">
      <g>
       <use style="stroke:#000000;stroke-width:0.8;" x="204.648922" xlink:href="#md35c4eae1a" y="307.584"/>
      </g>
     </g>
     <g id="text_4">
      <!-- 6 -->
      <defs>
       <path d="M 33.015625 40.375 
Q 26.375 40.375 22.484375 35.828125 
Q 18.609375 31.296875 18.609375 23.390625 
Q 18.609375 15.53125 22.484375 10.953125 
Q 26.375 6.390625 33.015625 6.390625 
Q 39.65625 6.390625 43.53125 10.953125 
Q 47.40625 15.53125 47.40625 23.390625 
Q 47.40625 31.296875 43.53125 35.828125 
Q 39.65625 40.375 33.015625 40.375 
z
M 52.59375 71.296875 
L 52.59375 62.3125 
Q 48.875 64.0625 45.09375 64.984375 
Q 41.3125 65.921875 37.59375 65.921875 
Q 27.828125 65.921875 22.671875 59.328125 
Q 17.53125 52.734375 16.796875 39.40625 
Q 19.671875 43.65625 24.015625 45.921875 
Q 28.375 48.1875 33.59375 48.1875 
Q 44.578125 48.1875 50.953125 41.515625 
Q 57.328125 34.859375 57.328125 23.390625 
Q 57.328125 12.15625 50.6875 5.359375 
Q 44.046875 -1.421875 33.015625 -1.421875 
Q 20.359375 -1.421875 13.671875 8.265625 
Q 6.984375 17.96875 6.984375 36.375 
Q 6.984375 53.65625 15.1875 63.9375 
Q 23.390625 74.21875 37.203125 74.21875 
Q 40.921875 74.21875 44.703125 73.484375 
Q 48.484375 72.75 52.59375 71.296875 
z
" id="DejaVuSans-54"/>
      </defs>
      <g transform="translate(201.467672 322.182437)scale(0.1 -0.1)">
       <use xlink:href="#DejaVuSans-54"/>
      </g>
     </g>
    </g>
    <g id="xtick_5">
     <g id="line2d_9">
      <path clip-path="url(#p3585a2485c)" d="M 253.665229 307.584 
L 253.665229 41.472 
" style="fill:none;stroke:#b0b0b0;stroke-linecap:square;stroke-width:0.8;"/>
     </g>
     <g id="line2d_10">
      <g>
       <use style="stroke:#000000;stroke-width:0.8;" x="253.665229" xlink:href="#md35c4eae1a" y="307.584"/>
      </g>
     </g>
     <g id="text_5">
      <!-- 8 -->
      <defs>
       <path d="M 31.78125 34.625 
Q 24.75 34.625 20.71875 30.859375 
Q 16.703125 27.09375 16.703125 20.515625 
Q 16.703125 13.921875 20.71875 10.15625 
Q 24.75 6.390625 31.78125 6.390625 
Q 38.8125 6.390625 42.859375 10.171875 
Q 46.921875 13.96875 46.921875 20.515625 
Q 46.921875 27.09375 42.890625 30.859375 
Q 38.875 34.625 31.78125 34.625 
z
M 21.921875 38.8125 
Q 15.578125 40.375 12.03125 44.71875 
Q 8.5 49.078125 8.5 55.328125 
Q 8.5 64.0625 14.71875 69.140625 
Q 20.953125 74.21875 31.78125 74.21875 
Q 42.671875 74.21875 48.875 69.140625 
Q 55.078125 64.0625 55.078125 55.328125 
Q 55.078125 49.078125 51.53125 44.71875 
Q 48 40.375 41.703125 38.8125 
Q 48.828125 37.15625 52.796875 32.3125 
Q 56.78125 27.484375 56.78125 20.515625 
Q 56.78125 9.90625 50.3125 4.234375 
Q 43.84375 -1.421875 31.78125 -1.421875 
Q 19.734375 -1.421875 13.25 4.234375 
Q 6.78125 9.90625 6.78125 20.515625 
Q 6.78125 27.484375 10.78125 32.3125 
Q 14.796875 37.15625 21.921875 38.8125 
z
M 18.3125 54.390625 
Q 18.3125 48.734375 21.84375 45.5625 
Q 25.390625 42.390625 31.78125 42.390625 
Q 38.140625 42.390625 41.71875 45.5625 
Q 45.3125 48.734375 45.3125 54.390625 
Q 45.3125 60.0625 41.71875 63.234375 
Q 38.140625 66.40625 31.78125 66.40625 
Q 25.390625 66.40625 21.84375 63.234375 
Q 18.3125 60.0625 18.3125 54.390625 
z
" id="DejaVuSans-56"/>
      </defs>
      <g transform="translate(250.483979 322.182437)scale(0.1 -0.1)">
       <use xlink:href="#DejaVuSans-56"/>
      </g>
     </g>
    </g>
    <g id="xtick_6">
     <g id="line2d_11">
      <path clip-path="url(#p3585a2485c)" d="M 302.681536 307.584 
L 302.681536 41.472 
" style="fill:none;stroke:#b0b0b0;stroke-linecap:square;stroke-width:0.8;"/>
     </g>
     <g id="line2d_12">
      <g>
       <use style="stroke:#000000;stroke-width:0.8;" x="302.681536" xlink:href="#md35c4eae1a" y="307.584"/>
      </g>
     </g>
     <g id="text_6">
      <!-- 10 -->
      <defs>
       <path d="M 12.40625 8.296875 
L 28.515625 8.296875 
L 28.515625 63.921875 
L 10.984375 60.40625 
L 10.984375 69.390625 
L 28.421875 72.90625 
L 38.28125 72.90625 
L 38.28125 8.296875 
L 54.390625 8.296875 
L 54.390625 0 
L 12.40625 0 
z
" id="DejaVuSans-49"/>
      </defs>
      <g transform="translate(296.319036 322.182437)scale(0.1 -0.1)">
       <use xlink:href="#DejaVuSans-49"/>
       <use x="63.623047" xlink:href="#DejaVuSans-48"/>
      </g>
     </g>
    </g>
    <g id="xtick_7">
     <g id="line2d_13">
      <path clip-path="url(#p3585a2485c)" d="M 351.697843 307.584 
L 351.697843 41.472 
" style="fill:none;stroke:#b0b0b0;stroke-linecap:square;stroke-width:0.8;"/>
     </g>
     <g id="line2d_14">
      <g>
       <use style="stroke:#000000;stroke-width:0.8;" x="351.697843" xlink:href="#md35c4eae1a" y="307.584"/>
      </g>
     </g>
     <g id="text_7">
      <!-- 12 -->
      <g transform="translate(345.335343 322.182437)scale(0.1 -0.1)">
       <use xlink:href="#DejaVuSans-49"/>
       <use x="63.623047" xlink:href="#DejaVuSans-50"/>
      </g>
     </g>
    </g>
    <g id="xtick_8">
     <g id="line2d_15">
      <path clip-path="url(#p3585a2485c)" d="M 400.71415 307.584 
L 400.71415 41.472 
" style="fill:none;stroke:#b0b0b0;stroke-linecap:square;stroke-width:0.8;"/>
     </g>
     <g id="line2d_16">
      <g>
       <use style="stroke:#000000;stroke-width:0.8;" x="400.71415" xlink:href="#md35c4eae1a" y="307.584"/>
      </g>
     </g>
     <g id="text_8">
      <!-- 14 -->
      <g transform="translate(394.35165 322.182437)scale(0.1 -0.1)">
       <use xlink:href="#DejaVuSans-49"/>
       <use x="63.623047" xlink:href="#DejaVuSans-52"/>
      </g>
     </g>
    </g>
    <g id="text_9">
     <!-- Hours -->
     <defs>
      <path d="M 9.8125 72.90625 
L 19.671875 72.90625 
L 19.671875 43.015625 
L 55.515625 43.015625 
L 55.515625 72.90625 
L 65.375 72.90625 
L 65.375 0 
L 55.515625 0 
L 55.515625 34.71875 
L 19.671875 34.71875 
L 19.671875 0 
L 9.8125 0 
z
" id="DejaVuSans-72"/>
      <path d="M 30.609375 48.390625 
Q 23.390625 48.390625 19.1875 42.75 
Q 14.984375 37.109375 14.984375 27.296875 
Q 14.984375 17.484375 19.15625 11.84375 
Q 23.34375 6.203125 30.609375 6.203125 
Q 37.796875 6.203125 41.984375 11.859375 
Q 46.1875 17.53125 46.1875 27.296875 
Q 46.1875 37.015625 41.984375 42.703125 
Q 37.796875 48.390625 30.609375 48.390625 
z
M 30.609375 56 
Q 42.328125 56 49.015625 48.375 
Q 55.71875 40.765625 55.71875 27.296875 
Q 55.71875 13.875 49.015625 6.21875 
Q 42.328125 -1.421875 30.609375 -1.421875 
Q 18.84375 -1.421875 12.171875 6.21875 
Q 5.515625 13.875 5.515625 27.296875 
Q 5.515625 40.765625 12.171875 48.375 
Q 18.84375 56 30.609375 56 
z
" id="DejaVuSans-111"/>
      <path d="M 8.5 21.578125 
L 8.5 54.6875 
L 17.484375 54.6875 
L 17.484375 21.921875 
Q 17.484375 14.15625 20.5 10.265625 
Q 23.53125 6.390625 29.59375 6.390625 
Q 36.859375 6.390625 41.078125 11.03125 
Q 45.3125 15.671875 45.3125 23.6875 
L 45.3125 54.6875 
L 54.296875 54.6875 
L 54.296875 0 
L 45.3125 0 
L 45.3125 8.40625 
Q 42.046875 3.421875 37.71875 1 
Q 33.40625 -1.421875 27.6875 -1.421875 
Q 18.265625 -1.421875 13.375 4.4375 
Q 8.5 10.296875 8.5 21.578125 
z
M 31.109375 56 
z
" id="DejaVuSans-117"/>
      <path d="M 41.109375 46.296875 
Q 39.59375 47.171875 37.8125 47.578125 
Q 36.03125 48 33.890625 48 
Q 26.265625 48 22.1875 43.046875 
Q 18.109375 38.09375 18.109375 28.8125 
L 18.109375 0 
L 9.078125 0 
L 9.078125 54.6875 
L 18.109375 54.6875 
L 18.109375 46.1875 
Q 20.953125 51.171875 25.484375 53.578125 
Q 30.03125 56 36.53125 56 
Q 37.453125 56 38.578125 55.875 
Q 39.703125 55.765625 41.0625 55.515625 
z
" id="DejaVuSans-114"/>
      <path d="M 44.28125 53.078125 
L 44.28125 44.578125 
Q 40.484375 46.53125 36.375 47.5 
Q 32.28125 48.484375 27.875 48.484375 
Q 21.1875 48.484375 17.84375 46.4375 
Q 14.5 44.390625 14.5 40.28125 
Q 14.5 37.15625 16.890625 35.375 
Q 19.28125 33.59375 26.515625 31.984375 
L 29.59375 31.296875 
Q 39.15625 29.25 43.1875 25.515625 
Q 47.21875 21.78125 47.21875 15.09375 
Q 47.21875 7.46875 41.1875 3.015625 
Q 35.15625 -1.421875 24.609375 -1.421875 
Q 20.21875 -1.421875 15.453125 -0.5625 
Q 10.6875 0.296875 5.421875 2 
L 5.421875 11.28125 
Q 10.40625 8.6875 15.234375 7.390625 
Q 20.0625 6.109375 24.8125 6.109375 
Q 31.15625 6.109375 34.5625 8.28125 
Q 37.984375 10.453125 37.984375 14.40625 
Q 37.984375 18.0625 35.515625 20.015625 
Q 33.0625 21.96875 24.703125 23.78125 
L 21.578125 24.515625 
Q 13.234375 26.265625 9.515625 29.90625 
Q 5.8125 33.546875 5.8125 39.890625 
Q 5.8125 47.609375 11.28125 51.796875 
Q 16.75 56 26.8125 56 
Q 31.78125 56 36.171875 55.265625 
Q 40.578125 54.546875 44.28125 53.078125 
z
" id="DejaVuSans-115"/>
     </defs>
     <g transform="translate(221.511562 335.860562)scale(0.1 -0.1)">
      <use xlink:href="#DejaVuSans-72"/>
      <use x="75.195312" xlink:href="#DejaVuSans-111"/>
      <use x="136.376953" xlink:href="#DejaVuSans-117"/>
      <use x="199.755859" xlink:href="#DejaVuSans-114"/>
      <use x="240.869141" xlink:href="#DejaVuSans-115"/>
     </g>
    </g>
   </g>
   <g id="matplotlib.axis_2">
    <g id="ytick_1">
     <g id="line2d_17">
      <path clip-path="url(#p3585a2485c)" d="M 57.6 302.406561 
L 414.72 302.406561 
" style="fill:none;stroke:#b0b0b0;stroke-linecap:square;stroke-width:0.8;"/>
     </g>
     <g id="line2d_18">
      <defs>
       <path d="M 0 0 
L -3.5 0 
" id="m5f107d2582" style="stroke:#000000;stroke-width:0.8;"/>
      </defs>
      <g>
       <use style="stroke:#000000;stroke-width:0.8;" x="57.6" xlink:href="#m5f107d2582" y="302.406561"/>
      </g>
     </g>
     <g id="text_10">
      <!-- −0.06 -->
      <defs>
       <path d="M 10.59375 35.5 
L 73.1875 35.5 
L 73.1875 27.203125 
L 10.59375 27.203125 
z
" id="DejaVuSans-8722"/>
       <path d="M 10.6875 12.40625 
L 21 12.40625 
L 21 0 
L 10.6875 0 
z
" id="DejaVuSans-46"/>
      </defs>
      <g transform="translate(19.954687 306.20578)scale(0.1 -0.1)">
       <use xlink:href="#DejaVuSans-8722"/>
       <use x="83.789062" xlink:href="#DejaVuSans-48"/>
       <use x="147.412109" xlink:href="#DejaVuSans-46"/>
       <use x="179.199219" xlink:href="#DejaVuSans-48"/>
       <use x="242.822266" xlink:href="#DejaVuSans-54"/>
      </g>
     </g>
    </g>
    <g id="ytick_2">
     <g id="line2d_19">
      <path clip-path="url(#p3585a2485c)" d="M 57.6 271.203839 
L 414.72 271.203839 
" style="fill:none;stroke:#b0b0b0;stroke-linecap:square;stroke-width:0.8;"/>
     </g>
     <g id="line2d_20">
      <g>
       <use style="stroke:#000000;stroke-width:0.8;" x="57.6" xlink:href="#m5f107d2582" y="271.203839"/>
      </g>
     </g>
     <g id="text_11">
      <!-- −0.05 -->
      <defs>
       <path d="M 10.796875 72.90625 
L 49.515625 72.90625 
L 49.515625 64.59375 
L 19.828125 64.59375 
L 19.828125 46.734375 
Q 21.96875 47.46875 24.109375 47.828125 
Q 26.265625 48.1875 28.421875 48.1875 
Q 40.625 48.1875 47.75 41.5 
Q 54.890625 34.8125 54.890625 23.390625 
Q 54.890625 11.625 47.5625 5.09375 
Q 40.234375 -1.421875 26.90625 -1.421875 
Q 22.3125 -1.421875 17.546875 -0.640625 
Q 12.796875 0.140625 7.71875 1.703125 
L 7.71875 11.625 
Q 12.109375 9.234375 16.796875 8.0625 
Q 21.484375 6.890625 26.703125 6.890625 
Q 35.15625 6.890625 40.078125 11.328125 
Q 45.015625 15.765625 45.015625 23.390625 
Q 45.015625 31 40.078125 35.4375 
Q 35.15625 39.890625 26.703125 39.890625 
Q 22.75 39.890625 18.8125 39.015625 
Q 14.890625 38.140625 10.796875 36.28125 
z
" id="DejaVuSans-53"/>
      </defs>
      <g transform="translate(19.954687 275.003057)scale(0.1 -0.1)">
       <use xlink:href="#DejaVuSans-8722"/>
       <use x="83.789062" xlink:href="#DejaVuSans-48"/>
       <use x="147.412109" xlink:href="#DejaVuSans-46"/>
       <use x="179.199219" xlink:href="#DejaVuSans-48"/>
       <use x="242.822266" xlink:href="#DejaVuSans-53"/>
      </g>
     </g>
    </g>
    <g id="ytick_3">
     <g id="line2d_21">
      <path clip-path="url(#p3585a2485c)" d="M 57.6 240.001116 
L 414.72 240.001116 
" style="fill:none;stroke:#b0b0b0;stroke-linecap:square;stroke-width:0.8;"/>
     </g>
     <g id="line2d_22">
      <g>
       <use style="stroke:#000000;stroke-width:0.8;" x="57.6" xlink:href="#m5f107d2582" y="240.001116"/>
      </g>
     </g>
     <g id="text_12">
      <!-- −0.04 -->
      <g transform="translate(19.954687 243.800335)scale(0.1 -0.1)">
       <use xlink:href="#DejaVuSans-8722"/>
       <use x="83.789062" xlink:href="#DejaVuSans-48"/>
       <use x="147.412109" xlink:href="#DejaVuSans-46"/>
       <use x="179.199219" xlink:href="#DejaVuSans-48"/>
       <use x="242.822266" xlink:href="#DejaVuSans-52"/>
      </g>
     </g>
    </g>
    <g id="ytick_4">
     <g id="line2d_23">
      <path clip-path="url(#p3585a2485c)" d="M 57.6 208.798393 
L 414.72 208.798393 
" style="fill:none;stroke:#b0b0b0;stroke-linecap:square;stroke-width:0.8;"/>
     </g>
     <g id="line2d_24">
      <g>
       <use style="stroke:#000000;stroke-width:0.8;" x="57.6" xlink:href="#m5f107d2582" y="208.798393"/>
      </g>
     </g>
     <g id="text_13">
      <!-- −0.03 -->
      <defs>
       <path d="M 40.578125 39.3125 
Q 47.65625 37.796875 51.625 33 
Q 55.609375 28.21875 55.609375 21.1875 
Q 55.609375 10.40625 48.1875 4.484375 
Q 40.765625 -1.421875 27.09375 -1.421875 
Q 22.515625 -1.421875 17.65625 -0.515625 
Q 12.796875 0.390625 7.625 2.203125 
L 7.625 11.71875 
Q 11.71875 9.328125 16.59375 8.109375 
Q 21.484375 6.890625 26.8125 6.890625 
Q 36.078125 6.890625 40.9375 10.546875 
Q 45.796875 14.203125 45.796875 21.1875 
Q 45.796875 27.640625 41.28125 31.265625 
Q 36.765625 34.90625 28.71875 34.90625 
L 20.21875 34.90625 
L 20.21875 43.015625 
L 29.109375 43.015625 
Q 36.375 43.015625 40.234375 45.921875 
Q 44.09375 48.828125 44.09375 54.296875 
Q 44.09375 59.90625 40.109375 62.90625 
Q 36.140625 65.921875 28.71875 65.921875 
Q 24.65625 65.921875 20.015625 65.03125 
Q 15.375 64.15625 9.8125 62.3125 
L 9.8125 71.09375 
Q 15.4375 72.65625 20.34375 73.4375 
Q 25.25 74.21875 29.59375 74.21875 
Q 40.828125 74.21875 47.359375 69.109375 
Q 53.90625 64.015625 53.90625 55.328125 
Q 53.90625 49.265625 50.4375 45.09375 
Q 46.96875 40.921875 40.578125 39.3125 
z
" id="DejaVuSans-51"/>
      </defs>
      <g transform="translate(19.954687 212.597612)scale(0.1 -0.1)">
       <use xlink:href="#DejaVuSans-8722"/>
       <use x="83.789062" xlink:href="#DejaVuSans-48"/>
       <use x="147.412109" xlink:href="#DejaVuSans-46"/>
       <use x="179.199219" xlink:href="#DejaVuSans-48"/>
       <use x="242.822266" xlink:href="#DejaVuSans-51"/>
      </g>
     </g>
    </g>
    <g id="ytick_5">
     <g id="line2d_25">
      <path clip-path="url(#p3585a2485c)" d="M 57.6 177.59567 
L 414.72 177.59567 
" style="fill:none;stroke:#b0b0b0;stroke-linecap:square;stroke-width:0.8;"/>
     </g>
     <g id="line2d_26">
      <g>
       <use style="stroke:#000000;stroke-width:0.8;" x="57.6" xlink:href="#m5f107d2582" y="177.59567"/>
      </g>
     </g>
     <g id="text_14">
      <!-- −0.02 -->
      <g transform="translate(19.954687 181.394889)scale(0.1 -0.1)">
       <use xlink:href="#DejaVuSans-8722"/>
       <use x="83.789062" xlink:href="#DejaVuSans-48"/>
       <use x="147.412109" xlink:href="#DejaVuSans-46"/>
       <use x="179.199219" xlink:href="#DejaVuSans-48"/>
       <use x="242.822266" xlink:href="#DejaVuSans-50"/>
      </g>
     </g>
    </g>
    <g id="ytick_6">
     <g id="line2d_27">
      <path clip-path="url(#p3585a2485c)" d="M 57.6 146.392947 
L 414.72 146.392947 
" style="fill:none;stroke:#b0b0b0;stroke-linecap:square;stroke-width:0.8;"/>
     </g>
     <g id="line2d_28">
      <g>
       <use style="stroke:#000000;stroke-width:0.8;" x="57.6" xlink:href="#m5f107d2582" y="146.392947"/>
      </g>
     </g>
     <g id="text_15">
      <!-- −0.01 -->
      <g transform="translate(19.954687 150.192166)scale(0.1 -0.1)">
       <use xlink:href="#DejaVuSans-8722"/>
       <use x="83.789062" xlink:href="#DejaVuSans-48"/>
       <use x="147.412109" xlink:href="#DejaVuSans-46"/>
       <use x="179.199219" xlink:href="#DejaVuSans-48"/>
       <use x="242.822266" xlink:href="#DejaVuSans-49"/>
      </g>
     </g>
    </g>
    <g id="ytick_7">
     <g id="line2d_29">
      <path clip-path="url(#p3585a2485c)" d="M 57.6 115.190225 
L 414.72 115.190225 
" style="fill:none;stroke:#b0b0b0;stroke-linecap:square;stroke-width:0.8;"/>
     </g>
     <g id="line2d_30">
      <g>
       <use style="stroke:#000000;stroke-width:0.8;" x="57.6" xlink:href="#m5f107d2582" y="115.190225"/>
      </g>
     </g>
     <g id="text_16">
      <!-- 0.00 -->
      <g transform="translate(28.334375 118.989443)scale(0.1 -0.1)">
       <use xlink:href="#DejaVuSans-48"/>
       <use x="63.623047" xlink:href="#DejaVuSans-46"/>
       <use x="95.410156" xlink:href="#DejaVuSans-48"/>
       <use x="159.033203" xlink:href="#DejaVuSans-48"/>
      </g>
     </g>
    </g>
    <g id="ytick_8">
     <g id="line2d_31">
      <path clip-path="url(#p3585a2485c)" d="M 57.6 83.987502 
L 414.72 83.987502 
" style="fill:none;stroke:#b0b0b0;stroke-linecap:square;stroke-width:0.8;"/>
     </g>
     <g id="line2d_32">
      <g>
       <use style="stroke:#000000;stroke-width:0.8;" x="57.6" xlink:href="#m5f107d2582" y="83.987502"/>
      </g>
     </g>
     <g id="text_17">
      <!-- 0.01 -->
      <g transform="translate(28.334375 87.78672)scale(0.1 -0.1)">
       <use xlink:href="#DejaVuSans-48"/>
       <use x="63.623047" xlink:href="#DejaVuSans-46"/>
       <use x="95.410156" xlink:href="#DejaVuSans-48"/>
       <use x="159.033203" xlink:href="#DejaVuSans-49"/>
      </g>
     </g>
    </g>
    <g id="ytick_9">
     <g id="line2d_33">
      <path clip-path="url(#p3585a2485c)" d="M 57.6 52.784779 
L 414.72 52.784779 
" style="fill:none;stroke:#b0b0b0;stroke-linecap:square;stroke-width:0.8;"/>
     </g>
     <g id="line2d_34">
      <g>
       <use style="stroke:#000000;stroke-width:0.8;" x="57.6" xlink:href="#m5f107d2582" y="52.784779"/>
      </g>
     </g>
     <g id="text_18">
      <!-- 0.02 -->
      <g transform="translate(28.334375 56.583998)scale(0.1 -0.1)">
       <use xlink:href="#DejaVuSans-48"/>
       <use x="63.623047" xlink:href="#DejaVuSans-46"/>
       <use x="95.410156" xlink:href="#DejaVuSans-48"/>
       <use x="159.033203" xlink:href="#DejaVuSans-50"/>
      </g>
     </g>
    </g>
    <g id="text_19">
     <!-- Advantage -->
     <defs>
      <path d="M 34.1875 63.1875 
L 20.796875 26.90625 
L 47.609375 26.90625 
z
M 28.609375 72.90625 
L 39.796875 72.90625 
L 67.578125 0 
L 57.328125 0 
L 50.6875 18.703125 
L 17.828125 18.703125 
L 11.1875 0 
L 0.78125 0 
z
" id="DejaVuSans-65"/>
      <path d="M 45.40625 46.390625 
L 45.40625 75.984375 
L 54.390625 75.984375 
L 54.390625 0 
L 45.40625 0 
L 45.40625 8.203125 
Q 42.578125 3.328125 38.25 0.953125 
Q 33.9375 -1.421875 27.875 -1.421875 
Q 17.96875 -1.421875 11.734375 6.484375 
Q 5.515625 14.40625 5.515625 27.296875 
Q 5.515625 40.1875 11.734375 48.09375 
Q 17.96875 56 27.875 56 
Q 33.9375 56 38.25 53.625 
Q 42.578125 51.265625 45.40625 46.390625 
z
M 14.796875 27.296875 
Q 14.796875 17.390625 18.875 11.75 
Q 22.953125 6.109375 30.078125 6.109375 
Q 37.203125 6.109375 41.296875 11.75 
Q 45.40625 17.390625 45.40625 27.296875 
Q 45.40625 37.203125 41.296875 42.84375 
Q 37.203125 48.484375 30.078125 48.484375 
Q 22.953125 48.484375 18.875 42.84375 
Q 14.796875 37.203125 14.796875 27.296875 
z
" id="DejaVuSans-100"/>
      <path d="M 2.984375 54.6875 
L 12.5 54.6875 
L 29.59375 8.796875 
L 46.6875 54.6875 
L 56.203125 54.6875 
L 35.6875 0 
L 23.484375 0 
z
" id="DejaVuSans-118"/>
      <path d="M 34.28125 27.484375 
Q 23.390625 27.484375 19.1875 25 
Q 14.984375 22.515625 14.984375 16.5 
Q 14.984375 11.71875 18.140625 8.90625 
Q 21.296875 6.109375 26.703125 6.109375 
Q 34.1875 6.109375 38.703125 11.40625 
Q 43.21875 16.703125 43.21875 25.484375 
L 43.21875 27.484375 
z
M 52.203125 31.203125 
L 52.203125 0 
L 43.21875 0 
L 43.21875 8.296875 
Q 40.140625 3.328125 35.546875 0.953125 
Q 30.953125 -1.421875 24.3125 -1.421875 
Q 15.921875 -1.421875 10.953125 3.296875 
Q 6 8.015625 6 15.921875 
Q 6 25.140625 12.171875 29.828125 
Q 18.359375 34.515625 30.609375 34.515625 
L 43.21875 34.515625 
L 43.21875 35.40625 
Q 43.21875 41.609375 39.140625 45 
Q 35.0625 48.390625 27.6875 48.390625 
Q 23 48.390625 18.546875 47.265625 
Q 14.109375 46.140625 10.015625 43.890625 
L 10.015625 52.203125 
Q 14.9375 54.109375 19.578125 55.046875 
Q 24.21875 56 28.609375 56 
Q 40.484375 56 46.34375 49.84375 
Q 52.203125 43.703125 52.203125 31.203125 
z
" id="DejaVuSans-97"/>
      <path d="M 54.890625 33.015625 
L 54.890625 0 
L 45.90625 0 
L 45.90625 32.71875 
Q 45.90625 40.484375 42.875 44.328125 
Q 39.84375 48.1875 33.796875 48.1875 
Q 26.515625 48.1875 22.3125 43.546875 
Q 18.109375 38.921875 18.109375 30.90625 
L 18.109375 0 
L 9.078125 0 
L 9.078125 54.6875 
L 18.109375 54.6875 
L 18.109375 46.1875 
Q 21.34375 51.125 25.703125 53.5625 
Q 30.078125 56 35.796875 56 
Q 45.21875 56 50.046875 50.171875 
Q 54.890625 44.34375 54.890625 33.015625 
z
" id="DejaVuSans-110"/>
      <path d="M 18.3125 70.21875 
L 18.3125 54.6875 
L 36.8125 54.6875 
L 36.8125 47.703125 
L 18.3125 47.703125 
L 18.3125 18.015625 
Q 18.3125 11.328125 20.140625 9.421875 
Q 21.96875 7.515625 27.59375 7.515625 
L 36.8125 7.515625 
L 36.8125 0 
L 27.59375 0 
Q 17.1875 0 13.234375 3.875 
Q 9.28125 7.765625 9.28125 18.015625 
L 9.28125 47.703125 
L 2.6875 47.703125 
L 2.6875 54.6875 
L 9.28125 54.6875 
L 9.28125 70.21875 
z
" id="DejaVuSans-116"/>
      <path d="M 45.40625 27.984375 
Q 45.40625 37.75 41.375 43.109375 
Q 37.359375 48.484375 30.078125 48.484375 
Q 22.859375 48.484375 18.828125 43.109375 
Q 14.796875 37.75 14.796875 27.984375 
Q 14.796875 18.265625 18.828125 12.890625 
Q 22.859375 7.515625 30.078125 7.515625 
Q 37.359375 7.515625 41.375 12.890625 
Q 45.40625 18.265625 45.40625 27.984375 
z
M 54.390625 6.78125 
Q 54.390625 -7.171875 48.1875 -13.984375 
Q 42 -20.796875 29.203125 -20.796875 
Q 24.46875 -20.796875 20.265625 -20.09375 
Q 16.0625 -19.390625 12.109375 -17.921875 
L 12.109375 -9.1875 
Q 16.0625 -11.328125 19.921875 -12.34375 
Q 23.78125 -13.375 27.78125 -13.375 
Q 36.625 -13.375 41.015625 -8.765625 
Q 45.40625 -4.15625 45.40625 5.171875 
L 45.40625 9.625 
Q 42.625 4.78125 38.28125 2.390625 
Q 33.9375 0 27.875 0 
Q 17.828125 0 11.671875 7.65625 
Q 5.515625 15.328125 5.515625 27.984375 
Q 5.515625 40.671875 11.671875 48.328125 
Q 17.828125 56 27.875 56 
Q 33.9375 56 38.28125 53.609375 
Q 42.625 51.21875 45.40625 46.390625 
L 45.40625 54.6875 
L 54.390625 54.6875 
z
" id="DejaVuSans-103"/>
      <path d="M 56.203125 29.59375 
L 56.203125 25.203125 
L 14.890625 25.203125 
Q 15.484375 15.921875 20.484375 11.0625 
Q 25.484375 6.203125 34.421875 6.203125 
Q 39.59375 6.203125 44.453125 7.46875 
Q 49.3125 8.734375 54.109375 11.28125 
L 54.109375 2.78125 
Q 49.265625 0.734375 44.1875 -0.34375 
Q 39.109375 -1.421875 33.890625 -1.421875 
Q 20.796875 -1.421875 13.15625 6.1875 
Q 5.515625 13.8125 5.515625 26.8125 
Q 5.515625 40.234375 12.765625 48.109375 
Q 20.015625 56 32.328125 56 
Q 43.359375 56 49.78125 48.890625 
Q 56.203125 41.796875 56.203125 29.59375 
z
M 47.21875 32.234375 
Q 47.125 39.59375 43.09375 43.984375 
Q 39.0625 48.390625 32.421875 48.390625 
Q 24.90625 48.390625 20.390625 44.140625 
Q 15.875 39.890625 15.1875 32.171875 
z
" id="DejaVuSans-101"/>
     </defs>
     <g transform="translate(13.875 201.588937)rotate(-90)scale(0.1 -0.1)">
      <use xlink:href="#DejaVuSans-65"/>
      <use x="68.392578" xlink:href="#DejaVuSans-100"/>
      <use x="131.869141" xlink:href="#DejaVuSans-118"/>
      <use x="191.048828" xlink:href="#DejaVuSans-97"/>
      <use x="252.328125" xlink:href="#DejaVuSans-110"/>
      <use x="315.707031" xlink:href="#DejaVuSans-116"/>
      <use x="354.916016" xlink:href="#DejaVuSans-97"/>
      <use x="416.195312" xlink:href="#DejaVuSans-103"/>
      <use x="479.671875" xlink:href="#DejaVuSans-101"/>
     </g>
    </g>
   </g>
   <g id="line2d_35">
    <path clip-path="url(#p3585a2485c)" d="M 57.6 118.929175 
L 58.050294 111.995425 
L 58.346055 116.178108 
L 58.566371 103.706012 
L 59.017962 114.478832 
L 59.91538 119.22236 
L 60.216915 113.763182 
L 60.365108 125.269819 
L 60.51346 123.085567 
L 60.587011 124.729268 
L 60.735027 120.437268 
L 61.187875 115.386855 
L 61.261348 112.693879 
L 61.334882 118.664128 
L 61.408349 112.333074 
L 62.077122 117.044912 
L 62.297288 117.526529 
L 62.523465 115.715345 
L 62.596132 108.294444 
L 62.74287 117.04212 
L 63.109789 114.197031 
L 63.70156 117.457314 
L 64.219752 114.043816 
L 64.812902 116.335091 
L 65.624074 112.678196 
L 65.988253 113.638989 
L 66.577221 115.815338 
L 66.794843 112.966219 
L 66.878981 124.48468 
L 67.53035 111.233096 
L 67.75443 119.971578 
L 67.827187 118.051948 
L 68.340652 113.00341 
L 68.700485 116.71876 
L 68.844315 110.077003 
L 68.916344 120.769151 
L 69.209727 117.411624 
L 69.568454 119.248239 
L 69.63952 108.196271 
L 69.865525 125.015401 
L 70.291314 105.826491 
L 70.361934 121.661923 
L 70.724594 114.358227 
L 70.865366 113.443115 
L 70.935818 129.861557 
L 71.076434 115.488997 
L 71.229753 124.545044 
L 71.299615 119.419524 
L 71.789911 113.821729 
L 72.430962 121.863243 
L 72.501291 108.356533 
L 72.793382 115.174645 
L 73.502894 116.199696 
L 73.572374 119.374325 
L 74.212809 110.181538 
L 74.282056 112.263371 
L 74.351373 111.144674 
L 74.559319 113.838725 
L 75.403364 130.976787 
L 75.829508 134.105013 
L 76.035556 140.328489 
L 76.190256 112.098444 
L 76.258842 130.599156 
L 76.670126 108.657122 
L 76.961574 117.109984 
L 77.097981 128.158583 
L 77.44007 138.235355 
L 78.438049 139.909139 
L 78.77964 131.443109 
L 78.847906 126.876197 
L 79.141553 121.775681 
L 79.209901 116.286919 
L 79.482694 137.123045 
L 79.550433 151.061066 
L 79.711944 123.004589 
L 79.915862 138.133514 
L 80.255125 150.989754 
L 80.41364 134.947567 
L 80.753069 114.48688 
L 80.821075 133.352462 
L 80.889166 130.898184 
L 81.113727 111.143959 
L 81.725928 136.29533 
L 81.881769 133.853011 
L 82.291137 145.342804 
L 83.232596 141.737857 
L 83.436373 129.203988 
L 83.708689 153.767935 
L 84.00027 135.112444 
L 84.136666 148.271035 
L 84.41719 134.373513 
L 84.484912 154.268684 
L 84.5526 132.376362 
L 84.715869 129.151875 
L 85.054743 160.009506 
L 85.43333 150.213462 
L 85.501024 134.63566 
L 86.616896 148.592091 
L 87.114806 128.058349 
L 87.551951 134.183613 
L 87.619803 153.365418 
L 87.755212 150.93087 
L 88.189398 150.293864 
L 88.797756 147.00272 
L 88.967634 148.096923 
L 89.035323 145.847523 
L 89.664483 144.160552 
L 90.20475 140.414436 
L 90.309713 165.604195 
L 90.579394 147.669939 
L 91.214593 150.452275 
L 91.281967 133.846212 
L 92.050471 133.072874 
L 92.253209 158.628424 
L 92.320501 150.307366 
L 92.496428 164.095817 
L 92.630588 143.666603 
L 93.612059 142.534776 
L 93.989768 153.330407 
L 94.123837 163.135992 
L 94.326325 153.713822 
L 94.837913 150.364689 
L 94.904696 150.831186 
L 95.341961 165.543733 
L 95.757517 148.597394 
L 96.039475 160.422129 
L 96.174742 143.398273 
L 96.511281 163.351424 
L 96.578219 148.248694 
L 97.223003 157.844083 
L 97.357255 164.967122 
L 97.666564 145.209402 
L 98.067627 190.308866 
L 98.376996 156.946429 
L 98.4436 137.287506 
L 98.644152 150.002674 
L 98.777874 147.316534 
L 98.956927 158.46727 
L 99.023766 149.049861 
L 99.09095 153.826717 
L 99.158227 165.043369 
L 99.358468 153.797642 
L 99.731183 157.563479 
L 99.798072 171.88493 
L 100.314798 168.95182 
L 100.448071 143.15699 
L 100.849513 182.902482 
L 101.028591 155.40102 
L 101.363411 188.76915 
L 101.874235 146.215005 
L 102.719675 161.799392 
L 103.270582 168.784795 
L 103.337111 143.737203 
L 103.470375 140.088263 
L 103.537285 189.491606 
L 103.604144 162.405684 
L 103.671075 152.852176 
L 103.807196 154.831648 
L 104.045395 162.809057 
L 104.311977 190.182549 
L 104.695435 174.378203 
L 104.895655 152.54522 
L 105.163046 171.824607 
L 105.410363 172.981135 
L 105.477165 180.320972 
L 105.676953 144.024747 
L 105.8767 180.409337 
L 105.943376 168.65144 
L 106.195754 180.210243 
L 106.262815 155.665958 
L 106.462647 179.563552 
L 106.59642 176.517015 
L 106.663277 178.976852 
L 107.17846 174.628239 
L 107.378501 157.607876 
L 107.687457 187.916483 
L 107.888387 169.519619 
L 108.021784 170.961235 
L 108.200143 152.428513 
L 108.467237 181.207837 
L 108.734244 173.227394 
L 108.972759 174.044427 
L 109.039496 156.172691 
L 109.106115 191.744792 
L 109.172741 174.965524 
L 110.018857 188.875387 
L 110.151943 167.720974 
L 110.21868 203.864688 
L 110.529923 165.67492 
L 110.730027 215.261285 
L 110.799673 180.86836 
L 111.040712 144.377379 
L 111.107382 165.642385 
L 111.173745 163.12653 
L 111.44059 153.289988 
L 111.885552 172.875282 
L 112.086475 134.21477 
L 112.153847 231.222101 
L 112.35369 139.435637 
L 112.467805 211.012236 
L 112.534648 158.621197 
L 112.735181 172.77534 
L 113.16935 165.376941 
L 113.435886 177.731029 
L 113.50253 172.771219 
L 113.635942 216.715205 
L 113.769315 176.212806 
L 113.941095 159.491105 
L 114.007659 166.140993 
L 114.074248 199.849361 
L 114.140828 170.257482 
L 114.207462 192.712617 
L 114.407076 167.751551 
L 114.715215 157.189043 
L 114.914708 181.607124 
L 115.047593 137.812763 
L 115.113954 176.918186 
L 115.180567 161.1343 
L 115.629218 154.026102 
L 115.695714 181.189012 
L 115.828995 162.898596 
L 116.076258 170.418747 
L 116.542429 158.45025 
L 116.788925 230.033253 
L 116.855931 217.386056 
L 117.122006 152.076329 
L 117.255103 164.88794 
L 117.634322 169.318775 
L 117.833858 192.947345 
L 117.966371 181.223698 
L 119.321504 149.696569 
L 119.454536 175.679349 
L 119.576229 161.723863 
L 119.842738 168.491884 
L 119.975269 144.951586 
L 120.289806 187.198602 
L 120.423011 183.885308 
L 120.556251 153.451093 
L 120.75563 171.108923 
L 120.888837 194.75508 
L 121.006564 136.838484 
L 121.13975 211.068083 
L 121.405561 176.526373 
L 121.71383 189.087239 
L 122.179202 164.038999 
L 122.245411 148.906416 
L 122.311522 171.95955 
L 122.421777 255.337527 
L 122.554495 158.151748 
L 122.753668 159.726106 
L 122.820306 191.093498 
L 122.886936 169.550591 
L 123.135788 177.052884 
L 123.202231 192.97991 
L 123.268884 181.100025 
L 123.335505 190.411488 
L 123.920596 172.742816 
L 123.987423 183.540008 
L 124.187901 162.239369 
L 124.70822 161.251868 
L 124.908203 149.92579 
L 125.498536 185.261987 
L 125.565177 177.42668 
L 125.698761 187.583574 
L 125.765721 185.861392 
L 125.832298 132.906365 
L 126.083913 201.797188 
L 126.150634 194.533911 
L 126.284313 189.801354 
L 126.417674 180.34268 
L 126.80322 160.959869 
L 126.870173 203.920796 
L 127.13702 168.827647 
L 127.203732 209.937791 
L 127.270066 144.681298 
L 127.336528 212.905662 
L 127.589007 158.987165 
L 127.656136 173.647709 
L 127.722594 150.122336 
L 127.923148 169.088215 
L 127.989737 165.120773 
L 128.577291 176.378255 
L 128.899517 188.791119 
L 129.032863 159.734051 
L 129.433273 192.024615 
L 129.751311 181.508838 
L 129.818434 216.882322 
L 129.884813 182.222268 
L 130.08526 197.796537 
L 130.672682 186.60645 
L 130.805712 166.264945 
L 131.109245 163.670183 
L 131.175829 205.226517 
L 131.376282 177.858085 
L 131.50975 208.525804 
L 131.643546 162.579049 
L 132.02385 197.208395 
L 132.5449 169.178405 
L 132.611637 195.614023 
L 132.811764 176.300811 
L 132.945457 177.913374 
L 133.399038 167.617771 
L 133.598965 224.111656 
L 133.731963 175.867012 
L 134.038026 210.351875 
L 134.305116 188.460582 
L 134.438452 188.796838 
L 134.827521 182.361284 
L 134.894179 199.436799 
L 134.960915 193.282184 
L 135.482354 179.257273 
L 135.548776 163.81106 
L 135.949276 162.280707 
L 136.273805 189.185414 
L 136.340376 139.860089 
L 136.407131 184.812298 
L 137.057907 137.335032 
L 137.191436 176.246358 
L 137.391485 200.05765 
L 137.85269 153.097615 
L 137.919337 185.55334 
L 138.225847 146.968656 
L 138.425782 217.108291 
L 138.559099 167.905533 
L 139.552455 170.913333 
L 139.794821 189.775462 
L 139.994137 184.504898 
L 140.060786 150.230837 
L 140.127588 191.626531 
L 140.37168 182.632703 
L 140.438221 146.349921 
L 140.505168 218.820459 
L 141.799012 195.532726 
L 141.932265 140.892566 
L 141.999197 171.993706 
L 142.132338 171.489089 
L 142.199289 223.383231 
L 142.6503 179.626972 
L 142.71732 254.405219 
L 142.850129 159.771512 
L 142.983103 159.982777 
L 143.116382 191.887354 
L 143.305385 168.003674 
L 143.505306 190.609426 
L 143.638064 219.054402 
L 143.771169 143.813421 
L 143.962592 144.821509 
L 144.229575 247.89107 
L 144.951079 184.543541 
L 145.217342 184.010753 
L 145.543654 199.891771 
L 145.610073 157.762381 
L 145.676701 187.969047 
L 145.810027 187.32564 
L 146.009913 149.589679 
L 146.270257 160.043828 
L 146.403558 228.63894 
L 146.603039 223.747072 
L 147.061721 162.626693 
L 147.328237 195.625915 
L 147.394856 167.777403 
L 147.645719 199.100351 
L 147.712562 229.429274 
L 147.778903 155.321425 
L 147.978382 174.013345 
L 148.567054 184.007034 
L 148.901235 186.828607 
L 149.095216 182.015106 
L 149.494575 180.331881 
L 149.82721 185.503613 
L 149.893979 197.196533 
L 149.960469 159.906105 
L 150.026787 175.497708 
L 150.482776 178.848036 
L 150.681824 163.814704 
L 151.209852 180.87938 
L 151.34293 178.024527 
L 151.541659 179.115438 
L 151.607667 151.061624 
L 151.8061 196.990708 
L 152.254298 192.944794 
L 152.38665 173.849797 
L 152.64367 162.682912 
L 152.842267 147.851458 
L 152.97474 212.667477 
L 153.040808 151.838997 
L 153.107042 168.968233 
L 153.566579 134.368969 
L 153.964131 148.030487 
L 154.428795 198.853354 
L 154.889468 158.579714 
L 155.219479 141.239845 
L 155.555927 210.481157 
L 156.018725 146.224685 
L 156.150897 171.29365 
L 156.408762 180.035745 
L 156.607506 193.719359 
L 156.805724 191.448673 
L 156.871872 153.978528 
L 157.071378 251.12553 
L 157.137439 167.650022 
L 157.334938 104.620559 
L 158.606143 176.999925 
L 158.672252 173.370659 
L 158.738327 162.797994 
L 159.068697 128.347694 
L 159.342166 149.007681 
L 159.606444 189.555886 
L 159.672336 142.114638 
L 159.738293 180.496261 
L 160.072644 176.141912 
L 160.139016 162.89871 
L 160.205865 225.896346 
L 160.340686 131.037888 
L 160.673694 187.517399 
L 160.806117 150.913716 
L 161.396289 224.872755 
L 161.793141 164.934744 
L 162.459524 291.792175 
L 162.525516 189.902884 
L 163.312116 182.318444 
L 163.896375 159.010314 
L 163.962043 179.237286 
L 164.158968 169.0365 
L 164.372338 203.638149 
L 164.438124 163.678239 
L 165.02643 140.500229 
L 165.092394 145.274394 
L 165.158524 165.586044 
L 165.224501 141.006355 
L 165.422635 155.249118 
L 165.554655 225.025064 
L 165.620964 213.567493 
L 165.752212 200.27038 
L 166.283487 240.510136 
L 166.667794 162.724322 
L 166.734156 168.540571 
L 166.932432 211.56883 
L 167.581123 175.132973 
L 168.295822 152.771974 
L 168.692913 194.348684 
L 168.761593 168.629233 
L 169.012552 174.546389 
L 169.150608 198.387264 
L 170.055663 130.410093 
L 170.978426 174.906684 
L 171.113028 170.105145 
L 172.386263 210.419811 
L 173.017635 156.743786 
L 173.293891 121.23295 
L 173.845155 134.126475 
L 175.165726 156.687796 
L 175.439755 144.857447 
L 175.927578 206.879148 
L 176.205314 133.56936 
L 176.342305 149.538812 
L 177.106613 157.557097 
L 177.51702 150.022545 
L 178.202119 149.544226 
L 178.540688 161.609576 
L 179.359504 149.605359 
L 179.496425 185.256053 
L 179.634104 131.826401 
L 180.238783 188.214817 
L 180.9117 134.859837 
L 181.407171 153.298584 
L 181.671079 141.466166 
L 182.066982 141.184358 
L 182.464969 159.950506 
L 183.126555 170.657403 
L 184.091293 209.962834 
L 184.310317 158.43037 
L 184.448976 192.78321 
L 185.41084 175.296173 
L 185.776478 137.492334 
L 186.050158 151.981937 
L 186.458878 126.896834 
L 186.593145 158.755387 
L 187.495678 130.782968 
L 187.629054 135.228972 
L 188.797158 136.440693 
L 189.344224 179.17955 
L 189.481101 153.597778 
L 189.618835 174.2473 
L 189.892402 115.610415 
L 190.446323 131.243133 
L 191.381787 141.333197 
L 191.622757 166.831512 
L 192.304797 154.173961 
L 192.577731 144.736898 
L 192.715665 127.609327 
L 192.849265 183.032461 
L 194.144106 136.160222 
L 194.769417 195.534266 
L 195.032452 151.467581 
L 195.165672 156.502584 
L 195.432931 189.886035 
L 196.184709 175.569771 
L 196.316543 138.841566 
L 196.583575 130.880241 
L 196.71692 157.462228 
L 196.851332 237.664752 
L 197.611337 165.71622 
L 197.884395 149.302088 
L 199.286608 154.58659 
L 199.686789 173.04702 
L 200.968142 164.0209 
L 201.850012 133.274968 
L 201.986521 156.129869 
L 202.803153 149.086903 
L 202.936313 206.458792 
L 203.196243 147.894655 
L 204.289068 171.846763 
L 205.199021 139.859336 
L 205.336431 151.218576 
L 206.520181 128.709881 
L 206.657311 155.988286 
L 207.069048 150.553049 
L 207.57488 157.869063 
L 208.104334 167.369821 
L 208.369614 295.488 
L 209.045331 162.161404 
L 209.843176 119.395632 
L 210.502815 152.828495 
L 210.639998 146.215624 
L 211.049853 148.706322 
L 211.735267 188.454514 
L 212.355122 153.7705 
L 212.621977 96.474446 
L 212.894937 161.527805 
L 213.168456 168.68444 
L 214.198198 148.663537 
L 214.473328 153.339276 
L 214.611118 145.324351 
L 215.574644 165.030943 
L 215.710956 182.113084 
L 215.848008 152.128535 
L 216.117011 157.104467 
L 216.483714 167.183234 
L 218.221783 186.93432 
L 219.497868 125.943392 
L 220.042588 92.511118 
L 220.876127 147.235905 
L 221.014052 170.724084 
L 221.837033 156.961816 
L 221.973031 128.296674 
L 222.617487 173.920964 
L 222.753707 167.848157 
L 223.633093 205.636045 
L 224.16203 184.175493 
L 224.293911 130.024142 
L 224.426653 140.193692 
L 224.692601 148.801193 
L 224.824609 127.399386 
L 225.585524 134.288749 
L 225.983653 56.035107 
L 226.254798 156.84916 
L 226.717771 140.249333 
L 227.111339 145.458662 
L 227.513724 167.905481 
L 227.879221 154.610576 
L 228.833846 93.364009 
L 229.106535 153.02498 
L 229.506044 148.042671 
L 230.799221 138.949908 
L 231.07337 150.486232 
L 231.206313 126.076905 
L 233.184595 158.065952 
L 233.767487 141.141957 
L 234.292453 152.793423 
L 234.423681 176.838713 
L 234.819303 123.598643 
L 235.056025 130.199882 
L 235.465361 178.975416 
L 235.73753 167.433945 
L 236.01081 149.519153 
L 236.80142 152.965149 
L 237.197883 115.241714 
L 237.461272 222.34625 
L 237.967942 149.840436 
L 238.369223 113.980191 
L 238.767648 112.710737 
L 239.033842 145.541218 
L 239.525961 135.032858 
L 239.937724 117.613862 
L 240.073964 150.19892 
L 240.483744 152.668835 
L 241.070042 131.938149 
L 242.373316 130.936893 
L 242.647671 145.570203 
L 243.329718 147.564487 
L 244.084257 125.558114 
L 244.221355 167.173348 
L 244.358728 160.324476 
L 244.631361 135.970308 
L 245.039231 170.691618 
L 245.388111 149.040623 
L 245.787316 154.416163 
L 245.919213 124.510162 
L 246.45771 162.232816 
L 247.236282 147.425104 
L 247.50975 131.343351 
L 248.415038 137.233549 
L 248.547905 137.204072 
L 248.681141 167.397132 
L 248.946644 139.876969 
L 249.346739 126.749346 
L 249.744722 181.101478 
L 250.280654 184.471566 
L 250.693428 126.543583 
L 251.056094 175.403665 
L 251.323038 157.367918 
L 251.593443 107.210682 
L 252.128631 154.38576 
L 252.745741 180.457187 
L 253.020448 132.41324 
L 253.555494 170.802673 
L 253.686288 136.501113 
L 254.053221 113.751971 
L 254.191347 152.28809 
L 254.465781 131.047552 
L 254.73318 175.890998 
L 254.997767 105.625308 
L 255.134847 198.6689 
L 255.531498 183.887458 
L 256.19356 171.154977 
L 256.326824 153.334935 
L 257.24323 124.133937 
L 257.378707 144.959706 
L 257.514438 109.909755 
L 258.062157 139.237484 
L 258.434203 177.395586 
L 258.708982 136.923472 
L 259.254562 247.136933 
L 260.774068 171.374465 
L 261.038666 170.588462 
L 261.449031 131.637451 
L 261.579482 153.92035 
L 262.10437 180.508949 
L 262.50273 155.818464 
L 262.734559 101.418532 
L 263.143296 155.233876 
L 263.693314 188.193208 
L 263.831224 131.624615 
L 264.31699 168.462447 
L 264.727342 137.768753 
L 266.19113 129.499527 
L 266.327803 139.392708 
L 266.737959 97.747393 
L 266.875513 170.230759 
L 267.243953 172.816616 
L 267.639335 102.305528 
L 268.03286 143.743414 
L 268.298937 149.357194 
L 268.514188 94.670812 
L 268.650808 149.370559 
L 268.78741 134.121106 
L 269.060217 164.258999 
L 269.333482 128.615939 
L 269.471049 157.419176 
L 270.230483 138.567769 
L 270.499077 158.251911 
L 270.90081 115.43883 
L 271.675159 132.611842 
L 273.424746 201.586934 
L 274.472516 146.735937 
L 275.140317 142.775838 
L 275.408767 164.376337 
L 275.895018 165.052791 
L 276.687542 164.813245 
L 277.176555 131.024294 
L 277.585541 112.608503 
L 277.993356 104.297287 
L 278.129281 136.347321 
L 278.265398 131.848338 
L 279.538403 154.369042 
L 279.670133 120.252934 
L 279.801644 131.861474 
L 280.287101 138.256944 
L 280.55211 110.166447 
L 280.953424 149.023341 
L 281.777627 134.343893 
L 282.048123 109.110507 
L 282.184151 189.340983 
L 282.320409 102.221645 
L 282.45726 147.983692 
L 283.615529 162.676341 
L 284.905761 142.833447 
L 285.568748 141.683088 
L 286.736969 158.407058 
L 286.874214 132.504627 
L 287.395985 141.689031 
L 287.92715 103.615539 
L 288.969743 132.012776 
L 289.371841 162.523144 
L 289.762866 53.568 
L 289.895327 119.371102 
L 290.168793 146.925142 
L 290.44143 141.445609 
L 291.592645 140.055722 
L 291.865291 145.190501 
L 292.138646 134.132833 
L 292.410442 182.164869 
L 293.950181 131.268811 
L 295.221469 139.130484 
L 295.359045 119.585025 
L 295.496385 148.931431 
L 296.146656 134.643493 
L 296.963312 144.703172 
L 298.122061 134.998228 
L 299.02693 78.176952 
L 299.159581 109.796508 
L 299.29182 168.257209 
L 299.423705 116.125686 
L 299.689211 141.639722 
L 299.957793 129.294952 
L 300.487267 147.529365 
L 301.291045 59.789372 
L 301.565165 148.9694 
L 302.625495 132.216838 
L 303.168465 121.439311 
L 303.507796 101.366 
L 304.034077 134.274362 
L 304.165627 126.88654 
L 304.428934 98.109534 
L 305.215675 173.419485 
L 305.875521 137.148757 
L 306.360794 140.944839 
L 306.497959 138.510682 
L 306.633618 168.89019 
L 308.145248 122.615684 
L 308.276892 135.252537 
L 308.545232 140.474038 
L 308.677454 156.103683 
L 308.808591 154.764494 
L 308.940193 134.487491 
L 309.539817 96.540685 
L 309.802598 121.271356 
L 310.199393 100.434743 
L 310.571174 163.914977 
L 310.83565 126.702718 
L 311.098496 132.502901 
L 312.400222 109.953816 
L 312.929768 177.043341 
L 313.193414 105.113543 
L 313.569786 166.691537 
L 313.841118 134.475765 
L 314.249171 173.476204 
L 314.658929 121.890243 
L 315.545895 143.07351 
L 315.678218 143.339793 
L 316.332505 141.566256 
L 317.152052 125.668335 
L 317.42469 152.015878 
L 317.560901 127.472401 
L 318.239258 153.766534 
L 318.781177 130.574314 
L 319.284373 133.381078 
L 319.421792 116.380963 
L 319.559176 155.573676 
L 319.695525 108.48265 
L 320.105813 116.780808 
L 320.746989 141.660651 
L 321.564902 144.144209 
L 321.698884 114.323044 
L 322.214952 141.939925 
L 322.871191 184.658403 
L 323.266345 150.092855 
L 323.399585 126.198723 
L 323.785564 109.601547 
L 324.056623 131.835982 
L 324.327995 141.633091 
L 324.456817 136.899049 
L 324.863469 141.846346 
L 325.143861 136.098273 
L 325.416348 133.128721 
L 325.960701 160.406689 
L 326.233795 164.146264 
L 327.16726 129.750972 
L 327.570366 96.736484 
L 328.27659 160.945984 
L 328.811368 128.339258 
L 329.723187 160.351368 
L 331.581721 123.267655 
L 332.129158 184.079846 
L 332.494312 125.601794 
L 333.56868 138.887559 
L 333.961618 128.455564 
L 334.507773 141.548611 
L 335.191149 119.109743 
L 335.821148 139.365954 
L 336.365188 152.423274 
L 336.98872 118.076195 
L 338.188004 207.594908 
L 339.103768 155.035825 
L 340.519678 139.368147 
L 340.657278 140.38431 
L 340.794849 129.48055 
L 341.33046 177.416777 
L 341.466037 119.489027 
L 342.139421 90.59294 
L 342.409769 134.865967 
L 343.059019 115.658192 
L 343.195284 180.093428 
L 343.465286 135.455637 
L 343.602802 142.500898 
L 343.73937 136.916162 
L 343.875453 114.951381 
L 345.096997 168.503241 
L 346.431552 97.004105 
L 348.396243 110.418822 
L 348.63506 115.183566 
L 348.771365 189.566766 
L 349.726543 134.63799 
L 350.533276 143.855349 
L 350.932483 119.258761 
L 351.194308 157.880599 
L 351.323702 146.741045 
L 351.543715 108.376671 
L 351.680037 162.625521 
L 352.224231 155.362649 
L 353.540533 171.083077 
L 353.676031 104.789349 
L 354.074962 138.844342 
L 354.540432 202.104082 
L 354.812422 162.968863 
L 356.772937 103.962136 
L 357.175489 137.568616 
L 357.524158 124.17678 
L 358.186749 145.425674 
L 358.583204 134.25192 
L 359.184715 145.36588 
L 360.495487 143.295259 
L 360.631422 138.879618 
L 361.450729 140.750591 
L 361.842559 179.02555 
L 361.978466 119.259943 
L 362.786352 139.396986 
L 363.266085 136.252524 
L 363.402289 151.286794 
L 364.329408 112.603046 
L 364.708944 138.814283 
L 365.100045 140.63702 
L 365.230609 136.887172 
L 365.361167 166.88876 
L 366.406852 123.496121 
L 367.073143 151.457805 
L 367.344964 116.592892 
L 367.611588 137.936193 
L 367.747151 105.425346 
L 368.288394 122.960342 
L 369.355546 126.606134 
L 369.899485 164.417392 
L 370.307455 141.530027 
L 370.52278 109.029819 
L 370.786694 117.635437 
L 373.220142 120.211249 
L 373.894248 119.575804 
L 375.622518 140.581527 
L 376.372278 184.258947 
L 376.636241 85.51057 
L 376.76799 120.710666 
L 377.160753 102.520468 
L 377.293117 140.465427 
L 378.63525 184.060643 
L 380.077232 140.403492 
L 380.921993 101.597363 
L 381.195421 162.179791 
L 381.468359 128.499511 
L 381.74127 140.25264 
L 382.108824 168.036697 
L 382.50407 156.924282 
L 382.634395 128.709686 
L 382.767373 129.437201 
L 383.405746 162.922144 
L 383.542172 137.35475 
L 383.677717 146.756244 
L 384.084359 131.857633 
L 384.220681 147.283106 
L 384.355031 134.724118 
L 384.883546 145.7499 
L 385.019088 111.095645 
L 385.292123 159.047583 
L 385.429873 105.461421 
L 385.95904 125.510627 
L 386.39736 180.693345 
L 386.532867 124.254753 
L 386.668485 144.178357 
L 387.208933 106.90391 
L 387.481002 121.859339 
L 387.92763 114.782161 
L 388.319922 125.51153 
L 390.275294 146.691368 
L 390.937659 119.317768 
L 391.211774 175.269792 
L 391.624712 101.758551 
L 392.600728 138.739027 
L 393.145723 173.186204 
L 393.417586 125.604753 
L 393.952573 122.72195 
L 394.478767 138.491665 
L 395.0069 122.124586 
L 395.765933 103.477937 
L 396.298707 126.568344 
L 397.412984 145.919827 
L 397.820882 114.016523 
L 398.744879 173.301798 
L 399.274807 156.965652 
L 399.408247 148.825089 
L 400.469463 92.010816 
L 400.870055 139.128229 
L 401.00283 69.179067 
L 401.78287 124.047582 
L 401.914208 120.517004 
L 402.04546 121.15265 
L 402.306912 162.200173 
L 402.825857 155.82506 
L 403.509578 161.455815 
L 403.918512 140.24212 
L 404.054365 119.607272 
L 404.566375 183.396173 
L 405.595371 123.664291 
L 407.014297 130.116011 
L 408.031825 123.449472 
L 408.441492 148.319036 
L 408.57664 125.247325 
L 409.658865 175.801784 
L 409.932323 99.666999 
L 410.068357 135.026897 
L 410.205805 131.172648 
L 410.967341 132.203818 
L 411.374058 115.529617 
L 413.011834 157.547199 
L 413.147709 123.05875 
L 414.72 129.512354 
L 414.72 129.512354 
" style="fill:none;stroke:#000000;stroke-linecap:square;stroke-width:0.8;"/>
   </g>
   <g id="patch_3">
    <path d="M 57.6 307.584 
L 57.6 41.472 
" style="fill:none;stroke:#000000;stroke-linecap:square;stroke-linejoin:miter;stroke-width:0.8;"/>
   </g>
   <g id="patch_4">
    <path d="M 414.72 307.584 
L 414.72 41.472 
" style="fill:none;stroke:#000000;stroke-linecap:square;stroke-linejoin:miter;stroke-width:0.8;"/>
   </g>
   <g id="patch_5">
    <path d="M 57.6 307.584 
L 414.72 307.584 
" style="fill:none;stroke:#000000;stroke-linecap:square;stroke-linejoin:miter;stroke-width:0.8;"/>
   </g>
   <g id="patch_6">
    <path d="M 57.6 41.472 
L 414.72 41.472 
" style="fill:none;stroke:#000000;stroke-linecap:square;stroke-linejoin:miter;stroke-width:0.8;"/>
   </g>
  </g>
  <g id="axes_2">
   <g id="matplotlib.axis_3">
    <g id="xtick_9">
     <g id="line2d_36">
      <defs>
       <path d="M 0 0 
L 0 -3.5 
" id="m69b92988b1" style="stroke:#000000;stroke-width:0.8;"/>
      </defs>
      <g>
       <use style="stroke:#000000;stroke-width:0.8;" x="57.6" xlink:href="#m69b92988b1" y="41.472"/>
      </g>
     </g>
    </g>
    <g id="xtick_10">
     <g id="line2d_37">
      <g>
       <use style="stroke:#000000;stroke-width:0.8;" x="112.881905" xlink:href="#m69b92988b1" y="41.472"/>
      </g>
     </g>
     <g id="text_20">
      <!-- 50.0K -->
      <defs>
       <path d="M 9.8125 72.90625 
L 19.671875 72.90625 
L 19.671875 42.09375 
L 52.390625 72.90625 
L 65.09375 72.90625 
L 28.90625 38.921875 
L 67.671875 0 
L 54.6875 0 
L 19.671875 35.109375 
L 19.671875 0 
L 9.8125 0 
z
" id="DejaVuSans-75"/>
      </defs>
      <g transform="translate(98.470186 32.392313)scale(0.1 -0.1)">
       <use xlink:href="#DejaVuSans-53"/>
       <use x="63.623047" xlink:href="#DejaVuSans-48"/>
       <use x="127.246094" xlink:href="#DejaVuSans-46"/>
       <use x="159.033203" xlink:href="#DejaVuSans-48"/>
       <use x="222.65625" xlink:href="#DejaVuSans-75"/>
      </g>
     </g>
    </g>
    <g id="xtick_11">
     <g id="line2d_38">
      <g>
       <use style="stroke:#000000;stroke-width:0.8;" x="168.16381" xlink:href="#m69b92988b1" y="41.472"/>
      </g>
     </g>
     <g id="text_21">
      <!-- 100K -->
      <g transform="translate(155.341154 32.392313)scale(0.1 -0.1)">
       <use xlink:href="#DejaVuSans-49"/>
       <use x="63.623047" xlink:href="#DejaVuSans-48"/>
       <use x="127.246094" xlink:href="#DejaVuSans-48"/>
       <use x="190.869141" xlink:href="#DejaVuSans-75"/>
      </g>
     </g>
    </g>
    <g id="xtick_12">
     <g id="line2d_39">
      <g>
       <use style="stroke:#000000;stroke-width:0.8;" x="223.445715" xlink:href="#m69b92988b1" y="41.472"/>
      </g>
     </g>
     <g id="text_22">
      <!-- 150K -->
      <g transform="translate(210.623058 32.392313)scale(0.1 -0.1)">
       <use xlink:href="#DejaVuSans-49"/>
       <use x="63.623047" xlink:href="#DejaVuSans-53"/>
       <use x="127.246094" xlink:href="#DejaVuSans-48"/>
       <use x="190.869141" xlink:href="#DejaVuSans-75"/>
      </g>
     </g>
    </g>
    <g id="xtick_13">
     <g id="line2d_40">
      <g>
       <use style="stroke:#000000;stroke-width:0.8;" x="278.72762" xlink:href="#m69b92988b1" y="41.472"/>
      </g>
     </g>
     <g id="text_23">
      <!-- 200K -->
      <g transform="translate(265.904963 32.392313)scale(0.1 -0.1)">
       <use xlink:href="#DejaVuSans-50"/>
       <use x="63.623047" xlink:href="#DejaVuSans-48"/>
       <use x="127.246094" xlink:href="#DejaVuSans-48"/>
       <use x="190.869141" xlink:href="#DejaVuSans-75"/>
      </g>
     </g>
    </g>
    <g id="xtick_14">
     <g id="line2d_41">
      <g>
       <use style="stroke:#000000;stroke-width:0.8;" x="334.009524" xlink:href="#m69b92988b1" y="41.472"/>
      </g>
     </g>
     <g id="text_24">
      <!-- 250K -->
      <g transform="translate(321.186868 32.392313)scale(0.1 -0.1)">
       <use xlink:href="#DejaVuSans-50"/>
       <use x="63.623047" xlink:href="#DejaVuSans-53"/>
       <use x="127.246094" xlink:href="#DejaVuSans-48"/>
       <use x="190.869141" xlink:href="#DejaVuSans-75"/>
      </g>
     </g>
    </g>
    <g id="xtick_15">
     <g id="line2d_42">
      <g>
       <use style="stroke:#000000;stroke-width:0.8;" x="389.291429" xlink:href="#m69b92988b1" y="41.472"/>
      </g>
     </g>
     <g id="text_25">
      <!-- 300K -->
      <g transform="translate(376.468773 32.392313)scale(0.1 -0.1)">
       <use xlink:href="#DejaVuSans-51"/>
       <use x="63.623047" xlink:href="#DejaVuSans-48"/>
       <use x="127.246094" xlink:href="#DejaVuSans-48"/>
       <use x="190.869141" xlink:href="#DejaVuSans-75"/>
      </g>
     </g>
    </g>
    <g id="text_26">
     <!-- Steps -->
     <defs>
      <path d="M 53.515625 70.515625 
L 53.515625 60.890625 
Q 47.90625 63.578125 42.921875 64.890625 
Q 37.9375 66.21875 33.296875 66.21875 
Q 25.25 66.21875 20.875 63.09375 
Q 16.5 59.96875 16.5 54.203125 
Q 16.5 49.359375 19.40625 46.890625 
Q 22.3125 44.4375 30.421875 42.921875 
L 36.375 41.703125 
Q 47.40625 39.59375 52.65625 34.296875 
Q 57.90625 29 57.90625 20.125 
Q 57.90625 9.515625 50.796875 4.046875 
Q 43.703125 -1.421875 29.984375 -1.421875 
Q 24.8125 -1.421875 18.96875 -0.25 
Q 13.140625 0.921875 6.890625 3.21875 
L 6.890625 13.375 
Q 12.890625 10.015625 18.65625 8.296875 
Q 24.421875 6.59375 29.984375 6.59375 
Q 38.421875 6.59375 43.015625 9.90625 
Q 47.609375 13.234375 47.609375 19.390625 
Q 47.609375 24.75 44.3125 27.78125 
Q 41.015625 30.8125 33.5 32.328125 
L 27.484375 33.5 
Q 16.453125 35.6875 11.515625 40.375 
Q 6.59375 45.0625 6.59375 53.421875 
Q 6.59375 63.09375 13.40625 68.65625 
Q 20.21875 74.21875 32.171875 74.21875 
Q 37.3125 74.21875 42.625 73.28125 
Q 47.953125 72.359375 53.515625 70.515625 
z
" id="DejaVuSans-83"/>
      <path d="M 18.109375 8.203125 
L 18.109375 -20.796875 
L 9.078125 -20.796875 
L 9.078125 54.6875 
L 18.109375 54.6875 
L 18.109375 46.390625 
Q 20.953125 51.265625 25.265625 53.625 
Q 29.59375 56 35.59375 56 
Q 45.5625 56 51.78125 48.09375 
Q 58.015625 40.1875 58.015625 27.296875 
Q 58.015625 14.40625 51.78125 6.484375 
Q 45.5625 -1.421875 35.59375 -1.421875 
Q 29.59375 -1.421875 25.265625 0.953125 
Q 20.953125 3.328125 18.109375 8.203125 
z
M 48.6875 27.296875 
Q 48.6875 37.203125 44.609375 42.84375 
Q 40.53125 48.484375 33.40625 48.484375 
Q 26.265625 48.484375 22.1875 42.84375 
Q 18.109375 37.203125 18.109375 27.296875 
Q 18.109375 17.390625 22.1875 11.75 
Q 26.265625 6.109375 33.40625 6.109375 
Q 40.53125 6.109375 44.609375 11.75 
Q 48.6875 17.390625 48.6875 27.296875 
z
" id="DejaVuSans-112"/>
     </defs>
     <g transform="translate(222.170156 20.793875)scale(0.1 -0.1)">
      <use xlink:href="#DejaVuSans-83"/>
      <use x="63.476562" xlink:href="#DejaVuSans-116"/>
      <use x="102.685547" xlink:href="#DejaVuSans-101"/>
      <use x="164.208984" xlink:href="#DejaVuSans-112"/>
      <use x="227.685547" xlink:href="#DejaVuSans-115"/>
     </g>
    </g>
   </g>
   <g id="patch_7">
    <path d="M 57.6 307.584 
L 57.6 41.472 
" style="fill:none;stroke:#000000;stroke-linecap:square;stroke-linejoin:miter;stroke-width:0.8;"/>
   </g>
   <g id="patch_8">
    <path d="M 414.72 307.584 
L 414.72 41.472 
" style="fill:none;stroke:#000000;stroke-linecap:square;stroke-linejoin:miter;stroke-width:0.8;"/>
   </g>
   <g id="patch_9">
    <path d="M 57.6 307.584 
L 414.72 307.584 
" style="fill:none;stroke:#000000;stroke-linecap:square;stroke-linejoin:miter;stroke-width:0.8;"/>
   </g>
   <g id="patch_10">
    <path d="M 57.6 41.472 
L 414.72 41.472 
" style="fill:none;stroke:#000000;stroke-linecap:square;stroke-linejoin:miter;stroke-width:0.8;"/>
   </g>
  </g>
 </g>
 <defs>
  <clipPath id="p3585a2485c">
   <rect height="266.112" width="357.12" x="57.6" y="41.472"/>
  </clipPath>
 </defs>
</svg>
