<?xml version="1.0" encoding="utf-8" standalone="no"?>
<!DOCTYPE svg PUBLIC "-//W3C//DTD SVG 1.1//EN"
  "http://www.w3.org/Graphics/SVG/1.1/DTD/svg11.dtd">
<!-- Created with matplotlib (https://matplotlib.org/) -->
<svg height="345.6pt" version="1.1" viewBox="0 0 460.8 345.6" width="460.8pt" xmlns="http://www.w3.org/2000/svg" xmlns:xlink="http://www.w3.org/1999/xlink">
 <defs>
  <style type="text/css">
*{stroke-linecap:butt;stroke-linejoin:round;}
  </style>
 </defs>
 <g id="figure_1">
  <g id="patch_1">
   <path d="M 0 345.6 
L 460.8 345.6 
L 460.8 0 
L 0 0 
z
" style="fill:#ffffff;"/>
  </g>
  <g id="axes_1">
   <g id="patch_2">
    <path d="M 57.6 307.584 
L 414.72 307.584 
L 414.72 41.472 
L 57.6 41.472 
z
" style="fill:#ffffff;"/>
   </g>
   <g id="matplotlib.axis_1">
    <g id="xtick_1">
     <g id="line2d_1">
      <path clip-path="url(#p978f7413b7)" d="M 57.6 307.584 
L 57.6 41.472 
" style="fill:none;stroke:#b0b0b0;stroke-linecap:square;stroke-width:0.8;"/>
     </g>
     <g id="line2d_2">
      <defs>
       <path d="M 0 0 
L 0 3.5 
" id="m8a3663c8a5" style="stroke:#000000;stroke-width:0.8;"/>
      </defs>
      <g>
       <use style="stroke:#000000;stroke-width:0.8;" x="57.6" xlink:href="#m8a3663c8a5" y="307.584"/>
      </g>
     </g>
     <g id="text_1">
      <!-- 0 -->
      <defs>
       <path d="M 31.78125 66.40625 
Q 24.171875 66.40625 20.328125 58.90625 
Q 16.5 51.421875 16.5 36.375 
Q 16.5 21.390625 20.328125 13.890625 
Q 24.171875 6.390625 31.78125 6.390625 
Q 39.453125 6.390625 43.28125 13.890625 
Q 47.125 21.390625 47.125 36.375 
Q 47.125 51.421875 43.28125 58.90625 
Q 39.453125 66.40625 31.78125 66.40625 
z
M 31.78125 74.21875 
Q 44.046875 74.21875 50.515625 64.515625 
Q 56.984375 54.828125 56.984375 36.375 
Q 56.984375 17.96875 50.515625 8.265625 
Q 44.046875 -1.421875 31.78125 -1.421875 
Q 19.53125 -1.421875 13.0625 8.265625 
Q 6.59375 17.96875 6.59375 36.375 
Q 6.59375 54.828125 13.0625 64.515625 
Q 19.53125 74.21875 31.78125 74.21875 
z
" id="DejaVuSans-48"/>
      </defs>
      <g transform="translate(54.41875 322.182437)scale(0.1 -0.1)">
       <use xlink:href="#DejaVuSans-48"/>
      </g>
     </g>
    </g>
    <g id="xtick_2">
     <g id="line2d_3">
      <path clip-path="url(#p978f7413b7)" d="M 106.616304 307.584 
L 106.616304 41.472 
" style="fill:none;stroke:#b0b0b0;stroke-linecap:square;stroke-width:0.8;"/>
     </g>
     <g id="line2d_4">
      <g>
       <use style="stroke:#000000;stroke-width:0.8;" x="106.616304" xlink:href="#m8a3663c8a5" y="307.584"/>
      </g>
     </g>
     <g id="text_2">
      <!-- 2 -->
      <defs>
       <path d="M 19.1875 8.296875 
L 53.609375 8.296875 
L 53.609375 0 
L 7.328125 0 
L 7.328125 8.296875 
Q 12.9375 14.109375 22.625 23.890625 
Q 32.328125 33.6875 34.8125 36.53125 
Q 39.546875 41.84375 41.421875 45.53125 
Q 43.3125 49.21875 43.3125 52.78125 
Q 43.3125 58.59375 39.234375 62.25 
Q 35.15625 65.921875 28.609375 65.921875 
Q 23.96875 65.921875 18.8125 64.3125 
Q 13.671875 62.703125 7.8125 59.421875 
L 7.8125 69.390625 
Q 13.765625 71.78125 18.9375 73 
Q 24.125 74.21875 28.421875 74.21875 
Q 39.75 74.21875 46.484375 68.546875 
Q 53.21875 62.890625 53.21875 53.421875 
Q 53.21875 48.921875 51.53125 44.890625 
Q 49.859375 40.875 45.40625 35.40625 
Q 44.1875 33.984375 37.640625 27.21875 
Q 31.109375 20.453125 19.1875 8.296875 
z
" id="DejaVuSans-50"/>
      </defs>
      <g transform="translate(103.435054 322.182437)scale(0.1 -0.1)">
       <use xlink:href="#DejaVuSans-50"/>
      </g>
     </g>
    </g>
    <g id="xtick_3">
     <g id="line2d_5">
      <path clip-path="url(#p978f7413b7)" d="M 155.632609 307.584 
L 155.632609 41.472 
" style="fill:none;stroke:#b0b0b0;stroke-linecap:square;stroke-width:0.8;"/>
     </g>
     <g id="line2d_6">
      <g>
       <use style="stroke:#000000;stroke-width:0.8;" x="155.632609" xlink:href="#m8a3663c8a5" y="307.584"/>
      </g>
     </g>
     <g id="text_3">
      <!-- 4 -->
      <defs>
       <path d="M 37.796875 64.3125 
L 12.890625 25.390625 
L 37.796875 25.390625 
z
M 35.203125 72.90625 
L 47.609375 72.90625 
L 47.609375 25.390625 
L 58.015625 25.390625 
L 58.015625 17.1875 
L 47.609375 17.1875 
L 47.609375 0 
L 37.796875 0 
L 37.796875 17.1875 
L 4.890625 17.1875 
L 4.890625 26.703125 
z
" id="DejaVuSans-52"/>
      </defs>
      <g transform="translate(152.451359 322.182437)scale(0.1 -0.1)">
       <use xlink:href="#DejaVuSans-52"/>
      </g>
     </g>
    </g>
    <g id="xtick_4">
     <g id="line2d_7">
      <path clip-path="url(#p978f7413b7)" d="M 204.648913 307.584 
L 204.648913 41.472 
" style="fill:none;stroke:#b0b0b0;stroke-linecap:square;stroke-width:0.8;"/>
     </g>
     <g id="line2d_8">
      <g>
       <use style="stroke:#000000;stroke-width:0.8;" x="204.648913" xlink:href="#m8a3663c8a5" y="307.584"/>
      </g>
     </g>
     <g id="text_4">
      <!-- 6 -->
      <defs>
       <path d="M 33.015625 40.375 
Q 26.375 40.375 22.484375 35.828125 
Q 18.609375 31.296875 18.609375 23.390625 
Q 18.609375 15.53125 22.484375 10.953125 
Q 26.375 6.390625 33.015625 6.390625 
Q 39.65625 6.390625 43.53125 10.953125 
Q 47.40625 15.53125 47.40625 23.390625 
Q 47.40625 31.296875 43.53125 35.828125 
Q 39.65625 40.375 33.015625 40.375 
z
M 52.59375 71.296875 
L 52.59375 62.3125 
Q 48.875 64.0625 45.09375 64.984375 
Q 41.3125 65.921875 37.59375 65.921875 
Q 27.828125 65.921875 22.671875 59.328125 
Q 17.53125 52.734375 16.796875 39.40625 
Q 19.671875 43.65625 24.015625 45.921875 
Q 28.375 48.1875 33.59375 48.1875 
Q 44.578125 48.1875 50.953125 41.515625 
Q 57.328125 34.859375 57.328125 23.390625 
Q 57.328125 12.15625 50.6875 5.359375 
Q 44.046875 -1.421875 33.015625 -1.421875 
Q 20.359375 -1.421875 13.671875 8.265625 
Q 6.984375 17.96875 6.984375 36.375 
Q 6.984375 53.65625 15.1875 63.9375 
Q 23.390625 74.21875 37.203125 74.21875 
Q 40.921875 74.21875 44.703125 73.484375 
Q 48.484375 72.75 52.59375 71.296875 
z
" id="DejaVuSans-54"/>
      </defs>
      <g transform="translate(201.467663 322.182437)scale(0.1 -0.1)">
       <use xlink:href="#DejaVuSans-54"/>
      </g>
     </g>
    </g>
    <g id="xtick_5">
     <g id="line2d_9">
      <path clip-path="url(#p978f7413b7)" d="M 253.665218 307.584 
L 253.665218 41.472 
" style="fill:none;stroke:#b0b0b0;stroke-linecap:square;stroke-width:0.8;"/>
     </g>
     <g id="line2d_10">
      <g>
       <use style="stroke:#000000;stroke-width:0.8;" x="253.665218" xlink:href="#m8a3663c8a5" y="307.584"/>
      </g>
     </g>
     <g id="text_5">
      <!-- 8 -->
      <defs>
       <path d="M 31.78125 34.625 
Q 24.75 34.625 20.71875 30.859375 
Q 16.703125 27.09375 16.703125 20.515625 
Q 16.703125 13.921875 20.71875 10.15625 
Q 24.75 6.390625 31.78125 6.390625 
Q 38.8125 6.390625 42.859375 10.171875 
Q 46.921875 13.96875 46.921875 20.515625 
Q 46.921875 27.09375 42.890625 30.859375 
Q 38.875 34.625 31.78125 34.625 
z
M 21.921875 38.8125 
Q 15.578125 40.375 12.03125 44.71875 
Q 8.5 49.078125 8.5 55.328125 
Q 8.5 64.0625 14.71875 69.140625 
Q 20.953125 74.21875 31.78125 74.21875 
Q 42.671875 74.21875 48.875 69.140625 
Q 55.078125 64.0625 55.078125 55.328125 
Q 55.078125 49.078125 51.53125 44.71875 
Q 48 40.375 41.703125 38.8125 
Q 48.828125 37.15625 52.796875 32.3125 
Q 56.78125 27.484375 56.78125 20.515625 
Q 56.78125 9.90625 50.3125 4.234375 
Q 43.84375 -1.421875 31.78125 -1.421875 
Q 19.734375 -1.421875 13.25 4.234375 
Q 6.78125 9.90625 6.78125 20.515625 
Q 6.78125 27.484375 10.78125 32.3125 
Q 14.796875 37.15625 21.921875 38.8125 
z
M 18.3125 54.390625 
Q 18.3125 48.734375 21.84375 45.5625 
Q 25.390625 42.390625 31.78125 42.390625 
Q 38.140625 42.390625 41.71875 45.5625 
Q 45.3125 48.734375 45.3125 54.390625 
Q 45.3125 60.0625 41.71875 63.234375 
Q 38.140625 66.40625 31.78125 66.40625 
Q 25.390625 66.40625 21.84375 63.234375 
Q 18.3125 60.0625 18.3125 54.390625 
z
" id="DejaVuSans-56"/>
      </defs>
      <g transform="translate(250.483968 322.182437)scale(0.1 -0.1)">
       <use xlink:href="#DejaVuSans-56"/>
      </g>
     </g>
    </g>
    <g id="xtick_6">
     <g id="line2d_11">
      <path clip-path="url(#p978f7413b7)" d="M 302.681522 307.584 
L 302.681522 41.472 
" style="fill:none;stroke:#b0b0b0;stroke-linecap:square;stroke-width:0.8;"/>
     </g>
     <g id="line2d_12">
      <g>
       <use style="stroke:#000000;stroke-width:0.8;" x="302.681522" xlink:href="#m8a3663c8a5" y="307.584"/>
      </g>
     </g>
     <g id="text_6">
      <!-- 10 -->
      <defs>
       <path d="M 12.40625 8.296875 
L 28.515625 8.296875 
L 28.515625 63.921875 
L 10.984375 60.40625 
L 10.984375 69.390625 
L 28.421875 72.90625 
L 38.28125 72.90625 
L 38.28125 8.296875 
L 54.390625 8.296875 
L 54.390625 0 
L 12.40625 0 
z
" id="DejaVuSans-49"/>
      </defs>
      <g transform="translate(296.319022 322.182437)scale(0.1 -0.1)">
       <use xlink:href="#DejaVuSans-49"/>
       <use x="63.623047" xlink:href="#DejaVuSans-48"/>
      </g>
     </g>
    </g>
    <g id="xtick_7">
     <g id="line2d_13">
      <path clip-path="url(#p978f7413b7)" d="M 351.697827 307.584 
L 351.697827 41.472 
" style="fill:none;stroke:#b0b0b0;stroke-linecap:square;stroke-width:0.8;"/>
     </g>
     <g id="line2d_14">
      <g>
       <use style="stroke:#000000;stroke-width:0.8;" x="351.697827" xlink:href="#m8a3663c8a5" y="307.584"/>
      </g>
     </g>
     <g id="text_7">
      <!-- 12 -->
      <g transform="translate(345.335327 322.182437)scale(0.1 -0.1)">
       <use xlink:href="#DejaVuSans-49"/>
       <use x="63.623047" xlink:href="#DejaVuSans-50"/>
      </g>
     </g>
    </g>
    <g id="xtick_8">
     <g id="line2d_15">
      <path clip-path="url(#p978f7413b7)" d="M 400.714131 307.584 
L 400.714131 41.472 
" style="fill:none;stroke:#b0b0b0;stroke-linecap:square;stroke-width:0.8;"/>
     </g>
     <g id="line2d_16">
      <g>
       <use style="stroke:#000000;stroke-width:0.8;" x="400.714131" xlink:href="#m8a3663c8a5" y="307.584"/>
      </g>
     </g>
     <g id="text_8">
      <!-- 14 -->
      <g transform="translate(394.351631 322.182437)scale(0.1 -0.1)">
       <use xlink:href="#DejaVuSans-49"/>
       <use x="63.623047" xlink:href="#DejaVuSans-52"/>
      </g>
     </g>
    </g>
    <g id="text_9">
     <!-- Hours -->
     <defs>
      <path d="M 9.8125 72.90625 
L 19.671875 72.90625 
L 19.671875 43.015625 
L 55.515625 43.015625 
L 55.515625 72.90625 
L 65.375 72.90625 
L 65.375 0 
L 55.515625 0 
L 55.515625 34.71875 
L 19.671875 34.71875 
L 19.671875 0 
L 9.8125 0 
z
" id="DejaVuSans-72"/>
      <path d="M 30.609375 48.390625 
Q 23.390625 48.390625 19.1875 42.75 
Q 14.984375 37.109375 14.984375 27.296875 
Q 14.984375 17.484375 19.15625 11.84375 
Q 23.34375 6.203125 30.609375 6.203125 
Q 37.796875 6.203125 41.984375 11.859375 
Q 46.1875 17.53125 46.1875 27.296875 
Q 46.1875 37.015625 41.984375 42.703125 
Q 37.796875 48.390625 30.609375 48.390625 
z
M 30.609375 56 
Q 42.328125 56 49.015625 48.375 
Q 55.71875 40.765625 55.71875 27.296875 
Q 55.71875 13.875 49.015625 6.21875 
Q 42.328125 -1.421875 30.609375 -1.421875 
Q 18.84375 -1.421875 12.171875 6.21875 
Q 5.515625 13.875 5.515625 27.296875 
Q 5.515625 40.765625 12.171875 48.375 
Q 18.84375 56 30.609375 56 
z
" id="DejaVuSans-111"/>
      <path d="M 8.5 21.578125 
L 8.5 54.6875 
L 17.484375 54.6875 
L 17.484375 21.921875 
Q 17.484375 14.15625 20.5 10.265625 
Q 23.53125 6.390625 29.59375 6.390625 
Q 36.859375 6.390625 41.078125 11.03125 
Q 45.3125 15.671875 45.3125 23.6875 
L 45.3125 54.6875 
L 54.296875 54.6875 
L 54.296875 0 
L 45.3125 0 
L 45.3125 8.40625 
Q 42.046875 3.421875 37.71875 1 
Q 33.40625 -1.421875 27.6875 -1.421875 
Q 18.265625 -1.421875 13.375 4.4375 
Q 8.5 10.296875 8.5 21.578125 
z
M 31.109375 56 
z
" id="DejaVuSans-117"/>
      <path d="M 41.109375 46.296875 
Q 39.59375 47.171875 37.8125 47.578125 
Q 36.03125 48 33.890625 48 
Q 26.265625 48 22.1875 43.046875 
Q 18.109375 38.09375 18.109375 28.8125 
L 18.109375 0 
L 9.078125 0 
L 9.078125 54.6875 
L 18.109375 54.6875 
L 18.109375 46.1875 
Q 20.953125 51.171875 25.484375 53.578125 
Q 30.03125 56 36.53125 56 
Q 37.453125 56 38.578125 55.875 
Q 39.703125 55.765625 41.0625 55.515625 
z
" id="DejaVuSans-114"/>
      <path d="M 44.28125 53.078125 
L 44.28125 44.578125 
Q 40.484375 46.53125 36.375 47.5 
Q 32.28125 48.484375 27.875 48.484375 
Q 21.1875 48.484375 17.84375 46.4375 
Q 14.5 44.390625 14.5 40.28125 
Q 14.5 37.15625 16.890625 35.375 
Q 19.28125 33.59375 26.515625 31.984375 
L 29.59375 31.296875 
Q 39.15625 29.25 43.1875 25.515625 
Q 47.21875 21.78125 47.21875 15.09375 
Q 47.21875 7.46875 41.1875 3.015625 
Q 35.15625 -1.421875 24.609375 -1.421875 
Q 20.21875 -1.421875 15.453125 -0.5625 
Q 10.6875 0.296875 5.421875 2 
L 5.421875 11.28125 
Q 10.40625 8.6875 15.234375 7.390625 
Q 20.0625 6.109375 24.8125 6.109375 
Q 31.15625 6.109375 34.5625 8.28125 
Q 37.984375 10.453125 37.984375 14.40625 
Q 37.984375 18.0625 35.515625 20.015625 
Q 33.0625 21.96875 24.703125 23.78125 
L 21.578125 24.515625 
Q 13.234375 26.265625 9.515625 29.90625 
Q 5.8125 33.546875 5.8125 39.890625 
Q 5.8125 47.609375 11.28125 51.796875 
Q 16.75 56 26.8125 56 
Q 31.78125 56 36.171875 55.265625 
Q 40.578125 54.546875 44.28125 53.078125 
z
" id="DejaVuSans-115"/>
     </defs>
     <g transform="translate(221.511562 335.860562)scale(0.1 -0.1)">
      <use xlink:href="#DejaVuSans-72"/>
      <use x="75.195312" xlink:href="#DejaVuSans-111"/>
      <use x="136.376953" xlink:href="#DejaVuSans-117"/>
      <use x="199.755859" xlink:href="#DejaVuSans-114"/>
      <use x="240.869141" xlink:href="#DejaVuSans-115"/>
     </g>
    </g>
   </g>
   <g id="matplotlib.axis_2">
    <g id="ytick_1">
     <g id="line2d_17">
      <path clip-path="url(#p978f7413b7)" d="M 57.6 288.578515 
L 414.72 288.578515 
" style="fill:none;stroke:#b0b0b0;stroke-linecap:square;stroke-width:0.8;"/>
     </g>
     <g id="line2d_18">
      <defs>
       <path d="M 0 0 
L -3.5 0 
" id="maaf905f891" style="stroke:#000000;stroke-width:0.8;"/>
      </defs>
      <g>
       <use style="stroke:#000000;stroke-width:0.8;" x="57.6" xlink:href="#maaf905f891" y="288.578515"/>
      </g>
     </g>
     <g id="text_10">
      <!-- −0.06 -->
      <defs>
       <path d="M 10.59375 35.5 
L 73.1875 35.5 
L 73.1875 27.203125 
L 10.59375 27.203125 
z
" id="DejaVuSans-8722"/>
       <path d="M 10.6875 12.40625 
L 21 12.40625 
L 21 0 
L 10.6875 0 
z
" id="DejaVuSans-46"/>
      </defs>
      <g transform="translate(19.954687 292.377734)scale(0.1 -0.1)">
       <use xlink:href="#DejaVuSans-8722"/>
       <use x="83.789062" xlink:href="#DejaVuSans-48"/>
       <use x="147.412109" xlink:href="#DejaVuSans-46"/>
       <use x="179.199219" xlink:href="#DejaVuSans-48"/>
       <use x="242.822266" xlink:href="#DejaVuSans-54"/>
      </g>
     </g>
    </g>
    <g id="ytick_2">
     <g id="line2d_19">
      <path clip-path="url(#p978f7413b7)" d="M 57.6 235.760137 
L 414.72 235.760137 
" style="fill:none;stroke:#b0b0b0;stroke-linecap:square;stroke-width:0.8;"/>
     </g>
     <g id="line2d_20">
      <g>
       <use style="stroke:#000000;stroke-width:0.8;" x="57.6" xlink:href="#maaf905f891" y="235.760137"/>
      </g>
     </g>
     <g id="text_11">
      <!-- −0.04 -->
      <g transform="translate(19.954687 239.559356)scale(0.1 -0.1)">
       <use xlink:href="#DejaVuSans-8722"/>
       <use x="83.789062" xlink:href="#DejaVuSans-48"/>
       <use x="147.412109" xlink:href="#DejaVuSans-46"/>
       <use x="179.199219" xlink:href="#DejaVuSans-48"/>
       <use x="242.822266" xlink:href="#DejaVuSans-52"/>
      </g>
     </g>
    </g>
    <g id="ytick_3">
     <g id="line2d_21">
      <path clip-path="url(#p978f7413b7)" d="M 57.6 182.941759 
L 414.72 182.941759 
" style="fill:none;stroke:#b0b0b0;stroke-linecap:square;stroke-width:0.8;"/>
     </g>
     <g id="line2d_22">
      <g>
       <use style="stroke:#000000;stroke-width:0.8;" x="57.6" xlink:href="#maaf905f891" y="182.941759"/>
      </g>
     </g>
     <g id="text_12">
      <!-- −0.02 -->
      <g transform="translate(19.954687 186.740977)scale(0.1 -0.1)">
       <use xlink:href="#DejaVuSans-8722"/>
       <use x="83.789062" xlink:href="#DejaVuSans-48"/>
       <use x="147.412109" xlink:href="#DejaVuSans-46"/>
       <use x="179.199219" xlink:href="#DejaVuSans-48"/>
       <use x="242.822266" xlink:href="#DejaVuSans-50"/>
      </g>
     </g>
    </g>
    <g id="ytick_4">
     <g id="line2d_23">
      <path clip-path="url(#p978f7413b7)" d="M 57.6 130.12338 
L 414.72 130.12338 
" style="fill:none;stroke:#b0b0b0;stroke-linecap:square;stroke-width:0.8;"/>
     </g>
     <g id="line2d_24">
      <g>
       <use style="stroke:#000000;stroke-width:0.8;" x="57.6" xlink:href="#maaf905f891" y="130.12338"/>
      </g>
     </g>
     <g id="text_13">
      <!-- 0.00 -->
      <g transform="translate(28.334375 133.922599)scale(0.1 -0.1)">
       <use xlink:href="#DejaVuSans-48"/>
       <use x="63.623047" xlink:href="#DejaVuSans-46"/>
       <use x="95.410156" xlink:href="#DejaVuSans-48"/>
       <use x="159.033203" xlink:href="#DejaVuSans-48"/>
      </g>
     </g>
    </g>
    <g id="ytick_5">
     <g id="line2d_25">
      <path clip-path="url(#p978f7413b7)" d="M 57.6 77.305002 
L 414.72 77.305002 
" style="fill:none;stroke:#b0b0b0;stroke-linecap:square;stroke-width:0.8;"/>
     </g>
     <g id="line2d_26">
      <g>
       <use style="stroke:#000000;stroke-width:0.8;" x="57.6" xlink:href="#maaf905f891" y="77.305002"/>
      </g>
     </g>
     <g id="text_14">
      <!-- 0.02 -->
      <g transform="translate(28.334375 81.104221)scale(0.1 -0.1)">
       <use xlink:href="#DejaVuSans-48"/>
       <use x="63.623047" xlink:href="#DejaVuSans-46"/>
       <use x="95.410156" xlink:href="#DejaVuSans-48"/>
       <use x="159.033203" xlink:href="#DejaVuSans-50"/>
      </g>
     </g>
    </g>
    <g id="text_15">
     <!-- Policy loss -->
     <defs>
      <path d="M 19.671875 64.796875 
L 19.671875 37.40625 
L 32.078125 37.40625 
Q 38.96875 37.40625 42.71875 40.96875 
Q 46.484375 44.53125 46.484375 51.125 
Q 46.484375 57.671875 42.71875 61.234375 
Q 38.96875 64.796875 32.078125 64.796875 
z
M 9.8125 72.90625 
L 32.078125 72.90625 
Q 44.34375 72.90625 50.609375 67.359375 
Q 56.890625 61.8125 56.890625 51.125 
Q 56.890625 40.328125 50.609375 34.8125 
Q 44.34375 29.296875 32.078125 29.296875 
L 19.671875 29.296875 
L 19.671875 0 
L 9.8125 0 
z
" id="DejaVuSans-80"/>
      <path d="M 9.421875 75.984375 
L 18.40625 75.984375 
L 18.40625 0 
L 9.421875 0 
z
" id="DejaVuSans-108"/>
      <path d="M 9.421875 54.6875 
L 18.40625 54.6875 
L 18.40625 0 
L 9.421875 0 
z
M 9.421875 75.984375 
L 18.40625 75.984375 
L 18.40625 64.59375 
L 9.421875 64.59375 
z
" id="DejaVuSans-105"/>
      <path d="M 48.78125 52.59375 
L 48.78125 44.1875 
Q 44.96875 46.296875 41.140625 47.34375 
Q 37.3125 48.390625 33.40625 48.390625 
Q 24.65625 48.390625 19.8125 42.84375 
Q 14.984375 37.3125 14.984375 27.296875 
Q 14.984375 17.28125 19.8125 11.734375 
Q 24.65625 6.203125 33.40625 6.203125 
Q 37.3125 6.203125 41.140625 7.25 
Q 44.96875 8.296875 48.78125 10.40625 
L 48.78125 2.09375 
Q 45.015625 0.34375 40.984375 -0.53125 
Q 36.96875 -1.421875 32.421875 -1.421875 
Q 20.0625 -1.421875 12.78125 6.34375 
Q 5.515625 14.109375 5.515625 27.296875 
Q 5.515625 40.671875 12.859375 48.328125 
Q 20.21875 56 33.015625 56 
Q 37.15625 56 41.109375 55.140625 
Q 45.0625 54.296875 48.78125 52.59375 
z
" id="DejaVuSans-99"/>
      <path d="M 32.171875 -5.078125 
Q 28.375 -14.84375 24.75 -17.8125 
Q 21.140625 -20.796875 15.09375 -20.796875 
L 7.90625 -20.796875 
L 7.90625 -13.28125 
L 13.1875 -13.28125 
Q 16.890625 -13.28125 18.9375 -11.515625 
Q 21 -9.765625 23.484375 -3.21875 
L 25.09375 0.875 
L 2.984375 54.6875 
L 12.5 54.6875 
L 29.59375 11.921875 
L 46.6875 54.6875 
L 56.203125 54.6875 
z
" id="DejaVuSans-121"/>
      <path id="DejaVuSans-32"/>
     </defs>
     <g transform="translate(13.875 200.333469)rotate(-90)scale(0.1 -0.1)">
      <use xlink:href="#DejaVuSans-80"/>
      <use x="60.255859" xlink:href="#DejaVuSans-111"/>
      <use x="121.4375" xlink:href="#DejaVuSans-108"/>
      <use x="149.220703" xlink:href="#DejaVuSans-105"/>
      <use x="177.003906" xlink:href="#DejaVuSans-99"/>
      <use x="231.984375" xlink:href="#DejaVuSans-121"/>
      <use x="291.164062" xlink:href="#DejaVuSans-32"/>
      <use x="322.951172" xlink:href="#DejaVuSans-108"/>
      <use x="350.734375" xlink:href="#DejaVuSans-111"/>
      <use x="411.916016" xlink:href="#DejaVuSans-115"/>
      <use x="464.015625" xlink:href="#DejaVuSans-115"/>
     </g>
    </g>
   </g>
   <g id="line2d_27">
    <path clip-path="url(#p978f7413b7)" d="M 57.6 134.907445 
L 58.050293 126.215224 
L 58.346054 131.13992 
L 58.566371 116.991755 
L 59.017962 129.263249 
L 59.915379 134.843743 
L 60.216915 128.596374 
L 60.365108 142.327687 
L 60.51346 138.872302 
L 60.587011 141.208333 
L 60.735027 136.14639 
L 61.187875 130.317622 
L 61.261348 127.250666 
L 61.334882 134.612846 
L 61.408348 128.258412 
L 62.077122 135.170617 
L 62.297288 134.960961 
L 62.523465 132.376223 
L 62.596132 123.077666 
L 62.742869 135.809182 
L 63.109789 130.427037 
L 63.70156 135.324731 
L 64.219752 130.063453 
L 64.812902 132.502048 
L 65.0323 130.978407 
L 65.105232 131.458482 
L 65.624073 129.099368 
L 65.988253 130.623067 
L 66.577221 135.016857 
L 66.794842 130.816931 
L 66.87898 141.851625 
L 67.53035 128.349748 
L 67.754429 139.474649 
L 67.827187 136.067227 
L 68.340651 132.457395 
L 68.700485 135.832433 
L 68.844315 129.519857 
L 68.916343 140.699562 
L 69.209726 137.95843 
L 69.568454 144.964309 
L 69.639519 132.96321 
L 69.865525 151.332759 
L 70.291314 127.131339 
L 70.361933 150.67854 
L 70.512398 144.10106 
L 70.724594 140.019001 
L 70.865365 135.072821 
L 70.935817 160.761948 
L 71.076433 143.095108 
L 71.229752 152.481953 
L 71.299615 151.999564 
L 71.789911 139.284695 
L 72.361236 153.195192 
L 72.50129 134.423508 
L 72.793381 137.636602 
L 73.502893 142.329426 
L 73.572373 149.5081 
L 73.711185 141.321803 
L 73.989132 142.77218 
L 74.212808 135.136862 
L 74.282055 143.78713 
L 74.351372 139.804824 
L 74.559318 144.215296 
L 75.829507 167.174635 
L 76.035555 175.622474 
L 76.190255 144.072274 
L 76.258841 158.612967 
L 76.396255 149.637475 
L 76.670125 149.119234 
L 76.961573 144.388752 
L 77.09798 163.43463 
L 77.440069 175.57771 
L 78.438048 173.788252 
L 78.779638 169.490903 
L 78.847905 162.010419 
L 79.2099 154.60969 
L 79.482693 163.744604 
L 79.550432 185.309775 
L 79.711943 140.363306 
L 79.915861 174.45168 
L 80.255124 168.750159 
L 80.322811 170.429127 
L 80.413639 166.678032 
L 80.753068 147.436523 
L 80.821074 168.64584 
L 80.889165 160.327587 
L 81.113726 145.137492 
L 81.725927 167.497248 
L 81.881768 160.418696 
L 82.291136 180.493972 
L 83.232595 160.266073 
L 83.436371 165.810619 
L 83.708687 180.216013 
L 84.000268 163.128354 
L 84.136665 172.457873 
L 84.417189 156.344015 
L 84.484911 167.938265 
L 84.552598 162.569907 
L 84.715868 151.7113 
L 85.054741 193.484258 
L 85.433328 175.713354 
L 85.501022 165.200233 
L 86.616894 167.649822 
L 87.114804 159.551676 
L 87.55195 162.056314 
L 87.619801 177.888622 
L 87.75521 175.551039 
L 88.189396 176.621567 
L 88.797754 179.513906 
L 89.035321 160.928181 
L 89.237867 168.348663 
L 89.664481 170.060707 
L 90.204748 165.896307 
L 90.309711 198.982916 
L 90.512111 177.883728 
L 90.579392 180.042763 
L 91.214591 183.615467 
L 91.281965 150.738927 
L 92.050469 152.375326 
L 92.253207 183.448311 
L 92.320499 178.217365 
L 92.630587 174.949621 
L 93.612057 174.271587 
L 93.989766 179.663938 
L 94.123835 190.726545 
L 94.326323 178.090925 
L 94.837911 164.312671 
L 94.904694 191.189368 
L 95.341959 180.173694 
L 95.476205 183.533082 
L 95.688925 166.848265 
L 95.757515 173.816812 
L 96.039473 172.107618 
L 96.17474 159.660958 
L 96.578217 178.251819 
L 97.223001 185.554141 
L 97.666562 164.620434 
L 97.733599 185.194605 
L 98.067625 211.843471 
L 98.376994 168.68031 
L 98.443598 169.163894 
L 98.64415 169.981942 
L 98.777871 147.400963 
L 99.090948 181.892741 
L 99.158225 189.776549 
L 99.358465 175.614107 
L 99.731181 169.012603 
L 99.798069 187.073192 
L 100.314795 189.778488 
L 100.448069 176.077195 
L 100.84951 207.57866 
L 101.028589 167.836186 
L 101.363409 209.467789 
L 101.874233 166.882098 
L 102.719672 186.576565 
L 103.270579 176.66056 
L 103.337109 155.651653 
L 103.470372 153.804547 
L 103.537283 195.122208 
L 103.604142 179.365812 
L 103.671073 166.391921 
L 103.807194 171.565765 
L 104.045392 191.928845 
L 104.311975 202.81338 
L 104.895652 170.000886 
L 105.163043 187.078864 
L 105.41036 178.092755 
L 105.477162 204.317158 
L 105.67695 156.715911 
L 105.810211 168.881927 
L 105.876697 187.888576 
L 105.943373 183.46295 
L 106.195752 206.524365 
L 106.262812 163.520522 
L 106.596417 199.741509 
L 106.663274 198.171383 
L 107.178457 188.193491 
L 107.378498 161.320949 
L 107.687454 213.694797 
L 107.888385 206.392853 
L 108.021781 178.541962 
L 108.20014 179.755601 
L 108.467234 201.211039 
L 108.734241 192.145895 
L 108.972756 203.429384 
L 109.039493 182.115586 
L 109.106112 214.95438 
L 109.172738 192.074446 
L 109.618793 192.415255 
L 110.018854 194.16756 
L 110.15194 173.34786 
L 110.218677 215.727682 
L 110.52992 189.153964 
L 110.730024 223.925589 
L 110.79967 202.738773 
L 111.040709 166.072725 
L 111.107379 189.393155 
L 111.173742 184.184803 
L 111.440587 167.774764 
L 111.885549 170.466574 
L 112.086472 162.415774 
L 112.153844 230.181743 
L 112.353687 158.722715 
L 112.467802 225.163037 
L 112.534645 189.20833 
L 112.668406 179.411663 
L 112.735178 188.950388 
L 113.169347 177.60634 
L 113.435883 177.538816 
L 113.635938 213.829285 
L 113.769312 188.575336 
L 114.007656 173.376873 
L 114.074245 227.561587 
L 114.140825 191.464694 
L 114.207459 214.729617 
L 114.407073 181.336431 
L 114.715211 163.692946 
L 114.914705 192.201614 
L 115.04759 143.962972 
L 115.113951 193.681696 
L 115.180564 176.013237 
L 115.629215 169.087021 
L 115.695711 201.242315 
L 115.828992 172.39723 
L 116.076255 183.846527 
L 116.542425 164.64209 
L 116.788921 233.499033 
L 117.122003 161.469213 
L 117.2551 176.949282 
L 117.634318 185.626909 
L 117.833855 201.257436 
L 117.966367 170.928767 
L 119.321501 163.292906 
L 119.454533 187.37582 
L 119.576225 178.574988 
L 119.842735 200.589802 
L 119.975266 156.548527 
L 120.289802 215.601517 
L 120.556248 178.298747 
L 120.755627 169.303956 
L 120.888833 187.892315 
L 121.006561 148.666258 
L 121.139746 225.217796 
L 121.405557 199.574585 
L 121.713826 202.842565 
L 122.179198 181.308652 
L 122.245407 190.548237 
L 122.311519 172.330576 
L 122.421774 243.626879 
L 122.554491 161.840026 
L 122.753664 174.221968 
L 122.820302 204.487137 
L 122.886932 183.651971 
L 123.135784 179.306055 
L 123.202227 207.276618 
L 123.26888 193.83983 
L 123.335502 203.955294 
L 123.920592 144.859118 
L 123.987419 174.25076 
L 124.187897 189.580169 
L 124.708217 184.879768 
L 124.9082 184.19255 
L 125.498533 209.522849 
L 125.565173 186.589493 
L 125.698757 210.786235 
L 125.765717 194.669371 
L 125.832294 149.15503 
L 126.150631 223.339666 
L 126.41767 192.242133 
L 126.803216 192.970041 
L 126.87017 202.563761 
L 127.137016 182.497947 
L 127.203729 191.473308 
L 127.270062 158.288464 
L 127.336524 205.855221 
L 127.589003 177.904324 
L 127.656132 189.739573 
L 127.72259 167.201517 
L 127.923144 175.410063 
L 127.989733 173.847242 
L 128.577287 191.817418 
L 128.899513 212.239665 
L 129.032859 171.201403 
L 129.166291 189.558161 
L 129.232805 184.338667 
L 129.433269 204.674899 
L 129.751307 196.843887 
L 129.81843 228.668512 
L 129.884809 199.909752 
L 130.085256 202.414098 
L 130.672677 181.592292 
L 130.805708 168.517934 
L 131.109241 189.860755 
L 131.175825 218.423956 
L 131.376278 196.291438 
L 131.509746 213.121772 
L 131.643542 192.038699 
L 132.023846 200.720429 
L 132.544896 164.270918 
L 132.611633 207.177016 
L 132.81176 186.783733 
L 132.945453 189.546129 
L 133.399033 186.352732 
L 133.465397 188.780467 
L 133.598961 219.912267 
L 133.731959 187.636502 
L 134.038022 217.289534 
L 134.438448 197.58786 
L 134.827517 185.91383 
L 134.894175 195.867053 
L 134.960911 180.460414 
L 135.482351 187.871935 
L 135.548772 192.964118 
L 135.949272 196.966549 
L 136.273801 214.560823 
L 136.340372 158.51185 
L 136.407127 186.844061 
L 137.057903 152.023493 
L 137.191432 198.05879 
L 137.39148 196.237731 
L 137.852685 158.116763 
L 137.919333 196.590839 
L 138.225842 162.26617 
L 138.425778 230.605779 
L 138.559095 164.556289 
L 139.552451 172.081995 
L 139.794816 224.006489 
L 139.994132 203.744659 
L 140.060782 177.910468 
L 140.127583 193.703728 
L 140.438216 181.431689 
L 140.505164 200.886227 
L 141.799008 210.105373 
L 141.93226 148.844958 
L 142.199284 233.992605 
L 142.650295 187.000188 
L 142.717315 230.531265 
L 142.983098 176.151139 
L 143.116377 195.139612 
L 143.305381 177.49965 
L 143.505301 215.680085 
L 143.771164 175.663529 
L 143.962587 162.924851 
L 144.22957 239.6614 
L 144.951074 192.133991 
L 145.217338 191.404224 
L 145.543649 203.960951 
L 145.610068 174.346417 
L 145.676696 180.367728 
L 145.810022 191.041096 
L 146.009908 172.7277 
L 146.270252 171.162163 
L 146.403553 235.338991 
L 146.603034 237.710674 
L 147.061716 184.438166 
L 147.328232 205.351796 
L 147.394851 162.506888 
L 147.645714 206.229879 
L 147.712557 243.087785 
L 147.778898 161.7799 
L 147.978377 187.698862 
L 148.567049 188.024461 
L 148.901229 185.468455 
L 149.095211 190.691993 
L 149.49457 211.314865 
L 149.827205 205.741034 
L 149.893974 214.430841 
L 149.960464 166.940262 
L 150.026782 184.962482 
L 150.482771 189.910064 
L 150.681819 195.115853 
L 151.209847 197.742576 
L 151.342924 195.603134 
L 151.607661 160.854626 
L 151.806095 190.653644 
L 152.254292 205.453542 
L 152.386645 184.75649 
L 152.643664 184.195959 
L 152.842261 165.268522 
L 152.90869 176.307468 
L 152.974735 217.009155 
L 153.040803 150.623894 
L 153.107037 177.132361 
L 153.566574 151.7838 
L 153.964126 164.862328 
L 154.428789 225.246278 
L 155.219473 163.037152 
L 155.555922 237.980988 
L 156.01872 153.353097 
L 156.150892 196.894234 
L 156.408756 185.200542 
L 156.607501 216.135239 
L 156.805718 203.077826 
L 156.871866 150.952011 
L 157.071373 253.689537 
L 157.137434 191.77836 
L 157.334932 111.720287 
L 158.606137 178.517612 
L 158.672246 166.128323 
L 158.738322 194.649065 
L 159.068691 143.963934 
L 159.342161 158.481027 
L 159.606438 212.023397 
L 159.672331 142.143684 
L 159.738287 191.192117 
L 160.072638 186.366894 
L 160.13901 169.915475 
L 160.205859 228.944837 
L 160.340681 145.031497 
L 160.673688 202.051993 
L 160.806112 168.231414 
L 161.396283 230.213304 
L 161.793136 171.944127 
L 162.459518 295.488 
L 162.52551 190.917386 
L 163.312111 197.73838 
L 163.896369 168.915101 
L 163.962037 171.552582 
L 164.372332 202.479679 
L 164.438118 200.906129 
L 165.026424 169.194056 
L 165.092388 152.599672 
L 165.158518 163.303351 
L 165.224495 152.650985 
L 165.422629 165.243319 
L 165.554649 221.650842 
L 165.620958 217.948712 
L 165.752206 184.866038 
L 166.283481 219.123559 
L 166.73415 175.723463 
L 166.932426 218.921375 
L 167.449009 194.78317 
L 167.581117 179.734832 
L 168.295816 172.411363 
L 168.692907 204.211289 
L 168.761599 164.62294 
L 169.012559 175.417299 
L 169.150615 192.708079 
L 170.055669 160.271379 
L 170.97842 189.631731 
L 171.113034 223.33033 
L 172.386276 207.674548 
L 173.017642 160.55551 
L 173.845169 133.906167 
L 175.165739 184.973235 
L 175.439761 142.680257 
L 175.927585 229.838469 
L 176.205311 150.734754 
L 176.342312 157.345575 
L 177.106606 183.806323 
L 177.517033 152.080417 
L 178.202131 188.194765 
L 178.540701 185.985806 
L 179.359517 156.68906 
L 179.496438 191.160438 
L 179.634116 158.99526 
L 180.238797 211.028411 
L 180.911706 143.581268 
L 181.407184 164.394987 
L 181.671085 155.873447 
L 182.066987 170.545343 
L 182.464976 169.588147 
L 184.091299 205.406053 
L 184.31033 174.892352 
L 184.448988 194.406397 
L 185.410853 201.260501 
L 186.050164 148.639419 
L 186.458884 140.781486 
L 186.593151 163.201457 
L 187.629066 145.75722 
L 188.797171 142.41524 
L 189.344236 199.199754 
L 189.892408 140.805651 
L 190.446336 167.387403 
L 191.381779 170.227676 
L 191.622769 174.848115 
L 192.577743 164.003749 
L 192.715656 135.640413 
L 192.849276 190.365286 
L 194.144098 153.872158 
L 194.769423 225.229789 
L 195.032464 156.151007 
L 195.165684 181.209661 
L 195.432943 197.425407 
L 196.184722 204.764057 
L 196.316555 163.491489 
L 196.583586 148.142186 
L 196.716932 165.255713 
L 196.851337 221.078024 
L 197.337899 204.086245 
L 197.611349 166.215111 
L 197.884408 161.353781 
L 199.286619 160.269271 
L 199.686801 187.775737 
L 200.968153 162.80044 
L 201.850017 154.415024 
L 201.986532 167.643975 
L 202.803163 168.109703 
L 202.936324 218.767948 
L 203.196255 154.918031 
L 204.289073 150.778785 
L 205.199033 149.177693 
L 205.336443 179.275172 
L 206.520192 137.461028 
L 206.657322 171.555873 
L 207.06906 161.396959 
L 207.574891 170.535451 
L 208.104346 172.352343 
L 208.369626 263.528179 
L 209.045342 165.992711 
L 209.843187 134.742787 
L 210.502818 178.877247 
L 210.640003 161.128273 
L 211.049858 187.112491 
L 211.735271 196.106913 
L 212.355126 179.081468 
L 212.621981 124.410717 
L 213.168467 191.039148 
L 214.198209 153.545114 
L 214.473339 173.909699 
L 214.611129 167.472129 
L 215.574649 184.627738 
L 215.710959 194.454127 
L 215.848019 171.16921 
L 216.483718 177.07952 
L 218.221793 192.986869 
L 219.497873 144.855377 
L 220.042592 107.063161 
L 221.014062 174.507355 
L 221.699604 191.614978 
L 221.973042 147.229319 
L 222.617497 173.885128 
L 222.753718 188.814463 
L 223.633103 219.363227 
L 224.16204 191.343414 
L 224.293921 148.658226 
L 224.426663 172.72405 
L 224.692611 168.93784 
L 224.824619 138.080435 
L 225.585535 168.979999 
L 225.983657 129.620366 
L 226.254807 202.65864 
L 227.11135 140.664905 
L 227.513734 184.501411 
L 227.879231 148.234651 
L 228.833856 98.763167 
L 229.106539 149.139631 
L 229.506034 159.370564 
L 230.799225 171.896476 
L 230.93591 144.820562 
L 231.073361 160.765765 
L 231.206304 146.313397 
L 233.184598 183.076024 
L 233.767489 150.811413 
L 234.292455 161.050952 
L 234.423684 182.203765 
L 234.819313 145.940596 
L 235.056035 137.053633 
L 235.465371 210.086606 
L 235.737537 167.409826 
L 236.01082 175.193672 
L 236.801429 177.377828 
L 237.197892 122.2996 
L 237.461282 145.085634 
L 237.967932 159.638847 
L 238.369213 144.752873 
L 238.767673 138.681408 
L 239.033867 158.293575 
L 239.525964 147.914079 
L 239.937728 165.531308 
L 240.073973 144.530172 
L 240.483753 176.357825 
L 241.070032 127.105005 
L 242.373326 156.962397 
L 242.647681 143.868709 
L 243.329727 168.178555 
L 244.084267 153.593309 
L 244.221365 198.50261 
L 244.358737 157.225844 
L 244.631369 150.656847 
L 244.768002 158.219356 
L 245.039234 192.691895 
L 245.388114 172.779218 
L 245.787319 171.802723 
L 245.919216 127.530576 
L 246.457713 159.359528 
L 247.236291 152.958394 
L 247.50976 159.263535 
L 248.415027 159.565366 
L 248.547894 152.138462 
L 248.681131 170.485549 
L 248.946633 135.385452 
L 249.346742 142.539936 
L 249.744711 183.909368 
L 250.280664 189.953735 
L 250.693436 142.317317 
L 251.056103 190.392209 
L 251.32304 173.194025 
L 251.593445 132.333039 
L 252.12864 165.631778 
L 252.745751 188.25799 
L 253.020458 140.146741 
L 253.555496 199.585692 
L 253.686289 162.389509 
L 254.053223 138.584461 
L 254.191349 168.04741 
L 254.465789 142.159583 
L 254.733188 171.663955 
L 254.997776 134.570649 
L 255.134856 197.7484 
L 255.531506 213.024511 
L 256.193569 204.79248 
L 256.326832 182.069838 
L 257.243232 142.914658 
L 257.378709 160.190086 
L 257.51444 133.905162 
L 258.062166 169.977613 
L 258.434204 179.397692 
L 258.70899 159.842862 
L 259.254571 253.136266 
L 260.77407 169.728695 
L 261.038667 178.491959 
L 261.449039 164.662714 
L 261.57949 145.182229 
L 262.104378 176.105347 
L 262.369728 161.637608 
L 262.502738 176.160411 
L 262.734561 119.187339 
L 263.143298 169.798089 
L 263.693322 158.170625 
L 263.831232 146.16165 
L 264.316998 174.035062 
L 264.72735 158.855019 
L 266.191138 142.305818 
L 266.327812 148.773403 
L 266.737966 129.381965 
L 266.87552 170.93256 
L 267.24396 177.896163 
L 267.639342 120.123141 
L 268.032867 148.288547 
L 268.298944 160.718566 
L 268.51419 113.398693 
L 268.650809 159.261909 
L 268.787411 145.923486 
L 269.060219 177.325524 
L 269.33349 123.434199 
L 269.471057 179.313054 
L 270.093761 153.36738 
L 270.230491 133.801681 
L 270.499066 159.24906 
L 270.900822 145.417028 
L 271.675167 159.105312 
L 273.424747 208.824298 
L 273.96139 173.596978 
L 274.472524 155.031372 
L 275.140305 158.401795 
L 275.408775 173.820275 
L 275.895019 176.710529 
L 276.687549 169.979527 
L 276.819815 166.598451 
L 277.176563 140.494579 
L 277.585549 122.472808 
L 277.993364 118.55477 
L 278.265405 155.704668 
L 279.53841 166.585194 
L 279.670141 151.474232 
L 279.80165 161.892306 
L 280.287108 153.966558 
L 280.552133 135.105902 
L 280.953412 164.544882 
L 281.777635 148.013681 
L 282.04813 126.798981 
L 282.184151 186.938729 
L 282.320409 119.177275 
L 282.45726 146.332146 
L 283.615536 172.192881 
L 284.905768 159.973582 
L 285.568755 188.761666 
L 286.736976 189.170669 
L 286.87422 151.102715 
L 287.395973 168.930525 
L 287.927151 135.90437 
L 288.969744 147.088759 
L 289.371841 182.237525 
L 289.762866 53.568 
L 289.895334 123.941652 
L 290.168793 134.350569 
L 290.44143 150.487502 
L 291.592652 167.921176 
L 291.865298 138.334411 
L 292.138653 188.245885 
L 292.410449 188.483905 
L 293.950181 155.149676 
L 295.221475 155.474076 
L 295.359052 132.517352 
L 295.496391 177.177026 
L 296.146662 157.393093 
L 296.963313 156.248968 
L 298.122067 160.192904 
L 299.026937 90.327387 
L 299.291826 162.003112 
L 299.423711 145.029261 
L 299.689209 158.264265 
L 299.957799 156.265046 
L 300.487253 142.06185 
L 301.291051 109.142088 
L 301.565171 155.817424 
L 302.625495 126.309543 
L 303.168465 132.454479 
L 303.5078 128.892141 
L 304.034082 162.206833 
L 304.165632 151.590332 
L 304.428932 116.258449 
L 305.215674 193.32577 
L 305.87552 142.254069 
L 306.360799 160.712978 
L 306.497964 154.599193 
L 306.633624 190.408756 
L 308.276878 133.711438 
L 308.545238 163.311374 
L 308.67746 154.118609 
L 308.808596 177.142858 
L 308.940177 137.905674 
L 309.539815 117.771863 
L 309.802597 139.235282 
L 310.199379 112.392156 
L 310.57118 180.399889 
L 310.835655 154.808675 
L 311.098501 146.210066 
L 312.400227 136.371513 
L 312.929773 247.179115 
L 313.193419 117.215476 
L 313.569789 184.946377 
L 313.841126 146.847656 
L 314.249176 170.188522 
L 314.658934 144.829985 
L 315.545881 163.275049 
L 315.678204 145.182967 
L 316.332503 164.225588 
L 316.743554 157.91406 
L 317.15205 119.174676 
L 317.424689 174.100929 
L 317.560899 155.507853 
L 318.239263 142.852334 
L 318.781182 138.159322 
L 319.421797 145.446443 
L 319.55918 172.947721 
L 319.695528 119.6358 
L 320.105817 129.394968 
L 320.746993 174.86608 
L 321.564887 163.850618 
L 321.698869 144.758585 
L 322.214951 168.013279 
L 322.871189 191.126152 
L 323.266342 173.045464 
L 323.399571 134.280464 
L 323.785562 140.77174 
L 324.056622 155.339051 
L 324.327993 161.686772 
L 324.456821 154.490072 
L 324.863473 143.932385 
L 325.416346 155.922326 
L 325.823949 151.047495 
L 325.960699 172.974363 
L 326.233793 186.608908 
L 327.167252 131.331438 
L 327.570351 126.231823 
L 328.146006 153.126536 
L 328.276588 177.7912 
L 328.811366 138.260311 
L 329.723192 174.246475 
L 331.581719 143.80347 
L 332.129162 192.291515 
L 332.494316 132.318043 
L 333.568677 158.379603 
L 333.961621 150.94191 
L 334.507777 152.121843 
L 335.191145 140.019557 
L 335.821152 178.761742 
L 336.988724 126.565824 
L 338.188008 206.891718 
L 339.103766 183.094815 
L 340.519683 163.022058 
L 340.657282 155.130494 
L 340.794853 130.979919 
L 341.330464 224.110616 
L 341.466042 128.075508 
L 342.139424 138.847577 
L 342.409773 141.193265 
L 343.059023 120.254492 
L 343.195291 181.469271 
L 343.465283 142.753206 
L 343.739366 151.006337 
L 343.875457 137.486513 
L 345.097 188.433622 
L 346.431556 122.647311 
L 348.396246 118.221995 
L 348.635057 132.569598 
L 348.771362 184.738757 
L 349.726547 145.114022 
L 350.533279 155.389413 
L 350.932469 145.246327 
L 351.323705 179.120044 
L 351.543712 128.996628 
L 351.680041 176.25535 
L 352.224234 175.382073 
L 353.540536 175.730109 
L 353.676035 121.059195 
L 354.074957 141.852003 
L 354.540435 206.836526 
L 354.812419 189.356026 
L 356.503807 122.178593 
L 356.772941 117.363219 
L 357.175486 158.760397 
L 357.524161 142.299637 
L 358.18675 164.813312 
L 358.583207 149.772336 
L 359.184711 156.295592 
L 360.495483 155.634045 
L 360.631418 138.765183 
L 361.450725 150.732643 
L 361.842562 178.416225 
L 361.978469 137.701419 
L 362.786354 149.071716 
L 363.266087 147.813801 
L 363.402291 196.711937 
L 364.064296 139.69939 
L 364.329404 147.00859 
L 364.708947 166.323186 
L 365.100041 146.434753 
L 365.36117 177.66441 
L 366.406854 129.783582 
L 367.073146 142.867392 
L 367.344967 138.81702 
L 367.61159 178.234863 
L 367.747142 131.283329 
L 368.288396 142.728884 
L 369.35555 140.54155 
L 369.899487 167.761697 
L 370.307457 159.305849 
L 370.522775 127.692784 
L 370.786689 143.391992 
L 373.220138 148.323466 
L 373.89425 123.52922 
L 375.622513 125.172674 
L 376.372272 202.900547 
L 376.636235 110.338047 
L 376.767992 137.197884 
L 377.160749 117.894235 
L 377.293119 152.026135 
L 378.635252 193.920174 
L 379.543303 186.725786 
L 380.077214 155.37073 
L 380.921995 142.157054 
L 381.195423 166.822981 
L 381.46836 145.815753 
L 381.741272 154.940283 
L 382.108825 187.010587 
L 382.504072 177.161659 
L 382.767375 146.253138 
L 383.16598 159.271088 
L 383.405747 180.323225 
L 383.542173 157.437109 
L 383.677719 159.686643 
L 384.08436 154.400835 
L 384.220682 144.256996 
L 384.355032 155.755084 
L 384.883548 154.51937 
L 385.019089 127.230583 
L 385.292116 169.615477 
L 385.429868 111.86306 
L 385.959034 146.261361 
L 386.397362 191.829686 
L 386.532869 145.481337 
L 386.668486 154.213324 
L 387.208934 130.87715 
L 387.481002 144.668888 
L 387.927631 127.73032 
L 388.319914 149.444006 
L 389.618883 146.053377 
L 390.01321 131.404506 
L 390.275288 137.29678 
L 390.54278 155.601773 
L 390.937653 155.481093 
L 391.211775 192.79161 
L 391.624713 112.577571 
L 392.600723 157.876038 
L 393.145718 194.665087 
L 393.417581 141.824714 
L 393.952574 146.274906 
L 394.478768 145.146639 
L 395.006901 153.633434 
L 395.765927 129.850172 
L 397.412985 163.122882 
L 397.820882 141.343859 
L 398.465906 174.097609 
L 398.74488 181.222214 
L 399.274807 171.728041 
L 399.408248 163.96647 
L 400.469463 111.390955 
L 400.870036 159.777012 
L 401.002809 99.74921 
L 401.78287 127.02866 
L 401.914209 125.285217 
L 402.306912 171.226818 
L 402.825851 162.567342 
L 403.509579 163.549205 
L 403.918512 164.745672 
L 404.054365 138.658212 
L 404.566396 207.75592 
L 405.595371 142.835402 
L 407.014298 153.045017 
L 408.031825 141.658399 
L 408.441492 166.767894 
L 408.57664 140.101496 
L 409.658865 189.853435 
L 409.932323 138.783712 
L 410.205799 152.344737 
L 410.967342 147.375341 
L 411.374057 143.031798 
L 413.011833 180.970725 
L 413.147709 147.233907 
L 414.72 139.189334 
L 414.72 139.189334 
" style="fill:none;stroke:#000000;stroke-linecap:square;stroke-width:0.8;"/>
   </g>
   <g id="patch_3">
    <path d="M 57.6 307.584 
L 57.6 41.472 
" style="fill:none;stroke:#000000;stroke-linecap:square;stroke-linejoin:miter;stroke-width:0.8;"/>
   </g>
   <g id="patch_4">
    <path d="M 414.72 307.584 
L 414.72 41.472 
" style="fill:none;stroke:#000000;stroke-linecap:square;stroke-linejoin:miter;stroke-width:0.8;"/>
   </g>
   <g id="patch_5">
    <path d="M 57.6 307.584 
L 414.72 307.584 
" style="fill:none;stroke:#000000;stroke-linecap:square;stroke-linejoin:miter;stroke-width:0.8;"/>
   </g>
   <g id="patch_6">
    <path d="M 57.6 41.472 
L 414.72 41.472 
" style="fill:none;stroke:#000000;stroke-linecap:square;stroke-linejoin:miter;stroke-width:0.8;"/>
   </g>
  </g>
  <g id="axes_2">
   <g id="matplotlib.axis_3">
    <g id="xtick_9">
     <g id="line2d_28">
      <defs>
       <path d="M 0 0 
L 0 -3.5 
" id="m9552f46589" style="stroke:#000000;stroke-width:0.8;"/>
      </defs>
      <g>
       <use style="stroke:#000000;stroke-width:0.8;" x="57.6" xlink:href="#m9552f46589" y="41.472"/>
      </g>
     </g>
    </g>
    <g id="xtick_10">
     <g id="line2d_29">
      <g>
       <use style="stroke:#000000;stroke-width:0.8;" x="112.881905" xlink:href="#m9552f46589" y="41.472"/>
      </g>
     </g>
     <g id="text_16">
      <!-- 50.0K -->
      <defs>
       <path d="M 10.796875 72.90625 
L 49.515625 72.90625 
L 49.515625 64.59375 
L 19.828125 64.59375 
L 19.828125 46.734375 
Q 21.96875 47.46875 24.109375 47.828125 
Q 26.265625 48.1875 28.421875 48.1875 
Q 40.625 48.1875 47.75 41.5 
Q 54.890625 34.8125 54.890625 23.390625 
Q 54.890625 11.625 47.5625 5.09375 
Q 40.234375 -1.421875 26.90625 -1.421875 
Q 22.3125 -1.421875 17.546875 -0.640625 
Q 12.796875 0.140625 7.71875 1.703125 
L 7.71875 11.625 
Q 12.109375 9.234375 16.796875 8.0625 
Q 21.484375 6.890625 26.703125 6.890625 
Q 35.15625 6.890625 40.078125 11.328125 
Q 45.015625 15.765625 45.015625 23.390625 
Q 45.015625 31 40.078125 35.4375 
Q 35.15625 39.890625 26.703125 39.890625 
Q 22.75 39.890625 18.8125 39.015625 
Q 14.890625 38.140625 10.796875 36.28125 
z
" id="DejaVuSans-53"/>
       <path d="M 9.8125 72.90625 
L 19.671875 72.90625 
L 19.671875 42.09375 
L 52.390625 72.90625 
L 65.09375 72.90625 
L 28.90625 38.921875 
L 67.671875 0 
L 54.6875 0 
L 19.671875 35.109375 
L 19.671875 0 
L 9.8125 0 
z
" id="DejaVuSans-75"/>
      </defs>
      <g transform="translate(98.470186 32.392313)scale(0.1 -0.1)">
       <use xlink:href="#DejaVuSans-53"/>
       <use x="63.623047" xlink:href="#DejaVuSans-48"/>
       <use x="127.246094" xlink:href="#DejaVuSans-46"/>
       <use x="159.033203" xlink:href="#DejaVuSans-48"/>
       <use x="222.65625" xlink:href="#DejaVuSans-75"/>
      </g>
     </g>
    </g>
    <g id="xtick_11">
     <g id="line2d_30">
      <g>
       <use style="stroke:#000000;stroke-width:0.8;" x="168.16381" xlink:href="#m9552f46589" y="41.472"/>
      </g>
     </g>
     <g id="text_17">
      <!-- 100K -->
      <g transform="translate(155.341154 32.392313)scale(0.1 -0.1)">
       <use xlink:href="#DejaVuSans-49"/>
       <use x="63.623047" xlink:href="#DejaVuSans-48"/>
       <use x="127.246094" xlink:href="#DejaVuSans-48"/>
       <use x="190.869141" xlink:href="#DejaVuSans-75"/>
      </g>
     </g>
    </g>
    <g id="xtick_12">
     <g id="line2d_31">
      <g>
       <use style="stroke:#000000;stroke-width:0.8;" x="223.445715" xlink:href="#m9552f46589" y="41.472"/>
      </g>
     </g>
     <g id="text_18">
      <!-- 150K -->
      <g transform="translate(210.623058 32.392313)scale(0.1 -0.1)">
       <use xlink:href="#DejaVuSans-49"/>
       <use x="63.623047" xlink:href="#DejaVuSans-53"/>
       <use x="127.246094" xlink:href="#DejaVuSans-48"/>
       <use x="190.869141" xlink:href="#DejaVuSans-75"/>
      </g>
     </g>
    </g>
    <g id="xtick_13">
     <g id="line2d_32">
      <g>
       <use style="stroke:#000000;stroke-width:0.8;" x="278.72762" xlink:href="#m9552f46589" y="41.472"/>
      </g>
     </g>
     <g id="text_19">
      <!-- 200K -->
      <g transform="translate(265.904963 32.392313)scale(0.1 -0.1)">
       <use xlink:href="#DejaVuSans-50"/>
       <use x="63.623047" xlink:href="#DejaVuSans-48"/>
       <use x="127.246094" xlink:href="#DejaVuSans-48"/>
       <use x="190.869141" xlink:href="#DejaVuSans-75"/>
      </g>
     </g>
    </g>
    <g id="xtick_14">
     <g id="line2d_33">
      <g>
       <use style="stroke:#000000;stroke-width:0.8;" x="334.009524" xlink:href="#m9552f46589" y="41.472"/>
      </g>
     </g>
     <g id="text_20">
      <!-- 250K -->
      <g transform="translate(321.186868 32.392313)scale(0.1 -0.1)">
       <use xlink:href="#DejaVuSans-50"/>
       <use x="63.623047" xlink:href="#DejaVuSans-53"/>
       <use x="127.246094" xlink:href="#DejaVuSans-48"/>
       <use x="190.869141" xlink:href="#DejaVuSans-75"/>
      </g>
     </g>
    </g>
    <g id="xtick_15">
     <g id="line2d_34">
      <g>
       <use style="stroke:#000000;stroke-width:0.8;" x="389.291429" xlink:href="#m9552f46589" y="41.472"/>
      </g>
     </g>
     <g id="text_21">
      <!-- 300K -->
      <defs>
       <path d="M 40.578125 39.3125 
Q 47.65625 37.796875 51.625 33 
Q 55.609375 28.21875 55.609375 21.1875 
Q 55.609375 10.40625 48.1875 4.484375 
Q 40.765625 -1.421875 27.09375 -1.421875 
Q 22.515625 -1.421875 17.65625 -0.515625 
Q 12.796875 0.390625 7.625 2.203125 
L 7.625 11.71875 
Q 11.71875 9.328125 16.59375 8.109375 
Q 21.484375 6.890625 26.8125 6.890625 
Q 36.078125 6.890625 40.9375 10.546875 
Q 45.796875 14.203125 45.796875 21.1875 
Q 45.796875 27.640625 41.28125 31.265625 
Q 36.765625 34.90625 28.71875 34.90625 
L 20.21875 34.90625 
L 20.21875 43.015625 
L 29.109375 43.015625 
Q 36.375 43.015625 40.234375 45.921875 
Q 44.09375 48.828125 44.09375 54.296875 
Q 44.09375 59.90625 40.109375 62.90625 
Q 36.140625 65.921875 28.71875 65.921875 
Q 24.65625 65.921875 20.015625 65.03125 
Q 15.375 64.15625 9.8125 62.3125 
L 9.8125 71.09375 
Q 15.4375 72.65625 20.34375 73.4375 
Q 25.25 74.21875 29.59375 74.21875 
Q 40.828125 74.21875 47.359375 69.109375 
Q 53.90625 64.015625 53.90625 55.328125 
Q 53.90625 49.265625 50.4375 45.09375 
Q 46.96875 40.921875 40.578125 39.3125 
z
" id="DejaVuSans-51"/>
      </defs>
      <g transform="translate(376.468773 32.392313)scale(0.1 -0.1)">
       <use xlink:href="#DejaVuSans-51"/>
       <use x="63.623047" xlink:href="#DejaVuSans-48"/>
       <use x="127.246094" xlink:href="#DejaVuSans-48"/>
       <use x="190.869141" xlink:href="#DejaVuSans-75"/>
      </g>
     </g>
    </g>
    <g id="text_22">
     <!-- Steps -->
     <defs>
      <path d="M 53.515625 70.515625 
L 53.515625 60.890625 
Q 47.90625 63.578125 42.921875 64.890625 
Q 37.9375 66.21875 33.296875 66.21875 
Q 25.25 66.21875 20.875 63.09375 
Q 16.5 59.96875 16.5 54.203125 
Q 16.5 49.359375 19.40625 46.890625 
Q 22.3125 44.4375 30.421875 42.921875 
L 36.375 41.703125 
Q 47.40625 39.59375 52.65625 34.296875 
Q 57.90625 29 57.90625 20.125 
Q 57.90625 9.515625 50.796875 4.046875 
Q 43.703125 -1.421875 29.984375 -1.421875 
Q 24.8125 -1.421875 18.96875 -0.25 
Q 13.140625 0.921875 6.890625 3.21875 
L 6.890625 13.375 
Q 12.890625 10.015625 18.65625 8.296875 
Q 24.421875 6.59375 29.984375 6.59375 
Q 38.421875 6.59375 43.015625 9.90625 
Q 47.609375 13.234375 47.609375 19.390625 
Q 47.609375 24.75 44.3125 27.78125 
Q 41.015625 30.8125 33.5 32.328125 
L 27.484375 33.5 
Q 16.453125 35.6875 11.515625 40.375 
Q 6.59375 45.0625 6.59375 53.421875 
Q 6.59375 63.09375 13.40625 68.65625 
Q 20.21875 74.21875 32.171875 74.21875 
Q 37.3125 74.21875 42.625 73.28125 
Q 47.953125 72.359375 53.515625 70.515625 
z
" id="DejaVuSans-83"/>
      <path d="M 18.3125 70.21875 
L 18.3125 54.6875 
L 36.8125 54.6875 
L 36.8125 47.703125 
L 18.3125 47.703125 
L 18.3125 18.015625 
Q 18.3125 11.328125 20.140625 9.421875 
Q 21.96875 7.515625 27.59375 7.515625 
L 36.8125 7.515625 
L 36.8125 0 
L 27.59375 0 
Q 17.1875 0 13.234375 3.875 
Q 9.28125 7.765625 9.28125 18.015625 
L 9.28125 47.703125 
L 2.6875 47.703125 
L 2.6875 54.6875 
L 9.28125 54.6875 
L 9.28125 70.21875 
z
" id="DejaVuSans-116"/>
      <path d="M 56.203125 29.59375 
L 56.203125 25.203125 
L 14.890625 25.203125 
Q 15.484375 15.921875 20.484375 11.0625 
Q 25.484375 6.203125 34.421875 6.203125 
Q 39.59375 6.203125 44.453125 7.46875 
Q 49.3125 8.734375 54.109375 11.28125 
L 54.109375 2.78125 
Q 49.265625 0.734375 44.1875 -0.34375 
Q 39.109375 -1.421875 33.890625 -1.421875 
Q 20.796875 -1.421875 13.15625 6.1875 
Q 5.515625 13.8125 5.515625 26.8125 
Q 5.515625 40.234375 12.765625 48.109375 
Q 20.015625 56 32.328125 56 
Q 43.359375 56 49.78125 48.890625 
Q 56.203125 41.796875 56.203125 29.59375 
z
M 47.21875 32.234375 
Q 47.125 39.59375 43.09375 43.984375 
Q 39.0625 48.390625 32.421875 48.390625 
Q 24.90625 48.390625 20.390625 44.140625 
Q 15.875 39.890625 15.1875 32.171875 
z
" id="DejaVuSans-101"/>
      <path d="M 18.109375 8.203125 
L 18.109375 -20.796875 
L 9.078125 -20.796875 
L 9.078125 54.6875 
L 18.109375 54.6875 
L 18.109375 46.390625 
Q 20.953125 51.265625 25.265625 53.625 
Q 29.59375 56 35.59375 56 
Q 45.5625 56 51.78125 48.09375 
Q 58.015625 40.1875 58.015625 27.296875 
Q 58.015625 14.40625 51.78125 6.484375 
Q 45.5625 -1.421875 35.59375 -1.421875 
Q 29.59375 -1.421875 25.265625 0.953125 
Q 20.953125 3.328125 18.109375 8.203125 
z
M 48.6875 27.296875 
Q 48.6875 37.203125 44.609375 42.84375 
Q 40.53125 48.484375 33.40625 48.484375 
Q 26.265625 48.484375 22.1875 42.84375 
Q 18.109375 37.203125 18.109375 27.296875 
Q 18.109375 17.390625 22.1875 11.75 
Q 26.265625 6.109375 33.40625 6.109375 
Q 40.53125 6.109375 44.609375 11.75 
Q 48.6875 17.390625 48.6875 27.296875 
z
" id="DejaVuSans-112"/>
     </defs>
     <g transform="translate(222.170156 20.793875)scale(0.1 -0.1)">
      <use xlink:href="#DejaVuSans-83"/>
      <use x="63.476562" xlink:href="#DejaVuSans-116"/>
      <use x="102.685547" xlink:href="#DejaVuSans-101"/>
      <use x="164.208984" xlink:href="#DejaVuSans-112"/>
      <use x="227.685547" xlink:href="#DejaVuSans-115"/>
     </g>
    </g>
   </g>
   <g id="patch_7">
    <path d="M 57.6 307.584 
L 57.6 41.472 
" style="fill:none;stroke:#000000;stroke-linecap:square;stroke-linejoin:miter;stroke-width:0.8;"/>
   </g>
   <g id="patch_8">
    <path d="M 414.72 307.584 
L 414.72 41.472 
" style="fill:none;stroke:#000000;stroke-linecap:square;stroke-linejoin:miter;stroke-width:0.8;"/>
   </g>
   <g id="patch_9">
    <path d="M 57.6 307.584 
L 414.72 307.584 
" style="fill:none;stroke:#000000;stroke-linecap:square;stroke-linejoin:miter;stroke-width:0.8;"/>
   </g>
   <g id="patch_10">
    <path d="M 57.6 41.472 
L 414.72 41.472 
" style="fill:none;stroke:#000000;stroke-linecap:square;stroke-linejoin:miter;stroke-width:0.8;"/>
   </g>
  </g>
 </g>
 <defs>
  <clipPath id="p978f7413b7">
   <rect height="266.112" width="357.12" x="57.6" y="41.472"/>
  </clipPath>
 </defs>
</svg>
