<?xml version="1.0" encoding="utf-8" standalone="no"?>
<!DOCTYPE svg PUBLIC "-//W3C//DTD SVG 1.1//EN"
  "http://www.w3.org/Graphics/SVG/1.1/DTD/svg11.dtd">
<!-- Created with matplotlib (https://matplotlib.org/) -->
<svg height="345.6pt" version="1.1" viewBox="0 0 460.8 345.6" width="460.8pt" xmlns="http://www.w3.org/2000/svg" xmlns:xlink="http://www.w3.org/1999/xlink">
 <defs>
  <style type="text/css">
*{stroke-linecap:butt;stroke-linejoin:round;}
  </style>
 </defs>
 <g id="figure_1">
  <g id="patch_1">
   <path d="M 0 345.6 
L 460.8 345.6 
L 460.8 0 
L 0 0 
z
" style="fill:#ffffff;"/>
  </g>
  <g id="axes_1">
   <g id="patch_2">
    <path d="M 57.6 307.584 
L 414.72 307.584 
L 414.72 41.472 
L 57.6 41.472 
z
" style="fill:#ffffff;"/>
   </g>
   <g id="matplotlib.axis_1">
    <g id="xtick_1">
     <g id="line2d_1">
      <path clip-path="url(#pd0b42a5e79)" d="M 57.6 307.584 
L 57.6 41.472 
" style="fill:none;stroke:#b0b0b0;stroke-linecap:square;stroke-width:0.8;"/>
     </g>
     <g id="line2d_2">
      <defs>
       <path d="M 0 0 
L 0 3.5 
" id="m29c0e4b5df" style="stroke:#000000;stroke-width:0.8;"/>
      </defs>
      <g>
       <use style="stroke:#000000;stroke-width:0.8;" x="57.6" xlink:href="#m29c0e4b5df" y="307.584"/>
      </g>
     </g>
     <g id="text_1">
      <!-- 0 -->
      <defs>
       <path d="M 31.78125 66.40625 
Q 24.171875 66.40625 20.328125 58.90625 
Q 16.5 51.421875 16.5 36.375 
Q 16.5 21.390625 20.328125 13.890625 
Q 24.171875 6.390625 31.78125 6.390625 
Q 39.453125 6.390625 43.28125 13.890625 
Q 47.125 21.390625 47.125 36.375 
Q 47.125 51.421875 43.28125 58.90625 
Q 39.453125 66.40625 31.78125 66.40625 
z
M 31.78125 74.21875 
Q 44.046875 74.21875 50.515625 64.515625 
Q 56.984375 54.828125 56.984375 36.375 
Q 56.984375 17.96875 50.515625 8.265625 
Q 44.046875 -1.421875 31.78125 -1.421875 
Q 19.53125 -1.421875 13.0625 8.265625 
Q 6.59375 17.96875 6.59375 36.375 
Q 6.59375 54.828125 13.0625 64.515625 
Q 19.53125 74.21875 31.78125 74.21875 
z
" id="DejaVuSans-48"/>
      </defs>
      <g transform="translate(54.41875 322.182437)scale(0.1 -0.1)">
       <use xlink:href="#DejaVuSans-48"/>
      </g>
     </g>
    </g>
    <g id="xtick_2">
     <g id="line2d_3">
      <path clip-path="url(#pd0b42a5e79)" d="M 121.69482 307.584 
L 121.69482 41.472 
" style="fill:none;stroke:#b0b0b0;stroke-linecap:square;stroke-width:0.8;"/>
     </g>
     <g id="line2d_4">
      <g>
       <use style="stroke:#000000;stroke-width:0.8;" x="121.69482" xlink:href="#m29c0e4b5df" y="307.584"/>
      </g>
     </g>
     <g id="text_2">
      <!-- 10 -->
      <defs>
       <path d="M 12.40625 8.296875 
L 28.515625 8.296875 
L 28.515625 63.921875 
L 10.984375 60.40625 
L 10.984375 69.390625 
L 28.421875 72.90625 
L 38.28125 72.90625 
L 38.28125 8.296875 
L 54.390625 8.296875 
L 54.390625 0 
L 12.40625 0 
z
" id="DejaVuSans-49"/>
      </defs>
      <g transform="translate(115.33232 322.182437)scale(0.1 -0.1)">
       <use xlink:href="#DejaVuSans-49"/>
       <use x="63.623047" xlink:href="#DejaVuSans-48"/>
      </g>
     </g>
    </g>
    <g id="xtick_3">
     <g id="line2d_5">
      <path clip-path="url(#pd0b42a5e79)" d="M 185.789641 307.584 
L 185.789641 41.472 
" style="fill:none;stroke:#b0b0b0;stroke-linecap:square;stroke-width:0.8;"/>
     </g>
     <g id="line2d_6">
      <g>
       <use style="stroke:#000000;stroke-width:0.8;" x="185.789641" xlink:href="#m29c0e4b5df" y="307.584"/>
      </g>
     </g>
     <g id="text_3">
      <!-- 20 -->
      <defs>
       <path d="M 19.1875 8.296875 
L 53.609375 8.296875 
L 53.609375 0 
L 7.328125 0 
L 7.328125 8.296875 
Q 12.9375 14.109375 22.625 23.890625 
Q 32.328125 33.6875 34.8125 36.53125 
Q 39.546875 41.84375 41.421875 45.53125 
Q 43.3125 49.21875 43.3125 52.78125 
Q 43.3125 58.59375 39.234375 62.25 
Q 35.15625 65.921875 28.609375 65.921875 
Q 23.96875 65.921875 18.8125 64.3125 
Q 13.671875 62.703125 7.8125 59.421875 
L 7.8125 69.390625 
Q 13.765625 71.78125 18.9375 73 
Q 24.125 74.21875 28.421875 74.21875 
Q 39.75 74.21875 46.484375 68.546875 
Q 53.21875 62.890625 53.21875 53.421875 
Q 53.21875 48.921875 51.53125 44.890625 
Q 49.859375 40.875 45.40625 35.40625 
Q 44.1875 33.984375 37.640625 27.21875 
Q 31.109375 20.453125 19.1875 8.296875 
z
" id="DejaVuSans-50"/>
      </defs>
      <g transform="translate(179.427141 322.182437)scale(0.1 -0.1)">
       <use xlink:href="#DejaVuSans-50"/>
       <use x="63.623047" xlink:href="#DejaVuSans-48"/>
      </g>
     </g>
    </g>
    <g id="xtick_4">
     <g id="line2d_7">
      <path clip-path="url(#pd0b42a5e79)" d="M 249.884461 307.584 
L 249.884461 41.472 
" style="fill:none;stroke:#b0b0b0;stroke-linecap:square;stroke-width:0.8;"/>
     </g>
     <g id="line2d_8">
      <g>
       <use style="stroke:#000000;stroke-width:0.8;" x="249.884461" xlink:href="#m29c0e4b5df" y="307.584"/>
      </g>
     </g>
     <g id="text_4">
      <!-- 30 -->
      <defs>
       <path d="M 40.578125 39.3125 
Q 47.65625 37.796875 51.625 33 
Q 55.609375 28.21875 55.609375 21.1875 
Q 55.609375 10.40625 48.1875 4.484375 
Q 40.765625 -1.421875 27.09375 -1.421875 
Q 22.515625 -1.421875 17.65625 -0.515625 
Q 12.796875 0.390625 7.625 2.203125 
L 7.625 11.71875 
Q 11.71875 9.328125 16.59375 8.109375 
Q 21.484375 6.890625 26.8125 6.890625 
Q 36.078125 6.890625 40.9375 10.546875 
Q 45.796875 14.203125 45.796875 21.1875 
Q 45.796875 27.640625 41.28125 31.265625 
Q 36.765625 34.90625 28.71875 34.90625 
L 20.21875 34.90625 
L 20.21875 43.015625 
L 29.109375 43.015625 
Q 36.375 43.015625 40.234375 45.921875 
Q 44.09375 48.828125 44.09375 54.296875 
Q 44.09375 59.90625 40.109375 62.90625 
Q 36.140625 65.921875 28.71875 65.921875 
Q 24.65625 65.921875 20.015625 65.03125 
Q 15.375 64.15625 9.8125 62.3125 
L 9.8125 71.09375 
Q 15.4375 72.65625 20.34375 73.4375 
Q 25.25 74.21875 29.59375 74.21875 
Q 40.828125 74.21875 47.359375 69.109375 
Q 53.90625 64.015625 53.90625 55.328125 
Q 53.90625 49.265625 50.4375 45.09375 
Q 46.96875 40.921875 40.578125 39.3125 
z
" id="DejaVuSans-51"/>
      </defs>
      <g transform="translate(243.521961 322.182437)scale(0.1 -0.1)">
       <use xlink:href="#DejaVuSans-51"/>
       <use x="63.623047" xlink:href="#DejaVuSans-48"/>
      </g>
     </g>
    </g>
    <g id="xtick_5">
     <g id="line2d_9">
      <path clip-path="url(#pd0b42a5e79)" d="M 313.979282 307.584 
L 313.979282 41.472 
" style="fill:none;stroke:#b0b0b0;stroke-linecap:square;stroke-width:0.8;"/>
     </g>
     <g id="line2d_10">
      <g>
       <use style="stroke:#000000;stroke-width:0.8;" x="313.979282" xlink:href="#m29c0e4b5df" y="307.584"/>
      </g>
     </g>
     <g id="text_5">
      <!-- 40 -->
      <defs>
       <path d="M 37.796875 64.3125 
L 12.890625 25.390625 
L 37.796875 25.390625 
z
M 35.203125 72.90625 
L 47.609375 72.90625 
L 47.609375 25.390625 
L 58.015625 25.390625 
L 58.015625 17.1875 
L 47.609375 17.1875 
L 47.609375 0 
L 37.796875 0 
L 37.796875 17.1875 
L 4.890625 17.1875 
L 4.890625 26.703125 
z
" id="DejaVuSans-52"/>
      </defs>
      <g transform="translate(307.616782 322.182437)scale(0.1 -0.1)">
       <use xlink:href="#DejaVuSans-52"/>
       <use x="63.623047" xlink:href="#DejaVuSans-48"/>
      </g>
     </g>
    </g>
    <g id="xtick_6">
     <g id="line2d_11">
      <path clip-path="url(#pd0b42a5e79)" d="M 378.074102 307.584 
L 378.074102 41.472 
" style="fill:none;stroke:#b0b0b0;stroke-linecap:square;stroke-width:0.8;"/>
     </g>
     <g id="line2d_12">
      <g>
       <use style="stroke:#000000;stroke-width:0.8;" x="378.074102" xlink:href="#m29c0e4b5df" y="307.584"/>
      </g>
     </g>
     <g id="text_6">
      <!-- 50 -->
      <defs>
       <path d="M 10.796875 72.90625 
L 49.515625 72.90625 
L 49.515625 64.59375 
L 19.828125 64.59375 
L 19.828125 46.734375 
Q 21.96875 47.46875 24.109375 47.828125 
Q 26.265625 48.1875 28.421875 48.1875 
Q 40.625 48.1875 47.75 41.5 
Q 54.890625 34.8125 54.890625 23.390625 
Q 54.890625 11.625 47.5625 5.09375 
Q 40.234375 -1.421875 26.90625 -1.421875 
Q 22.3125 -1.421875 17.546875 -0.640625 
Q 12.796875 0.140625 7.71875 1.703125 
L 7.71875 11.625 
Q 12.109375 9.234375 16.796875 8.0625 
Q 21.484375 6.890625 26.703125 6.890625 
Q 35.15625 6.890625 40.078125 11.328125 
Q 45.015625 15.765625 45.015625 23.390625 
Q 45.015625 31 40.078125 35.4375 
Q 35.15625 39.890625 26.703125 39.890625 
Q 22.75 39.890625 18.8125 39.015625 
Q 14.890625 38.140625 10.796875 36.28125 
z
" id="DejaVuSans-53"/>
      </defs>
      <g transform="translate(371.711602 322.182437)scale(0.1 -0.1)">
       <use xlink:href="#DejaVuSans-53"/>
       <use x="63.623047" xlink:href="#DejaVuSans-48"/>
      </g>
     </g>
    </g>
    <g id="text_7">
     <!-- Hours -->
     <defs>
      <path d="M 9.8125 72.90625 
L 19.671875 72.90625 
L 19.671875 43.015625 
L 55.515625 43.015625 
L 55.515625 72.90625 
L 65.375 72.90625 
L 65.375 0 
L 55.515625 0 
L 55.515625 34.71875 
L 19.671875 34.71875 
L 19.671875 0 
L 9.8125 0 
z
" id="DejaVuSans-72"/>
      <path d="M 30.609375 48.390625 
Q 23.390625 48.390625 19.1875 42.75 
Q 14.984375 37.109375 14.984375 27.296875 
Q 14.984375 17.484375 19.15625 11.84375 
Q 23.34375 6.203125 30.609375 6.203125 
Q 37.796875 6.203125 41.984375 11.859375 
Q 46.1875 17.53125 46.1875 27.296875 
Q 46.1875 37.015625 41.984375 42.703125 
Q 37.796875 48.390625 30.609375 48.390625 
z
M 30.609375 56 
Q 42.328125 56 49.015625 48.375 
Q 55.71875 40.765625 55.71875 27.296875 
Q 55.71875 13.875 49.015625 6.21875 
Q 42.328125 -1.421875 30.609375 -1.421875 
Q 18.84375 -1.421875 12.171875 6.21875 
Q 5.515625 13.875 5.515625 27.296875 
Q 5.515625 40.765625 12.171875 48.375 
Q 18.84375 56 30.609375 56 
z
" id="DejaVuSans-111"/>
      <path d="M 8.5 21.578125 
L 8.5 54.6875 
L 17.484375 54.6875 
L 17.484375 21.921875 
Q 17.484375 14.15625 20.5 10.265625 
Q 23.53125 6.390625 29.59375 6.390625 
Q 36.859375 6.390625 41.078125 11.03125 
Q 45.3125 15.671875 45.3125 23.6875 
L 45.3125 54.6875 
L 54.296875 54.6875 
L 54.296875 0 
L 45.3125 0 
L 45.3125 8.40625 
Q 42.046875 3.421875 37.71875 1 
Q 33.40625 -1.421875 27.6875 -1.421875 
Q 18.265625 -1.421875 13.375 4.4375 
Q 8.5 10.296875 8.5 21.578125 
z
M 31.109375 56 
z
" id="DejaVuSans-117"/>
      <path d="M 41.109375 46.296875 
Q 39.59375 47.171875 37.8125 47.578125 
Q 36.03125 48 33.890625 48 
Q 26.265625 48 22.1875 43.046875 
Q 18.109375 38.09375 18.109375 28.8125 
L 18.109375 0 
L 9.078125 0 
L 9.078125 54.6875 
L 18.109375 54.6875 
L 18.109375 46.1875 
Q 20.953125 51.171875 25.484375 53.578125 
Q 30.03125 56 36.53125 56 
Q 37.453125 56 38.578125 55.875 
Q 39.703125 55.765625 41.0625 55.515625 
z
" id="DejaVuSans-114"/>
      <path d="M 44.28125 53.078125 
L 44.28125 44.578125 
Q 40.484375 46.53125 36.375 47.5 
Q 32.28125 48.484375 27.875 48.484375 
Q 21.1875 48.484375 17.84375 46.4375 
Q 14.5 44.390625 14.5 40.28125 
Q 14.5 37.15625 16.890625 35.375 
Q 19.28125 33.59375 26.515625 31.984375 
L 29.59375 31.296875 
Q 39.15625 29.25 43.1875 25.515625 
Q 47.21875 21.78125 47.21875 15.09375 
Q 47.21875 7.46875 41.1875 3.015625 
Q 35.15625 -1.421875 24.609375 -1.421875 
Q 20.21875 -1.421875 15.453125 -0.5625 
Q 10.6875 0.296875 5.421875 2 
L 5.421875 11.28125 
Q 10.40625 8.6875 15.234375 7.390625 
Q 20.0625 6.109375 24.8125 6.109375 
Q 31.15625 6.109375 34.5625 8.28125 
Q 37.984375 10.453125 37.984375 14.40625 
Q 37.984375 18.0625 35.515625 20.015625 
Q 33.0625 21.96875 24.703125 23.78125 
L 21.578125 24.515625 
Q 13.234375 26.265625 9.515625 29.90625 
Q 5.8125 33.546875 5.8125 39.890625 
Q 5.8125 47.609375 11.28125 51.796875 
Q 16.75 56 26.8125 56 
Q 31.78125 56 36.171875 55.265625 
Q 40.578125 54.546875 44.28125 53.078125 
z
" id="DejaVuSans-115"/>
     </defs>
     <g transform="translate(221.511562 335.860562)scale(0.1 -0.1)">
      <use xlink:href="#DejaVuSans-72"/>
      <use x="75.195312" xlink:href="#DejaVuSans-111"/>
      <use x="136.376953" xlink:href="#DejaVuSans-117"/>
      <use x="199.755859" xlink:href="#DejaVuSans-114"/>
      <use x="240.869141" xlink:href="#DejaVuSans-115"/>
     </g>
    </g>
   </g>
   <g id="matplotlib.axis_2">
    <g id="ytick_1">
     <g id="line2d_13">
      <path clip-path="url(#pd0b42a5e79)" d="M 57.6 295.767461 
L 414.72 295.767461 
" style="fill:none;stroke:#b0b0b0;stroke-linecap:square;stroke-width:0.8;"/>
     </g>
     <g id="line2d_14">
      <defs>
       <path d="M 0 0 
L -3.5 0 
" id="m020e95e124" style="stroke:#000000;stroke-width:0.8;"/>
      </defs>
      <g>
       <use style="stroke:#000000;stroke-width:0.8;" x="57.6" xlink:href="#m020e95e124" y="295.767461"/>
      </g>
     </g>
     <g id="text_8">
      <!-- 0 -->
      <g transform="translate(44.2375 299.56668)scale(0.1 -0.1)">
       <use xlink:href="#DejaVuSans-48"/>
      </g>
     </g>
    </g>
    <g id="ytick_2">
     <g id="line2d_15">
      <path clip-path="url(#pd0b42a5e79)" d="M 57.6 264.716248 
L 414.72 264.716248 
" style="fill:none;stroke:#b0b0b0;stroke-linecap:square;stroke-width:0.8;"/>
     </g>
     <g id="line2d_16">
      <g>
       <use style="stroke:#000000;stroke-width:0.8;" x="57.6" xlink:href="#m020e95e124" y="264.716248"/>
      </g>
     </g>
     <g id="text_9">
      <!-- 5 -->
      <g transform="translate(44.2375 268.515467)scale(0.1 -0.1)">
       <use xlink:href="#DejaVuSans-53"/>
      </g>
     </g>
    </g>
    <g id="ytick_3">
     <g id="line2d_17">
      <path clip-path="url(#pd0b42a5e79)" d="M 57.6 233.665035 
L 414.72 233.665035 
" style="fill:none;stroke:#b0b0b0;stroke-linecap:square;stroke-width:0.8;"/>
     </g>
     <g id="line2d_18">
      <g>
       <use style="stroke:#000000;stroke-width:0.8;" x="57.6" xlink:href="#m020e95e124" y="233.665035"/>
      </g>
     </g>
     <g id="text_10">
      <!-- 10 -->
      <g transform="translate(37.875 237.464254)scale(0.1 -0.1)">
       <use xlink:href="#DejaVuSans-49"/>
       <use x="63.623047" xlink:href="#DejaVuSans-48"/>
      </g>
     </g>
    </g>
    <g id="ytick_4">
     <g id="line2d_19">
      <path clip-path="url(#pd0b42a5e79)" d="M 57.6 202.613822 
L 414.72 202.613822 
" style="fill:none;stroke:#b0b0b0;stroke-linecap:square;stroke-width:0.8;"/>
     </g>
     <g id="line2d_20">
      <g>
       <use style="stroke:#000000;stroke-width:0.8;" x="57.6" xlink:href="#m020e95e124" y="202.613822"/>
      </g>
     </g>
     <g id="text_11">
      <!-- 15 -->
      <g transform="translate(37.875 206.413041)scale(0.1 -0.1)">
       <use xlink:href="#DejaVuSans-49"/>
       <use x="63.623047" xlink:href="#DejaVuSans-53"/>
      </g>
     </g>
    </g>
    <g id="ytick_5">
     <g id="line2d_21">
      <path clip-path="url(#pd0b42a5e79)" d="M 57.6 171.562609 
L 414.72 171.562609 
" style="fill:none;stroke:#b0b0b0;stroke-linecap:square;stroke-width:0.8;"/>
     </g>
     <g id="line2d_22">
      <g>
       <use style="stroke:#000000;stroke-width:0.8;" x="57.6" xlink:href="#m020e95e124" y="171.562609"/>
      </g>
     </g>
     <g id="text_12">
      <!-- 20 -->
      <g transform="translate(37.875 175.361828)scale(0.1 -0.1)">
       <use xlink:href="#DejaVuSans-50"/>
       <use x="63.623047" xlink:href="#DejaVuSans-48"/>
      </g>
     </g>
    </g>
    <g id="ytick_6">
     <g id="line2d_23">
      <path clip-path="url(#pd0b42a5e79)" d="M 57.6 140.511396 
L 414.72 140.511396 
" style="fill:none;stroke:#b0b0b0;stroke-linecap:square;stroke-width:0.8;"/>
     </g>
     <g id="line2d_24">
      <g>
       <use style="stroke:#000000;stroke-width:0.8;" x="57.6" xlink:href="#m020e95e124" y="140.511396"/>
      </g>
     </g>
     <g id="text_13">
      <!-- 25 -->
      <g transform="translate(37.875 144.310615)scale(0.1 -0.1)">
       <use xlink:href="#DejaVuSans-50"/>
       <use x="63.623047" xlink:href="#DejaVuSans-53"/>
      </g>
     </g>
    </g>
    <g id="ytick_7">
     <g id="line2d_25">
      <path clip-path="url(#pd0b42a5e79)" d="M 57.6 109.460183 
L 414.72 109.460183 
" style="fill:none;stroke:#b0b0b0;stroke-linecap:square;stroke-width:0.8;"/>
     </g>
     <g id="line2d_26">
      <g>
       <use style="stroke:#000000;stroke-width:0.8;" x="57.6" xlink:href="#m020e95e124" y="109.460183"/>
      </g>
     </g>
     <g id="text_14">
      <!-- 30 -->
      <g transform="translate(37.875 113.259402)scale(0.1 -0.1)">
       <use xlink:href="#DejaVuSans-51"/>
       <use x="63.623047" xlink:href="#DejaVuSans-48"/>
      </g>
     </g>
    </g>
    <g id="ytick_8">
     <g id="line2d_27">
      <path clip-path="url(#pd0b42a5e79)" d="M 57.6 78.40897 
L 414.72 78.40897 
" style="fill:none;stroke:#b0b0b0;stroke-linecap:square;stroke-width:0.8;"/>
     </g>
     <g id="line2d_28">
      <g>
       <use style="stroke:#000000;stroke-width:0.8;" x="57.6" xlink:href="#m020e95e124" y="78.40897"/>
      </g>
     </g>
     <g id="text_15">
      <!-- 35 -->
      <g transform="translate(37.875 82.208189)scale(0.1 -0.1)">
       <use xlink:href="#DejaVuSans-51"/>
       <use x="63.623047" xlink:href="#DejaVuSans-53"/>
      </g>
     </g>
    </g>
    <g id="ytick_9">
     <g id="line2d_29">
      <path clip-path="url(#pd0b42a5e79)" d="M 57.6 47.357757 
L 414.72 47.357757 
" style="fill:none;stroke:#b0b0b0;stroke-linecap:square;stroke-width:0.8;"/>
     </g>
     <g id="line2d_30">
      <g>
       <use style="stroke:#000000;stroke-width:0.8;" x="57.6" xlink:href="#m020e95e124" y="47.357757"/>
      </g>
     </g>
     <g id="text_16">
      <!-- 40 -->
      <g transform="translate(37.875 51.156976)scale(0.1 -0.1)">
       <use xlink:href="#DejaVuSans-52"/>
       <use x="63.623047" xlink:href="#DejaVuSans-48"/>
      </g>
     </g>
    </g>
    <g id="text_17">
     <!-- Train reward -->
     <defs>
      <path d="M -0.296875 72.90625 
L 61.375 72.90625 
L 61.375 64.59375 
L 35.5 64.59375 
L 35.5 0 
L 25.59375 0 
L 25.59375 64.59375 
L -0.296875 64.59375 
z
" id="DejaVuSans-84"/>
      <path d="M 34.28125 27.484375 
Q 23.390625 27.484375 19.1875 25 
Q 14.984375 22.515625 14.984375 16.5 
Q 14.984375 11.71875 18.140625 8.90625 
Q 21.296875 6.109375 26.703125 6.109375 
Q 34.1875 6.109375 38.703125 11.40625 
Q 43.21875 16.703125 43.21875 25.484375 
L 43.21875 27.484375 
z
M 52.203125 31.203125 
L 52.203125 0 
L 43.21875 0 
L 43.21875 8.296875 
Q 40.140625 3.328125 35.546875 0.953125 
Q 30.953125 -1.421875 24.3125 -1.421875 
Q 15.921875 -1.421875 10.953125 3.296875 
Q 6 8.015625 6 15.921875 
Q 6 25.140625 12.171875 29.828125 
Q 18.359375 34.515625 30.609375 34.515625 
L 43.21875 34.515625 
L 43.21875 35.40625 
Q 43.21875 41.609375 39.140625 45 
Q 35.0625 48.390625 27.6875 48.390625 
Q 23 48.390625 18.546875 47.265625 
Q 14.109375 46.140625 10.015625 43.890625 
L 10.015625 52.203125 
Q 14.9375 54.109375 19.578125 55.046875 
Q 24.21875 56 28.609375 56 
Q 40.484375 56 46.34375 49.84375 
Q 52.203125 43.703125 52.203125 31.203125 
z
" id="DejaVuSans-97"/>
      <path d="M 9.421875 54.6875 
L 18.40625 54.6875 
L 18.40625 0 
L 9.421875 0 
z
M 9.421875 75.984375 
L 18.40625 75.984375 
L 18.40625 64.59375 
L 9.421875 64.59375 
z
" id="DejaVuSans-105"/>
      <path d="M 54.890625 33.015625 
L 54.890625 0 
L 45.90625 0 
L 45.90625 32.71875 
Q 45.90625 40.484375 42.875 44.328125 
Q 39.84375 48.1875 33.796875 48.1875 
Q 26.515625 48.1875 22.3125 43.546875 
Q 18.109375 38.921875 18.109375 30.90625 
L 18.109375 0 
L 9.078125 0 
L 9.078125 54.6875 
L 18.109375 54.6875 
L 18.109375 46.1875 
Q 21.34375 51.125 25.703125 53.5625 
Q 30.078125 56 35.796875 56 
Q 45.21875 56 50.046875 50.171875 
Q 54.890625 44.34375 54.890625 33.015625 
z
" id="DejaVuSans-110"/>
      <path id="DejaVuSans-32"/>
      <path d="M 56.203125 29.59375 
L 56.203125 25.203125 
L 14.890625 25.203125 
Q 15.484375 15.921875 20.484375 11.0625 
Q 25.484375 6.203125 34.421875 6.203125 
Q 39.59375 6.203125 44.453125 7.46875 
Q 49.3125 8.734375 54.109375 11.28125 
L 54.109375 2.78125 
Q 49.265625 0.734375 44.1875 -0.34375 
Q 39.109375 -1.421875 33.890625 -1.421875 
Q 20.796875 -1.421875 13.15625 6.1875 
Q 5.515625 13.8125 5.515625 26.8125 
Q 5.515625 40.234375 12.765625 48.109375 
Q 20.015625 56 32.328125 56 
Q 43.359375 56 49.78125 48.890625 
Q 56.203125 41.796875 56.203125 29.59375 
z
M 47.21875 32.234375 
Q 47.125 39.59375 43.09375 43.984375 
Q 39.0625 48.390625 32.421875 48.390625 
Q 24.90625 48.390625 20.390625 44.140625 
Q 15.875 39.890625 15.1875 32.171875 
z
" id="DejaVuSans-101"/>
      <path d="M 4.203125 54.6875 
L 13.1875 54.6875 
L 24.421875 12.015625 
L 35.59375 54.6875 
L 46.1875 54.6875 
L 57.421875 12.015625 
L 68.609375 54.6875 
L 77.59375 54.6875 
L 63.28125 0 
L 52.6875 0 
L 40.921875 44.828125 
L 29.109375 0 
L 18.5 0 
z
" id="DejaVuSans-119"/>
      <path d="M 45.40625 46.390625 
L 45.40625 75.984375 
L 54.390625 75.984375 
L 54.390625 0 
L 45.40625 0 
L 45.40625 8.203125 
Q 42.578125 3.328125 38.25 0.953125 
Q 33.9375 -1.421875 27.875 -1.421875 
Q 17.96875 -1.421875 11.734375 6.484375 
Q 5.515625 14.40625 5.515625 27.296875 
Q 5.515625 40.1875 11.734375 48.09375 
Q 17.96875 56 27.875 56 
Q 33.9375 56 38.25 53.625 
Q 42.578125 51.265625 45.40625 46.390625 
z
M 14.796875 27.296875 
Q 14.796875 17.390625 18.875 11.75 
Q 22.953125 6.109375 30.078125 6.109375 
Q 37.203125 6.109375 41.296875 11.75 
Q 45.40625 17.390625 45.40625 27.296875 
Q 45.40625 37.203125 41.296875 42.84375 
Q 37.203125 48.484375 30.078125 48.484375 
Q 22.953125 48.484375 18.875 42.84375 
Q 14.796875 37.203125 14.796875 27.296875 
z
" id="DejaVuSans-100"/>
     </defs>
     <g transform="translate(31.795312 206.349875)rotate(-90)scale(0.1 -0.1)">
      <use xlink:href="#DejaVuSans-84"/>
      <use x="60.865234" xlink:href="#DejaVuSans-114"/>
      <use x="101.978516" xlink:href="#DejaVuSans-97"/>
      <use x="163.257812" xlink:href="#DejaVuSans-105"/>
      <use x="191.041016" xlink:href="#DejaVuSans-110"/>
      <use x="254.419922" xlink:href="#DejaVuSans-32"/>
      <use x="286.207031" xlink:href="#DejaVuSans-114"/>
      <use x="327.289062" xlink:href="#DejaVuSans-101"/>
      <use x="388.8125" xlink:href="#DejaVuSans-119"/>
      <use x="470.599609" xlink:href="#DejaVuSans-97"/>
      <use x="531.878906" xlink:href="#DejaVuSans-114"/>
      <use x="572.976562" xlink:href="#DejaVuSans-100"/>
     </g>
    </g>
   </g>
   <g id="line2d_31">
    <path clip-path="url(#pd0b42a5e79)" d="M 57.6 293.95614 
L 57.719697 293.593876 
L 57.848995 295.249941 
L 57.916738 293.904388 
L 58.011128 294.266652 
L 58.155191 295.353445 
L 58.211839 294.328755 
L 58.232421 294.608216 
L 58.356527 294.45296 
L 58.442431 293.17986 
L 58.50956 294.421908 
L 58.5605 293.490372 
L 58.616337 293.69738 
L 58.682105 294.680668 
L 58.714143 293.262663 
L 58.724439 295.488 
L 58.804121 294.007892 
L 58.859554 295.456949 
L 58.89521 291.989563 
L 58.968351 294.007892 
L 59.03381 293.386868 
L 59.137333 293.614577 
L 59.204769 294.835925 
L 59.282716 294.73242 
L 59.292893 293.593876 
L 59.411738 294.535763 
L 59.438817 291.90676 
L 59.509707 294.877326 
L 59.520555 293.883687 
L 59.568683 292.403579 
L 59.696242 294.866976 
L 59.749759 294.163148 
L 59.842147 294.639267 
L 59.867244 293.904388 
L 59.927126 294.608216 
L 60.197758 294.059644 
L 60.203827 291.109779 
L 60.323041 295.22924 
L 60.345925 291.937811 
L 60.447243 292.848647 
L 60.463542 292.041315 
L 60.476301 290.644011 
L 60.543394 292.610588 
L 60.642379 294.691019 
L 60.662301 293.283364 
L 60.789553 292.455331 
L 60.805948 295.405197 
L 60.911139 294.628916 
L 60.926985 294.835925 
L 60.963929 292.041315 
L 60.999433 294.266652 
L 61.09456 294.939429 
L 61.244454 290.261046 
L 61.282656 293.780183 
L 61.350662 292.9211 
L 61.474167 291.265035 
L 61.486399 292.558836 
L 61.610076 294.421908 
L 61.750606 290.799267 
L 61.824873 293.593876 
L 61.885921 293.490372 
L 61.915531 290.281747 
L 62.088459 289.453714 
L 62.142974 294.939429 
L 62.19026 293.645628 
L 62.250536 291.627299 
L 62.28151 294.421908 
L 62.368709 293.966491 
L 62.429549 292.972852 
L 62.461595 293.635278 
L 62.46768 294.577164 
L 62.486068 291.068377 
L 62.561024 293.034954 
L 62.609947 294.680668 
L 62.677435 291.565197 
L 62.717927 294.007892 
L 62.729128 291.213283 
L 62.878599 294.649617 
L 62.901491 292.869348 
L 63.123012 292.351827 
L 63.205317 294.266652 
L 63.253203 293.43862 
L 63.364018 294.763472 
L 63.383401 294.421908 
L 63.419034 292.15517 
L 63.439099 292.910749 
L 63.532593 292.351827 
L 63.596052 294.47366 
L 63.617631 292.714092 
L 63.678101 293.17986 
L 63.73501 291.730803 
L 63.796064 292.714092 
L 63.850621 291.91711 
L 63.879177 293.593876 
L 64.028229 291.09795 
L 64.090092 294.421908 
L 64.162554 293.17986 
L 64.250403 294.835925 
L 64.294069 291.316787 
L 64.490466 293.904388 
L 64.572689 290.799267 
L 64.716736 294.421908 
L 64.786965 291.627299 
L 64.81434 292.041315 
L 64.919131 291.420291 
L 65.081725 291.554846 
L 65.128218 289.722825 
L 65.12314 292.351827 
L 65.133843 291.420291 
L 65.260061 291.679051 
L 65.338894 289.764227 
L 65.353382 290.88207 
L 65.439334 293.800884 
L 65.717157 290.488755 
L 65.792444 293.283364 
L 65.822095 289.867731 
L 65.840879 292.558836 
L 66.001042 287.073121 
L 66.040708 291.627299 
L 66.141023 290.902771 
L 66.267242 289.764227 
L 66.289456 290.540507 
L 66.364827 292.972852 
L 66.44098 289.246707 
L 66.447104 292.817596 
L 66.610076 289.557218 
L 66.870532 290.592259 
L 66.93427 288.004658 
L 67.246311 285.624065 
L 67.266262 287.176625 
L 67.31075 284.175008 
L 67.391135 287.694146 
L 67.631637 287.694146 
L 67.638648 289.557218 
L 67.749634 287.694146 
L 67.861627 290.799267 
L 67.986094 285.727569 
L 68.051999 282.001423 
L 68.215468 281.173391 
L 68.241859 287.073121 
L 68.267297 284.278512 
L 68.561986 281.276895 
L 68.763796 285.365305 
L 68.77324 282.725952 
L 68.887511 287.383633 
L 68.973986 270.305467 
L 69.032239 282.104927 
L 69.127609 281.794415 
L 69.215924 280.862878 
L 69.314641 282.725952 
L 69.412482 278.999806 
L 69.535089 285.106544 
L 69.601094 277.757757 
L 69.663548 287.073121 
L 69.712262 278.689294 
L 69.805766 284.175008 
L 69.859069 280.241854 
L 69.98169 282.001423 
L 70.2005 270.305467 
L 70.295318 283.243472 
L 70.492913 277.550749 
L 70.549005 277.757757 
L 70.581821 281.794415 
L 70.794862 277.136733 
L 71.039325 280.862878 
L 71.116846 271.961532 
L 71.255517 278.689294 
L 71.26613 271.237002 
L 71.56588 278.482286 
L 71.730064 271.858028 
L 71.845604 274.549132 
L 71.97513 272.789563 
L 71.985592 274.23862 
L 72.137143 274.342124 
L 72.255182 272.479051 
L 72.47069 273.410588 
L 72.614763 262.853174 
L 72.66187 287.073121 
L 72.920636 270.615977 
L 73.015369 271.547514 
L 73.089634 269.580938 
L 73.349646 274.445628 
L 73.392572 267.510856 
L 73.522044 271.237002 
L 73.529489 263.784711 
L 73.543309 276.826221 
L 74.180959 277.136733 
L 74.278085 277.447245 
L 74.649333 260.058566 
L 74.67757 262.956679 
L 74.744427 276.515709 
L 74.832957 273.7211 
L 74.906041 266.372314 
L 74.963518 266.579322 
L 75.036313 269.994954 
L 75.351453 263.784711 
L 75.404012 271.029995 
L 75.650052 270.305467 
L 75.680319 272.789563 
L 75.964835 269.063417 
L 76.046152 274.031612 
L 76.35174 257.263958 
L 76.585346 286.762609 
L 76.722745 258.195492 
L 76.890962 263.784711 
L 77.294166 267.821369 
L 77.585301 260.369079 
L 77.665606 270.926491 
L 77.723112 265.958295 
L 77.887948 255.090371 
L 78.065641 273.100075 
L 78.123671 263.474201 
L 78.454497 259.127029 
L 78.542996 270.926491 
L 79.187354 267.510856 
L 79.258523 261.197111 
L 79.27091 261.300613 
L 79.384417 277.757757 
L 79.407228 274.859645 
L 79.531978 259.127029 
L 79.85484 265.54428 
L 79.953453 252.916786 
L 80.054593 267.821369 
L 80.359661 261.92164 
L 80.385322 263.267193 
L 80.450477 277.654253 
L 80.462856 264.095224 
L 80.596973 243.601426 
L 80.639997 263.163687 
L 80.859572 265.026761 
L 80.943058 263.267193 
L 81.354565 247.638081 
L 81.441639 273.307084 
L 81.505633 260.990103 
L 81.596626 271.547514 
L 81.669878 270.305467 
L 81.762548 263.629454 
L 81.834036 267.510856 
L 81.865559 253.53781 
L 81.911778 266.268809 
L 82.089631 271.237002 
L 82.172389 247.948594 
L 82.283452 272.582555 
L 82.849486 251.674739 
L 83.168123 254.469347 
L 83.448225 266.889832 
L 83.602915 250.743202 
L 83.856397 256.642931 
L 83.910542 256.021908 
L 84.348763 265.026761 
L 84.597596 260.369079 
L 84.870821 266.268809 
L 85.389278 258.195492 
L 85.95701 259.127029 
L 85.980616 241.427838 
L 86.05179 243.601426 
L 86.342939 250.432689 
L 86.483069 251.053715 
L 86.773724 255.090371 
L 86.964408 275.894684 
L 87.012977 262.23215 
L 87.375813 247.638081 
L 87.645851 254.469347 
L 87.842376 238.63323 
L 87.941995 259.437542 
L 88.013504 239.564764 
L 88.177131 249.190642 
L 88.996968 263.474201 
L 89.008829 256.642931 
L 89.382223 238.943744 
L 89.577196 259.127029 
L 89.622246 259.748053 
L 90.026667 257.263958 
L 90.383664 229.938887 
L 90.536072 267.200346 
L 90.607368 238.63323 
L 90.979653 255.711397 
L 91.170931 251.364226 
L 91.306911 270.512475 
L 91.601661 256.642931 
L 91.966212 247.327568 
L 92.041579 248.569618 
L 92.485766 245.153986 
L 92.499089 245.775007 
L 92.510051 279.310317 
L 92.673228 241.841854 
L 92.781511 265.026761 
L 93.005261 253.53781 
L 93.590099 258.195492 
L 93.774728 258.195492 
L 93.830354 268.752906 
L 94.10026 233.044008 
L 94.272222 253.53781 
L 94.65094 240.806812 
L 95.347416 260.990103 
L 95.404158 240.806812 
L 95.568196 229.938887 
L 96.14955 253.53781 
L 96.416025 252.295763 
L 96.968028 236.770156 
L 97.36567 241.117325 
L 97.502919 247.638081 
L 97.7073 243.601426 
L 97.995295 256.021908 
L 98.005763 264.095224 
L 98.093505 258.195492 
L 98.449308 232.733501 
L 99.277565 250.122178 
L 99.340168 248.880128 
L 99.354517 261.92164 
L 99.614498 229.317866 
L 100.031315 267.821369 
L 100.122421 245.464494 
L 100.554967 263.163687 
L 100.573232 271.237002 
L 100.684845 235.838622 
L 100.745957 268.752906 
L 100.767193 219.381476 
L 101.862152 247.327568 
L 102.283835 267.200346 
L 102.305526 220.313016 
L 102.567631 223.418137 
L 102.585419 242.980399 
L 102.821076 225.281205 
L 102.928144 227.454792 
L 103.30572 261.611127 
L 103.96097 221.24455 
L 104.072211 248.569618 
L 104.138296 218.449942 
L 104.522356 210.997652 
L 105.242127 245.153986 
L 105.914356 219.381476 
L 106.19733 258.920021 
L 106.223947 238.840235 
L 106.332593 252.295763 
L 106.994256 218.139429 
L 107.337264 253.848323 
L 107.434804 228.69684 
L 107.514075 242.980399 
L 107.64325 207.582017 
L 107.810602 225.902232 
L 107.877337 250.432689 
L 108.27054 235.528109 
L 108.380093 224.970698 
L 108.660924 237.391183 
L 108.801404 261.611127 
L 108.82701 215.344821 
L 109.178007 235.217596 
L 109.756159 200.440235 
L 109.899657 253.848323 
L 109.994666 225.281205 
L 110.528105 268.442393 
L 111.024656 269.37393 
L 111.870753 250.432689 
L 112.533264 195.472046 
L 112.549575 252.606276 
L 112.826002 215.758836 
L 112.842324 255.711397 
L 113.095019 194.540511 
L 113.289827 265.337272 
L 113.491482 266.579322 
L 113.531912 188.951284 
L 114.210757 213.171233 
L 114.688085 216.276355 
L 114.971956 204.476896 
L 115.043873 236.770156 
L 115.347953 195.161526 
L 115.445135 222.486597 
L 116.397291 249.501155 
L 116.561085 226.212745 
L 116.886865 206.33997 
L 116.996535 219.070963 
L 117.073243 241.117325 
L 117.110684 236.14913 
L 117.184283 237.494685 
L 118.014932 223.728645 
L 118.232639 203.545356 
L 118.543796 264.405735 
L 118.735791 216.276355 
L 119.053382 243.290912 
L 119.610396 219.691989 
L 119.696107 228.386326 
L 119.895485 232.422988 
L 120.260432 258.816519 
L 120.478381 205.40843 
L 120.738725 259.127029 
L 120.907121 257.263958 
L 121.238307 212.550213 
L 121.759148 218.139429 
L 122.55728 228.386326 
L 122.669546 181.499 
L 122.776672 228.386326 
L 122.95547 181.499 
L 123.186909 235.528109 
L 123.994067 218.760455 
L 124.228414 222.072581 
L 125.261393 214.102773 
L 125.428416 172.804662 
L 125.664915 180.877973 
L 125.955516 216.897381 
L 126.261335 180.567466 
L 126.576246 196.093072 
L 126.654753 223.107624 
L 126.948212 198.266653 
L 127.253644 244.843473 
L 127.5492 181.706005 
L 127.671048 221.24455 
L 127.908593 215.034307 
L 128.477106 245.464494 
L 128.571504 210.066112 
L 129.006684 223.728645 
L 129.169057 193.298458 
L 129.268044 202.613822 
L 129.465146 233.044008 
L 130.294492 207.789022 
L 130.410646 163.799806 
L 130.922816 248.880128 
L 131.030942 176.530799 
L 131.753151 210.066112 
L 132.278675 224.970698 
L 132.509574 244.222446 
L 133.196097 186.467189 
L 133.21965 223.728645 
L 133.54059 182.741041 
L 133.551971 215.344821 
L 134.399009 184.914628 
L 134.638908 157.900071 
L 134.733218 223.728645 
L 134.840661 215.344821 
L 134.956409 231.801961 
L 135.139273 182.430534 
L 136.054362 239.254251 
L 136.594716 214.723794 
L 136.611056 216.897381 
L 136.938213 238.63323 
L 137.315958 222.486597 
L 138.623149 231.18094 
L 138.972814 241.427838 
L 139.150213 189.261803 
L 140.203124 229.317866 
L 140.352138 220.002503 
L 140.584001 195.161526 
L 140.668221 164.110313 
L 140.731896 183.983094 
L 141.052087 206.33997 
L 141.209848 155.105469 
L 141.31019 200.336732 
L 141.826061 215.034307 
L 142.257934 223.107624 
L 142.487406 224.349671 
L 142.97945 177.772852 
L 143.414728 211.618673 
L 144.076328 223.418137 
L 144.178567 234.286062 
L 144.399749 167.215435 
L 145.081948 206.960991 
L 145.318668 192.677432 
L 145.611714 217.518402 
L 145.722938 197.95614 
L 146.177744 137.716782 
L 146.355779 209.755599 
L 146.494188 164.420833 
L 147.144503 189.57231 
L 148.139807 174.66773 
L 148.372845 187.088216 
L 148.801706 174.046704 
L 150.315602 141.753449 
L 150.422837 204.787409 
L 150.886941 218.139429 
L 151.508317 175.909784 
L 151.954261 167.836461 
L 152.402999 228.075819 
L 152.638669 214.413281 
L 153.374072 235.838622 
L 153.766147 199.198188 
L 154.235021 197.645627 
L 155.333286 174.66773 
L 155.593821 203.855869 
L 156.411194 161.936738 
L 156.642559 215.655334 
L 157.03472 197.645627 
L 157.251421 175.288757 
L 157.339034 220.002503 
L 158.068995 188.330269 
L 158.155918 150.137268 
L 158.869477 221.24455 
L 159.017689 206.960991 
L 159.104979 166.904927 
L 159.585768 119.396574 
L 159.816231 233.044008 
L 161.636016 126.848858 
L 162.648234 168.87151 
L 162.986614 148.274199 
L 163.014731 189.88283 
L 163.143052 192.987951 
L 163.698056 124.364763 
L 167.538496 164.73134 
L 168.521474 127.469884 
L 168.633997 145.479586 
L 169.338685 163.489299 
L 169.361944 196.714093 
L 169.558038 189.57231 
L 169.756685 190.814364 
L 169.84272 180.567466 
L 169.950777 195.161526 
L 171.460924 154.794949 
L 171.968863 213.171233 
L 172.198578 194.540511 
L 172.526858 219.381476 
L 173.925805 138.027302 
L 174.109265 174.978238 
L 174.135913 250.743202 
L 174.776276 159.763151 
L 175.249524 61.020296 
L 176.332827 168.457488 
L 176.666616 142.995491 
L 176.882452 215.655334 
L 177.501254 190.814364 
L 177.612934 205.718943 
L 178.115817 190.193337 
L 178.358982 148.584707 
L 178.679172 216.276355 
L 178.964985 233.354522 
L 179.311187 183.362068 
L 179.846802 206.753986 
L 180.274415 211.308159 
L 180.506956 101.69738 
L 181.127487 203.855869 
L 182.174237 114.428373 
L 182.565975 208.824065 
L 183.025451 189.57231 
L 183.253132 190.814364 
L 183.26893 261.300613 
L 184.568645 237.08067 
L 184.66216 239.254251 
L 184.80579 185.846162 
L 185.19666 191.43539 
L 185.590718 169.699541 
L 187.366858 178.083359 
L 188.022672 186.777708 
L 188.263727 179.63592 
L 188.397767 197.024606 
L 188.846672 217.518402 
L 189.017914 177.772852 
L 189.995171 242.980399 
L 190.128283 167.215435 
L 191.646305 166.59442 
L 191.659589 223.728645 
L 192.292124 173.11517 
L 192.520315 141.753449 
L 193.035421 202.613822 
L 193.143125 197.024606 
L 193.266823 157.900071 
L 194.099647 152.000347 
L 194.208016 209.445091 
L 195.085376 185.846162 
L 195.21009 171.252102 
L 195.893282 143.616518 
L 196.150549 150.137268 
L 196.273612 215.034307 
L 196.39304 193.298458 
L 197.166406 210.997652 
L 198.131705 203.234849 
L 199.221442 139.579862 
L 199.70991 208.824065 
L 200.261793 230.559914 
L 201.018005 133.990646 
L 201.229479 216.897381 
L 201.705838 150.447787 
L 201.863335 167.836461 
L 201.964365 202.613822 
L 202.672045 200.750748 
L 205.247537 242.359372 
L 205.607 85.240228 
L 205.937252 195.782553 
L 206.384986 210.066112 
L 207.132725 195.472046 
L 207.503224 241.738352 
L 208.00929 175.288757 
L 208.344851 167.836461 
L 208.460577 128.090911 
L 209.017315 235.528109 
L 209.23019 152.310855 
L 209.252926 176.841318 
L 209.388916 216.276355 
L 209.630278 116.291453 
L 209.710264 209.445091 
L 209.730056 176.530799 
L 210.082442 233.354522 
L 210.406809 111.323251 
L 210.557434 178.083359 
L 210.653314 233.975548 
L 210.9818 155.415976 
L 211.441752 183.05156 
L 211.914058 123.743737 
L 212.275422 249.190642 
L 213.930741 180.670968 
L 214.051757 231.18094 
L 214.46346 175.909784 
L 214.958117 162.868272 
L 215.992723 189.57231 
L 218.621237 243.290912 
L 218.7615 159.763151 
L 219.895387 99.523793 
L 220.121505 227.454792 
L 220.202894 187.398723 
L 221.879056 173.425677 
L 223.742652 170.941583 
L 223.959763 108.839157 
L 224.714158 193.298458 
L 225.292792 142.063957 
L 225.86545 179.63592 
L 225.965461 196.093072 
L 226.099216 170.320556 
L 226.290078 194.540511 
L 226.319126 134.92218 
L 227.234429 189.57231 
L 227.77978 184.604121 
L 229.401632 188.123252 
L 229.708584 208.513551 
L 229.917351 172.183636 
L 230.379068 173.425677 
L 231.254758 173.11517 
L 231.386301 212.86072 
L 231.508063 108.839157 
L 231.967078 188.951284 
L 233.035326 207.582017 
L 234.405173 189.88283 
L 234.96984 187.709242 
L 235.336115 222.486597 
L 235.424874 190.503844 
L 235.847747 168.14698 
L 237.906481 142.374464 
L 238.025611 131.50654 
L 238.513816 187.398723 
L 238.690044 192.987951 
L 240.340164 253.53781 
L 240.583505 168.767995 
L 241.688419 220.623523 
L 241.928043 208.203038 
L 243.349082 256.021908 
L 243.989188 205.718943 
L 245.807869 198.887674 
L 246.056638 243.290912 
L 246.077342 166.283901 
L 246.317022 115.359918 
L 246.487126 111.944278 
L 246.591998 220.623523 
L 246.848668 185.846162 
L 248.146676 224.970698 
L 248.419314 146.411131 
L 250.488918 180.877973 
L 251.584688 179.946439 
L 253.318253 216.897381 
L 254.021091 187.709242 
L 255.085675 154.484442 
L 255.109883 168.14698 
L 256.14922 200.440235 
L 256.364895 162.247245 
L 257.037451 231.18094 
L 257.069058 155.105469 
L 257.346641 179.014905 
L 258.709339 205.718943 
L 259.054835 142.063957 
L 260.155129 99.523793 
L 260.549282 165.352367 
L 260.665269 138.958836 
L 260.868789 192.677432 
L 262.006911 211.722175 
L 262.394918 176.220291 
L 264.693719 217.518402 
L 264.976113 144.858571 
L 265.346662 187.088216 
L 267.532315 162.247245 
L 268.364753 107.907623 
L 269.124199 216.897381 
L 269.40218 145.790105 
L 269.91479 141.44293 
L 270.409927 141.753449 
L 271.1728 118.154521 
L 271.299726 225.591718 
L 272.637538 128.401418 
L 273.407174 130.885525 
L 273.840904 197.335114 
L 274.664427 191.124871 
L 275.257443 111.323251 
L 275.654875 200.750748 
L 275.864546 132.127566 
L 276.096388 166.904927 
L 276.946057 202.613822 
L 277.075071 220.623523 
L 277.591314 140.511396 
L 278.470671 197.024606 
L 278.844877 254.469347 
L 279.613332 128.711938 
L 281.554262 212.136197 
L 281.884165 145.479586 
L 283.156512 142.374464 
L 283.975344 179.325412 
L 284.169438 124.98579 
L 284.533093 72.509235 
L 284.664258 154.794949 
L 285.58575 179.325412 
L 285.847372 192.987951 
L 288.819591 166.283901 
L 289.331584 208.824065 
L 289.587052 113.807358 
L 289.924058 162.247245 
L 291.346009 190.193337 
L 292.398479 184.604121 
L 293.002786 142.063957 
L 293.555089 216.586868 
L 294.494933 217.207895 
L 294.647301 166.59442 
L 295.302035 115.670426 
L 296.032444 208.513551 
L 296.15304 177.151825 
L 297.119689 205.718943 
L 297.227391 160.384177 
L 298.70581 87.724334 
L 298.991905 162.868272 
L 300.772573 152.931881 
L 301.850841 197.335114 
L 303.463907 205.097917 
L 303.728645 169.078515 
L 304.511 157.589563 
L 305.291727 187.088216 
L 306.189342 146.411131 
L 306.32387 232.112474 
L 306.436621 165.973393 
L 306.713176 147.963692 
L 306.847331 126.227843 
L 307.709863 240.806812 
L 308.654603 166.59442 
L 308.695233 147.963692 
L 309.611263 142.684984 
L 309.989229 118.775547 
L 310.103092 206.650477 
L 311.718563 105.734035 
L 312.173164 179.014905 
L 312.31472 181.809507 
L 312.432533 108.21813 
L 314.450533 207.271504 
L 315.986871 180.877973 
L 317.636268 206.960991 
L 318.097766 173.425677 
L 318.351726 224.970698 
L 318.811394 74.061796 
L 319.496556 83.066652 
L 319.643796 168.457488 
L 319.911548 185.846162 
L 320.173407 243.601426 
L 321.355714 223.107624 
L 321.796198 242.669886 
L 322.045045 194.540511 
L 323.407934 209.600345 
L 323.552588 174.66773 
L 323.966182 144.444549 
L 324.393615 254.158837 
L 325.036488 159.142124 
L 325.833045 146.721639 
L 326.033866 138.441311 
L 326.899697 118.154521 
L 327.425052 203.234849 
L 327.626197 127.469884 
L 328.300164 123.743737 
L 328.468491 180.877973 
L 328.641365 156.658029 
L 329.482961 210.687139 
L 329.931923 209.445091 
L 330.340543 159.142124 
L 331.807487 92.071509 
L 333.717445 79.340516 
L 335.438812 197.335114 
L 335.969741 105.734035 
L 336.572231 234.907082 
L 336.849277 183.362068 
L 338.866196 134.301154 
L 340.163477 97.039698 
L 340.187904 174.66773 
L 340.529485 103.870967 
L 341.080869 179.014905 
L 341.101596 173.736196 
L 341.793386 172.183636 
L 343.361228 142.995491 
L 343.923666 223.728645 
L 344.347252 169.699541 
L 344.81439 193.919485 
L 345.595974 121.259642 
L 347.033025 94.555592 
L 347.667389 231.18094 
L 349.843283 204.476896 
L 351.844626 175.909784 
L 352.401989 202.303309 
L 352.804196 199.508701 
L 352.97927 260.990103 
L 353.800481 222.486597 
L 356.632642 162.247245 
L 358.854487 120.638615 
L 360.4701 201.682288 
L 361.109708 168.457488 
L 361.930182 152.621374 
L 364.49086 115.670426 
L 366.998698 204.166383 
L 368.162859 179.014905 
L 370.201207 163.799806 
L 370.397823 191.745898 
L 371.146651 201.992795 
L 371.671485 232.733501 
L 372.477135 159.452631 
L 372.736607 203.855869 
L 373.690684 139.269343 
L 374.138119 80.893077 
L 374.875753 236.14913 
L 375.380583 182.741041 
L 376.219095 173.425677 
L 376.339592 231.491448 
L 377.753591 149.205733 
L 377.791274 125.296297 
L 378.003091 193.919485 
L 379.446831 151.689828 
L 380.034884 164.73134 
L 383.914179 211.929186 
L 384.954288 192.677432 
L 386.686477 154.173935 
L 387.076546 166.59442 
L 387.426622 191.745898 
L 387.75798 170.631075 
L 387.955869 123.743737 
L 388.467214 195.472046 
L 389.072913 171.562609 
L 389.945712 53.568 
L 390.096605 97.039698 
L 391.213181 148.584707 
L 391.43842 223.107624 
L 394.323051 238.63323 
L 395.298156 237.391183 
L 399.302057 159.452631 
L 400.184968 176.841318 
L 401.163768 212.550213 
L 401.477944 167.525954 
L 402.003941 218.760455 
L 402.62789 198.887674 
L 402.985481 88.345349 
L 403.966248 198.266653 
L 404.188252 205.718943 
L 404.738696 215.655334 
L 405.148581 205.40843 
L 405.467533 90.829456 
L 406.409048 213.79226 
L 406.86318 211.308159 
L 407.326197 115.049399 
L 408.771141 108.528649 
L 409.441114 221.24455 
L 412.638919 162.247245 
L 413.661885 96.418683 
L 414.72 182.741041 
L 414.72 182.741041 
" style="fill:none;stroke:#000000;stroke-linecap:square;stroke-width:0.8;"/>
   </g>
   <g id="patch_3">
    <path d="M 57.6 307.584 
L 57.6 41.472 
" style="fill:none;stroke:#000000;stroke-linecap:square;stroke-linejoin:miter;stroke-width:0.8;"/>
   </g>
   <g id="patch_4">
    <path d="M 414.72 307.584 
L 414.72 41.472 
" style="fill:none;stroke:#000000;stroke-linecap:square;stroke-linejoin:miter;stroke-width:0.8;"/>
   </g>
   <g id="patch_5">
    <path d="M 57.6 307.584 
L 414.72 307.584 
" style="fill:none;stroke:#000000;stroke-linecap:square;stroke-linejoin:miter;stroke-width:0.8;"/>
   </g>
   <g id="patch_6">
    <path d="M 57.6 41.472 
L 414.72 41.472 
" style="fill:none;stroke:#000000;stroke-linecap:square;stroke-linejoin:miter;stroke-width:0.8;"/>
   </g>
  </g>
  <g id="axes_2">
   <g id="matplotlib.axis_3">
    <g id="xtick_7">
     <g id="line2d_32">
      <defs>
       <path d="M 0 0 
L 0 -3.5 
" id="me306593436" style="stroke:#000000;stroke-width:0.8;"/>
      </defs>
      <g>
       <use style="stroke:#000000;stroke-width:0.8;" x="57.6" xlink:href="#me306593436" y="41.472"/>
      </g>
     </g>
    </g>
    <g id="xtick_8">
     <g id="line2d_33">
      <g>
       <use style="stroke:#000000;stroke-width:0.8;" x="118.871339" xlink:href="#me306593436" y="41.472"/>
      </g>
     </g>
     <g id="text_18">
      <!-- 50.0K -->
      <defs>
       <path d="M 10.6875 12.40625 
L 21 12.40625 
L 21 0 
L 10.6875 0 
z
" id="DejaVuSans-46"/>
       <path d="M 9.8125 72.90625 
L 19.671875 72.90625 
L 19.671875 42.09375 
L 52.390625 72.90625 
L 65.09375 72.90625 
L 28.90625 38.921875 
L 67.671875 0 
L 54.6875 0 
L 19.671875 35.109375 
L 19.671875 0 
L 9.8125 0 
z
" id="DejaVuSans-75"/>
      </defs>
      <g transform="translate(104.45962 32.392313)scale(0.1 -0.1)">
       <use xlink:href="#DejaVuSans-53"/>
       <use x="63.623047" xlink:href="#DejaVuSans-48"/>
       <use x="127.246094" xlink:href="#DejaVuSans-46"/>
       <use x="159.033203" xlink:href="#DejaVuSans-48"/>
       <use x="222.65625" xlink:href="#DejaVuSans-75"/>
      </g>
     </g>
    </g>
    <g id="xtick_9">
     <g id="line2d_34">
      <g>
       <use style="stroke:#000000;stroke-width:0.8;" x="180.142678" xlink:href="#me306593436" y="41.472"/>
      </g>
     </g>
     <g id="text_19">
      <!-- 100K -->
      <g transform="translate(167.320022 32.392313)scale(0.1 -0.1)">
       <use xlink:href="#DejaVuSans-49"/>
       <use x="63.623047" xlink:href="#DejaVuSans-48"/>
       <use x="127.246094" xlink:href="#DejaVuSans-48"/>
       <use x="190.869141" xlink:href="#DejaVuSans-75"/>
      </g>
     </g>
    </g>
    <g id="xtick_10">
     <g id="line2d_35">
      <g>
       <use style="stroke:#000000;stroke-width:0.8;" x="241.414017" xlink:href="#me306593436" y="41.472"/>
      </g>
     </g>
     <g id="text_20">
      <!-- 150K -->
      <g transform="translate(228.591361 32.392313)scale(0.1 -0.1)">
       <use xlink:href="#DejaVuSans-49"/>
       <use x="63.623047" xlink:href="#DejaVuSans-53"/>
       <use x="127.246094" xlink:href="#DejaVuSans-48"/>
       <use x="190.869141" xlink:href="#DejaVuSans-75"/>
      </g>
     </g>
    </g>
    <g id="xtick_11">
     <g id="line2d_36">
      <g>
       <use style="stroke:#000000;stroke-width:0.8;" x="302.685356" xlink:href="#me306593436" y="41.472"/>
      </g>
     </g>
     <g id="text_21">
      <!-- 200K -->
      <g transform="translate(289.8627 32.392313)scale(0.1 -0.1)">
       <use xlink:href="#DejaVuSans-50"/>
       <use x="63.623047" xlink:href="#DejaVuSans-48"/>
       <use x="127.246094" xlink:href="#DejaVuSans-48"/>
       <use x="190.869141" xlink:href="#DejaVuSans-75"/>
      </g>
     </g>
    </g>
    <g id="xtick_12">
     <g id="line2d_37">
      <g>
       <use style="stroke:#000000;stroke-width:0.8;" x="363.956696" xlink:href="#me306593436" y="41.472"/>
      </g>
     </g>
     <g id="text_22">
      <!-- 250K -->
      <g transform="translate(351.134039 32.392313)scale(0.1 -0.1)">
       <use xlink:href="#DejaVuSans-50"/>
       <use x="63.623047" xlink:href="#DejaVuSans-53"/>
       <use x="127.246094" xlink:href="#DejaVuSans-48"/>
       <use x="190.869141" xlink:href="#DejaVuSans-75"/>
      </g>
     </g>
    </g>
    <g id="text_23">
     <!-- Steps -->
     <defs>
      <path d="M 53.515625 70.515625 
L 53.515625 60.890625 
Q 47.90625 63.578125 42.921875 64.890625 
Q 37.9375 66.21875 33.296875 66.21875 
Q 25.25 66.21875 20.875 63.09375 
Q 16.5 59.96875 16.5 54.203125 
Q 16.5 49.359375 19.40625 46.890625 
Q 22.3125 44.4375 30.421875 42.921875 
L 36.375 41.703125 
Q 47.40625 39.59375 52.65625 34.296875 
Q 57.90625 29 57.90625 20.125 
Q 57.90625 9.515625 50.796875 4.046875 
Q 43.703125 -1.421875 29.984375 -1.421875 
Q 24.8125 -1.421875 18.96875 -0.25 
Q 13.140625 0.921875 6.890625 3.21875 
L 6.890625 13.375 
Q 12.890625 10.015625 18.65625 8.296875 
Q 24.421875 6.59375 29.984375 6.59375 
Q 38.421875 6.59375 43.015625 9.90625 
Q 47.609375 13.234375 47.609375 19.390625 
Q 47.609375 24.75 44.3125 27.78125 
Q 41.015625 30.8125 33.5 32.328125 
L 27.484375 33.5 
Q 16.453125 35.6875 11.515625 40.375 
Q 6.59375 45.0625 6.59375 53.421875 
Q 6.59375 63.09375 13.40625 68.65625 
Q 20.21875 74.21875 32.171875 74.21875 
Q 37.3125 74.21875 42.625 73.28125 
Q 47.953125 72.359375 53.515625 70.515625 
z
" id="DejaVuSans-83"/>
      <path d="M 18.3125 70.21875 
L 18.3125 54.6875 
L 36.8125 54.6875 
L 36.8125 47.703125 
L 18.3125 47.703125 
L 18.3125 18.015625 
Q 18.3125 11.328125 20.140625 9.421875 
Q 21.96875 7.515625 27.59375 7.515625 
L 36.8125 7.515625 
L 36.8125 0 
L 27.59375 0 
Q 17.1875 0 13.234375 3.875 
Q 9.28125 7.765625 9.28125 18.015625 
L 9.28125 47.703125 
L 2.6875 47.703125 
L 2.6875 54.6875 
L 9.28125 54.6875 
L 9.28125 70.21875 
z
" id="DejaVuSans-116"/>
      <path d="M 18.109375 8.203125 
L 18.109375 -20.796875 
L 9.078125 -20.796875 
L 9.078125 54.6875 
L 18.109375 54.6875 
L 18.109375 46.390625 
Q 20.953125 51.265625 25.265625 53.625 
Q 29.59375 56 35.59375 56 
Q 45.5625 56 51.78125 48.09375 
Q 58.015625 40.1875 58.015625 27.296875 
Q 58.015625 14.40625 51.78125 6.484375 
Q 45.5625 -1.421875 35.59375 -1.421875 
Q 29.59375 -1.421875 25.265625 0.953125 
Q 20.953125 3.328125 18.109375 8.203125 
z
M 48.6875 27.296875 
Q 48.6875 37.203125 44.609375 42.84375 
Q 40.53125 48.484375 33.40625 48.484375 
Q 26.265625 48.484375 22.1875 42.84375 
Q 18.109375 37.203125 18.109375 27.296875 
Q 18.109375 17.390625 22.1875 11.75 
Q 26.265625 6.109375 33.40625 6.109375 
Q 40.53125 6.109375 44.609375 11.75 
Q 48.6875 17.390625 48.6875 27.296875 
z
" id="DejaVuSans-112"/>
     </defs>
     <g transform="translate(222.170156 20.793875)scale(0.1 -0.1)">
      <use xlink:href="#DejaVuSans-83"/>
      <use x="63.476562" xlink:href="#DejaVuSans-116"/>
      <use x="102.685547" xlink:href="#DejaVuSans-101"/>
      <use x="164.208984" xlink:href="#DejaVuSans-112"/>
      <use x="227.685547" xlink:href="#DejaVuSans-115"/>
     </g>
    </g>
   </g>
   <g id="patch_7">
    <path d="M 57.6 307.584 
L 57.6 41.472 
" style="fill:none;stroke:#000000;stroke-linecap:square;stroke-linejoin:miter;stroke-width:0.8;"/>
   </g>
   <g id="patch_8">
    <path d="M 414.72 307.584 
L 414.72 41.472 
" style="fill:none;stroke:#000000;stroke-linecap:square;stroke-linejoin:miter;stroke-width:0.8;"/>
   </g>
   <g id="patch_9">
    <path d="M 57.6 307.584 
L 414.72 307.584 
" style="fill:none;stroke:#000000;stroke-linecap:square;stroke-linejoin:miter;stroke-width:0.8;"/>
   </g>
   <g id="patch_10">
    <path d="M 57.6 41.472 
L 414.72 41.472 
" style="fill:none;stroke:#000000;stroke-linecap:square;stroke-linejoin:miter;stroke-width:0.8;"/>
   </g>
  </g>
 </g>
 <defs>
  <clipPath id="pd0b42a5e79">
   <rect height="266.112" width="357.12" x="57.6" y="41.472"/>
  </clipPath>
 </defs>
</svg>
