<?xml version="1.0" encoding="utf-8" standalone="no"?>
<!DOCTYPE svg PUBLIC "-//W3C//DTD SVG 1.1//EN"
  "http://www.w3.org/Graphics/SVG/1.1/DTD/svg11.dtd">
<!-- Created with matplotlib (https://matplotlib.org/) -->
<svg height="345.6pt" version="1.1" viewBox="0 0 460.8 345.6" width="460.8pt" xmlns="http://www.w3.org/2000/svg" xmlns:xlink="http://www.w3.org/1999/xlink">
 <defs>
  <style type="text/css">
*{stroke-linecap:butt;stroke-linejoin:round;}
  </style>
 </defs>
 <g id="figure_1">
  <g id="patch_1">
   <path d="M 0 345.6 
L 460.8 345.6 
L 460.8 0 
L 0 0 
z
" style="fill:#ffffff;"/>
  </g>
  <g id="axes_1">
   <g id="patch_2">
    <path d="M 57.6 307.584 
L 414.72 307.584 
L 414.72 41.472 
L 57.6 41.472 
z
" style="fill:#ffffff;"/>
   </g>
   <g id="matplotlib.axis_1">
    <g id="xtick_1">
     <g id="line2d_1">
      <path clip-path="url(#p7e796fabad)" d="M 57.6 307.584 
L 57.6 41.472 
" style="fill:none;stroke:#b0b0b0;stroke-linecap:square;stroke-width:0.8;"/>
     </g>
     <g id="line2d_2">
      <defs>
       <path d="M 0 0 
L 0 3.5 
" id="mb0534be837" style="stroke:#000000;stroke-width:0.8;"/>
      </defs>
      <g>
       <use style="stroke:#000000;stroke-width:0.8;" x="57.6" xlink:href="#mb0534be837" y="307.584"/>
      </g>
     </g>
     <g id="text_1">
      <!-- 0.0 -->
      <defs>
       <path d="M 31.78125 66.40625 
Q 24.171875 66.40625 20.328125 58.90625 
Q 16.5 51.421875 16.5 36.375 
Q 16.5 21.390625 20.328125 13.890625 
Q 24.171875 6.390625 31.78125 6.390625 
Q 39.453125 6.390625 43.28125 13.890625 
Q 47.125 21.390625 47.125 36.375 
Q 47.125 51.421875 43.28125 58.90625 
Q 39.453125 66.40625 31.78125 66.40625 
z
M 31.78125 74.21875 
Q 44.046875 74.21875 50.515625 64.515625 
Q 56.984375 54.828125 56.984375 36.375 
Q 56.984375 17.96875 50.515625 8.265625 
Q 44.046875 -1.421875 31.78125 -1.421875 
Q 19.53125 -1.421875 13.0625 8.265625 
Q 6.59375 17.96875 6.59375 36.375 
Q 6.59375 54.828125 13.0625 64.515625 
Q 19.53125 74.21875 31.78125 74.21875 
z
" id="DejaVuSans-48"/>
       <path d="M 10.6875 12.40625 
L 21 12.40625 
L 21 0 
L 10.6875 0 
z
" id="DejaVuSans-46"/>
      </defs>
      <g transform="translate(49.648438 322.182437)scale(0.1 -0.1)">
       <use xlink:href="#DejaVuSans-48"/>
       <use x="63.623047" xlink:href="#DejaVuSans-46"/>
       <use x="95.410156" xlink:href="#DejaVuSans-48"/>
      </g>
     </g>
    </g>
    <g id="xtick_2">
     <g id="line2d_3">
      <path clip-path="url(#p7e796fabad)" d="M 127.266201 307.584 
L 127.266201 41.472 
" style="fill:none;stroke:#b0b0b0;stroke-linecap:square;stroke-width:0.8;"/>
     </g>
     <g id="line2d_4">
      <g>
       <use style="stroke:#000000;stroke-width:0.8;" x="127.266201" xlink:href="#mb0534be837" y="307.584"/>
      </g>
     </g>
     <g id="text_2">
      <!-- 0.1 -->
      <defs>
       <path d="M 12.40625 8.296875 
L 28.515625 8.296875 
L 28.515625 63.921875 
L 10.984375 60.40625 
L 10.984375 69.390625 
L 28.421875 72.90625 
L 38.28125 72.90625 
L 38.28125 8.296875 
L 54.390625 8.296875 
L 54.390625 0 
L 12.40625 0 
z
" id="DejaVuSans-49"/>
      </defs>
      <g transform="translate(119.314638 322.182437)scale(0.1 -0.1)">
       <use xlink:href="#DejaVuSans-48"/>
       <use x="63.623047" xlink:href="#DejaVuSans-46"/>
       <use x="95.410156" xlink:href="#DejaVuSans-49"/>
      </g>
     </g>
    </g>
    <g id="xtick_3">
     <g id="line2d_5">
      <path clip-path="url(#p7e796fabad)" d="M 196.932401 307.584 
L 196.932401 41.472 
" style="fill:none;stroke:#b0b0b0;stroke-linecap:square;stroke-width:0.8;"/>
     </g>
     <g id="line2d_6">
      <g>
       <use style="stroke:#000000;stroke-width:0.8;" x="196.932401" xlink:href="#mb0534be837" y="307.584"/>
      </g>
     </g>
     <g id="text_3">
      <!-- 0.2 -->
      <defs>
       <path d="M 19.1875 8.296875 
L 53.609375 8.296875 
L 53.609375 0 
L 7.328125 0 
L 7.328125 8.296875 
Q 12.9375 14.109375 22.625 23.890625 
Q 32.328125 33.6875 34.8125 36.53125 
Q 39.546875 41.84375 41.421875 45.53125 
Q 43.3125 49.21875 43.3125 52.78125 
Q 43.3125 58.59375 39.234375 62.25 
Q 35.15625 65.921875 28.609375 65.921875 
Q 23.96875 65.921875 18.8125 64.3125 
Q 13.671875 62.703125 7.8125 59.421875 
L 7.8125 69.390625 
Q 13.765625 71.78125 18.9375 73 
Q 24.125 74.21875 28.421875 74.21875 
Q 39.75 74.21875 46.484375 68.546875 
Q 53.21875 62.890625 53.21875 53.421875 
Q 53.21875 48.921875 51.53125 44.890625 
Q 49.859375 40.875 45.40625 35.40625 
Q 44.1875 33.984375 37.640625 27.21875 
Q 31.109375 20.453125 19.1875 8.296875 
z
" id="DejaVuSans-50"/>
      </defs>
      <g transform="translate(188.980839 322.182437)scale(0.1 -0.1)">
       <use xlink:href="#DejaVuSans-48"/>
       <use x="63.623047" xlink:href="#DejaVuSans-46"/>
       <use x="95.410156" xlink:href="#DejaVuSans-50"/>
      </g>
     </g>
    </g>
    <g id="xtick_4">
     <g id="line2d_7">
      <path clip-path="url(#p7e796fabad)" d="M 266.598602 307.584 
L 266.598602 41.472 
" style="fill:none;stroke:#b0b0b0;stroke-linecap:square;stroke-width:0.8;"/>
     </g>
     <g id="line2d_8">
      <g>
       <use style="stroke:#000000;stroke-width:0.8;" x="266.598602" xlink:href="#mb0534be837" y="307.584"/>
      </g>
     </g>
     <g id="text_4">
      <!-- 0.3 -->
      <defs>
       <path d="M 40.578125 39.3125 
Q 47.65625 37.796875 51.625 33 
Q 55.609375 28.21875 55.609375 21.1875 
Q 55.609375 10.40625 48.1875 4.484375 
Q 40.765625 -1.421875 27.09375 -1.421875 
Q 22.515625 -1.421875 17.65625 -0.515625 
Q 12.796875 0.390625 7.625 2.203125 
L 7.625 11.71875 
Q 11.71875 9.328125 16.59375 8.109375 
Q 21.484375 6.890625 26.8125 6.890625 
Q 36.078125 6.890625 40.9375 10.546875 
Q 45.796875 14.203125 45.796875 21.1875 
Q 45.796875 27.640625 41.28125 31.265625 
Q 36.765625 34.90625 28.71875 34.90625 
L 20.21875 34.90625 
L 20.21875 43.015625 
L 29.109375 43.015625 
Q 36.375 43.015625 40.234375 45.921875 
Q 44.09375 48.828125 44.09375 54.296875 
Q 44.09375 59.90625 40.109375 62.90625 
Q 36.140625 65.921875 28.71875 65.921875 
Q 24.65625 65.921875 20.015625 65.03125 
Q 15.375 64.15625 9.8125 62.3125 
L 9.8125 71.09375 
Q 15.4375 72.65625 20.34375 73.4375 
Q 25.25 74.21875 29.59375 74.21875 
Q 40.828125 74.21875 47.359375 69.109375 
Q 53.90625 64.015625 53.90625 55.328125 
Q 53.90625 49.265625 50.4375 45.09375 
Q 46.96875 40.921875 40.578125 39.3125 
z
" id="DejaVuSans-51"/>
      </defs>
      <g transform="translate(258.647039 322.182437)scale(0.1 -0.1)">
       <use xlink:href="#DejaVuSans-48"/>
       <use x="63.623047" xlink:href="#DejaVuSans-46"/>
       <use x="95.410156" xlink:href="#DejaVuSans-51"/>
      </g>
     </g>
    </g>
    <g id="xtick_5">
     <g id="line2d_9">
      <path clip-path="url(#p7e796fabad)" d="M 336.264802 307.584 
L 336.264802 41.472 
" style="fill:none;stroke:#b0b0b0;stroke-linecap:square;stroke-width:0.8;"/>
     </g>
     <g id="line2d_10">
      <g>
       <use style="stroke:#000000;stroke-width:0.8;" x="336.264802" xlink:href="#mb0534be837" y="307.584"/>
      </g>
     </g>
     <g id="text_5">
      <!-- 0.4 -->
      <defs>
       <path d="M 37.796875 64.3125 
L 12.890625 25.390625 
L 37.796875 25.390625 
z
M 35.203125 72.90625 
L 47.609375 72.90625 
L 47.609375 25.390625 
L 58.015625 25.390625 
L 58.015625 17.1875 
L 47.609375 17.1875 
L 47.609375 0 
L 37.796875 0 
L 37.796875 17.1875 
L 4.890625 17.1875 
L 4.890625 26.703125 
z
" id="DejaVuSans-52"/>
      </defs>
      <g transform="translate(328.31324 322.182437)scale(0.1 -0.1)">
       <use xlink:href="#DejaVuSans-48"/>
       <use x="63.623047" xlink:href="#DejaVuSans-46"/>
       <use x="95.410156" xlink:href="#DejaVuSans-52"/>
      </g>
     </g>
    </g>
    <g id="xtick_6">
     <g id="line2d_11">
      <path clip-path="url(#p7e796fabad)" d="M 405.931003 307.584 
L 405.931003 41.472 
" style="fill:none;stroke:#b0b0b0;stroke-linecap:square;stroke-width:0.8;"/>
     </g>
     <g id="line2d_12">
      <g>
       <use style="stroke:#000000;stroke-width:0.8;" x="405.931003" xlink:href="#mb0534be837" y="307.584"/>
      </g>
     </g>
     <g id="text_6">
      <!-- 0.5 -->
      <defs>
       <path d="M 10.796875 72.90625 
L 49.515625 72.90625 
L 49.515625 64.59375 
L 19.828125 64.59375 
L 19.828125 46.734375 
Q 21.96875 47.46875 24.109375 47.828125 
Q 26.265625 48.1875 28.421875 48.1875 
Q 40.625 48.1875 47.75 41.5 
Q 54.890625 34.8125 54.890625 23.390625 
Q 54.890625 11.625 47.5625 5.09375 
Q 40.234375 -1.421875 26.90625 -1.421875 
Q 22.3125 -1.421875 17.546875 -0.640625 
Q 12.796875 0.140625 7.71875 1.703125 
L 7.71875 11.625 
Q 12.109375 9.234375 16.796875 8.0625 
Q 21.484375 6.890625 26.703125 6.890625 
Q 35.15625 6.890625 40.078125 11.328125 
Q 45.015625 15.765625 45.015625 23.390625 
Q 45.015625 31 40.078125 35.4375 
Q 35.15625 39.890625 26.703125 39.890625 
Q 22.75 39.890625 18.8125 39.015625 
Q 14.890625 38.140625 10.796875 36.28125 
z
" id="DejaVuSans-53"/>
      </defs>
      <g transform="translate(397.97944 322.182437)scale(0.1 -0.1)">
       <use xlink:href="#DejaVuSans-48"/>
       <use x="63.623047" xlink:href="#DejaVuSans-46"/>
       <use x="95.410156" xlink:href="#DejaVuSans-53"/>
      </g>
     </g>
    </g>
    <g id="text_7">
     <!-- Hours -->
     <defs>
      <path d="M 9.8125 72.90625 
L 19.671875 72.90625 
L 19.671875 43.015625 
L 55.515625 43.015625 
L 55.515625 72.90625 
L 65.375 72.90625 
L 65.375 0 
L 55.515625 0 
L 55.515625 34.71875 
L 19.671875 34.71875 
L 19.671875 0 
L 9.8125 0 
z
" id="DejaVuSans-72"/>
      <path d="M 30.609375 48.390625 
Q 23.390625 48.390625 19.1875 42.75 
Q 14.984375 37.109375 14.984375 27.296875 
Q 14.984375 17.484375 19.15625 11.84375 
Q 23.34375 6.203125 30.609375 6.203125 
Q 37.796875 6.203125 41.984375 11.859375 
Q 46.1875 17.53125 46.1875 27.296875 
Q 46.1875 37.015625 41.984375 42.703125 
Q 37.796875 48.390625 30.609375 48.390625 
z
M 30.609375 56 
Q 42.328125 56 49.015625 48.375 
Q 55.71875 40.765625 55.71875 27.296875 
Q 55.71875 13.875 49.015625 6.21875 
Q 42.328125 -1.421875 30.609375 -1.421875 
Q 18.84375 -1.421875 12.171875 6.21875 
Q 5.515625 13.875 5.515625 27.296875 
Q 5.515625 40.765625 12.171875 48.375 
Q 18.84375 56 30.609375 56 
z
" id="DejaVuSans-111"/>
      <path d="M 8.5 21.578125 
L 8.5 54.6875 
L 17.484375 54.6875 
L 17.484375 21.921875 
Q 17.484375 14.15625 20.5 10.265625 
Q 23.53125 6.390625 29.59375 6.390625 
Q 36.859375 6.390625 41.078125 11.03125 
Q 45.3125 15.671875 45.3125 23.6875 
L 45.3125 54.6875 
L 54.296875 54.6875 
L 54.296875 0 
L 45.3125 0 
L 45.3125 8.40625 
Q 42.046875 3.421875 37.71875 1 
Q 33.40625 -1.421875 27.6875 -1.421875 
Q 18.265625 -1.421875 13.375 4.4375 
Q 8.5 10.296875 8.5 21.578125 
z
M 31.109375 56 
z
" id="DejaVuSans-117"/>
      <path d="M 41.109375 46.296875 
Q 39.59375 47.171875 37.8125 47.578125 
Q 36.03125 48 33.890625 48 
Q 26.265625 48 22.1875 43.046875 
Q 18.109375 38.09375 18.109375 28.8125 
L 18.109375 0 
L 9.078125 0 
L 9.078125 54.6875 
L 18.109375 54.6875 
L 18.109375 46.1875 
Q 20.953125 51.171875 25.484375 53.578125 
Q 30.03125 56 36.53125 56 
Q 37.453125 56 38.578125 55.875 
Q 39.703125 55.765625 41.0625 55.515625 
z
" id="DejaVuSans-114"/>
      <path d="M 44.28125 53.078125 
L 44.28125 44.578125 
Q 40.484375 46.53125 36.375 47.5 
Q 32.28125 48.484375 27.875 48.484375 
Q 21.1875 48.484375 17.84375 46.4375 
Q 14.5 44.390625 14.5 40.28125 
Q 14.5 37.15625 16.890625 35.375 
Q 19.28125 33.59375 26.515625 31.984375 
L 29.59375 31.296875 
Q 39.15625 29.25 43.1875 25.515625 
Q 47.21875 21.78125 47.21875 15.09375 
Q 47.21875 7.46875 41.1875 3.015625 
Q 35.15625 -1.421875 24.609375 -1.421875 
Q 20.21875 -1.421875 15.453125 -0.5625 
Q 10.6875 0.296875 5.421875 2 
L 5.421875 11.28125 
Q 10.40625 8.6875 15.234375 7.390625 
Q 20.0625 6.109375 24.8125 6.109375 
Q 31.15625 6.109375 34.5625 8.28125 
Q 37.984375 10.453125 37.984375 14.40625 
Q 37.984375 18.0625 35.515625 20.015625 
Q 33.0625 21.96875 24.703125 23.78125 
L 21.578125 24.515625 
Q 13.234375 26.265625 9.515625 29.90625 
Q 5.8125 33.546875 5.8125 39.890625 
Q 5.8125 47.609375 11.28125 51.796875 
Q 16.75 56 26.8125 56 
Q 31.78125 56 36.171875 55.265625 
Q 40.578125 54.546875 44.28125 53.078125 
z
" id="DejaVuSans-115"/>
     </defs>
     <g transform="translate(221.511562 335.860562)scale(0.1 -0.1)">
      <use xlink:href="#DejaVuSans-72"/>
      <use x="75.195312" xlink:href="#DejaVuSans-111"/>
      <use x="136.376953" xlink:href="#DejaVuSans-117"/>
      <use x="199.755859" xlink:href="#DejaVuSans-114"/>
      <use x="240.869141" xlink:href="#DejaVuSans-115"/>
     </g>
    </g>
   </g>
   <g id="matplotlib.axis_2">
    <g id="ytick_1">
     <g id="line2d_13">
      <path clip-path="url(#p7e796fabad)" d="M 57.6 286.285485 
L 414.72 286.285485 
" style="fill:none;stroke:#b0b0b0;stroke-linecap:square;stroke-width:0.8;"/>
     </g>
     <g id="line2d_14">
      <defs>
       <path d="M 0 0 
L -3.5 0 
" id="mbc8d6b0ae8" style="stroke:#000000;stroke-width:0.8;"/>
      </defs>
      <g>
       <use style="stroke:#000000;stroke-width:0.8;" x="57.6" xlink:href="#mbc8d6b0ae8" y="286.285485"/>
      </g>
     </g>
     <g id="text_8">
      <!-- −10 -->
      <defs>
       <path d="M 10.59375 35.5 
L 73.1875 35.5 
L 73.1875 27.203125 
L 10.59375 27.203125 
z
" id="DejaVuSans-8722"/>
      </defs>
      <g transform="translate(29.495313 290.084704)scale(0.1 -0.1)">
       <use xlink:href="#DejaVuSans-8722"/>
       <use x="83.789062" xlink:href="#DejaVuSans-49"/>
       <use x="147.412109" xlink:href="#DejaVuSans-48"/>
      </g>
     </g>
    </g>
    <g id="ytick_2">
     <g id="line2d_15">
      <path clip-path="url(#p7e796fabad)" d="M 57.6 237.363909 
L 414.72 237.363909 
" style="fill:none;stroke:#b0b0b0;stroke-linecap:square;stroke-width:0.8;"/>
     </g>
     <g id="line2d_16">
      <g>
       <use style="stroke:#000000;stroke-width:0.8;" x="57.6" xlink:href="#mbc8d6b0ae8" y="237.363909"/>
      </g>
     </g>
     <g id="text_9">
      <!-- −8 -->
      <defs>
       <path d="M 31.78125 34.625 
Q 24.75 34.625 20.71875 30.859375 
Q 16.703125 27.09375 16.703125 20.515625 
Q 16.703125 13.921875 20.71875 10.15625 
Q 24.75 6.390625 31.78125 6.390625 
Q 38.8125 6.390625 42.859375 10.171875 
Q 46.921875 13.96875 46.921875 20.515625 
Q 46.921875 27.09375 42.890625 30.859375 
Q 38.875 34.625 31.78125 34.625 
z
M 21.921875 38.8125 
Q 15.578125 40.375 12.03125 44.71875 
Q 8.5 49.078125 8.5 55.328125 
Q 8.5 64.0625 14.71875 69.140625 
Q 20.953125 74.21875 31.78125 74.21875 
Q 42.671875 74.21875 48.875 69.140625 
Q 55.078125 64.0625 55.078125 55.328125 
Q 55.078125 49.078125 51.53125 44.71875 
Q 48 40.375 41.703125 38.8125 
Q 48.828125 37.15625 52.796875 32.3125 
Q 56.78125 27.484375 56.78125 20.515625 
Q 56.78125 9.90625 50.3125 4.234375 
Q 43.84375 -1.421875 31.78125 -1.421875 
Q 19.734375 -1.421875 13.25 4.234375 
Q 6.78125 9.90625 6.78125 20.515625 
Q 6.78125 27.484375 10.78125 32.3125 
Q 14.796875 37.15625 21.921875 38.8125 
z
M 18.3125 54.390625 
Q 18.3125 48.734375 21.84375 45.5625 
Q 25.390625 42.390625 31.78125 42.390625 
Q 38.140625 42.390625 41.71875 45.5625 
Q 45.3125 48.734375 45.3125 54.390625 
Q 45.3125 60.0625 41.71875 63.234375 
Q 38.140625 66.40625 31.78125 66.40625 
Q 25.390625 66.40625 21.84375 63.234375 
Q 18.3125 60.0625 18.3125 54.390625 
z
" id="DejaVuSans-56"/>
      </defs>
      <g transform="translate(35.857813 241.163128)scale(0.1 -0.1)">
       <use xlink:href="#DejaVuSans-8722"/>
       <use x="83.789062" xlink:href="#DejaVuSans-56"/>
      </g>
     </g>
    </g>
    <g id="ytick_3">
     <g id="line2d_17">
      <path clip-path="url(#p7e796fabad)" d="M 57.6 188.442334 
L 414.72 188.442334 
" style="fill:none;stroke:#b0b0b0;stroke-linecap:square;stroke-width:0.8;"/>
     </g>
     <g id="line2d_18">
      <g>
       <use style="stroke:#000000;stroke-width:0.8;" x="57.6" xlink:href="#mbc8d6b0ae8" y="188.442334"/>
      </g>
     </g>
     <g id="text_10">
      <!-- −6 -->
      <defs>
       <path d="M 33.015625 40.375 
Q 26.375 40.375 22.484375 35.828125 
Q 18.609375 31.296875 18.609375 23.390625 
Q 18.609375 15.53125 22.484375 10.953125 
Q 26.375 6.390625 33.015625 6.390625 
Q 39.65625 6.390625 43.53125 10.953125 
Q 47.40625 15.53125 47.40625 23.390625 
Q 47.40625 31.296875 43.53125 35.828125 
Q 39.65625 40.375 33.015625 40.375 
z
M 52.59375 71.296875 
L 52.59375 62.3125 
Q 48.875 64.0625 45.09375 64.984375 
Q 41.3125 65.921875 37.59375 65.921875 
Q 27.828125 65.921875 22.671875 59.328125 
Q 17.53125 52.734375 16.796875 39.40625 
Q 19.671875 43.65625 24.015625 45.921875 
Q 28.375 48.1875 33.59375 48.1875 
Q 44.578125 48.1875 50.953125 41.515625 
Q 57.328125 34.859375 57.328125 23.390625 
Q 57.328125 12.15625 50.6875 5.359375 
Q 44.046875 -1.421875 33.015625 -1.421875 
Q 20.359375 -1.421875 13.671875 8.265625 
Q 6.984375 17.96875 6.984375 36.375 
Q 6.984375 53.65625 15.1875 63.9375 
Q 23.390625 74.21875 37.203125 74.21875 
Q 40.921875 74.21875 44.703125 73.484375 
Q 48.484375 72.75 52.59375 71.296875 
z
" id="DejaVuSans-54"/>
      </defs>
      <g transform="translate(35.857813 192.241552)scale(0.1 -0.1)">
       <use xlink:href="#DejaVuSans-8722"/>
       <use x="83.789062" xlink:href="#DejaVuSans-54"/>
      </g>
     </g>
    </g>
    <g id="ytick_4">
     <g id="line2d_19">
      <path clip-path="url(#p7e796fabad)" d="M 57.6 139.520758 
L 414.72 139.520758 
" style="fill:none;stroke:#b0b0b0;stroke-linecap:square;stroke-width:0.8;"/>
     </g>
     <g id="line2d_20">
      <g>
       <use style="stroke:#000000;stroke-width:0.8;" x="57.6" xlink:href="#mbc8d6b0ae8" y="139.520758"/>
      </g>
     </g>
     <g id="text_11">
      <!-- −4 -->
      <g transform="translate(35.857813 143.319977)scale(0.1 -0.1)">
       <use xlink:href="#DejaVuSans-8722"/>
       <use x="83.789062" xlink:href="#DejaVuSans-52"/>
      </g>
     </g>
    </g>
    <g id="ytick_5">
     <g id="line2d_21">
      <path clip-path="url(#p7e796fabad)" d="M 57.6 90.599182 
L 414.72 90.599182 
" style="fill:none;stroke:#b0b0b0;stroke-linecap:square;stroke-width:0.8;"/>
     </g>
     <g id="line2d_22">
      <g>
       <use style="stroke:#000000;stroke-width:0.8;" x="57.6" xlink:href="#mbc8d6b0ae8" y="90.599182"/>
      </g>
     </g>
     <g id="text_12">
      <!-- −2 -->
      <g transform="translate(35.857813 94.398401)scale(0.1 -0.1)">
       <use xlink:href="#DejaVuSans-8722"/>
       <use x="83.789062" xlink:href="#DejaVuSans-50"/>
      </g>
     </g>
    </g>
    <g id="ytick_6">
     <g id="line2d_23">
      <path clip-path="url(#p7e796fabad)" d="M 57.6 41.677606 
L 414.72 41.677606 
" style="fill:none;stroke:#b0b0b0;stroke-linecap:square;stroke-width:0.8;"/>
     </g>
     <g id="line2d_24">
      <g>
       <use style="stroke:#000000;stroke-width:0.8;" x="57.6" xlink:href="#mbc8d6b0ae8" y="41.677606"/>
      </g>
     </g>
     <g id="text_13">
      <!-- 0 -->
      <g transform="translate(44.2375 45.476825)scale(0.1 -0.1)">
       <use xlink:href="#DejaVuSans-48"/>
      </g>
     </g>
    </g>
    <g id="text_14">
     <!-- Loss -->
     <defs>
      <path d="M 9.8125 72.90625 
L 19.671875 72.90625 
L 19.671875 8.296875 
L 55.171875 8.296875 
L 55.171875 0 
L 9.8125 0 
z
" id="DejaVuSans-76"/>
     </defs>
     <g transform="translate(23.415625 185.581906)rotate(-90)scale(0.1 -0.1)">
      <use xlink:href="#DejaVuSans-76"/>
      <use x="55.697266" xlink:href="#DejaVuSans-111"/>
      <use x="116.878906" xlink:href="#DejaVuSans-115"/>
      <use x="168.978516" xlink:href="#DejaVuSans-115"/>
     </g>
    </g>
   </g>
   <g id="line2d_25">
    <path clip-path="url(#p7e796fabad)" d="M 57.6 53.568 
L 58.110713 62.533897 
L 58.361679 63.407831 
L 58.628707 65.026156 
L 60.587433 71.383103 
L 60.70852 71.794366 
L 60.922337 75.733422 
L 62.673669 82.965237 
L 62.739532 82.140885 
L 63.260413 88.855296 
L 65.008645 95.721858 
L 65.288904 99.214914 
L 65.39518 101.929223 
L 65.670715 104.212665 
L 67.652102 109.30624 
L 67.665422 110.087442 
L 68.615765 122.420436 
L 70.015116 123.939286 
L 70.313464 123.969758 
L 70.672586 129.717895 
L 70.980402 129.396003 
L 70.994074 133.105748 
L 72.579046 132.938956 
L 72.876765 136.307582 
L 72.892513 134.695602 
L 72.961862 137.848406 
L 72.988401 135.661698 
L 73.291136 139.340931 
L 74.831945 140.089042 
L 74.939276 139.234388 
L 75.044699 142.702832 
L 75.351307 145.914638 
L 75.405166 142.577831 
L 75.52559 143.512488 
L 75.578238 142.445855 
L 75.604078 143.95394 
L 75.790079 144.09513 
L 75.816522 142.519186 
L 75.882636 142.769118 
L 75.909508 148.051367 
L 75.962676 142.66321 
L 77.171799 143.568287 
L 77.25055 151.290175 
L 77.263889 144.579225 
L 77.581086 148.1081 
L 77.633799 146.722754 
L 78.073886 149.609384 
L 78.246346 148.408431 
L 79.753207 150.849084 
L 79.779856 146.748403 
L 79.886574 149.485421 
L 80.223568 152.305789 
L 80.265968 149.920061 
L 80.504841 149.895567 
L 80.626704 150.868901 
L 80.640626 149.301191 
L 80.72466 150.576011 
L 80.740319 152.601164 
L 80.819839 151.168008 
L 82.287098 149.051434 
L 82.446476 150.922613 
L 83.099007 152.125397 
L 83.13904 153.768595 
L 83.220116 152.416047 
L 83.30318 154.125951 
L 83.369801 150.421372 
L 83.504579 150.050486 
L 83.584973 147.921549 
L 84.813035 153.628559 
L 84.951321 157.054956 
L 85.599599 150.694714 
L 85.615149 150.241143 
L 85.870988 149.942876 
L 86.052697 153.611297 
L 87.37869 153.745699 
L 87.888961 153.430006 
L 88.080552 149.978579 
L 88.122091 150.802685 
L 88.473086 149.789007 
L 88.567577 147.235402 
L 90.218852 182.150931 
L 90.305968 180.973388 
L 90.318292 182.408048 
L 90.957153 183.907898 
L 91.052732 183.048602 
L 92.531963 185.542243 
L 92.694973 190.00406 
L 92.831758 190.266939 
L 93.233863 196.204018 
L 93.382608 196.50001 
L 93.494134 197.521772 
L 93.577252 196.388189 
L 95.178095 198.854946 
L 95.23383 198.101732 
L 95.594782 199.970589 
L 95.859036 196.703707 
L 95.873329 197.051347 
L 96.15373 199.133151 
L 97.530733 199.769995 
L 97.543628 202.565321 
L 98.121647 211.993344 
L 98.412088 211.990102 
L 98.617141 210.686251 
L 98.737512 212.244723 
L 98.79086 211.849483 
L 98.816627 215.561549 
L 98.843208 212.43069 
L 99.906631 214.655481 
L 100.000208 213.335674 
L 100.309434 218.537396 
L 100.336542 216.038273 
L 100.376502 216.257132 
L 100.483717 220.148215 
L 100.49744 216.820821 
L 100.767041 219.390767 
L 100.886012 217.002637 
L 101.073772 224.046635 
L 101.19265 222.963078 
L 102.311009 223.696779 
L 102.596243 223.545639 
L 102.784482 225.294558 
L 102.837289 224.753508 
L 102.962124 225.796848 
L 103.144252 228.325096 
L 103.184186 227.468856 
L 103.293385 225.723681 
L 104.866355 229.646559 
L 105.104318 229.347499 
L 105.236705 231.998544 
L 105.278187 228.895538 
L 105.546088 231.611212 
L 105.733834 232.21366 
L 105.760027 232.962453 
L 107.001094 238.247373 
L 107.054459 239.359844 
L 107.161976 238.604426 
L 107.470536 245.947682 
L 107.789033 247.446016 
L 108.120146 250.817837 
L 108.175017 250.445575 
L 108.269048 251.216133 
L 109.538432 251.860535 
L 109.996094 256.025916 
L 110.150173 257.787502 
L 110.268938 256.718093 
L 110.590835 258.422643 
L 110.616821 260.106711 
L 110.724556 258.399059 
L 111.972174 259.842316 
L 112.309781 262.225722 
L 112.350427 263.054506 
L 112.391822 260.552758 
L 112.592819 262.882955 
L 112.660705 262.516501 
L 112.922602 263.095096 
L 113.138373 264.781474 
L 114.194378 265.896861 
L 114.246471 263.984182 
L 114.406558 265.921868 
L 114.759183 267.074393 
L 114.882063 265.9148 
L 115.431138 267.330413 
L 115.444264 270.23328 
L 115.470663 269.044014 
L 117.047173 272.438603 
L 117.154844 272.298124 
L 117.302288 272.640831 
L 117.374567 272.076395 
L 117.7443 274.892203 
L 117.878965 274.531418 
L 117.905167 273.583547 
L 118.954226 275.037697 
L 119.141703 275.689938 
L 119.224269 274.654868 
L 119.343984 277.020592 
L 119.544791 275.229637 
L 119.599612 278.233839 
L 119.626459 278.172114 
L 119.961546 277.71235 
L 121.233409 279.758439 
L 121.310885 279.666318 
L 121.619146 280.127039 
L 121.966883 280.122093 
L 122.290362 283.523051 
L 122.382655 282.020612 
L 122.448629 282.080774 
L 123.615284 282.891596 
L 123.714059 283.413481 
L 123.924665 283.688887 
L 124.092697 284.545198 
L 124.137897 284.419695 
L 124.328101 284.461288 
L 124.809953 286.714177 
L 124.822836 286.694512 
L 126.22568 286.389083 
L 126.867433 287.761984 
L 126.987776 287.669466 
L 127.188475 288.873685 
L 128.44789 289.87556 
L 128.487448 289.30499 
L 129.128919 288.920294 
L 129.233699 290.581431 
L 129.538122 290.671965 
L 130.719378 293.481614 
L 130.935173 290.034864 
L 130.974781 291.053465 
L 131.081668 291.909029 
L 131.122311 291.341981 
L 131.442366 291.992822 
L 131.495597 292.446078 
L 131.522207 291.516099 
L 131.896503 292.849832 
L 133.297738 292.72188 
L 133.781849 293.260235 
L 133.863207 293.818628 
L 134.085141 292.316446 
L 134.34165 294.108684 
L 134.360725 292.798791 
L 135.797352 293.693266 
L 135.929976 293.596643 
L 135.967801 292.935585 
L 136.019347 295.0507 
L 136.352414 293.680016 
L 137.826624 294.821017 
L 137.946328 292.321998 
L 138.153217 293.861505 
L 138.171755 293.352216 
L 138.505864 293.438482 
L 139.028475 295.488 
L 139.203152 292.857904 
L 140.524669 293.844219 
L 140.617338 295.055716 
L 141.086746 293.13023 
L 141.261545 294.514725 
L 141.56702 293.401787 
L 141.621814 293.839437 
L 141.785248 294.044813 
L 141.920842 293.761896 
L 142.304221 293.271596 
L 143.949152 294.860883 
L 143.989376 293.742114 
L 144.318953 295.032645 
L 144.396869 293.528176 
L 144.895426 293.995382 
L 146.133696 294.711447 
L 146.398481 292.797252 
L 146.423576 293.576114 
L 146.503195 293.545112 
L 146.728165 293.697768 
L 146.874348 293.184047 
L 147.061074 293.202359 
L 148.482997 294.716229 
L 148.811303 292.845353 
L 148.865973 291.59091 
L 148.977898 293.928455 
L 149.017153 292.486924 
L 149.441114 291.407765 
L 149.741871 294.288307 
L 149.808411 293.280204 
L 150.97699 292.465813 
L 151.042808 293.402394 
L 151.069317 292.241704 
L 151.201684 294.046399 
L 151.254075 292.14879 
L 151.64945 294.096251 
L 151.804491 292.930219 
L 153.460332 292.424406 
L 153.554587 292.2055 
L 153.608492 291.397058 
L 153.754979 293.061064 
L 153.835272 292.952287 
L 153.91506 291.752314 
L 154.221151 293.631518 
L 154.366996 292.761397 
L 155.428772 292.867538 
L 155.547206 293.623166 
L 155.560529 292.077291 
L 155.731003 293.358794 
L 155.885492 291.143206 
L 155.933909 291.505858 
L 156.71207 291.188229 
L 156.778192 292.427742 
L 156.791309 291.14134 
L 157.945311 292.538455 
L 158.927594 292.7108 
L 159.073463 291.641065 
L 159.086017 292.131248 
L 159.111994 293.49736 
L 159.138511 292.189964 
L 160.131017 292.60074 
L 160.143471 292.363591 
L 160.500276 293.337403 
L 160.610533 292.0702 
L 160.715959 291.882809 
L 160.998623 292.529637 
L 161.04465 293.327349 
L 161.058271 291.546215 
L 161.275609 291.715923 
L 161.534461 292.859303 
L 162.656187 292.165306 
L 162.779399 292.502927 
L 162.810019 291.922652 
L 163.014215 291.466504 
L 163.203218 292.756335 
L 163.5622 292.193136 
L 163.680522 292.761677 
L 163.878774 291.870539 
L 164.948508 291.611089 
L 165.080234 292.270771 
L 165.344373 291.591517 
L 165.384734 291.035899 
L 165.947824 292.007192 
L 166.174066 291.699827 
L 167.391712 291.230219 
L 167.405606 291.730363 
L 167.657534 291.405689 
L 167.671101 291.859411 
L 167.710126 291.553469 
L 167.828837 292.033155 
L 167.973809 293.38926 
L 168.312824 292.433621 
L 168.3525 293.118753 
L 168.512209 292.158495 
L 168.605346 293.814033 
L 170.013799 290.801037 
L 170.406104 292.377471 
L 170.519507 291.286438 
L 170.578059 291.405782 
L 170.698629 292.175897 
L 170.717855 292.01405 
L 170.856279 290.99223 
L 172.241177 290.722563 
L 172.313454 290.245233 
L 172.582336 291.777018 
L 172.863964 289.837886 
L 173.018277 291.652052 
L 173.176699 291.514186 
L 173.249439 290.603429 
L 173.441974 291.308809 
L 173.538564 292.434297 
L 173.717179 291.642044 
L 173.731717 290.392477 
L 173.91047 290.870926 
L 175.086409 291.200243 
L 175.148336 290.423573 
L 175.193944 291.086497 
L 175.841082 290.004165 
L 176.108026 291.062959 
L 176.441873 290.722633 
L 177.694571 289.734078 
L 178.014861 290.09309 
L 178.228607 291.221424 
L 178.334748 290.458564 
L 178.492877 290.484201 
L 178.519564 291.699057 
L 178.532828 290.398565 
L 180.182511 289.572208 
L 180.313687 290.100928 
L 180.529199 288.550201 
L 180.623612 289.983357 
L 180.864063 290.491433 
L 182.238767 288.473616 
L 182.507001 289.695074 
L 182.533407 290.370246 
L 182.612377 290.264735 
L 182.959069 289.213989 
L 183.026108 290.143384 
L 183.254242 290.430757 
L 184.495031 289.844768 
L 184.599746 289.553149 
L 185.013611 290.269004 
L 185.375968 289.012951 
L 185.689786 290.572123 
L 187.145069 287.984086 
L 187.328974 289.183266 
L 187.547482 288.752941 
L 187.764847 289.662462 
L 187.780659 288.899812 
L 188.086355 290.52878 
L 189.627401 291.074507 
L 189.934924 288.632478 
L 190.003162 289.420741 
L 190.599277 288.572526 
L 190.653154 288.195598 
L 191.721895 289.27625 
L 191.908276 288.285969 
L 191.935235 289.366621 
L 192.758695 288.250371 
L 192.944701 288.455048 
L 193.055706 289.52042 
L 194.229852 288.610316 
L 194.294064 289.415259 
L 194.437938 289.126113 
L 194.572232 288.223124 
L 194.94262 289.323862 
L 194.969726 290.062927 
L 195.022811 289.502248 
L 195.224478 289.680588 
L 196.785557 288.816229 
L 196.825835 288.223031 
L 197.308827 288.885606 
L 197.537735 288.06179 
L 197.57763 289.393751 
L 197.645062 288.373448 
L 197.71132 288.909563 
L 198.96133 288.750329 
L 198.97446 288.154145 
L 199.201435 288.146167 
L 199.242324 288.800483 
L 199.336843 288.24076 
L 199.716522 288.85577 
L 199.812146 289.351785 
L 200.173109 287.861313 
L 201.321094 289.457412 
L 201.454582 287.638114 
L 201.602107 288.461393 
L 201.671457 289.52266 
L 201.925255 289.16801 
L 202.073533 288.173203 
L 202.436032 288.811424 
L 203.69699 289.231741 
L 203.885633 287.439619 
L 204.079884 288.986218 
L 204.385079 288.377553 
L 204.644034 289.143236 
L 204.763346 288.670385 
L 205.979118 288.146726 
L 206.005162 287.617539 
L 206.248369 290.167435 
L 206.331102 289.86252 
L 206.358086 287.615603 
L 206.384686 287.749154 
L 206.545379 288.269733 
L 206.599147 289.22052 
L 207.054323 288.611949 
L 207.093633 287.728322 
L 208.302319 288.261732 
L 208.450626 287.684443 
L 208.477196 289.09931 
L 208.558866 287.475311 
L 208.736531 287.445428 
L 208.982689 287.921498 
L 210.811411 288.267377 
L 210.878166 288.359988 
L 210.975606 286.696471 
L 211.203889 286.866623 
L 211.501004 287.566592 
L 211.607443 287.488607 
L 211.685594 287.867588 
L 212.997502 288.049777 
L 213.77253 286.51034 
L 213.827117 287.821283 
L 214.212374 288.238171 
L 214.328476 287.198178 
L 214.344064 287.60233 
L 215.38919 287.756712 
L 215.535389 287.381907 
L 215.689649 287.524532 
L 215.703634 287.004046 
L 215.722184 287.916599 
L 215.882834 286.864407 
L 217.000397 287.630673 
L 217.262701 286.011269 
L 217.372562 287.5602 
L 217.704837 286.856615 
L 218.978394 286.502549 
L 219.082938 288.014342 
L 219.234123 287.816314 
L 219.300865 286.375786 
L 219.803879 287.267182 
L 220.013292 287.245604 
L 220.092618 287.36994 
L 220.136796 287.815451 
L 220.232541 287.5044 
L 220.39812 287.592065 
L 221.508823 287.695943 
L 221.562903 287.402715 
L 221.928918 287.136827 
L 222.132922 287.889913 
L 222.298583 287.469152 
L 222.506733 287.893225 
L 224.138756 286.31917 
L 224.359338 287.099409 
L 224.542956 286.106119 
L 224.648217 284.916527 
L 224.844492 286.703936 
L 225.189925 285.612203 
L 226.393857 287.20681 
L 226.727228 286.371867 
L 227.115465 288.053416 
L 227.155524 287.011721 
L 227.504349 285.425162 
L 228.754713 286.613332 
L 228.808192 286.366992 
L 229.14599 286.801656 
L 229.239367 287.420957 
L 229.413868 285.052317 
L 229.495338 287.12542 
L 229.843978 285.953416 
L 231.049299 286.656558 
L 231.157178 287.101369 
L 231.170278 285.744214 
L 231.469792 286.015748 
L 231.523549 286.442853 
L 231.709009 286.19579 
L 231.88625 286.19936 
L 231.984897 286.619513 
L 232.174665 285.583883 
L 232.256631 286.734542 
L 233.553644 286.433102 
L 233.567394 286.845628 
L 233.822496 285.439019 
L 233.862729 285.616146 
L 233.984774 286.313548 
L 234.483017 286.880176 
L 235.692298 285.87149 
L 235.838761 286.584639 
L 236.099768 286.592033 
L 236.239544 286.399534 
L 236.253 285.454135 
L 236.34346 286.03203 
L 236.45191 287.049208 
L 236.50766 286.68994 
L 236.539003 286.45825 
L 236.902493 284.762285 
L 236.918936 286.684691 
L 237.005674 286.124595 
L 237.146963 285.459501 
L 238.203604 285.833349 
L 238.61214 285.530533 
L 238.751815 285.620088 
L 238.800354 286.482254 
L 239.077957 285.459757 
L 239.094868 286.487339 
L 239.126103 286.106819 
L 239.206242 285.174764 
L 239.352259 286.452558 
L 239.705086 285.806126 
L 240.832285 286.459276 
L 240.85329 286.399977 
L 240.993671 285.943805 
L 241.27634 286.136935 
L 241.533168 285.629862 
L 242.250172 286.085264 
L 243.419219 285.620205 
L 243.462231 286.220728 
L 243.879973 285.593075 
L 243.893264 286.079852 
L 244.125562 286.171833 
L 244.32807 284.276183 
L 244.564986 285.798404 
L 245.760741 284.94235 
L 246.001737 286.341565 
L 246.068642 285.982506 
L 246.107974 286.099984 
L 246.134204 286.516335 
L 246.322256 285.329799 
L 246.37665 286.76986 
L 246.566285 284.907102 
L 246.836339 285.311114 
L 246.944435 286.67403 
L 247.077372 286.108965 
L 248.234261 286.679582 
L 248.541817 285.98113 
L 248.614232 285.517726 
L 249.521947 285.918845 
L 250.550282 286.27998 
L 250.60274 285.547142 
L 250.979765 285.778156 
L 251.572456 285.516513 
L 251.692202 286.089323 
L 251.818791 284.812322 
L 253.292161 284.921426 
L 253.443879 285.604598 
L 253.604459 285.594381 
L 253.729566 285.114765 
L 253.837725 286.534554 
L 255.639183 286.476328 
L 255.733067 284.915104 
L 255.964265 285.934918 
L 256.061126 285.471094 
L 256.382651 285.896964 
L 256.435757 284.530291 
L 256.624391 285.731851 
L 257.851227 285.198604 
L 257.942821 284.977319 
L 258.133389 285.314869 
L 258.532364 285.287389 
L 258.746614 284.295639 
L 258.895281 284.646556 
L 259.016307 285.27085 
L 260.116301 285.047301 
L 260.388345 284.578416 
L 260.456904 285.154515 
L 260.483418 284.589777 
L 260.564955 284.857531 
L 260.745638 286.096601 
L 260.869935 285.127992 
L 260.920004 285.8173 
L 261.088475 284.878479 
L 261.115456 286.350872 
L 262.810101 284.719828 
L 262.958321 286.430093 
L 263.06897 284.657847 
L 263.283432 283.567164 
L 263.352967 285.224708 
L 263.380454 284.568175 
L 263.634818 285.932118 
L 263.773349 284.792587 
L 263.785985 285.677217 
L 264.872813 285.785691 
L 264.926627 284.590873 
L 264.940662 285.20124 
L 265.145425 285.650367 
L 265.564178 285.981643 
L 265.724051 285.821172 
L 265.81974 284.810993 
L 265.886045 285.018375 
L 266.077439 284.711197 
L 267.201569 285.720163 
L 267.56274 284.049159 
L 267.677253 285.935804 
L 267.832984 284.566729 
L 268.76202 285.01329 
L 268.837892 285.113972 
L 268.958983 284.893059 
L 268.980508 284.099593 
L 269.141523 285.780279 
L 270.93592 284.921589 
L 271.228593 284.627707 
L 272.00041 285.470605 
L 272.10527 285.38077 
L 272.593724 285.264738 
L 273.652901 284.778567 
L 273.885158 285.371229 
L 273.925936 284.582685 
L 273.966368 285.262569 
L 274.245889 284.977785 
L 274.392205 284.505914 
L 274.726104 285.169305 
L 274.821321 285.004169 
L 276.04069 285.46041 
L 276.067281 283.692526 
L 276.107888 284.35657 
L 276.41374 285.561466 
L 276.479626 284.751274 
L 276.735645 285.458567 
L 276.790337 283.950973 
L 277.017958 284.989519 
L 277.277574 284.885874 
L 277.358649 285.248152 
L 278.511995 284.094438 
L 278.552073 285.05241 
L 278.753632 285.075411 
L 278.766557 284.657007 
L 279.132849 284.958447 
L 279.240801 285.850238 
L 279.376773 284.726313 
L 279.522858 284.612894 
L 280.807239 285.015413 
L 281.037042 285.354013 
L 281.050588 284.847197 
L 281.480688 285.622724 
L 281.494526 285.205766 
L 281.575145 285.838901 
L 283.297926 284.481303 
L 283.325488 285.410699 
L 283.565509 284.979465 
L 283.947629 284.347473 
L 284.360698 284.812346 
L 285.57027 284.981658 
L 285.596933 285.668073 
L 285.623845 284.388716 
L 285.691198 285.538861 
L 286.197599 284.204661 
L 286.34565 284.19666 
L 286.358976 284.900034 
L 286.413374 284.293936 
L 288.362922 285.080987 
L 288.809938 284.2362 
L 288.90805 286.285695 
L 288.923671 283.885702 
L 289.358019 283.917195 
L 289.4725 285.40874 
L 289.640566 285.254871 
L 295.108295 285.552251 
L 295.146411 284.987629 
L 295.473642 285.635554 
L 295.854465 284.695591 
L 296.109272 285.413802 
L 296.225201 285.314216 
L 296.970491 285.585073 
L 297.04006 285.919731 
L 300.297139 286.128117 
L 300.646948 285.16352 
L 300.965472 283.958578 
L 301.151715 285.975718 
L 301.962813 284.933416 
L 302.138853 283.736779 
L 302.173587 286.570619 
L 302.314294 285.087752 
L 302.956222 284.366485 
L 303.162243 285.605088 
L 303.297534 284.762704 
L 305.868623 285.214141 
L 307.317589 285.21568 
L 307.597007 285.635484 
L 307.630346 284.934256 
L 307.820764 285.638587 
L 307.885317 285.540261 
L 308.183058 286.012832 
L 312.648132 285.023134 
L 313.883377 285.630702 
L 314.201767 285.752402 
L 315.147985 286.540573 
L 319.255389 285.670546 
L 319.592098 284.757316 
L 320.784688 285.730731 
L 321.033834 285.082153 
L 321.116165 285.994753 
L 321.492046 285.429735 
L 325.412679 285.607748 
L 325.574766 285.044759 
L 326.754808 286.070964 
L 326.787846 285.607094 
L 326.855727 285.907554 
L 327.242949 286.994132 
L 327.307089 286.470823 
L 327.730004 286.445536 
L 328.036187 285.240897 
L 331.442522 285.145884 
L 331.602114 286.479151 
L 331.631598 285.80335 
L 332.294623 285.99382 
L 332.612857 286.194927 
L 333.431173 285.992187 
L 334.234599 286.197307 
L 337.725036 285.782821 
L 338.774923 285.059548 
L 339.110367 286.168824 
L 339.386146 284.922172 
L 339.935942 285.85873 
L 340.07408 285.658625 
L 340.253271 286.010196 
L 340.318251 286.816912 
L 340.479706 285.392924 
L 344.881506 285.497011 
L 345.106906 286.042365 
L 345.330067 285.745031 
L 345.635976 285.579218 
L 346.284679 286.062146 
L 346.799575 286.020157 
L 346.832299 287.09801 
L 346.848307 284.82023 
L 346.881155 286.167074 
L 350.310947 285.295251 
L 350.439053 286.394495 
L 350.599296 286.799346 
L 350.791625 284.397814 
L 350.953587 285.871396 
L 351.210586 284.892663 
L 351.891431 287.155559 
L 352.346159 286.119183 
L 352.703085 286.118903 
L 353.023427 285.6942 
L 353.151121 286.73025 
L 353.185865 285.742045 
L 356.573513 284.989029 
L 356.90673 286.089346 
L 357.207608 285.792036 
L 357.736805 286.198753 
L 357.772348 285.82936 
L 358.162633 285.293921 
L 359.201264 285.373305 
L 362.063228 285.867594 
L 362.596776 286.527579 
L 362.626616 285.521879 
L 363.055026 285.96466 
L 363.477335 285.81646 
L 363.499529 286.273308 
L 363.720995 285.047371 
L 363.76916 285.294481 
L 363.801811 285.932515 
L 364.315349 285.374052 
L 367.19637 285.248059 
L 367.339285 284.459515 
L 367.443491 285.983976 
L 369.004693 286.250027 
L 369.036003 286.269902 
L 369.06708 285.46104 
L 369.257424 284.790044 
L 369.81294 286.383368 
L 369.994854 286.241536 
L 370.026628 285.935781 
L 373.628297 285.287133 
L 373.790123 287.006355 
L 373.871344 285.805496 
L 374.157504 285.828637 
L 374.466552 286.908776 
L 375.507884 286.153871 
L 379.451548 285.91089 
L 379.541705 286.247788 
L 379.816659 285.870533 
L 380.685543 287.040484 
L 380.813801 286.127021 
L 381.106086 286.781874 
L 381.748205 285.175533 
L 381.810595 286.179391 
L 386.06811 286.800886 
L 386.374823 286.310562 
L 386.475874 286.459066 
L 386.577525 286.176545 
L 386.909595 286.378072 
L 387.071653 286.821017 
L 387.528245 286.392536 
L 387.832758 285.452946 
L 388.241814 286.172743 
L 388.377309 286.181817 
L 392.620569 286.116593 
L 393.254312 286.391089 
L 393.543816 285.756181 
L 394.125376 286.97505 
L 395.005976 285.766376 
L 395.799253 286.638712 
L 399.056074 286.653548 
L 399.088608 285.618175 
L 400.710162 286.476958 
L 401.007432 287.11196 
L 401.107598 286.012879 
L 401.396986 286.065319 
L 401.927931 286.7414 
L 405.583046 287.273783 
L 406.692161 285.80342 
L 407.340459 286.136981 
L 407.567141 285.997062 
L 407.793549 285.341603 
L 407.963583 285.227134 
L 412.153442 286.396221 
L 412.425906 286.646597 
L 412.521542 286.501779 
L 413.193248 287.034139 
L 413.964846 286.212843 
L 414.065761 287.19279 
L 414.356615 287.580425 
L 414.385297 286.452581 
L 414.398621 286.662133 
L 414.546298 285.104804 
L 414.625989 287.304902 
L 414.72 286.264537 
L 414.72 286.264537 
" style="fill:none;stroke:#000000;stroke-linecap:square;stroke-width:0.8;"/>
   </g>
   <g id="patch_3">
    <path d="M 57.6 307.584 
L 57.6 41.472 
" style="fill:none;stroke:#000000;stroke-linecap:square;stroke-linejoin:miter;stroke-width:0.8;"/>
   </g>
   <g id="patch_4">
    <path d="M 414.72 307.584 
L 414.72 41.472 
" style="fill:none;stroke:#000000;stroke-linecap:square;stroke-linejoin:miter;stroke-width:0.8;"/>
   </g>
   <g id="patch_5">
    <path d="M 57.6 307.584 
L 414.72 307.584 
" style="fill:none;stroke:#000000;stroke-linecap:square;stroke-linejoin:miter;stroke-width:0.8;"/>
   </g>
   <g id="patch_6">
    <path d="M 57.6 41.472 
L 414.72 41.472 
" style="fill:none;stroke:#000000;stroke-linecap:square;stroke-linejoin:miter;stroke-width:0.8;"/>
   </g>
  </g>
  <g id="axes_2">
   <g id="matplotlib.axis_3">
    <g id="xtick_7">
     <g id="line2d_26">
      <defs>
       <path d="M 0 0 
L 0 -3.5 
" id="m56f8955eea" style="stroke:#000000;stroke-width:0.8;"/>
      </defs>
      <g>
       <use style="stroke:#000000;stroke-width:0.8;" x="57.6" xlink:href="#m56f8955eea" y="41.472"/>
      </g>
     </g>
    </g>
    <g id="xtick_8">
     <g id="line2d_27">
      <g>
       <use style="stroke:#000000;stroke-width:0.8;" x="114.739657" xlink:href="#m56f8955eea" y="41.472"/>
      </g>
     </g>
     <g id="text_15">
      <!-- 20.0K -->
      <defs>
       <path d="M 9.8125 72.90625 
L 19.671875 72.90625 
L 19.671875 42.09375 
L 52.390625 72.90625 
L 65.09375 72.90625 
L 28.90625 38.921875 
L 67.671875 0 
L 54.6875 0 
L 19.671875 35.109375 
L 19.671875 0 
L 9.8125 0 
z
" id="DejaVuSans-75"/>
      </defs>
      <g transform="translate(100.327938 32.392313)scale(0.1 -0.1)">
       <use xlink:href="#DejaVuSans-50"/>
       <use x="63.623047" xlink:href="#DejaVuSans-48"/>
       <use x="127.246094" xlink:href="#DejaVuSans-46"/>
       <use x="159.033203" xlink:href="#DejaVuSans-48"/>
       <use x="222.65625" xlink:href="#DejaVuSans-75"/>
      </g>
     </g>
    </g>
    <g id="xtick_9">
     <g id="line2d_28">
      <g>
       <use style="stroke:#000000;stroke-width:0.8;" x="171.879314" xlink:href="#m56f8955eea" y="41.472"/>
      </g>
     </g>
     <g id="text_16">
      <!-- 40.0K -->
      <g transform="translate(157.467595 32.392313)scale(0.1 -0.1)">
       <use xlink:href="#DejaVuSans-52"/>
       <use x="63.623047" xlink:href="#DejaVuSans-48"/>
       <use x="127.246094" xlink:href="#DejaVuSans-46"/>
       <use x="159.033203" xlink:href="#DejaVuSans-48"/>
       <use x="222.65625" xlink:href="#DejaVuSans-75"/>
      </g>
     </g>
    </g>
    <g id="xtick_10">
     <g id="line2d_29">
      <g>
       <use style="stroke:#000000;stroke-width:0.8;" x="229.018971" xlink:href="#m56f8955eea" y="41.472"/>
      </g>
     </g>
     <g id="text_17">
      <!-- 60.0K -->
      <g transform="translate(214.607253 32.392313)scale(0.1 -0.1)">
       <use xlink:href="#DejaVuSans-54"/>
       <use x="63.623047" xlink:href="#DejaVuSans-48"/>
       <use x="127.246094" xlink:href="#DejaVuSans-46"/>
       <use x="159.033203" xlink:href="#DejaVuSans-48"/>
       <use x="222.65625" xlink:href="#DejaVuSans-75"/>
      </g>
     </g>
    </g>
    <g id="xtick_11">
     <g id="line2d_30">
      <g>
       <use style="stroke:#000000;stroke-width:0.8;" x="286.158628" xlink:href="#m56f8955eea" y="41.472"/>
      </g>
     </g>
     <g id="text_18">
      <!-- 80.0K -->
      <g transform="translate(271.74691 32.392313)scale(0.1 -0.1)">
       <use xlink:href="#DejaVuSans-56"/>
       <use x="63.623047" xlink:href="#DejaVuSans-48"/>
       <use x="127.246094" xlink:href="#DejaVuSans-46"/>
       <use x="159.033203" xlink:href="#DejaVuSans-48"/>
       <use x="222.65625" xlink:href="#DejaVuSans-75"/>
      </g>
     </g>
    </g>
    <g id="xtick_12">
     <g id="line2d_31">
      <g>
       <use style="stroke:#000000;stroke-width:0.8;" x="343.298286" xlink:href="#m56f8955eea" y="41.472"/>
      </g>
     </g>
     <g id="text_19">
      <!-- 100K -->
      <g transform="translate(330.475629 32.392313)scale(0.1 -0.1)">
       <use xlink:href="#DejaVuSans-49"/>
       <use x="63.623047" xlink:href="#DejaVuSans-48"/>
       <use x="127.246094" xlink:href="#DejaVuSans-48"/>
       <use x="190.869141" xlink:href="#DejaVuSans-75"/>
      </g>
     </g>
    </g>
    <g id="xtick_13">
     <g id="line2d_32">
      <g>
       <use style="stroke:#000000;stroke-width:0.8;" x="400.437943" xlink:href="#m56f8955eea" y="41.472"/>
      </g>
     </g>
     <g id="text_20">
      <!-- 120K -->
      <g transform="translate(387.615286 32.392313)scale(0.1 -0.1)">
       <use xlink:href="#DejaVuSans-49"/>
       <use x="63.623047" xlink:href="#DejaVuSans-50"/>
       <use x="127.246094" xlink:href="#DejaVuSans-48"/>
       <use x="190.869141" xlink:href="#DejaVuSans-75"/>
      </g>
     </g>
    </g>
    <g id="text_21">
     <!-- Steps -->
     <defs>
      <path d="M 53.515625 70.515625 
L 53.515625 60.890625 
Q 47.90625 63.578125 42.921875 64.890625 
Q 37.9375 66.21875 33.296875 66.21875 
Q 25.25 66.21875 20.875 63.09375 
Q 16.5 59.96875 16.5 54.203125 
Q 16.5 49.359375 19.40625 46.890625 
Q 22.3125 44.4375 30.421875 42.921875 
L 36.375 41.703125 
Q 47.40625 39.59375 52.65625 34.296875 
Q 57.90625 29 57.90625 20.125 
Q 57.90625 9.515625 50.796875 4.046875 
Q 43.703125 -1.421875 29.984375 -1.421875 
Q 24.8125 -1.421875 18.96875 -0.25 
Q 13.140625 0.921875 6.890625 3.21875 
L 6.890625 13.375 
Q 12.890625 10.015625 18.65625 8.296875 
Q 24.421875 6.59375 29.984375 6.59375 
Q 38.421875 6.59375 43.015625 9.90625 
Q 47.609375 13.234375 47.609375 19.390625 
Q 47.609375 24.75 44.3125 27.78125 
Q 41.015625 30.8125 33.5 32.328125 
L 27.484375 33.5 
Q 16.453125 35.6875 11.515625 40.375 
Q 6.59375 45.0625 6.59375 53.421875 
Q 6.59375 63.09375 13.40625 68.65625 
Q 20.21875 74.21875 32.171875 74.21875 
Q 37.3125 74.21875 42.625 73.28125 
Q 47.953125 72.359375 53.515625 70.515625 
z
" id="DejaVuSans-83"/>
      <path d="M 18.3125 70.21875 
L 18.3125 54.6875 
L 36.8125 54.6875 
L 36.8125 47.703125 
L 18.3125 47.703125 
L 18.3125 18.015625 
Q 18.3125 11.328125 20.140625 9.421875 
Q 21.96875 7.515625 27.59375 7.515625 
L 36.8125 7.515625 
L 36.8125 0 
L 27.59375 0 
Q 17.1875 0 13.234375 3.875 
Q 9.28125 7.765625 9.28125 18.015625 
L 9.28125 47.703125 
L 2.6875 47.703125 
L 2.6875 54.6875 
L 9.28125 54.6875 
L 9.28125 70.21875 
z
" id="DejaVuSans-116"/>
      <path d="M 56.203125 29.59375 
L 56.203125 25.203125 
L 14.890625 25.203125 
Q 15.484375 15.921875 20.484375 11.0625 
Q 25.484375 6.203125 34.421875 6.203125 
Q 39.59375 6.203125 44.453125 7.46875 
Q 49.3125 8.734375 54.109375 11.28125 
L 54.109375 2.78125 
Q 49.265625 0.734375 44.1875 -0.34375 
Q 39.109375 -1.421875 33.890625 -1.421875 
Q 20.796875 -1.421875 13.15625 6.1875 
Q 5.515625 13.8125 5.515625 26.8125 
Q 5.515625 40.234375 12.765625 48.109375 
Q 20.015625 56 32.328125 56 
Q 43.359375 56 49.78125 48.890625 
Q 56.203125 41.796875 56.203125 29.59375 
z
M 47.21875 32.234375 
Q 47.125 39.59375 43.09375 43.984375 
Q 39.0625 48.390625 32.421875 48.390625 
Q 24.90625 48.390625 20.390625 44.140625 
Q 15.875 39.890625 15.1875 32.171875 
z
" id="DejaVuSans-101"/>
      <path d="M 18.109375 8.203125 
L 18.109375 -20.796875 
L 9.078125 -20.796875 
L 9.078125 54.6875 
L 18.109375 54.6875 
L 18.109375 46.390625 
Q 20.953125 51.265625 25.265625 53.625 
Q 29.59375 56 35.59375 56 
Q 45.5625 56 51.78125 48.09375 
Q 58.015625 40.1875 58.015625 27.296875 
Q 58.015625 14.40625 51.78125 6.484375 
Q 45.5625 -1.421875 35.59375 -1.421875 
Q 29.59375 -1.421875 25.265625 0.953125 
Q 20.953125 3.328125 18.109375 8.203125 
z
M 48.6875 27.296875 
Q 48.6875 37.203125 44.609375 42.84375 
Q 40.53125 48.484375 33.40625 48.484375 
Q 26.265625 48.484375 22.1875 42.84375 
Q 18.109375 37.203125 18.109375 27.296875 
Q 18.109375 17.390625 22.1875 11.75 
Q 26.265625 6.109375 33.40625 6.109375 
Q 40.53125 6.109375 44.609375 11.75 
Q 48.6875 17.390625 48.6875 27.296875 
z
" id="DejaVuSans-112"/>
     </defs>
     <g transform="translate(222.170156 20.793875)scale(0.1 -0.1)">
      <use xlink:href="#DejaVuSans-83"/>
      <use x="63.476562" xlink:href="#DejaVuSans-116"/>
      <use x="102.685547" xlink:href="#DejaVuSans-101"/>
      <use x="164.208984" xlink:href="#DejaVuSans-112"/>
      <use x="227.685547" xlink:href="#DejaVuSans-115"/>
     </g>
    </g>
   </g>
   <g id="patch_7">
    <path d="M 57.6 307.584 
L 57.6 41.472 
" style="fill:none;stroke:#000000;stroke-linecap:square;stroke-linejoin:miter;stroke-width:0.8;"/>
   </g>
   <g id="patch_8">
    <path d="M 414.72 307.584 
L 414.72 41.472 
" style="fill:none;stroke:#000000;stroke-linecap:square;stroke-linejoin:miter;stroke-width:0.8;"/>
   </g>
   <g id="patch_9">
    <path d="M 57.6 307.584 
L 414.72 307.584 
" style="fill:none;stroke:#000000;stroke-linecap:square;stroke-linejoin:miter;stroke-width:0.8;"/>
   </g>
   <g id="patch_10">
    <path d="M 57.6 41.472 
L 414.72 41.472 
" style="fill:none;stroke:#000000;stroke-linecap:square;stroke-linejoin:miter;stroke-width:0.8;"/>
   </g>
  </g>
 </g>
 <defs>
  <clipPath id="p7e796fabad">
   <rect height="266.112" width="357.12" x="57.6" y="41.472"/>
  </clipPath>
 </defs>
</svg>
