<?xml version="1.0" encoding="utf-8" standalone="no"?>
<!DOCTYPE svg PUBLIC "-//W3C//DTD SVG 1.1//EN"
  "http://www.w3.org/Graphics/SVG/1.1/DTD/svg11.dtd">
<!-- Created with matplotlib (https://matplotlib.org/) -->
<svg height="345.6pt" version="1.1" viewBox="0 0 460.8 345.6" width="460.8pt" xmlns="http://www.w3.org/2000/svg" xmlns:xlink="http://www.w3.org/1999/xlink">
 <defs>
  <style type="text/css">
*{stroke-linecap:butt;stroke-linejoin:round;}
  </style>
 </defs>
 <g id="figure_1">
  <g id="patch_1">
   <path d="M 0 345.6 
L 460.8 345.6 
L 460.8 0 
L 0 0 
z
" style="fill:#ffffff;"/>
  </g>
  <g id="axes_1">
   <g id="patch_2">
    <path d="M 57.6 307.584 
L 414.72 307.584 
L 414.72 41.472 
L 57.6 41.472 
z
" style="fill:#ffffff;"/>
   </g>
   <g id="matplotlib.axis_1">
    <g id="xtick_1">
     <g id="line2d_1">
      <path clip-path="url(#pb18233037b)" d="M 57.6 307.584 
L 57.6 41.472 
" style="fill:none;stroke:#b0b0b0;stroke-linecap:square;stroke-width:0.8;"/>
     </g>
     <g id="line2d_2">
      <defs>
       <path d="M 0 0 
L 0 3.5 
" id="m614a35cc91" style="stroke:#000000;stroke-width:0.8;"/>
      </defs>
      <g>
       <use style="stroke:#000000;stroke-width:0.8;" x="57.6" xlink:href="#m614a35cc91" y="307.584"/>
      </g>
     </g>
     <g id="text_1">
      <!-- 0.0 -->
      <defs>
       <path d="M 31.78125 66.40625 
Q 24.171875 66.40625 20.328125 58.90625 
Q 16.5 51.421875 16.5 36.375 
Q 16.5 21.390625 20.328125 13.890625 
Q 24.171875 6.390625 31.78125 6.390625 
Q 39.453125 6.390625 43.28125 13.890625 
Q 47.125 21.390625 47.125 36.375 
Q 47.125 51.421875 43.28125 58.90625 
Q 39.453125 66.40625 31.78125 66.40625 
z
M 31.78125 74.21875 
Q 44.046875 74.21875 50.515625 64.515625 
Q 56.984375 54.828125 56.984375 36.375 
Q 56.984375 17.96875 50.515625 8.265625 
Q 44.046875 -1.421875 31.78125 -1.421875 
Q 19.53125 -1.421875 13.0625 8.265625 
Q 6.59375 17.96875 6.59375 36.375 
Q 6.59375 54.828125 13.0625 64.515625 
Q 19.53125 74.21875 31.78125 74.21875 
z
" id="DejaVuSans-48"/>
       <path d="M 10.6875 12.40625 
L 21 12.40625 
L 21 0 
L 10.6875 0 
z
" id="DejaVuSans-46"/>
      </defs>
      <g transform="translate(49.648438 322.182437)scale(0.1 -0.1)">
       <use xlink:href="#DejaVuSans-48"/>
       <use x="63.623047" xlink:href="#DejaVuSans-46"/>
       <use x="95.410156" xlink:href="#DejaVuSans-48"/>
      </g>
     </g>
    </g>
    <g id="xtick_2">
     <g id="line2d_3">
      <path clip-path="url(#pb18233037b)" d="M 127.266204 307.584 
L 127.266204 41.472 
" style="fill:none;stroke:#b0b0b0;stroke-linecap:square;stroke-width:0.8;"/>
     </g>
     <g id="line2d_4">
      <g>
       <use style="stroke:#000000;stroke-width:0.8;" x="127.266204" xlink:href="#m614a35cc91" y="307.584"/>
      </g>
     </g>
     <g id="text_2">
      <!-- 0.1 -->
      <defs>
       <path d="M 12.40625 8.296875 
L 28.515625 8.296875 
L 28.515625 63.921875 
L 10.984375 60.40625 
L 10.984375 69.390625 
L 28.421875 72.90625 
L 38.28125 72.90625 
L 38.28125 8.296875 
L 54.390625 8.296875 
L 54.390625 0 
L 12.40625 0 
z
" id="DejaVuSans-49"/>
      </defs>
      <g transform="translate(119.314642 322.182437)scale(0.1 -0.1)">
       <use xlink:href="#DejaVuSans-48"/>
       <use x="63.623047" xlink:href="#DejaVuSans-46"/>
       <use x="95.410156" xlink:href="#DejaVuSans-49"/>
      </g>
     </g>
    </g>
    <g id="xtick_3">
     <g id="line2d_5">
      <path clip-path="url(#pb18233037b)" d="M 196.932408 307.584 
L 196.932408 41.472 
" style="fill:none;stroke:#b0b0b0;stroke-linecap:square;stroke-width:0.8;"/>
     </g>
     <g id="line2d_6">
      <g>
       <use style="stroke:#000000;stroke-width:0.8;" x="196.932408" xlink:href="#m614a35cc91" y="307.584"/>
      </g>
     </g>
     <g id="text_3">
      <!-- 0.2 -->
      <defs>
       <path d="M 19.1875 8.296875 
L 53.609375 8.296875 
L 53.609375 0 
L 7.328125 0 
L 7.328125 8.296875 
Q 12.9375 14.109375 22.625 23.890625 
Q 32.328125 33.6875 34.8125 36.53125 
Q 39.546875 41.84375 41.421875 45.53125 
Q 43.3125 49.21875 43.3125 52.78125 
Q 43.3125 58.59375 39.234375 62.25 
Q 35.15625 65.921875 28.609375 65.921875 
Q 23.96875 65.921875 18.8125 64.3125 
Q 13.671875 62.703125 7.8125 59.421875 
L 7.8125 69.390625 
Q 13.765625 71.78125 18.9375 73 
Q 24.125 74.21875 28.421875 74.21875 
Q 39.75 74.21875 46.484375 68.546875 
Q 53.21875 62.890625 53.21875 53.421875 
Q 53.21875 48.921875 51.53125 44.890625 
Q 49.859375 40.875 45.40625 35.40625 
Q 44.1875 33.984375 37.640625 27.21875 
Q 31.109375 20.453125 19.1875 8.296875 
z
" id="DejaVuSans-50"/>
      </defs>
      <g transform="translate(188.980846 322.182437)scale(0.1 -0.1)">
       <use xlink:href="#DejaVuSans-48"/>
       <use x="63.623047" xlink:href="#DejaVuSans-46"/>
       <use x="95.410156" xlink:href="#DejaVuSans-50"/>
      </g>
     </g>
    </g>
    <g id="xtick_4">
     <g id="line2d_7">
      <path clip-path="url(#pb18233037b)" d="M 266.598613 307.584 
L 266.598613 41.472 
" style="fill:none;stroke:#b0b0b0;stroke-linecap:square;stroke-width:0.8;"/>
     </g>
     <g id="line2d_8">
      <g>
       <use style="stroke:#000000;stroke-width:0.8;" x="266.598613" xlink:href="#m614a35cc91" y="307.584"/>
      </g>
     </g>
     <g id="text_4">
      <!-- 0.3 -->
      <defs>
       <path d="M 40.578125 39.3125 
Q 47.65625 37.796875 51.625 33 
Q 55.609375 28.21875 55.609375 21.1875 
Q 55.609375 10.40625 48.1875 4.484375 
Q 40.765625 -1.421875 27.09375 -1.421875 
Q 22.515625 -1.421875 17.65625 -0.515625 
Q 12.796875 0.390625 7.625 2.203125 
L 7.625 11.71875 
Q 11.71875 9.328125 16.59375 8.109375 
Q 21.484375 6.890625 26.8125 6.890625 
Q 36.078125 6.890625 40.9375 10.546875 
Q 45.796875 14.203125 45.796875 21.1875 
Q 45.796875 27.640625 41.28125 31.265625 
Q 36.765625 34.90625 28.71875 34.90625 
L 20.21875 34.90625 
L 20.21875 43.015625 
L 29.109375 43.015625 
Q 36.375 43.015625 40.234375 45.921875 
Q 44.09375 48.828125 44.09375 54.296875 
Q 44.09375 59.90625 40.109375 62.90625 
Q 36.140625 65.921875 28.71875 65.921875 
Q 24.65625 65.921875 20.015625 65.03125 
Q 15.375 64.15625 9.8125 62.3125 
L 9.8125 71.09375 
Q 15.4375 72.65625 20.34375 73.4375 
Q 25.25 74.21875 29.59375 74.21875 
Q 40.828125 74.21875 47.359375 69.109375 
Q 53.90625 64.015625 53.90625 55.328125 
Q 53.90625 49.265625 50.4375 45.09375 
Q 46.96875 40.921875 40.578125 39.3125 
z
" id="DejaVuSans-51"/>
      </defs>
      <g transform="translate(258.64705 322.182437)scale(0.1 -0.1)">
       <use xlink:href="#DejaVuSans-48"/>
       <use x="63.623047" xlink:href="#DejaVuSans-46"/>
       <use x="95.410156" xlink:href="#DejaVuSans-51"/>
      </g>
     </g>
    </g>
    <g id="xtick_5">
     <g id="line2d_9">
      <path clip-path="url(#pb18233037b)" d="M 336.264817 307.584 
L 336.264817 41.472 
" style="fill:none;stroke:#b0b0b0;stroke-linecap:square;stroke-width:0.8;"/>
     </g>
     <g id="line2d_10">
      <g>
       <use style="stroke:#000000;stroke-width:0.8;" x="336.264817" xlink:href="#m614a35cc91" y="307.584"/>
      </g>
     </g>
     <g id="text_5">
      <!-- 0.4 -->
      <defs>
       <path d="M 37.796875 64.3125 
L 12.890625 25.390625 
L 37.796875 25.390625 
z
M 35.203125 72.90625 
L 47.609375 72.90625 
L 47.609375 25.390625 
L 58.015625 25.390625 
L 58.015625 17.1875 
L 47.609375 17.1875 
L 47.609375 0 
L 37.796875 0 
L 37.796875 17.1875 
L 4.890625 17.1875 
L 4.890625 26.703125 
z
" id="DejaVuSans-52"/>
      </defs>
      <g transform="translate(328.313254 322.182437)scale(0.1 -0.1)">
       <use xlink:href="#DejaVuSans-48"/>
       <use x="63.623047" xlink:href="#DejaVuSans-46"/>
       <use x="95.410156" xlink:href="#DejaVuSans-52"/>
      </g>
     </g>
    </g>
    <g id="xtick_6">
     <g id="line2d_11">
      <path clip-path="url(#pb18233037b)" d="M 405.931021 307.584 
L 405.931021 41.472 
" style="fill:none;stroke:#b0b0b0;stroke-linecap:square;stroke-width:0.8;"/>
     </g>
     <g id="line2d_12">
      <g>
       <use style="stroke:#000000;stroke-width:0.8;" x="405.931021" xlink:href="#m614a35cc91" y="307.584"/>
      </g>
     </g>
     <g id="text_6">
      <!-- 0.5 -->
      <defs>
       <path d="M 10.796875 72.90625 
L 49.515625 72.90625 
L 49.515625 64.59375 
L 19.828125 64.59375 
L 19.828125 46.734375 
Q 21.96875 47.46875 24.109375 47.828125 
Q 26.265625 48.1875 28.421875 48.1875 
Q 40.625 48.1875 47.75 41.5 
Q 54.890625 34.8125 54.890625 23.390625 
Q 54.890625 11.625 47.5625 5.09375 
Q 40.234375 -1.421875 26.90625 -1.421875 
Q 22.3125 -1.421875 17.546875 -0.640625 
Q 12.796875 0.140625 7.71875 1.703125 
L 7.71875 11.625 
Q 12.109375 9.234375 16.796875 8.0625 
Q 21.484375 6.890625 26.703125 6.890625 
Q 35.15625 6.890625 40.078125 11.328125 
Q 45.015625 15.765625 45.015625 23.390625 
Q 45.015625 31 40.078125 35.4375 
Q 35.15625 39.890625 26.703125 39.890625 
Q 22.75 39.890625 18.8125 39.015625 
Q 14.890625 38.140625 10.796875 36.28125 
z
" id="DejaVuSans-53"/>
      </defs>
      <g transform="translate(397.979459 322.182437)scale(0.1 -0.1)">
       <use xlink:href="#DejaVuSans-48"/>
       <use x="63.623047" xlink:href="#DejaVuSans-46"/>
       <use x="95.410156" xlink:href="#DejaVuSans-53"/>
      </g>
     </g>
    </g>
    <g id="text_7">
     <!-- Hours -->
     <defs>
      <path d="M 9.8125 72.90625 
L 19.671875 72.90625 
L 19.671875 43.015625 
L 55.515625 43.015625 
L 55.515625 72.90625 
L 65.375 72.90625 
L 65.375 0 
L 55.515625 0 
L 55.515625 34.71875 
L 19.671875 34.71875 
L 19.671875 0 
L 9.8125 0 
z
" id="DejaVuSans-72"/>
      <path d="M 30.609375 48.390625 
Q 23.390625 48.390625 19.1875 42.75 
Q 14.984375 37.109375 14.984375 27.296875 
Q 14.984375 17.484375 19.15625 11.84375 
Q 23.34375 6.203125 30.609375 6.203125 
Q 37.796875 6.203125 41.984375 11.859375 
Q 46.1875 17.53125 46.1875 27.296875 
Q 46.1875 37.015625 41.984375 42.703125 
Q 37.796875 48.390625 30.609375 48.390625 
z
M 30.609375 56 
Q 42.328125 56 49.015625 48.375 
Q 55.71875 40.765625 55.71875 27.296875 
Q 55.71875 13.875 49.015625 6.21875 
Q 42.328125 -1.421875 30.609375 -1.421875 
Q 18.84375 -1.421875 12.171875 6.21875 
Q 5.515625 13.875 5.515625 27.296875 
Q 5.515625 40.765625 12.171875 48.375 
Q 18.84375 56 30.609375 56 
z
" id="DejaVuSans-111"/>
      <path d="M 8.5 21.578125 
L 8.5 54.6875 
L 17.484375 54.6875 
L 17.484375 21.921875 
Q 17.484375 14.15625 20.5 10.265625 
Q 23.53125 6.390625 29.59375 6.390625 
Q 36.859375 6.390625 41.078125 11.03125 
Q 45.3125 15.671875 45.3125 23.6875 
L 45.3125 54.6875 
L 54.296875 54.6875 
L 54.296875 0 
L 45.3125 0 
L 45.3125 8.40625 
Q 42.046875 3.421875 37.71875 1 
Q 33.40625 -1.421875 27.6875 -1.421875 
Q 18.265625 -1.421875 13.375 4.4375 
Q 8.5 10.296875 8.5 21.578125 
z
M 31.109375 56 
z
" id="DejaVuSans-117"/>
      <path d="M 41.109375 46.296875 
Q 39.59375 47.171875 37.8125 47.578125 
Q 36.03125 48 33.890625 48 
Q 26.265625 48 22.1875 43.046875 
Q 18.109375 38.09375 18.109375 28.8125 
L 18.109375 0 
L 9.078125 0 
L 9.078125 54.6875 
L 18.109375 54.6875 
L 18.109375 46.1875 
Q 20.953125 51.171875 25.484375 53.578125 
Q 30.03125 56 36.53125 56 
Q 37.453125 56 38.578125 55.875 
Q 39.703125 55.765625 41.0625 55.515625 
z
" id="DejaVuSans-114"/>
      <path d="M 44.28125 53.078125 
L 44.28125 44.578125 
Q 40.484375 46.53125 36.375 47.5 
Q 32.28125 48.484375 27.875 48.484375 
Q 21.1875 48.484375 17.84375 46.4375 
Q 14.5 44.390625 14.5 40.28125 
Q 14.5 37.15625 16.890625 35.375 
Q 19.28125 33.59375 26.515625 31.984375 
L 29.59375 31.296875 
Q 39.15625 29.25 43.1875 25.515625 
Q 47.21875 21.78125 47.21875 15.09375 
Q 47.21875 7.46875 41.1875 3.015625 
Q 35.15625 -1.421875 24.609375 -1.421875 
Q 20.21875 -1.421875 15.453125 -0.5625 
Q 10.6875 0.296875 5.421875 2 
L 5.421875 11.28125 
Q 10.40625 8.6875 15.234375 7.390625 
Q 20.0625 6.109375 24.8125 6.109375 
Q 31.15625 6.109375 34.5625 8.28125 
Q 37.984375 10.453125 37.984375 14.40625 
Q 37.984375 18.0625 35.515625 20.015625 
Q 33.0625 21.96875 24.703125 23.78125 
L 21.578125 24.515625 
Q 13.234375 26.265625 9.515625 29.90625 
Q 5.8125 33.546875 5.8125 39.890625 
Q 5.8125 47.609375 11.28125 51.796875 
Q 16.75 56 26.8125 56 
Q 31.78125 56 36.171875 55.265625 
Q 40.578125 54.546875 44.28125 53.078125 
z
" id="DejaVuSans-115"/>
     </defs>
     <g transform="translate(221.511562 335.860562)scale(0.1 -0.1)">
      <use xlink:href="#DejaVuSans-72"/>
      <use x="75.195312" xlink:href="#DejaVuSans-111"/>
      <use x="136.376953" xlink:href="#DejaVuSans-117"/>
      <use x="199.755859" xlink:href="#DejaVuSans-114"/>
      <use x="240.869141" xlink:href="#DejaVuSans-115"/>
     </g>
    </g>
   </g>
   <g id="matplotlib.axis_2">
    <g id="ytick_1">
     <g id="line2d_13">
      <path clip-path="url(#pb18233037b)" d="M 57.6 301.818908 
L 414.72 301.818908 
" style="fill:none;stroke:#b0b0b0;stroke-linecap:square;stroke-width:0.8;"/>
     </g>
     <g id="line2d_14">
      <defs>
       <path d="M 0 0 
L -3.5 0 
" id="m5aff6aa320" style="stroke:#000000;stroke-width:0.8;"/>
      </defs>
      <g>
       <use style="stroke:#000000;stroke-width:0.8;" x="57.6" xlink:href="#m5aff6aa320" y="301.818908"/>
      </g>
     </g>
     <g id="text_8">
      <!-- 0.0 -->
      <g transform="translate(34.696875 305.618126)scale(0.1 -0.1)">
       <use xlink:href="#DejaVuSans-48"/>
       <use x="63.623047" xlink:href="#DejaVuSans-46"/>
       <use x="95.410156" xlink:href="#DejaVuSans-48"/>
      </g>
     </g>
    </g>
    <g id="ytick_2">
     <g id="line2d_15">
      <path clip-path="url(#pb18233037b)" d="M 57.6 266.532545 
L 414.72 266.532545 
" style="fill:none;stroke:#b0b0b0;stroke-linecap:square;stroke-width:0.8;"/>
     </g>
     <g id="line2d_16">
      <g>
       <use style="stroke:#000000;stroke-width:0.8;" x="57.6" xlink:href="#m5aff6aa320" y="266.532545"/>
      </g>
     </g>
     <g id="text_9">
      <!-- 0.1 -->
      <g transform="translate(34.696875 270.331764)scale(0.1 -0.1)">
       <use xlink:href="#DejaVuSans-48"/>
       <use x="63.623047" xlink:href="#DejaVuSans-46"/>
       <use x="95.410156" xlink:href="#DejaVuSans-49"/>
      </g>
     </g>
    </g>
    <g id="ytick_3">
     <g id="line2d_17">
      <path clip-path="url(#pb18233037b)" d="M 57.6 231.246183 
L 414.72 231.246183 
" style="fill:none;stroke:#b0b0b0;stroke-linecap:square;stroke-width:0.8;"/>
     </g>
     <g id="line2d_18">
      <g>
       <use style="stroke:#000000;stroke-width:0.8;" x="57.6" xlink:href="#m5aff6aa320" y="231.246183"/>
      </g>
     </g>
     <g id="text_10">
      <!-- 0.2 -->
      <g transform="translate(34.696875 235.045402)scale(0.1 -0.1)">
       <use xlink:href="#DejaVuSans-48"/>
       <use x="63.623047" xlink:href="#DejaVuSans-46"/>
       <use x="95.410156" xlink:href="#DejaVuSans-50"/>
      </g>
     </g>
    </g>
    <g id="ytick_4">
     <g id="line2d_19">
      <path clip-path="url(#pb18233037b)" d="M 57.6 195.95982 
L 414.72 195.95982 
" style="fill:none;stroke:#b0b0b0;stroke-linecap:square;stroke-width:0.8;"/>
     </g>
     <g id="line2d_20">
      <g>
       <use style="stroke:#000000;stroke-width:0.8;" x="57.6" xlink:href="#m5aff6aa320" y="195.95982"/>
      </g>
     </g>
     <g id="text_11">
      <!-- 0.3 -->
      <g transform="translate(34.696875 199.759039)scale(0.1 -0.1)">
       <use xlink:href="#DejaVuSans-48"/>
       <use x="63.623047" xlink:href="#DejaVuSans-46"/>
       <use x="95.410156" xlink:href="#DejaVuSans-51"/>
      </g>
     </g>
    </g>
    <g id="ytick_5">
     <g id="line2d_21">
      <path clip-path="url(#pb18233037b)" d="M 57.6 160.673458 
L 414.72 160.673458 
" style="fill:none;stroke:#b0b0b0;stroke-linecap:square;stroke-width:0.8;"/>
     </g>
     <g id="line2d_22">
      <g>
       <use style="stroke:#000000;stroke-width:0.8;" x="57.6" xlink:href="#m5aff6aa320" y="160.673458"/>
      </g>
     </g>
     <g id="text_12">
      <!-- 0.4 -->
      <g transform="translate(34.696875 164.472677)scale(0.1 -0.1)">
       <use xlink:href="#DejaVuSans-48"/>
       <use x="63.623047" xlink:href="#DejaVuSans-46"/>
       <use x="95.410156" xlink:href="#DejaVuSans-52"/>
      </g>
     </g>
    </g>
    <g id="ytick_6">
     <g id="line2d_23">
      <path clip-path="url(#pb18233037b)" d="M 57.6 125.387095 
L 414.72 125.387095 
" style="fill:none;stroke:#b0b0b0;stroke-linecap:square;stroke-width:0.8;"/>
     </g>
     <g id="line2d_24">
      <g>
       <use style="stroke:#000000;stroke-width:0.8;" x="57.6" xlink:href="#m5aff6aa320" y="125.387095"/>
      </g>
     </g>
     <g id="text_13">
      <!-- 0.5 -->
      <g transform="translate(34.696875 129.186314)scale(0.1 -0.1)">
       <use xlink:href="#DejaVuSans-48"/>
       <use x="63.623047" xlink:href="#DejaVuSans-46"/>
       <use x="95.410156" xlink:href="#DejaVuSans-53"/>
      </g>
     </g>
    </g>
    <g id="ytick_7">
     <g id="line2d_25">
      <path clip-path="url(#pb18233037b)" d="M 57.6 90.100733 
L 414.72 90.100733 
" style="fill:none;stroke:#b0b0b0;stroke-linecap:square;stroke-width:0.8;"/>
     </g>
     <g id="line2d_26">
      <g>
       <use style="stroke:#000000;stroke-width:0.8;" x="57.6" xlink:href="#m5aff6aa320" y="90.100733"/>
      </g>
     </g>
     <g id="text_14">
      <!-- 0.6 -->
      <defs>
       <path d="M 33.015625 40.375 
Q 26.375 40.375 22.484375 35.828125 
Q 18.609375 31.296875 18.609375 23.390625 
Q 18.609375 15.53125 22.484375 10.953125 
Q 26.375 6.390625 33.015625 6.390625 
Q 39.65625 6.390625 43.53125 10.953125 
Q 47.40625 15.53125 47.40625 23.390625 
Q 47.40625 31.296875 43.53125 35.828125 
Q 39.65625 40.375 33.015625 40.375 
z
M 52.59375 71.296875 
L 52.59375 62.3125 
Q 48.875 64.0625 45.09375 64.984375 
Q 41.3125 65.921875 37.59375 65.921875 
Q 27.828125 65.921875 22.671875 59.328125 
Q 17.53125 52.734375 16.796875 39.40625 
Q 19.671875 43.65625 24.015625 45.921875 
Q 28.375 48.1875 33.59375 48.1875 
Q 44.578125 48.1875 50.953125 41.515625 
Q 57.328125 34.859375 57.328125 23.390625 
Q 57.328125 12.15625 50.6875 5.359375 
Q 44.046875 -1.421875 33.015625 -1.421875 
Q 20.359375 -1.421875 13.671875 8.265625 
Q 6.984375 17.96875 6.984375 36.375 
Q 6.984375 53.65625 15.1875 63.9375 
Q 23.390625 74.21875 37.203125 74.21875 
Q 40.921875 74.21875 44.703125 73.484375 
Q 48.484375 72.75 52.59375 71.296875 
z
" id="DejaVuSans-54"/>
      </defs>
      <g transform="translate(34.696875 93.899952)scale(0.1 -0.1)">
       <use xlink:href="#DejaVuSans-48"/>
       <use x="63.623047" xlink:href="#DejaVuSans-46"/>
       <use x="95.410156" xlink:href="#DejaVuSans-54"/>
      </g>
     </g>
    </g>
    <g id="ytick_8">
     <g id="line2d_27">
      <path clip-path="url(#pb18233037b)" d="M 57.6 54.814371 
L 414.72 54.814371 
" style="fill:none;stroke:#b0b0b0;stroke-linecap:square;stroke-width:0.8;"/>
     </g>
     <g id="line2d_28">
      <g>
       <use style="stroke:#000000;stroke-width:0.8;" x="57.6" xlink:href="#m5aff6aa320" y="54.814371"/>
      </g>
     </g>
     <g id="text_15">
      <!-- 0.7 -->
      <defs>
       <path d="M 8.203125 72.90625 
L 55.078125 72.90625 
L 55.078125 68.703125 
L 28.609375 0 
L 18.3125 0 
L 43.21875 64.59375 
L 8.203125 64.59375 
z
" id="DejaVuSans-55"/>
      </defs>
      <g transform="translate(34.696875 58.613589)scale(0.1 -0.1)">
       <use xlink:href="#DejaVuSans-48"/>
       <use x="63.623047" xlink:href="#DejaVuSans-46"/>
       <use x="95.410156" xlink:href="#DejaVuSans-55"/>
      </g>
     </g>
    </g>
    <g id="text_16">
     <!-- Loss -->
     <defs>
      <path d="M 9.8125 72.90625 
L 19.671875 72.90625 
L 19.671875 8.296875 
L 55.171875 8.296875 
L 55.171875 0 
L 9.8125 0 
z
" id="DejaVuSans-76"/>
     </defs>
     <g transform="translate(28.617188 185.581906)rotate(-90)scale(0.1 -0.1)">
      <use xlink:href="#DejaVuSans-76"/>
      <use x="55.697266" xlink:href="#DejaVuSans-111"/>
      <use x="116.878906" xlink:href="#DejaVuSans-115"/>
      <use x="168.978516" xlink:href="#DejaVuSans-115"/>
     </g>
    </g>
   </g>
   <g id="line2d_29">
    <path clip-path="url(#pb18233037b)" d="M 57.6 227.48735 
L 57.965076 250.754686 
L 58.11071 246.459552 
L 58.321181 253.011616 
L 58.361706 250.13265 
L 58.628708 256.319736 
L 60.546276 261.940844 
L 60.587467 256.905722 
L 60.708495 256.788877 
L 60.922318 255.549906 
L 62.673669 254.87265 
L 62.739473 260.979686 
L 63.020531 259.828172 
L 63.178762 257.511737 
L 63.260426 257.530876 
L 64.87608 251.434303 
L 64.902777 257.004416 
L 65.008628 254.420555 
L 65.288895 256.907741 
L 65.39515 254.863401 
L 65.670637 254.334249 
L 67.652083 259.274891 
L 67.665393 254.545434 
L 67.931305 255.575276 
L 67.972262 245.367338 
L 68.176916 251.309545 
L 68.217819 255.789374 
L 68.231261 255.306604 
L 68.363703 252.432202 
L 68.615599 252.740793 
L 70.015088 251.686302 
L 70.313342 251.165894 
L 70.672595 245.178757 
L 70.88617 247.786922 
L 70.980362 240.293604 
L 70.994065 244.622837 
L 72.578971 230.692748 
L 72.892397 246.180085 
L 72.92283 239.885766 
L 72.988397 242.220984 
L 73.15976 243.48124 
L 73.291161 250.566468 
L 74.939257 227.981068 
L 75.044611 235.868942 
L 75.525503 238.88935 
L 75.578237 242.482384 
L 75.60409 232.25109 
L 75.790039 237.005969 
L 75.882584 231.211347 
L 75.909512 234.149329 
L 75.962662 237.179828 
L 77.171777 224.995053 
L 77.250544 237.979897 
L 77.263835 235.891609 
L 77.581114 228.835143 
L 77.633753 238.269338 
L 78.073857 203.04801 
L 78.246309 230.10917 
L 79.753214 239.705719 
L 79.886567 224.112216 
L 80.223581 219.904156 
L 80.265943 235.912037 
L 80.626727 224.394759 
L 80.640551 232.941801 
L 80.740179 228.265646 
L 80.8198 227.704772 
L 82.287062 226.849219 
L 82.325944 243.05889 
L 82.446386 215.125473 
L 83.09902 230.765762 
L 83.139024 227.21535 
L 83.220091 229.760727 
L 83.303182 230.096519 
L 83.36981 233.235696 
L 83.50458 229.013886 
L 83.584967 222.372713 
L 84.812922 217.42208 
L 84.951052 219.431912 
L 85.52604 231.1624 
L 85.59944 228.757576 
L 85.615076 229.004395 
L 85.870993 224.734736 
L 86.052646 236.419331 
L 87.378688 211.074876 
L 87.888959 221.855434 
L 88.080547 211.789575 
L 88.122008 232.905447 
L 88.391629 206.352112 
L 88.473057 232.42744 
L 88.567519 217.117364 
L 90.021433 230.212328 
L 90.062429 215.640901 
L 90.305926 235.235853 
L 90.318336 231.944249 
L 90.957118 224.434773 
L 91.039057 229.302665 
L 91.052738 227.241135 
L 92.531926 220.564597 
L 92.831785 228.450499 
L 93.233872 228.511508 
L 93.382602 231.873812 
L 93.494139 220.33657 
L 93.577253 240.597121 
L 95.17808 215.572089 
L 95.233818 239.143625 
L 95.594786 194.214776 
L 95.859038 203.72586 
L 95.873329 234.186751 
L 96.098813 236.858338 
L 96.153744 240.313253 
L 97.530741 193.18067 
L 97.5436 226.569342 
L 98.015592 236.014759 
L 98.121671 231.243432 
L 98.411881 242.33297 
L 98.737444 226.02968 
L 98.790859 221.754279 
L 98.816598 235.473261 
L 98.843186 222.740084 
L 99.906651 238.548311 
L 100.000207 198.183289 
L 100.376493 240.84352 
L 100.497456 223.359849 
L 100.767008 241.011894 
L 100.885998 212.253789 
L 100.965581 213.843553 
L 101.073772 210.220922 
L 101.192612 236.469125 
L 102.311017 243.006772 
L 102.596236 218.55334 
L 102.784465 238.142903 
L 102.837285 220.032253 
L 102.962065 238.730051 
L 103.144259 241.011152 
L 103.184168 235.321444 
L 103.266031 242.472577 
L 103.293351 222.437981 
L 104.866377 217.099839 
L 105.104301 240.590701 
L 105.278195 203.98236 
L 105.733737 245.132476 
L 105.760028 170.526704 
L 107.054453 245.72136 
L 107.161974 244.345936 
L 107.390364 211.638952 
L 107.470559 242.836252 
L 107.789042 184.893171 
L 108.013106 216.656273 
L 108.066114 245.628812 
L 108.120146 221.652219 
L 108.175016 194.068233 
L 108.268979 213.303533 
L 109.538433 181.851742 
L 109.996093 246.939835 
L 110.052139 213.745753 
L 110.268888 250.804254 
L 110.564702 220.355409 
L 110.590803 254.833288 
L 110.616813 247.04263 
L 110.724535 255.147179 
L 111.919655 251.545327 
L 111.972093 215.486492 
L 112.242031 224.707783 
L 112.309728 247.813349 
L 112.323584 144.845927 
L 112.350405 250.920158 
L 112.391795 185.911314 
L 112.551846 173.248338 
L 112.592792 217.656974 
L 112.660709 211.778291 
L 112.92261 221.121064 
L 113.058092 254.703928 
L 113.138335 250.250778 
L 114.194339 206.119905 
L 114.246478 213.068539 
L 114.406574 250.28902 
L 114.759098 226.766342 
L 114.882051 146.900426 
L 115.431095 221.580263 
L 115.444278 251.982526 
L 115.470646 187.446957 
L 117.047142 247.96953 
L 117.154831 139.336187 
L 117.30225 260.495406 
L 117.374478 226.21724 
L 117.728346 230.41978 
L 117.744223 204.525687 
L 117.878942 210.048552 
L 117.905184 255.572384 
L 118.954232 250.021373 
L 119.141704 252.036895 
L 119.224281 222.064647 
L 119.343983 258.871223 
L 119.544779 221.757586 
L 119.599613 250.861614 
L 119.626368 214.383232 
L 119.961526 53.568 
L 121.233047 222.093004 
L 121.310898 259.954074 
L 121.538447 255.671131 
L 121.619119 256.877097 
L 121.966883 177.38837 
L 122.290365 260.670777 
L 122.38268 217.184462 
L 122.448617 257.060893 
L 123.615283 262.522798 
L 123.714033 234.227712 
L 123.924595 260.100782 
L 124.092713 211.500812 
L 124.137792 258.153306 
L 124.328062 259.403288 
L 124.796674 254.894639 
L 124.809939 211.20821 
L 124.822809 260.464812 
L 126.225684 221.223791 
L 126.867444 171.026411 
L 126.98777 185.520691 
L 127.108587 268.16328 
L 127.188441 219.510347 
L 128.447894 265.019533 
L 128.487379 262.463999 
L 129.233705 216.351677 
L 129.538107 265.101887 
L 130.719175 263.205493 
L 130.935147 219.118872 
L 130.974792 270.104454 
L 131.081675 207.833807 
L 131.12228 265.247442 
L 131.442339 259.519413 
L 131.495599 261.350933 
L 131.522217 175.131277 
L 131.896461 267.207314 
L 133.297722 261.428116 
L 133.522012 262.628335 
L 133.781824 265.417985 
L 133.863183 259.683998 
L 134.085145 222.679595 
L 134.341635 118.501306 
L 134.360727 259.303816 
L 135.797318 221.560671 
L 135.967835 211.894852 
L 136.006719 175.676003 
L 136.019299 260.586353 
L 136.352412 217.309747 
L 137.8266 265.239299 
L 137.94631 141.545936 
L 138.153191 219.626461 
L 138.171747 215.201389 
L 138.50585 264.727702 
L 139.028469 268.161382 
L 139.203162 268.384361 
L 140.524674 266.194653 
L 140.617356 260.582023 
L 141.086573 262.470782 
L 141.261482 218.648774 
L 141.565378 270.433565 
L 141.621707 230.840957 
L 141.785231 266.240482 
L 141.920576 269.87552 
L 142.30207 265.474477 
L 142.728196 267.701005 
L 143.949133 268.411025 
L 143.989356 265.71479 
L 144.31894 262.34539 
L 144.39687 268.54668 
L 144.663052 225.860848 
L 144.895427 229.239058 
L 146.1337 270.963172 
L 146.372449 217.156637 
L 146.398491 179.258373 
L 146.42358 273.19337 
L 146.462588 274.407526 
L 146.503168 222.522037 
L 146.728162 222.442803 
L 146.874306 269.822966 
L 147.061074 222.805121 
L 148.483036 270.603351 
L 148.811268 191.038855 
L 148.865984 136.877678 
L 149.017155 274.094149 
L 149.441114 179.055317 
L 149.559301 269.759188 
L 149.741907 234.566979 
L 149.808394 269.687549 
L 150.977019 167.391323 
L 151.069312 271.105151 
L 151.20169 273.661573 
L 151.254082 229.580612 
L 151.713691 271.014785 
L 151.804486 271.706125 
L 153.460196 266.62998 
L 153.554575 230.80851 
L 153.608497 135.608525 
L 153.835236 223.786705 
L 153.915059 213.928293 
L 154.221136 271.187234 
L 154.366978 270.370274 
L 155.42876 232.092312 
L 155.560502 271.094937 
L 155.730885 270.999342 
L 155.885418 173.669363 
L 155.933923 221.045763 
L 156.712084 226.988269 
L 156.778166 271.815914 
L 156.791284 81.436885 
L 157.945322 241.034567 
L 158.927395 278.21873 
L 159.073464 275.686866 
L 159.086031 184.080914 
L 159.138378 274.783983 
L 160.130991 269.924326 
L 160.143457 274.03192 
L 160.500238 269.57796 
L 160.715946 179.064214 
L 160.997554 188.701271 
L 161.058247 271.706349 
L 161.275573 143.600362 
L 161.53448 272.358387 
L 162.602329 183.54214 
L 162.656231 269.660015 
L 162.779377 269.164794 
L 162.810023 225.176819 
L 163.014216 225.77643 
L 163.200962 265.884063 
L 163.562209 270.977177 
L 163.878787 268.708616 
L 164.948166 175.920493 
L 165.025138 188.459336 
L 165.080207 231.396889 
L 165.344275 228.016776 
L 165.384728 272.891945 
L 166.174075 227.547476 
L 167.391674 233.007464 
L 167.405584 224.600029 
L 167.657543 271.30297 
L 167.671108 228.251859 
L 167.710143 237.421678 
L 167.828733 273.38408 
L 167.973666 273.284674 
L 168.312837 233.750762 
L 168.35249 270.288345 
L 168.512185 276.348098 
L 168.552138 271.409391 
L 168.578757 232.631196 
L 168.605326 271.549997 
L 170.013762 224.110891 
L 170.406103 278.151845 
L 170.519513 274.864363 
L 170.578044 277.30749 
L 170.698371 276.357347 
L 170.717587 273.241371 
L 170.85626 271.99396 
L 172.241177 273.433199 
L 172.313473 228.827455 
L 172.582333 274.976295 
L 172.847324 227.594715 
L 172.863977 105.418977 
L 173.018264 274.357198 
L 173.176698 228.472756 
L 173.249368 274.58736 
L 173.441907 277.226573 
L 173.538565 276.685982 
L 173.717174 277.130003 
L 173.731689 276.213323 
L 173.910478 178.429522 
L 175.086422 239.493471 
L 175.148306 231.762188 
L 175.193842 275.090198 
L 175.669231 234.029146 
L 175.841065 276.562888 
L 176.107981 276.345041 
L 176.441866 227.986352 
L 177.69457 232.253882 
L 178.014823 228.540286 
L 178.334795 273.266323 
L 178.45374 274.641536 
L 178.49288 279.161769 
L 178.532771 276.98131 
L 180.182513 273.638498 
L 180.222352 277.917737 
L 180.313682 276.467748 
L 180.487525 276.671341 
L 180.514825 230.742752 
L 180.529127 274.45952 
L 180.623588 276.45159 
L 180.864081 277.672542 
L 182.23878 139.734539 
L 182.507013 275.242119 
L 182.533373 239.088699 
L 182.612383 228.149968 
L 183.026116 276.867228 
L 183.254218 272.958739 
L 184.495024 185.442546 
L 184.599705 239.503625 
L 185.013627 184.204763 
L 185.37596 223.177756 
L 185.689754 280.283714 
L 187.145049 209.378967 
L 187.328986 210.418878 
L 187.547388 279.382359 
L 187.764861 228.490775 
L 187.78058 235.717325 
L 188.086356 278.609232 
L 189.627406 276.961889 
L 189.934934 227.484795 
L 190.00317 275.23072 
L 190.50542 278.470805 
L 190.59929 187.234846 
L 190.653181 278.881742 
L 191.721902 282.853079 
L 191.801551 199.750207 
L 191.935242 278.726963 
L 192.269064 190.959058 
L 192.38055 274.699496 
L 192.647848 279.914447 
L 192.758596 277.848194 
L 192.971719 231.102662 
L 193.055616 277.470551 
L 194.229863 283.723798 
L 194.294059 280.971663 
L 194.437874 280.333249 
L 194.572247 182.135404 
L 194.942522 231.4556 
L 194.969704 283.62489 
L 195.022814 231.507067 
L 195.224473 243.202025 
L 196.785552 187.90421 
L 196.825854 237.182678 
L 197.06798 279.458898 
L 197.308835 280.991245 
L 197.537738 154.64039 
L 197.645068 279.184705 
L 197.71135 211.490485 
L 198.961326 231.910493 
L 198.974456 243.714704 
L 199.20144 188.11121 
L 199.242226 278.033491 
L 199.336874 230.482477 
L 199.690407 280.709655 
L 199.716493 230.766939 
L 199.812046 281.889164 
L 200.173119 280.261713 
L 201.32109 281.78068 
L 201.454593 235.11893 
L 201.67112 283.72199 
L 201.925265 283.080596 
L 201.992382 276.903887 
L 202.020178 237.779774 
L 202.07354 275.729688 
L 202.436036 247.301759 
L 203.764748 280.887192 
L 203.885658 195.646245 
L 204.037295 282.021527 
L 204.079885 185.613917 
L 204.385085 280.390815 
L 204.644047 283.957759 
L 204.763349 231.421875 
L 205.979109 283.519573 
L 206.005182 233.057879 
L 206.220819 281.825091 
L 206.248358 279.16005 
L 206.384698 198.528114 
L 206.599151 282.72852 
L 206.924048 281.820838 
L 207.054316 283.035917 
L 207.093611 234.672603 
L 208.302294 282.548514 
L 208.450625 201.029287 
L 208.477185 276.284055 
L 208.558871 188.824678 
L 208.73653 237.860712 
L 208.982709 237.269326 
L 209.514812 241.435059 
L 210.811423 284.680745 
L 210.864778 278.241072 
L 210.878155 283.600084 
L 210.9756 234.549764 
L 211.203883 198.757986 
L 211.3521 196.684474 
L 211.501009 235.215073 
L 211.60749 233.231511 
L 211.685597 247.065135 
L 212.99724 242.052998 
L 213.772532 194.101738 
L 213.827113 283.462192 
L 214.002869 283.534531 
L 214.212356 284.53446 
L 214.328397 287.103473 
L 214.344068 282.380728 
L 215.388917 239.283516 
L 215.535401 245.186823 
L 215.689674 276.400613 
L 215.703642 199.935638 
L 215.722183 280.966949 
L 215.882341 236.576374 
L 216.347969 282.38632 
L 217.000423 283.546693 
L 217.257942 238.13113 
L 217.369883 245.859584 
L 217.704833 234.716455 
L 218.976511 235.740671 
L 219.23405 238.275354 
L 219.300903 238.639738 
L 219.803889 197.923971 
L 219.930029 197.830756 
L 220.013303 237.379934 
L 220.092591 238.255715 
L 220.136772 236.29665 
L 220.232541 239.46165 
L 220.39799 286.175403 
L 221.5088 282.089619 
L 221.562883 283.170989 
L 221.928953 283.121634 
L 221.984764 195.654196 
L 222.132944 283.567374 
L 222.298589 261.305048 
L 222.506737 281.457815 
L 224.138772 237.727031 
L 224.359348 284.314291 
L 224.648225 192.909437 
L 224.831402 284.42092 
L 224.844488 283.833123 
L 225.18995 147.971233 
L 226.393825 282.693491 
L 226.727221 280.384166 
L 227.115464 281.27246 
L 227.155472 283.508305 
L 227.478186 240.795987 
L 227.504356 190.22848 
L 228.754702 239.332338 
L 228.808197 229.301908 
L 229.145967 283.75197 
L 229.239282 237.931428 
L 229.41388 245.956059 
L 229.495259 242.054602 
L 229.84397 283.658488 
L 231.049299 248.965783 
L 231.157199 281.261292 
L 231.170285 198.714134 
L 231.469794 281.052789 
L 231.523559 243.536123 
L 231.709018 283.947001 
L 231.87289 242.717157 
L 231.984821 285.952051 
L 232.17467 283.51586 
L 232.256552 237.599144 
L 233.406822 284.058542 
L 233.526808 284.092337 
L 233.553649 285.476815 
L 233.567189 254.30535 
L 233.822512 209.63289 
L 233.984775 285.501719 
L 234.48299 284.322216 
L 235.83877 239.362524 
L 236.099755 282.011722 
L 236.239527 279.662988 
L 236.253007 240.105144 
L 236.343398 283.593817 
L 236.451946 281.469877 
L 236.507474 283.991881 
L 236.538935 283.366436 
L 236.902375 199.815175 
L 236.976802 285.951894 
L 237.005677 283.077692 
L 237.146976 238.584686 
L 238.203613 278.082898 
L 238.612078 232.822443 
L 238.751751 283.617569 
L 238.800193 249.241585 
L 238.928951 237.726857 
L 239.077887 283.685374 
L 239.126024 281.842369 
L 239.206255 236.767205 
L 239.705092 282.658854 
L 240.829855 283.210695 
L 240.852723 285.196119 
L 240.993658 282.627777 
L 241.276312 241.980873 
L 241.533158 245.725498 
L 242.250148 240.609451 
L 243.419221 196.627476 
L 243.46217 288.19124 
L 243.879952 239.030345 
L 243.893275 285.454 
L 244.125556 286.50236 
L 244.259516 201.483953 
L 244.480939 281.557415 
L 244.564988 283.765651 
L 245.760772 193.368257 
L 246.001717 284.879056 
L 246.06858 242.154022 
L 246.108007 284.99617 
L 246.134201 285.208137 
L 246.322273 239.530588 
L 246.376664 285.22599 
L 246.525408 285.475842 
L 246.566301 246.042349 
L 246.836268 237.378972 
L 246.944436 285.60843 
L 247.077373 282.828571 
L 248.234258 285.032316 
L 248.541722 286.198627 
L 248.614217 203.363863 
L 248.849559 284.897058 
L 249.52196 284.717441 
L 250.550092 235.94571 
L 250.602757 247.586153 
L 250.979756 233.211394 
L 251.57241 195.600269 
L 251.692226 284.086246 
L 251.804011 201.187786 
L 251.818698 242.960543 
L 253.292183 241.72888 
L 253.443895 210.889507 
L 253.604469 245.355492 
L 253.644515 283.890406 
L 253.729552 241.403442 
L 253.837717 284.384478 
L 255.639055 290.762711 
L 255.733068 285.022499 
L 255.964255 284.170111 
L 256.38267 277.437632 
L 256.435764 158.869662 
L 256.62442 285.321008 
L 257.851231 286.650743 
L 257.942836 244.901941 
L 258.133401 287.296641 
L 258.411189 287.493578 
L 258.532342 197.247414 
L 258.746635 197.740696 
L 258.895312 281.368967 
L 259.016289 240.81715 
L 260.116299 281.900081 
L 260.414879 237.556106 
L 260.564962 285.590288 
L 260.745608 279.068812 
L 260.869936 288.185404 
L 260.920024 286.034428 
L 260.991484 284.147919 
L 261.088491 240.156015 
L 261.115457 281.932304 
L 262.810122 283.890247 
L 263.068976 284.606339 
L 263.283428 282.898021 
L 263.380462 197.721504 
L 263.576407 285.657952 
L 263.634735 283.868423 
L 263.785997 288.130959 
L 264.92658 240.238751 
L 264.940681 240.925767 
L 265.14542 244.233313 
L 265.564088 283.599737 
L 265.724038 280.78218 
L 265.819756 200.151251 
L 265.885943 201.834435 
L 266.077415 197.10328 
L 267.201549 283.871404 
L 267.403478 285.293181 
L 267.562722 242.213827 
L 267.66427 287.190849 
L 267.67726 285.875314 
L 267.832948 280.496686 
L 268.635249 284.542915 
L 268.762036 286.760542 
L 268.958949 197.808556 
L 268.980235 244.973603 
L 269.141526 288.478226 
L 270.935917 195.967114 
L 271.227413 286.997287 
L 271.999262 286.142448 
L 272.104609 286.213828 
L 272.58961 244.034521 
L 273.652881 192.891233 
L 273.885173 279.866206 
L 273.925953 240.157335 
L 273.966384 287.659646 
L 274.245901 286.980821 
L 274.392208 285.198361 
L 274.589229 286.448471 
L 274.821294 195.988567 
L 276.040687 238.698729 
L 276.067251 248.857729 
L 276.107891 192.822836 
L 276.413743 287.635415 
L 276.479591 239.260565 
L 276.628954 290.94943 
L 276.735644 288.013449 
L 276.79035 199.634171 
L 277.017868 283.962063 
L 277.277571 286.625229 
L 277.358567 285.357185 
L 278.44303 153.370196 
L 278.551951 243.144696 
L 278.753611 284.431821 
L 278.766559 240.47343 
L 279.132847 238.464765 
L 279.240764 282.423944 
L 279.376779 245.288215 
L 279.522838 285.364291 
L 280.807256 241.157043 
L 281.037041 289.250453 
L 281.0506 285.755106 
L 281.480626 239.526471 
L 281.494549 287.491191 
L 281.57513 282.15702 
L 283.297907 286.153614 
L 283.3255 267.102294 
L 283.565523 286.157285 
L 283.947625 238.699586 
L 284.226041 242.946015 
L 284.360713 241.016195 
L 285.570159 286.229592 
L 285.596948 281.856195 
L 285.623829 244.216214 
L 285.691241 285.719472 
L 286.128476 240.630347 
L 286.197617 244.627006 
L 286.345663 283.940929 
L 286.413381 203.535423 
L 288.362319 287.270916 
L 288.80984 241.858323 
L 288.907882 284.667354 
L 288.923582 283.879957 
L 289.357959 161.578855 
L 289.639688 289.384253 
L 295.107179 290.094939 
L 295.145622 247.041889 
L 295.472713 283.010146 
L 295.744376 197.787261 
L 296.108391 239.954799 
L 296.223918 288.728153 
L 296.970135 286.361909 
L 297.039789 244.530841 
L 300.296204 288.392948 
L 300.645438 290.08939 
L 300.964885 202.939925 
L 301.025938 289.383284 
L 301.057783 286.20837 
L 301.151299 285.596104 
L 302.138272 240.113472 
L 302.172531 287.633173 
L 302.312676 286.560565 
L 302.955922 248.394077 
L 303.162093 286.245536 
L 303.297466 246.353139 
L 305.867717 286.008353 
L 307.316743 210.333834 
L 307.596326 288.283492 
L 307.629412 249.1987 
L 307.820383 245.383307 
L 307.884642 289.7704 
L 308.182461 288.278734 
L 312.647406 286.703454 
L 313.667815 244.546258 
L 313.882395 247.527467 
L 314.20092 246.706192 
L 315.147299 246.476935 
L 319.254442 245.898693 
L 319.591158 244.372042 
L 320.784216 286.848782 
L 321.033348 201.702605 
L 321.115889 253.409326 
L 321.49097 288.923609 
L 325.412147 278.534467 
L 325.574066 287.720927 
L 326.592058 287.884264 
L 326.754181 245.051107 
L 326.855256 289.828674 
L 327.24258 288.109512 
L 327.306429 289.597278 
L 327.728749 291.154252 
L 328.035113 285.45109 
L 331.442021 246.293459 
L 331.601633 289.211414 
L 331.631065 288.908196 
L 332.103999 288.620452 
L 332.293945 292.284199 
L 332.612086 291.440239 
L 333.430185 285.965176 
L 333.973812 287.463626 
L 334.234009 288.926827 
L 337.724376 255.0818 
L 338.774067 151.767197 
L 339.109731 291.497492 
L 339.935287 159.191151 
L 340.072992 291.085072 
L 340.251896 291.623205 
L 340.317489 290.017925 
L 340.479062 113.167154 
L 344.880743 158.158054 
L 345.106381 290.377342 
L 345.32909 244.256922 
L 345.635555 248.393394 
L 346.284316 291.565199 
L 346.799476 288.923999 
L 346.848217 287.064209 
L 346.88109 289.77738 
L 350.310346 292.246948 
L 350.438369 291.408468 
L 350.598582 291.557161 
L 350.791006 158.230679 
L 350.952881 246.725453 
L 351.209796 243.253801 
L 351.890767 279.477856 
L 352.345527 285.962362 
L 352.702354 251.388852 
L 353.022736 198.798284 
L 353.150298 291.972359 
L 353.18489 289.492652 
L 356.572295 71.800364 
L 356.905911 245.611219 
L 357.206766 256.879668 
L 357.736092 293.339902 
L 357.771168 289.332679 
L 358.16194 246.842713 
L 359.200388 245.814338 
L 362.062546 245.566273 
L 362.499562 293.150551 
L 362.596165 292.760725 
L 362.626301 290.385423 
L 362.778915 291.745912 
L 363.054304 244.377011 
L 363.311061 291.161213 
L 363.477061 245.296202 
L 363.499293 289.94526 
L 363.720894 202.459242 
L 363.801701 292.05946 
L 364.314934 292.155819 
L 367.195862 244.136375 
L 367.442918 292.895016 
L 368.731543 292.616777 
L 368.940007 288.731816 
L 369.004148 290.475745 
L 369.035319 290.310508 
L 369.066234 249.17741 
L 369.257028 222.593757 
L 369.81231 294.81391 
L 369.994216 255.695297 
L 370.026279 291.721308 
L 373.62824 166.936342 
L 373.644084 291.460983 
L 373.790024 290.627881 
L 373.870912 248.674007 
L 374.157083 203.42127 
L 374.465827 290.689938 
L 375.064403 293.434502 
L 375.506542 291.969484 
L 379.450907 292.422974 
L 379.541097 250.122423 
L 379.81609 255.246893 
L 380.684846 242.952288 
L 380.813152 247.781879 
L 381.105343 293.702428 
L 381.55474 293.364859 
L 381.747535 244.189024 
L 381.809996 287.00282 
L 386.066963 291.214612 
L 386.27062 289.161854 
L 386.374083 292.090999 
L 386.544336 202.868752 
L 386.576616 259.776117 
L 386.909072 291.848262 
L 387.070722 290.420234 
L 387.527171 293.649188 
L 387.831956 284.698925 
L 388.241051 260.074534 
L 388.3766 292.881196 
L 392.620045 292.03071 
L 393.253539 248.284809 
L 393.542677 290.921493 
L 394.124665 294.505043 
L 394.714711 291.495794 
L 395.005235 250.012303 
L 395.79852 294.373872 
L 399.055337 292.884112 
L 399.087658 249.99676 
L 400.709569 293.022232 
L 401.00686 292.632308 
L 401.106929 292.702009 
L 401.927097 294.784331 
L 405.582601 292.896874 
L 406.153173 295.488 
L 406.691285 291.325679 
L 407.339731 251.088658 
L 407.566588 293.546992 
L 407.962564 201.360745 
L 412.152778 288.59363 
L 412.422377 289.00948 
L 412.520667 249.391582 
L 413.192166 294.964253 
L 413.964097 288.850825 
L 414.065531 290.69406 
L 414.356568 290.18209 
L 414.385255 249.324442 
L 414.398588 293.650342 
L 414.546309 248.162916 
L 414.625982 294.432842 
L 414.72 247.796376 
L 414.72 247.796376 
" style="fill:none;stroke:#000000;stroke-linecap:square;stroke-width:0.8;"/>
   </g>
   <g id="patch_3">
    <path d="M 57.6 307.584 
L 57.6 41.472 
" style="fill:none;stroke:#000000;stroke-linecap:square;stroke-linejoin:miter;stroke-width:0.8;"/>
   </g>
   <g id="patch_4">
    <path d="M 414.72 307.584 
L 414.72 41.472 
" style="fill:none;stroke:#000000;stroke-linecap:square;stroke-linejoin:miter;stroke-width:0.8;"/>
   </g>
   <g id="patch_5">
    <path d="M 57.6 307.584 
L 414.72 307.584 
" style="fill:none;stroke:#000000;stroke-linecap:square;stroke-linejoin:miter;stroke-width:0.8;"/>
   </g>
   <g id="patch_6">
    <path d="M 57.6 41.472 
L 414.72 41.472 
" style="fill:none;stroke:#000000;stroke-linecap:square;stroke-linejoin:miter;stroke-width:0.8;"/>
   </g>
  </g>
  <g id="axes_2">
   <g id="matplotlib.axis_3">
    <g id="xtick_7">
     <g id="line2d_30">
      <defs>
       <path d="M 0 0 
L 0 -3.5 
" id="mfce4e544f2" style="stroke:#000000;stroke-width:0.8;"/>
      </defs>
      <g>
       <use style="stroke:#000000;stroke-width:0.8;" x="57.6" xlink:href="#mfce4e544f2" y="41.472"/>
      </g>
     </g>
    </g>
    <g id="xtick_8">
     <g id="line2d_31">
      <g>
       <use style="stroke:#000000;stroke-width:0.8;" x="114.739657" xlink:href="#mfce4e544f2" y="41.472"/>
      </g>
     </g>
     <g id="text_17">
      <!-- 20.0K -->
      <defs>
       <path d="M 9.8125 72.90625 
L 19.671875 72.90625 
L 19.671875 42.09375 
L 52.390625 72.90625 
L 65.09375 72.90625 
L 28.90625 38.921875 
L 67.671875 0 
L 54.6875 0 
L 19.671875 35.109375 
L 19.671875 0 
L 9.8125 0 
z
" id="DejaVuSans-75"/>
      </defs>
      <g transform="translate(100.327938 32.392313)scale(0.1 -0.1)">
       <use xlink:href="#DejaVuSans-50"/>
       <use x="63.623047" xlink:href="#DejaVuSans-48"/>
       <use x="127.246094" xlink:href="#DejaVuSans-46"/>
       <use x="159.033203" xlink:href="#DejaVuSans-48"/>
       <use x="222.65625" xlink:href="#DejaVuSans-75"/>
      </g>
     </g>
    </g>
    <g id="xtick_9">
     <g id="line2d_32">
      <g>
       <use style="stroke:#000000;stroke-width:0.8;" x="171.879314" xlink:href="#mfce4e544f2" y="41.472"/>
      </g>
     </g>
     <g id="text_18">
      <!-- 40.0K -->
      <g transform="translate(157.467595 32.392313)scale(0.1 -0.1)">
       <use xlink:href="#DejaVuSans-52"/>
       <use x="63.623047" xlink:href="#DejaVuSans-48"/>
       <use x="127.246094" xlink:href="#DejaVuSans-46"/>
       <use x="159.033203" xlink:href="#DejaVuSans-48"/>
       <use x="222.65625" xlink:href="#DejaVuSans-75"/>
      </g>
     </g>
    </g>
    <g id="xtick_10">
     <g id="line2d_33">
      <g>
       <use style="stroke:#000000;stroke-width:0.8;" x="229.018971" xlink:href="#mfce4e544f2" y="41.472"/>
      </g>
     </g>
     <g id="text_19">
      <!-- 60.0K -->
      <g transform="translate(214.607253 32.392313)scale(0.1 -0.1)">
       <use xlink:href="#DejaVuSans-54"/>
       <use x="63.623047" xlink:href="#DejaVuSans-48"/>
       <use x="127.246094" xlink:href="#DejaVuSans-46"/>
       <use x="159.033203" xlink:href="#DejaVuSans-48"/>
       <use x="222.65625" xlink:href="#DejaVuSans-75"/>
      </g>
     </g>
    </g>
    <g id="xtick_11">
     <g id="line2d_34">
      <g>
       <use style="stroke:#000000;stroke-width:0.8;" x="286.158628" xlink:href="#mfce4e544f2" y="41.472"/>
      </g>
     </g>
     <g id="text_20">
      <!-- 80.0K -->
      <defs>
       <path d="M 31.78125 34.625 
Q 24.75 34.625 20.71875 30.859375 
Q 16.703125 27.09375 16.703125 20.515625 
Q 16.703125 13.921875 20.71875 10.15625 
Q 24.75 6.390625 31.78125 6.390625 
Q 38.8125 6.390625 42.859375 10.171875 
Q 46.921875 13.96875 46.921875 20.515625 
Q 46.921875 27.09375 42.890625 30.859375 
Q 38.875 34.625 31.78125 34.625 
z
M 21.921875 38.8125 
Q 15.578125 40.375 12.03125 44.71875 
Q 8.5 49.078125 8.5 55.328125 
Q 8.5 64.0625 14.71875 69.140625 
Q 20.953125 74.21875 31.78125 74.21875 
Q 42.671875 74.21875 48.875 69.140625 
Q 55.078125 64.0625 55.078125 55.328125 
Q 55.078125 49.078125 51.53125 44.71875 
Q 48 40.375 41.703125 38.8125 
Q 48.828125 37.15625 52.796875 32.3125 
Q 56.78125 27.484375 56.78125 20.515625 
Q 56.78125 9.90625 50.3125 4.234375 
Q 43.84375 -1.421875 31.78125 -1.421875 
Q 19.734375 -1.421875 13.25 4.234375 
Q 6.78125 9.90625 6.78125 20.515625 
Q 6.78125 27.484375 10.78125 32.3125 
Q 14.796875 37.15625 21.921875 38.8125 
z
M 18.3125 54.390625 
Q 18.3125 48.734375 21.84375 45.5625 
Q 25.390625 42.390625 31.78125 42.390625 
Q 38.140625 42.390625 41.71875 45.5625 
Q 45.3125 48.734375 45.3125 54.390625 
Q 45.3125 60.0625 41.71875 63.234375 
Q 38.140625 66.40625 31.78125 66.40625 
Q 25.390625 66.40625 21.84375 63.234375 
Q 18.3125 60.0625 18.3125 54.390625 
z
" id="DejaVuSans-56"/>
      </defs>
      <g transform="translate(271.74691 32.392313)scale(0.1 -0.1)">
       <use xlink:href="#DejaVuSans-56"/>
       <use x="63.623047" xlink:href="#DejaVuSans-48"/>
       <use x="127.246094" xlink:href="#DejaVuSans-46"/>
       <use x="159.033203" xlink:href="#DejaVuSans-48"/>
       <use x="222.65625" xlink:href="#DejaVuSans-75"/>
      </g>
     </g>
    </g>
    <g id="xtick_12">
     <g id="line2d_35">
      <g>
       <use style="stroke:#000000;stroke-width:0.8;" x="343.298286" xlink:href="#mfce4e544f2" y="41.472"/>
      </g>
     </g>
     <g id="text_21">
      <!-- 100K -->
      <g transform="translate(330.475629 32.392313)scale(0.1 -0.1)">
       <use xlink:href="#DejaVuSans-49"/>
       <use x="63.623047" xlink:href="#DejaVuSans-48"/>
       <use x="127.246094" xlink:href="#DejaVuSans-48"/>
       <use x="190.869141" xlink:href="#DejaVuSans-75"/>
      </g>
     </g>
    </g>
    <g id="xtick_13">
     <g id="line2d_36">
      <g>
       <use style="stroke:#000000;stroke-width:0.8;" x="400.437943" xlink:href="#mfce4e544f2" y="41.472"/>
      </g>
     </g>
     <g id="text_22">
      <!-- 120K -->
      <g transform="translate(387.615286 32.392313)scale(0.1 -0.1)">
       <use xlink:href="#DejaVuSans-49"/>
       <use x="63.623047" xlink:href="#DejaVuSans-50"/>
       <use x="127.246094" xlink:href="#DejaVuSans-48"/>
       <use x="190.869141" xlink:href="#DejaVuSans-75"/>
      </g>
     </g>
    </g>
    <g id="text_23">
     <!-- Steps -->
     <defs>
      <path d="M 53.515625 70.515625 
L 53.515625 60.890625 
Q 47.90625 63.578125 42.921875 64.890625 
Q 37.9375 66.21875 33.296875 66.21875 
Q 25.25 66.21875 20.875 63.09375 
Q 16.5 59.96875 16.5 54.203125 
Q 16.5 49.359375 19.40625 46.890625 
Q 22.3125 44.4375 30.421875 42.921875 
L 36.375 41.703125 
Q 47.40625 39.59375 52.65625 34.296875 
Q 57.90625 29 57.90625 20.125 
Q 57.90625 9.515625 50.796875 4.046875 
Q 43.703125 -1.421875 29.984375 -1.421875 
Q 24.8125 -1.421875 18.96875 -0.25 
Q 13.140625 0.921875 6.890625 3.21875 
L 6.890625 13.375 
Q 12.890625 10.015625 18.65625 8.296875 
Q 24.421875 6.59375 29.984375 6.59375 
Q 38.421875 6.59375 43.015625 9.90625 
Q 47.609375 13.234375 47.609375 19.390625 
Q 47.609375 24.75 44.3125 27.78125 
Q 41.015625 30.8125 33.5 32.328125 
L 27.484375 33.5 
Q 16.453125 35.6875 11.515625 40.375 
Q 6.59375 45.0625 6.59375 53.421875 
Q 6.59375 63.09375 13.40625 68.65625 
Q 20.21875 74.21875 32.171875 74.21875 
Q 37.3125 74.21875 42.625 73.28125 
Q 47.953125 72.359375 53.515625 70.515625 
z
" id="DejaVuSans-83"/>
      <path d="M 18.3125 70.21875 
L 18.3125 54.6875 
L 36.8125 54.6875 
L 36.8125 47.703125 
L 18.3125 47.703125 
L 18.3125 18.015625 
Q 18.3125 11.328125 20.140625 9.421875 
Q 21.96875 7.515625 27.59375 7.515625 
L 36.8125 7.515625 
L 36.8125 0 
L 27.59375 0 
Q 17.1875 0 13.234375 3.875 
Q 9.28125 7.765625 9.28125 18.015625 
L 9.28125 47.703125 
L 2.6875 47.703125 
L 2.6875 54.6875 
L 9.28125 54.6875 
L 9.28125 70.21875 
z
" id="DejaVuSans-116"/>
      <path d="M 56.203125 29.59375 
L 56.203125 25.203125 
L 14.890625 25.203125 
Q 15.484375 15.921875 20.484375 11.0625 
Q 25.484375 6.203125 34.421875 6.203125 
Q 39.59375 6.203125 44.453125 7.46875 
Q 49.3125 8.734375 54.109375 11.28125 
L 54.109375 2.78125 
Q 49.265625 0.734375 44.1875 -0.34375 
Q 39.109375 -1.421875 33.890625 -1.421875 
Q 20.796875 -1.421875 13.15625 6.1875 
Q 5.515625 13.8125 5.515625 26.8125 
Q 5.515625 40.234375 12.765625 48.109375 
Q 20.015625 56 32.328125 56 
Q 43.359375 56 49.78125 48.890625 
Q 56.203125 41.796875 56.203125 29.59375 
z
M 47.21875 32.234375 
Q 47.125 39.59375 43.09375 43.984375 
Q 39.0625 48.390625 32.421875 48.390625 
Q 24.90625 48.390625 20.390625 44.140625 
Q 15.875 39.890625 15.1875 32.171875 
z
" id="DejaVuSans-101"/>
      <path d="M 18.109375 8.203125 
L 18.109375 -20.796875 
L 9.078125 -20.796875 
L 9.078125 54.6875 
L 18.109375 54.6875 
L 18.109375 46.390625 
Q 20.953125 51.265625 25.265625 53.625 
Q 29.59375 56 35.59375 56 
Q 45.5625 56 51.78125 48.09375 
Q 58.015625 40.1875 58.015625 27.296875 
Q 58.015625 14.40625 51.78125 6.484375 
Q 45.5625 -1.421875 35.59375 -1.421875 
Q 29.59375 -1.421875 25.265625 0.953125 
Q 20.953125 3.328125 18.109375 8.203125 
z
M 48.6875 27.296875 
Q 48.6875 37.203125 44.609375 42.84375 
Q 40.53125 48.484375 33.40625 48.484375 
Q 26.265625 48.484375 22.1875 42.84375 
Q 18.109375 37.203125 18.109375 27.296875 
Q 18.109375 17.390625 22.1875 11.75 
Q 26.265625 6.109375 33.40625 6.109375 
Q 40.53125 6.109375 44.609375 11.75 
Q 48.6875 17.390625 48.6875 27.296875 
z
" id="DejaVuSans-112"/>
     </defs>
     <g transform="translate(222.170156 20.793875)scale(0.1 -0.1)">
      <use xlink:href="#DejaVuSans-83"/>
      <use x="63.476562" xlink:href="#DejaVuSans-116"/>
      <use x="102.685547" xlink:href="#DejaVuSans-101"/>
      <use x="164.208984" xlink:href="#DejaVuSans-112"/>
      <use x="227.685547" xlink:href="#DejaVuSans-115"/>
     </g>
    </g>
   </g>
   <g id="patch_7">
    <path d="M 57.6 307.584 
L 57.6 41.472 
" style="fill:none;stroke:#000000;stroke-linecap:square;stroke-linejoin:miter;stroke-width:0.8;"/>
   </g>
   <g id="patch_8">
    <path d="M 414.72 307.584 
L 414.72 41.472 
" style="fill:none;stroke:#000000;stroke-linecap:square;stroke-linejoin:miter;stroke-width:0.8;"/>
   </g>
   <g id="patch_9">
    <path d="M 57.6 307.584 
L 414.72 307.584 
" style="fill:none;stroke:#000000;stroke-linecap:square;stroke-linejoin:miter;stroke-width:0.8;"/>
   </g>
   <g id="patch_10">
    <path d="M 57.6 41.472 
L 414.72 41.472 
" style="fill:none;stroke:#000000;stroke-linecap:square;stroke-linejoin:miter;stroke-width:0.8;"/>
   </g>
  </g>
 </g>
 <defs>
  <clipPath id="pb18233037b">
   <rect height="266.112" width="357.12" x="57.6" y="41.472"/>
  </clipPath>
 </defs>
</svg>
