<?xml version="1.0" encoding="utf-8" standalone="no"?>
<!DOCTYPE svg PUBLIC "-//W3C//DTD SVG 1.1//EN"
  "http://www.w3.org/Graphics/SVG/1.1/DTD/svg11.dtd">
<!-- Created with matplotlib (https://matplotlib.org/) -->
<svg height="345.6pt" version="1.1" viewBox="0 0 460.8 345.6" width="460.8pt" xmlns="http://www.w3.org/2000/svg" xmlns:xlink="http://www.w3.org/1999/xlink">
 <defs>
  <style type="text/css">
*{stroke-linecap:butt;stroke-linejoin:round;}
  </style>
 </defs>
 <g id="figure_1">
  <g id="patch_1">
   <path d="M 0 345.6 
L 460.8 345.6 
L 460.8 0 
L 0 0 
z
" style="fill:#ffffff;"/>
  </g>
  <g id="axes_1">
   <g id="patch_2">
    <path d="M 57.6 307.584 
L 414.72 307.584 
L 414.72 41.472 
L 57.6 41.472 
z
" style="fill:#ffffff;"/>
   </g>
   <g id="matplotlib.axis_1">
    <g id="xtick_1">
     <g id="line2d_1">
      <path clip-path="url(#p804ae64230)" d="M 57.6 307.584 
L 57.6 41.472 
" style="fill:none;stroke:#b0b0b0;stroke-linecap:square;stroke-width:0.8;"/>
     </g>
     <g id="line2d_2">
      <defs>
       <path d="M 0 0 
L 0 3.5 
" id="m7080fadb7f" style="stroke:#000000;stroke-width:0.8;"/>
      </defs>
      <g>
       <use style="stroke:#000000;stroke-width:0.8;" x="57.6" xlink:href="#m7080fadb7f" y="307.584"/>
      </g>
     </g>
     <g id="text_1">
      <!-- 0.0 -->
      <defs>
       <path d="M 31.78125 66.40625 
Q 24.171875 66.40625 20.328125 58.90625 
Q 16.5 51.421875 16.5 36.375 
Q 16.5 21.390625 20.328125 13.890625 
Q 24.171875 6.390625 31.78125 6.390625 
Q 39.453125 6.390625 43.28125 13.890625 
Q 47.125 21.390625 47.125 36.375 
Q 47.125 51.421875 43.28125 58.90625 
Q 39.453125 66.40625 31.78125 66.40625 
z
M 31.78125 74.21875 
Q 44.046875 74.21875 50.515625 64.515625 
Q 56.984375 54.828125 56.984375 36.375 
Q 56.984375 17.96875 50.515625 8.265625 
Q 44.046875 -1.421875 31.78125 -1.421875 
Q 19.53125 -1.421875 13.0625 8.265625 
Q 6.59375 17.96875 6.59375 36.375 
Q 6.59375 54.828125 13.0625 64.515625 
Q 19.53125 74.21875 31.78125 74.21875 
z
" id="DejaVuSans-48"/>
       <path d="M 10.6875 12.40625 
L 21 12.40625 
L 21 0 
L 10.6875 0 
z
" id="DejaVuSans-46"/>
      </defs>
      <g transform="translate(49.648438 322.182437)scale(0.1 -0.1)">
       <use xlink:href="#DejaVuSans-48"/>
       <use x="63.623047" xlink:href="#DejaVuSans-46"/>
       <use x="95.410156" xlink:href="#DejaVuSans-48"/>
      </g>
     </g>
    </g>
    <g id="xtick_2">
     <g id="line2d_3">
      <path clip-path="url(#p804ae64230)" d="M 104.741639 307.584 
L 104.741639 41.472 
" style="fill:none;stroke:#b0b0b0;stroke-linecap:square;stroke-width:0.8;"/>
     </g>
     <g id="line2d_4">
      <g>
       <use style="stroke:#000000;stroke-width:0.8;" x="104.741639" xlink:href="#m7080fadb7f" y="307.584"/>
      </g>
     </g>
     <g id="text_2">
      <!-- 2.5 -->
      <defs>
       <path d="M 19.1875 8.296875 
L 53.609375 8.296875 
L 53.609375 0 
L 7.328125 0 
L 7.328125 8.296875 
Q 12.9375 14.109375 22.625 23.890625 
Q 32.328125 33.6875 34.8125 36.53125 
Q 39.546875 41.84375 41.421875 45.53125 
Q 43.3125 49.21875 43.3125 52.78125 
Q 43.3125 58.59375 39.234375 62.25 
Q 35.15625 65.921875 28.609375 65.921875 
Q 23.96875 65.921875 18.8125 64.3125 
Q 13.671875 62.703125 7.8125 59.421875 
L 7.8125 69.390625 
Q 13.765625 71.78125 18.9375 73 
Q 24.125 74.21875 28.421875 74.21875 
Q 39.75 74.21875 46.484375 68.546875 
Q 53.21875 62.890625 53.21875 53.421875 
Q 53.21875 48.921875 51.53125 44.890625 
Q 49.859375 40.875 45.40625 35.40625 
Q 44.1875 33.984375 37.640625 27.21875 
Q 31.109375 20.453125 19.1875 8.296875 
z
" id="DejaVuSans-50"/>
       <path d="M 10.796875 72.90625 
L 49.515625 72.90625 
L 49.515625 64.59375 
L 19.828125 64.59375 
L 19.828125 46.734375 
Q 21.96875 47.46875 24.109375 47.828125 
Q 26.265625 48.1875 28.421875 48.1875 
Q 40.625 48.1875 47.75 41.5 
Q 54.890625 34.8125 54.890625 23.390625 
Q 54.890625 11.625 47.5625 5.09375 
Q 40.234375 -1.421875 26.90625 -1.421875 
Q 22.3125 -1.421875 17.546875 -0.640625 
Q 12.796875 0.140625 7.71875 1.703125 
L 7.71875 11.625 
Q 12.109375 9.234375 16.796875 8.0625 
Q 21.484375 6.890625 26.703125 6.890625 
Q 35.15625 6.890625 40.078125 11.328125 
Q 45.015625 15.765625 45.015625 23.390625 
Q 45.015625 31 40.078125 35.4375 
Q 35.15625 39.890625 26.703125 39.890625 
Q 22.75 39.890625 18.8125 39.015625 
Q 14.890625 38.140625 10.796875 36.28125 
z
" id="DejaVuSans-53"/>
      </defs>
      <g transform="translate(96.790076 322.182437)scale(0.1 -0.1)">
       <use xlink:href="#DejaVuSans-50"/>
       <use x="63.623047" xlink:href="#DejaVuSans-46"/>
       <use x="95.410156" xlink:href="#DejaVuSans-53"/>
      </g>
     </g>
    </g>
    <g id="xtick_3">
     <g id="line2d_5">
      <path clip-path="url(#p804ae64230)" d="M 151.883277 307.584 
L 151.883277 41.472 
" style="fill:none;stroke:#b0b0b0;stroke-linecap:square;stroke-width:0.8;"/>
     </g>
     <g id="line2d_6">
      <g>
       <use style="stroke:#000000;stroke-width:0.8;" x="151.883277" xlink:href="#m7080fadb7f" y="307.584"/>
      </g>
     </g>
     <g id="text_3">
      <!-- 5.0 -->
      <g transform="translate(143.931715 322.182437)scale(0.1 -0.1)">
       <use xlink:href="#DejaVuSans-53"/>
       <use x="63.623047" xlink:href="#DejaVuSans-46"/>
       <use x="95.410156" xlink:href="#DejaVuSans-48"/>
      </g>
     </g>
    </g>
    <g id="xtick_4">
     <g id="line2d_7">
      <path clip-path="url(#p804ae64230)" d="M 199.024916 307.584 
L 199.024916 41.472 
" style="fill:none;stroke:#b0b0b0;stroke-linecap:square;stroke-width:0.8;"/>
     </g>
     <g id="line2d_8">
      <g>
       <use style="stroke:#000000;stroke-width:0.8;" x="199.024916" xlink:href="#m7080fadb7f" y="307.584"/>
      </g>
     </g>
     <g id="text_4">
      <!-- 7.5 -->
      <defs>
       <path d="M 8.203125 72.90625 
L 55.078125 72.90625 
L 55.078125 68.703125 
L 28.609375 0 
L 18.3125 0 
L 43.21875 64.59375 
L 8.203125 64.59375 
z
" id="DejaVuSans-55"/>
      </defs>
      <g transform="translate(191.073354 322.182437)scale(0.1 -0.1)">
       <use xlink:href="#DejaVuSans-55"/>
       <use x="63.623047" xlink:href="#DejaVuSans-46"/>
       <use x="95.410156" xlink:href="#DejaVuSans-53"/>
      </g>
     </g>
    </g>
    <g id="xtick_5">
     <g id="line2d_9">
      <path clip-path="url(#p804ae64230)" d="M 246.166555 307.584 
L 246.166555 41.472 
" style="fill:none;stroke:#b0b0b0;stroke-linecap:square;stroke-width:0.8;"/>
     </g>
     <g id="line2d_10">
      <g>
       <use style="stroke:#000000;stroke-width:0.8;" x="246.166555" xlink:href="#m7080fadb7f" y="307.584"/>
      </g>
     </g>
     <g id="text_5">
      <!-- 10.0 -->
      <defs>
       <path d="M 12.40625 8.296875 
L 28.515625 8.296875 
L 28.515625 63.921875 
L 10.984375 60.40625 
L 10.984375 69.390625 
L 28.421875 72.90625 
L 38.28125 72.90625 
L 38.28125 8.296875 
L 54.390625 8.296875 
L 54.390625 0 
L 12.40625 0 
z
" id="DejaVuSans-49"/>
      </defs>
      <g transform="translate(235.033742 322.182437)scale(0.1 -0.1)">
       <use xlink:href="#DejaVuSans-49"/>
       <use x="63.623047" xlink:href="#DejaVuSans-48"/>
       <use x="127.246094" xlink:href="#DejaVuSans-46"/>
       <use x="159.033203" xlink:href="#DejaVuSans-48"/>
      </g>
     </g>
    </g>
    <g id="xtick_6">
     <g id="line2d_11">
      <path clip-path="url(#p804ae64230)" d="M 293.308193 307.584 
L 293.308193 41.472 
" style="fill:none;stroke:#b0b0b0;stroke-linecap:square;stroke-width:0.8;"/>
     </g>
     <g id="line2d_12">
      <g>
       <use style="stroke:#000000;stroke-width:0.8;" x="293.308193" xlink:href="#m7080fadb7f" y="307.584"/>
      </g>
     </g>
     <g id="text_6">
      <!-- 12.5 -->
      <g transform="translate(282.175381 322.182437)scale(0.1 -0.1)">
       <use xlink:href="#DejaVuSans-49"/>
       <use x="63.623047" xlink:href="#DejaVuSans-50"/>
       <use x="127.246094" xlink:href="#DejaVuSans-46"/>
       <use x="159.033203" xlink:href="#DejaVuSans-53"/>
      </g>
     </g>
    </g>
    <g id="xtick_7">
     <g id="line2d_13">
      <path clip-path="url(#p804ae64230)" d="M 340.449832 307.584 
L 340.449832 41.472 
" style="fill:none;stroke:#b0b0b0;stroke-linecap:square;stroke-width:0.8;"/>
     </g>
     <g id="line2d_14">
      <g>
       <use style="stroke:#000000;stroke-width:0.8;" x="340.449832" xlink:href="#m7080fadb7f" y="307.584"/>
      </g>
     </g>
     <g id="text_7">
      <!-- 15.0 -->
      <g transform="translate(329.31702 322.182437)scale(0.1 -0.1)">
       <use xlink:href="#DejaVuSans-49"/>
       <use x="63.623047" xlink:href="#DejaVuSans-53"/>
       <use x="127.246094" xlink:href="#DejaVuSans-46"/>
       <use x="159.033203" xlink:href="#DejaVuSans-48"/>
      </g>
     </g>
    </g>
    <g id="xtick_8">
     <g id="line2d_15">
      <path clip-path="url(#p804ae64230)" d="M 387.591471 307.584 
L 387.591471 41.472 
" style="fill:none;stroke:#b0b0b0;stroke-linecap:square;stroke-width:0.8;"/>
     </g>
     <g id="line2d_16">
      <g>
       <use style="stroke:#000000;stroke-width:0.8;" x="387.591471" xlink:href="#m7080fadb7f" y="307.584"/>
      </g>
     </g>
     <g id="text_8">
      <!-- 17.5 -->
      <g transform="translate(376.458658 322.182437)scale(0.1 -0.1)">
       <use xlink:href="#DejaVuSans-49"/>
       <use x="63.623047" xlink:href="#DejaVuSans-55"/>
       <use x="127.246094" xlink:href="#DejaVuSans-46"/>
       <use x="159.033203" xlink:href="#DejaVuSans-53"/>
      </g>
     </g>
    </g>
    <g id="text_9">
     <!-- Hours -->
     <defs>
      <path d="M 9.8125 72.90625 
L 19.671875 72.90625 
L 19.671875 43.015625 
L 55.515625 43.015625 
L 55.515625 72.90625 
L 65.375 72.90625 
L 65.375 0 
L 55.515625 0 
L 55.515625 34.71875 
L 19.671875 34.71875 
L 19.671875 0 
L 9.8125 0 
z
" id="DejaVuSans-72"/>
      <path d="M 30.609375 48.390625 
Q 23.390625 48.390625 19.1875 42.75 
Q 14.984375 37.109375 14.984375 27.296875 
Q 14.984375 17.484375 19.15625 11.84375 
Q 23.34375 6.203125 30.609375 6.203125 
Q 37.796875 6.203125 41.984375 11.859375 
Q 46.1875 17.53125 46.1875 27.296875 
Q 46.1875 37.015625 41.984375 42.703125 
Q 37.796875 48.390625 30.609375 48.390625 
z
M 30.609375 56 
Q 42.328125 56 49.015625 48.375 
Q 55.71875 40.765625 55.71875 27.296875 
Q 55.71875 13.875 49.015625 6.21875 
Q 42.328125 -1.421875 30.609375 -1.421875 
Q 18.84375 -1.421875 12.171875 6.21875 
Q 5.515625 13.875 5.515625 27.296875 
Q 5.515625 40.765625 12.171875 48.375 
Q 18.84375 56 30.609375 56 
z
" id="DejaVuSans-111"/>
      <path d="M 8.5 21.578125 
L 8.5 54.6875 
L 17.484375 54.6875 
L 17.484375 21.921875 
Q 17.484375 14.15625 20.5 10.265625 
Q 23.53125 6.390625 29.59375 6.390625 
Q 36.859375 6.390625 41.078125 11.03125 
Q 45.3125 15.671875 45.3125 23.6875 
L 45.3125 54.6875 
L 54.296875 54.6875 
L 54.296875 0 
L 45.3125 0 
L 45.3125 8.40625 
Q 42.046875 3.421875 37.71875 1 
Q 33.40625 -1.421875 27.6875 -1.421875 
Q 18.265625 -1.421875 13.375 4.4375 
Q 8.5 10.296875 8.5 21.578125 
z
M 31.109375 56 
z
" id="DejaVuSans-117"/>
      <path d="M 41.109375 46.296875 
Q 39.59375 47.171875 37.8125 47.578125 
Q 36.03125 48 33.890625 48 
Q 26.265625 48 22.1875 43.046875 
Q 18.109375 38.09375 18.109375 28.8125 
L 18.109375 0 
L 9.078125 0 
L 9.078125 54.6875 
L 18.109375 54.6875 
L 18.109375 46.1875 
Q 20.953125 51.171875 25.484375 53.578125 
Q 30.03125 56 36.53125 56 
Q 37.453125 56 38.578125 55.875 
Q 39.703125 55.765625 41.0625 55.515625 
z
" id="DejaVuSans-114"/>
      <path d="M 44.28125 53.078125 
L 44.28125 44.578125 
Q 40.484375 46.53125 36.375 47.5 
Q 32.28125 48.484375 27.875 48.484375 
Q 21.1875 48.484375 17.84375 46.4375 
Q 14.5 44.390625 14.5 40.28125 
Q 14.5 37.15625 16.890625 35.375 
Q 19.28125 33.59375 26.515625 31.984375 
L 29.59375 31.296875 
Q 39.15625 29.25 43.1875 25.515625 
Q 47.21875 21.78125 47.21875 15.09375 
Q 47.21875 7.46875 41.1875 3.015625 
Q 35.15625 -1.421875 24.609375 -1.421875 
Q 20.21875 -1.421875 15.453125 -0.5625 
Q 10.6875 0.296875 5.421875 2 
L 5.421875 11.28125 
Q 10.40625 8.6875 15.234375 7.390625 
Q 20.0625 6.109375 24.8125 6.109375 
Q 31.15625 6.109375 34.5625 8.28125 
Q 37.984375 10.453125 37.984375 14.40625 
Q 37.984375 18.0625 35.515625 20.015625 
Q 33.0625 21.96875 24.703125 23.78125 
L 21.578125 24.515625 
Q 13.234375 26.265625 9.515625 29.90625 
Q 5.8125 33.546875 5.8125 39.890625 
Q 5.8125 47.609375 11.28125 51.796875 
Q 16.75 56 26.8125 56 
Q 31.78125 56 36.171875 55.265625 
Q 40.578125 54.546875 44.28125 53.078125 
z
" id="DejaVuSans-115"/>
     </defs>
     <g transform="translate(221.511562 335.860562)scale(0.1 -0.1)">
      <use xlink:href="#DejaVuSans-72"/>
      <use x="75.195312" xlink:href="#DejaVuSans-111"/>
      <use x="136.376953" xlink:href="#DejaVuSans-117"/>
      <use x="199.755859" xlink:href="#DejaVuSans-114"/>
      <use x="240.869141" xlink:href="#DejaVuSans-115"/>
     </g>
    </g>
   </g>
   <g id="matplotlib.axis_2">
    <g id="ytick_1">
     <g id="line2d_17">
      <path clip-path="url(#p804ae64230)" d="M 57.6 282.755618 
L 414.72 282.755618 
" style="fill:none;stroke:#b0b0b0;stroke-linecap:square;stroke-width:0.8;"/>
     </g>
     <g id="line2d_18">
      <defs>
       <path d="M 0 0 
L -3.5 0 
" id="m0fc3f944fd" style="stroke:#000000;stroke-width:0.8;"/>
      </defs>
      <g>
       <use style="stroke:#000000;stroke-width:0.8;" x="57.6" xlink:href="#m0fc3f944fd" y="282.755618"/>
      </g>
     </g>
     <g id="text_10">
      <!-- −0.1 -->
      <defs>
       <path d="M 10.59375 35.5 
L 73.1875 35.5 
L 73.1875 27.203125 
L 10.59375 27.203125 
z
" id="DejaVuSans-8722"/>
      </defs>
      <g transform="translate(26.317187 286.554836)scale(0.1 -0.1)">
       <use xlink:href="#DejaVuSans-8722"/>
       <use x="83.789062" xlink:href="#DejaVuSans-48"/>
       <use x="147.412109" xlink:href="#DejaVuSans-46"/>
       <use x="179.199219" xlink:href="#DejaVuSans-49"/>
      </g>
     </g>
    </g>
    <g id="ytick_2">
     <g id="line2d_19">
      <path clip-path="url(#p804ae64230)" d="M 57.6 246.063692 
L 414.72 246.063692 
" style="fill:none;stroke:#b0b0b0;stroke-linecap:square;stroke-width:0.8;"/>
     </g>
     <g id="line2d_20">
      <g>
       <use style="stroke:#000000;stroke-width:0.8;" x="57.6" xlink:href="#m0fc3f944fd" y="246.063692"/>
      </g>
     </g>
     <g id="text_11">
      <!-- 0.0 -->
      <g transform="translate(34.696875 249.862911)scale(0.1 -0.1)">
       <use xlink:href="#DejaVuSans-48"/>
       <use x="63.623047" xlink:href="#DejaVuSans-46"/>
       <use x="95.410156" xlink:href="#DejaVuSans-48"/>
      </g>
     </g>
    </g>
    <g id="ytick_3">
     <g id="line2d_21">
      <path clip-path="url(#p804ae64230)" d="M 57.6 209.371767 
L 414.72 209.371767 
" style="fill:none;stroke:#b0b0b0;stroke-linecap:square;stroke-width:0.8;"/>
     </g>
     <g id="line2d_22">
      <g>
       <use style="stroke:#000000;stroke-width:0.8;" x="57.6" xlink:href="#m0fc3f944fd" y="209.371767"/>
      </g>
     </g>
     <g id="text_12">
      <!-- 0.1 -->
      <g transform="translate(34.696875 213.170986)scale(0.1 -0.1)">
       <use xlink:href="#DejaVuSans-48"/>
       <use x="63.623047" xlink:href="#DejaVuSans-46"/>
       <use x="95.410156" xlink:href="#DejaVuSans-49"/>
      </g>
     </g>
    </g>
    <g id="ytick_4">
     <g id="line2d_23">
      <path clip-path="url(#p804ae64230)" d="M 57.6 172.679842 
L 414.72 172.679842 
" style="fill:none;stroke:#b0b0b0;stroke-linecap:square;stroke-width:0.8;"/>
     </g>
     <g id="line2d_24">
      <g>
       <use style="stroke:#000000;stroke-width:0.8;" x="57.6" xlink:href="#m0fc3f944fd" y="172.679842"/>
      </g>
     </g>
     <g id="text_13">
      <!-- 0.2 -->
      <g transform="translate(34.696875 176.47906)scale(0.1 -0.1)">
       <use xlink:href="#DejaVuSans-48"/>
       <use x="63.623047" xlink:href="#DejaVuSans-46"/>
       <use x="95.410156" xlink:href="#DejaVuSans-50"/>
      </g>
     </g>
    </g>
    <g id="ytick_5">
     <g id="line2d_25">
      <path clip-path="url(#p804ae64230)" d="M 57.6 135.987916 
L 414.72 135.987916 
" style="fill:none;stroke:#b0b0b0;stroke-linecap:square;stroke-width:0.8;"/>
     </g>
     <g id="line2d_26">
      <g>
       <use style="stroke:#000000;stroke-width:0.8;" x="57.6" xlink:href="#m0fc3f944fd" y="135.987916"/>
      </g>
     </g>
     <g id="text_14">
      <!-- 0.3 -->
      <defs>
       <path d="M 40.578125 39.3125 
Q 47.65625 37.796875 51.625 33 
Q 55.609375 28.21875 55.609375 21.1875 
Q 55.609375 10.40625 48.1875 4.484375 
Q 40.765625 -1.421875 27.09375 -1.421875 
Q 22.515625 -1.421875 17.65625 -0.515625 
Q 12.796875 0.390625 7.625 2.203125 
L 7.625 11.71875 
Q 11.71875 9.328125 16.59375 8.109375 
Q 21.484375 6.890625 26.8125 6.890625 
Q 36.078125 6.890625 40.9375 10.546875 
Q 45.796875 14.203125 45.796875 21.1875 
Q 45.796875 27.640625 41.28125 31.265625 
Q 36.765625 34.90625 28.71875 34.90625 
L 20.21875 34.90625 
L 20.21875 43.015625 
L 29.109375 43.015625 
Q 36.375 43.015625 40.234375 45.921875 
Q 44.09375 48.828125 44.09375 54.296875 
Q 44.09375 59.90625 40.109375 62.90625 
Q 36.140625 65.921875 28.71875 65.921875 
Q 24.65625 65.921875 20.015625 65.03125 
Q 15.375 64.15625 9.8125 62.3125 
L 9.8125 71.09375 
Q 15.4375 72.65625 20.34375 73.4375 
Q 25.25 74.21875 29.59375 74.21875 
Q 40.828125 74.21875 47.359375 69.109375 
Q 53.90625 64.015625 53.90625 55.328125 
Q 53.90625 49.265625 50.4375 45.09375 
Q 46.96875 40.921875 40.578125 39.3125 
z
" id="DejaVuSans-51"/>
      </defs>
      <g transform="translate(34.696875 139.787135)scale(0.1 -0.1)">
       <use xlink:href="#DejaVuSans-48"/>
       <use x="63.623047" xlink:href="#DejaVuSans-46"/>
       <use x="95.410156" xlink:href="#DejaVuSans-51"/>
      </g>
     </g>
    </g>
    <g id="ytick_6">
     <g id="line2d_27">
      <path clip-path="url(#p804ae64230)" d="M 57.6 99.295991 
L 414.72 99.295991 
" style="fill:none;stroke:#b0b0b0;stroke-linecap:square;stroke-width:0.8;"/>
     </g>
     <g id="line2d_28">
      <g>
       <use style="stroke:#000000;stroke-width:0.8;" x="57.6" xlink:href="#m0fc3f944fd" y="99.295991"/>
      </g>
     </g>
     <g id="text_15">
      <!-- 0.4 -->
      <defs>
       <path d="M 37.796875 64.3125 
L 12.890625 25.390625 
L 37.796875 25.390625 
z
M 35.203125 72.90625 
L 47.609375 72.90625 
L 47.609375 25.390625 
L 58.015625 25.390625 
L 58.015625 17.1875 
L 47.609375 17.1875 
L 47.609375 0 
L 37.796875 0 
L 37.796875 17.1875 
L 4.890625 17.1875 
L 4.890625 26.703125 
z
" id="DejaVuSans-52"/>
      </defs>
      <g transform="translate(34.696875 103.09521)scale(0.1 -0.1)">
       <use xlink:href="#DejaVuSans-48"/>
       <use x="63.623047" xlink:href="#DejaVuSans-46"/>
       <use x="95.410156" xlink:href="#DejaVuSans-52"/>
      </g>
     </g>
    </g>
    <g id="ytick_7">
     <g id="line2d_29">
      <path clip-path="url(#p804ae64230)" d="M 57.6 62.604066 
L 414.72 62.604066 
" style="fill:none;stroke:#b0b0b0;stroke-linecap:square;stroke-width:0.8;"/>
     </g>
     <g id="line2d_30">
      <g>
       <use style="stroke:#000000;stroke-width:0.8;" x="57.6" xlink:href="#m0fc3f944fd" y="62.604066"/>
      </g>
     </g>
     <g id="text_16">
      <!-- 0.5 -->
      <g transform="translate(34.696875 66.403285)scale(0.1 -0.1)">
       <use xlink:href="#DejaVuSans-48"/>
       <use x="63.623047" xlink:href="#DejaVuSans-46"/>
       <use x="95.410156" xlink:href="#DejaVuSans-53"/>
      </g>
     </g>
    </g>
    <g id="text_17">
     <!-- Mean train reward -->
     <defs>
      <path d="M 9.8125 72.90625 
L 24.515625 72.90625 
L 43.109375 23.296875 
L 61.8125 72.90625 
L 76.515625 72.90625 
L 76.515625 0 
L 66.890625 0 
L 66.890625 64.015625 
L 48.09375 14.015625 
L 38.1875 14.015625 
L 19.390625 64.015625 
L 19.390625 0 
L 9.8125 0 
z
" id="DejaVuSans-77"/>
      <path d="M 56.203125 29.59375 
L 56.203125 25.203125 
L 14.890625 25.203125 
Q 15.484375 15.921875 20.484375 11.0625 
Q 25.484375 6.203125 34.421875 6.203125 
Q 39.59375 6.203125 44.453125 7.46875 
Q 49.3125 8.734375 54.109375 11.28125 
L 54.109375 2.78125 
Q 49.265625 0.734375 44.1875 -0.34375 
Q 39.109375 -1.421875 33.890625 -1.421875 
Q 20.796875 -1.421875 13.15625 6.1875 
Q 5.515625 13.8125 5.515625 26.8125 
Q 5.515625 40.234375 12.765625 48.109375 
Q 20.015625 56 32.328125 56 
Q 43.359375 56 49.78125 48.890625 
Q 56.203125 41.796875 56.203125 29.59375 
z
M 47.21875 32.234375 
Q 47.125 39.59375 43.09375 43.984375 
Q 39.0625 48.390625 32.421875 48.390625 
Q 24.90625 48.390625 20.390625 44.140625 
Q 15.875 39.890625 15.1875 32.171875 
z
" id="DejaVuSans-101"/>
      <path d="M 34.28125 27.484375 
Q 23.390625 27.484375 19.1875 25 
Q 14.984375 22.515625 14.984375 16.5 
Q 14.984375 11.71875 18.140625 8.90625 
Q 21.296875 6.109375 26.703125 6.109375 
Q 34.1875 6.109375 38.703125 11.40625 
Q 43.21875 16.703125 43.21875 25.484375 
L 43.21875 27.484375 
z
M 52.203125 31.203125 
L 52.203125 0 
L 43.21875 0 
L 43.21875 8.296875 
Q 40.140625 3.328125 35.546875 0.953125 
Q 30.953125 -1.421875 24.3125 -1.421875 
Q 15.921875 -1.421875 10.953125 3.296875 
Q 6 8.015625 6 15.921875 
Q 6 25.140625 12.171875 29.828125 
Q 18.359375 34.515625 30.609375 34.515625 
L 43.21875 34.515625 
L 43.21875 35.40625 
Q 43.21875 41.609375 39.140625 45 
Q 35.0625 48.390625 27.6875 48.390625 
Q 23 48.390625 18.546875 47.265625 
Q 14.109375 46.140625 10.015625 43.890625 
L 10.015625 52.203125 
Q 14.9375 54.109375 19.578125 55.046875 
Q 24.21875 56 28.609375 56 
Q 40.484375 56 46.34375 49.84375 
Q 52.203125 43.703125 52.203125 31.203125 
z
" id="DejaVuSans-97"/>
      <path d="M 54.890625 33.015625 
L 54.890625 0 
L 45.90625 0 
L 45.90625 32.71875 
Q 45.90625 40.484375 42.875 44.328125 
Q 39.84375 48.1875 33.796875 48.1875 
Q 26.515625 48.1875 22.3125 43.546875 
Q 18.109375 38.921875 18.109375 30.90625 
L 18.109375 0 
L 9.078125 0 
L 9.078125 54.6875 
L 18.109375 54.6875 
L 18.109375 46.1875 
Q 21.34375 51.125 25.703125 53.5625 
Q 30.078125 56 35.796875 56 
Q 45.21875 56 50.046875 50.171875 
Q 54.890625 44.34375 54.890625 33.015625 
z
" id="DejaVuSans-110"/>
      <path id="DejaVuSans-32"/>
      <path d="M 18.3125 70.21875 
L 18.3125 54.6875 
L 36.8125 54.6875 
L 36.8125 47.703125 
L 18.3125 47.703125 
L 18.3125 18.015625 
Q 18.3125 11.328125 20.140625 9.421875 
Q 21.96875 7.515625 27.59375 7.515625 
L 36.8125 7.515625 
L 36.8125 0 
L 27.59375 0 
Q 17.1875 0 13.234375 3.875 
Q 9.28125 7.765625 9.28125 18.015625 
L 9.28125 47.703125 
L 2.6875 47.703125 
L 2.6875 54.6875 
L 9.28125 54.6875 
L 9.28125 70.21875 
z
" id="DejaVuSans-116"/>
      <path d="M 9.421875 54.6875 
L 18.40625 54.6875 
L 18.40625 0 
L 9.421875 0 
z
M 9.421875 75.984375 
L 18.40625 75.984375 
L 18.40625 64.59375 
L 9.421875 64.59375 
z
" id="DejaVuSans-105"/>
      <path d="M 4.203125 54.6875 
L 13.1875 54.6875 
L 24.421875 12.015625 
L 35.59375 54.6875 
L 46.1875 54.6875 
L 57.421875 12.015625 
L 68.609375 54.6875 
L 77.59375 54.6875 
L 63.28125 0 
L 52.6875 0 
L 40.921875 44.828125 
L 29.109375 0 
L 18.5 0 
z
" id="DejaVuSans-119"/>
      <path d="M 45.40625 46.390625 
L 45.40625 75.984375 
L 54.390625 75.984375 
L 54.390625 0 
L 45.40625 0 
L 45.40625 8.203125 
Q 42.578125 3.328125 38.25 0.953125 
Q 33.9375 -1.421875 27.875 -1.421875 
Q 17.96875 -1.421875 11.734375 6.484375 
Q 5.515625 14.40625 5.515625 27.296875 
Q 5.515625 40.1875 11.734375 48.09375 
Q 17.96875 56 27.875 56 
Q 33.9375 56 38.25 53.625 
Q 42.578125 51.265625 45.40625 46.390625 
z
M 14.796875 27.296875 
Q 14.796875 17.390625 18.875 11.75 
Q 22.953125 6.109375 30.078125 6.109375 
Q 37.203125 6.109375 41.296875 11.75 
Q 45.40625 17.390625 45.40625 27.296875 
Q 45.40625 37.203125 41.296875 42.84375 
Q 37.203125 48.484375 30.078125 48.484375 
Q 22.953125 48.484375 18.875 42.84375 
Q 14.796875 37.203125 14.796875 27.296875 
z
" id="DejaVuSans-100"/>
     </defs>
     <g transform="translate(20.2375 220.479562)rotate(-90)scale(0.1 -0.1)">
      <use xlink:href="#DejaVuSans-77"/>
      <use x="86.279297" xlink:href="#DejaVuSans-101"/>
      <use x="147.802734" xlink:href="#DejaVuSans-97"/>
      <use x="209.082031" xlink:href="#DejaVuSans-110"/>
      <use x="272.460938" xlink:href="#DejaVuSans-32"/>
      <use x="304.248047" xlink:href="#DejaVuSans-116"/>
      <use x="343.457031" xlink:href="#DejaVuSans-114"/>
      <use x="384.570312" xlink:href="#DejaVuSans-97"/>
      <use x="445.849609" xlink:href="#DejaVuSans-105"/>
      <use x="473.632812" xlink:href="#DejaVuSans-110"/>
      <use x="537.011719" xlink:href="#DejaVuSans-32"/>
      <use x="568.798828" xlink:href="#DejaVuSans-114"/>
      <use x="609.880859" xlink:href="#DejaVuSans-101"/>
      <use x="671.404297" xlink:href="#DejaVuSans-119"/>
      <use x="753.191406" xlink:href="#DejaVuSans-97"/>
      <use x="814.470703" xlink:href="#DejaVuSans-114"/>
      <use x="855.568359" xlink:href="#DejaVuSans-100"/>
     </g>
    </g>
   </g>
   <g id="line2d_31">
    <path clip-path="url(#p804ae64230)" d="M 57.6 274.236742 
L 57.685549 269.268551 
L 57.758169 270.929276 
L 58.156633 274.221728 
L 58.252717 273.212295 
L 58.358844 275.67321 
L 58.371819 275.149359 
L 58.761582 267.01422 
L 58.919806 266.55731 
L 59.156039 269.200224 
L 59.32136 269.194444 
L 59.483764 271.032404 
L 59.619485 268.994088 
L 60.12726 273.028244 
L 60.387456 266.82147 
L 60.610282 265.896154 
L 60.977795 262.836824 
L 60.981861 263.118087 
L 61.026335 262.71517 
L 61.183791 264.966347 
L 61.309416 265.245376 
L 61.400103 262.434582 
L 61.652897 263.840038 
L 61.741768 266.105153 
L 62.249205 261.471154 
L 62.644958 259.134122 
L 62.735466 260.049709 
L 62.77671 258.340081 
L 62.925683 258.074419 
L 63.010756 264.618956 
L 63.311909 264.875447 
L 63.542831 263.848892 
L 63.936133 250.336499 
L 64.121721 262.332843 
L 64.255337 265.647448 
L 64.421864 261.21178 
L 64.717699 258.958111 
L 64.920909 259.95413 
L 65.206246 269.177378 
L 65.327346 270.686734 
L 65.976012 280.538901 
L 66.185324 272.33111 
L 67.089558 269.604714 
L 67.393927 272.751503 
L 67.399942 271.565572 
L 67.845521 269.215642 
L 68.152202 257.889582 
L 68.419764 256.357023 
L 69.547078 229.011926 
L 70.692721 210.80569 
L 70.69678 213.069805 
L 71.197537 211.315875 
L 72.092268 205.585944 
L 72.695684 208.338785 
L 72.740471 210.846128 
L 75.004201 194.152137 
L 75.46033 215.977975 
L 76.021778 224.434285 
L 76.217125 233.788391 
L 76.611614 244.048682 
L 76.620436 241.012705 
L 77.017983 235.290573 
L 77.372105 235.120912 
L 77.492769 244.39925 
L 78.021959 251.44614 
L 78.506354 253.301544 
L 78.800876 265.14224 
L 79.06028 264.589794 
L 79.392134 258.648022 
L 79.650255 266.627959 
L 80.542373 272.992489 
L 80.908596 265.926086 
L 81.532352 287.706307 
L 82.227296 272.225653 
L 82.901925 295.488 
L 83.165483 292.953781 
L 83.228587 293.599698 
L 83.42277 285.991894 
L 83.511329 293.893545 
L 83.789144 294.316682 
L 83.864588 295.320377 
L 84.700982 274.355854 
L 84.978553 274.052781 
L 85.304246 261.360357 
L 85.81939 266.652501 
L 86.043912 266.626602 
L 86.145945 266.848597 
L 86.561079 279.902528 
L 87.075726 286.632313 
L 87.422382 276.462461 
L 87.521095 281.116168 
L 87.934457 282.558749 
L 88.072378 282.411886 
L 88.453667 288.458242 
L 88.655977 281.203038 
L 88.86111 262.710136 
L 89.051024 266.457583 
L 89.107181 273.137619 
L 89.188267 271.948072 
L 89.620449 270.41289 
L 89.805859 271.515547 
L 89.832327 270.435334 
L 89.892843 271.850387 
L 90.199859 270.46762 
L 90.356896 271.293216 
L 90.581059 269.243969 
L 90.659912 270.208041 
L 91.132041 263.075604 
L 91.181434 265.48664 
L 91.194959 264.916173 
L 91.368937 265.85159 
L 91.438152 264.135062 
L 91.544687 267.843094 
L 91.889409 268.274311 
L 91.991761 265.389361 
L 92.103478 264.980768 
L 92.208973 263.841228 
L 92.57054 264.957679 
L 92.681043 264.557467 
L 92.733703 265.312992 
L 92.879547 263.833463 
L 92.933078 264.275708 
L 93.080164 263.895399 
L 93.106819 266.910931 
L 93.290371 263.552073 
L 93.322906 263.98107 
L 93.557843 265.280517 
L 93.670993 269.897713 
L 93.959805 270.985837 
L 94.298561 270.574464 
L 94.309994 270.231196 
L 94.512727 271.223942 
L 94.645244 270.149582 
L 94.711232 270.789829 
L 94.864839 270.735564 
L 95.038248 271.925907 
L 95.260754 267.717359 
L 95.480051 270.036071 
L 95.577304 267.477747 
L 95.732071 267.645976 
L 95.90732 263.257228 
L 95.910564 263.686762 
L 96.016065 263.593059 
L 96.30264 264.261088 
L 96.395996 264.77849 
L 96.432689 264.478355 
L 96.495889 263.201662 
L 96.563455 261.16393 
L 96.7037 261.832862 
L 96.774548 263.578186 
L 96.908553 262.870739 
L 97.1248 263.078212 
L 97.301181 261.845596 
L 97.425062 264.087811 
L 97.64221 258.713624 
L 97.679769 259.45784 
L 97.743566 260.383986 
L 98.048807 257.424587 
L 98.139162 256.388107 
L 98.497702 261.092281 
L 98.547438 260.554192 
L 98.853224 255.705901 
L 99.162647 260.115204 
L 99.215024 259.623904 
L 99.244517 257.650539 
L 99.74797 248.63238 
L 99.992438 254.421345 
L 100.065706 254.23305 
L 100.200725 251.161417 
L 100.342976 255.478126 
L 100.51746 251.285563 
L 100.810967 251.532675 
L 101.031325 253.267046 
L 101.194431 248.639785 
L 101.214516 249.985722 
L 101.382983 252.460469 
L 101.655755 253.049572 
L 101.707123 254.443516 
L 101.739483 253.832558 
L 101.885727 249.850257 
L 101.910646 249.92739 
L 102.018492 249.828272 
L 102.040803 250.098412 
L 102.411396 248.179944 
L 102.483063 249.376657 
L 102.615861 247.858632 
L 102.937417 251.094964 
L 103.034853 248.079509 
L 103.341727 249.725779 
L 103.39226 248.474157 
L 103.476469 248.901165 
L 103.7225 247.22117 
L 103.871823 247.671343 
L 103.906962 247.503964 
L 104.10706 245.048765 
L 104.277217 247.069123 
L 104.339578 245.152 
L 104.495423 245.443572 
L 104.779004 244.340504 
L 104.942331 244.748288 
L 105.077615 245.981342 
L 105.345141 241.172302 
L 105.446818 243.783548 
L 105.621082 245.034395 
L 105.740759 243.730192 
L 105.701359 245.305571 
L 105.779397 243.805326 
L 105.831479 245.005472 
L 105.97348 236.995514 
L 106.112135 243.92465 
L 106.196331 242.77099 
L 106.431777 236.45795 
L 106.834515 233.402217 
L 107.018353 236.490252 
L 107.035302 235.569775 
L 107.147839 239.032041 
L 107.3946 233.789509 
L 107.491682 236.484802 
L 107.777093 233.927674 
L 107.778503 234.300691 
L 108.055611 237.204776 
L 108.305236 232.488373 
L 108.318137 229.677363 
L 108.598482 223.40089 
L 109.059531 204.648053 
L 109.141941 214.697011 
L 109.357391 216.578189 
L 109.530214 194.513568 
L 109.759208 183.040365 
L 110.004289 198.594696 
L 111.503278 174.240578 
L 111.534564 177.980243 
L 112.486893 160.798618 
L 113.317295 152.136482 
L 113.36263 156.369514 
L 114.344606 186.233343 
L 115.048414 171.656949 
L 117.772441 138.353381 
L 118.956125 150.75719 
L 120.020439 164.334082 
L 121.43066 167.282346 
L 123.416654 162.223575 
L 124.117719 154.038545 
L 124.604056 146.691572 
L 124.735189 142.655556 
L 126.698466 143.912201 
L 127.60099 159.727891 
L 128.179744 158.725131 
L 128.666309 161.331215 
L 129.638024 149.211466 
L 129.740786 146.718527 
L 130.163001 145.572381 
L 130.551406 151.195401 
L 130.911277 151.150676 
L 131.167017 155.397225 
L 131.261506 155.045149 
L 131.263869 156.488526 
L 131.436621 158.226662 
L 131.527883 156.956945 
L 132.476979 161.442391 
L 132.772322 163.690462 
L 133.580433 166.841488 
L 133.591393 166.316431 
L 133.596065 166.451173 
L 134.22905 169.350868 
L 134.573054 172.247573 
L 136.14031 166.922244 
L 137.405473 160.335962 
L 138.249195 166.612924 
L 139.086977 167.763154 
L 139.372248 165.386012 
L 140.37188 172.870083 
L 140.380584 172.626986 
L 140.457267 174.685596 
L 141.457513 157.056044 
L 142.267332 164.724015 
L 142.79135 158.63343 
L 144.190654 183.636035 
L 144.512087 185.569482 
L 144.928753 186.01994 
L 145.20614 189.239765 
L 145.227455 187.839242 
L 146.448275 156.859541 
L 148.135787 162.154334 
L 148.230167 160.4564 
L 148.487591 153.620258 
L 148.961744 163.102025 
L 149.838504 169.142009 
L 150.058005 167.201525 
L 150.326241 170.931376 
L 150.937851 174.089723 
L 152.009644 172.362281 
L 152.564176 178.674537 
L 154.263979 171.403579 
L 198.000235 173.592266 
L 198.042526 170.961179 
L 198.621766 178.60885 
L 198.744148 177.343206 
L 199.063408 184.604262 
L 199.130982 183.746905 
L 199.442519 179.810108 
L 199.965526 180.606202 
L 200.216824 180.493685 
L 200.971685 169.175831 
L 201.262178 167.694837 
L 201.80418 170.838712 
L 203.13754 168.405391 
L 203.74832 169.523937 
L 204.956191 178.9028 
L 205.186581 175.975931 
L 205.36782 179.978639 
L 206.303743 166.982135 
L 206.954281 164.603331 
L 208.274059 164.346587 
L 209.349786 159.188356 
L 209.613516 162.044541 
L 209.833372 159.210396 
L 210.570988 169.223513 
L 211.203267 168.758429 
L 211.211022 168.492276 
L 212.012468 173.499466 
L 212.675115 175.092719 
L 214.139183 189.323631 
L 214.874267 184.839333 
L 215.725608 168.744914 
L 215.77837 165.640667 
L 217.261485 158.461788 
L 217.624734 163.003189 
L 218.632705 159.561274 
L 219.335116 161.114794 
L 220.167142 160.637867 
L 220.61689 157.71815 
L 220.637204 162.182716 
L 221.511535 159.838029 
L 222.127929 165.900364 
L 224.43383 161.176735 
L 224.696235 164.147082 
L 226.459113 154.398183 
L 228.430706 152.566469 
L 231.786779 131.698771 
L 234.330169 90.529975 
L 236.179592 90.288923 
L 236.356278 89.324638 
L 236.687742 79.887693 
L 237.256271 93.606288 
L 237.353962 107.681846 
L 238.978136 100.433737 
L 239.077115 95.873965 
L 240.260642 108.983893 
L 240.885857 111.949062 
L 242.681643 124.533911 
L 243.611588 144.33051 
L 243.879563 142.920141 
L 243.951549 143.817481 
L 244.750529 129.300639 
L 246.827077 122.706883 
L 246.884336 119.935472 
L 246.939227 121.707464 
L 246.993554 123.475103 
L 248.558535 59.869386 
L 251.654584 64.022921 
L 253.815961 78.303631 
L 254.013761 77.217891 
L 254.35478 79.806719 
L 257.380236 87.926483 
L 260.321935 99.046692 
L 262.22361 111.958859 
L 262.233469 111.465066 
L 263.23799 139.984638 
L 268.496369 146.135842 
L 268.880174 145.680616 
L 269.78822 150.111442 
L 271.451749 149.862911 
L 271.555368 157.165635 
L 272.485404 154.260275 
L 272.753451 154.749066 
L 273.152005 152.093452 
L 276.401979 146.573835 
L 276.593243 148.130559 
L 277.213181 135.468279 
L 277.564536 128.450822 
L 278.788956 124.209205 
L 279.539479 130.749577 
L 282.296097 122.238962 
L 282.457743 119.778423 
L 282.520495 121.081946 
L 283.521905 115.964706 
L 283.594771 112.148692 
L 284.075381 103.59648 
L 284.614676 102.793563 
L 284.809247 108.802262 
L 286.43185 120.880217 
L 287.234744 123.884785 
L 287.236387 123.751257 
L 287.582045 129.067996 
L 289.274077 122.576144 
L 289.618521 121.851096 
L 290.184948 133.281094 
L 290.340749 133.431747 
L 291.66535 105.369521 
L 292.147001 86.967184 
L 292.753093 106.7607 
L 293.107546 107.975955 
L 294.157488 92.454368 
L 294.26798 97.952072 
L 295.422693 55.690186 
L 295.94891 53.568 
L 297.094844 87.989983 
L 297.277772 88.214873 
L 297.457425 98.706371 
L 301.547187 93.285574 
L 302.193055 119.637547 
L 305.516696 91.412849 
L 305.909682 83.734325 
L 308.385912 83.419658 
L 308.608973 87.598727 
L 308.901206 105.235348 
L 309.3865 108.516977 
L 310.003646 96.067537 
L 310.101203 103.221966 
L 311.036646 132.032367 
L 311.207908 130.009854 
L 313.14952 151.185942 
L 313.584397 144.436328 
L 314.012301 141.763464 
L 314.622013 134.884358 
L 315.780874 113.628597 
L 316.716163 110.589267 
L 317.239495 129.301722 
L 317.902724 113.939852 
L 318.275232 117.091026 
L 319.343718 103.733638 
L 320.207585 126.060662 
L 320.363694 133.666402 
L 321.125855 126.942355 
L 321.138444 127.127201 
L 321.361141 132.959418 
L 321.402126 132.476647 
L 322.103263 131.194272 
L 322.672486 134.180502 
L 322.927279 141.112239 
L 323.138113 142.115759 
L 324.663567 120.163293 
L 324.713691 122.763713 
L 325.414586 125.183573 
L 325.745424 146.69681 
L 326.102262 145.889498 
L 326.163726 147.3289 
L 326.409815 145.463589 
L 326.627826 147.1108 
L 327.309853 135.119199 
L 327.799973 148.064894 
L 328.147292 146.509176 
L 328.161383 144.320515 
L 328.353008 139.778841 
L 329.246435 134.290946 
L 329.989657 141.260387 
L 330.527614 146.05348 
L 330.756134 149.329838 
L 331.028369 144.605166 
L 331.989013 147.531001 
L 332.168948 149.823227 
L 332.829485 143.907061 
L 334.08442 144.124855 
L 334.702026 158.908517 
L 335.307224 172.990035 
L 335.79869 159.66385 
L 335.908848 159.92335 
L 335.958187 162.205909 
L 336.131181 159.475986 
L 336.875863 170.21565 
L 337.449955 173.760256 
L 337.630894 173.401783 
L 338.721361 176.648491 
L 338.777671 177.428789 
L 339.244811 161.765795 
L 339.890009 175.249051 
L 340.002083 171.943835 
L 340.422865 166.502775 
L 340.561261 171.862008 
L 341.274068 165.025013 
L 341.658649 156.358328 
L 341.722602 160.130738 
L 341.941336 155.807797 
L 342.01927 158.766843 
L 342.23166 158.430344 
L 342.356098 163.901836 
L 343.77821 160.984426 
L 344.317522 164.094102 
L 344.478265 169.204825 
L 345.02463 178.954173 
L 345.249568 169.13694 
L 345.306742 170.51515 
L 345.368627 170.698766 
L 345.598159 167.521594 
L 345.93137 170.680963 
L 346.795002 180.469798 
L 347.449473 166.74508 
L 347.619476 172.695685 
L 348.203433 171.191586 
L 348.315815 167.683722 
L 349.248994 184.662447 
L 350.729747 162.245899 
L 351.27536 172.861997 
L 352.324598 165.361567 
L 352.846288 159.793026 
L 353.197897 149.415809 
L 353.540025 154.03626 
L 353.726287 154.849598 
L 354.082068 160.294075 
L 354.211794 163.894811 
L 354.823871 158.876691 
L 355.124658 161.017483 
L 355.502208 167.107461 
L 355.680969 163.690883 
L 356.016064 159.671094 
L 356.614668 160.990003 
L 356.758307 165.340883 
L 357.336167 166.378001 
L 357.773985 169.797034 
L 358.02024 170.336914 
L 358.063053 165.193063 
L 359.384148 181.006818 
L 360.038555 170.11227 
L 360.311618 170.543045 
L 360.765096 170.480704 
L 360.940344 172.826633 
L 361.215269 165.229783 
L 361.39276 161.400532 
L 362.739914 183.824916 
L 363.562516 180.546841 
L 363.728218 182.317766 
L 363.845739 181.908456 
L 364.493458 163.700599 
L 364.548437 163.331705 
L 364.577829 162.335883 
L 364.861455 164.370321 
L 365.862453 161.81239 
L 366.167377 150.855867 
L 366.244496 155.923605 
L 366.667166 148.743293 
L 366.926071 154.431092 
L 367.172316 164.756099 
L 367.442529 163.766225 
L 367.646753 156.300503 
L 367.827859 161.232783 
L 368.429445 151.644678 
L 368.7377 158.535178 
L 369.357444 141.696859 
L 369.429095 142.133955 
L 369.810334 145.167282 
L 369.907813 147.286209 
L 369.948113 152.957091 
L 369.997121 151.43116 
L 370.245536 145.935523 
L 370.630723 146.846369 
L 371.001153 148.048863 
L 371.114764 145.991237 
L 371.186321 147.200139 
L 371.67254 142.912847 
L 372.075311 142.425319 
L 372.583907 154.207776 
L 373.455491 161.441796 
L 373.58367 159.656988 
L 373.652551 156.352653 
L 373.797945 160.804348 
L 374.779243 151.029199 
L 375.501715 154.84033 
L 375.799999 149.185353 
L 375.95099 150.048927 
L 376.053159 148.199264 
L 376.1715 143.532634 
L 376.555792 148.879664 
L 376.580842 150.231782 
L 376.761143 147.290561 
L 377.019248 154.98522 
L 377.837018 170.158662 
L 378.873282 144.848328 
L 379.302701 136.513188 
L 379.449352 142.992104 
L 379.688477 146.767582 
L 380.083286 149.716698 
L 380.206815 153.916007 
L 380.424143 151.344576 
L 380.426632 151.864002 
L 380.644942 142.732659 
L 381.309328 156.633546 
L 381.953549 152.459809 
L 382.1054 152.480739 
L 382.319303 155.214249 
L 382.488304 161.637287 
L 383.355401 163.215602 
L 383.384506 165.896022 
L 383.577682 163.358567 
L 384.353339 182.735452 
L 384.907922 183.110682 
L 384.948806 184.317261 
L 385.377309 176.66842 
L 385.779136 193.838039 
L 386.533982 204.167434 
L 386.56535 203.203714 
L 386.781292 198.714359 
L 386.935259 194.391724 
L 387.085344 193.690465 
L 387.099355 194.727545 
L 387.244643 187.452278 
L 387.923797 214.25164 
L 388.014301 212.612001 
L 388.325112 201.951143 
L 388.361025 202.577617 
L 389.065119 205.136809 
L 389.257145 199.010398 
L 390.122333 204.992874 
L 390.170035 208.276392 
L 390.589198 216.479185 
L 390.903225 204.612419 
L 391.14797 205.479956 
L 391.620896 214.836763 
L 391.625546 214.655031 
L 391.663611 213.66056 
L 391.683787 216.069375 
L 391.761923 214.107174 
L 391.791444 214.411737 
L 391.94187 211.998865 
L 392.193798 214.730931 
L 392.213299 211.273494 
L 392.23265 213.847369 
L 392.327803 213.301658 
L 392.337302 212.225647 
L 392.417774 213.568785 
L 392.656699 218.051689 
L 392.743438 217.247952 
L 392.873021 213.255444 
L 392.894146 217.917319 
L 393.001979 211.69405 
L 393.429486 215.11933 
L 393.633248 211.398271 
L 393.642675 214.393596 
L 393.886768 213.57142 
L 394.342726 225.95524 
L 394.644646 215.374325 
L 395.34934 227.370714 
L 395.670708 220.257011 
L 395.852335 223.411686 
L 395.979559 213.040335 
L 396.058561 213.160773 
L 396.226502 211.329528 
L 396.479041 227.689973 
L 396.641241 226.619067 
L 396.868444 218.63629 
L 396.989131 219.802698 
L 397.063445 219.745913 
L 397.218267 220.81243 
L 397.255271 221.908917 
L 397.30629 220.67967 
L 397.451466 223.565716 
L 397.721825 223.997601 
L 398.096887 218.004679 
L 398.258449 217.087753 
L 398.304034 221.016759 
L 398.827176 219.751695 
L 399.226704 220.483107 
L 399.312918 217.439291 
L 399.545673 220.83372 
L 399.563164 220.604727 
L 399.875073 230.009312 
L 399.998453 231.470127 
L 400.20559 225.540268 
L 400.672623 227.480712 
L 401.056887 215.860647 
L 401.067897 218.133589 
L 401.130242 217.086701 
L 401.409194 217.471125 
L 401.543889 217.450357 
L 401.750555 211.304858 
L 401.75314 211.665428 
L 402.245312 208.513166 
L 402.496832 200.546717 
L 402.582201 206.921296 
L 402.633143 204.469454 
L 402.666556 202.169899 
L 402.952365 210.47704 
L 402.998579 208.844235 
L 403.20808 198.969194 
L 403.229369 199.624493 
L 403.415198 208.245126 
L 403.749298 200.038718 
L 404.01635 198.865109 
L 404.109873 203.193933 
L 404.267924 206.299297 
L 404.283965 204.720031 
L 404.489816 199.755774 
L 404.616289 205.251758 
L 404.709706 201.421258 
L 405.5564 194.776321 
L 405.593982 196.111845 
L 406.060476 197.303339 
L 406.229926 199.344556 
L 406.246067 197.922607 
L 406.272258 200.034339 
L 406.570656 197.920666 
L 406.69069 199.742488 
L 406.780439 198.04439 
L 406.811033 199.941254 
L 407.148204 200.523595 
L 407.276679 200.328571 
L 407.302482 202.128611 
L 407.379075 200.333648 
L 407.401532 200.506375 
L 407.633778 192.224786 
L 407.830132 189.397011 
L 408.008153 192.94113 
L 408.20282 191.964494 
L 408.468099 186.715475 
L 408.807328 191.434483 
L 409.008396 187.417817 
L 409.129402 188.90197 
L 409.188602 198.19648 
L 409.433301 197.889173 
L 409.435916 198.06474 
L 410.155996 178.405524 
L 410.755007 174.221605 
L 411.212149 182.695987 
L 411.30805 186.829309 
L 411.467648 183.461216 
L 412.004709 174.796215 
L 412.192762 171.809837 
L 412.97501 169.608028 
L 413.440644 178.678829 
L 414.046795 173.809223 
L 414.72 175.675693 
L 414.72 175.675693 
" style="fill:none;stroke:#000000;stroke-linecap:square;stroke-width:0.8;"/>
   </g>
   <g id="patch_3">
    <path d="M 57.6 307.584 
L 57.6 41.472 
" style="fill:none;stroke:#000000;stroke-linecap:square;stroke-linejoin:miter;stroke-width:0.8;"/>
   </g>
   <g id="patch_4">
    <path d="M 414.72 307.584 
L 414.72 41.472 
" style="fill:none;stroke:#000000;stroke-linecap:square;stroke-linejoin:miter;stroke-width:0.8;"/>
   </g>
   <g id="patch_5">
    <path d="M 57.6 307.584 
L 414.72 307.584 
" style="fill:none;stroke:#000000;stroke-linecap:square;stroke-linejoin:miter;stroke-width:0.8;"/>
   </g>
   <g id="patch_6">
    <path d="M 57.6 41.472 
L 414.72 41.472 
" style="fill:none;stroke:#000000;stroke-linecap:square;stroke-linejoin:miter;stroke-width:0.8;"/>
   </g>
  </g>
  <g id="axes_2">
   <g id="matplotlib.axis_3">
    <g id="xtick_9">
     <g id="line2d_32">
      <defs>
       <path d="M 0 0 
L 0 -3.5 
" id="m9960c1d387" style="stroke:#000000;stroke-width:0.8;"/>
      </defs>
      <g>
       <use style="stroke:#000000;stroke-width:0.8;" x="57.6" xlink:href="#m9960c1d387" y="41.472"/>
      </g>
     </g>
    </g>
    <g id="xtick_10">
     <g id="line2d_33">
      <g>
       <use style="stroke:#000000;stroke-width:0.8;" x="118.368913" xlink:href="#m9960c1d387" y="41.472"/>
      </g>
     </g>
     <g id="text_18">
      <!-- 1,000K -->
      <defs>
       <path d="M 11.71875 12.40625 
L 22.015625 12.40625 
L 22.015625 4 
L 14.015625 -11.625 
L 7.71875 -11.625 
L 11.71875 4 
z
" id="DejaVuSans-44"/>
       <path d="M 9.8125 72.90625 
L 19.671875 72.90625 
L 19.671875 42.09375 
L 52.390625 72.90625 
L 65.09375 72.90625 
L 28.90625 38.921875 
L 67.671875 0 
L 54.6875 0 
L 19.671875 35.109375 
L 19.671875 0 
L 9.8125 0 
z
" id="DejaVuSans-75"/>
      </defs>
      <g transform="translate(100.775944 32.392313)scale(0.1 -0.1)">
       <use xlink:href="#DejaVuSans-49"/>
       <use x="63.623047" xlink:href="#DejaVuSans-44"/>
       <use x="95.410156" xlink:href="#DejaVuSans-48"/>
       <use x="159.033203" xlink:href="#DejaVuSans-48"/>
       <use x="222.65625" xlink:href="#DejaVuSans-48"/>
       <use x="286.279297" xlink:href="#DejaVuSans-75"/>
      </g>
     </g>
    </g>
    <g id="xtick_11">
     <g id="line2d_34">
      <g>
       <use style="stroke:#000000;stroke-width:0.8;" x="179.137825" xlink:href="#m9960c1d387" y="41.472"/>
      </g>
     </g>
     <g id="text_19">
      <!-- 2.00M -->
      <g transform="translate(163.69095 32.392313)scale(0.1 -0.1)">
       <use xlink:href="#DejaVuSans-50"/>
       <use x="63.623047" xlink:href="#DejaVuSans-46"/>
       <use x="95.410156" xlink:href="#DejaVuSans-48"/>
       <use x="159.033203" xlink:href="#DejaVuSans-48"/>
       <use x="222.65625" xlink:href="#DejaVuSans-77"/>
      </g>
     </g>
    </g>
    <g id="xtick_12">
     <g id="line2d_35">
      <g>
       <use style="stroke:#000000;stroke-width:0.8;" x="239.906738" xlink:href="#m9960c1d387" y="41.472"/>
      </g>
     </g>
     <g id="text_20">
      <!-- 3.00M -->
      <g transform="translate(224.459863 32.392313)scale(0.1 -0.1)">
       <use xlink:href="#DejaVuSans-51"/>
       <use x="63.623047" xlink:href="#DejaVuSans-46"/>
       <use x="95.410156" xlink:href="#DejaVuSans-48"/>
       <use x="159.033203" xlink:href="#DejaVuSans-48"/>
       <use x="222.65625" xlink:href="#DejaVuSans-77"/>
      </g>
     </g>
    </g>
    <g id="xtick_13">
     <g id="line2d_36">
      <g>
       <use style="stroke:#000000;stroke-width:0.8;" x="300.67565" xlink:href="#m9960c1d387" y="41.472"/>
      </g>
     </g>
     <g id="text_21">
      <!-- 4.00M -->
      <g transform="translate(285.228775 32.392313)scale(0.1 -0.1)">
       <use xlink:href="#DejaVuSans-52"/>
       <use x="63.623047" xlink:href="#DejaVuSans-46"/>
       <use x="95.410156" xlink:href="#DejaVuSans-48"/>
       <use x="159.033203" xlink:href="#DejaVuSans-48"/>
       <use x="222.65625" xlink:href="#DejaVuSans-77"/>
      </g>
     </g>
    </g>
    <g id="xtick_14">
     <g id="line2d_37">
      <g>
       <use style="stroke:#000000;stroke-width:0.8;" x="361.444563" xlink:href="#m9960c1d387" y="41.472"/>
      </g>
     </g>
     <g id="text_22">
      <!-- 5.00M -->
      <g transform="translate(345.997688 32.392313)scale(0.1 -0.1)">
       <use xlink:href="#DejaVuSans-53"/>
       <use x="63.623047" xlink:href="#DejaVuSans-46"/>
       <use x="95.410156" xlink:href="#DejaVuSans-48"/>
       <use x="159.033203" xlink:href="#DejaVuSans-48"/>
       <use x="222.65625" xlink:href="#DejaVuSans-77"/>
      </g>
     </g>
    </g>
    <g id="text_23">
     <!-- Steps -->
     <defs>
      <path d="M 53.515625 70.515625 
L 53.515625 60.890625 
Q 47.90625 63.578125 42.921875 64.890625 
Q 37.9375 66.21875 33.296875 66.21875 
Q 25.25 66.21875 20.875 63.09375 
Q 16.5 59.96875 16.5 54.203125 
Q 16.5 49.359375 19.40625 46.890625 
Q 22.3125 44.4375 30.421875 42.921875 
L 36.375 41.703125 
Q 47.40625 39.59375 52.65625 34.296875 
Q 57.90625 29 57.90625 20.125 
Q 57.90625 9.515625 50.796875 4.046875 
Q 43.703125 -1.421875 29.984375 -1.421875 
Q 24.8125 -1.421875 18.96875 -0.25 
Q 13.140625 0.921875 6.890625 3.21875 
L 6.890625 13.375 
Q 12.890625 10.015625 18.65625 8.296875 
Q 24.421875 6.59375 29.984375 6.59375 
Q 38.421875 6.59375 43.015625 9.90625 
Q 47.609375 13.234375 47.609375 19.390625 
Q 47.609375 24.75 44.3125 27.78125 
Q 41.015625 30.8125 33.5 32.328125 
L 27.484375 33.5 
Q 16.453125 35.6875 11.515625 40.375 
Q 6.59375 45.0625 6.59375 53.421875 
Q 6.59375 63.09375 13.40625 68.65625 
Q 20.21875 74.21875 32.171875 74.21875 
Q 37.3125 74.21875 42.625 73.28125 
Q 47.953125 72.359375 53.515625 70.515625 
z
" id="DejaVuSans-83"/>
      <path d="M 18.109375 8.203125 
L 18.109375 -20.796875 
L 9.078125 -20.796875 
L 9.078125 54.6875 
L 18.109375 54.6875 
L 18.109375 46.390625 
Q 20.953125 51.265625 25.265625 53.625 
Q 29.59375 56 35.59375 56 
Q 45.5625 56 51.78125 48.09375 
Q 58.015625 40.1875 58.015625 27.296875 
Q 58.015625 14.40625 51.78125 6.484375 
Q 45.5625 -1.421875 35.59375 -1.421875 
Q 29.59375 -1.421875 25.265625 0.953125 
Q 20.953125 3.328125 18.109375 8.203125 
z
M 48.6875 27.296875 
Q 48.6875 37.203125 44.609375 42.84375 
Q 40.53125 48.484375 33.40625 48.484375 
Q 26.265625 48.484375 22.1875 42.84375 
Q 18.109375 37.203125 18.109375 27.296875 
Q 18.109375 17.390625 22.1875 11.75 
Q 26.265625 6.109375 33.40625 6.109375 
Q 40.53125 6.109375 44.609375 11.75 
Q 48.6875 17.390625 48.6875 27.296875 
z
" id="DejaVuSans-112"/>
     </defs>
     <g transform="translate(222.170156 20.793875)scale(0.1 -0.1)">
      <use xlink:href="#DejaVuSans-83"/>
      <use x="63.476562" xlink:href="#DejaVuSans-116"/>
      <use x="102.685547" xlink:href="#DejaVuSans-101"/>
      <use x="164.208984" xlink:href="#DejaVuSans-112"/>
      <use x="227.685547" xlink:href="#DejaVuSans-115"/>
     </g>
    </g>
   </g>
   <g id="patch_7">
    <path d="M 57.6 307.584 
L 57.6 41.472 
" style="fill:none;stroke:#000000;stroke-linecap:square;stroke-linejoin:miter;stroke-width:0.8;"/>
   </g>
   <g id="patch_8">
    <path d="M 414.72 307.584 
L 414.72 41.472 
" style="fill:none;stroke:#000000;stroke-linecap:square;stroke-linejoin:miter;stroke-width:0.8;"/>
   </g>
   <g id="patch_9">
    <path d="M 57.6 307.584 
L 414.72 307.584 
" style="fill:none;stroke:#000000;stroke-linecap:square;stroke-linejoin:miter;stroke-width:0.8;"/>
   </g>
   <g id="patch_10">
    <path d="M 57.6 41.472 
L 414.72 41.472 
" style="fill:none;stroke:#000000;stroke-linecap:square;stroke-linejoin:miter;stroke-width:0.8;"/>
   </g>
  </g>
 </g>
 <defs>
  <clipPath id="p804ae64230">
   <rect height="266.112" width="357.12" x="57.6" y="41.472"/>
  </clipPath>
 </defs>
</svg>
