<?xml version="1.0" encoding="utf-8" standalone="no"?>
<!DOCTYPE svg PUBLIC "-//W3C//DTD SVG 1.1//EN"
  "http://www.w3.org/Graphics/SVG/1.1/DTD/svg11.dtd">
<!-- Created with matplotlib (https://matplotlib.org/) -->
<svg height="345.6pt" version="1.1" viewBox="0 0 460.8 345.6" width="460.8pt" xmlns="http://www.w3.org/2000/svg" xmlns:xlink="http://www.w3.org/1999/xlink">
 <defs>
  <style type="text/css">
*{stroke-linecap:butt;stroke-linejoin:round;}
  </style>
 </defs>
 <g id="figure_1">
  <g id="patch_1">
   <path d="M 0 345.6 
L 460.8 345.6 
L 460.8 0 
L 0 0 
z
" style="fill:#ffffff;"/>
  </g>
  <g id="axes_1">
   <g id="patch_2">
    <path d="M 57.6 307.584 
L 414.72 307.584 
L 414.72 41.472 
L 57.6 41.472 
z
" style="fill:#ffffff;"/>
   </g>
   <g id="matplotlib.axis_1">
    <g id="xtick_1">
     <g id="line2d_1">
      <path clip-path="url(#pf5b9e236cd)" d="M 57.6 307.584 
L 57.6 41.472 
" style="fill:none;stroke:#b0b0b0;stroke-linecap:square;stroke-width:0.8;"/>
     </g>
     <g id="line2d_2">
      <defs>
       <path d="M 0 0 
L 0 3.5 
" id="mb51f7eda45" style="stroke:#000000;stroke-width:0.8;"/>
      </defs>
      <g>
       <use style="stroke:#000000;stroke-width:0.8;" x="57.6" xlink:href="#mb51f7eda45" y="307.584"/>
      </g>
     </g>
     <g id="text_1">
      <!-- 0 -->
      <defs>
       <path d="M 31.78125 66.40625 
Q 24.171875 66.40625 20.328125 58.90625 
Q 16.5 51.421875 16.5 36.375 
Q 16.5 21.390625 20.328125 13.890625 
Q 24.171875 6.390625 31.78125 6.390625 
Q 39.453125 6.390625 43.28125 13.890625 
Q 47.125 21.390625 47.125 36.375 
Q 47.125 51.421875 43.28125 58.90625 
Q 39.453125 66.40625 31.78125 66.40625 
z
M 31.78125 74.21875 
Q 44.046875 74.21875 50.515625 64.515625 
Q 56.984375 54.828125 56.984375 36.375 
Q 56.984375 17.96875 50.515625 8.265625 
Q 44.046875 -1.421875 31.78125 -1.421875 
Q 19.53125 -1.421875 13.0625 8.265625 
Q 6.59375 17.96875 6.59375 36.375 
Q 6.59375 54.828125 13.0625 64.515625 
Q 19.53125 74.21875 31.78125 74.21875 
z
" id="DejaVuSans-48"/>
      </defs>
      <g transform="translate(54.41875 322.182437)scale(0.1 -0.1)">
       <use xlink:href="#DejaVuSans-48"/>
      </g>
     </g>
    </g>
    <g id="xtick_2">
     <g id="line2d_3">
      <path clip-path="url(#pf5b9e236cd)" d="M 107.666952 307.584 
L 107.666952 41.472 
" style="fill:none;stroke:#b0b0b0;stroke-linecap:square;stroke-width:0.8;"/>
     </g>
     <g id="line2d_4">
      <g>
       <use style="stroke:#000000;stroke-width:0.8;" x="107.666952" xlink:href="#mb51f7eda45" y="307.584"/>
      </g>
     </g>
     <g id="text_2">
      <!-- 1 -->
      <defs>
       <path d="M 12.40625 8.296875 
L 28.515625 8.296875 
L 28.515625 63.921875 
L 10.984375 60.40625 
L 10.984375 69.390625 
L 28.421875 72.90625 
L 38.28125 72.90625 
L 38.28125 8.296875 
L 54.390625 8.296875 
L 54.390625 0 
L 12.40625 0 
z
" id="DejaVuSans-49"/>
      </defs>
      <g transform="translate(104.485702 322.182437)scale(0.1 -0.1)">
       <use xlink:href="#DejaVuSans-49"/>
      </g>
     </g>
    </g>
    <g id="xtick_3">
     <g id="line2d_5">
      <path clip-path="url(#pf5b9e236cd)" d="M 157.733903 307.584 
L 157.733903 41.472 
" style="fill:none;stroke:#b0b0b0;stroke-linecap:square;stroke-width:0.8;"/>
     </g>
     <g id="line2d_6">
      <g>
       <use style="stroke:#000000;stroke-width:0.8;" x="157.733903" xlink:href="#mb51f7eda45" y="307.584"/>
      </g>
     </g>
     <g id="text_3">
      <!-- 2 -->
      <defs>
       <path d="M 19.1875 8.296875 
L 53.609375 8.296875 
L 53.609375 0 
L 7.328125 0 
L 7.328125 8.296875 
Q 12.9375 14.109375 22.625 23.890625 
Q 32.328125 33.6875 34.8125 36.53125 
Q 39.546875 41.84375 41.421875 45.53125 
Q 43.3125 49.21875 43.3125 52.78125 
Q 43.3125 58.59375 39.234375 62.25 
Q 35.15625 65.921875 28.609375 65.921875 
Q 23.96875 65.921875 18.8125 64.3125 
Q 13.671875 62.703125 7.8125 59.421875 
L 7.8125 69.390625 
Q 13.765625 71.78125 18.9375 73 
Q 24.125 74.21875 28.421875 74.21875 
Q 39.75 74.21875 46.484375 68.546875 
Q 53.21875 62.890625 53.21875 53.421875 
Q 53.21875 48.921875 51.53125 44.890625 
Q 49.859375 40.875 45.40625 35.40625 
Q 44.1875 33.984375 37.640625 27.21875 
Q 31.109375 20.453125 19.1875 8.296875 
z
" id="DejaVuSans-50"/>
      </defs>
      <g transform="translate(154.552653 322.182437)scale(0.1 -0.1)">
       <use xlink:href="#DejaVuSans-50"/>
      </g>
     </g>
    </g>
    <g id="xtick_4">
     <g id="line2d_7">
      <path clip-path="url(#pf5b9e236cd)" d="M 207.800855 307.584 
L 207.800855 41.472 
" style="fill:none;stroke:#b0b0b0;stroke-linecap:square;stroke-width:0.8;"/>
     </g>
     <g id="line2d_8">
      <g>
       <use style="stroke:#000000;stroke-width:0.8;" x="207.800855" xlink:href="#mb51f7eda45" y="307.584"/>
      </g>
     </g>
     <g id="text_4">
      <!-- 3 -->
      <defs>
       <path d="M 40.578125 39.3125 
Q 47.65625 37.796875 51.625 33 
Q 55.609375 28.21875 55.609375 21.1875 
Q 55.609375 10.40625 48.1875 4.484375 
Q 40.765625 -1.421875 27.09375 -1.421875 
Q 22.515625 -1.421875 17.65625 -0.515625 
Q 12.796875 0.390625 7.625 2.203125 
L 7.625 11.71875 
Q 11.71875 9.328125 16.59375 8.109375 
Q 21.484375 6.890625 26.8125 6.890625 
Q 36.078125 6.890625 40.9375 10.546875 
Q 45.796875 14.203125 45.796875 21.1875 
Q 45.796875 27.640625 41.28125 31.265625 
Q 36.765625 34.90625 28.71875 34.90625 
L 20.21875 34.90625 
L 20.21875 43.015625 
L 29.109375 43.015625 
Q 36.375 43.015625 40.234375 45.921875 
Q 44.09375 48.828125 44.09375 54.296875 
Q 44.09375 59.90625 40.109375 62.90625 
Q 36.140625 65.921875 28.71875 65.921875 
Q 24.65625 65.921875 20.015625 65.03125 
Q 15.375 64.15625 9.8125 62.3125 
L 9.8125 71.09375 
Q 15.4375 72.65625 20.34375 73.4375 
Q 25.25 74.21875 29.59375 74.21875 
Q 40.828125 74.21875 47.359375 69.109375 
Q 53.90625 64.015625 53.90625 55.328125 
Q 53.90625 49.265625 50.4375 45.09375 
Q 46.96875 40.921875 40.578125 39.3125 
z
" id="DejaVuSans-51"/>
      </defs>
      <g transform="translate(204.619605 322.182437)scale(0.1 -0.1)">
       <use xlink:href="#DejaVuSans-51"/>
      </g>
     </g>
    </g>
    <g id="xtick_5">
     <g id="line2d_9">
      <path clip-path="url(#pf5b9e236cd)" d="M 257.867806 307.584 
L 257.867806 41.472 
" style="fill:none;stroke:#b0b0b0;stroke-linecap:square;stroke-width:0.8;"/>
     </g>
     <g id="line2d_10">
      <g>
       <use style="stroke:#000000;stroke-width:0.8;" x="257.867806" xlink:href="#mb51f7eda45" y="307.584"/>
      </g>
     </g>
     <g id="text_5">
      <!-- 4 -->
      <defs>
       <path d="M 37.796875 64.3125 
L 12.890625 25.390625 
L 37.796875 25.390625 
z
M 35.203125 72.90625 
L 47.609375 72.90625 
L 47.609375 25.390625 
L 58.015625 25.390625 
L 58.015625 17.1875 
L 47.609375 17.1875 
L 47.609375 0 
L 37.796875 0 
L 37.796875 17.1875 
L 4.890625 17.1875 
L 4.890625 26.703125 
z
" id="DejaVuSans-52"/>
      </defs>
      <g transform="translate(254.686556 322.182437)scale(0.1 -0.1)">
       <use xlink:href="#DejaVuSans-52"/>
      </g>
     </g>
    </g>
    <g id="xtick_6">
     <g id="line2d_11">
      <path clip-path="url(#pf5b9e236cd)" d="M 307.934758 307.584 
L 307.934758 41.472 
" style="fill:none;stroke:#b0b0b0;stroke-linecap:square;stroke-width:0.8;"/>
     </g>
     <g id="line2d_12">
      <g>
       <use style="stroke:#000000;stroke-width:0.8;" x="307.934758" xlink:href="#mb51f7eda45" y="307.584"/>
      </g>
     </g>
     <g id="text_6">
      <!-- 5 -->
      <defs>
       <path d="M 10.796875 72.90625 
L 49.515625 72.90625 
L 49.515625 64.59375 
L 19.828125 64.59375 
L 19.828125 46.734375 
Q 21.96875 47.46875 24.109375 47.828125 
Q 26.265625 48.1875 28.421875 48.1875 
Q 40.625 48.1875 47.75 41.5 
Q 54.890625 34.8125 54.890625 23.390625 
Q 54.890625 11.625 47.5625 5.09375 
Q 40.234375 -1.421875 26.90625 -1.421875 
Q 22.3125 -1.421875 17.546875 -0.640625 
Q 12.796875 0.140625 7.71875 1.703125 
L 7.71875 11.625 
Q 12.109375 9.234375 16.796875 8.0625 
Q 21.484375 6.890625 26.703125 6.890625 
Q 35.15625 6.890625 40.078125 11.328125 
Q 45.015625 15.765625 45.015625 23.390625 
Q 45.015625 31 40.078125 35.4375 
Q 35.15625 39.890625 26.703125 39.890625 
Q 22.75 39.890625 18.8125 39.015625 
Q 14.890625 38.140625 10.796875 36.28125 
z
" id="DejaVuSans-53"/>
      </defs>
      <g transform="translate(304.753508 322.182437)scale(0.1 -0.1)">
       <use xlink:href="#DejaVuSans-53"/>
      </g>
     </g>
    </g>
    <g id="xtick_7">
     <g id="line2d_13">
      <path clip-path="url(#pf5b9e236cd)" d="M 358.001709 307.584 
L 358.001709 41.472 
" style="fill:none;stroke:#b0b0b0;stroke-linecap:square;stroke-width:0.8;"/>
     </g>
     <g id="line2d_14">
      <g>
       <use style="stroke:#000000;stroke-width:0.8;" x="358.001709" xlink:href="#mb51f7eda45" y="307.584"/>
      </g>
     </g>
     <g id="text_7">
      <!-- 6 -->
      <defs>
       <path d="M 33.015625 40.375 
Q 26.375 40.375 22.484375 35.828125 
Q 18.609375 31.296875 18.609375 23.390625 
Q 18.609375 15.53125 22.484375 10.953125 
Q 26.375 6.390625 33.015625 6.390625 
Q 39.65625 6.390625 43.53125 10.953125 
Q 47.40625 15.53125 47.40625 23.390625 
Q 47.40625 31.296875 43.53125 35.828125 
Q 39.65625 40.375 33.015625 40.375 
z
M 52.59375 71.296875 
L 52.59375 62.3125 
Q 48.875 64.0625 45.09375 64.984375 
Q 41.3125 65.921875 37.59375 65.921875 
Q 27.828125 65.921875 22.671875 59.328125 
Q 17.53125 52.734375 16.796875 39.40625 
Q 19.671875 43.65625 24.015625 45.921875 
Q 28.375 48.1875 33.59375 48.1875 
Q 44.578125 48.1875 50.953125 41.515625 
Q 57.328125 34.859375 57.328125 23.390625 
Q 57.328125 12.15625 50.6875 5.359375 
Q 44.046875 -1.421875 33.015625 -1.421875 
Q 20.359375 -1.421875 13.671875 8.265625 
Q 6.984375 17.96875 6.984375 36.375 
Q 6.984375 53.65625 15.1875 63.9375 
Q 23.390625 74.21875 37.203125 74.21875 
Q 40.921875 74.21875 44.703125 73.484375 
Q 48.484375 72.75 52.59375 71.296875 
z
" id="DejaVuSans-54"/>
      </defs>
      <g transform="translate(354.820459 322.182437)scale(0.1 -0.1)">
       <use xlink:href="#DejaVuSans-54"/>
      </g>
     </g>
    </g>
    <g id="xtick_8">
     <g id="line2d_15">
      <path clip-path="url(#pf5b9e236cd)" d="M 408.068661 307.584 
L 408.068661 41.472 
" style="fill:none;stroke:#b0b0b0;stroke-linecap:square;stroke-width:0.8;"/>
     </g>
     <g id="line2d_16">
      <g>
       <use style="stroke:#000000;stroke-width:0.8;" x="408.068661" xlink:href="#mb51f7eda45" y="307.584"/>
      </g>
     </g>
     <g id="text_8">
      <!-- 7 -->
      <defs>
       <path d="M 8.203125 72.90625 
L 55.078125 72.90625 
L 55.078125 68.703125 
L 28.609375 0 
L 18.3125 0 
L 43.21875 64.59375 
L 8.203125 64.59375 
z
" id="DejaVuSans-55"/>
      </defs>
      <g transform="translate(404.887411 322.182437)scale(0.1 -0.1)">
       <use xlink:href="#DejaVuSans-55"/>
      </g>
     </g>
    </g>
    <g id="text_9">
     <!-- Hours -->
     <defs>
      <path d="M 9.8125 72.90625 
L 19.671875 72.90625 
L 19.671875 43.015625 
L 55.515625 43.015625 
L 55.515625 72.90625 
L 65.375 72.90625 
L 65.375 0 
L 55.515625 0 
L 55.515625 34.71875 
L 19.671875 34.71875 
L 19.671875 0 
L 9.8125 0 
z
" id="DejaVuSans-72"/>
      <path d="M 30.609375 48.390625 
Q 23.390625 48.390625 19.1875 42.75 
Q 14.984375 37.109375 14.984375 27.296875 
Q 14.984375 17.484375 19.15625 11.84375 
Q 23.34375 6.203125 30.609375 6.203125 
Q 37.796875 6.203125 41.984375 11.859375 
Q 46.1875 17.53125 46.1875 27.296875 
Q 46.1875 37.015625 41.984375 42.703125 
Q 37.796875 48.390625 30.609375 48.390625 
z
M 30.609375 56 
Q 42.328125 56 49.015625 48.375 
Q 55.71875 40.765625 55.71875 27.296875 
Q 55.71875 13.875 49.015625 6.21875 
Q 42.328125 -1.421875 30.609375 -1.421875 
Q 18.84375 -1.421875 12.171875 6.21875 
Q 5.515625 13.875 5.515625 27.296875 
Q 5.515625 40.765625 12.171875 48.375 
Q 18.84375 56 30.609375 56 
z
" id="DejaVuSans-111"/>
      <path d="M 8.5 21.578125 
L 8.5 54.6875 
L 17.484375 54.6875 
L 17.484375 21.921875 
Q 17.484375 14.15625 20.5 10.265625 
Q 23.53125 6.390625 29.59375 6.390625 
Q 36.859375 6.390625 41.078125 11.03125 
Q 45.3125 15.671875 45.3125 23.6875 
L 45.3125 54.6875 
L 54.296875 54.6875 
L 54.296875 0 
L 45.3125 0 
L 45.3125 8.40625 
Q 42.046875 3.421875 37.71875 1 
Q 33.40625 -1.421875 27.6875 -1.421875 
Q 18.265625 -1.421875 13.375 4.4375 
Q 8.5 10.296875 8.5 21.578125 
z
M 31.109375 56 
z
" id="DejaVuSans-117"/>
      <path d="M 41.109375 46.296875 
Q 39.59375 47.171875 37.8125 47.578125 
Q 36.03125 48 33.890625 48 
Q 26.265625 48 22.1875 43.046875 
Q 18.109375 38.09375 18.109375 28.8125 
L 18.109375 0 
L 9.078125 0 
L 9.078125 54.6875 
L 18.109375 54.6875 
L 18.109375 46.1875 
Q 20.953125 51.171875 25.484375 53.578125 
Q 30.03125 56 36.53125 56 
Q 37.453125 56 38.578125 55.875 
Q 39.703125 55.765625 41.0625 55.515625 
z
" id="DejaVuSans-114"/>
      <path d="M 44.28125 53.078125 
L 44.28125 44.578125 
Q 40.484375 46.53125 36.375 47.5 
Q 32.28125 48.484375 27.875 48.484375 
Q 21.1875 48.484375 17.84375 46.4375 
Q 14.5 44.390625 14.5 40.28125 
Q 14.5 37.15625 16.890625 35.375 
Q 19.28125 33.59375 26.515625 31.984375 
L 29.59375 31.296875 
Q 39.15625 29.25 43.1875 25.515625 
Q 47.21875 21.78125 47.21875 15.09375 
Q 47.21875 7.46875 41.1875 3.015625 
Q 35.15625 -1.421875 24.609375 -1.421875 
Q 20.21875 -1.421875 15.453125 -0.5625 
Q 10.6875 0.296875 5.421875 2 
L 5.421875 11.28125 
Q 10.40625 8.6875 15.234375 7.390625 
Q 20.0625 6.109375 24.8125 6.109375 
Q 31.15625 6.109375 34.5625 8.28125 
Q 37.984375 10.453125 37.984375 14.40625 
Q 37.984375 18.0625 35.515625 20.015625 
Q 33.0625 21.96875 24.703125 23.78125 
L 21.578125 24.515625 
Q 13.234375 26.265625 9.515625 29.90625 
Q 5.8125 33.546875 5.8125 39.890625 
Q 5.8125 47.609375 11.28125 51.796875 
Q 16.75 56 26.8125 56 
Q 31.78125 56 36.171875 55.265625 
Q 40.578125 54.546875 44.28125 53.078125 
z
" id="DejaVuSans-115"/>
     </defs>
     <g transform="translate(221.511562 335.860562)scale(0.1 -0.1)">
      <use xlink:href="#DejaVuSans-72"/>
      <use x="75.195312" xlink:href="#DejaVuSans-111"/>
      <use x="136.376953" xlink:href="#DejaVuSans-117"/>
      <use x="199.755859" xlink:href="#DejaVuSans-114"/>
      <use x="240.869141" xlink:href="#DejaVuSans-115"/>
     </g>
    </g>
   </g>
   <g id="matplotlib.axis_2">
    <g id="ytick_1">
     <g id="line2d_17">
      <path clip-path="url(#pf5b9e236cd)" d="M 57.6 283.69105 
L 414.72 283.69105 
" style="fill:none;stroke:#b0b0b0;stroke-linecap:square;stroke-width:0.8;"/>
     </g>
     <g id="line2d_18">
      <defs>
       <path d="M 0 0 
L -3.5 0 
" id="m14bdc064ea" style="stroke:#000000;stroke-width:0.8;"/>
      </defs>
      <g>
       <use style="stroke:#000000;stroke-width:0.8;" x="57.6" xlink:href="#m14bdc064ea" y="283.69105"/>
      </g>
     </g>
     <g id="text_10">
      <!-- 0.5 -->
      <defs>
       <path d="M 10.6875 12.40625 
L 21 12.40625 
L 21 0 
L 10.6875 0 
z
" id="DejaVuSans-46"/>
      </defs>
      <g transform="translate(34.696875 287.490268)scale(0.1 -0.1)">
       <use xlink:href="#DejaVuSans-48"/>
       <use x="63.623047" xlink:href="#DejaVuSans-46"/>
       <use x="95.410156" xlink:href="#DejaVuSans-53"/>
      </g>
     </g>
    </g>
    <g id="ytick_2">
     <g id="line2d_19">
      <path clip-path="url(#pf5b9e236cd)" d="M 57.6 248.242184 
L 414.72 248.242184 
" style="fill:none;stroke:#b0b0b0;stroke-linecap:square;stroke-width:0.8;"/>
     </g>
     <g id="line2d_20">
      <g>
       <use style="stroke:#000000;stroke-width:0.8;" x="57.6" xlink:href="#m14bdc064ea" y="248.242184"/>
      </g>
     </g>
     <g id="text_11">
      <!-- 1.0 -->
      <g transform="translate(34.696875 252.041403)scale(0.1 -0.1)">
       <use xlink:href="#DejaVuSans-49"/>
       <use x="63.623047" xlink:href="#DejaVuSans-46"/>
       <use x="95.410156" xlink:href="#DejaVuSans-48"/>
      </g>
     </g>
    </g>
    <g id="ytick_3">
     <g id="line2d_21">
      <path clip-path="url(#pf5b9e236cd)" d="M 57.6 212.793319 
L 414.72 212.793319 
" style="fill:none;stroke:#b0b0b0;stroke-linecap:square;stroke-width:0.8;"/>
     </g>
     <g id="line2d_22">
      <g>
       <use style="stroke:#000000;stroke-width:0.8;" x="57.6" xlink:href="#m14bdc064ea" y="212.793319"/>
      </g>
     </g>
     <g id="text_12">
      <!-- 1.5 -->
      <g transform="translate(34.696875 216.592538)scale(0.1 -0.1)">
       <use xlink:href="#DejaVuSans-49"/>
       <use x="63.623047" xlink:href="#DejaVuSans-46"/>
       <use x="95.410156" xlink:href="#DejaVuSans-53"/>
      </g>
     </g>
    </g>
    <g id="ytick_4">
     <g id="line2d_23">
      <path clip-path="url(#pf5b9e236cd)" d="M 57.6 177.344454 
L 414.72 177.344454 
" style="fill:none;stroke:#b0b0b0;stroke-linecap:square;stroke-width:0.8;"/>
     </g>
     <g id="line2d_24">
      <g>
       <use style="stroke:#000000;stroke-width:0.8;" x="57.6" xlink:href="#m14bdc064ea" y="177.344454"/>
      </g>
     </g>
     <g id="text_13">
      <!-- 2.0 -->
      <g transform="translate(34.696875 181.143673)scale(0.1 -0.1)">
       <use xlink:href="#DejaVuSans-50"/>
       <use x="63.623047" xlink:href="#DejaVuSans-46"/>
       <use x="95.410156" xlink:href="#DejaVuSans-48"/>
      </g>
     </g>
    </g>
    <g id="ytick_5">
     <g id="line2d_25">
      <path clip-path="url(#pf5b9e236cd)" d="M 57.6 141.895589 
L 414.72 141.895589 
" style="fill:none;stroke:#b0b0b0;stroke-linecap:square;stroke-width:0.8;"/>
     </g>
     <g id="line2d_26">
      <g>
       <use style="stroke:#000000;stroke-width:0.8;" x="57.6" xlink:href="#m14bdc064ea" y="141.895589"/>
      </g>
     </g>
     <g id="text_14">
      <!-- 2.5 -->
      <g transform="translate(34.696875 145.694807)scale(0.1 -0.1)">
       <use xlink:href="#DejaVuSans-50"/>
       <use x="63.623047" xlink:href="#DejaVuSans-46"/>
       <use x="95.410156" xlink:href="#DejaVuSans-53"/>
      </g>
     </g>
    </g>
    <g id="ytick_6">
     <g id="line2d_27">
      <path clip-path="url(#pf5b9e236cd)" d="M 57.6 106.446723 
L 414.72 106.446723 
" style="fill:none;stroke:#b0b0b0;stroke-linecap:square;stroke-width:0.8;"/>
     </g>
     <g id="line2d_28">
      <g>
       <use style="stroke:#000000;stroke-width:0.8;" x="57.6" xlink:href="#m14bdc064ea" y="106.446723"/>
      </g>
     </g>
     <g id="text_15">
      <!-- 3.0 -->
      <g transform="translate(34.696875 110.245942)scale(0.1 -0.1)">
       <use xlink:href="#DejaVuSans-51"/>
       <use x="63.623047" xlink:href="#DejaVuSans-46"/>
       <use x="95.410156" xlink:href="#DejaVuSans-48"/>
      </g>
     </g>
    </g>
    <g id="ytick_7">
     <g id="line2d_29">
      <path clip-path="url(#pf5b9e236cd)" d="M 57.6 70.997858 
L 414.72 70.997858 
" style="fill:none;stroke:#b0b0b0;stroke-linecap:square;stroke-width:0.8;"/>
     </g>
     <g id="line2d_30">
      <g>
       <use style="stroke:#000000;stroke-width:0.8;" x="57.6" xlink:href="#m14bdc064ea" y="70.997858"/>
      </g>
     </g>
     <g id="text_16">
      <!-- 3.5 -->
      <g transform="translate(34.696875 74.797077)scale(0.1 -0.1)">
       <use xlink:href="#DejaVuSans-51"/>
       <use x="63.623047" xlink:href="#DejaVuSans-46"/>
       <use x="95.410156" xlink:href="#DejaVuSans-53"/>
      </g>
     </g>
    </g>
    <g id="text_17">
     <!-- Critic loss -->
     <defs>
      <path d="M 64.40625 67.28125 
L 64.40625 56.890625 
Q 59.421875 61.53125 53.78125 63.8125 
Q 48.140625 66.109375 41.796875 66.109375 
Q 29.296875 66.109375 22.65625 58.46875 
Q 16.015625 50.828125 16.015625 36.375 
Q 16.015625 21.96875 22.65625 14.328125 
Q 29.296875 6.6875 41.796875 6.6875 
Q 48.140625 6.6875 53.78125 8.984375 
Q 59.421875 11.28125 64.40625 15.921875 
L 64.40625 5.609375 
Q 59.234375 2.09375 53.4375 0.328125 
Q 47.65625 -1.421875 41.21875 -1.421875 
Q 24.65625 -1.421875 15.125 8.703125 
Q 5.609375 18.84375 5.609375 36.375 
Q 5.609375 53.953125 15.125 64.078125 
Q 24.65625 74.21875 41.21875 74.21875 
Q 47.75 74.21875 53.53125 72.484375 
Q 59.328125 70.75 64.40625 67.28125 
z
" id="DejaVuSans-67"/>
      <path d="M 9.421875 54.6875 
L 18.40625 54.6875 
L 18.40625 0 
L 9.421875 0 
z
M 9.421875 75.984375 
L 18.40625 75.984375 
L 18.40625 64.59375 
L 9.421875 64.59375 
z
" id="DejaVuSans-105"/>
      <path d="M 18.3125 70.21875 
L 18.3125 54.6875 
L 36.8125 54.6875 
L 36.8125 47.703125 
L 18.3125 47.703125 
L 18.3125 18.015625 
Q 18.3125 11.328125 20.140625 9.421875 
Q 21.96875 7.515625 27.59375 7.515625 
L 36.8125 7.515625 
L 36.8125 0 
L 27.59375 0 
Q 17.1875 0 13.234375 3.875 
Q 9.28125 7.765625 9.28125 18.015625 
L 9.28125 47.703125 
L 2.6875 47.703125 
L 2.6875 54.6875 
L 9.28125 54.6875 
L 9.28125 70.21875 
z
" id="DejaVuSans-116"/>
      <path d="M 48.78125 52.59375 
L 48.78125 44.1875 
Q 44.96875 46.296875 41.140625 47.34375 
Q 37.3125 48.390625 33.40625 48.390625 
Q 24.65625 48.390625 19.8125 42.84375 
Q 14.984375 37.3125 14.984375 27.296875 
Q 14.984375 17.28125 19.8125 11.734375 
Q 24.65625 6.203125 33.40625 6.203125 
Q 37.3125 6.203125 41.140625 7.25 
Q 44.96875 8.296875 48.78125 10.40625 
L 48.78125 2.09375 
Q 45.015625 0.34375 40.984375 -0.53125 
Q 36.96875 -1.421875 32.421875 -1.421875 
Q 20.0625 -1.421875 12.78125 6.34375 
Q 5.515625 14.109375 5.515625 27.296875 
Q 5.515625 40.671875 12.859375 48.328125 
Q 20.21875 56 33.015625 56 
Q 37.15625 56 41.109375 55.140625 
Q 45.0625 54.296875 48.78125 52.59375 
z
" id="DejaVuSans-99"/>
      <path id="DejaVuSans-32"/>
      <path d="M 9.421875 75.984375 
L 18.40625 75.984375 
L 18.40625 0 
L 9.421875 0 
z
" id="DejaVuSans-108"/>
     </defs>
     <g transform="translate(28.617187 198.80925)rotate(-90)scale(0.1 -0.1)">
      <use xlink:href="#DejaVuSans-67"/>
      <use x="69.824219" xlink:href="#DejaVuSans-114"/>
      <use x="110.9375" xlink:href="#DejaVuSans-105"/>
      <use x="138.720703" xlink:href="#DejaVuSans-116"/>
      <use x="177.929688" xlink:href="#DejaVuSans-105"/>
      <use x="205.712891" xlink:href="#DejaVuSans-99"/>
      <use x="260.693359" xlink:href="#DejaVuSans-32"/>
      <use x="292.480469" xlink:href="#DejaVuSans-108"/>
      <use x="320.263672" xlink:href="#DejaVuSans-111"/>
      <use x="381.445312" xlink:href="#DejaVuSans-115"/>
      <use x="433.544922" xlink:href="#DejaVuSans-115"/>
     </g>
    </g>
   </g>
   <g id="line2d_31">
    <path clip-path="url(#pf5b9e236cd)" d="M 57.6 53.568 
L 58.252113 150.243775 
L 58.852505 256.45983 
L 58.866915 256.243159 
L 59.190094 281.196603 
L 59.415201 289.247328 
L 60.003104 295.488 
L 60.593338 294.41307 
L 60.684829 293.380777 
L 60.696559 293.935849 
L 60.809692 293.794366 
L 62.389012 281.958132 
L 62.536663 282.334147 
L 62.648599 281.191367 
L 62.78418 281.962971 
L 62.991094 279.95949 
L 62.992584 281.281162 
L 63.013308 280.189502 
L 63.402671 280.414237 
L 63.532796 279.789248 
L 64.567689 279.03743 
L 64.738292 280.711325 
L 65.392484 279.753756 
L 65.395593 279.161881 
L 65.479807 280.129601 
L 65.800034 279.650683 
L 65.810689 280.183531 
L 66.038818 279.52971 
L 66.088183 280.30079 
L 66.26084 280.329356 
L 66.845986 280.740851 
L 67.028121 279.578214 
L 67.258176 279.303185 
L 67.58979 279.939253 
L 67.81467 279.757948 
L 68.207928 279.68785 
L 68.502827 279.995072 
L 68.553779 280.208781 
L 68.986122 279.586151 
L 69.011057 280.267609 
L 69.407623 279.287063 
L 69.669243 280.265386 
L 69.783844 279.244082 
L 69.967724 278.709915 
L 70.065943 280.240842 
L 70.077983 279.828942 
L 70.177724 279.11388 
L 70.322756 279.516052 
L 70.793311 279.296419 
L 70.826216 278.434632 
L 70.947161 279.013005 
L 71.5586 279.358763 
L 71.641676 279.158445 
L 71.916946 280.025912 
L 72.196083 279.02095 
L 72.416806 279.347492 
L 72.806646 279.309578 
L 73.261749 279.519222 
L 73.43871 278.601041 
L 73.558297 279.634579 
L 74.115536 279.704098 
L 74.134803 278.244444 
L 74.229155 279.97991 
L 74.538579 279.292569 
L 74.707661 279.752441 
L 74.934982 280.029098 
L 75.04254 279.735318 
L 75.320134 278.267665 
L 75.345381 278.722563 
L 75.592859 279.395413 
L 75.646516 278.823083 
L 75.843217 279.791332 
L 76.534948 278.758048 
L 76.638289 278.376383 
L 77.211386 279.378954 
L 77.652169 278.31854 
L 77.838557 278.48325 
L 77.861068 276.848592 
L 78.124208 279.42608 
L 78.454907 277.8077 
L 78.606504 277.809179 
L 79.370192 277.963168 
L 79.380959 276.406206 
L 79.621167 277.875753 
L 79.798161 277.793231 
L 79.906296 276.823613 
L 80.092505 276.739722 
L 80.386644 277.633874 
L 80.42843 277.17524 
L 80.707535 275.893203 
L 80.712163 277.227594 
L 80.818796 276.918673 
L 80.833564 276.694577 
L 80.953366 276.849145 
L 81.132539 278.179354 
L 82.090701 275.926511 
L 82.333616 277.116632 
L 82.500595 276.679301 
L 82.946618 276.317662 
L 83.343878 276.849619 
L 83.603437 276.895807 
L 84.424187 276.905548 
L 84.863886 276.509241 
L 85.01097 277.492765 
L 85.261789 275.283656 
L 85.384928 276.930497 
L 86.0145 276.821601 
L 86.302907 276.45441 
L 86.394469 276.002897 
L 86.47089 276.675303 
L 86.863695 275.802263 
L 86.989011 276.629022 
L 87.386555 276.453527 
L 87.700165 276.007452 
L 87.936237 274.3226 
L 88.156517 275.004704 
L 88.542153 275.126421 
L 88.625999 274.712158 
L 88.818905 274.707451 
L 88.90317 274.842179 
L 89.018206 274.586972 
L 89.050345 275.879659 
L 89.971632 273.126351 
L 90.26605 273.202559 
L 90.269195 273.478853 
L 90.363119 273.343453 
L 90.874582 272.789552 
L 91.906423 271.582505 
L 92.074511 271.701826 
L 92.845913 272.006534 
L 93.126841 272.319394 
L 93.207625 270.445105 
L 93.280627 271.485852 
L 93.667278 271.05311 
L 93.7165 272.448324 
L 94.142189 272.036998 
L 94.235269 271.66886 
L 94.273466 270.541429 
L 94.720133 271.514613 
L 94.741672 271.847469 
L 94.802974 271.332032 
L 96.684438 267.627408 
L 98.142316 267.049246 
L 98.235669 266.020949 
L 98.455581 266.564074 
L 99.063282 265.546611 
L 99.304716 266.168874 
L 99.328867 264.68613 
L 99.591138 264.712964 
L 99.823595 264.215326 
L 100.143257 262.516131 
L 100.31743 261.747401 
L 100.332179 262.530858 
L 100.60524 260.924956 
L 100.867921 260.622429 
L 100.880293 259.242994 
L 101.423993 260.234924 
L 101.683635 259.720572 
L 101.719029 259.094477 
L 101.745585 259.732426 
L 102.284388 260.463297 
L 102.290197 259.829489 
L 102.599815 258.509909 
L 102.637295 260.889945 
L 103.642485 259.717703 
L 103.927554 258.204428 
L 104.248812 258.380053 
L 104.362715 258.189101 
L 104.859388 257.711526 
L 105.96151 258.680113 
L 107.224487 256.988613 
L 107.298442 257.315236 
L 107.521818 256.676645 
L 107.818617 256.776721 
L 108.922636 256.143455 
L 109.791534 255.273769 
L 109.807011 254.888348 
L 109.878109 256.551679 
L 110.050079 254.702154 
L 110.121161 255.062562 
L 110.158542 256.017313 
L 110.420306 254.253053 
L 110.648333 255.745656 
L 110.941306 254.763745 
L 111.280352 255.097966 
L 111.480169 254.244563 
L 112.502517 255.071973 
L 113.085744 254.656971 
L 113.088754 254.970735 
L 113.257674 254.734354 
L 113.293153 255.303494 
L 114.184246 253.8338 
L 114.555406 254.005406 
L 114.56801 253.699697 
L 115.27279 254.242831 
L 115.35893 253.834455 
L 115.881007 253.645822 
L 116.383627 254.704993 
L 116.840364 253.984569 
L 117.271451 253.827723 
L 117.427234 254.055276 
L 118.875104 253.825445 
L 119.662253 255.056232 
L 119.755509 253.560075 
L 120.180391 254.921255 
L 120.796471 252.940031 
L 120.861801 253.736014 
L 121.264467 253.122017 
L 121.930633 253.710984 
L 122.340662 253.909531 
L 122.502939 253.317436 
L 123.988409 252.536376 
L 123.99074 253.221535 
L 124.285381 253.566723 
L 125.608114 253.621511 
L 125.6396 252.188437 
L 125.652247 252.515128 
L 126.168108 253.167326 
L 127.363007 252.891464 
L 127.818936 252.252738 
L 127.863311 252.965978 
L 127.902535 252.726094 
L 128.489246 251.884435 
L 128.750006 252.245165 
L 128.803964 252.56441 
L 128.833368 252.056279 
L 129.918136 252.09789 
L 130.251752 251.377842 
L 130.272997 251.511133 
L 130.535099 251.468144 
L 130.579844 252.153304 
L 130.807852 251.096427 
L 131.778156 251.863826 
L 131.820803 251.726317 
L 132.125903 251.706253 
L 132.165587 250.337078 
L 132.684525 250.257603 
L 132.783021 251.257359 
L 133.405908 250.64512 
L 133.431645 250.079015 
L 133.660889 251.004967 
L 133.877208 250.267386 
L 134.23109 250.3883 
L 134.484663 250.872893 
L 135.081447 250.419676 
L 135.121587 250.696756 
L 135.218825 249.73586 
L 135.511413 250.973049 
L 135.781215 250.89365 
L 135.845065 250.613224 
L 135.989576 251.549314 
L 136.341971 249.926568 
L 136.358842 250.767691 
L 136.884581 250.468041 
L 137.201455 250.427684 
L 139.18813 249.836004 
L 139.245993 250.234014 
L 139.91324 249.540521 
L 140.253096 249.904273 
L 140.356346 249.786139 
L 140.367018 250.314981 
L 140.851906 249.593619 
L 140.875727 250.564623 
L 141.276431 249.832556 
L 141.385821 250.615721 
L 141.893388 249.091497 
L 142.141978 250.270111 
L 142.421848 249.113522 
L 142.550507 249.418378 
L 142.640897 249.17464 
L 143.012911 249.827358 
L 143.108146 250.336254 
L 143.470691 250.000841 
L 143.769234 249.4158 
L 143.81352 249.85333 
L 143.816571 249.732539 
L 144.356642 249.173989 
L 144.410362 249.737872 
L 144.633606 249.72863 
L 145.651337 249.850706 
L 145.664968 249.400583 
L 145.683255 250.522922 
L 145.741504 249.787656 
L 145.957382 249.985628 
L 145.975809 248.723621 
L 146.015904 249.148584 
L 146.189273 249.463924 
L 146.556774 248.970169 
L 146.585924 248.381066 
L 146.956484 248.837566 
L 147.597483 248.716986 
L 147.632075 249.066324 
L 147.866901 249.449632 
L 148.290547 248.208057 
L 148.405867 248.90073 
L 149.207704 248.78659 
L 151.381868 248.802386 
L 151.413754 248.157051 
L 151.449076 249.553283 
L 151.882865 248.517709 
L 153.21794 248.332529 
L 153.228637 247.964995 
L 153.534911 247.754346 
L 154.004293 248.387071 
L 154.030517 247.857549 
L 154.395026 248.408695 
L 155.241558 247.838296 
L 155.292943 248.452525 
L 157.327022 247.734856 
L 157.356226 248.131104 
L 157.72689 247.746198 
L 158.084923 247.929549 
L 158.132119 247.608445 
L 158.387304 248.580479 
L 159.475155 247.058131 
L 160.36872 248.108952 
L 160.422054 247.50585 
L 161.557001 246.309727 
L 162.041338 246.738362 
L 163.385898 246.242072 
L 163.758407 246.225828 
L 164.451723 244.975496 
L 164.476485 245.925498 
L 164.493524 245.82565 
L 165.38465 245.716074 
L 165.624106 244.861475 
L 165.655706 245.461636 
L 166.044979 244.761804 
L 166.434785 245.446128 
L 166.65835 245.331227 
L 167.003984 246.105975 
L 167.648254 244.661593 
L 169.064063 243.867838 
L 169.109103 244.458364 
L 169.189363 244.10669 
L 169.530387 243.680743 
L 169.796875 243.70494 
L 169.804486 244.241275 
L 170.214741 243.705811 
L 171.133051 243.218674 
L 172.106839 243.388053 
L 172.520572 243.029534 
L 172.551101 243.421209 
L 172.73851 243.585865 
L 172.768919 244.057535 
L 172.883624 243.294367 
L 173.765193 243.452438 
L 174.145181 242.832568 
L 174.480768 242.826296 
L 174.52297 242.622087 
L 174.966682 243.034114 
L 175.223908 242.741264 
L 175.350215 243.651822 
L 175.747045 242.808523 
L 177.441572 242.729373 
L 177.897473 242.354744 
L 178.249446 243.048753 
L 179.016035 243.164912 
L 179.043767 242.660213 
L 179.819954 242.49778 
L 180.877518 243.718412 
L 180.903266 242.093494 
L 181.219571 242.747873 
L 182.039026 242.601744 
L 182.963107 241.928771 
L 183.017698 242.586075 
L 183.271168 242.944265 
L 183.320386 242.624614 
L 183.555304 242.934748 
L 183.597847 242.616543 
L 183.60393 242.818369 
L 183.784994 242.566095 
L 184.281065 242.421774 
L 184.301995 242.916746 
L 184.679082 242.58779 
L 184.685258 243.351483 
L 184.903745 242.245582 
L 185.301457 242.913661 
L 185.589124 242.807644 
L 186.337488 242.951457 
L 186.577141 243.126669 
L 187.436036 242.391745 
L 187.457156 243.5747 
L 188.040222 242.832128 
L 188.741152 242.836244 
L 189.600318 243.004762 
L 189.614072 242.755581 
L 189.694394 242.853409 
L 190.357346 242.945338 
L 190.413769 242.78097 
L 190.876276 243.296539 
L 192.581764 242.602606 
L 192.718503 243.427666 
L 193.087928 243.863646 
L 193.342278 242.997493 
L 193.840284 242.799183 
L 193.864381 243.477235 
L 194.18776 242.845972 
L 194.319516 243.10308 
L 197.078937 243.222435 
L 197.330387 244.038223 
L 197.587681 243.887648 
L 197.619823 244.018277 
L 198.042606 244.357282 
L 198.125648 243.904239 
L 198.494645 243.971244 
L 198.5513 243.533295 
L 198.942848 244.214982 
L 198.96421 244.108136 
L 199.000833 243.593311 
L 199.192309 244.585131 
L 199.254382 243.889787 
L 199.275826 244.144689 
L 199.868624 244.407688 
L 199.905312 243.887454 
L 200.276381 244.389061 
L 200.665133 244.055769 
L 200.933327 244.45118 
L 201.945534 244.898307 
L 203.095665 244.128521 
L 203.504302 243.175705 
L 204.508724 244.253935 
L 204.734789 245.135656 
L 204.773635 243.791206 
L 205.160007 244.34354 
L 205.496007 243.525765 
L 207.278502 244.212733 
L 207.357418 244.074413 
L 207.646433 244.119207 
L 207.672381 243.431064 
L 207.719683 244.343016 
L 208.034363 244.640134 
L 208.458151 244.017043 
L 209.394139 244.244529 
L 210.189122 243.633 
L 210.753293 244.338156 
L 211.438754 244.761264 
L 211.815449 244.091012 
L 211.900375 244.243962 
L 212.277832 243.973762 
L 213.881252 244.707511 
L 214.120723 244.109141 
L 214.717929 245.231852 
L 214.972507 245.431532 
L 215.075113 245.129511 
L 215.632104 244.3764 
L 215.972894 244.784818 
L 216.026115 244.525344 
L 216.587759 244.579181 
L 216.615101 245.430729 
L 217.627284 244.974524 
L 218.032787 245.073401 
L 218.085696 244.913072 
L 218.444649 245.526613 
L 218.642658 245.301012 
L 219.757435 245.718085 
L 219.769559 244.264897 
L 219.862412 245.332841 
L 219.886461 245.187075 
L 220.785124 245.012025 
L 220.795839 245.751698 
L 220.808124 245.499128 
L 221.288698 244.998544 
L 221.503243 245.225683 
L 222.0069 245.211061 
L 222.030821 245.670401 
L 222.270372 245.843187 
L 222.293492 245.638682 
L 222.706219 244.781345 
L 223.375991 245.752213 
L 223.950068 245.123037 
L 223.984922 245.875329 
L 224.054949 245.087346 
L 224.280778 245.167206 
L 224.556705 244.950091 
L 224.946443 244.87198 
L 225.016754 244.471735 
L 225.735476 244.863639 
L 226.073073 245.488673 
L 226.353709 244.757486 
L 227.050404 244.92908 
L 227.062556 245.433932 
L 227.63915 245.153522 
L 227.721532 245.243752 
L 228.496563 245.508467 
L 228.904049 245.126308 
L 230.005543 244.898426 
L 230.060087 245.500058 
L 230.396459 245.358103 
L 230.752293 244.902592 
L 230.773477 244.549473 
L 231.17984 244.483838 
L 231.914733 245.305543 
L 232.296682 244.704291 
L 233.333598 244.19179 
L 233.531814 244.82597 
L 234.039577 245.348866 
L 235.198327 244.449591 
L 237.500893 245.35545 
L 237.792996 244.995958 
L 238.202986 245.543229 
L 238.561968 244.154408 
L 238.608844 244.673873 
L 239.002955 244.727017 
L 239.029013 244.911357 
L 240.114105 244.161575 
L 240.138428 245.061027 
L 240.877817 244.662599 
L 241.160237 245.190879 
L 241.573636 243.658701 
L 242.406613 245.041157 
L 242.453603 244.541765 
L 242.802928 244.143641 
L 244.021733 244.339703 
L 244.297193 244.623738 
L 244.306406 244.136753 
L 244.504759 245.38629 
L 244.644709 244.057265 
L 245.279801 244.505237 
L 245.582706 244.317906 
L 245.726366 243.947343 
L 245.976161 245.137819 
L 247.704267 243.763231 
L 248.080071 244.181555 
L 248.19019 244.660672 
L 248.537102 243.930321 
L 248.556769 244.337531 
L 248.822264 244.264128 
L 249.189256 244.636272 
L 249.698054 244.81472 
L 251.590743 243.967804 
L 251.906237 244.421371 
L 252.948038 244.263815 
L 252.994849 243.396015 
L 253.007055 243.895018 
L 254.313948 244.395543 
L 255.083865 244.192061 
L 255.842399 244.328293 
L 256.272002 243.437622 
L 256.814165 244.819259 
L 257.25832 244.430736 
L 257.942351 243.500334 
L 258.311406 244.389585 
L 258.66648 243.118995 
L 259.062511 244.059057 
L 259.335653 243.7068 
L 260.422626 243.744866 
L 260.437955 243.586744 
L 260.896615 244.003571 
L 261.691001 243.743649 
L 262.021598 243.840835 
L 262.233618 243.362817 
L 262.320267 243.989736 
L 263.08684 243.450646 
L 263.162235 243.142093 
L 263.451948 243.827608 
L 263.729626 243.384394 
L 263.783843 243.804247 
L 264.079598 244.198332 
L 264.34291 242.989278 
L 264.407145 243.45161 
L 264.700354 243.361557 
L 265.389368 243.798171 
L 265.789635 243.022324 
L 266.557306 244.110527 
L 267.52111 243.620914 
L 267.846072 243.734268 
L 268.182161 243.63764 
L 268.749514 243.150798 
L 268.794043 242.92022 
L 268.995588 244.088654 
L 270.538996 243.666671 
L 270.867641 243.483811 
L 273.59621 242.424343 
L 273.597768 243.667635 
L 273.623735 243.531985 
L 274.036543 243.170186 
L 274.377538 242.698702 
L 274.693313 243.530379 
L 274.815251 242.978672 
L 276.222304 243.202751 
L 276.313414 243.436777 
L 277.008832 242.441306 
L 277.03142 243.157255 
L 277.836325 243.632805 
L 278.045737 243.174801 
L 278.077792 242.771259 
L 278.836901 243.28796 
L 279.253444 243.943142 
L 279.3755 243.356123 
L 280.048219 243.198398 
L 281.779731 244.225216 
L 281.787305 243.583895 
L 281.836178 243.731216 
L 282.044019 243.902887 
L 282.122096 243.555287 
L 282.420364 244.340032 
L 283.294352 244.953184 
L 283.419356 243.813308 
L 284.49847 243.472722 
L 284.83305 243.826729 
L 285.205402 243.937987 
L 285.675491 243.012334 
L 285.716905 244.12902 
L 286.103603 243.705126 
L 286.787045 243.757188 
L 287.091796 244.179814 
L 287.443046 243.768032 
L 287.480881 244.590236 
L 287.90545 243.598044 
L 288.250941 244.102473 
L 288.863169 244.469833 
L 288.867719 244.079822 
L 288.929695 244.487218 
L 289.315276 244.206504 
L 289.965019 244.187387 
L 290.812044 243.797114 
L 291.146685 243.489828 
L 291.538463 243.688476 
L 292.148467 244.652896 
L 293.620271 244.764391 
L 293.68535 243.486363 
L 293.693088 244.492974 
L 294.363879 244.183305 
L 294.398909 244.404113 
L 294.699543 244.525724 
L 295.176694 243.637716 
L 295.187324 244.62733 
L 297.554107 243.799007 
L 297.790785 244.104544 
L 298.594913 243.396015 
L 298.643125 244.468278 
L 299.779716 243.897419 
L 299.807129 244.334175 
L 300.122683 243.954586 
L 300.383481 244.329789 
L 300.489037 243.839905 
L 301.631256 244.189449 
L 302.060017 244.571963 
L 302.1261 243.930448 
L 302.955771 244.419858 
L 303.969958 244.238029 
L 304.048831 245.042425 
L 304.873051 244.292551 
L 304.946691 244.828142 
L 305.379483 244.432088 
L 306.110405 244.641605 
L 306.139144 244.190184 
L 306.588165 244.744166 
L 307.96225 244.95899 
L 308.423526 244.703226 
L 308.740968 245.048637 
L 309.235586 244.148518 
L 310.086882 244.93252 
L 310.550374 244.751781 
L 311.079953 245.009557 
L 311.51082 244.076763 
L 311.871194 243.586304 
L 311.961574 244.293066 
L 313.884061 244.331902 
L 314.292909 244.822952 
L 314.613411 244.765168 
L 314.634675 243.791291 
L 314.695276 244.170889 
L 315.005226 243.95942 
L 316.38611 243.864389 
L 316.493279 243.996497 
L 316.758523 243.546116 
L 317.349533 243.827658 
L 317.703506 243.515166 
L 317.820892 242.903832 
L 318.635429 243.299945 
L 318.673638 243.883254 
L 319.188756 243.39468 
L 319.199566 243.085315 
L 319.236091 243.52186 
L 319.546632 243.486591 
L 319.552776 243.707772 
L 319.976632 243.140867 
L 320.077384 243.627286 
L 321.081834 243.310873 
L 321.477117 244.086719 
L 321.907326 243.488806 
L 321.946744 242.820422 
L 322.338589 243.421945 
L 323.205522 242.348963 
L 323.265722 242.839735 
L 323.268746 242.061446 
L 323.746012 243.308109 
L 324.123959 242.556519 
L 324.629137 242.403181 
L 325.631318 243.385019 
L 326.171429 242.724927 
L 326.51385 243.137977 
L 328.111943 242.79189 
L 329.627861 242.784055 
L 330.538276 243.027294 
L 330.628826 242.673085 
L 330.999737 243.177024 
L 331.525904 242.767836 
L 331.589835 242.957128 
L 331.928795 242.462258 
L 331.981882 242.756528 
L 332.275324 242.26541 
L 332.304107 242.408023 
L 332.665186 243.573694 
L 333.21591 242.401008 
L 334.119453 243.068242 
L 335.015881 242.395997 
L 335.873072 242.892853 
L 336.647897 242.417337 
L 336.722229 242.879094 
L 337.653717 242.193385 
L 337.702799 242.575442 
L 338.017185 243.106393 
L 339.217285 242.591957 
L 339.344149 243.083869 
L 340.277007 241.874765 
L 340.442398 241.899241 
L 340.891701 242.273709 
L 341.487554 242.419002 
L 342.588005 242.07327 
L 342.612456 242.20367 
L 342.637286 242.083834 
L 342.693566 241.948329 
L 343.083531 242.922544 
L 343.978218 241.948278 
L 344.737206 241.969483 
L 344.785311 242.360305 
L 344.837094 242.116644 
L 345.165161 242.16879 
L 345.245434 241.354802 
L 345.565348 241.944787 
L 346.358196 241.467581 
L 346.579635 240.939394 
L 346.68551 241.774013 
L 348.429068 242.225966 
L 349.273214 241.368105 
L 349.284214 242.423574 
L 349.793482 241.209999 
L 349.813384 241.469153 
L 350.324389 241.950458 
L 350.364727 242.184181 
L 350.756644 242.186311 
L 352.695943 241.256365 
L 353.183133 242.407085 
L 353.565845 241.937418 
L 353.926988 242.033547 
L 353.998168 241.703366 
L 354.838441 242.302183 
L 354.857253 241.663693 
L 355.929635 242.220185 
L 356.205295 242.00378 
L 357.074155 241.726929 
L 357.486888 242.358387 
L 359.132715 242.190308 
L 359.621686 241.956941 
L 360.107885 242.204397 
L 361.158921 242.406156 
L 361.609886 241.754845 
L 362.00804 242.683827 
L 362.03426 242.299563 
L 363.766496 242.656536 
L 363.79243 242.964515 
L 364.285601 242.699335 
L 364.314591 242.80379 
L 364.753991 242.87311 
L 365.141909 242.674496 
L 365.15105 242.001625 
L 366.382839 243.122739 
L 366.403757 242.696191 
L 366.932475 242.230504 
L 369.819914 242.576144 
L 369.850374 243.14888 
L 371.064164 243.073001 
L 371.216164 242.934309 
L 371.509043 243.798796 
L 371.554451 243.494874 
L 372.524689 243.503055 
L 372.554924 243.304838 
L 372.559421 243.35958 
L 372.920367 242.713205 
L 372.960122 243.192938 
L 373.813035 243.059892 
L 374.306029 243.237783 
L 374.43813 243.088746 
L 374.871175 243.342727 
L 375.448935 242.733717 
L 375.821368 243.147992 
L 377.343923 243.266341 
L 377.840839 242.98485 
L 377.93049 243.421835 
L 377.933493 243.337242 
L 380.022167 243.580777 
L 381.589295 243.172815 
L 382.879345 243.875782 
L 383.391794 243.889778 
L 384.690072 243.733363 
L 384.954284 244.350445 
L 384.966768 243.940877 
L 385.441399 244.132459 
L 385.499698 244.596693 
L 386.331881 244.590684 
L 386.788514 243.938511 
L 387.39865 243.879662 
L 387.441353 244.21603 
L 387.771928 243.919207 
L 388.37713 244.657705 
L 388.463556 244.007797 
L 388.658553 243.989018 
L 388.769826 244.399701 
L 389.110686 244.376324 
L 390.311149 243.817254 
L 390.585927 244.26592 
L 390.623844 244.606928 
L 390.979588 244.043252 
L 390.991834 244.067872 
L 391.345519 243.706047 
L 391.906717 243.631918 
L 392.029758 243.446133 
L 392.29219 244.146641 
L 392.562446 243.1634 
L 392.608497 243.66979 
L 394.530801 243.908085 
L 395.016752 243.818286 
L 395.337006 243.230438 
L 395.659568 243.307441 
L 396.244666 244.022926 
L 396.315245 243.824193 
L 396.698456 243.481385 
L 396.815888 243.818793 
L 397.14864 243.004669 
L 397.610829 244.33175 
L 397.690278 243.74266 
L 397.694781 243.912234 
L 398.000675 244.313621 
L 398.538241 243.685231 
L 398.553268 244.073602 
L 399.542946 244.264686 
L 400.444083 244.710537 
L 400.550733 244.113359 
L 400.902499 243.890792 
L 400.929938 243.957527 
L 401.269087 243.883076 
L 401.769135 243.989795 
L 402.877041 244.804933 
L 403.246636 244.584353 
L 404.186343 243.825977 
L 405.274889 244.376983 
L 405.307343 243.800808 
L 405.6892 244.88339 
L 405.692182 244.463604 
L 407.113367 243.945601 
L 407.451168 244.163536 
L 408.421327 244.404206 
L 408.796411 244.320982 
L 409.37105 244.782874 
L 409.802464 244.083389 
L 409.837747 244.514154 
L 411.049144 244.690692 
L 411.098329 244.451493 
L 411.398812 245.026714 
L 411.523825 244.368447 
L 412.094978 244.787886 
L 412.113162 244.102617 
L 412.638622 244.502583 
L 413.092603 244.577558 
L 413.558561 244.369148 
L 413.589142 245.295037 
L 414.112294 245.348435 
L 414.226544 244.568988 
L 414.242884 244.853877 
L 414.72 245.458983 
L 414.72 245.458983 
" style="fill:none;stroke:#000000;stroke-linecap:square;stroke-width:0.8;"/>
   </g>
   <g id="patch_3">
    <path d="M 57.6 307.584 
L 57.6 41.472 
" style="fill:none;stroke:#000000;stroke-linecap:square;stroke-linejoin:miter;stroke-width:0.8;"/>
   </g>
   <g id="patch_4">
    <path d="M 414.72 307.584 
L 414.72 41.472 
" style="fill:none;stroke:#000000;stroke-linecap:square;stroke-linejoin:miter;stroke-width:0.8;"/>
   </g>
   <g id="patch_5">
    <path d="M 57.6 307.584 
L 414.72 307.584 
" style="fill:none;stroke:#000000;stroke-linecap:square;stroke-linejoin:miter;stroke-width:0.8;"/>
   </g>
   <g id="patch_6">
    <path d="M 57.6 41.472 
L 414.72 41.472 
" style="fill:none;stroke:#000000;stroke-linecap:square;stroke-linejoin:miter;stroke-width:0.8;"/>
   </g>
  </g>
  <g id="axes_2">
   <g id="matplotlib.axis_3">
    <g id="xtick_9">
     <g id="line2d_32">
      <defs>
       <path d="M 0 0 
L 0 -3.5 
" id="mc65490a81d" style="stroke:#000000;stroke-width:0.8;"/>
      </defs>
      <g>
       <use style="stroke:#000000;stroke-width:0.8;" x="57.6" xlink:href="#mc65490a81d" y="41.472"/>
      </g>
     </g>
    </g>
    <g id="xtick_10">
     <g id="line2d_33">
      <g>
       <use style="stroke:#000000;stroke-width:0.8;" x="127.214103" xlink:href="#mc65490a81d" y="41.472"/>
      </g>
     </g>
     <g id="text_18">
      <!-- 200K -->
      <defs>
       <path d="M 9.8125 72.90625 
L 19.671875 72.90625 
L 19.671875 42.09375 
L 52.390625 72.90625 
L 65.09375 72.90625 
L 28.90625 38.921875 
L 67.671875 0 
L 54.6875 0 
L 19.671875 35.109375 
L 19.671875 0 
L 9.8125 0 
z
" id="DejaVuSans-75"/>
      </defs>
      <g transform="translate(114.391447 32.392313)scale(0.1 -0.1)">
       <use xlink:href="#DejaVuSans-50"/>
       <use x="63.623047" xlink:href="#DejaVuSans-48"/>
       <use x="127.246094" xlink:href="#DejaVuSans-48"/>
       <use x="190.869141" xlink:href="#DejaVuSans-75"/>
      </g>
     </g>
    </g>
    <g id="xtick_11">
     <g id="line2d_34">
      <g>
       <use style="stroke:#000000;stroke-width:0.8;" x="196.828206" xlink:href="#mc65490a81d" y="41.472"/>
      </g>
     </g>
     <g id="text_19">
      <!-- 400K -->
      <g transform="translate(184.00555 32.392313)scale(0.1 -0.1)">
       <use xlink:href="#DejaVuSans-52"/>
       <use x="63.623047" xlink:href="#DejaVuSans-48"/>
       <use x="127.246094" xlink:href="#DejaVuSans-48"/>
       <use x="190.869141" xlink:href="#DejaVuSans-75"/>
      </g>
     </g>
    </g>
    <g id="xtick_12">
     <g id="line2d_35">
      <g>
       <use style="stroke:#000000;stroke-width:0.8;" x="266.442309" xlink:href="#mc65490a81d" y="41.472"/>
      </g>
     </g>
     <g id="text_20">
      <!-- 600K -->
      <g transform="translate(253.619653 32.392313)scale(0.1 -0.1)">
       <use xlink:href="#DejaVuSans-54"/>
       <use x="63.623047" xlink:href="#DejaVuSans-48"/>
       <use x="127.246094" xlink:href="#DejaVuSans-48"/>
       <use x="190.869141" xlink:href="#DejaVuSans-75"/>
      </g>
     </g>
    </g>
    <g id="xtick_13">
     <g id="line2d_36">
      <g>
       <use style="stroke:#000000;stroke-width:0.8;" x="336.056412" xlink:href="#mc65490a81d" y="41.472"/>
      </g>
     </g>
     <g id="text_21">
      <!-- 800K -->
      <defs>
       <path d="M 31.78125 34.625 
Q 24.75 34.625 20.71875 30.859375 
Q 16.703125 27.09375 16.703125 20.515625 
Q 16.703125 13.921875 20.71875 10.15625 
Q 24.75 6.390625 31.78125 6.390625 
Q 38.8125 6.390625 42.859375 10.171875 
Q 46.921875 13.96875 46.921875 20.515625 
Q 46.921875 27.09375 42.890625 30.859375 
Q 38.875 34.625 31.78125 34.625 
z
M 21.921875 38.8125 
Q 15.578125 40.375 12.03125 44.71875 
Q 8.5 49.078125 8.5 55.328125 
Q 8.5 64.0625 14.71875 69.140625 
Q 20.953125 74.21875 31.78125 74.21875 
Q 42.671875 74.21875 48.875 69.140625 
Q 55.078125 64.0625 55.078125 55.328125 
Q 55.078125 49.078125 51.53125 44.71875 
Q 48 40.375 41.703125 38.8125 
Q 48.828125 37.15625 52.796875 32.3125 
Q 56.78125 27.484375 56.78125 20.515625 
Q 56.78125 9.90625 50.3125 4.234375 
Q 43.84375 -1.421875 31.78125 -1.421875 
Q 19.734375 -1.421875 13.25 4.234375 
Q 6.78125 9.90625 6.78125 20.515625 
Q 6.78125 27.484375 10.78125 32.3125 
Q 14.796875 37.15625 21.921875 38.8125 
z
M 18.3125 54.390625 
Q 18.3125 48.734375 21.84375 45.5625 
Q 25.390625 42.390625 31.78125 42.390625 
Q 38.140625 42.390625 41.71875 45.5625 
Q 45.3125 48.734375 45.3125 54.390625 
Q 45.3125 60.0625 41.71875 63.234375 
Q 38.140625 66.40625 31.78125 66.40625 
Q 25.390625 66.40625 21.84375 63.234375 
Q 18.3125 60.0625 18.3125 54.390625 
z
" id="DejaVuSans-56"/>
      </defs>
      <g transform="translate(323.233756 32.392313)scale(0.1 -0.1)">
       <use xlink:href="#DejaVuSans-56"/>
       <use x="63.623047" xlink:href="#DejaVuSans-48"/>
       <use x="127.246094" xlink:href="#DejaVuSans-48"/>
       <use x="190.869141" xlink:href="#DejaVuSans-75"/>
      </g>
     </g>
    </g>
    <g id="xtick_14">
     <g id="line2d_37">
      <g>
       <use style="stroke:#000000;stroke-width:0.8;" x="405.670515" xlink:href="#mc65490a81d" y="41.472"/>
      </g>
     </g>
     <g id="text_22">
      <!-- 1,000K -->
      <defs>
       <path d="M 11.71875 12.40625 
L 22.015625 12.40625 
L 22.015625 4 
L 14.015625 -11.625 
L 7.71875 -11.625 
L 11.71875 4 
z
" id="DejaVuSans-44"/>
      </defs>
      <g transform="translate(388.077546 32.392313)scale(0.1 -0.1)">
       <use xlink:href="#DejaVuSans-49"/>
       <use x="63.623047" xlink:href="#DejaVuSans-44"/>
       <use x="95.410156" xlink:href="#DejaVuSans-48"/>
       <use x="159.033203" xlink:href="#DejaVuSans-48"/>
       <use x="222.65625" xlink:href="#DejaVuSans-48"/>
       <use x="286.279297" xlink:href="#DejaVuSans-75"/>
      </g>
     </g>
    </g>
    <g id="text_23">
     <!-- Steps -->
     <defs>
      <path d="M 53.515625 70.515625 
L 53.515625 60.890625 
Q 47.90625 63.578125 42.921875 64.890625 
Q 37.9375 66.21875 33.296875 66.21875 
Q 25.25 66.21875 20.875 63.09375 
Q 16.5 59.96875 16.5 54.203125 
Q 16.5 49.359375 19.40625 46.890625 
Q 22.3125 44.4375 30.421875 42.921875 
L 36.375 41.703125 
Q 47.40625 39.59375 52.65625 34.296875 
Q 57.90625 29 57.90625 20.125 
Q 57.90625 9.515625 50.796875 4.046875 
Q 43.703125 -1.421875 29.984375 -1.421875 
Q 24.8125 -1.421875 18.96875 -0.25 
Q 13.140625 0.921875 6.890625 3.21875 
L 6.890625 13.375 
Q 12.890625 10.015625 18.65625 8.296875 
Q 24.421875 6.59375 29.984375 6.59375 
Q 38.421875 6.59375 43.015625 9.90625 
Q 47.609375 13.234375 47.609375 19.390625 
Q 47.609375 24.75 44.3125 27.78125 
Q 41.015625 30.8125 33.5 32.328125 
L 27.484375 33.5 
Q 16.453125 35.6875 11.515625 40.375 
Q 6.59375 45.0625 6.59375 53.421875 
Q 6.59375 63.09375 13.40625 68.65625 
Q 20.21875 74.21875 32.171875 74.21875 
Q 37.3125 74.21875 42.625 73.28125 
Q 47.953125 72.359375 53.515625 70.515625 
z
" id="DejaVuSans-83"/>
      <path d="M 56.203125 29.59375 
L 56.203125 25.203125 
L 14.890625 25.203125 
Q 15.484375 15.921875 20.484375 11.0625 
Q 25.484375 6.203125 34.421875 6.203125 
Q 39.59375 6.203125 44.453125 7.46875 
Q 49.3125 8.734375 54.109375 11.28125 
L 54.109375 2.78125 
Q 49.265625 0.734375 44.1875 -0.34375 
Q 39.109375 -1.421875 33.890625 -1.421875 
Q 20.796875 -1.421875 13.15625 6.1875 
Q 5.515625 13.8125 5.515625 26.8125 
Q 5.515625 40.234375 12.765625 48.109375 
Q 20.015625 56 32.328125 56 
Q 43.359375 56 49.78125 48.890625 
Q 56.203125 41.796875 56.203125 29.59375 
z
M 47.21875 32.234375 
Q 47.125 39.59375 43.09375 43.984375 
Q 39.0625 48.390625 32.421875 48.390625 
Q 24.90625 48.390625 20.390625 44.140625 
Q 15.875 39.890625 15.1875 32.171875 
z
" id="DejaVuSans-101"/>
      <path d="M 18.109375 8.203125 
L 18.109375 -20.796875 
L 9.078125 -20.796875 
L 9.078125 54.6875 
L 18.109375 54.6875 
L 18.109375 46.390625 
Q 20.953125 51.265625 25.265625 53.625 
Q 29.59375 56 35.59375 56 
Q 45.5625 56 51.78125 48.09375 
Q 58.015625 40.1875 58.015625 27.296875 
Q 58.015625 14.40625 51.78125 6.484375 
Q 45.5625 -1.421875 35.59375 -1.421875 
Q 29.59375 -1.421875 25.265625 0.953125 
Q 20.953125 3.328125 18.109375 8.203125 
z
M 48.6875 27.296875 
Q 48.6875 37.203125 44.609375 42.84375 
Q 40.53125 48.484375 33.40625 48.484375 
Q 26.265625 48.484375 22.1875 42.84375 
Q 18.109375 37.203125 18.109375 27.296875 
Q 18.109375 17.390625 22.1875 11.75 
Q 26.265625 6.109375 33.40625 6.109375 
Q 40.53125 6.109375 44.609375 11.75 
Q 48.6875 17.390625 48.6875 27.296875 
z
" id="DejaVuSans-112"/>
     </defs>
     <g transform="translate(222.170156 20.793875)scale(0.1 -0.1)">
      <use xlink:href="#DejaVuSans-83"/>
      <use x="63.476562" xlink:href="#DejaVuSans-116"/>
      <use x="102.685547" xlink:href="#DejaVuSans-101"/>
      <use x="164.208984" xlink:href="#DejaVuSans-112"/>
      <use x="227.685547" xlink:href="#DejaVuSans-115"/>
     </g>
    </g>
   </g>
   <g id="patch_7">
    <path d="M 57.6 307.584 
L 57.6 41.472 
" style="fill:none;stroke:#000000;stroke-linecap:square;stroke-linejoin:miter;stroke-width:0.8;"/>
   </g>
   <g id="patch_8">
    <path d="M 414.72 307.584 
L 414.72 41.472 
" style="fill:none;stroke:#000000;stroke-linecap:square;stroke-linejoin:miter;stroke-width:0.8;"/>
   </g>
   <g id="patch_9">
    <path d="M 57.6 307.584 
L 414.72 307.584 
" style="fill:none;stroke:#000000;stroke-linecap:square;stroke-linejoin:miter;stroke-width:0.8;"/>
   </g>
   <g id="patch_10">
    <path d="M 57.6 41.472 
L 414.72 41.472 
" style="fill:none;stroke:#000000;stroke-linecap:square;stroke-linejoin:miter;stroke-width:0.8;"/>
   </g>
  </g>
 </g>
 <defs>
  <clipPath id="pf5b9e236cd">
   <rect height="266.112" width="357.12" x="57.6" y="41.472"/>
  </clipPath>
 </defs>
</svg>
