<?xml version="1.0" encoding="utf-8" standalone="no"?>
<!DOCTYPE svg PUBLIC "-//W3C//DTD SVG 1.1//EN"
  "http://www.w3.org/Graphics/SVG/1.1/DTD/svg11.dtd">
<!-- Created with matplotlib (https://matplotlib.org/) -->
<svg height="345.6pt" version="1.1" viewBox="0 0 460.8 345.6" width="460.8pt" xmlns="http://www.w3.org/2000/svg" xmlns:xlink="http://www.w3.org/1999/xlink">
 <defs>
  <style type="text/css">
*{stroke-linecap:butt;stroke-linejoin:round;}
  </style>
 </defs>
 <g id="figure_1">
  <g id="patch_1">
   <path d="M 0 345.6 
L 460.8 345.6 
L 460.8 0 
L 0 0 
z
" style="fill:#ffffff;"/>
  </g>
  <g id="axes_1">
   <g id="patch_2">
    <path d="M 57.6 307.584 
L 414.72 307.584 
L 414.72 41.472 
L 57.6 41.472 
z
" style="fill:#ffffff;"/>
   </g>
   <g id="matplotlib.axis_1">
    <g id="xtick_1">
     <g id="line2d_1">
      <path clip-path="url(#pde0ac318a6)" d="M 57.6 307.584 
L 57.6 41.472 
" style="fill:none;stroke:#b0b0b0;stroke-linecap:square;stroke-width:0.8;"/>
     </g>
     <g id="line2d_2">
      <defs>
       <path d="M 0 0 
L 0 3.5 
" id="m5cb3db28ae" style="stroke:#000000;stroke-width:0.8;"/>
      </defs>
      <g>
       <use style="stroke:#000000;stroke-width:0.8;" x="57.6" xlink:href="#m5cb3db28ae" y="307.584"/>
      </g>
     </g>
     <g id="text_1">
      <!-- 0 -->
      <defs>
       <path d="M 31.78125 66.40625 
Q 24.171875 66.40625 20.328125 58.90625 
Q 16.5 51.421875 16.5 36.375 
Q 16.5 21.390625 20.328125 13.890625 
Q 24.171875 6.390625 31.78125 6.390625 
Q 39.453125 6.390625 43.28125 13.890625 
Q 47.125 21.390625 47.125 36.375 
Q 47.125 51.421875 43.28125 58.90625 
Q 39.453125 66.40625 31.78125 66.40625 
z
M 31.78125 74.21875 
Q 44.046875 74.21875 50.515625 64.515625 
Q 56.984375 54.828125 56.984375 36.375 
Q 56.984375 17.96875 50.515625 8.265625 
Q 44.046875 -1.421875 31.78125 -1.421875 
Q 19.53125 -1.421875 13.0625 8.265625 
Q 6.59375 17.96875 6.59375 36.375 
Q 6.59375 54.828125 13.0625 64.515625 
Q 19.53125 74.21875 31.78125 74.21875 
z
" id="DejaVuSans-48"/>
      </defs>
      <g transform="translate(54.41875 322.182437)scale(0.1 -0.1)">
       <use xlink:href="#DejaVuSans-48"/>
      </g>
     </g>
    </g>
    <g id="xtick_2">
     <g id="line2d_3">
      <path clip-path="url(#pde0ac318a6)" d="M 134.471375 307.584 
L 134.471375 41.472 
" style="fill:none;stroke:#b0b0b0;stroke-linecap:square;stroke-width:0.8;"/>
     </g>
     <g id="line2d_4">
      <g>
       <use style="stroke:#000000;stroke-width:0.8;" x="134.471375" xlink:href="#m5cb3db28ae" y="307.584"/>
      </g>
     </g>
     <g id="text_2">
      <!-- 20 -->
      <defs>
       <path d="M 19.1875 8.296875 
L 53.609375 8.296875 
L 53.609375 0 
L 7.328125 0 
L 7.328125 8.296875 
Q 12.9375 14.109375 22.625 23.890625 
Q 32.328125 33.6875 34.8125 36.53125 
Q 39.546875 41.84375 41.421875 45.53125 
Q 43.3125 49.21875 43.3125 52.78125 
Q 43.3125 58.59375 39.234375 62.25 
Q 35.15625 65.921875 28.609375 65.921875 
Q 23.96875 65.921875 18.8125 64.3125 
Q 13.671875 62.703125 7.8125 59.421875 
L 7.8125 69.390625 
Q 13.765625 71.78125 18.9375 73 
Q 24.125 74.21875 28.421875 74.21875 
Q 39.75 74.21875 46.484375 68.546875 
Q 53.21875 62.890625 53.21875 53.421875 
Q 53.21875 48.921875 51.53125 44.890625 
Q 49.859375 40.875 45.40625 35.40625 
Q 44.1875 33.984375 37.640625 27.21875 
Q 31.109375 20.453125 19.1875 8.296875 
z
" id="DejaVuSans-50"/>
      </defs>
      <g transform="translate(128.108875 322.182437)scale(0.1 -0.1)">
       <use xlink:href="#DejaVuSans-50"/>
       <use x="63.623047" xlink:href="#DejaVuSans-48"/>
      </g>
     </g>
    </g>
    <g id="xtick_3">
     <g id="line2d_5">
      <path clip-path="url(#pde0ac318a6)" d="M 211.34275 307.584 
L 211.34275 41.472 
" style="fill:none;stroke:#b0b0b0;stroke-linecap:square;stroke-width:0.8;"/>
     </g>
     <g id="line2d_6">
      <g>
       <use style="stroke:#000000;stroke-width:0.8;" x="211.34275" xlink:href="#m5cb3db28ae" y="307.584"/>
      </g>
     </g>
     <g id="text_3">
      <!-- 40 -->
      <defs>
       <path d="M 37.796875 64.3125 
L 12.890625 25.390625 
L 37.796875 25.390625 
z
M 35.203125 72.90625 
L 47.609375 72.90625 
L 47.609375 25.390625 
L 58.015625 25.390625 
L 58.015625 17.1875 
L 47.609375 17.1875 
L 47.609375 0 
L 37.796875 0 
L 37.796875 17.1875 
L 4.890625 17.1875 
L 4.890625 26.703125 
z
" id="DejaVuSans-52"/>
      </defs>
      <g transform="translate(204.98025 322.182437)scale(0.1 -0.1)">
       <use xlink:href="#DejaVuSans-52"/>
       <use x="63.623047" xlink:href="#DejaVuSans-48"/>
      </g>
     </g>
    </g>
    <g id="xtick_4">
     <g id="line2d_7">
      <path clip-path="url(#pde0ac318a6)" d="M 288.214125 307.584 
L 288.214125 41.472 
" style="fill:none;stroke:#b0b0b0;stroke-linecap:square;stroke-width:0.8;"/>
     </g>
     <g id="line2d_8">
      <g>
       <use style="stroke:#000000;stroke-width:0.8;" x="288.214125" xlink:href="#m5cb3db28ae" y="307.584"/>
      </g>
     </g>
     <g id="text_4">
      <!-- 60 -->
      <defs>
       <path d="M 33.015625 40.375 
Q 26.375 40.375 22.484375 35.828125 
Q 18.609375 31.296875 18.609375 23.390625 
Q 18.609375 15.53125 22.484375 10.953125 
Q 26.375 6.390625 33.015625 6.390625 
Q 39.65625 6.390625 43.53125 10.953125 
Q 47.40625 15.53125 47.40625 23.390625 
Q 47.40625 31.296875 43.53125 35.828125 
Q 39.65625 40.375 33.015625 40.375 
z
M 52.59375 71.296875 
L 52.59375 62.3125 
Q 48.875 64.0625 45.09375 64.984375 
Q 41.3125 65.921875 37.59375 65.921875 
Q 27.828125 65.921875 22.671875 59.328125 
Q 17.53125 52.734375 16.796875 39.40625 
Q 19.671875 43.65625 24.015625 45.921875 
Q 28.375 48.1875 33.59375 48.1875 
Q 44.578125 48.1875 50.953125 41.515625 
Q 57.328125 34.859375 57.328125 23.390625 
Q 57.328125 12.15625 50.6875 5.359375 
Q 44.046875 -1.421875 33.015625 -1.421875 
Q 20.359375 -1.421875 13.671875 8.265625 
Q 6.984375 17.96875 6.984375 36.375 
Q 6.984375 53.65625 15.1875 63.9375 
Q 23.390625 74.21875 37.203125 74.21875 
Q 40.921875 74.21875 44.703125 73.484375 
Q 48.484375 72.75 52.59375 71.296875 
z
" id="DejaVuSans-54"/>
      </defs>
      <g transform="translate(281.851625 322.182437)scale(0.1 -0.1)">
       <use xlink:href="#DejaVuSans-54"/>
       <use x="63.623047" xlink:href="#DejaVuSans-48"/>
      </g>
     </g>
    </g>
    <g id="xtick_5">
     <g id="line2d_9">
      <path clip-path="url(#pde0ac318a6)" d="M 365.0855 307.584 
L 365.0855 41.472 
" style="fill:none;stroke:#b0b0b0;stroke-linecap:square;stroke-width:0.8;"/>
     </g>
     <g id="line2d_10">
      <g>
       <use style="stroke:#000000;stroke-width:0.8;" x="365.0855" xlink:href="#m5cb3db28ae" y="307.584"/>
      </g>
     </g>
     <g id="text_5">
      <!-- 80 -->
      <defs>
       <path d="M 31.78125 34.625 
Q 24.75 34.625 20.71875 30.859375 
Q 16.703125 27.09375 16.703125 20.515625 
Q 16.703125 13.921875 20.71875 10.15625 
Q 24.75 6.390625 31.78125 6.390625 
Q 38.8125 6.390625 42.859375 10.171875 
Q 46.921875 13.96875 46.921875 20.515625 
Q 46.921875 27.09375 42.890625 30.859375 
Q 38.875 34.625 31.78125 34.625 
z
M 21.921875 38.8125 
Q 15.578125 40.375 12.03125 44.71875 
Q 8.5 49.078125 8.5 55.328125 
Q 8.5 64.0625 14.71875 69.140625 
Q 20.953125 74.21875 31.78125 74.21875 
Q 42.671875 74.21875 48.875 69.140625 
Q 55.078125 64.0625 55.078125 55.328125 
Q 55.078125 49.078125 51.53125 44.71875 
Q 48 40.375 41.703125 38.8125 
Q 48.828125 37.15625 52.796875 32.3125 
Q 56.78125 27.484375 56.78125 20.515625 
Q 56.78125 9.90625 50.3125 4.234375 
Q 43.84375 -1.421875 31.78125 -1.421875 
Q 19.734375 -1.421875 13.25 4.234375 
Q 6.78125 9.90625 6.78125 20.515625 
Q 6.78125 27.484375 10.78125 32.3125 
Q 14.796875 37.15625 21.921875 38.8125 
z
M 18.3125 54.390625 
Q 18.3125 48.734375 21.84375 45.5625 
Q 25.390625 42.390625 31.78125 42.390625 
Q 38.140625 42.390625 41.71875 45.5625 
Q 45.3125 48.734375 45.3125 54.390625 
Q 45.3125 60.0625 41.71875 63.234375 
Q 38.140625 66.40625 31.78125 66.40625 
Q 25.390625 66.40625 21.84375 63.234375 
Q 18.3125 60.0625 18.3125 54.390625 
z
" id="DejaVuSans-56"/>
      </defs>
      <g transform="translate(358.723 322.182437)scale(0.1 -0.1)">
       <use xlink:href="#DejaVuSans-56"/>
       <use x="63.623047" xlink:href="#DejaVuSans-48"/>
      </g>
     </g>
    </g>
    <g id="text_6">
     <!-- Seconds -->
     <defs>
      <path d="M 53.515625 70.515625 
L 53.515625 60.890625 
Q 47.90625 63.578125 42.921875 64.890625 
Q 37.9375 66.21875 33.296875 66.21875 
Q 25.25 66.21875 20.875 63.09375 
Q 16.5 59.96875 16.5 54.203125 
Q 16.5 49.359375 19.40625 46.890625 
Q 22.3125 44.4375 30.421875 42.921875 
L 36.375 41.703125 
Q 47.40625 39.59375 52.65625 34.296875 
Q 57.90625 29 57.90625 20.125 
Q 57.90625 9.515625 50.796875 4.046875 
Q 43.703125 -1.421875 29.984375 -1.421875 
Q 24.8125 -1.421875 18.96875 -0.25 
Q 13.140625 0.921875 6.890625 3.21875 
L 6.890625 13.375 
Q 12.890625 10.015625 18.65625 8.296875 
Q 24.421875 6.59375 29.984375 6.59375 
Q 38.421875 6.59375 43.015625 9.90625 
Q 47.609375 13.234375 47.609375 19.390625 
Q 47.609375 24.75 44.3125 27.78125 
Q 41.015625 30.8125 33.5 32.328125 
L 27.484375 33.5 
Q 16.453125 35.6875 11.515625 40.375 
Q 6.59375 45.0625 6.59375 53.421875 
Q 6.59375 63.09375 13.40625 68.65625 
Q 20.21875 74.21875 32.171875 74.21875 
Q 37.3125 74.21875 42.625 73.28125 
Q 47.953125 72.359375 53.515625 70.515625 
z
" id="DejaVuSans-83"/>
      <path d="M 56.203125 29.59375 
L 56.203125 25.203125 
L 14.890625 25.203125 
Q 15.484375 15.921875 20.484375 11.0625 
Q 25.484375 6.203125 34.421875 6.203125 
Q 39.59375 6.203125 44.453125 7.46875 
Q 49.3125 8.734375 54.109375 11.28125 
L 54.109375 2.78125 
Q 49.265625 0.734375 44.1875 -0.34375 
Q 39.109375 -1.421875 33.890625 -1.421875 
Q 20.796875 -1.421875 13.15625 6.1875 
Q 5.515625 13.8125 5.515625 26.8125 
Q 5.515625 40.234375 12.765625 48.109375 
Q 20.015625 56 32.328125 56 
Q 43.359375 56 49.78125 48.890625 
Q 56.203125 41.796875 56.203125 29.59375 
z
M 47.21875 32.234375 
Q 47.125 39.59375 43.09375 43.984375 
Q 39.0625 48.390625 32.421875 48.390625 
Q 24.90625 48.390625 20.390625 44.140625 
Q 15.875 39.890625 15.1875 32.171875 
z
" id="DejaVuSans-101"/>
      <path d="M 48.78125 52.59375 
L 48.78125 44.1875 
Q 44.96875 46.296875 41.140625 47.34375 
Q 37.3125 48.390625 33.40625 48.390625 
Q 24.65625 48.390625 19.8125 42.84375 
Q 14.984375 37.3125 14.984375 27.296875 
Q 14.984375 17.28125 19.8125 11.734375 
Q 24.65625 6.203125 33.40625 6.203125 
Q 37.3125 6.203125 41.140625 7.25 
Q 44.96875 8.296875 48.78125 10.40625 
L 48.78125 2.09375 
Q 45.015625 0.34375 40.984375 -0.53125 
Q 36.96875 -1.421875 32.421875 -1.421875 
Q 20.0625 -1.421875 12.78125 6.34375 
Q 5.515625 14.109375 5.515625 27.296875 
Q 5.515625 40.671875 12.859375 48.328125 
Q 20.21875 56 33.015625 56 
Q 37.15625 56 41.109375 55.140625 
Q 45.0625 54.296875 48.78125 52.59375 
z
" id="DejaVuSans-99"/>
      <path d="M 30.609375 48.390625 
Q 23.390625 48.390625 19.1875 42.75 
Q 14.984375 37.109375 14.984375 27.296875 
Q 14.984375 17.484375 19.15625 11.84375 
Q 23.34375 6.203125 30.609375 6.203125 
Q 37.796875 6.203125 41.984375 11.859375 
Q 46.1875 17.53125 46.1875 27.296875 
Q 46.1875 37.015625 41.984375 42.703125 
Q 37.796875 48.390625 30.609375 48.390625 
z
M 30.609375 56 
Q 42.328125 56 49.015625 48.375 
Q 55.71875 40.765625 55.71875 27.296875 
Q 55.71875 13.875 49.015625 6.21875 
Q 42.328125 -1.421875 30.609375 -1.421875 
Q 18.84375 -1.421875 12.171875 6.21875 
Q 5.515625 13.875 5.515625 27.296875 
Q 5.515625 40.765625 12.171875 48.375 
Q 18.84375 56 30.609375 56 
z
" id="DejaVuSans-111"/>
      <path d="M 54.890625 33.015625 
L 54.890625 0 
L 45.90625 0 
L 45.90625 32.71875 
Q 45.90625 40.484375 42.875 44.328125 
Q 39.84375 48.1875 33.796875 48.1875 
Q 26.515625 48.1875 22.3125 43.546875 
Q 18.109375 38.921875 18.109375 30.90625 
L 18.109375 0 
L 9.078125 0 
L 9.078125 54.6875 
L 18.109375 54.6875 
L 18.109375 46.1875 
Q 21.34375 51.125 25.703125 53.5625 
Q 30.078125 56 35.796875 56 
Q 45.21875 56 50.046875 50.171875 
Q 54.890625 44.34375 54.890625 33.015625 
z
" id="DejaVuSans-110"/>
      <path d="M 45.40625 46.390625 
L 45.40625 75.984375 
L 54.390625 75.984375 
L 54.390625 0 
L 45.40625 0 
L 45.40625 8.203125 
Q 42.578125 3.328125 38.25 0.953125 
Q 33.9375 -1.421875 27.875 -1.421875 
Q 17.96875 -1.421875 11.734375 6.484375 
Q 5.515625 14.40625 5.515625 27.296875 
Q 5.515625 40.1875 11.734375 48.09375 
Q 17.96875 56 27.875 56 
Q 33.9375 56 38.25 53.625 
Q 42.578125 51.265625 45.40625 46.390625 
z
M 14.796875 27.296875 
Q 14.796875 17.390625 18.875 11.75 
Q 22.953125 6.109375 30.078125 6.109375 
Q 37.203125 6.109375 41.296875 11.75 
Q 45.40625 17.390625 45.40625 27.296875 
Q 45.40625 37.203125 41.296875 42.84375 
Q 37.203125 48.484375 30.078125 48.484375 
Q 22.953125 48.484375 18.875 42.84375 
Q 14.796875 37.203125 14.796875 27.296875 
z
" id="DejaVuSans-100"/>
      <path d="M 44.28125 53.078125 
L 44.28125 44.578125 
Q 40.484375 46.53125 36.375 47.5 
Q 32.28125 48.484375 27.875 48.484375 
Q 21.1875 48.484375 17.84375 46.4375 
Q 14.5 44.390625 14.5 40.28125 
Q 14.5 37.15625 16.890625 35.375 
Q 19.28125 33.59375 26.515625 31.984375 
L 29.59375 31.296875 
Q 39.15625 29.25 43.1875 25.515625 
Q 47.21875 21.78125 47.21875 15.09375 
Q 47.21875 7.46875 41.1875 3.015625 
Q 35.15625 -1.421875 24.609375 -1.421875 
Q 20.21875 -1.421875 15.453125 -0.5625 
Q 10.6875 0.296875 5.421875 2 
L 5.421875 11.28125 
Q 10.40625 8.6875 15.234375 7.390625 
Q 20.0625 6.109375 24.8125 6.109375 
Q 31.15625 6.109375 34.5625 8.28125 
Q 37.984375 10.453125 37.984375 14.40625 
Q 37.984375 18.0625 35.515625 20.015625 
Q 33.0625 21.96875 24.703125 23.78125 
L 21.578125 24.515625 
Q 13.234375 26.265625 9.515625 29.90625 
Q 5.8125 33.546875 5.8125 39.890625 
Q 5.8125 47.609375 11.28125 51.796875 
Q 16.75 56 26.8125 56 
Q 31.78125 56 36.171875 55.265625 
Q 40.578125 54.546875 44.28125 53.078125 
z
" id="DejaVuSans-115"/>
     </defs>
     <g transform="translate(215.152969 335.860562)scale(0.1 -0.1)">
      <use xlink:href="#DejaVuSans-83"/>
      <use x="63.476562" xlink:href="#DejaVuSans-101"/>
      <use x="125" xlink:href="#DejaVuSans-99"/>
      <use x="179.980469" xlink:href="#DejaVuSans-111"/>
      <use x="241.162109" xlink:href="#DejaVuSans-110"/>
      <use x="304.541016" xlink:href="#DejaVuSans-100"/>
      <use x="368.017578" xlink:href="#DejaVuSans-115"/>
     </g>
    </g>
   </g>
   <g id="matplotlib.axis_2">
    <g id="ytick_1">
     <g id="line2d_11">
      <path clip-path="url(#pde0ac318a6)" d="M 57.6 283.012335 
L 414.72 283.012335 
" style="fill:none;stroke:#b0b0b0;stroke-linecap:square;stroke-width:0.8;"/>
     </g>
     <g id="line2d_12">
      <defs>
       <path d="M 0 0 
L -3.5 0 
" id="m42cb2e74ad" style="stroke:#000000;stroke-width:0.8;"/>
      </defs>
      <g>
       <use style="stroke:#000000;stroke-width:0.8;" x="57.6" xlink:href="#m42cb2e74ad" y="283.012335"/>
      </g>
     </g>
     <g id="text_7">
      <!-- 25 -->
      <defs>
       <path d="M 10.796875 72.90625 
L 49.515625 72.90625 
L 49.515625 64.59375 
L 19.828125 64.59375 
L 19.828125 46.734375 
Q 21.96875 47.46875 24.109375 47.828125 
Q 26.265625 48.1875 28.421875 48.1875 
Q 40.625 48.1875 47.75 41.5 
Q 54.890625 34.8125 54.890625 23.390625 
Q 54.890625 11.625 47.5625 5.09375 
Q 40.234375 -1.421875 26.90625 -1.421875 
Q 22.3125 -1.421875 17.546875 -0.640625 
Q 12.796875 0.140625 7.71875 1.703125 
L 7.71875 11.625 
Q 12.109375 9.234375 16.796875 8.0625 
Q 21.484375 6.890625 26.703125 6.890625 
Q 35.15625 6.890625 40.078125 11.328125 
Q 45.015625 15.765625 45.015625 23.390625 
Q 45.015625 31 40.078125 35.4375 
Q 35.15625 39.890625 26.703125 39.890625 
Q 22.75 39.890625 18.8125 39.015625 
Q 14.890625 38.140625 10.796875 36.28125 
z
" id="DejaVuSans-53"/>
      </defs>
      <g transform="translate(37.875 286.811554)scale(0.1 -0.1)">
       <use xlink:href="#DejaVuSans-50"/>
       <use x="63.623047" xlink:href="#DejaVuSans-53"/>
      </g>
     </g>
    </g>
    <g id="ytick_2">
     <g id="line2d_13">
      <path clip-path="url(#pde0ac318a6)" d="M 57.6 249.294321 
L 414.72 249.294321 
" style="fill:none;stroke:#b0b0b0;stroke-linecap:square;stroke-width:0.8;"/>
     </g>
     <g id="line2d_14">
      <g>
       <use style="stroke:#000000;stroke-width:0.8;" x="57.6" xlink:href="#m42cb2e74ad" y="249.294321"/>
      </g>
     </g>
     <g id="text_8">
      <!-- 50 -->
      <g transform="translate(37.875 253.09354)scale(0.1 -0.1)">
       <use xlink:href="#DejaVuSans-53"/>
       <use x="63.623047" xlink:href="#DejaVuSans-48"/>
      </g>
     </g>
    </g>
    <g id="ytick_3">
     <g id="line2d_15">
      <path clip-path="url(#pde0ac318a6)" d="M 57.6 215.576307 
L 414.72 215.576307 
" style="fill:none;stroke:#b0b0b0;stroke-linecap:square;stroke-width:0.8;"/>
     </g>
     <g id="line2d_16">
      <g>
       <use style="stroke:#000000;stroke-width:0.8;" x="57.6" xlink:href="#m42cb2e74ad" y="215.576307"/>
      </g>
     </g>
     <g id="text_9">
      <!-- 75 -->
      <defs>
       <path d="M 8.203125 72.90625 
L 55.078125 72.90625 
L 55.078125 68.703125 
L 28.609375 0 
L 18.3125 0 
L 43.21875 64.59375 
L 8.203125 64.59375 
z
" id="DejaVuSans-55"/>
      </defs>
      <g transform="translate(37.875 219.375526)scale(0.1 -0.1)">
       <use xlink:href="#DejaVuSans-55"/>
       <use x="63.623047" xlink:href="#DejaVuSans-53"/>
      </g>
     </g>
    </g>
    <g id="ytick_4">
     <g id="line2d_17">
      <path clip-path="url(#pde0ac318a6)" d="M 57.6 181.858293 
L 414.72 181.858293 
" style="fill:none;stroke:#b0b0b0;stroke-linecap:square;stroke-width:0.8;"/>
     </g>
     <g id="line2d_18">
      <g>
       <use style="stroke:#000000;stroke-width:0.8;" x="57.6" xlink:href="#m42cb2e74ad" y="181.858293"/>
      </g>
     </g>
     <g id="text_10">
      <!-- 100 -->
      <defs>
       <path d="M 12.40625 8.296875 
L 28.515625 8.296875 
L 28.515625 63.921875 
L 10.984375 60.40625 
L 10.984375 69.390625 
L 28.421875 72.90625 
L 38.28125 72.90625 
L 38.28125 8.296875 
L 54.390625 8.296875 
L 54.390625 0 
L 12.40625 0 
z
" id="DejaVuSans-49"/>
      </defs>
      <g transform="translate(31.5125 185.657512)scale(0.1 -0.1)">
       <use xlink:href="#DejaVuSans-49"/>
       <use x="63.623047" xlink:href="#DejaVuSans-48"/>
       <use x="127.246094" xlink:href="#DejaVuSans-48"/>
      </g>
     </g>
    </g>
    <g id="ytick_5">
     <g id="line2d_19">
      <path clip-path="url(#pde0ac318a6)" d="M 57.6 148.140279 
L 414.72 148.140279 
" style="fill:none;stroke:#b0b0b0;stroke-linecap:square;stroke-width:0.8;"/>
     </g>
     <g id="line2d_20">
      <g>
       <use style="stroke:#000000;stroke-width:0.8;" x="57.6" xlink:href="#m42cb2e74ad" y="148.140279"/>
      </g>
     </g>
     <g id="text_11">
      <!-- 125 -->
      <g transform="translate(31.5125 151.939498)scale(0.1 -0.1)">
       <use xlink:href="#DejaVuSans-49"/>
       <use x="63.623047" xlink:href="#DejaVuSans-50"/>
       <use x="127.246094" xlink:href="#DejaVuSans-53"/>
      </g>
     </g>
    </g>
    <g id="ytick_6">
     <g id="line2d_21">
      <path clip-path="url(#pde0ac318a6)" d="M 57.6 114.422265 
L 414.72 114.422265 
" style="fill:none;stroke:#b0b0b0;stroke-linecap:square;stroke-width:0.8;"/>
     </g>
     <g id="line2d_22">
      <g>
       <use style="stroke:#000000;stroke-width:0.8;" x="57.6" xlink:href="#m42cb2e74ad" y="114.422265"/>
      </g>
     </g>
     <g id="text_12">
      <!-- 150 -->
      <g transform="translate(31.5125 118.221484)scale(0.1 -0.1)">
       <use xlink:href="#DejaVuSans-49"/>
       <use x="63.623047" xlink:href="#DejaVuSans-53"/>
       <use x="127.246094" xlink:href="#DejaVuSans-48"/>
      </g>
     </g>
    </g>
    <g id="ytick_7">
     <g id="line2d_23">
      <path clip-path="url(#pde0ac318a6)" d="M 57.6 80.704251 
L 414.72 80.704251 
" style="fill:none;stroke:#b0b0b0;stroke-linecap:square;stroke-width:0.8;"/>
     </g>
     <g id="line2d_24">
      <g>
       <use style="stroke:#000000;stroke-width:0.8;" x="57.6" xlink:href="#m42cb2e74ad" y="80.704251"/>
      </g>
     </g>
     <g id="text_13">
      <!-- 175 -->
      <g transform="translate(31.5125 84.50347)scale(0.1 -0.1)">
       <use xlink:href="#DejaVuSans-49"/>
       <use x="63.623047" xlink:href="#DejaVuSans-55"/>
       <use x="127.246094" xlink:href="#DejaVuSans-53"/>
      </g>
     </g>
    </g>
    <g id="ytick_8">
     <g id="line2d_25">
      <path clip-path="url(#pde0ac318a6)" d="M 57.6 46.986237 
L 414.72 46.986237 
" style="fill:none;stroke:#b0b0b0;stroke-linecap:square;stroke-width:0.8;"/>
     </g>
     <g id="line2d_26">
      <g>
       <use style="stroke:#000000;stroke-width:0.8;" x="57.6" xlink:href="#m42cb2e74ad" y="46.986237"/>
      </g>
     </g>
     <g id="text_14">
      <!-- 200 -->
      <g transform="translate(31.5125 50.785456)scale(0.1 -0.1)">
       <use xlink:href="#DejaVuSans-50"/>
       <use x="63.623047" xlink:href="#DejaVuSans-48"/>
       <use x="127.246094" xlink:href="#DejaVuSans-48"/>
      </g>
     </g>
    </g>
    <g id="text_15">
     <!-- Reward -->
     <defs>
      <path d="M 44.390625 34.1875 
Q 47.5625 33.109375 50.5625 29.59375 
Q 53.5625 26.078125 56.59375 19.921875 
L 66.609375 0 
L 56 0 
L 46.6875 18.703125 
Q 43.0625 26.03125 39.671875 28.421875 
Q 36.28125 30.8125 30.421875 30.8125 
L 19.671875 30.8125 
L 19.671875 0 
L 9.8125 0 
L 9.8125 72.90625 
L 32.078125 72.90625 
Q 44.578125 72.90625 50.734375 67.671875 
Q 56.890625 62.453125 56.890625 51.90625 
Q 56.890625 45.015625 53.6875 40.46875 
Q 50.484375 35.9375 44.390625 34.1875 
z
M 19.671875 64.796875 
L 19.671875 38.921875 
L 32.078125 38.921875 
Q 39.203125 38.921875 42.84375 42.21875 
Q 46.484375 45.515625 46.484375 51.90625 
Q 46.484375 58.296875 42.84375 61.546875 
Q 39.203125 64.796875 32.078125 64.796875 
z
" id="DejaVuSans-82"/>
      <path d="M 4.203125 54.6875 
L 13.1875 54.6875 
L 24.421875 12.015625 
L 35.59375 54.6875 
L 46.1875 54.6875 
L 57.421875 12.015625 
L 68.609375 54.6875 
L 77.59375 54.6875 
L 63.28125 0 
L 52.6875 0 
L 40.921875 44.828125 
L 29.109375 0 
L 18.5 0 
z
" id="DejaVuSans-119"/>
      <path d="M 34.28125 27.484375 
Q 23.390625 27.484375 19.1875 25 
Q 14.984375 22.515625 14.984375 16.5 
Q 14.984375 11.71875 18.140625 8.90625 
Q 21.296875 6.109375 26.703125 6.109375 
Q 34.1875 6.109375 38.703125 11.40625 
Q 43.21875 16.703125 43.21875 25.484375 
L 43.21875 27.484375 
z
M 52.203125 31.203125 
L 52.203125 0 
L 43.21875 0 
L 43.21875 8.296875 
Q 40.140625 3.328125 35.546875 0.953125 
Q 30.953125 -1.421875 24.3125 -1.421875 
Q 15.921875 -1.421875 10.953125 3.296875 
Q 6 8.015625 6 15.921875 
Q 6 25.140625 12.171875 29.828125 
Q 18.359375 34.515625 30.609375 34.515625 
L 43.21875 34.515625 
L 43.21875 35.40625 
Q 43.21875 41.609375 39.140625 45 
Q 35.0625 48.390625 27.6875 48.390625 
Q 23 48.390625 18.546875 47.265625 
Q 14.109375 46.140625 10.015625 43.890625 
L 10.015625 52.203125 
Q 14.9375 54.109375 19.578125 55.046875 
Q 24.21875 56 28.609375 56 
Q 40.484375 56 46.34375 49.84375 
Q 52.203125 43.703125 52.203125 31.203125 
z
" id="DejaVuSans-97"/>
      <path d="M 41.109375 46.296875 
Q 39.59375 47.171875 37.8125 47.578125 
Q 36.03125 48 33.890625 48 
Q 26.265625 48 22.1875 43.046875 
Q 18.109375 38.09375 18.109375 28.8125 
L 18.109375 0 
L 9.078125 0 
L 9.078125 54.6875 
L 18.109375 54.6875 
L 18.109375 46.1875 
Q 20.953125 51.171875 25.484375 53.578125 
Q 30.03125 56 36.53125 56 
Q 37.453125 56 38.578125 55.875 
Q 39.703125 55.765625 41.0625 55.515625 
z
" id="DejaVuSans-114"/>
     </defs>
     <g transform="translate(25.432812 193.457687)rotate(-90)scale(0.1 -0.1)">
      <use xlink:href="#DejaVuSans-82"/>
      <use x="69.419922" xlink:href="#DejaVuSans-101"/>
      <use x="130.943359" xlink:href="#DejaVuSans-119"/>
      <use x="212.730469" xlink:href="#DejaVuSans-97"/>
      <use x="274.009766" xlink:href="#DejaVuSans-114"/>
      <use x="315.107422" xlink:href="#DejaVuSans-100"/>
     </g>
    </g>
   </g>
   <g id="line2d_27">
    <path clip-path="url(#pde0ac318a6)" d="M 57.6 295.488 
L 57.74082 288.407217 
L 57.801504 288.856791 
L 57.839166 290.859436 
L 57.913767 289.963434 
L 58.198419 285.709776 
L 58.23578 285.777211 
L 58.491224 283.389978 
L 58.508665 283.99794 
L 58.730845 283.142857 
L 58.754097 283.560253 
L 58.848138 282.113189 
L 58.91767 282.472847 
L 59.003825 282.319749 
L 59.471857 279.715462 
L 59.494162 280.138975 
L 59.558765 280.483484 
L 59.660718 280.233971 
L 60.006396 277.442619 
L 60.299659 275.966432 
L 60.543849 275.224562 
L 61.093718 270.75124 
L 61.148073 270.773199 
L 61.163456 271.250698 
L 61.218757 271.245239 
L 61.4246 270.742725 
L 61.636355 272.529874 
L 61.871801 271.712689 
L 61.912976 271.800082 
L 62.046894 271.540277 
L 63.201893 265.464618 
L 63.251194 265.578348 
L 63.864488 262.929887 
L 66.769813 244.304054 
L 67.497037 240.824357 
L 68.749541 231.801414 
L 68.881351 231.261928 
L 70.033033 223.93837 
L 71.451044 214.227586 
L 73.493391 200.10648 
L 74.138102 196.114269 
L 77.601813 174.73705 
L 78.994469 169.652368 
L 79.920613 163.057125 
L 79.962197 163.299895 
L 82.450469 146.589248 
L 82.613744 145.361918 
L 83.693778 139.454515 
L 83.942314 138.888055 
L 84.063545 139.144315 
L 84.231162 139.130836 
L 84.5499 137.310055 
L 85.455377 133.655013 
L 88.839207 115.420326 
L 90.764217 105.547681 
L 92.007162 102.52654 
L 92.258133 101.123879 
L 92.521011 101.285719 
L 92.82703 99.950499 
L 93.736397 96.807978 
L 93.931446 97.253058 
L 94.214279 96.389878 
L 94.536887 94.690477 
L 94.853628 92.208836 
L 95.752711 89.443955 
L 96.070421 89.336054 
L 96.708938 87.434374 
L 97.028085 85.869853 
L 97.662383 83.995133 
L 97.910162 82.740812 
L 98.233075 82.740812 
L 98.981537 81.742772 
L 99.301922 81.742772 
L 99.724456 82.916152 
L 101.037491 83.226352 
L 103.360416 83.226352 
L 104.189668 84.480673 
L 104.787998 85.681033 
L 105.004176 86.598153 
L 105.547888 87.501794 
L 106.206339 86.409333 
L 107.52604 86.409333 
L 108.179771 83.617492 
L 109.194514 83.617492 
L 109.525079 83.280312 
L 109.862475 81.499991 
L 110.844107 81.499991 
L 111.166384 80.205231 
L 111.815258 79.24763 
L 112.45473 77.13015 
L 113.096505 73.798808 
L 114.708334 68.822026 
L 116.333825 68.822026 
L 116.655797 67.351926 
L 120.839918 67.257505 
L 121.396789 67.891406 
L 122.37373 66.906846 
L 123.624708 65.463705 
L 124.488297 63.036004 
L 125.127687 62.671864 
L 125.765266 62.671864 
L 126.088986 62.145864 
L 128.049776 62.145864 
L 128.687649 61.525443 
L 130.040086 59.731642 
L 130.534303 61.107343 
L 131.050899 57.600661 
L 131.49453 59.327022 
L 131.785391 60.217182 
L 132.109537 60.217182 
L 132.641502 61.700783 
L 134.931771 61.700783 
L 135.521315 61.012923 
L 136.167019 57.951342 
L 136.782437 57.047702 
L 137.115151 56.602621 
L 138.011369 60.136263 
L 138.268637 63.319244 
L 138.472981 64.303804 
L 139.190748 66.353865 
L 139.576975 68.484846 
L 140.023752 72.814228 
L 140.53967 76.590649 
L 141.084462 80.137791 
L 141.803385 82.214811 
L 142.130949 84.925753 
L 142.3739 85.640573 
L 143.209748 89.497915 
L 143.407663 90.482475 
L 144.549554 94.434216 
L 144.742052 95.526697 
L 146.16164 107.880962 
L 146.602927 108.946463 
L 147.982954 113.478165 
L 148.724591 114.273905 
L 149.158581 115.973285 
L 149.30875 117.402947 
L 149.528056 118.252626 
L 149.782716 118.792127 
L 150.71913 121.921148 
L 151.594883 125.34691 
L 152.298568 127.53183 
L 153.451817 127.24859 
L 153.696743 127.855531 
L 154.340083 125.65711 
L 154.980992 123.971209 
L 155.301342 123.971209 
L 156.280423 122.487608 
L 158.269842 122.487608 
L 159.26439 121.840228 
L 159.66845 121.840228 
L 159.994111 121.368168 
L 160.696855 121.368168 
L 162.05201 117.834526 
L 162.449135 116.769046 
L 162.777304 114.651545 
L 163.470468 112.722885 
L 164.174929 111.616924 
L 165.202211 108.164202 
L 166.495522 102.59398 
L 167.785427 97.832998 
L 168.803744 95.755977 
L 169.124583 94.218437 
L 171.37958 87.488314 
L 172.705468 84.413233 
L 174.648674 77.386389 
L 175.940554 71.546448 
L 176.585712 68.849006 
L 176.906885 68.349966 
L 177.225969 67.581206 
L 177.788167 68.403926 
L 178.057585 68.390426 
L 178.236548 68.768066 
L 178.553643 68.012786 
L 178.786683 68.255566 
L 178.991936 68.633206 
L 180.498421 65.207444 
L 180.667247 65.719965 
L 181.723552 68.296026 
L 181.980335 69.806586 
L 182.156763 70.022387 
L 182.674111 72.463568 
L 183.052849 74.621529 
L 183.27726 74.864289 
L 183.507773 75.767929 
L 183.674524 77.116649 
L 184.332719 79.74665 
L 184.66078 79.74665 
L 184.928995 80.731231 
L 185.297296 80.731231 
L 186.16888 82.079952 
L 186.643466 83.846772 
L 187.17508 85.006673 
L 188.002552 89.416995 
L 188.173067 90.711755 
L 189.236286 101.285719 
L 189.452644 102.74234 
L 189.506098 104.994701 
L 189.85285 107.543782 
L 190.466647 110.996524 
L 191.206297 115.690066 
L 191.637603 117.510826 
L 192.187422 121.233308 
L 193.094027 127.58577 
L 193.47309 132.710912 
L 193.970663 134.005693 
L 194.490905 134.990254 
L 194.707804 135.853434 
L 196.234033 139.333135 
L 197.167492 142.354277 
L 197.568545 144.431297 
L 198.08542 148.207719 
L 198.277285 148.302129 
L 198.688686 150.13639 
L 199.128887 157.055323 
L 199.313891 158.201733 
L 199.529583 158.093833 
L 199.701553 159.375124 
L 200.029494 160.683384 
L 200.219281 160.548504 
L 200.60653 161.762355 
L 200.804157 161.627485 
L 201.155147 160.804764 
L 201.520763 160.696864 
L 201.688739 160.777794 
L 202.224302 160.683384 
L 202.740519 161.357745 
L 202.916034 161.263335 
L 203.328632 161.573535 
L 203.547304 161.438665 
L 203.738964 162.517645 
L 203.959266 162.355795 
L 204.365844 163.839385 
L 204.57193 164.770006 
L 204.839939 164.392366 
L 205.153797 163.515695 
L 206.177638 162.773895 
L 206.439743 162.166975 
L 206.88139 161.667945 
L 207.941801 157.554353 
L 208.561748 155.153622 
L 208.824061 153.616081 
L 209.430027 151.37721 
L 209.730622 149.340639 
L 212.362774 141.032516 
L 212.649235 140.479556 
L 213.503039 138.281135 
L 215.338676 131.969112 
L 215.668059 130.134851 
L 216.538003 127.221631 
L 217.444544 128.300591 
L 218.07886 129.878612 
L 218.302962 129.946031 
L 218.526014 130.431571 
L 218.744983 130.364152 
L 219.004937 130.134851 
L 219.245197 130.269732 
L 219.739973 130.215792 
L 220.164775 130.026972 
L 221.376881 128.341071 
L 221.546341 128.300591 
L 222.166416 125.27947 
L 222.602556 126.38541 
L 223.147887 126.02127 
L 223.327294 126.14265 
L 223.868179 124.847869 
L 224.185918 125.34691 
L 224.943746 124.90183 
L 225.124549 124.942289 
L 225.509608 124.659049 
L 225.921108 124.146549 
L 226.488909 124.011669 
L 227.742724 124.025149 
L 227.940765 124.092589 
L 228.157509 124.524189 
L 228.380155 125.31993 
L 228.873213 125.83245 
L 229.437976 124.996229 
L 230.427576 124.335369 
L 230.871163 125.09065 
L 231.550446 127.19465 
L 231.777542 127.57229 
L 231.98659 128.354551 
L 233.195772 130.418092 
L 233.451529 130.687832 
L 234.023429 130.768752 
L 234.264408 131.456612 
L 235.368756 131.402652 
L 236.200375 131.699372 
L 236.704333 132.616513 
L 237.328532 132.171433 
L 237.892045 132.562552 
L 238.21289 132.562552 
L 239.791726 129.231211 
L 241.131017 125.38737 
L 242.132757 122.689929 
L 244.087593 118.225667 
L 245.854507 113.194924 
L 248.996169 102.48608 
L 249.390175 102.17588 
L 249.985682 101.82522 
L 251.343521 99.154738 
L 251.565877 99.087319 
L 252.299377 97.725098 
L 252.510374 97.617198 
L 253.382741 96.861918 
L 253.826726 96.538238 
L 254.018181 96.727058 
L 254.480111 96.565197 
L 255.598974 94.097036 
L 255.865195 93.975656 
L 256.50369 92.883196 
L 257.084053 92.829256 
L 258.895292 89.160735 
L 259.955661 87.717594 
L 260.35889 88.351494 
L 260.56468 88.378474 
L 261.245002 89.228175 
L 261.463349 89.862055 
L 261.739682 89.727195 
L 262.195223 90.010415 
L 263.690266 93.638476 
L 264.300775 95.890837 
L 264.506412 96.254997 
L 267.952383 113.073544 
L 268.817117 117.106226 
L 269.24639 118.994427 
L 270.305204 124.065609 
L 271.197667 126.27751 
L 271.463767 126.12915 
L 271.946645 126.61469 
L 272.382702 126.35845 
L 273.921755 126.11567 
L 274.150331 126.23705 
L 274.549505 126.68213 
L 276.992105 131.267792 
L 278.035787 136.945894 
L 278.336363 139.805196 
L 278.528174 140.371656 
L 279.258239 144.620117 
L 279.637313 146.306018 
L 279.831323 147.196179 
L 280.221526 148.032379 
L 280.398057 148.882079 
L 281.156931 149.9071 
L 281.331876 150.28474 
L 281.717246 150.72982 
L 282.629951 153.049621 
L 283.434294 153.831881 
L 283.648733 153.535161 
L 283.835461 153.643061 
L 284.290294 153.224951 
L 284.498596 153.184491 
L 284.907313 153.346341 
L 285.0633 153.710491 
L 286.433138 155.463832 
L 286.612279 155.922392 
L 287.022933 155.504292 
L 287.199306 155.720092 
L 287.533367 156.313522 
L 287.94198 156.016802 
L 288.411236 155.342442 
L 288.828347 155.328962 
L 289.325264 154.303932 
L 289.55416 154.088142 
L 290.320479 152.941721 
L 293.108633 146.346478 
L 294.018081 143.864837 
L 295.226935 141.410156 
L 296.507181 139.198255 
L 296.796705 138.523895 
L 298.373461 136.325494 
L 298.987469 134.626093 
L 300.663997 131.996092 
L 301.783205 129.689792 
L 302.009259 129.487471 
L 302.236797 129.042391 
L 303.250106 128.435471 
L 303.446712 128.462451 
L 305.514167 126.87095 
L 305.926018 126.81701 
L 306.142044 126.69563 
L 306.347436 126.35845 
L 307.3734 125.77849 
L 307.574515 125.85941 
L 307.733958 126.14265 
L 307.912182 126.83049 
L 308.72143 127.08675 
L 309.331047 126.14265 
L 309.970555 125.225509 
L 310.619074 123.930749 
L 311.411305 123.661009 
L 311.808011 123.175469 
L 312.241083 122.986649 
L 313.031795 123.714949 
L 314.117389 125.212029 
L 315.798403 125.99429 
L 316.07433 126.38541 
L 316.679397 126.76305 
L 316.972281 127.01931 
L 317.554402 127.11373 
L 318.079497 127.976911 
L 318.370467 128.192711 
L 318.860819 128.894031 
L 319.10184 128.880551 
L 319.306568 129.204251 
L 319.981591 129.635831 
L 320.214844 130.013471 
L 320.958178 130.539472 
L 321.125949 131.766812 
L 322.650969 133.911273 
L 323.037133 134.450774 
L 323.217792 134.747494 
L 323.48304 134.801433 
L 323.720594 134.707013 
L 324.502853 135.462314 
L 325.360953 134.895833 
L 325.775582 135.111633 
L 326.017103 134.814913 
L 328.310453 132.926713 
L 329.005837 133.021112 
L 329.223606 132.791832 
L 329.421982 132.899733 
L 329.6095 133.129013 
L 330.001673 132.899733 
L 330.417315 132.292812 
L 330.646629 132.292812 
L 330.825418 132.724413 
L 331.23462 132.818813 
L 331.447368 132.737893 
L 331.817201 133.155993 
L 332.199149 133.641533 
L 332.718672 134.774453 
L 333.432965 135.529734 
L 333.650042 135.394874 
L 334.027723 135.772514 
L 334.406678 135.907374 
L 334.854971 135.785994 
L 335.420852 136.258054 
L 335.614155 136.190614 
L 336.632017 138.213695 
L 337.719593 143.622057 
L 338.276576 146.279048 
L 338.861423 148.234689 
L 339.074026 148.423509 
L 339.76676 149.31367 
L 339.975308 149.40808 
L 340.151471 150.13639 
L 340.332864 150.24428 
L 340.496633 150.87818 
L 340.944621 153.346341 
L 341.11555 153.265421 
L 341.296357 153.481211 
L 341.681572 153.413781 
L 341.879789 153.494701 
L 342.488803 152.874291 
L 343.470106 152.793361 
L 343.643963 153.278901 
L 344.187796 153.508191 
L 344.533037 153.926291 
L 344.91359 154.115111 
L 345.263147 154.749012 
L 345.444448 154.991782 
L 345.79213 156.084242 
L 346.567696 157.338553 
L 346.968284 157.432963 
L 347.894717 158.498453 
L 348.514054 158.565893 
L 349.516557 158.350093 
L 349.70965 158.484963 
L 349.933315 158.066863 
L 350.710985 158.107323 
L 350.929011 157.810603 
L 351.301772 157.945473 
L 351.678695 157.716193 
L 352.39968 157.810603 
L 352.584418 157.797123 
L 352.764955 158.107323 
L 353.296363 158.390553 
L 354.988062 161.263335 
L 355.388031 161.357745 
L 355.585698 161.236354 
L 355.775119 161.276814 
L 356.408788 160.804764 
L 357.407358 159.267224 
L 359.861119 152.887771 
L 361.560916 146.845508 
L 361.796814 146.359968 
L 362.123751 145.200068 
L 362.338635 144.957298 
L 362.809359 144.215497 
L 363.037433 144.080638 
L 363.833077 142.570056 
L 364.566661 141.126936 
L 365.707293 137.647235 
L 365.948406 137.175174 
L 366.44718 135.853434 
L 366.667617 135.691594 
L 369.536798 130.593432 
L 369.739669 130.687832 
L 370.347536 129.892091 
L 370.535121 129.946031 
L 371.144287 129.811172 
L 371.553228 129.676291 
L 371.975211 129.352611 
L 372.188331 129.393071 
L 372.382378 129.298651 
L 372.57735 129.514451 
L 372.960434 129.622351 
L 373.117119 129.905571 
L 374.075619 129.919072 
L 374.661966 129.447011 
L 375.403446 129.096351 
L 376.533614 126.96537 
L 378.127896 123.202428 
L 378.832186 122.285308 
L 379.651967 120.518488 
L 379.897461 120.343147 
L 381.018054 118.913507 
L 381.29394 118.792127 
L 381.859506 119.709247 
L 382.701043 120.262228 
L 382.952796 120.963568 
L 383.793015 121.786288 
L 384.11809 121.786288 
L 384.665701 122.204388 
L 385.281118 121.057968 
L 386.092152 120.801707 
L 386.962453 119.506947 
L 387.577383 118.886527 
L 388.878678 116.499286 
L 389.19985 116.499286 
L 389.525527 116.296986 
L 389.846359 115.878886 
L 390.806761 113.774885 
L 391.451809 112.641944 
L 392.729977 109.229683 
L 395.307439 104.252921 
L 400.835812 87.232054 
L 401.476394 84.871793 
L 404.694706 73.893208 
L 407.671274 66.394325 
L 409.039851 63.521544 
L 410.032124 61.296163 
L 412.684475 56.791441 
L 413.016931 56.373341 
L 414.019028 54.49862 
L 414.72 53.568 
L 414.72 53.568 
" style="fill:none;stroke:#000000;stroke-linecap:square;stroke-width:0.8;"/>
   </g>
   <g id="patch_3">
    <path d="M 57.6 307.584 
L 57.6 41.472 
" style="fill:none;stroke:#000000;stroke-linecap:square;stroke-linejoin:miter;stroke-width:0.8;"/>
   </g>
   <g id="patch_4">
    <path d="M 414.72 307.584 
L 414.72 41.472 
" style="fill:none;stroke:#000000;stroke-linecap:square;stroke-linejoin:miter;stroke-width:0.8;"/>
   </g>
   <g id="patch_5">
    <path d="M 57.6 307.584 
L 414.72 307.584 
" style="fill:none;stroke:#000000;stroke-linecap:square;stroke-linejoin:miter;stroke-width:0.8;"/>
   </g>
   <g id="patch_6">
    <path d="M 57.6 41.472 
L 414.72 41.472 
" style="fill:none;stroke:#000000;stroke-linecap:square;stroke-linejoin:miter;stroke-width:0.8;"/>
   </g>
  </g>
  <g id="axes_2">
   <g id="matplotlib.axis_3">
    <g id="xtick_6">
     <g id="line2d_28">
      <defs>
       <path d="M 0 0 
L 0 -3.5 
" id="md2352fbfa5" style="stroke:#000000;stroke-width:0.8;"/>
      </defs>
      <g>
       <use style="stroke:#000000;stroke-width:0.8;" x="57.6" xlink:href="#md2352fbfa5" y="41.472"/>
      </g>
     </g>
    </g>
    <g id="xtick_7">
     <g id="line2d_29">
      <g>
       <use style="stroke:#000000;stroke-width:0.8;" x="98.638653" xlink:href="#md2352fbfa5" y="41.472"/>
      </g>
     </g>
     <g id="text_16">
      <!-- 25.0K -->
      <defs>
       <path d="M 10.6875 12.40625 
L 21 12.40625 
L 21 0 
L 10.6875 0 
z
" id="DejaVuSans-46"/>
       <path d="M 9.8125 72.90625 
L 19.671875 72.90625 
L 19.671875 42.09375 
L 52.390625 72.90625 
L 65.09375 72.90625 
L 28.90625 38.921875 
L 67.671875 0 
L 54.6875 0 
L 19.671875 35.109375 
L 19.671875 0 
L 9.8125 0 
z
" id="DejaVuSans-75"/>
      </defs>
      <g transform="translate(84.226934 32.392313)scale(0.1 -0.1)">
       <use xlink:href="#DejaVuSans-50"/>
       <use x="63.623047" xlink:href="#DejaVuSans-53"/>
       <use x="127.246094" xlink:href="#DejaVuSans-46"/>
       <use x="159.033203" xlink:href="#DejaVuSans-48"/>
       <use x="222.65625" xlink:href="#DejaVuSans-75"/>
      </g>
     </g>
    </g>
    <g id="xtick_8">
     <g id="line2d_30">
      <g>
       <use style="stroke:#000000;stroke-width:0.8;" x="139.677306" xlink:href="#md2352fbfa5" y="41.472"/>
      </g>
     </g>
     <g id="text_17">
      <!-- 50.0K -->
      <g transform="translate(125.265587 32.392313)scale(0.1 -0.1)">
       <use xlink:href="#DejaVuSans-53"/>
       <use x="63.623047" xlink:href="#DejaVuSans-48"/>
       <use x="127.246094" xlink:href="#DejaVuSans-46"/>
       <use x="159.033203" xlink:href="#DejaVuSans-48"/>
       <use x="222.65625" xlink:href="#DejaVuSans-75"/>
      </g>
     </g>
    </g>
    <g id="xtick_9">
     <g id="line2d_31">
      <g>
       <use style="stroke:#000000;stroke-width:0.8;" x="180.715959" xlink:href="#md2352fbfa5" y="41.472"/>
      </g>
     </g>
     <g id="text_18">
      <!-- 75.0K -->
      <g transform="translate(166.30424 32.392313)scale(0.1 -0.1)">
       <use xlink:href="#DejaVuSans-55"/>
       <use x="63.623047" xlink:href="#DejaVuSans-53"/>
       <use x="127.246094" xlink:href="#DejaVuSans-46"/>
       <use x="159.033203" xlink:href="#DejaVuSans-48"/>
       <use x="222.65625" xlink:href="#DejaVuSans-75"/>
      </g>
     </g>
    </g>
    <g id="xtick_10">
     <g id="line2d_32">
      <g>
       <use style="stroke:#000000;stroke-width:0.8;" x="221.754612" xlink:href="#md2352fbfa5" y="41.472"/>
      </g>
     </g>
     <g id="text_19">
      <!-- 100K -->
      <g transform="translate(208.931956 32.392313)scale(0.1 -0.1)">
       <use xlink:href="#DejaVuSans-49"/>
       <use x="63.623047" xlink:href="#DejaVuSans-48"/>
       <use x="127.246094" xlink:href="#DejaVuSans-48"/>
       <use x="190.869141" xlink:href="#DejaVuSans-75"/>
      </g>
     </g>
    </g>
    <g id="xtick_11">
     <g id="line2d_33">
      <g>
       <use style="stroke:#000000;stroke-width:0.8;" x="262.793265" xlink:href="#md2352fbfa5" y="41.472"/>
      </g>
     </g>
     <g id="text_20">
      <!-- 125K -->
      <g transform="translate(249.970609 32.392313)scale(0.1 -0.1)">
       <use xlink:href="#DejaVuSans-49"/>
       <use x="63.623047" xlink:href="#DejaVuSans-50"/>
       <use x="127.246094" xlink:href="#DejaVuSans-53"/>
       <use x="190.869141" xlink:href="#DejaVuSans-75"/>
      </g>
     </g>
    </g>
    <g id="xtick_12">
     <g id="line2d_34">
      <g>
       <use style="stroke:#000000;stroke-width:0.8;" x="303.831918" xlink:href="#md2352fbfa5" y="41.472"/>
      </g>
     </g>
     <g id="text_21">
      <!-- 150K -->
      <g transform="translate(291.009262 32.392313)scale(0.1 -0.1)">
       <use xlink:href="#DejaVuSans-49"/>
       <use x="63.623047" xlink:href="#DejaVuSans-53"/>
       <use x="127.246094" xlink:href="#DejaVuSans-48"/>
       <use x="190.869141" xlink:href="#DejaVuSans-75"/>
      </g>
     </g>
    </g>
    <g id="xtick_13">
     <g id="line2d_35">
      <g>
       <use style="stroke:#000000;stroke-width:0.8;" x="344.870571" xlink:href="#md2352fbfa5" y="41.472"/>
      </g>
     </g>
     <g id="text_22">
      <!-- 175K -->
      <g transform="translate(332.047915 32.392313)scale(0.1 -0.1)">
       <use xlink:href="#DejaVuSans-49"/>
       <use x="63.623047" xlink:href="#DejaVuSans-55"/>
       <use x="127.246094" xlink:href="#DejaVuSans-53"/>
       <use x="190.869141" xlink:href="#DejaVuSans-75"/>
      </g>
     </g>
    </g>
    <g id="xtick_14">
     <g id="line2d_36">
      <g>
       <use style="stroke:#000000;stroke-width:0.8;" x="385.909224" xlink:href="#md2352fbfa5" y="41.472"/>
      </g>
     </g>
     <g id="text_23">
      <!-- 200K -->
      <g transform="translate(373.086568 32.392313)scale(0.1 -0.1)">
       <use xlink:href="#DejaVuSans-50"/>
       <use x="63.623047" xlink:href="#DejaVuSans-48"/>
       <use x="127.246094" xlink:href="#DejaVuSans-48"/>
       <use x="190.869141" xlink:href="#DejaVuSans-75"/>
      </g>
     </g>
    </g>
    <g id="text_24">
     <!-- Steps -->
     <defs>
      <path d="M 18.3125 70.21875 
L 18.3125 54.6875 
L 36.8125 54.6875 
L 36.8125 47.703125 
L 18.3125 47.703125 
L 18.3125 18.015625 
Q 18.3125 11.328125 20.140625 9.421875 
Q 21.96875 7.515625 27.59375 7.515625 
L 36.8125 7.515625 
L 36.8125 0 
L 27.59375 0 
Q 17.1875 0 13.234375 3.875 
Q 9.28125 7.765625 9.28125 18.015625 
L 9.28125 47.703125 
L 2.6875 47.703125 
L 2.6875 54.6875 
L 9.28125 54.6875 
L 9.28125 70.21875 
z
" id="DejaVuSans-116"/>
      <path d="M 18.109375 8.203125 
L 18.109375 -20.796875 
L 9.078125 -20.796875 
L 9.078125 54.6875 
L 18.109375 54.6875 
L 18.109375 46.390625 
Q 20.953125 51.265625 25.265625 53.625 
Q 29.59375 56 35.59375 56 
Q 45.5625 56 51.78125 48.09375 
Q 58.015625 40.1875 58.015625 27.296875 
Q 58.015625 14.40625 51.78125 6.484375 
Q 45.5625 -1.421875 35.59375 -1.421875 
Q 29.59375 -1.421875 25.265625 0.953125 
Q 20.953125 3.328125 18.109375 8.203125 
z
M 48.6875 27.296875 
Q 48.6875 37.203125 44.609375 42.84375 
Q 40.53125 48.484375 33.40625 48.484375 
Q 26.265625 48.484375 22.1875 42.84375 
Q 18.109375 37.203125 18.109375 27.296875 
Q 18.109375 17.390625 22.1875 11.75 
Q 26.265625 6.109375 33.40625 6.109375 
Q 40.53125 6.109375 44.609375 11.75 
Q 48.6875 17.390625 48.6875 27.296875 
z
" id="DejaVuSans-112"/>
     </defs>
     <g transform="translate(222.170156 20.793875)scale(0.1 -0.1)">
      <use xlink:href="#DejaVuSans-83"/>
      <use x="63.476562" xlink:href="#DejaVuSans-116"/>
      <use x="102.685547" xlink:href="#DejaVuSans-101"/>
      <use x="164.208984" xlink:href="#DejaVuSans-112"/>
      <use x="227.685547" xlink:href="#DejaVuSans-115"/>
     </g>
    </g>
   </g>
   <g id="patch_7">
    <path d="M 57.6 307.584 
L 57.6 41.472 
" style="fill:none;stroke:#000000;stroke-linecap:square;stroke-linejoin:miter;stroke-width:0.8;"/>
   </g>
   <g id="patch_8">
    <path d="M 414.72 307.584 
L 414.72 41.472 
" style="fill:none;stroke:#000000;stroke-linecap:square;stroke-linejoin:miter;stroke-width:0.8;"/>
   </g>
   <g id="patch_9">
    <path d="M 57.6 307.584 
L 414.72 307.584 
" style="fill:none;stroke:#000000;stroke-linecap:square;stroke-linejoin:miter;stroke-width:0.8;"/>
   </g>
   <g id="patch_10">
    <path d="M 57.6 41.472 
L 414.72 41.472 
" style="fill:none;stroke:#000000;stroke-linecap:square;stroke-linejoin:miter;stroke-width:0.8;"/>
   </g>
  </g>
 </g>
 <defs>
  <clipPath id="pde0ac318a6">
   <rect height="266.112" width="357.12" x="57.6" y="41.472"/>
  </clipPath>
 </defs>
</svg>
