<?xml version="1.0" encoding="utf-8" standalone="no"?>
<!DOCTYPE svg PUBLIC "-//W3C//DTD SVG 1.1//EN"
  "http://www.w3.org/Graphics/SVG/1.1/DTD/svg11.dtd">
<!-- Created with matplotlib (https://matplotlib.org/) -->
<svg height="345.6pt" version="1.1" viewBox="0 0 460.8 345.6" width="460.8pt" xmlns="http://www.w3.org/2000/svg" xmlns:xlink="http://www.w3.org/1999/xlink">
 <defs>
  <style type="text/css">
*{stroke-linecap:butt;stroke-linejoin:round;}
  </style>
 </defs>
 <g id="figure_1">
  <g id="patch_1">
   <path d="M 0 345.6 
L 460.8 345.6 
L 460.8 0 
L 0 0 
z
" style="fill:#ffffff;"/>
  </g>
  <g id="axes_1">
   <g id="patch_2">
    <path d="M 57.6 307.584 
L 414.72 307.584 
L 414.72 41.472 
L 57.6 41.472 
z
" style="fill:#ffffff;"/>
   </g>
   <g id="matplotlib.axis_1">
    <g id="xtick_1">
     <g id="line2d_1">
      <path clip-path="url(#p0346400274)" d="M 57.6 307.584 
L 57.6 41.472 
" style="fill:none;stroke:#b0b0b0;stroke-linecap:square;stroke-width:0.8;"/>
     </g>
     <g id="line2d_2">
      <defs>
       <path d="M 0 0 
L 0 3.5 
" id="m738cdc3cb0" style="stroke:#000000;stroke-width:0.8;"/>
      </defs>
      <g>
       <use style="stroke:#000000;stroke-width:0.8;" x="57.6" xlink:href="#m738cdc3cb0" y="307.584"/>
      </g>
     </g>
     <g id="text_1">
      <!-- 0 -->
      <defs>
       <path d="M 31.78125 66.40625 
Q 24.171875 66.40625 20.328125 58.90625 
Q 16.5 51.421875 16.5 36.375 
Q 16.5 21.390625 20.328125 13.890625 
Q 24.171875 6.390625 31.78125 6.390625 
Q 39.453125 6.390625 43.28125 13.890625 
Q 47.125 21.390625 47.125 36.375 
Q 47.125 51.421875 43.28125 58.90625 
Q 39.453125 66.40625 31.78125 66.40625 
z
M 31.78125 74.21875 
Q 44.046875 74.21875 50.515625 64.515625 
Q 56.984375 54.828125 56.984375 36.375 
Q 56.984375 17.96875 50.515625 8.265625 
Q 44.046875 -1.421875 31.78125 -1.421875 
Q 19.53125 -1.421875 13.0625 8.265625 
Q 6.59375 17.96875 6.59375 36.375 
Q 6.59375 54.828125 13.0625 64.515625 
Q 19.53125 74.21875 31.78125 74.21875 
z
" id="DejaVuSans-48"/>
      </defs>
      <g transform="translate(54.41875 322.182437)scale(0.1 -0.1)">
       <use xlink:href="#DejaVuSans-48"/>
      </g>
     </g>
    </g>
    <g id="xtick_2">
     <g id="line2d_3">
      <path clip-path="url(#p0346400274)" d="M 102.704572 307.584 
L 102.704572 41.472 
" style="fill:none;stroke:#b0b0b0;stroke-linecap:square;stroke-width:0.8;"/>
     </g>
     <g id="line2d_4">
      <g>
       <use style="stroke:#000000;stroke-width:0.8;" x="102.704572" xlink:href="#m738cdc3cb0" y="307.584"/>
      </g>
     </g>
     <g id="text_2">
      <!-- 5 -->
      <defs>
       <path d="M 10.796875 72.90625 
L 49.515625 72.90625 
L 49.515625 64.59375 
L 19.828125 64.59375 
L 19.828125 46.734375 
Q 21.96875 47.46875 24.109375 47.828125 
Q 26.265625 48.1875 28.421875 48.1875 
Q 40.625 48.1875 47.75 41.5 
Q 54.890625 34.8125 54.890625 23.390625 
Q 54.890625 11.625 47.5625 5.09375 
Q 40.234375 -1.421875 26.90625 -1.421875 
Q 22.3125 -1.421875 17.546875 -0.640625 
Q 12.796875 0.140625 7.71875 1.703125 
L 7.71875 11.625 
Q 12.109375 9.234375 16.796875 8.0625 
Q 21.484375 6.890625 26.703125 6.890625 
Q 35.15625 6.890625 40.078125 11.328125 
Q 45.015625 15.765625 45.015625 23.390625 
Q 45.015625 31 40.078125 35.4375 
Q 35.15625 39.890625 26.703125 39.890625 
Q 22.75 39.890625 18.8125 39.015625 
Q 14.890625 38.140625 10.796875 36.28125 
z
" id="DejaVuSans-53"/>
      </defs>
      <g transform="translate(99.523322 322.182437)scale(0.1 -0.1)">
       <use xlink:href="#DejaVuSans-53"/>
      </g>
     </g>
    </g>
    <g id="xtick_3">
     <g id="line2d_5">
      <path clip-path="url(#p0346400274)" d="M 147.809144 307.584 
L 147.809144 41.472 
" style="fill:none;stroke:#b0b0b0;stroke-linecap:square;stroke-width:0.8;"/>
     </g>
     <g id="line2d_6">
      <g>
       <use style="stroke:#000000;stroke-width:0.8;" x="147.809144" xlink:href="#m738cdc3cb0" y="307.584"/>
      </g>
     </g>
     <g id="text_3">
      <!-- 10 -->
      <defs>
       <path d="M 12.40625 8.296875 
L 28.515625 8.296875 
L 28.515625 63.921875 
L 10.984375 60.40625 
L 10.984375 69.390625 
L 28.421875 72.90625 
L 38.28125 72.90625 
L 38.28125 8.296875 
L 54.390625 8.296875 
L 54.390625 0 
L 12.40625 0 
z
" id="DejaVuSans-49"/>
      </defs>
      <g transform="translate(141.446644 322.182437)scale(0.1 -0.1)">
       <use xlink:href="#DejaVuSans-49"/>
       <use x="63.623047" xlink:href="#DejaVuSans-48"/>
      </g>
     </g>
    </g>
    <g id="xtick_4">
     <g id="line2d_7">
      <path clip-path="url(#p0346400274)" d="M 192.913717 307.584 
L 192.913717 41.472 
" style="fill:none;stroke:#b0b0b0;stroke-linecap:square;stroke-width:0.8;"/>
     </g>
     <g id="line2d_8">
      <g>
       <use style="stroke:#000000;stroke-width:0.8;" x="192.913717" xlink:href="#m738cdc3cb0" y="307.584"/>
      </g>
     </g>
     <g id="text_4">
      <!-- 15 -->
      <g transform="translate(186.551217 322.182437)scale(0.1 -0.1)">
       <use xlink:href="#DejaVuSans-49"/>
       <use x="63.623047" xlink:href="#DejaVuSans-53"/>
      </g>
     </g>
    </g>
    <g id="xtick_5">
     <g id="line2d_9">
      <path clip-path="url(#p0346400274)" d="M 238.018289 307.584 
L 238.018289 41.472 
" style="fill:none;stroke:#b0b0b0;stroke-linecap:square;stroke-width:0.8;"/>
     </g>
     <g id="line2d_10">
      <g>
       <use style="stroke:#000000;stroke-width:0.8;" x="238.018289" xlink:href="#m738cdc3cb0" y="307.584"/>
      </g>
     </g>
     <g id="text_5">
      <!-- 20 -->
      <defs>
       <path d="M 19.1875 8.296875 
L 53.609375 8.296875 
L 53.609375 0 
L 7.328125 0 
L 7.328125 8.296875 
Q 12.9375 14.109375 22.625 23.890625 
Q 32.328125 33.6875 34.8125 36.53125 
Q 39.546875 41.84375 41.421875 45.53125 
Q 43.3125 49.21875 43.3125 52.78125 
Q 43.3125 58.59375 39.234375 62.25 
Q 35.15625 65.921875 28.609375 65.921875 
Q 23.96875 65.921875 18.8125 64.3125 
Q 13.671875 62.703125 7.8125 59.421875 
L 7.8125 69.390625 
Q 13.765625 71.78125 18.9375 73 
Q 24.125 74.21875 28.421875 74.21875 
Q 39.75 74.21875 46.484375 68.546875 
Q 53.21875 62.890625 53.21875 53.421875 
Q 53.21875 48.921875 51.53125 44.890625 
Q 49.859375 40.875 45.40625 35.40625 
Q 44.1875 33.984375 37.640625 27.21875 
Q 31.109375 20.453125 19.1875 8.296875 
z
" id="DejaVuSans-50"/>
      </defs>
      <g transform="translate(231.655789 322.182437)scale(0.1 -0.1)">
       <use xlink:href="#DejaVuSans-50"/>
       <use x="63.623047" xlink:href="#DejaVuSans-48"/>
      </g>
     </g>
    </g>
    <g id="xtick_6">
     <g id="line2d_11">
      <path clip-path="url(#p0346400274)" d="M 283.122861 307.584 
L 283.122861 41.472 
" style="fill:none;stroke:#b0b0b0;stroke-linecap:square;stroke-width:0.8;"/>
     </g>
     <g id="line2d_12">
      <g>
       <use style="stroke:#000000;stroke-width:0.8;" x="283.122861" xlink:href="#m738cdc3cb0" y="307.584"/>
      </g>
     </g>
     <g id="text_6">
      <!-- 25 -->
      <g transform="translate(276.760361 322.182437)scale(0.1 -0.1)">
       <use xlink:href="#DejaVuSans-50"/>
       <use x="63.623047" xlink:href="#DejaVuSans-53"/>
      </g>
     </g>
    </g>
    <g id="xtick_7">
     <g id="line2d_13">
      <path clip-path="url(#p0346400274)" d="M 328.227433 307.584 
L 328.227433 41.472 
" style="fill:none;stroke:#b0b0b0;stroke-linecap:square;stroke-width:0.8;"/>
     </g>
     <g id="line2d_14">
      <g>
       <use style="stroke:#000000;stroke-width:0.8;" x="328.227433" xlink:href="#m738cdc3cb0" y="307.584"/>
      </g>
     </g>
     <g id="text_7">
      <!-- 30 -->
      <defs>
       <path d="M 40.578125 39.3125 
Q 47.65625 37.796875 51.625 33 
Q 55.609375 28.21875 55.609375 21.1875 
Q 55.609375 10.40625 48.1875 4.484375 
Q 40.765625 -1.421875 27.09375 -1.421875 
Q 22.515625 -1.421875 17.65625 -0.515625 
Q 12.796875 0.390625 7.625 2.203125 
L 7.625 11.71875 
Q 11.71875 9.328125 16.59375 8.109375 
Q 21.484375 6.890625 26.8125 6.890625 
Q 36.078125 6.890625 40.9375 10.546875 
Q 45.796875 14.203125 45.796875 21.1875 
Q 45.796875 27.640625 41.28125 31.265625 
Q 36.765625 34.90625 28.71875 34.90625 
L 20.21875 34.90625 
L 20.21875 43.015625 
L 29.109375 43.015625 
Q 36.375 43.015625 40.234375 45.921875 
Q 44.09375 48.828125 44.09375 54.296875 
Q 44.09375 59.90625 40.109375 62.90625 
Q 36.140625 65.921875 28.71875 65.921875 
Q 24.65625 65.921875 20.015625 65.03125 
Q 15.375 64.15625 9.8125 62.3125 
L 9.8125 71.09375 
Q 15.4375 72.65625 20.34375 73.4375 
Q 25.25 74.21875 29.59375 74.21875 
Q 40.828125 74.21875 47.359375 69.109375 
Q 53.90625 64.015625 53.90625 55.328125 
Q 53.90625 49.265625 50.4375 45.09375 
Q 46.96875 40.921875 40.578125 39.3125 
z
" id="DejaVuSans-51"/>
      </defs>
      <g transform="translate(321.864933 322.182437)scale(0.1 -0.1)">
       <use xlink:href="#DejaVuSans-51"/>
       <use x="63.623047" xlink:href="#DejaVuSans-48"/>
      </g>
     </g>
    </g>
    <g id="xtick_8">
     <g id="line2d_15">
      <path clip-path="url(#p0346400274)" d="M 373.332005 307.584 
L 373.332005 41.472 
" style="fill:none;stroke:#b0b0b0;stroke-linecap:square;stroke-width:0.8;"/>
     </g>
     <g id="line2d_16">
      <g>
       <use style="stroke:#000000;stroke-width:0.8;" x="373.332005" xlink:href="#m738cdc3cb0" y="307.584"/>
      </g>
     </g>
     <g id="text_8">
      <!-- 35 -->
      <g transform="translate(366.969505 322.182437)scale(0.1 -0.1)">
       <use xlink:href="#DejaVuSans-51"/>
       <use x="63.623047" xlink:href="#DejaVuSans-53"/>
      </g>
     </g>
    </g>
    <g id="text_9">
     <!-- Seconds -->
     <defs>
      <path d="M 53.515625 70.515625 
L 53.515625 60.890625 
Q 47.90625 63.578125 42.921875 64.890625 
Q 37.9375 66.21875 33.296875 66.21875 
Q 25.25 66.21875 20.875 63.09375 
Q 16.5 59.96875 16.5 54.203125 
Q 16.5 49.359375 19.40625 46.890625 
Q 22.3125 44.4375 30.421875 42.921875 
L 36.375 41.703125 
Q 47.40625 39.59375 52.65625 34.296875 
Q 57.90625 29 57.90625 20.125 
Q 57.90625 9.515625 50.796875 4.046875 
Q 43.703125 -1.421875 29.984375 -1.421875 
Q 24.8125 -1.421875 18.96875 -0.25 
Q 13.140625 0.921875 6.890625 3.21875 
L 6.890625 13.375 
Q 12.890625 10.015625 18.65625 8.296875 
Q 24.421875 6.59375 29.984375 6.59375 
Q 38.421875 6.59375 43.015625 9.90625 
Q 47.609375 13.234375 47.609375 19.390625 
Q 47.609375 24.75 44.3125 27.78125 
Q 41.015625 30.8125 33.5 32.328125 
L 27.484375 33.5 
Q 16.453125 35.6875 11.515625 40.375 
Q 6.59375 45.0625 6.59375 53.421875 
Q 6.59375 63.09375 13.40625 68.65625 
Q 20.21875 74.21875 32.171875 74.21875 
Q 37.3125 74.21875 42.625 73.28125 
Q 47.953125 72.359375 53.515625 70.515625 
z
" id="DejaVuSans-83"/>
      <path d="M 56.203125 29.59375 
L 56.203125 25.203125 
L 14.890625 25.203125 
Q 15.484375 15.921875 20.484375 11.0625 
Q 25.484375 6.203125 34.421875 6.203125 
Q 39.59375 6.203125 44.453125 7.46875 
Q 49.3125 8.734375 54.109375 11.28125 
L 54.109375 2.78125 
Q 49.265625 0.734375 44.1875 -0.34375 
Q 39.109375 -1.421875 33.890625 -1.421875 
Q 20.796875 -1.421875 13.15625 6.1875 
Q 5.515625 13.8125 5.515625 26.8125 
Q 5.515625 40.234375 12.765625 48.109375 
Q 20.015625 56 32.328125 56 
Q 43.359375 56 49.78125 48.890625 
Q 56.203125 41.796875 56.203125 29.59375 
z
M 47.21875 32.234375 
Q 47.125 39.59375 43.09375 43.984375 
Q 39.0625 48.390625 32.421875 48.390625 
Q 24.90625 48.390625 20.390625 44.140625 
Q 15.875 39.890625 15.1875 32.171875 
z
" id="DejaVuSans-101"/>
      <path d="M 48.78125 52.59375 
L 48.78125 44.1875 
Q 44.96875 46.296875 41.140625 47.34375 
Q 37.3125 48.390625 33.40625 48.390625 
Q 24.65625 48.390625 19.8125 42.84375 
Q 14.984375 37.3125 14.984375 27.296875 
Q 14.984375 17.28125 19.8125 11.734375 
Q 24.65625 6.203125 33.40625 6.203125 
Q 37.3125 6.203125 41.140625 7.25 
Q 44.96875 8.296875 48.78125 10.40625 
L 48.78125 2.09375 
Q 45.015625 0.34375 40.984375 -0.53125 
Q 36.96875 -1.421875 32.421875 -1.421875 
Q 20.0625 -1.421875 12.78125 6.34375 
Q 5.515625 14.109375 5.515625 27.296875 
Q 5.515625 40.671875 12.859375 48.328125 
Q 20.21875 56 33.015625 56 
Q 37.15625 56 41.109375 55.140625 
Q 45.0625 54.296875 48.78125 52.59375 
z
" id="DejaVuSans-99"/>
      <path d="M 30.609375 48.390625 
Q 23.390625 48.390625 19.1875 42.75 
Q 14.984375 37.109375 14.984375 27.296875 
Q 14.984375 17.484375 19.15625 11.84375 
Q 23.34375 6.203125 30.609375 6.203125 
Q 37.796875 6.203125 41.984375 11.859375 
Q 46.1875 17.53125 46.1875 27.296875 
Q 46.1875 37.015625 41.984375 42.703125 
Q 37.796875 48.390625 30.609375 48.390625 
z
M 30.609375 56 
Q 42.328125 56 49.015625 48.375 
Q 55.71875 40.765625 55.71875 27.296875 
Q 55.71875 13.875 49.015625 6.21875 
Q 42.328125 -1.421875 30.609375 -1.421875 
Q 18.84375 -1.421875 12.171875 6.21875 
Q 5.515625 13.875 5.515625 27.296875 
Q 5.515625 40.765625 12.171875 48.375 
Q 18.84375 56 30.609375 56 
z
" id="DejaVuSans-111"/>
      <path d="M 54.890625 33.015625 
L 54.890625 0 
L 45.90625 0 
L 45.90625 32.71875 
Q 45.90625 40.484375 42.875 44.328125 
Q 39.84375 48.1875 33.796875 48.1875 
Q 26.515625 48.1875 22.3125 43.546875 
Q 18.109375 38.921875 18.109375 30.90625 
L 18.109375 0 
L 9.078125 0 
L 9.078125 54.6875 
L 18.109375 54.6875 
L 18.109375 46.1875 
Q 21.34375 51.125 25.703125 53.5625 
Q 30.078125 56 35.796875 56 
Q 45.21875 56 50.046875 50.171875 
Q 54.890625 44.34375 54.890625 33.015625 
z
" id="DejaVuSans-110"/>
      <path d="M 45.40625 46.390625 
L 45.40625 75.984375 
L 54.390625 75.984375 
L 54.390625 0 
L 45.40625 0 
L 45.40625 8.203125 
Q 42.578125 3.328125 38.25 0.953125 
Q 33.9375 -1.421875 27.875 -1.421875 
Q 17.96875 -1.421875 11.734375 6.484375 
Q 5.515625 14.40625 5.515625 27.296875 
Q 5.515625 40.1875 11.734375 48.09375 
Q 17.96875 56 27.875 56 
Q 33.9375 56 38.25 53.625 
Q 42.578125 51.265625 45.40625 46.390625 
z
M 14.796875 27.296875 
Q 14.796875 17.390625 18.875 11.75 
Q 22.953125 6.109375 30.078125 6.109375 
Q 37.203125 6.109375 41.296875 11.75 
Q 45.40625 17.390625 45.40625 27.296875 
Q 45.40625 37.203125 41.296875 42.84375 
Q 37.203125 48.484375 30.078125 48.484375 
Q 22.953125 48.484375 18.875 42.84375 
Q 14.796875 37.203125 14.796875 27.296875 
z
" id="DejaVuSans-100"/>
      <path d="M 44.28125 53.078125 
L 44.28125 44.578125 
Q 40.484375 46.53125 36.375 47.5 
Q 32.28125 48.484375 27.875 48.484375 
Q 21.1875 48.484375 17.84375 46.4375 
Q 14.5 44.390625 14.5 40.28125 
Q 14.5 37.15625 16.890625 35.375 
Q 19.28125 33.59375 26.515625 31.984375 
L 29.59375 31.296875 
Q 39.15625 29.25 43.1875 25.515625 
Q 47.21875 21.78125 47.21875 15.09375 
Q 47.21875 7.46875 41.1875 3.015625 
Q 35.15625 -1.421875 24.609375 -1.421875 
Q 20.21875 -1.421875 15.453125 -0.5625 
Q 10.6875 0.296875 5.421875 2 
L 5.421875 11.28125 
Q 10.40625 8.6875 15.234375 7.390625 
Q 20.0625 6.109375 24.8125 6.109375 
Q 31.15625 6.109375 34.5625 8.28125 
Q 37.984375 10.453125 37.984375 14.40625 
Q 37.984375 18.0625 35.515625 20.015625 
Q 33.0625 21.96875 24.703125 23.78125 
L 21.578125 24.515625 
Q 13.234375 26.265625 9.515625 29.90625 
Q 5.8125 33.546875 5.8125 39.890625 
Q 5.8125 47.609375 11.28125 51.796875 
Q 16.75 56 26.8125 56 
Q 31.78125 56 36.171875 55.265625 
Q 40.578125 54.546875 44.28125 53.078125 
z
" id="DejaVuSans-115"/>
     </defs>
     <g transform="translate(215.152969 335.860562)scale(0.1 -0.1)">
      <use xlink:href="#DejaVuSans-83"/>
      <use x="63.476562" xlink:href="#DejaVuSans-101"/>
      <use x="125" xlink:href="#DejaVuSans-99"/>
      <use x="179.980469" xlink:href="#DejaVuSans-111"/>
      <use x="241.162109" xlink:href="#DejaVuSans-110"/>
      <use x="304.541016" xlink:href="#DejaVuSans-100"/>
      <use x="368.017578" xlink:href="#DejaVuSans-115"/>
     </g>
    </g>
   </g>
   <g id="matplotlib.axis_2">
    <g id="ytick_1">
     <g id="line2d_17">
      <path clip-path="url(#p0346400274)" d="M 57.6 259.189316 
L 414.72 259.189316 
" style="fill:none;stroke:#b0b0b0;stroke-linecap:square;stroke-width:0.8;"/>
     </g>
     <g id="line2d_18">
      <defs>
       <path d="M 0 0 
L -3.5 0 
" id="mcbb66f1a34" style="stroke:#000000;stroke-width:0.8;"/>
      </defs>
      <g>
       <use style="stroke:#000000;stroke-width:0.8;" x="57.6" xlink:href="#mcbb66f1a34" y="259.189316"/>
      </g>
     </g>
     <g id="text_10">
      <!-- −0.0065 -->
      <defs>
       <path d="M 10.59375 35.5 
L 73.1875 35.5 
L 73.1875 27.203125 
L 10.59375 27.203125 
z
" id="DejaVuSans-8722"/>
       <path d="M 10.6875 12.40625 
L 21 12.40625 
L 21 0 
L 10.6875 0 
z
" id="DejaVuSans-46"/>
       <path d="M 33.015625 40.375 
Q 26.375 40.375 22.484375 35.828125 
Q 18.609375 31.296875 18.609375 23.390625 
Q 18.609375 15.53125 22.484375 10.953125 
Q 26.375 6.390625 33.015625 6.390625 
Q 39.65625 6.390625 43.53125 10.953125 
Q 47.40625 15.53125 47.40625 23.390625 
Q 47.40625 31.296875 43.53125 35.828125 
Q 39.65625 40.375 33.015625 40.375 
z
M 52.59375 71.296875 
L 52.59375 62.3125 
Q 48.875 64.0625 45.09375 64.984375 
Q 41.3125 65.921875 37.59375 65.921875 
Q 27.828125 65.921875 22.671875 59.328125 
Q 17.53125 52.734375 16.796875 39.40625 
Q 19.671875 43.65625 24.015625 45.921875 
Q 28.375 48.1875 33.59375 48.1875 
Q 44.578125 48.1875 50.953125 41.515625 
Q 57.328125 34.859375 57.328125 23.390625 
Q 57.328125 12.15625 50.6875 5.359375 
Q 44.046875 -1.421875 33.015625 -1.421875 
Q 20.359375 -1.421875 13.671875 8.265625 
Q 6.984375 17.96875 6.984375 36.375 
Q 6.984375 53.65625 15.1875 63.9375 
Q 23.390625 74.21875 37.203125 74.21875 
Q 40.921875 74.21875 44.703125 73.484375 
Q 48.484375 72.75 52.59375 71.296875 
z
" id="DejaVuSans-54"/>
      </defs>
      <g transform="translate(7.229687 262.988535)scale(0.1 -0.1)">
       <use xlink:href="#DejaVuSans-8722"/>
       <use x="83.789062" xlink:href="#DejaVuSans-48"/>
       <use x="147.412109" xlink:href="#DejaVuSans-46"/>
       <use x="179.199219" xlink:href="#DejaVuSans-48"/>
       <use x="242.822266" xlink:href="#DejaVuSans-48"/>
       <use x="306.445312" xlink:href="#DejaVuSans-54"/>
       <use x="370.068359" xlink:href="#DejaVuSans-53"/>
      </g>
     </g>
    </g>
    <g id="ytick_2">
     <g id="line2d_19">
      <path clip-path="url(#p0346400274)" d="M 57.6 210.628191 
L 414.72 210.628191 
" style="fill:none;stroke:#b0b0b0;stroke-linecap:square;stroke-width:0.8;"/>
     </g>
     <g id="line2d_20">
      <g>
       <use style="stroke:#000000;stroke-width:0.8;" x="57.6" xlink:href="#mcbb66f1a34" y="210.628191"/>
      </g>
     </g>
     <g id="text_11">
      <!-- −0.0060 -->
      <g transform="translate(7.229687 214.42741)scale(0.1 -0.1)">
       <use xlink:href="#DejaVuSans-8722"/>
       <use x="83.789062" xlink:href="#DejaVuSans-48"/>
       <use x="147.412109" xlink:href="#DejaVuSans-46"/>
       <use x="179.199219" xlink:href="#DejaVuSans-48"/>
       <use x="242.822266" xlink:href="#DejaVuSans-48"/>
       <use x="306.445312" xlink:href="#DejaVuSans-54"/>
       <use x="370.068359" xlink:href="#DejaVuSans-48"/>
      </g>
     </g>
    </g>
    <g id="ytick_3">
     <g id="line2d_21">
      <path clip-path="url(#p0346400274)" d="M 57.6 162.067067 
L 414.72 162.067067 
" style="fill:none;stroke:#b0b0b0;stroke-linecap:square;stroke-width:0.8;"/>
     </g>
     <g id="line2d_22">
      <g>
       <use style="stroke:#000000;stroke-width:0.8;" x="57.6" xlink:href="#mcbb66f1a34" y="162.067067"/>
      </g>
     </g>
     <g id="text_12">
      <!-- −0.0055 -->
      <g transform="translate(7.229687 165.866286)scale(0.1 -0.1)">
       <use xlink:href="#DejaVuSans-8722"/>
       <use x="83.789062" xlink:href="#DejaVuSans-48"/>
       <use x="147.412109" xlink:href="#DejaVuSans-46"/>
       <use x="179.199219" xlink:href="#DejaVuSans-48"/>
       <use x="242.822266" xlink:href="#DejaVuSans-48"/>
       <use x="306.445312" xlink:href="#DejaVuSans-53"/>
       <use x="370.068359" xlink:href="#DejaVuSans-53"/>
      </g>
     </g>
    </g>
    <g id="ytick_4">
     <g id="line2d_23">
      <path clip-path="url(#p0346400274)" d="M 57.6 113.505942 
L 414.72 113.505942 
" style="fill:none;stroke:#b0b0b0;stroke-linecap:square;stroke-width:0.8;"/>
     </g>
     <g id="line2d_24">
      <g>
       <use style="stroke:#000000;stroke-width:0.8;" x="57.6" xlink:href="#mcbb66f1a34" y="113.505942"/>
      </g>
     </g>
     <g id="text_13">
      <!-- −0.0050 -->
      <g transform="translate(7.229687 117.305161)scale(0.1 -0.1)">
       <use xlink:href="#DejaVuSans-8722"/>
       <use x="83.789062" xlink:href="#DejaVuSans-48"/>
       <use x="147.412109" xlink:href="#DejaVuSans-46"/>
       <use x="179.199219" xlink:href="#DejaVuSans-48"/>
       <use x="242.822266" xlink:href="#DejaVuSans-48"/>
       <use x="306.445312" xlink:href="#DejaVuSans-53"/>
       <use x="370.068359" xlink:href="#DejaVuSans-48"/>
      </g>
     </g>
    </g>
    <g id="ytick_5">
     <g id="line2d_25">
      <path clip-path="url(#p0346400274)" d="M 57.6 64.944818 
L 414.72 64.944818 
" style="fill:none;stroke:#b0b0b0;stroke-linecap:square;stroke-width:0.8;"/>
     </g>
     <g id="line2d_26">
      <g>
       <use style="stroke:#000000;stroke-width:0.8;" x="57.6" xlink:href="#mcbb66f1a34" y="64.944818"/>
      </g>
     </g>
     <g id="text_14">
      <!-- −0.0045 -->
      <defs>
       <path d="M 37.796875 64.3125 
L 12.890625 25.390625 
L 37.796875 25.390625 
z
M 35.203125 72.90625 
L 47.609375 72.90625 
L 47.609375 25.390625 
L 58.015625 25.390625 
L 58.015625 17.1875 
L 47.609375 17.1875 
L 47.609375 0 
L 37.796875 0 
L 37.796875 17.1875 
L 4.890625 17.1875 
L 4.890625 26.703125 
z
" id="DejaVuSans-52"/>
      </defs>
      <g transform="translate(7.229687 68.744037)scale(0.1 -0.1)">
       <use xlink:href="#DejaVuSans-8722"/>
       <use x="83.789062" xlink:href="#DejaVuSans-48"/>
       <use x="147.412109" xlink:href="#DejaVuSans-46"/>
       <use x="179.199219" xlink:href="#DejaVuSans-48"/>
       <use x="242.822266" xlink:href="#DejaVuSans-48"/>
       <use x="306.445312" xlink:href="#DejaVuSans-52"/>
       <use x="370.068359" xlink:href="#DejaVuSans-53"/>
      </g>
     </g>
    </g>
    <g id="text_15">
     <!-- Entropy loss -->
     <defs>
      <path d="M 9.8125 72.90625 
L 55.90625 72.90625 
L 55.90625 64.59375 
L 19.671875 64.59375 
L 19.671875 43.015625 
L 54.390625 43.015625 
L 54.390625 34.71875 
L 19.671875 34.71875 
L 19.671875 8.296875 
L 56.78125 8.296875 
L 56.78125 0 
L 9.8125 0 
z
" id="DejaVuSans-69"/>
      <path d="M 18.3125 70.21875 
L 18.3125 54.6875 
L 36.8125 54.6875 
L 36.8125 47.703125 
L 18.3125 47.703125 
L 18.3125 18.015625 
Q 18.3125 11.328125 20.140625 9.421875 
Q 21.96875 7.515625 27.59375 7.515625 
L 36.8125 7.515625 
L 36.8125 0 
L 27.59375 0 
Q 17.1875 0 13.234375 3.875 
Q 9.28125 7.765625 9.28125 18.015625 
L 9.28125 47.703125 
L 2.6875 47.703125 
L 2.6875 54.6875 
L 9.28125 54.6875 
L 9.28125 70.21875 
z
" id="DejaVuSans-116"/>
      <path d="M 41.109375 46.296875 
Q 39.59375 47.171875 37.8125 47.578125 
Q 36.03125 48 33.890625 48 
Q 26.265625 48 22.1875 43.046875 
Q 18.109375 38.09375 18.109375 28.8125 
L 18.109375 0 
L 9.078125 0 
L 9.078125 54.6875 
L 18.109375 54.6875 
L 18.109375 46.1875 
Q 20.953125 51.171875 25.484375 53.578125 
Q 30.03125 56 36.53125 56 
Q 37.453125 56 38.578125 55.875 
Q 39.703125 55.765625 41.0625 55.515625 
z
" id="DejaVuSans-114"/>
      <path d="M 18.109375 8.203125 
L 18.109375 -20.796875 
L 9.078125 -20.796875 
L 9.078125 54.6875 
L 18.109375 54.6875 
L 18.109375 46.390625 
Q 20.953125 51.265625 25.265625 53.625 
Q 29.59375 56 35.59375 56 
Q 45.5625 56 51.78125 48.09375 
Q 58.015625 40.1875 58.015625 27.296875 
Q 58.015625 14.40625 51.78125 6.484375 
Q 45.5625 -1.421875 35.59375 -1.421875 
Q 29.59375 -1.421875 25.265625 0.953125 
Q 20.953125 3.328125 18.109375 8.203125 
z
M 48.6875 27.296875 
Q 48.6875 37.203125 44.609375 42.84375 
Q 40.53125 48.484375 33.40625 48.484375 
Q 26.265625 48.484375 22.1875 42.84375 
Q 18.109375 37.203125 18.109375 27.296875 
Q 18.109375 17.390625 22.1875 11.75 
Q 26.265625 6.109375 33.40625 6.109375 
Q 40.53125 6.109375 44.609375 11.75 
Q 48.6875 17.390625 48.6875 27.296875 
z
" id="DejaVuSans-112"/>
      <path d="M 32.171875 -5.078125 
Q 28.375 -14.84375 24.75 -17.8125 
Q 21.140625 -20.796875 15.09375 -20.796875 
L 7.90625 -20.796875 
L 7.90625 -13.28125 
L 13.1875 -13.28125 
Q 16.890625 -13.28125 18.9375 -11.515625 
Q 21 -9.765625 23.484375 -3.21875 
L 25.09375 0.875 
L 2.984375 54.6875 
L 12.5 54.6875 
L 29.59375 11.921875 
L 46.6875 54.6875 
L 56.203125 54.6875 
z
" id="DejaVuSans-121"/>
      <path id="DejaVuSans-32"/>
      <path d="M 9.421875 75.984375 
L 18.40625 75.984375 
L 18.40625 0 
L 9.421875 0 
z
" id="DejaVuSans-108"/>
     </defs>
     <g transform="translate(1.15 205.310031)rotate(-90)scale(0.1 -0.1)">
      <use xlink:href="#DejaVuSans-69"/>
      <use x="63.183594" xlink:href="#DejaVuSans-110"/>
      <use x="126.5625" xlink:href="#DejaVuSans-116"/>
      <use x="165.771484" xlink:href="#DejaVuSans-114"/>
      <use x="206.853516" xlink:href="#DejaVuSans-111"/>
      <use x="268.035156" xlink:href="#DejaVuSans-112"/>
      <use x="331.511719" xlink:href="#DejaVuSans-121"/>
      <use x="390.691406" xlink:href="#DejaVuSans-32"/>
      <use x="422.478516" xlink:href="#DejaVuSans-108"/>
      <use x="450.261719" xlink:href="#DejaVuSans-111"/>
      <use x="511.443359" xlink:href="#DejaVuSans-115"/>
      <use x="563.542969" xlink:href="#DejaVuSans-115"/>
     </g>
    </g>
   </g>
   <g id="line2d_27">
    <path clip-path="url(#p0346400274)" d="M 57.6 295.488 
L 58.329574 292.28907 
L 58.4182 290.969735 
L 58.753217 290.431409 
L 59.198462 288.416497 
L 59.290765 289.191943 
L 59.894353 289.236898 
L 61.714269 260.320388 
L 61.809016 262.886379 
L 62.090937 258.275762 
L 62.577194 247.773907 
L 64.101143 234.580376 
L 64.729649 237.670267 
L 65.270411 253.187739 
L 66.314391 235.425199 
L 66.374851 236.530072 
L 66.604964 235.088943 
L 67.247958 235.809666 
L 67.484586 234.198487 
L 68.094387 205.816369 
L 69.72303 212.346425 
L 69.767207 214.147735 
L 70.369446 210.25481 
L 70.46201 211.02302 
L 70.914857 220.894424 
L 71.034566 227.816772 
L 71.343189 227.690953 
L 71.978164 207.238593 
L 72.655402 219.332044 
L 73.355752 201.055149 
L 74.178452 199.639708 
L 74.656379 215.958948 
L 74.861529 209.45553 
L 74.893162 202.957402 
L 75.880578 210.087383 
L 76.299519 220.948062 
L 76.512327 217.463258 
L 76.54367 219.34023 
L 76.605977 209.831946 
L 76.698922 212.533435 
L 76.760991 212.991711 
L 77.129563 181.242783 
L 77.427135 189.729862 
L 78.779879 211.700416 
L 79.025358 184.414804 
L 79.260792 188.917873 
L 79.911176 182.651394 
L 80.293541 194.367117 
L 80.409899 199.664809 
L 80.470535 197.232144 
L 80.890659 189.080461 
L 81.097194 204.561707 
L 81.157165 194.048228 
L 81.574356 199.026262 
L 81.603662 198.365599 
L 82.283122 192.038789 
L 82.400617 188.295879 
L 83.805406 203.795215 
L 84.548971 199.944984 
L 84.60931 200.263421 
L 84.845719 193.00839 
L 85.602287 181.071964 
L 85.689427 171.27758 
L 86.191024 166.37435 
L 86.483816 160.85998 
L 86.840089 178.646444 
L 87.380397 176.932919 
L 87.47026 170.703887 
L 87.737908 175.903981 
L 89.205754 187.151795 
L 89.284648 192.089487 
L 89.652219 184.717547 
L 89.800844 198.905915 
L 90.09995 181.511878 
L 90.283721 189.395189 
L 90.43565 178.990389 
L 90.736502 188.917692 
L 92.002973 186.665705 
L 92.151347 180.933527 
L 92.180789 181.227496 
L 93.098522 173.512381 
L 93.486188 176.891492 
L 94.636128 171.861358 
L 95.046246 182.105244 
L 95.133565 181.194074 
L 95.741959 182.5855 
L 96.145974 159.406957 
L 96.854675 162.768023 
L 96.941024 160.468232 
L 97.36969 178.131591 
L 97.489519 172.977673 
L 98.930856 174.574696 
L 99.1395 169.103517 
L 99.794132 156.955885 
L 100.151722 164.062257 
L 100.433329 159.267615 
L 101.361855 158.078577 
L 101.692767 142.339497 
L 101.933856 145.65 
L 102.111422 144.378107 
L 103.181728 173.263049 
L 103.92386 178.151128 
L 104.411729 148.986554 
L 104.440815 140.345208 
L 104.891353 162.785932 
L 105.513669 154.169778 
L 106.554918 152.171238 
L 106.790813 145.35196 
L 107.392763 169.455738 
L 107.809237 163.103465 
L 108.192583 150.293813 
L 108.407928 156.123544 
L 108.61212 152.707348 
L 108.875069 167.347072 
L 109.455173 140.567901 
L 109.609453 137.435408 
L 109.69667 147.82646 
L 109.725094 143.33732 
L 110.581615 165.498185 
L 110.762289 175.757267 
L 111.00452 182.782369 
L 111.271007 173.454672 
L 112.130323 191.093247 
L 112.686329 162.371752 
L 112.954907 168.566819 
L 113.345251 171.502625 
L 113.433579 160.908508 
L 113.678493 182.854459 
L 114.88135 175.589976 
L 115.392874 176.421005 
L 115.691186 164.690719 
L 115.779735 156.21775 
L 116.78224 172.078714 
L 116.841527 177.424798 
L 117.378138 161.047261 
L 117.741172 171.296755 
L 118.300689 169.793757 
L 118.480346 163.575987 
L 119.211311 169.690461 
L 119.609218 171.997172 
L 119.853178 161.696075 
L 119.976711 160.769935 
L 120.095964 165.967089 
L 120.3514 167.725479 
L 120.801041 157.348764 
L 121.83128 156.841915 
L 121.952838 160.709423 
L 122.166058 152.089152 
L 122.437238 145.799879 
L 123.112763 140.275876 
L 123.234085 144.674971 
L 123.475417 149.828934 
L 123.719605 146.555743 
L 123.841794 149.214448 
L 124.447551 149.788728 
L 124.597396 148.626057 
L 124.628679 150.79026 
L 124.689049 139.470355 
L 124.779892 141.504533 
L 125.182619 145.964005 
L 125.27412 145.08793 
L 125.424537 147.282164 
L 125.989272 142.932185 
L 126.308026 146.763014 
L 126.490427 140.282887 
L 126.708712 148.293826 
L 126.830827 148.352348 
L 127.309546 144.993001 
L 128.086153 144.98676 
L 128.359778 149.229056 
L 129.537396 136.588595 
L 129.568588 137.046283 
L 129.628351 141.397754 
L 130.969391 127.429275 
L 131.2143 122.769271 
L 131.488056 112.800088 
L 131.740002 121.798991 
L 132.508133 113.752052 
L 132.537065 117.657685 
L 132.902224 131.010366 
L 133.055084 128.113455 
L 133.482465 128.69651 
L 133.661758 132.808735 
L 133.947352 123.534677 
L 134.520771 113.013239 
L 134.582881 105.426837 
L 135.344867 145.22379 
L 136.078278 144.115208 
L 136.274894 136.385258 
L 136.818294 145.599754 
L 137.035035 156.421358 
L 137.963057 158.741681 
L 138.678664 141.229649 
L 138.888072 147.088641 
L 139.036547 155.297671 
L 139.424588 152.22465 
L 139.630979 146.465336 
L 140.083461 138.986074 
L 140.457937 141.320101 
L 140.548101 144.463087 
L 140.972776 138.212211 
L 142.023591 142.791396 
L 142.053928 133.804116 
L 142.080085 138.026332 
L 143.082997 132.382073 
L 144.51668 150.411446 
L 144.786017 166.554078 
L 145.056034 167.373891 
L 145.237979 158.299778 
L 145.869799 151.737203 
L 145.956019 153.819592 
L 147.359243 133.357554 
L 147.596869 137.877493 
L 148.291285 140.669208 
L 148.671437 156.625915 
L 149.146917 150.414974 
L 149.2392 150.825039 
L 149.565469 156.915 
L 150.279745 149.224488 
L 150.453724 157.64902 
L 151.280061 151.678862 
L 151.95347 155.293827 
L 152.406326 163.70574 
L 152.939079 161.804255 
L 153.115408 132.236264 
L 153.585718 160.578222 
L 154.121972 156.058735 
L 154.152573 157.318191 
L 155.168957 146.999184 
L 155.464154 150.1542 
L 155.583624 145.776407 
L 155.641991 147.69544 
L 155.670751 140.164982 
L 156.415028 150.832998 
L 157.407399 162.351129 
L 157.649341 149.501271 
L 158.070125 157.988622 
L 158.101281 161.674276 
L 158.618985 161.270497 
L 159.549272 147.556369 
L 160.364067 186.62057 
L 160.515999 182.562525 
L 161.172959 196.814436 
L 161.415255 183.516207 
L 161.746073 156.71492 
L 161.804616 162.745093 
L 162.015321 155.213234 
L 162.191429 156.252212 
L 162.682857 171.488152 
L 163.212478 167.235364 
L 163.579405 181.156944 
L 163.670391 176.544653 
L 164.58584 193.874967 
L 165.227089 175.315951 
L 165.73382 169.849838 
L 166.487319 163.304042 
L 167.105529 185.368034 
L 167.223513 173.676913 
L 167.304321 179.504971 
L 167.406007 172.98301 
L 167.914021 164.905859 
L 168.249205 148.265831 
L 168.659905 160.632176 
L 170.341383 166.995349 
L 170.46055 174.15649 
L 170.783361 163.313585 
L 171.698715 164.318508 
L 171.940204 166.43735 
L 172.327095 157.452512 
L 172.475858 147.246571 
L 172.956996 179.986583 
L 173.101308 168.882316 
L 173.160359 169.944089 
L 173.572063 155.382922 
L 174.460967 147.728048 
L 174.614128 142.359351 
L 174.830131 142.580823 
L 176.467551 144.006349 
L 176.675645 141.164704 
L 176.799152 142.049281 
L 177.131687 142.093919 
L 177.309042 136.686328 
L 177.485746 146.790918 
L 178.118721 137.023579 
L 178.606473 127.720169 
L 178.878974 124.659676 
L 178.907568 122.804095 
L 179.25165 137.192453 
L 179.589301 138.689753 
L 179.678261 128.549344 
L 181.404836 143.289561 
L 181.552864 145.741492 
L 181.582374 145.098875 
L 181.877684 122.128146 
L 184.122522 120.006908 
L 184.453022 133.809272 
L 184.483173 131.794903 
L 184.696276 135.576978 
L 184.72572 134.509643 
L 185.485736 125.603363 
L 185.676044 120.906364 
L 185.75172 124.87364 
L 186.009701 113.713157 
L 186.609675 111.019628 
L 186.706201 114.954749 
L 186.736165 114.940322 
L 187.282755 112.255024 
L 187.804498 117.102218 
L 188.010777 108.429396 
L 188.130785 114.181564 
L 188.401132 105.349048 
L 188.462852 108.083959 
L 188.863566 109.456932 
L 189.202639 120.585078 
L 189.996701 131.643305 
L 190.276572 129.603564 
L 190.711074 128.175686 
L 190.939869 112.413089 
L 191.122825 122.398553 
L 191.227902 113.51466 
L 191.851208 121.741599 
L 191.942621 120.187586 
L 193.356015 112.138657 
L 193.874159 122.047689 
L 194.393457 112.90836 
L 194.424092 108.144064 
L 195.026303 129.942669 
L 195.38823 109.35255 
L 195.719919 116.308727 
L 196.482337 112.832877 
L 196.57488 112.962857 
L 196.903268 106.62786 
L 196.998122 106.989171 
L 197.059486 109.809017 
L 197.117969 109.104169 
L 198.002817 109.15238 
L 198.849457 111.541899 
L 199.093333 105.549987 
L 199.212231 108.638295 
L 199.454851 107.654085 
L 199.794681 102.356484 
L 200.607605 106.765302 
L 200.791314 94.644579 
L 201.319264 94.104535 
L 201.891338 89.873998 
L 201.921746 87.119097 
L 202.165826 81.745471 
L 202.348152 87.914714 
L 202.439312 86.962841 
L 202.840978 103.918185 
L 203.27917 90.973127 
L 203.462225 100.970395 
L 203.611984 96.796888 
L 204.690084 85.800169 
L 205.07885 96.883315 
L 205.645582 95.359332 
L 206.337118 98.578027 
L 206.930503 110.405956 
L 207.655414 118.089594 
L 208.139005 108.925345 
L 208.659371 115.944612 
L 208.74756 115.870215 
L 208.813941 107.037382 
L 208.844871 111.403688 
L 210.344385 92.309512 
L 210.63704 116.81345 
L 211.040167 108.153743 
L 211.131735 111.784989 
L 211.338306 109.534721 
L 211.874962 108.264411 
L 212.702082 111.635788 
L 213.297643 132.906333 
L 213.358129 128.040867 
L 213.539213 130.646115 
L 214.322617 118.624709 
L 214.472772 123.246949 
L 214.981842 123.572667 
L 215.53037 123.17911 
L 215.775986 118.192981 
L 216.711263 125.792137 
L 217.517912 115.413793 
L 218.205858 123.85836 
L 219.050218 115.99427 
L 219.389192 106.580916 
L 219.860119 129.426504 
L 220.27928 141.82989 
L 220.308584 137.574749 
L 220.90379 135.589868 
L 222.089883 141.616061 
L 222.75415 137.199011 
L 222.906059 132.381801 
L 224.021468 134.244935 
L 224.230059 131.791646 
L 224.350727 134.099171 
L 224.532008 122.221222 
L 224.708531 126.375643 
L 224.943617 136.454997 
L 225.000149 136.365992 
L 225.723106 136.273686 
L 225.962446 137.528302 
L 226.685749 136.371103 
L 227.039819 136.235696 
L 227.098833 134.499196 
L 227.274967 134.189307 
L 227.635091 143.148456 
L 227.783151 152.280459 
L 228.079628 161.978059 
L 228.378852 154.603722 
L 229.23325 145.146001 
L 229.29563 146.418979 
L 229.422802 143.869811 
L 229.893774 147.223189 
L 231.133428 154.451808 
L 231.219585 160.021896 
L 231.753896 179.562272 
L 232.292828 161.201935 
L 232.799593 162.664093 
L 233.040963 148.531082 
L 233.718251 138.268924 
L 233.747692 136.178123 
L 234.24757 147.36936 
L 234.335592 156.789634 
L 234.541112 149.737487 
L 235.370659 140.155846 
L 235.445727 146.92524 
L 235.664624 144.153379 
L 236.478153 136.330671 
L 236.752968 140.008681 
L 237.051669 151.129953 
L 237.528674 179.381232 
L 238.095697 177.802435 
L 238.242344 182.015968 
L 238.417118 176.704482 
L 239.224382 179.012007 
L 239.822401 176.060644 
L 239.967605 172.03385 
L 240.415545 182.198319 
L 240.563125 181.218677 
L 240.652117 174.001953 
L 241.307555 162.44226 
L 241.850702 165.695733 
L 241.970378 161.035276 
L 242.117161 161.611818 
L 242.60736 150.389647 
L 242.667506 151.949494 
L 243.164773 161.465105 
L 243.2259 168.088056 
L 243.468716 170.306847 
L 243.530887 168.108815 
L 243.891029 168.808688 
L 244.009647 170.139782 
L 244.697424 155.079003 
L 244.962773 153.145498 
L 245.052141 154.540225 
L 245.530439 170.628178 
L 245.855691 167.727695 
L 245.912036 173.440019 
L 246.091654 174.003355 
L 246.473826 165.707401 
L 247.010613 163.870001 
L 248.186688 155.72465 
L 248.86994 148.989855 
L 249.030982 156.438453 
L 249.239697 159.301264 
L 249.747137 178.93657 
L 250.096452 182.607072 
L 250.464898 182.437791 
L 250.67796 185.692892 
L 250.861189 184.275779 
L 251.598734 175.031253 
L 253.282841 169.691139 
L 253.403324 166.502973 
L 253.891913 167.163545 
L 254.367053 166.006391 
L 254.650084 155.203148 
L 254.783071 158.797762 
L 255.42785 147.458907 
L 255.458046 148.321368 
L 255.490581 149.621708 
L 255.734358 152.918825 
L 256.344738 166.570857 
L 257.064775 177.630622 
L 257.277625 159.25848 
L 257.368942 160.588488 
L 257.671221 169.086512 
L 257.946417 161.89412 
L 258.036396 166.552993 
L 258.492347 160.09566 
L 259.582794 164.066373 
L 259.916791 173.667325 
L 260.037698 171.046067 
L 260.222088 173.657828 
L 260.312592 176.699869 
L 260.528534 167.572615 
L 260.782327 144.350881 
L 260.872848 151.671444 
L 261.118142 159.956409 
L 261.224032 174.555927 
L 262.053552 179.243564 
L 262.209393 173.742672 
L 262.542065 174.278103 
L 262.882306 161.919491 
L 263.242699 173.227049 
L 264.482525 145.217141 
L 264.936753 148.500283 
L 265.392687 147.563787 
L 265.640518 135.373823 
L 266.045015 160.438699 
L 266.091282 159.150887 
L 266.872593 154.610868 
L 267.294947 116.63345 
L 268.077346 153.059749 
L 268.959221 142.492361 
L 269.058887 145.812588 
L 269.786844 143.524917 
L 269.848747 141.548357 
L 270.407154 148.345293 
L 270.533543 140.497665 
L 271.505208 126.831432 
L 271.890206 143.301094 
L 272.067256 143.912053 
L 272.860484 164.653679 
L 273.298423 172.375397 
L 273.531287 164.012961 
L 273.560679 157.649517 
L 274.206725 147.194697 
L 274.323752 141.740387 
L 275.089069 148.750609 
L 275.119294 145.35784 
L 275.326874 146.912531 
L 275.740191 146.661346 
L 276.190492 158.783335 
L 276.468137 151.86759 
L 276.527113 152.484835 
L 276.55658 154.433039 
L 277.127861 150.921641 
L 277.291781 143.723189 
L 277.558352 145.08992 
L 278.668633 156.7009 
L 279.15497 159.034792 
L 279.488163 148.992795 
L 280.026014 148.457363 
L 280.351266 141.279895 
L 280.528908 147.553701 
L 280.735632 143.763621 
L 280.886787 135.118476 
L 280.91848 138.458693 
L 281.616903 148.231097 
L 281.737429 152.336765 
L 282.059776 151.954198 
L 282.174622 146.557913 
L 283.062593 141.515885 
L 283.41509 153.065493 
L 283.62774 143.947103 
L 283.930151 145.967578 
L 283.959708 147.953319 
L 284.017607 147.946535 
L 284.165929 152.84592 
L 284.466381 158.786274 
L 285.21734 144.849092 
L 285.460848 142.638125 
L 286.030736 158.540968 
L 286.530386 143.323164 
L 287.97526 131.777084 
L 288.368863 122.596508 
L 288.456244 127.774441 
L 289.377289 125.475961 
L 289.406569 119.806783 
L 289.910181 121.296484 
L 290.215838 136.726127 
L 290.367554 131.784139 
L 290.714987 140.81072 
L 290.893116 138.399989 
L 291.099107 137.650548 
L 291.626571 129.858096 
L 291.857022 136.619394 
L 291.926074 129.501308 
L 292.346987 131.827511 
L 292.466836 124.831173 
L 292.893618 135.302953 
L 293.491403 129.380735 
L 293.726936 132.402063 
L 294.020747 127.127527 
L 294.373479 129.295936 
L 295.057941 102.715217 
L 295.208408 122.517724 
L 295.709295 133.569212 
L 297.022904 131.625983 
L 297.178451 146.691602 
L 298.004865 131.986752 
L 299.279105 128.749515 
L 299.517133 138.473934 
L 299.751937 135.203139 
L 299.781499 130.172191 
L 300.806798 134.839703 
L 301.13485 132.192168 
L 301.777315 113.180711 
L 302.015509 119.708597 
L 303.817769 92.629125 
L 304.028369 93.775877 
L 304.535476 95.265217 
L 304.743456 105.943997 
L 305.436493 93.761902 
L 305.557337 94.07862 
L 305.980438 84.650793 
L 306.488444 86.878449 
L 307.06114 108.412029 
L 307.660663 108.458973 
L 307.929369 105.74957 
L 308.40529 103.598799 
L 308.730946 86.824404 
L 309.234999 113.543469 
L 309.826231 108.948048 
L 309.885393 112.087325 
L 309.975551 104.929033 
L 310.034318 105.035586 
L 310.214278 112.215632 
L 310.580175 107.596919 
L 310.819621 106.1486 
L 310.909184 108.869988 
L 311.057356 109.61753 
L 311.264693 106.945845 
L 311.3222 111.546331 
L 312.855462 107.258809 
L 313.184092 107.404256 
L 313.429182 93.339717 
L 313.930625 112.937349 
L 314.058167 103.025106 
L 314.089702 104.821079 
L 314.150787 108.114577 
L 314.573649 81.721094 
L 314.689084 92.909753 
L 314.988932 100.995903 
L 315.138499 100.496924 
L 315.292683 99.469613 
L 315.7942 95.077936 
L 317.151145 87.740096 
L 317.360417 97.575591 
L 317.514626 90.492781 
L 317.944401 99.846889 
L 318.217736 98.771865 
L 318.673201 88.433819 
L 319.04573 96.820994 
L 319.30563 94.592479 
L 319.573975 105.739801 
L 320.740479 78.284772 
L 320.831183 85.320275 
L 320.98268 86.852851 
L 321.139799 90.531675 
L 322.132389 88.167618 
L 322.570166 84.124995 
L 323.566557 81.722315 
L 323.686078 81.088879 
L 324.378229 101.611927 
L 324.82967 80.010237 
L 325.009396 85.064929 
L 325.674127 75.855408 
L 326.004165 86.467932 
L 326.424028 86.368796 
L 326.726867 83.001353 
L 326.9421 65.194764 
L 327.453745 53.568 
L 327.511505 58.132894 
L 327.71998 61.761924 
L 328.385744 64.623106 
L 328.445066 59.138405 
L 328.932467 83.704031 
L 329.174003 84.365914 
L 329.295949 75.028902 
L 329.959646 76.804884 
L 330.519984 71.806363 
L 330.710295 68.337252 
L 331.015332 82.591198 
L 331.10683 80.708211 
L 331.562334 80.173503 
L 331.593089 79.656478 
L 332.668294 98.069821 
L 332.959338 96.564381 
L 333.306763 95.639282 
L 333.947392 111.143096 
L 334.517785 92.316296 
L 335.477423 93.617134 
L 335.696443 88.336176 
L 337.341097 108.550194 
L 337.644774 107.035347 
L 337.858407 110.107735 
L 338.680134 111.216588 
L 339.324773 99.118976 
L 339.626062 82.460133 
L 340.104211 95.061926 
L 340.147389 88.547155 
L 340.222526 92.566622 
L 340.372121 95.522734 
L 341.335653 92.628401 
L 341.491017 89.528697 
L 341.8319 85.643008 
L 341.988275 89.161371 
L 343.285549 95.06871 
L 343.37632 89.72941 
L 343.974834 85.393994 
L 344.180457 74.945866 
L 344.956313 86.121998 
L 345.167609 92.178357 
L 345.37434 91.697332 
L 347.025856 92.588421 
L 347.05784 95.220805 
L 347.329067 92.741828 
L 347.630048 107.502894 
L 347.845044 98.838348 
L 347.937924 103.317176 
L 348.508982 95.977256 
L 348.59602 90.892308 
L 348.923604 93.063883 
L 349.558747 101.926339 
L 349.620312 101.211224 
L 349.740449 98.855127 
L 350.615206 87.191323 
L 350.646162 87.377654 
L 350.765578 94.560776 
L 351.32344 105.562786 
L 351.632547 95.144735 
L 351.869818 91.911523 
L 352.231945 94.446851 
L 353.440735 115.862527 
L 353.716229 117.463258 
L 353.74546 114.427322 
L 353.931218 110.050524 
L 353.992562 113.408198 
L 354.266575 112.649078 
L 355.31032 99.452292 
L 356.151811 97.325355 
L 356.240085 94.19752 
L 356.587831 109.863424 
L 357.430271 88.846054 
L 358.146704 99.967733 
L 358.447244 93.716586 
L 360.092216 75.065218 
L 360.475953 90.532535 
L 360.805724 91.32987 
L 361.347051 98.917177 
L 361.493275 97.630586 
L 362.41721 98.239781 
L 362.557216 108.037286 
L 362.594202 103.630005 
L 362.657807 105.340093 
L 363.02285 108.280964 
L 363.082395 104.192662 
L 363.75785 119.418607 
L 364.314274 108.107748 
L 364.344318 108.17319 
L 364.796785 109.800243 
L 364.981681 117.059842 
L 365.280784 113.452248 
L 365.995834 112.900942 
L 366.521188 115.042985 
L 366.768716 113.510771 
L 367.192255 96.267653 
L 368.163336 101.33053 
L 368.463226 88.145367 
L 368.71146 105.897097 
L 369.200178 119.488436 
L 369.323125 119.12007 
L 369.473491 110.084534 
L 369.535353 112.569571 
L 369.596531 112.480114 
L 369.686981 111.53412 
L 370.735983 108.16817 
L 370.937883 107.007036 
L 371.429285 116.283084 
L 372.02913 114.951357 
L 372.862724 118.936724 
L 372.952107 118.520553 
L 373.010782 123.607175 
L 373.190987 123.827833 
L 373.327805 127.723019 
L 373.485741 125.40161 
L 373.677287 126.706608 
L 373.835366 107.659376 
L 374.08772 117.392796 
L 374.728176 126.053543 
L 375.142271 125.493011 
L 375.47088 126.12785 
L 375.884371 118.817643 
L 375.913908 120.331993 
L 376.753581 117.73977 
L 377.020952 122.431071 
L 377.258253 122.777729 
L 377.705206 114.952352 
L 377.727539 118.502508 
L 378.101424 126.47098 
L 379.026878 126.603311 
L 379.298729 124.242013 
L 379.692586 107.665301 
L 379.963316 120.845716 
L 380.23252 127.384366 
L 380.474249 120.764852 
L 380.67842 108.06926 
L 380.707376 110.410659 
L 381.221503 89.079059 
L 382.028027 110.297368 
L 382.363901 100.725722 
L 382.487086 101.382812 
L 383.633072 106.417559 
L 383.938313 119.478215 
L 384.122515 114.453282 
L 384.831775 129.75991 
L 385.722729 113.46256 
L 385.752911 114.071936 
L 386.02363 122.18296 
L 386.17577 117.745243 
L 386.512066 128.253204 
L 386.789496 124.424184 
L 387.220213 124.179511 
L 387.555356 121.068228 
L 388.381929 107.666794 
L 388.489981 110.318398 
L 388.837648 114.955518 
L 389.61395 119.490743 
L 389.847148 117.88974 
L 390.158282 124.348747 
L 390.592478 123.586235 
L 390.779762 128.280746 
L 390.840677 127.654772 
L 391.881535 122.276217 
L 392.162397 134.649301 
L 392.253968 134.636231 
L 392.313772 135.352566 
L 392.345026 134.570743 
L 392.648175 130.869035 
L 392.79919 122.262242 
L 393.220656 121.28459 
L 393.504424 106.912242 
L 393.983847 123.74136 
L 394.737901 120.826269 
L 395.334064 119.10302 
L 395.607756 115.685873 
L 396.161842 95.197513 
L 396.714641 103.158659 
L 396.987761 120.355691 
L 397.692935 117.727378 
L 397.755069 116.236275 
L 397.785594 112.253486 
L 399.376337 111.591331 
L 399.635851 109.786404 
L 399.727183 112.542119 
L 400.003739 105.679605 
L 400.521493 101.499405 
L 401.349868 98.402685 
L 401.795782 106.667569 
L 402.298209 98.744956 
L 402.919938 105.509193 
L 403.129931 95.845151 
L 403.500979 105.828716 
L 404.723887 114.96289 
L 404.782856 111.643703 
L 405.804597 112.682546 
L 405.89595 108.187481 
L 406.323297 99.44804 
L 406.41174 109.273631 
L 406.746429 106.875744 
L 406.9216 96.517165 
L 407.759611 119.95336 
L 407.881199 107.7861 
L 408.065063 117.444761 
L 408.125 117.439786 
L 408.628057 114.159494 
L 408.867079 120.554912 
L 409.132691 124.605359 
L 409.58514 115.964647 
L 410.059476 123.169251 
L 411.243838 125.557956 
L 411.613206 122.757603 
L 411.672638 124.303747 
L 411.970365 124.381083 
L 412.295391 116.045647 
L 412.507601 118.610598 
L 412.775314 101.566068 
L 413.282159 97.92858 
L 414.72 128.466083 
L 414.72 128.466083 
" style="fill:none;stroke:#000000;stroke-linecap:square;stroke-width:0.8;"/>
   </g>
   <g id="patch_3">
    <path d="M 57.6 307.584 
L 57.6 41.472 
" style="fill:none;stroke:#000000;stroke-linecap:square;stroke-linejoin:miter;stroke-width:0.8;"/>
   </g>
   <g id="patch_4">
    <path d="M 414.72 307.584 
L 414.72 41.472 
" style="fill:none;stroke:#000000;stroke-linecap:square;stroke-linejoin:miter;stroke-width:0.8;"/>
   </g>
   <g id="patch_5">
    <path d="M 57.6 307.584 
L 414.72 307.584 
" style="fill:none;stroke:#000000;stroke-linecap:square;stroke-linejoin:miter;stroke-width:0.8;"/>
   </g>
   <g id="patch_6">
    <path d="M 57.6 41.472 
L 414.72 41.472 
" style="fill:none;stroke:#000000;stroke-linecap:square;stroke-linejoin:miter;stroke-width:0.8;"/>
   </g>
  </g>
  <g id="axes_2">
   <g id="matplotlib.axis_3">
    <g id="xtick_9">
     <g id="line2d_28">
      <defs>
       <path d="M 0 0 
L 0 -3.5 
" id="m97e4075d0b" style="stroke:#000000;stroke-width:0.8;"/>
      </defs>
      <g>
       <use style="stroke:#000000;stroke-width:0.8;" x="57.6" xlink:href="#m97e4075d0b" y="41.472"/>
      </g>
     </g>
    </g>
    <g id="xtick_10">
     <g id="line2d_29">
      <g>
       <use style="stroke:#000000;stroke-width:0.8;" x="133.564392" xlink:href="#m97e4075d0b" y="41.472"/>
      </g>
     </g>
     <g id="text_16">
      <!-- 20.0K -->
      <defs>
       <path d="M 9.8125 72.90625 
L 19.671875 72.90625 
L 19.671875 42.09375 
L 52.390625 72.90625 
L 65.09375 72.90625 
L 28.90625 38.921875 
L 67.671875 0 
L 54.6875 0 
L 19.671875 35.109375 
L 19.671875 0 
L 9.8125 0 
z
" id="DejaVuSans-75"/>
      </defs>
      <g transform="translate(119.152673 32.392313)scale(0.1 -0.1)">
       <use xlink:href="#DejaVuSans-50"/>
       <use x="63.623047" xlink:href="#DejaVuSans-48"/>
       <use x="127.246094" xlink:href="#DejaVuSans-46"/>
       <use x="159.033203" xlink:href="#DejaVuSans-48"/>
       <use x="222.65625" xlink:href="#DejaVuSans-75"/>
      </g>
     </g>
    </g>
    <g id="xtick_11">
     <g id="line2d_30">
      <g>
       <use style="stroke:#000000;stroke-width:0.8;" x="209.528783" xlink:href="#m97e4075d0b" y="41.472"/>
      </g>
     </g>
     <g id="text_17">
      <!-- 40.0K -->
      <g transform="translate(195.117065 32.392313)scale(0.1 -0.1)">
       <use xlink:href="#DejaVuSans-52"/>
       <use x="63.623047" xlink:href="#DejaVuSans-48"/>
       <use x="127.246094" xlink:href="#DejaVuSans-46"/>
       <use x="159.033203" xlink:href="#DejaVuSans-48"/>
       <use x="222.65625" xlink:href="#DejaVuSans-75"/>
      </g>
     </g>
    </g>
    <g id="xtick_12">
     <g id="line2d_31">
      <g>
       <use style="stroke:#000000;stroke-width:0.8;" x="285.493175" xlink:href="#m97e4075d0b" y="41.472"/>
      </g>
     </g>
     <g id="text_18">
      <!-- 60.0K -->
      <g transform="translate(271.081456 32.392313)scale(0.1 -0.1)">
       <use xlink:href="#DejaVuSans-54"/>
       <use x="63.623047" xlink:href="#DejaVuSans-48"/>
       <use x="127.246094" xlink:href="#DejaVuSans-46"/>
       <use x="159.033203" xlink:href="#DejaVuSans-48"/>
       <use x="222.65625" xlink:href="#DejaVuSans-75"/>
      </g>
     </g>
    </g>
    <g id="xtick_13">
     <g id="line2d_32">
      <g>
       <use style="stroke:#000000;stroke-width:0.8;" x="361.457567" xlink:href="#m97e4075d0b" y="41.472"/>
      </g>
     </g>
     <g id="text_19">
      <!-- 80.0K -->
      <defs>
       <path d="M 31.78125 34.625 
Q 24.75 34.625 20.71875 30.859375 
Q 16.703125 27.09375 16.703125 20.515625 
Q 16.703125 13.921875 20.71875 10.15625 
Q 24.75 6.390625 31.78125 6.390625 
Q 38.8125 6.390625 42.859375 10.171875 
Q 46.921875 13.96875 46.921875 20.515625 
Q 46.921875 27.09375 42.890625 30.859375 
Q 38.875 34.625 31.78125 34.625 
z
M 21.921875 38.8125 
Q 15.578125 40.375 12.03125 44.71875 
Q 8.5 49.078125 8.5 55.328125 
Q 8.5 64.0625 14.71875 69.140625 
Q 20.953125 74.21875 31.78125 74.21875 
Q 42.671875 74.21875 48.875 69.140625 
Q 55.078125 64.0625 55.078125 55.328125 
Q 55.078125 49.078125 51.53125 44.71875 
Q 48 40.375 41.703125 38.8125 
Q 48.828125 37.15625 52.796875 32.3125 
Q 56.78125 27.484375 56.78125 20.515625 
Q 56.78125 9.90625 50.3125 4.234375 
Q 43.84375 -1.421875 31.78125 -1.421875 
Q 19.734375 -1.421875 13.25 4.234375 
Q 6.78125 9.90625 6.78125 20.515625 
Q 6.78125 27.484375 10.78125 32.3125 
Q 14.796875 37.15625 21.921875 38.8125 
z
M 18.3125 54.390625 
Q 18.3125 48.734375 21.84375 45.5625 
Q 25.390625 42.390625 31.78125 42.390625 
Q 38.140625 42.390625 41.71875 45.5625 
Q 45.3125 48.734375 45.3125 54.390625 
Q 45.3125 60.0625 41.71875 63.234375 
Q 38.140625 66.40625 31.78125 66.40625 
Q 25.390625 66.40625 21.84375 63.234375 
Q 18.3125 60.0625 18.3125 54.390625 
z
" id="DejaVuSans-56"/>
      </defs>
      <g transform="translate(347.045848 32.392313)scale(0.1 -0.1)">
       <use xlink:href="#DejaVuSans-56"/>
       <use x="63.623047" xlink:href="#DejaVuSans-48"/>
       <use x="127.246094" xlink:href="#DejaVuSans-46"/>
       <use x="159.033203" xlink:href="#DejaVuSans-48"/>
       <use x="222.65625" xlink:href="#DejaVuSans-75"/>
      </g>
     </g>
    </g>
    <g id="text_20">
     <!-- Steps -->
     <g transform="translate(222.170156 20.793875)scale(0.1 -0.1)">
      <use xlink:href="#DejaVuSans-83"/>
      <use x="63.476562" xlink:href="#DejaVuSans-116"/>
      <use x="102.685547" xlink:href="#DejaVuSans-101"/>
      <use x="164.208984" xlink:href="#DejaVuSans-112"/>
      <use x="227.685547" xlink:href="#DejaVuSans-115"/>
     </g>
    </g>
   </g>
   <g id="patch_7">
    <path d="M 57.6 307.584 
L 57.6 41.472 
" style="fill:none;stroke:#000000;stroke-linecap:square;stroke-linejoin:miter;stroke-width:0.8;"/>
   </g>
   <g id="patch_8">
    <path d="M 414.72 307.584 
L 414.72 41.472 
" style="fill:none;stroke:#000000;stroke-linecap:square;stroke-linejoin:miter;stroke-width:0.8;"/>
   </g>
   <g id="patch_9">
    <path d="M 57.6 307.584 
L 414.72 307.584 
" style="fill:none;stroke:#000000;stroke-linecap:square;stroke-linejoin:miter;stroke-width:0.8;"/>
   </g>
   <g id="patch_10">
    <path d="M 57.6 41.472 
L 414.72 41.472 
" style="fill:none;stroke:#000000;stroke-linecap:square;stroke-linejoin:miter;stroke-width:0.8;"/>
   </g>
  </g>
 </g>
 <defs>
  <clipPath id="p0346400274">
   <rect height="266.112" width="357.12" x="57.6" y="41.472"/>
  </clipPath>
 </defs>
</svg>
