<?xml version="1.0" encoding="utf-8" standalone="no"?>
<!DOCTYPE svg PUBLIC "-//W3C//DTD SVG 1.1//EN"
  "http://www.w3.org/Graphics/SVG/1.1/DTD/svg11.dtd">
<!-- Created with matplotlib (https://matplotlib.org/) -->
<svg height="345.6pt" version="1.1" viewBox="0 0 460.8 345.6" width="460.8pt" xmlns="http://www.w3.org/2000/svg" xmlns:xlink="http://www.w3.org/1999/xlink">
 <defs>
  <style type="text/css">
*{stroke-linecap:butt;stroke-linejoin:round;}
  </style>
 </defs>
 <g id="figure_1">
  <g id="patch_1">
   <path d="M 0 345.6 
L 460.8 345.6 
L 460.8 0 
L 0 0 
z
" style="fill:#ffffff;"/>
  </g>
  <g id="axes_1">
   <g id="patch_2">
    <path d="M 57.6 307.584 
L 414.72 307.584 
L 414.72 41.472 
L 57.6 41.472 
z
" style="fill:#ffffff;"/>
   </g>
   <g id="matplotlib.axis_1">
    <g id="xtick_1">
     <g id="line2d_1">
      <path clip-path="url(#p4fe092e993)" d="M 57.6 307.584 
L 57.6 41.472 
" style="fill:none;stroke:#b0b0b0;stroke-linecap:square;stroke-width:0.8;"/>
     </g>
     <g id="line2d_2">
      <defs>
       <path d="M 0 0 
L 0 3.5 
" id="m4b556da00e" style="stroke:#000000;stroke-width:0.8;"/>
      </defs>
      <g>
       <use style="stroke:#000000;stroke-width:0.8;" x="57.6" xlink:href="#m4b556da00e" y="307.584"/>
      </g>
     </g>
     <g id="text_1">
      <!-- 0.0 -->
      <defs>
       <path d="M 31.78125 66.40625 
Q 24.171875 66.40625 20.328125 58.90625 
Q 16.5 51.421875 16.5 36.375 
Q 16.5 21.390625 20.328125 13.890625 
Q 24.171875 6.390625 31.78125 6.390625 
Q 39.453125 6.390625 43.28125 13.890625 
Q 47.125 21.390625 47.125 36.375 
Q 47.125 51.421875 43.28125 58.90625 
Q 39.453125 66.40625 31.78125 66.40625 
z
M 31.78125 74.21875 
Q 44.046875 74.21875 50.515625 64.515625 
Q 56.984375 54.828125 56.984375 36.375 
Q 56.984375 17.96875 50.515625 8.265625 
Q 44.046875 -1.421875 31.78125 -1.421875 
Q 19.53125 -1.421875 13.0625 8.265625 
Q 6.59375 17.96875 6.59375 36.375 
Q 6.59375 54.828125 13.0625 64.515625 
Q 19.53125 74.21875 31.78125 74.21875 
z
" id="DejaVuSans-48"/>
       <path d="M 10.6875 12.40625 
L 21 12.40625 
L 21 0 
L 10.6875 0 
z
" id="DejaVuSans-46"/>
      </defs>
      <g transform="translate(49.648438 322.182437)scale(0.1 -0.1)">
       <use xlink:href="#DejaVuSans-48"/>
       <use x="63.623047" xlink:href="#DejaVuSans-46"/>
       <use x="95.410156" xlink:href="#DejaVuSans-48"/>
      </g>
     </g>
    </g>
    <g id="xtick_2">
     <g id="line2d_3">
      <path clip-path="url(#p4fe092e993)" d="M 103.40612 307.584 
L 103.40612 41.472 
" style="fill:none;stroke:#b0b0b0;stroke-linecap:square;stroke-width:0.8;"/>
     </g>
     <g id="line2d_4">
      <g>
       <use style="stroke:#000000;stroke-width:0.8;" x="103.40612" xlink:href="#m4b556da00e" y="307.584"/>
      </g>
     </g>
     <g id="text_2">
      <!-- 2.5 -->
      <defs>
       <path d="M 19.1875 8.296875 
L 53.609375 8.296875 
L 53.609375 0 
L 7.328125 0 
L 7.328125 8.296875 
Q 12.9375 14.109375 22.625 23.890625 
Q 32.328125 33.6875 34.8125 36.53125 
Q 39.546875 41.84375 41.421875 45.53125 
Q 43.3125 49.21875 43.3125 52.78125 
Q 43.3125 58.59375 39.234375 62.25 
Q 35.15625 65.921875 28.609375 65.921875 
Q 23.96875 65.921875 18.8125 64.3125 
Q 13.671875 62.703125 7.8125 59.421875 
L 7.8125 69.390625 
Q 13.765625 71.78125 18.9375 73 
Q 24.125 74.21875 28.421875 74.21875 
Q 39.75 74.21875 46.484375 68.546875 
Q 53.21875 62.890625 53.21875 53.421875 
Q 53.21875 48.921875 51.53125 44.890625 
Q 49.859375 40.875 45.40625 35.40625 
Q 44.1875 33.984375 37.640625 27.21875 
Q 31.109375 20.453125 19.1875 8.296875 
z
" id="DejaVuSans-50"/>
       <path d="M 10.796875 72.90625 
L 49.515625 72.90625 
L 49.515625 64.59375 
L 19.828125 64.59375 
L 19.828125 46.734375 
Q 21.96875 47.46875 24.109375 47.828125 
Q 26.265625 48.1875 28.421875 48.1875 
Q 40.625 48.1875 47.75 41.5 
Q 54.890625 34.8125 54.890625 23.390625 
Q 54.890625 11.625 47.5625 5.09375 
Q 40.234375 -1.421875 26.90625 -1.421875 
Q 22.3125 -1.421875 17.546875 -0.640625 
Q 12.796875 0.140625 7.71875 1.703125 
L 7.71875 11.625 
Q 12.109375 9.234375 16.796875 8.0625 
Q 21.484375 6.890625 26.703125 6.890625 
Q 35.15625 6.890625 40.078125 11.328125 
Q 45.015625 15.765625 45.015625 23.390625 
Q 45.015625 31 40.078125 35.4375 
Q 35.15625 39.890625 26.703125 39.890625 
Q 22.75 39.890625 18.8125 39.015625 
Q 14.890625 38.140625 10.796875 36.28125 
z
" id="DejaVuSans-53"/>
      </defs>
      <g transform="translate(95.454558 322.182437)scale(0.1 -0.1)">
       <use xlink:href="#DejaVuSans-50"/>
       <use x="63.623047" xlink:href="#DejaVuSans-46"/>
       <use x="95.410156" xlink:href="#DejaVuSans-53"/>
      </g>
     </g>
    </g>
    <g id="xtick_3">
     <g id="line2d_5">
      <path clip-path="url(#p4fe092e993)" d="M 149.21224 307.584 
L 149.21224 41.472 
" style="fill:none;stroke:#b0b0b0;stroke-linecap:square;stroke-width:0.8;"/>
     </g>
     <g id="line2d_6">
      <g>
       <use style="stroke:#000000;stroke-width:0.8;" x="149.21224" xlink:href="#m4b556da00e" y="307.584"/>
      </g>
     </g>
     <g id="text_3">
      <!-- 5.0 -->
      <g transform="translate(141.260678 322.182437)scale(0.1 -0.1)">
       <use xlink:href="#DejaVuSans-53"/>
       <use x="63.623047" xlink:href="#DejaVuSans-46"/>
       <use x="95.410156" xlink:href="#DejaVuSans-48"/>
      </g>
     </g>
    </g>
    <g id="xtick_4">
     <g id="line2d_7">
      <path clip-path="url(#p4fe092e993)" d="M 195.01836 307.584 
L 195.01836 41.472 
" style="fill:none;stroke:#b0b0b0;stroke-linecap:square;stroke-width:0.8;"/>
     </g>
     <g id="line2d_8">
      <g>
       <use style="stroke:#000000;stroke-width:0.8;" x="195.01836" xlink:href="#m4b556da00e" y="307.584"/>
      </g>
     </g>
     <g id="text_4">
      <!-- 7.5 -->
      <defs>
       <path d="M 8.203125 72.90625 
L 55.078125 72.90625 
L 55.078125 68.703125 
L 28.609375 0 
L 18.3125 0 
L 43.21875 64.59375 
L 8.203125 64.59375 
z
" id="DejaVuSans-55"/>
      </defs>
      <g transform="translate(187.066798 322.182437)scale(0.1 -0.1)">
       <use xlink:href="#DejaVuSans-55"/>
       <use x="63.623047" xlink:href="#DejaVuSans-46"/>
       <use x="95.410156" xlink:href="#DejaVuSans-53"/>
      </g>
     </g>
    </g>
    <g id="xtick_5">
     <g id="line2d_9">
      <path clip-path="url(#p4fe092e993)" d="M 240.82448 307.584 
L 240.82448 41.472 
" style="fill:none;stroke:#b0b0b0;stroke-linecap:square;stroke-width:0.8;"/>
     </g>
     <g id="line2d_10">
      <g>
       <use style="stroke:#000000;stroke-width:0.8;" x="240.82448" xlink:href="#m4b556da00e" y="307.584"/>
      </g>
     </g>
     <g id="text_5">
      <!-- 10.0 -->
      <defs>
       <path d="M 12.40625 8.296875 
L 28.515625 8.296875 
L 28.515625 63.921875 
L 10.984375 60.40625 
L 10.984375 69.390625 
L 28.421875 72.90625 
L 38.28125 72.90625 
L 38.28125 8.296875 
L 54.390625 8.296875 
L 54.390625 0 
L 12.40625 0 
z
" id="DejaVuSans-49"/>
      </defs>
      <g transform="translate(229.691668 322.182437)scale(0.1 -0.1)">
       <use xlink:href="#DejaVuSans-49"/>
       <use x="63.623047" xlink:href="#DejaVuSans-48"/>
       <use x="127.246094" xlink:href="#DejaVuSans-46"/>
       <use x="159.033203" xlink:href="#DejaVuSans-48"/>
      </g>
     </g>
    </g>
    <g id="xtick_6">
     <g id="line2d_11">
      <path clip-path="url(#p4fe092e993)" d="M 286.6306 307.584 
L 286.6306 41.472 
" style="fill:none;stroke:#b0b0b0;stroke-linecap:square;stroke-width:0.8;"/>
     </g>
     <g id="line2d_12">
      <g>
       <use style="stroke:#000000;stroke-width:0.8;" x="286.6306" xlink:href="#m4b556da00e" y="307.584"/>
      </g>
     </g>
     <g id="text_6">
      <!-- 12.5 -->
      <g transform="translate(275.497788 322.182437)scale(0.1 -0.1)">
       <use xlink:href="#DejaVuSans-49"/>
       <use x="63.623047" xlink:href="#DejaVuSans-50"/>
       <use x="127.246094" xlink:href="#DejaVuSans-46"/>
       <use x="159.033203" xlink:href="#DejaVuSans-53"/>
      </g>
     </g>
    </g>
    <g id="xtick_7">
     <g id="line2d_13">
      <path clip-path="url(#p4fe092e993)" d="M 332.43672 307.584 
L 332.43672 41.472 
" style="fill:none;stroke:#b0b0b0;stroke-linecap:square;stroke-width:0.8;"/>
     </g>
     <g id="line2d_14">
      <g>
       <use style="stroke:#000000;stroke-width:0.8;" x="332.43672" xlink:href="#m4b556da00e" y="307.584"/>
      </g>
     </g>
     <g id="text_7">
      <!-- 15.0 -->
      <g transform="translate(321.303908 322.182437)scale(0.1 -0.1)">
       <use xlink:href="#DejaVuSans-49"/>
       <use x="63.623047" xlink:href="#DejaVuSans-53"/>
       <use x="127.246094" xlink:href="#DejaVuSans-46"/>
       <use x="159.033203" xlink:href="#DejaVuSans-48"/>
      </g>
     </g>
    </g>
    <g id="xtick_8">
     <g id="line2d_15">
      <path clip-path="url(#p4fe092e993)" d="M 378.24284 307.584 
L 378.24284 41.472 
" style="fill:none;stroke:#b0b0b0;stroke-linecap:square;stroke-width:0.8;"/>
     </g>
     <g id="line2d_16">
      <g>
       <use style="stroke:#000000;stroke-width:0.8;" x="378.24284" xlink:href="#m4b556da00e" y="307.584"/>
      </g>
     </g>
     <g id="text_8">
      <!-- 17.5 -->
      <g transform="translate(367.110028 322.182437)scale(0.1 -0.1)">
       <use xlink:href="#DejaVuSans-49"/>
       <use x="63.623047" xlink:href="#DejaVuSans-55"/>
       <use x="127.246094" xlink:href="#DejaVuSans-46"/>
       <use x="159.033203" xlink:href="#DejaVuSans-53"/>
      </g>
     </g>
    </g>
    <g id="text_9">
     <!-- Hours -->
     <defs>
      <path d="M 9.8125 72.90625 
L 19.671875 72.90625 
L 19.671875 43.015625 
L 55.515625 43.015625 
L 55.515625 72.90625 
L 65.375 72.90625 
L 65.375 0 
L 55.515625 0 
L 55.515625 34.71875 
L 19.671875 34.71875 
L 19.671875 0 
L 9.8125 0 
z
" id="DejaVuSans-72"/>
      <path d="M 30.609375 48.390625 
Q 23.390625 48.390625 19.1875 42.75 
Q 14.984375 37.109375 14.984375 27.296875 
Q 14.984375 17.484375 19.15625 11.84375 
Q 23.34375 6.203125 30.609375 6.203125 
Q 37.796875 6.203125 41.984375 11.859375 
Q 46.1875 17.53125 46.1875 27.296875 
Q 46.1875 37.015625 41.984375 42.703125 
Q 37.796875 48.390625 30.609375 48.390625 
z
M 30.609375 56 
Q 42.328125 56 49.015625 48.375 
Q 55.71875 40.765625 55.71875 27.296875 
Q 55.71875 13.875 49.015625 6.21875 
Q 42.328125 -1.421875 30.609375 -1.421875 
Q 18.84375 -1.421875 12.171875 6.21875 
Q 5.515625 13.875 5.515625 27.296875 
Q 5.515625 40.765625 12.171875 48.375 
Q 18.84375 56 30.609375 56 
z
" id="DejaVuSans-111"/>
      <path d="M 8.5 21.578125 
L 8.5 54.6875 
L 17.484375 54.6875 
L 17.484375 21.921875 
Q 17.484375 14.15625 20.5 10.265625 
Q 23.53125 6.390625 29.59375 6.390625 
Q 36.859375 6.390625 41.078125 11.03125 
Q 45.3125 15.671875 45.3125 23.6875 
L 45.3125 54.6875 
L 54.296875 54.6875 
L 54.296875 0 
L 45.3125 0 
L 45.3125 8.40625 
Q 42.046875 3.421875 37.71875 1 
Q 33.40625 -1.421875 27.6875 -1.421875 
Q 18.265625 -1.421875 13.375 4.4375 
Q 8.5 10.296875 8.5 21.578125 
z
M 31.109375 56 
z
" id="DejaVuSans-117"/>
      <path d="M 41.109375 46.296875 
Q 39.59375 47.171875 37.8125 47.578125 
Q 36.03125 48 33.890625 48 
Q 26.265625 48 22.1875 43.046875 
Q 18.109375 38.09375 18.109375 28.8125 
L 18.109375 0 
L 9.078125 0 
L 9.078125 54.6875 
L 18.109375 54.6875 
L 18.109375 46.1875 
Q 20.953125 51.171875 25.484375 53.578125 
Q 30.03125 56 36.53125 56 
Q 37.453125 56 38.578125 55.875 
Q 39.703125 55.765625 41.0625 55.515625 
z
" id="DejaVuSans-114"/>
      <path d="M 44.28125 53.078125 
L 44.28125 44.578125 
Q 40.484375 46.53125 36.375 47.5 
Q 32.28125 48.484375 27.875 48.484375 
Q 21.1875 48.484375 17.84375 46.4375 
Q 14.5 44.390625 14.5 40.28125 
Q 14.5 37.15625 16.890625 35.375 
Q 19.28125 33.59375 26.515625 31.984375 
L 29.59375 31.296875 
Q 39.15625 29.25 43.1875 25.515625 
Q 47.21875 21.78125 47.21875 15.09375 
Q 47.21875 7.46875 41.1875 3.015625 
Q 35.15625 -1.421875 24.609375 -1.421875 
Q 20.21875 -1.421875 15.453125 -0.5625 
Q 10.6875 0.296875 5.421875 2 
L 5.421875 11.28125 
Q 10.40625 8.6875 15.234375 7.390625 
Q 20.0625 6.109375 24.8125 6.109375 
Q 31.15625 6.109375 34.5625 8.28125 
Q 37.984375 10.453125 37.984375 14.40625 
Q 37.984375 18.0625 35.515625 20.015625 
Q 33.0625 21.96875 24.703125 23.78125 
L 21.578125 24.515625 
Q 13.234375 26.265625 9.515625 29.90625 
Q 5.8125 33.546875 5.8125 39.890625 
Q 5.8125 47.609375 11.28125 51.796875 
Q 16.75 56 26.8125 56 
Q 31.78125 56 36.171875 55.265625 
Q 40.578125 54.546875 44.28125 53.078125 
z
" id="DejaVuSans-115"/>
     </defs>
     <g transform="translate(221.511562 335.860562)scale(0.1 -0.1)">
      <use xlink:href="#DejaVuSans-72"/>
      <use x="75.195312" xlink:href="#DejaVuSans-111"/>
      <use x="136.376953" xlink:href="#DejaVuSans-117"/>
      <use x="199.755859" xlink:href="#DejaVuSans-114"/>
      <use x="240.869141" xlink:href="#DejaVuSans-115"/>
     </g>
    </g>
   </g>
   <g id="matplotlib.axis_2">
    <g id="ytick_1">
     <g id="line2d_17">
      <path clip-path="url(#p4fe092e993)" d="M 57.6 294.633304 
L 414.72 294.633304 
" style="fill:none;stroke:#b0b0b0;stroke-linecap:square;stroke-width:0.8;"/>
     </g>
     <g id="line2d_18">
      <defs>
       <path d="M 0 0 
L -3.5 0 
" id="m2375fdc83d" style="stroke:#000000;stroke-width:0.8;"/>
      </defs>
      <g>
       <use style="stroke:#000000;stroke-width:0.8;" x="57.6" xlink:href="#m2375fdc83d" y="294.633304"/>
      </g>
     </g>
     <g id="text_10">
      <!-- 0 -->
      <g transform="translate(44.2375 298.432522)scale(0.1 -0.1)">
       <use xlink:href="#DejaVuSans-48"/>
      </g>
     </g>
    </g>
    <g id="ytick_2">
     <g id="line2d_19">
      <path clip-path="url(#p4fe092e993)" d="M 57.6 261.808038 
L 414.72 261.808038 
" style="fill:none;stroke:#b0b0b0;stroke-linecap:square;stroke-width:0.8;"/>
     </g>
     <g id="line2d_20">
      <g>
       <use style="stroke:#000000;stroke-width:0.8;" x="57.6" xlink:href="#m2375fdc83d" y="261.808038"/>
      </g>
     </g>
     <g id="text_11">
      <!-- 250 -->
      <g transform="translate(31.5125 265.607257)scale(0.1 -0.1)">
       <use xlink:href="#DejaVuSans-50"/>
       <use x="63.623047" xlink:href="#DejaVuSans-53"/>
       <use x="127.246094" xlink:href="#DejaVuSans-48"/>
      </g>
     </g>
    </g>
    <g id="ytick_3">
     <g id="line2d_21">
      <path clip-path="url(#p4fe092e993)" d="M 57.6 228.982773 
L 414.72 228.982773 
" style="fill:none;stroke:#b0b0b0;stroke-linecap:square;stroke-width:0.8;"/>
     </g>
     <g id="line2d_22">
      <g>
       <use style="stroke:#000000;stroke-width:0.8;" x="57.6" xlink:href="#m2375fdc83d" y="228.982773"/>
      </g>
     </g>
     <g id="text_12">
      <!-- 500 -->
      <g transform="translate(31.5125 232.781991)scale(0.1 -0.1)">
       <use xlink:href="#DejaVuSans-53"/>
       <use x="63.623047" xlink:href="#DejaVuSans-48"/>
       <use x="127.246094" xlink:href="#DejaVuSans-48"/>
      </g>
     </g>
    </g>
    <g id="ytick_4">
     <g id="line2d_23">
      <path clip-path="url(#p4fe092e993)" d="M 57.6 196.157507 
L 414.72 196.157507 
" style="fill:none;stroke:#b0b0b0;stroke-linecap:square;stroke-width:0.8;"/>
     </g>
     <g id="line2d_24">
      <g>
       <use style="stroke:#000000;stroke-width:0.8;" x="57.6" xlink:href="#m2375fdc83d" y="196.157507"/>
      </g>
     </g>
     <g id="text_13">
      <!-- 750 -->
      <g transform="translate(31.5125 199.956726)scale(0.1 -0.1)">
       <use xlink:href="#DejaVuSans-55"/>
       <use x="63.623047" xlink:href="#DejaVuSans-53"/>
       <use x="127.246094" xlink:href="#DejaVuSans-48"/>
      </g>
     </g>
    </g>
    <g id="ytick_5">
     <g id="line2d_25">
      <path clip-path="url(#p4fe092e993)" d="M 57.6 163.332242 
L 414.72 163.332242 
" style="fill:none;stroke:#b0b0b0;stroke-linecap:square;stroke-width:0.8;"/>
     </g>
     <g id="line2d_26">
      <g>
       <use style="stroke:#000000;stroke-width:0.8;" x="57.6" xlink:href="#m2375fdc83d" y="163.332242"/>
      </g>
     </g>
     <g id="text_14">
      <!-- 1000 -->
      <g transform="translate(25.15 167.131461)scale(0.1 -0.1)">
       <use xlink:href="#DejaVuSans-49"/>
       <use x="63.623047" xlink:href="#DejaVuSans-48"/>
       <use x="127.246094" xlink:href="#DejaVuSans-48"/>
       <use x="190.869141" xlink:href="#DejaVuSans-48"/>
      </g>
     </g>
    </g>
    <g id="ytick_6">
     <g id="line2d_27">
      <path clip-path="url(#p4fe092e993)" d="M 57.6 130.506976 
L 414.72 130.506976 
" style="fill:none;stroke:#b0b0b0;stroke-linecap:square;stroke-width:0.8;"/>
     </g>
     <g id="line2d_28">
      <g>
       <use style="stroke:#000000;stroke-width:0.8;" x="57.6" xlink:href="#m2375fdc83d" y="130.506976"/>
      </g>
     </g>
     <g id="text_15">
      <!-- 1250 -->
      <g transform="translate(25.15 134.306195)scale(0.1 -0.1)">
       <use xlink:href="#DejaVuSans-49"/>
       <use x="63.623047" xlink:href="#DejaVuSans-50"/>
       <use x="127.246094" xlink:href="#DejaVuSans-53"/>
       <use x="190.869141" xlink:href="#DejaVuSans-48"/>
      </g>
     </g>
    </g>
    <g id="ytick_7">
     <g id="line2d_29">
      <path clip-path="url(#p4fe092e993)" d="M 57.6 97.681711 
L 414.72 97.681711 
" style="fill:none;stroke:#b0b0b0;stroke-linecap:square;stroke-width:0.8;"/>
     </g>
     <g id="line2d_30">
      <g>
       <use style="stroke:#000000;stroke-width:0.8;" x="57.6" xlink:href="#m2375fdc83d" y="97.681711"/>
      </g>
     </g>
     <g id="text_16">
      <!-- 1500 -->
      <g transform="translate(25.15 101.48093)scale(0.1 -0.1)">
       <use xlink:href="#DejaVuSans-49"/>
       <use x="63.623047" xlink:href="#DejaVuSans-53"/>
       <use x="127.246094" xlink:href="#DejaVuSans-48"/>
       <use x="190.869141" xlink:href="#DejaVuSans-48"/>
      </g>
     </g>
    </g>
    <g id="ytick_8">
     <g id="line2d_31">
      <path clip-path="url(#p4fe092e993)" d="M 57.6 64.856445 
L 414.72 64.856445 
" style="fill:none;stroke:#b0b0b0;stroke-linecap:square;stroke-width:0.8;"/>
     </g>
     <g id="line2d_32">
      <g>
       <use style="stroke:#000000;stroke-width:0.8;" x="57.6" xlink:href="#m2375fdc83d" y="64.856445"/>
      </g>
     </g>
     <g id="text_17">
      <!-- 1750 -->
      <g transform="translate(25.15 68.655664)scale(0.1 -0.1)">
       <use xlink:href="#DejaVuSans-49"/>
       <use x="63.623047" xlink:href="#DejaVuSans-55"/>
       <use x="127.246094" xlink:href="#DejaVuSans-53"/>
       <use x="190.869141" xlink:href="#DejaVuSans-48"/>
      </g>
     </g>
    </g>
    <g id="text_18">
     <!-- Mean train reward -->
     <defs>
      <path d="M 9.8125 72.90625 
L 24.515625 72.90625 
L 43.109375 23.296875 
L 61.8125 72.90625 
L 76.515625 72.90625 
L 76.515625 0 
L 66.890625 0 
L 66.890625 64.015625 
L 48.09375 14.015625 
L 38.1875 14.015625 
L 19.390625 64.015625 
L 19.390625 0 
L 9.8125 0 
z
" id="DejaVuSans-77"/>
      <path d="M 56.203125 29.59375 
L 56.203125 25.203125 
L 14.890625 25.203125 
Q 15.484375 15.921875 20.484375 11.0625 
Q 25.484375 6.203125 34.421875 6.203125 
Q 39.59375 6.203125 44.453125 7.46875 
Q 49.3125 8.734375 54.109375 11.28125 
L 54.109375 2.78125 
Q 49.265625 0.734375 44.1875 -0.34375 
Q 39.109375 -1.421875 33.890625 -1.421875 
Q 20.796875 -1.421875 13.15625 6.1875 
Q 5.515625 13.8125 5.515625 26.8125 
Q 5.515625 40.234375 12.765625 48.109375 
Q 20.015625 56 32.328125 56 
Q 43.359375 56 49.78125 48.890625 
Q 56.203125 41.796875 56.203125 29.59375 
z
M 47.21875 32.234375 
Q 47.125 39.59375 43.09375 43.984375 
Q 39.0625 48.390625 32.421875 48.390625 
Q 24.90625 48.390625 20.390625 44.140625 
Q 15.875 39.890625 15.1875 32.171875 
z
" id="DejaVuSans-101"/>
      <path d="M 34.28125 27.484375 
Q 23.390625 27.484375 19.1875 25 
Q 14.984375 22.515625 14.984375 16.5 
Q 14.984375 11.71875 18.140625 8.90625 
Q 21.296875 6.109375 26.703125 6.109375 
Q 34.1875 6.109375 38.703125 11.40625 
Q 43.21875 16.703125 43.21875 25.484375 
L 43.21875 27.484375 
z
M 52.203125 31.203125 
L 52.203125 0 
L 43.21875 0 
L 43.21875 8.296875 
Q 40.140625 3.328125 35.546875 0.953125 
Q 30.953125 -1.421875 24.3125 -1.421875 
Q 15.921875 -1.421875 10.953125 3.296875 
Q 6 8.015625 6 15.921875 
Q 6 25.140625 12.171875 29.828125 
Q 18.359375 34.515625 30.609375 34.515625 
L 43.21875 34.515625 
L 43.21875 35.40625 
Q 43.21875 41.609375 39.140625 45 
Q 35.0625 48.390625 27.6875 48.390625 
Q 23 48.390625 18.546875 47.265625 
Q 14.109375 46.140625 10.015625 43.890625 
L 10.015625 52.203125 
Q 14.9375 54.109375 19.578125 55.046875 
Q 24.21875 56 28.609375 56 
Q 40.484375 56 46.34375 49.84375 
Q 52.203125 43.703125 52.203125 31.203125 
z
" id="DejaVuSans-97"/>
      <path d="M 54.890625 33.015625 
L 54.890625 0 
L 45.90625 0 
L 45.90625 32.71875 
Q 45.90625 40.484375 42.875 44.328125 
Q 39.84375 48.1875 33.796875 48.1875 
Q 26.515625 48.1875 22.3125 43.546875 
Q 18.109375 38.921875 18.109375 30.90625 
L 18.109375 0 
L 9.078125 0 
L 9.078125 54.6875 
L 18.109375 54.6875 
L 18.109375 46.1875 
Q 21.34375 51.125 25.703125 53.5625 
Q 30.078125 56 35.796875 56 
Q 45.21875 56 50.046875 50.171875 
Q 54.890625 44.34375 54.890625 33.015625 
z
" id="DejaVuSans-110"/>
      <path id="DejaVuSans-32"/>
      <path d="M 18.3125 70.21875 
L 18.3125 54.6875 
L 36.8125 54.6875 
L 36.8125 47.703125 
L 18.3125 47.703125 
L 18.3125 18.015625 
Q 18.3125 11.328125 20.140625 9.421875 
Q 21.96875 7.515625 27.59375 7.515625 
L 36.8125 7.515625 
L 36.8125 0 
L 27.59375 0 
Q 17.1875 0 13.234375 3.875 
Q 9.28125 7.765625 9.28125 18.015625 
L 9.28125 47.703125 
L 2.6875 47.703125 
L 2.6875 54.6875 
L 9.28125 54.6875 
L 9.28125 70.21875 
z
" id="DejaVuSans-116"/>
      <path d="M 9.421875 54.6875 
L 18.40625 54.6875 
L 18.40625 0 
L 9.421875 0 
z
M 9.421875 75.984375 
L 18.40625 75.984375 
L 18.40625 64.59375 
L 9.421875 64.59375 
z
" id="DejaVuSans-105"/>
      <path d="M 4.203125 54.6875 
L 13.1875 54.6875 
L 24.421875 12.015625 
L 35.59375 54.6875 
L 46.1875 54.6875 
L 57.421875 12.015625 
L 68.609375 54.6875 
L 77.59375 54.6875 
L 63.28125 0 
L 52.6875 0 
L 40.921875 44.828125 
L 29.109375 0 
L 18.5 0 
z
" id="DejaVuSans-119"/>
      <path d="M 45.40625 46.390625 
L 45.40625 75.984375 
L 54.390625 75.984375 
L 54.390625 0 
L 45.40625 0 
L 45.40625 8.203125 
Q 42.578125 3.328125 38.25 0.953125 
Q 33.9375 -1.421875 27.875 -1.421875 
Q 17.96875 -1.421875 11.734375 6.484375 
Q 5.515625 14.40625 5.515625 27.296875 
Q 5.515625 40.1875 11.734375 48.09375 
Q 17.96875 56 27.875 56 
Q 33.9375 56 38.25 53.625 
Q 42.578125 51.265625 45.40625 46.390625 
z
M 14.796875 27.296875 
Q 14.796875 17.390625 18.875 11.75 
Q 22.953125 6.109375 30.078125 6.109375 
Q 37.203125 6.109375 41.296875 11.75 
Q 45.40625 17.390625 45.40625 27.296875 
Q 45.40625 37.203125 41.296875 42.84375 
Q 37.203125 48.484375 30.078125 48.484375 
Q 22.953125 48.484375 18.875 42.84375 
Q 14.796875 37.203125 14.796875 27.296875 
z
" id="DejaVuSans-100"/>
     </defs>
     <g transform="translate(19.070312 220.479562)rotate(-90)scale(0.1 -0.1)">
      <use xlink:href="#DejaVuSans-77"/>
      <use x="86.279297" xlink:href="#DejaVuSans-101"/>
      <use x="147.802734" xlink:href="#DejaVuSans-97"/>
      <use x="209.082031" xlink:href="#DejaVuSans-110"/>
      <use x="272.460938" xlink:href="#DejaVuSans-32"/>
      <use x="304.248047" xlink:href="#DejaVuSans-116"/>
      <use x="343.457031" xlink:href="#DejaVuSans-114"/>
      <use x="384.570312" xlink:href="#DejaVuSans-97"/>
      <use x="445.849609" xlink:href="#DejaVuSans-105"/>
      <use x="473.632812" xlink:href="#DejaVuSans-110"/>
      <use x="537.011719" xlink:href="#DejaVuSans-32"/>
      <use x="568.798828" xlink:href="#DejaVuSans-114"/>
      <use x="609.880859" xlink:href="#DejaVuSans-101"/>
      <use x="671.404297" xlink:href="#DejaVuSans-119"/>
      <use x="753.191406" xlink:href="#DejaVuSans-97"/>
      <use x="814.470703" xlink:href="#DejaVuSans-114"/>
      <use x="855.568359" xlink:href="#DejaVuSans-100"/>
     </g>
    </g>
   </g>
   <g id="line2d_33">
    <path clip-path="url(#p4fe092e993)" d="M 57.6 294.76565 
L 57.607867 295.408356 
L 57.711318 295.159874 
L 57.750127 294.91925 
L 57.762154 295.488 
L 57.816058 295.146501 
L 57.880986 295.262673 
L 57.886204 295.138593 
L 57.975255 294.646997 
L 57.992874 294.977494 
L 58.006619 295.182085 
L 58.048291 294.830374 
L 58.088816 294.961638 
L 58.110989 295.030457 
L 58.11306 294.85578 
L 58.136034 294.876432 
L 58.138906 294.651167 
L 58.229635 295.106665 
L 58.239085 294.775383 
L 58.285602 295.275738 
L 58.322054 294.494439 
L 58.329644 294.93377 
L 58.366188 294.744195 
L 58.416592 294.485734 
L 58.469184 294.768777 
L 58.5799 294.482261 
L 58.587713 294.601484 
L 58.594405 294.840012 
L 58.688831 294.755523 
L 58.758742 294.652862 
L 58.775988 294.779343 
L 58.791212 294.889649 
L 58.792393 294.834336 
L 58.942363 294.365885 
L 58.950536 294.503346 
L 58.957285 294.731358 
L 58.983802 294.295006 
L 59.047618 294.523961 
L 59.065941 294.500663 
L 59.165299 294.222571 
L 59.084643 294.583274 
L 59.167653 294.580268 
L 59.353356 294.068717 
L 59.36277 294.291976 
L 59.380584 294.505845 
L 59.46503 294.207188 
L 59.53972 294.149846 
L 59.539786 294.159473 
L 59.600584 294.473539 
L 59.636657 294.265783 
L 59.680928 294.274972 
L 59.730037 293.867643 
L 59.736969 294.376875 
L 59.773124 294.303102 
L 59.804019 294.490469 
L 59.821818 294.387291 
L 59.83411 293.823513 
L 59.882442 293.957892 
L 59.946697 294.132846 
L 59.983429 294.318786 
L 60.04321 294.15973 
L 60.125251 293.724583 
L 60.106508 294.207399 
L 60.173471 293.732584 
L 60.185036 294.199505 
L 60.240803 293.895507 
L 60.384782 293.97185 
L 60.447314 293.815202 
L 60.449649 293.865907 
L 60.470106 293.23351 
L 60.532491 293.725653 
L 60.573779 294.171055 
L 60.663892 293.339464 
L 60.727343 293.55642 
L 60.79583 293.870085 
L 60.808888 293.462389 
L 60.860835 293.682373 
L 60.926295 293.708903 
L 60.980671 293.372693 
L 61.09041 293.698369 
L 61.115487 293.165453 
L 61.218183 293.340598 
L 61.296678 293.761016 
L 61.309304 293.242069 
L 61.371443 293.369916 
L 61.388854 293.042101 
L 61.459513 293.580844 
L 61.478832 293.063557 
L 61.563279 292.937986 
L 61.573428 293.388668 
L 61.685077 293.318674 
L 61.732064 292.845497 
L 61.743474 293.656416 
L 61.804611 292.890442 
L 61.810976 293.192277 
L 61.847795 292.883381 
L 61.949213 293.495027 
L 61.960108 292.989146 
L 61.979202 292.611688 
L 62.051397 293.348869 
L 62.059121 293.143767 
L 62.075501 293.100389 
L 62.16283 293.686272 
L 62.184456 292.846257 
L 62.218086 293.168132 
L 62.296801 293.216443 
L 62.368141 292.836661 
L 62.398457 292.84052 
L 62.422904 293.220458 
L 62.48333 293.109555 
L 62.534793 292.768253 
L 62.566137 293.593142 
L 62.620366 293.493869 
L 62.7828 292.706561 
L 62.852538 293.041945 
L 62.964974 292.720812 
L 62.980182 292.518844 
L 63.006448 292.841423 
L 63.011781 292.747715 
L 63.088564 292.437722 
L 63.112774 292.928685 
L 63.310415 292.6241 
L 63.391311 292.914171 
L 63.397734 292.621814 
L 63.450002 292.212072 
L 63.528557 292.91771 
L 63.573447 292.586769 
L 63.684227 292.102507 
L 63.696897 292.202099 
L 63.761211 292.67299 
L 63.83437 292.403466 
L 63.897125 292.421847 
L 63.903422 292.310627 
L 63.959305 292.771485 
L 63.984148 292.472652 
L 64.064962 292.35258 
L 64.118226 292.649531 
L 64.223454 292.206017 
L 64.288151 292.284402 
L 64.356717 292.607628 
L 64.407699 292.490796 
L 64.41537 292.212978 
L 64.494177 292.314571 
L 64.6281 291.787362 
L 64.745854 292.667208 
L 64.894874 292.147479 
L 64.910621 292.385954 
L 64.918408 292.719043 
L 64.942493 292.111807 
L 65.052908 292.24764 
L 65.055051 292.506174 
L 65.151658 291.401361 
L 65.287973 292.638554 
L 65.310378 292.138606 
L 65.323444 291.817472 
L 65.367961 292.163526 
L 65.384783 291.836653 
L 65.45923 292.107815 
L 65.481686 292.03978 
L 65.619209 291.54939 
L 65.619504 291.567414 
L 65.759621 292.283451 
L 65.788169 292.315379 
L 65.898939 291.936685 
L 65.909188 291.377396 
L 65.970967 292.305758 
L 66.233214 291.190525 
L 66.378714 292.245546 
L 66.426144 291.792903 
L 66.452432 291.577435 
L 66.503717 291.940261 
L 66.565119 291.653005 
L 66.640539 290.480138 
L 66.720244 290.95379 
L 66.774196 290.691223 
L 66.791606 291.128971 
L 66.920225 292.093537 
L 66.949867 292.298871 
L 66.970824 291.170948 
L 67.097796 291.679259 
L 67.190781 290.409321 
L 67.21641 291.347143 
L 67.267773 291.193465 
L 67.294417 291.919025 
L 67.313178 290.810095 
L 67.398497 291.729926 
L 67.520836 290.460191 
L 67.790208 291.067278 
L 67.823229 290.740297 
L 67.931815 290.111629 
L 68.05005 290.479499 
L 68.255343 290.730126 
L 68.272969 291.189277 
L 68.30596 290.385998 
L 68.374374 289.939551 
L 68.396896 290.164412 
L 68.493927 290.41414 
L 68.502424 290.2072 
L 68.515618 289.42856 
L 68.5469 290.414028 
L 68.653434 290.265086 
L 68.892937 290.487107 
L 68.93904 290.966541 
L 69.036077 290.85024 
L 69.170203 289.644228 
L 69.251213 289.856709 
L 69.42072 289.615831 
L 69.465638 289.702762 
L 69.597602 289.870063 
L 69.641111 290.122912 
L 69.646049 289.707331 
L 69.770526 289.153636 
L 69.846123 290.644581 
L 69.91449 288.7331 
L 69.984481 290.238 
L 70.198781 288.69509 
L 70.247977 290.302911 
L 70.369924 288.840393 
L 70.39664 289.620197 
L 70.515196 289.825429 
L 70.765918 287.216694 
L 70.876722 289.767954 
L 70.902115 289.757219 
L 70.99652 287.646706 
L 71.130727 290.129275 
L 71.343931 289.190733 
L 71.567207 287.490248 
L 71.666646 288.74886 
L 71.739862 288.732711 
L 71.887066 289.853335 
L 71.99589 288.277708 
L 72.106588 288.381884 
L 72.130191 289.165006 
L 72.349598 286.004473 
L 72.480097 289.110916 
L 72.5544 288.104296 
L 72.646233 288.593651 
L 72.683115 286.839186 
L 72.731643 287.808946 
L 72.822379 288.612203 
L 72.909302 285.852733 
L 72.947715 289.11005 
L 73.186911 288.290391 
L 73.509373 285.718738 
L 73.655098 288.396501 
L 73.997022 287.018938 
L 74.114624 288.028741 
L 74.204283 288.425563 
L 74.342431 283.817348 
L 74.418517 283.327021 
L 74.498765 286.511835 
L 74.773848 284.772238 
L 74.791594 284.795911 
L 75.145337 287.770941 
L 75.162047 287.581103 
L 75.266069 287.778973 
L 75.440219 284.031187 
L 75.445629 284.451244 
L 75.556737 285.834141 
L 75.785991 281.27839 
L 76.105325 280.922804 
L 76.278327 288.415527 
L 76.537422 286.869957 
L 76.612637 284.316964 
L 76.696243 284.841712 
L 76.951317 286.828318 
L 77.206478 284.223577 
L 77.209464 284.717972 
L 77.492029 284.967261 
L 77.566829 286.331095 
L 77.673891 283.270169 
L 77.726011 285.976447 
L 77.99603 282.658184 
L 78.591223 279.352702 
L 79.110107 280.686691 
L 79.241558 283.974739 
L 79.770493 279.868389 
L 79.770559 279.876329 
L 79.822244 280.623501 
L 80.028009 280.139735 
L 80.717785 277.187468 
L 80.736861 279.670615 
L 80.892669 280.937355 
L 81.002074 283.434975 
L 81.100523 277.512948 
L 81.173011 283.301906 
L 81.702347 279.616349 
L 82.029804 280.291503 
L 82.254029 279.329467 
L 83.110431 276.929821 
L 83.158823 275.15446 
L 83.369779 280.303295 
L 83.897209 277.151706 
L 84.252744 277.088488 
L 84.487225 277.392091 
L 84.827837 278.742502 
L 85.240658 274.90683 
L 85.4435 276.146737 
L 86.428979 278.947372 
L 87.01194 270.14727 
L 87.026074 275.432649 
L 87.630575 266.850928 
L 87.899886 272.920801 
L 88.921834 268.171716 
L 88.985017 271.630708 
L 89.093117 269.08791 
L 89.129482 273.268562 
L 89.512888 265.555107 
L 89.720395 269.408782 
L 90.53819 260.750201 
L 90.849703 268.621799 
L 91.051577 266.391801 
L 91.423109 265.533203 
L 91.479746 264.920067 
L 92.297951 262.17821 
L 92.785531 256.829325 
L 92.910215 261.877467 
L 93.405218 266.099992 
L 93.756725 258.525472 
L 94.792986 265.061823 
L 97.103765 260.659979 
L 97.103903 261.187131 
L 97.392353 253.899173 
L 97.447721 255.033119 
L 97.512717 256.029782 
L 98.42759 261.987241 
L 98.497897 259.822667 
L 99.258545 247.450623 
L 100.163675 256.732648 
L 100.368687 263.899467 
L 101.195347 250.117463 
L 102.487426 248.346931 
L 102.542305 252.764217 
L 102.615791 242.398437 
L 103.721911 240.005122 
L 103.979508 246.959915 
L 105.295501 256.902689 
L 105.474276 243.503064 
L 105.990816 250.601812 
L 106.600856 239.580176 
L 109.569962 243.799161 
L 110.202772 244.034872 
L 110.841176 235.791062 
L 110.972779 238.202749 
L 111.270754 236.206431 
L 112.155638 228.055303 
L 112.48721 235.843926 
L 112.738662 238.323861 
L 113.216638 229.882442 
L 113.400665 236.744461 
L 113.444993 234.465153 
L 114.003772 235.302806 
L 114.492579 240.012378 
L 114.737094 237.116699 
L 116.04562 231.506876 
L 116.884166 228.780291 
L 117.395342 226.67134 
L 117.629339 235.016327 
L 117.653459 240.453552 
L 118.013048 223.264004 
L 119.113987 222.243127 
L 119.49493 235.500503 
L 121.269065 218.972605 
L 121.953298 219.063933 
L 123.560282 226.664785 
L 123.587117 227.931775 
L 124.202425 226.330602 
L 124.639523 218.638463 
L 126.949287 225.683489 
L 127.669418 219.399598 
L 128.469094 221.490895 
L 128.797076 223.379758 
L 129.450041 216.456207 
L 129.648651 224.785074 
L 130.460816 213.452319 
L 130.852521 220.623646 
L 132.027015 213.107718 
L 132.299035 209.356974 
L 133.563506 210.758491 
L 133.885312 214.925136 
L 135.738645 205.54123 
L 136.541537 205.589129 
L 137.511727 214.305391 
L 137.727801 208.560577 
L 137.928056 211.90841 
L 138.997353 198.756409 
L 139.015732 203.693999 
L 139.988587 202.584672 
L 140.069736 208.796244 
L 140.649967 213.869046 
L 141.552065 209.296605 
L 141.634498 210.578449 
L 141.919599 206.806261 
L 142.726209 198.758437 
L 144.16715 199.003023 
L 144.254677 195.326842 
L 144.553531 188.84241 
L 145.682489 211.025798 
L 146.558775 207.500023 
L 147.03492 195.578417 
L 147.174344 196.367417 
L 148.79811 191.200187 
L 148.969239 199.329265 
L 148.991856 199.304469 
L 149.232577 194.608813 
L 149.681887 198.035399 
L 151.118438 191.333948 
L 151.891344 192.452644 
L 152.585656 192.638264 
L 154.519363 193.679079 
L 154.630941 184.473436 
L 154.943886 186.471834 
L 155.568495 193.528505 
L 156.471714 193.844985 
L 157.247855 191.583856 
L 157.689146 193.85715 
L 158.584031 188.234132 
L 159.001437 203.617049 
L 159.420585 191.101567 
L 159.677277 178.545254 
L 160.287921 187.140384 
L 160.351015 186.128018 
L 160.732153 174.487294 
L 161.692058 183.477274 
L 161.904842 178.719189 
L 162.274319 179.129 
L 162.639729 180.903656 
L 166.03253 185.163303 
L 166.311494 185.178418 
L 166.425507 179.185443 
L 166.565405 179.293463 
L 168.127002 172.57479 
L 169.308324 184.106115 
L 171.435383 180.436177 
L 171.846159 166.882908 
L 174.086851 174.239927 
L 174.322537 186.567625 
L 174.719333 176.162681 
L 175.146464 171.614731 
L 175.306197 167.107027 
L 175.547006 166.784456 
L 175.555395 166.42515 
L 175.875199 174.546622 
L 176.11564 164.465851 
L 178.023633 165.911357 
L 178.76733 178.863208 
L 179.406807 177.375325 
L 179.562427 173.756852 
L 179.799089 160.836255 
L 181.431452 162.745274 
L 181.493717 163.28423 
L 182.162342 159.671151 
L 182.500922 165.946795 
L 183.096793 158.176656 
L 183.249301 166.269782 
L 183.400876 164.846403 
L 183.845625 154.552108 
L 184.358454 161.253375 
L 184.662085 162.570753 
L 184.71874 154.833543 
L 185.180096 158.038623 
L 187.877636 156.32876 
L 188.721413 144.588743 
L 191.257921 159.371877 
L 191.639214 164.530813 
L 194.292059 147.918151 
L 194.787598 148.022397 
L 196.543107 145.615574 
L 197.816316 150.512709 
L 198.256087 157.83893 
L 198.333766 157.407345 
L 200.222213 143.144046 
L 200.488946 154.545633 
L 201.354368 155.155737 
L 201.951185 145.93437 
L 202.670004 160.957443 
L 202.989187 126.091898 
L 203.486971 141.874343 
L 203.798368 143.12983 
L 203.935741 152.73707 
L 204.570353 144.567666 
L 205.171844 154.850693 
L 205.543532 142.933295 
L 205.760519 142.777775 
L 205.936517 142.904364 
L 208.100239 132.048818 
L 209.058775 145.901481 
L 209.549265 158.160884 
L 210.807781 139.308956 
L 211.648173 139.139941 
L 213.06731 135.348142 
L 213.21015 137.772227 
L 213.797661 129.912179 
L 213.927153 131.147646 
L 214.763019 131.202798 
L 215.589713 129.467755 
L 216.25376 140.164625 
L 216.333633 145.696676 
L 216.938906 128.767846 
L 218.850561 129.726495 
L 218.912343 140.960397 
L 219.481857 140.789427 
L 219.481902 142.018723 
L 219.656819 139.08918 
L 219.937916 130.0275 
L 220.347512 129.885524 
L 220.56528 127.197988 
L 220.934725 128.674515 
L 221.19573 122.377963 
L 221.649079 140.686591 
L 222.77106 135.232612 
L 223.338599 137.164895 
L 225.557968 128.291014 
L 227.726811 152.360236 
L 228.407287 137.288808 
L 228.526963 127.001052 
L 228.925073 136.632094 
L 230.575943 135.52804 
L 231.023106 130.715356 
L 231.707171 128.51874 
L 232.332379 138.495809 
L 233.345992 133.869274 
L 233.409442 141.211106 
L 234.065213 133.042952 
L 235.261342 125.487948 
L 235.537172 127.154375 
L 236.213976 129.746129 
L 236.492042 138.558719 
L 236.879695 128.790782 
L 237.034024 135.194402 
L 237.83466 121.489004 
L 239.153924 128.501958 
L 239.667451 122.410804 
L 240.339255 127.622857 
L 240.897047 135.393373 
L 241.481088 123.386875 
L 241.968165 146.016994 
L 242.437396 135.083344 
L 243.44772 130.085521 
L 244.197548 111.734114 
L 245.110563 126.493655 
L 245.273412 115.786399 
L 245.573752 115.758976 
L 246.264074 125.787206 
L 247.297582 119.485685 
L 249.76442 121.852005 
L 251.137548 131.24306 
L 251.26013 138.582649 
L 251.276483 136.254219 
L 253.225169 121.544813 
L 253.815993 110.770433 
L 255.723039 112.674202 
L 256.116359 123.152578 
L 256.361837 118.032109 
L 256.811843 120.88717 
L 257.686172 122.399809 
L 258.344327 115.082804 
L 260.565665 127.199574 
L 261.366045 106.672436 
L 262.34014 120.940623 
L 263.156965 108.533747 
L 263.501271 127.69104 
L 263.856037 118.003419 
L 264.467069 114.396647 
L 266.211212 127.852121 
L 266.895495 125.051715 
L 266.933854 119.984155 
L 267.132449 117.770244 
L 267.846414 125.986819 
L 269.570685 116.38397 
L 271.588964 116.152558 
L 271.900868 121.429204 
L 272.303674 112.722494 
L 273.283176 121.046792 
L 274.854439 114.500268 
L 274.959168 123.896468 
L 275.436142 108.480646 
L 276.547228 112.745559 
L 276.646135 118.944741 
L 277.728454 125.788633 
L 278.318262 107.173406 
L 279.286307 111.516486 
L 280.507576 105.578655 
L 280.585873 102.823273 
L 281.438377 118.797012 
L 282.972255 103.980876 
L 282.982609 104.270453 
L 283.151379 104.646245 
L 283.70259 109.848649 
L 284.137427 110.879487 
L 284.323565 116.710011 
L 284.908654 110.220113 
L 286.421884 96.784225 
L 287.80358 121.076124 
L 288.952762 108.480967 
L 289.149494 110.768269 
L 289.320398 102.350977 
L 289.329246 104.587422 
L 290.273052 117.251547 
L 290.422951 112.086729 
L 291.140198 97.884849 
L 291.516193 117.95229 
L 292.219047 97.502566 
L 292.654468 116.129943 
L 292.689531 113.2029 
L 293.434725 104.339999 
L 295.459853 94.312297 
L 295.711687 106.012949 
L 296.513708 99.048159 
L 298.428255 100.499891 
L 299.710924 112.800214 
L 300.51292 89.200723 
L 301.281543 95.289874 
L 301.525198 111.596113 
L 302.055409 111.838793 
L 302.133118 117.755659 
L 302.82681 109.62929 
L 303.207149 111.366064 
L 303.379507 116.20872 
L 303.609141 101.199175 
L 305.346734 121.932434 
L 306.250793 106.196341 
L 306.41348 123.013151 
L 306.696166 125.19563 
L 307.700046 119.879236 
L 310.564291 106.333076 
L 310.756231 102.27813 
L 310.887877 102.370819 
L 311.769069 103.483224 
L 312.239395 98.18704 
L 312.9733 103.243269 
L 313.946193 108.419019 
L 314.326856 114.445981 
L 314.678954 111.696144 
L 320.713148 100.982253 
L 324.477187 102.595756 
L 325.075916 101.82917 
L 325.940779 118.190578 
L 327.964782 106.758217 
L 328.272652 112.800134 
L 328.778926 108.071677 
L 329.918268 116.076361 
L 331.02972 106.070249 
L 331.120896 114.136417 
L 331.475722 113.345533 
L 331.861076 115.071216 
L 332.232049 98.013185 
L 333.192259 128.336598 
L 335.194051 96.632504 
L 335.967137 117.944308 
L 336.121616 108.656858 
L 336.902687 111.918708 
L 337.319897 112.632305 
L 339.93602 97.588059 
L 340.888395 100.932278 
L 341.549051 118.013148 
L 343.073275 103.196628 
L 343.082395 103.780735 
L 344.333618 109.478659 
L 344.41054 111.98072 
L 345.675036 98.476041 
L 346.449538 119.517196 
L 346.891957 108.822971 
L 347.47248 107.820006 
L 347.641356 102.124021 
L 349.703535 103.466811 
L 351.274816 102.248125 
L 351.975209 102.113106 
L 352.560966 100.74802 
L 352.976845 103.128798 
L 354.364958 105.580098 
L 354.752168 91.172195 
L 355.558531 100.953162 
L 356.442942 107.114006 
L 357.296344 83.431154 
L 358.189724 95.742472 
L 360.229773 103.026924 
L 360.542395 93.023873 
L 362.2578 100.454388 
L 362.716532 117.188718 
L 363.995725 84.359141 
L 364.437607 87.253422 
L 364.865078 114.303348 
L 366.641631 88.443755 
L 368.036128 90.028183 
L 369.750452 75.150308 
L 371.647032 83.14366 
L 372.344573 81.838471 
L 372.553966 83.670628 
L 374.093532 90.022124 
L 374.345435 90.445246 
L 374.426139 93.798953 
L 375.41469 87.293652 
L 376.03022 72.411209 
L 376.134089 73.487022 
L 377.61223 106.424531 
L 377.844748 98.217606 
L 379.499883 77.973825 
L 379.529784 79.967543 
L 380.192555 111.189836 
L 380.568092 76.485677 
L 381.47266 79.415957 
L 382.582825 84.923053 
L 382.820536 83.506341 
L 383.641031 86.944595 
L 383.956247 77.705341 
L 384.636596 86.216269 
L 385.132703 88.203544 
L 387.971462 86.628428 
L 389.781386 84.599977 
L 390.053556 87.718009 
L 392.370922 70.666341 
L 392.455515 73.35633 
L 393.256711 53.568 
L 393.559625 75.480291 
L 394.953253 82.489848 
L 395.145141 82.472297 
L 395.34999 80.695213 
L 397.314181 82.305093 
L 399.440968 81.671588 
L 399.694415 76.851019 
L 399.783767 71.697067 
L 399.9318 83.035904 
L 402.00296 74.550685 
L 402.925755 72.957859 
L 404.431238 70.013378 
L 404.791053 68.796102 
L 405.24524 68.082585 
L 405.252114 64.527391 
L 405.834671 68.392614 
L 406.992686 70.385627 
L 407.051316 83.377204 
L 407.570152 100.340157 
L 408.871511 69.428437 
L 410.510477 67.973932 
L 411.271381 75.157039 
L 411.635293 61.446224 
L 412.218879 67.365334 
L 412.438229 65.794706 
L 413.423723 78.248817 
L 413.79146 71.309239 
L 414.72 63.925605 
L 414.72 63.925605 
" style="fill:none;stroke:#000000;stroke-linecap:square;stroke-width:0.8;"/>
   </g>
   <g id="patch_3">
    <path d="M 57.6 307.584 
L 57.6 41.472 
" style="fill:none;stroke:#000000;stroke-linecap:square;stroke-linejoin:miter;stroke-width:0.8;"/>
   </g>
   <g id="patch_4">
    <path d="M 414.72 307.584 
L 414.72 41.472 
" style="fill:none;stroke:#000000;stroke-linecap:square;stroke-linejoin:miter;stroke-width:0.8;"/>
   </g>
   <g id="patch_5">
    <path d="M 57.6 307.584 
L 414.72 307.584 
" style="fill:none;stroke:#000000;stroke-linecap:square;stroke-linejoin:miter;stroke-width:0.8;"/>
   </g>
   <g id="patch_6">
    <path d="M 57.6 41.472 
L 414.72 41.472 
" style="fill:none;stroke:#000000;stroke-linecap:square;stroke-linejoin:miter;stroke-width:0.8;"/>
   </g>
  </g>
  <g id="axes_2">
   <g id="matplotlib.axis_3">
    <g id="xtick_9">
     <g id="line2d_34">
      <defs>
       <path d="M 0 0 
L 0 -3.5 
" id="m4d96bc62df" style="stroke:#000000;stroke-width:0.8;"/>
      </defs>
      <g>
       <use style="stroke:#000000;stroke-width:0.8;" x="57.6" xlink:href="#m4d96bc62df" y="41.472"/>
      </g>
     </g>
    </g>
    <g id="xtick_10">
     <g id="line2d_35">
      <g>
       <use style="stroke:#000000;stroke-width:0.8;" x="129.375991" xlink:href="#m4d96bc62df" y="41.472"/>
      </g>
     </g>
     <g id="text_19">
      <!-- 20.0M -->
      <g transform="translate(113.929116 32.392313)scale(0.1 -0.1)">
       <use xlink:href="#DejaVuSans-50"/>
       <use x="63.623047" xlink:href="#DejaVuSans-48"/>
       <use x="127.246094" xlink:href="#DejaVuSans-46"/>
       <use x="159.033203" xlink:href="#DejaVuSans-48"/>
       <use x="222.65625" xlink:href="#DejaVuSans-77"/>
      </g>
     </g>
    </g>
    <g id="xtick_11">
     <g id="line2d_36">
      <g>
       <use style="stroke:#000000;stroke-width:0.8;" x="201.151982" xlink:href="#m4d96bc62df" y="41.472"/>
      </g>
     </g>
     <g id="text_20">
      <!-- 40.0M -->
      <defs>
       <path d="M 37.796875 64.3125 
L 12.890625 25.390625 
L 37.796875 25.390625 
z
M 35.203125 72.90625 
L 47.609375 72.90625 
L 47.609375 25.390625 
L 58.015625 25.390625 
L 58.015625 17.1875 
L 47.609375 17.1875 
L 47.609375 0 
L 37.796875 0 
L 37.796875 17.1875 
L 4.890625 17.1875 
L 4.890625 26.703125 
z
" id="DejaVuSans-52"/>
      </defs>
      <g transform="translate(185.705107 32.392313)scale(0.1 -0.1)">
       <use xlink:href="#DejaVuSans-52"/>
       <use x="63.623047" xlink:href="#DejaVuSans-48"/>
       <use x="127.246094" xlink:href="#DejaVuSans-46"/>
       <use x="159.033203" xlink:href="#DejaVuSans-48"/>
       <use x="222.65625" xlink:href="#DejaVuSans-77"/>
      </g>
     </g>
    </g>
    <g id="xtick_12">
     <g id="line2d_37">
      <g>
       <use style="stroke:#000000;stroke-width:0.8;" x="272.927973" xlink:href="#m4d96bc62df" y="41.472"/>
      </g>
     </g>
     <g id="text_21">
      <!-- 60.0M -->
      <defs>
       <path d="M 33.015625 40.375 
Q 26.375 40.375 22.484375 35.828125 
Q 18.609375 31.296875 18.609375 23.390625 
Q 18.609375 15.53125 22.484375 10.953125 
Q 26.375 6.390625 33.015625 6.390625 
Q 39.65625 6.390625 43.53125 10.953125 
Q 47.40625 15.53125 47.40625 23.390625 
Q 47.40625 31.296875 43.53125 35.828125 
Q 39.65625 40.375 33.015625 40.375 
z
M 52.59375 71.296875 
L 52.59375 62.3125 
Q 48.875 64.0625 45.09375 64.984375 
Q 41.3125 65.921875 37.59375 65.921875 
Q 27.828125 65.921875 22.671875 59.328125 
Q 17.53125 52.734375 16.796875 39.40625 
Q 19.671875 43.65625 24.015625 45.921875 
Q 28.375 48.1875 33.59375 48.1875 
Q 44.578125 48.1875 50.953125 41.515625 
Q 57.328125 34.859375 57.328125 23.390625 
Q 57.328125 12.15625 50.6875 5.359375 
Q 44.046875 -1.421875 33.015625 -1.421875 
Q 20.359375 -1.421875 13.671875 8.265625 
Q 6.984375 17.96875 6.984375 36.375 
Q 6.984375 53.65625 15.1875 63.9375 
Q 23.390625 74.21875 37.203125 74.21875 
Q 40.921875 74.21875 44.703125 73.484375 
Q 48.484375 72.75 52.59375 71.296875 
z
" id="DejaVuSans-54"/>
      </defs>
      <g transform="translate(257.481098 32.392313)scale(0.1 -0.1)">
       <use xlink:href="#DejaVuSans-54"/>
       <use x="63.623047" xlink:href="#DejaVuSans-48"/>
       <use x="127.246094" xlink:href="#DejaVuSans-46"/>
       <use x="159.033203" xlink:href="#DejaVuSans-48"/>
       <use x="222.65625" xlink:href="#DejaVuSans-77"/>
      </g>
     </g>
    </g>
    <g id="xtick_13">
     <g id="line2d_38">
      <g>
       <use style="stroke:#000000;stroke-width:0.8;" x="344.703964" xlink:href="#m4d96bc62df" y="41.472"/>
      </g>
     </g>
     <g id="text_22">
      <!-- 80.0M -->
      <defs>
       <path d="M 31.78125 34.625 
Q 24.75 34.625 20.71875 30.859375 
Q 16.703125 27.09375 16.703125 20.515625 
Q 16.703125 13.921875 20.71875 10.15625 
Q 24.75 6.390625 31.78125 6.390625 
Q 38.8125 6.390625 42.859375 10.171875 
Q 46.921875 13.96875 46.921875 20.515625 
Q 46.921875 27.09375 42.890625 30.859375 
Q 38.875 34.625 31.78125 34.625 
z
M 21.921875 38.8125 
Q 15.578125 40.375 12.03125 44.71875 
Q 8.5 49.078125 8.5 55.328125 
Q 8.5 64.0625 14.71875 69.140625 
Q 20.953125 74.21875 31.78125 74.21875 
Q 42.671875 74.21875 48.875 69.140625 
Q 55.078125 64.0625 55.078125 55.328125 
Q 55.078125 49.078125 51.53125 44.71875 
Q 48 40.375 41.703125 38.8125 
Q 48.828125 37.15625 52.796875 32.3125 
Q 56.78125 27.484375 56.78125 20.515625 
Q 56.78125 9.90625 50.3125 4.234375 
Q 43.84375 -1.421875 31.78125 -1.421875 
Q 19.734375 -1.421875 13.25 4.234375 
Q 6.78125 9.90625 6.78125 20.515625 
Q 6.78125 27.484375 10.78125 32.3125 
Q 14.796875 37.15625 21.921875 38.8125 
z
M 18.3125 54.390625 
Q 18.3125 48.734375 21.84375 45.5625 
Q 25.390625 42.390625 31.78125 42.390625 
Q 38.140625 42.390625 41.71875 45.5625 
Q 45.3125 48.734375 45.3125 54.390625 
Q 45.3125 60.0625 41.71875 63.234375 
Q 38.140625 66.40625 31.78125 66.40625 
Q 25.390625 66.40625 21.84375 63.234375 
Q 18.3125 60.0625 18.3125 54.390625 
z
" id="DejaVuSans-56"/>
      </defs>
      <g transform="translate(329.257089 32.392313)scale(0.1 -0.1)">
       <use xlink:href="#DejaVuSans-56"/>
       <use x="63.623047" xlink:href="#DejaVuSans-48"/>
       <use x="127.246094" xlink:href="#DejaVuSans-46"/>
       <use x="159.033203" xlink:href="#DejaVuSans-48"/>
       <use x="222.65625" xlink:href="#DejaVuSans-77"/>
      </g>
     </g>
    </g>
    <g id="text_23">
     <!-- Steps -->
     <defs>
      <path d="M 53.515625 70.515625 
L 53.515625 60.890625 
Q 47.90625 63.578125 42.921875 64.890625 
Q 37.9375 66.21875 33.296875 66.21875 
Q 25.25 66.21875 20.875 63.09375 
Q 16.5 59.96875 16.5 54.203125 
Q 16.5 49.359375 19.40625 46.890625 
Q 22.3125 44.4375 30.421875 42.921875 
L 36.375 41.703125 
Q 47.40625 39.59375 52.65625 34.296875 
Q 57.90625 29 57.90625 20.125 
Q 57.90625 9.515625 50.796875 4.046875 
Q 43.703125 -1.421875 29.984375 -1.421875 
Q 24.8125 -1.421875 18.96875 -0.25 
Q 13.140625 0.921875 6.890625 3.21875 
L 6.890625 13.375 
Q 12.890625 10.015625 18.65625 8.296875 
Q 24.421875 6.59375 29.984375 6.59375 
Q 38.421875 6.59375 43.015625 9.90625 
Q 47.609375 13.234375 47.609375 19.390625 
Q 47.609375 24.75 44.3125 27.78125 
Q 41.015625 30.8125 33.5 32.328125 
L 27.484375 33.5 
Q 16.453125 35.6875 11.515625 40.375 
Q 6.59375 45.0625 6.59375 53.421875 
Q 6.59375 63.09375 13.40625 68.65625 
Q 20.21875 74.21875 32.171875 74.21875 
Q 37.3125 74.21875 42.625 73.28125 
Q 47.953125 72.359375 53.515625 70.515625 
z
" id="DejaVuSans-83"/>
      <path d="M 18.109375 8.203125 
L 18.109375 -20.796875 
L 9.078125 -20.796875 
L 9.078125 54.6875 
L 18.109375 54.6875 
L 18.109375 46.390625 
Q 20.953125 51.265625 25.265625 53.625 
Q 29.59375 56 35.59375 56 
Q 45.5625 56 51.78125 48.09375 
Q 58.015625 40.1875 58.015625 27.296875 
Q 58.015625 14.40625 51.78125 6.484375 
Q 45.5625 -1.421875 35.59375 -1.421875 
Q 29.59375 -1.421875 25.265625 0.953125 
Q 20.953125 3.328125 18.109375 8.203125 
z
M 48.6875 27.296875 
Q 48.6875 37.203125 44.609375 42.84375 
Q 40.53125 48.484375 33.40625 48.484375 
Q 26.265625 48.484375 22.1875 42.84375 
Q 18.109375 37.203125 18.109375 27.296875 
Q 18.109375 17.390625 22.1875 11.75 
Q 26.265625 6.109375 33.40625 6.109375 
Q 40.53125 6.109375 44.609375 11.75 
Q 48.6875 17.390625 48.6875 27.296875 
z
" id="DejaVuSans-112"/>
     </defs>
     <g transform="translate(222.170156 20.793875)scale(0.1 -0.1)">
      <use xlink:href="#DejaVuSans-83"/>
      <use x="63.476562" xlink:href="#DejaVuSans-116"/>
      <use x="102.685547" xlink:href="#DejaVuSans-101"/>
      <use x="164.208984" xlink:href="#DejaVuSans-112"/>
      <use x="227.685547" xlink:href="#DejaVuSans-115"/>
     </g>
    </g>
   </g>
   <g id="patch_7">
    <path d="M 57.6 307.584 
L 57.6 41.472 
" style="fill:none;stroke:#000000;stroke-linecap:square;stroke-linejoin:miter;stroke-width:0.8;"/>
   </g>
   <g id="patch_8">
    <path d="M 414.72 307.584 
L 414.72 41.472 
" style="fill:none;stroke:#000000;stroke-linecap:square;stroke-linejoin:miter;stroke-width:0.8;"/>
   </g>
   <g id="patch_9">
    <path d="M 57.6 307.584 
L 414.72 307.584 
" style="fill:none;stroke:#000000;stroke-linecap:square;stroke-linejoin:miter;stroke-width:0.8;"/>
   </g>
   <g id="patch_10">
    <path d="M 57.6 41.472 
L 414.72 41.472 
" style="fill:none;stroke:#000000;stroke-linecap:square;stroke-linejoin:miter;stroke-width:0.8;"/>
   </g>
  </g>
 </g>
 <defs>
  <clipPath id="p4fe092e993">
   <rect height="266.112" width="357.12" x="57.6" y="41.472"/>
  </clipPath>
 </defs>
</svg>
