<?xml version="1.0" encoding="utf-8" standalone="no"?>
<!DOCTYPE svg PUBLIC "-//W3C//DTD SVG 1.1//EN"
  "http://www.w3.org/Graphics/SVG/1.1/DTD/svg11.dtd">
<!-- Created with matplotlib (https://matplotlib.org/) -->
<svg height="345.6pt" version="1.1" viewBox="0 0 460.8 345.6" width="460.8pt" xmlns="http://www.w3.org/2000/svg" xmlns:xlink="http://www.w3.org/1999/xlink">
 <defs>
  <style type="text/css">
*{stroke-linecap:butt;stroke-linejoin:round;}
  </style>
 </defs>
 <g id="figure_1">
  <g id="patch_1">
   <path d="M 0 345.6 
L 460.8 345.6 
L 460.8 0 
L 0 0 
z
" style="fill:#ffffff;"/>
  </g>
  <g id="axes_1">
   <g id="patch_2">
    <path d="M 57.6 307.584 
L 414.72 307.584 
L 414.72 41.472 
L 57.6 41.472 
z
" style="fill:#ffffff;"/>
   </g>
   <g id="matplotlib.axis_1">
    <g id="xtick_1">
     <g id="line2d_1">
      <path clip-path="url(#p113e4d6252)" d="M 57.6 307.584 
L 57.6 41.472 
" style="fill:none;stroke:#b0b0b0;stroke-linecap:square;stroke-width:0.8;"/>
     </g>
     <g id="line2d_2">
      <defs>
       <path d="M 0 0 
L 0 3.5 
" id="md74981d5fc" style="stroke:#000000;stroke-width:0.8;"/>
      </defs>
      <g>
       <use style="stroke:#000000;stroke-width:0.8;" x="57.6" xlink:href="#md74981d5fc" y="307.584"/>
      </g>
     </g>
     <g id="text_1">
      <!-- 0.0 -->
      <defs>
       <path d="M 31.78125 66.40625 
Q 24.171875 66.40625 20.328125 58.90625 
Q 16.5 51.421875 16.5 36.375 
Q 16.5 21.390625 20.328125 13.890625 
Q 24.171875 6.390625 31.78125 6.390625 
Q 39.453125 6.390625 43.28125 13.890625 
Q 47.125 21.390625 47.125 36.375 
Q 47.125 51.421875 43.28125 58.90625 
Q 39.453125 66.40625 31.78125 66.40625 
z
M 31.78125 74.21875 
Q 44.046875 74.21875 50.515625 64.515625 
Q 56.984375 54.828125 56.984375 36.375 
Q 56.984375 17.96875 50.515625 8.265625 
Q 44.046875 -1.421875 31.78125 -1.421875 
Q 19.53125 -1.421875 13.0625 8.265625 
Q 6.59375 17.96875 6.59375 36.375 
Q 6.59375 54.828125 13.0625 64.515625 
Q 19.53125 74.21875 31.78125 74.21875 
z
" id="DejaVuSans-48"/>
       <path d="M 10.6875 12.40625 
L 21 12.40625 
L 21 0 
L 10.6875 0 
z
" id="DejaVuSans-46"/>
      </defs>
      <g transform="translate(49.648438 322.182437)scale(0.1 -0.1)">
       <use xlink:href="#DejaVuSans-48"/>
       <use x="63.623047" xlink:href="#DejaVuSans-46"/>
       <use x="95.410156" xlink:href="#DejaVuSans-48"/>
      </g>
     </g>
    </g>
    <g id="xtick_2">
     <g id="line2d_3">
      <path clip-path="url(#p113e4d6252)" d="M 103.467246 307.584 
L 103.467246 41.472 
" style="fill:none;stroke:#b0b0b0;stroke-linecap:square;stroke-width:0.8;"/>
     </g>
     <g id="line2d_4">
      <g>
       <use style="stroke:#000000;stroke-width:0.8;" x="103.467246" xlink:href="#md74981d5fc" y="307.584"/>
      </g>
     </g>
     <g id="text_2">
      <!-- 2.5 -->
      <defs>
       <path d="M 19.1875 8.296875 
L 53.609375 8.296875 
L 53.609375 0 
L 7.328125 0 
L 7.328125 8.296875 
Q 12.9375 14.109375 22.625 23.890625 
Q 32.328125 33.6875 34.8125 36.53125 
Q 39.546875 41.84375 41.421875 45.53125 
Q 43.3125 49.21875 43.3125 52.78125 
Q 43.3125 58.59375 39.234375 62.25 
Q 35.15625 65.921875 28.609375 65.921875 
Q 23.96875 65.921875 18.8125 64.3125 
Q 13.671875 62.703125 7.8125 59.421875 
L 7.8125 69.390625 
Q 13.765625 71.78125 18.9375 73 
Q 24.125 74.21875 28.421875 74.21875 
Q 39.75 74.21875 46.484375 68.546875 
Q 53.21875 62.890625 53.21875 53.421875 
Q 53.21875 48.921875 51.53125 44.890625 
Q 49.859375 40.875 45.40625 35.40625 
Q 44.1875 33.984375 37.640625 27.21875 
Q 31.109375 20.453125 19.1875 8.296875 
z
" id="DejaVuSans-50"/>
       <path d="M 10.796875 72.90625 
L 49.515625 72.90625 
L 49.515625 64.59375 
L 19.828125 64.59375 
L 19.828125 46.734375 
Q 21.96875 47.46875 24.109375 47.828125 
Q 26.265625 48.1875 28.421875 48.1875 
Q 40.625 48.1875 47.75 41.5 
Q 54.890625 34.8125 54.890625 23.390625 
Q 54.890625 11.625 47.5625 5.09375 
Q 40.234375 -1.421875 26.90625 -1.421875 
Q 22.3125 -1.421875 17.546875 -0.640625 
Q 12.796875 0.140625 7.71875 1.703125 
L 7.71875 11.625 
Q 12.109375 9.234375 16.796875 8.0625 
Q 21.484375 6.890625 26.703125 6.890625 
Q 35.15625 6.890625 40.078125 11.328125 
Q 45.015625 15.765625 45.015625 23.390625 
Q 45.015625 31 40.078125 35.4375 
Q 35.15625 39.890625 26.703125 39.890625 
Q 22.75 39.890625 18.8125 39.015625 
Q 14.890625 38.140625 10.796875 36.28125 
z
" id="DejaVuSans-53"/>
      </defs>
      <g transform="translate(95.515684 322.182437)scale(0.1 -0.1)">
       <use xlink:href="#DejaVuSans-50"/>
       <use x="63.623047" xlink:href="#DejaVuSans-46"/>
       <use x="95.410156" xlink:href="#DejaVuSans-53"/>
      </g>
     </g>
    </g>
    <g id="xtick_3">
     <g id="line2d_5">
      <path clip-path="url(#p113e4d6252)" d="M 149.334493 307.584 
L 149.334493 41.472 
" style="fill:none;stroke:#b0b0b0;stroke-linecap:square;stroke-width:0.8;"/>
     </g>
     <g id="line2d_6">
      <g>
       <use style="stroke:#000000;stroke-width:0.8;" x="149.334493" xlink:href="#md74981d5fc" y="307.584"/>
      </g>
     </g>
     <g id="text_3">
      <!-- 5.0 -->
      <g transform="translate(141.38293 322.182437)scale(0.1 -0.1)">
       <use xlink:href="#DejaVuSans-53"/>
       <use x="63.623047" xlink:href="#DejaVuSans-46"/>
       <use x="95.410156" xlink:href="#DejaVuSans-48"/>
      </g>
     </g>
    </g>
    <g id="xtick_4">
     <g id="line2d_7">
      <path clip-path="url(#p113e4d6252)" d="M 195.201739 307.584 
L 195.201739 41.472 
" style="fill:none;stroke:#b0b0b0;stroke-linecap:square;stroke-width:0.8;"/>
     </g>
     <g id="line2d_8">
      <g>
       <use style="stroke:#000000;stroke-width:0.8;" x="195.201739" xlink:href="#md74981d5fc" y="307.584"/>
      </g>
     </g>
     <g id="text_4">
      <!-- 7.5 -->
      <defs>
       <path d="M 8.203125 72.90625 
L 55.078125 72.90625 
L 55.078125 68.703125 
L 28.609375 0 
L 18.3125 0 
L 43.21875 64.59375 
L 8.203125 64.59375 
z
" id="DejaVuSans-55"/>
      </defs>
      <g transform="translate(187.250177 322.182437)scale(0.1 -0.1)">
       <use xlink:href="#DejaVuSans-55"/>
       <use x="63.623047" xlink:href="#DejaVuSans-46"/>
       <use x="95.410156" xlink:href="#DejaVuSans-53"/>
      </g>
     </g>
    </g>
    <g id="xtick_5">
     <g id="line2d_9">
      <path clip-path="url(#p113e4d6252)" d="M 241.068985 307.584 
L 241.068985 41.472 
" style="fill:none;stroke:#b0b0b0;stroke-linecap:square;stroke-width:0.8;"/>
     </g>
     <g id="line2d_10">
      <g>
       <use style="stroke:#000000;stroke-width:0.8;" x="241.068985" xlink:href="#md74981d5fc" y="307.584"/>
      </g>
     </g>
     <g id="text_5">
      <!-- 10.0 -->
      <defs>
       <path d="M 12.40625 8.296875 
L 28.515625 8.296875 
L 28.515625 63.921875 
L 10.984375 60.40625 
L 10.984375 69.390625 
L 28.421875 72.90625 
L 38.28125 72.90625 
L 38.28125 8.296875 
L 54.390625 8.296875 
L 54.390625 0 
L 12.40625 0 
z
" id="DejaVuSans-49"/>
      </defs>
      <g transform="translate(229.936173 322.182437)scale(0.1 -0.1)">
       <use xlink:href="#DejaVuSans-49"/>
       <use x="63.623047" xlink:href="#DejaVuSans-48"/>
       <use x="127.246094" xlink:href="#DejaVuSans-46"/>
       <use x="159.033203" xlink:href="#DejaVuSans-48"/>
      </g>
     </g>
    </g>
    <g id="xtick_6">
     <g id="line2d_11">
      <path clip-path="url(#p113e4d6252)" d="M 286.936232 307.584 
L 286.936232 41.472 
" style="fill:none;stroke:#b0b0b0;stroke-linecap:square;stroke-width:0.8;"/>
     </g>
     <g id="line2d_12">
      <g>
       <use style="stroke:#000000;stroke-width:0.8;" x="286.936232" xlink:href="#md74981d5fc" y="307.584"/>
      </g>
     </g>
     <g id="text_6">
      <!-- 12.5 -->
      <g transform="translate(275.803419 322.182437)scale(0.1 -0.1)">
       <use xlink:href="#DejaVuSans-49"/>
       <use x="63.623047" xlink:href="#DejaVuSans-50"/>
       <use x="127.246094" xlink:href="#DejaVuSans-46"/>
       <use x="159.033203" xlink:href="#DejaVuSans-53"/>
      </g>
     </g>
    </g>
    <g id="xtick_7">
     <g id="line2d_13">
      <path clip-path="url(#p113e4d6252)" d="M 332.803478 307.584 
L 332.803478 41.472 
" style="fill:none;stroke:#b0b0b0;stroke-linecap:square;stroke-width:0.8;"/>
     </g>
     <g id="line2d_14">
      <g>
       <use style="stroke:#000000;stroke-width:0.8;" x="332.803478" xlink:href="#md74981d5fc" y="307.584"/>
      </g>
     </g>
     <g id="text_7">
      <!-- 15.0 -->
      <g transform="translate(321.670666 322.182437)scale(0.1 -0.1)">
       <use xlink:href="#DejaVuSans-49"/>
       <use x="63.623047" xlink:href="#DejaVuSans-53"/>
       <use x="127.246094" xlink:href="#DejaVuSans-46"/>
       <use x="159.033203" xlink:href="#DejaVuSans-48"/>
      </g>
     </g>
    </g>
    <g id="xtick_8">
     <g id="line2d_15">
      <path clip-path="url(#p113e4d6252)" d="M 378.670725 307.584 
L 378.670725 41.472 
" style="fill:none;stroke:#b0b0b0;stroke-linecap:square;stroke-width:0.8;"/>
     </g>
     <g id="line2d_16">
      <g>
       <use style="stroke:#000000;stroke-width:0.8;" x="378.670725" xlink:href="#md74981d5fc" y="307.584"/>
      </g>
     </g>
     <g id="text_8">
      <!-- 17.5 -->
      <g transform="translate(367.537912 322.182437)scale(0.1 -0.1)">
       <use xlink:href="#DejaVuSans-49"/>
       <use x="63.623047" xlink:href="#DejaVuSans-55"/>
       <use x="127.246094" xlink:href="#DejaVuSans-46"/>
       <use x="159.033203" xlink:href="#DejaVuSans-53"/>
      </g>
     </g>
    </g>
    <g id="text_9">
     <!-- Hours -->
     <defs>
      <path d="M 9.8125 72.90625 
L 19.671875 72.90625 
L 19.671875 43.015625 
L 55.515625 43.015625 
L 55.515625 72.90625 
L 65.375 72.90625 
L 65.375 0 
L 55.515625 0 
L 55.515625 34.71875 
L 19.671875 34.71875 
L 19.671875 0 
L 9.8125 0 
z
" id="DejaVuSans-72"/>
      <path d="M 30.609375 48.390625 
Q 23.390625 48.390625 19.1875 42.75 
Q 14.984375 37.109375 14.984375 27.296875 
Q 14.984375 17.484375 19.15625 11.84375 
Q 23.34375 6.203125 30.609375 6.203125 
Q 37.796875 6.203125 41.984375 11.859375 
Q 46.1875 17.53125 46.1875 27.296875 
Q 46.1875 37.015625 41.984375 42.703125 
Q 37.796875 48.390625 30.609375 48.390625 
z
M 30.609375 56 
Q 42.328125 56 49.015625 48.375 
Q 55.71875 40.765625 55.71875 27.296875 
Q 55.71875 13.875 49.015625 6.21875 
Q 42.328125 -1.421875 30.609375 -1.421875 
Q 18.84375 -1.421875 12.171875 6.21875 
Q 5.515625 13.875 5.515625 27.296875 
Q 5.515625 40.765625 12.171875 48.375 
Q 18.84375 56 30.609375 56 
z
" id="DejaVuSans-111"/>
      <path d="M 8.5 21.578125 
L 8.5 54.6875 
L 17.484375 54.6875 
L 17.484375 21.921875 
Q 17.484375 14.15625 20.5 10.265625 
Q 23.53125 6.390625 29.59375 6.390625 
Q 36.859375 6.390625 41.078125 11.03125 
Q 45.3125 15.671875 45.3125 23.6875 
L 45.3125 54.6875 
L 54.296875 54.6875 
L 54.296875 0 
L 45.3125 0 
L 45.3125 8.40625 
Q 42.046875 3.421875 37.71875 1 
Q 33.40625 -1.421875 27.6875 -1.421875 
Q 18.265625 -1.421875 13.375 4.4375 
Q 8.5 10.296875 8.5 21.578125 
z
M 31.109375 56 
z
" id="DejaVuSans-117"/>
      <path d="M 41.109375 46.296875 
Q 39.59375 47.171875 37.8125 47.578125 
Q 36.03125 48 33.890625 48 
Q 26.265625 48 22.1875 43.046875 
Q 18.109375 38.09375 18.109375 28.8125 
L 18.109375 0 
L 9.078125 0 
L 9.078125 54.6875 
L 18.109375 54.6875 
L 18.109375 46.1875 
Q 20.953125 51.171875 25.484375 53.578125 
Q 30.03125 56 36.53125 56 
Q 37.453125 56 38.578125 55.875 
Q 39.703125 55.765625 41.0625 55.515625 
z
" id="DejaVuSans-114"/>
      <path d="M 44.28125 53.078125 
L 44.28125 44.578125 
Q 40.484375 46.53125 36.375 47.5 
Q 32.28125 48.484375 27.875 48.484375 
Q 21.1875 48.484375 17.84375 46.4375 
Q 14.5 44.390625 14.5 40.28125 
Q 14.5 37.15625 16.890625 35.375 
Q 19.28125 33.59375 26.515625 31.984375 
L 29.59375 31.296875 
Q 39.15625 29.25 43.1875 25.515625 
Q 47.21875 21.78125 47.21875 15.09375 
Q 47.21875 7.46875 41.1875 3.015625 
Q 35.15625 -1.421875 24.609375 -1.421875 
Q 20.21875 -1.421875 15.453125 -0.5625 
Q 10.6875 0.296875 5.421875 2 
L 5.421875 11.28125 
Q 10.40625 8.6875 15.234375 7.390625 
Q 20.0625 6.109375 24.8125 6.109375 
Q 31.15625 6.109375 34.5625 8.28125 
Q 37.984375 10.453125 37.984375 14.40625 
Q 37.984375 18.0625 35.515625 20.015625 
Q 33.0625 21.96875 24.703125 23.78125 
L 21.578125 24.515625 
Q 13.234375 26.265625 9.515625 29.90625 
Q 5.8125 33.546875 5.8125 39.890625 
Q 5.8125 47.609375 11.28125 51.796875 
Q 16.75 56 26.8125 56 
Q 31.78125 56 36.171875 55.265625 
Q 40.578125 54.546875 44.28125 53.078125 
z
" id="DejaVuSans-115"/>
     </defs>
     <g transform="translate(221.511562 335.860562)scale(0.1 -0.1)">
      <use xlink:href="#DejaVuSans-72"/>
      <use x="75.195312" xlink:href="#DejaVuSans-111"/>
      <use x="136.376953" xlink:href="#DejaVuSans-117"/>
      <use x="199.755859" xlink:href="#DejaVuSans-114"/>
      <use x="240.869141" xlink:href="#DejaVuSans-115"/>
     </g>
    </g>
   </g>
   <g id="matplotlib.axis_2">
    <g id="ytick_1">
     <g id="line2d_17">
      <path clip-path="url(#p113e4d6252)" d="M 57.6 296.492175 
L 414.72 296.492175 
" style="fill:none;stroke:#b0b0b0;stroke-linecap:square;stroke-width:0.8;"/>
     </g>
     <g id="line2d_18">
      <defs>
       <path d="M 0 0 
L -3.5 0 
" id="ma0e6a9f5e3" style="stroke:#000000;stroke-width:0.8;"/>
      </defs>
      <g>
       <use style="stroke:#000000;stroke-width:0.8;" x="57.6" xlink:href="#ma0e6a9f5e3" y="296.492175"/>
      </g>
     </g>
     <g id="text_10">
      <!-- 0 -->
      <g transform="translate(44.2375 300.291393)scale(0.1 -0.1)">
       <use xlink:href="#DejaVuSans-48"/>
      </g>
     </g>
    </g>
    <g id="ytick_2">
     <g id="line2d_19">
      <path clip-path="url(#p113e4d6252)" d="M 57.6 241.252542 
L 414.72 241.252542 
" style="fill:none;stroke:#b0b0b0;stroke-linecap:square;stroke-width:0.8;"/>
     </g>
     <g id="line2d_20">
      <g>
       <use style="stroke:#000000;stroke-width:0.8;" x="57.6" xlink:href="#ma0e6a9f5e3" y="241.252542"/>
      </g>
     </g>
     <g id="text_11">
      <!-- 100 -->
      <g transform="translate(31.5125 245.051761)scale(0.1 -0.1)">
       <use xlink:href="#DejaVuSans-49"/>
       <use x="63.623047" xlink:href="#DejaVuSans-48"/>
       <use x="127.246094" xlink:href="#DejaVuSans-48"/>
      </g>
     </g>
    </g>
    <g id="ytick_3">
     <g id="line2d_21">
      <path clip-path="url(#p113e4d6252)" d="M 57.6 186.012909 
L 414.72 186.012909 
" style="fill:none;stroke:#b0b0b0;stroke-linecap:square;stroke-width:0.8;"/>
     </g>
     <g id="line2d_22">
      <g>
       <use style="stroke:#000000;stroke-width:0.8;" x="57.6" xlink:href="#ma0e6a9f5e3" y="186.012909"/>
      </g>
     </g>
     <g id="text_12">
      <!-- 200 -->
      <g transform="translate(31.5125 189.812128)scale(0.1 -0.1)">
       <use xlink:href="#DejaVuSans-50"/>
       <use x="63.623047" xlink:href="#DejaVuSans-48"/>
       <use x="127.246094" xlink:href="#DejaVuSans-48"/>
      </g>
     </g>
    </g>
    <g id="ytick_4">
     <g id="line2d_23">
      <path clip-path="url(#p113e4d6252)" d="M 57.6 130.773276 
L 414.72 130.773276 
" style="fill:none;stroke:#b0b0b0;stroke-linecap:square;stroke-width:0.8;"/>
     </g>
     <g id="line2d_24">
      <g>
       <use style="stroke:#000000;stroke-width:0.8;" x="57.6" xlink:href="#ma0e6a9f5e3" y="130.773276"/>
      </g>
     </g>
     <g id="text_13">
      <!-- 300 -->
      <defs>
       <path d="M 40.578125 39.3125 
Q 47.65625 37.796875 51.625 33 
Q 55.609375 28.21875 55.609375 21.1875 
Q 55.609375 10.40625 48.1875 4.484375 
Q 40.765625 -1.421875 27.09375 -1.421875 
Q 22.515625 -1.421875 17.65625 -0.515625 
Q 12.796875 0.390625 7.625 2.203125 
L 7.625 11.71875 
Q 11.71875 9.328125 16.59375 8.109375 
Q 21.484375 6.890625 26.8125 6.890625 
Q 36.078125 6.890625 40.9375 10.546875 
Q 45.796875 14.203125 45.796875 21.1875 
Q 45.796875 27.640625 41.28125 31.265625 
Q 36.765625 34.90625 28.71875 34.90625 
L 20.21875 34.90625 
L 20.21875 43.015625 
L 29.109375 43.015625 
Q 36.375 43.015625 40.234375 45.921875 
Q 44.09375 48.828125 44.09375 54.296875 
Q 44.09375 59.90625 40.109375 62.90625 
Q 36.140625 65.921875 28.71875 65.921875 
Q 24.65625 65.921875 20.015625 65.03125 
Q 15.375 64.15625 9.8125 62.3125 
L 9.8125 71.09375 
Q 15.4375 72.65625 20.34375 73.4375 
Q 25.25 74.21875 29.59375 74.21875 
Q 40.828125 74.21875 47.359375 69.109375 
Q 53.90625 64.015625 53.90625 55.328125 
Q 53.90625 49.265625 50.4375 45.09375 
Q 46.96875 40.921875 40.578125 39.3125 
z
" id="DejaVuSans-51"/>
      </defs>
      <g transform="translate(31.5125 134.572495)scale(0.1 -0.1)">
       <use xlink:href="#DejaVuSans-51"/>
       <use x="63.623047" xlink:href="#DejaVuSans-48"/>
       <use x="127.246094" xlink:href="#DejaVuSans-48"/>
      </g>
     </g>
    </g>
    <g id="ytick_5">
     <g id="line2d_25">
      <path clip-path="url(#p113e4d6252)" d="M 57.6 75.533643 
L 414.72 75.533643 
" style="fill:none;stroke:#b0b0b0;stroke-linecap:square;stroke-width:0.8;"/>
     </g>
     <g id="line2d_26">
      <g>
       <use style="stroke:#000000;stroke-width:0.8;" x="57.6" xlink:href="#ma0e6a9f5e3" y="75.533643"/>
      </g>
     </g>
     <g id="text_14">
      <!-- 400 -->
      <defs>
       <path d="M 37.796875 64.3125 
L 12.890625 25.390625 
L 37.796875 25.390625 
z
M 35.203125 72.90625 
L 47.609375 72.90625 
L 47.609375 25.390625 
L 58.015625 25.390625 
L 58.015625 17.1875 
L 47.609375 17.1875 
L 47.609375 0 
L 37.796875 0 
L 37.796875 17.1875 
L 4.890625 17.1875 
L 4.890625 26.703125 
z
" id="DejaVuSans-52"/>
      </defs>
      <g transform="translate(31.5125 79.332862)scale(0.1 -0.1)">
       <use xlink:href="#DejaVuSans-52"/>
       <use x="63.623047" xlink:href="#DejaVuSans-48"/>
       <use x="127.246094" xlink:href="#DejaVuSans-48"/>
      </g>
     </g>
    </g>
    <g id="text_15">
     <!-- Value loss -->
     <defs>
      <path d="M 28.609375 0 
L 0.78125 72.90625 
L 11.078125 72.90625 
L 34.1875 11.53125 
L 57.328125 72.90625 
L 67.578125 72.90625 
L 39.796875 0 
z
" id="DejaVuSans-86"/>
      <path d="M 34.28125 27.484375 
Q 23.390625 27.484375 19.1875 25 
Q 14.984375 22.515625 14.984375 16.5 
Q 14.984375 11.71875 18.140625 8.90625 
Q 21.296875 6.109375 26.703125 6.109375 
Q 34.1875 6.109375 38.703125 11.40625 
Q 43.21875 16.703125 43.21875 25.484375 
L 43.21875 27.484375 
z
M 52.203125 31.203125 
L 52.203125 0 
L 43.21875 0 
L 43.21875 8.296875 
Q 40.140625 3.328125 35.546875 0.953125 
Q 30.953125 -1.421875 24.3125 -1.421875 
Q 15.921875 -1.421875 10.953125 3.296875 
Q 6 8.015625 6 15.921875 
Q 6 25.140625 12.171875 29.828125 
Q 18.359375 34.515625 30.609375 34.515625 
L 43.21875 34.515625 
L 43.21875 35.40625 
Q 43.21875 41.609375 39.140625 45 
Q 35.0625 48.390625 27.6875 48.390625 
Q 23 48.390625 18.546875 47.265625 
Q 14.109375 46.140625 10.015625 43.890625 
L 10.015625 52.203125 
Q 14.9375 54.109375 19.578125 55.046875 
Q 24.21875 56 28.609375 56 
Q 40.484375 56 46.34375 49.84375 
Q 52.203125 43.703125 52.203125 31.203125 
z
" id="DejaVuSans-97"/>
      <path d="M 9.421875 75.984375 
L 18.40625 75.984375 
L 18.40625 0 
L 9.421875 0 
z
" id="DejaVuSans-108"/>
      <path d="M 56.203125 29.59375 
L 56.203125 25.203125 
L 14.890625 25.203125 
Q 15.484375 15.921875 20.484375 11.0625 
Q 25.484375 6.203125 34.421875 6.203125 
Q 39.59375 6.203125 44.453125 7.46875 
Q 49.3125 8.734375 54.109375 11.28125 
L 54.109375 2.78125 
Q 49.265625 0.734375 44.1875 -0.34375 
Q 39.109375 -1.421875 33.890625 -1.421875 
Q 20.796875 -1.421875 13.15625 6.1875 
Q 5.515625 13.8125 5.515625 26.8125 
Q 5.515625 40.234375 12.765625 48.109375 
Q 20.015625 56 32.328125 56 
Q 43.359375 56 49.78125 48.890625 
Q 56.203125 41.796875 56.203125 29.59375 
z
M 47.21875 32.234375 
Q 47.125 39.59375 43.09375 43.984375 
Q 39.0625 48.390625 32.421875 48.390625 
Q 24.90625 48.390625 20.390625 44.140625 
Q 15.875 39.890625 15.1875 32.171875 
z
" id="DejaVuSans-101"/>
      <path id="DejaVuSans-32"/>
     </defs>
     <g transform="translate(25.432812 199.888156)rotate(-90)scale(0.1 -0.1)">
      <use xlink:href="#DejaVuSans-86"/>
      <use x="68.298828" xlink:href="#DejaVuSans-97"/>
      <use x="129.578125" xlink:href="#DejaVuSans-108"/>
      <use x="157.361328" xlink:href="#DejaVuSans-117"/>
      <use x="220.740234" xlink:href="#DejaVuSans-101"/>
      <use x="282.263672" xlink:href="#DejaVuSans-32"/>
      <use x="314.050781" xlink:href="#DejaVuSans-108"/>
      <use x="341.833984" xlink:href="#DejaVuSans-111"/>
      <use x="403.015625" xlink:href="#DejaVuSans-115"/>
      <use x="455.115234" xlink:href="#DejaVuSans-115"/>
     </g>
    </g>
   </g>
   <g id="line2d_27">
    <path clip-path="url(#p113e4d6252)" d="M 57.6 294.53543 
L 57.633602 294.749368 
L 57.926824 294.419385 
L 58.900887 294.078997 
L 59.001197 293.76524 
L 59.749211 293.631868 
L 59.983106 292.601393 
L 60.182818 293.349965 
L 60.570825 292.705331 
L 60.592785 292.16296 
L 60.68186 292.290962 
L 61.819528 292.030962 
L 62.249008 292.234014 
L 62.403309 291.732866 
L 63.083835 291.253365 
L 63.554704 291.529799 
L 63.63087 292.488793 
L 64.156193 289.213122 
L 64.297458 291.27087 
L 64.45095 290.710572 
L 64.559837 291.91155 
L 65.028291 291.363336 
L 65.116394 292.741213 
L 65.649162 290.910214 
L 65.801752 291.578838 
L 65.823448 291.567874 
L 65.986275 290.669895 
L 66.051435 291.351957 
L 66.35498 292.642501 
L 67.537353 292.024279 
L 67.819394 290.144119 
L 67.830236 291.576096 
L 68.283009 293.03515 
L 68.824345 292.337008 
L 68.856411 293.07998 
L 69.159147 291.632029 
L 69.276407 292.955174 
L 70.116691 293.950115 
L 71.03772 292.562232 
L 71.657046 290.854367 
L 71.688954 293.674294 
L 71.837245 293.82185 
L 71.87939 293.617742 
L 72.426876 292.194725 
L 72.501186 293.054901 
L 72.747782 290.780511 
L 72.874489 292.467455 
L 72.980199 291.840026 
L 73.31702 294.607156 
L 73.606734 289.616753 
L 73.971796 290.147182 
L 74.304457 293.344826 
L 74.499958 290.058014 
L 74.922679 293.838075 
L 75.926237 289.018104 
L 76.114648 292.408212 
L 76.24116 289.828067 
L 76.388671 291.190138 
L 76.440863 294.75648 
L 76.963665 292.336374 
L 77.690189 291.33805 
L 77.784214 293.429622 
L 77.920533 292.83935 
L 78.074202 289.95453 
L 78.710369 293.723744 
L 78.886063 290.256169 
L 79.53058 288.891297 
L 79.936869 287.440295 
L 80.405702 290.842807 
L 80.645195 294.089412 
L 81.725313 292.727101 
L 81.851402 293.3485 
L 81.978336 286.927995 
L 82.22893 295.226307 
L 82.281537 292.776691 
L 82.291949 294.040222 
L 82.54181 289.082073 
L 82.595027 291.65195 
L 83.109922 292.944422 
L 83.278058 289.38278 
L 83.689533 293.788626 
L 84.103762 294.434912 
L 84.135801 289.20314 
L 84.64352 293.451762 
L 84.863865 291.236909 
L 84.885177 289.671742 
L 84.937905 292.849657 
L 85.253814 295.026801 
L 85.38143 292.992909 
L 85.474108 295.183217 
L 85.823905 292.939497 
L 85.983112 287.426388 
L 86.047252 292.464541 
L 87.594447 291.004445 
L 88.254283 292.993378 
L 88.440474 290.890909 
L 88.849335 288.918723 
L 90.099762 288.476034 
L 90.924987 293.20229 
L 91.790834 291.372667 
L 91.822382 279.932868 
L 92.506991 294.121265 
L 93.238009 291.430692 
L 93.643456 288.263039 
L 94.038802 293.46438 
L 94.186517 283.146588 
L 94.207442 287.370647 
L 94.217859 293.814235 
L 94.908827 288.997479 
L 95.772769 285.701385 
L 96.618675 290.403581 
L 96.981465 293.359397 
L 98.395593 292.184284 
L 98.606637 295.383317 
L 99.207763 293.407922 
L 99.874282 279.98092 
L 100.031312 293.917191 
L 100.656244 293.683912 
L 100.913614 289.947554 
L 100.987738 291.303128 
L 101.479035 293.372087 
L 102.225179 294.482612 
L 103.514848 287.816524 
L 104.243808 294.640972 
L 104.360869 294.193173 
L 105.205809 287.741928 
L 105.391048 290.892484 
L 105.453531 278.546433 
L 105.805181 295.263485 
L 106.168195 290.903662 
L 106.633666 295.488 
L 106.807237 291.952331 
L 106.827942 281.599497 
L 107.754646 295.186106 
L 108.831797 284.679693 
L 109.048889 293.179572 
L 109.269498 283.360897 
L 110.449527 290.589882 
L 110.864981 288.039201 
L 110.99159 283.151601 
L 111.879006 278.234623 
L 112.462129 293.761905 
L 112.897136 277.091032 
L 113.059982 287.91372 
L 113.536641 292.87027 
L 114.323151 279.658318 
L 114.454901 294.130916 
L 114.485787 289.506245 
L 115.351688 295.444953 
L 115.372612 290.02833 
L 116.012553 284.978567 
L 116.341235 280.937905 
L 117.107287 294.50754 
L 117.552267 285.933691 
L 118.602794 292.843021 
L 118.807727 281.203786 
L 118.954206 293.383521 
L 119.667232 292.68463 
L 119.934966 289.540902 
L 120.768566 285.571784 
L 120.789246 286.864539 
L 121.15939 288.965242 
L 121.594908 293.292588 
L 122.513914 277.01667 
L 122.670061 285.954615 
L 123.208807 289.532181 
L 124.170105 284.505556 
L 124.385584 291.331539 
L 124.416454 289.252752 
L 124.80841 292.823292 
L 124.829302 291.199299 
L 124.901701 272.567476 
L 125.575164 294.081849 
L 125.865125 284.550158 
L 125.98078 284.821719 
L 126.547168 291.181135 
L 127.815769 270.124754 
L 127.957816 293.349434 
L 128.517301 285.445481 
L 128.752302 291.763578 
L 128.887866 284.229414 
L 128.985337 284.673786 
L 129.123106 293.232318 
L 129.79297 293.273775 
L 130.070636 284.343704 
L 130.122608 290.131662 
L 130.37177 278.276687 
L 130.639387 290.401414 
L 130.81446 286.614949 
L 131.063655 291.50817 
L 132.178072 291.427283 
L 132.461346 260.823742 
L 133.098216 269.966206 
L 133.203911 286.541517 
L 133.438064 287.232779 
L 134.075 281.873973 
L 134.516883 287.332975 
L 134.548181 286.478574 
L 134.672777 294.813363 
L 135.027047 271.394477 
L 136.332826 287.316302 
L 136.489261 276.181181 
L 137.602071 283.429923 
L 137.909271 271.030228 
L 138.177332 289.314628 
L 139.233326 278.88202 
L 139.316344 293.411925 
L 139.773869 251.382123 
L 140.482858 284.466561 
L 140.840898 283.388857 
L 141.572414 278.980243 
L 141.795339 284.574241 
L 141.898755 275.094795 
L 141.909322 283.352334 
L 142.130197 282.974248 
L 142.397988 277.284275 
L 142.597823 285.849251 
L 143.17413 277.453254 
L 143.278301 261.601708 
L 143.309354 277.939123 
L 143.500724 291.627565 
L 143.878802 283.353081 
L 144.993419 283.092161 
L 145.394215 291.534826 
L 145.909245 284.953692 
L 145.971605 252.518048 
L 147.155267 286.296399 
L 147.542262 257.783514 
L 148.308555 291.341735 
L 148.672578 291.423832 
L 149.351399 281.225085 
L 149.746038 284.573159 
L 149.887742 287.263143 
L 150.012144 273.305302 
L 150.221652 274.621411 
L 151.515096 269.871832 
L 151.909573 257.939111 
L 152.003355 268.729868 
L 152.790413 280.079076 
L 153.262666 288.839908 
L 153.603692 274.555611 
L 153.65599 292.44972 
L 153.773748 289.52655 
L 154.774393 242.33984 
L 154.841835 284.278879 
L 155.132848 291.087668 
L 155.254271 267.636677 
L 155.923189 255.475673 
L 156.324885 251.50623 
L 156.700402 271.935591 
L 156.710604 261.007631 
L 157.402819 259.517625 
L 158.795153 266.297319 
L 158.826085 276.990397 
L 159.467254 279.725497 
L 159.539248 260.456309 
L 159.737017 280.456956 
L 159.794712 270.431795 
L 160.011186 272.371858 
L 160.083357 268.664434 
L 160.35249 266.965771 
L 160.563437 239.299916 
L 160.811543 277.913941 
L 160.95132 280.010576 
L 161.458737 242.131739 
L 161.577196 286.994631 
L 163.429271 253.984605 
L 163.815767 281.592784 
L 164.334025 278.281294 
L 164.464027 289.274914 
L 164.830459 265.675671 
L 165.046114 263.599473 
L 165.56286 236.223637 
L 165.593781 279.316545 
L 165.911072 286.427658 
L 166.213158 286.170908 
L 167.008469 288.067935 
L 167.101473 263.319962 
L 167.174398 283.342106 
L 167.339275 260.998481 
L 167.566628 281.358376 
L 168.028404 280.117553 
L 168.36278 257.012059 
L 168.82187 283.247216 
L 169.615588 268.105335 
L 170.499829 286.608207 
L 170.949747 264.083844 
L 171.2359 280.841979 
L 171.979449 265.363829 
L 172.856809 269.687837 
L 172.908889 285.273109 
L 172.94022 264.541569 
L 173.24512 268.371865 
L 173.769969 268.653997 
L 173.935292 266.739179 
L 174.211843 282.412787 
L 174.387631 262.653333 
L 175.231275 253.09182 
L 175.437877 266.433016 
L 175.545135 290.111538 
L 176.812696 237.601429 
L 176.84349 249.350851 
L 177.093917 278.0411 
L 177.774144 268.423899 
L 177.878264 287.320355 
L 177.919521 264.535121 
L 178.256641 272.661835 
L 178.621874 270.675011 
L 179.231644 284.891258 
L 179.406884 239.334917 
L 179.587003 222.672644 
L 179.752528 263.442166 
L 179.961684 283.978506 
L 180.408113 273.5132 
L 180.951918 234.484519 
L 180.962204 267.9887 
L 181.188635 231.49988 
L 181.296903 289.858512 
L 181.622978 211.083177 
L 181.725516 264.528673 
L 181.777028 243.999849 
L 181.891397 290.766157 
L 182.02111 227.095999 
L 182.166524 264.26728 
L 182.595131 267.659511 
L 182.626285 274.177427 
L 183.049242 244.560113 
L 183.090925 264.010038 
L 183.3277 278.571631 
L 183.427413 274.178951 
L 183.447926 250.368919 
L 183.888967 233.899668 
L 183.950205 270.392653 
L 184.122195 248.316827 
L 184.174168 288.478147 
L 184.902464 283.810018 
L 185.223306 245.476019 
L 185.724478 268.223626 
L 185.998052 266.440273 
L 186.028797 245.470612 
L 186.708797 253.602405 
L 186.831835 285.210477 
L 188.524669 221.950843 
L 189.143491 279.26847 
L 189.350896 282.372926 
L 189.706227 231.19043 
L 189.835003 288.236217 
L 190.01145 255.399998 
L 190.224029 278.311379 
L 190.579317 275.312638 
L 191.013445 280.879819 
L 191.136954 266.189311 
L 191.404173 277.95585 
L 191.547508 274.920192 
L 192.411197 274.556833 
L 193.683378 255.055328 
L 194.560165 276.407141 
L 194.865152 291.134941 
L 195.008256 264.147263 
L 195.199025 252.86947 
L 195.271312 197.142343 
L 195.626244 279.044916 
L 196.729952 255.29757 
L 197.031363 246.038981 
L 197.072505 261.888006 
L 197.236723 259.431772 
L 197.743953 274.241346 
L 198.473881 286.383332 
L 198.505056 255.712154 
L 198.669485 273.806962 
L 199.762003 258.973417 
L 200.117119 246.355241 
L 200.371131 208.603294 
L 201.460373 275.094614 
L 202.318313 224.79928 
L 202.8249 227.575983 
L 203.146358 259.443012 
L 203.824433 230.846564 
L 203.989013 276.512462 
L 204.343001 195.301716 
L 204.677375 286.812563 
L 205.021321 240.216167 
L 205.192081 264.486775 
L 205.387534 275.447209 
L 205.899457 277.324281 
L 206.104985 256.080176 
L 206.773999 243.146739 
L 206.986183 286.359796 
L 207.263576 267.315783 
L 207.512054 242.271031 
L 207.825777 285.49918 
L 207.867873 278.926279 
L 208.077329 291.526322 
L 208.484331 245.11755 
L 208.934424 256.377746 
L 208.944775 256.108013 
L 209.309554 270.481315 
L 210.182362 255.389774 
L 210.589967 234.847957 
L 211.175384 281.272356 
L 211.250551 257.894724 
L 211.455266 252.177208 
L 212.033526 249.722507 
L 212.368046 239.455437 
L 212.834066 286.306745 
L 213.585051 256.150457 
L 213.668132 222.587697 
L 213.766593 251.579764 
L 214.346766 274.81803 
L 214.377409 274.191904 
L 214.862348 267.298219 
L 215.119432 237.945678 
L 215.455519 268.582446 
L 215.842665 262.389279 
L 216.268802 289.752171 
L 216.504124 244.475289 
L 216.690832 272.054872 
L 217.305414 270.506793 
L 217.511066 274.900243 
L 217.541856 288.659611 
L 217.682151 286.953305 
L 217.7432 206.061012 
L 217.968261 289.089475 
L 218.914147 226.585735 
L 220.539991 258.384553 
L 221.290693 236.364522 
L 221.363265 260.450215 
L 221.456533 255.053865 
L 221.668729 270.885059 
L 221.79188 271.214492 
L 221.853507 280.979707 
L 222.530236 282.991474 
L 223.119251 281.336674 
L 223.637847 266.138533 
L 224.044169 240.760437 
L 224.325593 252.499593 
L 224.356102 273.066231 
L 225.237503 243.735826 
L 225.298556 289.347402 
L 225.737211 249.773168 
L 225.77808 226.045969 
L 225.876611 241.436907 
L 226.515823 201.700253 
L 226.894027 258.193837 
L 226.904362 233.327674 
L 227.022672 271.877832 
L 227.064336 203.512838 
L 227.239577 256.144974 
L 227.974874 257.26903 
L 228.20641 258.965317 
L 228.577966 274.779784 
L 228.588102 253.976905 
L 228.87103 247.718624 
L 229.729628 239.727316 
L 230.45344 246.064082 
L 230.955391 273.458421 
L 230.996385 244.910739 
L 231.482633 270.030577 
L 231.702477 221.592539 
L 232.45687 236.350808 
L 233.127475 273.240587 
L 233.400964 234.953689 
L 234.303213 273.031993 
L 234.623386 264.058203 
L 234.835324 290.027499 
L 234.856021 219.372991 
L 235.575443 285.46582 
L 237.868269 210.448515 
L 238.245195 283.904283 
L 238.306377 223.558774 
L 238.850561 253.807121 
L 238.881814 276.250753 
L 239.114101 228.67831 
L 239.308943 232.880234 
L 240.756903 221.406935 
L 241.47506 280.232441 
L 241.946926 257.906854 
L 242.163262 224.611737 
L 242.840641 218.819423 
L 243.113982 286.346369 
L 243.154864 243.15537 
L 243.674159 233.812707 
L 244.525054 267.91776 
L 244.790254 272.683453 
L 244.963235 283.128071 
L 245.494853 252.418224 
L 245.872685 257.258629 
L 246.612767 231.611525 
L 247.205141 227.711478 
L 247.510967 291.623386 
L 247.562086 272.819053 
L 248.404955 252.945515 
L 248.812083 251.92671 
L 249.352201 242.185473 
L 250.060508 242.28029 
L 250.070915 261.020312 
L 250.366015 270.212762 
L 250.494637 268.96449 
L 250.637974 271.964991 
L 251.108824 238.502036 
L 251.401344 130.78833 
L 253.043031 290.309331 
L 253.395533 230.964333 
L 253.780583 257.367231 
L 254.015955 287.803615 
L 254.481763 234.560637 
L 254.584445 253.527876 
L 255.083665 263.705654 
L 255.264587 179.444293 
L 255.377286 232.110558 
L 255.600237 241.326602 
L 255.620936 222.864932 
L 255.893633 247.54796 
L 255.903875 232.692106 
L 255.944796 241.577611 
L 256.140274 259.249628 
L 256.54051 251.589314 
L 256.752943 271.541247 
L 256.896229 250.78676 
L 257.150508 289.732749 
L 257.475967 241.988621 
L 258.057468 207.002098 
L 258.507946 231.703029 
L 258.651363 273.267905 
L 258.894854 243.92068 
L 259.095914 269.90249 
L 259.106122 237.679936 
L 259.146757 269.964333 
L 259.403053 243.287497 
L 259.542704 285.539477 
L 259.750699 268.942343 
L 259.93333 268.676643 
L 260.576553 209.377311 
L 261.115631 236.818321 
L 261.125877 253.215425 
L 261.491011 285.567706 
L 261.919479 233.978061 
L 263.209134 193.366618 
L 263.301606 225.649967 
L 263.503301 243.275849 
L 263.534243 258.915827 
L 263.627281 215.051284 
L 263.951913 204.72815 
L 264.35031 248.245709 
L 264.511153 252.134149 
L 264.949602 236.109059 
L 265.243312 236.65955 
L 265.417704 248.076574 
L 266.454342 269.077494 
L 266.778066 268.70837 
L 267.410217 272.504129 
L 267.899851 271.092749 
L 268.9296 273.060529 
L 268.940089 288.747989 
L 269.950009 253.908247 
L 270.032653 254.260617 
L 270.536027 243.765656 
L 271.226039 267.957471 
L 271.92397 174.504537 
L 272.032755 291.197579 
L 272.331753 204.378848 
L 272.786501 266.394431 
L 272.961439 214.720711 
L 273.46725 208.401144 
L 273.998906 284.187912 
L 274.447865 273.159912 
L 274.742136 268.671295 
L 274.973788 267.794178 
L 275.024961 250.724631 
L 275.298335 246.413966 
L 275.524969 265.026454 
L 275.779446 267.605918 
L 276.337394 283.360279 
L 276.552825 250.807542 
L 276.971825 245.521096 
L 277.173617 281.952068 
L 277.851141 204.117072 
L 278.340777 251.914252 
L 278.381536 245.489931 
L 278.677426 237.208929 
L 280.808191 234.553565 
L 280.999979 289.206201 
L 281.030515 231.981533 
L 281.257431 267.455838 
L 281.886994 148.096316 
L 282.076866 149.856607 
L 282.584436 218.83253 
L 282.728265 211.682607 
L 282.970763 240.242507 
L 283.590324 260.103956 
L 283.631135 243.161473 
L 283.691941 265.812084 
L 284.373111 265.964915 
L 284.687735 237.131569 
L 284.961691 283.589549 
L 285.758515 209.993523 
L 286.021563 281.623086 
L 286.399539 182.607566 
L 286.575261 280.753882 
L 286.646762 228.726068 
L 287.136987 206.452138 
L 287.271249 269.50084 
L 287.32269 267.285135 
L 287.383709 215.98985 
L 287.452712 287.207514 
L 288.313942 195.885839 
L 288.344421 284.323504 
L 288.813905 204.198419 
L 288.844663 218.249225 
L 289.200569 252.323804 
L 289.54802 267.78287 
L 289.637622 249.786124 
L 290.253036 242.373063 
L 290.444679 269.561204 
L 290.537399 253.785754 
L 290.557784 208.707644 
L 291.136864 285.017121 
L 291.282929 262.523661 
L 291.80093 245.399219 
L 292.026663 284.291904 
L 292.303852 147.881025 
L 292.764002 283.147969 
L 292.936355 178.062038 
L 292.946476 234.531131 
L 293.263701 287.079263 
L 293.377303 114.382776 
L 294.658284 229.54258 
L 294.668446 248.090583 
L 294.884742 210.161064 
L 295.658202 289.332063 
L 295.737164 164.563215 
L 295.747258 266.756886 
L 296.186156 254.280628 
L 296.278169 183.620518 
L 296.93927 249.195894 
L 297.236296 208.770936 
L 297.648049 251.955322 
L 298.07632 266.381081 
L 298.525045 262.341892 
L 298.646365 243.106419 
L 299.012913 224.624676 
L 299.105762 200.945724 
L 299.146909 264.362059 
L 299.884488 260.139357 
L 300.627068 258.840873 
L 300.902714 196.854521 
L 301.884314 219.300435 
L 301.915049 217.19085 
L 301.966994 245.00564 
L 302.731634 146.47409 
L 302.954907 251.934852 
L 303.801669 162.262269 
L 304.240138 237.910294 
L 304.250495 226.112086 
L 305.260896 210.931322 
L 306.05991 153.468829 
L 306.233421 272.62467 
L 306.571327 230.971106 
L 306.581537 270.628214 
L 307.043056 248.736212 
L 307.635959 243.432087 
L 307.698105 262.632196 
L 307.913888 223.483462 
L 308.014019 238.268362 
L 308.702934 240.861626 
L 309.344586 259.705151 
L 309.711364 246.948577 
L 309.820923 174.302656 
L 310.760179 264.366284 
L 312.284343 241.777194 
L 312.541581 268.534144 
L 312.712286 244.048146 
L 313.028562 252.946514 
L 313.10106 235.82133 
L 313.215203 248.935711 
L 313.266834 231.382402 
L 313.377605 271.293713 
L 313.387968 261.955104 
L 313.531626 246.05787 
L 313.860374 248.28578 
L 314.647236 166.48723 
L 314.678111 251.772271 
L 315.186101 237.16743 
L 315.585685 267.977171 
L 316.003837 243.70198 
L 317.065179 228.808431 
L 317.229174 267.510208 
L 318.482046 245.174121 
L 318.554561 236.5221 
L 318.678131 169.497527 
L 319.258668 230.0827 
L 319.279193 218.861399 
L 319.391674 267.35893 
L 319.401792 161.937521 
L 319.491569 181.350775 
L 320.435816 269.913734 
L 320.466399 210.887989 
L 322.167035 211.205776 
L 322.207955 242.908593 
L 322.218277 220.441801 
L 322.430957 170.747861 
L 322.585256 190.332888 
L 322.839425 244.01237 
L 322.890687 231.406935 
L 322.942571 255.787748 
L 322.98379 228.348846 
L 323.08339 267.046178 
L 323.330029 223.232449 
L 323.776961 282.139257 
L 323.79786 249.015903 
L 324.27851 243.747724 
L 324.55352 180.089155 
L 324.940504 246.715151 
L 325.116588 240.321553 
L 325.402037 277.302711 
L 325.636035 243.831452 
L 325.780494 245.722501 
L 326.161653 240.684063 
L 327.484221 235.460628 
L 328.027074 272.901201 
L 328.732353 270.260733 
L 328.977618 275.25113 
L 329.091014 231.947674 
L 329.33476 244.653489 
L 330.033509 254.471572 
L 330.169785 259.637833 
L 330.590399 260.967446 
L 330.837003 275.315265 
L 330.951023 289.692973 
L 331.957989 170.120582 
L 332.09878 173.622284 
L 333.083145 180.128046 
L 333.715558 218.311354 
L 334.136747 234.099268 
L 334.157519 242.443786 
L 334.497166 237.600734 
L 334.937442 283.620714 
L 335.513113 242.855284 
L 336.087914 211.278079 
L 336.108581 231.822075 
L 336.190862 225.398162 
L 336.538332 239.562265 
L 336.8135 226.330592 
L 336.9584 185.458802 
L 337.624386 232.528041 
L 338.737626 254.647778 
L 339.241859 225.199661 
L 339.283649 248.260299 
L 339.979737 255.597108 
L 340.531808 183.418831 
L 340.880499 247.059767 
L 341.147732 225.180401 
L 341.23061 225.698737 
L 341.962948 275.395013 
L 342.651892 213.208204 
L 343.001151 259.072162 
L 343.165837 229.524829 
L 343.227708 244.177648 
L 343.605871 223.261959 
L 343.943523 287.513056 
L 344.127025 257.65153 
L 344.487765 258.269195 
L 344.926893 271.274584 
L 345.924485 149.946645 
L 347.051291 224.043065 
L 347.318351 255.207874 
L 348.211147 237.466019 
L 348.897738 185.734334 
L 350.22882 243.633436 
L 350.384994 228.443372 
L 350.999669 249.559058 
L 351.315653 243.317862 
L 352.03404 163.196731 
L 352.291407 229.500023 
L 352.993037 215.497788 
L 353.319847 192.652336 
L 353.780076 256.600261 
L 354.179315 247.980472 
L 354.344837 256.415697 
L 354.558116 208.278891 
L 355.017582 245.951649 
L 355.630277 285.196138 
L 356.100112 205.755001 
L 356.245592 221.559195 
L 356.45079 272.850767 
L 356.70629 279.162453 
L 356.800257 277.763728 
L 356.965168 259.496582 
L 357.035096 147.920017 
L 357.691108 250.21204 
L 357.701406 247.798214 
L 357.886168 245.157748 
L 359.137113 245.858459 
L 359.308534 248.096964 
L 359.422309 258.347942 
L 360.468395 202.054571 
L 360.571841 224.734327 
L 360.673078 188.356792 
L 361.378006 284.752738 
L 361.850601 249.886828 
L 363.668878 186.740315 
L 364.09786 284.402368 
L 364.647515 221.991513 
L 364.668757 254.955433 
L 365.121175 270.239121 
L 365.141611 103.833166 
L 365.344397 231.422321 
L 365.478189 228.861807 
L 365.498811 216.442634 
L 366.628843 188.400698 
L 368.24707 53.568 
L 368.36049 255.602886 
L 369.092899 120.98429 
L 369.154557 212.947818 
L 369.216031 205.086328 
L 369.294847 199.946747 
L 369.305183 205.577825 
L 370.170715 174.417138 
L 370.628577 118.450496 
L 371.282969 200.530954 
L 372.565368 246.31128 
L 372.678966 158.937305 
L 372.761471 251.785433 
L 373.333666 162.536074 
L 373.58154 283.222569 
L 374.069467 190.29774 
L 374.100871 231.079034 
L 374.459024 195.322974 
L 374.561941 248.636965 
L 374.63492 148.938767 
L 374.860419 262.911325 
L 375.524535 291.186813 
L 375.729433 257.718244 
L 375.798473 81.848844 
L 376.013597 276.31527 
L 377.015645 224.873632 
L 378.078011 185.746497 
L 378.098976 142.20111 
L 378.691782 278.8929 
L 378.930163 97.30372 
L 380.259878 164.952133 
L 381.953462 230.720076 
L 382.221867 224.501159 
L 382.343696 215.577812 
L 382.755455 285.741834 
L 384.253737 214.427899 
L 385.315665 160.682002 
L 385.654147 237.290858 
L 386.094587 240.428937 
L 386.84108 280.386095 
L 389.324769 151.324247 
L 390.253555 254.294147 
L 390.522856 223.210837 
L 390.788029 241.346992 
L 391.022433 224.973944 
L 391.317754 255.412393 
L 391.481958 215.703807 
L 391.605926 247.811641 
L 391.807068 126.890656 
L 392.125503 216.181363 
L 392.902318 288.632821 
L 393.482553 218.542222 
L 393.596009 173.315944 
L 393.61653 219.214528 
L 393.699596 162.638173 
L 393.751372 144.135981 
L 394.130606 140.596433 
L 394.795241 221.732838 
L 395.650459 189.763002 
L 396.025992 269.181242 
L 396.191234 240.821029 
L 396.780588 178.177767 
L 396.811839 223.089992 
L 397.027548 256.864616 
L 397.386146 180.968146 
L 397.620991 252.231887 
L 400.12315 195.764682 
L 400.133378 196.476249 
L 400.174758 216.622009 
L 400.521748 211.068587 
L 400.755292 268.39335 
L 400.888743 142.910318 
L 401.264739 165.715623 
L 402.11388 255.218692 
L 402.165077 248.984809 
L 402.468817 187.40989 
L 402.520151 229.17886 
L 402.979691 225.410738 
L 403.132939 286.062774 
L 403.669461 248.786747 
L 404.087912 187.055918 
L 404.339939 250.56106 
L 404.566869 254.419886 
L 404.810594 219.174212 
L 404.872002 255.037678 
L 405.043488 242.1794 
L 405.36898 179.205671 
L 405.849559 252.651317 
L 406.300445 282.509087 
L 406.932936 225.314615 
L 407.067614 188.809373 
L 407.364264 197.882721 
L 407.437399 194.310638 
L 407.516492 179.432956 
L 408.651704 247.544572 
L 408.682898 173.997682 
L 408.950166 248.854777 
L 409.135845 149.595935 
L 409.501013 231.698781 
L 410.211866 107.192302 
L 410.395141 292.056575 
L 410.570977 127.297586 
L 410.581421 245.273675 
L 411.051466 146.920973 
L 412.22113 154.498469 
L 412.537598 122.875078 
L 412.836666 253.423354 
L 413.55101 191.521835 
L 414.1938 249.402343 
L 414.72 107.875498 
L 414.72 107.875498 
" style="fill:none;stroke:#000000;stroke-linecap:square;stroke-width:0.8;"/>
   </g>
   <g id="patch_3">
    <path d="M 57.6 307.584 
L 57.6 41.472 
" style="fill:none;stroke:#000000;stroke-linecap:square;stroke-linejoin:miter;stroke-width:0.8;"/>
   </g>
   <g id="patch_4">
    <path d="M 414.72 307.584 
L 414.72 41.472 
" style="fill:none;stroke:#000000;stroke-linecap:square;stroke-linejoin:miter;stroke-width:0.8;"/>
   </g>
   <g id="patch_5">
    <path d="M 57.6 307.584 
L 414.72 307.584 
" style="fill:none;stroke:#000000;stroke-linecap:square;stroke-linejoin:miter;stroke-width:0.8;"/>
   </g>
   <g id="patch_6">
    <path d="M 57.6 41.472 
L 414.72 41.472 
" style="fill:none;stroke:#000000;stroke-linecap:square;stroke-linejoin:miter;stroke-width:0.8;"/>
   </g>
  </g>
  <g id="axes_2">
   <g id="matplotlib.axis_3">
    <g id="xtick_9">
     <g id="line2d_28">
      <defs>
       <path d="M 0 0 
L 0 -3.5 
" id="m2d207ce28a" style="stroke:#000000;stroke-width:0.8;"/>
      </defs>
      <g>
       <use style="stroke:#000000;stroke-width:0.8;" x="57.6" xlink:href="#m2d207ce28a" y="41.472"/>
      </g>
     </g>
    </g>
    <g id="xtick_10">
     <g id="line2d_29">
      <g>
       <use style="stroke:#000000;stroke-width:0.8;" x="129.375413" xlink:href="#m2d207ce28a" y="41.472"/>
      </g>
     </g>
     <g id="text_16">
      <!-- 20.0M -->
      <defs>
       <path d="M 9.8125 72.90625 
L 24.515625 72.90625 
L 43.109375 23.296875 
L 61.8125 72.90625 
L 76.515625 72.90625 
L 76.515625 0 
L 66.890625 0 
L 66.890625 64.015625 
L 48.09375 14.015625 
L 38.1875 14.015625 
L 19.390625 64.015625 
L 19.390625 0 
L 9.8125 0 
z
" id="DejaVuSans-77"/>
      </defs>
      <g transform="translate(113.928538 32.392313)scale(0.1 -0.1)">
       <use xlink:href="#DejaVuSans-50"/>
       <use x="63.623047" xlink:href="#DejaVuSans-48"/>
       <use x="127.246094" xlink:href="#DejaVuSans-46"/>
       <use x="159.033203" xlink:href="#DejaVuSans-48"/>
       <use x="222.65625" xlink:href="#DejaVuSans-77"/>
      </g>
     </g>
    </g>
    <g id="xtick_11">
     <g id="line2d_30">
      <g>
       <use style="stroke:#000000;stroke-width:0.8;" x="201.150826" xlink:href="#m2d207ce28a" y="41.472"/>
      </g>
     </g>
     <g id="text_17">
      <!-- 40.0M -->
      <g transform="translate(185.703951 32.392313)scale(0.1 -0.1)">
       <use xlink:href="#DejaVuSans-52"/>
       <use x="63.623047" xlink:href="#DejaVuSans-48"/>
       <use x="127.246094" xlink:href="#DejaVuSans-46"/>
       <use x="159.033203" xlink:href="#DejaVuSans-48"/>
       <use x="222.65625" xlink:href="#DejaVuSans-77"/>
      </g>
     </g>
    </g>
    <g id="xtick_12">
     <g id="line2d_31">
      <g>
       <use style="stroke:#000000;stroke-width:0.8;" x="272.926239" xlink:href="#m2d207ce28a" y="41.472"/>
      </g>
     </g>
     <g id="text_18">
      <!-- 60.0M -->
      <defs>
       <path d="M 33.015625 40.375 
Q 26.375 40.375 22.484375 35.828125 
Q 18.609375 31.296875 18.609375 23.390625 
Q 18.609375 15.53125 22.484375 10.953125 
Q 26.375 6.390625 33.015625 6.390625 
Q 39.65625 6.390625 43.53125 10.953125 
Q 47.40625 15.53125 47.40625 23.390625 
Q 47.40625 31.296875 43.53125 35.828125 
Q 39.65625 40.375 33.015625 40.375 
z
M 52.59375 71.296875 
L 52.59375 62.3125 
Q 48.875 64.0625 45.09375 64.984375 
Q 41.3125 65.921875 37.59375 65.921875 
Q 27.828125 65.921875 22.671875 59.328125 
Q 17.53125 52.734375 16.796875 39.40625 
Q 19.671875 43.65625 24.015625 45.921875 
Q 28.375 48.1875 33.59375 48.1875 
Q 44.578125 48.1875 50.953125 41.515625 
Q 57.328125 34.859375 57.328125 23.390625 
Q 57.328125 12.15625 50.6875 5.359375 
Q 44.046875 -1.421875 33.015625 -1.421875 
Q 20.359375 -1.421875 13.671875 8.265625 
Q 6.984375 17.96875 6.984375 36.375 
Q 6.984375 53.65625 15.1875 63.9375 
Q 23.390625 74.21875 37.203125 74.21875 
Q 40.921875 74.21875 44.703125 73.484375 
Q 48.484375 72.75 52.59375 71.296875 
z
" id="DejaVuSans-54"/>
      </defs>
      <g transform="translate(257.479364 32.392313)scale(0.1 -0.1)">
       <use xlink:href="#DejaVuSans-54"/>
       <use x="63.623047" xlink:href="#DejaVuSans-48"/>
       <use x="127.246094" xlink:href="#DejaVuSans-46"/>
       <use x="159.033203" xlink:href="#DejaVuSans-48"/>
       <use x="222.65625" xlink:href="#DejaVuSans-77"/>
      </g>
     </g>
    </g>
    <g id="xtick_13">
     <g id="line2d_32">
      <g>
       <use style="stroke:#000000;stroke-width:0.8;" x="344.701653" xlink:href="#m2d207ce28a" y="41.472"/>
      </g>
     </g>
     <g id="text_19">
      <!-- 80.0M -->
      <defs>
       <path d="M 31.78125 34.625 
Q 24.75 34.625 20.71875 30.859375 
Q 16.703125 27.09375 16.703125 20.515625 
Q 16.703125 13.921875 20.71875 10.15625 
Q 24.75 6.390625 31.78125 6.390625 
Q 38.8125 6.390625 42.859375 10.171875 
Q 46.921875 13.96875 46.921875 20.515625 
Q 46.921875 27.09375 42.890625 30.859375 
Q 38.875 34.625 31.78125 34.625 
z
M 21.921875 38.8125 
Q 15.578125 40.375 12.03125 44.71875 
Q 8.5 49.078125 8.5 55.328125 
Q 8.5 64.0625 14.71875 69.140625 
Q 20.953125 74.21875 31.78125 74.21875 
Q 42.671875 74.21875 48.875 69.140625 
Q 55.078125 64.0625 55.078125 55.328125 
Q 55.078125 49.078125 51.53125 44.71875 
Q 48 40.375 41.703125 38.8125 
Q 48.828125 37.15625 52.796875 32.3125 
Q 56.78125 27.484375 56.78125 20.515625 
Q 56.78125 9.90625 50.3125 4.234375 
Q 43.84375 -1.421875 31.78125 -1.421875 
Q 19.734375 -1.421875 13.25 4.234375 
Q 6.78125 9.90625 6.78125 20.515625 
Q 6.78125 27.484375 10.78125 32.3125 
Q 14.796875 37.15625 21.921875 38.8125 
z
M 18.3125 54.390625 
Q 18.3125 48.734375 21.84375 45.5625 
Q 25.390625 42.390625 31.78125 42.390625 
Q 38.140625 42.390625 41.71875 45.5625 
Q 45.3125 48.734375 45.3125 54.390625 
Q 45.3125 60.0625 41.71875 63.234375 
Q 38.140625 66.40625 31.78125 66.40625 
Q 25.390625 66.40625 21.84375 63.234375 
Q 18.3125 60.0625 18.3125 54.390625 
z
" id="DejaVuSans-56"/>
      </defs>
      <g transform="translate(329.254778 32.392313)scale(0.1 -0.1)">
       <use xlink:href="#DejaVuSans-56"/>
       <use x="63.623047" xlink:href="#DejaVuSans-48"/>
       <use x="127.246094" xlink:href="#DejaVuSans-46"/>
       <use x="159.033203" xlink:href="#DejaVuSans-48"/>
       <use x="222.65625" xlink:href="#DejaVuSans-77"/>
      </g>
     </g>
    </g>
    <g id="text_20">
     <!-- Steps -->
     <defs>
      <path d="M 53.515625 70.515625 
L 53.515625 60.890625 
Q 47.90625 63.578125 42.921875 64.890625 
Q 37.9375 66.21875 33.296875 66.21875 
Q 25.25 66.21875 20.875 63.09375 
Q 16.5 59.96875 16.5 54.203125 
Q 16.5 49.359375 19.40625 46.890625 
Q 22.3125 44.4375 30.421875 42.921875 
L 36.375 41.703125 
Q 47.40625 39.59375 52.65625 34.296875 
Q 57.90625 29 57.90625 20.125 
Q 57.90625 9.515625 50.796875 4.046875 
Q 43.703125 -1.421875 29.984375 -1.421875 
Q 24.8125 -1.421875 18.96875 -0.25 
Q 13.140625 0.921875 6.890625 3.21875 
L 6.890625 13.375 
Q 12.890625 10.015625 18.65625 8.296875 
Q 24.421875 6.59375 29.984375 6.59375 
Q 38.421875 6.59375 43.015625 9.90625 
Q 47.609375 13.234375 47.609375 19.390625 
Q 47.609375 24.75 44.3125 27.78125 
Q 41.015625 30.8125 33.5 32.328125 
L 27.484375 33.5 
Q 16.453125 35.6875 11.515625 40.375 
Q 6.59375 45.0625 6.59375 53.421875 
Q 6.59375 63.09375 13.40625 68.65625 
Q 20.21875 74.21875 32.171875 74.21875 
Q 37.3125 74.21875 42.625 73.28125 
Q 47.953125 72.359375 53.515625 70.515625 
z
" id="DejaVuSans-83"/>
      <path d="M 18.3125 70.21875 
L 18.3125 54.6875 
L 36.8125 54.6875 
L 36.8125 47.703125 
L 18.3125 47.703125 
L 18.3125 18.015625 
Q 18.3125 11.328125 20.140625 9.421875 
Q 21.96875 7.515625 27.59375 7.515625 
L 36.8125 7.515625 
L 36.8125 0 
L 27.59375 0 
Q 17.1875 0 13.234375 3.875 
Q 9.28125 7.765625 9.28125 18.015625 
L 9.28125 47.703125 
L 2.6875 47.703125 
L 2.6875 54.6875 
L 9.28125 54.6875 
L 9.28125 70.21875 
z
" id="DejaVuSans-116"/>
      <path d="M 18.109375 8.203125 
L 18.109375 -20.796875 
L 9.078125 -20.796875 
L 9.078125 54.6875 
L 18.109375 54.6875 
L 18.109375 46.390625 
Q 20.953125 51.265625 25.265625 53.625 
Q 29.59375 56 35.59375 56 
Q 45.5625 56 51.78125 48.09375 
Q 58.015625 40.1875 58.015625 27.296875 
Q 58.015625 14.40625 51.78125 6.484375 
Q 45.5625 -1.421875 35.59375 -1.421875 
Q 29.59375 -1.421875 25.265625 0.953125 
Q 20.953125 3.328125 18.109375 8.203125 
z
M 48.6875 27.296875 
Q 48.6875 37.203125 44.609375 42.84375 
Q 40.53125 48.484375 33.40625 48.484375 
Q 26.265625 48.484375 22.1875 42.84375 
Q 18.109375 37.203125 18.109375 27.296875 
Q 18.109375 17.390625 22.1875 11.75 
Q 26.265625 6.109375 33.40625 6.109375 
Q 40.53125 6.109375 44.609375 11.75 
Q 48.6875 17.390625 48.6875 27.296875 
z
" id="DejaVuSans-112"/>
     </defs>
     <g transform="translate(222.170156 20.793875)scale(0.1 -0.1)">
      <use xlink:href="#DejaVuSans-83"/>
      <use x="63.476562" xlink:href="#DejaVuSans-116"/>
      <use x="102.685547" xlink:href="#DejaVuSans-101"/>
      <use x="164.208984" xlink:href="#DejaVuSans-112"/>
      <use x="227.685547" xlink:href="#DejaVuSans-115"/>
     </g>
    </g>
   </g>
   <g id="patch_7">
    <path d="M 57.6 307.584 
L 57.6 41.472 
" style="fill:none;stroke:#000000;stroke-linecap:square;stroke-linejoin:miter;stroke-width:0.8;"/>
   </g>
   <g id="patch_8">
    <path d="M 414.72 307.584 
L 414.72 41.472 
" style="fill:none;stroke:#000000;stroke-linecap:square;stroke-linejoin:miter;stroke-width:0.8;"/>
   </g>
   <g id="patch_9">
    <path d="M 57.6 307.584 
L 414.72 307.584 
" style="fill:none;stroke:#000000;stroke-linecap:square;stroke-linejoin:miter;stroke-width:0.8;"/>
   </g>
   <g id="patch_10">
    <path d="M 57.6 41.472 
L 414.72 41.472 
" style="fill:none;stroke:#000000;stroke-linecap:square;stroke-linejoin:miter;stroke-width:0.8;"/>
   </g>
  </g>
 </g>
 <defs>
  <clipPath id="p113e4d6252">
   <rect height="266.112" width="357.12" x="57.6" y="41.472"/>
  </clipPath>
 </defs>
</svg>
