<?xml version="1.0" encoding="utf-8" standalone="no"?>
<!DOCTYPE svg PUBLIC "-//W3C//DTD SVG 1.1//EN"
  "http://www.w3.org/Graphics/SVG/1.1/DTD/svg11.dtd">
<!-- Created with matplotlib (https://matplotlib.org/) -->
<svg height="345.6pt" version="1.1" viewBox="0 0 460.8 345.6" width="460.8pt" xmlns="http://www.w3.org/2000/svg" xmlns:xlink="http://www.w3.org/1999/xlink">
 <defs>
  <style type="text/css">
*{stroke-linecap:butt;stroke-linejoin:round;}
  </style>
 </defs>
 <g id="figure_1">
  <g id="patch_1">
   <path d="M 0 345.6 
L 460.8 345.6 
L 460.8 0 
L 0 0 
z
" style="fill:#ffffff;"/>
  </g>
  <g id="axes_1">
   <g id="patch_2">
    <path d="M 57.6 307.584 
L 414.72 307.584 
L 414.72 41.472 
L 57.6 41.472 
z
" style="fill:#ffffff;"/>
   </g>
   <g id="matplotlib.axis_1">
    <g id="xtick_1">
     <g id="line2d_1">
      <path clip-path="url(#pa169543dd3)" d="M 57.6 307.584 
L 57.6 41.472 
" style="fill:none;stroke:#b0b0b0;stroke-linecap:square;stroke-width:0.8;"/>
     </g>
     <g id="line2d_2">
      <defs>
       <path d="M 0 0 
L 0 3.5 
" id="mbed45dcfb6" style="stroke:#000000;stroke-width:0.8;"/>
      </defs>
      <g>
       <use style="stroke:#000000;stroke-width:0.8;" x="57.6" xlink:href="#mbed45dcfb6" y="307.584"/>
      </g>
     </g>
     <g id="text_1">
      <!-- 0.0 -->
      <defs>
       <path d="M 31.78125 66.40625 
Q 24.171875 66.40625 20.328125 58.90625 
Q 16.5 51.421875 16.5 36.375 
Q 16.5 21.390625 20.328125 13.890625 
Q 24.171875 6.390625 31.78125 6.390625 
Q 39.453125 6.390625 43.28125 13.890625 
Q 47.125 21.390625 47.125 36.375 
Q 47.125 51.421875 43.28125 58.90625 
Q 39.453125 66.40625 31.78125 66.40625 
z
M 31.78125 74.21875 
Q 44.046875 74.21875 50.515625 64.515625 
Q 56.984375 54.828125 56.984375 36.375 
Q 56.984375 17.96875 50.515625 8.265625 
Q 44.046875 -1.421875 31.78125 -1.421875 
Q 19.53125 -1.421875 13.0625 8.265625 
Q 6.59375 17.96875 6.59375 36.375 
Q 6.59375 54.828125 13.0625 64.515625 
Q 19.53125 74.21875 31.78125 74.21875 
z
" id="DejaVuSans-48"/>
       <path d="M 10.6875 12.40625 
L 21 12.40625 
L 21 0 
L 10.6875 0 
z
" id="DejaVuSans-46"/>
      </defs>
      <g transform="translate(49.648438 322.182437)scale(0.1 -0.1)">
       <use xlink:href="#DejaVuSans-48"/>
       <use x="63.623047" xlink:href="#DejaVuSans-46"/>
       <use x="95.410156" xlink:href="#DejaVuSans-48"/>
      </g>
     </g>
    </g>
    <g id="xtick_2">
     <g id="line2d_3">
      <path clip-path="url(#pa169543dd3)" d="M 103.467246 307.584 
L 103.467246 41.472 
" style="fill:none;stroke:#b0b0b0;stroke-linecap:square;stroke-width:0.8;"/>
     </g>
     <g id="line2d_4">
      <g>
       <use style="stroke:#000000;stroke-width:0.8;" x="103.467246" xlink:href="#mbed45dcfb6" y="307.584"/>
      </g>
     </g>
     <g id="text_2">
      <!-- 2.5 -->
      <defs>
       <path d="M 19.1875 8.296875 
L 53.609375 8.296875 
L 53.609375 0 
L 7.328125 0 
L 7.328125 8.296875 
Q 12.9375 14.109375 22.625 23.890625 
Q 32.328125 33.6875 34.8125 36.53125 
Q 39.546875 41.84375 41.421875 45.53125 
Q 43.3125 49.21875 43.3125 52.78125 
Q 43.3125 58.59375 39.234375 62.25 
Q 35.15625 65.921875 28.609375 65.921875 
Q 23.96875 65.921875 18.8125 64.3125 
Q 13.671875 62.703125 7.8125 59.421875 
L 7.8125 69.390625 
Q 13.765625 71.78125 18.9375 73 
Q 24.125 74.21875 28.421875 74.21875 
Q 39.75 74.21875 46.484375 68.546875 
Q 53.21875 62.890625 53.21875 53.421875 
Q 53.21875 48.921875 51.53125 44.890625 
Q 49.859375 40.875 45.40625 35.40625 
Q 44.1875 33.984375 37.640625 27.21875 
Q 31.109375 20.453125 19.1875 8.296875 
z
" id="DejaVuSans-50"/>
       <path d="M 10.796875 72.90625 
L 49.515625 72.90625 
L 49.515625 64.59375 
L 19.828125 64.59375 
L 19.828125 46.734375 
Q 21.96875 47.46875 24.109375 47.828125 
Q 26.265625 48.1875 28.421875 48.1875 
Q 40.625 48.1875 47.75 41.5 
Q 54.890625 34.8125 54.890625 23.390625 
Q 54.890625 11.625 47.5625 5.09375 
Q 40.234375 -1.421875 26.90625 -1.421875 
Q 22.3125 -1.421875 17.546875 -0.640625 
Q 12.796875 0.140625 7.71875 1.703125 
L 7.71875 11.625 
Q 12.109375 9.234375 16.796875 8.0625 
Q 21.484375 6.890625 26.703125 6.890625 
Q 35.15625 6.890625 40.078125 11.328125 
Q 45.015625 15.765625 45.015625 23.390625 
Q 45.015625 31 40.078125 35.4375 
Q 35.15625 39.890625 26.703125 39.890625 
Q 22.75 39.890625 18.8125 39.015625 
Q 14.890625 38.140625 10.796875 36.28125 
z
" id="DejaVuSans-53"/>
      </defs>
      <g transform="translate(95.515684 322.182437)scale(0.1 -0.1)">
       <use xlink:href="#DejaVuSans-50"/>
       <use x="63.623047" xlink:href="#DejaVuSans-46"/>
       <use x="95.410156" xlink:href="#DejaVuSans-53"/>
      </g>
     </g>
    </g>
    <g id="xtick_3">
     <g id="line2d_5">
      <path clip-path="url(#pa169543dd3)" d="M 149.334493 307.584 
L 149.334493 41.472 
" style="fill:none;stroke:#b0b0b0;stroke-linecap:square;stroke-width:0.8;"/>
     </g>
     <g id="line2d_6">
      <g>
       <use style="stroke:#000000;stroke-width:0.8;" x="149.334493" xlink:href="#mbed45dcfb6" y="307.584"/>
      </g>
     </g>
     <g id="text_3">
      <!-- 5.0 -->
      <g transform="translate(141.38293 322.182437)scale(0.1 -0.1)">
       <use xlink:href="#DejaVuSans-53"/>
       <use x="63.623047" xlink:href="#DejaVuSans-46"/>
       <use x="95.410156" xlink:href="#DejaVuSans-48"/>
      </g>
     </g>
    </g>
    <g id="xtick_4">
     <g id="line2d_7">
      <path clip-path="url(#pa169543dd3)" d="M 195.201739 307.584 
L 195.201739 41.472 
" style="fill:none;stroke:#b0b0b0;stroke-linecap:square;stroke-width:0.8;"/>
     </g>
     <g id="line2d_8">
      <g>
       <use style="stroke:#000000;stroke-width:0.8;" x="195.201739" xlink:href="#mbed45dcfb6" y="307.584"/>
      </g>
     </g>
     <g id="text_4">
      <!-- 7.5 -->
      <defs>
       <path d="M 8.203125 72.90625 
L 55.078125 72.90625 
L 55.078125 68.703125 
L 28.609375 0 
L 18.3125 0 
L 43.21875 64.59375 
L 8.203125 64.59375 
z
" id="DejaVuSans-55"/>
      </defs>
      <g transform="translate(187.250177 322.182437)scale(0.1 -0.1)">
       <use xlink:href="#DejaVuSans-55"/>
       <use x="63.623047" xlink:href="#DejaVuSans-46"/>
       <use x="95.410156" xlink:href="#DejaVuSans-53"/>
      </g>
     </g>
    </g>
    <g id="xtick_5">
     <g id="line2d_9">
      <path clip-path="url(#pa169543dd3)" d="M 241.068986 307.584 
L 241.068986 41.472 
" style="fill:none;stroke:#b0b0b0;stroke-linecap:square;stroke-width:0.8;"/>
     </g>
     <g id="line2d_10">
      <g>
       <use style="stroke:#000000;stroke-width:0.8;" x="241.068986" xlink:href="#mbed45dcfb6" y="307.584"/>
      </g>
     </g>
     <g id="text_5">
      <!-- 10.0 -->
      <defs>
       <path d="M 12.40625 8.296875 
L 28.515625 8.296875 
L 28.515625 63.921875 
L 10.984375 60.40625 
L 10.984375 69.390625 
L 28.421875 72.90625 
L 38.28125 72.90625 
L 38.28125 8.296875 
L 54.390625 8.296875 
L 54.390625 0 
L 12.40625 0 
z
" id="DejaVuSans-49"/>
      </defs>
      <g transform="translate(229.936173 322.182437)scale(0.1 -0.1)">
       <use xlink:href="#DejaVuSans-49"/>
       <use x="63.623047" xlink:href="#DejaVuSans-48"/>
       <use x="127.246094" xlink:href="#DejaVuSans-46"/>
       <use x="159.033203" xlink:href="#DejaVuSans-48"/>
      </g>
     </g>
    </g>
    <g id="xtick_6">
     <g id="line2d_11">
      <path clip-path="url(#pa169543dd3)" d="M 286.936232 307.584 
L 286.936232 41.472 
" style="fill:none;stroke:#b0b0b0;stroke-linecap:square;stroke-width:0.8;"/>
     </g>
     <g id="line2d_12">
      <g>
       <use style="stroke:#000000;stroke-width:0.8;" x="286.936232" xlink:href="#mbed45dcfb6" y="307.584"/>
      </g>
     </g>
     <g id="text_6">
      <!-- 12.5 -->
      <g transform="translate(275.80342 322.182437)scale(0.1 -0.1)">
       <use xlink:href="#DejaVuSans-49"/>
       <use x="63.623047" xlink:href="#DejaVuSans-50"/>
       <use x="127.246094" xlink:href="#DejaVuSans-46"/>
       <use x="159.033203" xlink:href="#DejaVuSans-53"/>
      </g>
     </g>
    </g>
    <g id="xtick_7">
     <g id="line2d_13">
      <path clip-path="url(#pa169543dd3)" d="M 332.803479 307.584 
L 332.803479 41.472 
" style="fill:none;stroke:#b0b0b0;stroke-linecap:square;stroke-width:0.8;"/>
     </g>
     <g id="line2d_14">
      <g>
       <use style="stroke:#000000;stroke-width:0.8;" x="332.803479" xlink:href="#mbed45dcfb6" y="307.584"/>
      </g>
     </g>
     <g id="text_7">
      <!-- 15.0 -->
      <g transform="translate(321.670666 322.182437)scale(0.1 -0.1)">
       <use xlink:href="#DejaVuSans-49"/>
       <use x="63.623047" xlink:href="#DejaVuSans-53"/>
       <use x="127.246094" xlink:href="#DejaVuSans-46"/>
       <use x="159.033203" xlink:href="#DejaVuSans-48"/>
      </g>
     </g>
    </g>
    <g id="xtick_8">
     <g id="line2d_15">
      <path clip-path="url(#pa169543dd3)" d="M 378.670725 307.584 
L 378.670725 41.472 
" style="fill:none;stroke:#b0b0b0;stroke-linecap:square;stroke-width:0.8;"/>
     </g>
     <g id="line2d_16">
      <g>
       <use style="stroke:#000000;stroke-width:0.8;" x="378.670725" xlink:href="#mbed45dcfb6" y="307.584"/>
      </g>
     </g>
     <g id="text_8">
      <!-- 17.5 -->
      <g transform="translate(367.537912 322.182437)scale(0.1 -0.1)">
       <use xlink:href="#DejaVuSans-49"/>
       <use x="63.623047" xlink:href="#DejaVuSans-55"/>
       <use x="127.246094" xlink:href="#DejaVuSans-46"/>
       <use x="159.033203" xlink:href="#DejaVuSans-53"/>
      </g>
     </g>
    </g>
    <g id="text_9">
     <!-- Hours -->
     <defs>
      <path d="M 9.8125 72.90625 
L 19.671875 72.90625 
L 19.671875 43.015625 
L 55.515625 43.015625 
L 55.515625 72.90625 
L 65.375 72.90625 
L 65.375 0 
L 55.515625 0 
L 55.515625 34.71875 
L 19.671875 34.71875 
L 19.671875 0 
L 9.8125 0 
z
" id="DejaVuSans-72"/>
      <path d="M 30.609375 48.390625 
Q 23.390625 48.390625 19.1875 42.75 
Q 14.984375 37.109375 14.984375 27.296875 
Q 14.984375 17.484375 19.15625 11.84375 
Q 23.34375 6.203125 30.609375 6.203125 
Q 37.796875 6.203125 41.984375 11.859375 
Q 46.1875 17.53125 46.1875 27.296875 
Q 46.1875 37.015625 41.984375 42.703125 
Q 37.796875 48.390625 30.609375 48.390625 
z
M 30.609375 56 
Q 42.328125 56 49.015625 48.375 
Q 55.71875 40.765625 55.71875 27.296875 
Q 55.71875 13.875 49.015625 6.21875 
Q 42.328125 -1.421875 30.609375 -1.421875 
Q 18.84375 -1.421875 12.171875 6.21875 
Q 5.515625 13.875 5.515625 27.296875 
Q 5.515625 40.765625 12.171875 48.375 
Q 18.84375 56 30.609375 56 
z
" id="DejaVuSans-111"/>
      <path d="M 8.5 21.578125 
L 8.5 54.6875 
L 17.484375 54.6875 
L 17.484375 21.921875 
Q 17.484375 14.15625 20.5 10.265625 
Q 23.53125 6.390625 29.59375 6.390625 
Q 36.859375 6.390625 41.078125 11.03125 
Q 45.3125 15.671875 45.3125 23.6875 
L 45.3125 54.6875 
L 54.296875 54.6875 
L 54.296875 0 
L 45.3125 0 
L 45.3125 8.40625 
Q 42.046875 3.421875 37.71875 1 
Q 33.40625 -1.421875 27.6875 -1.421875 
Q 18.265625 -1.421875 13.375 4.4375 
Q 8.5 10.296875 8.5 21.578125 
z
M 31.109375 56 
z
" id="DejaVuSans-117"/>
      <path d="M 41.109375 46.296875 
Q 39.59375 47.171875 37.8125 47.578125 
Q 36.03125 48 33.890625 48 
Q 26.265625 48 22.1875 43.046875 
Q 18.109375 38.09375 18.109375 28.8125 
L 18.109375 0 
L 9.078125 0 
L 9.078125 54.6875 
L 18.109375 54.6875 
L 18.109375 46.1875 
Q 20.953125 51.171875 25.484375 53.578125 
Q 30.03125 56 36.53125 56 
Q 37.453125 56 38.578125 55.875 
Q 39.703125 55.765625 41.0625 55.515625 
z
" id="DejaVuSans-114"/>
      <path d="M 44.28125 53.078125 
L 44.28125 44.578125 
Q 40.484375 46.53125 36.375 47.5 
Q 32.28125 48.484375 27.875 48.484375 
Q 21.1875 48.484375 17.84375 46.4375 
Q 14.5 44.390625 14.5 40.28125 
Q 14.5 37.15625 16.890625 35.375 
Q 19.28125 33.59375 26.515625 31.984375 
L 29.59375 31.296875 
Q 39.15625 29.25 43.1875 25.515625 
Q 47.21875 21.78125 47.21875 15.09375 
Q 47.21875 7.46875 41.1875 3.015625 
Q 35.15625 -1.421875 24.609375 -1.421875 
Q 20.21875 -1.421875 15.453125 -0.5625 
Q 10.6875 0.296875 5.421875 2 
L 5.421875 11.28125 
Q 10.40625 8.6875 15.234375 7.390625 
Q 20.0625 6.109375 24.8125 6.109375 
Q 31.15625 6.109375 34.5625 8.28125 
Q 37.984375 10.453125 37.984375 14.40625 
Q 37.984375 18.0625 35.515625 20.015625 
Q 33.0625 21.96875 24.703125 23.78125 
L 21.578125 24.515625 
Q 13.234375 26.265625 9.515625 29.90625 
Q 5.8125 33.546875 5.8125 39.890625 
Q 5.8125 47.609375 11.28125 51.796875 
Q 16.75 56 26.8125 56 
Q 31.78125 56 36.171875 55.265625 
Q 40.578125 54.546875 44.28125 53.078125 
z
" id="DejaVuSans-115"/>
     </defs>
     <g transform="translate(221.511562 335.860562)scale(0.1 -0.1)">
      <use xlink:href="#DejaVuSans-72"/>
      <use x="75.195312" xlink:href="#DejaVuSans-111"/>
      <use x="136.376953" xlink:href="#DejaVuSans-117"/>
      <use x="199.755859" xlink:href="#DejaVuSans-114"/>
      <use x="240.869141" xlink:href="#DejaVuSans-115"/>
     </g>
    </g>
   </g>
   <g id="matplotlib.axis_2">
    <g id="ytick_1">
     <g id="line2d_17">
      <path clip-path="url(#pa169543dd3)" d="M 57.6 279.658972 
L 414.72 279.658972 
" style="fill:none;stroke:#b0b0b0;stroke-linecap:square;stroke-width:0.8;"/>
     </g>
     <g id="line2d_18">
      <defs>
       <path d="M 0 0 
L -3.5 0 
" id="m8db174704f" style="stroke:#000000;stroke-width:0.8;"/>
      </defs>
      <g>
       <use style="stroke:#000000;stroke-width:0.8;" x="57.6" xlink:href="#m8db174704f" y="279.658972"/>
      </g>
     </g>
     <g id="text_10">
      <!-- −1.00 -->
      <defs>
       <path d="M 10.59375 35.5 
L 73.1875 35.5 
L 73.1875 27.203125 
L 10.59375 27.203125 
z
" id="DejaVuSans-8722"/>
      </defs>
      <g transform="translate(19.954687 283.458191)scale(0.1 -0.1)">
       <use xlink:href="#DejaVuSans-8722"/>
       <use x="83.789062" xlink:href="#DejaVuSans-49"/>
       <use x="147.412109" xlink:href="#DejaVuSans-46"/>
       <use x="179.199219" xlink:href="#DejaVuSans-48"/>
       <use x="242.822266" xlink:href="#DejaVuSans-48"/>
      </g>
     </g>
    </g>
    <g id="ytick_2">
     <g id="line2d_19">
      <path clip-path="url(#pa169543dd3)" d="M 57.6 248.274333 
L 414.72 248.274333 
" style="fill:none;stroke:#b0b0b0;stroke-linecap:square;stroke-width:0.8;"/>
     </g>
     <g id="line2d_20">
      <g>
       <use style="stroke:#000000;stroke-width:0.8;" x="57.6" xlink:href="#m8db174704f" y="248.274333"/>
      </g>
     </g>
     <g id="text_11">
      <!-- −0.75 -->
      <g transform="translate(19.954687 252.073552)scale(0.1 -0.1)">
       <use xlink:href="#DejaVuSans-8722"/>
       <use x="83.789062" xlink:href="#DejaVuSans-48"/>
       <use x="147.412109" xlink:href="#DejaVuSans-46"/>
       <use x="179.199219" xlink:href="#DejaVuSans-55"/>
       <use x="242.822266" xlink:href="#DejaVuSans-53"/>
      </g>
     </g>
    </g>
    <g id="ytick_3">
     <g id="line2d_21">
      <path clip-path="url(#pa169543dd3)" d="M 57.6 216.889694 
L 414.72 216.889694 
" style="fill:none;stroke:#b0b0b0;stroke-linecap:square;stroke-width:0.8;"/>
     </g>
     <g id="line2d_22">
      <g>
       <use style="stroke:#000000;stroke-width:0.8;" x="57.6" xlink:href="#m8db174704f" y="216.889694"/>
      </g>
     </g>
     <g id="text_12">
      <!-- −0.50 -->
      <g transform="translate(19.954687 220.688913)scale(0.1 -0.1)">
       <use xlink:href="#DejaVuSans-8722"/>
       <use x="83.789062" xlink:href="#DejaVuSans-48"/>
       <use x="147.412109" xlink:href="#DejaVuSans-46"/>
       <use x="179.199219" xlink:href="#DejaVuSans-53"/>
       <use x="242.822266" xlink:href="#DejaVuSans-48"/>
      </g>
     </g>
    </g>
    <g id="ytick_4">
     <g id="line2d_23">
      <path clip-path="url(#pa169543dd3)" d="M 57.6 185.505056 
L 414.72 185.505056 
" style="fill:none;stroke:#b0b0b0;stroke-linecap:square;stroke-width:0.8;"/>
     </g>
     <g id="line2d_24">
      <g>
       <use style="stroke:#000000;stroke-width:0.8;" x="57.6" xlink:href="#m8db174704f" y="185.505056"/>
      </g>
     </g>
     <g id="text_13">
      <!-- −0.25 -->
      <g transform="translate(19.954687 189.304274)scale(0.1 -0.1)">
       <use xlink:href="#DejaVuSans-8722"/>
       <use x="83.789062" xlink:href="#DejaVuSans-48"/>
       <use x="147.412109" xlink:href="#DejaVuSans-46"/>
       <use x="179.199219" xlink:href="#DejaVuSans-50"/>
       <use x="242.822266" xlink:href="#DejaVuSans-53"/>
      </g>
     </g>
    </g>
    <g id="ytick_5">
     <g id="line2d_25">
      <path clip-path="url(#pa169543dd3)" d="M 57.6 154.120417 
L 414.72 154.120417 
" style="fill:none;stroke:#b0b0b0;stroke-linecap:square;stroke-width:0.8;"/>
     </g>
     <g id="line2d_26">
      <g>
       <use style="stroke:#000000;stroke-width:0.8;" x="57.6" xlink:href="#m8db174704f" y="154.120417"/>
      </g>
     </g>
     <g id="text_14">
      <!-- 0.00 -->
      <g transform="translate(28.334375 157.919636)scale(0.1 -0.1)">
       <use xlink:href="#DejaVuSans-48"/>
       <use x="63.623047" xlink:href="#DejaVuSans-46"/>
       <use x="95.410156" xlink:href="#DejaVuSans-48"/>
       <use x="159.033203" xlink:href="#DejaVuSans-48"/>
      </g>
     </g>
    </g>
    <g id="ytick_6">
     <g id="line2d_27">
      <path clip-path="url(#pa169543dd3)" d="M 57.6 122.735778 
L 414.72 122.735778 
" style="fill:none;stroke:#b0b0b0;stroke-linecap:square;stroke-width:0.8;"/>
     </g>
     <g id="line2d_28">
      <g>
       <use style="stroke:#000000;stroke-width:0.8;" x="57.6" xlink:href="#m8db174704f" y="122.735778"/>
      </g>
     </g>
     <g id="text_15">
      <!-- 0.25 -->
      <g transform="translate(28.334375 126.534997)scale(0.1 -0.1)">
       <use xlink:href="#DejaVuSans-48"/>
       <use x="63.623047" xlink:href="#DejaVuSans-46"/>
       <use x="95.410156" xlink:href="#DejaVuSans-50"/>
       <use x="159.033203" xlink:href="#DejaVuSans-53"/>
      </g>
     </g>
    </g>
    <g id="ytick_7">
     <g id="line2d_29">
      <path clip-path="url(#pa169543dd3)" d="M 57.6 91.351139 
L 414.72 91.351139 
" style="fill:none;stroke:#b0b0b0;stroke-linecap:square;stroke-width:0.8;"/>
     </g>
     <g id="line2d_30">
      <g>
       <use style="stroke:#000000;stroke-width:0.8;" x="57.6" xlink:href="#m8db174704f" y="91.351139"/>
      </g>
     </g>
     <g id="text_16">
      <!-- 0.50 -->
      <g transform="translate(28.334375 95.150358)scale(0.1 -0.1)">
       <use xlink:href="#DejaVuSans-48"/>
       <use x="63.623047" xlink:href="#DejaVuSans-46"/>
       <use x="95.410156" xlink:href="#DejaVuSans-53"/>
       <use x="159.033203" xlink:href="#DejaVuSans-48"/>
      </g>
     </g>
    </g>
    <g id="ytick_8">
     <g id="line2d_31">
      <path clip-path="url(#pa169543dd3)" d="M 57.6 59.9665 
L 414.72 59.9665 
" style="fill:none;stroke:#b0b0b0;stroke-linecap:square;stroke-width:0.8;"/>
     </g>
     <g id="line2d_32">
      <g>
       <use style="stroke:#000000;stroke-width:0.8;" x="57.6" xlink:href="#m8db174704f" y="59.9665"/>
      </g>
     </g>
     <g id="text_17">
      <!-- 0.75 -->
      <g transform="translate(28.334375 63.765719)scale(0.1 -0.1)">
       <use xlink:href="#DejaVuSans-48"/>
       <use x="63.623047" xlink:href="#DejaVuSans-46"/>
       <use x="95.410156" xlink:href="#DejaVuSans-55"/>
       <use x="159.033203" xlink:href="#DejaVuSans-53"/>
      </g>
     </g>
    </g>
    <g id="text_18">
     <!-- Policy loss -->
     <defs>
      <path d="M 19.671875 64.796875 
L 19.671875 37.40625 
L 32.078125 37.40625 
Q 38.96875 37.40625 42.71875 40.96875 
Q 46.484375 44.53125 46.484375 51.125 
Q 46.484375 57.671875 42.71875 61.234375 
Q 38.96875 64.796875 32.078125 64.796875 
z
M 9.8125 72.90625 
L 32.078125 72.90625 
Q 44.34375 72.90625 50.609375 67.359375 
Q 56.890625 61.8125 56.890625 51.125 
Q 56.890625 40.328125 50.609375 34.8125 
Q 44.34375 29.296875 32.078125 29.296875 
L 19.671875 29.296875 
L 19.671875 0 
L 9.8125 0 
z
" id="DejaVuSans-80"/>
      <path d="M 9.421875 75.984375 
L 18.40625 75.984375 
L 18.40625 0 
L 9.421875 0 
z
" id="DejaVuSans-108"/>
      <path d="M 9.421875 54.6875 
L 18.40625 54.6875 
L 18.40625 0 
L 9.421875 0 
z
M 9.421875 75.984375 
L 18.40625 75.984375 
L 18.40625 64.59375 
L 9.421875 64.59375 
z
" id="DejaVuSans-105"/>
      <path d="M 48.78125 52.59375 
L 48.78125 44.1875 
Q 44.96875 46.296875 41.140625 47.34375 
Q 37.3125 48.390625 33.40625 48.390625 
Q 24.65625 48.390625 19.8125 42.84375 
Q 14.984375 37.3125 14.984375 27.296875 
Q 14.984375 17.28125 19.8125 11.734375 
Q 24.65625 6.203125 33.40625 6.203125 
Q 37.3125 6.203125 41.140625 7.25 
Q 44.96875 8.296875 48.78125 10.40625 
L 48.78125 2.09375 
Q 45.015625 0.34375 40.984375 -0.53125 
Q 36.96875 -1.421875 32.421875 -1.421875 
Q 20.0625 -1.421875 12.78125 6.34375 
Q 5.515625 14.109375 5.515625 27.296875 
Q 5.515625 40.671875 12.859375 48.328125 
Q 20.21875 56 33.015625 56 
Q 37.15625 56 41.109375 55.140625 
Q 45.0625 54.296875 48.78125 52.59375 
z
" id="DejaVuSans-99"/>
      <path d="M 32.171875 -5.078125 
Q 28.375 -14.84375 24.75 -17.8125 
Q 21.140625 -20.796875 15.09375 -20.796875 
L 7.90625 -20.796875 
L 7.90625 -13.28125 
L 13.1875 -13.28125 
Q 16.890625 -13.28125 18.9375 -11.515625 
Q 21 -9.765625 23.484375 -3.21875 
L 25.09375 0.875 
L 2.984375 54.6875 
L 12.5 54.6875 
L 29.59375 11.921875 
L 46.6875 54.6875 
L 56.203125 54.6875 
z
" id="DejaVuSans-121"/>
      <path id="DejaVuSans-32"/>
     </defs>
     <g transform="translate(13.875 200.333469)rotate(-90)scale(0.1 -0.1)">
      <use xlink:href="#DejaVuSans-80"/>
      <use x="60.255859" xlink:href="#DejaVuSans-111"/>
      <use x="121.4375" xlink:href="#DejaVuSans-108"/>
      <use x="149.220703" xlink:href="#DejaVuSans-105"/>
      <use x="177.003906" xlink:href="#DejaVuSans-99"/>
      <use x="231.984375" xlink:href="#DejaVuSans-121"/>
      <use x="291.164062" xlink:href="#DejaVuSans-32"/>
      <use x="322.951172" xlink:href="#DejaVuSans-108"/>
      <use x="350.734375" xlink:href="#DejaVuSans-111"/>
      <use x="411.916016" xlink:href="#DejaVuSans-115"/>
      <use x="464.015625" xlink:href="#DejaVuSans-115"/>
     </g>
    </g>
   </g>
   <g id="line2d_33">
    <path clip-path="url(#pa169543dd3)" d="M 57.6 135.274493 
L 57.633602 154.467269 
L 57.926824 184.168699 
L 58.185621 158.531127 
L 58.900887 177.549759 
L 59.001197 190.664566 
L 59.693851 165.209163 
L 59.983106 179.144014 
L 60.182817 130.791357 
L 60.570826 160.911676 
L 60.592785 186.321364 
L 60.68186 142.236689 
L 61.819528 152.308833 
L 62.249008 198.079398 
L 62.403309 137.030611 
L 63.083835 134.727324 
L 63.379711 173.377446 
L 63.554704 126.194176 
L 63.63087 144.500213 
L 64.156193 196.191937 
L 64.45095 168.694805 
L 64.559837 129.250739 
L 65.028291 163.471094 
L 65.116394 136.067327 
L 65.649162 140.99414 
L 65.801751 204.958432 
L 65.823448 163.227626 
L 65.986275 187.228388 
L 66.051435 169.606198 
L 66.35498 152.25085 
L 67.537352 112.2664 
L 67.819394 158.959519 
L 67.830235 184.264392 
L 68.186924 153.588193 
L 68.283009 135.386475 
L 68.824345 125.103227 
L 68.856411 135.658207 
L 69.159147 154.993435 
L 69.276406 133.126203 
L 70.116691 139.220654 
L 71.03772 150.993256 
L 71.657046 155.674305 
L 71.688954 141.710413 
L 71.837244 139.433758 
L 71.87939 116.31523 
L 72.426876 183.905384 
L 72.501186 141.428911 
L 72.747782 155.742386 
L 72.874489 131.28929 
L 72.980199 164.769853 
L 73.31702 168.847876 
L 73.606734 158.720246 
L 73.971796 203.562774 
L 74.304457 112.030624 
L 74.668619 202.056005 
L 74.922678 180.066037 
L 75.322092 130.174453 
L 75.926236 168.851881 
L 76.114647 155.59728 
L 76.388671 171.74624 
L 76.409659 121.555437 
L 76.440863 129.183322 
L 76.963665 113.117297 
L 77.690189 171.33974 
L 77.784214 150.667655 
L 77.920533 177.198586 
L 77.952336 146.013832 
L 78.074202 166.207287 
L 78.532311 151.155595 
L 78.710369 82.843331 
L 78.886063 228.375939 
L 79.53058 212.956951 
L 79.936868 230.842088 
L 80.645194 147.601395 
L 81.725312 144.202031 
L 81.851402 105.098164 
L 81.978335 133.68489 
L 82.22893 141.878268 
L 82.281537 107.246909 
L 82.291949 167.846462 
L 82.595026 110.63818 
L 83.278058 176.695725 
L 83.689533 140.415315 
L 84.103762 132.119273 
L 84.135801 175.595764 
L 84.64352 127.738265 
L 84.863865 163.883225 
L 84.885177 189.055064 
L 84.937905 104.249579 
L 85.243039 122.146491 
L 85.253814 148.118716 
L 85.360378 134.423484 
L 85.38143 155.715822 
L 85.474108 129.749716 
L 85.823904 117.509896 
L 85.983111 214.890229 
L 86.047252 189.48995 
L 87.594447 122.883138 
L 88.254283 181.070858 
L 88.440474 164.870527 
L 88.849335 162.754831 
L 90.099761 191.375484 
L 90.924987 166.154521 
L 91.468329 170.994482 
L 91.790834 156.615085 
L 91.822382 225.432761 
L 92.506991 128.376872 
L 93.238009 166.815192 
L 93.643456 164.5196 
L 94.038802 127.069833 
L 94.186517 216.535513 
L 94.217858 98.292089 
L 94.908827 127.667295 
L 95.772769 195.828387 
L 96.148468 152.826896 
L 96.981465 115.823618 
L 98.395593 128.176559 
L 98.585719 140.676447 
L 98.606637 109.767607 
L 99.207763 133.067896 
L 99.874282 168.77989 
L 100.031312 140.539143 
L 100.656244 142.614709 
L 100.913613 201.206579 
L 100.987738 186.492766 
L 101.479035 149.817505 
L 102.225178 136.146699 
L 102.559771 165.148417 
L 102.891744 171.275658 
L 103.514848 217.453148 
L 104.243807 153.152499 
L 104.360869 155.906863 
L 105.205809 193.803854 
L 105.391048 190.015129 
L 105.453531 227.349921 
L 105.80518 130.712905 
L 106.168195 104.664351 
L 106.633666 134.624942 
L 106.807237 177.643386 
L 106.827942 151.195472 
L 107.754646 127.945799 
L 108.831797 185.72224 
L 109.048889 149.690248 
L 109.269498 175.312247 
L 110.449527 141.177627 
L 110.86498 177.802324 
L 110.907082 192.195459 
L 110.99159 176.305365 
L 111.879006 188.702645 
L 112.314668 222.521893 
L 112.462129 53.568 
L 112.897136 156.264348 
L 113.059982 163.139252 
L 113.536641 95.985526 
L 114.323151 227.577335 
L 114.485787 111.241201 
L 115.351688 107.282931 
L 115.372612 176.321494 
L 116.012553 168.541567 
L 116.341235 201.016066 
L 117.107287 166.510391 
L 118.602794 77.372638 
L 118.807727 193.155012 
L 118.954205 107.381051 
L 119.667232 99.753505 
L 119.934966 152.990857 
L 120.768566 175.423009 
L 120.789246 122.621334 
L 121.15939 142.958041 
L 121.594908 159.787061 
L 122.513914 181.02906 
L 122.670061 96.78492 
L 123.208807 185.276671 
L 124.170105 190.38419 
L 124.416454 142.171153 
L 124.80841 150.166209 
L 124.901701 201.637458 
L 125.355216 136.646132 
L 125.575164 149.933487 
L 125.865125 148.284221 
L 125.98078 192.926734 
L 126.300274 184.850364 
L 126.547167 142.019588 
L 127.815769 222.533514 
L 127.957816 133.962931 
L 128.517301 190.963323 
L 128.887866 128.286777 
L 128.985337 209.551467 
L 129.123106 136.013391 
L 129.792969 126.750949 
L 130.070636 219.329722 
L 130.122608 150.317075 
L 130.37177 187.657598 
L 130.639387 83.492551 
L 130.81446 165.187103 
L 131.063655 157.102832 
L 132.178072 134.785884 
L 132.461346 226.264199 
L 133.098216 210.175156 
L 133.203911 154.217585 
L 133.438064 168.256212 
L 134.075 173.640805 
L 134.516883 188.893876 
L 134.548181 154.970267 
L 134.672777 154.965232 
L 135.027047 185.198769 
L 136.249574 167.120349 
L 136.332826 137.589304 
L 136.489261 186.764496 
L 137.602071 139.989594 
L 137.909271 171.246691 
L 138.177332 120.049514 
L 139.233326 167.987076 
L 139.316343 97.264769 
L 139.773869 200.277177 
L 140.482858 158.564584 
L 140.840898 153.720087 
L 141.572414 135.124514 
L 141.795339 152.006207 
L 141.898755 144.834647 
L 141.909321 150.09785 
L 142.130197 166.074988 
L 142.597823 137.479464 
L 143.17413 197.428771 
L 143.278301 189.028175 
L 143.309354 214.375267 
L 143.500723 159.235566 
L 143.878801 131.611066 
L 144.993419 107.981581 
L 145.909245 146.299235 
L 145.971605 240.688676 
L 147.051479 130.15358 
L 147.155267 169.797125 
L 147.542262 201.926813 
L 148.308554 146.789424 
L 148.672578 110.710403 
L 149.351399 213.998372 
L 149.746038 146.115346 
L 149.887742 154.787105 
L 150.012144 125.297068 
L 150.221651 153.676287 
L 151.515096 194.781728 
L 151.909573 248.433213 
L 152.003355 141.300833 
L 152.790413 141.825233 
L 153.262666 157.793319 
L 153.603692 164.219708 
L 153.773748 85.496802 
L 154.774393 222.835193 
L 154.841835 131.651246 
L 155.132848 141.701717 
L 155.254271 176.500835 
L 155.923189 228.408167 
L 156.324885 200.276208 
L 156.700402 161.916695 
L 156.710603 180.545389 
L 157.402819 147.092852 
L 158.795153 189.771998 
L 158.826085 175.776874 
L 159.467254 130.177091 
L 159.539248 177.199091 
L 159.737017 153.193035 
L 159.794712 127.031505 
L 160.083357 213.541337 
L 160.563437 155.64224 
L 160.749848 181.334007 
L 160.95132 126.650045 
L 161.458737 234.337346 
L 161.577196 105.84208 
L 163.429271 176.129112 
L 163.501222 173.517425 
L 163.815766 121.091526 
L 164.334025 185.96441 
L 164.464027 112.244225 
L 164.830459 86.980932 
L 165.046114 152.615815 
L 165.56286 218.941797 
L 165.593781 134.653257 
L 165.801527 179.221962 
L 165.911072 112.519629 
L 166.213158 108.18789 
L 167.008468 89.290813 
L 167.101473 175.540747 
L 167.174398 123.660813 
L 167.339275 197.583206 
L 167.566628 181.012845 
L 168.028404 131.035719 
L 168.36278 170.119578 
L 168.82187 108.68862 
L 169.615588 156.780002 
L 170.435232 110.609225 
L 170.499829 123.716258 
L 170.949747 130.764339 
L 171.2359 143.212233 
L 171.979448 135.844116 
L 172.856809 134.311931 
L 172.908889 129.245707 
L 172.940219 179.784509 
L 173.24512 143.154178 
L 173.769969 130.053819 
L 173.935292 198.982692 
L 174.211843 143.795521 
L 174.387631 181.719442 
L 175.231275 174.256139 
L 175.437877 180.053893 
L 175.545135 124.416964 
L 176.812695 200.427785 
L 176.84349 168.036461 
L 177.093917 123.53551 
L 177.774144 171.956212 
L 177.919521 130.572777 
L 178.256641 117.464252 
L 178.621874 172.323589 
L 179.231644 125.827307 
L 179.406884 205.05723 
L 179.587003 215.688818 
L 179.961684 125.305 
L 180.408113 130.669203 
L 180.951918 206.537836 
L 180.962204 126.621377 
L 181.188635 247.6698 
L 181.296903 99.231629 
L 181.622978 214.484424 
L 181.891397 60.155752 
L 182.02111 221.838141 
L 182.166524 148.078375 
L 182.595131 151.424583 
L 182.626285 118.44067 
L 183.049242 184.458305 
L 183.090925 158.862416 
L 183.3277 139.103523 
L 183.447926 161.27471 
L 183.888967 234.547811 
L 183.950205 140.109289 
L 184.122195 172.396437 
L 184.174168 119.118414 
L 184.902464 146.551146 
L 185.098891 116.13694 
L 185.223306 209.669749 
L 185.724478 127.262366 
L 186.018429 157.739541 
L 186.028797 170.908412 
L 186.708797 145.651722 
L 186.831835 105.833644 
L 188.524669 222.996789 
L 189.350896 138.143164 
L 189.706227 234.866678 
L 189.835003 115.588852 
L 190.01145 203.799545 
L 190.224029 99.522796 
L 190.579317 156.492415 
L 191.013445 134.590676 
L 191.136954 199.256046 
L 191.404173 152.774259 
L 191.547508 89.306594 
L 192.411197 154.290015 
L 193.683378 191.661611 
L 194.560165 145.96551 
L 194.814073 121.827912 
L 194.865152 82.005645 
L 195.199025 161.525089 
L 195.271312 269.077361 
L 195.626244 136.122167 
L 196.729952 167.1327 
L 197.031363 154.63838 
L 197.072505 167.960764 
L 197.236723 174.096792 
L 197.743953 132.760988 
L 198.473881 140.192352 
L 198.505056 168.401389 
L 198.669485 137.450938 
L 199.762003 188.815925 
L 200.117119 171.861921 
L 200.371131 252.749598 
L 201.460373 162.381693 
L 202.318313 270.641249 
L 202.8249 224.879978 
L 203.146358 170.987736 
L 203.824433 221.388522 
L 203.989013 167.576118 
L 204.343001 207.934788 
L 204.677375 138.481187 
L 205.021321 179.446763 
L 205.192081 175.977259 
L 205.387534 109.607968 
L 205.899457 105.814589 
L 206.104985 168.442671 
L 206.773999 158.168601 
L 206.986183 92.342819 
L 207.263576 176.547417 
L 207.512054 195.936276 
L 207.825777 97.420731 
L 207.867873 145.494065 
L 208.077329 108.454124 
L 208.484331 162.895916 
L 208.934424 165.038771 
L 208.944775 171.89687 
L 209.309554 164.141674 
L 210.182362 165.097452 
L 210.589967 282.487859 
L 211.175384 147.132222 
L 211.250551 167.364031 
L 211.455266 161.746388 
L 212.033526 163.341851 
L 212.368047 145.458707 
L 212.834066 108.236969 
L 213.431965 123.436271 
L 213.585051 170.111189 
L 213.668132 234.443271 
L 213.766593 126.94684 
L 214.346766 86.582097 
L 214.377409 136.123192 
L 214.862348 163.346273 
L 215.119432 163.927494 
L 215.455519 182.092996 
L 215.842665 170.829844 
L 216.268802 72.484023 
L 216.504124 138.521195 
L 216.690832 148.617607 
L 217.305414 147.326231 
L 217.511066 149.172011 
L 217.682151 82.632858 
L 217.7432 249.54707 
L 217.968261 81.578249 
L 218.914147 218.488003 
L 220.539991 137.584362 
L 221.290693 178.253427 
L 221.3009 175.008386 
L 221.363265 189.785029 
L 221.456533 133.960793 
L 221.668729 127.736618 
L 221.79188 129.253448 
L 221.853507 133.341027 
L 222.530236 135.32685 
L 223.119251 109.180879 
L 223.637847 136.754293 
L 224.044169 177.151716 
L 224.325593 142.533183 
L 224.356102 110.225682 
L 225.237503 144.57482 
L 225.298556 102.528746 
L 225.645438 134.683139 
L 225.737211 134.14155 
L 225.77808 179.680312 
L 225.876611 168.982682 
L 226.515823 209.843658 
L 226.894027 153.240366 
L 226.904362 158.894401 
L 227.022672 108.954359 
L 227.064336 237.267167 
L 227.239577 146.637198 
L 227.974874 166.428094 
L 228.20641 120.644009 
L 228.577966 102.804984 
L 228.588102 140.71002 
L 228.871029 132.077922 
L 229.729628 184.470633 
L 230.45344 177.747433 
L 230.955391 138.961335 
L 230.996385 139.817198 
L 231.482633 142.627572 
L 231.702477 190.432345 
L 232.45687 197.846874 
L 233.127475 165.559618 
L 233.400964 181.227194 
L 234.303213 161.278163 
L 234.623386 187.802665 
L 234.835324 97.595017 
L 234.856021 203.513265 
L 235.575443 86.554883 
L 236.255661 157.735354 
L 237.868269 200.766361 
L 238.152919 167.148954 
L 238.245195 123.850673 
L 238.306377 197.7541 
L 238.881814 133.006272 
L 239.114101 149.925612 
L 239.308943 207.351094 
L 240.612411 246.207669 
L 240.756903 187.726147 
L 241.47506 106.742617 
L 241.946926 135.975402 
L 242.163262 171.067608 
L 242.840641 200.141595 
L 243.113982 96.834044 
L 243.154864 171.391621 
L 243.674159 176.649327 
L 244.790254 125.802175 
L 244.963235 114.619793 
L 245.494853 138.788051 
L 245.872685 114.327538 
L 246.612767 168.370873 
L 247.205141 246.323643 
L 247.510967 118.884625 
L 247.562086 135.007644 
L 248.404955 180.77559 
L 248.812083 169.374029 
L 249.352201 180.309217 
L 250.060508 163.514527 
L 250.070915 166.336291 
L 250.366015 133.219792 
L 250.494637 152.006876 
L 250.637974 149.625975 
L 251.108824 156.315996 
L 251.401344 267.095506 
L 253.043031 93.413938 
L 253.395533 163.35988 
L 253.780583 141.245143 
L 254.015955 95.91572 
L 254.481763 165.137913 
L 254.584445 146.082825 
L 255.001668 105.90862 
L 255.264587 256.701112 
L 255.377286 154.411032 
L 255.600237 157.53873 
L 255.620936 178.792629 
L 255.893633 169.692962 
L 255.903875 163.045816 
L 255.914048 170.926913 
L 255.944796 169.943702 
L 256.140274 169.342235 
L 256.54051 109.857605 
L 256.896229 124.576635 
L 257.150508 128.665737 
L 257.475967 171.520681 
L 258.057468 190.403503 
L 258.507946 183.366906 
L 258.651363 119.373491 
L 258.894854 189.406952 
L 259.095914 126.639336 
L 259.106122 166.265978 
L 259.146757 116.81529 
L 259.403053 143.344612 
L 259.542704 86.567057 
L 259.750699 182.289158 
L 259.93333 115.23634 
L 260.576553 239.076854 
L 261.115631 122.979706 
L 261.125877 143.628319 
L 261.491011 132.664809 
L 261.919479 170.409936 
L 263.209134 212.540083 
L 263.503301 120.991011 
L 263.627281 159.301678 
L 263.951913 202.476981 
L 264.35031 161.803089 
L 264.511153 173.016579 
L 264.949602 146.193431 
L 265.243312 171.809881 
L 265.417704 141.044639 
L 265.943683 157.873329 
L 266.454342 120.317095 
L 266.778066 139.457388 
L 267.899851 92.142339 
L 268.9296 130.670927 
L 268.940089 116.145758 
L 269.950009 154.847853 
L 270.032653 130.236397 
L 270.536027 172.098162 
L 271.226039 133.166379 
L 271.92397 207.48622 
L 272.032755 107.498772 
L 272.331753 189.470229 
L 272.786501 127.674824 
L 272.961439 180.681164 
L 273.46725 180.211934 
L 273.998906 131.465377 
L 274.447865 109.142358 
L 274.973788 147.178858 
L 275.024961 138.839254 
L 275.298335 150.497305 
L 275.524969 152.206364 
L 275.779446 130.454206 
L 276.337394 103.001842 
L 276.552825 142.704591 
L 276.971825 122.288381 
L 277.173617 121.414868 
L 277.851141 210.648357 
L 278.340777 167.525651 
L 278.381536 177.367926 
L 278.677426 143.211175 
L 280.808191 143.87884 
L 280.999979 99.826757 
L 281.030515 171.430746 
L 281.257431 101.565841 
L 281.357344 163.409338 
L 281.886994 257.017419 
L 282.076866 259.740285 
L 282.522876 236.971901 
L 282.584436 148.062904 
L 282.728265 188.183878 
L 282.970763 196.58263 
L 283.518494 130.117114 
L 283.590324 96.799721 
L 283.631135 109.015785 
L 283.691941 128.819815 
L 284.373111 124.681206 
L 284.687735 212.089577 
L 284.961691 122.038875 
L 285.758515 196.009378 
L 286.021563 85.845996 
L 286.399539 193.432642 
L 286.575261 145.106319 
L 286.646762 160.280518 
L 287.136987 177.307459 
L 287.322689 105.658186 
L 287.383709 215.712912 
L 287.452712 79.730206 
L 288.313942 226.051309 
L 288.344421 91.42649 
L 288.813905 204.759748 
L 288.844663 142.750271 
L 289.200569 141.578942 
L 289.54802 111.751068 
L 289.637622 127.226597 
L 290.253037 145.811282 
L 290.444679 125.062411 
L 290.557784 188.486586 
L 290.995435 145.442781 
L 291.136864 107.494956 
L 291.282929 105.088298 
L 291.80093 173.573436 
L 292.026663 99.268227 
L 292.303852 272.180908 
L 292.764002 98.335971 
L 292.936355 223.147139 
L 292.946476 170.468849 
L 293.151693 115.911648 
L 293.211162 148.606019 
L 293.263701 89.341276 
L 293.377303 271.757276 
L 294.658284 166.437112 
L 294.668446 143.257788 
L 294.884742 146.193323 
L 295.658202 87.094167 
L 295.737164 230.959237 
L 295.747258 137.927138 
L 296.186156 162.595452 
L 296.278169 216.656979 
L 296.562845 197.202824 
L 296.93927 93.948703 
L 297.236296 217.765662 
L 297.648049 174.107771 
L 298.07632 159.230713 
L 298.646365 120.716775 
L 299.012913 149.628559 
L 299.105762 181.525446 
L 299.14691 119.816062 
L 299.884488 151.830598 
L 300.627068 166.669569 
L 300.902714 188.358909 
L 301.884314 149.043692 
L 301.915049 204.058464 
L 301.966994 126.166222 
L 302.731634 295.488 
L 302.954907 157.956685 
L 303.801669 284.306375 
L 304.240138 152.137421 
L 304.250495 223.601929 
L 305.260896 196.15682 
L 306.05991 248.302678 
L 306.233421 118.218566 
L 306.571327 130.193626 
L 306.581537 119.031398 
L 307.043056 164.91315 
L 307.327328 169.262786 
L 307.635959 155.917326 
L 307.698105 160.551467 
L 307.913888 161.866893 
L 308.014019 170.073438 
L 308.702934 196.451159 
L 309.344586 161.335779 
L 309.711364 150.810605 
L 309.820923 250.123693 
L 310.760179 152.780547 
L 312.284343 158.57661 
L 312.712286 121.137421 
L 313.10106 192.189533 
L 313.215203 154.030804 
L 313.266834 194.673413 
L 313.377605 138.486709 
L 313.387968 153.885666 
L 313.531626 166.692619 
L 313.860374 173.813887 
L 314.647236 234.107777 
L 314.678111 212.232945 
L 315.585685 100.353729 
L 316.003837 169.063611 
L 317.065179 163.406366 
L 317.229174 115.590873 
L 318.482046 128.312068 
L 318.678131 227.881536 
L 319.258668 191.586788 
L 319.391674 130.093942 
L 319.401792 272.228932 
L 319.491569 207.611297 
L 320.435816 118.861253 
L 320.466399 160.915536 
L 322.167035 182.305214 
L 322.207955 179.170749 
L 322.218277 163.460769 
L 322.430957 204.712667 
L 322.585256 212.641541 
L 322.726324 143.279928 
L 322.839425 142.936484 
L 322.890687 164.204314 
L 322.942571 120.520946 
L 322.983791 144.091361 
L 323.08339 107.234761 
L 323.330029 179.308531 
L 323.470827 158.861713 
L 323.776961 150.190969 
L 323.79786 187.534044 
L 324.27851 154.573143 
L 324.55352 198.109583 
L 324.940504 116.058237 
L 325.116589 158.678295 
L 325.402038 173.917933 
L 325.636035 151.350869 
L 325.780494 117.172831 
L 326.161653 150.739729 
L 327.484221 183.850047 
L 328.027075 137.088475 
L 328.732353 125.781218 
L 328.977618 110.29474 
L 329.091015 182.166341 
L 329.33476 159.849861 
L 330.033509 211.410853 
L 330.169785 142.938047 
L 330.590399 134.780741 
L 330.837003 155.573428 
L 330.951023 116.660687 
L 331.957989 236.022573 
L 332.09878 238.988206 
L 333.083145 228.651421 
L 334.136747 169.540247 
L 334.157519 193.37929 
L 334.497166 180.176261 
L 334.937442 109.772029 
L 335.513114 170.979163 
L 336.087914 181.525519 
L 336.108581 167.747238 
L 336.190862 173.679318 
L 336.538332 203.884417 
L 336.8135 165.056468 
L 336.9584 204.560264 
L 337.624386 150.000462 
L 338.737626 88.915107 
L 339.241859 141.133382 
L 339.283649 159.486664 
L 339.979737 144.412311 
L 340.531808 213.263411 
L 341.147732 171.342185 
L 341.23061 177.060179 
L 341.962948 89.893924 
L 342.651892 176.218027 
L 343.001151 99.426048 
L 343.227708 163.713922 
L 343.605871 170.072628 
L 343.943523 103.186537 
L 344.127025 98.869718 
L 344.487765 138.341682 
L 344.926893 115.63003 
L 345.924485 210.494449 
L 346.75506 147.861717 
L 347.051292 176.749389 
L 347.297296 139.489347 
L 347.318351 174.812523 
L 348.211147 144.074338 
L 348.897738 207.742992 
L 350.22882 147.520049 
L 350.384994 161.426843 
L 350.999669 113.796616 
L 351.315653 119.784021 
L 352.03404 186.041261 
L 352.291407 136.521134 
L 352.993037 122.809383 
L 353.319847 202.66532 
L 353.780077 125.975532 
L 354.179315 97.130451 
L 354.344837 112.508899 
L 354.558116 188.575409 
L 355.017582 132.0139 
L 355.630277 84.987486 
L 356.245592 189.599089 
L 356.45079 119.715704 
L 356.70629 137.094306 
L 356.800257 126.159346 
L 356.965168 142.946606 
L 357.035096 213.160554 
L 357.691108 114.314163 
L 357.701406 164.503474 
L 357.886168 133.313272 
L 359.137113 139.646794 
L 359.308535 125.733722 
L 359.422309 107.072181 
L 360.468395 166.554746 
L 360.571841 163.135881 
L 360.673078 187.117622 
L 361.378007 82.843436 
L 361.850601 138.096921 
L 363.668878 162.231069 
L 364.09786 69.459389 
L 364.647515 193.012519 
L 364.668757 140.536886 
L 365.121175 119.207211 
L 365.141611 228.824174 
L 365.344398 127.233039 
L 365.478189 153.994484 
L 365.498811 130.374832 
L 366.628843 184.487145 
L 368.24707 292.901671 
L 368.36049 119.953833 
L 369.154557 183.201686 
L 369.216031 115.596144 
L 369.294847 164.238585 
L 369.305183 137.948869 
L 370.628577 233.589968 
L 371.282969 165.632474 
L 372.565368 125.382765 
L 372.678966 185.282708 
L 372.761472 105.775215 
L 373.333666 174.728564 
L 373.58154 92.991085 
L 374.069467 162.011331 
L 374.100871 130.799618 
L 374.459024 149.953181 
L 374.561941 166.360593 
L 374.63492 224.266338 
L 374.860419 120.404968 
L 375.524536 103.77854 
L 375.729433 142.472157 
L 375.798473 245.672523 
L 376.013597 89.716787 
L 377.015645 144.776383 
L 378.078011 191.797987 
L 378.098976 227.185646 
L 378.467071 133.862657 
L 378.691783 119.779984 
L 378.930163 251.246955 
L 380.259878 212.833812 
L 381.953462 151.0519 
L 382.221867 146.776086 
L 382.343697 150.538783 
L 382.755455 109.98444 
L 383.403387 128.465514 
L 384.119211 142.946984 
L 384.253737 187.025697 
L 385.315665 218.02769 
L 385.654147 153.4416 
L 386.094587 180.288772 
L 386.84108 104.838765 
L 389.324769 219.595372 
L 390.253555 121.99103 
L 390.522856 123.812472 
L 390.788029 137.351287 
L 391.022433 125.28214 
L 391.22844 142.011681 
L 391.317754 97.541614 
L 391.605926 143.398415 
L 391.807069 243.698187 
L 392.125504 146.864748 
L 392.902318 110.283149 
L 393.290047 163.301013 
L 393.482553 162.091993 
L 393.596009 185.496873 
L 393.616531 123.006526 
L 393.699597 215.224925 
L 393.751372 194.16725 
L 394.130606 209.999754 
L 394.795241 134.222404 
L 395.650459 157.639053 
L 396.025992 108.683142 
L 396.097935 136.498366 
L 396.191234 129.662808 
L 396.780588 203.986761 
L 396.811839 140.709002 
L 397.027549 100.200087 
L 397.188903 176.916399 
L 397.386146 190.199357 
L 397.620991 138.460911 
L 399.172481 161.358983 
L 400.12315 159.194919 
L 400.133378 162.662009 
L 400.174758 141.632416 
L 400.521748 165.683348 
L 400.755292 113.057158 
L 400.888743 194.589128 
L 401.264739 169.189825 
L 402.165077 122.087856 
L 402.468817 176.561188 
L 402.520151 132.494812 
L 402.979692 130.708286 
L 403.132939 60.012945 
L 404.087912 171.006108 
L 404.339939 132.646157 
L 404.56687 120.685565 
L 404.810595 140.140694 
L 404.872002 108.852363 
L 405.043488 159.232334 
L 405.36898 162.27475 
L 405.849559 94.066881 
L 406.300445 111.117498 
L 407.067614 154.529473 
L 407.364264 152.760637 
L 407.516493 198.035654 
L 408.366259 173.910875 
L 408.651705 118.509766 
L 408.682898 232.963309 
L 408.950166 139.727128 
L 409.135845 199.280499 
L 409.501013 132.308323 
L 410.211866 232.280941 
L 410.395142 86.49143 
L 410.570977 219.644174 
L 410.581421 150.154672 
L 411.051466 182.694927 
L 412.22113 174.937626 
L 412.537598 243.819325 
L 412.836666 126.977235 
L 413.55101 151.633194 
L 414.193801 118.603812 
L 414.72 197.023768 
L 414.72 197.023768 
" style="fill:none;stroke:#000000;stroke-linecap:square;stroke-width:0.8;"/>
   </g>
   <g id="patch_3">
    <path d="M 57.6 307.584 
L 57.6 41.472 
" style="fill:none;stroke:#000000;stroke-linecap:square;stroke-linejoin:miter;stroke-width:0.8;"/>
   </g>
   <g id="patch_4">
    <path d="M 414.72 307.584 
L 414.72 41.472 
" style="fill:none;stroke:#000000;stroke-linecap:square;stroke-linejoin:miter;stroke-width:0.8;"/>
   </g>
   <g id="patch_5">
    <path d="M 57.6 307.584 
L 414.72 307.584 
" style="fill:none;stroke:#000000;stroke-linecap:square;stroke-linejoin:miter;stroke-width:0.8;"/>
   </g>
   <g id="patch_6">
    <path d="M 57.6 41.472 
L 414.72 41.472 
" style="fill:none;stroke:#000000;stroke-linecap:square;stroke-linejoin:miter;stroke-width:0.8;"/>
   </g>
  </g>
  <g id="axes_2">
   <g id="matplotlib.axis_3">
    <g id="xtick_9">
     <g id="line2d_34">
      <defs>
       <path d="M 0 0 
L 0 -3.5 
" id="m76dfa69d6c" style="stroke:#000000;stroke-width:0.8;"/>
      </defs>
      <g>
       <use style="stroke:#000000;stroke-width:0.8;" x="57.6" xlink:href="#m76dfa69d6c" y="41.472"/>
      </g>
     </g>
    </g>
    <g id="xtick_10">
     <g id="line2d_35">
      <g>
       <use style="stroke:#000000;stroke-width:0.8;" x="129.375413" xlink:href="#m76dfa69d6c" y="41.472"/>
      </g>
     </g>
     <g id="text_19">
      <!-- 20.0M -->
      <defs>
       <path d="M 9.8125 72.90625 
L 24.515625 72.90625 
L 43.109375 23.296875 
L 61.8125 72.90625 
L 76.515625 72.90625 
L 76.515625 0 
L 66.890625 0 
L 66.890625 64.015625 
L 48.09375 14.015625 
L 38.1875 14.015625 
L 19.390625 64.015625 
L 19.390625 0 
L 9.8125 0 
z
" id="DejaVuSans-77"/>
      </defs>
      <g transform="translate(113.928538 32.392313)scale(0.1 -0.1)">
       <use xlink:href="#DejaVuSans-50"/>
       <use x="63.623047" xlink:href="#DejaVuSans-48"/>
       <use x="127.246094" xlink:href="#DejaVuSans-46"/>
       <use x="159.033203" xlink:href="#DejaVuSans-48"/>
       <use x="222.65625" xlink:href="#DejaVuSans-77"/>
      </g>
     </g>
    </g>
    <g id="xtick_11">
     <g id="line2d_36">
      <g>
       <use style="stroke:#000000;stroke-width:0.8;" x="201.150826" xlink:href="#m76dfa69d6c" y="41.472"/>
      </g>
     </g>
     <g id="text_20">
      <!-- 40.0M -->
      <defs>
       <path d="M 37.796875 64.3125 
L 12.890625 25.390625 
L 37.796875 25.390625 
z
M 35.203125 72.90625 
L 47.609375 72.90625 
L 47.609375 25.390625 
L 58.015625 25.390625 
L 58.015625 17.1875 
L 47.609375 17.1875 
L 47.609375 0 
L 37.796875 0 
L 37.796875 17.1875 
L 4.890625 17.1875 
L 4.890625 26.703125 
z
" id="DejaVuSans-52"/>
      </defs>
      <g transform="translate(185.703951 32.392313)scale(0.1 -0.1)">
       <use xlink:href="#DejaVuSans-52"/>
       <use x="63.623047" xlink:href="#DejaVuSans-48"/>
       <use x="127.246094" xlink:href="#DejaVuSans-46"/>
       <use x="159.033203" xlink:href="#DejaVuSans-48"/>
       <use x="222.65625" xlink:href="#DejaVuSans-77"/>
      </g>
     </g>
    </g>
    <g id="xtick_12">
     <g id="line2d_37">
      <g>
       <use style="stroke:#000000;stroke-width:0.8;" x="272.926239" xlink:href="#m76dfa69d6c" y="41.472"/>
      </g>
     </g>
     <g id="text_21">
      <!-- 60.0M -->
      <defs>
       <path d="M 33.015625 40.375 
Q 26.375 40.375 22.484375 35.828125 
Q 18.609375 31.296875 18.609375 23.390625 
Q 18.609375 15.53125 22.484375 10.953125 
Q 26.375 6.390625 33.015625 6.390625 
Q 39.65625 6.390625 43.53125 10.953125 
Q 47.40625 15.53125 47.40625 23.390625 
Q 47.40625 31.296875 43.53125 35.828125 
Q 39.65625 40.375 33.015625 40.375 
z
M 52.59375 71.296875 
L 52.59375 62.3125 
Q 48.875 64.0625 45.09375 64.984375 
Q 41.3125 65.921875 37.59375 65.921875 
Q 27.828125 65.921875 22.671875 59.328125 
Q 17.53125 52.734375 16.796875 39.40625 
Q 19.671875 43.65625 24.015625 45.921875 
Q 28.375 48.1875 33.59375 48.1875 
Q 44.578125 48.1875 50.953125 41.515625 
Q 57.328125 34.859375 57.328125 23.390625 
Q 57.328125 12.15625 50.6875 5.359375 
Q 44.046875 -1.421875 33.015625 -1.421875 
Q 20.359375 -1.421875 13.671875 8.265625 
Q 6.984375 17.96875 6.984375 36.375 
Q 6.984375 53.65625 15.1875 63.9375 
Q 23.390625 74.21875 37.203125 74.21875 
Q 40.921875 74.21875 44.703125 73.484375 
Q 48.484375 72.75 52.59375 71.296875 
z
" id="DejaVuSans-54"/>
      </defs>
      <g transform="translate(257.479364 32.392313)scale(0.1 -0.1)">
       <use xlink:href="#DejaVuSans-54"/>
       <use x="63.623047" xlink:href="#DejaVuSans-48"/>
       <use x="127.246094" xlink:href="#DejaVuSans-46"/>
       <use x="159.033203" xlink:href="#DejaVuSans-48"/>
       <use x="222.65625" xlink:href="#DejaVuSans-77"/>
      </g>
     </g>
    </g>
    <g id="xtick_13">
     <g id="line2d_38">
      <g>
       <use style="stroke:#000000;stroke-width:0.8;" x="344.701653" xlink:href="#m76dfa69d6c" y="41.472"/>
      </g>
     </g>
     <g id="text_22">
      <!-- 80.0M -->
      <defs>
       <path d="M 31.78125 34.625 
Q 24.75 34.625 20.71875 30.859375 
Q 16.703125 27.09375 16.703125 20.515625 
Q 16.703125 13.921875 20.71875 10.15625 
Q 24.75 6.390625 31.78125 6.390625 
Q 38.8125 6.390625 42.859375 10.171875 
Q 46.921875 13.96875 46.921875 20.515625 
Q 46.921875 27.09375 42.890625 30.859375 
Q 38.875 34.625 31.78125 34.625 
z
M 21.921875 38.8125 
Q 15.578125 40.375 12.03125 44.71875 
Q 8.5 49.078125 8.5 55.328125 
Q 8.5 64.0625 14.71875 69.140625 
Q 20.953125 74.21875 31.78125 74.21875 
Q 42.671875 74.21875 48.875 69.140625 
Q 55.078125 64.0625 55.078125 55.328125 
Q 55.078125 49.078125 51.53125 44.71875 
Q 48 40.375 41.703125 38.8125 
Q 48.828125 37.15625 52.796875 32.3125 
Q 56.78125 27.484375 56.78125 20.515625 
Q 56.78125 9.90625 50.3125 4.234375 
Q 43.84375 -1.421875 31.78125 -1.421875 
Q 19.734375 -1.421875 13.25 4.234375 
Q 6.78125 9.90625 6.78125 20.515625 
Q 6.78125 27.484375 10.78125 32.3125 
Q 14.796875 37.15625 21.921875 38.8125 
z
M 18.3125 54.390625 
Q 18.3125 48.734375 21.84375 45.5625 
Q 25.390625 42.390625 31.78125 42.390625 
Q 38.140625 42.390625 41.71875 45.5625 
Q 45.3125 48.734375 45.3125 54.390625 
Q 45.3125 60.0625 41.71875 63.234375 
Q 38.140625 66.40625 31.78125 66.40625 
Q 25.390625 66.40625 21.84375 63.234375 
Q 18.3125 60.0625 18.3125 54.390625 
z
" id="DejaVuSans-56"/>
      </defs>
      <g transform="translate(329.254778 32.392313)scale(0.1 -0.1)">
       <use xlink:href="#DejaVuSans-56"/>
       <use x="63.623047" xlink:href="#DejaVuSans-48"/>
       <use x="127.246094" xlink:href="#DejaVuSans-46"/>
       <use x="159.033203" xlink:href="#DejaVuSans-48"/>
       <use x="222.65625" xlink:href="#DejaVuSans-77"/>
      </g>
     </g>
    </g>
    <g id="text_23">
     <!-- Steps -->
     <defs>
      <path d="M 53.515625 70.515625 
L 53.515625 60.890625 
Q 47.90625 63.578125 42.921875 64.890625 
Q 37.9375 66.21875 33.296875 66.21875 
Q 25.25 66.21875 20.875 63.09375 
Q 16.5 59.96875 16.5 54.203125 
Q 16.5 49.359375 19.40625 46.890625 
Q 22.3125 44.4375 30.421875 42.921875 
L 36.375 41.703125 
Q 47.40625 39.59375 52.65625 34.296875 
Q 57.90625 29 57.90625 20.125 
Q 57.90625 9.515625 50.796875 4.046875 
Q 43.703125 -1.421875 29.984375 -1.421875 
Q 24.8125 -1.421875 18.96875 -0.25 
Q 13.140625 0.921875 6.890625 3.21875 
L 6.890625 13.375 
Q 12.890625 10.015625 18.65625 8.296875 
Q 24.421875 6.59375 29.984375 6.59375 
Q 38.421875 6.59375 43.015625 9.90625 
Q 47.609375 13.234375 47.609375 19.390625 
Q 47.609375 24.75 44.3125 27.78125 
Q 41.015625 30.8125 33.5 32.328125 
L 27.484375 33.5 
Q 16.453125 35.6875 11.515625 40.375 
Q 6.59375 45.0625 6.59375 53.421875 
Q 6.59375 63.09375 13.40625 68.65625 
Q 20.21875 74.21875 32.171875 74.21875 
Q 37.3125 74.21875 42.625 73.28125 
Q 47.953125 72.359375 53.515625 70.515625 
z
" id="DejaVuSans-83"/>
      <path d="M 18.3125 70.21875 
L 18.3125 54.6875 
L 36.8125 54.6875 
L 36.8125 47.703125 
L 18.3125 47.703125 
L 18.3125 18.015625 
Q 18.3125 11.328125 20.140625 9.421875 
Q 21.96875 7.515625 27.59375 7.515625 
L 36.8125 7.515625 
L 36.8125 0 
L 27.59375 0 
Q 17.1875 0 13.234375 3.875 
Q 9.28125 7.765625 9.28125 18.015625 
L 9.28125 47.703125 
L 2.6875 47.703125 
L 2.6875 54.6875 
L 9.28125 54.6875 
L 9.28125 70.21875 
z
" id="DejaVuSans-116"/>
      <path d="M 56.203125 29.59375 
L 56.203125 25.203125 
L 14.890625 25.203125 
Q 15.484375 15.921875 20.484375 11.0625 
Q 25.484375 6.203125 34.421875 6.203125 
Q 39.59375 6.203125 44.453125 7.46875 
Q 49.3125 8.734375 54.109375 11.28125 
L 54.109375 2.78125 
Q 49.265625 0.734375 44.1875 -0.34375 
Q 39.109375 -1.421875 33.890625 -1.421875 
Q 20.796875 -1.421875 13.15625 6.1875 
Q 5.515625 13.8125 5.515625 26.8125 
Q 5.515625 40.234375 12.765625 48.109375 
Q 20.015625 56 32.328125 56 
Q 43.359375 56 49.78125 48.890625 
Q 56.203125 41.796875 56.203125 29.59375 
z
M 47.21875 32.234375 
Q 47.125 39.59375 43.09375 43.984375 
Q 39.0625 48.390625 32.421875 48.390625 
Q 24.90625 48.390625 20.390625 44.140625 
Q 15.875 39.890625 15.1875 32.171875 
z
" id="DejaVuSans-101"/>
      <path d="M 18.109375 8.203125 
L 18.109375 -20.796875 
L 9.078125 -20.796875 
L 9.078125 54.6875 
L 18.109375 54.6875 
L 18.109375 46.390625 
Q 20.953125 51.265625 25.265625 53.625 
Q 29.59375 56 35.59375 56 
Q 45.5625 56 51.78125 48.09375 
Q 58.015625 40.1875 58.015625 27.296875 
Q 58.015625 14.40625 51.78125 6.484375 
Q 45.5625 -1.421875 35.59375 -1.421875 
Q 29.59375 -1.421875 25.265625 0.953125 
Q 20.953125 3.328125 18.109375 8.203125 
z
M 48.6875 27.296875 
Q 48.6875 37.203125 44.609375 42.84375 
Q 40.53125 48.484375 33.40625 48.484375 
Q 26.265625 48.484375 22.1875 42.84375 
Q 18.109375 37.203125 18.109375 27.296875 
Q 18.109375 17.390625 22.1875 11.75 
Q 26.265625 6.109375 33.40625 6.109375 
Q 40.53125 6.109375 44.609375 11.75 
Q 48.6875 17.390625 48.6875 27.296875 
z
" id="DejaVuSans-112"/>
     </defs>
     <g transform="translate(222.170156 20.793875)scale(0.1 -0.1)">
      <use xlink:href="#DejaVuSans-83"/>
      <use x="63.476562" xlink:href="#DejaVuSans-116"/>
      <use x="102.685547" xlink:href="#DejaVuSans-101"/>
      <use x="164.208984" xlink:href="#DejaVuSans-112"/>
      <use x="227.685547" xlink:href="#DejaVuSans-115"/>
     </g>
    </g>
   </g>
   <g id="patch_7">
    <path d="M 57.6 307.584 
L 57.6 41.472 
" style="fill:none;stroke:#000000;stroke-linecap:square;stroke-linejoin:miter;stroke-width:0.8;"/>
   </g>
   <g id="patch_8">
    <path d="M 414.72 307.584 
L 414.72 41.472 
" style="fill:none;stroke:#000000;stroke-linecap:square;stroke-linejoin:miter;stroke-width:0.8;"/>
   </g>
   <g id="patch_9">
    <path d="M 57.6 307.584 
L 414.72 307.584 
" style="fill:none;stroke:#000000;stroke-linecap:square;stroke-linejoin:miter;stroke-width:0.8;"/>
   </g>
   <g id="patch_10">
    <path d="M 57.6 41.472 
L 414.72 41.472 
" style="fill:none;stroke:#000000;stroke-linecap:square;stroke-linejoin:miter;stroke-width:0.8;"/>
   </g>
  </g>
 </g>
 <defs>
  <clipPath id="pa169543dd3">
   <rect height="266.112" width="357.12" x="57.6" y="41.472"/>
  </clipPath>
 </defs>
</svg>
