<?xml version="1.0" encoding="utf-8" standalone="no"?>
<!DOCTYPE svg PUBLIC "-//W3C//DTD SVG 1.1//EN"
  "http://www.w3.org/Graphics/SVG/1.1/DTD/svg11.dtd">
<!-- Created with matplotlib (https://matplotlib.org/) -->
<svg height="345.6pt" version="1.1" viewBox="0 0 460.8 345.6" width="460.8pt" xmlns="http://www.w3.org/2000/svg" xmlns:xlink="http://www.w3.org/1999/xlink">
 <defs>
  <style type="text/css">
*{stroke-linecap:butt;stroke-linejoin:round;}
  </style>
 </defs>
 <g id="figure_1">
  <g id="patch_1">
   <path d="M 0 345.6 
L 460.8 345.6 
L 460.8 0 
L 0 0 
z
" style="fill:#ffffff;"/>
  </g>
  <g id="axes_1">
   <g id="patch_2">
    <path d="M 57.6 307.584 
L 414.72 307.584 
L 414.72 41.472 
L 57.6 41.472 
z
" style="fill:#ffffff;"/>
   </g>
   <g id="matplotlib.axis_1">
    <g id="xtick_1">
     <g id="line2d_1">
      <path clip-path="url(#pdca2b3f5e5)" d="M 57.6 307.584 
L 57.6 41.472 
" style="fill:none;stroke:#b0b0b0;stroke-linecap:square;stroke-width:0.8;"/>
     </g>
     <g id="line2d_2">
      <defs>
       <path d="M 0 0 
L 0 3.5 
" id="m9a0f5f308c" style="stroke:#000000;stroke-width:0.8;"/>
      </defs>
      <g>
       <use style="stroke:#000000;stroke-width:0.8;" x="57.6" xlink:href="#m9a0f5f308c" y="307.584"/>
      </g>
     </g>
     <g id="text_1">
      <!-- 0.0 -->
      <defs>
       <path d="M 31.78125 66.40625 
Q 24.171875 66.40625 20.328125 58.90625 
Q 16.5 51.421875 16.5 36.375 
Q 16.5 21.390625 20.328125 13.890625 
Q 24.171875 6.390625 31.78125 6.390625 
Q 39.453125 6.390625 43.28125 13.890625 
Q 47.125 21.390625 47.125 36.375 
Q 47.125 51.421875 43.28125 58.90625 
Q 39.453125 66.40625 31.78125 66.40625 
z
M 31.78125 74.21875 
Q 44.046875 74.21875 50.515625 64.515625 
Q 56.984375 54.828125 56.984375 36.375 
Q 56.984375 17.96875 50.515625 8.265625 
Q 44.046875 -1.421875 31.78125 -1.421875 
Q 19.53125 -1.421875 13.0625 8.265625 
Q 6.59375 17.96875 6.59375 36.375 
Q 6.59375 54.828125 13.0625 64.515625 
Q 19.53125 74.21875 31.78125 74.21875 
z
" id="DejaVuSans-48"/>
       <path d="M 10.6875 12.40625 
L 21 12.40625 
L 21 0 
L 10.6875 0 
z
" id="DejaVuSans-46"/>
      </defs>
      <g transform="translate(49.648438 322.182437)scale(0.1 -0.1)">
       <use xlink:href="#DejaVuSans-48"/>
       <use x="63.623047" xlink:href="#DejaVuSans-46"/>
       <use x="95.410156" xlink:href="#DejaVuSans-48"/>
      </g>
     </g>
    </g>
    <g id="xtick_2">
     <g id="line2d_3">
      <path clip-path="url(#pdca2b3f5e5)" d="M 103.43266 307.584 
L 103.43266 41.472 
" style="fill:none;stroke:#b0b0b0;stroke-linecap:square;stroke-width:0.8;"/>
     </g>
     <g id="line2d_4">
      <g>
       <use style="stroke:#000000;stroke-width:0.8;" x="103.43266" xlink:href="#m9a0f5f308c" y="307.584"/>
      </g>
     </g>
     <g id="text_2">
      <!-- 2.5 -->
      <defs>
       <path d="M 19.1875 8.296875 
L 53.609375 8.296875 
L 53.609375 0 
L 7.328125 0 
L 7.328125 8.296875 
Q 12.9375 14.109375 22.625 23.890625 
Q 32.328125 33.6875 34.8125 36.53125 
Q 39.546875 41.84375 41.421875 45.53125 
Q 43.3125 49.21875 43.3125 52.78125 
Q 43.3125 58.59375 39.234375 62.25 
Q 35.15625 65.921875 28.609375 65.921875 
Q 23.96875 65.921875 18.8125 64.3125 
Q 13.671875 62.703125 7.8125 59.421875 
L 7.8125 69.390625 
Q 13.765625 71.78125 18.9375 73 
Q 24.125 74.21875 28.421875 74.21875 
Q 39.75 74.21875 46.484375 68.546875 
Q 53.21875 62.890625 53.21875 53.421875 
Q 53.21875 48.921875 51.53125 44.890625 
Q 49.859375 40.875 45.40625 35.40625 
Q 44.1875 33.984375 37.640625 27.21875 
Q 31.109375 20.453125 19.1875 8.296875 
z
" id="DejaVuSans-50"/>
       <path d="M 10.796875 72.90625 
L 49.515625 72.90625 
L 49.515625 64.59375 
L 19.828125 64.59375 
L 19.828125 46.734375 
Q 21.96875 47.46875 24.109375 47.828125 
Q 26.265625 48.1875 28.421875 48.1875 
Q 40.625 48.1875 47.75 41.5 
Q 54.890625 34.8125 54.890625 23.390625 
Q 54.890625 11.625 47.5625 5.09375 
Q 40.234375 -1.421875 26.90625 -1.421875 
Q 22.3125 -1.421875 17.546875 -0.640625 
Q 12.796875 0.140625 7.71875 1.703125 
L 7.71875 11.625 
Q 12.109375 9.234375 16.796875 8.0625 
Q 21.484375 6.890625 26.703125 6.890625 
Q 35.15625 6.890625 40.078125 11.328125 
Q 45.015625 15.765625 45.015625 23.390625 
Q 45.015625 31 40.078125 35.4375 
Q 35.15625 39.890625 26.703125 39.890625 
Q 22.75 39.890625 18.8125 39.015625 
Q 14.890625 38.140625 10.796875 36.28125 
z
" id="DejaVuSans-53"/>
      </defs>
      <g transform="translate(95.481097 322.182437)scale(0.1 -0.1)">
       <use xlink:href="#DejaVuSans-50"/>
       <use x="63.623047" xlink:href="#DejaVuSans-46"/>
       <use x="95.410156" xlink:href="#DejaVuSans-53"/>
      </g>
     </g>
    </g>
    <g id="xtick_3">
     <g id="line2d_5">
      <path clip-path="url(#pdca2b3f5e5)" d="M 149.26532 307.584 
L 149.26532 41.472 
" style="fill:none;stroke:#b0b0b0;stroke-linecap:square;stroke-width:0.8;"/>
     </g>
     <g id="line2d_6">
      <g>
       <use style="stroke:#000000;stroke-width:0.8;" x="149.26532" xlink:href="#m9a0f5f308c" y="307.584"/>
      </g>
     </g>
     <g id="text_3">
      <!-- 5.0 -->
      <g transform="translate(141.313757 322.182437)scale(0.1 -0.1)">
       <use xlink:href="#DejaVuSans-53"/>
       <use x="63.623047" xlink:href="#DejaVuSans-46"/>
       <use x="95.410156" xlink:href="#DejaVuSans-48"/>
      </g>
     </g>
    </g>
    <g id="xtick_4">
     <g id="line2d_7">
      <path clip-path="url(#pdca2b3f5e5)" d="M 195.097979 307.584 
L 195.097979 41.472 
" style="fill:none;stroke:#b0b0b0;stroke-linecap:square;stroke-width:0.8;"/>
     </g>
     <g id="line2d_8">
      <g>
       <use style="stroke:#000000;stroke-width:0.8;" x="195.097979" xlink:href="#m9a0f5f308c" y="307.584"/>
      </g>
     </g>
     <g id="text_4">
      <!-- 7.5 -->
      <defs>
       <path d="M 8.203125 72.90625 
L 55.078125 72.90625 
L 55.078125 68.703125 
L 28.609375 0 
L 18.3125 0 
L 43.21875 64.59375 
L 8.203125 64.59375 
z
" id="DejaVuSans-55"/>
      </defs>
      <g transform="translate(187.146417 322.182437)scale(0.1 -0.1)">
       <use xlink:href="#DejaVuSans-55"/>
       <use x="63.623047" xlink:href="#DejaVuSans-46"/>
       <use x="95.410156" xlink:href="#DejaVuSans-53"/>
      </g>
     </g>
    </g>
    <g id="xtick_5">
     <g id="line2d_9">
      <path clip-path="url(#pdca2b3f5e5)" d="M 240.930639 307.584 
L 240.930639 41.472 
" style="fill:none;stroke:#b0b0b0;stroke-linecap:square;stroke-width:0.8;"/>
     </g>
     <g id="line2d_10">
      <g>
       <use style="stroke:#000000;stroke-width:0.8;" x="240.930639" xlink:href="#m9a0f5f308c" y="307.584"/>
      </g>
     </g>
     <g id="text_5">
      <!-- 10.0 -->
      <defs>
       <path d="M 12.40625 8.296875 
L 28.515625 8.296875 
L 28.515625 63.921875 
L 10.984375 60.40625 
L 10.984375 69.390625 
L 28.421875 72.90625 
L 38.28125 72.90625 
L 38.28125 8.296875 
L 54.390625 8.296875 
L 54.390625 0 
L 12.40625 0 
z
" id="DejaVuSans-49"/>
      </defs>
      <g transform="translate(229.797827 322.182437)scale(0.1 -0.1)">
       <use xlink:href="#DejaVuSans-49"/>
       <use x="63.623047" xlink:href="#DejaVuSans-48"/>
       <use x="127.246094" xlink:href="#DejaVuSans-46"/>
       <use x="159.033203" xlink:href="#DejaVuSans-48"/>
      </g>
     </g>
    </g>
    <g id="xtick_6">
     <g id="line2d_11">
      <path clip-path="url(#pdca2b3f5e5)" d="M 286.763299 307.584 
L 286.763299 41.472 
" style="fill:none;stroke:#b0b0b0;stroke-linecap:square;stroke-width:0.8;"/>
     </g>
     <g id="line2d_12">
      <g>
       <use style="stroke:#000000;stroke-width:0.8;" x="286.763299" xlink:href="#m9a0f5f308c" y="307.584"/>
      </g>
     </g>
     <g id="text_6">
      <!-- 12.5 -->
      <g transform="translate(275.630487 322.182437)scale(0.1 -0.1)">
       <use xlink:href="#DejaVuSans-49"/>
       <use x="63.623047" xlink:href="#DejaVuSans-50"/>
       <use x="127.246094" xlink:href="#DejaVuSans-46"/>
       <use x="159.033203" xlink:href="#DejaVuSans-53"/>
      </g>
     </g>
    </g>
    <g id="xtick_7">
     <g id="line2d_13">
      <path clip-path="url(#pdca2b3f5e5)" d="M 332.595959 307.584 
L 332.595959 41.472 
" style="fill:none;stroke:#b0b0b0;stroke-linecap:square;stroke-width:0.8;"/>
     </g>
     <g id="line2d_14">
      <g>
       <use style="stroke:#000000;stroke-width:0.8;" x="332.595959" xlink:href="#m9a0f5f308c" y="307.584"/>
      </g>
     </g>
     <g id="text_7">
      <!-- 15.0 -->
      <g transform="translate(321.463146 322.182437)scale(0.1 -0.1)">
       <use xlink:href="#DejaVuSans-49"/>
       <use x="63.623047" xlink:href="#DejaVuSans-53"/>
       <use x="127.246094" xlink:href="#DejaVuSans-46"/>
       <use x="159.033203" xlink:href="#DejaVuSans-48"/>
      </g>
     </g>
    </g>
    <g id="xtick_8">
     <g id="line2d_15">
      <path clip-path="url(#pdca2b3f5e5)" d="M 378.428619 307.584 
L 378.428619 41.472 
" style="fill:none;stroke:#b0b0b0;stroke-linecap:square;stroke-width:0.8;"/>
     </g>
     <g id="line2d_16">
      <g>
       <use style="stroke:#000000;stroke-width:0.8;" x="378.428619" xlink:href="#m9a0f5f308c" y="307.584"/>
      </g>
     </g>
     <g id="text_8">
      <!-- 17.5 -->
      <g transform="translate(367.295806 322.182437)scale(0.1 -0.1)">
       <use xlink:href="#DejaVuSans-49"/>
       <use x="63.623047" xlink:href="#DejaVuSans-55"/>
       <use x="127.246094" xlink:href="#DejaVuSans-46"/>
       <use x="159.033203" xlink:href="#DejaVuSans-53"/>
      </g>
     </g>
    </g>
    <g id="text_9">
     <!-- Hours -->
     <defs>
      <path d="M 9.8125 72.90625 
L 19.671875 72.90625 
L 19.671875 43.015625 
L 55.515625 43.015625 
L 55.515625 72.90625 
L 65.375 72.90625 
L 65.375 0 
L 55.515625 0 
L 55.515625 34.71875 
L 19.671875 34.71875 
L 19.671875 0 
L 9.8125 0 
z
" id="DejaVuSans-72"/>
      <path d="M 30.609375 48.390625 
Q 23.390625 48.390625 19.1875 42.75 
Q 14.984375 37.109375 14.984375 27.296875 
Q 14.984375 17.484375 19.15625 11.84375 
Q 23.34375 6.203125 30.609375 6.203125 
Q 37.796875 6.203125 41.984375 11.859375 
Q 46.1875 17.53125 46.1875 27.296875 
Q 46.1875 37.015625 41.984375 42.703125 
Q 37.796875 48.390625 30.609375 48.390625 
z
M 30.609375 56 
Q 42.328125 56 49.015625 48.375 
Q 55.71875 40.765625 55.71875 27.296875 
Q 55.71875 13.875 49.015625 6.21875 
Q 42.328125 -1.421875 30.609375 -1.421875 
Q 18.84375 -1.421875 12.171875 6.21875 
Q 5.515625 13.875 5.515625 27.296875 
Q 5.515625 40.765625 12.171875 48.375 
Q 18.84375 56 30.609375 56 
z
" id="DejaVuSans-111"/>
      <path d="M 8.5 21.578125 
L 8.5 54.6875 
L 17.484375 54.6875 
L 17.484375 21.921875 
Q 17.484375 14.15625 20.5 10.265625 
Q 23.53125 6.390625 29.59375 6.390625 
Q 36.859375 6.390625 41.078125 11.03125 
Q 45.3125 15.671875 45.3125 23.6875 
L 45.3125 54.6875 
L 54.296875 54.6875 
L 54.296875 0 
L 45.3125 0 
L 45.3125 8.40625 
Q 42.046875 3.421875 37.71875 1 
Q 33.40625 -1.421875 27.6875 -1.421875 
Q 18.265625 -1.421875 13.375 4.4375 
Q 8.5 10.296875 8.5 21.578125 
z
M 31.109375 56 
z
" id="DejaVuSans-117"/>
      <path d="M 41.109375 46.296875 
Q 39.59375 47.171875 37.8125 47.578125 
Q 36.03125 48 33.890625 48 
Q 26.265625 48 22.1875 43.046875 
Q 18.109375 38.09375 18.109375 28.8125 
L 18.109375 0 
L 9.078125 0 
L 9.078125 54.6875 
L 18.109375 54.6875 
L 18.109375 46.1875 
Q 20.953125 51.171875 25.484375 53.578125 
Q 30.03125 56 36.53125 56 
Q 37.453125 56 38.578125 55.875 
Q 39.703125 55.765625 41.0625 55.515625 
z
" id="DejaVuSans-114"/>
      <path d="M 44.28125 53.078125 
L 44.28125 44.578125 
Q 40.484375 46.53125 36.375 47.5 
Q 32.28125 48.484375 27.875 48.484375 
Q 21.1875 48.484375 17.84375 46.4375 
Q 14.5 44.390625 14.5 40.28125 
Q 14.5 37.15625 16.890625 35.375 
Q 19.28125 33.59375 26.515625 31.984375 
L 29.59375 31.296875 
Q 39.15625 29.25 43.1875 25.515625 
Q 47.21875 21.78125 47.21875 15.09375 
Q 47.21875 7.46875 41.1875 3.015625 
Q 35.15625 -1.421875 24.609375 -1.421875 
Q 20.21875 -1.421875 15.453125 -0.5625 
Q 10.6875 0.296875 5.421875 2 
L 5.421875 11.28125 
Q 10.40625 8.6875 15.234375 7.390625 
Q 20.0625 6.109375 24.8125 6.109375 
Q 31.15625 6.109375 34.5625 8.28125 
Q 37.984375 10.453125 37.984375 14.40625 
Q 37.984375 18.0625 35.515625 20.015625 
Q 33.0625 21.96875 24.703125 23.78125 
L 21.578125 24.515625 
Q 13.234375 26.265625 9.515625 29.90625 
Q 5.8125 33.546875 5.8125 39.890625 
Q 5.8125 47.609375 11.28125 51.796875 
Q 16.75 56 26.8125 56 
Q 31.78125 56 36.171875 55.265625 
Q 40.578125 54.546875 44.28125 53.078125 
z
" id="DejaVuSans-115"/>
     </defs>
     <g transform="translate(221.511562 335.860562)scale(0.1 -0.1)">
      <use xlink:href="#DejaVuSans-72"/>
      <use x="75.195312" xlink:href="#DejaVuSans-111"/>
      <use x="136.376953" xlink:href="#DejaVuSans-117"/>
      <use x="199.755859" xlink:href="#DejaVuSans-114"/>
      <use x="240.869141" xlink:href="#DejaVuSans-115"/>
     </g>
    </g>
   </g>
   <g id="matplotlib.axis_2">
    <g id="ytick_1">
     <g id="line2d_17">
      <path clip-path="url(#pdca2b3f5e5)" d="M 57.6 305.431232 
L 414.72 305.431232 
" style="fill:none;stroke:#b0b0b0;stroke-linecap:square;stroke-width:0.8;"/>
     </g>
     <g id="line2d_18">
      <defs>
       <path d="M 0 0 
L -3.5 0 
" id="m4bed47247d" style="stroke:#000000;stroke-width:0.8;"/>
      </defs>
      <g>
       <use style="stroke:#000000;stroke-width:0.8;" x="57.6" xlink:href="#m4bed47247d" y="305.431232"/>
      </g>
     </g>
     <g id="text_10">
      <!-- 0 -->
      <g transform="translate(44.2375 309.230451)scale(0.1 -0.1)">
       <use xlink:href="#DejaVuSans-48"/>
      </g>
     </g>
    </g>
    <g id="ytick_2">
     <g id="line2d_19">
      <path clip-path="url(#pdca2b3f5e5)" d="M 57.6 273.508126 
L 414.72 273.508126 
" style="fill:none;stroke:#b0b0b0;stroke-linecap:square;stroke-width:0.8;"/>
     </g>
     <g id="line2d_20">
      <g>
       <use style="stroke:#000000;stroke-width:0.8;" x="57.6" xlink:href="#m4bed47247d" y="273.508126"/>
      </g>
     </g>
     <g id="text_11">
      <!-- 200 -->
      <g transform="translate(31.5125 277.307345)scale(0.1 -0.1)">
       <use xlink:href="#DejaVuSans-50"/>
       <use x="63.623047" xlink:href="#DejaVuSans-48"/>
       <use x="127.246094" xlink:href="#DejaVuSans-48"/>
      </g>
     </g>
    </g>
    <g id="ytick_3">
     <g id="line2d_21">
      <path clip-path="url(#pdca2b3f5e5)" d="M 57.6 241.58502 
L 414.72 241.58502 
" style="fill:none;stroke:#b0b0b0;stroke-linecap:square;stroke-width:0.8;"/>
     </g>
     <g id="line2d_22">
      <g>
       <use style="stroke:#000000;stroke-width:0.8;" x="57.6" xlink:href="#m4bed47247d" y="241.58502"/>
      </g>
     </g>
     <g id="text_12">
      <!-- 400 -->
      <defs>
       <path d="M 37.796875 64.3125 
L 12.890625 25.390625 
L 37.796875 25.390625 
z
M 35.203125 72.90625 
L 47.609375 72.90625 
L 47.609375 25.390625 
L 58.015625 25.390625 
L 58.015625 17.1875 
L 47.609375 17.1875 
L 47.609375 0 
L 37.796875 0 
L 37.796875 17.1875 
L 4.890625 17.1875 
L 4.890625 26.703125 
z
" id="DejaVuSans-52"/>
      </defs>
      <g transform="translate(31.5125 245.384239)scale(0.1 -0.1)">
       <use xlink:href="#DejaVuSans-52"/>
       <use x="63.623047" xlink:href="#DejaVuSans-48"/>
       <use x="127.246094" xlink:href="#DejaVuSans-48"/>
      </g>
     </g>
    </g>
    <g id="ytick_4">
     <g id="line2d_23">
      <path clip-path="url(#pdca2b3f5e5)" d="M 57.6 209.661914 
L 414.72 209.661914 
" style="fill:none;stroke:#b0b0b0;stroke-linecap:square;stroke-width:0.8;"/>
     </g>
     <g id="line2d_24">
      <g>
       <use style="stroke:#000000;stroke-width:0.8;" x="57.6" xlink:href="#m4bed47247d" y="209.661914"/>
      </g>
     </g>
     <g id="text_13">
      <!-- 600 -->
      <defs>
       <path d="M 33.015625 40.375 
Q 26.375 40.375 22.484375 35.828125 
Q 18.609375 31.296875 18.609375 23.390625 
Q 18.609375 15.53125 22.484375 10.953125 
Q 26.375 6.390625 33.015625 6.390625 
Q 39.65625 6.390625 43.53125 10.953125 
Q 47.40625 15.53125 47.40625 23.390625 
Q 47.40625 31.296875 43.53125 35.828125 
Q 39.65625 40.375 33.015625 40.375 
z
M 52.59375 71.296875 
L 52.59375 62.3125 
Q 48.875 64.0625 45.09375 64.984375 
Q 41.3125 65.921875 37.59375 65.921875 
Q 27.828125 65.921875 22.671875 59.328125 
Q 17.53125 52.734375 16.796875 39.40625 
Q 19.671875 43.65625 24.015625 45.921875 
Q 28.375 48.1875 33.59375 48.1875 
Q 44.578125 48.1875 50.953125 41.515625 
Q 57.328125 34.859375 57.328125 23.390625 
Q 57.328125 12.15625 50.6875 5.359375 
Q 44.046875 -1.421875 33.015625 -1.421875 
Q 20.359375 -1.421875 13.671875 8.265625 
Q 6.984375 17.96875 6.984375 36.375 
Q 6.984375 53.65625 15.1875 63.9375 
Q 23.390625 74.21875 37.203125 74.21875 
Q 40.921875 74.21875 44.703125 73.484375 
Q 48.484375 72.75 52.59375 71.296875 
z
" id="DejaVuSans-54"/>
      </defs>
      <g transform="translate(31.5125 213.461133)scale(0.1 -0.1)">
       <use xlink:href="#DejaVuSans-54"/>
       <use x="63.623047" xlink:href="#DejaVuSans-48"/>
       <use x="127.246094" xlink:href="#DejaVuSans-48"/>
      </g>
     </g>
    </g>
    <g id="ytick_5">
     <g id="line2d_25">
      <path clip-path="url(#pdca2b3f5e5)" d="M 57.6 177.738809 
L 414.72 177.738809 
" style="fill:none;stroke:#b0b0b0;stroke-linecap:square;stroke-width:0.8;"/>
     </g>
     <g id="line2d_26">
      <g>
       <use style="stroke:#000000;stroke-width:0.8;" x="57.6" xlink:href="#m4bed47247d" y="177.738809"/>
      </g>
     </g>
     <g id="text_14">
      <!-- 800 -->
      <defs>
       <path d="M 31.78125 34.625 
Q 24.75 34.625 20.71875 30.859375 
Q 16.703125 27.09375 16.703125 20.515625 
Q 16.703125 13.921875 20.71875 10.15625 
Q 24.75 6.390625 31.78125 6.390625 
Q 38.8125 6.390625 42.859375 10.171875 
Q 46.921875 13.96875 46.921875 20.515625 
Q 46.921875 27.09375 42.890625 30.859375 
Q 38.875 34.625 31.78125 34.625 
z
M 21.921875 38.8125 
Q 15.578125 40.375 12.03125 44.71875 
Q 8.5 49.078125 8.5 55.328125 
Q 8.5 64.0625 14.71875 69.140625 
Q 20.953125 74.21875 31.78125 74.21875 
Q 42.671875 74.21875 48.875 69.140625 
Q 55.078125 64.0625 55.078125 55.328125 
Q 55.078125 49.078125 51.53125 44.71875 
Q 48 40.375 41.703125 38.8125 
Q 48.828125 37.15625 52.796875 32.3125 
Q 56.78125 27.484375 56.78125 20.515625 
Q 56.78125 9.90625 50.3125 4.234375 
Q 43.84375 -1.421875 31.78125 -1.421875 
Q 19.734375 -1.421875 13.25 4.234375 
Q 6.78125 9.90625 6.78125 20.515625 
Q 6.78125 27.484375 10.78125 32.3125 
Q 14.796875 37.15625 21.921875 38.8125 
z
M 18.3125 54.390625 
Q 18.3125 48.734375 21.84375 45.5625 
Q 25.390625 42.390625 31.78125 42.390625 
Q 38.140625 42.390625 41.71875 45.5625 
Q 45.3125 48.734375 45.3125 54.390625 
Q 45.3125 60.0625 41.71875 63.234375 
Q 38.140625 66.40625 31.78125 66.40625 
Q 25.390625 66.40625 21.84375 63.234375 
Q 18.3125 60.0625 18.3125 54.390625 
z
" id="DejaVuSans-56"/>
      </defs>
      <g transform="translate(31.5125 181.538027)scale(0.1 -0.1)">
       <use xlink:href="#DejaVuSans-56"/>
       <use x="63.623047" xlink:href="#DejaVuSans-48"/>
       <use x="127.246094" xlink:href="#DejaVuSans-48"/>
      </g>
     </g>
    </g>
    <g id="ytick_6">
     <g id="line2d_27">
      <path clip-path="url(#pdca2b3f5e5)" d="M 57.6 145.815703 
L 414.72 145.815703 
" style="fill:none;stroke:#b0b0b0;stroke-linecap:square;stroke-width:0.8;"/>
     </g>
     <g id="line2d_28">
      <g>
       <use style="stroke:#000000;stroke-width:0.8;" x="57.6" xlink:href="#m4bed47247d" y="145.815703"/>
      </g>
     </g>
     <g id="text_15">
      <!-- 1000 -->
      <g transform="translate(25.15 149.614921)scale(0.1 -0.1)">
       <use xlink:href="#DejaVuSans-49"/>
       <use x="63.623047" xlink:href="#DejaVuSans-48"/>
       <use x="127.246094" xlink:href="#DejaVuSans-48"/>
       <use x="190.869141" xlink:href="#DejaVuSans-48"/>
      </g>
     </g>
    </g>
    <g id="ytick_7">
     <g id="line2d_29">
      <path clip-path="url(#pdca2b3f5e5)" d="M 57.6 113.892597 
L 414.72 113.892597 
" style="fill:none;stroke:#b0b0b0;stroke-linecap:square;stroke-width:0.8;"/>
     </g>
     <g id="line2d_30">
      <g>
       <use style="stroke:#000000;stroke-width:0.8;" x="57.6" xlink:href="#m4bed47247d" y="113.892597"/>
      </g>
     </g>
     <g id="text_16">
      <!-- 1200 -->
      <g transform="translate(25.15 117.691815)scale(0.1 -0.1)">
       <use xlink:href="#DejaVuSans-49"/>
       <use x="63.623047" xlink:href="#DejaVuSans-50"/>
       <use x="127.246094" xlink:href="#DejaVuSans-48"/>
       <use x="190.869141" xlink:href="#DejaVuSans-48"/>
      </g>
     </g>
    </g>
    <g id="ytick_8">
     <g id="line2d_31">
      <path clip-path="url(#pdca2b3f5e5)" d="M 57.6 81.969491 
L 414.72 81.969491 
" style="fill:none;stroke:#b0b0b0;stroke-linecap:square;stroke-width:0.8;"/>
     </g>
     <g id="line2d_32">
      <g>
       <use style="stroke:#000000;stroke-width:0.8;" x="57.6" xlink:href="#m4bed47247d" y="81.969491"/>
      </g>
     </g>
     <g id="text_17">
      <!-- 1400 -->
      <g transform="translate(25.15 85.76871)scale(0.1 -0.1)">
       <use xlink:href="#DejaVuSans-49"/>
       <use x="63.623047" xlink:href="#DejaVuSans-52"/>
       <use x="127.246094" xlink:href="#DejaVuSans-48"/>
       <use x="190.869141" xlink:href="#DejaVuSans-48"/>
      </g>
     </g>
    </g>
    <g id="ytick_9">
     <g id="line2d_33">
      <path clip-path="url(#pdca2b3f5e5)" d="M 57.6 50.046385 
L 414.72 50.046385 
" style="fill:none;stroke:#b0b0b0;stroke-linecap:square;stroke-width:0.8;"/>
     </g>
     <g id="line2d_34">
      <g>
       <use style="stroke:#000000;stroke-width:0.8;" x="57.6" xlink:href="#m4bed47247d" y="50.046385"/>
      </g>
     </g>
     <g id="text_18">
      <!-- 1600 -->
      <g transform="translate(25.15 53.845604)scale(0.1 -0.1)">
       <use xlink:href="#DejaVuSans-49"/>
       <use x="63.623047" xlink:href="#DejaVuSans-54"/>
       <use x="127.246094" xlink:href="#DejaVuSans-48"/>
       <use x="190.869141" xlink:href="#DejaVuSans-48"/>
      </g>
     </g>
    </g>
    <g id="text_19">
     <!-- Mean train reward -->
     <defs>
      <path d="M 9.8125 72.90625 
L 24.515625 72.90625 
L 43.109375 23.296875 
L 61.8125 72.90625 
L 76.515625 72.90625 
L 76.515625 0 
L 66.890625 0 
L 66.890625 64.015625 
L 48.09375 14.015625 
L 38.1875 14.015625 
L 19.390625 64.015625 
L 19.390625 0 
L 9.8125 0 
z
" id="DejaVuSans-77"/>
      <path d="M 56.203125 29.59375 
L 56.203125 25.203125 
L 14.890625 25.203125 
Q 15.484375 15.921875 20.484375 11.0625 
Q 25.484375 6.203125 34.421875 6.203125 
Q 39.59375 6.203125 44.453125 7.46875 
Q 49.3125 8.734375 54.109375 11.28125 
L 54.109375 2.78125 
Q 49.265625 0.734375 44.1875 -0.34375 
Q 39.109375 -1.421875 33.890625 -1.421875 
Q 20.796875 -1.421875 13.15625 6.1875 
Q 5.515625 13.8125 5.515625 26.8125 
Q 5.515625 40.234375 12.765625 48.109375 
Q 20.015625 56 32.328125 56 
Q 43.359375 56 49.78125 48.890625 
Q 56.203125 41.796875 56.203125 29.59375 
z
M 47.21875 32.234375 
Q 47.125 39.59375 43.09375 43.984375 
Q 39.0625 48.390625 32.421875 48.390625 
Q 24.90625 48.390625 20.390625 44.140625 
Q 15.875 39.890625 15.1875 32.171875 
z
" id="DejaVuSans-101"/>
      <path d="M 34.28125 27.484375 
Q 23.390625 27.484375 19.1875 25 
Q 14.984375 22.515625 14.984375 16.5 
Q 14.984375 11.71875 18.140625 8.90625 
Q 21.296875 6.109375 26.703125 6.109375 
Q 34.1875 6.109375 38.703125 11.40625 
Q 43.21875 16.703125 43.21875 25.484375 
L 43.21875 27.484375 
z
M 52.203125 31.203125 
L 52.203125 0 
L 43.21875 0 
L 43.21875 8.296875 
Q 40.140625 3.328125 35.546875 0.953125 
Q 30.953125 -1.421875 24.3125 -1.421875 
Q 15.921875 -1.421875 10.953125 3.296875 
Q 6 8.015625 6 15.921875 
Q 6 25.140625 12.171875 29.828125 
Q 18.359375 34.515625 30.609375 34.515625 
L 43.21875 34.515625 
L 43.21875 35.40625 
Q 43.21875 41.609375 39.140625 45 
Q 35.0625 48.390625 27.6875 48.390625 
Q 23 48.390625 18.546875 47.265625 
Q 14.109375 46.140625 10.015625 43.890625 
L 10.015625 52.203125 
Q 14.9375 54.109375 19.578125 55.046875 
Q 24.21875 56 28.609375 56 
Q 40.484375 56 46.34375 49.84375 
Q 52.203125 43.703125 52.203125 31.203125 
z
" id="DejaVuSans-97"/>
      <path d="M 54.890625 33.015625 
L 54.890625 0 
L 45.90625 0 
L 45.90625 32.71875 
Q 45.90625 40.484375 42.875 44.328125 
Q 39.84375 48.1875 33.796875 48.1875 
Q 26.515625 48.1875 22.3125 43.546875 
Q 18.109375 38.921875 18.109375 30.90625 
L 18.109375 0 
L 9.078125 0 
L 9.078125 54.6875 
L 18.109375 54.6875 
L 18.109375 46.1875 
Q 21.34375 51.125 25.703125 53.5625 
Q 30.078125 56 35.796875 56 
Q 45.21875 56 50.046875 50.171875 
Q 54.890625 44.34375 54.890625 33.015625 
z
" id="DejaVuSans-110"/>
      <path id="DejaVuSans-32"/>
      <path d="M 18.3125 70.21875 
L 18.3125 54.6875 
L 36.8125 54.6875 
L 36.8125 47.703125 
L 18.3125 47.703125 
L 18.3125 18.015625 
Q 18.3125 11.328125 20.140625 9.421875 
Q 21.96875 7.515625 27.59375 7.515625 
L 36.8125 7.515625 
L 36.8125 0 
L 27.59375 0 
Q 17.1875 0 13.234375 3.875 
Q 9.28125 7.765625 9.28125 18.015625 
L 9.28125 47.703125 
L 2.6875 47.703125 
L 2.6875 54.6875 
L 9.28125 54.6875 
L 9.28125 70.21875 
z
" id="DejaVuSans-116"/>
      <path d="M 9.421875 54.6875 
L 18.40625 54.6875 
L 18.40625 0 
L 9.421875 0 
z
M 9.421875 75.984375 
L 18.40625 75.984375 
L 18.40625 64.59375 
L 9.421875 64.59375 
z
" id="DejaVuSans-105"/>
      <path d="M 4.203125 54.6875 
L 13.1875 54.6875 
L 24.421875 12.015625 
L 35.59375 54.6875 
L 46.1875 54.6875 
L 57.421875 12.015625 
L 68.609375 54.6875 
L 77.59375 54.6875 
L 63.28125 0 
L 52.6875 0 
L 40.921875 44.828125 
L 29.109375 0 
L 18.5 0 
z
" id="DejaVuSans-119"/>
      <path d="M 45.40625 46.390625 
L 45.40625 75.984375 
L 54.390625 75.984375 
L 54.390625 0 
L 45.40625 0 
L 45.40625 8.203125 
Q 42.578125 3.328125 38.25 0.953125 
Q 33.9375 -1.421875 27.875 -1.421875 
Q 17.96875 -1.421875 11.734375 6.484375 
Q 5.515625 14.40625 5.515625 27.296875 
Q 5.515625 40.1875 11.734375 48.09375 
Q 17.96875 56 27.875 56 
Q 33.9375 56 38.25 53.625 
Q 42.578125 51.265625 45.40625 46.390625 
z
M 14.796875 27.296875 
Q 14.796875 17.390625 18.875 11.75 
Q 22.953125 6.109375 30.078125 6.109375 
Q 37.203125 6.109375 41.296875 11.75 
Q 45.40625 17.390625 45.40625 27.296875 
Q 45.40625 37.203125 41.296875 42.84375 
Q 37.203125 48.484375 30.078125 48.484375 
Q 22.953125 48.484375 18.875 42.84375 
Q 14.796875 37.203125 14.796875 27.296875 
z
" id="DejaVuSans-100"/>
     </defs>
     <g transform="translate(19.070312 220.479562)rotate(-90)scale(0.1 -0.1)">
      <use xlink:href="#DejaVuSans-77"/>
      <use x="86.279297" xlink:href="#DejaVuSans-101"/>
      <use x="147.802734" xlink:href="#DejaVuSans-97"/>
      <use x="209.082031" xlink:href="#DejaVuSans-110"/>
      <use x="272.460938" xlink:href="#DejaVuSans-32"/>
      <use x="304.248047" xlink:href="#DejaVuSans-116"/>
      <use x="343.457031" xlink:href="#DejaVuSans-114"/>
      <use x="384.570312" xlink:href="#DejaVuSans-97"/>
      <use x="445.849609" xlink:href="#DejaVuSans-105"/>
      <use x="473.632812" xlink:href="#DejaVuSans-110"/>
      <use x="537.011719" xlink:href="#DejaVuSans-32"/>
      <use x="568.798828" xlink:href="#DejaVuSans-114"/>
      <use x="609.880859" xlink:href="#DejaVuSans-101"/>
      <use x="671.404297" xlink:href="#DejaVuSans-119"/>
      <use x="753.191406" xlink:href="#DejaVuSans-97"/>
      <use x="814.470703" xlink:href="#DejaVuSans-114"/>
      <use x="855.568359" xlink:href="#DejaVuSans-100"/>
     </g>
    </g>
   </g>
   <g id="line2d_35">
    <path clip-path="url(#pdca2b3f5e5)" d="M 57.6 295.488 
L 58.446183 266.585852 
L 58.594249 267.312101 
L 58.804644 261.061607 
L 59.763237 252.500651 
L 59.914456 249.529249 
L 59.948185 249.561885 
L 60.239292 245.673644 
L 60.55918 249.956628 
L 60.946882 247.420588 
L 61.839431 245.69779 
L 62.199155 240.790708 
L 63.108324 239.920173 
L 63.141768 239.585885 
L 63.20294 239.927855 
L 63.395456 240.844402 
L 63.617647 243.36087 
L 64.919783 238.79188 
L 65.511868 234.029528 
L 65.684378 234.47719 
L 66.187166 235.27932 
L 66.4046 232.81605 
L 67.165688 228.002644 
L 67.359998 227.859249 
L 68.089509 224.981142 
L 68.089898 225.011075 
L 68.129835 224.090383 
L 68.312485 223.497387 
L 68.941456 223.573025 
L 69.197033 221.690675 
L 70.168353 220.35635 
L 70.463148 220.288671 
L 71.6392 215.656732 
L 72.946859 211.900175 
L 72.961729 212.129934 
L 73.156639 211.983013 
L 73.474801 212.67532 
L 73.825954 210.379931 
L 74.382087 208.930785 
L 74.732992 208.053201 
L 75.390206 205.599892 
L 75.945687 205.961326 
L 76.251577 204.757614 
L 76.663534 205.597651 
L 76.769553 204.920123 
L 77.426058 202.516752 
L 77.447325 202.843865 
L 77.920404 202.052548 
L 78.722513 199.21456 
L 79.308821 202.222675 
L 79.424442 201.270272 
L 80.370801 195.061399 
L 81.194398 194.813744 
L 81.728486 195.542779 
L 81.956504 194.656847 
L 82.307881 195.706652 
L 82.524612 196.718141 
L 82.552599 196.667735 
L 82.726784 196.503979 
L 83.047101 192.655505 
L 83.985057 192.893165 
L 84.318526 190.869417 
L 85.552342 192.093285 
L 85.702743 191.789252 
L 86.068798 189.624408 
L 86.150548 190.359951 
L 86.734319 188.034468 
L 87.205817 188.822979 
L 87.8651 186.70704 
L 88.02191 187.905443 
L 88.966223 188.231152 
L 89.32007 186.876593 
L 89.376386 186.048958 
L 89.547106 186.31447 
L 90.91413 184.820052 
L 91.552618 185.547353 
L 91.889958 183.411336 
L 92.572809 184.854033 
L 93.148315 183.616175 
L 93.207733 182.916386 
L 93.790417 185.212321 
L 94.149187 182.439877 
L 95.325239 180.432886 
L 95.574637 181.345073 
L 95.586728 181.818074 
L 96.960934 184.489618 
L 97.842579 182.034613 
L 98.224907 181.594979 
L 98.269869 181.867029 
L 98.752237 181.037016 
L 98.817908 180.553523 
L 99.455046 180.552013 
L 99.742357 179.596443 
L 101.275662 178.787396 
L 101.30335 178.335175 
L 101.791412 179.520571 
L 102.139965 177.848096 
L 102.347555 177.830151 
L 102.71431 176.311007 
L 103.329109 177.957617 
L 103.329761 177.704565 
L 103.731198 174.688792 
L 103.921501 174.624981 
L 103.983286 174.95711 
L 104.235756 178.312495 
L 104.456899 179.754627 
L 104.767156 179.124455 
L 104.895048 179.695404 
L 106.155079 178.846258 
L 106.3467 177.28952 
L 106.434736 178.089419 
L 106.626555 174.856191 
L 107.261665 178.413054 
L 107.575941 179.146297 
L 108.491719 174.016778 
L 109.205327 172.832774 
L 109.302371 174.075591 
L 109.828882 171.508717 
L 111.439878 170.407513 
L 112.311247 172.58582 
L 112.596555 172.08899 
L 112.991777 169.688259 
L 113.101714 170.963449 
L 113.174487 169.86165 
L 113.229997 170.592068 
L 113.327202 170.964131 
L 114.521957 168.613056 
L 114.953 169.401362 
L 115.15687 170.505158 
L 116.293289 167.70269 
L 116.57811 167.947803 
L 117.402541 169.371843 
L 118.029403 168.238051 
L 118.446014 170.795952 
L 118.514257 169.680329 
L 118.742619 168.916534 
L 118.97082 166.828526 
L 119.907371 168.149436 
L 119.970977 169.74149 
L 120.364483 168.679974 
L 120.526101 170.06717 
L 120.770058 170.778056 
L 120.847221 170.264624 
L 122.074944 166.669816 
L 122.438366 168.2207 
L 122.709532 166.602625 
L 123.446379 164.583397 
L 124.562067 166.875727 
L 125.939701 162.322592 
L 126.072463 162.690378 
L 126.614526 163.557167 
L 126.926362 162.006226 
L 127.256842 159.405478 
L 128.48759 158.69509 
L 128.998973 159.894613 
L 129.180909 161.906476 
L 130.05886 158.555446 
L 130.177857 159.737082 
L 131.009132 157.136968 
L 131.221475 159.054468 
L 132.093022 161.310402 
L 132.247972 162.069998 
L 132.279379 161.241145 
L 132.440509 159.968828 
L 133.811521 157.426339 
L 134.104515 159.848464 
L 134.280054 158.816428 
L 135.130078 159.930931 
L 135.923106 161.857511 
L 136.501242 157.098974 
L 137.59386 157.048285 
L 138.062829 157.143934 
L 138.753943 157.153987 
L 138.944542 153.746853 
L 139.385734 151.208806 
L 140.491861 157.224667 
L 140.955325 158.371942 
L 141.008697 158.305218 
L 141.339872 155.74155 
L 141.823668 154.867659 
L 142.211248 155.259625 
L 142.425583 153.552545 
L 142.622974 154.158011 
L 142.726045 154.933087 
L 143.057813 153.459605 
L 143.846025 159.881724 
L 144.513208 156.78133 
L 144.839939 158.047314 
L 144.900719 156.771754 
L 145.986176 150.035363 
L 146.087318 150.078394 
L 147.022233 150.673971 
L 147.307606 148.355162 
L 147.679432 153.289068 
L 148.065636 155.250818 
L 148.323758 154.505562 
L 148.908005 147.837503 
L 149.550577 149.624896 
L 150.17494 148.98697 
L 150.278265 150.694956 
L 150.919902 148.139587 
L 152.126047 155.857978 
L 152.31522 155.248441 
L 152.428069 152.847983 
L 152.902838 150.382008 
L 154.142476 147.89048 
L 154.470909 149.717184 
L 155.716787 147.260971 
L 155.933352 148.060929 
L 156.062963 146.46227 
L 156.238719 146.607195 
L 156.332517 145.518693 
L 156.65059 143.804025 
L 156.943354 143.899625 
L 157.414538 143.138723 
L 157.957734 141.274025 
L 158.074499 142.191425 
L 159.088725 141.448507 
L 159.670774 140.512831 
L 159.867974 142.736693 
L 159.968871 142.65447 
L 160.529208 145.942224 
L 160.809383 142.273863 
L 161.690612 141.416572 
L 161.975291 141.714702 
L 162.393093 141.148838 
L 162.426236 141.307109 
L 163.130464 143.147686 
L 163.298602 140.897335 
L 163.615695 139.466777 
L 163.764534 138.019949 
L 164.125391 138.841389 
L 164.543197 139.21311 
L 164.632308 139.036505 
L 164.966259 138.713357 
L 165.191443 137.884709 
L 165.663462 138.20807 
L 166.444348 141.894425 
L 166.998993 141.955528 
L 167.136198 141.279344 
L 167.454321 138.545967 
L 168.14272 143.980017 
L 168.484956 141.041499 
L 169.032842 142.037284 
L 169.445466 141.748663 
L 169.75803 140.413578 
L 171.113181 137.005732 
L 171.123555 137.430412 
L 171.27755 138.327314 
L 171.697934 134.421605 
L 172.599732 132.382474 
L 172.660335 135.023222 
L 173.135209 136.577174 
L 174.092207 132.873634 
L 174.498768 132.219682 
L 174.58498 132.824183 
L 174.609472 132.574609 
L 174.689916 131.886481 
L 175.473154 130.124553 
L 175.992935 132.313129 
L 176.057621 133.183455 
L 177.254738 128.234477 
L 177.560649 128.713674 
L 178.08755 127.357176 
L 178.777364 131.275511 
L 180.269375 129.942901 
L 180.558657 132.907459 
L 180.663079 132.603309 
L 181.224482 133.563652 
L 181.504944 132.750864 
L 182.377315 131.279856 
L 182.437726 131.628138 
L 182.764523 132.381909 
L 182.990477 135.008921 
L 183.541748 129.515298 
L 183.894951 131.114824 
L 184.590576 132.072147 
L 184.603406 132.90442 
L 184.75282 130.301061 
L 185.329803 132.847038 
L 186.004393 127.080206 
L 186.5391 127.443881 
L 186.586688 126.834158 
L 187.200675 129.570185 
L 187.55593 129.559995 
L 187.654317 130.552974 
L 187.719958 129.972965 
L 189.235753 128.014889 
L 190.498833 125.92237 
L 190.679707 127.140958 
L 191.72835 126.671893 
L 192.194743 130.391897 
L 192.482717 127.565132 
L 192.512926 127.589877 
L 192.54047 128.529879 
L 192.765528 130.459664 
L 192.798576 130.083012 
L 193.020191 129.798541 
L 193.114156 129.095041 
L 193.747315 129.594287 
L 193.878688 125.044251 
L 194.859864 125.933691 
L 195.308668 123.925539 
L 195.789525 125.815051 
L 195.973308 127.669237 
L 196.233117 128.296866 
L 196.767925 124.764183 
L 196.808203 126.397671 
L 197.390199 126.922851 
L 197.978101 121.950492 
L 197.98164 121.694936 
L 198.674478 122.077432 
L 198.809406 120.986096 
L 198.912346 123.918369 
L 199.903065 124.940633 
L 200.817763 119.695027 
L 200.902687 120.563404 
L 201.093429 121.206016 
L 201.525977 116.865085 
L 201.591799 114.824649 
L 202.036498 118.789707 
L 202.967368 125.545271 
L 203.046398 125.329034 
L 203.300479 126.948064 
L 203.66588 127.712862 
L 203.948297 121.999476 
L 204.728473 120.230611 
L 206.150867 117.519583 
L 206.724463 117.166995 
L 207.053526 116.675737 
L 207.141702 119.114374 
L 207.222029 118.983654 
L 208.045101 114.516835 
L 208.884224 115.017368 
L 208.90615 114.772801 
L 209.192959 113.971313 
L 209.220356 114.225272 
L 209.652347 111.496318 
L 209.715736 112.150972 
L 210.00962 113.416127 
L 210.894899 113.343392 
L 210.992459 115.942444 
L 211.270985 114.728026 
L 212.235874 112.68266 
L 212.613092 115.801982 
L 212.696801 116.096819 
L 213.072447 113.294915 
L 213.302821 114.350634 
L 213.421367 113.574924 
L 213.640731 113.907444 
L 214.272472 109.745087 
L 214.753161 111.375885 
L 214.876597 110.829077 
L 215.965415 107.851932 
L 216.0873 109.257258 
L 217.245763 110.367475 
L 217.711012 108.344087 
L 219.041769 109.677496 
L 219.35474 109.050705 
L 220.165476 107.527499 
L 220.199797 107.615276 
L 220.667941 112.300825 
L 220.949939 109.554764 
L 221.172364 110.638384 
L 221.291796 111.946425 
L 221.790337 108.7282 
L 222.449128 111.22005 
L 223.045824 111.504209 
L 223.45126 108.517127 
L 223.722119 111.76452 
L 224.926176 108.375223 
L 225.391803 107.786523 
L 225.530151 109.874521 
L 225.720829 106.317114 
L 226.142059 107.270657 
L 226.37889 111.991746 
L 226.747825 102.687477 
L 227.886968 105.908488 
L 228.697088 102.891712 
L 228.729849 102.986464 
L 229.382181 105.013885 
L 229.442553 106.269884 
L 229.454884 105.941008 
L 229.578008 104.245931 
L 229.676132 104.964999 
L 229.697074 103.655751 
L 229.971711 101.243066 
L 231.410107 108.832422 
L 231.886513 106.600026 
L 232.292311 101.818165 
L 232.54898 102.171065 
L 232.898636 103.381217 
L 233.122669 102.876358 
L 233.182995 102.977151 
L 235.125822 97.532122 
L 235.816232 102.806117 
L 236.077015 102.570357 
L 236.481743 100.531401 
L 237.006954 95.646449 
L 237.900314 96.777105 
L 238.309598 96.791465 
L 239.091516 99.170597 
L 239.159118 101.053971 
L 239.353575 102.94089 
L 240.411005 101.156965 
L 241.236179 101.617983 
L 241.444912 101.03774 
L 241.787315 96.506623 
L 241.950699 96.375299 
L 242.264921 96.861861 
L 242.375283 98.666557 
L 242.6129 97.995147 
L 243.35044 94.720632 
L 243.36144 95.518535 
L 243.410845 95.29164 
L 243.75551 96.868525 
L 243.767465 97.815268 
L 243.945837 98.206981 
L 244.306109 94.180975 
L 244.512261 97.454068 
L 244.712209 96.280936 
L 245.899203 95.828744 
L 246.162987 94.122191 
L 246.527908 96.457231 
L 246.900062 100.273799 
L 247.491752 96.769545 
L 248.071773 91.748787 
L 248.973201 93.240448 
L 249.013997 94.451164 
L 249.209502 93.838304 
L 249.756633 92.885424 
L 249.943905 95.940214 
L 250.418875 90.153898 
L 251.187646 92.810857 
L 251.312616 94.077494 
L 251.999817 98.386392 
L 252.220559 96.855412 
L 252.691251 91.480741 
L 253.260394 99.347222 
L 253.604253 98.111313 
L 253.925055 91.333595 
L 254.760918 89.416046 
L 256.860018 89.699231 
L 257.071768 89.396445 
L 257.416022 90.576844 
L 257.506766 90.769174 
L 257.891798 89.237395 
L 258.088931 86.487514 
L 258.492962 89.140558 
L 258.842351 85.158333 
L 258.990181 87.386345 
L 259.179246 87.455593 
L 259.225399 87.212721 
L 259.738834 90.493198 
L 259.764838 89.710454 
L 260.109957 87.525502 
L 260.556283 92.501524 
L 260.98525 94.066251 
L 261.206885 92.352002 
L 262.417799 90.311994 
L 262.450756 90.021229 
L 262.975585 89.737752 
L 263.793055 91.586365 
L 264.355212 89.372694 
L 265.580881 92.178591 
L 265.925 91.144948 
L 266.427479 90.532322 
L 266.784894 91.996043 
L 267.054223 93.612812 
L 267.129252 93.176188 
L 268.646094 91.921944 
L 268.881058 93.752651 
L 269.261901 92.940116 
L 269.440298 90.195107 
L 269.762262 87.133595 
L 270.230583 91.781189 
L 270.608226 89.416865 
L 271.307221 86.606797 
L 272.090999 82.27861 
L 272.73623 86.338596 
L 272.924621 84.09823 
L 273.405064 84.228152 
L 273.803394 84.040674 
L 274.272942 85.477798 
L 275.983334 85.715702 
L 276.164258 87.690729 
L 276.191257 87.637927 
L 276.834258 86.142525 
L 277.014921 82.828944 
L 277.304549 86.452696 
L 278.03067 85.917228 
L 278.232917 87.85845 
L 278.635336 83.110356 
L 279.141607 85.154047 
L 279.258654 83.787163 
L 279.877051 82.498919 
L 280.368913 86.028016 
L 280.806195 82.151124 
L 280.975733 82.8306 
L 281.216733 82.436023 
L 281.285977 81.04611 
L 281.587015 83.222099 
L 281.645217 84.509466 
L 281.834466 85.714708 
L 282.88772 86.54133 
L 282.915008 86.02595 
L 283.232023 82.293262 
L 284.160919 84.238829 
L 284.263746 83.005277 
L 284.832987 79.746778 
L 284.964003 80.142817 
L 284.995895 79.410947 
L 285.712784 80.760976 
L 285.772411 80.592495 
L 285.845513 81.385039 
L 285.946626 80.78767 
L 286.432203 84.731237 
L 286.955177 80.405329 
L 287.360614 80.547116 
L 288.049234 82.203634 
L 288.138049 81.997626 
L 288.293165 80.614201 
L 288.441811 81.207654 
L 288.783283 84.862152 
L 289.355862 84.933932 
L 289.509265 89.995062 
L 290.402059 85.164393 
L 290.989027 87.271563 
L 291.105903 83.845538 
L 291.887276 82.841843 
L 291.914351 82.234361 
L 292.618681 79.880636 
L 292.923523 81.095015 
L 293.652771 81.684104 
L 294.166992 80.697379 
L 295.052463 81.364717 
L 295.227407 81.676856 
L 295.381168 81.673368 
L 295.620588 83.399328 
L 296.024779 79.821189 
L 296.326223 79.182162 
L 297.08941 79.984994 
L 297.255192 79.100756 
L 297.399421 79.958125 
L 297.97514 84.393223 
L 298.160562 84.234504 
L 299.093342 82.997873 
L 299.236132 83.370394 
L 299.262194 83.970511 
L 299.964311 82.547688 
L 300.022646 83.221923 
L 300.190931 82.108921 
L 301.187013 79.235432 
L 303.42296 80.549883 
L 303.661967 79.963074 
L 304.061909 77.797918 
L 304.538369 82.735868 
L 304.7436 82.012473 
L 304.903686 81.976466 
L 304.908948 82.251468 
L 305.232956 80.313675 
L 305.341779 80.356676 
L 305.402098 79.595346 
L 305.494839 80.008258 
L 305.862343 80.442252 
L 306.467538 77.795307 
L 306.561768 78.649538 
L 307.501324 80.06749 
L 307.678298 78.734899 
L 308.229422 78.5316 
L 309.038153 77.063164 
L 309.098324 79.87822 
L 309.195845 77.965892 
L 309.552443 76.088948 
L 310.119759 77.85982 
L 310.613709 75.964541 
L 310.934742 75.734275 
L 311.336779 76.182025 
L 311.362865 76.6137 
L 311.4391 76.411511 
L 311.827813 80.251149 
L 312.247241 82.196561 
L 312.580712 84.734413 
L 312.686297 84.531893 
L 313.078015 77.017025 
L 313.401311 77.327372 
L 314.243718 80.363574 
L 315.317769 77.413707 
L 315.624226 75.315577 
L 315.942638 78.346713 
L 316.348972 80.665464 
L 316.396942 79.619448 
L 316.536337 79.963912 
L 316.635264 77.215045 
L 317.040303 75.437899 
L 317.630598 77.440303 
L 319.577149 80.113259 
L 319.66994 78.61094 
L 319.921529 76.593144 
L 320.579638 72.452883 
L 321.283485 72.671847 
L 321.316364 73.369386 
L 322.646144 72.902814 
L 323.290405 76.220546 
L 324.118339 71.372321 
L 324.681822 75.345524 
L 324.987511 76.066834 
L 324.989642 75.960664 
L 325.357279 75.826261 
L 325.774508 75.895898 
L 325.979916 72.920448 
L 326.444115 72.817551 
L 326.69117 69.988564 
L 326.811691 72.816226 
L 327.311154 72.734762 
L 327.700718 72.894787 
L 327.77255 73.655747 
L 327.924259 73.636263 
L 328.096748 69.192786 
L 328.328277 67.839853 
L 329.494539 70.688266 
L 329.581984 71.476621 
L 329.586448 70.704126 
L 330.243096 69.998716 
L 331.095886 70.848193 
L 331.512106 71.05311 
L 331.79682 72.020077 
L 332.60493 71.422552 
L 332.714297 70.860702 
L 332.784988 69.782849 
L 333.134087 72.023175 
L 333.462914 69.103217 
L 333.582833 69.137373 
L 333.783237 69.335314 
L 334.276025 76.388812 
L 334.891422 69.518603 
L 335.353024 71.129839 
L 335.555456 68.952486 
L 335.93868 68.577121 
L 335.969408 67.640295 
L 336.999752 70.739646 
L 338.008904 70.259085 
L 338.473871 67.664923 
L 339.053608 68.583141 
L 339.744948 66.12348 
L 339.847262 67.59893 
L 340.066439 68.332475 
L 341.809269 65.45924 
L 342.136822 62.805359 
L 342.919116 67.742997 
L 344.46527 70.471483 
L 345.261487 69.177276 
L 345.332481 67.309705 
L 345.591099 68.349057 
L 345.737828 66.730046 
L 345.972938 65.797468 
L 346.279052 65.607087 
L 346.619307 68.888675 
L 347.042766 66.01014 
L 347.591968 72.536568 
L 348.064958 72.461495 
L 348.297069 70.599184 
L 349.116017 66.360877 
L 349.73719 67.162403 
L 349.921637 65.070879 
L 350.265056 64.837729 
L 350.344777 66.204613 
L 350.975137 66.40232 
L 351.13207 65.038691 
L 351.23992 66.523746 
L 351.380017 66.49263 
L 351.681146 66.588161 
L 352.216041 67.952473 
L 354.475748 65.735099 
L 354.48806 65.16302 
L 354.572466 65.920492 
L 354.607591 65.881309 
L 354.779235 65.358 
L 354.974815 62.794409 
L 355.300647 65.273788 
L 356.408806 64.510704 
L 356.713023 65.780653 
L 357.881391 66.139067 
L 358.087328 63.833936 
L 358.555122 65.165475 
L 359.077447 65.337366 
L 359.17704 65.986525 
L 359.64735 64.293727 
L 359.975063 63.897533 
L 360.319957 65.313419 
L 360.640068 63.668729 
L 360.848644 65.053206 
L 361.104487 63.649712 
L 361.117238 64.038736 
L 361.749843 63.295487 
L 362.089267 64.004775 
L 362.182627 65.094825 
L 362.603459 62.454271 
L 362.61813 62.532988 
L 362.817853 62.291148 
L 363.285099 64.295909 
L 363.992957 66.780472 
L 364.607961 65.899508 
L 364.927091 64.39602 
L 365.150229 68.82313 
L 365.884159 64.708587 
L 366.488729 63.727201 
L 368.282756 62.642607 
L 368.672134 58.343178 
L 368.871493 58.809048 
L 369.031894 60.159701 
L 369.362072 62.041671 
L 369.531644 61.874632 
L 370.148878 62.365442 
L 371.052383 60.994837 
L 372.713114 62.615348 
L 373.153865 69.404054 
L 373.568662 64.321746 
L 374.18351 61.099585 
L 374.304 59.079958 
L 375.457132 62.575269 
L 375.619321 61.306314 
L 375.963642 65.258474 
L 376.24597 62.403437 
L 376.492984 62.10519 
L 377.509514 57.42609 
L 377.645469 58.255537 
L 378.018421 58.173196 
L 378.098843 59.20606 
L 378.18641 58.091655 
L 378.724146 60.866436 
L 379.607063 62.788973 
L 379.794865 59.031188 
L 380.598242 56.946678 
L 380.718648 56.401643 
L 381.082447 56.353731 
L 381.569608 65.059324 
L 381.585858 63.909165 
L 381.676683 64.018472 
L 382.273197 55.420335 
L 382.79248 55.795057 
L 383.351525 56.887251 
L 383.647974 60.437605 
L 383.902867 58.88942 
L 384.214723 61.765793 
L 385.324029 59.810717 
L 385.521717 56.239865 
L 385.738357 54.896285 
L 386.734871 57.602598 
L 387.013771 57.630324 
L 387.271393 56.42859 
L 389.400261 59.787004 
L 389.707399 59.464442 
L 390.035572 59.282711 
L 390.088179 59.675769 
L 390.161297 61.103462 
L 390.24302 60.069176 
L 390.363722 61.454355 
L 390.865491 60.7514 
L 391.6382 60.068163 
L 391.93135 59.453491 
L 392.111731 57.889953 
L 392.134801 58.042768 
L 392.975177 61.732669 
L 393.259932 59.475022 
L 393.740856 57.800715 
L 393.883138 59.82307 
L 394.713082 55.570481 
L 394.953972 59.89787 
L 395.240951 60.558155 
L 396.027765 56.388706 
L 396.232722 58.289167 
L 396.86097 58.191531 
L 396.960072 57.856849 
L 397.099916 55.916386 
L 397.278077 55.424778 
L 397.785142 57.820394 
L 398.037173 56.890018 
L 398.174204 56.886861 
L 398.715674 64.116167 
L 398.824424 63.734274 
L 399.263807 63.674866 
L 400.339239 60.066936 
L 400.806389 57.184367 
L 400.982846 58.659505 
L 401.354032 57.993687 
L 402.015134 57.438267 
L 402.746919 58.588797 
L 403.271498 56.466253 
L 404.003893 55.968741 
L 404.634283 58.530831 
L 404.76551 57.852972 
L 404.970582 59.092466 
L 405.168564 57.420985 
L 405.665696 56.699461 
L 405.818134 54.532123 
L 406.166042 53.568 
L 406.442323 54.349984 
L 406.506157 55.206027 
L 406.562914 55.164448 
L 406.838104 54.097545 
L 407.450352 56.460564 
L 407.67923 56.826752 
L 408.258861 58.920673 
L 408.789011 56.887348 
L 409.254173 57.802079 
L 410.792551 59.36363 
L 411.122081 62.576379 
L 411.214428 61.43869 
L 412.028272 57.254901 
L 412.085821 57.398032 
L 412.14943 58.783874 
L 412.185971 58.450302 
L 413.038384 58.316913 
L 413.187332 57.881847 
L 413.334399 56.687887 
L 413.849558 58.934351 
L 414.216531 54.454186 
L 414.460577 56.643658 
L 414.72 55.38727 
L 414.72 55.38727 
" style="fill:none;stroke:#000000;stroke-linecap:square;stroke-width:0.8;"/>
   </g>
   <g id="patch_3">
    <path d="M 57.6 307.584 
L 57.6 41.472 
" style="fill:none;stroke:#000000;stroke-linecap:square;stroke-linejoin:miter;stroke-width:0.8;"/>
   </g>
   <g id="patch_4">
    <path d="M 414.72 307.584 
L 414.72 41.472 
" style="fill:none;stroke:#000000;stroke-linecap:square;stroke-linejoin:miter;stroke-width:0.8;"/>
   </g>
   <g id="patch_5">
    <path d="M 57.6 307.584 
L 414.72 307.584 
" style="fill:none;stroke:#000000;stroke-linecap:square;stroke-linejoin:miter;stroke-width:0.8;"/>
   </g>
   <g id="patch_6">
    <path d="M 57.6 41.472 
L 414.72 41.472 
" style="fill:none;stroke:#000000;stroke-linecap:square;stroke-linejoin:miter;stroke-width:0.8;"/>
   </g>
  </g>
  <g id="axes_2">
   <g id="matplotlib.axis_3">
    <g id="xtick_9">
     <g id="line2d_36">
      <defs>
       <path d="M 0 0 
L 0 -3.5 
" id="m013dc37786" style="stroke:#000000;stroke-width:0.8;"/>
      </defs>
      <g>
       <use style="stroke:#000000;stroke-width:0.8;" x="57.6" xlink:href="#m013dc37786" y="41.472"/>
      </g>
     </g>
    </g>
    <g id="xtick_10">
     <g id="line2d_37">
      <g>
       <use style="stroke:#000000;stroke-width:0.8;" x="99.715234" xlink:href="#m013dc37786" y="41.472"/>
      </g>
     </g>
     <g id="text_20">
      <!-- 10.0M -->
      <g transform="translate(84.268359 32.392313)scale(0.1 -0.1)">
       <use xlink:href="#DejaVuSans-49"/>
       <use x="63.623047" xlink:href="#DejaVuSans-48"/>
       <use x="127.246094" xlink:href="#DejaVuSans-46"/>
       <use x="159.033203" xlink:href="#DejaVuSans-48"/>
       <use x="222.65625" xlink:href="#DejaVuSans-77"/>
      </g>
     </g>
    </g>
    <g id="xtick_11">
     <g id="line2d_38">
      <g>
       <use style="stroke:#000000;stroke-width:0.8;" x="141.830469" xlink:href="#m013dc37786" y="41.472"/>
      </g>
     </g>
     <g id="text_21">
      <!-- 20.0M -->
      <g transform="translate(126.383594 32.392313)scale(0.1 -0.1)">
       <use xlink:href="#DejaVuSans-50"/>
       <use x="63.623047" xlink:href="#DejaVuSans-48"/>
       <use x="127.246094" xlink:href="#DejaVuSans-46"/>
       <use x="159.033203" xlink:href="#DejaVuSans-48"/>
       <use x="222.65625" xlink:href="#DejaVuSans-77"/>
      </g>
     </g>
    </g>
    <g id="xtick_12">
     <g id="line2d_39">
      <g>
       <use style="stroke:#000000;stroke-width:0.8;" x="183.945703" xlink:href="#m013dc37786" y="41.472"/>
      </g>
     </g>
     <g id="text_22">
      <!-- 30.0M -->
      <defs>
       <path d="M 40.578125 39.3125 
Q 47.65625 37.796875 51.625 33 
Q 55.609375 28.21875 55.609375 21.1875 
Q 55.609375 10.40625 48.1875 4.484375 
Q 40.765625 -1.421875 27.09375 -1.421875 
Q 22.515625 -1.421875 17.65625 -0.515625 
Q 12.796875 0.390625 7.625 2.203125 
L 7.625 11.71875 
Q 11.71875 9.328125 16.59375 8.109375 
Q 21.484375 6.890625 26.8125 6.890625 
Q 36.078125 6.890625 40.9375 10.546875 
Q 45.796875 14.203125 45.796875 21.1875 
Q 45.796875 27.640625 41.28125 31.265625 
Q 36.765625 34.90625 28.71875 34.90625 
L 20.21875 34.90625 
L 20.21875 43.015625 
L 29.109375 43.015625 
Q 36.375 43.015625 40.234375 45.921875 
Q 44.09375 48.828125 44.09375 54.296875 
Q 44.09375 59.90625 40.109375 62.90625 
Q 36.140625 65.921875 28.71875 65.921875 
Q 24.65625 65.921875 20.015625 65.03125 
Q 15.375 64.15625 9.8125 62.3125 
L 9.8125 71.09375 
Q 15.4375 72.65625 20.34375 73.4375 
Q 25.25 74.21875 29.59375 74.21875 
Q 40.828125 74.21875 47.359375 69.109375 
Q 53.90625 64.015625 53.90625 55.328125 
Q 53.90625 49.265625 50.4375 45.09375 
Q 46.96875 40.921875 40.578125 39.3125 
z
" id="DejaVuSans-51"/>
      </defs>
      <g transform="translate(168.498828 32.392313)scale(0.1 -0.1)">
       <use xlink:href="#DejaVuSans-51"/>
       <use x="63.623047" xlink:href="#DejaVuSans-48"/>
       <use x="127.246094" xlink:href="#DejaVuSans-46"/>
       <use x="159.033203" xlink:href="#DejaVuSans-48"/>
       <use x="222.65625" xlink:href="#DejaVuSans-77"/>
      </g>
     </g>
    </g>
    <g id="xtick_13">
     <g id="line2d_40">
      <g>
       <use style="stroke:#000000;stroke-width:0.8;" x="226.060937" xlink:href="#m013dc37786" y="41.472"/>
      </g>
     </g>
     <g id="text_23">
      <!-- 40.0M -->
      <g transform="translate(210.614062 32.392313)scale(0.1 -0.1)">
       <use xlink:href="#DejaVuSans-52"/>
       <use x="63.623047" xlink:href="#DejaVuSans-48"/>
       <use x="127.246094" xlink:href="#DejaVuSans-46"/>
       <use x="159.033203" xlink:href="#DejaVuSans-48"/>
       <use x="222.65625" xlink:href="#DejaVuSans-77"/>
      </g>
     </g>
    </g>
    <g id="xtick_14">
     <g id="line2d_41">
      <g>
       <use style="stroke:#000000;stroke-width:0.8;" x="268.176172" xlink:href="#m013dc37786" y="41.472"/>
      </g>
     </g>
     <g id="text_24">
      <!-- 50.0M -->
      <g transform="translate(252.729297 32.392313)scale(0.1 -0.1)">
       <use xlink:href="#DejaVuSans-53"/>
       <use x="63.623047" xlink:href="#DejaVuSans-48"/>
       <use x="127.246094" xlink:href="#DejaVuSans-46"/>
       <use x="159.033203" xlink:href="#DejaVuSans-48"/>
       <use x="222.65625" xlink:href="#DejaVuSans-77"/>
      </g>
     </g>
    </g>
    <g id="xtick_15">
     <g id="line2d_42">
      <g>
       <use style="stroke:#000000;stroke-width:0.8;" x="310.291406" xlink:href="#m013dc37786" y="41.472"/>
      </g>
     </g>
     <g id="text_25">
      <!-- 60.0M -->
      <g transform="translate(294.844531 32.392313)scale(0.1 -0.1)">
       <use xlink:href="#DejaVuSans-54"/>
       <use x="63.623047" xlink:href="#DejaVuSans-48"/>
       <use x="127.246094" xlink:href="#DejaVuSans-46"/>
       <use x="159.033203" xlink:href="#DejaVuSans-48"/>
       <use x="222.65625" xlink:href="#DejaVuSans-77"/>
      </g>
     </g>
    </g>
    <g id="xtick_16">
     <g id="line2d_43">
      <g>
       <use style="stroke:#000000;stroke-width:0.8;" x="352.40664" xlink:href="#m013dc37786" y="41.472"/>
      </g>
     </g>
     <g id="text_26">
      <!-- 70.0M -->
      <g transform="translate(336.959765 32.392313)scale(0.1 -0.1)">
       <use xlink:href="#DejaVuSans-55"/>
       <use x="63.623047" xlink:href="#DejaVuSans-48"/>
       <use x="127.246094" xlink:href="#DejaVuSans-46"/>
       <use x="159.033203" xlink:href="#DejaVuSans-48"/>
       <use x="222.65625" xlink:href="#DejaVuSans-77"/>
      </g>
     </g>
    </g>
    <g id="xtick_17">
     <g id="line2d_44">
      <g>
       <use style="stroke:#000000;stroke-width:0.8;" x="394.521875" xlink:href="#m013dc37786" y="41.472"/>
      </g>
     </g>
     <g id="text_27">
      <!-- 80.0M -->
      <g transform="translate(379.075 32.392313)scale(0.1 -0.1)">
       <use xlink:href="#DejaVuSans-56"/>
       <use x="63.623047" xlink:href="#DejaVuSans-48"/>
       <use x="127.246094" xlink:href="#DejaVuSans-46"/>
       <use x="159.033203" xlink:href="#DejaVuSans-48"/>
       <use x="222.65625" xlink:href="#DejaVuSans-77"/>
      </g>
     </g>
    </g>
    <g id="text_28">
     <!-- Steps -->
     <defs>
      <path d="M 53.515625 70.515625 
L 53.515625 60.890625 
Q 47.90625 63.578125 42.921875 64.890625 
Q 37.9375 66.21875 33.296875 66.21875 
Q 25.25 66.21875 20.875 63.09375 
Q 16.5 59.96875 16.5 54.203125 
Q 16.5 49.359375 19.40625 46.890625 
Q 22.3125 44.4375 30.421875 42.921875 
L 36.375 41.703125 
Q 47.40625 39.59375 52.65625 34.296875 
Q 57.90625 29 57.90625 20.125 
Q 57.90625 9.515625 50.796875 4.046875 
Q 43.703125 -1.421875 29.984375 -1.421875 
Q 24.8125 -1.421875 18.96875 -0.25 
Q 13.140625 0.921875 6.890625 3.21875 
L 6.890625 13.375 
Q 12.890625 10.015625 18.65625 8.296875 
Q 24.421875 6.59375 29.984375 6.59375 
Q 38.421875 6.59375 43.015625 9.90625 
Q 47.609375 13.234375 47.609375 19.390625 
Q 47.609375 24.75 44.3125 27.78125 
Q 41.015625 30.8125 33.5 32.328125 
L 27.484375 33.5 
Q 16.453125 35.6875 11.515625 40.375 
Q 6.59375 45.0625 6.59375 53.421875 
Q 6.59375 63.09375 13.40625 68.65625 
Q 20.21875 74.21875 32.171875 74.21875 
Q 37.3125 74.21875 42.625 73.28125 
Q 47.953125 72.359375 53.515625 70.515625 
z
" id="DejaVuSans-83"/>
      <path d="M 18.109375 8.203125 
L 18.109375 -20.796875 
L 9.078125 -20.796875 
L 9.078125 54.6875 
L 18.109375 54.6875 
L 18.109375 46.390625 
Q 20.953125 51.265625 25.265625 53.625 
Q 29.59375 56 35.59375 56 
Q 45.5625 56 51.78125 48.09375 
Q 58.015625 40.1875 58.015625 27.296875 
Q 58.015625 14.40625 51.78125 6.484375 
Q 45.5625 -1.421875 35.59375 -1.421875 
Q 29.59375 -1.421875 25.265625 0.953125 
Q 20.953125 3.328125 18.109375 8.203125 
z
M 48.6875 27.296875 
Q 48.6875 37.203125 44.609375 42.84375 
Q 40.53125 48.484375 33.40625 48.484375 
Q 26.265625 48.484375 22.1875 42.84375 
Q 18.109375 37.203125 18.109375 27.296875 
Q 18.109375 17.390625 22.1875 11.75 
Q 26.265625 6.109375 33.40625 6.109375 
Q 40.53125 6.109375 44.609375 11.75 
Q 48.6875 17.390625 48.6875 27.296875 
z
" id="DejaVuSans-112"/>
     </defs>
     <g transform="translate(222.170156 20.793875)scale(0.1 -0.1)">
      <use xlink:href="#DejaVuSans-83"/>
      <use x="63.476562" xlink:href="#DejaVuSans-116"/>
      <use x="102.685547" xlink:href="#DejaVuSans-101"/>
      <use x="164.208984" xlink:href="#DejaVuSans-112"/>
      <use x="227.685547" xlink:href="#DejaVuSans-115"/>
     </g>
    </g>
   </g>
   <g id="patch_7">
    <path d="M 57.6 307.584 
L 57.6 41.472 
" style="fill:none;stroke:#000000;stroke-linecap:square;stroke-linejoin:miter;stroke-width:0.8;"/>
   </g>
   <g id="patch_8">
    <path d="M 414.72 307.584 
L 414.72 41.472 
" style="fill:none;stroke:#000000;stroke-linecap:square;stroke-linejoin:miter;stroke-width:0.8;"/>
   </g>
   <g id="patch_9">
    <path d="M 57.6 307.584 
L 414.72 307.584 
" style="fill:none;stroke:#000000;stroke-linecap:square;stroke-linejoin:miter;stroke-width:0.8;"/>
   </g>
   <g id="patch_10">
    <path d="M 57.6 41.472 
L 414.72 41.472 
" style="fill:none;stroke:#000000;stroke-linecap:square;stroke-linejoin:miter;stroke-width:0.8;"/>
   </g>
  </g>
 </g>
 <defs>
  <clipPath id="pdca2b3f5e5">
   <rect height="266.112" width="357.12" x="57.6" y="41.472"/>
  </clipPath>
 </defs>
</svg>
