<?xml version="1.0" encoding="utf-8" standalone="no"?>
<!DOCTYPE svg PUBLIC "-//W3C//DTD SVG 1.1//EN"
  "http://www.w3.org/Graphics/SVG/1.1/DTD/svg11.dtd">
<!-- Created with matplotlib (https://matplotlib.org/) -->
<svg height="345.6pt" version="1.1" viewBox="0 0 460.8 345.6" width="460.8pt" xmlns="http://www.w3.org/2000/svg" xmlns:xlink="http://www.w3.org/1999/xlink">
 <defs>
  <style type="text/css">
*{stroke-linecap:butt;stroke-linejoin:round;}
  </style>
 </defs>
 <g id="figure_1">
  <g id="patch_1">
   <path d="M 0 345.6 
L 460.8 345.6 
L 460.8 0 
L 0 0 
z
" style="fill:#ffffff;"/>
  </g>
  <g id="axes_1">
   <g id="patch_2">
    <path d="M 57.6 307.584 
L 414.72 307.584 
L 414.72 41.472 
L 57.6 41.472 
z
" style="fill:#ffffff;"/>
   </g>
   <g id="matplotlib.axis_1">
    <g id="xtick_1">
     <g id="line2d_1">
      <path clip-path="url(#pcfb3a48abc)" d="M 57.6 307.584 
L 57.6 41.472 
" style="fill:none;stroke:#b0b0b0;stroke-linecap:square;stroke-width:0.8;"/>
     </g>
     <g id="line2d_2">
      <defs>
       <path d="M 0 0 
L 0 3.5 
" id="m783e5f37b4" style="stroke:#000000;stroke-width:0.8;"/>
      </defs>
      <g>
       <use style="stroke:#000000;stroke-width:0.8;" x="57.6" xlink:href="#m783e5f37b4" y="307.584"/>
      </g>
     </g>
     <g id="text_1">
      <!-- 0.0 -->
      <defs>
       <path d="M 31.78125 66.40625 
Q 24.171875 66.40625 20.328125 58.90625 
Q 16.5 51.421875 16.5 36.375 
Q 16.5 21.390625 20.328125 13.890625 
Q 24.171875 6.390625 31.78125 6.390625 
Q 39.453125 6.390625 43.28125 13.890625 
Q 47.125 21.390625 47.125 36.375 
Q 47.125 51.421875 43.28125 58.90625 
Q 39.453125 66.40625 31.78125 66.40625 
z
M 31.78125 74.21875 
Q 44.046875 74.21875 50.515625 64.515625 
Q 56.984375 54.828125 56.984375 36.375 
Q 56.984375 17.96875 50.515625 8.265625 
Q 44.046875 -1.421875 31.78125 -1.421875 
Q 19.53125 -1.421875 13.0625 8.265625 
Q 6.59375 17.96875 6.59375 36.375 
Q 6.59375 54.828125 13.0625 64.515625 
Q 19.53125 74.21875 31.78125 74.21875 
z
" id="DejaVuSans-48"/>
       <path d="M 10.6875 12.40625 
L 21 12.40625 
L 21 0 
L 10.6875 0 
z
" id="DejaVuSans-46"/>
      </defs>
      <g transform="translate(49.648438 322.182437)scale(0.1 -0.1)">
       <use xlink:href="#DejaVuSans-48"/>
       <use x="63.623047" xlink:href="#DejaVuSans-46"/>
       <use x="95.410156" xlink:href="#DejaVuSans-48"/>
      </g>
     </g>
    </g>
    <g id="xtick_2">
     <g id="line2d_3">
      <path clip-path="url(#pcfb3a48abc)" d="M 103.438718 307.584 
L 103.438718 41.472 
" style="fill:none;stroke:#b0b0b0;stroke-linecap:square;stroke-width:0.8;"/>
     </g>
     <g id="line2d_4">
      <g>
       <use style="stroke:#000000;stroke-width:0.8;" x="103.438718" xlink:href="#m783e5f37b4" y="307.584"/>
      </g>
     </g>
     <g id="text_2">
      <!-- 2.5 -->
      <defs>
       <path d="M 19.1875 8.296875 
L 53.609375 8.296875 
L 53.609375 0 
L 7.328125 0 
L 7.328125 8.296875 
Q 12.9375 14.109375 22.625 23.890625 
Q 32.328125 33.6875 34.8125 36.53125 
Q 39.546875 41.84375 41.421875 45.53125 
Q 43.3125 49.21875 43.3125 52.78125 
Q 43.3125 58.59375 39.234375 62.25 
Q 35.15625 65.921875 28.609375 65.921875 
Q 23.96875 65.921875 18.8125 64.3125 
Q 13.671875 62.703125 7.8125 59.421875 
L 7.8125 69.390625 
Q 13.765625 71.78125 18.9375 73 
Q 24.125 74.21875 28.421875 74.21875 
Q 39.75 74.21875 46.484375 68.546875 
Q 53.21875 62.890625 53.21875 53.421875 
Q 53.21875 48.921875 51.53125 44.890625 
Q 49.859375 40.875 45.40625 35.40625 
Q 44.1875 33.984375 37.640625 27.21875 
Q 31.109375 20.453125 19.1875 8.296875 
z
" id="DejaVuSans-50"/>
       <path d="M 10.796875 72.90625 
L 49.515625 72.90625 
L 49.515625 64.59375 
L 19.828125 64.59375 
L 19.828125 46.734375 
Q 21.96875 47.46875 24.109375 47.828125 
Q 26.265625 48.1875 28.421875 48.1875 
Q 40.625 48.1875 47.75 41.5 
Q 54.890625 34.8125 54.890625 23.390625 
Q 54.890625 11.625 47.5625 5.09375 
Q 40.234375 -1.421875 26.90625 -1.421875 
Q 22.3125 -1.421875 17.546875 -0.640625 
Q 12.796875 0.140625 7.71875 1.703125 
L 7.71875 11.625 
Q 12.109375 9.234375 16.796875 8.0625 
Q 21.484375 6.890625 26.703125 6.890625 
Q 35.15625 6.890625 40.078125 11.328125 
Q 45.015625 15.765625 45.015625 23.390625 
Q 45.015625 31 40.078125 35.4375 
Q 35.15625 39.890625 26.703125 39.890625 
Q 22.75 39.890625 18.8125 39.015625 
Q 14.890625 38.140625 10.796875 36.28125 
z
" id="DejaVuSans-53"/>
      </defs>
      <g transform="translate(95.487156 322.182437)scale(0.1 -0.1)">
       <use xlink:href="#DejaVuSans-50"/>
       <use x="63.623047" xlink:href="#DejaVuSans-46"/>
       <use x="95.410156" xlink:href="#DejaVuSans-53"/>
      </g>
     </g>
    </g>
    <g id="xtick_3">
     <g id="line2d_5">
      <path clip-path="url(#pcfb3a48abc)" d="M 149.277437 307.584 
L 149.277437 41.472 
" style="fill:none;stroke:#b0b0b0;stroke-linecap:square;stroke-width:0.8;"/>
     </g>
     <g id="line2d_6">
      <g>
       <use style="stroke:#000000;stroke-width:0.8;" x="149.277437" xlink:href="#m783e5f37b4" y="307.584"/>
      </g>
     </g>
     <g id="text_3">
      <!-- 5.0 -->
      <g transform="translate(141.325874 322.182437)scale(0.1 -0.1)">
       <use xlink:href="#DejaVuSans-53"/>
       <use x="63.623047" xlink:href="#DejaVuSans-46"/>
       <use x="95.410156" xlink:href="#DejaVuSans-48"/>
      </g>
     </g>
    </g>
    <g id="xtick_4">
     <g id="line2d_7">
      <path clip-path="url(#pcfb3a48abc)" d="M 195.116155 307.584 
L 195.116155 41.472 
" style="fill:none;stroke:#b0b0b0;stroke-linecap:square;stroke-width:0.8;"/>
     </g>
     <g id="line2d_8">
      <g>
       <use style="stroke:#000000;stroke-width:0.8;" x="195.116155" xlink:href="#m783e5f37b4" y="307.584"/>
      </g>
     </g>
     <g id="text_4">
      <!-- 7.5 -->
      <defs>
       <path d="M 8.203125 72.90625 
L 55.078125 72.90625 
L 55.078125 68.703125 
L 28.609375 0 
L 18.3125 0 
L 43.21875 64.59375 
L 8.203125 64.59375 
z
" id="DejaVuSans-55"/>
      </defs>
      <g transform="translate(187.164592 322.182437)scale(0.1 -0.1)">
       <use xlink:href="#DejaVuSans-55"/>
       <use x="63.623047" xlink:href="#DejaVuSans-46"/>
       <use x="95.410156" xlink:href="#DejaVuSans-53"/>
      </g>
     </g>
    </g>
    <g id="xtick_5">
     <g id="line2d_9">
      <path clip-path="url(#pcfb3a48abc)" d="M 240.954873 307.584 
L 240.954873 41.472 
" style="fill:none;stroke:#b0b0b0;stroke-linecap:square;stroke-width:0.8;"/>
     </g>
     <g id="line2d_10">
      <g>
       <use style="stroke:#000000;stroke-width:0.8;" x="240.954873" xlink:href="#m783e5f37b4" y="307.584"/>
      </g>
     </g>
     <g id="text_5">
      <!-- 10.0 -->
      <defs>
       <path d="M 12.40625 8.296875 
L 28.515625 8.296875 
L 28.515625 63.921875 
L 10.984375 60.40625 
L 10.984375 69.390625 
L 28.421875 72.90625 
L 38.28125 72.90625 
L 38.28125 8.296875 
L 54.390625 8.296875 
L 54.390625 0 
L 12.40625 0 
z
" id="DejaVuSans-49"/>
      </defs>
      <g transform="translate(229.822061 322.182437)scale(0.1 -0.1)">
       <use xlink:href="#DejaVuSans-49"/>
       <use x="63.623047" xlink:href="#DejaVuSans-48"/>
       <use x="127.246094" xlink:href="#DejaVuSans-46"/>
       <use x="159.033203" xlink:href="#DejaVuSans-48"/>
      </g>
     </g>
    </g>
    <g id="xtick_6">
     <g id="line2d_11">
      <path clip-path="url(#pcfb3a48abc)" d="M 286.793591 307.584 
L 286.793591 41.472 
" style="fill:none;stroke:#b0b0b0;stroke-linecap:square;stroke-width:0.8;"/>
     </g>
     <g id="line2d_12">
      <g>
       <use style="stroke:#000000;stroke-width:0.8;" x="286.793591" xlink:href="#m783e5f37b4" y="307.584"/>
      </g>
     </g>
     <g id="text_6">
      <!-- 12.5 -->
      <g transform="translate(275.660779 322.182437)scale(0.1 -0.1)">
       <use xlink:href="#DejaVuSans-49"/>
       <use x="63.623047" xlink:href="#DejaVuSans-50"/>
       <use x="127.246094" xlink:href="#DejaVuSans-46"/>
       <use x="159.033203" xlink:href="#DejaVuSans-53"/>
      </g>
     </g>
    </g>
    <g id="xtick_7">
     <g id="line2d_13">
      <path clip-path="url(#pcfb3a48abc)" d="M 332.63231 307.584 
L 332.63231 41.472 
" style="fill:none;stroke:#b0b0b0;stroke-linecap:square;stroke-width:0.8;"/>
     </g>
     <g id="line2d_14">
      <g>
       <use style="stroke:#000000;stroke-width:0.8;" x="332.63231" xlink:href="#m783e5f37b4" y="307.584"/>
      </g>
     </g>
     <g id="text_7">
      <!-- 15.0 -->
      <g transform="translate(321.499497 322.182437)scale(0.1 -0.1)">
       <use xlink:href="#DejaVuSans-49"/>
       <use x="63.623047" xlink:href="#DejaVuSans-53"/>
       <use x="127.246094" xlink:href="#DejaVuSans-46"/>
       <use x="159.033203" xlink:href="#DejaVuSans-48"/>
      </g>
     </g>
    </g>
    <g id="xtick_8">
     <g id="line2d_15">
      <path clip-path="url(#pcfb3a48abc)" d="M 378.471028 307.584 
L 378.471028 41.472 
" style="fill:none;stroke:#b0b0b0;stroke-linecap:square;stroke-width:0.8;"/>
     </g>
     <g id="line2d_16">
      <g>
       <use style="stroke:#000000;stroke-width:0.8;" x="378.471028" xlink:href="#m783e5f37b4" y="307.584"/>
      </g>
     </g>
     <g id="text_8">
      <!-- 17.5 -->
      <g transform="translate(367.338215 322.182437)scale(0.1 -0.1)">
       <use xlink:href="#DejaVuSans-49"/>
       <use x="63.623047" xlink:href="#DejaVuSans-55"/>
       <use x="127.246094" xlink:href="#DejaVuSans-46"/>
       <use x="159.033203" xlink:href="#DejaVuSans-53"/>
      </g>
     </g>
    </g>
    <g id="text_9">
     <!-- Hours -->
     <defs>
      <path d="M 9.8125 72.90625 
L 19.671875 72.90625 
L 19.671875 43.015625 
L 55.515625 43.015625 
L 55.515625 72.90625 
L 65.375 72.90625 
L 65.375 0 
L 55.515625 0 
L 55.515625 34.71875 
L 19.671875 34.71875 
L 19.671875 0 
L 9.8125 0 
z
" id="DejaVuSans-72"/>
      <path d="M 30.609375 48.390625 
Q 23.390625 48.390625 19.1875 42.75 
Q 14.984375 37.109375 14.984375 27.296875 
Q 14.984375 17.484375 19.15625 11.84375 
Q 23.34375 6.203125 30.609375 6.203125 
Q 37.796875 6.203125 41.984375 11.859375 
Q 46.1875 17.53125 46.1875 27.296875 
Q 46.1875 37.015625 41.984375 42.703125 
Q 37.796875 48.390625 30.609375 48.390625 
z
M 30.609375 56 
Q 42.328125 56 49.015625 48.375 
Q 55.71875 40.765625 55.71875 27.296875 
Q 55.71875 13.875 49.015625 6.21875 
Q 42.328125 -1.421875 30.609375 -1.421875 
Q 18.84375 -1.421875 12.171875 6.21875 
Q 5.515625 13.875 5.515625 27.296875 
Q 5.515625 40.765625 12.171875 48.375 
Q 18.84375 56 30.609375 56 
z
" id="DejaVuSans-111"/>
      <path d="M 8.5 21.578125 
L 8.5 54.6875 
L 17.484375 54.6875 
L 17.484375 21.921875 
Q 17.484375 14.15625 20.5 10.265625 
Q 23.53125 6.390625 29.59375 6.390625 
Q 36.859375 6.390625 41.078125 11.03125 
Q 45.3125 15.671875 45.3125 23.6875 
L 45.3125 54.6875 
L 54.296875 54.6875 
L 54.296875 0 
L 45.3125 0 
L 45.3125 8.40625 
Q 42.046875 3.421875 37.71875 1 
Q 33.40625 -1.421875 27.6875 -1.421875 
Q 18.265625 -1.421875 13.375 4.4375 
Q 8.5 10.296875 8.5 21.578125 
z
M 31.109375 56 
z
" id="DejaVuSans-117"/>
      <path d="M 41.109375 46.296875 
Q 39.59375 47.171875 37.8125 47.578125 
Q 36.03125 48 33.890625 48 
Q 26.265625 48 22.1875 43.046875 
Q 18.109375 38.09375 18.109375 28.8125 
L 18.109375 0 
L 9.078125 0 
L 9.078125 54.6875 
L 18.109375 54.6875 
L 18.109375 46.1875 
Q 20.953125 51.171875 25.484375 53.578125 
Q 30.03125 56 36.53125 56 
Q 37.453125 56 38.578125 55.875 
Q 39.703125 55.765625 41.0625 55.515625 
z
" id="DejaVuSans-114"/>
      <path d="M 44.28125 53.078125 
L 44.28125 44.578125 
Q 40.484375 46.53125 36.375 47.5 
Q 32.28125 48.484375 27.875 48.484375 
Q 21.1875 48.484375 17.84375 46.4375 
Q 14.5 44.390625 14.5 40.28125 
Q 14.5 37.15625 16.890625 35.375 
Q 19.28125 33.59375 26.515625 31.984375 
L 29.59375 31.296875 
Q 39.15625 29.25 43.1875 25.515625 
Q 47.21875 21.78125 47.21875 15.09375 
Q 47.21875 7.46875 41.1875 3.015625 
Q 35.15625 -1.421875 24.609375 -1.421875 
Q 20.21875 -1.421875 15.453125 -0.5625 
Q 10.6875 0.296875 5.421875 2 
L 5.421875 11.28125 
Q 10.40625 8.6875 15.234375 7.390625 
Q 20.0625 6.109375 24.8125 6.109375 
Q 31.15625 6.109375 34.5625 8.28125 
Q 37.984375 10.453125 37.984375 14.40625 
Q 37.984375 18.0625 35.515625 20.015625 
Q 33.0625 21.96875 24.703125 23.78125 
L 21.578125 24.515625 
Q 13.234375 26.265625 9.515625 29.90625 
Q 5.8125 33.546875 5.8125 39.890625 
Q 5.8125 47.609375 11.28125 51.796875 
Q 16.75 56 26.8125 56 
Q 31.78125 56 36.171875 55.265625 
Q 40.578125 54.546875 44.28125 53.078125 
z
" id="DejaVuSans-115"/>
     </defs>
     <g transform="translate(221.511562 335.860562)scale(0.1 -0.1)">
      <use xlink:href="#DejaVuSans-72"/>
      <use x="75.195312" xlink:href="#DejaVuSans-111"/>
      <use x="136.376953" xlink:href="#DejaVuSans-117"/>
      <use x="199.755859" xlink:href="#DejaVuSans-114"/>
      <use x="240.869141" xlink:href="#DejaVuSans-115"/>
     </g>
    </g>
   </g>
   <g id="matplotlib.axis_2">
    <g id="ytick_1">
     <g id="line2d_17">
      <path clip-path="url(#pcfb3a48abc)" d="M 57.6 297.138772 
L 414.72 297.138772 
" style="fill:none;stroke:#b0b0b0;stroke-linecap:square;stroke-width:0.8;"/>
     </g>
     <g id="line2d_18">
      <defs>
       <path d="M 0 0 
L -3.5 0 
" id="m6e24c0d970" style="stroke:#000000;stroke-width:0.8;"/>
      </defs>
      <g>
       <use style="stroke:#000000;stroke-width:0.8;" x="57.6" xlink:href="#m6e24c0d970" y="297.138772"/>
      </g>
     </g>
     <g id="text_10">
      <!-- 0 -->
      <g transform="translate(44.2375 300.93799)scale(0.1 -0.1)">
       <use xlink:href="#DejaVuSans-48"/>
      </g>
     </g>
    </g>
    <g id="ytick_2">
     <g id="line2d_19">
      <path clip-path="url(#pcfb3a48abc)" d="M 57.6 266.897922 
L 414.72 266.897922 
" style="fill:none;stroke:#b0b0b0;stroke-linecap:square;stroke-width:0.8;"/>
     </g>
     <g id="line2d_20">
      <g>
       <use style="stroke:#000000;stroke-width:0.8;" x="57.6" xlink:href="#m6e24c0d970" y="266.897922"/>
      </g>
     </g>
     <g id="text_11">
      <!-- 25 -->
      <g transform="translate(37.875 270.697141)scale(0.1 -0.1)">
       <use xlink:href="#DejaVuSans-50"/>
       <use x="63.623047" xlink:href="#DejaVuSans-53"/>
      </g>
     </g>
    </g>
    <g id="ytick_3">
     <g id="line2d_21">
      <path clip-path="url(#pcfb3a48abc)" d="M 57.6 236.657073 
L 414.72 236.657073 
" style="fill:none;stroke:#b0b0b0;stroke-linecap:square;stroke-width:0.8;"/>
     </g>
     <g id="line2d_22">
      <g>
       <use style="stroke:#000000;stroke-width:0.8;" x="57.6" xlink:href="#m6e24c0d970" y="236.657073"/>
      </g>
     </g>
     <g id="text_12">
      <!-- 50 -->
      <g transform="translate(37.875 240.456292)scale(0.1 -0.1)">
       <use xlink:href="#DejaVuSans-53"/>
       <use x="63.623047" xlink:href="#DejaVuSans-48"/>
      </g>
     </g>
    </g>
    <g id="ytick_4">
     <g id="line2d_23">
      <path clip-path="url(#pcfb3a48abc)" d="M 57.6 206.416224 
L 414.72 206.416224 
" style="fill:none;stroke:#b0b0b0;stroke-linecap:square;stroke-width:0.8;"/>
     </g>
     <g id="line2d_24">
      <g>
       <use style="stroke:#000000;stroke-width:0.8;" x="57.6" xlink:href="#m6e24c0d970" y="206.416224"/>
      </g>
     </g>
     <g id="text_13">
      <!-- 75 -->
      <g transform="translate(37.875 210.215442)scale(0.1 -0.1)">
       <use xlink:href="#DejaVuSans-55"/>
       <use x="63.623047" xlink:href="#DejaVuSans-53"/>
      </g>
     </g>
    </g>
    <g id="ytick_5">
     <g id="line2d_25">
      <path clip-path="url(#pcfb3a48abc)" d="M 57.6 176.175374 
L 414.72 176.175374 
" style="fill:none;stroke:#b0b0b0;stroke-linecap:square;stroke-width:0.8;"/>
     </g>
     <g id="line2d_26">
      <g>
       <use style="stroke:#000000;stroke-width:0.8;" x="57.6" xlink:href="#m6e24c0d970" y="176.175374"/>
      </g>
     </g>
     <g id="text_14">
      <!-- 100 -->
      <g transform="translate(31.5125 179.974593)scale(0.1 -0.1)">
       <use xlink:href="#DejaVuSans-49"/>
       <use x="63.623047" xlink:href="#DejaVuSans-48"/>
       <use x="127.246094" xlink:href="#DejaVuSans-48"/>
      </g>
     </g>
    </g>
    <g id="ytick_6">
     <g id="line2d_27">
      <path clip-path="url(#pcfb3a48abc)" d="M 57.6 145.934525 
L 414.72 145.934525 
" style="fill:none;stroke:#b0b0b0;stroke-linecap:square;stroke-width:0.8;"/>
     </g>
     <g id="line2d_28">
      <g>
       <use style="stroke:#000000;stroke-width:0.8;" x="57.6" xlink:href="#m6e24c0d970" y="145.934525"/>
      </g>
     </g>
     <g id="text_15">
      <!-- 125 -->
      <g transform="translate(31.5125 149.733744)scale(0.1 -0.1)">
       <use xlink:href="#DejaVuSans-49"/>
       <use x="63.623047" xlink:href="#DejaVuSans-50"/>
       <use x="127.246094" xlink:href="#DejaVuSans-53"/>
      </g>
     </g>
    </g>
    <g id="ytick_7">
     <g id="line2d_29">
      <path clip-path="url(#pcfb3a48abc)" d="M 57.6 115.693676 
L 414.72 115.693676 
" style="fill:none;stroke:#b0b0b0;stroke-linecap:square;stroke-width:0.8;"/>
     </g>
     <g id="line2d_30">
      <g>
       <use style="stroke:#000000;stroke-width:0.8;" x="57.6" xlink:href="#m6e24c0d970" y="115.693676"/>
      </g>
     </g>
     <g id="text_16">
      <!-- 150 -->
      <g transform="translate(31.5125 119.492894)scale(0.1 -0.1)">
       <use xlink:href="#DejaVuSans-49"/>
       <use x="63.623047" xlink:href="#DejaVuSans-53"/>
       <use x="127.246094" xlink:href="#DejaVuSans-48"/>
      </g>
     </g>
    </g>
    <g id="ytick_8">
     <g id="line2d_31">
      <path clip-path="url(#pcfb3a48abc)" d="M 57.6 85.452826 
L 414.72 85.452826 
" style="fill:none;stroke:#b0b0b0;stroke-linecap:square;stroke-width:0.8;"/>
     </g>
     <g id="line2d_32">
      <g>
       <use style="stroke:#000000;stroke-width:0.8;" x="57.6" xlink:href="#m6e24c0d970" y="85.452826"/>
      </g>
     </g>
     <g id="text_17">
      <!-- 175 -->
      <g transform="translate(31.5125 89.252045)scale(0.1 -0.1)">
       <use xlink:href="#DejaVuSans-49"/>
       <use x="63.623047" xlink:href="#DejaVuSans-55"/>
       <use x="127.246094" xlink:href="#DejaVuSans-53"/>
      </g>
     </g>
    </g>
    <g id="ytick_9">
     <g id="line2d_33">
      <path clip-path="url(#pcfb3a48abc)" d="M 57.6 55.211977 
L 414.72 55.211977 
" style="fill:none;stroke:#b0b0b0;stroke-linecap:square;stroke-width:0.8;"/>
     </g>
     <g id="line2d_34">
      <g>
       <use style="stroke:#000000;stroke-width:0.8;" x="57.6" xlink:href="#m6e24c0d970" y="55.211977"/>
      </g>
     </g>
     <g id="text_18">
      <!-- 200 -->
      <g transform="translate(31.5125 59.011196)scale(0.1 -0.1)">
       <use xlink:href="#DejaVuSans-50"/>
       <use x="63.623047" xlink:href="#DejaVuSans-48"/>
       <use x="127.246094" xlink:href="#DejaVuSans-48"/>
      </g>
     </g>
    </g>
    <g id="text_19">
     <!-- Value loss -->
     <defs>
      <path d="M 28.609375 0 
L 0.78125 72.90625 
L 11.078125 72.90625 
L 34.1875 11.53125 
L 57.328125 72.90625 
L 67.578125 72.90625 
L 39.796875 0 
z
" id="DejaVuSans-86"/>
      <path d="M 34.28125 27.484375 
Q 23.390625 27.484375 19.1875 25 
Q 14.984375 22.515625 14.984375 16.5 
Q 14.984375 11.71875 18.140625 8.90625 
Q 21.296875 6.109375 26.703125 6.109375 
Q 34.1875 6.109375 38.703125 11.40625 
Q 43.21875 16.703125 43.21875 25.484375 
L 43.21875 27.484375 
z
M 52.203125 31.203125 
L 52.203125 0 
L 43.21875 0 
L 43.21875 8.296875 
Q 40.140625 3.328125 35.546875 0.953125 
Q 30.953125 -1.421875 24.3125 -1.421875 
Q 15.921875 -1.421875 10.953125 3.296875 
Q 6 8.015625 6 15.921875 
Q 6 25.140625 12.171875 29.828125 
Q 18.359375 34.515625 30.609375 34.515625 
L 43.21875 34.515625 
L 43.21875 35.40625 
Q 43.21875 41.609375 39.140625 45 
Q 35.0625 48.390625 27.6875 48.390625 
Q 23 48.390625 18.546875 47.265625 
Q 14.109375 46.140625 10.015625 43.890625 
L 10.015625 52.203125 
Q 14.9375 54.109375 19.578125 55.046875 
Q 24.21875 56 28.609375 56 
Q 40.484375 56 46.34375 49.84375 
Q 52.203125 43.703125 52.203125 31.203125 
z
" id="DejaVuSans-97"/>
      <path d="M 9.421875 75.984375 
L 18.40625 75.984375 
L 18.40625 0 
L 9.421875 0 
z
" id="DejaVuSans-108"/>
      <path d="M 56.203125 29.59375 
L 56.203125 25.203125 
L 14.890625 25.203125 
Q 15.484375 15.921875 20.484375 11.0625 
Q 25.484375 6.203125 34.421875 6.203125 
Q 39.59375 6.203125 44.453125 7.46875 
Q 49.3125 8.734375 54.109375 11.28125 
L 54.109375 2.78125 
Q 49.265625 0.734375 44.1875 -0.34375 
Q 39.109375 -1.421875 33.890625 -1.421875 
Q 20.796875 -1.421875 13.15625 6.1875 
Q 5.515625 13.8125 5.515625 26.8125 
Q 5.515625 40.234375 12.765625 48.109375 
Q 20.015625 56 32.328125 56 
Q 43.359375 56 49.78125 48.890625 
Q 56.203125 41.796875 56.203125 29.59375 
z
M 47.21875 32.234375 
Q 47.125 39.59375 43.09375 43.984375 
Q 39.0625 48.390625 32.421875 48.390625 
Q 24.90625 48.390625 20.390625 44.140625 
Q 15.875 39.890625 15.1875 32.171875 
z
" id="DejaVuSans-101"/>
      <path id="DejaVuSans-32"/>
     </defs>
     <g transform="translate(25.432812 199.888156)rotate(-90)scale(0.1 -0.1)">
      <use xlink:href="#DejaVuSans-86"/>
      <use x="68.298828" xlink:href="#DejaVuSans-97"/>
      <use x="129.578125" xlink:href="#DejaVuSans-108"/>
      <use x="157.361328" xlink:href="#DejaVuSans-117"/>
      <use x="220.740234" xlink:href="#DejaVuSans-101"/>
      <use x="282.263672" xlink:href="#DejaVuSans-32"/>
      <use x="314.050781" xlink:href="#DejaVuSans-108"/>
      <use x="341.833984" xlink:href="#DejaVuSans-111"/>
      <use x="403.015625" xlink:href="#DejaVuSans-115"/>
      <use x="455.115234" xlink:href="#DejaVuSans-115"/>
     </g>
    </g>
   </g>
   <g id="line2d_35">
    <path clip-path="url(#pcfb3a48abc)" d="M 57.6 295.488 
L 57.949064 293.803072 
L 57.986779 294.381942 
L 58.358742 291.880937 
L 58.691865 275.745392 
L 59.577335 291.410826 
L 59.688589 289.601448 
L 60.543504 278.156513 
L 60.60528 272.410814 
L 61.132098 293.515895 
L 61.609392 292.965015 
L 61.63408 289.74058 
L 61.777359 293.77949 
L 63.178087 289.185355 
L 63.703335 289.890237 
L 63.920668 264.674925 
L 64.772262 292.249858 
L 65.148771 293.539893 
L 65.344993 262.364061 
L 65.43047 290.582566 
L 65.442679 286.486645 
L 66.110389 263.555738 
L 66.269871 286.458638 
L 66.486756 286.811251 
L 66.609075 288.805242 
L 67.18262 258.563709 
L 67.325522 286.987249 
L 67.89756 285.75124 
L 67.971058 286.756207 
L 68.18692 286.209414 
L 68.211278 281.994337 
L 68.395015 281.102001 
L 68.468579 291.688396 
L 68.855969 287.108464 
L 70.365744 286.194091 
L 70.729196 288.480745 
L 70.7415 280.37257 
L 70.81488 291.420321 
L 71.190449 284.277886 
L 71.300573 239.702836 
L 71.991052 292.260059 
L 72.027843 287.591883 
L 72.403438 291.856779 
L 72.538299 252.48385 
L 73.328939 287.25514 
L 73.561404 278.438281 
L 74.68716 285.570131 
L 75.450481 288.369117 
L 75.487185 229.194104 
L 75.657928 291.484397 
L 75.706767 279.160324 
L 76.383384 278.791354 
L 76.468734 276.117974 
L 76.783075 237.204561 
L 77.052208 283.906048 
L 77.464093 276.364913 
L 77.643513 275.820288 
L 77.814972 278.192083 
L 78.251304 292.398633 
L 78.650683 271.949477 
L 78.89153 289.376698 
L 79.087352 233.678085 
L 79.136281 282.820284 
L 79.389402 276.977401 
L 79.862813 274.333502 
L 80.575875 275.639169 
L 80.796472 240.070866 
L 80.951666 281.553742 
L 81.12288 283.301026 
L 81.147371 233.006687 
L 81.183797 279.068329 
L 81.811592 278.376418 
L 82.407719 277.261647 
L 82.67234 242.50855 
L 82.782448 283.030783 
L 82.941457 271.508466 
L 82.97807 235.206997 
L 83.120236 274.605241 
L 83.653337 273.330623 
L 83.861025 236.762203 
L 84.06393 276.942516 
L 84.813649 276.736848 
L 85.28603 275.37742 
L 85.831254 281.525385 
L 85.977803 243.482689 
L 86.10734 272.693035 
L 87.350649 277.131081 
L 87.497175 237.076872 
L 87.643935 281.707413 
L 87.932231 279.038144 
L 88.005629 268.238826 
L 88.294302 273.833508 
L 88.355491 269.230202 
L 88.949117 252.940453 
L 89.140001 255.560446 
L 89.611137 237.109961 
L 90.082236 246.270988 
L 90.118775 254.323075 
L 90.699368 282.862954 
L 90.95049 279.71264 
L 90.974898 254.812394 
L 91.03583 261.288952 
L 91.385001 262.803542 
L 91.397132 278.047817 
L 91.519225 276.74515 
L 91.543632 280.465486 
L 91.648872 279.489332 
L 92.046909 258.272202 
L 92.23048 267.586084 
L 92.303621 282.054789 
L 94.089764 257.536982 
L 94.848493 254.650609 
L 95.063159 256.223211 
L 95.53406 241.933948 
L 96.97349 288.68892 
L 97.92856 229.754766 
L 98.553612 292.004208 
L 98.927171 284.430903 
L 98.963687 288.360287 
L 99.758803 258.991541 
L 100.601549 290.460401 
L 101.07261 288.76454 
L 101.702285 251.95361 
L 101.726591 288.160276 
L 101.738785 248.841871 
L 102.532918 256.39847 
L 103.528749 291.453124 
L 103.962577 279.182491 
L 104.231105 266.384242 
L 104.507128 247.514611 
L 104.690212 243.603678 
L 104.929061 241.129171 
L 106.568687 251.746932 
L 106.788458 280.250507 
L 106.812897 252.294341 
L 107.340633 290.298535 
L 107.5114 248.46955 
L 108.282416 289.858299 
L 108.465249 288.722748 
L 109.185777 277.740187 
L 109.485563 257.326557 
L 109.546424 263.391805 
L 109.570972 290.429119 
L 110.137788 265.071474 
L 111.003251 279.316525 
L 111.388059 288.93602 
L 111.772323 254.788764 
L 112.455544 279.427582 
L 112.492126 291.420391 
L 113.272228 266.936169 
L 113.333063 275.122154 
L 113.467298 273.646584 
L 114.442958 238.747737 
L 114.632501 247.682607 
L 114.656828 289.872973 
L 114.729965 223.668426 
L 115.077925 255.667145 
L 115.175215 239.850617 
L 115.558986 266.546431 
L 115.595518 287.402885 
L 116.303402 247.203855 
L 116.327763 249.581917 
L 117.400111 247.561018 
L 117.845547 273.497186 
L 118.650699 236.010519 
L 118.901168 261.874781 
L 119.156597 242.802676 
L 119.864811 288.34067 
L 121.006775 267.071991 
L 121.152555 287.12088 
L 121.647097 272.474943 
L 122.185957 240.699724 
L 122.283017 278.143596 
L 122.691854 280.446841 
L 122.862624 224.531354 
L 123.372414 242.538271 
L 123.561804 239.261706 
L 124.116068 266.215604 
L 125.030631 228.341504 
L 125.183398 289.563739 
L 125.219951 256.740954 
L 126.230032 224.282846 
L 126.254247 228.76343 
L 126.997116 289.881777 
L 127.380051 256.358468 
L 128.268271 233.280883 
L 128.785131 252.957826 
L 130.007144 259.222586 
L 130.244465 241.578446 
L 130.415027 254.879091 
L 131.55248 220.93382 
L 132.526381 241.056896 
L 132.550673 232.877087 
L 132.983172 257.471573 
L 133.487816 241.038332 
L 134.504666 222.35381 
L 134.553129 240.856189 
L 134.735292 249.807343 
L 135.320803 249.90784 
L 135.357253 273.075434 
L 136.045005 286.828178 
L 136.726089 257.310836 
L 136.762476 273.461965 
L 137.218932 220.147464 
L 137.328125 287.192578 
L 137.851495 222.324892 
L 138.106408 257.268083 
L 138.440398 222.001008 
L 138.573872 270.415255 
L 139.229929 218.722352 
L 139.290447 232.294867 
L 140.707685 288.527964 
L 141.523205 290.0002 
L 141.796758 233.035877 
L 141.954905 258.084156 
L 142.070995 245.889023 
L 142.228778 211.737674 
L 143.007857 241.72009 
L 143.329911 229.636389 
L 143.390672 217.663775 
L 143.682401 290.515446 
L 143.993694 268.846564 
L 144.195011 289.811721 
L 144.486667 228.917933 
L 145.780381 287.642859 
L 145.871676 234.401976 
L 146.114293 207.410172 
L 146.854963 256.783116 
L 146.976317 245.38563 
L 147.249446 274.856638 
L 147.991187 124.391814 
L 148.100283 289.941435 
L 148.282314 288.448428 
L 148.507638 288.808739 
L 148.543906 240.396559 
L 148.689384 287.841883 
L 149.059764 271.610114 
L 149.108277 203.045469 
L 149.284892 257.768897 
L 150.542707 288.060651 
L 150.639712 246.395124 
L 150.821407 248.032816 
L 151.696555 247.18418 
L 152.128642 286.471725 
L 152.487342 197.743012 
L 152.797367 261.095434 
L 154.043406 287.359713 
L 154.140315 229.248706 
L 154.680775 218.247605 
L 155.505704 286.9253 
L 155.925059 209.410915 
L 156.653121 200.031536 
L 156.786362 287.618708 
L 157.047677 235.325679 
L 157.180571 233.430726 
L 157.454138 234.304372 
L 157.775403 230.29662 
L 158.005721 279.02214 
L 158.564199 213.595906 
L 158.600543 251.828399 
L 158.806429 209.983883 
L 158.842717 265.208321 
L 159.067292 255.657348 
L 159.509904 268.849898 
L 160.825785 246.964775 
L 161.292802 252.503082 
L 161.541395 282.010634 
L 161.723025 278.49882 
L 161.898985 204.609313 
L 161.971546 255.523877 
L 162.868792 239.236225 
L 163.110733 191.003081 
L 163.250301 261.908927 
L 163.371459 250.39206 
L 163.837083 250.574412 
L 164.73376 208.131899 
L 165.164331 220.055282 
L 165.965263 268.009618 
L 166.432876 282.426325 
L 166.609604 221.194044 
L 166.754858 250.20814 
L 167.003462 270.855842 
L 168.514455 207.545826 
L 168.562965 241.169925 
L 168.98203 228.272902 
L 169.097849 272.444501 
L 169.843794 240.473218 
L 170.019795 206.659356 
L 170.595068 251.705204 
L 170.667727 191.811568 
L 170.989488 276.040214 
L 171.050088 270.484792 
L 171.202438 186.057408 
L 172.376874 164.957623 
L 172.455714 203.318595 
L 172.79487 279.179396 
L 172.958769 270.425705 
L 173.746806 280.253868 
L 174.061091 186.196227 
L 174.213106 274.794925 
L 174.655233 232.396932 
L 174.667301 182.603327 
L 174.776125 240.599209 
L 175.418091 199.147207 
L 175.478537 224.202168 
L 177.148864 235.478485 
L 177.185155 179.593648 
L 177.481739 272.684872 
L 177.947764 268.130229 
L 178.032389 212.720926 
L 178.237814 180.669022 
L 178.262018 229.385892 
L 178.341104 188.889664 
L 178.594889 273.556403 
L 178.679425 216.524436 
L 178.999804 245.798354 
L 179.248208 203.442205 
L 179.465791 258.899235 
L 179.538324 228.116479 
L 179.701706 224.02013 
L 180.300492 198.773312 
L 180.440084 251.846187 
L 182.626639 269.284421 
L 182.711365 247.375967 
L 183.081717 223.055354 
L 183.693337 202.968289 
L 183.845296 268.618454 
L 184.275488 259.808421 
L 184.52979 232.23829 
L 185.135684 193.325428 
L 185.171928 195.287678 
L 185.413859 213.31872 
L 185.541377 188.382727 
L 185.898581 255.061797 
L 186.830666 260.981449 
L 186.93954 222.748723 
L 187.024159 231.767604 
L 187.22436 197.354351 
L 187.490198 218.504581 
L 188.035699 208.127728 
L 188.325822 273.805944 
L 188.441151 202.028264 
L 188.979147 257.375774 
L 189.911239 254.297618 
L 190.529486 221.243898 
L 190.868609 209.263965 
L 190.947506 240.866862 
L 191.474362 254.581001 
L 192.681446 185.672181 
L 193.711495 222.98276 
L 193.77196 206.732051 
L 193.808275 249.856118 
L 194.16553 208.108735 
L 194.486259 199.373552 
L 194.782783 265.254261 
L 194.976193 224.194803 
L 195.309292 257.191623 
L 195.514894 211.28168 
L 196.502534 269.013801 
L 196.744613 264.081801 
L 196.872152 265.797924 
L 198.369406 268.091173 
L 198.406473 196.42912 
L 198.763854 218.345033 
L 199.501163 193.150469 
L 199.621686 199.676523 
L 199.669969 277.743258 
L 200.063011 166.727278 
L 200.493938 207.91638 
L 200.506016 195.19276 
L 201.110544 274.433928 
L 201.219256 175.90882 
L 201.424554 192.782601 
L 201.636578 263.239313 
L 201.830061 211.421653 
L 202.079085 267.116356 
L 202.607802 275.52568 
L 203.098093 272.088806 
L 203.249819 196.892506 
L 203.26191 273.501898 
L 203.655638 184.39106 
L 204.036638 197.137937 
L 204.157306 218.107273 
L 204.217683 203.401081 
L 204.350601 267.928509 
L 204.502592 206.478361 
L 204.671663 210.211927 
L 205.174013 157.914425 
L 205.210251 206.05237 
L 205.70667 202.05237 
L 205.755029 268.024516 
L 206.032901 264.281671 
L 206.1481 175.892272 
L 206.172354 198.008081 
L 206.698479 209.190569 
L 206.770991 215.525514 
L 206.970865 267.3875 
L 207.031397 265.749653 
L 207.890168 154.262212 
L 208.119618 275.633283 
L 208.271498 198.655369 
L 208.857695 200.715785 
L 209.178233 265.798051 
L 209.202245 209.962408 
L 209.214272 274.124849 
L 210.011987 208.030973 
L 210.156931 147.782947 
L 211.358437 267.375742 
L 212.145626 208.964307 
L 213.11345 172.20941 
L 213.53035 274.211039 
L 213.681754 150.913827 
L 213.886899 179.270585 
L 213.983522 156.785525 
L 214.13467 272.081213 
L 214.551719 157.112196 
L 215.064558 262.293133 
L 215.209644 261.683692 
L 215.396981 227.02399 
L 215.529753 261.696107 
L 215.765205 153.694596 
L 216.24224 268.449003 
L 216.71871 173.433579 
L 217.087307 266.654645 
L 217.673298 260.003545 
L 218.22342 274.391067 
L 219.033862 267.402088 
L 219.233732 267.412946 
L 219.257909 277.184617 
L 219.554417 185.370704 
L 219.614758 192.988236 
L 219.783816 269.174442 
L 220.007846 265.17731 
L 220.092354 202.837951 
L 220.321752 185.23314 
L 220.509898 260.135464 
L 221.810201 260.679855 
L 221.991345 275.068994 
L 222.166928 198.648687 
L 222.215301 269.620132 
L 222.408737 194.047192 
L 222.850115 153.083845 
L 223.001597 277.987681 
L 223.861379 211.629402 
L 223.897684 267.70048 
L 224.091321 200.401065 
L 225.271633 259.547469 
L 225.380449 217.985923 
L 225.798005 264.84042 
L 226.106547 269.720656 
L 226.414968 184.964527 
L 227.381654 256.689347 
L 228.380054 209.306399 
L 228.97787 259.547395 
L 229.358622 195.497134 
L 230.156034 257.729195 
L 230.349215 203.488321 
L 230.766096 193.261224 
L 231.159293 205.110454 
L 231.503616 160.226307 
L 231.564078 175.120636 
L 231.763806 142.124868 
L 231.993391 266.556135 
L 232.839024 169.215245 
L 233.624751 131.147924 
L 233.872856 174.036984 
L 234.198361 259.892018 
L 234.253093 127.865599 
L 234.349621 192.812917 
L 234.494468 141.533267 
L 234.682194 173.295295 
L 234.863281 167.967837 
L 234.911489 263.924859 
L 235.159515 181.2548 
L 235.637013 264.185327 
L 235.818234 268.054992 
L 235.981363 264.761809 
L 236.017593 197.999803 
L 236.162578 274.472356 
L 236.17464 125.428907 
L 236.222857 254.277074 
L 236.603513 179.394196 
L 237.625033 261.328957 
L 238.102364 173.794692 
L 238.784384 116.530596 
L 238.875451 258.69915 
L 239.117054 259.880367 
L 239.794459 162.263855 
L 240.187983 168.210859 
L 240.738184 258.213244 
L 241.439536 114.106566 
L 241.620675 116.102049 
L 241.832184 258.531443 
L 242.514869 173.671571 
L 242.551064 125.957956 
L 243.119571 119.379519 
L 243.42143 138.623563 
L 243.548699 157.049523 
L 243.814145 266.301432 
L 244.266625 183.466752 
L 244.774398 194.061128 
L 245.051998 270.524937 
L 245.287744 199.845899 
L 246.013329 133.20607 
L 246.254522 122.968553 
L 246.290644 173.889075 
L 246.454312 182.270103 
L 246.526882 272.433551 
L 246.768619 264.928181 
L 246.792762 260.661384 
L 247.910824 191.296242 
L 249.017143 257.344484 
L 249.826831 256.782442 
L 249.898965 125.583028 
L 250.218811 176.006635 
L 250.70805 108.339136 
L 250.720095 263.692778 
L 250.792493 169.621929 
L 250.901161 259.970506 
L 251.293847 153.164726 
L 251.366338 253.288359 
L 252.165459 150.063313 
L 252.854745 105.844155 
L 253.465533 194.401309 
L 253.942893 194.834065 
L 254.275477 161.970352 
L 254.311729 129.957578 
L 255.344852 119.483675 
L 255.417203 254.406766 
L 255.821851 253.341374 
L 255.930543 134.509653 
L 255.978866 253.822543 
L 256.094154 129.552988 
L 256.848367 277.467694 
L 257.301558 162.881776 
L 257.440449 254.597368 
L 257.488915 149.844665 
L 257.694124 164.519939 
L 258.225089 251.756608 
L 258.550581 252.576073 
L 258.822124 131.044488 
L 259.262353 174.400838 
L 259.27443 254.734037 
L 259.606839 162.934353 
L 260.620936 145.79649 
L 261.46673 174.291781 
L 262.05945 129.196591 
L 262.107672 256.496373 
L 262.68081 184.778798 
L 262.952548 180.537539 
L 263.930699 263.100688 
L 264.6319 171.467721 
L 264.837118 261.402265 
L 264.952009 121.07826 
L 265.942979 127.612565 
L 266.015445 258.862373 
L 266.39619 262.648563 
L 266.644572 270.8975 
L 266.668785 177.653436 
L 267.097723 116.48628 
L 267.515127 263.69697 
L 268.312909 120.971963 
L 270.208624 206.873713 
L 270.540877 160.165259 
L 270.649472 253.476764 
L 270.721781 163.935795 
L 271.362145 172.159482 
L 271.398292 251.92938 
L 271.670391 122.656196 
L 271.899491 254.499479 
L 273.43177 176.895523 
L 273.528037 131.757097 
L 273.600307 259.824976 
L 274.444319 257.47125 
L 274.999851 187.975627 
L 275.25301 261.355141 
L 276.049543 207.964683 
L 276.249067 251.78286 
L 276.369673 251.704194 
L 276.41784 117.318992 
L 277.026703 177.619428 
L 278.022773 260.842379 
L 278.330873 256.289893 
L 278.535751 163.164371 
L 279.175677 256.000862 
L 279.627433 174.149271 
L 280.496294 177.242581 
L 281.18974 161.660616 
L 281.545944 175.045938 
L 281.606301 197.492441 
L 282.590055 269.652176 
L 282.638326 168.590817 
L 283.067049 123.596589 
L 283.700162 253.953172 
L 284.412089 255.857068 
L 284.532649 260.745041 
L 284.544737 192.847267 
L 284.888145 158.304369 
L 285.039192 251.919053 
L 285.208032 111.006787 
L 285.756864 165.830112 
L 286.101046 157.228054 
L 288.026338 254.19007 
L 288.442666 99.574015 
L 288.895702 256.600451 
L 289.172802 175.703969 
L 289.716655 136.135523 
L 289.837195 99.918193 
L 290.326416 156.522957 
L 290.422742 128.129118 
L 290.634325 256.335511 
L 290.766653 114.695639 
L 291.026414 163.407355 
L 291.050583 124.61923 
L 291.370285 163.057714 
L 291.382321 253.263986 
L 291.394403 88.085279 
L 291.430639 166.529754 
L 291.659806 145.048646 
L 292.124562 152.479351 
L 292.372646 251.253608 
L 292.541381 156.086851 
L 292.837813 260.636593 
L 292.958417 256.345912 
L 293.21848 148.084202 
L 293.991257 255.208982 
L 294.419911 253.973849 
L 294.588862 103.392992 
L 294.703873 252.082186 
L 294.873075 99.659602 
L 294.981807 260.063519 
L 295.108923 249.079115 
L 295.120994 150.097976 
L 295.169226 261.504979 
L 295.470943 256.739372 
L 295.634413 261.052986 
L 295.875434 260.44673 
L 296.086882 98.599364 
L 296.563661 248.849849 
L 296.835487 113.80617 
L 297.469978 261.031663 
L 297.542541 118.569454 
L 297.911462 182.267492 
L 298.413754 116.89373 
L 299.925659 253.0434 
L 300.034335 114.568614 
L 300.270623 263.225205 
L 300.306813 250.01027 
L 300.415455 145.262356 
L 300.796172 252.85469 
L 301.249954 84.782504 
L 301.26202 254.769365 
L 301.44961 161.390849 
L 301.963443 152.883829 
L 302.307834 174.237239 
L 302.513464 258.966143 
L 303.130498 166.390252 
L 303.420342 150.141361 
L 303.728606 252.242356 
L 304.109106 161.051673 
L 304.846715 257.008169 
L 305.420923 106.236599 
L 306.622447 257.527744 
L 306.634572 111.438048 
L 307.812377 152.58741 
L 307.908963 102.088948 
L 308.494263 76.825915 
L 309.3029 110.102127 
L 310.123965 251.256773 
L 310.251254 153.512733 
L 310.601473 151.849616 
L 311.133022 255.860908 
L 311.33805 248.489419 
L 311.930114 153.042777 
L 312.552193 251.868046 
L 313.077359 246.235835 
L 313.421218 258.990083 
L 313.75347 98.750623 
L 314.13387 177.571411 
L 314.194251 169.77365 
L 314.339152 129.53837 
L 314.634827 245.349919 
L 315.286334 161.651378 
L 315.539488 252.781109 
L 316.028885 254.151009 
L 316.264331 173.82559 
L 317.049587 80.030534 
L 317.623241 254.523658 
L 317.671518 156.507646 
L 318.015778 174.64158 
L 318.37187 257.287916 
L 319.573659 113.491727 
L 320.503967 103.064873 
L 320.72759 122.336437 
L 320.763675 248.00998 
L 321.028953 107.108774 
L 321.144162 260.581297 
L 321.42168 172.850062 
L 321.765607 185.733598 
L 321.989416 203.077299 
L 322.51419 179.415625 
L 322.586664 124.23188 
L 322.755579 189.647023 
L 322.931393 111.724435 
L 323.03993 205.186683 
L 323.680332 112.481656 
L 323.764714 78.860011 
L 323.812927 254.594087 
L 323.885332 84.774105 
L 324.682653 253.969013 
L 325.0509 256.939908 
L 325.371099 252.812948 
L 326.300739 252.174229 
L 326.421104 251.245122 
L 326.608553 257.259275 
L 327.049147 252.428274 
L 327.145675 191.851611 
L 327.254289 251.559962 
L 327.3387 121.458947 
L 327.906173 114.184586 
L 328.123178 260.067736 
L 328.274045 92.466935 
L 329.276249 258.048699 
L 329.288345 185.631712 
L 329.312419 258.832435 
L 329.861694 248.207918 
L 329.897854 256.529643 
L 330.314174 92.34685 
L 330.682333 182.711903 
L 330.718492 98.29642 
L 330.821323 100.211317 
L 331.358316 251.513453 
L 331.53901 253.220334 
L 331.762369 251.8522 
L 331.870969 64.903483 
L 331.895116 179.820934 
L 332.408648 254.594863 
L 332.571631 247.656817 
L 332.740619 74.462869 
L 333.320637 251.327424 
L 333.344743 99.959002 
L 333.609703 79.994763 
L 334.46743 250.45208 
L 334.678769 129.898292 
L 334.907804 186.28547 
L 334.986658 104.865462 
L 335.046826 85.916351 
L 335.17959 240.750012 
L 336.676746 258.008536 
L 336.688789 191.093071 
L 336.893905 255.974994 
L 336.942207 127.713306 
L 337.431384 88.745561 
L 337.848384 254.418086 
L 337.93912 93.99498 
L 337.95119 259.319165 
L 338.464198 79.396646 
L 338.572817 256.019841 
L 338.90488 124.012844 
L 339.345361 249.246234 
L 339.677732 60.779383 
L 339.689777 249.544716 
L 340.668152 89.759047 
L 341.193083 77.164002 
L 341.34417 252.71199 
L 341.760577 53.568 
L 341.868946 248.628746 
L 341.916984 118.049376 
L 342.774921 178.256749 
L 343.644074 182.33823 
L 343.964032 72.434274 
L 344.157042 249.549856 
L 345.107511 252.70636 
L 345.204047 177.493788 
L 346.098173 253.105851 
L 346.357999 200.284229 
L 347.347852 174.783094 
L 347.861764 256.804194 
L 347.873842 161.65087 
L 348.720004 93.285011 
L 348.919672 107.060028 
L 349.052496 255.363278 
L 349.565732 103.675781 
L 349.982635 254.836357 
L 350.182177 164.895541 
L 350.574895 267.856861 
L 350.586964 185.015959 
L 351.124349 113.547893 
L 351.456403 170.472582 
L 351.52891 132.900246 
L 351.812355 108.742415 
L 351.884696 245.409076 
L 352.13782 88.751707 
L 352.252969 244.736519 
L 353.06167 248.40941 
L 353.815763 84.669045 
L 354.244859 177.539923 
L 354.372165 250.416586 
L 355.471015 110.710414 
L 357.252286 108.320494 
L 357.5538 92.88116 
L 357.753392 261.668543 
L 358.206361 79.896513 
L 358.399498 253.816245 
L 358.526425 113.553061 
L 358.538479 257.284764 
L 358.707425 103.268422 
L 359.088045 252.200028 
L 360.005552 71.266317 
L 360.041839 117.728362 
L 360.494641 166.748365 
L 360.633561 66.299243 
L 361.074045 106.122347 
L 361.098138 102.268725 
L 361.158489 73.1876 
L 361.586987 171.185284 
L 362.813699 130.173144 
L 362.837888 82.090673 
L 363.006916 251.953652 
L 364.470011 251.442733 
L 364.55464 99.890137 
L 364.699398 61.762229 
L 365.37713 248.007829 
L 365.546228 99.313782 
L 365.649369 102.314647 
L 366.76054 92.254729 
L 366.796688 215.712239 
L 366.808789 174.886631 
L 368.783938 102.161246 
L 368.832045 166.165467 
L 368.844129 110.34776 
L 369.092025 99.030384 
L 369.272625 98.485887 
L 369.435962 116.495564 
L 369.572107 222.964695 
L 369.633554 215.598624 
L 369.695213 214.36254 
L 369.745 109.958417 
L 369.865166 210.894274 
L 370.160931 149.978676 
L 370.328272 89.709968 
L 370.694095 217.496374 
L 370.718997 121.126471 
L 370.829872 170.095993 
L 371.293561 231.115895 
L 371.616357 247.86405 
L 372.07148 95.060479 
L 372.277164 90.56817 
L 372.611413 250.026208 
L 372.885008 111.473505 
L 373.054433 174.732299 
L 373.495872 103.082666 
L 375.029235 127.610036 
L 375.663122 162.459708 
L 376.485072 98.869121 
L 376.769064 113.217559 
L 376.901778 254.520239 
L 377.186162 254.374281 
L 377.994399 246.6056 
L 378.151321 163.721946 
L 378.641711 252.674798 
L 378.926749 252.20467 
L 379.059579 127.739349 
L 380.223365 212.049071 
L 380.38639 204.691236 
L 381.518609 104.097222 
L 382.253974 171.808604 
L 382.741804 254.874647 
L 382.765836 210.127585 
L 383.157032 98.062157 
L 383.66949 249.302622 
L 384.332902 167.096503 
L 384.996617 103.80574 
L 385.020777 187.158152 
L 385.117163 105.575081 
L 385.52067 103.497481 
L 385.761321 104.537508 
L 385.840345 108.834906 
L 386.00849 167.493451 
L 386.779769 252.551137 
L 388.063524 85.717452 
L 388.648676 101.353489 
L 388.696934 254.738781 
L 389.505511 251.655992 
L 390.146012 94.8166 
L 390.550933 104.570436 
L 390.859365 168.0603 
L 390.955801 114.759687 
L 391.184888 248.740105 
L 391.801014 93.023338 
L 392.597963 183.087348 
L 393.002243 169.510787 
L 393.194999 113.632244 
L 393.267199 254.198016 
L 393.707665 175.242511 
L 393.846929 114.794738 
L 394.100285 215.358417 
L 394.311833 93.984515 
L 394.432412 119.635193 
L 394.728392 209.738555 
L 395.241217 101.259946 
L 396.406422 209.247584 
L 396.502992 241.631655 
L 397.372306 253.502328 
L 397.716485 263.176578 
L 397.988238 86.219738 
L 398.00027 253.859449 
L 398.02439 206.089101 
L 399.06441 113.095185 
L 399.863055 254.699762 
L 401.590822 81.8637 
L 401.638963 171.053414 
L 401.874566 102.856856 
L 402.278671 93.40456 
L 402.302737 103.829864 
L 403.063399 216.967722 
L 403.503716 250.679601 
L 403.804722 259.010801 
L 404.625973 110.315829 
L 405.005931 89.533052 
L 405.066209 91.843974 
L 405.537066 101.55833 
L 406.00167 132.913665 
L 406.194404 212.929699 
L 406.441915 81.005627 
L 406.978641 245.89522 
L 407.69074 212.089447 
L 408.239785 124.025266 
L 408.408747 172.884116 
L 408.644427 94.307061 
L 408.940231 248.670446 
L 409.048892 97.571131 
L 409.242096 254.524041 
L 409.321144 170.666525 
L 410.088428 160.458623 
L 410.100506 104.011523 
L 410.312449 192.718064 
L 411.576897 215.968227 
L 411.770369 170.886548 
L 411.970238 98.16646 
L 412.10345 212.37613 
L 413.153735 170.898702 
L 413.323035 210.204617 
L 413.443847 211.597341 
L 413.559514 176.035946 
L 414.381882 100.312483 
L 414.72 206.453785 
L 414.72 206.453785 
" style="fill:none;stroke:#000000;stroke-linecap:square;stroke-width:0.8;"/>
   </g>
   <g id="patch_3">
    <path d="M 57.6 307.584 
L 57.6 41.472 
" style="fill:none;stroke:#000000;stroke-linecap:square;stroke-linejoin:miter;stroke-width:0.8;"/>
   </g>
   <g id="patch_4">
    <path d="M 414.72 307.584 
L 414.72 41.472 
" style="fill:none;stroke:#000000;stroke-linecap:square;stroke-linejoin:miter;stroke-width:0.8;"/>
   </g>
   <g id="patch_5">
    <path d="M 57.6 307.584 
L 414.72 307.584 
" style="fill:none;stroke:#000000;stroke-linecap:square;stroke-linejoin:miter;stroke-width:0.8;"/>
   </g>
   <g id="patch_6">
    <path d="M 57.6 41.472 
L 414.72 41.472 
" style="fill:none;stroke:#000000;stroke-linecap:square;stroke-linejoin:miter;stroke-width:0.8;"/>
   </g>
  </g>
  <g id="axes_2">
   <g id="matplotlib.axis_3">
    <g id="xtick_9">
     <g id="line2d_36">
      <defs>
       <path d="M 0 0 
L 0 -3.5 
" id="m1a0b5943c8" style="stroke:#000000;stroke-width:0.8;"/>
      </defs>
      <g>
       <use style="stroke:#000000;stroke-width:0.8;" x="57.6" xlink:href="#m1a0b5943c8" y="41.472"/>
      </g>
     </g>
    </g>
    <g id="xtick_10">
     <g id="line2d_37">
      <g>
       <use style="stroke:#000000;stroke-width:0.8;" x="99.714797" xlink:href="#m1a0b5943c8" y="41.472"/>
      </g>
     </g>
     <g id="text_20">
      <!-- 10.0M -->
      <defs>
       <path d="M 9.8125 72.90625 
L 24.515625 72.90625 
L 43.109375 23.296875 
L 61.8125 72.90625 
L 76.515625 72.90625 
L 76.515625 0 
L 66.890625 0 
L 66.890625 64.015625 
L 48.09375 14.015625 
L 38.1875 14.015625 
L 19.390625 64.015625 
L 19.390625 0 
L 9.8125 0 
z
" id="DejaVuSans-77"/>
      </defs>
      <g transform="translate(84.267922 32.392313)scale(0.1 -0.1)">
       <use xlink:href="#DejaVuSans-49"/>
       <use x="63.623047" xlink:href="#DejaVuSans-48"/>
       <use x="127.246094" xlink:href="#DejaVuSans-46"/>
       <use x="159.033203" xlink:href="#DejaVuSans-48"/>
       <use x="222.65625" xlink:href="#DejaVuSans-77"/>
      </g>
     </g>
    </g>
    <g id="xtick_11">
     <g id="line2d_38">
      <g>
       <use style="stroke:#000000;stroke-width:0.8;" x="141.829595" xlink:href="#m1a0b5943c8" y="41.472"/>
      </g>
     </g>
     <g id="text_21">
      <!-- 20.0M -->
      <g transform="translate(126.38272 32.392313)scale(0.1 -0.1)">
       <use xlink:href="#DejaVuSans-50"/>
       <use x="63.623047" xlink:href="#DejaVuSans-48"/>
       <use x="127.246094" xlink:href="#DejaVuSans-46"/>
       <use x="159.033203" xlink:href="#DejaVuSans-48"/>
       <use x="222.65625" xlink:href="#DejaVuSans-77"/>
      </g>
     </g>
    </g>
    <g id="xtick_12">
     <g id="line2d_39">
      <g>
       <use style="stroke:#000000;stroke-width:0.8;" x="183.944392" xlink:href="#m1a0b5943c8" y="41.472"/>
      </g>
     </g>
     <g id="text_22">
      <!-- 30.0M -->
      <defs>
       <path d="M 40.578125 39.3125 
Q 47.65625 37.796875 51.625 33 
Q 55.609375 28.21875 55.609375 21.1875 
Q 55.609375 10.40625 48.1875 4.484375 
Q 40.765625 -1.421875 27.09375 -1.421875 
Q 22.515625 -1.421875 17.65625 -0.515625 
Q 12.796875 0.390625 7.625 2.203125 
L 7.625 11.71875 
Q 11.71875 9.328125 16.59375 8.109375 
Q 21.484375 6.890625 26.8125 6.890625 
Q 36.078125 6.890625 40.9375 10.546875 
Q 45.796875 14.203125 45.796875 21.1875 
Q 45.796875 27.640625 41.28125 31.265625 
Q 36.765625 34.90625 28.71875 34.90625 
L 20.21875 34.90625 
L 20.21875 43.015625 
L 29.109375 43.015625 
Q 36.375 43.015625 40.234375 45.921875 
Q 44.09375 48.828125 44.09375 54.296875 
Q 44.09375 59.90625 40.109375 62.90625 
Q 36.140625 65.921875 28.71875 65.921875 
Q 24.65625 65.921875 20.015625 65.03125 
Q 15.375 64.15625 9.8125 62.3125 
L 9.8125 71.09375 
Q 15.4375 72.65625 20.34375 73.4375 
Q 25.25 74.21875 29.59375 74.21875 
Q 40.828125 74.21875 47.359375 69.109375 
Q 53.90625 64.015625 53.90625 55.328125 
Q 53.90625 49.265625 50.4375 45.09375 
Q 46.96875 40.921875 40.578125 39.3125 
z
" id="DejaVuSans-51"/>
      </defs>
      <g transform="translate(168.497517 32.392313)scale(0.1 -0.1)">
       <use xlink:href="#DejaVuSans-51"/>
       <use x="63.623047" xlink:href="#DejaVuSans-48"/>
       <use x="127.246094" xlink:href="#DejaVuSans-46"/>
       <use x="159.033203" xlink:href="#DejaVuSans-48"/>
       <use x="222.65625" xlink:href="#DejaVuSans-77"/>
      </g>
     </g>
    </g>
    <g id="xtick_13">
     <g id="line2d_40">
      <g>
       <use style="stroke:#000000;stroke-width:0.8;" x="226.059189" xlink:href="#m1a0b5943c8" y="41.472"/>
      </g>
     </g>
     <g id="text_23">
      <!-- 40.0M -->
      <defs>
       <path d="M 37.796875 64.3125 
L 12.890625 25.390625 
L 37.796875 25.390625 
z
M 35.203125 72.90625 
L 47.609375 72.90625 
L 47.609375 25.390625 
L 58.015625 25.390625 
L 58.015625 17.1875 
L 47.609375 17.1875 
L 47.609375 0 
L 37.796875 0 
L 37.796875 17.1875 
L 4.890625 17.1875 
L 4.890625 26.703125 
z
" id="DejaVuSans-52"/>
      </defs>
      <g transform="translate(210.612314 32.392313)scale(0.1 -0.1)">
       <use xlink:href="#DejaVuSans-52"/>
       <use x="63.623047" xlink:href="#DejaVuSans-48"/>
       <use x="127.246094" xlink:href="#DejaVuSans-46"/>
       <use x="159.033203" xlink:href="#DejaVuSans-48"/>
       <use x="222.65625" xlink:href="#DejaVuSans-77"/>
      </g>
     </g>
    </g>
    <g id="xtick_14">
     <g id="line2d_41">
      <g>
       <use style="stroke:#000000;stroke-width:0.8;" x="268.173986" xlink:href="#m1a0b5943c8" y="41.472"/>
      </g>
     </g>
     <g id="text_24">
      <!-- 50.0M -->
      <g transform="translate(252.727111 32.392313)scale(0.1 -0.1)">
       <use xlink:href="#DejaVuSans-53"/>
       <use x="63.623047" xlink:href="#DejaVuSans-48"/>
       <use x="127.246094" xlink:href="#DejaVuSans-46"/>
       <use x="159.033203" xlink:href="#DejaVuSans-48"/>
       <use x="222.65625" xlink:href="#DejaVuSans-77"/>
      </g>
     </g>
    </g>
    <g id="xtick_15">
     <g id="line2d_42">
      <g>
       <use style="stroke:#000000;stroke-width:0.8;" x="310.288784" xlink:href="#m1a0b5943c8" y="41.472"/>
      </g>
     </g>
     <g id="text_25">
      <!-- 60.0M -->
      <defs>
       <path d="M 33.015625 40.375 
Q 26.375 40.375 22.484375 35.828125 
Q 18.609375 31.296875 18.609375 23.390625 
Q 18.609375 15.53125 22.484375 10.953125 
Q 26.375 6.390625 33.015625 6.390625 
Q 39.65625 6.390625 43.53125 10.953125 
Q 47.40625 15.53125 47.40625 23.390625 
Q 47.40625 31.296875 43.53125 35.828125 
Q 39.65625 40.375 33.015625 40.375 
z
M 52.59375 71.296875 
L 52.59375 62.3125 
Q 48.875 64.0625 45.09375 64.984375 
Q 41.3125 65.921875 37.59375 65.921875 
Q 27.828125 65.921875 22.671875 59.328125 
Q 17.53125 52.734375 16.796875 39.40625 
Q 19.671875 43.65625 24.015625 45.921875 
Q 28.375 48.1875 33.59375 48.1875 
Q 44.578125 48.1875 50.953125 41.515625 
Q 57.328125 34.859375 57.328125 23.390625 
Q 57.328125 12.15625 50.6875 5.359375 
Q 44.046875 -1.421875 33.015625 -1.421875 
Q 20.359375 -1.421875 13.671875 8.265625 
Q 6.984375 17.96875 6.984375 36.375 
Q 6.984375 53.65625 15.1875 63.9375 
Q 23.390625 74.21875 37.203125 74.21875 
Q 40.921875 74.21875 44.703125 73.484375 
Q 48.484375 72.75 52.59375 71.296875 
z
" id="DejaVuSans-54"/>
      </defs>
      <g transform="translate(294.841909 32.392313)scale(0.1 -0.1)">
       <use xlink:href="#DejaVuSans-54"/>
       <use x="63.623047" xlink:href="#DejaVuSans-48"/>
       <use x="127.246094" xlink:href="#DejaVuSans-46"/>
       <use x="159.033203" xlink:href="#DejaVuSans-48"/>
       <use x="222.65625" xlink:href="#DejaVuSans-77"/>
      </g>
     </g>
    </g>
    <g id="xtick_16">
     <g id="line2d_43">
      <g>
       <use style="stroke:#000000;stroke-width:0.8;" x="352.403581" xlink:href="#m1a0b5943c8" y="41.472"/>
      </g>
     </g>
     <g id="text_26">
      <!-- 70.0M -->
      <g transform="translate(336.956706 32.392313)scale(0.1 -0.1)">
       <use xlink:href="#DejaVuSans-55"/>
       <use x="63.623047" xlink:href="#DejaVuSans-48"/>
       <use x="127.246094" xlink:href="#DejaVuSans-46"/>
       <use x="159.033203" xlink:href="#DejaVuSans-48"/>
       <use x="222.65625" xlink:href="#DejaVuSans-77"/>
      </g>
     </g>
    </g>
    <g id="xtick_17">
     <g id="line2d_44">
      <g>
       <use style="stroke:#000000;stroke-width:0.8;" x="394.518378" xlink:href="#m1a0b5943c8" y="41.472"/>
      </g>
     </g>
     <g id="text_27">
      <!-- 80.0M -->
      <defs>
       <path d="M 31.78125 34.625 
Q 24.75 34.625 20.71875 30.859375 
Q 16.703125 27.09375 16.703125 20.515625 
Q 16.703125 13.921875 20.71875 10.15625 
Q 24.75 6.390625 31.78125 6.390625 
Q 38.8125 6.390625 42.859375 10.171875 
Q 46.921875 13.96875 46.921875 20.515625 
Q 46.921875 27.09375 42.890625 30.859375 
Q 38.875 34.625 31.78125 34.625 
z
M 21.921875 38.8125 
Q 15.578125 40.375 12.03125 44.71875 
Q 8.5 49.078125 8.5 55.328125 
Q 8.5 64.0625 14.71875 69.140625 
Q 20.953125 74.21875 31.78125 74.21875 
Q 42.671875 74.21875 48.875 69.140625 
Q 55.078125 64.0625 55.078125 55.328125 
Q 55.078125 49.078125 51.53125 44.71875 
Q 48 40.375 41.703125 38.8125 
Q 48.828125 37.15625 52.796875 32.3125 
Q 56.78125 27.484375 56.78125 20.515625 
Q 56.78125 9.90625 50.3125 4.234375 
Q 43.84375 -1.421875 31.78125 -1.421875 
Q 19.734375 -1.421875 13.25 4.234375 
Q 6.78125 9.90625 6.78125 20.515625 
Q 6.78125 27.484375 10.78125 32.3125 
Q 14.796875 37.15625 21.921875 38.8125 
z
M 18.3125 54.390625 
Q 18.3125 48.734375 21.84375 45.5625 
Q 25.390625 42.390625 31.78125 42.390625 
Q 38.140625 42.390625 41.71875 45.5625 
Q 45.3125 48.734375 45.3125 54.390625 
Q 45.3125 60.0625 41.71875 63.234375 
Q 38.140625 66.40625 31.78125 66.40625 
Q 25.390625 66.40625 21.84375 63.234375 
Q 18.3125 60.0625 18.3125 54.390625 
z
" id="DejaVuSans-56"/>
      </defs>
      <g transform="translate(379.071503 32.392313)scale(0.1 -0.1)">
       <use xlink:href="#DejaVuSans-56"/>
       <use x="63.623047" xlink:href="#DejaVuSans-48"/>
       <use x="127.246094" xlink:href="#DejaVuSans-46"/>
       <use x="159.033203" xlink:href="#DejaVuSans-48"/>
       <use x="222.65625" xlink:href="#DejaVuSans-77"/>
      </g>
     </g>
    </g>
    <g id="text_28">
     <!-- Steps -->
     <defs>
      <path d="M 53.515625 70.515625 
L 53.515625 60.890625 
Q 47.90625 63.578125 42.921875 64.890625 
Q 37.9375 66.21875 33.296875 66.21875 
Q 25.25 66.21875 20.875 63.09375 
Q 16.5 59.96875 16.5 54.203125 
Q 16.5 49.359375 19.40625 46.890625 
Q 22.3125 44.4375 30.421875 42.921875 
L 36.375 41.703125 
Q 47.40625 39.59375 52.65625 34.296875 
Q 57.90625 29 57.90625 20.125 
Q 57.90625 9.515625 50.796875 4.046875 
Q 43.703125 -1.421875 29.984375 -1.421875 
Q 24.8125 -1.421875 18.96875 -0.25 
Q 13.140625 0.921875 6.890625 3.21875 
L 6.890625 13.375 
Q 12.890625 10.015625 18.65625 8.296875 
Q 24.421875 6.59375 29.984375 6.59375 
Q 38.421875 6.59375 43.015625 9.90625 
Q 47.609375 13.234375 47.609375 19.390625 
Q 47.609375 24.75 44.3125 27.78125 
Q 41.015625 30.8125 33.5 32.328125 
L 27.484375 33.5 
Q 16.453125 35.6875 11.515625 40.375 
Q 6.59375 45.0625 6.59375 53.421875 
Q 6.59375 63.09375 13.40625 68.65625 
Q 20.21875 74.21875 32.171875 74.21875 
Q 37.3125 74.21875 42.625 73.28125 
Q 47.953125 72.359375 53.515625 70.515625 
z
" id="DejaVuSans-83"/>
      <path d="M 18.3125 70.21875 
L 18.3125 54.6875 
L 36.8125 54.6875 
L 36.8125 47.703125 
L 18.3125 47.703125 
L 18.3125 18.015625 
Q 18.3125 11.328125 20.140625 9.421875 
Q 21.96875 7.515625 27.59375 7.515625 
L 36.8125 7.515625 
L 36.8125 0 
L 27.59375 0 
Q 17.1875 0 13.234375 3.875 
Q 9.28125 7.765625 9.28125 18.015625 
L 9.28125 47.703125 
L 2.6875 47.703125 
L 2.6875 54.6875 
L 9.28125 54.6875 
L 9.28125 70.21875 
z
" id="DejaVuSans-116"/>
      <path d="M 18.109375 8.203125 
L 18.109375 -20.796875 
L 9.078125 -20.796875 
L 9.078125 54.6875 
L 18.109375 54.6875 
L 18.109375 46.390625 
Q 20.953125 51.265625 25.265625 53.625 
Q 29.59375 56 35.59375 56 
Q 45.5625 56 51.78125 48.09375 
Q 58.015625 40.1875 58.015625 27.296875 
Q 58.015625 14.40625 51.78125 6.484375 
Q 45.5625 -1.421875 35.59375 -1.421875 
Q 29.59375 -1.421875 25.265625 0.953125 
Q 20.953125 3.328125 18.109375 8.203125 
z
M 48.6875 27.296875 
Q 48.6875 37.203125 44.609375 42.84375 
Q 40.53125 48.484375 33.40625 48.484375 
Q 26.265625 48.484375 22.1875 42.84375 
Q 18.109375 37.203125 18.109375 27.296875 
Q 18.109375 17.390625 22.1875 11.75 
Q 26.265625 6.109375 33.40625 6.109375 
Q 40.53125 6.109375 44.609375 11.75 
Q 48.6875 17.390625 48.6875 27.296875 
z
" id="DejaVuSans-112"/>
     </defs>
     <g transform="translate(222.170156 20.793875)scale(0.1 -0.1)">
      <use xlink:href="#DejaVuSans-83"/>
      <use x="63.476562" xlink:href="#DejaVuSans-116"/>
      <use x="102.685547" xlink:href="#DejaVuSans-101"/>
      <use x="164.208984" xlink:href="#DejaVuSans-112"/>
      <use x="227.685547" xlink:href="#DejaVuSans-115"/>
     </g>
    </g>
   </g>
   <g id="patch_7">
    <path d="M 57.6 307.584 
L 57.6 41.472 
" style="fill:none;stroke:#000000;stroke-linecap:square;stroke-linejoin:miter;stroke-width:0.8;"/>
   </g>
   <g id="patch_8">
    <path d="M 414.72 307.584 
L 414.72 41.472 
" style="fill:none;stroke:#000000;stroke-linecap:square;stroke-linejoin:miter;stroke-width:0.8;"/>
   </g>
   <g id="patch_9">
    <path d="M 57.6 307.584 
L 414.72 307.584 
" style="fill:none;stroke:#000000;stroke-linecap:square;stroke-linejoin:miter;stroke-width:0.8;"/>
   </g>
   <g id="patch_10">
    <path d="M 57.6 41.472 
L 414.72 41.472 
" style="fill:none;stroke:#000000;stroke-linecap:square;stroke-linejoin:miter;stroke-width:0.8;"/>
   </g>
  </g>
 </g>
 <defs>
  <clipPath id="pcfb3a48abc">
   <rect height="266.112" width="357.12" x="57.6" y="41.472"/>
  </clipPath>
 </defs>
</svg>
