<?xml version="1.0" encoding="utf-8" standalone="no"?>
<!DOCTYPE svg PUBLIC "-//W3C//DTD SVG 1.1//EN"
  "http://www.w3.org/Graphics/SVG/1.1/DTD/svg11.dtd">
<!-- Created with matplotlib (https://matplotlib.org/) -->
<svg height="345.6pt" version="1.1" viewBox="0 0 460.8 345.6" width="460.8pt" xmlns="http://www.w3.org/2000/svg" xmlns:xlink="http://www.w3.org/1999/xlink">
 <defs>
  <style type="text/css">
*{stroke-linecap:butt;stroke-linejoin:round;}
  </style>
 </defs>
 <g id="figure_1">
  <g id="patch_1">
   <path d="M 0 345.6 
L 460.8 345.6 
L 460.8 0 
L 0 0 
z
" style="fill:#ffffff;"/>
  </g>
  <g id="axes_1">
   <g id="patch_2">
    <path d="M 57.6 307.584 
L 414.72 307.584 
L 414.72 41.472 
L 57.6 41.472 
z
" style="fill:#ffffff;"/>
   </g>
   <g id="matplotlib.axis_1">
    <g id="xtick_1">
     <g id="line2d_1">
      <path clip-path="url(#p8262c21d0c)" d="M 57.6 307.584 
L 57.6 41.472 
" style="fill:none;stroke:#b0b0b0;stroke-linecap:square;stroke-width:0.8;"/>
     </g>
     <g id="line2d_2">
      <defs>
       <path d="M 0 0 
L 0 3.5 
" id="m0ddb3d5ebd" style="stroke:#000000;stroke-width:0.8;"/>
      </defs>
      <g>
       <use style="stroke:#000000;stroke-width:0.8;" x="57.6" xlink:href="#m0ddb3d5ebd" y="307.584"/>
      </g>
     </g>
     <g id="text_1">
      <!-- 0.0 -->
      <defs>
       <path d="M 31.78125 66.40625 
Q 24.171875 66.40625 20.328125 58.90625 
Q 16.5 51.421875 16.5 36.375 
Q 16.5 21.390625 20.328125 13.890625 
Q 24.171875 6.390625 31.78125 6.390625 
Q 39.453125 6.390625 43.28125 13.890625 
Q 47.125 21.390625 47.125 36.375 
Q 47.125 51.421875 43.28125 58.90625 
Q 39.453125 66.40625 31.78125 66.40625 
z
M 31.78125 74.21875 
Q 44.046875 74.21875 50.515625 64.515625 
Q 56.984375 54.828125 56.984375 36.375 
Q 56.984375 17.96875 50.515625 8.265625 
Q 44.046875 -1.421875 31.78125 -1.421875 
Q 19.53125 -1.421875 13.0625 8.265625 
Q 6.59375 17.96875 6.59375 36.375 
Q 6.59375 54.828125 13.0625 64.515625 
Q 19.53125 74.21875 31.78125 74.21875 
z
" id="DejaVuSans-48"/>
       <path d="M 10.6875 12.40625 
L 21 12.40625 
L 21 0 
L 10.6875 0 
z
" id="DejaVuSans-46"/>
      </defs>
      <g transform="translate(49.648438 322.182437)scale(0.1 -0.1)">
       <use xlink:href="#DejaVuSans-48"/>
       <use x="63.623047" xlink:href="#DejaVuSans-46"/>
       <use x="95.410156" xlink:href="#DejaVuSans-48"/>
      </g>
     </g>
    </g>
    <g id="xtick_2">
     <g id="line2d_3">
      <path clip-path="url(#p8262c21d0c)" d="M 103.438718 307.584 
L 103.438718 41.472 
" style="fill:none;stroke:#b0b0b0;stroke-linecap:square;stroke-width:0.8;"/>
     </g>
     <g id="line2d_4">
      <g>
       <use style="stroke:#000000;stroke-width:0.8;" x="103.438718" xlink:href="#m0ddb3d5ebd" y="307.584"/>
      </g>
     </g>
     <g id="text_2">
      <!-- 2.5 -->
      <defs>
       <path d="M 19.1875 8.296875 
L 53.609375 8.296875 
L 53.609375 0 
L 7.328125 0 
L 7.328125 8.296875 
Q 12.9375 14.109375 22.625 23.890625 
Q 32.328125 33.6875 34.8125 36.53125 
Q 39.546875 41.84375 41.421875 45.53125 
Q 43.3125 49.21875 43.3125 52.78125 
Q 43.3125 58.59375 39.234375 62.25 
Q 35.15625 65.921875 28.609375 65.921875 
Q 23.96875 65.921875 18.8125 64.3125 
Q 13.671875 62.703125 7.8125 59.421875 
L 7.8125 69.390625 
Q 13.765625 71.78125 18.9375 73 
Q 24.125 74.21875 28.421875 74.21875 
Q 39.75 74.21875 46.484375 68.546875 
Q 53.21875 62.890625 53.21875 53.421875 
Q 53.21875 48.921875 51.53125 44.890625 
Q 49.859375 40.875 45.40625 35.40625 
Q 44.1875 33.984375 37.640625 27.21875 
Q 31.109375 20.453125 19.1875 8.296875 
z
" id="DejaVuSans-50"/>
       <path d="M 10.796875 72.90625 
L 49.515625 72.90625 
L 49.515625 64.59375 
L 19.828125 64.59375 
L 19.828125 46.734375 
Q 21.96875 47.46875 24.109375 47.828125 
Q 26.265625 48.1875 28.421875 48.1875 
Q 40.625 48.1875 47.75 41.5 
Q 54.890625 34.8125 54.890625 23.390625 
Q 54.890625 11.625 47.5625 5.09375 
Q 40.234375 -1.421875 26.90625 -1.421875 
Q 22.3125 -1.421875 17.546875 -0.640625 
Q 12.796875 0.140625 7.71875 1.703125 
L 7.71875 11.625 
Q 12.109375 9.234375 16.796875 8.0625 
Q 21.484375 6.890625 26.703125 6.890625 
Q 35.15625 6.890625 40.078125 11.328125 
Q 45.015625 15.765625 45.015625 23.390625 
Q 45.015625 31 40.078125 35.4375 
Q 35.15625 39.890625 26.703125 39.890625 
Q 22.75 39.890625 18.8125 39.015625 
Q 14.890625 38.140625 10.796875 36.28125 
z
" id="DejaVuSans-53"/>
      </defs>
      <g transform="translate(95.487156 322.182437)scale(0.1 -0.1)">
       <use xlink:href="#DejaVuSans-50"/>
       <use x="63.623047" xlink:href="#DejaVuSans-46"/>
       <use x="95.410156" xlink:href="#DejaVuSans-53"/>
      </g>
     </g>
    </g>
    <g id="xtick_3">
     <g id="line2d_5">
      <path clip-path="url(#p8262c21d0c)" d="M 149.277437 307.584 
L 149.277437 41.472 
" style="fill:none;stroke:#b0b0b0;stroke-linecap:square;stroke-width:0.8;"/>
     </g>
     <g id="line2d_6">
      <g>
       <use style="stroke:#000000;stroke-width:0.8;" x="149.277437" xlink:href="#m0ddb3d5ebd" y="307.584"/>
      </g>
     </g>
     <g id="text_3">
      <!-- 5.0 -->
      <g transform="translate(141.325874 322.182437)scale(0.1 -0.1)">
       <use xlink:href="#DejaVuSans-53"/>
       <use x="63.623047" xlink:href="#DejaVuSans-46"/>
       <use x="95.410156" xlink:href="#DejaVuSans-48"/>
      </g>
     </g>
    </g>
    <g id="xtick_4">
     <g id="line2d_7">
      <path clip-path="url(#p8262c21d0c)" d="M 195.116155 307.584 
L 195.116155 41.472 
" style="fill:none;stroke:#b0b0b0;stroke-linecap:square;stroke-width:0.8;"/>
     </g>
     <g id="line2d_8">
      <g>
       <use style="stroke:#000000;stroke-width:0.8;" x="195.116155" xlink:href="#m0ddb3d5ebd" y="307.584"/>
      </g>
     </g>
     <g id="text_4">
      <!-- 7.5 -->
      <defs>
       <path d="M 8.203125 72.90625 
L 55.078125 72.90625 
L 55.078125 68.703125 
L 28.609375 0 
L 18.3125 0 
L 43.21875 64.59375 
L 8.203125 64.59375 
z
" id="DejaVuSans-55"/>
      </defs>
      <g transform="translate(187.164592 322.182437)scale(0.1 -0.1)">
       <use xlink:href="#DejaVuSans-55"/>
       <use x="63.623047" xlink:href="#DejaVuSans-46"/>
       <use x="95.410156" xlink:href="#DejaVuSans-53"/>
      </g>
     </g>
    </g>
    <g id="xtick_5">
     <g id="line2d_9">
      <path clip-path="url(#p8262c21d0c)" d="M 240.954873 307.584 
L 240.954873 41.472 
" style="fill:none;stroke:#b0b0b0;stroke-linecap:square;stroke-width:0.8;"/>
     </g>
     <g id="line2d_10">
      <g>
       <use style="stroke:#000000;stroke-width:0.8;" x="240.954873" xlink:href="#m0ddb3d5ebd" y="307.584"/>
      </g>
     </g>
     <g id="text_5">
      <!-- 10.0 -->
      <defs>
       <path d="M 12.40625 8.296875 
L 28.515625 8.296875 
L 28.515625 63.921875 
L 10.984375 60.40625 
L 10.984375 69.390625 
L 28.421875 72.90625 
L 38.28125 72.90625 
L 38.28125 8.296875 
L 54.390625 8.296875 
L 54.390625 0 
L 12.40625 0 
z
" id="DejaVuSans-49"/>
      </defs>
      <g transform="translate(229.822061 322.182437)scale(0.1 -0.1)">
       <use xlink:href="#DejaVuSans-49"/>
       <use x="63.623047" xlink:href="#DejaVuSans-48"/>
       <use x="127.246094" xlink:href="#DejaVuSans-46"/>
       <use x="159.033203" xlink:href="#DejaVuSans-48"/>
      </g>
     </g>
    </g>
    <g id="xtick_6">
     <g id="line2d_11">
      <path clip-path="url(#p8262c21d0c)" d="M 286.793592 307.584 
L 286.793592 41.472 
" style="fill:none;stroke:#b0b0b0;stroke-linecap:square;stroke-width:0.8;"/>
     </g>
     <g id="line2d_12">
      <g>
       <use style="stroke:#000000;stroke-width:0.8;" x="286.793592" xlink:href="#m0ddb3d5ebd" y="307.584"/>
      </g>
     </g>
     <g id="text_6">
      <!-- 12.5 -->
      <g transform="translate(275.660779 322.182437)scale(0.1 -0.1)">
       <use xlink:href="#DejaVuSans-49"/>
       <use x="63.623047" xlink:href="#DejaVuSans-50"/>
       <use x="127.246094" xlink:href="#DejaVuSans-46"/>
       <use x="159.033203" xlink:href="#DejaVuSans-53"/>
      </g>
     </g>
    </g>
    <g id="xtick_7">
     <g id="line2d_13">
      <path clip-path="url(#p8262c21d0c)" d="M 332.63231 307.584 
L 332.63231 41.472 
" style="fill:none;stroke:#b0b0b0;stroke-linecap:square;stroke-width:0.8;"/>
     </g>
     <g id="line2d_14">
      <g>
       <use style="stroke:#000000;stroke-width:0.8;" x="332.63231" xlink:href="#m0ddb3d5ebd" y="307.584"/>
      </g>
     </g>
     <g id="text_7">
      <!-- 15.0 -->
      <g transform="translate(321.499497 322.182437)scale(0.1 -0.1)">
       <use xlink:href="#DejaVuSans-49"/>
       <use x="63.623047" xlink:href="#DejaVuSans-53"/>
       <use x="127.246094" xlink:href="#DejaVuSans-46"/>
       <use x="159.033203" xlink:href="#DejaVuSans-48"/>
      </g>
     </g>
    </g>
    <g id="xtick_8">
     <g id="line2d_15">
      <path clip-path="url(#p8262c21d0c)" d="M 378.471028 307.584 
L 378.471028 41.472 
" style="fill:none;stroke:#b0b0b0;stroke-linecap:square;stroke-width:0.8;"/>
     </g>
     <g id="line2d_16">
      <g>
       <use style="stroke:#000000;stroke-width:0.8;" x="378.471028" xlink:href="#m0ddb3d5ebd" y="307.584"/>
      </g>
     </g>
     <g id="text_8">
      <!-- 17.5 -->
      <g transform="translate(367.338216 322.182437)scale(0.1 -0.1)">
       <use xlink:href="#DejaVuSans-49"/>
       <use x="63.623047" xlink:href="#DejaVuSans-55"/>
       <use x="127.246094" xlink:href="#DejaVuSans-46"/>
       <use x="159.033203" xlink:href="#DejaVuSans-53"/>
      </g>
     </g>
    </g>
    <g id="text_9">
     <!-- Hours -->
     <defs>
      <path d="M 9.8125 72.90625 
L 19.671875 72.90625 
L 19.671875 43.015625 
L 55.515625 43.015625 
L 55.515625 72.90625 
L 65.375 72.90625 
L 65.375 0 
L 55.515625 0 
L 55.515625 34.71875 
L 19.671875 34.71875 
L 19.671875 0 
L 9.8125 0 
z
" id="DejaVuSans-72"/>
      <path d="M 30.609375 48.390625 
Q 23.390625 48.390625 19.1875 42.75 
Q 14.984375 37.109375 14.984375 27.296875 
Q 14.984375 17.484375 19.15625 11.84375 
Q 23.34375 6.203125 30.609375 6.203125 
Q 37.796875 6.203125 41.984375 11.859375 
Q 46.1875 17.53125 46.1875 27.296875 
Q 46.1875 37.015625 41.984375 42.703125 
Q 37.796875 48.390625 30.609375 48.390625 
z
M 30.609375 56 
Q 42.328125 56 49.015625 48.375 
Q 55.71875 40.765625 55.71875 27.296875 
Q 55.71875 13.875 49.015625 6.21875 
Q 42.328125 -1.421875 30.609375 -1.421875 
Q 18.84375 -1.421875 12.171875 6.21875 
Q 5.515625 13.875 5.515625 27.296875 
Q 5.515625 40.765625 12.171875 48.375 
Q 18.84375 56 30.609375 56 
z
" id="DejaVuSans-111"/>
      <path d="M 8.5 21.578125 
L 8.5 54.6875 
L 17.484375 54.6875 
L 17.484375 21.921875 
Q 17.484375 14.15625 20.5 10.265625 
Q 23.53125 6.390625 29.59375 6.390625 
Q 36.859375 6.390625 41.078125 11.03125 
Q 45.3125 15.671875 45.3125 23.6875 
L 45.3125 54.6875 
L 54.296875 54.6875 
L 54.296875 0 
L 45.3125 0 
L 45.3125 8.40625 
Q 42.046875 3.421875 37.71875 1 
Q 33.40625 -1.421875 27.6875 -1.421875 
Q 18.265625 -1.421875 13.375 4.4375 
Q 8.5 10.296875 8.5 21.578125 
z
M 31.109375 56 
z
" id="DejaVuSans-117"/>
      <path d="M 41.109375 46.296875 
Q 39.59375 47.171875 37.8125 47.578125 
Q 36.03125 48 33.890625 48 
Q 26.265625 48 22.1875 43.046875 
Q 18.109375 38.09375 18.109375 28.8125 
L 18.109375 0 
L 9.078125 0 
L 9.078125 54.6875 
L 18.109375 54.6875 
L 18.109375 46.1875 
Q 20.953125 51.171875 25.484375 53.578125 
Q 30.03125 56 36.53125 56 
Q 37.453125 56 38.578125 55.875 
Q 39.703125 55.765625 41.0625 55.515625 
z
" id="DejaVuSans-114"/>
      <path d="M 44.28125 53.078125 
L 44.28125 44.578125 
Q 40.484375 46.53125 36.375 47.5 
Q 32.28125 48.484375 27.875 48.484375 
Q 21.1875 48.484375 17.84375 46.4375 
Q 14.5 44.390625 14.5 40.28125 
Q 14.5 37.15625 16.890625 35.375 
Q 19.28125 33.59375 26.515625 31.984375 
L 29.59375 31.296875 
Q 39.15625 29.25 43.1875 25.515625 
Q 47.21875 21.78125 47.21875 15.09375 
Q 47.21875 7.46875 41.1875 3.015625 
Q 35.15625 -1.421875 24.609375 -1.421875 
Q 20.21875 -1.421875 15.453125 -0.5625 
Q 10.6875 0.296875 5.421875 2 
L 5.421875 11.28125 
Q 10.40625 8.6875 15.234375 7.390625 
Q 20.0625 6.109375 24.8125 6.109375 
Q 31.15625 6.109375 34.5625 8.28125 
Q 37.984375 10.453125 37.984375 14.40625 
Q 37.984375 18.0625 35.515625 20.015625 
Q 33.0625 21.96875 24.703125 23.78125 
L 21.578125 24.515625 
Q 13.234375 26.265625 9.515625 29.90625 
Q 5.8125 33.546875 5.8125 39.890625 
Q 5.8125 47.609375 11.28125 51.796875 
Q 16.75 56 26.8125 56 
Q 31.78125 56 36.171875 55.265625 
Q 40.578125 54.546875 44.28125 53.078125 
z
" id="DejaVuSans-115"/>
     </defs>
     <g transform="translate(221.511562 335.860562)scale(0.1 -0.1)">
      <use xlink:href="#DejaVuSans-72"/>
      <use x="75.195312" xlink:href="#DejaVuSans-111"/>
      <use x="136.376953" xlink:href="#DejaVuSans-117"/>
      <use x="199.755859" xlink:href="#DejaVuSans-114"/>
      <use x="240.869141" xlink:href="#DejaVuSans-115"/>
     </g>
    </g>
   </g>
   <g id="matplotlib.axis_2">
    <g id="ytick_1">
     <g id="line2d_17">
      <path clip-path="url(#p8262c21d0c)" d="M 57.6 287.451296 
L 414.72 287.451296 
" style="fill:none;stroke:#b0b0b0;stroke-linecap:square;stroke-width:0.8;"/>
     </g>
     <g id="line2d_18">
      <defs>
       <path d="M 0 0 
L -3.5 0 
" id="me5811b075a" style="stroke:#000000;stroke-width:0.8;"/>
      </defs>
      <g>
       <use style="stroke:#000000;stroke-width:0.8;" x="57.6" xlink:href="#me5811b075a" y="287.451296"/>
      </g>
     </g>
     <g id="text_10">
      <!-- −1.00 -->
      <defs>
       <path d="M 10.59375 35.5 
L 73.1875 35.5 
L 73.1875 27.203125 
L 10.59375 27.203125 
z
" id="DejaVuSans-8722"/>
      </defs>
      <g transform="translate(19.954687 291.250515)scale(0.1 -0.1)">
       <use xlink:href="#DejaVuSans-8722"/>
       <use x="83.789062" xlink:href="#DejaVuSans-49"/>
       <use x="147.412109" xlink:href="#DejaVuSans-46"/>
       <use x="179.199219" xlink:href="#DejaVuSans-48"/>
       <use x="242.822266" xlink:href="#DejaVuSans-48"/>
      </g>
     </g>
    </g>
    <g id="ytick_2">
     <g id="line2d_19">
      <path clip-path="url(#p8262c21d0c)" d="M 57.6 253.184296 
L 414.72 253.184296 
" style="fill:none;stroke:#b0b0b0;stroke-linecap:square;stroke-width:0.8;"/>
     </g>
     <g id="line2d_20">
      <g>
       <use style="stroke:#000000;stroke-width:0.8;" x="57.6" xlink:href="#me5811b075a" y="253.184296"/>
      </g>
     </g>
     <g id="text_11">
      <!-- −0.75 -->
      <g transform="translate(19.954687 256.983515)scale(0.1 -0.1)">
       <use xlink:href="#DejaVuSans-8722"/>
       <use x="83.789062" xlink:href="#DejaVuSans-48"/>
       <use x="147.412109" xlink:href="#DejaVuSans-46"/>
       <use x="179.199219" xlink:href="#DejaVuSans-55"/>
       <use x="242.822266" xlink:href="#DejaVuSans-53"/>
      </g>
     </g>
    </g>
    <g id="ytick_3">
     <g id="line2d_21">
      <path clip-path="url(#p8262c21d0c)" d="M 57.6 218.917297 
L 414.72 218.917297 
" style="fill:none;stroke:#b0b0b0;stroke-linecap:square;stroke-width:0.8;"/>
     </g>
     <g id="line2d_22">
      <g>
       <use style="stroke:#000000;stroke-width:0.8;" x="57.6" xlink:href="#me5811b075a" y="218.917297"/>
      </g>
     </g>
     <g id="text_12">
      <!-- −0.50 -->
      <g transform="translate(19.954687 222.716515)scale(0.1 -0.1)">
       <use xlink:href="#DejaVuSans-8722"/>
       <use x="83.789062" xlink:href="#DejaVuSans-48"/>
       <use x="147.412109" xlink:href="#DejaVuSans-46"/>
       <use x="179.199219" xlink:href="#DejaVuSans-53"/>
       <use x="242.822266" xlink:href="#DejaVuSans-48"/>
      </g>
     </g>
    </g>
    <g id="ytick_4">
     <g id="line2d_23">
      <path clip-path="url(#p8262c21d0c)" d="M 57.6 184.650297 
L 414.72 184.650297 
" style="fill:none;stroke:#b0b0b0;stroke-linecap:square;stroke-width:0.8;"/>
     </g>
     <g id="line2d_24">
      <g>
       <use style="stroke:#000000;stroke-width:0.8;" x="57.6" xlink:href="#me5811b075a" y="184.650297"/>
      </g>
     </g>
     <g id="text_13">
      <!-- −0.25 -->
      <g transform="translate(19.954687 188.449516)scale(0.1 -0.1)">
       <use xlink:href="#DejaVuSans-8722"/>
       <use x="83.789062" xlink:href="#DejaVuSans-48"/>
       <use x="147.412109" xlink:href="#DejaVuSans-46"/>
       <use x="179.199219" xlink:href="#DejaVuSans-50"/>
       <use x="242.822266" xlink:href="#DejaVuSans-53"/>
      </g>
     </g>
    </g>
    <g id="ytick_5">
     <g id="line2d_25">
      <path clip-path="url(#p8262c21d0c)" d="M 57.6 150.383297 
L 414.72 150.383297 
" style="fill:none;stroke:#b0b0b0;stroke-linecap:square;stroke-width:0.8;"/>
     </g>
     <g id="line2d_26">
      <g>
       <use style="stroke:#000000;stroke-width:0.8;" x="57.6" xlink:href="#me5811b075a" y="150.383297"/>
      </g>
     </g>
     <g id="text_14">
      <!-- 0.00 -->
      <g transform="translate(28.334375 154.182516)scale(0.1 -0.1)">
       <use xlink:href="#DejaVuSans-48"/>
       <use x="63.623047" xlink:href="#DejaVuSans-46"/>
       <use x="95.410156" xlink:href="#DejaVuSans-48"/>
       <use x="159.033203" xlink:href="#DejaVuSans-48"/>
      </g>
     </g>
    </g>
    <g id="ytick_6">
     <g id="line2d_27">
      <path clip-path="url(#p8262c21d0c)" d="M 57.6 116.116297 
L 414.72 116.116297 
" style="fill:none;stroke:#b0b0b0;stroke-linecap:square;stroke-width:0.8;"/>
     </g>
     <g id="line2d_28">
      <g>
       <use style="stroke:#000000;stroke-width:0.8;" x="57.6" xlink:href="#me5811b075a" y="116.116297"/>
      </g>
     </g>
     <g id="text_15">
      <!-- 0.25 -->
      <g transform="translate(28.334375 119.915516)scale(0.1 -0.1)">
       <use xlink:href="#DejaVuSans-48"/>
       <use x="63.623047" xlink:href="#DejaVuSans-46"/>
       <use x="95.410156" xlink:href="#DejaVuSans-50"/>
       <use x="159.033203" xlink:href="#DejaVuSans-53"/>
      </g>
     </g>
    </g>
    <g id="ytick_7">
     <g id="line2d_29">
      <path clip-path="url(#p8262c21d0c)" d="M 57.6 81.849298 
L 414.72 81.849298 
" style="fill:none;stroke:#b0b0b0;stroke-linecap:square;stroke-width:0.8;"/>
     </g>
     <g id="line2d_30">
      <g>
       <use style="stroke:#000000;stroke-width:0.8;" x="57.6" xlink:href="#me5811b075a" y="81.849298"/>
      </g>
     </g>
     <g id="text_16">
      <!-- 0.50 -->
      <g transform="translate(28.334375 85.648516)scale(0.1 -0.1)">
       <use xlink:href="#DejaVuSans-48"/>
       <use x="63.623047" xlink:href="#DejaVuSans-46"/>
       <use x="95.410156" xlink:href="#DejaVuSans-53"/>
       <use x="159.033203" xlink:href="#DejaVuSans-48"/>
      </g>
     </g>
    </g>
    <g id="ytick_8">
     <g id="line2d_31">
      <path clip-path="url(#p8262c21d0c)" d="M 57.6 47.582298 
L 414.72 47.582298 
" style="fill:none;stroke:#b0b0b0;stroke-linecap:square;stroke-width:0.8;"/>
     </g>
     <g id="line2d_32">
      <g>
       <use style="stroke:#000000;stroke-width:0.8;" x="57.6" xlink:href="#me5811b075a" y="47.582298"/>
      </g>
     </g>
     <g id="text_17">
      <!-- 0.75 -->
      <g transform="translate(28.334375 51.381517)scale(0.1 -0.1)">
       <use xlink:href="#DejaVuSans-48"/>
       <use x="63.623047" xlink:href="#DejaVuSans-46"/>
       <use x="95.410156" xlink:href="#DejaVuSans-55"/>
       <use x="159.033203" xlink:href="#DejaVuSans-53"/>
      </g>
     </g>
    </g>
    <g id="text_18">
     <!-- Policy loss -->
     <defs>
      <path d="M 19.671875 64.796875 
L 19.671875 37.40625 
L 32.078125 37.40625 
Q 38.96875 37.40625 42.71875 40.96875 
Q 46.484375 44.53125 46.484375 51.125 
Q 46.484375 57.671875 42.71875 61.234375 
Q 38.96875 64.796875 32.078125 64.796875 
z
M 9.8125 72.90625 
L 32.078125 72.90625 
Q 44.34375 72.90625 50.609375 67.359375 
Q 56.890625 61.8125 56.890625 51.125 
Q 56.890625 40.328125 50.609375 34.8125 
Q 44.34375 29.296875 32.078125 29.296875 
L 19.671875 29.296875 
L 19.671875 0 
L 9.8125 0 
z
" id="DejaVuSans-80"/>
      <path d="M 9.421875 75.984375 
L 18.40625 75.984375 
L 18.40625 0 
L 9.421875 0 
z
" id="DejaVuSans-108"/>
      <path d="M 9.421875 54.6875 
L 18.40625 54.6875 
L 18.40625 0 
L 9.421875 0 
z
M 9.421875 75.984375 
L 18.40625 75.984375 
L 18.40625 64.59375 
L 9.421875 64.59375 
z
" id="DejaVuSans-105"/>
      <path d="M 48.78125 52.59375 
L 48.78125 44.1875 
Q 44.96875 46.296875 41.140625 47.34375 
Q 37.3125 48.390625 33.40625 48.390625 
Q 24.65625 48.390625 19.8125 42.84375 
Q 14.984375 37.3125 14.984375 27.296875 
Q 14.984375 17.28125 19.8125 11.734375 
Q 24.65625 6.203125 33.40625 6.203125 
Q 37.3125 6.203125 41.140625 7.25 
Q 44.96875 8.296875 48.78125 10.40625 
L 48.78125 2.09375 
Q 45.015625 0.34375 40.984375 -0.53125 
Q 36.96875 -1.421875 32.421875 -1.421875 
Q 20.0625 -1.421875 12.78125 6.34375 
Q 5.515625 14.109375 5.515625 27.296875 
Q 5.515625 40.671875 12.859375 48.328125 
Q 20.21875 56 33.015625 56 
Q 37.15625 56 41.109375 55.140625 
Q 45.0625 54.296875 48.78125 52.59375 
z
" id="DejaVuSans-99"/>
      <path d="M 32.171875 -5.078125 
Q 28.375 -14.84375 24.75 -17.8125 
Q 21.140625 -20.796875 15.09375 -20.796875 
L 7.90625 -20.796875 
L 7.90625 -13.28125 
L 13.1875 -13.28125 
Q 16.890625 -13.28125 18.9375 -11.515625 
Q 21 -9.765625 23.484375 -3.21875 
L 25.09375 0.875 
L 2.984375 54.6875 
L 12.5 54.6875 
L 29.59375 11.921875 
L 46.6875 54.6875 
L 56.203125 54.6875 
z
" id="DejaVuSans-121"/>
      <path id="DejaVuSans-32"/>
     </defs>
     <g transform="translate(13.875 200.333469)rotate(-90)scale(0.1 -0.1)">
      <use xlink:href="#DejaVuSans-80"/>
      <use x="60.255859" xlink:href="#DejaVuSans-111"/>
      <use x="121.4375" xlink:href="#DejaVuSans-108"/>
      <use x="149.220703" xlink:href="#DejaVuSans-105"/>
      <use x="177.003906" xlink:href="#DejaVuSans-99"/>
      <use x="231.984375" xlink:href="#DejaVuSans-121"/>
      <use x="291.164062" xlink:href="#DejaVuSans-32"/>
      <use x="322.951172" xlink:href="#DejaVuSans-108"/>
      <use x="350.734375" xlink:href="#DejaVuSans-111"/>
      <use x="411.916016" xlink:href="#DejaVuSans-115"/>
      <use x="464.015625" xlink:href="#DejaVuSans-115"/>
     </g>
    </g>
   </g>
   <g id="line2d_33">
    <path clip-path="url(#p8262c21d0c)" d="M 57.6 127.927993 
L 57.949065 166.533437 
L 57.986779 86.641085 
L 58.691865 217.46045 
L 59.577335 145.42324 
L 59.688589 181.119324 
L 60.543505 220.590751 
L 60.60528 240.729741 
L 60.90941 83.056999 
L 61.132098 164.230563 
L 61.609392 171.701623 
L 61.63408 96.562202 
L 61.777359 166.506749 
L 63.178087 108.254519 
L 63.703335 107.56152 
L 63.920668 232.739761 
L 64.772262 139.784881 
L 65.148771 159.643124 
L 65.344993 246.806995 
L 65.43047 134.519314 
L 65.442679 164.342573 
L 66.110389 235.157958 
L 66.269871 110.76609 
L 66.486756 155.869208 
L 66.609075 81.499684 
L 67.18262 248.981787 
L 67.325522 141.720733 
L 67.89756 111.00046 
L 67.971059 140.635048 
L 68.18692 93.183651 
L 68.211278 159.460171 
L 68.468579 139.268563 
L 68.855969 122.813397 
L 70.365744 131.433939 
L 70.729197 128.917131 
L 70.7415 163.032262 
L 70.81488 95.487433 
L 71.190449 99.075432 
L 71.300573 295.488 
L 72.027843 121.832017 
L 72.403438 140.096657 
L 72.538299 266.583732 
L 73.328939 107.734698 
L 73.561404 127.255153 
L 74.68716 119.385323 
L 75.450481 122.208968 
L 75.487185 277.704177 
L 75.657928 125.203439 
L 75.706767 150.694122 
L 76.383384 98.762329 
L 76.468734 154.281635 
L 76.783075 253.910771 
L 77.052208 152.324477 
L 77.464093 133.227687 
L 77.643513 150.980133 
L 77.814972 120.171528 
L 78.650683 142.4917 
L 78.89153 112.655238 
L 79.087352 236.60197 
L 79.136282 163.124487 
L 79.862813 99.970762 
L 80.575875 124.997318 
L 80.796472 260.530808 
L 80.951666 123.631589 
L 81.12288 131.140826 
L 81.147371 260.902497 
L 81.183797 138.886395 
L 81.811592 139.526715 
L 82.407719 119.969323 
L 82.67234 257.433734 
L 82.782448 126.719266 
L 82.941457 145.810227 
L 82.97807 250.160097 
L 83.120236 152.009131 
L 83.653337 120.037801 
L 83.861025 235.766501 
L 84.06393 123.601666 
L 84.813649 137.295578 
L 85.28603 130.8794 
L 85.831254 171.232022 
L 85.929115 126.349739 
L 85.977803 243.293984 
L 86.10734 104.361857 
L 87.350649 130.383827 
L 87.497175 215.738274 
L 87.643935 114.376548 
L 87.932231 96.701576 
L 87.993448 148.295941 
L 88.005629 133.155364 
L 88.294302 155.846821 
L 88.355491 154.710083 
L 89.140001 177.394159 
L 89.611137 224.253975 
L 90.082236 219.989962 
L 90.094383 146.358504 
L 90.118775 160.951966 
L 90.699368 106.181851 
L 90.95049 107.172356 
L 91.03583 150.009904 
L 91.385001 103.589553 
L 91.519225 158.289652 
L 91.648872 132.064236 
L 92.046909 159.537158 
L 92.23048 154.807231 
L 92.303621 139.525847 
L 94.089764 154.184328 
L 94.848493 174.600737 
L 95.063159 187.462222 
L 95.53406 200.58692 
L 96.97349 96.963675 
L 97.928561 199.353708 
L 98.553612 110.686842 
L 98.927171 131.941379 
L 98.963687 100.963538 
L 99.758803 189.930059 
L 100.601549 101.013881 
L 101.07261 104.219194 
L 101.531384 146.946247 
L 101.702285 207.723886 
L 101.726591 85.525037 
L 101.738785 204.285515 
L 102.532918 143.981021 
L 103.528749 102.941922 
L 103.962577 112.034167 
L 104.231105 145.781898 
L 104.507128 212.6489 
L 104.690212 206.008463 
L 104.929061 163.175982 
L 106.568687 144.249226 
L 106.788458 113.411982 
L 106.812897 202.401428 
L 107.340633 115.841017 
L 107.5114 165.949627 
L 108.465249 99.21238 
L 109.185777 134.884053 
L 109.546424 196.70887 
L 109.570972 95.505639 
L 110.137788 162.943809 
L 111.388059 103.726129 
L 111.772323 155.407932 
L 112.455544 124.538595 
L 112.492126 109.932884 
L 113.333063 117.279351 
L 113.467298 162.638653 
L 114.442958 194.91091 
L 114.632501 154.981344 
L 114.656828 109.490407 
L 114.729965 211.883937 
L 115.077925 178.830225 
L 115.138735 150.003348 
L 115.175215 221.993914 
L 115.595518 127.124053 
L 116.303402 174.07404 
L 116.327763 156.713363 
L 117.400111 171.469855 
L 117.845547 140.717085 
L 118.650699 195.674063 
L 118.901169 168.789743 
L 119.156597 186.235296 
L 119.864811 59.402085 
L 121.006775 187.99074 
L 121.055386 121.936741 
L 121.152556 145.826109 
L 121.647097 131.865271 
L 122.185957 168.025863 
L 122.283017 129.254913 
L 122.691854 113.737013 
L 122.862624 206.7695 
L 123.372414 165.910804 
L 123.561804 160.830615 
L 124.116068 167.348962 
L 125.030631 209.575057 
L 125.183398 90.046523 
L 125.219951 189.641732 
L 126.230032 214.935758 
L 126.254247 175.771085 
L 126.997116 90.212205 
L 127.380051 156.917708 
L 128.268271 200.317857 
L 128.785131 165.308254 
L 130.007144 175.329705 
L 130.244465 191.590222 
L 130.415027 187.911574 
L 131.241862 214.87361 
L 132.526381 171.1003 
L 132.550673 190.503912 
L 132.983172 135.468694 
L 133.487816 160.26029 
L 134.504666 217.181714 
L 134.735292 152.025794 
L 135.320803 142.37725 
L 135.357253 126.079457 
L 136.045005 69.730321 
L 136.476971 109.585986 
L 136.726089 171.642573 
L 136.762476 99.998478 
L 137.218932 216.183803 
L 137.328125 78.973439 
L 137.851496 178.009468 
L 138.106408 126.727497 
L 138.440398 197.444703 
L 138.573872 125.056722 
L 138.944014 125.141362 
L 139.229929 186.781253 
L 139.290447 145.830453 
L 140.707686 79.612676 
L 140.872036 91.929614 
L 141.523206 81.816798 
L 141.796758 172.438302 
L 141.954905 112.685892 
L 142.228778 200.062491 
L 143.007857 163.306475 
L 143.329911 158.040496 
L 143.390672 171.006947 
L 143.682401 95.705348 
L 143.993694 119.875507 
L 144.195011 71.512043 
L 144.486667 197.758153 
L 145.780381 103.119968 
L 145.871676 179.910813 
L 146.114293 201.610677 
L 146.854963 140.513929 
L 146.976317 173.519844 
L 147.249447 132.671931 
L 147.991187 265.071387 
L 148.100284 117.297404 
L 148.282314 87.060788 
L 148.507639 104.099268 
L 148.543906 178.920896 
L 148.689385 82.552517 
L 149.059764 82.086151 
L 149.108277 213.294121 
L 149.284892 139.868369 
L 150.542707 105.025472 
L 150.821407 198.288914 
L 151.696555 164.695299 
L 152.128642 85.111771 
L 152.487342 190.852297 
L 152.797368 158.049916 
L 154.043406 112.875184 
L 154.140315 197.495642 
L 154.680775 200.628301 
L 155.505704 92.846704 
L 155.925059 220.939271 
L 156.653121 206.619938 
L 156.786362 82.646944 
L 157.047677 197.87564 
L 157.168477 183.129531 
L 157.180571 167.90023 
L 157.454138 168.542902 
L 157.775403 198.204103 
L 158.005721 121.962 
L 158.564199 183.348262 
L 158.600543 151.218324 
L 158.685232 161.411694 
L 158.806429 157.398136 
L 158.842717 131.795677 
L 159.067292 118.176682 
L 159.509904 117.915372 
L 160.825785 177.470357 
L 161.292802 152.796059 
L 161.541395 100.65564 
L 161.723025 95.82288 
L 161.898985 185.769719 
L 161.971547 111.121488 
L 163.110734 202.744212 
L 163.37146 90.667566 
L 163.837083 153.135975 
L 164.73376 206.029864 
L 165.164331 192.727826 
L 165.965263 119.717362 
L 166.432876 87.935159 
L 166.609604 183.350913 
L 166.754858 174.621653 
L 167.003462 103.378905 
L 168.514455 218.415559 
L 168.562965 139.559038 
L 168.98203 203.024721 
L 169.097849 103.241034 
L 169.843794 140.207558 
L 170.019795 185.345783 
L 170.595068 183.880183 
L 170.667727 205.21919 
L 170.989488 70.779392 
L 171.202438 190.520179 
L 172.376874 217.11216 
L 172.455714 156.699224 
L 172.79487 84.873709 
L 172.958769 84.382257 
L 173.746806 95.681121 
L 174.061091 220.332591 
L 174.213106 95.367911 
L 174.655233 159.3465 
L 174.776125 194.604457 
L 175.418091 170.191462 
L 175.478537 196.985212 
L 177.148864 188.431624 
L 177.185155 192.577651 
L 177.481739 70.768526 
L 177.947764 112.184175 
L 178.032389 173.019168 
L 178.237813 202.208602 
L 178.341104 168.69589 
L 178.594889 69.64872 
L 178.679425 183.394677 
L 178.999804 104.386877 
L 179.248208 213.849559 
L 179.465791 76.647652 
L 179.538324 173.779036 
L 179.701706 193.01465 
L 180.440084 168.999795 
L 182.626639 114.254947 
L 182.711365 165.613434 
L 183.081717 187.81994 
L 183.693337 149.643484 
L 183.845297 102.516422 
L 184.275488 111.909715 
L 184.52979 211.763656 
L 185.135684 189.773467 
L 185.171928 214.808745 
L 185.413859 186.415818 
L 185.541377 195.556617 
L 185.898581 110.139848 
L 186.830666 128.42107 
L 186.93954 175.779147 
L 187.024159 164.553515 
L 187.22436 173.441778 
L 187.490198 204.558859 
L 188.035699 160.996093 
L 188.325822 107.00906 
L 188.441151 179.45111 
L 188.719143 137.870841 
L 188.979147 125.962728 
L 189.911239 136.952185 
L 190.529486 159.651051 
L 190.868609 164.442784 
L 190.947506 126.072635 
L 191.474362 93.107156 
L 191.808093 153.495369 
L 192.681447 170.946521 
L 193.711495 150.594267 
L 193.77196 179.349685 
L 193.808275 125.233481 
L 194.16553 195.467369 
L 194.486259 201.78251 
L 194.782783 97.584292 
L 194.976193 209.104888 
L 195.309292 96.583889 
L 195.514895 145.848988 
L 196.502534 73.460104 
L 196.744613 90.321767 
L 196.872152 113.548485 
L 198.369407 87.50378 
L 198.406473 220.277894 
L 198.763854 161.482415 
L 199.621687 202.297327 
L 199.669969 79.159378 
L 200.063011 234.909831 
L 200.493938 197.118002 
L 200.506016 154.459073 
L 201.110544 58.791925 
L 201.219256 206.671041 
L 201.424555 235.285964 
L 201.636578 106.175862 
L 201.830061 225.218479 
L 202.079086 124.765949 
L 202.607802 108.412594 
L 203.098093 113.85756 
L 203.249819 214.87323 
L 203.26191 105.165206 
L 203.655638 198.710828 
L 204.036638 195.082482 
L 204.350601 106.818784 
L 204.502593 131.303466 
L 204.671663 186.599559 
L 205.174013 210.85047 
L 205.210251 182.466614 
L 205.70667 205.923333 
L 205.755029 87.413009 
L 206.032902 120.99556 
L 206.172354 214.766703 
L 206.698479 216.001663 
L 206.770991 152.612933 
L 206.970865 100.057338 
L 207.031397 117.451268 
L 207.890168 210.727885 
L 208.119618 75.476539 
L 208.271498 191.085588 
L 208.857695 184.746068 
L 209.178233 112.452098 
L 209.202245 135.929037 
L 209.214272 93.774795 
L 210.011987 145.960023 
L 210.156931 205.069424 
L 211.358437 95.562894 
L 212.145627 184.582765 
L 212.871611 205.727844 
L 213.11345 238.778216 
L 213.530351 77.946533 
L 213.681754 206.554322 
L 213.886899 180.166592 
L 213.983522 190.798429 
L 214.13467 93.279083 
L 214.551719 219.403258 
L 215.209644 90.881172 
L 215.396982 179.932035 
L 215.529753 97.895749 
L 215.765205 236.097398 
L 216.24224 69.526662 
L 216.71871 232.362337 
L 217.087307 78.878342 
L 217.673298 89.581841 
L 218.22342 80.660178 
L 219.033863 88.818038 
L 219.233732 88.609587 
L 219.257909 74.099782 
L 219.554417 207.810295 
L 219.614758 200.669763 
L 219.783816 80.483537 
L 220.007846 100.429035 
L 220.092354 152.146827 
L 220.321752 210.078894 
L 220.509898 116.136169 
L 221.810201 121.691738 
L 221.991345 87.271318 
L 222.166928 234.015669 
L 222.215301 84.445353 
L 222.408737 209.131734 
L 222.850115 205.098521 
L 223.001597 68.630988 
L 223.861379 146.050108 
L 223.897684 98.801953 
L 224.091321 188.679756 
L 225.271633 79.18093 
L 225.380449 153.606288 
L 225.798005 91.05526 
L 226.106547 96.920656 
L 226.414968 141.704111 
L 227.381654 132.814136 
L 228.380054 144.014899 
L 228.97787 76.465684 
L 229.358622 188.302246 
L 230.156034 108.000619 
L 230.349215 175.792243 
L 230.766096 181.400858 
L 231.159293 203.952204 
L 231.503616 177.685146 
L 231.763806 215.981864 
L 231.993392 92.359811 
L 232.597493 195.904924 
L 232.839024 194.94198 
L 233.624751 208.056744 
L 233.872856 195.710926 
L 234.198361 105.605751 
L 234.253093 250.703542 
L 234.349621 180.761865 
L 234.494468 234.367505 
L 234.682194 195.563933 
L 234.863281 184.731873 
L 234.911489 81.444888 
L 235.159516 191.266633 
L 235.637013 95.218304 
L 235.818234 91.256668 
L 235.981363 98.932177 
L 236.017593 200.414352 
L 236.162578 98.756381 
L 236.17464 210.732542 
L 236.222857 82.192899 
L 236.603513 209.855194 
L 237.625033 78.606121 
L 238.102364 197.110718 
L 238.784384 207.692632 
L 238.875452 70.970044 
L 239.117054 124.049076 
L 239.79446 152.26024 
L 240.187983 208.609629 
L 240.738184 84.641586 
L 241.620675 232.115663 
L 241.71711 191.226666 
L 241.832184 92.84438 
L 242.551064 216.03172 
L 243.119571 240.77153 
L 243.42143 205.108872 
L 243.548699 219.338985 
L 243.814145 123.14703 
L 244.266626 167.854936 
L 244.774398 177.801993 
L 245.051998 55.82436 
L 245.287744 190.051876 
L 246.013329 201.271912 
L 246.254522 211.186114 
L 246.290644 168.766514 
L 246.454312 164.752816 
L 246.526882 92.153223 
L 246.76862 110.479597 
L 246.792762 83.636951 
L 247.910824 181.98439 
L 249.017143 101.724237 
L 249.826831 74.137053 
L 249.898965 190.869588 
L 250.218811 184.898204 
L 250.70805 192.39902 
L 250.720095 69.360151 
L 250.792493 186.230819 
L 250.901161 93.879942 
L 251.149077 139.490532 
L 251.293847 208.054967 
L 251.366338 112.976637 
L 252.16546 235.209429 
L 252.854746 194.913271 
L 253.465533 188.998091 
L 253.942893 159.882797 
L 254.275477 198.46241 
L 254.311729 194.939206 
L 255.344852 194.832312 
L 255.417203 94.334796 
L 255.821851 118.351595 
L 255.930543 220.588456 
L 255.978866 93.218352 
L 256.094154 200.829427 
L 256.848367 92.750042 
L 257.289454 200.898606 
L 257.301558 184.468082 
L 257.440449 104.442588 
L 257.488915 219.842872 
L 258.225089 83.647752 
L 258.550581 107.027246 
L 258.822124 181.789214 
L 259.262353 182.688851 
L 259.27443 94.703381 
L 259.606839 192.918923 
L 260.620936 200.055894 
L 261.46673 162.783684 
L 262.05945 218.266267 
L 262.107672 96.699281 
L 262.68081 159.653078 
L 262.952548 154.219142 
L 263.846123 80.014079 
L 263.930699 111.530212 
L 264.6319 205.042153 
L 264.837118 67.390203 
L 264.952009 220.582712 
L 265.942979 210.314219 
L 266.015445 100.694087 
L 266.396191 102.060101 
L 266.644572 100.988763 
L 266.668786 179.107031 
L 267.097723 210.200891 
L 267.515127 79.365831 
L 268.312909 205.459463 
L 270.208624 173.561898 
L 270.540877 188.867324 
L 270.649472 83.502973 
L 270.721781 197.054844 
L 271.362145 201.018107 
L 271.398292 113.382056 
L 271.670391 223.1297 
L 271.899492 66.215634 
L 273.528037 214.439838 
L 273.600308 88.660976 
L 274.444319 99.080567 
L 274.999851 156.594191 
L 275.25301 54.540552 
L 276.049544 187.807387 
L 276.249067 104.877275 
L 276.369673 117.046983 
L 276.417841 215.116305 
L 277.026703 211.88812 
L 278.022773 70.540896 
L 278.330874 108.942693 
L 278.535751 198.654982 
L 279.175677 91.747797 
L 279.627433 184.525355 
L 280.496295 171.014686 
L 281.18974 208.063496 
L 281.545944 201.072624 
L 281.606302 197.177033 
L 282.590055 96.950133 
L 282.638326 176.520942 
L 283.067049 218.709765 
L 283.700162 104.157467 
L 284.412089 117.280364 
L 284.532649 83.094054 
L 284.544737 173.9945 
L 284.888145 176.631405 
L 285.039192 57.711098 
L 285.208032 214.64817 
L 285.756864 196.791798 
L 286.101046 226.829884 
L 288.026338 101.323483 
L 288.442666 201.115635 
L 288.895702 71.207339 
L 289.172802 206.140366 
L 289.716655 226.717262 
L 290.326416 176.288115 
L 290.422742 202.224963 
L 290.634325 98.055907 
L 290.766653 256.405202 
L 291.026414 172.454255 
L 291.050583 230.809118 
L 291.370285 174.495839 
L 291.382322 65.66473 
L 291.394403 254.870202 
L 291.430639 159.877643 
L 291.659806 183.472066 
L 292.124562 194.564874 
L 292.372646 95.627698 
L 292.541382 183.185372 
L 292.837813 90.190808 
L 292.958418 99.056036 
L 293.21848 194.05578 
L 293.991257 92.88864 
L 294.419911 97.230462 
L 294.588863 196.679454 
L 294.703873 75.451727 
L 294.873075 192.294487 
L 294.981807 80.503684 
L 295.108923 124.460459 
L 295.120994 177.859734 
L 295.169227 75.510354 
L 295.470943 120.282488 
L 295.634413 103.897378 
L 295.875434 111.193571 
L 296.086882 203.741837 
L 296.563661 83.066113 
L 296.835487 203.611691 
L 297.469978 102.335046 
L 297.542541 234.117286 
L 297.911462 148.990247 
L 298.413754 189.588987 
L 299.925659 96.824415 
L 300.034336 216.861855 
L 300.306814 107.525904 
L 300.415455 192.381083 
L 300.796172 85.981407 
L 301.249954 221.599594 
L 301.26202 85.552386 
L 301.44961 186.703488 
L 301.963443 204.532675 
L 302.307834 199.083154 
L 302.513464 86.408607 
L 303.130498 186.082258 
L 303.420342 182.612277 
L 303.728606 90.011103 
L 304.109106 197.01549 
L 304.846715 101.374704 
L 305.420923 242.448237 
L 306.622447 73.710756 
L 306.634572 246.696252 
L 307.812377 149.127326 
L 307.908964 211.247425 
L 308.494263 209.931346 
L 309.3029 219.456485 
L 310.123965 74.565277 
L 310.251254 180.56255 
L 310.601473 207.110197 
L 311.133022 102.917028 
L 311.33805 85.00303 
L 311.930114 174.879567 
L 312.552193 77.291766 
L 313.077359 114.895405 
L 313.421218 105.576388 
L 313.693256 236.862442 
L 313.75347 216.616492 
L 314.13387 183.633407 
L 314.194252 209.569477 
L 314.339153 223.694304 
L 314.634828 94.183257 
L 315.286334 170.880377 
L 315.539488 91.989785 
L 316.028885 96.832515 
L 316.264331 171.930923 
L 317.049587 229.67057 
L 317.623241 89.383819 
L 317.671518 162.818678 
L 318.015778 143.640298 
L 318.37187 77.022184 
L 319.573659 209.351014 
L 320.503967 202.465353 
L 320.72759 208.287989 
L 320.763675 105.413379 
L 321.028954 201.398276 
L 321.144163 78.126532 
L 321.42168 167.013453 
L 321.765607 177.693734 
L 321.989416 164.98672 
L 322.51419 180.359914 
L 322.586664 198.118176 
L 322.755579 161.947469 
L 322.931393 213.832374 
L 323.03993 162.847968 
L 323.680332 180.626398 
L 323.764714 237.94349 
L 323.812927 111.851047 
L 323.885332 212.252031 
L 324.682654 93.395414 
L 325.050901 81.9331 
L 325.371099 76.356648 
L 326.300739 91.730146 
L 326.421104 91.212563 
L 326.608553 69.094728 
L 327.049148 75.122448 
L 327.145675 170.932789 
L 327.254289 92.935494 
L 327.3387 206.081253 
L 327.906173 207.425485 
L 328.123178 77.334617 
L 328.274045 191.911556 
L 329.276249 99.575405 
L 329.288346 153.178119 
L 329.312419 90.217985 
L 329.861694 99.880734 
L 329.897854 72.153804 
L 330.314174 222.873247 
L 330.682334 160.065727 
L 330.718492 233.912769 
L 330.821323 233.013983 
L 331.539011 78.736129 
L 331.76237 94.420441 
L 331.870969 269.599018 
L 331.895116 189.602153 
L 332.408648 88.929271 
L 332.571631 88.380405 
L 332.740619 225.564261 
L 333.320637 93.034387 
L 333.344743 208.58514 
L 333.609703 248.894402 
L 333.929772 208.709155 
L 334.46743 69.594415 
L 334.666736 195.100386 
L 334.678769 173.768192 
L 334.907804 162.851714 
L 334.919866 212.292554 
L 334.986658 189.105566 
L 335.046826 190.688486 
L 335.17959 94.26478 
L 336.676746 99.01698 
L 336.68879 165.085728 
L 336.893905 82.824705 
L 336.942207 183.641542 
L 337.431385 207.711043 
L 337.848384 93.354683 
L 337.939121 193.484047 
L 337.951191 116.571136 
L 338.464198 239.793529 
L 338.572817 77.651543 
L 338.90488 193.963775 
L 339.345362 91.167228 
L 339.677732 237.249777 
L 339.689778 70.807602 
L 340.16683 161.967571 
L 340.668152 230.411163 
L 341.193083 193.512707 
L 341.308005 93.048239 
L 341.332136 209.179279 
L 341.34417 53.568 
L 341.760577 212.258914 
L 341.868946 96.676515 
L 341.916984 196.815038 
L 343.644074 171.272742 
L 343.964032 221.896185 
L 344.157042 84.492339 
L 345.107511 88.631307 
L 345.204048 205.079975 
L 346.098173 83.660435 
L 346.357999 212.487716 
L 347.347852 159.77003 
L 347.861764 63.456099 
L 347.873842 175.062415 
L 348.720005 209.614779 
L 348.919672 195.133033 
L 349.052497 87.804081 
L 349.565732 210.057636 
L 349.982635 72.382773 
L 350.182177 168.700594 
L 350.574895 93.330219 
L 350.586964 177.215857 
L 351.124349 183.502811 
L 351.456403 181.25293 
L 351.52891 209.01265 
L 351.812355 190.155303 
L 351.884696 113.658639 
L 352.13782 213.498826 
L 352.252969 89.331241 
L 353.06167 78.019842 
L 353.815763 236.500132 
L 354.244859 166.285375 
L 354.372165 99.666736 
L 355.471016 199.11315 
L 357.252286 181.234288 
L 357.5538 195.979123 
L 357.753392 93.334557 
L 358.206361 201.328644 
L 358.399498 79.920305 
L 358.526425 195.746837 
L 358.538479 79.122548 
L 358.707425 191.34787 
L 359.088045 75.478238 
L 360.005552 214.021262 
L 360.041839 197.183871 
L 360.494641 205.86272 
L 360.633561 214.087801 
L 361.074045 205.072214 
L 361.15849 213.473197 
L 361.586987 149.494503 
L 362.813699 217.147086 
L 363.006916 97.118506 
L 364.470012 75.869952 
L 364.55464 183.874713 
L 364.699399 220.486626 
L 365.37713 90.669788 
L 365.546228 207.36462 
L 365.649369 208.443715 
L 366.76054 185.855245 
L 366.796688 128.969694 
L 366.808789 156.956645 
L 368.783938 189.923188 
L 368.832045 168.274863 
L 368.844129 226.935618 
L 369.272625 195.278053 
L 369.435962 199.518401 
L 369.633554 96.508591 
L 369.745001 190.10387 
L 369.865166 114.376997 
L 370.160931 178.244575 
L 370.328272 189.402382 
L 370.694096 131.084523 
L 370.718997 183.270693 
L 370.829872 178.237534 
L 371.293561 123.208113 
L 371.616357 100.969592 
L 372.07148 220.263572 
L 372.277165 209.266713 
L 372.611413 82.899549 
L 372.885008 213.465517 
L 373.054434 170.580685 
L 373.495872 193.646901 
L 375.029235 200.267555 
L 375.663122 156.565477 
L 376.485073 202.87864 
L 376.769065 208.363609 
L 376.901778 73.836997 
L 377.186162 59.971012 
L 377.9944 100.825594 
L 378.151321 150.277114 
L 378.641711 77.110958 
L 378.926749 82.946195 
L 379.059579 210.196516 
L 380.38639 106.421629 
L 381.518609 210.07978 
L 382.253974 165.521296 
L 382.741804 84.573429 
L 382.765837 127.04032 
L 383.157032 203.831678 
L 383.66949 94.869458 
L 384.332903 168.043083 
L 384.996617 211.555107 
L 385.020777 161.983862 
L 385.117163 185.72226 
L 385.520671 207.54325 
L 385.761321 172.295008 
L 385.840345 188.067704 
L 386.00849 147.966 
L 386.779769 66.858261 
L 388.063524 221.042996 
L 388.648676 207.534075 
L 388.696934 84.662525 
L 389.505511 81.014482 
L 390.146012 201.420833 
L 390.550934 196.313709 
L 390.859365 145.406697 
L 390.955801 201.772751 
L 391.184888 80.585228 
L 391.801014 200.225799 
L 392.597963 156.78537 
L 393.002243 165.832034 
L 393.194999 185.072607 
L 393.2672 82.570813 
L 393.846929 193.893546 
L 394.100285 120.472339 
L 394.432413 204.750014 
L 394.728392 98.04913 
L 395.241216 178.836322 
L 396.406422 107.526226 
L 396.502992 111.737727 
L 397.372306 81.624152 
L 397.716486 98.104436 
L 397.988238 228.904194 
L 398.00027 91.297011 
L 398.02439 106.945854 
L 399.06441 213.173954 
L 399.863055 80.215361 
L 401.590822 206.485266 
L 401.638964 157.287378 
L 401.874566 238.908191 
L 402.278671 197.305398 
L 402.302738 182.777811 
L 403.063399 126.850731 
L 403.503716 74.827662 
L 403.804722 74.251309 
L 404.625974 187.633148 
L 405.005931 217.192249 
L 405.066209 199.212328 
L 405.537066 185.236662 
L 406.001671 200.799121 
L 406.194404 127.166003 
L 406.441916 196.395309 
L 406.978641 105.771751 
L 407.69074 104.708636 
L 408.239786 183.988689 
L 408.408748 157.501173 
L 408.644428 185.753804 
L 408.940231 97.59919 
L 409.048892 201.018143 
L 409.242096 85.415446 
L 409.321144 173.98642 
L 410.088428 158.400819 
L 410.100507 222.702537 
L 410.312449 167.430295 
L 411.576898 115.508788 
L 411.770369 190.046113 
L 411.970238 195.708933 
L 412.10345 118.542107 
L 413.153735 153.080395 
L 413.443847 116.218147 
L 413.559514 178.011753 
L 414.381882 207.250531 
L 414.72 121.571964 
L 414.72 121.571964 
" style="fill:none;stroke:#000000;stroke-linecap:square;stroke-width:0.8;"/>
   </g>
   <g id="patch_3">
    <path d="M 57.6 307.584 
L 57.6 41.472 
" style="fill:none;stroke:#000000;stroke-linecap:square;stroke-linejoin:miter;stroke-width:0.8;"/>
   </g>
   <g id="patch_4">
    <path d="M 414.72 307.584 
L 414.72 41.472 
" style="fill:none;stroke:#000000;stroke-linecap:square;stroke-linejoin:miter;stroke-width:0.8;"/>
   </g>
   <g id="patch_5">
    <path d="M 57.6 307.584 
L 414.72 307.584 
" style="fill:none;stroke:#000000;stroke-linecap:square;stroke-linejoin:miter;stroke-width:0.8;"/>
   </g>
   <g id="patch_6">
    <path d="M 57.6 41.472 
L 414.72 41.472 
" style="fill:none;stroke:#000000;stroke-linecap:square;stroke-linejoin:miter;stroke-width:0.8;"/>
   </g>
  </g>
  <g id="axes_2">
   <g id="matplotlib.axis_3">
    <g id="xtick_9">
     <g id="line2d_34">
      <defs>
       <path d="M 0 0 
L 0 -3.5 
" id="md4bb375adb" style="stroke:#000000;stroke-width:0.8;"/>
      </defs>
      <g>
       <use style="stroke:#000000;stroke-width:0.8;" x="57.6" xlink:href="#md4bb375adb" y="41.472"/>
      </g>
     </g>
    </g>
    <g id="xtick_10">
     <g id="line2d_35">
      <g>
       <use style="stroke:#000000;stroke-width:0.8;" x="99.714797" xlink:href="#md4bb375adb" y="41.472"/>
      </g>
     </g>
     <g id="text_19">
      <!-- 10.0M -->
      <defs>
       <path d="M 9.8125 72.90625 
L 24.515625 72.90625 
L 43.109375 23.296875 
L 61.8125 72.90625 
L 76.515625 72.90625 
L 76.515625 0 
L 66.890625 0 
L 66.890625 64.015625 
L 48.09375 14.015625 
L 38.1875 14.015625 
L 19.390625 64.015625 
L 19.390625 0 
L 9.8125 0 
z
" id="DejaVuSans-77"/>
      </defs>
      <g transform="translate(84.267922 32.392313)scale(0.1 -0.1)">
       <use xlink:href="#DejaVuSans-49"/>
       <use x="63.623047" xlink:href="#DejaVuSans-48"/>
       <use x="127.246094" xlink:href="#DejaVuSans-46"/>
       <use x="159.033203" xlink:href="#DejaVuSans-48"/>
       <use x="222.65625" xlink:href="#DejaVuSans-77"/>
      </g>
     </g>
    </g>
    <g id="xtick_11">
     <g id="line2d_36">
      <g>
       <use style="stroke:#000000;stroke-width:0.8;" x="141.829595" xlink:href="#md4bb375adb" y="41.472"/>
      </g>
     </g>
     <g id="text_20">
      <!-- 20.0M -->
      <g transform="translate(126.38272 32.392313)scale(0.1 -0.1)">
       <use xlink:href="#DejaVuSans-50"/>
       <use x="63.623047" xlink:href="#DejaVuSans-48"/>
       <use x="127.246094" xlink:href="#DejaVuSans-46"/>
       <use x="159.033203" xlink:href="#DejaVuSans-48"/>
       <use x="222.65625" xlink:href="#DejaVuSans-77"/>
      </g>
     </g>
    </g>
    <g id="xtick_12">
     <g id="line2d_37">
      <g>
       <use style="stroke:#000000;stroke-width:0.8;" x="183.944392" xlink:href="#md4bb375adb" y="41.472"/>
      </g>
     </g>
     <g id="text_21">
      <!-- 30.0M -->
      <defs>
       <path d="M 40.578125 39.3125 
Q 47.65625 37.796875 51.625 33 
Q 55.609375 28.21875 55.609375 21.1875 
Q 55.609375 10.40625 48.1875 4.484375 
Q 40.765625 -1.421875 27.09375 -1.421875 
Q 22.515625 -1.421875 17.65625 -0.515625 
Q 12.796875 0.390625 7.625 2.203125 
L 7.625 11.71875 
Q 11.71875 9.328125 16.59375 8.109375 
Q 21.484375 6.890625 26.8125 6.890625 
Q 36.078125 6.890625 40.9375 10.546875 
Q 45.796875 14.203125 45.796875 21.1875 
Q 45.796875 27.640625 41.28125 31.265625 
Q 36.765625 34.90625 28.71875 34.90625 
L 20.21875 34.90625 
L 20.21875 43.015625 
L 29.109375 43.015625 
Q 36.375 43.015625 40.234375 45.921875 
Q 44.09375 48.828125 44.09375 54.296875 
Q 44.09375 59.90625 40.109375 62.90625 
Q 36.140625 65.921875 28.71875 65.921875 
Q 24.65625 65.921875 20.015625 65.03125 
Q 15.375 64.15625 9.8125 62.3125 
L 9.8125 71.09375 
Q 15.4375 72.65625 20.34375 73.4375 
Q 25.25 74.21875 29.59375 74.21875 
Q 40.828125 74.21875 47.359375 69.109375 
Q 53.90625 64.015625 53.90625 55.328125 
Q 53.90625 49.265625 50.4375 45.09375 
Q 46.96875 40.921875 40.578125 39.3125 
z
" id="DejaVuSans-51"/>
      </defs>
      <g transform="translate(168.497517 32.392313)scale(0.1 -0.1)">
       <use xlink:href="#DejaVuSans-51"/>
       <use x="63.623047" xlink:href="#DejaVuSans-48"/>
       <use x="127.246094" xlink:href="#DejaVuSans-46"/>
       <use x="159.033203" xlink:href="#DejaVuSans-48"/>
       <use x="222.65625" xlink:href="#DejaVuSans-77"/>
      </g>
     </g>
    </g>
    <g id="xtick_13">
     <g id="line2d_38">
      <g>
       <use style="stroke:#000000;stroke-width:0.8;" x="226.059189" xlink:href="#md4bb375adb" y="41.472"/>
      </g>
     </g>
     <g id="text_22">
      <!-- 40.0M -->
      <defs>
       <path d="M 37.796875 64.3125 
L 12.890625 25.390625 
L 37.796875 25.390625 
z
M 35.203125 72.90625 
L 47.609375 72.90625 
L 47.609375 25.390625 
L 58.015625 25.390625 
L 58.015625 17.1875 
L 47.609375 17.1875 
L 47.609375 0 
L 37.796875 0 
L 37.796875 17.1875 
L 4.890625 17.1875 
L 4.890625 26.703125 
z
" id="DejaVuSans-52"/>
      </defs>
      <g transform="translate(210.612314 32.392313)scale(0.1 -0.1)">
       <use xlink:href="#DejaVuSans-52"/>
       <use x="63.623047" xlink:href="#DejaVuSans-48"/>
       <use x="127.246094" xlink:href="#DejaVuSans-46"/>
       <use x="159.033203" xlink:href="#DejaVuSans-48"/>
       <use x="222.65625" xlink:href="#DejaVuSans-77"/>
      </g>
     </g>
    </g>
    <g id="xtick_14">
     <g id="line2d_39">
      <g>
       <use style="stroke:#000000;stroke-width:0.8;" x="268.173986" xlink:href="#md4bb375adb" y="41.472"/>
      </g>
     </g>
     <g id="text_23">
      <!-- 50.0M -->
      <g transform="translate(252.727111 32.392313)scale(0.1 -0.1)">
       <use xlink:href="#DejaVuSans-53"/>
       <use x="63.623047" xlink:href="#DejaVuSans-48"/>
       <use x="127.246094" xlink:href="#DejaVuSans-46"/>
       <use x="159.033203" xlink:href="#DejaVuSans-48"/>
       <use x="222.65625" xlink:href="#DejaVuSans-77"/>
      </g>
     </g>
    </g>
    <g id="xtick_15">
     <g id="line2d_40">
      <g>
       <use style="stroke:#000000;stroke-width:0.8;" x="310.288784" xlink:href="#md4bb375adb" y="41.472"/>
      </g>
     </g>
     <g id="text_24">
      <!-- 60.0M -->
      <defs>
       <path d="M 33.015625 40.375 
Q 26.375 40.375 22.484375 35.828125 
Q 18.609375 31.296875 18.609375 23.390625 
Q 18.609375 15.53125 22.484375 10.953125 
Q 26.375 6.390625 33.015625 6.390625 
Q 39.65625 6.390625 43.53125 10.953125 
Q 47.40625 15.53125 47.40625 23.390625 
Q 47.40625 31.296875 43.53125 35.828125 
Q 39.65625 40.375 33.015625 40.375 
z
M 52.59375 71.296875 
L 52.59375 62.3125 
Q 48.875 64.0625 45.09375 64.984375 
Q 41.3125 65.921875 37.59375 65.921875 
Q 27.828125 65.921875 22.671875 59.328125 
Q 17.53125 52.734375 16.796875 39.40625 
Q 19.671875 43.65625 24.015625 45.921875 
Q 28.375 48.1875 33.59375 48.1875 
Q 44.578125 48.1875 50.953125 41.515625 
Q 57.328125 34.859375 57.328125 23.390625 
Q 57.328125 12.15625 50.6875 5.359375 
Q 44.046875 -1.421875 33.015625 -1.421875 
Q 20.359375 -1.421875 13.671875 8.265625 
Q 6.984375 17.96875 6.984375 36.375 
Q 6.984375 53.65625 15.1875 63.9375 
Q 23.390625 74.21875 37.203125 74.21875 
Q 40.921875 74.21875 44.703125 73.484375 
Q 48.484375 72.75 52.59375 71.296875 
z
" id="DejaVuSans-54"/>
      </defs>
      <g transform="translate(294.841909 32.392313)scale(0.1 -0.1)">
       <use xlink:href="#DejaVuSans-54"/>
       <use x="63.623047" xlink:href="#DejaVuSans-48"/>
       <use x="127.246094" xlink:href="#DejaVuSans-46"/>
       <use x="159.033203" xlink:href="#DejaVuSans-48"/>
       <use x="222.65625" xlink:href="#DejaVuSans-77"/>
      </g>
     </g>
    </g>
    <g id="xtick_16">
     <g id="line2d_41">
      <g>
       <use style="stroke:#000000;stroke-width:0.8;" x="352.403581" xlink:href="#md4bb375adb" y="41.472"/>
      </g>
     </g>
     <g id="text_25">
      <!-- 70.0M -->
      <g transform="translate(336.956706 32.392313)scale(0.1 -0.1)">
       <use xlink:href="#DejaVuSans-55"/>
       <use x="63.623047" xlink:href="#DejaVuSans-48"/>
       <use x="127.246094" xlink:href="#DejaVuSans-46"/>
       <use x="159.033203" xlink:href="#DejaVuSans-48"/>
       <use x="222.65625" xlink:href="#DejaVuSans-77"/>
      </g>
     </g>
    </g>
    <g id="xtick_17">
     <g id="line2d_42">
      <g>
       <use style="stroke:#000000;stroke-width:0.8;" x="394.518378" xlink:href="#md4bb375adb" y="41.472"/>
      </g>
     </g>
     <g id="text_26">
      <!-- 80.0M -->
      <defs>
       <path d="M 31.78125 34.625 
Q 24.75 34.625 20.71875 30.859375 
Q 16.703125 27.09375 16.703125 20.515625 
Q 16.703125 13.921875 20.71875 10.15625 
Q 24.75 6.390625 31.78125 6.390625 
Q 38.8125 6.390625 42.859375 10.171875 
Q 46.921875 13.96875 46.921875 20.515625 
Q 46.921875 27.09375 42.890625 30.859375 
Q 38.875 34.625 31.78125 34.625 
z
M 21.921875 38.8125 
Q 15.578125 40.375 12.03125 44.71875 
Q 8.5 49.078125 8.5 55.328125 
Q 8.5 64.0625 14.71875 69.140625 
Q 20.953125 74.21875 31.78125 74.21875 
Q 42.671875 74.21875 48.875 69.140625 
Q 55.078125 64.0625 55.078125 55.328125 
Q 55.078125 49.078125 51.53125 44.71875 
Q 48 40.375 41.703125 38.8125 
Q 48.828125 37.15625 52.796875 32.3125 
Q 56.78125 27.484375 56.78125 20.515625 
Q 56.78125 9.90625 50.3125 4.234375 
Q 43.84375 -1.421875 31.78125 -1.421875 
Q 19.734375 -1.421875 13.25 4.234375 
Q 6.78125 9.90625 6.78125 20.515625 
Q 6.78125 27.484375 10.78125 32.3125 
Q 14.796875 37.15625 21.921875 38.8125 
z
M 18.3125 54.390625 
Q 18.3125 48.734375 21.84375 45.5625 
Q 25.390625 42.390625 31.78125 42.390625 
Q 38.140625 42.390625 41.71875 45.5625 
Q 45.3125 48.734375 45.3125 54.390625 
Q 45.3125 60.0625 41.71875 63.234375 
Q 38.140625 66.40625 31.78125 66.40625 
Q 25.390625 66.40625 21.84375 63.234375 
Q 18.3125 60.0625 18.3125 54.390625 
z
" id="DejaVuSans-56"/>
      </defs>
      <g transform="translate(379.071503 32.392313)scale(0.1 -0.1)">
       <use xlink:href="#DejaVuSans-56"/>
       <use x="63.623047" xlink:href="#DejaVuSans-48"/>
       <use x="127.246094" xlink:href="#DejaVuSans-46"/>
       <use x="159.033203" xlink:href="#DejaVuSans-48"/>
       <use x="222.65625" xlink:href="#DejaVuSans-77"/>
      </g>
     </g>
    </g>
    <g id="text_27">
     <!-- Steps -->
     <defs>
      <path d="M 53.515625 70.515625 
L 53.515625 60.890625 
Q 47.90625 63.578125 42.921875 64.890625 
Q 37.9375 66.21875 33.296875 66.21875 
Q 25.25 66.21875 20.875 63.09375 
Q 16.5 59.96875 16.5 54.203125 
Q 16.5 49.359375 19.40625 46.890625 
Q 22.3125 44.4375 30.421875 42.921875 
L 36.375 41.703125 
Q 47.40625 39.59375 52.65625 34.296875 
Q 57.90625 29 57.90625 20.125 
Q 57.90625 9.515625 50.796875 4.046875 
Q 43.703125 -1.421875 29.984375 -1.421875 
Q 24.8125 -1.421875 18.96875 -0.25 
Q 13.140625 0.921875 6.890625 3.21875 
L 6.890625 13.375 
Q 12.890625 10.015625 18.65625 8.296875 
Q 24.421875 6.59375 29.984375 6.59375 
Q 38.421875 6.59375 43.015625 9.90625 
Q 47.609375 13.234375 47.609375 19.390625 
Q 47.609375 24.75 44.3125 27.78125 
Q 41.015625 30.8125 33.5 32.328125 
L 27.484375 33.5 
Q 16.453125 35.6875 11.515625 40.375 
Q 6.59375 45.0625 6.59375 53.421875 
Q 6.59375 63.09375 13.40625 68.65625 
Q 20.21875 74.21875 32.171875 74.21875 
Q 37.3125 74.21875 42.625 73.28125 
Q 47.953125 72.359375 53.515625 70.515625 
z
" id="DejaVuSans-83"/>
      <path d="M 18.3125 70.21875 
L 18.3125 54.6875 
L 36.8125 54.6875 
L 36.8125 47.703125 
L 18.3125 47.703125 
L 18.3125 18.015625 
Q 18.3125 11.328125 20.140625 9.421875 
Q 21.96875 7.515625 27.59375 7.515625 
L 36.8125 7.515625 
L 36.8125 0 
L 27.59375 0 
Q 17.1875 0 13.234375 3.875 
Q 9.28125 7.765625 9.28125 18.015625 
L 9.28125 47.703125 
L 2.6875 47.703125 
L 2.6875 54.6875 
L 9.28125 54.6875 
L 9.28125 70.21875 
z
" id="DejaVuSans-116"/>
      <path d="M 56.203125 29.59375 
L 56.203125 25.203125 
L 14.890625 25.203125 
Q 15.484375 15.921875 20.484375 11.0625 
Q 25.484375 6.203125 34.421875 6.203125 
Q 39.59375 6.203125 44.453125 7.46875 
Q 49.3125 8.734375 54.109375 11.28125 
L 54.109375 2.78125 
Q 49.265625 0.734375 44.1875 -0.34375 
Q 39.109375 -1.421875 33.890625 -1.421875 
Q 20.796875 -1.421875 13.15625 6.1875 
Q 5.515625 13.8125 5.515625 26.8125 
Q 5.515625 40.234375 12.765625 48.109375 
Q 20.015625 56 32.328125 56 
Q 43.359375 56 49.78125 48.890625 
Q 56.203125 41.796875 56.203125 29.59375 
z
M 47.21875 32.234375 
Q 47.125 39.59375 43.09375 43.984375 
Q 39.0625 48.390625 32.421875 48.390625 
Q 24.90625 48.390625 20.390625 44.140625 
Q 15.875 39.890625 15.1875 32.171875 
z
" id="DejaVuSans-101"/>
      <path d="M 18.109375 8.203125 
L 18.109375 -20.796875 
L 9.078125 -20.796875 
L 9.078125 54.6875 
L 18.109375 54.6875 
L 18.109375 46.390625 
Q 20.953125 51.265625 25.265625 53.625 
Q 29.59375 56 35.59375 56 
Q 45.5625 56 51.78125 48.09375 
Q 58.015625 40.1875 58.015625 27.296875 
Q 58.015625 14.40625 51.78125 6.484375 
Q 45.5625 -1.421875 35.59375 -1.421875 
Q 29.59375 -1.421875 25.265625 0.953125 
Q 20.953125 3.328125 18.109375 8.203125 
z
M 48.6875 27.296875 
Q 48.6875 37.203125 44.609375 42.84375 
Q 40.53125 48.484375 33.40625 48.484375 
Q 26.265625 48.484375 22.1875 42.84375 
Q 18.109375 37.203125 18.109375 27.296875 
Q 18.109375 17.390625 22.1875 11.75 
Q 26.265625 6.109375 33.40625 6.109375 
Q 40.53125 6.109375 44.609375 11.75 
Q 48.6875 17.390625 48.6875 27.296875 
z
" id="DejaVuSans-112"/>
     </defs>
     <g transform="translate(222.170156 20.793875)scale(0.1 -0.1)">
      <use xlink:href="#DejaVuSans-83"/>
      <use x="63.476562" xlink:href="#DejaVuSans-116"/>
      <use x="102.685547" xlink:href="#DejaVuSans-101"/>
      <use x="164.208984" xlink:href="#DejaVuSans-112"/>
      <use x="227.685547" xlink:href="#DejaVuSans-115"/>
     </g>
    </g>
   </g>
   <g id="patch_7">
    <path d="M 57.6 307.584 
L 57.6 41.472 
" style="fill:none;stroke:#000000;stroke-linecap:square;stroke-linejoin:miter;stroke-width:0.8;"/>
   </g>
   <g id="patch_8">
    <path d="M 414.72 307.584 
L 414.72 41.472 
" style="fill:none;stroke:#000000;stroke-linecap:square;stroke-linejoin:miter;stroke-width:0.8;"/>
   </g>
   <g id="patch_9">
    <path d="M 57.6 307.584 
L 414.72 307.584 
" style="fill:none;stroke:#000000;stroke-linecap:square;stroke-linejoin:miter;stroke-width:0.8;"/>
   </g>
   <g id="patch_10">
    <path d="M 57.6 41.472 
L 414.72 41.472 
" style="fill:none;stroke:#000000;stroke-linecap:square;stroke-linejoin:miter;stroke-width:0.8;"/>
   </g>
  </g>
 </g>
 <defs>
  <clipPath id="p8262c21d0c">
   <rect height="266.112" width="357.12" x="57.6" y="41.472"/>
  </clipPath>
 </defs>
</svg>
