<?xml version="1.0" encoding="utf-8" standalone="no"?>
<!DOCTYPE svg PUBLIC "-//W3C//DTD SVG 1.1//EN"
  "http://www.w3.org/Graphics/SVG/1.1/DTD/svg11.dtd">
<!-- Created with matplotlib (https://matplotlib.org/) -->
<svg height="345.6pt" version="1.1" viewBox="0 0 460.8 345.6" width="460.8pt" xmlns="http://www.w3.org/2000/svg" xmlns:xlink="http://www.w3.org/1999/xlink">
 <defs>
  <style type="text/css">
*{stroke-linecap:butt;stroke-linejoin:round;}
  </style>
 </defs>
 <g id="figure_1">
  <g id="patch_1">
   <path d="M 0 345.6 
L 460.8 345.6 
L 460.8 0 
L 0 0 
z
" style="fill:#ffffff;"/>
  </g>
  <g id="axes_1">
   <g id="patch_2">
    <path d="M 57.6 307.584 
L 414.72 307.584 
L 414.72 41.472 
L 57.6 41.472 
z
" style="fill:#ffffff;"/>
   </g>
   <g id="matplotlib.axis_1">
    <g id="xtick_1">
     <g id="line2d_1">
      <path clip-path="url(#p8fb6f93f64)" d="M 57.6 307.584 
L 57.6 41.472 
" style="fill:none;stroke:#b0b0b0;stroke-linecap:square;stroke-width:0.8;"/>
     </g>
     <g id="line2d_2">
      <defs>
       <path d="M 0 0 
L 0 3.5 
" id="m33f34bf525" style="stroke:#000000;stroke-width:0.8;"/>
      </defs>
      <g>
       <use style="stroke:#000000;stroke-width:0.8;" x="57.6" xlink:href="#m33f34bf525" y="307.584"/>
      </g>
     </g>
     <g id="text_1">
      <!-- 0 -->
      <defs>
       <path d="M 31.78125 66.40625 
Q 24.171875 66.40625 20.328125 58.90625 
Q 16.5 51.421875 16.5 36.375 
Q 16.5 21.390625 20.328125 13.890625 
Q 24.171875 6.390625 31.78125 6.390625 
Q 39.453125 6.390625 43.28125 13.890625 
Q 47.125 21.390625 47.125 36.375 
Q 47.125 51.421875 43.28125 58.90625 
Q 39.453125 66.40625 31.78125 66.40625 
z
M 31.78125 74.21875 
Q 44.046875 74.21875 50.515625 64.515625 
Q 56.984375 54.828125 56.984375 36.375 
Q 56.984375 17.96875 50.515625 8.265625 
Q 44.046875 -1.421875 31.78125 -1.421875 
Q 19.53125 -1.421875 13.0625 8.265625 
Q 6.59375 17.96875 6.59375 36.375 
Q 6.59375 54.828125 13.0625 64.515625 
Q 19.53125 74.21875 31.78125 74.21875 
z
" id="DejaVuSans-48"/>
      </defs>
      <g transform="translate(54.41875 322.182437)scale(0.1 -0.1)">
       <use xlink:href="#DejaVuSans-48"/>
      </g>
     </g>
    </g>
    <g id="xtick_2">
     <g id="line2d_3">
      <path clip-path="url(#p8fb6f93f64)" d="M 111.470348 307.584 
L 111.470348 41.472 
" style="fill:none;stroke:#b0b0b0;stroke-linecap:square;stroke-width:0.8;"/>
     </g>
     <g id="line2d_4">
      <g>
       <use style="stroke:#000000;stroke-width:0.8;" x="111.470348" xlink:href="#m33f34bf525" y="307.584"/>
      </g>
     </g>
     <g id="text_2">
      <!-- 2 -->
      <defs>
       <path d="M 19.1875 8.296875 
L 53.609375 8.296875 
L 53.609375 0 
L 7.328125 0 
L 7.328125 8.296875 
Q 12.9375 14.109375 22.625 23.890625 
Q 32.328125 33.6875 34.8125 36.53125 
Q 39.546875 41.84375 41.421875 45.53125 
Q 43.3125 49.21875 43.3125 52.78125 
Q 43.3125 58.59375 39.234375 62.25 
Q 35.15625 65.921875 28.609375 65.921875 
Q 23.96875 65.921875 18.8125 64.3125 
Q 13.671875 62.703125 7.8125 59.421875 
L 7.8125 69.390625 
Q 13.765625 71.78125 18.9375 73 
Q 24.125 74.21875 28.421875 74.21875 
Q 39.75 74.21875 46.484375 68.546875 
Q 53.21875 62.890625 53.21875 53.421875 
Q 53.21875 48.921875 51.53125 44.890625 
Q 49.859375 40.875 45.40625 35.40625 
Q 44.1875 33.984375 37.640625 27.21875 
Q 31.109375 20.453125 19.1875 8.296875 
z
" id="DejaVuSans-50"/>
      </defs>
      <g transform="translate(108.289098 322.182437)scale(0.1 -0.1)">
       <use xlink:href="#DejaVuSans-50"/>
      </g>
     </g>
    </g>
    <g id="xtick_3">
     <g id="line2d_5">
      <path clip-path="url(#p8fb6f93f64)" d="M 165.340695 307.584 
L 165.340695 41.472 
" style="fill:none;stroke:#b0b0b0;stroke-linecap:square;stroke-width:0.8;"/>
     </g>
     <g id="line2d_6">
      <g>
       <use style="stroke:#000000;stroke-width:0.8;" x="165.340695" xlink:href="#m33f34bf525" y="307.584"/>
      </g>
     </g>
     <g id="text_3">
      <!-- 4 -->
      <defs>
       <path d="M 37.796875 64.3125 
L 12.890625 25.390625 
L 37.796875 25.390625 
z
M 35.203125 72.90625 
L 47.609375 72.90625 
L 47.609375 25.390625 
L 58.015625 25.390625 
L 58.015625 17.1875 
L 47.609375 17.1875 
L 47.609375 0 
L 37.796875 0 
L 37.796875 17.1875 
L 4.890625 17.1875 
L 4.890625 26.703125 
z
" id="DejaVuSans-52"/>
      </defs>
      <g transform="translate(162.159445 322.182437)scale(0.1 -0.1)">
       <use xlink:href="#DejaVuSans-52"/>
      </g>
     </g>
    </g>
    <g id="xtick_4">
     <g id="line2d_7">
      <path clip-path="url(#p8fb6f93f64)" d="M 219.211043 307.584 
L 219.211043 41.472 
" style="fill:none;stroke:#b0b0b0;stroke-linecap:square;stroke-width:0.8;"/>
     </g>
     <g id="line2d_8">
      <g>
       <use style="stroke:#000000;stroke-width:0.8;" x="219.211043" xlink:href="#m33f34bf525" y="307.584"/>
      </g>
     </g>
     <g id="text_4">
      <!-- 6 -->
      <defs>
       <path d="M 33.015625 40.375 
Q 26.375 40.375 22.484375 35.828125 
Q 18.609375 31.296875 18.609375 23.390625 
Q 18.609375 15.53125 22.484375 10.953125 
Q 26.375 6.390625 33.015625 6.390625 
Q 39.65625 6.390625 43.53125 10.953125 
Q 47.40625 15.53125 47.40625 23.390625 
Q 47.40625 31.296875 43.53125 35.828125 
Q 39.65625 40.375 33.015625 40.375 
z
M 52.59375 71.296875 
L 52.59375 62.3125 
Q 48.875 64.0625 45.09375 64.984375 
Q 41.3125 65.921875 37.59375 65.921875 
Q 27.828125 65.921875 22.671875 59.328125 
Q 17.53125 52.734375 16.796875 39.40625 
Q 19.671875 43.65625 24.015625 45.921875 
Q 28.375 48.1875 33.59375 48.1875 
Q 44.578125 48.1875 50.953125 41.515625 
Q 57.328125 34.859375 57.328125 23.390625 
Q 57.328125 12.15625 50.6875 5.359375 
Q 44.046875 -1.421875 33.015625 -1.421875 
Q 20.359375 -1.421875 13.671875 8.265625 
Q 6.984375 17.96875 6.984375 36.375 
Q 6.984375 53.65625 15.1875 63.9375 
Q 23.390625 74.21875 37.203125 74.21875 
Q 40.921875 74.21875 44.703125 73.484375 
Q 48.484375 72.75 52.59375 71.296875 
z
" id="DejaVuSans-54"/>
      </defs>
      <g transform="translate(216.029793 322.182437)scale(0.1 -0.1)">
       <use xlink:href="#DejaVuSans-54"/>
      </g>
     </g>
    </g>
    <g id="xtick_5">
     <g id="line2d_9">
      <path clip-path="url(#p8fb6f93f64)" d="M 273.081391 307.584 
L 273.081391 41.472 
" style="fill:none;stroke:#b0b0b0;stroke-linecap:square;stroke-width:0.8;"/>
     </g>
     <g id="line2d_10">
      <g>
       <use style="stroke:#000000;stroke-width:0.8;" x="273.081391" xlink:href="#m33f34bf525" y="307.584"/>
      </g>
     </g>
     <g id="text_5">
      <!-- 8 -->
      <defs>
       <path d="M 31.78125 34.625 
Q 24.75 34.625 20.71875 30.859375 
Q 16.703125 27.09375 16.703125 20.515625 
Q 16.703125 13.921875 20.71875 10.15625 
Q 24.75 6.390625 31.78125 6.390625 
Q 38.8125 6.390625 42.859375 10.171875 
Q 46.921875 13.96875 46.921875 20.515625 
Q 46.921875 27.09375 42.890625 30.859375 
Q 38.875 34.625 31.78125 34.625 
z
M 21.921875 38.8125 
Q 15.578125 40.375 12.03125 44.71875 
Q 8.5 49.078125 8.5 55.328125 
Q 8.5 64.0625 14.71875 69.140625 
Q 20.953125 74.21875 31.78125 74.21875 
Q 42.671875 74.21875 48.875 69.140625 
Q 55.078125 64.0625 55.078125 55.328125 
Q 55.078125 49.078125 51.53125 44.71875 
Q 48 40.375 41.703125 38.8125 
Q 48.828125 37.15625 52.796875 32.3125 
Q 56.78125 27.484375 56.78125 20.515625 
Q 56.78125 9.90625 50.3125 4.234375 
Q 43.84375 -1.421875 31.78125 -1.421875 
Q 19.734375 -1.421875 13.25 4.234375 
Q 6.78125 9.90625 6.78125 20.515625 
Q 6.78125 27.484375 10.78125 32.3125 
Q 14.796875 37.15625 21.921875 38.8125 
z
M 18.3125 54.390625 
Q 18.3125 48.734375 21.84375 45.5625 
Q 25.390625 42.390625 31.78125 42.390625 
Q 38.140625 42.390625 41.71875 45.5625 
Q 45.3125 48.734375 45.3125 54.390625 
Q 45.3125 60.0625 41.71875 63.234375 
Q 38.140625 66.40625 31.78125 66.40625 
Q 25.390625 66.40625 21.84375 63.234375 
Q 18.3125 60.0625 18.3125 54.390625 
z
" id="DejaVuSans-56"/>
      </defs>
      <g transform="translate(269.900141 322.182437)scale(0.1 -0.1)">
       <use xlink:href="#DejaVuSans-56"/>
      </g>
     </g>
    </g>
    <g id="xtick_6">
     <g id="line2d_11">
      <path clip-path="url(#p8fb6f93f64)" d="M 326.951738 307.584 
L 326.951738 41.472 
" style="fill:none;stroke:#b0b0b0;stroke-linecap:square;stroke-width:0.8;"/>
     </g>
     <g id="line2d_12">
      <g>
       <use style="stroke:#000000;stroke-width:0.8;" x="326.951738" xlink:href="#m33f34bf525" y="307.584"/>
      </g>
     </g>
     <g id="text_6">
      <!-- 10 -->
      <defs>
       <path d="M 12.40625 8.296875 
L 28.515625 8.296875 
L 28.515625 63.921875 
L 10.984375 60.40625 
L 10.984375 69.390625 
L 28.421875 72.90625 
L 38.28125 72.90625 
L 38.28125 8.296875 
L 54.390625 8.296875 
L 54.390625 0 
L 12.40625 0 
z
" id="DejaVuSans-49"/>
      </defs>
      <g transform="translate(320.589238 322.182437)scale(0.1 -0.1)">
       <use xlink:href="#DejaVuSans-49"/>
       <use x="63.623047" xlink:href="#DejaVuSans-48"/>
      </g>
     </g>
    </g>
    <g id="xtick_7">
     <g id="line2d_13">
      <path clip-path="url(#p8fb6f93f64)" d="M 380.822086 307.584 
L 380.822086 41.472 
" style="fill:none;stroke:#b0b0b0;stroke-linecap:square;stroke-width:0.8;"/>
     </g>
     <g id="line2d_14">
      <g>
       <use style="stroke:#000000;stroke-width:0.8;" x="380.822086" xlink:href="#m33f34bf525" y="307.584"/>
      </g>
     </g>
     <g id="text_7">
      <!-- 12 -->
      <g transform="translate(374.459586 322.182437)scale(0.1 -0.1)">
       <use xlink:href="#DejaVuSans-49"/>
       <use x="63.623047" xlink:href="#DejaVuSans-50"/>
      </g>
     </g>
    </g>
    <g id="text_8">
     <!-- Hours -->
     <defs>
      <path d="M 9.8125 72.90625 
L 19.671875 72.90625 
L 19.671875 43.015625 
L 55.515625 43.015625 
L 55.515625 72.90625 
L 65.375 72.90625 
L 65.375 0 
L 55.515625 0 
L 55.515625 34.71875 
L 19.671875 34.71875 
L 19.671875 0 
L 9.8125 0 
z
" id="DejaVuSans-72"/>
      <path d="M 30.609375 48.390625 
Q 23.390625 48.390625 19.1875 42.75 
Q 14.984375 37.109375 14.984375 27.296875 
Q 14.984375 17.484375 19.15625 11.84375 
Q 23.34375 6.203125 30.609375 6.203125 
Q 37.796875 6.203125 41.984375 11.859375 
Q 46.1875 17.53125 46.1875 27.296875 
Q 46.1875 37.015625 41.984375 42.703125 
Q 37.796875 48.390625 30.609375 48.390625 
z
M 30.609375 56 
Q 42.328125 56 49.015625 48.375 
Q 55.71875 40.765625 55.71875 27.296875 
Q 55.71875 13.875 49.015625 6.21875 
Q 42.328125 -1.421875 30.609375 -1.421875 
Q 18.84375 -1.421875 12.171875 6.21875 
Q 5.515625 13.875 5.515625 27.296875 
Q 5.515625 40.765625 12.171875 48.375 
Q 18.84375 56 30.609375 56 
z
" id="DejaVuSans-111"/>
      <path d="M 8.5 21.578125 
L 8.5 54.6875 
L 17.484375 54.6875 
L 17.484375 21.921875 
Q 17.484375 14.15625 20.5 10.265625 
Q 23.53125 6.390625 29.59375 6.390625 
Q 36.859375 6.390625 41.078125 11.03125 
Q 45.3125 15.671875 45.3125 23.6875 
L 45.3125 54.6875 
L 54.296875 54.6875 
L 54.296875 0 
L 45.3125 0 
L 45.3125 8.40625 
Q 42.046875 3.421875 37.71875 1 
Q 33.40625 -1.421875 27.6875 -1.421875 
Q 18.265625 -1.421875 13.375 4.4375 
Q 8.5 10.296875 8.5 21.578125 
z
M 31.109375 56 
z
" id="DejaVuSans-117"/>
      <path d="M 41.109375 46.296875 
Q 39.59375 47.171875 37.8125 47.578125 
Q 36.03125 48 33.890625 48 
Q 26.265625 48 22.1875 43.046875 
Q 18.109375 38.09375 18.109375 28.8125 
L 18.109375 0 
L 9.078125 0 
L 9.078125 54.6875 
L 18.109375 54.6875 
L 18.109375 46.1875 
Q 20.953125 51.171875 25.484375 53.578125 
Q 30.03125 56 36.53125 56 
Q 37.453125 56 38.578125 55.875 
Q 39.703125 55.765625 41.0625 55.515625 
z
" id="DejaVuSans-114"/>
      <path d="M 44.28125 53.078125 
L 44.28125 44.578125 
Q 40.484375 46.53125 36.375 47.5 
Q 32.28125 48.484375 27.875 48.484375 
Q 21.1875 48.484375 17.84375 46.4375 
Q 14.5 44.390625 14.5 40.28125 
Q 14.5 37.15625 16.890625 35.375 
Q 19.28125 33.59375 26.515625 31.984375 
L 29.59375 31.296875 
Q 39.15625 29.25 43.1875 25.515625 
Q 47.21875 21.78125 47.21875 15.09375 
Q 47.21875 7.46875 41.1875 3.015625 
Q 35.15625 -1.421875 24.609375 -1.421875 
Q 20.21875 -1.421875 15.453125 -0.5625 
Q 10.6875 0.296875 5.421875 2 
L 5.421875 11.28125 
Q 10.40625 8.6875 15.234375 7.390625 
Q 20.0625 6.109375 24.8125 6.109375 
Q 31.15625 6.109375 34.5625 8.28125 
Q 37.984375 10.453125 37.984375 14.40625 
Q 37.984375 18.0625 35.515625 20.015625 
Q 33.0625 21.96875 24.703125 23.78125 
L 21.578125 24.515625 
Q 13.234375 26.265625 9.515625 29.90625 
Q 5.8125 33.546875 5.8125 39.890625 
Q 5.8125 47.609375 11.28125 51.796875 
Q 16.75 56 26.8125 56 
Q 31.78125 56 36.171875 55.265625 
Q 40.578125 54.546875 44.28125 53.078125 
z
" id="DejaVuSans-115"/>
     </defs>
     <g transform="translate(221.511562 335.860562)scale(0.1 -0.1)">
      <use xlink:href="#DejaVuSans-72"/>
      <use x="75.195312" xlink:href="#DejaVuSans-111"/>
      <use x="136.376953" xlink:href="#DejaVuSans-117"/>
      <use x="199.755859" xlink:href="#DejaVuSans-114"/>
      <use x="240.869141" xlink:href="#DejaVuSans-115"/>
     </g>
    </g>
   </g>
   <g id="matplotlib.axis_2">
    <g id="ytick_1">
     <g id="line2d_15">
      <path clip-path="url(#p8fb6f93f64)" d="M 57.6 294.866026 
L 414.72 294.866026 
" style="fill:none;stroke:#b0b0b0;stroke-linecap:square;stroke-width:0.8;"/>
     </g>
     <g id="line2d_16">
      <defs>
       <path d="M 0 0 
L -3.5 0 
" id="m6b033cc7ff" style="stroke:#000000;stroke-width:0.8;"/>
      </defs>
      <g>
       <use style="stroke:#000000;stroke-width:0.8;" x="57.6" xlink:href="#m6b033cc7ff" y="294.866026"/>
      </g>
     </g>
     <g id="text_9">
      <!-- 0 -->
      <g transform="translate(44.2375 298.665245)scale(0.1 -0.1)">
       <use xlink:href="#DejaVuSans-48"/>
      </g>
     </g>
    </g>
    <g id="ytick_2">
     <g id="line2d_17">
      <path clip-path="url(#p8fb6f93f64)" d="M 57.6 241.012479 
L 414.72 241.012479 
" style="fill:none;stroke:#b0b0b0;stroke-linecap:square;stroke-width:0.8;"/>
     </g>
     <g id="line2d_18">
      <g>
       <use style="stroke:#000000;stroke-width:0.8;" x="57.6" xlink:href="#m6b033cc7ff" y="241.012479"/>
      </g>
     </g>
     <g id="text_10">
      <!-- 500 -->
      <defs>
       <path d="M 10.796875 72.90625 
L 49.515625 72.90625 
L 49.515625 64.59375 
L 19.828125 64.59375 
L 19.828125 46.734375 
Q 21.96875 47.46875 24.109375 47.828125 
Q 26.265625 48.1875 28.421875 48.1875 
Q 40.625 48.1875 47.75 41.5 
Q 54.890625 34.8125 54.890625 23.390625 
Q 54.890625 11.625 47.5625 5.09375 
Q 40.234375 -1.421875 26.90625 -1.421875 
Q 22.3125 -1.421875 17.546875 -0.640625 
Q 12.796875 0.140625 7.71875 1.703125 
L 7.71875 11.625 
Q 12.109375 9.234375 16.796875 8.0625 
Q 21.484375 6.890625 26.703125 6.890625 
Q 35.15625 6.890625 40.078125 11.328125 
Q 45.015625 15.765625 45.015625 23.390625 
Q 45.015625 31 40.078125 35.4375 
Q 35.15625 39.890625 26.703125 39.890625 
Q 22.75 39.890625 18.8125 39.015625 
Q 14.890625 38.140625 10.796875 36.28125 
z
" id="DejaVuSans-53"/>
      </defs>
      <g transform="translate(31.5125 244.811697)scale(0.1 -0.1)">
       <use xlink:href="#DejaVuSans-53"/>
       <use x="63.623047" xlink:href="#DejaVuSans-48"/>
       <use x="127.246094" xlink:href="#DejaVuSans-48"/>
      </g>
     </g>
    </g>
    <g id="ytick_3">
     <g id="line2d_19">
      <path clip-path="url(#p8fb6f93f64)" d="M 57.6 187.158931 
L 414.72 187.158931 
" style="fill:none;stroke:#b0b0b0;stroke-linecap:square;stroke-width:0.8;"/>
     </g>
     <g id="line2d_20">
      <g>
       <use style="stroke:#000000;stroke-width:0.8;" x="57.6" xlink:href="#m6b033cc7ff" y="187.158931"/>
      </g>
     </g>
     <g id="text_11">
      <!-- 1000 -->
      <g transform="translate(25.15 190.958149)scale(0.1 -0.1)">
       <use xlink:href="#DejaVuSans-49"/>
       <use x="63.623047" xlink:href="#DejaVuSans-48"/>
       <use x="127.246094" xlink:href="#DejaVuSans-48"/>
       <use x="190.869141" xlink:href="#DejaVuSans-48"/>
      </g>
     </g>
    </g>
    <g id="ytick_4">
     <g id="line2d_21">
      <path clip-path="url(#p8fb6f93f64)" d="M 57.6 133.305383 
L 414.72 133.305383 
" style="fill:none;stroke:#b0b0b0;stroke-linecap:square;stroke-width:0.8;"/>
     </g>
     <g id="line2d_22">
      <g>
       <use style="stroke:#000000;stroke-width:0.8;" x="57.6" xlink:href="#m6b033cc7ff" y="133.305383"/>
      </g>
     </g>
     <g id="text_12">
      <!-- 1500 -->
      <g transform="translate(25.15 137.104601)scale(0.1 -0.1)">
       <use xlink:href="#DejaVuSans-49"/>
       <use x="63.623047" xlink:href="#DejaVuSans-53"/>
       <use x="127.246094" xlink:href="#DejaVuSans-48"/>
       <use x="190.869141" xlink:href="#DejaVuSans-48"/>
      </g>
     </g>
    </g>
    <g id="ytick_5">
     <g id="line2d_23">
      <path clip-path="url(#p8fb6f93f64)" d="M 57.6 79.451835 
L 414.72 79.451835 
" style="fill:none;stroke:#b0b0b0;stroke-linecap:square;stroke-width:0.8;"/>
     </g>
     <g id="line2d_24">
      <g>
       <use style="stroke:#000000;stroke-width:0.8;" x="57.6" xlink:href="#m6b033cc7ff" y="79.451835"/>
      </g>
     </g>
     <g id="text_13">
      <!-- 2000 -->
      <g transform="translate(25.15 83.251054)scale(0.1 -0.1)">
       <use xlink:href="#DejaVuSans-50"/>
       <use x="63.623047" xlink:href="#DejaVuSans-48"/>
       <use x="127.246094" xlink:href="#DejaVuSans-48"/>
       <use x="190.869141" xlink:href="#DejaVuSans-48"/>
      </g>
     </g>
    </g>
    <g id="text_14">
     <!-- Mean train reward -->
     <defs>
      <path d="M 9.8125 72.90625 
L 24.515625 72.90625 
L 43.109375 23.296875 
L 61.8125 72.90625 
L 76.515625 72.90625 
L 76.515625 0 
L 66.890625 0 
L 66.890625 64.015625 
L 48.09375 14.015625 
L 38.1875 14.015625 
L 19.390625 64.015625 
L 19.390625 0 
L 9.8125 0 
z
" id="DejaVuSans-77"/>
      <path d="M 56.203125 29.59375 
L 56.203125 25.203125 
L 14.890625 25.203125 
Q 15.484375 15.921875 20.484375 11.0625 
Q 25.484375 6.203125 34.421875 6.203125 
Q 39.59375 6.203125 44.453125 7.46875 
Q 49.3125 8.734375 54.109375 11.28125 
L 54.109375 2.78125 
Q 49.265625 0.734375 44.1875 -0.34375 
Q 39.109375 -1.421875 33.890625 -1.421875 
Q 20.796875 -1.421875 13.15625 6.1875 
Q 5.515625 13.8125 5.515625 26.8125 
Q 5.515625 40.234375 12.765625 48.109375 
Q 20.015625 56 32.328125 56 
Q 43.359375 56 49.78125 48.890625 
Q 56.203125 41.796875 56.203125 29.59375 
z
M 47.21875 32.234375 
Q 47.125 39.59375 43.09375 43.984375 
Q 39.0625 48.390625 32.421875 48.390625 
Q 24.90625 48.390625 20.390625 44.140625 
Q 15.875 39.890625 15.1875 32.171875 
z
" id="DejaVuSans-101"/>
      <path d="M 34.28125 27.484375 
Q 23.390625 27.484375 19.1875 25 
Q 14.984375 22.515625 14.984375 16.5 
Q 14.984375 11.71875 18.140625 8.90625 
Q 21.296875 6.109375 26.703125 6.109375 
Q 34.1875 6.109375 38.703125 11.40625 
Q 43.21875 16.703125 43.21875 25.484375 
L 43.21875 27.484375 
z
M 52.203125 31.203125 
L 52.203125 0 
L 43.21875 0 
L 43.21875 8.296875 
Q 40.140625 3.328125 35.546875 0.953125 
Q 30.953125 -1.421875 24.3125 -1.421875 
Q 15.921875 -1.421875 10.953125 3.296875 
Q 6 8.015625 6 15.921875 
Q 6 25.140625 12.171875 29.828125 
Q 18.359375 34.515625 30.609375 34.515625 
L 43.21875 34.515625 
L 43.21875 35.40625 
Q 43.21875 41.609375 39.140625 45 
Q 35.0625 48.390625 27.6875 48.390625 
Q 23 48.390625 18.546875 47.265625 
Q 14.109375 46.140625 10.015625 43.890625 
L 10.015625 52.203125 
Q 14.9375 54.109375 19.578125 55.046875 
Q 24.21875 56 28.609375 56 
Q 40.484375 56 46.34375 49.84375 
Q 52.203125 43.703125 52.203125 31.203125 
z
" id="DejaVuSans-97"/>
      <path d="M 54.890625 33.015625 
L 54.890625 0 
L 45.90625 0 
L 45.90625 32.71875 
Q 45.90625 40.484375 42.875 44.328125 
Q 39.84375 48.1875 33.796875 48.1875 
Q 26.515625 48.1875 22.3125 43.546875 
Q 18.109375 38.921875 18.109375 30.90625 
L 18.109375 0 
L 9.078125 0 
L 9.078125 54.6875 
L 18.109375 54.6875 
L 18.109375 46.1875 
Q 21.34375 51.125 25.703125 53.5625 
Q 30.078125 56 35.796875 56 
Q 45.21875 56 50.046875 50.171875 
Q 54.890625 44.34375 54.890625 33.015625 
z
" id="DejaVuSans-110"/>
      <path id="DejaVuSans-32"/>
      <path d="M 18.3125 70.21875 
L 18.3125 54.6875 
L 36.8125 54.6875 
L 36.8125 47.703125 
L 18.3125 47.703125 
L 18.3125 18.015625 
Q 18.3125 11.328125 20.140625 9.421875 
Q 21.96875 7.515625 27.59375 7.515625 
L 36.8125 7.515625 
L 36.8125 0 
L 27.59375 0 
Q 17.1875 0 13.234375 3.875 
Q 9.28125 7.765625 9.28125 18.015625 
L 9.28125 47.703125 
L 2.6875 47.703125 
L 2.6875 54.6875 
L 9.28125 54.6875 
L 9.28125 70.21875 
z
" id="DejaVuSans-116"/>
      <path d="M 9.421875 54.6875 
L 18.40625 54.6875 
L 18.40625 0 
L 9.421875 0 
z
M 9.421875 75.984375 
L 18.40625 75.984375 
L 18.40625 64.59375 
L 9.421875 64.59375 
z
" id="DejaVuSans-105"/>
      <path d="M 4.203125 54.6875 
L 13.1875 54.6875 
L 24.421875 12.015625 
L 35.59375 54.6875 
L 46.1875 54.6875 
L 57.421875 12.015625 
L 68.609375 54.6875 
L 77.59375 54.6875 
L 63.28125 0 
L 52.6875 0 
L 40.921875 44.828125 
L 29.109375 0 
L 18.5 0 
z
" id="DejaVuSans-119"/>
      <path d="M 45.40625 46.390625 
L 45.40625 75.984375 
L 54.390625 75.984375 
L 54.390625 0 
L 45.40625 0 
L 45.40625 8.203125 
Q 42.578125 3.328125 38.25 0.953125 
Q 33.9375 -1.421875 27.875 -1.421875 
Q 17.96875 -1.421875 11.734375 6.484375 
Q 5.515625 14.40625 5.515625 27.296875 
Q 5.515625 40.1875 11.734375 48.09375 
Q 17.96875 56 27.875 56 
Q 33.9375 56 38.25 53.625 
Q 42.578125 51.265625 45.40625 46.390625 
z
M 14.796875 27.296875 
Q 14.796875 17.390625 18.875 11.75 
Q 22.953125 6.109375 30.078125 6.109375 
Q 37.203125 6.109375 41.296875 11.75 
Q 45.40625 17.390625 45.40625 27.296875 
Q 45.40625 37.203125 41.296875 42.84375 
Q 37.203125 48.484375 30.078125 48.484375 
Q 22.953125 48.484375 18.875 42.84375 
Q 14.796875 37.203125 14.796875 27.296875 
z
" id="DejaVuSans-100"/>
     </defs>
     <g transform="translate(19.070312 220.479562)rotate(-90)scale(0.1 -0.1)">
      <use xlink:href="#DejaVuSans-77"/>
      <use x="86.279297" xlink:href="#DejaVuSans-101"/>
      <use x="147.802734" xlink:href="#DejaVuSans-97"/>
      <use x="209.082031" xlink:href="#DejaVuSans-110"/>
      <use x="272.460938" xlink:href="#DejaVuSans-32"/>
      <use x="304.248047" xlink:href="#DejaVuSans-116"/>
      <use x="343.457031" xlink:href="#DejaVuSans-114"/>
      <use x="384.570312" xlink:href="#DejaVuSans-97"/>
      <use x="445.849609" xlink:href="#DejaVuSans-105"/>
      <use x="473.632812" xlink:href="#DejaVuSans-110"/>
      <use x="537.011719" xlink:href="#DejaVuSans-32"/>
      <use x="568.798828" xlink:href="#DejaVuSans-114"/>
      <use x="609.880859" xlink:href="#DejaVuSans-101"/>
      <use x="671.404297" xlink:href="#DejaVuSans-119"/>
      <use x="753.191406" xlink:href="#DejaVuSans-97"/>
      <use x="814.470703" xlink:href="#DejaVuSans-114"/>
      <use x="855.568359" xlink:href="#DejaVuSans-100"/>
     </g>
    </g>
   </g>
   <g id="line2d_25">
    <path clip-path="url(#p8fb6f93f64)" d="M 57.6 295.41605 
L 57.606715 295.488 
L 57.667035 295.043103 
L 58.099019 293.813787 
L 58.1972 293.624879 
L 58.21457 293.68878 
L 58.300315 293.337652 
L 58.320559 293.548563 
L 58.345129 293.80063 
L 58.396046 293.319116 
L 58.482861 293.481945 
L 58.507637 293.394725 
L 58.579232 292.864752 
L 58.631811 293.129549 
L 58.736373 292.739527 
L 58.776005 292.804874 
L 58.809224 292.900412 
L 58.88842 292.82232 
L 59.154342 291.930461 
L 59.22251 292.253167 
L 59.224074 292.246743 
L 59.400445 291.413829 
L 59.477417 291.55892 
L 59.675125 291.32454 
L 59.777612 290.959004 
L 59.780183 291.031402 
L 59.909643 290.869248 
L 60.142181 289.690123 
L 60.522564 288.17869 
L 60.748284 288.426366 
L 60.834686 287.729922 
L 60.849644 287.883596 
L 60.960085 287.455761 
L 61.05073 288.730804 
L 61.399331 286.435142 
L 61.86381 284.690591 
L 61.929019 284.871725 
L 61.999007 284.683499 
L 62.564124 281.11716 
L 62.774587 280.615477 
L 62.818844 280.06117 
L 63.356628 279.458056 
L 63.610514 278.588187 
L 63.676344 279.402045 
L 63.94498 278.10063 
L 64.189624 278.355909 
L 65.51356 271.475142 
L 65.530808 271.619503 
L 65.948495 270.264576 
L 66.268952 269.912595 
L 67.210726 264.529045 
L 67.945549 266.499045 
L 68.066379 265.791777 
L 68.173257 266.959052 
L 68.892841 260.783817 
L 69.894892 244.951213 
L 69.919644 244.991176 
L 70.254862 244.804411 
L 71.62288 240.634682 
L 72.097068 238.692858 
L 73.078039 236.481595 
L 73.278285 236.96988 
L 73.773529 229.535796 
L 74.057183 229.195286 
L 74.179859 234.524027 
L 74.697655 242.605786 
L 74.888461 241.159938 
L 75.467556 254.347526 
L 75.548241 251.674321 
L 76.082607 238.802531 
L 76.239504 231.485949 
L 76.304393 232.965725 
L 76.344722 232.836824 
L 76.414025 235.270107 
L 76.916451 231.938622 
L 77.46631 220.289447 
L 77.726736 219.944125 
L 77.919476 222.419758 
L 78.727198 220.791786 
L 78.955542 217.872578 
L 79.395114 215.712973 
L 79.695708 209.345402 
L 80.270608 204.773564 
L 80.604426 222.555878 
L 80.74135 235.890113 
L 81.560082 228.996603 
L 81.770935 218.952587 
L 82.70854 204.91892 
L 82.940972 197.529979 
L 83.123933 198.71853 
L 83.902391 201.218973 
L 84.043467 203.07201 
L 84.469049 204.170045 
L 85.047812 190.254602 
L 85.466482 189.051963 
L 86.099717 179.034881 
L 86.272141 179.843946 
L 86.373971 181.604074 
L 86.504924 187.770838 
L 86.859286 182.789785 
L 86.993209 187.504923 
L 87.382156 192.279462 
L 87.520947 189.720044 
L 87.635671 193.881381 
L 87.933076 193.044403 
L 89.284334 179.305266 
L 89.923679 179.518708 
L 90.653869 173.289841 
L 91.073825 173.158362 
L 91.172529 173.583761 
L 91.515684 174.389855 
L 92.236875 170.196273 
L 92.584973 164.139931 
L 93.157097 170.312762 
L 93.577958 169.735664 
L 93.805927 168.743883 
L 93.948542 172.605851 
L 95.283637 150.64754 
L 95.638094 150.235566 
L 95.717196 149.781558 
L 96.572642 148.819635 
L 97.064002 146.844817 
L 97.358186 149.023164 
L 97.411534 146.808187 
L 97.462854 152.081851 
L 98.419365 164.352058 
L 98.451862 162.308871 
L 98.691734 165.713149 
L 98.802992 169.188215 
L 99.85723 153.711617 
L 100.250202 149.231623 
L 100.25658 149.31452 
L 100.928973 150.391289 
L 102.37835 142.475093 
L 102.405071 143.463719 
L 103.117913 144.750274 
L 103.416462 143.251959 
L 103.459842 143.389512 
L 103.72462 137.661288 
L 103.797255 138.639027 
L 104.493904 139.417708 
L 104.548261 139.87779 
L 105.134977 143.845939 
L 105.230509 141.950008 
L 107.292169 132.474255 
L 107.391537 131.301442 
L 107.703769 134.793639 
L 108.357392 137.497505 
L 108.847674 135.542566 
L 109.460017 151.502005 
L 109.724329 145.539697 
L 109.781831 149.061135 
L 110.159279 145.476337 
L 110.845304 153.600913 
L 111.046211 150.98064 
L 111.17625 152.423129 
L 111.45423 157.86999 
L 111.812438 151.947125 
L 112.111048 159.693253 
L 112.350073 154.410833 
L 112.541319 142.781451 
L 113.395896 130.459191 
L 114.258704 138.583359 
L 114.605133 146.958519 
L 114.856221 145.025038 
L 115.45824 158.397363 
L 116.296873 143.264568 
L 116.340393 139.130612 
L 116.358676 140.517866 
L 117.53676 132.068368 
L 117.696929 133.488282 
L 118.518129 167.223836 
L 118.590034 166.932493 
L 119.819153 130.917735 
L 120.057482 130.012546 
L 120.710603 115.856767 
L 120.77925 121.187388 
L 120.917789 119.964757 
L 121.262791 122.913042 
L 121.608297 134.803763 
L 122.152326 122.562021 
L 122.433239 121.43579 
L 123.179869 149.517759 
L 123.761594 141.943171 
L 124.001323 130.133743 
L 124.296009 136.199275 
L 124.412431 131.380789 
L 124.658422 137.795133 
L 124.799726 138.637988 
L 125.34637 127.883845 
L 125.771238 110.655456 
L 125.816804 112.444706 
L 126.137344 108.958018 
L 126.167985 109.152277 
L 126.738663 109.700266 
L 126.8194 109.452968 
L 127.927 134.690521 
L 127.999124 134.126544 
L 128.434393 146.839571 
L 128.725794 133.804646 
L 128.729769 134.552219 
L 129.335323 145.12646 
L 131.153368 116.656353 
L 131.850864 102.930943 
L 132.326541 119.565681 
L 132.39933 126.692243 
L 132.802335 134.691139 
L 133.219166 134.076898 
L 133.646989 145.352432 
L 133.966837 159.274258 
L 134.766871 145.52242 
L 136.099312 109.884256 
L 137.272289 124.555838 
L 137.567565 136.398596 
L 137.88829 144.085532 
L 139.137894 98.926466 
L 139.494481 99.940007 
L 139.631653 103.963167 
L 140.20943 101.981603 
L 141.117527 114.985276 
L 142.143598 137.279554 
L 142.799477 126.093635 
L 143.961295 102.064869 
L 145.310118 113.291769 
L 145.643659 114.755702 
L 146.200144 130.677919 
L 146.379644 127.531667 
L 146.821918 133.522454 
L 147.87226 109.080253 
L 148.442252 107.103291 
L 148.671695 104.66605 
L 149.72348 86.39275 
L 150.022927 85.351296 
L 150.947802 89.73167 
L 151.353285 92.049568 
L 151.755441 107.065202 
L 152.224797 110.114515 
L 153.641799 110.882664 
L 154.274992 105.79967 
L 154.322578 103.677477 
L 154.570308 100.638946 
L 155.24459 97.793714 
L 155.590926 97.385763 
L 156.082312 98.199141 
L 156.746491 94.368492 
L 156.9202 112.396309 
L 157.680861 110.040676 
L 157.708391 110.199976 
L 158.501242 101.27584 
L 158.954374 113.277411 
L 159.328783 128.670664 
L 160.309409 101.02686 
L 160.881321 102.742705 
L 161.566985 116.421204 
L 162.558629 108.748849 
L 164.308275 102.842195 
L 165.070238 115.234651 
L 165.130273 118.472714 
L 165.263126 117.631989 
L 165.488988 117.705183 
L 165.759101 112.330819 
L 166.978986 123.885403 
L 167.651006 115.427451 
L 168.105612 106.642525 
L 168.510962 104.734656 
L 168.543007 106.862831 
L 169.338889 126.695188 
L 169.4249 125.841026 
L 169.7622 124.498303 
L 169.924249 122.837928 
L 169.945416 127.330768 
L 169.997703 126.60485 
L 171.101688 119.921277 
L 171.12101 118.350702 
L 171.579884 108.549961 
L 172.323393 101.295496 
L 172.668419 96.13401 
L 173.077953 92.897196 
L 174.368815 91.059128 
L 175.03245 112.38086 
L 175.60726 113.600756 
L 176.139442 98.485041 
L 176.323483 96.50545 
L 177.12009 121.063535 
L 177.673033 133.682476 
L 177.954265 121.424917 
L 178.90196 108.883837 
L 179.421104 107.40819 
L 179.44296 108.27362 
L 179.801318 113.576525 
L 180.182166 105.096024 
L 180.911549 101.929406 
L 182.664262 99.341885 
L 182.965796 96.722954 
L 183.15582 98.844371 
L 183.812408 97.168087 
L 183.853083 97.234971 
L 184.092561 100.056747 
L 184.35454 99.378239 
L 185.837382 107.307096 
L 186.007607 109.205249 
L 187.265153 121.348804 
L 187.622118 120.885408 
L 188.380377 127.393418 
L 189.141387 128.217024 
L 189.91758 121.713525 
L 190.192753 120.979218 
L 190.49675 117.322673 
L 191.045744 115.457389 
L 191.471164 119.112659 
L 192.146115 147.212601 
L 192.785714 140.479199 
L 193.17157 128.163736 
L 193.22467 129.176107 
L 194.07587 108.785097 
L 194.560904 109.764992 
L 195.091123 118.479393 
L 195.986788 107.834298 
L 195.993509 107.861816 
L 196.407316 97.54121 
L 196.589183 97.086926 
L 197.076977 96.43357 
L 199.315702 96.598339 
L 199.681405 94.52741 
L 200.074105 106.497347 
L 200.703474 110.434139 
L 200.842558 104.407761 
L 201.320548 97.322982 
L 201.420969 98.495125 
L 201.751429 86.2347 
L 201.928928 93.663741 
L 201.950142 93.388557 
L 202.29459 86.717054 
L 202.533485 84.069724 
L 203.02043 91.183507 
L 203.399901 84.645889 
L 203.671984 89.544747 
L 204.00005 88.40717 
L 204.13903 86.503691 
L 205.258302 85.284295 
L 205.742567 86.242602 
L 205.94279 84.394015 
L 205.951783 84.460136 
L 206.443519 96.858377 
L 207.630981 110.798583 
L 208.329756 121.275058 
L 208.682437 124.263535 
L 209.137224 125.469323 
L 210.434989 130.501895 
L 210.821187 118.803987 
L 210.862231 119.324707 
L 210.976299 118.858708 
L 211.317943 118.132501 
L 211.73565 150.35007 
L 212.301592 160.399082 
L 212.619245 155.900759 
L 212.779494 145.909519 
L 213.580338 153.030152 
L 213.81354 145.493968 
L 214.187437 139.711891 
L 214.865528 117.011779 
L 216.566581 101.850677 
L 217.890499 93.480198 
L 218.467567 93.818058 
L 220.009527 97.776767 
L 220.076515 98.404523 
L 221.770428 102.062594 
L 222.84279 95.297978 
L 223.517897 103.957079 
L 223.829986 102.522926 
L 224.081298 106.012205 
L 224.404101 103.011224 
L 225.263174 104.890313 
L 226.018294 113.146906 
L 226.73166 106.849854 
L 227.374149 114.694709 
L 227.681612 110.215306 
L 230.148456 98.005828 
L 230.341846 98.123475 
L 230.39235 97.640818 
L 230.722077 92.76677 
L 231.62136 69.824856 
L 232.235777 66.901434 
L 232.591014 70.690246 
L 232.671743 74.543536 
L 233.482135 83.125209 
L 234.292241 71.903161 
L 234.628353 71.427604 
L 234.906049 71.712912 
L 235.891266 75.905836 
L 236.906027 112.623648 
L 237.578619 115.851166 
L 237.738972 106.605238 
L 238.82414 80.382491 
L 239.423303 79.372908 
L 239.468218 79.68889 
L 239.874212 79.408145 
L 240.999927 93.347917 
L 241.226935 109.149134 
L 241.67598 137.296606 
L 241.871708 132.023297 
L 242.463921 120.767853 
L 243.003932 99.229642 
L 243.976441 78.008846 
L 244.002099 76.19054 
L 244.050536 77.506204 
L 244.166935 80.631932 
L 245.557927 85.754712 
L 245.831015 84.980803 
L 246.790893 74.089331 
L 246.831406 71.849518 
L 246.83835 72.094252 
L 247.26151 87.74962 
L 247.372207 85.37044 
L 248.113259 99.247287 
L 248.351377 97.973682 
L 248.758734 106.522512 
L 249.340108 102.339645 
L 249.931272 81.810491 
L 250.408424 84.932564 
L 250.577194 83.20762 
L 251.393677 78.742548 
L 252.295715 77.29739 
L 252.56056 76.015818 
L 253.597199 129.092644 
L 254.500783 123.068318 
L 254.697727 118.430181 
L 255.479168 132.36125 
L 255.837682 152.866895 
L 255.847417 151.609147 
L 257.804405 108.605537 
L 258.317968 101.781441 
L 259.043431 118.103996 
L 259.106605 118.02294 
L 259.511967 162.659208 
L 260.065542 177.174633 
L 260.57599 178.118358 
L 260.801944 188.046673 
L 260.881542 186.183815 
L 263.794723 112.695317 
L 264.019086 111.229083 
L 264.352732 110.77781 
L 264.72964 104.085034 
L 264.890267 105.053819 
L 265.212482 108.737489 
L 266.149218 128.662947 
L 266.47128 162.754451 
L 266.813131 180.474688 
L 267.160418 182.354947 
L 268.418011 129.320483 
L 269.715742 128.451306 
L 269.81411 127.688613 
L 269.960981 123.618844 
L 270.566673 110.454097 
L 270.698381 113.659106 
L 271.754124 167.492972 
L 273.61743 129.716812 
L 273.626089 127.877731 
L 274.013104 132.257 
L 274.147257 132.710851 
L 274.364026 146.75198 
L 274.417331 146.992717 
L 274.659939 155.822595 
L 274.767451 154.33422 
L 275.134014 156.369177 
L 275.642166 138.120056 
L 275.939924 125.429551 
L 276.829755 120.327467 
L 277.078547 115.746444 
L 277.721806 86.661755 
L 279.147798 120.485635 
L 280.58322 102.520218 
L 280.965642 101.806895 
L 281.204465 105.176489 
L 282.01088 102.293378 
L 282.191767 99.227289 
L 282.653033 97.892573 
L 282.87644 93.406622 
L 283.085158 91.86208 
L 284.416418 80.292994 
L 286.303034 85.341146 
L 287.237003 66.632297 
L 287.770688 66.342177 
L 288.329323 77.463395 
L 288.973314 123.142761 
L 289.248358 134.337238 
L 289.523636 136.439315 
L 289.651943 132.728705 
L 292.056909 76.615754 
L 292.110878 77.691812 
L 292.821342 87.526817 
L 293.326952 97.721072 
L 293.728859 87.739259 
L 294.096932 84.985484 
L 294.188401 82.353168 
L 295.790558 81.374115 
L 296.453118 70.27367 
L 296.960718 71.501652 
L 297.901388 77.238869 
L 298.241201 119.547129 
L 299.037269 153.722136 
L 299.877303 115.47385 
L 300.088201 130.5228 
L 300.234338 125.427474 
L 300.330738 128.071793 
L 301.336991 99.055749 
L 302.102112 98.695091 
L 303.329623 137.325545 
L 303.996742 125.053405 
L 304.194365 136.951002 
L 304.891823 140.268294 
L 305.169242 136.850908 
L 306.252914 117.249413 
L 306.607844 116.455822 
L 307.387187 101.218634 
L 307.991383 76.850272 
L 309.376563 73.887722 
L 309.573389 61.985851 
L 309.980005 56.993222 
L 310.166039 56.748015 
L 311.240949 65.173308 
L 312.743913 56.598498 
L 312.908087 58.291019 
L 313.117381 58.044392 
L 314.262535 55.59871 
L 314.473731 54.419323 
L 315.337222 53.568 
L 315.947433 79.948547 
L 317.643768 101.462619 
L 318.671833 103.078869 
L 318.703667 103.427313 
L 319.210192 112.440078 
L 319.394892 111.082301 
L 320.89411 75.96963 
L 322.99259 89.502135 
L 323.684127 112.416451 
L 323.764633 135.082708 
L 324.792174 129.933527 
L 325.380128 93.957227 
L 326.084111 88.563484 
L 327.561929 72.145449 
L 327.777102 75.852719 
L 328.758736 92.161535 
L 329.224141 97.752272 
L 329.265946 96.344099 
L 329.746769 97.276899 
L 329.865976 96.10093 
L 330.174777 97.646629 
L 331.059836 143.252328 
L 331.272935 150.797793 
L 332.28965 126.732265 
L 333.299965 130.281327 
L 333.318969 131.332891 
L 333.735952 134.588099 
L 333.947298 129.000294 
L 337.568203 122.585095 
L 337.91864 128.762712 
L 338.361929 158.372737 
L 339.133488 174.747239 
L 340.081195 149.551786 
L 341.340352 134.382033 
L 341.785619 135.60352 
L 342.295744 137.544272 
L 343.212219 127.381782 
L 345.676688 147.582345 
L 346.329202 174.610844 
L 346.598635 169.549885 
L 347.424561 122.453419 
L 347.610398 120.327506 
L 347.943378 104.030773 
L 348.277147 100.894632 
L 349.156043 114.236283 
L 349.671556 136.217853 
L 349.878182 139.002933 
L 349.947201 142.473397 
L 350.403084 148.070169 
L 351.1442 130.503447 
L 352.021914 122.435801 
L 352.744429 106.526496 
L 353.359026 100.857923 
L 353.609627 103.181738 
L 354.016743 148.775892 
L 355.696243 91.141144 
L 356.712596 106.798169 
L 357.31607 112.678632 
L 358.028686 93.539231 
L 358.942426 78.245639 
L 359.016315 78.535759 
L 359.407552 80.569467 
L 359.824426 114.445623 
L 359.916955 135.404159 
L 360.801912 203.493674 
L 360.982088 202.316555 
L 361.03582 202.597222 
L 361.192153 193.057741 
L 362.148203 104.895125 
L 362.551108 109.592006 
L 363.629376 146.558786 
L 364.58345 148.813548 
L 364.613593 146.299773 
L 365.108265 146.541943 
L 365.317384 167.390918 
L 365.867946 211.467372 
L 366.139853 214.086927 
L 367.010912 194.979982 
L 369.285241 83.094891 
L 370.53595 114.693276 
L 370.652709 114.456062 
L 372.060722 134.253592 
L 372.856275 97.987461 
L 373.688431 95.736432 
L 374.139961 97.892073 
L 374.793475 96.479088 
L 374.816952 96.632747 
L 375.20783 100.455481 
L 376.210413 103.297781 
L 376.289723 103.198449 
L 376.460244 102.446761 
L 377.109492 103.775521 
L 377.698478 113.564836 
L 377.969596 123.140079 
L 378.416685 145.914844 
L 379.199633 142.327351 
L 379.28636 137.721978 
L 379.363523 138.620541 
L 379.794608 137.81613 
L 379.88352 139.1943 
L 380.635487 123.316536 
L 380.792169 117.068157 
L 382.387878 149.352636 
L 382.467601 159.366818 
L 382.797605 176.746079 
L 383.154854 177.916513 
L 383.735326 161.31684 
L 384.612063 147.525388 
L 385.159597 126.439568 
L 385.575477 129.668428 
L 386.095943 175.630669 
L 386.121857 175.625541 
L 386.655535 180.949995 
L 386.677962 183.594249 
L 387.147272 163.330787 
L 387.432449 175.139163 
L 387.550088 168.683325 
L 388.033995 168.840625 
L 389.048065 177.208896 
L 389.418844 151.926194 
L 389.981967 159.495615 
L 390.02116 158.780543 
L 390.253627 187.358771 
L 390.400624 189.269599 
L 390.473808 183.686823 
L 391.519619 123.888191 
L 391.934212 122.065348 
L 391.976101 119.657676 
L 392.383454 121.454512 
L 393.221307 128.778621 
L 393.433934 131.443714 
L 394.269593 134.195426 
L 394.382074 134.991107 
L 394.633441 141.109085 
L 394.662234 144.086545 
L 394.836468 140.536418 
L 394.921106 147.416011 
L 396.115239 191.6067 
L 396.423449 195.309756 
L 397.444741 258.454063 
L 397.513262 269.927924 
L 397.666092 269.513376 
L 398.096001 248.45688 
L 398.536241 224.968158 
L 398.903538 229.745786 
L 399.401005 223.620971 
L 399.617 210.271089 
L 400.141746 198.778649 
L 400.465677 201.156488 
L 400.738297 205.515601 
L 401.144497 204.861036 
L 401.923398 195.505028 
L 402.670649 179.226892 
L 403.465405 164.022836 
L 403.562596 166.465771 
L 403.725155 165.738669 
L 404.526429 160.333066 
L 404.857237 156.006021 
L 405.672315 143.847149 
L 406.707129 138.200428 
L 406.929725 137.741648 
L 407.426696 136.774374 
L 408.817689 153.859938 
L 409.2356 154.728064 
L 409.52091 154.373927 
L 410.525118 155.636869 
L 411.601546 147.786465 
L 412.268238 151.391589 
L 412.550898 154.969261 
L 413.24243 162.28744 
L 413.695446 160.180223 
L 414.569564 150.944668 
L 414.72 156.685764 
L 414.72 156.685764 
" style="fill:none;stroke:#000000;stroke-linecap:square;stroke-width:0.8;"/>
   </g>
   <g id="patch_3">
    <path d="M 57.6 307.584 
L 57.6 41.472 
" style="fill:none;stroke:#000000;stroke-linecap:square;stroke-linejoin:miter;stroke-width:0.8;"/>
   </g>
   <g id="patch_4">
    <path d="M 414.72 307.584 
L 414.72 41.472 
" style="fill:none;stroke:#000000;stroke-linecap:square;stroke-linejoin:miter;stroke-width:0.8;"/>
   </g>
   <g id="patch_5">
    <path d="M 57.6 307.584 
L 414.72 307.584 
" style="fill:none;stroke:#000000;stroke-linecap:square;stroke-linejoin:miter;stroke-width:0.8;"/>
   </g>
   <g id="patch_6">
    <path d="M 57.6 41.472 
L 414.72 41.472 
" style="fill:none;stroke:#000000;stroke-linecap:square;stroke-linejoin:miter;stroke-width:0.8;"/>
   </g>
  </g>
  <g id="axes_2">
   <g id="matplotlib.axis_3">
    <g id="xtick_8">
     <g id="line2d_26">
      <defs>
       <path d="M 0 0 
L 0 -3.5 
" id="m84f99b1764" style="stroke:#000000;stroke-width:0.8;"/>
      </defs>
      <g>
       <use style="stroke:#000000;stroke-width:0.8;" x="57.6" xlink:href="#m84f99b1764" y="41.472"/>
      </g>
     </g>
    </g>
    <g id="xtick_9">
     <g id="line2d_27">
      <g>
       <use style="stroke:#000000;stroke-width:0.8;" x="125.871234" xlink:href="#m84f99b1764" y="41.472"/>
      </g>
     </g>
     <g id="text_15">
      <!-- 5.00M -->
      <defs>
       <path d="M 10.6875 12.40625 
L 21 12.40625 
L 21 0 
L 10.6875 0 
z
" id="DejaVuSans-46"/>
      </defs>
      <g transform="translate(110.424359 32.392313)scale(0.1 -0.1)">
       <use xlink:href="#DejaVuSans-53"/>
       <use x="63.623047" xlink:href="#DejaVuSans-46"/>
       <use x="95.410156" xlink:href="#DejaVuSans-48"/>
       <use x="159.033203" xlink:href="#DejaVuSans-48"/>
       <use x="222.65625" xlink:href="#DejaVuSans-77"/>
      </g>
     </g>
    </g>
    <g id="xtick_10">
     <g id="line2d_28">
      <g>
       <use style="stroke:#000000;stroke-width:0.8;" x="194.142469" xlink:href="#m84f99b1764" y="41.472"/>
      </g>
     </g>
     <g id="text_16">
      <!-- 10.0M -->
      <g transform="translate(178.695594 32.392313)scale(0.1 -0.1)">
       <use xlink:href="#DejaVuSans-49"/>
       <use x="63.623047" xlink:href="#DejaVuSans-48"/>
       <use x="127.246094" xlink:href="#DejaVuSans-46"/>
       <use x="159.033203" xlink:href="#DejaVuSans-48"/>
       <use x="222.65625" xlink:href="#DejaVuSans-77"/>
      </g>
     </g>
    </g>
    <g id="xtick_11">
     <g id="line2d_29">
      <g>
       <use style="stroke:#000000;stroke-width:0.8;" x="262.413703" xlink:href="#m84f99b1764" y="41.472"/>
      </g>
     </g>
     <g id="text_17">
      <!-- 15.0M -->
      <g transform="translate(246.966828 32.392313)scale(0.1 -0.1)">
       <use xlink:href="#DejaVuSans-49"/>
       <use x="63.623047" xlink:href="#DejaVuSans-53"/>
       <use x="127.246094" xlink:href="#DejaVuSans-46"/>
       <use x="159.033203" xlink:href="#DejaVuSans-48"/>
       <use x="222.65625" xlink:href="#DejaVuSans-77"/>
      </g>
     </g>
    </g>
    <g id="xtick_12">
     <g id="line2d_30">
      <g>
       <use style="stroke:#000000;stroke-width:0.8;" x="330.684938" xlink:href="#m84f99b1764" y="41.472"/>
      </g>
     </g>
     <g id="text_18">
      <!-- 20.0M -->
      <g transform="translate(315.238063 32.392313)scale(0.1 -0.1)">
       <use xlink:href="#DejaVuSans-50"/>
       <use x="63.623047" xlink:href="#DejaVuSans-48"/>
       <use x="127.246094" xlink:href="#DejaVuSans-46"/>
       <use x="159.033203" xlink:href="#DejaVuSans-48"/>
       <use x="222.65625" xlink:href="#DejaVuSans-77"/>
      </g>
     </g>
    </g>
    <g id="xtick_13">
     <g id="line2d_31">
      <g>
       <use style="stroke:#000000;stroke-width:0.8;" x="398.956172" xlink:href="#m84f99b1764" y="41.472"/>
      </g>
     </g>
     <g id="text_19">
      <!-- 25.0M -->
      <g transform="translate(383.509297 32.392313)scale(0.1 -0.1)">
       <use xlink:href="#DejaVuSans-50"/>
       <use x="63.623047" xlink:href="#DejaVuSans-53"/>
       <use x="127.246094" xlink:href="#DejaVuSans-46"/>
       <use x="159.033203" xlink:href="#DejaVuSans-48"/>
       <use x="222.65625" xlink:href="#DejaVuSans-77"/>
      </g>
     </g>
    </g>
    <g id="text_20">
     <!-- Steps -->
     <defs>
      <path d="M 53.515625 70.515625 
L 53.515625 60.890625 
Q 47.90625 63.578125 42.921875 64.890625 
Q 37.9375 66.21875 33.296875 66.21875 
Q 25.25 66.21875 20.875 63.09375 
Q 16.5 59.96875 16.5 54.203125 
Q 16.5 49.359375 19.40625 46.890625 
Q 22.3125 44.4375 30.421875 42.921875 
L 36.375 41.703125 
Q 47.40625 39.59375 52.65625 34.296875 
Q 57.90625 29 57.90625 20.125 
Q 57.90625 9.515625 50.796875 4.046875 
Q 43.703125 -1.421875 29.984375 -1.421875 
Q 24.8125 -1.421875 18.96875 -0.25 
Q 13.140625 0.921875 6.890625 3.21875 
L 6.890625 13.375 
Q 12.890625 10.015625 18.65625 8.296875 
Q 24.421875 6.59375 29.984375 6.59375 
Q 38.421875 6.59375 43.015625 9.90625 
Q 47.609375 13.234375 47.609375 19.390625 
Q 47.609375 24.75 44.3125 27.78125 
Q 41.015625 30.8125 33.5 32.328125 
L 27.484375 33.5 
Q 16.453125 35.6875 11.515625 40.375 
Q 6.59375 45.0625 6.59375 53.421875 
Q 6.59375 63.09375 13.40625 68.65625 
Q 20.21875 74.21875 32.171875 74.21875 
Q 37.3125 74.21875 42.625 73.28125 
Q 47.953125 72.359375 53.515625 70.515625 
z
" id="DejaVuSans-83"/>
      <path d="M 18.109375 8.203125 
L 18.109375 -20.796875 
L 9.078125 -20.796875 
L 9.078125 54.6875 
L 18.109375 54.6875 
L 18.109375 46.390625 
Q 20.953125 51.265625 25.265625 53.625 
Q 29.59375 56 35.59375 56 
Q 45.5625 56 51.78125 48.09375 
Q 58.015625 40.1875 58.015625 27.296875 
Q 58.015625 14.40625 51.78125 6.484375 
Q 45.5625 -1.421875 35.59375 -1.421875 
Q 29.59375 -1.421875 25.265625 0.953125 
Q 20.953125 3.328125 18.109375 8.203125 
z
M 48.6875 27.296875 
Q 48.6875 37.203125 44.609375 42.84375 
Q 40.53125 48.484375 33.40625 48.484375 
Q 26.265625 48.484375 22.1875 42.84375 
Q 18.109375 37.203125 18.109375 27.296875 
Q 18.109375 17.390625 22.1875 11.75 
Q 26.265625 6.109375 33.40625 6.109375 
Q 40.53125 6.109375 44.609375 11.75 
Q 48.6875 17.390625 48.6875 27.296875 
z
" id="DejaVuSans-112"/>
     </defs>
     <g transform="translate(222.170156 20.793875)scale(0.1 -0.1)">
      <use xlink:href="#DejaVuSans-83"/>
      <use x="63.476562" xlink:href="#DejaVuSans-116"/>
      <use x="102.685547" xlink:href="#DejaVuSans-101"/>
      <use x="164.208984" xlink:href="#DejaVuSans-112"/>
      <use x="227.685547" xlink:href="#DejaVuSans-115"/>
     </g>
    </g>
   </g>
   <g id="patch_7">
    <path d="M 57.6 307.584 
L 57.6 41.472 
" style="fill:none;stroke:#000000;stroke-linecap:square;stroke-linejoin:miter;stroke-width:0.8;"/>
   </g>
   <g id="patch_8">
    <path d="M 414.72 307.584 
L 414.72 41.472 
" style="fill:none;stroke:#000000;stroke-linecap:square;stroke-linejoin:miter;stroke-width:0.8;"/>
   </g>
   <g id="patch_9">
    <path d="M 57.6 307.584 
L 414.72 307.584 
" style="fill:none;stroke:#000000;stroke-linecap:square;stroke-linejoin:miter;stroke-width:0.8;"/>
   </g>
   <g id="patch_10">
    <path d="M 57.6 41.472 
L 414.72 41.472 
" style="fill:none;stroke:#000000;stroke-linecap:square;stroke-linejoin:miter;stroke-width:0.8;"/>
   </g>
  </g>
 </g>
 <defs>
  <clipPath id="p8fb6f93f64">
   <rect height="266.112" width="357.12" x="57.6" y="41.472"/>
  </clipPath>
 </defs>
</svg>
