<?xml version="1.0" encoding="utf-8" standalone="no"?>
<!DOCTYPE svg PUBLIC "-//W3C//DTD SVG 1.1//EN"
  "http://www.w3.org/Graphics/SVG/1.1/DTD/svg11.dtd">
<!-- Created with matplotlib (https://matplotlib.org/) -->
<svg height="345.6pt" version="1.1" viewBox="0 0 460.8 345.6" width="460.8pt" xmlns="http://www.w3.org/2000/svg" xmlns:xlink="http://www.w3.org/1999/xlink">
 <defs>
  <style type="text/css">
*{stroke-linecap:butt;stroke-linejoin:round;}
  </style>
 </defs>
 <g id="figure_1">
  <g id="patch_1">
   <path d="M 0 345.6 
L 460.8 345.6 
L 460.8 0 
L 0 0 
z
" style="fill:#ffffff;"/>
  </g>
  <g id="axes_1">
   <g id="patch_2">
    <path d="M 57.6 307.584 
L 414.72 307.584 
L 414.72 41.472 
L 57.6 41.472 
z
" style="fill:#ffffff;"/>
   </g>
   <g id="matplotlib.axis_1">
    <g id="xtick_1">
     <g id="line2d_1">
      <path clip-path="url(#p8e36bdda81)" d="M 57.6 307.584 
L 57.6 41.472 
" style="fill:none;stroke:#b0b0b0;stroke-linecap:square;stroke-width:0.8;"/>
     </g>
     <g id="line2d_2">
      <defs>
       <path d="M 0 0 
L 0 3.5 
" id="m1f3e20ce2b" style="stroke:#000000;stroke-width:0.8;"/>
      </defs>
      <g>
       <use style="stroke:#000000;stroke-width:0.8;" x="57.6" xlink:href="#m1f3e20ce2b" y="307.584"/>
      </g>
     </g>
     <g id="text_1">
      <!-- 0.0 -->
      <defs>
       <path d="M 31.78125 66.40625 
Q 24.171875 66.40625 20.328125 58.90625 
Q 16.5 51.421875 16.5 36.375 
Q 16.5 21.390625 20.328125 13.890625 
Q 24.171875 6.390625 31.78125 6.390625 
Q 39.453125 6.390625 43.28125 13.890625 
Q 47.125 21.390625 47.125 36.375 
Q 47.125 51.421875 43.28125 58.90625 
Q 39.453125 66.40625 31.78125 66.40625 
z
M 31.78125 74.21875 
Q 44.046875 74.21875 50.515625 64.515625 
Q 56.984375 54.828125 56.984375 36.375 
Q 56.984375 17.96875 50.515625 8.265625 
Q 44.046875 -1.421875 31.78125 -1.421875 
Q 19.53125 -1.421875 13.0625 8.265625 
Q 6.59375 17.96875 6.59375 36.375 
Q 6.59375 54.828125 13.0625 64.515625 
Q 19.53125 74.21875 31.78125 74.21875 
z
" id="DejaVuSans-48"/>
       <path d="M 10.6875 12.40625 
L 21 12.40625 
L 21 0 
L 10.6875 0 
z
" id="DejaVuSans-46"/>
      </defs>
      <g transform="translate(49.648438 322.182437)scale(0.1 -0.1)">
       <use xlink:href="#DejaVuSans-48"/>
       <use x="63.623047" xlink:href="#DejaVuSans-46"/>
       <use x="95.410156" xlink:href="#DejaVuSans-48"/>
      </g>
     </g>
    </g>
    <g id="xtick_2">
     <g id="line2d_3">
      <path clip-path="url(#p8e36bdda81)" d="M 97.758707 307.584 
L 97.758707 41.472 
" style="fill:none;stroke:#b0b0b0;stroke-linecap:square;stroke-width:0.8;"/>
     </g>
     <g id="line2d_4">
      <g>
       <use style="stroke:#000000;stroke-width:0.8;" x="97.758707" xlink:href="#m1f3e20ce2b" y="307.584"/>
      </g>
     </g>
     <g id="text_2">
      <!-- 2.5 -->
      <defs>
       <path d="M 19.1875 8.296875 
L 53.609375 8.296875 
L 53.609375 0 
L 7.328125 0 
L 7.328125 8.296875 
Q 12.9375 14.109375 22.625 23.890625 
Q 32.328125 33.6875 34.8125 36.53125 
Q 39.546875 41.84375 41.421875 45.53125 
Q 43.3125 49.21875 43.3125 52.78125 
Q 43.3125 58.59375 39.234375 62.25 
Q 35.15625 65.921875 28.609375 65.921875 
Q 23.96875 65.921875 18.8125 64.3125 
Q 13.671875 62.703125 7.8125 59.421875 
L 7.8125 69.390625 
Q 13.765625 71.78125 18.9375 73 
Q 24.125 74.21875 28.421875 74.21875 
Q 39.75 74.21875 46.484375 68.546875 
Q 53.21875 62.890625 53.21875 53.421875 
Q 53.21875 48.921875 51.53125 44.890625 
Q 49.859375 40.875 45.40625 35.40625 
Q 44.1875 33.984375 37.640625 27.21875 
Q 31.109375 20.453125 19.1875 8.296875 
z
" id="DejaVuSans-50"/>
       <path d="M 10.796875 72.90625 
L 49.515625 72.90625 
L 49.515625 64.59375 
L 19.828125 64.59375 
L 19.828125 46.734375 
Q 21.96875 47.46875 24.109375 47.828125 
Q 26.265625 48.1875 28.421875 48.1875 
Q 40.625 48.1875 47.75 41.5 
Q 54.890625 34.8125 54.890625 23.390625 
Q 54.890625 11.625 47.5625 5.09375 
Q 40.234375 -1.421875 26.90625 -1.421875 
Q 22.3125 -1.421875 17.546875 -0.640625 
Q 12.796875 0.140625 7.71875 1.703125 
L 7.71875 11.625 
Q 12.109375 9.234375 16.796875 8.0625 
Q 21.484375 6.890625 26.703125 6.890625 
Q 35.15625 6.890625 40.078125 11.328125 
Q 45.015625 15.765625 45.015625 23.390625 
Q 45.015625 31 40.078125 35.4375 
Q 35.15625 39.890625 26.703125 39.890625 
Q 22.75 39.890625 18.8125 39.015625 
Q 14.890625 38.140625 10.796875 36.28125 
z
" id="DejaVuSans-53"/>
      </defs>
      <g transform="translate(89.807144 322.182437)scale(0.1 -0.1)">
       <use xlink:href="#DejaVuSans-50"/>
       <use x="63.623047" xlink:href="#DejaVuSans-46"/>
       <use x="95.410156" xlink:href="#DejaVuSans-53"/>
      </g>
     </g>
    </g>
    <g id="xtick_3">
     <g id="line2d_5">
      <path clip-path="url(#p8e36bdda81)" d="M 137.917413 307.584 
L 137.917413 41.472 
" style="fill:none;stroke:#b0b0b0;stroke-linecap:square;stroke-width:0.8;"/>
     </g>
     <g id="line2d_6">
      <g>
       <use style="stroke:#000000;stroke-width:0.8;" x="137.917413" xlink:href="#m1f3e20ce2b" y="307.584"/>
      </g>
     </g>
     <g id="text_3">
      <!-- 5.0 -->
      <g transform="translate(129.965851 322.182437)scale(0.1 -0.1)">
       <use xlink:href="#DejaVuSans-53"/>
       <use x="63.623047" xlink:href="#DejaVuSans-46"/>
       <use x="95.410156" xlink:href="#DejaVuSans-48"/>
      </g>
     </g>
    </g>
    <g id="xtick_4">
     <g id="line2d_7">
      <path clip-path="url(#p8e36bdda81)" d="M 178.07612 307.584 
L 178.07612 41.472 
" style="fill:none;stroke:#b0b0b0;stroke-linecap:square;stroke-width:0.8;"/>
     </g>
     <g id="line2d_8">
      <g>
       <use style="stroke:#000000;stroke-width:0.8;" x="178.07612" xlink:href="#m1f3e20ce2b" y="307.584"/>
      </g>
     </g>
     <g id="text_4">
      <!-- 7.5 -->
      <defs>
       <path d="M 8.203125 72.90625 
L 55.078125 72.90625 
L 55.078125 68.703125 
L 28.609375 0 
L 18.3125 0 
L 43.21875 64.59375 
L 8.203125 64.59375 
z
" id="DejaVuSans-55"/>
      </defs>
      <g transform="translate(170.124558 322.182437)scale(0.1 -0.1)">
       <use xlink:href="#DejaVuSans-55"/>
       <use x="63.623047" xlink:href="#DejaVuSans-46"/>
       <use x="95.410156" xlink:href="#DejaVuSans-53"/>
      </g>
     </g>
    </g>
    <g id="xtick_5">
     <g id="line2d_9">
      <path clip-path="url(#p8e36bdda81)" d="M 218.234827 307.584 
L 218.234827 41.472 
" style="fill:none;stroke:#b0b0b0;stroke-linecap:square;stroke-width:0.8;"/>
     </g>
     <g id="line2d_10">
      <g>
       <use style="stroke:#000000;stroke-width:0.8;" x="218.234827" xlink:href="#m1f3e20ce2b" y="307.584"/>
      </g>
     </g>
     <g id="text_5">
      <!-- 10.0 -->
      <defs>
       <path d="M 12.40625 8.296875 
L 28.515625 8.296875 
L 28.515625 63.921875 
L 10.984375 60.40625 
L 10.984375 69.390625 
L 28.421875 72.90625 
L 38.28125 72.90625 
L 38.28125 8.296875 
L 54.390625 8.296875 
L 54.390625 0 
L 12.40625 0 
z
" id="DejaVuSans-49"/>
      </defs>
      <g transform="translate(207.102014 322.182437)scale(0.1 -0.1)">
       <use xlink:href="#DejaVuSans-49"/>
       <use x="63.623047" xlink:href="#DejaVuSans-48"/>
       <use x="127.246094" xlink:href="#DejaVuSans-46"/>
       <use x="159.033203" xlink:href="#DejaVuSans-48"/>
      </g>
     </g>
    </g>
    <g id="xtick_6">
     <g id="line2d_11">
      <path clip-path="url(#p8e36bdda81)" d="M 258.393534 307.584 
L 258.393534 41.472 
" style="fill:none;stroke:#b0b0b0;stroke-linecap:square;stroke-width:0.8;"/>
     </g>
     <g id="line2d_12">
      <g>
       <use style="stroke:#000000;stroke-width:0.8;" x="258.393534" xlink:href="#m1f3e20ce2b" y="307.584"/>
      </g>
     </g>
     <g id="text_6">
      <!-- 12.5 -->
      <g transform="translate(247.260721 322.182437)scale(0.1 -0.1)">
       <use xlink:href="#DejaVuSans-49"/>
       <use x="63.623047" xlink:href="#DejaVuSans-50"/>
       <use x="127.246094" xlink:href="#DejaVuSans-46"/>
       <use x="159.033203" xlink:href="#DejaVuSans-53"/>
      </g>
     </g>
    </g>
    <g id="xtick_7">
     <g id="line2d_13">
      <path clip-path="url(#p8e36bdda81)" d="M 298.55224 307.584 
L 298.55224 41.472 
" style="fill:none;stroke:#b0b0b0;stroke-linecap:square;stroke-width:0.8;"/>
     </g>
     <g id="line2d_14">
      <g>
       <use style="stroke:#000000;stroke-width:0.8;" x="298.55224" xlink:href="#m1f3e20ce2b" y="307.584"/>
      </g>
     </g>
     <g id="text_7">
      <!-- 15.0 -->
      <g transform="translate(287.419428 322.182437)scale(0.1 -0.1)">
       <use xlink:href="#DejaVuSans-49"/>
       <use x="63.623047" xlink:href="#DejaVuSans-53"/>
       <use x="127.246094" xlink:href="#DejaVuSans-46"/>
       <use x="159.033203" xlink:href="#DejaVuSans-48"/>
      </g>
     </g>
    </g>
    <g id="xtick_8">
     <g id="line2d_15">
      <path clip-path="url(#p8e36bdda81)" d="M 338.710947 307.584 
L 338.710947 41.472 
" style="fill:none;stroke:#b0b0b0;stroke-linecap:square;stroke-width:0.8;"/>
     </g>
     <g id="line2d_16">
      <g>
       <use style="stroke:#000000;stroke-width:0.8;" x="338.710947" xlink:href="#m1f3e20ce2b" y="307.584"/>
      </g>
     </g>
     <g id="text_8">
      <!-- 17.5 -->
      <g transform="translate(327.578134 322.182437)scale(0.1 -0.1)">
       <use xlink:href="#DejaVuSans-49"/>
       <use x="63.623047" xlink:href="#DejaVuSans-55"/>
       <use x="127.246094" xlink:href="#DejaVuSans-46"/>
       <use x="159.033203" xlink:href="#DejaVuSans-53"/>
      </g>
     </g>
    </g>
    <g id="xtick_9">
     <g id="line2d_17">
      <path clip-path="url(#p8e36bdda81)" d="M 378.869654 307.584 
L 378.869654 41.472 
" style="fill:none;stroke:#b0b0b0;stroke-linecap:square;stroke-width:0.8;"/>
     </g>
     <g id="line2d_18">
      <g>
       <use style="stroke:#000000;stroke-width:0.8;" x="378.869654" xlink:href="#m1f3e20ce2b" y="307.584"/>
      </g>
     </g>
     <g id="text_9">
      <!-- 20.0 -->
      <g transform="translate(367.736841 322.182437)scale(0.1 -0.1)">
       <use xlink:href="#DejaVuSans-50"/>
       <use x="63.623047" xlink:href="#DejaVuSans-48"/>
       <use x="127.246094" xlink:href="#DejaVuSans-46"/>
       <use x="159.033203" xlink:href="#DejaVuSans-48"/>
      </g>
     </g>
    </g>
    <g id="text_10">
     <!-- Hours -->
     <defs>
      <path d="M 9.8125 72.90625 
L 19.671875 72.90625 
L 19.671875 43.015625 
L 55.515625 43.015625 
L 55.515625 72.90625 
L 65.375 72.90625 
L 65.375 0 
L 55.515625 0 
L 55.515625 34.71875 
L 19.671875 34.71875 
L 19.671875 0 
L 9.8125 0 
z
" id="DejaVuSans-72"/>
      <path d="M 30.609375 48.390625 
Q 23.390625 48.390625 19.1875 42.75 
Q 14.984375 37.109375 14.984375 27.296875 
Q 14.984375 17.484375 19.15625 11.84375 
Q 23.34375 6.203125 30.609375 6.203125 
Q 37.796875 6.203125 41.984375 11.859375 
Q 46.1875 17.53125 46.1875 27.296875 
Q 46.1875 37.015625 41.984375 42.703125 
Q 37.796875 48.390625 30.609375 48.390625 
z
M 30.609375 56 
Q 42.328125 56 49.015625 48.375 
Q 55.71875 40.765625 55.71875 27.296875 
Q 55.71875 13.875 49.015625 6.21875 
Q 42.328125 -1.421875 30.609375 -1.421875 
Q 18.84375 -1.421875 12.171875 6.21875 
Q 5.515625 13.875 5.515625 27.296875 
Q 5.515625 40.765625 12.171875 48.375 
Q 18.84375 56 30.609375 56 
z
" id="DejaVuSans-111"/>
      <path d="M 8.5 21.578125 
L 8.5 54.6875 
L 17.484375 54.6875 
L 17.484375 21.921875 
Q 17.484375 14.15625 20.5 10.265625 
Q 23.53125 6.390625 29.59375 6.390625 
Q 36.859375 6.390625 41.078125 11.03125 
Q 45.3125 15.671875 45.3125 23.6875 
L 45.3125 54.6875 
L 54.296875 54.6875 
L 54.296875 0 
L 45.3125 0 
L 45.3125 8.40625 
Q 42.046875 3.421875 37.71875 1 
Q 33.40625 -1.421875 27.6875 -1.421875 
Q 18.265625 -1.421875 13.375 4.4375 
Q 8.5 10.296875 8.5 21.578125 
z
M 31.109375 56 
z
" id="DejaVuSans-117"/>
      <path d="M 41.109375 46.296875 
Q 39.59375 47.171875 37.8125 47.578125 
Q 36.03125 48 33.890625 48 
Q 26.265625 48 22.1875 43.046875 
Q 18.109375 38.09375 18.109375 28.8125 
L 18.109375 0 
L 9.078125 0 
L 9.078125 54.6875 
L 18.109375 54.6875 
L 18.109375 46.1875 
Q 20.953125 51.171875 25.484375 53.578125 
Q 30.03125 56 36.53125 56 
Q 37.453125 56 38.578125 55.875 
Q 39.703125 55.765625 41.0625 55.515625 
z
" id="DejaVuSans-114"/>
      <path d="M 44.28125 53.078125 
L 44.28125 44.578125 
Q 40.484375 46.53125 36.375 47.5 
Q 32.28125 48.484375 27.875 48.484375 
Q 21.1875 48.484375 17.84375 46.4375 
Q 14.5 44.390625 14.5 40.28125 
Q 14.5 37.15625 16.890625 35.375 
Q 19.28125 33.59375 26.515625 31.984375 
L 29.59375 31.296875 
Q 39.15625 29.25 43.1875 25.515625 
Q 47.21875 21.78125 47.21875 15.09375 
Q 47.21875 7.46875 41.1875 3.015625 
Q 35.15625 -1.421875 24.609375 -1.421875 
Q 20.21875 -1.421875 15.453125 -0.5625 
Q 10.6875 0.296875 5.421875 2 
L 5.421875 11.28125 
Q 10.40625 8.6875 15.234375 7.390625 
Q 20.0625 6.109375 24.8125 6.109375 
Q 31.15625 6.109375 34.5625 8.28125 
Q 37.984375 10.453125 37.984375 14.40625 
Q 37.984375 18.0625 35.515625 20.015625 
Q 33.0625 21.96875 24.703125 23.78125 
L 21.578125 24.515625 
Q 13.234375 26.265625 9.515625 29.90625 
Q 5.8125 33.546875 5.8125 39.890625 
Q 5.8125 47.609375 11.28125 51.796875 
Q 16.75 56 26.8125 56 
Q 31.78125 56 36.171875 55.265625 
Q 40.578125 54.546875 44.28125 53.078125 
z
" id="DejaVuSans-115"/>
     </defs>
     <g transform="translate(221.511562 335.860562)scale(0.1 -0.1)">
      <use xlink:href="#DejaVuSans-72"/>
      <use x="75.195312" xlink:href="#DejaVuSans-111"/>
      <use x="136.376953" xlink:href="#DejaVuSans-117"/>
      <use x="199.755859" xlink:href="#DejaVuSans-114"/>
      <use x="240.869141" xlink:href="#DejaVuSans-115"/>
     </g>
    </g>
   </g>
   <g id="matplotlib.axis_2">
    <g id="ytick_1">
     <g id="line2d_19">
      <path clip-path="url(#p8e36bdda81)" d="M 57.6 287.385583 
L 414.72 287.385583 
" style="fill:none;stroke:#b0b0b0;stroke-linecap:square;stroke-width:0.8;"/>
     </g>
     <g id="line2d_20">
      <defs>
       <path d="M 0 0 
L -3.5 0 
" id="mf37e326c35" style="stroke:#000000;stroke-width:0.8;"/>
      </defs>
      <g>
       <use style="stroke:#000000;stroke-width:0.8;" x="57.6" xlink:href="#mf37e326c35" y="287.385583"/>
      </g>
     </g>
     <g id="text_11">
      <!-- 250 -->
      <g transform="translate(31.5125 291.184802)scale(0.1 -0.1)">
       <use xlink:href="#DejaVuSans-50"/>
       <use x="63.623047" xlink:href="#DejaVuSans-53"/>
       <use x="127.246094" xlink:href="#DejaVuSans-48"/>
      </g>
     </g>
    </g>
    <g id="ytick_2">
     <g id="line2d_21">
      <path clip-path="url(#p8e36bdda81)" d="M 57.6 251.62582 
L 414.72 251.62582 
" style="fill:none;stroke:#b0b0b0;stroke-linecap:square;stroke-width:0.8;"/>
     </g>
     <g id="line2d_22">
      <g>
       <use style="stroke:#000000;stroke-width:0.8;" x="57.6" xlink:href="#mf37e326c35" y="251.62582"/>
      </g>
     </g>
     <g id="text_12">
      <!-- 500 -->
      <g transform="translate(31.5125 255.425039)scale(0.1 -0.1)">
       <use xlink:href="#DejaVuSans-53"/>
       <use x="63.623047" xlink:href="#DejaVuSans-48"/>
       <use x="127.246094" xlink:href="#DejaVuSans-48"/>
      </g>
     </g>
    </g>
    <g id="ytick_3">
     <g id="line2d_23">
      <path clip-path="url(#p8e36bdda81)" d="M 57.6 215.866058 
L 414.72 215.866058 
" style="fill:none;stroke:#b0b0b0;stroke-linecap:square;stroke-width:0.8;"/>
     </g>
     <g id="line2d_24">
      <g>
       <use style="stroke:#000000;stroke-width:0.8;" x="57.6" xlink:href="#mf37e326c35" y="215.866058"/>
      </g>
     </g>
     <g id="text_13">
      <!-- 750 -->
      <g transform="translate(31.5125 219.665276)scale(0.1 -0.1)">
       <use xlink:href="#DejaVuSans-55"/>
       <use x="63.623047" xlink:href="#DejaVuSans-53"/>
       <use x="127.246094" xlink:href="#DejaVuSans-48"/>
      </g>
     </g>
    </g>
    <g id="ytick_4">
     <g id="line2d_25">
      <path clip-path="url(#p8e36bdda81)" d="M 57.6 180.106295 
L 414.72 180.106295 
" style="fill:none;stroke:#b0b0b0;stroke-linecap:square;stroke-width:0.8;"/>
     </g>
     <g id="line2d_26">
      <g>
       <use style="stroke:#000000;stroke-width:0.8;" x="57.6" xlink:href="#mf37e326c35" y="180.106295"/>
      </g>
     </g>
     <g id="text_14">
      <!-- 1000 -->
      <g transform="translate(25.15 183.905514)scale(0.1 -0.1)">
       <use xlink:href="#DejaVuSans-49"/>
       <use x="63.623047" xlink:href="#DejaVuSans-48"/>
       <use x="127.246094" xlink:href="#DejaVuSans-48"/>
       <use x="190.869141" xlink:href="#DejaVuSans-48"/>
      </g>
     </g>
    </g>
    <g id="ytick_5">
     <g id="line2d_27">
      <path clip-path="url(#p8e36bdda81)" d="M 57.6 144.346532 
L 414.72 144.346532 
" style="fill:none;stroke:#b0b0b0;stroke-linecap:square;stroke-width:0.8;"/>
     </g>
     <g id="line2d_28">
      <g>
       <use style="stroke:#000000;stroke-width:0.8;" x="57.6" xlink:href="#mf37e326c35" y="144.346532"/>
      </g>
     </g>
     <g id="text_15">
      <!-- 1250 -->
      <g transform="translate(25.15 148.145751)scale(0.1 -0.1)">
       <use xlink:href="#DejaVuSans-49"/>
       <use x="63.623047" xlink:href="#DejaVuSans-50"/>
       <use x="127.246094" xlink:href="#DejaVuSans-53"/>
       <use x="190.869141" xlink:href="#DejaVuSans-48"/>
      </g>
     </g>
    </g>
    <g id="ytick_6">
     <g id="line2d_29">
      <path clip-path="url(#p8e36bdda81)" d="M 57.6 108.58677 
L 414.72 108.58677 
" style="fill:none;stroke:#b0b0b0;stroke-linecap:square;stroke-width:0.8;"/>
     </g>
     <g id="line2d_30">
      <g>
       <use style="stroke:#000000;stroke-width:0.8;" x="57.6" xlink:href="#mf37e326c35" y="108.58677"/>
      </g>
     </g>
     <g id="text_16">
      <!-- 1500 -->
      <g transform="translate(25.15 112.385988)scale(0.1 -0.1)">
       <use xlink:href="#DejaVuSans-49"/>
       <use x="63.623047" xlink:href="#DejaVuSans-53"/>
       <use x="127.246094" xlink:href="#DejaVuSans-48"/>
       <use x="190.869141" xlink:href="#DejaVuSans-48"/>
      </g>
     </g>
    </g>
    <g id="ytick_7">
     <g id="line2d_31">
      <path clip-path="url(#p8e36bdda81)" d="M 57.6 72.827007 
L 414.72 72.827007 
" style="fill:none;stroke:#b0b0b0;stroke-linecap:square;stroke-width:0.8;"/>
     </g>
     <g id="line2d_32">
      <g>
       <use style="stroke:#000000;stroke-width:0.8;" x="57.6" xlink:href="#mf37e326c35" y="72.827007"/>
      </g>
     </g>
     <g id="text_17">
      <!-- 1750 -->
      <g transform="translate(25.15 76.626226)scale(0.1 -0.1)">
       <use xlink:href="#DejaVuSans-49"/>
       <use x="63.623047" xlink:href="#DejaVuSans-55"/>
       <use x="127.246094" xlink:href="#DejaVuSans-53"/>
       <use x="190.869141" xlink:href="#DejaVuSans-48"/>
      </g>
     </g>
    </g>
    <g id="text_18">
     <!-- Mean train reward -->
     <defs>
      <path d="M 9.8125 72.90625 
L 24.515625 72.90625 
L 43.109375 23.296875 
L 61.8125 72.90625 
L 76.515625 72.90625 
L 76.515625 0 
L 66.890625 0 
L 66.890625 64.015625 
L 48.09375 14.015625 
L 38.1875 14.015625 
L 19.390625 64.015625 
L 19.390625 0 
L 9.8125 0 
z
" id="DejaVuSans-77"/>
      <path d="M 56.203125 29.59375 
L 56.203125 25.203125 
L 14.890625 25.203125 
Q 15.484375 15.921875 20.484375 11.0625 
Q 25.484375 6.203125 34.421875 6.203125 
Q 39.59375 6.203125 44.453125 7.46875 
Q 49.3125 8.734375 54.109375 11.28125 
L 54.109375 2.78125 
Q 49.265625 0.734375 44.1875 -0.34375 
Q 39.109375 -1.421875 33.890625 -1.421875 
Q 20.796875 -1.421875 13.15625 6.1875 
Q 5.515625 13.8125 5.515625 26.8125 
Q 5.515625 40.234375 12.765625 48.109375 
Q 20.015625 56 32.328125 56 
Q 43.359375 56 49.78125 48.890625 
Q 56.203125 41.796875 56.203125 29.59375 
z
M 47.21875 32.234375 
Q 47.125 39.59375 43.09375 43.984375 
Q 39.0625 48.390625 32.421875 48.390625 
Q 24.90625 48.390625 20.390625 44.140625 
Q 15.875 39.890625 15.1875 32.171875 
z
" id="DejaVuSans-101"/>
      <path d="M 34.28125 27.484375 
Q 23.390625 27.484375 19.1875 25 
Q 14.984375 22.515625 14.984375 16.5 
Q 14.984375 11.71875 18.140625 8.90625 
Q 21.296875 6.109375 26.703125 6.109375 
Q 34.1875 6.109375 38.703125 11.40625 
Q 43.21875 16.703125 43.21875 25.484375 
L 43.21875 27.484375 
z
M 52.203125 31.203125 
L 52.203125 0 
L 43.21875 0 
L 43.21875 8.296875 
Q 40.140625 3.328125 35.546875 0.953125 
Q 30.953125 -1.421875 24.3125 -1.421875 
Q 15.921875 -1.421875 10.953125 3.296875 
Q 6 8.015625 6 15.921875 
Q 6 25.140625 12.171875 29.828125 
Q 18.359375 34.515625 30.609375 34.515625 
L 43.21875 34.515625 
L 43.21875 35.40625 
Q 43.21875 41.609375 39.140625 45 
Q 35.0625 48.390625 27.6875 48.390625 
Q 23 48.390625 18.546875 47.265625 
Q 14.109375 46.140625 10.015625 43.890625 
L 10.015625 52.203125 
Q 14.9375 54.109375 19.578125 55.046875 
Q 24.21875 56 28.609375 56 
Q 40.484375 56 46.34375 49.84375 
Q 52.203125 43.703125 52.203125 31.203125 
z
" id="DejaVuSans-97"/>
      <path d="M 54.890625 33.015625 
L 54.890625 0 
L 45.90625 0 
L 45.90625 32.71875 
Q 45.90625 40.484375 42.875 44.328125 
Q 39.84375 48.1875 33.796875 48.1875 
Q 26.515625 48.1875 22.3125 43.546875 
Q 18.109375 38.921875 18.109375 30.90625 
L 18.109375 0 
L 9.078125 0 
L 9.078125 54.6875 
L 18.109375 54.6875 
L 18.109375 46.1875 
Q 21.34375 51.125 25.703125 53.5625 
Q 30.078125 56 35.796875 56 
Q 45.21875 56 50.046875 50.171875 
Q 54.890625 44.34375 54.890625 33.015625 
z
" id="DejaVuSans-110"/>
      <path id="DejaVuSans-32"/>
      <path d="M 18.3125 70.21875 
L 18.3125 54.6875 
L 36.8125 54.6875 
L 36.8125 47.703125 
L 18.3125 47.703125 
L 18.3125 18.015625 
Q 18.3125 11.328125 20.140625 9.421875 
Q 21.96875 7.515625 27.59375 7.515625 
L 36.8125 7.515625 
L 36.8125 0 
L 27.59375 0 
Q 17.1875 0 13.234375 3.875 
Q 9.28125 7.765625 9.28125 18.015625 
L 9.28125 47.703125 
L 2.6875 47.703125 
L 2.6875 54.6875 
L 9.28125 54.6875 
L 9.28125 70.21875 
z
" id="DejaVuSans-116"/>
      <path d="M 9.421875 54.6875 
L 18.40625 54.6875 
L 18.40625 0 
L 9.421875 0 
z
M 9.421875 75.984375 
L 18.40625 75.984375 
L 18.40625 64.59375 
L 9.421875 64.59375 
z
" id="DejaVuSans-105"/>
      <path d="M 4.203125 54.6875 
L 13.1875 54.6875 
L 24.421875 12.015625 
L 35.59375 54.6875 
L 46.1875 54.6875 
L 57.421875 12.015625 
L 68.609375 54.6875 
L 77.59375 54.6875 
L 63.28125 0 
L 52.6875 0 
L 40.921875 44.828125 
L 29.109375 0 
L 18.5 0 
z
" id="DejaVuSans-119"/>
      <path d="M 45.40625 46.390625 
L 45.40625 75.984375 
L 54.390625 75.984375 
L 54.390625 0 
L 45.40625 0 
L 45.40625 8.203125 
Q 42.578125 3.328125 38.25 0.953125 
Q 33.9375 -1.421875 27.875 -1.421875 
Q 17.96875 -1.421875 11.734375 6.484375 
Q 5.515625 14.40625 5.515625 27.296875 
Q 5.515625 40.1875 11.734375 48.09375 
Q 17.96875 56 27.875 56 
Q 33.9375 56 38.25 53.625 
Q 42.578125 51.265625 45.40625 46.390625 
z
M 14.796875 27.296875 
Q 14.796875 17.390625 18.875 11.75 
Q 22.953125 6.109375 30.078125 6.109375 
Q 37.203125 6.109375 41.296875 11.75 
Q 45.40625 17.390625 45.40625 27.296875 
Q 45.40625 37.203125 41.296875 42.84375 
Q 37.203125 48.484375 30.078125 48.484375 
Q 22.953125 48.484375 18.875 42.84375 
Q 14.796875 37.203125 14.796875 27.296875 
z
" id="DejaVuSans-100"/>
     </defs>
     <g transform="translate(19.070312 220.479562)rotate(-90)scale(0.1 -0.1)">
      <use xlink:href="#DejaVuSans-77"/>
      <use x="86.279297" xlink:href="#DejaVuSans-101"/>
      <use x="147.802734" xlink:href="#DejaVuSans-97"/>
      <use x="209.082031" xlink:href="#DejaVuSans-110"/>
      <use x="272.460938" xlink:href="#DejaVuSans-32"/>
      <use x="304.248047" xlink:href="#DejaVuSans-116"/>
      <use x="343.457031" xlink:href="#DejaVuSans-114"/>
      <use x="384.570312" xlink:href="#DejaVuSans-97"/>
      <use x="445.849609" xlink:href="#DejaVuSans-105"/>
      <use x="473.632812" xlink:href="#DejaVuSans-110"/>
      <use x="537.011719" xlink:href="#DejaVuSans-32"/>
      <use x="568.798828" xlink:href="#DejaVuSans-114"/>
      <use x="609.880859" xlink:href="#DejaVuSans-101"/>
      <use x="671.404297" xlink:href="#DejaVuSans-119"/>
      <use x="753.191406" xlink:href="#DejaVuSans-97"/>
      <use x="814.470703" xlink:href="#DejaVuSans-114"/>
      <use x="855.568359" xlink:href="#DejaVuSans-100"/>
     </g>
    </g>
   </g>
   <g id="line2d_33">
    <path clip-path="url(#p8e36bdda81)" d="M 57.6 295.488 
L 57.624084 295.278309 
L 58.52247 272.199885 
L 59.609976 263.578076 
L 59.68049 263.811335 
L 60.817931 255.452757 
L 61.30314 250.62071 
L 61.594317 250.533393 
L 61.646217 249.893715 
L 62.02521 249.411648 
L 62.285959 247.074448 
L 62.689306 244.941442 
L 63.295431 237.871075 
L 63.336457 237.815297 
L 63.53139 237.208114 
L 64.52931 232.54432 
L 64.878533 231.501848 
L 65.242377 230.915295 
L 66.09236 226.888533 
L 66.706346 225.816377 
L 67.680902 223.012746 
L 68.033463 222.611933 
L 68.246442 223.280438 
L 68.692821 222.718129 
L 69.011633 221.009885 
L 69.126157 221.21484 
L 69.922219 217.815113 
L 70.094412 218.135467 
L 70.155754 217.710043 
L 70.287908 218.303597 
L 70.600519 218.583913 
L 71.089404 216.427598 
L 71.322279 214.564886 
L 71.647274 214.703848 
L 71.771272 214.527293 
L 72.530109 218.578553 
L 72.956609 219.350225 
L 73.723205 216.442378 
L 74.172757 214.567811 
L 74.210991 214.645005 
L 74.570442 214.767693 
L 74.650439 215.165137 
L 75.15538 211.187727 
L 75.560747 209.405231 
L 75.724063 209.832043 
L 75.767456 209.696835 
L 75.997605 209.173342 
L 76.103765 209.234027 
L 76.202676 209.153411 
L 76.518471 209.590883 
L 76.560935 209.11202 
L 77.534767 209.231408 
L 77.969004 210.678238 
L 78.315448 207.410096 
L 79.110554 205.335916 
L 79.654842 207.651116 
L 80.196799 205.628315 
L 80.220448 205.710442 
L 80.627784 202.287807 
L 81.108146 203.161066 
L 81.643379 202.811099 
L 82.216785 200.821229 
L 83.487073 198.915694 
L 84.561283 203.139406 
L 85.458265 195.463515 
L 86.018519 193.246532 
L 86.065839 192.359802 
L 87.054879 185.29655 
L 87.251852 185.618746 
L 87.652502 183.762416 
L 88.08756 184.125872 
L 88.952056 182.173516 
L 89.294129 179.819527 
L 89.337881 180.18754 
L 90.130082 180.62592 
L 90.142132 180.494824 
L 90.814248 176.067083 
L 91.639941 172.683036 
L 91.838967 173.385939 
L 92.016413 174.481047 
L 92.916503 175.633845 
L 93.361348 177.927359 
L 94.975132 165.403847 
L 96.051076 173.184633 
L 96.072298 172.797824 
L 96.815092 170.688661 
L 97.350899 168.313064 
L 98.56241 166.130374 
L 99.418093 163.542453 
L 99.542064 165.523418 
L 99.6708 165.500754 
L 100.254327 166.378667 
L 101.186561 166.961963 
L 101.466575 165.081904 
L 102.517857 163.005184 
L 102.648819 161.523162 
L 103.079619 160.202792 
L 103.919124 158.791433 
L 104.0783 158.982629 
L 104.410615 158.817101 
L 104.472886 158.956718 
L 105.555676 152.250191 
L 105.784865 151.556525 
L 106.798599 151.642187 
L 106.885976 151.398941 
L 107.80224 148.278377 
L 108.575258 151.699162 
L 108.622635 151.912655 
L 109.147119 150.168494 
L 110.564823 148.321191 
L 111.034716 144.802434 
L 111.348122 147.036651 
L 111.837046 147.453301 
L 112.226393 146.389588 
L 112.388827 145.776259 
L 112.661531 145.794593 
L 113.814363 142.335604 
L 114.738498 140.331312 
L 114.970889 140.387116 
L 115.226663 142.388441 
L 116.081007 143.801912 
L 116.502653 137.365259 
L 117.363928 138.221922 
L 118.007032 135.508318 
L 118.248522 135.266399 
L 118.410884 134.706325 
L 118.790385 137.343782 
L 119.363755 135.467687 
L 119.8105 132.285225 
L 121.417034 138.235472 
L 122.029148 136.87152 
L 122.351372 134.551168 
L 122.714572 132.693966 
L 123.280831 134.131393 
L 123.621109 133.805539 
L 124.146228 132.671267 
L 124.510738 132.679159 
L 124.829742 132.531964 
L 125.872161 131.330275 
L 126.237792 131.532053 
L 126.293188 130.933391 
L 126.903991 127.449398 
L 127.711665 130.51276 
L 128.551402 131.848809 
L 128.570293 132.137 
L 128.802751 131.930491 
L 128.968851 131.458455 
L 130.131945 125.223545 
L 130.650459 125.225413 
L 131.814089 133.991217 
L 132.333569 132.054673 
L 132.890018 123.391067 
L 133.950895 130.684784 
L 135.520359 127.890686 
L 135.588672 127.030723 
L 135.840244 127.733084 
L 136.388118 133.236665 
L 136.660593 132.341082 
L 137.258791 121.726597 
L 137.288235 121.889262 
L 137.452188 121.686699 
L 137.741908 122.602589 
L 138.553721 120.492483 
L 138.677436 119.300677 
L 139.258771 124.727501 
L 139.526727 124.546659 
L 139.720889 125.225099 
L 139.86637 124.07148 
L 141.705724 111.783025 
L 142.810331 118.180147 
L 142.990028 117.78864 
L 143.625633 113.230912 
L 144.436721 114.348614 
L 144.486142 115.557793 
L 145.323312 120.026786 
L 145.538594 115.869364 
L 146.032241 112.249596 
L 146.30744 115.230071 
L 146.949937 114.45261 
L 147.074532 113.672286 
L 147.279829 116.166215 
L 147.406325 115.642111 
L 147.729522 113.600417 
L 148.057586 113.068858 
L 148.062453 113.334734 
L 148.509855 114.25354 
L 148.695518 113.575326 
L 148.754964 113.724669 
L 149.180275 119.961744 
L 149.421684 120.094778 
L 149.450445 120.707234 
L 149.614049 120.153988 
L 149.66415 118.949907 
L 150.036444 115.221288 
L 150.128507 116.624003 
L 150.16735 116.593307 
L 150.790113 114.651402 
L 150.853662 113.933064 
L 151.820345 111.049234 
L 153.018822 115.407193 
L 153.388191 113.739179 
L 153.53127 114.37381 
L 153.861274 112.972195 
L 153.975964 112.833451 
L 154.098466 112.162973 
L 154.324438 111.634486 
L 154.722205 111.345021 
L 154.894212 110.881541 
L 154.987102 108.987513 
L 155.555964 106.942554 
L 156.403804 111.054612 
L 157.123513 119.120202 
L 157.156538 118.723091 
L 157.456222 114.23566 
L 157.670483 106.820852 
L 158.395154 102.640836 
L 158.583177 102.938718 
L 158.729706 102.457096 
L 159.06872 101.570784 
L 159.705873 104.377821 
L 160.423118 103.209937 
L 160.793357 104.901768 
L 161.508229 105.355941 
L 162.386934 104.981948 
L 162.581901 106.609436 
L 163.040514 111.817528 
L 163.416164 105.540939 
L 163.924649 106.178573 
L 164.054223 108.135564 
L 164.398137 110.634592 
L 164.988393 108.632604 
L 165.299557 108.774718 
L 165.829715 111.962034 
L 166.081756 110.503025 
L 166.408879 107.413175 
L 166.643754 103.843206 
L 167.462383 104.7907 
L 167.867686 102.660549 
L 167.896706 103.145297 
L 168.043001 102.782513 
L 168.386701 105.008681 
L 168.63319 104.990347 
L 168.932479 101.834024 
L 169.292283 99.641364 
L 169.491293 100.435814 
L 169.931793 105.502211 
L 170.43603 105.169739 
L 170.924632 99.149318 
L 171.445973 104.179868 
L 171.994526 101.835368 
L 172.137634 99.960128 
L 172.289133 99.908287 
L 172.907935 98.853496 
L 173.985297 94.338023 
L 174.45262 95.505349 
L 174.505919 96.082237 
L 174.73135 95.623192 
L 175.281484 101.629837 
L 175.670592 100.775304 
L 177.066251 93.30656 
L 177.10877 92.40738 
L 177.409515 90.442723 
L 177.453533 90.928326 
L 178.15366 92.411379 
L 178.210641 92.31709 
L 178.401338 91.244123 
L 178.987317 94.723523 
L 179.26288 98.861616 
L 180.012394 91.980149 
L 180.461309 90.667968 
L 180.829078 92.318993 
L 181.133233 94.875659 
L 181.266221 94.638978 
L 181.784611 90.03442 
L 182.247677 90.788448 
L 182.409294 90.021586 
L 183.612022 103.021587 
L 183.833175 103.623025 
L 184.254582 100.050279 
L 185.349805 99.301122 
L 185.52476 97.185377 
L 185.593714 97.443553 
L 186.016745 99.402377 
L 187.230625 89.387409 
L 188.00098 86.828141 
L 188.188783 88.477491 
L 189.172368 88.868438 
L 189.724259 92.984687 
L 190.005052 87.304385 
L 190.620284 83.205999 
L 191.126128 84.983475 
L 191.720829 86.080259 
L 192.263291 85.90738 
L 192.515573 86.434871 
L 192.903089 92.606049 
L 193.38735 103.928414 
L 193.632622 104.364743 
L 193.733599 102.814484 
L 194.028899 101.489888 
L 195.302141 86.42429 
L 195.526892 86.737694 
L 195.804514 86.227751 
L 196.989873 91.5496 
L 197.232062 90.647853 
L 197.365908 89.826601 
L 197.612708 90.70516 
L 197.870561 87.935035 
L 198.152206 87.968874 
L 198.222857 87.532162 
L 198.8911 86.770102 
L 198.988934 86.354272 
L 199.258152 86.102173 
L 199.502239 86.55577 
L 199.714186 88.678936 
L 200.248655 88.717751 
L 200.809804 90.061047 
L 201.969749 88.208402 
L 202.283778 92.559708 
L 202.591174 94.275059 
L 202.884844 92.075223 
L 202.99769 92.121424 
L 203.584402 86.08981 
L 204.781082 89.403508 
L 205.300654 95.28522 
L 206.504795 90.364656 
L 207.751013 90.391127 
L 208.852689 86.620969 
L 208.912381 86.799191 
L 210.017412 81.727434 
L 210.404921 86.385736 
L 211.000942 89.888901 
L 211.16246 89.135048 
L 211.640584 90.773536 
L 211.828227 93.902952 
L 212.459757 94.84079 
L 212.917273 90.626865 
L 213.476262 87.742111 
L 214.091382 91.013553 
L 215.783331 102.751415 
L 215.975726 101.303302 
L 216.171184 100.633592 
L 216.222813 99.836925 
L 216.755263 100.43955 
L 217.2048 101.933236 
L 217.408473 103.970076 
L 218.015244 108.486614 
L 218.067187 108.464125 
L 218.870695 98.959571 
L 219.053422 96.366936 
L 220.320648 90.862307 
L 220.368393 91.230259 
L 220.782118 90.890576 
L 220.994298 91.509091 
L 221.716257 95.522618 
L 222.109696 95.402068 
L 222.413512 94.687467 
L 223.24963 88.983767 
L 223.464231 86.016056 
L 223.859605 80.223254 
L 224.393577 81.325189 
L 224.771437 83.746324 
L 225.199546 84.027757 
L 225.635239 81.981698 
L 226.627763 78.527494 
L 226.861931 81.157966 
L 227.446541 84.951801 
L 227.479846 84.791092 
L 227.922244 82.63496 
L 228.122709 82.895144 
L 228.668112 88.837358 
L 229.289719 100.642969 
L 229.696122 99.185409 
L 229.763297 97.060951 
L 230.028797 93.619179 
L 230.149332 93.532014 
L 230.75271 92.924011 
L 231.579469 100.950157 
L 232.39054 88.486727 
L 232.943082 86.878428 
L 233.162841 87.053316 
L 233.811977 91.998989 
L 234.192276 93.895933 
L 234.19686 93.838102 
L 235.58761 84.198629 
L 235.999113 95.867067 
L 236.554516 105.682144 
L 236.604884 105.243075 
L 237.049844 101.526801 
L 237.107947 101.566995 
L 237.673543 104.784047 
L 238.157784 97.777438 
L 238.541641 91.719476 
L 240.440688 102.597027 
L 241.006087 91.962461 
L 241.246925 94.352149 
L 241.319542 94.209581 
L 241.443642 94.916378 
L 241.666996 97.569655 
L 242.307601 97.361557 
L 242.326822 96.953323 
L 242.694806 92.266367 
L 243.365034 86.935508 
L 244.18266 85.238299 
L 245.290358 88.435131 
L 245.441131 87.027893 
L 245.944822 79.182519 
L 246.043244 79.413962 
L 246.884633 87.124818 
L 248.189533 87.738479 
L 248.229569 87.967635 
L 248.645035 86.779932 
L 249.212589 81.117073 
L 249.50217 80.9502 
L 250.069223 76.879454 
L 251.058274 84.509012 
L 251.392219 85.37135 
L 252.39897 93.620872 
L 253.661244 82.745696 
L 254.514322 91.272409 
L 254.868931 90.667793 
L 255.153561 89.285612 
L 256.009952 81.568697 
L 257.259459 96.635885 
L 257.639646 93.504723 
L 257.892704 89.66446 
L 258.209984 82.957688 
L 258.676274 77.777394 
L 259.080857 78.643626 
L 259.46041 81.198423 
L 259.654959 81.444097 
L 259.78172 81.396935 
L 260.319785 78.150567 
L 261.566832 85.79158 
L 262.177725 83.752487 
L 262.545033 81.166365 
L 262.813985 80.887603 
L 263.042797 81.848315 
L 263.106081 81.719716 
L 264.201366 78.212361 
L 264.647016 75.131888 
L 264.980717 73.39176 
L 265.66754 73.034546 
L 266.015747 72.716113 
L 266.812041 75.897423 
L 267.471493 73.880802 
L 267.887573 78.851584 
L 268.592447 79.138343 
L 269.101496 81.481463 
L 270.134997 84.186197 
L 270.260081 83.136365 
L 270.936524 72.70644 
L 271.726667 77.079695 
L 272.553345 73.587181 
L 272.919883 73.10879 
L 273.222851 76.70523 
L 273.511841 78.501058 
L 273.920272 78.463709 
L 275.021953 67.085382 
L 275.201113 67.517276 
L 275.416873 74.901789 
L 276.107919 80.499781 
L 277.218591 80.015714 
L 277.346078 80.717046 
L 278.24906 87.245176 
L 279.220505 79.622113 
L 280.606227 86.399286 
L 281.397101 75.439041 
L 281.741303 72.765545 
L 282.073302 75.890857 
L 282.982053 75.13758 
L 284.285183 82.437111 
L 285.018647 91.90402 
L 285.024734 91.796077 
L 286.563908 73.921626 
L 288.157328 84.784265 
L 288.682516 86.300702 
L 288.71417 85.825925 
L 289.111097 82.379473 
L 289.171483 82.43196 
L 289.328918 81.586071 
L 290.235147 71.694149 
L 291.018043 71.018398 
L 291.88331 66.64654 
L 292.151629 67.900663 
L 292.300016 67.497056 
L 294.83604 68.081959 
L 295.055199 68.628133 
L 295.479476 67.370989 
L 295.952428 64.897803 
L 296.543555 68.629495 
L 296.644043 70.168492 
L 297.475183 68.594207 
L 297.735321 69.729457 
L 298.122867 79.478288 
L 298.665788 86.762017 
L 300.612142 83.88374 
L 301.569362 99.54594 
L 301.817048 100.351338 
L 301.979678 100.212629 
L 302.165574 100.316521 
L 302.198938 100.889882 
L 302.638618 90.398565 
L 302.854612 83.70695 
L 303.446116 71.338053 
L 304.084013 76.67071 
L 305.886137 67.01945 
L 307.162307 78.96253 
L 308.374029 70.738378 
L 309.094999 73.483272 
L 309.408786 76.127609 
L 310.012805 75.647104 
L 310.721887 72.008863 
L 310.936057 72.135366 
L 311.465016 75.231816 
L 312.18832 76.056857 
L 312.60881 78.858359 
L 312.941911 76.932622 
L 313.183033 72.871567 
L 313.605461 69.505749 
L 314.571603 73.641327 
L 314.86195 71.303271 
L 315.801825 76.467117 
L 316.174744 79.740043 
L 317.161416 98.755419 
L 317.310375 98.573669 
L 317.671365 93.101605 
L 318.564657 90.709176 
L 320.13631 91.95951 
L 320.621436 85.229481 
L 321.60048 81.609818 
L 321.696614 82.430948 
L 323.360974 82.334948 
L 323.855654 77.776766 
L 324.146551 80.178868 
L 324.530555 79.740148 
L 324.732464 77.477173 
L 325.309289 69.483539 
L 325.916417 70.601957 
L 326.19167 71.486609 
L 326.522444 71.213976 
L 327.526057 85.101737 
L 327.584408 83.835636 
L 327.656317 83.438455 
L 328.186422 77.78588 
L 328.743725 74.69507 
L 328.857211 73.263423 
L 330.153119 74.787648 
L 330.933967 84.600682 
L 331.528402 84.341633 
L 332.140189 75.610663 
L 332.626965 77.821797 
L 333.185155 82.99158 
L 333.613943 76.415066 
L 334.264093 68.418027 
L 334.612325 66.709503 
L 335.101666 63.72365 
L 336.853304 70.408823 
L 336.91835 70.008289 
L 337.447332 68.443206 
L 337.717378 69.930885 
L 337.991373 75.221165 
L 339.011801 73.48989 
L 339.042184 73.165817 
L 340.142432 68.238635 
L 340.863496 68.761499 
L 341.073501 69.680584 
L 341.378109 74.647193 
L 342.588699 85.577004 
L 342.896566 84.11679 
L 343.47636 74.21495 
L 344.069958 67.973649 
L 344.34884 71.049041 
L 344.454696 71.734763 
L 345.357931 69.292256 
L 345.58226 70.207587 
L 345.892739 72.723377 
L 345.94793 72.257854 
L 346.461885 69.480798 
L 346.91214 65.316881 
L 347.086181 64.781427 
L 347.137713 64.849454 
L 348.047985 59.848361 
L 348.340071 60.002086 
L 349.530363 62.365408 
L 350.142159 72.926795 
L 350.66079 78.150375 
L 351.490693 71.426841 
L 351.796155 70.464366 
L 352.096767 71.278249 
L 352.213053 71.457066 
L 352.283486 71.015883 
L 352.545874 71.058697 
L 352.96318 72.167477 
L 353.475542 75.272482 
L 354.012342 81.277171 
L 354.633336 85.253682 
L 356.428935 72.802562 
L 356.785136 73.402673 
L 357.312119 76.101173 
L 358.014977 75.291724 
L 358.047995 75.493362 
L 359.09911 67.937104 
L 359.156375 67.404584 
L 359.736972 63.839293 
L 360.053838 67.53196 
L 361.088154 74.225531 
L 362.638403 73.345541 
L 362.701114 73.134667 
L 363.330385 68.466603 
L 363.363759 69.174919 
L 363.733204 68.549944 
L 364.466492 84.315459 
L 365.084165 102.150361 
L 365.593824 85.084766 
L 366.197241 72.814226 
L 367.187458 65.252607 
L 367.549515 64.641653 
L 367.76227 63.972275 
L 369.824108 67.748824 
L 370.370359 69.490087 
L 370.632596 71.583552 
L 370.793346 71.351096 
L 371.591658 78.355382 
L 371.985057 78.307854 
L 372.095188 79.443017 
L 372.346116 83.541177 
L 372.880912 88.337332 
L 373.255918 83.794027 
L 374.181588 69.551147 
L 374.764403 75.099166 
L 375.244009 70.40327 
L 375.572748 71.65673 
L 375.888253 74.681294 
L 376.599023 70.382265 
L 376.673814 69.288065 
L 377.141027 67.1455 
L 377.809632 63.123504 
L 378.768345 61.390361 
L 379.551261 64.06253 
L 379.832825 65.912836 
L 380.406349 61.668197 
L 380.568474 59.460765 
L 380.967329 62.958552 
L 381.553642 67.034746 
L 382.166296 66.994027 
L 382.359093 71.004988 
L 383.514924 64.315607 
L 384.417792 59.956496 
L 385.047875 66.759005 
L 385.695045 59.037096 
L 385.976623 57.854806 
L 386.674075 63.769049 
L 387.908611 55.337165 
L 388.629878 60.152371 
L 388.990983 63.125652 
L 389.216989 63.516146 
L 390.269321 70.192169 
L 391.709088 56.813373 
L 392.005154 57.94885 
L 393.195287 68.060622 
L 394.101789 72.933954 
L 394.577096 65.98577 
L 394.727502 64.901261 
L 396.872666 69.647426 
L 397.258425 64.547976 
L 397.662286 61.433227 
L 398.304374 63.329507 
L 398.538894 66.351958 
L 398.985558 65.119503 
L 399.947752 53.568 
L 400.196532 53.786644 
L 400.379584 54.735832 
L 400.820641 62.411679 
L 401.197385 64.848581 
L 401.681514 71.786429 
L 403.053904 55.218432 
L 403.651833 54.694572 
L 404.610969 57.511841 
L 405.398503 67.239492 
L 405.482232 66.679296 
L 405.823314 66.673726 
L 406.065279 64.183132 
L 406.850588 66.013882 
L 407.039482 68.36231 
L 407.202881 67.899371 
L 407.299937 68.500896 
L 407.314231 68.492026 
L 407.479626 68.527734 
L 407.527111 69.095769 
L 408.15359 66.485132 
L 410.421474 75.007759 
L 410.478447 74.668425 
L 411.2295 72.584703 
L 411.457634 71.586677 
L 411.603845 72.606529 
L 412.279322 74.250291 
L 412.510005 73.650808 
L 413.146171 72.700835 
L 413.793677 71.180172 
L 413.931426 70.490836 
L 414.491823 65.800633 
L 414.72 61.475308 
L 414.72 61.475308 
" style="fill:none;stroke:#000000;stroke-linecap:square;stroke-width:0.8;"/>
   </g>
   <g id="patch_3">
    <path d="M 57.6 307.584 
L 57.6 41.472 
" style="fill:none;stroke:#000000;stroke-linecap:square;stroke-linejoin:miter;stroke-width:0.8;"/>
   </g>
   <g id="patch_4">
    <path d="M 414.72 307.584 
L 414.72 41.472 
" style="fill:none;stroke:#000000;stroke-linecap:square;stroke-linejoin:miter;stroke-width:0.8;"/>
   </g>
   <g id="patch_5">
    <path d="M 57.6 307.584 
L 414.72 307.584 
" style="fill:none;stroke:#000000;stroke-linecap:square;stroke-linejoin:miter;stroke-width:0.8;"/>
   </g>
   <g id="patch_6">
    <path d="M 57.6 41.472 
L 414.72 41.472 
" style="fill:none;stroke:#000000;stroke-linecap:square;stroke-linejoin:miter;stroke-width:0.8;"/>
   </g>
  </g>
  <g id="axes_2">
   <g id="matplotlib.axis_3">
    <g id="xtick_10">
     <g id="line2d_34">
      <defs>
       <path d="M 0 0 
L 0 -3.5 
" id="m54fb12e7a4" style="stroke:#000000;stroke-width:0.8;"/>
      </defs>
      <g>
       <use style="stroke:#000000;stroke-width:0.8;" x="57.6" xlink:href="#m54fb12e7a4" y="41.472"/>
      </g>
     </g>
    </g>
    <g id="xtick_11">
     <g id="line2d_35">
      <g>
       <use style="stroke:#000000;stroke-width:0.8;" x="100.610729" xlink:href="#m54fb12e7a4" y="41.472"/>
      </g>
     </g>
     <g id="text_19">
      <!-- 5.00M -->
      <g transform="translate(85.163854 32.392313)scale(0.1 -0.1)">
       <use xlink:href="#DejaVuSans-53"/>
       <use x="63.623047" xlink:href="#DejaVuSans-46"/>
       <use x="95.410156" xlink:href="#DejaVuSans-48"/>
       <use x="159.033203" xlink:href="#DejaVuSans-48"/>
       <use x="222.65625" xlink:href="#DejaVuSans-77"/>
      </g>
     </g>
    </g>
    <g id="xtick_12">
     <g id="line2d_36">
      <g>
       <use style="stroke:#000000;stroke-width:0.8;" x="143.621458" xlink:href="#m54fb12e7a4" y="41.472"/>
      </g>
     </g>
     <g id="text_20">
      <!-- 10.0M -->
      <g transform="translate(128.174583 32.392313)scale(0.1 -0.1)">
       <use xlink:href="#DejaVuSans-49"/>
       <use x="63.623047" xlink:href="#DejaVuSans-48"/>
       <use x="127.246094" xlink:href="#DejaVuSans-46"/>
       <use x="159.033203" xlink:href="#DejaVuSans-48"/>
       <use x="222.65625" xlink:href="#DejaVuSans-77"/>
      </g>
     </g>
    </g>
    <g id="xtick_13">
     <g id="line2d_37">
      <g>
       <use style="stroke:#000000;stroke-width:0.8;" x="186.632187" xlink:href="#m54fb12e7a4" y="41.472"/>
      </g>
     </g>
     <g id="text_21">
      <!-- 15.0M -->
      <g transform="translate(171.185312 32.392313)scale(0.1 -0.1)">
       <use xlink:href="#DejaVuSans-49"/>
       <use x="63.623047" xlink:href="#DejaVuSans-53"/>
       <use x="127.246094" xlink:href="#DejaVuSans-46"/>
       <use x="159.033203" xlink:href="#DejaVuSans-48"/>
       <use x="222.65625" xlink:href="#DejaVuSans-77"/>
      </g>
     </g>
    </g>
    <g id="xtick_14">
     <g id="line2d_38">
      <g>
       <use style="stroke:#000000;stroke-width:0.8;" x="229.642915" xlink:href="#m54fb12e7a4" y="41.472"/>
      </g>
     </g>
     <g id="text_22">
      <!-- 20.0M -->
      <g transform="translate(214.19604 32.392313)scale(0.1 -0.1)">
       <use xlink:href="#DejaVuSans-50"/>
       <use x="63.623047" xlink:href="#DejaVuSans-48"/>
       <use x="127.246094" xlink:href="#DejaVuSans-46"/>
       <use x="159.033203" xlink:href="#DejaVuSans-48"/>
       <use x="222.65625" xlink:href="#DejaVuSans-77"/>
      </g>
     </g>
    </g>
    <g id="xtick_15">
     <g id="line2d_39">
      <g>
       <use style="stroke:#000000;stroke-width:0.8;" x="272.653644" xlink:href="#m54fb12e7a4" y="41.472"/>
      </g>
     </g>
     <g id="text_23">
      <!-- 25.0M -->
      <g transform="translate(257.206769 32.392313)scale(0.1 -0.1)">
       <use xlink:href="#DejaVuSans-50"/>
       <use x="63.623047" xlink:href="#DejaVuSans-53"/>
       <use x="127.246094" xlink:href="#DejaVuSans-46"/>
       <use x="159.033203" xlink:href="#DejaVuSans-48"/>
       <use x="222.65625" xlink:href="#DejaVuSans-77"/>
      </g>
     </g>
    </g>
    <g id="xtick_16">
     <g id="line2d_40">
      <g>
       <use style="stroke:#000000;stroke-width:0.8;" x="315.664373" xlink:href="#m54fb12e7a4" y="41.472"/>
      </g>
     </g>
     <g id="text_24">
      <!-- 30.0M -->
      <defs>
       <path d="M 40.578125 39.3125 
Q 47.65625 37.796875 51.625 33 
Q 55.609375 28.21875 55.609375 21.1875 
Q 55.609375 10.40625 48.1875 4.484375 
Q 40.765625 -1.421875 27.09375 -1.421875 
Q 22.515625 -1.421875 17.65625 -0.515625 
Q 12.796875 0.390625 7.625 2.203125 
L 7.625 11.71875 
Q 11.71875 9.328125 16.59375 8.109375 
Q 21.484375 6.890625 26.8125 6.890625 
Q 36.078125 6.890625 40.9375 10.546875 
Q 45.796875 14.203125 45.796875 21.1875 
Q 45.796875 27.640625 41.28125 31.265625 
Q 36.765625 34.90625 28.71875 34.90625 
L 20.21875 34.90625 
L 20.21875 43.015625 
L 29.109375 43.015625 
Q 36.375 43.015625 40.234375 45.921875 
Q 44.09375 48.828125 44.09375 54.296875 
Q 44.09375 59.90625 40.109375 62.90625 
Q 36.140625 65.921875 28.71875 65.921875 
Q 24.65625 65.921875 20.015625 65.03125 
Q 15.375 64.15625 9.8125 62.3125 
L 9.8125 71.09375 
Q 15.4375 72.65625 20.34375 73.4375 
Q 25.25 74.21875 29.59375 74.21875 
Q 40.828125 74.21875 47.359375 69.109375 
Q 53.90625 64.015625 53.90625 55.328125 
Q 53.90625 49.265625 50.4375 45.09375 
Q 46.96875 40.921875 40.578125 39.3125 
z
" id="DejaVuSans-51"/>
      </defs>
      <g transform="translate(300.217498 32.392313)scale(0.1 -0.1)">
       <use xlink:href="#DejaVuSans-51"/>
       <use x="63.623047" xlink:href="#DejaVuSans-48"/>
       <use x="127.246094" xlink:href="#DejaVuSans-46"/>
       <use x="159.033203" xlink:href="#DejaVuSans-48"/>
       <use x="222.65625" xlink:href="#DejaVuSans-77"/>
      </g>
     </g>
    </g>
    <g id="xtick_17">
     <g id="line2d_41">
      <g>
       <use style="stroke:#000000;stroke-width:0.8;" x="358.675102" xlink:href="#m54fb12e7a4" y="41.472"/>
      </g>
     </g>
     <g id="text_25">
      <!-- 35.0M -->
      <g transform="translate(343.228227 32.392313)scale(0.1 -0.1)">
       <use xlink:href="#DejaVuSans-51"/>
       <use x="63.623047" xlink:href="#DejaVuSans-53"/>
       <use x="127.246094" xlink:href="#DejaVuSans-46"/>
       <use x="159.033203" xlink:href="#DejaVuSans-48"/>
       <use x="222.65625" xlink:href="#DejaVuSans-77"/>
      </g>
     </g>
    </g>
    <g id="xtick_18">
     <g id="line2d_42">
      <g>
       <use style="stroke:#000000;stroke-width:0.8;" x="401.685831" xlink:href="#m54fb12e7a4" y="41.472"/>
      </g>
     </g>
     <g id="text_26">
      <!-- 40.0M -->
      <defs>
       <path d="M 37.796875 64.3125 
L 12.890625 25.390625 
L 37.796875 25.390625 
z
M 35.203125 72.90625 
L 47.609375 72.90625 
L 47.609375 25.390625 
L 58.015625 25.390625 
L 58.015625 17.1875 
L 47.609375 17.1875 
L 47.609375 0 
L 37.796875 0 
L 37.796875 17.1875 
L 4.890625 17.1875 
L 4.890625 26.703125 
z
" id="DejaVuSans-52"/>
      </defs>
      <g transform="translate(386.238956 32.392313)scale(0.1 -0.1)">
       <use xlink:href="#DejaVuSans-52"/>
       <use x="63.623047" xlink:href="#DejaVuSans-48"/>
       <use x="127.246094" xlink:href="#DejaVuSans-46"/>
       <use x="159.033203" xlink:href="#DejaVuSans-48"/>
       <use x="222.65625" xlink:href="#DejaVuSans-77"/>
      </g>
     </g>
    </g>
    <g id="text_27">
     <!-- Steps -->
     <defs>
      <path d="M 53.515625 70.515625 
L 53.515625 60.890625 
Q 47.90625 63.578125 42.921875 64.890625 
Q 37.9375 66.21875 33.296875 66.21875 
Q 25.25 66.21875 20.875 63.09375 
Q 16.5 59.96875 16.5 54.203125 
Q 16.5 49.359375 19.40625 46.890625 
Q 22.3125 44.4375 30.421875 42.921875 
L 36.375 41.703125 
Q 47.40625 39.59375 52.65625 34.296875 
Q 57.90625 29 57.90625 20.125 
Q 57.90625 9.515625 50.796875 4.046875 
Q 43.703125 -1.421875 29.984375 -1.421875 
Q 24.8125 -1.421875 18.96875 -0.25 
Q 13.140625 0.921875 6.890625 3.21875 
L 6.890625 13.375 
Q 12.890625 10.015625 18.65625 8.296875 
Q 24.421875 6.59375 29.984375 6.59375 
Q 38.421875 6.59375 43.015625 9.90625 
Q 47.609375 13.234375 47.609375 19.390625 
Q 47.609375 24.75 44.3125 27.78125 
Q 41.015625 30.8125 33.5 32.328125 
L 27.484375 33.5 
Q 16.453125 35.6875 11.515625 40.375 
Q 6.59375 45.0625 6.59375 53.421875 
Q 6.59375 63.09375 13.40625 68.65625 
Q 20.21875 74.21875 32.171875 74.21875 
Q 37.3125 74.21875 42.625 73.28125 
Q 47.953125 72.359375 53.515625 70.515625 
z
" id="DejaVuSans-83"/>
      <path d="M 18.109375 8.203125 
L 18.109375 -20.796875 
L 9.078125 -20.796875 
L 9.078125 54.6875 
L 18.109375 54.6875 
L 18.109375 46.390625 
Q 20.953125 51.265625 25.265625 53.625 
Q 29.59375 56 35.59375 56 
Q 45.5625 56 51.78125 48.09375 
Q 58.015625 40.1875 58.015625 27.296875 
Q 58.015625 14.40625 51.78125 6.484375 
Q 45.5625 -1.421875 35.59375 -1.421875 
Q 29.59375 -1.421875 25.265625 0.953125 
Q 20.953125 3.328125 18.109375 8.203125 
z
M 48.6875 27.296875 
Q 48.6875 37.203125 44.609375 42.84375 
Q 40.53125 48.484375 33.40625 48.484375 
Q 26.265625 48.484375 22.1875 42.84375 
Q 18.109375 37.203125 18.109375 27.296875 
Q 18.109375 17.390625 22.1875 11.75 
Q 26.265625 6.109375 33.40625 6.109375 
Q 40.53125 6.109375 44.609375 11.75 
Q 48.6875 17.390625 48.6875 27.296875 
z
" id="DejaVuSans-112"/>
     </defs>
     <g transform="translate(222.170156 20.793875)scale(0.1 -0.1)">
      <use xlink:href="#DejaVuSans-83"/>
      <use x="63.476562" xlink:href="#DejaVuSans-116"/>
      <use x="102.685547" xlink:href="#DejaVuSans-101"/>
      <use x="164.208984" xlink:href="#DejaVuSans-112"/>
      <use x="227.685547" xlink:href="#DejaVuSans-115"/>
     </g>
    </g>
   </g>
   <g id="patch_7">
    <path d="M 57.6 307.584 
L 57.6 41.472 
" style="fill:none;stroke:#000000;stroke-linecap:square;stroke-linejoin:miter;stroke-width:0.8;"/>
   </g>
   <g id="patch_8">
    <path d="M 414.72 307.584 
L 414.72 41.472 
" style="fill:none;stroke:#000000;stroke-linecap:square;stroke-linejoin:miter;stroke-width:0.8;"/>
   </g>
   <g id="patch_9">
    <path d="M 57.6 307.584 
L 414.72 307.584 
" style="fill:none;stroke:#000000;stroke-linecap:square;stroke-linejoin:miter;stroke-width:0.8;"/>
   </g>
   <g id="patch_10">
    <path d="M 57.6 41.472 
L 414.72 41.472 
" style="fill:none;stroke:#000000;stroke-linecap:square;stroke-linejoin:miter;stroke-width:0.8;"/>
   </g>
  </g>
 </g>
 <defs>
  <clipPath id="p8e36bdda81">
   <rect height="266.112" width="357.12" x="57.6" y="41.472"/>
  </clipPath>
 </defs>
</svg>
