<?xml version="1.0" encoding="utf-8" standalone="no"?>
<!DOCTYPE svg PUBLIC "-//W3C//DTD SVG 1.1//EN"
  "http://www.w3.org/Graphics/SVG/1.1/DTD/svg11.dtd">
<!-- Created with matplotlib (https://matplotlib.org/) -->
<svg height="345.6pt" version="1.1" viewBox="0 0 460.8 345.6" width="460.8pt" xmlns="http://www.w3.org/2000/svg" xmlns:xlink="http://www.w3.org/1999/xlink">
 <defs>
  <style type="text/css">
*{stroke-linecap:butt;stroke-linejoin:round;}
  </style>
 </defs>
 <g id="figure_1">
  <g id="patch_1">
   <path d="M 0 345.6 
L 460.8 345.6 
L 460.8 0 
L 0 0 
z
" style="fill:#ffffff;"/>
  </g>
  <g id="axes_1">
   <g id="patch_2">
    <path d="M 57.6 307.584 
L 414.72 307.584 
L 414.72 41.472 
L 57.6 41.472 
z
" style="fill:#ffffff;"/>
   </g>
   <g id="matplotlib.axis_1">
    <g id="xtick_1">
     <g id="line2d_1">
      <path clip-path="url(#p0e2100c853)" d="M 57.6 307.584 
L 57.6 41.472 
" style="fill:none;stroke:#b0b0b0;stroke-linecap:square;stroke-width:0.8;"/>
     </g>
     <g id="line2d_2">
      <defs>
       <path d="M 0 0 
L 0 3.5 
" id="mf03ac8b93c" style="stroke:#000000;stroke-width:0.8;"/>
      </defs>
      <g>
       <use style="stroke:#000000;stroke-width:0.8;" x="57.6" xlink:href="#mf03ac8b93c" y="307.584"/>
      </g>
     </g>
     <g id="text_1">
      <!-- 0 -->
      <defs>
       <path d="M 31.78125 66.40625 
Q 24.171875 66.40625 20.328125 58.90625 
Q 16.5 51.421875 16.5 36.375 
Q 16.5 21.390625 20.328125 13.890625 
Q 24.171875 6.390625 31.78125 6.390625 
Q 39.453125 6.390625 43.28125 13.890625 
Q 47.125 21.390625 47.125 36.375 
Q 47.125 51.421875 43.28125 58.90625 
Q 39.453125 66.40625 31.78125 66.40625 
z
M 31.78125 74.21875 
Q 44.046875 74.21875 50.515625 64.515625 
Q 56.984375 54.828125 56.984375 36.375 
Q 56.984375 17.96875 50.515625 8.265625 
Q 44.046875 -1.421875 31.78125 -1.421875 
Q 19.53125 -1.421875 13.0625 8.265625 
Q 6.59375 17.96875 6.59375 36.375 
Q 6.59375 54.828125 13.0625 64.515625 
Q 19.53125 74.21875 31.78125 74.21875 
z
" id="DejaVuSans-48"/>
      </defs>
      <g transform="translate(54.41875 322.182437)scale(0.1 -0.1)">
       <use xlink:href="#DejaVuSans-48"/>
      </g>
     </g>
    </g>
    <g id="xtick_2">
     <g id="line2d_3">
      <path clip-path="url(#p0e2100c853)" d="M 135.213095 307.584 
L 135.213095 41.472 
" style="fill:none;stroke:#b0b0b0;stroke-linecap:square;stroke-width:0.8;"/>
     </g>
     <g id="line2d_4">
      <g>
       <use style="stroke:#000000;stroke-width:0.8;" x="135.213095" xlink:href="#mf03ac8b93c" y="307.584"/>
      </g>
     </g>
     <g id="text_2">
      <!-- 5 -->
      <defs>
       <path d="M 10.796875 72.90625 
L 49.515625 72.90625 
L 49.515625 64.59375 
L 19.828125 64.59375 
L 19.828125 46.734375 
Q 21.96875 47.46875 24.109375 47.828125 
Q 26.265625 48.1875 28.421875 48.1875 
Q 40.625 48.1875 47.75 41.5 
Q 54.890625 34.8125 54.890625 23.390625 
Q 54.890625 11.625 47.5625 5.09375 
Q 40.234375 -1.421875 26.90625 -1.421875 
Q 22.3125 -1.421875 17.546875 -0.640625 
Q 12.796875 0.140625 7.71875 1.703125 
L 7.71875 11.625 
Q 12.109375 9.234375 16.796875 8.0625 
Q 21.484375 6.890625 26.703125 6.890625 
Q 35.15625 6.890625 40.078125 11.328125 
Q 45.015625 15.765625 45.015625 23.390625 
Q 45.015625 31 40.078125 35.4375 
Q 35.15625 39.890625 26.703125 39.890625 
Q 22.75 39.890625 18.8125 39.015625 
Q 14.890625 38.140625 10.796875 36.28125 
z
" id="DejaVuSans-53"/>
      </defs>
      <g transform="translate(132.031845 322.182437)scale(0.1 -0.1)">
       <use xlink:href="#DejaVuSans-53"/>
      </g>
     </g>
    </g>
    <g id="xtick_3">
     <g id="line2d_5">
      <path clip-path="url(#p0e2100c853)" d="M 212.82619 307.584 
L 212.82619 41.472 
" style="fill:none;stroke:#b0b0b0;stroke-linecap:square;stroke-width:0.8;"/>
     </g>
     <g id="line2d_6">
      <g>
       <use style="stroke:#000000;stroke-width:0.8;" x="212.82619" xlink:href="#mf03ac8b93c" y="307.584"/>
      </g>
     </g>
     <g id="text_3">
      <!-- 10 -->
      <defs>
       <path d="M 12.40625 8.296875 
L 28.515625 8.296875 
L 28.515625 63.921875 
L 10.984375 60.40625 
L 10.984375 69.390625 
L 28.421875 72.90625 
L 38.28125 72.90625 
L 38.28125 8.296875 
L 54.390625 8.296875 
L 54.390625 0 
L 12.40625 0 
z
" id="DejaVuSans-49"/>
      </defs>
      <g transform="translate(206.46369 322.182437)scale(0.1 -0.1)">
       <use xlink:href="#DejaVuSans-49"/>
       <use x="63.623047" xlink:href="#DejaVuSans-48"/>
      </g>
     </g>
    </g>
    <g id="xtick_4">
     <g id="line2d_7">
      <path clip-path="url(#p0e2100c853)" d="M 290.439284 307.584 
L 290.439284 41.472 
" style="fill:none;stroke:#b0b0b0;stroke-linecap:square;stroke-width:0.8;"/>
     </g>
     <g id="line2d_8">
      <g>
       <use style="stroke:#000000;stroke-width:0.8;" x="290.439284" xlink:href="#mf03ac8b93c" y="307.584"/>
      </g>
     </g>
     <g id="text_4">
      <!-- 15 -->
      <g transform="translate(284.076784 322.182437)scale(0.1 -0.1)">
       <use xlink:href="#DejaVuSans-49"/>
       <use x="63.623047" xlink:href="#DejaVuSans-53"/>
      </g>
     </g>
    </g>
    <g id="xtick_5">
     <g id="line2d_9">
      <path clip-path="url(#p0e2100c853)" d="M 368.052379 307.584 
L 368.052379 41.472 
" style="fill:none;stroke:#b0b0b0;stroke-linecap:square;stroke-width:0.8;"/>
     </g>
     <g id="line2d_10">
      <g>
       <use style="stroke:#000000;stroke-width:0.8;" x="368.052379" xlink:href="#mf03ac8b93c" y="307.584"/>
      </g>
     </g>
     <g id="text_5">
      <!-- 20 -->
      <defs>
       <path d="M 19.1875 8.296875 
L 53.609375 8.296875 
L 53.609375 0 
L 7.328125 0 
L 7.328125 8.296875 
Q 12.9375 14.109375 22.625 23.890625 
Q 32.328125 33.6875 34.8125 36.53125 
Q 39.546875 41.84375 41.421875 45.53125 
Q 43.3125 49.21875 43.3125 52.78125 
Q 43.3125 58.59375 39.234375 62.25 
Q 35.15625 65.921875 28.609375 65.921875 
Q 23.96875 65.921875 18.8125 64.3125 
Q 13.671875 62.703125 7.8125 59.421875 
L 7.8125 69.390625 
Q 13.765625 71.78125 18.9375 73 
Q 24.125 74.21875 28.421875 74.21875 
Q 39.75 74.21875 46.484375 68.546875 
Q 53.21875 62.890625 53.21875 53.421875 
Q 53.21875 48.921875 51.53125 44.890625 
Q 49.859375 40.875 45.40625 35.40625 
Q 44.1875 33.984375 37.640625 27.21875 
Q 31.109375 20.453125 19.1875 8.296875 
z
" id="DejaVuSans-50"/>
      </defs>
      <g transform="translate(361.689879 322.182437)scale(0.1 -0.1)">
       <use xlink:href="#DejaVuSans-50"/>
       <use x="63.623047" xlink:href="#DejaVuSans-48"/>
      </g>
     </g>
    </g>
    <g id="text_6">
     <!-- Hours -->
     <defs>
      <path d="M 9.8125 72.90625 
L 19.671875 72.90625 
L 19.671875 43.015625 
L 55.515625 43.015625 
L 55.515625 72.90625 
L 65.375 72.90625 
L 65.375 0 
L 55.515625 0 
L 55.515625 34.71875 
L 19.671875 34.71875 
L 19.671875 0 
L 9.8125 0 
z
" id="DejaVuSans-72"/>
      <path d="M 30.609375 48.390625 
Q 23.390625 48.390625 19.1875 42.75 
Q 14.984375 37.109375 14.984375 27.296875 
Q 14.984375 17.484375 19.15625 11.84375 
Q 23.34375 6.203125 30.609375 6.203125 
Q 37.796875 6.203125 41.984375 11.859375 
Q 46.1875 17.53125 46.1875 27.296875 
Q 46.1875 37.015625 41.984375 42.703125 
Q 37.796875 48.390625 30.609375 48.390625 
z
M 30.609375 56 
Q 42.328125 56 49.015625 48.375 
Q 55.71875 40.765625 55.71875 27.296875 
Q 55.71875 13.875 49.015625 6.21875 
Q 42.328125 -1.421875 30.609375 -1.421875 
Q 18.84375 -1.421875 12.171875 6.21875 
Q 5.515625 13.875 5.515625 27.296875 
Q 5.515625 40.765625 12.171875 48.375 
Q 18.84375 56 30.609375 56 
z
" id="DejaVuSans-111"/>
      <path d="M 8.5 21.578125 
L 8.5 54.6875 
L 17.484375 54.6875 
L 17.484375 21.921875 
Q 17.484375 14.15625 20.5 10.265625 
Q 23.53125 6.390625 29.59375 6.390625 
Q 36.859375 6.390625 41.078125 11.03125 
Q 45.3125 15.671875 45.3125 23.6875 
L 45.3125 54.6875 
L 54.296875 54.6875 
L 54.296875 0 
L 45.3125 0 
L 45.3125 8.40625 
Q 42.046875 3.421875 37.71875 1 
Q 33.40625 -1.421875 27.6875 -1.421875 
Q 18.265625 -1.421875 13.375 4.4375 
Q 8.5 10.296875 8.5 21.578125 
z
M 31.109375 56 
z
" id="DejaVuSans-117"/>
      <path d="M 41.109375 46.296875 
Q 39.59375 47.171875 37.8125 47.578125 
Q 36.03125 48 33.890625 48 
Q 26.265625 48 22.1875 43.046875 
Q 18.109375 38.09375 18.109375 28.8125 
L 18.109375 0 
L 9.078125 0 
L 9.078125 54.6875 
L 18.109375 54.6875 
L 18.109375 46.1875 
Q 20.953125 51.171875 25.484375 53.578125 
Q 30.03125 56 36.53125 56 
Q 37.453125 56 38.578125 55.875 
Q 39.703125 55.765625 41.0625 55.515625 
z
" id="DejaVuSans-114"/>
      <path d="M 44.28125 53.078125 
L 44.28125 44.578125 
Q 40.484375 46.53125 36.375 47.5 
Q 32.28125 48.484375 27.875 48.484375 
Q 21.1875 48.484375 17.84375 46.4375 
Q 14.5 44.390625 14.5 40.28125 
Q 14.5 37.15625 16.890625 35.375 
Q 19.28125 33.59375 26.515625 31.984375 
L 29.59375 31.296875 
Q 39.15625 29.25 43.1875 25.515625 
Q 47.21875 21.78125 47.21875 15.09375 
Q 47.21875 7.46875 41.1875 3.015625 
Q 35.15625 -1.421875 24.609375 -1.421875 
Q 20.21875 -1.421875 15.453125 -0.5625 
Q 10.6875 0.296875 5.421875 2 
L 5.421875 11.28125 
Q 10.40625 8.6875 15.234375 7.390625 
Q 20.0625 6.109375 24.8125 6.109375 
Q 31.15625 6.109375 34.5625 8.28125 
Q 37.984375 10.453125 37.984375 14.40625 
Q 37.984375 18.0625 35.515625 20.015625 
Q 33.0625 21.96875 24.703125 23.78125 
L 21.578125 24.515625 
Q 13.234375 26.265625 9.515625 29.90625 
Q 5.8125 33.546875 5.8125 39.890625 
Q 5.8125 47.609375 11.28125 51.796875 
Q 16.75 56 26.8125 56 
Q 31.78125 56 36.171875 55.265625 
Q 40.578125 54.546875 44.28125 53.078125 
z
" id="DejaVuSans-115"/>
     </defs>
     <g transform="translate(221.511562 335.860562)scale(0.1 -0.1)">
      <use xlink:href="#DejaVuSans-72"/>
      <use x="75.195312" xlink:href="#DejaVuSans-111"/>
      <use x="136.376953" xlink:href="#DejaVuSans-117"/>
      <use x="199.755859" xlink:href="#DejaVuSans-114"/>
      <use x="240.869141" xlink:href="#DejaVuSans-115"/>
     </g>
    </g>
   </g>
   <g id="matplotlib.axis_2">
    <g id="ytick_1">
     <g id="line2d_11">
      <path clip-path="url(#p0e2100c853)" d="M 57.6 295.111125 
L 414.72 295.111125 
" style="fill:none;stroke:#b0b0b0;stroke-linecap:square;stroke-width:0.8;"/>
     </g>
     <g id="line2d_12">
      <defs>
       <path d="M 0 0 
L -3.5 0 
" id="m8a5f48abc2" style="stroke:#000000;stroke-width:0.8;"/>
      </defs>
      <g>
       <use style="stroke:#000000;stroke-width:0.8;" x="57.6" xlink:href="#m8a5f48abc2" y="295.111125"/>
      </g>
     </g>
     <g id="text_7">
      <!-- 0 -->
      <g transform="translate(44.2375 298.910344)scale(0.1 -0.1)">
       <use xlink:href="#DejaVuSans-48"/>
      </g>
     </g>
    </g>
    <g id="ytick_2">
     <g id="line2d_13">
      <path clip-path="url(#p0e2100c853)" d="M 57.6 248.831664 
L 414.72 248.831664 
" style="fill:none;stroke:#b0b0b0;stroke-linecap:square;stroke-width:0.8;"/>
     </g>
     <g id="line2d_14">
      <g>
       <use style="stroke:#000000;stroke-width:0.8;" x="57.6" xlink:href="#m8a5f48abc2" y="248.831664"/>
      </g>
     </g>
     <g id="text_8">
      <!-- 500 -->
      <g transform="translate(31.5125 252.630883)scale(0.1 -0.1)">
       <use xlink:href="#DejaVuSans-53"/>
       <use x="63.623047" xlink:href="#DejaVuSans-48"/>
       <use x="127.246094" xlink:href="#DejaVuSans-48"/>
      </g>
     </g>
    </g>
    <g id="ytick_3">
     <g id="line2d_15">
      <path clip-path="url(#p0e2100c853)" d="M 57.6 202.552204 
L 414.72 202.552204 
" style="fill:none;stroke:#b0b0b0;stroke-linecap:square;stroke-width:0.8;"/>
     </g>
     <g id="line2d_16">
      <g>
       <use style="stroke:#000000;stroke-width:0.8;" x="57.6" xlink:href="#m8a5f48abc2" y="202.552204"/>
      </g>
     </g>
     <g id="text_9">
      <!-- 1000 -->
      <g transform="translate(25.15 206.351423)scale(0.1 -0.1)">
       <use xlink:href="#DejaVuSans-49"/>
       <use x="63.623047" xlink:href="#DejaVuSans-48"/>
       <use x="127.246094" xlink:href="#DejaVuSans-48"/>
       <use x="190.869141" xlink:href="#DejaVuSans-48"/>
      </g>
     </g>
    </g>
    <g id="ytick_4">
     <g id="line2d_17">
      <path clip-path="url(#p0e2100c853)" d="M 57.6 156.272744 
L 414.72 156.272744 
" style="fill:none;stroke:#b0b0b0;stroke-linecap:square;stroke-width:0.8;"/>
     </g>
     <g id="line2d_18">
      <g>
       <use style="stroke:#000000;stroke-width:0.8;" x="57.6" xlink:href="#m8a5f48abc2" y="156.272744"/>
      </g>
     </g>
     <g id="text_10">
      <!-- 1500 -->
      <g transform="translate(25.15 160.071962)scale(0.1 -0.1)">
       <use xlink:href="#DejaVuSans-49"/>
       <use x="63.623047" xlink:href="#DejaVuSans-53"/>
       <use x="127.246094" xlink:href="#DejaVuSans-48"/>
       <use x="190.869141" xlink:href="#DejaVuSans-48"/>
      </g>
     </g>
    </g>
    <g id="ytick_5">
     <g id="line2d_19">
      <path clip-path="url(#p0e2100c853)" d="M 57.6 109.993283 
L 414.72 109.993283 
" style="fill:none;stroke:#b0b0b0;stroke-linecap:square;stroke-width:0.8;"/>
     </g>
     <g id="line2d_20">
      <g>
       <use style="stroke:#000000;stroke-width:0.8;" x="57.6" xlink:href="#m8a5f48abc2" y="109.993283"/>
      </g>
     </g>
     <g id="text_11">
      <!-- 2000 -->
      <g transform="translate(25.15 113.792502)scale(0.1 -0.1)">
       <use xlink:href="#DejaVuSans-50"/>
       <use x="63.623047" xlink:href="#DejaVuSans-48"/>
       <use x="127.246094" xlink:href="#DejaVuSans-48"/>
       <use x="190.869141" xlink:href="#DejaVuSans-48"/>
      </g>
     </g>
    </g>
    <g id="ytick_6">
     <g id="line2d_21">
      <path clip-path="url(#p0e2100c853)" d="M 57.6 63.713823 
L 414.72 63.713823 
" style="fill:none;stroke:#b0b0b0;stroke-linecap:square;stroke-width:0.8;"/>
     </g>
     <g id="line2d_22">
      <g>
       <use style="stroke:#000000;stroke-width:0.8;" x="57.6" xlink:href="#m8a5f48abc2" y="63.713823"/>
      </g>
     </g>
     <g id="text_12">
      <!-- 2500 -->
      <g transform="translate(25.15 67.513041)scale(0.1 -0.1)">
       <use xlink:href="#DejaVuSans-50"/>
       <use x="63.623047" xlink:href="#DejaVuSans-53"/>
       <use x="127.246094" xlink:href="#DejaVuSans-48"/>
       <use x="190.869141" xlink:href="#DejaVuSans-48"/>
      </g>
     </g>
    </g>
    <g id="text_13">
     <!-- Mean train reward -->
     <defs>
      <path d="M 9.8125 72.90625 
L 24.515625 72.90625 
L 43.109375 23.296875 
L 61.8125 72.90625 
L 76.515625 72.90625 
L 76.515625 0 
L 66.890625 0 
L 66.890625 64.015625 
L 48.09375 14.015625 
L 38.1875 14.015625 
L 19.390625 64.015625 
L 19.390625 0 
L 9.8125 0 
z
" id="DejaVuSans-77"/>
      <path d="M 56.203125 29.59375 
L 56.203125 25.203125 
L 14.890625 25.203125 
Q 15.484375 15.921875 20.484375 11.0625 
Q 25.484375 6.203125 34.421875 6.203125 
Q 39.59375 6.203125 44.453125 7.46875 
Q 49.3125 8.734375 54.109375 11.28125 
L 54.109375 2.78125 
Q 49.265625 0.734375 44.1875 -0.34375 
Q 39.109375 -1.421875 33.890625 -1.421875 
Q 20.796875 -1.421875 13.15625 6.1875 
Q 5.515625 13.8125 5.515625 26.8125 
Q 5.515625 40.234375 12.765625 48.109375 
Q 20.015625 56 32.328125 56 
Q 43.359375 56 49.78125 48.890625 
Q 56.203125 41.796875 56.203125 29.59375 
z
M 47.21875 32.234375 
Q 47.125 39.59375 43.09375 43.984375 
Q 39.0625 48.390625 32.421875 48.390625 
Q 24.90625 48.390625 20.390625 44.140625 
Q 15.875 39.890625 15.1875 32.171875 
z
" id="DejaVuSans-101"/>
      <path d="M 34.28125 27.484375 
Q 23.390625 27.484375 19.1875 25 
Q 14.984375 22.515625 14.984375 16.5 
Q 14.984375 11.71875 18.140625 8.90625 
Q 21.296875 6.109375 26.703125 6.109375 
Q 34.1875 6.109375 38.703125 11.40625 
Q 43.21875 16.703125 43.21875 25.484375 
L 43.21875 27.484375 
z
M 52.203125 31.203125 
L 52.203125 0 
L 43.21875 0 
L 43.21875 8.296875 
Q 40.140625 3.328125 35.546875 0.953125 
Q 30.953125 -1.421875 24.3125 -1.421875 
Q 15.921875 -1.421875 10.953125 3.296875 
Q 6 8.015625 6 15.921875 
Q 6 25.140625 12.171875 29.828125 
Q 18.359375 34.515625 30.609375 34.515625 
L 43.21875 34.515625 
L 43.21875 35.40625 
Q 43.21875 41.609375 39.140625 45 
Q 35.0625 48.390625 27.6875 48.390625 
Q 23 48.390625 18.546875 47.265625 
Q 14.109375 46.140625 10.015625 43.890625 
L 10.015625 52.203125 
Q 14.9375 54.109375 19.578125 55.046875 
Q 24.21875 56 28.609375 56 
Q 40.484375 56 46.34375 49.84375 
Q 52.203125 43.703125 52.203125 31.203125 
z
" id="DejaVuSans-97"/>
      <path d="M 54.890625 33.015625 
L 54.890625 0 
L 45.90625 0 
L 45.90625 32.71875 
Q 45.90625 40.484375 42.875 44.328125 
Q 39.84375 48.1875 33.796875 48.1875 
Q 26.515625 48.1875 22.3125 43.546875 
Q 18.109375 38.921875 18.109375 30.90625 
L 18.109375 0 
L 9.078125 0 
L 9.078125 54.6875 
L 18.109375 54.6875 
L 18.109375 46.1875 
Q 21.34375 51.125 25.703125 53.5625 
Q 30.078125 56 35.796875 56 
Q 45.21875 56 50.046875 50.171875 
Q 54.890625 44.34375 54.890625 33.015625 
z
" id="DejaVuSans-110"/>
      <path id="DejaVuSans-32"/>
      <path d="M 18.3125 70.21875 
L 18.3125 54.6875 
L 36.8125 54.6875 
L 36.8125 47.703125 
L 18.3125 47.703125 
L 18.3125 18.015625 
Q 18.3125 11.328125 20.140625 9.421875 
Q 21.96875 7.515625 27.59375 7.515625 
L 36.8125 7.515625 
L 36.8125 0 
L 27.59375 0 
Q 17.1875 0 13.234375 3.875 
Q 9.28125 7.765625 9.28125 18.015625 
L 9.28125 47.703125 
L 2.6875 47.703125 
L 2.6875 54.6875 
L 9.28125 54.6875 
L 9.28125 70.21875 
z
" id="DejaVuSans-116"/>
      <path d="M 9.421875 54.6875 
L 18.40625 54.6875 
L 18.40625 0 
L 9.421875 0 
z
M 9.421875 75.984375 
L 18.40625 75.984375 
L 18.40625 64.59375 
L 9.421875 64.59375 
z
" id="DejaVuSans-105"/>
      <path d="M 4.203125 54.6875 
L 13.1875 54.6875 
L 24.421875 12.015625 
L 35.59375 54.6875 
L 46.1875 54.6875 
L 57.421875 12.015625 
L 68.609375 54.6875 
L 77.59375 54.6875 
L 63.28125 0 
L 52.6875 0 
L 40.921875 44.828125 
L 29.109375 0 
L 18.5 0 
z
" id="DejaVuSans-119"/>
      <path d="M 45.40625 46.390625 
L 45.40625 75.984375 
L 54.390625 75.984375 
L 54.390625 0 
L 45.40625 0 
L 45.40625 8.203125 
Q 42.578125 3.328125 38.25 0.953125 
Q 33.9375 -1.421875 27.875 -1.421875 
Q 17.96875 -1.421875 11.734375 6.484375 
Q 5.515625 14.40625 5.515625 27.296875 
Q 5.515625 40.1875 11.734375 48.09375 
Q 17.96875 56 27.875 56 
Q 33.9375 56 38.25 53.625 
Q 42.578125 51.265625 45.40625 46.390625 
z
M 14.796875 27.296875 
Q 14.796875 17.390625 18.875 11.75 
Q 22.953125 6.109375 30.078125 6.109375 
Q 37.203125 6.109375 41.296875 11.75 
Q 45.40625 17.390625 45.40625 27.296875 
Q 45.40625 37.203125 41.296875 42.84375 
Q 37.203125 48.484375 30.078125 48.484375 
Q 22.953125 48.484375 18.875 42.84375 
Q 14.796875 37.203125 14.796875 27.296875 
z
" id="DejaVuSans-100"/>
     </defs>
     <g transform="translate(19.070312 220.479562)rotate(-90)scale(0.1 -0.1)">
      <use xlink:href="#DejaVuSans-77"/>
      <use x="86.279297" xlink:href="#DejaVuSans-101"/>
      <use x="147.802734" xlink:href="#DejaVuSans-97"/>
      <use x="209.082031" xlink:href="#DejaVuSans-110"/>
      <use x="272.460938" xlink:href="#DejaVuSans-32"/>
      <use x="304.248047" xlink:href="#DejaVuSans-116"/>
      <use x="343.457031" xlink:href="#DejaVuSans-114"/>
      <use x="384.570312" xlink:href="#DejaVuSans-97"/>
      <use x="445.849609" xlink:href="#DejaVuSans-105"/>
      <use x="473.632812" xlink:href="#DejaVuSans-110"/>
      <use x="537.011719" xlink:href="#DejaVuSans-32"/>
      <use x="568.798828" xlink:href="#DejaVuSans-114"/>
      <use x="609.880859" xlink:href="#DejaVuSans-101"/>
      <use x="671.404297" xlink:href="#DejaVuSans-119"/>
      <use x="753.191406" xlink:href="#DejaVuSans-97"/>
      <use x="814.470703" xlink:href="#DejaVuSans-114"/>
      <use x="855.568359" xlink:href="#DejaVuSans-100"/>
     </g>
    </g>
   </g>
   <g id="line2d_23">
    <path clip-path="url(#p0e2100c853)" d="M 57.6 295.488 
L 57.749614 294.430132 
L 57.782219 294.56096 
L 57.805151 294.57757 
L 57.808266 294.606245 
L 57.883475 294.758147 
L 57.933368 294.74472 
L 58.011175 294.724257 
L 57.99157 294.906451 
L 58.0388 294.73116 
L 58.056881 294.889038 
L 58.146252 294.718118 
L 58.150338 294.730238 
L 58.158641 294.75473 
L 58.180676 294.620765 
L 58.221111 294.627999 
L 58.237042 294.72475 
L 58.338193 294.352559 
L 58.39388 294.561219 
L 58.400036 294.42995 
L 58.454943 294.175559 
L 58.522814 294.216353 
L 58.637307 293.745851 
L 58.678391 293.811018 
L 58.694607 293.847159 
L 58.697071 293.805384 
L 58.892667 292.711099 
L 58.913754 293.01093 
L 58.929638 292.462264 
L 59.116146 287.618918 
L 59.156833 288.116513 
L 59.253672 288.805615 
L 59.219148 288.064713 
L 59.315829 288.448716 
L 59.675518 285.620504 
L 59.9678 275.698535 
L 60.237288 275.931819 
L 60.921075 267.687076 
L 60.929448 267.795493 
L 61.267963 270.438167 
L 61.347985 266.918064 
L 61.62176 268.399981 
L 62.411216 266.602336 
L 62.788635 263.28105 
L 62.889386 268.218194 
L 63.276916 253.863203 
L 63.306595 255.472544 
L 64.007851 257.848903 
L 64.347219 255.610382 
L 64.550173 247.156514 
L 65.060153 246.159269 
L 65.262853 248.49633 
L 65.711413 251.529132 
L 66.11254 239.11317 
L 66.311418 239.749738 
L 66.435948 238.19327 
L 66.569343 244.93993 
L 66.7166 239.025226 
L 67.174432 240.581 
L 67.257667 244.388859 
L 67.570191 233.490803 
L 67.643362 234.266893 
L 67.80599 237.453126 
L 67.860093 237.240089 
L 68.402321 217.525129 
L 68.688688 222.178384 
L 69.133122 217.035703 
L 69.627304 215.227223 
L 69.632605 215.904003 
L 69.743343 210.071695 
L 70.539816 212.711455 
L 70.622013 209.875522 
L 71.77267 202.663022 
L 71.836842 203.470635 
L 72.262617 213.726773 
L 72.531425 204.180985 
L 72.830457 201.655856 
L 73.880091 210.036568 
L 74.282262 204.654745 
L 74.458533 203.806964 
L 74.603301 200.603156 
L 75.24661 199.105028 
L 75.354624 197.51242 
L 75.912627 194.813162 
L 76.139402 194.467354 
L 76.307024 196.001864 
L 77.120387 199.645095 
L 77.170954 198.596011 
L 77.293754 200.141864 
L 77.43196 197.187357 
L 78.67295 192.363243 
L 78.90695 189.062894 
L 79.111333 189.906963 
L 80.491711 191.204776 
L 82.470533 190.113322 
L 83.135127 181.385226 
L 83.303982 194.289287 
L 83.692012 193.647193 
L 84.696826 188.95533 
L 85.131363 178.799011 
L 85.206752 180.121275 
L 85.474954 187.062866 
L 86.221889 195.139717 
L 86.403833 195.353771 
L 86.698787 185.204163 
L 87.038979 187.007333 
L 87.609662 183.861754 
L 87.87893 185.729304 
L 88.371625 179.94288 
L 88.709544 198.616495 
L 88.83943 191.432682 
L 89.557694 193.146887 
L 89.872298 179.557165 
L 90.801039 169.528137 
L 91.041205 174.024849 
L 91.327915 174.639498 
L 91.41401 175.700038 
L 91.768967 178.094006 
L 91.789304 176.172561 
L 92.062143 183.5627 
L 92.569976 181.029283 
L 93.823184 172.593326 
L 93.925909 173.562856 
L 94.565844 168.762142 
L 95.525969 182.456286 
L 95.724912 182.742414 
L 95.846319 183.510534 
L 95.948389 181.656587 
L 96.411469 169.972108 
L 97.636483 169.228134 
L 97.926999 167.369882 
L 98.244279 173.403838 
L 99.078781 160.655203 
L 99.206377 162.559383 
L 99.256513 161.576442 
L 99.445835 162.075008 
L 99.665129 164.804785 
L 99.760108 164.472196 
L 100.169584 165.08628 
L 100.503025 160.673631 
L 101.156565 160.824717 
L 101.872414 164.01008 
L 101.97695 161.104495 
L 103.254946 162.372187 
L 104.020144 172.025793 
L 104.207126 171.575732 
L 104.35028 167.229338 
L 105.429986 161.807704 
L 106.606309 160.841021 
L 106.966936 165.115284 
L 107.466575 166.150505 
L 107.501698 165.148593 
L 108.420179 164.553151 
L 108.6374 162.135931 
L 108.984735 171.149602 
L 109.217042 169.097555 
L 109.709605 162.398366 
L 110.191673 162.825524 
L 110.359297 161.53867 
L 110.751587 162.195486 
L 111.12161 157.729665 
L 112.72981 164.482196 
L 113.44249 160.464786 
L 113.61618 158.029261 
L 114.056634 159.329719 
L 114.817098 159.215308 
L 114.992122 157.224354 
L 115.29547 158.455708 
L 115.37374 156.555527 
L 116.170703 158.175512 
L 116.724189 157.354526 
L 117.067111 157.300529 
L 118.979868 152.423662 
L 119.113122 153.197306 
L 120.847556 170.821295 
L 120.932775 169.052993 
L 120.93772 169.094549 
L 121.546061 157.637208 
L 122.83662 151.704251 
L 123.482471 159.866723 
L 123.560712 160.177799 
L 124.585965 152.832257 
L 125.304423 155.942573 
L 125.392653 154.743013 
L 126.940654 151.610449 
L 127.276782 152.721089 
L 127.970903 150.376971 
L 128.495069 147.683429 
L 128.700111 147.709371 
L 128.911315 146.753863 
L 130.834051 151.868918 
L 130.99262 148.872719 
L 131.199899 149.989019 
L 131.336408 148.495693 
L 132.11858 144.648803 
L 132.426105 147.018422 
L 133.488465 151.406135 
L 133.575127 149.915995 
L 134.22522 154.555771 
L 135.010997 143.491331 
L 135.500215 143.019011 
L 136.435006 146.524149 
L 136.465306 145.666352 
L 136.661129 144.969313 
L 136.963318 150.550654 
L 137.397703 154.230628 
L 137.99287 146.291927 
L 138.211141 151.463329 
L 138.934739 158.746446 
L 138.989604 161.588204 
L 139.772341 145.044359 
L 140.289752 146.185753 
L 140.352969 144.857908 
L 140.44845 145.484895 
L 144.079126 145.455609 
L 144.270384 143.024898 
L 145.633531 145.998251 
L 146.334979 143.979717 
L 146.716614 146.577502 
L 147.059685 146.6055 
L 147.104596 146.457363 
L 147.511449 142.198421 
L 148.321126 147.729935 
L 148.4949 145.933781 
L 149.785512 144.895024 
L 150.371122 142.483848 
L 150.937966 143.267221 
L 151.125362 145.87087 
L 151.365485 145.463134 
L 151.893621 143.961006 
L 151.92261 144.877635 
L 152.455645 142.553324 
L 152.976787 141.106673 
L 153.453244 143.925709 
L 153.873239 143.452813 
L 153.977439 142.527642 
L 154.873664 151.328728 
L 155.349747 134.667003 
L 155.421954 134.755133 
L 155.515867 136.590957 
L 155.86577 132.362024 
L 156.044478 131.401533 
L 156.455438 144.195635 
L 156.531424 142.758384 
L 156.961841 131.467021 
L 157.848336 134.122892 
L 157.929776 133.765334 
L 158.161808 135.687276 
L 158.519787 134.651615 
L 158.523937 134.67037 
L 158.779205 140.306047 
L 159.519928 134.387575 
L 160.866418 140.879433 
L 161.136975 138.949221 
L 161.729693 143.476382 
L 161.841514 140.358179 
L 161.933341 135.043747 
L 162.710245 129.449729 
L 163.548819 133.375156 
L 163.821128 135.96824 
L 163.837374 137.33736 
L 164.231001 147.481092 
L 164.296106 143.910614 
L 164.576511 136.226687 
L 165.461177 137.220588 
L 165.513315 136.387512 
L 165.77933 126.579272 
L 166.693851 124.075594 
L 166.922641 124.285863 
L 167.068886 125.820102 
L 167.142511 124.999579 
L 167.507572 131.003638 
L 167.687632 137.087738 
L 167.803204 137.052463 
L 168.040324 135.158327 
L 168.639788 126.63737 
L 169.116494 127.612764 
L 169.280683 126.812285 
L 170.445518 137.074236 
L 171.535198 126.539004 
L 171.999252 126.929532 
L 173.272963 127.103204 
L 173.509878 130.156293 
L 173.551317 138.054579 
L 174.339137 124.376219 
L 174.378806 125.580275 
L 174.823495 135.95127 
L 175.041142 130.601235 
L 175.043738 131.221771 
L 175.365892 130.043656 
L 175.855622 122.871492 
L 176.456312 124.280937 
L 176.543149 127.448549 
L 177.064352 131.619914 
L 177.449914 129.247109 
L 177.705999 125.773122 
L 177.746344 125.854766 
L 178.782297 141.551762 
L 179.547244 126.631472 
L 179.950003 123.493124 
L 180.478758 138.538197 
L 181.564673 125.188538 
L 182.281807 125.37221 
L 182.329522 124.899393 
L 182.954523 120.845941 
L 183.193953 131.702903 
L 183.251848 131.507447 
L 183.529707 121.534947 
L 184.4771 129.403009 
L 184.832246 124.319149 
L 185.298198 121.746989 
L 185.435815 121.640623 
L 185.705192 121.642883 
L 185.987435 126.604819 
L 186.3205 130.059655 
L 186.483029 134.652428 
L 186.54336 131.107824 
L 187.811371 122.609215 
L 188.387153 126.812624 
L 188.868431 120.429075 
L 189.315077 122.561942 
L 189.676639 136.078369 
L 191.01323 125.345398 
L 191.371062 137.61063 
L 192.089407 116.160349 
L 192.147648 119.651691 
L 192.331053 118.668863 
L 193.362457 118.670162 
L 194.160902 121.942208 
L 194.352623 123.901617 
L 194.483519 119.059606 
L 194.679263 122.898349 
L 194.832188 119.576939 
L 195.092786 120.418443 
L 195.465692 124.812563 
L 196.140416 125.180607 
L 196.198827 129.150652 
L 196.681515 117.430786 
L 197.009791 129.087063 
L 197.037508 128.915571 
L 197.200047 117.188078 
L 197.433764 115.27313 
L 198.554018 114.684683 
L 198.818319 115.611933 
L 199.171063 114.467081 
L 199.475299 114.513632 
L 199.522649 117.633303 
L 200.101123 117.500273 
L 200.610609 133.546207 
L 201.439748 111.905904 
L 201.674699 111.212175 
L 202.216721 108.068979 
L 202.339038 116.631414 
L 202.790123 122.540384 
L 203.498793 120.874425 
L 204.27188 123.223548 
L 204.461861 126.917397 
L 204.931239 107.066661 
L 205.431545 101.143624 
L 205.495096 101.533362 
L 205.803606 102.691636 
L 206.171039 103.424176 
L 207.005999 102.10024 
L 209.060962 106.849059 
L 209.677943 103.016112 
L 209.798832 106.710006 
L 210.264384 106.169194 
L 210.823931 112.500588 
L 211.038619 106.991999 
L 211.297584 107.086016 
L 211.360737 107.604852 
L 211.435744 107.453619 
L 211.918565 95.148287 
L 212.777968 113.763387 
L 212.955937 122.960537 
L 213.494207 106.416285 
L 214.050243 103.595148 
L 214.308806 100.147305 
L 215.817115 106.786329 
L 216.406009 128.634426 
L 217.296251 110.556388 
L 218.044124 102.201137 
L 219.627548 96.034693 
L 219.87364 103.091135 
L 220.731591 92.918377 
L 221.11917 93.998374 
L 221.472586 94.1077 
L 221.545666 94.52652 
L 223.449862 95.633318 
L 223.698235 98.074243 
L 224.193089 92.364198 
L 224.414685 99.305304 
L 224.800065 102.604681 
L 225.380523 99.238212 
L 225.838335 95.403819 
L 226.636305 91.317012 
L 226.64679 91.341485 
L 227.660962 86.687914 
L 228.520073 100.167666 
L 228.692755 97.822463 
L 229.301732 93.74099 
L 229.787447 96.761877 
L 230.062989 107.594728 
L 230.354583 108.212123 
L 232.398554 101.979344 
L 232.709408 94.421781 
L 233.470694 95.06314 
L 234.087072 82.249221 
L 234.968156 94.075431 
L 235.246508 90.338274 
L 235.57845 89.217941 
L 235.747279 86.300549 
L 236.384499 93.059904 
L 236.523862 92.838246 
L 237.313726 85.589907 
L 237.943217 88.061496 
L 238.493036 92.939573 
L 238.704389 91.574939 
L 239.018252 91.978529 
L 239.062948 90.302277 
L 239.543377 97.13722 
L 239.709503 95.326581 
L 241.049271 89.473585 
L 241.091118 86.446167 
L 241.494978 83.731859 
L 242.713163 89.124365 
L 243.408734 90.468028 
L 243.663606 93.26997 
L 244.684954 86.50657 
L 244.760339 88.544742 
L 245.371918 88.188381 
L 245.997534 94.845347 
L 246.494273 96.221438 
L 247.37987 84.713715 
L 247.494413 85.500986 
L 247.702778 82.953062 
L 247.843818 82.715654 
L 248.318391 85.26073 
L 249.046247 84.343208 
L 249.270264 85.623984 
L 250.376013 79.989798 
L 250.921051 88.040888 
L 250.932595 90.191165 
L 251.059011 87.165713 
L 251.237716 86.911357 
L 252.147641 86.116855 
L 252.217158 83.688426 
L 253.041817 84.092061 
L 253.29827 79.937734 
L 253.473191 85.716271 
L 254.320919 84.94274 
L 254.946679 81.106968 
L 256.443359 86.721155 
L 256.726657 92.208819 
L 257.216495 86.651668 
L 257.244784 82.294574 
L 257.6295 77.693948 
L 258.582281 82.189474 
L 258.742234 80.539886 
L 258.962209 86.487317 
L 259.689563 81.87494 
L 261.064693 91.14525 
L 261.254925 91.024376 
L 261.283382 87.013949 
L 262.227814 77.987308 
L 262.400689 78.389586 
L 263.695126 88.662971 
L 266.445416 85.308795 
L 266.704592 82.948904 
L 267.188398 85.765827 
L 267.771869 82.20258 
L 268.085432 88.518913 
L 268.633385 82.11958 
L 268.744318 83.105143 
L 268.948164 81.0801 
L 269.374721 85.612391 
L 270.069398 84.09005 
L 270.227836 78.706357 
L 271.368527 82.250825 
L 271.592069 82.246238 
L 272.212048 73.896818 
L 273.171665 89.88845 
L 273.257498 87.755234 
L 273.385661 88.313028 
L 273.711756 99.826354 
L 273.779613 98.131121 
L 275.092443 92.079358 
L 275.458298 83.250873 
L 276.0845 75.891445 
L 276.57746 74.581474 
L 277.105853 85.612075 
L 277.667203 72.064034 
L 278.166421 75.685469 
L 279.54036 97.575044 
L 280.779039 85.260007 
L 281.554998 68.956305 
L 282.065272 74.916209 
L 282.128357 73.952588 
L 282.318205 76.036158 
L 282.439945 71.772301 
L 282.935609 74.402389 
L 283.681117 82.443965 
L 286.177426 68.912986 
L 288.134059 78.679375 
L 288.334921 71.009188 
L 288.375085 71.102334 
L 290.017715 73.062929 
L 290.771212 67.278652 
L 291.795016 81.026205 
L 292.549858 70.659854 
L 292.894047 71.437973 
L 293.349715 74.440737 
L 293.902789 67.296843 
L 294.22233 68.334402 
L 294.799833 79.969664 
L 295.209686 66.958221 
L 295.90813 71.085951 
L 296.411467 77.603175 
L 296.485521 82.367767 
L 296.64106 83.203215 
L 297.15181 73.304405 
L 298.673535 72.444642 
L 298.736271 73.258216 
L 299.547637 73.698051 
L 300.588828 94.245567 
L 301.152265 81.257173 
L 301.461013 71.900451 
L 302.455461 79.361229 
L 302.682601 78.627153 
L 303.012236 78.075889 
L 303.116144 81.200657 
L 303.540768 82.216138 
L 303.680039 80.675855 
L 303.87433 91.080689 
L 304.272052 88.240084 
L 304.479983 83.213361 
L 304.85111 81.839214 
L 305.315575 71.613623 
L 305.877906 74.429258 
L 306.074477 69.38674 
L 306.586545 65.630443 
L 306.630449 63.700309 
L 307.923596 64.156822 
L 309.135883 65.549974 
L 309.71161 69.835524 
L 310.431282 67.636956 
L 311.298719 69.84671 
L 311.439763 68.901777 
L 311.697805 68.000955 
L 313.857312 75.034077 
L 313.993051 77.836877 
L 314.182669 76.599647 
L 315.174716 77.794439 
L 317.15004 62.882758 
L 318.095732 64.448622 
L 318.099906 64.411269 
L 318.217331 63.254847 
L 318.49541 64.958532 
L 318.720613 71.739965 
L 318.966455 68.600238 
L 319.389272 73.361282 
L 319.814594 79.737679 
L 320.365345 60.930231 
L 321.639974 69.595359 
L 321.914581 72.144503 
L 322.874349 73.726524 
L 322.879865 73.717801 
L 322.923769 79.78267 
L 323.686743 62.637757 
L 323.943534 60.185759 
L 324.371294 67.905775 
L 324.480717 66.659619 
L 325.231475 64.981423 
L 325.701613 80.72514 
L 326.120924 71.060393 
L 326.700314 82.865181 
L 329.518304 75.887422 
L 330.179853 61.379761 
L 330.549264 65.757463 
L 331.911989 65.651142 
L 332.29957 69.46861 
L 334.032301 53.568 
L 334.620496 69.663603 
L 335.291443 59.283988 
L 335.415687 62.615996 
L 336.018854 58.078055 
L 336.405729 53.708646 
L 336.810113 64.300315 
L 337.088171 66.665313 
L 337.191581 62.131259 
L 337.381546 60.388458 
L 337.489552 58.180715 
L 337.816956 62.312739 
L 337.828074 64.619165 
L 338.568368 66.232076 
L 338.969312 82.912907 
L 339.074448 77.111071 
L 339.084853 79.468476 
L 339.616614 61.469495 
L 339.630814 61.485336 
L 339.811396 61.176339 
L 340.395269 70.139301 
L 341.255854 70.347039 
L 341.996034 72.934598 
L 342.373833 76.42524 
L 342.71207 75.131833 
L 344.281174 72.492254 
L 346.378801 84.865977 
L 346.535481 84.355569 
L 346.608279 81.058384 
L 346.82722 78.837286 
L 347.199487 96.220014 
L 347.646349 73.496324 
L 348.429065 98.792524 
L 348.462985 96.20354 
L 349.508081 71.2482 
L 351.901212 68.017067 
L 352.536227 79.164564 
L 353.202598 77.289387 
L 353.348645 71.922484 
L 354.870064 57.376203 
L 354.942807 59.343555 
L 355.383875 61.367106 
L 355.670341 77.711642 
L 355.991276 83.481073 
L 357.161875 71.255861 
L 357.172146 71.402156 
L 357.395295 72.311701 
L 357.891992 61.423577 
L 358.084085 64.497093 
L 358.697591 61.579092 
L 359.820667 57.792447 
L 360.096092 63.946372 
L 360.831579 63.571391 
L 361.226574 71.729502 
L 361.660009 70.790806 
L 362.340441 63.134968 
L 363.096932 68.604757 
L 363.746585 57.149551 
L 364.422915 62.417501 
L 364.779141 63.599073 
L 365.122424 59.760544 
L 365.480438 61.515119 
L 366.068767 57.920642 
L 366.840509 74.044786 
L 367.077899 64.844641 
L 367.331631 68.194208 
L 368.323613 69.189736 
L 368.525058 67.85658 
L 368.886324 73.976519 
L 369.213492 67.202227 
L 371.714491 73.109186 
L 372.052881 79.215702 
L 372.64114 59.445537 
L 372.728986 62.028148 
L 372.89121 63.227007 
L 373.428343 77.174502 
L 374.386066 66.000701 
L 374.767682 64.992112 
L 374.945056 63.917967 
L 375.888389 66.657065 
L 375.9982 72.18563 
L 376.386887 68.342401 
L 376.957898 77.907245 
L 377.075615 68.374738 
L 377.732329 69.270363 
L 378.084597 65.741916 
L 378.448247 69.212085 
L 378.731202 73.537858 
L 379.692856 68.395822 
L 379.877197 66.574449 
L 379.959796 64.027045 
L 380.761524 57.755817 
L 380.886933 55.457029 
L 381.051184 56.777372 
L 381.284604 61.836544 
L 381.923843 60.507275 
L 382.407984 68.04676 
L 382.418265 68.006378 
L 382.835005 56.891805 
L 383.075105 70.992804 
L 383.164431 68.571223 
L 383.639045 85.277588 
L 384.841614 95.284956 
L 385.615164 73.284948 
L 386.899676 66.041874 
L 387.807139 67.925163 
L 388.42353 83.597427 
L 389.29031 81.497044 
L 390.028048 84.162316 
L 390.149744 77.00884 
L 390.449935 75.317765 
L 390.621799 71.966481 
L 391.251509 71.555502 
L 391.527132 73.3282 
L 391.803796 70.219431 
L 392.001803 64.237382 
L 392.487299 61.551207 
L 392.540434 63.620586 
L 392.873878 63.788575 
L 393.667855 63.368715 
L 394.695286 58.214047 
L 395.365884 65.508169 
L 396.017877 55.913564 
L 397.322036 59.028276 
L 398.202101 55.920479 
L 398.441681 62.685122 
L 399.520539 63.619727 
L 399.603487 63.089796 
L 399.645071 67.540217 
L 399.891842 61.198597 
L 399.940615 61.587431 
L 400.62931 61.657302 
L 400.703798 64.173544 
L 401.024114 80.523865 
L 401.626403 83.52333 
L 402.091478 65.708924 
L 402.342131 60.831028 
L 402.780977 57.397399 
L 403.902879 55.148778 
L 404.175916 68.131048 
L 404.459696 71.471349 
L 404.560619 67.529822 
L 405.100611 61.522395 
L 405.358178 55.630238 
L 406.320983 65.706709 
L 406.627086 53.737706 
L 407.157886 61.253441 
L 407.217764 60.466939 
L 407.577742 58.391323 
L 408.770826 56.629947 
L 408.888044 59.409426 
L 409.265676 71.226032 
L 410.354888 69.881487 
L 411.125753 55.772059 
L 411.916018 65.396515 
L 412.074851 72.093727 
L 412.110424 69.671987 
L 413.081033 57.013537 
L 413.216048 57.952798 
L 413.530154 61.00661 
L 413.997489 56.885297 
L 414.72 61.838103 
L 414.72 61.838103 
" style="fill:none;stroke:#000000;stroke-linecap:square;stroke-width:0.8;"/>
   </g>
   <g id="patch_3">
    <path d="M 57.6 307.584 
L 57.6 41.472 
" style="fill:none;stroke:#000000;stroke-linecap:square;stroke-linejoin:miter;stroke-width:0.8;"/>
   </g>
   <g id="patch_4">
    <path d="M 414.72 307.584 
L 414.72 41.472 
" style="fill:none;stroke:#000000;stroke-linecap:square;stroke-linejoin:miter;stroke-width:0.8;"/>
   </g>
   <g id="patch_5">
    <path d="M 57.6 307.584 
L 414.72 307.584 
" style="fill:none;stroke:#000000;stroke-linecap:square;stroke-linejoin:miter;stroke-width:0.8;"/>
   </g>
   <g id="patch_6">
    <path d="M 57.6 41.472 
L 414.72 41.472 
" style="fill:none;stroke:#000000;stroke-linecap:square;stroke-linejoin:miter;stroke-width:0.8;"/>
   </g>
  </g>
  <g id="axes_2">
   <g id="matplotlib.axis_3">
    <g id="xtick_6">
     <g id="line2d_24">
      <defs>
       <path d="M 0 0 
L 0 -3.5 
" id="mb4898cc132" style="stroke:#000000;stroke-width:0.8;"/>
      </defs>
      <g>
       <use style="stroke:#000000;stroke-width:0.8;" x="57.6" xlink:href="#mb4898cc132" y="41.472"/>
      </g>
     </g>
    </g>
    <g id="xtick_7">
     <g id="line2d_25">
      <g>
       <use style="stroke:#000000;stroke-width:0.8;" x="108.579719" xlink:href="#mb4898cc132" y="41.472"/>
      </g>
     </g>
     <g id="text_14">
      <!-- 10.0M -->
      <defs>
       <path d="M 10.6875 12.40625 
L 21 12.40625 
L 21 0 
L 10.6875 0 
z
" id="DejaVuSans-46"/>
      </defs>
      <g transform="translate(93.132844 32.392313)scale(0.1 -0.1)">
       <use xlink:href="#DejaVuSans-49"/>
       <use x="63.623047" xlink:href="#DejaVuSans-48"/>
       <use x="127.246094" xlink:href="#DejaVuSans-46"/>
       <use x="159.033203" xlink:href="#DejaVuSans-48"/>
       <use x="222.65625" xlink:href="#DejaVuSans-77"/>
      </g>
     </g>
    </g>
    <g id="xtick_8">
     <g id="line2d_26">
      <g>
       <use style="stroke:#000000;stroke-width:0.8;" x="159.559437" xlink:href="#mb4898cc132" y="41.472"/>
      </g>
     </g>
     <g id="text_15">
      <!-- 20.0M -->
      <g transform="translate(144.112562 32.392313)scale(0.1 -0.1)">
       <use xlink:href="#DejaVuSans-50"/>
       <use x="63.623047" xlink:href="#DejaVuSans-48"/>
       <use x="127.246094" xlink:href="#DejaVuSans-46"/>
       <use x="159.033203" xlink:href="#DejaVuSans-48"/>
       <use x="222.65625" xlink:href="#DejaVuSans-77"/>
      </g>
     </g>
    </g>
    <g id="xtick_9">
     <g id="line2d_27">
      <g>
       <use style="stroke:#000000;stroke-width:0.8;" x="210.539156" xlink:href="#mb4898cc132" y="41.472"/>
      </g>
     </g>
     <g id="text_16">
      <!-- 30.0M -->
      <defs>
       <path d="M 40.578125 39.3125 
Q 47.65625 37.796875 51.625 33 
Q 55.609375 28.21875 55.609375 21.1875 
Q 55.609375 10.40625 48.1875 4.484375 
Q 40.765625 -1.421875 27.09375 -1.421875 
Q 22.515625 -1.421875 17.65625 -0.515625 
Q 12.796875 0.390625 7.625 2.203125 
L 7.625 11.71875 
Q 11.71875 9.328125 16.59375 8.109375 
Q 21.484375 6.890625 26.8125 6.890625 
Q 36.078125 6.890625 40.9375 10.546875 
Q 45.796875 14.203125 45.796875 21.1875 
Q 45.796875 27.640625 41.28125 31.265625 
Q 36.765625 34.90625 28.71875 34.90625 
L 20.21875 34.90625 
L 20.21875 43.015625 
L 29.109375 43.015625 
Q 36.375 43.015625 40.234375 45.921875 
Q 44.09375 48.828125 44.09375 54.296875 
Q 44.09375 59.90625 40.109375 62.90625 
Q 36.140625 65.921875 28.71875 65.921875 
Q 24.65625 65.921875 20.015625 65.03125 
Q 15.375 64.15625 9.8125 62.3125 
L 9.8125 71.09375 
Q 15.4375 72.65625 20.34375 73.4375 
Q 25.25 74.21875 29.59375 74.21875 
Q 40.828125 74.21875 47.359375 69.109375 
Q 53.90625 64.015625 53.90625 55.328125 
Q 53.90625 49.265625 50.4375 45.09375 
Q 46.96875 40.921875 40.578125 39.3125 
z
" id="DejaVuSans-51"/>
      </defs>
      <g transform="translate(195.092281 32.392313)scale(0.1 -0.1)">
       <use xlink:href="#DejaVuSans-51"/>
       <use x="63.623047" xlink:href="#DejaVuSans-48"/>
       <use x="127.246094" xlink:href="#DejaVuSans-46"/>
       <use x="159.033203" xlink:href="#DejaVuSans-48"/>
       <use x="222.65625" xlink:href="#DejaVuSans-77"/>
      </g>
     </g>
    </g>
    <g id="xtick_10">
     <g id="line2d_28">
      <g>
       <use style="stroke:#000000;stroke-width:0.8;" x="261.518875" xlink:href="#mb4898cc132" y="41.472"/>
      </g>
     </g>
     <g id="text_17">
      <!-- 40.0M -->
      <defs>
       <path d="M 37.796875 64.3125 
L 12.890625 25.390625 
L 37.796875 25.390625 
z
M 35.203125 72.90625 
L 47.609375 72.90625 
L 47.609375 25.390625 
L 58.015625 25.390625 
L 58.015625 17.1875 
L 47.609375 17.1875 
L 47.609375 0 
L 37.796875 0 
L 37.796875 17.1875 
L 4.890625 17.1875 
L 4.890625 26.703125 
z
" id="DejaVuSans-52"/>
      </defs>
      <g transform="translate(246.072 32.392313)scale(0.1 -0.1)">
       <use xlink:href="#DejaVuSans-52"/>
       <use x="63.623047" xlink:href="#DejaVuSans-48"/>
       <use x="127.246094" xlink:href="#DejaVuSans-46"/>
       <use x="159.033203" xlink:href="#DejaVuSans-48"/>
       <use x="222.65625" xlink:href="#DejaVuSans-77"/>
      </g>
     </g>
    </g>
    <g id="xtick_11">
     <g id="line2d_29">
      <g>
       <use style="stroke:#000000;stroke-width:0.8;" x="312.498593" xlink:href="#mb4898cc132" y="41.472"/>
      </g>
     </g>
     <g id="text_18">
      <!-- 50.0M -->
      <g transform="translate(297.051718 32.392313)scale(0.1 -0.1)">
       <use xlink:href="#DejaVuSans-53"/>
       <use x="63.623047" xlink:href="#DejaVuSans-48"/>
       <use x="127.246094" xlink:href="#DejaVuSans-46"/>
       <use x="159.033203" xlink:href="#DejaVuSans-48"/>
       <use x="222.65625" xlink:href="#DejaVuSans-77"/>
      </g>
     </g>
    </g>
    <g id="xtick_12">
     <g id="line2d_30">
      <g>
       <use style="stroke:#000000;stroke-width:0.8;" x="363.478312" xlink:href="#mb4898cc132" y="41.472"/>
      </g>
     </g>
     <g id="text_19">
      <!-- 60.0M -->
      <defs>
       <path d="M 33.015625 40.375 
Q 26.375 40.375 22.484375 35.828125 
Q 18.609375 31.296875 18.609375 23.390625 
Q 18.609375 15.53125 22.484375 10.953125 
Q 26.375 6.390625 33.015625 6.390625 
Q 39.65625 6.390625 43.53125 10.953125 
Q 47.40625 15.53125 47.40625 23.390625 
Q 47.40625 31.296875 43.53125 35.828125 
Q 39.65625 40.375 33.015625 40.375 
z
M 52.59375 71.296875 
L 52.59375 62.3125 
Q 48.875 64.0625 45.09375 64.984375 
Q 41.3125 65.921875 37.59375 65.921875 
Q 27.828125 65.921875 22.671875 59.328125 
Q 17.53125 52.734375 16.796875 39.40625 
Q 19.671875 43.65625 24.015625 45.921875 
Q 28.375 48.1875 33.59375 48.1875 
Q 44.578125 48.1875 50.953125 41.515625 
Q 57.328125 34.859375 57.328125 23.390625 
Q 57.328125 12.15625 50.6875 5.359375 
Q 44.046875 -1.421875 33.015625 -1.421875 
Q 20.359375 -1.421875 13.671875 8.265625 
Q 6.984375 17.96875 6.984375 36.375 
Q 6.984375 53.65625 15.1875 63.9375 
Q 23.390625 74.21875 37.203125 74.21875 
Q 40.921875 74.21875 44.703125 73.484375 
Q 48.484375 72.75 52.59375 71.296875 
z
" id="DejaVuSans-54"/>
      </defs>
      <g transform="translate(348.031437 32.392313)scale(0.1 -0.1)">
       <use xlink:href="#DejaVuSans-54"/>
       <use x="63.623047" xlink:href="#DejaVuSans-48"/>
       <use x="127.246094" xlink:href="#DejaVuSans-46"/>
       <use x="159.033203" xlink:href="#DejaVuSans-48"/>
       <use x="222.65625" xlink:href="#DejaVuSans-77"/>
      </g>
     </g>
    </g>
    <g id="xtick_13">
     <g id="line2d_31">
      <g>
       <use style="stroke:#000000;stroke-width:0.8;" x="414.458031" xlink:href="#mb4898cc132" y="41.472"/>
      </g>
     </g>
     <g id="text_20">
      <!-- 70.0M -->
      <defs>
       <path d="M 8.203125 72.90625 
L 55.078125 72.90625 
L 55.078125 68.703125 
L 28.609375 0 
L 18.3125 0 
L 43.21875 64.59375 
L 8.203125 64.59375 
z
" id="DejaVuSans-55"/>
      </defs>
      <g transform="translate(399.011156 32.392313)scale(0.1 -0.1)">
       <use xlink:href="#DejaVuSans-55"/>
       <use x="63.623047" xlink:href="#DejaVuSans-48"/>
       <use x="127.246094" xlink:href="#DejaVuSans-46"/>
       <use x="159.033203" xlink:href="#DejaVuSans-48"/>
       <use x="222.65625" xlink:href="#DejaVuSans-77"/>
      </g>
     </g>
    </g>
    <g id="text_21">
     <!-- Steps -->
     <defs>
      <path d="M 53.515625 70.515625 
L 53.515625 60.890625 
Q 47.90625 63.578125 42.921875 64.890625 
Q 37.9375 66.21875 33.296875 66.21875 
Q 25.25 66.21875 20.875 63.09375 
Q 16.5 59.96875 16.5 54.203125 
Q 16.5 49.359375 19.40625 46.890625 
Q 22.3125 44.4375 30.421875 42.921875 
L 36.375 41.703125 
Q 47.40625 39.59375 52.65625 34.296875 
Q 57.90625 29 57.90625 20.125 
Q 57.90625 9.515625 50.796875 4.046875 
Q 43.703125 -1.421875 29.984375 -1.421875 
Q 24.8125 -1.421875 18.96875 -0.25 
Q 13.140625 0.921875 6.890625 3.21875 
L 6.890625 13.375 
Q 12.890625 10.015625 18.65625 8.296875 
Q 24.421875 6.59375 29.984375 6.59375 
Q 38.421875 6.59375 43.015625 9.90625 
Q 47.609375 13.234375 47.609375 19.390625 
Q 47.609375 24.75 44.3125 27.78125 
Q 41.015625 30.8125 33.5 32.328125 
L 27.484375 33.5 
Q 16.453125 35.6875 11.515625 40.375 
Q 6.59375 45.0625 6.59375 53.421875 
Q 6.59375 63.09375 13.40625 68.65625 
Q 20.21875 74.21875 32.171875 74.21875 
Q 37.3125 74.21875 42.625 73.28125 
Q 47.953125 72.359375 53.515625 70.515625 
z
" id="DejaVuSans-83"/>
      <path d="M 18.109375 8.203125 
L 18.109375 -20.796875 
L 9.078125 -20.796875 
L 9.078125 54.6875 
L 18.109375 54.6875 
L 18.109375 46.390625 
Q 20.953125 51.265625 25.265625 53.625 
Q 29.59375 56 35.59375 56 
Q 45.5625 56 51.78125 48.09375 
Q 58.015625 40.1875 58.015625 27.296875 
Q 58.015625 14.40625 51.78125 6.484375 
Q 45.5625 -1.421875 35.59375 -1.421875 
Q 29.59375 -1.421875 25.265625 0.953125 
Q 20.953125 3.328125 18.109375 8.203125 
z
M 48.6875 27.296875 
Q 48.6875 37.203125 44.609375 42.84375 
Q 40.53125 48.484375 33.40625 48.484375 
Q 26.265625 48.484375 22.1875 42.84375 
Q 18.109375 37.203125 18.109375 27.296875 
Q 18.109375 17.390625 22.1875 11.75 
Q 26.265625 6.109375 33.40625 6.109375 
Q 40.53125 6.109375 44.609375 11.75 
Q 48.6875 17.390625 48.6875 27.296875 
z
" id="DejaVuSans-112"/>
     </defs>
     <g transform="translate(222.170156 20.793875)scale(0.1 -0.1)">
      <use xlink:href="#DejaVuSans-83"/>
      <use x="63.476562" xlink:href="#DejaVuSans-116"/>
      <use x="102.685547" xlink:href="#DejaVuSans-101"/>
      <use x="164.208984" xlink:href="#DejaVuSans-112"/>
      <use x="227.685547" xlink:href="#DejaVuSans-115"/>
     </g>
    </g>
   </g>
   <g id="patch_7">
    <path d="M 57.6 307.584 
L 57.6 41.472 
" style="fill:none;stroke:#000000;stroke-linecap:square;stroke-linejoin:miter;stroke-width:0.8;"/>
   </g>
   <g id="patch_8">
    <path d="M 414.72 307.584 
L 414.72 41.472 
" style="fill:none;stroke:#000000;stroke-linecap:square;stroke-linejoin:miter;stroke-width:0.8;"/>
   </g>
   <g id="patch_9">
    <path d="M 57.6 307.584 
L 414.72 307.584 
" style="fill:none;stroke:#000000;stroke-linecap:square;stroke-linejoin:miter;stroke-width:0.8;"/>
   </g>
   <g id="patch_10">
    <path d="M 57.6 41.472 
L 414.72 41.472 
" style="fill:none;stroke:#000000;stroke-linecap:square;stroke-linejoin:miter;stroke-width:0.8;"/>
   </g>
  </g>
 </g>
 <defs>
  <clipPath id="p0e2100c853">
   <rect height="266.112" width="357.12" x="57.6" y="41.472"/>
  </clipPath>
 </defs>
</svg>
