<?xml version="1.0" encoding="utf-8" standalone="no"?>
<!DOCTYPE svg PUBLIC "-//W3C//DTD SVG 1.1//EN"
  "http://www.w3.org/Graphics/SVG/1.1/DTD/svg11.dtd">
<!-- Created with matplotlib (https://matplotlib.org/) -->
<svg height="345.6pt" version="1.1" viewBox="0 0 460.8 345.6" width="460.8pt" xmlns="http://www.w3.org/2000/svg" xmlns:xlink="http://www.w3.org/1999/xlink">
 <defs>
  <style type="text/css">
*{stroke-linecap:butt;stroke-linejoin:round;}
  </style>
 </defs>
 <g id="figure_1">
  <g id="patch_1">
   <path d="M 0 345.6 
L 460.8 345.6 
L 460.8 0 
L 0 0 
z
" style="fill:#ffffff;"/>
  </g>
  <g id="axes_1">
   <g id="patch_2">
    <path d="M 57.6 307.584 
L 414.72 307.584 
L 414.72 41.472 
L 57.6 41.472 
z
" style="fill:#ffffff;"/>
   </g>
   <g id="matplotlib.axis_1">
    <g id="xtick_1">
     <g id="line2d_1">
      <path clip-path="url(#p9a700b559a)" d="M 57.6 307.584 
L 57.6 41.472 
" style="fill:none;stroke:#b0b0b0;stroke-linecap:square;stroke-width:0.8;"/>
     </g>
     <g id="line2d_2">
      <defs>
       <path d="M 0 0 
L 0 3.5 
" id="mebca0154ae" style="stroke:#000000;stroke-width:0.8;"/>
      </defs>
      <g>
       <use style="stroke:#000000;stroke-width:0.8;" x="57.6" xlink:href="#mebca0154ae" y="307.584"/>
      </g>
     </g>
     <g id="text_1">
      <!-- 0.0 -->
      <defs>
       <path d="M 31.78125 66.40625 
Q 24.171875 66.40625 20.328125 58.90625 
Q 16.5 51.421875 16.5 36.375 
Q 16.5 21.390625 20.328125 13.890625 
Q 24.171875 6.390625 31.78125 6.390625 
Q 39.453125 6.390625 43.28125 13.890625 
Q 47.125 21.390625 47.125 36.375 
Q 47.125 51.421875 43.28125 58.90625 
Q 39.453125 66.40625 31.78125 66.40625 
z
M 31.78125 74.21875 
Q 44.046875 74.21875 50.515625 64.515625 
Q 56.984375 54.828125 56.984375 36.375 
Q 56.984375 17.96875 50.515625 8.265625 
Q 44.046875 -1.421875 31.78125 -1.421875 
Q 19.53125 -1.421875 13.0625 8.265625 
Q 6.59375 17.96875 6.59375 36.375 
Q 6.59375 54.828125 13.0625 64.515625 
Q 19.53125 74.21875 31.78125 74.21875 
z
" id="DejaVuSans-48"/>
       <path d="M 10.6875 12.40625 
L 21 12.40625 
L 21 0 
L 10.6875 0 
z
" id="DejaVuSans-46"/>
      </defs>
      <g transform="translate(49.648438 322.182437)scale(0.1 -0.1)">
       <use xlink:href="#DejaVuSans-48"/>
       <use x="63.623047" xlink:href="#DejaVuSans-46"/>
       <use x="95.410156" xlink:href="#DejaVuSans-48"/>
      </g>
     </g>
    </g>
    <g id="xtick_2">
     <g id="line2d_3">
      <path clip-path="url(#p9a700b559a)" d="M 97.758707 307.584 
L 97.758707 41.472 
" style="fill:none;stroke:#b0b0b0;stroke-linecap:square;stroke-width:0.8;"/>
     </g>
     <g id="line2d_4">
      <g>
       <use style="stroke:#000000;stroke-width:0.8;" x="97.758707" xlink:href="#mebca0154ae" y="307.584"/>
      </g>
     </g>
     <g id="text_2">
      <!-- 2.5 -->
      <defs>
       <path d="M 19.1875 8.296875 
L 53.609375 8.296875 
L 53.609375 0 
L 7.328125 0 
L 7.328125 8.296875 
Q 12.9375 14.109375 22.625 23.890625 
Q 32.328125 33.6875 34.8125 36.53125 
Q 39.546875 41.84375 41.421875 45.53125 
Q 43.3125 49.21875 43.3125 52.78125 
Q 43.3125 58.59375 39.234375 62.25 
Q 35.15625 65.921875 28.609375 65.921875 
Q 23.96875 65.921875 18.8125 64.3125 
Q 13.671875 62.703125 7.8125 59.421875 
L 7.8125 69.390625 
Q 13.765625 71.78125 18.9375 73 
Q 24.125 74.21875 28.421875 74.21875 
Q 39.75 74.21875 46.484375 68.546875 
Q 53.21875 62.890625 53.21875 53.421875 
Q 53.21875 48.921875 51.53125 44.890625 
Q 49.859375 40.875 45.40625 35.40625 
Q 44.1875 33.984375 37.640625 27.21875 
Q 31.109375 20.453125 19.1875 8.296875 
z
" id="DejaVuSans-50"/>
       <path d="M 10.796875 72.90625 
L 49.515625 72.90625 
L 49.515625 64.59375 
L 19.828125 64.59375 
L 19.828125 46.734375 
Q 21.96875 47.46875 24.109375 47.828125 
Q 26.265625 48.1875 28.421875 48.1875 
Q 40.625 48.1875 47.75 41.5 
Q 54.890625 34.8125 54.890625 23.390625 
Q 54.890625 11.625 47.5625 5.09375 
Q 40.234375 -1.421875 26.90625 -1.421875 
Q 22.3125 -1.421875 17.546875 -0.640625 
Q 12.796875 0.140625 7.71875 1.703125 
L 7.71875 11.625 
Q 12.109375 9.234375 16.796875 8.0625 
Q 21.484375 6.890625 26.703125 6.890625 
Q 35.15625 6.890625 40.078125 11.328125 
Q 45.015625 15.765625 45.015625 23.390625 
Q 45.015625 31 40.078125 35.4375 
Q 35.15625 39.890625 26.703125 39.890625 
Q 22.75 39.890625 18.8125 39.015625 
Q 14.890625 38.140625 10.796875 36.28125 
z
" id="DejaVuSans-53"/>
      </defs>
      <g transform="translate(89.807144 322.182437)scale(0.1 -0.1)">
       <use xlink:href="#DejaVuSans-50"/>
       <use x="63.623047" xlink:href="#DejaVuSans-46"/>
       <use x="95.410156" xlink:href="#DejaVuSans-53"/>
      </g>
     </g>
    </g>
    <g id="xtick_3">
     <g id="line2d_5">
      <path clip-path="url(#p9a700b559a)" d="M 137.917413 307.584 
L 137.917413 41.472 
" style="fill:none;stroke:#b0b0b0;stroke-linecap:square;stroke-width:0.8;"/>
     </g>
     <g id="line2d_6">
      <g>
       <use style="stroke:#000000;stroke-width:0.8;" x="137.917413" xlink:href="#mebca0154ae" y="307.584"/>
      </g>
     </g>
     <g id="text_3">
      <!-- 5.0 -->
      <g transform="translate(129.965851 322.182437)scale(0.1 -0.1)">
       <use xlink:href="#DejaVuSans-53"/>
       <use x="63.623047" xlink:href="#DejaVuSans-46"/>
       <use x="95.410156" xlink:href="#DejaVuSans-48"/>
      </g>
     </g>
    </g>
    <g id="xtick_4">
     <g id="line2d_7">
      <path clip-path="url(#p9a700b559a)" d="M 178.07612 307.584 
L 178.07612 41.472 
" style="fill:none;stroke:#b0b0b0;stroke-linecap:square;stroke-width:0.8;"/>
     </g>
     <g id="line2d_8">
      <g>
       <use style="stroke:#000000;stroke-width:0.8;" x="178.07612" xlink:href="#mebca0154ae" y="307.584"/>
      </g>
     </g>
     <g id="text_4">
      <!-- 7.5 -->
      <defs>
       <path d="M 8.203125 72.90625 
L 55.078125 72.90625 
L 55.078125 68.703125 
L 28.609375 0 
L 18.3125 0 
L 43.21875 64.59375 
L 8.203125 64.59375 
z
" id="DejaVuSans-55"/>
      </defs>
      <g transform="translate(170.124558 322.182437)scale(0.1 -0.1)">
       <use xlink:href="#DejaVuSans-55"/>
       <use x="63.623047" xlink:href="#DejaVuSans-46"/>
       <use x="95.410156" xlink:href="#DejaVuSans-53"/>
      </g>
     </g>
    </g>
    <g id="xtick_5">
     <g id="line2d_9">
      <path clip-path="url(#p9a700b559a)" d="M 218.234827 307.584 
L 218.234827 41.472 
" style="fill:none;stroke:#b0b0b0;stroke-linecap:square;stroke-width:0.8;"/>
     </g>
     <g id="line2d_10">
      <g>
       <use style="stroke:#000000;stroke-width:0.8;" x="218.234827" xlink:href="#mebca0154ae" y="307.584"/>
      </g>
     </g>
     <g id="text_5">
      <!-- 10.0 -->
      <defs>
       <path d="M 12.40625 8.296875 
L 28.515625 8.296875 
L 28.515625 63.921875 
L 10.984375 60.40625 
L 10.984375 69.390625 
L 28.421875 72.90625 
L 38.28125 72.90625 
L 38.28125 8.296875 
L 54.390625 8.296875 
L 54.390625 0 
L 12.40625 0 
z
" id="DejaVuSans-49"/>
      </defs>
      <g transform="translate(207.102014 322.182437)scale(0.1 -0.1)">
       <use xlink:href="#DejaVuSans-49"/>
       <use x="63.623047" xlink:href="#DejaVuSans-48"/>
       <use x="127.246094" xlink:href="#DejaVuSans-46"/>
       <use x="159.033203" xlink:href="#DejaVuSans-48"/>
      </g>
     </g>
    </g>
    <g id="xtick_6">
     <g id="line2d_11">
      <path clip-path="url(#p9a700b559a)" d="M 258.393534 307.584 
L 258.393534 41.472 
" style="fill:none;stroke:#b0b0b0;stroke-linecap:square;stroke-width:0.8;"/>
     </g>
     <g id="line2d_12">
      <g>
       <use style="stroke:#000000;stroke-width:0.8;" x="258.393534" xlink:href="#mebca0154ae" y="307.584"/>
      </g>
     </g>
     <g id="text_6">
      <!-- 12.5 -->
      <g transform="translate(247.260721 322.182437)scale(0.1 -0.1)">
       <use xlink:href="#DejaVuSans-49"/>
       <use x="63.623047" xlink:href="#DejaVuSans-50"/>
       <use x="127.246094" xlink:href="#DejaVuSans-46"/>
       <use x="159.033203" xlink:href="#DejaVuSans-53"/>
      </g>
     </g>
    </g>
    <g id="xtick_7">
     <g id="line2d_13">
      <path clip-path="url(#p9a700b559a)" d="M 298.55224 307.584 
L 298.55224 41.472 
" style="fill:none;stroke:#b0b0b0;stroke-linecap:square;stroke-width:0.8;"/>
     </g>
     <g id="line2d_14">
      <g>
       <use style="stroke:#000000;stroke-width:0.8;" x="298.55224" xlink:href="#mebca0154ae" y="307.584"/>
      </g>
     </g>
     <g id="text_7">
      <!-- 15.0 -->
      <g transform="translate(287.419428 322.182437)scale(0.1 -0.1)">
       <use xlink:href="#DejaVuSans-49"/>
       <use x="63.623047" xlink:href="#DejaVuSans-53"/>
       <use x="127.246094" xlink:href="#DejaVuSans-46"/>
       <use x="159.033203" xlink:href="#DejaVuSans-48"/>
      </g>
     </g>
    </g>
    <g id="xtick_8">
     <g id="line2d_15">
      <path clip-path="url(#p9a700b559a)" d="M 338.710947 307.584 
L 338.710947 41.472 
" style="fill:none;stroke:#b0b0b0;stroke-linecap:square;stroke-width:0.8;"/>
     </g>
     <g id="line2d_16">
      <g>
       <use style="stroke:#000000;stroke-width:0.8;" x="338.710947" xlink:href="#mebca0154ae" y="307.584"/>
      </g>
     </g>
     <g id="text_8">
      <!-- 17.5 -->
      <g transform="translate(327.578134 322.182437)scale(0.1 -0.1)">
       <use xlink:href="#DejaVuSans-49"/>
       <use x="63.623047" xlink:href="#DejaVuSans-55"/>
       <use x="127.246094" xlink:href="#DejaVuSans-46"/>
       <use x="159.033203" xlink:href="#DejaVuSans-53"/>
      </g>
     </g>
    </g>
    <g id="xtick_9">
     <g id="line2d_17">
      <path clip-path="url(#p9a700b559a)" d="M 378.869654 307.584 
L 378.869654 41.472 
" style="fill:none;stroke:#b0b0b0;stroke-linecap:square;stroke-width:0.8;"/>
     </g>
     <g id="line2d_18">
      <g>
       <use style="stroke:#000000;stroke-width:0.8;" x="378.869654" xlink:href="#mebca0154ae" y="307.584"/>
      </g>
     </g>
     <g id="text_9">
      <!-- 20.0 -->
      <g transform="translate(367.736841 322.182437)scale(0.1 -0.1)">
       <use xlink:href="#DejaVuSans-50"/>
       <use x="63.623047" xlink:href="#DejaVuSans-48"/>
       <use x="127.246094" xlink:href="#DejaVuSans-46"/>
       <use x="159.033203" xlink:href="#DejaVuSans-48"/>
      </g>
     </g>
    </g>
    <g id="text_10">
     <!-- Hours -->
     <defs>
      <path d="M 9.8125 72.90625 
L 19.671875 72.90625 
L 19.671875 43.015625 
L 55.515625 43.015625 
L 55.515625 72.90625 
L 65.375 72.90625 
L 65.375 0 
L 55.515625 0 
L 55.515625 34.71875 
L 19.671875 34.71875 
L 19.671875 0 
L 9.8125 0 
z
" id="DejaVuSans-72"/>
      <path d="M 30.609375 48.390625 
Q 23.390625 48.390625 19.1875 42.75 
Q 14.984375 37.109375 14.984375 27.296875 
Q 14.984375 17.484375 19.15625 11.84375 
Q 23.34375 6.203125 30.609375 6.203125 
Q 37.796875 6.203125 41.984375 11.859375 
Q 46.1875 17.53125 46.1875 27.296875 
Q 46.1875 37.015625 41.984375 42.703125 
Q 37.796875 48.390625 30.609375 48.390625 
z
M 30.609375 56 
Q 42.328125 56 49.015625 48.375 
Q 55.71875 40.765625 55.71875 27.296875 
Q 55.71875 13.875 49.015625 6.21875 
Q 42.328125 -1.421875 30.609375 -1.421875 
Q 18.84375 -1.421875 12.171875 6.21875 
Q 5.515625 13.875 5.515625 27.296875 
Q 5.515625 40.765625 12.171875 48.375 
Q 18.84375 56 30.609375 56 
z
" id="DejaVuSans-111"/>
      <path d="M 8.5 21.578125 
L 8.5 54.6875 
L 17.484375 54.6875 
L 17.484375 21.921875 
Q 17.484375 14.15625 20.5 10.265625 
Q 23.53125 6.390625 29.59375 6.390625 
Q 36.859375 6.390625 41.078125 11.03125 
Q 45.3125 15.671875 45.3125 23.6875 
L 45.3125 54.6875 
L 54.296875 54.6875 
L 54.296875 0 
L 45.3125 0 
L 45.3125 8.40625 
Q 42.046875 3.421875 37.71875 1 
Q 33.40625 -1.421875 27.6875 -1.421875 
Q 18.265625 -1.421875 13.375 4.4375 
Q 8.5 10.296875 8.5 21.578125 
z
M 31.109375 56 
z
" id="DejaVuSans-117"/>
      <path d="M 41.109375 46.296875 
Q 39.59375 47.171875 37.8125 47.578125 
Q 36.03125 48 33.890625 48 
Q 26.265625 48 22.1875 43.046875 
Q 18.109375 38.09375 18.109375 28.8125 
L 18.109375 0 
L 9.078125 0 
L 9.078125 54.6875 
L 18.109375 54.6875 
L 18.109375 46.1875 
Q 20.953125 51.171875 25.484375 53.578125 
Q 30.03125 56 36.53125 56 
Q 37.453125 56 38.578125 55.875 
Q 39.703125 55.765625 41.0625 55.515625 
z
" id="DejaVuSans-114"/>
      <path d="M 44.28125 53.078125 
L 44.28125 44.578125 
Q 40.484375 46.53125 36.375 47.5 
Q 32.28125 48.484375 27.875 48.484375 
Q 21.1875 48.484375 17.84375 46.4375 
Q 14.5 44.390625 14.5 40.28125 
Q 14.5 37.15625 16.890625 35.375 
Q 19.28125 33.59375 26.515625 31.984375 
L 29.59375 31.296875 
Q 39.15625 29.25 43.1875 25.515625 
Q 47.21875 21.78125 47.21875 15.09375 
Q 47.21875 7.46875 41.1875 3.015625 
Q 35.15625 -1.421875 24.609375 -1.421875 
Q 20.21875 -1.421875 15.453125 -0.5625 
Q 10.6875 0.296875 5.421875 2 
L 5.421875 11.28125 
Q 10.40625 8.6875 15.234375 7.390625 
Q 20.0625 6.109375 24.8125 6.109375 
Q 31.15625 6.109375 34.5625 8.28125 
Q 37.984375 10.453125 37.984375 14.40625 
Q 37.984375 18.0625 35.515625 20.015625 
Q 33.0625 21.96875 24.703125 23.78125 
L 21.578125 24.515625 
Q 13.234375 26.265625 9.515625 29.90625 
Q 5.8125 33.546875 5.8125 39.890625 
Q 5.8125 47.609375 11.28125 51.796875 
Q 16.75 56 26.8125 56 
Q 31.78125 56 36.171875 55.265625 
Q 40.578125 54.546875 44.28125 53.078125 
z
" id="DejaVuSans-115"/>
     </defs>
     <g transform="translate(221.511562 335.860562)scale(0.1 -0.1)">
      <use xlink:href="#DejaVuSans-72"/>
      <use x="75.195312" xlink:href="#DejaVuSans-111"/>
      <use x="136.376953" xlink:href="#DejaVuSans-117"/>
      <use x="199.755859" xlink:href="#DejaVuSans-114"/>
      <use x="240.869141" xlink:href="#DejaVuSans-115"/>
     </g>
    </g>
   </g>
   <g id="matplotlib.axis_2">
    <g id="ytick_1">
     <g id="line2d_19">
      <path clip-path="url(#p9a700b559a)" d="M 57.6 299.087287 
L 414.72 299.087287 
" style="fill:none;stroke:#b0b0b0;stroke-linecap:square;stroke-width:0.8;"/>
     </g>
     <g id="line2d_20">
      <defs>
       <path d="M 0 0 
L -3.5 0 
" id="mbe20b24309" style="stroke:#000000;stroke-width:0.8;"/>
      </defs>
      <g>
       <use style="stroke:#000000;stroke-width:0.8;" x="57.6" xlink:href="#mbe20b24309" y="299.087287"/>
      </g>
     </g>
     <g id="text_11">
      <!-- 0 -->
      <g transform="translate(44.2375 302.886505)scale(0.1 -0.1)">
       <use xlink:href="#DejaVuSans-48"/>
      </g>
     </g>
    </g>
    <g id="ytick_2">
     <g id="line2d_21">
      <path clip-path="url(#p9a700b559a)" d="M 57.6 266.518855 
L 414.72 266.518855 
" style="fill:none;stroke:#b0b0b0;stroke-linecap:square;stroke-width:0.8;"/>
     </g>
     <g id="line2d_22">
      <g>
       <use style="stroke:#000000;stroke-width:0.8;" x="57.6" xlink:href="#mbe20b24309" y="266.518855"/>
      </g>
     </g>
     <g id="text_12">
      <!-- 250 -->
      <g transform="translate(31.5125 270.318073)scale(0.1 -0.1)">
       <use xlink:href="#DejaVuSans-50"/>
       <use x="63.623047" xlink:href="#DejaVuSans-53"/>
       <use x="127.246094" xlink:href="#DejaVuSans-48"/>
      </g>
     </g>
    </g>
    <g id="ytick_3">
     <g id="line2d_23">
      <path clip-path="url(#p9a700b559a)" d="M 57.6 233.950423 
L 414.72 233.950423 
" style="fill:none;stroke:#b0b0b0;stroke-linecap:square;stroke-width:0.8;"/>
     </g>
     <g id="line2d_24">
      <g>
       <use style="stroke:#000000;stroke-width:0.8;" x="57.6" xlink:href="#mbe20b24309" y="233.950423"/>
      </g>
     </g>
     <g id="text_13">
      <!-- 500 -->
      <g transform="translate(31.5125 237.749642)scale(0.1 -0.1)">
       <use xlink:href="#DejaVuSans-53"/>
       <use x="63.623047" xlink:href="#DejaVuSans-48"/>
       <use x="127.246094" xlink:href="#DejaVuSans-48"/>
      </g>
     </g>
    </g>
    <g id="ytick_4">
     <g id="line2d_25">
      <path clip-path="url(#p9a700b559a)" d="M 57.6 201.381991 
L 414.72 201.381991 
" style="fill:none;stroke:#b0b0b0;stroke-linecap:square;stroke-width:0.8;"/>
     </g>
     <g id="line2d_26">
      <g>
       <use style="stroke:#000000;stroke-width:0.8;" x="57.6" xlink:href="#mbe20b24309" y="201.381991"/>
      </g>
     </g>
     <g id="text_14">
      <!-- 750 -->
      <g transform="translate(31.5125 205.18121)scale(0.1 -0.1)">
       <use xlink:href="#DejaVuSans-55"/>
       <use x="63.623047" xlink:href="#DejaVuSans-53"/>
       <use x="127.246094" xlink:href="#DejaVuSans-48"/>
      </g>
     </g>
    </g>
    <g id="ytick_5">
     <g id="line2d_27">
      <path clip-path="url(#p9a700b559a)" d="M 57.6 168.813559 
L 414.72 168.813559 
" style="fill:none;stroke:#b0b0b0;stroke-linecap:square;stroke-width:0.8;"/>
     </g>
     <g id="line2d_28">
      <g>
       <use style="stroke:#000000;stroke-width:0.8;" x="57.6" xlink:href="#mbe20b24309" y="168.813559"/>
      </g>
     </g>
     <g id="text_15">
      <!-- 1000 -->
      <g transform="translate(25.15 172.612778)scale(0.1 -0.1)">
       <use xlink:href="#DejaVuSans-49"/>
       <use x="63.623047" xlink:href="#DejaVuSans-48"/>
       <use x="127.246094" xlink:href="#DejaVuSans-48"/>
       <use x="190.869141" xlink:href="#DejaVuSans-48"/>
      </g>
     </g>
    </g>
    <g id="ytick_6">
     <g id="line2d_29">
      <path clip-path="url(#p9a700b559a)" d="M 57.6 136.245127 
L 414.72 136.245127 
" style="fill:none;stroke:#b0b0b0;stroke-linecap:square;stroke-width:0.8;"/>
     </g>
     <g id="line2d_30">
      <g>
       <use style="stroke:#000000;stroke-width:0.8;" x="57.6" xlink:href="#mbe20b24309" y="136.245127"/>
      </g>
     </g>
     <g id="text_16">
      <!-- 1250 -->
      <g transform="translate(25.15 140.044346)scale(0.1 -0.1)">
       <use xlink:href="#DejaVuSans-49"/>
       <use x="63.623047" xlink:href="#DejaVuSans-50"/>
       <use x="127.246094" xlink:href="#DejaVuSans-53"/>
       <use x="190.869141" xlink:href="#DejaVuSans-48"/>
      </g>
     </g>
    </g>
    <g id="ytick_7">
     <g id="line2d_31">
      <path clip-path="url(#p9a700b559a)" d="M 57.6 103.676695 
L 414.72 103.676695 
" style="fill:none;stroke:#b0b0b0;stroke-linecap:square;stroke-width:0.8;"/>
     </g>
     <g id="line2d_32">
      <g>
       <use style="stroke:#000000;stroke-width:0.8;" x="57.6" xlink:href="#mbe20b24309" y="103.676695"/>
      </g>
     </g>
     <g id="text_17">
      <!-- 1500 -->
      <g transform="translate(25.15 107.475914)scale(0.1 -0.1)">
       <use xlink:href="#DejaVuSans-49"/>
       <use x="63.623047" xlink:href="#DejaVuSans-53"/>
       <use x="127.246094" xlink:href="#DejaVuSans-48"/>
       <use x="190.869141" xlink:href="#DejaVuSans-48"/>
      </g>
     </g>
    </g>
    <g id="ytick_8">
     <g id="line2d_33">
      <path clip-path="url(#p9a700b559a)" d="M 57.6 71.108263 
L 414.72 71.108263 
" style="fill:none;stroke:#b0b0b0;stroke-linecap:square;stroke-width:0.8;"/>
     </g>
     <g id="line2d_34">
      <g>
       <use style="stroke:#000000;stroke-width:0.8;" x="57.6" xlink:href="#mbe20b24309" y="71.108263"/>
      </g>
     </g>
     <g id="text_18">
      <!-- 1750 -->
      <g transform="translate(25.15 74.907482)scale(0.1 -0.1)">
       <use xlink:href="#DejaVuSans-49"/>
       <use x="63.623047" xlink:href="#DejaVuSans-55"/>
       <use x="127.246094" xlink:href="#DejaVuSans-53"/>
       <use x="190.869141" xlink:href="#DejaVuSans-48"/>
      </g>
     </g>
    </g>
    <g id="text_19">
     <!-- Mean train reward -->
     <defs>
      <path d="M 9.8125 72.90625 
L 24.515625 72.90625 
L 43.109375 23.296875 
L 61.8125 72.90625 
L 76.515625 72.90625 
L 76.515625 0 
L 66.890625 0 
L 66.890625 64.015625 
L 48.09375 14.015625 
L 38.1875 14.015625 
L 19.390625 64.015625 
L 19.390625 0 
L 9.8125 0 
z
" id="DejaVuSans-77"/>
      <path d="M 56.203125 29.59375 
L 56.203125 25.203125 
L 14.890625 25.203125 
Q 15.484375 15.921875 20.484375 11.0625 
Q 25.484375 6.203125 34.421875 6.203125 
Q 39.59375 6.203125 44.453125 7.46875 
Q 49.3125 8.734375 54.109375 11.28125 
L 54.109375 2.78125 
Q 49.265625 0.734375 44.1875 -0.34375 
Q 39.109375 -1.421875 33.890625 -1.421875 
Q 20.796875 -1.421875 13.15625 6.1875 
Q 5.515625 13.8125 5.515625 26.8125 
Q 5.515625 40.234375 12.765625 48.109375 
Q 20.015625 56 32.328125 56 
Q 43.359375 56 49.78125 48.890625 
Q 56.203125 41.796875 56.203125 29.59375 
z
M 47.21875 32.234375 
Q 47.125 39.59375 43.09375 43.984375 
Q 39.0625 48.390625 32.421875 48.390625 
Q 24.90625 48.390625 20.390625 44.140625 
Q 15.875 39.890625 15.1875 32.171875 
z
" id="DejaVuSans-101"/>
      <path d="M 34.28125 27.484375 
Q 23.390625 27.484375 19.1875 25 
Q 14.984375 22.515625 14.984375 16.5 
Q 14.984375 11.71875 18.140625 8.90625 
Q 21.296875 6.109375 26.703125 6.109375 
Q 34.1875 6.109375 38.703125 11.40625 
Q 43.21875 16.703125 43.21875 25.484375 
L 43.21875 27.484375 
z
M 52.203125 31.203125 
L 52.203125 0 
L 43.21875 0 
L 43.21875 8.296875 
Q 40.140625 3.328125 35.546875 0.953125 
Q 30.953125 -1.421875 24.3125 -1.421875 
Q 15.921875 -1.421875 10.953125 3.296875 
Q 6 8.015625 6 15.921875 
Q 6 25.140625 12.171875 29.828125 
Q 18.359375 34.515625 30.609375 34.515625 
L 43.21875 34.515625 
L 43.21875 35.40625 
Q 43.21875 41.609375 39.140625 45 
Q 35.0625 48.390625 27.6875 48.390625 
Q 23 48.390625 18.546875 47.265625 
Q 14.109375 46.140625 10.015625 43.890625 
L 10.015625 52.203125 
Q 14.9375 54.109375 19.578125 55.046875 
Q 24.21875 56 28.609375 56 
Q 40.484375 56 46.34375 49.84375 
Q 52.203125 43.703125 52.203125 31.203125 
z
" id="DejaVuSans-97"/>
      <path d="M 54.890625 33.015625 
L 54.890625 0 
L 45.90625 0 
L 45.90625 32.71875 
Q 45.90625 40.484375 42.875 44.328125 
Q 39.84375 48.1875 33.796875 48.1875 
Q 26.515625 48.1875 22.3125 43.546875 
Q 18.109375 38.921875 18.109375 30.90625 
L 18.109375 0 
L 9.078125 0 
L 9.078125 54.6875 
L 18.109375 54.6875 
L 18.109375 46.1875 
Q 21.34375 51.125 25.703125 53.5625 
Q 30.078125 56 35.796875 56 
Q 45.21875 56 50.046875 50.171875 
Q 54.890625 44.34375 54.890625 33.015625 
z
" id="DejaVuSans-110"/>
      <path id="DejaVuSans-32"/>
      <path d="M 18.3125 70.21875 
L 18.3125 54.6875 
L 36.8125 54.6875 
L 36.8125 47.703125 
L 18.3125 47.703125 
L 18.3125 18.015625 
Q 18.3125 11.328125 20.140625 9.421875 
Q 21.96875 7.515625 27.59375 7.515625 
L 36.8125 7.515625 
L 36.8125 0 
L 27.59375 0 
Q 17.1875 0 13.234375 3.875 
Q 9.28125 7.765625 9.28125 18.015625 
L 9.28125 47.703125 
L 2.6875 47.703125 
L 2.6875 54.6875 
L 9.28125 54.6875 
L 9.28125 70.21875 
z
" id="DejaVuSans-116"/>
      <path d="M 9.421875 54.6875 
L 18.40625 54.6875 
L 18.40625 0 
L 9.421875 0 
z
M 9.421875 75.984375 
L 18.40625 75.984375 
L 18.40625 64.59375 
L 9.421875 64.59375 
z
" id="DejaVuSans-105"/>
      <path d="M 4.203125 54.6875 
L 13.1875 54.6875 
L 24.421875 12.015625 
L 35.59375 54.6875 
L 46.1875 54.6875 
L 57.421875 12.015625 
L 68.609375 54.6875 
L 77.59375 54.6875 
L 63.28125 0 
L 52.6875 0 
L 40.921875 44.828125 
L 29.109375 0 
L 18.5 0 
z
" id="DejaVuSans-119"/>
      <path d="M 45.40625 46.390625 
L 45.40625 75.984375 
L 54.390625 75.984375 
L 54.390625 0 
L 45.40625 0 
L 45.40625 8.203125 
Q 42.578125 3.328125 38.25 0.953125 
Q 33.9375 -1.421875 27.875 -1.421875 
Q 17.96875 -1.421875 11.734375 6.484375 
Q 5.515625 14.40625 5.515625 27.296875 
Q 5.515625 40.1875 11.734375 48.09375 
Q 17.96875 56 27.875 56 
Q 33.9375 56 38.25 53.625 
Q 42.578125 51.265625 45.40625 46.390625 
z
M 14.796875 27.296875 
Q 14.796875 17.390625 18.875 11.75 
Q 22.953125 6.109375 30.078125 6.109375 
Q 37.203125 6.109375 41.296875 11.75 
Q 45.40625 17.390625 45.40625 27.296875 
Q 45.40625 37.203125 41.296875 42.84375 
Q 37.203125 48.484375 30.078125 48.484375 
Q 22.953125 48.484375 18.875 42.84375 
Q 14.796875 37.203125 14.796875 27.296875 
z
" id="DejaVuSans-100"/>
     </defs>
     <g transform="translate(19.070312 220.479562)rotate(-90)scale(0.1 -0.1)">
      <use xlink:href="#DejaVuSans-77"/>
      <use x="86.279297" xlink:href="#DejaVuSans-101"/>
      <use x="147.802734" xlink:href="#DejaVuSans-97"/>
      <use x="209.082031" xlink:href="#DejaVuSans-110"/>
      <use x="272.460938" xlink:href="#DejaVuSans-32"/>
      <use x="304.248047" xlink:href="#DejaVuSans-116"/>
      <use x="343.457031" xlink:href="#DejaVuSans-114"/>
      <use x="384.570312" xlink:href="#DejaVuSans-97"/>
      <use x="445.849609" xlink:href="#DejaVuSans-105"/>
      <use x="473.632812" xlink:href="#DejaVuSans-110"/>
      <use x="537.011719" xlink:href="#DejaVuSans-32"/>
      <use x="568.798828" xlink:href="#DejaVuSans-114"/>
      <use x="609.880859" xlink:href="#DejaVuSans-101"/>
      <use x="671.404297" xlink:href="#DejaVuSans-119"/>
      <use x="753.191406" xlink:href="#DejaVuSans-97"/>
      <use x="814.470703" xlink:href="#DejaVuSans-114"/>
      <use x="855.568359" xlink:href="#DejaVuSans-100"/>
     </g>
    </g>
   </g>
   <g id="line2d_35">
    <path clip-path="url(#p9a700b559a)" d="M 57.6 286.593541 
L 57.968006 271.357771 
L 58.443212 243.870051 
L 58.711268 241.084686 
L 58.735633 241.428893 
L 58.836712 241.424178 
L 59.188703 238.391732 
L 59.428084 235.045528 
L 59.740603 235.478766 
L 59.993349 237.601832 
L 60.085413 237.353176 
L 60.339546 235.9654 
L 60.587225 233.487468 
L 60.79361 233.419393 
L 61.041191 236.434096 
L 61.334699 238.324798 
L 61.374132 238.176956 
L 61.480822 237.597733 
L 61.676371 242.535671 
L 61.686183 242.367239 
L 61.77136 242.17654 
L 61.937224 251.03573 
L 62.338952 247.003983 
L 62.514297 242.567202 
L 62.596756 244.028289 
L 62.645116 243.705801 
L 62.674053 242.621931 
L 62.703614 243.042629 
L 63.23497 253.329252 
L 63.382986 250.786736 
L 63.662244 251.320433 
L 64.115158 259.153257 
L 64.29598 256.05951 
L 64.359967 254.288852 
L 64.514152 254.318641 
L 64.528853 254.081335 
L 64.886908 262.647879 
L 65.101139 266.359487 
L 65.150078 267.777548 
L 65.422601 279.566444 
L 65.768964 286.884881 
L 65.853283 287.256296 
L 65.928161 290.636134 
L 65.948517 290.150777 
L 66.079976 290.291546 
L 66.461487 294.520062 
L 66.506111 294.890623 
L 66.525799 293.723331 
L 66.606771 294.600017 
L 66.686272 295.488 
L 66.998506 289.289047 
L 67.082185 290.520126 
L 67.162812 289.85936 
L 67.266603 287.544004 
L 67.336109 288.364198 
L 67.464685 289.508699 
L 67.519224 286.965135 
L 67.762447 285.681735 
L 68.008711 280.556674 
L 68.087749 279.603568 
L 68.364354 275.275936 
L 68.394065 277.679991 
L 68.596222 276.690908 
L 68.635885 275.12655 
L 68.689968 276.224534 
L 68.809711 273.941875 
L 69.073942 262.003519 
L 69.188042 261.917077 
L 69.349432 258.842314 
L 69.636041 252.862174 
L 69.750137 248.413534 
L 69.850087 248.709918 
L 69.937869 247.618466 
L 69.964886 248.388225 
L 70.040797 248.31534 
L 70.194895 249.279547 
L 70.420429 247.895894 
L 70.435054 248.738371 
L 70.697926 250.39919 
L 70.815387 255.122027 
L 71.001777 263.036151 
L 71.071288 262.307329 
L 71.213181 267.399697 
L 71.287608 267.366536 
L 71.307107 268.288074 
L 71.316721 267.650017 
L 71.439561 265.894083 
L 71.593464 265.852222 
L 71.622873 267.67215 
L 71.701782 266.470256 
L 71.858505 272.10028 
L 71.971235 279.398554 
L 72.030354 279.047068 
L 72.13987 278.795066 
L 72.174591 278.295366 
L 72.247768 281.066446 
L 72.307201 278.837796 
L 72.391254 278.966231 
L 72.562797 279.441507 
L 72.572612 280.203391 
L 73.063332 283.646867 
L 73.107577 281.822724 
L 73.137203 283.326043 
L 73.286254 283.184542 
L 73.301137 282.350027 
L 73.533424 282.64394 
L 73.686292 280.368441 
L 73.796176 279.520453 
L 74.084774 284.450963 
L 74.222084 283.44204 
L 74.381354 285.68704 
L 74.571984 278.401955 
L 74.742764 281.275698 
L 75.003721 279.786541 
L 75.038128 280.971059 
L 75.160596 280.459235 
L 75.36889 277.77976 
L 75.564185 283.37922 
L 75.919384 288.054619 
L 76.027494 287.299538 
L 76.271229 280.596062 
L 76.354919 283.020285 
L 76.459674 282.351971 
L 76.597222 279.027442 
L 76.626789 279.603117 
L 76.907015 275.024264 
L 77.091025 278.668289 
L 77.2289 283.430518 
L 77.297689 288.987421 
L 77.616657 295.363014 
L 77.636824 294.804818 
L 77.842594 286.080183 
L 78.398843 257.273622 
L 78.747428 262.159905 
L 78.830639 265.587724 
L 79.142513 283.650223 
L 79.270394 289.108191 
L 79.675555 276.482443 
L 80.0333 274.511836 
L 80.091979 276.036295 
L 80.126735 275.780501 
L 80.319824 275.095506 
L 80.334368 275.230137 
L 80.373562 274.437669 
L 80.639884 279.834622 
L 80.667874 278.308404 
L 80.730109 277.260523 
L 80.772013 273.669544 
L 80.842332 276.488122 
L 81.15809 272.054168 
L 81.229827 272.034976 
L 81.248321 271.864143 
L 81.355458 269.293439 
L 81.550203 274.011912 
L 81.629211 272.677513 
L 81.844872 281.86962 
L 81.905143 280.488311 
L 81.95642 283.068225 
L 82.073004 283.169047 
L 82.086828 283.829702 
L 82.168308 283.089908 
L 82.181696 282.053219 
L 82.43233 278.699736 
L 82.715452 269.892735 
L 82.781018 271.95757 
L 83.007036 275.225108 
L 83.035794 274.502696 
L 83.127211 275.263409 
L 83.385832 280.535661 
L 83.542488 278.067363 
L 83.557064 279.867829 
L 83.638202 278.934375 
L 83.925734 276.129255 
L 84.050043 275.52463 
L 84.196028 280.852292 
L 84.362597 280.762825 
L 84.522521 279.658132 
L 84.63215 276.550073 
L 84.687947 277.422431 
L 84.751472 277.28581 
L 84.786255 275.194883 
L 85.178938 268.316786 
L 85.498132 277.598117 
L 85.744268 282.266123 
L 85.874138 282.0398 
L 85.913551 283.919224 
L 86.225873 276.351029 
L 86.34731 274.305034 
L 86.448396 274.550327 
L 86.639244 271.390521 
L 87.203448 274.057815 
L 87.60866 285.125584 
L 87.933478 285.966967 
L 88.061793 284.590306 
L 88.094124 282.613247 
L 88.547606 276.029753 
L 88.781199 285.141798 
L 88.995679 286.695818 
L 89.07428 286.010373 
L 89.087404 286.039623 
L 89.127776 284.093006 
L 89.278313 283.530091 
L 89.456872 274.391233 
L 89.617364 274.204384 
L 89.62958 273.340456 
L 89.655901 274.029442 
L 89.750047 272.731365 
L 90.114921 271.44547 
L 90.362035 266.148397 
L 90.474956 268.187621 
L 90.517998 267.355051 
L 90.542418 267.205551 
L 90.843498 273.444588 
L 90.888534 276.699253 
L 91.30349 285.529131 
L 91.55716 282.139298 
L 91.590688 281.466636 
L 91.986046 266.593368 
L 92.164637 266.153641 
L 92.200144 266.217165 
L 92.306924 268.267513 
L 92.344017 266.820272 
L 92.507084 269.030476 
L 92.792615 280.555477 
L 92.80672 280.127583 
L 93.072487 281.757637 
L 93.158109 285.077041 
L 93.18668 285.014721 
L 93.342217 283.707848 
L 93.636254 286.825153 
L 93.64937 286.379308 
L 93.766367 285.768895 
L 94.122013 274.969641 
L 94.350815 274.409468 
L 94.613089 279.912865 
L 94.682324 280.417208 
L 94.767873 284.365027 
L 94.921974 278.748516 
L 95.356732 272.254666 
L 95.518107 268.012389 
L 95.569565 268.853576 
L 95.597545 270.359304 
L 95.724113 268.901894 
L 95.855706 264.656932 
L 95.985041 264.238738 
L 96.131234 264.30737 
L 96.202672 263.570354 
L 96.462697 268.130887 
L 96.722597 277.937795 
L 97.087985 284.47586 
L 97.112655 284.331953 
L 97.394952 286.27975 
L 97.548147 282.730684 
L 97.880729 280.141559 
L 97.984492 278.301992 
L 98.204495 269.696803 
L 98.690574 258.144565 
L 98.879537 259.90765 
L 99.072539 265.956029 
L 99.257822 277.114419 
L 99.436059 278.166564 
L 99.480826 277.561394 
L 99.785937 278.507636 
L 100.01347 271.099287 
L 100.154678 275.562806 
L 100.247667 275.494849 
L 100.328872 272.050107 
L 100.379669 273.181135 
L 100.476471 272.939288 
L 100.818149 277.220065 
L 100.899452 276.836696 
L 101.23179 285.045612 
L 101.56265 278.639281 
L 101.569505 278.778333 
L 101.608386 276.898669 
L 101.690825 277.225095 
L 101.831227 278.092301 
L 101.869086 279.32329 
L 101.972756 278.321274 
L 102.341829 280.163948 
L 102.419218 280.240507 
L 102.462498 278.531503 
L 102.535656 274.488036 
L 102.695957 272.248462 
L 102.700652 273.019887 
L 102.793625 273.357746 
L 102.932463 274.718454 
L 103.060585 272.572114 
L 103.365685 270.871436 
L 103.723223 264.146158 
L 103.728044 264.860449 
L 103.841974 265.087963 
L 104.063427 259.143417 
L 104.112267 259.52385 
L 104.272793 262.744443 
L 104.309221 262.166604 
L 104.340254 260.107978 
L 104.468217 260.013915 
L 104.559906 257.014132 
L 104.789172 260.470982 
L 104.941397 260.82176 
L 105.530024 275.46687 
L 105.567424 274.59839 
L 105.80212 268.633628 
L 106.197551 253.437469 
L 106.736438 267.628823 
L 107.166086 275.115422 
L 107.35031 272.483285 
L 107.631677 262.159356 
L 107.79835 262.149027 
L 107.914921 260.284962 
L 108.057385 260.712705 
L 108.117298 261.926825 
L 108.465383 256.65749 
L 108.697234 260.310986 
L 108.927447 269.970755 
L 109.323721 280.159476 
L 109.713402 268.206052 
L 109.735936 268.659066 
L 109.902792 273.245898 
L 109.910318 272.707234 
L 110.009341 272.522059 
L 110.356395 281.481141 
L 110.75756 277.914671 
L 110.857326 279.121874 
L 111.147912 278.259367 
L 111.17457 277.420392 
L 111.425547 275.79292 
L 111.767338 268.586246 
L 111.878551 268.086399 
L 111.903056 268.763753 
L 112.067182 268.006316 
L 112.08904 266.749867 
L 112.108261 266.834236 
L 112.250612 266.640793 
L 112.326162 265.121004 
L 112.402136 266.132812 
L 112.458771 265.709713 
L 112.965564 253.499513 
L 113.044947 255.538367 
L 113.282706 252.706448 
L 113.442254 254.837446 
L 113.463747 254.767169 
L 113.570407 254.880212 
L 113.749547 255.275482 
L 113.805005 255.040856 
L 114.257369 267.3311 
L 114.486722 275.921055 
L 114.901736 275.055457 
L 115.185588 264.831653 
L 115.33355 262.267983 
L 115.394034 259.013807 
L 115.805184 269.425528 
L 115.837056 269.817271 
L 115.955748 274.043383 
L 116.623915 281.876453 
L 117.20968 271.256265 
L 117.348062 268.309204 
L 117.492994 264.773128 
L 117.566659 265.323324 
L 117.76209 265.712559 
L 117.791238 264.772277 
L 118.020954 268.620938 
L 118.206219 275.119034 
L 118.265935 274.567919 
L 118.414644 275.797286 
L 118.655491 276.498958 
L 118.711409 276.37623 
L 118.827254 271.606138 
L 119.119542 272.987227 
L 119.297378 272.485267 
L 119.316384 273.393283 
L 119.39431 271.996289 
L 119.736193 273.545486 
L 119.863101 271.662003 
L 120.23567 272.341191 
L 120.329606 275.627033 
L 120.402733 275.330369 
L 120.581114 277.243917 
L 120.615062 276.373867 
L 120.832922 275.626876 
L 121.200061 265.858372 
L 121.287994 265.967982 
L 121.293165 265.078894 
L 121.742581 281.608031 
L 121.89596 283.91294 
L 122.183845 282.013354 
L 122.204007 283.138279 
L 122.392837 277.084204 
L 122.47782 275.356423 
L 123.028513 268.62811 
L 123.229197 270.418382 
L 123.370337 271.276348 
L 123.402862 270.722309 
L 123.468313 272.99297 
L 123.525935 271.348409 
L 123.905694 260.353406 
L 124.153651 260.625376 
L 124.200901 258.739957 
L 124.254637 260.643493 
L 124.352456 264.922194 
L 124.436733 264.210758 
L 124.685999 272.571753 
L 125.008809 273.815835 
L 125.058676 272.291172 
L 125.16483 273.723763 
L 125.470572 273.141346 
L 125.706533 272.163222 
L 125.790469 272.76217 
L 125.949489 267.737277 
L 126.197842 262.420071 
L 126.261891 263.055437 
L 126.357165 263.611665 
L 126.50292 267.387178 
L 126.880166 271.394954 
L 127.063303 269.619026 
L 127.222352 266.216648 
L 127.262067 266.377566 
L 127.273453 266.248074 
L 127.628548 259.147933 
L 127.718055 257.719164 
L 127.753287 258.086291 
L 127.829693 258.050895 
L 128.147706 262.943201 
L 128.336458 263.191436 
L 128.487773 259.883375 
L 128.673004 261.06084 
L 128.846945 267.574914 
L 129.310677 288.216994 
L 129.367498 288.232499 
L 129.757753 278.345636 
L 130.106241 258.092302 
L 130.400726 257.113798 
L 130.449312 254.509174 
L 130.679401 255.000471 
L 130.699255 254.666601 
L 130.889561 259.3994 
L 130.92704 258.57859 
L 131.162892 259.989405 
L 131.250796 261.232539 
L 131.474751 265.748895 
L 131.568305 265.072136 
L 131.679256 266.011255 
L 131.986755 266.72108 
L 132.311427 274.356061 
L 132.417573 273.42632 
L 132.593052 275.875745 
L 132.992675 262.692903 
L 133.031866 262.95514 
L 133.093505 265.401116 
L 133.352252 266.446689 
L 133.622533 272.510084 
L 133.799591 272.563599 
L 134.050688 275.765119 
L 134.103977 275.495531 
L 134.29072 275.357596 
L 134.325778 274.036805 
L 134.420135 276.157824 
L 134.507802 273.701168 
L 134.600313 274.485816 
L 134.729585 272.969738 
L 134.942095 277.408463 
L 135.085215 277.385378 
L 135.120844 278.691199 
L 135.461561 281.493706 
L 135.536562 278.170927 
L 135.536562 278.170927 
" style="fill:none;stroke:#000000;stroke-linecap:square;stroke-width:0.8;"/>
   </g>
   <g id="line2d_36">
    <path clip-path="url(#p9a700b559a)" d="M 57.6 273.898183 
L 57.624084 273.707205 
L 58.52247 252.688383 
L 59.609976 244.836016 
L 59.68049 245.048458 
L 60.817931 237.435829 
L 61.30314 233.035012 
L 61.594317 232.955487 
L 61.646217 232.372897 
L 62.02521 231.933852 
L 62.285959 229.805231 
L 62.689306 227.862583 
L 63.295431 221.423201 
L 63.336457 221.372401 
L 63.53139 220.819405 
L 64.52931 216.571825 
L 64.878533 215.622387 
L 65.242377 215.08818 
L 66.09236 211.420781 
L 66.706346 210.444308 
L 67.680902 207.890883 
L 68.033463 207.52584 
L 68.246442 208.134685 
L 68.692821 207.622559 
L 69.011633 206.066764 
L 69.126157 206.253428 
L 69.922219 203.157106 
L 70.094412 203.44887 
L 70.155754 203.061412 
L 70.287908 203.601995 
L 70.600519 203.857295 
L 71.089404 201.893417 
L 71.322279 200.19694 
L 71.647274 200.323501 
L 71.771272 200.162702 
L 72.530109 203.852413 
L 72.956609 204.555218 
L 74.172757 200.199604 
L 74.210991 200.269909 
L 74.570442 200.381649 
L 74.650439 200.743623 
L 75.15538 197.121172 
L 75.560747 195.497751 
L 75.724063 195.886474 
L 75.767456 195.763332 
L 76.103765 195.341827 
L 76.202676 195.268405 
L 76.518471 195.666835 
L 76.560935 195.230708 
L 77.534767 195.339442 
L 77.969004 196.657151 
L 78.315448 193.68067 
L 79.110554 191.791598 
L 79.654842 193.900181 
L 80.196799 192.057902 
L 80.220448 192.132699 
L 80.627784 189.015512 
L 81.108146 189.810839 
L 81.643379 189.492104 
L 82.216785 187.679817 
L 83.487073 185.944339 
L 84.561283 189.791112 
L 85.458265 182.800245 
L 86.018519 180.781114 
L 86.065839 179.973519 
L 87.054879 173.540617 
L 87.251852 173.834059 
L 87.652502 172.143395 
L 88.08756 172.474415 
L 88.952056 170.696294 
L 89.294129 168.552383 
L 89.337881 168.887554 
L 90.130082 169.286811 
L 90.142132 169.167415 
L 90.814248 165.134821 
L 91.639941 162.052779 
L 91.838967 162.692952 
L 92.016413 163.690328 
L 92.916503 164.740247 
L 93.361348 166.829079 
L 94.975132 155.42321 
L 96.051076 162.509611 
L 96.072298 162.157322 
L 96.815092 160.236389 
L 97.350899 158.072799 
L 98.56241 156.0849 
L 99.418093 153.727934 
L 99.542064 155.532111 
L 99.6708 155.51147 
L 100.254327 156.311034 
L 101.186561 156.842275 
L 101.466575 155.129999 
L 102.517857 153.238613 
L 102.648819 151.888852 
L 103.079619 150.686316 
L 103.919124 149.400913 
L 104.0783 149.575046 
L 104.410615 149.42429 
L 104.472886 149.551447 
L 105.555676 143.443434 
L 105.784865 142.811674 
L 106.798599 142.889692 
L 106.885976 142.668153 
L 107.80224 139.82608 
L 108.575258 142.941582 
L 108.622635 143.136022 
L 109.147119 141.547516 
L 110.564823 139.865073 
L 111.034716 136.660343 
L 111.348122 138.69517 
L 111.837046 139.074637 
L 112.226393 138.105853 
L 112.388827 137.54726 
L 112.661531 137.563958 
L 113.814363 134.413662 
L 114.738498 132.588239 
L 114.970889 132.639064 
L 115.226663 134.461783 
L 116.081007 135.749111 
L 116.502653 129.886888 
L 117.363928 130.667099 
L 118.007032 128.195667 
L 118.248522 127.975338 
L 118.410884 127.465247 
L 118.790385 129.867328 
L 119.363755 128.158662 
L 119.8105 125.260215 
L 121.417034 130.67944 
L 122.029148 129.437212 
L 122.351372 127.323937 
L 122.714572 125.632478 
L 123.280831 126.941624 
L 123.621109 126.64485 
L 124.146228 125.611804 
L 124.510738 125.618992 
L 124.829742 125.484934 
L 125.872161 124.390488 
L 126.237792 124.574258 
L 126.293188 124.029023 
L 126.903991 120.855955 
L 127.711665 123.645931 
L 128.551402 124.862746 
L 128.570293 125.125218 
L 128.802751 124.937139 
L 128.968851 124.507229 
L 130.131945 118.828745 
L 130.650459 118.830446 
L 131.814089 126.813958 
L 132.333569 125.050238 
L 132.890018 117.159803 
L 133.950895 123.802603 
L 135.520359 121.25786 
L 135.588672 120.474643 
L 135.840244 121.114323 
L 136.388118 126.126745 
L 136.660593 125.311087 
L 137.258791 115.643876 
L 137.288235 115.792025 
L 137.452188 115.607539 
L 137.741908 116.441692 
L 138.553721 114.5199 
L 138.677436 113.434455 
L 139.258771 118.376969 
L 139.526727 118.212266 
L 139.720889 118.83016 
L 139.86637 117.779494 
L 141.705724 106.587706 
L 142.810331 112.413924 
L 142.990028 112.057357 
L 143.625633 107.906377 
L 144.436721 108.924332 
L 144.486142 110.025599 
L 145.323312 114.095763 
L 145.538594 110.309365 
L 146.032241 107.012638 
L 146.30744 109.727124 
L 146.949937 109.019047 
L 147.074532 108.308362 
L 147.279829 110.579724 
L 147.406325 110.102393 
L 147.729522 108.242907 
L 148.057586 107.758786 
L 148.062453 108.000934 
L 148.509855 108.837742 
L 148.695518 108.220055 
L 148.754964 108.35607 
L 149.180275 114.036526 
L 149.421684 114.157687 
L 149.450445 114.715485 
L 149.614049 114.211613 
L 149.66415 113.114989 
L 150.036444 109.719125 
L 150.128507 110.996657 
L 150.16735 110.9687 
L 150.790113 109.200098 
L 150.853662 108.545867 
L 151.820345 105.919401 
L 153.018822 109.88844 
L 153.388191 108.369285 
L 153.53127 108.947279 
L 153.861274 107.670749 
L 153.975964 107.544387 
L 154.098466 106.933745 
L 154.324438 106.452423 
L 154.722205 106.18879 
L 154.894212 105.766673 
L 154.987102 104.041675 
L 155.555964 102.179215 
L 156.403804 105.924299 
L 157.123513 113.270086 
L 157.156538 112.908414 
L 157.456222 108.821458 
L 157.670483 102.068374 
L 158.395154 98.261398 
L 158.583177 98.532696 
L 158.729706 98.094056 
L 159.06872 97.286842 
L 159.705873 99.843369 
L 160.423118 98.77971 
L 160.793357 100.320556 
L 161.508229 100.734198 
L 162.386934 100.393581 
L 162.581901 101.875826 
L 163.040514 106.619129 
L 163.416164 100.902685 
L 163.924649 101.483415 
L 164.054223 103.265757 
L 164.398137 105.541763 
L 164.988393 103.718439 
L 165.299557 103.84787 
L 165.829715 106.750739 
L 166.081756 105.421937 
L 166.408879 102.607837 
L 166.643754 99.356464 
L 167.462383 100.2194 
L 167.867686 98.279352 
L 167.896706 98.720839 
L 168.043001 98.390432 
L 168.386701 100.417928 
L 168.63319 100.40123 
L 168.932479 97.526589 
L 169.292283 95.52961 
L 169.491293 96.25316 
L 169.931793 100.867414 
L 170.43603 100.564613 
L 170.924632 95.081476 
L 171.445973 99.663081 
L 171.994526 97.527813 
L 172.137634 95.819927 
L 172.289133 95.772712 
L 172.907935 94.812055 
L 173.985297 90.699559 
L 174.45262 91.762708 
L 174.505919 92.288113 
L 174.73135 91.870034 
L 175.281484 97.340624 
L 175.670592 96.562353 
L 177.066251 89.760147 
L 177.10877 88.941213 
L 177.409515 87.15189 
L 177.453533 87.594155 
L 178.15366 88.944855 
L 178.210641 88.858981 
L 178.401338 87.881769 
L 178.987317 91.050655 
L 179.26288 94.819449 
L 180.012394 88.552109 
L 180.461309 87.357032 
L 180.829078 88.860714 
L 181.133233 91.189214 
L 181.266221 90.973655 
L 181.784611 86.780024 
L 182.247677 87.46676 
L 182.409294 86.768336 
L 183.612022 98.608169 
L 183.833175 99.155933 
L 184.254582 95.902032 
L 185.349805 95.219733 
L 185.52476 93.292804 
L 185.593714 93.527939 
L 186.016745 95.311951 
L 187.230625 86.190755 
L 188.00098 83.859886 
L 188.188783 85.362041 
L 189.172368 85.718099 
L 189.724259 89.466999 
L 190.005052 84.293628 
L 190.620284 80.560996 
L 191.126128 82.179844 
L 191.720829 83.178748 
L 192.263291 83.021296 
L 192.515573 83.501713 
L 192.903089 89.122152 
L 193.38735 99.434069 
L 193.632622 99.831458 
L 193.733599 98.419549 
L 194.028899 97.213165 
L 195.302141 83.492076 
L 195.526892 83.777511 
L 195.804514 83.313076 
L 196.989873 88.159984 
L 197.232062 87.338713 
L 197.365908 86.590752 
L 197.612708 87.390905 
L 197.870561 84.867996 
L 198.152206 84.898816 
L 198.222857 84.501077 
L 198.8911 83.807026 
L 198.988934 83.428306 
L 199.258152 83.198705 
L 199.502239 83.611822 
L 199.714186 85.545509 
L 200.248655 85.58086 
L 200.809804 86.804276 
L 201.969749 85.116967 
L 202.283778 89.079947 
L 202.591174 90.642214 
L 202.884844 88.638699 
L 202.99769 88.680777 
L 203.584402 83.187446 
L 204.781082 86.205417 
L 205.300654 91.562225 
L 206.504795 87.080789 
L 207.751013 87.104897 
L 208.852689 83.671202 
L 208.912381 83.833519 
L 210.017412 79.214384 
L 210.404921 83.456963 
L 211.000942 86.647492 
L 211.16246 85.960915 
L 211.640584 87.453179 
L 211.828227 90.303315 
L 212.459757 91.157457 
L 212.917273 87.319598 
L 213.476262 84.692289 
L 214.091382 87.671776 
L 215.783331 98.362109 
L 215.975726 97.043231 
L 216.171184 96.433288 
L 216.222813 95.707718 
L 216.755263 96.256563 
L 217.2048 97.616947 
L 217.408473 99.472012 
L 218.015244 103.585478 
L 218.067187 103.564996 
L 218.870695 94.908663 
L 219.053422 92.547404 
L 220.320648 87.534028 
L 220.368393 87.869142 
L 220.782118 87.559774 
L 220.994298 88.12309 
L 221.716257 91.778436 
L 222.109696 91.668644 
L 222.413512 91.017816 
L 223.24963 85.823136 
L 223.464231 83.120274 
L 223.859605 77.844442 
L 224.393577 78.848037 
L 224.771437 81.053101 
L 225.199546 81.309418 
L 225.635239 79.445957 
L 226.627763 76.300018 
L 226.861931 78.695738 
L 227.446541 82.150997 
L 227.479846 82.00463 
L 227.922244 80.040919 
L 228.122709 80.277883 
L 228.668112 85.689793 
L 229.289719 96.441828 
L 229.696122 95.114346 
L 229.763297 93.179483 
L 230.028797 90.044866 
L 230.149332 89.965481 
L 230.75271 89.411738 
L 231.579469 96.721602 
L 232.39054 85.370454 
L 232.943082 83.905685 
L 233.162841 84.064965 
L 233.811977 88.569268 
L 234.192276 90.296922 
L 234.19686 90.244253 
L 235.58761 81.465041 
L 235.999113 92.092145 
L 236.554516 101.031289 
L 236.604884 100.631404 
L 237.049844 97.246783 
L 237.107947 97.283391 
L 237.673543 100.213341 
L 238.157784 93.832028 
L 238.541641 88.3147 
L 240.440688 98.221499 
L 241.006087 88.536 
L 241.246925 90.712424 
L 241.319542 90.582579 
L 241.443642 91.226299 
L 241.666996 93.642788 
L 242.307601 93.453261 
L 242.326822 93.081459 
L 242.694806 88.812784 
L 243.365034 83.957671 
L 244.18266 82.411926 
L 245.290358 85.323461 
L 245.441131 84.041811 
L 245.944822 76.896586 
L 246.043244 77.107375 
L 246.884633 84.130086 
L 248.189533 84.688981 
L 248.229569 84.897686 
L 248.645035 83.815979 
L 249.212589 78.658494 
L 249.50217 78.506513 
L 250.069223 74.799055 
L 251.058274 81.747724 
L 251.392219 82.533104 
L 252.39897 90.046409 
L 253.661244 80.141773 
L 254.514322 87.907531 
L 254.868931 87.356873 
L 255.153561 86.098043 
L 256.009952 79.069814 
L 257.259459 92.792351 
L 257.639646 89.940625 
L 257.892704 86.443081 
L 258.209984 80.334846 
L 258.676274 75.61686 
L 259.080857 76.405786 
L 259.46041 78.732584 
L 259.654959 78.956333 
L 259.78172 78.91338 
L 260.319785 75.95673 
L 261.566832 82.915831 
L 262.177725 81.058714 
L 262.545033 78.703387 
L 262.813985 78.449503 
L 263.042797 79.324477 
L 263.106081 79.207355 
L 264.201366 76.013009 
L 264.647016 73.207448 
L 264.980717 71.622616 
L 265.66754 71.297281 
L 266.015747 71.007266 
L 266.812041 73.904664 
L 267.471493 72.068014 
L 267.887573 76.595185 
L 268.592447 76.856353 
L 269.101496 78.990365 
L 270.134997 81.453718 
L 270.260081 80.497577 
L 270.936524 70.998456 
L 271.726667 74.981426 
L 272.553345 71.800597 
L 272.919883 71.364899 
L 273.222851 74.64038 
L 273.511841 76.275942 
L 273.920272 76.241926 
L 275.021953 65.879042 
L 275.201113 66.272392 
L 275.416873 72.997884 
L 276.107919 78.096291 
L 277.218591 77.655425 
L 277.346078 78.294167 
L 278.24906 84.239702 
L 279.220505 77.296949 
L 280.606227 83.469303 
L 281.397101 73.48719 
L 281.741303 71.052286 
L 282.073302 73.898685 
L 282.982053 73.212632 
L 284.285183 79.860727 
L 285.018647 88.482774 
L 285.024734 88.384465 
L 286.563908 72.105194 
L 288.157328 81.998412 
L 288.682516 83.379517 
L 288.71417 82.947111 
L 289.111097 79.808233 
L 289.171483 79.856036 
L 289.328918 79.085637 
L 290.235147 70.076506 
L 291.018043 69.461061 
L 291.88331 65.479363 
L 292.151629 66.621564 
L 292.300016 66.253977 
L 294.83604 66.78668 
L 295.055199 67.284112 
L 295.479476 66.13916 
L 295.952428 63.886691 
L 296.543555 67.285353 
L 296.644043 68.687004 
L 297.475183 67.253214 
L 297.735321 68.28715 
L 298.122867 77.16596 
L 298.665788 83.799663 
L 300.612142 81.178254 
L 301.569362 95.442702 
L 301.817048 96.176224 
L 301.979678 96.049894 
L 302.165574 96.144514 
L 302.198938 96.666706 
L 302.638618 87.111672 
L 302.854612 81.017241 
L 303.446116 69.752189 
L 304.084013 74.60894 
L 305.886137 65.818994 
L 307.162307 76.69623 
L 308.374029 69.206032 
L 309.094999 71.705961 
L 309.408786 74.114307 
L 310.012805 73.676685 
L 310.721887 70.363133 
L 310.936057 70.478347 
L 311.465016 73.298459 
L 312.18832 74.04987 
L 312.60881 76.601356 
L 312.941911 74.847479 
L 313.183033 71.148847 
L 313.605461 68.083407 
L 314.571603 71.849911 
L 314.86195 69.720511 
L 315.801825 74.423517 
L 316.174744 77.404355 
L 317.161416 94.72273 
L 317.310375 94.5572 
L 317.671365 89.573483 
L 318.564657 87.394563 
L 320.13631 88.533313 
L 320.621436 82.403896 
L 321.60048 79.107264 
L 321.696614 79.855114 
L 323.360974 79.767681 
L 323.855654 75.616288 
L 324.146551 77.804018 
L 324.530555 77.40445 
L 324.732464 75.343432 
L 325.309289 68.063179 
L 325.916417 69.081785 
L 326.19167 69.887488 
L 326.522444 69.639185 
L 327.526057 82.287552 
L 327.584408 81.134442 
L 327.656317 80.772707 
L 328.186422 75.624589 
L 328.743725 72.809614 
L 328.857211 71.505732 
L 330.153119 72.893929 
L 330.933967 81.831213 
L 331.528402 81.595282 
L 332.140189 73.643496 
L 332.626965 75.6573 
L 333.185155 80.365713 
L 333.613943 74.376111 
L 334.264093 67.092757 
L 334.612325 65.536708 
L 335.101666 62.817323 
L 336.853304 68.905887 
L 336.91835 68.541098 
L 337.447332 67.115688 
L 337.717378 68.470602 
L 337.991373 73.288758 
L 339.011801 71.711988 
L 339.042184 71.416836 
L 340.142432 66.929374 
L 340.863496 67.405576 
L 341.073501 68.242639 
L 341.378109 72.766009 
L 342.588699 82.720404 
L 342.896566 81.390505 
L 343.47636 72.372341 
L 344.069958 66.688037 
L 344.34884 69.48897 
L 344.454696 70.113495 
L 345.357931 67.888966 
L 345.58226 68.72261 
L 345.892739 71.013882 
L 345.94793 70.589904 
L 346.461885 68.060682 
L 346.91214 64.268368 
L 347.086181 63.7807 
L 347.137713 63.842656 
L 348.047985 59.287879 
L 348.340071 59.427885 
L 349.530363 61.580295 
L 350.142159 71.199146 
L 350.66079 75.956555 
L 351.490693 69.833053 
L 351.796155 68.956473 
L 352.096767 69.697723 
L 352.213053 69.860581 
L 352.283486 69.458771 
L 352.545874 69.497764 
L 352.96318 70.507592 
L 353.475542 73.335496 
L 354.012342 78.804305 
L 354.633336 82.425937 
L 356.428935 71.086 
L 356.785136 71.632555 
L 357.312119 74.090231 
L 358.014977 73.35302 
L 358.047995 73.536663 
L 359.09911 66.654753 
L 359.156375 66.169757 
L 359.736972 62.922646 
L 360.053838 66.285766 
L 361.088154 72.381978 
L 362.638403 71.580521 
L 362.701114 71.388466 
L 363.330385 67.136998 
L 363.363759 67.782101 
L 363.733204 67.212901 
L 364.466492 81.571445 
L 365.084165 97.814696 
L 365.593824 82.272095 
L 366.197241 71.096623 
L 367.187458 64.209831 
L 367.549515 63.6534 
L 367.76227 63.04376 
L 369.824108 66.483276 
L 370.370359 68.069142 
L 370.632596 69.975779 
L 370.793346 69.764068 
L 371.591658 76.143267 
L 371.985057 76.09998 
L 372.095188 77.133837 
L 372.346116 80.866262 
L 372.880912 85.234391 
L 373.255918 81.096547 
L 374.181588 68.124753 
L 374.764403 73.177647 
L 375.244009 68.90083 
L 375.572748 70.042426 
L 375.888253 72.797067 
L 376.599023 68.881699 
L 376.673814 67.885149 
L 377.141027 65.933795 
L 377.809632 62.270737 
L 378.768345 60.692265 
L 379.551261 63.12596 
L 379.832825 64.811138 
L 380.406349 60.945306 
L 380.568474 58.934874 
L 380.967329 62.120505 
L 381.553642 65.832925 
L 382.166296 65.79584 
L 382.359093 69.448848 
L 383.514924 63.356452 
L 384.417792 59.386363 
L 385.047875 65.581792 
L 385.695045 58.549014 
L 385.976623 57.472236 
L 386.674075 62.85867 
L 387.908611 55.179279 
L 388.629878 59.564758 
L 388.990983 62.272693 
L 389.216989 62.628337 
L 390.269321 68.708568 
L 391.709088 56.523744 
L 392.005154 57.557887 
L 393.195287 66.767248 
L 394.101789 71.205666 
L 394.577096 64.877563 
L 394.727502 63.889839 
L 396.872666 68.21244 
L 397.258425 63.568083 
L 397.662286 60.731306 
L 398.304374 62.458355 
L 398.538894 65.211071 
L 398.985558 64.088605 
L 399.947752 53.568 
L 400.196532 53.767132 
L 400.379584 54.631611 
L 400.820641 61.622437 
L 401.197385 63.841861 
L 401.681514 70.160551 
L 403.053904 55.071141 
L 403.651833 54.594033 
L 404.610969 57.159878 
L 405.398503 66.019398 
L 405.482232 65.509196 
L 405.823314 65.504124 
L 406.065279 63.235799 
L 406.850588 64.903166 
L 407.039482 67.042012 
L 407.202881 66.620387 
L 407.299937 67.16823 
L 407.314231 67.160152 
L 407.479626 67.192673 
L 407.527111 67.710015 
L 408.15359 65.33236 
L 410.421474 73.094397 
L 410.478447 72.785347 
L 411.2295 70.887584 
L 411.457634 69.978625 
L 411.603845 70.907462 
L 412.279322 72.404528 
L 412.510005 71.858546 
L 413.146171 70.993351 
L 413.793677 69.608398 
L 413.931426 68.980581 
L 414.491823 64.708948 
L 414.72 60.769631 
L 414.72 60.769631 
" style="fill:none;stroke:#000000;stroke-dasharray:0.8,1.32;stroke-dashoffset:0;stroke-width:0.8;"/>
   </g>
   <g id="patch_3">
    <path d="M 57.6 307.584 
L 57.6 41.472 
" style="fill:none;stroke:#000000;stroke-linecap:square;stroke-linejoin:miter;stroke-width:0.8;"/>
   </g>
   <g id="patch_4">
    <path d="M 414.72 307.584 
L 414.72 41.472 
" style="fill:none;stroke:#000000;stroke-linecap:square;stroke-linejoin:miter;stroke-width:0.8;"/>
   </g>
   <g id="patch_5">
    <path d="M 57.6 307.584 
L 414.72 307.584 
" style="fill:none;stroke:#000000;stroke-linecap:square;stroke-linejoin:miter;stroke-width:0.8;"/>
   </g>
   <g id="patch_6">
    <path d="M 57.6 41.472 
L 414.72 41.472 
" style="fill:none;stroke:#000000;stroke-linecap:square;stroke-linejoin:miter;stroke-width:0.8;"/>
   </g>
   <g id="legend_1">
    <g id="patch_7">
     <path d="M 64.6 78.82825 
L 123.557812 78.82825 
Q 125.557812 78.82825 125.557812 76.82825 
L 125.557812 48.472 
Q 125.557812 46.472 123.557812 46.472 
L 64.6 46.472 
Q 62.6 46.472 62.6 48.472 
L 62.6 76.82825 
Q 62.6 78.82825 64.6 78.82825 
z
" style="fill:#ffffff;opacity:0.8;stroke:#cccccc;stroke-linejoin:miter;"/>
    </g>
    <g id="line2d_37">
     <path d="M 66.6 54.570437 
L 86.6 54.570437 
" style="fill:none;stroke:#000000;stroke-linecap:square;stroke-width:0.8;"/>
    </g>
    <g id="line2d_38"/>
    <g id="text_20">
     <!-- TRPO -->
     <defs>
      <path d="M -0.296875 72.90625 
L 61.375 72.90625 
L 61.375 64.59375 
L 35.5 64.59375 
L 35.5 0 
L 25.59375 0 
L 25.59375 64.59375 
L -0.296875 64.59375 
z
" id="DejaVuSans-84"/>
      <path d="M 44.390625 34.1875 
Q 47.5625 33.109375 50.5625 29.59375 
Q 53.5625 26.078125 56.59375 19.921875 
L 66.609375 0 
L 56 0 
L 46.6875 18.703125 
Q 43.0625 26.03125 39.671875 28.421875 
Q 36.28125 30.8125 30.421875 30.8125 
L 19.671875 30.8125 
L 19.671875 0 
L 9.8125 0 
L 9.8125 72.90625 
L 32.078125 72.90625 
Q 44.578125 72.90625 50.734375 67.671875 
Q 56.890625 62.453125 56.890625 51.90625 
Q 56.890625 45.015625 53.6875 40.46875 
Q 50.484375 35.9375 44.390625 34.1875 
z
M 19.671875 64.796875 
L 19.671875 38.921875 
L 32.078125 38.921875 
Q 39.203125 38.921875 42.84375 42.21875 
Q 46.484375 45.515625 46.484375 51.90625 
Q 46.484375 58.296875 42.84375 61.546875 
Q 39.203125 64.796875 32.078125 64.796875 
z
" id="DejaVuSans-82"/>
      <path d="M 19.671875 64.796875 
L 19.671875 37.40625 
L 32.078125 37.40625 
Q 38.96875 37.40625 42.71875 40.96875 
Q 46.484375 44.53125 46.484375 51.125 
Q 46.484375 57.671875 42.71875 61.234375 
Q 38.96875 64.796875 32.078125 64.796875 
z
M 9.8125 72.90625 
L 32.078125 72.90625 
Q 44.34375 72.90625 50.609375 67.359375 
Q 56.890625 61.8125 56.890625 51.125 
Q 56.890625 40.328125 50.609375 34.8125 
Q 44.34375 29.296875 32.078125 29.296875 
L 19.671875 29.296875 
L 19.671875 0 
L 9.8125 0 
z
" id="DejaVuSans-80"/>
      <path d="M 39.40625 66.21875 
Q 28.65625 66.21875 22.328125 58.203125 
Q 16.015625 50.203125 16.015625 36.375 
Q 16.015625 22.609375 22.328125 14.59375 
Q 28.65625 6.59375 39.40625 6.59375 
Q 50.140625 6.59375 56.421875 14.59375 
Q 62.703125 22.609375 62.703125 36.375 
Q 62.703125 50.203125 56.421875 58.203125 
Q 50.140625 66.21875 39.40625 66.21875 
z
M 39.40625 74.21875 
Q 54.734375 74.21875 63.90625 63.9375 
Q 73.09375 53.65625 73.09375 36.375 
Q 73.09375 19.140625 63.90625 8.859375 
Q 54.734375 -1.421875 39.40625 -1.421875 
Q 24.03125 -1.421875 14.8125 8.828125 
Q 5.609375 19.09375 5.609375 36.375 
Q 5.609375 53.65625 14.8125 63.9375 
Q 24.03125 74.21875 39.40625 74.21875 
z
" id="DejaVuSans-79"/>
     </defs>
     <g transform="translate(94.6 58.070437)scale(0.1 -0.1)">
      <use xlink:href="#DejaVuSans-84"/>
      <use x="61.083984" xlink:href="#DejaVuSans-82"/>
      <use x="130.566406" xlink:href="#DejaVuSans-80"/>
      <use x="190.869141" xlink:href="#DejaVuSans-79"/>
     </g>
    </g>
    <g id="line2d_39">
     <path d="M 66.6 69.248562 
L 86.6 69.248562 
" style="fill:none;stroke:#000000;stroke-dasharray:0.8,1.32;stroke-dashoffset:0;stroke-width:0.8;"/>
    </g>
    <g id="line2d_40"/>
    <g id="text_21">
     <!-- PPO -->
     <g transform="translate(94.6 72.748562)scale(0.1 -0.1)">
      <use xlink:href="#DejaVuSans-80"/>
      <use x="60.302734" xlink:href="#DejaVuSans-80"/>
      <use x="120.605469" xlink:href="#DejaVuSans-79"/>
     </g>
    </g>
   </g>
  </g>
 </g>
 <defs>
  <clipPath id="p9a700b559a">
   <rect height="266.112" width="357.12" x="57.6" y="41.472"/>
  </clipPath>
 </defs>
</svg>
