<?xml version="1.0" encoding="utf-8" standalone="no"?>
<!DOCTYPE svg PUBLIC "-//W3C//DTD SVG 1.1//EN"
  "http://www.w3.org/Graphics/SVG/1.1/DTD/svg11.dtd">
<!-- Created with matplotlib (https://matplotlib.org/) -->
<svg height="345.6pt" version="1.1" viewBox="0 0 460.8 345.6" width="460.8pt" xmlns="http://www.w3.org/2000/svg" xmlns:xlink="http://www.w3.org/1999/xlink">
 <defs>
  <style type="text/css">
*{stroke-linecap:butt;stroke-linejoin:round;}
  </style>
 </defs>
 <g id="figure_1">
  <g id="patch_1">
   <path d="M 0 345.6 
L 460.8 345.6 
L 460.8 0 
L 0 0 
z
" style="fill:#ffffff;"/>
  </g>
  <g id="axes_1">
   <g id="patch_2">
    <path d="M 57.6 307.584 
L 414.72 307.584 
L 414.72 41.472 
L 57.6 41.472 
z
" style="fill:#ffffff;"/>
   </g>
   <g id="matplotlib.axis_1">
    <g id="xtick_1">
     <g id="line2d_1">
      <path clip-path="url(#p09f084dad6)" d="M 57.6 307.584 
L 57.6 41.472 
" style="fill:none;stroke:#b0b0b0;stroke-linecap:square;stroke-width:0.8;"/>
     </g>
     <g id="line2d_2">
      <defs>
       <path d="M 0 0 
L 0 3.5 
" id="ma00e499952" style="stroke:#000000;stroke-width:0.8;"/>
      </defs>
      <g>
       <use style="stroke:#000000;stroke-width:0.8;" x="57.6" xlink:href="#ma00e499952" y="307.584"/>
      </g>
     </g>
     <g id="text_1">
      <!-- 0.0 -->
      <defs>
       <path d="M 31.78125 66.40625 
Q 24.171875 66.40625 20.328125 58.90625 
Q 16.5 51.421875 16.5 36.375 
Q 16.5 21.390625 20.328125 13.890625 
Q 24.171875 6.390625 31.78125 6.390625 
Q 39.453125 6.390625 43.28125 13.890625 
Q 47.125 21.390625 47.125 36.375 
Q 47.125 51.421875 43.28125 58.90625 
Q 39.453125 66.40625 31.78125 66.40625 
z
M 31.78125 74.21875 
Q 44.046875 74.21875 50.515625 64.515625 
Q 56.984375 54.828125 56.984375 36.375 
Q 56.984375 17.96875 50.515625 8.265625 
Q 44.046875 -1.421875 31.78125 -1.421875 
Q 19.53125 -1.421875 13.0625 8.265625 
Q 6.59375 17.96875 6.59375 36.375 
Q 6.59375 54.828125 13.0625 64.515625 
Q 19.53125 74.21875 31.78125 74.21875 
z
" id="DejaVuSans-48"/>
       <path d="M 10.6875 12.40625 
L 21 12.40625 
L 21 0 
L 10.6875 0 
z
" id="DejaVuSans-46"/>
      </defs>
      <g transform="translate(49.648438 322.182437)scale(0.1 -0.1)">
       <use xlink:href="#DejaVuSans-48"/>
       <use x="63.623047" xlink:href="#DejaVuSans-46"/>
       <use x="95.410156" xlink:href="#DejaVuSans-48"/>
      </g>
     </g>
    </g>
    <g id="xtick_2">
     <g id="line2d_3">
      <path clip-path="url(#p09f084dad6)" d="M 97.758707 307.584 
L 97.758707 41.472 
" style="fill:none;stroke:#b0b0b0;stroke-linecap:square;stroke-width:0.8;"/>
     </g>
     <g id="line2d_4">
      <g>
       <use style="stroke:#000000;stroke-width:0.8;" x="97.758707" xlink:href="#ma00e499952" y="307.584"/>
      </g>
     </g>
     <g id="text_2">
      <!-- 2.5 -->
      <defs>
       <path d="M 19.1875 8.296875 
L 53.609375 8.296875 
L 53.609375 0 
L 7.328125 0 
L 7.328125 8.296875 
Q 12.9375 14.109375 22.625 23.890625 
Q 32.328125 33.6875 34.8125 36.53125 
Q 39.546875 41.84375 41.421875 45.53125 
Q 43.3125 49.21875 43.3125 52.78125 
Q 43.3125 58.59375 39.234375 62.25 
Q 35.15625 65.921875 28.609375 65.921875 
Q 23.96875 65.921875 18.8125 64.3125 
Q 13.671875 62.703125 7.8125 59.421875 
L 7.8125 69.390625 
Q 13.765625 71.78125 18.9375 73 
Q 24.125 74.21875 28.421875 74.21875 
Q 39.75 74.21875 46.484375 68.546875 
Q 53.21875 62.890625 53.21875 53.421875 
Q 53.21875 48.921875 51.53125 44.890625 
Q 49.859375 40.875 45.40625 35.40625 
Q 44.1875 33.984375 37.640625 27.21875 
Q 31.109375 20.453125 19.1875 8.296875 
z
" id="DejaVuSans-50"/>
       <path d="M 10.796875 72.90625 
L 49.515625 72.90625 
L 49.515625 64.59375 
L 19.828125 64.59375 
L 19.828125 46.734375 
Q 21.96875 47.46875 24.109375 47.828125 
Q 26.265625 48.1875 28.421875 48.1875 
Q 40.625 48.1875 47.75 41.5 
Q 54.890625 34.8125 54.890625 23.390625 
Q 54.890625 11.625 47.5625 5.09375 
Q 40.234375 -1.421875 26.90625 -1.421875 
Q 22.3125 -1.421875 17.546875 -0.640625 
Q 12.796875 0.140625 7.71875 1.703125 
L 7.71875 11.625 
Q 12.109375 9.234375 16.796875 8.0625 
Q 21.484375 6.890625 26.703125 6.890625 
Q 35.15625 6.890625 40.078125 11.328125 
Q 45.015625 15.765625 45.015625 23.390625 
Q 45.015625 31 40.078125 35.4375 
Q 35.15625 39.890625 26.703125 39.890625 
Q 22.75 39.890625 18.8125 39.015625 
Q 14.890625 38.140625 10.796875 36.28125 
z
" id="DejaVuSans-53"/>
      </defs>
      <g transform="translate(89.807144 322.182437)scale(0.1 -0.1)">
       <use xlink:href="#DejaVuSans-50"/>
       <use x="63.623047" xlink:href="#DejaVuSans-46"/>
       <use x="95.410156" xlink:href="#DejaVuSans-53"/>
      </g>
     </g>
    </g>
    <g id="xtick_3">
     <g id="line2d_5">
      <path clip-path="url(#p09f084dad6)" d="M 137.917413 307.584 
L 137.917413 41.472 
" style="fill:none;stroke:#b0b0b0;stroke-linecap:square;stroke-width:0.8;"/>
     </g>
     <g id="line2d_6">
      <g>
       <use style="stroke:#000000;stroke-width:0.8;" x="137.917413" xlink:href="#ma00e499952" y="307.584"/>
      </g>
     </g>
     <g id="text_3">
      <!-- 5.0 -->
      <g transform="translate(129.965851 322.182437)scale(0.1 -0.1)">
       <use xlink:href="#DejaVuSans-53"/>
       <use x="63.623047" xlink:href="#DejaVuSans-46"/>
       <use x="95.410156" xlink:href="#DejaVuSans-48"/>
      </g>
     </g>
    </g>
    <g id="xtick_4">
     <g id="line2d_7">
      <path clip-path="url(#p09f084dad6)" d="M 178.07612 307.584 
L 178.07612 41.472 
" style="fill:none;stroke:#b0b0b0;stroke-linecap:square;stroke-width:0.8;"/>
     </g>
     <g id="line2d_8">
      <g>
       <use style="stroke:#000000;stroke-width:0.8;" x="178.07612" xlink:href="#ma00e499952" y="307.584"/>
      </g>
     </g>
     <g id="text_4">
      <!-- 7.5 -->
      <defs>
       <path d="M 8.203125 72.90625 
L 55.078125 72.90625 
L 55.078125 68.703125 
L 28.609375 0 
L 18.3125 0 
L 43.21875 64.59375 
L 8.203125 64.59375 
z
" id="DejaVuSans-55"/>
      </defs>
      <g transform="translate(170.124558 322.182437)scale(0.1 -0.1)">
       <use xlink:href="#DejaVuSans-55"/>
       <use x="63.623047" xlink:href="#DejaVuSans-46"/>
       <use x="95.410156" xlink:href="#DejaVuSans-53"/>
      </g>
     </g>
    </g>
    <g id="xtick_5">
     <g id="line2d_9">
      <path clip-path="url(#p09f084dad6)" d="M 218.234827 307.584 
L 218.234827 41.472 
" style="fill:none;stroke:#b0b0b0;stroke-linecap:square;stroke-width:0.8;"/>
     </g>
     <g id="line2d_10">
      <g>
       <use style="stroke:#000000;stroke-width:0.8;" x="218.234827" xlink:href="#ma00e499952" y="307.584"/>
      </g>
     </g>
     <g id="text_5">
      <!-- 10.0 -->
      <defs>
       <path d="M 12.40625 8.296875 
L 28.515625 8.296875 
L 28.515625 63.921875 
L 10.984375 60.40625 
L 10.984375 69.390625 
L 28.421875 72.90625 
L 38.28125 72.90625 
L 38.28125 8.296875 
L 54.390625 8.296875 
L 54.390625 0 
L 12.40625 0 
z
" id="DejaVuSans-49"/>
      </defs>
      <g transform="translate(207.102014 322.182437)scale(0.1 -0.1)">
       <use xlink:href="#DejaVuSans-49"/>
       <use x="63.623047" xlink:href="#DejaVuSans-48"/>
       <use x="127.246094" xlink:href="#DejaVuSans-46"/>
       <use x="159.033203" xlink:href="#DejaVuSans-48"/>
      </g>
     </g>
    </g>
    <g id="xtick_6">
     <g id="line2d_11">
      <path clip-path="url(#p09f084dad6)" d="M 258.393534 307.584 
L 258.393534 41.472 
" style="fill:none;stroke:#b0b0b0;stroke-linecap:square;stroke-width:0.8;"/>
     </g>
     <g id="line2d_12">
      <g>
       <use style="stroke:#000000;stroke-width:0.8;" x="258.393534" xlink:href="#ma00e499952" y="307.584"/>
      </g>
     </g>
     <g id="text_6">
      <!-- 12.5 -->
      <g transform="translate(247.260721 322.182437)scale(0.1 -0.1)">
       <use xlink:href="#DejaVuSans-49"/>
       <use x="63.623047" xlink:href="#DejaVuSans-50"/>
       <use x="127.246094" xlink:href="#DejaVuSans-46"/>
       <use x="159.033203" xlink:href="#DejaVuSans-53"/>
      </g>
     </g>
    </g>
    <g id="xtick_7">
     <g id="line2d_13">
      <path clip-path="url(#p09f084dad6)" d="M 298.55224 307.584 
L 298.55224 41.472 
" style="fill:none;stroke:#b0b0b0;stroke-linecap:square;stroke-width:0.8;"/>
     </g>
     <g id="line2d_14">
      <g>
       <use style="stroke:#000000;stroke-width:0.8;" x="298.55224" xlink:href="#ma00e499952" y="307.584"/>
      </g>
     </g>
     <g id="text_7">
      <!-- 15.0 -->
      <g transform="translate(287.419428 322.182437)scale(0.1 -0.1)">
       <use xlink:href="#DejaVuSans-49"/>
       <use x="63.623047" xlink:href="#DejaVuSans-53"/>
       <use x="127.246094" xlink:href="#DejaVuSans-46"/>
       <use x="159.033203" xlink:href="#DejaVuSans-48"/>
      </g>
     </g>
    </g>
    <g id="xtick_8">
     <g id="line2d_15">
      <path clip-path="url(#p09f084dad6)" d="M 338.710947 307.584 
L 338.710947 41.472 
" style="fill:none;stroke:#b0b0b0;stroke-linecap:square;stroke-width:0.8;"/>
     </g>
     <g id="line2d_16">
      <g>
       <use style="stroke:#000000;stroke-width:0.8;" x="338.710947" xlink:href="#ma00e499952" y="307.584"/>
      </g>
     </g>
     <g id="text_8">
      <!-- 17.5 -->
      <g transform="translate(327.578134 322.182437)scale(0.1 -0.1)">
       <use xlink:href="#DejaVuSans-49"/>
       <use x="63.623047" xlink:href="#DejaVuSans-55"/>
       <use x="127.246094" xlink:href="#DejaVuSans-46"/>
       <use x="159.033203" xlink:href="#DejaVuSans-53"/>
      </g>
     </g>
    </g>
    <g id="xtick_9">
     <g id="line2d_17">
      <path clip-path="url(#p09f084dad6)" d="M 378.869654 307.584 
L 378.869654 41.472 
" style="fill:none;stroke:#b0b0b0;stroke-linecap:square;stroke-width:0.8;"/>
     </g>
     <g id="line2d_18">
      <g>
       <use style="stroke:#000000;stroke-width:0.8;" x="378.869654" xlink:href="#ma00e499952" y="307.584"/>
      </g>
     </g>
     <g id="text_9">
      <!-- 20.0 -->
      <g transform="translate(367.736841 322.182437)scale(0.1 -0.1)">
       <use xlink:href="#DejaVuSans-50"/>
       <use x="63.623047" xlink:href="#DejaVuSans-48"/>
       <use x="127.246094" xlink:href="#DejaVuSans-46"/>
       <use x="159.033203" xlink:href="#DejaVuSans-48"/>
      </g>
     </g>
    </g>
    <g id="text_10">
     <!-- Hours -->
     <defs>
      <path d="M 9.8125 72.90625 
L 19.671875 72.90625 
L 19.671875 43.015625 
L 55.515625 43.015625 
L 55.515625 72.90625 
L 65.375 72.90625 
L 65.375 0 
L 55.515625 0 
L 55.515625 34.71875 
L 19.671875 34.71875 
L 19.671875 0 
L 9.8125 0 
z
" id="DejaVuSans-72"/>
      <path d="M 30.609375 48.390625 
Q 23.390625 48.390625 19.1875 42.75 
Q 14.984375 37.109375 14.984375 27.296875 
Q 14.984375 17.484375 19.15625 11.84375 
Q 23.34375 6.203125 30.609375 6.203125 
Q 37.796875 6.203125 41.984375 11.859375 
Q 46.1875 17.53125 46.1875 27.296875 
Q 46.1875 37.015625 41.984375 42.703125 
Q 37.796875 48.390625 30.609375 48.390625 
z
M 30.609375 56 
Q 42.328125 56 49.015625 48.375 
Q 55.71875 40.765625 55.71875 27.296875 
Q 55.71875 13.875 49.015625 6.21875 
Q 42.328125 -1.421875 30.609375 -1.421875 
Q 18.84375 -1.421875 12.171875 6.21875 
Q 5.515625 13.875 5.515625 27.296875 
Q 5.515625 40.765625 12.171875 48.375 
Q 18.84375 56 30.609375 56 
z
" id="DejaVuSans-111"/>
      <path d="M 8.5 21.578125 
L 8.5 54.6875 
L 17.484375 54.6875 
L 17.484375 21.921875 
Q 17.484375 14.15625 20.5 10.265625 
Q 23.53125 6.390625 29.59375 6.390625 
Q 36.859375 6.390625 41.078125 11.03125 
Q 45.3125 15.671875 45.3125 23.6875 
L 45.3125 54.6875 
L 54.296875 54.6875 
L 54.296875 0 
L 45.3125 0 
L 45.3125 8.40625 
Q 42.046875 3.421875 37.71875 1 
Q 33.40625 -1.421875 27.6875 -1.421875 
Q 18.265625 -1.421875 13.375 4.4375 
Q 8.5 10.296875 8.5 21.578125 
z
M 31.109375 56 
z
" id="DejaVuSans-117"/>
      <path d="M 41.109375 46.296875 
Q 39.59375 47.171875 37.8125 47.578125 
Q 36.03125 48 33.890625 48 
Q 26.265625 48 22.1875 43.046875 
Q 18.109375 38.09375 18.109375 28.8125 
L 18.109375 0 
L 9.078125 0 
L 9.078125 54.6875 
L 18.109375 54.6875 
L 18.109375 46.1875 
Q 20.953125 51.171875 25.484375 53.578125 
Q 30.03125 56 36.53125 56 
Q 37.453125 56 38.578125 55.875 
Q 39.703125 55.765625 41.0625 55.515625 
z
" id="DejaVuSans-114"/>
      <path d="M 44.28125 53.078125 
L 44.28125 44.578125 
Q 40.484375 46.53125 36.375 47.5 
Q 32.28125 48.484375 27.875 48.484375 
Q 21.1875 48.484375 17.84375 46.4375 
Q 14.5 44.390625 14.5 40.28125 
Q 14.5 37.15625 16.890625 35.375 
Q 19.28125 33.59375 26.515625 31.984375 
L 29.59375 31.296875 
Q 39.15625 29.25 43.1875 25.515625 
Q 47.21875 21.78125 47.21875 15.09375 
Q 47.21875 7.46875 41.1875 3.015625 
Q 35.15625 -1.421875 24.609375 -1.421875 
Q 20.21875 -1.421875 15.453125 -0.5625 
Q 10.6875 0.296875 5.421875 2 
L 5.421875 11.28125 
Q 10.40625 8.6875 15.234375 7.390625 
Q 20.0625 6.109375 24.8125 6.109375 
Q 31.15625 6.109375 34.5625 8.28125 
Q 37.984375 10.453125 37.984375 14.40625 
Q 37.984375 18.0625 35.515625 20.015625 
Q 33.0625 21.96875 24.703125 23.78125 
L 21.578125 24.515625 
Q 13.234375 26.265625 9.515625 29.90625 
Q 5.8125 33.546875 5.8125 39.890625 
Q 5.8125 47.609375 11.28125 51.796875 
Q 16.75 56 26.8125 56 
Q 31.78125 56 36.171875 55.265625 
Q 40.578125 54.546875 44.28125 53.078125 
z
" id="DejaVuSans-115"/>
     </defs>
     <g transform="translate(221.511562 335.860562)scale(0.1 -0.1)">
      <use xlink:href="#DejaVuSans-72"/>
      <use x="75.195312" xlink:href="#DejaVuSans-111"/>
      <use x="136.376953" xlink:href="#DejaVuSans-117"/>
      <use x="199.755859" xlink:href="#DejaVuSans-114"/>
      <use x="240.869141" xlink:href="#DejaVuSans-115"/>
     </g>
    </g>
   </g>
   <g id="matplotlib.axis_2">
    <g id="ytick_1">
     <g id="line2d_19">
      <path clip-path="url(#p09f084dad6)" d="M 57.6 295.216191 
L 414.72 295.216191 
" style="fill:none;stroke:#b0b0b0;stroke-linecap:square;stroke-width:0.8;"/>
     </g>
     <g id="line2d_20">
      <defs>
       <path d="M 0 0 
L -3.5 0 
" id="m5ec43f3c67" style="stroke:#000000;stroke-width:0.8;"/>
      </defs>
      <g>
       <use style="stroke:#000000;stroke-width:0.8;" x="57.6" xlink:href="#m5ec43f3c67" y="295.216191"/>
      </g>
     </g>
     <g id="text_11">
      <!-- 0 -->
      <g transform="translate(44.2375 299.015409)scale(0.1 -0.1)">
       <use xlink:href="#DejaVuSans-48"/>
      </g>
     </g>
    </g>
    <g id="ytick_2">
     <g id="line2d_21">
      <path clip-path="url(#p09f084dad6)" d="M 57.6 263.161264 
L 414.72 263.161264 
" style="fill:none;stroke:#b0b0b0;stroke-linecap:square;stroke-width:0.8;"/>
     </g>
     <g id="line2d_22">
      <g>
       <use style="stroke:#000000;stroke-width:0.8;" x="57.6" xlink:href="#m5ec43f3c67" y="263.161264"/>
      </g>
     </g>
     <g id="text_12">
      <!-- 250 -->
      <g transform="translate(31.5125 266.960483)scale(0.1 -0.1)">
       <use xlink:href="#DejaVuSans-50"/>
       <use x="63.623047" xlink:href="#DejaVuSans-53"/>
       <use x="127.246094" xlink:href="#DejaVuSans-48"/>
      </g>
     </g>
    </g>
    <g id="ytick_3">
     <g id="line2d_23">
      <path clip-path="url(#p09f084dad6)" d="M 57.6 231.106338 
L 414.72 231.106338 
" style="fill:none;stroke:#b0b0b0;stroke-linecap:square;stroke-width:0.8;"/>
     </g>
     <g id="line2d_24">
      <g>
       <use style="stroke:#000000;stroke-width:0.8;" x="57.6" xlink:href="#m5ec43f3c67" y="231.106338"/>
      </g>
     </g>
     <g id="text_13">
      <!-- 500 -->
      <g transform="translate(31.5125 234.905557)scale(0.1 -0.1)">
       <use xlink:href="#DejaVuSans-53"/>
       <use x="63.623047" xlink:href="#DejaVuSans-48"/>
       <use x="127.246094" xlink:href="#DejaVuSans-48"/>
      </g>
     </g>
    </g>
    <g id="ytick_4">
     <g id="line2d_25">
      <path clip-path="url(#p09f084dad6)" d="M 57.6 199.051412 
L 414.72 199.051412 
" style="fill:none;stroke:#b0b0b0;stroke-linecap:square;stroke-width:0.8;"/>
     </g>
     <g id="line2d_26">
      <g>
       <use style="stroke:#000000;stroke-width:0.8;" x="57.6" xlink:href="#m5ec43f3c67" y="199.051412"/>
      </g>
     </g>
     <g id="text_14">
      <!-- 750 -->
      <g transform="translate(31.5125 202.85063)scale(0.1 -0.1)">
       <use xlink:href="#DejaVuSans-55"/>
       <use x="63.623047" xlink:href="#DejaVuSans-53"/>
       <use x="127.246094" xlink:href="#DejaVuSans-48"/>
      </g>
     </g>
    </g>
    <g id="ytick_5">
     <g id="line2d_27">
      <path clip-path="url(#p09f084dad6)" d="M 57.6 166.996485 
L 414.72 166.996485 
" style="fill:none;stroke:#b0b0b0;stroke-linecap:square;stroke-width:0.8;"/>
     </g>
     <g id="line2d_28">
      <g>
       <use style="stroke:#000000;stroke-width:0.8;" x="57.6" xlink:href="#m5ec43f3c67" y="166.996485"/>
      </g>
     </g>
     <g id="text_15">
      <!-- 1000 -->
      <g transform="translate(25.15 170.795704)scale(0.1 -0.1)">
       <use xlink:href="#DejaVuSans-49"/>
       <use x="63.623047" xlink:href="#DejaVuSans-48"/>
       <use x="127.246094" xlink:href="#DejaVuSans-48"/>
       <use x="190.869141" xlink:href="#DejaVuSans-48"/>
      </g>
     </g>
    </g>
    <g id="ytick_6">
     <g id="line2d_29">
      <path clip-path="url(#p09f084dad6)" d="M 57.6 134.941559 
L 414.72 134.941559 
" style="fill:none;stroke:#b0b0b0;stroke-linecap:square;stroke-width:0.8;"/>
     </g>
     <g id="line2d_30">
      <g>
       <use style="stroke:#000000;stroke-width:0.8;" x="57.6" xlink:href="#m5ec43f3c67" y="134.941559"/>
      </g>
     </g>
     <g id="text_16">
      <!-- 1250 -->
      <g transform="translate(25.15 138.740778)scale(0.1 -0.1)">
       <use xlink:href="#DejaVuSans-49"/>
       <use x="63.623047" xlink:href="#DejaVuSans-50"/>
       <use x="127.246094" xlink:href="#DejaVuSans-53"/>
       <use x="190.869141" xlink:href="#DejaVuSans-48"/>
      </g>
     </g>
    </g>
    <g id="ytick_7">
     <g id="line2d_31">
      <path clip-path="url(#p09f084dad6)" d="M 57.6 102.886633 
L 414.72 102.886633 
" style="fill:none;stroke:#b0b0b0;stroke-linecap:square;stroke-width:0.8;"/>
     </g>
     <g id="line2d_32">
      <g>
       <use style="stroke:#000000;stroke-width:0.8;" x="57.6" xlink:href="#m5ec43f3c67" y="102.886633"/>
      </g>
     </g>
     <g id="text_17">
      <!-- 1500 -->
      <g transform="translate(25.15 106.685852)scale(0.1 -0.1)">
       <use xlink:href="#DejaVuSans-49"/>
       <use x="63.623047" xlink:href="#DejaVuSans-53"/>
       <use x="127.246094" xlink:href="#DejaVuSans-48"/>
       <use x="190.869141" xlink:href="#DejaVuSans-48"/>
      </g>
     </g>
    </g>
    <g id="ytick_8">
     <g id="line2d_33">
      <path clip-path="url(#p09f084dad6)" d="M 57.6 70.831706 
L 414.72 70.831706 
" style="fill:none;stroke:#b0b0b0;stroke-linecap:square;stroke-width:0.8;"/>
     </g>
     <g id="line2d_34">
      <g>
       <use style="stroke:#000000;stroke-width:0.8;" x="57.6" xlink:href="#m5ec43f3c67" y="70.831706"/>
      </g>
     </g>
     <g id="text_18">
      <!-- 1750 -->
      <g transform="translate(25.15 74.630925)scale(0.1 -0.1)">
       <use xlink:href="#DejaVuSans-49"/>
       <use x="63.623047" xlink:href="#DejaVuSans-55"/>
       <use x="127.246094" xlink:href="#DejaVuSans-53"/>
       <use x="190.869141" xlink:href="#DejaVuSans-48"/>
      </g>
     </g>
    </g>
    <g id="text_19">
     <!-- Mean train reward -->
     <defs>
      <path d="M 9.8125 72.90625 
L 24.515625 72.90625 
L 43.109375 23.296875 
L 61.8125 72.90625 
L 76.515625 72.90625 
L 76.515625 0 
L 66.890625 0 
L 66.890625 64.015625 
L 48.09375 14.015625 
L 38.1875 14.015625 
L 19.390625 64.015625 
L 19.390625 0 
L 9.8125 0 
z
" id="DejaVuSans-77"/>
      <path d="M 56.203125 29.59375 
L 56.203125 25.203125 
L 14.890625 25.203125 
Q 15.484375 15.921875 20.484375 11.0625 
Q 25.484375 6.203125 34.421875 6.203125 
Q 39.59375 6.203125 44.453125 7.46875 
Q 49.3125 8.734375 54.109375 11.28125 
L 54.109375 2.78125 
Q 49.265625 0.734375 44.1875 -0.34375 
Q 39.109375 -1.421875 33.890625 -1.421875 
Q 20.796875 -1.421875 13.15625 6.1875 
Q 5.515625 13.8125 5.515625 26.8125 
Q 5.515625 40.234375 12.765625 48.109375 
Q 20.015625 56 32.328125 56 
Q 43.359375 56 49.78125 48.890625 
Q 56.203125 41.796875 56.203125 29.59375 
z
M 47.21875 32.234375 
Q 47.125 39.59375 43.09375 43.984375 
Q 39.0625 48.390625 32.421875 48.390625 
Q 24.90625 48.390625 20.390625 44.140625 
Q 15.875 39.890625 15.1875 32.171875 
z
" id="DejaVuSans-101"/>
      <path d="M 34.28125 27.484375 
Q 23.390625 27.484375 19.1875 25 
Q 14.984375 22.515625 14.984375 16.5 
Q 14.984375 11.71875 18.140625 8.90625 
Q 21.296875 6.109375 26.703125 6.109375 
Q 34.1875 6.109375 38.703125 11.40625 
Q 43.21875 16.703125 43.21875 25.484375 
L 43.21875 27.484375 
z
M 52.203125 31.203125 
L 52.203125 0 
L 43.21875 0 
L 43.21875 8.296875 
Q 40.140625 3.328125 35.546875 0.953125 
Q 30.953125 -1.421875 24.3125 -1.421875 
Q 15.921875 -1.421875 10.953125 3.296875 
Q 6 8.015625 6 15.921875 
Q 6 25.140625 12.171875 29.828125 
Q 18.359375 34.515625 30.609375 34.515625 
L 43.21875 34.515625 
L 43.21875 35.40625 
Q 43.21875 41.609375 39.140625 45 
Q 35.0625 48.390625 27.6875 48.390625 
Q 23 48.390625 18.546875 47.265625 
Q 14.109375 46.140625 10.015625 43.890625 
L 10.015625 52.203125 
Q 14.9375 54.109375 19.578125 55.046875 
Q 24.21875 56 28.609375 56 
Q 40.484375 56 46.34375 49.84375 
Q 52.203125 43.703125 52.203125 31.203125 
z
" id="DejaVuSans-97"/>
      <path d="M 54.890625 33.015625 
L 54.890625 0 
L 45.90625 0 
L 45.90625 32.71875 
Q 45.90625 40.484375 42.875 44.328125 
Q 39.84375 48.1875 33.796875 48.1875 
Q 26.515625 48.1875 22.3125 43.546875 
Q 18.109375 38.921875 18.109375 30.90625 
L 18.109375 0 
L 9.078125 0 
L 9.078125 54.6875 
L 18.109375 54.6875 
L 18.109375 46.1875 
Q 21.34375 51.125 25.703125 53.5625 
Q 30.078125 56 35.796875 56 
Q 45.21875 56 50.046875 50.171875 
Q 54.890625 44.34375 54.890625 33.015625 
z
" id="DejaVuSans-110"/>
      <path id="DejaVuSans-32"/>
      <path d="M 18.3125 70.21875 
L 18.3125 54.6875 
L 36.8125 54.6875 
L 36.8125 47.703125 
L 18.3125 47.703125 
L 18.3125 18.015625 
Q 18.3125 11.328125 20.140625 9.421875 
Q 21.96875 7.515625 27.59375 7.515625 
L 36.8125 7.515625 
L 36.8125 0 
L 27.59375 0 
Q 17.1875 0 13.234375 3.875 
Q 9.28125 7.765625 9.28125 18.015625 
L 9.28125 47.703125 
L 2.6875 47.703125 
L 2.6875 54.6875 
L 9.28125 54.6875 
L 9.28125 70.21875 
z
" id="DejaVuSans-116"/>
      <path d="M 9.421875 54.6875 
L 18.40625 54.6875 
L 18.40625 0 
L 9.421875 0 
z
M 9.421875 75.984375 
L 18.40625 75.984375 
L 18.40625 64.59375 
L 9.421875 64.59375 
z
" id="DejaVuSans-105"/>
      <path d="M 4.203125 54.6875 
L 13.1875 54.6875 
L 24.421875 12.015625 
L 35.59375 54.6875 
L 46.1875 54.6875 
L 57.421875 12.015625 
L 68.609375 54.6875 
L 77.59375 54.6875 
L 63.28125 0 
L 52.6875 0 
L 40.921875 44.828125 
L 29.109375 0 
L 18.5 0 
z
" id="DejaVuSans-119"/>
      <path d="M 45.40625 46.390625 
L 45.40625 75.984375 
L 54.390625 75.984375 
L 54.390625 0 
L 45.40625 0 
L 45.40625 8.203125 
Q 42.578125 3.328125 38.25 0.953125 
Q 33.9375 -1.421875 27.875 -1.421875 
Q 17.96875 -1.421875 11.734375 6.484375 
Q 5.515625 14.40625 5.515625 27.296875 
Q 5.515625 40.1875 11.734375 48.09375 
Q 17.96875 56 27.875 56 
Q 33.9375 56 38.25 53.625 
Q 42.578125 51.265625 45.40625 46.390625 
z
M 14.796875 27.296875 
Q 14.796875 17.390625 18.875 11.75 
Q 22.953125 6.109375 30.078125 6.109375 
Q 37.203125 6.109375 41.296875 11.75 
Q 45.40625 17.390625 45.40625 27.296875 
Q 45.40625 37.203125 41.296875 42.84375 
Q 37.203125 48.484375 30.078125 48.484375 
Q 22.953125 48.484375 18.875 42.84375 
Q 14.796875 37.203125 14.796875 27.296875 
z
" id="DejaVuSans-100"/>
     </defs>
     <g transform="translate(19.070312 220.479562)rotate(-90)scale(0.1 -0.1)">
      <use xlink:href="#DejaVuSans-77"/>
      <use x="86.279297" xlink:href="#DejaVuSans-101"/>
      <use x="147.802734" xlink:href="#DejaVuSans-97"/>
      <use x="209.082031" xlink:href="#DejaVuSans-110"/>
      <use x="272.460938" xlink:href="#DejaVuSans-32"/>
      <use x="304.248047" xlink:href="#DejaVuSans-116"/>
      <use x="343.457031" xlink:href="#DejaVuSans-114"/>
      <use x="384.570312" xlink:href="#DejaVuSans-97"/>
      <use x="445.849609" xlink:href="#DejaVuSans-105"/>
      <use x="473.632812" xlink:href="#DejaVuSans-110"/>
      <use x="537.011719" xlink:href="#DejaVuSans-32"/>
      <use x="568.798828" xlink:href="#DejaVuSans-114"/>
      <use x="609.880859" xlink:href="#DejaVuSans-101"/>
      <use x="671.404297" xlink:href="#DejaVuSans-119"/>
      <use x="753.191406" xlink:href="#DejaVuSans-97"/>
      <use x="814.470703" xlink:href="#DejaVuSans-114"/>
      <use x="855.568359" xlink:href="#DejaVuSans-100"/>
     </g>
    </g>
   </g>
   <g id="line2d_35">
    <path clip-path="url(#p09f084dad6)" d="M 57.6 294.693938 
L 57.632645 294.550058 
L 57.678628 295.13768 
L 57.714391 295.488 
L 57.743495 294.934881 
L 57.8676 293.920992 
L 57.889317 293.955708 
L 58.046207 294.179743 
L 58.104453 294.028922 
L 58.213204 293.812357 
L 58.224721 293.820103 
L 58.402317 293.743554 
L 58.403033 293.736445 
L 58.554917 293.544058 
L 58.727904 293.373109 
L 58.604695 293.625887 
L 58.736273 293.399225 
L 58.770599 293.438412 
L 58.812715 293.346088 
L 58.837095 293.365975 
L 58.983723 293.003696 
L 59.018062 293.092462 
L 59.068399 293.198424 
L 59.127822 293.107869 
L 59.26452 292.801823 
L 59.281632 292.827344 
L 59.372943 292.961066 
L 59.420572 292.914427 
L 59.537067 292.81999 
L 59.440858 292.929411 
L 59.538647 292.827752 
L 59.915932 292.107131 
L 59.925914 292.190687 
L 59.985085 291.972948 
L 60.155127 291.654725 
L 60.187283 291.501613 
L 60.260098 291.677827 
L 60.280456 291.644121 
L 60.314164 291.771073 
L 60.359299 291.814795 
L 60.421463 291.74519 
L 60.433276 291.727365 
L 60.662422 291.253619 
L 60.725892 291.309493 
L 60.74434 291.233551 
L 60.855245 290.988384 
L 60.897966 291.019523 
L 60.997256 291.078174 
L 61.169063 290.484512 
L 61.183983 290.541253 
L 61.243396 290.66021 
L 61.294109 290.577881 
L 61.594266 289.874401 
L 61.729236 289.717115 
L 61.73407 289.758578 
L 61.893636 289.356351 
L 62.056422 288.687237 
L 62.097126 288.914947 
L 62.463358 290.092638 
L 62.955979 288.98541 
L 63.113351 289.462855 
L 63.168958 289.346423 
L 63.202175 289.099529 
L 63.272269 289.168953 
L 63.294283 289.180005 
L 63.397913 289.76202 
L 63.447145 289.519084 
L 63.509195 289.310869 
L 63.514408 289.320108 
L 63.617463 289.183015 
L 63.623187 289.214677 
L 63.680588 289.053942 
L 63.764989 289.098659 
L 63.909287 289.222406 
L 63.945691 289.155387 
L 64.365342 287.750283 
L 64.541796 287.314252 
L 64.623779 287.56026 
L 64.674606 287.412339 
L 64.817521 287.316637 
L 64.972042 287.0715 
L 65.139945 287.133379 
L 65.156241 287.059052 
L 65.31898 286.826513 
L 65.569409 287.20759 
L 65.615791 287.283711 
L 65.627513 287.15108 
L 65.732292 287.067563 
L 65.937774 286.593597 
L 66.017922 286.59751 
L 66.138984 286.771687 
L 66.261584 286.837312 
L 66.471448 286.085921 
L 66.930498 284.93894 
L 66.990815 285.162305 
L 67.064191 285.126789 
L 67.375339 284.78131 
L 67.418569 284.988847 
L 67.463172 284.835365 
L 67.500683 284.624476 
L 67.520986 284.675573 
L 67.824909 285.509513 
L 68.008954 285.61977 
L 68.028278 285.524648 
L 68.346663 284.960758 
L 68.355543 285.009724 
L 68.867001 285.255084 
L 68.989775 284.929649 
L 69.041191 285.057904 
L 70.170988 286.787454 
L 70.273018 286.646491 
L 70.463929 286.053577 
L 70.4753 286.129409 
L 70.602975 286.027675 
L 70.695716 286.317873 
L 70.735671 286.285353 
L 70.823118 286.232577 
L 70.830887 286.359809 
L 70.860948 286.324466 
L 71.129105 285.780374 
L 71.163991 285.916312 
L 71.525383 285.262778 
L 71.535803 285.388249 
L 71.591251 285.200953 
L 71.74841 285.367067 
L 71.861268 285.67082 
L 72.051077 285.654433 
L 72.645861 283.30763 
L 72.869603 283.285702 
L 72.994231 283.773555 
L 73.036439 283.680593 
L 73.222271 283.395301 
L 73.551973 282.052801 
L 73.797011 281.389536 
L 73.921783 281.045321 
L 73.980539 281.229505 
L 74.269741 279.730916 
L 74.296474 279.910637 
L 75.193273 276.220452 
L 75.305313 274.796569 
L 75.893688 271.99018 
L 77.636804 258.941776 
L 77.663423 259.008324 
L 79.678804 239.066822 
L 80.182257 234.375937 
L 81.828502 229.444686 
L 82.334481 234.630083 
L 83.189145 235.719598 
L 83.377718 234.219692 
L 83.754721 233.754164 
L 84.211017 234.992203 
L 84.372162 233.518365 
L 85.54858 230.987924 
L 86.007485 232.082385 
L 86.354667 232.115031 
L 86.616877 230.695439 
L 86.868773 230.790993 
L 87.419069 231.118601 
L 87.593277 230.459683 
L 87.779454 228.857117 
L 88.837368 222.609263 
L 89.07304 220.201974 
L 89.112797 221.209982 
L 91.666806 212.271439 
L 92.425872 212.421517 
L 92.46551 213.005627 
L 92.964247 211.624518 
L 93.102646 210.65013 
L 93.596067 212.002924 
L 93.811395 211.822897 
L 94.266635 213.139325 
L 95.435969 211.61382 
L 95.723378 216.137979 
L 96.61873 218.23155 
L 96.953353 218.534061 
L 97.436021 218.176902 
L 97.780743 220.318611 
L 98.055431 220.09587 
L 98.456456 221.308706 
L 99.660998 220.638738 
L 99.82519 222.276294 
L 99.863674 221.485251 
L 99.995824 221.247695 
L 101.149154 215.801527 
L 102.48956 217.727006 
L 102.60523 218.65177 
L 103.342978 219.561039 
L 104.038178 218.490596 
L 104.153696 218.557116 
L 104.800517 220.050691 
L 105.05642 221.181308 
L 105.941378 215.263308 
L 106.174523 215.345402 
L 106.703071 214.029467 
L 106.780431 214.269175 
L 106.895801 214.039594 
L 107.655178 215.331589 
L 107.720606 215.153604 
L 107.912848 212.909274 
L 108.314859 209.630883 
L 108.746662 207.440427 
L 109.864559 209.004709 
L 110.070391 210.292854 
L 110.278627 208.116601 
L 110.433186 208.928508 
L 111.097901 209.768424 
L 112.000886 211.375482 
L 112.471804 213.575134 
L 112.878867 212.89626 
L 113.634663 209.50696 
L 114.226196 209.420797 
L 115.271783 209.802576 
L 115.310256 208.809233 
L 115.431382 209.882878 
L 117.406748 207.091665 
L 117.70851 208.126031 
L 117.962163 206.850612 
L 119.018415 199.320459 
L 119.807436 197.380048 
L 120.086197 199.951696 
L 120.65123 199.839426 
L 120.728087 198.846733 
L 120.922009 200.894734 
L 122.2011 202.111945 
L 122.604183 203.649454 
L 122.816531 202.011045 
L 124.440888 198.536193 
L 124.529708 198.08294 
L 125.243637 198.761282 
L 125.428943 197.806724 
L 125.445248 198.332813 
L 126.443946 193.891406 
L 126.690041 193.735326 
L 128.88712 193.612663 
L 129.164691 194.421173 
L 129.451066 193.923821 
L 129.797456 195.029747 
L 129.912863 195.034662 
L 130.718352 194.830852 
L 131.293755 201.910342 
L 131.667348 201.02268 
L 131.744207 198.876307 
L 131.744981 200.029541 
L 132.624725 206.037609 
L 133.387841 207.501211 
L 133.661635 209.148025 
L 133.966057 208.181134 
L 134.261696 206.455583 
L 136.108208 202.332041 
L 136.346787 205.026157 
L 137.454925 201.420228 
L 138.455656 199.652371 
L 138.60469 198.190069 
L 139.973093 189.944346 
L 140.749995 189.11944 
L 141.129091 189.372616 
L 142.909859 195.975907 
L 143.34951 196.596651 
L 143.731347 196.219113 
L 144.330217 195.854684 
L 145.667577 188.162652 
L 145.975151 184.945718 
L 146.561654 183.385451 
L 147.046023 180.054063 
L 147.788119 180.419384 
L 147.950968 179.963525 
L 147.989444 179.194066 
L 148.562989 178.102422 
L 148.793536 177.145031 
L 149.170304 178.329929 
L 149.913339 184.832994 
L 150.487085 188.779999 
L 151.151926 190.167955 
L 152.177417 203.481197 
L 152.257511 203.470758 
L 152.584471 199.892439 
L 153.080995 200.557586 
L 153.209761 201.585684 
L 153.441576 202.161021 
L 153.622442 201.007146 
L 154.939525 190.112258 
L 155.155312 190.143468 
L 155.772623 182.959737 
L 156.539419 181.436846 
L 157.431017 182.247399 
L 157.507892 181.709321 
L 157.546344 182.004757 
L 157.613202 182.541638 
L 157.784102 186.232313 
L 158.364242 191.058027 
L 159.169364 202.971676 
L 160.28401 205.529199 
L 160.43745 204.318695 
L 160.463118 204.622176 
L 161.340983 203.455325 
L 161.950173 196.523079 
L 162.508181 192.602526 
L 162.546744 191.410733 
L 162.955746 192.039295 
L 163.982713 190.386596 
L 164.343439 186.544896 
L 164.801295 185.194558 
L 164.940384 186.608966 
L 165.132722 185.740024 
L 165.429997 185.525266 
L 165.759844 185.570695 
L 166.011614 185.003348 
L 166.024439 185.922759 
L 166.55943 188.4106 
L 167.655999 184.678307 
L 168.021818 184.33446 
L 169.222655 187.407968 
L 169.565136 186.31292 
L 169.603579 185.214233 
L 169.788684 186.191838 
L 170.337164 183.210667 
L 170.545285 185.180206 
L 171.626842 185.137155 
L 171.891238 186.571011 
L 172.097849 185.898796 
L 172.474934 185.467784 
L 172.810869 182.690072 
L 173.276532 183.594896 
L 173.656471 182.217833 
L 174.488901 189.015402 
L 174.566715 190.611403 
L 174.81613 191.97524 
L 175.760162 191.811177 
L 175.880378 192.96816 
L 176.187172 193.919673 
L 176.701668 192.325919 
L 176.896442 192.938069 
L 176.973766 194.194527 
L 178.088808 192.658614 
L 178.246329 193.915267 
L 178.472704 193.752676 
L 178.55036 195.13211 
L 178.909146 195.941826 
L 179.110249 194.526885 
L 179.55044 195.944001 
L 179.921194 194.597428 
L 180.498732 193.572766 
L 181.372927 191.088118 
L 181.858303 193.640233 
L 182.046818 198.165237 
L 182.592955 200.18055 
L 183.358351 211.855539 
L 184.231157 215.996721 
L 186.33033 203.757961 
L 186.44578 201.769647 
L 186.754273 199.810478 
L 187.190093 204.299068 
L 187.851417 207.737608 
L 188.224926 212.759823 
L 188.688143 216.79764 
L 189.353752 215.933284 
L 189.656037 214.616121 
L 190.1054 209.436253 
L 191.200644 203.555379 
L 191.479403 201.261722 
L 192.7647 196.101044 
L 193.461145 196.753302 
L 194.040389 199.207155 
L 195.034668 199.608397 
L 195.145083 198.0752 
L 195.171744 198.092879 
L 195.411773 197.573731 
L 195.452291 198.678804 
L 195.97589 199.336791 
L 196.307695 198.996474 
L 196.638398 199.181486 
L 197.127856 198.827841 
L 197.705162 196.751643 
L 198.928748 201.499254 
L 199.36744 201.746631 
L 199.44449 201.639111 
L 199.693788 207.191219 
L 200.24469 210.992028 
L 200.578943 211.561097 
L 201.147669 209.994608 
L 201.803852 207.392931 
L 203.074398 198.061465 
L 203.426422 194.439916 
L 203.997529 190.874009 
L 204.15521 193.377494 
L 204.477183 191.008873 
L 205.320489 194.539227 
L 206.12292 195.598198 
L 206.787791 197.504034 
L 207.597632 202.5126 
L 207.734937 201.715915 
L 208.514182 201.122453 
L 208.802225 197.940344 
L 208.973264 201.426059 
L 209.722236 206.098448 
L 210.205309 203.240167 
L 210.58769 198.88173 
L 210.933487 201.253662 
L 211.421696 199.344836 
L 211.534682 197.084784 
L 211.881328 199.86396 
L 212.832791 202.990787 
L 213.136038 203.546012 
L 214.805661 198.896873 
L 214.951056 197.269374 
L 216.55385 185.475274 
L 216.978205 185.854744 
L 217.539029 191.813517 
L 217.817516 190.702027 
L 218.087387 191.267519 
L 218.872211 189.799598 
L 219.376341 192.549294 
L 220.093359 192.689612 
L 220.202917 192.133127 
L 220.808765 187.175116 
L 221.343964 185.599745 
L 221.384774 187.036895 
L 221.66171 190.215435 
L 223.616618 195.324189 
L 224.997603 189.616722 
L 225.648445 188.20143 
L 225.766747 187.455464 
L 226.645101 183.499396 
L 228.335016 181.886625 
L 229.147324 178.247044 
L 229.412077 177.705812 
L 229.475973 177.06127 
L 230.157451 183.223681 
L 230.839957 187.726929 
L 231.933052 188.113521 
L 233.592045 187.379545 
L 234.071307 189.380645 
L 234.524872 189.904762 
L 236.137885 204.614812 
L 236.711378 203.380807 
L 237.961904 204.472263 
L 238.710863 193.162344 
L 239.439725 196.833056 
L 239.632264 196.699984 
L 240.366807 199.876701 
L 240.511802 203.1195 
L 241.922137 201.523147 
L 242.110401 199.130305 
L 242.608447 196.971434 
L 244.676663 184.000818 
L 245.222811 184.395604 
L 246.605851 175.425186 
L 247.045265 174.421051 
L 247.161009 174.481827 
L 247.470679 175.377229 
L 248.015798 174.368696 
L 248.208721 177.376224 
L 248.733393 177.699998 
L 249.459484 177.651759 
L 249.96097 183.947828 
L 250.560354 184.352295 
L 250.935329 182.742122 
L 251.062484 182.933669 
L 251.529374 181.462273 
L 251.562211 181.62034 
L 251.660762 182.172028 
L 252.684414 180.799246 
L 253.640258 174.69369 
L 254.843864 174.775119 
L 255.00462 175.660495 
L 255.343348 175.925214 
L 256.457655 178.960525 
L 256.677208 178.563227 
L 258.22044 188.886643 
L 258.874228 189.235365 
L 260.535654 183.570056 
L 260.556212 183.089561 
L 261.272696 186.212091 
L 262.412411 200.763674 
L 262.905934 200.234674 
L 264.09574 192.519813 
L 265.116874 182.288939 
L 266.308134 173.593101 
L 266.75825 181.352835 
L 266.858519 180.289255 
L 267.338803 182.502117 
L 268.376096 185.594901 
L 269.010503 188.818542 
L 269.239464 192.37836 
L 269.46433 194.099199 
L 270.012803 191.611507 
L 270.17239 191.849689 
L 270.861355 193.801901 
L 271.246935 196.731256 
L 271.561301 201.005659 
L 272.455243 198.943923 
L 273.266652 198.036892 
L 273.570851 194.836698 
L 273.570851 194.836698 
" style="fill:none;stroke:#000000;stroke-linecap:square;stroke-width:0.8;"/>
   </g>
   <g id="line2d_36">
    <path clip-path="url(#p09f084dad6)" d="M 57.6 270.424243 
L 57.624084 270.236276 
L 58.52247 249.548857 
L 59.609976 241.820298 
L 59.68049 242.029391 
L 60.817931 234.53679 
L 61.30314 230.205361 
L 61.594317 230.12709 
L 61.646217 229.553685 
L 62.02521 229.121562 
L 62.285959 227.026503 
L 62.689306 225.114485 
L 63.295431 218.776633 
L 63.336457 218.726633 
L 63.53139 218.182357 
L 64.52931 214.001748 
L 64.878533 213.067279 
L 65.242377 212.541496 
L 66.09236 208.93192 
L 66.706346 207.970844 
L 67.680902 205.457678 
L 68.033463 205.09839 
L 68.246442 205.697636 
L 68.692821 205.193585 
L 69.011633 203.66232 
L 69.126157 203.846041 
L 69.922219 200.798538 
L 70.094412 201.085702 
L 70.155754 200.704353 
L 70.287908 201.236413 
L 70.600519 201.487688 
L 71.089404 199.554774 
L 71.322279 197.885046 
L 71.647274 198.009611 
L 71.771272 197.851348 
L 72.530109 201.482883 
L 72.956609 202.174607 
L 74.172757 197.887668 
L 74.210991 197.956864 
L 74.570442 198.066842 
L 74.650439 198.423108 
L 75.15538 194.857773 
L 75.560747 193.259949 
L 75.724063 193.642542 
L 75.767456 193.521342 
L 76.103765 193.106483 
L 76.202676 193.034218 
L 76.518471 193.426367 
L 76.560935 192.997116 
L 77.534767 193.104135 
L 77.969004 194.401068 
L 78.315448 191.471517 
L 79.110554 189.61223 
L 79.654842 191.687567 
L 80.196799 189.874335 
L 80.220448 189.947953 
L 80.627784 186.879915 
L 81.108146 187.662702 
L 81.643379 187.348992 
L 82.216785 185.56528 
L 83.487073 183.857165 
L 84.561283 187.643286 
L 85.458265 180.762644 
L 86.018519 178.775348 
L 86.065839 177.980486 
L 87.054879 171.649012 
L 87.251852 171.937827 
L 87.652502 170.27382 
L 88.08756 170.59962 
L 88.952056 168.849536 
L 89.294129 166.739428 
L 89.337881 167.069313 
L 90.130082 167.462276 
L 90.142132 167.344762 
L 90.814248 163.37575 
L 91.639941 160.342302 
L 91.838967 160.972382 
L 92.016413 161.954033 
L 92.916503 162.987397 
L 93.361348 165.043295 
L 94.975132 153.817262 
L 96.051076 160.791932 
L 96.072298 160.445197 
L 96.815092 158.554551 
L 97.350899 156.425074 
L 98.56241 154.468519 
L 99.418093 152.148715 
L 99.542064 153.924446 
L 99.6708 153.90413 
L 100.254327 154.691087 
L 101.186561 155.213952 
L 101.466575 153.528674 
L 102.517857 151.667109 
L 102.648819 150.33863 
L 103.079619 149.155055 
L 103.919124 147.889918 
L 104.0783 148.061305 
L 104.410615 147.912926 
L 104.472886 148.038078 
L 105.555676 142.026371 
L 105.784865 141.404571 
L 106.798599 141.481359 
L 106.885976 141.263313 
L 107.80224 138.466051 
L 108.575258 141.532431 
L 108.622635 141.723805 
L 109.147119 140.160345 
L 110.564823 138.50443 
L 111.034716 135.350228 
L 111.348122 137.352972 
L 111.837046 137.726456 
L 112.226393 136.772947 
L 112.388827 136.223161 
L 112.661531 136.239596 
L 113.814363 133.13897 
L 114.738498 131.342329 
L 114.970889 131.392352 
L 115.226663 133.186333 
L 116.081007 134.453363 
L 116.502653 128.68357 
L 117.363928 129.45148 
L 118.007032 127.019015 
L 118.248522 126.802159 
L 118.410884 126.300111 
L 118.790385 128.664319 
L 119.363755 126.982593 
L 119.8105 124.129846 
L 121.417034 129.463626 
L 122.029148 128.240984 
L 122.351372 126.161029 
L 122.714572 124.496239 
L 123.280831 125.784744 
L 123.621109 125.49265 
L 124.146228 124.475892 
L 124.510738 124.482966 
L 124.829742 124.351021 
L 125.872161 123.273832 
L 126.237792 123.454704 
L 126.293188 122.918066 
L 126.903991 119.795027 
L 127.711665 122.541014 
L 128.551402 123.738644 
L 128.570293 123.996977 
L 128.802751 123.811863 
L 128.968851 123.388732 
L 130.131945 117.79978 
L 130.650459 117.801455 
L 131.814089 125.659091 
L 132.333569 123.923179 
L 132.890018 116.157153 
L 133.950895 122.695215 
L 135.520359 120.190596 
L 135.588672 119.419728 
L 135.840244 120.049322 
L 136.388118 124.982713 
L 136.660593 124.179916 
L 137.258791 114.665128 
L 137.288235 114.81094 
L 137.452188 114.629363 
L 137.741908 115.450364 
L 138.553721 113.558873 
L 138.677436 112.490542 
L 139.258771 117.355128 
L 139.526727 117.193022 
L 139.720889 117.801173 
L 139.86637 116.767073 
L 141.705724 105.751745 
L 142.810331 111.486102 
L 142.990028 111.135157 
L 143.625633 107.049625 
L 144.436721 108.05153 
L 144.486142 109.135434 
L 145.323312 113.141423 
L 145.538594 109.414725 
L 146.032241 106.169978 
L 146.30744 108.841665 
L 146.949937 108.144752 
L 147.074532 107.445272 
L 147.279829 109.680822 
L 147.406325 109.211016 
L 147.729522 107.380849 
L 148.057586 106.904361 
L 148.062453 107.142691 
L 148.509855 107.966306 
L 148.695518 107.358358 
L 148.754964 107.492228 
L 149.180275 113.08312 
L 149.421684 113.202371 
L 149.450445 113.751375 
L 149.614049 113.255447 
L 149.66415 112.176113 
L 150.036444 108.833792 
L 150.128507 110.091181 
L 150.16735 110.063665 
L 150.790113 108.322948 
L 150.853662 107.679032 
L 151.820345 105.093978 
L 153.018822 109.000437 
L 153.388191 107.505234 
L 153.53127 108.074115 
L 153.861274 106.817712 
L 153.975964 106.693343 
L 154.098466 106.092329 
L 154.324438 105.618595 
L 154.722205 105.359119 
L 154.894212 104.943657 
L 154.987102 103.245858 
L 155.555964 101.412764 
L 156.403804 105.098798 
L 157.123513 112.328765 
L 157.156538 111.972796 
L 157.456222 107.950278 
L 157.670483 101.30367 
L 158.395154 97.556719 
L 158.583177 97.823739 
L 158.729706 97.392015 
L 159.06872 96.597528 
L 159.705873 99.113746 
L 160.423118 98.066858 
L 160.793357 99.58341 
L 161.508229 99.99053 
L 162.386934 99.655283 
L 162.581901 101.114158 
L 163.040514 105.782673 
L 163.416164 100.156361 
L 163.924649 100.727934 
L 164.054223 102.482174 
L 164.398137 104.722294 
L 164.988393 102.927719 
L 165.299557 103.055109 
L 165.829715 105.912208 
L 166.081756 104.604357 
L 166.408879 101.834627 
L 166.643754 98.634519 
L 167.462383 99.483849 
L 167.867686 97.57439 
L 167.896706 98.008915 
L 168.043001 97.683718 
L 168.386701 99.679246 
L 168.63319 99.662812 
L 168.932479 96.833495 
L 169.292283 94.868002 
L 169.491293 95.580144 
L 169.931793 100.121645 
L 170.43603 99.823619 
L 170.924632 94.426934 
L 171.445973 98.936301 
L 171.994526 96.8347 
L 172.137634 95.153742 
L 172.289133 95.107272 
L 172.907935 94.161761 
L 173.985297 90.114106 
L 174.45262 91.160493 
L 174.505919 91.677614 
L 174.73135 91.266127 
L 175.281484 96.650463 
L 175.670592 95.884463 
L 177.066251 89.189506 
L 177.10877 88.383485 
L 177.409515 86.622373 
L 177.453533 87.057666 
L 178.15366 88.387069 
L 178.210641 88.302549 
L 178.401338 87.340745 
L 178.987317 90.459667 
L 179.26288 94.169039 
L 180.012394 88.000516 
L 180.461309 86.824282 
L 180.829078 88.304255 
L 181.133233 90.596042 
L 181.266221 90.383881 
L 181.784611 86.256371 
L 182.247677 86.932279 
L 182.409294 86.244867 
L 183.612022 97.898022 
L 183.833175 98.437149 
L 184.254582 95.234552 
L 185.349805 94.563011 
L 185.52476 92.666464 
L 185.593714 92.897892 
L 186.016745 94.653776 
L 187.230625 85.676393 
L 188.00098 83.382274 
L 188.188783 84.860745 
L 189.172368 85.21119 
L 189.724259 88.900981 
L 190.005052 83.809178 
L 190.620284 80.135398 
L 191.126128 81.728722 
L 191.720829 82.711876 
L 192.263291 82.556907 
L 192.515573 83.029748 
L 192.903089 88.561571 
L 193.38735 98.710899 
L 193.632622 99.102023 
L 193.733599 97.712376 
L 194.028899 96.525013 
L 195.302141 83.020263 
L 195.526892 83.301198 
L 195.804514 82.844087 
L 196.989873 87.614573 
L 197.232062 86.806251 
L 197.365908 86.070083 
L 197.612708 86.85762 
L 197.870561 84.37449 
L 198.152206 84.404823 
L 198.222857 84.013356 
L 198.8911 83.330248 
L 198.988934 82.9575 
L 199.258152 82.731519 
L 199.502239 83.138122 
L 199.714186 85.04132 
L 200.248655 85.076114 
L 200.809804 86.28024 
L 201.969749 84.619535 
L 202.283778 88.520031 
L 202.591174 90.057666 
L 202.884844 88.08574 
L 202.99769 88.127155 
L 203.584402 82.720437 
L 204.781082 85.690824 
L 205.300654 90.963171 
L 206.504795 86.552394 
L 207.751013 86.576122 
L 208.852689 83.196566 
L 208.912381 83.356324 
L 210.017412 78.810018 
L 210.404921 82.985704 
L 211.000942 86.125929 
L 211.16246 85.450177 
L 211.640584 86.918913 
L 211.828227 89.72411 
L 212.459757 90.564785 
L 212.917273 86.787437 
L 213.476262 84.201553 
L 214.091382 87.134063 
L 215.783331 97.655842 
L 215.975726 96.357758 
L 216.171184 95.757432 
L 216.222813 95.043303 
L 216.755263 95.583494 
L 217.2048 96.922429 
L 217.408473 98.748245 
L 218.015244 102.796854 
L 218.067187 102.776694 
L 218.870695 94.256846 
L 219.053422 91.932816 
L 220.320648 86.998486 
L 220.368393 87.328317 
L 220.782118 87.023827 
L 220.994298 87.578261 
L 221.716257 91.175973 
L 222.109696 91.067913 
L 222.413512 90.427346 
L 223.24963 85.31457 
L 223.464231 82.654324 
L 223.859605 77.461676 
L 224.393577 78.449447 
L 224.771437 80.619744 
L 225.199546 80.87202 
L 225.635239 79.03794 
L 226.627763 75.941603 
L 226.861931 78.29955 
L 227.446541 81.70033 
L 227.479846 81.556271 
L 227.922244 79.623521 
L 228.122709 79.856749 
L 228.668112 85.183329 
L 229.289719 95.765837 
L 229.696122 94.459286 
L 229.763297 92.554929 
L 230.028797 89.469737 
L 230.149332 89.391603 
L 230.75271 88.846591 
L 231.579469 96.0412 
L 232.39054 84.869025 
L 232.943082 83.427352 
L 233.162841 83.58412 
L 233.811977 88.017404 
L 234.192276 89.717818 
L 234.19686 89.665979 
L 235.58761 81.025189 
L 235.999113 91.484736 
L 236.554516 100.282937 
L 236.604884 99.889356 
L 237.049844 96.558101 
L 237.107947 96.594132 
L 237.673543 99.477886 
L 238.157784 93.197186 
L 238.541641 87.76685 
L 240.440688 97.517448 
L 241.006087 87.984661 
L 241.246925 90.126769 
L 241.319542 89.998972 
L 241.443642 90.632542 
L 241.666996 93.010929 
L 242.307601 92.824391 
L 242.326822 92.458452 
L 242.694806 88.257081 
L 243.365034 83.478517 
L 244.18266 81.957145 
L 245.290358 84.822774 
L 245.441131 83.561331 
L 245.944822 76.528765 
L 246.043244 76.73623 
L 246.884633 83.648214 
L 248.189533 84.198298 
L 248.229569 84.403712 
L 248.645035 83.33906 
L 249.212589 78.262893 
L 249.50217 78.113309 
L 250.069223 74.464306 
L 251.058274 81.303415 
L 251.392219 82.076412 
L 252.39897 89.471255 
L 253.661244 79.722785 
L 254.514322 87.366101 
L 254.868931 86.824125 
L 255.153561 85.585143 
L 256.009952 78.667727 
L 257.259459 92.173901 
L 257.639646 89.367139 
L 257.892704 85.92474 
L 258.209984 79.912814 
L 258.676274 75.269216 
L 259.080857 76.045703 
L 259.46041 78.335815 
L 259.654959 78.556036 
L 259.78172 78.51376 
L 260.319785 75.603727 
L 261.566832 82.453104 
L 262.177725 80.625269 
L 262.545033 78.307078 
L 262.813985 78.057197 
L 263.042797 78.918376 
L 263.106081 78.8031 
L 264.201366 75.659119 
L 264.647016 72.897794 
L 264.980717 71.337949 
L 265.66754 71.017744 
L 266.015747 70.732302 
L 266.812041 73.584016 
L 267.471493 71.776325 
L 267.887573 76.232116 
L 268.592447 76.489166 
L 269.101496 78.589531 
L 270.134997 81.014045 
L 270.260081 80.072979 
L 270.936524 70.723631 
L 271.726667 74.643801 
L 272.553345 71.513124 
L 272.919883 71.084296 
L 273.222851 74.308132 
L 273.511841 75.917906 
L 273.920272 75.884427 
L 275.021953 65.684934 
L 275.201113 66.072082 
L 275.416873 72.691534 
L 276.107919 77.709554 
L 277.218591 77.275639 
L 277.346078 77.90431 
L 278.24906 83.756102 
L 279.220505 76.922815 
L 280.606227 82.99785 
L 281.397101 73.173125 
L 281.741303 70.776612 
L 282.073302 73.578131 
L 282.982053 72.902896 
L 284.285183 79.446171 
L 285.018647 87.932274 
L 285.024734 87.835514 
L 286.563908 71.812919 
L 288.157328 81.550151 
L 288.682516 82.90948 
L 288.71417 82.483891 
L 289.111097 79.394504 
L 289.171483 79.441553 
L 289.328918 78.683301 
L 290.235147 69.816216 
L 291.018043 69.210475 
L 291.88331 65.291557 
L 292.151629 66.415749 
L 292.300016 66.053957 
L 294.83604 66.578262 
L 295.055199 67.067851 
L 295.479476 65.940951 
L 295.952428 63.723996 
L 296.543555 67.069072 
L 296.644043 68.448623 
L 297.475183 67.037439 
L 297.735321 68.055074 
L 298.122867 76.793891 
L 298.665788 83.323001 
L 300.612142 80.742924 
L 301.569362 94.782465 
L 301.817048 95.504421 
L 301.979678 95.380083 
L 302.165574 95.473211 
L 302.198938 95.98717 
L 302.638618 86.58279 
L 302.854612 80.584449 
L 303.446116 69.497013 
L 304.084013 74.277188 
L 305.886137 65.625833 
L 307.162307 76.331568 
L 308.374029 68.959467 
L 309.094999 71.41998 
L 309.408786 73.790354 
L 310.012805 73.359632 
L 310.721887 70.098325 
L 310.936057 70.211722 
L 311.465016 72.987369 
L 312.18832 73.726933 
L 312.60881 76.238189 
L 312.941911 74.511966 
L 313.183033 70.87165 
L 313.605461 67.854543 
L 314.571603 71.56166 
L 314.86195 69.465835 
L 315.801825 74.094688 
L 316.174744 77.028528 
L 317.161416 94.073844 
L 317.310375 93.910925 
L 317.671365 89.005785 
L 318.564657 86.86122 
L 320.13631 87.982015 
L 320.621436 81.949241 
L 321.60048 78.704587 
L 321.696614 79.440645 
L 323.360974 79.354592 
L 323.855654 75.268653 
L 324.146551 77.421889 
L 324.530555 77.028622 
L 324.732464 75.000099 
L 325.309289 67.834633 
L 325.916417 68.837179 
L 326.19167 69.630179 
L 326.522444 69.385791 
L 327.526057 81.834732 
L 327.584408 80.699803 
L 327.656317 80.343771 
L 328.186422 75.276823 
L 328.743725 72.506232 
L 328.857211 71.222908 
L 330.153119 72.589218 
L 330.933967 81.385587 
L 331.528402 81.153377 
L 332.140189 73.326966 
L 332.626965 75.309019 
L 333.185155 79.943194 
L 333.613943 74.04803 
L 334.264093 66.879512 
L 334.612325 65.347998 
L 335.101666 62.67149 
L 336.853304 68.664055 
L 336.91835 68.305018 
L 337.447332 66.902082 
L 337.717378 68.235633 
L 337.991373 72.977821 
L 339.011801 71.425912 
L 339.042184 71.135414 
L 340.142432 66.718706 
L 340.863496 67.187399 
L 341.073501 68.011264 
L 341.378109 72.463315 
L 342.588699 82.260759 
L 342.896566 80.951829 
L 343.47636 72.075854 
L 344.069958 66.481174 
L 344.34884 69.237944 
L 344.454696 69.852623 
L 345.357931 67.663168 
L 345.58226 68.483667 
L 345.892739 70.738813 
L 345.94793 70.32152 
L 346.461885 67.832176 
L 346.91214 64.099655 
L 347.086181 63.619677 
L 347.137713 63.680656 
L 348.047985 59.197693 
L 348.340071 59.335492 
L 349.530363 61.453966 
L 350.142159 70.921157 
L 350.66079 75.603555 
L 351.490693 69.576603 
L 351.796155 68.713843 
L 352.096767 69.443406 
L 352.213053 69.603696 
L 352.283486 69.208221 
L 352.545874 69.2466 
L 352.96318 70.240506 
L 353.475542 73.023822 
L 354.012342 78.406404 
L 354.633336 81.970934 
L 356.428935 70.809794 
L 356.785136 71.347731 
L 357.312119 73.766657 
L 358.014977 73.04107 
L 358.047995 73.221818 
L 359.09911 66.448414 
L 359.156375 65.971065 
L 359.736972 62.775152 
L 360.053838 66.085245 
L 361.088154 72.085339 
L 362.638403 71.296519 
L 362.701114 71.107492 
L 363.330385 66.923056 
L 363.363759 67.557988 
L 363.733204 66.997762 
L 364.466492 81.129915 
L 365.084165 97.117059 
L 365.593824 81.819519 
L 366.197241 70.820249 
L 367.187458 64.042041 
L 367.549515 63.494384 
L 367.76227 62.894356 
L 369.824108 66.279641 
L 370.370359 67.840503 
L 370.632596 69.717078 
L 370.793346 69.508705 
L 371.591658 75.787323 
L 371.985057 75.744719 
L 372.095188 76.762275 
L 372.346116 80.435851 
L 372.880912 84.735108 
L 373.255918 80.662505 
L 374.181588 67.895237 
L 374.764403 72.868462 
L 375.244009 68.659077 
L 375.572748 69.782675 
L 375.888253 72.493883 
L 376.599023 68.640248 
L 376.673814 67.659411 
L 377.141027 65.738824 
L 377.809632 62.133521 
L 378.768345 60.579937 
L 379.551261 62.97526 
L 379.832825 64.633868 
L 380.406349 60.828989 
L 380.568474 58.850254 
L 380.967329 61.985658 
L 381.553642 65.639544 
L 382.166296 65.603044 
L 382.359093 69.198455 
L 383.514924 63.202117 
L 384.417792 59.294625 
L 385.047875 65.392371 
L 385.695045 58.470479 
L 385.976623 57.410678 
L 386.674075 62.712184 
L 387.908611 55.153874 
L 388.629878 59.470207 
L 388.990983 62.135446 
L 389.216989 62.485483 
L 390.269321 68.469847 
L 391.709088 56.477141 
L 392.005154 57.494979 
L 393.195287 66.559135 
L 394.101789 70.927574 
L 394.577096 64.699245 
L 394.727502 63.727095 
L 396.872666 67.981541 
L 397.258425 63.410412 
L 397.662286 60.618362 
L 398.304374 62.318181 
L 398.538894 65.027495 
L 398.985558 63.922727 
L 399.947752 53.568 
L 400.196532 53.763992 
L 400.379584 54.614841 
L 400.820641 61.495443 
L 401.197385 63.679874 
L 401.681514 69.898936 
L 403.053904 55.047441 
L 403.651833 54.577855 
L 404.610969 57.103245 
L 405.398503 65.823077 
L 405.482232 65.32092 
L 405.823314 65.315927 
L 406.065279 63.083367 
L 406.850588 64.724445 
L 407.039482 66.829568 
L 407.202881 66.414591 
L 407.299937 66.953796 
L 407.314231 66.945845 
L 407.479626 66.977853 
L 407.527111 67.487038 
L 408.15359 65.146872 
L 410.421474 72.786525 
L 410.478447 72.482347 
L 411.2295 70.614506 
L 411.457634 69.719879 
L 411.603845 70.634071 
L 412.279322 72.107533 
L 412.510005 71.570159 
L 413.146171 70.718606 
L 413.793677 69.355489 
L 413.931426 68.737571 
L 414.491823 64.533289 
L 414.72 60.656083 
L 414.72 60.656083 
" style="fill:none;stroke:#000000;stroke-dasharray:0.8,1.32;stroke-dashoffset:0;stroke-width:0.8;"/>
   </g>
   <g id="patch_3">
    <path d="M 57.6 307.584 
L 57.6 41.472 
" style="fill:none;stroke:#000000;stroke-linecap:square;stroke-linejoin:miter;stroke-width:0.8;"/>
   </g>
   <g id="patch_4">
    <path d="M 414.72 307.584 
L 414.72 41.472 
" style="fill:none;stroke:#000000;stroke-linecap:square;stroke-linejoin:miter;stroke-width:0.8;"/>
   </g>
   <g id="patch_5">
    <path d="M 57.6 307.584 
L 414.72 307.584 
" style="fill:none;stroke:#000000;stroke-linecap:square;stroke-linejoin:miter;stroke-width:0.8;"/>
   </g>
   <g id="patch_6">
    <path d="M 57.6 41.472 
L 414.72 41.472 
" style="fill:none;stroke:#000000;stroke-linecap:square;stroke-linejoin:miter;stroke-width:0.8;"/>
   </g>
   <g id="legend_1">
    <g id="patch_7">
     <path d="M 64.6 78.82825 
L 116.771875 78.82825 
Q 118.771875 78.82825 118.771875 76.82825 
L 118.771875 48.472 
Q 118.771875 46.472 116.771875 46.472 
L 64.6 46.472 
Q 62.6 46.472 62.6 48.472 
L 62.6 76.82825 
Q 62.6 78.82825 64.6 78.82825 
z
" style="fill:#ffffff;opacity:0.8;stroke:#cccccc;stroke-linejoin:miter;"/>
    </g>
    <g id="line2d_37">
     <path d="M 66.6 54.570437 
L 86.6 54.570437 
" style="fill:none;stroke:#000000;stroke-linecap:square;stroke-width:0.8;"/>
    </g>
    <g id="line2d_38"/>
    <g id="text_20">
     <!-- SAC -->
     <defs>
      <path d="M 53.515625 70.515625 
L 53.515625 60.890625 
Q 47.90625 63.578125 42.921875 64.890625 
Q 37.9375 66.21875 33.296875 66.21875 
Q 25.25 66.21875 20.875 63.09375 
Q 16.5 59.96875 16.5 54.203125 
Q 16.5 49.359375 19.40625 46.890625 
Q 22.3125 44.4375 30.421875 42.921875 
L 36.375 41.703125 
Q 47.40625 39.59375 52.65625 34.296875 
Q 57.90625 29 57.90625 20.125 
Q 57.90625 9.515625 50.796875 4.046875 
Q 43.703125 -1.421875 29.984375 -1.421875 
Q 24.8125 -1.421875 18.96875 -0.25 
Q 13.140625 0.921875 6.890625 3.21875 
L 6.890625 13.375 
Q 12.890625 10.015625 18.65625 8.296875 
Q 24.421875 6.59375 29.984375 6.59375 
Q 38.421875 6.59375 43.015625 9.90625 
Q 47.609375 13.234375 47.609375 19.390625 
Q 47.609375 24.75 44.3125 27.78125 
Q 41.015625 30.8125 33.5 32.328125 
L 27.484375 33.5 
Q 16.453125 35.6875 11.515625 40.375 
Q 6.59375 45.0625 6.59375 53.421875 
Q 6.59375 63.09375 13.40625 68.65625 
Q 20.21875 74.21875 32.171875 74.21875 
Q 37.3125 74.21875 42.625 73.28125 
Q 47.953125 72.359375 53.515625 70.515625 
z
" id="DejaVuSans-83"/>
      <path d="M 34.1875 63.1875 
L 20.796875 26.90625 
L 47.609375 26.90625 
z
M 28.609375 72.90625 
L 39.796875 72.90625 
L 67.578125 0 
L 57.328125 0 
L 50.6875 18.703125 
L 17.828125 18.703125 
L 11.1875 0 
L 0.78125 0 
z
" id="DejaVuSans-65"/>
      <path d="M 64.40625 67.28125 
L 64.40625 56.890625 
Q 59.421875 61.53125 53.78125 63.8125 
Q 48.140625 66.109375 41.796875 66.109375 
Q 29.296875 66.109375 22.65625 58.46875 
Q 16.015625 50.828125 16.015625 36.375 
Q 16.015625 21.96875 22.65625 14.328125 
Q 29.296875 6.6875 41.796875 6.6875 
Q 48.140625 6.6875 53.78125 8.984375 
Q 59.421875 11.28125 64.40625 15.921875 
L 64.40625 5.609375 
Q 59.234375 2.09375 53.4375 0.328125 
Q 47.65625 -1.421875 41.21875 -1.421875 
Q 24.65625 -1.421875 15.125 8.703125 
Q 5.609375 18.84375 5.609375 36.375 
Q 5.609375 53.953125 15.125 64.078125 
Q 24.65625 74.21875 41.21875 74.21875 
Q 47.75 74.21875 53.53125 72.484375 
Q 59.328125 70.75 64.40625 67.28125 
z
" id="DejaVuSans-67"/>
     </defs>
     <g transform="translate(94.6 58.070437)scale(0.1 -0.1)">
      <use xlink:href="#DejaVuSans-83"/>
      <use x="63.492188" xlink:href="#DejaVuSans-65"/>
      <use x="131.884766" xlink:href="#DejaVuSans-67"/>
     </g>
    </g>
    <g id="line2d_39">
     <path d="M 66.6 69.248562 
L 86.6 69.248562 
" style="fill:none;stroke:#000000;stroke-dasharray:0.8,1.32;stroke-dashoffset:0;stroke-width:0.8;"/>
    </g>
    <g id="line2d_40"/>
    <g id="text_21">
     <!-- PPO -->
     <defs>
      <path d="M 19.671875 64.796875 
L 19.671875 37.40625 
L 32.078125 37.40625 
Q 38.96875 37.40625 42.71875 40.96875 
Q 46.484375 44.53125 46.484375 51.125 
Q 46.484375 57.671875 42.71875 61.234375 
Q 38.96875 64.796875 32.078125 64.796875 
z
M 9.8125 72.90625 
L 32.078125 72.90625 
Q 44.34375 72.90625 50.609375 67.359375 
Q 56.890625 61.8125 56.890625 51.125 
Q 56.890625 40.328125 50.609375 34.8125 
Q 44.34375 29.296875 32.078125 29.296875 
L 19.671875 29.296875 
L 19.671875 0 
L 9.8125 0 
z
" id="DejaVuSans-80"/>
      <path d="M 39.40625 66.21875 
Q 28.65625 66.21875 22.328125 58.203125 
Q 16.015625 50.203125 16.015625 36.375 
Q 16.015625 22.609375 22.328125 14.59375 
Q 28.65625 6.59375 39.40625 6.59375 
Q 50.140625 6.59375 56.421875 14.59375 
Q 62.703125 22.609375 62.703125 36.375 
Q 62.703125 50.203125 56.421875 58.203125 
Q 50.140625 66.21875 39.40625 66.21875 
z
M 39.40625 74.21875 
Q 54.734375 74.21875 63.90625 63.9375 
Q 73.09375 53.65625 73.09375 36.375 
Q 73.09375 19.140625 63.90625 8.859375 
Q 54.734375 -1.421875 39.40625 -1.421875 
Q 24.03125 -1.421875 14.8125 8.828125 
Q 5.609375 19.09375 5.609375 36.375 
Q 5.609375 53.65625 14.8125 63.9375 
Q 24.03125 74.21875 39.40625 74.21875 
z
" id="DejaVuSans-79"/>
     </defs>
     <g transform="translate(94.6 72.748562)scale(0.1 -0.1)">
      <use xlink:href="#DejaVuSans-80"/>
      <use x="60.302734" xlink:href="#DejaVuSans-80"/>
      <use x="120.605469" xlink:href="#DejaVuSans-79"/>
     </g>
    </g>
   </g>
  </g>
 </g>
 <defs>
  <clipPath id="p09f084dad6">
   <rect height="266.112" width="357.12" x="57.6" y="41.472"/>
  </clipPath>
 </defs>
</svg>
