<?xml version="1.0" encoding="utf-8" standalone="no"?>
<!DOCTYPE svg PUBLIC "-//W3C//DTD SVG 1.1//EN"
  "http://www.w3.org/Graphics/SVG/1.1/DTD/svg11.dtd">
<!-- Created with matplotlib (https://matplotlib.org/) -->
<svg height="345.6pt" version="1.1" viewBox="0 0 460.8 345.6" width="460.8pt" xmlns="http://www.w3.org/2000/svg" xmlns:xlink="http://www.w3.org/1999/xlink">
 <defs>
  <style type="text/css">
*{stroke-linecap:butt;stroke-linejoin:round;}
  </style>
 </defs>
 <g id="figure_1">
  <g id="patch_1">
   <path d="M 0 345.6 
L 460.8 345.6 
L 460.8 0 
L 0 0 
z
" style="fill:#ffffff;"/>
  </g>
  <g id="axes_1">
   <g id="patch_2">
    <path d="M 57.6 307.584 
L 414.72 307.584 
L 414.72 41.472 
L 57.6 41.472 
z
" style="fill:#ffffff;"/>
   </g>
   <g id="matplotlib.axis_1">
    <g id="xtick_1">
     <g id="line2d_1">
      <path clip-path="url(#p07f3dea336)" d="M 57.6 307.584 
L 57.6 41.472 
" style="fill:none;stroke:#b0b0b0;stroke-linecap:square;stroke-width:0.8;"/>
     </g>
     <g id="line2d_2">
      <defs>
       <path d="M 0 0 
L 0 3.5 
" id="m84cde65a22" style="stroke:#000000;stroke-width:0.8;"/>
      </defs>
      <g>
       <use style="stroke:#000000;stroke-width:0.8;" x="57.6" xlink:href="#m84cde65a22" y="307.584"/>
      </g>
     </g>
     <g id="text_1">
      <!-- 0.0 -->
      <defs>
       <path d="M 31.78125 66.40625 
Q 24.171875 66.40625 20.328125 58.90625 
Q 16.5 51.421875 16.5 36.375 
Q 16.5 21.390625 20.328125 13.890625 
Q 24.171875 6.390625 31.78125 6.390625 
Q 39.453125 6.390625 43.28125 13.890625 
Q 47.125 21.390625 47.125 36.375 
Q 47.125 51.421875 43.28125 58.90625 
Q 39.453125 66.40625 31.78125 66.40625 
z
M 31.78125 74.21875 
Q 44.046875 74.21875 50.515625 64.515625 
Q 56.984375 54.828125 56.984375 36.375 
Q 56.984375 17.96875 50.515625 8.265625 
Q 44.046875 -1.421875 31.78125 -1.421875 
Q 19.53125 -1.421875 13.0625 8.265625 
Q 6.59375 17.96875 6.59375 36.375 
Q 6.59375 54.828125 13.0625 64.515625 
Q 19.53125 74.21875 31.78125 74.21875 
z
" id="DejaVuSans-48"/>
       <path d="M 10.6875 12.40625 
L 21 12.40625 
L 21 0 
L 10.6875 0 
z
" id="DejaVuSans-46"/>
      </defs>
      <g transform="translate(49.648438 322.182437)scale(0.1 -0.1)">
       <use xlink:href="#DejaVuSans-48"/>
       <use x="63.623047" xlink:href="#DejaVuSans-46"/>
       <use x="95.410156" xlink:href="#DejaVuSans-48"/>
      </g>
     </g>
    </g>
    <g id="xtick_2">
     <g id="line2d_3">
      <path clip-path="url(#p07f3dea336)" d="M 109.97523 307.584 
L 109.97523 41.472 
" style="fill:none;stroke:#b0b0b0;stroke-linecap:square;stroke-width:0.8;"/>
     </g>
     <g id="line2d_4">
      <g>
       <use style="stroke:#000000;stroke-width:0.8;" x="109.97523" xlink:href="#m84cde65a22" y="307.584"/>
      </g>
     </g>
     <g id="text_2">
      <!-- 0.5 -->
      <defs>
       <path d="M 10.796875 72.90625 
L 49.515625 72.90625 
L 49.515625 64.59375 
L 19.828125 64.59375 
L 19.828125 46.734375 
Q 21.96875 47.46875 24.109375 47.828125 
Q 26.265625 48.1875 28.421875 48.1875 
Q 40.625 48.1875 47.75 41.5 
Q 54.890625 34.8125 54.890625 23.390625 
Q 54.890625 11.625 47.5625 5.09375 
Q 40.234375 -1.421875 26.90625 -1.421875 
Q 22.3125 -1.421875 17.546875 -0.640625 
Q 12.796875 0.140625 7.71875 1.703125 
L 7.71875 11.625 
Q 12.109375 9.234375 16.796875 8.0625 
Q 21.484375 6.890625 26.703125 6.890625 
Q 35.15625 6.890625 40.078125 11.328125 
Q 45.015625 15.765625 45.015625 23.390625 
Q 45.015625 31 40.078125 35.4375 
Q 35.15625 39.890625 26.703125 39.890625 
Q 22.75 39.890625 18.8125 39.015625 
Q 14.890625 38.140625 10.796875 36.28125 
z
" id="DejaVuSans-53"/>
      </defs>
      <g transform="translate(102.023667 322.182437)scale(0.1 -0.1)">
       <use xlink:href="#DejaVuSans-48"/>
       <use x="63.623047" xlink:href="#DejaVuSans-46"/>
       <use x="95.410156" xlink:href="#DejaVuSans-53"/>
      </g>
     </g>
    </g>
    <g id="xtick_3">
     <g id="line2d_5">
      <path clip-path="url(#p07f3dea336)" d="M 162.350459 307.584 
L 162.350459 41.472 
" style="fill:none;stroke:#b0b0b0;stroke-linecap:square;stroke-width:0.8;"/>
     </g>
     <g id="line2d_6">
      <g>
       <use style="stroke:#000000;stroke-width:0.8;" x="162.350459" xlink:href="#m84cde65a22" y="307.584"/>
      </g>
     </g>
     <g id="text_3">
      <!-- 1.0 -->
      <defs>
       <path d="M 12.40625 8.296875 
L 28.515625 8.296875 
L 28.515625 63.921875 
L 10.984375 60.40625 
L 10.984375 69.390625 
L 28.421875 72.90625 
L 38.28125 72.90625 
L 38.28125 8.296875 
L 54.390625 8.296875 
L 54.390625 0 
L 12.40625 0 
z
" id="DejaVuSans-49"/>
      </defs>
      <g transform="translate(154.398897 322.182437)scale(0.1 -0.1)">
       <use xlink:href="#DejaVuSans-49"/>
       <use x="63.623047" xlink:href="#DejaVuSans-46"/>
       <use x="95.410156" xlink:href="#DejaVuSans-48"/>
      </g>
     </g>
    </g>
    <g id="xtick_4">
     <g id="line2d_7">
      <path clip-path="url(#p07f3dea336)" d="M 214.725689 307.584 
L 214.725689 41.472 
" style="fill:none;stroke:#b0b0b0;stroke-linecap:square;stroke-width:0.8;"/>
     </g>
     <g id="line2d_8">
      <g>
       <use style="stroke:#000000;stroke-width:0.8;" x="214.725689" xlink:href="#m84cde65a22" y="307.584"/>
      </g>
     </g>
     <g id="text_4">
      <!-- 1.5 -->
      <g transform="translate(206.774126 322.182437)scale(0.1 -0.1)">
       <use xlink:href="#DejaVuSans-49"/>
       <use x="63.623047" xlink:href="#DejaVuSans-46"/>
       <use x="95.410156" xlink:href="#DejaVuSans-53"/>
      </g>
     </g>
    </g>
    <g id="xtick_5">
     <g id="line2d_9">
      <path clip-path="url(#p07f3dea336)" d="M 267.100919 307.584 
L 267.100919 41.472 
" style="fill:none;stroke:#b0b0b0;stroke-linecap:square;stroke-width:0.8;"/>
     </g>
     <g id="line2d_10">
      <g>
       <use style="stroke:#000000;stroke-width:0.8;" x="267.100919" xlink:href="#m84cde65a22" y="307.584"/>
      </g>
     </g>
     <g id="text_5">
      <!-- 2.0 -->
      <defs>
       <path d="M 19.1875 8.296875 
L 53.609375 8.296875 
L 53.609375 0 
L 7.328125 0 
L 7.328125 8.296875 
Q 12.9375 14.109375 22.625 23.890625 
Q 32.328125 33.6875 34.8125 36.53125 
Q 39.546875 41.84375 41.421875 45.53125 
Q 43.3125 49.21875 43.3125 52.78125 
Q 43.3125 58.59375 39.234375 62.25 
Q 35.15625 65.921875 28.609375 65.921875 
Q 23.96875 65.921875 18.8125 64.3125 
Q 13.671875 62.703125 7.8125 59.421875 
L 7.8125 69.390625 
Q 13.765625 71.78125 18.9375 73 
Q 24.125 74.21875 28.421875 74.21875 
Q 39.75 74.21875 46.484375 68.546875 
Q 53.21875 62.890625 53.21875 53.421875 
Q 53.21875 48.921875 51.53125 44.890625 
Q 49.859375 40.875 45.40625 35.40625 
Q 44.1875 33.984375 37.640625 27.21875 
Q 31.109375 20.453125 19.1875 8.296875 
z
" id="DejaVuSans-50"/>
      </defs>
      <g transform="translate(259.149356 322.182437)scale(0.1 -0.1)">
       <use xlink:href="#DejaVuSans-50"/>
       <use x="63.623047" xlink:href="#DejaVuSans-46"/>
       <use x="95.410156" xlink:href="#DejaVuSans-48"/>
      </g>
     </g>
    </g>
    <g id="xtick_6">
     <g id="line2d_11">
      <path clip-path="url(#p07f3dea336)" d="M 319.476148 307.584 
L 319.476148 41.472 
" style="fill:none;stroke:#b0b0b0;stroke-linecap:square;stroke-width:0.8;"/>
     </g>
     <g id="line2d_12">
      <g>
       <use style="stroke:#000000;stroke-width:0.8;" x="319.476148" xlink:href="#m84cde65a22" y="307.584"/>
      </g>
     </g>
     <g id="text_6">
      <!-- 2.5 -->
      <g transform="translate(311.524586 322.182437)scale(0.1 -0.1)">
       <use xlink:href="#DejaVuSans-50"/>
       <use x="63.623047" xlink:href="#DejaVuSans-46"/>
       <use x="95.410156" xlink:href="#DejaVuSans-53"/>
      </g>
     </g>
    </g>
    <g id="xtick_7">
     <g id="line2d_13">
      <path clip-path="url(#p07f3dea336)" d="M 371.851378 307.584 
L 371.851378 41.472 
" style="fill:none;stroke:#b0b0b0;stroke-linecap:square;stroke-width:0.8;"/>
     </g>
     <g id="line2d_14">
      <g>
       <use style="stroke:#000000;stroke-width:0.8;" x="371.851378" xlink:href="#m84cde65a22" y="307.584"/>
      </g>
     </g>
     <g id="text_7">
      <!-- 3.0 -->
      <defs>
       <path d="M 40.578125 39.3125 
Q 47.65625 37.796875 51.625 33 
Q 55.609375 28.21875 55.609375 21.1875 
Q 55.609375 10.40625 48.1875 4.484375 
Q 40.765625 -1.421875 27.09375 -1.421875 
Q 22.515625 -1.421875 17.65625 -0.515625 
Q 12.796875 0.390625 7.625 2.203125 
L 7.625 11.71875 
Q 11.71875 9.328125 16.59375 8.109375 
Q 21.484375 6.890625 26.8125 6.890625 
Q 36.078125 6.890625 40.9375 10.546875 
Q 45.796875 14.203125 45.796875 21.1875 
Q 45.796875 27.640625 41.28125 31.265625 
Q 36.765625 34.90625 28.71875 34.90625 
L 20.21875 34.90625 
L 20.21875 43.015625 
L 29.109375 43.015625 
Q 36.375 43.015625 40.234375 45.921875 
Q 44.09375 48.828125 44.09375 54.296875 
Q 44.09375 59.90625 40.109375 62.90625 
Q 36.140625 65.921875 28.71875 65.921875 
Q 24.65625 65.921875 20.015625 65.03125 
Q 15.375 64.15625 9.8125 62.3125 
L 9.8125 71.09375 
Q 15.4375 72.65625 20.34375 73.4375 
Q 25.25 74.21875 29.59375 74.21875 
Q 40.828125 74.21875 47.359375 69.109375 
Q 53.90625 64.015625 53.90625 55.328125 
Q 53.90625 49.265625 50.4375 45.09375 
Q 46.96875 40.921875 40.578125 39.3125 
z
" id="DejaVuSans-51"/>
      </defs>
      <g transform="translate(363.899815 322.182437)scale(0.1 -0.1)">
       <use xlink:href="#DejaVuSans-51"/>
       <use x="63.623047" xlink:href="#DejaVuSans-46"/>
       <use x="95.410156" xlink:href="#DejaVuSans-48"/>
      </g>
     </g>
    </g>
    <g id="text_8">
     <!-- Hours -->
     <defs>
      <path d="M 9.8125 72.90625 
L 19.671875 72.90625 
L 19.671875 43.015625 
L 55.515625 43.015625 
L 55.515625 72.90625 
L 65.375 72.90625 
L 65.375 0 
L 55.515625 0 
L 55.515625 34.71875 
L 19.671875 34.71875 
L 19.671875 0 
L 9.8125 0 
z
" id="DejaVuSans-72"/>
      <path d="M 30.609375 48.390625 
Q 23.390625 48.390625 19.1875 42.75 
Q 14.984375 37.109375 14.984375 27.296875 
Q 14.984375 17.484375 19.15625 11.84375 
Q 23.34375 6.203125 30.609375 6.203125 
Q 37.796875 6.203125 41.984375 11.859375 
Q 46.1875 17.53125 46.1875 27.296875 
Q 46.1875 37.015625 41.984375 42.703125 
Q 37.796875 48.390625 30.609375 48.390625 
z
M 30.609375 56 
Q 42.328125 56 49.015625 48.375 
Q 55.71875 40.765625 55.71875 27.296875 
Q 55.71875 13.875 49.015625 6.21875 
Q 42.328125 -1.421875 30.609375 -1.421875 
Q 18.84375 -1.421875 12.171875 6.21875 
Q 5.515625 13.875 5.515625 27.296875 
Q 5.515625 40.765625 12.171875 48.375 
Q 18.84375 56 30.609375 56 
z
" id="DejaVuSans-111"/>
      <path d="M 8.5 21.578125 
L 8.5 54.6875 
L 17.484375 54.6875 
L 17.484375 21.921875 
Q 17.484375 14.15625 20.5 10.265625 
Q 23.53125 6.390625 29.59375 6.390625 
Q 36.859375 6.390625 41.078125 11.03125 
Q 45.3125 15.671875 45.3125 23.6875 
L 45.3125 54.6875 
L 54.296875 54.6875 
L 54.296875 0 
L 45.3125 0 
L 45.3125 8.40625 
Q 42.046875 3.421875 37.71875 1 
Q 33.40625 -1.421875 27.6875 -1.421875 
Q 18.265625 -1.421875 13.375 4.4375 
Q 8.5 10.296875 8.5 21.578125 
z
M 31.109375 56 
z
" id="DejaVuSans-117"/>
      <path d="M 41.109375 46.296875 
Q 39.59375 47.171875 37.8125 47.578125 
Q 36.03125 48 33.890625 48 
Q 26.265625 48 22.1875 43.046875 
Q 18.109375 38.09375 18.109375 28.8125 
L 18.109375 0 
L 9.078125 0 
L 9.078125 54.6875 
L 18.109375 54.6875 
L 18.109375 46.1875 
Q 20.953125 51.171875 25.484375 53.578125 
Q 30.03125 56 36.53125 56 
Q 37.453125 56 38.578125 55.875 
Q 39.703125 55.765625 41.0625 55.515625 
z
" id="DejaVuSans-114"/>
      <path d="M 44.28125 53.078125 
L 44.28125 44.578125 
Q 40.484375 46.53125 36.375 47.5 
Q 32.28125 48.484375 27.875 48.484375 
Q 21.1875 48.484375 17.84375 46.4375 
Q 14.5 44.390625 14.5 40.28125 
Q 14.5 37.15625 16.890625 35.375 
Q 19.28125 33.59375 26.515625 31.984375 
L 29.59375 31.296875 
Q 39.15625 29.25 43.1875 25.515625 
Q 47.21875 21.78125 47.21875 15.09375 
Q 47.21875 7.46875 41.1875 3.015625 
Q 35.15625 -1.421875 24.609375 -1.421875 
Q 20.21875 -1.421875 15.453125 -0.5625 
Q 10.6875 0.296875 5.421875 2 
L 5.421875 11.28125 
Q 10.40625 8.6875 15.234375 7.390625 
Q 20.0625 6.109375 24.8125 6.109375 
Q 31.15625 6.109375 34.5625 8.28125 
Q 37.984375 10.453125 37.984375 14.40625 
Q 37.984375 18.0625 35.515625 20.015625 
Q 33.0625 21.96875 24.703125 23.78125 
L 21.578125 24.515625 
Q 13.234375 26.265625 9.515625 29.90625 
Q 5.8125 33.546875 5.8125 39.890625 
Q 5.8125 47.609375 11.28125 51.796875 
Q 16.75 56 26.8125 56 
Q 31.78125 56 36.171875 55.265625 
Q 40.578125 54.546875 44.28125 53.078125 
z
" id="DejaVuSans-115"/>
     </defs>
     <g transform="translate(221.511562 335.860562)scale(0.1 -0.1)">
      <use xlink:href="#DejaVuSans-72"/>
      <use x="75.195312" xlink:href="#DejaVuSans-111"/>
      <use x="136.376953" xlink:href="#DejaVuSans-117"/>
      <use x="199.755859" xlink:href="#DejaVuSans-114"/>
      <use x="240.869141" xlink:href="#DejaVuSans-115"/>
     </g>
    </g>
   </g>
   <g id="matplotlib.axis_2">
    <g id="ytick_1">
     <g id="line2d_15">
      <path clip-path="url(#p07f3dea336)" d="M 57.6 285.418982 
L 414.72 285.418982 
" style="fill:none;stroke:#b0b0b0;stroke-linecap:square;stroke-width:0.8;"/>
     </g>
     <g id="line2d_16">
      <defs>
       <path d="M 0 0 
L -3.5 0 
" id="m4752ed23c7" style="stroke:#000000;stroke-width:0.8;"/>
      </defs>
      <g>
       <use style="stroke:#000000;stroke-width:0.8;" x="57.6" xlink:href="#m4752ed23c7" y="285.418982"/>
      </g>
     </g>
     <g id="text_9">
      <!-- 0 -->
      <g transform="translate(44.2375 289.2182)scale(0.1 -0.1)">
       <use xlink:href="#DejaVuSans-48"/>
      </g>
     </g>
    </g>
    <g id="ytick_2">
     <g id="line2d_17">
      <path clip-path="url(#p07f3dea336)" d="M 57.6 244.964883 
L 414.72 244.964883 
" style="fill:none;stroke:#b0b0b0;stroke-linecap:square;stroke-width:0.8;"/>
     </g>
     <g id="line2d_18">
      <g>
       <use style="stroke:#000000;stroke-width:0.8;" x="57.6" xlink:href="#m4752ed23c7" y="244.964883"/>
      </g>
     </g>
     <g id="text_10">
      <!-- 1 -->
      <g transform="translate(44.2375 248.764102)scale(0.1 -0.1)">
       <use xlink:href="#DejaVuSans-49"/>
      </g>
     </g>
    </g>
    <g id="ytick_3">
     <g id="line2d_19">
      <path clip-path="url(#p07f3dea336)" d="M 57.6 204.510785 
L 414.72 204.510785 
" style="fill:none;stroke:#b0b0b0;stroke-linecap:square;stroke-width:0.8;"/>
     </g>
     <g id="line2d_20">
      <g>
       <use style="stroke:#000000;stroke-width:0.8;" x="57.6" xlink:href="#m4752ed23c7" y="204.510785"/>
      </g>
     </g>
     <g id="text_11">
      <!-- 2 -->
      <g transform="translate(44.2375 208.310003)scale(0.1 -0.1)">
       <use xlink:href="#DejaVuSans-50"/>
      </g>
     </g>
    </g>
    <g id="ytick_4">
     <g id="line2d_21">
      <path clip-path="url(#p07f3dea336)" d="M 57.6 164.056686 
L 414.72 164.056686 
" style="fill:none;stroke:#b0b0b0;stroke-linecap:square;stroke-width:0.8;"/>
     </g>
     <g id="line2d_22">
      <g>
       <use style="stroke:#000000;stroke-width:0.8;" x="57.6" xlink:href="#m4752ed23c7" y="164.056686"/>
      </g>
     </g>
     <g id="text_12">
      <!-- 3 -->
      <g transform="translate(44.2375 167.855905)scale(0.1 -0.1)">
       <use xlink:href="#DejaVuSans-51"/>
      </g>
     </g>
    </g>
    <g id="ytick_5">
     <g id="line2d_23">
      <path clip-path="url(#p07f3dea336)" d="M 57.6 123.602588 
L 414.72 123.602588 
" style="fill:none;stroke:#b0b0b0;stroke-linecap:square;stroke-width:0.8;"/>
     </g>
     <g id="line2d_24">
      <g>
       <use style="stroke:#000000;stroke-width:0.8;" x="57.6" xlink:href="#m4752ed23c7" y="123.602588"/>
      </g>
     </g>
     <g id="text_13">
      <!-- 4 -->
      <defs>
       <path d="M 37.796875 64.3125 
L 12.890625 25.390625 
L 37.796875 25.390625 
z
M 35.203125 72.90625 
L 47.609375 72.90625 
L 47.609375 25.390625 
L 58.015625 25.390625 
L 58.015625 17.1875 
L 47.609375 17.1875 
L 47.609375 0 
L 37.796875 0 
L 37.796875 17.1875 
L 4.890625 17.1875 
L 4.890625 26.703125 
z
" id="DejaVuSans-52"/>
      </defs>
      <g transform="translate(44.2375 127.401807)scale(0.1 -0.1)">
       <use xlink:href="#DejaVuSans-52"/>
      </g>
     </g>
    </g>
    <g id="ytick_6">
     <g id="line2d_25">
      <path clip-path="url(#p07f3dea336)" d="M 57.6 83.148489 
L 414.72 83.148489 
" style="fill:none;stroke:#b0b0b0;stroke-linecap:square;stroke-width:0.8;"/>
     </g>
     <g id="line2d_26">
      <g>
       <use style="stroke:#000000;stroke-width:0.8;" x="57.6" xlink:href="#m4752ed23c7" y="83.148489"/>
      </g>
     </g>
     <g id="text_14">
      <!-- 5 -->
      <g transform="translate(44.2375 86.947708)scale(0.1 -0.1)">
       <use xlink:href="#DejaVuSans-53"/>
      </g>
     </g>
    </g>
    <g id="ytick_7">
     <g id="line2d_27">
      <path clip-path="url(#p07f3dea336)" d="M 57.6 42.694391 
L 414.72 42.694391 
" style="fill:none;stroke:#b0b0b0;stroke-linecap:square;stroke-width:0.8;"/>
     </g>
     <g id="line2d_28">
      <g>
       <use style="stroke:#000000;stroke-width:0.8;" x="57.6" xlink:href="#m4752ed23c7" y="42.694391"/>
      </g>
     </g>
     <g id="text_15">
      <!-- 6 -->
      <defs>
       <path d="M 33.015625 40.375 
Q 26.375 40.375 22.484375 35.828125 
Q 18.609375 31.296875 18.609375 23.390625 
Q 18.609375 15.53125 22.484375 10.953125 
Q 26.375 6.390625 33.015625 6.390625 
Q 39.65625 6.390625 43.53125 10.953125 
Q 47.40625 15.53125 47.40625 23.390625 
Q 47.40625 31.296875 43.53125 35.828125 
Q 39.65625 40.375 33.015625 40.375 
z
M 52.59375 71.296875 
L 52.59375 62.3125 
Q 48.875 64.0625 45.09375 64.984375 
Q 41.3125 65.921875 37.59375 65.921875 
Q 27.828125 65.921875 22.671875 59.328125 
Q 17.53125 52.734375 16.796875 39.40625 
Q 19.671875 43.65625 24.015625 45.921875 
Q 28.375 48.1875 33.59375 48.1875 
Q 44.578125 48.1875 50.953125 41.515625 
Q 57.328125 34.859375 57.328125 23.390625 
Q 57.328125 12.15625 50.6875 5.359375 
Q 44.046875 -1.421875 33.015625 -1.421875 
Q 20.359375 -1.421875 13.671875 8.265625 
Q 6.984375 17.96875 6.984375 36.375 
Q 6.984375 53.65625 15.1875 63.9375 
Q 23.390625 74.21875 37.203125 74.21875 
Q 40.921875 74.21875 44.703125 73.484375 
Q 48.484375 72.75 52.59375 71.296875 
z
" id="DejaVuSans-54"/>
      </defs>
      <g transform="translate(44.2375 46.49361)scale(0.1 -0.1)">
       <use xlink:href="#DejaVuSans-54"/>
      </g>
     </g>
    </g>
    <g id="text_16">
     <!-- Reward -->
     <defs>
      <path d="M 44.390625 34.1875 
Q 47.5625 33.109375 50.5625 29.59375 
Q 53.5625 26.078125 56.59375 19.921875 
L 66.609375 0 
L 56 0 
L 46.6875 18.703125 
Q 43.0625 26.03125 39.671875 28.421875 
Q 36.28125 30.8125 30.421875 30.8125 
L 19.671875 30.8125 
L 19.671875 0 
L 9.8125 0 
L 9.8125 72.90625 
L 32.078125 72.90625 
Q 44.578125 72.90625 50.734375 67.671875 
Q 56.890625 62.453125 56.890625 51.90625 
Q 56.890625 45.015625 53.6875 40.46875 
Q 50.484375 35.9375 44.390625 34.1875 
z
M 19.671875 64.796875 
L 19.671875 38.921875 
L 32.078125 38.921875 
Q 39.203125 38.921875 42.84375 42.21875 
Q 46.484375 45.515625 46.484375 51.90625 
Q 46.484375 58.296875 42.84375 61.546875 
Q 39.203125 64.796875 32.078125 64.796875 
z
" id="DejaVuSans-82"/>
      <path d="M 56.203125 29.59375 
L 56.203125 25.203125 
L 14.890625 25.203125 
Q 15.484375 15.921875 20.484375 11.0625 
Q 25.484375 6.203125 34.421875 6.203125 
Q 39.59375 6.203125 44.453125 7.46875 
Q 49.3125 8.734375 54.109375 11.28125 
L 54.109375 2.78125 
Q 49.265625 0.734375 44.1875 -0.34375 
Q 39.109375 -1.421875 33.890625 -1.421875 
Q 20.796875 -1.421875 13.15625 6.1875 
Q 5.515625 13.8125 5.515625 26.8125 
Q 5.515625 40.234375 12.765625 48.109375 
Q 20.015625 56 32.328125 56 
Q 43.359375 56 49.78125 48.890625 
Q 56.203125 41.796875 56.203125 29.59375 
z
M 47.21875 32.234375 
Q 47.125 39.59375 43.09375 43.984375 
Q 39.0625 48.390625 32.421875 48.390625 
Q 24.90625 48.390625 20.390625 44.140625 
Q 15.875 39.890625 15.1875 32.171875 
z
" id="DejaVuSans-101"/>
      <path d="M 4.203125 54.6875 
L 13.1875 54.6875 
L 24.421875 12.015625 
L 35.59375 54.6875 
L 46.1875 54.6875 
L 57.421875 12.015625 
L 68.609375 54.6875 
L 77.59375 54.6875 
L 63.28125 0 
L 52.6875 0 
L 40.921875 44.828125 
L 29.109375 0 
L 18.5 0 
z
" id="DejaVuSans-119"/>
      <path d="M 34.28125 27.484375 
Q 23.390625 27.484375 19.1875 25 
Q 14.984375 22.515625 14.984375 16.5 
Q 14.984375 11.71875 18.140625 8.90625 
Q 21.296875 6.109375 26.703125 6.109375 
Q 34.1875 6.109375 38.703125 11.40625 
Q 43.21875 16.703125 43.21875 25.484375 
L 43.21875 27.484375 
z
M 52.203125 31.203125 
L 52.203125 0 
L 43.21875 0 
L 43.21875 8.296875 
Q 40.140625 3.328125 35.546875 0.953125 
Q 30.953125 -1.421875 24.3125 -1.421875 
Q 15.921875 -1.421875 10.953125 3.296875 
Q 6 8.015625 6 15.921875 
Q 6 25.140625 12.171875 29.828125 
Q 18.359375 34.515625 30.609375 34.515625 
L 43.21875 34.515625 
L 43.21875 35.40625 
Q 43.21875 41.609375 39.140625 45 
Q 35.0625 48.390625 27.6875 48.390625 
Q 23 48.390625 18.546875 47.265625 
Q 14.109375 46.140625 10.015625 43.890625 
L 10.015625 52.203125 
Q 14.9375 54.109375 19.578125 55.046875 
Q 24.21875 56 28.609375 56 
Q 40.484375 56 46.34375 49.84375 
Q 52.203125 43.703125 52.203125 31.203125 
z
" id="DejaVuSans-97"/>
      <path d="M 45.40625 46.390625 
L 45.40625 75.984375 
L 54.390625 75.984375 
L 54.390625 0 
L 45.40625 0 
L 45.40625 8.203125 
Q 42.578125 3.328125 38.25 0.953125 
Q 33.9375 -1.421875 27.875 -1.421875 
Q 17.96875 -1.421875 11.734375 6.484375 
Q 5.515625 14.40625 5.515625 27.296875 
Q 5.515625 40.1875 11.734375 48.09375 
Q 17.96875 56 27.875 56 
Q 33.9375 56 38.25 53.625 
Q 42.578125 51.265625 45.40625 46.390625 
z
M 14.796875 27.296875 
Q 14.796875 17.390625 18.875 11.75 
Q 22.953125 6.109375 30.078125 6.109375 
Q 37.203125 6.109375 41.296875 11.75 
Q 45.40625 17.390625 45.40625 27.296875 
Q 45.40625 37.203125 41.296875 42.84375 
Q 37.203125 48.484375 30.078125 48.484375 
Q 22.953125 48.484375 18.875 42.84375 
Q 14.796875 37.203125 14.796875 27.296875 
z
" id="DejaVuSans-100"/>
     </defs>
     <g transform="translate(38.157812 193.457687)rotate(-90)scale(0.1 -0.1)">
      <use xlink:href="#DejaVuSans-82"/>
      <use x="69.419922" xlink:href="#DejaVuSans-101"/>
      <use x="130.943359" xlink:href="#DejaVuSans-119"/>
      <use x="212.730469" xlink:href="#DejaVuSans-97"/>
      <use x="274.009766" xlink:href="#DejaVuSans-114"/>
      <use x="315.107422" xlink:href="#DejaVuSans-100"/>
     </g>
    </g>
   </g>
   <g id="line2d_29">
    <path clip-path="url(#p07f3dea336)" d="M 57.6 284.705378 
L 57.600145 295.488 
L 58.926152 293.693532 
L 59.195882 294.337123 
L 59.413499 294.000146 
L 60.411351 294.142415 
L 60.970067 293.004067 
L 61.527022 293.512779 
L 61.795856 294.159985 
L 62.352974 291.386596 
L 62.906391 293.528979 
L 63.193628 291.748616 
L 63.839293 293.010728 
L 64.10132 291.240729 
L 64.392125 291.124294 
L 64.66182 290.201106 
L 64.950479 290.105463 
L 65.813234 287.362619 
L 66.381175 284.90695 
L 66.949447 283.325244 
L 67.249089 281.748955 
L 67.695217 280.292305 
L 68.55951 274.249622 
L 68.861932 273.663927 
L 69.144601 271.471782 
L 69.450866 270.132562 
L 70.771106 267.635803 
L 72.203315 267.059905 
L 72.512793 264.99984 
L 73.105669 264.190274 
L 73.168517 264.61485 
L 73.453612 263.412768 
L 74.967824 259.323784 
L 77.069545 257.865237 
L 77.988849 257.931532 
L 78.278353 258.481283 
L 80.378578 252.124183 
L 81.118619 248.547092 
L 83.106846 242.69344 
L 83.419988 242.738868 
L 83.712567 243.592471 
L 84.628898 241.310336 
L 84.803318 241.383426 
L 86.617335 243.272039 
L 87.222401 242.546175 
L 87.828142 241.023793 
L 88.138405 239.484454 
L 88.431064 239.59406 
L 88.744929 238.892395 
L 90.216599 233.613914 
L 91.13473 231.902416 
L 91.675592 229.26427 
L 92.280056 228.267854 
L 92.883399 230.531036 
L 93.775316 229.809599 
L 94.574541 228.338007 
L 95.383733 230.1087 
L 96.282107 231.791123 
L 97.794301 226.045075 
L 98.40612 226.794299 
L 99.015046 229.892556 
L 100.310602 231.417774 
L 100.605912 233.306879 
L 101.218703 232.166555 
L 101.870931 234.537042 
L 103.613397 230.371175 
L 105.750253 234.530556 
L 106.377288 234.943753 
L 107.243985 233.214847 
L 108.173858 232.336225 
L 109.129293 234.64851 
L 110.056847 233.689125 
L 110.115295 233.105559 
L 110.926049 236.197864 
L 111.225974 234.755039 
L 111.851327 236.761331 
L 112.826969 234.848562 
L 113.128918 235.859966 
L 113.22881 231.996658 
L 113.727161 233.55219 
L 116.75163 233.345932 
L 117.070794 235.424205 
L 118.074551 236.775731 
L 119.035687 232.467233 
L 119.144045 229.480859 
L 119.456725 229.790536 
L 119.794585 228.475858 
L 120.446706 226.750125 
L 121.72734 228.956431 
L 122.376132 226.386397 
L 122.938636 222.348524 
L 123.597318 222.483593 
L 125.138742 218.203611 
L 125.601731 221.67442 
L 126.79947 216.329253 
L 128.464133 220.462708 
L 129.124816 217.419944 
L 129.443141 217.970843 
L 131.203842 212.963569 
L 131.864567 213.43792 
L 132.008664 206.67648 
L 132.979448 201.0351 
L 133.30292 201.913693 
L 133.971033 201.239825 
L 134.683752 197.387097 
L 135.760191 196.528132 
L 136.084319 198.305948 
L 136.240357 200.048213 
L 136.583519 201.75563 
L 137.255263 204.259619 
L 137.901485 201.847788 
L 138.230293 204.328292 
L 138.568922 203.522866 
L 139.403529 202.043051 
L 139.46375 199.665161 
L 140.135632 197.445989 
L 141.468015 195.717372 
L 141.873662 196.065586 
L 142.957541 190.439518 
L 143.455886 190.155298 
L 143.808279 192.060564 
L 145.497664 194.034772 
L 145.850644 195.053371 
L 146.079367 194.683534 
L 146.582843 191.043459 
L 146.591687 193.740049 
L 146.926662 194.764552 
L 147.138087 190.6761 
L 148.235973 187.737391 
L 148.843488 182.363443 
L 149.202554 186.042715 
L 149.893264 185.964976 
L 150.980047 184.216616 
L 151.201779 181.386172 
L 151.557123 190.748563 
L 152.245012 188.89867 
L 152.577501 191.638161 
L 153.283314 187.95776 
L 153.641214 187.479744 
L 153.649684 190.247611 
L 154.108958 193.223491 
L 154.450889 192.640161 
L 154.506264 189.641248 
L 154.622103 193.174967 
L 157.548947 183.571915 
L 158.433806 177.269712 
L 160.314345 180.039922 
L 160.676298 179.720258 
L 161.520543 175.269867 
L 162.23838 178.029786 
L 162.684987 177.476452 
L 162.784624 172.139078 
L 163.584424 165.944186 
L 165.734625 168.897043 
L 166.083282 168.800237 
L 166.220657 163.806446 
L 167.002931 164.533806 
L 168.246315 162.937624 
L 170.171142 161.238492 
L 170.521807 162.91302 
L 170.897912 163.744969 
L 171.24643 166.178453 
L 171.474138 161.288482 
L 171.762865 161.343844 
L 172.869374 163.121545 
L 173.221839 163.949337 
L 173.25914 161.524235 
L 174.071583 156.899347 
L 174.114502 154.615245 
L 175.367985 160.091353 
L 177.223883 157.410899 
L 178.011518 155.374481 
L 178.091522 157.166282 
L 178.165705 152.633196 
L 178.571963 150.706866 
L 179.689536 151.491941 
L 182.397528 146.022854 
L 182.700863 144.608568 
L 183.085574 144.188451 
L 183.3836 142.967653 
L 184.011094 144.611857 
L 184.413797 144.621338 
L 184.451489 142.582798 
L 184.981449 145.828044 
L 185.944044 138.950758 
L 186.330594 141.88013 
L 187.471783 145.077122 
L 188.502882 148.604013 
L 188.871224 149.722149 
L 189.254925 152.43609 
L 189.616955 153.477578 
L 189.997241 151.261917 
L 190.057774 149.090565 
L 190.109494 151.00805 
L 190.471836 151.269025 
L 190.545503 149.097538 
L 190.95268 148.848475 
L 191.430634 147.300056 
L 191.790216 148.444272 
L 191.828116 146.329276 
L 192.276525 145.413116 
L 193.132118 146.113199 
L 193.563615 145.254147 
L 194.135921 145.950179 
L 194.959439 143.565451 
L 195.480402 145.185986 
L 196.33939 142.812687 
L 197.802897 149.205051 
L 197.91272 147.074835 
L 198.698686 144.917758 
L 199.139637 146.436201 
L 199.508526 146.78861 
L 199.576865 145.515806 
L 199.938673 148.313872 
L 200.325186 147.819642 
L 200.684829 148.14439 
L 201.443262 149.583598 
L 201.834374 152.300298 
L 203.290449 149.699425 
L 203.484749 147.559323 
L 203.965044 153.255193 
L 204.01136 151.043978 
L 204.812242 153.29955 
L 205.21031 152.884091 
L 205.864443 153.753367 
L 206.288067 154.921908 
L 207.03937 159.296691 
L 207.459784 157.850847 
L 208.320864 157.374354 
L 209.15842 153.213729 
L 209.345507 151.003344 
L 209.469154 147.507211 
L 210.398184 149.273675 
L 211.386415 149.009643 
L 212.561477 148.02809 
L 214.140551 143.983658 
L 214.256531 138.819942 
L 214.630414 138.515594 
L 215.017005 139.026413 
L 215.388793 141.14518 
L 215.785095 140.794333 
L 216.052259 142.068661 
L 216.718814 142.537119 
L 217.699396 138.767146 
L 217.767625 136.845696 
L 218.696572 140.529684 
L 219.579822 140.375026 
L 219.841753 136.506876 
L 220.24223 137.057876 
L 220.303025 135.97969 
L 221.034933 132.079567 
L 221.411543 132.719108 
L 221.727965 130.918616 
L 221.857288 127.424934 
L 222.300388 132.856231 
L 222.423751 130.078729 
L 223.198216 129.822268 
L 223.597745 132.12512 
L 223.636852 131.145592 
L 224.034116 131.803816 
L 224.072244 130.021621 
L 224.4524 129.893246 
L 224.922223 130.404672 
L 224.998359 128.650467 
L 226.607709 125.697445 
L 227.71211 125.573603 
L 228.111167 127.152346 
L 228.491433 127.890431 
L 228.961194 127.688271 
L 229.438343 125.052792 
L 229.885086 127.341707 
L 230.33731 127.161268 
L 230.837507 129.18345 
L 231.534636 126.276657 
L 231.802191 121.361339 
L 232.126375 119.788006 
L 232.17344 118.246136 
L 232.956286 120.060227 
L 233.306519 117.368536 
L 234.32713 115.704927 
L 234.590154 116.778204 
L 234.666853 114.653582 
L 234.784305 115.641636 
L 235.241436 117.607424 
L 235.502159 113.201931 
L 235.89251 115.028117 
L 236.49365 112.360115 
L 236.572766 109.601353 
L 236.866226 114.217377 
L 237.323696 118.569726 
L 237.774533 118.153061 
L 237.896572 114.49253 
L 238.141849 113.50654 
L 238.515169 113.708468 
L 238.907438 115.524507 
L 239.397215 115.876762 
L 239.518235 113.771643 
L 239.848351 114.128585 
L 240.211647 115.127152 
L 240.594147 118.532998 
L 241.549163 117.400654 
L 242.082261 117.057176 
L 242.453101 118.806241 
L 242.890517 117.378008 
L 243.188075 120.779937 
L 243.302269 116.964912 
L 243.385422 117.988305 
L 243.69984 116.48243 
L 243.745843 115.006667 
L 244.189305 117.806671 
L 244.610773 117.259471 
L 244.747694 115.099606 
L 244.881157 110.841585 
L 245.293863 111.314557 
L 245.680441 111.560331 
L 245.720621 110.183005 
L 246.556946 111.226074 
L 246.686335 108.00495 
L 247.407602 111.033675 
L 247.536095 107.807671 
L 248.080735 105.08394 
L 248.747417 107.839056 
L 249.222225 108.053426 
L 249.616977 109.982582 
L 250.061079 111.36338 
L 250.563748 111.07133 
L 250.988549 109.949403 
L 251.63435 109.134978 
L 251.783447 105.227747 
L 252.145296 107.213403 
L 252.325318 110.777523 
L 252.698643 106.773687 
L 253.357255 106.237811 
L 254.113441 107.718339 
L 254.292659 105.143391 
L 254.33802 103.894421 
L 254.397402 106.715837 
L 255.339559 111.278639 
L 255.414275 109.371783 
L 255.802659 111.274569 
L 256.488336 108.313725 
L 256.703901 104.454776 
L 257.314709 115.890149 
L 257.35283 115.235311 
L 257.40689 113.784509 
L 258.161754 115.759093 
L 258.627746 111.4623 
L 258.749509 107.418205 
L 259.166239 108.819644 
L 259.204446 107.49714 
L 259.687856 107.666892 
L 259.847888 107.891409 
L 259.886283 107.396543 
L 260.937253 110.526309 
L 260.975543 109.169662 
L 261.345902 109.458318 
L 261.451415 106.814466 
L 261.773632 105.532066 
L 261.814699 104.275321 
L 262.261998 105.80122 
L 262.307961 104.539074 
L 262.695566 104.920341 
L 263.075839 110.016532 
L 263.156301 109.47917 
L 263.241551 106.834489 
L 263.663736 105.912697 
L 264.704806 104.152926 
L 264.94727 106.969153 
L 265.091492 103.189293 
L 266.420102 108.000899 
L 266.563912 104.160353 
L 268.07062 114.935641 
L 268.435785 116.727143 
L 268.824538 120.910068 
L 269.039821 114.838033 
L 269.562558 114.640832 
L 269.934038 116.438217 
L 270.070197 113.517979 
L 270.50272 113.10824 
L 270.716788 111.699953 
L 270.974887 105.069954 
L 271.661192 107.268901 
L 272.038024 107.595577 
L 272.188315 105.025491 
L 272.680035 104.580065 
L 272.929392 104.960522 
L 272.968614 103.715197 
L 273.744585 112.831216 
L 273.989882 111.428484 
L 275.897942 105.797516 
L 276.290315 109.389954 
L 276.739373 109.176047 
L 276.844895 106.543384 
L 277.110286 110.120891 
L 277.612216 106.932714 
L 277.756183 103.154996 
L 278.128156 105.182107 
L 278.289871 103.932345 
L 278.327258 102.707583 
L 278.908999 102.382296 
L 280.882075 110.648087 
L 281.051905 106.149771 
L 281.419156 109.735149 
L 281.81641 110.0125 
L 282.550448 112.168835 
L 282.755795 107.568301 
L 283.908819 113.301661 
L 284.000362 110.505611 
L 285.032008 108.441464 
L 285.077871 107.126521 
L 285.587959 108.936889 
L 285.666274 106.313698 
L 286.618052 104.460544 
L 286.942601 103.225211 
L 287.439946 103.22309 
L 287.872412 102.411944 
L 288.137354 98.568871 
L 288.58021 98.783473 
L 289.331753 102.95411 
L 289.520238 98.27603 
L 289.674259 98.178981 
L 289.905918 97.069285 
L 290.124339 98.409034 
L 290.163263 97.294746 
L 290.783606 97.06234 
L 291.109985 100.020387 
L 291.806227 95.855846 
L 291.892044 93.750649 
L 292.344789 94.107534 
L 292.710536 95.506504 
L 292.719061 100.113847 
L 294.327547 101.389959 
L 294.748016 101.444318 
L 295.190805 105.15782 
L 295.511139 101.101573 
L 295.645698 97.666754 
L 295.843965 101.421807 
L 296.355902 105.849599 
L 296.722945 107.013732 
L 297.154874 110.130266 
L 297.239736 107.459795 
L 298.064715 109.154461 
L 298.102768 107.825244 
L 298.853019 113.239798 
L 299.729827 105.444567 
L 299.774934 104.189558 
L 299.886133 105.386909 
L 300.03236 101.700085 
L 300.348411 101.329061 
L 300.731716 105.01085 
L 300.913779 101.346152 
L 301.054566 106.645775 
L 301.433363 110.221238 
L 302.654276 101.697481 
L 303.121591 100.574609 
L 303.329209 95.790569 
L 303.713034 97.155897 
L 304.166696 95.53893 
L 304.663601 94.778229 
L 304.709527 93.736548 
L 304.905585 92.715701 
L 305.279342 94.142526 
L 305.686807 94.532435 
L 305.782441 92.479649 
L 306.414206 96.883715 
L 306.763945 90.468877 
L 307.507374 93.366759 
L 307.599762 91.360134 
L 307.965202 92.00498 
L 308.00252 91.018778 
L 309.150973 88.400139 
L 309.793181 87.330449 
L 310.057517 88.527511 
L 310.27282 85.74645 
L 311.063972 86.41861 
L 311.207163 84.624311 
L 311.656632 84.582046 
L 311.75896 82.923298 
L 312.143876 83.736893 
L 312.572325 83.729775 
L 312.814785 79.787127 
L 312.978639 82.281596 
L 313.549568 88.691495 
L 313.833301 86.706784 
L 313.945968 88.253766 
L 314.066675 86.449629 
L 314.448934 89.619924 
L 314.544401 88.681426 
L 314.928408 83.431647 
L 315.19326 84.245705 
L 315.633909 81.01999 
L 315.764157 81.062563 
L 316.038059 79.543185 
L 316.913655 80.521131 
L 317.008779 79.023203 
L 317.642281 78.393654 
L 317.883884 74.963696 
L 318.06069 74.49491 
L 318.7223 76.557573 
L 319.005048 80.734807 
L 319.083374 79.228411 
L 319.172273 79.306805 
L 319.253849 78.574556 
L 319.651254 80.902668 
L 320.061007 84.147037 
L 320.099119 83.317971 
L 320.418963 82.502177 
L 320.464223 81.70602 
L 320.947086 85.075408 
L 321.034312 84.227785 
L 321.743196 84.931581 
L 322.128145 85.704995 
L 322.194409 84.844796 
L 322.665706 83.984171 
L 323.090546 83.934905 
L 323.46016 83.110083 
L 323.823931 78.541782 
L 324.519563 78.812383 
L 324.625071 78.191186 
L 324.850294 75.435511 
L 325.178666 74.780692 
L 325.215488 74.948033 
L 325.368379 72.444131 
L 325.549057 72.561858 
L 325.844092 72.188172 
L 325.896594 71.598302 
L 326.898184 71.813637 
L 327.35397 76.42885 
L 327.90399 91.324525 
L 327.942206 90.351922 
L 327.995186 89.398764 
L 328.396355 89.792376 
L 328.516283 90.354545 
L 328.532527 95.064917 
L 328.735671 96.162654 
L 328.839308 94.045304 
L 329.144039 92.82089 
L 329.190224 91.818368 
L 329.660234 90.547638 
L 330.356376 89.058102 
L 332.44569 93.299282 
L 332.726544 88.283839 
L 333.196613 87.188629 
L 333.242184 86.298742 
L 333.64491 89.329416 
L 334.034172 90.014867 
L 334.07623 89.877542 
L 335.27256 94.57769 
L 335.36396 92.52311 
L 335.748515 90.549895 
L 335.919853 88.654825 
L 336.330965 89.262036 
L 336.426951 87.417949 
L 337.150646 89.578547 
L 338.030274 92.86055 
L 338.0675 91.857238 
L 338.809124 87.569009 
L 338.847585 86.671522 
L 339.339356 87.206781 
L 340.16353 83.763976 
L 341.101989 86.000383 
L 341.137674 85.943343 
L 341.326666 82.585838 
L 341.429381 84.997302 
L 341.87225 84.907912 
L 341.962118 83.236259 
L 342.961986 84.123889 
L 343.015893 83.295306 
L 343.075556 84.910536 
L 343.135582 84.875293 
L 343.526709 84.823094 
L 343.639979 82.345581 
L 344.025969 83.170731 
L 344.07149 82.361206 
L 344.423474 88.040515 
L 344.979006 91.40942 
L 345.460299 91.858993 
L 346.007988 89.451213 
L 346.267475 85.821391 
L 346.800779 86.104222 
L 346.978982 85.178088 
L 347.490243 81.105291 
L 347.736563 78.123382 
L 347.9295 79.147643 
L 348.214261 78.418577 
L 348.645993 82.61892 
L 348.859395 79.519516 
L 350.419309 89.369616 
L 350.457914 88.436115 
L 351.342929 88.688312 
L 351.401742 87.768448 
L 352.853566 84.771339 
L 352.892715 83.929793 
L 353.256532 87.055123 
L 353.688648 86.916601 
L 353.764962 88.337002 
L 353.855055 87.322463 
L 354.414296 90.947771 
L 354.560191 89.982711 
L 354.67326 88.110094 
L 355.046356 90.43811 
L 355.389345 88.547457 
L 355.586885 86.731668 
L 355.969869 87.469087 
L 356.137377 85.645061 
L 356.80528 94.223313 
L 356.8516 94.001805 
L 357.262217 90.984519 
L 357.369214 89.072222 
L 357.541427 90.309349 
L 357.582519 89.357039 
L 357.679478 90.851032 
L 358.659179 88.730712 
L 358.827238 86.816312 
L 358.876941 85.933871 
L 359.1754 86.648837 
L 359.409823 84.90824 
L 359.494245 83.236568 
L 360.040334 82.438173 
L 360.234611 80.129833 
L 360.626633 80.999273 
L 361.16416 79.539539 
L 361.484205 75.33339 
L 361.500003 79.535103 
L 361.577705 78.869115 
L 361.622109 81.381948 
L 362.141365 82.343131 
L 362.179516 81.550157 
L 362.342886 80.773039 
L 362.695629 75.899378 
L 363.450183 70.556641 
L 364.093335 69.979445 
L 364.242423 69.433731 
L 364.288958 69.708035 
L 364.326152 69.16776 
L 364.505844 76.938415 
L 364.877447 73.16876 
L 365.265535 74.986516 
L 365.350874 73.707762 
L 365.771323 74.065437 
L 365.90097 72.220559 
L 366.168893 71.630034 
L 366.214167 71.860415 
L 366.417368 69.058154 
L 366.508623 69.339962 
L 366.752922 66.779887 
L 366.837315 71.489661 
L 366.913666 70.34937 
L 367.769597 73.705852 
L 368.368054 68.454492 
L 368.779437 69.020191 
L 368.879276 67.977701 
L 369.380101 69.646577 
L 369.827968 65.624319 
L 370.324413 67.416053 
L 370.414548 66.437084 
L 371.105408 65.637147 
L 371.143357 65.178295 
L 371.268494 66.251264 
L 371.81952 62.273836 
L 372.384521 63.084981 
L 372.423423 63.486252 
L 372.502302 62.662896 
L 372.992976 68.075 
L 373.288201 65.939113 
L 373.835402 67.306177 
L 374.180683 64.060516 
L 374.629162 64.832579 
L 375.129471 65.46126 
L 375.514158 62.862239 
L 375.990722 64.831962 
L 376.361813 63.113376 
L 376.589791 64.683487 
L 376.730558 68.592416 
L 376.993785 66.104158 
L 377.042265 66.445051 
L 377.496971 69.455741 
L 377.60637 68.395986 
L 377.838602 71.658101 
L 377.902893 71.078841 
L 378.300913 74.809299 
L 378.339565 74.166999 
L 378.56937 71.723726 
L 378.996943 72.952866 
L 379.186692 70.603844 
L 379.847672 65.963842 
L 379.90233 66.307533 
L 380.430835 63.193564 
L 380.476648 63.592656 
L 380.874273 65.601942 
L 380.913929 65.143785 
L 382.681819 71.592515 
L 382.750642 71.014548 
L 383.136283 72.066316 
L 383.672275 70.021324 
L 384.199964 68.676925 
L 384.300836 76.55275 
L 384.340419 75.875574 
L 385.077158 76.255395 
L 385.336076 73.649988 
L 385.618248 74.192385 
L 385.704171 72.945073 
L 386.090327 74.767305 
L 386.401863 71.898841 
L 386.891613 71.735473 
L 386.979045 70.585441 
L 387.261243 70.290034 
L 387.386351 68.667184 
L 387.766954 69.765905 
L 387.913796 68.17388 
L 388.561386 68.104533 
L 388.67085 67.907369 
L 389.159511 65.838206 
L 389.326358 68.441664 
L 389.387671 67.926717 
L 389.785657 65.046255 
L 390.042748 63.64497 
L 390.510812 65.242569 
L 390.884865 64.349673 
L 391.168395 63.030544 
L 391.745073 87.819278 
L 391.791155 86.916775 
L 393.593235 85.830766 
L 393.995448 101.922383 
L 394.449127 101.971823 
L 394.738756 95.966359 
L 394.918729 96.519075 
L 394.959659 95.442596 
L 394.990943 97.62395 
L 395.058803 96.525364 
L 395.43721 97.875993 
L 395.57889 94.630872 
L 395.850026 93.592143 
L 396.230118 94.192352 
L 396.322834 92.153031 
L 397.081023 90.478484 
L 397.487317 84.093604 
L 397.983326 84.005988 
L 398.132463 81.576526 
L 399.132228 81.760553 
L 399.602759 75.360569 
L 400.723564 67.808257 
L 401.310173 66.887873 
L 402.097621 70.735768 
L 402.329699 68.04157 
L 402.549492 70.274139 
L 402.739503 68.133082 
L 403.453776 69.26639 
L 403.705498 66.713375 
L 404.032678 66.55512 
L 404.553629 63.408513 
L 404.598693 67.039627 
L 404.636843 66.552728 
L 404.719243 66.07557 
L 405.267007 68.745964 
L 405.331984 71.678838 
L 406.008628 72.369189 
L 406.248713 70.065479 
L 406.552356 68.981592 
L 406.695166 67.43569 
L 406.741132 68.559025 
L 407.088506 67.360189 
L 407.363875 64.990314 
L 408.111679 66.021674 
L 408.258214 64.649826 
L 408.63934 64.167768 
L 408.726404 63.317406 
L 408.850805 64.118906 
L 408.875184 65.30858 
L 408.92308 64.856306 
L 409.127699 63.928726 
L 409.250437 63.087855 
L 409.657031 64.298149 
L 410.084152 61.835566 
L 410.882587 60.349599 
L 411.18087 58.979004 
L 411.831853 57.714794 
L 411.941262 57.929068 
L 412.180757 57.226834 
L 412.91622 53.870159 
L 413.051994 54.79907 
L 413.092913 54.556961 
L 413.529268 56.46592 
L 413.575615 56.190478 
L 414.200978 55.219766 
L 414.589813 53.568 
L 414.72 54.723202 
L 414.72 54.723202 
" style="fill:none;stroke:#000000;stroke-linecap:square;stroke-width:0.8;"/>
   </g>
   <g id="patch_3">
    <path d="M 57.6 307.584 
L 57.6 41.472 
" style="fill:none;stroke:#000000;stroke-linecap:square;stroke-linejoin:miter;stroke-width:0.8;"/>
   </g>
   <g id="patch_4">
    <path d="M 414.72 307.584 
L 414.72 41.472 
" style="fill:none;stroke:#000000;stroke-linecap:square;stroke-linejoin:miter;stroke-width:0.8;"/>
   </g>
   <g id="patch_5">
    <path d="M 57.6 307.584 
L 414.72 307.584 
" style="fill:none;stroke:#000000;stroke-linecap:square;stroke-linejoin:miter;stroke-width:0.8;"/>
   </g>
   <g id="patch_6">
    <path d="M 57.6 41.472 
L 414.72 41.472 
" style="fill:none;stroke:#000000;stroke-linecap:square;stroke-linejoin:miter;stroke-width:0.8;"/>
   </g>
  </g>
  <g id="axes_2">
   <g id="matplotlib.axis_3">
    <g id="xtick_8">
     <g id="line2d_30">
      <defs>
       <path d="M 0 0 
L 0 -3.5 
" id="mac3355b806" style="stroke:#000000;stroke-width:0.8;"/>
      </defs>
      <g>
       <use style="stroke:#000000;stroke-width:0.8;" x="57.6" xlink:href="#mac3355b806" y="41.472"/>
      </g>
     </g>
    </g>
    <g id="xtick_9">
     <g id="line2d_31">
      <g>
       <use style="stroke:#000000;stroke-width:0.8;" x="97.798109" xlink:href="#mac3355b806" y="41.472"/>
      </g>
     </g>
     <g id="text_17">
      <!-- 250 -->
      <g transform="translate(88.254359 32.392313)scale(0.1 -0.1)">
       <use xlink:href="#DejaVuSans-50"/>
       <use x="63.623047" xlink:href="#DejaVuSans-53"/>
       <use x="127.246094" xlink:href="#DejaVuSans-48"/>
      </g>
     </g>
    </g>
    <g id="xtick_10">
     <g id="line2d_32">
      <g>
       <use style="stroke:#000000;stroke-width:0.8;" x="137.996218" xlink:href="#mac3355b806" y="41.472"/>
      </g>
     </g>
     <g id="text_18">
      <!-- 500 -->
      <g transform="translate(128.452468 32.392313)scale(0.1 -0.1)">
       <use xlink:href="#DejaVuSans-53"/>
       <use x="63.623047" xlink:href="#DejaVuSans-48"/>
       <use x="127.246094" xlink:href="#DejaVuSans-48"/>
      </g>
     </g>
    </g>
    <g id="xtick_11">
     <g id="line2d_33">
      <g>
       <use style="stroke:#000000;stroke-width:0.8;" x="178.194327" xlink:href="#mac3355b806" y="41.472"/>
      </g>
     </g>
     <g id="text_19">
      <!-- 750 -->
      <defs>
       <path d="M 8.203125 72.90625 
L 55.078125 72.90625 
L 55.078125 68.703125 
L 28.609375 0 
L 18.3125 0 
L 43.21875 64.59375 
L 8.203125 64.59375 
z
" id="DejaVuSans-55"/>
      </defs>
      <g transform="translate(168.650577 32.392313)scale(0.1 -0.1)">
       <use xlink:href="#DejaVuSans-55"/>
       <use x="63.623047" xlink:href="#DejaVuSans-53"/>
       <use x="127.246094" xlink:href="#DejaVuSans-48"/>
      </g>
     </g>
    </g>
    <g id="xtick_12">
     <g id="line2d_34">
      <g>
       <use style="stroke:#000000;stroke-width:0.8;" x="218.392436" xlink:href="#mac3355b806" y="41.472"/>
      </g>
     </g>
     <g id="text_20">
      <!-- 1,000 -->
      <defs>
       <path d="M 11.71875 12.40625 
L 22.015625 12.40625 
L 22.015625 4 
L 14.015625 -11.625 
L 7.71875 -11.625 
L 11.71875 4 
z
" id="DejaVuSans-44"/>
      </defs>
      <g transform="translate(204.078373 32.392313)scale(0.1 -0.1)">
       <use xlink:href="#DejaVuSans-49"/>
       <use x="63.623047" xlink:href="#DejaVuSans-44"/>
       <use x="95.410156" xlink:href="#DejaVuSans-48"/>
       <use x="159.033203" xlink:href="#DejaVuSans-48"/>
       <use x="222.65625" xlink:href="#DejaVuSans-48"/>
      </g>
     </g>
    </g>
    <g id="xtick_13">
     <g id="line2d_35">
      <g>
       <use style="stroke:#000000;stroke-width:0.8;" x="258.590545" xlink:href="#mac3355b806" y="41.472"/>
      </g>
     </g>
     <g id="text_21">
      <!-- 1.25K -->
      <defs>
       <path d="M 9.8125 72.90625 
L 19.671875 72.90625 
L 19.671875 42.09375 
L 52.390625 72.90625 
L 65.09375 72.90625 
L 28.90625 38.921875 
L 67.671875 0 
L 54.6875 0 
L 19.671875 35.109375 
L 19.671875 0 
L 9.8125 0 
z
" id="DejaVuSans-75"/>
      </defs>
      <g transform="translate(244.178826 32.392313)scale(0.1 -0.1)">
       <use xlink:href="#DejaVuSans-49"/>
       <use x="63.623047" xlink:href="#DejaVuSans-46"/>
       <use x="95.410156" xlink:href="#DejaVuSans-50"/>
       <use x="159.033203" xlink:href="#DejaVuSans-53"/>
       <use x="222.65625" xlink:href="#DejaVuSans-75"/>
      </g>
     </g>
    </g>
    <g id="xtick_14">
     <g id="line2d_36">
      <g>
       <use style="stroke:#000000;stroke-width:0.8;" x="298.788654" xlink:href="#mac3355b806" y="41.472"/>
      </g>
     </g>
     <g id="text_22">
      <!-- 1.50K -->
      <g transform="translate(284.376935 32.392313)scale(0.1 -0.1)">
       <use xlink:href="#DejaVuSans-49"/>
       <use x="63.623047" xlink:href="#DejaVuSans-46"/>
       <use x="95.410156" xlink:href="#DejaVuSans-53"/>
       <use x="159.033203" xlink:href="#DejaVuSans-48"/>
       <use x="222.65625" xlink:href="#DejaVuSans-75"/>
      </g>
     </g>
    </g>
    <g id="xtick_15">
     <g id="line2d_37">
      <g>
       <use style="stroke:#000000;stroke-width:0.8;" x="338.986763" xlink:href="#mac3355b806" y="41.472"/>
      </g>
     </g>
     <g id="text_23">
      <!-- 1.75K -->
      <g transform="translate(324.575044 32.392313)scale(0.1 -0.1)">
       <use xlink:href="#DejaVuSans-49"/>
       <use x="63.623047" xlink:href="#DejaVuSans-46"/>
       <use x="95.410156" xlink:href="#DejaVuSans-55"/>
       <use x="159.033203" xlink:href="#DejaVuSans-53"/>
       <use x="222.65625" xlink:href="#DejaVuSans-75"/>
      </g>
     </g>
    </g>
    <g id="xtick_16">
     <g id="line2d_38">
      <g>
       <use style="stroke:#000000;stroke-width:0.8;" x="379.184872" xlink:href="#mac3355b806" y="41.472"/>
      </g>
     </g>
     <g id="text_24">
      <!-- 2.00K -->
      <g transform="translate(364.773153 32.392313)scale(0.1 -0.1)">
       <use xlink:href="#DejaVuSans-50"/>
       <use x="63.623047" xlink:href="#DejaVuSans-46"/>
       <use x="95.410156" xlink:href="#DejaVuSans-48"/>
       <use x="159.033203" xlink:href="#DejaVuSans-48"/>
       <use x="222.65625" xlink:href="#DejaVuSans-75"/>
      </g>
     </g>
    </g>
    <g id="text_25">
     <!-- Episodes -->
     <defs>
      <path d="M 9.8125 72.90625 
L 55.90625 72.90625 
L 55.90625 64.59375 
L 19.671875 64.59375 
L 19.671875 43.015625 
L 54.390625 43.015625 
L 54.390625 34.71875 
L 19.671875 34.71875 
L 19.671875 8.296875 
L 56.78125 8.296875 
L 56.78125 0 
L 9.8125 0 
z
" id="DejaVuSans-69"/>
      <path d="M 18.109375 8.203125 
L 18.109375 -20.796875 
L 9.078125 -20.796875 
L 9.078125 54.6875 
L 18.109375 54.6875 
L 18.109375 46.390625 
Q 20.953125 51.265625 25.265625 53.625 
Q 29.59375 56 35.59375 56 
Q 45.5625 56 51.78125 48.09375 
Q 58.015625 40.1875 58.015625 27.296875 
Q 58.015625 14.40625 51.78125 6.484375 
Q 45.5625 -1.421875 35.59375 -1.421875 
Q 29.59375 -1.421875 25.265625 0.953125 
Q 20.953125 3.328125 18.109375 8.203125 
z
M 48.6875 27.296875 
Q 48.6875 37.203125 44.609375 42.84375 
Q 40.53125 48.484375 33.40625 48.484375 
Q 26.265625 48.484375 22.1875 42.84375 
Q 18.109375 37.203125 18.109375 27.296875 
Q 18.109375 17.390625 22.1875 11.75 
Q 26.265625 6.109375 33.40625 6.109375 
Q 40.53125 6.109375 44.609375 11.75 
Q 48.6875 17.390625 48.6875 27.296875 
z
" id="DejaVuSans-112"/>
      <path d="M 9.421875 54.6875 
L 18.40625 54.6875 
L 18.40625 0 
L 9.421875 0 
z
M 9.421875 75.984375 
L 18.40625 75.984375 
L 18.40625 64.59375 
L 9.421875 64.59375 
z
" id="DejaVuSans-105"/>
     </defs>
     <g transform="translate(213.917812 20.793875)scale(0.1 -0.1)">
      <use xlink:href="#DejaVuSans-69"/>
      <use x="63.183594" xlink:href="#DejaVuSans-112"/>
      <use x="126.660156" xlink:href="#DejaVuSans-105"/>
      <use x="154.443359" xlink:href="#DejaVuSans-115"/>
      <use x="206.542969" xlink:href="#DejaVuSans-111"/>
      <use x="267.724609" xlink:href="#DejaVuSans-100"/>
      <use x="331.201172" xlink:href="#DejaVuSans-101"/>
      <use x="392.724609" xlink:href="#DejaVuSans-115"/>
     </g>
    </g>
   </g>
   <g id="patch_7">
    <path d="M 57.6 307.584 
L 57.6 41.472 
" style="fill:none;stroke:#000000;stroke-linecap:square;stroke-linejoin:miter;stroke-width:0.8;"/>
   </g>
   <g id="patch_8">
    <path d="M 414.72 307.584 
L 414.72 41.472 
" style="fill:none;stroke:#000000;stroke-linecap:square;stroke-linejoin:miter;stroke-width:0.8;"/>
   </g>
   <g id="patch_9">
    <path d="M 57.6 307.584 
L 414.72 307.584 
" style="fill:none;stroke:#000000;stroke-linecap:square;stroke-linejoin:miter;stroke-width:0.8;"/>
   </g>
   <g id="patch_10">
    <path d="M 57.6 41.472 
L 414.72 41.472 
" style="fill:none;stroke:#000000;stroke-linecap:square;stroke-linejoin:miter;stroke-width:0.8;"/>
   </g>
  </g>
 </g>
 <defs>
  <clipPath id="p07f3dea336">
   <rect height="266.112" width="357.12" x="57.6" y="41.472"/>
  </clipPath>
 </defs>
</svg>
