<?xml version="1.0" encoding="utf-8" standalone="no"?>
<!DOCTYPE svg PUBLIC "-//W3C//DTD SVG 1.1//EN"
  "http://www.w3.org/Graphics/SVG/1.1/DTD/svg11.dtd">
<!-- Created with matplotlib (https://matplotlib.org/) -->
<svg height="345.6pt" version="1.1" viewBox="0 0 460.8 345.6" width="460.8pt" xmlns="http://www.w3.org/2000/svg" xmlns:xlink="http://www.w3.org/1999/xlink">
 <defs>
  <style type="text/css">
*{stroke-linecap:butt;stroke-linejoin:round;}
  </style>
 </defs>
 <g id="figure_1">
  <g id="patch_1">
   <path d="M 0 345.6 
L 460.8 345.6 
L 460.8 0 
L 0 0 
z
" style="fill:#ffffff;"/>
  </g>
  <g id="axes_1">
   <g id="patch_2">
    <path d="M 57.6 307.584 
L 414.72 307.584 
L 414.72 41.472 
L 57.6 41.472 
z
" style="fill:#ffffff;"/>
   </g>
   <g id="matplotlib.axis_1">
    <g id="xtick_1">
     <g id="line2d_1">
      <path clip-path="url(#pddbf95082b)" d="M 57.6 307.584 
L 57.6 41.472 
" style="fill:none;stroke:#b0b0b0;stroke-linecap:square;stroke-width:0.8;"/>
     </g>
     <g id="line2d_2">
      <defs>
       <path d="M 0 0 
L 0 3.5 
" id="m8972087581" style="stroke:#000000;stroke-width:0.8;"/>
      </defs>
      <g>
       <use style="stroke:#000000;stroke-width:0.8;" x="57.6" xlink:href="#m8972087581" y="307.584"/>
      </g>
     </g>
     <g id="text_1">
      <!-- 0.0 -->
      <defs>
       <path d="M 31.78125 66.40625 
Q 24.171875 66.40625 20.328125 58.90625 
Q 16.5 51.421875 16.5 36.375 
Q 16.5 21.390625 20.328125 13.890625 
Q 24.171875 6.390625 31.78125 6.390625 
Q 39.453125 6.390625 43.28125 13.890625 
Q 47.125 21.390625 47.125 36.375 
Q 47.125 51.421875 43.28125 58.90625 
Q 39.453125 66.40625 31.78125 66.40625 
z
M 31.78125 74.21875 
Q 44.046875 74.21875 50.515625 64.515625 
Q 56.984375 54.828125 56.984375 36.375 
Q 56.984375 17.96875 50.515625 8.265625 
Q 44.046875 -1.421875 31.78125 -1.421875 
Q 19.53125 -1.421875 13.0625 8.265625 
Q 6.59375 17.96875 6.59375 36.375 
Q 6.59375 54.828125 13.0625 64.515625 
Q 19.53125 74.21875 31.78125 74.21875 
z
" id="DejaVuSans-48"/>
       <path d="M 10.6875 12.40625 
L 21 12.40625 
L 21 0 
L 10.6875 0 
z
" id="DejaVuSans-46"/>
      </defs>
      <g transform="translate(49.648438 322.182437)scale(0.1 -0.1)">
       <use xlink:href="#DejaVuSans-48"/>
       <use x="63.623047" xlink:href="#DejaVuSans-46"/>
       <use x="95.410156" xlink:href="#DejaVuSans-48"/>
      </g>
     </g>
    </g>
    <g id="xtick_2">
     <g id="line2d_3">
      <path clip-path="url(#pddbf95082b)" d="M 109.97523 307.584 
L 109.97523 41.472 
" style="fill:none;stroke:#b0b0b0;stroke-linecap:square;stroke-width:0.8;"/>
     </g>
     <g id="line2d_4">
      <g>
       <use style="stroke:#000000;stroke-width:0.8;" x="109.97523" xlink:href="#m8972087581" y="307.584"/>
      </g>
     </g>
     <g id="text_2">
      <!-- 0.5 -->
      <defs>
       <path d="M 10.796875 72.90625 
L 49.515625 72.90625 
L 49.515625 64.59375 
L 19.828125 64.59375 
L 19.828125 46.734375 
Q 21.96875 47.46875 24.109375 47.828125 
Q 26.265625 48.1875 28.421875 48.1875 
Q 40.625 48.1875 47.75 41.5 
Q 54.890625 34.8125 54.890625 23.390625 
Q 54.890625 11.625 47.5625 5.09375 
Q 40.234375 -1.421875 26.90625 -1.421875 
Q 22.3125 -1.421875 17.546875 -0.640625 
Q 12.796875 0.140625 7.71875 1.703125 
L 7.71875 11.625 
Q 12.109375 9.234375 16.796875 8.0625 
Q 21.484375 6.890625 26.703125 6.890625 
Q 35.15625 6.890625 40.078125 11.328125 
Q 45.015625 15.765625 45.015625 23.390625 
Q 45.015625 31 40.078125 35.4375 
Q 35.15625 39.890625 26.703125 39.890625 
Q 22.75 39.890625 18.8125 39.015625 
Q 14.890625 38.140625 10.796875 36.28125 
z
" id="DejaVuSans-53"/>
      </defs>
      <g transform="translate(102.023667 322.182437)scale(0.1 -0.1)">
       <use xlink:href="#DejaVuSans-48"/>
       <use x="63.623047" xlink:href="#DejaVuSans-46"/>
       <use x="95.410156" xlink:href="#DejaVuSans-53"/>
      </g>
     </g>
    </g>
    <g id="xtick_3">
     <g id="line2d_5">
      <path clip-path="url(#pddbf95082b)" d="M 162.350459 307.584 
L 162.350459 41.472 
" style="fill:none;stroke:#b0b0b0;stroke-linecap:square;stroke-width:0.8;"/>
     </g>
     <g id="line2d_6">
      <g>
       <use style="stroke:#000000;stroke-width:0.8;" x="162.350459" xlink:href="#m8972087581" y="307.584"/>
      </g>
     </g>
     <g id="text_3">
      <!-- 1.0 -->
      <defs>
       <path d="M 12.40625 8.296875 
L 28.515625 8.296875 
L 28.515625 63.921875 
L 10.984375 60.40625 
L 10.984375 69.390625 
L 28.421875 72.90625 
L 38.28125 72.90625 
L 38.28125 8.296875 
L 54.390625 8.296875 
L 54.390625 0 
L 12.40625 0 
z
" id="DejaVuSans-49"/>
      </defs>
      <g transform="translate(154.398897 322.182437)scale(0.1 -0.1)">
       <use xlink:href="#DejaVuSans-49"/>
       <use x="63.623047" xlink:href="#DejaVuSans-46"/>
       <use x="95.410156" xlink:href="#DejaVuSans-48"/>
      </g>
     </g>
    </g>
    <g id="xtick_4">
     <g id="line2d_7">
      <path clip-path="url(#pddbf95082b)" d="M 214.725689 307.584 
L 214.725689 41.472 
" style="fill:none;stroke:#b0b0b0;stroke-linecap:square;stroke-width:0.8;"/>
     </g>
     <g id="line2d_8">
      <g>
       <use style="stroke:#000000;stroke-width:0.8;" x="214.725689" xlink:href="#m8972087581" y="307.584"/>
      </g>
     </g>
     <g id="text_4">
      <!-- 1.5 -->
      <g transform="translate(206.774126 322.182437)scale(0.1 -0.1)">
       <use xlink:href="#DejaVuSans-49"/>
       <use x="63.623047" xlink:href="#DejaVuSans-46"/>
       <use x="95.410156" xlink:href="#DejaVuSans-53"/>
      </g>
     </g>
    </g>
    <g id="xtick_5">
     <g id="line2d_9">
      <path clip-path="url(#pddbf95082b)" d="M 267.100918 307.584 
L 267.100918 41.472 
" style="fill:none;stroke:#b0b0b0;stroke-linecap:square;stroke-width:0.8;"/>
     </g>
     <g id="line2d_10">
      <g>
       <use style="stroke:#000000;stroke-width:0.8;" x="267.100918" xlink:href="#m8972087581" y="307.584"/>
      </g>
     </g>
     <g id="text_5">
      <!-- 2.0 -->
      <defs>
       <path d="M 19.1875 8.296875 
L 53.609375 8.296875 
L 53.609375 0 
L 7.328125 0 
L 7.328125 8.296875 
Q 12.9375 14.109375 22.625 23.890625 
Q 32.328125 33.6875 34.8125 36.53125 
Q 39.546875 41.84375 41.421875 45.53125 
Q 43.3125 49.21875 43.3125 52.78125 
Q 43.3125 58.59375 39.234375 62.25 
Q 35.15625 65.921875 28.609375 65.921875 
Q 23.96875 65.921875 18.8125 64.3125 
Q 13.671875 62.703125 7.8125 59.421875 
L 7.8125 69.390625 
Q 13.765625 71.78125 18.9375 73 
Q 24.125 74.21875 28.421875 74.21875 
Q 39.75 74.21875 46.484375 68.546875 
Q 53.21875 62.890625 53.21875 53.421875 
Q 53.21875 48.921875 51.53125 44.890625 
Q 49.859375 40.875 45.40625 35.40625 
Q 44.1875 33.984375 37.640625 27.21875 
Q 31.109375 20.453125 19.1875 8.296875 
z
" id="DejaVuSans-50"/>
      </defs>
      <g transform="translate(259.149356 322.182437)scale(0.1 -0.1)">
       <use xlink:href="#DejaVuSans-50"/>
       <use x="63.623047" xlink:href="#DejaVuSans-46"/>
       <use x="95.410156" xlink:href="#DejaVuSans-48"/>
      </g>
     </g>
    </g>
    <g id="xtick_6">
     <g id="line2d_11">
      <path clip-path="url(#pddbf95082b)" d="M 319.476148 307.584 
L 319.476148 41.472 
" style="fill:none;stroke:#b0b0b0;stroke-linecap:square;stroke-width:0.8;"/>
     </g>
     <g id="line2d_12">
      <g>
       <use style="stroke:#000000;stroke-width:0.8;" x="319.476148" xlink:href="#m8972087581" y="307.584"/>
      </g>
     </g>
     <g id="text_6">
      <!-- 2.5 -->
      <g transform="translate(311.524586 322.182437)scale(0.1 -0.1)">
       <use xlink:href="#DejaVuSans-50"/>
       <use x="63.623047" xlink:href="#DejaVuSans-46"/>
       <use x="95.410156" xlink:href="#DejaVuSans-53"/>
      </g>
     </g>
    </g>
    <g id="xtick_7">
     <g id="line2d_13">
      <path clip-path="url(#pddbf95082b)" d="M 371.851378 307.584 
L 371.851378 41.472 
" style="fill:none;stroke:#b0b0b0;stroke-linecap:square;stroke-width:0.8;"/>
     </g>
     <g id="line2d_14">
      <g>
       <use style="stroke:#000000;stroke-width:0.8;" x="371.851378" xlink:href="#m8972087581" y="307.584"/>
      </g>
     </g>
     <g id="text_7">
      <!-- 3.0 -->
      <defs>
       <path d="M 40.578125 39.3125 
Q 47.65625 37.796875 51.625 33 
Q 55.609375 28.21875 55.609375 21.1875 
Q 55.609375 10.40625 48.1875 4.484375 
Q 40.765625 -1.421875 27.09375 -1.421875 
Q 22.515625 -1.421875 17.65625 -0.515625 
Q 12.796875 0.390625 7.625 2.203125 
L 7.625 11.71875 
Q 11.71875 9.328125 16.59375 8.109375 
Q 21.484375 6.890625 26.8125 6.890625 
Q 36.078125 6.890625 40.9375 10.546875 
Q 45.796875 14.203125 45.796875 21.1875 
Q 45.796875 27.640625 41.28125 31.265625 
Q 36.765625 34.90625 28.71875 34.90625 
L 20.21875 34.90625 
L 20.21875 43.015625 
L 29.109375 43.015625 
Q 36.375 43.015625 40.234375 45.921875 
Q 44.09375 48.828125 44.09375 54.296875 
Q 44.09375 59.90625 40.109375 62.90625 
Q 36.140625 65.921875 28.71875 65.921875 
Q 24.65625 65.921875 20.015625 65.03125 
Q 15.375 64.15625 9.8125 62.3125 
L 9.8125 71.09375 
Q 15.4375 72.65625 20.34375 73.4375 
Q 25.25 74.21875 29.59375 74.21875 
Q 40.828125 74.21875 47.359375 69.109375 
Q 53.90625 64.015625 53.90625 55.328125 
Q 53.90625 49.265625 50.4375 45.09375 
Q 46.96875 40.921875 40.578125 39.3125 
z
" id="DejaVuSans-51"/>
      </defs>
      <g transform="translate(363.899815 322.182437)scale(0.1 -0.1)">
       <use xlink:href="#DejaVuSans-51"/>
       <use x="63.623047" xlink:href="#DejaVuSans-46"/>
       <use x="95.410156" xlink:href="#DejaVuSans-48"/>
      </g>
     </g>
    </g>
    <g id="text_8">
     <!-- Hours -->
     <defs>
      <path d="M 9.8125 72.90625 
L 19.671875 72.90625 
L 19.671875 43.015625 
L 55.515625 43.015625 
L 55.515625 72.90625 
L 65.375 72.90625 
L 65.375 0 
L 55.515625 0 
L 55.515625 34.71875 
L 19.671875 34.71875 
L 19.671875 0 
L 9.8125 0 
z
" id="DejaVuSans-72"/>
      <path d="M 30.609375 48.390625 
Q 23.390625 48.390625 19.1875 42.75 
Q 14.984375 37.109375 14.984375 27.296875 
Q 14.984375 17.484375 19.15625 11.84375 
Q 23.34375 6.203125 30.609375 6.203125 
Q 37.796875 6.203125 41.984375 11.859375 
Q 46.1875 17.53125 46.1875 27.296875 
Q 46.1875 37.015625 41.984375 42.703125 
Q 37.796875 48.390625 30.609375 48.390625 
z
M 30.609375 56 
Q 42.328125 56 49.015625 48.375 
Q 55.71875 40.765625 55.71875 27.296875 
Q 55.71875 13.875 49.015625 6.21875 
Q 42.328125 -1.421875 30.609375 -1.421875 
Q 18.84375 -1.421875 12.171875 6.21875 
Q 5.515625 13.875 5.515625 27.296875 
Q 5.515625 40.765625 12.171875 48.375 
Q 18.84375 56 30.609375 56 
z
" id="DejaVuSans-111"/>
      <path d="M 8.5 21.578125 
L 8.5 54.6875 
L 17.484375 54.6875 
L 17.484375 21.921875 
Q 17.484375 14.15625 20.5 10.265625 
Q 23.53125 6.390625 29.59375 6.390625 
Q 36.859375 6.390625 41.078125 11.03125 
Q 45.3125 15.671875 45.3125 23.6875 
L 45.3125 54.6875 
L 54.296875 54.6875 
L 54.296875 0 
L 45.3125 0 
L 45.3125 8.40625 
Q 42.046875 3.421875 37.71875 1 
Q 33.40625 -1.421875 27.6875 -1.421875 
Q 18.265625 -1.421875 13.375 4.4375 
Q 8.5 10.296875 8.5 21.578125 
z
M 31.109375 56 
z
" id="DejaVuSans-117"/>
      <path d="M 41.109375 46.296875 
Q 39.59375 47.171875 37.8125 47.578125 
Q 36.03125 48 33.890625 48 
Q 26.265625 48 22.1875 43.046875 
Q 18.109375 38.09375 18.109375 28.8125 
L 18.109375 0 
L 9.078125 0 
L 9.078125 54.6875 
L 18.109375 54.6875 
L 18.109375 46.1875 
Q 20.953125 51.171875 25.484375 53.578125 
Q 30.03125 56 36.53125 56 
Q 37.453125 56 38.578125 55.875 
Q 39.703125 55.765625 41.0625 55.515625 
z
" id="DejaVuSans-114"/>
      <path d="M 44.28125 53.078125 
L 44.28125 44.578125 
Q 40.484375 46.53125 36.375 47.5 
Q 32.28125 48.484375 27.875 48.484375 
Q 21.1875 48.484375 17.84375 46.4375 
Q 14.5 44.390625 14.5 40.28125 
Q 14.5 37.15625 16.890625 35.375 
Q 19.28125 33.59375 26.515625 31.984375 
L 29.59375 31.296875 
Q 39.15625 29.25 43.1875 25.515625 
Q 47.21875 21.78125 47.21875 15.09375 
Q 47.21875 7.46875 41.1875 3.015625 
Q 35.15625 -1.421875 24.609375 -1.421875 
Q 20.21875 -1.421875 15.453125 -0.5625 
Q 10.6875 0.296875 5.421875 2 
L 5.421875 11.28125 
Q 10.40625 8.6875 15.234375 7.390625 
Q 20.0625 6.109375 24.8125 6.109375 
Q 31.15625 6.109375 34.5625 8.28125 
Q 37.984375 10.453125 37.984375 14.40625 
Q 37.984375 18.0625 35.515625 20.015625 
Q 33.0625 21.96875 24.703125 23.78125 
L 21.578125 24.515625 
Q 13.234375 26.265625 9.515625 29.90625 
Q 5.8125 33.546875 5.8125 39.890625 
Q 5.8125 47.609375 11.28125 51.796875 
Q 16.75 56 26.8125 56 
Q 31.78125 56 36.171875 55.265625 
Q 40.578125 54.546875 44.28125 53.078125 
z
" id="DejaVuSans-115"/>
     </defs>
     <g transform="translate(221.511562 335.860562)scale(0.1 -0.1)">
      <use xlink:href="#DejaVuSans-72"/>
      <use x="75.195312" xlink:href="#DejaVuSans-111"/>
      <use x="136.376953" xlink:href="#DejaVuSans-117"/>
      <use x="199.755859" xlink:href="#DejaVuSans-114"/>
      <use x="240.869141" xlink:href="#DejaVuSans-115"/>
     </g>
    </g>
   </g>
   <g id="matplotlib.axis_2">
    <g id="ytick_1">
     <g id="line2d_15">
      <path clip-path="url(#pddbf95082b)" d="M 57.6 297.500882 
L 414.72 297.500882 
" style="fill:none;stroke:#b0b0b0;stroke-linecap:square;stroke-width:0.8;"/>
     </g>
     <g id="line2d_16">
      <defs>
       <path d="M 0 0 
L -3.5 0 
" id="m89f52ee17a" style="stroke:#000000;stroke-width:0.8;"/>
      </defs>
      <g>
       <use style="stroke:#000000;stroke-width:0.8;" x="57.6" xlink:href="#m89f52ee17a" y="297.500882"/>
      </g>
     </g>
     <g id="text_9">
      <!-- 10 -->
      <g transform="translate(37.875 301.300101)scale(0.1 -0.1)">
       <use xlink:href="#DejaVuSans-49"/>
       <use x="63.623047" xlink:href="#DejaVuSans-48"/>
      </g>
     </g>
    </g>
    <g id="ytick_2">
     <g id="line2d_17">
      <path clip-path="url(#pddbf95082b)" d="M 57.6 267.009272 
L 414.72 267.009272 
" style="fill:none;stroke:#b0b0b0;stroke-linecap:square;stroke-width:0.8;"/>
     </g>
     <g id="line2d_18">
      <g>
       <use style="stroke:#000000;stroke-width:0.8;" x="57.6" xlink:href="#m89f52ee17a" y="267.009272"/>
      </g>
     </g>
     <g id="text_10">
      <!-- 15 -->
      <g transform="translate(37.875 270.80849)scale(0.1 -0.1)">
       <use xlink:href="#DejaVuSans-49"/>
       <use x="63.623047" xlink:href="#DejaVuSans-53"/>
      </g>
     </g>
    </g>
    <g id="ytick_3">
     <g id="line2d_19">
      <path clip-path="url(#pddbf95082b)" d="M 57.6 236.517661 
L 414.72 236.517661 
" style="fill:none;stroke:#b0b0b0;stroke-linecap:square;stroke-width:0.8;"/>
     </g>
     <g id="line2d_20">
      <g>
       <use style="stroke:#000000;stroke-width:0.8;" x="57.6" xlink:href="#m89f52ee17a" y="236.517661"/>
      </g>
     </g>
     <g id="text_11">
      <!-- 20 -->
      <g transform="translate(37.875 240.31688)scale(0.1 -0.1)">
       <use xlink:href="#DejaVuSans-50"/>
       <use x="63.623047" xlink:href="#DejaVuSans-48"/>
      </g>
     </g>
    </g>
    <g id="ytick_4">
     <g id="line2d_21">
      <path clip-path="url(#pddbf95082b)" d="M 57.6 206.026051 
L 414.72 206.026051 
" style="fill:none;stroke:#b0b0b0;stroke-linecap:square;stroke-width:0.8;"/>
     </g>
     <g id="line2d_22">
      <g>
       <use style="stroke:#000000;stroke-width:0.8;" x="57.6" xlink:href="#m89f52ee17a" y="206.026051"/>
      </g>
     </g>
     <g id="text_12">
      <!-- 25 -->
      <g transform="translate(37.875 209.82527)scale(0.1 -0.1)">
       <use xlink:href="#DejaVuSans-50"/>
       <use x="63.623047" xlink:href="#DejaVuSans-53"/>
      </g>
     </g>
    </g>
    <g id="ytick_5">
     <g id="line2d_23">
      <path clip-path="url(#pddbf95082b)" d="M 57.6 175.534441 
L 414.72 175.534441 
" style="fill:none;stroke:#b0b0b0;stroke-linecap:square;stroke-width:0.8;"/>
     </g>
     <g id="line2d_24">
      <g>
       <use style="stroke:#000000;stroke-width:0.8;" x="57.6" xlink:href="#m89f52ee17a" y="175.534441"/>
      </g>
     </g>
     <g id="text_13">
      <!-- 30 -->
      <g transform="translate(37.875 179.33366)scale(0.1 -0.1)">
       <use xlink:href="#DejaVuSans-51"/>
       <use x="63.623047" xlink:href="#DejaVuSans-48"/>
      </g>
     </g>
    </g>
    <g id="ytick_6">
     <g id="line2d_25">
      <path clip-path="url(#pddbf95082b)" d="M 57.6 145.042831 
L 414.72 145.042831 
" style="fill:none;stroke:#b0b0b0;stroke-linecap:square;stroke-width:0.8;"/>
     </g>
     <g id="line2d_26">
      <g>
       <use style="stroke:#000000;stroke-width:0.8;" x="57.6" xlink:href="#m89f52ee17a" y="145.042831"/>
      </g>
     </g>
     <g id="text_14">
      <!-- 35 -->
      <g transform="translate(37.875 148.842049)scale(0.1 -0.1)">
       <use xlink:href="#DejaVuSans-51"/>
       <use x="63.623047" xlink:href="#DejaVuSans-53"/>
      </g>
     </g>
    </g>
    <g id="ytick_7">
     <g id="line2d_27">
      <path clip-path="url(#pddbf95082b)" d="M 57.6 114.55122 
L 414.72 114.55122 
" style="fill:none;stroke:#b0b0b0;stroke-linecap:square;stroke-width:0.8;"/>
     </g>
     <g id="line2d_28">
      <g>
       <use style="stroke:#000000;stroke-width:0.8;" x="57.6" xlink:href="#m89f52ee17a" y="114.55122"/>
      </g>
     </g>
     <g id="text_15">
      <!-- 40 -->
      <defs>
       <path d="M 37.796875 64.3125 
L 12.890625 25.390625 
L 37.796875 25.390625 
z
M 35.203125 72.90625 
L 47.609375 72.90625 
L 47.609375 25.390625 
L 58.015625 25.390625 
L 58.015625 17.1875 
L 47.609375 17.1875 
L 47.609375 0 
L 37.796875 0 
L 37.796875 17.1875 
L 4.890625 17.1875 
L 4.890625 26.703125 
z
" id="DejaVuSans-52"/>
      </defs>
      <g transform="translate(37.875 118.350439)scale(0.1 -0.1)">
       <use xlink:href="#DejaVuSans-52"/>
       <use x="63.623047" xlink:href="#DejaVuSans-48"/>
      </g>
     </g>
    </g>
    <g id="ytick_8">
     <g id="line2d_29">
      <path clip-path="url(#pddbf95082b)" d="M 57.6 84.05961 
L 414.72 84.05961 
" style="fill:none;stroke:#b0b0b0;stroke-linecap:square;stroke-width:0.8;"/>
     </g>
     <g id="line2d_30">
      <g>
       <use style="stroke:#000000;stroke-width:0.8;" x="57.6" xlink:href="#m89f52ee17a" y="84.05961"/>
      </g>
     </g>
     <g id="text_16">
      <!-- 45 -->
      <g transform="translate(37.875 87.858829)scale(0.1 -0.1)">
       <use xlink:href="#DejaVuSans-52"/>
       <use x="63.623047" xlink:href="#DejaVuSans-53"/>
      </g>
     </g>
    </g>
    <g id="ytick_9">
     <g id="line2d_31">
      <path clip-path="url(#pddbf95082b)" d="M 57.6 53.568 
L 414.72 53.568 
" style="fill:none;stroke:#b0b0b0;stroke-linecap:square;stroke-width:0.8;"/>
     </g>
     <g id="line2d_32">
      <g>
       <use style="stroke:#000000;stroke-width:0.8;" x="57.6" xlink:href="#m89f52ee17a" y="53.568"/>
      </g>
     </g>
     <g id="text_17">
      <!-- 50 -->
      <g transform="translate(37.875 57.367219)scale(0.1 -0.1)">
       <use xlink:href="#DejaVuSans-53"/>
       <use x="63.623047" xlink:href="#DejaVuSans-48"/>
      </g>
     </g>
    </g>
    <g id="text_18">
     <!-- Steps -->
     <defs>
      <path d="M 53.515625 70.515625 
L 53.515625 60.890625 
Q 47.90625 63.578125 42.921875 64.890625 
Q 37.9375 66.21875 33.296875 66.21875 
Q 25.25 66.21875 20.875 63.09375 
Q 16.5 59.96875 16.5 54.203125 
Q 16.5 49.359375 19.40625 46.890625 
Q 22.3125 44.4375 30.421875 42.921875 
L 36.375 41.703125 
Q 47.40625 39.59375 52.65625 34.296875 
Q 57.90625 29 57.90625 20.125 
Q 57.90625 9.515625 50.796875 4.046875 
Q 43.703125 -1.421875 29.984375 -1.421875 
Q 24.8125 -1.421875 18.96875 -0.25 
Q 13.140625 0.921875 6.890625 3.21875 
L 6.890625 13.375 
Q 12.890625 10.015625 18.65625 8.296875 
Q 24.421875 6.59375 29.984375 6.59375 
Q 38.421875 6.59375 43.015625 9.90625 
Q 47.609375 13.234375 47.609375 19.390625 
Q 47.609375 24.75 44.3125 27.78125 
Q 41.015625 30.8125 33.5 32.328125 
L 27.484375 33.5 
Q 16.453125 35.6875 11.515625 40.375 
Q 6.59375 45.0625 6.59375 53.421875 
Q 6.59375 63.09375 13.40625 68.65625 
Q 20.21875 74.21875 32.171875 74.21875 
Q 37.3125 74.21875 42.625 73.28125 
Q 47.953125 72.359375 53.515625 70.515625 
z
" id="DejaVuSans-83"/>
      <path d="M 18.3125 70.21875 
L 18.3125 54.6875 
L 36.8125 54.6875 
L 36.8125 47.703125 
L 18.3125 47.703125 
L 18.3125 18.015625 
Q 18.3125 11.328125 20.140625 9.421875 
Q 21.96875 7.515625 27.59375 7.515625 
L 36.8125 7.515625 
L 36.8125 0 
L 27.59375 0 
Q 17.1875 0 13.234375 3.875 
Q 9.28125 7.765625 9.28125 18.015625 
L 9.28125 47.703125 
L 2.6875 47.703125 
L 2.6875 54.6875 
L 9.28125 54.6875 
L 9.28125 70.21875 
z
" id="DejaVuSans-116"/>
      <path d="M 56.203125 29.59375 
L 56.203125 25.203125 
L 14.890625 25.203125 
Q 15.484375 15.921875 20.484375 11.0625 
Q 25.484375 6.203125 34.421875 6.203125 
Q 39.59375 6.203125 44.453125 7.46875 
Q 49.3125 8.734375 54.109375 11.28125 
L 54.109375 2.78125 
Q 49.265625 0.734375 44.1875 -0.34375 
Q 39.109375 -1.421875 33.890625 -1.421875 
Q 20.796875 -1.421875 13.15625 6.1875 
Q 5.515625 13.8125 5.515625 26.8125 
Q 5.515625 40.234375 12.765625 48.109375 
Q 20.015625 56 32.328125 56 
Q 43.359375 56 49.78125 48.890625 
Q 56.203125 41.796875 56.203125 29.59375 
z
M 47.21875 32.234375 
Q 47.125 39.59375 43.09375 43.984375 
Q 39.0625 48.390625 32.421875 48.390625 
Q 24.90625 48.390625 20.390625 44.140625 
Q 15.875 39.890625 15.1875 32.171875 
z
" id="DejaVuSans-101"/>
      <path d="M 18.109375 8.203125 
L 18.109375 -20.796875 
L 9.078125 -20.796875 
L 9.078125 54.6875 
L 18.109375 54.6875 
L 18.109375 46.390625 
Q 20.953125 51.265625 25.265625 53.625 
Q 29.59375 56 35.59375 56 
Q 45.5625 56 51.78125 48.09375 
Q 58.015625 40.1875 58.015625 27.296875 
Q 58.015625 14.40625 51.78125 6.484375 
Q 45.5625 -1.421875 35.59375 -1.421875 
Q 29.59375 -1.421875 25.265625 0.953125 
Q 20.953125 3.328125 18.109375 8.203125 
z
M 48.6875 27.296875 
Q 48.6875 37.203125 44.609375 42.84375 
Q 40.53125 48.484375 33.40625 48.484375 
Q 26.265625 48.484375 22.1875 42.84375 
Q 18.109375 37.203125 18.109375 27.296875 
Q 18.109375 17.390625 22.1875 11.75 
Q 26.265625 6.109375 33.40625 6.109375 
Q 40.53125 6.109375 44.609375 11.75 
Q 48.6875 17.390625 48.6875 27.296875 
z
" id="DejaVuSans-112"/>
     </defs>
     <g transform="translate(31.795313 188.517844)rotate(-90)scale(0.1 -0.1)">
      <use xlink:href="#DejaVuSans-83"/>
      <use x="63.476562" xlink:href="#DejaVuSans-116"/>
      <use x="102.685547" xlink:href="#DejaVuSans-101"/>
      <use x="164.208984" xlink:href="#DejaVuSans-112"/>
      <use x="227.685547" xlink:href="#DejaVuSans-115"/>
     </g>
    </g>
   </g>
   <g id="line2d_33">
    <path clip-path="url(#pddbf95082b)" d="M 57.6 53.568 
L 57.600153 89.178084 
L 58.926152 93.998416 
L 59.195882 93.189785 
L 59.413499 99.263193 
L 60.411351 97.896872 
L 62.352974 92.051026 
L 63.193628 89.787907 
L 63.839294 91.640546 
L 64.950479 88.684903 
L 65.813235 91.009646 
L 67.523034 86.735396 
L 67.695217 88.755298 
L 69.450866 84.738409 
L 70.771106 84.556025 
L 72.512793 81.822058 
L 73.105669 80.703211 
L 73.168517 84.917187 
L 73.453612 84.290196 
L 74.967824 81.338438 
L 77.069545 82.605308 
L 78.278353 80.351099 
L 80.378578 76.819086 
L 81.118619 78.559433 
L 81.463932 82.828961 
L 83.106846 81.963568 
L 84.628898 79.235347 
L 84.803318 81.161311 
L 86.617335 82.816585 
L 88.744929 78.959445 
L 90.216599 82.413782 
L 91.13473 80.717402 
L 91.675592 80.957083 
L 93.775316 77.345161 
L 94.574542 78.264246 
L 95.178933 77.286282 
L 95.383733 79.129266 
L 96.282108 77.626065 
L 99.015046 73.957101 
L 99.891768 73.489858 
L 100.310602 76.645356 
L 101.218703 75.288201 
L 101.577171 79.794619 
L 101.870931 79.270079 
L 103.613397 84.200935 
L 105.750253 86.21395 
L 106.377288 84.921165 
L 107.243985 89.84018 
L 109.129293 85.699437 
L 110.056847 89.332087 
L 110.115296 93.983342 
L 110.601921 94.822214 
L 113.128918 88.665548 
L 113.22881 92.110464 
L 113.727161 98.378096 
L 116.75163 93.75143 
L 118.074551 110.502438 
L 119.035687 107.154227 
L 119.144046 110.473312 
L 120.446706 106.055644 
L 122.376132 100.626256 
L 122.938636 100.197096 
L 123.597319 98.350575 
L 125.138743 96.484793 
L 125.601731 98.012514 
L 126.79947 97.072283 
L 129.443141 90.579835 
L 130.534225 97.314849 
L 131.864567 93.918693 
L 132.008664 101.736635 
L 132.979448 104.824296 
L 133.971033 101.810007 
L 134.683752 104.095598 
L 135.760191 104.764789 
L 136.084319 103.740857 
L 136.240357 105.908527 
L 137.255263 102.830496 
L 137.901486 106.344899 
L 138.568922 104.254928 
L 139.403529 104.085409 
L 139.46375 108.075685 
L 140.135632 105.917181 
L 141.468016 111.835608 
L 141.873662 114.406872 
L 142.62311 115.580922 
L 142.957541 114.340665 
L 143.455886 115.30032 
L 145.850644 107.159415 
L 146.079368 112.991838 
L 146.582843 114.053713 
L 146.591687 118.820353 
L 146.926663 117.515308 
L 147.138087 128.334232 
L 148.235973 127.13001 
L 148.843488 130.309166 
L 149.893265 125.796165 
L 150.980047 125.063279 
L 151.201779 125.706788 
L 152.577501 120.106532 
L 153.283314 126.936088 
L 153.641215 125.468711 
L 153.649684 130.00707 
L 154.108958 131.370854 
L 154.450889 129.814799 
L 154.622103 135.84047 
L 157.186622 131.356943 
L 157.548947 129.801166 
L 158.433807 137.043412 
L 160.314345 135.693888 
L 160.676298 134.051363 
L 161.520543 137.504118 
L 162.23838 134.180241 
L 162.684987 135.649548 
L 162.784624 142.785783 
L 163.584424 146.604888 
L 165.734625 148.19649 
L 166.083282 146.303908 
L 166.220657 152.779188 
L 167.002931 152.033554 
L 168.246315 155.895068 
L 170.171142 152.556652 
L 171.24643 146.735325 
L 171.474138 151.600625 
L 171.762865 150.737675 
L 173.221839 143.194193 
L 173.25914 146.890166 
L 174.071583 150.390634 
L 174.114503 153.820707 
L 175.367985 149.366934 
L 177.223883 148.240086 
L 178.011518 147.917168 
L 178.091522 150.786877 
L 178.165705 157.804214 
L 178.571963 158.935668 
L 179.689536 152.739199 
L 182.397528 152.754645 
L 182.700863 159.882925 
L 183.3836 156.648565 
L 184.011094 154.518047 
L 184.413797 155.779613 
L 184.451489 159.223877 
L 184.981449 158.506182 
L 185.944044 162.64625 
L 186.330594 160.464669 
L 187.471784 165.248257 
L 188.118451 162.533261 
L 189.997241 152.063959 
L 190.109494 158.428204 
L 190.471837 156.331022 
L 190.545503 159.520297 
L 190.95268 160.691113 
L 191.430634 164.889665 
L 191.790217 162.663232 
L 191.828116 165.969813 
L 192.276525 166.519326 
L 193.563615 168.675573 
L 194.135921 166.639585 
L 194.959439 168.552174 
L 195.119715 170.033449 
L 195.480402 167.704135 
L 196.33939 168.914603 
L 197.802897 160.545718 
L 197.91272 162.67498 
L 198.698686 161.637346 
L 199.139637 162.480383 
L 199.508526 160.302152 
L 199.576866 163.533988 
L 200.684829 157.067094 
L 201.834375 150.98052 
L 203.290449 147.946341 
L 203.484749 149.351883 
L 203.965044 153.792768 
L 204.011361 157.154797 
L 204.812242 156.441778 
L 205.21031 158.363858 
L 205.864443 163.621457 
L 206.288067 164.507904 
L 207.03937 160.114673 
L 207.459784 161.383916 
L 208.320864 159.43427 
L 209.15842 161.76013 
L 209.345508 162.645436 
L 209.469154 168.710201 
L 210.398184 165.353976 
L 211.386415 164.926607 
L 212.561477 165.725746 
L 214.140551 167.188156 
L 214.256531 176.644738 
L 215.785095 167.090066 
L 216.052259 166.527154 
L 216.718814 167.435968 
L 217.699396 166.851979 
L 217.767625 169.586923 
L 218.696572 170.13839 
L 219.579822 167.382893 
L 219.841753 170.698755 
L 220.24223 168.356134 
L 220.303025 171.182968 
L 221.034933 170.956314 
L 221.411543 168.608552 
L 221.727965 167.649373 
L 221.857288 173.152517 
L 222.300388 173.317581 
L 222.423752 178.713341 
L 223.597745 171.353802 
L 223.636852 174.486571 
L 224.034116 172.068205 
L 224.072244 175.18669 
L 224.4524 172.754308 
L 224.922223 173.035153 
L 224.99836 175.524473 
L 226.607709 175.881331 
L 228.491433 164.813827 
L 228.961194 165.318861 
L 229.438343 169.272381 
L 230.33731 170.81057 
L 230.837507 177.629204 
L 231.534636 181.320396 
L 231.802191 187.533196 
L 232.126375 186.073555 
L 232.173441 188.78997 
L 232.956286 183.435177 
L 233.306519 194.846477 
L 234.32713 198.309921 
L 234.590154 200.39375 
L 234.784305 206.555942 
L 235.241436 205.398234 
L 235.502159 210.19507 
L 235.89251 207.062522 
L 236.49365 206.848826 
L 236.572766 211.646116 
L 236.866226 212.7164 
L 237.323696 211.314731 
L 237.774533 212.57069 
L 237.896572 219.23645 
L 238.141849 223.817263 
L 238.907438 217.075398 
L 239.397215 214.66443 
L 239.518235 218.422864 
L 239.848351 219.000374 
L 240.594147 212.449245 
L 241.549163 211.702308 
L 242.082261 215.091031 
L 242.453101 211.860568 
L 242.890517 210.95871 
L 243.188075 211.992796 
L 243.385422 223.377006 
L 243.69984 220.956558 
L 243.745844 222.975308 
L 244.610773 219.784916 
L 244.747694 223.108839 
L 244.881158 229.276835 
L 245.293863 227.685291 
L 245.680441 224.202945 
L 245.720621 226.278736 
L 246.556946 223.52075 
L 246.686335 229.425417 
L 247.407602 223.071304 
L 247.536095 229.007237 
L 248.080735 230.82027 
L 248.747418 227.87263 
L 249.222226 227.793872 
L 249.616977 224.309363 
L 250.988549 218.619334 
L 251.634351 221.89858 
L 251.783447 227.903477 
L 252.145296 224.416769 
L 252.325318 224.048954 
L 252.698643 226.151358 
L 253.357255 231.301796 
L 254.113441 224.263534 
L 254.231156 224.996489 
L 254.397402 230.216635 
L 255.339559 225.362432 
L 255.414275 229.42658 
L 255.802659 225.909409 
L 256.488336 225.581862 
L 256.703901 229.911433 
L 257.314709 227.842015 
L 257.40689 231.564043 
L 258.161754 224.515405 
L 258.627746 225.327141 
L 258.749509 231.245162 
L 259.166239 229.331736 
L 259.204446 231.304948 
L 259.687856 231.368306 
L 259.886283 238.154638 
L 260.937253 238.663918 
L 260.975544 240.450489 
L 261.345902 236.71284 
L 261.451415 239.842085 
L 261.773632 237.214303 
L 261.8147 239.02986 
L 262.261999 236.442265 
L 262.307961 238.1513 
L 262.695566 234.459643 
L 263.075839 235.576593 
L 263.241552 240.540448 
L 263.663737 238.276014 
L 264.704806 236.129479 
L 264.94727 234.551684 
L 265.091492 239.570987 
L 266.420102 235.138069 
L 266.563912 240.115661 
L 268.07062 233.018729 
L 268.824539 225.91248 
L 269.039821 232.892735 
L 269.562558 232.040649 
L 269.934039 228.471205 
L 270.070197 231.804852 
L 270.716788 228.90453 
L 270.974887 237.731143 
L 271.394358 235.697469 
L 271.661192 236.600793 
L 272.038024 232.940134 
L 272.188315 235.486983 
L 272.680035 235.084761 
L 272.929392 233.405887 
L 272.968614 235.29762 
L 273.989882 229.485773 
L 275.430188 227.799234 
L 275.897942 227.968637 
L 276.290315 224.480615 
L 276.739373 222.374034 
L 276.844895 226.068658 
L 277.110286 224.692078 
L 277.612216 224.697382 
L 277.756183 230.654822 
L 278.128156 227.113085 
L 278.289871 227.057241 
L 278.327258 229.075956 
L 278.908999 227.684814 
L 280.425353 224.58231 
L 280.882076 222.932725 
L 281.051905 230.849663 
L 282.550448 217.452856 
L 282.755795 225.207033 
L 283.908819 215.113282 
L 284.000362 219.339366 
L 285.032008 222.094771 
L 285.077871 224.090758 
L 285.587959 224.329799 
L 285.666274 228.434833 
L 286.618052 228.676864 
L 286.942601 226.272386 
L 287.439946 223.580153 
L 287.872412 222.336162 
L 288.137354 228.764578 
L 288.58021 226.966456 
L 289.331753 220.099877 
L 289.67426 233.176477 
L 290.124339 231.26219 
L 290.163263 233.196797 
L 290.783606 238.156465 
L 291.109985 235.074526 
L 291.806227 238.581007 
L 291.892044 242.002171 
L 292.344789 239.662772 
L 292.710536 235.940884 
L 292.719061 238.26978 
L 294.327547 234.142065 
L 294.748016 232.479824 
L 295.190805 232.610633 
L 295.473393 235.787789 
L 295.645698 242.587184 
L 295.843965 241.612023 
L 296.355902 240.557221 
L 296.722945 236.817432 
L 297.154874 234.819956 
L 297.239736 238.38762 
L 298.064715 232.419351 
L 298.102768 234.330823 
L 298.853019 227.172615 
L 299.729827 235.699993 
L 300.03236 243.175558 
L 300.731716 236.503797 
L 300.913779 240.805823 
L 301.054566 240.842033 
L 301.433363 237.096556 
L 302.654276 251.930916 
L 303.121591 251.013273 
L 303.329209 258.050791 
L 303.713034 253.961134 
L 304.663601 251.243952 
L 304.709527 252.656962 
L 304.905585 251.480399 
L 305.279342 247.522157 
L 305.686807 245.100766 
L 305.782441 248.019816 
L 306.414206 242.231954 
L 306.763945 252.503192 
L 307.507375 244.625359 
L 307.599762 247.685197 
L 307.965202 243.802851 
L 308.00252 245.486646 
L 309.107098 250.504657 
L 309.150973 251.932451 
L 309.793181 247.813971 
L 310.27282 256.9893 
L 311.063972 250.297649 
L 311.207163 254.749584 
L 311.656632 251.444353 
L 311.75896 254.234164 
L 312.143876 250.220845 
L 312.572325 247.45353 
L 312.814785 254.718086 
L 312.978639 254.110136 
L 313.549568 249.156854 
L 314.066675 255.658759 
L 314.448934 251.616943 
L 314.544401 252.168724 
L 314.781866 258.650204 
L 314.928408 258.20755 
L 315.19326 258.165816 
L 315.764157 259.106152 
L 316.038059 258.597059 
L 316.913655 252.698603 
L 317.008779 255.314346 
L 317.642281 249.240055 
L 317.883884 255.972033 
L 318.06069 257.497056 
L 319.005048 250.623707 
L 319.172273 254.319842 
L 319.253849 255.061498 
L 319.651254 261.036565 
L 320.061007 258.187335 
L 320.099119 259.583444 
L 320.418963 258.584659 
L 320.464223 259.850843 
L 320.947086 257.654862 
L 321.034312 258.573749 
L 321.743196 256.878335 
L 322.128145 252.812128 
L 322.194409 253.827871 
L 322.665706 252.583717 
L 323.090546 249.825277 
L 323.46016 246.144065 
L 323.823931 255.451274 
L 324.519563 250.575703 
L 324.850294 258.143193 
L 325.178666 254.661521 
L 325.549057 266.374848 
L 325.844092 265.580356 
L 325.896594 266.584665 
L 326.387518 266.233477 
L 326.898184 265.173359 
L 327.35397 263.713567 
L 327.90399 262.708321 
L 327.995186 265.049639 
L 328.396355 264.173196 
L 328.839308 270.057869 
L 329.144039 268.6443 
L 329.190224 269.709298 
L 329.660234 267.528798 
L 330.356376 265.653705 
L 332.061866 260.731764 
L 332.44569 256.588498 
L 332.726544 263.931421 
L 333.196613 262.202869 
L 333.242184 263.396692 
L 333.64491 260.57597 
L 334.034172 256.435809 
L 334.07623 257.866941 
L 334.442861 253.780961 
L 335.27256 248.997699 
L 335.36396 251.884401 
L 335.748515 250.03182 
L 335.919853 251.543257 
L 336.330965 249.328525 
L 336.426951 252.077718 
L 337.03064 255.302401 
L 337.150646 257.454007 
L 338.030274 253.351835 
L 338.0675 254.84465 
L 338.809124 260.824771 
L 338.847585 262.168131 
L 339.339356 262.018955 
L 340.16353 262.078771 
L 341.101989 254.648645 
L 341.429381 265.281702 
L 341.87225 262.142396 
L 341.962118 264.508565 
L 342.961986 261.31844 
L 343.135582 264.639235 
L 343.526709 261.783938 
L 343.639979 265.677532 
L 344.025969 261.435338 
L 344.07149 262.644516 
L 344.423474 258.58495 
L 344.979006 259.50949 
L 345.460299 255.866965 
L 346.007988 257.155051 
L 346.127168 259.594308 
L 346.267475 261.222253 
L 346.978982 266.979797 
L 347.45133 268.394721 
L 347.490243 269.586677 
L 347.736563 272.937266 
L 347.9295 273.16599 
L 348.214261 270.115666 
L 348.645993 266.799571 
L 348.859395 270.588847 
L 350.051398 262.295416 
L 350.419309 258.120872 
L 350.457914 259.518295 
L 351.342929 255.421322 
L 351.401742 256.872751 
L 352.853566 251.877166 
L 352.892715 253.399466 
L 353.256532 253.875886 
L 353.688648 251.202892 
L 353.855055 256.922709 
L 354.414296 257.762489 
L 354.560191 257.703494 
L 354.67326 259.877107 
L 355.046356 255.750928 
L 355.389345 254.469704 
L 355.586885 255.34681 
L 355.969869 251.311229 
L 356.137377 254.991138 
L 356.80528 252.714154 
L 356.8516 254.097748 
L 357.200983 252.557569 
L 357.679478 261.509118 
L 358.659179 253.50286 
L 358.876941 258.343652 
L 359.1754 257.855007 
L 359.409823 258.071158 
L 359.494245 260.720517 
L 360.040334 257.975616 
L 360.234611 262.830104 
L 360.905339 256.006928 
L 360.958357 257.202706 
L 361.16416 255.813273 
L 361.622109 268.17301 
L 362.141365 265.380036 
L 362.179516 266.632285 
L 362.342886 265.786061 
L 362.695629 274.387125 
L 362.905197 274.714549 
L 362.99824 276.580425 
L 363.315435 276.381414 
L 363.450183 279.060369 
L 364.242423 274.493775 
L 364.326152 276.492798 
L 364.505844 277.224707 
L 364.682818 280.809615 
L 364.787302 280.655577 
L 364.877447 282.291065 
L 365.265535 277.716602 
L 365.350874 279.58556 
L 365.771323 276.001787 
L 365.90097 278.815326 
L 366.168893 276.38381 
L 366.913666 289.211679 
L 367.769597 281.347874 
L 367.88671 284.090949 
L 368.065753 284.126803 
L 368.368054 289.67246 
L 368.779437 285.811214 
L 368.879276 287.120574 
L 369.380101 283.676904 
L 369.5946 286.165432 
L 369.634145 287.001973 
L 369.827968 288.217268 
L 370.285188 283.925786 
L 370.414548 286.273327 
L 371.105408 285.500615 
L 371.489144 292.346559 
L 371.735959 293.724483 
L 371.81952 294.959529 
L 372.384521 291.418251 
L 372.502302 293.569113 
L 373.084239 291.299957 
L 373.288201 294.70821 
L 373.835402 291.583275 
L 374.180683 295.231075 
L 374.629162 290.920412 
L 375.129471 288.419664 
L 375.253044 289.264708 
L 375.365061 289.185496 
L 375.514158 290.996721 
L 375.990722 287.427748 
L 376.361813 287.535614 
L 376.589791 286.730089 
L 376.930893 292.773033 
L 377.042266 293.68718 
L 377.496971 291.894921 
L 377.60637 292.836518 
L 377.799097 292.650447 
L 377.902893 293.684098 
L 378.300913 290.01525 
L 378.339565 290.774795 
L 378.56937 292.832116 
L 378.996943 288.723785 
L 379.186692 291.306081 
L 379.746241 292.134521 
L 379.90233 293.640741 
L 380.376256 294.300475 
L 380.476648 295.273658 
L 380.874273 290.439549 
L 380.913929 291.190608 
L 381.97631 281.501807 
L 382.681819 281.308722 
L 382.750642 281.754527 
L 383.136283 277.190801 
L 383.672275 277.052181 
L 384.199964 275.312892 
L 384.340419 279.624968 
L 385.077158 273.119662 
L 385.220683 275.992824 
L 385.336076 275.813151 
L 385.618248 276.595919 
L 385.704171 278.509257 
L 386.090327 274.010429 
L 386.401863 279.377721 
L 386.891613 276.482528 
L 386.979045 278.402793 
L 387.261243 277.44423 
L 387.386351 280.294904 
L 387.766954 275.760366 
L 387.913796 278.356266 
L 388.561386 276.359133 
L 388.762622 278.434396 
L 388.902287 279.440683 
L 389.159511 280.180239 
L 389.647021 284.998716 
L 389.785657 285.730415 
L 390.042748 288.865161 
L 390.884865 281.620729 
L 391.168395 285.021287 
L 391.688298 282.636751 
L 391.791155 285.543035 
L 393.593235 275.847522 
L 394.449127 269.23845 
L 394.738756 275.122663 
L 394.918729 273.862696 
L 395.058802 277.043521 
L 395.43721 272.57401 
L 395.57889 275.481649 
L 395.850026 273.116806 
L 396.230118 268.725832 
L 396.322834 270.833739 
L 397.081023 267.960564 
L 397.487317 275.924756 
L 397.983326 273.237502 
L 398.132463 275.974493 
L 398.602546 272.289786 
L 399.132228 269.359901 
L 399.602759 279.093659 
L 400.320097 282.320005 
L 400.723564 286.725291 
L 401.310173 284.910641 
L 402.097621 275.749473 
L 402.329699 280.529886 
L 402.549492 280.094479 
L 402.739503 283.349031 
L 403.453776 278.506785 
L 403.705498 282.43368 
L 404.032678 280.647115 
L 404.598693 284.410912 
L 404.719243 285.404945 
L 405.267007 281.008132 
L 405.331984 283.107768 
L 406.008628 277.220723 
L 406.048259 278.236158 
L 406.248713 280.220304 
L 406.552356 278.575057 
L 406.741132 281.942733 
L 407.088506 282.851425 
L 407.363875 286.014453 
L 407.59243 283.804851 
L 408.111679 281.746728 
L 408.258214 283.983362 
L 408.553089 281.082586 
L 408.970736 287.976145 
L 409.250438 290.890483 
L 409.657031 286.144035 
L 409.935903 290.337783 
L 410.037059 290.115142 
L 410.084152 290.750724 
L 410.882587 283.932503 
L 411.18087 285.461753 
L 411.831853 281.280899 
L 412.606921 291.197209 
L 412.777347 291.190702 
L 413.092913 295.488 
L 413.529268 291.396453 
L 413.575615 292.00641 
L 414.013644 289.052047 
L 414.200978 291.953096 
L 414.72 295.451331 
L 414.72 295.451331 
" style="fill:none;stroke:#000000;stroke-linecap:square;stroke-width:0.8;"/>
   </g>
   <g id="patch_3">
    <path d="M 57.6 307.584 
L 57.6 41.472 
" style="fill:none;stroke:#000000;stroke-linecap:square;stroke-linejoin:miter;stroke-width:0.8;"/>
   </g>
   <g id="patch_4">
    <path d="M 414.72 307.584 
L 414.72 41.472 
" style="fill:none;stroke:#000000;stroke-linecap:square;stroke-linejoin:miter;stroke-width:0.8;"/>
   </g>
   <g id="patch_5">
    <path d="M 57.6 307.584 
L 414.72 307.584 
" style="fill:none;stroke:#000000;stroke-linecap:square;stroke-linejoin:miter;stroke-width:0.8;"/>
   </g>
   <g id="patch_6">
    <path d="M 57.6 41.472 
L 414.72 41.472 
" style="fill:none;stroke:#000000;stroke-linecap:square;stroke-linejoin:miter;stroke-width:0.8;"/>
   </g>
  </g>
  <g id="axes_2">
   <g id="matplotlib.axis_3">
    <g id="xtick_8">
     <g id="line2d_34">
      <defs>
       <path d="M 0 0 
L 0 -3.5 
" id="md28954f4f5" style="stroke:#000000;stroke-width:0.8;"/>
      </defs>
      <g>
       <use style="stroke:#000000;stroke-width:0.8;" x="57.6" xlink:href="#md28954f4f5" y="41.472"/>
      </g>
     </g>
    </g>
    <g id="xtick_9">
     <g id="line2d_35">
      <g>
       <use style="stroke:#000000;stroke-width:0.8;" x="97.798109" xlink:href="#md28954f4f5" y="41.472"/>
      </g>
     </g>
     <g id="text_19">
      <!-- 250 -->
      <g transform="translate(88.254359 32.392313)scale(0.1 -0.1)">
       <use xlink:href="#DejaVuSans-50"/>
       <use x="63.623047" xlink:href="#DejaVuSans-53"/>
       <use x="127.246094" xlink:href="#DejaVuSans-48"/>
      </g>
     </g>
    </g>
    <g id="xtick_10">
     <g id="line2d_36">
      <g>
       <use style="stroke:#000000;stroke-width:0.8;" x="137.996218" xlink:href="#md28954f4f5" y="41.472"/>
      </g>
     </g>
     <g id="text_20">
      <!-- 500 -->
      <g transform="translate(128.452468 32.392313)scale(0.1 -0.1)">
       <use xlink:href="#DejaVuSans-53"/>
       <use x="63.623047" xlink:href="#DejaVuSans-48"/>
       <use x="127.246094" xlink:href="#DejaVuSans-48"/>
      </g>
     </g>
    </g>
    <g id="xtick_11">
     <g id="line2d_37">
      <g>
       <use style="stroke:#000000;stroke-width:0.8;" x="178.194327" xlink:href="#md28954f4f5" y="41.472"/>
      </g>
     </g>
     <g id="text_21">
      <!-- 750 -->
      <defs>
       <path d="M 8.203125 72.90625 
L 55.078125 72.90625 
L 55.078125 68.703125 
L 28.609375 0 
L 18.3125 0 
L 43.21875 64.59375 
L 8.203125 64.59375 
z
" id="DejaVuSans-55"/>
      </defs>
      <g transform="translate(168.650577 32.392313)scale(0.1 -0.1)">
       <use xlink:href="#DejaVuSans-55"/>
       <use x="63.623047" xlink:href="#DejaVuSans-53"/>
       <use x="127.246094" xlink:href="#DejaVuSans-48"/>
      </g>
     </g>
    </g>
    <g id="xtick_12">
     <g id="line2d_38">
      <g>
       <use style="stroke:#000000;stroke-width:0.8;" x="218.392436" xlink:href="#md28954f4f5" y="41.472"/>
      </g>
     </g>
     <g id="text_22">
      <!-- 1,000 -->
      <defs>
       <path d="M 11.71875 12.40625 
L 22.015625 12.40625 
L 22.015625 4 
L 14.015625 -11.625 
L 7.71875 -11.625 
L 11.71875 4 
z
" id="DejaVuSans-44"/>
      </defs>
      <g transform="translate(204.078373 32.392313)scale(0.1 -0.1)">
       <use xlink:href="#DejaVuSans-49"/>
       <use x="63.623047" xlink:href="#DejaVuSans-44"/>
       <use x="95.410156" xlink:href="#DejaVuSans-48"/>
       <use x="159.033203" xlink:href="#DejaVuSans-48"/>
       <use x="222.65625" xlink:href="#DejaVuSans-48"/>
      </g>
     </g>
    </g>
    <g id="xtick_13">
     <g id="line2d_39">
      <g>
       <use style="stroke:#000000;stroke-width:0.8;" x="258.590545" xlink:href="#md28954f4f5" y="41.472"/>
      </g>
     </g>
     <g id="text_23">
      <!-- 1.25K -->
      <defs>
       <path d="M 9.8125 72.90625 
L 19.671875 72.90625 
L 19.671875 42.09375 
L 52.390625 72.90625 
L 65.09375 72.90625 
L 28.90625 38.921875 
L 67.671875 0 
L 54.6875 0 
L 19.671875 35.109375 
L 19.671875 0 
L 9.8125 0 
z
" id="DejaVuSans-75"/>
      </defs>
      <g transform="translate(244.178826 32.392313)scale(0.1 -0.1)">
       <use xlink:href="#DejaVuSans-49"/>
       <use x="63.623047" xlink:href="#DejaVuSans-46"/>
       <use x="95.410156" xlink:href="#DejaVuSans-50"/>
       <use x="159.033203" xlink:href="#DejaVuSans-53"/>
       <use x="222.65625" xlink:href="#DejaVuSans-75"/>
      </g>
     </g>
    </g>
    <g id="xtick_14">
     <g id="line2d_40">
      <g>
       <use style="stroke:#000000;stroke-width:0.8;" x="298.788654" xlink:href="#md28954f4f5" y="41.472"/>
      </g>
     </g>
     <g id="text_24">
      <!-- 1.50K -->
      <g transform="translate(284.376935 32.392313)scale(0.1 -0.1)">
       <use xlink:href="#DejaVuSans-49"/>
       <use x="63.623047" xlink:href="#DejaVuSans-46"/>
       <use x="95.410156" xlink:href="#DejaVuSans-53"/>
       <use x="159.033203" xlink:href="#DejaVuSans-48"/>
       <use x="222.65625" xlink:href="#DejaVuSans-75"/>
      </g>
     </g>
    </g>
    <g id="xtick_15">
     <g id="line2d_41">
      <g>
       <use style="stroke:#000000;stroke-width:0.8;" x="338.986763" xlink:href="#md28954f4f5" y="41.472"/>
      </g>
     </g>
     <g id="text_25">
      <!-- 1.75K -->
      <g transform="translate(324.575044 32.392313)scale(0.1 -0.1)">
       <use xlink:href="#DejaVuSans-49"/>
       <use x="63.623047" xlink:href="#DejaVuSans-46"/>
       <use x="95.410156" xlink:href="#DejaVuSans-55"/>
       <use x="159.033203" xlink:href="#DejaVuSans-53"/>
       <use x="222.65625" xlink:href="#DejaVuSans-75"/>
      </g>
     </g>
    </g>
    <g id="xtick_16">
     <g id="line2d_42">
      <g>
       <use style="stroke:#000000;stroke-width:0.8;" x="379.184872" xlink:href="#md28954f4f5" y="41.472"/>
      </g>
     </g>
     <g id="text_26">
      <!-- 2.00K -->
      <g transform="translate(364.773153 32.392313)scale(0.1 -0.1)">
       <use xlink:href="#DejaVuSans-50"/>
       <use x="63.623047" xlink:href="#DejaVuSans-46"/>
       <use x="95.410156" xlink:href="#DejaVuSans-48"/>
       <use x="159.033203" xlink:href="#DejaVuSans-48"/>
       <use x="222.65625" xlink:href="#DejaVuSans-75"/>
      </g>
     </g>
    </g>
    <g id="text_27">
     <!-- Episodes -->
     <defs>
      <path d="M 9.8125 72.90625 
L 55.90625 72.90625 
L 55.90625 64.59375 
L 19.671875 64.59375 
L 19.671875 43.015625 
L 54.390625 43.015625 
L 54.390625 34.71875 
L 19.671875 34.71875 
L 19.671875 8.296875 
L 56.78125 8.296875 
L 56.78125 0 
L 9.8125 0 
z
" id="DejaVuSans-69"/>
      <path d="M 9.421875 54.6875 
L 18.40625 54.6875 
L 18.40625 0 
L 9.421875 0 
z
M 9.421875 75.984375 
L 18.40625 75.984375 
L 18.40625 64.59375 
L 9.421875 64.59375 
z
" id="DejaVuSans-105"/>
      <path d="M 45.40625 46.390625 
L 45.40625 75.984375 
L 54.390625 75.984375 
L 54.390625 0 
L 45.40625 0 
L 45.40625 8.203125 
Q 42.578125 3.328125 38.25 0.953125 
Q 33.9375 -1.421875 27.875 -1.421875 
Q 17.96875 -1.421875 11.734375 6.484375 
Q 5.515625 14.40625 5.515625 27.296875 
Q 5.515625 40.1875 11.734375 48.09375 
Q 17.96875 56 27.875 56 
Q 33.9375 56 38.25 53.625 
Q 42.578125 51.265625 45.40625 46.390625 
z
M 14.796875 27.296875 
Q 14.796875 17.390625 18.875 11.75 
Q 22.953125 6.109375 30.078125 6.109375 
Q 37.203125 6.109375 41.296875 11.75 
Q 45.40625 17.390625 45.40625 27.296875 
Q 45.40625 37.203125 41.296875 42.84375 
Q 37.203125 48.484375 30.078125 48.484375 
Q 22.953125 48.484375 18.875 42.84375 
Q 14.796875 37.203125 14.796875 27.296875 
z
" id="DejaVuSans-100"/>
     </defs>
     <g transform="translate(213.917812 20.793875)scale(0.1 -0.1)">
      <use xlink:href="#DejaVuSans-69"/>
      <use x="63.183594" xlink:href="#DejaVuSans-112"/>
      <use x="126.660156" xlink:href="#DejaVuSans-105"/>
      <use x="154.443359" xlink:href="#DejaVuSans-115"/>
      <use x="206.542969" xlink:href="#DejaVuSans-111"/>
      <use x="267.724609" xlink:href="#DejaVuSans-100"/>
      <use x="331.201172" xlink:href="#DejaVuSans-101"/>
      <use x="392.724609" xlink:href="#DejaVuSans-115"/>
     </g>
    </g>
   </g>
   <g id="patch_7">
    <path d="M 57.6 307.584 
L 57.6 41.472 
" style="fill:none;stroke:#000000;stroke-linecap:square;stroke-linejoin:miter;stroke-width:0.8;"/>
   </g>
   <g id="patch_8">
    <path d="M 414.72 307.584 
L 414.72 41.472 
" style="fill:none;stroke:#000000;stroke-linecap:square;stroke-linejoin:miter;stroke-width:0.8;"/>
   </g>
   <g id="patch_9">
    <path d="M 57.6 307.584 
L 414.72 307.584 
" style="fill:none;stroke:#000000;stroke-linecap:square;stroke-linejoin:miter;stroke-width:0.8;"/>
   </g>
   <g id="patch_10">
    <path d="M 57.6 41.472 
L 414.72 41.472 
" style="fill:none;stroke:#000000;stroke-linecap:square;stroke-linejoin:miter;stroke-width:0.8;"/>
   </g>
  </g>
 </g>
 <defs>
  <clipPath id="pddbf95082b">
   <rect height="266.112" width="357.12" x="57.6" y="41.472"/>
  </clipPath>
 </defs>
</svg>
