<?xml version="1.0" encoding="utf-8" standalone="no"?>
<!DOCTYPE svg PUBLIC "-//W3C//DTD SVG 1.1//EN"
  "http://www.w3.org/Graphics/SVG/1.1/DTD/svg11.dtd">
<!-- Created with matplotlib (https://matplotlib.org/) -->
<svg height="345.6pt" version="1.1" viewBox="0 0 460.8 345.6" width="460.8pt" xmlns="http://www.w3.org/2000/svg" xmlns:xlink="http://www.w3.org/1999/xlink">
 <defs>
  <style type="text/css">
*{stroke-linecap:butt;stroke-linejoin:round;}
  </style>
 </defs>
 <g id="figure_1">
  <g id="patch_1">
   <path d="M 0 345.6 
L 460.8 345.6 
L 460.8 0 
L 0 0 
z
" style="fill:#ffffff;"/>
  </g>
  <g id="axes_1">
   <g id="patch_2">
    <path d="M 57.6 307.584 
L 414.72 307.584 
L 414.72 41.472 
L 57.6 41.472 
z
" style="fill:#ffffff;"/>
   </g>
   <g id="matplotlib.axis_1">
    <g id="xtick_1">
     <g id="line2d_1">
      <path clip-path="url(#p9f95ef65a0)" d="M 57.6 307.584 
L 57.6 41.472 
" style="fill:none;stroke:#b0b0b0;stroke-linecap:square;stroke-width:0.8;"/>
     </g>
     <g id="line2d_2">
      <defs>
       <path d="M 0 0 
L 0 3.5 
" id="m5783cb53e2" style="stroke:#000000;stroke-width:0.8;"/>
      </defs>
      <g>
       <use style="stroke:#000000;stroke-width:0.8;" x="57.6" xlink:href="#m5783cb53e2" y="307.584"/>
      </g>
     </g>
     <g id="text_1">
      <!-- 0 -->
      <defs>
       <path d="M 31.78125 66.40625 
Q 24.171875 66.40625 20.328125 58.90625 
Q 16.5 51.421875 16.5 36.375 
Q 16.5 21.390625 20.328125 13.890625 
Q 24.171875 6.390625 31.78125 6.390625 
Q 39.453125 6.390625 43.28125 13.890625 
Q 47.125 21.390625 47.125 36.375 
Q 47.125 51.421875 43.28125 58.90625 
Q 39.453125 66.40625 31.78125 66.40625 
z
M 31.78125 74.21875 
Q 44.046875 74.21875 50.515625 64.515625 
Q 56.984375 54.828125 56.984375 36.375 
Q 56.984375 17.96875 50.515625 8.265625 
Q 44.046875 -1.421875 31.78125 -1.421875 
Q 19.53125 -1.421875 13.0625 8.265625 
Q 6.59375 17.96875 6.59375 36.375 
Q 6.59375 54.828125 13.0625 64.515625 
Q 19.53125 74.21875 31.78125 74.21875 
z
" id="DejaVuSans-48"/>
      </defs>
      <g transform="translate(54.41875 322.182437)scale(0.1 -0.1)">
       <use xlink:href="#DejaVuSans-48"/>
      </g>
     </g>
    </g>
    <g id="xtick_2">
     <g id="line2d_3">
      <path clip-path="url(#p9f95ef65a0)" d="M 121.877578 307.584 
L 121.877578 41.472 
" style="fill:none;stroke:#b0b0b0;stroke-linecap:square;stroke-width:0.8;"/>
     </g>
     <g id="line2d_4">
      <g>
       <use style="stroke:#000000;stroke-width:0.8;" x="121.877578" xlink:href="#m5783cb53e2" y="307.584"/>
      </g>
     </g>
     <g id="text_2">
      <!-- 2 -->
      <defs>
       <path d="M 19.1875 8.296875 
L 53.609375 8.296875 
L 53.609375 0 
L 7.328125 0 
L 7.328125 8.296875 
Q 12.9375 14.109375 22.625 23.890625 
Q 32.328125 33.6875 34.8125 36.53125 
Q 39.546875 41.84375 41.421875 45.53125 
Q 43.3125 49.21875 43.3125 52.78125 
Q 43.3125 58.59375 39.234375 62.25 
Q 35.15625 65.921875 28.609375 65.921875 
Q 23.96875 65.921875 18.8125 64.3125 
Q 13.671875 62.703125 7.8125 59.421875 
L 7.8125 69.390625 
Q 13.765625 71.78125 18.9375 73 
Q 24.125 74.21875 28.421875 74.21875 
Q 39.75 74.21875 46.484375 68.546875 
Q 53.21875 62.890625 53.21875 53.421875 
Q 53.21875 48.921875 51.53125 44.890625 
Q 49.859375 40.875 45.40625 35.40625 
Q 44.1875 33.984375 37.640625 27.21875 
Q 31.109375 20.453125 19.1875 8.296875 
z
" id="DejaVuSans-50"/>
      </defs>
      <g transform="translate(118.696328 322.182437)scale(0.1 -0.1)">
       <use xlink:href="#DejaVuSans-50"/>
      </g>
     </g>
    </g>
    <g id="xtick_3">
     <g id="line2d_5">
      <path clip-path="url(#p9f95ef65a0)" d="M 186.155156 307.584 
L 186.155156 41.472 
" style="fill:none;stroke:#b0b0b0;stroke-linecap:square;stroke-width:0.8;"/>
     </g>
     <g id="line2d_6">
      <g>
       <use style="stroke:#000000;stroke-width:0.8;" x="186.155156" xlink:href="#m5783cb53e2" y="307.584"/>
      </g>
     </g>
     <g id="text_3">
      <!-- 4 -->
      <defs>
       <path d="M 37.796875 64.3125 
L 12.890625 25.390625 
L 37.796875 25.390625 
z
M 35.203125 72.90625 
L 47.609375 72.90625 
L 47.609375 25.390625 
L 58.015625 25.390625 
L 58.015625 17.1875 
L 47.609375 17.1875 
L 47.609375 0 
L 37.796875 0 
L 37.796875 17.1875 
L 4.890625 17.1875 
L 4.890625 26.703125 
z
" id="DejaVuSans-52"/>
      </defs>
      <g transform="translate(182.973906 322.182437)scale(0.1 -0.1)">
       <use xlink:href="#DejaVuSans-52"/>
      </g>
     </g>
    </g>
    <g id="xtick_4">
     <g id="line2d_7">
      <path clip-path="url(#p9f95ef65a0)" d="M 250.432733 307.584 
L 250.432733 41.472 
" style="fill:none;stroke:#b0b0b0;stroke-linecap:square;stroke-width:0.8;"/>
     </g>
     <g id="line2d_8">
      <g>
       <use style="stroke:#000000;stroke-width:0.8;" x="250.432733" xlink:href="#m5783cb53e2" y="307.584"/>
      </g>
     </g>
     <g id="text_4">
      <!-- 6 -->
      <defs>
       <path d="M 33.015625 40.375 
Q 26.375 40.375 22.484375 35.828125 
Q 18.609375 31.296875 18.609375 23.390625 
Q 18.609375 15.53125 22.484375 10.953125 
Q 26.375 6.390625 33.015625 6.390625 
Q 39.65625 6.390625 43.53125 10.953125 
Q 47.40625 15.53125 47.40625 23.390625 
Q 47.40625 31.296875 43.53125 35.828125 
Q 39.65625 40.375 33.015625 40.375 
z
M 52.59375 71.296875 
L 52.59375 62.3125 
Q 48.875 64.0625 45.09375 64.984375 
Q 41.3125 65.921875 37.59375 65.921875 
Q 27.828125 65.921875 22.671875 59.328125 
Q 17.53125 52.734375 16.796875 39.40625 
Q 19.671875 43.65625 24.015625 45.921875 
Q 28.375 48.1875 33.59375 48.1875 
Q 44.578125 48.1875 50.953125 41.515625 
Q 57.328125 34.859375 57.328125 23.390625 
Q 57.328125 12.15625 50.6875 5.359375 
Q 44.046875 -1.421875 33.015625 -1.421875 
Q 20.359375 -1.421875 13.671875 8.265625 
Q 6.984375 17.96875 6.984375 36.375 
Q 6.984375 53.65625 15.1875 63.9375 
Q 23.390625 74.21875 37.203125 74.21875 
Q 40.921875 74.21875 44.703125 73.484375 
Q 48.484375 72.75 52.59375 71.296875 
z
" id="DejaVuSans-54"/>
      </defs>
      <g transform="translate(247.251483 322.182437)scale(0.1 -0.1)">
       <use xlink:href="#DejaVuSans-54"/>
      </g>
     </g>
    </g>
    <g id="xtick_5">
     <g id="line2d_9">
      <path clip-path="url(#p9f95ef65a0)" d="M 314.710311 307.584 
L 314.710311 41.472 
" style="fill:none;stroke:#b0b0b0;stroke-linecap:square;stroke-width:0.8;"/>
     </g>
     <g id="line2d_10">
      <g>
       <use style="stroke:#000000;stroke-width:0.8;" x="314.710311" xlink:href="#m5783cb53e2" y="307.584"/>
      </g>
     </g>
     <g id="text_5">
      <!-- 8 -->
      <defs>
       <path d="M 31.78125 34.625 
Q 24.75 34.625 20.71875 30.859375 
Q 16.703125 27.09375 16.703125 20.515625 
Q 16.703125 13.921875 20.71875 10.15625 
Q 24.75 6.390625 31.78125 6.390625 
Q 38.8125 6.390625 42.859375 10.171875 
Q 46.921875 13.96875 46.921875 20.515625 
Q 46.921875 27.09375 42.890625 30.859375 
Q 38.875 34.625 31.78125 34.625 
z
M 21.921875 38.8125 
Q 15.578125 40.375 12.03125 44.71875 
Q 8.5 49.078125 8.5 55.328125 
Q 8.5 64.0625 14.71875 69.140625 
Q 20.953125 74.21875 31.78125 74.21875 
Q 42.671875 74.21875 48.875 69.140625 
Q 55.078125 64.0625 55.078125 55.328125 
Q 55.078125 49.078125 51.53125 44.71875 
Q 48 40.375 41.703125 38.8125 
Q 48.828125 37.15625 52.796875 32.3125 
Q 56.78125 27.484375 56.78125 20.515625 
Q 56.78125 9.90625 50.3125 4.234375 
Q 43.84375 -1.421875 31.78125 -1.421875 
Q 19.734375 -1.421875 13.25 4.234375 
Q 6.78125 9.90625 6.78125 20.515625 
Q 6.78125 27.484375 10.78125 32.3125 
Q 14.796875 37.15625 21.921875 38.8125 
z
M 18.3125 54.390625 
Q 18.3125 48.734375 21.84375 45.5625 
Q 25.390625 42.390625 31.78125 42.390625 
Q 38.140625 42.390625 41.71875 45.5625 
Q 45.3125 48.734375 45.3125 54.390625 
Q 45.3125 60.0625 41.71875 63.234375 
Q 38.140625 66.40625 31.78125 66.40625 
Q 25.390625 66.40625 21.84375 63.234375 
Q 18.3125 60.0625 18.3125 54.390625 
z
" id="DejaVuSans-56"/>
      </defs>
      <g transform="translate(311.529061 322.182437)scale(0.1 -0.1)">
       <use xlink:href="#DejaVuSans-56"/>
      </g>
     </g>
    </g>
    <g id="xtick_6">
     <g id="line2d_11">
      <path clip-path="url(#p9f95ef65a0)" d="M 378.987889 307.584 
L 378.987889 41.472 
" style="fill:none;stroke:#b0b0b0;stroke-linecap:square;stroke-width:0.8;"/>
     </g>
     <g id="line2d_12">
      <g>
       <use style="stroke:#000000;stroke-width:0.8;" x="378.987889" xlink:href="#m5783cb53e2" y="307.584"/>
      </g>
     </g>
     <g id="text_6">
      <!-- 10 -->
      <defs>
       <path d="M 12.40625 8.296875 
L 28.515625 8.296875 
L 28.515625 63.921875 
L 10.984375 60.40625 
L 10.984375 69.390625 
L 28.421875 72.90625 
L 38.28125 72.90625 
L 38.28125 8.296875 
L 54.390625 8.296875 
L 54.390625 0 
L 12.40625 0 
z
" id="DejaVuSans-49"/>
      </defs>
      <g transform="translate(372.625389 322.182437)scale(0.1 -0.1)">
       <use xlink:href="#DejaVuSans-49"/>
       <use x="63.623047" xlink:href="#DejaVuSans-48"/>
      </g>
     </g>
    </g>
    <g id="text_7">
     <!-- Hours -->
     <defs>
      <path d="M 9.8125 72.90625 
L 19.671875 72.90625 
L 19.671875 43.015625 
L 55.515625 43.015625 
L 55.515625 72.90625 
L 65.375 72.90625 
L 65.375 0 
L 55.515625 0 
L 55.515625 34.71875 
L 19.671875 34.71875 
L 19.671875 0 
L 9.8125 0 
z
" id="DejaVuSans-72"/>
      <path d="M 30.609375 48.390625 
Q 23.390625 48.390625 19.1875 42.75 
Q 14.984375 37.109375 14.984375 27.296875 
Q 14.984375 17.484375 19.15625 11.84375 
Q 23.34375 6.203125 30.609375 6.203125 
Q 37.796875 6.203125 41.984375 11.859375 
Q 46.1875 17.53125 46.1875 27.296875 
Q 46.1875 37.015625 41.984375 42.703125 
Q 37.796875 48.390625 30.609375 48.390625 
z
M 30.609375 56 
Q 42.328125 56 49.015625 48.375 
Q 55.71875 40.765625 55.71875 27.296875 
Q 55.71875 13.875 49.015625 6.21875 
Q 42.328125 -1.421875 30.609375 -1.421875 
Q 18.84375 -1.421875 12.171875 6.21875 
Q 5.515625 13.875 5.515625 27.296875 
Q 5.515625 40.765625 12.171875 48.375 
Q 18.84375 56 30.609375 56 
z
" id="DejaVuSans-111"/>
      <path d="M 8.5 21.578125 
L 8.5 54.6875 
L 17.484375 54.6875 
L 17.484375 21.921875 
Q 17.484375 14.15625 20.5 10.265625 
Q 23.53125 6.390625 29.59375 6.390625 
Q 36.859375 6.390625 41.078125 11.03125 
Q 45.3125 15.671875 45.3125 23.6875 
L 45.3125 54.6875 
L 54.296875 54.6875 
L 54.296875 0 
L 45.3125 0 
L 45.3125 8.40625 
Q 42.046875 3.421875 37.71875 1 
Q 33.40625 -1.421875 27.6875 -1.421875 
Q 18.265625 -1.421875 13.375 4.4375 
Q 8.5 10.296875 8.5 21.578125 
z
M 31.109375 56 
z
" id="DejaVuSans-117"/>
      <path d="M 41.109375 46.296875 
Q 39.59375 47.171875 37.8125 47.578125 
Q 36.03125 48 33.890625 48 
Q 26.265625 48 22.1875 43.046875 
Q 18.109375 38.09375 18.109375 28.8125 
L 18.109375 0 
L 9.078125 0 
L 9.078125 54.6875 
L 18.109375 54.6875 
L 18.109375 46.1875 
Q 20.953125 51.171875 25.484375 53.578125 
Q 30.03125 56 36.53125 56 
Q 37.453125 56 38.578125 55.875 
Q 39.703125 55.765625 41.0625 55.515625 
z
" id="DejaVuSans-114"/>
      <path d="M 44.28125 53.078125 
L 44.28125 44.578125 
Q 40.484375 46.53125 36.375 47.5 
Q 32.28125 48.484375 27.875 48.484375 
Q 21.1875 48.484375 17.84375 46.4375 
Q 14.5 44.390625 14.5 40.28125 
Q 14.5 37.15625 16.890625 35.375 
Q 19.28125 33.59375 26.515625 31.984375 
L 29.59375 31.296875 
Q 39.15625 29.25 43.1875 25.515625 
Q 47.21875 21.78125 47.21875 15.09375 
Q 47.21875 7.46875 41.1875 3.015625 
Q 35.15625 -1.421875 24.609375 -1.421875 
Q 20.21875 -1.421875 15.453125 -0.5625 
Q 10.6875 0.296875 5.421875 2 
L 5.421875 11.28125 
Q 10.40625 8.6875 15.234375 7.390625 
Q 20.0625 6.109375 24.8125 6.109375 
Q 31.15625 6.109375 34.5625 8.28125 
Q 37.984375 10.453125 37.984375 14.40625 
Q 37.984375 18.0625 35.515625 20.015625 
Q 33.0625 21.96875 24.703125 23.78125 
L 21.578125 24.515625 
Q 13.234375 26.265625 9.515625 29.90625 
Q 5.8125 33.546875 5.8125 39.890625 
Q 5.8125 47.609375 11.28125 51.796875 
Q 16.75 56 26.8125 56 
Q 31.78125 56 36.171875 55.265625 
Q 40.578125 54.546875 44.28125 53.078125 
z
" id="DejaVuSans-115"/>
     </defs>
     <g transform="translate(221.511562 335.860562)scale(0.1 -0.1)">
      <use xlink:href="#DejaVuSans-72"/>
      <use x="75.195312" xlink:href="#DejaVuSans-111"/>
      <use x="136.376953" xlink:href="#DejaVuSans-117"/>
      <use x="199.755859" xlink:href="#DejaVuSans-114"/>
      <use x="240.869141" xlink:href="#DejaVuSans-115"/>
     </g>
    </g>
   </g>
   <g id="matplotlib.axis_2">
    <g id="ytick_1">
     <g id="line2d_13">
      <path clip-path="url(#p9f95ef65a0)" d="M 57.6 298.570947 
L 414.72 298.570947 
" style="fill:none;stroke:#b0b0b0;stroke-linecap:square;stroke-width:0.8;"/>
     </g>
     <g id="line2d_14">
      <defs>
       <path d="M 0 0 
L -3.5 0 
" id="m925d44d15b" style="stroke:#000000;stroke-width:0.8;"/>
      </defs>
      <g>
       <use style="stroke:#000000;stroke-width:0.8;" x="57.6" xlink:href="#m925d44d15b" y="298.570947"/>
      </g>
     </g>
     <g id="text_8">
      <!-- −1 -->
      <defs>
       <path d="M 10.59375 35.5 
L 73.1875 35.5 
L 73.1875 27.203125 
L 10.59375 27.203125 
z
" id="DejaVuSans-8722"/>
      </defs>
      <g transform="translate(35.857813 302.370165)scale(0.1 -0.1)">
       <use xlink:href="#DejaVuSans-8722"/>
       <use x="83.789062" xlink:href="#DejaVuSans-49"/>
      </g>
     </g>
    </g>
    <g id="ytick_2">
     <g id="line2d_15">
      <path clip-path="url(#p9f95ef65a0)" d="M 57.6 258.255662 
L 414.72 258.255662 
" style="fill:none;stroke:#b0b0b0;stroke-linecap:square;stroke-width:0.8;"/>
     </g>
     <g id="line2d_16">
      <g>
       <use style="stroke:#000000;stroke-width:0.8;" x="57.6" xlink:href="#m925d44d15b" y="258.255662"/>
      </g>
     </g>
     <g id="text_9">
      <!-- 0 -->
      <g transform="translate(44.2375 262.054881)scale(0.1 -0.1)">
       <use xlink:href="#DejaVuSans-48"/>
      </g>
     </g>
    </g>
    <g id="ytick_3">
     <g id="line2d_17">
      <path clip-path="url(#p9f95ef65a0)" d="M 57.6 217.940378 
L 414.72 217.940378 
" style="fill:none;stroke:#b0b0b0;stroke-linecap:square;stroke-width:0.8;"/>
     </g>
     <g id="line2d_18">
      <g>
       <use style="stroke:#000000;stroke-width:0.8;" x="57.6" xlink:href="#m925d44d15b" y="217.940378"/>
      </g>
     </g>
     <g id="text_10">
      <!-- 1 -->
      <g transform="translate(44.2375 221.739597)scale(0.1 -0.1)">
       <use xlink:href="#DejaVuSans-49"/>
      </g>
     </g>
    </g>
    <g id="ytick_4">
     <g id="line2d_19">
      <path clip-path="url(#p9f95ef65a0)" d="M 57.6 177.625094 
L 414.72 177.625094 
" style="fill:none;stroke:#b0b0b0;stroke-linecap:square;stroke-width:0.8;"/>
     </g>
     <g id="line2d_20">
      <g>
       <use style="stroke:#000000;stroke-width:0.8;" x="57.6" xlink:href="#m925d44d15b" y="177.625094"/>
      </g>
     </g>
     <g id="text_11">
      <!-- 2 -->
      <g transform="translate(44.2375 181.424313)scale(0.1 -0.1)">
       <use xlink:href="#DejaVuSans-50"/>
      </g>
     </g>
    </g>
    <g id="ytick_5">
     <g id="line2d_21">
      <path clip-path="url(#p9f95ef65a0)" d="M 57.6 137.30981 
L 414.72 137.30981 
" style="fill:none;stroke:#b0b0b0;stroke-linecap:square;stroke-width:0.8;"/>
     </g>
     <g id="line2d_22">
      <g>
       <use style="stroke:#000000;stroke-width:0.8;" x="57.6" xlink:href="#m925d44d15b" y="137.30981"/>
      </g>
     </g>
     <g id="text_12">
      <!-- 3 -->
      <defs>
       <path d="M 40.578125 39.3125 
Q 47.65625 37.796875 51.625 33 
Q 55.609375 28.21875 55.609375 21.1875 
Q 55.609375 10.40625 48.1875 4.484375 
Q 40.765625 -1.421875 27.09375 -1.421875 
Q 22.515625 -1.421875 17.65625 -0.515625 
Q 12.796875 0.390625 7.625 2.203125 
L 7.625 11.71875 
Q 11.71875 9.328125 16.59375 8.109375 
Q 21.484375 6.890625 26.8125 6.890625 
Q 36.078125 6.890625 40.9375 10.546875 
Q 45.796875 14.203125 45.796875 21.1875 
Q 45.796875 27.640625 41.28125 31.265625 
Q 36.765625 34.90625 28.71875 34.90625 
L 20.21875 34.90625 
L 20.21875 43.015625 
L 29.109375 43.015625 
Q 36.375 43.015625 40.234375 45.921875 
Q 44.09375 48.828125 44.09375 54.296875 
Q 44.09375 59.90625 40.109375 62.90625 
Q 36.140625 65.921875 28.71875 65.921875 
Q 24.65625 65.921875 20.015625 65.03125 
Q 15.375 64.15625 9.8125 62.3125 
L 9.8125 71.09375 
Q 15.4375 72.65625 20.34375 73.4375 
Q 25.25 74.21875 29.59375 74.21875 
Q 40.828125 74.21875 47.359375 69.109375 
Q 53.90625 64.015625 53.90625 55.328125 
Q 53.90625 49.265625 50.4375 45.09375 
Q 46.96875 40.921875 40.578125 39.3125 
z
" id="DejaVuSans-51"/>
      </defs>
      <g transform="translate(44.2375 141.109029)scale(0.1 -0.1)">
       <use xlink:href="#DejaVuSans-51"/>
      </g>
     </g>
    </g>
    <g id="ytick_6">
     <g id="line2d_23">
      <path clip-path="url(#p9f95ef65a0)" d="M 57.6 96.994526 
L 414.72 96.994526 
" style="fill:none;stroke:#b0b0b0;stroke-linecap:square;stroke-width:0.8;"/>
     </g>
     <g id="line2d_24">
      <g>
       <use style="stroke:#000000;stroke-width:0.8;" x="57.6" xlink:href="#m925d44d15b" y="96.994526"/>
      </g>
     </g>
     <g id="text_13">
      <!-- 4 -->
      <g transform="translate(44.2375 100.793745)scale(0.1 -0.1)">
       <use xlink:href="#DejaVuSans-52"/>
      </g>
     </g>
    </g>
    <g id="ytick_7">
     <g id="line2d_25">
      <path clip-path="url(#p9f95ef65a0)" d="M 57.6 56.679242 
L 414.72 56.679242 
" style="fill:none;stroke:#b0b0b0;stroke-linecap:square;stroke-width:0.8;"/>
     </g>
     <g id="line2d_26">
      <g>
       <use style="stroke:#000000;stroke-width:0.8;" x="57.6" xlink:href="#m925d44d15b" y="56.679242"/>
      </g>
     </g>
     <g id="text_14">
      <!-- 5 -->
      <defs>
       <path d="M 10.796875 72.90625 
L 49.515625 72.90625 
L 49.515625 64.59375 
L 19.828125 64.59375 
L 19.828125 46.734375 
Q 21.96875 47.46875 24.109375 47.828125 
Q 26.265625 48.1875 28.421875 48.1875 
Q 40.625 48.1875 47.75 41.5 
Q 54.890625 34.8125 54.890625 23.390625 
Q 54.890625 11.625 47.5625 5.09375 
Q 40.234375 -1.421875 26.90625 -1.421875 
Q 22.3125 -1.421875 17.546875 -0.640625 
Q 12.796875 0.140625 7.71875 1.703125 
L 7.71875 11.625 
Q 12.109375 9.234375 16.796875 8.0625 
Q 21.484375 6.890625 26.703125 6.890625 
Q 35.15625 6.890625 40.078125 11.328125 
Q 45.015625 15.765625 45.015625 23.390625 
Q 45.015625 31 40.078125 35.4375 
Q 35.15625 39.890625 26.703125 39.890625 
Q 22.75 39.890625 18.8125 39.015625 
Q 14.890625 38.140625 10.796875 36.28125 
z
" id="DejaVuSans-53"/>
      </defs>
      <g transform="translate(44.2375 60.47846)scale(0.1 -0.1)">
       <use xlink:href="#DejaVuSans-53"/>
      </g>
     </g>
    </g>
    <g id="text_15">
     <!-- Reward -->
     <defs>
      <path d="M 44.390625 34.1875 
Q 47.5625 33.109375 50.5625 29.59375 
Q 53.5625 26.078125 56.59375 19.921875 
L 66.609375 0 
L 56 0 
L 46.6875 18.703125 
Q 43.0625 26.03125 39.671875 28.421875 
Q 36.28125 30.8125 30.421875 30.8125 
L 19.671875 30.8125 
L 19.671875 0 
L 9.8125 0 
L 9.8125 72.90625 
L 32.078125 72.90625 
Q 44.578125 72.90625 50.734375 67.671875 
Q 56.890625 62.453125 56.890625 51.90625 
Q 56.890625 45.015625 53.6875 40.46875 
Q 50.484375 35.9375 44.390625 34.1875 
z
M 19.671875 64.796875 
L 19.671875 38.921875 
L 32.078125 38.921875 
Q 39.203125 38.921875 42.84375 42.21875 
Q 46.484375 45.515625 46.484375 51.90625 
Q 46.484375 58.296875 42.84375 61.546875 
Q 39.203125 64.796875 32.078125 64.796875 
z
" id="DejaVuSans-82"/>
      <path d="M 56.203125 29.59375 
L 56.203125 25.203125 
L 14.890625 25.203125 
Q 15.484375 15.921875 20.484375 11.0625 
Q 25.484375 6.203125 34.421875 6.203125 
Q 39.59375 6.203125 44.453125 7.46875 
Q 49.3125 8.734375 54.109375 11.28125 
L 54.109375 2.78125 
Q 49.265625 0.734375 44.1875 -0.34375 
Q 39.109375 -1.421875 33.890625 -1.421875 
Q 20.796875 -1.421875 13.15625 6.1875 
Q 5.515625 13.8125 5.515625 26.8125 
Q 5.515625 40.234375 12.765625 48.109375 
Q 20.015625 56 32.328125 56 
Q 43.359375 56 49.78125 48.890625 
Q 56.203125 41.796875 56.203125 29.59375 
z
M 47.21875 32.234375 
Q 47.125 39.59375 43.09375 43.984375 
Q 39.0625 48.390625 32.421875 48.390625 
Q 24.90625 48.390625 20.390625 44.140625 
Q 15.875 39.890625 15.1875 32.171875 
z
" id="DejaVuSans-101"/>
      <path d="M 4.203125 54.6875 
L 13.1875 54.6875 
L 24.421875 12.015625 
L 35.59375 54.6875 
L 46.1875 54.6875 
L 57.421875 12.015625 
L 68.609375 54.6875 
L 77.59375 54.6875 
L 63.28125 0 
L 52.6875 0 
L 40.921875 44.828125 
L 29.109375 0 
L 18.5 0 
z
" id="DejaVuSans-119"/>
      <path d="M 34.28125 27.484375 
Q 23.390625 27.484375 19.1875 25 
Q 14.984375 22.515625 14.984375 16.5 
Q 14.984375 11.71875 18.140625 8.90625 
Q 21.296875 6.109375 26.703125 6.109375 
Q 34.1875 6.109375 38.703125 11.40625 
Q 43.21875 16.703125 43.21875 25.484375 
L 43.21875 27.484375 
z
M 52.203125 31.203125 
L 52.203125 0 
L 43.21875 0 
L 43.21875 8.296875 
Q 40.140625 3.328125 35.546875 0.953125 
Q 30.953125 -1.421875 24.3125 -1.421875 
Q 15.921875 -1.421875 10.953125 3.296875 
Q 6 8.015625 6 15.921875 
Q 6 25.140625 12.171875 29.828125 
Q 18.359375 34.515625 30.609375 34.515625 
L 43.21875 34.515625 
L 43.21875 35.40625 
Q 43.21875 41.609375 39.140625 45 
Q 35.0625 48.390625 27.6875 48.390625 
Q 23 48.390625 18.546875 47.265625 
Q 14.109375 46.140625 10.015625 43.890625 
L 10.015625 52.203125 
Q 14.9375 54.109375 19.578125 55.046875 
Q 24.21875 56 28.609375 56 
Q 40.484375 56 46.34375 49.84375 
Q 52.203125 43.703125 52.203125 31.203125 
z
" id="DejaVuSans-97"/>
      <path d="M 45.40625 46.390625 
L 45.40625 75.984375 
L 54.390625 75.984375 
L 54.390625 0 
L 45.40625 0 
L 45.40625 8.203125 
Q 42.578125 3.328125 38.25 0.953125 
Q 33.9375 -1.421875 27.875 -1.421875 
Q 17.96875 -1.421875 11.734375 6.484375 
Q 5.515625 14.40625 5.515625 27.296875 
Q 5.515625 40.1875 11.734375 48.09375 
Q 17.96875 56 27.875 56 
Q 33.9375 56 38.25 53.625 
Q 42.578125 51.265625 45.40625 46.390625 
z
M 14.796875 27.296875 
Q 14.796875 17.390625 18.875 11.75 
Q 22.953125 6.109375 30.078125 6.109375 
Q 37.203125 6.109375 41.296875 11.75 
Q 45.40625 17.390625 45.40625 27.296875 
Q 45.40625 37.203125 41.296875 42.84375 
Q 37.203125 48.484375 30.078125 48.484375 
Q 22.953125 48.484375 18.875 42.84375 
Q 14.796875 37.203125 14.796875 27.296875 
z
" id="DejaVuSans-100"/>
     </defs>
     <g transform="translate(29.778125 193.457687)rotate(-90)scale(0.1 -0.1)">
      <use xlink:href="#DejaVuSans-82"/>
      <use x="69.419922" xlink:href="#DejaVuSans-101"/>
      <use x="130.943359" xlink:href="#DejaVuSans-119"/>
      <use x="212.730469" xlink:href="#DejaVuSans-97"/>
      <use x="274.009766" xlink:href="#DejaVuSans-114"/>
      <use x="315.107422" xlink:href="#DejaVuSans-100"/>
     </g>
    </g>
   </g>
   <g id="line2d_27">
    <path clip-path="url(#p9f95ef65a0)" d="M 57.6 295.488 
L 57.600598 265.070155 
L 57.600622 273.204383 
L 57.934342 267.775688 
L 58.029298 268.391593 
L 58.640288 263.108953 
L 59.205817 253.775394 
L 59.638274 262.877586 
L 60.443917 265.034505 
L 60.65568 267.590584 
L 61.232688 249.642402 
L 63.438162 235.742703 
L 63.440573 236.999268 
L 63.647068 240.140837 
L 64.238275 234.740916 
L 64.338346 234.898046 
L 64.430289 236.171505 
L 64.592554 231.22749 
L 64.904612 228.940662 
L 65.590891 210.258836 
L 65.609873 212.025077 
L 66.329619 211.734139 
L 67.146917 203.635127 
L 67.258798 205.765848 
L 68.557533 193.416467 
L 68.90044 197.431166 
L 69.458884 181.473521 
L 69.864369 179.436401 
L 69.99228 183.347825 
L 70.248107 183.010634 
L 70.723844 180.719683 
L 70.985538 188.974322 
L 72.030329 172.748134 
L 72.708046 168.49171 
L 73.059946 161.736295 
L 73.2604 161.559186 
L 73.544769 166.152238 
L 73.650786 164.769084 
L 73.912427 163.462729 
L 74.015266 166.164897 
L 74.626353 177.238897 
L 75.170116 180.412616 
L 75.819554 178.821705 
L 75.959879 178.806571 
L 77.464038 163.450848 
L 77.668269 163.238098 
L 77.800179 166.486637 
L 78.005951 164.541051 
L 79.030063 162.058361 
L 79.307581 165.280812 
L 79.682359 164.658432 
L 79.817759 168.55041 
L 80.125689 168.293253 
L 80.535784 165.207339 
L 80.82092 159.926381 
L 81.172793 162.98815 
L 82.736223 169.567697 
L 83.388034 164.568848 
L 83.749337 164.776754 
L 84.17011 166.612428 
L 84.273019 166.02638 
L 84.896626 169.774362 
L 85.561014 159.748638 
L 85.910071 162.606471 
L 86.091665 160.469099 
L 86.536344 164.424141 
L 86.793638 165.307341 
L 87.605241 164.991946 
L 87.928599 162.004371 
L 88.09314 165.815927 
L 88.306579 163.090594 
L 88.336319 163.381287 
L 88.758007 167.582712 
L 88.926463 165.312878 
L 88.953534 162.333896 
L 89.067393 165.326094 
L 89.471658 169.639728 
L 89.60316 165.988922 
L 89.985539 165.35964 
L 90.275034 164.63567 
L 90.608505 153.785388 
L 90.718302 154.262187 
L 91.799883 148.933371 
L 92.171831 149.564278 
L 92.272413 155.464935 
L 92.662266 157.623463 
L 94.746637 166.514002 
L 94.901604 166.131572 
L 95.266351 162.523837 
L 95.482317 162.315547 
L 95.824214 165.067649 
L 95.988962 163.210512 
L 96.611877 169.800622 
L 97.038457 163.84808 
L 97.417963 164.91729 
L 97.922129 164.196252 
L 98.13754 166.340641 
L 98.559956 160.764127 
L 98.777802 160.657761 
L 98.913292 160.83315 
L 99.056947 164.997819 
L 99.656544 162.564947 
L 99.762377 162.866146 
L 99.844968 157.348149 
L 100.460945 155.286913 
L 100.709761 156.648306 
L 101.411936 162.570801 
L 101.786088 149.396867 
L 101.797127 150.767737 
L 102.608358 144.093686 
L 102.991125 149.826222 
L 103.42969 140.54889 
L 103.543433 140.484115 
L 103.775807 139.603049 
L 103.883187 141.169791 
L 104.870405 136.577728 
L 105.002958 140.589875 
L 105.145755 135.670527 
L 105.253567 135.703313 
L 106.045948 137.19985 
L 106.190301 133.19123 
L 106.931554 142.176312 
L 107.15423 141.983593 
L 107.946176 147.367283 
L 108.518709 153.961997 
L 109.72588 147.130426 
L 110.29588 150.644445 
L 110.478122 145.070805 
L 110.59607 147.182388 
L 110.870995 146.511746 
L 111.26961 147.441612 
L 111.491814 151.797596 
L 111.843507 141.914349 
L 111.95866 142.628562 
L 112.800929 149.31482 
L 113.373941 144.069339 
L 113.613124 144.33285 
L 113.626336 145.805001 
L 114.558889 146.050384 
L 114.946538 147.454059 
L 116.19805 140.322991 
L 117.803797 141.176519 
L 117.826103 142.711801 
L 118.172239 139.921886 
L 118.396996 142.205109 
L 119.661961 151.75639 
L 120.834251 158.380987 
L 120.948714 157.959563 
L 121.371119 155.866905 
L 121.596432 159.905379 
L 121.865729 159.14598 
L 124.020721 145.757297 
L 124.177541 142.245931 
L 125.128997 141.441731 
L 126.037996 133.566249 
L 126.379745 133.7864 
L 126.71642 134.799918 
L 128.248157 135.635222 
L 128.559808 126.527301 
L 129.074191 125.946511 
L 129.581887 130.5597 
L 130.204748 127.307836 
L 130.468555 130.624494 
L 130.57685 137.208645 
L 130.815829 137.278129 
L 131.426688 135.164181 
L 131.776921 135.258426 
L 132.01566 136.943298 
L 132.258554 133.851549 
L 132.274571 131.501792 
L 133.929728 131.380682 
L 135.148366 134.958736 
L 136.275726 141.215937 
L 136.478845 138.615684 
L 136.59789 139.395874 
L 136.824072 139.29714 
L 136.929998 140.0637 
L 138.270426 139.70902 
L 138.662321 141.896768 
L 138.911257 137.643545 
L 139.29287 137.602156 
L 139.492056 140.783555 
L 139.748858 138.806442 
L 140.383092 140.05652 
L 142.198393 139.91931 
L 142.313752 144.704956 
L 142.926165 144.691807 
L 143.629621 146.325669 
L 143.747092 146.951654 
L 144.111847 141.286076 
L 144.182625 143.625471 
L 144.897437 148.052209 
L 146.637905 138.625267 
L 146.649912 139.405265 
L 146.970685 138.571518 
L 149.112614 133.870533 
L 149.23111 134.74563 
L 149.365015 132.428256 
L 149.995355 139.849325 
L 150.799189 141.110274 
L 150.909915 143.453187 
L 151.68684 143.220165 
L 152.293629 152.599701 
L 152.613199 149.817186 
L 153.462907 147.2341 
L 154.037288 139.544032 
L 154.103956 137.080431 
L 154.632752 137.179934 
L 155.197524 139.263575 
L 156.04009 136.683863 
L 156.157836 138.308997 
L 156.547342 135.797981 
L 156.780495 135.187192 
L 157.028766 136.941078 
L 157.216111 135.32694 
L 157.451733 140.185598 
L 158.078864 146.655569 
L 159.462458 143.956765 
L 159.66555 137.149003 
L 159.993356 137.174263 
L 160.64934 130.975367 
L 161.305443 122.339563 
L 161.670693 122.664138 
L 161.902977 123.244102 
L 162.133255 123.010927 
L 162.471797 124.625872 
L 163.010447 120.990993 
L 163.745724 123.301197 
L 164.444165 130.125232 
L 164.808018 129.891855 
L 165.018655 129.427676 
L 165.371133 129.923132 
L 165.927265 128.35713 
L 166.181461 129.706374 
L 166.300213 132.277358 
L 166.413467 131.5717 
L 166.809258 135.407334 
L 168.530211 132.390039 
L 168.976772 127.540896 
L 169.488273 123.388665 
L 169.607343 123.667093 
L 170.487704 122.248885 
L 171.188544 128.080288 
L 172.073574 122.464451 
L 172.832505 123.785666 
L 173.039814 121.902308 
L 173.418722 122.276942 
L 174.348276 121.159855 
L 174.710465 127.044691 
L 175.00486 126.480635 
L 175.324626 131.209648 
L 176.439172 129.7835 
L 176.789905 132.596964 
L 177.357201 123.46556 
L 180.553246 135.159933 
L 180.973692 126.485806 
L 181.467438 126.076598 
L 181.767928 125.432792 
L 182.132785 131.856078 
L 182.5627 124.006038 
L 182.704636 125.498595 
L 182.834625 122.75723 
L 183.045917 129.935118 
L 183.512192 126.945938 
L 184.46987 137.971513 
L 184.549877 133.155849 
L 185.343707 133.935048 
L 185.415439 129.27923 
L 186.761575 130.343797 
L 186.897702 130.030853 
L 187.274536 132.271764 
L 187.624074 132.805129 
L 187.940972 134.071143 
L 188.067368 130.990294 
L 188.152194 132.095232 
L 188.809145 129.17892 
L 189.041636 132.71 
L 189.148712 129.061212 
L 189.393551 135.045945 
L 189.73754 137.565746 
L 190.152304 133.64968 
L 191.748559 133.978898 
L 192.725532 122.038701 
L 192.7648 119.925214 
L 193.020896 120.964012 
L 193.134613 120.484628 
L 193.345576 114.772085 
L 193.536444 119.636943 
L 193.897591 124.091892 
L 194.208247 117.552965 
L 194.404769 117.496784 
L 194.960739 120.46972 
L 195.367255 117.199449 
L 195.795934 117.259956 
L 196.159459 117.683716 
L 196.229861 122.444064 
L 196.306384 120.322455 
L 197.367154 121.58226 
L 197.616792 119.362254 
L 197.949111 120.043441 
L 198.348668 116.79027 
L 198.581515 123.238594 
L 199.219421 124.760035 
L 199.244677 122.592116 
L 199.492784 126.989912 
L 199.629206 125.834349 
L 199.862106 127.869143 
L 200.1885 122.248337 
L 200.926188 118.454246 
L 201.059193 115.991837 
L 201.297141 119.238818 
L 201.341696 117.181321 
L 201.542364 117.227112 
L 201.727058 116.875181 
L 202.251768 113.061674 
L 202.576093 107.167457 
L 203.822831 110.166287 
L 204.552644 114.170687 
L 204.668219 113.827157 
L 204.757041 109.967619 
L 204.990868 112.662982 
L 205.105098 112.349614 
L 205.26101 112.515602 
L 205.37389 108.707997 
L 205.381374 110.89265 
L 206.140483 113.475611 
L 206.35153 115.70001 
L 206.654728 121.048895 
L 208.186449 127.307567 
L 208.869346 116.905247 
L 209.344775 113.099651 
L 209.511811 112.959173 
L 209.861621 116.858159 
L 210.112537 114.141265 
L 210.232102 114.604636 
L 210.262795 115.865046 
L 210.892306 114.779458 
L 210.960008 110.882202 
L 211.084484 111.170809 
L 211.925391 115.825493 
L 212.037925 117.867794 
L 212.092963 121.798413 
L 212.735545 118.819344 
L 213.485323 132.957334 
L 214.946912 131.481329 
L 216.108875 129.611494 
L 216.471898 128.676178 
L 216.578477 126.429932 
L 216.813823 126.054472 
L 217.451654 118.844797 
L 217.515508 124.349337 
L 217.771903 123.837397 
L 218.450371 125.405485 
L 218.873051 132.66963 
L 218.953131 130.343518 
L 219.794953 125.039232 
L 220.611435 120.935974 
L 221.208223 125.594388 
L 221.29164 123.409773 
L 221.327721 119.170766 
L 221.556504 121.485555 
L 221.624237 121.470137 
L 223.685318 117.733419 
L 223.76653 117.318637 
L 224.88493 120.342592 
L 225.356577 123.967744 
L 225.413843 121.815676 
L 226.294424 118.384953 
L 226.590152 122.722781 
L 227.062075 118.453534 
L 227.526774 117.179744 
L 227.761911 117.186713 
L 227.783646 117.935212 
L 228.019303 117.912259 
L 229.222505 120.819238 
L 229.684083 118.239833 
L 229.954357 118.554988 
L 230.688274 113.3855 
L 230.725571 111.445066 
L 231.525024 99.648557 
L 232.464521 98.501635 
L 232.6468 100.828622 
L 233.213983 98.706811 
L 233.706036 100.110977 
L 235.218936 102.473412 
L 235.566167 104.554007 
L 236.443337 113.731105 
L 236.778957 109.649147 
L 237.23234 109.893357 
L 237.667267 104.100094 
L 238.958285 107.275591 
L 239.225751 107.141514 
L 239.380935 105.965641 
L 239.774315 107.223254 
L 240.107902 103.143622 
L 241.184077 106.554227 
L 241.64724 101.607312 
L 242.62182 104.121269 
L 243.415539 98.512199 
L 243.519126 96.844349 
L 244.046978 99.977314 
L 244.700494 107.138467 
L 244.80521 111.773428 
L 244.830349 109.865233 
L 245.442496 112.687088 
L 247.015416 99.395207 
L 247.094032 97.734585 
L 247.213743 98.526088 
L 247.650323 105.29546 
L 248.270219 101.360045 
L 248.378266 104.412394 
L 249.146412 108.842083 
L 249.266905 108.60513 
L 249.32219 104.76097 
L 249.562661 106.049899 
L 249.576799 104.256182 
L 249.73166 105.516726 
L 251.128814 102.841779 
L 251.628157 97.263592 
L 251.942656 95.635151 
L 252.869893 95.704626 
L 253.948107 81.959072 
L 254.466291 84.665806 
L 254.745186 82.461544 
L 256.027592 92.601343 
L 256.180569 91.162709 
L 256.199788 89.66673 
L 256.322115 90.619598 
L 257.082509 103.018811 
L 257.882468 102.999145 
L 258.441721 106.205093 
L 259.79622 106.39142 
L 260.257584 97.444373 
L 261.221581 92.046525 
L 261.506068 92.461951 
L 261.79088 86.63794 
L 262.027683 91.015089 
L 262.064964 88.058888 
L 262.195026 89.170679 
L 262.36238 87.900138 
L 262.789043 88.748716 
L 262.904152 89.719942 
L 263.072222 93.341365 
L 263.607736 90.836692 
L 263.751489 94.312456 
L 264.397125 91.798403 
L 264.53247 94.390832 
L 264.595512 91.300967 
L 265.286784 90.012586 
L 266.382756 96.151619 
L 266.435126 92.992029 
L 266.607504 97.207843 
L 267.440561 100.901845 
L 267.639053 103.507625 
L 268.376611 104.495393 
L 268.615916 104.007272 
L 269.433346 96.693865 
L 270.576118 89.174101 
L 270.621504 87.717896 
L 271.165138 83.430252 
L 271.289511 83.701539 
L 271.323606 81.034963 
L 272.056409 88.549172 
L 272.323967 89.172543 
L 272.48265 86.289316 
L 273.443901 85.293829 
L 274.128308 84.218602 
L 274.628304 83.046929 
L 274.692435 83.325886 
L 275.346165 92.559878 
L 277.325988 86.657625 
L 277.373455 90.491048 
L 277.945875 96.511566 
L 278.227581 98.120975 
L 278.240431 96.485844 
L 278.385918 94.893362 
L 278.505861 97.354309 
L 278.937411 90.673021 
L 279.782638 94.664963 
L 280.165283 101.921092 
L 280.667613 101.242059 
L 280.772214 97.880879 
L 280.904627 100.184066 
L 281.486794 106.995981 
L 282.708064 99.538914 
L 283.142611 98.720998 
L 283.513514 89.465841 
L 284.012772 94.460864 
L 284.124258 92.898909 
L 284.62033 94.796281 
L 284.919171 100.633606 
L 285.254402 97.158418 
L 285.899409 92.747983 
L 286.056294 95.528805 
L 286.547941 100.242708 
L 287.276813 89.229504 
L 287.338277 86.344027 
L 287.481135 85.153168 
L 287.654388 92.962117 
L 287.995833 89.382833 
L 288.915806 90.328933 
L 289.109416 85.641357 
L 290.620345 89.015216 
L 290.773121 85.698298 
L 290.947291 86.298754 
L 291.26579 93.600732 
L 291.684958 98.569716 
L 291.878372 92.187935 
L 291.896325 93.926384 
L 292.286278 87.523293 
L 292.611075 90.153843 
L 293.148974 87.78416 
L 293.483707 94.711754 
L 293.939623 97.544616 
L 294.680843 97.159851 
L 294.829085 95.540685 
L 295.445304 86.859552 
L 295.624317 87.407508 
L 295.768357 87.013093 
L 296.091542 82.611855 
L 297.683497 81.051054 
L 298.140694 90.55416 
L 298.286627 84.794644 
L 298.533344 86.85811 
L 299.113844 86.192101 
L 299.633789 85.258188 
L 300.4299 86.02445 
L 300.713639 87.573044 
L 301.36309 77.313462 
L 301.483062 77.707069 
L 301.767042 71.848628 
L 302.980066 93.9141 
L 303.44274 89.771289 
L 303.525532 90.089578 
L 303.687381 81.673233 
L 304.292848 75.94113 
L 304.743355 83.756577 
L 304.815284 82.6682 
L 305.376004 85.290465 
L 305.384022 88.749773 
L 305.846244 89.912276 
L 307.36582 78.207715 
L 307.762407 77.189449 
L 307.876739 74.780761 
L 309.467998 83.854503 
L 309.591749 81.498123 
L 310.020815 85.02458 
L 310.12799 82.30562 
L 310.409203 79.377677 
L 310.604492 85.156052 
L 310.636901 82.431882 
L 311.255341 79.581008 
L 311.802192 85.535819 
L 312.015973 81.308749 
L 312.745457 78.220519 
L 313.355366 73.810881 
L 313.397915 74.696695 
L 313.494126 72.815009 
L 314.089276 71.587684 
L 314.459162 75.850951 
L 314.643898 70.135477 
L 314.806256 69.618741 
L 315.26784 67.114107 
L 315.424646 67.474938 
L 315.481296 65.450939 
L 316.689755 72.913032 
L 317.408367 81.226221 
L 317.718889 78.805788 
L 318.167983 90.179449 
L 320.370149 101.863469 
L 320.390172 100.153481 
L 320.400382 102.509217 
L 320.650202 97.727549 
L 320.995723 88.038338 
L 321.566451 87.180455 
L 321.816307 80.816408 
L 322.001518 80.586818 
L 322.675036 78.051926 
L 323.029794 77.724236 
L 323.395609 76.315245 
L 323.663844 79.981882 
L 324.60447 77.800612 
L 324.784127 73.031162 
L 325.085505 70.024114 
L 325.218623 73.587596 
L 325.481493 75.158567 
L 325.954849 79.627722 
L 326.065978 73.549379 
L 326.444677 70.958122 
L 326.452577 71.478838 
L 327.20044 69.030453 
L 327.297004 66.723421 
L 327.673972 71.434969 
L 327.750212 69.254161 
L 327.877328 70.615266 
L 327.892378 69.530234 
L 327.994766 71.692146 
L 328.28837 71.524553 
L 329.691295 75.008121 
L 330.770877 81.641283 
L 331.144151 76.412806 
L 331.804384 72.664372 
L 332.439492 77.406236 
L 334.825405 68.578213 
L 335.549328 68.786753 
L 335.628657 69.350915 
L 336.267332 64.559568 
L 336.282302 63.595647 
L 336.415687 64.950504 
L 336.456178 63.026468 
L 336.714506 65.734586 
L 336.754444 64.747174 
L 336.881519 64.443802 
L 338.20545 76.16874 
L 338.697808 74.036472 
L 338.74883 76.112914 
L 339.107039 79.765326 
L 340.032977 72.642668 
L 340.110194 73.364561 
L 340.133036 72.22455 
L 340.464343 62.937596 
L 340.735824 59.930067 
L 341.746635 65.527334 
L 342.067175 69.618491 
L 342.470915 78.819533 
L 343.13828 87.125706 
L 343.293437 85.936155 
L 343.802285 86.798516 
L 343.984455 88.523432 
L 344.294263 84.080325 
L 344.590815 87.074397 
L 344.894812 82.07255 
L 345.601301 85.960607 
L 345.907164 79.153124 
L 346.163178 79.87446 
L 346.571733 75.832958 
L 347.599805 75.391233 
L 348.225247 65.26143 
L 348.403081 63.788558 
L 348.525088 65.258989 
L 349.319715 63.706646 
L 349.6615 60.359412 
L 350.120406 64.019167 
L 350.23346 62.765409 
L 350.442519 65.802177 
L 350.829527 66.580108 
L 351.448388 68.452528 
L 351.986203 72.611006 
L 352.100294 66.189979 
L 352.230355 66.193766 
L 352.269677 64.812131 
L 352.688435 68.655608 
L 352.71459 70.535756 
L 353.648951 71.338831 
L 353.931694 75.686203 
L 353.978317 74.499766 
L 354.898363 73.81536 
L 354.921674 72.666332 
L 355.078002 70.904046 
L 355.665603 74.221425 
L 355.780544 73.510624 
L 356.358872 68.87055 
L 356.434341 65.782742 
L 357.027659 62.992115 
L 357.266254 65.983458 
L 357.78975 65.141512 
L 357.870368 62.27301 
L 358.37684 61.327966 
L 358.637384 62.666887 
L 358.883542 65.622742 
L 359.043212 66.042629 
L 359.488649 65.995569 
L 360.159639 67.85682 
L 360.243676 67.65049 
L 360.713737 62.766889 
L 360.829551 66.441523 
L 361.071085 61.324987 
L 361.316005 61.566515 
L 361.33718 66.968737 
L 361.41195 65.459109 
L 361.778167 65.125287 
L 361.793488 64.150062 
L 361.80409 66.41957 
L 362.366037 63.023508 
L 363.170611 65.793238 
L 363.520912 64.08028 
L 363.815464 61.076096 
L 364.127899 61.163564 
L 364.714983 71.730401 
L 365.001987 72.528421 
L 365.337312 64.563605 
L 365.369662 63.599607 
L 365.847634 66.545697 
L 366.020253 70.627857 
L 366.045714 69.542576 
L 366.199073 69.017054 
L 366.347736 65.920634 
L 366.469162 66.542121 
L 366.481592 67.957476 
L 366.78342 69.970422 
L 366.823113 67.847611 
L 366.867221 70.464089 
L 366.892583 68.321729 
L 366.948556 67.282565 
L 367.314504 72.415192 
L 367.344337 71.294155 
L 367.639702 71.251017 
L 367.858094 69.358258 
L 368.295346 76.706258 
L 369.29204 76.380625 
L 369.537558 74.256681 
L 369.667914 74.71144 
L 369.710204 73.544477 
L 370.108941 75.490447 
L 370.368697 72.530997 
L 370.716982 71.040862 
L 371.074603 74.597039 
L 371.922445 80.026462 
L 372.475396 78.772377 
L 372.681265 78.671548 
L 373.271137 75.720633 
L 373.806142 78.890411 
L 373.852076 75.213355 
L 374.079139 82.831834 
L 375.055994 73.896177 
L 376.035826 87.106078 
L 376.193165 82.945869 
L 376.288077 82.981222 
L 376.919997 73.777354 
L 377.110974 67.440278 
L 377.722028 69.023917 
L 377.766382 69.583331 
L 377.98636 68.87253 
L 378.046849 66.574783 
L 378.814913 68.048596 
L 379.042835 81.996482 
L 379.800957 80.440832 
L 380.066575 67.012452 
L 380.180558 70.27633 
L 380.657206 72.423958 
L 381.300263 62.948708 
L 381.313423 62.017025 
L 381.755367 58.991887 
L 382.138088 59.543438 
L 382.824898 54.196658 
L 383.485268 59.393934 
L 383.936693 57.670287 
L 384.09827 59.896599 
L 384.123308 59.025952 
L 384.352087 60.183168 
L 384.763114 64.69427 
L 384.854687 60.942298 
L 384.989234 63.950327 
L 385.227207 66.405575 
L 385.245315 65.404744 
L 385.382973 69.832548 
L 385.663275 72.486494 
L 386.53412 69.904618 
L 386.81491 71.002895 
L 387.162483 71.056241 
L 387.979226 90.640129 
L 388.239691 89.401211 
L 389.227447 89.10005 
L 389.498831 87.251372 
L 389.700548 81.958341 
L 390.464892 70.131767 
L 390.730892 71.663464 
L 390.774801 70.557479 
L 390.922956 70.024018 
L 390.998959 70.269621 
L 391.142506 64.115882 
L 391.581874 66.289174 
L 391.79595 60.589829 
L 391.915788 64.173285 
L 393.451626 74.45386 
L 394.152811 73.369136 
L 394.551176 69.279498 
L 394.913005 68.723276 
L 395.001573 65.644138 
L 395.572127 72.724792 
L 395.607032 74.822784 
L 396.345375 76.762757 
L 396.480854 73.210828 
L 396.921235 66.222929 
L 397.049702 67.644665 
L 397.109282 64.628947 
L 397.425905 72.164533 
L 397.806349 72.156151 
L 397.902817 67.824908 
L 398.222004 68.445799 
L 398.691898 62.854857 
L 398.873314 62.911029 
L 399.102766 65.905601 
L 399.236435 69.571758 
L 399.73322 71.32549 
L 400.117042 66.88542 
L 400.875139 73.3953 
L 400.920714 72.749456 
L 401.119192 78.37998 
L 401.672289 76.260553 
L 401.958486 69.422908 
L 403.078754 73.511066 
L 403.385607 70.084803 
L 403.417361 71.429298 
L 403.612188 74.885608 
L 404.092873 77.421865 
L 404.411066 75.690125 
L 404.679386 75.364281 
L 404.826901 73.507202 
L 405.048317 86.257731 
L 405.647878 86.326994 
L 405.816803 84.088937 
L 406.153537 72.829504 
L 406.356271 72.413654 
L 406.593769 72.709605 
L 406.952979 64.576793 
L 407.374519 64.556954 
L 407.731503 68.461813 
L 407.85908 65.005042 
L 408.279636 59.872281 
L 408.293109 59.002114 
L 408.672761 55.683409 
L 409.090966 53.568 
L 409.265702 54.624234 
L 409.780465 56.274945 
L 409.888251 58.645378 
L 410.340914 58.36694 
L 410.393689 56.703617 
L 411.506584 57.101647 
L 412.067877 59.367944 
L 412.096322 60.825705 
L 412.237573 55.750058 
L 412.554654 57.096802 
L 412.714294 56.281751 
L 413.154252 66.235463 
L 413.593454 57.941478 
L 413.639021 59.455739 
L 414.60634 71.278545 
L 414.72 66.622227 
L 414.72 66.622227 
" style="fill:none;stroke:#000000;stroke-linecap:square;stroke-width:0.8;"/>
   </g>
   <g id="patch_3">
    <path d="M 57.6 307.584 
L 57.6 41.472 
" style="fill:none;stroke:#000000;stroke-linecap:square;stroke-linejoin:miter;stroke-width:0.8;"/>
   </g>
   <g id="patch_4">
    <path d="M 414.72 307.584 
L 414.72 41.472 
" style="fill:none;stroke:#000000;stroke-linecap:square;stroke-linejoin:miter;stroke-width:0.8;"/>
   </g>
   <g id="patch_5">
    <path d="M 57.6 307.584 
L 414.72 307.584 
" style="fill:none;stroke:#000000;stroke-linecap:square;stroke-linejoin:miter;stroke-width:0.8;"/>
   </g>
   <g id="patch_6">
    <path d="M 57.6 41.472 
L 414.72 41.472 
" style="fill:none;stroke:#000000;stroke-linecap:square;stroke-linejoin:miter;stroke-width:0.8;"/>
   </g>
  </g>
  <g id="axes_2">
   <g id="matplotlib.axis_3">
    <g id="xtick_7">
     <g id="line2d_28">
      <defs>
       <path d="M 0 0 
L 0 -3.5 
" id="me52641dac4" style="stroke:#000000;stroke-width:0.8;"/>
      </defs>
      <g>
       <use style="stroke:#000000;stroke-width:0.8;" x="57.6" xlink:href="#me52641dac4" y="41.472"/>
      </g>
     </g>
    </g>
    <g id="xtick_8">
     <g id="line2d_29">
      <g>
       <use style="stroke:#000000;stroke-width:0.8;" x="119.957255" xlink:href="#me52641dac4" y="41.472"/>
      </g>
     </g>
     <g id="text_16">
      <!-- 1,000 -->
      <defs>
       <path d="M 11.71875 12.40625 
L 22.015625 12.40625 
L 22.015625 4 
L 14.015625 -11.625 
L 7.71875 -11.625 
L 11.71875 4 
z
" id="DejaVuSans-44"/>
      </defs>
      <g transform="translate(105.643193 32.392313)scale(0.1 -0.1)">
       <use xlink:href="#DejaVuSans-49"/>
       <use x="63.623047" xlink:href="#DejaVuSans-44"/>
       <use x="95.410156" xlink:href="#DejaVuSans-48"/>
       <use x="159.033203" xlink:href="#DejaVuSans-48"/>
       <use x="222.65625" xlink:href="#DejaVuSans-48"/>
      </g>
     </g>
    </g>
    <g id="xtick_9">
     <g id="line2d_30">
      <g>
       <use style="stroke:#000000;stroke-width:0.8;" x="182.31451" xlink:href="#me52641dac4" y="41.472"/>
      </g>
     </g>
     <g id="text_17">
      <!-- 2.00K -->
      <defs>
       <path d="M 10.6875 12.40625 
L 21 12.40625 
L 21 0 
L 10.6875 0 
z
" id="DejaVuSans-46"/>
       <path d="M 9.8125 72.90625 
L 19.671875 72.90625 
L 19.671875 42.09375 
L 52.390625 72.90625 
L 65.09375 72.90625 
L 28.90625 38.921875 
L 67.671875 0 
L 54.6875 0 
L 19.671875 35.109375 
L 19.671875 0 
L 9.8125 0 
z
" id="DejaVuSans-75"/>
      </defs>
      <g transform="translate(167.902791 32.392313)scale(0.1 -0.1)">
       <use xlink:href="#DejaVuSans-50"/>
       <use x="63.623047" xlink:href="#DejaVuSans-46"/>
       <use x="95.410156" xlink:href="#DejaVuSans-48"/>
       <use x="159.033203" xlink:href="#DejaVuSans-48"/>
       <use x="222.65625" xlink:href="#DejaVuSans-75"/>
      </g>
     </g>
    </g>
    <g id="xtick_10">
     <g id="line2d_31">
      <g>
       <use style="stroke:#000000;stroke-width:0.8;" x="244.671765" xlink:href="#me52641dac4" y="41.472"/>
      </g>
     </g>
     <g id="text_18">
      <!-- 3.00K -->
      <g transform="translate(230.260047 32.392313)scale(0.1 -0.1)">
       <use xlink:href="#DejaVuSans-51"/>
       <use x="63.623047" xlink:href="#DejaVuSans-46"/>
       <use x="95.410156" xlink:href="#DejaVuSans-48"/>
       <use x="159.033203" xlink:href="#DejaVuSans-48"/>
       <use x="222.65625" xlink:href="#DejaVuSans-75"/>
      </g>
     </g>
    </g>
    <g id="xtick_11">
     <g id="line2d_32">
      <g>
       <use style="stroke:#000000;stroke-width:0.8;" x="307.02902" xlink:href="#me52641dac4" y="41.472"/>
      </g>
     </g>
     <g id="text_19">
      <!-- 4.00K -->
      <g transform="translate(292.617302 32.392313)scale(0.1 -0.1)">
       <use xlink:href="#DejaVuSans-52"/>
       <use x="63.623047" xlink:href="#DejaVuSans-46"/>
       <use x="95.410156" xlink:href="#DejaVuSans-48"/>
       <use x="159.033203" xlink:href="#DejaVuSans-48"/>
       <use x="222.65625" xlink:href="#DejaVuSans-75"/>
      </g>
     </g>
    </g>
    <g id="xtick_12">
     <g id="line2d_33">
      <g>
       <use style="stroke:#000000;stroke-width:0.8;" x="369.386276" xlink:href="#me52641dac4" y="41.472"/>
      </g>
     </g>
     <g id="text_20">
      <!-- 5.00K -->
      <g transform="translate(354.974557 32.392313)scale(0.1 -0.1)">
       <use xlink:href="#DejaVuSans-53"/>
       <use x="63.623047" xlink:href="#DejaVuSans-46"/>
       <use x="95.410156" xlink:href="#DejaVuSans-48"/>
       <use x="159.033203" xlink:href="#DejaVuSans-48"/>
       <use x="222.65625" xlink:href="#DejaVuSans-75"/>
      </g>
     </g>
    </g>
    <g id="text_21">
     <!-- Episodes -->
     <defs>
      <path d="M 9.8125 72.90625 
L 55.90625 72.90625 
L 55.90625 64.59375 
L 19.671875 64.59375 
L 19.671875 43.015625 
L 54.390625 43.015625 
L 54.390625 34.71875 
L 19.671875 34.71875 
L 19.671875 8.296875 
L 56.78125 8.296875 
L 56.78125 0 
L 9.8125 0 
z
" id="DejaVuSans-69"/>
      <path d="M 18.109375 8.203125 
L 18.109375 -20.796875 
L 9.078125 -20.796875 
L 9.078125 54.6875 
L 18.109375 54.6875 
L 18.109375 46.390625 
Q 20.953125 51.265625 25.265625 53.625 
Q 29.59375 56 35.59375 56 
Q 45.5625 56 51.78125 48.09375 
Q 58.015625 40.1875 58.015625 27.296875 
Q 58.015625 14.40625 51.78125 6.484375 
Q 45.5625 -1.421875 35.59375 -1.421875 
Q 29.59375 -1.421875 25.265625 0.953125 
Q 20.953125 3.328125 18.109375 8.203125 
z
M 48.6875 27.296875 
Q 48.6875 37.203125 44.609375 42.84375 
Q 40.53125 48.484375 33.40625 48.484375 
Q 26.265625 48.484375 22.1875 42.84375 
Q 18.109375 37.203125 18.109375 27.296875 
Q 18.109375 17.390625 22.1875 11.75 
Q 26.265625 6.109375 33.40625 6.109375 
Q 40.53125 6.109375 44.609375 11.75 
Q 48.6875 17.390625 48.6875 27.296875 
z
" id="DejaVuSans-112"/>
      <path d="M 9.421875 54.6875 
L 18.40625 54.6875 
L 18.40625 0 
L 9.421875 0 
z
M 9.421875 75.984375 
L 18.40625 75.984375 
L 18.40625 64.59375 
L 9.421875 64.59375 
z
" id="DejaVuSans-105"/>
     </defs>
     <g transform="translate(213.917812 20.793875)scale(0.1 -0.1)">
      <use xlink:href="#DejaVuSans-69"/>
      <use x="63.183594" xlink:href="#DejaVuSans-112"/>
      <use x="126.660156" xlink:href="#DejaVuSans-105"/>
      <use x="154.443359" xlink:href="#DejaVuSans-115"/>
      <use x="206.542969" xlink:href="#DejaVuSans-111"/>
      <use x="267.724609" xlink:href="#DejaVuSans-100"/>
      <use x="331.201172" xlink:href="#DejaVuSans-101"/>
      <use x="392.724609" xlink:href="#DejaVuSans-115"/>
     </g>
    </g>
   </g>
   <g id="patch_7">
    <path d="M 57.6 307.584 
L 57.6 41.472 
" style="fill:none;stroke:#000000;stroke-linecap:square;stroke-linejoin:miter;stroke-width:0.8;"/>
   </g>
   <g id="patch_8">
    <path d="M 414.72 307.584 
L 414.72 41.472 
" style="fill:none;stroke:#000000;stroke-linecap:square;stroke-linejoin:miter;stroke-width:0.8;"/>
   </g>
   <g id="patch_9">
    <path d="M 57.6 307.584 
L 414.72 307.584 
" style="fill:none;stroke:#000000;stroke-linecap:square;stroke-linejoin:miter;stroke-width:0.8;"/>
   </g>
   <g id="patch_10">
    <path d="M 57.6 41.472 
L 414.72 41.472 
" style="fill:none;stroke:#000000;stroke-linecap:square;stroke-linejoin:miter;stroke-width:0.8;"/>
   </g>
  </g>
 </g>
 <defs>
  <clipPath id="p9f95ef65a0">
   <rect height="266.112" width="357.12" x="57.6" y="41.472"/>
  </clipPath>
 </defs>
</svg>
