<?xml version="1.0" encoding="utf-8" standalone="no"?>
<!DOCTYPE svg PUBLIC "-//W3C//DTD SVG 1.1//EN"
  "http://www.w3.org/Graphics/SVG/1.1/DTD/svg11.dtd">
<!-- Created with matplotlib (https://matplotlib.org/) -->
<svg height="345.6pt" version="1.1" viewBox="0 0 460.8 345.6" width="460.8pt" xmlns="http://www.w3.org/2000/svg" xmlns:xlink="http://www.w3.org/1999/xlink">
 <defs>
  <style type="text/css">
*{stroke-linecap:butt;stroke-linejoin:round;}
  </style>
 </defs>
 <g id="figure_1">
  <g id="patch_1">
   <path d="M 0 345.6 
L 460.8 345.6 
L 460.8 0 
L 0 0 
z
" style="fill:#ffffff;"/>
  </g>
  <g id="axes_1">
   <g id="patch_2">
    <path d="M 57.6 307.584 
L 414.72 307.584 
L 414.72 41.472 
L 57.6 41.472 
z
" style="fill:#ffffff;"/>
   </g>
   <g id="matplotlib.axis_1">
    <g id="xtick_1">
     <g id="line2d_1">
      <path clip-path="url(#p7ee85d4895)" d="M 57.6 307.584 
L 57.6 41.472 
" style="fill:none;stroke:#b0b0b0;stroke-linecap:square;stroke-width:0.8;"/>
     </g>
     <g id="line2d_2">
      <defs>
       <path d="M 0 0 
L 0 3.5 
" id="m6ff75d39b7" style="stroke:#000000;stroke-width:0.8;"/>
      </defs>
      <g>
       <use style="stroke:#000000;stroke-width:0.8;" x="57.6" xlink:href="#m6ff75d39b7" y="307.584"/>
      </g>
     </g>
     <g id="text_1">
      <!-- 0.0 -->
      <defs>
       <path d="M 31.78125 66.40625 
Q 24.171875 66.40625 20.328125 58.90625 
Q 16.5 51.421875 16.5 36.375 
Q 16.5 21.390625 20.328125 13.890625 
Q 24.171875 6.390625 31.78125 6.390625 
Q 39.453125 6.390625 43.28125 13.890625 
Q 47.125 21.390625 47.125 36.375 
Q 47.125 51.421875 43.28125 58.90625 
Q 39.453125 66.40625 31.78125 66.40625 
z
M 31.78125 74.21875 
Q 44.046875 74.21875 50.515625 64.515625 
Q 56.984375 54.828125 56.984375 36.375 
Q 56.984375 17.96875 50.515625 8.265625 
Q 44.046875 -1.421875 31.78125 -1.421875 
Q 19.53125 -1.421875 13.0625 8.265625 
Q 6.59375 17.96875 6.59375 36.375 
Q 6.59375 54.828125 13.0625 64.515625 
Q 19.53125 74.21875 31.78125 74.21875 
z
" id="DejaVuSans-48"/>
       <path d="M 10.6875 12.40625 
L 21 12.40625 
L 21 0 
L 10.6875 0 
z
" id="DejaVuSans-46"/>
      </defs>
      <g transform="translate(49.648438 322.182437)scale(0.1 -0.1)">
       <use xlink:href="#DejaVuSans-48"/>
       <use x="63.623047" xlink:href="#DejaVuSans-46"/>
       <use x="95.410156" xlink:href="#DejaVuSans-48"/>
      </g>
     </g>
    </g>
    <g id="xtick_2">
     <g id="line2d_3">
      <path clip-path="url(#p7ee85d4895)" d="M 115.327267 307.584 
L 115.327267 41.472 
" style="fill:none;stroke:#b0b0b0;stroke-linecap:square;stroke-width:0.8;"/>
     </g>
     <g id="line2d_4">
      <g>
       <use style="stroke:#000000;stroke-width:0.8;" x="115.327267" xlink:href="#m6ff75d39b7" y="307.584"/>
      </g>
     </g>
     <g id="text_2">
      <!-- 0.2 -->
      <defs>
       <path d="M 19.1875 8.296875 
L 53.609375 8.296875 
L 53.609375 0 
L 7.328125 0 
L 7.328125 8.296875 
Q 12.9375 14.109375 22.625 23.890625 
Q 32.328125 33.6875 34.8125 36.53125 
Q 39.546875 41.84375 41.421875 45.53125 
Q 43.3125 49.21875 43.3125 52.78125 
Q 43.3125 58.59375 39.234375 62.25 
Q 35.15625 65.921875 28.609375 65.921875 
Q 23.96875 65.921875 18.8125 64.3125 
Q 13.671875 62.703125 7.8125 59.421875 
L 7.8125 69.390625 
Q 13.765625 71.78125 18.9375 73 
Q 24.125 74.21875 28.421875 74.21875 
Q 39.75 74.21875 46.484375 68.546875 
Q 53.21875 62.890625 53.21875 53.421875 
Q 53.21875 48.921875 51.53125 44.890625 
Q 49.859375 40.875 45.40625 35.40625 
Q 44.1875 33.984375 37.640625 27.21875 
Q 31.109375 20.453125 19.1875 8.296875 
z
" id="DejaVuSans-50"/>
      </defs>
      <g transform="translate(107.375704 322.182437)scale(0.1 -0.1)">
       <use xlink:href="#DejaVuSans-48"/>
       <use x="63.623047" xlink:href="#DejaVuSans-46"/>
       <use x="95.410156" xlink:href="#DejaVuSans-50"/>
      </g>
     </g>
    </g>
    <g id="xtick_3">
     <g id="line2d_5">
      <path clip-path="url(#p7ee85d4895)" d="M 173.054534 307.584 
L 173.054534 41.472 
" style="fill:none;stroke:#b0b0b0;stroke-linecap:square;stroke-width:0.8;"/>
     </g>
     <g id="line2d_6">
      <g>
       <use style="stroke:#000000;stroke-width:0.8;" x="173.054534" xlink:href="#m6ff75d39b7" y="307.584"/>
      </g>
     </g>
     <g id="text_3">
      <!-- 0.4 -->
      <defs>
       <path d="M 37.796875 64.3125 
L 12.890625 25.390625 
L 37.796875 25.390625 
z
M 35.203125 72.90625 
L 47.609375 72.90625 
L 47.609375 25.390625 
L 58.015625 25.390625 
L 58.015625 17.1875 
L 47.609375 17.1875 
L 47.609375 0 
L 37.796875 0 
L 37.796875 17.1875 
L 4.890625 17.1875 
L 4.890625 26.703125 
z
" id="DejaVuSans-52"/>
      </defs>
      <g transform="translate(165.102971 322.182437)scale(0.1 -0.1)">
       <use xlink:href="#DejaVuSans-48"/>
       <use x="63.623047" xlink:href="#DejaVuSans-46"/>
       <use x="95.410156" xlink:href="#DejaVuSans-52"/>
      </g>
     </g>
    </g>
    <g id="xtick_4">
     <g id="line2d_7">
      <path clip-path="url(#p7ee85d4895)" d="M 230.781801 307.584 
L 230.781801 41.472 
" style="fill:none;stroke:#b0b0b0;stroke-linecap:square;stroke-width:0.8;"/>
     </g>
     <g id="line2d_8">
      <g>
       <use style="stroke:#000000;stroke-width:0.8;" x="230.781801" xlink:href="#m6ff75d39b7" y="307.584"/>
      </g>
     </g>
     <g id="text_4">
      <!-- 0.6 -->
      <defs>
       <path d="M 33.015625 40.375 
Q 26.375 40.375 22.484375 35.828125 
Q 18.609375 31.296875 18.609375 23.390625 
Q 18.609375 15.53125 22.484375 10.953125 
Q 26.375 6.390625 33.015625 6.390625 
Q 39.65625 6.390625 43.53125 10.953125 
Q 47.40625 15.53125 47.40625 23.390625 
Q 47.40625 31.296875 43.53125 35.828125 
Q 39.65625 40.375 33.015625 40.375 
z
M 52.59375 71.296875 
L 52.59375 62.3125 
Q 48.875 64.0625 45.09375 64.984375 
Q 41.3125 65.921875 37.59375 65.921875 
Q 27.828125 65.921875 22.671875 59.328125 
Q 17.53125 52.734375 16.796875 39.40625 
Q 19.671875 43.65625 24.015625 45.921875 
Q 28.375 48.1875 33.59375 48.1875 
Q 44.578125 48.1875 50.953125 41.515625 
Q 57.328125 34.859375 57.328125 23.390625 
Q 57.328125 12.15625 50.6875 5.359375 
Q 44.046875 -1.421875 33.015625 -1.421875 
Q 20.359375 -1.421875 13.671875 8.265625 
Q 6.984375 17.96875 6.984375 36.375 
Q 6.984375 53.65625 15.1875 63.9375 
Q 23.390625 74.21875 37.203125 74.21875 
Q 40.921875 74.21875 44.703125 73.484375 
Q 48.484375 72.75 52.59375 71.296875 
z
" id="DejaVuSans-54"/>
      </defs>
      <g transform="translate(222.830238 322.182437)scale(0.1 -0.1)">
       <use xlink:href="#DejaVuSans-48"/>
       <use x="63.623047" xlink:href="#DejaVuSans-46"/>
       <use x="95.410156" xlink:href="#DejaVuSans-54"/>
      </g>
     </g>
    </g>
    <g id="xtick_5">
     <g id="line2d_9">
      <path clip-path="url(#p7ee85d4895)" d="M 288.509068 307.584 
L 288.509068 41.472 
" style="fill:none;stroke:#b0b0b0;stroke-linecap:square;stroke-width:0.8;"/>
     </g>
     <g id="line2d_10">
      <g>
       <use style="stroke:#000000;stroke-width:0.8;" x="288.509068" xlink:href="#m6ff75d39b7" y="307.584"/>
      </g>
     </g>
     <g id="text_5">
      <!-- 0.8 -->
      <defs>
       <path d="M 31.78125 34.625 
Q 24.75 34.625 20.71875 30.859375 
Q 16.703125 27.09375 16.703125 20.515625 
Q 16.703125 13.921875 20.71875 10.15625 
Q 24.75 6.390625 31.78125 6.390625 
Q 38.8125 6.390625 42.859375 10.171875 
Q 46.921875 13.96875 46.921875 20.515625 
Q 46.921875 27.09375 42.890625 30.859375 
Q 38.875 34.625 31.78125 34.625 
z
M 21.921875 38.8125 
Q 15.578125 40.375 12.03125 44.71875 
Q 8.5 49.078125 8.5 55.328125 
Q 8.5 64.0625 14.71875 69.140625 
Q 20.953125 74.21875 31.78125 74.21875 
Q 42.671875 74.21875 48.875 69.140625 
Q 55.078125 64.0625 55.078125 55.328125 
Q 55.078125 49.078125 51.53125 44.71875 
Q 48 40.375 41.703125 38.8125 
Q 48.828125 37.15625 52.796875 32.3125 
Q 56.78125 27.484375 56.78125 20.515625 
Q 56.78125 9.90625 50.3125 4.234375 
Q 43.84375 -1.421875 31.78125 -1.421875 
Q 19.734375 -1.421875 13.25 4.234375 
Q 6.78125 9.90625 6.78125 20.515625 
Q 6.78125 27.484375 10.78125 32.3125 
Q 14.796875 37.15625 21.921875 38.8125 
z
M 18.3125 54.390625 
Q 18.3125 48.734375 21.84375 45.5625 
Q 25.390625 42.390625 31.78125 42.390625 
Q 38.140625 42.390625 41.71875 45.5625 
Q 45.3125 48.734375 45.3125 54.390625 
Q 45.3125 60.0625 41.71875 63.234375 
Q 38.140625 66.40625 31.78125 66.40625 
Q 25.390625 66.40625 21.84375 63.234375 
Q 18.3125 60.0625 18.3125 54.390625 
z
" id="DejaVuSans-56"/>
      </defs>
      <g transform="translate(280.557505 322.182437)scale(0.1 -0.1)">
       <use xlink:href="#DejaVuSans-48"/>
       <use x="63.623047" xlink:href="#DejaVuSans-46"/>
       <use x="95.410156" xlink:href="#DejaVuSans-56"/>
      </g>
     </g>
    </g>
    <g id="xtick_6">
     <g id="line2d_11">
      <path clip-path="url(#p7ee85d4895)" d="M 346.236335 307.584 
L 346.236335 41.472 
" style="fill:none;stroke:#b0b0b0;stroke-linecap:square;stroke-width:0.8;"/>
     </g>
     <g id="line2d_12">
      <g>
       <use style="stroke:#000000;stroke-width:0.8;" x="346.236335" xlink:href="#m6ff75d39b7" y="307.584"/>
      </g>
     </g>
     <g id="text_6">
      <!-- 1.0 -->
      <defs>
       <path d="M 12.40625 8.296875 
L 28.515625 8.296875 
L 28.515625 63.921875 
L 10.984375 60.40625 
L 10.984375 69.390625 
L 28.421875 72.90625 
L 38.28125 72.90625 
L 38.28125 8.296875 
L 54.390625 8.296875 
L 54.390625 0 
L 12.40625 0 
z
" id="DejaVuSans-49"/>
      </defs>
      <g transform="translate(338.284772 322.182437)scale(0.1 -0.1)">
       <use xlink:href="#DejaVuSans-49"/>
       <use x="63.623047" xlink:href="#DejaVuSans-46"/>
       <use x="95.410156" xlink:href="#DejaVuSans-48"/>
      </g>
     </g>
    </g>
    <g id="xtick_7">
     <g id="line2d_13">
      <path clip-path="url(#p7ee85d4895)" d="M 403.963602 307.584 
L 403.963602 41.472 
" style="fill:none;stroke:#b0b0b0;stroke-linecap:square;stroke-width:0.8;"/>
     </g>
     <g id="line2d_14">
      <g>
       <use style="stroke:#000000;stroke-width:0.8;" x="403.963602" xlink:href="#m6ff75d39b7" y="307.584"/>
      </g>
     </g>
     <g id="text_7">
      <!-- 1.2 -->
      <g transform="translate(396.012039 322.182437)scale(0.1 -0.1)">
       <use xlink:href="#DejaVuSans-49"/>
       <use x="63.623047" xlink:href="#DejaVuSans-46"/>
       <use x="95.410156" xlink:href="#DejaVuSans-50"/>
      </g>
     </g>
    </g>
    <g id="text_8">
     <!-- Hours -->
     <defs>
      <path d="M 9.8125 72.90625 
L 19.671875 72.90625 
L 19.671875 43.015625 
L 55.515625 43.015625 
L 55.515625 72.90625 
L 65.375 72.90625 
L 65.375 0 
L 55.515625 0 
L 55.515625 34.71875 
L 19.671875 34.71875 
L 19.671875 0 
L 9.8125 0 
z
" id="DejaVuSans-72"/>
      <path d="M 30.609375 48.390625 
Q 23.390625 48.390625 19.1875 42.75 
Q 14.984375 37.109375 14.984375 27.296875 
Q 14.984375 17.484375 19.15625 11.84375 
Q 23.34375 6.203125 30.609375 6.203125 
Q 37.796875 6.203125 41.984375 11.859375 
Q 46.1875 17.53125 46.1875 27.296875 
Q 46.1875 37.015625 41.984375 42.703125 
Q 37.796875 48.390625 30.609375 48.390625 
z
M 30.609375 56 
Q 42.328125 56 49.015625 48.375 
Q 55.71875 40.765625 55.71875 27.296875 
Q 55.71875 13.875 49.015625 6.21875 
Q 42.328125 -1.421875 30.609375 -1.421875 
Q 18.84375 -1.421875 12.171875 6.21875 
Q 5.515625 13.875 5.515625 27.296875 
Q 5.515625 40.765625 12.171875 48.375 
Q 18.84375 56 30.609375 56 
z
" id="DejaVuSans-111"/>
      <path d="M 8.5 21.578125 
L 8.5 54.6875 
L 17.484375 54.6875 
L 17.484375 21.921875 
Q 17.484375 14.15625 20.5 10.265625 
Q 23.53125 6.390625 29.59375 6.390625 
Q 36.859375 6.390625 41.078125 11.03125 
Q 45.3125 15.671875 45.3125 23.6875 
L 45.3125 54.6875 
L 54.296875 54.6875 
L 54.296875 0 
L 45.3125 0 
L 45.3125 8.40625 
Q 42.046875 3.421875 37.71875 1 
Q 33.40625 -1.421875 27.6875 -1.421875 
Q 18.265625 -1.421875 13.375 4.4375 
Q 8.5 10.296875 8.5 21.578125 
z
M 31.109375 56 
z
" id="DejaVuSans-117"/>
      <path d="M 41.109375 46.296875 
Q 39.59375 47.171875 37.8125 47.578125 
Q 36.03125 48 33.890625 48 
Q 26.265625 48 22.1875 43.046875 
Q 18.109375 38.09375 18.109375 28.8125 
L 18.109375 0 
L 9.078125 0 
L 9.078125 54.6875 
L 18.109375 54.6875 
L 18.109375 46.1875 
Q 20.953125 51.171875 25.484375 53.578125 
Q 30.03125 56 36.53125 56 
Q 37.453125 56 38.578125 55.875 
Q 39.703125 55.765625 41.0625 55.515625 
z
" id="DejaVuSans-114"/>
      <path d="M 44.28125 53.078125 
L 44.28125 44.578125 
Q 40.484375 46.53125 36.375 47.5 
Q 32.28125 48.484375 27.875 48.484375 
Q 21.1875 48.484375 17.84375 46.4375 
Q 14.5 44.390625 14.5 40.28125 
Q 14.5 37.15625 16.890625 35.375 
Q 19.28125 33.59375 26.515625 31.984375 
L 29.59375 31.296875 
Q 39.15625 29.25 43.1875 25.515625 
Q 47.21875 21.78125 47.21875 15.09375 
Q 47.21875 7.46875 41.1875 3.015625 
Q 35.15625 -1.421875 24.609375 -1.421875 
Q 20.21875 -1.421875 15.453125 -0.5625 
Q 10.6875 0.296875 5.421875 2 
L 5.421875 11.28125 
Q 10.40625 8.6875 15.234375 7.390625 
Q 20.0625 6.109375 24.8125 6.109375 
Q 31.15625 6.109375 34.5625 8.28125 
Q 37.984375 10.453125 37.984375 14.40625 
Q 37.984375 18.0625 35.515625 20.015625 
Q 33.0625 21.96875 24.703125 23.78125 
L 21.578125 24.515625 
Q 13.234375 26.265625 9.515625 29.90625 
Q 5.8125 33.546875 5.8125 39.890625 
Q 5.8125 47.609375 11.28125 51.796875 
Q 16.75 56 26.8125 56 
Q 31.78125 56 36.171875 55.265625 
Q 40.578125 54.546875 44.28125 53.078125 
z
" id="DejaVuSans-115"/>
     </defs>
     <g transform="translate(221.511562 335.860562)scale(0.1 -0.1)">
      <use xlink:href="#DejaVuSans-72"/>
      <use x="75.195312" xlink:href="#DejaVuSans-111"/>
      <use x="136.376953" xlink:href="#DejaVuSans-117"/>
      <use x="199.755859" xlink:href="#DejaVuSans-114"/>
      <use x="240.869141" xlink:href="#DejaVuSans-115"/>
     </g>
    </g>
   </g>
   <g id="matplotlib.axis_2">
    <g id="ytick_1">
     <g id="line2d_15">
      <path clip-path="url(#p7ee85d4895)" d="M 57.6 298.836801 
L 414.72 298.836801 
" style="fill:none;stroke:#b0b0b0;stroke-linecap:square;stroke-width:0.8;"/>
     </g>
     <g id="line2d_16">
      <defs>
       <path d="M 0 0 
L -3.5 0 
" id="mf26b6a1fa0" style="stroke:#000000;stroke-width:0.8;"/>
      </defs>
      <g>
       <use style="stroke:#000000;stroke-width:0.8;" x="57.6" xlink:href="#mf26b6a1fa0" y="298.836801"/>
      </g>
     </g>
     <g id="text_9">
      <!-- 0 -->
      <g transform="translate(44.2375 302.636019)scale(0.1 -0.1)">
       <use xlink:href="#DejaVuSans-48"/>
      </g>
     </g>
    </g>
    <g id="ytick_2">
     <g id="line2d_17">
      <path clip-path="url(#p7ee85d4895)" d="M 57.6 264.20845 
L 414.72 264.20845 
" style="fill:none;stroke:#b0b0b0;stroke-linecap:square;stroke-width:0.8;"/>
     </g>
     <g id="line2d_18">
      <g>
       <use style="stroke:#000000;stroke-width:0.8;" x="57.6" xlink:href="#mf26b6a1fa0" y="264.20845"/>
      </g>
     </g>
     <g id="text_10">
      <!-- 1 -->
      <g transform="translate(44.2375 268.007669)scale(0.1 -0.1)">
       <use xlink:href="#DejaVuSans-49"/>
      </g>
     </g>
    </g>
    <g id="ytick_3">
     <g id="line2d_19">
      <path clip-path="url(#p7ee85d4895)" d="M 57.6 229.580099 
L 414.72 229.580099 
" style="fill:none;stroke:#b0b0b0;stroke-linecap:square;stroke-width:0.8;"/>
     </g>
     <g id="line2d_20">
      <g>
       <use style="stroke:#000000;stroke-width:0.8;" x="57.6" xlink:href="#mf26b6a1fa0" y="229.580099"/>
      </g>
     </g>
     <g id="text_11">
      <!-- 2 -->
      <g transform="translate(44.2375 233.379318)scale(0.1 -0.1)">
       <use xlink:href="#DejaVuSans-50"/>
      </g>
     </g>
    </g>
    <g id="ytick_4">
     <g id="line2d_21">
      <path clip-path="url(#p7ee85d4895)" d="M 57.6 194.951748 
L 414.72 194.951748 
" style="fill:none;stroke:#b0b0b0;stroke-linecap:square;stroke-width:0.8;"/>
     </g>
     <g id="line2d_22">
      <g>
       <use style="stroke:#000000;stroke-width:0.8;" x="57.6" xlink:href="#mf26b6a1fa0" y="194.951748"/>
      </g>
     </g>
     <g id="text_12">
      <!-- 3 -->
      <defs>
       <path d="M 40.578125 39.3125 
Q 47.65625 37.796875 51.625 33 
Q 55.609375 28.21875 55.609375 21.1875 
Q 55.609375 10.40625 48.1875 4.484375 
Q 40.765625 -1.421875 27.09375 -1.421875 
Q 22.515625 -1.421875 17.65625 -0.515625 
Q 12.796875 0.390625 7.625 2.203125 
L 7.625 11.71875 
Q 11.71875 9.328125 16.59375 8.109375 
Q 21.484375 6.890625 26.8125 6.890625 
Q 36.078125 6.890625 40.9375 10.546875 
Q 45.796875 14.203125 45.796875 21.1875 
Q 45.796875 27.640625 41.28125 31.265625 
Q 36.765625 34.90625 28.71875 34.90625 
L 20.21875 34.90625 
L 20.21875 43.015625 
L 29.109375 43.015625 
Q 36.375 43.015625 40.234375 45.921875 
Q 44.09375 48.828125 44.09375 54.296875 
Q 44.09375 59.90625 40.109375 62.90625 
Q 36.140625 65.921875 28.71875 65.921875 
Q 24.65625 65.921875 20.015625 65.03125 
Q 15.375 64.15625 9.8125 62.3125 
L 9.8125 71.09375 
Q 15.4375 72.65625 20.34375 73.4375 
Q 25.25 74.21875 29.59375 74.21875 
Q 40.828125 74.21875 47.359375 69.109375 
Q 53.90625 64.015625 53.90625 55.328125 
Q 53.90625 49.265625 50.4375 45.09375 
Q 46.96875 40.921875 40.578125 39.3125 
z
" id="DejaVuSans-51"/>
      </defs>
      <g transform="translate(44.2375 198.750967)scale(0.1 -0.1)">
       <use xlink:href="#DejaVuSans-51"/>
      </g>
     </g>
    </g>
    <g id="ytick_5">
     <g id="line2d_23">
      <path clip-path="url(#p7ee85d4895)" d="M 57.6 160.323397 
L 414.72 160.323397 
" style="fill:none;stroke:#b0b0b0;stroke-linecap:square;stroke-width:0.8;"/>
     </g>
     <g id="line2d_24">
      <g>
       <use style="stroke:#000000;stroke-width:0.8;" x="57.6" xlink:href="#mf26b6a1fa0" y="160.323397"/>
      </g>
     </g>
     <g id="text_13">
      <!-- 4 -->
      <g transform="translate(44.2375 164.122616)scale(0.1 -0.1)">
       <use xlink:href="#DejaVuSans-52"/>
      </g>
     </g>
    </g>
    <g id="ytick_6">
     <g id="line2d_25">
      <path clip-path="url(#p7ee85d4895)" d="M 57.6 125.695047 
L 414.72 125.695047 
" style="fill:none;stroke:#b0b0b0;stroke-linecap:square;stroke-width:0.8;"/>
     </g>
     <g id="line2d_26">
      <g>
       <use style="stroke:#000000;stroke-width:0.8;" x="57.6" xlink:href="#mf26b6a1fa0" y="125.695047"/>
      </g>
     </g>
     <g id="text_14">
      <!-- 5 -->
      <defs>
       <path d="M 10.796875 72.90625 
L 49.515625 72.90625 
L 49.515625 64.59375 
L 19.828125 64.59375 
L 19.828125 46.734375 
Q 21.96875 47.46875 24.109375 47.828125 
Q 26.265625 48.1875 28.421875 48.1875 
Q 40.625 48.1875 47.75 41.5 
Q 54.890625 34.8125 54.890625 23.390625 
Q 54.890625 11.625 47.5625 5.09375 
Q 40.234375 -1.421875 26.90625 -1.421875 
Q 22.3125 -1.421875 17.546875 -0.640625 
Q 12.796875 0.140625 7.71875 1.703125 
L 7.71875 11.625 
Q 12.109375 9.234375 16.796875 8.0625 
Q 21.484375 6.890625 26.703125 6.890625 
Q 35.15625 6.890625 40.078125 11.328125 
Q 45.015625 15.765625 45.015625 23.390625 
Q 45.015625 31 40.078125 35.4375 
Q 35.15625 39.890625 26.703125 39.890625 
Q 22.75 39.890625 18.8125 39.015625 
Q 14.890625 38.140625 10.796875 36.28125 
z
" id="DejaVuSans-53"/>
      </defs>
      <g transform="translate(44.2375 129.494265)scale(0.1 -0.1)">
       <use xlink:href="#DejaVuSans-53"/>
      </g>
     </g>
    </g>
    <g id="ytick_7">
     <g id="line2d_27">
      <path clip-path="url(#p7ee85d4895)" d="M 57.6 91.066696 
L 414.72 91.066696 
" style="fill:none;stroke:#b0b0b0;stroke-linecap:square;stroke-width:0.8;"/>
     </g>
     <g id="line2d_28">
      <g>
       <use style="stroke:#000000;stroke-width:0.8;" x="57.6" xlink:href="#mf26b6a1fa0" y="91.066696"/>
      </g>
     </g>
     <g id="text_15">
      <!-- 6 -->
      <g transform="translate(44.2375 94.865915)scale(0.1 -0.1)">
       <use xlink:href="#DejaVuSans-54"/>
      </g>
     </g>
    </g>
    <g id="ytick_8">
     <g id="line2d_29">
      <path clip-path="url(#p7ee85d4895)" d="M 57.6 56.438345 
L 414.72 56.438345 
" style="fill:none;stroke:#b0b0b0;stroke-linecap:square;stroke-width:0.8;"/>
     </g>
     <g id="line2d_30">
      <g>
       <use style="stroke:#000000;stroke-width:0.8;" x="57.6" xlink:href="#mf26b6a1fa0" y="56.438345"/>
      </g>
     </g>
     <g id="text_16">
      <!-- 7 -->
      <defs>
       <path d="M 8.203125 72.90625 
L 55.078125 72.90625 
L 55.078125 68.703125 
L 28.609375 0 
L 18.3125 0 
L 43.21875 64.59375 
L 8.203125 64.59375 
z
" id="DejaVuSans-55"/>
      </defs>
      <g transform="translate(44.2375 60.237564)scale(0.1 -0.1)">
       <use xlink:href="#DejaVuSans-55"/>
      </g>
     </g>
    </g>
    <g id="text_17">
     <!-- Loss -->
     <defs>
      <path d="M 9.8125 72.90625 
L 19.671875 72.90625 
L 19.671875 8.296875 
L 55.171875 8.296875 
L 55.171875 0 
L 9.8125 0 
z
" id="DejaVuSans-76"/>
     </defs>
     <g transform="translate(38.157812 185.581906)rotate(-90)scale(0.1 -0.1)">
      <use xlink:href="#DejaVuSans-76"/>
      <use x="55.697266" xlink:href="#DejaVuSans-111"/>
      <use x="116.878906" xlink:href="#DejaVuSans-115"/>
      <use x="168.978516" xlink:href="#DejaVuSans-115"/>
     </g>
    </g>
   </g>
   <g id="line2d_31">
    <path clip-path="url(#p7ee85d4895)" d="M 57.6 53.568 
L 58.857407 56.350484 
L 59.860357 59.137262 
L 60.642366 61.936787 
L 61.402764 65.787256 
L 62.165235 71.26699 
L 62.941513 78.790473 
L 64.226485 94.699734 
L 67.304284 134.743091 
L 68.578876 148.881431 
L 69.84438 161.539199 
L 71.597439 175.705139 
L 73.563684 188.606096 
L 74.05069 191.175484 
L 74.77328 194.564325 
L 75.969339 199.563301 
L 76.911984 202.636571 
L 77.144362 203.028387 
L 77.843101 205.193988 
L 79.449489 208.485738 
L 79.900959 209.181276 
L 80.125666 210.074456 
L 80.352167 210.414135 
L 80.580624 210.98575 
L 81.040147 211.562699 
L 81.715349 212.934407 
L 81.939765 212.941755 
L 82.169978 213.224368 
L 82.395061 213.759136 
L 82.848737 214.085919 
L 84.90826 217.305833 
L 85.598542 217.771953 
L 85.82781 218.405067 
L 86.286308 218.739643 
L 86.521635 218.790533 
L 87.446896 219.831348 
L 87.913438 220.649051 
L 88.142892 220.875878 
L 88.607891 222.095642 
L 88.842713 222.37624 
L 89.548782 222.778491 
L 90.246382 223.923736 
L 90.480932 224.6575 
L 90.956037 225.150782 
L 91.427419 225.199096 
L 91.661692 225.098629 
L 91.896363 226.095983 
L 92.135414 226.259519 
L 92.374943 226.92546 
L 92.610825 227.001745 
L 93.083762 227.621163 
L 93.556419 228.642064 
L 93.793899 228.467672 
L 94.270963 229.633507 
L 94.505432 230.558362 
L 94.742351 229.711659 
L 95.223495 231.262606 
L 96.176488 232.457536 
L 96.413509 233.140645 
L 96.897834 233.845629 
L 97.135438 232.988111 
L 97.615355 234.949746 
L 97.855254 235.059362 
L 98.096434 234.26603 
L 98.570542 235.424692 
L 98.812201 236.64903 
L 99.531356 237.046917 
L 99.775547 236.549747 
L 100.020767 237.800566 
L 100.26211 238.193715 
L 100.745226 238.541261 
L 100.986354 239.258084 
L 101.477211 240.163982 
L 101.965822 240.453645 
L 102.210869 240.047378 
L 102.70767 242.01253 
L 103.197296 242.00737 
L 103.441922 240.949643 
L 105.147093 245.456935 
L 105.392516 244.875177 
L 106.379289 246.850121 
L 106.874332 246.699754 
L 107.123567 245.735052 
L 107.368711 247.516747 
L 107.61658 247.760812 
L 107.864468 247.252252 
L 108.857823 248.818027 
L 109.103886 248.204455 
L 109.351669 249.525876 
L 110.350321 251.071559 
L 110.601817 250.279751 
L 110.85225 250.713305 
L 111.100144 251.567917 
L 111.349955 251.422619 
L 111.853308 252.688782 
L 112.102189 252.581656 
L 112.348732 253.670834 
L 112.849774 252.549345 
L 113.352284 254.413073 
L 113.851929 254.296857 
L 114.099729 254.166556 
L 114.347997 253.665071 
L 115.105125 255.758453 
L 115.605126 255.241042 
L 116.611436 256.650679 
L 116.863082 256.300507 
L 117.365436 257.337144 
L 117.622216 256.908148 
L 117.874556 258.038507 
L 118.124825 258.241234 
L 118.378853 257.604124 
L 118.883197 257.395258 
L 119.394015 259.213924 
L 120.153855 258.787549 
L 120.405296 260.538565 
L 120.661396 259.978277 
L 120.913068 260.792351 
L 121.415675 261.261773 
L 121.92291 260.658319 
L 122.431609 261.389577 
L 122.940669 262.538628 
L 123.451451 262.430305 
L 123.71369 263.218831 
L 123.967185 263.053537 
L 124.989289 264.129555 
L 125.25185 264.072993 
L 125.76225 264.125336 
L 126.018062 264.87649 
L 126.272655 264.781153 
L 126.785939 265.209623 
L 128.050806 265.674162 
L 128.566553 265.177924 
L 128.820877 266.335943 
L 129.331866 266.666371 
L 129.591571 266.240644 
L 129.848259 266.571893 
L 130.106946 265.911031 
L 130.364819 266.624768 
L 130.623024 266.310762 
L 130.879754 266.567678 
L 131.140228 266.369071 
L 131.394272 266.595658 
L 131.649563 267.405534 
L 132.687423 267.886007 
L 132.944429 267.512955 
L 134.229893 268.677858 
L 135.260005 267.897629 
L 135.522604 268.030116 
L 135.785799 268.612264 
L 136.559319 269.052268 
L 136.817816 270.01858 
L 137.081521 269.451447 
L 137.337185 269.186397 
L 137.596427 269.18629 
L 137.84979 270.005729 
L 138.622134 269.882921 
L 138.878234 269.492736 
L 139.397864 270.581894 
L 139.921466 271.245525 
L 140.443407 271.277125 
L 140.964648 271.568398 
L 141.485389 270.870176 
L 141.744964 270.919037 
L 142.007576 271.915793 
L 142.262688 271.312566 
L 142.523834 272.513572 
L 142.78237 271.999309 
L 143.044882 272.310337 
L 143.303261 271.114957 
L 143.565797 272.124981 
L 144.083745 271.082321 
L 144.610507 272.608407 
L 144.868739 271.42407 
L 145.38799 272.134382 
L 145.912264 271.71382 
L 146.431538 272.725982 
L 146.691039 272.490342 
L 146.95124 273.409986 
L 147.211724 272.837473 
L 147.477447 272.801722 
L 147.737231 272.457072 
L 147.995654 272.601365 
L 148.256078 272.408178 
L 148.51739 272.358753 
L 149.044846 272.906149 
L 149.300213 272.610636 
L 149.821272 273.864541 
L 150.345162 273.510896 
L 150.602458 273.892098 
L 150.855021 273.869084 
L 151.114195 273.599132 
L 151.36848 273.938945 
L 151.898589 273.425607 
L 152.163165 273.729454 
L 152.684074 273.432624 
L 152.942825 272.540204 
L 153.20619 273.458053 
L 153.46712 273.765384 
L 153.724518 273.370582 
L 154.495586 273.777713 
L 154.761166 272.640304 
L 155.021894 274.530119 
L 155.80058 273.886331 
L 156.321578 274.67557 
L 156.580639 274.34412 
L 157.093705 274.54847 
L 157.352402 273.653176 
L 157.615565 274.778041 
L 158.130032 275.122967 
L 158.38856 275.51821 
L 158.910098 276.012105 
L 159.430936 274.790112 
L 160.734067 275.145995 
L 160.994022 275.031688 
L 161.761164 273.839321 
L 162.022434 274.280646 
L 162.284597 275.149431 
L 162.538631 273.394343 
L 162.799598 275.494111 
L 163.057626 274.553376 
L 163.581599 276.003189 
L 164.097215 275.257784 
L 164.609221 274.884489 
L 165.136917 274.206694 
L 165.904736 273.941407 
L 166.164503 274.252303 
L 166.950665 274.785424 
L 167.202752 274.817443 
L 167.462889 274.519363 
L 167.724811 275.213546 
L 168.241577 275.809514 
L 168.503913 276.375788 
L 169.285589 275.918087 
L 169.544017 275.330949 
L 169.805122 276.241474 
L 170.067957 276.108705 
L 170.857339 275.492695 
L 171.901045 276.851235 
L 172.167436 276.094717 
L 172.687374 276.905756 
L 172.942969 276.637034 
L 173.206545 276.638402 
L 173.46985 277.148405 
L 173.729057 276.209854 
L 173.988554 276.62329 
L 174.24568 275.767854 
L 174.759164 276.585287 
L 175.025433 276.582651 
L 175.281927 277.459098 
L 175.800914 276.758848 
L 176.059373 277.522205 
L 176.822544 276.612588 
L 177.077628 276.964764 
L 178.115798 277.114536 
L 178.89258 276.701076 
L 179.15339 276.277652 
L 179.661673 276.365162 
L 179.917314 276.196077 
L 180.433817 276.717499 
L 180.695225 277.681403 
L 180.954832 276.871161 
L 181.7231 276.979938 
L 181.980152 277.524641 
L 182.500225 276.378909 
L 183.796308 276.584071 
L 184.312651 276.49541 
L 184.566928 275.94144 
L 185.086357 276.855014 
L 185.340125 277.336129 
L 185.597755 276.799079 
L 186.376624 277.012933 
L 186.632968 277.009241 
L 187.405689 277.821799 
L 187.66511 277.784244 
L 187.931854 277.407548 
L 188.699763 277.393904 
L 188.957842 277.926335 
L 189.220513 277.853731 
L 190.762484 278.072056 
L 191.281231 278.72006 
L 191.540147 278.561482 
L 191.798806 278.662474 
L 192.061865 279.09308 
L 192.579504 278.864227 
L 192.836581 279.586616 
L 193.09884 279.168596 
L 193.616806 280.201407 
L 193.875549 279.283746 
L 194.132689 279.510052 
L 194.388034 279.582622 
L 194.652958 278.745932 
L 194.906699 279.514518 
L 195.161354 279.270978 
L 195.416174 280.025124 
L 195.93229 279.745217 
L 196.191028 280.41557 
L 196.445067 279.997251 
L 196.960508 280.549463 
L 197.476909 280.573135 
L 197.989728 280.858464 
L 198.248548 280.015623 
L 199.032825 280.31572 
L 199.292946 280.007994 
L 199.55269 280.427267 
L 200.325873 280.835892 
L 200.581161 281.158627 
L 201.346267 281.055251 
L 201.59697 280.321144 
L 201.858338 281.101542 
L 202.376887 281.218384 
L 202.629842 282.021887 
L 202.886532 281.253565 
L 203.149416 281.84067 
L 203.406015 281.551775 
L 203.663611 281.820187 
L 203.921305 281.435811 
L 204.181282 281.815764 
L 204.438848 281.642074 
L 204.954285 281.088562 
L 205.471944 282.146258 
L 206.245597 282.158174 
L 206.504393 281.931019 
L 206.759172 282.072009 
L 207.273692 281.882205 
L 207.528988 282.233902 
L 207.78702 281.732131 
L 208.04327 282.450359 
L 208.557612 282.866617 
L 208.817424 282.586603 
L 209.074413 283.069128 
L 209.327073 282.509213 
L 209.580363 282.645044 
L 211.114629 283.004286 
L 211.370418 283.513695 
L 211.629476 283.077667 
L 212.39814 282.908847 
L 214.186824 283.673048 
L 214.44926 283.28426 
L 214.960672 283.116017 
L 215.214621 283.516606 
L 215.988799 283.584687 
L 216.24504 283.45284 
L 216.761327 283.855884 
L 217.532507 284.092809 
L 218.811318 283.19932 
L 219.065729 283.909473 
L 219.319571 283.514913 
L 219.578734 283.486494 
L 219.835122 284.013313 
L 220.609076 283.284698 
L 221.120922 283.770627 
L 221.386361 283.937762 
L 221.643878 283.49607 
L 221.899114 284.027469 
L 222.154924 283.724977 
L 222.924442 284.464036 
L 223.18342 283.899087 
L 223.694266 283.417464 
L 224.723722 284.457979 
L 224.981807 284.173078 
L 225.240233 284.293438 
L 225.496124 284.535839 
L 225.745218 284.124393 
L 226.002757 284.544672 
L 226.256667 284.10305 
L 226.774074 284.374187 
L 227.030641 284.249223 
L 227.536128 284.529602 
L 227.791666 283.859046 
L 228.307928 284.735939 
L 228.560767 284.78858 
L 228.813765 283.992366 
L 229.068503 284.393766 
L 229.325653 285.020329 
L 229.583197 284.371963 
L 229.832309 284.947573 
L 230.08668 284.487137 
L 230.342295 284.609803 
L 230.598629 285.062789 
L 230.851714 284.908444 
L 231.11088 285.30012 
L 231.364112 285.388922 
L 232.13523 285.396173 
L 232.64882 285.051705 
L 233.155833 285.337003 
L 233.925727 285.08281 
L 234.183733 285.344274 
L 234.466883 285.423946 
L 234.722883 285.259228 
L 235.486977 285.26781 
L 235.741355 285.769552 
L 236.000584 285.173065 
L 236.764037 285.708754 
L 237.016635 285.302497 
L 237.787541 285.784244 
L 238.049094 285.453036 
L 239.068518 285.624084 
L 239.583731 285.456751 
L 240.093413 286.13552 
L 240.631775 285.958869 
L 240.887717 285.575288 
L 241.651839 285.60806 
L 241.905362 285.947746 
L 242.164458 285.492922 
L 243.183601 286.029567 
L 243.438592 285.848335 
L 243.950159 286.277211 
L 244.206207 286.01639 
L 244.716535 286.577071 
L 245.232146 286.364777 
L 245.74749 286.564286 
L 246.0038 286.148756 
L 246.258823 286.588861 
L 246.771899 286.979338 
L 247.284391 286.757351 
L 247.799232 287.208415 
L 248.052848 286.469808 
L 248.308998 286.894202 
L 248.564636 286.814725 
L 249.334061 286.834594 
L 249.588413 287.048815 
L 250.872297 287.24653 
L 251.379485 286.625619 
L 251.881097 287.123302 
L 252.140532 286.435841 
L 252.39534 286.632252 
L 252.649796 286.680314 
L 252.905328 286.9791 
L 253.160509 286.583548 
L 253.748101 286.992151 
L 254.510815 287.384456 
L 254.771398 287.280143 
L 255.279303 286.906298 
L 255.531579 286.946251 
L 255.787385 287.297025 
L 256.557049 287.330773 
L 257.065185 287.107274 
L 257.320207 287.484606 
L 257.579844 287.145372 
L 257.832388 287.184384 
L 258.083509 287.078299 
L 258.339595 287.420368 
L 258.591058 287.013984 
L 258.846221 287.205527 
L 259.359052 287.394926 
L 259.614344 287.201418 
L 259.897689 287.282988 
L 260.411486 287.788784 
L 261.679947 287.248076 
L 262.196932 288.080752 
L 263.222559 287.843207 
L 263.728624 287.926837 
L 263.978273 287.518815 
L 264.491161 287.850684 
L 265.248218 288.059131 
L 265.757401 288.053595 
L 266.016935 288.310165 
L 266.269001 288.124724 
L 267.036167 288.009112 
L 267.296051 288.199578 
L 267.803453 288.433283 
L 268.058071 287.96015 
L 268.570547 287.963558 
L 268.872966 288.548998 
L 269.125931 288.618402 
L 269.634694 288.0322 
L 269.887815 288.35952 
L 270.651535 288.486072 
L 270.904608 288.400812 
L 271.412561 288.610732 
L 271.666981 288.42 
L 271.92263 288.388966 
L 272.176284 288.665957 
L 272.68252 288.228021 
L 272.943194 288.318046 
L 273.194135 288.846188 
L 273.445524 288.659552 
L 273.950029 288.962116 
L 274.463558 288.630828 
L 274.970862 288.89444 
L 275.220726 288.681076 
L 275.473921 288.911017 
L 275.979408 288.614801 
L 277.252209 288.966486 
L 277.504564 288.525927 
L 278.013124 289.150449 
L 278.772192 288.712445 
L 279.025222 288.94955 
L 279.275026 288.899624 
L 279.527752 289.172275 
L 279.778759 289.033407 
L 280.283308 289.45758 
L 280.535458 289.123952 
L 280.787947 289.217163 
L 281.294511 289.182374 
L 281.548995 289.48655 
L 281.80142 289.231175 
L 282.051449 289.495562 
L 282.311753 289.44454 
L 282.561607 289.218439 
L 282.812285 289.623197 
L 283.321893 289.423289 
L 283.582055 289.666042 
L 284.593163 289.479677 
L 285.100122 289.676333 
L 285.356777 289.346337 
L 286.365011 290.044919 
L 286.620663 290.039221 
L 287.126522 289.825125 
L 287.378994 289.379481 
L 287.64221 289.687767 
L 287.901236 289.767061 
L 288.410291 289.41945 
L 288.66089 289.739841 
L 289.173631 290.063455 
L 289.680105 289.905175 
L 289.931438 289.799966 
L 290.694162 289.879622 
L 290.949634 289.658983 
L 291.454473 289.899232 
L 291.708394 289.58285 
L 292.979409 289.930631 
L 293.239093 289.487814 
L 293.746201 290.193878 
L 294.247066 290.007625 
L 296.043977 289.702636 
L 296.294455 289.997654 
L 296.799029 289.852531 
L 297.817248 289.824237 
L 298.320516 290.334835 
L 298.576662 290.056517 
L 298.82601 290.163026 
L 299.080541 290.036785 
L 299.839712 290.24721 
L 300.352931 289.96222 
L 301.366869 290.427163 
L 301.615827 290.287597 
L 302.116035 290.209379 
L 302.370054 290.635499 
L 302.880077 290.637275 
L 303.383354 290.215573 
L 303.638484 290.829489 
L 304.66084 290.552405 
L 304.912426 290.661533 
L 305.165108 290.334005 
L 305.427597 290.473298 
L 306.18934 290.236764 
L 306.443039 290.394543 
L 306.696919 290.273619 
L 307.460505 290.41874 
L 307.964291 290.769921 
L 310.504862 291.017294 
L 310.757558 290.823105 
L 312.021561 291.290515 
L 312.533665 291.307807 
L 312.787385 290.629393 
L 313.038137 291.013435 
L 313.545899 291.054315 
L 313.806066 291.323236 
L 314.061499 291.133326 
L 314.315892 291.441536 
L 314.825591 291.069513 
L 315.081338 291.376856 
L 315.587667 290.786046 
L 316.351205 291.104843 
L 316.858195 291.493659 
L 317.111165 291.347023 
L 318.633789 291.519758 
L 319.143237 291.699704 
L 319.395733 291.710484 
L 319.649764 291.608211 
L 320.159492 291.804156 
L 320.410865 291.554985 
L 321.442185 291.844139 
L 321.699121 291.737142 
L 321.957784 291.858396 
L 323.235707 291.620355 
L 323.4872 291.804699 
L 323.993347 291.868348 
L 324.758767 291.849943 
L 325.013218 292.01999 
L 325.523454 292.077957 
L 327.30872 291.96968 
L 327.563383 292.265648 
L 328.07357 292.157117 
L 328.578252 291.876976 
L 328.837301 292.267643 
L 329.095344 292.380818 
L 329.347823 292.653399 
L 329.600972 292.498969 
L 329.859094 292.500844 
L 330.117136 292.330412 
L 331.392162 292.321365 
L 331.646412 292.808308 
L 331.901208 292.430092 
L 332.409366 292.609146 
L 332.661932 292.440796 
L 333.681938 292.430145 
L 334.445802 292.666782 
L 334.700411 292.304547 
L 335.208992 292.636697 
L 335.724097 292.380891 
L 336.485324 292.720466 
L 336.998733 292.586744 
L 337.249943 292.707571 
L 338.010344 292.557569 
L 340.311386 292.83099 
L 341.331186 292.620374 
L 341.832645 292.892422 
L 342.084817 292.812023 
L 342.338118 292.990996 
L 342.847562 292.937413 
L 344.634469 293.259453 
L 344.892492 293.08628 
L 345.155934 293.104279 
L 346.177826 292.982911 
L 346.694133 293.07968 
L 346.94838 292.719223 
L 347.205527 293.075499 
L 347.459459 292.986008 
L 349.748792 293.552063 
L 350.253732 293.291019 
L 350.762594 293.452353 
L 351.013658 293.37882 
L 351.524199 293.657416 
L 351.779351 293.397709 
L 352.037205 293.490303 
L 352.54479 293.12971 
L 352.799915 293.468821 
L 353.054976 293.345994 
L 353.310895 293.621599 
L 354.068628 293.786084 
L 355.851252 293.515995 
L 356.621672 293.68103 
L 357.125465 293.63244 
L 357.383092 293.784488 
L 357.8893 293.591677 
L 358.145196 293.770116 
L 358.399052 293.553155 
L 358.656029 293.512074 
L 358.910302 293.639105 
L 359.923619 293.698517 
L 360.179644 293.906596 
L 360.939053 293.868493 
L 361.19743 293.669269 
L 361.451678 293.713427 
L 361.703141 293.950651 
L 361.956705 293.635153 
L 362.467031 294.067991 
L 363.497093 294.024167 
L 363.75542 294.20492 
L 364.518048 293.632561 
L 365.02491 294.140759 
L 365.539875 294.086268 
L 367.065421 294.185309 
L 367.818887 294.256612 
L 368.070525 294.040498 
L 368.583211 294.264939 
L 368.840223 294.059545 
L 369.610993 294.231735 
L 369.867693 294.130439 
L 370.120297 294.16088 
L 370.374811 294.380773 
L 371.147928 294.105373 
L 371.403986 294.46706 
L 371.660047 294.255023 
L 371.913812 294.34144 
L 373.444156 294.50254 
L 373.70403 294.29311 
L 374.719129 294.53742 
L 375.232716 294.415924 
L 375.486904 294.499012 
L 375.735898 294.380691 
L 375.990052 294.396256 
L 376.246686 294.568681 
L 376.505365 294.429637 
L 376.760161 294.51619 
L 377.519871 294.486167 
L 377.781515 294.662357 
L 378.034583 294.495783 
L 378.798093 294.573136 
L 379.055703 294.725223 
L 379.308837 294.519157 
L 379.817135 294.43257 
L 380.066785 294.658781 
L 380.586191 294.576271 
L 381.597639 294.668508 
L 381.853944 294.574201 
L 382.358652 294.939263 
L 382.614936 294.849976 
L 382.869354 294.497188 
L 383.383011 294.816892 
L 383.888632 294.748091 
L 384.141648 294.585205 
L 384.39884 294.72533 
L 385.417389 294.66503 
L 385.671866 294.721638 
L 386.185201 294.717555 
L 386.436712 294.574061 
L 386.943001 294.709641 
L 387.202484 294.644291 
L 387.710169 294.957375 
L 388.724305 294.66572 
L 388.976695 294.828961 
L 389.732743 294.814916 
L 390.497921 294.879446 
L 391.004246 294.789018 
L 391.259886 294.979585 
L 391.51079 294.72936 
L 392.274396 295.107091 
L 392.792805 294.973959 
L 394.069195 294.939623 
L 395.351645 295.127092 
L 395.604231 295.078428 
L 395.854368 295.252626 
L 396.105889 294.960575 
L 396.618695 295.095358 
L 398.391561 294.843069 
L 398.898037 295.120904 
L 399.667011 294.891777 
L 399.918517 295.121369 
L 402.219644 295.077137 
L 402.471927 295.2365 
L 402.724137 295.155719 
L 402.978397 295.202681 
L 403.752619 294.866544 
L 404.00964 294.952208 
L 404.262177 295.171679 
L 404.773583 295.021306 
L 405.025358 295.173169 
L 405.786562 295.023856 
L 406.044593 295.200408 
L 406.298949 295.033872 
L 406.809297 295.317109 
L 407.066677 295.166887 
L 407.329666 295.293394 
L 407.838543 295.341848 
L 408.092765 295.097815 
L 408.858929 295.415547 
L 409.114037 295.245469 
L 409.365575 295.38122 
L 409.615788 295.159113 
L 409.873626 295.488 
L 410.640146 295.427706 
L 413.696527 295.392032 
L 414.72 295.447133 
L 414.72 295.447133 
" style="fill:none;stroke:#000000;stroke-linecap:square;stroke-width:0.8;"/>
   </g>
   <g id="patch_3">
    <path d="M 57.6 307.584 
L 57.6 41.472 
" style="fill:none;stroke:#000000;stroke-linecap:square;stroke-linejoin:miter;stroke-width:0.8;"/>
   </g>
   <g id="patch_4">
    <path d="M 414.72 307.584 
L 414.72 41.472 
" style="fill:none;stroke:#000000;stroke-linecap:square;stroke-linejoin:miter;stroke-width:0.8;"/>
   </g>
   <g id="patch_5">
    <path d="M 57.6 307.584 
L 414.72 307.584 
" style="fill:none;stroke:#000000;stroke-linecap:square;stroke-linejoin:miter;stroke-width:0.8;"/>
   </g>
   <g id="patch_6">
    <path d="M 57.6 41.472 
L 414.72 41.472 
" style="fill:none;stroke:#000000;stroke-linecap:square;stroke-linejoin:miter;stroke-width:0.8;"/>
   </g>
  </g>
  <g id="axes_2">
   <g id="matplotlib.axis_3">
    <g id="xtick_8">
     <g id="line2d_32">
      <defs>
       <path d="M 0 0 
L 0 -3.5 
" id="madf80847d6" style="stroke:#000000;stroke-width:0.8;"/>
      </defs>
      <g>
       <use style="stroke:#000000;stroke-width:0.8;" x="57.6" xlink:href="#madf80847d6" y="41.472"/>
      </g>
     </g>
    </g>
    <g id="xtick_9">
     <g id="line2d_33">
      <g>
       <use style="stroke:#000000;stroke-width:0.8;" x="108.29127" xlink:href="#madf80847d6" y="41.472"/>
      </g>
     </g>
     <g id="text_18">
      <!-- 20.0K -->
      <defs>
       <path d="M 9.8125 72.90625 
L 19.671875 72.90625 
L 19.671875 42.09375 
L 52.390625 72.90625 
L 65.09375 72.90625 
L 28.90625 38.921875 
L 67.671875 0 
L 54.6875 0 
L 19.671875 35.109375 
L 19.671875 0 
L 9.8125 0 
z
" id="DejaVuSans-75"/>
      </defs>
      <g transform="translate(93.879552 32.392313)scale(0.1 -0.1)">
       <use xlink:href="#DejaVuSans-50"/>
       <use x="63.623047" xlink:href="#DejaVuSans-48"/>
       <use x="127.246094" xlink:href="#DejaVuSans-46"/>
       <use x="159.033203" xlink:href="#DejaVuSans-48"/>
       <use x="222.65625" xlink:href="#DejaVuSans-75"/>
      </g>
     </g>
    </g>
    <g id="xtick_10">
     <g id="line2d_34">
      <g>
       <use style="stroke:#000000;stroke-width:0.8;" x="158.982541" xlink:href="#madf80847d6" y="41.472"/>
      </g>
     </g>
     <g id="text_19">
      <!-- 40.0K -->
      <g transform="translate(144.570822 32.392313)scale(0.1 -0.1)">
       <use xlink:href="#DejaVuSans-52"/>
       <use x="63.623047" xlink:href="#DejaVuSans-48"/>
       <use x="127.246094" xlink:href="#DejaVuSans-46"/>
       <use x="159.033203" xlink:href="#DejaVuSans-48"/>
       <use x="222.65625" xlink:href="#DejaVuSans-75"/>
      </g>
     </g>
    </g>
    <g id="xtick_11">
     <g id="line2d_35">
      <g>
       <use style="stroke:#000000;stroke-width:0.8;" x="209.673811" xlink:href="#madf80847d6" y="41.472"/>
      </g>
     </g>
     <g id="text_20">
      <!-- 60.0K -->
      <g transform="translate(195.262092 32.392313)scale(0.1 -0.1)">
       <use xlink:href="#DejaVuSans-54"/>
       <use x="63.623047" xlink:href="#DejaVuSans-48"/>
       <use x="127.246094" xlink:href="#DejaVuSans-46"/>
       <use x="159.033203" xlink:href="#DejaVuSans-48"/>
       <use x="222.65625" xlink:href="#DejaVuSans-75"/>
      </g>
     </g>
    </g>
    <g id="xtick_12">
     <g id="line2d_36">
      <g>
       <use style="stroke:#000000;stroke-width:0.8;" x="260.365082" xlink:href="#madf80847d6" y="41.472"/>
      </g>
     </g>
     <g id="text_21">
      <!-- 80.0K -->
      <g transform="translate(245.953363 32.392313)scale(0.1 -0.1)">
       <use xlink:href="#DejaVuSans-56"/>
       <use x="63.623047" xlink:href="#DejaVuSans-48"/>
       <use x="127.246094" xlink:href="#DejaVuSans-46"/>
       <use x="159.033203" xlink:href="#DejaVuSans-48"/>
       <use x="222.65625" xlink:href="#DejaVuSans-75"/>
      </g>
     </g>
    </g>
    <g id="xtick_13">
     <g id="line2d_37">
      <g>
       <use style="stroke:#000000;stroke-width:0.8;" x="311.056352" xlink:href="#madf80847d6" y="41.472"/>
      </g>
     </g>
     <g id="text_22">
      <!-- 100K -->
      <g transform="translate(298.233696 32.392313)scale(0.1 -0.1)">
       <use xlink:href="#DejaVuSans-49"/>
       <use x="63.623047" xlink:href="#DejaVuSans-48"/>
       <use x="127.246094" xlink:href="#DejaVuSans-48"/>
       <use x="190.869141" xlink:href="#DejaVuSans-75"/>
      </g>
     </g>
    </g>
    <g id="xtick_14">
     <g id="line2d_38">
      <g>
       <use style="stroke:#000000;stroke-width:0.8;" x="361.747622" xlink:href="#madf80847d6" y="41.472"/>
      </g>
     </g>
     <g id="text_23">
      <!-- 120K -->
      <g transform="translate(348.924966 32.392313)scale(0.1 -0.1)">
       <use xlink:href="#DejaVuSans-49"/>
       <use x="63.623047" xlink:href="#DejaVuSans-50"/>
       <use x="127.246094" xlink:href="#DejaVuSans-48"/>
       <use x="190.869141" xlink:href="#DejaVuSans-75"/>
      </g>
     </g>
    </g>
    <g id="xtick_15">
     <g id="line2d_39">
      <g>
       <use style="stroke:#000000;stroke-width:0.8;" x="412.438893" xlink:href="#madf80847d6" y="41.472"/>
      </g>
     </g>
     <g id="text_24">
      <!-- 140K -->
      <g transform="translate(399.616237 32.392313)scale(0.1 -0.1)">
       <use xlink:href="#DejaVuSans-49"/>
       <use x="63.623047" xlink:href="#DejaVuSans-52"/>
       <use x="127.246094" xlink:href="#DejaVuSans-48"/>
       <use x="190.869141" xlink:href="#DejaVuSans-75"/>
      </g>
     </g>
    </g>
    <g id="text_25">
     <!-- Steps -->
     <defs>
      <path d="M 53.515625 70.515625 
L 53.515625 60.890625 
Q 47.90625 63.578125 42.921875 64.890625 
Q 37.9375 66.21875 33.296875 66.21875 
Q 25.25 66.21875 20.875 63.09375 
Q 16.5 59.96875 16.5 54.203125 
Q 16.5 49.359375 19.40625 46.890625 
Q 22.3125 44.4375 30.421875 42.921875 
L 36.375 41.703125 
Q 47.40625 39.59375 52.65625 34.296875 
Q 57.90625 29 57.90625 20.125 
Q 57.90625 9.515625 50.796875 4.046875 
Q 43.703125 -1.421875 29.984375 -1.421875 
Q 24.8125 -1.421875 18.96875 -0.25 
Q 13.140625 0.921875 6.890625 3.21875 
L 6.890625 13.375 
Q 12.890625 10.015625 18.65625 8.296875 
Q 24.421875 6.59375 29.984375 6.59375 
Q 38.421875 6.59375 43.015625 9.90625 
Q 47.609375 13.234375 47.609375 19.390625 
Q 47.609375 24.75 44.3125 27.78125 
Q 41.015625 30.8125 33.5 32.328125 
L 27.484375 33.5 
Q 16.453125 35.6875 11.515625 40.375 
Q 6.59375 45.0625 6.59375 53.421875 
Q 6.59375 63.09375 13.40625 68.65625 
Q 20.21875 74.21875 32.171875 74.21875 
Q 37.3125 74.21875 42.625 73.28125 
Q 47.953125 72.359375 53.515625 70.515625 
z
" id="DejaVuSans-83"/>
      <path d="M 18.3125 70.21875 
L 18.3125 54.6875 
L 36.8125 54.6875 
L 36.8125 47.703125 
L 18.3125 47.703125 
L 18.3125 18.015625 
Q 18.3125 11.328125 20.140625 9.421875 
Q 21.96875 7.515625 27.59375 7.515625 
L 36.8125 7.515625 
L 36.8125 0 
L 27.59375 0 
Q 17.1875 0 13.234375 3.875 
Q 9.28125 7.765625 9.28125 18.015625 
L 9.28125 47.703125 
L 2.6875 47.703125 
L 2.6875 54.6875 
L 9.28125 54.6875 
L 9.28125 70.21875 
z
" id="DejaVuSans-116"/>
      <path d="M 56.203125 29.59375 
L 56.203125 25.203125 
L 14.890625 25.203125 
Q 15.484375 15.921875 20.484375 11.0625 
Q 25.484375 6.203125 34.421875 6.203125 
Q 39.59375 6.203125 44.453125 7.46875 
Q 49.3125 8.734375 54.109375 11.28125 
L 54.109375 2.78125 
Q 49.265625 0.734375 44.1875 -0.34375 
Q 39.109375 -1.421875 33.890625 -1.421875 
Q 20.796875 -1.421875 13.15625 6.1875 
Q 5.515625 13.8125 5.515625 26.8125 
Q 5.515625 40.234375 12.765625 48.109375 
Q 20.015625 56 32.328125 56 
Q 43.359375 56 49.78125 48.890625 
Q 56.203125 41.796875 56.203125 29.59375 
z
M 47.21875 32.234375 
Q 47.125 39.59375 43.09375 43.984375 
Q 39.0625 48.390625 32.421875 48.390625 
Q 24.90625 48.390625 20.390625 44.140625 
Q 15.875 39.890625 15.1875 32.171875 
z
" id="DejaVuSans-101"/>
      <path d="M 18.109375 8.203125 
L 18.109375 -20.796875 
L 9.078125 -20.796875 
L 9.078125 54.6875 
L 18.109375 54.6875 
L 18.109375 46.390625 
Q 20.953125 51.265625 25.265625 53.625 
Q 29.59375 56 35.59375 56 
Q 45.5625 56 51.78125 48.09375 
Q 58.015625 40.1875 58.015625 27.296875 
Q 58.015625 14.40625 51.78125 6.484375 
Q 45.5625 -1.421875 35.59375 -1.421875 
Q 29.59375 -1.421875 25.265625 0.953125 
Q 20.953125 3.328125 18.109375 8.203125 
z
M 48.6875 27.296875 
Q 48.6875 37.203125 44.609375 42.84375 
Q 40.53125 48.484375 33.40625 48.484375 
Q 26.265625 48.484375 22.1875 42.84375 
Q 18.109375 37.203125 18.109375 27.296875 
Q 18.109375 17.390625 22.1875 11.75 
Q 26.265625 6.109375 33.40625 6.109375 
Q 40.53125 6.109375 44.609375 11.75 
Q 48.6875 17.390625 48.6875 27.296875 
z
" id="DejaVuSans-112"/>
     </defs>
     <g transform="translate(222.170156 20.793875)scale(0.1 -0.1)">
      <use xlink:href="#DejaVuSans-83"/>
      <use x="63.476562" xlink:href="#DejaVuSans-116"/>
      <use x="102.685547" xlink:href="#DejaVuSans-101"/>
      <use x="164.208984" xlink:href="#DejaVuSans-112"/>
      <use x="227.685547" xlink:href="#DejaVuSans-115"/>
     </g>
    </g>
   </g>
   <g id="patch_7">
    <path d="M 57.6 307.584 
L 57.6 41.472 
" style="fill:none;stroke:#000000;stroke-linecap:square;stroke-linejoin:miter;stroke-width:0.8;"/>
   </g>
   <g id="patch_8">
    <path d="M 414.72 307.584 
L 414.72 41.472 
" style="fill:none;stroke:#000000;stroke-linecap:square;stroke-linejoin:miter;stroke-width:0.8;"/>
   </g>
   <g id="patch_9">
    <path d="M 57.6 307.584 
L 414.72 307.584 
" style="fill:none;stroke:#000000;stroke-linecap:square;stroke-linejoin:miter;stroke-width:0.8;"/>
   </g>
   <g id="patch_10">
    <path d="M 57.6 41.472 
L 414.72 41.472 
" style="fill:none;stroke:#000000;stroke-linecap:square;stroke-linejoin:miter;stroke-width:0.8;"/>
   </g>
  </g>
 </g>
 <defs>
  <clipPath id="p7ee85d4895">
   <rect height="266.112" width="357.12" x="57.6" y="41.472"/>
  </clipPath>
 </defs>
</svg>
