<?xml version="1.0" encoding="utf-8" standalone="no"?>
<!DOCTYPE svg PUBLIC "-//W3C//DTD SVG 1.1//EN"
  "http://www.w3.org/Graphics/SVG/1.1/DTD/svg11.dtd">
<!-- Created with matplotlib (https://matplotlib.org/) -->
<svg height="345.6pt" version="1.1" viewBox="0 0 460.8 345.6" width="460.8pt" xmlns="http://www.w3.org/2000/svg" xmlns:xlink="http://www.w3.org/1999/xlink">
 <defs>
  <style type="text/css">
*{stroke-linecap:butt;stroke-linejoin:round;}
  </style>
 </defs>
 <g id="figure_1">
  <g id="patch_1">
   <path d="M 0 345.6 
L 460.8 345.6 
L 460.8 0 
L 0 0 
z
" style="fill:#ffffff;"/>
  </g>
  <g id="axes_1">
   <g id="patch_2">
    <path d="M 57.6 307.584 
L 414.72 307.584 
L 414.72 41.472 
L 57.6 41.472 
z
" style="fill:#ffffff;"/>
   </g>
   <g id="matplotlib.axis_1">
    <g id="xtick_1">
     <g id="line2d_1">
      <path clip-path="url(#pea0a877036)" d="M 57.6 307.584 
L 57.6 41.472 
" style="fill:none;stroke:#b0b0b0;stroke-linecap:square;stroke-width:0.8;"/>
     </g>
     <g id="line2d_2">
      <defs>
       <path d="M 0 0 
L 0 3.5 
" id="m90da3f228b" style="stroke:#000000;stroke-width:0.8;"/>
      </defs>
      <g>
       <use style="stroke:#000000;stroke-width:0.8;" x="57.6" xlink:href="#m90da3f228b" y="307.584"/>
      </g>
     </g>
     <g id="text_1">
      <!-- 0 -->
      <defs>
       <path d="M 31.78125 66.40625 
Q 24.171875 66.40625 20.328125 58.90625 
Q 16.5 51.421875 16.5 36.375 
Q 16.5 21.390625 20.328125 13.890625 
Q 24.171875 6.390625 31.78125 6.390625 
Q 39.453125 6.390625 43.28125 13.890625 
Q 47.125 21.390625 47.125 36.375 
Q 47.125 51.421875 43.28125 58.90625 
Q 39.453125 66.40625 31.78125 66.40625 
z
M 31.78125 74.21875 
Q 44.046875 74.21875 50.515625 64.515625 
Q 56.984375 54.828125 56.984375 36.375 
Q 56.984375 17.96875 50.515625 8.265625 
Q 44.046875 -1.421875 31.78125 -1.421875 
Q 19.53125 -1.421875 13.0625 8.265625 
Q 6.59375 17.96875 6.59375 36.375 
Q 6.59375 54.828125 13.0625 64.515625 
Q 19.53125 74.21875 31.78125 74.21875 
z
" id="DejaVuSans-48"/>
      </defs>
      <g transform="translate(54.41875 322.182437)scale(0.1 -0.1)">
       <use xlink:href="#DejaVuSans-48"/>
      </g>
     </g>
    </g>
    <g id="xtick_2">
     <g id="line2d_3">
      <path clip-path="url(#pea0a877036)" d="M 110.073334 307.584 
L 110.073334 41.472 
" style="fill:none;stroke:#b0b0b0;stroke-linecap:square;stroke-width:0.8;"/>
     </g>
     <g id="line2d_4">
      <g>
       <use style="stroke:#000000;stroke-width:0.8;" x="110.073334" xlink:href="#m90da3f228b" y="307.584"/>
      </g>
     </g>
     <g id="text_2">
      <!-- 2 -->
      <defs>
       <path d="M 19.1875 8.296875 
L 53.609375 8.296875 
L 53.609375 0 
L 7.328125 0 
L 7.328125 8.296875 
Q 12.9375 14.109375 22.625 23.890625 
Q 32.328125 33.6875 34.8125 36.53125 
Q 39.546875 41.84375 41.421875 45.53125 
Q 43.3125 49.21875 43.3125 52.78125 
Q 43.3125 58.59375 39.234375 62.25 
Q 35.15625 65.921875 28.609375 65.921875 
Q 23.96875 65.921875 18.8125 64.3125 
Q 13.671875 62.703125 7.8125 59.421875 
L 7.8125 69.390625 
Q 13.765625 71.78125 18.9375 73 
Q 24.125 74.21875 28.421875 74.21875 
Q 39.75 74.21875 46.484375 68.546875 
Q 53.21875 62.890625 53.21875 53.421875 
Q 53.21875 48.921875 51.53125 44.890625 
Q 49.859375 40.875 45.40625 35.40625 
Q 44.1875 33.984375 37.640625 27.21875 
Q 31.109375 20.453125 19.1875 8.296875 
z
" id="DejaVuSans-50"/>
      </defs>
      <g transform="translate(106.892084 322.182437)scale(0.1 -0.1)">
       <use xlink:href="#DejaVuSans-50"/>
      </g>
     </g>
    </g>
    <g id="xtick_3">
     <g id="line2d_5">
      <path clip-path="url(#pea0a877036)" d="M 162.546667 307.584 
L 162.546667 41.472 
" style="fill:none;stroke:#b0b0b0;stroke-linecap:square;stroke-width:0.8;"/>
     </g>
     <g id="line2d_6">
      <g>
       <use style="stroke:#000000;stroke-width:0.8;" x="162.546667" xlink:href="#m90da3f228b" y="307.584"/>
      </g>
     </g>
     <g id="text_3">
      <!-- 4 -->
      <defs>
       <path d="M 37.796875 64.3125 
L 12.890625 25.390625 
L 37.796875 25.390625 
z
M 35.203125 72.90625 
L 47.609375 72.90625 
L 47.609375 25.390625 
L 58.015625 25.390625 
L 58.015625 17.1875 
L 47.609375 17.1875 
L 47.609375 0 
L 37.796875 0 
L 37.796875 17.1875 
L 4.890625 17.1875 
L 4.890625 26.703125 
z
" id="DejaVuSans-52"/>
      </defs>
      <g transform="translate(159.365417 322.182437)scale(0.1 -0.1)">
       <use xlink:href="#DejaVuSans-52"/>
      </g>
     </g>
    </g>
    <g id="xtick_4">
     <g id="line2d_7">
      <path clip-path="url(#pea0a877036)" d="M 215.020001 307.584 
L 215.020001 41.472 
" style="fill:none;stroke:#b0b0b0;stroke-linecap:square;stroke-width:0.8;"/>
     </g>
     <g id="line2d_8">
      <g>
       <use style="stroke:#000000;stroke-width:0.8;" x="215.020001" xlink:href="#m90da3f228b" y="307.584"/>
      </g>
     </g>
     <g id="text_4">
      <!-- 6 -->
      <defs>
       <path d="M 33.015625 40.375 
Q 26.375 40.375 22.484375 35.828125 
Q 18.609375 31.296875 18.609375 23.390625 
Q 18.609375 15.53125 22.484375 10.953125 
Q 26.375 6.390625 33.015625 6.390625 
Q 39.65625 6.390625 43.53125 10.953125 
Q 47.40625 15.53125 47.40625 23.390625 
Q 47.40625 31.296875 43.53125 35.828125 
Q 39.65625 40.375 33.015625 40.375 
z
M 52.59375 71.296875 
L 52.59375 62.3125 
Q 48.875 64.0625 45.09375 64.984375 
Q 41.3125 65.921875 37.59375 65.921875 
Q 27.828125 65.921875 22.671875 59.328125 
Q 17.53125 52.734375 16.796875 39.40625 
Q 19.671875 43.65625 24.015625 45.921875 
Q 28.375 48.1875 33.59375 48.1875 
Q 44.578125 48.1875 50.953125 41.515625 
Q 57.328125 34.859375 57.328125 23.390625 
Q 57.328125 12.15625 50.6875 5.359375 
Q 44.046875 -1.421875 33.015625 -1.421875 
Q 20.359375 -1.421875 13.671875 8.265625 
Q 6.984375 17.96875 6.984375 36.375 
Q 6.984375 53.65625 15.1875 63.9375 
Q 23.390625 74.21875 37.203125 74.21875 
Q 40.921875 74.21875 44.703125 73.484375 
Q 48.484375 72.75 52.59375 71.296875 
z
" id="DejaVuSans-54"/>
      </defs>
      <g transform="translate(211.838751 322.182437)scale(0.1 -0.1)">
       <use xlink:href="#DejaVuSans-54"/>
      </g>
     </g>
    </g>
    <g id="xtick_5">
     <g id="line2d_9">
      <path clip-path="url(#pea0a877036)" d="M 267.493335 307.584 
L 267.493335 41.472 
" style="fill:none;stroke:#b0b0b0;stroke-linecap:square;stroke-width:0.8;"/>
     </g>
     <g id="line2d_10">
      <g>
       <use style="stroke:#000000;stroke-width:0.8;" x="267.493335" xlink:href="#m90da3f228b" y="307.584"/>
      </g>
     </g>
     <g id="text_5">
      <!-- 8 -->
      <defs>
       <path d="M 31.78125 34.625 
Q 24.75 34.625 20.71875 30.859375 
Q 16.703125 27.09375 16.703125 20.515625 
Q 16.703125 13.921875 20.71875 10.15625 
Q 24.75 6.390625 31.78125 6.390625 
Q 38.8125 6.390625 42.859375 10.171875 
Q 46.921875 13.96875 46.921875 20.515625 
Q 46.921875 27.09375 42.890625 30.859375 
Q 38.875 34.625 31.78125 34.625 
z
M 21.921875 38.8125 
Q 15.578125 40.375 12.03125 44.71875 
Q 8.5 49.078125 8.5 55.328125 
Q 8.5 64.0625 14.71875 69.140625 
Q 20.953125 74.21875 31.78125 74.21875 
Q 42.671875 74.21875 48.875 69.140625 
Q 55.078125 64.0625 55.078125 55.328125 
Q 55.078125 49.078125 51.53125 44.71875 
Q 48 40.375 41.703125 38.8125 
Q 48.828125 37.15625 52.796875 32.3125 
Q 56.78125 27.484375 56.78125 20.515625 
Q 56.78125 9.90625 50.3125 4.234375 
Q 43.84375 -1.421875 31.78125 -1.421875 
Q 19.734375 -1.421875 13.25 4.234375 
Q 6.78125 9.90625 6.78125 20.515625 
Q 6.78125 27.484375 10.78125 32.3125 
Q 14.796875 37.15625 21.921875 38.8125 
z
M 18.3125 54.390625 
Q 18.3125 48.734375 21.84375 45.5625 
Q 25.390625 42.390625 31.78125 42.390625 
Q 38.140625 42.390625 41.71875 45.5625 
Q 45.3125 48.734375 45.3125 54.390625 
Q 45.3125 60.0625 41.71875 63.234375 
Q 38.140625 66.40625 31.78125 66.40625 
Q 25.390625 66.40625 21.84375 63.234375 
Q 18.3125 60.0625 18.3125 54.390625 
z
" id="DejaVuSans-56"/>
      </defs>
      <g transform="translate(264.312085 322.182437)scale(0.1 -0.1)">
       <use xlink:href="#DejaVuSans-56"/>
      </g>
     </g>
    </g>
    <g id="xtick_6">
     <g id="line2d_11">
      <path clip-path="url(#pea0a877036)" d="M 319.966668 307.584 
L 319.966668 41.472 
" style="fill:none;stroke:#b0b0b0;stroke-linecap:square;stroke-width:0.8;"/>
     </g>
     <g id="line2d_12">
      <g>
       <use style="stroke:#000000;stroke-width:0.8;" x="319.966668" xlink:href="#m90da3f228b" y="307.584"/>
      </g>
     </g>
     <g id="text_6">
      <!-- 10 -->
      <defs>
       <path d="M 12.40625 8.296875 
L 28.515625 8.296875 
L 28.515625 63.921875 
L 10.984375 60.40625 
L 10.984375 69.390625 
L 28.421875 72.90625 
L 38.28125 72.90625 
L 38.28125 8.296875 
L 54.390625 8.296875 
L 54.390625 0 
L 12.40625 0 
z
" id="DejaVuSans-49"/>
      </defs>
      <g transform="translate(313.604168 322.182437)scale(0.1 -0.1)">
       <use xlink:href="#DejaVuSans-49"/>
       <use x="63.623047" xlink:href="#DejaVuSans-48"/>
      </g>
     </g>
    </g>
    <g id="xtick_7">
     <g id="line2d_13">
      <path clip-path="url(#pea0a877036)" d="M 372.440002 307.584 
L 372.440002 41.472 
" style="fill:none;stroke:#b0b0b0;stroke-linecap:square;stroke-width:0.8;"/>
     </g>
     <g id="line2d_14">
      <g>
       <use style="stroke:#000000;stroke-width:0.8;" x="372.440002" xlink:href="#m90da3f228b" y="307.584"/>
      </g>
     </g>
     <g id="text_7">
      <!-- 12 -->
      <g transform="translate(366.077502 322.182437)scale(0.1 -0.1)">
       <use xlink:href="#DejaVuSans-49"/>
       <use x="63.623047" xlink:href="#DejaVuSans-50"/>
      </g>
     </g>
    </g>
    <g id="text_8">
     <!-- Hours -->
     <defs>
      <path d="M 9.8125 72.90625 
L 19.671875 72.90625 
L 19.671875 43.015625 
L 55.515625 43.015625 
L 55.515625 72.90625 
L 65.375 72.90625 
L 65.375 0 
L 55.515625 0 
L 55.515625 34.71875 
L 19.671875 34.71875 
L 19.671875 0 
L 9.8125 0 
z
" id="DejaVuSans-72"/>
      <path d="M 30.609375 48.390625 
Q 23.390625 48.390625 19.1875 42.75 
Q 14.984375 37.109375 14.984375 27.296875 
Q 14.984375 17.484375 19.15625 11.84375 
Q 23.34375 6.203125 30.609375 6.203125 
Q 37.796875 6.203125 41.984375 11.859375 
Q 46.1875 17.53125 46.1875 27.296875 
Q 46.1875 37.015625 41.984375 42.703125 
Q 37.796875 48.390625 30.609375 48.390625 
z
M 30.609375 56 
Q 42.328125 56 49.015625 48.375 
Q 55.71875 40.765625 55.71875 27.296875 
Q 55.71875 13.875 49.015625 6.21875 
Q 42.328125 -1.421875 30.609375 -1.421875 
Q 18.84375 -1.421875 12.171875 6.21875 
Q 5.515625 13.875 5.515625 27.296875 
Q 5.515625 40.765625 12.171875 48.375 
Q 18.84375 56 30.609375 56 
z
" id="DejaVuSans-111"/>
      <path d="M 8.5 21.578125 
L 8.5 54.6875 
L 17.484375 54.6875 
L 17.484375 21.921875 
Q 17.484375 14.15625 20.5 10.265625 
Q 23.53125 6.390625 29.59375 6.390625 
Q 36.859375 6.390625 41.078125 11.03125 
Q 45.3125 15.671875 45.3125 23.6875 
L 45.3125 54.6875 
L 54.296875 54.6875 
L 54.296875 0 
L 45.3125 0 
L 45.3125 8.40625 
Q 42.046875 3.421875 37.71875 1 
Q 33.40625 -1.421875 27.6875 -1.421875 
Q 18.265625 -1.421875 13.375 4.4375 
Q 8.5 10.296875 8.5 21.578125 
z
M 31.109375 56 
z
" id="DejaVuSans-117"/>
      <path d="M 41.109375 46.296875 
Q 39.59375 47.171875 37.8125 47.578125 
Q 36.03125 48 33.890625 48 
Q 26.265625 48 22.1875 43.046875 
Q 18.109375 38.09375 18.109375 28.8125 
L 18.109375 0 
L 9.078125 0 
L 9.078125 54.6875 
L 18.109375 54.6875 
L 18.109375 46.1875 
Q 20.953125 51.171875 25.484375 53.578125 
Q 30.03125 56 36.53125 56 
Q 37.453125 56 38.578125 55.875 
Q 39.703125 55.765625 41.0625 55.515625 
z
" id="DejaVuSans-114"/>
      <path d="M 44.28125 53.078125 
L 44.28125 44.578125 
Q 40.484375 46.53125 36.375 47.5 
Q 32.28125 48.484375 27.875 48.484375 
Q 21.1875 48.484375 17.84375 46.4375 
Q 14.5 44.390625 14.5 40.28125 
Q 14.5 37.15625 16.890625 35.375 
Q 19.28125 33.59375 26.515625 31.984375 
L 29.59375 31.296875 
Q 39.15625 29.25 43.1875 25.515625 
Q 47.21875 21.78125 47.21875 15.09375 
Q 47.21875 7.46875 41.1875 3.015625 
Q 35.15625 -1.421875 24.609375 -1.421875 
Q 20.21875 -1.421875 15.453125 -0.5625 
Q 10.6875 0.296875 5.421875 2 
L 5.421875 11.28125 
Q 10.40625 8.6875 15.234375 7.390625 
Q 20.0625 6.109375 24.8125 6.109375 
Q 31.15625 6.109375 34.5625 8.28125 
Q 37.984375 10.453125 37.984375 14.40625 
Q 37.984375 18.0625 35.515625 20.015625 
Q 33.0625 21.96875 24.703125 23.78125 
L 21.578125 24.515625 
Q 13.234375 26.265625 9.515625 29.90625 
Q 5.8125 33.546875 5.8125 39.890625 
Q 5.8125 47.609375 11.28125 51.796875 
Q 16.75 56 26.8125 56 
Q 31.78125 56 36.171875 55.265625 
Q 40.578125 54.546875 44.28125 53.078125 
z
" id="DejaVuSans-115"/>
     </defs>
     <g transform="translate(221.511562 335.860562)scale(0.1 -0.1)">
      <use xlink:href="#DejaVuSans-72"/>
      <use x="75.195312" xlink:href="#DejaVuSans-111"/>
      <use x="136.376953" xlink:href="#DejaVuSans-117"/>
      <use x="199.755859" xlink:href="#DejaVuSans-114"/>
      <use x="240.869141" xlink:href="#DejaVuSans-115"/>
     </g>
    </g>
   </g>
   <g id="matplotlib.axis_2">
    <g id="ytick_1">
     <g id="line2d_15">
      <path clip-path="url(#pea0a877036)" d="M 57.6 297.802802 
L 414.72 297.802802 
" style="fill:none;stroke:#b0b0b0;stroke-linecap:square;stroke-width:0.8;"/>
     </g>
     <g id="line2d_16">
      <defs>
       <path d="M 0 0 
L -3.5 0 
" id="m869c0f22d1" style="stroke:#000000;stroke-width:0.8;"/>
      </defs>
      <g>
       <use style="stroke:#000000;stroke-width:0.8;" x="57.6" xlink:href="#m869c0f22d1" y="297.802802"/>
      </g>
     </g>
     <g id="text_9">
      <!-- 0.0 -->
      <defs>
       <path d="M 10.6875 12.40625 
L 21 12.40625 
L 21 0 
L 10.6875 0 
z
" id="DejaVuSans-46"/>
      </defs>
      <g transform="translate(34.696875 301.602021)scale(0.1 -0.1)">
       <use xlink:href="#DejaVuSans-48"/>
       <use x="63.623047" xlink:href="#DejaVuSans-46"/>
       <use x="95.410156" xlink:href="#DejaVuSans-48"/>
      </g>
     </g>
    </g>
    <g id="ytick_2">
     <g id="line2d_17">
      <path clip-path="url(#pea0a877036)" d="M 57.6 266.920316 
L 414.72 266.920316 
" style="fill:none;stroke:#b0b0b0;stroke-linecap:square;stroke-width:0.8;"/>
     </g>
     <g id="line2d_18">
      <g>
       <use style="stroke:#000000;stroke-width:0.8;" x="57.6" xlink:href="#m869c0f22d1" y="266.920316"/>
      </g>
     </g>
     <g id="text_10">
      <!-- 2.5 -->
      <defs>
       <path d="M 10.796875 72.90625 
L 49.515625 72.90625 
L 49.515625 64.59375 
L 19.828125 64.59375 
L 19.828125 46.734375 
Q 21.96875 47.46875 24.109375 47.828125 
Q 26.265625 48.1875 28.421875 48.1875 
Q 40.625 48.1875 47.75 41.5 
Q 54.890625 34.8125 54.890625 23.390625 
Q 54.890625 11.625 47.5625 5.09375 
Q 40.234375 -1.421875 26.90625 -1.421875 
Q 22.3125 -1.421875 17.546875 -0.640625 
Q 12.796875 0.140625 7.71875 1.703125 
L 7.71875 11.625 
Q 12.109375 9.234375 16.796875 8.0625 
Q 21.484375 6.890625 26.703125 6.890625 
Q 35.15625 6.890625 40.078125 11.328125 
Q 45.015625 15.765625 45.015625 23.390625 
Q 45.015625 31 40.078125 35.4375 
Q 35.15625 39.890625 26.703125 39.890625 
Q 22.75 39.890625 18.8125 39.015625 
Q 14.890625 38.140625 10.796875 36.28125 
z
" id="DejaVuSans-53"/>
      </defs>
      <g transform="translate(34.696875 270.719534)scale(0.1 -0.1)">
       <use xlink:href="#DejaVuSans-50"/>
       <use x="63.623047" xlink:href="#DejaVuSans-46"/>
       <use x="95.410156" xlink:href="#DejaVuSans-53"/>
      </g>
     </g>
    </g>
    <g id="ytick_3">
     <g id="line2d_19">
      <path clip-path="url(#pea0a877036)" d="M 57.6 236.037829 
L 414.72 236.037829 
" style="fill:none;stroke:#b0b0b0;stroke-linecap:square;stroke-width:0.8;"/>
     </g>
     <g id="line2d_20">
      <g>
       <use style="stroke:#000000;stroke-width:0.8;" x="57.6" xlink:href="#m869c0f22d1" y="236.037829"/>
      </g>
     </g>
     <g id="text_11">
      <!-- 5.0 -->
      <g transform="translate(34.696875 239.837048)scale(0.1 -0.1)">
       <use xlink:href="#DejaVuSans-53"/>
       <use x="63.623047" xlink:href="#DejaVuSans-46"/>
       <use x="95.410156" xlink:href="#DejaVuSans-48"/>
      </g>
     </g>
    </g>
    <g id="ytick_4">
     <g id="line2d_21">
      <path clip-path="url(#pea0a877036)" d="M 57.6 205.155342 
L 414.72 205.155342 
" style="fill:none;stroke:#b0b0b0;stroke-linecap:square;stroke-width:0.8;"/>
     </g>
     <g id="line2d_22">
      <g>
       <use style="stroke:#000000;stroke-width:0.8;" x="57.6" xlink:href="#m869c0f22d1" y="205.155342"/>
      </g>
     </g>
     <g id="text_12">
      <!-- 7.5 -->
      <defs>
       <path d="M 8.203125 72.90625 
L 55.078125 72.90625 
L 55.078125 68.703125 
L 28.609375 0 
L 18.3125 0 
L 43.21875 64.59375 
L 8.203125 64.59375 
z
" id="DejaVuSans-55"/>
      </defs>
      <g transform="translate(34.696875 208.954561)scale(0.1 -0.1)">
       <use xlink:href="#DejaVuSans-55"/>
       <use x="63.623047" xlink:href="#DejaVuSans-46"/>
       <use x="95.410156" xlink:href="#DejaVuSans-53"/>
      </g>
     </g>
    </g>
    <g id="ytick_5">
     <g id="line2d_23">
      <path clip-path="url(#pea0a877036)" d="M 57.6 174.272856 
L 414.72 174.272856 
" style="fill:none;stroke:#b0b0b0;stroke-linecap:square;stroke-width:0.8;"/>
     </g>
     <g id="line2d_24">
      <g>
       <use style="stroke:#000000;stroke-width:0.8;" x="57.6" xlink:href="#m869c0f22d1" y="174.272856"/>
      </g>
     </g>
     <g id="text_13">
      <!-- 10.0 -->
      <g transform="translate(28.334375 178.072075)scale(0.1 -0.1)">
       <use xlink:href="#DejaVuSans-49"/>
       <use x="63.623047" xlink:href="#DejaVuSans-48"/>
       <use x="127.246094" xlink:href="#DejaVuSans-46"/>
       <use x="159.033203" xlink:href="#DejaVuSans-48"/>
      </g>
     </g>
    </g>
    <g id="ytick_6">
     <g id="line2d_25">
      <path clip-path="url(#pea0a877036)" d="M 57.6 143.390369 
L 414.72 143.390369 
" style="fill:none;stroke:#b0b0b0;stroke-linecap:square;stroke-width:0.8;"/>
     </g>
     <g id="line2d_26">
      <g>
       <use style="stroke:#000000;stroke-width:0.8;" x="57.6" xlink:href="#m869c0f22d1" y="143.390369"/>
      </g>
     </g>
     <g id="text_14">
      <!-- 12.5 -->
      <g transform="translate(28.334375 147.189588)scale(0.1 -0.1)">
       <use xlink:href="#DejaVuSans-49"/>
       <use x="63.623047" xlink:href="#DejaVuSans-50"/>
       <use x="127.246094" xlink:href="#DejaVuSans-46"/>
       <use x="159.033203" xlink:href="#DejaVuSans-53"/>
      </g>
     </g>
    </g>
    <g id="ytick_7">
     <g id="line2d_27">
      <path clip-path="url(#pea0a877036)" d="M 57.6 112.507883 
L 414.72 112.507883 
" style="fill:none;stroke:#b0b0b0;stroke-linecap:square;stroke-width:0.8;"/>
     </g>
     <g id="line2d_28">
      <g>
       <use style="stroke:#000000;stroke-width:0.8;" x="57.6" xlink:href="#m869c0f22d1" y="112.507883"/>
      </g>
     </g>
     <g id="text_15">
      <!-- 15.0 -->
      <g transform="translate(28.334375 116.307101)scale(0.1 -0.1)">
       <use xlink:href="#DejaVuSans-49"/>
       <use x="63.623047" xlink:href="#DejaVuSans-53"/>
       <use x="127.246094" xlink:href="#DejaVuSans-46"/>
       <use x="159.033203" xlink:href="#DejaVuSans-48"/>
      </g>
     </g>
    </g>
    <g id="ytick_8">
     <g id="line2d_29">
      <path clip-path="url(#pea0a877036)" d="M 57.6 81.625396 
L 414.72 81.625396 
" style="fill:none;stroke:#b0b0b0;stroke-linecap:square;stroke-width:0.8;"/>
     </g>
     <g id="line2d_30">
      <g>
       <use style="stroke:#000000;stroke-width:0.8;" x="57.6" xlink:href="#m869c0f22d1" y="81.625396"/>
      </g>
     </g>
     <g id="text_16">
      <!-- 17.5 -->
      <g transform="translate(28.334375 85.424615)scale(0.1 -0.1)">
       <use xlink:href="#DejaVuSans-49"/>
       <use x="63.623047" xlink:href="#DejaVuSans-55"/>
       <use x="127.246094" xlink:href="#DejaVuSans-46"/>
       <use x="159.033203" xlink:href="#DejaVuSans-53"/>
      </g>
     </g>
    </g>
    <g id="ytick_9">
     <g id="line2d_31">
      <path clip-path="url(#pea0a877036)" d="M 57.6 50.742909 
L 414.72 50.742909 
" style="fill:none;stroke:#b0b0b0;stroke-linecap:square;stroke-width:0.8;"/>
     </g>
     <g id="line2d_32">
      <g>
       <use style="stroke:#000000;stroke-width:0.8;" x="57.6" xlink:href="#m869c0f22d1" y="50.742909"/>
      </g>
     </g>
     <g id="text_17">
      <!-- 20.0 -->
      <g transform="translate(28.334375 54.542128)scale(0.1 -0.1)">
       <use xlink:href="#DejaVuSans-50"/>
       <use x="63.623047" xlink:href="#DejaVuSans-48"/>
       <use x="127.246094" xlink:href="#DejaVuSans-46"/>
       <use x="159.033203" xlink:href="#DejaVuSans-48"/>
      </g>
     </g>
    </g>
    <g id="text_18">
     <!-- Reward -->
     <defs>
      <path d="M 44.390625 34.1875 
Q 47.5625 33.109375 50.5625 29.59375 
Q 53.5625 26.078125 56.59375 19.921875 
L 66.609375 0 
L 56 0 
L 46.6875 18.703125 
Q 43.0625 26.03125 39.671875 28.421875 
Q 36.28125 30.8125 30.421875 30.8125 
L 19.671875 30.8125 
L 19.671875 0 
L 9.8125 0 
L 9.8125 72.90625 
L 32.078125 72.90625 
Q 44.578125 72.90625 50.734375 67.671875 
Q 56.890625 62.453125 56.890625 51.90625 
Q 56.890625 45.015625 53.6875 40.46875 
Q 50.484375 35.9375 44.390625 34.1875 
z
M 19.671875 64.796875 
L 19.671875 38.921875 
L 32.078125 38.921875 
Q 39.203125 38.921875 42.84375 42.21875 
Q 46.484375 45.515625 46.484375 51.90625 
Q 46.484375 58.296875 42.84375 61.546875 
Q 39.203125 64.796875 32.078125 64.796875 
z
" id="DejaVuSans-82"/>
      <path d="M 56.203125 29.59375 
L 56.203125 25.203125 
L 14.890625 25.203125 
Q 15.484375 15.921875 20.484375 11.0625 
Q 25.484375 6.203125 34.421875 6.203125 
Q 39.59375 6.203125 44.453125 7.46875 
Q 49.3125 8.734375 54.109375 11.28125 
L 54.109375 2.78125 
Q 49.265625 0.734375 44.1875 -0.34375 
Q 39.109375 -1.421875 33.890625 -1.421875 
Q 20.796875 -1.421875 13.15625 6.1875 
Q 5.515625 13.8125 5.515625 26.8125 
Q 5.515625 40.234375 12.765625 48.109375 
Q 20.015625 56 32.328125 56 
Q 43.359375 56 49.78125 48.890625 
Q 56.203125 41.796875 56.203125 29.59375 
z
M 47.21875 32.234375 
Q 47.125 39.59375 43.09375 43.984375 
Q 39.0625 48.390625 32.421875 48.390625 
Q 24.90625 48.390625 20.390625 44.140625 
Q 15.875 39.890625 15.1875 32.171875 
z
" id="DejaVuSans-101"/>
      <path d="M 4.203125 54.6875 
L 13.1875 54.6875 
L 24.421875 12.015625 
L 35.59375 54.6875 
L 46.1875 54.6875 
L 57.421875 12.015625 
L 68.609375 54.6875 
L 77.59375 54.6875 
L 63.28125 0 
L 52.6875 0 
L 40.921875 44.828125 
L 29.109375 0 
L 18.5 0 
z
" id="DejaVuSans-119"/>
      <path d="M 34.28125 27.484375 
Q 23.390625 27.484375 19.1875 25 
Q 14.984375 22.515625 14.984375 16.5 
Q 14.984375 11.71875 18.140625 8.90625 
Q 21.296875 6.109375 26.703125 6.109375 
Q 34.1875 6.109375 38.703125 11.40625 
Q 43.21875 16.703125 43.21875 25.484375 
L 43.21875 27.484375 
z
M 52.203125 31.203125 
L 52.203125 0 
L 43.21875 0 
L 43.21875 8.296875 
Q 40.140625 3.328125 35.546875 0.953125 
Q 30.953125 -1.421875 24.3125 -1.421875 
Q 15.921875 -1.421875 10.953125 3.296875 
Q 6 8.015625 6 15.921875 
Q 6 25.140625 12.171875 29.828125 
Q 18.359375 34.515625 30.609375 34.515625 
L 43.21875 34.515625 
L 43.21875 35.40625 
Q 43.21875 41.609375 39.140625 45 
Q 35.0625 48.390625 27.6875 48.390625 
Q 23 48.390625 18.546875 47.265625 
Q 14.109375 46.140625 10.015625 43.890625 
L 10.015625 52.203125 
Q 14.9375 54.109375 19.578125 55.046875 
Q 24.21875 56 28.609375 56 
Q 40.484375 56 46.34375 49.84375 
Q 52.203125 43.703125 52.203125 31.203125 
z
" id="DejaVuSans-97"/>
      <path d="M 45.40625 46.390625 
L 45.40625 75.984375 
L 54.390625 75.984375 
L 54.390625 0 
L 45.40625 0 
L 45.40625 8.203125 
Q 42.578125 3.328125 38.25 0.953125 
Q 33.9375 -1.421875 27.875 -1.421875 
Q 17.96875 -1.421875 11.734375 6.484375 
Q 5.515625 14.40625 5.515625 27.296875 
Q 5.515625 40.1875 11.734375 48.09375 
Q 17.96875 56 27.875 56 
Q 33.9375 56 38.25 53.625 
Q 42.578125 51.265625 45.40625 46.390625 
z
M 14.796875 27.296875 
Q 14.796875 17.390625 18.875 11.75 
Q 22.953125 6.109375 30.078125 6.109375 
Q 37.203125 6.109375 41.296875 11.75 
Q 45.40625 17.390625 45.40625 27.296875 
Q 45.40625 37.203125 41.296875 42.84375 
Q 37.203125 48.484375 30.078125 48.484375 
Q 22.953125 48.484375 18.875 42.84375 
Q 14.796875 37.203125 14.796875 27.296875 
z
" id="DejaVuSans-100"/>
     </defs>
     <g transform="translate(22.254687 193.457687)rotate(-90)scale(0.1 -0.1)">
      <use xlink:href="#DejaVuSans-82"/>
      <use x="69.419922" xlink:href="#DejaVuSans-101"/>
      <use x="130.943359" xlink:href="#DejaVuSans-119"/>
      <use x="212.730469" xlink:href="#DejaVuSans-97"/>
      <use x="274.009766" xlink:href="#DejaVuSans-114"/>
      <use x="315.107422" xlink:href="#DejaVuSans-100"/>
     </g>
    </g>
   </g>
   <g id="line2d_33">
    <path clip-path="url(#pea0a877036)" d="M 57.6 295.488 
L 58.090004 267.211432 
L 58.456206 269.428967 
L 58.911652 261.804997 
L 58.934294 262.443448 
L 59.130915 267.162731 
L 59.356933 262.619959 
L 59.410019 263.362861 
L 60.061779 261.640491 
L 60.336164 256.35862 
L 60.426937 256.959225 
L 60.853776 256.478727 
L 61.013823 258.02456 
L 61.135004 255.220907 
L 61.172622 256.706567 
L 61.56873 262.175637 
L 61.666997 260.742755 
L 61.879419 273.469941 
L 61.909789 275.047847 
L 62.320526 263.313785 
L 62.410922 264.464813 
L 62.441328 264.423424 
L 62.616622 260.448752 
L 63.355816 260.165311 
L 63.507796 262.755331 
L 63.545862 262.345386 
L 63.713792 261.274199 
L 63.767188 261.85217 
L 64.098038 255.533624 
L 64.120765 255.607689 
L 64.297451 256.647207 
L 64.343576 259.946772 
L 64.728509 259.594799 
L 64.843412 258.553285 
L 65.672916 263.45175 
L 65.822221 259.985372 
L 66.205407 252.173411 
L 66.244062 254.228622 
L 66.404373 255.362886 
L 66.515491 261.704422 
L 66.706637 260.932443 
L 66.852076 262.838159 
L 67.083884 258.686189 
L 67.260104 260.149772 
L 67.64932 253.349108 
L 67.882491 255.966204 
L 68.292843 249.317473 
L 68.423159 250.820232 
L 68.468635 252.81132 
L 68.605683 250.628106 
L 68.613452 252.675901 
L 68.978045 246.919881 
L 69.385064 237.876578 
L 69.513824 242.70232 
L 69.581825 242.312507 
L 69.72691 237.223242 
L 69.742202 238.591715 
L 69.795 240.14219 
L 70.127678 241.504425 
L 70.280649 244.037742 
L 70.349043 247.857333 
L 70.743419 250.657027 
L 70.994755 251.573309 
L 71.366153 248.1965 
L 71.442064 250.267636 
L 72.053171 259.262653 
L 72.412053 250.144763 
L 72.442237 250.36508 
L 72.646565 243.873849 
L 72.669351 245.92557 
L 72.995925 250.151169 
L 73.102585 246.909485 
L 73.308795 254.985832 
L 73.578707 253.068767 
L 73.578708 253.22227 
L 73.608881 251.805528 
L 73.897477 253.88828 
L 73.973707 259.811241 
L 74.042951 256.565922 
L 74.194818 258.2852 
L 74.293076 253.480696 
L 74.323576 254.641699 
L 74.557562 250.291604 
L 74.710708 251.204637 
L 75.734067 249.329604 
L 76.184159 254.829392 
L 76.433249 255.18085 
L 77.207034 252.195556 
L 77.840052 241.766181 
L 78.189226 245.163545 
L 78.448942 238.988856 
L 78.479018 239.081941 
L 78.922973 245.029132 
L 79.478636 239.036998 
L 79.773692 239.361522 
L 79.973163 253.620822 
L 80.141066 249.175297 
L 80.640692 243.559586 
L 81.2052 247.828158 
L 81.417101 251.252202 
L 81.613084 246.69792 
L 81.736478 248.112162 
L 82.037648 242.80913 
L 83.019144 249.804073 
L 83.026972 250.973526 
L 83.389584 248.696696 
L 83.808415 247.792086 
L 83.951885 243.54069 
L 84.51132 245.020927 
L 84.556467 246.652017 
L 84.805971 255.630423 
L 85.255258 254.483265 
L 85.53941 242.925942 
L 85.759696 245.445405 
L 86.202797 241.351299 
L 86.218159 242.486991 
L 86.721924 241.183135 
L 86.827174 238.320046 
L 87.504752 234.521201 
L 87.611212 236.95708 
L 87.672134 236.848815 
L 87.998511 230.055072 
L 88.277882 236.709337 
L 88.597217 240.679756 
L 88.689862 246.049155 
L 89.337018 246.60672 
L 89.626262 243.937194 
L 90.178786 236.042842 
L 90.324066 237.751543 
L 90.469347 241.922482 
L 91.346056 241.391595 
L 91.66813 241.746254 
L 91.721825 247.816601 
L 92.366443 241.393374 
L 92.6971 242.528707 
L 92.835136 239.928776 
L 93.132913 246.772799 
L 93.232549 246.504605 
L 93.607469 238.402423 
L 94.168075 240.51277 
L 94.259868 243.047884 
L 94.940017 241.140672 
L 95.354763 242.878777 
L 95.536923 248.830166 
L 96.186735 235.733109 
L 96.535395 236.601443 
L 97.298991 240.939404 
L 97.525642 245.018553 
L 98.033645 245.802944 
L 98.236295 242.512544 
L 98.934131 234.458863 
L 98.949222 234.758565 
L 99.167976 241.406722 
L 99.479235 240.9412 
L 100.127511 241.038615 
L 100.157763 242.108636 
L 100.360927 230.838243 
L 100.742281 233.878886 
L 100.76522 233.729341 
L 101.516173 237.805045 
L 101.712166 232.249281 
L 101.988369 239.41811 
L 102.010904 237.569654 
L 102.116588 231.387826 
L 102.50954 225.492535 
L 102.868025 236.859653 
L 103.23074 233.321734 
L 103.473832 226.364869 
L 103.518847 228.500198 
L 104.551444 233.093841 
L 104.672888 230.134886 
L 105.154083 230.001752 
L 105.358125 228.094557 
L 105.782534 214.508014 
L 106.421575 219.784952 
L 106.693828 222.752537 
L 106.964504 220.191517 
L 107.333465 223.326011 
L 107.583478 223.84593 
L 108.543211 245.951034 
L 108.974812 245.300301 
L 109.04271 246.69808 
L 109.23114 240.446392 
L 109.668197 241.0059 
L 109.735967 241.491514 
L 110.000862 240.666161 
L 110.016126 242.079225 
L 110.167249 234.434006 
L 110.456949 230.193319 
L 110.487336 231.829168 
L 111.594714 221.51242 
L 111.783237 229.259154 
L 112.844733 220.350162 
L 113.116045 219.915253 
L 113.387667 216.327802 
L 114.313797 229.284995 
L 114.351797 235.321119 
L 114.856551 219.757821 
L 115.457368 226.535448 
L 115.684706 237.732641 
L 116.417318 222.263724 
L 116.587076 223.759289 
L 116.851681 231.097643 
L 117.364113 218.135037 
L 117.865374 223.710717 
L 117.978049 223.209111 
L 118.023264 220.32633 
L 118.196214 217.856835 
L 118.567694 217.732348 
L 119.527486 232.579312 
L 119.919161 227.245485 
L 120.070874 228.562853 
L 120.343515 225.755104 
L 120.396199 226.795543 
L 121.089082 226.273091 
L 121.338367 230.971283 
L 121.466378 225.79011 
L 121.918222 214.584701 
L 122.663564 215.677157 
L 122.953132 227.227325 
L 123.506042 225.213243 
L 123.900188 232.40339 
L 123.975955 236.273367 
L 124.144066 232.027773 
L 125.250146 229.576032 
L 125.302832 227.220185 
L 125.611365 226.643548 
L 125.671971 225.565069 
L 126.41427 219.438634 
L 126.921642 217.006266 
L 126.996916 214.404167 
L 127.239288 217.173941 
L 127.313372 215.652294 
L 127.388406 220.087316 
L 128.414575 214.619466 
L 128.768283 227.473701 
L 129.291983 236.232947 
L 129.632829 230.595106 
L 130.051208 227.480216 
L 130.516294 225.693167 
L 130.57723 224.469349 
L 131.992435 209.556448 
L 132.396341 236.137747 
L 132.449548 235.841915 
L 132.646556 229.557548 
L 132.68464 230.834462 
L 132.912522 225.19837 
L 133.02394 219.139916 
L 133.318783 210.895764 
L 133.500682 212.060873 
L 133.751547 215.89387 
L 133.881394 213.60948 
L 134.304988 224.737325 
L 134.38929 224.305066 
L 136.174129 222.908095 
L 136.257116 221.974979 
L 136.533916 223.028547 
L 136.972212 236.884139 
L 137.293711 230.026886 
L 137.487144 228.3506 
L 137.901428 223.302944 
L 137.924387 223.858459 
L 138.165781 227.777025 
L 138.355971 234.77917 
L 139.027675 224.113412 
L 139.133629 219.190537 
L 139.285428 224.439043 
L 139.524329 211.327846 
L 139.866226 212.158682 
L 140.152018 211.24931 
L 140.348939 214.266279 
L 140.522951 210.518845 
L 141.217839 200.357986 
L 141.847096 213.743857 
L 141.877166 211.887019 
L 142.303463 196.919219 
L 142.547344 198.118557 
L 143.217864 192.70002 
L 144.032703 200.93407 
L 144.062872 204.255188 
L 144.093477 204.003599 
L 144.389447 195.544325 
L 144.84581 188.754617 
L 145.004523 190.22649 
L 145.264125 188.027652 
L 145.45342 184.018562 
L 146.166412 192.635839 
L 146.45253 175.004922 
L 146.498023 185.735522 
L 147.824325 168.508366 
L 148.09487 163.275435 
L 148.170769 159.46346 
L 148.74112 172.827042 
L 148.854108 172.413503 
L 149.176703 186.717493 
L 149.485888 188.421658 
L 149.493584 190.115162 
L 150.039785 193.023519 
L 150.196919 199.746024 
L 150.340182 199.362791 
L 150.756531 173.690322 
L 151.170782 182.340856 
L 151.675189 186.729285 
L 151.690212 184.750735 
L 151.968603 173.131798 
L 152.037099 174.82476 
L 152.378549 165.651197 
L 152.612079 181.484762 
L 152.727419 175.51544 
L 152.862725 179.387061 
L 153.381081 155.91032 
L 153.856581 152.156873 
L 154.098248 165.918631 
L 154.203094 159.747176 
L 154.693091 157.93974 
L 154.791216 152.310788 
L 154.949772 155.462464 
L 154.995155 160.475802 
L 155.757265 156.005049 
L 155.976134 161.162808 
L 156.091132 159.257639 
L 156.642948 161.352301 
L 156.972579 141.68856 
L 157.003514 145.008571 
L 157.799757 148.168929 
L 157.983418 142.064836 
L 159.177939 136.147621 
L 160.479477 157.988984 
L 160.751375 147.228626 
L 161.135037 155.477708 
L 161.482386 147.541864 
L 161.565356 152.003323 
L 161.690662 148.754326 
L 161.985326 169.804294 
L 162.467135 157.93967 
L 162.640957 147.053459 
L 163.188026 136.71292 
L 163.631914 146.193583 
L 164.098886 139.865515 
L 164.430985 140.762959 
L 165.005034 138.657565 
L 165.540882 142.914003 
L 166.998835 109.649052 
L 167.173553 116.670016 
L 167.385203 120.462046 
L 167.460917 126.911809 
L 167.688825 135.666166 
L 167.878229 128.945658 
L 169.142617 138.325573 
L 169.358249 130.027318 
L 169.509026 131.28947 
L 169.569956 129.617973 
L 169.781187 129.76489 
L 170.185902 139.200257 
L 170.32205 129.993602 
L 171.088123 156.681358 
L 171.13315 154.75165 
L 171.328634 151.644163 
L 172.589342 114.452022 
L 172.687288 123.676124 
L 173.476059 114.551498 
L 173.766584 122.383059 
L 174.722093 127.165318 
L 175.652478 133.053494 
L 176.328379 110.803847 
L 176.697157 115.538983 
L 177.561014 112.096417 
L 177.795319 109.438424 
L 178.201246 120.049661 
L 178.616875 116.136584 
L 178.963271 119.959715 
L 179.008784 127.964959 
L 179.197897 121.046393 
L 180.401112 109.041496 
L 181.253127 107.671562 
L 181.509295 107.586493 
L 181.944472 95.294369 
L 182.087277 94.626072 
L 182.456346 89.131066 
L 182.694486 90.226981 
L 182.747069 93.04227 
L 183.016794 88.799769 
L 183.962678 101.131322 
L 184.136037 101.698624 
L 184.151197 101.173627 
L 184.211523 102.160852 
L 184.602346 105.765757 
L 185.694809 104.211984 
L 186.154813 117.223828 
L 186.93468 108.425104 
L 187.002219 105.148234 
L 188.053208 95.915567 
L 188.472856 105.845124 
L 189.095824 99.91614 
L 189.852946 104.749704 
L 190.033928 114.384777 
L 190.153018 113.606554 
L 190.236104 115.352765 
L 191.003224 109.577119 
L 191.041183 110.238148 
L 191.65656 99.723666 
L 192.01628 106.040248 
L 192.106548 111.357718 
L 192.4155 112.714858 
L 192.97093 93.692354 
L 193.478097 96.803552 
L 193.816613 103.252997 
L 194.033755 111.558803 
L 194.754016 114.177672 
L 195.016726 121.912466 
L 195.224504 112.020726 
L 195.315451 111.856703 
L 195.647216 103.553983 
L 196.867025 96.254004 
L 199.042731 90.852609 
L 199.504971 84.430742 
L 200.085081 91.341509 
L 200.340615 85.02435 
L 200.606585 83.681299 
L 200.873845 89.092755 
L 201.790927 85.628584 
L 202.428516 114.762409 
L 203.133177 99.826182 
L 204.188665 89.076286 
L 204.226065 90.221515 
L 205.572281 85.695215 
L 206.023273 82.846728 
L 206.135969 90.843537 
L 206.209359 88.214596 
L 206.291551 90.007953 
L 207.131873 103.471801 
L 207.664815 88.543985 
L 207.800047 103.219905 
L 208.056382 97.607846 
L 208.582092 103.490084 
L 208.986335 102.419098 
L 209.183105 123.796559 
L 210.053167 102.076997 
L 211.270508 83.878815 
L 212.145074 111.128783 
L 212.758176 106.45116 
L 213.533256 86.357858 
L 213.814323 94.9581 
L 214.835442 89.424289 
L 216.042582 70.308588 
L 216.14189 67.372499 
L 217.422432 76.377857 
L 217.834003 88.741053 
L 218.104127 83.750381 
L 218.126897 87.048492 
L 218.637456 79.328883 
L 219.116391 82.373543 
L 219.984353 93.559114 
L 222.154106 89.404803 
L 222.495053 91.352065 
L 222.639105 88.214808 
L 222.721091 92.696458 
L 223.443779 84.214519 
L 223.481306 84.861092 
L 224.053935 89.782565 
L 226.084503 79.715857 
L 226.182274 77.638937 
L 227.166885 78.00864 
L 228.150844 63.724453 
L 229.02774 82.562059 
L 229.244222 78.133563 
L 229.45523 79.211995 
L 231.515457 76.840439 
L 232.101603 84.25594 
L 232.85463 69.974227 
L 233.357629 84.895516 
L 234.374862 83.93376 
L 235.248457 79.034766 
L 235.657382 77.71947 
L 235.738787 77.881031 
L 236.829928 79.346531 
L 236.897894 77.13074 
L 237.410053 71.716762 
L 238.18847 75.026465 
L 239.210954 69.597408 
L 239.614989 71.852052 
L 239.735281 77.107108 
L 239.961025 76.073537 
L 240.583793 83.385838 
L 240.980977 82.511543 
L 243.250538 67.02631 
L 243.662318 87.993896 
L 244.567402 75.060629 
L 245.167424 78.577862 
L 245.318241 77.416752 
L 245.874547 83.169026 
L 246.002369 81.294546 
L 246.199431 85.18313 
L 246.387143 78.269159 
L 246.65691 80.979341 
L 246.694632 80.271177 
L 247.041748 82.415977 
L 247.130917 80.355857 
L 247.43178 76.503863 
L 247.98931 77.604679 
L 248.253832 73.896222 
L 248.480336 75.485419 
L 248.758952 90.617253 
L 248.924394 84.08248 
L 249.186511 89.830536 
L 249.954071 83.180924 
L 250.067064 84.833855 
L 250.547629 85.857413 
L 251.108635 75.670541 
L 251.222543 84.100976 
L 251.425563 79.991385 
L 251.817545 78.951052 
L 251.982843 75.774754 
L 252.298365 75.948472 
L 252.525419 72.658867 
L 253.110771 68.822024 
L 253.407821 72.296351 
L 254.18263 71.91621 
L 254.287913 69.489709 
L 254.693453 77.625978 
L 255.274271 77.239547 
L 256.98046 84.170011 
L 257.117564 81.977027 
L 257.368662 85.245003 
L 257.414613 84.416912 
L 257.560463 82.403938 
L 258.032932 73.432013 
L 258.536808 86.943266 
L 258.551802 86.713377 
L 258.743303 84.13382 
L 259.329915 90.519072 
L 259.712103 88.068868 
L 259.993152 78.990258 
L 260.652456 87.685005 
L 261.832722 72.994807 
L 262.644204 80.064355 
L 263.320958 78.009158 
L 264.735125 78.249603 
L 264.750391 77.699466 
L 266.280908 67.126894 
L 266.966091 79.49518 
L 267.889185 79.341583 
L 268.858794 73.584621 
L 268.971138 70.097924 
L 269.450129 62.649037 
L 270.044499 64.198392 
L 270.285341 84.40777 
L 270.922405 79.777988 
L 271.634092 82.03447 
L 272.280097 70.477665 
L 272.662491 76.406884 
L 272.949904 76.311508 
L 273.032255 74.576394 
L 273.383792 79.963299 
L 273.54189 78.278937 
L 273.713524 82.421656 
L 274.05393 72.635518 
L 274.816494 68.49737 
L 275.154911 70.049482 
L 275.737397 71.859757 
L 275.979879 73.135728 
L 276.880594 74.088507 
L 277.581993 73.233296 
L 277.63517 77.628122 
L 278.042723 68.713099 
L 278.448266 71.909283 
L 281.526238 80.646888 
L 281.624053 77.233138 
L 281.983174 77.364022 
L 282.396889 66.898089 
L 282.635965 65.376654 
L 283.243612 74.645217 
L 283.342087 73.104014 
L 283.709675 77.494788 
L 283.866172 72.603851 
L 284.591874 73.463067 
L 284.697327 74.219508 
L 284.862866 69.244811 
L 286.122904 86.619602 
L 286.490915 80.417211 
L 287.592984 73.658109 
L 287.934056 75.962091 
L 288.457119 72.155076 
L 288.586511 72.030978 
L 288.738278 68.510329 
L 288.836715 70.880024 
L 289.488327 69.109427 
L 289.933732 63.860686 
L 291.130594 67.908829 
L 291.182957 66.652272 
L 291.911519 62.591641 
L 292.405547 62.930243 
L 292.895088 84.571899 
L 293.57805 70.531856 
L 293.817938 71.814071 
L 294.064486 69.733099 
L 294.214779 66.786125 
L 294.245087 67.366349 
L 294.865696 66.205994 
L 295.008395 70.187882 
L 295.239256 67.271232 
L 295.911074 68.584053 
L 296.268537 65.225389 
L 296.660017 59.390227 
L 297.343283 58.819286 
L 297.562774 64.778711 
L 297.888308 62.563533 
L 297.903399 62.574182 
L 297.942501 63.079081 
L 298.208065 59.208757 
L 299.965108 73.370212 
L 299.980019 72.917667 
L 300.252789 70.54022 
L 300.321187 68.53349 
L 301.460866 57.254781 
L 301.505564 58.576838 
L 301.520704 58.173089 
L 302.139924 64.091423 
L 302.297251 62.863776 
L 302.68297 62.613601 
L 303.142484 86.677823 
L 303.526956 81.909052 
L 303.541992 82.026907 
L 304.137879 70.564536 
L 304.724528 72.541366 
L 305.376476 65.106545 
L 305.472911 67.495772 
L 305.495671 76.622048 
L 305.984369 70.50469 
L 306.133637 70.676029 
L 306.193956 71.715184 
L 307.149089 80.046236 
L 308.176952 71.306463 
L 308.523827 74.751173 
L 308.778224 71.073086 
L 309.857544 66.456429 
L 309.902706 67.948695 
L 309.985647 66.547565 
L 311.0282 71.667519 
L 311.327896 68.026377 
L 312.504566 69.026561 
L 313.063583 88.879548 
L 313.079032 87.86975 
L 314.119595 64.654377 
L 314.30074 74.917328 
L 314.491312 68.972016 
L 315.613021 64.515082 
L 315.819915 66.932159 
L 316.276469 70.354014 
L 316.291522 69.96181 
L 316.934847 71.652463 
L 317.307733 74.540981 
L 317.40524 72.302972 
L 317.831502 65.694192 
L 318.227674 77.153241 
L 319.128219 81.304489 
L 320.057037 72.245034 
L 320.492409 87.14679 
L 320.597604 85.987684 
L 321.931972 68.791724 
L 323.9336 67.411658 
L 324.548167 65.816052 
L 324.982904 62.274763 
L 325.101615 63.448407 
L 325.327241 72.674182 
L 325.454896 68.250847 
L 326.100943 73.676464 
L 327.192835 65.771026 
L 327.238229 67.511912 
L 327.778692 70.245349 
L 327.906946 65.943095 
L 328.492567 57.707962 
L 329.062173 66.607505 
L 330.577639 56.661126 
L 330.796274 63.609662 
L 332.505935 61.640983 
L 332.619407 60.659837 
L 332.821712 57.409155 
L 333.620972 59.107207 
L 333.651077 60.752457 
L 333.832013 59.880848 
L 333.84716 60.439254 
L 333.913814 68.027578 
L 335.261256 71.227202 
L 335.329687 70.121321 
L 337.698264 59.530229 
L 337.788675 57.968882 
L 338.048959 65.7088 
L 338.474981 58.036338 
L 338.742229 55.198783 
L 338.810882 61.63474 
L 338.879293 60.551807 
L 338.97891 59.162223 
L 339.362844 58.514589 
L 339.520721 61.443208 
L 339.933411 62.260509 
L 339.956205 63.785831 
L 340.106401 60.04328 
L 340.661786 58.249923 
L 341.028225 59.012419 
L 341.590179 58.778948 
L 341.861091 59.684298 
L 342.216064 66.131893 
L 342.524211 60.97099 
L 343.295677 55.11653 
L 345.09437 72.586581 
L 345.902091 60.353868 
L 346.914155 58.521374 
L 347.233432 61.795429 
L 347.418315 60.898302 
L 347.753103 61.257662 
L 348.715981 63.380927 
L 348.925965 60.72284 
L 349.540602 58.401824 
L 350.065439 55.667515 
L 351.446261 56.049612 
L 351.611405 55.122538 
L 352.908876 74.844029 
L 353.774879 65.588142 
L 354.337304 71.351748 
L 354.374849 70.535649 
L 354.803015 75.801237 
L 355.408968 74.15356 
L 356.180687 66.646429 
L 357.013993 61.467901 
L 357.13008 67.243924 
L 357.6098 67.882228 
L 357.925584 70.04305 
L 357.970488 68.670783 
L 358.177004 76.253664 
L 359.077537 68.337812 
L 360.566937 68.940208 
L 361.33824 64.963292 
L 362.306335 60.683964 
L 363.040231 59.518072 
L 363.541213 54.704723 
L 363.883954 60.048205 
L 363.989283 68.538415 
L 364.922272 80.525853 
L 365.889779 63.053847 
L 366.324435 77.661909 
L 366.687585 67.498482 
L 367.206761 68.986506 
L 367.921463 59.530771 
L 368.418732 62.442497 
L 369.043232 62.00317 
L 370.433159 58.007923 
L 370.560859 58.500452 
L 372.01634 57.503731 
L 372.376779 54.409804 
L 373.640024 58.750981 
L 374.585713 68.037262 
L 376.3687 74.869239 
L 376.622804 66.393708 
L 377.411626 68.122837 
L 377.441537 67.192489 
L 378.348103 60.022075 
L 378.889435 57.22064 
L 379.296624 58.839171 
L 380.277199 59.626902 
L 380.712841 65.092644 
L 380.750685 80.393108 
L 381.216487 87.642264 
L 381.779577 74.195994 
L 382.04205 65.174991 
L 382.477961 62.290173 
L 383.116993 63.234657 
L 383.958522 61.748188 
L 384.640631 57.213642 
L 384.882332 54.444345 
L 385.125881 60.548957 
L 385.467001 59.565383 
L 385.618248 57.609451 
L 385.876087 57.83788 
L 385.929381 57.657917 
L 386.831662 78.649206 
L 386.854419 78.091082 
L 387.089632 70.635856 
L 388.587274 62.038772 
L 388.797764 75.680461 
L 389.003467 73.524869 
L 389.179094 72.891231 
L 390.428395 61.971127 
L 390.655809 62.083586 
L 390.816306 62.401901 
L 390.915599 61.983025 
L 391.923672 59.618538 
L 392.601374 57.054956 
L 393.465689 56.810812 
L 395.127406 64.940555 
L 395.758308 56.561437 
L 396.492993 60.090238 
L 396.507946 64.078205 
L 397.116204 71.575158 
L 397.153752 70.7502 
L 397.401738 69.05639 
L 397.610331 65.745108 
L 397.640204 66.38631 
L 399.215504 58.100802 
L 399.718139 59.781324 
L 401.168222 71.547662 
L 401.391501 69.248863 
L 401.564274 68.638551 
L 402.751358 63.445674 
L 402.848775 61.539693 
L 402.999562 68.553729 
L 403.217655 67.260134 
L 404.367185 62.095248 
L 405.003945 63.125427 
L 405.905758 56.538913 
L 406.370412 58.085487 
L 407.669706 56.558209 
L 407.85016 54.092502 
L 407.983899 56.056892 
L 408.704759 74.246416 
L 409.780538 64.839665 
L 410.254742 72.108872 
L 410.398771 76.473281 
L 410.518266 72.368166 
L 410.804556 68.537213 
L 411.753718 55.268384 
L 412.062524 58.072741 
L 412.115603 57.394618 
L 412.453623 58.017253 
L 413.063906 61.021128 
L 413.857331 53.568 
L 414.72 64.863367 
L 414.72 64.863367 
" style="fill:none;stroke:#000000;stroke-linecap:square;stroke-width:0.8;"/>
   </g>
   <g id="patch_3">
    <path d="M 57.6 307.584 
L 57.6 41.472 
" style="fill:none;stroke:#000000;stroke-linecap:square;stroke-linejoin:miter;stroke-width:0.8;"/>
   </g>
   <g id="patch_4">
    <path d="M 414.72 307.584 
L 414.72 41.472 
" style="fill:none;stroke:#000000;stroke-linecap:square;stroke-linejoin:miter;stroke-width:0.8;"/>
   </g>
   <g id="patch_5">
    <path d="M 57.6 307.584 
L 414.72 307.584 
" style="fill:none;stroke:#000000;stroke-linecap:square;stroke-linejoin:miter;stroke-width:0.8;"/>
   </g>
   <g id="patch_6">
    <path d="M 57.6 41.472 
L 414.72 41.472 
" style="fill:none;stroke:#000000;stroke-linecap:square;stroke-linejoin:miter;stroke-width:0.8;"/>
   </g>
  </g>
  <g id="axes_2">
   <g id="matplotlib.axis_3">
    <g id="xtick_8">
     <g id="line2d_34">
      <defs>
       <path d="M 0 0 
L 0 -3.5 
" id="mf591f730cb" style="stroke:#000000;stroke-width:0.8;"/>
      </defs>
      <g>
       <use style="stroke:#000000;stroke-width:0.8;" x="57.6" xlink:href="#mf591f730cb" y="41.472"/>
      </g>
     </g>
    </g>
    <g id="xtick_9">
     <g id="line2d_35">
      <g>
       <use style="stroke:#000000;stroke-width:0.8;" x="121.643614" xlink:href="#mf591f730cb" y="41.472"/>
      </g>
     </g>
     <g id="text_19">
      <!-- 5.00K -->
      <defs>
       <path d="M 9.8125 72.90625 
L 19.671875 72.90625 
L 19.671875 42.09375 
L 52.390625 72.90625 
L 65.09375 72.90625 
L 28.90625 38.921875 
L 67.671875 0 
L 54.6875 0 
L 19.671875 35.109375 
L 19.671875 0 
L 9.8125 0 
z
" id="DejaVuSans-75"/>
      </defs>
      <g transform="translate(107.231895 32.392313)scale(0.1 -0.1)">
       <use xlink:href="#DejaVuSans-53"/>
       <use x="63.623047" xlink:href="#DejaVuSans-46"/>
       <use x="95.410156" xlink:href="#DejaVuSans-48"/>
       <use x="159.033203" xlink:href="#DejaVuSans-48"/>
       <use x="222.65625" xlink:href="#DejaVuSans-75"/>
      </g>
     </g>
    </g>
    <g id="xtick_10">
     <g id="line2d_36">
      <g>
       <use style="stroke:#000000;stroke-width:0.8;" x="185.687228" xlink:href="#mf591f730cb" y="41.472"/>
      </g>
     </g>
     <g id="text_20">
      <!-- 10.0K -->
      <g transform="translate(171.275509 32.392313)scale(0.1 -0.1)">
       <use xlink:href="#DejaVuSans-49"/>
       <use x="63.623047" xlink:href="#DejaVuSans-48"/>
       <use x="127.246094" xlink:href="#DejaVuSans-46"/>
       <use x="159.033203" xlink:href="#DejaVuSans-48"/>
       <use x="222.65625" xlink:href="#DejaVuSans-75"/>
      </g>
     </g>
    </g>
    <g id="xtick_11">
     <g id="line2d_37">
      <g>
       <use style="stroke:#000000;stroke-width:0.8;" x="249.730842" xlink:href="#mf591f730cb" y="41.472"/>
      </g>
     </g>
     <g id="text_21">
      <!-- 15.0K -->
      <g transform="translate(235.319123 32.392313)scale(0.1 -0.1)">
       <use xlink:href="#DejaVuSans-49"/>
       <use x="63.623047" xlink:href="#DejaVuSans-53"/>
       <use x="127.246094" xlink:href="#DejaVuSans-46"/>
       <use x="159.033203" xlink:href="#DejaVuSans-48"/>
       <use x="222.65625" xlink:href="#DejaVuSans-75"/>
      </g>
     </g>
    </g>
    <g id="xtick_12">
     <g id="line2d_38">
      <g>
       <use style="stroke:#000000;stroke-width:0.8;" x="313.774456" xlink:href="#mf591f730cb" y="41.472"/>
      </g>
     </g>
     <g id="text_22">
      <!-- 20.0K -->
      <g transform="translate(299.362737 32.392313)scale(0.1 -0.1)">
       <use xlink:href="#DejaVuSans-50"/>
       <use x="63.623047" xlink:href="#DejaVuSans-48"/>
       <use x="127.246094" xlink:href="#DejaVuSans-46"/>
       <use x="159.033203" xlink:href="#DejaVuSans-48"/>
       <use x="222.65625" xlink:href="#DejaVuSans-75"/>
      </g>
     </g>
    </g>
    <g id="xtick_13">
     <g id="line2d_39">
      <g>
       <use style="stroke:#000000;stroke-width:0.8;" x="377.81807" xlink:href="#mf591f730cb" y="41.472"/>
      </g>
     </g>
     <g id="text_23">
      <!-- 25.0K -->
      <g transform="translate(363.406351 32.392313)scale(0.1 -0.1)">
       <use xlink:href="#DejaVuSans-50"/>
       <use x="63.623047" xlink:href="#DejaVuSans-53"/>
       <use x="127.246094" xlink:href="#DejaVuSans-46"/>
       <use x="159.033203" xlink:href="#DejaVuSans-48"/>
       <use x="222.65625" xlink:href="#DejaVuSans-75"/>
      </g>
     </g>
    </g>
    <g id="text_24">
     <!-- Episodes -->
     <defs>
      <path d="M 9.8125 72.90625 
L 55.90625 72.90625 
L 55.90625 64.59375 
L 19.671875 64.59375 
L 19.671875 43.015625 
L 54.390625 43.015625 
L 54.390625 34.71875 
L 19.671875 34.71875 
L 19.671875 8.296875 
L 56.78125 8.296875 
L 56.78125 0 
L 9.8125 0 
z
" id="DejaVuSans-69"/>
      <path d="M 18.109375 8.203125 
L 18.109375 -20.796875 
L 9.078125 -20.796875 
L 9.078125 54.6875 
L 18.109375 54.6875 
L 18.109375 46.390625 
Q 20.953125 51.265625 25.265625 53.625 
Q 29.59375 56 35.59375 56 
Q 45.5625 56 51.78125 48.09375 
Q 58.015625 40.1875 58.015625 27.296875 
Q 58.015625 14.40625 51.78125 6.484375 
Q 45.5625 -1.421875 35.59375 -1.421875 
Q 29.59375 -1.421875 25.265625 0.953125 
Q 20.953125 3.328125 18.109375 8.203125 
z
M 48.6875 27.296875 
Q 48.6875 37.203125 44.609375 42.84375 
Q 40.53125 48.484375 33.40625 48.484375 
Q 26.265625 48.484375 22.1875 42.84375 
Q 18.109375 37.203125 18.109375 27.296875 
Q 18.109375 17.390625 22.1875 11.75 
Q 26.265625 6.109375 33.40625 6.109375 
Q 40.53125 6.109375 44.609375 11.75 
Q 48.6875 17.390625 48.6875 27.296875 
z
" id="DejaVuSans-112"/>
      <path d="M 9.421875 54.6875 
L 18.40625 54.6875 
L 18.40625 0 
L 9.421875 0 
z
M 9.421875 75.984375 
L 18.40625 75.984375 
L 18.40625 64.59375 
L 9.421875 64.59375 
z
" id="DejaVuSans-105"/>
     </defs>
     <g transform="translate(213.917812 20.793875)scale(0.1 -0.1)">
      <use xlink:href="#DejaVuSans-69"/>
      <use x="63.183594" xlink:href="#DejaVuSans-112"/>
      <use x="126.660156" xlink:href="#DejaVuSans-105"/>
      <use x="154.443359" xlink:href="#DejaVuSans-115"/>
      <use x="206.542969" xlink:href="#DejaVuSans-111"/>
      <use x="267.724609" xlink:href="#DejaVuSans-100"/>
      <use x="331.201172" xlink:href="#DejaVuSans-101"/>
      <use x="392.724609" xlink:href="#DejaVuSans-115"/>
     </g>
    </g>
   </g>
   <g id="patch_7">
    <path d="M 57.6 307.584 
L 57.6 41.472 
" style="fill:none;stroke:#000000;stroke-linecap:square;stroke-linejoin:miter;stroke-width:0.8;"/>
   </g>
   <g id="patch_8">
    <path d="M 414.72 307.584 
L 414.72 41.472 
" style="fill:none;stroke:#000000;stroke-linecap:square;stroke-linejoin:miter;stroke-width:0.8;"/>
   </g>
   <g id="patch_9">
    <path d="M 57.6 307.584 
L 414.72 307.584 
" style="fill:none;stroke:#000000;stroke-linecap:square;stroke-linejoin:miter;stroke-width:0.8;"/>
   </g>
   <g id="patch_10">
    <path d="M 57.6 41.472 
L 414.72 41.472 
" style="fill:none;stroke:#000000;stroke-linecap:square;stroke-linejoin:miter;stroke-width:0.8;"/>
   </g>
  </g>
 </g>
 <defs>
  <clipPath id="pea0a877036">
   <rect height="266.112" width="357.12" x="57.6" y="41.472"/>
  </clipPath>
 </defs>
</svg>
