<?xml version="1.0" encoding="utf-8" standalone="no"?>
<!DOCTYPE svg PUBLIC "-//W3C//DTD SVG 1.1//EN"
  "http://www.w3.org/Graphics/SVG/1.1/DTD/svg11.dtd">
<!-- Created with matplotlib (https://matplotlib.org/) -->
<svg height="345.6pt" version="1.1" viewBox="0 0 460.8 345.6" width="460.8pt" xmlns="http://www.w3.org/2000/svg" xmlns:xlink="http://www.w3.org/1999/xlink">
 <defs>
  <style type="text/css">
*{stroke-linecap:butt;stroke-linejoin:round;}
  </style>
 </defs>
 <g id="figure_1">
  <g id="patch_1">
   <path d="M 0 345.6 
L 460.8 345.6 
L 460.8 0 
L 0 0 
z
" style="fill:#ffffff;"/>
  </g>
  <g id="axes_1">
   <g id="patch_2">
    <path d="M 57.6 307.584 
L 414.72 307.584 
L 414.72 41.472 
L 57.6 41.472 
z
" style="fill:#ffffff;"/>
   </g>
   <g id="matplotlib.axis_1">
    <g id="xtick_1">
     <g id="line2d_1">
      <path clip-path="url(#pd7a208879d)" d="M 57.6 307.584 
L 57.6 41.472 
" style="fill:none;stroke:#b0b0b0;stroke-linecap:square;stroke-width:0.8;"/>
     </g>
     <g id="line2d_2">
      <defs>
       <path d="M 0 0 
L 0 3.5 
" id="m543f85fbf7" style="stroke:#000000;stroke-width:0.8;"/>
      </defs>
      <g>
       <use style="stroke:#000000;stroke-width:0.8;" x="57.6" xlink:href="#m543f85fbf7" y="307.584"/>
      </g>
     </g>
     <g id="text_1">
      <!-- 0.0 -->
      <defs>
       <path d="M 31.78125 66.40625 
Q 24.171875 66.40625 20.328125 58.90625 
Q 16.5 51.421875 16.5 36.375 
Q 16.5 21.390625 20.328125 13.890625 
Q 24.171875 6.390625 31.78125 6.390625 
Q 39.453125 6.390625 43.28125 13.890625 
Q 47.125 21.390625 47.125 36.375 
Q 47.125 51.421875 43.28125 58.90625 
Q 39.453125 66.40625 31.78125 66.40625 
z
M 31.78125 74.21875 
Q 44.046875 74.21875 50.515625 64.515625 
Q 56.984375 54.828125 56.984375 36.375 
Q 56.984375 17.96875 50.515625 8.265625 
Q 44.046875 -1.421875 31.78125 -1.421875 
Q 19.53125 -1.421875 13.0625 8.265625 
Q 6.59375 17.96875 6.59375 36.375 
Q 6.59375 54.828125 13.0625 64.515625 
Q 19.53125 74.21875 31.78125 74.21875 
z
" id="DejaVuSans-48"/>
       <path d="M 10.6875 12.40625 
L 21 12.40625 
L 21 0 
L 10.6875 0 
z
" id="DejaVuSans-46"/>
      </defs>
      <g transform="translate(49.648438 322.182437)scale(0.1 -0.1)">
       <use xlink:href="#DejaVuSans-48"/>
       <use x="63.623047" xlink:href="#DejaVuSans-46"/>
       <use x="95.410156" xlink:href="#DejaVuSans-48"/>
      </g>
     </g>
    </g>
    <g id="xtick_2">
     <g id="line2d_3">
      <path clip-path="url(#pd7a208879d)" d="M 102.19356 307.584 
L 102.19356 41.472 
" style="fill:none;stroke:#b0b0b0;stroke-linecap:square;stroke-width:0.8;"/>
     </g>
     <g id="line2d_4">
      <g>
       <use style="stroke:#000000;stroke-width:0.8;" x="102.19356" xlink:href="#m543f85fbf7" y="307.584"/>
      </g>
     </g>
     <g id="text_2">
      <!-- 2.5 -->
      <defs>
       <path d="M 19.1875 8.296875 
L 53.609375 8.296875 
L 53.609375 0 
L 7.328125 0 
L 7.328125 8.296875 
Q 12.9375 14.109375 22.625 23.890625 
Q 32.328125 33.6875 34.8125 36.53125 
Q 39.546875 41.84375 41.421875 45.53125 
Q 43.3125 49.21875 43.3125 52.78125 
Q 43.3125 58.59375 39.234375 62.25 
Q 35.15625 65.921875 28.609375 65.921875 
Q 23.96875 65.921875 18.8125 64.3125 
Q 13.671875 62.703125 7.8125 59.421875 
L 7.8125 69.390625 
Q 13.765625 71.78125 18.9375 73 
Q 24.125 74.21875 28.421875 74.21875 
Q 39.75 74.21875 46.484375 68.546875 
Q 53.21875 62.890625 53.21875 53.421875 
Q 53.21875 48.921875 51.53125 44.890625 
Q 49.859375 40.875 45.40625 35.40625 
Q 44.1875 33.984375 37.640625 27.21875 
Q 31.109375 20.453125 19.1875 8.296875 
z
" id="DejaVuSans-50"/>
       <path d="M 10.796875 72.90625 
L 49.515625 72.90625 
L 49.515625 64.59375 
L 19.828125 64.59375 
L 19.828125 46.734375 
Q 21.96875 47.46875 24.109375 47.828125 
Q 26.265625 48.1875 28.421875 48.1875 
Q 40.625 48.1875 47.75 41.5 
Q 54.890625 34.8125 54.890625 23.390625 
Q 54.890625 11.625 47.5625 5.09375 
Q 40.234375 -1.421875 26.90625 -1.421875 
Q 22.3125 -1.421875 17.546875 -0.640625 
Q 12.796875 0.140625 7.71875 1.703125 
L 7.71875 11.625 
Q 12.109375 9.234375 16.796875 8.0625 
Q 21.484375 6.890625 26.703125 6.890625 
Q 35.15625 6.890625 40.078125 11.328125 
Q 45.015625 15.765625 45.015625 23.390625 
Q 45.015625 31 40.078125 35.4375 
Q 35.15625 39.890625 26.703125 39.890625 
Q 22.75 39.890625 18.8125 39.015625 
Q 14.890625 38.140625 10.796875 36.28125 
z
" id="DejaVuSans-53"/>
      </defs>
      <g transform="translate(94.241998 322.182437)scale(0.1 -0.1)">
       <use xlink:href="#DejaVuSans-50"/>
       <use x="63.623047" xlink:href="#DejaVuSans-46"/>
       <use x="95.410156" xlink:href="#DejaVuSans-53"/>
      </g>
     </g>
    </g>
    <g id="xtick_3">
     <g id="line2d_5">
      <path clip-path="url(#pd7a208879d)" d="M 146.78712 307.584 
L 146.78712 41.472 
" style="fill:none;stroke:#b0b0b0;stroke-linecap:square;stroke-width:0.8;"/>
     </g>
     <g id="line2d_6">
      <g>
       <use style="stroke:#000000;stroke-width:0.8;" x="146.78712" xlink:href="#m543f85fbf7" y="307.584"/>
      </g>
     </g>
     <g id="text_3">
      <!-- 5.0 -->
      <g transform="translate(138.835558 322.182437)scale(0.1 -0.1)">
       <use xlink:href="#DejaVuSans-53"/>
       <use x="63.623047" xlink:href="#DejaVuSans-46"/>
       <use x="95.410156" xlink:href="#DejaVuSans-48"/>
      </g>
     </g>
    </g>
    <g id="xtick_4">
     <g id="line2d_7">
      <path clip-path="url(#pd7a208879d)" d="M 191.380681 307.584 
L 191.380681 41.472 
" style="fill:none;stroke:#b0b0b0;stroke-linecap:square;stroke-width:0.8;"/>
     </g>
     <g id="line2d_8">
      <g>
       <use style="stroke:#000000;stroke-width:0.8;" x="191.380681" xlink:href="#m543f85fbf7" y="307.584"/>
      </g>
     </g>
     <g id="text_4">
      <!-- 7.5 -->
      <defs>
       <path d="M 8.203125 72.90625 
L 55.078125 72.90625 
L 55.078125 68.703125 
L 28.609375 0 
L 18.3125 0 
L 43.21875 64.59375 
L 8.203125 64.59375 
z
" id="DejaVuSans-55"/>
      </defs>
      <g transform="translate(183.429118 322.182437)scale(0.1 -0.1)">
       <use xlink:href="#DejaVuSans-55"/>
       <use x="63.623047" xlink:href="#DejaVuSans-46"/>
       <use x="95.410156" xlink:href="#DejaVuSans-53"/>
      </g>
     </g>
    </g>
    <g id="xtick_5">
     <g id="line2d_9">
      <path clip-path="url(#pd7a208879d)" d="M 235.974241 307.584 
L 235.974241 41.472 
" style="fill:none;stroke:#b0b0b0;stroke-linecap:square;stroke-width:0.8;"/>
     </g>
     <g id="line2d_10">
      <g>
       <use style="stroke:#000000;stroke-width:0.8;" x="235.974241" xlink:href="#m543f85fbf7" y="307.584"/>
      </g>
     </g>
     <g id="text_5">
      <!-- 10.0 -->
      <defs>
       <path d="M 12.40625 8.296875 
L 28.515625 8.296875 
L 28.515625 63.921875 
L 10.984375 60.40625 
L 10.984375 69.390625 
L 28.421875 72.90625 
L 38.28125 72.90625 
L 38.28125 8.296875 
L 54.390625 8.296875 
L 54.390625 0 
L 12.40625 0 
z
" id="DejaVuSans-49"/>
      </defs>
      <g transform="translate(224.841428 322.182437)scale(0.1 -0.1)">
       <use xlink:href="#DejaVuSans-49"/>
       <use x="63.623047" xlink:href="#DejaVuSans-48"/>
       <use x="127.246094" xlink:href="#DejaVuSans-46"/>
       <use x="159.033203" xlink:href="#DejaVuSans-48"/>
      </g>
     </g>
    </g>
    <g id="xtick_6">
     <g id="line2d_11">
      <path clip-path="url(#pd7a208879d)" d="M 280.567801 307.584 
L 280.567801 41.472 
" style="fill:none;stroke:#b0b0b0;stroke-linecap:square;stroke-width:0.8;"/>
     </g>
     <g id="line2d_12">
      <g>
       <use style="stroke:#000000;stroke-width:0.8;" x="280.567801" xlink:href="#m543f85fbf7" y="307.584"/>
      </g>
     </g>
     <g id="text_6">
      <!-- 12.5 -->
      <g transform="translate(269.434989 322.182437)scale(0.1 -0.1)">
       <use xlink:href="#DejaVuSans-49"/>
       <use x="63.623047" xlink:href="#DejaVuSans-50"/>
       <use x="127.246094" xlink:href="#DejaVuSans-46"/>
       <use x="159.033203" xlink:href="#DejaVuSans-53"/>
      </g>
     </g>
    </g>
    <g id="xtick_7">
     <g id="line2d_13">
      <path clip-path="url(#pd7a208879d)" d="M 325.161361 307.584 
L 325.161361 41.472 
" style="fill:none;stroke:#b0b0b0;stroke-linecap:square;stroke-width:0.8;"/>
     </g>
     <g id="line2d_14">
      <g>
       <use style="stroke:#000000;stroke-width:0.8;" x="325.161361" xlink:href="#m543f85fbf7" y="307.584"/>
      </g>
     </g>
     <g id="text_7">
      <!-- 15.0 -->
      <g transform="translate(314.028549 322.182437)scale(0.1 -0.1)">
       <use xlink:href="#DejaVuSans-49"/>
       <use x="63.623047" xlink:href="#DejaVuSans-53"/>
       <use x="127.246094" xlink:href="#DejaVuSans-46"/>
       <use x="159.033203" xlink:href="#DejaVuSans-48"/>
      </g>
     </g>
    </g>
    <g id="xtick_8">
     <g id="line2d_15">
      <path clip-path="url(#pd7a208879d)" d="M 369.754922 307.584 
L 369.754922 41.472 
" style="fill:none;stroke:#b0b0b0;stroke-linecap:square;stroke-width:0.8;"/>
     </g>
     <g id="line2d_16">
      <g>
       <use style="stroke:#000000;stroke-width:0.8;" x="369.754922" xlink:href="#m543f85fbf7" y="307.584"/>
      </g>
     </g>
     <g id="text_8">
      <!-- 17.5 -->
      <g transform="translate(358.622109 322.182437)scale(0.1 -0.1)">
       <use xlink:href="#DejaVuSans-49"/>
       <use x="63.623047" xlink:href="#DejaVuSans-55"/>
       <use x="127.246094" xlink:href="#DejaVuSans-46"/>
       <use x="159.033203" xlink:href="#DejaVuSans-53"/>
      </g>
     </g>
    </g>
    <g id="xtick_9">
     <g id="line2d_17">
      <path clip-path="url(#pd7a208879d)" d="M 414.348482 307.584 
L 414.348482 41.472 
" style="fill:none;stroke:#b0b0b0;stroke-linecap:square;stroke-width:0.8;"/>
     </g>
     <g id="line2d_18">
      <g>
       <use style="stroke:#000000;stroke-width:0.8;" x="414.348482" xlink:href="#m543f85fbf7" y="307.584"/>
      </g>
     </g>
     <g id="text_9">
      <!-- 20.0 -->
      <g transform="translate(403.215669 322.182437)scale(0.1 -0.1)">
       <use xlink:href="#DejaVuSans-50"/>
       <use x="63.623047" xlink:href="#DejaVuSans-48"/>
       <use x="127.246094" xlink:href="#DejaVuSans-46"/>
       <use x="159.033203" xlink:href="#DejaVuSans-48"/>
      </g>
     </g>
    </g>
    <g id="text_10">
     <!-- Hours -->
     <defs>
      <path d="M 9.8125 72.90625 
L 19.671875 72.90625 
L 19.671875 43.015625 
L 55.515625 43.015625 
L 55.515625 72.90625 
L 65.375 72.90625 
L 65.375 0 
L 55.515625 0 
L 55.515625 34.71875 
L 19.671875 34.71875 
L 19.671875 0 
L 9.8125 0 
z
" id="DejaVuSans-72"/>
      <path d="M 30.609375 48.390625 
Q 23.390625 48.390625 19.1875 42.75 
Q 14.984375 37.109375 14.984375 27.296875 
Q 14.984375 17.484375 19.15625 11.84375 
Q 23.34375 6.203125 30.609375 6.203125 
Q 37.796875 6.203125 41.984375 11.859375 
Q 46.1875 17.53125 46.1875 27.296875 
Q 46.1875 37.015625 41.984375 42.703125 
Q 37.796875 48.390625 30.609375 48.390625 
z
M 30.609375 56 
Q 42.328125 56 49.015625 48.375 
Q 55.71875 40.765625 55.71875 27.296875 
Q 55.71875 13.875 49.015625 6.21875 
Q 42.328125 -1.421875 30.609375 -1.421875 
Q 18.84375 -1.421875 12.171875 6.21875 
Q 5.515625 13.875 5.515625 27.296875 
Q 5.515625 40.765625 12.171875 48.375 
Q 18.84375 56 30.609375 56 
z
" id="DejaVuSans-111"/>
      <path d="M 8.5 21.578125 
L 8.5 54.6875 
L 17.484375 54.6875 
L 17.484375 21.921875 
Q 17.484375 14.15625 20.5 10.265625 
Q 23.53125 6.390625 29.59375 6.390625 
Q 36.859375 6.390625 41.078125 11.03125 
Q 45.3125 15.671875 45.3125 23.6875 
L 45.3125 54.6875 
L 54.296875 54.6875 
L 54.296875 0 
L 45.3125 0 
L 45.3125 8.40625 
Q 42.046875 3.421875 37.71875 1 
Q 33.40625 -1.421875 27.6875 -1.421875 
Q 18.265625 -1.421875 13.375 4.4375 
Q 8.5 10.296875 8.5 21.578125 
z
M 31.109375 56 
z
" id="DejaVuSans-117"/>
      <path d="M 41.109375 46.296875 
Q 39.59375 47.171875 37.8125 47.578125 
Q 36.03125 48 33.890625 48 
Q 26.265625 48 22.1875 43.046875 
Q 18.109375 38.09375 18.109375 28.8125 
L 18.109375 0 
L 9.078125 0 
L 9.078125 54.6875 
L 18.109375 54.6875 
L 18.109375 46.1875 
Q 20.953125 51.171875 25.484375 53.578125 
Q 30.03125 56 36.53125 56 
Q 37.453125 56 38.578125 55.875 
Q 39.703125 55.765625 41.0625 55.515625 
z
" id="DejaVuSans-114"/>
      <path d="M 44.28125 53.078125 
L 44.28125 44.578125 
Q 40.484375 46.53125 36.375 47.5 
Q 32.28125 48.484375 27.875 48.484375 
Q 21.1875 48.484375 17.84375 46.4375 
Q 14.5 44.390625 14.5 40.28125 
Q 14.5 37.15625 16.890625 35.375 
Q 19.28125 33.59375 26.515625 31.984375 
L 29.59375 31.296875 
Q 39.15625 29.25 43.1875 25.515625 
Q 47.21875 21.78125 47.21875 15.09375 
Q 47.21875 7.46875 41.1875 3.015625 
Q 35.15625 -1.421875 24.609375 -1.421875 
Q 20.21875 -1.421875 15.453125 -0.5625 
Q 10.6875 0.296875 5.421875 2 
L 5.421875 11.28125 
Q 10.40625 8.6875 15.234375 7.390625 
Q 20.0625 6.109375 24.8125 6.109375 
Q 31.15625 6.109375 34.5625 8.28125 
Q 37.984375 10.453125 37.984375 14.40625 
Q 37.984375 18.0625 35.515625 20.015625 
Q 33.0625 21.96875 24.703125 23.78125 
L 21.578125 24.515625 
Q 13.234375 26.265625 9.515625 29.90625 
Q 5.8125 33.546875 5.8125 39.890625 
Q 5.8125 47.609375 11.28125 51.796875 
Q 16.75 56 26.8125 56 
Q 31.78125 56 36.171875 55.265625 
Q 40.578125 54.546875 44.28125 53.078125 
z
" id="DejaVuSans-115"/>
     </defs>
     <g transform="translate(221.511562 335.860562)scale(0.1 -0.1)">
      <use xlink:href="#DejaVuSans-72"/>
      <use x="75.195312" xlink:href="#DejaVuSans-111"/>
      <use x="136.376953" xlink:href="#DejaVuSans-117"/>
      <use x="199.755859" xlink:href="#DejaVuSans-114"/>
      <use x="240.869141" xlink:href="#DejaVuSans-115"/>
     </g>
    </g>
   </g>
   <g id="matplotlib.axis_2">
    <g id="ytick_1">
     <g id="line2d_19">
      <path clip-path="url(#pd7a208879d)" d="M 57.6 289.001067 
L 414.72 289.001067 
" style="fill:none;stroke:#b0b0b0;stroke-linecap:square;stroke-width:0.8;"/>
     </g>
     <g id="line2d_20">
      <defs>
       <path d="M 0 0 
L -3.5 0 
" id="mf6e7a3ad82" style="stroke:#000000;stroke-width:0.8;"/>
      </defs>
      <g>
       <use style="stroke:#000000;stroke-width:0.8;" x="57.6" xlink:href="#mf6e7a3ad82" y="289.001067"/>
      </g>
     </g>
     <g id="text_11">
      <!-- 1.0 -->
      <g transform="translate(34.696875 292.800286)scale(0.1 -0.1)">
       <use xlink:href="#DejaVuSans-49"/>
       <use x="63.623047" xlink:href="#DejaVuSans-46"/>
       <use x="95.410156" xlink:href="#DejaVuSans-48"/>
      </g>
     </g>
    </g>
    <g id="ytick_2">
     <g id="line2d_21">
      <path clip-path="url(#pd7a208879d)" d="M 57.6 236.37059 
L 414.72 236.37059 
" style="fill:none;stroke:#b0b0b0;stroke-linecap:square;stroke-width:0.8;"/>
     </g>
     <g id="line2d_22">
      <g>
       <use style="stroke:#000000;stroke-width:0.8;" x="57.6" xlink:href="#mf6e7a3ad82" y="236.37059"/>
      </g>
     </g>
     <g id="text_12">
      <!-- 1.5 -->
      <g transform="translate(34.696875 240.169809)scale(0.1 -0.1)">
       <use xlink:href="#DejaVuSans-49"/>
       <use x="63.623047" xlink:href="#DejaVuSans-46"/>
       <use x="95.410156" xlink:href="#DejaVuSans-53"/>
      </g>
     </g>
    </g>
    <g id="ytick_3">
     <g id="line2d_23">
      <path clip-path="url(#pd7a208879d)" d="M 57.6 183.740113 
L 414.72 183.740113 
" style="fill:none;stroke:#b0b0b0;stroke-linecap:square;stroke-width:0.8;"/>
     </g>
     <g id="line2d_24">
      <g>
       <use style="stroke:#000000;stroke-width:0.8;" x="57.6" xlink:href="#mf6e7a3ad82" y="183.740113"/>
      </g>
     </g>
     <g id="text_13">
      <!-- 2.0 -->
      <g transform="translate(34.696875 187.539332)scale(0.1 -0.1)">
       <use xlink:href="#DejaVuSans-50"/>
       <use x="63.623047" xlink:href="#DejaVuSans-46"/>
       <use x="95.410156" xlink:href="#DejaVuSans-48"/>
      </g>
     </g>
    </g>
    <g id="ytick_4">
     <g id="line2d_25">
      <path clip-path="url(#pd7a208879d)" d="M 57.6 131.109636 
L 414.72 131.109636 
" style="fill:none;stroke:#b0b0b0;stroke-linecap:square;stroke-width:0.8;"/>
     </g>
     <g id="line2d_26">
      <g>
       <use style="stroke:#000000;stroke-width:0.8;" x="57.6" xlink:href="#mf6e7a3ad82" y="131.109636"/>
      </g>
     </g>
     <g id="text_14">
      <!-- 2.5 -->
      <g transform="translate(34.696875 134.908854)scale(0.1 -0.1)">
       <use xlink:href="#DejaVuSans-50"/>
       <use x="63.623047" xlink:href="#DejaVuSans-46"/>
       <use x="95.410156" xlink:href="#DejaVuSans-53"/>
      </g>
     </g>
    </g>
    <g id="ytick_5">
     <g id="line2d_27">
      <path clip-path="url(#pd7a208879d)" d="M 57.6 78.479158 
L 414.72 78.479158 
" style="fill:none;stroke:#b0b0b0;stroke-linecap:square;stroke-width:0.8;"/>
     </g>
     <g id="line2d_28">
      <g>
       <use style="stroke:#000000;stroke-width:0.8;" x="57.6" xlink:href="#mf6e7a3ad82" y="78.479158"/>
      </g>
     </g>
     <g id="text_15">
      <!-- 3.0 -->
      <defs>
       <path d="M 40.578125 39.3125 
Q 47.65625 37.796875 51.625 33 
Q 55.609375 28.21875 55.609375 21.1875 
Q 55.609375 10.40625 48.1875 4.484375 
Q 40.765625 -1.421875 27.09375 -1.421875 
Q 22.515625 -1.421875 17.65625 -0.515625 
Q 12.796875 0.390625 7.625 2.203125 
L 7.625 11.71875 
Q 11.71875 9.328125 16.59375 8.109375 
Q 21.484375 6.890625 26.8125 6.890625 
Q 36.078125 6.890625 40.9375 10.546875 
Q 45.796875 14.203125 45.796875 21.1875 
Q 45.796875 27.640625 41.28125 31.265625 
Q 36.765625 34.90625 28.71875 34.90625 
L 20.21875 34.90625 
L 20.21875 43.015625 
L 29.109375 43.015625 
Q 36.375 43.015625 40.234375 45.921875 
Q 44.09375 48.828125 44.09375 54.296875 
Q 44.09375 59.90625 40.109375 62.90625 
Q 36.140625 65.921875 28.71875 65.921875 
Q 24.65625 65.921875 20.015625 65.03125 
Q 15.375 64.15625 9.8125 62.3125 
L 9.8125 71.09375 
Q 15.4375 72.65625 20.34375 73.4375 
Q 25.25 74.21875 29.59375 74.21875 
Q 40.828125 74.21875 47.359375 69.109375 
Q 53.90625 64.015625 53.90625 55.328125 
Q 53.90625 49.265625 50.4375 45.09375 
Q 46.96875 40.921875 40.578125 39.3125 
z
" id="DejaVuSans-51"/>
      </defs>
      <g transform="translate(34.696875 82.278377)scale(0.1 -0.1)">
       <use xlink:href="#DejaVuSans-51"/>
       <use x="63.623047" xlink:href="#DejaVuSans-46"/>
       <use x="95.410156" xlink:href="#DejaVuSans-48"/>
      </g>
     </g>
    </g>
    <g id="text_16">
     <!-- Intrinsic reference -->
     <defs>
      <path d="M 9.8125 72.90625 
L 19.671875 72.90625 
L 19.671875 0 
L 9.8125 0 
z
" id="DejaVuSans-73"/>
      <path d="M 54.890625 33.015625 
L 54.890625 0 
L 45.90625 0 
L 45.90625 32.71875 
Q 45.90625 40.484375 42.875 44.328125 
Q 39.84375 48.1875 33.796875 48.1875 
Q 26.515625 48.1875 22.3125 43.546875 
Q 18.109375 38.921875 18.109375 30.90625 
L 18.109375 0 
L 9.078125 0 
L 9.078125 54.6875 
L 18.109375 54.6875 
L 18.109375 46.1875 
Q 21.34375 51.125 25.703125 53.5625 
Q 30.078125 56 35.796875 56 
Q 45.21875 56 50.046875 50.171875 
Q 54.890625 44.34375 54.890625 33.015625 
z
" id="DejaVuSans-110"/>
      <path d="M 18.3125 70.21875 
L 18.3125 54.6875 
L 36.8125 54.6875 
L 36.8125 47.703125 
L 18.3125 47.703125 
L 18.3125 18.015625 
Q 18.3125 11.328125 20.140625 9.421875 
Q 21.96875 7.515625 27.59375 7.515625 
L 36.8125 7.515625 
L 36.8125 0 
L 27.59375 0 
Q 17.1875 0 13.234375 3.875 
Q 9.28125 7.765625 9.28125 18.015625 
L 9.28125 47.703125 
L 2.6875 47.703125 
L 2.6875 54.6875 
L 9.28125 54.6875 
L 9.28125 70.21875 
z
" id="DejaVuSans-116"/>
      <path d="M 9.421875 54.6875 
L 18.40625 54.6875 
L 18.40625 0 
L 9.421875 0 
z
M 9.421875 75.984375 
L 18.40625 75.984375 
L 18.40625 64.59375 
L 9.421875 64.59375 
z
" id="DejaVuSans-105"/>
      <path d="M 48.78125 52.59375 
L 48.78125 44.1875 
Q 44.96875 46.296875 41.140625 47.34375 
Q 37.3125 48.390625 33.40625 48.390625 
Q 24.65625 48.390625 19.8125 42.84375 
Q 14.984375 37.3125 14.984375 27.296875 
Q 14.984375 17.28125 19.8125 11.734375 
Q 24.65625 6.203125 33.40625 6.203125 
Q 37.3125 6.203125 41.140625 7.25 
Q 44.96875 8.296875 48.78125 10.40625 
L 48.78125 2.09375 
Q 45.015625 0.34375 40.984375 -0.53125 
Q 36.96875 -1.421875 32.421875 -1.421875 
Q 20.0625 -1.421875 12.78125 6.34375 
Q 5.515625 14.109375 5.515625 27.296875 
Q 5.515625 40.671875 12.859375 48.328125 
Q 20.21875 56 33.015625 56 
Q 37.15625 56 41.109375 55.140625 
Q 45.0625 54.296875 48.78125 52.59375 
z
" id="DejaVuSans-99"/>
      <path id="DejaVuSans-32"/>
      <path d="M 56.203125 29.59375 
L 56.203125 25.203125 
L 14.890625 25.203125 
Q 15.484375 15.921875 20.484375 11.0625 
Q 25.484375 6.203125 34.421875 6.203125 
Q 39.59375 6.203125 44.453125 7.46875 
Q 49.3125 8.734375 54.109375 11.28125 
L 54.109375 2.78125 
Q 49.265625 0.734375 44.1875 -0.34375 
Q 39.109375 -1.421875 33.890625 -1.421875 
Q 20.796875 -1.421875 13.15625 6.1875 
Q 5.515625 13.8125 5.515625 26.8125 
Q 5.515625 40.234375 12.765625 48.109375 
Q 20.015625 56 32.328125 56 
Q 43.359375 56 49.78125 48.890625 
Q 56.203125 41.796875 56.203125 29.59375 
z
M 47.21875 32.234375 
Q 47.125 39.59375 43.09375 43.984375 
Q 39.0625 48.390625 32.421875 48.390625 
Q 24.90625 48.390625 20.390625 44.140625 
Q 15.875 39.890625 15.1875 32.171875 
z
" id="DejaVuSans-101"/>
      <path d="M 37.109375 75.984375 
L 37.109375 68.5 
L 28.515625 68.5 
Q 23.6875 68.5 21.796875 66.546875 
Q 19.921875 64.59375 19.921875 59.515625 
L 19.921875 54.6875 
L 34.71875 54.6875 
L 34.71875 47.703125 
L 19.921875 47.703125 
L 19.921875 0 
L 10.890625 0 
L 10.890625 47.703125 
L 2.296875 47.703125 
L 2.296875 54.6875 
L 10.890625 54.6875 
L 10.890625 58.5 
Q 10.890625 67.625 15.140625 71.796875 
Q 19.390625 75.984375 28.609375 75.984375 
z
" id="DejaVuSans-102"/>
     </defs>
     <g transform="translate(28.617187 220.169406)rotate(-90)scale(0.1 -0.1)">
      <use xlink:href="#DejaVuSans-73"/>
      <use x="29.492188" xlink:href="#DejaVuSans-110"/>
      <use x="92.871094" xlink:href="#DejaVuSans-116"/>
      <use x="132.080078" xlink:href="#DejaVuSans-114"/>
      <use x="173.193359" xlink:href="#DejaVuSans-105"/>
      <use x="200.976562" xlink:href="#DejaVuSans-110"/>
      <use x="264.355469" xlink:href="#DejaVuSans-115"/>
      <use x="316.455078" xlink:href="#DejaVuSans-105"/>
      <use x="344.238281" xlink:href="#DejaVuSans-99"/>
      <use x="399.21875" xlink:href="#DejaVuSans-32"/>
      <use x="431.005859" xlink:href="#DejaVuSans-114"/>
      <use x="472.087891" xlink:href="#DejaVuSans-101"/>
      <use x="533.611328" xlink:href="#DejaVuSans-102"/>
      <use x="568.816406" xlink:href="#DejaVuSans-101"/>
      <use x="630.339844" xlink:href="#DejaVuSans-114"/>
      <use x="671.421875" xlink:href="#DejaVuSans-101"/>
      <use x="732.945312" xlink:href="#DejaVuSans-110"/>
      <use x="796.324219" xlink:href="#DejaVuSans-99"/>
      <use x="851.304688" xlink:href="#DejaVuSans-101"/>
     </g>
    </g>
   </g>
   <g id="line2d_29">
    <path clip-path="url(#pd7a208879d)" d="M 57.6 123.428552 
L 58.386875 89.701361 
L 59.165185 86.520874 
L 59.947697 97.364777 
L 60.731758 146.842423 
L 61.516499 177.941091 
L 62.299404 86.683321 
L 63.083808 169.567705 
L 63.85097 152.967042 
L 64.637647 182.848346 
L 65.414903 185.196883 
L 66.195003 77.526407 
L 66.971239 74.955481 
L 67.748822 239.457017 
L 68.526222 172.652802 
L 69.313066 136.046453 
L 70.091784 203.656532 
L 70.868741 121.779433 
L 71.655225 177.268213 
L 72.426678 194.640006 
L 73.207191 146.736768 
L 73.987537 153.92692 
L 74.764978 163.001393 
L 75.542447 143.53136 
L 76.321046 193.249402 
L 77.100616 170.892732 
L 77.884936 196.142287 
L 78.663537 53.568 
L 79.429934 132.40515 
L 80.20912 159.172546 
L 80.995433 198.80164 
L 81.78877 113.639993 
L 82.572548 151.178087 
L 83.353295 123.303121 
L 84.134602 218.497451 
L 84.913612 99.221417 
L 85.689932 160.461485 
L 86.47712 207.698395 
L 87.265226 102.29896 
L 88.840241 194.380085 
L 89.63596 135.373173 
L 90.404658 136.401438 
L 91.195923 141.939585 
L 91.981651 174.670734 
L 92.762118 124.830901 
L 93.54927 119.942669 
L 94.318088 121.637188 
L 95.112126 181.347545 
L 95.895733 143.362689 
L 96.680086 147.629439 
L 97.45937 101.35577 
L 98.2487 202.032998 
L 99.808313 96.311014 
L 100.601677 223.170157 
L 101.389412 131.709685 
L 102.173948 213.140787 
L 102.951955 147.376093 
L 103.750397 138.464369 
L 104.551852 197.586509 
L 105.359297 179.541624 
L 106.163062 111.784382 
L 106.969634 138.814811 
L 107.754469 117.878936 
L 108.536582 76.110482 
L 109.330073 147.195074 
L 110.103431 162.477385 
L 110.880309 149.1395 
L 111.67646 226.467291 
L 112.45944 178.733026 
L 113.242299 111.493769 
L 114.036917 170.408778 
L 114.822266 177.500302 
L 115.605679 115.425384 
L 116.390069 155.413467 
L 117.184206 203.528817 
L 117.961883 215.379905 
L 118.747687 158.784685 
L 119.531504 132.576356 
L 120.315826 216.664979 
L 121.103763 181.434428 
L 121.896253 115.868382 
L 122.682795 155.832397 
L 123.463173 166.069952 
L 124.246717 202.81458 
L 125.031356 180.698156 
L 125.811971 136.18137 
L 126.598626 164.620196 
L 127.390649 170.654595 
L 128.173388 193.827705 
L 128.955603 150.795446 
L 129.743014 115.366785 
L 130.514473 184.273507 
L 131.298848 221.503031 
L 132.095318 198.390854 
L 132.879889 194.675366 
L 133.667405 134.327868 
L 134.450185 194.028073 
L 135.243555 141.336876 
L 136.016706 128.502169 
L 136.811256 119.9507 
L 137.596636 127.034143 
L 138.383162 144.984303 
L 139.16179 178.243099 
L 139.948379 130.033261 
L 140.748261 203.734003 
L 141.542479 159.917676 
L 142.350197 126.705735 
L 143.191432 161.875077 
L 144.035569 111.468672 
L 144.873563 68.659204 
L 145.697084 105.992563 
L 146.499581 183.94742 
L 147.312383 109.108428 
L 148.127254 143.1177 
L 148.951641 138.557576 
L 149.74507 202.337966 
L 150.52409 87.198621 
L 151.311887 152.851901 
L 152.091607 185.890114 
L 152.871322 184.742893 
L 153.650151 192.452624 
L 154.431988 228.111216 
L 155.229811 220.297449 
L 156.025452 130.28352 
L 156.831499 164.934952 
L 157.622886 129.454644 
L 158.407842 140.474948 
L 159.197807 104.480243 
L 159.98138 77.101404 
L 160.77202 197.148631 
L 161.565594 189.658592 
L 162.366411 190.907792 
L 163.15942 185.802139 
L 163.946526 123.272554 
L 164.739325 170.634217 
L 165.527451 188.602094 
L 166.313915 197.345724 
L 167.109639 112.916219 
L 167.884527 145.094174 
L 168.67556 120.042025 
L 169.461369 172.666278 
L 170.244937 146.740934 
L 171.025204 142.157094 
L 171.806909 222.958395 
L 172.587078 143.058925 
L 173.379962 180.804188 
L 174.162335 162.343472 
L 174.940158 76.837342 
L 175.725835 152.981548 
L 176.520199 93.318472 
L 177.304163 195.251725 
L 178.092056 235.060896 
L 178.902298 141.554058 
L 179.702822 216.469442 
L 180.507586 168.035408 
L 181.311578 216.65346 
L 182.094587 135.975682 
L 182.875744 193.470675 
L 183.65587 56.035305 
L 184.43713 166.154576 
L 185.228301 251.246695 
L 186.009519 134.057858 
L 186.788872 159.463712 
L 187.578073 168.577912 
L 189.130487 215.775232 
L 189.912627 170.429608 
L 190.693795 226.640844 
L 191.472222 214.642805 
L 192.250402 127.564852 
L 193.041705 214.233713 
L 193.845412 125.745531 
L 194.647088 107.378123 
L 195.460197 223.481901 
L 196.237504 235.515551 
L 197.029233 111.692279 
L 197.809587 121.636234 
L 198.588421 175.792558 
L 199.368265 196.354601 
L 200.161058 169.922364 
L 200.939662 223.687125 
L 201.720429 142.957687 
L 202.507709 118.261352 
L 203.285852 200.894548 
L 204.064541 168.731852 
L 204.852025 166.986564 
L 205.638296 135.566062 
L 206.429458 173.92189 
L 207.221472 192.035274 
L 208.008066 221.30782 
L 208.798879 189.943998 
L 210.380663 145.984786 
L 211.173932 214.136829 
L 211.955287 127.65959 
L 212.737704 180.072408 
L 213.528387 242.764968 
L 214.309819 164.063061 
L 215.091027 134.15897 
L 215.8803 146.556126 
L 216.660225 185.192303 
L 217.442482 161.335409 
L 218.232179 213.987444 
L 219.012699 169.415672 
L 219.795246 145.010854 
L 220.583117 142.803295 
L 221.362429 138.194535 
L 222.142372 148.878876 
L 222.929502 155.815457 
L 223.706767 181.895745 
L 224.488053 251.353604 
L 225.259877 171.098948 
L 226.049252 191.715436 
L 226.828784 150.620575 
L 227.611538 78.187792 
L 228.402262 191.612203 
L 229.1833 217.755132 
L 229.965554 225.038541 
L 230.753484 154.113234 
L 231.534958 210.275131 
L 232.317318 165.259396 
L 233.10606 164.40073 
L 233.883874 155.825194 
L 235.445879 248.639504 
L 236.238215 193.981532 
L 237.018695 149.284732 
L 237.800864 131.987625 
L 238.581305 246.650018 
L 239.360612 154.948309 
L 240.147483 176.812843 
L 240.933493 164.151952 
L 241.729616 186.681208 
L 242.533996 155.13781 
L 243.330404 253.222403 
L 244.115965 173.139918 
L 244.883346 177.905706 
L 245.672886 145.822264 
L 246.444058 163.353392 
L 247.231431 234.796483 
L 248.012036 156.90448 
L 248.792543 149.058916 
L 249.581856 168.621805 
L 250.369435 168.390946 
L 251.157304 146.521995 
L 251.954914 148.959284 
L 252.738031 182.945292 
L 253.517024 153.899365 
L 254.299874 171.483672 
L 255.090319 170.055474 
L 255.870408 196.014247 
L 256.646078 233.7374 
L 257.436088 195.821006 
L 258.207653 230.55828 
L 258.989835 278.240621 
L 259.781819 176.882234 
L 260.565042 208.516003 
L 261.348041 167.631435 
L 262.135353 154.246194 
L 262.906096 148.421624 
L 263.686881 192.729158 
L 264.475769 178.443667 
L 265.279105 217.334457 
L 266.078605 184.983528 
L 266.891468 253.417852 
L 267.686189 248.398242 
L 268.467116 238.490363 
L 269.248336 264.179954 
L 270.038362 156.968174 
L 270.817878 253.401113 
L 271.599417 235.187431 
L 272.389124 186.935558 
L 273.168314 188.449333 
L 273.94874 219.048513 
L 274.737559 216.588963 
L 275.518304 212.117805 
L 276.2974 166.489233 
L 277.087099 263.511304 
L 277.868413 164.618389 
L 278.648076 174.883023 
L 279.422624 254.566516 
L 280.195475 241.620658 
L 280.97573 246.279511 
L 281.764603 258.10303 
L 282.545717 192.5116 
L 283.323315 208.703471 
L 284.105409 189.631978 
L 284.884548 253.611682 
L 285.673053 166.132115 
L 286.47229 167.08341 
L 287.262331 191.042847 
L 288.050761 222.177729 
L 288.84467 224.054997 
L 289.626226 149.727328 
L 290.407451 225.924561 
L 291.180635 195.907764 
L 291.980346 175.39122 
L 292.765223 170.967067 
L 293.560547 263.761739 
L 294.349316 218.158515 
L 295.130903 150.984545 
L 295.918801 184.143785 
L 296.69856 141.571274 
L 297.478746 230.305047 
L 298.255544 173.947639 
L 299.035179 185.833083 
L 299.822294 185.104441 
L 300.600375 190.417889 
L 301.370475 182.443444 
L 302.158521 184.311703 
L 302.937469 178.509545 
L 303.721687 218.06256 
L 304.509864 172.262381 
L 305.288574 259.111633 
L 306.070481 200.39669 
L 306.86306 204.305619 
L 307.64603 173.142503 
L 308.416244 171.830451 
L 309.208127 265.474201 
L 309.995249 271.171345 
L 310.783299 243.128235 
L 311.577028 293.122787 
L 312.361089 159.287763 
L 313.140908 232.53301 
L 313.931944 190.612598 
L 314.715503 163.94408 
L 315.508702 175.447084 
L 316.317064 264.267916 
L 317.107917 175.535272 
L 317.897332 230.486392 
L 318.686298 181.372666 
L 319.459053 184.586481 
L 320.240963 231.43962 
L 321.030548 167.306314 
L 321.80984 205.587594 
L 322.580373 259.276791 
L 323.358463 215.473664 
L 324.137117 258.154239 
L 324.926696 189.135425 
L 325.707059 211.7707 
L 326.487086 249.727009 
L 327.27558 196.911761 
L 328.050894 173.453821 
L 328.831619 244.249858 
L 329.623075 188.193064 
L 330.411252 266.507109 
L 331.206925 207.135764 
L 332.011285 213.131866 
L 332.798315 180.466192 
L 333.602465 268.895148 
L 334.414002 178.141007 
L 335.219115 269.152333 
L 336.021843 218.494891 
L 336.818222 196.906528 
L 337.611858 212.828403 
L 338.40687 205.62633 
L 339.204497 277.350347 
L 339.989596 190.306387 
L 340.778491 180.430079 
L 342.372851 232.212557 
L 343.171915 238.653413 
L 343.981982 228.904593 
L 344.777591 210.987247 
L 345.5597 202.712451 
L 346.35173 171.052444 
L 347.134143 232.566375 
L 347.917652 175.166058 
L 348.71161 211.200841 
L 349.498136 220.020487 
L 350.283554 183.814448 
L 351.079372 187.285649 
L 351.866309 249.990217 
L 352.653231 241.829471 
L 353.465696 188.91355 
L 354.256526 193.37034 
L 355.030871 178.65312 
L 355.818064 209.856289 
L 356.599216 191.819673 
L 357.370605 182.916657 
L 358.158965 190.714488 
L 358.938872 194.973433 
L 359.727212 185.929703 
L 360.539159 227.246251 
L 361.342275 279.597383 
L 362.136758 204.074784 
L 362.935324 203.159025 
L 363.713567 164.221644 
L 364.492994 187.380412 
L 365.280325 180.098684 
L 366.058279 203.705193 
L 366.829141 240.494794 
L 367.618357 243.028729 
L 368.397195 269.424777 
L 369.179217 252.611675 
L 369.960567 192.46605 
L 370.740691 171.373976 
L 371.522503 173.565424 
L 373.095055 264.561039 
L 373.879894 236.493361 
L 374.660599 212.858041 
L 375.441407 240.692451 
L 376.231381 212.365153 
L 377.011523 193.93774 
L 377.798311 196.277656 
L 378.597284 169.981767 
L 379.384105 200.502119 
L 380.966786 295.488 
L 381.747938 196.71586 
L 382.519842 271.667647 
L 383.311137 202.919595 
L 384.090228 191.3373 
L 384.871698 230.630331 
L 385.661884 248.954059 
L 386.435734 206.302722 
L 387.230909 183.944571 
L 388.016908 199.103597 
L 388.803649 229.140535 
L 389.586517 202.689626 
L 390.372677 239.129901 
L 391.144983 226.44739 
L 391.924108 211.23851 
L 392.714961 272.287459 
L 393.497007 198.071053 
L 394.278177 223.08168 
L 395.067984 238.543918 
L 395.858502 202.251874 
L 396.649885 235.71553 
L 397.45053 204.161316 
L 398.240881 247.567847 
L 399.02179 181.973794 
L 399.811348 207.644601 
L 400.593202 287.631419 
L 401.377589 221.43743 
L 402.175573 242.736634 
L 402.973141 194.172389 
L 403.769479 249.878891 
L 404.556506 195.843367 
L 405.345577 233.352751 
L 406.122222 277.720566 
L 406.892956 183.076947 
L 407.679029 211.547896 
L 408.458719 191.782405 
L 409.241077 216.25152 
L 410.027598 276.007903 
L 410.809432 196.009955 
L 411.580144 171.550854 
L 412.368975 198.63061 
L 413.149439 187.110315 
L 413.930019 206.75119 
L 414.72 210.099044 
L 414.72 210.099044 
" style="fill:none;stroke:#000000;stroke-linecap:square;stroke-width:0.8;"/>
   </g>
   <g id="patch_3">
    <path d="M 57.6 307.584 
L 57.6 41.472 
" style="fill:none;stroke:#000000;stroke-linecap:square;stroke-linejoin:miter;stroke-width:0.8;"/>
   </g>
   <g id="patch_4">
    <path d="M 414.72 307.584 
L 414.72 41.472 
" style="fill:none;stroke:#000000;stroke-linecap:square;stroke-linejoin:miter;stroke-width:0.8;"/>
   </g>
   <g id="patch_5">
    <path d="M 57.6 307.584 
L 414.72 307.584 
" style="fill:none;stroke:#000000;stroke-linecap:square;stroke-linejoin:miter;stroke-width:0.8;"/>
   </g>
   <g id="patch_6">
    <path d="M 57.6 41.472 
L 414.72 41.472 
" style="fill:none;stroke:#000000;stroke-linecap:square;stroke-linejoin:miter;stroke-width:0.8;"/>
   </g>
  </g>
  <g id="axes_2">
   <g id="matplotlib.axis_3">
    <g id="xtick_10">
     <g id="line2d_30">
      <defs>
       <path d="M 0 0 
L 0 -3.5 
" id="m84e3905369" style="stroke:#000000;stroke-width:0.8;"/>
      </defs>
      <g>
       <use style="stroke:#000000;stroke-width:0.8;" x="57.6" xlink:href="#m84e3905369" y="41.472"/>
      </g>
     </g>
    </g>
    <g id="xtick_11">
     <g id="line2d_31">
      <g>
       <use style="stroke:#000000;stroke-width:0.8;" x="136.087912" xlink:href="#m84e3905369" y="41.472"/>
      </g>
     </g>
     <g id="text_17">
      <!-- 100K -->
      <defs>
       <path d="M 9.8125 72.90625 
L 19.671875 72.90625 
L 19.671875 42.09375 
L 52.390625 72.90625 
L 65.09375 72.90625 
L 28.90625 38.921875 
L 67.671875 0 
L 54.6875 0 
L 19.671875 35.109375 
L 19.671875 0 
L 9.8125 0 
z
" id="DejaVuSans-75"/>
      </defs>
      <g transform="translate(123.265256 32.392313)scale(0.1 -0.1)">
       <use xlink:href="#DejaVuSans-49"/>
       <use x="63.623047" xlink:href="#DejaVuSans-48"/>
       <use x="127.246094" xlink:href="#DejaVuSans-48"/>
       <use x="190.869141" xlink:href="#DejaVuSans-75"/>
      </g>
     </g>
    </g>
    <g id="xtick_12">
     <g id="line2d_32">
      <g>
       <use style="stroke:#000000;stroke-width:0.8;" x="214.575824" xlink:href="#m84e3905369" y="41.472"/>
      </g>
     </g>
     <g id="text_18">
      <!-- 200K -->
      <g transform="translate(201.753168 32.392313)scale(0.1 -0.1)">
       <use xlink:href="#DejaVuSans-50"/>
       <use x="63.623047" xlink:href="#DejaVuSans-48"/>
       <use x="127.246094" xlink:href="#DejaVuSans-48"/>
       <use x="190.869141" xlink:href="#DejaVuSans-75"/>
      </g>
     </g>
    </g>
    <g id="xtick_13">
     <g id="line2d_33">
      <g>
       <use style="stroke:#000000;stroke-width:0.8;" x="293.063736" xlink:href="#m84e3905369" y="41.472"/>
      </g>
     </g>
     <g id="text_19">
      <!-- 300K -->
      <g transform="translate(280.24108 32.392313)scale(0.1 -0.1)">
       <use xlink:href="#DejaVuSans-51"/>
       <use x="63.623047" xlink:href="#DejaVuSans-48"/>
       <use x="127.246094" xlink:href="#DejaVuSans-48"/>
       <use x="190.869141" xlink:href="#DejaVuSans-75"/>
      </g>
     </g>
    </g>
    <g id="xtick_14">
     <g id="line2d_34">
      <g>
       <use style="stroke:#000000;stroke-width:0.8;" x="371.551648" xlink:href="#m84e3905369" y="41.472"/>
      </g>
     </g>
     <g id="text_20">
      <!-- 400K -->
      <defs>
       <path d="M 37.796875 64.3125 
L 12.890625 25.390625 
L 37.796875 25.390625 
z
M 35.203125 72.90625 
L 47.609375 72.90625 
L 47.609375 25.390625 
L 58.015625 25.390625 
L 58.015625 17.1875 
L 47.609375 17.1875 
L 47.609375 0 
L 37.796875 0 
L 37.796875 17.1875 
L 4.890625 17.1875 
L 4.890625 26.703125 
z
" id="DejaVuSans-52"/>
      </defs>
      <g transform="translate(358.728992 32.392313)scale(0.1 -0.1)">
       <use xlink:href="#DejaVuSans-52"/>
       <use x="63.623047" xlink:href="#DejaVuSans-48"/>
       <use x="127.246094" xlink:href="#DejaVuSans-48"/>
       <use x="190.869141" xlink:href="#DejaVuSans-75"/>
      </g>
     </g>
    </g>
    <g id="text_21">
     <!-- Steps -->
     <defs>
      <path d="M 53.515625 70.515625 
L 53.515625 60.890625 
Q 47.90625 63.578125 42.921875 64.890625 
Q 37.9375 66.21875 33.296875 66.21875 
Q 25.25 66.21875 20.875 63.09375 
Q 16.5 59.96875 16.5 54.203125 
Q 16.5 49.359375 19.40625 46.890625 
Q 22.3125 44.4375 30.421875 42.921875 
L 36.375 41.703125 
Q 47.40625 39.59375 52.65625 34.296875 
Q 57.90625 29 57.90625 20.125 
Q 57.90625 9.515625 50.796875 4.046875 
Q 43.703125 -1.421875 29.984375 -1.421875 
Q 24.8125 -1.421875 18.96875 -0.25 
Q 13.140625 0.921875 6.890625 3.21875 
L 6.890625 13.375 
Q 12.890625 10.015625 18.65625 8.296875 
Q 24.421875 6.59375 29.984375 6.59375 
Q 38.421875 6.59375 43.015625 9.90625 
Q 47.609375 13.234375 47.609375 19.390625 
Q 47.609375 24.75 44.3125 27.78125 
Q 41.015625 30.8125 33.5 32.328125 
L 27.484375 33.5 
Q 16.453125 35.6875 11.515625 40.375 
Q 6.59375 45.0625 6.59375 53.421875 
Q 6.59375 63.09375 13.40625 68.65625 
Q 20.21875 74.21875 32.171875 74.21875 
Q 37.3125 74.21875 42.625 73.28125 
Q 47.953125 72.359375 53.515625 70.515625 
z
" id="DejaVuSans-83"/>
      <path d="M 18.109375 8.203125 
L 18.109375 -20.796875 
L 9.078125 -20.796875 
L 9.078125 54.6875 
L 18.109375 54.6875 
L 18.109375 46.390625 
Q 20.953125 51.265625 25.265625 53.625 
Q 29.59375 56 35.59375 56 
Q 45.5625 56 51.78125 48.09375 
Q 58.015625 40.1875 58.015625 27.296875 
Q 58.015625 14.40625 51.78125 6.484375 
Q 45.5625 -1.421875 35.59375 -1.421875 
Q 29.59375 -1.421875 25.265625 0.953125 
Q 20.953125 3.328125 18.109375 8.203125 
z
M 48.6875 27.296875 
Q 48.6875 37.203125 44.609375 42.84375 
Q 40.53125 48.484375 33.40625 48.484375 
Q 26.265625 48.484375 22.1875 42.84375 
Q 18.109375 37.203125 18.109375 27.296875 
Q 18.109375 17.390625 22.1875 11.75 
Q 26.265625 6.109375 33.40625 6.109375 
Q 40.53125 6.109375 44.609375 11.75 
Q 48.6875 17.390625 48.6875 27.296875 
z
" id="DejaVuSans-112"/>
     </defs>
     <g transform="translate(222.170156 20.793875)scale(0.1 -0.1)">
      <use xlink:href="#DejaVuSans-83"/>
      <use x="63.476562" xlink:href="#DejaVuSans-116"/>
      <use x="102.685547" xlink:href="#DejaVuSans-101"/>
      <use x="164.208984" xlink:href="#DejaVuSans-112"/>
      <use x="227.685547" xlink:href="#DejaVuSans-115"/>
     </g>
    </g>
   </g>
   <g id="patch_7">
    <path d="M 57.6 307.584 
L 57.6 41.472 
" style="fill:none;stroke:#000000;stroke-linecap:square;stroke-linejoin:miter;stroke-width:0.8;"/>
   </g>
   <g id="patch_8">
    <path d="M 414.72 307.584 
L 414.72 41.472 
" style="fill:none;stroke:#000000;stroke-linecap:square;stroke-linejoin:miter;stroke-width:0.8;"/>
   </g>
   <g id="patch_9">
    <path d="M 57.6 307.584 
L 414.72 307.584 
" style="fill:none;stroke:#000000;stroke-linecap:square;stroke-linejoin:miter;stroke-width:0.8;"/>
   </g>
   <g id="patch_10">
    <path d="M 57.6 41.472 
L 414.72 41.472 
" style="fill:none;stroke:#000000;stroke-linecap:square;stroke-linejoin:miter;stroke-width:0.8;"/>
   </g>
  </g>
 </g>
 <defs>
  <clipPath id="pd7a208879d">
   <rect height="266.112" width="357.12" x="57.6" y="41.472"/>
  </clipPath>
 </defs>
</svg>
