<?xml version="1.0" encoding="utf-8" standalone="no"?>
<!DOCTYPE svg PUBLIC "-//W3C//DTD SVG 1.1//EN"
  "http://www.w3.org/Graphics/SVG/1.1/DTD/svg11.dtd">
<!-- Created with matplotlib (https://matplotlib.org/) -->
<svg height="345.6pt" version="1.1" viewBox="0 0 460.8 345.6" width="460.8pt" xmlns="http://www.w3.org/2000/svg" xmlns:xlink="http://www.w3.org/1999/xlink">
 <defs>
  <style type="text/css">
*{stroke-linecap:butt;stroke-linejoin:round;}
  </style>
 </defs>
 <g id="figure_1">
  <g id="patch_1">
   <path d="M 0 345.6 
L 460.8 345.6 
L 460.8 0 
L 0 0 
z
" style="fill:#ffffff;"/>
  </g>
  <g id="axes_1">
   <g id="patch_2">
    <path d="M 57.6 307.584 
L 414.72 307.584 
L 414.72 41.472 
L 57.6 41.472 
z
" style="fill:#ffffff;"/>
   </g>
   <g id="matplotlib.axis_1">
    <g id="xtick_1">
     <g id="line2d_1">
      <path clip-path="url(#pb76a6655fe)" d="M 57.6 307.584 
L 57.6 41.472 
" style="fill:none;stroke:#b0b0b0;stroke-linecap:square;stroke-width:0.8;"/>
     </g>
     <g id="line2d_2">
      <defs>
       <path d="M 0 0 
L 0 3.5 
" id="m2f89a0f8aa" style="stroke:#000000;stroke-width:0.8;"/>
      </defs>
      <g>
       <use style="stroke:#000000;stroke-width:0.8;" x="57.6" xlink:href="#m2f89a0f8aa" y="307.584"/>
      </g>
     </g>
     <g id="text_1">
      <!-- 0 -->
      <defs>
       <path d="M 31.78125 66.40625 
Q 24.171875 66.40625 20.328125 58.90625 
Q 16.5 51.421875 16.5 36.375 
Q 16.5 21.390625 20.328125 13.890625 
Q 24.171875 6.390625 31.78125 6.390625 
Q 39.453125 6.390625 43.28125 13.890625 
Q 47.125 21.390625 47.125 36.375 
Q 47.125 51.421875 43.28125 58.90625 
Q 39.453125 66.40625 31.78125 66.40625 
z
M 31.78125 74.21875 
Q 44.046875 74.21875 50.515625 64.515625 
Q 56.984375 54.828125 56.984375 36.375 
Q 56.984375 17.96875 50.515625 8.265625 
Q 44.046875 -1.421875 31.78125 -1.421875 
Q 19.53125 -1.421875 13.0625 8.265625 
Q 6.59375 17.96875 6.59375 36.375 
Q 6.59375 54.828125 13.0625 64.515625 
Q 19.53125 74.21875 31.78125 74.21875 
z
" id="DejaVuSans-48"/>
      </defs>
      <g transform="translate(54.41875 322.182437)scale(0.1 -0.1)">
       <use xlink:href="#DejaVuSans-48"/>
      </g>
     </g>
    </g>
    <g id="xtick_2">
     <g id="line2d_3">
      <path clip-path="url(#pb76a6655fe)" d="M 110.225353 307.584 
L 110.225353 41.472 
" style="fill:none;stroke:#b0b0b0;stroke-linecap:square;stroke-width:0.8;"/>
     </g>
     <g id="line2d_4">
      <g>
       <use style="stroke:#000000;stroke-width:0.8;" x="110.225353" xlink:href="#m2f89a0f8aa" y="307.584"/>
      </g>
     </g>
     <g id="text_2">
      <!-- 2 -->
      <defs>
       <path d="M 19.1875 8.296875 
L 53.609375 8.296875 
L 53.609375 0 
L 7.328125 0 
L 7.328125 8.296875 
Q 12.9375 14.109375 22.625 23.890625 
Q 32.328125 33.6875 34.8125 36.53125 
Q 39.546875 41.84375 41.421875 45.53125 
Q 43.3125 49.21875 43.3125 52.78125 
Q 43.3125 58.59375 39.234375 62.25 
Q 35.15625 65.921875 28.609375 65.921875 
Q 23.96875 65.921875 18.8125 64.3125 
Q 13.671875 62.703125 7.8125 59.421875 
L 7.8125 69.390625 
Q 13.765625 71.78125 18.9375 73 
Q 24.125 74.21875 28.421875 74.21875 
Q 39.75 74.21875 46.484375 68.546875 
Q 53.21875 62.890625 53.21875 53.421875 
Q 53.21875 48.921875 51.53125 44.890625 
Q 49.859375 40.875 45.40625 35.40625 
Q 44.1875 33.984375 37.640625 27.21875 
Q 31.109375 20.453125 19.1875 8.296875 
z
" id="DejaVuSans-50"/>
      </defs>
      <g transform="translate(107.044103 322.182437)scale(0.1 -0.1)">
       <use xlink:href="#DejaVuSans-50"/>
      </g>
     </g>
    </g>
    <g id="xtick_3">
     <g id="line2d_5">
      <path clip-path="url(#pb76a6655fe)" d="M 162.850706 307.584 
L 162.850706 41.472 
" style="fill:none;stroke:#b0b0b0;stroke-linecap:square;stroke-width:0.8;"/>
     </g>
     <g id="line2d_6">
      <g>
       <use style="stroke:#000000;stroke-width:0.8;" x="162.850706" xlink:href="#m2f89a0f8aa" y="307.584"/>
      </g>
     </g>
     <g id="text_3">
      <!-- 4 -->
      <defs>
       <path d="M 37.796875 64.3125 
L 12.890625 25.390625 
L 37.796875 25.390625 
z
M 35.203125 72.90625 
L 47.609375 72.90625 
L 47.609375 25.390625 
L 58.015625 25.390625 
L 58.015625 17.1875 
L 47.609375 17.1875 
L 47.609375 0 
L 37.796875 0 
L 37.796875 17.1875 
L 4.890625 17.1875 
L 4.890625 26.703125 
z
" id="DejaVuSans-52"/>
      </defs>
      <g transform="translate(159.669456 322.182437)scale(0.1 -0.1)">
       <use xlink:href="#DejaVuSans-52"/>
      </g>
     </g>
    </g>
    <g id="xtick_4">
     <g id="line2d_7">
      <path clip-path="url(#pb76a6655fe)" d="M 215.476059 307.584 
L 215.476059 41.472 
" style="fill:none;stroke:#b0b0b0;stroke-linecap:square;stroke-width:0.8;"/>
     </g>
     <g id="line2d_8">
      <g>
       <use style="stroke:#000000;stroke-width:0.8;" x="215.476059" xlink:href="#m2f89a0f8aa" y="307.584"/>
      </g>
     </g>
     <g id="text_4">
      <!-- 6 -->
      <defs>
       <path d="M 33.015625 40.375 
Q 26.375 40.375 22.484375 35.828125 
Q 18.609375 31.296875 18.609375 23.390625 
Q 18.609375 15.53125 22.484375 10.953125 
Q 26.375 6.390625 33.015625 6.390625 
Q 39.65625 6.390625 43.53125 10.953125 
Q 47.40625 15.53125 47.40625 23.390625 
Q 47.40625 31.296875 43.53125 35.828125 
Q 39.65625 40.375 33.015625 40.375 
z
M 52.59375 71.296875 
L 52.59375 62.3125 
Q 48.875 64.0625 45.09375 64.984375 
Q 41.3125 65.921875 37.59375 65.921875 
Q 27.828125 65.921875 22.671875 59.328125 
Q 17.53125 52.734375 16.796875 39.40625 
Q 19.671875 43.65625 24.015625 45.921875 
Q 28.375 48.1875 33.59375 48.1875 
Q 44.578125 48.1875 50.953125 41.515625 
Q 57.328125 34.859375 57.328125 23.390625 
Q 57.328125 12.15625 50.6875 5.359375 
Q 44.046875 -1.421875 33.015625 -1.421875 
Q 20.359375 -1.421875 13.671875 8.265625 
Q 6.984375 17.96875 6.984375 36.375 
Q 6.984375 53.65625 15.1875 63.9375 
Q 23.390625 74.21875 37.203125 74.21875 
Q 40.921875 74.21875 44.703125 73.484375 
Q 48.484375 72.75 52.59375 71.296875 
z
" id="DejaVuSans-54"/>
      </defs>
      <g transform="translate(212.294809 322.182437)scale(0.1 -0.1)">
       <use xlink:href="#DejaVuSans-54"/>
      </g>
     </g>
    </g>
    <g id="xtick_5">
     <g id="line2d_9">
      <path clip-path="url(#pb76a6655fe)" d="M 268.101412 307.584 
L 268.101412 41.472 
" style="fill:none;stroke:#b0b0b0;stroke-linecap:square;stroke-width:0.8;"/>
     </g>
     <g id="line2d_10">
      <g>
       <use style="stroke:#000000;stroke-width:0.8;" x="268.101412" xlink:href="#m2f89a0f8aa" y="307.584"/>
      </g>
     </g>
     <g id="text_5">
      <!-- 8 -->
      <defs>
       <path d="M 31.78125 34.625 
Q 24.75 34.625 20.71875 30.859375 
Q 16.703125 27.09375 16.703125 20.515625 
Q 16.703125 13.921875 20.71875 10.15625 
Q 24.75 6.390625 31.78125 6.390625 
Q 38.8125 6.390625 42.859375 10.171875 
Q 46.921875 13.96875 46.921875 20.515625 
Q 46.921875 27.09375 42.890625 30.859375 
Q 38.875 34.625 31.78125 34.625 
z
M 21.921875 38.8125 
Q 15.578125 40.375 12.03125 44.71875 
Q 8.5 49.078125 8.5 55.328125 
Q 8.5 64.0625 14.71875 69.140625 
Q 20.953125 74.21875 31.78125 74.21875 
Q 42.671875 74.21875 48.875 69.140625 
Q 55.078125 64.0625 55.078125 55.328125 
Q 55.078125 49.078125 51.53125 44.71875 
Q 48 40.375 41.703125 38.8125 
Q 48.828125 37.15625 52.796875 32.3125 
Q 56.78125 27.484375 56.78125 20.515625 
Q 56.78125 9.90625 50.3125 4.234375 
Q 43.84375 -1.421875 31.78125 -1.421875 
Q 19.734375 -1.421875 13.25 4.234375 
Q 6.78125 9.90625 6.78125 20.515625 
Q 6.78125 27.484375 10.78125 32.3125 
Q 14.796875 37.15625 21.921875 38.8125 
z
M 18.3125 54.390625 
Q 18.3125 48.734375 21.84375 45.5625 
Q 25.390625 42.390625 31.78125 42.390625 
Q 38.140625 42.390625 41.71875 45.5625 
Q 45.3125 48.734375 45.3125 54.390625 
Q 45.3125 60.0625 41.71875 63.234375 
Q 38.140625 66.40625 31.78125 66.40625 
Q 25.390625 66.40625 21.84375 63.234375 
Q 18.3125 60.0625 18.3125 54.390625 
z
" id="DejaVuSans-56"/>
      </defs>
      <g transform="translate(264.920162 322.182437)scale(0.1 -0.1)">
       <use xlink:href="#DejaVuSans-56"/>
      </g>
     </g>
    </g>
    <g id="xtick_6">
     <g id="line2d_11">
      <path clip-path="url(#pb76a6655fe)" d="M 320.726765 307.584 
L 320.726765 41.472 
" style="fill:none;stroke:#b0b0b0;stroke-linecap:square;stroke-width:0.8;"/>
     </g>
     <g id="line2d_12">
      <g>
       <use style="stroke:#000000;stroke-width:0.8;" x="320.726765" xlink:href="#m2f89a0f8aa" y="307.584"/>
      </g>
     </g>
     <g id="text_6">
      <!-- 10 -->
      <defs>
       <path d="M 12.40625 8.296875 
L 28.515625 8.296875 
L 28.515625 63.921875 
L 10.984375 60.40625 
L 10.984375 69.390625 
L 28.421875 72.90625 
L 38.28125 72.90625 
L 38.28125 8.296875 
L 54.390625 8.296875 
L 54.390625 0 
L 12.40625 0 
z
" id="DejaVuSans-49"/>
      </defs>
      <g transform="translate(314.364265 322.182437)scale(0.1 -0.1)">
       <use xlink:href="#DejaVuSans-49"/>
       <use x="63.623047" xlink:href="#DejaVuSans-48"/>
      </g>
     </g>
    </g>
    <g id="xtick_7">
     <g id="line2d_13">
      <path clip-path="url(#pb76a6655fe)" d="M 373.352118 307.584 
L 373.352118 41.472 
" style="fill:none;stroke:#b0b0b0;stroke-linecap:square;stroke-width:0.8;"/>
     </g>
     <g id="line2d_14">
      <g>
       <use style="stroke:#000000;stroke-width:0.8;" x="373.352118" xlink:href="#m2f89a0f8aa" y="307.584"/>
      </g>
     </g>
     <g id="text_7">
      <!-- 12 -->
      <g transform="translate(366.989618 322.182437)scale(0.1 -0.1)">
       <use xlink:href="#DejaVuSans-49"/>
       <use x="63.623047" xlink:href="#DejaVuSans-50"/>
      </g>
     </g>
    </g>
    <g id="text_8">
     <!-- Hours -->
     <defs>
      <path d="M 9.8125 72.90625 
L 19.671875 72.90625 
L 19.671875 43.015625 
L 55.515625 43.015625 
L 55.515625 72.90625 
L 65.375 72.90625 
L 65.375 0 
L 55.515625 0 
L 55.515625 34.71875 
L 19.671875 34.71875 
L 19.671875 0 
L 9.8125 0 
z
" id="DejaVuSans-72"/>
      <path d="M 30.609375 48.390625 
Q 23.390625 48.390625 19.1875 42.75 
Q 14.984375 37.109375 14.984375 27.296875 
Q 14.984375 17.484375 19.15625 11.84375 
Q 23.34375 6.203125 30.609375 6.203125 
Q 37.796875 6.203125 41.984375 11.859375 
Q 46.1875 17.53125 46.1875 27.296875 
Q 46.1875 37.015625 41.984375 42.703125 
Q 37.796875 48.390625 30.609375 48.390625 
z
M 30.609375 56 
Q 42.328125 56 49.015625 48.375 
Q 55.71875 40.765625 55.71875 27.296875 
Q 55.71875 13.875 49.015625 6.21875 
Q 42.328125 -1.421875 30.609375 -1.421875 
Q 18.84375 -1.421875 12.171875 6.21875 
Q 5.515625 13.875 5.515625 27.296875 
Q 5.515625 40.765625 12.171875 48.375 
Q 18.84375 56 30.609375 56 
z
" id="DejaVuSans-111"/>
      <path d="M 8.5 21.578125 
L 8.5 54.6875 
L 17.484375 54.6875 
L 17.484375 21.921875 
Q 17.484375 14.15625 20.5 10.265625 
Q 23.53125 6.390625 29.59375 6.390625 
Q 36.859375 6.390625 41.078125 11.03125 
Q 45.3125 15.671875 45.3125 23.6875 
L 45.3125 54.6875 
L 54.296875 54.6875 
L 54.296875 0 
L 45.3125 0 
L 45.3125 8.40625 
Q 42.046875 3.421875 37.71875 1 
Q 33.40625 -1.421875 27.6875 -1.421875 
Q 18.265625 -1.421875 13.375 4.4375 
Q 8.5 10.296875 8.5 21.578125 
z
M 31.109375 56 
z
" id="DejaVuSans-117"/>
      <path d="M 41.109375 46.296875 
Q 39.59375 47.171875 37.8125 47.578125 
Q 36.03125 48 33.890625 48 
Q 26.265625 48 22.1875 43.046875 
Q 18.109375 38.09375 18.109375 28.8125 
L 18.109375 0 
L 9.078125 0 
L 9.078125 54.6875 
L 18.109375 54.6875 
L 18.109375 46.1875 
Q 20.953125 51.171875 25.484375 53.578125 
Q 30.03125 56 36.53125 56 
Q 37.453125 56 38.578125 55.875 
Q 39.703125 55.765625 41.0625 55.515625 
z
" id="DejaVuSans-114"/>
      <path d="M 44.28125 53.078125 
L 44.28125 44.578125 
Q 40.484375 46.53125 36.375 47.5 
Q 32.28125 48.484375 27.875 48.484375 
Q 21.1875 48.484375 17.84375 46.4375 
Q 14.5 44.390625 14.5 40.28125 
Q 14.5 37.15625 16.890625 35.375 
Q 19.28125 33.59375 26.515625 31.984375 
L 29.59375 31.296875 
Q 39.15625 29.25 43.1875 25.515625 
Q 47.21875 21.78125 47.21875 15.09375 
Q 47.21875 7.46875 41.1875 3.015625 
Q 35.15625 -1.421875 24.609375 -1.421875 
Q 20.21875 -1.421875 15.453125 -0.5625 
Q 10.6875 0.296875 5.421875 2 
L 5.421875 11.28125 
Q 10.40625 8.6875 15.234375 7.390625 
Q 20.0625 6.109375 24.8125 6.109375 
Q 31.15625 6.109375 34.5625 8.28125 
Q 37.984375 10.453125 37.984375 14.40625 
Q 37.984375 18.0625 35.515625 20.015625 
Q 33.0625 21.96875 24.703125 23.78125 
L 21.578125 24.515625 
Q 13.234375 26.265625 9.515625 29.90625 
Q 5.8125 33.546875 5.8125 39.890625 
Q 5.8125 47.609375 11.28125 51.796875 
Q 16.75 56 26.8125 56 
Q 31.78125 56 36.171875 55.265625 
Q 40.578125 54.546875 44.28125 53.078125 
z
" id="DejaVuSans-115"/>
     </defs>
     <g transform="translate(221.511562 335.860562)scale(0.1 -0.1)">
      <use xlink:href="#DejaVuSans-72"/>
      <use x="75.195312" xlink:href="#DejaVuSans-111"/>
      <use x="136.376953" xlink:href="#DejaVuSans-117"/>
      <use x="199.755859" xlink:href="#DejaVuSans-114"/>
      <use x="240.869141" xlink:href="#DejaVuSans-115"/>
     </g>
    </g>
   </g>
   <g id="matplotlib.axis_2">
    <g id="ytick_1">
     <g id="line2d_15">
      <path clip-path="url(#pb76a6655fe)" d="M 57.6 286.291002 
L 414.72 286.291002 
" style="fill:none;stroke:#b0b0b0;stroke-linecap:square;stroke-width:0.8;"/>
     </g>
     <g id="line2d_16">
      <defs>
       <path d="M 0 0 
L -3.5 0 
" id="ma6ecf2486c" style="stroke:#000000;stroke-width:0.8;"/>
      </defs>
      <g>
       <use style="stroke:#000000;stroke-width:0.8;" x="57.6" xlink:href="#ma6ecf2486c" y="286.291002"/>
      </g>
     </g>
     <g id="text_9">
      <!-- −0.6 -->
      <defs>
       <path d="M 10.59375 35.5 
L 73.1875 35.5 
L 73.1875 27.203125 
L 10.59375 27.203125 
z
" id="DejaVuSans-8722"/>
       <path d="M 10.6875 12.40625 
L 21 12.40625 
L 21 0 
L 10.6875 0 
z
" id="DejaVuSans-46"/>
      </defs>
      <g transform="translate(26.317187 290.090221)scale(0.1 -0.1)">
       <use xlink:href="#DejaVuSans-8722"/>
       <use x="83.789062" xlink:href="#DejaVuSans-48"/>
       <use x="147.412109" xlink:href="#DejaVuSans-46"/>
       <use x="179.199219" xlink:href="#DejaVuSans-54"/>
      </g>
     </g>
    </g>
    <g id="ytick_2">
     <g id="line2d_17">
      <path clip-path="url(#pb76a6655fe)" d="M 57.6 250.286257 
L 414.72 250.286257 
" style="fill:none;stroke:#b0b0b0;stroke-linecap:square;stroke-width:0.8;"/>
     </g>
     <g id="line2d_18">
      <g>
       <use style="stroke:#000000;stroke-width:0.8;" x="57.6" xlink:href="#ma6ecf2486c" y="250.286257"/>
      </g>
     </g>
     <g id="text_10">
      <!-- −0.4 -->
      <g transform="translate(26.317187 254.085476)scale(0.1 -0.1)">
       <use xlink:href="#DejaVuSans-8722"/>
       <use x="83.789062" xlink:href="#DejaVuSans-48"/>
       <use x="147.412109" xlink:href="#DejaVuSans-46"/>
       <use x="179.199219" xlink:href="#DejaVuSans-52"/>
      </g>
     </g>
    </g>
    <g id="ytick_3">
     <g id="line2d_19">
      <path clip-path="url(#pb76a6655fe)" d="M 57.6 214.281513 
L 414.72 214.281513 
" style="fill:none;stroke:#b0b0b0;stroke-linecap:square;stroke-width:0.8;"/>
     </g>
     <g id="line2d_20">
      <g>
       <use style="stroke:#000000;stroke-width:0.8;" x="57.6" xlink:href="#ma6ecf2486c" y="214.281513"/>
      </g>
     </g>
     <g id="text_11">
      <!-- −0.2 -->
      <g transform="translate(26.317187 218.080732)scale(0.1 -0.1)">
       <use xlink:href="#DejaVuSans-8722"/>
       <use x="83.789062" xlink:href="#DejaVuSans-48"/>
       <use x="147.412109" xlink:href="#DejaVuSans-46"/>
       <use x="179.199219" xlink:href="#DejaVuSans-50"/>
      </g>
     </g>
    </g>
    <g id="ytick_4">
     <g id="line2d_21">
      <path clip-path="url(#pb76a6655fe)" d="M 57.6 178.276768 
L 414.72 178.276768 
" style="fill:none;stroke:#b0b0b0;stroke-linecap:square;stroke-width:0.8;"/>
     </g>
     <g id="line2d_22">
      <g>
       <use style="stroke:#000000;stroke-width:0.8;" x="57.6" xlink:href="#ma6ecf2486c" y="178.276768"/>
      </g>
     </g>
     <g id="text_12">
      <!-- 0.0 -->
      <g transform="translate(34.696875 182.075987)scale(0.1 -0.1)">
       <use xlink:href="#DejaVuSans-48"/>
       <use x="63.623047" xlink:href="#DejaVuSans-46"/>
       <use x="95.410156" xlink:href="#DejaVuSans-48"/>
      </g>
     </g>
    </g>
    <g id="ytick_5">
     <g id="line2d_23">
      <path clip-path="url(#pb76a6655fe)" d="M 57.6 142.272024 
L 414.72 142.272024 
" style="fill:none;stroke:#b0b0b0;stroke-linecap:square;stroke-width:0.8;"/>
     </g>
     <g id="line2d_24">
      <g>
       <use style="stroke:#000000;stroke-width:0.8;" x="57.6" xlink:href="#ma6ecf2486c" y="142.272024"/>
      </g>
     </g>
     <g id="text_13">
      <!-- 0.2 -->
      <g transform="translate(34.696875 146.071243)scale(0.1 -0.1)">
       <use xlink:href="#DejaVuSans-48"/>
       <use x="63.623047" xlink:href="#DejaVuSans-46"/>
       <use x="95.410156" xlink:href="#DejaVuSans-50"/>
      </g>
     </g>
    </g>
    <g id="ytick_6">
     <g id="line2d_25">
      <path clip-path="url(#pb76a6655fe)" d="M 57.6 106.267279 
L 414.72 106.267279 
" style="fill:none;stroke:#b0b0b0;stroke-linecap:square;stroke-width:0.8;"/>
     </g>
     <g id="line2d_26">
      <g>
       <use style="stroke:#000000;stroke-width:0.8;" x="57.6" xlink:href="#ma6ecf2486c" y="106.267279"/>
      </g>
     </g>
     <g id="text_14">
      <!-- 0.4 -->
      <g transform="translate(34.696875 110.066498)scale(0.1 -0.1)">
       <use xlink:href="#DejaVuSans-48"/>
       <use x="63.623047" xlink:href="#DejaVuSans-46"/>
       <use x="95.410156" xlink:href="#DejaVuSans-52"/>
      </g>
     </g>
    </g>
    <g id="ytick_7">
     <g id="line2d_27">
      <path clip-path="url(#pb76a6655fe)" d="M 57.6 70.262535 
L 414.72 70.262535 
" style="fill:none;stroke:#b0b0b0;stroke-linecap:square;stroke-width:0.8;"/>
     </g>
     <g id="line2d_28">
      <g>
       <use style="stroke:#000000;stroke-width:0.8;" x="57.6" xlink:href="#ma6ecf2486c" y="70.262535"/>
      </g>
     </g>
     <g id="text_15">
      <!-- 0.6 -->
      <g transform="translate(34.696875 74.061754)scale(0.1 -0.1)">
       <use xlink:href="#DejaVuSans-48"/>
       <use x="63.623047" xlink:href="#DejaVuSans-46"/>
       <use x="95.410156" xlink:href="#DejaVuSans-54"/>
      </g>
     </g>
    </g>
    <g id="text_16">
     <!-- Total loss -->
     <defs>
      <path d="M -0.296875 72.90625 
L 61.375 72.90625 
L 61.375 64.59375 
L 35.5 64.59375 
L 35.5 0 
L 25.59375 0 
L 25.59375 64.59375 
L -0.296875 64.59375 
z
" id="DejaVuSans-84"/>
      <path d="M 18.3125 70.21875 
L 18.3125 54.6875 
L 36.8125 54.6875 
L 36.8125 47.703125 
L 18.3125 47.703125 
L 18.3125 18.015625 
Q 18.3125 11.328125 20.140625 9.421875 
Q 21.96875 7.515625 27.59375 7.515625 
L 36.8125 7.515625 
L 36.8125 0 
L 27.59375 0 
Q 17.1875 0 13.234375 3.875 
Q 9.28125 7.765625 9.28125 18.015625 
L 9.28125 47.703125 
L 2.6875 47.703125 
L 2.6875 54.6875 
L 9.28125 54.6875 
L 9.28125 70.21875 
z
" id="DejaVuSans-116"/>
      <path d="M 34.28125 27.484375 
Q 23.390625 27.484375 19.1875 25 
Q 14.984375 22.515625 14.984375 16.5 
Q 14.984375 11.71875 18.140625 8.90625 
Q 21.296875 6.109375 26.703125 6.109375 
Q 34.1875 6.109375 38.703125 11.40625 
Q 43.21875 16.703125 43.21875 25.484375 
L 43.21875 27.484375 
z
M 52.203125 31.203125 
L 52.203125 0 
L 43.21875 0 
L 43.21875 8.296875 
Q 40.140625 3.328125 35.546875 0.953125 
Q 30.953125 -1.421875 24.3125 -1.421875 
Q 15.921875 -1.421875 10.953125 3.296875 
Q 6 8.015625 6 15.921875 
Q 6 25.140625 12.171875 29.828125 
Q 18.359375 34.515625 30.609375 34.515625 
L 43.21875 34.515625 
L 43.21875 35.40625 
Q 43.21875 41.609375 39.140625 45 
Q 35.0625 48.390625 27.6875 48.390625 
Q 23 48.390625 18.546875 47.265625 
Q 14.109375 46.140625 10.015625 43.890625 
L 10.015625 52.203125 
Q 14.9375 54.109375 19.578125 55.046875 
Q 24.21875 56 28.609375 56 
Q 40.484375 56 46.34375 49.84375 
Q 52.203125 43.703125 52.203125 31.203125 
z
" id="DejaVuSans-97"/>
      <path d="M 9.421875 75.984375 
L 18.40625 75.984375 
L 18.40625 0 
L 9.421875 0 
z
" id="DejaVuSans-108"/>
      <path id="DejaVuSans-32"/>
     </defs>
     <g transform="translate(20.2375 198.288156)rotate(-90)scale(0.1 -0.1)">
      <use xlink:href="#DejaVuSans-84"/>
      <use x="60.818359" xlink:href="#DejaVuSans-111"/>
      <use x="122" xlink:href="#DejaVuSans-116"/>
      <use x="161.208984" xlink:href="#DejaVuSans-97"/>
      <use x="222.488281" xlink:href="#DejaVuSans-108"/>
      <use x="250.271484" xlink:href="#DejaVuSans-32"/>
      <use x="282.058594" xlink:href="#DejaVuSans-108"/>
      <use x="309.841797" xlink:href="#DejaVuSans-111"/>
      <use x="371.023438" xlink:href="#DejaVuSans-115"/>
      <use x="423.123047" xlink:href="#DejaVuSans-115"/>
     </g>
    </g>
   </g>
   <g id="line2d_29">
    <path clip-path="url(#pb76a6655fe)" d="M 57.6 97.18659 
L 58.232656 186.646404 
L 58.862905 234.407017 
L 59.501312 203.840355 
L 60.132424 162.301501 
L 60.766877 230.649139 
L 61.392865 174.508023 
L 62.024443 164.392493 
L 62.654995 231.080651 
L 63.294747 234.061353 
L 63.941665 271.054555 
L 64.580556 247.041833 
L 65.221524 153.49003 
L 65.869898 221.980605 
L 66.511182 172.800221 
L 67.149116 216.702845 
L 67.794104 224.997087 
L 68.426924 188.491387 
L 69.056699 193.580573 
L 69.69544 219.285955 
L 70.327825 196.944013 
L 70.959686 243.512922 
L 71.595199 213.140088 
L 72.22908 231.438322 
L 72.863039 224.961103 
L 73.49864 242.587706 
L 74.13054 210.224146 
L 74.755348 243.194427 
L 75.401473 248.915743 
L 76.03392 183.807216 
L 76.67748 234.26262 
L 77.323317 213.182387 
L 77.964245 210.379667 
L 78.600597 269.090845 
L 79.242972 177.101966 
L 79.890351 240.86754 
L 80.529672 259.359076 
L 81.160203 263.246727 
L 81.79946 200.092904 
L 82.432709 222.680474 
L 83.063791 169.287949 
L 83.702395 154.236437 
L 84.332245 278.944862 
L 84.965534 221.485956 
L 85.600601 184.942337 
L 86.246302 229.733639 
L 86.885439 216.457133 
L 87.518931 223.639458 
L 88.165253 183.196267 
L 88.799677 222.372481 
L 89.434187 242.434715 
L 90.081467 220.779058 
L 90.720584 256.723754 
L 91.353413 143.441857 
L 91.999281 204.835081 
L 92.639228 170.600974 
L 93.918837 247.9963 
L 94.55619 193.589189 
L 95.193488 180.922169 
L 95.828933 209.56622 
L 96.458847 246.916933 
L 97.088848 156.317952 
L 97.719471 218.70147 
L 98.355019 183.612504 
L 98.993523 210.178864 
L 99.623676 199.735592 
L 100.258403 227.551032 
L 100.892152 189.598714 
L 101.529875 169.826202 
L 102.162477 257.502266 
L 102.795381 206.394501 
L 103.431372 188.157928 
L 104.060415 182.417028 
L 104.695359 220.668507 
L 105.322611 199.272529 
L 105.953123 190.590261 
L 106.577663 262.531378 
L 107.21388 267.530495 
L 107.852453 205.107034 
L 108.487078 206.63955 
L 109.116868 195.370408 
L 109.759138 222.742573 
L 110.390467 259.995584 
L 111.023656 245.325015 
L 111.658716 258.080235 
L 112.28698 295.488 
L 112.919598 187.283874 
L 113.55645 184.688422 
L 114.190701 204.817342 
L 114.827021 237.314572 
L 115.467949 229.856866 
L 116.10391 195.036561 
L 116.736421 181.996185 
L 117.378997 245.411018 
L 118.008738 221.382635 
L 118.636643 177.962226 
L 119.275416 257.680962 
L 119.910553 259.71737 
L 120.541272 253.069374 
L 121.175055 220.82534 
L 121.817643 231.460614 
L 122.452176 195.816373 
L 123.082535 244.316961 
L 123.721439 234.457493 
L 124.346914 196.414698 
L 124.976747 256.064632 
L 125.620913 170.326942 
L 126.249601 188.699621 
L 126.881061 261.3614 
L 127.522873 214.260758 
L 128.158038 218.726884 
L 128.793468 207.831681 
L 129.432315 161.747937 
L 130.064701 178.735309 
L 130.6986 261.224632 
L 131.339234 181.028088 
L 131.976049 172.441691 
L 132.60851 232.124393 
L 133.252634 212.293034 
L 133.897401 228.634572 
L 134.535628 274.75279 
L 135.186526 249.294252 
L 135.826506 198.148794 
L 136.471751 247.532077 
L 137.11862 224.584504 
L 137.756699 227.894662 
L 138.393321 186.519113 
L 139.02981 210.174529 
L 139.666322 184.404547 
L 140.309551 253.591948 
L 140.945942 244.690465 
L 141.576443 179.645294 
L 142.208983 177.856373 
L 142.846484 161.338787 
L 143.48338 211.007808 
L 144.118596 223.310678 
L 144.75081 194.624913 
L 145.383307 201.59358 
L 146.014115 183.279055 
L 147.292661 231.159937 
L 147.926216 267.613874 
L 148.56585 164.064228 
L 149.199761 187.570852 
L 149.823101 179.746925 
L 150.466361 139.864491 
L 151.10141 221.91522 
L 151.735533 216.34879 
L 152.372732 260.730204 
L 153.001469 222.645049 
L 153.636778 261.374539 
L 154.279952 251.992363 
L 154.913675 257.167557 
L 155.542814 237.193556 
L 156.193694 249.184648 
L 156.839294 194.302783 
L 157.477812 176.99419 
L 158.775329 203.408999 
L 159.420845 193.399214 
L 160.055978 164.267298 
L 160.687448 193.764752 
L 161.321638 156.817725 
L 161.962139 188.64189 
L 162.590345 225.917662 
L 163.228646 239.927152 
L 163.855243 214.706853 
L 164.498696 238.014935 
L 165.120767 241.976077 
L 165.757305 234.065114 
L 166.392856 216.950789 
L 167.030413 206.682299 
L 167.67509 224.786383 
L 168.310387 196.763806 
L 168.943636 212.242908 
L 170.20994 151.368231 
L 170.831791 246.797618 
L 171.467491 244.283451 
L 172.099641 246.422515 
L 172.733237 186.204006 
L 173.372483 172.240359 
L 174.0041 233.001365 
L 174.63678 272.184537 
L 175.27717 184.102096 
L 175.909994 241.961178 
L 176.542016 243.333292 
L 177.184086 233.58611 
L 177.817939 211.491662 
L 178.453377 161.581913 
L 179.095998 184.800943 
L 179.731477 193.64614 
L 180.355461 226.403227 
L 180.992101 235.321852 
L 181.625548 250.487536 
L 182.258123 189.802652 
L 182.895541 199.149005 
L 183.527959 227.597316 
L 184.16211 224.965449 
L 184.79501 246.523723 
L 185.427881 201.033853 
L 186.057575 243.572566 
L 186.697582 53.568 
L 187.32953 274.316895 
L 187.961424 195.928121 
L 188.594062 250.800028 
L 189.226863 195.528379 
L 189.864989 235.596348 
L 190.49871 152.590377 
L 191.131831 252.195985 
L 191.77094 194.304664 
L 192.404278 158.914306 
L 193.037626 198.617476 
L 193.673644 203.458122 
L 194.307598 172.164155 
L 194.937639 216.199412 
L 195.577634 227.81087 
L 196.211948 111.951543 
L 196.84709 221.073287 
L 197.48368 224.892473 
L 198.115272 281.157697 
L 198.736078 286.886406 
L 199.371041 206.713229 
L 200.00621 208.545116 
L 200.636031 225.065943 
L 201.276515 226.651343 
L 201.915906 269.842896 
L 202.554617 206.665029 
L 203.345796 228.564337 
L 203.986521 178.675006 
L 204.619646 227.640291 
L 205.397059 171.183392 
L 206.035922 234.389001 
L 206.665634 228.016751 
L 207.291719 208.822029 
L 207.93199 206.237665 
L 208.565479 194.761708 
L 209.198413 191.389949 
L 209.837867 212.612844 
L 210.470848 260.910161 
L 211.73867 207.304903 
L 212.374631 235.000025 
L 213.654747 254.679293 
L 214.303769 229.652766 
L 214.944711 245.127793 
L 215.576327 227.251819 
L 216.224816 201.391857 
L 216.861251 272.008893 
L 217.49079 253.192879 
L 218.122027 243.755045 
L 218.754892 215.477338 
L 219.385415 234.718538 
L 220.02238 246.194326 
L 220.646615 194.399068 
L 221.279316 198.741163 
L 221.912978 210.25282 
L 222.549425 200.497039 
L 223.183365 218.914454 
L 223.826375 231.942612 
L 224.460591 278.607589 
L 225.087756 211.234066 
L 225.880585 197.019725 
L 226.495246 231.557219 
L 227.128181 251.391855 
L 227.766647 213.062104 
L 228.392275 245.107722 
L 229.024989 228.390073 
L 229.664677 216.151925 
L 230.289051 248.913017 
L 230.914838 224.982403 
L 231.784473 115.925067 
L 233.051822 270.021254 
L 233.691867 244.379073 
L 234.327076 247.603953 
L 234.962225 214.163113 
L 235.597856 169.756454 
L 236.232536 233.53894 
L 236.86504 208.689755 
L 237.507362 232.774002 
L 238.1438 219.845454 
L 238.770601 191.28525 
L 239.41049 186.160554 
L 240.042297 243.47667 
L 240.674646 205.843427 
L 241.31448 213.165345 
L 241.939663 183.458251 
L 242.572403 232.992771 
L 243.213009 228.611239 
L 243.84428 183.463965 
L 244.475335 178.392575 
L 245.114538 217.785436 
L 245.748006 162.096792 
L 246.381526 194.590721 
L 247.022722 255.006034 
L 247.657297 194.009952 
L 248.292294 233.632476 
L 248.933793 262.279904 
L 249.567927 222.657123 
L 250.200965 221.018866 
L 250.840094 199.96474 
L 251.472712 195.76322 
L 252.098928 159.093772 
L 252.741043 242.250782 
L 253.373941 206.302607 
L 254.004409 241.59291 
L 255.279349 186.613872 
L 255.912814 186.527772 
L 257.204472 231.87015 
L 257.848744 227.302165 
L 258.498996 64.465792 
L 259.141179 114.817093 
L 259.783741 245.437559 
L 260.433399 253.595409 
L 261.692258 186.453261 
L 262.3332 213.157396 
L 262.965387 227.568828 
L 263.599019 182.703112 
L 264.239019 213.290712 
L 264.873177 229.462411 
L 265.505151 264.173268 
L 266.138221 252.408718 
L 266.772145 213.963402 
L 267.404283 209.017145 
L 268.04408 272.323944 
L 268.678016 287.247576 
L 269.309631 210.860482 
L 269.950786 216.352682 
L 270.58263 236.436789 
L 271.213936 237.283121 
L 271.84475 240.66954 
L 272.477791 256.070995 
L 273.103399 226.548241 
L 273.743085 230.857005 
L 274.378686 262.535944 
L 275.01475 199.982761 
L 275.656545 188.115823 
L 276.286461 210.534744 
L 276.919728 206.187884 
L 277.561876 181.738704 
L 278.196474 212.894846 
L 278.830543 222.847139 
L 279.461414 249.534932 
L 280.721253 188.276174 
L 281.361964 273.774212 
L 281.991999 213.783549 
L 282.623278 239.826395 
L 283.263008 185.758302 
L 283.894766 152.699283 
L 284.526107 213.902333 
L 285.164168 188.28304 
L 285.79703 235.896076 
L 286.429862 238.076752 
L 287.714289 207.2885 
L 288.353146 257.010965 
L 288.999691 171.598092 
L 289.638806 230.043808 
L 290.260688 251.166493 
L 290.898682 260.752094 
L 291.526164 162.340119 
L 292.15827 184.235762 
L 292.790481 171.343246 
L 293.423725 222.246334 
L 294.055146 252.999767 
L 294.695955 164.953553 
L 295.32401 268.501056 
L 295.95926 231.623494 
L 296.605888 224.195291 
L 297.242782 240.914662 
L 297.881182 225.421592 
L 298.527899 197.765643 
L 299.166725 252.607829 
L 299.804996 200.890076 
L 300.448996 246.824513 
L 301.713081 189.328538 
L 302.356586 189.284253 
L 302.991594 246.151185 
L 303.620267 168.692946 
L 304.263087 196.646272 
L 304.895545 210.523681 
L 306.165925 223.822098 
L 306.798558 245.265295 
L 307.43302 199.181774 
L 308.071979 221.920802 
L 308.70561 209.102566 
L 309.338276 183.962574 
L 309.979266 202.220629 
L 310.609414 242.439007 
L 311.240267 191.746324 
L 311.879432 269.116232 
L 312.511347 225.480742 
L 313.138163 223.077695 
L 313.788551 235.264155 
L 314.424667 257.083968 
L 315.714432 172.721129 
L 316.352239 222.593458 
L 317.634923 73.100199 
L 318.266006 160.490226 
L 318.897843 188.355326 
L 319.536298 200.980878 
L 320.168116 223.134369 
L 320.799322 189.574177 
L 321.439737 225.905687 
L 322.071189 198.3611 
L 322.702237 232.245183 
L 323.340254 204.364286 
L 323.97246 253.835895 
L 324.589354 265.729132 
L 325.227111 228.520166 
L 325.860175 229.464992 
L 326.492527 243.659701 
L 327.12917 219.724768 
L 327.754563 160.566982 
L 328.386924 247.029966 
L 329.026626 261.261426 
L 329.656932 234.740347 
L 330.288601 200.868811 
L 330.930206 247.172152 
L 331.56674 239.825343 
L 332.198325 148.900456 
L 332.840788 205.511522 
L 333.475569 218.935344 
L 334.110332 166.43036 
L 334.75287 257.159794 
L 335.392439 199.326657 
L 336.033395 200.66116 
L 336.683799 208.947616 
L 337.324507 180.047285 
L 337.965357 191.401383 
L 338.614831 222.239767 
L 339.257062 204.668435 
L 339.890743 203.783662 
L 340.522678 249.312161 
L 341.154952 247.754923 
L 341.786897 276.56133 
L 342.425253 186.54602 
L 343.052793 216.986658 
L 343.683604 214.134539 
L 344.332226 249.567165 
L 344.970478 150.106893 
L 345.613209 215.318144 
L 346.261089 237.642263 
L 346.904936 253.729215 
L 348.219153 215.430517 
L 348.850109 232.442668 
L 349.480981 240.064992 
L 350.120151 180.227174 
L 350.745002 211.414935 
L 351.376039 208.454288 
L 352.015912 207.91043 
L 352.646243 242.031751 
L 353.279781 195.809711 
L 353.920558 236.729752 
L 354.548 157.2765 
L 355.178966 239.060528 
L 355.80932 219.395044 
L 356.441894 249.218647 
L 357.077826 201.995243 
L 357.74688 210.106682 
L 358.379217 222.715031 
L 359.008039 176.487917 
L 359.646108 199.602443 
L 360.275789 141.146321 
L 360.907044 249.898628 
L 361.546131 246.493399 
L 362.17811 80.03281 
L 362.810107 232.182368 
L 363.44765 160.123683 
L 364.077816 223.29887 
L 364.710019 237.403869 
L 365.350228 247.738591 
L 365.982213 196.521537 
L 366.615184 272.138515 
L 367.242722 207.349085 
L 367.876508 257.210151 
L 368.502138 200.797409 
L 369.144488 251.868477 
L 369.778372 219.861603 
L 370.411352 228.923956 
L 371.050864 263.917931 
L 371.683149 220.523705 
L 372.315703 226.167199 
L 372.955603 208.905103 
L 373.589068 240.080197 
L 374.221755 221.789654 
L 374.861664 210.698176 
L 375.494913 253.59594 
L 376.128906 225.441931 
L 376.762136 204.525149 
L 377.393896 205.678074 
L 378.026088 206.103652 
L 378.665433 243.088637 
L 379.297395 250.683428 
L 379.92412 171.257622 
L 380.56271 200.646609 
L 381.19505 250.004745 
L 381.826941 236.227801 
L 382.466403 209.389708 
L 383.250171 187.996761 
L 383.888057 197.778794 
L 384.519465 229.874313 
L 385.157516 232.812797 
L 385.805236 207.131154 
L 386.442615 262.799597 
L 387.082464 269.557664 
L 387.728294 164.629409 
L 388.368275 254.076939 
L 389.009305 139.382262 
L 389.656207 201.929241 
L 390.298005 239.655859 
L 390.940028 221.818524 
L 391.588712 240.053318 
L 392.220432 236.052303 
L 392.854941 218.590457 
L 393.487979 219.075159 
L 394.121637 155.408422 
L 394.762151 279.475291 
L 395.395344 219.789729 
L 396.02852 215.509403 
L 396.666932 93.943849 
L 397.284776 257.02904 
L 397.916271 256.747935 
L 398.554771 222.295425 
L 399.186246 247.276493 
L 399.818848 233.383116 
L 400.458233 236.074064 
L 401.090863 148.470371 
L 401.723539 274.05983 
L 402.36111 202.839502 
L 402.979589 281.923462 
L 403.764179 225.423314 
L 404.556112 257.577453 
L 405.187358 191.279592 
L 405.81994 219.460493 
L 406.460508 234.727557 
L 407.092862 201.560043 
L 407.726391 221.376709 
L 408.364855 236.894338 
L 408.997614 146.35509 
L 409.6302 223.595416 
L 410.27112 243.491118 
L 410.906152 165.149759 
L 411.541143 195.351972 
L 412.182901 204.310099 
L 412.816834 265.647658 
L 413.452033 206.999655 
L 414.094035 206.984029 
L 414.72 222.364125 
L 414.72 222.364125 
" style="fill:none;stroke:#000000;stroke-linecap:square;stroke-width:0.8;"/>
   </g>
   <g id="patch_3">
    <path d="M 57.6 307.584 
L 57.6 41.472 
" style="fill:none;stroke:#000000;stroke-linecap:square;stroke-linejoin:miter;stroke-width:0.8;"/>
   </g>
   <g id="patch_4">
    <path d="M 414.72 307.584 
L 414.72 41.472 
" style="fill:none;stroke:#000000;stroke-linecap:square;stroke-linejoin:miter;stroke-width:0.8;"/>
   </g>
   <g id="patch_5">
    <path d="M 57.6 307.584 
L 414.72 307.584 
" style="fill:none;stroke:#000000;stroke-linecap:square;stroke-linejoin:miter;stroke-width:0.8;"/>
   </g>
   <g id="patch_6">
    <path d="M 57.6 41.472 
L 414.72 41.472 
" style="fill:none;stroke:#000000;stroke-linecap:square;stroke-linejoin:miter;stroke-width:0.8;"/>
   </g>
  </g>
  <g id="axes_2">
   <g id="matplotlib.axis_3">
    <g id="xtick_8">
     <g id="line2d_30">
      <defs>
       <path d="M 0 0 
L 0 -3.5 
" id="m73e085e6e5" style="stroke:#000000;stroke-width:0.8;"/>
      </defs>
      <g>
       <use style="stroke:#000000;stroke-width:0.8;" x="57.6" xlink:href="#m73e085e6e5" y="41.472"/>
      </g>
     </g>
    </g>
    <g id="xtick_9">
     <g id="line2d_31">
      <g>
       <use style="stroke:#000000;stroke-width:0.8;" x="121.257754" xlink:href="#m73e085e6e5" y="41.472"/>
      </g>
     </g>
     <g id="text_17">
      <!-- 100K -->
      <defs>
       <path d="M 9.8125 72.90625 
L 19.671875 72.90625 
L 19.671875 42.09375 
L 52.390625 72.90625 
L 65.09375 72.90625 
L 28.90625 38.921875 
L 67.671875 0 
L 54.6875 0 
L 19.671875 35.109375 
L 19.671875 0 
L 9.8125 0 
z
" id="DejaVuSans-75"/>
      </defs>
      <g transform="translate(108.435098 32.392313)scale(0.1 -0.1)">
       <use xlink:href="#DejaVuSans-49"/>
       <use x="63.623047" xlink:href="#DejaVuSans-48"/>
       <use x="127.246094" xlink:href="#DejaVuSans-48"/>
       <use x="190.869141" xlink:href="#DejaVuSans-75"/>
      </g>
     </g>
    </g>
    <g id="xtick_10">
     <g id="line2d_32">
      <g>
       <use style="stroke:#000000;stroke-width:0.8;" x="184.915508" xlink:href="#m73e085e6e5" y="41.472"/>
      </g>
     </g>
     <g id="text_18">
      <!-- 200K -->
      <g transform="translate(172.092852 32.392313)scale(0.1 -0.1)">
       <use xlink:href="#DejaVuSans-50"/>
       <use x="63.623047" xlink:href="#DejaVuSans-48"/>
       <use x="127.246094" xlink:href="#DejaVuSans-48"/>
       <use x="190.869141" xlink:href="#DejaVuSans-75"/>
      </g>
     </g>
    </g>
    <g id="xtick_11">
     <g id="line2d_33">
      <g>
       <use style="stroke:#000000;stroke-width:0.8;" x="248.573262" xlink:href="#m73e085e6e5" y="41.472"/>
      </g>
     </g>
     <g id="text_19">
      <!-- 300K -->
      <defs>
       <path d="M 40.578125 39.3125 
Q 47.65625 37.796875 51.625 33 
Q 55.609375 28.21875 55.609375 21.1875 
Q 55.609375 10.40625 48.1875 4.484375 
Q 40.765625 -1.421875 27.09375 -1.421875 
Q 22.515625 -1.421875 17.65625 -0.515625 
Q 12.796875 0.390625 7.625 2.203125 
L 7.625 11.71875 
Q 11.71875 9.328125 16.59375 8.109375 
Q 21.484375 6.890625 26.8125 6.890625 
Q 36.078125 6.890625 40.9375 10.546875 
Q 45.796875 14.203125 45.796875 21.1875 
Q 45.796875 27.640625 41.28125 31.265625 
Q 36.765625 34.90625 28.71875 34.90625 
L 20.21875 34.90625 
L 20.21875 43.015625 
L 29.109375 43.015625 
Q 36.375 43.015625 40.234375 45.921875 
Q 44.09375 48.828125 44.09375 54.296875 
Q 44.09375 59.90625 40.109375 62.90625 
Q 36.140625 65.921875 28.71875 65.921875 
Q 24.65625 65.921875 20.015625 65.03125 
Q 15.375 64.15625 9.8125 62.3125 
L 9.8125 71.09375 
Q 15.4375 72.65625 20.34375 73.4375 
Q 25.25 74.21875 29.59375 74.21875 
Q 40.828125 74.21875 47.359375 69.109375 
Q 53.90625 64.015625 53.90625 55.328125 
Q 53.90625 49.265625 50.4375 45.09375 
Q 46.96875 40.921875 40.578125 39.3125 
z
" id="DejaVuSans-51"/>
      </defs>
      <g transform="translate(235.750606 32.392313)scale(0.1 -0.1)">
       <use xlink:href="#DejaVuSans-51"/>
       <use x="63.623047" xlink:href="#DejaVuSans-48"/>
       <use x="127.246094" xlink:href="#DejaVuSans-48"/>
       <use x="190.869141" xlink:href="#DejaVuSans-75"/>
      </g>
     </g>
    </g>
    <g id="xtick_12">
     <g id="line2d_34">
      <g>
       <use style="stroke:#000000;stroke-width:0.8;" x="312.231016" xlink:href="#m73e085e6e5" y="41.472"/>
      </g>
     </g>
     <g id="text_20">
      <!-- 400K -->
      <g transform="translate(299.40836 32.392313)scale(0.1 -0.1)">
       <use xlink:href="#DejaVuSans-52"/>
       <use x="63.623047" xlink:href="#DejaVuSans-48"/>
       <use x="127.246094" xlink:href="#DejaVuSans-48"/>
       <use x="190.869141" xlink:href="#DejaVuSans-75"/>
      </g>
     </g>
    </g>
    <g id="xtick_13">
     <g id="line2d_35">
      <g>
       <use style="stroke:#000000;stroke-width:0.8;" x="375.88877" xlink:href="#m73e085e6e5" y="41.472"/>
      </g>
     </g>
     <g id="text_21">
      <!-- 500K -->
      <defs>
       <path d="M 10.796875 72.90625 
L 49.515625 72.90625 
L 49.515625 64.59375 
L 19.828125 64.59375 
L 19.828125 46.734375 
Q 21.96875 47.46875 24.109375 47.828125 
Q 26.265625 48.1875 28.421875 48.1875 
Q 40.625 48.1875 47.75 41.5 
Q 54.890625 34.8125 54.890625 23.390625 
Q 54.890625 11.625 47.5625 5.09375 
Q 40.234375 -1.421875 26.90625 -1.421875 
Q 22.3125 -1.421875 17.546875 -0.640625 
Q 12.796875 0.140625 7.71875 1.703125 
L 7.71875 11.625 
Q 12.109375 9.234375 16.796875 8.0625 
Q 21.484375 6.890625 26.703125 6.890625 
Q 35.15625 6.890625 40.078125 11.328125 
Q 45.015625 15.765625 45.015625 23.390625 
Q 45.015625 31 40.078125 35.4375 
Q 35.15625 39.890625 26.703125 39.890625 
Q 22.75 39.890625 18.8125 39.015625 
Q 14.890625 38.140625 10.796875 36.28125 
z
" id="DejaVuSans-53"/>
      </defs>
      <g transform="translate(363.066114 32.392313)scale(0.1 -0.1)">
       <use xlink:href="#DejaVuSans-53"/>
       <use x="63.623047" xlink:href="#DejaVuSans-48"/>
       <use x="127.246094" xlink:href="#DejaVuSans-48"/>
       <use x="190.869141" xlink:href="#DejaVuSans-75"/>
      </g>
     </g>
    </g>
    <g id="text_22">
     <!-- Steps -->
     <defs>
      <path d="M 53.515625 70.515625 
L 53.515625 60.890625 
Q 47.90625 63.578125 42.921875 64.890625 
Q 37.9375 66.21875 33.296875 66.21875 
Q 25.25 66.21875 20.875 63.09375 
Q 16.5 59.96875 16.5 54.203125 
Q 16.5 49.359375 19.40625 46.890625 
Q 22.3125 44.4375 30.421875 42.921875 
L 36.375 41.703125 
Q 47.40625 39.59375 52.65625 34.296875 
Q 57.90625 29 57.90625 20.125 
Q 57.90625 9.515625 50.796875 4.046875 
Q 43.703125 -1.421875 29.984375 -1.421875 
Q 24.8125 -1.421875 18.96875 -0.25 
Q 13.140625 0.921875 6.890625 3.21875 
L 6.890625 13.375 
Q 12.890625 10.015625 18.65625 8.296875 
Q 24.421875 6.59375 29.984375 6.59375 
Q 38.421875 6.59375 43.015625 9.90625 
Q 47.609375 13.234375 47.609375 19.390625 
Q 47.609375 24.75 44.3125 27.78125 
Q 41.015625 30.8125 33.5 32.328125 
L 27.484375 33.5 
Q 16.453125 35.6875 11.515625 40.375 
Q 6.59375 45.0625 6.59375 53.421875 
Q 6.59375 63.09375 13.40625 68.65625 
Q 20.21875 74.21875 32.171875 74.21875 
Q 37.3125 74.21875 42.625 73.28125 
Q 47.953125 72.359375 53.515625 70.515625 
z
" id="DejaVuSans-83"/>
      <path d="M 56.203125 29.59375 
L 56.203125 25.203125 
L 14.890625 25.203125 
Q 15.484375 15.921875 20.484375 11.0625 
Q 25.484375 6.203125 34.421875 6.203125 
Q 39.59375 6.203125 44.453125 7.46875 
Q 49.3125 8.734375 54.109375 11.28125 
L 54.109375 2.78125 
Q 49.265625 0.734375 44.1875 -0.34375 
Q 39.109375 -1.421875 33.890625 -1.421875 
Q 20.796875 -1.421875 13.15625 6.1875 
Q 5.515625 13.8125 5.515625 26.8125 
Q 5.515625 40.234375 12.765625 48.109375 
Q 20.015625 56 32.328125 56 
Q 43.359375 56 49.78125 48.890625 
Q 56.203125 41.796875 56.203125 29.59375 
z
M 47.21875 32.234375 
Q 47.125 39.59375 43.09375 43.984375 
Q 39.0625 48.390625 32.421875 48.390625 
Q 24.90625 48.390625 20.390625 44.140625 
Q 15.875 39.890625 15.1875 32.171875 
z
" id="DejaVuSans-101"/>
      <path d="M 18.109375 8.203125 
L 18.109375 -20.796875 
L 9.078125 -20.796875 
L 9.078125 54.6875 
L 18.109375 54.6875 
L 18.109375 46.390625 
Q 20.953125 51.265625 25.265625 53.625 
Q 29.59375 56 35.59375 56 
Q 45.5625 56 51.78125 48.09375 
Q 58.015625 40.1875 58.015625 27.296875 
Q 58.015625 14.40625 51.78125 6.484375 
Q 45.5625 -1.421875 35.59375 -1.421875 
Q 29.59375 -1.421875 25.265625 0.953125 
Q 20.953125 3.328125 18.109375 8.203125 
z
M 48.6875 27.296875 
Q 48.6875 37.203125 44.609375 42.84375 
Q 40.53125 48.484375 33.40625 48.484375 
Q 26.265625 48.484375 22.1875 42.84375 
Q 18.109375 37.203125 18.109375 27.296875 
Q 18.109375 17.390625 22.1875 11.75 
Q 26.265625 6.109375 33.40625 6.109375 
Q 40.53125 6.109375 44.609375 11.75 
Q 48.6875 17.390625 48.6875 27.296875 
z
" id="DejaVuSans-112"/>
     </defs>
     <g transform="translate(222.170156 20.793875)scale(0.1 -0.1)">
      <use xlink:href="#DejaVuSans-83"/>
      <use x="63.476562" xlink:href="#DejaVuSans-116"/>
      <use x="102.685547" xlink:href="#DejaVuSans-101"/>
      <use x="164.208984" xlink:href="#DejaVuSans-112"/>
      <use x="227.685547" xlink:href="#DejaVuSans-115"/>
     </g>
    </g>
   </g>
   <g id="patch_7">
    <path d="M 57.6 307.584 
L 57.6 41.472 
" style="fill:none;stroke:#000000;stroke-linecap:square;stroke-linejoin:miter;stroke-width:0.8;"/>
   </g>
   <g id="patch_8">
    <path d="M 414.72 307.584 
L 414.72 41.472 
" style="fill:none;stroke:#000000;stroke-linecap:square;stroke-linejoin:miter;stroke-width:0.8;"/>
   </g>
   <g id="patch_9">
    <path d="M 57.6 307.584 
L 414.72 307.584 
" style="fill:none;stroke:#000000;stroke-linecap:square;stroke-linejoin:miter;stroke-width:0.8;"/>
   </g>
   <g id="patch_10">
    <path d="M 57.6 41.472 
L 414.72 41.472 
" style="fill:none;stroke:#000000;stroke-linecap:square;stroke-linejoin:miter;stroke-width:0.8;"/>
   </g>
  </g>
 </g>
 <defs>
  <clipPath id="pb76a6655fe">
   <rect height="266.112" width="357.12" x="57.6" y="41.472"/>
  </clipPath>
 </defs>
</svg>
