<?xml version="1.0" encoding="utf-8" standalone="no"?>
<!DOCTYPE svg PUBLIC "-//W3C//DTD SVG 1.1//EN"
  "http://www.w3.org/Graphics/SVG/1.1/DTD/svg11.dtd">
<!-- Created with matplotlib (https://matplotlib.org/) -->
<svg height="345.6pt" version="1.1" viewBox="0 0 460.8 345.6" width="460.8pt" xmlns="http://www.w3.org/2000/svg" xmlns:xlink="http://www.w3.org/1999/xlink">
 <defs>
  <style type="text/css">
*{stroke-linecap:butt;stroke-linejoin:round;}
  </style>
 </defs>
 <g id="figure_1">
  <g id="patch_1">
   <path d="M 0 345.6 
L 460.8 345.6 
L 460.8 0 
L 0 0 
z
" style="fill:#ffffff;"/>
  </g>
  <g id="axes_1">
   <g id="patch_2">
    <path d="M 57.6 307.584 
L 414.72 307.584 
L 414.72 41.472 
L 57.6 41.472 
z
" style="fill:#ffffff;"/>
   </g>
   <g id="matplotlib.axis_1">
    <g id="xtick_1">
     <g id="line2d_1">
      <path clip-path="url(#pfa15cf394e)" d="M 57.6 307.584 
L 57.6 41.472 
" style="fill:none;stroke:#b0b0b0;stroke-linecap:square;stroke-width:0.8;"/>
     </g>
     <g id="line2d_2">
      <defs>
       <path d="M 0 0 
L 0 3.5 
" id="m8be37d8fa8" style="stroke:#000000;stroke-width:0.8;"/>
      </defs>
      <g>
       <use style="stroke:#000000;stroke-width:0.8;" x="57.6" xlink:href="#m8be37d8fa8" y="307.584"/>
      </g>
     </g>
     <g id="text_1">
      <!-- 0 -->
      <defs>
       <path d="M 31.78125 66.40625 
Q 24.171875 66.40625 20.328125 58.90625 
Q 16.5 51.421875 16.5 36.375 
Q 16.5 21.390625 20.328125 13.890625 
Q 24.171875 6.390625 31.78125 6.390625 
Q 39.453125 6.390625 43.28125 13.890625 
Q 47.125 21.390625 47.125 36.375 
Q 47.125 51.421875 43.28125 58.90625 
Q 39.453125 66.40625 31.78125 66.40625 
z
M 31.78125 74.21875 
Q 44.046875 74.21875 50.515625 64.515625 
Q 56.984375 54.828125 56.984375 36.375 
Q 56.984375 17.96875 50.515625 8.265625 
Q 44.046875 -1.421875 31.78125 -1.421875 
Q 19.53125 -1.421875 13.0625 8.265625 
Q 6.59375 17.96875 6.59375 36.375 
Q 6.59375 54.828125 13.0625 64.515625 
Q 19.53125 74.21875 31.78125 74.21875 
z
" id="DejaVuSans-48"/>
      </defs>
      <g transform="translate(54.41875 322.182437)scale(0.1 -0.1)">
       <use xlink:href="#DejaVuSans-48"/>
      </g>
     </g>
    </g>
    <g id="xtick_2">
     <g id="line2d_3">
      <path clip-path="url(#pfa15cf394e)" d="M 110.924926 307.584 
L 110.924926 41.472 
" style="fill:none;stroke:#b0b0b0;stroke-linecap:square;stroke-width:0.8;"/>
     </g>
     <g id="line2d_4">
      <g>
       <use style="stroke:#000000;stroke-width:0.8;" x="110.924926" xlink:href="#m8be37d8fa8" y="307.584"/>
      </g>
     </g>
     <g id="text_2">
      <!-- 2 -->
      <defs>
       <path d="M 19.1875 8.296875 
L 53.609375 8.296875 
L 53.609375 0 
L 7.328125 0 
L 7.328125 8.296875 
Q 12.9375 14.109375 22.625 23.890625 
Q 32.328125 33.6875 34.8125 36.53125 
Q 39.546875 41.84375 41.421875 45.53125 
Q 43.3125 49.21875 43.3125 52.78125 
Q 43.3125 58.59375 39.234375 62.25 
Q 35.15625 65.921875 28.609375 65.921875 
Q 23.96875 65.921875 18.8125 64.3125 
Q 13.671875 62.703125 7.8125 59.421875 
L 7.8125 69.390625 
Q 13.765625 71.78125 18.9375 73 
Q 24.125 74.21875 28.421875 74.21875 
Q 39.75 74.21875 46.484375 68.546875 
Q 53.21875 62.890625 53.21875 53.421875 
Q 53.21875 48.921875 51.53125 44.890625 
Q 49.859375 40.875 45.40625 35.40625 
Q 44.1875 33.984375 37.640625 27.21875 
Q 31.109375 20.453125 19.1875 8.296875 
z
" id="DejaVuSans-50"/>
      </defs>
      <g transform="translate(107.743676 322.182437)scale(0.1 -0.1)">
       <use xlink:href="#DejaVuSans-50"/>
      </g>
     </g>
    </g>
    <g id="xtick_3">
     <g id="line2d_5">
      <path clip-path="url(#pfa15cf394e)" d="M 164.249852 307.584 
L 164.249852 41.472 
" style="fill:none;stroke:#b0b0b0;stroke-linecap:square;stroke-width:0.8;"/>
     </g>
     <g id="line2d_6">
      <g>
       <use style="stroke:#000000;stroke-width:0.8;" x="164.249852" xlink:href="#m8be37d8fa8" y="307.584"/>
      </g>
     </g>
     <g id="text_3">
      <!-- 4 -->
      <defs>
       <path d="M 37.796875 64.3125 
L 12.890625 25.390625 
L 37.796875 25.390625 
z
M 35.203125 72.90625 
L 47.609375 72.90625 
L 47.609375 25.390625 
L 58.015625 25.390625 
L 58.015625 17.1875 
L 47.609375 17.1875 
L 47.609375 0 
L 37.796875 0 
L 37.796875 17.1875 
L 4.890625 17.1875 
L 4.890625 26.703125 
z
" id="DejaVuSans-52"/>
      </defs>
      <g transform="translate(161.068602 322.182437)scale(0.1 -0.1)">
       <use xlink:href="#DejaVuSans-52"/>
      </g>
     </g>
    </g>
    <g id="xtick_4">
     <g id="line2d_7">
      <path clip-path="url(#pfa15cf394e)" d="M 217.574777 307.584 
L 217.574777 41.472 
" style="fill:none;stroke:#b0b0b0;stroke-linecap:square;stroke-width:0.8;"/>
     </g>
     <g id="line2d_8">
      <g>
       <use style="stroke:#000000;stroke-width:0.8;" x="217.574777" xlink:href="#m8be37d8fa8" y="307.584"/>
      </g>
     </g>
     <g id="text_4">
      <!-- 6 -->
      <defs>
       <path d="M 33.015625 40.375 
Q 26.375 40.375 22.484375 35.828125 
Q 18.609375 31.296875 18.609375 23.390625 
Q 18.609375 15.53125 22.484375 10.953125 
Q 26.375 6.390625 33.015625 6.390625 
Q 39.65625 6.390625 43.53125 10.953125 
Q 47.40625 15.53125 47.40625 23.390625 
Q 47.40625 31.296875 43.53125 35.828125 
Q 39.65625 40.375 33.015625 40.375 
z
M 52.59375 71.296875 
L 52.59375 62.3125 
Q 48.875 64.0625 45.09375 64.984375 
Q 41.3125 65.921875 37.59375 65.921875 
Q 27.828125 65.921875 22.671875 59.328125 
Q 17.53125 52.734375 16.796875 39.40625 
Q 19.671875 43.65625 24.015625 45.921875 
Q 28.375 48.1875 33.59375 48.1875 
Q 44.578125 48.1875 50.953125 41.515625 
Q 57.328125 34.859375 57.328125 23.390625 
Q 57.328125 12.15625 50.6875 5.359375 
Q 44.046875 -1.421875 33.015625 -1.421875 
Q 20.359375 -1.421875 13.671875 8.265625 
Q 6.984375 17.96875 6.984375 36.375 
Q 6.984375 53.65625 15.1875 63.9375 
Q 23.390625 74.21875 37.203125 74.21875 
Q 40.921875 74.21875 44.703125 73.484375 
Q 48.484375 72.75 52.59375 71.296875 
z
" id="DejaVuSans-54"/>
      </defs>
      <g transform="translate(214.393527 322.182437)scale(0.1 -0.1)">
       <use xlink:href="#DejaVuSans-54"/>
      </g>
     </g>
    </g>
    <g id="xtick_5">
     <g id="line2d_9">
      <path clip-path="url(#pfa15cf394e)" d="M 270.899703 307.584 
L 270.899703 41.472 
" style="fill:none;stroke:#b0b0b0;stroke-linecap:square;stroke-width:0.8;"/>
     </g>
     <g id="line2d_10">
      <g>
       <use style="stroke:#000000;stroke-width:0.8;" x="270.899703" xlink:href="#m8be37d8fa8" y="307.584"/>
      </g>
     </g>
     <g id="text_5">
      <!-- 8 -->
      <defs>
       <path d="M 31.78125 34.625 
Q 24.75 34.625 20.71875 30.859375 
Q 16.703125 27.09375 16.703125 20.515625 
Q 16.703125 13.921875 20.71875 10.15625 
Q 24.75 6.390625 31.78125 6.390625 
Q 38.8125 6.390625 42.859375 10.171875 
Q 46.921875 13.96875 46.921875 20.515625 
Q 46.921875 27.09375 42.890625 30.859375 
Q 38.875 34.625 31.78125 34.625 
z
M 21.921875 38.8125 
Q 15.578125 40.375 12.03125 44.71875 
Q 8.5 49.078125 8.5 55.328125 
Q 8.5 64.0625 14.71875 69.140625 
Q 20.953125 74.21875 31.78125 74.21875 
Q 42.671875 74.21875 48.875 69.140625 
Q 55.078125 64.0625 55.078125 55.328125 
Q 55.078125 49.078125 51.53125 44.71875 
Q 48 40.375 41.703125 38.8125 
Q 48.828125 37.15625 52.796875 32.3125 
Q 56.78125 27.484375 56.78125 20.515625 
Q 56.78125 9.90625 50.3125 4.234375 
Q 43.84375 -1.421875 31.78125 -1.421875 
Q 19.734375 -1.421875 13.25 4.234375 
Q 6.78125 9.90625 6.78125 20.515625 
Q 6.78125 27.484375 10.78125 32.3125 
Q 14.796875 37.15625 21.921875 38.8125 
z
M 18.3125 54.390625 
Q 18.3125 48.734375 21.84375 45.5625 
Q 25.390625 42.390625 31.78125 42.390625 
Q 38.140625 42.390625 41.71875 45.5625 
Q 45.3125 48.734375 45.3125 54.390625 
Q 45.3125 60.0625 41.71875 63.234375 
Q 38.140625 66.40625 31.78125 66.40625 
Q 25.390625 66.40625 21.84375 63.234375 
Q 18.3125 60.0625 18.3125 54.390625 
z
" id="DejaVuSans-56"/>
      </defs>
      <g transform="translate(267.718453 322.182437)scale(0.1 -0.1)">
       <use xlink:href="#DejaVuSans-56"/>
      </g>
     </g>
    </g>
    <g id="xtick_6">
     <g id="line2d_11">
      <path clip-path="url(#pfa15cf394e)" d="M 324.224629 307.584 
L 324.224629 41.472 
" style="fill:none;stroke:#b0b0b0;stroke-linecap:square;stroke-width:0.8;"/>
     </g>
     <g id="line2d_12">
      <g>
       <use style="stroke:#000000;stroke-width:0.8;" x="324.224629" xlink:href="#m8be37d8fa8" y="307.584"/>
      </g>
     </g>
     <g id="text_6">
      <!-- 10 -->
      <defs>
       <path d="M 12.40625 8.296875 
L 28.515625 8.296875 
L 28.515625 63.921875 
L 10.984375 60.40625 
L 10.984375 69.390625 
L 28.421875 72.90625 
L 38.28125 72.90625 
L 38.28125 8.296875 
L 54.390625 8.296875 
L 54.390625 0 
L 12.40625 0 
z
" id="DejaVuSans-49"/>
      </defs>
      <g transform="translate(317.862129 322.182437)scale(0.1 -0.1)">
       <use xlink:href="#DejaVuSans-49"/>
       <use x="63.623047" xlink:href="#DejaVuSans-48"/>
      </g>
     </g>
    </g>
    <g id="xtick_7">
     <g id="line2d_13">
      <path clip-path="url(#pfa15cf394e)" d="M 377.549555 307.584 
L 377.549555 41.472 
" style="fill:none;stroke:#b0b0b0;stroke-linecap:square;stroke-width:0.8;"/>
     </g>
     <g id="line2d_14">
      <g>
       <use style="stroke:#000000;stroke-width:0.8;" x="377.549555" xlink:href="#m8be37d8fa8" y="307.584"/>
      </g>
     </g>
     <g id="text_7">
      <!-- 12 -->
      <g transform="translate(371.187055 322.182437)scale(0.1 -0.1)">
       <use xlink:href="#DejaVuSans-49"/>
       <use x="63.623047" xlink:href="#DejaVuSans-50"/>
      </g>
     </g>
    </g>
    <g id="text_8">
     <!-- Hours -->
     <defs>
      <path d="M 9.8125 72.90625 
L 19.671875 72.90625 
L 19.671875 43.015625 
L 55.515625 43.015625 
L 55.515625 72.90625 
L 65.375 72.90625 
L 65.375 0 
L 55.515625 0 
L 55.515625 34.71875 
L 19.671875 34.71875 
L 19.671875 0 
L 9.8125 0 
z
" id="DejaVuSans-72"/>
      <path d="M 30.609375 48.390625 
Q 23.390625 48.390625 19.1875 42.75 
Q 14.984375 37.109375 14.984375 27.296875 
Q 14.984375 17.484375 19.15625 11.84375 
Q 23.34375 6.203125 30.609375 6.203125 
Q 37.796875 6.203125 41.984375 11.859375 
Q 46.1875 17.53125 46.1875 27.296875 
Q 46.1875 37.015625 41.984375 42.703125 
Q 37.796875 48.390625 30.609375 48.390625 
z
M 30.609375 56 
Q 42.328125 56 49.015625 48.375 
Q 55.71875 40.765625 55.71875 27.296875 
Q 55.71875 13.875 49.015625 6.21875 
Q 42.328125 -1.421875 30.609375 -1.421875 
Q 18.84375 -1.421875 12.171875 6.21875 
Q 5.515625 13.875 5.515625 27.296875 
Q 5.515625 40.765625 12.171875 48.375 
Q 18.84375 56 30.609375 56 
z
" id="DejaVuSans-111"/>
      <path d="M 8.5 21.578125 
L 8.5 54.6875 
L 17.484375 54.6875 
L 17.484375 21.921875 
Q 17.484375 14.15625 20.5 10.265625 
Q 23.53125 6.390625 29.59375 6.390625 
Q 36.859375 6.390625 41.078125 11.03125 
Q 45.3125 15.671875 45.3125 23.6875 
L 45.3125 54.6875 
L 54.296875 54.6875 
L 54.296875 0 
L 45.3125 0 
L 45.3125 8.40625 
Q 42.046875 3.421875 37.71875 1 
Q 33.40625 -1.421875 27.6875 -1.421875 
Q 18.265625 -1.421875 13.375 4.4375 
Q 8.5 10.296875 8.5 21.578125 
z
M 31.109375 56 
z
" id="DejaVuSans-117"/>
      <path d="M 41.109375 46.296875 
Q 39.59375 47.171875 37.8125 47.578125 
Q 36.03125 48 33.890625 48 
Q 26.265625 48 22.1875 43.046875 
Q 18.109375 38.09375 18.109375 28.8125 
L 18.109375 0 
L 9.078125 0 
L 9.078125 54.6875 
L 18.109375 54.6875 
L 18.109375 46.1875 
Q 20.953125 51.171875 25.484375 53.578125 
Q 30.03125 56 36.53125 56 
Q 37.453125 56 38.578125 55.875 
Q 39.703125 55.765625 41.0625 55.515625 
z
" id="DejaVuSans-114"/>
      <path d="M 44.28125 53.078125 
L 44.28125 44.578125 
Q 40.484375 46.53125 36.375 47.5 
Q 32.28125 48.484375 27.875 48.484375 
Q 21.1875 48.484375 17.84375 46.4375 
Q 14.5 44.390625 14.5 40.28125 
Q 14.5 37.15625 16.890625 35.375 
Q 19.28125 33.59375 26.515625 31.984375 
L 29.59375 31.296875 
Q 39.15625 29.25 43.1875 25.515625 
Q 47.21875 21.78125 47.21875 15.09375 
Q 47.21875 7.46875 41.1875 3.015625 
Q 35.15625 -1.421875 24.609375 -1.421875 
Q 20.21875 -1.421875 15.453125 -0.5625 
Q 10.6875 0.296875 5.421875 2 
L 5.421875 11.28125 
Q 10.40625 8.6875 15.234375 7.390625 
Q 20.0625 6.109375 24.8125 6.109375 
Q 31.15625 6.109375 34.5625 8.28125 
Q 37.984375 10.453125 37.984375 14.40625 
Q 37.984375 18.0625 35.515625 20.015625 
Q 33.0625 21.96875 24.703125 23.78125 
L 21.578125 24.515625 
Q 13.234375 26.265625 9.515625 29.90625 
Q 5.8125 33.546875 5.8125 39.890625 
Q 5.8125 47.609375 11.28125 51.796875 
Q 16.75 56 26.8125 56 
Q 31.78125 56 36.171875 55.265625 
Q 40.578125 54.546875 44.28125 53.078125 
z
" id="DejaVuSans-115"/>
     </defs>
     <g transform="translate(221.511562 335.860562)scale(0.1 -0.1)">
      <use xlink:href="#DejaVuSans-72"/>
      <use x="75.195312" xlink:href="#DejaVuSans-111"/>
      <use x="136.376953" xlink:href="#DejaVuSans-117"/>
      <use x="199.755859" xlink:href="#DejaVuSans-114"/>
      <use x="240.869141" xlink:href="#DejaVuSans-115"/>
     </g>
    </g>
   </g>
   <g id="matplotlib.axis_2">
    <g id="ytick_1">
     <g id="line2d_15">
      <path clip-path="url(#pfa15cf394e)" d="M 57.6 305.046147 
L 414.72 305.046147 
" style="fill:none;stroke:#b0b0b0;stroke-linecap:square;stroke-width:0.8;"/>
     </g>
     <g id="line2d_16">
      <defs>
       <path d="M 0 0 
L -3.5 0 
" id="m94f28f0e37" style="stroke:#000000;stroke-width:0.8;"/>
      </defs>
      <g>
       <use style="stroke:#000000;stroke-width:0.8;" x="57.6" xlink:href="#m94f28f0e37" y="305.046147"/>
      </g>
     </g>
     <g id="text_9">
      <!-- 0 -->
      <g transform="translate(44.2375 308.845366)scale(0.1 -0.1)">
       <use xlink:href="#DejaVuSans-48"/>
      </g>
     </g>
    </g>
    <g id="ytick_2">
     <g id="line2d_17">
      <path clip-path="url(#pfa15cf394e)" d="M 57.6 272.087019 
L 414.72 272.087019 
" style="fill:none;stroke:#b0b0b0;stroke-linecap:square;stroke-width:0.8;"/>
     </g>
     <g id="line2d_18">
      <g>
       <use style="stroke:#000000;stroke-width:0.8;" x="57.6" xlink:href="#m94f28f0e37" y="272.087019"/>
      </g>
     </g>
     <g id="text_10">
      <!-- 200 -->
      <g transform="translate(31.5125 275.886238)scale(0.1 -0.1)">
       <use xlink:href="#DejaVuSans-50"/>
       <use x="63.623047" xlink:href="#DejaVuSans-48"/>
       <use x="127.246094" xlink:href="#DejaVuSans-48"/>
      </g>
     </g>
    </g>
    <g id="ytick_3">
     <g id="line2d_19">
      <path clip-path="url(#pfa15cf394e)" d="M 57.6 239.127891 
L 414.72 239.127891 
" style="fill:none;stroke:#b0b0b0;stroke-linecap:square;stroke-width:0.8;"/>
     </g>
     <g id="line2d_20">
      <g>
       <use style="stroke:#000000;stroke-width:0.8;" x="57.6" xlink:href="#m94f28f0e37" y="239.127891"/>
      </g>
     </g>
     <g id="text_11">
      <!-- 400 -->
      <g transform="translate(31.5125 242.92711)scale(0.1 -0.1)">
       <use xlink:href="#DejaVuSans-52"/>
       <use x="63.623047" xlink:href="#DejaVuSans-48"/>
       <use x="127.246094" xlink:href="#DejaVuSans-48"/>
      </g>
     </g>
    </g>
    <g id="ytick_4">
     <g id="line2d_21">
      <path clip-path="url(#pfa15cf394e)" d="M 57.6 206.168763 
L 414.72 206.168763 
" style="fill:none;stroke:#b0b0b0;stroke-linecap:square;stroke-width:0.8;"/>
     </g>
     <g id="line2d_22">
      <g>
       <use style="stroke:#000000;stroke-width:0.8;" x="57.6" xlink:href="#m94f28f0e37" y="206.168763"/>
      </g>
     </g>
     <g id="text_12">
      <!-- 600 -->
      <g transform="translate(31.5125 209.967982)scale(0.1 -0.1)">
       <use xlink:href="#DejaVuSans-54"/>
       <use x="63.623047" xlink:href="#DejaVuSans-48"/>
       <use x="127.246094" xlink:href="#DejaVuSans-48"/>
      </g>
     </g>
    </g>
    <g id="ytick_5">
     <g id="line2d_23">
      <path clip-path="url(#pfa15cf394e)" d="M 57.6 173.209635 
L 414.72 173.209635 
" style="fill:none;stroke:#b0b0b0;stroke-linecap:square;stroke-width:0.8;"/>
     </g>
     <g id="line2d_24">
      <g>
       <use style="stroke:#000000;stroke-width:0.8;" x="57.6" xlink:href="#m94f28f0e37" y="173.209635"/>
      </g>
     </g>
     <g id="text_13">
      <!-- 800 -->
      <g transform="translate(31.5125 177.008854)scale(0.1 -0.1)">
       <use xlink:href="#DejaVuSans-56"/>
       <use x="63.623047" xlink:href="#DejaVuSans-48"/>
       <use x="127.246094" xlink:href="#DejaVuSans-48"/>
      </g>
     </g>
    </g>
    <g id="ytick_6">
     <g id="line2d_25">
      <path clip-path="url(#pfa15cf394e)" d="M 57.6 140.250507 
L 414.72 140.250507 
" style="fill:none;stroke:#b0b0b0;stroke-linecap:square;stroke-width:0.8;"/>
     </g>
     <g id="line2d_26">
      <g>
       <use style="stroke:#000000;stroke-width:0.8;" x="57.6" xlink:href="#m94f28f0e37" y="140.250507"/>
      </g>
     </g>
     <g id="text_14">
      <!-- 1000 -->
      <g transform="translate(25.15 144.049726)scale(0.1 -0.1)">
       <use xlink:href="#DejaVuSans-49"/>
       <use x="63.623047" xlink:href="#DejaVuSans-48"/>
       <use x="127.246094" xlink:href="#DejaVuSans-48"/>
       <use x="190.869141" xlink:href="#DejaVuSans-48"/>
      </g>
     </g>
    </g>
    <g id="ytick_7">
     <g id="line2d_27">
      <path clip-path="url(#pfa15cf394e)" d="M 57.6 107.291379 
L 414.72 107.291379 
" style="fill:none;stroke:#b0b0b0;stroke-linecap:square;stroke-width:0.8;"/>
     </g>
     <g id="line2d_28">
      <g>
       <use style="stroke:#000000;stroke-width:0.8;" x="57.6" xlink:href="#m94f28f0e37" y="107.291379"/>
      </g>
     </g>
     <g id="text_15">
      <!-- 1200 -->
      <g transform="translate(25.15 111.090597)scale(0.1 -0.1)">
       <use xlink:href="#DejaVuSans-49"/>
       <use x="63.623047" xlink:href="#DejaVuSans-50"/>
       <use x="127.246094" xlink:href="#DejaVuSans-48"/>
       <use x="190.869141" xlink:href="#DejaVuSans-48"/>
      </g>
     </g>
    </g>
    <g id="ytick_8">
     <g id="line2d_29">
      <path clip-path="url(#pfa15cf394e)" d="M 57.6 74.332251 
L 414.72 74.332251 
" style="fill:none;stroke:#b0b0b0;stroke-linecap:square;stroke-width:0.8;"/>
     </g>
     <g id="line2d_30">
      <g>
       <use style="stroke:#000000;stroke-width:0.8;" x="57.6" xlink:href="#m94f28f0e37" y="74.332251"/>
      </g>
     </g>
     <g id="text_16">
      <!-- 1400 -->
      <g transform="translate(25.15 78.131469)scale(0.1 -0.1)">
       <use xlink:href="#DejaVuSans-49"/>
       <use x="63.623047" xlink:href="#DejaVuSans-52"/>
       <use x="127.246094" xlink:href="#DejaVuSans-48"/>
       <use x="190.869141" xlink:href="#DejaVuSans-48"/>
      </g>
     </g>
    </g>
    <g id="text_17">
     <!-- Steps -->
     <defs>
      <path d="M 53.515625 70.515625 
L 53.515625 60.890625 
Q 47.90625 63.578125 42.921875 64.890625 
Q 37.9375 66.21875 33.296875 66.21875 
Q 25.25 66.21875 20.875 63.09375 
Q 16.5 59.96875 16.5 54.203125 
Q 16.5 49.359375 19.40625 46.890625 
Q 22.3125 44.4375 30.421875 42.921875 
L 36.375 41.703125 
Q 47.40625 39.59375 52.65625 34.296875 
Q 57.90625 29 57.90625 20.125 
Q 57.90625 9.515625 50.796875 4.046875 
Q 43.703125 -1.421875 29.984375 -1.421875 
Q 24.8125 -1.421875 18.96875 -0.25 
Q 13.140625 0.921875 6.890625 3.21875 
L 6.890625 13.375 
Q 12.890625 10.015625 18.65625 8.296875 
Q 24.421875 6.59375 29.984375 6.59375 
Q 38.421875 6.59375 43.015625 9.90625 
Q 47.609375 13.234375 47.609375 19.390625 
Q 47.609375 24.75 44.3125 27.78125 
Q 41.015625 30.8125 33.5 32.328125 
L 27.484375 33.5 
Q 16.453125 35.6875 11.515625 40.375 
Q 6.59375 45.0625 6.59375 53.421875 
Q 6.59375 63.09375 13.40625 68.65625 
Q 20.21875 74.21875 32.171875 74.21875 
Q 37.3125 74.21875 42.625 73.28125 
Q 47.953125 72.359375 53.515625 70.515625 
z
" id="DejaVuSans-83"/>
      <path d="M 18.3125 70.21875 
L 18.3125 54.6875 
L 36.8125 54.6875 
L 36.8125 47.703125 
L 18.3125 47.703125 
L 18.3125 18.015625 
Q 18.3125 11.328125 20.140625 9.421875 
Q 21.96875 7.515625 27.59375 7.515625 
L 36.8125 7.515625 
L 36.8125 0 
L 27.59375 0 
Q 17.1875 0 13.234375 3.875 
Q 9.28125 7.765625 9.28125 18.015625 
L 9.28125 47.703125 
L 2.6875 47.703125 
L 2.6875 54.6875 
L 9.28125 54.6875 
L 9.28125 70.21875 
z
" id="DejaVuSans-116"/>
      <path d="M 56.203125 29.59375 
L 56.203125 25.203125 
L 14.890625 25.203125 
Q 15.484375 15.921875 20.484375 11.0625 
Q 25.484375 6.203125 34.421875 6.203125 
Q 39.59375 6.203125 44.453125 7.46875 
Q 49.3125 8.734375 54.109375 11.28125 
L 54.109375 2.78125 
Q 49.265625 0.734375 44.1875 -0.34375 
Q 39.109375 -1.421875 33.890625 -1.421875 
Q 20.796875 -1.421875 13.15625 6.1875 
Q 5.515625 13.8125 5.515625 26.8125 
Q 5.515625 40.234375 12.765625 48.109375 
Q 20.015625 56 32.328125 56 
Q 43.359375 56 49.78125 48.890625 
Q 56.203125 41.796875 56.203125 29.59375 
z
M 47.21875 32.234375 
Q 47.125 39.59375 43.09375 43.984375 
Q 39.0625 48.390625 32.421875 48.390625 
Q 24.90625 48.390625 20.390625 44.140625 
Q 15.875 39.890625 15.1875 32.171875 
z
" id="DejaVuSans-101"/>
      <path d="M 18.109375 8.203125 
L 18.109375 -20.796875 
L 9.078125 -20.796875 
L 9.078125 54.6875 
L 18.109375 54.6875 
L 18.109375 46.390625 
Q 20.953125 51.265625 25.265625 53.625 
Q 29.59375 56 35.59375 56 
Q 45.5625 56 51.78125 48.09375 
Q 58.015625 40.1875 58.015625 27.296875 
Q 58.015625 14.40625 51.78125 6.484375 
Q 45.5625 -1.421875 35.59375 -1.421875 
Q 29.59375 -1.421875 25.265625 0.953125 
Q 20.953125 3.328125 18.109375 8.203125 
z
M 48.6875 27.296875 
Q 48.6875 37.203125 44.609375 42.84375 
Q 40.53125 48.484375 33.40625 48.484375 
Q 26.265625 48.484375 22.1875 42.84375 
Q 18.109375 37.203125 18.109375 27.296875 
Q 18.109375 17.390625 22.1875 11.75 
Q 26.265625 6.109375 33.40625 6.109375 
Q 40.53125 6.109375 44.609375 11.75 
Q 48.6875 17.390625 48.6875 27.296875 
z
" id="DejaVuSans-112"/>
     </defs>
     <g transform="translate(19.070312 188.517844)rotate(-90)scale(0.1 -0.1)">
      <use xlink:href="#DejaVuSans-83"/>
      <use x="63.476562" xlink:href="#DejaVuSans-116"/>
      <use x="102.685547" xlink:href="#DejaVuSans-101"/>
      <use x="164.208984" xlink:href="#DejaVuSans-112"/>
      <use x="227.685547" xlink:href="#DejaVuSans-115"/>
     </g>
    </g>
   </g>
   <g id="line2d_31">
    <path clip-path="url(#pfa15cf394e)" d="M 57.6 271.427837 
L 57.60013 290.544131 
L 57.704985 257.585003 
L 58.100967 292.521678 
L 58.13751 292.192087 
L 58.265363 292.356883 
L 58.415255 279.173232 
L 58.813119 279.667619 
L 58.942444 291.862496 
L 59.580743 246.543695 
L 60.395001 253.794703 
L 61.082796 287.742605 
L 61.341347 292.521678 
L 62.197221 288.401787 
L 62.791099 292.356883 
L 63.032721 282.469144 
L 63.12492 256.761025 
L 63.126632 284.776283 
L 63.53466 286.259444 
L 63.640707 294.828817 
L 63.756655 286.094649 
L 63.829529 268.791106 
L 64.168754 294.334431 
L 64.220096 291.368109 
L 64.516654 290.708926 
L 64.561077 294.499226 
L 64.68166 293.840044 
L 64.706793 279.502823 
L 64.823505 277.525275 
L 64.861478 284.446692 
L 65.095537 293.840044 
L 65.986586 281.645166 
L 66.17752 292.027292 
L 66.238498 248.356447 
L 66.473562 291.203313 
L 66.54847 255.442659 
L 66.905559 277.36048 
L 66.935391 292.85127 
L 67.131841 281.150779 
L 67.223989 291.368109 
L 67.665281 278.514049 
L 67.797443 286.918627 
L 68.311272 288.566583 
L 68.469023 267.802332 
L 68.925727 281.974757 
L 68.938829 294.993613 
L 69.062694 273.405384 
L 69.086015 292.85127 
L 69.534436 279.008436 
L 69.706696 239.622278 
L 69.806492 286.42424 
L 69.875072 283.78751 
L 70.110344 260.386529 
L 70.306658 284.446692 
L 70.562313 268.461515 
L 70.78988 277.195684 
L 70.936876 293.675248 
L 71.063226 290.379335 
L 71.117998 269.120698 
L 71.228605 283.952305 
L 71.442808 293.840044 
L 71.826654 293.345657 
L 71.962588 286.753831 
L 72.046956 236.491161 
L 72.182655 289.884948 
L 72.214843 277.030888 
L 72.552151 294.004839 
L 72.975494 291.203313 
L 73.095002 287.742605 
L 73.170209 281.480371 
L 73.262321 293.016065 
L 73.288127 292.521678 
L 73.353242 282.63394 
L 73.73568 285.27067 
L 73.890094 282.304349 
L 73.990766 294.004839 
L 74.015907 279.832414 
L 74.489401 265.165602 
L 75.118078 289.390561 
L 75.198392 285.105875 
L 75.235403 236.985548 
L 75.294031 294.169635 
L 76.003063 293.675248 
L 76.111441 283.952305 
L 76.211575 287.577809 
L 76.349746 282.63394 
L 76.561999 294.004839 
L 76.596788 287.907401 
L 77.24755 269.450289 
L 77.313393 282.963531 
L 77.613425 294.664022 
L 77.62446 271.922223 
L 77.626692 291.368109 
L 77.989638 292.85127 
L 78.121358 263.023259 
L 78.131034 281.315575 
L 78.157818 291.038518 
L 78.388523 256.101842 
L 78.50797 286.259444 
L 78.528892 283.78751 
L 78.565953 286.589035 
L 78.762787 295.158409 
L 78.886096 292.521678 
L 78.930753 272.581406 
L 79.977688 292.85127 
L 80.427299 293.510452 
L 80.55231 280.985984 
L 80.812076 273.405384 
L 81.72904 289.06097 
L 82.410684 291.862496 
L 82.830418 285.27067 
L 83.082834 291.862496 
L 83.6395 289.555357 
L 84.25332 277.525275 
L 84.573357 265.000807 
L 84.922503 287.083422 
L 84.981074 282.469144 
L 85.05978 246.873286 
L 85.069658 258.244185 
L 85.639945 283.457918 
L 86.022672 290.873722 
L 86.241772 275.547728 
L 86.523938 275.382932 
L 86.683825 291.203313 
L 86.805666 289.390561 
L 86.977048 259.727346 
L 87.094546 293.840044 
L 88.108328 290.379335 
L 88.23282 280.985984 
L 88.523103 278.019662 
L 88.647515 278.019662 
L 89.103993 293.345657 
L 89.135669 272.581406 
L 89.208234 293.345657 
L 89.636789 291.862496 
L 90.049443 251.981951 
L 90.321928 292.521678 
L 90.936631 288.896174 
L 91.180552 241.599826 
L 91.462603 267.637537 
L 91.841555 276.866093 
L 91.941934 238.303913 
L 91.963591 293.510452 
L 92.54692 233.854431 
L 92.684534 292.027292 
L 93.360789 294.499226 
L 93.444779 257.914594 
L 93.457564 282.798736 
L 93.504919 290.708926 
L 93.74062 237.809526 
L 93.786178 293.345657 
L 94.057141 281.150779 
L 94.07304 289.555357 
L 94.440926 282.469144 
L 94.546125 274.064567 
L 94.557327 293.510452 
L 95.205525 294.664022 
L 95.463379 279.99721 
L 96.032041 286.42424 
L 96.203482 251.322768 
L 96.382967 279.338027 
L 96.823975 263.188054 
L 97.257064 283.622714 
L 97.614079 253.13552 
L 97.653519 290.544131 
L 97.71672 286.42424 
L 98.110454 288.072196 
L 98.641982 273.240589 
L 98.871862 286.259444 
L 98.989328 283.457918 
L 99.01212 261.375302 
L 99.489556 287.742605 
L 99.923547 277.36048 
L 100.678897 283.78751 
L 100.772055 243.082986 
L 100.818422 286.094649 
L 101.443334 292.85127 
L 101.488094 241.43503 
L 101.976268 282.304349 
L 102.231711 288.896174 
L 102.899771 277.030888 
L 103.23715 291.532905 
L 104.224922 286.753831 
L 104.423705 295.488 
L 104.585274 294.828817 
L 105.353776 285.105875 
L 106.008574 294.004839 
L 106.034762 276.20691 
L 106.338541 289.555357 
L 106.728072 280.656392 
L 107.422411 290.544131 
L 107.484898 253.300316 
L 107.633108 294.664022 
L 108.128136 264.671215 
L 108.16045 287.248218 
L 108.671599 266.154376 
L 109.001106 273.075793 
L 109.193387 292.521678 
L 109.204873 285.435466 
L 109.616323 287.248218 
L 109.631094 211.277428 
L 109.700479 285.600262 
L 110.146076 288.566583 
L 110.383612 284.117101 
L 110.637616 253.629907 
L 110.742161 285.435466 
L 110.81861 274.229362 
L 111.124343 279.832414 
L 111.38386 254.28909 
L 111.536184 286.753831 
L 112.103633 287.577809 
L 112.543466 270.768654 
L 112.643617 287.413014 
L 113.226746 232.536065 
L 113.437854 293.510452 
L 113.750709 252.805929 
L 113.87907 276.866093 
L 114.469058 292.686474 
L 114.74592 258.573777 
L 114.831724 273.57018 
L 115.116117 280.985984 
L 115.369569 265.000807 
L 115.560353 279.502823 
L 115.893838 241.764621 
L 117.00569 290.049744 
L 117.318244 251.157973 
L 117.939546 265.659989 
L 118.054341 264.836011 
L 118.286998 286.589035 
L 118.870499 273.075793 
L 118.999366 282.63394 
L 119.130874 265.000807 
L 119.170387 285.929853 
L 119.386206 285.435466 
L 119.42307 291.203313 
L 119.589643 288.072196 
L 119.893432 277.36048 
L 119.936908 224.461079 
L 120.074611 266.483967 
L 121.202339 288.566583 
L 121.284143 257.255411 
L 121.511287 281.809962 
L 122.387862 261.704894 
L 122.790529 268.461515 
L 123.130355 252.805929 
L 123.380172 257.090616 
L 124.619484 211.93661 
L 124.730404 237.315139 
L 125.273718 212.925384 
L 126.274645 227.097809 
L 126.720101 274.558954 
L 127.349305 232.041678 
L 127.74539 251.65236 
L 127.88509 282.63394 
L 127.891085 270.93345 
L 128.181466 282.63394 
L 128.547498 256.761025 
L 128.765908 278.184458 
L 129.289109 276.866093 
L 129.315309 285.27067 
L 129.399607 278.678845 
L 129.536062 236.326365 
L 129.559693 283.622714 
L 129.786275 278.514049 
L 130.286231 261.210507 
L 130.581874 284.117101 
L 131.527527 277.690071 
L 132.017464 258.573777 
L 132.257769 266.813559 
L 132.584012 293.016065 
L 132.643684 277.854866 
L 133.307896 276.042114 
L 133.483663 270.93345 
L 133.739066 269.285493 
L 133.965431 294.499226 
L 134.391009 258.07939 
L 135.239801 292.192087 
L 135.250012 273.075793 
L 135.626672 270.274267 
L 136.416057 289.720153 
L 136.855901 291.532905 
L 137.003067 277.690071 
L 137.128677 292.85127 
L 137.394304 209.29988 
L 138.984555 282.798736 
L 139.03468 280.162005 
L 139.472231 283.952305 
L 139.548618 293.510452 
L 140.353572 285.765057 
L 140.517921 271.592632 
L 141.017769 269.615084 
L 141.090356 280.656392 
L 141.129051 268.626311 
L 141.234153 279.338027 
L 141.555829 254.618681 
L 141.640149 293.180861 
L 141.790795 222.977918 
L 143.107382 284.446692 
L 143.134051 260.056937 
L 143.513444 285.27067 
L 143.583131 211.93661 
L 143.67372 255.442659 
L 144.357435 286.42424 
L 144.677487 239.457482 
L 144.804362 242.423804 
L 145.263941 258.573777 
L 145.274063 206.992741 
L 145.449707 212.925384 
L 146.13344 213.914158 
L 146.193786 288.236992 
L 147.445153 272.41661 
L 147.67914 231.382496 
L 147.713877 232.041678 
L 148.029848 267.307946 
L 148.448154 282.963531 
L 148.501764 282.469144 
L 148.660152 279.832414 
L 148.701213 264.50642 
L 148.737602 279.667619 
L 149.022003 285.105875 
L 149.098265 276.042114 
L 149.354882 285.929853 
L 150.002412 276.20691 
L 150.116612 276.866093 
L 150.726506 289.390561 
L 151.126054 249.180425 
L 151.879505 278.678845 
L 152.7215 275.547728 
L 152.807469 285.27067 
L 153.101548 288.401787 
L 153.731862 262.528872 
L 153.835154 273.899771 
L 154.313847 283.293123 
L 154.563456 245.554921 
L 155.122892 255.442659 
L 155.415528 287.742605 
L 155.4948 287.742605 
L 155.84837 284.611488 
L 157.103799 259.397755 
L 157.226282 281.315575 
L 157.372446 256.266638 
L 157.640053 229.569744 
L 157.991401 229.899335 
L 158.842551 278.514049 
L 158.942911 252.146747 
L 159.227355 274.394158 
L 159.422402 270.93345 
L 160.693881 295.323204 
L 161.027498 284.281896 
L 161.076256 255.607455 
L 161.620818 241.929417 
L 162.066362 286.753831 
L 162.862468 284.446692 
L 163.909521 282.139553 
L 164.084597 223.801896 
L 164.51997 269.120698 
L 165.147223 284.117101 
L 165.381709 256.266638 
L 165.718378 254.948272 
L 165.994565 286.42424 
L 166.958614 212.760589 
L 167.316923 285.929853 
L 167.42549 240.446256 
L 168.796857 281.809962 
L 168.825519 277.195684 
L 169.125209 287.413014 
L 169.167701 286.42424 
L 169.790862 261.375302 
L 169.903692 277.690071 
L 169.956678 255.442659 
L 170.350287 254.618681 
L 170.666083 290.21454 
L 170.680279 279.667619 
L 171.21899 254.948272 
L 171.509476 268.461515 
L 171.576686 235.996774 
L 171.6607 266.648763 
L 171.883486 272.746202 
L 172.106718 255.277864 
L 172.683264 275.877319 
L 173.205934 257.914594 
L 173.384895 259.56255 
L 173.405661 212.595793 
L 173.663716 277.195684 
L 173.778201 239.292687 
L 174.190093 284.446692 
L 174.403706 256.596229 
L 174.437425 287.413014 
L 174.599609 235.008 
L 174.731484 284.281896 
L 174.94018 199.412142 
L 175.587568 239.951869 
L 175.627321 288.566583 
L 176.062169 282.798736 
L 176.115979 249.839608 
L 176.422544 287.742605 
L 176.503296 276.536501 
L 176.522454 285.435466 
L 177.131536 256.266638 
L 177.169951 286.094649 
L 177.369039 247.697264 
L 177.43154 250.828381 
L 177.655343 268.626311 
L 178.477435 252.311542 
L 178.606284 286.259444 
L 178.872614 254.618681 
L 179.294294 253.465112 
L 179.585548 294.499226 
L 179.602328 287.742605 
L 179.651679 228.910561 
L 180.342912 259.068163 
L 180.496771 229.404948 
L 181.01313 279.832414 
L 181.637544 284.446692 
L 182.424766 187.876447 
L 183.011893 288.401787 
L 183.264836 293.675248 
L 183.613401 276.536501 
L 183.749207 241.764621 
L 184.005485 255.772251 
L 184.126158 214.408545 
L 184.263924 271.922223 
L 184.637991 263.517646 
L 185.304248 203.532033 
L 185.44379 292.027292 
L 185.60826 281.974757 
L 185.801081 232.041678 
L 186.024942 280.985984 
L 186.528334 257.914594 
L 186.94086 277.690071 
L 187.6452 286.094649 
L 188.195582 228.251379 
L 188.558429 279.008436 
L 188.811084 294.004839 
L 189.580196 267.802332 
L 189.738919 222.15394 
L 189.768144 274.888545 
L 189.963366 276.20691 
L 190.035316 221.989144 
L 190.207491 245.719717 
L 190.384178 288.566583 
L 190.653544 264.50642 
L 190.775575 294.664022 
L 191.837955 275.382932 
L 192.029418 259.068163 
L 192.430933 286.259444 
L 192.761738 270.439063 
L 192.889224 294.664022 
L 193.693874 257.420207 
L 193.744776 239.127891 
L 193.931946 279.99721 
L 195.03776 214.573341 
L 195.158883 276.701297 
L 195.566109 232.536065 
L 195.89793 284.611488 
L 196.131579 251.981951 
L 197.08797 259.232959 
L 197.826747 263.517646 
L 198.138141 289.720153 
L 198.765056 284.941079 
L 199.158755 229.899335 
L 199.897635 255.277864 
L 200.082083 286.589035 
L 200.539987 281.315575 
L 201.018831 224.79067 
L 201.50383 276.20691 
L 201.558133 275.547728 
L 201.799151 239.951869 
L 202.034141 279.008436 
L 202.590881 275.877319 
L 202.97241 267.307946 
L 203.772607 216.056501 
L 203.979634 285.765057 
L 204.335738 253.465112 
L 204.42268 294.334431 
L 204.566912 232.536065 
L 204.999184 288.566583 
L 205.204482 291.368109 
L 205.696105 253.794703 
L 205.969733 207.981515 
L 206.098727 275.218136 
L 206.150206 254.783477 
L 206.319038 236.985548 
L 206.394251 286.094649 
L 206.777752 259.56255 
L 207.308635 275.712523 
L 208.12705 253.13552 
L 208.590472 278.349253 
L 209.381671 283.128327 
L 209.43121 285.929853 
L 209.685986 250.828381 
L 210.440062 235.831978 
L 210.794619 259.56255 
L 211.281734 276.20691 
L 211.900654 285.435466 
L 212.068085 273.405384 
L 212.152154 288.072196 
L 212.225643 281.480371 
L 212.843146 288.072196 
L 212.874634 260.71612 
L 213.041831 267.307946 
L 213.353456 233.360044 
L 213.762098 165.134649 
L 213.826842 287.413014 
L 214.503977 263.517646 
L 214.875665 292.192087 
L 215.152558 287.577809 
L 215.388311 279.667619 
L 215.98003 225.614649 
L 216.271845 273.734975 
L 216.31972 250.004403 
L 216.455934 284.117101 
L 216.460354 252.311542 
L 216.540861 264.341624 
L 216.858853 226.603422 
L 216.875996 277.36048 
L 218.090519 248.521243 
L 219.27411 285.435466 
L 220.026527 278.349253 
L 220.368213 240.611052 
L 220.85959 270.274267 
L 220.869747 281.480371 
L 220.925594 277.195684 
L 221.039817 243.906965 
L 221.212951 280.491597 
L 221.544173 229.73454 
L 221.887447 279.338027 
L 222.456689 268.791106 
L 223.283638 255.937046 
L 223.94697 285.929853 
L 224.563815 286.094649 
L 224.890521 247.697264 
L 224.934174 280.326801 
L 225.939189 256.761025 
L 226.023588 285.929853 
L 226.407565 279.832414 
L 226.53063 269.944676 
L 226.566392 271.757428 
L 226.639967 271.757428 
L 227.393987 284.281896 
L 227.850567 264.176828 
L 227.863134 275.382932 
L 227.976446 258.408981 
L 228.021229 274.888545 
L 228.256697 271.592632 
L 228.349773 258.07939 
L 228.741529 282.63394 
L 229.391535 260.880916 
L 229.845209 281.150779 
L 229.849332 262.034485 
L 230.138327 254.124294 
L 231.07986 234.513613 
L 232.11291 194.138681 
L 232.656098 236.820752 
L 232.722329 281.315575 
L 233.372493 275.547728 
L 233.599495 276.866093 
L 234.124975 271.263041 
L 234.512737 263.188054 
L 234.61342 227.097809 
L 235.328933 284.776283 
L 235.58302 237.974322 
L 235.66198 259.232959 
L 236.595375 285.600262 
L 236.68381 245.22533 
L 237.084953 284.776283 
L 237.274307 262.199281 
L 237.289696 271.263041 
L 237.657752 269.450289 
L 238.073606 254.618681 
L 238.75364 277.030888 
L 238.887448 252.476338 
L 240.182963 287.577809 
L 240.641277 277.195684 
L 241.000182 256.596229 
L 241.170447 282.798736 
L 241.734917 285.27067 
L 241.77438 286.589035 
L 242.038354 283.78751 
L 242.27843 258.408981 
L 243.665998 274.064567 
L 243.751592 285.27067 
L 243.833273 270.274267 
L 244.712526 223.30751 
L 245.467553 284.446692 
L 246.301927 264.50642 
L 246.480858 286.259444 
L 246.670209 271.427837 
L 247.350642 285.105875 
L 248.309042 242.588599 
L 248.540962 289.06097 
L 248.800552 271.592632 
L 249.12789 265.824785 
L 249.521373 279.832414 
L 249.965101 230.558518 
L 250.192257 265.659989 
L 251.020015 257.090616 
L 251.776491 257.090616 
L 252.098139 283.622714 
L 252.185913 242.918191 
L 253.166559 225.120262 
L 253.192611 278.514049 
L 253.615821 248.850834 
L 254.244763 286.094649 
L 254.958184 279.502823 
L 255.074873 287.248218 
L 255.085306 282.469144 
L 255.43223 285.105875 
L 255.566467 259.56255 
L 255.737276 284.941079 
L 256.33405 287.907401 
L 256.714406 278.184458 
L 257.732506 277.195684 
L 258.720472 200.400916 
L 259.118895 277.030888 
L 259.622026 269.615084 
L 259.972898 228.910561 
L 260.498062 210.288654 
L 260.610134 283.457918 
L 261.219486 210.45345 
L 261.370782 282.304349 
L 261.544462 264.671215 
L 261.81125 278.678845 
L 261.841999 287.742605 
L 262.158944 284.941079 
L 262.292737 238.468708 
L 262.541569 250.663586 
L 262.98189 249.839608 
L 263.210027 269.77988 
L 263.418811 188.700425 
L 263.877997 287.083422 
L 264.10323 237.974322 
L 264.812209 267.472741 
L 264.978907 214.573341 
L 265.480234 221.329962 
L 265.737457 287.083422 
L 265.786698 284.281896 
L 266.012838 267.802332 
L 266.140386 210.123858 
L 266.337394 284.611488 
L 266.622695 276.042114 
L 266.805801 267.14315 
L 266.892392 251.65236 
L 267.147529 240.116665 
L 267.288234 275.053341 
L 267.807994 260.71612 
L 267.936687 286.42424 
L 268.079192 277.525275 
L 268.79597 287.907401 
L 268.808394 292.356883 
L 268.888165 222.813123 
L 269.241262 250.49879 
L 269.816093 284.776283 
L 271.392994 255.937046 
L 271.476569 262.528872 
L 271.713599 266.813559 
L 271.757362 283.457918 
L 271.905291 229.240153 
L 272.343181 261.375302 
L 272.963481 286.259444 
L 272.963964 254.618681 
L 273.117045 226.438627 
L 273.160579 265.000807 
L 273.818351 271.263041 
L 274.264222 262.199281 
L 274.584532 274.064567 
L 275.348867 235.502387 
L 275.741428 251.981951 
L 276.08539 280.491597 
L 276.563329 272.746202 
L 277.473254 240.28146 
L 277.514431 285.600262 
L 278.238482 259.397755 
L 278.360043 287.083422 
L 279.737969 259.727346 
L 279.754433 235.502387 
L 281.129568 254.453886 
L 281.278189 260.71612 
L 282.046538 182.767782 
L 283.052805 287.413014 
L 284.003994 217.539662 
L 284.149836 256.431433 
L 284.638921 217.045275 
L 285.253674 269.285493 
L 285.575949 242.094213 
L 286.204058 272.581406 
L 287.073124 268.955902 
L 287.675047 248.686038 
L 288.116027 243.906965 
L 288.536497 245.390125 
L 288.62674 212.925384 
L 289.043674 285.765057 
L 289.271181 201.060098 
L 289.467689 201.389689 
L 289.82398 195.786638 
L 290.754269 204.685602 
L 291.140061 277.690071 
L 291.870871 205.179989 
L 292.183075 252.805929 
L 293.06658 278.678845 
L 293.750408 212.925384 
L 293.884665 284.117101 
L 293.956153 224.79067 
L 294.408088 267.307946 
L 294.930087 259.068163 
L 296.937545 250.169199 
L 297.104729 282.304349 
L 298.019513 256.431433 
L 298.483425 280.162005 
L 298.763626 274.888545 
L 298.833717 260.386529 
L 299.381497 286.589035 
L 299.476736 237.974322 
L 299.969345 245.719717 
L 300.506413 227.756992 
L 300.516981 257.420207 
L 300.799084 178.977482 
L 301.717565 266.648763 
L 302.014051 223.30751 
L 302.251893 254.783477 
L 302.395709 250.993177 
L 303.288639 286.259444 
L 303.418865 279.832414 
L 303.518289 202.543259 
L 303.649101 191.996338 
L 304.832072 287.248218 
L 305.444893 245.719717 
L 305.863149 265.000807 
L 307.463105 238.633504 
L 307.658341 280.491597 
L 307.900525 289.06097 
L 308.466702 235.831978 
L 308.635266 267.637537 
L 308.844138 266.319172 
L 308.970216 202.708054 
L 309.824017 205.839172 
L 310.04629 279.667619 
L 310.223795 53.568 
L 310.390713 209.29988 
L 312.076081 192.65552 
L 312.083732 143.876011 
L 312.134739 253.465112 
L 313.087906 202.87285 
L 313.138224 274.723749 
L 313.891715 241.105439 
L 314.370709 288.566583 
L 314.493325 201.719281 
L 314.547361 267.307946 
L 314.630701 229.075357 
L 315.53187 277.030888 
L 315.864951 214.408545 
L 316.132332 285.600262 
L 316.412467 252.970725 
L 316.865536 200.565711 
L 317.377985 265.330398 
L 317.510711 195.292251 
L 317.879299 287.413014 
L 318.914257 237.479935 
L 318.995923 222.483531 
L 319.430141 285.105875 
L 319.946889 281.480371 
L 320.954961 278.678845 
L 321.275944 205.50958 
L 321.299858 266.319172 
L 321.696439 278.019662 
L 321.834268 164.475466 
L 322.154002 264.836011 
L 323.855506 263.517646 
L 324.577475 203.037646 
L 324.585138 265.659989 
L 324.914551 244.730943 
L 325.05673 201.224894 
L 325.996923 283.622714 
L 326.707152 286.589035 
L 326.75659 180.295847 
L 326.802317 276.866093 
L 327.731974 284.117101 
L 327.816767 225.94424 
L 328.027876 245.22533 
L 328.648833 287.083422 
L 329.358839 288.072196 
L 329.994554 216.056501 
L 330.012783 264.176828 
L 330.783947 221.329962 
L 331.727536 183.59176 
L 332.592667 256.92582 
L 332.74214 192.65552 
L 332.798191 197.764185 
L 332.913121 191.17236 
L 333.753997 274.229362 
L 333.928793 269.120698 
L 334.029041 206.168763 
L 335.699338 205.674376 
L 337.563217 255.442659 
L 338.199568 267.14315 
L 338.720159 178.647891 
L 340.457627 286.42424 
L 340.499189 267.637537 
L 340.537021 286.753831 
L 342.108152 202.048872 
L 342.571475 288.566583 
L 344.505189 127.561243 
L 345.500131 214.902932 
L 345.505505 286.42424 
L 346.749802 272.41661 
L 347.081899 184.250943 
L 347.276574 195.292251 
L 348.152478 286.259444 
L 348.409775 266.978354 
L 348.834028 253.959499 
L 349.162064 291.368109 
L 349.871008 278.019662 
L 349.888821 200.400916 
L 350.939186 248.850834 
L 351.610053 288.072196 
L 352.121012 203.367237 
L 352.30066 206.992741 
L 352.984851 288.236992 
L 354.218741 181.284621 
L 354.478783 287.083422 
L 355.786007 287.248218 
L 356.50962 283.457918 
L 356.712549 232.37127 
L 358.673636 221.165166 
L 359.04674 260.880916 
L 361.491386 260.386529 
L 362.072333 201.719281 
L 362.126114 208.475902 
L 362.391807 219.682005 
L 363.04266 189.689199 
L 363.220007 276.536501 
L 363.450062 262.034485 
L 363.56497 207.157537 
L 363.797503 262.034485 
L 364.105396 239.951869 
L 364.71957 222.977918 
L 366.059343 286.259444 
L 366.30405 271.427837 
L 366.439408 171.067292 
L 367.235004 274.888545 
L 367.440378 202.708054 
L 368.28468 207.651924 
L 368.342904 288.236992 
L 368.461132 195.786638 
L 369.304522 204.191215 
L 369.823873 225.285057 
L 371.505019 239.787074 
L 371.522643 277.525275 
L 371.756583 262.364076 
L 372.442818 259.397755 
L 374.211802 243.247782 
L 374.369826 143.052033 
L 374.531717 290.049744 
L 375.49376 283.952305 
L 375.507281 291.203313 
L 375.745627 270.768654 
L 375.766977 215.397319 
L 375.87587 278.349253 
L 377.351926 259.727346 
L 377.824521 278.678845 
L 377.905131 205.674376 
L 378.471822 213.254975 
L 381.103475 260.551324 
L 381.202199 203.367237 
L 381.204604 270.439063 
L 381.594949 213.914158 
L 381.995835 252.641134 
L 382.199354 209.629471 
L 382.473203 215.397319 
L 382.573242 286.42424 
L 382.62642 273.075793 
L 382.728211 219.51721 
L 382.910135 187.711651 
L 383.512964 288.236992 
L 384.15283 201.389689 
L 384.208621 287.248218 
L 384.444192 157.224458 
L 385.225921 198.752959 
L 385.747546 275.053341 
L 386.482458 265.659989 
L 386.916449 286.259444 
L 387.569612 204.02642 
L 387.957642 261.869689 
L 388.342709 242.094213 
L 389.112037 211.771815 
L 391.734999 207.651924 
L 392.963357 265.000807 
L 394.329017 248.026856 
L 394.728681 264.50642 
L 394.967589 210.45345 
L 395.42211 210.288654 
L 396.619849 288.401787 
L 397.728799 233.195248 
L 398.424331 250.49879 
L 400.519051 278.678845 
L 400.645869 276.701297 
L 402.67907 288.236992 
L 404.011241 76.145003 
L 404.974335 205.015193 
L 405.741721 261.375302 
L 406.679792 282.304349 
L 407.776976 196.775411 
L 408.898328 254.783477 
L 408.935954 201.060098 
L 409.137371 242.094213 
L 409.882957 223.142714 
L 410.331172 289.06097 
L 410.461679 280.656392 
L 410.820414 287.248218 
L 412.276364 257.585003 
L 414.334324 287.577809 
L 414.72 251.157973 
L 414.72 251.157973 
" style="fill:none;stroke:#000000;stroke-linecap:square;stroke-width:0.8;"/>
   </g>
   <g id="patch_3">
    <path d="M 57.6 307.584 
L 57.6 41.472 
" style="fill:none;stroke:#000000;stroke-linecap:square;stroke-linejoin:miter;stroke-width:0.8;"/>
   </g>
   <g id="patch_4">
    <path d="M 414.72 307.584 
L 414.72 41.472 
" style="fill:none;stroke:#000000;stroke-linecap:square;stroke-linejoin:miter;stroke-width:0.8;"/>
   </g>
   <g id="patch_5">
    <path d="M 57.6 307.584 
L 414.72 307.584 
" style="fill:none;stroke:#000000;stroke-linecap:square;stroke-linejoin:miter;stroke-width:0.8;"/>
   </g>
   <g id="patch_6">
    <path d="M 57.6 41.472 
L 414.72 41.472 
" style="fill:none;stroke:#000000;stroke-linecap:square;stroke-linejoin:miter;stroke-width:0.8;"/>
   </g>
  </g>
  <g id="axes_2">
   <g id="matplotlib.axis_3">
    <g id="xtick_8">
     <g id="line2d_32">
      <defs>
       <path d="M 0 0 
L 0 -3.5 
" id="m00b929a0d8" style="stroke:#000000;stroke-width:0.8;"/>
      </defs>
      <g>
       <use style="stroke:#000000;stroke-width:0.8;" x="57.6" xlink:href="#m00b929a0d8" y="41.472"/>
      </g>
     </g>
    </g>
    <g id="xtick_9">
     <g id="line2d_33">
      <g>
       <use style="stroke:#000000;stroke-width:0.8;" x="130.395467" xlink:href="#m00b929a0d8" y="41.472"/>
      </g>
     </g>
     <g id="text_18">
      <!-- 5.00K -->
      <defs>
       <path d="M 10.796875 72.90625 
L 49.515625 72.90625 
L 49.515625 64.59375 
L 19.828125 64.59375 
L 19.828125 46.734375 
Q 21.96875 47.46875 24.109375 47.828125 
Q 26.265625 48.1875 28.421875 48.1875 
Q 40.625 48.1875 47.75 41.5 
Q 54.890625 34.8125 54.890625 23.390625 
Q 54.890625 11.625 47.5625 5.09375 
Q 40.234375 -1.421875 26.90625 -1.421875 
Q 22.3125 -1.421875 17.546875 -0.640625 
Q 12.796875 0.140625 7.71875 1.703125 
L 7.71875 11.625 
Q 12.109375 9.234375 16.796875 8.0625 
Q 21.484375 6.890625 26.703125 6.890625 
Q 35.15625 6.890625 40.078125 11.328125 
Q 45.015625 15.765625 45.015625 23.390625 
Q 45.015625 31 40.078125 35.4375 
Q 35.15625 39.890625 26.703125 39.890625 
Q 22.75 39.890625 18.8125 39.015625 
Q 14.890625 38.140625 10.796875 36.28125 
z
" id="DejaVuSans-53"/>
       <path d="M 10.6875 12.40625 
L 21 12.40625 
L 21 0 
L 10.6875 0 
z
" id="DejaVuSans-46"/>
       <path d="M 9.8125 72.90625 
L 19.671875 72.90625 
L 19.671875 42.09375 
L 52.390625 72.90625 
L 65.09375 72.90625 
L 28.90625 38.921875 
L 67.671875 0 
L 54.6875 0 
L 19.671875 35.109375 
L 19.671875 0 
L 9.8125 0 
z
" id="DejaVuSans-75"/>
      </defs>
      <g transform="translate(115.983748 32.392313)scale(0.1 -0.1)">
       <use xlink:href="#DejaVuSans-53"/>
       <use x="63.623047" xlink:href="#DejaVuSans-46"/>
       <use x="95.410156" xlink:href="#DejaVuSans-48"/>
       <use x="159.033203" xlink:href="#DejaVuSans-48"/>
       <use x="222.65625" xlink:href="#DejaVuSans-75"/>
      </g>
     </g>
    </g>
    <g id="xtick_10">
     <g id="line2d_34">
      <g>
       <use style="stroke:#000000;stroke-width:0.8;" x="203.190933" xlink:href="#m00b929a0d8" y="41.472"/>
      </g>
     </g>
     <g id="text_19">
      <!-- 10.0K -->
      <g transform="translate(188.779214 32.392313)scale(0.1 -0.1)">
       <use xlink:href="#DejaVuSans-49"/>
       <use x="63.623047" xlink:href="#DejaVuSans-48"/>
       <use x="127.246094" xlink:href="#DejaVuSans-46"/>
       <use x="159.033203" xlink:href="#DejaVuSans-48"/>
       <use x="222.65625" xlink:href="#DejaVuSans-75"/>
      </g>
     </g>
    </g>
    <g id="xtick_11">
     <g id="line2d_35">
      <g>
       <use style="stroke:#000000;stroke-width:0.8;" x="275.9864" xlink:href="#m00b929a0d8" y="41.472"/>
      </g>
     </g>
     <g id="text_20">
      <!-- 15.0K -->
      <g transform="translate(261.574681 32.392313)scale(0.1 -0.1)">
       <use xlink:href="#DejaVuSans-49"/>
       <use x="63.623047" xlink:href="#DejaVuSans-53"/>
       <use x="127.246094" xlink:href="#DejaVuSans-46"/>
       <use x="159.033203" xlink:href="#DejaVuSans-48"/>
       <use x="222.65625" xlink:href="#DejaVuSans-75"/>
      </g>
     </g>
    </g>
    <g id="xtick_12">
     <g id="line2d_36">
      <g>
       <use style="stroke:#000000;stroke-width:0.8;" x="348.781866" xlink:href="#m00b929a0d8" y="41.472"/>
      </g>
     </g>
     <g id="text_21">
      <!-- 20.0K -->
      <g transform="translate(334.370148 32.392313)scale(0.1 -0.1)">
       <use xlink:href="#DejaVuSans-50"/>
       <use x="63.623047" xlink:href="#DejaVuSans-48"/>
       <use x="127.246094" xlink:href="#DejaVuSans-46"/>
       <use x="159.033203" xlink:href="#DejaVuSans-48"/>
       <use x="222.65625" xlink:href="#DejaVuSans-75"/>
      </g>
     </g>
    </g>
    <g id="text_22">
     <!-- Episodes -->
     <defs>
      <path d="M 9.8125 72.90625 
L 55.90625 72.90625 
L 55.90625 64.59375 
L 19.671875 64.59375 
L 19.671875 43.015625 
L 54.390625 43.015625 
L 54.390625 34.71875 
L 19.671875 34.71875 
L 19.671875 8.296875 
L 56.78125 8.296875 
L 56.78125 0 
L 9.8125 0 
z
" id="DejaVuSans-69"/>
      <path d="M 9.421875 54.6875 
L 18.40625 54.6875 
L 18.40625 0 
L 9.421875 0 
z
M 9.421875 75.984375 
L 18.40625 75.984375 
L 18.40625 64.59375 
L 9.421875 64.59375 
z
" id="DejaVuSans-105"/>
      <path d="M 45.40625 46.390625 
L 45.40625 75.984375 
L 54.390625 75.984375 
L 54.390625 0 
L 45.40625 0 
L 45.40625 8.203125 
Q 42.578125 3.328125 38.25 0.953125 
Q 33.9375 -1.421875 27.875 -1.421875 
Q 17.96875 -1.421875 11.734375 6.484375 
Q 5.515625 14.40625 5.515625 27.296875 
Q 5.515625 40.1875 11.734375 48.09375 
Q 17.96875 56 27.875 56 
Q 33.9375 56 38.25 53.625 
Q 42.578125 51.265625 45.40625 46.390625 
z
M 14.796875 27.296875 
Q 14.796875 17.390625 18.875 11.75 
Q 22.953125 6.109375 30.078125 6.109375 
Q 37.203125 6.109375 41.296875 11.75 
Q 45.40625 17.390625 45.40625 27.296875 
Q 45.40625 37.203125 41.296875 42.84375 
Q 37.203125 48.484375 30.078125 48.484375 
Q 22.953125 48.484375 18.875 42.84375 
Q 14.796875 37.203125 14.796875 27.296875 
z
" id="DejaVuSans-100"/>
     </defs>
     <g transform="translate(213.917812 20.793875)scale(0.1 -0.1)">
      <use xlink:href="#DejaVuSans-69"/>
      <use x="63.183594" xlink:href="#DejaVuSans-112"/>
      <use x="126.660156" xlink:href="#DejaVuSans-105"/>
      <use x="154.443359" xlink:href="#DejaVuSans-115"/>
      <use x="206.542969" xlink:href="#DejaVuSans-111"/>
      <use x="267.724609" xlink:href="#DejaVuSans-100"/>
      <use x="331.201172" xlink:href="#DejaVuSans-101"/>
      <use x="392.724609" xlink:href="#DejaVuSans-115"/>
     </g>
    </g>
   </g>
   <g id="patch_7">
    <path d="M 57.6 307.584 
L 57.6 41.472 
" style="fill:none;stroke:#000000;stroke-linecap:square;stroke-linejoin:miter;stroke-width:0.8;"/>
   </g>
   <g id="patch_8">
    <path d="M 414.72 307.584 
L 414.72 41.472 
" style="fill:none;stroke:#000000;stroke-linecap:square;stroke-linejoin:miter;stroke-width:0.8;"/>
   </g>
   <g id="patch_9">
    <path d="M 57.6 307.584 
L 414.72 307.584 
" style="fill:none;stroke:#000000;stroke-linecap:square;stroke-linejoin:miter;stroke-width:0.8;"/>
   </g>
   <g id="patch_10">
    <path d="M 57.6 41.472 
L 414.72 41.472 
" style="fill:none;stroke:#000000;stroke-linecap:square;stroke-linejoin:miter;stroke-width:0.8;"/>
   </g>
  </g>
 </g>
 <defs>
  <clipPath id="pfa15cf394e">
   <rect height="266.112" width="357.12" x="57.6" y="41.472"/>
  </clipPath>
 </defs>
</svg>
