<?xml version="1.0" encoding="utf-8" standalone="no"?>
<!DOCTYPE svg PUBLIC "-//W3C//DTD SVG 1.1//EN"
  "http://www.w3.org/Graphics/SVG/1.1/DTD/svg11.dtd">
<!-- Created with matplotlib (https://matplotlib.org/) -->
<svg height="345.6pt" version="1.1" viewBox="0 0 460.8 345.6" width="460.8pt" xmlns="http://www.w3.org/2000/svg" xmlns:xlink="http://www.w3.org/1999/xlink">
 <defs>
  <style type="text/css">
*{stroke-linecap:butt;stroke-linejoin:round;}
  </style>
 </defs>
 <g id="figure_1">
  <g id="patch_1">
   <path d="M 0 345.6 
L 460.8 345.6 
L 460.8 0 
L 0 0 
z
" style="fill:#ffffff;"/>
  </g>
  <g id="axes_1">
   <g id="patch_2">
    <path d="M 57.6 307.584 
L 414.72 307.584 
L 414.72 41.472 
L 57.6 41.472 
z
" style="fill:#ffffff;"/>
   </g>
   <g id="matplotlib.axis_1">
    <g id="xtick_1">
     <g id="line2d_1">
      <path clip-path="url(#p0d9da5bd14)" d="M 57.6 307.584 
L 57.6 41.472 
" style="fill:none;stroke:#b0b0b0;stroke-linecap:square;stroke-width:0.8;"/>
     </g>
     <g id="line2d_2">
      <defs>
       <path d="M 0 0 
L 0 3.5 
" id="mcd38e7783e" style="stroke:#000000;stroke-width:0.8;"/>
      </defs>
      <g>
       <use style="stroke:#000000;stroke-width:0.8;" x="57.6" xlink:href="#mcd38e7783e" y="307.584"/>
      </g>
     </g>
     <g id="text_1">
      <!-- 0 -->
      <defs>
       <path d="M 31.78125 66.40625 
Q 24.171875 66.40625 20.328125 58.90625 
Q 16.5 51.421875 16.5 36.375 
Q 16.5 21.390625 20.328125 13.890625 
Q 24.171875 6.390625 31.78125 6.390625 
Q 39.453125 6.390625 43.28125 13.890625 
Q 47.125 21.390625 47.125 36.375 
Q 47.125 51.421875 43.28125 58.90625 
Q 39.453125 66.40625 31.78125 66.40625 
z
M 31.78125 74.21875 
Q 44.046875 74.21875 50.515625 64.515625 
Q 56.984375 54.828125 56.984375 36.375 
Q 56.984375 17.96875 50.515625 8.265625 
Q 44.046875 -1.421875 31.78125 -1.421875 
Q 19.53125 -1.421875 13.0625 8.265625 
Q 6.59375 17.96875 6.59375 36.375 
Q 6.59375 54.828125 13.0625 64.515625 
Q 19.53125 74.21875 31.78125 74.21875 
z
" id="DejaVuSans-48"/>
      </defs>
      <g transform="translate(54.41875 322.182437)scale(0.1 -0.1)">
       <use xlink:href="#DejaVuSans-48"/>
      </g>
     </g>
    </g>
    <g id="xtick_2">
     <g id="line2d_3">
      <path clip-path="url(#p0d9da5bd14)" d="M 110.225353 307.584 
L 110.225353 41.472 
" style="fill:none;stroke:#b0b0b0;stroke-linecap:square;stroke-width:0.8;"/>
     </g>
     <g id="line2d_4">
      <g>
       <use style="stroke:#000000;stroke-width:0.8;" x="110.225353" xlink:href="#mcd38e7783e" y="307.584"/>
      </g>
     </g>
     <g id="text_2">
      <!-- 2 -->
      <defs>
       <path d="M 19.1875 8.296875 
L 53.609375 8.296875 
L 53.609375 0 
L 7.328125 0 
L 7.328125 8.296875 
Q 12.9375 14.109375 22.625 23.890625 
Q 32.328125 33.6875 34.8125 36.53125 
Q 39.546875 41.84375 41.421875 45.53125 
Q 43.3125 49.21875 43.3125 52.78125 
Q 43.3125 58.59375 39.234375 62.25 
Q 35.15625 65.921875 28.609375 65.921875 
Q 23.96875 65.921875 18.8125 64.3125 
Q 13.671875 62.703125 7.8125 59.421875 
L 7.8125 69.390625 
Q 13.765625 71.78125 18.9375 73 
Q 24.125 74.21875 28.421875 74.21875 
Q 39.75 74.21875 46.484375 68.546875 
Q 53.21875 62.890625 53.21875 53.421875 
Q 53.21875 48.921875 51.53125 44.890625 
Q 49.859375 40.875 45.40625 35.40625 
Q 44.1875 33.984375 37.640625 27.21875 
Q 31.109375 20.453125 19.1875 8.296875 
z
" id="DejaVuSans-50"/>
      </defs>
      <g transform="translate(107.044103 322.182437)scale(0.1 -0.1)">
       <use xlink:href="#DejaVuSans-50"/>
      </g>
     </g>
    </g>
    <g id="xtick_3">
     <g id="line2d_5">
      <path clip-path="url(#p0d9da5bd14)" d="M 162.850706 307.584 
L 162.850706 41.472 
" style="fill:none;stroke:#b0b0b0;stroke-linecap:square;stroke-width:0.8;"/>
     </g>
     <g id="line2d_6">
      <g>
       <use style="stroke:#000000;stroke-width:0.8;" x="162.850706" xlink:href="#mcd38e7783e" y="307.584"/>
      </g>
     </g>
     <g id="text_3">
      <!-- 4 -->
      <defs>
       <path d="M 37.796875 64.3125 
L 12.890625 25.390625 
L 37.796875 25.390625 
z
M 35.203125 72.90625 
L 47.609375 72.90625 
L 47.609375 25.390625 
L 58.015625 25.390625 
L 58.015625 17.1875 
L 47.609375 17.1875 
L 47.609375 0 
L 37.796875 0 
L 37.796875 17.1875 
L 4.890625 17.1875 
L 4.890625 26.703125 
z
" id="DejaVuSans-52"/>
      </defs>
      <g transform="translate(159.669456 322.182437)scale(0.1 -0.1)">
       <use xlink:href="#DejaVuSans-52"/>
      </g>
     </g>
    </g>
    <g id="xtick_4">
     <g id="line2d_7">
      <path clip-path="url(#p0d9da5bd14)" d="M 215.476059 307.584 
L 215.476059 41.472 
" style="fill:none;stroke:#b0b0b0;stroke-linecap:square;stroke-width:0.8;"/>
     </g>
     <g id="line2d_8">
      <g>
       <use style="stroke:#000000;stroke-width:0.8;" x="215.476059" xlink:href="#mcd38e7783e" y="307.584"/>
      </g>
     </g>
     <g id="text_4">
      <!-- 6 -->
      <defs>
       <path d="M 33.015625 40.375 
Q 26.375 40.375 22.484375 35.828125 
Q 18.609375 31.296875 18.609375 23.390625 
Q 18.609375 15.53125 22.484375 10.953125 
Q 26.375 6.390625 33.015625 6.390625 
Q 39.65625 6.390625 43.53125 10.953125 
Q 47.40625 15.53125 47.40625 23.390625 
Q 47.40625 31.296875 43.53125 35.828125 
Q 39.65625 40.375 33.015625 40.375 
z
M 52.59375 71.296875 
L 52.59375 62.3125 
Q 48.875 64.0625 45.09375 64.984375 
Q 41.3125 65.921875 37.59375 65.921875 
Q 27.828125 65.921875 22.671875 59.328125 
Q 17.53125 52.734375 16.796875 39.40625 
Q 19.671875 43.65625 24.015625 45.921875 
Q 28.375 48.1875 33.59375 48.1875 
Q 44.578125 48.1875 50.953125 41.515625 
Q 57.328125 34.859375 57.328125 23.390625 
Q 57.328125 12.15625 50.6875 5.359375 
Q 44.046875 -1.421875 33.015625 -1.421875 
Q 20.359375 -1.421875 13.671875 8.265625 
Q 6.984375 17.96875 6.984375 36.375 
Q 6.984375 53.65625 15.1875 63.9375 
Q 23.390625 74.21875 37.203125 74.21875 
Q 40.921875 74.21875 44.703125 73.484375 
Q 48.484375 72.75 52.59375 71.296875 
z
" id="DejaVuSans-54"/>
      </defs>
      <g transform="translate(212.294809 322.182437)scale(0.1 -0.1)">
       <use xlink:href="#DejaVuSans-54"/>
      </g>
     </g>
    </g>
    <g id="xtick_5">
     <g id="line2d_9">
      <path clip-path="url(#p0d9da5bd14)" d="M 268.101412 307.584 
L 268.101412 41.472 
" style="fill:none;stroke:#b0b0b0;stroke-linecap:square;stroke-width:0.8;"/>
     </g>
     <g id="line2d_10">
      <g>
       <use style="stroke:#000000;stroke-width:0.8;" x="268.101412" xlink:href="#mcd38e7783e" y="307.584"/>
      </g>
     </g>
     <g id="text_5">
      <!-- 8 -->
      <defs>
       <path d="M 31.78125 34.625 
Q 24.75 34.625 20.71875 30.859375 
Q 16.703125 27.09375 16.703125 20.515625 
Q 16.703125 13.921875 20.71875 10.15625 
Q 24.75 6.390625 31.78125 6.390625 
Q 38.8125 6.390625 42.859375 10.171875 
Q 46.921875 13.96875 46.921875 20.515625 
Q 46.921875 27.09375 42.890625 30.859375 
Q 38.875 34.625 31.78125 34.625 
z
M 21.921875 38.8125 
Q 15.578125 40.375 12.03125 44.71875 
Q 8.5 49.078125 8.5 55.328125 
Q 8.5 64.0625 14.71875 69.140625 
Q 20.953125 74.21875 31.78125 74.21875 
Q 42.671875 74.21875 48.875 69.140625 
Q 55.078125 64.0625 55.078125 55.328125 
Q 55.078125 49.078125 51.53125 44.71875 
Q 48 40.375 41.703125 38.8125 
Q 48.828125 37.15625 52.796875 32.3125 
Q 56.78125 27.484375 56.78125 20.515625 
Q 56.78125 9.90625 50.3125 4.234375 
Q 43.84375 -1.421875 31.78125 -1.421875 
Q 19.734375 -1.421875 13.25 4.234375 
Q 6.78125 9.90625 6.78125 20.515625 
Q 6.78125 27.484375 10.78125 32.3125 
Q 14.796875 37.15625 21.921875 38.8125 
z
M 18.3125 54.390625 
Q 18.3125 48.734375 21.84375 45.5625 
Q 25.390625 42.390625 31.78125 42.390625 
Q 38.140625 42.390625 41.71875 45.5625 
Q 45.3125 48.734375 45.3125 54.390625 
Q 45.3125 60.0625 41.71875 63.234375 
Q 38.140625 66.40625 31.78125 66.40625 
Q 25.390625 66.40625 21.84375 63.234375 
Q 18.3125 60.0625 18.3125 54.390625 
z
" id="DejaVuSans-56"/>
      </defs>
      <g transform="translate(264.920162 322.182437)scale(0.1 -0.1)">
       <use xlink:href="#DejaVuSans-56"/>
      </g>
     </g>
    </g>
    <g id="xtick_6">
     <g id="line2d_11">
      <path clip-path="url(#p0d9da5bd14)" d="M 320.726765 307.584 
L 320.726765 41.472 
" style="fill:none;stroke:#b0b0b0;stroke-linecap:square;stroke-width:0.8;"/>
     </g>
     <g id="line2d_12">
      <g>
       <use style="stroke:#000000;stroke-width:0.8;" x="320.726765" xlink:href="#mcd38e7783e" y="307.584"/>
      </g>
     </g>
     <g id="text_6">
      <!-- 10 -->
      <defs>
       <path d="M 12.40625 8.296875 
L 28.515625 8.296875 
L 28.515625 63.921875 
L 10.984375 60.40625 
L 10.984375 69.390625 
L 28.421875 72.90625 
L 38.28125 72.90625 
L 38.28125 8.296875 
L 54.390625 8.296875 
L 54.390625 0 
L 12.40625 0 
z
" id="DejaVuSans-49"/>
      </defs>
      <g transform="translate(314.364265 322.182437)scale(0.1 -0.1)">
       <use xlink:href="#DejaVuSans-49"/>
       <use x="63.623047" xlink:href="#DejaVuSans-48"/>
      </g>
     </g>
    </g>
    <g id="xtick_7">
     <g id="line2d_13">
      <path clip-path="url(#p0d9da5bd14)" d="M 373.352118 307.584 
L 373.352118 41.472 
" style="fill:none;stroke:#b0b0b0;stroke-linecap:square;stroke-width:0.8;"/>
     </g>
     <g id="line2d_14">
      <g>
       <use style="stroke:#000000;stroke-width:0.8;" x="373.352118" xlink:href="#mcd38e7783e" y="307.584"/>
      </g>
     </g>
     <g id="text_7">
      <!-- 12 -->
      <g transform="translate(366.989618 322.182437)scale(0.1 -0.1)">
       <use xlink:href="#DejaVuSans-49"/>
       <use x="63.623047" xlink:href="#DejaVuSans-50"/>
      </g>
     </g>
    </g>
    <g id="text_8">
     <!-- Hours -->
     <defs>
      <path d="M 9.8125 72.90625 
L 19.671875 72.90625 
L 19.671875 43.015625 
L 55.515625 43.015625 
L 55.515625 72.90625 
L 65.375 72.90625 
L 65.375 0 
L 55.515625 0 
L 55.515625 34.71875 
L 19.671875 34.71875 
L 19.671875 0 
L 9.8125 0 
z
" id="DejaVuSans-72"/>
      <path d="M 30.609375 48.390625 
Q 23.390625 48.390625 19.1875 42.75 
Q 14.984375 37.109375 14.984375 27.296875 
Q 14.984375 17.484375 19.15625 11.84375 
Q 23.34375 6.203125 30.609375 6.203125 
Q 37.796875 6.203125 41.984375 11.859375 
Q 46.1875 17.53125 46.1875 27.296875 
Q 46.1875 37.015625 41.984375 42.703125 
Q 37.796875 48.390625 30.609375 48.390625 
z
M 30.609375 56 
Q 42.328125 56 49.015625 48.375 
Q 55.71875 40.765625 55.71875 27.296875 
Q 55.71875 13.875 49.015625 6.21875 
Q 42.328125 -1.421875 30.609375 -1.421875 
Q 18.84375 -1.421875 12.171875 6.21875 
Q 5.515625 13.875 5.515625 27.296875 
Q 5.515625 40.765625 12.171875 48.375 
Q 18.84375 56 30.609375 56 
z
" id="DejaVuSans-111"/>
      <path d="M 8.5 21.578125 
L 8.5 54.6875 
L 17.484375 54.6875 
L 17.484375 21.921875 
Q 17.484375 14.15625 20.5 10.265625 
Q 23.53125 6.390625 29.59375 6.390625 
Q 36.859375 6.390625 41.078125 11.03125 
Q 45.3125 15.671875 45.3125 23.6875 
L 45.3125 54.6875 
L 54.296875 54.6875 
L 54.296875 0 
L 45.3125 0 
L 45.3125 8.40625 
Q 42.046875 3.421875 37.71875 1 
Q 33.40625 -1.421875 27.6875 -1.421875 
Q 18.265625 -1.421875 13.375 4.4375 
Q 8.5 10.296875 8.5 21.578125 
z
M 31.109375 56 
z
" id="DejaVuSans-117"/>
      <path d="M 41.109375 46.296875 
Q 39.59375 47.171875 37.8125 47.578125 
Q 36.03125 48 33.890625 48 
Q 26.265625 48 22.1875 43.046875 
Q 18.109375 38.09375 18.109375 28.8125 
L 18.109375 0 
L 9.078125 0 
L 9.078125 54.6875 
L 18.109375 54.6875 
L 18.109375 46.1875 
Q 20.953125 51.171875 25.484375 53.578125 
Q 30.03125 56 36.53125 56 
Q 37.453125 56 38.578125 55.875 
Q 39.703125 55.765625 41.0625 55.515625 
z
" id="DejaVuSans-114"/>
      <path d="M 44.28125 53.078125 
L 44.28125 44.578125 
Q 40.484375 46.53125 36.375 47.5 
Q 32.28125 48.484375 27.875 48.484375 
Q 21.1875 48.484375 17.84375 46.4375 
Q 14.5 44.390625 14.5 40.28125 
Q 14.5 37.15625 16.890625 35.375 
Q 19.28125 33.59375 26.515625 31.984375 
L 29.59375 31.296875 
Q 39.15625 29.25 43.1875 25.515625 
Q 47.21875 21.78125 47.21875 15.09375 
Q 47.21875 7.46875 41.1875 3.015625 
Q 35.15625 -1.421875 24.609375 -1.421875 
Q 20.21875 -1.421875 15.453125 -0.5625 
Q 10.6875 0.296875 5.421875 2 
L 5.421875 11.28125 
Q 10.40625 8.6875 15.234375 7.390625 
Q 20.0625 6.109375 24.8125 6.109375 
Q 31.15625 6.109375 34.5625 8.28125 
Q 37.984375 10.453125 37.984375 14.40625 
Q 37.984375 18.0625 35.515625 20.015625 
Q 33.0625 21.96875 24.703125 23.78125 
L 21.578125 24.515625 
Q 13.234375 26.265625 9.515625 29.90625 
Q 5.8125 33.546875 5.8125 39.890625 
Q 5.8125 47.609375 11.28125 51.796875 
Q 16.75 56 26.8125 56 
Q 31.78125 56 36.171875 55.265625 
Q 40.578125 54.546875 44.28125 53.078125 
z
" id="DejaVuSans-115"/>
     </defs>
     <g transform="translate(221.511562 335.860562)scale(0.1 -0.1)">
      <use xlink:href="#DejaVuSans-72"/>
      <use x="75.195312" xlink:href="#DejaVuSans-111"/>
      <use x="136.376953" xlink:href="#DejaVuSans-117"/>
      <use x="199.755859" xlink:href="#DejaVuSans-114"/>
      <use x="240.869141" xlink:href="#DejaVuSans-115"/>
     </g>
    </g>
   </g>
   <g id="matplotlib.axis_2">
    <g id="ytick_1">
     <g id="line2d_15">
      <path clip-path="url(#p0d9da5bd14)" d="M 57.6 294.352533 
L 414.72 294.352533 
" style="fill:none;stroke:#b0b0b0;stroke-linecap:square;stroke-width:0.8;"/>
     </g>
     <g id="line2d_16">
      <defs>
       <path d="M 0 0 
L -3.5 0 
" id="m944f19be30" style="stroke:#000000;stroke-width:0.8;"/>
      </defs>
      <g>
       <use style="stroke:#000000;stroke-width:0.8;" x="57.6" xlink:href="#m944f19be30" y="294.352533"/>
      </g>
     </g>
     <g id="text_9">
      <!-- −0.4 -->
      <defs>
       <path d="M 10.59375 35.5 
L 73.1875 35.5 
L 73.1875 27.203125 
L 10.59375 27.203125 
z
" id="DejaVuSans-8722"/>
       <path d="M 10.6875 12.40625 
L 21 12.40625 
L 21 0 
L 10.6875 0 
z
" id="DejaVuSans-46"/>
      </defs>
      <g transform="translate(26.317187 298.151752)scale(0.1 -0.1)">
       <use xlink:href="#DejaVuSans-8722"/>
       <use x="83.789062" xlink:href="#DejaVuSans-48"/>
       <use x="147.412109" xlink:href="#DejaVuSans-46"/>
       <use x="179.199219" xlink:href="#DejaVuSans-52"/>
      </g>
     </g>
    </g>
    <g id="ytick_2">
     <g id="line2d_17">
      <path clip-path="url(#p0d9da5bd14)" d="M 57.6 240.386694 
L 414.72 240.386694 
" style="fill:none;stroke:#b0b0b0;stroke-linecap:square;stroke-width:0.8;"/>
     </g>
     <g id="line2d_18">
      <g>
       <use style="stroke:#000000;stroke-width:0.8;" x="57.6" xlink:href="#m944f19be30" y="240.386694"/>
      </g>
     </g>
     <g id="text_10">
      <!-- −0.2 -->
      <g transform="translate(26.317187 244.185912)scale(0.1 -0.1)">
       <use xlink:href="#DejaVuSans-8722"/>
       <use x="83.789062" xlink:href="#DejaVuSans-48"/>
       <use x="147.412109" xlink:href="#DejaVuSans-46"/>
       <use x="179.199219" xlink:href="#DejaVuSans-50"/>
      </g>
     </g>
    </g>
    <g id="ytick_3">
     <g id="line2d_19">
      <path clip-path="url(#p0d9da5bd14)" d="M 57.6 186.420854 
L 414.72 186.420854 
" style="fill:none;stroke:#b0b0b0;stroke-linecap:square;stroke-width:0.8;"/>
     </g>
     <g id="line2d_20">
      <g>
       <use style="stroke:#000000;stroke-width:0.8;" x="57.6" xlink:href="#m944f19be30" y="186.420854"/>
      </g>
     </g>
     <g id="text_11">
      <!-- 0.0 -->
      <g transform="translate(34.696875 190.220073)scale(0.1 -0.1)">
       <use xlink:href="#DejaVuSans-48"/>
       <use x="63.623047" xlink:href="#DejaVuSans-46"/>
       <use x="95.410156" xlink:href="#DejaVuSans-48"/>
      </g>
     </g>
    </g>
    <g id="ytick_4">
     <g id="line2d_21">
      <path clip-path="url(#p0d9da5bd14)" d="M 57.6 132.455014 
L 414.72 132.455014 
" style="fill:none;stroke:#b0b0b0;stroke-linecap:square;stroke-width:0.8;"/>
     </g>
     <g id="line2d_22">
      <g>
       <use style="stroke:#000000;stroke-width:0.8;" x="57.6" xlink:href="#m944f19be30" y="132.455014"/>
      </g>
     </g>
     <g id="text_12">
      <!-- 0.2 -->
      <g transform="translate(34.696875 136.254233)scale(0.1 -0.1)">
       <use xlink:href="#DejaVuSans-48"/>
       <use x="63.623047" xlink:href="#DejaVuSans-46"/>
       <use x="95.410156" xlink:href="#DejaVuSans-50"/>
      </g>
     </g>
    </g>
    <g id="ytick_5">
     <g id="line2d_23">
      <path clip-path="url(#p0d9da5bd14)" d="M 57.6 78.489174 
L 414.72 78.489174 
" style="fill:none;stroke:#b0b0b0;stroke-linecap:square;stroke-width:0.8;"/>
     </g>
     <g id="line2d_24">
      <g>
       <use style="stroke:#000000;stroke-width:0.8;" x="57.6" xlink:href="#m944f19be30" y="78.489174"/>
      </g>
     </g>
     <g id="text_13">
      <!-- 0.4 -->
      <g transform="translate(34.696875 82.288393)scale(0.1 -0.1)">
       <use xlink:href="#DejaVuSans-48"/>
       <use x="63.623047" xlink:href="#DejaVuSans-46"/>
       <use x="95.410156" xlink:href="#DejaVuSans-52"/>
      </g>
     </g>
    </g>
    <g id="text_14">
     <!-- Policy loss -->
     <defs>
      <path d="M 19.671875 64.796875 
L 19.671875 37.40625 
L 32.078125 37.40625 
Q 38.96875 37.40625 42.71875 40.96875 
Q 46.484375 44.53125 46.484375 51.125 
Q 46.484375 57.671875 42.71875 61.234375 
Q 38.96875 64.796875 32.078125 64.796875 
z
M 9.8125 72.90625 
L 32.078125 72.90625 
Q 44.34375 72.90625 50.609375 67.359375 
Q 56.890625 61.8125 56.890625 51.125 
Q 56.890625 40.328125 50.609375 34.8125 
Q 44.34375 29.296875 32.078125 29.296875 
L 19.671875 29.296875 
L 19.671875 0 
L 9.8125 0 
z
" id="DejaVuSans-80"/>
      <path d="M 9.421875 75.984375 
L 18.40625 75.984375 
L 18.40625 0 
L 9.421875 0 
z
" id="DejaVuSans-108"/>
      <path d="M 9.421875 54.6875 
L 18.40625 54.6875 
L 18.40625 0 
L 9.421875 0 
z
M 9.421875 75.984375 
L 18.40625 75.984375 
L 18.40625 64.59375 
L 9.421875 64.59375 
z
" id="DejaVuSans-105"/>
      <path d="M 48.78125 52.59375 
L 48.78125 44.1875 
Q 44.96875 46.296875 41.140625 47.34375 
Q 37.3125 48.390625 33.40625 48.390625 
Q 24.65625 48.390625 19.8125 42.84375 
Q 14.984375 37.3125 14.984375 27.296875 
Q 14.984375 17.28125 19.8125 11.734375 
Q 24.65625 6.203125 33.40625 6.203125 
Q 37.3125 6.203125 41.140625 7.25 
Q 44.96875 8.296875 48.78125 10.40625 
L 48.78125 2.09375 
Q 45.015625 0.34375 40.984375 -0.53125 
Q 36.96875 -1.421875 32.421875 -1.421875 
Q 20.0625 -1.421875 12.78125 6.34375 
Q 5.515625 14.109375 5.515625 27.296875 
Q 5.515625 40.671875 12.859375 48.328125 
Q 20.21875 56 33.015625 56 
Q 37.15625 56 41.109375 55.140625 
Q 45.0625 54.296875 48.78125 52.59375 
z
" id="DejaVuSans-99"/>
      <path d="M 32.171875 -5.078125 
Q 28.375 -14.84375 24.75 -17.8125 
Q 21.140625 -20.796875 15.09375 -20.796875 
L 7.90625 -20.796875 
L 7.90625 -13.28125 
L 13.1875 -13.28125 
Q 16.890625 -13.28125 18.9375 -11.515625 
Q 21 -9.765625 23.484375 -3.21875 
L 25.09375 0.875 
L 2.984375 54.6875 
L 12.5 54.6875 
L 29.59375 11.921875 
L 46.6875 54.6875 
L 56.203125 54.6875 
z
" id="DejaVuSans-121"/>
      <path id="DejaVuSans-32"/>
     </defs>
     <g transform="translate(20.2375 200.333469)rotate(-90)scale(0.1 -0.1)">
      <use xlink:href="#DejaVuSans-80"/>
      <use x="60.255859" xlink:href="#DejaVuSans-111"/>
      <use x="121.4375" xlink:href="#DejaVuSans-108"/>
      <use x="149.220703" xlink:href="#DejaVuSans-105"/>
      <use x="177.003906" xlink:href="#DejaVuSans-99"/>
      <use x="231.984375" xlink:href="#DejaVuSans-121"/>
      <use x="291.164062" xlink:href="#DejaVuSans-32"/>
      <use x="322.951172" xlink:href="#DejaVuSans-108"/>
      <use x="350.734375" xlink:href="#DejaVuSans-111"/>
      <use x="411.916016" xlink:href="#DejaVuSans-115"/>
      <use x="464.015625" xlink:href="#DejaVuSans-115"/>
     </g>
    </g>
   </g>
   <g id="line2d_25">
    <path clip-path="url(#p0d9da5bd14)" d="M 57.6 53.568 
L 58.232656 143.114452 
L 58.862905 214.476549 
L 59.501312 167.01791 
L 60.132424 104.81279 
L 60.766877 204.002009 
L 61.392865 125.797763 
L 62.024443 145.541026 
L 62.654995 211.417824 
L 63.294747 204.006903 
L 63.941665 268.092141 
L 64.580556 237.180477 
L 65.221524 108.36238 
L 65.869898 192.887544 
L 66.511182 115.344155 
L 67.149116 175.510604 
L 67.794104 191.571205 
L 68.426924 145.27662 
L 69.056699 154.832081 
L 69.69544 182.301891 
L 70.327825 147.917578 
L 70.959686 224.542748 
L 71.595199 171.665019 
L 72.22908 194.206481 
L 72.863039 185.572425 
L 73.49864 223.195493 
L 74.13054 169.271742 
L 74.755348 218.253321 
L 75.401473 230.455758 
L 76.03392 126.340426 
L 76.67748 213.222769 
L 77.323317 185.28716 
L 77.964245 178.840724 
L 78.600597 259.382626 
L 79.242972 130.85402 
L 79.890351 210.391796 
L 80.529672 241.394174 
L 81.160203 245.58092 
L 81.79946 160.294088 
L 82.432709 186.154007 
L 83.063791 113.579263 
L 83.702395 83.749954 
L 84.332245 268.22091 
L 84.965534 181.108189 
L 85.600601 129.690442 
L 86.246302 200.352099 
L 86.885439 177.191379 
L 87.518931 192.122132 
L 88.165253 125.424627 
L 88.799677 190.317758 
L 89.434187 215.566738 
L 90.081467 184.536958 
L 90.720584 232.28487 
L 91.353413 62.124436 
L 91.999281 166.583215 
L 92.639228 108.135697 
L 93.282356 180.743603 
L 93.918837 224.359956 
L 94.55619 139.870512 
L 95.193488 131.087554 
L 95.828933 167.591909 
L 96.458847 223.821543 
L 97.088848 83.879423 
L 97.719471 180.15827 
L 98.355019 124.744048 
L 98.993523 175.820776 
L 99.623676 160.244204 
L 100.258403 194.789255 
L 100.892152 148.725515 
L 101.529875 116.801539 
L 102.162477 241.878544 
L 102.795381 169.345525 
L 103.431372 133.703261 
L 104.060415 124.124625 
L 104.695359 181.081786 
L 105.322611 156.49485 
L 105.953123 158.572292 
L 106.577663 245.285591 
L 107.21388 252.980035 
L 107.852453 165.505764 
L 108.487078 163.520738 
L 109.116868 144.551511 
L 109.759138 184.130787 
L 110.390467 238.579058 
L 111.023656 219.09213 
L 111.658716 249.188647 
L 112.28698 295.488 
L 112.919598 127.430134 
L 113.55645 129.496914 
L 114.190701 156.066982 
L 114.827021 205.151129 
L 115.467949 201.549515 
L 116.10391 144.829953 
L 116.736421 122.250307 
L 117.378997 224.583784 
L 118.008738 186.434571 
L 118.636643 119.243577 
L 119.275416 238.411335 
L 119.910553 241.68373 
L 120.541272 231.370238 
L 121.175055 184.739762 
L 121.817643 200.681803 
L 122.452176 153.626285 
L 123.082535 218.422415 
L 123.721439 210.259982 
L 124.346914 145.562553 
L 124.976747 238.091652 
L 125.620913 107.733942 
L 126.249601 137.517209 
L 126.881061 244.105869 
L 127.522873 176.202554 
L 128.158038 184.02676 
L 128.793468 164.146649 
L 129.432315 105.056987 
L 130.064701 120.569686 
L 130.6986 252.523102 
L 131.339234 135.082224 
L 131.976049 119.113991 
L 132.60851 199.934681 
L 133.897401 188.208673 
L 134.535628 265.38659 
L 135.186526 230.50997 
L 135.826506 148.995618 
L 136.471751 223.966833 
L 137.11862 205.37166 
L 137.756699 194.79207 
L 138.393321 130.167067 
L 139.02981 179.665075 
L 139.666322 138.385148 
L 140.309551 248.52787 
L 140.945942 236.403468 
L 141.576443 133.132899 
L 142.208983 121.581903 
L 142.846484 122.819797 
L 143.48338 180.430576 
L 144.118596 192.436447 
L 144.75081 181.113936 
L 146.014115 137.990594 
L 147.926216 259.656062 
L 148.56585 146.002828 
L 149.199761 155.438431 
L 149.823101 147.912982 
L 150.466361 119.031859 
L 151.10141 208.687242 
L 151.735533 207.316184 
L 152.372732 245.895248 
L 153.001469 193.281761 
L 153.636777 248.843918 
L 154.279952 237.68011 
L 154.913675 246.13766 
L 155.542814 220.540089 
L 156.193694 241.61976 
L 156.839294 159.606012 
L 157.477812 155.584908 
L 158.131505 150.180498 
L 158.775329 182.159562 
L 159.420845 152.990744 
L 160.055978 161.029923 
L 160.687448 177.906289 
L 161.321638 100.530937 
L 161.962139 169.300866 
L 163.228646 255.001508 
L 163.855243 197.4225 
L 164.498696 227.558586 
L 165.757305 214.583753 
L 166.392856 187.058922 
L 167.030413 189.390194 
L 167.67509 210.535131 
L 168.310387 151.472407 
L 168.943636 204.650728 
L 169.576343 143.649291 
L 170.20994 114.374651 
L 170.831791 241.22724 
L 171.467491 244.890606 
L 172.099641 237.074152 
L 172.733237 137.708433 
L 173.372483 146.122413 
L 174.63678 268.781606 
L 175.27717 140.865826 
L 175.909994 222.660562 
L 176.542016 224.557343 
L 177.817939 189.435218 
L 178.453377 115.32307 
L 179.095998 138.214298 
L 179.731477 184.648127 
L 180.355461 194.552536 
L 180.992101 211.904854 
L 181.625548 233.905188 
L 182.258123 142.720457 
L 182.895541 159.668205 
L 183.527959 200.576609 
L 184.16211 201.526907 
L 184.79501 239.306969 
L 185.427881 157.108554 
L 186.057575 226.2177 
L 186.697582 73.555216 
L 187.32953 270.690932 
L 187.961424 168.200891 
L 188.594062 239.766205 
L 189.226863 152.414321 
L 189.864989 218.21829 
L 190.49871 91.474108 
L 191.131831 235.765179 
L 191.77094 156.536863 
L 192.404278 147.387351 
L 193.037626 166.218851 
L 193.673644 169.056269 
L 194.307598 122.456621 
L 194.937639 184.102049 
L 195.577634 216.155405 
L 196.211948 114.214496 
L 196.84709 193.438141 
L 197.48368 197.17376 
L 198.115272 275.256917 
L 198.736078 285.925535 
L 199.371041 164.806383 
L 200.00621 174.231999 
L 200.636031 193.480127 
L 201.276515 208.007881 
L 201.915906 262.282155 
L 202.554617 169.289449 
L 203.345796 202.916808 
L 203.986521 132.549256 
L 204.619646 197.741707 
L 205.397059 122.145433 
L 206.035922 216.169522 
L 206.665634 197.034217 
L 207.291719 167.627425 
L 207.93199 201.589826 
L 208.565479 148.00868 
L 209.198413 145.28303 
L 209.837867 175.10594 
L 210.470848 250.355486 
L 211.73867 164.7985 
L 212.374631 240.226579 
L 213.014443 222.061387 
L 213.654747 238.975216 
L 214.303769 205.544191 
L 214.944711 227.555429 
L 215.576327 194.716461 
L 216.224816 167.493837 
L 216.861251 265.007761 
L 217.49079 248.48459 
L 218.122027 221.4884 
L 218.754892 188.743191 
L 219.385415 213.963636 
L 220.02238 227.637336 
L 220.646615 150.449745 
L 221.279316 149.966839 
L 221.912978 174.807882 
L 222.549425 156.818779 
L 223.183365 190.252719 
L 223.826375 202.248172 
L 224.460591 276.461121 
L 225.087756 187.792073 
L 225.880585 152.504679 
L 226.495246 204.682062 
L 227.128181 235.988919 
L 227.766647 173.390117 
L 228.392275 225.158858 
L 229.024989 201.684716 
L 229.664677 189.690494 
L 230.289051 225.991455 
L 230.914838 191.833132 
L 231.784473 134.600025 
L 232.416676 141.496153 
L 233.051822 269.535508 
L 233.691867 223.243397 
L 234.327076 223.851795 
L 234.962225 179.211363 
L 235.597856 163.962599 
L 236.232536 213.932425 
L 236.86504 175.362171 
L 237.507362 209.359728 
L 238.1438 187.820938 
L 238.770601 157.154244 
L 239.41049 134.087646 
L 240.042297 219.215624 
L 240.674646 172.843495 
L 241.31448 183.774475 
L 241.939663 136.705971 
L 242.572402 205.014978 
L 243.213009 200.647049 
L 243.84428 132.624686 
L 244.475335 128.420361 
L 245.114538 179.171394 
L 245.748006 107.90078 
L 246.381526 157.04788 
L 247.022722 238.703846 
L 247.657297 146.029067 
L 248.292294 208.792148 
L 248.933793 253.759493 
L 249.567927 188.830774 
L 250.200965 193.088244 
L 251.472712 150.955111 
L 252.098928 122.308299 
L 252.741043 225.840379 
L 253.373941 166.342516 
L 254.004409 213.028064 
L 254.6455 183.494765 
L 255.279349 164.282246 
L 255.912814 134.13056 
L 257.204472 209.264104 
L 257.848744 194.88933 
L 258.498996 127.809341 
L 259.141179 139.056456 
L 259.783741 222.904502 
L 260.433399 232.23065 
L 261.692258 137.055524 
L 262.3332 186.031231 
L 262.965387 196.718593 
L 263.59902 131.137794 
L 264.239019 177.90276 
L 264.873177 195.286601 
L 265.505151 257.491682 
L 266.138221 234.016957 
L 266.772145 193.844347 
L 267.404283 166.055429 
L 268.04408 269.616744 
L 268.678016 289.123293 
L 269.309631 175.864296 
L 269.950786 178.492526 
L 270.58263 212.758636 
L 271.213936 218.65578 
L 271.84475 215.109877 
L 272.477791 248.133344 
L 273.103399 195.252303 
L 273.743085 200.264565 
L 274.378686 243.784111 
L 275.01475 155.080633 
L 275.656545 146.802735 
L 276.286461 178.359418 
L 276.919728 159.677879 
L 277.561876 127.125167 
L 278.196474 175.582 
L 278.830543 186.338262 
L 279.461414 236.212385 
L 280.721253 136.951893 
L 281.361964 273.681708 
L 281.991999 177.365581 
L 282.623278 214.456743 
L 283.263008 132.682617 
L 283.894766 80.71302 
L 284.526107 177.866597 
L 285.164168 137.620024 
L 285.79703 207.072296 
L 286.429862 209.983349 
L 287.073398 197.015758 
L 287.714289 173.02188 
L 288.353146 243.602119 
L 288.999691 115.971057 
L 289.638806 197.285059 
L 290.260688 231.315885 
L 290.898682 250.842638 
L 291.526164 103.31355 
L 292.790481 174.706378 
L 293.423725 199.417223 
L 294.055146 240.867771 
L 294.695955 117.848209 
L 295.32401 254.224068 
L 295.95926 195.578711 
L 296.605888 190.417202 
L 297.242782 213.383813 
L 297.881182 199.978295 
L 298.527899 164.291244 
L 299.166725 234.06088 
L 299.804996 157.014498 
L 300.448996 221.960771 
L 301.713081 136.492556 
L 302.356586 157.439236 
L 302.991594 226.990644 
L 303.620267 113.492004 
L 304.263087 166.261775 
L 304.895545 172.76359 
L 305.526802 190.821656 
L 306.165925 191.31155 
L 306.798558 230.893934 
L 307.43302 152.825446 
L 308.071979 189.473296 
L 308.70561 176.757448 
L 309.338276 135.637287 
L 309.979266 156.675792 
L 310.609414 228.461968 
L 311.240267 151.085216 
L 311.879432 274.879712 
L 312.511347 197.698649 
L 313.138163 192.927868 
L 313.788551 203.033197 
L 314.424667 237.763565 
L 315.714432 139.253329 
L 316.352239 187.217808 
L 316.991701 149.525125 
L 317.634923 129.033906 
L 318.266006 125.21613 
L 318.897843 156.335442 
L 319.536298 161.494418 
L 320.168116 187.456543 
L 320.799322 147.818309 
L 321.439737 194.900962 
L 322.071189 150.740507 
L 322.702237 200.970424 
L 323.340254 168.984607 
L 323.97246 245.861867 
L 324.589354 256.151472 
L 325.227111 201.579114 
L 325.860175 199.030105 
L 326.492527 219.812933 
L 327.12917 188.126544 
L 327.754563 90.877538 
L 328.386924 225.373809 
L 329.026626 245.206566 
L 330.288601 155.324265 
L 330.930206 227.059918 
L 331.56674 230.111271 
L 332.198325 142.892602 
L 332.840788 163.701062 
L 333.475569 179.467378 
L 334.110332 107.070266 
L 334.75287 243.384145 
L 335.392439 157.923682 
L 336.033395 166.474932 
L 336.683799 161.790857 
L 337.324507 132.315931 
L 338.614831 191.04216 
L 339.257062 163.166515 
L 339.890743 164.261346 
L 340.522678 227.841137 
L 341.154952 222.120114 
L 341.786897 272.747925 
L 342.425253 137.338908 
L 343.052793 177.64324 
L 343.683604 177.966575 
L 344.332226 231.780505 
L 344.970478 102.635552 
L 345.613209 180.424536 
L 346.261089 213.920481 
L 346.904936 233.821885 
L 347.559551 208.602959 
L 348.219153 176.64952 
L 348.850109 206.582169 
L 349.480981 212.25688 
L 350.120151 124.518583 
L 350.745002 177.853005 
L 351.376039 173.832716 
L 352.015912 170.635609 
L 352.646243 229.349311 
L 353.279781 153.700615 
L 353.920558 219.056554 
L 354.548 97.693681 
L 355.178966 219.739414 
L 355.80932 186.052427 
L 356.441894 234.392336 
L 357.077826 153.004445 
L 357.74688 168.340218 
L 358.379217 194.264591 
L 359.008039 116.358032 
L 359.646108 151.545867 
L 360.275789 130.161909 
L 360.907044 231.40363 
L 361.546131 225.872436 
L 362.17811 85.013995 
L 362.810107 205.102068 
L 363.44765 114.443873 
L 364.077816 189.512484 
L 364.710019 227.052178 
L 365.350228 241.418299 
L 365.982213 165.61425 
L 366.615184 262.552624 
L 367.242722 168.505144 
L 367.876508 243.383088 
L 368.502138 196.028954 
L 369.144488 235.570662 
L 369.778372 177.799754 
L 370.411352 200.423101 
L 371.050864 252.272009 
L 371.683149 186.081881 
L 372.315703 193.537551 
L 372.955603 173.392752 
L 373.589068 213.035711 
L 374.221755 187.168843 
L 374.861664 195.693019 
L 375.494913 232.114703 
L 376.762136 164.374997 
L 377.393896 162.132918 
L 378.026088 173.987028 
L 378.665433 215.796672 
L 379.297395 231.77441 
L 379.92412 107.223321 
L 380.56271 160.530037 
L 381.19505 232.330028 
L 381.826941 209.620961 
L 382.466403 171.178639 
L 383.250171 143.31145 
L 383.888057 162.85423 
L 384.519465 203.133543 
L 385.157516 213.547647 
L 385.805236 174.966233 
L 386.442615 243.981651 
L 387.082464 255.387888 
L 387.728294 176.509372 
L 388.368275 237.061813 
L 389.009305 130.321188 
L 389.656207 163.777394 
L 390.298005 212.665941 
L 390.940028 186.572849 
L 391.588712 217.161815 
L 392.220432 222.702378 
L 392.854941 183.583063 
L 393.487979 189.928551 
L 394.121637 149.834403 
L 394.762151 271.314489 
L 395.395344 186.381344 
L 396.02852 175.773431 
L 396.666932 124.109498 
L 397.284776 238.055003 
L 397.916271 248.559224 
L 398.554771 193.374801 
L 399.186246 231.519155 
L 399.818848 211.349489 
L 400.458233 213.675502 
L 401.090863 165.269409 
L 401.723539 266.703335 
L 402.36111 164.9588 
L 402.979589 279.136524 
L 403.764179 201.091239 
L 404.556112 240.82029 
L 405.187358 151.864071 
L 406.460508 215.646525 
L 407.092862 164.368825 
L 407.726391 183.256473 
L 408.364855 207.728516 
L 408.997614 123.950256 
L 409.6302 185.919762 
L 410.27112 224.011757 
L 410.906152 107.829138 
L 411.541143 141.606334 
L 412.182901 155.31666 
L 412.816834 248.341206 
L 413.452033 166.007626 
L 414.094035 162.409374 
L 414.72 201.459394 
L 414.72 201.459394 
" style="fill:none;stroke:#000000;stroke-linecap:square;stroke-width:0.8;"/>
   </g>
   <g id="patch_3">
    <path d="M 57.6 307.584 
L 57.6 41.472 
" style="fill:none;stroke:#000000;stroke-linecap:square;stroke-linejoin:miter;stroke-width:0.8;"/>
   </g>
   <g id="patch_4">
    <path d="M 414.72 307.584 
L 414.72 41.472 
" style="fill:none;stroke:#000000;stroke-linecap:square;stroke-linejoin:miter;stroke-width:0.8;"/>
   </g>
   <g id="patch_5">
    <path d="M 57.6 307.584 
L 414.72 307.584 
" style="fill:none;stroke:#000000;stroke-linecap:square;stroke-linejoin:miter;stroke-width:0.8;"/>
   </g>
   <g id="patch_6">
    <path d="M 57.6 41.472 
L 414.72 41.472 
" style="fill:none;stroke:#000000;stroke-linecap:square;stroke-linejoin:miter;stroke-width:0.8;"/>
   </g>
  </g>
  <g id="axes_2">
   <g id="matplotlib.axis_3">
    <g id="xtick_8">
     <g id="line2d_26">
      <defs>
       <path d="M 0 0 
L 0 -3.5 
" id="m9073be016a" style="stroke:#000000;stroke-width:0.8;"/>
      </defs>
      <g>
       <use style="stroke:#000000;stroke-width:0.8;" x="57.6" xlink:href="#m9073be016a" y="41.472"/>
      </g>
     </g>
    </g>
    <g id="xtick_9">
     <g id="line2d_27">
      <g>
       <use style="stroke:#000000;stroke-width:0.8;" x="121.257754" xlink:href="#m9073be016a" y="41.472"/>
      </g>
     </g>
     <g id="text_15">
      <!-- 100K -->
      <defs>
       <path d="M 9.8125 72.90625 
L 19.671875 72.90625 
L 19.671875 42.09375 
L 52.390625 72.90625 
L 65.09375 72.90625 
L 28.90625 38.921875 
L 67.671875 0 
L 54.6875 0 
L 19.671875 35.109375 
L 19.671875 0 
L 9.8125 0 
z
" id="DejaVuSans-75"/>
      </defs>
      <g transform="translate(108.435098 32.392313)scale(0.1 -0.1)">
       <use xlink:href="#DejaVuSans-49"/>
       <use x="63.623047" xlink:href="#DejaVuSans-48"/>
       <use x="127.246094" xlink:href="#DejaVuSans-48"/>
       <use x="190.869141" xlink:href="#DejaVuSans-75"/>
      </g>
     </g>
    </g>
    <g id="xtick_10">
     <g id="line2d_28">
      <g>
       <use style="stroke:#000000;stroke-width:0.8;" x="184.915508" xlink:href="#m9073be016a" y="41.472"/>
      </g>
     </g>
     <g id="text_16">
      <!-- 200K -->
      <g transform="translate(172.092852 32.392313)scale(0.1 -0.1)">
       <use xlink:href="#DejaVuSans-50"/>
       <use x="63.623047" xlink:href="#DejaVuSans-48"/>
       <use x="127.246094" xlink:href="#DejaVuSans-48"/>
       <use x="190.869141" xlink:href="#DejaVuSans-75"/>
      </g>
     </g>
    </g>
    <g id="xtick_11">
     <g id="line2d_29">
      <g>
       <use style="stroke:#000000;stroke-width:0.8;" x="248.573262" xlink:href="#m9073be016a" y="41.472"/>
      </g>
     </g>
     <g id="text_17">
      <!-- 300K -->
      <defs>
       <path d="M 40.578125 39.3125 
Q 47.65625 37.796875 51.625 33 
Q 55.609375 28.21875 55.609375 21.1875 
Q 55.609375 10.40625 48.1875 4.484375 
Q 40.765625 -1.421875 27.09375 -1.421875 
Q 22.515625 -1.421875 17.65625 -0.515625 
Q 12.796875 0.390625 7.625 2.203125 
L 7.625 11.71875 
Q 11.71875 9.328125 16.59375 8.109375 
Q 21.484375 6.890625 26.8125 6.890625 
Q 36.078125 6.890625 40.9375 10.546875 
Q 45.796875 14.203125 45.796875 21.1875 
Q 45.796875 27.640625 41.28125 31.265625 
Q 36.765625 34.90625 28.71875 34.90625 
L 20.21875 34.90625 
L 20.21875 43.015625 
L 29.109375 43.015625 
Q 36.375 43.015625 40.234375 45.921875 
Q 44.09375 48.828125 44.09375 54.296875 
Q 44.09375 59.90625 40.109375 62.90625 
Q 36.140625 65.921875 28.71875 65.921875 
Q 24.65625 65.921875 20.015625 65.03125 
Q 15.375 64.15625 9.8125 62.3125 
L 9.8125 71.09375 
Q 15.4375 72.65625 20.34375 73.4375 
Q 25.25 74.21875 29.59375 74.21875 
Q 40.828125 74.21875 47.359375 69.109375 
Q 53.90625 64.015625 53.90625 55.328125 
Q 53.90625 49.265625 50.4375 45.09375 
Q 46.96875 40.921875 40.578125 39.3125 
z
" id="DejaVuSans-51"/>
      </defs>
      <g transform="translate(235.750606 32.392313)scale(0.1 -0.1)">
       <use xlink:href="#DejaVuSans-51"/>
       <use x="63.623047" xlink:href="#DejaVuSans-48"/>
       <use x="127.246094" xlink:href="#DejaVuSans-48"/>
       <use x="190.869141" xlink:href="#DejaVuSans-75"/>
      </g>
     </g>
    </g>
    <g id="xtick_12">
     <g id="line2d_30">
      <g>
       <use style="stroke:#000000;stroke-width:0.8;" x="312.231016" xlink:href="#m9073be016a" y="41.472"/>
      </g>
     </g>
     <g id="text_18">
      <!-- 400K -->
      <g transform="translate(299.40836 32.392313)scale(0.1 -0.1)">
       <use xlink:href="#DejaVuSans-52"/>
       <use x="63.623047" xlink:href="#DejaVuSans-48"/>
       <use x="127.246094" xlink:href="#DejaVuSans-48"/>
       <use x="190.869141" xlink:href="#DejaVuSans-75"/>
      </g>
     </g>
    </g>
    <g id="xtick_13">
     <g id="line2d_31">
      <g>
       <use style="stroke:#000000;stroke-width:0.8;" x="375.88877" xlink:href="#m9073be016a" y="41.472"/>
      </g>
     </g>
     <g id="text_19">
      <!-- 500K -->
      <defs>
       <path d="M 10.796875 72.90625 
L 49.515625 72.90625 
L 49.515625 64.59375 
L 19.828125 64.59375 
L 19.828125 46.734375 
Q 21.96875 47.46875 24.109375 47.828125 
Q 26.265625 48.1875 28.421875 48.1875 
Q 40.625 48.1875 47.75 41.5 
Q 54.890625 34.8125 54.890625 23.390625 
Q 54.890625 11.625 47.5625 5.09375 
Q 40.234375 -1.421875 26.90625 -1.421875 
Q 22.3125 -1.421875 17.546875 -0.640625 
Q 12.796875 0.140625 7.71875 1.703125 
L 7.71875 11.625 
Q 12.109375 9.234375 16.796875 8.0625 
Q 21.484375 6.890625 26.703125 6.890625 
Q 35.15625 6.890625 40.078125 11.328125 
Q 45.015625 15.765625 45.015625 23.390625 
Q 45.015625 31 40.078125 35.4375 
Q 35.15625 39.890625 26.703125 39.890625 
Q 22.75 39.890625 18.8125 39.015625 
Q 14.890625 38.140625 10.796875 36.28125 
z
" id="DejaVuSans-53"/>
      </defs>
      <g transform="translate(363.066114 32.392313)scale(0.1 -0.1)">
       <use xlink:href="#DejaVuSans-53"/>
       <use x="63.623047" xlink:href="#DejaVuSans-48"/>
       <use x="127.246094" xlink:href="#DejaVuSans-48"/>
       <use x="190.869141" xlink:href="#DejaVuSans-75"/>
      </g>
     </g>
    </g>
    <g id="text_20">
     <!-- Steps -->
     <defs>
      <path d="M 53.515625 70.515625 
L 53.515625 60.890625 
Q 47.90625 63.578125 42.921875 64.890625 
Q 37.9375 66.21875 33.296875 66.21875 
Q 25.25 66.21875 20.875 63.09375 
Q 16.5 59.96875 16.5 54.203125 
Q 16.5 49.359375 19.40625 46.890625 
Q 22.3125 44.4375 30.421875 42.921875 
L 36.375 41.703125 
Q 47.40625 39.59375 52.65625 34.296875 
Q 57.90625 29 57.90625 20.125 
Q 57.90625 9.515625 50.796875 4.046875 
Q 43.703125 -1.421875 29.984375 -1.421875 
Q 24.8125 -1.421875 18.96875 -0.25 
Q 13.140625 0.921875 6.890625 3.21875 
L 6.890625 13.375 
Q 12.890625 10.015625 18.65625 8.296875 
Q 24.421875 6.59375 29.984375 6.59375 
Q 38.421875 6.59375 43.015625 9.90625 
Q 47.609375 13.234375 47.609375 19.390625 
Q 47.609375 24.75 44.3125 27.78125 
Q 41.015625 30.8125 33.5 32.328125 
L 27.484375 33.5 
Q 16.453125 35.6875 11.515625 40.375 
Q 6.59375 45.0625 6.59375 53.421875 
Q 6.59375 63.09375 13.40625 68.65625 
Q 20.21875 74.21875 32.171875 74.21875 
Q 37.3125 74.21875 42.625 73.28125 
Q 47.953125 72.359375 53.515625 70.515625 
z
" id="DejaVuSans-83"/>
      <path d="M 18.3125 70.21875 
L 18.3125 54.6875 
L 36.8125 54.6875 
L 36.8125 47.703125 
L 18.3125 47.703125 
L 18.3125 18.015625 
Q 18.3125 11.328125 20.140625 9.421875 
Q 21.96875 7.515625 27.59375 7.515625 
L 36.8125 7.515625 
L 36.8125 0 
L 27.59375 0 
Q 17.1875 0 13.234375 3.875 
Q 9.28125 7.765625 9.28125 18.015625 
L 9.28125 47.703125 
L 2.6875 47.703125 
L 2.6875 54.6875 
L 9.28125 54.6875 
L 9.28125 70.21875 
z
" id="DejaVuSans-116"/>
      <path d="M 56.203125 29.59375 
L 56.203125 25.203125 
L 14.890625 25.203125 
Q 15.484375 15.921875 20.484375 11.0625 
Q 25.484375 6.203125 34.421875 6.203125 
Q 39.59375 6.203125 44.453125 7.46875 
Q 49.3125 8.734375 54.109375 11.28125 
L 54.109375 2.78125 
Q 49.265625 0.734375 44.1875 -0.34375 
Q 39.109375 -1.421875 33.890625 -1.421875 
Q 20.796875 -1.421875 13.15625 6.1875 
Q 5.515625 13.8125 5.515625 26.8125 
Q 5.515625 40.234375 12.765625 48.109375 
Q 20.015625 56 32.328125 56 
Q 43.359375 56 49.78125 48.890625 
Q 56.203125 41.796875 56.203125 29.59375 
z
M 47.21875 32.234375 
Q 47.125 39.59375 43.09375 43.984375 
Q 39.0625 48.390625 32.421875 48.390625 
Q 24.90625 48.390625 20.390625 44.140625 
Q 15.875 39.890625 15.1875 32.171875 
z
" id="DejaVuSans-101"/>
      <path d="M 18.109375 8.203125 
L 18.109375 -20.796875 
L 9.078125 -20.796875 
L 9.078125 54.6875 
L 18.109375 54.6875 
L 18.109375 46.390625 
Q 20.953125 51.265625 25.265625 53.625 
Q 29.59375 56 35.59375 56 
Q 45.5625 56 51.78125 48.09375 
Q 58.015625 40.1875 58.015625 27.296875 
Q 58.015625 14.40625 51.78125 6.484375 
Q 45.5625 -1.421875 35.59375 -1.421875 
Q 29.59375 -1.421875 25.265625 0.953125 
Q 20.953125 3.328125 18.109375 8.203125 
z
M 48.6875 27.296875 
Q 48.6875 37.203125 44.609375 42.84375 
Q 40.53125 48.484375 33.40625 48.484375 
Q 26.265625 48.484375 22.1875 42.84375 
Q 18.109375 37.203125 18.109375 27.296875 
Q 18.109375 17.390625 22.1875 11.75 
Q 26.265625 6.109375 33.40625 6.109375 
Q 40.53125 6.109375 44.609375 11.75 
Q 48.6875 17.390625 48.6875 27.296875 
z
" id="DejaVuSans-112"/>
     </defs>
     <g transform="translate(222.170156 20.793875)scale(0.1 -0.1)">
      <use xlink:href="#DejaVuSans-83"/>
      <use x="63.476562" xlink:href="#DejaVuSans-116"/>
      <use x="102.685547" xlink:href="#DejaVuSans-101"/>
      <use x="164.208984" xlink:href="#DejaVuSans-112"/>
      <use x="227.685547" xlink:href="#DejaVuSans-115"/>
     </g>
    </g>
   </g>
   <g id="patch_7">
    <path d="M 57.6 307.584 
L 57.6 41.472 
" style="fill:none;stroke:#000000;stroke-linecap:square;stroke-linejoin:miter;stroke-width:0.8;"/>
   </g>
   <g id="patch_8">
    <path d="M 414.72 307.584 
L 414.72 41.472 
" style="fill:none;stroke:#000000;stroke-linecap:square;stroke-linejoin:miter;stroke-width:0.8;"/>
   </g>
   <g id="patch_9">
    <path d="M 57.6 307.584 
L 414.72 307.584 
" style="fill:none;stroke:#000000;stroke-linecap:square;stroke-linejoin:miter;stroke-width:0.8;"/>
   </g>
   <g id="patch_10">
    <path d="M 57.6 41.472 
L 414.72 41.472 
" style="fill:none;stroke:#000000;stroke-linecap:square;stroke-linejoin:miter;stroke-width:0.8;"/>
   </g>
  </g>
 </g>
 <defs>
  <clipPath id="p0d9da5bd14">
   <rect height="266.112" width="357.12" x="57.6" y="41.472"/>
  </clipPath>
 </defs>
</svg>
