<?xml version="1.0" encoding="utf-8" standalone="no"?>
<!DOCTYPE svg PUBLIC "-//W3C//DTD SVG 1.1//EN"
  "http://www.w3.org/Graphics/SVG/1.1/DTD/svg11.dtd">
<!-- Created with matplotlib (https://matplotlib.org/) -->
<svg height="345.6pt" version="1.1" viewBox="0 0 460.8 345.6" width="460.8pt" xmlns="http://www.w3.org/2000/svg" xmlns:xlink="http://www.w3.org/1999/xlink">
 <defs>
  <style type="text/css">
*{stroke-linecap:butt;stroke-linejoin:round;}
  </style>
 </defs>
 <g id="figure_1">
  <g id="patch_1">
   <path d="M 0 345.6 
L 460.8 345.6 
L 460.8 0 
L 0 0 
z
" style="fill:#ffffff;"/>
  </g>
  <g id="axes_1">
   <g id="patch_2">
    <path d="M 57.6 307.584 
L 414.72 307.584 
L 414.72 41.472 
L 57.6 41.472 
z
" style="fill:#ffffff;"/>
   </g>
   <g id="matplotlib.axis_1">
    <g id="xtick_1">
     <g id="line2d_1">
      <path clip-path="url(#p2ad94a7728)" d="M 57.6 307.584 
L 57.6 41.472 
" style="fill:none;stroke:#b0b0b0;stroke-linecap:square;stroke-width:0.8;"/>
     </g>
     <g id="line2d_2">
      <defs>
       <path d="M 0 0 
L 0 3.5 
" id="maef0d9ba67" style="stroke:#000000;stroke-width:0.8;"/>
      </defs>
      <g>
       <use style="stroke:#000000;stroke-width:0.8;" x="57.6" xlink:href="#maef0d9ba67" y="307.584"/>
      </g>
     </g>
     <g id="text_1">
      <!-- 0.0 -->
      <defs>
       <path d="M 31.78125 66.40625 
Q 24.171875 66.40625 20.328125 58.90625 
Q 16.5 51.421875 16.5 36.375 
Q 16.5 21.390625 20.328125 13.890625 
Q 24.171875 6.390625 31.78125 6.390625 
Q 39.453125 6.390625 43.28125 13.890625 
Q 47.125 21.390625 47.125 36.375 
Q 47.125 51.421875 43.28125 58.90625 
Q 39.453125 66.40625 31.78125 66.40625 
z
M 31.78125 74.21875 
Q 44.046875 74.21875 50.515625 64.515625 
Q 56.984375 54.828125 56.984375 36.375 
Q 56.984375 17.96875 50.515625 8.265625 
Q 44.046875 -1.421875 31.78125 -1.421875 
Q 19.53125 -1.421875 13.0625 8.265625 
Q 6.59375 17.96875 6.59375 36.375 
Q 6.59375 54.828125 13.0625 64.515625 
Q 19.53125 74.21875 31.78125 74.21875 
z
" id="DejaVuSans-48"/>
       <path d="M 10.6875 12.40625 
L 21 12.40625 
L 21 0 
L 10.6875 0 
z
" id="DejaVuSans-46"/>
      </defs>
      <g transform="translate(49.648438 322.182437)scale(0.1 -0.1)">
       <use xlink:href="#DejaVuSans-48"/>
       <use x="63.623047" xlink:href="#DejaVuSans-46"/>
       <use x="95.410156" xlink:href="#DejaVuSans-48"/>
      </g>
     </g>
    </g>
    <g id="xtick_2">
     <g id="line2d_3">
      <path clip-path="url(#p2ad94a7728)" d="M 102.103039 307.584 
L 102.103039 41.472 
" style="fill:none;stroke:#b0b0b0;stroke-linecap:square;stroke-width:0.8;"/>
     </g>
     <g id="line2d_4">
      <g>
       <use style="stroke:#000000;stroke-width:0.8;" x="102.103039" xlink:href="#maef0d9ba67" y="307.584"/>
      </g>
     </g>
     <g id="text_2">
      <!-- 2.5 -->
      <defs>
       <path d="M 19.1875 8.296875 
L 53.609375 8.296875 
L 53.609375 0 
L 7.328125 0 
L 7.328125 8.296875 
Q 12.9375 14.109375 22.625 23.890625 
Q 32.328125 33.6875 34.8125 36.53125 
Q 39.546875 41.84375 41.421875 45.53125 
Q 43.3125 49.21875 43.3125 52.78125 
Q 43.3125 58.59375 39.234375 62.25 
Q 35.15625 65.921875 28.609375 65.921875 
Q 23.96875 65.921875 18.8125 64.3125 
Q 13.671875 62.703125 7.8125 59.421875 
L 7.8125 69.390625 
Q 13.765625 71.78125 18.9375 73 
Q 24.125 74.21875 28.421875 74.21875 
Q 39.75 74.21875 46.484375 68.546875 
Q 53.21875 62.890625 53.21875 53.421875 
Q 53.21875 48.921875 51.53125 44.890625 
Q 49.859375 40.875 45.40625 35.40625 
Q 44.1875 33.984375 37.640625 27.21875 
Q 31.109375 20.453125 19.1875 8.296875 
z
" id="DejaVuSans-50"/>
       <path d="M 10.796875 72.90625 
L 49.515625 72.90625 
L 49.515625 64.59375 
L 19.828125 64.59375 
L 19.828125 46.734375 
Q 21.96875 47.46875 24.109375 47.828125 
Q 26.265625 48.1875 28.421875 48.1875 
Q 40.625 48.1875 47.75 41.5 
Q 54.890625 34.8125 54.890625 23.390625 
Q 54.890625 11.625 47.5625 5.09375 
Q 40.234375 -1.421875 26.90625 -1.421875 
Q 22.3125 -1.421875 17.546875 -0.640625 
Q 12.796875 0.140625 7.71875 1.703125 
L 7.71875 11.625 
Q 12.109375 9.234375 16.796875 8.0625 
Q 21.484375 6.890625 26.703125 6.890625 
Q 35.15625 6.890625 40.078125 11.328125 
Q 45.015625 15.765625 45.015625 23.390625 
Q 45.015625 31 40.078125 35.4375 
Q 35.15625 39.890625 26.703125 39.890625 
Q 22.75 39.890625 18.8125 39.015625 
Q 14.890625 38.140625 10.796875 36.28125 
z
" id="DejaVuSans-53"/>
      </defs>
      <g transform="translate(94.151477 322.182437)scale(0.1 -0.1)">
       <use xlink:href="#DejaVuSans-50"/>
       <use x="63.623047" xlink:href="#DejaVuSans-46"/>
       <use x="95.410156" xlink:href="#DejaVuSans-53"/>
      </g>
     </g>
    </g>
    <g id="xtick_3">
     <g id="line2d_5">
      <path clip-path="url(#p2ad94a7728)" d="M 146.606078 307.584 
L 146.606078 41.472 
" style="fill:none;stroke:#b0b0b0;stroke-linecap:square;stroke-width:0.8;"/>
     </g>
     <g id="line2d_6">
      <g>
       <use style="stroke:#000000;stroke-width:0.8;" x="146.606078" xlink:href="#maef0d9ba67" y="307.584"/>
      </g>
     </g>
     <g id="text_3">
      <!-- 5.0 -->
      <g transform="translate(138.654516 322.182437)scale(0.1 -0.1)">
       <use xlink:href="#DejaVuSans-53"/>
       <use x="63.623047" xlink:href="#DejaVuSans-46"/>
       <use x="95.410156" xlink:href="#DejaVuSans-48"/>
      </g>
     </g>
    </g>
    <g id="xtick_4">
     <g id="line2d_7">
      <path clip-path="url(#p2ad94a7728)" d="M 191.109118 307.584 
L 191.109118 41.472 
" style="fill:none;stroke:#b0b0b0;stroke-linecap:square;stroke-width:0.8;"/>
     </g>
     <g id="line2d_8">
      <g>
       <use style="stroke:#000000;stroke-width:0.8;" x="191.109118" xlink:href="#maef0d9ba67" y="307.584"/>
      </g>
     </g>
     <g id="text_4">
      <!-- 7.5 -->
      <defs>
       <path d="M 8.203125 72.90625 
L 55.078125 72.90625 
L 55.078125 68.703125 
L 28.609375 0 
L 18.3125 0 
L 43.21875 64.59375 
L 8.203125 64.59375 
z
" id="DejaVuSans-55"/>
      </defs>
      <g transform="translate(183.157555 322.182437)scale(0.1 -0.1)">
       <use xlink:href="#DejaVuSans-55"/>
       <use x="63.623047" xlink:href="#DejaVuSans-46"/>
       <use x="95.410156" xlink:href="#DejaVuSans-53"/>
      </g>
     </g>
    </g>
    <g id="xtick_5">
     <g id="line2d_9">
      <path clip-path="url(#p2ad94a7728)" d="M 235.612157 307.584 
L 235.612157 41.472 
" style="fill:none;stroke:#b0b0b0;stroke-linecap:square;stroke-width:0.8;"/>
     </g>
     <g id="line2d_10">
      <g>
       <use style="stroke:#000000;stroke-width:0.8;" x="235.612157" xlink:href="#maef0d9ba67" y="307.584"/>
      </g>
     </g>
     <g id="text_5">
      <!-- 10.0 -->
      <defs>
       <path d="M 12.40625 8.296875 
L 28.515625 8.296875 
L 28.515625 63.921875 
L 10.984375 60.40625 
L 10.984375 69.390625 
L 28.421875 72.90625 
L 38.28125 72.90625 
L 38.28125 8.296875 
L 54.390625 8.296875 
L 54.390625 0 
L 12.40625 0 
z
" id="DejaVuSans-49"/>
      </defs>
      <g transform="translate(224.479344 322.182437)scale(0.1 -0.1)">
       <use xlink:href="#DejaVuSans-49"/>
       <use x="63.623047" xlink:href="#DejaVuSans-48"/>
       <use x="127.246094" xlink:href="#DejaVuSans-46"/>
       <use x="159.033203" xlink:href="#DejaVuSans-48"/>
      </g>
     </g>
    </g>
    <g id="xtick_6">
     <g id="line2d_11">
      <path clip-path="url(#p2ad94a7728)" d="M 280.115196 307.584 
L 280.115196 41.472 
" style="fill:none;stroke:#b0b0b0;stroke-linecap:square;stroke-width:0.8;"/>
     </g>
     <g id="line2d_12">
      <g>
       <use style="stroke:#000000;stroke-width:0.8;" x="280.115196" xlink:href="#maef0d9ba67" y="307.584"/>
      </g>
     </g>
     <g id="text_6">
      <!-- 12.5 -->
      <g transform="translate(268.982383 322.182437)scale(0.1 -0.1)">
       <use xlink:href="#DejaVuSans-49"/>
       <use x="63.623047" xlink:href="#DejaVuSans-50"/>
       <use x="127.246094" xlink:href="#DejaVuSans-46"/>
       <use x="159.033203" xlink:href="#DejaVuSans-53"/>
      </g>
     </g>
    </g>
    <g id="xtick_7">
     <g id="line2d_13">
      <path clip-path="url(#p2ad94a7728)" d="M 324.618235 307.584 
L 324.618235 41.472 
" style="fill:none;stroke:#b0b0b0;stroke-linecap:square;stroke-width:0.8;"/>
     </g>
     <g id="line2d_14">
      <g>
       <use style="stroke:#000000;stroke-width:0.8;" x="324.618235" xlink:href="#maef0d9ba67" y="307.584"/>
      </g>
     </g>
     <g id="text_7">
      <!-- 15.0 -->
      <g transform="translate(313.485423 322.182437)scale(0.1 -0.1)">
       <use xlink:href="#DejaVuSans-49"/>
       <use x="63.623047" xlink:href="#DejaVuSans-53"/>
       <use x="127.246094" xlink:href="#DejaVuSans-46"/>
       <use x="159.033203" xlink:href="#DejaVuSans-48"/>
      </g>
     </g>
    </g>
    <g id="xtick_8">
     <g id="line2d_15">
      <path clip-path="url(#p2ad94a7728)" d="M 369.121274 307.584 
L 369.121274 41.472 
" style="fill:none;stroke:#b0b0b0;stroke-linecap:square;stroke-width:0.8;"/>
     </g>
     <g id="line2d_16">
      <g>
       <use style="stroke:#000000;stroke-width:0.8;" x="369.121274" xlink:href="#maef0d9ba67" y="307.584"/>
      </g>
     </g>
     <g id="text_8">
      <!-- 17.5 -->
      <g transform="translate(357.988462 322.182437)scale(0.1 -0.1)">
       <use xlink:href="#DejaVuSans-49"/>
       <use x="63.623047" xlink:href="#DejaVuSans-55"/>
       <use x="127.246094" xlink:href="#DejaVuSans-46"/>
       <use x="159.033203" xlink:href="#DejaVuSans-53"/>
      </g>
     </g>
    </g>
    <g id="xtick_9">
     <g id="line2d_17">
      <path clip-path="url(#p2ad94a7728)" d="M 413.624313 307.584 
L 413.624313 41.472 
" style="fill:none;stroke:#b0b0b0;stroke-linecap:square;stroke-width:0.8;"/>
     </g>
     <g id="line2d_18">
      <g>
       <use style="stroke:#000000;stroke-width:0.8;" x="413.624313" xlink:href="#maef0d9ba67" y="307.584"/>
      </g>
     </g>
     <g id="text_9">
      <!-- 20.0 -->
      <g transform="translate(402.491501 322.182437)scale(0.1 -0.1)">
       <use xlink:href="#DejaVuSans-50"/>
       <use x="63.623047" xlink:href="#DejaVuSans-48"/>
       <use x="127.246094" xlink:href="#DejaVuSans-46"/>
       <use x="159.033203" xlink:href="#DejaVuSans-48"/>
      </g>
     </g>
    </g>
    <g id="text_10">
     <!-- Hours -->
     <defs>
      <path d="M 9.8125 72.90625 
L 19.671875 72.90625 
L 19.671875 43.015625 
L 55.515625 43.015625 
L 55.515625 72.90625 
L 65.375 72.90625 
L 65.375 0 
L 55.515625 0 
L 55.515625 34.71875 
L 19.671875 34.71875 
L 19.671875 0 
L 9.8125 0 
z
" id="DejaVuSans-72"/>
      <path d="M 30.609375 48.390625 
Q 23.390625 48.390625 19.1875 42.75 
Q 14.984375 37.109375 14.984375 27.296875 
Q 14.984375 17.484375 19.15625 11.84375 
Q 23.34375 6.203125 30.609375 6.203125 
Q 37.796875 6.203125 41.984375 11.859375 
Q 46.1875 17.53125 46.1875 27.296875 
Q 46.1875 37.015625 41.984375 42.703125 
Q 37.796875 48.390625 30.609375 48.390625 
z
M 30.609375 56 
Q 42.328125 56 49.015625 48.375 
Q 55.71875 40.765625 55.71875 27.296875 
Q 55.71875 13.875 49.015625 6.21875 
Q 42.328125 -1.421875 30.609375 -1.421875 
Q 18.84375 -1.421875 12.171875 6.21875 
Q 5.515625 13.875 5.515625 27.296875 
Q 5.515625 40.765625 12.171875 48.375 
Q 18.84375 56 30.609375 56 
z
" id="DejaVuSans-111"/>
      <path d="M 8.5 21.578125 
L 8.5 54.6875 
L 17.484375 54.6875 
L 17.484375 21.921875 
Q 17.484375 14.15625 20.5 10.265625 
Q 23.53125 6.390625 29.59375 6.390625 
Q 36.859375 6.390625 41.078125 11.03125 
Q 45.3125 15.671875 45.3125 23.6875 
L 45.3125 54.6875 
L 54.296875 54.6875 
L 54.296875 0 
L 45.3125 0 
L 45.3125 8.40625 
Q 42.046875 3.421875 37.71875 1 
Q 33.40625 -1.421875 27.6875 -1.421875 
Q 18.265625 -1.421875 13.375 4.4375 
Q 8.5 10.296875 8.5 21.578125 
z
M 31.109375 56 
z
" id="DejaVuSans-117"/>
      <path d="M 41.109375 46.296875 
Q 39.59375 47.171875 37.8125 47.578125 
Q 36.03125 48 33.890625 48 
Q 26.265625 48 22.1875 43.046875 
Q 18.109375 38.09375 18.109375 28.8125 
L 18.109375 0 
L 9.078125 0 
L 9.078125 54.6875 
L 18.109375 54.6875 
L 18.109375 46.1875 
Q 20.953125 51.171875 25.484375 53.578125 
Q 30.03125 56 36.53125 56 
Q 37.453125 56 38.578125 55.875 
Q 39.703125 55.765625 41.0625 55.515625 
z
" id="DejaVuSans-114"/>
      <path d="M 44.28125 53.078125 
L 44.28125 44.578125 
Q 40.484375 46.53125 36.375 47.5 
Q 32.28125 48.484375 27.875 48.484375 
Q 21.1875 48.484375 17.84375 46.4375 
Q 14.5 44.390625 14.5 40.28125 
Q 14.5 37.15625 16.890625 35.375 
Q 19.28125 33.59375 26.515625 31.984375 
L 29.59375 31.296875 
Q 39.15625 29.25 43.1875 25.515625 
Q 47.21875 21.78125 47.21875 15.09375 
Q 47.21875 7.46875 41.1875 3.015625 
Q 35.15625 -1.421875 24.609375 -1.421875 
Q 20.21875 -1.421875 15.453125 -0.5625 
Q 10.6875 0.296875 5.421875 2 
L 5.421875 11.28125 
Q 10.40625 8.6875 15.234375 7.390625 
Q 20.0625 6.109375 24.8125 6.109375 
Q 31.15625 6.109375 34.5625 8.28125 
Q 37.984375 10.453125 37.984375 14.40625 
Q 37.984375 18.0625 35.515625 20.015625 
Q 33.0625 21.96875 24.703125 23.78125 
L 21.578125 24.515625 
Q 13.234375 26.265625 9.515625 29.90625 
Q 5.8125 33.546875 5.8125 39.890625 
Q 5.8125 47.609375 11.28125 51.796875 
Q 16.75 56 26.8125 56 
Q 31.78125 56 36.171875 55.265625 
Q 40.578125 54.546875 44.28125 53.078125 
z
" id="DejaVuSans-115"/>
     </defs>
     <g transform="translate(221.511562 335.860562)scale(0.1 -0.1)">
      <use xlink:href="#DejaVuSans-72"/>
      <use x="75.195312" xlink:href="#DejaVuSans-111"/>
      <use x="136.376953" xlink:href="#DejaVuSans-117"/>
      <use x="199.755859" xlink:href="#DejaVuSans-114"/>
      <use x="240.869141" xlink:href="#DejaVuSans-115"/>
     </g>
    </g>
   </g>
   <g id="matplotlib.axis_2">
    <g id="ytick_1">
     <g id="line2d_19">
      <path clip-path="url(#p2ad94a7728)" d="M 57.6 278.470814 
L 414.72 278.470814 
" style="fill:none;stroke:#b0b0b0;stroke-linecap:square;stroke-width:0.8;"/>
     </g>
     <g id="line2d_20">
      <defs>
       <path d="M 0 0 
L -3.5 0 
" id="m890adc40ec" style="stroke:#000000;stroke-width:0.8;"/>
      </defs>
      <g>
       <use style="stroke:#000000;stroke-width:0.8;" x="57.6" xlink:href="#m890adc40ec" y="278.470814"/>
      </g>
     </g>
     <g id="text_11">
      <!-- 100 -->
      <g transform="translate(31.5125 282.270032)scale(0.1 -0.1)">
       <use xlink:href="#DejaVuSans-49"/>
       <use x="63.623047" xlink:href="#DejaVuSans-48"/>
       <use x="127.246094" xlink:href="#DejaVuSans-48"/>
      </g>
     </g>
    </g>
    <g id="ytick_2">
     <g id="line2d_21">
      <path clip-path="url(#p2ad94a7728)" d="M 57.6 232.478418 
L 414.72 232.478418 
" style="fill:none;stroke:#b0b0b0;stroke-linecap:square;stroke-width:0.8;"/>
     </g>
     <g id="line2d_22">
      <g>
       <use style="stroke:#000000;stroke-width:0.8;" x="57.6" xlink:href="#m890adc40ec" y="232.478418"/>
      </g>
     </g>
     <g id="text_12">
      <!-- 200 -->
      <g transform="translate(31.5125 236.277637)scale(0.1 -0.1)">
       <use xlink:href="#DejaVuSans-50"/>
       <use x="63.623047" xlink:href="#DejaVuSans-48"/>
       <use x="127.246094" xlink:href="#DejaVuSans-48"/>
      </g>
     </g>
    </g>
    <g id="ytick_3">
     <g id="line2d_23">
      <path clip-path="url(#p2ad94a7728)" d="M 57.6 186.486023 
L 414.72 186.486023 
" style="fill:none;stroke:#b0b0b0;stroke-linecap:square;stroke-width:0.8;"/>
     </g>
     <g id="line2d_24">
      <g>
       <use style="stroke:#000000;stroke-width:0.8;" x="57.6" xlink:href="#m890adc40ec" y="186.486023"/>
      </g>
     </g>
     <g id="text_13">
      <!-- 300 -->
      <defs>
       <path d="M 40.578125 39.3125 
Q 47.65625 37.796875 51.625 33 
Q 55.609375 28.21875 55.609375 21.1875 
Q 55.609375 10.40625 48.1875 4.484375 
Q 40.765625 -1.421875 27.09375 -1.421875 
Q 22.515625 -1.421875 17.65625 -0.515625 
Q 12.796875 0.390625 7.625 2.203125 
L 7.625 11.71875 
Q 11.71875 9.328125 16.59375 8.109375 
Q 21.484375 6.890625 26.8125 6.890625 
Q 36.078125 6.890625 40.9375 10.546875 
Q 45.796875 14.203125 45.796875 21.1875 
Q 45.796875 27.640625 41.28125 31.265625 
Q 36.765625 34.90625 28.71875 34.90625 
L 20.21875 34.90625 
L 20.21875 43.015625 
L 29.109375 43.015625 
Q 36.375 43.015625 40.234375 45.921875 
Q 44.09375 48.828125 44.09375 54.296875 
Q 44.09375 59.90625 40.109375 62.90625 
Q 36.140625 65.921875 28.71875 65.921875 
Q 24.65625 65.921875 20.015625 65.03125 
Q 15.375 64.15625 9.8125 62.3125 
L 9.8125 71.09375 
Q 15.4375 72.65625 20.34375 73.4375 
Q 25.25 74.21875 29.59375 74.21875 
Q 40.828125 74.21875 47.359375 69.109375 
Q 53.90625 64.015625 53.90625 55.328125 
Q 53.90625 49.265625 50.4375 45.09375 
Q 46.96875 40.921875 40.578125 39.3125 
z
" id="DejaVuSans-51"/>
      </defs>
      <g transform="translate(31.5125 190.285242)scale(0.1 -0.1)">
       <use xlink:href="#DejaVuSans-51"/>
       <use x="63.623047" xlink:href="#DejaVuSans-48"/>
       <use x="127.246094" xlink:href="#DejaVuSans-48"/>
      </g>
     </g>
    </g>
    <g id="ytick_4">
     <g id="line2d_25">
      <path clip-path="url(#p2ad94a7728)" d="M 57.6 140.493627 
L 414.72 140.493627 
" style="fill:none;stroke:#b0b0b0;stroke-linecap:square;stroke-width:0.8;"/>
     </g>
     <g id="line2d_26">
      <g>
       <use style="stroke:#000000;stroke-width:0.8;" x="57.6" xlink:href="#m890adc40ec" y="140.493627"/>
      </g>
     </g>
     <g id="text_14">
      <!-- 400 -->
      <defs>
       <path d="M 37.796875 64.3125 
L 12.890625 25.390625 
L 37.796875 25.390625 
z
M 35.203125 72.90625 
L 47.609375 72.90625 
L 47.609375 25.390625 
L 58.015625 25.390625 
L 58.015625 17.1875 
L 47.609375 17.1875 
L 47.609375 0 
L 37.796875 0 
L 37.796875 17.1875 
L 4.890625 17.1875 
L 4.890625 26.703125 
z
" id="DejaVuSans-52"/>
      </defs>
      <g transform="translate(31.5125 144.292846)scale(0.1 -0.1)">
       <use xlink:href="#DejaVuSans-52"/>
       <use x="63.623047" xlink:href="#DejaVuSans-48"/>
       <use x="127.246094" xlink:href="#DejaVuSans-48"/>
      </g>
     </g>
    </g>
    <g id="ytick_5">
     <g id="line2d_27">
      <path clip-path="url(#p2ad94a7728)" d="M 57.6 94.501232 
L 414.72 94.501232 
" style="fill:none;stroke:#b0b0b0;stroke-linecap:square;stroke-width:0.8;"/>
     </g>
     <g id="line2d_28">
      <g>
       <use style="stroke:#000000;stroke-width:0.8;" x="57.6" xlink:href="#m890adc40ec" y="94.501232"/>
      </g>
     </g>
     <g id="text_15">
      <!-- 500 -->
      <g transform="translate(31.5125 98.300451)scale(0.1 -0.1)">
       <use xlink:href="#DejaVuSans-53"/>
       <use x="63.623047" xlink:href="#DejaVuSans-48"/>
       <use x="127.246094" xlink:href="#DejaVuSans-48"/>
      </g>
     </g>
    </g>
    <g id="ytick_6">
     <g id="line2d_29">
      <path clip-path="url(#p2ad94a7728)" d="M 57.6 48.508837 
L 414.72 48.508837 
" style="fill:none;stroke:#b0b0b0;stroke-linecap:square;stroke-width:0.8;"/>
     </g>
     <g id="line2d_30">
      <g>
       <use style="stroke:#000000;stroke-width:0.8;" x="57.6" xlink:href="#m890adc40ec" y="48.508837"/>
      </g>
     </g>
     <g id="text_16">
      <!-- 600 -->
      <defs>
       <path d="M 33.015625 40.375 
Q 26.375 40.375 22.484375 35.828125 
Q 18.609375 31.296875 18.609375 23.390625 
Q 18.609375 15.53125 22.484375 10.953125 
Q 26.375 6.390625 33.015625 6.390625 
Q 39.65625 6.390625 43.53125 10.953125 
Q 47.40625 15.53125 47.40625 23.390625 
Q 47.40625 31.296875 43.53125 35.828125 
Q 39.65625 40.375 33.015625 40.375 
z
M 52.59375 71.296875 
L 52.59375 62.3125 
Q 48.875 64.0625 45.09375 64.984375 
Q 41.3125 65.921875 37.59375 65.921875 
Q 27.828125 65.921875 22.671875 59.328125 
Q 17.53125 52.734375 16.796875 39.40625 
Q 19.671875 43.65625 24.015625 45.921875 
Q 28.375 48.1875 33.59375 48.1875 
Q 44.578125 48.1875 50.953125 41.515625 
Q 57.328125 34.859375 57.328125 23.390625 
Q 57.328125 12.15625 50.6875 5.359375 
Q 44.046875 -1.421875 33.015625 -1.421875 
Q 20.359375 -1.421875 13.671875 8.265625 
Q 6.984375 17.96875 6.984375 36.375 
Q 6.984375 53.65625 15.1875 63.9375 
Q 23.390625 74.21875 37.203125 74.21875 
Q 40.921875 74.21875 44.703125 73.484375 
Q 48.484375 72.75 52.59375 71.296875 
z
" id="DejaVuSans-54"/>
      </defs>
      <g transform="translate(31.5125 52.308055)scale(0.1 -0.1)">
       <use xlink:href="#DejaVuSans-54"/>
       <use x="63.623047" xlink:href="#DejaVuSans-48"/>
       <use x="127.246094" xlink:href="#DejaVuSans-48"/>
      </g>
     </g>
    </g>
    <g id="text_17">
     <!-- Steps -->
     <defs>
      <path d="M 53.515625 70.515625 
L 53.515625 60.890625 
Q 47.90625 63.578125 42.921875 64.890625 
Q 37.9375 66.21875 33.296875 66.21875 
Q 25.25 66.21875 20.875 63.09375 
Q 16.5 59.96875 16.5 54.203125 
Q 16.5 49.359375 19.40625 46.890625 
Q 22.3125 44.4375 30.421875 42.921875 
L 36.375 41.703125 
Q 47.40625 39.59375 52.65625 34.296875 
Q 57.90625 29 57.90625 20.125 
Q 57.90625 9.515625 50.796875 4.046875 
Q 43.703125 -1.421875 29.984375 -1.421875 
Q 24.8125 -1.421875 18.96875 -0.25 
Q 13.140625 0.921875 6.890625 3.21875 
L 6.890625 13.375 
Q 12.890625 10.015625 18.65625 8.296875 
Q 24.421875 6.59375 29.984375 6.59375 
Q 38.421875 6.59375 43.015625 9.90625 
Q 47.609375 13.234375 47.609375 19.390625 
Q 47.609375 24.75 44.3125 27.78125 
Q 41.015625 30.8125 33.5 32.328125 
L 27.484375 33.5 
Q 16.453125 35.6875 11.515625 40.375 
Q 6.59375 45.0625 6.59375 53.421875 
Q 6.59375 63.09375 13.40625 68.65625 
Q 20.21875 74.21875 32.171875 74.21875 
Q 37.3125 74.21875 42.625 73.28125 
Q 47.953125 72.359375 53.515625 70.515625 
z
" id="DejaVuSans-83"/>
      <path d="M 18.3125 70.21875 
L 18.3125 54.6875 
L 36.8125 54.6875 
L 36.8125 47.703125 
L 18.3125 47.703125 
L 18.3125 18.015625 
Q 18.3125 11.328125 20.140625 9.421875 
Q 21.96875 7.515625 27.59375 7.515625 
L 36.8125 7.515625 
L 36.8125 0 
L 27.59375 0 
Q 17.1875 0 13.234375 3.875 
Q 9.28125 7.765625 9.28125 18.015625 
L 9.28125 47.703125 
L 2.6875 47.703125 
L 2.6875 54.6875 
L 9.28125 54.6875 
L 9.28125 70.21875 
z
" id="DejaVuSans-116"/>
      <path d="M 56.203125 29.59375 
L 56.203125 25.203125 
L 14.890625 25.203125 
Q 15.484375 15.921875 20.484375 11.0625 
Q 25.484375 6.203125 34.421875 6.203125 
Q 39.59375 6.203125 44.453125 7.46875 
Q 49.3125 8.734375 54.109375 11.28125 
L 54.109375 2.78125 
Q 49.265625 0.734375 44.1875 -0.34375 
Q 39.109375 -1.421875 33.890625 -1.421875 
Q 20.796875 -1.421875 13.15625 6.1875 
Q 5.515625 13.8125 5.515625 26.8125 
Q 5.515625 40.234375 12.765625 48.109375 
Q 20.015625 56 32.328125 56 
Q 43.359375 56 49.78125 48.890625 
Q 56.203125 41.796875 56.203125 29.59375 
z
M 47.21875 32.234375 
Q 47.125 39.59375 43.09375 43.984375 
Q 39.0625 48.390625 32.421875 48.390625 
Q 24.90625 48.390625 20.390625 44.140625 
Q 15.875 39.890625 15.1875 32.171875 
z
" id="DejaVuSans-101"/>
      <path d="M 18.109375 8.203125 
L 18.109375 -20.796875 
L 9.078125 -20.796875 
L 9.078125 54.6875 
L 18.109375 54.6875 
L 18.109375 46.390625 
Q 20.953125 51.265625 25.265625 53.625 
Q 29.59375 56 35.59375 56 
Q 45.5625 56 51.78125 48.09375 
Q 58.015625 40.1875 58.015625 27.296875 
Q 58.015625 14.40625 51.78125 6.484375 
Q 45.5625 -1.421875 35.59375 -1.421875 
Q 29.59375 -1.421875 25.265625 0.953125 
Q 20.953125 3.328125 18.109375 8.203125 
z
M 48.6875 27.296875 
Q 48.6875 37.203125 44.609375 42.84375 
Q 40.53125 48.484375 33.40625 48.484375 
Q 26.265625 48.484375 22.1875 42.84375 
Q 18.109375 37.203125 18.109375 27.296875 
Q 18.109375 17.390625 22.1875 11.75 
Q 26.265625 6.109375 33.40625 6.109375 
Q 40.53125 6.109375 44.609375 11.75 
Q 48.6875 17.390625 48.6875 27.296875 
z
" id="DejaVuSans-112"/>
     </defs>
     <g transform="translate(25.432812 188.517844)rotate(-90)scale(0.1 -0.1)">
      <use xlink:href="#DejaVuSans-83"/>
      <use x="63.476562" xlink:href="#DejaVuSans-116"/>
      <use x="102.685547" xlink:href="#DejaVuSans-101"/>
      <use x="164.208984" xlink:href="#DejaVuSans-112"/>
      <use x="227.685547" xlink:href="#DejaVuSans-115"/>
     </g>
    </g>
   </g>
   <g id="line2d_31">
    <path clip-path="url(#p2ad94a7728)" d="M 57.6 289.968913 
L 57.684535 266.972715 
L 57.694044 274.791422 
L 57.97362 264.673095 
L 58.340008 257.314312 
L 58.414317 63.686327 
L 59.021555 292.268532 
L 59.135153 232.938342 
L 59.312929 291.808608 
L 59.322317 259.154008 
L 59.350466 259.154008 
L 60.043647 260.073856 
L 60.353569 260.993703 
L 60.447516 283.989901 
L 61.041637 265.133019 
L 61.182874 217.300928 
L 61.220593 143.713095 
L 61.23002 256.854388 
L 61.54169 262.833399 
L 61.616972 189.245567 
L 61.776763 290.428837 
L 62.059708 256.854388 
L 62.116323 236.15781 
L 62.362578 295.028076 
L 62.484357 177.747468 
L 62.625217 270.192183 
L 62.841812 166.709293 
L 63.588697 290.88876 
L 63.78522 272.491802 
L 63.794541 254.554768 
L 63.831854 284.449825 
L 64.027684 63.686327 
L 64.093105 117.037506 
L 64.465593 294.568152 
L 64.484321 266.512791 
L 64.690533 272.491802 
L 64.765041 244.896365 
L 65.176248 151.991726 
L 65.297456 258.23416 
L 65.858884 273.871574 
L 66.281285 262.373475 
L 66.299902 177.747468 
L 66.393552 262.373475 
L 66.42175 169.008913 
L 66.73025 173.148228 
L 66.993178 256.854388 
L 67.104805 242.596745 
L 67.411669 260.073856 
L 67.504816 80.243589 
L 67.90744 272.031878 
L 68.010028 117.49743 
L 68.140851 276.171194 
L 68.299404 64.146251 
L 68.580409 266.052867 
L 68.916136 257.314312 
L 69.037937 76.564198 
L 69.177884 291.808608 
L 69.196635 262.373475 
L 69.235363 65.526023 
L 69.543269 280.31051 
L 69.851384 292.728456 
L 69.992513 226.039483 
L 70.086275 56.787468 
L 70.226175 268.352487 
L 70.525651 252.255148 
L 70.618755 140.953551 
L 70.684501 252.255148 
L 70.703194 249.955529 
L 71.160752 276.631118 
L 71.450321 64.606175 
L 71.759172 268.352487 
L 71.852556 263.293323 
L 71.871212 256.394464 
L 71.908621 184.186403 
L 72.72451 262.833399 
L 72.799417 223.279939 
L 72.911721 263.753247 
L 73.061489 266.512791 
L 73.089328 251.795224 
L 73.110702 111.518418 
L 73.325989 63.686327 
L 73.381989 249.495605 
L 73.746503 182.806631 
L 73.849488 251.795224 
L 74.111645 266.052867 
L 74.384629 266.512791 
L 74.38463 218.6807 
L 74.394008 283.070053 
L 74.778697 271.571954 
L 74.93696 224.199787 
L 74.964871 263.753247 
L 75.01131 259.154008 
L 75.18896 258.694084 
L 75.188961 249.955529 
L 75.28201 269.272335 
L 75.357384 199.823817 
L 75.629013 274.791422 
L 75.657047 264.213171 
L 76.844662 245.356289 
L 77.250102 60.926783 
L 77.40935 64.146251 
L 77.716519 182.346707 
L 78.678201 292.728456 
L 79.351843 106.919179 
L 79.742202 67.365719 
L 80.003114 260.993703 
L 80.040431 186.945947 
L 80.639703 144.173019 
L 81.103398 255.474616 
L 81.329586 265.592943 
L 81.640531 291.348684 
L 81.76356 262.833399 
L 81.772889 160.270357 
L 82.225755 169.92876 
L 82.640047 185.106251 
L 82.884596 263.293323 
L 83.138895 207.182601 
L 83.291095 239.377278 
L 83.451505 152.911574 
L 83.601961 249.495605 
L 83.695682 132.67492 
L 84.736071 99.560395 
L 84.934938 207.642525 
L 85.243928 100.480243 
L 85.374215 220.980319 
L 85.943925 271.571954 
L 86.083426 268.352487 
L 86.581978 174.987924 
L 86.80832 267.432639 
L 86.827356 262.833399 
L 87.253986 64.606175 
L 87.821709 203.503209 
L 88.145174 253.174996 
L 88.523027 180.507011 
L 88.873632 64.606175 
L 88.996596 258.694084 
L 89.46941 264.213171 
L 89.527406 195.684502 
L 89.603815 258.23416 
L 90.341352 61.386707 
L 90.445086 260.073856 
L 90.463911 259.154008 
L 90.549562 238.917354 
L 90.833609 63.686327 
L 90.861649 259.613932 
L 90.889765 176.367696 
L 91.201828 267.432639 
L 91.229881 254.094844 
L 91.604022 295.488 
L 91.745453 65.066099 
L 91.754948 256.394464 
L 92.529519 273.41165 
L 92.860532 266.972715 
L 93.393756 286.289521 
L 93.515552 207.642525 
L 93.711933 232.938342 
L 94.141265 246.276137 
L 94.571416 201.203589 
L 94.87013 291.348684 
L 95.015065 187.865795 
L 95.438087 152.911574 
L 95.889837 230.638722 
L 95.984365 79.783665 
L 96.238401 236.15781 
L 96.398602 136.354312 
L 96.408048 269.272335 
L 96.8518 226.499407 
L 97.209528 63.686327 
L 97.781018 259.613932 
L 97.893373 255.474616 
L 97.949431 96.800852 
L 98.718795 183.266555 
L 98.756025 60.926783 
L 99.337666 249.955529 
L 99.553261 260.533779 
L 100.228149 64.606175 
L 100.726139 242.596745 
L 101.513489 277.550966 
L 101.664196 252.715072 
L 101.824179 65.066099 
L 102.540804 268.812411 
L 102.700609 263.293323 
L 103.505533 252.715072 
L 103.53372 222.360091 
L 103.896603 229.258951 
L 104.25484 65.985947 
L 105.004591 64.606175 
L 105.208318 259.154008 
L 105.613727 152.911574 
L 105.633063 253.63492 
L 106.189411 264.673095 
L 106.526003 208.102449 
L 106.738138 263.753247 
L 106.770496 262.373475 
L 107.15359 266.052867 
L 107.17266 263.293323 
L 107.239903 170.848608 
L 107.696979 64.146251 
L 107.960265 130.835224 
L 108.194917 60.926783 
L 108.260798 80.703513 
L 108.326555 182.346707 
L 108.620537 223.739863 
L 108.854151 64.146251 
L 109.663767 78.863817 
L 110.068824 129.455452 
L 110.162515 64.606175 
L 110.805073 114.737886 
L 111.031276 64.606175 
L 111.144471 252.715072 
L 111.210647 196.60435 
L 111.333327 289.049065 
L 112.014684 61.386707 
L 112.392107 100.480243 
L 112.48597 66.905795 
L 112.843485 252.255148 
L 113.079677 262.373475 
L 113.559044 64.606175 
L 114.731967 231.55857 
L 114.760522 230.178798 
L 114.975454 75.184426 
L 115.550998 247.655909 
L 115.654747 169.468837 
L 115.973466 64.606175 
L 116.708828 65.066099 
L 116.803401 181.426859 
L 116.973665 65.526023 
L 117.115289 264.213171 
L 117.181634 64.606175 
L 117.31344 64.146251 
L 117.671052 262.833399 
L 117.813777 66.905795 
L 119.231972 61.846631 
L 119.601434 234.318114 
L 120.515604 260.533779 
L 120.843622 131.755072 
L 121.149142 271.571954 
L 121.394215 259.613932 
L 122.472217 64.606175 
L 122.613518 150.611954 
L 123.749992 262.833399 
L 124.053817 242.596745 
L 124.645093 267.892563 
L 124.785583 245.816213 
L 125.089683 66.445871 
L 125.211917 264.213171 
L 125.221335 200.283741 
L 125.465449 87.142449 
L 125.662871 72.424882 
L 125.887759 105.539407 
L 126.272274 249.495605 
L 126.30053 156.590966 
L 126.366255 249.955529 
L 126.446263 266.052867 
L 126.49313 74.264578 
L 126.737109 65.066099 
L 127.151157 254.094844 
L 127.341524 183.726479 
L 128.264046 152.911574 
L 128.722872 64.606175 
L 128.923674 227.879179 
L 129.092129 60.926783 
L 129.213732 61.846631 
L 129.279008 266.972715 
L 129.878391 66.905795 
L 130.018638 64.606175 
L 130.340178 224.659711 
L 130.536471 64.606175 
L 130.975453 62.766479 
L 131.635321 273.41165 
L 132.014993 64.606175 
L 132.636997 253.174996 
L 133.071843 191.545186 
L 133.2224 66.445871 
L 133.612005 63.686327 
L 134.723599 178.207392 
L 134.760795 259.613932 
L 135.055655 223.279939 
L 135.112084 266.972715 
L 135.713352 179.12724 
L 135.835874 270.192183 
L 136.296466 197.984122 
L 136.380979 104.619559 
L 136.390456 267.892563 
L 136.437675 266.512791 
L 136.667746 171.768456 
L 136.837527 275.71127 
L 137.93852 63.686327 
L 137.985872 65.985947 
L 138.348383 64.606175 
L 138.451763 262.373475 
L 139.035312 66.445871 
L 139.334318 188.325719 
L 139.446828 124.856213 
L 139.972871 268.352487 
L 140.001065 65.526023 
L 140.086023 271.571954 
L 140.674433 63.226403 
L 140.74084 180.047087 
L 142.036535 255.014692 
L 142.266529 250.875376 
L 142.285249 194.30473 
L 142.523334 209.022297 
L 143.014261 174.987924 
L 143.09627 60.926783 
L 143.334645 63.686327 
L 143.375194 60.926783 
L 143.416124 139.573779 
L 143.67055 87.602373 
L 143.750732 163.949749 
L 144.023132 215.461232 
L 144.503963 267.892563 
L 144.585169 63.686327 
L 144.722476 172.688304 
L 145.430661 65.066099 
L 145.570928 223.739863 
L 145.816338 123.936365 
L 146.822692 66.905795 
L 147.907585 65.985947 
L 147.998402 262.373475 
L 148.447427 82.543209 
L 149.081564 62.766479 
L 149.694457 257.774236 
L 149.90451 238.917354 
L 150.513645 64.606175 
L 150.785251 265.133019 
L 150.851129 263.753247 
L 151.216031 145.552791 
L 152.096822 206.722677 
L 152.246544 207.642525 
L 152.349236 64.606175 
L 152.517587 267.892563 
L 152.773752 210.402068 
L 153.314995 180.507011 
L 153.61617 255.014692 
L 153.699794 73.804654 
L 154.026333 261.913551 
L 154.301364 98.640548 
L 155.237819 172.688304 
L 155.897523 113.818038 
L 156.241875 258.694084 
L 156.289483 188.325719 
L 156.892611 65.066099 
L 157.255966 262.373475 
L 158.238536 64.606175 
L 159.496828 66.445871 
L 159.580853 60.926783 
L 159.618149 266.972715 
L 160.00577 292.268532 
L 160.419609 65.066099 
L 160.741756 104.619559 
L 160.98913 64.606175 
L 161.363241 185.106251 
L 161.676359 105.079483 
L 162.618613 251.795224 
L 163.048656 64.606175 
L 164.583848 98.640548 
L 164.621297 65.526023 
L 164.979104 64.606175 
L 165.784755 231.098646 
L 165.953776 64.606175 
L 166.022578 188.785643 
L 166.352641 182.346707 
L 166.767161 60.926783 
L 166.78583 64.606175 
L 167.39215 96.800852 
L 167.542559 96.340928 
L 167.809579 242.596745 
L 167.866312 168.089065 
L 167.959772 177.747468 
L 168.165918 64.606175 
L 168.413242 60.926783 
L 169.002593 220.980319 
L 169.532867 65.526023 
L 169.673454 60.926783 
L 169.692161 186.945947 
L 170.015118 60.926783 
L 170.108341 179.12724 
L 170.549745 62.306555 
L 170.719291 64.606175 
L 170.803273 64.146251 
L 170.953128 109.678722 
L 171.093424 60.926783 
L 171.281324 155.671118 
L 171.753238 250.875376 
L 171.790436 60.926783 
L 172.267824 269.732259 
L 172.596423 213.621536 
L 172.662298 266.052867 
L 172.681118 159.35051 
L 173.207496 225.579559 
L 173.254569 123.476441 
L 173.395786 246.276137 
L 174.225618 174.068076 
L 174.54414 66.445871 
L 174.656903 203.503209 
L 174.889941 179.587163 
L 175.301059 93.581384 
L 175.622098 261.453627 
L 175.659883 60.926783 
L 175.678845 88.982144 
L 176.359538 60.926783 
L 176.566405 60.926783 
L 177.160665 169.468837 
L 177.880591 57.707316 
L 178.687001 251.3353 
L 179.272267 148.312335 
L 179.533918 70.585186 
L 179.851082 61.846631 
L 180.306288 259.613932 
L 180.402452 187.405871 
L 180.700558 64.606175 
L 180.806513 65.526023 
L 180.931612 178.207392 
L 181.374062 65.066099 
L 181.953558 64.606175 
L 182.112811 60.926783 
L 182.281265 64.606175 
L 182.459959 128.995529 
L 182.667913 89.901992 
L 182.686781 165.789445 
L 183.182654 72.884806 
L 183.699212 266.052867 
L 184.114398 258.694084 
L 184.311163 64.606175 
L 184.760462 217.760852 
L 185.400282 122.096669 
L 186.254481 67.365719 
L 186.453981 67.365719 
L 186.481513 156.131042 
L 186.714697 228.799027 
L 186.779996 141.873399 
L 186.985319 159.35051 
L 187.116113 292.728456 
L 187.163103 258.694084 
L 187.279688 98.640548 
L 187.633833 64.606175 
L 187.78314 232.018494 
L 189.135617 64.606175 
L 189.387527 255.014692 
L 189.509283 237.077658 
L 189.556236 105.079483 
L 189.747733 93.581384 
L 190.261905 92.661536 
L 190.35049 161.650129 
L 191.276006 67.365719 
L 191.322788 199.363894 
L 191.594117 85.762677 
L 192.915799 261.453627 
L 193.346846 192.465034 
L 193.646628 64.606175 
L 193.973639 241.676897 
L 194.916913 63.226403 
L 195.051779 78.863817 
L 195.766895 64.606175 
L 196.154932 197.064274 
L 196.820324 61.846631 
L 197.157977 180.047087 
L 197.975596 182.346707 
L 198.238258 180.507011 
L 198.630535 218.6807 
L 198.985463 196.60435 
L 199.303825 183.726479 
L 199.388146 146.932563 
L 199.566797 262.833399 
L 199.861865 102.319939 
L 200.414807 65.985947 
L 200.68744 268.352487 
L 201.494213 257.774236 
L 201.737914 190.165414 
L 202.111211 266.972715 
L 202.132075 66.905795 
L 202.24407 160.270357 
L 202.421541 108.758875 
L 202.618128 180.047087 
L 202.84155 69.205414 
L 202.897174 167.169217 
L 203.094451 196.60435 
L 203.598359 102.319939 
L 203.777493 264.213171 
L 204.132505 159.35051 
L 204.141948 171.768456 
L 204.198028 65.526023 
L 204.63871 64.606175 
L 205.729495 258.23416 
L 206.281956 64.606175 
L 206.920504 252.715072 
L 207.270488 64.606175 
L 207.989722 282.150205 
L 208.445452 261.453627 
L 209.014222 148.312335 
L 209.78276 65.985947 
L 210.128819 64.606175 
L 210.204659 267.892563 
L 210.974465 64.606175 
L 211.031068 78.403894 
L 211.247976 136.814236 
L 211.612503 55.86762 
L 212.006574 259.613932 
L 212.128264 66.445871 
L 212.478908 64.606175 
L 212.956138 218.220776 
L 213.436596 64.606175 
L 214.077629 64.606175 
L 214.931406 61.846631 
L 215.220659 64.606175 
L 215.267483 266.052867 
L 215.454597 64.606175 
L 215.515133 258.23416 
L 215.747692 255.014692 
L 215.766393 173.148228 
L 216.974286 64.606175 
L 218.140387 108.758875 
L 218.993911 65.066099 
L 219.106202 180.047087 
L 219.503962 64.606175 
L 220.055542 64.606175 
L 220.064894 204.882981 
L 220.14922 66.445871 
L 220.311826 64.606175 
L 220.544314 64.606175 
L 220.749396 79.323741 
L 220.833679 263.753247 
L 221.666873 117.957354 
L 222.473112 64.606175 
L 223.212302 161.650129 
L 223.736206 262.373475 
L 224.084845 60.926783 
L 224.131557 202.583361 
L 225.164627 263.753247 
L 225.276758 144.173019 
L 225.783891 64.606175 
L 225.970618 260.533779 
L 226.045364 249.035681 
L 226.944674 90.361916 
L 227.462934 243.056669 
L 227.462934 285.369673 
L 227.659494 64.606175 
L 227.912249 88.062297 
L 228.009804 232.018494 
L 228.495732 91.281764 
L 228.890816 176.367696 
L 229.19961 64.606175 
L 229.700957 186.486023 
L 229.719543 65.526023 
L 230.112092 64.606175 
L 231.389093 77.024122 
L 232.421875 64.606175 
L 233.144751 64.606175 
L 233.210049 271.571954 
L 233.863397 96.800852 
L 234.153765 256.394464 
L 234.77191 184.186403 
L 235.365791 58.627163 
L 236.174641 138.194008 
L 236.437124 138.194008 
L 236.502642 112.438266 
L 237.75397 64.606175 
L 237.838487 138.194008 
L 238.299545 64.606175 
L 238.607703 67.825643 
L 238.645056 67.365719 
L 239.19794 64.606175 
L 239.665649 266.052867 
L 240.658244 163.949749 
L 240.864672 64.606175 
L 243.627001 64.606175 
L 243.784024 266.972715 
L 243.90686 64.606175 
L 244.654639 232.018494 
L 244.701167 64.606175 
L 245.018088 261.913551 
L 245.359079 64.606175 
L 247.288236 90.361916 
L 247.427646 62.766479 
L 247.539396 65.066099 
L 248.434283 271.11203 
L 249.003759 64.606175 
L 249.353624 64.606175 
L 250.275857 64.146251 
L 250.47354 60.926783 
L 250.661608 60.926783 
L 250.712913 267.432639 
L 251.536777 64.606175 
L 252.612438 147.852411 
L 252.997338 110.138646 
L 253.298188 64.606175 
L 254.022966 264.213171 
L 254.565079 144.173019 
L 254.717 64.146251 
L 255.713374 95.881004 
L 256.692626 81.163437 
L 257.09753 264.213171 
L 257.200011 64.606175 
L 258.456128 64.606175 
L 258.525596 262.373475 
L 259.133464 163.489825 
L 260.064307 64.606175 
L 260.953668 215.461232 
L 261.122005 64.606175 
L 261.140768 75.64435 
L 261.685435 62.766479 
L 261.927822 65.066099 
L 262.678112 64.606175 
L 264.484496 64.606175 
L 265.73303 208.102449 
L 266.174939 113.358114 
L 266.765128 257.314312 
L 267.182806 64.606175 
L 267.849782 184.646327 
L 267.952478 64.606175 
L 268.021973 234.778038 
L 268.647313 261.913551 
L 269.006881 65.985947 
L 269.203537 64.606175 
L 269.492664 65.985947 
L 269.534143 64.606175 
L 269.97293 65.985947 
L 269.982305 255.014692 
L 270.056769 147.392487 
L 270.397838 67.365719 
L 270.919324 119.797049 
L 271.250512 60.926783 
L 271.521075 64.606175 
L 271.917786 64.606175 
L 272.104828 114.277962 
L 272.235351 64.606175 
L 272.42195 106.919179 
L 273.25578 168.089065 
L 273.367801 101.400091 
L 273.932073 64.606175 
L 274.183478 264.673095 
L 274.290207 60.926783 
L 274.561007 64.606175 
L 274.719778 267.892563 
L 274.887619 60.926783 
L 274.971078 64.606175 
L 275.469673 128.995529 
L 275.656453 64.606175 
L 276.033572 123.936365 
L 276.266494 64.606175 
L 276.961159 64.606175 
L 277.129664 71.964958 
L 277.297258 196.60435 
L 278.202325 64.606175 
L 278.286038 65.066099 
L 278.817374 64.606175 
L 282.333508 64.606175 
L 282.848229 66.445871 
L 283.455443 65.985947 
L 283.483535 66.905795 
L 283.711175 64.606175 
L 284.462367 64.606175 
L 284.910768 62.306555 
L 285.213459 65.526023 
L 286.048206 64.146251 
L 286.520763 195.224578 
L 286.94146 64.606175 
L 288.627865 64.606175 
L 289.315444 66.905795 
L 289.43656 64.606175 
L 292.306217 64.606175 
L 292.467064 133.134844 
L 293.318444 64.606175 
L 295.503996 64.606175 
L 296.016479 200.743665 
L 296.701095 234.778038 
L 297.031398 64.606175 
L 297.777972 60.926783 
L 298.622329 61.846631 
L 299.333256 64.606175 
L 300.120644 64.606175 
L 300.22289 62.766479 
L 300.622802 63.226403 
L 300.706202 64.606175 
L 300.799852 266.052867 
L 301.027466 64.606175 
L 302.299359 64.606175 
L 302.646951 165.329521 
L 303.296143 60.926783 
L 303.624237 64.606175 
L 304.673743 64.606175 
L 305.501668 197.984122 
L 305.557833 163.029901 
L 306.006576 64.606175 
L 308.178596 64.606175 
L 309.117817 231.55857 
L 309.545176 64.606175 
L 309.84625 117.037506 
L 309.902712 64.606175 
L 310.302143 276.171194 
L 310.386609 60.926783 
L 310.830302 64.606175 
L 312.30297 64.606175 
L 312.424556 53.568 
L 312.690184 64.606175 
L 312.923142 61.846631 
L 313.073036 64.606175 
L 314.296651 64.606175 
L 315.334444 60.926783 
L 315.807331 64.606175 
L 317.55602 64.606175 
L 317.766257 118.877202 
L 317.947234 66.445871 
L 318.569315 203.503209 
L 318.718946 64.606175 
L 320.044493 64.606175 
L 320.138546 65.526023 
L 320.241903 265.133019 
L 320.307285 64.606175 
L 321.705285 64.606175 
L 321.72377 60.926783 
L 321.761143 64.606175 
L 322.472739 266.972715 
L 322.538064 64.606175 
L 323.634886 64.606175 
L 323.690554 119.797049 
L 323.774697 68.285567 
L 324.544614 58.627163 
L 324.834221 77.94397 
L 325.089189 64.606175 
L 326.037385 64.606175 
L 326.214532 260.993703 
L 326.493815 64.606175 
L 327.225562 67.825643 
L 327.262673 60.926783 
L 327.6916 64.606175 
L 328.073477 230.178798 
L 328.785705 183.266555 
L 329.080911 64.606175 
L 329.426889 94.501232 
L 329.445641 64.606175 
L 329.473711 65.066099 
L 329.557986 110.138646 
L 329.774241 64.606175 
L 331.862291 64.606175 
L 332.17968 236.617734 
L 332.256229 111.058494 
L 332.946419 64.606175 
L 333.543284 64.146251 
L 333.629375 64.606175 
L 333.648642 75.184426 
L 334.323928 62.306555 
L 334.401022 270.652106 
L 334.578116 64.606175 
L 338.491414 64.606175 
L 339.072035 214.08146 
L 339.307072 64.606175 
L 343.805995 64.606175 
L 343.902468 66.445871 
L 345.200071 64.606175 
L 345.545881 67.825643 
L 347.004659 64.606175 
L 347.730295 223.279939 
L 347.730296 263.293323 
L 348.921046 64.606175 
L 349.175759 60.926783 
L 349.391763 64.606175 
L 350.137224 62.766479 
L 350.405235 223.279939 
L 350.734042 65.526023 
L 350.969647 65.066099 
L 351.472295 64.606175 
L 352.257901 189.70549 
L 352.681171 64.606175 
L 352.789482 112.438266 
L 353.154571 64.606175 
L 353.270093 64.606175 
L 353.68726 179.587163 
L 353.80118 105.539407 
L 354.697941 64.606175 
L 354.960156 64.606175 
L 356.077019 61.846631 
L 356.609848 64.606175 
L 356.735733 62.306555 
L 358.338724 64.606175 
L 358.73028 63.226403 
L 360.841647 64.606175 
L 361.548325 64.606175 
L 362.096304 65.066099 
L 362.244335 64.606175 
L 362.588895 64.606175 
L 362.672779 62.766479 
L 362.700653 64.606175 
L 363.487144 64.606175 
L 364.799249 219.600548 
L 365.399397 267.892563 
L 365.558046 64.606175 
L 366.183439 197.064274 
L 366.220617 63.226403 
L 366.324614 64.606175 
L 366.894026 92.201612 
L 367.206054 65.985947 
L 368.57521 64.606175 
L 368.612525 64.146251 
L 368.855582 149.232183 
L 369.477054 64.606175 
L 372.172103 64.606175 
L 372.200097 220.980319 
L 372.40656 60.926783 
L 372.509504 129.455452 
L 373.713818 64.606175 
L 378.175728 64.606175 
L 378.27024 64.146251 
L 378.298702 64.606175 
L 378.364762 170.388684 
L 378.440288 64.606175 
L 378.53453 268.812411 
L 378.979022 64.606175 
L 379.158103 102.779863 
L 379.71174 64.606175 
L 382.431501 64.606175 
L 382.819736 169.008913 
L 383.100165 64.606175 
L 383.748567 64.606175 
L 385.917956 196.60435 
L 386.812475 64.606175 
L 390.325113 64.606175 
L 391.039147 123.016517 
L 391.405105 64.606175 
L 398.330434 64.606175 
L 399.212631 80.243589 
L 400.17875 64.606175 
L 401.353298 64.606175 
L 401.414862 65.526023 
L 401.710622 64.606175 
L 402.736424 64.606175 
L 404.576964 104.159635 
L 405.510228 64.606175 
L 408.187318 64.606175 
L 408.621451 60.926783 
L 408.761907 64.606175 
L 409.11753 64.606175 
L 409.939419 68.285567 
L 410.654108 64.606175 
L 411.996726 64.606175 
L 412.071296 256.854388 
L 412.230331 64.606175 
L 412.719347 115.19781 
L 412.878366 81.163437 
L 413.30198 64.606175 
L 413.479543 64.606175 
L 413.525974 60.926783 
L 413.721751 103.699711 
L 414.137284 64.606175 
L 414.72 265.592943 
L 414.72 265.592943 
" style="fill:none;stroke:#000000;stroke-linecap:square;stroke-width:0.8;"/>
   </g>
   <g id="patch_3">
    <path d="M 57.6 307.584 
L 57.6 41.472 
" style="fill:none;stroke:#000000;stroke-linecap:square;stroke-linejoin:miter;stroke-width:0.8;"/>
   </g>
   <g id="patch_4">
    <path d="M 414.72 307.584 
L 414.72 41.472 
" style="fill:none;stroke:#000000;stroke-linecap:square;stroke-linejoin:miter;stroke-width:0.8;"/>
   </g>
   <g id="patch_5">
    <path d="M 57.6 307.584 
L 414.72 307.584 
" style="fill:none;stroke:#000000;stroke-linecap:square;stroke-linejoin:miter;stroke-width:0.8;"/>
   </g>
   <g id="patch_6">
    <path d="M 57.6 41.472 
L 414.72 41.472 
" style="fill:none;stroke:#000000;stroke-linecap:square;stroke-linejoin:miter;stroke-width:0.8;"/>
   </g>
  </g>
  <g id="axes_2">
   <g id="matplotlib.axis_3">
    <g id="xtick_10">
     <g id="line2d_32">
      <defs>
       <path d="M 0 0 
L 0 -3.5 
" id="m68103669ac" style="stroke:#000000;stroke-width:0.8;"/>
      </defs>
      <g>
       <use style="stroke:#000000;stroke-width:0.8;" x="57.6" xlink:href="#m68103669ac" y="41.472"/>
      </g>
     </g>
    </g>
    <g id="xtick_11">
     <g id="line2d_33">
      <g>
       <use style="stroke:#000000;stroke-width:0.8;" x="128.904209" xlink:href="#m68103669ac" y="41.472"/>
      </g>
     </g>
     <g id="text_18">
      <!-- 5.00K -->
      <defs>
       <path d="M 9.8125 72.90625 
L 19.671875 72.90625 
L 19.671875 42.09375 
L 52.390625 72.90625 
L 65.09375 72.90625 
L 28.90625 38.921875 
L 67.671875 0 
L 54.6875 0 
L 19.671875 35.109375 
L 19.671875 0 
L 9.8125 0 
z
" id="DejaVuSans-75"/>
      </defs>
      <g transform="translate(114.49249 32.392313)scale(0.1 -0.1)">
       <use xlink:href="#DejaVuSans-53"/>
       <use x="63.623047" xlink:href="#DejaVuSans-46"/>
       <use x="95.410156" xlink:href="#DejaVuSans-48"/>
       <use x="159.033203" xlink:href="#DejaVuSans-48"/>
       <use x="222.65625" xlink:href="#DejaVuSans-75"/>
      </g>
     </g>
    </g>
    <g id="xtick_12">
     <g id="line2d_34">
      <g>
       <use style="stroke:#000000;stroke-width:0.8;" x="200.208418" xlink:href="#m68103669ac" y="41.472"/>
      </g>
     </g>
     <g id="text_19">
      <!-- 10.0K -->
      <g transform="translate(185.796699 32.392313)scale(0.1 -0.1)">
       <use xlink:href="#DejaVuSans-49"/>
       <use x="63.623047" xlink:href="#DejaVuSans-48"/>
       <use x="127.246094" xlink:href="#DejaVuSans-46"/>
       <use x="159.033203" xlink:href="#DejaVuSans-48"/>
       <use x="222.65625" xlink:href="#DejaVuSans-75"/>
      </g>
     </g>
    </g>
    <g id="xtick_13">
     <g id="line2d_35">
      <g>
       <use style="stroke:#000000;stroke-width:0.8;" x="271.512627" xlink:href="#m68103669ac" y="41.472"/>
      </g>
     </g>
     <g id="text_20">
      <!-- 15.0K -->
      <g transform="translate(257.100908 32.392313)scale(0.1 -0.1)">
       <use xlink:href="#DejaVuSans-49"/>
       <use x="63.623047" xlink:href="#DejaVuSans-53"/>
       <use x="127.246094" xlink:href="#DejaVuSans-46"/>
       <use x="159.033203" xlink:href="#DejaVuSans-48"/>
       <use x="222.65625" xlink:href="#DejaVuSans-75"/>
      </g>
     </g>
    </g>
    <g id="xtick_14">
     <g id="line2d_36">
      <g>
       <use style="stroke:#000000;stroke-width:0.8;" x="342.816836" xlink:href="#m68103669ac" y="41.472"/>
      </g>
     </g>
     <g id="text_21">
      <!-- 20.0K -->
      <g transform="translate(328.405117 32.392313)scale(0.1 -0.1)">
       <use xlink:href="#DejaVuSans-50"/>
       <use x="63.623047" xlink:href="#DejaVuSans-48"/>
       <use x="127.246094" xlink:href="#DejaVuSans-46"/>
       <use x="159.033203" xlink:href="#DejaVuSans-48"/>
       <use x="222.65625" xlink:href="#DejaVuSans-75"/>
      </g>
     </g>
    </g>
    <g id="xtick_15">
     <g id="line2d_37">
      <g>
       <use style="stroke:#000000;stroke-width:0.8;" x="414.121045" xlink:href="#m68103669ac" y="41.472"/>
      </g>
     </g>
     <g id="text_22">
      <!-- 25.0K -->
      <g transform="translate(399.709326 32.392313)scale(0.1 -0.1)">
       <use xlink:href="#DejaVuSans-50"/>
       <use x="63.623047" xlink:href="#DejaVuSans-53"/>
       <use x="127.246094" xlink:href="#DejaVuSans-46"/>
       <use x="159.033203" xlink:href="#DejaVuSans-48"/>
       <use x="222.65625" xlink:href="#DejaVuSans-75"/>
      </g>
     </g>
    </g>
    <g id="text_23">
     <!-- Episodes -->
     <defs>
      <path d="M 9.8125 72.90625 
L 55.90625 72.90625 
L 55.90625 64.59375 
L 19.671875 64.59375 
L 19.671875 43.015625 
L 54.390625 43.015625 
L 54.390625 34.71875 
L 19.671875 34.71875 
L 19.671875 8.296875 
L 56.78125 8.296875 
L 56.78125 0 
L 9.8125 0 
z
" id="DejaVuSans-69"/>
      <path d="M 9.421875 54.6875 
L 18.40625 54.6875 
L 18.40625 0 
L 9.421875 0 
z
M 9.421875 75.984375 
L 18.40625 75.984375 
L 18.40625 64.59375 
L 9.421875 64.59375 
z
" id="DejaVuSans-105"/>
      <path d="M 45.40625 46.390625 
L 45.40625 75.984375 
L 54.390625 75.984375 
L 54.390625 0 
L 45.40625 0 
L 45.40625 8.203125 
Q 42.578125 3.328125 38.25 0.953125 
Q 33.9375 -1.421875 27.875 -1.421875 
Q 17.96875 -1.421875 11.734375 6.484375 
Q 5.515625 14.40625 5.515625 27.296875 
Q 5.515625 40.1875 11.734375 48.09375 
Q 17.96875 56 27.875 56 
Q 33.9375 56 38.25 53.625 
Q 42.578125 51.265625 45.40625 46.390625 
z
M 14.796875 27.296875 
Q 14.796875 17.390625 18.875 11.75 
Q 22.953125 6.109375 30.078125 6.109375 
Q 37.203125 6.109375 41.296875 11.75 
Q 45.40625 17.390625 45.40625 27.296875 
Q 45.40625 37.203125 41.296875 42.84375 
Q 37.203125 48.484375 30.078125 48.484375 
Q 22.953125 48.484375 18.875 42.84375 
Q 14.796875 37.203125 14.796875 27.296875 
z
" id="DejaVuSans-100"/>
     </defs>
     <g transform="translate(213.917812 20.793875)scale(0.1 -0.1)">
      <use xlink:href="#DejaVuSans-69"/>
      <use x="63.183594" xlink:href="#DejaVuSans-112"/>
      <use x="126.660156" xlink:href="#DejaVuSans-105"/>
      <use x="154.443359" xlink:href="#DejaVuSans-115"/>
      <use x="206.542969" xlink:href="#DejaVuSans-111"/>
      <use x="267.724609" xlink:href="#DejaVuSans-100"/>
      <use x="331.201172" xlink:href="#DejaVuSans-101"/>
      <use x="392.724609" xlink:href="#DejaVuSans-115"/>
     </g>
    </g>
   </g>
   <g id="patch_7">
    <path d="M 57.6 307.584 
L 57.6 41.472 
" style="fill:none;stroke:#000000;stroke-linecap:square;stroke-linejoin:miter;stroke-width:0.8;"/>
   </g>
   <g id="patch_8">
    <path d="M 414.72 307.584 
L 414.72 41.472 
" style="fill:none;stroke:#000000;stroke-linecap:square;stroke-linejoin:miter;stroke-width:0.8;"/>
   </g>
   <g id="patch_9">
    <path d="M 57.6 307.584 
L 414.72 307.584 
" style="fill:none;stroke:#000000;stroke-linecap:square;stroke-linejoin:miter;stroke-width:0.8;"/>
   </g>
   <g id="patch_10">
    <path d="M 57.6 41.472 
L 414.72 41.472 
" style="fill:none;stroke:#000000;stroke-linecap:square;stroke-linejoin:miter;stroke-width:0.8;"/>
   </g>
  </g>
 </g>
 <defs>
  <clipPath id="p2ad94a7728">
   <rect height="266.112" width="357.12" x="57.6" y="41.472"/>
  </clipPath>
 </defs>
</svg>
