<?xml version="1.0" encoding="utf-8" standalone="no"?>
<!DOCTYPE svg PUBLIC "-//W3C//DTD SVG 1.1//EN"
  "http://www.w3.org/Graphics/SVG/1.1/DTD/svg11.dtd">
<!-- Created with matplotlib (https://matplotlib.org/) -->
<svg height="345.6pt" version="1.1" viewBox="0 0 460.8 345.6" width="460.8pt" xmlns="http://www.w3.org/2000/svg" xmlns:xlink="http://www.w3.org/1999/xlink">
 <defs>
  <style type="text/css">
*{stroke-linecap:butt;stroke-linejoin:round;}
  </style>
 </defs>
 <g id="figure_1">
  <g id="patch_1">
   <path d="M 0 345.6 
L 460.8 345.6 
L 460.8 0 
L 0 0 
z
" style="fill:#ffffff;"/>
  </g>
  <g id="axes_1">
   <g id="patch_2">
    <path d="M 57.6 307.584 
L 414.72 307.584 
L 414.72 41.472 
L 57.6 41.472 
z
" style="fill:#ffffff;"/>
   </g>
   <g id="matplotlib.axis_1">
    <g id="xtick_1">
     <g id="line2d_1">
      <path clip-path="url(#p5c60af20ee)" d="M 57.6 307.584 
L 57.6 41.472 
" style="fill:none;stroke:#b0b0b0;stroke-linecap:square;stroke-width:0.8;"/>
     </g>
     <g id="line2d_2">
      <defs>
       <path d="M 0 0 
L 0 3.5 
" id="m6449eed7bf" style="stroke:#000000;stroke-width:0.8;"/>
      </defs>
      <g>
       <use style="stroke:#000000;stroke-width:0.8;" x="57.6" xlink:href="#m6449eed7bf" y="307.584"/>
      </g>
     </g>
     <g id="text_1">
      <!-- 0 -->
      <defs>
       <path d="M 31.78125 66.40625 
Q 24.171875 66.40625 20.328125 58.90625 
Q 16.5 51.421875 16.5 36.375 
Q 16.5 21.390625 20.328125 13.890625 
Q 24.171875 6.390625 31.78125 6.390625 
Q 39.453125 6.390625 43.28125 13.890625 
Q 47.125 21.390625 47.125 36.375 
Q 47.125 51.421875 43.28125 58.90625 
Q 39.453125 66.40625 31.78125 66.40625 
z
M 31.78125 74.21875 
Q 44.046875 74.21875 50.515625 64.515625 
Q 56.984375 54.828125 56.984375 36.375 
Q 56.984375 17.96875 50.515625 8.265625 
Q 44.046875 -1.421875 31.78125 -1.421875 
Q 19.53125 -1.421875 13.0625 8.265625 
Q 6.59375 17.96875 6.59375 36.375 
Q 6.59375 54.828125 13.0625 64.515625 
Q 19.53125 74.21875 31.78125 74.21875 
z
" id="DejaVuSans-48"/>
      </defs>
      <g transform="translate(54.41875 322.182437)scale(0.1 -0.1)">
       <use xlink:href="#DejaVuSans-48"/>
      </g>
     </g>
    </g>
    <g id="xtick_2">
     <g id="line2d_3">
      <path clip-path="url(#p5c60af20ee)" d="M 110.073334 307.584 
L 110.073334 41.472 
" style="fill:none;stroke:#b0b0b0;stroke-linecap:square;stroke-width:0.8;"/>
     </g>
     <g id="line2d_4">
      <g>
       <use style="stroke:#000000;stroke-width:0.8;" x="110.073334" xlink:href="#m6449eed7bf" y="307.584"/>
      </g>
     </g>
     <g id="text_2">
      <!-- 2 -->
      <defs>
       <path d="M 19.1875 8.296875 
L 53.609375 8.296875 
L 53.609375 0 
L 7.328125 0 
L 7.328125 8.296875 
Q 12.9375 14.109375 22.625 23.890625 
Q 32.328125 33.6875 34.8125 36.53125 
Q 39.546875 41.84375 41.421875 45.53125 
Q 43.3125 49.21875 43.3125 52.78125 
Q 43.3125 58.59375 39.234375 62.25 
Q 35.15625 65.921875 28.609375 65.921875 
Q 23.96875 65.921875 18.8125 64.3125 
Q 13.671875 62.703125 7.8125 59.421875 
L 7.8125 69.390625 
Q 13.765625 71.78125 18.9375 73 
Q 24.125 74.21875 28.421875 74.21875 
Q 39.75 74.21875 46.484375 68.546875 
Q 53.21875 62.890625 53.21875 53.421875 
Q 53.21875 48.921875 51.53125 44.890625 
Q 49.859375 40.875 45.40625 35.40625 
Q 44.1875 33.984375 37.640625 27.21875 
Q 31.109375 20.453125 19.1875 8.296875 
z
" id="DejaVuSans-50"/>
      </defs>
      <g transform="translate(106.892084 322.182437)scale(0.1 -0.1)">
       <use xlink:href="#DejaVuSans-50"/>
      </g>
     </g>
    </g>
    <g id="xtick_3">
     <g id="line2d_5">
      <path clip-path="url(#p5c60af20ee)" d="M 162.546667 307.584 
L 162.546667 41.472 
" style="fill:none;stroke:#b0b0b0;stroke-linecap:square;stroke-width:0.8;"/>
     </g>
     <g id="line2d_6">
      <g>
       <use style="stroke:#000000;stroke-width:0.8;" x="162.546667" xlink:href="#m6449eed7bf" y="307.584"/>
      </g>
     </g>
     <g id="text_3">
      <!-- 4 -->
      <defs>
       <path d="M 37.796875 64.3125 
L 12.890625 25.390625 
L 37.796875 25.390625 
z
M 35.203125 72.90625 
L 47.609375 72.90625 
L 47.609375 25.390625 
L 58.015625 25.390625 
L 58.015625 17.1875 
L 47.609375 17.1875 
L 47.609375 0 
L 37.796875 0 
L 37.796875 17.1875 
L 4.890625 17.1875 
L 4.890625 26.703125 
z
" id="DejaVuSans-52"/>
      </defs>
      <g transform="translate(159.365417 322.182437)scale(0.1 -0.1)">
       <use xlink:href="#DejaVuSans-52"/>
      </g>
     </g>
    </g>
    <g id="xtick_4">
     <g id="line2d_7">
      <path clip-path="url(#p5c60af20ee)" d="M 215.020001 307.584 
L 215.020001 41.472 
" style="fill:none;stroke:#b0b0b0;stroke-linecap:square;stroke-width:0.8;"/>
     </g>
     <g id="line2d_8">
      <g>
       <use style="stroke:#000000;stroke-width:0.8;" x="215.020001" xlink:href="#m6449eed7bf" y="307.584"/>
      </g>
     </g>
     <g id="text_4">
      <!-- 6 -->
      <defs>
       <path d="M 33.015625 40.375 
Q 26.375 40.375 22.484375 35.828125 
Q 18.609375 31.296875 18.609375 23.390625 
Q 18.609375 15.53125 22.484375 10.953125 
Q 26.375 6.390625 33.015625 6.390625 
Q 39.65625 6.390625 43.53125 10.953125 
Q 47.40625 15.53125 47.40625 23.390625 
Q 47.40625 31.296875 43.53125 35.828125 
Q 39.65625 40.375 33.015625 40.375 
z
M 52.59375 71.296875 
L 52.59375 62.3125 
Q 48.875 64.0625 45.09375 64.984375 
Q 41.3125 65.921875 37.59375 65.921875 
Q 27.828125 65.921875 22.671875 59.328125 
Q 17.53125 52.734375 16.796875 39.40625 
Q 19.671875 43.65625 24.015625 45.921875 
Q 28.375 48.1875 33.59375 48.1875 
Q 44.578125 48.1875 50.953125 41.515625 
Q 57.328125 34.859375 57.328125 23.390625 
Q 57.328125 12.15625 50.6875 5.359375 
Q 44.046875 -1.421875 33.015625 -1.421875 
Q 20.359375 -1.421875 13.671875 8.265625 
Q 6.984375 17.96875 6.984375 36.375 
Q 6.984375 53.65625 15.1875 63.9375 
Q 23.390625 74.21875 37.203125 74.21875 
Q 40.921875 74.21875 44.703125 73.484375 
Q 48.484375 72.75 52.59375 71.296875 
z
" id="DejaVuSans-54"/>
      </defs>
      <g transform="translate(211.838751 322.182437)scale(0.1 -0.1)">
       <use xlink:href="#DejaVuSans-54"/>
      </g>
     </g>
    </g>
    <g id="xtick_5">
     <g id="line2d_9">
      <path clip-path="url(#p5c60af20ee)" d="M 267.493335 307.584 
L 267.493335 41.472 
" style="fill:none;stroke:#b0b0b0;stroke-linecap:square;stroke-width:0.8;"/>
     </g>
     <g id="line2d_10">
      <g>
       <use style="stroke:#000000;stroke-width:0.8;" x="267.493335" xlink:href="#m6449eed7bf" y="307.584"/>
      </g>
     </g>
     <g id="text_5">
      <!-- 8 -->
      <defs>
       <path d="M 31.78125 34.625 
Q 24.75 34.625 20.71875 30.859375 
Q 16.703125 27.09375 16.703125 20.515625 
Q 16.703125 13.921875 20.71875 10.15625 
Q 24.75 6.390625 31.78125 6.390625 
Q 38.8125 6.390625 42.859375 10.171875 
Q 46.921875 13.96875 46.921875 20.515625 
Q 46.921875 27.09375 42.890625 30.859375 
Q 38.875 34.625 31.78125 34.625 
z
M 21.921875 38.8125 
Q 15.578125 40.375 12.03125 44.71875 
Q 8.5 49.078125 8.5 55.328125 
Q 8.5 64.0625 14.71875 69.140625 
Q 20.953125 74.21875 31.78125 74.21875 
Q 42.671875 74.21875 48.875 69.140625 
Q 55.078125 64.0625 55.078125 55.328125 
Q 55.078125 49.078125 51.53125 44.71875 
Q 48 40.375 41.703125 38.8125 
Q 48.828125 37.15625 52.796875 32.3125 
Q 56.78125 27.484375 56.78125 20.515625 
Q 56.78125 9.90625 50.3125 4.234375 
Q 43.84375 -1.421875 31.78125 -1.421875 
Q 19.734375 -1.421875 13.25 4.234375 
Q 6.78125 9.90625 6.78125 20.515625 
Q 6.78125 27.484375 10.78125 32.3125 
Q 14.796875 37.15625 21.921875 38.8125 
z
M 18.3125 54.390625 
Q 18.3125 48.734375 21.84375 45.5625 
Q 25.390625 42.390625 31.78125 42.390625 
Q 38.140625 42.390625 41.71875 45.5625 
Q 45.3125 48.734375 45.3125 54.390625 
Q 45.3125 60.0625 41.71875 63.234375 
Q 38.140625 66.40625 31.78125 66.40625 
Q 25.390625 66.40625 21.84375 63.234375 
Q 18.3125 60.0625 18.3125 54.390625 
z
" id="DejaVuSans-56"/>
      </defs>
      <g transform="translate(264.312085 322.182437)scale(0.1 -0.1)">
       <use xlink:href="#DejaVuSans-56"/>
      </g>
     </g>
    </g>
    <g id="xtick_6">
     <g id="line2d_11">
      <path clip-path="url(#p5c60af20ee)" d="M 319.966668 307.584 
L 319.966668 41.472 
" style="fill:none;stroke:#b0b0b0;stroke-linecap:square;stroke-width:0.8;"/>
     </g>
     <g id="line2d_12">
      <g>
       <use style="stroke:#000000;stroke-width:0.8;" x="319.966668" xlink:href="#m6449eed7bf" y="307.584"/>
      </g>
     </g>
     <g id="text_6">
      <!-- 10 -->
      <defs>
       <path d="M 12.40625 8.296875 
L 28.515625 8.296875 
L 28.515625 63.921875 
L 10.984375 60.40625 
L 10.984375 69.390625 
L 28.421875 72.90625 
L 38.28125 72.90625 
L 38.28125 8.296875 
L 54.390625 8.296875 
L 54.390625 0 
L 12.40625 0 
z
" id="DejaVuSans-49"/>
      </defs>
      <g transform="translate(313.604168 322.182437)scale(0.1 -0.1)">
       <use xlink:href="#DejaVuSans-49"/>
       <use x="63.623047" xlink:href="#DejaVuSans-48"/>
      </g>
     </g>
    </g>
    <g id="xtick_7">
     <g id="line2d_13">
      <path clip-path="url(#p5c60af20ee)" d="M 372.440002 307.584 
L 372.440002 41.472 
" style="fill:none;stroke:#b0b0b0;stroke-linecap:square;stroke-width:0.8;"/>
     </g>
     <g id="line2d_14">
      <g>
       <use style="stroke:#000000;stroke-width:0.8;" x="372.440002" xlink:href="#m6449eed7bf" y="307.584"/>
      </g>
     </g>
     <g id="text_7">
      <!-- 12 -->
      <g transform="translate(366.077502 322.182437)scale(0.1 -0.1)">
       <use xlink:href="#DejaVuSans-49"/>
       <use x="63.623047" xlink:href="#DejaVuSans-50"/>
      </g>
     </g>
    </g>
    <g id="text_8">
     <!-- Hours -->
     <defs>
      <path d="M 9.8125 72.90625 
L 19.671875 72.90625 
L 19.671875 43.015625 
L 55.515625 43.015625 
L 55.515625 72.90625 
L 65.375 72.90625 
L 65.375 0 
L 55.515625 0 
L 55.515625 34.71875 
L 19.671875 34.71875 
L 19.671875 0 
L 9.8125 0 
z
" id="DejaVuSans-72"/>
      <path d="M 30.609375 48.390625 
Q 23.390625 48.390625 19.1875 42.75 
Q 14.984375 37.109375 14.984375 27.296875 
Q 14.984375 17.484375 19.15625 11.84375 
Q 23.34375 6.203125 30.609375 6.203125 
Q 37.796875 6.203125 41.984375 11.859375 
Q 46.1875 17.53125 46.1875 27.296875 
Q 46.1875 37.015625 41.984375 42.703125 
Q 37.796875 48.390625 30.609375 48.390625 
z
M 30.609375 56 
Q 42.328125 56 49.015625 48.375 
Q 55.71875 40.765625 55.71875 27.296875 
Q 55.71875 13.875 49.015625 6.21875 
Q 42.328125 -1.421875 30.609375 -1.421875 
Q 18.84375 -1.421875 12.171875 6.21875 
Q 5.515625 13.875 5.515625 27.296875 
Q 5.515625 40.765625 12.171875 48.375 
Q 18.84375 56 30.609375 56 
z
" id="DejaVuSans-111"/>
      <path d="M 8.5 21.578125 
L 8.5 54.6875 
L 17.484375 54.6875 
L 17.484375 21.921875 
Q 17.484375 14.15625 20.5 10.265625 
Q 23.53125 6.390625 29.59375 6.390625 
Q 36.859375 6.390625 41.078125 11.03125 
Q 45.3125 15.671875 45.3125 23.6875 
L 45.3125 54.6875 
L 54.296875 54.6875 
L 54.296875 0 
L 45.3125 0 
L 45.3125 8.40625 
Q 42.046875 3.421875 37.71875 1 
Q 33.40625 -1.421875 27.6875 -1.421875 
Q 18.265625 -1.421875 13.375 4.4375 
Q 8.5 10.296875 8.5 21.578125 
z
M 31.109375 56 
z
" id="DejaVuSans-117"/>
      <path d="M 41.109375 46.296875 
Q 39.59375 47.171875 37.8125 47.578125 
Q 36.03125 48 33.890625 48 
Q 26.265625 48 22.1875 43.046875 
Q 18.109375 38.09375 18.109375 28.8125 
L 18.109375 0 
L 9.078125 0 
L 9.078125 54.6875 
L 18.109375 54.6875 
L 18.109375 46.1875 
Q 20.953125 51.171875 25.484375 53.578125 
Q 30.03125 56 36.53125 56 
Q 37.453125 56 38.578125 55.875 
Q 39.703125 55.765625 41.0625 55.515625 
z
" id="DejaVuSans-114"/>
      <path d="M 44.28125 53.078125 
L 44.28125 44.578125 
Q 40.484375 46.53125 36.375 47.5 
Q 32.28125 48.484375 27.875 48.484375 
Q 21.1875 48.484375 17.84375 46.4375 
Q 14.5 44.390625 14.5 40.28125 
Q 14.5 37.15625 16.890625 35.375 
Q 19.28125 33.59375 26.515625 31.984375 
L 29.59375 31.296875 
Q 39.15625 29.25 43.1875 25.515625 
Q 47.21875 21.78125 47.21875 15.09375 
Q 47.21875 7.46875 41.1875 3.015625 
Q 35.15625 -1.421875 24.609375 -1.421875 
Q 20.21875 -1.421875 15.453125 -0.5625 
Q 10.6875 0.296875 5.421875 2 
L 5.421875 11.28125 
Q 10.40625 8.6875 15.234375 7.390625 
Q 20.0625 6.109375 24.8125 6.109375 
Q 31.15625 6.109375 34.5625 8.28125 
Q 37.984375 10.453125 37.984375 14.40625 
Q 37.984375 18.0625 35.515625 20.015625 
Q 33.0625 21.96875 24.703125 23.78125 
L 21.578125 24.515625 
Q 13.234375 26.265625 9.515625 29.90625 
Q 5.8125 33.546875 5.8125 39.890625 
Q 5.8125 47.609375 11.28125 51.796875 
Q 16.75 56 26.8125 56 
Q 31.78125 56 36.171875 55.265625 
Q 40.578125 54.546875 44.28125 53.078125 
z
" id="DejaVuSans-115"/>
     </defs>
     <g transform="translate(221.511562 335.860562)scale(0.1 -0.1)">
      <use xlink:href="#DejaVuSans-72"/>
      <use x="75.195312" xlink:href="#DejaVuSans-111"/>
      <use x="136.376953" xlink:href="#DejaVuSans-117"/>
      <use x="199.755859" xlink:href="#DejaVuSans-114"/>
      <use x="240.869141" xlink:href="#DejaVuSans-115"/>
     </g>
    </g>
   </g>
   <g id="matplotlib.axis_2">
    <g id="ytick_1">
     <g id="line2d_15">
      <path clip-path="url(#p5c60af20ee)" d="M 57.6 276.06039 
L 414.72 276.06039 
" style="fill:none;stroke:#b0b0b0;stroke-linecap:square;stroke-width:0.8;"/>
     </g>
     <g id="line2d_16">
      <defs>
       <path d="M 0 0 
L -3.5 0 
" id="m6b00e98c64" style="stroke:#000000;stroke-width:0.8;"/>
      </defs>
      <g>
       <use style="stroke:#000000;stroke-width:0.8;" x="57.6" xlink:href="#m6b00e98c64" y="276.06039"/>
      </g>
     </g>
     <g id="text_9">
      <!-- 100 -->
      <g transform="translate(31.5125 279.859609)scale(0.1 -0.1)">
       <use xlink:href="#DejaVuSans-49"/>
       <use x="63.623047" xlink:href="#DejaVuSans-48"/>
       <use x="127.246094" xlink:href="#DejaVuSans-48"/>
      </g>
     </g>
    </g>
    <g id="ytick_2">
     <g id="line2d_17">
      <path clip-path="url(#p5c60af20ee)" d="M 57.6 229.804176 
L 414.72 229.804176 
" style="fill:none;stroke:#b0b0b0;stroke-linecap:square;stroke-width:0.8;"/>
     </g>
     <g id="line2d_18">
      <g>
       <use style="stroke:#000000;stroke-width:0.8;" x="57.6" xlink:href="#m6b00e98c64" y="229.804176"/>
      </g>
     </g>
     <g id="text_10">
      <!-- 200 -->
      <g transform="translate(31.5125 233.603395)scale(0.1 -0.1)">
       <use xlink:href="#DejaVuSans-50"/>
       <use x="63.623047" xlink:href="#DejaVuSans-48"/>
       <use x="127.246094" xlink:href="#DejaVuSans-48"/>
      </g>
     </g>
    </g>
    <g id="ytick_3">
     <g id="line2d_19">
      <path clip-path="url(#p5c60af20ee)" d="M 57.6 183.547962 
L 414.72 183.547962 
" style="fill:none;stroke:#b0b0b0;stroke-linecap:square;stroke-width:0.8;"/>
     </g>
     <g id="line2d_20">
      <g>
       <use style="stroke:#000000;stroke-width:0.8;" x="57.6" xlink:href="#m6b00e98c64" y="183.547962"/>
      </g>
     </g>
     <g id="text_11">
      <!-- 300 -->
      <defs>
       <path d="M 40.578125 39.3125 
Q 47.65625 37.796875 51.625 33 
Q 55.609375 28.21875 55.609375 21.1875 
Q 55.609375 10.40625 48.1875 4.484375 
Q 40.765625 -1.421875 27.09375 -1.421875 
Q 22.515625 -1.421875 17.65625 -0.515625 
Q 12.796875 0.390625 7.625 2.203125 
L 7.625 11.71875 
Q 11.71875 9.328125 16.59375 8.109375 
Q 21.484375 6.890625 26.8125 6.890625 
Q 36.078125 6.890625 40.9375 10.546875 
Q 45.796875 14.203125 45.796875 21.1875 
Q 45.796875 27.640625 41.28125 31.265625 
Q 36.765625 34.90625 28.71875 34.90625 
L 20.21875 34.90625 
L 20.21875 43.015625 
L 29.109375 43.015625 
Q 36.375 43.015625 40.234375 45.921875 
Q 44.09375 48.828125 44.09375 54.296875 
Q 44.09375 59.90625 40.109375 62.90625 
Q 36.140625 65.921875 28.71875 65.921875 
Q 24.65625 65.921875 20.015625 65.03125 
Q 15.375 64.15625 9.8125 62.3125 
L 9.8125 71.09375 
Q 15.4375 72.65625 20.34375 73.4375 
Q 25.25 74.21875 29.59375 74.21875 
Q 40.828125 74.21875 47.359375 69.109375 
Q 53.90625 64.015625 53.90625 55.328125 
Q 53.90625 49.265625 50.4375 45.09375 
Q 46.96875 40.921875 40.578125 39.3125 
z
" id="DejaVuSans-51"/>
      </defs>
      <g transform="translate(31.5125 187.347181)scale(0.1 -0.1)">
       <use xlink:href="#DejaVuSans-51"/>
       <use x="63.623047" xlink:href="#DejaVuSans-48"/>
       <use x="127.246094" xlink:href="#DejaVuSans-48"/>
      </g>
     </g>
    </g>
    <g id="ytick_4">
     <g id="line2d_21">
      <path clip-path="url(#p5c60af20ee)" d="M 57.6 137.291748 
L 414.72 137.291748 
" style="fill:none;stroke:#b0b0b0;stroke-linecap:square;stroke-width:0.8;"/>
     </g>
     <g id="line2d_22">
      <g>
       <use style="stroke:#000000;stroke-width:0.8;" x="57.6" xlink:href="#m6b00e98c64" y="137.291748"/>
      </g>
     </g>
     <g id="text_12">
      <!-- 400 -->
      <g transform="translate(31.5125 141.090966)scale(0.1 -0.1)">
       <use xlink:href="#DejaVuSans-52"/>
       <use x="63.623047" xlink:href="#DejaVuSans-48"/>
       <use x="127.246094" xlink:href="#DejaVuSans-48"/>
      </g>
     </g>
    </g>
    <g id="ytick_5">
     <g id="line2d_23">
      <path clip-path="url(#p5c60af20ee)" d="M 57.6 91.035533 
L 414.72 91.035533 
" style="fill:none;stroke:#b0b0b0;stroke-linecap:square;stroke-width:0.8;"/>
     </g>
     <g id="line2d_24">
      <g>
       <use style="stroke:#000000;stroke-width:0.8;" x="57.6" xlink:href="#m6b00e98c64" y="91.035533"/>
      </g>
     </g>
     <g id="text_13">
      <!-- 500 -->
      <defs>
       <path d="M 10.796875 72.90625 
L 49.515625 72.90625 
L 49.515625 64.59375 
L 19.828125 64.59375 
L 19.828125 46.734375 
Q 21.96875 47.46875 24.109375 47.828125 
Q 26.265625 48.1875 28.421875 48.1875 
Q 40.625 48.1875 47.75 41.5 
Q 54.890625 34.8125 54.890625 23.390625 
Q 54.890625 11.625 47.5625 5.09375 
Q 40.234375 -1.421875 26.90625 -1.421875 
Q 22.3125 -1.421875 17.546875 -0.640625 
Q 12.796875 0.140625 7.71875 1.703125 
L 7.71875 11.625 
Q 12.109375 9.234375 16.796875 8.0625 
Q 21.484375 6.890625 26.703125 6.890625 
Q 35.15625 6.890625 40.078125 11.328125 
Q 45.015625 15.765625 45.015625 23.390625 
Q 45.015625 31 40.078125 35.4375 
Q 35.15625 39.890625 26.703125 39.890625 
Q 22.75 39.890625 18.8125 39.015625 
Q 14.890625 38.140625 10.796875 36.28125 
z
" id="DejaVuSans-53"/>
      </defs>
      <g transform="translate(31.5125 94.834752)scale(0.1 -0.1)">
       <use xlink:href="#DejaVuSans-53"/>
       <use x="63.623047" xlink:href="#DejaVuSans-48"/>
       <use x="127.246094" xlink:href="#DejaVuSans-48"/>
      </g>
     </g>
    </g>
    <g id="ytick_6">
     <g id="line2d_25">
      <path clip-path="url(#p5c60af20ee)" d="M 57.6 44.779319 
L 414.72 44.779319 
" style="fill:none;stroke:#b0b0b0;stroke-linecap:square;stroke-width:0.8;"/>
     </g>
     <g id="line2d_26">
      <g>
       <use style="stroke:#000000;stroke-width:0.8;" x="57.6" xlink:href="#m6b00e98c64" y="44.779319"/>
      </g>
     </g>
     <g id="text_14">
      <!-- 600 -->
      <g transform="translate(31.5125 48.578538)scale(0.1 -0.1)">
       <use xlink:href="#DejaVuSans-54"/>
       <use x="63.623047" xlink:href="#DejaVuSans-48"/>
       <use x="127.246094" xlink:href="#DejaVuSans-48"/>
      </g>
     </g>
    </g>
    <g id="text_15">
     <!-- Steps -->
     <defs>
      <path d="M 53.515625 70.515625 
L 53.515625 60.890625 
Q 47.90625 63.578125 42.921875 64.890625 
Q 37.9375 66.21875 33.296875 66.21875 
Q 25.25 66.21875 20.875 63.09375 
Q 16.5 59.96875 16.5 54.203125 
Q 16.5 49.359375 19.40625 46.890625 
Q 22.3125 44.4375 30.421875 42.921875 
L 36.375 41.703125 
Q 47.40625 39.59375 52.65625 34.296875 
Q 57.90625 29 57.90625 20.125 
Q 57.90625 9.515625 50.796875 4.046875 
Q 43.703125 -1.421875 29.984375 -1.421875 
Q 24.8125 -1.421875 18.96875 -0.25 
Q 13.140625 0.921875 6.890625 3.21875 
L 6.890625 13.375 
Q 12.890625 10.015625 18.65625 8.296875 
Q 24.421875 6.59375 29.984375 6.59375 
Q 38.421875 6.59375 43.015625 9.90625 
Q 47.609375 13.234375 47.609375 19.390625 
Q 47.609375 24.75 44.3125 27.78125 
Q 41.015625 30.8125 33.5 32.328125 
L 27.484375 33.5 
Q 16.453125 35.6875 11.515625 40.375 
Q 6.59375 45.0625 6.59375 53.421875 
Q 6.59375 63.09375 13.40625 68.65625 
Q 20.21875 74.21875 32.171875 74.21875 
Q 37.3125 74.21875 42.625 73.28125 
Q 47.953125 72.359375 53.515625 70.515625 
z
" id="DejaVuSans-83"/>
      <path d="M 18.3125 70.21875 
L 18.3125 54.6875 
L 36.8125 54.6875 
L 36.8125 47.703125 
L 18.3125 47.703125 
L 18.3125 18.015625 
Q 18.3125 11.328125 20.140625 9.421875 
Q 21.96875 7.515625 27.59375 7.515625 
L 36.8125 7.515625 
L 36.8125 0 
L 27.59375 0 
Q 17.1875 0 13.234375 3.875 
Q 9.28125 7.765625 9.28125 18.015625 
L 9.28125 47.703125 
L 2.6875 47.703125 
L 2.6875 54.6875 
L 9.28125 54.6875 
L 9.28125 70.21875 
z
" id="DejaVuSans-116"/>
      <path d="M 56.203125 29.59375 
L 56.203125 25.203125 
L 14.890625 25.203125 
Q 15.484375 15.921875 20.484375 11.0625 
Q 25.484375 6.203125 34.421875 6.203125 
Q 39.59375 6.203125 44.453125 7.46875 
Q 49.3125 8.734375 54.109375 11.28125 
L 54.109375 2.78125 
Q 49.265625 0.734375 44.1875 -0.34375 
Q 39.109375 -1.421875 33.890625 -1.421875 
Q 20.796875 -1.421875 13.15625 6.1875 
Q 5.515625 13.8125 5.515625 26.8125 
Q 5.515625 40.234375 12.765625 48.109375 
Q 20.015625 56 32.328125 56 
Q 43.359375 56 49.78125 48.890625 
Q 56.203125 41.796875 56.203125 29.59375 
z
M 47.21875 32.234375 
Q 47.125 39.59375 43.09375 43.984375 
Q 39.0625 48.390625 32.421875 48.390625 
Q 24.90625 48.390625 20.390625 44.140625 
Q 15.875 39.890625 15.1875 32.171875 
z
" id="DejaVuSans-101"/>
      <path d="M 18.109375 8.203125 
L 18.109375 -20.796875 
L 9.078125 -20.796875 
L 9.078125 54.6875 
L 18.109375 54.6875 
L 18.109375 46.390625 
Q 20.953125 51.265625 25.265625 53.625 
Q 29.59375 56 35.59375 56 
Q 45.5625 56 51.78125 48.09375 
Q 58.015625 40.1875 58.015625 27.296875 
Q 58.015625 14.40625 51.78125 6.484375 
Q 45.5625 -1.421875 35.59375 -1.421875 
Q 29.59375 -1.421875 25.265625 0.953125 
Q 20.953125 3.328125 18.109375 8.203125 
z
M 48.6875 27.296875 
Q 48.6875 37.203125 44.609375 42.84375 
Q 40.53125 48.484375 33.40625 48.484375 
Q 26.265625 48.484375 22.1875 42.84375 
Q 18.109375 37.203125 18.109375 27.296875 
Q 18.109375 17.390625 22.1875 11.75 
Q 26.265625 6.109375 33.40625 6.109375 
Q 40.53125 6.109375 44.609375 11.75 
Q 48.6875 17.390625 48.6875 27.296875 
z
" id="DejaVuSans-112"/>
     </defs>
     <g transform="translate(25.432812 188.517844)rotate(-90)scale(0.1 -0.1)">
      <use xlink:href="#DejaVuSans-83"/>
      <use x="63.476562" xlink:href="#DejaVuSans-116"/>
      <use x="102.685547" xlink:href="#DejaVuSans-101"/>
      <use x="164.208984" xlink:href="#DejaVuSans-112"/>
      <use x="227.685547" xlink:href="#DejaVuSans-115"/>
     </g>
    </g>
   </g>
   <g id="line2d_27">
    <path clip-path="url(#p5c60af20ee)" d="M 57.6 275.597828 
L 57.727687 258.483029 
L 57.757735 165.045476 
L 57.924222 252.007159 
L 58.090004 60.968994 
L 58.456206 270.509644 
L 58.501802 252.932283 
L 58.911652 286.699319 
L 58.934294 257.095342 
L 59.039927 264.033774 
L 59.130915 252.007159 
L 59.356933 289.01213 
L 59.364398 267.734272 
L 59.410019 268.196834 
L 60.061779 245.068727 
L 60.336164 258.945591 
L 60.426937 285.774195 
L 60.853776 160.419855 
L 61.013823 292.712627 
L 61.172622 242.293354 
L 61.477726 290.862379 
L 61.56873 60.968994 
L 61.666997 266.809147 
L 61.69737 260.795839 
L 61.879419 270.972207 
L 61.909789 245.993851 
L 62.16857 270.047082 
L 62.312975 119.714386 
L 62.410922 270.972207 
L 62.441328 81.784291 
L 62.616622 257.095342 
L 63.355816 273.747579 
L 63.50012 253.394845 
L 63.507796 286.236757 
L 63.545862 251.082034 
L 63.713792 256.63278 
L 63.767188 248.769224 
L 64.098038 267.271709 
L 64.120765 261.258402 
L 64.297451 149.318363 
L 64.343576 290.862379 
L 64.728509 188.173583 
L 64.843412 225.178554 
L 65.344833 243.218478 
L 65.672916 188.173583 
L 65.688375 230.266738 
L 65.791733 159.032168 
L 65.822221 268.196834 
L 66.205407 273.285017 
L 66.244062 162.270103 
L 66.404372 207.601193 
L 66.462219 264.958899 
L 66.515491 184.935648 
L 66.706636 193.724329 
L 66.76761 186.323335 
L 66.852076 230.7293 
L 67.083883 260.333277 
L 67.260104 57.268497 
L 67.366904 60.968994 
L 67.481346 261.258402 
L 67.519204 85.94735 
L 67.64932 193.724329 
L 67.882491 265.884023 
L 68.292843 199.737637 
L 68.423159 61.431556 
L 68.468635 268.659396 
L 68.590626 151.168612 
L 68.613452 273.747579 
L 68.978045 62.356681 
L 69.385064 266.346585 
L 69.581825 185.860772 
L 69.726909 151.168612 
L 69.742202 188.636145 
L 69.795 133.59125 
L 70.127678 162.732665 
L 70.280649 283.923946 
L 70.349043 261.720964 
L 70.743419 270.047082 
L 70.994755 57.268497 
L 71.366153 226.566241 
L 71.388786 265.884023 
L 71.442064 256.170218 
L 72.053171 252.932283 
L 72.161024 190.486394 
L 72.259128 267.271709 
L 72.412053 61.894119 
L 72.442237 221.94062 
L 72.45724 80.396604 
L 72.646565 60.968994 
L 72.669351 153.481423 
L 73.102585 295.488 
L 73.308795 260.333277 
L 73.578707 275.597828 
L 73.608881 57.268497 
L 73.973707 258.945591 
L 73.99631 183.547962 
L 74.042951 263.571212 
L 74.18738 256.170218 
L 74.323576 181.235151 
L 74.557562 185.39821 
L 74.673095 263.10865 
L 74.710708 234.429797 
L 75.734067 263.571212 
L 76.093303 264.033774 
L 76.184158 274.210141 
L 76.433249 154.406547 
L 77.207034 254.782532 
L 77.840052 262.646088 
L 78.189226 61.894119 
L 78.448942 99.361652 
L 78.479018 247.381537 
L 78.922972 63.281805 
L 79.478636 233.042111 
L 79.773692 175.684405 
L 79.973163 267.271709 
L 80.102617 267.734272 
L 80.141066 85.484788 
L 80.640692 265.884023 
L 81.2052 270.047082 
L 81.417101 145.617866 
L 81.613084 261.258402 
L 81.736478 92.885782 
L 82.037648 270.047082 
L 82.881413 60.968994 
L 83.026972 252.007159 
L 83.951885 63.281805 
L 84.360327 263.571212 
L 84.51132 229.341614 
L 84.548996 173.834157 
L 84.556467 253.394845 
L 84.805971 254.782532 
L 85.255258 256.170218 
L 85.539409 75.770983 
L 85.759696 171.983908 
L 86.202797 207.601193 
L 86.218159 269.58452 
L 86.721923 62.356681 
L 86.827174 268.659396 
L 87.504752 253.394845 
L 87.611212 86.409912 
L 87.672134 195.574577 
L 87.93813 261.720964 
L 87.998511 60.968994 
L 88.277882 252.469721 
L 88.597217 245.993851 
L 88.682276 256.63278 
L 88.689862 293.637751 
L 89.337018 192.799205 
L 89.626261 239.517981 
L 90.178786 264.496337 
L 90.324066 229.341614 
L 90.469347 259.870715 
L 91.346056 60.968994 
L 91.66813 268.659396 
L 91.721825 250.15691 
L 92.366443 263.571212 
L 92.6971 262.646088 
L 92.812358 60.968994 
L 92.835136 144.23018 
L 93.132913 259.870715 
L 93.232549 259.408153 
L 93.607469 259.408153 
L 94.168075 263.10865 
L 94.259868 128.965629 
L 94.917277 149.318363 
L 94.940017 269.121958 
L 95.354763 258.483029 
L 95.536923 59.118746 
L 96.186735 226.103679 
L 96.535395 261.720964 
L 97.298991 258.945591 
L 97.419633 97.973966 
L 97.525642 260.333277 
L 98.236295 206.676069 
L 98.934131 201.587885 
L 98.949222 159.957293 
L 99.167976 60.968994 
L 99.479235 247.844099 
L 100.127511 255.245094 
L 100.157763 265.884023 
L 100.360927 206.676069 
L 100.742281 60.968994 
L 100.76522 62.356681 
L 101.681806 293.175189 
L 101.712166 102.137025 
L 101.988369 261.258402 
L 102.116588 61.431556 
L 102.50954 254.319969 
L 102.671338 60.968994 
L 102.974009 262.646088 
L 103.23074 264.033774 
L 103.473832 268.659396 
L 103.518847 265.421461 
L 104.672888 250.619472 
L 105.154083 57.268497 
L 105.358125 198.812512 
L 105.509069 58.656184 
L 105.606943 60.968994 
L 105.782534 269.58452 
L 106.421575 61.431556 
L 106.640663 60.968994 
L 106.693828 251.544597 
L 106.964504 118.789262 
L 107.196936 266.346585 
L 107.333465 269.121958 
L 107.583478 254.319969 
L 108.376947 76.696107 
L 108.399906 256.170218 
L 108.543211 159.49473 
L 108.974812 262.646088 
L 109.04271 260.333277 
L 109.23114 61.894119 
L 109.668197 60.04387 
L 110.000862 53.568 
L 110.016126 211.30169 
L 110.167249 63.281805 
L 110.456949 126.652818 
L 110.487336 259.408153 
L 111.594714 58.656184 
L 111.655026 259.870715 
L 111.783237 262.183526 
L 112.844733 260.795839 
L 113.116045 234.429797 
L 113.387667 60.968994 
L 114.856551 264.958899 
L 115.457368 260.795839 
L 115.684706 218.702685 
L 116.417318 287.161881 
L 116.677763 251.082034 
L 116.692756 94.273468 
L 116.851681 241.830792 
L 117.116257 60.04387 
L 117.364113 221.015495 
L 117.757193 60.968994 
L 117.865373 256.63278 
L 118.023264 60.506432 
L 118.196214 62.819243 
L 118.567694 178.92234 
L 119.527486 257.095342 
L 119.919161 221.478057 
L 120.070874 255.245094 
L 120.343515 273.747579 
L 121.089082 78.083793 
L 121.26309 103.062149 
L 121.338367 209.451442 
L 121.466378 152.093736 
L 121.918222 62.819243 
L 122.663564 104.449836 
L 122.953132 258.020467 
L 123.506042 165.508038 
L 123.809265 61.431556 
L 123.975954 260.795839 
L 124.144066 60.968994 
L 125.250146 154.406547 
L 125.302832 180.310027 
L 125.671971 60.506432 
L 126.41427 265.421461 
L 126.921642 60.968994 
L 126.996916 145.155304 
L 127.239288 265.884023 
L 127.388406 55.880811 
L 128.414575 150.70605 
L 128.444501 252.932283 
L 128.700149 190.486394 
L 128.768283 268.196834 
L 129.291983 254.319969 
L 129.952895 264.033774 
L 130.051208 128.965629 
L 130.577229 60.968994 
L 131.954676 62.819243 
L 131.992435 234.429797 
L 132.159966 274.672704 
L 132.396341 104.449836 
L 132.449548 271.897331 
L 132.646556 258.945591 
L 132.68464 153.01886 
L 132.912522 165.045476 
L 133.02394 108.150333 
L 133.318783 60.968994 
L 133.500682 157.644482 
L 133.698162 62.819243 
L 133.881394 260.333277 
L 134.304988 85.022226 
L 134.38929 257.095342 
L 136.174129 256.63278 
L 136.257116 60.968994 
L 136.533916 128.040505 
L 136.910807 191.87408 
L 136.972212 175.684405 
L 137.487144 253.857407 
L 137.901428 201.587885 
L 137.924387 252.007159 
L 138.098751 60.968994 
L 138.165781 240.905667 
L 138.355971 262.646088 
L 139.027675 127.11538 
L 139.133629 60.968994 
L 139.285428 230.266738 
L 139.524329 230.266738 
L 139.866226 162.270103 
L 140.152018 233.042111 
L 140.522951 57.268497 
L 141.217839 127.577943 
L 141.847096 115.551327 
L 141.877166 60.04387 
L 142.303463 58.656184 
L 142.547344 159.49473 
L 143.217864 151.631174 
L 144.062872 266.809147 
L 144.093477 258.483029 
L 144.389447 257.095342 
L 144.84581 229.804176 
L 145.004523 53.568 
L 145.264125 264.033774 
L 145.45342 266.346585 
L 146.166412 57.268497 
L 146.45253 60.968994 
L 146.498023 121.564635 
L 147.78662 65.594616 
L 147.824325 256.170218 
L 148.09487 57.268497 
L 148.170768 211.30169 
L 148.74112 60.968994 
L 148.854108 176.60953 
L 148.898025 61.894119 
L 149.176703 252.469721 
L 149.485888 157.644482 
L 149.493583 260.333277 
L 150.039785 60.04387 
L 150.196919 60.968994 
L 150.340182 258.483029 
L 150.529355 60.968994 
L 150.756531 187.248459 
L 151.170782 240.905667 
L 151.675189 213.151939 
L 151.690212 60.04387 
L 151.968603 154.869109 
L 152.037099 233.967235 
L 152.378549 94.273468 
L 152.468457 265.884023 
L 152.520978 113.701078 
L 152.612079 173.371595 
L 152.727419 60.968994 
L 152.862725 258.020467 
L 153.343154 148.855801 
L 153.381081 239.980543 
L 153.811549 59.118746 
L 153.856581 61.894119 
L 154.098248 263.571212 
L 154.173219 257.557904 
L 154.203094 62.356681 
L 154.693091 126.190256 
L 154.791216 95.661155 
L 154.949772 137.75431 
L 154.995155 264.496337 
L 155.757265 57.268497 
L 155.976134 174.296719 
L 156.091132 161.344979 
L 156.642948 60.968994 
L 156.972578 60.968994 
L 156.988054 230.266738 
L 157.003514 58.193621 
L 157.799757 96.586279 
L 157.983418 60.968994 
L 159.177938 60.968994 
L 159.880246 128.040505 
L 160.479477 60.968994 
L 160.751375 60.968994 
L 161.135037 101.211901 
L 161.247873 60.968994 
L 161.482385 60.968994 
L 161.565356 258.020467 
L 161.690661 134.978937 
L 161.985326 293.175189 
L 162.467135 60.968994 
L 162.640957 82.246853 
L 162.961589 60.968994 
L 163.150024 60.506432 
L 163.188026 81.784291 
L 163.631914 250.15691 
L 164.098886 102.137025 
L 164.430985 190.023832 
L 165.005034 197.887388 
L 165.540882 78.546356 
L 166.599251 60.968994 
L 166.915304 74.845859 
L 166.998835 61.894119 
L 167.173553 97.048841 
L 167.385203 60.968994 
L 167.460917 94.273468 
L 167.688825 60.968994 
L 167.878229 204.363258 
L 169.142617 61.894119 
L 169.358249 266.346585 
L 169.569956 57.268497 
L 169.781187 60.968994 
L 170.185902 118.789262 
L 170.32205 60.968994 
L 171.088123 258.483029 
L 171.13315 62.356681 
L 171.328634 62.356681 
L 172.589342 60.968994 
L 172.687288 70.682799 
L 173.145868 60.968994 
L 173.766584 60.968994 
L 174.722093 231.654424 
L 175.652478 245.068727 
L 176.328379 60.968994 
L 177.795319 60.968994 
L 178.201246 241.830792 
L 178.616875 60.968994 
L 178.963271 245.993851 
L 179.197897 60.968994 
L 180.401112 60.968994 
L 181.253127 207.601193 
L 181.509295 60.968994 
L 182.275154 60.968994 
L 182.456346 177.997216 
L 182.694486 60.968994 
L 182.747069 264.033774 
L 183.016794 60.968994 
L 183.534315 257.095342 
L 183.76642 88.260161 
L 183.962678 60.968994 
L 184.136037 61.431556 
L 184.151197 60.968994 
L 184.211523 232.579549 
L 184.602346 60.968994 
L 185.694809 212.226815 
L 186.154813 60.968994 
L 188.053208 60.968994 
L 188.472856 141.917369 
L 189.095824 60.968994 
L 189.852946 220.090371 
L 190.153018 60.968994 
L 190.236104 198.34995 
L 191.003224 57.268497 
L 191.041183 61.431556 
L 191.65656 156.719358 
L 192.106548 60.968994 
L 193.816613 60.968994 
L 194.033755 86.409912 
L 194.754016 60.968994 
L 195.068991 60.968994 
L 195.224504 60.04387 
L 195.315451 57.268497 
L 195.647216 60.968994 
L 196.867025 57.268497 
L 199.141 60.968994 
L 199.504971 60.968994 
L 200.06239 60.506432 
L 200.085081 60.968994 
L 200.18975 57.268497 
L 200.340615 60.968994 
L 200.606585 60.968994 
L 200.781326 257.557904 
L 200.873845 60.968994 
L 201.790927 60.968994 
L 202.428516 106.300084 
L 203.133177 60.968994 
L 204.188665 60.968994 
L 204.226065 62.356681 
L 205.572281 60.968994 
L 206.291551 60.968994 
L 207.131873 61.431556 
L 207.642024 63.281805 
L 207.755255 60.968994 
L 207.800047 215.46475 
L 208.056382 60.968994 
L 208.986335 60.968994 
L 209.183105 191.411518 
L 209.686487 60.968994 
L 212.145074 60.968994 
L 212.758176 81.784291 
L 212.818965 60.968994 
L 213.533256 60.968994 
L 213.814323 61.894119 
L 214.835442 60.968994 
L 215.753116 214.077063 
L 216.14189 60.968994 
L 218.104127 60.968994 
L 218.126897 60.04387 
L 218.637456 60.968994 
L 219.116391 60.968994 
L 219.984353 60.04387 
L 222.154106 60.968994 
L 223.76897 60.968994 
L 224.053935 62.819243 
L 225.960524 63.281805 
L 226.084503 60.968994 
L 226.182274 108.150333 
L 227.166885 60.968994 
L 229.244222 60.968994 
L 229.394559 265.421461 
L 229.45523 63.281805 
L 230.175368 60.968994 
L 233.357629 60.968994 
L 235.248456 61.894119 
L 235.657382 146.54299 
L 235.738787 60.968994 
L 238.18847 60.968994 
L 239.188456 260.795839 
L 239.210954 57.268497 
L 239.614989 254.319969 
L 239.735281 234.429797 
L 239.961025 60.968994 
L 240.583793 180.772589 
L 240.980977 60.968994 
L 244.567402 60.968994 
L 245.167423 57.268497 
L 245.318241 60.968994 
L 245.874547 63.281805 
L 246.002369 60.968994 
L 246.387143 60.968994 
L 246.65691 176.60953 
L 246.694632 60.968994 
L 247.130917 60.968994 
L 247.43178 62.819243 
L 247.98931 60.968994 
L 248.924394 60.968994 
L 249.036166 57.268497 
L 249.186511 60.968994 
L 249.954071 239.055419 
L 250.067064 192.799205 
L 250.547629 238.592857 
L 250.883329 60.968994 
L 251.108635 60.968994 
L 251.222543 61.431556 
L 251.342477 63.281805 
L 251.425563 60.968994 
L 254.693453 60.968994 
L 255.274271 177.997216 
L 256.98046 60.968994 
L 257.117564 61.431556 
L 257.560463 60.506432 
L 258.032932 60.968994 
L 259.993152 60.968994 
L 260.652456 263.571212 
L 261.030172 60.968994 
L 266.153278 60.968994 
L 266.280908 57.268497 
L 266.966091 60.968994 
L 267.889185 57.268497 
L 268.971138 60.968994 
L 270.044499 60.968994 
L 270.285341 233.504673 
L 270.922405 60.968994 
L 271.634092 60.968994 
L 272.280097 125.265132 
L 272.662491 60.968994 
L 273.032255 60.968994 
L 273.383792 61.431556 
L 273.54189 60.968994 
L 274.05393 60.968994 
L 274.816494 60.506432 
L 275.154911 60.968994 
L 276.880594 60.968994 
L 277.581993 239.980543 
L 277.63517 60.968994 
L 280.919562 60.968994 
L 281.154048 198.812512 
L 281.199215 60.968994 
L 281.526238 164.120352 
L 281.624052 60.968994 
L 283.342087 60.968994 
L 283.5519 269.121958 
L 283.709675 89.647847 
L 283.866172 60.968994 
L 285.732369 60.968994 
L 286.122904 266.809147 
L 286.490915 60.968994 
L 287.934056 60.968994 
L 288.457119 241.830792 
L 288.586511 60.968994 
L 291.911519 60.968994 
L 292.405547 161.807541 
L 292.826493 60.968994 
L 292.895088 138.679434 
L 293.57805 60.968994 
L 294.214779 60.968994 
L 294.245087 59.581308 
L 294.865696 60.968994 
L 299.980019 60.968994 
L 300.252789 267.271709 
L 300.321187 60.968994 
L 301.460866 60.968994 
L 301.505564 127.11538 
L 301.520704 61.431556 
L 302.139924 60.968994 
L 302.297251 62.819243 
L 302.68297 60.968994 
L 303.142484 144.692742 
L 303.526956 60.968994 
L 303.541992 103.062149 
L 304.137879 60.968994 
L 305.472911 60.968994 
L 305.480563 265.421461 
L 305.495671 119.251824 
L 305.984369 60.968994 
L 306.193956 60.968994 
L 307.149089 57.268497 
L 308.176952 60.968994 
L 309.857544 60.968994 
L 309.902706 60.04387 
L 309.985647 60.968994 
L 311.0282 57.268497 
L 311.327896 60.968994 
L 314.491312 60.968994 
L 315.613021 85.022226 
L 315.819915 61.431556 
L 316.291522 60.968994 
L 316.934847 60.968994 
L 317.307733 75.308421 
L 317.40524 60.968994 
L 317.831502 60.968994 
L 318.145204 57.268497 
L 318.227674 147.005553 
L 319.128219 60.968994 
L 320.492409 60.968994 
L 320.597604 62.819243 
L 321.931972 135.441499 
L 323.9336 60.968994 
L 324.982904 60.968994 
L 325.101615 183.0854 
L 325.327241 60.968994 
L 325.672361 60.968994 
L 326.100943 61.431556 
L 327.238229 60.968994 
L 332.505935 60.968994 
L 332.619407 61.431556 
L 332.821712 60.968994 
L 333.620972 57.268497 
L 333.651077 128.040505 
L 333.832013 60.968994 
L 333.84716 102.599587 
L 333.913814 60.968994 
L 338.048959 60.968994 
L 338.300615 57.268497 
L 338.474981 60.968994 
L 339.933411 60.968994 
L 339.956205 172.44647 
L 340.106401 60.968994 
L 340.661786 60.968994 
L 341.028225 65.594616 
L 341.590179 60.968994 
L 346.914155 60.968994 
L 347.233432 62.819243 
L 347.418315 60.04387 
L 347.753103 60.968994 
L 354.374849 60.968994 
L 354.803015 97.511403 
L 355.408968 60.968994 
L 356.180687 60.968994 
L 356.971965 92.42322 
L 357.013992 60.968994 
L 357.13008 61.431556 
L 357.6098 61.894119 
L 357.970488 60.968994 
L 363.989283 60.968994 
L 364.922272 165.9706 
L 365.889779 60.968994 
L 366.324435 266.346585 
L 366.687585 60.968994 
L 367.206761 63.281805 
L 367.687336 60.968994 
L 380.277199 60.968994 
L 380.712841 64.669491 
L 380.750685 259.870715 
L 381.216487 146.54299 
L 381.779577 60.968994 
L 389.003467 60.968994 
L 389.179094 62.356681 
L 390.428395 60.968994 
L 390.655809 108.150333 
L 390.915599 60.968994 
L 391.923672 63.281805 
L 392.601374 60.968994 
L 397.401738 60.968994 
L 397.610331 60.506432 
L 397.640204 119.251824 
L 399.215504 57.268497 
L 399.718139 60.968994 
L 402.848775 60.968994 
L 402.923943 60.506432 
L 402.99184 60.968994 
L 402.999562 171.521346 
L 403.217655 60.968994 
L 407.983899 60.968994 
L 408.704759 62.356681 
L 409.081353 95.198593 
L 409.780538 60.968994 
L 410.744752 60.968994 
L 410.804556 90.572971 
L 411.753718 60.968994 
L 412.062524 190.023832 
L 412.115603 60.968994 
L 412.453623 219.165247 
L 413.063906 60.968994 
L 414.546483 60.968994 
L 414.72 192.799205 
L 414.72 192.799205 
" style="fill:none;stroke:#000000;stroke-linecap:square;stroke-width:0.8;"/>
   </g>
   <g id="patch_3">
    <path d="M 57.6 307.584 
L 57.6 41.472 
" style="fill:none;stroke:#000000;stroke-linecap:square;stroke-linejoin:miter;stroke-width:0.8;"/>
   </g>
   <g id="patch_4">
    <path d="M 414.72 307.584 
L 414.72 41.472 
" style="fill:none;stroke:#000000;stroke-linecap:square;stroke-linejoin:miter;stroke-width:0.8;"/>
   </g>
   <g id="patch_5">
    <path d="M 57.6 307.584 
L 414.72 307.584 
" style="fill:none;stroke:#000000;stroke-linecap:square;stroke-linejoin:miter;stroke-width:0.8;"/>
   </g>
   <g id="patch_6">
    <path d="M 57.6 41.472 
L 414.72 41.472 
" style="fill:none;stroke:#000000;stroke-linecap:square;stroke-linejoin:miter;stroke-width:0.8;"/>
   </g>
  </g>
  <g id="axes_2">
   <g id="matplotlib.axis_3">
    <g id="xtick_8">
     <g id="line2d_28">
      <defs>
       <path d="M 0 0 
L 0 -3.5 
" id="m152fdb80df" style="stroke:#000000;stroke-width:0.8;"/>
      </defs>
      <g>
       <use style="stroke:#000000;stroke-width:0.8;" x="57.6" xlink:href="#m152fdb80df" y="41.472"/>
      </g>
     </g>
    </g>
    <g id="xtick_9">
     <g id="line2d_29">
      <g>
       <use style="stroke:#000000;stroke-width:0.8;" x="121.643614" xlink:href="#m152fdb80df" y="41.472"/>
      </g>
     </g>
     <g id="text_16">
      <!-- 5.00K -->
      <defs>
       <path d="M 10.6875 12.40625 
L 21 12.40625 
L 21 0 
L 10.6875 0 
z
" id="DejaVuSans-46"/>
       <path d="M 9.8125 72.90625 
L 19.671875 72.90625 
L 19.671875 42.09375 
L 52.390625 72.90625 
L 65.09375 72.90625 
L 28.90625 38.921875 
L 67.671875 0 
L 54.6875 0 
L 19.671875 35.109375 
L 19.671875 0 
L 9.8125 0 
z
" id="DejaVuSans-75"/>
      </defs>
      <g transform="translate(107.231895 32.392313)scale(0.1 -0.1)">
       <use xlink:href="#DejaVuSans-53"/>
       <use x="63.623047" xlink:href="#DejaVuSans-46"/>
       <use x="95.410156" xlink:href="#DejaVuSans-48"/>
       <use x="159.033203" xlink:href="#DejaVuSans-48"/>
       <use x="222.65625" xlink:href="#DejaVuSans-75"/>
      </g>
     </g>
    </g>
    <g id="xtick_10">
     <g id="line2d_30">
      <g>
       <use style="stroke:#000000;stroke-width:0.8;" x="185.687228" xlink:href="#m152fdb80df" y="41.472"/>
      </g>
     </g>
     <g id="text_17">
      <!-- 10.0K -->
      <g transform="translate(171.275509 32.392313)scale(0.1 -0.1)">
       <use xlink:href="#DejaVuSans-49"/>
       <use x="63.623047" xlink:href="#DejaVuSans-48"/>
       <use x="127.246094" xlink:href="#DejaVuSans-46"/>
       <use x="159.033203" xlink:href="#DejaVuSans-48"/>
       <use x="222.65625" xlink:href="#DejaVuSans-75"/>
      </g>
     </g>
    </g>
    <g id="xtick_11">
     <g id="line2d_31">
      <g>
       <use style="stroke:#000000;stroke-width:0.8;" x="249.730842" xlink:href="#m152fdb80df" y="41.472"/>
      </g>
     </g>
     <g id="text_18">
      <!-- 15.0K -->
      <g transform="translate(235.319123 32.392313)scale(0.1 -0.1)">
       <use xlink:href="#DejaVuSans-49"/>
       <use x="63.623047" xlink:href="#DejaVuSans-53"/>
       <use x="127.246094" xlink:href="#DejaVuSans-46"/>
       <use x="159.033203" xlink:href="#DejaVuSans-48"/>
       <use x="222.65625" xlink:href="#DejaVuSans-75"/>
      </g>
     </g>
    </g>
    <g id="xtick_12">
     <g id="line2d_32">
      <g>
       <use style="stroke:#000000;stroke-width:0.8;" x="313.774456" xlink:href="#m152fdb80df" y="41.472"/>
      </g>
     </g>
     <g id="text_19">
      <!-- 20.0K -->
      <g transform="translate(299.362737 32.392313)scale(0.1 -0.1)">
       <use xlink:href="#DejaVuSans-50"/>
       <use x="63.623047" xlink:href="#DejaVuSans-48"/>
       <use x="127.246094" xlink:href="#DejaVuSans-46"/>
       <use x="159.033203" xlink:href="#DejaVuSans-48"/>
       <use x="222.65625" xlink:href="#DejaVuSans-75"/>
      </g>
     </g>
    </g>
    <g id="xtick_13">
     <g id="line2d_33">
      <g>
       <use style="stroke:#000000;stroke-width:0.8;" x="377.81807" xlink:href="#m152fdb80df" y="41.472"/>
      </g>
     </g>
     <g id="text_20">
      <!-- 25.0K -->
      <g transform="translate(363.406351 32.392313)scale(0.1 -0.1)">
       <use xlink:href="#DejaVuSans-50"/>
       <use x="63.623047" xlink:href="#DejaVuSans-53"/>
       <use x="127.246094" xlink:href="#DejaVuSans-46"/>
       <use x="159.033203" xlink:href="#DejaVuSans-48"/>
       <use x="222.65625" xlink:href="#DejaVuSans-75"/>
      </g>
     </g>
    </g>
    <g id="text_21">
     <!-- Episodes -->
     <defs>
      <path d="M 9.8125 72.90625 
L 55.90625 72.90625 
L 55.90625 64.59375 
L 19.671875 64.59375 
L 19.671875 43.015625 
L 54.390625 43.015625 
L 54.390625 34.71875 
L 19.671875 34.71875 
L 19.671875 8.296875 
L 56.78125 8.296875 
L 56.78125 0 
L 9.8125 0 
z
" id="DejaVuSans-69"/>
      <path d="M 9.421875 54.6875 
L 18.40625 54.6875 
L 18.40625 0 
L 9.421875 0 
z
M 9.421875 75.984375 
L 18.40625 75.984375 
L 18.40625 64.59375 
L 9.421875 64.59375 
z
" id="DejaVuSans-105"/>
      <path d="M 45.40625 46.390625 
L 45.40625 75.984375 
L 54.390625 75.984375 
L 54.390625 0 
L 45.40625 0 
L 45.40625 8.203125 
Q 42.578125 3.328125 38.25 0.953125 
Q 33.9375 -1.421875 27.875 -1.421875 
Q 17.96875 -1.421875 11.734375 6.484375 
Q 5.515625 14.40625 5.515625 27.296875 
Q 5.515625 40.1875 11.734375 48.09375 
Q 17.96875 56 27.875 56 
Q 33.9375 56 38.25 53.625 
Q 42.578125 51.265625 45.40625 46.390625 
z
M 14.796875 27.296875 
Q 14.796875 17.390625 18.875 11.75 
Q 22.953125 6.109375 30.078125 6.109375 
Q 37.203125 6.109375 41.296875 11.75 
Q 45.40625 17.390625 45.40625 27.296875 
Q 45.40625 37.203125 41.296875 42.84375 
Q 37.203125 48.484375 30.078125 48.484375 
Q 22.953125 48.484375 18.875 42.84375 
Q 14.796875 37.203125 14.796875 27.296875 
z
" id="DejaVuSans-100"/>
     </defs>
     <g transform="translate(213.917812 20.793875)scale(0.1 -0.1)">
      <use xlink:href="#DejaVuSans-69"/>
      <use x="63.183594" xlink:href="#DejaVuSans-112"/>
      <use x="126.660156" xlink:href="#DejaVuSans-105"/>
      <use x="154.443359" xlink:href="#DejaVuSans-115"/>
      <use x="206.542969" xlink:href="#DejaVuSans-111"/>
      <use x="267.724609" xlink:href="#DejaVuSans-100"/>
      <use x="331.201172" xlink:href="#DejaVuSans-101"/>
      <use x="392.724609" xlink:href="#DejaVuSans-115"/>
     </g>
    </g>
   </g>
   <g id="patch_7">
    <path d="M 57.6 307.584 
L 57.6 41.472 
" style="fill:none;stroke:#000000;stroke-linecap:square;stroke-linejoin:miter;stroke-width:0.8;"/>
   </g>
   <g id="patch_8">
    <path d="M 414.72 307.584 
L 414.72 41.472 
" style="fill:none;stroke:#000000;stroke-linecap:square;stroke-linejoin:miter;stroke-width:0.8;"/>
   </g>
   <g id="patch_9">
    <path d="M 57.6 307.584 
L 414.72 307.584 
" style="fill:none;stroke:#000000;stroke-linecap:square;stroke-linejoin:miter;stroke-width:0.8;"/>
   </g>
   <g id="patch_10">
    <path d="M 57.6 41.472 
L 414.72 41.472 
" style="fill:none;stroke:#000000;stroke-linecap:square;stroke-linejoin:miter;stroke-width:0.8;"/>
   </g>
  </g>
 </g>
 <defs>
  <clipPath id="p5c60af20ee">
   <rect height="266.112" width="357.12" x="57.6" y="41.472"/>
  </clipPath>
 </defs>
</svg>
