<?xml version="1.0" encoding="utf-8" standalone="no"?>
<!DOCTYPE svg PUBLIC "-//W3C//DTD SVG 1.1//EN"
  "http://www.w3.org/Graphics/SVG/1.1/DTD/svg11.dtd">
<!-- Created with matplotlib (https://matplotlib.org/) -->
<svg height="345.6pt" version="1.1" viewBox="0 0 460.8 345.6" width="460.8pt" xmlns="http://www.w3.org/2000/svg" xmlns:xlink="http://www.w3.org/1999/xlink">
 <defs>
  <style type="text/css">
*{stroke-linecap:butt;stroke-linejoin:round;}
  </style>
 </defs>
 <g id="figure_1">
  <g id="patch_1">
   <path d="M 0 345.6 
L 460.8 345.6 
L 460.8 0 
L 0 0 
z
" style="fill:#ffffff;"/>
  </g>
  <g id="axes_1">
   <g id="patch_2">
    <path d="M 57.6 307.584 
L 414.72 307.584 
L 414.72 41.472 
L 57.6 41.472 
z
" style="fill:#ffffff;"/>
   </g>
   <g id="matplotlib.axis_1">
    <g id="xtick_1">
     <g id="line2d_1">
      <path clip-path="url(#p946eb92296)" d="M 57.6 307.584 
L 57.6 41.472 
" style="fill:none;stroke:#b0b0b0;stroke-linecap:square;stroke-width:0.8;"/>
     </g>
     <g id="line2d_2">
      <defs>
       <path d="M 0 0 
L 0 3.5 
" id="m7474f6e400" style="stroke:#000000;stroke-width:0.8;"/>
      </defs>
      <g>
       <use style="stroke:#000000;stroke-width:0.8;" x="57.6" xlink:href="#m7474f6e400" y="307.584"/>
      </g>
     </g>
     <g id="text_1">
      <!-- 0.0 -->
      <defs>
       <path d="M 31.78125 66.40625 
Q 24.171875 66.40625 20.328125 58.90625 
Q 16.5 51.421875 16.5 36.375 
Q 16.5 21.390625 20.328125 13.890625 
Q 24.171875 6.390625 31.78125 6.390625 
Q 39.453125 6.390625 43.28125 13.890625 
Q 47.125 21.390625 47.125 36.375 
Q 47.125 51.421875 43.28125 58.90625 
Q 39.453125 66.40625 31.78125 66.40625 
z
M 31.78125 74.21875 
Q 44.046875 74.21875 50.515625 64.515625 
Q 56.984375 54.828125 56.984375 36.375 
Q 56.984375 17.96875 50.515625 8.265625 
Q 44.046875 -1.421875 31.78125 -1.421875 
Q 19.53125 -1.421875 13.0625 8.265625 
Q 6.59375 17.96875 6.59375 36.375 
Q 6.59375 54.828125 13.0625 64.515625 
Q 19.53125 74.21875 31.78125 74.21875 
z
" id="DejaVuSans-48"/>
       <path d="M 10.6875 12.40625 
L 21 12.40625 
L 21 0 
L 10.6875 0 
z
" id="DejaVuSans-46"/>
      </defs>
      <g transform="translate(49.648438 322.182437)scale(0.1 -0.1)">
       <use xlink:href="#DejaVuSans-48"/>
       <use x="63.623047" xlink:href="#DejaVuSans-46"/>
       <use x="95.410156" xlink:href="#DejaVuSans-48"/>
      </g>
     </g>
    </g>
    <g id="xtick_2">
     <g id="line2d_3">
      <path clip-path="url(#p946eb92296)" d="M 102.19356 307.584 
L 102.19356 41.472 
" style="fill:none;stroke:#b0b0b0;stroke-linecap:square;stroke-width:0.8;"/>
     </g>
     <g id="line2d_4">
      <g>
       <use style="stroke:#000000;stroke-width:0.8;" x="102.19356" xlink:href="#m7474f6e400" y="307.584"/>
      </g>
     </g>
     <g id="text_2">
      <!-- 2.5 -->
      <defs>
       <path d="M 19.1875 8.296875 
L 53.609375 8.296875 
L 53.609375 0 
L 7.328125 0 
L 7.328125 8.296875 
Q 12.9375 14.109375 22.625 23.890625 
Q 32.328125 33.6875 34.8125 36.53125 
Q 39.546875 41.84375 41.421875 45.53125 
Q 43.3125 49.21875 43.3125 52.78125 
Q 43.3125 58.59375 39.234375 62.25 
Q 35.15625 65.921875 28.609375 65.921875 
Q 23.96875 65.921875 18.8125 64.3125 
Q 13.671875 62.703125 7.8125 59.421875 
L 7.8125 69.390625 
Q 13.765625 71.78125 18.9375 73 
Q 24.125 74.21875 28.421875 74.21875 
Q 39.75 74.21875 46.484375 68.546875 
Q 53.21875 62.890625 53.21875 53.421875 
Q 53.21875 48.921875 51.53125 44.890625 
Q 49.859375 40.875 45.40625 35.40625 
Q 44.1875 33.984375 37.640625 27.21875 
Q 31.109375 20.453125 19.1875 8.296875 
z
" id="DejaVuSans-50"/>
       <path d="M 10.796875 72.90625 
L 49.515625 72.90625 
L 49.515625 64.59375 
L 19.828125 64.59375 
L 19.828125 46.734375 
Q 21.96875 47.46875 24.109375 47.828125 
Q 26.265625 48.1875 28.421875 48.1875 
Q 40.625 48.1875 47.75 41.5 
Q 54.890625 34.8125 54.890625 23.390625 
Q 54.890625 11.625 47.5625 5.09375 
Q 40.234375 -1.421875 26.90625 -1.421875 
Q 22.3125 -1.421875 17.546875 -0.640625 
Q 12.796875 0.140625 7.71875 1.703125 
L 7.71875 11.625 
Q 12.109375 9.234375 16.796875 8.0625 
Q 21.484375 6.890625 26.703125 6.890625 
Q 35.15625 6.890625 40.078125 11.328125 
Q 45.015625 15.765625 45.015625 23.390625 
Q 45.015625 31 40.078125 35.4375 
Q 35.15625 39.890625 26.703125 39.890625 
Q 22.75 39.890625 18.8125 39.015625 
Q 14.890625 38.140625 10.796875 36.28125 
z
" id="DejaVuSans-53"/>
      </defs>
      <g transform="translate(94.241998 322.182437)scale(0.1 -0.1)">
       <use xlink:href="#DejaVuSans-50"/>
       <use x="63.623047" xlink:href="#DejaVuSans-46"/>
       <use x="95.410156" xlink:href="#DejaVuSans-53"/>
      </g>
     </g>
    </g>
    <g id="xtick_3">
     <g id="line2d_5">
      <path clip-path="url(#p946eb92296)" d="M 146.78712 307.584 
L 146.78712 41.472 
" style="fill:none;stroke:#b0b0b0;stroke-linecap:square;stroke-width:0.8;"/>
     </g>
     <g id="line2d_6">
      <g>
       <use style="stroke:#000000;stroke-width:0.8;" x="146.78712" xlink:href="#m7474f6e400" y="307.584"/>
      </g>
     </g>
     <g id="text_3">
      <!-- 5.0 -->
      <g transform="translate(138.835558 322.182437)scale(0.1 -0.1)">
       <use xlink:href="#DejaVuSans-53"/>
       <use x="63.623047" xlink:href="#DejaVuSans-46"/>
       <use x="95.410156" xlink:href="#DejaVuSans-48"/>
      </g>
     </g>
    </g>
    <g id="xtick_4">
     <g id="line2d_7">
      <path clip-path="url(#p946eb92296)" d="M 191.380681 307.584 
L 191.380681 41.472 
" style="fill:none;stroke:#b0b0b0;stroke-linecap:square;stroke-width:0.8;"/>
     </g>
     <g id="line2d_8">
      <g>
       <use style="stroke:#000000;stroke-width:0.8;" x="191.380681" xlink:href="#m7474f6e400" y="307.584"/>
      </g>
     </g>
     <g id="text_4">
      <!-- 7.5 -->
      <defs>
       <path d="M 8.203125 72.90625 
L 55.078125 72.90625 
L 55.078125 68.703125 
L 28.609375 0 
L 18.3125 0 
L 43.21875 64.59375 
L 8.203125 64.59375 
z
" id="DejaVuSans-55"/>
      </defs>
      <g transform="translate(183.429118 322.182437)scale(0.1 -0.1)">
       <use xlink:href="#DejaVuSans-55"/>
       <use x="63.623047" xlink:href="#DejaVuSans-46"/>
       <use x="95.410156" xlink:href="#DejaVuSans-53"/>
      </g>
     </g>
    </g>
    <g id="xtick_5">
     <g id="line2d_9">
      <path clip-path="url(#p946eb92296)" d="M 235.974241 307.584 
L 235.974241 41.472 
" style="fill:none;stroke:#b0b0b0;stroke-linecap:square;stroke-width:0.8;"/>
     </g>
     <g id="line2d_10">
      <g>
       <use style="stroke:#000000;stroke-width:0.8;" x="235.974241" xlink:href="#m7474f6e400" y="307.584"/>
      </g>
     </g>
     <g id="text_5">
      <!-- 10.0 -->
      <defs>
       <path d="M 12.40625 8.296875 
L 28.515625 8.296875 
L 28.515625 63.921875 
L 10.984375 60.40625 
L 10.984375 69.390625 
L 28.421875 72.90625 
L 38.28125 72.90625 
L 38.28125 8.296875 
L 54.390625 8.296875 
L 54.390625 0 
L 12.40625 0 
z
" id="DejaVuSans-49"/>
      </defs>
      <g transform="translate(224.841428 322.182437)scale(0.1 -0.1)">
       <use xlink:href="#DejaVuSans-49"/>
       <use x="63.623047" xlink:href="#DejaVuSans-48"/>
       <use x="127.246094" xlink:href="#DejaVuSans-46"/>
       <use x="159.033203" xlink:href="#DejaVuSans-48"/>
      </g>
     </g>
    </g>
    <g id="xtick_6">
     <g id="line2d_11">
      <path clip-path="url(#p946eb92296)" d="M 280.567801 307.584 
L 280.567801 41.472 
" style="fill:none;stroke:#b0b0b0;stroke-linecap:square;stroke-width:0.8;"/>
     </g>
     <g id="line2d_12">
      <g>
       <use style="stroke:#000000;stroke-width:0.8;" x="280.567801" xlink:href="#m7474f6e400" y="307.584"/>
      </g>
     </g>
     <g id="text_6">
      <!-- 12.5 -->
      <g transform="translate(269.434989 322.182437)scale(0.1 -0.1)">
       <use xlink:href="#DejaVuSans-49"/>
       <use x="63.623047" xlink:href="#DejaVuSans-50"/>
       <use x="127.246094" xlink:href="#DejaVuSans-46"/>
       <use x="159.033203" xlink:href="#DejaVuSans-53"/>
      </g>
     </g>
    </g>
    <g id="xtick_7">
     <g id="line2d_13">
      <path clip-path="url(#p946eb92296)" d="M 325.161361 307.584 
L 325.161361 41.472 
" style="fill:none;stroke:#b0b0b0;stroke-linecap:square;stroke-width:0.8;"/>
     </g>
     <g id="line2d_14">
      <g>
       <use style="stroke:#000000;stroke-width:0.8;" x="325.161361" xlink:href="#m7474f6e400" y="307.584"/>
      </g>
     </g>
     <g id="text_7">
      <!-- 15.0 -->
      <g transform="translate(314.028549 322.182437)scale(0.1 -0.1)">
       <use xlink:href="#DejaVuSans-49"/>
       <use x="63.623047" xlink:href="#DejaVuSans-53"/>
       <use x="127.246094" xlink:href="#DejaVuSans-46"/>
       <use x="159.033203" xlink:href="#DejaVuSans-48"/>
      </g>
     </g>
    </g>
    <g id="xtick_8">
     <g id="line2d_15">
      <path clip-path="url(#p946eb92296)" d="M 369.754922 307.584 
L 369.754922 41.472 
" style="fill:none;stroke:#b0b0b0;stroke-linecap:square;stroke-width:0.8;"/>
     </g>
     <g id="line2d_16">
      <g>
       <use style="stroke:#000000;stroke-width:0.8;" x="369.754922" xlink:href="#m7474f6e400" y="307.584"/>
      </g>
     </g>
     <g id="text_8">
      <!-- 17.5 -->
      <g transform="translate(358.622109 322.182437)scale(0.1 -0.1)">
       <use xlink:href="#DejaVuSans-49"/>
       <use x="63.623047" xlink:href="#DejaVuSans-55"/>
       <use x="127.246094" xlink:href="#DejaVuSans-46"/>
       <use x="159.033203" xlink:href="#DejaVuSans-53"/>
      </g>
     </g>
    </g>
    <g id="xtick_9">
     <g id="line2d_17">
      <path clip-path="url(#p946eb92296)" d="M 414.348482 307.584 
L 414.348482 41.472 
" style="fill:none;stroke:#b0b0b0;stroke-linecap:square;stroke-width:0.8;"/>
     </g>
     <g id="line2d_18">
      <g>
       <use style="stroke:#000000;stroke-width:0.8;" x="414.348482" xlink:href="#m7474f6e400" y="307.584"/>
      </g>
     </g>
     <g id="text_9">
      <!-- 20.0 -->
      <g transform="translate(403.215669 322.182437)scale(0.1 -0.1)">
       <use xlink:href="#DejaVuSans-50"/>
       <use x="63.623047" xlink:href="#DejaVuSans-48"/>
       <use x="127.246094" xlink:href="#DejaVuSans-46"/>
       <use x="159.033203" xlink:href="#DejaVuSans-48"/>
      </g>
     </g>
    </g>
    <g id="text_10">
     <!-- Hours -->
     <defs>
      <path d="M 9.8125 72.90625 
L 19.671875 72.90625 
L 19.671875 43.015625 
L 55.515625 43.015625 
L 55.515625 72.90625 
L 65.375 72.90625 
L 65.375 0 
L 55.515625 0 
L 55.515625 34.71875 
L 19.671875 34.71875 
L 19.671875 0 
L 9.8125 0 
z
" id="DejaVuSans-72"/>
      <path d="M 30.609375 48.390625 
Q 23.390625 48.390625 19.1875 42.75 
Q 14.984375 37.109375 14.984375 27.296875 
Q 14.984375 17.484375 19.15625 11.84375 
Q 23.34375 6.203125 30.609375 6.203125 
Q 37.796875 6.203125 41.984375 11.859375 
Q 46.1875 17.53125 46.1875 27.296875 
Q 46.1875 37.015625 41.984375 42.703125 
Q 37.796875 48.390625 30.609375 48.390625 
z
M 30.609375 56 
Q 42.328125 56 49.015625 48.375 
Q 55.71875 40.765625 55.71875 27.296875 
Q 55.71875 13.875 49.015625 6.21875 
Q 42.328125 -1.421875 30.609375 -1.421875 
Q 18.84375 -1.421875 12.171875 6.21875 
Q 5.515625 13.875 5.515625 27.296875 
Q 5.515625 40.765625 12.171875 48.375 
Q 18.84375 56 30.609375 56 
z
" id="DejaVuSans-111"/>
      <path d="M 8.5 21.578125 
L 8.5 54.6875 
L 17.484375 54.6875 
L 17.484375 21.921875 
Q 17.484375 14.15625 20.5 10.265625 
Q 23.53125 6.390625 29.59375 6.390625 
Q 36.859375 6.390625 41.078125 11.03125 
Q 45.3125 15.671875 45.3125 23.6875 
L 45.3125 54.6875 
L 54.296875 54.6875 
L 54.296875 0 
L 45.3125 0 
L 45.3125 8.40625 
Q 42.046875 3.421875 37.71875 1 
Q 33.40625 -1.421875 27.6875 -1.421875 
Q 18.265625 -1.421875 13.375 4.4375 
Q 8.5 10.296875 8.5 21.578125 
z
M 31.109375 56 
z
" id="DejaVuSans-117"/>
      <path d="M 41.109375 46.296875 
Q 39.59375 47.171875 37.8125 47.578125 
Q 36.03125 48 33.890625 48 
Q 26.265625 48 22.1875 43.046875 
Q 18.109375 38.09375 18.109375 28.8125 
L 18.109375 0 
L 9.078125 0 
L 9.078125 54.6875 
L 18.109375 54.6875 
L 18.109375 46.1875 
Q 20.953125 51.171875 25.484375 53.578125 
Q 30.03125 56 36.53125 56 
Q 37.453125 56 38.578125 55.875 
Q 39.703125 55.765625 41.0625 55.515625 
z
" id="DejaVuSans-114"/>
      <path d="M 44.28125 53.078125 
L 44.28125 44.578125 
Q 40.484375 46.53125 36.375 47.5 
Q 32.28125 48.484375 27.875 48.484375 
Q 21.1875 48.484375 17.84375 46.4375 
Q 14.5 44.390625 14.5 40.28125 
Q 14.5 37.15625 16.890625 35.375 
Q 19.28125 33.59375 26.515625 31.984375 
L 29.59375 31.296875 
Q 39.15625 29.25 43.1875 25.515625 
Q 47.21875 21.78125 47.21875 15.09375 
Q 47.21875 7.46875 41.1875 3.015625 
Q 35.15625 -1.421875 24.609375 -1.421875 
Q 20.21875 -1.421875 15.453125 -0.5625 
Q 10.6875 0.296875 5.421875 2 
L 5.421875 11.28125 
Q 10.40625 8.6875 15.234375 7.390625 
Q 20.0625 6.109375 24.8125 6.109375 
Q 31.15625 6.109375 34.5625 8.28125 
Q 37.984375 10.453125 37.984375 14.40625 
Q 37.984375 18.0625 35.515625 20.015625 
Q 33.0625 21.96875 24.703125 23.78125 
L 21.578125 24.515625 
Q 13.234375 26.265625 9.515625 29.90625 
Q 5.8125 33.546875 5.8125 39.890625 
Q 5.8125 47.609375 11.28125 51.796875 
Q 16.75 56 26.8125 56 
Q 31.78125 56 36.171875 55.265625 
Q 40.578125 54.546875 44.28125 53.078125 
z
" id="DejaVuSans-115"/>
     </defs>
     <g transform="translate(221.511562 335.860562)scale(0.1 -0.1)">
      <use xlink:href="#DejaVuSans-72"/>
      <use x="75.195312" xlink:href="#DejaVuSans-111"/>
      <use x="136.376953" xlink:href="#DejaVuSans-117"/>
      <use x="199.755859" xlink:href="#DejaVuSans-114"/>
      <use x="240.869141" xlink:href="#DejaVuSans-115"/>
     </g>
    </g>
   </g>
   <g id="matplotlib.axis_2">
    <g id="ytick_1">
     <g id="line2d_19">
      <path clip-path="url(#p946eb92296)" d="M 57.6 290.079276 
L 414.72 290.079276 
" style="fill:none;stroke:#b0b0b0;stroke-linecap:square;stroke-width:0.8;"/>
     </g>
     <g id="line2d_20">
      <defs>
       <path d="M 0 0 
L -3.5 0 
" id="m7404e3a715" style="stroke:#000000;stroke-width:0.8;"/>
      </defs>
      <g>
       <use style="stroke:#000000;stroke-width:0.8;" x="57.6" xlink:href="#m7404e3a715" y="290.079276"/>
      </g>
     </g>
     <g id="text_11">
      <!-- 0.5 -->
      <g transform="translate(34.696875 293.878495)scale(0.1 -0.1)">
       <use xlink:href="#DejaVuSans-48"/>
       <use x="63.623047" xlink:href="#DejaVuSans-46"/>
       <use x="95.410156" xlink:href="#DejaVuSans-53"/>
      </g>
     </g>
    </g>
    <g id="ytick_2">
     <g id="line2d_21">
      <path clip-path="url(#p946eb92296)" d="M 57.6 256.585608 
L 414.72 256.585608 
" style="fill:none;stroke:#b0b0b0;stroke-linecap:square;stroke-width:0.8;"/>
     </g>
     <g id="line2d_22">
      <g>
       <use style="stroke:#000000;stroke-width:0.8;" x="57.6" xlink:href="#m7404e3a715" y="256.585608"/>
      </g>
     </g>
     <g id="text_12">
      <!-- 1.0 -->
      <g transform="translate(34.696875 260.384827)scale(0.1 -0.1)">
       <use xlink:href="#DejaVuSans-49"/>
       <use x="63.623047" xlink:href="#DejaVuSans-46"/>
       <use x="95.410156" xlink:href="#DejaVuSans-48"/>
      </g>
     </g>
    </g>
    <g id="ytick_3">
     <g id="line2d_23">
      <path clip-path="url(#p946eb92296)" d="M 57.6 223.09194 
L 414.72 223.09194 
" style="fill:none;stroke:#b0b0b0;stroke-linecap:square;stroke-width:0.8;"/>
     </g>
     <g id="line2d_24">
      <g>
       <use style="stroke:#000000;stroke-width:0.8;" x="57.6" xlink:href="#m7404e3a715" y="223.09194"/>
      </g>
     </g>
     <g id="text_13">
      <!-- 1.5 -->
      <g transform="translate(34.696875 226.891159)scale(0.1 -0.1)">
       <use xlink:href="#DejaVuSans-49"/>
       <use x="63.623047" xlink:href="#DejaVuSans-46"/>
       <use x="95.410156" xlink:href="#DejaVuSans-53"/>
      </g>
     </g>
    </g>
    <g id="ytick_4">
     <g id="line2d_25">
      <path clip-path="url(#p946eb92296)" d="M 57.6 189.598272 
L 414.72 189.598272 
" style="fill:none;stroke:#b0b0b0;stroke-linecap:square;stroke-width:0.8;"/>
     </g>
     <g id="line2d_26">
      <g>
       <use style="stroke:#000000;stroke-width:0.8;" x="57.6" xlink:href="#m7404e3a715" y="189.598272"/>
      </g>
     </g>
     <g id="text_14">
      <!-- 2.0 -->
      <g transform="translate(34.696875 193.39749)scale(0.1 -0.1)">
       <use xlink:href="#DejaVuSans-50"/>
       <use x="63.623047" xlink:href="#DejaVuSans-46"/>
       <use x="95.410156" xlink:href="#DejaVuSans-48"/>
      </g>
     </g>
    </g>
    <g id="ytick_5">
     <g id="line2d_27">
      <path clip-path="url(#p946eb92296)" d="M 57.6 156.104603 
L 414.72 156.104603 
" style="fill:none;stroke:#b0b0b0;stroke-linecap:square;stroke-width:0.8;"/>
     </g>
     <g id="line2d_28">
      <g>
       <use style="stroke:#000000;stroke-width:0.8;" x="57.6" xlink:href="#m7404e3a715" y="156.104603"/>
      </g>
     </g>
     <g id="text_15">
      <!-- 2.5 -->
      <g transform="translate(34.696875 159.903822)scale(0.1 -0.1)">
       <use xlink:href="#DejaVuSans-50"/>
       <use x="63.623047" xlink:href="#DejaVuSans-46"/>
       <use x="95.410156" xlink:href="#DejaVuSans-53"/>
      </g>
     </g>
    </g>
    <g id="ytick_6">
     <g id="line2d_29">
      <path clip-path="url(#p946eb92296)" d="M 57.6 122.610935 
L 414.72 122.610935 
" style="fill:none;stroke:#b0b0b0;stroke-linecap:square;stroke-width:0.8;"/>
     </g>
     <g id="line2d_30">
      <g>
       <use style="stroke:#000000;stroke-width:0.8;" x="57.6" xlink:href="#m7404e3a715" y="122.610935"/>
      </g>
     </g>
     <g id="text_16">
      <!-- 3.0 -->
      <defs>
       <path d="M 40.578125 39.3125 
Q 47.65625 37.796875 51.625 33 
Q 55.609375 28.21875 55.609375 21.1875 
Q 55.609375 10.40625 48.1875 4.484375 
Q 40.765625 -1.421875 27.09375 -1.421875 
Q 22.515625 -1.421875 17.65625 -0.515625 
Q 12.796875 0.390625 7.625 2.203125 
L 7.625 11.71875 
Q 11.71875 9.328125 16.59375 8.109375 
Q 21.484375 6.890625 26.8125 6.890625 
Q 36.078125 6.890625 40.9375 10.546875 
Q 45.796875 14.203125 45.796875 21.1875 
Q 45.796875 27.640625 41.28125 31.265625 
Q 36.765625 34.90625 28.71875 34.90625 
L 20.21875 34.90625 
L 20.21875 43.015625 
L 29.109375 43.015625 
Q 36.375 43.015625 40.234375 45.921875 
Q 44.09375 48.828125 44.09375 54.296875 
Q 44.09375 59.90625 40.109375 62.90625 
Q 36.140625 65.921875 28.71875 65.921875 
Q 24.65625 65.921875 20.015625 65.03125 
Q 15.375 64.15625 9.8125 62.3125 
L 9.8125 71.09375 
Q 15.4375 72.65625 20.34375 73.4375 
Q 25.25 74.21875 29.59375 74.21875 
Q 40.828125 74.21875 47.359375 69.109375 
Q 53.90625 64.015625 53.90625 55.328125 
Q 53.90625 49.265625 50.4375 45.09375 
Q 46.96875 40.921875 40.578125 39.3125 
z
" id="DejaVuSans-51"/>
      </defs>
      <g transform="translate(34.696875 126.410154)scale(0.1 -0.1)">
       <use xlink:href="#DejaVuSans-51"/>
       <use x="63.623047" xlink:href="#DejaVuSans-46"/>
       <use x="95.410156" xlink:href="#DejaVuSans-48"/>
      </g>
     </g>
    </g>
    <g id="ytick_7">
     <g id="line2d_31">
      <path clip-path="url(#p946eb92296)" d="M 57.6 89.117267 
L 414.72 89.117267 
" style="fill:none;stroke:#b0b0b0;stroke-linecap:square;stroke-width:0.8;"/>
     </g>
     <g id="line2d_32">
      <g>
       <use style="stroke:#000000;stroke-width:0.8;" x="57.6" xlink:href="#m7404e3a715" y="89.117267"/>
      </g>
     </g>
     <g id="text_17">
      <!-- 3.5 -->
      <g transform="translate(34.696875 92.916486)scale(0.1 -0.1)">
       <use xlink:href="#DejaVuSans-51"/>
       <use x="63.623047" xlink:href="#DejaVuSans-46"/>
       <use x="95.410156" xlink:href="#DejaVuSans-53"/>
      </g>
     </g>
    </g>
    <g id="ytick_8">
     <g id="line2d_33">
      <path clip-path="url(#p946eb92296)" d="M 57.6 55.623599 
L 414.72 55.623599 
" style="fill:none;stroke:#b0b0b0;stroke-linecap:square;stroke-width:0.8;"/>
     </g>
     <g id="line2d_34">
      <g>
       <use style="stroke:#000000;stroke-width:0.8;" x="57.6" xlink:href="#m7404e3a715" y="55.623599"/>
      </g>
     </g>
     <g id="text_18">
      <!-- 4.0 -->
      <defs>
       <path d="M 37.796875 64.3125 
L 12.890625 25.390625 
L 37.796875 25.390625 
z
M 35.203125 72.90625 
L 47.609375 72.90625 
L 47.609375 25.390625 
L 58.015625 25.390625 
L 58.015625 17.1875 
L 47.609375 17.1875 
L 47.609375 0 
L 37.796875 0 
L 37.796875 17.1875 
L 4.890625 17.1875 
L 4.890625 26.703125 
z
" id="DejaVuSans-52"/>
      </defs>
      <g transform="translate(34.696875 59.422818)scale(0.1 -0.1)">
       <use xlink:href="#DejaVuSans-52"/>
       <use x="63.623047" xlink:href="#DejaVuSans-46"/>
       <use x="95.410156" xlink:href="#DejaVuSans-48"/>
      </g>
     </g>
    </g>
    <g id="text_19">
     <!-- Extrinsic reference -->
     <defs>
      <path d="M 9.8125 72.90625 
L 55.90625 72.90625 
L 55.90625 64.59375 
L 19.671875 64.59375 
L 19.671875 43.015625 
L 54.390625 43.015625 
L 54.390625 34.71875 
L 19.671875 34.71875 
L 19.671875 8.296875 
L 56.78125 8.296875 
L 56.78125 0 
L 9.8125 0 
z
" id="DejaVuSans-69"/>
      <path d="M 54.890625 54.6875 
L 35.109375 28.078125 
L 55.90625 0 
L 45.3125 0 
L 29.390625 21.484375 
L 13.484375 0 
L 2.875 0 
L 24.125 28.609375 
L 4.6875 54.6875 
L 15.28125 54.6875 
L 29.78125 35.203125 
L 44.28125 54.6875 
z
" id="DejaVuSans-120"/>
      <path d="M 18.3125 70.21875 
L 18.3125 54.6875 
L 36.8125 54.6875 
L 36.8125 47.703125 
L 18.3125 47.703125 
L 18.3125 18.015625 
Q 18.3125 11.328125 20.140625 9.421875 
Q 21.96875 7.515625 27.59375 7.515625 
L 36.8125 7.515625 
L 36.8125 0 
L 27.59375 0 
Q 17.1875 0 13.234375 3.875 
Q 9.28125 7.765625 9.28125 18.015625 
L 9.28125 47.703125 
L 2.6875 47.703125 
L 2.6875 54.6875 
L 9.28125 54.6875 
L 9.28125 70.21875 
z
" id="DejaVuSans-116"/>
      <path d="M 9.421875 54.6875 
L 18.40625 54.6875 
L 18.40625 0 
L 9.421875 0 
z
M 9.421875 75.984375 
L 18.40625 75.984375 
L 18.40625 64.59375 
L 9.421875 64.59375 
z
" id="DejaVuSans-105"/>
      <path d="M 54.890625 33.015625 
L 54.890625 0 
L 45.90625 0 
L 45.90625 32.71875 
Q 45.90625 40.484375 42.875 44.328125 
Q 39.84375 48.1875 33.796875 48.1875 
Q 26.515625 48.1875 22.3125 43.546875 
Q 18.109375 38.921875 18.109375 30.90625 
L 18.109375 0 
L 9.078125 0 
L 9.078125 54.6875 
L 18.109375 54.6875 
L 18.109375 46.1875 
Q 21.34375 51.125 25.703125 53.5625 
Q 30.078125 56 35.796875 56 
Q 45.21875 56 50.046875 50.171875 
Q 54.890625 44.34375 54.890625 33.015625 
z
" id="DejaVuSans-110"/>
      <path d="M 48.78125 52.59375 
L 48.78125 44.1875 
Q 44.96875 46.296875 41.140625 47.34375 
Q 37.3125 48.390625 33.40625 48.390625 
Q 24.65625 48.390625 19.8125 42.84375 
Q 14.984375 37.3125 14.984375 27.296875 
Q 14.984375 17.28125 19.8125 11.734375 
Q 24.65625 6.203125 33.40625 6.203125 
Q 37.3125 6.203125 41.140625 7.25 
Q 44.96875 8.296875 48.78125 10.40625 
L 48.78125 2.09375 
Q 45.015625 0.34375 40.984375 -0.53125 
Q 36.96875 -1.421875 32.421875 -1.421875 
Q 20.0625 -1.421875 12.78125 6.34375 
Q 5.515625 14.109375 5.515625 27.296875 
Q 5.515625 40.671875 12.859375 48.328125 
Q 20.21875 56 33.015625 56 
Q 37.15625 56 41.109375 55.140625 
Q 45.0625 54.296875 48.78125 52.59375 
z
" id="DejaVuSans-99"/>
      <path id="DejaVuSans-32"/>
      <path d="M 56.203125 29.59375 
L 56.203125 25.203125 
L 14.890625 25.203125 
Q 15.484375 15.921875 20.484375 11.0625 
Q 25.484375 6.203125 34.421875 6.203125 
Q 39.59375 6.203125 44.453125 7.46875 
Q 49.3125 8.734375 54.109375 11.28125 
L 54.109375 2.78125 
Q 49.265625 0.734375 44.1875 -0.34375 
Q 39.109375 -1.421875 33.890625 -1.421875 
Q 20.796875 -1.421875 13.15625 6.1875 
Q 5.515625 13.8125 5.515625 26.8125 
Q 5.515625 40.234375 12.765625 48.109375 
Q 20.015625 56 32.328125 56 
Q 43.359375 56 49.78125 48.890625 
Q 56.203125 41.796875 56.203125 29.59375 
z
M 47.21875 32.234375 
Q 47.125 39.59375 43.09375 43.984375 
Q 39.0625 48.390625 32.421875 48.390625 
Q 24.90625 48.390625 20.390625 44.140625 
Q 15.875 39.890625 15.1875 32.171875 
z
" id="DejaVuSans-101"/>
      <path d="M 37.109375 75.984375 
L 37.109375 68.5 
L 28.515625 68.5 
Q 23.6875 68.5 21.796875 66.546875 
Q 19.921875 64.59375 19.921875 59.515625 
L 19.921875 54.6875 
L 34.71875 54.6875 
L 34.71875 47.703125 
L 19.921875 47.703125 
L 19.921875 0 
L 10.890625 0 
L 10.890625 47.703125 
L 2.296875 47.703125 
L 2.296875 54.6875 
L 10.890625 54.6875 
L 10.890625 58.5 
Q 10.890625 67.625 15.140625 71.796875 
Q 19.390625 75.984375 28.609375 75.984375 
z
" id="DejaVuSans-102"/>
     </defs>
     <g transform="translate(28.617187 221.644406)rotate(-90)scale(0.1 -0.1)">
      <use xlink:href="#DejaVuSans-69"/>
      <use x="63.183594" xlink:href="#DejaVuSans-120"/>
      <use x="122.363281" xlink:href="#DejaVuSans-116"/>
      <use x="161.572266" xlink:href="#DejaVuSans-114"/>
      <use x="202.685547" xlink:href="#DejaVuSans-105"/>
      <use x="230.46875" xlink:href="#DejaVuSans-110"/>
      <use x="293.847656" xlink:href="#DejaVuSans-115"/>
      <use x="345.947266" xlink:href="#DejaVuSans-105"/>
      <use x="373.730469" xlink:href="#DejaVuSans-99"/>
      <use x="428.710938" xlink:href="#DejaVuSans-32"/>
      <use x="460.498047" xlink:href="#DejaVuSans-114"/>
      <use x="501.580078" xlink:href="#DejaVuSans-101"/>
      <use x="563.103516" xlink:href="#DejaVuSans-102"/>
      <use x="598.308594" xlink:href="#DejaVuSans-101"/>
      <use x="659.832031" xlink:href="#DejaVuSans-114"/>
      <use x="700.914062" xlink:href="#DejaVuSans-101"/>
      <use x="762.4375" xlink:href="#DejaVuSans-110"/>
      <use x="825.816406" xlink:href="#DejaVuSans-99"/>
      <use x="880.796875" xlink:href="#DejaVuSans-101"/>
     </g>
    </g>
   </g>
   <g id="line2d_35">
    <path clip-path="url(#p946eb92296)" d="M 57.6 289.599343 
L 58.386875 257.106683 
L 59.165185 264.176605 
L 59.947697 266.048225 
L 60.731758 253.453882 
L 61.516499 285.198627 
L 62.299404 252.308352 
L 63.083808 269.423518 
L 63.85097 266.53186 
L 64.637647 261.079547 
L 65.414903 275.614215 
L 66.195003 244.409953 
L 66.971239 243.027238 
L 67.748822 295.488 
L 68.526222 248.607011 
L 69.313066 251.337833 
L 70.091784 277.226985 
L 70.868741 243.332356 
L 71.655225 263.216526 
L 72.426678 268.859317 
L 73.207191 266.918654 
L 73.987537 254.548009 
L 74.764978 260.13978 
L 75.542447 242.12394 
L 76.321046 263.061396 
L 77.100616 252.87177 
L 77.884936 272.59094 
L 78.663537 205.699573 
L 79.429934 248.906787 
L 80.20912 256.960177 
L 80.995433 251.165984 
L 81.78877 242.718174 
L 82.572548 242.080044 
L 83.353295 234.772685 
L 84.134602 269.882717 
L 84.913612 231.293844 
L 85.689932 241.354488 
L 86.47712 265.800738 
L 87.265226 241.758356 
L 88.052708 241.023169 
L 88.840241 256.086082 
L 89.63596 218.219012 
L 90.404658 229.697484 
L 91.195923 236.496022 
L 91.981651 249.589612 
L 92.762118 235.069427 
L 93.54927 253.566965 
L 94.318088 226.716508 
L 95.112126 260.069188 
L 95.895733 238.005795 
L 96.680086 240.507992 
L 97.45937 245.304203 
L 98.2487 264.746694 
L 99.808313 208.199949 
L 100.601677 271.097948 
L 101.389412 233.771964 
L 102.173948 261.038582 
L 102.951955 231.408883 
L 103.750397 238.44099 
L 104.551852 256.476933 
L 105.359297 256.51425 
L 106.969634 224.612493 
L 107.754469 233.176732 
L 108.536582 196.399214 
L 109.330073 249.593286 
L 110.103431 239.732088 
L 110.880309 234.851262 
L 111.67646 265.99687 
L 112.45944 244.529273 
L 113.242299 202.504809 
L 114.036917 238.753399 
L 114.822266 249.817742 
L 115.605679 221.010468 
L 116.390069 226.253987 
L 117.184206 261.331071 
L 117.961883 264.519399 
L 118.747687 240.813518 
L 119.531504 209.436681 
L 120.315826 266.747365 
L 121.103763 240.240206 
L 121.896253 220.268295 
L 122.682795 248.842759 
L 123.463173 270.626671 
L 124.246717 253.493729 
L 125.031356 239.341173 
L 125.811971 244.444498 
L 126.598626 217.66917 
L 127.390649 241.086031 
L 128.173388 256.359235 
L 128.955603 223.455824 
L 129.743014 198.66983 
L 130.514473 250.356293 
L 131.298848 251.382839 
L 132.095318 255.479263 
L 132.879889 257.857289 
L 133.667405 261.210985 
L 134.450185 237.839665 
L 135.243555 227.470285 
L 136.016706 236.453571 
L 136.811256 212.807111 
L 137.596636 250.309267 
L 138.383162 263.039436 
L 139.16179 241.179685 
L 139.948379 239.377132 
L 140.748261 264.196752 
L 141.542479 246.391622 
L 142.350197 222.170332 
L 143.191432 236.561695 
L 144.035569 207.394402 
L 144.873563 208.865725 
L 145.697084 236.224068 
L 146.499581 278.924753 
L 147.312383 215.493565 
L 148.127254 239.064467 
L 148.951641 249.563611 
L 149.74507 271.855274 
L 150.52409 213.316658 
L 151.311887 230.091074 
L 152.091607 250.829954 
L 152.871322 252.960185 
L 153.650151 240.381358 
L 154.431988 267.283915 
L 155.229811 270.05518 
L 156.025452 244.791772 
L 156.831499 239.276857 
L 157.622886 238.982583 
L 158.407842 229.104744 
L 159.197807 214.749842 
L 159.98138 209.937596 
L 160.772019 267.651576 
L 161.565594 254.634045 
L 162.366411 258.552081 
L 163.15942 252.355379 
L 163.946526 221.959658 
L 164.739325 242.647295 
L 165.527451 230.086363 
L 166.313915 256.986717 
L 167.109639 224.081297 
L 167.884527 223.52402 
L 168.67556 233.384643 
L 169.461369 225.701086 
L 170.244937 223.560642 
L 171.025204 209.134398 
L 171.806909 266.900263 
L 172.587078 242.727733 
L 173.379962 224.59879 
L 174.162335 203.598081 
L 174.940158 197.222296 
L 175.725835 220.647159 
L 176.520199 213.515681 
L 177.304163 246.806302 
L 178.092056 261.479035 
L 178.902298 203.030535 
L 179.702822 272.849111 
L 180.507586 238.295366 
L 181.311578 272.106666 
L 182.094587 241.355079 
L 182.875744 253.471713 
L 183.65587 193.500217 
L 184.43713 216.579619 
L 185.228301 280.407818 
L 186.009519 228.868101 
L 186.788872 245.443949 
L 187.578073 227.773103 
L 189.130487 269.244854 
L 189.912627 244.236875 
L 190.693795 276.763354 
L 191.472222 259.767591 
L 192.250402 229.338783 
L 193.041705 270.745915 
L 193.845412 213.67603 
L 194.647088 227.836836 
L 195.460197 277.592298 
L 196.237504 264.653424 
L 197.029233 216.888498 
L 197.809587 212.641124 
L 198.588421 238.760858 
L 199.368265 251.250591 
L 200.161058 233.206343 
L 200.939662 268.544792 
L 201.720429 217.539158 
L 202.507709 209.65554 
L 203.285852 251.261419 
L 204.064541 237.119555 
L 204.852025 225.693652 
L 205.638296 227.069173 
L 206.429458 231.44834 
L 207.221472 261.193245 
L 208.008066 268.366815 
L 208.798879 242.012399 
L 209.597466 220.404711 
L 210.380663 213.226206 
L 211.173932 271.285029 
L 211.955287 196.965019 
L 212.737704 224.060567 
L 213.528387 263.127744 
L 215.091027 180.866561 
L 215.8803 202.82811 
L 216.660225 240.594108 
L 217.442482 195.155494 
L 218.232179 254.348626 
L 219.012699 189.193518 
L 219.795246 207.775135 
L 220.583117 173.274606 
L 221.362429 227.355565 
L 222.142372 174.284071 
L 222.929502 189.576455 
L 223.706767 218.256792 
L 224.488053 255.707625 
L 225.259877 182.735985 
L 226.049252 213.924571 
L 226.828784 160.438245 
L 227.611538 146.152898 
L 228.402262 206.450962 
L 229.1833 211.416489 
L 229.965554 193.103017 
L 230.753484 162.329822 
L 231.534958 207.971635 
L 232.317318 175.807802 
L 233.10606 149.667418 
L 233.883874 187.821303 
L 234.66259 211.260908 
L 235.445879 264.728739 
L 236.238215 257.438752 
L 237.018695 110.134658 
L 237.800864 121.521584 
L 238.581305 246.399328 
L 239.360612 143.513814 
L 240.147483 170.810117 
L 240.933493 166.831032 
L 241.729616 156.610039 
L 242.533996 103.165062 
L 243.330404 235.83927 
L 244.115965 161.980599 
L 244.883346 182.534016 
L 245.672886 117.777224 
L 246.444058 151.215521 
L 247.231431 230.928595 
L 248.012036 165.95237 
L 248.792543 152.854596 
L 249.581856 101.875114 
L 250.369435 121.659541 
L 251.157304 152.863699 
L 251.954914 67.522668 
L 252.738031 122.798882 
L 253.517024 139.035953 
L 254.299874 183.485394 
L 255.090319 162.299637 
L 255.870408 152.432897 
L 256.646078 213.115264 
L 257.436088 180.877118 
L 258.207653 200.877281 
L 258.989835 241.12211 
L 259.781819 126.548112 
L 260.565042 170.999038 
L 261.348041 126.63878 
L 262.135353 137.649173 
L 262.906096 90.98642 
L 263.686881 157.714994 
L 264.475769 137.143195 
L 265.279105 165.269896 
L 266.078605 122.962905 
L 266.891468 228.61048 
L 267.686189 222.634682 
L 268.467116 215.06059 
L 269.248336 221.967708 
L 270.038362 109.850134 
L 270.817878 219.744285 
L 271.599417 175.153342 
L 272.389124 160.942067 
L 273.168314 141.306522 
L 273.94874 211.716497 
L 274.737559 138.8757 
L 275.518304 147.921896 
L 276.2974 109.140844 
L 277.087099 230.700888 
L 277.868413 96.254958 
L 278.648076 105.286541 
L 279.422624 201.236518 
L 280.195475 222.187309 
L 280.97573 202.756959 
L 281.764603 207.129794 
L 282.545717 124.257069 
L 283.323315 131.426079 
L 284.105409 149.262568 
L 284.884548 246.564125 
L 285.673053 93.187627 
L 286.47229 93.244036 
L 287.262331 96.181922 
L 288.050761 177.999666 
L 288.84467 198.599781 
L 289.626226 97.896955 
L 290.407451 182.297932 
L 291.180635 138.339664 
L 291.980346 74.521251 
L 292.765223 91.573068 
L 293.560547 240.561711 
L 294.349316 135.849223 
L 295.130903 134.114833 
L 295.918801 134.188683 
L 296.69856 94.041885 
L 297.478746 149.796895 
L 299.035179 110.605579 
L 299.822294 112.545276 
L 300.600375 133.419502 
L 301.370475 91.941551 
L 302.158521 108.454346 
L 302.937469 111.626319 
L 303.721687 120.222389 
L 304.509864 116.490854 
L 305.288574 213.128288 
L 306.070481 141.086313 
L 306.86306 122.513847 
L 307.64603 82.313051 
L 308.416244 80.780615 
L 309.208127 211.181627 
L 309.995249 210.628455 
L 310.783299 186.947177 
L 311.577028 254.009977 
L 312.361089 115.817053 
L 313.140908 166.25566 
L 313.931944 126.97259 
L 314.715503 82.465271 
L 315.508702 82.607349 
L 316.317064 226.161108 
L 317.107917 89.326679 
L 317.897332 177.147548 
L 318.686298 94.647794 
L 319.459053 64.333589 
L 320.240963 189.940395 
L 321.030548 128.200922 
L 321.80984 102.24545 
L 322.580373 223.163618 
L 323.358463 164.156268 
L 324.137117 204.861078 
L 324.926696 85.406112 
L 325.707059 138.282855 
L 326.487086 224.590853 
L 327.27558 111.638952 
L 328.050894 112.725334 
L 328.831619 168.044542 
L 329.623075 77.211506 
L 330.411252 228.784477 
L 331.206925 127.910537 
L 332.011285 131.156025 
L 332.798315 114.936937 
L 333.602465 217.64685 
L 334.414002 91.938581 
L 335.219115 202.999647 
L 336.021843 131.28678 
L 336.818222 104.145922 
L 337.611858 131.2974 
L 338.40687 125.023359 
L 339.204497 219.455633 
L 339.989596 95.807993 
L 340.778491 113.671281 
L 341.575561 95.37842 
L 342.372851 178.93889 
L 343.171915 166.993297 
L 343.981982 157.797021 
L 344.777591 125.294099 
L 345.5597 137.449839 
L 346.35173 77.324964 
L 347.134143 137.118312 
L 347.917652 120.908584 
L 348.71161 122.960397 
L 349.498136 131.206174 
L 350.283554 99.875222 
L 351.079372 87.353523 
L 351.866309 174.31729 
L 352.653231 188.650918 
L 353.465696 104.135365 
L 354.256526 82.098033 
L 355.030871 79.00665 
L 355.818064 147.977332 
L 356.599216 59.676502 
L 357.370605 63.338211 
L 358.158965 77.731938 
L 358.938872 68.433799 
L 359.727212 91.591275 
L 360.539159 156.202825 
L 361.342275 206.916493 
L 362.136758 114.823623 
L 363.713567 65.522393 
L 364.492994 57.014164 
L 366.058279 131.347246 
L 366.829141 148.478982 
L 367.618357 181.435848 
L 368.397195 205.31309 
L 369.179217 179.58931 
L 369.960567 87.046336 
L 370.740691 96.965764 
L 371.522503 134.944847 
L 372.314361 128.234812 
L 373.095055 203.13612 
L 373.879894 138.721643 
L 374.660599 99.526974 
L 375.441407 148.708262 
L 376.231381 137.807701 
L 377.011523 94.457403 
L 377.798311 114.578659 
L 378.597284 84.910946 
L 379.384105 74.780109 
L 380.175 170.830464 
L 380.966786 219.280407 
L 381.747938 107.644487 
L 382.519842 201.97917 
L 383.311137 104.597647 
L 384.090228 62.422736 
L 384.871698 153.807523 
L 385.661884 164.551679 
L 387.230909 60.549351 
L 388.016908 62.890543 
L 388.803649 129.24918 
L 389.586517 82.839616 
L 390.372677 160.724861 
L 391.144983 148.72056 
L 391.924108 133.41888 
L 392.714961 201.629261 
L 393.497007 65.006305 
L 394.278177 128.499516 
L 395.067984 143.294499 
L 395.858502 78.207188 
L 396.649885 123.35445 
L 397.45053 76.122618 
L 398.240881 165.3605 
L 399.02179 111.607218 
L 399.811348 126.498107 
L 400.593202 202.110915 
L 401.377589 166.792621 
L 402.175573 154.557267 
L 402.973141 68.312355 
L 403.769479 174.809709 
L 404.556506 81.868817 
L 405.345577 150.863711 
L 406.122222 208.885824 
L 406.892956 53.568 
L 407.679029 110.284993 
L 408.458719 113.471356 
L 409.241077 118.822879 
L 410.027598 219.338054 
L 410.809432 79.929072 
L 411.580144 88.959106 
L 412.368975 93.188122 
L 413.149439 82.03343 
L 413.930019 84.18337 
L 414.72 131.803602 
L 414.72 131.803602 
" style="fill:none;stroke:#000000;stroke-linecap:square;stroke-width:0.8;"/>
   </g>
   <g id="patch_3">
    <path d="M 57.6 307.584 
L 57.6 41.472 
" style="fill:none;stroke:#000000;stroke-linecap:square;stroke-linejoin:miter;stroke-width:0.8;"/>
   </g>
   <g id="patch_4">
    <path d="M 414.72 307.584 
L 414.72 41.472 
" style="fill:none;stroke:#000000;stroke-linecap:square;stroke-linejoin:miter;stroke-width:0.8;"/>
   </g>
   <g id="patch_5">
    <path d="M 57.6 307.584 
L 414.72 307.584 
" style="fill:none;stroke:#000000;stroke-linecap:square;stroke-linejoin:miter;stroke-width:0.8;"/>
   </g>
   <g id="patch_6">
    <path d="M 57.6 41.472 
L 414.72 41.472 
" style="fill:none;stroke:#000000;stroke-linecap:square;stroke-linejoin:miter;stroke-width:0.8;"/>
   </g>
  </g>
  <g id="axes_2">
   <g id="matplotlib.axis_3">
    <g id="xtick_10">
     <g id="line2d_36">
      <defs>
       <path d="M 0 0 
L 0 -3.5 
" id="mc9f1e82e23" style="stroke:#000000;stroke-width:0.8;"/>
      </defs>
      <g>
       <use style="stroke:#000000;stroke-width:0.8;" x="57.6" xlink:href="#mc9f1e82e23" y="41.472"/>
      </g>
     </g>
    </g>
    <g id="xtick_11">
     <g id="line2d_37">
      <g>
       <use style="stroke:#000000;stroke-width:0.8;" x="136.087912" xlink:href="#mc9f1e82e23" y="41.472"/>
      </g>
     </g>
     <g id="text_20">
      <!-- 100K -->
      <defs>
       <path d="M 9.8125 72.90625 
L 19.671875 72.90625 
L 19.671875 42.09375 
L 52.390625 72.90625 
L 65.09375 72.90625 
L 28.90625 38.921875 
L 67.671875 0 
L 54.6875 0 
L 19.671875 35.109375 
L 19.671875 0 
L 9.8125 0 
z
" id="DejaVuSans-75"/>
      </defs>
      <g transform="translate(123.265256 32.392313)scale(0.1 -0.1)">
       <use xlink:href="#DejaVuSans-49"/>
       <use x="63.623047" xlink:href="#DejaVuSans-48"/>
       <use x="127.246094" xlink:href="#DejaVuSans-48"/>
       <use x="190.869141" xlink:href="#DejaVuSans-75"/>
      </g>
     </g>
    </g>
    <g id="xtick_12">
     <g id="line2d_38">
      <g>
       <use style="stroke:#000000;stroke-width:0.8;" x="214.575824" xlink:href="#mc9f1e82e23" y="41.472"/>
      </g>
     </g>
     <g id="text_21">
      <!-- 200K -->
      <g transform="translate(201.753168 32.392313)scale(0.1 -0.1)">
       <use xlink:href="#DejaVuSans-50"/>
       <use x="63.623047" xlink:href="#DejaVuSans-48"/>
       <use x="127.246094" xlink:href="#DejaVuSans-48"/>
       <use x="190.869141" xlink:href="#DejaVuSans-75"/>
      </g>
     </g>
    </g>
    <g id="xtick_13">
     <g id="line2d_39">
      <g>
       <use style="stroke:#000000;stroke-width:0.8;" x="293.063736" xlink:href="#mc9f1e82e23" y="41.472"/>
      </g>
     </g>
     <g id="text_22">
      <!-- 300K -->
      <g transform="translate(280.24108 32.392313)scale(0.1 -0.1)">
       <use xlink:href="#DejaVuSans-51"/>
       <use x="63.623047" xlink:href="#DejaVuSans-48"/>
       <use x="127.246094" xlink:href="#DejaVuSans-48"/>
       <use x="190.869141" xlink:href="#DejaVuSans-75"/>
      </g>
     </g>
    </g>
    <g id="xtick_14">
     <g id="line2d_40">
      <g>
       <use style="stroke:#000000;stroke-width:0.8;" x="371.551648" xlink:href="#mc9f1e82e23" y="41.472"/>
      </g>
     </g>
     <g id="text_23">
      <!-- 400K -->
      <g transform="translate(358.728992 32.392313)scale(0.1 -0.1)">
       <use xlink:href="#DejaVuSans-52"/>
       <use x="63.623047" xlink:href="#DejaVuSans-48"/>
       <use x="127.246094" xlink:href="#DejaVuSans-48"/>
       <use x="190.869141" xlink:href="#DejaVuSans-75"/>
      </g>
     </g>
    </g>
    <g id="text_24">
     <!-- Steps -->
     <defs>
      <path d="M 53.515625 70.515625 
L 53.515625 60.890625 
Q 47.90625 63.578125 42.921875 64.890625 
Q 37.9375 66.21875 33.296875 66.21875 
Q 25.25 66.21875 20.875 63.09375 
Q 16.5 59.96875 16.5 54.203125 
Q 16.5 49.359375 19.40625 46.890625 
Q 22.3125 44.4375 30.421875 42.921875 
L 36.375 41.703125 
Q 47.40625 39.59375 52.65625 34.296875 
Q 57.90625 29 57.90625 20.125 
Q 57.90625 9.515625 50.796875 4.046875 
Q 43.703125 -1.421875 29.984375 -1.421875 
Q 24.8125 -1.421875 18.96875 -0.25 
Q 13.140625 0.921875 6.890625 3.21875 
L 6.890625 13.375 
Q 12.890625 10.015625 18.65625 8.296875 
Q 24.421875 6.59375 29.984375 6.59375 
Q 38.421875 6.59375 43.015625 9.90625 
Q 47.609375 13.234375 47.609375 19.390625 
Q 47.609375 24.75 44.3125 27.78125 
Q 41.015625 30.8125 33.5 32.328125 
L 27.484375 33.5 
Q 16.453125 35.6875 11.515625 40.375 
Q 6.59375 45.0625 6.59375 53.421875 
Q 6.59375 63.09375 13.40625 68.65625 
Q 20.21875 74.21875 32.171875 74.21875 
Q 37.3125 74.21875 42.625 73.28125 
Q 47.953125 72.359375 53.515625 70.515625 
z
" id="DejaVuSans-83"/>
      <path d="M 18.109375 8.203125 
L 18.109375 -20.796875 
L 9.078125 -20.796875 
L 9.078125 54.6875 
L 18.109375 54.6875 
L 18.109375 46.390625 
Q 20.953125 51.265625 25.265625 53.625 
Q 29.59375 56 35.59375 56 
Q 45.5625 56 51.78125 48.09375 
Q 58.015625 40.1875 58.015625 27.296875 
Q 58.015625 14.40625 51.78125 6.484375 
Q 45.5625 -1.421875 35.59375 -1.421875 
Q 29.59375 -1.421875 25.265625 0.953125 
Q 20.953125 3.328125 18.109375 8.203125 
z
M 48.6875 27.296875 
Q 48.6875 37.203125 44.609375 42.84375 
Q 40.53125 48.484375 33.40625 48.484375 
Q 26.265625 48.484375 22.1875 42.84375 
Q 18.109375 37.203125 18.109375 27.296875 
Q 18.109375 17.390625 22.1875 11.75 
Q 26.265625 6.109375 33.40625 6.109375 
Q 40.53125 6.109375 44.609375 11.75 
Q 48.6875 17.390625 48.6875 27.296875 
z
" id="DejaVuSans-112"/>
     </defs>
     <g transform="translate(222.170156 20.793875)scale(0.1 -0.1)">
      <use xlink:href="#DejaVuSans-83"/>
      <use x="63.476562" xlink:href="#DejaVuSans-116"/>
      <use x="102.685547" xlink:href="#DejaVuSans-101"/>
      <use x="164.208984" xlink:href="#DejaVuSans-112"/>
      <use x="227.685547" xlink:href="#DejaVuSans-115"/>
     </g>
    </g>
   </g>
   <g id="patch_7">
    <path d="M 57.6 307.584 
L 57.6 41.472 
" style="fill:none;stroke:#000000;stroke-linecap:square;stroke-linejoin:miter;stroke-width:0.8;"/>
   </g>
   <g id="patch_8">
    <path d="M 414.72 307.584 
L 414.72 41.472 
" style="fill:none;stroke:#000000;stroke-linecap:square;stroke-linejoin:miter;stroke-width:0.8;"/>
   </g>
   <g id="patch_9">
    <path d="M 57.6 307.584 
L 414.72 307.584 
" style="fill:none;stroke:#000000;stroke-linecap:square;stroke-linejoin:miter;stroke-width:0.8;"/>
   </g>
   <g id="patch_10">
    <path d="M 57.6 41.472 
L 414.72 41.472 
" style="fill:none;stroke:#000000;stroke-linecap:square;stroke-linejoin:miter;stroke-width:0.8;"/>
   </g>
  </g>
 </g>
 <defs>
  <clipPath id="p946eb92296">
   <rect height="266.112" width="357.12" x="57.6" y="41.472"/>
  </clipPath>
 </defs>
</svg>
