<?xml version="1.0" encoding="utf-8" standalone="no"?>
<!DOCTYPE svg PUBLIC "-//W3C//DTD SVG 1.1//EN"
  "http://www.w3.org/Graphics/SVG/1.1/DTD/svg11.dtd">
<!-- Created with matplotlib (https://matplotlib.org/) -->
<svg height="345.6pt" version="1.1" viewBox="0 0 460.8 345.6" width="460.8pt" xmlns="http://www.w3.org/2000/svg" xmlns:xlink="http://www.w3.org/1999/xlink">
 <defs>
  <style type="text/css">
*{stroke-linecap:butt;stroke-linejoin:round;}
  </style>
 </defs>
 <g id="figure_1">
  <g id="patch_1">
   <path d="M 0 345.6 
L 460.8 345.6 
L 460.8 0 
L 0 0 
z
" style="fill:#ffffff;"/>
  </g>
  <g id="axes_1">
   <g id="patch_2">
    <path d="M 57.6 307.584 
L 414.72 307.584 
L 414.72 41.472 
L 57.6 41.472 
z
" style="fill:#ffffff;"/>
   </g>
   <g id="matplotlib.axis_1">
    <g id="xtick_1">
     <g id="line2d_1">
      <path clip-path="url(#p200bb9fbae)" d="M 57.6 307.584 
L 57.6 41.472 
" style="fill:none;stroke:#b0b0b0;stroke-linecap:square;stroke-width:0.8;"/>
     </g>
     <g id="line2d_2">
      <defs>
       <path d="M 0 0 
L 0 3.5 
" id="mb7c280cef9" style="stroke:#000000;stroke-width:0.8;"/>
      </defs>
      <g>
       <use style="stroke:#000000;stroke-width:0.8;" x="57.6" xlink:href="#mb7c280cef9" y="307.584"/>
      </g>
     </g>
     <g id="text_1">
      <!-- 0 -->
      <defs>
       <path d="M 31.78125 66.40625 
Q 24.171875 66.40625 20.328125 58.90625 
Q 16.5 51.421875 16.5 36.375 
Q 16.5 21.390625 20.328125 13.890625 
Q 24.171875 6.390625 31.78125 6.390625 
Q 39.453125 6.390625 43.28125 13.890625 
Q 47.125 21.390625 47.125 36.375 
Q 47.125 51.421875 43.28125 58.90625 
Q 39.453125 66.40625 31.78125 66.40625 
z
M 31.78125 74.21875 
Q 44.046875 74.21875 50.515625 64.515625 
Q 56.984375 54.828125 56.984375 36.375 
Q 56.984375 17.96875 50.515625 8.265625 
Q 44.046875 -1.421875 31.78125 -1.421875 
Q 19.53125 -1.421875 13.0625 8.265625 
Q 6.59375 17.96875 6.59375 36.375 
Q 6.59375 54.828125 13.0625 64.515625 
Q 19.53125 74.21875 31.78125 74.21875 
z
" id="DejaVuSans-48"/>
      </defs>
      <g transform="translate(54.41875 322.182437)scale(0.1 -0.1)">
       <use xlink:href="#DejaVuSans-48"/>
      </g>
     </g>
    </g>
    <g id="xtick_2">
     <g id="line2d_3">
      <path clip-path="url(#p200bb9fbae)" d="M 110.225353 307.584 
L 110.225353 41.472 
" style="fill:none;stroke:#b0b0b0;stroke-linecap:square;stroke-width:0.8;"/>
     </g>
     <g id="line2d_4">
      <g>
       <use style="stroke:#000000;stroke-width:0.8;" x="110.225353" xlink:href="#mb7c280cef9" y="307.584"/>
      </g>
     </g>
     <g id="text_2">
      <!-- 2 -->
      <defs>
       <path d="M 19.1875 8.296875 
L 53.609375 8.296875 
L 53.609375 0 
L 7.328125 0 
L 7.328125 8.296875 
Q 12.9375 14.109375 22.625 23.890625 
Q 32.328125 33.6875 34.8125 36.53125 
Q 39.546875 41.84375 41.421875 45.53125 
Q 43.3125 49.21875 43.3125 52.78125 
Q 43.3125 58.59375 39.234375 62.25 
Q 35.15625 65.921875 28.609375 65.921875 
Q 23.96875 65.921875 18.8125 64.3125 
Q 13.671875 62.703125 7.8125 59.421875 
L 7.8125 69.390625 
Q 13.765625 71.78125 18.9375 73 
Q 24.125 74.21875 28.421875 74.21875 
Q 39.75 74.21875 46.484375 68.546875 
Q 53.21875 62.890625 53.21875 53.421875 
Q 53.21875 48.921875 51.53125 44.890625 
Q 49.859375 40.875 45.40625 35.40625 
Q 44.1875 33.984375 37.640625 27.21875 
Q 31.109375 20.453125 19.1875 8.296875 
z
" id="DejaVuSans-50"/>
      </defs>
      <g transform="translate(107.044103 322.182437)scale(0.1 -0.1)">
       <use xlink:href="#DejaVuSans-50"/>
      </g>
     </g>
    </g>
    <g id="xtick_3">
     <g id="line2d_5">
      <path clip-path="url(#p200bb9fbae)" d="M 162.850706 307.584 
L 162.850706 41.472 
" style="fill:none;stroke:#b0b0b0;stroke-linecap:square;stroke-width:0.8;"/>
     </g>
     <g id="line2d_6">
      <g>
       <use style="stroke:#000000;stroke-width:0.8;" x="162.850706" xlink:href="#mb7c280cef9" y="307.584"/>
      </g>
     </g>
     <g id="text_3">
      <!-- 4 -->
      <defs>
       <path d="M 37.796875 64.3125 
L 12.890625 25.390625 
L 37.796875 25.390625 
z
M 35.203125 72.90625 
L 47.609375 72.90625 
L 47.609375 25.390625 
L 58.015625 25.390625 
L 58.015625 17.1875 
L 47.609375 17.1875 
L 47.609375 0 
L 37.796875 0 
L 37.796875 17.1875 
L 4.890625 17.1875 
L 4.890625 26.703125 
z
" id="DejaVuSans-52"/>
      </defs>
      <g transform="translate(159.669456 322.182437)scale(0.1 -0.1)">
       <use xlink:href="#DejaVuSans-52"/>
      </g>
     </g>
    </g>
    <g id="xtick_4">
     <g id="line2d_7">
      <path clip-path="url(#p200bb9fbae)" d="M 215.476059 307.584 
L 215.476059 41.472 
" style="fill:none;stroke:#b0b0b0;stroke-linecap:square;stroke-width:0.8;"/>
     </g>
     <g id="line2d_8">
      <g>
       <use style="stroke:#000000;stroke-width:0.8;" x="215.476059" xlink:href="#mb7c280cef9" y="307.584"/>
      </g>
     </g>
     <g id="text_4">
      <!-- 6 -->
      <defs>
       <path d="M 33.015625 40.375 
Q 26.375 40.375 22.484375 35.828125 
Q 18.609375 31.296875 18.609375 23.390625 
Q 18.609375 15.53125 22.484375 10.953125 
Q 26.375 6.390625 33.015625 6.390625 
Q 39.65625 6.390625 43.53125 10.953125 
Q 47.40625 15.53125 47.40625 23.390625 
Q 47.40625 31.296875 43.53125 35.828125 
Q 39.65625 40.375 33.015625 40.375 
z
M 52.59375 71.296875 
L 52.59375 62.3125 
Q 48.875 64.0625 45.09375 64.984375 
Q 41.3125 65.921875 37.59375 65.921875 
Q 27.828125 65.921875 22.671875 59.328125 
Q 17.53125 52.734375 16.796875 39.40625 
Q 19.671875 43.65625 24.015625 45.921875 
Q 28.375 48.1875 33.59375 48.1875 
Q 44.578125 48.1875 50.953125 41.515625 
Q 57.328125 34.859375 57.328125 23.390625 
Q 57.328125 12.15625 50.6875 5.359375 
Q 44.046875 -1.421875 33.015625 -1.421875 
Q 20.359375 -1.421875 13.671875 8.265625 
Q 6.984375 17.96875 6.984375 36.375 
Q 6.984375 53.65625 15.1875 63.9375 
Q 23.390625 74.21875 37.203125 74.21875 
Q 40.921875 74.21875 44.703125 73.484375 
Q 48.484375 72.75 52.59375 71.296875 
z
" id="DejaVuSans-54"/>
      </defs>
      <g transform="translate(212.294809 322.182437)scale(0.1 -0.1)">
       <use xlink:href="#DejaVuSans-54"/>
      </g>
     </g>
    </g>
    <g id="xtick_5">
     <g id="line2d_9">
      <path clip-path="url(#p200bb9fbae)" d="M 268.101412 307.584 
L 268.101412 41.472 
" style="fill:none;stroke:#b0b0b0;stroke-linecap:square;stroke-width:0.8;"/>
     </g>
     <g id="line2d_10">
      <g>
       <use style="stroke:#000000;stroke-width:0.8;" x="268.101412" xlink:href="#mb7c280cef9" y="307.584"/>
      </g>
     </g>
     <g id="text_5">
      <!-- 8 -->
      <defs>
       <path d="M 31.78125 34.625 
Q 24.75 34.625 20.71875 30.859375 
Q 16.703125 27.09375 16.703125 20.515625 
Q 16.703125 13.921875 20.71875 10.15625 
Q 24.75 6.390625 31.78125 6.390625 
Q 38.8125 6.390625 42.859375 10.171875 
Q 46.921875 13.96875 46.921875 20.515625 
Q 46.921875 27.09375 42.890625 30.859375 
Q 38.875 34.625 31.78125 34.625 
z
M 21.921875 38.8125 
Q 15.578125 40.375 12.03125 44.71875 
Q 8.5 49.078125 8.5 55.328125 
Q 8.5 64.0625 14.71875 69.140625 
Q 20.953125 74.21875 31.78125 74.21875 
Q 42.671875 74.21875 48.875 69.140625 
Q 55.078125 64.0625 55.078125 55.328125 
Q 55.078125 49.078125 51.53125 44.71875 
Q 48 40.375 41.703125 38.8125 
Q 48.828125 37.15625 52.796875 32.3125 
Q 56.78125 27.484375 56.78125 20.515625 
Q 56.78125 9.90625 50.3125 4.234375 
Q 43.84375 -1.421875 31.78125 -1.421875 
Q 19.734375 -1.421875 13.25 4.234375 
Q 6.78125 9.90625 6.78125 20.515625 
Q 6.78125 27.484375 10.78125 32.3125 
Q 14.796875 37.15625 21.921875 38.8125 
z
M 18.3125 54.390625 
Q 18.3125 48.734375 21.84375 45.5625 
Q 25.390625 42.390625 31.78125 42.390625 
Q 38.140625 42.390625 41.71875 45.5625 
Q 45.3125 48.734375 45.3125 54.390625 
Q 45.3125 60.0625 41.71875 63.234375 
Q 38.140625 66.40625 31.78125 66.40625 
Q 25.390625 66.40625 21.84375 63.234375 
Q 18.3125 60.0625 18.3125 54.390625 
z
" id="DejaVuSans-56"/>
      </defs>
      <g transform="translate(264.920162 322.182437)scale(0.1 -0.1)">
       <use xlink:href="#DejaVuSans-56"/>
      </g>
     </g>
    </g>
    <g id="xtick_6">
     <g id="line2d_11">
      <path clip-path="url(#p200bb9fbae)" d="M 320.726765 307.584 
L 320.726765 41.472 
" style="fill:none;stroke:#b0b0b0;stroke-linecap:square;stroke-width:0.8;"/>
     </g>
     <g id="line2d_12">
      <g>
       <use style="stroke:#000000;stroke-width:0.8;" x="320.726765" xlink:href="#mb7c280cef9" y="307.584"/>
      </g>
     </g>
     <g id="text_6">
      <!-- 10 -->
      <defs>
       <path d="M 12.40625 8.296875 
L 28.515625 8.296875 
L 28.515625 63.921875 
L 10.984375 60.40625 
L 10.984375 69.390625 
L 28.421875 72.90625 
L 38.28125 72.90625 
L 38.28125 8.296875 
L 54.390625 8.296875 
L 54.390625 0 
L 12.40625 0 
z
" id="DejaVuSans-49"/>
      </defs>
      <g transform="translate(314.364265 322.182437)scale(0.1 -0.1)">
       <use xlink:href="#DejaVuSans-49"/>
       <use x="63.623047" xlink:href="#DejaVuSans-48"/>
      </g>
     </g>
    </g>
    <g id="xtick_7">
     <g id="line2d_13">
      <path clip-path="url(#p200bb9fbae)" d="M 373.352118 307.584 
L 373.352118 41.472 
" style="fill:none;stroke:#b0b0b0;stroke-linecap:square;stroke-width:0.8;"/>
     </g>
     <g id="line2d_14">
      <g>
       <use style="stroke:#000000;stroke-width:0.8;" x="373.352118" xlink:href="#mb7c280cef9" y="307.584"/>
      </g>
     </g>
     <g id="text_7">
      <!-- 12 -->
      <g transform="translate(366.989618 322.182437)scale(0.1 -0.1)">
       <use xlink:href="#DejaVuSans-49"/>
       <use x="63.623047" xlink:href="#DejaVuSans-50"/>
      </g>
     </g>
    </g>
    <g id="text_8">
     <!-- Hours -->
     <defs>
      <path d="M 9.8125 72.90625 
L 19.671875 72.90625 
L 19.671875 43.015625 
L 55.515625 43.015625 
L 55.515625 72.90625 
L 65.375 72.90625 
L 65.375 0 
L 55.515625 0 
L 55.515625 34.71875 
L 19.671875 34.71875 
L 19.671875 0 
L 9.8125 0 
z
" id="DejaVuSans-72"/>
      <path d="M 30.609375 48.390625 
Q 23.390625 48.390625 19.1875 42.75 
Q 14.984375 37.109375 14.984375 27.296875 
Q 14.984375 17.484375 19.15625 11.84375 
Q 23.34375 6.203125 30.609375 6.203125 
Q 37.796875 6.203125 41.984375 11.859375 
Q 46.1875 17.53125 46.1875 27.296875 
Q 46.1875 37.015625 41.984375 42.703125 
Q 37.796875 48.390625 30.609375 48.390625 
z
M 30.609375 56 
Q 42.328125 56 49.015625 48.375 
Q 55.71875 40.765625 55.71875 27.296875 
Q 55.71875 13.875 49.015625 6.21875 
Q 42.328125 -1.421875 30.609375 -1.421875 
Q 18.84375 -1.421875 12.171875 6.21875 
Q 5.515625 13.875 5.515625 27.296875 
Q 5.515625 40.765625 12.171875 48.375 
Q 18.84375 56 30.609375 56 
z
" id="DejaVuSans-111"/>
      <path d="M 8.5 21.578125 
L 8.5 54.6875 
L 17.484375 54.6875 
L 17.484375 21.921875 
Q 17.484375 14.15625 20.5 10.265625 
Q 23.53125 6.390625 29.59375 6.390625 
Q 36.859375 6.390625 41.078125 11.03125 
Q 45.3125 15.671875 45.3125 23.6875 
L 45.3125 54.6875 
L 54.296875 54.6875 
L 54.296875 0 
L 45.3125 0 
L 45.3125 8.40625 
Q 42.046875 3.421875 37.71875 1 
Q 33.40625 -1.421875 27.6875 -1.421875 
Q 18.265625 -1.421875 13.375 4.4375 
Q 8.5 10.296875 8.5 21.578125 
z
M 31.109375 56 
z
" id="DejaVuSans-117"/>
      <path d="M 41.109375 46.296875 
Q 39.59375 47.171875 37.8125 47.578125 
Q 36.03125 48 33.890625 48 
Q 26.265625 48 22.1875 43.046875 
Q 18.109375 38.09375 18.109375 28.8125 
L 18.109375 0 
L 9.078125 0 
L 9.078125 54.6875 
L 18.109375 54.6875 
L 18.109375 46.1875 
Q 20.953125 51.171875 25.484375 53.578125 
Q 30.03125 56 36.53125 56 
Q 37.453125 56 38.578125 55.875 
Q 39.703125 55.765625 41.0625 55.515625 
z
" id="DejaVuSans-114"/>
      <path d="M 44.28125 53.078125 
L 44.28125 44.578125 
Q 40.484375 46.53125 36.375 47.5 
Q 32.28125 48.484375 27.875 48.484375 
Q 21.1875 48.484375 17.84375 46.4375 
Q 14.5 44.390625 14.5 40.28125 
Q 14.5 37.15625 16.890625 35.375 
Q 19.28125 33.59375 26.515625 31.984375 
L 29.59375 31.296875 
Q 39.15625 29.25 43.1875 25.515625 
Q 47.21875 21.78125 47.21875 15.09375 
Q 47.21875 7.46875 41.1875 3.015625 
Q 35.15625 -1.421875 24.609375 -1.421875 
Q 20.21875 -1.421875 15.453125 -0.5625 
Q 10.6875 0.296875 5.421875 2 
L 5.421875 11.28125 
Q 10.40625 8.6875 15.234375 7.390625 
Q 20.0625 6.109375 24.8125 6.109375 
Q 31.15625 6.109375 34.5625 8.28125 
Q 37.984375 10.453125 37.984375 14.40625 
Q 37.984375 18.0625 35.515625 20.015625 
Q 33.0625 21.96875 24.703125 23.78125 
L 21.578125 24.515625 
Q 13.234375 26.265625 9.515625 29.90625 
Q 5.8125 33.546875 5.8125 39.890625 
Q 5.8125 47.609375 11.28125 51.796875 
Q 16.75 56 26.8125 56 
Q 31.78125 56 36.171875 55.265625 
Q 40.578125 54.546875 44.28125 53.078125 
z
" id="DejaVuSans-115"/>
     </defs>
     <g transform="translate(221.511562 335.860562)scale(0.1 -0.1)">
      <use xlink:href="#DejaVuSans-72"/>
      <use x="75.195312" xlink:href="#DejaVuSans-111"/>
      <use x="136.376953" xlink:href="#DejaVuSans-117"/>
      <use x="199.755859" xlink:href="#DejaVuSans-114"/>
      <use x="240.869141" xlink:href="#DejaVuSans-115"/>
     </g>
    </g>
   </g>
   <g id="matplotlib.axis_2">
    <g id="ytick_1">
     <g id="line2d_15">
      <path clip-path="url(#p200bb9fbae)" d="M 57.6 298.112717 
L 414.72 298.112717 
" style="fill:none;stroke:#b0b0b0;stroke-linecap:square;stroke-width:0.8;"/>
     </g>
     <g id="line2d_16">
      <defs>
       <path d="M 0 0 
L -3.5 0 
" id="me223749fc3" style="stroke:#000000;stroke-width:0.8;"/>
      </defs>
      <g>
       <use style="stroke:#000000;stroke-width:0.8;" x="57.6" xlink:href="#me223749fc3" y="298.112717"/>
      </g>
     </g>
     <g id="text_9">
      <!-- 0.0 -->
      <defs>
       <path d="M 10.6875 12.40625 
L 21 12.40625 
L 21 0 
L 10.6875 0 
z
" id="DejaVuSans-46"/>
      </defs>
      <g transform="translate(34.696875 301.911936)scale(0.1 -0.1)">
       <use xlink:href="#DejaVuSans-48"/>
       <use x="63.623047" xlink:href="#DejaVuSans-46"/>
       <use x="95.410156" xlink:href="#DejaVuSans-48"/>
      </g>
     </g>
    </g>
    <g id="ytick_2">
     <g id="line2d_17">
      <path clip-path="url(#p200bb9fbae)" d="M 57.6 261.727417 
L 414.72 261.727417 
" style="fill:none;stroke:#b0b0b0;stroke-linecap:square;stroke-width:0.8;"/>
     </g>
     <g id="line2d_18">
      <g>
       <use style="stroke:#000000;stroke-width:0.8;" x="57.6" xlink:href="#me223749fc3" y="261.727417"/>
      </g>
     </g>
     <g id="text_10">
      <!-- 0.1 -->
      <g transform="translate(34.696875 265.526635)scale(0.1 -0.1)">
       <use xlink:href="#DejaVuSans-48"/>
       <use x="63.623047" xlink:href="#DejaVuSans-46"/>
       <use x="95.410156" xlink:href="#DejaVuSans-49"/>
      </g>
     </g>
    </g>
    <g id="ytick_3">
     <g id="line2d_19">
      <path clip-path="url(#p200bb9fbae)" d="M 57.6 225.342116 
L 414.72 225.342116 
" style="fill:none;stroke:#b0b0b0;stroke-linecap:square;stroke-width:0.8;"/>
     </g>
     <g id="line2d_20">
      <g>
       <use style="stroke:#000000;stroke-width:0.8;" x="57.6" xlink:href="#me223749fc3" y="225.342116"/>
      </g>
     </g>
     <g id="text_11">
      <!-- 0.2 -->
      <g transform="translate(34.696875 229.141335)scale(0.1 -0.1)">
       <use xlink:href="#DejaVuSans-48"/>
       <use x="63.623047" xlink:href="#DejaVuSans-46"/>
       <use x="95.410156" xlink:href="#DejaVuSans-50"/>
      </g>
     </g>
    </g>
    <g id="ytick_4">
     <g id="line2d_21">
      <path clip-path="url(#p200bb9fbae)" d="M 57.6 188.956816 
L 414.72 188.956816 
" style="fill:none;stroke:#b0b0b0;stroke-linecap:square;stroke-width:0.8;"/>
     </g>
     <g id="line2d_22">
      <g>
       <use style="stroke:#000000;stroke-width:0.8;" x="57.6" xlink:href="#me223749fc3" y="188.956816"/>
      </g>
     </g>
     <g id="text_12">
      <!-- 0.3 -->
      <defs>
       <path d="M 40.578125 39.3125 
Q 47.65625 37.796875 51.625 33 
Q 55.609375 28.21875 55.609375 21.1875 
Q 55.609375 10.40625 48.1875 4.484375 
Q 40.765625 -1.421875 27.09375 -1.421875 
Q 22.515625 -1.421875 17.65625 -0.515625 
Q 12.796875 0.390625 7.625 2.203125 
L 7.625 11.71875 
Q 11.71875 9.328125 16.59375 8.109375 
Q 21.484375 6.890625 26.8125 6.890625 
Q 36.078125 6.890625 40.9375 10.546875 
Q 45.796875 14.203125 45.796875 21.1875 
Q 45.796875 27.640625 41.28125 31.265625 
Q 36.765625 34.90625 28.71875 34.90625 
L 20.21875 34.90625 
L 20.21875 43.015625 
L 29.109375 43.015625 
Q 36.375 43.015625 40.234375 45.921875 
Q 44.09375 48.828125 44.09375 54.296875 
Q 44.09375 59.90625 40.109375 62.90625 
Q 36.140625 65.921875 28.71875 65.921875 
Q 24.65625 65.921875 20.015625 65.03125 
Q 15.375 64.15625 9.8125 62.3125 
L 9.8125 71.09375 
Q 15.4375 72.65625 20.34375 73.4375 
Q 25.25 74.21875 29.59375 74.21875 
Q 40.828125 74.21875 47.359375 69.109375 
Q 53.90625 64.015625 53.90625 55.328125 
Q 53.90625 49.265625 50.4375 45.09375 
Q 46.96875 40.921875 40.578125 39.3125 
z
" id="DejaVuSans-51"/>
      </defs>
      <g transform="translate(34.696875 192.756035)scale(0.1 -0.1)">
       <use xlink:href="#DejaVuSans-48"/>
       <use x="63.623047" xlink:href="#DejaVuSans-46"/>
       <use x="95.410156" xlink:href="#DejaVuSans-51"/>
      </g>
     </g>
    </g>
    <g id="ytick_5">
     <g id="line2d_23">
      <path clip-path="url(#p200bb9fbae)" d="M 57.6 152.571516 
L 414.72 152.571516 
" style="fill:none;stroke:#b0b0b0;stroke-linecap:square;stroke-width:0.8;"/>
     </g>
     <g id="line2d_24">
      <g>
       <use style="stroke:#000000;stroke-width:0.8;" x="57.6" xlink:href="#me223749fc3" y="152.571516"/>
      </g>
     </g>
     <g id="text_13">
      <!-- 0.4 -->
      <g transform="translate(34.696875 156.370734)scale(0.1 -0.1)">
       <use xlink:href="#DejaVuSans-48"/>
       <use x="63.623047" xlink:href="#DejaVuSans-46"/>
       <use x="95.410156" xlink:href="#DejaVuSans-52"/>
      </g>
     </g>
    </g>
    <g id="ytick_6">
     <g id="line2d_25">
      <path clip-path="url(#p200bb9fbae)" d="M 57.6 116.186215 
L 414.72 116.186215 
" style="fill:none;stroke:#b0b0b0;stroke-linecap:square;stroke-width:0.8;"/>
     </g>
     <g id="line2d_26">
      <g>
       <use style="stroke:#000000;stroke-width:0.8;" x="57.6" xlink:href="#me223749fc3" y="116.186215"/>
      </g>
     </g>
     <g id="text_14">
      <!-- 0.5 -->
      <defs>
       <path d="M 10.796875 72.90625 
L 49.515625 72.90625 
L 49.515625 64.59375 
L 19.828125 64.59375 
L 19.828125 46.734375 
Q 21.96875 47.46875 24.109375 47.828125 
Q 26.265625 48.1875 28.421875 48.1875 
Q 40.625 48.1875 47.75 41.5 
Q 54.890625 34.8125 54.890625 23.390625 
Q 54.890625 11.625 47.5625 5.09375 
Q 40.234375 -1.421875 26.90625 -1.421875 
Q 22.3125 -1.421875 17.546875 -0.640625 
Q 12.796875 0.140625 7.71875 1.703125 
L 7.71875 11.625 
Q 12.109375 9.234375 16.796875 8.0625 
Q 21.484375 6.890625 26.703125 6.890625 
Q 35.15625 6.890625 40.078125 11.328125 
Q 45.015625 15.765625 45.015625 23.390625 
Q 45.015625 31 40.078125 35.4375 
Q 35.15625 39.890625 26.703125 39.890625 
Q 22.75 39.890625 18.8125 39.015625 
Q 14.890625 38.140625 10.796875 36.28125 
z
" id="DejaVuSans-53"/>
      </defs>
      <g transform="translate(34.696875 119.985434)scale(0.1 -0.1)">
       <use xlink:href="#DejaVuSans-48"/>
       <use x="63.623047" xlink:href="#DejaVuSans-46"/>
       <use x="95.410156" xlink:href="#DejaVuSans-53"/>
      </g>
     </g>
    </g>
    <g id="ytick_7">
     <g id="line2d_27">
      <path clip-path="url(#p200bb9fbae)" d="M 57.6 79.800915 
L 414.72 79.800915 
" style="fill:none;stroke:#b0b0b0;stroke-linecap:square;stroke-width:0.8;"/>
     </g>
     <g id="line2d_28">
      <g>
       <use style="stroke:#000000;stroke-width:0.8;" x="57.6" xlink:href="#me223749fc3" y="79.800915"/>
      </g>
     </g>
     <g id="text_15">
      <!-- 0.6 -->
      <g transform="translate(34.696875 83.600134)scale(0.1 -0.1)">
       <use xlink:href="#DejaVuSans-48"/>
       <use x="63.623047" xlink:href="#DejaVuSans-46"/>
       <use x="95.410156" xlink:href="#DejaVuSans-54"/>
      </g>
     </g>
    </g>
    <g id="ytick_8">
     <g id="line2d_29">
      <path clip-path="url(#p200bb9fbae)" d="M 57.6 43.415615 
L 414.72 43.415615 
" style="fill:none;stroke:#b0b0b0;stroke-linecap:square;stroke-width:0.8;"/>
     </g>
     <g id="line2d_30">
      <g>
       <use style="stroke:#000000;stroke-width:0.8;" x="57.6" xlink:href="#me223749fc3" y="43.415615"/>
      </g>
     </g>
     <g id="text_16">
      <!-- 0.7 -->
      <defs>
       <path d="M 8.203125 72.90625 
L 55.078125 72.90625 
L 55.078125 68.703125 
L 28.609375 0 
L 18.3125 0 
L 43.21875 64.59375 
L 8.203125 64.59375 
z
" id="DejaVuSans-55"/>
      </defs>
      <g transform="translate(34.696875 47.214834)scale(0.1 -0.1)">
       <use xlink:href="#DejaVuSans-48"/>
       <use x="63.623047" xlink:href="#DejaVuSans-46"/>
       <use x="95.410156" xlink:href="#DejaVuSans-55"/>
      </g>
     </g>
    </g>
    <g id="text_17">
     <!-- Value loss -->
     <defs>
      <path d="M 28.609375 0 
L 0.78125 72.90625 
L 11.078125 72.90625 
L 34.1875 11.53125 
L 57.328125 72.90625 
L 67.578125 72.90625 
L 39.796875 0 
z
" id="DejaVuSans-86"/>
      <path d="M 34.28125 27.484375 
Q 23.390625 27.484375 19.1875 25 
Q 14.984375 22.515625 14.984375 16.5 
Q 14.984375 11.71875 18.140625 8.90625 
Q 21.296875 6.109375 26.703125 6.109375 
Q 34.1875 6.109375 38.703125 11.40625 
Q 43.21875 16.703125 43.21875 25.484375 
L 43.21875 27.484375 
z
M 52.203125 31.203125 
L 52.203125 0 
L 43.21875 0 
L 43.21875 8.296875 
Q 40.140625 3.328125 35.546875 0.953125 
Q 30.953125 -1.421875 24.3125 -1.421875 
Q 15.921875 -1.421875 10.953125 3.296875 
Q 6 8.015625 6 15.921875 
Q 6 25.140625 12.171875 29.828125 
Q 18.359375 34.515625 30.609375 34.515625 
L 43.21875 34.515625 
L 43.21875 35.40625 
Q 43.21875 41.609375 39.140625 45 
Q 35.0625 48.390625 27.6875 48.390625 
Q 23 48.390625 18.546875 47.265625 
Q 14.109375 46.140625 10.015625 43.890625 
L 10.015625 52.203125 
Q 14.9375 54.109375 19.578125 55.046875 
Q 24.21875 56 28.609375 56 
Q 40.484375 56 46.34375 49.84375 
Q 52.203125 43.703125 52.203125 31.203125 
z
" id="DejaVuSans-97"/>
      <path d="M 9.421875 75.984375 
L 18.40625 75.984375 
L 18.40625 0 
L 9.421875 0 
z
" id="DejaVuSans-108"/>
      <path d="M 56.203125 29.59375 
L 56.203125 25.203125 
L 14.890625 25.203125 
Q 15.484375 15.921875 20.484375 11.0625 
Q 25.484375 6.203125 34.421875 6.203125 
Q 39.59375 6.203125 44.453125 7.46875 
Q 49.3125 8.734375 54.109375 11.28125 
L 54.109375 2.78125 
Q 49.265625 0.734375 44.1875 -0.34375 
Q 39.109375 -1.421875 33.890625 -1.421875 
Q 20.796875 -1.421875 13.15625 6.1875 
Q 5.515625 13.8125 5.515625 26.8125 
Q 5.515625 40.234375 12.765625 48.109375 
Q 20.015625 56 32.328125 56 
Q 43.359375 56 49.78125 48.890625 
Q 56.203125 41.796875 56.203125 29.59375 
z
M 47.21875 32.234375 
Q 47.125 39.59375 43.09375 43.984375 
Q 39.0625 48.390625 32.421875 48.390625 
Q 24.90625 48.390625 20.390625 44.140625 
Q 15.875 39.890625 15.1875 32.171875 
z
" id="DejaVuSans-101"/>
      <path id="DejaVuSans-32"/>
     </defs>
     <g transform="translate(28.617187 199.888156)rotate(-90)scale(0.1 -0.1)">
      <use xlink:href="#DejaVuSans-86"/>
      <use x="68.298828" xlink:href="#DejaVuSans-97"/>
      <use x="129.578125" xlink:href="#DejaVuSans-108"/>
      <use x="157.361328" xlink:href="#DejaVuSans-117"/>
      <use x="220.740234" xlink:href="#DejaVuSans-101"/>
      <use x="282.263672" xlink:href="#DejaVuSans-32"/>
      <use x="314.050781" xlink:href="#DejaVuSans-108"/>
      <use x="341.833984" xlink:href="#DejaVuSans-111"/>
      <use x="403.015625" xlink:href="#DejaVuSans-115"/>
      <use x="455.115234" xlink:href="#DejaVuSans-115"/>
     </g>
    </g>
   </g>
   <g id="line2d_31">
    <path clip-path="url(#p200bb9fbae)" d="M 57.6 209.329184 
L 58.232656 270.560728 
L 58.862905 269.711598 
L 59.501312 271.940982 
L 60.132424 271.777032 
L 60.766877 275.546173 
L 61.392865 268.591946 
L 62.024443 221.658522 
L 62.654995 266.925573 
L 63.294747 282.368307 
L 63.941665 271.504953 
L 64.580556 265.461028 
L 65.221524 248.584637 
L 65.869898 273.842571 
L 66.511182 279.019281 
L 67.149116 288.299918 
L 67.794104 281.56137 
L 68.426924 273.393727 
L 69.056699 269.942731 
L 69.69544 282.204053 
L 70.327825 283.922506 
L 70.959686 275.023644 
L 71.595199 285.499219 
L 72.22908 292.147701 
L 72.863039 290.453948 
L 73.49864 274.772624 
L 74.13054 281.898222 
L 74.755348 282.506881 
L 75.401473 278.225111 
L 76.03392 287.057311 
L 76.67748 271.03819 
L 77.323317 267.402521 
L 77.964245 269.362177 
L 78.600597 280.421314 
L 79.242972 267.218182 
L 79.890351 288.009175 
L 80.529672 283.960439 
L 81.160203 285.556742 
L 81.79946 273.046117 
L 82.432709 284.487143 
L 83.063791 274.603278 
L 83.702395 284.860141 
L 84.332245 287.356353 
L 84.965534 288.560404 
L 85.600601 283.786244 
L 86.246302 281.198663 
L 86.885439 284.902848 
L 87.518931 278.362622 
L 88.165253 286.50778 
L 88.799677 277.941077 
L 89.434187 285.585731 
L 90.081467 283.530006 
L 90.720584 291.499175 
L 91.353413 291.963972 
L 91.999281 275.152911 
L 92.639228 284.783682 
L 93.282356 269.244567 
L 93.918837 283.557215 
L 94.55619 290.240717 
L 95.193488 273.999156 
L 95.828933 282.984523 
L 96.458847 282.072209 
L 97.088848 288.760687 
L 97.719471 284.404825 
L 98.355019 289.199448 
L 98.993523 273.406737 
L 99.623676 274.742001 
L 100.258403 283.632207 
L 100.892152 267.948304 
L 101.529875 271.822434 
L 102.162477 280.828143 
L 102.795381 275.325737 
L 103.431372 287.032883 
L 104.060415 286.89871 
L 104.695359 288.373269 
L 105.322611 278.283019 
L 105.953123 256.056708 
L 106.577663 285.15836 
L 107.21388 287.155628 
L 107.852453 277.765261 
L 108.487078 283.436394 
L 109.116868 285.717195 
L 109.759138 289.582804 
L 110.390467 289.548229 
L 111.023656 287.30278 
L 111.658716 271.999422 
L 112.28698 287.361717 
L 112.919598 292.775606 
L 113.55645 284.765591 
L 114.190701 291.184132 
L 114.827021 288.924379 
L 115.467949 280.26475 
L 116.10391 287.050551 
L 116.736421 288.667865 
L 117.378997 280.326838 
L 118.008738 281.726984 
L 118.636643 284.585319 
L 119.275416 285.364635 
L 119.910553 284.994166 
L 120.541272 286.23601 
L 121.817643 281.838951 
L 122.452176 274.440623 
L 123.082535 284.555072 
L 123.721439 276.685332 
L 124.346914 286.682557 
L 124.976747 282.27288 
L 125.620913 285.743254 
L 126.249601 283.337031 
L 126.881061 286.298794 
L 127.522873 284.940839 
L 128.158038 279.736993 
L 128.793468 285.233911 
L 129.432315 273.159965 
L 130.064701 285.569008 
L 130.6986 274.458963 
L 131.339234 273.779762 
L 131.976049 277.091498 
L 132.60851 286.295766 
L 133.252634 255.498753 
L 133.897401 294.517043 
L 134.535628 282.789447 
L 135.186526 279.498137 
L 135.826506 286.163796 
L 136.471751 284.91094 
L 137.11862 265.524832 
L 137.756699 285.049129 
L 138.393321 288.249768 
L 139.02981 270.978648 
L 139.666322 275.277605 
L 140.309551 268.335721 
L 140.945942 268.036707 
L 141.576443 271.62229 
L 142.208983 286.14258 
L 142.846484 250.384132 
L 143.48338 273.363178 
L 144.118596 282.39061 
L 144.75081 242.973968 
L 145.383307 282.629936 
L 146.014115 272.965706 
L 146.658125 267.140549 
L 147.292661 264.421644 
L 147.926216 283.395618 
L 148.56585 223.270281 
L 149.199761 260.307262 
L 149.823101 255.408577 
L 150.466361 210.595713 
L 151.10141 260.49264 
L 151.735533 246.421532 
L 152.372732 285.925646 
L 153.001469 283.011664 
L 153.636777 283.421006 
L 154.279952 278.942427 
L 154.913675 282.02922 
L 155.542814 273.943745 
L 156.193694 270.965245 
L 156.839294 271.206332 
L 157.477812 238.745893 
L 158.131505 272.551841 
L 158.775329 260.382905 
L 159.420845 274.033555 
L 160.055978 202.40147 
L 160.687448 241.901112 
L 161.321638 271.178502 
L 161.962139 245.831897 
L 162.590345 264.972727 
L 163.228646 235.535859 
L 163.855243 259.334461 
L 164.498696 267.718234 
L 165.120767 284.109142 
L 165.757305 277.396616 
L 166.392856 280.737677 
L 167.030413 254.114657 
L 167.67509 262.457016 
L 168.310387 284.943852 
L 168.943636 244.612223 
L 169.576343 264.897285 
L 170.20994 243.520592 
L 170.831791 262.702343 
L 171.467491 255.569852 
L 172.733237 282.979682 
L 173.372483 245.105057 
L 174.0041 281.496346 
L 174.63678 279.24788 
L 175.27717 275.569533 
L 175.909994 284.485413 
L 176.542016 282.528286 
L 177.184086 287.451016 
L 177.817939 264.514167 
L 178.453377 266.16399 
L 179.095998 278.838488 
L 179.731477 233.384476 
L 180.355461 288.56577 
L 180.992101 280.96871 
L 181.625548 284.903262 
L 182.258123 286.067035 
L 182.895541 280.034628 
L 183.527959 281.356871 
L 184.16211 277.385654 
L 184.79501 266.340417 
L 185.427881 285.512522 
L 186.057575 279.199382 
L 186.697582 101.311245 
L 187.32953 284.226732 
L 187.961424 259.306695 
L 188.594062 279.420895 
L 189.226863 283.442047 
L 189.864989 271.898727 
L 190.49871 276.071899 
L 191.131831 284.728488 
L 191.77094 275.466487 
L 192.404278 215.352118 
L 193.037626 269.773732 
L 193.673644 277.43313 
L 194.307598 274.458049 
L 194.937639 283.201437 
L 195.577634 266.140725 
L 196.211948 161.110682 
L 196.84709 278.39229 
L 197.48368 279.468558 
L 198.115272 288.057907 
L 198.736078 286.745488 
L 199.371041 283.727406 
L 200.00621 277.69793 
L 200.636031 286.431617 
L 201.276515 272.94188 
L 201.915906 281.770214 
L 202.554617 283.708641 
L 203.345796 282.132091 
L 203.986521 275.764435 
L 204.619646 289.409364 
L 205.397059 274.014684 
L 206.035922 278.058178 
L 206.665634 287.387223 
L 207.291719 286.7614 
L 207.93199 237.3957 
L 208.565479 287.121579 
L 209.198413 283.419855 
L 209.837867 287.857026 
L 210.470848 281.16315 
L 211.104174 286.718337 
L 211.73867 287.468598 
L 212.374631 245.609363 
L 213.014443 288.814555 
L 213.654747 281.287466 
L 214.303769 280.468047 
L 214.944711 280.242567 
L 215.576327 289.426135 
L 216.224816 276.497466 
L 216.861251 286.357496 
L 217.49079 270.607415 
L 218.122027 285.05127 
L 218.754892 273.417572 
L 220.02238 286.571279 
L 220.646615 279.28854 
L 221.279316 290.489762 
L 221.912978 283.541966 
L 222.549425 286.105834 
L 223.183365 279.218884 
L 223.826375 288.488885 
L 224.460591 282.425758 
L 225.087756 266.141343 
L 225.880585 288.084848 
L 226.495246 283.682394 
L 227.128181 283.102603 
L 227.766647 289.060164 
L 228.392275 287.804412 
L 229.024989 289.162099 
L 229.664677 274.017265 
L 230.289051 288.922099 
L 230.914838 290.609666 
L 231.784473 144.238591 
L 232.416676 286.232017 
L 233.051822 273.941034 
L 233.691867 286.379103 
L 234.327076 289.016739 
L 234.962225 285.057387 
L 235.597856 214.071357 
L 236.232536 279.388484 
L 236.86504 279.199051 
L 237.507362 286.35933 
L 238.1438 288.548101 
L 238.770601 268.944086 
L 239.41049 287.5176 
L 240.042297 290.27071 
L 240.674646 279.130049 
L 241.31448 279.626655 
L 241.939663 280.570288 
L 242.572403 288.430532 
L 243.213009 287.7025 
L 243.84428 288.145699 
L 244.475335 284.346652 
L 245.114538 289.738553 
L 245.748006 276.517779 
L 246.381526 276.695771 
L 247.022722 287.161578 
L 247.657297 287.151534 
L 248.933793 280.145029 
L 249.567927 290.044991 
L 250.840094 265.813076 
L 251.472712 286.402831 
L 252.098928 249.180204 
L 252.741043 281.983143 
L 253.373941 286.18577 
L 254.004409 291.184504 
L 254.6455 281.714643 
L 255.279349 243.914 
L 255.912814 290.023049 
L 256.562543 278.606908 
L 257.204472 277.81665 
L 257.848744 287.040086 
L 258.498996 53.568 
L 259.141179 134.950374 
L 259.783741 290.531528 
L 260.433399 290.199231 
L 261.059513 287.874584 
L 261.692258 286.79516 
L 262.3332 277.038548 
L 262.965387 288.071688 
L 263.599019 288.121223 
L 264.239019 283.300141 
L 264.873177 290.255886 
L 265.505151 282.559061 
L 266.138221 285.513198 
L 266.772145 263.557667 
L 267.404283 290.204947 
L 268.04408 278.94447 
L 268.678016 287.448346 
L 269.309631 286.820919 
L 269.950786 290.794704 
L 270.58263 284.586669 
L 271.213936 280.213572 
L 271.84475 290.55185 
L 272.477791 274.796491 
L 273.103399 288.329437 
L 273.743085 287.625755 
L 274.378686 291.563996 
L 275.01475 287.570665 
L 275.656545 274.222628 
L 276.286461 279.470091 
L 276.919728 293.620637 
L 277.561876 289.872729 
L 278.196474 287.112717 
L 278.830543 290.996349 
L 279.461414 276.56347 
L 280.087801 286.067905 
L 280.721253 291.756723 
L 281.361964 274.989649 
L 281.991999 285.898534 
L 282.623278 286.066536 
L 283.263008 287.312027 
L 283.894766 291.906848 
L 284.526107 284.181236 
L 285.164168 289.357222 
L 285.79703 286.823485 
L 286.429862 289.224274 
L 287.073398 279.781101 
L 287.714289 277.91955 
L 288.353146 283.020461 
L 288.999691 282.882806 
L 289.638806 293.029818 
L 290.260688 290.914626 
L 290.898682 284.791614 
L 292.15827 278.83065 
L 292.790481 199.839166 
L 293.423725 278.620505 
L 294.055146 282.32108 
L 294.695955 267.744774 
L 295.32401 291.57623 
L 295.95926 294.880067 
L 296.605888 286.124674 
L 297.242782 291.12337 
L 297.881182 278.554956 
L 298.527899 272.095358 
L 299.166725 288.37042 
L 299.804996 286.171279 
L 300.448996 288.416446 
L 301.084886 289.142678 
L 301.713081 292.202065 
L 302.356586 262.655414 
L 302.991594 283.11839 
L 303.620267 281.19513 
L 304.263087 266.130711 
L 304.895545 286.418353 
L 305.526802 276.102366 
L 306.165925 285.682025 
L 306.798558 279.028831 
L 307.43302 290.633222 
L 308.70561 277.584204 
L 309.338276 281.746248 
L 309.979266 289.302004 
L 310.609414 275.193699 
L 311.240267 274.190576 
L 311.879432 267.755087 
L 312.511347 281.357964 
L 313.138163 282.413818 
L 313.788551 293.563526 
L 314.424667 290.446102 
L 315.065484 268.154459 
L 315.714432 258.657369 
L 316.352239 291.651782 
L 316.991701 191.492841 
L 317.634923 69.655357 
L 318.266006 246.784871 
L 318.897843 261.968801 
L 319.536298 282.467093 
L 320.168116 290.719052 
L 320.799322 277.171973 
L 321.439737 287.075822 
L 322.702237 290.046541 
L 323.340254 282.601756 
L 323.97246 277.400134 
L 324.589354 286.632722 
L 325.227111 286.819614 
L 325.860175 287.198353 
L 326.492527 291.290357 
L 327.12917 283.726342 
L 327.754563 292.945305 
L 328.386924 288.266704 
L 329.026626 288.570172 
L 329.656932 292.194761 
L 330.288601 292.813117 
L 330.930206 284.467088 
L 331.56674 268.691128 
L 332.198325 197.78002 
L 332.840788 287.215779 
L 333.475569 293.431421 
L 334.110332 285.358739 
L 335.392439 281.823108 
L 336.033395 278.366797 
L 336.683799 294.252013 
L 337.324507 281.001043 
L 337.965357 260.583954 
L 338.614831 284.733709 
L 339.257062 286.434955 
L 339.890743 284.121171 
L 340.522678 288.111041 
L 341.154952 294.068645 
L 341.786897 284.19627 
L 342.425253 284.78567 
L 343.052793 291.727771 
L 343.683604 288.335177 
L 344.332226 286.464252 
L 344.970478 254.214196 
L 345.613209 288.973655 
L 346.261089 284.967285 
L 346.904936 287.509822 
L 347.559551 289.437412 
L 348.219153 290.493645 
L 348.850109 285.121455 
L 349.480981 295.488 
L 350.120151 292.692912 
L 350.745002 285.860212 
L 351.376039 284.445522 
L 352.015912 284.130851 
L 352.646243 275.022353 
L 353.279781 285.227329 
L 353.920558 273.947372 
L 354.548 281.871609 
L 355.178966 282.880071 
L 355.80932 288.857321 
L 356.441894 282.060325 
L 357.077826 295.367555 
L 358.379217 279.352863 
L 359.008039 291.956703 
L 359.646108 291.054218 
L 360.275789 203.131498 
L 360.907044 287.521657 
L 361.546131 289.720417 
L 362.17811 138.059069 
L 362.810107 286.548843 
L 363.44765 262.442315 
L 364.077816 289.636952 
L 364.710019 265.860704 
L 365.350228 267.261066 
L 365.982213 269.861238 
L 366.615184 287.627257 
L 367.242722 286.768288 
L 367.876508 282.25226 
L 368.502138 235.786071 
L 369.144488 283.867894 
L 369.778372 294.232414 
L 370.411352 286.089186 
L 371.050864 285.08963 
L 372.315703 288.240857 
L 372.955603 278.793774 
L 373.589068 289.746034 
L 374.221755 289.386214 
L 374.861664 254.840171 
L 375.494913 289.318598 
L 376.128906 285.720157 
L 376.762136 284.231994 
L 377.393896 289.103718 
L 378.026088 278.079844 
L 378.665433 290.489768 
L 379.297395 286.741126 
L 379.92412 293.467212 
L 380.56271 284.854088 
L 381.19505 282.484378 
L 381.826941 287.456724 
L 382.466403 286.839993 
L 383.250171 284.283766 
L 383.888057 271.256679 
L 384.519465 284.782364 
L 385.157516 278.105105 
L 385.805236 277.051203 
L 386.442615 293.769086 
L 387.082464 292.301401 
L 387.728294 188.51465 
L 388.368275 287.628044 
L 389.009305 195.847028 
L 389.656207 281.89659 
L 390.298005 289.792031 
L 390.940028 287.388617 
L 391.588712 286.776707 
L 392.220432 269.568692 
L 392.854941 289.181469 
L 393.487979 283.610683 
L 394.121637 199.874148 
L 394.762151 291.628272 
L 395.395344 286.070773 
L 396.02852 291.255025 
L 396.666932 121.101985 
L 397.284776 288.921228 
L 397.916271 278.505558 
L 399.186246 281.932164 
L 399.818848 279.028103 
L 400.458233 286.875315 
L 401.090863 174.448704 
L 401.723539 286.443067 
L 402.36111 283.367776 
L 402.979589 286.406707 
L 403.764179 276.556932 
L 404.556112 289.226932 
L 405.187358 274.633738 
L 405.81994 286.744251 
L 406.460508 278.638085 
L 407.092862 281.904299 
L 407.726391 289.320247 
L 408.364855 292.589095 
L 408.997614 220.176253 
L 409.6302 294.995167 
L 410.27112 283.893799 
L 410.906152 282.886168 
L 411.541143 293.312793 
L 412.182901 294.624206 
L 412.816834 292.655843 
L 413.452033 291.323356 
L 414.094035 290.476942 
L 414.72 271.976807 
L 414.72 271.976807 
" style="fill:none;stroke:#000000;stroke-linecap:square;stroke-width:0.8;"/>
   </g>
   <g id="patch_3">
    <path d="M 57.6 307.584 
L 57.6 41.472 
" style="fill:none;stroke:#000000;stroke-linecap:square;stroke-linejoin:miter;stroke-width:0.8;"/>
   </g>
   <g id="patch_4">
    <path d="M 414.72 307.584 
L 414.72 41.472 
" style="fill:none;stroke:#000000;stroke-linecap:square;stroke-linejoin:miter;stroke-width:0.8;"/>
   </g>
   <g id="patch_5">
    <path d="M 57.6 307.584 
L 414.72 307.584 
" style="fill:none;stroke:#000000;stroke-linecap:square;stroke-linejoin:miter;stroke-width:0.8;"/>
   </g>
   <g id="patch_6">
    <path d="M 57.6 41.472 
L 414.72 41.472 
" style="fill:none;stroke:#000000;stroke-linecap:square;stroke-linejoin:miter;stroke-width:0.8;"/>
   </g>
  </g>
  <g id="axes_2">
   <g id="matplotlib.axis_3">
    <g id="xtick_8">
     <g id="line2d_32">
      <defs>
       <path d="M 0 0 
L 0 -3.5 
" id="m528ddc9f5f" style="stroke:#000000;stroke-width:0.8;"/>
      </defs>
      <g>
       <use style="stroke:#000000;stroke-width:0.8;" x="57.6" xlink:href="#m528ddc9f5f" y="41.472"/>
      </g>
     </g>
    </g>
    <g id="xtick_9">
     <g id="line2d_33">
      <g>
       <use style="stroke:#000000;stroke-width:0.8;" x="121.257754" xlink:href="#m528ddc9f5f" y="41.472"/>
      </g>
     </g>
     <g id="text_18">
      <!-- 100K -->
      <defs>
       <path d="M 9.8125 72.90625 
L 19.671875 72.90625 
L 19.671875 42.09375 
L 52.390625 72.90625 
L 65.09375 72.90625 
L 28.90625 38.921875 
L 67.671875 0 
L 54.6875 0 
L 19.671875 35.109375 
L 19.671875 0 
L 9.8125 0 
z
" id="DejaVuSans-75"/>
      </defs>
      <g transform="translate(108.435098 32.392313)scale(0.1 -0.1)">
       <use xlink:href="#DejaVuSans-49"/>
       <use x="63.623047" xlink:href="#DejaVuSans-48"/>
       <use x="127.246094" xlink:href="#DejaVuSans-48"/>
       <use x="190.869141" xlink:href="#DejaVuSans-75"/>
      </g>
     </g>
    </g>
    <g id="xtick_10">
     <g id="line2d_34">
      <g>
       <use style="stroke:#000000;stroke-width:0.8;" x="184.915508" xlink:href="#m528ddc9f5f" y="41.472"/>
      </g>
     </g>
     <g id="text_19">
      <!-- 200K -->
      <g transform="translate(172.092852 32.392313)scale(0.1 -0.1)">
       <use xlink:href="#DejaVuSans-50"/>
       <use x="63.623047" xlink:href="#DejaVuSans-48"/>
       <use x="127.246094" xlink:href="#DejaVuSans-48"/>
       <use x="190.869141" xlink:href="#DejaVuSans-75"/>
      </g>
     </g>
    </g>
    <g id="xtick_11">
     <g id="line2d_35">
      <g>
       <use style="stroke:#000000;stroke-width:0.8;" x="248.573262" xlink:href="#m528ddc9f5f" y="41.472"/>
      </g>
     </g>
     <g id="text_20">
      <!-- 300K -->
      <g transform="translate(235.750606 32.392313)scale(0.1 -0.1)">
       <use xlink:href="#DejaVuSans-51"/>
       <use x="63.623047" xlink:href="#DejaVuSans-48"/>
       <use x="127.246094" xlink:href="#DejaVuSans-48"/>
       <use x="190.869141" xlink:href="#DejaVuSans-75"/>
      </g>
     </g>
    </g>
    <g id="xtick_12">
     <g id="line2d_36">
      <g>
       <use style="stroke:#000000;stroke-width:0.8;" x="312.231016" xlink:href="#m528ddc9f5f" y="41.472"/>
      </g>
     </g>
     <g id="text_21">
      <!-- 400K -->
      <g transform="translate(299.40836 32.392313)scale(0.1 -0.1)">
       <use xlink:href="#DejaVuSans-52"/>
       <use x="63.623047" xlink:href="#DejaVuSans-48"/>
       <use x="127.246094" xlink:href="#DejaVuSans-48"/>
       <use x="190.869141" xlink:href="#DejaVuSans-75"/>
      </g>
     </g>
    </g>
    <g id="xtick_13">
     <g id="line2d_37">
      <g>
       <use style="stroke:#000000;stroke-width:0.8;" x="375.88877" xlink:href="#m528ddc9f5f" y="41.472"/>
      </g>
     </g>
     <g id="text_22">
      <!-- 500K -->
      <g transform="translate(363.066114 32.392313)scale(0.1 -0.1)">
       <use xlink:href="#DejaVuSans-53"/>
       <use x="63.623047" xlink:href="#DejaVuSans-48"/>
       <use x="127.246094" xlink:href="#DejaVuSans-48"/>
       <use x="190.869141" xlink:href="#DejaVuSans-75"/>
      </g>
     </g>
    </g>
    <g id="text_23">
     <!-- Steps -->
     <defs>
      <path d="M 53.515625 70.515625 
L 53.515625 60.890625 
Q 47.90625 63.578125 42.921875 64.890625 
Q 37.9375 66.21875 33.296875 66.21875 
Q 25.25 66.21875 20.875 63.09375 
Q 16.5 59.96875 16.5 54.203125 
Q 16.5 49.359375 19.40625 46.890625 
Q 22.3125 44.4375 30.421875 42.921875 
L 36.375 41.703125 
Q 47.40625 39.59375 52.65625 34.296875 
Q 57.90625 29 57.90625 20.125 
Q 57.90625 9.515625 50.796875 4.046875 
Q 43.703125 -1.421875 29.984375 -1.421875 
Q 24.8125 -1.421875 18.96875 -0.25 
Q 13.140625 0.921875 6.890625 3.21875 
L 6.890625 13.375 
Q 12.890625 10.015625 18.65625 8.296875 
Q 24.421875 6.59375 29.984375 6.59375 
Q 38.421875 6.59375 43.015625 9.90625 
Q 47.609375 13.234375 47.609375 19.390625 
Q 47.609375 24.75 44.3125 27.78125 
Q 41.015625 30.8125 33.5 32.328125 
L 27.484375 33.5 
Q 16.453125 35.6875 11.515625 40.375 
Q 6.59375 45.0625 6.59375 53.421875 
Q 6.59375 63.09375 13.40625 68.65625 
Q 20.21875 74.21875 32.171875 74.21875 
Q 37.3125 74.21875 42.625 73.28125 
Q 47.953125 72.359375 53.515625 70.515625 
z
" id="DejaVuSans-83"/>
      <path d="M 18.3125 70.21875 
L 18.3125 54.6875 
L 36.8125 54.6875 
L 36.8125 47.703125 
L 18.3125 47.703125 
L 18.3125 18.015625 
Q 18.3125 11.328125 20.140625 9.421875 
Q 21.96875 7.515625 27.59375 7.515625 
L 36.8125 7.515625 
L 36.8125 0 
L 27.59375 0 
Q 17.1875 0 13.234375 3.875 
Q 9.28125 7.765625 9.28125 18.015625 
L 9.28125 47.703125 
L 2.6875 47.703125 
L 2.6875 54.6875 
L 9.28125 54.6875 
L 9.28125 70.21875 
z
" id="DejaVuSans-116"/>
      <path d="M 18.109375 8.203125 
L 18.109375 -20.796875 
L 9.078125 -20.796875 
L 9.078125 54.6875 
L 18.109375 54.6875 
L 18.109375 46.390625 
Q 20.953125 51.265625 25.265625 53.625 
Q 29.59375 56 35.59375 56 
Q 45.5625 56 51.78125 48.09375 
Q 58.015625 40.1875 58.015625 27.296875 
Q 58.015625 14.40625 51.78125 6.484375 
Q 45.5625 -1.421875 35.59375 -1.421875 
Q 29.59375 -1.421875 25.265625 0.953125 
Q 20.953125 3.328125 18.109375 8.203125 
z
M 48.6875 27.296875 
Q 48.6875 37.203125 44.609375 42.84375 
Q 40.53125 48.484375 33.40625 48.484375 
Q 26.265625 48.484375 22.1875 42.84375 
Q 18.109375 37.203125 18.109375 27.296875 
Q 18.109375 17.390625 22.1875 11.75 
Q 26.265625 6.109375 33.40625 6.109375 
Q 40.53125 6.109375 44.609375 11.75 
Q 48.6875 17.390625 48.6875 27.296875 
z
" id="DejaVuSans-112"/>
     </defs>
     <g transform="translate(222.170156 20.793875)scale(0.1 -0.1)">
      <use xlink:href="#DejaVuSans-83"/>
      <use x="63.476562" xlink:href="#DejaVuSans-116"/>
      <use x="102.685547" xlink:href="#DejaVuSans-101"/>
      <use x="164.208984" xlink:href="#DejaVuSans-112"/>
      <use x="227.685547" xlink:href="#DejaVuSans-115"/>
     </g>
    </g>
   </g>
   <g id="patch_7">
    <path d="M 57.6 307.584 
L 57.6 41.472 
" style="fill:none;stroke:#000000;stroke-linecap:square;stroke-linejoin:miter;stroke-width:0.8;"/>
   </g>
   <g id="patch_8">
    <path d="M 414.72 307.584 
L 414.72 41.472 
" style="fill:none;stroke:#000000;stroke-linecap:square;stroke-linejoin:miter;stroke-width:0.8;"/>
   </g>
   <g id="patch_9">
    <path d="M 57.6 307.584 
L 414.72 307.584 
" style="fill:none;stroke:#000000;stroke-linecap:square;stroke-linejoin:miter;stroke-width:0.8;"/>
   </g>
   <g id="patch_10">
    <path d="M 57.6 41.472 
L 414.72 41.472 
" style="fill:none;stroke:#000000;stroke-linecap:square;stroke-linejoin:miter;stroke-width:0.8;"/>
   </g>
  </g>
 </g>
 <defs>
  <clipPath id="p200bb9fbae">
   <rect height="266.112" width="357.12" x="57.6" y="41.472"/>
  </clipPath>
 </defs>
</svg>
