<?xml version="1.0" encoding="utf-8" standalone="no"?>
<!DOCTYPE svg PUBLIC "-//W3C//DTD SVG 1.1//EN"
  "http://www.w3.org/Graphics/SVG/1.1/DTD/svg11.dtd">
<!-- Created with matplotlib (https://matplotlib.org/) -->
<svg height="345.6pt" version="1.1" viewBox="0 0 460.8 345.6" width="460.8pt" xmlns="http://www.w3.org/2000/svg" xmlns:xlink="http://www.w3.org/1999/xlink">
 <defs>
  <style type="text/css">
*{stroke-linecap:butt;stroke-linejoin:round;}
  </style>
 </defs>
 <g id="figure_1">
  <g id="patch_1">
   <path d="M 0 345.6 
L 460.8 345.6 
L 460.8 0 
L 0 0 
z
" style="fill:#ffffff;"/>
  </g>
  <g id="axes_1">
   <g id="patch_2">
    <path d="M 57.6 307.584 
L 414.72 307.584 
L 414.72 41.472 
L 57.6 41.472 
z
" style="fill:#ffffff;"/>
   </g>
   <g id="matplotlib.axis_1">
    <g id="xtick_1">
     <g id="line2d_1">
      <path clip-path="url(#pb888c4a57e)" d="M 57.6 307.584 
L 57.6 41.472 
" style="fill:none;stroke:#b0b0b0;stroke-linecap:square;stroke-width:0.8;"/>
     </g>
     <g id="line2d_2">
      <defs>
       <path d="M 0 0 
L 0 3.5 
" id="m23677daad7" style="stroke:#000000;stroke-width:0.8;"/>
      </defs>
      <g>
       <use style="stroke:#000000;stroke-width:0.8;" x="57.6" xlink:href="#m23677daad7" y="307.584"/>
      </g>
     </g>
     <g id="text_1">
      <!-- 0.0 -->
      <defs>
       <path d="M 31.78125 66.40625 
Q 24.171875 66.40625 20.328125 58.90625 
Q 16.5 51.421875 16.5 36.375 
Q 16.5 21.390625 20.328125 13.890625 
Q 24.171875 6.390625 31.78125 6.390625 
Q 39.453125 6.390625 43.28125 13.890625 
Q 47.125 21.390625 47.125 36.375 
Q 47.125 51.421875 43.28125 58.90625 
Q 39.453125 66.40625 31.78125 66.40625 
z
M 31.78125 74.21875 
Q 44.046875 74.21875 50.515625 64.515625 
Q 56.984375 54.828125 56.984375 36.375 
Q 56.984375 17.96875 50.515625 8.265625 
Q 44.046875 -1.421875 31.78125 -1.421875 
Q 19.53125 -1.421875 13.0625 8.265625 
Q 6.59375 17.96875 6.59375 36.375 
Q 6.59375 54.828125 13.0625 64.515625 
Q 19.53125 74.21875 31.78125 74.21875 
z
" id="DejaVuSans-48"/>
       <path d="M 10.6875 12.40625 
L 21 12.40625 
L 21 0 
L 10.6875 0 
z
" id="DejaVuSans-46"/>
      </defs>
      <g transform="translate(49.648438 322.182437)scale(0.1 -0.1)">
       <use xlink:href="#DejaVuSans-48"/>
       <use x="63.623047" xlink:href="#DejaVuSans-46"/>
       <use x="95.410156" xlink:href="#DejaVuSans-48"/>
      </g>
     </g>
    </g>
    <g id="xtick_2">
     <g id="line2d_3">
      <path clip-path="url(#pb888c4a57e)" d="M 134.677588 307.584 
L 134.677588 41.472 
" style="fill:none;stroke:#b0b0b0;stroke-linecap:square;stroke-width:0.8;"/>
     </g>
     <g id="line2d_4">
      <g>
       <use style="stroke:#000000;stroke-width:0.8;" x="134.677588" xlink:href="#m23677daad7" y="307.584"/>
      </g>
     </g>
     <g id="text_2">
      <!-- 0.1 -->
      <defs>
       <path d="M 12.40625 8.296875 
L 28.515625 8.296875 
L 28.515625 63.921875 
L 10.984375 60.40625 
L 10.984375 69.390625 
L 28.421875 72.90625 
L 38.28125 72.90625 
L 38.28125 8.296875 
L 54.390625 8.296875 
L 54.390625 0 
L 12.40625 0 
z
" id="DejaVuSans-49"/>
      </defs>
      <g transform="translate(126.726026 322.182437)scale(0.1 -0.1)">
       <use xlink:href="#DejaVuSans-48"/>
       <use x="63.623047" xlink:href="#DejaVuSans-46"/>
       <use x="95.410156" xlink:href="#DejaVuSans-49"/>
      </g>
     </g>
    </g>
    <g id="xtick_3">
     <g id="line2d_5">
      <path clip-path="url(#pb888c4a57e)" d="M 211.755177 307.584 
L 211.755177 41.472 
" style="fill:none;stroke:#b0b0b0;stroke-linecap:square;stroke-width:0.8;"/>
     </g>
     <g id="line2d_6">
      <g>
       <use style="stroke:#000000;stroke-width:0.8;" x="211.755177" xlink:href="#m23677daad7" y="307.584"/>
      </g>
     </g>
     <g id="text_3">
      <!-- 0.2 -->
      <defs>
       <path d="M 19.1875 8.296875 
L 53.609375 8.296875 
L 53.609375 0 
L 7.328125 0 
L 7.328125 8.296875 
Q 12.9375 14.109375 22.625 23.890625 
Q 32.328125 33.6875 34.8125 36.53125 
Q 39.546875 41.84375 41.421875 45.53125 
Q 43.3125 49.21875 43.3125 52.78125 
Q 43.3125 58.59375 39.234375 62.25 
Q 35.15625 65.921875 28.609375 65.921875 
Q 23.96875 65.921875 18.8125 64.3125 
Q 13.671875 62.703125 7.8125 59.421875 
L 7.8125 69.390625 
Q 13.765625 71.78125 18.9375 73 
Q 24.125 74.21875 28.421875 74.21875 
Q 39.75 74.21875 46.484375 68.546875 
Q 53.21875 62.890625 53.21875 53.421875 
Q 53.21875 48.921875 51.53125 44.890625 
Q 49.859375 40.875 45.40625 35.40625 
Q 44.1875 33.984375 37.640625 27.21875 
Q 31.109375 20.453125 19.1875 8.296875 
z
" id="DejaVuSans-50"/>
      </defs>
      <g transform="translate(203.803614 322.182437)scale(0.1 -0.1)">
       <use xlink:href="#DejaVuSans-48"/>
       <use x="63.623047" xlink:href="#DejaVuSans-46"/>
       <use x="95.410156" xlink:href="#DejaVuSans-50"/>
      </g>
     </g>
    </g>
    <g id="xtick_4">
     <g id="line2d_7">
      <path clip-path="url(#pb888c4a57e)" d="M 288.832765 307.584 
L 288.832765 41.472 
" style="fill:none;stroke:#b0b0b0;stroke-linecap:square;stroke-width:0.8;"/>
     </g>
     <g id="line2d_8">
      <g>
       <use style="stroke:#000000;stroke-width:0.8;" x="288.832765" xlink:href="#m23677daad7" y="307.584"/>
      </g>
     </g>
     <g id="text_4">
      <!-- 0.3 -->
      <defs>
       <path d="M 40.578125 39.3125 
Q 47.65625 37.796875 51.625 33 
Q 55.609375 28.21875 55.609375 21.1875 
Q 55.609375 10.40625 48.1875 4.484375 
Q 40.765625 -1.421875 27.09375 -1.421875 
Q 22.515625 -1.421875 17.65625 -0.515625 
Q 12.796875 0.390625 7.625 2.203125 
L 7.625 11.71875 
Q 11.71875 9.328125 16.59375 8.109375 
Q 21.484375 6.890625 26.8125 6.890625 
Q 36.078125 6.890625 40.9375 10.546875 
Q 45.796875 14.203125 45.796875 21.1875 
Q 45.796875 27.640625 41.28125 31.265625 
Q 36.765625 34.90625 28.71875 34.90625 
L 20.21875 34.90625 
L 20.21875 43.015625 
L 29.109375 43.015625 
Q 36.375 43.015625 40.234375 45.921875 
Q 44.09375 48.828125 44.09375 54.296875 
Q 44.09375 59.90625 40.109375 62.90625 
Q 36.140625 65.921875 28.71875 65.921875 
Q 24.65625 65.921875 20.015625 65.03125 
Q 15.375 64.15625 9.8125 62.3125 
L 9.8125 71.09375 
Q 15.4375 72.65625 20.34375 73.4375 
Q 25.25 74.21875 29.59375 74.21875 
Q 40.828125 74.21875 47.359375 69.109375 
Q 53.90625 64.015625 53.90625 55.328125 
Q 53.90625 49.265625 50.4375 45.09375 
Q 46.96875 40.921875 40.578125 39.3125 
z
" id="DejaVuSans-51"/>
      </defs>
      <g transform="translate(280.881202 322.182437)scale(0.1 -0.1)">
       <use xlink:href="#DejaVuSans-48"/>
       <use x="63.623047" xlink:href="#DejaVuSans-46"/>
       <use x="95.410156" xlink:href="#DejaVuSans-51"/>
      </g>
     </g>
    </g>
    <g id="xtick_5">
     <g id="line2d_9">
      <path clip-path="url(#pb888c4a57e)" d="M 365.910353 307.584 
L 365.910353 41.472 
" style="fill:none;stroke:#b0b0b0;stroke-linecap:square;stroke-width:0.8;"/>
     </g>
     <g id="line2d_10">
      <g>
       <use style="stroke:#000000;stroke-width:0.8;" x="365.910353" xlink:href="#m23677daad7" y="307.584"/>
      </g>
     </g>
     <g id="text_5">
      <!-- 0.4 -->
      <defs>
       <path d="M 37.796875 64.3125 
L 12.890625 25.390625 
L 37.796875 25.390625 
z
M 35.203125 72.90625 
L 47.609375 72.90625 
L 47.609375 25.390625 
L 58.015625 25.390625 
L 58.015625 17.1875 
L 47.609375 17.1875 
L 47.609375 0 
L 37.796875 0 
L 37.796875 17.1875 
L 4.890625 17.1875 
L 4.890625 26.703125 
z
" id="DejaVuSans-52"/>
      </defs>
      <g transform="translate(357.958791 322.182437)scale(0.1 -0.1)">
       <use xlink:href="#DejaVuSans-48"/>
       <use x="63.623047" xlink:href="#DejaVuSans-46"/>
       <use x="95.410156" xlink:href="#DejaVuSans-52"/>
      </g>
     </g>
    </g>
    <g id="text_6">
     <!-- Hours -->
     <defs>
      <path d="M 9.8125 72.90625 
L 19.671875 72.90625 
L 19.671875 43.015625 
L 55.515625 43.015625 
L 55.515625 72.90625 
L 65.375 72.90625 
L 65.375 0 
L 55.515625 0 
L 55.515625 34.71875 
L 19.671875 34.71875 
L 19.671875 0 
L 9.8125 0 
z
" id="DejaVuSans-72"/>
      <path d="M 30.609375 48.390625 
Q 23.390625 48.390625 19.1875 42.75 
Q 14.984375 37.109375 14.984375 27.296875 
Q 14.984375 17.484375 19.15625 11.84375 
Q 23.34375 6.203125 30.609375 6.203125 
Q 37.796875 6.203125 41.984375 11.859375 
Q 46.1875 17.53125 46.1875 27.296875 
Q 46.1875 37.015625 41.984375 42.703125 
Q 37.796875 48.390625 30.609375 48.390625 
z
M 30.609375 56 
Q 42.328125 56 49.015625 48.375 
Q 55.71875 40.765625 55.71875 27.296875 
Q 55.71875 13.875 49.015625 6.21875 
Q 42.328125 -1.421875 30.609375 -1.421875 
Q 18.84375 -1.421875 12.171875 6.21875 
Q 5.515625 13.875 5.515625 27.296875 
Q 5.515625 40.765625 12.171875 48.375 
Q 18.84375 56 30.609375 56 
z
" id="DejaVuSans-111"/>
      <path d="M 8.5 21.578125 
L 8.5 54.6875 
L 17.484375 54.6875 
L 17.484375 21.921875 
Q 17.484375 14.15625 20.5 10.265625 
Q 23.53125 6.390625 29.59375 6.390625 
Q 36.859375 6.390625 41.078125 11.03125 
Q 45.3125 15.671875 45.3125 23.6875 
L 45.3125 54.6875 
L 54.296875 54.6875 
L 54.296875 0 
L 45.3125 0 
L 45.3125 8.40625 
Q 42.046875 3.421875 37.71875 1 
Q 33.40625 -1.421875 27.6875 -1.421875 
Q 18.265625 -1.421875 13.375 4.4375 
Q 8.5 10.296875 8.5 21.578125 
z
M 31.109375 56 
z
" id="DejaVuSans-117"/>
      <path d="M 41.109375 46.296875 
Q 39.59375 47.171875 37.8125 47.578125 
Q 36.03125 48 33.890625 48 
Q 26.265625 48 22.1875 43.046875 
Q 18.109375 38.09375 18.109375 28.8125 
L 18.109375 0 
L 9.078125 0 
L 9.078125 54.6875 
L 18.109375 54.6875 
L 18.109375 46.1875 
Q 20.953125 51.171875 25.484375 53.578125 
Q 30.03125 56 36.53125 56 
Q 37.453125 56 38.578125 55.875 
Q 39.703125 55.765625 41.0625 55.515625 
z
" id="DejaVuSans-114"/>
      <path d="M 44.28125 53.078125 
L 44.28125 44.578125 
Q 40.484375 46.53125 36.375 47.5 
Q 32.28125 48.484375 27.875 48.484375 
Q 21.1875 48.484375 17.84375 46.4375 
Q 14.5 44.390625 14.5 40.28125 
Q 14.5 37.15625 16.890625 35.375 
Q 19.28125 33.59375 26.515625 31.984375 
L 29.59375 31.296875 
Q 39.15625 29.25 43.1875 25.515625 
Q 47.21875 21.78125 47.21875 15.09375 
Q 47.21875 7.46875 41.1875 3.015625 
Q 35.15625 -1.421875 24.609375 -1.421875 
Q 20.21875 -1.421875 15.453125 -0.5625 
Q 10.6875 0.296875 5.421875 2 
L 5.421875 11.28125 
Q 10.40625 8.6875 15.234375 7.390625 
Q 20.0625 6.109375 24.8125 6.109375 
Q 31.15625 6.109375 34.5625 8.28125 
Q 37.984375 10.453125 37.984375 14.40625 
Q 37.984375 18.0625 35.515625 20.015625 
Q 33.0625 21.96875 24.703125 23.78125 
L 21.578125 24.515625 
Q 13.234375 26.265625 9.515625 29.90625 
Q 5.8125 33.546875 5.8125 39.890625 
Q 5.8125 47.609375 11.28125 51.796875 
Q 16.75 56 26.8125 56 
Q 31.78125 56 36.171875 55.265625 
Q 40.578125 54.546875 44.28125 53.078125 
z
" id="DejaVuSans-115"/>
     </defs>
     <g transform="translate(221.511562 335.860562)scale(0.1 -0.1)">
      <use xlink:href="#DejaVuSans-72"/>
      <use x="75.195312" xlink:href="#DejaVuSans-111"/>
      <use x="136.376953" xlink:href="#DejaVuSans-117"/>
      <use x="199.755859" xlink:href="#DejaVuSans-114"/>
      <use x="240.869141" xlink:href="#DejaVuSans-115"/>
     </g>
    </g>
   </g>
   <g id="matplotlib.axis_2">
    <g id="ytick_1">
     <g id="line2d_11">
      <path clip-path="url(#pb888c4a57e)" d="M 57.6 296.189261 
L 414.72 296.189261 
" style="fill:none;stroke:#b0b0b0;stroke-linecap:square;stroke-width:0.8;"/>
     </g>
     <g id="line2d_12">
      <defs>
       <path d="M 0 0 
L -3.5 0 
" id="m9fe79b7484" style="stroke:#000000;stroke-width:0.8;"/>
      </defs>
      <g>
       <use style="stroke:#000000;stroke-width:0.8;" x="57.6" xlink:href="#m9fe79b7484" y="296.189261"/>
      </g>
     </g>
     <g id="text_7">
      <!-- 0 -->
      <g transform="translate(44.2375 299.98848)scale(0.1 -0.1)">
       <use xlink:href="#DejaVuSans-48"/>
      </g>
     </g>
    </g>
    <g id="ytick_2">
     <g id="line2d_13">
      <path clip-path="url(#pb888c4a57e)" d="M 57.6 249.64405 
L 414.72 249.64405 
" style="fill:none;stroke:#b0b0b0;stroke-linecap:square;stroke-width:0.8;"/>
     </g>
     <g id="line2d_14">
      <g>
       <use style="stroke:#000000;stroke-width:0.8;" x="57.6" xlink:href="#m9fe79b7484" y="249.64405"/>
      </g>
     </g>
     <g id="text_8">
      <!-- 20 -->
      <g transform="translate(37.875 253.443269)scale(0.1 -0.1)">
       <use xlink:href="#DejaVuSans-50"/>
       <use x="63.623047" xlink:href="#DejaVuSans-48"/>
      </g>
     </g>
    </g>
    <g id="ytick_3">
     <g id="line2d_15">
      <path clip-path="url(#pb888c4a57e)" d="M 57.6 203.09884 
L 414.72 203.09884 
" style="fill:none;stroke:#b0b0b0;stroke-linecap:square;stroke-width:0.8;"/>
     </g>
     <g id="line2d_16">
      <g>
       <use style="stroke:#000000;stroke-width:0.8;" x="57.6" xlink:href="#m9fe79b7484" y="203.09884"/>
      </g>
     </g>
     <g id="text_9">
      <!-- 40 -->
      <g transform="translate(37.875 206.898058)scale(0.1 -0.1)">
       <use xlink:href="#DejaVuSans-52"/>
       <use x="63.623047" xlink:href="#DejaVuSans-48"/>
      </g>
     </g>
    </g>
    <g id="ytick_4">
     <g id="line2d_17">
      <path clip-path="url(#pb888c4a57e)" d="M 57.6 156.553629 
L 414.72 156.553629 
" style="fill:none;stroke:#b0b0b0;stroke-linecap:square;stroke-width:0.8;"/>
     </g>
     <g id="line2d_18">
      <g>
       <use style="stroke:#000000;stroke-width:0.8;" x="57.6" xlink:href="#m9fe79b7484" y="156.553629"/>
      </g>
     </g>
     <g id="text_10">
      <!-- 60 -->
      <defs>
       <path d="M 33.015625 40.375 
Q 26.375 40.375 22.484375 35.828125 
Q 18.609375 31.296875 18.609375 23.390625 
Q 18.609375 15.53125 22.484375 10.953125 
Q 26.375 6.390625 33.015625 6.390625 
Q 39.65625 6.390625 43.53125 10.953125 
Q 47.40625 15.53125 47.40625 23.390625 
Q 47.40625 31.296875 43.53125 35.828125 
Q 39.65625 40.375 33.015625 40.375 
z
M 52.59375 71.296875 
L 52.59375 62.3125 
Q 48.875 64.0625 45.09375 64.984375 
Q 41.3125 65.921875 37.59375 65.921875 
Q 27.828125 65.921875 22.671875 59.328125 
Q 17.53125 52.734375 16.796875 39.40625 
Q 19.671875 43.65625 24.015625 45.921875 
Q 28.375 48.1875 33.59375 48.1875 
Q 44.578125 48.1875 50.953125 41.515625 
Q 57.328125 34.859375 57.328125 23.390625 
Q 57.328125 12.15625 50.6875 5.359375 
Q 44.046875 -1.421875 33.015625 -1.421875 
Q 20.359375 -1.421875 13.671875 8.265625 
Q 6.984375 17.96875 6.984375 36.375 
Q 6.984375 53.65625 15.1875 63.9375 
Q 23.390625 74.21875 37.203125 74.21875 
Q 40.921875 74.21875 44.703125 73.484375 
Q 48.484375 72.75 52.59375 71.296875 
z
" id="DejaVuSans-54"/>
      </defs>
      <g transform="translate(37.875 160.352848)scale(0.1 -0.1)">
       <use xlink:href="#DejaVuSans-54"/>
       <use x="63.623047" xlink:href="#DejaVuSans-48"/>
      </g>
     </g>
    </g>
    <g id="ytick_5">
     <g id="line2d_19">
      <path clip-path="url(#pb888c4a57e)" d="M 57.6 110.008418 
L 414.72 110.008418 
" style="fill:none;stroke:#b0b0b0;stroke-linecap:square;stroke-width:0.8;"/>
     </g>
     <g id="line2d_20">
      <g>
       <use style="stroke:#000000;stroke-width:0.8;" x="57.6" xlink:href="#m9fe79b7484" y="110.008418"/>
      </g>
     </g>
     <g id="text_11">
      <!-- 80 -->
      <defs>
       <path d="M 31.78125 34.625 
Q 24.75 34.625 20.71875 30.859375 
Q 16.703125 27.09375 16.703125 20.515625 
Q 16.703125 13.921875 20.71875 10.15625 
Q 24.75 6.390625 31.78125 6.390625 
Q 38.8125 6.390625 42.859375 10.171875 
Q 46.921875 13.96875 46.921875 20.515625 
Q 46.921875 27.09375 42.890625 30.859375 
Q 38.875 34.625 31.78125 34.625 
z
M 21.921875 38.8125 
Q 15.578125 40.375 12.03125 44.71875 
Q 8.5 49.078125 8.5 55.328125 
Q 8.5 64.0625 14.71875 69.140625 
Q 20.953125 74.21875 31.78125 74.21875 
Q 42.671875 74.21875 48.875 69.140625 
Q 55.078125 64.0625 55.078125 55.328125 
Q 55.078125 49.078125 51.53125 44.71875 
Q 48 40.375 41.703125 38.8125 
Q 48.828125 37.15625 52.796875 32.3125 
Q 56.78125 27.484375 56.78125 20.515625 
Q 56.78125 9.90625 50.3125 4.234375 
Q 43.84375 -1.421875 31.78125 -1.421875 
Q 19.734375 -1.421875 13.25 4.234375 
Q 6.78125 9.90625 6.78125 20.515625 
Q 6.78125 27.484375 10.78125 32.3125 
Q 14.796875 37.15625 21.921875 38.8125 
z
M 18.3125 54.390625 
Q 18.3125 48.734375 21.84375 45.5625 
Q 25.390625 42.390625 31.78125 42.390625 
Q 38.140625 42.390625 41.71875 45.5625 
Q 45.3125 48.734375 45.3125 54.390625 
Q 45.3125 60.0625 41.71875 63.234375 
Q 38.140625 66.40625 31.78125 66.40625 
Q 25.390625 66.40625 21.84375 63.234375 
Q 18.3125 60.0625 18.3125 54.390625 
z
" id="DejaVuSans-56"/>
      </defs>
      <g transform="translate(37.875 113.807637)scale(0.1 -0.1)">
       <use xlink:href="#DejaVuSans-56"/>
       <use x="63.623047" xlink:href="#DejaVuSans-48"/>
      </g>
     </g>
    </g>
    <g id="ytick_6">
     <g id="line2d_21">
      <path clip-path="url(#pb888c4a57e)" d="M 57.6 63.463207 
L 414.72 63.463207 
" style="fill:none;stroke:#b0b0b0;stroke-linecap:square;stroke-width:0.8;"/>
     </g>
     <g id="line2d_22">
      <g>
       <use style="stroke:#000000;stroke-width:0.8;" x="57.6" xlink:href="#m9fe79b7484" y="63.463207"/>
      </g>
     </g>
     <g id="text_12">
      <!-- 100 -->
      <g transform="translate(31.5125 67.262426)scale(0.1 -0.1)">
       <use xlink:href="#DejaVuSans-49"/>
       <use x="63.623047" xlink:href="#DejaVuSans-48"/>
       <use x="127.246094" xlink:href="#DejaVuSans-48"/>
      </g>
     </g>
    </g>
    <g id="text_13">
     <!-- Loss -->
     <defs>
      <path d="M 9.8125 72.90625 
L 19.671875 72.90625 
L 19.671875 8.296875 
L 55.171875 8.296875 
L 55.171875 0 
L 9.8125 0 
z
" id="DejaVuSans-76"/>
     </defs>
     <g transform="translate(25.432812 185.581906)rotate(-90)scale(0.1 -0.1)">
      <use xlink:href="#DejaVuSans-76"/>
      <use x="55.697266" xlink:href="#DejaVuSans-111"/>
      <use x="116.878906" xlink:href="#DejaVuSans-115"/>
      <use x="168.978516" xlink:href="#DejaVuSans-115"/>
     </g>
    </g>
   </g>
   <g id="line2d_23">
    <path clip-path="url(#pb888c4a57e)" d="M 57.6 295.488 
L 58.052423 292.088802 
L 58.107652 293.206837 
L 58.321601 291.607002 
L 58.605349 287.269651 
L 59.040522 286.890264 
L 60.316278 272.469694 
L 60.496606 275.554881 
L 61.68483 259.607885 
L 61.786569 260.87662 
L 62.195669 257.251357 
L 62.548815 248.116901 
L 63.211224 252.640341 
L 63.25199 242.390972 
L 63.400967 243.806843 
L 63.966849 245.449683 
L 64.347003 234.06543 
L 65.385829 223.732716 
L 65.784812 237.352216 
L 66.142158 244.071343 
L 66.409673 206.878676 
L 67.631427 224.952671 
L 68.158755 224.372849 
L 68.460706 225.368281 
L 68.59503 210.832082 
L 68.613546 217.083523 
L 69.252751 217.708866 
L 69.51711 224.469027 
L 69.762966 208.154007 
L 70.031319 209.645032 
L 70.23048 209.669615 
L 71.052105 214.195941 
L 71.205024 189.536872 
L 71.367275 211.047324 
L 72.03416 202.07436 
L 72.149646 221.824558 
L 72.427509 158.95699 
L 72.464895 210.544965 
L 72.599329 212.417292 
L 72.752137 206.747808 
L 72.864033 211.239298 
L 73.44265 185.674055 
L 75.530076 217.211612 
L 75.864219 219.591811 
L 76.035674 211.41712 
L 76.05447 196.245458 
L 76.166588 200.418341 
L 76.28198 214.268454 
L 76.626653 176.95512 
L 76.695878 206.223646 
L 76.867688 173.028889 
L 77.809233 177.838833 
L 77.981141 209.912529 
L 78.093285 198.823498 
L 78.380608 189.174117 
L 78.593997 204.128539 
L 79.596814 198.016498 
L 79.745156 193.945257 
L 80.097794 215.147605 
L 80.344213 179.372703 
L 81.330612 172.371817 
L 81.655186 193.52246 
L 82.71102 190.272886 
L 82.767092 188.46582 
L 83.036606 195.046662 
L 83.1162 163.240073 
L 84.041892 172.408748 
L 84.176453 179.772461 
L 84.628024 178.789299 
L 84.856216 203.789354 
L 85.046875 165.1851 
L 85.633829 196.814098 
L 85.844241 182.224988 
L 85.998353 182.530925 
L 86.115276 181.909906 
L 86.73977 183.169878 
L 87.298182 183.513777 
L 87.609127 162.70104 
L 87.927347 183.114836 
L 88.002793 174.87215 
L 88.330239 177.67692 
L 89.054033 164.01292 
L 89.875656 128.428332 
L 90.049203 179.514402 
L 90.162639 173.286558 
L 90.260803 149.180283 
L 90.393006 153.340489 
L 90.837983 192.485729 
L 90.971514 159.932455 
L 91.817598 165.406272 
L 92.683404 162.504175 
L 93.027803 156.651009 
L 93.209202 171.354581 
L 93.456347 174.777726 
L 93.512383 178.308371 
L 93.665713 140.943625 
L 94.441956 165.44806 
L 94.767784 165.036539 
L 95.014538 177.34292 
L 95.405641 172.762324 
L 96.096191 173.430431 
L 96.332983 148.736926 
L 97.486231 189.277135 
L 97.542475 156.688181 
L 97.561057 170.425227 
L 97.714396 148.96703 
L 97.789175 150.269757 
L 97.92389 148.317095 
L 98.949463 146.538021 
L 99.084205 178.374759 
L 99.256186 141.68066 
L 99.683821 138.322616 
L 99.762165 175.982096 
L 99.912578 145.419135 
L 100.065771 178.45964 
L 100.145444 129.43962 
L 100.643649 192.86996 
L 100.750185 164.052018 
L 101.034754 181.958894 
L 101.132048 163.262889 
L 101.495167 141.371251 
L 101.807146 132.197116 
L 102.032601 151.609834 
L 102.262907 113.242634 
L 102.949863 155.284522 
L 103.615926 146.62252 
L 103.638294 156.056286 
L 103.675823 143.715095 
L 104.529394 162.728739 
L 104.682541 125.680087 
L 104.85444 123.546025 
L 104.993695 157.341515 
L 105.473943 179.965953 
L 105.4928 169.445536 
L 105.683623 182.986756 
L 105.818031 115.09369 
L 106.094152 157.33958 
L 106.209904 111.670412 
L 106.382104 128.727194 
L 106.671547 143.315772 
L 106.78762 141.79007 
L 107.808653 139.34058 
L 109.373553 142.398998 
L 109.470927 150.404132 
L 109.718313 115.380638 
L 110.431971 118.938059 
L 110.703003 125.621618 
L 111.37413 118.31031 
L 112.981477 126.769268 
L 113.444091 127.112306 
L 113.912625 156.769954 
L 114.818115 156.373339 
L 114.971519 127.92038 
L 115.665531 161.213805 
L 116.076404 163.205414 
L 116.226459 173.119442 
L 116.286089 161.821792 
L 117.406816 123.599558 
L 118.490285 106.316978 
L 118.909827 160.193391 
L 119.26371 155.226443 
L 119.282619 137.485529 
L 119.93966 172.665814 
L 120.13085 156.411682 
L 120.186973 165.846806 
L 120.205875 151.179314 
L 120.272511 124.708022 
L 120.753126 175.443906 
L 121.39138 156.879098 
L 122.160553 124.134072 
L 122.795457 176.842772 
L 123.312485 167.753046 
L 123.40629 146.684753 
L 123.843635 136.050292 
L 124.203452 176.224043 
L 124.491785 163.121625 
L 124.808135 120.053394 
L 125.358731 162.948038 
L 125.418647 161.773763 
L 125.905497 124.228585 
L 127.127633 176.484535 
L 127.547822 152.684482 
L 127.660255 165.422031 
L 128.211235 176.655379 
L 128.480638 155.965812 
L 129.66933 177.343896 
L 129.879156 155.890591 
L 130.888909 171.677529 
L 130.983071 154.764993 
L 131.301413 163.406407 
L 131.395266 157.214847 
L 131.436287 166.624031 
L 131.627407 139.814672 
L 132.266557 158.227439 
L 132.500465 170.794739 
L 133.50465 161.861573 
L 133.714608 158.122681 
L 134.040869 141.915016 
L 134.59347 140.572551 
L 135.32068 182.058458 
L 135.647993 148.211991 
L 135.710565 151.788757 
L 136.852507 151.351641 
L 136.947402 163.523816 
L 137.159017 173.051989 
L 138.579399 161.047924 
L 138.804559 137.9927 
L 138.823639 158.239664 
L 138.861512 155.792465 
L 138.959913 181.361098 
L 138.979002 156.627341 
L 139.459508 168.285963 
L 139.557835 145.381901 
L 139.614529 170.558643 
L 139.769533 124.464202 
L 140.164862 193.11837 
L 140.221837 138.552871 
L 140.531786 153.186423 
L 141.220086 137.502717 
L 141.257992 168.820468 
L 142.232106 146.126446 
L 142.732206 128.852815 
L 142.981906 151.745673 
L 143.467233 128.206245 
L 143.523859 158.749969 
L 144.672279 136.858757 
L 144.997512 160.580881 
L 145.422107 173.750946 
L 145.478836 121.961303 
L 146.414021 170.317646 
L 146.720483 132.979303 
L 147.340305 121.172902 
L 147.890308 170.46729 
L 148.275728 115.947006 
L 149.044112 117.240305 
L 149.139181 156.883199 
L 149.774582 107.728441 
L 150.099898 147.082407 
L 150.505267 103.651118 
L 150.7483 130.538477 
L 150.786237 105.320499 
L 151.760246 126.138714 
L 152.136861 140.559909 
L 152.580366 94.067965 
L 153.907947 118.728969 
L 154.087713 107.218802 
L 154.144302 110.094835 
L 155.61502 142.326786 
L 155.701392 131.963825 
L 156.739646 117.659656 
L 157.126763 151.220951 
L 157.291458 132.33007 
L 158.232524 114.247902 
L 158.590304 156.659825 
L 158.742116 141.900243 
L 159.341019 129.528575 
L 160.319536 133.192831 
L 161.100362 118.365441 
L 161.411404 99.06888 
L 161.69098 130.3198 
L 162.099726 123.456412 
L 162.926304 127.768446 
L 163.3507 123.477985 
L 163.445511 88.340758 
L 164.382721 126.277562 
L 164.774203 96.303341 
L 164.81347 115.971544 
L 165.438908 109.092088 
L 165.904965 91.3175 
L 166.183544 145.274764 
L 167.030024 102.686901 
L 167.567927 148.404621 
L 167.609337 103.422426 
L 167.685155 111.478812 
L 167.97315 121.312354 
L 168.783867 67.087336 
L 168.840732 183.181748 
L 170.012116 137.236649 
L 170.620403 96.65357 
L 170.639561 113.156715 
L 171.012893 136.180067 
L 171.069989 83.269425 
L 171.737438 127.196805 
L 171.911166 91.147739 
L 172.612471 103.204334 
L 173.017664 105.569627 
L 173.590678 148.703519 
L 173.707859 106.561295 
L 174.231075 109.227829 
L 174.624761 142.401821 
L 174.721378 135.408232 
L 175.012893 131.212906 
L 175.107673 107.641367 
L 175.951193 122.691466 
L 176.436048 100.443962 
L 176.473957 123.230952 
L 176.784541 106.692562 
L 176.987295 107.87187 
L 178.003962 110.54991 
L 178.370995 141.445452 
L 178.620476 106.388924 
L 178.734121 106.472606 
L 178.9959 109.261281 
L 179.343889 140.298014 
L 180.108096 129.844465 
L 180.555413 94.37258 
L 180.650059 109.490789 
L 181.115534 155.194794 
L 181.336423 116.103805 
L 181.548808 122.337917 
L 181.806343 110.380273 
L 182.280816 145.914906 
L 184.128649 137.652378 
L 184.147747 153.763693 
L 184.227019 100.406018 
L 184.656911 153.988514 
L 184.675531 114.941045 
L 184.848198 138.434743 
L 185.699053 134.452431 
L 185.833921 109.844481 
L 185.895628 137.405736 
L 186.259419 115.340777 
L 187.305461 108.731649 
L 187.516231 135.638806 
L 187.595217 112.837576 
L 187.718526 127.162501 
L 187.778497 117.85891 
L 187.910487 152.209493 
L 188.07014 82.386084 
L 188.126507 133.974912 
L 188.359504 142.8526 
L 188.884224 115.360805 
L 188.96306 135.484883 
L 189.173459 131.941595 
L 190.70363 118.429983 
L 191.013363 109.780809 
L 191.167214 102.365294 
L 191.433526 82.624559 
L 191.452204 99.453999 
L 191.951121 94.803118 
L 192.712309 115.155604 
L 193.278196 102.334169 
L 193.334695 131.863684 
L 193.834022 140.226317 
L 194.185999 106.531039 
L 194.263833 69.915819 
L 194.746293 128.93426 
L 195.846809 106.798225 
L 196.133264 121.593283 
L 196.287527 114.845094 
L 196.306182 96.003538 
L 196.743926 97.107403 
L 197.090062 108.405639 
L 197.900753 140.571841 
L 198.303435 132.025082 
L 198.910768 81.310078 
L 199.941755 109.218188 
L 200.152561 123.461828 
L 200.495572 97.736146 
L 200.687597 124.425512 
L 200.719329 115.938803 
L 201.08597 82.349064 
L 201.529675 80.354756 
L 201.904653 109.617351 
L 202.653439 118.21411 
L 202.709711 105.151572 
L 202.845011 142.861815 
L 203.051212 137.9052 
L 203.108101 123.544835 
L 203.202197 135.501751 
L 203.393779 137.338158 
L 204.036843 102.440933 
L 204.40144 74.410256 
L 205.925038 118.740634 
L 206.605258 163.3109 
L 206.931545 122.098518 
L 207.216948 132.017465 
L 207.455589 97.395824 
L 207.571957 124.418002 
L 208.048778 115.188771 
L 208.146069 110.705005 
L 208.240223 125.274212 
L 208.593564 91.364943 
L 208.863299 166.496235 
L 209.245286 136.178753 
L 209.395154 83.157635 
L 209.601187 150.312149 
L 210.271673 77.590708 
L 210.365587 132.71945 
L 211.541619 180.418064 
L 211.565988 119.360074 
L 212.191178 138.579114 
L 213.17904 145.696104 
L 213.332874 134.616031 
L 214.032501 113.467349 
L 214.242447 142.854517 
L 214.471415 132.498162 
L 214.797902 95.289479 
L 216.430618 148.57171 
L 217.005177 113.629404 
L 217.089039 84.629485 
L 217.355443 134.740693 
L 217.681869 136.755402 
L 217.798291 119.142674 
L 218.610301 122.473356 
L 218.91464 110.437429 
L 219.306434 147.800035 
L 219.460424 126.769126 
L 219.84373 123.121897 
L 219.941298 145.437103 
L 219.978873 194.02529 
L 220.095536 160.25914 
L 220.675185 101.891255 
L 220.847789 151.942387 
L 222.593515 109.795777 
L 222.612426 123.871378 
L 222.653444 122.610287 
L 223.186764 130.346184 
L 223.285533 156.902393 
L 223.379775 135.689747 
L 223.677258 126.991213 
L 224.505587 137.311666 
L 224.64928 143.327029 
L 225.186412 130.521929 
L 225.82656 124.291174 
L 225.845218 138.82391 
L 226.018001 168.835383 
L 226.751852 169.302399 
L 227.008234 119.146225 
L 227.619892 144.949499 
L 228.528735 122.910162 
L 228.60384 141.120311 
L 229.060261 154.900575 
L 229.401782 177.841266 
L 229.465802 157.589472 
L 229.882035 159.675603 
L 230.101045 117.687799 
L 230.559737 133.190754 
L 230.694633 132.669539 
L 231.02705 124.443339 
L 231.064699 146.376978 
L 231.120972 139.476126 
L 231.573678 117.151758 
L 231.667687 135.343211 
L 231.878176 94.347882 
L 232.107232 135.89667 
L 232.44221 170.974026 
L 232.787809 156.295809 
L 232.900824 139.321617 
L 233.09753 148.627516 
L 233.471143 157.756295 
L 233.989103 113.614365 
L 234.142985 154.193512 
L 234.553462 138.02782 
L 234.955066 168.603335 
L 235.927716 157.660938 
L 236.062906 133.413019 
L 237.144746 134.503194 
L 237.343182 99.754637 
L 237.479309 146.156293 
L 238.011623 125.845711 
L 238.421519 163.758811 
L 238.616785 111.559795 
L 238.928791 106.515113 
L 239.102779 110.905555 
L 239.724038 145.685486 
L 240.137895 108.088737 
L 240.981015 108.72721 
L 241.037758 123.610833 
L 241.424168 151.274857 
L 241.56621 138.671496 
L 242.07599 153.964669 
L 243.476687 156.251535 
L 243.79239 100.926079 
L 244.042345 156.448276 
L 244.692715 135.334635 
L 244.904494 118.380125 
L 245.211064 133.302454 
L 245.68543 101.023682 
L 245.799187 144.55307 
L 246.604489 126.19388 
L 247.791925 154.55284 
L 247.968392 162.956365 
L 248.833126 122.440544 
L 249.374241 117.205699 
L 249.470666 162.161785 
L 250.25728 130.614951 
L 250.729613 124.476808 
L 251.994806 79.186989 
L 253.611428 110.962799 
L 253.668494 125.640439 
L 253.941132 129.134206 
L 254.178202 126.543985 
L 254.626813 100.891296 
L 254.744103 112.678823 
L 255.038385 107.547547 
L 255.159681 132.845763 
L 255.353162 110.172959 
L 255.815295 107.142826 
L 256.189762 151.227831 
L 256.619863 133.898261 
L 257.362933 120.080702 
L 257.57509 147.473288 
L 257.960978 106.6285 
L 258.096842 108.218353 
L 258.191581 114.832416 
L 259.718865 130.576563 
L 260.298365 128.739854 
L 260.355141 127.987426 
L 260.655522 110.892132 
L 260.772985 80.204863 
L 260.873108 102.007661 
L 261.433968 119.072469 
L 261.711716 155.633348 
L 261.925297 132.945958 
L 262.118457 88.049709 
L 262.197787 97.132758 
L 262.216904 141.024325 
L 262.802838 113.754102 
L 262.980568 143.933844 
L 263.420596 97.933872 
L 263.439247 82.40684 
L 263.668379 118.94003 
L 264.272167 145.083288 
L 264.44479 115.262936 
L 264.873775 98.649351 
L 265.04639 102.174315 
L 265.205301 132.368635 
L 265.35912 102.751514 
L 265.685254 166.42824 
L 266.270506 139.829746 
L 266.462145 121.418337 
L 267.177501 105.135734 
L 267.355342 110.241442 
L 267.374311 88.035966 
L 267.798686 120.734054 
L 267.930083 101.870517 
L 268.512245 140.771006 
L 269.222154 84.714446 
L 269.49365 84.657521 
L 270.221706 129.530599 
L 270.287219 108.827849 
L 270.936888 119.667796 
L 271.015478 133.968058 
L 271.46509 121.255802 
L 271.583213 107.722439 
L 271.620765 159.104601 
L 272.270153 111.253724 
L 272.386468 84.292875 
L 272.511838 94.682007 
L 272.549479 135.773731 
L 272.759986 53.568 
L 272.854205 157.788255 
L 273.124592 61.105851 
L 273.297283 119.257659 
L 273.611401 83.142153 
L 274.09666 100.727163 
L 274.461079 131.676327 
L 274.642323 135.342483 
L 274.98396 122.580298 
L 275.501418 128.341685 
L 275.998847 95.014285 
L 276.04001 78.621864 
L 276.058693 108.934205 
L 277.198773 144.84364 
L 277.427859 102.266147 
L 278.170562 86.098316 
L 278.765089 107.470345 
L 279.154467 148.211574 
L 279.518993 162.029062 
L 280.127935 89.85895 
L 280.278571 111.779414 
L 280.319681 142.64541 
L 280.969832 84.399745 
L 281.688699 129.146351 
L 282.275838 118.509226 
L 282.332619 119.286743 
L 282.469047 125.938413 
L 282.506895 115.533478 
L 282.832513 113.639915 
L 282.987619 128.524674 
L 283.16181 122.696296 
L 283.462257 158.154357 
L 283.768891 103.911344 
L 284.533365 90.885471 
L 284.765803 96.502203 
L 284.807384 78.241042 
L 285.000649 99.904547 
L 285.212791 92.937556 
L 285.48876 123.388178 
L 285.529265 100.757792 
L 285.865407 112.423196 
L 286.232744 81.655566 
L 286.940975 116.262522 
L 287.464425 113.127081 
L 287.581772 83.591191 
L 287.764225 118.985111 
L 288.34357 114.187196 
L 288.838516 106.307763 
L 288.857333 110.474236 
L 289.205812 89.892987 
L 289.746813 130.610494 
L 289.849792 92.490151 
L 290.373611 114.771799 
L 290.623422 100.530769 
L 290.661279 90.708058 
L 290.680104 129.681522 
L 291.447604 83.433184 
L 291.640907 111.358748 
L 291.739027 88.908032 
L 291.875393 152.10636 
L 292.248138 120.020582 
L 292.482572 110.557332 
L 293.170206 145.503438 
L 294.376656 117.194211 
L 294.667595 125.914904 
L 294.91646 81.274709 
L 294.992469 108.022669 
L 295.317649 159.441291 
L 295.954352 116.953996 
L 296.128527 114.08938 
L 296.987836 118.608444 
L 297.37994 116.936986 
L 297.446175 129.272806 
L 297.753297 138.859013 
L 298.063807 107.053054 
L 299.448235 108.119969 
L 299.630618 95.385412 
L 300.228685 135.996936 
L 300.595505 118.214945 
L 300.652464 96.47525 
L 301.088911 137.287785 
L 302.549467 112.172895 
L 302.959938 126.730294 
L 303.38391 147.390618 
L 303.960252 96.257283 
L 304.850654 105.523783 
L 305.397341 55.440149 
L 306.552497 112.551178 
L 306.863806 150.220193 
L 307.470991 134.905997 
L 307.627014 96.851474 
L 308.069044 92.373851 
L 308.554516 113.060817 
L 308.652189 82.022574 
L 309.151649 133.194376 
L 309.264417 96.304637 
L 310.083074 121.397794 
L 310.101784 141.188386 
L 310.494747 110.24858 
L 311.615271 95.310395 
L 311.941957 102.118829 
L 312.465594 57.459439 
L 312.484537 104.489271 
L 312.647199 96.229886 
L 312.876984 77.821548 
L 313.106138 96.786453 
L 313.391571 86.939896 
L 313.470373 120.764541 
L 313.805958 143.766054 
L 314.184955 145.737634 
L 314.535692 118.000937 
L 314.833582 121.674781 
L 315.025144 140.978071 
L 315.081663 116.085996 
L 315.310938 125.553614 
L 315.408391 83.554935 
L 316.453631 154.071256 
L 317.102691 127.943232 
L 317.392065 93.224628 
L 318.088204 147.335282 
L 318.185815 103.658185 
L 319.111128 148.752311 
L 319.195901 74.778826 
L 319.579016 106.519622 
L 320.563371 109.165489 
L 321.069087 83.529864 
L 321.125653 143.20915 
L 321.937786 109.244502 
L 322.245855 115.872113 
L 322.931472 99.443594 
L 323.221129 69.041925 
L 323.375305 130.587643 
L 323.488521 120.522248 
L 324.456103 125.058215 
L 324.512544 133.600429 
L 324.572627 79.292954 
L 324.829137 164.11498 
L 325.353433 111.280713 
L 325.839944 116.899824 
L 325.975172 130.145369 
L 326.39578 141.556779 
L 326.805805 139.010841 
L 327.084664 117.483503 
L 327.762996 125.765473 
L 328.213028 136.879442 
L 328.273214 92.747571 
L 328.523831 142.107771 
L 328.59976 117.378585 
L 329.556381 85.134774 
L 329.57551 133.580134 
L 329.943106 118.927068 
L 330.003749 176.262794 
L 330.183199 106.485354 
L 330.205885 142.685751 
L 330.319775 95.470302 
L 330.706317 80.350939 
L 330.744308 99.4888 
L 331.095536 118.472703 
L 332.073733 124.232154 
L 332.349808 125.050083 
L 332.463849 111.580036 
L 333.124456 127.553941 
L 333.963859 136.141236 
L 334.511419 112.77726 
L 335.034874 133.182977 
L 335.133138 167.329416 
L 335.248453 112.173393 
L 335.704474 152.03057 
L 336.426038 120.347462 
L 336.445156 147.111224 
L 336.745468 171.701312 
L 337.075687 173.610571 
L 337.420864 157.151539 
L 337.817194 173.846383 
L 337.902066 170.920155 
L 338.365235 162.780461 
L 338.577391 171.949402 
L 339.592576 160.318346 
L 340.084694 169.83496 
L 340.529118 190.175106 
L 341.23495 159.637366 
L 341.698838 166.322647 
L 341.736815 179.431314 
L 341.755612 152.273724 
L 342.929292 161.658778 
L 343.230185 173.280628 
L 343.344068 184.309805 
L 343.923667 177.048186 
L 344.097761 166.30649 
L 344.185671 204.733179 
L 344.299416 172.902007 
L 344.616836 199.83277 
L 345.455899 193.012848 
L 345.686819 198.226626 
L 346.091645 174.332859 
L 346.114207 183.761192 
L 346.190493 183.503621 
L 346.266557 181.951525 
L 346.354317 193.553772 
L 346.726535 195.865222 
L 346.843862 158.926104 
L 346.961203 199.147049 
L 347.451475 169.187325 
L 347.974601 174.980699 
L 348.342145 164.703906 
L 348.974359 181.665207 
L 349.012276 165.273221 
L 349.594585 177.701973 
L 349.863213 165.55233 
L 350.859759 185.754364 
L 351.089872 182.680525 
L 352.316479 196.822994 
L 353.14162 184.589837 
L 353.217446 165.003292 
L 354.077808 181.879198 
L 354.115721 157.110329 
L 354.441236 182.181992 
L 355.169858 179.075981 
L 355.748134 148.676131 
L 355.884502 160.41934 
L 356.08205 140.831144 
L 356.468968 150.924308 
L 356.912063 151.469618 
L 357.255943 154.984496 
L 357.369815 143.03843 
L 357.506197 182.591028 
L 358.425299 151.379801 
L 358.521409 158.122797 
L 358.83222 166.659027 
L 358.946049 178.78138 
L 359.139347 143.590362 
L 359.502079 144.704135 
L 359.63847 179.760432 
L 359.831867 149.85362 
L 359.869817 112.421935 
L 360.120373 167.813256 
L 360.495947 141.619634 
L 361.094881 167.619427 
L 362.017327 140.344729 
L 362.248483 129.931432 
L 362.460848 132.38703 
L 363.71368 161.874784 
L 364.321155 152.878968 
L 365.047269 137.06877 
L 365.728332 97.451417 
L 365.842133 131.522794 
L 366.142674 141.295239 
L 366.472472 161.577386 
L 366.798899 122.227477 
L 367.175021 96.862447 
L 367.542698 152.317669 
L 369.105946 121.15037 
L 369.904804 165.644561 
L 370.027508 140.890518 
L 370.500065 131.357827 
L 370.519203 139.907267 
L 370.655534 148.587957 
L 371.255714 136.660587 
L 371.787575 139.090581 
L 372.021991 145.512334 
L 372.359497 137.842097 
L 372.443964 144.764237 
L 373.595246 148.462008 
L 373.845983 162.230907 
L 374.119019 107.602021 
L 374.233037 137.501527 
L 374.614891 115.336888 
L 375.040081 103.944618 
L 375.347359 156.318509 
L 376.500207 129.961883 
L 376.933812 159.169746 
L 377.009747 107.578743 
L 377.047704 113.43079 
L 377.070368 148.932815 
L 377.26408 162.276388 
L 377.65123 132.824989 
L 378.161794 105.041132 
L 378.827257 132.666183 
L 379.006469 125.290938 
L 380.100469 162.18263 
L 381.157364 101.381049 
L 381.662504 153.285313 
L 381.761374 133.199117 
L 382.148445 128.325776 
L 383.150507 125.009174 
L 383.226515 160.119972 
L 383.847082 111.585079 
L 384.832064 167.563381 
L 385.220482 153.994933 
L 385.843102 145.139697 
L 386.034867 169.820552 
L 386.053549 148.092949 
L 386.543938 173.685517 
L 386.63933 109.231824 
L 386.718726 122.417409 
L 386.988103 141.640497 
L 387.814374 145.305854 
L 388.299859 142.374797 
L 389.767152 177.792447 
L 391.08061 160.383092 
L 391.685991 186.143717 
L 392.354476 166.869866 
L 392.373352 172.105279 
L 392.79696 176.857748 
L 393.542454 187.529248 
L 393.741794 163.007706 
L 393.970139 149.440926 
L 394.503971 202.883651 
L 394.658639 161.955199 
L 394.931289 179.982031 
L 395.144397 179.371345 
L 395.501617 181.699635 
L 395.53954 189.620102 
L 395.989407 189.616311 
L 396.008373 170.373478 
L 396.027401 197.281026 
L 396.087239 171.882481 
L 396.459441 192.687424 
L 397.135273 181.839718 
L 397.385685 198.314232 
L 397.474158 192.528902 
L 397.723539 215.253854 
L 397.743182 178.416068 
L 397.942618 203.104326 
L 398.154464 211.099801 
L 398.347275 201.623874 
L 398.511763 206.962607 
L 398.704631 192.374322 
L 399.655662 208.739364 
L 399.886886 217.357101 
L 400.432569 178.894909 
L 400.827594 239.195854 
L 401.096019 230.889026 
L 401.133998 214.192425 
L 401.347509 221.407826 
L 401.404554 229.407469 
L 401.423586 225.064518 
L 401.49961 211.232471 
L 401.596905 213.333241 
L 401.990873 230.998254 
L 402.284962 218.030651 
L 402.595445 222.334792 
L 402.874228 240.329846 
L 403.569286 234.320791 
L 403.588329 247.672581 
L 403.723092 237.048715 
L 403.943216 244.142051 
L 404.173569 241.427057 
L 404.546261 245.554676 
L 404.911297 241.82496 
L 404.930318 250.220139 
L 405.034732 250.171915 
L 405.554565 249.946597 
L 405.902879 246.565142 
L 406.299386 253.3137 
L 408.464588 266.817784 
L 408.644672 266.061716 
L 408.95035 266.42996 
L 409.182396 269.580358 
L 409.727632 260.858758 
L 410.425074 265.603834 
L 410.452636 271.463782 
L 410.626932 272.771184 
L 410.689802 275.410271 
L 411.441059 272.233485 
L 411.737311 277.800747 
L 411.930305 277.566239 
L 412.220613 276.873913 
L 412.258719 272.130789 
L 412.413218 269.86241 
L 412.750965 273.562262 
L 413.123813 277.012533 
L 413.585667 277.95548 
L 413.807477 280.437698 
L 414.019356 280.818551 
L 414.565889 275.53946 
L 414.72 281.660452 
L 414.72 281.660452 
" style="fill:none;stroke:#000000;stroke-linecap:square;stroke-width:0.8;"/>
   </g>
   <g id="patch_3">
    <path d="M 57.6 307.584 
L 57.6 41.472 
" style="fill:none;stroke:#000000;stroke-linecap:square;stroke-linejoin:miter;stroke-width:0.8;"/>
   </g>
   <g id="patch_4">
    <path d="M 414.72 307.584 
L 414.72 41.472 
" style="fill:none;stroke:#000000;stroke-linecap:square;stroke-linejoin:miter;stroke-width:0.8;"/>
   </g>
   <g id="patch_5">
    <path d="M 57.6 307.584 
L 414.72 307.584 
" style="fill:none;stroke:#000000;stroke-linecap:square;stroke-linejoin:miter;stroke-width:0.8;"/>
   </g>
   <g id="patch_6">
    <path d="M 57.6 41.472 
L 414.72 41.472 
" style="fill:none;stroke:#000000;stroke-linecap:square;stroke-linejoin:miter;stroke-width:0.8;"/>
   </g>
  </g>
  <g id="axes_2">
   <g id="matplotlib.axis_3">
    <g id="xtick_6">
     <g id="line2d_24">
      <defs>
       <path d="M 0 0 
L 0 -3.5 
" id="m14aee020b6" style="stroke:#000000;stroke-width:0.8;"/>
      </defs>
      <g>
       <use style="stroke:#000000;stroke-width:0.8;" x="57.6" xlink:href="#m14aee020b6" y="41.472"/>
      </g>
     </g>
    </g>
    <g id="xtick_7">
     <g id="line2d_25">
      <g>
       <use style="stroke:#000000;stroke-width:0.8;" x="106.458972" xlink:href="#m14aee020b6" y="41.472"/>
      </g>
     </g>
     <g id="text_14">
      <!-- 250K -->
      <defs>
       <path d="M 10.796875 72.90625 
L 49.515625 72.90625 
L 49.515625 64.59375 
L 19.828125 64.59375 
L 19.828125 46.734375 
Q 21.96875 47.46875 24.109375 47.828125 
Q 26.265625 48.1875 28.421875 48.1875 
Q 40.625 48.1875 47.75 41.5 
Q 54.890625 34.8125 54.890625 23.390625 
Q 54.890625 11.625 47.5625 5.09375 
Q 40.234375 -1.421875 26.90625 -1.421875 
Q 22.3125 -1.421875 17.546875 -0.640625 
Q 12.796875 0.140625 7.71875 1.703125 
L 7.71875 11.625 
Q 12.109375 9.234375 16.796875 8.0625 
Q 21.484375 6.890625 26.703125 6.890625 
Q 35.15625 6.890625 40.078125 11.328125 
Q 45.015625 15.765625 45.015625 23.390625 
Q 45.015625 31 40.078125 35.4375 
Q 35.15625 39.890625 26.703125 39.890625 
Q 22.75 39.890625 18.8125 39.015625 
Q 14.890625 38.140625 10.796875 36.28125 
z
" id="DejaVuSans-53"/>
       <path d="M 9.8125 72.90625 
L 19.671875 72.90625 
L 19.671875 42.09375 
L 52.390625 72.90625 
L 65.09375 72.90625 
L 28.90625 38.921875 
L 67.671875 0 
L 54.6875 0 
L 19.671875 35.109375 
L 19.671875 0 
L 9.8125 0 
z
" id="DejaVuSans-75"/>
      </defs>
      <g transform="translate(93.636316 32.392313)scale(0.1 -0.1)">
       <use xlink:href="#DejaVuSans-50"/>
       <use x="63.623047" xlink:href="#DejaVuSans-53"/>
       <use x="127.246094" xlink:href="#DejaVuSans-48"/>
       <use x="190.869141" xlink:href="#DejaVuSans-75"/>
      </g>
     </g>
    </g>
    <g id="xtick_8">
     <g id="line2d_26">
      <g>
       <use style="stroke:#000000;stroke-width:0.8;" x="155.317945" xlink:href="#m14aee020b6" y="41.472"/>
      </g>
     </g>
     <g id="text_15">
      <!-- 500K -->
      <g transform="translate(142.495288 32.392313)scale(0.1 -0.1)">
       <use xlink:href="#DejaVuSans-53"/>
       <use x="63.623047" xlink:href="#DejaVuSans-48"/>
       <use x="127.246094" xlink:href="#DejaVuSans-48"/>
       <use x="190.869141" xlink:href="#DejaVuSans-75"/>
      </g>
     </g>
    </g>
    <g id="xtick_9">
     <g id="line2d_27">
      <g>
       <use style="stroke:#000000;stroke-width:0.8;" x="204.176917" xlink:href="#m14aee020b6" y="41.472"/>
      </g>
     </g>
     <g id="text_16">
      <!-- 750K -->
      <defs>
       <path d="M 8.203125 72.90625 
L 55.078125 72.90625 
L 55.078125 68.703125 
L 28.609375 0 
L 18.3125 0 
L 43.21875 64.59375 
L 8.203125 64.59375 
z
" id="DejaVuSans-55"/>
      </defs>
      <g transform="translate(191.354261 32.392313)scale(0.1 -0.1)">
       <use xlink:href="#DejaVuSans-55"/>
       <use x="63.623047" xlink:href="#DejaVuSans-53"/>
       <use x="127.246094" xlink:href="#DejaVuSans-48"/>
       <use x="190.869141" xlink:href="#DejaVuSans-75"/>
      </g>
     </g>
    </g>
    <g id="xtick_10">
     <g id="line2d_28">
      <g>
       <use style="stroke:#000000;stroke-width:0.8;" x="253.035889" xlink:href="#m14aee020b6" y="41.472"/>
      </g>
     </g>
     <g id="text_17">
      <!-- 1,000K -->
      <defs>
       <path d="M 11.71875 12.40625 
L 22.015625 12.40625 
L 22.015625 4 
L 14.015625 -11.625 
L 7.71875 -11.625 
L 11.71875 4 
z
" id="DejaVuSans-44"/>
      </defs>
      <g transform="translate(235.44292 32.392313)scale(0.1 -0.1)">
       <use xlink:href="#DejaVuSans-49"/>
       <use x="63.623047" xlink:href="#DejaVuSans-44"/>
       <use x="95.410156" xlink:href="#DejaVuSans-48"/>
       <use x="159.033203" xlink:href="#DejaVuSans-48"/>
       <use x="222.65625" xlink:href="#DejaVuSans-48"/>
       <use x="286.279297" xlink:href="#DejaVuSans-75"/>
      </g>
     </g>
    </g>
    <g id="xtick_11">
     <g id="line2d_29">
      <g>
       <use style="stroke:#000000;stroke-width:0.8;" x="301.894861" xlink:href="#m14aee020b6" y="41.472"/>
      </g>
     </g>
     <g id="text_18">
      <!-- 1.25M -->
      <defs>
       <path d="M 9.8125 72.90625 
L 24.515625 72.90625 
L 43.109375 23.296875 
L 61.8125 72.90625 
L 76.515625 72.90625 
L 76.515625 0 
L 66.890625 0 
L 66.890625 64.015625 
L 48.09375 14.015625 
L 38.1875 14.015625 
L 19.390625 64.015625 
L 19.390625 0 
L 9.8125 0 
z
" id="DejaVuSans-77"/>
      </defs>
      <g transform="translate(286.447986 32.392313)scale(0.1 -0.1)">
       <use xlink:href="#DejaVuSans-49"/>
       <use x="63.623047" xlink:href="#DejaVuSans-46"/>
       <use x="95.410156" xlink:href="#DejaVuSans-50"/>
       <use x="159.033203" xlink:href="#DejaVuSans-53"/>
       <use x="222.65625" xlink:href="#DejaVuSans-77"/>
      </g>
     </g>
    </g>
    <g id="xtick_12">
     <g id="line2d_30">
      <g>
       <use style="stroke:#000000;stroke-width:0.8;" x="350.753834" xlink:href="#m14aee020b6" y="41.472"/>
      </g>
     </g>
     <g id="text_19">
      <!-- 1.50M -->
      <g transform="translate(335.306959 32.392313)scale(0.1 -0.1)">
       <use xlink:href="#DejaVuSans-49"/>
       <use x="63.623047" xlink:href="#DejaVuSans-46"/>
       <use x="95.410156" xlink:href="#DejaVuSans-53"/>
       <use x="159.033203" xlink:href="#DejaVuSans-48"/>
       <use x="222.65625" xlink:href="#DejaVuSans-77"/>
      </g>
     </g>
    </g>
    <g id="xtick_13">
     <g id="line2d_31">
      <g>
       <use style="stroke:#000000;stroke-width:0.8;" x="399.612806" xlink:href="#m14aee020b6" y="41.472"/>
      </g>
     </g>
     <g id="text_20">
      <!-- 1.75M -->
      <g transform="translate(384.165931 32.392313)scale(0.1 -0.1)">
       <use xlink:href="#DejaVuSans-49"/>
       <use x="63.623047" xlink:href="#DejaVuSans-46"/>
       <use x="95.410156" xlink:href="#DejaVuSans-55"/>
       <use x="159.033203" xlink:href="#DejaVuSans-53"/>
       <use x="222.65625" xlink:href="#DejaVuSans-77"/>
      </g>
     </g>
    </g>
    <g id="text_21">
     <!-- Steps -->
     <defs>
      <path d="M 53.515625 70.515625 
L 53.515625 60.890625 
Q 47.90625 63.578125 42.921875 64.890625 
Q 37.9375 66.21875 33.296875 66.21875 
Q 25.25 66.21875 20.875 63.09375 
Q 16.5 59.96875 16.5 54.203125 
Q 16.5 49.359375 19.40625 46.890625 
Q 22.3125 44.4375 30.421875 42.921875 
L 36.375 41.703125 
Q 47.40625 39.59375 52.65625 34.296875 
Q 57.90625 29 57.90625 20.125 
Q 57.90625 9.515625 50.796875 4.046875 
Q 43.703125 -1.421875 29.984375 -1.421875 
Q 24.8125 -1.421875 18.96875 -0.25 
Q 13.140625 0.921875 6.890625 3.21875 
L 6.890625 13.375 
Q 12.890625 10.015625 18.65625 8.296875 
Q 24.421875 6.59375 29.984375 6.59375 
Q 38.421875 6.59375 43.015625 9.90625 
Q 47.609375 13.234375 47.609375 19.390625 
Q 47.609375 24.75 44.3125 27.78125 
Q 41.015625 30.8125 33.5 32.328125 
L 27.484375 33.5 
Q 16.453125 35.6875 11.515625 40.375 
Q 6.59375 45.0625 6.59375 53.421875 
Q 6.59375 63.09375 13.40625 68.65625 
Q 20.21875 74.21875 32.171875 74.21875 
Q 37.3125 74.21875 42.625 73.28125 
Q 47.953125 72.359375 53.515625 70.515625 
z
" id="DejaVuSans-83"/>
      <path d="M 18.3125 70.21875 
L 18.3125 54.6875 
L 36.8125 54.6875 
L 36.8125 47.703125 
L 18.3125 47.703125 
L 18.3125 18.015625 
Q 18.3125 11.328125 20.140625 9.421875 
Q 21.96875 7.515625 27.59375 7.515625 
L 36.8125 7.515625 
L 36.8125 0 
L 27.59375 0 
Q 17.1875 0 13.234375 3.875 
Q 9.28125 7.765625 9.28125 18.015625 
L 9.28125 47.703125 
L 2.6875 47.703125 
L 2.6875 54.6875 
L 9.28125 54.6875 
L 9.28125 70.21875 
z
" id="DejaVuSans-116"/>
      <path d="M 56.203125 29.59375 
L 56.203125 25.203125 
L 14.890625 25.203125 
Q 15.484375 15.921875 20.484375 11.0625 
Q 25.484375 6.203125 34.421875 6.203125 
Q 39.59375 6.203125 44.453125 7.46875 
Q 49.3125 8.734375 54.109375 11.28125 
L 54.109375 2.78125 
Q 49.265625 0.734375 44.1875 -0.34375 
Q 39.109375 -1.421875 33.890625 -1.421875 
Q 20.796875 -1.421875 13.15625 6.1875 
Q 5.515625 13.8125 5.515625 26.8125 
Q 5.515625 40.234375 12.765625 48.109375 
Q 20.015625 56 32.328125 56 
Q 43.359375 56 49.78125 48.890625 
Q 56.203125 41.796875 56.203125 29.59375 
z
M 47.21875 32.234375 
Q 47.125 39.59375 43.09375 43.984375 
Q 39.0625 48.390625 32.421875 48.390625 
Q 24.90625 48.390625 20.390625 44.140625 
Q 15.875 39.890625 15.1875 32.171875 
z
" id="DejaVuSans-101"/>
      <path d="M 18.109375 8.203125 
L 18.109375 -20.796875 
L 9.078125 -20.796875 
L 9.078125 54.6875 
L 18.109375 54.6875 
L 18.109375 46.390625 
Q 20.953125 51.265625 25.265625 53.625 
Q 29.59375 56 35.59375 56 
Q 45.5625 56 51.78125 48.09375 
Q 58.015625 40.1875 58.015625 27.296875 
Q 58.015625 14.40625 51.78125 6.484375 
Q 45.5625 -1.421875 35.59375 -1.421875 
Q 29.59375 -1.421875 25.265625 0.953125 
Q 20.953125 3.328125 18.109375 8.203125 
z
M 48.6875 27.296875 
Q 48.6875 37.203125 44.609375 42.84375 
Q 40.53125 48.484375 33.40625 48.484375 
Q 26.265625 48.484375 22.1875 42.84375 
Q 18.109375 37.203125 18.109375 27.296875 
Q 18.109375 17.390625 22.1875 11.75 
Q 26.265625 6.109375 33.40625 6.109375 
Q 40.53125 6.109375 44.609375 11.75 
Q 48.6875 17.390625 48.6875 27.296875 
z
" id="DejaVuSans-112"/>
     </defs>
     <g transform="translate(222.170156 20.793875)scale(0.1 -0.1)">
      <use xlink:href="#DejaVuSans-83"/>
      <use x="63.476562" xlink:href="#DejaVuSans-116"/>
      <use x="102.685547" xlink:href="#DejaVuSans-101"/>
      <use x="164.208984" xlink:href="#DejaVuSans-112"/>
      <use x="227.685547" xlink:href="#DejaVuSans-115"/>
     </g>
    </g>
   </g>
   <g id="patch_7">
    <path d="M 57.6 307.584 
L 57.6 41.472 
" style="fill:none;stroke:#000000;stroke-linecap:square;stroke-linejoin:miter;stroke-width:0.8;"/>
   </g>
   <g id="patch_8">
    <path d="M 414.72 307.584 
L 414.72 41.472 
" style="fill:none;stroke:#000000;stroke-linecap:square;stroke-linejoin:miter;stroke-width:0.8;"/>
   </g>
   <g id="patch_9">
    <path d="M 57.6 307.584 
L 414.72 307.584 
" style="fill:none;stroke:#000000;stroke-linecap:square;stroke-linejoin:miter;stroke-width:0.8;"/>
   </g>
   <g id="patch_10">
    <path d="M 57.6 41.472 
L 414.72 41.472 
" style="fill:none;stroke:#000000;stroke-linecap:square;stroke-linejoin:miter;stroke-width:0.8;"/>
   </g>
  </g>
 </g>
 <defs>
  <clipPath id="pb888c4a57e">
   <rect height="266.112" width="357.12" x="57.6" y="41.472"/>
  </clipPath>
 </defs>
</svg>
