<?xml version="1.0" encoding="utf-8" standalone="no"?>
<!DOCTYPE svg PUBLIC "-//W3C//DTD SVG 1.1//EN"
  "http://www.w3.org/Graphics/SVG/1.1/DTD/svg11.dtd">
<!-- Created with matplotlib (https://matplotlib.org/) -->
<svg height="345.6pt" version="1.1" viewBox="0 0 460.8 345.6" width="460.8pt" xmlns="http://www.w3.org/2000/svg" xmlns:xlink="http://www.w3.org/1999/xlink">
 <defs>
  <style type="text/css">
*{stroke-linecap:butt;stroke-linejoin:round;}
  </style>
 </defs>
 <g id="figure_1">
  <g id="patch_1">
   <path d="M 0 345.6 
L 460.8 345.6 
L 460.8 0 
L 0 0 
z
" style="fill:#ffffff;"/>
  </g>
  <g id="axes_1">
   <g id="patch_2">
    <path d="M 57.6 307.584 
L 414.72 307.584 
L 414.72 41.472 
L 57.6 41.472 
z
" style="fill:#ffffff;"/>
   </g>
   <g id="matplotlib.axis_1">
    <g id="xtick_1">
     <g id="line2d_1">
      <path clip-path="url(#p0be2a95d34)" d="M 57.6 307.584 
L 57.6 41.472 
" style="fill:none;stroke:#b0b0b0;stroke-linecap:square;stroke-width:0.8;"/>
     </g>
     <g id="line2d_2">
      <defs>
       <path d="M 0 0 
L 0 3.5 
" id="m4be3f9194b" style="stroke:#000000;stroke-width:0.8;"/>
      </defs>
      <g>
       <use style="stroke:#000000;stroke-width:0.8;" x="57.6" xlink:href="#m4be3f9194b" y="307.584"/>
      </g>
     </g>
     <g id="text_1">
      <!-- 0.0 -->
      <defs>
       <path d="M 31.78125 66.40625 
Q 24.171875 66.40625 20.328125 58.90625 
Q 16.5 51.421875 16.5 36.375 
Q 16.5 21.390625 20.328125 13.890625 
Q 24.171875 6.390625 31.78125 6.390625 
Q 39.453125 6.390625 43.28125 13.890625 
Q 47.125 21.390625 47.125 36.375 
Q 47.125 51.421875 43.28125 58.90625 
Q 39.453125 66.40625 31.78125 66.40625 
z
M 31.78125 74.21875 
Q 44.046875 74.21875 50.515625 64.515625 
Q 56.984375 54.828125 56.984375 36.375 
Q 56.984375 17.96875 50.515625 8.265625 
Q 44.046875 -1.421875 31.78125 -1.421875 
Q 19.53125 -1.421875 13.0625 8.265625 
Q 6.59375 17.96875 6.59375 36.375 
Q 6.59375 54.828125 13.0625 64.515625 
Q 19.53125 74.21875 31.78125 74.21875 
z
" id="DejaVuSans-48"/>
       <path d="M 10.6875 12.40625 
L 21 12.40625 
L 21 0 
L 10.6875 0 
z
" id="DejaVuSans-46"/>
      </defs>
      <g transform="translate(49.648438 322.182437)scale(0.1 -0.1)">
       <use xlink:href="#DejaVuSans-48"/>
       <use x="63.623047" xlink:href="#DejaVuSans-46"/>
       <use x="95.410156" xlink:href="#DejaVuSans-48"/>
      </g>
     </g>
    </g>
    <g id="xtick_2">
     <g id="line2d_3">
      <path clip-path="url(#p0be2a95d34)" d="M 134.91346 307.584 
L 134.91346 41.472 
" style="fill:none;stroke:#b0b0b0;stroke-linecap:square;stroke-width:0.8;"/>
     </g>
     <g id="line2d_4">
      <g>
       <use style="stroke:#000000;stroke-width:0.8;" x="134.91346" xlink:href="#m4be3f9194b" y="307.584"/>
      </g>
     </g>
     <g id="text_2">
      <!-- 0.2 -->
      <defs>
       <path d="M 19.1875 8.296875 
L 53.609375 8.296875 
L 53.609375 0 
L 7.328125 0 
L 7.328125 8.296875 
Q 12.9375 14.109375 22.625 23.890625 
Q 32.328125 33.6875 34.8125 36.53125 
Q 39.546875 41.84375 41.421875 45.53125 
Q 43.3125 49.21875 43.3125 52.78125 
Q 43.3125 58.59375 39.234375 62.25 
Q 35.15625 65.921875 28.609375 65.921875 
Q 23.96875 65.921875 18.8125 64.3125 
Q 13.671875 62.703125 7.8125 59.421875 
L 7.8125 69.390625 
Q 13.765625 71.78125 18.9375 73 
Q 24.125 74.21875 28.421875 74.21875 
Q 39.75 74.21875 46.484375 68.546875 
Q 53.21875 62.890625 53.21875 53.421875 
Q 53.21875 48.921875 51.53125 44.890625 
Q 49.859375 40.875 45.40625 35.40625 
Q 44.1875 33.984375 37.640625 27.21875 
Q 31.109375 20.453125 19.1875 8.296875 
z
" id="DejaVuSans-50"/>
      </defs>
      <g transform="translate(126.961898 322.182437)scale(0.1 -0.1)">
       <use xlink:href="#DejaVuSans-48"/>
       <use x="63.623047" xlink:href="#DejaVuSans-46"/>
       <use x="95.410156" xlink:href="#DejaVuSans-50"/>
      </g>
     </g>
    </g>
    <g id="xtick_3">
     <g id="line2d_5">
      <path clip-path="url(#p0be2a95d34)" d="M 212.22692 307.584 
L 212.22692 41.472 
" style="fill:none;stroke:#b0b0b0;stroke-linecap:square;stroke-width:0.8;"/>
     </g>
     <g id="line2d_6">
      <g>
       <use style="stroke:#000000;stroke-width:0.8;" x="212.22692" xlink:href="#m4be3f9194b" y="307.584"/>
      </g>
     </g>
     <g id="text_3">
      <!-- 0.4 -->
      <defs>
       <path d="M 37.796875 64.3125 
L 12.890625 25.390625 
L 37.796875 25.390625 
z
M 35.203125 72.90625 
L 47.609375 72.90625 
L 47.609375 25.390625 
L 58.015625 25.390625 
L 58.015625 17.1875 
L 47.609375 17.1875 
L 47.609375 0 
L 37.796875 0 
L 37.796875 17.1875 
L 4.890625 17.1875 
L 4.890625 26.703125 
z
" id="DejaVuSans-52"/>
      </defs>
      <g transform="translate(204.275358 322.182437)scale(0.1 -0.1)">
       <use xlink:href="#DejaVuSans-48"/>
       <use x="63.623047" xlink:href="#DejaVuSans-46"/>
       <use x="95.410156" xlink:href="#DejaVuSans-52"/>
      </g>
     </g>
    </g>
    <g id="xtick_4">
     <g id="line2d_7">
      <path clip-path="url(#p0be2a95d34)" d="M 289.540381 307.584 
L 289.540381 41.472 
" style="fill:none;stroke:#b0b0b0;stroke-linecap:square;stroke-width:0.8;"/>
     </g>
     <g id="line2d_8">
      <g>
       <use style="stroke:#000000;stroke-width:0.8;" x="289.540381" xlink:href="#m4be3f9194b" y="307.584"/>
      </g>
     </g>
     <g id="text_4">
      <!-- 0.6 -->
      <defs>
       <path d="M 33.015625 40.375 
Q 26.375 40.375 22.484375 35.828125 
Q 18.609375 31.296875 18.609375 23.390625 
Q 18.609375 15.53125 22.484375 10.953125 
Q 26.375 6.390625 33.015625 6.390625 
Q 39.65625 6.390625 43.53125 10.953125 
Q 47.40625 15.53125 47.40625 23.390625 
Q 47.40625 31.296875 43.53125 35.828125 
Q 39.65625 40.375 33.015625 40.375 
z
M 52.59375 71.296875 
L 52.59375 62.3125 
Q 48.875 64.0625 45.09375 64.984375 
Q 41.3125 65.921875 37.59375 65.921875 
Q 27.828125 65.921875 22.671875 59.328125 
Q 17.53125 52.734375 16.796875 39.40625 
Q 19.671875 43.65625 24.015625 45.921875 
Q 28.375 48.1875 33.59375 48.1875 
Q 44.578125 48.1875 50.953125 41.515625 
Q 57.328125 34.859375 57.328125 23.390625 
Q 57.328125 12.15625 50.6875 5.359375 
Q 44.046875 -1.421875 33.015625 -1.421875 
Q 20.359375 -1.421875 13.671875 8.265625 
Q 6.984375 17.96875 6.984375 36.375 
Q 6.984375 53.65625 15.1875 63.9375 
Q 23.390625 74.21875 37.203125 74.21875 
Q 40.921875 74.21875 44.703125 73.484375 
Q 48.484375 72.75 52.59375 71.296875 
z
" id="DejaVuSans-54"/>
      </defs>
      <g transform="translate(281.588818 322.182437)scale(0.1 -0.1)">
       <use xlink:href="#DejaVuSans-48"/>
       <use x="63.623047" xlink:href="#DejaVuSans-46"/>
       <use x="95.410156" xlink:href="#DejaVuSans-54"/>
      </g>
     </g>
    </g>
    <g id="xtick_5">
     <g id="line2d_9">
      <path clip-path="url(#p0be2a95d34)" d="M 366.853841 307.584 
L 366.853841 41.472 
" style="fill:none;stroke:#b0b0b0;stroke-linecap:square;stroke-width:0.8;"/>
     </g>
     <g id="line2d_10">
      <g>
       <use style="stroke:#000000;stroke-width:0.8;" x="366.853841" xlink:href="#m4be3f9194b" y="307.584"/>
      </g>
     </g>
     <g id="text_5">
      <!-- 0.8 -->
      <defs>
       <path d="M 31.78125 34.625 
Q 24.75 34.625 20.71875 30.859375 
Q 16.703125 27.09375 16.703125 20.515625 
Q 16.703125 13.921875 20.71875 10.15625 
Q 24.75 6.390625 31.78125 6.390625 
Q 38.8125 6.390625 42.859375 10.171875 
Q 46.921875 13.96875 46.921875 20.515625 
Q 46.921875 27.09375 42.890625 30.859375 
Q 38.875 34.625 31.78125 34.625 
z
M 21.921875 38.8125 
Q 15.578125 40.375 12.03125 44.71875 
Q 8.5 49.078125 8.5 55.328125 
Q 8.5 64.0625 14.71875 69.140625 
Q 20.953125 74.21875 31.78125 74.21875 
Q 42.671875 74.21875 48.875 69.140625 
Q 55.078125 64.0625 55.078125 55.328125 
Q 55.078125 49.078125 51.53125 44.71875 
Q 48 40.375 41.703125 38.8125 
Q 48.828125 37.15625 52.796875 32.3125 
Q 56.78125 27.484375 56.78125 20.515625 
Q 56.78125 9.90625 50.3125 4.234375 
Q 43.84375 -1.421875 31.78125 -1.421875 
Q 19.734375 -1.421875 13.25 4.234375 
Q 6.78125 9.90625 6.78125 20.515625 
Q 6.78125 27.484375 10.78125 32.3125 
Q 14.796875 37.15625 21.921875 38.8125 
z
M 18.3125 54.390625 
Q 18.3125 48.734375 21.84375 45.5625 
Q 25.390625 42.390625 31.78125 42.390625 
Q 38.140625 42.390625 41.71875 45.5625 
Q 45.3125 48.734375 45.3125 54.390625 
Q 45.3125 60.0625 41.71875 63.234375 
Q 38.140625 66.40625 31.78125 66.40625 
Q 25.390625 66.40625 21.84375 63.234375 
Q 18.3125 60.0625 18.3125 54.390625 
z
" id="DejaVuSans-56"/>
      </defs>
      <g transform="translate(358.902278 322.182437)scale(0.1 -0.1)">
       <use xlink:href="#DejaVuSans-48"/>
       <use x="63.623047" xlink:href="#DejaVuSans-46"/>
       <use x="95.410156" xlink:href="#DejaVuSans-56"/>
      </g>
     </g>
    </g>
    <g id="text_6">
     <!-- Hours -->
     <defs>
      <path d="M 9.8125 72.90625 
L 19.671875 72.90625 
L 19.671875 43.015625 
L 55.515625 43.015625 
L 55.515625 72.90625 
L 65.375 72.90625 
L 65.375 0 
L 55.515625 0 
L 55.515625 34.71875 
L 19.671875 34.71875 
L 19.671875 0 
L 9.8125 0 
z
" id="DejaVuSans-72"/>
      <path d="M 30.609375 48.390625 
Q 23.390625 48.390625 19.1875 42.75 
Q 14.984375 37.109375 14.984375 27.296875 
Q 14.984375 17.484375 19.15625 11.84375 
Q 23.34375 6.203125 30.609375 6.203125 
Q 37.796875 6.203125 41.984375 11.859375 
Q 46.1875 17.53125 46.1875 27.296875 
Q 46.1875 37.015625 41.984375 42.703125 
Q 37.796875 48.390625 30.609375 48.390625 
z
M 30.609375 56 
Q 42.328125 56 49.015625 48.375 
Q 55.71875 40.765625 55.71875 27.296875 
Q 55.71875 13.875 49.015625 6.21875 
Q 42.328125 -1.421875 30.609375 -1.421875 
Q 18.84375 -1.421875 12.171875 6.21875 
Q 5.515625 13.875 5.515625 27.296875 
Q 5.515625 40.765625 12.171875 48.375 
Q 18.84375 56 30.609375 56 
z
" id="DejaVuSans-111"/>
      <path d="M 8.5 21.578125 
L 8.5 54.6875 
L 17.484375 54.6875 
L 17.484375 21.921875 
Q 17.484375 14.15625 20.5 10.265625 
Q 23.53125 6.390625 29.59375 6.390625 
Q 36.859375 6.390625 41.078125 11.03125 
Q 45.3125 15.671875 45.3125 23.6875 
L 45.3125 54.6875 
L 54.296875 54.6875 
L 54.296875 0 
L 45.3125 0 
L 45.3125 8.40625 
Q 42.046875 3.421875 37.71875 1 
Q 33.40625 -1.421875 27.6875 -1.421875 
Q 18.265625 -1.421875 13.375 4.4375 
Q 8.5 10.296875 8.5 21.578125 
z
M 31.109375 56 
z
" id="DejaVuSans-117"/>
      <path d="M 41.109375 46.296875 
Q 39.59375 47.171875 37.8125 47.578125 
Q 36.03125 48 33.890625 48 
Q 26.265625 48 22.1875 43.046875 
Q 18.109375 38.09375 18.109375 28.8125 
L 18.109375 0 
L 9.078125 0 
L 9.078125 54.6875 
L 18.109375 54.6875 
L 18.109375 46.1875 
Q 20.953125 51.171875 25.484375 53.578125 
Q 30.03125 56 36.53125 56 
Q 37.453125 56 38.578125 55.875 
Q 39.703125 55.765625 41.0625 55.515625 
z
" id="DejaVuSans-114"/>
      <path d="M 44.28125 53.078125 
L 44.28125 44.578125 
Q 40.484375 46.53125 36.375 47.5 
Q 32.28125 48.484375 27.875 48.484375 
Q 21.1875 48.484375 17.84375 46.4375 
Q 14.5 44.390625 14.5 40.28125 
Q 14.5 37.15625 16.890625 35.375 
Q 19.28125 33.59375 26.515625 31.984375 
L 29.59375 31.296875 
Q 39.15625 29.25 43.1875 25.515625 
Q 47.21875 21.78125 47.21875 15.09375 
Q 47.21875 7.46875 41.1875 3.015625 
Q 35.15625 -1.421875 24.609375 -1.421875 
Q 20.21875 -1.421875 15.453125 -0.5625 
Q 10.6875 0.296875 5.421875 2 
L 5.421875 11.28125 
Q 10.40625 8.6875 15.234375 7.390625 
Q 20.0625 6.109375 24.8125 6.109375 
Q 31.15625 6.109375 34.5625 8.28125 
Q 37.984375 10.453125 37.984375 14.40625 
Q 37.984375 18.0625 35.515625 20.015625 
Q 33.0625 21.96875 24.703125 23.78125 
L 21.578125 24.515625 
Q 13.234375 26.265625 9.515625 29.90625 
Q 5.8125 33.546875 5.8125 39.890625 
Q 5.8125 47.609375 11.28125 51.796875 
Q 16.75 56 26.8125 56 
Q 31.78125 56 36.171875 55.265625 
Q 40.578125 54.546875 44.28125 53.078125 
z
" id="DejaVuSans-115"/>
     </defs>
     <g transform="translate(221.511562 335.860562)scale(0.1 -0.1)">
      <use xlink:href="#DejaVuSans-72"/>
      <use x="75.195312" xlink:href="#DejaVuSans-111"/>
      <use x="136.376953" xlink:href="#DejaVuSans-117"/>
      <use x="199.755859" xlink:href="#DejaVuSans-114"/>
      <use x="240.869141" xlink:href="#DejaVuSans-115"/>
     </g>
    </g>
   </g>
   <g id="matplotlib.axis_2">
    <g id="ytick_1">
     <g id="line2d_11">
      <path clip-path="url(#p0be2a95d34)" d="M 57.6 269.643373 
L 414.72 269.643373 
" style="fill:none;stroke:#b0b0b0;stroke-linecap:square;stroke-width:0.8;"/>
     </g>
     <g id="line2d_12">
      <defs>
       <path d="M 0 0 
L -3.5 0 
" id="m71b8c89ff5" style="stroke:#000000;stroke-width:0.8;"/>
      </defs>
      <g>
       <use style="stroke:#000000;stroke-width:0.8;" x="57.6" xlink:href="#m71b8c89ff5" y="269.643373"/>
      </g>
     </g>
     <g id="text_7">
      <!-- −1.0 -->
      <defs>
       <path d="M 10.59375 35.5 
L 73.1875 35.5 
L 73.1875 27.203125 
L 10.59375 27.203125 
z
" id="DejaVuSans-8722"/>
       <path d="M 12.40625 8.296875 
L 28.515625 8.296875 
L 28.515625 63.921875 
L 10.984375 60.40625 
L 10.984375 69.390625 
L 28.421875 72.90625 
L 38.28125 72.90625 
L 38.28125 8.296875 
L 54.390625 8.296875 
L 54.390625 0 
L 12.40625 0 
z
" id="DejaVuSans-49"/>
      </defs>
      <g transform="translate(26.317187 273.442592)scale(0.1 -0.1)">
       <use xlink:href="#DejaVuSans-8722"/>
       <use x="83.789062" xlink:href="#DejaVuSans-49"/>
       <use x="147.412109" xlink:href="#DejaVuSans-46"/>
       <use x="179.199219" xlink:href="#DejaVuSans-48"/>
      </g>
     </g>
    </g>
    <g id="ytick_2">
     <g id="line2d_13">
      <path clip-path="url(#p0be2a95d34)" d="M 57.6 217.071033 
L 414.72 217.071033 
" style="fill:none;stroke:#b0b0b0;stroke-linecap:square;stroke-width:0.8;"/>
     </g>
     <g id="line2d_14">
      <g>
       <use style="stroke:#000000;stroke-width:0.8;" x="57.6" xlink:href="#m71b8c89ff5" y="217.071033"/>
      </g>
     </g>
     <g id="text_8">
      <!-- −0.8 -->
      <g transform="translate(26.317187 220.870251)scale(0.1 -0.1)">
       <use xlink:href="#DejaVuSans-8722"/>
       <use x="83.789062" xlink:href="#DejaVuSans-48"/>
       <use x="147.412109" xlink:href="#DejaVuSans-46"/>
       <use x="179.199219" xlink:href="#DejaVuSans-56"/>
      </g>
     </g>
    </g>
    <g id="ytick_3">
     <g id="line2d_15">
      <path clip-path="url(#p0be2a95d34)" d="M 57.6 164.498692 
L 414.72 164.498692 
" style="fill:none;stroke:#b0b0b0;stroke-linecap:square;stroke-width:0.8;"/>
     </g>
     <g id="line2d_16">
      <g>
       <use style="stroke:#000000;stroke-width:0.8;" x="57.6" xlink:href="#m71b8c89ff5" y="164.498692"/>
      </g>
     </g>
     <g id="text_9">
      <!-- −0.6 -->
      <g transform="translate(26.317187 168.297911)scale(0.1 -0.1)">
       <use xlink:href="#DejaVuSans-8722"/>
       <use x="83.789062" xlink:href="#DejaVuSans-48"/>
       <use x="147.412109" xlink:href="#DejaVuSans-46"/>
       <use x="179.199219" xlink:href="#DejaVuSans-54"/>
      </g>
     </g>
    </g>
    <g id="ytick_4">
     <g id="line2d_17">
      <path clip-path="url(#p0be2a95d34)" d="M 57.6 111.926352 
L 414.72 111.926352 
" style="fill:none;stroke:#b0b0b0;stroke-linecap:square;stroke-width:0.8;"/>
     </g>
     <g id="line2d_18">
      <g>
       <use style="stroke:#000000;stroke-width:0.8;" x="57.6" xlink:href="#m71b8c89ff5" y="111.926352"/>
      </g>
     </g>
     <g id="text_10">
      <!-- −0.4 -->
      <g transform="translate(26.317187 115.725571)scale(0.1 -0.1)">
       <use xlink:href="#DejaVuSans-8722"/>
       <use x="83.789062" xlink:href="#DejaVuSans-48"/>
       <use x="147.412109" xlink:href="#DejaVuSans-46"/>
       <use x="179.199219" xlink:href="#DejaVuSans-52"/>
      </g>
     </g>
    </g>
    <g id="ytick_5">
     <g id="line2d_19">
      <path clip-path="url(#p0be2a95d34)" d="M 57.6 59.354012 
L 414.72 59.354012 
" style="fill:none;stroke:#b0b0b0;stroke-linecap:square;stroke-width:0.8;"/>
     </g>
     <g id="line2d_20">
      <g>
       <use style="stroke:#000000;stroke-width:0.8;" x="57.6" xlink:href="#m71b8c89ff5" y="59.354012"/>
      </g>
     </g>
     <g id="text_11">
      <!-- −0.2 -->
      <g transform="translate(26.317187 63.153231)scale(0.1 -0.1)">
       <use xlink:href="#DejaVuSans-8722"/>
       <use x="83.789062" xlink:href="#DejaVuSans-48"/>
       <use x="147.412109" xlink:href="#DejaVuSans-46"/>
       <use x="179.199219" xlink:href="#DejaVuSans-50"/>
      </g>
     </g>
    </g>
    <g id="text_12">
     <!-- Entropy Loss -->
     <defs>
      <path d="M 9.8125 72.90625 
L 55.90625 72.90625 
L 55.90625 64.59375 
L 19.671875 64.59375 
L 19.671875 43.015625 
L 54.390625 43.015625 
L 54.390625 34.71875 
L 19.671875 34.71875 
L 19.671875 8.296875 
L 56.78125 8.296875 
L 56.78125 0 
L 9.8125 0 
z
" id="DejaVuSans-69"/>
      <path d="M 54.890625 33.015625 
L 54.890625 0 
L 45.90625 0 
L 45.90625 32.71875 
Q 45.90625 40.484375 42.875 44.328125 
Q 39.84375 48.1875 33.796875 48.1875 
Q 26.515625 48.1875 22.3125 43.546875 
Q 18.109375 38.921875 18.109375 30.90625 
L 18.109375 0 
L 9.078125 0 
L 9.078125 54.6875 
L 18.109375 54.6875 
L 18.109375 46.1875 
Q 21.34375 51.125 25.703125 53.5625 
Q 30.078125 56 35.796875 56 
Q 45.21875 56 50.046875 50.171875 
Q 54.890625 44.34375 54.890625 33.015625 
z
" id="DejaVuSans-110"/>
      <path d="M 18.3125 70.21875 
L 18.3125 54.6875 
L 36.8125 54.6875 
L 36.8125 47.703125 
L 18.3125 47.703125 
L 18.3125 18.015625 
Q 18.3125 11.328125 20.140625 9.421875 
Q 21.96875 7.515625 27.59375 7.515625 
L 36.8125 7.515625 
L 36.8125 0 
L 27.59375 0 
Q 17.1875 0 13.234375 3.875 
Q 9.28125 7.765625 9.28125 18.015625 
L 9.28125 47.703125 
L 2.6875 47.703125 
L 2.6875 54.6875 
L 9.28125 54.6875 
L 9.28125 70.21875 
z
" id="DejaVuSans-116"/>
      <path d="M 18.109375 8.203125 
L 18.109375 -20.796875 
L 9.078125 -20.796875 
L 9.078125 54.6875 
L 18.109375 54.6875 
L 18.109375 46.390625 
Q 20.953125 51.265625 25.265625 53.625 
Q 29.59375 56 35.59375 56 
Q 45.5625 56 51.78125 48.09375 
Q 58.015625 40.1875 58.015625 27.296875 
Q 58.015625 14.40625 51.78125 6.484375 
Q 45.5625 -1.421875 35.59375 -1.421875 
Q 29.59375 -1.421875 25.265625 0.953125 
Q 20.953125 3.328125 18.109375 8.203125 
z
M 48.6875 27.296875 
Q 48.6875 37.203125 44.609375 42.84375 
Q 40.53125 48.484375 33.40625 48.484375 
Q 26.265625 48.484375 22.1875 42.84375 
Q 18.109375 37.203125 18.109375 27.296875 
Q 18.109375 17.390625 22.1875 11.75 
Q 26.265625 6.109375 33.40625 6.109375 
Q 40.53125 6.109375 44.609375 11.75 
Q 48.6875 17.390625 48.6875 27.296875 
z
" id="DejaVuSans-112"/>
      <path d="M 32.171875 -5.078125 
Q 28.375 -14.84375 24.75 -17.8125 
Q 21.140625 -20.796875 15.09375 -20.796875 
L 7.90625 -20.796875 
L 7.90625 -13.28125 
L 13.1875 -13.28125 
Q 16.890625 -13.28125 18.9375 -11.515625 
Q 21 -9.765625 23.484375 -3.21875 
L 25.09375 0.875 
L 2.984375 54.6875 
L 12.5 54.6875 
L 29.59375 11.921875 
L 46.6875 54.6875 
L 56.203125 54.6875 
z
" id="DejaVuSans-121"/>
      <path id="DejaVuSans-32"/>
      <path d="M 9.8125 72.90625 
L 19.671875 72.90625 
L 19.671875 8.296875 
L 55.171875 8.296875 
L 55.171875 0 
L 9.8125 0 
z
" id="DejaVuSans-76"/>
     </defs>
     <g transform="translate(20.2375 206.706125)rotate(-90)scale(0.1 -0.1)">
      <use xlink:href="#DejaVuSans-69"/>
      <use x="63.183594" xlink:href="#DejaVuSans-110"/>
      <use x="126.5625" xlink:href="#DejaVuSans-116"/>
      <use x="165.771484" xlink:href="#DejaVuSans-114"/>
      <use x="206.853516" xlink:href="#DejaVuSans-111"/>
      <use x="268.035156" xlink:href="#DejaVuSans-112"/>
      <use x="331.511719" xlink:href="#DejaVuSans-121"/>
      <use x="390.691406" xlink:href="#DejaVuSans-32"/>
      <use x="422.478516" xlink:href="#DejaVuSans-76"/>
      <use x="478.175781" xlink:href="#DejaVuSans-111"/>
      <use x="539.357422" xlink:href="#DejaVuSans-115"/>
      <use x="591.457031" xlink:href="#DejaVuSans-115"/>
     </g>
    </g>
   </g>
   <g id="line2d_21">
    <path clip-path="url(#p0be2a95d34)" d="M 57.6 294.896573 
L 58.013448 292.711325 
L 58.242961 294.205216 
L 58.668992 295.116862 
L 59.143609 292.373559 
L 59.371137 292.7321 
L 59.788085 293.892393 
L 60.203732 288.029135 
L 60.435405 292.472047 
L 60.620366 288.188319 
L 61.067758 290.821634 
L 61.255312 293.612128 
L 62.134584 292.169063 
L 62.364318 293.103991 
L 63.620105 293.728634 
L 64.278707 291.890459 
L 64.748309 290.957161 
L 65.393203 295.488 
L 65.58379 295.095742 
L 66.044122 292.492634 
L 66.234641 294.583468 
L 67.119976 289.131144 
L 67.538319 289.897643 
L 67.772415 292.891504 
L 68.419731 291.719962 
L 68.650385 292.633456 
L 68.845238 291.15658 
L 69.072714 293.045895 
L 69.260945 292.720068 
L 69.907591 289.939444 
L 70.549249 294.681611 
L 71.012068 293.149615 
L 71.198034 294.066744 
L 71.429847 294.264911 
L 71.85358 293.359626 
L 72.31253 286.383329 
L 72.4982 292.817553 
L 72.73656 292.630699 
L 72.959193 293.659414 
L 73.38306 289.787404 
L 73.811204 291.879836 
L 74.032756 294.780349 
L 75.111973 293.405376 
L 75.340086 294.874669 
L 75.526136 293.316352 
L 75.758409 295.213187 
L 75.993112 287.889786 
L 76.184195 287.743574 
L 77.292321 293.982138 
L 78.375052 293.980321 
L 79.031154 293.237982 
L 79.45071 288.071782 
L 79.679579 291.12092 
L 79.912635 287.698388 
L 81.421371 291.271644 
L 82.07906 287.220207 
L 82.494709 289.750084 
L 82.727095 295.035295 
L 82.955008 291.698466 
L 83.810665 295.413578 
L 84.033559 294.711317 
L 84.264361 294.846592 
L 84.919878 292.979338 
L 85.110805 290.744925 
L 85.749253 293.478137 
L 86.65264 286.007427 
L 87.072988 295.227852 
L 87.523587 294.155267 
L 87.958375 281.650375 
L 88.182986 293.549394 
L 88.375106 291.117881 
L 88.61286 293.463723 
L 89.034473 289.135531 
L 89.460182 293.301186 
L 90.111871 292.970157 
L 90.342693 286.659395 
L 90.572631 287.086655 
L 90.987419 292.73163 
L 91.218031 287.754667 
L 91.409838 294.439042 
L 92.05863 292.369799 
L 92.517028 294.887329 
L 92.710155 291.945766 
L 93.169691 294.144927 
L 93.354902 293.961927 
L 93.585241 294.244198 
L 94.017022 291.731243 
L 94.899055 283.441547 
L 95.316861 295.32471 
L 95.547727 295.344232 
L 95.963991 294.598008 
L 96.19698 293.011175 
L 96.62406 294.725951 
L 97.03624 291.095538 
L 97.274841 294.313167 
L 97.501715 295.369802 
L 97.691755 294.293677 
L 98.162489 293.45755 
L 98.355498 292.169189 
L 99.902944 291.191989 
L 100.784213 290.081833 
L 101.649431 294.42773 
L 101.888278 287.535882 
L 102.082323 291.883565 
L 102.962224 290.520186 
L 103.193093 294.498893 
L 103.385261 289.821121 
L 103.623019 289.884325 
L 104.292426 282.47779 
L 104.95183 293.116995 
L 105.176635 290.067701 
L 105.365204 291.931759 
L 105.814363 290.840185 
L 106.229475 294.415039 
L 106.651558 293.785853 
L 106.881667 294.436253 
L 107.110144 293.057301 
L 107.300382 295.12739 
L 107.5292 287.050118 
L 107.724297 293.64196 
L 108.385601 294.014853 
L 108.619316 290.953212 
L 109.054566 294.45073 
L 109.938308 294.15298 
L 110.164749 292.431467 
L 110.585793 293.413617 
L 111.24037 290.285264 
L 112.321493 292.209862 
L 112.973568 293.68561 
L 113.201974 293.431385 
L 113.432482 290.293693 
L 113.622242 291.94915 
L 114.085193 293.356399 
L 115.369618 289.635677 
L 115.826689 293.751603 
L 116.018061 289.389662 
L 116.254435 288.597092 
L 116.48599 291.854204 
L 117.155058 284.626469 
L 117.346827 293.800894 
L 117.809396 293.500762 
L 118.238791 291.37665 
L 118.668091 294.779409 
L 119.783951 294.955452 
L 120.215113 294.207504 
L 120.452564 295.015146 
L 121.098708 293.840533 
L 121.285683 293.114833 
L 121.697363 286.695681 
L 121.929324 293.957791 
L 122.158569 294.54129 
L 122.348039 287.494174 
L 122.588536 293.097066 
L 122.814983 294.63749 
L 123.65873 285.475412 
L 123.896202 290.168382 
L 124.318694 293.15347 
L 124.990535 291.165385 
L 125.876266 291.904654 
L 126.108816 292.405615 
L 126.308898 294.914841 
L 126.531606 294.626586 
L 126.953848 293.314409 
L 127.413968 289.835849 
L 127.833144 292.942863 
L 128.023975 289.37412 
L 128.675391 291.767749 
L 128.89844 294.829734 
L 129.312031 292.40198 
L 130.201969 292.123689 
L 130.618371 291.690068 
L 131.100905 292.641478 
L 131.28858 286.039076 
L 131.511755 294.054524 
L 131.741342 287.972887 
L 131.930386 276.096492 
L 132.389827 290.219271 
L 132.588467 285.093996 
L 133.2458 294.713416 
L 133.674295 292.595383 
L 133.910641 293.170297 
L 134.324046 291.988382 
L 134.792684 287.052499 
L 134.984858 277.538554 
L 135.214756 288.687463 
L 135.636613 294.300445 
L 135.867163 292.378917 
L 136.101333 282.339068 
L 136.292326 294.766561 
L 136.762438 291.987724 
L 136.956528 294.157492 
L 137.417893 293.322337 
L 137.607257 288.831701 
L 138.07703 293.997994 
L 138.932083 289.421186 
L 139.161602 288.767714 
L 139.393997 292.725583 
L 139.811095 271.082834 
L 140.044462 289.062769 
L 140.650863 291.766903 
L 140.877009 291.230595 
L 141.113382 294.641877 
L 141.304376 293.757494 
L 141.772529 293.064195 
L 141.958072 291.322314 
L 142.184668 291.172185 
L 142.419678 281.888274 
L 143.481673 289.058947 
L 144.569829 292.754505 
L 145.031062 293.988688 
L 145.687506 284.921838 
L 147.1876 294.92045 
L 147.412522 290.868857 
L 148.060542 291.900517 
L 148.247699 294.645199 
L 148.480496 293.541561 
L 148.708802 293.303661 
L 149.154094 287.405745 
L 149.576956 295.46431 
L 150.040158 295.011574 
L 150.480463 292.841086 
L 151.573204 284.752438 
L 152.471176 291.477049 
L 152.696519 290.062123 
L 153.118157 292.839832 
L 153.561074 288.601823 
L 153.807797 291.537338 
L 154.462866 290.228389 
L 155.133413 293.316007 
L 155.794399 294.155769 
L 156.44844 288.660108 
L 156.644208 291.853608 
L 156.878718 292.842026 
L 157.107437 272.508383 
L 157.306784 287.362189 
L 157.773035 292.050646 
L 157.968898 290.981571 
L 158.210506 294.030395 
L 158.439589 289.046412 
L 158.626136 293.165283 
L 159.107874 288.716512 
L 159.967937 294.9934 
L 160.19349 291.177261 
L 160.842918 290.062844 
L 161.036765 294.361581 
L 161.930725 293.698019 
L 162.583922 283.95241 
L 162.780043 293.593264 
L 163.490598 285.441915 
L 163.924019 285.752857 
L 164.334471 288.36969 
L 165.005953 294.863952 
L 165.240487 295.346645 
L 166.540444 295.382869 
L 167.212292 293.759907 
L 167.403635 292.312893 
L 167.640703 293.957446 
L 168.079729 294.860067 
L 168.541384 293.370406 
L 168.974937 294.491185 
L 169.174834 289.085206 
L 169.409652 292.500374 
L 169.636546 291.054081 
L 170.076567 291.661051 
L 171.198815 293.001336 
L 171.404661 293.710146 
L 172.75869 289.814948 
L 173.173091 291.818105 
L 173.399971 291.084978 
L 173.627643 294.161785 
L 173.820497 293.542595 
L 174.055358 288.225264 
L 174.284442 292.11971 
L 174.483789 287.05275 
L 174.71718 292.75344 
L 174.944637 294.500836 
L 175.144214 293.07441 
L 175.373152 289.930482 
L 175.610687 289.492474 
L 176.045617 286.979049 
L 176.470633 293.58026 
L 176.711414 292.975264 
L 177.138242 287.800072 
L 177.363108 288.373293 
L 177.602149 291.408988 
L 178.457331 289.282338 
L 178.932629 287.030941 
L 179.129333 285.223694 
L 179.804346 285.072688 
L 180.04063 287.05814 
L 180.244036 293.703409 
L 180.724706 287.50041 
L 180.919978 291.204868 
L 182.055691 280.577383 
L 182.256901 286.506321 
L 183.139658 290.59652 
L 183.324198 285.042418 
L 183.562153 293.759562 
L 183.801929 289.713076 
L 183.994611 289.248339 
L 185.100633 292.962417 
L 185.327943 283.612764 
L 186.180563 291.956107 
L 186.42272 292.762621 
L 186.854328 288.173654 
L 187.085376 288.105155 
L 187.281137 290.278025 
L 187.517335 287.345236 
L 187.943049 293.10443 
L 188.404386 291.337073 
L 188.598734 277.576188 
L 188.833866 291.015382 
L 189.262359 291.492152 
L 189.695648 291.376775 
L 190.144894 287.847451 
L 190.334916 291.712943 
L 190.569217 292.555211 
L 191.248561 285.751228 
L 192.123538 286.526062 
L 192.32046 286.530982 
L 192.783163 284.593818 
L 192.971009 280.368594 
L 193.429743 290.538831 
L 194.28755 287.439932 
L 194.525958 289.235052 
L 194.961877 287.048081 
L 195.423976 287.644428 
L 196.271467 286.535337 
L 196.958689 291.017544 
L 197.199368 285.201101 
L 197.626877 281.201117 
L 197.860752 288.043236 
L 198.052689 287.557409 
L 198.537622 291.817572 
L 198.73433 285.669285 
L 198.963608 286.456873 
L 199.396334 291.782884 
L 200.290293 292.275165 
L 200.523408 293.304225 
L 200.941181 284.269808 
L 201.358781 287.920714 
L 201.598961 285.742203 
L 201.826312 285.672701 
L 202.026106 285.12107 
L 202.447302 284.922089 
L 202.680623 284.442028 
L 202.911883 289.984787 
L 203.105482 274.252175 
L 203.582101 288.576066 
L 203.774063 290.575337 
L 204.001666 279.826363 
L 204.228815 290.450715 
L 204.427614 289.450892 
L 204.89122 288.434962 
L 205.080302 288.663617 
L 205.315053 290.278213 
L 205.733241 281.52895 
L 205.968415 286.588232 
L 206.198969 284.078191 
L 206.411491 276.133719 
L 206.646121 288.072221 
L 206.873734 277.674143 
L 207.298523 289.242667 
L 207.533257 280.792251 
L 208.199872 272.598441 
L 208.621597 282.507904 
L 209.05412 285.48591 
L 209.703079 286.896793 
L 209.934723 279.04357 
L 210.133189 283.642376 
L 210.362097 284.701612 
L 210.595693 288.030075 
L 210.793601 284.882575 
L 211.030924 286.933424 
L 211.255831 283.019613 
L 211.677567 288.872312 
L 211.909488 284.061395 
L 212.103768 287.607922 
L 212.994538 283.490806 
L 213.877598 283.451637 
L 214.066107 286.114156 
L 214.518797 288.662677 
L 214.715975 283.315609 
L 214.958487 289.894948 
L 215.381475 254.150181 
L 215.612436 268.173955 
L 216.271584 284.977741 
L 216.463414 260.723879 
L 216.69838 284.051431 
L 217.585144 281.052743 
L 217.776786 279.53745 
L 218.243823 266.138068 
L 218.437066 256.716281 
L 218.680403 286.007365 
L 218.916175 277.295735 
L 219.332679 277.374137 
L 219.992083 271.598085 
L 220.188614 275.370165 
L 220.660657 259.712367 
L 220.860586 276.219704 
L 221.100241 279.02129 
L 221.336724 280.320494 
L 221.522892 267.040563 
L 221.749363 273.063868 
L 222.180622 271.852906 
L 222.834473 279.729568 
L 223.074606 277.312813 
L 223.496118 266.530546 
L 223.961072 292.102193 
L 224.387628 271.302152 
L 224.581628 241.600196 
L 225.228208 283.39166 
L 225.455097 273.593533 
L 225.682532 272.16272 
L 225.881089 278.412127 
L 226.118006 275.898232 
L 226.35645 277.705604 
L 226.55363 267.424549 
L 227.20801 281.370956 
L 227.442326 269.60939 
L 228.319683 261.80317 
L 228.513788 280.449283 
L 228.980707 258.652959 
L 229.634765 276.981659 
L 229.827962 269.341956 
L 230.056616 275.013629 
L 230.297551 278.196507 
L 230.490552 266.750412 
L 230.711626 265.664619 
L 230.896384 281.527132 
L 231.356915 274.189912 
L 231.783266 271.982008 
L 232.259665 258.543238 
L 232.871515 262.349928 
L 233.110606 259.293536 
L 233.34412 253.95084 
L 233.575988 259.092801 
L 233.764732 251.993715 
L 234.189557 250.681695 
L 234.42728 270.308345 
L 234.663817 253.596058 
L 235.087023 263.415556 
L 235.327533 228.122225 
L 235.751455 239.344929 
L 236.413095 247.253569 
L 236.832922 248.944279 
L 237.065672 236.167457 
L 237.304171 251.63862 
L 238.57568 218.023887 
L 238.805277 206.191816 
L 239.459192 221.842908 
L 239.691251 263.576934 
L 240.114453 224.036397 
L 240.34792 226.972398 
L 241.20867 200.727773 
L 241.678768 211.347659 
L 241.870924 197.208257 
L 242.111019 207.684156 
L 242.344063 228.944125 
L 242.774493 200.718623 
L 243.001846 238.042686 
L 243.198478 193.790362 
L 243.429783 208.725265 
L 243.849204 206.877752 
L 244.288346 216.945098 
L 244.753814 232.307982 
L 244.943488 148.090853 
L 245.171082 217.773422 
L 245.41027 211.675554 
L 245.607113 198.986362 
L 246.482736 173.2756 
L 246.680952 204.37122 
L 246.917163 182.840215 
L 247.147888 213.505112 
L 247.812091 193.360595 
L 248.00182 191.355073 
L 248.230174 184.218196 
L 248.469818 231.123231 
L 248.655933 195.620782 
L 249.117067 159.983684 
L 249.549819 203.270716 
L 249.736539 178.527972 
L 251.04404 201.609116 
L 251.509092 151.154969 
L 251.937164 138.666386 
L 252.171934 190.356957 
L 252.37255 174.259364 
L 252.787831 182.342543 
L 253.02102 149.249156 
L 253.462689 167.975128 
L 253.688828 183.099532 
L 254.575037 179.518395 
L 254.771051 147.425928 
L 255.241582 163.241923 
L 255.439087 180.566977 
L 255.682817 157.430462 
L 255.875254 153.539182 
L 256.119196 156.250303 
L 256.3418 141.476967 
L 256.534808 152.694453 
L 256.997343 167.657996 
L 257.195804 159.149844 
L 257.430275 199.796417 
L 258.066053 148.827552 
L 258.302761 147.095103 
L 258.505959 137.818211 
L 258.740179 154.863501 
L 259.157463 160.857068 
L 260.485051 184.472594 
L 260.723095 137.257806 
L 260.921356 131.535025 
L 261.381124 123.983508 
L 262.237954 188.220702 
L 262.875016 158.790034 
L 263.524123 153.326821 
L 264.182391 138.307986 
L 264.411928 172.367308 
L 264.844754 114.830807 
L 265.072527 127.42051 
L 265.27251 125.964417 
L 265.513654 144.716938 
L 265.937421 146.414495 
L 266.171032 139.459693 
L 266.587408 157.483263 
L 266.819018 121.889995 
L 267.008181 141.439865 
L 267.679353 108.866585 
L 268.14059 141.70042 
L 268.327962 144.715183 
L 268.797046 117.205102 
L 269.231637 125.965717 
L 269.888093 159.792631 
L 270.303806 152.958785 
L 270.526606 202.05148 
L 270.944414 139.542905 
L 271.610263 132.650845 
L 271.836057 138.888618 
L 272.022094 147.247723 
L 272.253012 149.080712 
L 272.67878 157.210863 
L 272.903454 182.566217 
L 274.666635 118.812804 
L 274.896412 117.750028 
L 275.321323 159.44736 
L 275.553875 143.006988 
L 275.989718 142.266419 
L 276.226288 156.55479 
L 276.422176 145.43988 
L 276.65844 140.881732 
L 277.090826 107.182464 
L 277.322229 173.603057 
L 277.515951 114.085186 
L 278.397401 146.687459 
L 278.583422 151.304518 
L 279.233586 196.627797 
L 279.692181 122.382645 
L 280.775335 136.380505 
L 280.962554 161.369389 
L 281.185223 131.759607 
L 281.414617 156.052027 
L 281.842392 115.358498 
L 282.27197 132.011474 
L 282.495517 78.557652 
L 282.684347 109.801693 
L 283.156988 140.992973 
L 283.34758 99.797104 
L 283.581868 139.214618 
L 283.806577 102.663688 
L 283.993765 127.66282 
L 284.641179 184.324737 
L 285.071086 122.217977 
L 286.17892 125.918432 
L 286.366903 185.975055 
L 286.836913 132.34743 
L 287.266458 138.443434 
L 287.460318 151.399543 
L 287.697211 137.85214 
L 287.92982 143.647158 
L 288.11683 106.08731 
L 289.41617 128.2606 
L 289.65388 125.533122 
L 289.849255 171.909354 
L 290.071845 110.173646 
L 290.301352 120.591544 
L 291.170751 103.606865 
L 291.39997 122.359919 
L 291.586261 168.30611 
L 291.81722 93.333064 
L 292.049329 126.478414 
L 292.243325 131.565452 
L 292.470992 142.195522 
L 292.890484 128.916696 
L 293.126655 148.401451 
L 293.36257 144.352004 
L 293.556844 190.35622 
L 293.785182 120.702362 
L 294.1989 197.094493 
L 295.753935 132.610116 
L 296.406664 150.026309 
L 296.831484 129.706423 
L 297.061444 161.621154 
L 297.908316 145.544839 
L 298.1347 130.10404 
L 298.329491 133.723108 
L 298.787204 117.264499 
L 299.397567 152.538277 
L 299.625369 121.851954 
L 300.707651 167.204743 
L 301.366868 141.619825 
L 302.009582 131.062767 
L 302.243209 98.591171 
L 302.430073 92.65783 
L 302.663354 151.50892 
L 302.901582 134.203772 
L 303.088664 164.409126 
L 303.322028 131.645232 
L 303.514143 148.975424 
L 303.743005 140.483943 
L 303.97839 122.643764 
L 304.402362 124.375351 
L 304.631838 138.619696 
L 304.827069 115.070109 
L 305.480466 132.151427 
L 305.710893 108.083792 
L 306.359091 95.225043 
L 306.785464 113.013094 
L 307.876276 120.647078 
L 308.293388 168.166933 
L 308.519681 136.517621 
L 308.753093 184.47557 
L 309.186081 131.724887 
L 309.410271 163.227681 
L 309.59727 154.873105 
L 309.827706 115.460386 
L 310.260303 160.400635 
L 310.489639 144.211809 
L 310.723731 150.489417 
L 311.14621 121.321545 
L 311.338184 139.946883 
L 311.79663 120.907751 
L 313.973924 107.798019 
L 314.637775 88.375701 
L 315.055043 162.037244 
L 315.283202 110.071688 
L 315.719089 101.121705 
L 316.138793 144.863996 
L 316.554194 118.16766 
L 317.207607 120.310198 
L 317.442733 139.312604 
L 317.672035 135.274171 
L 317.866463 151.500083 
L 318.085083 142.055609 
L 318.278648 100.234446 
L 318.501201 174.757459 
L 318.736018 114.935734 
L 319.147989 138.852629 
L 319.565092 126.391403 
L 319.797801 150.367804 
L 320.228352 138.139863 
L 320.641193 111.379493 
L 321.119914 145.17804 
L 321.312246 122.838092 
L 321.545897 136.093643 
L 321.782242 160.744668 
L 321.985068 129.142845 
L 322.226231 142.341624 
L 323.089936 154.830144 
L 324.191558 156.697539 
L 324.390811 82.789934 
L 324.810923 140.7029 
L 325.043988 110.988567 
L 325.274082 127.868193 
L 325.922405 124.328795 
L 326.107189 164.286244 
L 326.339211 114.109854 
L 326.569168 127.710724 
L 326.762564 130.359158 
L 326.992781 130.279425 
L 327.178687 139.787056 
L 327.411328 77.757162 
L 328.073732 86.52337 
L 328.932719 139.624769 
L 329.156846 119.463393 
L 329.575583 97.704045 
L 329.814796 149.094421 
L 330.483302 67.773579 
L 330.68075 119.389347 
L 330.912601 116.815382 
L 331.135399 138.66366 
L 331.324706 140.236423 
L 331.553774 125.428594 
L 331.782234 151.624266 
L 332.204331 111.503849 
L 332.435321 120.754269 
L 332.635015 111.720362 
L 332.859326 151.708323 
L 333.048605 144.109216 
L 333.280604 143.464252 
L 333.700054 85.036427 
L 334.343165 154.966093 
L 334.58235 101.112571 
L 335.003102 162.63815 
L 335.906427 124.533063 
L 336.093176 138.533242 
L 336.553108 129.024961 
L 336.752374 137.151391 
L 337.401356 134.195523 
L 337.816461 105.97241 
L 338.038558 126.229531 
L 338.225808 108.607135 
L 338.704454 158.585632 
L 339.348352 96.143104 
L 339.95701 136.706676 
L 340.189604 120.480209 
L 340.413014 146.511102 
L 340.603606 102.032904 
L 341.073803 143.673871 
L 341.261099 127.500807 
L 341.500907 159.418829 
L 341.921627 108.589665 
L 342.148294 150.23679 
L 342.807146 150.666463 
L 343.232451 149.665151 
L 343.461472 165.683559 
L 343.896142 102.475064 
L 344.092869 121.738057 
L 344.324009 161.495233 
L 344.569891 127.259265 
L 344.765823 168.38437 
L 344.994898 179.698997 
L 345.183797 120.670705 
L 345.844248 148.58854 
L 346.07724 118.058244 
L 346.306917 163.696728 
L 346.504629 157.887272 
L 346.729229 140.529787 
L 346.913111 135.533332 
L 347.145045 164.943319 
L 347.569935 96.194619 
L 347.800229 165.054701 
L 348.040998 104.650833 
L 348.222623 138.327947 
L 348.460786 146.56843 
L 348.697293 144.199478 
L 349.318743 123.834938 
L 349.986069 131.441002 
L 350.453421 107.732293 
L 350.881831 117.001507 
L 351.071017 131.645608 
L 351.312037 129.64712 
L 351.536059 113.781317 
L 352.622845 111.731658 
L 353.468991 108.594561 
L 354.123764 135.427316 
L 354.352168 127.833269 
L 354.774023 106.487418 
L 355.005121 114.660115 
L 355.231988 139.562474 
L 355.843539 107.440786 
L 356.082956 140.662806 
L 356.511463 93.366029 
L 356.746405 154.778691 
L 356.936186 121.484027 
L 357.40429 138.09376 
L 357.59339 83.164089 
L 357.826032 130.13033 
L 358.24434 108.011712 
L 358.908003 131.159648 
L 359.137837 125.105627 
L 359.333951 141.52538 
L 359.562586 141.474162 
L 359.792587 150.849964 
L 359.987786 130.008576 
L 360.452915 135.665161 
L 360.643255 109.838301 
L 361.306193 163.711534 
L 362.39835 132.86601 
L 363.28253 103.487179 
L 365.008238 130.705392 
L 365.197752 88.288079 
L 365.433156 132.893633 
L 365.664909 92.028722 
L 365.854859 137.113052 
L 366.520124 135.383094 
L 366.759417 130.932677 
L 367.17342 114.459833 
L 367.404217 144.202972 
L 367.824765 137.716214 
L 368.009445 88.299704 
L 368.236398 133.162625 
L 368.477597 114.445184 
L 368.89583 122.461595 
L 369.119977 122.898319 
L 369.311948 113.296987 
L 369.54582 113.29578 
L 369.738501 110.376489 
L 370.204065 76.934901 
L 370.390563 150.103003 
L 370.626814 113.578732 
L 371.048378 88.248196 
L 371.513953 93.328826 
L 371.70252 106.057306 
L 372.782449 119.53805 
L 373.245967 92.956207 
L 374.103235 105.179229 
L 374.340682 110.801133 
L 374.535302 121.444051 
L 375.42389 107.038179 
L 375.846478 118.969286 
L 376.509116 112.597898 
L 376.746247 112.307136 
L 377.405183 142.950552 
L 377.602456 117.583863 
L 378.258445 145.623569 
L 378.495951 142.00472 
L 379.150914 115.163607 
L 379.389408 83.806381 
L 379.581294 80.710726 
L 379.820136 113.646057 
L 380.262976 99.725259 
L 380.489482 141.19761 
L 380.914037 101.528816 
L 381.152573 106.83507 
L 381.345284 140.081453 
L 381.572223 120.901311 
L 381.797203 128.277145 
L 381.989483 104.291492 
L 382.418687 121.541419 
L 382.648336 53.568 
L 383.529338 135.642215 
L 384.187074 119.166473 
L 384.378603 119.759538 
L 384.603115 76.070267 
L 384.78581 107.388299 
L 385.245972 98.182398 
L 385.437751 107.587985 
L 385.670498 112.491522 
L 385.900582 96.112152 
L 386.094256 123.763619 
L 386.324284 122.996125 
L 386.512212 96.449965 
L 386.753888 102.741659 
L 386.977224 71.042089 
L 387.625392 128.040335 
L 388.057283 104.100909 
L 388.285797 117.986666 
L 389.138011 112.27305 
L 389.376038 105.499744 
L 389.574178 112.131077 
L 390.038559 69.285747 
L 390.886064 84.027861 
L 391.542383 120.813909 
L 391.972722 133.158269 
L 392.8591 140.190266 
L 393.052747 101.598319 
L 393.285914 114.261848 
L 393.522799 136.607037 
L 394.182403 100.713136 
L 394.799901 86.696938 
L 395.031333 114.890384 
L 395.256252 110.475588 
L 395.449596 150.727881 
L 395.909764 118.296426 
L 396.097465 62.310699 
L 396.745905 136.376799 
L 396.974615 127.642663 
L 397.166447 89.297898 
L 397.397833 141.752312 
L 397.63329 103.44761 
L 397.823007 175.482172 
L 398.887289 87.646757 
L 399.34745 115.002557 
L 400.435112 152.055991 
L 400.858571 115.149012 
L 401.10065 118.576487 
L 401.287242 113.352082 
L 401.520084 102.841322 
L 401.934772 110.236051 
L 402.157894 120.251718 
L 402.395613 108.532274 
L 402.593966 119.447498 
L 402.828898 90.790826 
L 403.023955 115.880572 
L 403.253163 108.903679 
L 403.688927 121.027985 
L 404.162426 93.051248 
L 404.355752 115.627036 
L 404.594301 121.644607 
L 405.002119 107.493038 
L 405.66288 126.676885 
L 406.082073 115.620965 
L 406.316826 90.646745 
L 406.505843 96.988952 
L 406.734684 128.933437 
L 406.976911 91.22122 
L 408.053529 124.74537 
L 408.278889 137.087067 
L 408.469252 91.677857 
L 408.698814 151.923975 
L 408.88799 80.708721 
L 409.123818 92.828084 
L 409.773948 152.548101 
L 409.962088 110.048727 
L 410.204688 106.916895 
L 411.082141 105.493407 
L 411.50442 136.640135 
L 411.733768 89.520686 
L 411.930821 140.418185 
L 412.345133 103.272162 
L 412.80825 102.018262 
L 413.001285 96.163723 
L 413.224243 123.346002 
L 413.451431 82.591478 
L 413.644082 125.856677 
L 413.883104 98.98961 
L 414.119153 125.300314 
L 414.535798 121.792244 
L 414.72 98.81077 
L 414.72 98.81077 
" style="fill:none;stroke:#000000;stroke-linecap:square;stroke-width:0.8;"/>
   </g>
   <g id="patch_3">
    <path d="M 57.6 307.584 
L 57.6 41.472 
" style="fill:none;stroke:#000000;stroke-linecap:square;stroke-linejoin:miter;stroke-width:0.8;"/>
   </g>
   <g id="patch_4">
    <path d="M 414.72 307.584 
L 414.72 41.472 
" style="fill:none;stroke:#000000;stroke-linecap:square;stroke-linejoin:miter;stroke-width:0.8;"/>
   </g>
   <g id="patch_5">
    <path d="M 57.6 307.584 
L 414.72 307.584 
" style="fill:none;stroke:#000000;stroke-linecap:square;stroke-linejoin:miter;stroke-width:0.8;"/>
   </g>
   <g id="patch_6">
    <path d="M 57.6 41.472 
L 414.72 41.472 
" style="fill:none;stroke:#000000;stroke-linecap:square;stroke-linejoin:miter;stroke-width:0.8;"/>
   </g>
  </g>
  <g id="axes_2">
   <g id="matplotlib.axis_3">
    <g id="xtick_6">
     <g id="line2d_22">
      <defs>
       <path d="M 0 0 
L 0 -3.5 
" id="m58804a3ce7" style="stroke:#000000;stroke-width:0.8;"/>
      </defs>
      <g>
       <use style="stroke:#000000;stroke-width:0.8;" x="57.6" xlink:href="#m58804a3ce7" y="41.472"/>
      </g>
     </g>
    </g>
    <g id="xtick_7">
     <g id="line2d_23">
      <g>
       <use style="stroke:#000000;stroke-width:0.8;" x="101.098173" xlink:href="#m58804a3ce7" y="41.472"/>
      </g>
     </g>
     <g id="text_13">
      <!-- 200K -->
      <defs>
       <path d="M 9.8125 72.90625 
L 19.671875 72.90625 
L 19.671875 42.09375 
L 52.390625 72.90625 
L 65.09375 72.90625 
L 28.90625 38.921875 
L 67.671875 0 
L 54.6875 0 
L 19.671875 35.109375 
L 19.671875 0 
L 9.8125 0 
z
" id="DejaVuSans-75"/>
      </defs>
      <g transform="translate(88.275517 32.392313)scale(0.1 -0.1)">
       <use xlink:href="#DejaVuSans-50"/>
       <use x="63.623047" xlink:href="#DejaVuSans-48"/>
       <use x="127.246094" xlink:href="#DejaVuSans-48"/>
       <use x="190.869141" xlink:href="#DejaVuSans-75"/>
      </g>
     </g>
    </g>
    <g id="xtick_8">
     <g id="line2d_24">
      <g>
       <use style="stroke:#000000;stroke-width:0.8;" x="144.596346" xlink:href="#m58804a3ce7" y="41.472"/>
      </g>
     </g>
     <g id="text_14">
      <!-- 400K -->
      <g transform="translate(131.77369 32.392313)scale(0.1 -0.1)">
       <use xlink:href="#DejaVuSans-52"/>
       <use x="63.623047" xlink:href="#DejaVuSans-48"/>
       <use x="127.246094" xlink:href="#DejaVuSans-48"/>
       <use x="190.869141" xlink:href="#DejaVuSans-75"/>
      </g>
     </g>
    </g>
    <g id="xtick_9">
     <g id="line2d_25">
      <g>
       <use style="stroke:#000000;stroke-width:0.8;" x="188.094519" xlink:href="#m58804a3ce7" y="41.472"/>
      </g>
     </g>
     <g id="text_15">
      <!-- 600K -->
      <g transform="translate(175.271863 32.392313)scale(0.1 -0.1)">
       <use xlink:href="#DejaVuSans-54"/>
       <use x="63.623047" xlink:href="#DejaVuSans-48"/>
       <use x="127.246094" xlink:href="#DejaVuSans-48"/>
       <use x="190.869141" xlink:href="#DejaVuSans-75"/>
      </g>
     </g>
    </g>
    <g id="xtick_10">
     <g id="line2d_26">
      <g>
       <use style="stroke:#000000;stroke-width:0.8;" x="231.592692" xlink:href="#m58804a3ce7" y="41.472"/>
      </g>
     </g>
     <g id="text_16">
      <!-- 800K -->
      <g transform="translate(218.770036 32.392313)scale(0.1 -0.1)">
       <use xlink:href="#DejaVuSans-56"/>
       <use x="63.623047" xlink:href="#DejaVuSans-48"/>
       <use x="127.246094" xlink:href="#DejaVuSans-48"/>
       <use x="190.869141" xlink:href="#DejaVuSans-75"/>
      </g>
     </g>
    </g>
    <g id="xtick_11">
     <g id="line2d_27">
      <g>
       <use style="stroke:#000000;stroke-width:0.8;" x="275.090865" xlink:href="#m58804a3ce7" y="41.472"/>
      </g>
     </g>
     <g id="text_17">
      <!-- 1,000K -->
      <defs>
       <path d="M 11.71875 12.40625 
L 22.015625 12.40625 
L 22.015625 4 
L 14.015625 -11.625 
L 7.71875 -11.625 
L 11.71875 4 
z
" id="DejaVuSans-44"/>
      </defs>
      <g transform="translate(257.497896 32.392313)scale(0.1 -0.1)">
       <use xlink:href="#DejaVuSans-49"/>
       <use x="63.623047" xlink:href="#DejaVuSans-44"/>
       <use x="95.410156" xlink:href="#DejaVuSans-48"/>
       <use x="159.033203" xlink:href="#DejaVuSans-48"/>
       <use x="222.65625" xlink:href="#DejaVuSans-48"/>
       <use x="286.279297" xlink:href="#DejaVuSans-75"/>
      </g>
     </g>
    </g>
    <g id="xtick_12">
     <g id="line2d_28">
      <g>
       <use style="stroke:#000000;stroke-width:0.8;" x="318.589038" xlink:href="#m58804a3ce7" y="41.472"/>
      </g>
     </g>
     <g id="text_18">
      <!-- 1.20M -->
      <defs>
       <path d="M 9.8125 72.90625 
L 24.515625 72.90625 
L 43.109375 23.296875 
L 61.8125 72.90625 
L 76.515625 72.90625 
L 76.515625 0 
L 66.890625 0 
L 66.890625 64.015625 
L 48.09375 14.015625 
L 38.1875 14.015625 
L 19.390625 64.015625 
L 19.390625 0 
L 9.8125 0 
z
" id="DejaVuSans-77"/>
      </defs>
      <g transform="translate(303.142163 32.392313)scale(0.1 -0.1)">
       <use xlink:href="#DejaVuSans-49"/>
       <use x="63.623047" xlink:href="#DejaVuSans-46"/>
       <use x="95.410156" xlink:href="#DejaVuSans-50"/>
       <use x="159.033203" xlink:href="#DejaVuSans-48"/>
       <use x="222.65625" xlink:href="#DejaVuSans-77"/>
      </g>
     </g>
    </g>
    <g id="xtick_13">
     <g id="line2d_29">
      <g>
       <use style="stroke:#000000;stroke-width:0.8;" x="362.087211" xlink:href="#m58804a3ce7" y="41.472"/>
      </g>
     </g>
     <g id="text_19">
      <!-- 1.40M -->
      <g transform="translate(346.640336 32.392313)scale(0.1 -0.1)">
       <use xlink:href="#DejaVuSans-49"/>
       <use x="63.623047" xlink:href="#DejaVuSans-46"/>
       <use x="95.410156" xlink:href="#DejaVuSans-52"/>
       <use x="159.033203" xlink:href="#DejaVuSans-48"/>
       <use x="222.65625" xlink:href="#DejaVuSans-77"/>
      </g>
     </g>
    </g>
    <g id="xtick_14">
     <g id="line2d_30">
      <g>
       <use style="stroke:#000000;stroke-width:0.8;" x="405.585384" xlink:href="#m58804a3ce7" y="41.472"/>
      </g>
     </g>
     <g id="text_20">
      <!-- 1.60M -->
      <g transform="translate(390.138509 32.392313)scale(0.1 -0.1)">
       <use xlink:href="#DejaVuSans-49"/>
       <use x="63.623047" xlink:href="#DejaVuSans-46"/>
       <use x="95.410156" xlink:href="#DejaVuSans-54"/>
       <use x="159.033203" xlink:href="#DejaVuSans-48"/>
       <use x="222.65625" xlink:href="#DejaVuSans-77"/>
      </g>
     </g>
    </g>
    <g id="text_21">
     <!-- Steps -->
     <defs>
      <path d="M 53.515625 70.515625 
L 53.515625 60.890625 
Q 47.90625 63.578125 42.921875 64.890625 
Q 37.9375 66.21875 33.296875 66.21875 
Q 25.25 66.21875 20.875 63.09375 
Q 16.5 59.96875 16.5 54.203125 
Q 16.5 49.359375 19.40625 46.890625 
Q 22.3125 44.4375 30.421875 42.921875 
L 36.375 41.703125 
Q 47.40625 39.59375 52.65625 34.296875 
Q 57.90625 29 57.90625 20.125 
Q 57.90625 9.515625 50.796875 4.046875 
Q 43.703125 -1.421875 29.984375 -1.421875 
Q 24.8125 -1.421875 18.96875 -0.25 
Q 13.140625 0.921875 6.890625 3.21875 
L 6.890625 13.375 
Q 12.890625 10.015625 18.65625 8.296875 
Q 24.421875 6.59375 29.984375 6.59375 
Q 38.421875 6.59375 43.015625 9.90625 
Q 47.609375 13.234375 47.609375 19.390625 
Q 47.609375 24.75 44.3125 27.78125 
Q 41.015625 30.8125 33.5 32.328125 
L 27.484375 33.5 
Q 16.453125 35.6875 11.515625 40.375 
Q 6.59375 45.0625 6.59375 53.421875 
Q 6.59375 63.09375 13.40625 68.65625 
Q 20.21875 74.21875 32.171875 74.21875 
Q 37.3125 74.21875 42.625 73.28125 
Q 47.953125 72.359375 53.515625 70.515625 
z
" id="DejaVuSans-83"/>
      <path d="M 56.203125 29.59375 
L 56.203125 25.203125 
L 14.890625 25.203125 
Q 15.484375 15.921875 20.484375 11.0625 
Q 25.484375 6.203125 34.421875 6.203125 
Q 39.59375 6.203125 44.453125 7.46875 
Q 49.3125 8.734375 54.109375 11.28125 
L 54.109375 2.78125 
Q 49.265625 0.734375 44.1875 -0.34375 
Q 39.109375 -1.421875 33.890625 -1.421875 
Q 20.796875 -1.421875 13.15625 6.1875 
Q 5.515625 13.8125 5.515625 26.8125 
Q 5.515625 40.234375 12.765625 48.109375 
Q 20.015625 56 32.328125 56 
Q 43.359375 56 49.78125 48.890625 
Q 56.203125 41.796875 56.203125 29.59375 
z
M 47.21875 32.234375 
Q 47.125 39.59375 43.09375 43.984375 
Q 39.0625 48.390625 32.421875 48.390625 
Q 24.90625 48.390625 20.390625 44.140625 
Q 15.875 39.890625 15.1875 32.171875 
z
" id="DejaVuSans-101"/>
     </defs>
     <g transform="translate(222.170156 20.793875)scale(0.1 -0.1)">
      <use xlink:href="#DejaVuSans-83"/>
      <use x="63.476562" xlink:href="#DejaVuSans-116"/>
      <use x="102.685547" xlink:href="#DejaVuSans-101"/>
      <use x="164.208984" xlink:href="#DejaVuSans-112"/>
      <use x="227.685547" xlink:href="#DejaVuSans-115"/>
     </g>
    </g>
   </g>
   <g id="patch_7">
    <path d="M 57.6 307.584 
L 57.6 41.472 
" style="fill:none;stroke:#000000;stroke-linecap:square;stroke-linejoin:miter;stroke-width:0.8;"/>
   </g>
   <g id="patch_8">
    <path d="M 414.72 307.584 
L 414.72 41.472 
" style="fill:none;stroke:#000000;stroke-linecap:square;stroke-linejoin:miter;stroke-width:0.8;"/>
   </g>
   <g id="patch_9">
    <path d="M 57.6 307.584 
L 414.72 307.584 
" style="fill:none;stroke:#000000;stroke-linecap:square;stroke-linejoin:miter;stroke-width:0.8;"/>
   </g>
   <g id="patch_10">
    <path d="M 57.6 41.472 
L 414.72 41.472 
" style="fill:none;stroke:#000000;stroke-linecap:square;stroke-linejoin:miter;stroke-width:0.8;"/>
   </g>
  </g>
 </g>
 <defs>
  <clipPath id="p0be2a95d34">
   <rect height="266.112" width="357.12" x="57.6" y="41.472"/>
  </clipPath>
 </defs>
</svg>
