<?xml version="1.0" encoding="utf-8" standalone="no"?>
<!DOCTYPE svg PUBLIC "-//W3C//DTD SVG 1.1//EN"
  "http://www.w3.org/Graphics/SVG/1.1/DTD/svg11.dtd">
<!-- Created with matplotlib (https://matplotlib.org/) -->
<svg height="345.6pt" version="1.1" viewBox="0 0 460.8 345.6" width="460.8pt" xmlns="http://www.w3.org/2000/svg" xmlns:xlink="http://www.w3.org/1999/xlink">
 <defs>
  <style type="text/css">
*{stroke-linecap:butt;stroke-linejoin:round;}
  </style>
 </defs>
 <g id="figure_1">
  <g id="patch_1">
   <path d="M 0 345.6 
L 460.8 345.6 
L 460.8 0 
L 0 0 
z
" style="fill:#ffffff;"/>
  </g>
  <g id="axes_1">
   <g id="patch_2">
    <path d="M 57.6 307.584 
L 414.72 307.584 
L 414.72 41.472 
L 57.6 41.472 
z
" style="fill:#ffffff;"/>
   </g>
   <g id="matplotlib.axis_1">
    <g id="xtick_1">
     <g id="line2d_1">
      <path clip-path="url(#p64705cfaa9)" d="M 57.6 307.584 
L 57.6 41.472 
" style="fill:none;stroke:#b0b0b0;stroke-linecap:square;stroke-width:0.8;"/>
     </g>
     <g id="line2d_2">
      <defs>
       <path d="M 0 0 
L 0 3.5 
" id="m876594c529" style="stroke:#000000;stroke-width:0.8;"/>
      </defs>
      <g>
       <use style="stroke:#000000;stroke-width:0.8;" x="57.6" xlink:href="#m876594c529" y="307.584"/>
      </g>
     </g>
     <g id="text_1">
      <!-- 0.0 -->
      <defs>
       <path d="M 31.78125 66.40625 
Q 24.171875 66.40625 20.328125 58.90625 
Q 16.5 51.421875 16.5 36.375 
Q 16.5 21.390625 20.328125 13.890625 
Q 24.171875 6.390625 31.78125 6.390625 
Q 39.453125 6.390625 43.28125 13.890625 
Q 47.125 21.390625 47.125 36.375 
Q 47.125 51.421875 43.28125 58.90625 
Q 39.453125 66.40625 31.78125 66.40625 
z
M 31.78125 74.21875 
Q 44.046875 74.21875 50.515625 64.515625 
Q 56.984375 54.828125 56.984375 36.375 
Q 56.984375 17.96875 50.515625 8.265625 
Q 44.046875 -1.421875 31.78125 -1.421875 
Q 19.53125 -1.421875 13.0625 8.265625 
Q 6.59375 17.96875 6.59375 36.375 
Q 6.59375 54.828125 13.0625 64.515625 
Q 19.53125 74.21875 31.78125 74.21875 
z
" id="DejaVuSans-48"/>
       <path d="M 10.6875 12.40625 
L 21 12.40625 
L 21 0 
L 10.6875 0 
z
" id="DejaVuSans-46"/>
      </defs>
      <g transform="translate(49.648438 322.182437)scale(0.1 -0.1)">
       <use xlink:href="#DejaVuSans-48"/>
       <use x="63.623047" xlink:href="#DejaVuSans-46"/>
       <use x="95.410156" xlink:href="#DejaVuSans-48"/>
      </g>
     </g>
    </g>
    <g id="xtick_2">
     <g id="line2d_3">
      <path clip-path="url(#p64705cfaa9)" d="M 112.799267 307.584 
L 112.799267 41.472 
" style="fill:none;stroke:#b0b0b0;stroke-linecap:square;stroke-width:0.8;"/>
     </g>
     <g id="line2d_4">
      <g>
       <use style="stroke:#000000;stroke-width:0.8;" x="112.799267" xlink:href="#m876594c529" y="307.584"/>
      </g>
     </g>
     <g id="text_2">
      <!-- 0.2 -->
      <defs>
       <path d="M 19.1875 8.296875 
L 53.609375 8.296875 
L 53.609375 0 
L 7.328125 0 
L 7.328125 8.296875 
Q 12.9375 14.109375 22.625 23.890625 
Q 32.328125 33.6875 34.8125 36.53125 
Q 39.546875 41.84375 41.421875 45.53125 
Q 43.3125 49.21875 43.3125 52.78125 
Q 43.3125 58.59375 39.234375 62.25 
Q 35.15625 65.921875 28.609375 65.921875 
Q 23.96875 65.921875 18.8125 64.3125 
Q 13.671875 62.703125 7.8125 59.421875 
L 7.8125 69.390625 
Q 13.765625 71.78125 18.9375 73 
Q 24.125 74.21875 28.421875 74.21875 
Q 39.75 74.21875 46.484375 68.546875 
Q 53.21875 62.890625 53.21875 53.421875 
Q 53.21875 48.921875 51.53125 44.890625 
Q 49.859375 40.875 45.40625 35.40625 
Q 44.1875 33.984375 37.640625 27.21875 
Q 31.109375 20.453125 19.1875 8.296875 
z
" id="DejaVuSans-50"/>
      </defs>
      <g transform="translate(104.847705 322.182437)scale(0.1 -0.1)">
       <use xlink:href="#DejaVuSans-48"/>
       <use x="63.623047" xlink:href="#DejaVuSans-46"/>
       <use x="95.410156" xlink:href="#DejaVuSans-50"/>
      </g>
     </g>
    </g>
    <g id="xtick_3">
     <g id="line2d_5">
      <path clip-path="url(#p64705cfaa9)" d="M 167.998534 307.584 
L 167.998534 41.472 
" style="fill:none;stroke:#b0b0b0;stroke-linecap:square;stroke-width:0.8;"/>
     </g>
     <g id="line2d_6">
      <g>
       <use style="stroke:#000000;stroke-width:0.8;" x="167.998534" xlink:href="#m876594c529" y="307.584"/>
      </g>
     </g>
     <g id="text_3">
      <!-- 0.4 -->
      <defs>
       <path d="M 37.796875 64.3125 
L 12.890625 25.390625 
L 37.796875 25.390625 
z
M 35.203125 72.90625 
L 47.609375 72.90625 
L 47.609375 25.390625 
L 58.015625 25.390625 
L 58.015625 17.1875 
L 47.609375 17.1875 
L 47.609375 0 
L 37.796875 0 
L 37.796875 17.1875 
L 4.890625 17.1875 
L 4.890625 26.703125 
z
" id="DejaVuSans-52"/>
      </defs>
      <g transform="translate(160.046972 322.182437)scale(0.1 -0.1)">
       <use xlink:href="#DejaVuSans-48"/>
       <use x="63.623047" xlink:href="#DejaVuSans-46"/>
       <use x="95.410156" xlink:href="#DejaVuSans-52"/>
      </g>
     </g>
    </g>
    <g id="xtick_4">
     <g id="line2d_7">
      <path clip-path="url(#p64705cfaa9)" d="M 223.197802 307.584 
L 223.197802 41.472 
" style="fill:none;stroke:#b0b0b0;stroke-linecap:square;stroke-width:0.8;"/>
     </g>
     <g id="line2d_8">
      <g>
       <use style="stroke:#000000;stroke-width:0.8;" x="223.197802" xlink:href="#m876594c529" y="307.584"/>
      </g>
     </g>
     <g id="text_4">
      <!-- 0.6 -->
      <defs>
       <path d="M 33.015625 40.375 
Q 26.375 40.375 22.484375 35.828125 
Q 18.609375 31.296875 18.609375 23.390625 
Q 18.609375 15.53125 22.484375 10.953125 
Q 26.375 6.390625 33.015625 6.390625 
Q 39.65625 6.390625 43.53125 10.953125 
Q 47.40625 15.53125 47.40625 23.390625 
Q 47.40625 31.296875 43.53125 35.828125 
Q 39.65625 40.375 33.015625 40.375 
z
M 52.59375 71.296875 
L 52.59375 62.3125 
Q 48.875 64.0625 45.09375 64.984375 
Q 41.3125 65.921875 37.59375 65.921875 
Q 27.828125 65.921875 22.671875 59.328125 
Q 17.53125 52.734375 16.796875 39.40625 
Q 19.671875 43.65625 24.015625 45.921875 
Q 28.375 48.1875 33.59375 48.1875 
Q 44.578125 48.1875 50.953125 41.515625 
Q 57.328125 34.859375 57.328125 23.390625 
Q 57.328125 12.15625 50.6875 5.359375 
Q 44.046875 -1.421875 33.015625 -1.421875 
Q 20.359375 -1.421875 13.671875 8.265625 
Q 6.984375 17.96875 6.984375 36.375 
Q 6.984375 53.65625 15.1875 63.9375 
Q 23.390625 74.21875 37.203125 74.21875 
Q 40.921875 74.21875 44.703125 73.484375 
Q 48.484375 72.75 52.59375 71.296875 
z
" id="DejaVuSans-54"/>
      </defs>
      <g transform="translate(215.246239 322.182437)scale(0.1 -0.1)">
       <use xlink:href="#DejaVuSans-48"/>
       <use x="63.623047" xlink:href="#DejaVuSans-46"/>
       <use x="95.410156" xlink:href="#DejaVuSans-54"/>
      </g>
     </g>
    </g>
    <g id="xtick_5">
     <g id="line2d_9">
      <path clip-path="url(#p64705cfaa9)" d="M 278.397069 307.584 
L 278.397069 41.472 
" style="fill:none;stroke:#b0b0b0;stroke-linecap:square;stroke-width:0.8;"/>
     </g>
     <g id="line2d_10">
      <g>
       <use style="stroke:#000000;stroke-width:0.8;" x="278.397069" xlink:href="#m876594c529" y="307.584"/>
      </g>
     </g>
     <g id="text_5">
      <!-- 0.8 -->
      <defs>
       <path d="M 31.78125 34.625 
Q 24.75 34.625 20.71875 30.859375 
Q 16.703125 27.09375 16.703125 20.515625 
Q 16.703125 13.921875 20.71875 10.15625 
Q 24.75 6.390625 31.78125 6.390625 
Q 38.8125 6.390625 42.859375 10.171875 
Q 46.921875 13.96875 46.921875 20.515625 
Q 46.921875 27.09375 42.890625 30.859375 
Q 38.875 34.625 31.78125 34.625 
z
M 21.921875 38.8125 
Q 15.578125 40.375 12.03125 44.71875 
Q 8.5 49.078125 8.5 55.328125 
Q 8.5 64.0625 14.71875 69.140625 
Q 20.953125 74.21875 31.78125 74.21875 
Q 42.671875 74.21875 48.875 69.140625 
Q 55.078125 64.0625 55.078125 55.328125 
Q 55.078125 49.078125 51.53125 44.71875 
Q 48 40.375 41.703125 38.8125 
Q 48.828125 37.15625 52.796875 32.3125 
Q 56.78125 27.484375 56.78125 20.515625 
Q 56.78125 9.90625 50.3125 4.234375 
Q 43.84375 -1.421875 31.78125 -1.421875 
Q 19.734375 -1.421875 13.25 4.234375 
Q 6.78125 9.90625 6.78125 20.515625 
Q 6.78125 27.484375 10.78125 32.3125 
Q 14.796875 37.15625 21.921875 38.8125 
z
M 18.3125 54.390625 
Q 18.3125 48.734375 21.84375 45.5625 
Q 25.390625 42.390625 31.78125 42.390625 
Q 38.140625 42.390625 41.71875 45.5625 
Q 45.3125 48.734375 45.3125 54.390625 
Q 45.3125 60.0625 41.71875 63.234375 
Q 38.140625 66.40625 31.78125 66.40625 
Q 25.390625 66.40625 21.84375 63.234375 
Q 18.3125 60.0625 18.3125 54.390625 
z
" id="DejaVuSans-56"/>
      </defs>
      <g transform="translate(270.445506 322.182437)scale(0.1 -0.1)">
       <use xlink:href="#DejaVuSans-48"/>
       <use x="63.623047" xlink:href="#DejaVuSans-46"/>
       <use x="95.410156" xlink:href="#DejaVuSans-56"/>
      </g>
     </g>
    </g>
    <g id="xtick_6">
     <g id="line2d_11">
      <path clip-path="url(#p64705cfaa9)" d="M 333.596336 307.584 
L 333.596336 41.472 
" style="fill:none;stroke:#b0b0b0;stroke-linecap:square;stroke-width:0.8;"/>
     </g>
     <g id="line2d_12">
      <g>
       <use style="stroke:#000000;stroke-width:0.8;" x="333.596336" xlink:href="#m876594c529" y="307.584"/>
      </g>
     </g>
     <g id="text_6">
      <!-- 1.0 -->
      <defs>
       <path d="M 12.40625 8.296875 
L 28.515625 8.296875 
L 28.515625 63.921875 
L 10.984375 60.40625 
L 10.984375 69.390625 
L 28.421875 72.90625 
L 38.28125 72.90625 
L 38.28125 8.296875 
L 54.390625 8.296875 
L 54.390625 0 
L 12.40625 0 
z
" id="DejaVuSans-49"/>
      </defs>
      <g transform="translate(325.644774 322.182437)scale(0.1 -0.1)">
       <use xlink:href="#DejaVuSans-49"/>
       <use x="63.623047" xlink:href="#DejaVuSans-46"/>
       <use x="95.410156" xlink:href="#DejaVuSans-48"/>
      </g>
     </g>
    </g>
    <g id="xtick_7">
     <g id="line2d_13">
      <path clip-path="url(#p64705cfaa9)" d="M 388.795603 307.584 
L 388.795603 41.472 
" style="fill:none;stroke:#b0b0b0;stroke-linecap:square;stroke-width:0.8;"/>
     </g>
     <g id="line2d_14">
      <g>
       <use style="stroke:#000000;stroke-width:0.8;" x="388.795603" xlink:href="#m876594c529" y="307.584"/>
      </g>
     </g>
     <g id="text_7">
      <!-- 1.2 -->
      <g transform="translate(380.844041 322.182437)scale(0.1 -0.1)">
       <use xlink:href="#DejaVuSans-49"/>
       <use x="63.623047" xlink:href="#DejaVuSans-46"/>
       <use x="95.410156" xlink:href="#DejaVuSans-50"/>
      </g>
     </g>
    </g>
    <g id="text_8">
     <!-- Hours -->
     <defs>
      <path d="M 9.8125 72.90625 
L 19.671875 72.90625 
L 19.671875 43.015625 
L 55.515625 43.015625 
L 55.515625 72.90625 
L 65.375 72.90625 
L 65.375 0 
L 55.515625 0 
L 55.515625 34.71875 
L 19.671875 34.71875 
L 19.671875 0 
L 9.8125 0 
z
" id="DejaVuSans-72"/>
      <path d="M 30.609375 48.390625 
Q 23.390625 48.390625 19.1875 42.75 
Q 14.984375 37.109375 14.984375 27.296875 
Q 14.984375 17.484375 19.15625 11.84375 
Q 23.34375 6.203125 30.609375 6.203125 
Q 37.796875 6.203125 41.984375 11.859375 
Q 46.1875 17.53125 46.1875 27.296875 
Q 46.1875 37.015625 41.984375 42.703125 
Q 37.796875 48.390625 30.609375 48.390625 
z
M 30.609375 56 
Q 42.328125 56 49.015625 48.375 
Q 55.71875 40.765625 55.71875 27.296875 
Q 55.71875 13.875 49.015625 6.21875 
Q 42.328125 -1.421875 30.609375 -1.421875 
Q 18.84375 -1.421875 12.171875 6.21875 
Q 5.515625 13.875 5.515625 27.296875 
Q 5.515625 40.765625 12.171875 48.375 
Q 18.84375 56 30.609375 56 
z
" id="DejaVuSans-111"/>
      <path d="M 8.5 21.578125 
L 8.5 54.6875 
L 17.484375 54.6875 
L 17.484375 21.921875 
Q 17.484375 14.15625 20.5 10.265625 
Q 23.53125 6.390625 29.59375 6.390625 
Q 36.859375 6.390625 41.078125 11.03125 
Q 45.3125 15.671875 45.3125 23.6875 
L 45.3125 54.6875 
L 54.296875 54.6875 
L 54.296875 0 
L 45.3125 0 
L 45.3125 8.40625 
Q 42.046875 3.421875 37.71875 1 
Q 33.40625 -1.421875 27.6875 -1.421875 
Q 18.265625 -1.421875 13.375 4.4375 
Q 8.5 10.296875 8.5 21.578125 
z
M 31.109375 56 
z
" id="DejaVuSans-117"/>
      <path d="M 41.109375 46.296875 
Q 39.59375 47.171875 37.8125 47.578125 
Q 36.03125 48 33.890625 48 
Q 26.265625 48 22.1875 43.046875 
Q 18.109375 38.09375 18.109375 28.8125 
L 18.109375 0 
L 9.078125 0 
L 9.078125 54.6875 
L 18.109375 54.6875 
L 18.109375 46.1875 
Q 20.953125 51.171875 25.484375 53.578125 
Q 30.03125 56 36.53125 56 
Q 37.453125 56 38.578125 55.875 
Q 39.703125 55.765625 41.0625 55.515625 
z
" id="DejaVuSans-114"/>
      <path d="M 44.28125 53.078125 
L 44.28125 44.578125 
Q 40.484375 46.53125 36.375 47.5 
Q 32.28125 48.484375 27.875 48.484375 
Q 21.1875 48.484375 17.84375 46.4375 
Q 14.5 44.390625 14.5 40.28125 
Q 14.5 37.15625 16.890625 35.375 
Q 19.28125 33.59375 26.515625 31.984375 
L 29.59375 31.296875 
Q 39.15625 29.25 43.1875 25.515625 
Q 47.21875 21.78125 47.21875 15.09375 
Q 47.21875 7.46875 41.1875 3.015625 
Q 35.15625 -1.421875 24.609375 -1.421875 
Q 20.21875 -1.421875 15.453125 -0.5625 
Q 10.6875 0.296875 5.421875 2 
L 5.421875 11.28125 
Q 10.40625 8.6875 15.234375 7.390625 
Q 20.0625 6.109375 24.8125 6.109375 
Q 31.15625 6.109375 34.5625 8.28125 
Q 37.984375 10.453125 37.984375 14.40625 
Q 37.984375 18.0625 35.515625 20.015625 
Q 33.0625 21.96875 24.703125 23.78125 
L 21.578125 24.515625 
Q 13.234375 26.265625 9.515625 29.90625 
Q 5.8125 33.546875 5.8125 39.890625 
Q 5.8125 47.609375 11.28125 51.796875 
Q 16.75 56 26.8125 56 
Q 31.78125 56 36.171875 55.265625 
Q 40.578125 54.546875 44.28125 53.078125 
z
" id="DejaVuSans-115"/>
     </defs>
     <g transform="translate(221.511562 335.860562)scale(0.1 -0.1)">
      <use xlink:href="#DejaVuSans-72"/>
      <use x="75.195312" xlink:href="#DejaVuSans-111"/>
      <use x="136.376953" xlink:href="#DejaVuSans-117"/>
      <use x="199.755859" xlink:href="#DejaVuSans-114"/>
      <use x="240.869141" xlink:href="#DejaVuSans-115"/>
     </g>
    </g>
   </g>
   <g id="matplotlib.axis_2">
    <g id="ytick_1">
     <g id="line2d_15">
      <path clip-path="url(#p64705cfaa9)" d="M 57.6 296.686094 
L 414.72 296.686094 
" style="fill:none;stroke:#b0b0b0;stroke-linecap:square;stroke-width:0.8;"/>
     </g>
     <g id="line2d_16">
      <defs>
       <path d="M 0 0 
L -3.5 0 
" id="m383466ade2" style="stroke:#000000;stroke-width:0.8;"/>
      </defs>
      <g>
       <use style="stroke:#000000;stroke-width:0.8;" x="57.6" xlink:href="#m383466ade2" y="296.686094"/>
      </g>
     </g>
     <g id="text_9">
      <!-- −190 -->
      <defs>
       <path d="M 10.59375 35.5 
L 73.1875 35.5 
L 73.1875 27.203125 
L 10.59375 27.203125 
z
" id="DejaVuSans-8722"/>
       <path d="M 10.984375 1.515625 
L 10.984375 10.5 
Q 14.703125 8.734375 18.5 7.8125 
Q 22.3125 6.890625 25.984375 6.890625 
Q 35.75 6.890625 40.890625 13.453125 
Q 46.046875 20.015625 46.78125 33.40625 
Q 43.953125 29.203125 39.59375 26.953125 
Q 35.25 24.703125 29.984375 24.703125 
Q 19.046875 24.703125 12.671875 31.3125 
Q 6.296875 37.9375 6.296875 49.421875 
Q 6.296875 60.640625 12.9375 67.421875 
Q 19.578125 74.21875 30.609375 74.21875 
Q 43.265625 74.21875 49.921875 64.515625 
Q 56.59375 54.828125 56.59375 36.375 
Q 56.59375 19.140625 48.40625 8.859375 
Q 40.234375 -1.421875 26.421875 -1.421875 
Q 22.703125 -1.421875 18.890625 -0.6875 
Q 15.09375 0.046875 10.984375 1.515625 
z
M 30.609375 32.421875 
Q 37.25 32.421875 41.125 36.953125 
Q 45.015625 41.5 45.015625 49.421875 
Q 45.015625 57.28125 41.125 61.84375 
Q 37.25 66.40625 30.609375 66.40625 
Q 23.96875 66.40625 20.09375 61.84375 
Q 16.21875 57.28125 16.21875 49.421875 
Q 16.21875 41.5 20.09375 36.953125 
Q 23.96875 32.421875 30.609375 32.421875 
z
" id="DejaVuSans-57"/>
      </defs>
      <g transform="translate(23.132812 300.485312)scale(0.1 -0.1)">
       <use xlink:href="#DejaVuSans-8722"/>
       <use x="83.789062" xlink:href="#DejaVuSans-49"/>
       <use x="147.412109" xlink:href="#DejaVuSans-57"/>
       <use x="211.035156" xlink:href="#DejaVuSans-48"/>
      </g>
     </g>
    </g>
    <g id="ytick_2">
     <g id="line2d_17">
      <path clip-path="url(#p64705cfaa9)" d="M 57.6 265.845029 
L 414.72 265.845029 
" style="fill:none;stroke:#b0b0b0;stroke-linecap:square;stroke-width:0.8;"/>
     </g>
     <g id="line2d_18">
      <g>
       <use style="stroke:#000000;stroke-width:0.8;" x="57.6" xlink:href="#m383466ade2" y="265.845029"/>
      </g>
     </g>
     <g id="text_10">
      <!-- −180 -->
      <g transform="translate(23.132812 269.644248)scale(0.1 -0.1)">
       <use xlink:href="#DejaVuSans-8722"/>
       <use x="83.789062" xlink:href="#DejaVuSans-49"/>
       <use x="147.412109" xlink:href="#DejaVuSans-56"/>
       <use x="211.035156" xlink:href="#DejaVuSans-48"/>
      </g>
     </g>
    </g>
    <g id="ytick_3">
     <g id="line2d_19">
      <path clip-path="url(#p64705cfaa9)" d="M 57.6 235.003965 
L 414.72 235.003965 
" style="fill:none;stroke:#b0b0b0;stroke-linecap:square;stroke-width:0.8;"/>
     </g>
     <g id="line2d_20">
      <g>
       <use style="stroke:#000000;stroke-width:0.8;" x="57.6" xlink:href="#m383466ade2" y="235.003965"/>
      </g>
     </g>
     <g id="text_11">
      <!-- −170 -->
      <defs>
       <path d="M 8.203125 72.90625 
L 55.078125 72.90625 
L 55.078125 68.703125 
L 28.609375 0 
L 18.3125 0 
L 43.21875 64.59375 
L 8.203125 64.59375 
z
" id="DejaVuSans-55"/>
      </defs>
      <g transform="translate(23.132812 238.803183)scale(0.1 -0.1)">
       <use xlink:href="#DejaVuSans-8722"/>
       <use x="83.789062" xlink:href="#DejaVuSans-49"/>
       <use x="147.412109" xlink:href="#DejaVuSans-55"/>
       <use x="211.035156" xlink:href="#DejaVuSans-48"/>
      </g>
     </g>
    </g>
    <g id="ytick_4">
     <g id="line2d_21">
      <path clip-path="url(#p64705cfaa9)" d="M 57.6 204.1629 
L 414.72 204.1629 
" style="fill:none;stroke:#b0b0b0;stroke-linecap:square;stroke-width:0.8;"/>
     </g>
     <g id="line2d_22">
      <g>
       <use style="stroke:#000000;stroke-width:0.8;" x="57.6" xlink:href="#m383466ade2" y="204.1629"/>
      </g>
     </g>
     <g id="text_12">
      <!-- −160 -->
      <g transform="translate(23.132812 207.962119)scale(0.1 -0.1)">
       <use xlink:href="#DejaVuSans-8722"/>
       <use x="83.789062" xlink:href="#DejaVuSans-49"/>
       <use x="147.412109" xlink:href="#DejaVuSans-54"/>
       <use x="211.035156" xlink:href="#DejaVuSans-48"/>
      </g>
     </g>
    </g>
    <g id="ytick_5">
     <g id="line2d_23">
      <path clip-path="url(#p64705cfaa9)" d="M 57.6 173.321836 
L 414.72 173.321836 
" style="fill:none;stroke:#b0b0b0;stroke-linecap:square;stroke-width:0.8;"/>
     </g>
     <g id="line2d_24">
      <g>
       <use style="stroke:#000000;stroke-width:0.8;" x="57.6" xlink:href="#m383466ade2" y="173.321836"/>
      </g>
     </g>
     <g id="text_13">
      <!-- −150 -->
      <defs>
       <path d="M 10.796875 72.90625 
L 49.515625 72.90625 
L 49.515625 64.59375 
L 19.828125 64.59375 
L 19.828125 46.734375 
Q 21.96875 47.46875 24.109375 47.828125 
Q 26.265625 48.1875 28.421875 48.1875 
Q 40.625 48.1875 47.75 41.5 
Q 54.890625 34.8125 54.890625 23.390625 
Q 54.890625 11.625 47.5625 5.09375 
Q 40.234375 -1.421875 26.90625 -1.421875 
Q 22.3125 -1.421875 17.546875 -0.640625 
Q 12.796875 0.140625 7.71875 1.703125 
L 7.71875 11.625 
Q 12.109375 9.234375 16.796875 8.0625 
Q 21.484375 6.890625 26.703125 6.890625 
Q 35.15625 6.890625 40.078125 11.328125 
Q 45.015625 15.765625 45.015625 23.390625 
Q 45.015625 31 40.078125 35.4375 
Q 35.15625 39.890625 26.703125 39.890625 
Q 22.75 39.890625 18.8125 39.015625 
Q 14.890625 38.140625 10.796875 36.28125 
z
" id="DejaVuSans-53"/>
      </defs>
      <g transform="translate(23.132812 177.121054)scale(0.1 -0.1)">
       <use xlink:href="#DejaVuSans-8722"/>
       <use x="83.789062" xlink:href="#DejaVuSans-49"/>
       <use x="147.412109" xlink:href="#DejaVuSans-53"/>
       <use x="211.035156" xlink:href="#DejaVuSans-48"/>
      </g>
     </g>
    </g>
    <g id="ytick_6">
     <g id="line2d_25">
      <path clip-path="url(#p64705cfaa9)" d="M 57.6 142.480771 
L 414.72 142.480771 
" style="fill:none;stroke:#b0b0b0;stroke-linecap:square;stroke-width:0.8;"/>
     </g>
     <g id="line2d_26">
      <g>
       <use style="stroke:#000000;stroke-width:0.8;" x="57.6" xlink:href="#m383466ade2" y="142.480771"/>
      </g>
     </g>
     <g id="text_14">
      <!-- −140 -->
      <g transform="translate(23.132812 146.27999)scale(0.1 -0.1)">
       <use xlink:href="#DejaVuSans-8722"/>
       <use x="83.789062" xlink:href="#DejaVuSans-49"/>
       <use x="147.412109" xlink:href="#DejaVuSans-52"/>
       <use x="211.035156" xlink:href="#DejaVuSans-48"/>
      </g>
     </g>
    </g>
    <g id="ytick_7">
     <g id="line2d_27">
      <path clip-path="url(#p64705cfaa9)" d="M 57.6 111.639707 
L 414.72 111.639707 
" style="fill:none;stroke:#b0b0b0;stroke-linecap:square;stroke-width:0.8;"/>
     </g>
     <g id="line2d_28">
      <g>
       <use style="stroke:#000000;stroke-width:0.8;" x="57.6" xlink:href="#m383466ade2" y="111.639707"/>
      </g>
     </g>
     <g id="text_15">
      <!-- −130 -->
      <defs>
       <path d="M 40.578125 39.3125 
Q 47.65625 37.796875 51.625 33 
Q 55.609375 28.21875 55.609375 21.1875 
Q 55.609375 10.40625 48.1875 4.484375 
Q 40.765625 -1.421875 27.09375 -1.421875 
Q 22.515625 -1.421875 17.65625 -0.515625 
Q 12.796875 0.390625 7.625 2.203125 
L 7.625 11.71875 
Q 11.71875 9.328125 16.59375 8.109375 
Q 21.484375 6.890625 26.8125 6.890625 
Q 36.078125 6.890625 40.9375 10.546875 
Q 45.796875 14.203125 45.796875 21.1875 
Q 45.796875 27.640625 41.28125 31.265625 
Q 36.765625 34.90625 28.71875 34.90625 
L 20.21875 34.90625 
L 20.21875 43.015625 
L 29.109375 43.015625 
Q 36.375 43.015625 40.234375 45.921875 
Q 44.09375 48.828125 44.09375 54.296875 
Q 44.09375 59.90625 40.109375 62.90625 
Q 36.140625 65.921875 28.71875 65.921875 
Q 24.65625 65.921875 20.015625 65.03125 
Q 15.375 64.15625 9.8125 62.3125 
L 9.8125 71.09375 
Q 15.4375 72.65625 20.34375 73.4375 
Q 25.25 74.21875 29.59375 74.21875 
Q 40.828125 74.21875 47.359375 69.109375 
Q 53.90625 64.015625 53.90625 55.328125 
Q 53.90625 49.265625 50.4375 45.09375 
Q 46.96875 40.921875 40.578125 39.3125 
z
" id="DejaVuSans-51"/>
      </defs>
      <g transform="translate(23.132812 115.438925)scale(0.1 -0.1)">
       <use xlink:href="#DejaVuSans-8722"/>
       <use x="83.789062" xlink:href="#DejaVuSans-49"/>
       <use x="147.412109" xlink:href="#DejaVuSans-51"/>
       <use x="211.035156" xlink:href="#DejaVuSans-48"/>
      </g>
     </g>
    </g>
    <g id="ytick_8">
     <g id="line2d_29">
      <path clip-path="url(#p64705cfaa9)" d="M 57.6 80.798642 
L 414.72 80.798642 
" style="fill:none;stroke:#b0b0b0;stroke-linecap:square;stroke-width:0.8;"/>
     </g>
     <g id="line2d_30">
      <g>
       <use style="stroke:#000000;stroke-width:0.8;" x="57.6" xlink:href="#m383466ade2" y="80.798642"/>
      </g>
     </g>
     <g id="text_16">
      <!-- −120 -->
      <g transform="translate(23.132812 84.597861)scale(0.1 -0.1)">
       <use xlink:href="#DejaVuSans-8722"/>
       <use x="83.789062" xlink:href="#DejaVuSans-49"/>
       <use x="147.412109" xlink:href="#DejaVuSans-50"/>
       <use x="211.035156" xlink:href="#DejaVuSans-48"/>
      </g>
     </g>
    </g>
    <g id="ytick_9">
     <g id="line2d_31">
      <path clip-path="url(#p64705cfaa9)" d="M 57.6 49.957578 
L 414.72 49.957578 
" style="fill:none;stroke:#b0b0b0;stroke-linecap:square;stroke-width:0.8;"/>
     </g>
     <g id="line2d_32">
      <g>
       <use style="stroke:#000000;stroke-width:0.8;" x="57.6" xlink:href="#m383466ade2" y="49.957578"/>
      </g>
     </g>
     <g id="text_17">
      <!-- −110 -->
      <g transform="translate(23.132812 53.756796)scale(0.1 -0.1)">
       <use xlink:href="#DejaVuSans-8722"/>
       <use x="83.789062" xlink:href="#DejaVuSans-49"/>
       <use x="147.412109" xlink:href="#DejaVuSans-49"/>
       <use x="211.035156" xlink:href="#DejaVuSans-48"/>
      </g>
     </g>
    </g>
    <g id="text_18">
     <!-- Reward -->
     <defs>
      <path d="M 44.390625 34.1875 
Q 47.5625 33.109375 50.5625 29.59375 
Q 53.5625 26.078125 56.59375 19.921875 
L 66.609375 0 
L 56 0 
L 46.6875 18.703125 
Q 43.0625 26.03125 39.671875 28.421875 
Q 36.28125 30.8125 30.421875 30.8125 
L 19.671875 30.8125 
L 19.671875 0 
L 9.8125 0 
L 9.8125 72.90625 
L 32.078125 72.90625 
Q 44.578125 72.90625 50.734375 67.671875 
Q 56.890625 62.453125 56.890625 51.90625 
Q 56.890625 45.015625 53.6875 40.46875 
Q 50.484375 35.9375 44.390625 34.1875 
z
M 19.671875 64.796875 
L 19.671875 38.921875 
L 32.078125 38.921875 
Q 39.203125 38.921875 42.84375 42.21875 
Q 46.484375 45.515625 46.484375 51.90625 
Q 46.484375 58.296875 42.84375 61.546875 
Q 39.203125 64.796875 32.078125 64.796875 
z
" id="DejaVuSans-82"/>
      <path d="M 56.203125 29.59375 
L 56.203125 25.203125 
L 14.890625 25.203125 
Q 15.484375 15.921875 20.484375 11.0625 
Q 25.484375 6.203125 34.421875 6.203125 
Q 39.59375 6.203125 44.453125 7.46875 
Q 49.3125 8.734375 54.109375 11.28125 
L 54.109375 2.78125 
Q 49.265625 0.734375 44.1875 -0.34375 
Q 39.109375 -1.421875 33.890625 -1.421875 
Q 20.796875 -1.421875 13.15625 6.1875 
Q 5.515625 13.8125 5.515625 26.8125 
Q 5.515625 40.234375 12.765625 48.109375 
Q 20.015625 56 32.328125 56 
Q 43.359375 56 49.78125 48.890625 
Q 56.203125 41.796875 56.203125 29.59375 
z
M 47.21875 32.234375 
Q 47.125 39.59375 43.09375 43.984375 
Q 39.0625 48.390625 32.421875 48.390625 
Q 24.90625 48.390625 20.390625 44.140625 
Q 15.875 39.890625 15.1875 32.171875 
z
" id="DejaVuSans-101"/>
      <path d="M 4.203125 54.6875 
L 13.1875 54.6875 
L 24.421875 12.015625 
L 35.59375 54.6875 
L 46.1875 54.6875 
L 57.421875 12.015625 
L 68.609375 54.6875 
L 77.59375 54.6875 
L 63.28125 0 
L 52.6875 0 
L 40.921875 44.828125 
L 29.109375 0 
L 18.5 0 
z
" id="DejaVuSans-119"/>
      <path d="M 34.28125 27.484375 
Q 23.390625 27.484375 19.1875 25 
Q 14.984375 22.515625 14.984375 16.5 
Q 14.984375 11.71875 18.140625 8.90625 
Q 21.296875 6.109375 26.703125 6.109375 
Q 34.1875 6.109375 38.703125 11.40625 
Q 43.21875 16.703125 43.21875 25.484375 
L 43.21875 27.484375 
z
M 52.203125 31.203125 
L 52.203125 0 
L 43.21875 0 
L 43.21875 8.296875 
Q 40.140625 3.328125 35.546875 0.953125 
Q 30.953125 -1.421875 24.3125 -1.421875 
Q 15.921875 -1.421875 10.953125 3.296875 
Q 6 8.015625 6 15.921875 
Q 6 25.140625 12.171875 29.828125 
Q 18.359375 34.515625 30.609375 34.515625 
L 43.21875 34.515625 
L 43.21875 35.40625 
Q 43.21875 41.609375 39.140625 45 
Q 35.0625 48.390625 27.6875 48.390625 
Q 23 48.390625 18.546875 47.265625 
Q 14.109375 46.140625 10.015625 43.890625 
L 10.015625 52.203125 
Q 14.9375 54.109375 19.578125 55.046875 
Q 24.21875 56 28.609375 56 
Q 40.484375 56 46.34375 49.84375 
Q 52.203125 43.703125 52.203125 31.203125 
z
" id="DejaVuSans-97"/>
      <path d="M 45.40625 46.390625 
L 45.40625 75.984375 
L 54.390625 75.984375 
L 54.390625 0 
L 45.40625 0 
L 45.40625 8.203125 
Q 42.578125 3.328125 38.25 0.953125 
Q 33.9375 -1.421875 27.875 -1.421875 
Q 17.96875 -1.421875 11.734375 6.484375 
Q 5.515625 14.40625 5.515625 27.296875 
Q 5.515625 40.1875 11.734375 48.09375 
Q 17.96875 56 27.875 56 
Q 33.9375 56 38.25 53.625 
Q 42.578125 51.265625 45.40625 46.390625 
z
M 14.796875 27.296875 
Q 14.796875 17.390625 18.875 11.75 
Q 22.953125 6.109375 30.078125 6.109375 
Q 37.203125 6.109375 41.296875 11.75 
Q 45.40625 17.390625 45.40625 27.296875 
Q 45.40625 37.203125 41.296875 42.84375 
Q 37.203125 48.484375 30.078125 48.484375 
Q 22.953125 48.484375 18.875 42.84375 
Q 14.796875 37.203125 14.796875 27.296875 
z
" id="DejaVuSans-100"/>
     </defs>
     <g transform="translate(17.053125 193.457687)rotate(-90)scale(0.1 -0.1)">
      <use xlink:href="#DejaVuSans-82"/>
      <use x="69.419922" xlink:href="#DejaVuSans-101"/>
      <use x="130.943359" xlink:href="#DejaVuSans-119"/>
      <use x="212.730469" xlink:href="#DejaVuSans-97"/>
      <use x="274.009766" xlink:href="#DejaVuSans-114"/>
      <use x="315.107422" xlink:href="#DejaVuSans-100"/>
     </g>
    </g>
   </g>
   <g id="line2d_33">
    <path clip-path="url(#p64705cfaa9)" d="M 57.6 53.568 
L 57.600044 56.572952 
L 58.661054 146.83629 
L 59.19141 184.127503 
L 59.361589 187.263986 
L 59.542195 192.728656 
L 59.893591 195.276 
L 59.893624 194.113624 
L 59.978424 198.524674 
L 61.308056 219.306015 
L 62.60608 232.016942 
L 62.781606 234.978599 
L 62.952766 233.323085 
L 63.31297 238.515985 
L 63.402126 242.539639 
L 63.92851 246.111379 
L 64.363815 236.624796 
L 65.499024 249.286828 
L 65.946909 242.239963 
L 66.386918 250.71895 
L 66.642733 251.017826 
L 67.360897 252.412112 
L 68.067886 254.310595 
L 68.496347 254.37935 
L 68.673575 259.130312 
L 69.115038 261.322777 
L 69.115165 263.565079 
L 69.56195 261.777845 
L 69.833449 259.811925 
L 70.288065 261.281788 
L 70.537553 266.806318 
L 70.706102 266.301179 
L 70.787408 264.147726 
L 71.751409 263.200178 
L 72.113477 270.059134 
L 72.113532 269.163917 
L 73.237764 266.574973 
L 73.322223 264.927317 
L 73.664904 268.312794 
L 73.755717 272.203693 
L 73.933949 274.594139 
L 74.619721 263.013492 
L 75.142254 268.717037 
L 75.915107 266.36071 
L 76.007106 269.451263 
L 76.361978 271.239204 
L 76.536592 267.878245 
L 76.985102 271.28231 
L 77.690015 272.390002 
L 78.040869 275.397307 
L 78.212088 273.384327 
L 78.471737 276.089932 
L 78.471755 274.63941 
L 78.559853 277.487889 
L 78.988785 281.320151 
L 79.084845 281.424153 
L 80.224797 278.437601 
L 80.653575 277.689116 
L 82.585211 273.924761 
L 83.209217 277.757211 
L 83.209351 277.08854 
L 83.737624 275.906446 
L 84.263952 282.472079 
L 84.869833 282.300781 
L 84.951284 277.737117 
L 85.030707 278.389977 
L 85.462944 275.818209 
L 86.986157 284.962856 
L 88.228954 283.812999 
L 88.229007 283.526876 
L 88.65307 280.352556 
L 89.266094 283.699444 
L 89.70327 282.432125 
L 89.95792 283.684949 
L 90.823893 286.007817 
L 91.091128 282.955429 
L 91.269839 282.536833 
L 91.78892 284.309997 
L 92.321601 287.126427 
L 93.125038 284.422375 
L 93.384715 285.779437 
L 93.473134 286.888493 
L 94.211071 284.972268 
L 94.211186 285.706494 
L 94.920221 278.943399 
L 95.704583 284.465152 
L 95.887987 283.868388 
L 96.068592 280.060032 
L 97.226755 280.866024 
L 97.320381 283.536758 
L 98.282806 283.878271 
L 98.366611 285.599339 
L 98.701297 281.489048 
L 98.783433 283.754645 
L 99.127448 285.63021 
L 99.82127 283.99239 
L 100.522439 281.18236 
L 100.522494 281.57512 
L 100.980645 280.061679 
L 101.254711 283.131527 
L 102.144263 286.615876 
L 103.023285 292.422106 
L 103.198955 291.455075 
L 103.741409 289.371788 
L 104.772536 289.089006 
L 105.935324 282.677871 
L 107.081835 293.15332 
L 107.176277 289.358094 
L 107.889004 282.635658 
L 108.069763 285.085447 
L 108.602872 282.492691 
L 108.778997 286.378978 
L 109.735223 285.404323 
L 109.826058 284.998386 
L 110.435796 291.359497 
L 110.52848 288.255296 
L 110.615194 289.893257 
L 110.703936 288.757 
L 111.148441 294.426568 
L 111.404469 290.543622 
L 111.933258 295.488 
L 113.169088 285.788849 
L 113.613477 285.678258 
L 113.877618 289.094983 
L 114.326121 289.414283 
L 114.681072 285.621269 
L 114.681127 283.611254 
L 114.854298 286.949577 
L 115.110549 288.48363 
L 116.068966 286.712866 
L 117.03518 285.841226 
L 117.21232 283.43558 
L 118.173606 291.10241 
L 118.259196 290.885323 
L 118.614585 282.359982 
L 119.409862 292.116829 
L 119.936878 284.251454 
L 120.36868 284.515365 
L 120.547266 279.181662 
L 121.433477 292.839996 
L 121.702452 286.747267 
L 123.234811 291.972356 
L 123.842126 287.16704 
L 124.113182 287.549541 
L 124.20147 286.647453 
L 124.451653 282.522291 
L 125.837294 285.20352 
L 126.45411 289.295834 
L 127.404571 284.222983 
L 127.757434 286.177327 
L 128.718838 287.877642 
L 128.975522 290.266629 
L 128.975623 291.789482 
L 129.067137 291.545148 
L 129.86032 277.684081 
L 129.860378 278.662594 
L 130.21001 287.038237 
L 131.006395 288.314591 
L 131.277273 284.02905 
L 131.806709 286.053324 
L 132.857716 281.209419 
L 133.642181 279.064248 
L 133.642259 280.861695 
L 133.824099 287.371232 
L 133.9105 287.293536 
L 134.426039 285.068176 
L 134.887642 289.157431 
L 136.648965 278.924528 
L 137.181554 281.027392 
L 137.447315 274.870662 
L 138.241421 283.170116 
L 138.518313 283.219199 
L 139.223845 280.936096 
L 139.308977 282.19005 
L 140.116974 272.26007 
L 140.298615 276.2305 
L 140.480592 274.175778 
L 141.730358 281.682605 
L 142.34698 278.904716 
L 143.580801 284.260207 
L 143.842898 279.454421 
L 145.510652 275.038383 
L 145.510814 276.452669 
L 146.478465 281.549049 
L 146.564155 279.385055 
L 146.732298 270.452741 
L 147.172127 269.015255 
L 147.615997 266.459017 
L 148.327455 264.049136 
L 148.76001 267.818526 
L 148.846566 275.939153 
L 149.217749 278.252515 
L 149.681917 269.254977 
L 149.866136 271.521186 
L 150.143125 269.75494 
L 150.515182 263.157636 
L 150.978505 260.849215 
L 150.978566 261.173363 
L 151.250438 268.195004 
L 151.343079 264.608629 
L 151.526738 261.835493 
L 151.978446 267.389153 
L 152.699278 263.463242 
L 152.867696 261.475769 
L 152.956287 264.359118 
L 153.58755 265.792652 
L 153.587593 266.546972 
L 154.133632 258.955485 
L 155.528958 259.483495 
L 156.45036 248.899479 
L 156.539168 251.126581 
L 156.723323 252.198084 
L 156.911556 258.84593 
L 157.801856 261.277788 
L 157.897075 260.556551 
L 158.510444 253.051136 
L 159.530623 258.277589 
L 160.447839 268.018765 
L 160.447916 263.107141 
L 160.802852 259.02838 
L 161.081377 257.3179 
L 161.879044 265.658767 
L 162.142636 261.258023 
L 162.314922 257.25197 
L 162.67804 251.76984 
L 163.215469 248.314903 
L 163.215513 244.896202 
L 163.38266 244.556431 
L 164.189008 250.328777 
L 164.716223 247.465569 
L 166.517737 264.490697 
L 166.771671 259.353139 
L 167.655136 244.112234 
L 168.299027 250.336872 
L 168.848456 253.655241 
L 169.577151 254.621331 
L 169.752529 252.83099 
L 169.937277 254.668814 
L 170.124404 252.072858 
L 170.209939 253.121678 
L 170.39306 253.152644 
L 171.220199 259.472671 
L 171.592702 252.604304 
L 172.501337 242.580628 
L 172.956504 245.029617 
L 173.04134 244.411675 
L 173.21597 247.002972 
L 173.864968 247.715504 
L 174.237091 249.550833 
L 174.689471 258.626725 
L 174.958495 261.319436 
L 175.408824 260.744507 
L 175.499485 260.201015 
L 176.310927 246.544469 
L 176.584581 248.744606 
L 177.211382 228.740691 
L 178.049187 235.516163 
L 178.216732 225.377756 
L 180.186311 251.231148 
L 180.825939 233.435981 
L 180.918713 236.94339 
L 181.007616 235.946147 
L 181.185437 242.028994 
L 181.185545 238.709495 
L 181.723867 228.839046 
L 182.166438 230.738424 
L 182.528083 236.309307 
L 183.061281 227.664623 
L 183.779601 246.918688 
L 183.779704 244.226683 
L 184.052828 244.213318 
L 184.147898 241.630586 
L 184.238729 234.544144 
L 185.145344 245.067735 
L 185.330771 239.645089 
L 185.858723 240.260631 
L 186.033438 230.830661 
L 187.23438 234.027193 
L 187.784102 228.663372 
L 188.148592 229.234536 
L 188.516769 225.202882 
L 189.348609 236.993744 
L 189.803798 221.828605 
L 191.057845 226.35321 
L 191.326904 216.9727 
L 191.59474 217.07369 
L 192.13914 219.144647 
L 193.292368 218.990527 
L 193.550783 223.501625 
L 193.646712 230.64774 
L 194.102457 226.669922 
L 195.353735 220.561428 
L 195.447497 221.320689 
L 196.33472 213.597294 
L 196.507737 209.997224 
L 197.580978 201.808925 
L 198.200874 202.004553 
L 198.383606 203.392674 
L 198.558703 205.961805 
L 198.905886 191.283782 
L 199.165835 189.248448 
L 199.705312 197.578067 
L 200.324194 175.217684 
L 201.220307 192.959296 
L 202.40698 155.408597 
L 202.496115 153.382157 
L 202.753429 142.308627 
L 204.096087 155.830628 
L 204.282137 166.207252 
L 204.553776 169.168673 
L 205.423905 159.70242 
L 205.601517 161.172049 
L 205.774007 156.449934 
L 205.774037 159.161939 
L 205.944943 143.813644 
L 206.11625 142.813577 
L 206.647546 155.402055 
L 207.638096 137.008854 
L 207.90691 143.41246 
L 207.994969 138.863713 
L 208.165506 137.143962 
L 208.875228 136.525645 
L 210.579025 130.681203 
L 210.792096 133.501916 
L 210.876482 131.645739 
L 211.067282 132.364388 
L 211.348189 134.064938 
L 211.435653 132.511309 
L 211.888323 129.840528 
L 212.804022 128.534432 
L 213.264836 129.519157 
L 214.144566 128.399841 
L 214.144582 127.829477 
L 215.112061 125.821815 
L 215.924943 127.229183 
L 216.011695 127.078592 
L 216.920122 128.681447 
L 217.642182 122.423444 
L 217.801738 126.440227 
L 217.977605 125.657153 
L 218.06241 118.59217 
L 218.250326 126.510487 
L 218.693105 134.285272 
L 219.142349 133.20191 
L 219.492144 127.895173 
L 219.846126 128.297063 
L 221.318786 123.447699 
L 221.410856 130.570283 
L 221.680327 129.418214 
L 222.390221 116.706204 
L 222.475159 116.834865 
L 222.558894 117.086588 
L 222.926039 117.076329 
L 223.01591 118.25734 
L 223.016069 116.985927 
L 223.649631 121.813361 
L 223.734663 127.400857 
L 224.267583 129.341789 
L 224.358724 124.1479 
L 224.631821 132.93607 
L 224.81228 127.664345 
L 225.093695 128.746012 
L 225.183371 131.011138 
L 225.264567 129.014818 
L 225.804331 124.005121 
L 226.168078 124.675863 
L 226.599977 140.209527 
L 227.052393 128.382335 
L 227.142313 130.00246 
L 227.513414 128.385676 
L 227.868937 119.669367 
L 228.23184 120.222178 
L 228.678311 125.683224 
L 228.856711 123.692174 
L 229.56554 130.762098 
L 229.747988 124.103617 
L 230.183246 122.336901 
L 230.183309 126.857364 
L 230.548125 126.751292 
L 230.730328 126.200975 
L 231.629091 130.486281 
L 232.278904 118.915941 
L 232.7291 124.665322 
L 233.170717 125.959324 
L 233.259002 111.969172 
L 233.887508 108.704638 
L 233.887561 106.885497 
L 233.88764 108.903466 
L 234.34128 105.579872 
L 234.431297 112.257648 
L 234.97677 115.240952 
L 235.236785 104.534676 
L 236.322866 141.150675 
L 237.023643 119.575342 
L 237.023738 113.096535 
L 237.197515 112.203812 
L 237.380114 112.371532 
L 237.380233 114.447337 
L 238.475464 125.132437 
L 240.064375 124.367528 
L 240.149966 121.912987 
L 240.608879 126.415426 
L 240.69847 128.740365 
L 240.885497 124.438071 
L 241.612791 119.269877 
L 242.054921 113.485436 
L 242.690205 130.646755 
L 243.597643 124.705746 
L 244.137428 108.590471 
L 244.685545 122.209087 
L 244.771548 127.22476 
L 245.770606 132.077277 
L 245.770673 129.739443 
L 246.044832 120.275732 
L 246.14259 121.249115 
L 246.228006 119.512329 
L 246.423054 123.41358 
L 246.51337 123.032397 
L 246.692449 113.948692 
L 247.13755 126.121915 
L 247.583516 136.867016 
L 248.033038 129.843351 
L 248.844307 119.059379 
L 249.11141 118.125855 
L 249.664381 120.521572 
L 249.755126 116.546154 
L 249.933604 116.53006 
L 250.377661 120.232531 
L 250.742759 116.39288 
L 251.474422 106.682905 
L 252.36212 132.253845 
L 252.635381 125.495173 
L 252.815515 129.61257 
L 253.800462 120.97791 
L 253.980883 125.261004 
L 254.159551 132.874704 
L 254.603061 120.918285 
L 255.563926 127.090216 
L 256.01278 133.961454 
L 256.651999 141.696332 
L 256.744402 144.462174 
L 257.753214 126.63496 
L 258.118071 100.957054 
L 258.66025 125.049188 
L 258.842679 124.238396 
L 259.479534 132.82595 
L 260.032502 145.057197 
L 260.215501 143.291328 
L 260.308809 139.922792 
L 260.870922 140.137573 
L 261.314625 153.100223 
L 262.135744 138.579049 
L 262.22705 144.232005 
L 262.761381 134.192659 
L 263.298878 139.447866 
L 263.93655 141.097968 
L 264.204261 140.172821 
L 264.934856 124.493084 
L 265.742794 138.061109 
L 266.014974 124.075664 
L 266.102401 128.166566 
L 266.549611 139.775354 
L 266.64281 137.121374 
L 267.451831 129.375154 
L 267.547468 130.966196 
L 268.172907 147.432961 
L 268.707688 141.698168 
L 270.062334 134.066209 
L 270.85809 137.048949 
L 271.020912 138.559001 
L 271.020947 139.687023 
L 271.725029 136.627811 
L 272.704238 127.381986 
L 273.13981 143.992659 
L 273.13991 142.262885 
L 273.231209 140.209104 
L 273.231261 142.210507 
L 274.063794 124.347387 
L 274.429624 130.759275 
L 275.221363 135.055922 
L 275.589179 129.905329 
L 276.300845 139.306875 
L 276.394704 139.20932 
L 276.48105 135.7589 
L 276.837464 139.014775 
L 277.202952 139.88298 
L 277.748776 141.525459 
L 278.390725 138.034521 
L 278.737755 142.632303 
L 280.63469 142.007585 
L 280.822276 136.417878 
L 281.184151 132.176526 
L 281.458834 112.833377 
L 281.987698 123.969262 
L 282.621809 131.706117 
L 282.8036 132.428625 
L 283.076192 141.439998 
L 284.894887 123.104116 
L 285.448882 136.167285 
L 285.62104 127.697145 
L 285.887687 136.19825 
L 286.068476 135.990858 
L 286.243762 119.2543 
L 286.511768 129.201409 
L 286.9546 130.562942 
L 288.819576 145.420639 
L 288.819788 145.411839 
L 288.911405 141.98975 
L 289.261776 135.962057 
L 289.26184 138.28182 
L 289.353075 130.054226 
L 289.626748 135.385199 
L 289.715183 134.737893 
L 290.699243 149.648156 
L 291.235249 152.136298 
L 291.235265 151.756903 
L 292.380215 137.701479 
L 292.557219 141.927584 
L 292.913137 141.593836 
L 293.003405 138.780229 
L 293.526721 136.494115 
L 293.782598 131.423523 
L 293.962165 130.259218 
L 294.230963 139.047952 
L 294.508941 136.416937 
L 295.398601 111.655801 
L 295.398664 110.706747 
L 296.126681 120.144812 
L 296.387599 128.153342 
L 297.003815 134.522594 
L 297.094997 129.622029 
L 297.185814 134.908013 
L 297.4662 121.816373 
L 299.222459 119.979491 
L 299.569634 122.628059 
L 300.393355 121.043323 
L 301.58105 127.628956 
L 301.846966 134.362215 
L 302.383982 110.013511 
L 303.427349 121.799055 
L 303.6049 134.226447 
L 303.881268 124.103382 
L 304.139804 125.601434 
L 304.598985 131.360604 
L 304.693186 136.693366 
L 305.05843 149.00485 
L 305.580392 134.070256 
L 306.568323 142.073516 
L 306.655019 135.758524 
L 306.830216 140.285764 
L 307.178107 124.707817 
L 308.012293 136.954359 
L 308.344407 131.799154 
L 308.763763 138.585449 
L 309.010315 131.828001 
L 309.428163 127.330926 
L 309.428219 130.59946 
L 309.679225 133.650342 
L 310.013394 127.741005 
L 310.348101 139.396523 
L 311.183522 136.684424 
L 311.183643 140.194751 
L 311.266293 137.781857 
L 311.927247 142.926756 
L 312.009811 140.418755 
L 312.75144 126.616513 
L 312.917844 127.626414 
L 312.917875 126.13495 
L 313.514825 136.304511 
L 313.928336 131.884991 
L 314.097271 126.848799 
L 314.177883 122.088002 
L 314.264722 127.069933 
L 315.094546 118.331224 
L 315.676194 115.124056 
L 315.6763 113.442377 
L 316.257262 127.072474 
L 316.343145 116.38168 
L 316.511805 115.702091 
L 316.599464 125.014599 
L 316.928412 129.268658 
L 317.171497 126.455051 
L 317.335303 125.0226 
L 317.670671 112.999121 
L 318.008538 115.651784 
L 318.09006 119.545224 
L 318.420861 113.894809 
L 318.671203 118.400919 
L 318.753846 122.205557 
L 318.918848 104.551994 
L 319.743768 127.500483 
L 320.493553 115.481992 
L 320.994584 112.087433 
L 320.994599 114.331476 
L 321.240417 116.695522 
L 321.742035 143.990165 
L 322.075983 141.905372 
L 322.414294 129.942694 
L 322.581886 130.188911 
L 323.16954 139.795731 
L 324.08904 129.921047 
L 324.426677 136.278581 
L 324.678086 129.511627 
L 325.018351 126.696514 
L 325.512771 109.655998 
L 325.926083 105.99268 
L 326.008105 102.363857 
L 326.092688 103.436913 
L 326.258933 111.769874 
L 326.844471 127.004802 
L 327.353568 118.988272 
L 327.353616 119.474399 
L 327.519134 126.220929 
L 328.592132 118.882199 
L 329.003262 134.31539 
L 329.003342 132.219115 
L 329.678371 125.503456 
L 329.766109 118.392684 
L 330.21438 126.005113 
L 330.307301 130.620543 
L 331.016811 133.784509 
L 331.376717 131.173542 
L 331.466887 128.704553 
L 331.555168 135.591791 
L 331.646303 126.812611 
L 331.747953 126.925695 
L 332.016817 132.784396 
L 332.101443 132.153419 
L 332.181879 135.722335 
L 333.686904 135.16303 
L 334.382347 108.420162 
L 334.902748 121.338293 
L 335.164155 120.684681 
L 335.25559 102.660828 
L 335.438361 116.400928 
L 335.806623 120.124152 
L 336.776028 121.712936 
L 337.764393 134.714363 
L 338.467045 133.534293 
L 338.467212 137.362367 
L 338.564377 133.33876 
L 339.386959 112.977803 
L 339.562921 117.281509 
L 340.097327 139.935546 
L 341.257284 121.406012 
L 341.355608 125.901016 
L 341.623778 126.671855 
L 342.1383 141.415856 
L 343.487745 111.965878 
L 344.476649 122.735356 
L 344.563337 109.942027 
L 345.013567 113.347739 
L 345.201073 101.062279 
L 345.648073 113.329433 
L 345.731883 112.012937 
L 345.815532 112.263436 
L 345.995225 129.315576 
L 346.950451 134.043103 
L 346.950467 134.420992 
L 347.299005 117.859356 
L 347.381039 120.033751 
L 348.175262 127.166406 
L 349.065546 128.176072 
L 349.233392 114.841745 
L 349.233407 115.279071 
L 350.122402 130.12298 
L 350.737488 127.509989 
L 351.181609 130.058461 
L 352.982466 120.347027 
L 353.257705 130.636825 
L 353.683473 129.534169 
L 353.861911 133.566105 
L 354.220547 132.328999 
L 355.043171 146.764195 
L 355.132184 146.579109 
L 355.220523 144.226169 
L 355.587749 137.982237 
L 355.767748 140.923047 
L 357.11912 136.266157 
L 357.661995 130.648826 
L 358.312289 110.185184 
L 358.84613 119.653602 
L 359.113837 108.330984 
L 359.287585 108.670285 
L 359.821745 94.90489 
L 359.913097 104.492675 
L 360.095687 98.694657 
L 360.095719 101.797988 
L 360.181696 101.442357 
L 360.269812 104.643689 
L 360.725747 112.938179 
L 362.246996 127.644815 
L 362.335126 124.039804 
L 362.790167 134.374591 
L 362.966051 135.450989 
L 363.57751 132.035629 
L 363.752891 136.310158 
L 364.193547 135.903139 
L 364.654603 142.782047 
L 364.739157 142.26519 
L 365.182764 123.397486 
L 365.443408 107.424143 
L 365.797884 125.3515 
L 365.89632 124.408752 
L 366.076261 111.537775 
L 366.954782 117.714741 
L 366.954968 114.085777 
L 367.403616 130.537812 
L 367.565867 127.524624 
L 368.449138 138.311185 
L 368.623125 144.894465 
L 369.250586 123.404404 
L 369.426396 123.183599 
L 369.609101 130.355126 
L 370.506522 110.489614 
L 370.954519 109.019938 
L 371.039544 106.370382 
L 371.222038 117.290168 
L 371.30561 112.60636 
L 371.396998 115.758421 
L 371.58085 110.601381 
L 372.21625 114.233592 
L 372.660588 108.595224 
L 373.286332 107.542028 
L 374.001874 110.057747 
L 374.185176 110.09803 
L 374.355769 111.118426 
L 374.534744 109.889555 
L 374.710194 112.305508 
L 376.312746 118.299647 
L 376.406904 104.776963 
L 377.65575 122.968019 
L 377.909387 111.337818 
L 378.084748 111.850111 
L 378.265064 111.982066 
L 378.441749 111.396314 
L 378.529394 113.310892 
L 378.713053 122.269464 
L 379.244214 113.980269 
L 379.244294 114.209874 
L 379.331685 104.691079 
L 379.509679 105.719122 
L 379.598668 115.179351 
L 379.688388 110.104336 
L 379.868988 110.347446 
L 380.400491 133.925595 
L 380.756173 136.347618 
L 380.756238 137.710938 
L 380.839541 135.127547 
L 381.370173 117.187625 
L 381.370238 118.002229 
L 381.555881 119.161687 
L 381.556026 116.666109 
L 382.076096 101.951473 
L 382.167141 102.587062 
L 382.782509 125.978194 
L 382.965157 107.938882 
L 383.318455 120.136764 
L 383.943962 126.781692 
L 384.214707 114.843674 
L 384.562324 144.035766 
L 384.562439 143.678253 
L 385.536169 105.045768 
L 385.812754 107.418966 
L 385.904197 111.607847 
L 386.896555 121.467049 
L 387.065073 119.983585 
L 387.418238 118.964695 
L 387.780509 120.006268 
L 389.031526 111.382525 
L 389.210027 119.46061 
L 389.387843 122.664672 
L 390.267884 114.229874 
L 390.440197 114.581222 
L 390.696602 97.559177 
L 391.140601 117.676623 
L 391.853519 128.607233 
L 392.297444 115.400955 
L 392.558809 131.029021 
L 393.508406 98.160318 
L 393.598186 87.202742 
L 394.043823 113.136865 
L 394.307446 119.004554 
L 394.307573 123.682056 
L 394.492268 124.719017 
L 395.196326 113.317998 
L 395.471322 117.272897 
L 395.731498 113.453671 
L 395.816758 114.147661 
L 396.347031 108.234935 
L 396.347167 111.180404 
L 396.616938 100.036401 
L 397.85973 122.907971 
L 399.77234 133.875711 
L 400.674425 125.538092 
L 400.935121 128.979005 
L 401.268547 137.722374 
L 401.268659 140.667889 
L 401.444611 135.241573 
L 401.629215 135.613815 
L 401.629232 137.220764 
L 402.154373 121.380788 
L 402.512833 130.769298 
L 402.874493 129.090349 
L 402.970529 123.998862 
L 403.140602 123.329908 
L 403.410979 118.765067 
L 403.501348 120.829672 
L 403.593145 116.145346 
L 403.766205 125.86431 
L 404.034096 111.440456 
L 404.119562 112.508476 
L 404.205171 111.065013 
L 404.934959 116.065015 
L 405.019876 115.841858 
L 405.191669 104.614936 
L 405.280303 105.194712 
L 405.375892 108.723227 
L 405.461355 99.727242 
L 406.698925 127.762888 
L 406.791232 121.263045 
L 406.882631 122.648719 
L 407.068271 120.609762 
L 407.527171 133.816698 
L 408.326654 117.63041 
L 408.595101 119.479905 
L 408.595153 125.712731 
L 408.853056 120.847743 
L 408.853077 122.417514 
L 408.853243 123.010467 
L 408.945299 120.814989 
L 409.118748 116.008591 
L 409.563799 114.610258 
L 409.649871 113.667087 
L 409.734612 113.87495 
L 410.909999 109.226954 
L 411.819551 123.684833 
L 413.0396 105.476764 
L 413.489921 100.988349 
L 413.850187 108.724968 
L 414.020932 115.612065 
L 414.72 109.010809 
L 414.72 109.010809 
" style="fill:none;stroke:#000000;stroke-linecap:square;stroke-width:0.8;"/>
   </g>
   <g id="patch_3">
    <path d="M 57.6 307.584 
L 57.6 41.472 
" style="fill:none;stroke:#000000;stroke-linecap:square;stroke-linejoin:miter;stroke-width:0.8;"/>
   </g>
   <g id="patch_4">
    <path d="M 414.72 307.584 
L 414.72 41.472 
" style="fill:none;stroke:#000000;stroke-linecap:square;stroke-linejoin:miter;stroke-width:0.8;"/>
   </g>
   <g id="patch_5">
    <path d="M 57.6 307.584 
L 414.72 307.584 
" style="fill:none;stroke:#000000;stroke-linecap:square;stroke-linejoin:miter;stroke-width:0.8;"/>
   </g>
   <g id="patch_6">
    <path d="M 57.6 41.472 
L 414.72 41.472 
" style="fill:none;stroke:#000000;stroke-linecap:square;stroke-linejoin:miter;stroke-width:0.8;"/>
   </g>
  </g>
  <g id="axes_2">
   <g id="matplotlib.axis_3">
    <g id="xtick_8">
     <g id="line2d_34">
      <defs>
       <path d="M 0 0 
L 0 -3.5 
" id="m0d4e63199f" style="stroke:#000000;stroke-width:0.8;"/>
      </defs>
      <g>
       <use style="stroke:#000000;stroke-width:0.8;" x="57.6" xlink:href="#m0d4e63199f" y="41.472"/>
      </g>
     </g>
    </g>
    <g id="xtick_9">
     <g id="line2d_35">
      <g>
       <use style="stroke:#000000;stroke-width:0.8;" x="129.778992" xlink:href="#m0d4e63199f" y="41.472"/>
      </g>
     </g>
     <g id="text_19">
      <!-- 10.0K -->
      <defs>
       <path d="M 9.8125 72.90625 
L 19.671875 72.90625 
L 19.671875 42.09375 
L 52.390625 72.90625 
L 65.09375 72.90625 
L 28.90625 38.921875 
L 67.671875 0 
L 54.6875 0 
L 19.671875 35.109375 
L 19.671875 0 
L 9.8125 0 
z
" id="DejaVuSans-75"/>
      </defs>
      <g transform="translate(115.367274 32.392313)scale(0.1 -0.1)">
       <use xlink:href="#DejaVuSans-49"/>
       <use x="63.623047" xlink:href="#DejaVuSans-48"/>
       <use x="127.246094" xlink:href="#DejaVuSans-46"/>
       <use x="159.033203" xlink:href="#DejaVuSans-48"/>
       <use x="222.65625" xlink:href="#DejaVuSans-75"/>
      </g>
     </g>
    </g>
    <g id="xtick_10">
     <g id="line2d_36">
      <g>
       <use style="stroke:#000000;stroke-width:0.8;" x="201.957985" xlink:href="#m0d4e63199f" y="41.472"/>
      </g>
     </g>
     <g id="text_20">
      <!-- 20.0K -->
      <g transform="translate(187.546266 32.392313)scale(0.1 -0.1)">
       <use xlink:href="#DejaVuSans-50"/>
       <use x="63.623047" xlink:href="#DejaVuSans-48"/>
       <use x="127.246094" xlink:href="#DejaVuSans-46"/>
       <use x="159.033203" xlink:href="#DejaVuSans-48"/>
       <use x="222.65625" xlink:href="#DejaVuSans-75"/>
      </g>
     </g>
    </g>
    <g id="xtick_11">
     <g id="line2d_37">
      <g>
       <use style="stroke:#000000;stroke-width:0.8;" x="274.136977" xlink:href="#m0d4e63199f" y="41.472"/>
      </g>
     </g>
     <g id="text_21">
      <!-- 30.0K -->
      <g transform="translate(259.725258 32.392313)scale(0.1 -0.1)">
       <use xlink:href="#DejaVuSans-51"/>
       <use x="63.623047" xlink:href="#DejaVuSans-48"/>
       <use x="127.246094" xlink:href="#DejaVuSans-46"/>
       <use x="159.033203" xlink:href="#DejaVuSans-48"/>
       <use x="222.65625" xlink:href="#DejaVuSans-75"/>
      </g>
     </g>
    </g>
    <g id="xtick_12">
     <g id="line2d_38">
      <g>
       <use style="stroke:#000000;stroke-width:0.8;" x="346.315969" xlink:href="#m0d4e63199f" y="41.472"/>
      </g>
     </g>
     <g id="text_22">
      <!-- 40.0K -->
      <g transform="translate(331.90425 32.392313)scale(0.1 -0.1)">
       <use xlink:href="#DejaVuSans-52"/>
       <use x="63.623047" xlink:href="#DejaVuSans-48"/>
       <use x="127.246094" xlink:href="#DejaVuSans-46"/>
       <use x="159.033203" xlink:href="#DejaVuSans-48"/>
       <use x="222.65625" xlink:href="#DejaVuSans-75"/>
      </g>
     </g>
    </g>
    <g id="text_23">
     <!-- Episodes -->
     <defs>
      <path d="M 9.8125 72.90625 
L 55.90625 72.90625 
L 55.90625 64.59375 
L 19.671875 64.59375 
L 19.671875 43.015625 
L 54.390625 43.015625 
L 54.390625 34.71875 
L 19.671875 34.71875 
L 19.671875 8.296875 
L 56.78125 8.296875 
L 56.78125 0 
L 9.8125 0 
z
" id="DejaVuSans-69"/>
      <path d="M 18.109375 8.203125 
L 18.109375 -20.796875 
L 9.078125 -20.796875 
L 9.078125 54.6875 
L 18.109375 54.6875 
L 18.109375 46.390625 
Q 20.953125 51.265625 25.265625 53.625 
Q 29.59375 56 35.59375 56 
Q 45.5625 56 51.78125 48.09375 
Q 58.015625 40.1875 58.015625 27.296875 
Q 58.015625 14.40625 51.78125 6.484375 
Q 45.5625 -1.421875 35.59375 -1.421875 
Q 29.59375 -1.421875 25.265625 0.953125 
Q 20.953125 3.328125 18.109375 8.203125 
z
M 48.6875 27.296875 
Q 48.6875 37.203125 44.609375 42.84375 
Q 40.53125 48.484375 33.40625 48.484375 
Q 26.265625 48.484375 22.1875 42.84375 
Q 18.109375 37.203125 18.109375 27.296875 
Q 18.109375 17.390625 22.1875 11.75 
Q 26.265625 6.109375 33.40625 6.109375 
Q 40.53125 6.109375 44.609375 11.75 
Q 48.6875 17.390625 48.6875 27.296875 
z
" id="DejaVuSans-112"/>
      <path d="M 9.421875 54.6875 
L 18.40625 54.6875 
L 18.40625 0 
L 9.421875 0 
z
M 9.421875 75.984375 
L 18.40625 75.984375 
L 18.40625 64.59375 
L 9.421875 64.59375 
z
" id="DejaVuSans-105"/>
     </defs>
     <g transform="translate(213.917812 20.793875)scale(0.1 -0.1)">
      <use xlink:href="#DejaVuSans-69"/>
      <use x="63.183594" xlink:href="#DejaVuSans-112"/>
      <use x="126.660156" xlink:href="#DejaVuSans-105"/>
      <use x="154.443359" xlink:href="#DejaVuSans-115"/>
      <use x="206.542969" xlink:href="#DejaVuSans-111"/>
      <use x="267.724609" xlink:href="#DejaVuSans-100"/>
      <use x="331.201172" xlink:href="#DejaVuSans-101"/>
      <use x="392.724609" xlink:href="#DejaVuSans-115"/>
     </g>
    </g>
   </g>
   <g id="patch_7">
    <path d="M 57.6 307.584 
L 57.6 41.472 
" style="fill:none;stroke:#000000;stroke-linecap:square;stroke-linejoin:miter;stroke-width:0.8;"/>
   </g>
   <g id="patch_8">
    <path d="M 414.72 307.584 
L 414.72 41.472 
" style="fill:none;stroke:#000000;stroke-linecap:square;stroke-linejoin:miter;stroke-width:0.8;"/>
   </g>
   <g id="patch_9">
    <path d="M 57.6 307.584 
L 414.72 307.584 
" style="fill:none;stroke:#000000;stroke-linecap:square;stroke-linejoin:miter;stroke-width:0.8;"/>
   </g>
   <g id="patch_10">
    <path d="M 57.6 41.472 
L 414.72 41.472 
" style="fill:none;stroke:#000000;stroke-linecap:square;stroke-linejoin:miter;stroke-width:0.8;"/>
   </g>
  </g>
 </g>
 <defs>
  <clipPath id="p64705cfaa9">
   <rect height="266.112" width="357.12" x="57.6" y="41.472"/>
  </clipPath>
 </defs>
</svg>
