<?xml version="1.0" encoding="utf-8" standalone="no"?>
<!DOCTYPE svg PUBLIC "-//W3C//DTD SVG 1.1//EN"
  "http://www.w3.org/Graphics/SVG/1.1/DTD/svg11.dtd">
<!-- Created with matplotlib (https://matplotlib.org/) -->
<svg height="345.6pt" version="1.1" viewBox="0 0 460.8 345.6" width="460.8pt" xmlns="http://www.w3.org/2000/svg" xmlns:xlink="http://www.w3.org/1999/xlink">
 <defs>
  <style type="text/css">
*{stroke-linecap:butt;stroke-linejoin:round;}
  </style>
 </defs>
 <g id="figure_1">
  <g id="patch_1">
   <path d="M 0 345.6 
L 460.8 345.6 
L 460.8 0 
L 0 0 
z
" style="fill:#ffffff;"/>
  </g>
  <g id="axes_1">
   <g id="patch_2">
    <path d="M 57.6 307.584 
L 414.72 307.584 
L 414.72 41.472 
L 57.6 41.472 
z
" style="fill:#ffffff;"/>
   </g>
   <g id="matplotlib.axis_1">
    <g id="xtick_1">
     <g id="line2d_1">
      <path clip-path="url(#pe89b0958ac)" d="M 57.6 307.584 
L 57.6 41.472 
" style="fill:none;stroke:#b0b0b0;stroke-linecap:square;stroke-width:0.8;"/>
     </g>
     <g id="line2d_2">
      <defs>
       <path d="M 0 0 
L 0 3.5 
" id="ma93e2251f5" style="stroke:#000000;stroke-width:0.8;"/>
      </defs>
      <g>
       <use style="stroke:#000000;stroke-width:0.8;" x="57.6" xlink:href="#ma93e2251f5" y="307.584"/>
      </g>
     </g>
     <g id="text_1">
      <!-- 0.0 -->
      <defs>
       <path d="M 31.78125 66.40625 
Q 24.171875 66.40625 20.328125 58.90625 
Q 16.5 51.421875 16.5 36.375 
Q 16.5 21.390625 20.328125 13.890625 
Q 24.171875 6.390625 31.78125 6.390625 
Q 39.453125 6.390625 43.28125 13.890625 
Q 47.125 21.390625 47.125 36.375 
Q 47.125 51.421875 43.28125 58.90625 
Q 39.453125 66.40625 31.78125 66.40625 
z
M 31.78125 74.21875 
Q 44.046875 74.21875 50.515625 64.515625 
Q 56.984375 54.828125 56.984375 36.375 
Q 56.984375 17.96875 50.515625 8.265625 
Q 44.046875 -1.421875 31.78125 -1.421875 
Q 19.53125 -1.421875 13.0625 8.265625 
Q 6.59375 17.96875 6.59375 36.375 
Q 6.59375 54.828125 13.0625 64.515625 
Q 19.53125 74.21875 31.78125 74.21875 
z
" id="DejaVuSans-48"/>
       <path d="M 10.6875 12.40625 
L 21 12.40625 
L 21 0 
L 10.6875 0 
z
" id="DejaVuSans-46"/>
      </defs>
      <g transform="translate(49.648438 322.182437)scale(0.1 -0.1)">
       <use xlink:href="#DejaVuSans-48"/>
       <use x="63.623047" xlink:href="#DejaVuSans-46"/>
       <use x="95.410156" xlink:href="#DejaVuSans-48"/>
      </g>
     </g>
    </g>
    <g id="xtick_2">
     <g id="line2d_3">
      <path clip-path="url(#pe89b0958ac)" d="M 112.799267 307.584 
L 112.799267 41.472 
" style="fill:none;stroke:#b0b0b0;stroke-linecap:square;stroke-width:0.8;"/>
     </g>
     <g id="line2d_4">
      <g>
       <use style="stroke:#000000;stroke-width:0.8;" x="112.799267" xlink:href="#ma93e2251f5" y="307.584"/>
      </g>
     </g>
     <g id="text_2">
      <!-- 0.2 -->
      <defs>
       <path d="M 19.1875 8.296875 
L 53.609375 8.296875 
L 53.609375 0 
L 7.328125 0 
L 7.328125 8.296875 
Q 12.9375 14.109375 22.625 23.890625 
Q 32.328125 33.6875 34.8125 36.53125 
Q 39.546875 41.84375 41.421875 45.53125 
Q 43.3125 49.21875 43.3125 52.78125 
Q 43.3125 58.59375 39.234375 62.25 
Q 35.15625 65.921875 28.609375 65.921875 
Q 23.96875 65.921875 18.8125 64.3125 
Q 13.671875 62.703125 7.8125 59.421875 
L 7.8125 69.390625 
Q 13.765625 71.78125 18.9375 73 
Q 24.125 74.21875 28.421875 74.21875 
Q 39.75 74.21875 46.484375 68.546875 
Q 53.21875 62.890625 53.21875 53.421875 
Q 53.21875 48.921875 51.53125 44.890625 
Q 49.859375 40.875 45.40625 35.40625 
Q 44.1875 33.984375 37.640625 27.21875 
Q 31.109375 20.453125 19.1875 8.296875 
z
" id="DejaVuSans-50"/>
      </defs>
      <g transform="translate(104.847705 322.182437)scale(0.1 -0.1)">
       <use xlink:href="#DejaVuSans-48"/>
       <use x="63.623047" xlink:href="#DejaVuSans-46"/>
       <use x="95.410156" xlink:href="#DejaVuSans-50"/>
      </g>
     </g>
    </g>
    <g id="xtick_3">
     <g id="line2d_5">
      <path clip-path="url(#pe89b0958ac)" d="M 167.998534 307.584 
L 167.998534 41.472 
" style="fill:none;stroke:#b0b0b0;stroke-linecap:square;stroke-width:0.8;"/>
     </g>
     <g id="line2d_6">
      <g>
       <use style="stroke:#000000;stroke-width:0.8;" x="167.998534" xlink:href="#ma93e2251f5" y="307.584"/>
      </g>
     </g>
     <g id="text_3">
      <!-- 0.4 -->
      <defs>
       <path d="M 37.796875 64.3125 
L 12.890625 25.390625 
L 37.796875 25.390625 
z
M 35.203125 72.90625 
L 47.609375 72.90625 
L 47.609375 25.390625 
L 58.015625 25.390625 
L 58.015625 17.1875 
L 47.609375 17.1875 
L 47.609375 0 
L 37.796875 0 
L 37.796875 17.1875 
L 4.890625 17.1875 
L 4.890625 26.703125 
z
" id="DejaVuSans-52"/>
      </defs>
      <g transform="translate(160.046972 322.182437)scale(0.1 -0.1)">
       <use xlink:href="#DejaVuSans-48"/>
       <use x="63.623047" xlink:href="#DejaVuSans-46"/>
       <use x="95.410156" xlink:href="#DejaVuSans-52"/>
      </g>
     </g>
    </g>
    <g id="xtick_4">
     <g id="line2d_7">
      <path clip-path="url(#pe89b0958ac)" d="M 223.197802 307.584 
L 223.197802 41.472 
" style="fill:none;stroke:#b0b0b0;stroke-linecap:square;stroke-width:0.8;"/>
     </g>
     <g id="line2d_8">
      <g>
       <use style="stroke:#000000;stroke-width:0.8;" x="223.197802" xlink:href="#ma93e2251f5" y="307.584"/>
      </g>
     </g>
     <g id="text_4">
      <!-- 0.6 -->
      <defs>
       <path d="M 33.015625 40.375 
Q 26.375 40.375 22.484375 35.828125 
Q 18.609375 31.296875 18.609375 23.390625 
Q 18.609375 15.53125 22.484375 10.953125 
Q 26.375 6.390625 33.015625 6.390625 
Q 39.65625 6.390625 43.53125 10.953125 
Q 47.40625 15.53125 47.40625 23.390625 
Q 47.40625 31.296875 43.53125 35.828125 
Q 39.65625 40.375 33.015625 40.375 
z
M 52.59375 71.296875 
L 52.59375 62.3125 
Q 48.875 64.0625 45.09375 64.984375 
Q 41.3125 65.921875 37.59375 65.921875 
Q 27.828125 65.921875 22.671875 59.328125 
Q 17.53125 52.734375 16.796875 39.40625 
Q 19.671875 43.65625 24.015625 45.921875 
Q 28.375 48.1875 33.59375 48.1875 
Q 44.578125 48.1875 50.953125 41.515625 
Q 57.328125 34.859375 57.328125 23.390625 
Q 57.328125 12.15625 50.6875 5.359375 
Q 44.046875 -1.421875 33.015625 -1.421875 
Q 20.359375 -1.421875 13.671875 8.265625 
Q 6.984375 17.96875 6.984375 36.375 
Q 6.984375 53.65625 15.1875 63.9375 
Q 23.390625 74.21875 37.203125 74.21875 
Q 40.921875 74.21875 44.703125 73.484375 
Q 48.484375 72.75 52.59375 71.296875 
z
" id="DejaVuSans-54"/>
      </defs>
      <g transform="translate(215.246239 322.182437)scale(0.1 -0.1)">
       <use xlink:href="#DejaVuSans-48"/>
       <use x="63.623047" xlink:href="#DejaVuSans-46"/>
       <use x="95.410156" xlink:href="#DejaVuSans-54"/>
      </g>
     </g>
    </g>
    <g id="xtick_5">
     <g id="line2d_9">
      <path clip-path="url(#pe89b0958ac)" d="M 278.397069 307.584 
L 278.397069 41.472 
" style="fill:none;stroke:#b0b0b0;stroke-linecap:square;stroke-width:0.8;"/>
     </g>
     <g id="line2d_10">
      <g>
       <use style="stroke:#000000;stroke-width:0.8;" x="278.397069" xlink:href="#ma93e2251f5" y="307.584"/>
      </g>
     </g>
     <g id="text_5">
      <!-- 0.8 -->
      <defs>
       <path d="M 31.78125 34.625 
Q 24.75 34.625 20.71875 30.859375 
Q 16.703125 27.09375 16.703125 20.515625 
Q 16.703125 13.921875 20.71875 10.15625 
Q 24.75 6.390625 31.78125 6.390625 
Q 38.8125 6.390625 42.859375 10.171875 
Q 46.921875 13.96875 46.921875 20.515625 
Q 46.921875 27.09375 42.890625 30.859375 
Q 38.875 34.625 31.78125 34.625 
z
M 21.921875 38.8125 
Q 15.578125 40.375 12.03125 44.71875 
Q 8.5 49.078125 8.5 55.328125 
Q 8.5 64.0625 14.71875 69.140625 
Q 20.953125 74.21875 31.78125 74.21875 
Q 42.671875 74.21875 48.875 69.140625 
Q 55.078125 64.0625 55.078125 55.328125 
Q 55.078125 49.078125 51.53125 44.71875 
Q 48 40.375 41.703125 38.8125 
Q 48.828125 37.15625 52.796875 32.3125 
Q 56.78125 27.484375 56.78125 20.515625 
Q 56.78125 9.90625 50.3125 4.234375 
Q 43.84375 -1.421875 31.78125 -1.421875 
Q 19.734375 -1.421875 13.25 4.234375 
Q 6.78125 9.90625 6.78125 20.515625 
Q 6.78125 27.484375 10.78125 32.3125 
Q 14.796875 37.15625 21.921875 38.8125 
z
M 18.3125 54.390625 
Q 18.3125 48.734375 21.84375 45.5625 
Q 25.390625 42.390625 31.78125 42.390625 
Q 38.140625 42.390625 41.71875 45.5625 
Q 45.3125 48.734375 45.3125 54.390625 
Q 45.3125 60.0625 41.71875 63.234375 
Q 38.140625 66.40625 31.78125 66.40625 
Q 25.390625 66.40625 21.84375 63.234375 
Q 18.3125 60.0625 18.3125 54.390625 
z
" id="DejaVuSans-56"/>
      </defs>
      <g transform="translate(270.445506 322.182437)scale(0.1 -0.1)">
       <use xlink:href="#DejaVuSans-48"/>
       <use x="63.623047" xlink:href="#DejaVuSans-46"/>
       <use x="95.410156" xlink:href="#DejaVuSans-56"/>
      </g>
     </g>
    </g>
    <g id="xtick_6">
     <g id="line2d_11">
      <path clip-path="url(#pe89b0958ac)" d="M 333.596336 307.584 
L 333.596336 41.472 
" style="fill:none;stroke:#b0b0b0;stroke-linecap:square;stroke-width:0.8;"/>
     </g>
     <g id="line2d_12">
      <g>
       <use style="stroke:#000000;stroke-width:0.8;" x="333.596336" xlink:href="#ma93e2251f5" y="307.584"/>
      </g>
     </g>
     <g id="text_6">
      <!-- 1.0 -->
      <defs>
       <path d="M 12.40625 8.296875 
L 28.515625 8.296875 
L 28.515625 63.921875 
L 10.984375 60.40625 
L 10.984375 69.390625 
L 28.421875 72.90625 
L 38.28125 72.90625 
L 38.28125 8.296875 
L 54.390625 8.296875 
L 54.390625 0 
L 12.40625 0 
z
" id="DejaVuSans-49"/>
      </defs>
      <g transform="translate(325.644774 322.182437)scale(0.1 -0.1)">
       <use xlink:href="#DejaVuSans-49"/>
       <use x="63.623047" xlink:href="#DejaVuSans-46"/>
       <use x="95.410156" xlink:href="#DejaVuSans-48"/>
      </g>
     </g>
    </g>
    <g id="xtick_7">
     <g id="line2d_13">
      <path clip-path="url(#pe89b0958ac)" d="M 388.795603 307.584 
L 388.795603 41.472 
" style="fill:none;stroke:#b0b0b0;stroke-linecap:square;stroke-width:0.8;"/>
     </g>
     <g id="line2d_14">
      <g>
       <use style="stroke:#000000;stroke-width:0.8;" x="388.795603" xlink:href="#ma93e2251f5" y="307.584"/>
      </g>
     </g>
     <g id="text_7">
      <!-- 1.2 -->
      <g transform="translate(380.844041 322.182437)scale(0.1 -0.1)">
       <use xlink:href="#DejaVuSans-49"/>
       <use x="63.623047" xlink:href="#DejaVuSans-46"/>
       <use x="95.410156" xlink:href="#DejaVuSans-50"/>
      </g>
     </g>
    </g>
    <g id="text_8">
     <!-- Hours -->
     <defs>
      <path d="M 9.8125 72.90625 
L 19.671875 72.90625 
L 19.671875 43.015625 
L 55.515625 43.015625 
L 55.515625 72.90625 
L 65.375 72.90625 
L 65.375 0 
L 55.515625 0 
L 55.515625 34.71875 
L 19.671875 34.71875 
L 19.671875 0 
L 9.8125 0 
z
" id="DejaVuSans-72"/>
      <path d="M 30.609375 48.390625 
Q 23.390625 48.390625 19.1875 42.75 
Q 14.984375 37.109375 14.984375 27.296875 
Q 14.984375 17.484375 19.15625 11.84375 
Q 23.34375 6.203125 30.609375 6.203125 
Q 37.796875 6.203125 41.984375 11.859375 
Q 46.1875 17.53125 46.1875 27.296875 
Q 46.1875 37.015625 41.984375 42.703125 
Q 37.796875 48.390625 30.609375 48.390625 
z
M 30.609375 56 
Q 42.328125 56 49.015625 48.375 
Q 55.71875 40.765625 55.71875 27.296875 
Q 55.71875 13.875 49.015625 6.21875 
Q 42.328125 -1.421875 30.609375 -1.421875 
Q 18.84375 -1.421875 12.171875 6.21875 
Q 5.515625 13.875 5.515625 27.296875 
Q 5.515625 40.765625 12.171875 48.375 
Q 18.84375 56 30.609375 56 
z
" id="DejaVuSans-111"/>
      <path d="M 8.5 21.578125 
L 8.5 54.6875 
L 17.484375 54.6875 
L 17.484375 21.921875 
Q 17.484375 14.15625 20.5 10.265625 
Q 23.53125 6.390625 29.59375 6.390625 
Q 36.859375 6.390625 41.078125 11.03125 
Q 45.3125 15.671875 45.3125 23.6875 
L 45.3125 54.6875 
L 54.296875 54.6875 
L 54.296875 0 
L 45.3125 0 
L 45.3125 8.40625 
Q 42.046875 3.421875 37.71875 1 
Q 33.40625 -1.421875 27.6875 -1.421875 
Q 18.265625 -1.421875 13.375 4.4375 
Q 8.5 10.296875 8.5 21.578125 
z
M 31.109375 56 
z
" id="DejaVuSans-117"/>
      <path d="M 41.109375 46.296875 
Q 39.59375 47.171875 37.8125 47.578125 
Q 36.03125 48 33.890625 48 
Q 26.265625 48 22.1875 43.046875 
Q 18.109375 38.09375 18.109375 28.8125 
L 18.109375 0 
L 9.078125 0 
L 9.078125 54.6875 
L 18.109375 54.6875 
L 18.109375 46.1875 
Q 20.953125 51.171875 25.484375 53.578125 
Q 30.03125 56 36.53125 56 
Q 37.453125 56 38.578125 55.875 
Q 39.703125 55.765625 41.0625 55.515625 
z
" id="DejaVuSans-114"/>
      <path d="M 44.28125 53.078125 
L 44.28125 44.578125 
Q 40.484375 46.53125 36.375 47.5 
Q 32.28125 48.484375 27.875 48.484375 
Q 21.1875 48.484375 17.84375 46.4375 
Q 14.5 44.390625 14.5 40.28125 
Q 14.5 37.15625 16.890625 35.375 
Q 19.28125 33.59375 26.515625 31.984375 
L 29.59375 31.296875 
Q 39.15625 29.25 43.1875 25.515625 
Q 47.21875 21.78125 47.21875 15.09375 
Q 47.21875 7.46875 41.1875 3.015625 
Q 35.15625 -1.421875 24.609375 -1.421875 
Q 20.21875 -1.421875 15.453125 -0.5625 
Q 10.6875 0.296875 5.421875 2 
L 5.421875 11.28125 
Q 10.40625 8.6875 15.234375 7.390625 
Q 20.0625 6.109375 24.8125 6.109375 
Q 31.15625 6.109375 34.5625 8.28125 
Q 37.984375 10.453125 37.984375 14.40625 
Q 37.984375 18.0625 35.515625 20.015625 
Q 33.0625 21.96875 24.703125 23.78125 
L 21.578125 24.515625 
Q 13.234375 26.265625 9.515625 29.90625 
Q 5.8125 33.546875 5.8125 39.890625 
Q 5.8125 47.609375 11.28125 51.796875 
Q 16.75 56 26.8125 56 
Q 31.78125 56 36.171875 55.265625 
Q 40.578125 54.546875 44.28125 53.078125 
z
" id="DejaVuSans-115"/>
     </defs>
     <g transform="translate(221.511562 335.860562)scale(0.1 -0.1)">
      <use xlink:href="#DejaVuSans-72"/>
      <use x="75.195312" xlink:href="#DejaVuSans-111"/>
      <use x="136.376953" xlink:href="#DejaVuSans-117"/>
      <use x="199.755859" xlink:href="#DejaVuSans-114"/>
      <use x="240.869141" xlink:href="#DejaVuSans-115"/>
     </g>
    </g>
   </g>
   <g id="matplotlib.axis_2">
    <g id="ytick_1">
     <g id="line2d_15">
      <path clip-path="url(#pe89b0958ac)" d="M 57.6 267.656496 
L 414.72 267.656496 
" style="fill:none;stroke:#b0b0b0;stroke-linecap:square;stroke-width:0.8;"/>
     </g>
     <g id="line2d_16">
      <defs>
       <path d="M 0 0 
L -3.5 0 
" id="m2f64c793e8" style="stroke:#000000;stroke-width:0.8;"/>
      </defs>
      <g>
       <use style="stroke:#000000;stroke-width:0.8;" x="57.6" xlink:href="#m2f64c793e8" y="267.656496"/>
      </g>
     </g>
     <g id="text_9">
      <!-- 100 -->
      <g transform="translate(31.5125 271.455714)scale(0.1 -0.1)">
       <use xlink:href="#DejaVuSans-49"/>
       <use x="63.623047" xlink:href="#DejaVuSans-48"/>
       <use x="127.246094" xlink:href="#DejaVuSans-48"/>
      </g>
     </g>
    </g>
    <g id="ytick_2">
     <g id="line2d_17">
      <path clip-path="url(#pe89b0958ac)" d="M 57.6 224.838796 
L 414.72 224.838796 
" style="fill:none;stroke:#b0b0b0;stroke-linecap:square;stroke-width:0.8;"/>
     </g>
     <g id="line2d_18">
      <g>
       <use style="stroke:#000000;stroke-width:0.8;" x="57.6" xlink:href="#m2f64c793e8" y="224.838796"/>
      </g>
     </g>
     <g id="text_10">
      <!-- 120 -->
      <g transform="translate(31.5125 228.638015)scale(0.1 -0.1)">
       <use xlink:href="#DejaVuSans-49"/>
       <use x="63.623047" xlink:href="#DejaVuSans-50"/>
       <use x="127.246094" xlink:href="#DejaVuSans-48"/>
      </g>
     </g>
    </g>
    <g id="ytick_3">
     <g id="line2d_19">
      <path clip-path="url(#pe89b0958ac)" d="M 57.6 182.021097 
L 414.72 182.021097 
" style="fill:none;stroke:#b0b0b0;stroke-linecap:square;stroke-width:0.8;"/>
     </g>
     <g id="line2d_20">
      <g>
       <use style="stroke:#000000;stroke-width:0.8;" x="57.6" xlink:href="#m2f64c793e8" y="182.021097"/>
      </g>
     </g>
     <g id="text_11">
      <!-- 140 -->
      <g transform="translate(31.5125 185.820316)scale(0.1 -0.1)">
       <use xlink:href="#DejaVuSans-49"/>
       <use x="63.623047" xlink:href="#DejaVuSans-52"/>
       <use x="127.246094" xlink:href="#DejaVuSans-48"/>
      </g>
     </g>
    </g>
    <g id="ytick_4">
     <g id="line2d_21">
      <path clip-path="url(#pe89b0958ac)" d="M 57.6 139.203398 
L 414.72 139.203398 
" style="fill:none;stroke:#b0b0b0;stroke-linecap:square;stroke-width:0.8;"/>
     </g>
     <g id="line2d_22">
      <g>
       <use style="stroke:#000000;stroke-width:0.8;" x="57.6" xlink:href="#m2f64c793e8" y="139.203398"/>
      </g>
     </g>
     <g id="text_12">
      <!-- 160 -->
      <g transform="translate(31.5125 143.002617)scale(0.1 -0.1)">
       <use xlink:href="#DejaVuSans-49"/>
       <use x="63.623047" xlink:href="#DejaVuSans-54"/>
       <use x="127.246094" xlink:href="#DejaVuSans-48"/>
      </g>
     </g>
    </g>
    <g id="ytick_5">
     <g id="line2d_23">
      <path clip-path="url(#pe89b0958ac)" d="M 57.6 96.385699 
L 414.72 96.385699 
" style="fill:none;stroke:#b0b0b0;stroke-linecap:square;stroke-width:0.8;"/>
     </g>
     <g id="line2d_24">
      <g>
       <use style="stroke:#000000;stroke-width:0.8;" x="57.6" xlink:href="#m2f64c793e8" y="96.385699"/>
      </g>
     </g>
     <g id="text_13">
      <!-- 180 -->
      <g transform="translate(31.5125 100.184918)scale(0.1 -0.1)">
       <use xlink:href="#DejaVuSans-49"/>
       <use x="63.623047" xlink:href="#DejaVuSans-56"/>
       <use x="127.246094" xlink:href="#DejaVuSans-48"/>
      </g>
     </g>
    </g>
    <g id="ytick_6">
     <g id="line2d_25">
      <path clip-path="url(#pe89b0958ac)" d="M 57.6 53.568 
L 414.72 53.568 
" style="fill:none;stroke:#b0b0b0;stroke-linecap:square;stroke-width:0.8;"/>
     </g>
     <g id="line2d_26">
      <g>
       <use style="stroke:#000000;stroke-width:0.8;" x="57.6" xlink:href="#m2f64c793e8" y="53.568"/>
      </g>
     </g>
     <g id="text_14">
      <!-- 200 -->
      <g transform="translate(31.5125 57.367219)scale(0.1 -0.1)">
       <use xlink:href="#DejaVuSans-50"/>
       <use x="63.623047" xlink:href="#DejaVuSans-48"/>
       <use x="127.246094" xlink:href="#DejaVuSans-48"/>
      </g>
     </g>
    </g>
    <g id="text_15">
     <!-- Steps -->
     <defs>
      <path d="M 53.515625 70.515625 
L 53.515625 60.890625 
Q 47.90625 63.578125 42.921875 64.890625 
Q 37.9375 66.21875 33.296875 66.21875 
Q 25.25 66.21875 20.875 63.09375 
Q 16.5 59.96875 16.5 54.203125 
Q 16.5 49.359375 19.40625 46.890625 
Q 22.3125 44.4375 30.421875 42.921875 
L 36.375 41.703125 
Q 47.40625 39.59375 52.65625 34.296875 
Q 57.90625 29 57.90625 20.125 
Q 57.90625 9.515625 50.796875 4.046875 
Q 43.703125 -1.421875 29.984375 -1.421875 
Q 24.8125 -1.421875 18.96875 -0.25 
Q 13.140625 0.921875 6.890625 3.21875 
L 6.890625 13.375 
Q 12.890625 10.015625 18.65625 8.296875 
Q 24.421875 6.59375 29.984375 6.59375 
Q 38.421875 6.59375 43.015625 9.90625 
Q 47.609375 13.234375 47.609375 19.390625 
Q 47.609375 24.75 44.3125 27.78125 
Q 41.015625 30.8125 33.5 32.328125 
L 27.484375 33.5 
Q 16.453125 35.6875 11.515625 40.375 
Q 6.59375 45.0625 6.59375 53.421875 
Q 6.59375 63.09375 13.40625 68.65625 
Q 20.21875 74.21875 32.171875 74.21875 
Q 37.3125 74.21875 42.625 73.28125 
Q 47.953125 72.359375 53.515625 70.515625 
z
" id="DejaVuSans-83"/>
      <path d="M 18.3125 70.21875 
L 18.3125 54.6875 
L 36.8125 54.6875 
L 36.8125 47.703125 
L 18.3125 47.703125 
L 18.3125 18.015625 
Q 18.3125 11.328125 20.140625 9.421875 
Q 21.96875 7.515625 27.59375 7.515625 
L 36.8125 7.515625 
L 36.8125 0 
L 27.59375 0 
Q 17.1875 0 13.234375 3.875 
Q 9.28125 7.765625 9.28125 18.015625 
L 9.28125 47.703125 
L 2.6875 47.703125 
L 2.6875 54.6875 
L 9.28125 54.6875 
L 9.28125 70.21875 
z
" id="DejaVuSans-116"/>
      <path d="M 56.203125 29.59375 
L 56.203125 25.203125 
L 14.890625 25.203125 
Q 15.484375 15.921875 20.484375 11.0625 
Q 25.484375 6.203125 34.421875 6.203125 
Q 39.59375 6.203125 44.453125 7.46875 
Q 49.3125 8.734375 54.109375 11.28125 
L 54.109375 2.78125 
Q 49.265625 0.734375 44.1875 -0.34375 
Q 39.109375 -1.421875 33.890625 -1.421875 
Q 20.796875 -1.421875 13.15625 6.1875 
Q 5.515625 13.8125 5.515625 26.8125 
Q 5.515625 40.234375 12.765625 48.109375 
Q 20.015625 56 32.328125 56 
Q 43.359375 56 49.78125 48.890625 
Q 56.203125 41.796875 56.203125 29.59375 
z
M 47.21875 32.234375 
Q 47.125 39.59375 43.09375 43.984375 
Q 39.0625 48.390625 32.421875 48.390625 
Q 24.90625 48.390625 20.390625 44.140625 
Q 15.875 39.890625 15.1875 32.171875 
z
" id="DejaVuSans-101"/>
      <path d="M 18.109375 8.203125 
L 18.109375 -20.796875 
L 9.078125 -20.796875 
L 9.078125 54.6875 
L 18.109375 54.6875 
L 18.109375 46.390625 
Q 20.953125 51.265625 25.265625 53.625 
Q 29.59375 56 35.59375 56 
Q 45.5625 56 51.78125 48.09375 
Q 58.015625 40.1875 58.015625 27.296875 
Q 58.015625 14.40625 51.78125 6.484375 
Q 45.5625 -1.421875 35.59375 -1.421875 
Q 29.59375 -1.421875 25.265625 0.953125 
Q 20.953125 3.328125 18.109375 8.203125 
z
M 48.6875 27.296875 
Q 48.6875 37.203125 44.609375 42.84375 
Q 40.53125 48.484375 33.40625 48.484375 
Q 26.265625 48.484375 22.1875 42.84375 
Q 18.109375 37.203125 18.109375 27.296875 
Q 18.109375 17.390625 22.1875 11.75 
Q 26.265625 6.109375 33.40625 6.109375 
Q 40.53125 6.109375 44.609375 11.75 
Q 48.6875 17.390625 48.6875 27.296875 
z
" id="DejaVuSans-112"/>
     </defs>
     <g transform="translate(25.432812 188.517844)rotate(-90)scale(0.1 -0.1)">
      <use xlink:href="#DejaVuSans-83"/>
      <use x="63.476562" xlink:href="#DejaVuSans-116"/>
      <use x="102.685547" xlink:href="#DejaVuSans-101"/>
      <use x="164.208984" xlink:href="#DejaVuSans-112"/>
      <use x="227.685547" xlink:href="#DejaVuSans-115"/>
     </g>
    </g>
   </g>
   <g id="line2d_27">
    <path clip-path="url(#pe89b0958ac)" d="M 57.6 53.568 
L 173.21597 53.568 
L 173.864968 87.822159 
L 174.237091 53.568 
L 178.216732 53.568 
L 178.90344 126.358088 
L 180.186311 53.568 
L 181.185437 53.568 
L 181.185544 134.921628 
L 181.723867 57.84977 
L 182.166438 53.568 
L 183.7796 53.568 
L 183.779704 57.84977 
L 184.147898 53.568 
L 184.238729 117.794549 
L 185.145344 53.568 
L 188.148592 53.568 
L 188.516769 122.076319 
L 189.348608 53.568 
L 191.59474 53.568 
L 192.13914 62.13154 
L 193.292368 53.568 
L 195.447497 53.568 
L 196.33472 107.090124 
L 196.507737 64.272425 
L 197.580978 53.568 
L 198.200874 145.626053 
L 198.383606 62.13154 
L 198.558702 160.612248 
L 198.905885 53.568 
L 199.165835 147.766938 
L 199.705312 145.626053 
L 200.324194 59.990655 
L 200.956545 53.568 
L 201.220307 53.568 
L 202.144964 160.612248 
L 202.14498 53.568 
L 202.40698 167.034903 
L 202.496115 154.189593 
L 202.753429 72.835965 
L 204.096087 53.568 
L 204.282136 89.963044 
L 204.553776 53.568 
L 205.423905 85.681274 
L 205.774007 226.979681 
L 205.774037 53.568 
L 205.944879 122.076319 
L 205.944894 89.963044 
L 205.944943 167.034903 
L 206.11625 164.894018 
L 206.392003 158.471363 
L 206.647545 62.13154 
L 206.912661 53.568 
L 206.998531 149.907823 
L 207.638096 72.835965 
L 207.906909 117.794549 
L 207.994968 79.258619 
L 208.165506 145.626053 
L 208.875228 145.626053 
L 210.579025 156.330478 
L 210.792095 66.41331 
L 210.876482 177.739327 
L 211.067282 158.471363 
L 211.348189 64.272425 
L 211.435653 158.471363 
L 211.888323 162.753133 
L 212.804022 169.175788 
L 213.264835 104.949239 
L 214.144566 167.034903 
L 214.144582 164.894018 
L 215.112061 216.275257 
L 215.924943 156.330478 
L 216.011694 89.963044 
L 216.920122 62.13154 
L 217.642182 156.330478 
L 217.977605 156.330478 
L 218.06241 154.189593 
L 218.250326 85.681274 
L 218.693105 177.739327 
L 219.142349 158.471363 
L 219.492144 111.371894 
L 219.846126 149.907823 
L 221.318786 104.949239 
L 221.410856 145.626053 
L 221.59113 158.471363 
L 221.680327 173.457558 
L 222.390202 154.189593 
L 222.475159 231.261451 
L 222.558894 169.175788 
L 222.926039 175.598442 
L 223.466838 53.568 
L 223.734663 149.907823 
L 224.267583 59.990655 
L 224.358724 164.894018 
L 224.631821 100.667469 
L 224.81228 147.766938 
L 225.093695 147.766938 
L 225.183371 89.963044 
L 225.264495 164.894018 
L 225.264567 53.568 
L 225.804313 169.175788 
L 225.804331 167.034903 
L 226.168078 87.822159 
L 226.348516 122.076319 
L 226.51748 53.568 
L 226.517541 186.302867 
L 226.599977 89.963044 
L 227.052393 139.203398 
L 227.142313 167.034903 
L 227.513413 173.457558 
L 227.868937 162.753133 
L 228.231839 59.990655 
L 228.493035 224.838796 
L 228.589459 147.766938 
L 228.678311 164.894018 
L 228.85671 113.512779 
L 229.56554 203.429947 
L 229.747988 137.062513 
L 230.183246 164.894018 
L 230.183293 173.457558 
L 230.183309 53.568 
L 230.548125 98.526584 
L 230.730328 149.907823 
L 231.62909 154.189593 
L 232.181297 152.048708 
L 232.278904 175.598442 
L 232.729099 158.471363 
L 233.170717 126.358088 
L 233.259002 173.457558 
L 233.887507 167.034903 
L 233.887561 224.838796 
L 233.88764 160.612248 
L 234.341279 231.261451 
L 234.431297 154.189593 
L 234.97677 128.498973 
L 235.236785 156.330478 
L 236.322866 53.568 
L 236.597227 53.568 
L 236.597243 231.261451 
L 237.023643 143.485168 
L 237.023738 152.048708 
L 237.197514 188.443752 
L 237.380114 167.034903 
L 237.380233 169.175788 
L 238.475464 169.175788 
L 240.064375 160.612248 
L 240.149966 98.526584 
L 240.43065 53.568 
L 240.608879 214.134372 
L 240.698469 167.034903 
L 240.885497 154.189593 
L 241.612791 160.612248 
L 241.877973 53.568 
L 242.054921 164.894018 
L 242.690205 175.598442 
L 243.597642 167.034903 
L 244.137428 222.697912 
L 244.771548 169.175788 
L 245.770606 111.371894 
L 245.770673 139.203398 
L 246.044832 98.526584 
L 246.228006 160.612248 
L 246.423054 141.344283 
L 246.51337 167.034903 
L 246.692449 175.598442 
L 246.955673 66.41331 
L 247.13755 149.907823 
L 247.494804 149.907823 
L 247.583516 156.330478 
L 247.762753 132.780743 
L 248.033038 156.330478 
L 248.844307 53.568 
L 249.755126 162.753133 
L 249.933604 244.106761 
L 250.377661 141.344283 
L 250.742759 207.711717 
L 251.474422 156.330478 
L 252.36212 158.471363 
L 252.635381 164.894018 
L 252.815515 147.766938 
L 253.445151 154.189593 
L 253.713358 160.612248 
L 253.800461 171.316673 
L 253.980883 143.485168 
L 254.603061 233.402336 
L 255.563926 252.670301 
L 256.01278 100.667469 
L 256.464303 156.330478 
L 256.651999 160.612248 
L 256.744402 169.175788 
L 257.753214 132.780743 
L 257.940649 188.443752 
L 258.118071 126.358088 
L 258.66025 162.753133 
L 258.842679 87.822159 
L 259.479534 226.979681 
L 260.2155 152.048708 
L 260.215759 169.175788 
L 260.308809 149.907823 
L 260.870921 134.921628 
L 261.314624 83.540389 
L 262.135744 205.570832 
L 262.22705 122.076319 
L 262.761381 111.371894 
L 263.298878 126.358088 
L 263.93655 214.134372 
L 264.204261 149.907823 
L 264.476876 169.175788 
L 264.934856 173.457558 
L 265.742795 154.189593 
L 265.926126 218.416142 
L 266.102401 154.189593 
L 266.549594 186.302867 
L 266.549611 139.203398 
L 266.64281 164.894018 
L 267.451831 70.69508 
L 267.547468 171.316673 
L 268.172907 130.639858 
L 268.707687 169.175788 
L 270.062334 53.568 
L 271.020912 162.753133 
L 271.020947 154.189593 
L 271.725029 162.753133 
L 272.704237 145.626053 
L 273.13991 154.189593 
L 273.231046 169.175788 
L 273.231208 158.471363 
L 273.231255 53.568 
L 274.063794 109.231009 
L 274.429624 171.316673 
L 275.221363 274.07915 
L 275.589178 241.965876 
L 276.300845 158.471363 
L 276.394704 156.330478 
L 276.48105 164.894018 
L 276.837464 167.034903 
L 277.202952 107.090124 
L 277.748776 137.062513 
L 278.390707 149.907823 
L 278.390725 224.838796 
L 278.654845 53.568 
L 278.737755 152.048708 
L 280.634689 173.457558 
L 280.822276 53.568 
L 281.18415 149.907823 
L 281.458834 160.612248 
L 281.905493 145.626053 
L 281.987697 203.429947 
L 282.621808 164.894018 
L 282.8036 169.175788 
L 283.076192 137.062513 
L 284.894887 175.598442 
L 285.448882 205.570832 
L 285.887687 72.835965 
L 286.068476 141.344283 
L 286.158713 53.568 
L 286.243762 233.402336 
L 286.511768 173.457558 
L 286.9546 143.485168 
L 287.386759 164.894018 
L 288.819576 160.612248 
L 288.819788 94.244814 
L 288.911405 162.753133 
L 289.261776 224.838796 
L 289.26184 158.471363 
L 289.353075 160.612248 
L 289.626725 158.471363 
L 289.715183 119.935434 
L 290.699243 53.568 
L 291.235249 87.822159 
L 291.235265 158.471363 
L 291.494642 122.076319 
L 292.380215 160.612248 
L 292.557219 205.570832 
L 292.913136 81.399504 
L 293.003404 239.824991 
L 293.526721 175.598442 
L 293.962164 147.766938 
L 294.230963 158.471363 
L 294.508941 152.048708 
L 295.398489 152.048708 
L 295.398664 132.780743 
L 296.126681 169.175788 
L 296.387598 68.554195 
L 297.003815 229.120566 
L 297.185814 126.358088 
L 297.466175 220.557027 
L 299.222459 235.543221 
L 299.569633 190.584637 
L 300.393355 147.766938 
L 301.581049 214.134372 
L 301.846966 143.485168 
L 302.383982 164.894018 
L 303.427349 162.753133 
L 303.6049 119.935434 
L 303.881268 224.838796 
L 304.139804 164.894018 
L 304.598985 124.217204 
L 304.599115 162.753133 
L 304.693186 158.471363 
L 305.058252 57.84977 
L 305.05843 152.048708 
L 305.49873 229.120566 
L 305.580392 152.048708 
L 306.568323 53.568 
L 306.655018 143.485168 
L 306.830216 145.626053 
L 307.178107 141.344283 
L 307.59318 139.203398 
L 308.012293 160.612248 
L 308.344407 132.780743 
L 308.763763 128.498973 
L 309.010315 160.612248 
L 309.428163 117.794549 
L 309.428219 145.626053 
L 309.679225 147.766938 
L 310.013394 130.639858 
L 310.348101 137.062513 
L 311.183522 167.034903 
L 311.183643 53.568 
L 311.266293 156.330478 
L 311.844138 171.316673 
L 311.927247 145.626053 
L 312.009811 74.97685 
L 312.751337 169.175788 
L 312.75144 214.134372 
L 312.917844 158.471363 
L 312.917875 226.979681 
L 313.514825 98.526584 
L 313.928336 171.316673 
L 314.097271 117.794549 
L 314.09738 162.753133 
L 314.177883 143.485168 
L 314.264722 162.753133 
L 315.094546 224.838796 
L 315.676194 156.330478 
L 315.6763 263.374726 
L 316.257262 141.344283 
L 316.343145 224.838796 
L 316.511805 160.612248 
L 316.599464 167.034903 
L 316.928411 158.471363 
L 317.008382 171.316673 
L 317.171497 171.316673 
L 317.335303 124.217204 
L 317.670671 231.261451 
L 318.008537 100.667469 
L 318.09006 158.471363 
L 318.420837 171.316673 
L 318.671203 94.244814 
L 318.753845 137.062513 
L 318.918848 164.894018 
L 319.743768 137.062513 
L 319.994978 145.626053 
L 319.994994 158.471363 
L 320.161454 237.684106 
L 320.493553 263.374726 
L 320.994583 182.021097 
L 320.994599 98.526584 
L 321.240416 119.935434 
L 321.407356 83.540389 
L 321.493283 143.485168 
L 321.742035 162.753133 
L 322.414293 190.584637 
L 322.581886 224.838796 
L 323.16954 94.244814 
L 324.08904 139.203398 
L 324.426677 130.639858 
L 324.678085 162.753133 
L 325.018351 162.753133 
L 325.512706 214.134372 
L 325.51277 128.498973 
L 325.926083 239.824991 
L 326.092688 141.344283 
L 326.175523 229.120566 
L 326.175555 162.753133 
L 326.258932 173.457558 
L 326.844435 145.626053 
L 326.844471 203.429947 
L 327.353568 149.907823 
L 327.353616 211.993487 
L 327.519134 143.485168 
L 328.506906 173.457558 
L 328.592132 102.808354 
L 329.003262 162.753133 
L 329.003342 147.766938 
L 329.678371 158.471363 
L 329.766109 184.161982 
L 330.21438 139.203398 
L 330.307301 147.766938 
L 331.016811 177.739327 
L 331.376717 154.189593 
L 331.466887 188.443752 
L 331.555168 59.990655 
L 331.646303 226.979681 
L 331.747953 154.189593 
L 332.016817 175.598442 
L 332.181879 229.120566 
L 333.686904 81.399504 
L 334.12112 92.103929 
L 334.382347 156.330478 
L 334.902747 72.835965 
L 335.164218 143.485168 
L 335.25559 229.120566 
L 335.806622 152.048708 
L 336.776028 214.134372 
L 337.491834 147.766938 
L 337.764392 152.048708 
L 338.467045 226.979681 
L 338.467212 113.512779 
L 338.564377 145.626053 
L 339.386959 145.626053 
L 339.562921 154.189593 
L 340.097327 216.275257 
L 341.257284 156.330478 
L 341.355608 220.557027 
L 341.623778 141.344283 
L 342.138299 167.034903 
L 343.487745 145.626053 
L 344.106 164.894018 
L 344.563337 141.344283 
L 345.013567 241.965876 
L 345.201073 115.653664 
L 345.648073 134.921628 
L 345.731883 205.570832 
L 345.815531 124.217204 
L 345.995225 158.471363 
L 346.523976 152.048708 
L 346.95045 164.894018 
L 346.950467 145.626053 
L 347.299005 179.880212 
L 347.381039 154.189593 
L 347.643789 143.485168 
L 347.729931 177.739327 
L 348.175262 184.161982 
L 349.065546 233.402336 
L 349.233392 231.261451 
L 349.233407 164.894018 
L 350.122402 207.711717 
L 350.737488 126.358088 
L 351.090676 149.907823 
L 351.181609 231.261451 
L 353.257704 149.907823 
L 353.683473 147.766938 
L 353.861911 158.471363 
L 354.220546 229.120566 
L 354.855359 130.639858 
L 354.94776 66.41331 
L 355.132184 158.471363 
L 355.220523 70.69508 
L 355.587748 139.203398 
L 355.767748 119.935434 
L 357.11912 207.711717 
L 357.661994 85.681274 
L 358.84613 239.824991 
L 358.937729 229.120566 
L 359.287585 137.062513 
L 359.821745 147.766938 
L 359.822004 117.794549 
L 359.913035 220.557027 
L 359.913097 145.626053 
L 360.095687 284.783575 
L 360.095719 139.203398 
L 360.181696 233.402336 
L 360.269812 235.543221 
L 360.725747 126.358088 
L 362.246995 147.766938 
L 362.335125 145.626053 
L 362.790167 149.907823 
L 362.966051 128.498973 
L 363.57751 211.993487 
L 363.752891 145.626053 
L 364.193547 233.402336 
L 364.739156 145.626053 
L 365.182764 158.471363 
L 365.443408 271.938265 
L 365.622707 184.161982 
L 365.797884 229.120566 
L 365.89632 224.838796 
L 366.076261 231.261451 
L 366.954782 141.344283 
L 366.954968 231.261451 
L 367.403616 259.092956 
L 367.565867 203.429947 
L 368.448891 209.852602 
L 368.449137 94.244814 
L 368.623125 147.766938 
L 369.250585 83.540389 
L 369.6091 145.626053 
L 369.965387 154.189593 
L 370.506522 89.963044 
L 370.954519 220.557027 
L 371.039544 145.626053 
L 371.222038 233.402336 
L 371.396998 128.498973 
L 371.58085 216.275257 
L 372.21625 197.007292 
L 372.660587 256.952071 
L 373.286332 224.838796 
L 374.001873 141.344283 
L 374.185176 218.416142 
L 374.355769 239.824991 
L 374.534744 167.034903 
L 374.710194 156.330478 
L 376.312746 164.894018 
L 376.406904 244.106761 
L 377.289804 152.048708 
L 377.65575 226.979681 
L 377.909386 171.316673 
L 378.084748 267.656496 
L 378.441749 194.866407 
L 378.529394 128.498973 
L 378.713035 167.034903 
L 378.713053 154.189593 
L 379.071548 226.979681 
L 379.244213 220.557027 
L 379.244294 162.753133 
L 379.331685 237.684106 
L 379.598668 117.794549 
L 379.688387 284.783575 
L 379.868966 154.189593 
L 380.400491 250.529416 
L 380.756173 226.979681 
L 380.756238 154.189593 
L 380.839541 186.302867 
L 381.370173 134.921628 
L 381.370238 141.344283 
L 381.555881 233.402336 
L 381.556026 214.134372 
L 382.076096 286.92446 
L 382.426293 81.399504 
L 382.782509 222.697912 
L 382.965157 235.543221 
L 383.318455 104.949239 
L 383.943962 149.907823 
L 384.214707 160.612248 
L 384.562323 66.41331 
L 384.56235 207.711717 
L 384.562439 164.894018 
L 384.917046 115.653664 
L 385.449673 173.457558 
L 385.536169 235.543221 
L 385.812754 224.838796 
L 385.904196 158.471363 
L 386.896555 162.753133 
L 387.065073 173.457558 
L 387.418238 175.598442 
L 387.780508 62.13154 
L 389.031526 229.120566 
L 389.118859 194.866407 
L 389.210027 235.543221 
L 389.387811 156.330478 
L 389.387843 83.540389 
L 390.267884 235.543221 
L 390.440197 152.048708 
L 390.696602 87.822159 
L 391.049848 177.739327 
L 391.140601 158.471363 
L 391.853519 141.344283 
L 392.114756 167.034903 
L 392.297444 235.543221 
L 392.558809 203.429947 
L 393.425441 295.488 
L 393.508406 207.711717 
L 393.598186 235.543221 
L 393.775241 77.117735 
L 394.043823 104.949239 
L 394.307446 102.808354 
L 394.307573 171.316673 
L 395.196326 160.612248 
L 395.286717 244.106761 
L 395.471322 156.330478 
L 395.731497 167.034903 
L 395.816758 162.753133 
L 396.347031 244.106761 
L 396.347167 164.894018 
L 396.616938 248.388531 
L 397.24021 237.684106 
L 397.509959 239.824991 
L 397.85973 233.402336 
L 399.599559 167.034903 
L 399.772339 107.090124 
L 400.674425 132.780743 
L 400.935121 182.021097 
L 401.268547 167.034903 
L 401.268659 107.090124 
L 401.44461 194.866407 
L 401.629215 216.275257 
L 401.629232 109.231009 
L 402.154373 167.034903 
L 402.512833 224.838796 
L 402.970528 141.344283 
L 403.140601 145.626053 
L 403.410979 139.203398 
L 403.501348 154.189593 
L 403.501558 190.584637 
L 403.593145 162.753133 
L 403.766205 119.935434 
L 403.855675 139.203398 
L 404.034096 224.838796 
L 404.119561 156.330478 
L 404.205171 239.824991 
L 404.848879 158.471363 
L 404.934959 259.092956 
L 405.019876 83.540389 
L 405.191669 231.261451 
L 405.280302 111.371894 
L 405.461355 143.485168 
L 406.08199 218.416142 
L 406.351483 143.485168 
L 406.698925 175.598442 
L 406.791232 239.824991 
L 406.882631 132.780743 
L 407.068271 164.894018 
L 407.52717 199.148177 
L 408.326653 147.766938 
L 408.595101 143.485168 
L 408.595153 53.568 
L 408.853056 164.894018 
L 408.853077 122.076319 
L 408.853242 229.120566 
L 408.945299 226.979681 
L 409.118747 53.568 
L 409.563799 177.739327 
L 409.649845 239.824991 
L 409.734612 233.402336 
L 410.909999 226.979681 
L 413.0396 68.554195 
L 413.489921 218.416142 
L 413.850187 115.653664 
L 414.020932 132.780743 
L 414.72 226.979681 
L 414.72 226.979681 
" style="fill:none;stroke:#000000;stroke-linecap:square;stroke-width:0.8;"/>
   </g>
   <g id="patch_3">
    <path d="M 57.6 307.584 
L 57.6 41.472 
" style="fill:none;stroke:#000000;stroke-linecap:square;stroke-linejoin:miter;stroke-width:0.8;"/>
   </g>
   <g id="patch_4">
    <path d="M 414.72 307.584 
L 414.72 41.472 
" style="fill:none;stroke:#000000;stroke-linecap:square;stroke-linejoin:miter;stroke-width:0.8;"/>
   </g>
   <g id="patch_5">
    <path d="M 57.6 307.584 
L 414.72 307.584 
" style="fill:none;stroke:#000000;stroke-linecap:square;stroke-linejoin:miter;stroke-width:0.8;"/>
   </g>
   <g id="patch_6">
    <path d="M 57.6 41.472 
L 414.72 41.472 
" style="fill:none;stroke:#000000;stroke-linecap:square;stroke-linejoin:miter;stroke-width:0.8;"/>
   </g>
  </g>
  <g id="axes_2">
   <g id="matplotlib.axis_3">
    <g id="xtick_8">
     <g id="line2d_28">
      <defs>
       <path d="M 0 0 
L 0 -3.5 
" id="mf5e4816d2f" style="stroke:#000000;stroke-width:0.8;"/>
      </defs>
      <g>
       <use style="stroke:#000000;stroke-width:0.8;" x="57.6" xlink:href="#mf5e4816d2f" y="41.472"/>
      </g>
     </g>
    </g>
    <g id="xtick_9">
     <g id="line2d_29">
      <g>
       <use style="stroke:#000000;stroke-width:0.8;" x="129.778992" xlink:href="#mf5e4816d2f" y="41.472"/>
      </g>
     </g>
     <g id="text_16">
      <!-- 10.0K -->
      <defs>
       <path d="M 9.8125 72.90625 
L 19.671875 72.90625 
L 19.671875 42.09375 
L 52.390625 72.90625 
L 65.09375 72.90625 
L 28.90625 38.921875 
L 67.671875 0 
L 54.6875 0 
L 19.671875 35.109375 
L 19.671875 0 
L 9.8125 0 
z
" id="DejaVuSans-75"/>
      </defs>
      <g transform="translate(115.367274 32.392313)scale(0.1 -0.1)">
       <use xlink:href="#DejaVuSans-49"/>
       <use x="63.623047" xlink:href="#DejaVuSans-48"/>
       <use x="127.246094" xlink:href="#DejaVuSans-46"/>
       <use x="159.033203" xlink:href="#DejaVuSans-48"/>
       <use x="222.65625" xlink:href="#DejaVuSans-75"/>
      </g>
     </g>
    </g>
    <g id="xtick_10">
     <g id="line2d_30">
      <g>
       <use style="stroke:#000000;stroke-width:0.8;" x="201.957985" xlink:href="#mf5e4816d2f" y="41.472"/>
      </g>
     </g>
     <g id="text_17">
      <!-- 20.0K -->
      <g transform="translate(187.546266 32.392313)scale(0.1 -0.1)">
       <use xlink:href="#DejaVuSans-50"/>
       <use x="63.623047" xlink:href="#DejaVuSans-48"/>
       <use x="127.246094" xlink:href="#DejaVuSans-46"/>
       <use x="159.033203" xlink:href="#DejaVuSans-48"/>
       <use x="222.65625" xlink:href="#DejaVuSans-75"/>
      </g>
     </g>
    </g>
    <g id="xtick_11">
     <g id="line2d_31">
      <g>
       <use style="stroke:#000000;stroke-width:0.8;" x="274.136977" xlink:href="#mf5e4816d2f" y="41.472"/>
      </g>
     </g>
     <g id="text_18">
      <!-- 30.0K -->
      <defs>
       <path d="M 40.578125 39.3125 
Q 47.65625 37.796875 51.625 33 
Q 55.609375 28.21875 55.609375 21.1875 
Q 55.609375 10.40625 48.1875 4.484375 
Q 40.765625 -1.421875 27.09375 -1.421875 
Q 22.515625 -1.421875 17.65625 -0.515625 
Q 12.796875 0.390625 7.625 2.203125 
L 7.625 11.71875 
Q 11.71875 9.328125 16.59375 8.109375 
Q 21.484375 6.890625 26.8125 6.890625 
Q 36.078125 6.890625 40.9375 10.546875 
Q 45.796875 14.203125 45.796875 21.1875 
Q 45.796875 27.640625 41.28125 31.265625 
Q 36.765625 34.90625 28.71875 34.90625 
L 20.21875 34.90625 
L 20.21875 43.015625 
L 29.109375 43.015625 
Q 36.375 43.015625 40.234375 45.921875 
Q 44.09375 48.828125 44.09375 54.296875 
Q 44.09375 59.90625 40.109375 62.90625 
Q 36.140625 65.921875 28.71875 65.921875 
Q 24.65625 65.921875 20.015625 65.03125 
Q 15.375 64.15625 9.8125 62.3125 
L 9.8125 71.09375 
Q 15.4375 72.65625 20.34375 73.4375 
Q 25.25 74.21875 29.59375 74.21875 
Q 40.828125 74.21875 47.359375 69.109375 
Q 53.90625 64.015625 53.90625 55.328125 
Q 53.90625 49.265625 50.4375 45.09375 
Q 46.96875 40.921875 40.578125 39.3125 
z
" id="DejaVuSans-51"/>
      </defs>
      <g transform="translate(259.725258 32.392313)scale(0.1 -0.1)">
       <use xlink:href="#DejaVuSans-51"/>
       <use x="63.623047" xlink:href="#DejaVuSans-48"/>
       <use x="127.246094" xlink:href="#DejaVuSans-46"/>
       <use x="159.033203" xlink:href="#DejaVuSans-48"/>
       <use x="222.65625" xlink:href="#DejaVuSans-75"/>
      </g>
     </g>
    </g>
    <g id="xtick_12">
     <g id="line2d_32">
      <g>
       <use style="stroke:#000000;stroke-width:0.8;" x="346.315969" xlink:href="#mf5e4816d2f" y="41.472"/>
      </g>
     </g>
     <g id="text_19">
      <!-- 40.0K -->
      <g transform="translate(331.90425 32.392313)scale(0.1 -0.1)">
       <use xlink:href="#DejaVuSans-52"/>
       <use x="63.623047" xlink:href="#DejaVuSans-48"/>
       <use x="127.246094" xlink:href="#DejaVuSans-46"/>
       <use x="159.033203" xlink:href="#DejaVuSans-48"/>
       <use x="222.65625" xlink:href="#DejaVuSans-75"/>
      </g>
     </g>
    </g>
    <g id="text_20">
     <!-- Episodes -->
     <defs>
      <path d="M 9.8125 72.90625 
L 55.90625 72.90625 
L 55.90625 64.59375 
L 19.671875 64.59375 
L 19.671875 43.015625 
L 54.390625 43.015625 
L 54.390625 34.71875 
L 19.671875 34.71875 
L 19.671875 8.296875 
L 56.78125 8.296875 
L 56.78125 0 
L 9.8125 0 
z
" id="DejaVuSans-69"/>
      <path d="M 9.421875 54.6875 
L 18.40625 54.6875 
L 18.40625 0 
L 9.421875 0 
z
M 9.421875 75.984375 
L 18.40625 75.984375 
L 18.40625 64.59375 
L 9.421875 64.59375 
z
" id="DejaVuSans-105"/>
      <path d="M 45.40625 46.390625 
L 45.40625 75.984375 
L 54.390625 75.984375 
L 54.390625 0 
L 45.40625 0 
L 45.40625 8.203125 
Q 42.578125 3.328125 38.25 0.953125 
Q 33.9375 -1.421875 27.875 -1.421875 
Q 17.96875 -1.421875 11.734375 6.484375 
Q 5.515625 14.40625 5.515625 27.296875 
Q 5.515625 40.1875 11.734375 48.09375 
Q 17.96875 56 27.875 56 
Q 33.9375 56 38.25 53.625 
Q 42.578125 51.265625 45.40625 46.390625 
z
M 14.796875 27.296875 
Q 14.796875 17.390625 18.875 11.75 
Q 22.953125 6.109375 30.078125 6.109375 
Q 37.203125 6.109375 41.296875 11.75 
Q 45.40625 17.390625 45.40625 27.296875 
Q 45.40625 37.203125 41.296875 42.84375 
Q 37.203125 48.484375 30.078125 48.484375 
Q 22.953125 48.484375 18.875 42.84375 
Q 14.796875 37.203125 14.796875 27.296875 
z
" id="DejaVuSans-100"/>
     </defs>
     <g transform="translate(213.917812 20.793875)scale(0.1 -0.1)">
      <use xlink:href="#DejaVuSans-69"/>
      <use x="63.183594" xlink:href="#DejaVuSans-112"/>
      <use x="126.660156" xlink:href="#DejaVuSans-105"/>
      <use x="154.443359" xlink:href="#DejaVuSans-115"/>
      <use x="206.542969" xlink:href="#DejaVuSans-111"/>
      <use x="267.724609" xlink:href="#DejaVuSans-100"/>
      <use x="331.201172" xlink:href="#DejaVuSans-101"/>
      <use x="392.724609" xlink:href="#DejaVuSans-115"/>
     </g>
    </g>
   </g>
   <g id="patch_7">
    <path d="M 57.6 307.584 
L 57.6 41.472 
" style="fill:none;stroke:#000000;stroke-linecap:square;stroke-linejoin:miter;stroke-width:0.8;"/>
   </g>
   <g id="patch_8">
    <path d="M 414.72 307.584 
L 414.72 41.472 
" style="fill:none;stroke:#000000;stroke-linecap:square;stroke-linejoin:miter;stroke-width:0.8;"/>
   </g>
   <g id="patch_9">
    <path d="M 57.6 307.584 
L 414.72 307.584 
" style="fill:none;stroke:#000000;stroke-linecap:square;stroke-linejoin:miter;stroke-width:0.8;"/>
   </g>
   <g id="patch_10">
    <path d="M 57.6 41.472 
L 414.72 41.472 
" style="fill:none;stroke:#000000;stroke-linecap:square;stroke-linejoin:miter;stroke-width:0.8;"/>
   </g>
  </g>
 </g>
 <defs>
  <clipPath id="pe89b0958ac">
   <rect height="266.112" width="357.12" x="57.6" y="41.472"/>
  </clipPath>
 </defs>
</svg>
