<?xml version="1.0" encoding="utf-8" standalone="no"?>
<!DOCTYPE svg PUBLIC "-//W3C//DTD SVG 1.1//EN"
  "http://www.w3.org/Graphics/SVG/1.1/DTD/svg11.dtd">
<!-- Created with matplotlib (https://matplotlib.org/) -->
<svg height="345.6pt" version="1.1" viewBox="0 0 460.8 345.6" width="460.8pt" xmlns="http://www.w3.org/2000/svg" xmlns:xlink="http://www.w3.org/1999/xlink">
 <defs>
  <style type="text/css">
*{stroke-linecap:butt;stroke-linejoin:round;}
  </style>
 </defs>
 <g id="figure_1">
  <g id="patch_1">
   <path d="M 0 345.6 
L 460.8 345.6 
L 460.8 0 
L 0 0 
z
" style="fill:#ffffff;"/>
  </g>
  <g id="axes_1">
   <g id="patch_2">
    <path d="M 57.6 307.584 
L 414.72 307.584 
L 414.72 41.472 
L 57.6 41.472 
z
" style="fill:#ffffff;"/>
   </g>
   <g id="matplotlib.axis_1">
    <g id="xtick_1">
     <g id="line2d_1">
      <path clip-path="url(#p49a935a5ce)" d="M 57.6 307.584 
L 57.6 41.472 
" style="fill:none;stroke:#b0b0b0;stroke-linecap:square;stroke-width:0.8;"/>
     </g>
     <g id="line2d_2">
      <defs>
       <path d="M 0 0 
L 0 3.5 
" id="m02ef8f4681" style="stroke:#000000;stroke-width:0.8;"/>
      </defs>
      <g>
       <use style="stroke:#000000;stroke-width:0.8;" x="57.6" xlink:href="#m02ef8f4681" y="307.584"/>
      </g>
     </g>
     <g id="text_1">
      <!-- 0.0 -->
      <defs>
       <path d="M 31.78125 66.40625 
Q 24.171875 66.40625 20.328125 58.90625 
Q 16.5 51.421875 16.5 36.375 
Q 16.5 21.390625 20.328125 13.890625 
Q 24.171875 6.390625 31.78125 6.390625 
Q 39.453125 6.390625 43.28125 13.890625 
Q 47.125 21.390625 47.125 36.375 
Q 47.125 51.421875 43.28125 58.90625 
Q 39.453125 66.40625 31.78125 66.40625 
z
M 31.78125 74.21875 
Q 44.046875 74.21875 50.515625 64.515625 
Q 56.984375 54.828125 56.984375 36.375 
Q 56.984375 17.96875 50.515625 8.265625 
Q 44.046875 -1.421875 31.78125 -1.421875 
Q 19.53125 -1.421875 13.0625 8.265625 
Q 6.59375 17.96875 6.59375 36.375 
Q 6.59375 54.828125 13.0625 64.515625 
Q 19.53125 74.21875 31.78125 74.21875 
z
" id="DejaVuSans-48"/>
       <path d="M 10.6875 12.40625 
L 21 12.40625 
L 21 0 
L 10.6875 0 
z
" id="DejaVuSans-46"/>
      </defs>
      <g transform="translate(49.648438 322.182437)scale(0.1 -0.1)">
       <use xlink:href="#DejaVuSans-48"/>
       <use x="63.623047" xlink:href="#DejaVuSans-46"/>
       <use x="95.410156" xlink:href="#DejaVuSans-48"/>
      </g>
     </g>
    </g>
    <g id="xtick_2">
     <g id="line2d_3">
      <path clip-path="url(#p49a935a5ce)" d="M 100.226173 307.584 
L 100.226173 41.472 
" style="fill:none;stroke:#b0b0b0;stroke-linecap:square;stroke-width:0.8;"/>
     </g>
     <g id="line2d_4">
      <g>
       <use style="stroke:#000000;stroke-width:0.8;" x="100.226173" xlink:href="#m02ef8f4681" y="307.584"/>
      </g>
     </g>
     <g id="text_2">
      <!-- 0.5 -->
      <defs>
       <path d="M 10.796875 72.90625 
L 49.515625 72.90625 
L 49.515625 64.59375 
L 19.828125 64.59375 
L 19.828125 46.734375 
Q 21.96875 47.46875 24.109375 47.828125 
Q 26.265625 48.1875 28.421875 48.1875 
Q 40.625 48.1875 47.75 41.5 
Q 54.890625 34.8125 54.890625 23.390625 
Q 54.890625 11.625 47.5625 5.09375 
Q 40.234375 -1.421875 26.90625 -1.421875 
Q 22.3125 -1.421875 17.546875 -0.640625 
Q 12.796875 0.140625 7.71875 1.703125 
L 7.71875 11.625 
Q 12.109375 9.234375 16.796875 8.0625 
Q 21.484375 6.890625 26.703125 6.890625 
Q 35.15625 6.890625 40.078125 11.328125 
Q 45.015625 15.765625 45.015625 23.390625 
Q 45.015625 31 40.078125 35.4375 
Q 35.15625 39.890625 26.703125 39.890625 
Q 22.75 39.890625 18.8125 39.015625 
Q 14.890625 38.140625 10.796875 36.28125 
z
" id="DejaVuSans-53"/>
      </defs>
      <g transform="translate(92.27461 322.182437)scale(0.1 -0.1)">
       <use xlink:href="#DejaVuSans-48"/>
       <use x="63.623047" xlink:href="#DejaVuSans-46"/>
       <use x="95.410156" xlink:href="#DejaVuSans-53"/>
      </g>
     </g>
    </g>
    <g id="xtick_3">
     <g id="line2d_5">
      <path clip-path="url(#p49a935a5ce)" d="M 142.852346 307.584 
L 142.852346 41.472 
" style="fill:none;stroke:#b0b0b0;stroke-linecap:square;stroke-width:0.8;"/>
     </g>
     <g id="line2d_6">
      <g>
       <use style="stroke:#000000;stroke-width:0.8;" x="142.852346" xlink:href="#m02ef8f4681" y="307.584"/>
      </g>
     </g>
     <g id="text_3">
      <!-- 1.0 -->
      <defs>
       <path d="M 12.40625 8.296875 
L 28.515625 8.296875 
L 28.515625 63.921875 
L 10.984375 60.40625 
L 10.984375 69.390625 
L 28.421875 72.90625 
L 38.28125 72.90625 
L 38.28125 8.296875 
L 54.390625 8.296875 
L 54.390625 0 
L 12.40625 0 
z
" id="DejaVuSans-49"/>
      </defs>
      <g transform="translate(134.900783 322.182437)scale(0.1 -0.1)">
       <use xlink:href="#DejaVuSans-49"/>
       <use x="63.623047" xlink:href="#DejaVuSans-46"/>
       <use x="95.410156" xlink:href="#DejaVuSans-48"/>
      </g>
     </g>
    </g>
    <g id="xtick_4">
     <g id="line2d_7">
      <path clip-path="url(#p49a935a5ce)" d="M 185.478518 307.584 
L 185.478518 41.472 
" style="fill:none;stroke:#b0b0b0;stroke-linecap:square;stroke-width:0.8;"/>
     </g>
     <g id="line2d_8">
      <g>
       <use style="stroke:#000000;stroke-width:0.8;" x="185.478518" xlink:href="#m02ef8f4681" y="307.584"/>
      </g>
     </g>
     <g id="text_4">
      <!-- 1.5 -->
      <g transform="translate(177.526956 322.182437)scale(0.1 -0.1)">
       <use xlink:href="#DejaVuSans-49"/>
       <use x="63.623047" xlink:href="#DejaVuSans-46"/>
       <use x="95.410156" xlink:href="#DejaVuSans-53"/>
      </g>
     </g>
    </g>
    <g id="xtick_5">
     <g id="line2d_9">
      <path clip-path="url(#p49a935a5ce)" d="M 228.104691 307.584 
L 228.104691 41.472 
" style="fill:none;stroke:#b0b0b0;stroke-linecap:square;stroke-width:0.8;"/>
     </g>
     <g id="line2d_10">
      <g>
       <use style="stroke:#000000;stroke-width:0.8;" x="228.104691" xlink:href="#m02ef8f4681" y="307.584"/>
      </g>
     </g>
     <g id="text_5">
      <!-- 2.0 -->
      <defs>
       <path d="M 19.1875 8.296875 
L 53.609375 8.296875 
L 53.609375 0 
L 7.328125 0 
L 7.328125 8.296875 
Q 12.9375 14.109375 22.625 23.890625 
Q 32.328125 33.6875 34.8125 36.53125 
Q 39.546875 41.84375 41.421875 45.53125 
Q 43.3125 49.21875 43.3125 52.78125 
Q 43.3125 58.59375 39.234375 62.25 
Q 35.15625 65.921875 28.609375 65.921875 
Q 23.96875 65.921875 18.8125 64.3125 
Q 13.671875 62.703125 7.8125 59.421875 
L 7.8125 69.390625 
Q 13.765625 71.78125 18.9375 73 
Q 24.125 74.21875 28.421875 74.21875 
Q 39.75 74.21875 46.484375 68.546875 
Q 53.21875 62.890625 53.21875 53.421875 
Q 53.21875 48.921875 51.53125 44.890625 
Q 49.859375 40.875 45.40625 35.40625 
Q 44.1875 33.984375 37.640625 27.21875 
Q 31.109375 20.453125 19.1875 8.296875 
z
" id="DejaVuSans-50"/>
      </defs>
      <g transform="translate(220.153129 322.182437)scale(0.1 -0.1)">
       <use xlink:href="#DejaVuSans-50"/>
       <use x="63.623047" xlink:href="#DejaVuSans-46"/>
       <use x="95.410156" xlink:href="#DejaVuSans-48"/>
      </g>
     </g>
    </g>
    <g id="xtick_6">
     <g id="line2d_11">
      <path clip-path="url(#p49a935a5ce)" d="M 270.730864 307.584 
L 270.730864 41.472 
" style="fill:none;stroke:#b0b0b0;stroke-linecap:square;stroke-width:0.8;"/>
     </g>
     <g id="line2d_12">
      <g>
       <use style="stroke:#000000;stroke-width:0.8;" x="270.730864" xlink:href="#m02ef8f4681" y="307.584"/>
      </g>
     </g>
     <g id="text_6">
      <!-- 2.5 -->
      <g transform="translate(262.779302 322.182437)scale(0.1 -0.1)">
       <use xlink:href="#DejaVuSans-50"/>
       <use x="63.623047" xlink:href="#DejaVuSans-46"/>
       <use x="95.410156" xlink:href="#DejaVuSans-53"/>
      </g>
     </g>
    </g>
    <g id="xtick_7">
     <g id="line2d_13">
      <path clip-path="url(#p49a935a5ce)" d="M 313.357037 307.584 
L 313.357037 41.472 
" style="fill:none;stroke:#b0b0b0;stroke-linecap:square;stroke-width:0.8;"/>
     </g>
     <g id="line2d_14">
      <g>
       <use style="stroke:#000000;stroke-width:0.8;" x="313.357037" xlink:href="#m02ef8f4681" y="307.584"/>
      </g>
     </g>
     <g id="text_7">
      <!-- 3.0 -->
      <defs>
       <path d="M 40.578125 39.3125 
Q 47.65625 37.796875 51.625 33 
Q 55.609375 28.21875 55.609375 21.1875 
Q 55.609375 10.40625 48.1875 4.484375 
Q 40.765625 -1.421875 27.09375 -1.421875 
Q 22.515625 -1.421875 17.65625 -0.515625 
Q 12.796875 0.390625 7.625 2.203125 
L 7.625 11.71875 
Q 11.71875 9.328125 16.59375 8.109375 
Q 21.484375 6.890625 26.8125 6.890625 
Q 36.078125 6.890625 40.9375 10.546875 
Q 45.796875 14.203125 45.796875 21.1875 
Q 45.796875 27.640625 41.28125 31.265625 
Q 36.765625 34.90625 28.71875 34.90625 
L 20.21875 34.90625 
L 20.21875 43.015625 
L 29.109375 43.015625 
Q 36.375 43.015625 40.234375 45.921875 
Q 44.09375 48.828125 44.09375 54.296875 
Q 44.09375 59.90625 40.109375 62.90625 
Q 36.140625 65.921875 28.71875 65.921875 
Q 24.65625 65.921875 20.015625 65.03125 
Q 15.375 64.15625 9.8125 62.3125 
L 9.8125 71.09375 
Q 15.4375 72.65625 20.34375 73.4375 
Q 25.25 74.21875 29.59375 74.21875 
Q 40.828125 74.21875 47.359375 69.109375 
Q 53.90625 64.015625 53.90625 55.328125 
Q 53.90625 49.265625 50.4375 45.09375 
Q 46.96875 40.921875 40.578125 39.3125 
z
" id="DejaVuSans-51"/>
      </defs>
      <g transform="translate(305.405474 322.182437)scale(0.1 -0.1)">
       <use xlink:href="#DejaVuSans-51"/>
       <use x="63.623047" xlink:href="#DejaVuSans-46"/>
       <use x="95.410156" xlink:href="#DejaVuSans-48"/>
      </g>
     </g>
    </g>
    <g id="xtick_8">
     <g id="line2d_15">
      <path clip-path="url(#p49a935a5ce)" d="M 355.98321 307.584 
L 355.98321 41.472 
" style="fill:none;stroke:#b0b0b0;stroke-linecap:square;stroke-width:0.8;"/>
     </g>
     <g id="line2d_16">
      <g>
       <use style="stroke:#000000;stroke-width:0.8;" x="355.98321" xlink:href="#m02ef8f4681" y="307.584"/>
      </g>
     </g>
     <g id="text_8">
      <!-- 3.5 -->
      <g transform="translate(348.031647 322.182437)scale(0.1 -0.1)">
       <use xlink:href="#DejaVuSans-51"/>
       <use x="63.623047" xlink:href="#DejaVuSans-46"/>
       <use x="95.410156" xlink:href="#DejaVuSans-53"/>
      </g>
     </g>
    </g>
    <g id="xtick_9">
     <g id="line2d_17">
      <path clip-path="url(#p49a935a5ce)" d="M 398.609382 307.584 
L 398.609382 41.472 
" style="fill:none;stroke:#b0b0b0;stroke-linecap:square;stroke-width:0.8;"/>
     </g>
     <g id="line2d_18">
      <g>
       <use style="stroke:#000000;stroke-width:0.8;" x="398.609382" xlink:href="#m02ef8f4681" y="307.584"/>
      </g>
     </g>
     <g id="text_9">
      <!-- 4.0 -->
      <defs>
       <path d="M 37.796875 64.3125 
L 12.890625 25.390625 
L 37.796875 25.390625 
z
M 35.203125 72.90625 
L 47.609375 72.90625 
L 47.609375 25.390625 
L 58.015625 25.390625 
L 58.015625 17.1875 
L 47.609375 17.1875 
L 47.609375 0 
L 37.796875 0 
L 37.796875 17.1875 
L 4.890625 17.1875 
L 4.890625 26.703125 
z
" id="DejaVuSans-52"/>
      </defs>
      <g transform="translate(390.65782 322.182437)scale(0.1 -0.1)">
       <use xlink:href="#DejaVuSans-52"/>
       <use x="63.623047" xlink:href="#DejaVuSans-46"/>
       <use x="95.410156" xlink:href="#DejaVuSans-48"/>
      </g>
     </g>
    </g>
    <g id="text_10">
     <!-- Hours -->
     <defs>
      <path d="M 9.8125 72.90625 
L 19.671875 72.90625 
L 19.671875 43.015625 
L 55.515625 43.015625 
L 55.515625 72.90625 
L 65.375 72.90625 
L 65.375 0 
L 55.515625 0 
L 55.515625 34.71875 
L 19.671875 34.71875 
L 19.671875 0 
L 9.8125 0 
z
" id="DejaVuSans-72"/>
      <path d="M 30.609375 48.390625 
Q 23.390625 48.390625 19.1875 42.75 
Q 14.984375 37.109375 14.984375 27.296875 
Q 14.984375 17.484375 19.15625 11.84375 
Q 23.34375 6.203125 30.609375 6.203125 
Q 37.796875 6.203125 41.984375 11.859375 
Q 46.1875 17.53125 46.1875 27.296875 
Q 46.1875 37.015625 41.984375 42.703125 
Q 37.796875 48.390625 30.609375 48.390625 
z
M 30.609375 56 
Q 42.328125 56 49.015625 48.375 
Q 55.71875 40.765625 55.71875 27.296875 
Q 55.71875 13.875 49.015625 6.21875 
Q 42.328125 -1.421875 30.609375 -1.421875 
Q 18.84375 -1.421875 12.171875 6.21875 
Q 5.515625 13.875 5.515625 27.296875 
Q 5.515625 40.765625 12.171875 48.375 
Q 18.84375 56 30.609375 56 
z
" id="DejaVuSans-111"/>
      <path d="M 8.5 21.578125 
L 8.5 54.6875 
L 17.484375 54.6875 
L 17.484375 21.921875 
Q 17.484375 14.15625 20.5 10.265625 
Q 23.53125 6.390625 29.59375 6.390625 
Q 36.859375 6.390625 41.078125 11.03125 
Q 45.3125 15.671875 45.3125 23.6875 
L 45.3125 54.6875 
L 54.296875 54.6875 
L 54.296875 0 
L 45.3125 0 
L 45.3125 8.40625 
Q 42.046875 3.421875 37.71875 1 
Q 33.40625 -1.421875 27.6875 -1.421875 
Q 18.265625 -1.421875 13.375 4.4375 
Q 8.5 10.296875 8.5 21.578125 
z
M 31.109375 56 
z
" id="DejaVuSans-117"/>
      <path d="M 41.109375 46.296875 
Q 39.59375 47.171875 37.8125 47.578125 
Q 36.03125 48 33.890625 48 
Q 26.265625 48 22.1875 43.046875 
Q 18.109375 38.09375 18.109375 28.8125 
L 18.109375 0 
L 9.078125 0 
L 9.078125 54.6875 
L 18.109375 54.6875 
L 18.109375 46.1875 
Q 20.953125 51.171875 25.484375 53.578125 
Q 30.03125 56 36.53125 56 
Q 37.453125 56 38.578125 55.875 
Q 39.703125 55.765625 41.0625 55.515625 
z
" id="DejaVuSans-114"/>
      <path d="M 44.28125 53.078125 
L 44.28125 44.578125 
Q 40.484375 46.53125 36.375 47.5 
Q 32.28125 48.484375 27.875 48.484375 
Q 21.1875 48.484375 17.84375 46.4375 
Q 14.5 44.390625 14.5 40.28125 
Q 14.5 37.15625 16.890625 35.375 
Q 19.28125 33.59375 26.515625 31.984375 
L 29.59375 31.296875 
Q 39.15625 29.25 43.1875 25.515625 
Q 47.21875 21.78125 47.21875 15.09375 
Q 47.21875 7.46875 41.1875 3.015625 
Q 35.15625 -1.421875 24.609375 -1.421875 
Q 20.21875 -1.421875 15.453125 -0.5625 
Q 10.6875 0.296875 5.421875 2 
L 5.421875 11.28125 
Q 10.40625 8.6875 15.234375 7.390625 
Q 20.0625 6.109375 24.8125 6.109375 
Q 31.15625 6.109375 34.5625 8.28125 
Q 37.984375 10.453125 37.984375 14.40625 
Q 37.984375 18.0625 35.515625 20.015625 
Q 33.0625 21.96875 24.703125 23.78125 
L 21.578125 24.515625 
Q 13.234375 26.265625 9.515625 29.90625 
Q 5.8125 33.546875 5.8125 39.890625 
Q 5.8125 47.609375 11.28125 51.796875 
Q 16.75 56 26.8125 56 
Q 31.78125 56 36.171875 55.265625 
Q 40.578125 54.546875 44.28125 53.078125 
z
" id="DejaVuSans-115"/>
     </defs>
     <g transform="translate(221.511562 335.860562)scale(0.1 -0.1)">
      <use xlink:href="#DejaVuSans-72"/>
      <use x="75.195312" xlink:href="#DejaVuSans-111"/>
      <use x="136.376953" xlink:href="#DejaVuSans-117"/>
      <use x="199.755859" xlink:href="#DejaVuSans-114"/>
      <use x="240.869141" xlink:href="#DejaVuSans-115"/>
     </g>
    </g>
   </g>
   <g id="matplotlib.axis_2">
    <g id="ytick_1">
     <g id="line2d_19">
      <path clip-path="url(#p49a935a5ce)" d="M 57.6 296.280594 
L 414.72 296.280594 
" style="fill:none;stroke:#b0b0b0;stroke-linecap:square;stroke-width:0.8;"/>
     </g>
     <g id="line2d_20">
      <defs>
       <path d="M 0 0 
L -3.5 0 
" id="m8dd39b3c08" style="stroke:#000000;stroke-width:0.8;"/>
      </defs>
      <g>
       <use style="stroke:#000000;stroke-width:0.8;" x="57.6" xlink:href="#m8dd39b3c08" y="296.280594"/>
      </g>
     </g>
     <g id="text_11">
      <!-- 0 -->
      <g transform="translate(44.2375 300.079812)scale(0.1 -0.1)">
       <use xlink:href="#DejaVuSans-48"/>
      </g>
     </g>
    </g>
    <g id="ytick_2">
     <g id="line2d_21">
      <path clip-path="url(#p49a935a5ce)" d="M 57.6 243.546979 
L 414.72 243.546979 
" style="fill:none;stroke:#b0b0b0;stroke-linecap:square;stroke-width:0.8;"/>
     </g>
     <g id="line2d_22">
      <g>
       <use style="stroke:#000000;stroke-width:0.8;" x="57.6" xlink:href="#m8dd39b3c08" y="243.546979"/>
      </g>
     </g>
     <g id="text_12">
      <!-- 100 -->
      <g transform="translate(31.5125 247.346198)scale(0.1 -0.1)">
       <use xlink:href="#DejaVuSans-49"/>
       <use x="63.623047" xlink:href="#DejaVuSans-48"/>
       <use x="127.246094" xlink:href="#DejaVuSans-48"/>
      </g>
     </g>
    </g>
    <g id="ytick_3">
     <g id="line2d_23">
      <path clip-path="url(#p49a935a5ce)" d="M 57.6 190.813364 
L 414.72 190.813364 
" style="fill:none;stroke:#b0b0b0;stroke-linecap:square;stroke-width:0.8;"/>
     </g>
     <g id="line2d_24">
      <g>
       <use style="stroke:#000000;stroke-width:0.8;" x="57.6" xlink:href="#m8dd39b3c08" y="190.813364"/>
      </g>
     </g>
     <g id="text_13">
      <!-- 200 -->
      <g transform="translate(31.5125 194.612583)scale(0.1 -0.1)">
       <use xlink:href="#DejaVuSans-50"/>
       <use x="63.623047" xlink:href="#DejaVuSans-48"/>
       <use x="127.246094" xlink:href="#DejaVuSans-48"/>
      </g>
     </g>
    </g>
    <g id="ytick_4">
     <g id="line2d_25">
      <path clip-path="url(#p49a935a5ce)" d="M 57.6 138.079749 
L 414.72 138.079749 
" style="fill:none;stroke:#b0b0b0;stroke-linecap:square;stroke-width:0.8;"/>
     </g>
     <g id="line2d_26">
      <g>
       <use style="stroke:#000000;stroke-width:0.8;" x="57.6" xlink:href="#m8dd39b3c08" y="138.079749"/>
      </g>
     </g>
     <g id="text_14">
      <!-- 300 -->
      <g transform="translate(31.5125 141.878968)scale(0.1 -0.1)">
       <use xlink:href="#DejaVuSans-51"/>
       <use x="63.623047" xlink:href="#DejaVuSans-48"/>
       <use x="127.246094" xlink:href="#DejaVuSans-48"/>
      </g>
     </g>
    </g>
    <g id="ytick_5">
     <g id="line2d_27">
      <path clip-path="url(#p49a935a5ce)" d="M 57.6 85.346134 
L 414.72 85.346134 
" style="fill:none;stroke:#b0b0b0;stroke-linecap:square;stroke-width:0.8;"/>
     </g>
     <g id="line2d_28">
      <g>
       <use style="stroke:#000000;stroke-width:0.8;" x="57.6" xlink:href="#m8dd39b3c08" y="85.346134"/>
      </g>
     </g>
     <g id="text_15">
      <!-- 400 -->
      <g transform="translate(31.5125 89.145353)scale(0.1 -0.1)">
       <use xlink:href="#DejaVuSans-52"/>
       <use x="63.623047" xlink:href="#DejaVuSans-48"/>
       <use x="127.246094" xlink:href="#DejaVuSans-48"/>
      </g>
     </g>
    </g>
    <g id="text_16">
     <!-- Loss -->
     <defs>
      <path d="M 9.8125 72.90625 
L 19.671875 72.90625 
L 19.671875 8.296875 
L 55.171875 8.296875 
L 55.171875 0 
L 9.8125 0 
z
" id="DejaVuSans-76"/>
     </defs>
     <g transform="translate(25.432812 185.581906)rotate(-90)scale(0.1 -0.1)">
      <use xlink:href="#DejaVuSans-76"/>
      <use x="55.697266" xlink:href="#DejaVuSans-111"/>
      <use x="116.878906" xlink:href="#DejaVuSans-115"/>
      <use x="168.978516" xlink:href="#DejaVuSans-115"/>
     </g>
    </g>
   </g>
   <g id="line2d_29">
    <path clip-path="url(#p49a935a5ce)" d="M 57.6 244.17031 
L 57.740471 252.179006 
L 58.409838 257.52475 
L 58.742663 284.585283 
L 58.874324 226.071349 
L 59.237265 232.699936 
L 59.362227 280.603459 
L 59.464832 181.976179 
L 59.972707 262.606617 
L 61.426705 192.972195 
L 61.888254 232.077707 
L 62.12567 114.357508 
L 62.346576 130.839273 
L 62.459056 254.275167 
L 62.714715 195.165834 
L 63.441886 214.205135 
L 63.561902 249.15312 
L 63.669138 122.488202 
L 63.810527 242.168929 
L 63.91801 199.020129 
L 64.884452 183.601509 
L 65.24355 265.195254 
L 65.609189 174.341947 
L 65.712038 210.522609 
L 65.838758 200.135738 
L 65.979518 265.116227 
L 66.559528 205.302451 
L 67.671729 258.770885 
L 68.438614 118.877764 
L 69.384757 275.860715 
L 69.885189 172.690255 
L 70.728329 258.476829 
L 71.07214 253.165529 
L 71.334264 257.919765 
L 72.262949 187.162284 
L 72.654497 233.34669 
L 72.749354 140.242313 
L 73.793424 260.364758 
L 74.050724 164.686005 
L 74.155477 240.685696 
L 74.279383 214.926593 
L 75.002156 251.229224 
L 75.587528 158.105825 
L 75.83608 172.012039 
L 75.972508 232.457985 
L 76.462362 183.803775 
L 77.103621 277.152063 
L 77.221684 220.712678 
L 77.593055 198.376529 
L 78.267055 164.524914 
L 78.390691 151.187226 
L 78.613453 244.031314 
L 78.952213 196.202008 
L 79.172476 265.014056 
L 79.285842 255.756525 
L 79.515362 160.787695 
L 79.764576 148.598293 
L 79.860653 165.022011 
L 80.68867 233.287448 
L 81.593601 253.406103 
L 81.696759 280.441239 
L 81.797072 278.113388 
L 82.243478 170.268183 
L 83.510265 266.284067 
L 83.75346 251.302548 
L 84.218996 207.000739 
L 84.573804 240.160516 
L 84.698175 206.339236 
L 84.782525 98.518192 
L 85.144236 249.784831 
L 86.613703 102.871242 
L 87.588049 215.638975 
L 87.83693 165.336396 
L 87.952553 278.942468 
L 88.233739 279.152034 
L 88.726878 205.948972 
L 89.239043 105.746663 
L 89.462218 237.961751 
L 90.063173 152.208393 
L 91.762497 219.347451 
L 92.378792 226.300626 
L 92.50109 222.676711 
L 92.973944 181.521148 
L 93.102897 276.854813 
L 93.540269 171.271704 
L 93.661248 238.839231 
L 93.880825 236.624465 
L 94.216994 280.50413 
L 94.808351 218.681055 
L 95.04914 168.330768 
L 95.626616 145.775207 
L 95.743295 168.888464 
L 95.836068 279.538046 
L 96.162703 269.579546 
L 97.268475 142.101637 
L 97.503644 213.700192 
L 98.272989 53.568 
L 98.931203 236.2278 
L 99.067526 58.697216 
L 99.737294 94.926922 
L 100.104301 232.853001 
L 100.539124 242.902272 
L 100.990196 81.828023 
L 101.286721 226.409359 
L 101.775844 172.87065 
L 102.045187 240.530116 
L 102.288727 187.135215 
L 102.895236 261.225703 
L 103.502118 246.120293 
L 103.63431 265.348005 
L 103.762642 250.28497 
L 105.589797 200.876484 
L 106.44632 111.728439 
L 107.128596 208.666206 
L 107.242879 195.367198 
L 107.4707 267.83606 
L 107.687205 264.441091 
L 108.211703 137.731898 
L 109.305686 242.393495 
L 109.56033 218.248627 
L 109.691422 147.732119 
L 110.052138 142.455667 
L 110.760965 189.92593 
L 111.666981 239.494965 
L 111.79724 214.056226 
L 112.148776 190.147676 
L 112.246913 114.408748 
L 113.34069 145.737308 
L 113.465045 228.648775 
L 114.800667 236.954681 
L 115.160445 256.162733 
L 115.284944 279.308146 
L 115.551807 201.318953 
L 115.788906 263.212793 
L 117.486965 231.386721 
L 118.102664 227.838676 
L 118.361141 204.914609 
L 118.710273 216.995576 
L 118.945763 215.213017 
L 119.551978 219.895587 
L 119.654843 176.943174 
L 120.359014 233.05558 
L 120.582846 202.218263 
L 120.714818 99.103592 
L 120.95033 238.413341 
L 121.079104 246.312846 
L 121.440452 156.083834 
L 121.701793 277.874065 
L 122.357545 268.718992 
L 122.485216 154.843673 
L 123.611946 236.709979 
L 123.859272 279.428691 
L 124.29546 273.469759 
L 124.4301 203.769228 
L 124.528583 233.178096 
L 125.02861 189.2051 
L 125.508978 174.409602 
L 125.627108 250.943939 
L 125.989346 93.310281 
L 126.205099 277.479043 
L 126.605868 155.582263 
L 126.740014 240.915295 
L 126.856874 175.267295 
L 127.091231 194.569773 
L 127.228568 228.463955 
L 128.002685 257.799132 
L 128.487575 240.179856 
L 128.914717 272.49464 
L 129.221549 258.894254 
L 130.077194 212.661854 
L 130.36305 129.372088 
L 131.023152 252.962217 
L 131.593971 157.378678 
L 131.70122 220.971325 
L 132.006541 231.237929 
L 133.603934 267.160107 
L 134.562459 226.717226 
L 134.707818 228.377455 
L 135.135632 134.623065 
L 135.264527 235.965282 
L 135.420165 210.488162 
L 135.6804 229.822439 
L 136.122331 237.465454 
L 136.818232 198.198733 
L 137.315464 271.757678 
L 137.731981 250.61785 
L 138.320705 269.44384 
L 138.689437 213.880997 
L 138.794769 244.410643 
L 138.925289 178.197609 
L 139.065983 195.377321 
L 139.166617 228.626663 
L 139.573675 277.449961 
L 139.703848 208.6879 
L 140.136984 238.373865 
L 140.300024 186.479151 
L 140.421813 207.749137 
L 140.718857 216.322775 
L 140.975848 203.241072 
L 141.135373 255.789705 
L 142.130766 210.682388 
L 142.543459 230.845368 
L 143.050031 244.15365 
L 143.412724 189.554077 
L 143.652648 242.522618 
L 143.915215 258.723942 
L 144.4423 260.244893 
L 144.917953 272.71051 
L 145.344123 249.424018 
L 145.428383 270.19825 
L 145.547852 199.703656 
L 145.640613 274.603802 
L 146.423147 192.772778 
L 147.204751 254.339462 
L 147.463511 233.905593 
L 147.558322 240.756944 
L 148.042655 237.930635 
L 148.410156 268.453312 
L 148.534215 188.920865 
L 148.873464 187.074118 
L 148.974091 263.884618 
L 149.107331 267.500356 
L 149.322573 213.440217 
L 149.559327 274.684023 
L 150.315897 274.55718 
L 150.670308 273.227408 
L 150.81667 222.106543 
L 151.184512 215.226495 
L 151.336227 252.928016 
L 151.45137 251.716235 
L 151.707895 214.225171 
L 151.811729 267.536288 
L 152.536895 236.209003 
L 153.057213 260.886627 
L 153.203491 275.407037 
L 153.436351 245.70315 
L 153.666279 275.782219 
L 153.921395 261.383088 
L 154.153255 274.367961 
L 154.254263 270.157487 
L 154.386341 247.476597 
L 154.972534 277.011316 
L 155.252951 280.593464 
L 155.601132 282.251789 
L 155.836406 279.803556 
L 155.965207 280.323526 
L 156.066489 283.675237 
L 156.778301 275.428905 
L 156.924816 248.647441 
L 157.167176 277.086533 
L 157.536248 265.348685 
L 158.024169 268.482352 
L 158.355478 284.182728 
L 158.751402 273.439512 
L 158.85282 279.187784 
L 159.382554 285.244414 
L 159.620786 286.819015 
L 160.200439 285.370942 
L 160.561988 280.929392 
L 160.869678 283.087912 
L 162.742142 284.73524 
L 163.278103 290.128289 
L 163.514121 288.759583 
L 163.657105 291.960362 
L 164.126831 290.048028 
L 164.38528 293.468165 
L 164.483978 292.006382 
L 164.826401 289.50759 
L 165.064983 289.238121 
L 165.297872 285.242034 
L 165.658064 289.517149 
L 165.902857 289.368153 
L 166.039336 290.494943 
L 166.277702 291.49387 
L 166.759347 290.295548 
L 167.237338 292.318641 
L 168.083515 291.214767 
L 168.202255 288.209598 
L 168.353391 291.308556 
L 168.490808 285.363566 
L 169.088413 291.648679 
L 169.316699 291.306506 
L 169.649187 292.200988 
L 169.791837 291.261875 
L 169.914855 289.18911 
L 170.021744 291.784393 
L 170.944896 288.601589 
L 171.069963 287.732668 
L 171.443773 294.388092 
L 172.321125 289.540782 
L 172.756929 290.099712 
L 173.810779 289.717066 
L 174.215193 293.672165 
L 174.376692 289.440869 
L 174.498193 294.273744 
L 174.903791 289.826402 
L 175.054505 293.0575 
L 175.302387 290.360132 
L 175.545461 289.445039 
L 176.201959 293.860642 
L 176.30971 291.380352 
L 176.808603 292.340888 
L 176.911899 289.711815 
L 177.056941 293.148939 
L 177.174158 292.616509 
L 177.516218 292.344935 
L 177.811864 293.409588 
L 178.197645 288.746593 
L 178.337033 292.722454 
L 179.347142 293.335729 
L 179.816106 290.291685 
L 180.052983 291.666352 
L 180.294883 286.458355 
L 180.429843 290.225832 
L 180.816226 290.761027 
L 181.190557 291.817181 
L 181.321209 293.191507 
L 181.43269 292.467116 
L 181.955576 293.335682 
L 182.891161 292.190596 
L 183.156782 292.727354 
L 183.377994 292.041285 
L 183.785135 294.571663 
L 184.170014 287.8688 
L 184.438735 292.927213 
L 184.717783 286.263318 
L 185.330466 294.526005 
L 186.194986 288.465106 
L 186.332088 294.115053 
L 186.900112 292.909551 
L 187.749401 292.415652 
L 187.968329 289.101355 
L 188.186973 292.895942 
L 188.688126 293.691208 
L 189.448628 294.362466 
L 190.018704 292.883765 
L 190.145249 291.163702 
L 190.24691 293.867258 
L 191.093949 289.026695 
L 191.197842 292.858711 
L 191.915063 292.00087 
L 192.364591 293.380501 
L 192.458165 288.008885 
L 192.575833 293.909525 
L 193.637134 294.212628 
L 193.88546 293.930201 
L 194.242186 292.725627 
L 194.963655 294.158759 
L 195.085179 293.48048 
L 195.55534 292.655381 
L 195.889148 291.210893 
L 195.981439 293.623707 
L 196.12118 291.812759 
L 196.497377 290.033795 
L 197.780676 288.798945 
L 198.141623 293.324399 
L 198.505099 290.556852 
L 198.613314 292.576858 
L 198.751045 289.565045 
L 199.125944 290.911118 
L 199.268357 290.912208 
L 199.364866 291.823404 
L 201.187319 294.769723 
L 201.522214 292.924875 
L 201.878663 293.327921 
L 202.124204 291.54048 
L 202.247049 292.399651 
L 202.59843 293.310532 
L 202.961421 290.955297 
L 203.082906 291.038309 
L 203.344215 292.90064 
L 203.580025 292.778051 
L 203.849661 291.765232 
L 204.079129 293.265285 
L 204.437044 290.81165 
L 204.678886 291.852559 
L 204.917973 292.238991 
L 205.133432 292.923191 
L 205.405701 292.653451 
L 205.62871 291.184057 
L 206.904418 291.670115 
L 207.412216 291.552695 
L 207.890064 284.855963 
L 208.118263 291.81766 
L 208.346331 290.715576 
L 208.696285 290.783174 
L 209.026626 292.491831 
L 209.278864 289.563317 
L 209.682348 293.461835 
L 210.432788 289.262807 
L 210.66887 292.004627 
L 210.893388 291.208797 
L 211.013741 288.877509 
L 211.393764 288.493448 
L 211.532105 293.691947 
L 211.659804 293.724562 
L 212.028771 293.946753 
L 212.980718 295.42063 
L 213.579179 292.198897 
L 213.817175 292.504533 
L 214.521554 292.566002 
L 214.987247 292.952743 
L 215.097245 292.852326 
L 215.199408 292.441493 
L 215.321996 291.018451 
L 215.552595 291.232945 
L 216.011796 293.774694 
L 217.224134 290.237921 
L 217.452291 290.046957 
L 217.926186 292.836199 
L 218.382751 293.653144 
L 218.998874 289.376757 
L 219.11945 293.466627 
L 219.251062 291.892251 
L 219.59142 291.730151 
L 219.893684 292.496388 
L 220.042728 294.079432 
L 220.174272 282.652805 
L 220.283318 292.805937 
L 220.430468 294.105603 
L 221.15312 291.268279 
L 221.783925 294.263099 
L 221.911372 293.397747 
L 222.491923 293.080874 
L 222.961767 293.509512 
L 223.225971 294.518914 
L 223.784566 292.711625 
L 224.278751 292.682904 
L 225.114437 293.26882 
L 225.353263 291.644011 
L 225.702481 291.406548 
L 225.950432 292.185774 
L 226.049595 293.336364 
L 226.406823 293.354359 
L 226.522621 293.488649 
L 226.751718 290.253223 
L 226.865433 294.146179 
L 227.223427 291.337222 
L 229.409961 290.25267 
L 229.57038 294.215001 
L 229.672916 292.057971 
L 230.360758 293.338979 
L 230.744079 293.158105 
L 231.267559 294.299593 
L 231.507459 292.635395 
L 232.015566 290.898421 
L 232.122467 292.783698 
L 232.264051 292.615073 
L 232.495629 292.958353 
L 232.716608 292.21636 
L 233.000274 294.969055 
L 233.260587 294.308518 
L 234.266315 293.441662 
L 234.911968 291.361274 
L 235.033026 288.464883 
L 236.226499 294.03544 
L 236.331145 293.896039 
L 237.74272 292.359869 
L 238.269804 292.518862 
L 238.413142 293.83686 
L 238.834109 292.750987 
L 238.955313 291.066558 
L 239.361525 290.321856 
L 239.637398 292.818184 
L 239.787143 292.734389 
L 239.901341 294.595318 
L 240.787377 292.226452 
L 240.924981 293.716465 
L 241.041992 291.516429 
L 241.196015 294.446111 
L 241.580637 293.599415 
L 241.829336 292.716102 
L 241.974334 293.029473 
L 242.089078 290.00369 
L 243.075562 290.774906 
L 243.709784 290.964472 
L 243.817132 293.463513 
L 244.169189 293.349612 
L 245.052985 291.551006 
L 245.312153 294.041113 
L 246.67465 293.243352 
L 247.423666 291.630969 
L 247.683469 293.129109 
L 247.80874 292.353459 
L 248.49835 286.117075 
L 248.607503 291.706429 
L 249.35123 291.690665 
L 249.504862 292.829082 
L 250.60064 291.942282 
L 251.068601 289.720303 
L 251.285576 292.983891 
L 251.773185 292.829748 
L 252.812426 294.38654 
L 253.078365 290.071945 
L 253.500025 290.943189 
L 253.746112 293.504025 
L 253.891791 289.100639 
L 254.357479 294.208524 
L 254.491575 294.2603 
L 254.83611 292.991883 
L 255.456533 288.385665 
L 255.676711 293.006346 
L 256.175168 291.808044 
L 256.444446 294.283814 
L 256.723616 294.191191 
L 257.008463 290.165147 
L 257.280535 292.837471 
L 258.004773 291.849897 
L 258.417347 293.696294 
L 258.697069 294.349942 
L 259.144923 294.245617 
L 259.56091 292.840602 
L 260.158178 292.431361 
L 260.620123 294.566629 
L 261.31971 291.586804 
L 261.488026 293.426719 
L 262.48339 293.688092 
L 262.743091 292.36224 
L 263.001424 289.31991 
L 263.453831 293.616967 
L 263.577979 289.518678 
L 264.369364 293.514443 
L 264.515391 291.63286 
L 265.083899 293.613039 
L 265.637535 291.918768 
L 266.067654 293.155588 
L 266.209083 291.718326 
L 266.332855 294.731604 
L 266.472231 292.882047 
L 266.722939 292.933252 
L 267.167213 294.126164 
L 268.180512 294.132572 
L 268.304223 293.327834 
L 268.937481 294.974628 
L 269.366335 293.432553 
L 269.511868 294.729933 
L 271.14886 291.365329 
L 271.387809 293.947093 
L 271.518394 294.136635 
L 271.753735 292.620276 
L 272.365668 293.732487 
L 272.49225 293.58226 
L 272.706736 291.270296 
L 272.832099 292.672199 
L 272.952668 292.370159 
L 273.258025 294.87714 
L 273.596457 292.481953 
L 273.724253 292.569046 
L 274.758893 293.767337 
L 275.090564 294.53561 
L 276.130018 294.215053 
L 276.842007 293.120867 
L 276.968941 293.327844 
L 277.667819 293.995517 
L 277.800523 293.928052 
L 277.942234 294.12042 
L 278.146286 292.508808 
L 278.377595 293.004373 
L 278.894649 291.897087 
L 279.60124 291.881781 
L 279.690359 292.69368 
L 280.57241 294.892673 
L 280.693153 291.29509 
L 281.028409 291.843303 
L 281.412677 292.867116 
L 281.880151 291.30493 
L 282.127445 291.787981 
L 282.574709 293.911005 
L 283.271439 293.597371 
L 283.728769 294.083643 
L 283.867166 293.470204 
L 284.221177 292.788909 
L 284.431099 294.092947 
L 284.798984 291.893333 
L 285.25496 292.050095 
L 285.503329 294.664548 
L 285.722981 285.260109 
L 285.99772 294.213242 
L 286.808229 293.011186 
L 287.043738 290.188432 
L 287.15795 294.265893 
L 287.848819 294.976342 
L 287.961 294.330447 
L 288.090693 292.769787 
L 288.338672 291.498139 
L 288.595079 293.780973 
L 289.988015 293.283147 
L 291.033003 293.59605 
L 291.488853 292.870286 
L 292.069534 294.358274 
L 292.154481 290.536305 
L 292.741672 289.591054 
L 292.833921 294.337604 
L 292.955907 290.16447 
L 293.517552 293.134766 
L 294.211533 293.169209 
L 294.426714 292.026296 
L 294.641472 293.363755 
L 294.768028 291.803392 
L 294.890141 294.646576 
L 295.225828 292.489637 
L 295.83315 290.154173 
L 296.194981 290.872472 
L 296.432095 293.389273 
L 296.779318 294.414807 
L 297.114021 286.747296 
L 297.472416 292.506516 
L 297.698574 291.147045 
L 298.403659 292.843097 
L 298.495691 294.457299 
L 298.709047 291.467906 
L 298.954935 291.808139 
L 299.95408 293.999916 
L 300.081048 291.762054 
L 300.196588 286.681352 
L 300.288672 291.575612 
L 302.023738 293.596392 
L 302.477938 293.333424 
L 302.964751 292.77983 
L 303.08987 289.114873 
L 303.556352 295.014883 
L 303.900083 293.89834 
L 304.140942 291.300356 
L 304.381006 293.948308 
L 304.986964 294.441276 
L 305.341187 292.485984 
L 305.57843 294.444783 
L 305.706077 294.52791 
L 305.930979 290.378325 
L 306.290039 291.29712 
L 306.637221 291.529628 
L 306.885677 293.762999 
L 307.248399 293.940701 
L 307.698681 288.116723 
L 308.048403 294.25946 
L 308.353438 290.88217 
L 309.305325 294.408779 
L 309.647543 291.398211 
L 310.246054 293.565356 
L 310.822959 293.684727 
L 310.923999 294.228178 
L 311.062255 291.371324 
L 311.316495 294.011044 
L 311.445573 292.835455 
L 311.681231 292.89131 
L 311.913329 293.930345 
L 312.257821 293.637091 
L 312.376058 288.291432 
L 312.811512 293.506833 
L 313.384312 292.869533 
L 313.607596 292.347686 
L 314.361952 290.262593 
L 314.466906 294.595232 
L 314.71421 292.491359 
L 314.816469 293.368329 
L 315.189363 292.577361 
L 315.409362 294.167924 
L 315.873633 291.633142 
L 316.24988 294.423169 
L 316.496733 294.31552 
L 316.739866 295.02676 
L 316.995053 293.635387 
L 317.437968 290.673226 
L 318.064002 294.468833 
L 318.155685 293.12952 
L 318.643156 288.9737 
L 318.727885 290.921366 
L 318.970362 292.874403 
L 319.086842 287.938318 
L 319.287271 293.442252 
L 319.38885 290.848328 
L 319.512881 292.006498 
L 319.740533 292.386089 
L 319.861505 293.689645 
L 320.103247 293.851439 
L 320.441438 289.787734 
L 320.674738 292.101968 
L 320.799012 290.647925 
L 321.487043 291.622355 
L 321.586744 293.530482 
L 321.725507 292.223629 
L 322.174192 293.800132 
L 322.383406 293.964676 
L 322.64532 291.573584 
L 323.092023 293.887508 
L 323.916181 290.88532 
L 324.277368 293.132809 
L 324.504802 291.897549 
L 324.720339 293.967544 
L 324.822027 291.358627 
L 325.310633 295.134848 
L 325.542647 292.300028 
L 325.754649 294.314824 
L 326.071018 293.389331 
L 326.163051 294.299601 
L 326.515643 292.986232 
L 326.64026 293.526086 
L 327.022687 294.238489 
L 327.437488 293.156496 
L 327.879102 293.762434 
L 328.629784 294.988038 
L 328.745419 292.952041 
L 329.262709 294.63025 
L 329.530284 291.420378 
L 329.901311 293.522093 
L 330.147472 294.608415 
L 330.284585 293.495824 
L 330.5585 292.563663 
L 330.708713 294.029352 
L 330.832041 288.250783 
L 330.945667 295.289103 
L 331.198199 294.51228 
L 331.432142 294.269052 
L 331.542811 293.468801 
L 332.090013 292.977752 
L 332.225285 293.687645 
L 332.494344 292.777233 
L 332.885739 295.010222 
L 333.123186 294.006516 
L 333.485634 293.037286 
L 334.232296 293.853731 
L 335.041547 290.898231 
L 335.507279 294.604394 
L 336.546078 293.401762 
L 336.802888 294.047059 
L 337.182496 293.339221 
L 337.909059 294.574088 
L 338.033722 294.345467 
L 338.281255 293.56344 
L 338.669685 293.456551 
L 339.027787 294.461997 
L 339.165365 293.606744 
L 339.286981 291.049204 
L 340.434901 290.879366 
L 340.561386 291.37422 
L 340.65891 293.76976 
L 340.782741 290.955278 
L 341.034971 294.365655 
L 341.257814 294.379896 
L 341.614656 293.250791 
L 342.423398 294.732859 
L 342.51937 294.633964 
L 342.646862 289.33157 
L 342.782723 290.676771 
L 343.753253 294.298495 
L 344.796255 291.817011 
L 345.406412 293.784856 
L 346.350846 293.995936 
L 346.46017 291.237825 
L 346.809439 290.057306 
L 347.289469 293.118542 
L 347.610175 294.267777 
L 348.115259 292.752038 
L 348.48842 289.155173 
L 348.926693 293.433812 
L 349.047481 292.075836 
L 349.305262 293.019552 
L 350.271085 292.611367 
L 350.511629 294.481626 
L 350.713583 294.388996 
L 350.926973 294.851383 
L 351.547809 294.421332 
L 352.166141 292.062015 
L 352.609731 293.174932 
L 353.058655 294.696845 
L 353.163647 294.375293 
L 353.315984 293.345546 
L 353.801089 293.685711 
L 354.493827 293.469341 
L 355.476359 294.223653 
L 356.446732 293.702033 
L 356.564554 291.099914 
L 356.783019 293.561929 
L 357.04411 294.185143 
L 357.385627 289.839588 
L 357.717252 289.180798 
L 357.819205 294.57744 
L 358.055844 293.010522 
L 358.299776 293.359512 
L 359.075816 293.247037 
L 359.543443 293.340135 
L 359.74548 293.234048 
L 359.969872 292.546092 
L 360.199091 292.385938 
L 360.32414 291.429381 
L 360.545041 293.76925 
L 360.911912 294.840202 
L 361.138652 290.497259 
L 361.491185 292.897135 
L 361.734028 292.334177 
L 362.089727 293.059985 
L 362.221757 291.30815 
L 362.345072 293.02927 
L 363.492047 294.839856 
L 363.618914 291.668068 
L 363.867187 289.849849 
L 363.991628 293.47186 
L 364.215556 292.324805 
L 364.557312 293.234504 
L 364.666527 292.670858 
L 364.884291 293.625358 
L 365.212515 291.226859 
L 365.421211 292.760248 
L 365.624103 291.969254 
L 365.861766 294.944103 
L 366.864897 289.51313 
L 366.979974 293.317677 
L 367.566314 293.596631 
L 367.786614 292.907218 
L 368.024867 293.179862 
L 368.278168 294.202618 
L 368.371449 293.247058 
L 368.700727 293.14312 
L 369.401521 294.694982 
L 369.51761 292.185814 
L 369.962185 290.730988 
L 370.330985 294.754771 
L 370.717076 292.781687 
L 370.937191 293.600383 
L 371.067628 293.349678 
L 371.595412 294.184555 
L 372.076309 293.983704 
L 372.439165 291.633585 
L 372.712043 294.913194 
L 372.828076 294.880014 
L 373.192418 290.825059 
L 373.681471 292.059807 
L 373.92704 294.061386 
L 374.426121 294.053699 
L 374.554831 294.176236 
L 374.790524 294.892706 
L 374.909873 294.124975 
L 375.562793 294.291367 
L 375.956737 292.518791 
L 376.074571 288.571297 
L 376.304378 292.23708 
L 376.588113 293.51274 
L 376.843886 293.9571 
L 376.971072 294.73464 
L 377.331568 292.751075 
L 377.485248 290.13143 
L 377.717662 292.235987 
L 378.138405 292.626469 
L 378.280927 294.368895 
L 378.536759 293.622027 
L 379.295313 292.49264 
L 379.705322 292.447211 
L 380.193667 293.934144 
L 380.714847 293.260056 
L 381.446644 294.130249 
L 382.343452 293.764919 
L 383.084194 293.308216 
L 383.569116 292.545563 
L 383.821819 291.644508 
L 384.48261 290.580679 
L 384.816522 292.658185 
L 385.07053 293.351986 
L 385.534395 293.689851 
L 386.142208 293.917577 
L 386.651922 293.23684 
L 387.142519 295.488 
L 387.52254 293.668021 
L 388.572195 292.74474 
L 389.294542 291.884451 
L 389.753443 292.561968 
L 390.557465 294.717525 
L 390.653104 293.500738 
L 391.020009 292.285673 
L 391.806583 293.75338 
L 392.03607 294.589243 
L 392.545916 291.621401 
L 392.775938 293.593386 
L 392.906568 291.722555 
L 393.051859 292.187756 
L 393.17767 294.524363 
L 393.287909 291.630248 
L 393.541096 293.414438 
L 394.28029 294.195185 
L 394.632429 293.397995 
L 395.375276 290.646395 
L 395.892397 292.047516 
L 397.140362 293.269565 
L 397.260348 290.60235 
L 397.369004 294.239676 
L 398.194161 292.68305 
L 398.805116 291.089594 
L 399.106916 293.710181 
L 399.480562 294.827931 
L 399.596303 293.406273 
L 399.710152 294.331063 
L 400.164333 292.933207 
L 401.129442 292.519255 
L 401.249789 293.710123 
L 401.808072 294.762625 
L 401.928855 292.669431 
L 402.145201 293.612988 
L 402.737013 294.327033 
L 403.398822 293.262711 
L 403.631498 294.576815 
L 403.868194 293.599208 
L 404.223593 294.347912 
L 404.427343 291.947446 
L 405.063681 293.661946 
L 405.389801 293.470104 
L 405.776815 292.706271 
L 406.812367 294.495463 
L 406.930946 294.409831 
L 407.684767 292.37039 
L 407.916389 293.406982 
L 408.015738 292.794489 
L 408.737306 291.764388 
L 409.073731 294.666774 
L 409.191311 294.236716 
L 409.440436 293.81198 
L 409.822324 291.616503 
L 410.070982 292.836158 
L 410.325875 292.90528 
L 410.709536 293.602463 
L 410.963738 291.53489 
L 411.78457 293.777583 
L 412.377353 292.843722 
L 412.662232 290.490616 
L 412.79077 291.608588 
L 412.93784 294.460671 
L 413.40927 292.373821 
L 413.544927 294.93691 
L 414.126386 292.844808 
L 414.248695 291.583202 
L 414.72 292.973368 
L 414.72 292.973368 
" style="fill:none;stroke:#000000;stroke-linecap:square;stroke-width:0.8;"/>
   </g>
   <g id="patch_3">
    <path d="M 57.6 307.584 
L 57.6 41.472 
" style="fill:none;stroke:#000000;stroke-linecap:square;stroke-linejoin:miter;stroke-width:0.8;"/>
   </g>
   <g id="patch_4">
    <path d="M 414.72 307.584 
L 414.72 41.472 
" style="fill:none;stroke:#000000;stroke-linecap:square;stroke-linejoin:miter;stroke-width:0.8;"/>
   </g>
   <g id="patch_5">
    <path d="M 57.6 307.584 
L 414.72 307.584 
" style="fill:none;stroke:#000000;stroke-linecap:square;stroke-linejoin:miter;stroke-width:0.8;"/>
   </g>
   <g id="patch_6">
    <path d="M 57.6 41.472 
L 414.72 41.472 
" style="fill:none;stroke:#000000;stroke-linecap:square;stroke-linejoin:miter;stroke-width:0.8;"/>
   </g>
  </g>
  <g id="axes_2">
   <g id="matplotlib.axis_3">
    <g id="xtick_10">
     <g id="line2d_30">
      <defs>
       <path d="M 0 0 
L 0 -3.5 
" id="m55447ee419" style="stroke:#000000;stroke-width:0.8;"/>
      </defs>
      <g>
       <use style="stroke:#000000;stroke-width:0.8;" x="57.6" xlink:href="#m55447ee419" y="41.472"/>
      </g>
     </g>
    </g>
    <g id="xtick_11">
     <g id="line2d_31">
      <g>
       <use style="stroke:#000000;stroke-width:0.8;" x="118.396731" xlink:href="#m55447ee419" y="41.472"/>
      </g>
     </g>
     <g id="text_17">
      <!-- 500K -->
      <defs>
       <path d="M 9.8125 72.90625 
L 19.671875 72.90625 
L 19.671875 42.09375 
L 52.390625 72.90625 
L 65.09375 72.90625 
L 28.90625 38.921875 
L 67.671875 0 
L 54.6875 0 
L 19.671875 35.109375 
L 19.671875 0 
L 9.8125 0 
z
" id="DejaVuSans-75"/>
      </defs>
      <g transform="translate(105.574075 32.392313)scale(0.1 -0.1)">
       <use xlink:href="#DejaVuSans-53"/>
       <use x="63.623047" xlink:href="#DejaVuSans-48"/>
       <use x="127.246094" xlink:href="#DejaVuSans-48"/>
       <use x="190.869141" xlink:href="#DejaVuSans-75"/>
      </g>
     </g>
    </g>
    <g id="xtick_12">
     <g id="line2d_32">
      <g>
       <use style="stroke:#000000;stroke-width:0.8;" x="179.193463" xlink:href="#m55447ee419" y="41.472"/>
      </g>
     </g>
     <g id="text_18">
      <!-- 1,000K -->
      <defs>
       <path d="M 11.71875 12.40625 
L 22.015625 12.40625 
L 22.015625 4 
L 14.015625 -11.625 
L 7.71875 -11.625 
L 11.71875 4 
z
" id="DejaVuSans-44"/>
      </defs>
      <g transform="translate(161.600494 32.392313)scale(0.1 -0.1)">
       <use xlink:href="#DejaVuSans-49"/>
       <use x="63.623047" xlink:href="#DejaVuSans-44"/>
       <use x="95.410156" xlink:href="#DejaVuSans-48"/>
       <use x="159.033203" xlink:href="#DejaVuSans-48"/>
       <use x="222.65625" xlink:href="#DejaVuSans-48"/>
       <use x="286.279297" xlink:href="#DejaVuSans-75"/>
      </g>
     </g>
    </g>
    <g id="xtick_13">
     <g id="line2d_33">
      <g>
       <use style="stroke:#000000;stroke-width:0.8;" x="239.990194" xlink:href="#m55447ee419" y="41.472"/>
      </g>
     </g>
     <g id="text_19">
      <!-- 1.50M -->
      <defs>
       <path d="M 9.8125 72.90625 
L 24.515625 72.90625 
L 43.109375 23.296875 
L 61.8125 72.90625 
L 76.515625 72.90625 
L 76.515625 0 
L 66.890625 0 
L 66.890625 64.015625 
L 48.09375 14.015625 
L 38.1875 14.015625 
L 19.390625 64.015625 
L 19.390625 0 
L 9.8125 0 
z
" id="DejaVuSans-77"/>
      </defs>
      <g transform="translate(224.543319 32.392313)scale(0.1 -0.1)">
       <use xlink:href="#DejaVuSans-49"/>
       <use x="63.623047" xlink:href="#DejaVuSans-46"/>
       <use x="95.410156" xlink:href="#DejaVuSans-53"/>
       <use x="159.033203" xlink:href="#DejaVuSans-48"/>
       <use x="222.65625" xlink:href="#DejaVuSans-77"/>
      </g>
     </g>
    </g>
    <g id="xtick_14">
     <g id="line2d_34">
      <g>
       <use style="stroke:#000000;stroke-width:0.8;" x="300.786925" xlink:href="#m55447ee419" y="41.472"/>
      </g>
     </g>
     <g id="text_20">
      <!-- 2.00M -->
      <g transform="translate(285.34005 32.392313)scale(0.1 -0.1)">
       <use xlink:href="#DejaVuSans-50"/>
       <use x="63.623047" xlink:href="#DejaVuSans-46"/>
       <use x="95.410156" xlink:href="#DejaVuSans-48"/>
       <use x="159.033203" xlink:href="#DejaVuSans-48"/>
       <use x="222.65625" xlink:href="#DejaVuSans-77"/>
      </g>
     </g>
    </g>
    <g id="xtick_15">
     <g id="line2d_35">
      <g>
       <use style="stroke:#000000;stroke-width:0.8;" x="361.583657" xlink:href="#m55447ee419" y="41.472"/>
      </g>
     </g>
     <g id="text_21">
      <!-- 2.50M -->
      <g transform="translate(346.136782 32.392313)scale(0.1 -0.1)">
       <use xlink:href="#DejaVuSans-50"/>
       <use x="63.623047" xlink:href="#DejaVuSans-46"/>
       <use x="95.410156" xlink:href="#DejaVuSans-53"/>
       <use x="159.033203" xlink:href="#DejaVuSans-48"/>
       <use x="222.65625" xlink:href="#DejaVuSans-77"/>
      </g>
     </g>
    </g>
    <g id="text_22">
     <!-- Steps -->
     <defs>
      <path d="M 53.515625 70.515625 
L 53.515625 60.890625 
Q 47.90625 63.578125 42.921875 64.890625 
Q 37.9375 66.21875 33.296875 66.21875 
Q 25.25 66.21875 20.875 63.09375 
Q 16.5 59.96875 16.5 54.203125 
Q 16.5 49.359375 19.40625 46.890625 
Q 22.3125 44.4375 30.421875 42.921875 
L 36.375 41.703125 
Q 47.40625 39.59375 52.65625 34.296875 
Q 57.90625 29 57.90625 20.125 
Q 57.90625 9.515625 50.796875 4.046875 
Q 43.703125 -1.421875 29.984375 -1.421875 
Q 24.8125 -1.421875 18.96875 -0.25 
Q 13.140625 0.921875 6.890625 3.21875 
L 6.890625 13.375 
Q 12.890625 10.015625 18.65625 8.296875 
Q 24.421875 6.59375 29.984375 6.59375 
Q 38.421875 6.59375 43.015625 9.90625 
Q 47.609375 13.234375 47.609375 19.390625 
Q 47.609375 24.75 44.3125 27.78125 
Q 41.015625 30.8125 33.5 32.328125 
L 27.484375 33.5 
Q 16.453125 35.6875 11.515625 40.375 
Q 6.59375 45.0625 6.59375 53.421875 
Q 6.59375 63.09375 13.40625 68.65625 
Q 20.21875 74.21875 32.171875 74.21875 
Q 37.3125 74.21875 42.625 73.28125 
Q 47.953125 72.359375 53.515625 70.515625 
z
" id="DejaVuSans-83"/>
      <path d="M 18.3125 70.21875 
L 18.3125 54.6875 
L 36.8125 54.6875 
L 36.8125 47.703125 
L 18.3125 47.703125 
L 18.3125 18.015625 
Q 18.3125 11.328125 20.140625 9.421875 
Q 21.96875 7.515625 27.59375 7.515625 
L 36.8125 7.515625 
L 36.8125 0 
L 27.59375 0 
Q 17.1875 0 13.234375 3.875 
Q 9.28125 7.765625 9.28125 18.015625 
L 9.28125 47.703125 
L 2.6875 47.703125 
L 2.6875 54.6875 
L 9.28125 54.6875 
L 9.28125 70.21875 
z
" id="DejaVuSans-116"/>
      <path d="M 56.203125 29.59375 
L 56.203125 25.203125 
L 14.890625 25.203125 
Q 15.484375 15.921875 20.484375 11.0625 
Q 25.484375 6.203125 34.421875 6.203125 
Q 39.59375 6.203125 44.453125 7.46875 
Q 49.3125 8.734375 54.109375 11.28125 
L 54.109375 2.78125 
Q 49.265625 0.734375 44.1875 -0.34375 
Q 39.109375 -1.421875 33.890625 -1.421875 
Q 20.796875 -1.421875 13.15625 6.1875 
Q 5.515625 13.8125 5.515625 26.8125 
Q 5.515625 40.234375 12.765625 48.109375 
Q 20.015625 56 32.328125 56 
Q 43.359375 56 49.78125 48.890625 
Q 56.203125 41.796875 56.203125 29.59375 
z
M 47.21875 32.234375 
Q 47.125 39.59375 43.09375 43.984375 
Q 39.0625 48.390625 32.421875 48.390625 
Q 24.90625 48.390625 20.390625 44.140625 
Q 15.875 39.890625 15.1875 32.171875 
z
" id="DejaVuSans-101"/>
      <path d="M 18.109375 8.203125 
L 18.109375 -20.796875 
L 9.078125 -20.796875 
L 9.078125 54.6875 
L 18.109375 54.6875 
L 18.109375 46.390625 
Q 20.953125 51.265625 25.265625 53.625 
Q 29.59375 56 35.59375 56 
Q 45.5625 56 51.78125 48.09375 
Q 58.015625 40.1875 58.015625 27.296875 
Q 58.015625 14.40625 51.78125 6.484375 
Q 45.5625 -1.421875 35.59375 -1.421875 
Q 29.59375 -1.421875 25.265625 0.953125 
Q 20.953125 3.328125 18.109375 8.203125 
z
M 48.6875 27.296875 
Q 48.6875 37.203125 44.609375 42.84375 
Q 40.53125 48.484375 33.40625 48.484375 
Q 26.265625 48.484375 22.1875 42.84375 
Q 18.109375 37.203125 18.109375 27.296875 
Q 18.109375 17.390625 22.1875 11.75 
Q 26.265625 6.109375 33.40625 6.109375 
Q 40.53125 6.109375 44.609375 11.75 
Q 48.6875 17.390625 48.6875 27.296875 
z
" id="DejaVuSans-112"/>
     </defs>
     <g transform="translate(222.170156 20.793875)scale(0.1 -0.1)">
      <use xlink:href="#DejaVuSans-83"/>
      <use x="63.476562" xlink:href="#DejaVuSans-116"/>
      <use x="102.685547" xlink:href="#DejaVuSans-101"/>
      <use x="164.208984" xlink:href="#DejaVuSans-112"/>
      <use x="227.685547" xlink:href="#DejaVuSans-115"/>
     </g>
    </g>
   </g>
   <g id="patch_7">
    <path d="M 57.6 307.584 
L 57.6 41.472 
" style="fill:none;stroke:#000000;stroke-linecap:square;stroke-linejoin:miter;stroke-width:0.8;"/>
   </g>
   <g id="patch_8">
    <path d="M 414.72 307.584 
L 414.72 41.472 
" style="fill:none;stroke:#000000;stroke-linecap:square;stroke-linejoin:miter;stroke-width:0.8;"/>
   </g>
   <g id="patch_9">
    <path d="M 57.6 307.584 
L 414.72 307.584 
" style="fill:none;stroke:#000000;stroke-linecap:square;stroke-linejoin:miter;stroke-width:0.8;"/>
   </g>
   <g id="patch_10">
    <path d="M 57.6 41.472 
L 414.72 41.472 
" style="fill:none;stroke:#000000;stroke-linecap:square;stroke-linejoin:miter;stroke-width:0.8;"/>
   </g>
  </g>
 </g>
 <defs>
  <clipPath id="p49a935a5ce">
   <rect height="266.112" width="357.12" x="57.6" y="41.472"/>
  </clipPath>
 </defs>
</svg>
