<?xml version="1.0" encoding="utf-8" standalone="no"?>
<!DOCTYPE svg PUBLIC "-//W3C//DTD SVG 1.1//EN"
  "http://www.w3.org/Graphics/SVG/1.1/DTD/svg11.dtd">
<!-- Created with matplotlib (https://matplotlib.org/) -->
<svg height="345.6pt" version="1.1" viewBox="0 0 460.8 345.6" width="460.8pt" xmlns="http://www.w3.org/2000/svg" xmlns:xlink="http://www.w3.org/1999/xlink">
 <defs>
  <style type="text/css">
*{stroke-linecap:butt;stroke-linejoin:round;}
  </style>
 </defs>
 <g id="figure_1">
  <g id="patch_1">
   <path d="M 0 345.6 
L 460.8 345.6 
L 460.8 0 
L 0 0 
z
" style="fill:#ffffff;"/>
  </g>
  <g id="axes_1">
   <g id="patch_2">
    <path d="M 57.6 307.584 
L 414.72 307.584 
L 414.72 41.472 
L 57.6 41.472 
z
" style="fill:#ffffff;"/>
   </g>
   <g id="matplotlib.axis_1">
    <g id="xtick_1">
     <g id="line2d_1">
      <path clip-path="url(#p32aedd6208)" d="M 57.6 307.584 
L 57.6 41.472 
" style="fill:none;stroke:#b0b0b0;stroke-linecap:square;stroke-width:0.8;"/>
     </g>
     <g id="line2d_2">
      <defs>
       <path d="M 0 0 
L 0 3.5 
" id="m337de70984" style="stroke:#000000;stroke-width:0.8;"/>
      </defs>
      <g>
       <use style="stroke:#000000;stroke-width:0.8;" x="57.6" xlink:href="#m337de70984" y="307.584"/>
      </g>
     </g>
     <g id="text_1">
      <!-- 0 -->
      <defs>
       <path d="M 31.78125 66.40625 
Q 24.171875 66.40625 20.328125 58.90625 
Q 16.5 51.421875 16.5 36.375 
Q 16.5 21.390625 20.328125 13.890625 
Q 24.171875 6.390625 31.78125 6.390625 
Q 39.453125 6.390625 43.28125 13.890625 
Q 47.125 21.390625 47.125 36.375 
Q 47.125 51.421875 43.28125 58.90625 
Q 39.453125 66.40625 31.78125 66.40625 
z
M 31.78125 74.21875 
Q 44.046875 74.21875 50.515625 64.515625 
Q 56.984375 54.828125 56.984375 36.375 
Q 56.984375 17.96875 50.515625 8.265625 
Q 44.046875 -1.421875 31.78125 -1.421875 
Q 19.53125 -1.421875 13.0625 8.265625 
Q 6.59375 17.96875 6.59375 36.375 
Q 6.59375 54.828125 13.0625 64.515625 
Q 19.53125 74.21875 31.78125 74.21875 
z
" id="DejaVuSans-48"/>
      </defs>
      <g transform="translate(54.41875 322.182437)scale(0.1 -0.1)">
       <use xlink:href="#DejaVuSans-48"/>
      </g>
     </g>
    </g>
    <g id="xtick_2">
     <g id="line2d_3">
      <path clip-path="url(#p32aedd6208)" d="M 119.038864 307.584 
L 119.038864 41.472 
" style="fill:none;stroke:#b0b0b0;stroke-linecap:square;stroke-width:0.8;"/>
     </g>
     <g id="line2d_4">
      <g>
       <use style="stroke:#000000;stroke-width:0.8;" x="119.038864" xlink:href="#m337de70984" y="307.584"/>
      </g>
     </g>
     <g id="text_2">
      <!-- 1 -->
      <defs>
       <path d="M 12.40625 8.296875 
L 28.515625 8.296875 
L 28.515625 63.921875 
L 10.984375 60.40625 
L 10.984375 69.390625 
L 28.421875 72.90625 
L 38.28125 72.90625 
L 38.28125 8.296875 
L 54.390625 8.296875 
L 54.390625 0 
L 12.40625 0 
z
" id="DejaVuSans-49"/>
      </defs>
      <g transform="translate(115.857614 322.182437)scale(0.1 -0.1)">
       <use xlink:href="#DejaVuSans-49"/>
      </g>
     </g>
    </g>
    <g id="xtick_3">
     <g id="line2d_5">
      <path clip-path="url(#p32aedd6208)" d="M 180.477729 307.584 
L 180.477729 41.472 
" style="fill:none;stroke:#b0b0b0;stroke-linecap:square;stroke-width:0.8;"/>
     </g>
     <g id="line2d_6">
      <g>
       <use style="stroke:#000000;stroke-width:0.8;" x="180.477729" xlink:href="#m337de70984" y="307.584"/>
      </g>
     </g>
     <g id="text_3">
      <!-- 2 -->
      <defs>
       <path d="M 19.1875 8.296875 
L 53.609375 8.296875 
L 53.609375 0 
L 7.328125 0 
L 7.328125 8.296875 
Q 12.9375 14.109375 22.625 23.890625 
Q 32.328125 33.6875 34.8125 36.53125 
Q 39.546875 41.84375 41.421875 45.53125 
Q 43.3125 49.21875 43.3125 52.78125 
Q 43.3125 58.59375 39.234375 62.25 
Q 35.15625 65.921875 28.609375 65.921875 
Q 23.96875 65.921875 18.8125 64.3125 
Q 13.671875 62.703125 7.8125 59.421875 
L 7.8125 69.390625 
Q 13.765625 71.78125 18.9375 73 
Q 24.125 74.21875 28.421875 74.21875 
Q 39.75 74.21875 46.484375 68.546875 
Q 53.21875 62.890625 53.21875 53.421875 
Q 53.21875 48.921875 51.53125 44.890625 
Q 49.859375 40.875 45.40625 35.40625 
Q 44.1875 33.984375 37.640625 27.21875 
Q 31.109375 20.453125 19.1875 8.296875 
z
" id="DejaVuSans-50"/>
      </defs>
      <g transform="translate(177.296479 322.182437)scale(0.1 -0.1)">
       <use xlink:href="#DejaVuSans-50"/>
      </g>
     </g>
    </g>
    <g id="xtick_4">
     <g id="line2d_7">
      <path clip-path="url(#p32aedd6208)" d="M 241.916593 307.584 
L 241.916593 41.472 
" style="fill:none;stroke:#b0b0b0;stroke-linecap:square;stroke-width:0.8;"/>
     </g>
     <g id="line2d_8">
      <g>
       <use style="stroke:#000000;stroke-width:0.8;" x="241.916593" xlink:href="#m337de70984" y="307.584"/>
      </g>
     </g>
     <g id="text_4">
      <!-- 3 -->
      <defs>
       <path d="M 40.578125 39.3125 
Q 47.65625 37.796875 51.625 33 
Q 55.609375 28.21875 55.609375 21.1875 
Q 55.609375 10.40625 48.1875 4.484375 
Q 40.765625 -1.421875 27.09375 -1.421875 
Q 22.515625 -1.421875 17.65625 -0.515625 
Q 12.796875 0.390625 7.625 2.203125 
L 7.625 11.71875 
Q 11.71875 9.328125 16.59375 8.109375 
Q 21.484375 6.890625 26.8125 6.890625 
Q 36.078125 6.890625 40.9375 10.546875 
Q 45.796875 14.203125 45.796875 21.1875 
Q 45.796875 27.640625 41.28125 31.265625 
Q 36.765625 34.90625 28.71875 34.90625 
L 20.21875 34.90625 
L 20.21875 43.015625 
L 29.109375 43.015625 
Q 36.375 43.015625 40.234375 45.921875 
Q 44.09375 48.828125 44.09375 54.296875 
Q 44.09375 59.90625 40.109375 62.90625 
Q 36.140625 65.921875 28.71875 65.921875 
Q 24.65625 65.921875 20.015625 65.03125 
Q 15.375 64.15625 9.8125 62.3125 
L 9.8125 71.09375 
Q 15.4375 72.65625 20.34375 73.4375 
Q 25.25 74.21875 29.59375 74.21875 
Q 40.828125 74.21875 47.359375 69.109375 
Q 53.90625 64.015625 53.90625 55.328125 
Q 53.90625 49.265625 50.4375 45.09375 
Q 46.96875 40.921875 40.578125 39.3125 
z
" id="DejaVuSans-51"/>
      </defs>
      <g transform="translate(238.735343 322.182437)scale(0.1 -0.1)">
       <use xlink:href="#DejaVuSans-51"/>
      </g>
     </g>
    </g>
    <g id="xtick_5">
     <g id="line2d_9">
      <path clip-path="url(#p32aedd6208)" d="M 303.355457 307.584 
L 303.355457 41.472 
" style="fill:none;stroke:#b0b0b0;stroke-linecap:square;stroke-width:0.8;"/>
     </g>
     <g id="line2d_10">
      <g>
       <use style="stroke:#000000;stroke-width:0.8;" x="303.355457" xlink:href="#m337de70984" y="307.584"/>
      </g>
     </g>
     <g id="text_5">
      <!-- 4 -->
      <defs>
       <path d="M 37.796875 64.3125 
L 12.890625 25.390625 
L 37.796875 25.390625 
z
M 35.203125 72.90625 
L 47.609375 72.90625 
L 47.609375 25.390625 
L 58.015625 25.390625 
L 58.015625 17.1875 
L 47.609375 17.1875 
L 47.609375 0 
L 37.796875 0 
L 37.796875 17.1875 
L 4.890625 17.1875 
L 4.890625 26.703125 
z
" id="DejaVuSans-52"/>
      </defs>
      <g transform="translate(300.174207 322.182437)scale(0.1 -0.1)">
       <use xlink:href="#DejaVuSans-52"/>
      </g>
     </g>
    </g>
    <g id="xtick_6">
     <g id="line2d_11">
      <path clip-path="url(#p32aedd6208)" d="M 364.794322 307.584 
L 364.794322 41.472 
" style="fill:none;stroke:#b0b0b0;stroke-linecap:square;stroke-width:0.8;"/>
     </g>
     <g id="line2d_12">
      <g>
       <use style="stroke:#000000;stroke-width:0.8;" x="364.794322" xlink:href="#m337de70984" y="307.584"/>
      </g>
     </g>
     <g id="text_6">
      <!-- 5 -->
      <defs>
       <path d="M 10.796875 72.90625 
L 49.515625 72.90625 
L 49.515625 64.59375 
L 19.828125 64.59375 
L 19.828125 46.734375 
Q 21.96875 47.46875 24.109375 47.828125 
Q 26.265625 48.1875 28.421875 48.1875 
Q 40.625 48.1875 47.75 41.5 
Q 54.890625 34.8125 54.890625 23.390625 
Q 54.890625 11.625 47.5625 5.09375 
Q 40.234375 -1.421875 26.90625 -1.421875 
Q 22.3125 -1.421875 17.546875 -0.640625 
Q 12.796875 0.140625 7.71875 1.703125 
L 7.71875 11.625 
Q 12.109375 9.234375 16.796875 8.0625 
Q 21.484375 6.890625 26.703125 6.890625 
Q 35.15625 6.890625 40.078125 11.328125 
Q 45.015625 15.765625 45.015625 23.390625 
Q 45.015625 31 40.078125 35.4375 
Q 35.15625 39.890625 26.703125 39.890625 
Q 22.75 39.890625 18.8125 39.015625 
Q 14.890625 38.140625 10.796875 36.28125 
z
" id="DejaVuSans-53"/>
      </defs>
      <g transform="translate(361.613072 322.182437)scale(0.1 -0.1)">
       <use xlink:href="#DejaVuSans-53"/>
      </g>
     </g>
    </g>
    <g id="text_7">
     <!-- Hours -->
     <defs>
      <path d="M 9.8125 72.90625 
L 19.671875 72.90625 
L 19.671875 43.015625 
L 55.515625 43.015625 
L 55.515625 72.90625 
L 65.375 72.90625 
L 65.375 0 
L 55.515625 0 
L 55.515625 34.71875 
L 19.671875 34.71875 
L 19.671875 0 
L 9.8125 0 
z
" id="DejaVuSans-72"/>
      <path d="M 30.609375 48.390625 
Q 23.390625 48.390625 19.1875 42.75 
Q 14.984375 37.109375 14.984375 27.296875 
Q 14.984375 17.484375 19.15625 11.84375 
Q 23.34375 6.203125 30.609375 6.203125 
Q 37.796875 6.203125 41.984375 11.859375 
Q 46.1875 17.53125 46.1875 27.296875 
Q 46.1875 37.015625 41.984375 42.703125 
Q 37.796875 48.390625 30.609375 48.390625 
z
M 30.609375 56 
Q 42.328125 56 49.015625 48.375 
Q 55.71875 40.765625 55.71875 27.296875 
Q 55.71875 13.875 49.015625 6.21875 
Q 42.328125 -1.421875 30.609375 -1.421875 
Q 18.84375 -1.421875 12.171875 6.21875 
Q 5.515625 13.875 5.515625 27.296875 
Q 5.515625 40.765625 12.171875 48.375 
Q 18.84375 56 30.609375 56 
z
" id="DejaVuSans-111"/>
      <path d="M 8.5 21.578125 
L 8.5 54.6875 
L 17.484375 54.6875 
L 17.484375 21.921875 
Q 17.484375 14.15625 20.5 10.265625 
Q 23.53125 6.390625 29.59375 6.390625 
Q 36.859375 6.390625 41.078125 11.03125 
Q 45.3125 15.671875 45.3125 23.6875 
L 45.3125 54.6875 
L 54.296875 54.6875 
L 54.296875 0 
L 45.3125 0 
L 45.3125 8.40625 
Q 42.046875 3.421875 37.71875 1 
Q 33.40625 -1.421875 27.6875 -1.421875 
Q 18.265625 -1.421875 13.375 4.4375 
Q 8.5 10.296875 8.5 21.578125 
z
M 31.109375 56 
z
" id="DejaVuSans-117"/>
      <path d="M 41.109375 46.296875 
Q 39.59375 47.171875 37.8125 47.578125 
Q 36.03125 48 33.890625 48 
Q 26.265625 48 22.1875 43.046875 
Q 18.109375 38.09375 18.109375 28.8125 
L 18.109375 0 
L 9.078125 0 
L 9.078125 54.6875 
L 18.109375 54.6875 
L 18.109375 46.1875 
Q 20.953125 51.171875 25.484375 53.578125 
Q 30.03125 56 36.53125 56 
Q 37.453125 56 38.578125 55.875 
Q 39.703125 55.765625 41.0625 55.515625 
z
" id="DejaVuSans-114"/>
      <path d="M 44.28125 53.078125 
L 44.28125 44.578125 
Q 40.484375 46.53125 36.375 47.5 
Q 32.28125 48.484375 27.875 48.484375 
Q 21.1875 48.484375 17.84375 46.4375 
Q 14.5 44.390625 14.5 40.28125 
Q 14.5 37.15625 16.890625 35.375 
Q 19.28125 33.59375 26.515625 31.984375 
L 29.59375 31.296875 
Q 39.15625 29.25 43.1875 25.515625 
Q 47.21875 21.78125 47.21875 15.09375 
Q 47.21875 7.46875 41.1875 3.015625 
Q 35.15625 -1.421875 24.609375 -1.421875 
Q 20.21875 -1.421875 15.453125 -0.5625 
Q 10.6875 0.296875 5.421875 2 
L 5.421875 11.28125 
Q 10.40625 8.6875 15.234375 7.390625 
Q 20.0625 6.109375 24.8125 6.109375 
Q 31.15625 6.109375 34.5625 8.28125 
Q 37.984375 10.453125 37.984375 14.40625 
Q 37.984375 18.0625 35.515625 20.015625 
Q 33.0625 21.96875 24.703125 23.78125 
L 21.578125 24.515625 
Q 13.234375 26.265625 9.515625 29.90625 
Q 5.8125 33.546875 5.8125 39.890625 
Q 5.8125 47.609375 11.28125 51.796875 
Q 16.75 56 26.8125 56 
Q 31.78125 56 36.171875 55.265625 
Q 40.578125 54.546875 44.28125 53.078125 
z
" id="DejaVuSans-115"/>
     </defs>
     <g transform="translate(221.511562 335.860562)scale(0.1 -0.1)">
      <use xlink:href="#DejaVuSans-72"/>
      <use x="75.195312" xlink:href="#DejaVuSans-111"/>
      <use x="136.376953" xlink:href="#DejaVuSans-117"/>
      <use x="199.755859" xlink:href="#DejaVuSans-114"/>
      <use x="240.869141" xlink:href="#DejaVuSans-115"/>
     </g>
    </g>
   </g>
   <g id="matplotlib.axis_2">
    <g id="ytick_1">
     <g id="line2d_13">
      <path clip-path="url(#p32aedd6208)" d="M 57.6 295.488 
L 414.72 295.488 
" style="fill:none;stroke:#b0b0b0;stroke-linecap:square;stroke-width:0.8;"/>
     </g>
     <g id="line2d_14">
      <defs>
       <path d="M 0 0 
L -3.5 0 
" id="m1516de1103" style="stroke:#000000;stroke-width:0.8;"/>
      </defs>
      <g>
       <use style="stroke:#000000;stroke-width:0.8;" x="57.6" xlink:href="#m1516de1103" y="295.488"/>
      </g>
     </g>
     <g id="text_8">
      <!-- −200 -->
      <defs>
       <path d="M 10.59375 35.5 
L 73.1875 35.5 
L 73.1875 27.203125 
L 10.59375 27.203125 
z
" id="DejaVuSans-8722"/>
      </defs>
      <g transform="translate(23.132812 299.287219)scale(0.1 -0.1)">
       <use xlink:href="#DejaVuSans-8722"/>
       <use x="83.789062" xlink:href="#DejaVuSans-50"/>
       <use x="147.412109" xlink:href="#DejaVuSans-48"/>
       <use x="211.035156" xlink:href="#DejaVuSans-48"/>
      </g>
     </g>
    </g>
    <g id="ytick_2">
     <g id="line2d_15">
      <path clip-path="url(#p32aedd6208)" d="M 57.6 260.670293 
L 414.72 260.670293 
" style="fill:none;stroke:#b0b0b0;stroke-linecap:square;stroke-width:0.8;"/>
     </g>
     <g id="line2d_16">
      <g>
       <use style="stroke:#000000;stroke-width:0.8;" x="57.6" xlink:href="#m1516de1103" y="260.670293"/>
      </g>
     </g>
     <g id="text_9">
      <!-- −190 -->
      <defs>
       <path d="M 10.984375 1.515625 
L 10.984375 10.5 
Q 14.703125 8.734375 18.5 7.8125 
Q 22.3125 6.890625 25.984375 6.890625 
Q 35.75 6.890625 40.890625 13.453125 
Q 46.046875 20.015625 46.78125 33.40625 
Q 43.953125 29.203125 39.59375 26.953125 
Q 35.25 24.703125 29.984375 24.703125 
Q 19.046875 24.703125 12.671875 31.3125 
Q 6.296875 37.9375 6.296875 49.421875 
Q 6.296875 60.640625 12.9375 67.421875 
Q 19.578125 74.21875 30.609375 74.21875 
Q 43.265625 74.21875 49.921875 64.515625 
Q 56.59375 54.828125 56.59375 36.375 
Q 56.59375 19.140625 48.40625 8.859375 
Q 40.234375 -1.421875 26.421875 -1.421875 
Q 22.703125 -1.421875 18.890625 -0.6875 
Q 15.09375 0.046875 10.984375 1.515625 
z
M 30.609375 32.421875 
Q 37.25 32.421875 41.125 36.953125 
Q 45.015625 41.5 45.015625 49.421875 
Q 45.015625 57.28125 41.125 61.84375 
Q 37.25 66.40625 30.609375 66.40625 
Q 23.96875 66.40625 20.09375 61.84375 
Q 16.21875 57.28125 16.21875 49.421875 
Q 16.21875 41.5 20.09375 36.953125 
Q 23.96875 32.421875 30.609375 32.421875 
z
" id="DejaVuSans-57"/>
      </defs>
      <g transform="translate(23.132812 264.469512)scale(0.1 -0.1)">
       <use xlink:href="#DejaVuSans-8722"/>
       <use x="83.789062" xlink:href="#DejaVuSans-49"/>
       <use x="147.412109" xlink:href="#DejaVuSans-57"/>
       <use x="211.035156" xlink:href="#DejaVuSans-48"/>
      </g>
     </g>
    </g>
    <g id="ytick_3">
     <g id="line2d_17">
      <path clip-path="url(#p32aedd6208)" d="M 57.6 225.852586 
L 414.72 225.852586 
" style="fill:none;stroke:#b0b0b0;stroke-linecap:square;stroke-width:0.8;"/>
     </g>
     <g id="line2d_18">
      <g>
       <use style="stroke:#000000;stroke-width:0.8;" x="57.6" xlink:href="#m1516de1103" y="225.852586"/>
      </g>
     </g>
     <g id="text_10">
      <!-- −180 -->
      <defs>
       <path d="M 31.78125 34.625 
Q 24.75 34.625 20.71875 30.859375 
Q 16.703125 27.09375 16.703125 20.515625 
Q 16.703125 13.921875 20.71875 10.15625 
Q 24.75 6.390625 31.78125 6.390625 
Q 38.8125 6.390625 42.859375 10.171875 
Q 46.921875 13.96875 46.921875 20.515625 
Q 46.921875 27.09375 42.890625 30.859375 
Q 38.875 34.625 31.78125 34.625 
z
M 21.921875 38.8125 
Q 15.578125 40.375 12.03125 44.71875 
Q 8.5 49.078125 8.5 55.328125 
Q 8.5 64.0625 14.71875 69.140625 
Q 20.953125 74.21875 31.78125 74.21875 
Q 42.671875 74.21875 48.875 69.140625 
Q 55.078125 64.0625 55.078125 55.328125 
Q 55.078125 49.078125 51.53125 44.71875 
Q 48 40.375 41.703125 38.8125 
Q 48.828125 37.15625 52.796875 32.3125 
Q 56.78125 27.484375 56.78125 20.515625 
Q 56.78125 9.90625 50.3125 4.234375 
Q 43.84375 -1.421875 31.78125 -1.421875 
Q 19.734375 -1.421875 13.25 4.234375 
Q 6.78125 9.90625 6.78125 20.515625 
Q 6.78125 27.484375 10.78125 32.3125 
Q 14.796875 37.15625 21.921875 38.8125 
z
M 18.3125 54.390625 
Q 18.3125 48.734375 21.84375 45.5625 
Q 25.390625 42.390625 31.78125 42.390625 
Q 38.140625 42.390625 41.71875 45.5625 
Q 45.3125 48.734375 45.3125 54.390625 
Q 45.3125 60.0625 41.71875 63.234375 
Q 38.140625 66.40625 31.78125 66.40625 
Q 25.390625 66.40625 21.84375 63.234375 
Q 18.3125 60.0625 18.3125 54.390625 
z
" id="DejaVuSans-56"/>
      </defs>
      <g transform="translate(23.132812 229.651805)scale(0.1 -0.1)">
       <use xlink:href="#DejaVuSans-8722"/>
       <use x="83.789062" xlink:href="#DejaVuSans-49"/>
       <use x="147.412109" xlink:href="#DejaVuSans-56"/>
       <use x="211.035156" xlink:href="#DejaVuSans-48"/>
      </g>
     </g>
    </g>
    <g id="ytick_4">
     <g id="line2d_19">
      <path clip-path="url(#p32aedd6208)" d="M 57.6 191.03488 
L 414.72 191.03488 
" style="fill:none;stroke:#b0b0b0;stroke-linecap:square;stroke-width:0.8;"/>
     </g>
     <g id="line2d_20">
      <g>
       <use style="stroke:#000000;stroke-width:0.8;" x="57.6" xlink:href="#m1516de1103" y="191.03488"/>
      </g>
     </g>
     <g id="text_11">
      <!-- −170 -->
      <defs>
       <path d="M 8.203125 72.90625 
L 55.078125 72.90625 
L 55.078125 68.703125 
L 28.609375 0 
L 18.3125 0 
L 43.21875 64.59375 
L 8.203125 64.59375 
z
" id="DejaVuSans-55"/>
      </defs>
      <g transform="translate(23.132812 194.834098)scale(0.1 -0.1)">
       <use xlink:href="#DejaVuSans-8722"/>
       <use x="83.789062" xlink:href="#DejaVuSans-49"/>
       <use x="147.412109" xlink:href="#DejaVuSans-55"/>
       <use x="211.035156" xlink:href="#DejaVuSans-48"/>
      </g>
     </g>
    </g>
    <g id="ytick_5">
     <g id="line2d_21">
      <path clip-path="url(#p32aedd6208)" d="M 57.6 156.217173 
L 414.72 156.217173 
" style="fill:none;stroke:#b0b0b0;stroke-linecap:square;stroke-width:0.8;"/>
     </g>
     <g id="line2d_22">
      <g>
       <use style="stroke:#000000;stroke-width:0.8;" x="57.6" xlink:href="#m1516de1103" y="156.217173"/>
      </g>
     </g>
     <g id="text_12">
      <!-- −160 -->
      <defs>
       <path d="M 33.015625 40.375 
Q 26.375 40.375 22.484375 35.828125 
Q 18.609375 31.296875 18.609375 23.390625 
Q 18.609375 15.53125 22.484375 10.953125 
Q 26.375 6.390625 33.015625 6.390625 
Q 39.65625 6.390625 43.53125 10.953125 
Q 47.40625 15.53125 47.40625 23.390625 
Q 47.40625 31.296875 43.53125 35.828125 
Q 39.65625 40.375 33.015625 40.375 
z
M 52.59375 71.296875 
L 52.59375 62.3125 
Q 48.875 64.0625 45.09375 64.984375 
Q 41.3125 65.921875 37.59375 65.921875 
Q 27.828125 65.921875 22.671875 59.328125 
Q 17.53125 52.734375 16.796875 39.40625 
Q 19.671875 43.65625 24.015625 45.921875 
Q 28.375 48.1875 33.59375 48.1875 
Q 44.578125 48.1875 50.953125 41.515625 
Q 57.328125 34.859375 57.328125 23.390625 
Q 57.328125 12.15625 50.6875 5.359375 
Q 44.046875 -1.421875 33.015625 -1.421875 
Q 20.359375 -1.421875 13.671875 8.265625 
Q 6.984375 17.96875 6.984375 36.375 
Q 6.984375 53.65625 15.1875 63.9375 
Q 23.390625 74.21875 37.203125 74.21875 
Q 40.921875 74.21875 44.703125 73.484375 
Q 48.484375 72.75 52.59375 71.296875 
z
" id="DejaVuSans-54"/>
      </defs>
      <g transform="translate(23.132812 160.016391)scale(0.1 -0.1)">
       <use xlink:href="#DejaVuSans-8722"/>
       <use x="83.789062" xlink:href="#DejaVuSans-49"/>
       <use x="147.412109" xlink:href="#DejaVuSans-54"/>
       <use x="211.035156" xlink:href="#DejaVuSans-48"/>
      </g>
     </g>
    </g>
    <g id="ytick_6">
     <g id="line2d_23">
      <path clip-path="url(#p32aedd6208)" d="M 57.6 121.399466 
L 414.72 121.399466 
" style="fill:none;stroke:#b0b0b0;stroke-linecap:square;stroke-width:0.8;"/>
     </g>
     <g id="line2d_24">
      <g>
       <use style="stroke:#000000;stroke-width:0.8;" x="57.6" xlink:href="#m1516de1103" y="121.399466"/>
      </g>
     </g>
     <g id="text_13">
      <!-- −150 -->
      <g transform="translate(23.132812 125.198685)scale(0.1 -0.1)">
       <use xlink:href="#DejaVuSans-8722"/>
       <use x="83.789062" xlink:href="#DejaVuSans-49"/>
       <use x="147.412109" xlink:href="#DejaVuSans-53"/>
       <use x="211.035156" xlink:href="#DejaVuSans-48"/>
      </g>
     </g>
    </g>
    <g id="ytick_7">
     <g id="line2d_25">
      <path clip-path="url(#p32aedd6208)" d="M 57.6 86.581759 
L 414.72 86.581759 
" style="fill:none;stroke:#b0b0b0;stroke-linecap:square;stroke-width:0.8;"/>
     </g>
     <g id="line2d_26">
      <g>
       <use style="stroke:#000000;stroke-width:0.8;" x="57.6" xlink:href="#m1516de1103" y="86.581759"/>
      </g>
     </g>
     <g id="text_14">
      <!-- −140 -->
      <g transform="translate(23.132812 90.380978)scale(0.1 -0.1)">
       <use xlink:href="#DejaVuSans-8722"/>
       <use x="83.789062" xlink:href="#DejaVuSans-49"/>
       <use x="147.412109" xlink:href="#DejaVuSans-52"/>
       <use x="211.035156" xlink:href="#DejaVuSans-48"/>
      </g>
     </g>
    </g>
    <g id="ytick_8">
     <g id="line2d_27">
      <path clip-path="url(#p32aedd6208)" d="M 57.6 51.764052 
L 414.72 51.764052 
" style="fill:none;stroke:#b0b0b0;stroke-linecap:square;stroke-width:0.8;"/>
     </g>
     <g id="line2d_28">
      <g>
       <use style="stroke:#000000;stroke-width:0.8;" x="57.6" xlink:href="#m1516de1103" y="51.764052"/>
      </g>
     </g>
     <g id="text_15">
      <!-- −130 -->
      <g transform="translate(23.132812 55.563271)scale(0.1 -0.1)">
       <use xlink:href="#DejaVuSans-8722"/>
       <use x="83.789062" xlink:href="#DejaVuSans-49"/>
       <use x="147.412109" xlink:href="#DejaVuSans-51"/>
       <use x="211.035156" xlink:href="#DejaVuSans-48"/>
      </g>
     </g>
    </g>
    <g id="text_16">
     <!-- Reward -->
     <defs>
      <path d="M 44.390625 34.1875 
Q 47.5625 33.109375 50.5625 29.59375 
Q 53.5625 26.078125 56.59375 19.921875 
L 66.609375 0 
L 56 0 
L 46.6875 18.703125 
Q 43.0625 26.03125 39.671875 28.421875 
Q 36.28125 30.8125 30.421875 30.8125 
L 19.671875 30.8125 
L 19.671875 0 
L 9.8125 0 
L 9.8125 72.90625 
L 32.078125 72.90625 
Q 44.578125 72.90625 50.734375 67.671875 
Q 56.890625 62.453125 56.890625 51.90625 
Q 56.890625 45.015625 53.6875 40.46875 
Q 50.484375 35.9375 44.390625 34.1875 
z
M 19.671875 64.796875 
L 19.671875 38.921875 
L 32.078125 38.921875 
Q 39.203125 38.921875 42.84375 42.21875 
Q 46.484375 45.515625 46.484375 51.90625 
Q 46.484375 58.296875 42.84375 61.546875 
Q 39.203125 64.796875 32.078125 64.796875 
z
" id="DejaVuSans-82"/>
      <path d="M 56.203125 29.59375 
L 56.203125 25.203125 
L 14.890625 25.203125 
Q 15.484375 15.921875 20.484375 11.0625 
Q 25.484375 6.203125 34.421875 6.203125 
Q 39.59375 6.203125 44.453125 7.46875 
Q 49.3125 8.734375 54.109375 11.28125 
L 54.109375 2.78125 
Q 49.265625 0.734375 44.1875 -0.34375 
Q 39.109375 -1.421875 33.890625 -1.421875 
Q 20.796875 -1.421875 13.15625 6.1875 
Q 5.515625 13.8125 5.515625 26.8125 
Q 5.515625 40.234375 12.765625 48.109375 
Q 20.015625 56 32.328125 56 
Q 43.359375 56 49.78125 48.890625 
Q 56.203125 41.796875 56.203125 29.59375 
z
M 47.21875 32.234375 
Q 47.125 39.59375 43.09375 43.984375 
Q 39.0625 48.390625 32.421875 48.390625 
Q 24.90625 48.390625 20.390625 44.140625 
Q 15.875 39.890625 15.1875 32.171875 
z
" id="DejaVuSans-101"/>
      <path d="M 4.203125 54.6875 
L 13.1875 54.6875 
L 24.421875 12.015625 
L 35.59375 54.6875 
L 46.1875 54.6875 
L 57.421875 12.015625 
L 68.609375 54.6875 
L 77.59375 54.6875 
L 63.28125 0 
L 52.6875 0 
L 40.921875 44.828125 
L 29.109375 0 
L 18.5 0 
z
" id="DejaVuSans-119"/>
      <path d="M 34.28125 27.484375 
Q 23.390625 27.484375 19.1875 25 
Q 14.984375 22.515625 14.984375 16.5 
Q 14.984375 11.71875 18.140625 8.90625 
Q 21.296875 6.109375 26.703125 6.109375 
Q 34.1875 6.109375 38.703125 11.40625 
Q 43.21875 16.703125 43.21875 25.484375 
L 43.21875 27.484375 
z
M 52.203125 31.203125 
L 52.203125 0 
L 43.21875 0 
L 43.21875 8.296875 
Q 40.140625 3.328125 35.546875 0.953125 
Q 30.953125 -1.421875 24.3125 -1.421875 
Q 15.921875 -1.421875 10.953125 3.296875 
Q 6 8.015625 6 15.921875 
Q 6 25.140625 12.171875 29.828125 
Q 18.359375 34.515625 30.609375 34.515625 
L 43.21875 34.515625 
L 43.21875 35.40625 
Q 43.21875 41.609375 39.140625 45 
Q 35.0625 48.390625 27.6875 48.390625 
Q 23 48.390625 18.546875 47.265625 
Q 14.109375 46.140625 10.015625 43.890625 
L 10.015625 52.203125 
Q 14.9375 54.109375 19.578125 55.046875 
Q 24.21875 56 28.609375 56 
Q 40.484375 56 46.34375 49.84375 
Q 52.203125 43.703125 52.203125 31.203125 
z
" id="DejaVuSans-97"/>
      <path d="M 45.40625 46.390625 
L 45.40625 75.984375 
L 54.390625 75.984375 
L 54.390625 0 
L 45.40625 0 
L 45.40625 8.203125 
Q 42.578125 3.328125 38.25 0.953125 
Q 33.9375 -1.421875 27.875 -1.421875 
Q 17.96875 -1.421875 11.734375 6.484375 
Q 5.515625 14.40625 5.515625 27.296875 
Q 5.515625 40.1875 11.734375 48.09375 
Q 17.96875 56 27.875 56 
Q 33.9375 56 38.25 53.625 
Q 42.578125 51.265625 45.40625 46.390625 
z
M 14.796875 27.296875 
Q 14.796875 17.390625 18.875 11.75 
Q 22.953125 6.109375 30.078125 6.109375 
Q 37.203125 6.109375 41.296875 11.75 
Q 45.40625 17.390625 45.40625 27.296875 
Q 45.40625 37.203125 41.296875 42.84375 
Q 37.203125 48.484375 30.078125 48.484375 
Q 22.953125 48.484375 18.875 42.84375 
Q 14.796875 37.203125 14.796875 27.296875 
z
" id="DejaVuSans-100"/>
     </defs>
     <g transform="translate(17.053125 193.457687)rotate(-90)scale(0.1 -0.1)">
      <use xlink:href="#DejaVuSans-82"/>
      <use x="69.419922" xlink:href="#DejaVuSans-101"/>
      <use x="130.943359" xlink:href="#DejaVuSans-119"/>
      <use x="212.730469" xlink:href="#DejaVuSans-97"/>
      <use x="274.009766" xlink:href="#DejaVuSans-114"/>
      <use x="315.107422" xlink:href="#DejaVuSans-100"/>
     </g>
    </g>
   </g>
   <g id="line2d_29">
    <path clip-path="url(#p32aedd6208)" d="M 57.6 295.488 
L 105.044492 295.474771 
L 105.492963 294.391765 
L 105.640064 294.865344 
L 108.910605 293.81804 
L 109.035304 294.243326 
L 109.272942 295.301681 
L 109.644738 295.477215 
L 109.955864 295.486884 
L 110.303895 294.460725 
L 110.323002 294.665425 
L 110.38003 294.93882 
L 111.56871 295.410965 
L 111.961395 295.188892 
L 111.961412 295.200739 
L 112.059697 295.354703 
L 113.143989 295.486512 
L 113.715684 294.494833 
L 114.559931 291.761683 
L 114.949148 293.93083 
L 116.330728 295.463933 
L 117.40299 295.128273 
L 118.707057 294.974894 
L 118.707066 294.985147 
L 119.660383 295.344768 
L 120.588342 294.475069 
L 120.818221 292.608378 
L 120.928359 294.016684 
L 121.418256 292.16795 
L 121.66405 294.026194 
L 123.011026 287.971932 
L 123.267921 291.195768 
L 124.356063 286.766041 
L 124.437721 289.612831 
L 124.601619 286.422146 
L 124.979535 283.755672 
L 125.140284 277.0014 
L 125.67578 289.500413 
L 126.018015 282.017708 
L 126.559618 263.261486 
L 127.002256 254.519657 
L 127.053902 261.677008 
L 127.406144 258.326781 
L 127.798777 256.032041 
L 128.169994 273.649101 
L 128.496444 239.448472 
L 128.757778 257.556697 
L 130.36506 224.232619 
L 130.474909 227.023784 
L 131.495252 204.27465 
L 131.636141 213.022217 
L 132.204509 191.989901 
L 132.724833 195.885749 
L 132.959836 202.734959 
L 133.225157 197.043665 
L 133.464323 182.677748 
L 133.758704 197.911929 
L 134.063603 195.810732 
L 134.389169 172.09441 
L 134.798793 194.392438 
L 134.884776 183.26518 
L 135.591022 175.861795 
L 135.626092 176.283097 
L 135.834123 188.488261 
L 136.006281 170.354641 
L 136.262906 173.576989 
L 136.939524 185.690349 
L 137.276848 167.367329 
L 137.438316 170.964971 
L 139.067219 187.855883 
L 139.33407 154.720674 
L 139.975873 154.86566 
L 140.140539 168.776538 
L 140.360809 147.58739 
L 140.553986 170.327599 
L 141.79767 144.80717 
L 141.875132 148.194267 
L 142.098083 152.988077 
L 142.290573 161.115591 
L 143.002447 162.993492 
L 143.628968 165.691365 
L 144.211484 150.625864 
L 144.48241 148.433129 
L 145.690866 153.671457 
L 146.251631 146.713494 
L 146.482557 152.402929 
L 146.77512 156.219298 
L 147.447194 139.840482 
L 148.288874 144.397024 
L 148.639297 142.192495 
L 148.71755 148.915527 
L 148.947203 147.672926 
L 149.55616 149.050365 
L 149.962368 162.080654 
L 150.328869 139.617134 
L 150.328904 140.02882 
L 150.43728 147.702358 
L 150.599647 145.824032 
L 151.143205 163.173807 
L 151.585193 162.257622 
L 151.640435 163.017081 
L 151.777234 151.945554 
L 152.222213 166.098854 
L 153.449565 136.38076 
L 154.105033 138.538272 
L 154.136027 136.097696 
L 154.563621 142.534477 
L 156.307854 138.81751 
L 156.574057 153.923229 
L 156.740361 155.996374 
L 156.796098 154.556351 
L 156.796121 155.434391 
L 156.930458 155.733711 
L 157.298931 158.342064 
L 157.484769 155.723989 
L 157.742862 142.975914 
L 157.766917 146.486161 
L 157.976363 158.888322 
L 159.067999 150.838853 
L 159.398941 166.293407 
L 160.266779 155.92428 
L 160.524362 150.188199 
L 160.875308 139.069654 
L 162.304099 131.038088 
L 162.328733 129.161143 
L 162.504587 139.979092 
L 164.581696 142.409999 
L 165.301893 145.259551 
L 165.352698 146.065391 
L 165.440606 146.051684 
L 165.512826 155.92614 
L 165.807902 135.385255 
L 166.009795 139.326579 
L 166.235296 142.5043 
L 166.446964 132.248123 
L 166.538635 151.341281 
L 167.211877 142.055107 
L 168.928193 146.425118 
L 169.096165 137.968159 
L 169.36151 141.196936 
L 170.553993 145.970505 
L 170.645718 154.988703 
L 170.903569 147.566936 
L 170.965595 141.62541 
L 171.134723 147.656456 
L 172.293495 150.100592 
L 172.631825 147.427742 
L 173.156331 137.826627 
L 174.343699 147.602691 
L 174.76443 124.378384 
L 175.382197 141.392605 
L 175.530617 142.384763 
L 175.878648 151.453911 
L 176.236529 149.915601 
L 176.72759 140.400182 
L 176.815935 131.095679 
L 177.106259 144.829271 
L 177.133179 141.257767 
L 177.951388 145.060907 
L 178.466945 135.076211 
L 178.466979 131.556454 
L 178.863069 134.235201 
L 179.344398 140.713316 
L 179.55927 134.909922 
L 180.548229 163.9075 
L 180.792094 148.653396 
L 181.055978 155.759213 
L 181.153727 154.876816 
L 181.766969 146.242252 
L 182.281638 153.341907 
L 182.305299 152.896804 
L 182.626727 144.927185 
L 182.721528 145.643876 
L 183.936961 135.812188 
L 184.300898 151.391008 
L 184.49936 162.253637 
L 184.886658 148.586561 
L 184.943214 149.66808 
L 185.331865 146.220045 
L 185.972262 133.982208 
L 186.373789 143.614455 
L 188.344649 146.703559 
L 188.586741 154.683963 
L 188.945374 148.137473 
L 189.009606 153.738982 
L 189.030056 147.803992 
L 190.088066 142.417171 
L 190.18242 152.496168 
L 190.458132 158.753591 
L 190.885008 161.023999 
L 190.940685 144.186745 
L 192.096619 133.665727 
L 192.283644 148.05842 
L 192.656799 139.728968 
L 194.180146 141.456624 
L 194.346684 150.681967 
L 194.692831 135.553297 
L 195.217519 152.90201 
L 196.24367 152.709423 
L 196.426412 146.583704 
L 197.068898 139.091543 
L 197.120672 134.667501 
L 197.835144 140.786898 
L 198.532323 140.296689 
L 199.172677 155.365165 
L 199.535163 143.524935 
L 199.921793 136.342455 
L 200.73571 135.339193 
L 201.325934 128.938485 
L 201.667386 138.37076 
L 202.071936 131.104657 
L 202.879278 133.304565 
L 203.495215 138.905437 
L 203.571773 138.417141 
L 204.38686 135.726387 
L 204.890316 143.140929 
L 205.910353 134.866517 
L 206.316595 139.902854 
L 206.395616 143.19055 
L 207.25697 138.859906 
L 208.927009 128.686926 
L 208.958726 132.253967 
L 209.168557 140.567109 
L 209.283016 137.534797 
L 209.622076 136.345217 
L 210.800072 124.135378 
L 210.827127 125.704289 
L 211.356102 136.631894 
L 211.902618 141.964099 
L 212.066397 138.88036 
L 212.309749 130.802521 
L 213.441959 125.18162 
L 213.693122 131.503646 
L 213.867515 147.923847 
L 214.540046 135.598828 
L 215.419611 137.781681 
L 215.666827 133.284005 
L 215.725982 137.473913 
L 215.969424 125.131839 
L 216.369622 139.100043 
L 216.480384 137.73307 
L 216.587915 142.991481 
L 216.645739 140.432111 
L 217.205363 146.805671 
L 217.414249 139.030924 
L 217.76346 122.781687 
L 218.096859 134.075819 
L 218.405262 130.903941 
L 218.712156 134.689814 
L 219.0585 132.483159 
L 219.368873 138.366457 
L 220.337668 130.969713 
L 220.42334 143.570412 
L 220.56861 129.09043 
L 220.631903 136.50019 
L 221.154089 133.93349 
L 222.604795 123.698032 
L 223.147543 137.905309 
L 223.761607 136.009663 
L 223.947801 122.485447 
L 224.656348 138.886629 
L 225.219957 128.664294 
L 225.639516 117.384347 
L 225.744798 124.022429 
L 226.028823 128.001633 
L 226.108949 122.056973 
L 226.59827 132.354218 
L 226.598322 132.142186 
L 227.172514 120.628372 
L 227.847955 121.82454 
L 228.552566 108.305265 
L 229.005657 118.328956 
L 229.162678 126.679553 
L 230.292168 128.870057 
L 230.430398 128.081165 
L 230.629672 141.239651 
L 230.762892 128.149594 
L 231.565876 117.750609 
L 231.915672 115.069684 
L 232.671594 120.052522 
L 232.781877 123.642407 
L 232.781903 121.706809 
L 232.919096 124.067003 
L 233.072391 120.672202 
L 233.559988 139.242106 
L 233.593329 127.856117 
L 233.900225 134.700387 
L 233.924563 126.646136 
L 234.00016 132.236328 
L 234.803566 139.041337 
L 234.862973 137.243818 
L 235.047685 126.836439 
L 235.568627 124.638868 
L 235.835772 114.380778 
L 235.894299 105.841472 
L 236.766042 123.323641 
L 238.390324 133.127119 
L 238.442669 134.637377 
L 238.611352 131.314246 
L 239.205439 126.367375 
L 239.479589 132.021693 
L 240.534321 120.198729 
L 240.845351 118.73347 
L 241.40499 99.914078 
L 241.808381 122.6766 
L 242.18471 100.208724 
L 242.350943 104.747734 
L 242.627166 130.553033 
L 243.03935 125.270449 
L 243.175259 117.722823 
L 243.346604 117.081732 
L 243.649536 122.378501 
L 244.019997 86.863335 
L 244.07435 87.209887 
L 244.35058 107.357893 
L 244.494801 105.920101 
L 245.032338 106.70368 
L 246.563836 125.497304 
L 246.590504 131.414072 
L 246.750971 129.741297 
L 247.026067 124.312293 
L 247.821615 117.288664 
L 247.925747 111.027682 
L 248.403281 125.46139 
L 248.738811 139.092021 
L 249.379854 105.228326 
L 250.418292 115.081053 
L 250.696763 115.075581 
L 251.589811 123.3153 
L 251.749257 127.241058 
L 251.773089 120.325863 
L 252.541406 128.524781 
L 252.568838 131.371305 
L 253.013872 119.81807 
L 253.13044 122.745772 
L 253.597358 117.997758 
L 254.051306 123.176744 
L 255.398884 123.318063 
L 255.846645 116.329924 
L 256.518667 116.061895 
L 256.743445 122.231019 
L 256.743473 118.632155 
L 257.533844 117.356827 
L 258.798791 112.66295 
L 258.915334 119.956892 
L 259.637614 100.946348 
L 259.856819 136.093552 
L 260.393175 128.522868 
L 261.316252 126.57606 
L 262.622154 116.029381 
L 263.113104 115.812301 
L 263.333898 124.929317 
L 263.659604 103.568142 
L 263.906417 121.776725 
L 264.265192 87.293191 
L 264.471212 119.927034 
L 265.208758 121.187327 
L 265.371086 118.998045 
L 265.425292 114.414833 
L 266.052293 120.980767 
L 266.509822 138.751207 
L 266.644878 121.994229 
L 267.73406 120.086364 
L 267.868939 121.33396 
L 268.245043 120.891619 
L 268.567015 100.152143 
L 268.933566 123.61409 
L 269.089872 116.768279 
L 269.311821 127.068022 
L 270.122351 105.706156 
L 270.261003 132.264964 
L 270.36853 117.361502 
L 271.398909 125.396202 
L 272.244599 121.086597 
L 272.438324 112.664331 
L 272.438331 114.317981 
L 272.968425 102.359117 
L 274.27973 115.251008 
L 274.31103 99.547126 
L 274.633027 105.412095 
L 274.841749 128.505708 
L 275.095609 101.038046 
L 275.220534 117.301149 
L 275.387019 103.561129 
L 275.5506 100.050191 
L 275.727226 100.013692 
L 275.930174 123.483874 
L 276.063394 123.714129 
L 276.898066 110.550756 
L 276.951186 116.135795 
L 277.643648 120.184863 
L 278.034471 120.720389 
L 278.085637 113.065764 
L 278.1913 121.171017 
L 278.384986 126.058969 
L 278.735169 114.463976 
L 278.809402 115.088385 
L 278.915764 114.308631 
L 278.998773 117.575447 
L 279.347846 95.2049 
L 279.895803 86.276807 
L 280.744584 112.06213 
L 281.347606 108.641987 
L 281.457941 108.669401 
L 282.207403 121.150722 
L 282.426682 111.856101 
L 282.552119 119.196636 
L 282.579293 116.43501 
L 282.607782 108.400894 
L 282.958039 113.811144 
L 283.58409 96.58845 
L 284.112612 131.219572 
L 284.242344 107.703223 
L 284.269346 107.725324 
L 285.105724 114.933358 
L 285.242515 120.114522 
L 285.821483 84.118019 
L 286.026358 110.847633 
L 286.208545 116.440588 
L 286.900358 104.900263 
L 288.137665 100.180619 
L 288.265482 112.859203 
L 288.606019 111.279507 
L 289.450319 118.95039 
L 289.719953 109.374723 
L 290.983472 119.710646 
L 290.98348 119.674784 
L 291.086299 116.393783 
L 291.489997 113.887541 
L 292.103827 105.293248 
L 292.835905 119.023759 
L 292.893376 114.987761 
L 293.754611 144.110295 
L 293.936059 132.197333 
L 294.849629 112.852403 
L 294.927373 120.014482 
L 295.086984 113.648573 
L 295.510676 108.078357 
L 295.81377 125.310614 
L 296.248495 104.431093 
L 297.323491 133.537105 
L 297.801477 116.989503 
L 298.18622 123.186997 
L 299.000201 106.299219 
L 299.509576 98.884625 
L 299.783983 100.334689 
L 300.257844 101.500097 
L 300.843159 96.289341 
L 301.188521 110.392011 
L 301.885396 120.065272 
L 302.423697 102.144747 
L 302.530355 103.531962 
L 303.221558 102.536138 
L 303.221608 105.834937 
L 303.704013 90.587315 
L 303.704078 92.228798 
L 303.938427 110.403805 
L 304.248483 85.296549 
L 304.423878 89.051502 
L 305.063711 91.147705 
L 305.552754 124.242377 
L 305.716393 106.207362 
L 305.762163 108.380706 
L 306.171874 115.503736 
L 306.200626 111.506203 
L 306.234637 118.076175 
L 306.446114 131.426451 
L 307.375378 115.536091 
L 307.734769 97.462292 
L 308.004158 107.758688 
L 308.472156 120.209726 
L 308.525266 114.77185 
L 309.468057 100.234544 
L 310.002824 112.411763 
L 310.056609 110.898848 
L 310.195281 102.954837 
L 310.790259 116.337202 
L 311.150234 117.380628 
L 312.211189 118.346169 
L 314.611787 99.155947 
L 314.611794 99.39194 
L 314.879817 109.952964 
L 315.020473 121.155451 
L 315.249401 126.739906 
L 315.867949 98.810724 
L 315.944322 121.956296 
L 316.601994 98.388944 
L 317.418991 106.318717 
L 317.419101 108.57765 
L 317.636608 123.133285 
L 318.282386 122.246107 
L 319.278625 86.260071 
L 319.334779 95.844291 
L 319.385184 92.339357 
L 320.277535 115.975084 
L 320.464591 138.096994 
L 321.139982 98.442975 
L 321.582257 101.702513 
L 321.725045 112.287444 
L 322.165917 115.173123 
L 322.611796 82.778726 
L 324.863382 112.810273 
L 325.324267 106.402446 
L 325.80772 109.313786 
L 325.916565 96.622398 
L 326.126952 110.05396 
L 326.369885 102.604035 
L 326.749123 111.306284 
L 327.020974 129.36425 
L 327.47336 93.724181 
L 327.526794 102.323734 
L 327.695266 95.049927 
L 328.101882 119.412547 
L 328.481505 85.706269 
L 328.677267 115.179977 
L 329.530732 105.81443 
L 330.110601 88.198379 
L 330.428186 87.37251 
L 330.604138 89.062446 
L 330.62708 81.856856 
L 330.759959 96.760955 
L 330.846037 89.828706 
L 331.083103 97.899001 
L 331.551713 104.431359 
L 331.85034 103.563732 
L 333.033287 88.96671 
L 333.471178 116.470499 
L 334.536704 106.732741 
L 334.564756 100.376129 
L 334.900588 101.616127 
L 335.008528 98.39872 
L 335.304162 94.598608 
L 336.871884 114.985476 
L 337.315223 88.183981 
L 337.900123 112.738391 
L 338.126439 85.030327 
L 338.517541 99.99786 
L 338.693117 122.257689 
L 339.214917 96.550357 
L 339.501815 123.300425 
L 340.269542 85.708288 
L 340.445502 109.813557 
L 341.257506 102.197131 
L 341.481874 102.135609 
L 342.722927 107.653548 
L 343.238989 79.506225 
L 343.862605 107.222896 
L 344.008454 103.48505 
L 344.134786 105.646547 
L 344.772881 80.537644 
L 344.830179 92.425902 
L 345.439162 90.175204 
L 345.51316 94.501119 
L 345.857411 95.885731 
L 346.294343 81.835711 
L 346.463696 107.208445 
L 346.484793 99.630589 
L 346.712326 114.532032 
L 347.258732 109.57969 
L 348.215387 103.048501 
L 348.27005 108.688421 
L 348.431357 86.160032 
L 349.212225 96.143187 
L 349.785262 112.727288 
L 350.079207 126.118366 
L 350.169089 124.705756 
L 351.216674 103.375289 
L 351.272536 97.191607 
L 351.296644 102.056821 
L 351.349427 115.122864 
L 351.349493 106.730456 
L 351.514254 101.18404 
L 351.570205 93.888398 
L 351.732827 105.154585 
L 351.786495 103.078836 
L 352.654228 104.971348 
L 353.12279 99.615767 
L 353.56554 112.729253 
L 354.782278 108.669507 
L 355.016834 90.958039 
L 355.428238 92.486202 
L 355.428247 93.064442 
L 356.002115 84.544315 
L 356.486464 100.801734 
L 356.74589 100.002908 
L 357.309604 114.199772 
L 357.868244 97.030684 
L 358.031252 99.9204 
L 358.670788 90.621316 
L 358.807595 90.771508 
L 359.25014 120.326873 
L 359.344138 103.997519 
L 359.546722 102.260671 
L 359.793134 84.633304 
L 361.81259 95.888918 
L 361.841583 99.897556 
L 362.015946 96.732213 
L 362.101681 109.244242 
L 362.174498 98.430809 
L 363.159666 109.230163 
L 363.328465 109.431782 
L 363.894274 115.592831 
L 365.177948 110.791158 
L 365.416406 99.56843 
L 366.735717 109.043207 
L 367.066975 79.007516 
L 367.229973 104.02998 
L 367.303746 99.002037 
L 367.39523 110.982896 
L 367.631648 94.925449 
L 368.403973 102.732816 
L 368.552055 101.172034 
L 368.715534 110.183591 
L 368.734694 108.95645 
L 368.974081 107.492412 
L 369.048115 102.072228 
L 369.139035 110.538696 
L 369.833691 105.887162 
L 369.943156 84.334886 
L 370.108048 87.402527 
L 370.471755 107.578851 
L 370.527013 112.093422 
L 370.690818 85.875162 
L 370.763719 86.193609 
L 370.981678 103.247251 
L 371.127122 87.915474 
L 371.291239 109.889477 
L 372.355983 100.027718 
L 372.668151 82.547727 
L 373.782453 110.587626 
L 373.857169 103.719502 
L 374.314506 97.988521 
L 374.40847 92.65366 
L 374.940189 83.661707 
L 375.124987 100.584814 
L 375.817841 106.990516 
L 375.911844 114.579422 
L 376.347163 98.999646 
L 376.538993 84.616038 
L 376.862282 110.335642 
L 377.303007 99.676917 
L 377.419324 89.80942 
L 377.762073 82.285117 
L 377.969574 84.213118 
L 378.063395 82.586138 
L 378.28938 111.187756 
L 378.382319 99.030566 
L 378.59159 102.010281 
L 378.705207 94.932515 
L 378.781676 103.815769 
L 379.048553 113.909589 
L 379.448573 83.662716 
L 379.544121 103.947792 
L 379.60095 96.555935 
L 380.456886 106.534734 
L 380.875748 131.891265 
L 381.086927 100.890298 
L 381.445131 108.399194 
L 381.617235 130.330376 
L 381.994824 94.715436 
L 382.508793 104.472533 
L 382.584234 113.06927 
L 382.813738 98.576219 
L 382.87015 98.651554 
L 383.193 113.677209 
L 383.532677 113.24406 
L 383.800021 94.713098 
L 383.837304 97.861493 
L 384.067298 119.332271 
L 384.884106 121.827621 
L 384.902859 114.330679 
L 385.149357 111.122037 
L 385.225667 98.241781 
L 385.341577 118.758971 
L 385.512128 123.929296 
L 385.607644 115.412888 
L 385.739161 84.721708 
L 385.830299 108.829156 
L 385.994756 83.017428 
L 386.439143 94.971139 
L 386.657324 93.89929 
L 387.486428 85.524467 
L 387.632966 88.630625 
L 388.351353 94.212317 
L 388.662041 106.383055 
L 388.807562 121.575371 
L 389.430346 87.397268 
L 389.61462 114.736414 
L 389.870709 105.686711 
L 390.127321 89.761552 
L 390.510731 102.125037 
L 390.546856 101.053081 
L 390.767827 100.54024 
L 390.786594 105.463735 
L 391.248616 109.969221 
L 391.358553 96.403619 
L 391.618072 92.174502 
L 391.710001 80.013009 
L 391.858846 84.861222 
L 391.914167 99.500586 
L 392.245406 104.27017 
L 392.743186 96.51354 
L 392.927236 111.974523 
L 393.404839 92.097414 
L 393.808053 108.685286 
L 393.826293 98.395213 
L 393.994386 98.800789 
L 394.012436 99.965293 
L 394.393041 86.742151 
L 394.668423 86.078269 
L 394.992476 91.811269 
L 395.066792 96.668832 
L 395.19566 93.884998 
L 395.361879 94.235481 
L 395.473071 88.475439 
L 395.878345 86.065837 
L 396.781692 90.121598 
L 397.355734 110.326504 
L 397.374484 104.56269 
L 398.34778 100.209468 
L 399.046993 91.482515 
L 399.2113 93.555501 
L 399.341203 115.471063 
L 399.524604 87.879666 
L 399.689361 97.994525 
L 400.040032 79.054587 
L 400.882417 99.377011 
L 401.17838 98.857211 
L 401.526707 91.106371 
L 401.782438 101.26676 
L 401.85528 100.826492 
L 401.985343 123.116656 
L 402.352666 81.188298 
L 403.034282 106.356278 
L 403.290559 120.215145 
L 403.308408 128.020387 
L 403.326396 110.961645 
L 403.417325 91.587176 
L 403.693656 109.940638 
L 404.340782 102.141825 
L 405.076536 53.568 
L 405.392012 96.642162 
L 405.756403 110.476377 
L 406.363722 93.004036 
L 406.400248 98.784798 
L 406.63989 72.762525 
L 407.042759 111.477567 
L 407.427257 98.582913 
L 407.664275 116.49531 
L 408.031836 100.744038 
L 408.471026 112.958765 
L 408.507153 108.150716 
L 408.818172 106.592749 
L 408.855052 98.991677 
L 409.4045 58.808188 
L 409.404517 61.853409 
L 409.479298 76.486505 
L 409.680646 79.89905 
L 409.717655 69.449382 
L 410.009407 104.344814 
L 410.13684 72.018261 
L 410.725003 111.943815 
L 411.224009 84.224328 
L 411.643962 102.732445 
L 411.716725 92.826271 
L 411.79025 102.974228 
L 412.081036 96.667397 
L 412.630115 113.307388 
L 412.904669 104.919336 
L 413.052253 89.751139 
L 413.052292 94.609287 
L 413.345423 94.953341 
L 414.07713 78.04155 
L 414.095537 85.495087 
L 414.18653 85.302765 
L 414.481216 92.836631 
L 414.72 81.744278 
L 414.72 81.744278 
" style="fill:none;stroke:#000000;stroke-linecap:square;stroke-width:0.8;"/>
   </g>
   <g id="patch_3">
    <path d="M 57.6 307.584 
L 57.6 41.472 
" style="fill:none;stroke:#000000;stroke-linecap:square;stroke-linejoin:miter;stroke-width:0.8;"/>
   </g>
   <g id="patch_4">
    <path d="M 414.72 307.584 
L 414.72 41.472 
" style="fill:none;stroke:#000000;stroke-linecap:square;stroke-linejoin:miter;stroke-width:0.8;"/>
   </g>
   <g id="patch_5">
    <path d="M 57.6 307.584 
L 414.72 307.584 
" style="fill:none;stroke:#000000;stroke-linecap:square;stroke-linejoin:miter;stroke-width:0.8;"/>
   </g>
   <g id="patch_6">
    <path d="M 57.6 41.472 
L 414.72 41.472 
" style="fill:none;stroke:#000000;stroke-linecap:square;stroke-linejoin:miter;stroke-width:0.8;"/>
   </g>
  </g>
  <g id="axes_2">
   <g id="matplotlib.axis_3">
    <g id="xtick_7">
     <g id="line2d_30">
      <defs>
       <path d="M 0 0 
L 0 -3.5 
" id="m3fdebc8967" style="stroke:#000000;stroke-width:0.8;"/>
      </defs>
      <g>
       <use style="stroke:#000000;stroke-width:0.8;" x="57.6" xlink:href="#m3fdebc8967" y="41.472"/>
      </g>
     </g>
    </g>
    <g id="xtick_8">
     <g id="line2d_31">
      <g>
       <use style="stroke:#000000;stroke-width:0.8;" x="105.794852" xlink:href="#m3fdebc8967" y="41.472"/>
      </g>
     </g>
     <g id="text_17">
      <!-- 25.0K -->
      <defs>
       <path d="M 10.6875 12.40625 
L 21 12.40625 
L 21 0 
L 10.6875 0 
z
" id="DejaVuSans-46"/>
       <path d="M 9.8125 72.90625 
L 19.671875 72.90625 
L 19.671875 42.09375 
L 52.390625 72.90625 
L 65.09375 72.90625 
L 28.90625 38.921875 
L 67.671875 0 
L 54.6875 0 
L 19.671875 35.109375 
L 19.671875 0 
L 9.8125 0 
z
" id="DejaVuSans-75"/>
      </defs>
      <g transform="translate(91.383134 32.392313)scale(0.1 -0.1)">
       <use xlink:href="#DejaVuSans-50"/>
       <use x="63.623047" xlink:href="#DejaVuSans-53"/>
       <use x="127.246094" xlink:href="#DejaVuSans-46"/>
       <use x="159.033203" xlink:href="#DejaVuSans-48"/>
       <use x="222.65625" xlink:href="#DejaVuSans-75"/>
      </g>
     </g>
    </g>
    <g id="xtick_9">
     <g id="line2d_32">
      <g>
       <use style="stroke:#000000;stroke-width:0.8;" x="153.989705" xlink:href="#m3fdebc8967" y="41.472"/>
      </g>
     </g>
     <g id="text_18">
      <!-- 50.0K -->
      <g transform="translate(139.577986 32.392313)scale(0.1 -0.1)">
       <use xlink:href="#DejaVuSans-53"/>
       <use x="63.623047" xlink:href="#DejaVuSans-48"/>
       <use x="127.246094" xlink:href="#DejaVuSans-46"/>
       <use x="159.033203" xlink:href="#DejaVuSans-48"/>
       <use x="222.65625" xlink:href="#DejaVuSans-75"/>
      </g>
     </g>
    </g>
    <g id="xtick_10">
     <g id="line2d_33">
      <g>
       <use style="stroke:#000000;stroke-width:0.8;" x="202.184557" xlink:href="#m3fdebc8967" y="41.472"/>
      </g>
     </g>
     <g id="text_19">
      <!-- 75.0K -->
      <g transform="translate(187.772838 32.392313)scale(0.1 -0.1)">
       <use xlink:href="#DejaVuSans-55"/>
       <use x="63.623047" xlink:href="#DejaVuSans-53"/>
       <use x="127.246094" xlink:href="#DejaVuSans-46"/>
       <use x="159.033203" xlink:href="#DejaVuSans-48"/>
       <use x="222.65625" xlink:href="#DejaVuSans-75"/>
      </g>
     </g>
    </g>
    <g id="xtick_11">
     <g id="line2d_34">
      <g>
       <use style="stroke:#000000;stroke-width:0.8;" x="250.379409" xlink:href="#m3fdebc8967" y="41.472"/>
      </g>
     </g>
     <g id="text_20">
      <!-- 100K -->
      <g transform="translate(237.556753 32.392313)scale(0.1 -0.1)">
       <use xlink:href="#DejaVuSans-49"/>
       <use x="63.623047" xlink:href="#DejaVuSans-48"/>
       <use x="127.246094" xlink:href="#DejaVuSans-48"/>
       <use x="190.869141" xlink:href="#DejaVuSans-75"/>
      </g>
     </g>
    </g>
    <g id="xtick_12">
     <g id="line2d_35">
      <g>
       <use style="stroke:#000000;stroke-width:0.8;" x="298.574262" xlink:href="#m3fdebc8967" y="41.472"/>
      </g>
     </g>
     <g id="text_21">
      <!-- 125K -->
      <g transform="translate(285.751605 32.392313)scale(0.1 -0.1)">
       <use xlink:href="#DejaVuSans-49"/>
       <use x="63.623047" xlink:href="#DejaVuSans-50"/>
       <use x="127.246094" xlink:href="#DejaVuSans-53"/>
       <use x="190.869141" xlink:href="#DejaVuSans-75"/>
      </g>
     </g>
    </g>
    <g id="xtick_13">
     <g id="line2d_36">
      <g>
       <use style="stroke:#000000;stroke-width:0.8;" x="346.769114" xlink:href="#m3fdebc8967" y="41.472"/>
      </g>
     </g>
     <g id="text_22">
      <!-- 150K -->
      <g transform="translate(333.946458 32.392313)scale(0.1 -0.1)">
       <use xlink:href="#DejaVuSans-49"/>
       <use x="63.623047" xlink:href="#DejaVuSans-53"/>
       <use x="127.246094" xlink:href="#DejaVuSans-48"/>
       <use x="190.869141" xlink:href="#DejaVuSans-75"/>
      </g>
     </g>
    </g>
    <g id="xtick_14">
     <g id="line2d_37">
      <g>
       <use style="stroke:#000000;stroke-width:0.8;" x="394.963966" xlink:href="#m3fdebc8967" y="41.472"/>
      </g>
     </g>
     <g id="text_23">
      <!-- 175K -->
      <g transform="translate(382.14131 32.392313)scale(0.1 -0.1)">
       <use xlink:href="#DejaVuSans-49"/>
       <use x="63.623047" xlink:href="#DejaVuSans-55"/>
       <use x="127.246094" xlink:href="#DejaVuSans-53"/>
       <use x="190.869141" xlink:href="#DejaVuSans-75"/>
      </g>
     </g>
    </g>
    <g id="text_24">
     <!-- Episodes -->
     <defs>
      <path d="M 9.8125 72.90625 
L 55.90625 72.90625 
L 55.90625 64.59375 
L 19.671875 64.59375 
L 19.671875 43.015625 
L 54.390625 43.015625 
L 54.390625 34.71875 
L 19.671875 34.71875 
L 19.671875 8.296875 
L 56.78125 8.296875 
L 56.78125 0 
L 9.8125 0 
z
" id="DejaVuSans-69"/>
      <path d="M 18.109375 8.203125 
L 18.109375 -20.796875 
L 9.078125 -20.796875 
L 9.078125 54.6875 
L 18.109375 54.6875 
L 18.109375 46.390625 
Q 20.953125 51.265625 25.265625 53.625 
Q 29.59375 56 35.59375 56 
Q 45.5625 56 51.78125 48.09375 
Q 58.015625 40.1875 58.015625 27.296875 
Q 58.015625 14.40625 51.78125 6.484375 
Q 45.5625 -1.421875 35.59375 -1.421875 
Q 29.59375 -1.421875 25.265625 0.953125 
Q 20.953125 3.328125 18.109375 8.203125 
z
M 48.6875 27.296875 
Q 48.6875 37.203125 44.609375 42.84375 
Q 40.53125 48.484375 33.40625 48.484375 
Q 26.265625 48.484375 22.1875 42.84375 
Q 18.109375 37.203125 18.109375 27.296875 
Q 18.109375 17.390625 22.1875 11.75 
Q 26.265625 6.109375 33.40625 6.109375 
Q 40.53125 6.109375 44.609375 11.75 
Q 48.6875 17.390625 48.6875 27.296875 
z
" id="DejaVuSans-112"/>
      <path d="M 9.421875 54.6875 
L 18.40625 54.6875 
L 18.40625 0 
L 9.421875 0 
z
M 9.421875 75.984375 
L 18.40625 75.984375 
L 18.40625 64.59375 
L 9.421875 64.59375 
z
" id="DejaVuSans-105"/>
     </defs>
     <g transform="translate(213.917812 20.793875)scale(0.1 -0.1)">
      <use xlink:href="#DejaVuSans-69"/>
      <use x="63.183594" xlink:href="#DejaVuSans-112"/>
      <use x="126.660156" xlink:href="#DejaVuSans-105"/>
      <use x="154.443359" xlink:href="#DejaVuSans-115"/>
      <use x="206.542969" xlink:href="#DejaVuSans-111"/>
      <use x="267.724609" xlink:href="#DejaVuSans-100"/>
      <use x="331.201172" xlink:href="#DejaVuSans-101"/>
      <use x="392.724609" xlink:href="#DejaVuSans-115"/>
     </g>
    </g>
   </g>
   <g id="patch_7">
    <path d="M 57.6 307.584 
L 57.6 41.472 
" style="fill:none;stroke:#000000;stroke-linecap:square;stroke-linejoin:miter;stroke-width:0.8;"/>
   </g>
   <g id="patch_8">
    <path d="M 414.72 307.584 
L 414.72 41.472 
" style="fill:none;stroke:#000000;stroke-linecap:square;stroke-linejoin:miter;stroke-width:0.8;"/>
   </g>
   <g id="patch_9">
    <path d="M 57.6 307.584 
L 414.72 307.584 
" style="fill:none;stroke:#000000;stroke-linecap:square;stroke-linejoin:miter;stroke-width:0.8;"/>
   </g>
   <g id="patch_10">
    <path d="M 57.6 41.472 
L 414.72 41.472 
" style="fill:none;stroke:#000000;stroke-linecap:square;stroke-linejoin:miter;stroke-width:0.8;"/>
   </g>
  </g>
 </g>
 <defs>
  <clipPath id="p32aedd6208">
   <rect height="266.112" width="357.12" x="57.6" y="41.472"/>
  </clipPath>
 </defs>
</svg>
