<?xml version="1.0" encoding="utf-8" standalone="no"?>
<!DOCTYPE svg PUBLIC "-//W3C//DTD SVG 1.1//EN"
  "http://www.w3.org/Graphics/SVG/1.1/DTD/svg11.dtd">
<!-- Created with matplotlib (https://matplotlib.org/) -->
<svg height="345.6pt" version="1.1" viewBox="0 0 460.8 345.6" width="460.8pt" xmlns="http://www.w3.org/2000/svg" xmlns:xlink="http://www.w3.org/1999/xlink">
 <defs>
  <style type="text/css">
*{stroke-linecap:butt;stroke-linejoin:round;}
  </style>
 </defs>
 <g id="figure_1">
  <g id="patch_1">
   <path d="M 0 345.6 
L 460.8 345.6 
L 460.8 0 
L 0 0 
z
" style="fill:#ffffff;"/>
  </g>
  <g id="axes_1">
   <g id="patch_2">
    <path d="M 57.6 307.584 
L 414.72 307.584 
L 414.72 41.472 
L 57.6 41.472 
z
" style="fill:#ffffff;"/>
   </g>
   <g id="matplotlib.axis_1">
    <g id="xtick_1">
     <g id="line2d_1">
      <path clip-path="url(#p894bea2c33)" d="M 57.6 307.584 
L 57.6 41.472 
" style="fill:none;stroke:#b0b0b0;stroke-linecap:square;stroke-width:0.8;"/>
     </g>
     <g id="line2d_2">
      <defs>
       <path d="M 0 0 
L 0 3.5 
" id="md03ca3a957" style="stroke:#000000;stroke-width:0.8;"/>
      </defs>
      <g>
       <use style="stroke:#000000;stroke-width:0.8;" x="57.6" xlink:href="#md03ca3a957" y="307.584"/>
      </g>
     </g>
     <g id="text_1">
      <!-- 0 -->
      <defs>
       <path d="M 31.78125 66.40625 
Q 24.171875 66.40625 20.328125 58.90625 
Q 16.5 51.421875 16.5 36.375 
Q 16.5 21.390625 20.328125 13.890625 
Q 24.171875 6.390625 31.78125 6.390625 
Q 39.453125 6.390625 43.28125 13.890625 
Q 47.125 21.390625 47.125 36.375 
Q 47.125 51.421875 43.28125 58.90625 
Q 39.453125 66.40625 31.78125 66.40625 
z
M 31.78125 74.21875 
Q 44.046875 74.21875 50.515625 64.515625 
Q 56.984375 54.828125 56.984375 36.375 
Q 56.984375 17.96875 50.515625 8.265625 
Q 44.046875 -1.421875 31.78125 -1.421875 
Q 19.53125 -1.421875 13.0625 8.265625 
Q 6.59375 17.96875 6.59375 36.375 
Q 6.59375 54.828125 13.0625 64.515625 
Q 19.53125 74.21875 31.78125 74.21875 
z
" id="DejaVuSans-48"/>
      </defs>
      <g transform="translate(54.41875 322.182437)scale(0.1 -0.1)">
       <use xlink:href="#DejaVuSans-48"/>
      </g>
     </g>
    </g>
    <g id="xtick_2">
     <g id="line2d_3">
      <path clip-path="url(#p894bea2c33)" d="M 119.062135 307.584 
L 119.062135 41.472 
" style="fill:none;stroke:#b0b0b0;stroke-linecap:square;stroke-width:0.8;"/>
     </g>
     <g id="line2d_4">
      <g>
       <use style="stroke:#000000;stroke-width:0.8;" x="119.062135" xlink:href="#md03ca3a957" y="307.584"/>
      </g>
     </g>
     <g id="text_2">
      <!-- 1 -->
      <defs>
       <path d="M 12.40625 8.296875 
L 28.515625 8.296875 
L 28.515625 63.921875 
L 10.984375 60.40625 
L 10.984375 69.390625 
L 28.421875 72.90625 
L 38.28125 72.90625 
L 38.28125 8.296875 
L 54.390625 8.296875 
L 54.390625 0 
L 12.40625 0 
z
" id="DejaVuSans-49"/>
      </defs>
      <g transform="translate(115.880885 322.182437)scale(0.1 -0.1)">
       <use xlink:href="#DejaVuSans-49"/>
      </g>
     </g>
    </g>
    <g id="xtick_3">
     <g id="line2d_5">
      <path clip-path="url(#p894bea2c33)" d="M 180.52427 307.584 
L 180.52427 41.472 
" style="fill:none;stroke:#b0b0b0;stroke-linecap:square;stroke-width:0.8;"/>
     </g>
     <g id="line2d_6">
      <g>
       <use style="stroke:#000000;stroke-width:0.8;" x="180.52427" xlink:href="#md03ca3a957" y="307.584"/>
      </g>
     </g>
     <g id="text_3">
      <!-- 2 -->
      <defs>
       <path d="M 19.1875 8.296875 
L 53.609375 8.296875 
L 53.609375 0 
L 7.328125 0 
L 7.328125 8.296875 
Q 12.9375 14.109375 22.625 23.890625 
Q 32.328125 33.6875 34.8125 36.53125 
Q 39.546875 41.84375 41.421875 45.53125 
Q 43.3125 49.21875 43.3125 52.78125 
Q 43.3125 58.59375 39.234375 62.25 
Q 35.15625 65.921875 28.609375 65.921875 
Q 23.96875 65.921875 18.8125 64.3125 
Q 13.671875 62.703125 7.8125 59.421875 
L 7.8125 69.390625 
Q 13.765625 71.78125 18.9375 73 
Q 24.125 74.21875 28.421875 74.21875 
Q 39.75 74.21875 46.484375 68.546875 
Q 53.21875 62.890625 53.21875 53.421875 
Q 53.21875 48.921875 51.53125 44.890625 
Q 49.859375 40.875 45.40625 35.40625 
Q 44.1875 33.984375 37.640625 27.21875 
Q 31.109375 20.453125 19.1875 8.296875 
z
" id="DejaVuSans-50"/>
      </defs>
      <g transform="translate(177.34302 322.182437)scale(0.1 -0.1)">
       <use xlink:href="#DejaVuSans-50"/>
      </g>
     </g>
    </g>
    <g id="xtick_4">
     <g id="line2d_7">
      <path clip-path="url(#p894bea2c33)" d="M 241.986405 307.584 
L 241.986405 41.472 
" style="fill:none;stroke:#b0b0b0;stroke-linecap:square;stroke-width:0.8;"/>
     </g>
     <g id="line2d_8">
      <g>
       <use style="stroke:#000000;stroke-width:0.8;" x="241.986405" xlink:href="#md03ca3a957" y="307.584"/>
      </g>
     </g>
     <g id="text_4">
      <!-- 3 -->
      <defs>
       <path d="M 40.578125 39.3125 
Q 47.65625 37.796875 51.625 33 
Q 55.609375 28.21875 55.609375 21.1875 
Q 55.609375 10.40625 48.1875 4.484375 
Q 40.765625 -1.421875 27.09375 -1.421875 
Q 22.515625 -1.421875 17.65625 -0.515625 
Q 12.796875 0.390625 7.625 2.203125 
L 7.625 11.71875 
Q 11.71875 9.328125 16.59375 8.109375 
Q 21.484375 6.890625 26.8125 6.890625 
Q 36.078125 6.890625 40.9375 10.546875 
Q 45.796875 14.203125 45.796875 21.1875 
Q 45.796875 27.640625 41.28125 31.265625 
Q 36.765625 34.90625 28.71875 34.90625 
L 20.21875 34.90625 
L 20.21875 43.015625 
L 29.109375 43.015625 
Q 36.375 43.015625 40.234375 45.921875 
Q 44.09375 48.828125 44.09375 54.296875 
Q 44.09375 59.90625 40.109375 62.90625 
Q 36.140625 65.921875 28.71875 65.921875 
Q 24.65625 65.921875 20.015625 65.03125 
Q 15.375 64.15625 9.8125 62.3125 
L 9.8125 71.09375 
Q 15.4375 72.65625 20.34375 73.4375 
Q 25.25 74.21875 29.59375 74.21875 
Q 40.828125 74.21875 47.359375 69.109375 
Q 53.90625 64.015625 53.90625 55.328125 
Q 53.90625 49.265625 50.4375 45.09375 
Q 46.96875 40.921875 40.578125 39.3125 
z
" id="DejaVuSans-51"/>
      </defs>
      <g transform="translate(238.805155 322.182437)scale(0.1 -0.1)">
       <use xlink:href="#DejaVuSans-51"/>
      </g>
     </g>
    </g>
    <g id="xtick_5">
     <g id="line2d_9">
      <path clip-path="url(#p894bea2c33)" d="M 303.44854 307.584 
L 303.44854 41.472 
" style="fill:none;stroke:#b0b0b0;stroke-linecap:square;stroke-width:0.8;"/>
     </g>
     <g id="line2d_10">
      <g>
       <use style="stroke:#000000;stroke-width:0.8;" x="303.44854" xlink:href="#md03ca3a957" y="307.584"/>
      </g>
     </g>
     <g id="text_5">
      <!-- 4 -->
      <defs>
       <path d="M 37.796875 64.3125 
L 12.890625 25.390625 
L 37.796875 25.390625 
z
M 35.203125 72.90625 
L 47.609375 72.90625 
L 47.609375 25.390625 
L 58.015625 25.390625 
L 58.015625 17.1875 
L 47.609375 17.1875 
L 47.609375 0 
L 37.796875 0 
L 37.796875 17.1875 
L 4.890625 17.1875 
L 4.890625 26.703125 
z
" id="DejaVuSans-52"/>
      </defs>
      <g transform="translate(300.26729 322.182437)scale(0.1 -0.1)">
       <use xlink:href="#DejaVuSans-52"/>
      </g>
     </g>
    </g>
    <g id="xtick_6">
     <g id="line2d_11">
      <path clip-path="url(#p894bea2c33)" d="M 364.910675 307.584 
L 364.910675 41.472 
" style="fill:none;stroke:#b0b0b0;stroke-linecap:square;stroke-width:0.8;"/>
     </g>
     <g id="line2d_12">
      <g>
       <use style="stroke:#000000;stroke-width:0.8;" x="364.910675" xlink:href="#md03ca3a957" y="307.584"/>
      </g>
     </g>
     <g id="text_6">
      <!-- 5 -->
      <defs>
       <path d="M 10.796875 72.90625 
L 49.515625 72.90625 
L 49.515625 64.59375 
L 19.828125 64.59375 
L 19.828125 46.734375 
Q 21.96875 47.46875 24.109375 47.828125 
Q 26.265625 48.1875 28.421875 48.1875 
Q 40.625 48.1875 47.75 41.5 
Q 54.890625 34.8125 54.890625 23.390625 
Q 54.890625 11.625 47.5625 5.09375 
Q 40.234375 -1.421875 26.90625 -1.421875 
Q 22.3125 -1.421875 17.546875 -0.640625 
Q 12.796875 0.140625 7.71875 1.703125 
L 7.71875 11.625 
Q 12.109375 9.234375 16.796875 8.0625 
Q 21.484375 6.890625 26.703125 6.890625 
Q 35.15625 6.890625 40.078125 11.328125 
Q 45.015625 15.765625 45.015625 23.390625 
Q 45.015625 31 40.078125 35.4375 
Q 35.15625 39.890625 26.703125 39.890625 
Q 22.75 39.890625 18.8125 39.015625 
Q 14.890625 38.140625 10.796875 36.28125 
z
" id="DejaVuSans-53"/>
      </defs>
      <g transform="translate(361.729425 322.182437)scale(0.1 -0.1)">
       <use xlink:href="#DejaVuSans-53"/>
      </g>
     </g>
    </g>
    <g id="text_7">
     <!-- Hours -->
     <defs>
      <path d="M 9.8125 72.90625 
L 19.671875 72.90625 
L 19.671875 43.015625 
L 55.515625 43.015625 
L 55.515625 72.90625 
L 65.375 72.90625 
L 65.375 0 
L 55.515625 0 
L 55.515625 34.71875 
L 19.671875 34.71875 
L 19.671875 0 
L 9.8125 0 
z
" id="DejaVuSans-72"/>
      <path d="M 30.609375 48.390625 
Q 23.390625 48.390625 19.1875 42.75 
Q 14.984375 37.109375 14.984375 27.296875 
Q 14.984375 17.484375 19.15625 11.84375 
Q 23.34375 6.203125 30.609375 6.203125 
Q 37.796875 6.203125 41.984375 11.859375 
Q 46.1875 17.53125 46.1875 27.296875 
Q 46.1875 37.015625 41.984375 42.703125 
Q 37.796875 48.390625 30.609375 48.390625 
z
M 30.609375 56 
Q 42.328125 56 49.015625 48.375 
Q 55.71875 40.765625 55.71875 27.296875 
Q 55.71875 13.875 49.015625 6.21875 
Q 42.328125 -1.421875 30.609375 -1.421875 
Q 18.84375 -1.421875 12.171875 6.21875 
Q 5.515625 13.875 5.515625 27.296875 
Q 5.515625 40.765625 12.171875 48.375 
Q 18.84375 56 30.609375 56 
z
" id="DejaVuSans-111"/>
      <path d="M 8.5 21.578125 
L 8.5 54.6875 
L 17.484375 54.6875 
L 17.484375 21.921875 
Q 17.484375 14.15625 20.5 10.265625 
Q 23.53125 6.390625 29.59375 6.390625 
Q 36.859375 6.390625 41.078125 11.03125 
Q 45.3125 15.671875 45.3125 23.6875 
L 45.3125 54.6875 
L 54.296875 54.6875 
L 54.296875 0 
L 45.3125 0 
L 45.3125 8.40625 
Q 42.046875 3.421875 37.71875 1 
Q 33.40625 -1.421875 27.6875 -1.421875 
Q 18.265625 -1.421875 13.375 4.4375 
Q 8.5 10.296875 8.5 21.578125 
z
M 31.109375 56 
z
" id="DejaVuSans-117"/>
      <path d="M 41.109375 46.296875 
Q 39.59375 47.171875 37.8125 47.578125 
Q 36.03125 48 33.890625 48 
Q 26.265625 48 22.1875 43.046875 
Q 18.109375 38.09375 18.109375 28.8125 
L 18.109375 0 
L 9.078125 0 
L 9.078125 54.6875 
L 18.109375 54.6875 
L 18.109375 46.1875 
Q 20.953125 51.171875 25.484375 53.578125 
Q 30.03125 56 36.53125 56 
Q 37.453125 56 38.578125 55.875 
Q 39.703125 55.765625 41.0625 55.515625 
z
" id="DejaVuSans-114"/>
      <path d="M 44.28125 53.078125 
L 44.28125 44.578125 
Q 40.484375 46.53125 36.375 47.5 
Q 32.28125 48.484375 27.875 48.484375 
Q 21.1875 48.484375 17.84375 46.4375 
Q 14.5 44.390625 14.5 40.28125 
Q 14.5 37.15625 16.890625 35.375 
Q 19.28125 33.59375 26.515625 31.984375 
L 29.59375 31.296875 
Q 39.15625 29.25 43.1875 25.515625 
Q 47.21875 21.78125 47.21875 15.09375 
Q 47.21875 7.46875 41.1875 3.015625 
Q 35.15625 -1.421875 24.609375 -1.421875 
Q 20.21875 -1.421875 15.453125 -0.5625 
Q 10.6875 0.296875 5.421875 2 
L 5.421875 11.28125 
Q 10.40625 8.6875 15.234375 7.390625 
Q 20.0625 6.109375 24.8125 6.109375 
Q 31.15625 6.109375 34.5625 8.28125 
Q 37.984375 10.453125 37.984375 14.40625 
Q 37.984375 18.0625 35.515625 20.015625 
Q 33.0625 21.96875 24.703125 23.78125 
L 21.578125 24.515625 
Q 13.234375 26.265625 9.515625 29.90625 
Q 5.8125 33.546875 5.8125 39.890625 
Q 5.8125 47.609375 11.28125 51.796875 
Q 16.75 56 26.8125 56 
Q 31.78125 56 36.171875 55.265625 
Q 40.578125 54.546875 44.28125 53.078125 
z
" id="DejaVuSans-115"/>
     </defs>
     <g transform="translate(221.511562 335.860562)scale(0.1 -0.1)">
      <use xlink:href="#DejaVuSans-72"/>
      <use x="75.195312" xlink:href="#DejaVuSans-111"/>
      <use x="136.376953" xlink:href="#DejaVuSans-117"/>
      <use x="199.755859" xlink:href="#DejaVuSans-114"/>
      <use x="240.869141" xlink:href="#DejaVuSans-115"/>
     </g>
    </g>
   </g>
   <g id="matplotlib.axis_2">
    <g id="ytick_1">
     <g id="line2d_13">
      <path clip-path="url(#p894bea2c33)" d="M 57.6 296.056275 
L 414.72 296.056275 
" style="fill:none;stroke:#b0b0b0;stroke-linecap:square;stroke-width:0.8;"/>
     </g>
     <g id="line2d_14">
      <defs>
       <path d="M 0 0 
L -3.5 0 
" id="m3ad4ef9e35" style="stroke:#000000;stroke-width:0.8;"/>
      </defs>
      <g>
       <use style="stroke:#000000;stroke-width:0.8;" x="57.6" xlink:href="#m3ad4ef9e35" y="296.056275"/>
      </g>
     </g>
     <g id="text_8">
      <!-- −1.1 -->
      <defs>
       <path d="M 10.59375 35.5 
L 73.1875 35.5 
L 73.1875 27.203125 
L 10.59375 27.203125 
z
" id="DejaVuSans-8722"/>
       <path d="M 10.6875 12.40625 
L 21 12.40625 
L 21 0 
L 10.6875 0 
z
" id="DejaVuSans-46"/>
      </defs>
      <g transform="translate(26.317187 299.855493)scale(0.1 -0.1)">
       <use xlink:href="#DejaVuSans-8722"/>
       <use x="83.789062" xlink:href="#DejaVuSans-49"/>
       <use x="147.412109" xlink:href="#DejaVuSans-46"/>
       <use x="179.199219" xlink:href="#DejaVuSans-49"/>
      </g>
     </g>
    </g>
    <g id="ytick_2">
     <g id="line2d_15">
      <path clip-path="url(#p894bea2c33)" d="M 57.6 264.152271 
L 414.72 264.152271 
" style="fill:none;stroke:#b0b0b0;stroke-linecap:square;stroke-width:0.8;"/>
     </g>
     <g id="line2d_16">
      <g>
       <use style="stroke:#000000;stroke-width:0.8;" x="57.6" xlink:href="#m3ad4ef9e35" y="264.152271"/>
      </g>
     </g>
     <g id="text_9">
      <!-- −1.0 -->
      <g transform="translate(26.317187 267.951489)scale(0.1 -0.1)">
       <use xlink:href="#DejaVuSans-8722"/>
       <use x="83.789062" xlink:href="#DejaVuSans-49"/>
       <use x="147.412109" xlink:href="#DejaVuSans-46"/>
       <use x="179.199219" xlink:href="#DejaVuSans-48"/>
      </g>
     </g>
    </g>
    <g id="ytick_3">
     <g id="line2d_17">
      <path clip-path="url(#p894bea2c33)" d="M 57.6 232.248267 
L 414.72 232.248267 
" style="fill:none;stroke:#b0b0b0;stroke-linecap:square;stroke-width:0.8;"/>
     </g>
     <g id="line2d_18">
      <g>
       <use style="stroke:#000000;stroke-width:0.8;" x="57.6" xlink:href="#m3ad4ef9e35" y="232.248267"/>
      </g>
     </g>
     <g id="text_10">
      <!-- −0.9 -->
      <defs>
       <path d="M 10.984375 1.515625 
L 10.984375 10.5 
Q 14.703125 8.734375 18.5 7.8125 
Q 22.3125 6.890625 25.984375 6.890625 
Q 35.75 6.890625 40.890625 13.453125 
Q 46.046875 20.015625 46.78125 33.40625 
Q 43.953125 29.203125 39.59375 26.953125 
Q 35.25 24.703125 29.984375 24.703125 
Q 19.046875 24.703125 12.671875 31.3125 
Q 6.296875 37.9375 6.296875 49.421875 
Q 6.296875 60.640625 12.9375 67.421875 
Q 19.578125 74.21875 30.609375 74.21875 
Q 43.265625 74.21875 49.921875 64.515625 
Q 56.59375 54.828125 56.59375 36.375 
Q 56.59375 19.140625 48.40625 8.859375 
Q 40.234375 -1.421875 26.421875 -1.421875 
Q 22.703125 -1.421875 18.890625 -0.6875 
Q 15.09375 0.046875 10.984375 1.515625 
z
M 30.609375 32.421875 
Q 37.25 32.421875 41.125 36.953125 
Q 45.015625 41.5 45.015625 49.421875 
Q 45.015625 57.28125 41.125 61.84375 
Q 37.25 66.40625 30.609375 66.40625 
Q 23.96875 66.40625 20.09375 61.84375 
Q 16.21875 57.28125 16.21875 49.421875 
Q 16.21875 41.5 20.09375 36.953125 
Q 23.96875 32.421875 30.609375 32.421875 
z
" id="DejaVuSans-57"/>
      </defs>
      <g transform="translate(26.317187 236.047486)scale(0.1 -0.1)">
       <use xlink:href="#DejaVuSans-8722"/>
       <use x="83.789062" xlink:href="#DejaVuSans-48"/>
       <use x="147.412109" xlink:href="#DejaVuSans-46"/>
       <use x="179.199219" xlink:href="#DejaVuSans-57"/>
      </g>
     </g>
    </g>
    <g id="ytick_4">
     <g id="line2d_19">
      <path clip-path="url(#p894bea2c33)" d="M 57.6 200.344263 
L 414.72 200.344263 
" style="fill:none;stroke:#b0b0b0;stroke-linecap:square;stroke-width:0.8;"/>
     </g>
     <g id="line2d_20">
      <g>
       <use style="stroke:#000000;stroke-width:0.8;" x="57.6" xlink:href="#m3ad4ef9e35" y="200.344263"/>
      </g>
     </g>
     <g id="text_11">
      <!-- −0.8 -->
      <defs>
       <path d="M 31.78125 34.625 
Q 24.75 34.625 20.71875 30.859375 
Q 16.703125 27.09375 16.703125 20.515625 
Q 16.703125 13.921875 20.71875 10.15625 
Q 24.75 6.390625 31.78125 6.390625 
Q 38.8125 6.390625 42.859375 10.171875 
Q 46.921875 13.96875 46.921875 20.515625 
Q 46.921875 27.09375 42.890625 30.859375 
Q 38.875 34.625 31.78125 34.625 
z
M 21.921875 38.8125 
Q 15.578125 40.375 12.03125 44.71875 
Q 8.5 49.078125 8.5 55.328125 
Q 8.5 64.0625 14.71875 69.140625 
Q 20.953125 74.21875 31.78125 74.21875 
Q 42.671875 74.21875 48.875 69.140625 
Q 55.078125 64.0625 55.078125 55.328125 
Q 55.078125 49.078125 51.53125 44.71875 
Q 48 40.375 41.703125 38.8125 
Q 48.828125 37.15625 52.796875 32.3125 
Q 56.78125 27.484375 56.78125 20.515625 
Q 56.78125 9.90625 50.3125 4.234375 
Q 43.84375 -1.421875 31.78125 -1.421875 
Q 19.734375 -1.421875 13.25 4.234375 
Q 6.78125 9.90625 6.78125 20.515625 
Q 6.78125 27.484375 10.78125 32.3125 
Q 14.796875 37.15625 21.921875 38.8125 
z
M 18.3125 54.390625 
Q 18.3125 48.734375 21.84375 45.5625 
Q 25.390625 42.390625 31.78125 42.390625 
Q 38.140625 42.390625 41.71875 45.5625 
Q 45.3125 48.734375 45.3125 54.390625 
Q 45.3125 60.0625 41.71875 63.234375 
Q 38.140625 66.40625 31.78125 66.40625 
Q 25.390625 66.40625 21.84375 63.234375 
Q 18.3125 60.0625 18.3125 54.390625 
z
" id="DejaVuSans-56"/>
      </defs>
      <g transform="translate(26.317187 204.143482)scale(0.1 -0.1)">
       <use xlink:href="#DejaVuSans-8722"/>
       <use x="83.789062" xlink:href="#DejaVuSans-48"/>
       <use x="147.412109" xlink:href="#DejaVuSans-46"/>
       <use x="179.199219" xlink:href="#DejaVuSans-56"/>
      </g>
     </g>
    </g>
    <g id="ytick_5">
     <g id="line2d_21">
      <path clip-path="url(#p894bea2c33)" d="M 57.6 168.440259 
L 414.72 168.440259 
" style="fill:none;stroke:#b0b0b0;stroke-linecap:square;stroke-width:0.8;"/>
     </g>
     <g id="line2d_22">
      <g>
       <use style="stroke:#000000;stroke-width:0.8;" x="57.6" xlink:href="#m3ad4ef9e35" y="168.440259"/>
      </g>
     </g>
     <g id="text_12">
      <!-- −0.7 -->
      <defs>
       <path d="M 8.203125 72.90625 
L 55.078125 72.90625 
L 55.078125 68.703125 
L 28.609375 0 
L 18.3125 0 
L 43.21875 64.59375 
L 8.203125 64.59375 
z
" id="DejaVuSans-55"/>
      </defs>
      <g transform="translate(26.317187 172.239478)scale(0.1 -0.1)">
       <use xlink:href="#DejaVuSans-8722"/>
       <use x="83.789062" xlink:href="#DejaVuSans-48"/>
       <use x="147.412109" xlink:href="#DejaVuSans-46"/>
       <use x="179.199219" xlink:href="#DejaVuSans-55"/>
      </g>
     </g>
    </g>
    <g id="ytick_6">
     <g id="line2d_23">
      <path clip-path="url(#p894bea2c33)" d="M 57.6 136.536256 
L 414.72 136.536256 
" style="fill:none;stroke:#b0b0b0;stroke-linecap:square;stroke-width:0.8;"/>
     </g>
     <g id="line2d_24">
      <g>
       <use style="stroke:#000000;stroke-width:0.8;" x="57.6" xlink:href="#m3ad4ef9e35" y="136.536256"/>
      </g>
     </g>
     <g id="text_13">
      <!-- −0.6 -->
      <defs>
       <path d="M 33.015625 40.375 
Q 26.375 40.375 22.484375 35.828125 
Q 18.609375 31.296875 18.609375 23.390625 
Q 18.609375 15.53125 22.484375 10.953125 
Q 26.375 6.390625 33.015625 6.390625 
Q 39.65625 6.390625 43.53125 10.953125 
Q 47.40625 15.53125 47.40625 23.390625 
Q 47.40625 31.296875 43.53125 35.828125 
Q 39.65625 40.375 33.015625 40.375 
z
M 52.59375 71.296875 
L 52.59375 62.3125 
Q 48.875 64.0625 45.09375 64.984375 
Q 41.3125 65.921875 37.59375 65.921875 
Q 27.828125 65.921875 22.671875 59.328125 
Q 17.53125 52.734375 16.796875 39.40625 
Q 19.671875 43.65625 24.015625 45.921875 
Q 28.375 48.1875 33.59375 48.1875 
Q 44.578125 48.1875 50.953125 41.515625 
Q 57.328125 34.859375 57.328125 23.390625 
Q 57.328125 12.15625 50.6875 5.359375 
Q 44.046875 -1.421875 33.015625 -1.421875 
Q 20.359375 -1.421875 13.671875 8.265625 
Q 6.984375 17.96875 6.984375 36.375 
Q 6.984375 53.65625 15.1875 63.9375 
Q 23.390625 74.21875 37.203125 74.21875 
Q 40.921875 74.21875 44.703125 73.484375 
Q 48.484375 72.75 52.59375 71.296875 
z
" id="DejaVuSans-54"/>
      </defs>
      <g transform="translate(26.317187 140.335474)scale(0.1 -0.1)">
       <use xlink:href="#DejaVuSans-8722"/>
       <use x="83.789062" xlink:href="#DejaVuSans-48"/>
       <use x="147.412109" xlink:href="#DejaVuSans-46"/>
       <use x="179.199219" xlink:href="#DejaVuSans-54"/>
      </g>
     </g>
    </g>
    <g id="ytick_7">
     <g id="line2d_25">
      <path clip-path="url(#p894bea2c33)" d="M 57.6 104.632252 
L 414.72 104.632252 
" style="fill:none;stroke:#b0b0b0;stroke-linecap:square;stroke-width:0.8;"/>
     </g>
     <g id="line2d_26">
      <g>
       <use style="stroke:#000000;stroke-width:0.8;" x="57.6" xlink:href="#m3ad4ef9e35" y="104.632252"/>
      </g>
     </g>
     <g id="text_14">
      <!-- −0.5 -->
      <g transform="translate(26.317187 108.43147)scale(0.1 -0.1)">
       <use xlink:href="#DejaVuSans-8722"/>
       <use x="83.789062" xlink:href="#DejaVuSans-48"/>
       <use x="147.412109" xlink:href="#DejaVuSans-46"/>
       <use x="179.199219" xlink:href="#DejaVuSans-53"/>
      </g>
     </g>
    </g>
    <g id="ytick_8">
     <g id="line2d_27">
      <path clip-path="url(#p894bea2c33)" d="M 57.6 72.728248 
L 414.72 72.728248 
" style="fill:none;stroke:#b0b0b0;stroke-linecap:square;stroke-width:0.8;"/>
     </g>
     <g id="line2d_28">
      <g>
       <use style="stroke:#000000;stroke-width:0.8;" x="57.6" xlink:href="#m3ad4ef9e35" y="72.728248"/>
      </g>
     </g>
     <g id="text_15">
      <!-- −0.4 -->
      <g transform="translate(26.317187 76.527467)scale(0.1 -0.1)">
       <use xlink:href="#DejaVuSans-8722"/>
       <use x="83.789062" xlink:href="#DejaVuSans-48"/>
       <use x="147.412109" xlink:href="#DejaVuSans-46"/>
       <use x="179.199219" xlink:href="#DejaVuSans-52"/>
      </g>
     </g>
    </g>
    <g id="text_16">
     <!-- Loss -->
     <defs>
      <path d="M 9.8125 72.90625 
L 19.671875 72.90625 
L 19.671875 8.296875 
L 55.171875 8.296875 
L 55.171875 0 
L 9.8125 0 
z
" id="DejaVuSans-76"/>
     </defs>
     <g transform="translate(20.2375 185.581906)rotate(-90)scale(0.1 -0.1)">
      <use xlink:href="#DejaVuSans-76"/>
      <use x="55.697266" xlink:href="#DejaVuSans-111"/>
      <use x="116.878906" xlink:href="#DejaVuSans-115"/>
      <use x="168.978516" xlink:href="#DejaVuSans-115"/>
     </g>
    </g>
   </g>
   <g id="line2d_29">
    <path clip-path="url(#p894bea2c33)" d="M 57.6 293.825788 
L 58.012066 287.229425 
L 58.194817 295.137911 
L 58.697886 292.664388 
L 58.768381 288.802603 
L 58.860997 291.937625 
L 59.203111 295.289812 
L 59.681529 282.885691 
L 59.778714 291.949871 
L 60.40036 295.286275 
L 60.650543 290.522586 
L 60.77809 293.745615 
L 61.403407 293.58546 
L 62.307816 292.276419 
L 62.402805 288.873762 
L 62.686254 290.525477 
L 63.037926 284.551782 
L 63.258299 295.227515 
L 63.418222 294.985058 
L 64.652302 293.354869 
L 64.806826 295.095162 
L 65.282839 284.373105 
L 65.47141 294.089392 
L 65.629643 290.624285 
L 65.845384 290.994874 
L 66.030916 290.11328 
L 66.632733 288.459321 
L 67.129951 289.357155 
L 67.191548 295.182637 
L 67.447295 294.976995 
L 67.8189 290.066652 
L 68.099555 295.023737 
L 68.357752 292.810205 
L 68.857226 295.488 
L 68.983968 293.123403 
L 70.685763 293.243244 
L 70.717765 292.682416 
L 71.254015 292.714211 
L 71.35312 287.243725 
L 71.444799 291.631919 
L 71.909622 293.099519 
L 72.029708 289.312885 
L 72.348056 291.256994 
L 72.880296 293.305123 
L 72.942608 289.305507 
L 73.604861 290.616298 
L 74.133884 295.442931 
L 75.133061 294.186108 
L 75.447522 289.148395 
L 75.6322 294.247112 
L 75.852455 293.685258 
L 75.885852 293.068979 
L 76.35601 293.137703 
L 76.957728 293.824419 
L 77.319914 295.241473 
L 77.527193 291.247486 
L 77.558745 295.140383 
L 77.617924 294.114189 
L 77.708063 295.167081 
L 77.766973 294.158649 
L 78.127733 295.31499 
L 78.429003 292.67055 
L 78.790385 281.674963 
L 78.939917 294.874421 
L 79.725842 294.122974 
L 79.965022 289.674308 
L 79.996493 293.108342 
L 80.204249 288.138517 
L 80.47435 295.178263 
L 80.596413 294.225054 
L 80.718982 294.202348 
L 80.868921 291.147727 
L 80.985982 284.947739 
L 81.257272 286.918927 
L 81.380114 294.859817 
L 81.438399 292.560369 
L 81.501766 289.383588 
L 81.709588 293.132645 
L 81.859726 293.399862 
L 81.924536 290.873322 
L 82.073098 290.211974 
L 82.131517 285.784379 
L 82.375163 293.926726 
L 82.557472 295.248319 
L 82.583955 294.886363 
L 83.27761 289.524612 
L 83.399821 287.398099 
L 84.393284 293.912768 
L 84.781536 283.438608 
L 85.324152 293.909878 
L 85.595414 281.284255 
L 85.835961 293.097693 
L 86.25557 291.552279 
L 86.287364 293.602385 
L 86.584502 290.752227 
L 86.675432 288.041914 
L 86.947004 292.056781 
L 87.068788 290.772992 
L 87.18678 291.04618 
L 87.49038 294.22357 
L 87.671833 291.204167 
L 87.704063 294.05231 
L 87.854071 291.133427 
L 88.397439 288.459093 
L 88.487989 289.252566 
L 88.753231 289.754405 
L 89.620925 286.125493 
L 90.008426 287.36444 
L 90.198302 289.749993 
L 90.293529 294.329263 
L 90.354886 293.872226 
L 90.485194 287.37585 
L 90.82729 293.335054 
L 91.139107 282.38484 
L 91.327348 292.74361 
L 91.488617 294.583586 
L 91.80164 293.630871 
L 91.956583 292.136345 
L 93.110492 291.370407 
L 93.323565 283.64965 
L 93.380246 293.448733 
L 93.445404 292.418964 
L 94.447957 291.238016 
L 95.055073 292.730527 
L 95.112351 286.828258 
L 95.801106 294.669236 
L 97.793552 286.111497 
L 98.90755 286.804754 
L 99.892652 287.868486 
L 100.17568 291.547487 
L 100.451739 288.194843 
L 102.794476 287.842243 
L 103.440489 282.24857 
L 103.986509 282.420059 
L 105.424852 286.368749 
L 105.675416 288.386831 
L 106.70244 285.921182 
L 106.983831 282.484219 
L 107.240661 281.068686 
L 107.33676 282.912618 
L 109.781419 287.87073 
L 109.90956 286.606072 
L 110.044456 289.993478 
L 110.091993 286.243698 
L 111.076493 271.012694 
L 111.729177 290.808249 
L 111.911948 285.329776 
L 112.072086 275.58314 
L 112.252517 291.032374 
L 113.414279 276.678439 
L 113.464405 284.742553 
L 113.972531 272.753785 
L 114.511783 282.36282 
L 114.600673 282.062286 
L 115.39602 269.915531 
L 116.038631 279.244304 
L 116.22316 277.121061 
L 117.384627 261.300819 
L 118.10703 271.484221 
L 118.152637 274.430602 
L 118.829154 275.265872 
L 119.010023 279.501176 
L 119.72642 265.407078 
L 119.773854 285.010341 
L 120.370177 281.456238 
L 120.754877 276.234979 
L 120.986404 284.689232 
L 121.214355 255.880574 
L 121.342696 270.906659 
L 121.564487 272.472382 
L 121.697928 278.40253 
L 122.238079 266.072419 
L 122.581594 280.554106 
L 122.902386 277.735173 
L 123.199289 260.984693 
L 123.58129 279.254649 
L 123.763561 257.018128 
L 123.85406 257.40334 
L 123.944412 274.478865 
L 124.075049 260.659134 
L 124.391259 268.529283 
L 124.794292 261.630561 
L 125.222627 280.377369 
L 125.407373 281.237665 
L 125.49466 277.481724 
L 125.630498 226.106765 
L 125.844347 249.408121 
L 126.020381 244.826437 
L 126.059673 231.95016 
L 126.897111 258.018859 
L 127.300126 242.536783 
L 127.580818 247.776202 
L 127.933723 230.90438 
L 128.339943 234.118338 
L 128.642565 254.118603 
L 129.549804 184.373625 
L 129.703604 245.882258 
L 130.159174 186.214894 
L 130.340137 220.870275 
L 130.734261 233.640155 
L 131.314052 194.43576 
L 131.452909 240.834979 
L 131.727869 167.670363 
L 131.821009 205.640469 
L 133.290913 197.834348 
L 133.556986 169.871116 
L 134.2893 139.051298 
L 134.372699 171.780729 
L 134.736837 200.056056 
L 134.868713 134.012709 
L 134.961352 147.482065 
L 135.764744 152.94793 
L 136.382123 164.558883 
L 136.467037 150.64447 
L 137.232454 176.742872 
L 137.402236 195.859394 
L 137.745934 161.95025 
L 138.488993 157.773023 
L 138.753736 153.924054 
L 139.828482 144.229751 
L 140.378064 156.274769 
L 140.427823 171.63767 
L 140.561183 154.842901 
L 140.599565 121.738431 
L 140.690475 186.289971 
L 140.771994 150.511661 
L 140.948771 133.269135 
L 141.13714 141.222822 
L 141.458959 190.795628 
L 142.142154 173.458592 
L 143.62849 120.656957 
L 143.805102 105.607577 
L 143.890832 121.332852 
L 144.127317 103.69918 
L 144.547777 137.371058 
L 145.063745 138.927102 
L 145.518144 164.598836 
L 145.695943 119.255496 
L 145.741301 142.293743 
L 145.919845 154.060553 
L 146.059426 113.466582 
L 146.596777 128.012354 
L 147.206025 120.087115 
L 147.471334 162.234144 
L 147.699976 180.486358 
L 147.815437 113.884313 
L 148.135414 131.739105 
L 148.184524 153.446784 
L 148.497349 161.848494 
L 148.630472 128.863351 
L 148.855217 120.026586 
L 149.705126 115.143551 
L 150.160741 152.727874 
L 150.43036 150.549655 
L 150.708635 129.593233 
L 150.891378 139.37737 
L 151.444372 139.248515 
L 151.496636 152.669741 
L 153.039187 112.094349 
L 153.769782 116.686265 
L 154.584654 160.353721 
L 154.619039 138.856932 
L 154.711092 146.940101 
L 155.148668 135.746118 
L 155.325554 147.422278 
L 156.157295 140.485524 
L 156.660672 145.82377 
L 157.011656 183.803727 
L 157.266437 111.806234 
L 157.39685 150.638385 
L 157.490107 133.141992 
L 157.730669 111.323734 
L 158.862196 145.127319 
L 158.903377 121.948732 
L 159.358341 155.435981 
L 159.441891 134.419924 
L 159.661568 187.294125 
L 160.289424 131.870032 
L 160.561014 133.760801 
L 161.006579 117.159199 
L 161.67209 144.236007 
L 161.963454 101.140485 
L 162.551708 169.528595 
L 163.172581 125.517781 
L 163.777056 110.611936 
L 164.285527 159.192283 
L 164.573765 107.921895 
L 165.31615 142.63402 
L 165.573469 166.178194 
L 165.62308 121.445846 
L 166.007119 113.596559 
L 166.573248 129.527494 
L 166.788872 97.095515 
L 167.896265 135.506513 
L 168.254293 112.406863 
L 168.497188 138.295686 
L 169.099632 119.433146 
L 169.444783 157.42822 
L 170.15278 131.854439 
L 170.732689 137.209933 
L 170.881188 152.073315 
L 171.530241 125.493326 
L 171.575757 154.440175 
L 171.662929 137.026807 
L 173.106793 164.199457 
L 173.155537 123.155181 
L 173.201181 134.390734 
L 173.518398 95.00692 
L 174.022675 149.637179 
L 174.704271 72.470465 
L 174.930284 108.03681 
L 176.321213 151.102591 
L 176.913949 103.236534 
L 177.327802 98.893142 
L 177.769643 161.034389 
L 178.042643 100.636097 
L 178.230635 131.826086 
L 179.081759 96.543264 
L 179.131558 132.379383 
L 179.690588 101.87089 
L 180.49769 152.420818 
L 181.239029 87.316922 
L 181.578398 118.314266 
L 182.592467 143.781385 
L 183.011272 158.467915 
L 183.102846 121.00136 
L 183.190558 130.900222 
L 183.372619 122.432353 
L 183.419157 100.269511 
L 183.904518 112.433048 
L 184.033616 137.700838 
L 184.390405 170.058084 
L 184.524675 166.841748 
L 185.804308 129.15681 
L 185.889004 110.948391 
L 186.583353 130.116694 
L 187.162929 138.540216 
L 188.17558 161.801924 
L 188.836262 155.967409 
L 188.891383 123.675428 
L 189.197249 124.325176 
L 189.647014 82.388314 
L 189.821073 94.830554 
L 189.911441 138.159834 
L 190.644332 147.479517 
L 191.461942 123.851595 
L 191.494069 153.800163 
L 191.842925 106.337288 
L 191.9874 119.911956 
L 193.064284 123.593981 
L 193.18864 132.063732 
L 193.510509 118.285514 
L 193.633226 143.350553 
L 193.681417 135.022131 
L 193.811431 158.043491 
L 194.979555 137.582957 
L 195.41059 143.845337 
L 196.541086 146.431968 
L 196.906846 113.025234 
L 197.574291 156.74951 
L 197.621318 123.606342 
L 197.838192 149.437394 
L 198.371051 118.913811 
L 199.703165 118.143139 
L 199.797191 104.648815 
L 199.881054 123.950802 
L 200.269817 136.466245 
L 201.042741 119.899577 
L 201.260082 96.162976 
L 202.21555 127.548947 
L 202.345405 104.865486 
L 203.035786 126.669463 
L 203.128989 108.781164 
L 203.387578 107.428081 
L 203.425102 99.564816 
L 203.688115 170.591376 
L 204.004565 106.81201 
L 204.26443 106.350581 
L 204.400484 92.000192 
L 205.15687 139.943617 
L 205.7072 124.995918 
L 205.831771 88.028806 
L 206.142044 137.123942 
L 206.852567 106.445187 
L 206.932879 108.381822 
L 207.207939 123.076434 
L 207.380996 144.909754 
L 208.101917 110.185592 
L 208.839307 129.200757 
L 209.733286 156.735895 
L 210.530629 117.698387 
L 210.631511 165.886428 
L 210.994243 111.674832 
L 211.721505 86.9638 
L 212.219871 129.045793 
L 212.269527 119.949209 
L 212.855029 102.691451 
L 214.207676 116.210288 
L 214.305002 82.462269 
L 215.349126 158.78446 
L 215.536055 123.157292 
L 215.625563 141.519514 
L 215.900549 135.556412 
L 216.028877 140.723645 
L 216.117866 161.889779 
L 216.521825 142.269269 
L 216.837988 142.988312 
L 217.412627 113.442603 
L 217.796659 130.536954 
L 218.393193 109.458619 
L 218.483113 109.878003 
L 218.614274 137.184832 
L 219.180075 133.007072 
L 219.357171 137.686348 
L 219.691283 128.412114 
L 220.137488 124.232319 
L 220.324664 153.515832 
L 221.643337 141.536914 
L 221.874973 108.054343 
L 222.175392 136.507815 
L 223.322324 146.795331 
L 223.672614 106.643621 
L 224.087845 149.089415 
L 224.44371 158.281708 
L 224.92007 118.507795 
L 225.403482 130.149022 
L 225.662615 126.775403 
L 225.910636 121.639965 
L 226.89202 129.14502 
L 227.377225 147.835425 
L 227.592646 171.3421 
L 228.002573 136.601641 
L 228.039098 104.039277 
L 228.569073 124.055183 
L 229.048897 114.167807 
L 229.177287 146.697264 
L 229.607833 109.90514 
L 231.696671 132.07324 
L 231.918456 147.427888 
L 231.966834 120.383655 
L 232.430017 102.51943 
L 235.773441 95.973327 
L 236.287816 104.924874 
L 236.337167 143.798975 
L 236.428748 133.911524 
L 236.509923 115.885832 
L 236.648218 131.887337 
L 236.701016 113.46915 
L 237.863708 111.248335 
L 238.080665 137.24034 
L 238.205109 131.400844 
L 238.578092 146.026978 
L 239.098635 110.907316 
L 239.488961 150.447424 
L 239.63406 115.271454 
L 239.682017 154.786252 
L 240.413872 92.490441 
L 241.154986 140.182404 
L 241.415943 93.779325 
L 241.583172 115.266814 
L 241.991919 136.136864 
L 242.068871 107.720741 
L 242.493671 148.751971 
L 242.655446 152.571142 
L 242.92851 104.320461 
L 243.164156 117.340405 
L 244.35259 125.417375 
L 244.752847 97.397246 
L 245.445624 146.741153 
L 246.010686 120.847138 
L 246.195561 120.85986 
L 246.228035 135.808358 
L 247.098717 85.180787 
L 247.229917 107.813902 
L 247.517184 93.602341 
L 248.87894 150.615775 
L 249.152508 141.241839 
L 249.345515 120.003082 
L 249.837129 135.227297 
L 249.923741 142.108372 
L 250.698786 130.304518 
L 250.735434 123.693569 
L 251.584398 148.984084 
L 251.750372 121.52948 
L 252.142262 134.555871 
L 252.518523 107.888407 
L 252.604057 91.371447 
L 252.654909 117.842321 
L 253.849412 119.217539 
L 253.991957 125.969836 
L 254.495381 136.638609 
L 254.726069 150.682921 
L 254.832919 170.299267 
L 255.437953 162.129479 
L 256.263336 84.517737 
L 257.197054 121.239425 
L 257.544501 123.450123 
L 257.926302 136.5344 
L 258.109624 132.985736 
L 258.482391 150.774142 
L 258.529292 142.043469 
L 258.987714 159.4595 
L 260.246873 137.430199 
L 260.478505 137.245513 
L 261.233933 117.347632 
L 261.765055 112.967215 
L 261.947563 100.297655 
L 261.99756 104.034742 
L 262.363832 147.105201 
L 262.656413 96.882124 
L 262.805288 128.204114 
L 263.204646 149.577087 
L 263.3718 142.254759 
L 263.691959 152.259579 
L 263.730592 131.876403 
L 263.99137 98.66006 
L 264.477193 153.971956 
L 265.976379 126.945332 
L 266.493327 122.389415 
L 267.329873 148.264413 
L 267.41603 118.434373 
L 268.252903 104.665891 
L 268.337151 123.997735 
L 268.379599 93.630599 
L 269.173759 156.782637 
L 270.24566 112.516549 
L 270.379485 127.341289 
L 270.953628 96.041672 
L 271.302252 141.935457 
L 271.693117 149.110618 
L 271.815788 108.639094 
L 271.906374 111.624343 
L 271.951144 111.988029 
L 272.545792 112.072937 
L 272.883512 120.953382 
L 273.861797 130.140959 
L 274.119423 118.917272 
L 274.241318 130.674917 
L 274.555378 109.437111 
L 275.102014 118.40486 
L 275.178867 176.066635 
L 275.225898 96.167654 
L 275.533713 126.236596 
L 276.338109 118.748256 
L 277.358593 111.120717 
L 277.574488 117.07703 
L 278.428063 90.56086 
L 278.525861 140.277067 
L 278.772267 152.186804 
L 279.88066 91.6111 
L 280.094 139.022849 
L 280.668223 139.442196 
L 280.836427 104.605734 
L 281.607267 130.846919 
L 281.992543 107.695145 
L 282.999025 117.804459 
L 283.178025 141.956147 
L 283.34169 115.849568 
L 283.389903 126.697816 
L 283.545937 103.778174 
L 284.51096 96.31002 
L 285.561481 95.977463 
L 286.143364 114.034807 
L 286.864652 156.597266 
L 287.333088 151.434749 
L 288.02049 121.881395 
L 288.628913 152.835563 
L 288.804112 123.935399 
L 289.576225 119.19472 
L 290.622211 139.93293 
L 290.711822 138.499008 
L 291.314203 151.24643 
L 292.149345 130.756801 
L 292.282499 109.635147 
L 292.500465 117.877938 
L 293.766383 107.790588 
L 294.157405 151.228517 
L 294.47116 131.227511 
L 294.656801 138.796879 
L 294.899477 135.543728 
L 295.159657 94.673812 
L 295.367785 168.262929 
L 295.504074 82.289896 
L 295.592976 110.963908 
L 296.268203 139.883031 
L 296.669089 124.452528 
L 297.015752 132.025833 
L 297.788858 138.307743 
L 298.015072 124.160818 
L 298.638883 136.423991 
L 298.721265 132.669685 
L 298.990255 140.7195 
L 299.511519 160.342102 
L 299.740653 119.16302 
L 300.191628 108.453571 
L 300.628833 133.784286 
L 301.881293 144.82941 
L 301.979709 149.641134 
L 302.142441 148.352782 
L 302.816994 141.482299 
L 304.630755 102.273093 
L 304.780315 116.670862 
L 304.973192 103.400473 
L 305.598029 111.042959 
L 306.398857 158.024646 
L 307.293158 119.449766 
L 307.517324 152.341064 
L 307.737871 148.969537 
L 308.041294 141.641561 
L 308.593052 150.728237 
L 308.632863 144.430068 
L 309.438332 147.77484 
L 309.592107 75.711627 
L 309.931907 111.990578 
L 311.198034 147.862409 
L 311.289174 130.622109 
L 311.606209 127.345606 
L 312.438525 94.186492 
L 312.52819 149.011201 
L 312.838049 140.130889 
L 313.258359 118.128363 
L 313.720522 134.49365 
L 313.756583 126.514348 
L 314.221307 104.692609 
L 314.398447 165.878479 
L 314.446171 137.837204 
L 315.283392 103.222937 
L 315.494552 131.86098 
L 315.584079 130.022507 
L 315.766115 106.301043 
L 316.16597 151.716456 
L 316.972228 119.013343 
L 317.872554 121.911384 
L 318.090296 165.742551 
L 318.470053 134.999673 
L 318.718395 105.361944 
L 318.763348 130.555799 
L 318.812597 129.902457 
L 318.931054 149.221426 
L 319.059544 118.642278 
L 320.050775 140.53702 
L 320.849606 142.678898 
L 320.89519 125.18627 
L 321.065526 116.064376 
L 321.291166 159.765509 
L 321.609413 128.005679 
L 322.013 128.505826 
L 322.097785 117.24424 
L 322.533333 99.925022 
L 322.908262 152.799926 
L 323.166484 134.928076 
L 323.354293 166.106617 
L 323.890185 141.830925 
L 324.078804 112.986003 
L 325.08545 91.345889 
L 325.49198 125.507208 
L 325.62358 120.358135 
L 326.316615 129.293062 
L 326.785681 146.071153 
L 326.835474 95.83872 
L 326.919977 103.910736 
L 327.186536 137.514536 
L 327.444203 98.445718 
L 327.751752 151.702707 
L 328.574126 113.641285 
L 329.146946 117.763403 
L 330.302714 143.698094 
L 331.174091 104.301673 
L 331.471724 134.909764 
L 331.508215 122.22713 
L 331.82592 128.531574 
L 332.580188 73.711315 
L 333.061725 133.149219 
L 333.547762 149.022136 
L 333.859078 151.310915 
L 334.120797 87.709437 
L 335.19971 141.811224 
L 337.325731 120.886255 
L 337.684793 109.611433 
L 337.874887 135.27189 
L 338.469439 117.685741 
L 338.991129 177.231495 
L 339.166006 127.585895 
L 339.535344 145.382479 
L 339.578043 143.712813 
L 339.782944 114.303317 
L 340.199077 107.046595 
L 340.249579 141.796239 
L 340.722677 113.685726 
L 340.77975 123.031879 
L 340.826769 95.572293 
L 341.189066 111.942505 
L 342.114007 147.20555 
L 343.403753 117.063662 
L 343.483133 139.1336 
L 343.534547 97.633276 
L 343.671956 98.055399 
L 344.537157 129.450041 
L 344.690364 127.034785 
L 345.141632 97.534078 
L 345.368201 126.050579 
L 346.973924 112.739039 
L 347.45904 144.731153 
L 347.638694 152.850776 
L 347.91075 135.037325 
L 348.051116 140.277733 
L 348.362073 93.38199 
L 348.857341 121.519953 
L 349.228987 105.378887 
L 349.418106 115.417252 
L 349.589645 139.25635 
L 350.067925 120.923679 
L 350.615887 130.15138 
L 350.793532 137.783959 
L 351.290983 103.809399 
L 351.780875 82.896952 
L 352.310771 90.817732 
L 353.023624 122.669011 
L 354.137033 147.490242 
L 354.805425 101.914884 
L 355.417662 123.941085 
L 355.614021 125.576541 
L 355.783866 105.891414 
L 356.127075 119.939054 
L 356.400847 126.275522 
L 356.45225 137.184642 
L 357.57101 112.845644 
L 357.838866 137.722118 
L 358.188121 83.575338 
L 358.329824 115.120846 
L 359.265959 82.84674 
L 359.976479 122.866761 
L 360.13764 118.589204 
L 360.489208 112.747977 
L 360.630388 82.099305 
L 360.899867 154.429469 
L 361.696173 140.918885 
L 361.793328 113.479608 
L 362.600853 94.62225 
L 362.778664 119.629546 
L 362.909931 116.804337 
L 363.886471 92.061529 
L 364.202867 143.3825 
L 364.777493 104.848181 
L 365.038784 129.703794 
L 365.654787 122.538407 
L 366.191874 139.189052 
L 366.510493 114.874946 
L 366.856858 109.556324 
L 367.09762 117.172549 
L 367.124374 92.99266 
L 367.271368 135.401296 
L 367.391779 86.084468 
L 367.900894 142.536238 
L 368.316257 128.1027 
L 368.677046 134.937813 
L 368.708951 100.825632 
L 368.91755 142.415333 
L 369.340329 136.868249 
L 369.520959 128.511151 
L 369.733908 113.417596 
L 369.792373 96.230351 
L 370.063721 115.977833 
L 370.121663 88.327846 
L 370.148201 92.748681 
L 370.811688 106.816061 
L 371.075958 134.17933 
L 371.470186 103.563794 
L 372.187854 156.479042 
L 372.665963 127.255469 
L 373.008913 121.906497 
L 373.54576 103.688807 
L 373.843661 107.074549 
L 373.876797 84.289675 
L 374.025325 81.887255 
L 374.057439 120.104762 
L 374.388225 125.006338 
L 374.414472 135.025877 
L 374.446176 81.530681 
L 375.107641 136.391892 
L 375.139831 110.743034 
L 375.320574 154.140117 
L 375.594905 112.379061 
L 375.720304 136.266023 
L 375.814259 116.628455 
L 376.619907 68.883826 
L 376.653961 102.86487 
L 376.93481 125.727987 
L 377.023607 120.465121 
L 377.151026 78.992142 
L 377.246551 80.890774 
L 377.557624 53.568 
L 377.651387 115.756826 
L 377.80717 79.689982 
L 377.992364 141.087902 
L 378.11743 129.234682 
L 378.17801 105.286982 
L 378.671892 117.807673 
L 378.859611 92.304214 
L 378.892066 120.782996 
L 379.140052 100.369289 
L 379.320934 131.360586 
L 379.729293 133.284215 
L 379.944645 98.2454 
L 380.255226 125.508691 
L 381.086808 94.233272 
L 381.803953 139.117284 
L 382.018682 122.688427 
L 382.299993 167.732109 
L 383.260756 129.687022 
L 383.293532 139.985111 
L 383.789795 139.993078 
L 383.822112 105.869964 
L 384.13219 104.473589 
L 384.224554 140.182766 
L 384.285611 123.312483 
L 384.627288 122.693941 
L 384.814697 147.465464 
L 385.035407 112.919713 
L 385.590349 118.444984 
L 385.617933 136.311909 
L 385.743281 115.281723 
L 385.833132 143.873177 
L 385.890935 128.588091 
L 386.312614 124.433055 
L 386.42993 133.762455 
L 386.767602 120.8386 
L 386.857552 99.941186 
L 387.456577 116.58061 
L 387.696286 134.358216 
L 388.001014 118.815193 
L 388.027813 100.239513 
L 388.357319 107.906016 
L 389.198839 136.424105 
L 389.711047 89.740137 
L 390.402285 145.178682 
L 390.460917 121.457028 
L 391.031689 152.534326 
L 391.06413 128.466367 
L 391.180737 130.018513 
L 391.303973 103.006931 
L 391.843097 118.550658 
L 392.026126 116.134108 
L 392.052956 103.833169 
L 393.317711 139.110248 
L 393.554948 151.559647 
L 393.794032 145.024117 
L 393.821287 112.654169 
L 394.330801 96.210232 
L 394.718868 132.189791 
L 394.838712 106.367733 
L 395.168219 127.260242 
L 395.534069 119.433374 
L 395.624342 84.794405 
L 395.682492 115.248083 
L 395.799967 111.871213 
L 396.042495 157.195195 
L 397.221146 131.500641 
L 397.85793 103.836326 
L 398.040322 76.412214 
L 398.06714 117.76057 
L 398.125905 111.557007 
L 398.577941 103.86427 
L 398.785761 126.647918 
L 399.478933 98.249346 
L 399.596391 116.898734 
L 399.931457 115.342841 
L 400.016676 110.734002 
L 400.527725 120.28903 
L 400.707976 107.140478 
L 401.098735 107.5549 
L 401.701814 112.193576 
L 401.974741 147.797849 
L 402.394319 146.321084 
L 402.453023 142.131496 
L 402.512155 115.474016 
L 402.785646 166.661892 
L 403.057333 135.430315 
L 403.296579 140.083615 
L 403.949469 101.991291 
L 404.042498 127.707637 
L 404.100854 108.515868 
L 404.282735 98.697331 
L 404.678211 128.34472 
L 404.884687 106.498813 
L 404.976116 150.378889 
L 405.126366 111.817853 
L 405.334679 106.225834 
L 405.398019 166.099866 
L 406.92129 126.294215 
L 407.244912 108.614677 
L 407.334377 133.795981 
L 407.482981 139.68279 
L 407.726369 121.36537 
L 407.965928 144.279098 
L 408.08257 137.154026 
L 408.114434 111.635183 
L 408.174601 113.245423 
L 408.264388 112.36111 
L 408.471908 119.496584 
L 408.717461 169.395804 
L 409.163041 83.711961 
L 409.285326 104.766259 
L 409.311485 94.0346 
L 409.764257 142.72043 
L 410.662354 115.951286 
L 410.688543 136.790929 
L 411.050092 100.653839 
L 411.826378 127.785395 
L 412.095606 97.735821 
L 412.541671 116.164287 
L 412.869947 148.481408 
L 413.081556 109.785565 
L 413.109643 114.62608 
L 413.199398 117.121528 
L 413.380092 117.445717 
L 414.512434 148.876376 
L 414.72 106.605722 
L 414.72 106.605722 
" style="fill:none;stroke:#000000;stroke-linecap:square;stroke-width:0.8;"/>
   </g>
   <g id="patch_3">
    <path d="M 57.6 307.584 
L 57.6 41.472 
" style="fill:none;stroke:#000000;stroke-linecap:square;stroke-linejoin:miter;stroke-width:0.8;"/>
   </g>
   <g id="patch_4">
    <path d="M 414.72 307.584 
L 414.72 41.472 
" style="fill:none;stroke:#000000;stroke-linecap:square;stroke-linejoin:miter;stroke-width:0.8;"/>
   </g>
   <g id="patch_5">
    <path d="M 57.6 307.584 
L 414.72 307.584 
" style="fill:none;stroke:#000000;stroke-linecap:square;stroke-linejoin:miter;stroke-width:0.8;"/>
   </g>
   <g id="patch_6">
    <path d="M 57.6 41.472 
L 414.72 41.472 
" style="fill:none;stroke:#000000;stroke-linecap:square;stroke-linejoin:miter;stroke-width:0.8;"/>
   </g>
  </g>
  <g id="axes_2">
   <g id="matplotlib.axis_3">
    <g id="xtick_7">
     <g id="line2d_30">
      <defs>
       <path d="M 0 0 
L 0 -3.5 
" id="mdcefc826a9" style="stroke:#000000;stroke-width:0.8;"/>
      </defs>
      <g>
       <use style="stroke:#000000;stroke-width:0.8;" x="57.6" xlink:href="#mdcefc826a9" y="41.472"/>
      </g>
     </g>
    </g>
    <g id="xtick_8">
     <g id="line2d_31">
      <g>
       <use style="stroke:#000000;stroke-width:0.8;" x="98.695512" xlink:href="#mdcefc826a9" y="41.472"/>
      </g>
     </g>
     <g id="text_17">
      <!-- 1,000K -->
      <defs>
       <path d="M 11.71875 12.40625 
L 22.015625 12.40625 
L 22.015625 4 
L 14.015625 -11.625 
L 7.71875 -11.625 
L 11.71875 4 
z
" id="DejaVuSans-44"/>
       <path d="M 9.8125 72.90625 
L 19.671875 72.90625 
L 19.671875 42.09375 
L 52.390625 72.90625 
L 65.09375 72.90625 
L 28.90625 38.921875 
L 67.671875 0 
L 54.6875 0 
L 19.671875 35.109375 
L 19.671875 0 
L 9.8125 0 
z
" id="DejaVuSans-75"/>
      </defs>
      <g transform="translate(81.102543 32.392313)scale(0.1 -0.1)">
       <use xlink:href="#DejaVuSans-49"/>
       <use x="63.623047" xlink:href="#DejaVuSans-44"/>
       <use x="95.410156" xlink:href="#DejaVuSans-48"/>
       <use x="159.033203" xlink:href="#DejaVuSans-48"/>
       <use x="222.65625" xlink:href="#DejaVuSans-48"/>
       <use x="286.279297" xlink:href="#DejaVuSans-75"/>
      </g>
     </g>
    </g>
    <g id="xtick_9">
     <g id="line2d_32">
      <g>
       <use style="stroke:#000000;stroke-width:0.8;" x="139.791024" xlink:href="#mdcefc826a9" y="41.472"/>
      </g>
     </g>
     <g id="text_18">
      <!-- 2.00M -->
      <defs>
       <path d="M 9.8125 72.90625 
L 24.515625 72.90625 
L 43.109375 23.296875 
L 61.8125 72.90625 
L 76.515625 72.90625 
L 76.515625 0 
L 66.890625 0 
L 66.890625 64.015625 
L 48.09375 14.015625 
L 38.1875 14.015625 
L 19.390625 64.015625 
L 19.390625 0 
L 9.8125 0 
z
" id="DejaVuSans-77"/>
      </defs>
      <g transform="translate(124.344149 32.392313)scale(0.1 -0.1)">
       <use xlink:href="#DejaVuSans-50"/>
       <use x="63.623047" xlink:href="#DejaVuSans-46"/>
       <use x="95.410156" xlink:href="#DejaVuSans-48"/>
       <use x="159.033203" xlink:href="#DejaVuSans-48"/>
       <use x="222.65625" xlink:href="#DejaVuSans-77"/>
      </g>
     </g>
    </g>
    <g id="xtick_10">
     <g id="line2d_33">
      <g>
       <use style="stroke:#000000;stroke-width:0.8;" x="180.886536" xlink:href="#mdcefc826a9" y="41.472"/>
      </g>
     </g>
     <g id="text_19">
      <!-- 3.00M -->
      <g transform="translate(165.439661 32.392313)scale(0.1 -0.1)">
       <use xlink:href="#DejaVuSans-51"/>
       <use x="63.623047" xlink:href="#DejaVuSans-46"/>
       <use x="95.410156" xlink:href="#DejaVuSans-48"/>
       <use x="159.033203" xlink:href="#DejaVuSans-48"/>
       <use x="222.65625" xlink:href="#DejaVuSans-77"/>
      </g>
     </g>
    </g>
    <g id="xtick_11">
     <g id="line2d_34">
      <g>
       <use style="stroke:#000000;stroke-width:0.8;" x="221.982048" xlink:href="#mdcefc826a9" y="41.472"/>
      </g>
     </g>
     <g id="text_20">
      <!-- 4.00M -->
      <g transform="translate(206.535173 32.392313)scale(0.1 -0.1)">
       <use xlink:href="#DejaVuSans-52"/>
       <use x="63.623047" xlink:href="#DejaVuSans-46"/>
       <use x="95.410156" xlink:href="#DejaVuSans-48"/>
       <use x="159.033203" xlink:href="#DejaVuSans-48"/>
       <use x="222.65625" xlink:href="#DejaVuSans-77"/>
      </g>
     </g>
    </g>
    <g id="xtick_12">
     <g id="line2d_35">
      <g>
       <use style="stroke:#000000;stroke-width:0.8;" x="263.07756" xlink:href="#mdcefc826a9" y="41.472"/>
      </g>
     </g>
     <g id="text_21">
      <!-- 5.00M -->
      <g transform="translate(247.630685 32.392313)scale(0.1 -0.1)">
       <use xlink:href="#DejaVuSans-53"/>
       <use x="63.623047" xlink:href="#DejaVuSans-46"/>
       <use x="95.410156" xlink:href="#DejaVuSans-48"/>
       <use x="159.033203" xlink:href="#DejaVuSans-48"/>
       <use x="222.65625" xlink:href="#DejaVuSans-77"/>
      </g>
     </g>
    </g>
    <g id="xtick_13">
     <g id="line2d_36">
      <g>
       <use style="stroke:#000000;stroke-width:0.8;" x="304.173072" xlink:href="#mdcefc826a9" y="41.472"/>
      </g>
     </g>
     <g id="text_22">
      <!-- 6.00M -->
      <g transform="translate(288.726197 32.392313)scale(0.1 -0.1)">
       <use xlink:href="#DejaVuSans-54"/>
       <use x="63.623047" xlink:href="#DejaVuSans-46"/>
       <use x="95.410156" xlink:href="#DejaVuSans-48"/>
       <use x="159.033203" xlink:href="#DejaVuSans-48"/>
       <use x="222.65625" xlink:href="#DejaVuSans-77"/>
      </g>
     </g>
    </g>
    <g id="xtick_14">
     <g id="line2d_37">
      <g>
       <use style="stroke:#000000;stroke-width:0.8;" x="345.268585" xlink:href="#mdcefc826a9" y="41.472"/>
      </g>
     </g>
     <g id="text_23">
      <!-- 7.00M -->
      <g transform="translate(329.82171 32.392313)scale(0.1 -0.1)">
       <use xlink:href="#DejaVuSans-55"/>
       <use x="63.623047" xlink:href="#DejaVuSans-46"/>
       <use x="95.410156" xlink:href="#DejaVuSans-48"/>
       <use x="159.033203" xlink:href="#DejaVuSans-48"/>
       <use x="222.65625" xlink:href="#DejaVuSans-77"/>
      </g>
     </g>
    </g>
    <g id="xtick_15">
     <g id="line2d_38">
      <g>
       <use style="stroke:#000000;stroke-width:0.8;" x="386.364097" xlink:href="#mdcefc826a9" y="41.472"/>
      </g>
     </g>
     <g id="text_24">
      <!-- 8.00M -->
      <g transform="translate(370.917222 32.392313)scale(0.1 -0.1)">
       <use xlink:href="#DejaVuSans-56"/>
       <use x="63.623047" xlink:href="#DejaVuSans-46"/>
       <use x="95.410156" xlink:href="#DejaVuSans-48"/>
       <use x="159.033203" xlink:href="#DejaVuSans-48"/>
       <use x="222.65625" xlink:href="#DejaVuSans-77"/>
      </g>
     </g>
    </g>
    <g id="text_25">
     <!-- Steps -->
     <defs>
      <path d="M 53.515625 70.515625 
L 53.515625 60.890625 
Q 47.90625 63.578125 42.921875 64.890625 
Q 37.9375 66.21875 33.296875 66.21875 
Q 25.25 66.21875 20.875 63.09375 
Q 16.5 59.96875 16.5 54.203125 
Q 16.5 49.359375 19.40625 46.890625 
Q 22.3125 44.4375 30.421875 42.921875 
L 36.375 41.703125 
Q 47.40625 39.59375 52.65625 34.296875 
Q 57.90625 29 57.90625 20.125 
Q 57.90625 9.515625 50.796875 4.046875 
Q 43.703125 -1.421875 29.984375 -1.421875 
Q 24.8125 -1.421875 18.96875 -0.25 
Q 13.140625 0.921875 6.890625 3.21875 
L 6.890625 13.375 
Q 12.890625 10.015625 18.65625 8.296875 
Q 24.421875 6.59375 29.984375 6.59375 
Q 38.421875 6.59375 43.015625 9.90625 
Q 47.609375 13.234375 47.609375 19.390625 
Q 47.609375 24.75 44.3125 27.78125 
Q 41.015625 30.8125 33.5 32.328125 
L 27.484375 33.5 
Q 16.453125 35.6875 11.515625 40.375 
Q 6.59375 45.0625 6.59375 53.421875 
Q 6.59375 63.09375 13.40625 68.65625 
Q 20.21875 74.21875 32.171875 74.21875 
Q 37.3125 74.21875 42.625 73.28125 
Q 47.953125 72.359375 53.515625 70.515625 
z
" id="DejaVuSans-83"/>
      <path d="M 18.3125 70.21875 
L 18.3125 54.6875 
L 36.8125 54.6875 
L 36.8125 47.703125 
L 18.3125 47.703125 
L 18.3125 18.015625 
Q 18.3125 11.328125 20.140625 9.421875 
Q 21.96875 7.515625 27.59375 7.515625 
L 36.8125 7.515625 
L 36.8125 0 
L 27.59375 0 
Q 17.1875 0 13.234375 3.875 
Q 9.28125 7.765625 9.28125 18.015625 
L 9.28125 47.703125 
L 2.6875 47.703125 
L 2.6875 54.6875 
L 9.28125 54.6875 
L 9.28125 70.21875 
z
" id="DejaVuSans-116"/>
      <path d="M 56.203125 29.59375 
L 56.203125 25.203125 
L 14.890625 25.203125 
Q 15.484375 15.921875 20.484375 11.0625 
Q 25.484375 6.203125 34.421875 6.203125 
Q 39.59375 6.203125 44.453125 7.46875 
Q 49.3125 8.734375 54.109375 11.28125 
L 54.109375 2.78125 
Q 49.265625 0.734375 44.1875 -0.34375 
Q 39.109375 -1.421875 33.890625 -1.421875 
Q 20.796875 -1.421875 13.15625 6.1875 
Q 5.515625 13.8125 5.515625 26.8125 
Q 5.515625 40.234375 12.765625 48.109375 
Q 20.015625 56 32.328125 56 
Q 43.359375 56 49.78125 48.890625 
Q 56.203125 41.796875 56.203125 29.59375 
z
M 47.21875 32.234375 
Q 47.125 39.59375 43.09375 43.984375 
Q 39.0625 48.390625 32.421875 48.390625 
Q 24.90625 48.390625 20.390625 44.140625 
Q 15.875 39.890625 15.1875 32.171875 
z
" id="DejaVuSans-101"/>
      <path d="M 18.109375 8.203125 
L 18.109375 -20.796875 
L 9.078125 -20.796875 
L 9.078125 54.6875 
L 18.109375 54.6875 
L 18.109375 46.390625 
Q 20.953125 51.265625 25.265625 53.625 
Q 29.59375 56 35.59375 56 
Q 45.5625 56 51.78125 48.09375 
Q 58.015625 40.1875 58.015625 27.296875 
Q 58.015625 14.40625 51.78125 6.484375 
Q 45.5625 -1.421875 35.59375 -1.421875 
Q 29.59375 -1.421875 25.265625 0.953125 
Q 20.953125 3.328125 18.109375 8.203125 
z
M 48.6875 27.296875 
Q 48.6875 37.203125 44.609375 42.84375 
Q 40.53125 48.484375 33.40625 48.484375 
Q 26.265625 48.484375 22.1875 42.84375 
Q 18.109375 37.203125 18.109375 27.296875 
Q 18.109375 17.390625 22.1875 11.75 
Q 26.265625 6.109375 33.40625 6.109375 
Q 40.53125 6.109375 44.609375 11.75 
Q 48.6875 17.390625 48.6875 27.296875 
z
" id="DejaVuSans-112"/>
     </defs>
     <g transform="translate(222.170156 20.793875)scale(0.1 -0.1)">
      <use xlink:href="#DejaVuSans-83"/>
      <use x="63.476562" xlink:href="#DejaVuSans-116"/>
      <use x="102.685547" xlink:href="#DejaVuSans-101"/>
      <use x="164.208984" xlink:href="#DejaVuSans-112"/>
      <use x="227.685547" xlink:href="#DejaVuSans-115"/>
     </g>
    </g>
   </g>
   <g id="patch_7">
    <path d="M 57.6 307.584 
L 57.6 41.472 
" style="fill:none;stroke:#000000;stroke-linecap:square;stroke-linejoin:miter;stroke-width:0.8;"/>
   </g>
   <g id="patch_8">
    <path d="M 414.72 307.584 
L 414.72 41.472 
" style="fill:none;stroke:#000000;stroke-linecap:square;stroke-linejoin:miter;stroke-width:0.8;"/>
   </g>
   <g id="patch_9">
    <path d="M 57.6 307.584 
L 414.72 307.584 
" style="fill:none;stroke:#000000;stroke-linecap:square;stroke-linejoin:miter;stroke-width:0.8;"/>
   </g>
   <g id="patch_10">
    <path d="M 57.6 41.472 
L 414.72 41.472 
" style="fill:none;stroke:#000000;stroke-linecap:square;stroke-linejoin:miter;stroke-width:0.8;"/>
   </g>
  </g>
 </g>
 <defs>
  <clipPath id="p894bea2c33">
   <rect height="266.112" width="357.12" x="57.6" y="41.472"/>
  </clipPath>
 </defs>
</svg>
