<?xml version="1.0" encoding="utf-8" standalone="no"?>
<!DOCTYPE svg PUBLIC "-//W3C//DTD SVG 1.1//EN"
  "http://www.w3.org/Graphics/SVG/1.1/DTD/svg11.dtd">
<!-- Created with matplotlib (https://matplotlib.org/) -->
<svg height="345.6pt" version="1.1" viewBox="0 0 460.8 345.6" width="460.8pt" xmlns="http://www.w3.org/2000/svg" xmlns:xlink="http://www.w3.org/1999/xlink">
 <defs>
  <style type="text/css">
*{stroke-linecap:butt;stroke-linejoin:round;}
  </style>
 </defs>
 <g id="figure_1">
  <g id="patch_1">
   <path d="M 0 345.6 
L 460.8 345.6 
L 460.8 0 
L 0 0 
z
" style="fill:#ffffff;"/>
  </g>
  <g id="axes_1">
   <g id="patch_2">
    <path d="M 57.6 307.584 
L 414.72 307.584 
L 414.72 41.472 
L 57.6 41.472 
z
" style="fill:#ffffff;"/>
   </g>
   <g id="matplotlib.axis_1">
    <g id="xtick_1">
     <g id="line2d_1">
      <path clip-path="url(#pea238cdd44)" d="M 57.6 307.584 
L 57.6 41.472 
" style="fill:none;stroke:#b0b0b0;stroke-linecap:square;stroke-width:0.8;"/>
     </g>
     <g id="line2d_2">
      <defs>
       <path d="M 0 0 
L 0 3.5 
" id="m37435453d5" style="stroke:#000000;stroke-width:0.8;"/>
      </defs>
      <g>
       <use style="stroke:#000000;stroke-width:0.8;" x="57.6" xlink:href="#m37435453d5" y="307.584"/>
      </g>
     </g>
     <g id="text_1">
      <!-- 0.0 -->
      <defs>
       <path d="M 31.78125 66.40625 
Q 24.171875 66.40625 20.328125 58.90625 
Q 16.5 51.421875 16.5 36.375 
Q 16.5 21.390625 20.328125 13.890625 
Q 24.171875 6.390625 31.78125 6.390625 
Q 39.453125 6.390625 43.28125 13.890625 
Q 47.125 21.390625 47.125 36.375 
Q 47.125 51.421875 43.28125 58.90625 
Q 39.453125 66.40625 31.78125 66.40625 
z
M 31.78125 74.21875 
Q 44.046875 74.21875 50.515625 64.515625 
Q 56.984375 54.828125 56.984375 36.375 
Q 56.984375 17.96875 50.515625 8.265625 
Q 44.046875 -1.421875 31.78125 -1.421875 
Q 19.53125 -1.421875 13.0625 8.265625 
Q 6.59375 17.96875 6.59375 36.375 
Q 6.59375 54.828125 13.0625 64.515625 
Q 19.53125 74.21875 31.78125 74.21875 
z
" id="DejaVuSans-48"/>
       <path d="M 10.6875 12.40625 
L 21 12.40625 
L 21 0 
L 10.6875 0 
z
" id="DejaVuSans-46"/>
      </defs>
      <g transform="translate(49.648438 322.182437)scale(0.1 -0.1)">
       <use xlink:href="#DejaVuSans-48"/>
       <use x="63.623047" xlink:href="#DejaVuSans-46"/>
       <use x="95.410156" xlink:href="#DejaVuSans-48"/>
      </g>
     </g>
    </g>
    <g id="xtick_2">
     <g id="line2d_3">
      <path clip-path="url(#pea238cdd44)" d="M 100.237748 307.584 
L 100.237748 41.472 
" style="fill:none;stroke:#b0b0b0;stroke-linecap:square;stroke-width:0.8;"/>
     </g>
     <g id="line2d_4">
      <g>
       <use style="stroke:#000000;stroke-width:0.8;" x="100.237748" xlink:href="#m37435453d5" y="307.584"/>
      </g>
     </g>
     <g id="text_2">
      <!-- 0.5 -->
      <defs>
       <path d="M 10.796875 72.90625 
L 49.515625 72.90625 
L 49.515625 64.59375 
L 19.828125 64.59375 
L 19.828125 46.734375 
Q 21.96875 47.46875 24.109375 47.828125 
Q 26.265625 48.1875 28.421875 48.1875 
Q 40.625 48.1875 47.75 41.5 
Q 54.890625 34.8125 54.890625 23.390625 
Q 54.890625 11.625 47.5625 5.09375 
Q 40.234375 -1.421875 26.90625 -1.421875 
Q 22.3125 -1.421875 17.546875 -0.640625 
Q 12.796875 0.140625 7.71875 1.703125 
L 7.71875 11.625 
Q 12.109375 9.234375 16.796875 8.0625 
Q 21.484375 6.890625 26.703125 6.890625 
Q 35.15625 6.890625 40.078125 11.328125 
Q 45.015625 15.765625 45.015625 23.390625 
Q 45.015625 31 40.078125 35.4375 
Q 35.15625 39.890625 26.703125 39.890625 
Q 22.75 39.890625 18.8125 39.015625 
Q 14.890625 38.140625 10.796875 36.28125 
z
" id="DejaVuSans-53"/>
      </defs>
      <g transform="translate(92.286185 322.182437)scale(0.1 -0.1)">
       <use xlink:href="#DejaVuSans-48"/>
       <use x="63.623047" xlink:href="#DejaVuSans-46"/>
       <use x="95.410156" xlink:href="#DejaVuSans-53"/>
      </g>
     </g>
    </g>
    <g id="xtick_3">
     <g id="line2d_5">
      <path clip-path="url(#pea238cdd44)" d="M 142.875496 307.584 
L 142.875496 41.472 
" style="fill:none;stroke:#b0b0b0;stroke-linecap:square;stroke-width:0.8;"/>
     </g>
     <g id="line2d_6">
      <g>
       <use style="stroke:#000000;stroke-width:0.8;" x="142.875496" xlink:href="#m37435453d5" y="307.584"/>
      </g>
     </g>
     <g id="text_3">
      <!-- 1.0 -->
      <defs>
       <path d="M 12.40625 8.296875 
L 28.515625 8.296875 
L 28.515625 63.921875 
L 10.984375 60.40625 
L 10.984375 69.390625 
L 28.421875 72.90625 
L 38.28125 72.90625 
L 38.28125 8.296875 
L 54.390625 8.296875 
L 54.390625 0 
L 12.40625 0 
z
" id="DejaVuSans-49"/>
      </defs>
      <g transform="translate(134.923933 322.182437)scale(0.1 -0.1)">
       <use xlink:href="#DejaVuSans-49"/>
       <use x="63.623047" xlink:href="#DejaVuSans-46"/>
       <use x="95.410156" xlink:href="#DejaVuSans-48"/>
      </g>
     </g>
    </g>
    <g id="xtick_4">
     <g id="line2d_7">
      <path clip-path="url(#pea238cdd44)" d="M 185.513244 307.584 
L 185.513244 41.472 
" style="fill:none;stroke:#b0b0b0;stroke-linecap:square;stroke-width:0.8;"/>
     </g>
     <g id="line2d_8">
      <g>
       <use style="stroke:#000000;stroke-width:0.8;" x="185.513244" xlink:href="#m37435453d5" y="307.584"/>
      </g>
     </g>
     <g id="text_4">
      <!-- 1.5 -->
      <g transform="translate(177.561681 322.182437)scale(0.1 -0.1)">
       <use xlink:href="#DejaVuSans-49"/>
       <use x="63.623047" xlink:href="#DejaVuSans-46"/>
       <use x="95.410156" xlink:href="#DejaVuSans-53"/>
      </g>
     </g>
    </g>
    <g id="xtick_5">
     <g id="line2d_9">
      <path clip-path="url(#pea238cdd44)" d="M 228.150991 307.584 
L 228.150991 41.472 
" style="fill:none;stroke:#b0b0b0;stroke-linecap:square;stroke-width:0.8;"/>
     </g>
     <g id="line2d_10">
      <g>
       <use style="stroke:#000000;stroke-width:0.8;" x="228.150991" xlink:href="#m37435453d5" y="307.584"/>
      </g>
     </g>
     <g id="text_5">
      <!-- 2.0 -->
      <defs>
       <path d="M 19.1875 8.296875 
L 53.609375 8.296875 
L 53.609375 0 
L 7.328125 0 
L 7.328125 8.296875 
Q 12.9375 14.109375 22.625 23.890625 
Q 32.328125 33.6875 34.8125 36.53125 
Q 39.546875 41.84375 41.421875 45.53125 
Q 43.3125 49.21875 43.3125 52.78125 
Q 43.3125 58.59375 39.234375 62.25 
Q 35.15625 65.921875 28.609375 65.921875 
Q 23.96875 65.921875 18.8125 64.3125 
Q 13.671875 62.703125 7.8125 59.421875 
L 7.8125 69.390625 
Q 13.765625 71.78125 18.9375 73 
Q 24.125 74.21875 28.421875 74.21875 
Q 39.75 74.21875 46.484375 68.546875 
Q 53.21875 62.890625 53.21875 53.421875 
Q 53.21875 48.921875 51.53125 44.890625 
Q 49.859375 40.875 45.40625 35.40625 
Q 44.1875 33.984375 37.640625 27.21875 
Q 31.109375 20.453125 19.1875 8.296875 
z
" id="DejaVuSans-50"/>
      </defs>
      <g transform="translate(220.199429 322.182437)scale(0.1 -0.1)">
       <use xlink:href="#DejaVuSans-50"/>
       <use x="63.623047" xlink:href="#DejaVuSans-46"/>
       <use x="95.410156" xlink:href="#DejaVuSans-48"/>
      </g>
     </g>
    </g>
    <g id="xtick_6">
     <g id="line2d_11">
      <path clip-path="url(#pea238cdd44)" d="M 270.788739 307.584 
L 270.788739 41.472 
" style="fill:none;stroke:#b0b0b0;stroke-linecap:square;stroke-width:0.8;"/>
     </g>
     <g id="line2d_12">
      <g>
       <use style="stroke:#000000;stroke-width:0.8;" x="270.788739" xlink:href="#m37435453d5" y="307.584"/>
      </g>
     </g>
     <g id="text_6">
      <!-- 2.5 -->
      <g transform="translate(262.837177 322.182437)scale(0.1 -0.1)">
       <use xlink:href="#DejaVuSans-50"/>
       <use x="63.623047" xlink:href="#DejaVuSans-46"/>
       <use x="95.410156" xlink:href="#DejaVuSans-53"/>
      </g>
     </g>
    </g>
    <g id="xtick_7">
     <g id="line2d_13">
      <path clip-path="url(#pea238cdd44)" d="M 313.426487 307.584 
L 313.426487 41.472 
" style="fill:none;stroke:#b0b0b0;stroke-linecap:square;stroke-width:0.8;"/>
     </g>
     <g id="line2d_14">
      <g>
       <use style="stroke:#000000;stroke-width:0.8;" x="313.426487" xlink:href="#m37435453d5" y="307.584"/>
      </g>
     </g>
     <g id="text_7">
      <!-- 3.0 -->
      <defs>
       <path d="M 40.578125 39.3125 
Q 47.65625 37.796875 51.625 33 
Q 55.609375 28.21875 55.609375 21.1875 
Q 55.609375 10.40625 48.1875 4.484375 
Q 40.765625 -1.421875 27.09375 -1.421875 
Q 22.515625 -1.421875 17.65625 -0.515625 
Q 12.796875 0.390625 7.625 2.203125 
L 7.625 11.71875 
Q 11.71875 9.328125 16.59375 8.109375 
Q 21.484375 6.890625 26.8125 6.890625 
Q 36.078125 6.890625 40.9375 10.546875 
Q 45.796875 14.203125 45.796875 21.1875 
Q 45.796875 27.640625 41.28125 31.265625 
Q 36.765625 34.90625 28.71875 34.90625 
L 20.21875 34.90625 
L 20.21875 43.015625 
L 29.109375 43.015625 
Q 36.375 43.015625 40.234375 45.921875 
Q 44.09375 48.828125 44.09375 54.296875 
Q 44.09375 59.90625 40.109375 62.90625 
Q 36.140625 65.921875 28.71875 65.921875 
Q 24.65625 65.921875 20.015625 65.03125 
Q 15.375 64.15625 9.8125 62.3125 
L 9.8125 71.09375 
Q 15.4375 72.65625 20.34375 73.4375 
Q 25.25 74.21875 29.59375 74.21875 
Q 40.828125 74.21875 47.359375 69.109375 
Q 53.90625 64.015625 53.90625 55.328125 
Q 53.90625 49.265625 50.4375 45.09375 
Q 46.96875 40.921875 40.578125 39.3125 
z
" id="DejaVuSans-51"/>
      </defs>
      <g transform="translate(305.474925 322.182437)scale(0.1 -0.1)">
       <use xlink:href="#DejaVuSans-51"/>
       <use x="63.623047" xlink:href="#DejaVuSans-46"/>
       <use x="95.410156" xlink:href="#DejaVuSans-48"/>
      </g>
     </g>
    </g>
    <g id="xtick_8">
     <g id="line2d_15">
      <path clip-path="url(#pea238cdd44)" d="M 356.064235 307.584 
L 356.064235 41.472 
" style="fill:none;stroke:#b0b0b0;stroke-linecap:square;stroke-width:0.8;"/>
     </g>
     <g id="line2d_16">
      <g>
       <use style="stroke:#000000;stroke-width:0.8;" x="356.064235" xlink:href="#m37435453d5" y="307.584"/>
      </g>
     </g>
     <g id="text_8">
      <!-- 3.5 -->
      <g transform="translate(348.112673 322.182437)scale(0.1 -0.1)">
       <use xlink:href="#DejaVuSans-51"/>
       <use x="63.623047" xlink:href="#DejaVuSans-46"/>
       <use x="95.410156" xlink:href="#DejaVuSans-53"/>
      </g>
     </g>
    </g>
    <g id="xtick_9">
     <g id="line2d_17">
      <path clip-path="url(#pea238cdd44)" d="M 398.701983 307.584 
L 398.701983 41.472 
" style="fill:none;stroke:#b0b0b0;stroke-linecap:square;stroke-width:0.8;"/>
     </g>
     <g id="line2d_18">
      <g>
       <use style="stroke:#000000;stroke-width:0.8;" x="398.701983" xlink:href="#m37435453d5" y="307.584"/>
      </g>
     </g>
     <g id="text_9">
      <!-- 4.0 -->
      <defs>
       <path d="M 37.796875 64.3125 
L 12.890625 25.390625 
L 37.796875 25.390625 
z
M 35.203125 72.90625 
L 47.609375 72.90625 
L 47.609375 25.390625 
L 58.015625 25.390625 
L 58.015625 17.1875 
L 47.609375 17.1875 
L 47.609375 0 
L 37.796875 0 
L 37.796875 17.1875 
L 4.890625 17.1875 
L 4.890625 26.703125 
z
" id="DejaVuSans-52"/>
      </defs>
      <g transform="translate(390.75042 322.182437)scale(0.1 -0.1)">
       <use xlink:href="#DejaVuSans-52"/>
       <use x="63.623047" xlink:href="#DejaVuSans-46"/>
       <use x="95.410156" xlink:href="#DejaVuSans-48"/>
      </g>
     </g>
    </g>
    <g id="text_10">
     <!-- Hours -->
     <defs>
      <path d="M 9.8125 72.90625 
L 19.671875 72.90625 
L 19.671875 43.015625 
L 55.515625 43.015625 
L 55.515625 72.90625 
L 65.375 72.90625 
L 65.375 0 
L 55.515625 0 
L 55.515625 34.71875 
L 19.671875 34.71875 
L 19.671875 0 
L 9.8125 0 
z
" id="DejaVuSans-72"/>
      <path d="M 30.609375 48.390625 
Q 23.390625 48.390625 19.1875 42.75 
Q 14.984375 37.109375 14.984375 27.296875 
Q 14.984375 17.484375 19.15625 11.84375 
Q 23.34375 6.203125 30.609375 6.203125 
Q 37.796875 6.203125 41.984375 11.859375 
Q 46.1875 17.53125 46.1875 27.296875 
Q 46.1875 37.015625 41.984375 42.703125 
Q 37.796875 48.390625 30.609375 48.390625 
z
M 30.609375 56 
Q 42.328125 56 49.015625 48.375 
Q 55.71875 40.765625 55.71875 27.296875 
Q 55.71875 13.875 49.015625 6.21875 
Q 42.328125 -1.421875 30.609375 -1.421875 
Q 18.84375 -1.421875 12.171875 6.21875 
Q 5.515625 13.875 5.515625 27.296875 
Q 5.515625 40.765625 12.171875 48.375 
Q 18.84375 56 30.609375 56 
z
" id="DejaVuSans-111"/>
      <path d="M 8.5 21.578125 
L 8.5 54.6875 
L 17.484375 54.6875 
L 17.484375 21.921875 
Q 17.484375 14.15625 20.5 10.265625 
Q 23.53125 6.390625 29.59375 6.390625 
Q 36.859375 6.390625 41.078125 11.03125 
Q 45.3125 15.671875 45.3125 23.6875 
L 45.3125 54.6875 
L 54.296875 54.6875 
L 54.296875 0 
L 45.3125 0 
L 45.3125 8.40625 
Q 42.046875 3.421875 37.71875 1 
Q 33.40625 -1.421875 27.6875 -1.421875 
Q 18.265625 -1.421875 13.375 4.4375 
Q 8.5 10.296875 8.5 21.578125 
z
M 31.109375 56 
z
" id="DejaVuSans-117"/>
      <path d="M 41.109375 46.296875 
Q 39.59375 47.171875 37.8125 47.578125 
Q 36.03125 48 33.890625 48 
Q 26.265625 48 22.1875 43.046875 
Q 18.109375 38.09375 18.109375 28.8125 
L 18.109375 0 
L 9.078125 0 
L 9.078125 54.6875 
L 18.109375 54.6875 
L 18.109375 46.1875 
Q 20.953125 51.171875 25.484375 53.578125 
Q 30.03125 56 36.53125 56 
Q 37.453125 56 38.578125 55.875 
Q 39.703125 55.765625 41.0625 55.515625 
z
" id="DejaVuSans-114"/>
      <path d="M 44.28125 53.078125 
L 44.28125 44.578125 
Q 40.484375 46.53125 36.375 47.5 
Q 32.28125 48.484375 27.875 48.484375 
Q 21.1875 48.484375 17.84375 46.4375 
Q 14.5 44.390625 14.5 40.28125 
Q 14.5 37.15625 16.890625 35.375 
Q 19.28125 33.59375 26.515625 31.984375 
L 29.59375 31.296875 
Q 39.15625 29.25 43.1875 25.515625 
Q 47.21875 21.78125 47.21875 15.09375 
Q 47.21875 7.46875 41.1875 3.015625 
Q 35.15625 -1.421875 24.609375 -1.421875 
Q 20.21875 -1.421875 15.453125 -0.5625 
Q 10.6875 0.296875 5.421875 2 
L 5.421875 11.28125 
Q 10.40625 8.6875 15.234375 7.390625 
Q 20.0625 6.109375 24.8125 6.109375 
Q 31.15625 6.109375 34.5625 8.28125 
Q 37.984375 10.453125 37.984375 14.40625 
Q 37.984375 18.0625 35.515625 20.015625 
Q 33.0625 21.96875 24.703125 23.78125 
L 21.578125 24.515625 
Q 13.234375 26.265625 9.515625 29.90625 
Q 5.8125 33.546875 5.8125 39.890625 
Q 5.8125 47.609375 11.28125 51.796875 
Q 16.75 56 26.8125 56 
Q 31.78125 56 36.171875 55.265625 
Q 40.578125 54.546875 44.28125 53.078125 
z
" id="DejaVuSans-115"/>
     </defs>
     <g transform="translate(221.511562 335.860562)scale(0.1 -0.1)">
      <use xlink:href="#DejaVuSans-72"/>
      <use x="75.195312" xlink:href="#DejaVuSans-111"/>
      <use x="136.376953" xlink:href="#DejaVuSans-117"/>
      <use x="199.755859" xlink:href="#DejaVuSans-114"/>
      <use x="240.869141" xlink:href="#DejaVuSans-115"/>
     </g>
    </g>
   </g>
   <g id="matplotlib.axis_2">
    <g id="ytick_1">
     <g id="line2d_19">
      <path clip-path="url(#pea238cdd44)" d="M 57.6 295.551721 
L 414.72 295.551721 
" style="fill:none;stroke:#b0b0b0;stroke-linecap:square;stroke-width:0.8;"/>
     </g>
     <g id="line2d_20">
      <defs>
       <path d="M 0 0 
L -3.5 0 
" id="mc2489709a7" style="stroke:#000000;stroke-width:0.8;"/>
      </defs>
      <g>
       <use style="stroke:#000000;stroke-width:0.8;" x="57.6" xlink:href="#mc2489709a7" y="295.551721"/>
      </g>
     </g>
     <g id="text_11">
      <!-- 0.00000 -->
      <g transform="translate(9.246875 299.350939)scale(0.1 -0.1)">
       <use xlink:href="#DejaVuSans-48"/>
       <use x="63.623047" xlink:href="#DejaVuSans-46"/>
       <use x="95.410156" xlink:href="#DejaVuSans-48"/>
       <use x="159.033203" xlink:href="#DejaVuSans-48"/>
       <use x="222.65625" xlink:href="#DejaVuSans-48"/>
       <use x="286.279297" xlink:href="#DejaVuSans-48"/>
       <use x="349.902344" xlink:href="#DejaVuSans-48"/>
      </g>
     </g>
    </g>
    <g id="ytick_2">
     <g id="line2d_21">
      <path clip-path="url(#pea238cdd44)" d="M 57.6 264.804398 
L 414.72 264.804398 
" style="fill:none;stroke:#b0b0b0;stroke-linecap:square;stroke-width:0.8;"/>
     </g>
     <g id="line2d_22">
      <g>
       <use style="stroke:#000000;stroke-width:0.8;" x="57.6" xlink:href="#mc2489709a7" y="264.804398"/>
      </g>
     </g>
     <g id="text_12">
      <!-- 0.00001 -->
      <g transform="translate(9.246875 268.603616)scale(0.1 -0.1)">
       <use xlink:href="#DejaVuSans-48"/>
       <use x="63.623047" xlink:href="#DejaVuSans-46"/>
       <use x="95.410156" xlink:href="#DejaVuSans-48"/>
       <use x="159.033203" xlink:href="#DejaVuSans-48"/>
       <use x="222.65625" xlink:href="#DejaVuSans-48"/>
       <use x="286.279297" xlink:href="#DejaVuSans-48"/>
       <use x="349.902344" xlink:href="#DejaVuSans-49"/>
      </g>
     </g>
    </g>
    <g id="ytick_3">
     <g id="line2d_23">
      <path clip-path="url(#pea238cdd44)" d="M 57.6 234.057075 
L 414.72 234.057075 
" style="fill:none;stroke:#b0b0b0;stroke-linecap:square;stroke-width:0.8;"/>
     </g>
     <g id="line2d_24">
      <g>
       <use style="stroke:#000000;stroke-width:0.8;" x="57.6" xlink:href="#mc2489709a7" y="234.057075"/>
      </g>
     </g>
     <g id="text_13">
      <!-- 0.00002 -->
      <g transform="translate(9.246875 237.856294)scale(0.1 -0.1)">
       <use xlink:href="#DejaVuSans-48"/>
       <use x="63.623047" xlink:href="#DejaVuSans-46"/>
       <use x="95.410156" xlink:href="#DejaVuSans-48"/>
       <use x="159.033203" xlink:href="#DejaVuSans-48"/>
       <use x="222.65625" xlink:href="#DejaVuSans-48"/>
       <use x="286.279297" xlink:href="#DejaVuSans-48"/>
       <use x="349.902344" xlink:href="#DejaVuSans-50"/>
      </g>
     </g>
    </g>
    <g id="ytick_4">
     <g id="line2d_25">
      <path clip-path="url(#pea238cdd44)" d="M 57.6 203.309752 
L 414.72 203.309752 
" style="fill:none;stroke:#b0b0b0;stroke-linecap:square;stroke-width:0.8;"/>
     </g>
     <g id="line2d_26">
      <g>
       <use style="stroke:#000000;stroke-width:0.8;" x="57.6" xlink:href="#mc2489709a7" y="203.309752"/>
      </g>
     </g>
     <g id="text_14">
      <!-- 0.00003 -->
      <g transform="translate(9.246875 207.108971)scale(0.1 -0.1)">
       <use xlink:href="#DejaVuSans-48"/>
       <use x="63.623047" xlink:href="#DejaVuSans-46"/>
       <use x="95.410156" xlink:href="#DejaVuSans-48"/>
       <use x="159.033203" xlink:href="#DejaVuSans-48"/>
       <use x="222.65625" xlink:href="#DejaVuSans-48"/>
       <use x="286.279297" xlink:href="#DejaVuSans-48"/>
       <use x="349.902344" xlink:href="#DejaVuSans-51"/>
      </g>
     </g>
    </g>
    <g id="ytick_5">
     <g id="line2d_27">
      <path clip-path="url(#pea238cdd44)" d="M 57.6 172.562429 
L 414.72 172.562429 
" style="fill:none;stroke:#b0b0b0;stroke-linecap:square;stroke-width:0.8;"/>
     </g>
     <g id="line2d_28">
      <g>
       <use style="stroke:#000000;stroke-width:0.8;" x="57.6" xlink:href="#mc2489709a7" y="172.562429"/>
      </g>
     </g>
     <g id="text_15">
      <!-- 0.00004 -->
      <g transform="translate(9.246875 176.361648)scale(0.1 -0.1)">
       <use xlink:href="#DejaVuSans-48"/>
       <use x="63.623047" xlink:href="#DejaVuSans-46"/>
       <use x="95.410156" xlink:href="#DejaVuSans-48"/>
       <use x="159.033203" xlink:href="#DejaVuSans-48"/>
       <use x="222.65625" xlink:href="#DejaVuSans-48"/>
       <use x="286.279297" xlink:href="#DejaVuSans-48"/>
       <use x="349.902344" xlink:href="#DejaVuSans-52"/>
      </g>
     </g>
    </g>
    <g id="ytick_6">
     <g id="line2d_29">
      <path clip-path="url(#pea238cdd44)" d="M 57.6 141.815106 
L 414.72 141.815106 
" style="fill:none;stroke:#b0b0b0;stroke-linecap:square;stroke-width:0.8;"/>
     </g>
     <g id="line2d_30">
      <g>
       <use style="stroke:#000000;stroke-width:0.8;" x="57.6" xlink:href="#mc2489709a7" y="141.815106"/>
      </g>
     </g>
     <g id="text_16">
      <!-- 0.00005 -->
      <g transform="translate(9.246875 145.614325)scale(0.1 -0.1)">
       <use xlink:href="#DejaVuSans-48"/>
       <use x="63.623047" xlink:href="#DejaVuSans-46"/>
       <use x="95.410156" xlink:href="#DejaVuSans-48"/>
       <use x="159.033203" xlink:href="#DejaVuSans-48"/>
       <use x="222.65625" xlink:href="#DejaVuSans-48"/>
       <use x="286.279297" xlink:href="#DejaVuSans-48"/>
       <use x="349.902344" xlink:href="#DejaVuSans-53"/>
      </g>
     </g>
    </g>
    <g id="ytick_7">
     <g id="line2d_31">
      <path clip-path="url(#pea238cdd44)" d="M 57.6 111.067784 
L 414.72 111.067784 
" style="fill:none;stroke:#b0b0b0;stroke-linecap:square;stroke-width:0.8;"/>
     </g>
     <g id="line2d_32">
      <g>
       <use style="stroke:#000000;stroke-width:0.8;" x="57.6" xlink:href="#mc2489709a7" y="111.067784"/>
      </g>
     </g>
     <g id="text_17">
      <!-- 0.00006 -->
      <defs>
       <path d="M 33.015625 40.375 
Q 26.375 40.375 22.484375 35.828125 
Q 18.609375 31.296875 18.609375 23.390625 
Q 18.609375 15.53125 22.484375 10.953125 
Q 26.375 6.390625 33.015625 6.390625 
Q 39.65625 6.390625 43.53125 10.953125 
Q 47.40625 15.53125 47.40625 23.390625 
Q 47.40625 31.296875 43.53125 35.828125 
Q 39.65625 40.375 33.015625 40.375 
z
M 52.59375 71.296875 
L 52.59375 62.3125 
Q 48.875 64.0625 45.09375 64.984375 
Q 41.3125 65.921875 37.59375 65.921875 
Q 27.828125 65.921875 22.671875 59.328125 
Q 17.53125 52.734375 16.796875 39.40625 
Q 19.671875 43.65625 24.015625 45.921875 
Q 28.375 48.1875 33.59375 48.1875 
Q 44.578125 48.1875 50.953125 41.515625 
Q 57.328125 34.859375 57.328125 23.390625 
Q 57.328125 12.15625 50.6875 5.359375 
Q 44.046875 -1.421875 33.015625 -1.421875 
Q 20.359375 -1.421875 13.671875 8.265625 
Q 6.984375 17.96875 6.984375 36.375 
Q 6.984375 53.65625 15.1875 63.9375 
Q 23.390625 74.21875 37.203125 74.21875 
Q 40.921875 74.21875 44.703125 73.484375 
Q 48.484375 72.75 52.59375 71.296875 
z
" id="DejaVuSans-54"/>
      </defs>
      <g transform="translate(9.246875 114.867002)scale(0.1 -0.1)">
       <use xlink:href="#DejaVuSans-48"/>
       <use x="63.623047" xlink:href="#DejaVuSans-46"/>
       <use x="95.410156" xlink:href="#DejaVuSans-48"/>
       <use x="159.033203" xlink:href="#DejaVuSans-48"/>
       <use x="222.65625" xlink:href="#DejaVuSans-48"/>
       <use x="286.279297" xlink:href="#DejaVuSans-48"/>
       <use x="349.902344" xlink:href="#DejaVuSans-54"/>
      </g>
     </g>
    </g>
    <g id="ytick_8">
     <g id="line2d_33">
      <path clip-path="url(#pea238cdd44)" d="M 57.6 80.320461 
L 414.72 80.320461 
" style="fill:none;stroke:#b0b0b0;stroke-linecap:square;stroke-width:0.8;"/>
     </g>
     <g id="line2d_34">
      <g>
       <use style="stroke:#000000;stroke-width:0.8;" x="57.6" xlink:href="#mc2489709a7" y="80.320461"/>
      </g>
     </g>
     <g id="text_18">
      <!-- 0.00007 -->
      <defs>
       <path d="M 8.203125 72.90625 
L 55.078125 72.90625 
L 55.078125 68.703125 
L 28.609375 0 
L 18.3125 0 
L 43.21875 64.59375 
L 8.203125 64.59375 
z
" id="DejaVuSans-55"/>
      </defs>
      <g transform="translate(9.246875 84.11968)scale(0.1 -0.1)">
       <use xlink:href="#DejaVuSans-48"/>
       <use x="63.623047" xlink:href="#DejaVuSans-46"/>
       <use x="95.410156" xlink:href="#DejaVuSans-48"/>
       <use x="159.033203" xlink:href="#DejaVuSans-48"/>
       <use x="222.65625" xlink:href="#DejaVuSans-48"/>
       <use x="286.279297" xlink:href="#DejaVuSans-48"/>
       <use x="349.902344" xlink:href="#DejaVuSans-55"/>
      </g>
     </g>
    </g>
    <g id="ytick_9">
     <g id="line2d_35">
      <path clip-path="url(#pea238cdd44)" d="M 57.6 49.573138 
L 414.72 49.573138 
" style="fill:none;stroke:#b0b0b0;stroke-linecap:square;stroke-width:0.8;"/>
     </g>
     <g id="line2d_36">
      <g>
       <use style="stroke:#000000;stroke-width:0.8;" x="57.6" xlink:href="#mc2489709a7" y="49.573138"/>
      </g>
     </g>
     <g id="text_19">
      <!-- 0.00008 -->
      <defs>
       <path d="M 31.78125 34.625 
Q 24.75 34.625 20.71875 30.859375 
Q 16.703125 27.09375 16.703125 20.515625 
Q 16.703125 13.921875 20.71875 10.15625 
Q 24.75 6.390625 31.78125 6.390625 
Q 38.8125 6.390625 42.859375 10.171875 
Q 46.921875 13.96875 46.921875 20.515625 
Q 46.921875 27.09375 42.890625 30.859375 
Q 38.875 34.625 31.78125 34.625 
z
M 21.921875 38.8125 
Q 15.578125 40.375 12.03125 44.71875 
Q 8.5 49.078125 8.5 55.328125 
Q 8.5 64.0625 14.71875 69.140625 
Q 20.953125 74.21875 31.78125 74.21875 
Q 42.671875 74.21875 48.875 69.140625 
Q 55.078125 64.0625 55.078125 55.328125 
Q 55.078125 49.078125 51.53125 44.71875 
Q 48 40.375 41.703125 38.8125 
Q 48.828125 37.15625 52.796875 32.3125 
Q 56.78125 27.484375 56.78125 20.515625 
Q 56.78125 9.90625 50.3125 4.234375 
Q 43.84375 -1.421875 31.78125 -1.421875 
Q 19.734375 -1.421875 13.25 4.234375 
Q 6.78125 9.90625 6.78125 20.515625 
Q 6.78125 27.484375 10.78125 32.3125 
Q 14.796875 37.15625 21.921875 38.8125 
z
M 18.3125 54.390625 
Q 18.3125 48.734375 21.84375 45.5625 
Q 25.390625 42.390625 31.78125 42.390625 
Q 38.140625 42.390625 41.71875 45.5625 
Q 45.3125 48.734375 45.3125 54.390625 
Q 45.3125 60.0625 41.71875 63.234375 
Q 38.140625 66.40625 31.78125 66.40625 
Q 25.390625 66.40625 21.84375 63.234375 
Q 18.3125 60.0625 18.3125 54.390625 
z
" id="DejaVuSans-56"/>
      </defs>
      <g transform="translate(9.246875 53.372357)scale(0.1 -0.1)">
       <use xlink:href="#DejaVuSans-48"/>
       <use x="63.623047" xlink:href="#DejaVuSans-46"/>
       <use x="95.410156" xlink:href="#DejaVuSans-48"/>
       <use x="159.033203" xlink:href="#DejaVuSans-48"/>
       <use x="222.65625" xlink:href="#DejaVuSans-48"/>
       <use x="286.279297" xlink:href="#DejaVuSans-48"/>
       <use x="349.902344" xlink:href="#DejaVuSans-56"/>
      </g>
     </g>
    </g>
    <g id="text_20">
     <!-- Distillation Loss -->
     <defs>
      <path d="M 19.671875 64.796875 
L 19.671875 8.109375 
L 31.59375 8.109375 
Q 46.6875 8.109375 53.6875 14.9375 
Q 60.6875 21.78125 60.6875 36.53125 
Q 60.6875 51.171875 53.6875 57.984375 
Q 46.6875 64.796875 31.59375 64.796875 
z
M 9.8125 72.90625 
L 30.078125 72.90625 
Q 51.265625 72.90625 61.171875 64.09375 
Q 71.09375 55.28125 71.09375 36.53125 
Q 71.09375 17.671875 61.125 8.828125 
Q 51.171875 0 30.078125 0 
L 9.8125 0 
z
" id="DejaVuSans-68"/>
      <path d="M 9.421875 54.6875 
L 18.40625 54.6875 
L 18.40625 0 
L 9.421875 0 
z
M 9.421875 75.984375 
L 18.40625 75.984375 
L 18.40625 64.59375 
L 9.421875 64.59375 
z
" id="DejaVuSans-105"/>
      <path d="M 18.3125 70.21875 
L 18.3125 54.6875 
L 36.8125 54.6875 
L 36.8125 47.703125 
L 18.3125 47.703125 
L 18.3125 18.015625 
Q 18.3125 11.328125 20.140625 9.421875 
Q 21.96875 7.515625 27.59375 7.515625 
L 36.8125 7.515625 
L 36.8125 0 
L 27.59375 0 
Q 17.1875 0 13.234375 3.875 
Q 9.28125 7.765625 9.28125 18.015625 
L 9.28125 47.703125 
L 2.6875 47.703125 
L 2.6875 54.6875 
L 9.28125 54.6875 
L 9.28125 70.21875 
z
" id="DejaVuSans-116"/>
      <path d="M 9.421875 75.984375 
L 18.40625 75.984375 
L 18.40625 0 
L 9.421875 0 
z
" id="DejaVuSans-108"/>
      <path d="M 34.28125 27.484375 
Q 23.390625 27.484375 19.1875 25 
Q 14.984375 22.515625 14.984375 16.5 
Q 14.984375 11.71875 18.140625 8.90625 
Q 21.296875 6.109375 26.703125 6.109375 
Q 34.1875 6.109375 38.703125 11.40625 
Q 43.21875 16.703125 43.21875 25.484375 
L 43.21875 27.484375 
z
M 52.203125 31.203125 
L 52.203125 0 
L 43.21875 0 
L 43.21875 8.296875 
Q 40.140625 3.328125 35.546875 0.953125 
Q 30.953125 -1.421875 24.3125 -1.421875 
Q 15.921875 -1.421875 10.953125 3.296875 
Q 6 8.015625 6 15.921875 
Q 6 25.140625 12.171875 29.828125 
Q 18.359375 34.515625 30.609375 34.515625 
L 43.21875 34.515625 
L 43.21875 35.40625 
Q 43.21875 41.609375 39.140625 45 
Q 35.0625 48.390625 27.6875 48.390625 
Q 23 48.390625 18.546875 47.265625 
Q 14.109375 46.140625 10.015625 43.890625 
L 10.015625 52.203125 
Q 14.9375 54.109375 19.578125 55.046875 
Q 24.21875 56 28.609375 56 
Q 40.484375 56 46.34375 49.84375 
Q 52.203125 43.703125 52.203125 31.203125 
z
" id="DejaVuSans-97"/>
      <path d="M 54.890625 33.015625 
L 54.890625 0 
L 45.90625 0 
L 45.90625 32.71875 
Q 45.90625 40.484375 42.875 44.328125 
Q 39.84375 48.1875 33.796875 48.1875 
Q 26.515625 48.1875 22.3125 43.546875 
Q 18.109375 38.921875 18.109375 30.90625 
L 18.109375 0 
L 9.078125 0 
L 9.078125 54.6875 
L 18.109375 54.6875 
L 18.109375 46.1875 
Q 21.34375 51.125 25.703125 53.5625 
Q 30.078125 56 35.796875 56 
Q 45.21875 56 50.046875 50.171875 
Q 54.890625 44.34375 54.890625 33.015625 
z
" id="DejaVuSans-110"/>
      <path id="DejaVuSans-32"/>
      <path d="M 9.8125 72.90625 
L 19.671875 72.90625 
L 19.671875 8.296875 
L 55.171875 8.296875 
L 55.171875 0 
L 9.8125 0 
z
" id="DejaVuSans-76"/>
     </defs>
     <g transform="translate(3.167187 213.783469)rotate(-90)scale(0.1 -0.1)">
      <use xlink:href="#DejaVuSans-68"/>
      <use x="77.001953" xlink:href="#DejaVuSans-105"/>
      <use x="104.785156" xlink:href="#DejaVuSans-115"/>
      <use x="156.884766" xlink:href="#DejaVuSans-116"/>
      <use x="196.09375" xlink:href="#DejaVuSans-105"/>
      <use x="223.876953" xlink:href="#DejaVuSans-108"/>
      <use x="251.660156" xlink:href="#DejaVuSans-108"/>
      <use x="279.443359" xlink:href="#DejaVuSans-97"/>
      <use x="340.722656" xlink:href="#DejaVuSans-116"/>
      <use x="379.931641" xlink:href="#DejaVuSans-105"/>
      <use x="407.714844" xlink:href="#DejaVuSans-111"/>
      <use x="468.896484" xlink:href="#DejaVuSans-110"/>
      <use x="532.275391" xlink:href="#DejaVuSans-32"/>
      <use x="564.0625" xlink:href="#DejaVuSans-76"/>
      <use x="619.759766" xlink:href="#DejaVuSans-111"/>
      <use x="680.941406" xlink:href="#DejaVuSans-115"/>
      <use x="733.041016" xlink:href="#DejaVuSans-115"/>
     </g>
    </g>
   </g>
   <g id="line2d_37">
    <path clip-path="url(#pea238cdd44)" d="M 57.6 268.149448 
L 57.740509 239.874895 
L 58.410051 274.585237 
L 58.742974 275.496621 
L 59.23771 281.713804 
L 59.362695 286.662081 
L 59.465338 268.120684 
L 59.97335 285.628132 
L 61.427757 292.750878 
L 61.889419 292.306267 
L 62.126892 294.372971 
L 62.347866 294.513982 
L 62.460388 293.522376 
L 62.716104 294.893672 
L 63.443465 294.882729 
L 63.919741 295.416285 
L 64.886423 295.127659 
L 65.245629 295.288168 
L 65.611364 294.636757 
L 65.714241 295.227958 
L 65.840995 295.217012 
L 65.981793 295.320617 
L 66.561953 295.273419 
L 67.674457 295.306898 
L 69.38795 295.209748 
L 69.759851 295.414032 
L 69.888526 295.336002 
L 71.075799 295.448682 
L 71.337987 295.242518 
L 72.26693 295.055685 
L 72.658585 295.215423 
L 72.753467 294.864427 
L 74.055191 295.148503 
L 74.159973 295.416488 
L 74.283912 294.989878 
L 75.006895 295.374151 
L 75.592413 295.418823 
L 75.841025 294.945896 
L 75.977497 295.146506 
L 77.108917 295.362192 
L 77.227012 295.1837 
L 78.272667 294.7154 
L 78.39633 295.364324 
L 78.619152 294.993806 
L 79.291731 295.420037 
L 79.521306 295.198665 
L 79.866692 295.15073 
L 80.69494 295.452268 
L 81.600123 295.300183 
L 81.703297 295.117378 
L 81.803643 295.234245 
L 82.250163 295.382991 
L 83.517301 295.180737 
L 83.760561 295.028586 
L 84.226224 295.208459 
L 84.705536 295.164668 
L 84.789903 295.488 
L 85.151707 295.122204 
L 86.621574 295.149415 
L 87.2831 295.445101 
L 87.596192 295.359093 
L 87.845154 295.05422 
L 87.960795 295.178128 
L 88.24205 294.92769 
L 88.735337 295.216383 
L 89.247632 295.133611 
L 89.47087 295.386551 
L 90.071989 295.123376 
L 91.771774 295.127228 
L 92.510567 295.297237 
L 93.112531 294.596308 
L 93.55003 295.122986 
L 93.671033 294.996022 
L 94.226931 295.275581 
L 94.920071 295.281082 
L 95.059323 294.696267 
L 95.636942 295.335886 
L 95.846458 295.039092 
L 96.173174 295.21324 
L 97.279254 295.292353 
L 97.51448 295.143611 
L 98.284027 295.190815 
L 99.078786 295.38585 
L 100.115842 295.312443 
L 100.550777 294.947278 
L 101.001971 294.90326 
L 101.298584 295.344166 
L 101.787841 294.987394 
L 101.933055 294.386617 
L 102.057256 294.978641 
L 102.300863 295.230076 
L 103.646818 295.060544 
L 103.77517 294.519584 
L 106.459584 295.341786 
L 107.256359 295.317491 
L 107.484235 294.487657 
L 107.7008 295.260449 
L 108.225439 295.19728 
L 109.319726 295.27997 
L 109.705568 294.593689 
L 110.066381 295.303858 
L 110.775393 295.32428 
L 111.681662 295.11924 
L 111.811951 295.288329 
L 112.163582 294.73235 
L 112.261752 294.805806 
L 113.355827 294.209151 
L 113.480225 295.108483 
L 114.8162 295.070585 
L 115.176072 293.467246 
L 115.300621 294.92935 
L 115.567537 295.251611 
L 115.804706 295.044887 
L 118.119087 295.241065 
L 118.377633 294.687543 
L 118.726867 294.854275 
L 118.962478 294.278095 
L 119.568812 295.170221 
L 119.671688 294.618007 
L 120.376049 295.073678 
L 120.599949 294.725134 
L 120.731957 295.001396 
L 120.967527 294.812934 
L 121.096342 295.146696 
L 121.457787 294.42552 
L 121.7192 294.698815 
L 122.375145 294.909153 
L 122.502835 295.150733 
L 123.629915 294.502017 
L 123.877264 295.153906 
L 124.31357 294.996108 
L 124.546751 294.573308 
L 125.04692 294.888542 
L 125.527416 295.04774 
L 125.645581 295.259733 
L 126.007917 294.852962 
L 126.223729 295.063188 
L 126.364216 294.503002 
L 126.624607 295.405566 
L 126.758782 294.368077 
L 126.87568 294.593707 
L 127.110101 294.750343 
L 127.247476 295.031121 
L 128.021796 294.677774 
L 128.506819 291.65474 
L 128.934076 294.791992 
L 129.240996 294.872277 
L 131.614071 294.560097 
L 131.721335 293.577089 
L 132.026739 293.274456 
L 133.624566 291.278502 
L 134.728756 293.285582 
L 135.006633 295.3361 
L 135.156679 295.058689 
L 135.28561 293.874323 
L 135.441296 294.926281 
L 135.701603 292.846141 
L 136.143653 294.671843 
L 136.693661 294.612673 
L 136.839743 293.585325 
L 137.33711 293.596612 
L 137.753741 294.880121 
L 138.342624 294.741053 
L 138.71145 294.901516 
L 138.816817 293.18918 
L 138.947373 294.924776 
L 139.0881 293.86012 
L 139.188836 294.18185 
L 139.488908 293.670788 
L 139.595931 294.144781 
L 139.726145 293.887619 
L 140.15939 294.153083 
L 140.322474 294.449904 
L 140.444303 295.012694 
L 140.741421 294.734084 
L 140.998484 292.39144 
L 141.15805 294.530184 
L 142.15372 294.393342 
L 142.566518 295.009594 
L 143.073248 294.572798 
L 143.436019 291.355622 
L 143.676021 287.743205 
L 143.938654 294.393755 
L 144.465882 288.524489 
L 144.941657 294.778089 
L 145.367943 294.153083 
L 145.452246 270.292809 
L 145.571726 291.74737 
L 145.664527 288.129659 
L 146.447266 291.808975 
L 147.229083 271.147497 
L 147.487906 288.015867 
L 147.58275 180.952775 
L 148.067206 291.37478 
L 148.558908 283.075689 
L 148.898249 292.248075 
L 148.998896 288.289847 
L 149.132173 199.507406 
L 149.347489 278.095215 
L 149.584298 287.223701 
L 150.34108 288.28815 
L 150.69558 284.049087 
L 150.841982 279.449953 
L 151.209918 271.890747 
L 151.361684 273.75485 
L 151.476848 292.614223 
L 151.733443 271.556621 
L 151.837312 244.246444 
L 152.562668 285.239208 
L 153.083135 279.479788 
L 153.22945 292.911331 
L 153.462368 229.791021 
L 153.692366 288.376537 
L 153.947544 285.087095 
L 154.054123 286.978048 
L 154.179479 254.773478 
L 154.412636 267.967161 
L 154.761576 219.69086 
L 154.99898 272.981278 
L 155.279468 215.229148 
L 155.863078 251.175109 
L 155.991911 228.016554 
L 156.093227 252.660624 
L 156.805232 235.748667 
L 156.951787 272.284475 
L 157.194207 257.904638 
L 157.563385 271.17344 
L 158.051427 213.616456 
L 158.38284 202.365862 
L 158.77888 252.050933 
L 158.880309 281.242961 
L 159.156041 147.25345 
L 159.410193 272.844371 
L 159.648483 272.267546 
L 160.228293 247.398136 
L 160.589937 264.782197 
L 160.89772 272.709921 
L 162.770687 186.215542 
L 163.306792 236.301319 
L 163.542907 158.486454 
L 163.685898 246.89233 
L 164.155757 242.190503 
L 164.41427 266.96661 
L 164.513002 213.162524 
L 164.855512 231.591595 
L 165.327117 164.38273 
L 165.687401 238.234725 
L 165.932259 247.222116 
L 166.068783 223.8257 
L 166.307206 230.038786 
L 166.788989 164.98635 
L 167.26711 218.576798 
L 168.11351 192.430457 
L 168.232289 228.493981 
L 168.520921 181.211066 
L 168.747018 229.41666 
L 169.118681 219.797024 
L 169.217776 173.084955 
L 169.347036 229.305814 
L 169.679607 274.848935 
L 169.945353 140.870715 
L 170.052279 183.484415 
L 170.975675 180.343707 
L 171.100768 225.078606 
L 171.474714 224.802121 
L 172.352285 217.05182 
L 172.788198 91.515215 
L 173.842329 226.078685 
L 173.990757 172.672646 
L 174.246861 188.907329 
L 174.408403 163.194842 
L 174.529936 220.859542 
L 174.935644 184.766242 
L 175.086393 242.249413 
L 175.577489 216.177878 
L 176.234165 209.85342 
L 176.341938 156.959121 
L 176.840974 183.458441 
L 176.944291 179.863109 
L 177.089373 235.083285 
L 177.206628 207.359572 
L 177.548785 230.180399 
L 177.713673 226.498516 
L 177.844505 247.308325 
L 178.2304 235.971735 
L 178.369816 240.802098 
L 179.380195 240.771069 
L 179.849287 253.976436 
L 180.086227 254.341085 
L 180.463197 206.162136 
L 180.849685 246.998942 
L 181.224118 223.146744 
L 181.466317 240.429264 
L 181.60475 208.87238 
L 181.989338 209.073243 
L 182.925184 235.436052 
L 183.190877 222.431971 
L 183.412149 219.705446 
L 183.699358 200.226609 
L 183.8194 229.790842 
L 184.20439 203.817814 
L 184.473171 238.356857 
L 184.752302 173.772715 
L 185.365151 236.505863 
L 186.229899 221.906411 
L 186.367045 230.26248 
L 186.702477 213.025056 
L 186.935223 208.255197 
L 187.652871 235.841308 
L 187.784743 225.191203 
L 188.00373 155.887934 
L 188.222433 255.875856 
L 188.723716 245.746551 
L 189.220745 183.086893 
L 189.484431 258.627124 
L 190.054665 193.846044 
L 190.181233 206.276964 
L 191.130192 144.835089 
L 191.234114 218.27076 
L 191.951562 204.662382 
L 192.401186 205.327457 
L 192.494785 121.784992 
L 192.612479 257.440251 
L 193.674075 184.801186 
L 193.922468 214.120281 
L 194.279291 185.556072 
L 195.000956 237.257628 
L 195.122513 189.896837 
L 195.592795 224.387066 
L 195.926694 211.922969 
L 196.019009 245.924383 
L 196.158794 178.912841 
L 196.535094 228.065984 
L 197.818746 229.57754 
L 198.179783 196.13654 
L 198.543375 270.648806 
L 198.651606 156.332067 
L 199.164376 234.504587 
L 199.306826 222.659032 
L 199.403362 199.883619 
L 201.226303 252.219293 
L 201.561291 224.866182 
L 201.800517 263.374838 
L 201.917841 145.437367 
L 202.16345 238.848675 
L 202.286327 205.86215 
L 202.637804 205.170872 
L 203.000893 160.346867 
L 203.122411 210.837207 
L 203.619659 154.68782 
L 203.889375 198.141764 
L 204.118906 181.794563 
L 204.476917 214.552976 
L 204.718825 220.182762 
L 204.957977 236.865285 
L 205.173503 63.920759 
L 205.44583 233.264243 
L 205.6689 162.143991 
L 206.944954 252.470957 
L 207.452898 251.457139 
L 208.038439 116.09977 
L 208.159135 200.935924 
L 208.387259 163.596613 
L 208.737314 136.525833 
L 209.320052 233.855564 
L 209.723645 211.529877 
L 210.474282 215.799529 
L 210.710435 196.122893 
L 210.935015 100.11509 
L 211.0554 172.956833 
L 211.435519 180.563811 
L 211.573906 189.085732 
L 211.701639 249.807459 
L 212.0707 207.636214 
L 213.621528 248.24309 
L 213.859595 213.958026 
L 214.564166 228.494367 
L 215.029978 162.641446 
L 215.140013 261.088237 
L 215.242204 173.810176 
L 215.364825 224.689961 
L 215.595486 240.612549 
L 216.054812 242.82112 
L 216.397997 234.520085 
L 217.267473 258.096855 
L 217.495698 132.654804 
L 217.841692 183.387266 
L 217.969736 255.784633 
L 218.326562 213.678917 
L 218.426411 233.49933 
L 219.042702 206.182036 
L 219.163303 243.790617 
L 219.294951 192.461509 
L 219.635401 246.342626 
L 219.937747 236.81845 
L 220.086845 250.03535 
L 220.218419 211.80601 
L 220.327494 224.742685 
L 220.474691 208.313224 
L 221.197556 203.059058 
L 221.828502 206.950814 
L 223.006664 259.814213 
L 223.270939 208.965272 
L 223.829694 265.008679 
L 224.324005 189.213843 
L 225.159932 247.279986 
L 225.398816 227.850165 
L 225.748122 232.10202 
L 225.996147 188.952419 
L 226.095337 216.481628 
L 226.452656 203.411417 
L 226.568484 192.747016 
L 226.797644 153.776187 
L 226.91139 242.00827 
L 227.269488 176.019911 
L 229.456612 145.989387 
L 229.617071 234.802264 
L 229.856947 178.978569 
L 230.407668 247.534949 
L 230.791089 223.865639 
L 231.422625 217.651989 
L 231.554676 243.675274 
L 232.062928 225.722506 
L 232.169858 258.676353 
L 232.311481 181.869799 
L 232.543121 166.614467 
L 232.764151 195.696837 
L 233.047904 175.930089 
L 233.308287 243.89913 
L 234.314282 202.304279 
L 234.960117 250.89017 
L 235.081208 231.344383 
L 236.275004 200.692442 
L 236.379674 238.783395 
L 237.791643 216.466975 
L 238.318864 197.002915 
L 238.462248 224.863665 
L 238.883316 217.51395 
L 239.004569 240.407725 
L 239.410881 271.644038 
L 239.686829 216.894704 
L 239.836616 219.19237 
L 239.950852 228.815282 
L 240.837121 238.39098 
L 240.974762 224.169189 
L 241.091819 197.712061 
L 241.245864 243.361412 
L 241.630607 121.239706 
L 242.024394 249.915522 
L 242.139176 95.118634 
L 243.125928 208.846255 
L 243.760329 188.366809 
L 243.867699 220.888502 
L 244.219858 158.782643 
L 245.103888 233.306475 
L 245.363126 140.606763 
L 246.725986 254.014082 
L 247.349486 249.29712 
L 247.475213 111.745156 
L 247.735086 203.683338 
L 248.550181 153.702372 
L 248.659372 203.428453 
L 249.403298 199.372338 
L 249.556974 184.730783 
L 250.653054 192.298677 
L 251.12113 179.327163 
L 251.338171 179.018055 
L 251.825905 147.621542 
L 252.865436 213.946018 
L 253.13144 152.58331 
L 253.553221 165.935947 
L 253.799375 203.913967 
L 253.945093 154.485491 
L 254.410902 232.375441 
L 254.545037 186.521105 
L 254.889663 225.384303 
L 255.510261 101.245998 
L 255.73051 224.876585 
L 256.229087 196.505303 
L 256.498527 205.499936 
L 256.62136 224.952263 
L 256.777681 207.947984 
L 257.062612 204.802943 
L 257.334758 142.494783 
L 258.059185 184.112733 
L 258.471871 217.861929 
L 258.75167 217.201379 
L 259.199646 257.982564 
L 259.615745 194.43897 
L 260.213182 164.687577 
L 260.675253 237.979269 
L 261.266433 226.280701 
L 261.543391 171.022213 
L 262.539026 243.591481 
L 263.057193 184.422569 
L 263.509723 170.339823 
L 263.633912 207.61878 
L 264.425505 244.167735 
L 264.571586 211.481163 
L 265.140234 246.20244 
L 265.694027 189.375556 
L 266.124256 245.307726 
L 266.265744 164.008934 
L 266.389549 233.550124 
L 266.528943 234.25346 
L 266.779725 256.79139 
L 267.22412 218.34349 
L 268.237691 244.049261 
L 268.361432 260.735202 
L 268.994869 238.605865 
L 269.306076 218.446886 
L 269.423833 262.951681 
L 270.750911 149.858558 
L 271.206842 224.532616 
L 271.34443 199.433692 
L 271.445862 233.158783 
L 271.576482 192.770528 
L 271.811888 176.172205 
L 272.423987 231.174924 
L 272.550596 159.513535 
L 272.765147 204.855013 
L 272.890544 188.918549 
L 273.011139 203.418134 
L 273.316579 220.386724 
L 273.559925 203.089936 
L 273.655103 169.794503 
L 273.782941 247.368505 
L 274.817862 209.633082 
L 275.149616 222.941149 
L 276.901549 250.39319 
L 277.028503 215.085695 
L 277.727576 226.186427 
L 278.002067 251.873548 
L 278.206173 205.330544 
L 278.437547 245.346104 
L 278.954745 178.442209 
L 279.661525 229.943841 
L 279.75066 156.489563 
L 280.632957 205.018275 
L 280.753733 187.870975 
L 281.08908 188.009176 
L 281.473453 190.030295 
L 281.941046 206.619988 
L 282.188415 256.536708 
L 282.635801 218.498989 
L 283.33272 225.96813 
L 283.790167 252.76718 
L 283.928608 213.006348 
L 284.282712 190.732496 
L 284.492692 237.496182 
L 284.860672 153.55699 
L 285.316779 233.475045 
L 285.565218 203.410885 
L 285.784928 85.421878 
L 285.920711 166.444689 
L 286.059734 176.875099 
L 286.870467 189.369292 
L 287.106043 247.083932 
L 287.220286 218.447087 
L 287.911343 209.128977 
L 288.153291 249.7787 
L 288.401322 188.314101 
L 288.657812 216.056607 
L 290.051119 180.476069 
L 291.096384 238.563314 
L 291.552365 234.753102 
L 292.133203 110.762953 
L 292.218174 160.684992 
L 292.805517 192.710997 
L 293.01983 181.594829 
L 293.467026 213.241021 
L 293.581615 154.83545 
L 294.275784 188.968762 
L 294.491024 218.851661 
L 294.832424 98.020882 
L 294.954588 222.629775 
L 295.183138 253.646312 
L 295.290355 213.099313 
L 295.897834 138.143301 
L 296.259771 155.123406 
L 296.496949 92.959773 
L 296.844263 216.78105 
L 297.17906 106.607469 
L 297.537546 203.38796 
L 297.763765 228.47048 
L 298.469042 233.780955 
L 298.561106 241.753613 
L 299.020467 183.46239 
L 300.01989 207.924779 
L 300.146894 221.679703 
L 300.262464 159.750764 
L 300.354574 222.058958 
L 302.090111 225.579809 
L 302.544435 231.738459 
L 303.031379 223.927888 
L 303.156532 173.711618 
L 303.623141 218.206626 
L 303.966965 222.138852 
L 304.20789 177.420083 
L 304.448019 186.774039 
L 305.054141 267.588634 
L 305.408461 196.519028 
L 305.645768 198.89816 
L 305.773446 166.445751 
L 305.998412 197.789098 
L 306.357564 166.271823 
L 306.70484 242.079501 
L 306.953363 240.873005 
L 307.316184 192.285053 
L 307.649602 184.487167 
L 307.766588 132.411076 
L 308.421522 229.053764 
L 309.373676 172.094239 
L 309.495992 237.585182 
L 309.715979 178.380967 
L 310.314652 232.826844 
L 310.891721 210.645739 
L 310.992799 173.19065 
L 311.131095 223.895187 
L 311.514504 152.786702 
L 311.750219 219.59615 
L 311.982387 157.427751 
L 312.326973 149.767763 
L 312.445235 208.867178 
L 312.880814 238.252086 
L 313.453764 244.201527 
L 313.677114 250.724346 
L 314.53665 180.491763 
L 314.784027 224.433582 
L 314.886308 188.461284 
L 315.259311 234.706715 
L 315.479365 230.610342 
L 315.822718 237.476517 
L 315.943766 161.260692 
L 316.320122 244.90474 
L 316.567035 196.614208 
L 316.810228 240.575921 
L 316.93328 221.12629 
L 317.065484 236.707308 
L 317.508526 263.898342 
L 318.017063 248.785842 
L 318.13473 194.453914 
L 318.226438 201.392976 
L 318.714041 200.331924 
L 318.798794 174.64721 
L 319.04133 231.984603 
L 319.157841 177.637043 
L 319.358331 227.575525 
L 319.459938 194.563927 
L 319.584003 200.209529 
L 319.811717 238.424733 
L 320.174522 190.532672 
L 320.512811 149.527671 
L 320.870477 234.121814 
L 321.558708 187.155553 
L 321.658429 213.239477 
L 321.79723 212.152406 
L 322.246029 213.809752 
L 322.455308 140.184767 
L 322.717292 207.657869 
L 323.16411 184.526686 
L 323.988492 224.690738 
L 324.349783 196.895218 
L 324.577272 206.380114 
L 324.792875 225.751858 
L 324.89459 176.286815 
L 325.38333 223.463459 
L 325.615406 200.929671 
L 325.708595 228.867772 
L 325.827459 219.773702 
L 326.143913 183.654786 
L 326.235978 195.517305 
L 326.588666 191.681243 
L 326.713321 180.887729 
L 327.095849 190.654822 
L 327.510755 213.541231 
L 327.952503 214.064386 
L 328.70338 174.306524 
L 329.202586 229.782385 
L 329.604126 184.917351 
L 329.975247 236.578246 
L 330.221476 239.871304 
L 330.358632 218.62785 
L 330.632621 209.791949 
L 330.782868 256.434655 
L 330.90625 195.863248 
L 331.019894 247.222636 
L 331.272487 217.938233 
L 331.506501 228.000161 
L 331.6172 143.700501 
L 332.164543 206.956877 
L 332.299853 170.016631 
L 332.568984 215.032512 
L 332.960492 170.310729 
L 333.197997 174.04368 
L 333.560544 182.945605 
L 334.307408 172.333593 
L 335.116878 183.805962 
L 335.582744 251.088696 
L 335.987758 191.904478 
L 336.621819 212.502735 
L 337.258409 193.33728 
L 337.985176 240.130178 
L 338.357467 186.508051 
L 338.746002 234.065768 
L 339.104202 199.724601 
L 339.241817 230.367974 
L 339.363473 131.281555 
L 340.511698 207.248608 
L 340.638223 234.911012 
L 340.859702 189.450322 
L 341.11193 225.563573 
L 341.334844 162.545707 
L 341.691793 167.080747 
L 342.273038 178.598095 
L 342.500741 190.343699 
L 342.724265 143.24931 
L 342.860165 229.341357 
L 343.830957 198.10031 
L 344.874236 192.500928 
L 345.484565 210.275612 
L 346.429255 228.146047 
L 346.538609 210.416905 
L 346.887973 132.767411 
L 347.368132 169.651672 
L 347.68892 250.384202 
L 348.194148 227.97383 
L 348.567403 133.075737 
L 348.900689 245.602019 
L 349.005802 198.750563 
L 349.126623 214.31105 
L 349.384474 188.375824 
L 350.350559 239.426596 
L 350.591162 194.634878 
L 350.793171 228.678855 
L 351.006626 157.403455 
L 351.627627 220.376925 
L 352.24613 151.221494 
L 352.689833 227.951755 
L 353.138893 222.446154 
L 353.243907 245.249515 
L 353.396284 229.488523 
L 353.881522 195.812342 
L 354.213636 210.099832 
L 354.574448 180.371907 
L 355.837801 252.078626 
L 356.306835 224.812826 
L 356.428405 189.868112 
L 356.527883 217.243427 
L 356.864273 187.429281 
L 357.12543 204.727645 
L 357.467032 258.970551 
L 357.900721 190.757216 
L 358.137445 230.936157 
L 358.381424 201.136631 
L 359.157682 248.90133 
L 359.625435 194.564083 
L 359.827527 221.311751 
L 360.05198 184.82792 
L 360.281265 237.107716 
L 360.406337 185.582012 
L 360.627298 217.655915 
L 360.994279 202.475746 
L 361.221077 144.712202 
L 361.573705 189.561878 
L 361.816608 187.216024 
L 362.172411 231.659225 
L 362.304476 215.828808 
L 362.427825 165.213981 
L 363.575112 229.221931 
L 363.702013 210.752989 
L 363.950347 215.509962 
L 364.074844 53.568 
L 364.173245 171.610263 
L 364.298818 180.121043 
L 364.640673 192.046661 
L 364.749917 149.938682 
L 364.967727 219.799424 
L 365.296039 242.461608 
L 365.707747 183.271101 
L 365.945473 243.662903 
L 366.948872 194.873013 
L 367.063985 171.311076 
L 367.42303 223.835667 
L 367.870852 233.637469 
L 368.109155 169.643741 
L 368.362526 245.986984 
L 368.455831 179.149857 
L 368.785206 211.774896 
L 369.48619 233.911818 
L 369.60231 201.188254 
L 370.047006 177.086545 
L 370.4159 223.254352 
L 370.802095 213.771888 
L 371.022277 240.309637 
L 371.15275 214.73002 
L 371.680669 192.410524 
L 372.161698 197.366118 
L 372.524652 219.246543 
L 372.67495 240.809654 
L 372.797618 176.166366 
L 372.913683 188.588523 
L 373.278117 200.781482 
L 373.767296 183.327243 
L 374.012931 206.251544 
L 374.512148 239.473677 
L 374.876656 199.387908 
L 374.996031 226.759694 
L 375.649129 155.216842 
L 376.161059 211.972449 
L 376.674726 240.467586 
L 376.930569 197.884961 
L 377.057796 201.215759 
L 377.41839 251.681532 
L 377.572112 161.188107 
L 377.804589 231.524642 
L 378.22544 233.90491 
L 378.368007 225.549026 
L 378.623902 181.783937 
L 379.382662 206.581241 
L 379.792788 170.404466 
L 380.28126 222.182147 
L 380.802582 198.124113 
L 381.534577 236.871236 
L 382.431635 202.224501 
L 383.172578 205.768301 
L 383.657626 202.188349 
L 383.910404 219.821527 
L 384.571367 209.188166 
L 384.905377 224.207366 
L 385.159454 181.126569 
L 385.623438 223.499198 
L 386.231416 144.436539 
L 386.74128 149.886489 
L 387.231999 225.17406 
L 387.61213 180.461729 
L 388.662151 188.953359 
L 389.384606 157.389216 
L 389.843646 248.808295 
L 390.647891 190.874589 
L 390.743544 212.568328 
L 391.110541 200.262572 
L 391.255164 211.723005 
L 391.897336 237.409386 
L 392.126886 202.616916 
L 392.63687 212.35676 
L 392.73353 194.595135 
L 392.866954 229.045173 
L 393.142965 131.709166 
L 393.268788 194.562014 
L 393.379065 152.532381 
L 393.632333 246.804516 
L 394.371715 230.106013 
L 394.723942 218.453843 
L 395.466991 148.604495 
L 395.984267 230.804058 
L 397.119364 176.179029 
L 397.23256 202.883452 
L 397.352583 183.409548 
L 397.461271 241.646884 
L 398.286642 192.93968 
L 398.89777 202.443067 
L 399.199651 223.734855 
L 399.447788 194.488993 
L 399.573407 196.241977 
L 399.803046 259.677555 
L 400.257356 203.035109 
L 401.22272 236.827461 
L 401.34311 190.748111 
L 401.672183 109.635993 
L 401.901541 250.702975 
L 402.022357 254.832142 
L 402.238762 251.930291 
L 402.830734 235.371035 
L 403.492724 232.004553 
L 403.725462 247.734476 
L 403.962223 232.125488 
L 404.317719 243.692931 
L 404.521517 180.673834 
L 405.158047 206.873688 
L 405.484237 107.561327 
L 405.871354 245.736892 
L 406.907195 234.450906 
L 407.025806 164.863753 
L 407.366165 164.857154 
L 407.779831 187.123987 
L 408.011524 184.882552 
L 408.110893 171.872715 
L 409.169171 213.559699 
L 409.286782 197.033799 
L 409.535977 218.024331 
L 409.917969 163.302572 
L 410.166711 206.867245 
L 410.42165 191.067254 
L 410.805415 238.06568 
L 410.938745 212.13268 
L 411.059693 210.721819 
L 411.880748 150.71802 
L 412.473692 128.327852 
L 412.758649 153.879645 
L 412.887228 140.843533 
L 413.034331 224.192142 
L 413.505889 197.078833 
L 413.641583 210.540179 
L 414.223193 233.483144 
L 414.345541 186.241784 
L 414.72 232.877533 
L 414.72 232.877533 
" style="fill:none;stroke:#000000;stroke-linecap:square;stroke-width:0.8;"/>
   </g>
   <g id="patch_3">
    <path d="M 57.6 307.584 
L 57.6 41.472 
" style="fill:none;stroke:#000000;stroke-linecap:square;stroke-linejoin:miter;stroke-width:0.8;"/>
   </g>
   <g id="patch_4">
    <path d="M 414.72 307.584 
L 414.72 41.472 
" style="fill:none;stroke:#000000;stroke-linecap:square;stroke-linejoin:miter;stroke-width:0.8;"/>
   </g>
   <g id="patch_5">
    <path d="M 57.6 307.584 
L 414.72 307.584 
" style="fill:none;stroke:#000000;stroke-linecap:square;stroke-linejoin:miter;stroke-width:0.8;"/>
   </g>
   <g id="patch_6">
    <path d="M 57.6 41.472 
L 414.72 41.472 
" style="fill:none;stroke:#000000;stroke-linecap:square;stroke-linejoin:miter;stroke-width:0.8;"/>
   </g>
  </g>
  <g id="axes_2">
   <g id="matplotlib.axis_3">
    <g id="xtick_10">
     <g id="line2d_38">
      <defs>
       <path d="M 0 0 
L 0 -3.5 
" id="md10c60d475" style="stroke:#000000;stroke-width:0.8;"/>
      </defs>
      <g>
       <use style="stroke:#000000;stroke-width:0.8;" x="57.6" xlink:href="#md10c60d475" y="41.472"/>
      </g>
     </g>
    </g>
    <g id="xtick_11">
     <g id="line2d_39">
      <g>
       <use style="stroke:#000000;stroke-width:0.8;" x="118.417439" xlink:href="#md10c60d475" y="41.472"/>
      </g>
     </g>
     <g id="text_21">
      <!-- 500K -->
      <defs>
       <path d="M 9.8125 72.90625 
L 19.671875 72.90625 
L 19.671875 42.09375 
L 52.390625 72.90625 
L 65.09375 72.90625 
L 28.90625 38.921875 
L 67.671875 0 
L 54.6875 0 
L 19.671875 35.109375 
L 19.671875 0 
L 9.8125 0 
z
" id="DejaVuSans-75"/>
      </defs>
      <g transform="translate(105.594782 32.392313)scale(0.1 -0.1)">
       <use xlink:href="#DejaVuSans-53"/>
       <use x="63.623047" xlink:href="#DejaVuSans-48"/>
       <use x="127.246094" xlink:href="#DejaVuSans-48"/>
       <use x="190.869141" xlink:href="#DejaVuSans-75"/>
      </g>
     </g>
    </g>
    <g id="xtick_12">
     <g id="line2d_40">
      <g>
       <use style="stroke:#000000;stroke-width:0.8;" x="179.234877" xlink:href="#md10c60d475" y="41.472"/>
      </g>
     </g>
     <g id="text_22">
      <!-- 1,000K -->
      <defs>
       <path d="M 11.71875 12.40625 
L 22.015625 12.40625 
L 22.015625 4 
L 14.015625 -11.625 
L 7.71875 -11.625 
L 11.71875 4 
z
" id="DejaVuSans-44"/>
      </defs>
      <g transform="translate(161.641909 32.392313)scale(0.1 -0.1)">
       <use xlink:href="#DejaVuSans-49"/>
       <use x="63.623047" xlink:href="#DejaVuSans-44"/>
       <use x="95.410156" xlink:href="#DejaVuSans-48"/>
       <use x="159.033203" xlink:href="#DejaVuSans-48"/>
       <use x="222.65625" xlink:href="#DejaVuSans-48"/>
       <use x="286.279297" xlink:href="#DejaVuSans-75"/>
      </g>
     </g>
    </g>
    <g id="xtick_13">
     <g id="line2d_41">
      <g>
       <use style="stroke:#000000;stroke-width:0.8;" x="240.052316" xlink:href="#md10c60d475" y="41.472"/>
      </g>
     </g>
     <g id="text_23">
      <!-- 1.50M -->
      <defs>
       <path d="M 9.8125 72.90625 
L 24.515625 72.90625 
L 43.109375 23.296875 
L 61.8125 72.90625 
L 76.515625 72.90625 
L 76.515625 0 
L 66.890625 0 
L 66.890625 64.015625 
L 48.09375 14.015625 
L 38.1875 14.015625 
L 19.390625 64.015625 
L 19.390625 0 
L 9.8125 0 
z
" id="DejaVuSans-77"/>
      </defs>
      <g transform="translate(224.605441 32.392313)scale(0.1 -0.1)">
       <use xlink:href="#DejaVuSans-49"/>
       <use x="63.623047" xlink:href="#DejaVuSans-46"/>
       <use x="95.410156" xlink:href="#DejaVuSans-53"/>
       <use x="159.033203" xlink:href="#DejaVuSans-48"/>
       <use x="222.65625" xlink:href="#DejaVuSans-77"/>
      </g>
     </g>
    </g>
    <g id="xtick_14">
     <g id="line2d_42">
      <g>
       <use style="stroke:#000000;stroke-width:0.8;" x="300.869755" xlink:href="#md10c60d475" y="41.472"/>
      </g>
     </g>
     <g id="text_24">
      <!-- 2.00M -->
      <g transform="translate(285.42288 32.392313)scale(0.1 -0.1)">
       <use xlink:href="#DejaVuSans-50"/>
       <use x="63.623047" xlink:href="#DejaVuSans-46"/>
       <use x="95.410156" xlink:href="#DejaVuSans-48"/>
       <use x="159.033203" xlink:href="#DejaVuSans-48"/>
       <use x="222.65625" xlink:href="#DejaVuSans-77"/>
      </g>
     </g>
    </g>
    <g id="xtick_15">
     <g id="line2d_43">
      <g>
       <use style="stroke:#000000;stroke-width:0.8;" x="361.687193" xlink:href="#md10c60d475" y="41.472"/>
      </g>
     </g>
     <g id="text_25">
      <!-- 2.50M -->
      <g transform="translate(346.240318 32.392313)scale(0.1 -0.1)">
       <use xlink:href="#DejaVuSans-50"/>
       <use x="63.623047" xlink:href="#DejaVuSans-46"/>
       <use x="95.410156" xlink:href="#DejaVuSans-53"/>
       <use x="159.033203" xlink:href="#DejaVuSans-48"/>
       <use x="222.65625" xlink:href="#DejaVuSans-77"/>
      </g>
     </g>
    </g>
    <g id="text_26">
     <!-- Steps -->
     <defs>
      <path d="M 53.515625 70.515625 
L 53.515625 60.890625 
Q 47.90625 63.578125 42.921875 64.890625 
Q 37.9375 66.21875 33.296875 66.21875 
Q 25.25 66.21875 20.875 63.09375 
Q 16.5 59.96875 16.5 54.203125 
Q 16.5 49.359375 19.40625 46.890625 
Q 22.3125 44.4375 30.421875 42.921875 
L 36.375 41.703125 
Q 47.40625 39.59375 52.65625 34.296875 
Q 57.90625 29 57.90625 20.125 
Q 57.90625 9.515625 50.796875 4.046875 
Q 43.703125 -1.421875 29.984375 -1.421875 
Q 24.8125 -1.421875 18.96875 -0.25 
Q 13.140625 0.921875 6.890625 3.21875 
L 6.890625 13.375 
Q 12.890625 10.015625 18.65625 8.296875 
Q 24.421875 6.59375 29.984375 6.59375 
Q 38.421875 6.59375 43.015625 9.90625 
Q 47.609375 13.234375 47.609375 19.390625 
Q 47.609375 24.75 44.3125 27.78125 
Q 41.015625 30.8125 33.5 32.328125 
L 27.484375 33.5 
Q 16.453125 35.6875 11.515625 40.375 
Q 6.59375 45.0625 6.59375 53.421875 
Q 6.59375 63.09375 13.40625 68.65625 
Q 20.21875 74.21875 32.171875 74.21875 
Q 37.3125 74.21875 42.625 73.28125 
Q 47.953125 72.359375 53.515625 70.515625 
z
" id="DejaVuSans-83"/>
      <path d="M 56.203125 29.59375 
L 56.203125 25.203125 
L 14.890625 25.203125 
Q 15.484375 15.921875 20.484375 11.0625 
Q 25.484375 6.203125 34.421875 6.203125 
Q 39.59375 6.203125 44.453125 7.46875 
Q 49.3125 8.734375 54.109375 11.28125 
L 54.109375 2.78125 
Q 49.265625 0.734375 44.1875 -0.34375 
Q 39.109375 -1.421875 33.890625 -1.421875 
Q 20.796875 -1.421875 13.15625 6.1875 
Q 5.515625 13.8125 5.515625 26.8125 
Q 5.515625 40.234375 12.765625 48.109375 
Q 20.015625 56 32.328125 56 
Q 43.359375 56 49.78125 48.890625 
Q 56.203125 41.796875 56.203125 29.59375 
z
M 47.21875 32.234375 
Q 47.125 39.59375 43.09375 43.984375 
Q 39.0625 48.390625 32.421875 48.390625 
Q 24.90625 48.390625 20.390625 44.140625 
Q 15.875 39.890625 15.1875 32.171875 
z
" id="DejaVuSans-101"/>
      <path d="M 18.109375 8.203125 
L 18.109375 -20.796875 
L 9.078125 -20.796875 
L 9.078125 54.6875 
L 18.109375 54.6875 
L 18.109375 46.390625 
Q 20.953125 51.265625 25.265625 53.625 
Q 29.59375 56 35.59375 56 
Q 45.5625 56 51.78125 48.09375 
Q 58.015625 40.1875 58.015625 27.296875 
Q 58.015625 14.40625 51.78125 6.484375 
Q 45.5625 -1.421875 35.59375 -1.421875 
Q 29.59375 -1.421875 25.265625 0.953125 
Q 20.953125 3.328125 18.109375 8.203125 
z
M 48.6875 27.296875 
Q 48.6875 37.203125 44.609375 42.84375 
Q 40.53125 48.484375 33.40625 48.484375 
Q 26.265625 48.484375 22.1875 42.84375 
Q 18.109375 37.203125 18.109375 27.296875 
Q 18.109375 17.390625 22.1875 11.75 
Q 26.265625 6.109375 33.40625 6.109375 
Q 40.53125 6.109375 44.609375 11.75 
Q 48.6875 17.390625 48.6875 27.296875 
z
" id="DejaVuSans-112"/>
     </defs>
     <g transform="translate(222.170156 20.793875)scale(0.1 -0.1)">
      <use xlink:href="#DejaVuSans-83"/>
      <use x="63.476562" xlink:href="#DejaVuSans-116"/>
      <use x="102.685547" xlink:href="#DejaVuSans-101"/>
      <use x="164.208984" xlink:href="#DejaVuSans-112"/>
      <use x="227.685547" xlink:href="#DejaVuSans-115"/>
     </g>
    </g>
   </g>
   <g id="patch_7">
    <path d="M 57.6 307.584 
L 57.6 41.472 
" style="fill:none;stroke:#000000;stroke-linecap:square;stroke-linejoin:miter;stroke-width:0.8;"/>
   </g>
   <g id="patch_8">
    <path d="M 414.72 307.584 
L 414.72 41.472 
" style="fill:none;stroke:#000000;stroke-linecap:square;stroke-linejoin:miter;stroke-width:0.8;"/>
   </g>
   <g id="patch_9">
    <path d="M 57.6 307.584 
L 414.72 307.584 
" style="fill:none;stroke:#000000;stroke-linecap:square;stroke-linejoin:miter;stroke-width:0.8;"/>
   </g>
   <g id="patch_10">
    <path d="M 57.6 41.472 
L 414.72 41.472 
" style="fill:none;stroke:#000000;stroke-linecap:square;stroke-linejoin:miter;stroke-width:0.8;"/>
   </g>
  </g>
 </g>
 <defs>
  <clipPath id="pea238cdd44">
   <rect height="266.112" width="357.12" x="57.6" y="41.472"/>
  </clipPath>
 </defs>
</svg>
