<?xml version="1.0" encoding="utf-8" standalone="no"?>
<!DOCTYPE svg PUBLIC "-//W3C//DTD SVG 1.1//EN"
  "http://www.w3.org/Graphics/SVG/1.1/DTD/svg11.dtd">
<!-- Created with matplotlib (https://matplotlib.org/) -->
<svg height="345.6pt" version="1.1" viewBox="0 0 460.8 345.6" width="460.8pt" xmlns="http://www.w3.org/2000/svg" xmlns:xlink="http://www.w3.org/1999/xlink">
 <defs>
  <style type="text/css">
*{stroke-linecap:butt;stroke-linejoin:round;}
  </style>
 </defs>
 <g id="figure_1">
  <g id="patch_1">
   <path d="M 0 345.6 
L 460.8 345.6 
L 460.8 0 
L 0 0 
z
" style="fill:#ffffff;"/>
  </g>
  <g id="axes_1">
   <g id="patch_2">
    <path d="M 57.6 307.584 
L 414.72 307.584 
L 414.72 41.472 
L 57.6 41.472 
z
" style="fill:#ffffff;"/>
   </g>
   <g id="matplotlib.axis_1">
    <g id="xtick_1">
     <g id="line2d_1">
      <path clip-path="url(#p553347f7c7)" d="M 57.6 307.584 
L 57.6 41.472 
" style="fill:none;stroke:#b0b0b0;stroke-linecap:square;stroke-width:0.8;"/>
     </g>
     <g id="line2d_2">
      <defs>
       <path d="M 0 0 
L 0 3.5 
" id="mc7b48c1107" style="stroke:#000000;stroke-width:0.8;"/>
      </defs>
      <g>
       <use style="stroke:#000000;stroke-width:0.8;" x="57.6" xlink:href="#mc7b48c1107" y="307.584"/>
      </g>
     </g>
     <g id="text_1">
      <!-- 0.0 -->
      <defs>
       <path d="M 31.78125 66.40625 
Q 24.171875 66.40625 20.328125 58.90625 
Q 16.5 51.421875 16.5 36.375 
Q 16.5 21.390625 20.328125 13.890625 
Q 24.171875 6.390625 31.78125 6.390625 
Q 39.453125 6.390625 43.28125 13.890625 
Q 47.125 21.390625 47.125 36.375 
Q 47.125 51.421875 43.28125 58.90625 
Q 39.453125 66.40625 31.78125 66.40625 
z
M 31.78125 74.21875 
Q 44.046875 74.21875 50.515625 64.515625 
Q 56.984375 54.828125 56.984375 36.375 
Q 56.984375 17.96875 50.515625 8.265625 
Q 44.046875 -1.421875 31.78125 -1.421875 
Q 19.53125 -1.421875 13.0625 8.265625 
Q 6.59375 17.96875 6.59375 36.375 
Q 6.59375 54.828125 13.0625 64.515625 
Q 19.53125 74.21875 31.78125 74.21875 
z
" id="DejaVuSans-48"/>
       <path d="M 10.6875 12.40625 
L 21 12.40625 
L 21 0 
L 10.6875 0 
z
" id="DejaVuSans-46"/>
      </defs>
      <g transform="translate(49.648438 322.182437)scale(0.1 -0.1)">
       <use xlink:href="#DejaVuSans-48"/>
       <use x="63.623047" xlink:href="#DejaVuSans-46"/>
       <use x="95.410156" xlink:href="#DejaVuSans-48"/>
      </g>
     </g>
    </g>
    <g id="xtick_2">
     <g id="line2d_3">
      <path clip-path="url(#p553347f7c7)" d="M 112.897011 307.584 
L 112.897011 41.472 
" style="fill:none;stroke:#b0b0b0;stroke-linecap:square;stroke-width:0.8;"/>
     </g>
     <g id="line2d_4">
      <g>
       <use style="stroke:#000000;stroke-width:0.8;" x="112.897011" xlink:href="#mc7b48c1107" y="307.584"/>
      </g>
     </g>
     <g id="text_2">
      <!-- 0.2 -->
      <defs>
       <path d="M 19.1875 8.296875 
L 53.609375 8.296875 
L 53.609375 0 
L 7.328125 0 
L 7.328125 8.296875 
Q 12.9375 14.109375 22.625 23.890625 
Q 32.328125 33.6875 34.8125 36.53125 
Q 39.546875 41.84375 41.421875 45.53125 
Q 43.3125 49.21875 43.3125 52.78125 
Q 43.3125 58.59375 39.234375 62.25 
Q 35.15625 65.921875 28.609375 65.921875 
Q 23.96875 65.921875 18.8125 64.3125 
Q 13.671875 62.703125 7.8125 59.421875 
L 7.8125 69.390625 
Q 13.765625 71.78125 18.9375 73 
Q 24.125 74.21875 28.421875 74.21875 
Q 39.75 74.21875 46.484375 68.546875 
Q 53.21875 62.890625 53.21875 53.421875 
Q 53.21875 48.921875 51.53125 44.890625 
Q 49.859375 40.875 45.40625 35.40625 
Q 44.1875 33.984375 37.640625 27.21875 
Q 31.109375 20.453125 19.1875 8.296875 
z
" id="DejaVuSans-50"/>
      </defs>
      <g transform="translate(104.945448 322.182437)scale(0.1 -0.1)">
       <use xlink:href="#DejaVuSans-48"/>
       <use x="63.623047" xlink:href="#DejaVuSans-46"/>
       <use x="95.410156" xlink:href="#DejaVuSans-50"/>
      </g>
     </g>
    </g>
    <g id="xtick_3">
     <g id="line2d_5">
      <path clip-path="url(#p553347f7c7)" d="M 168.194022 307.584 
L 168.194022 41.472 
" style="fill:none;stroke:#b0b0b0;stroke-linecap:square;stroke-width:0.8;"/>
     </g>
     <g id="line2d_6">
      <g>
       <use style="stroke:#000000;stroke-width:0.8;" x="168.194022" xlink:href="#mc7b48c1107" y="307.584"/>
      </g>
     </g>
     <g id="text_3">
      <!-- 0.4 -->
      <defs>
       <path d="M 37.796875 64.3125 
L 12.890625 25.390625 
L 37.796875 25.390625 
z
M 35.203125 72.90625 
L 47.609375 72.90625 
L 47.609375 25.390625 
L 58.015625 25.390625 
L 58.015625 17.1875 
L 47.609375 17.1875 
L 47.609375 0 
L 37.796875 0 
L 37.796875 17.1875 
L 4.890625 17.1875 
L 4.890625 26.703125 
z
" id="DejaVuSans-52"/>
      </defs>
      <g transform="translate(160.242459 322.182437)scale(0.1 -0.1)">
       <use xlink:href="#DejaVuSans-48"/>
       <use x="63.623047" xlink:href="#DejaVuSans-46"/>
       <use x="95.410156" xlink:href="#DejaVuSans-52"/>
      </g>
     </g>
    </g>
    <g id="xtick_4">
     <g id="line2d_7">
      <path clip-path="url(#p553347f7c7)" d="M 223.491033 307.584 
L 223.491033 41.472 
" style="fill:none;stroke:#b0b0b0;stroke-linecap:square;stroke-width:0.8;"/>
     </g>
     <g id="line2d_8">
      <g>
       <use style="stroke:#000000;stroke-width:0.8;" x="223.491033" xlink:href="#mc7b48c1107" y="307.584"/>
      </g>
     </g>
     <g id="text_4">
      <!-- 0.6 -->
      <defs>
       <path d="M 33.015625 40.375 
Q 26.375 40.375 22.484375 35.828125 
Q 18.609375 31.296875 18.609375 23.390625 
Q 18.609375 15.53125 22.484375 10.953125 
Q 26.375 6.390625 33.015625 6.390625 
Q 39.65625 6.390625 43.53125 10.953125 
Q 47.40625 15.53125 47.40625 23.390625 
Q 47.40625 31.296875 43.53125 35.828125 
Q 39.65625 40.375 33.015625 40.375 
z
M 52.59375 71.296875 
L 52.59375 62.3125 
Q 48.875 64.0625 45.09375 64.984375 
Q 41.3125 65.921875 37.59375 65.921875 
Q 27.828125 65.921875 22.671875 59.328125 
Q 17.53125 52.734375 16.796875 39.40625 
Q 19.671875 43.65625 24.015625 45.921875 
Q 28.375 48.1875 33.59375 48.1875 
Q 44.578125 48.1875 50.953125 41.515625 
Q 57.328125 34.859375 57.328125 23.390625 
Q 57.328125 12.15625 50.6875 5.359375 
Q 44.046875 -1.421875 33.015625 -1.421875 
Q 20.359375 -1.421875 13.671875 8.265625 
Q 6.984375 17.96875 6.984375 36.375 
Q 6.984375 53.65625 15.1875 63.9375 
Q 23.390625 74.21875 37.203125 74.21875 
Q 40.921875 74.21875 44.703125 73.484375 
Q 48.484375 72.75 52.59375 71.296875 
z
" id="DejaVuSans-54"/>
      </defs>
      <g transform="translate(215.53947 322.182437)scale(0.1 -0.1)">
       <use xlink:href="#DejaVuSans-48"/>
       <use x="63.623047" xlink:href="#DejaVuSans-46"/>
       <use x="95.410156" xlink:href="#DejaVuSans-54"/>
      </g>
     </g>
    </g>
    <g id="xtick_5">
     <g id="line2d_9">
      <path clip-path="url(#p553347f7c7)" d="M 278.788044 307.584 
L 278.788044 41.472 
" style="fill:none;stroke:#b0b0b0;stroke-linecap:square;stroke-width:0.8;"/>
     </g>
     <g id="line2d_10">
      <g>
       <use style="stroke:#000000;stroke-width:0.8;" x="278.788044" xlink:href="#mc7b48c1107" y="307.584"/>
      </g>
     </g>
     <g id="text_5">
      <!-- 0.8 -->
      <defs>
       <path d="M 31.78125 34.625 
Q 24.75 34.625 20.71875 30.859375 
Q 16.703125 27.09375 16.703125 20.515625 
Q 16.703125 13.921875 20.71875 10.15625 
Q 24.75 6.390625 31.78125 6.390625 
Q 38.8125 6.390625 42.859375 10.171875 
Q 46.921875 13.96875 46.921875 20.515625 
Q 46.921875 27.09375 42.890625 30.859375 
Q 38.875 34.625 31.78125 34.625 
z
M 21.921875 38.8125 
Q 15.578125 40.375 12.03125 44.71875 
Q 8.5 49.078125 8.5 55.328125 
Q 8.5 64.0625 14.71875 69.140625 
Q 20.953125 74.21875 31.78125 74.21875 
Q 42.671875 74.21875 48.875 69.140625 
Q 55.078125 64.0625 55.078125 55.328125 
Q 55.078125 49.078125 51.53125 44.71875 
Q 48 40.375 41.703125 38.8125 
Q 48.828125 37.15625 52.796875 32.3125 
Q 56.78125 27.484375 56.78125 20.515625 
Q 56.78125 9.90625 50.3125 4.234375 
Q 43.84375 -1.421875 31.78125 -1.421875 
Q 19.734375 -1.421875 13.25 4.234375 
Q 6.78125 9.90625 6.78125 20.515625 
Q 6.78125 27.484375 10.78125 32.3125 
Q 14.796875 37.15625 21.921875 38.8125 
z
M 18.3125 54.390625 
Q 18.3125 48.734375 21.84375 45.5625 
Q 25.390625 42.390625 31.78125 42.390625 
Q 38.140625 42.390625 41.71875 45.5625 
Q 45.3125 48.734375 45.3125 54.390625 
Q 45.3125 60.0625 41.71875 63.234375 
Q 38.140625 66.40625 31.78125 66.40625 
Q 25.390625 66.40625 21.84375 63.234375 
Q 18.3125 60.0625 18.3125 54.390625 
z
" id="DejaVuSans-56"/>
      </defs>
      <g transform="translate(270.836481 322.182437)scale(0.1 -0.1)">
       <use xlink:href="#DejaVuSans-48"/>
       <use x="63.623047" xlink:href="#DejaVuSans-46"/>
       <use x="95.410156" xlink:href="#DejaVuSans-56"/>
      </g>
     </g>
    </g>
    <g id="xtick_6">
     <g id="line2d_11">
      <path clip-path="url(#p553347f7c7)" d="M 334.085055 307.584 
L 334.085055 41.472 
" style="fill:none;stroke:#b0b0b0;stroke-linecap:square;stroke-width:0.8;"/>
     </g>
     <g id="line2d_12">
      <g>
       <use style="stroke:#000000;stroke-width:0.8;" x="334.085055" xlink:href="#mc7b48c1107" y="307.584"/>
      </g>
     </g>
     <g id="text_6">
      <!-- 1.0 -->
      <defs>
       <path d="M 12.40625 8.296875 
L 28.515625 8.296875 
L 28.515625 63.921875 
L 10.984375 60.40625 
L 10.984375 69.390625 
L 28.421875 72.90625 
L 38.28125 72.90625 
L 38.28125 8.296875 
L 54.390625 8.296875 
L 54.390625 0 
L 12.40625 0 
z
" id="DejaVuSans-49"/>
      </defs>
      <g transform="translate(326.133492 322.182437)scale(0.1 -0.1)">
       <use xlink:href="#DejaVuSans-49"/>
       <use x="63.623047" xlink:href="#DejaVuSans-46"/>
       <use x="95.410156" xlink:href="#DejaVuSans-48"/>
      </g>
     </g>
    </g>
    <g id="xtick_7">
     <g id="line2d_13">
      <path clip-path="url(#p553347f7c7)" d="M 389.382065 307.584 
L 389.382065 41.472 
" style="fill:none;stroke:#b0b0b0;stroke-linecap:square;stroke-width:0.8;"/>
     </g>
     <g id="line2d_14">
      <g>
       <use style="stroke:#000000;stroke-width:0.8;" x="389.382065" xlink:href="#mc7b48c1107" y="307.584"/>
      </g>
     </g>
     <g id="text_7">
      <!-- 1.2 -->
      <g transform="translate(381.430503 322.182437)scale(0.1 -0.1)">
       <use xlink:href="#DejaVuSans-49"/>
       <use x="63.623047" xlink:href="#DejaVuSans-46"/>
       <use x="95.410156" xlink:href="#DejaVuSans-50"/>
      </g>
     </g>
    </g>
    <g id="text_8">
     <!-- Hours -->
     <defs>
      <path d="M 9.8125 72.90625 
L 19.671875 72.90625 
L 19.671875 43.015625 
L 55.515625 43.015625 
L 55.515625 72.90625 
L 65.375 72.90625 
L 65.375 0 
L 55.515625 0 
L 55.515625 34.71875 
L 19.671875 34.71875 
L 19.671875 0 
L 9.8125 0 
z
" id="DejaVuSans-72"/>
      <path d="M 30.609375 48.390625 
Q 23.390625 48.390625 19.1875 42.75 
Q 14.984375 37.109375 14.984375 27.296875 
Q 14.984375 17.484375 19.15625 11.84375 
Q 23.34375 6.203125 30.609375 6.203125 
Q 37.796875 6.203125 41.984375 11.859375 
Q 46.1875 17.53125 46.1875 27.296875 
Q 46.1875 37.015625 41.984375 42.703125 
Q 37.796875 48.390625 30.609375 48.390625 
z
M 30.609375 56 
Q 42.328125 56 49.015625 48.375 
Q 55.71875 40.765625 55.71875 27.296875 
Q 55.71875 13.875 49.015625 6.21875 
Q 42.328125 -1.421875 30.609375 -1.421875 
Q 18.84375 -1.421875 12.171875 6.21875 
Q 5.515625 13.875 5.515625 27.296875 
Q 5.515625 40.765625 12.171875 48.375 
Q 18.84375 56 30.609375 56 
z
" id="DejaVuSans-111"/>
      <path d="M 8.5 21.578125 
L 8.5 54.6875 
L 17.484375 54.6875 
L 17.484375 21.921875 
Q 17.484375 14.15625 20.5 10.265625 
Q 23.53125 6.390625 29.59375 6.390625 
Q 36.859375 6.390625 41.078125 11.03125 
Q 45.3125 15.671875 45.3125 23.6875 
L 45.3125 54.6875 
L 54.296875 54.6875 
L 54.296875 0 
L 45.3125 0 
L 45.3125 8.40625 
Q 42.046875 3.421875 37.71875 1 
Q 33.40625 -1.421875 27.6875 -1.421875 
Q 18.265625 -1.421875 13.375 4.4375 
Q 8.5 10.296875 8.5 21.578125 
z
M 31.109375 56 
z
" id="DejaVuSans-117"/>
      <path d="M 41.109375 46.296875 
Q 39.59375 47.171875 37.8125 47.578125 
Q 36.03125 48 33.890625 48 
Q 26.265625 48 22.1875 43.046875 
Q 18.109375 38.09375 18.109375 28.8125 
L 18.109375 0 
L 9.078125 0 
L 9.078125 54.6875 
L 18.109375 54.6875 
L 18.109375 46.1875 
Q 20.953125 51.171875 25.484375 53.578125 
Q 30.03125 56 36.53125 56 
Q 37.453125 56 38.578125 55.875 
Q 39.703125 55.765625 41.0625 55.515625 
z
" id="DejaVuSans-114"/>
      <path d="M 44.28125 53.078125 
L 44.28125 44.578125 
Q 40.484375 46.53125 36.375 47.5 
Q 32.28125 48.484375 27.875 48.484375 
Q 21.1875 48.484375 17.84375 46.4375 
Q 14.5 44.390625 14.5 40.28125 
Q 14.5 37.15625 16.890625 35.375 
Q 19.28125 33.59375 26.515625 31.984375 
L 29.59375 31.296875 
Q 39.15625 29.25 43.1875 25.515625 
Q 47.21875 21.78125 47.21875 15.09375 
Q 47.21875 7.46875 41.1875 3.015625 
Q 35.15625 -1.421875 24.609375 -1.421875 
Q 20.21875 -1.421875 15.453125 -0.5625 
Q 10.6875 0.296875 5.421875 2 
L 5.421875 11.28125 
Q 10.40625 8.6875 15.234375 7.390625 
Q 20.0625 6.109375 24.8125 6.109375 
Q 31.15625 6.109375 34.5625 8.28125 
Q 37.984375 10.453125 37.984375 14.40625 
Q 37.984375 18.0625 35.515625 20.015625 
Q 33.0625 21.96875 24.703125 23.78125 
L 21.578125 24.515625 
Q 13.234375 26.265625 9.515625 29.90625 
Q 5.8125 33.546875 5.8125 39.890625 
Q 5.8125 47.609375 11.28125 51.796875 
Q 16.75 56 26.8125 56 
Q 31.78125 56 36.171875 55.265625 
Q 40.578125 54.546875 44.28125 53.078125 
z
" id="DejaVuSans-115"/>
     </defs>
     <g transform="translate(221.511562 335.860562)scale(0.1 -0.1)">
      <use xlink:href="#DejaVuSans-72"/>
      <use x="75.195312" xlink:href="#DejaVuSans-111"/>
      <use x="136.376953" xlink:href="#DejaVuSans-117"/>
      <use x="199.755859" xlink:href="#DejaVuSans-114"/>
      <use x="240.869141" xlink:href="#DejaVuSans-115"/>
     </g>
    </g>
   </g>
   <g id="matplotlib.axis_2">
    <g id="ytick_1">
     <g id="line2d_15">
      <path clip-path="url(#p553347f7c7)" d="M 57.6 266.993327 
L 414.72 266.993327 
" style="fill:none;stroke:#b0b0b0;stroke-linecap:square;stroke-width:0.8;"/>
     </g>
     <g id="line2d_16">
      <defs>
       <path d="M 0 0 
L -3.5 0 
" id="m320c444e23" style="stroke:#000000;stroke-width:0.8;"/>
      </defs>
      <g>
       <use style="stroke:#000000;stroke-width:0.8;" x="57.6" xlink:href="#m320c444e23" y="266.993327"/>
      </g>
     </g>
     <g id="text_9">
      <!-- −1.0 -->
      <defs>
       <path d="M 10.59375 35.5 
L 73.1875 35.5 
L 73.1875 27.203125 
L 10.59375 27.203125 
z
" id="DejaVuSans-8722"/>
      </defs>
      <g transform="translate(26.317187 270.792546)scale(0.1 -0.1)">
       <use xlink:href="#DejaVuSans-8722"/>
       <use x="83.789062" xlink:href="#DejaVuSans-49"/>
       <use x="147.412109" xlink:href="#DejaVuSans-46"/>
       <use x="179.199219" xlink:href="#DejaVuSans-48"/>
      </g>
     </g>
    </g>
    <g id="ytick_2">
     <g id="line2d_17">
      <path clip-path="url(#p553347f7c7)" d="M 57.6 208.961322 
L 414.72 208.961322 
" style="fill:none;stroke:#b0b0b0;stroke-linecap:square;stroke-width:0.8;"/>
     </g>
     <g id="line2d_18">
      <g>
       <use style="stroke:#000000;stroke-width:0.8;" x="57.6" xlink:href="#m320c444e23" y="208.961322"/>
      </g>
     </g>
     <g id="text_10">
      <!-- −0.8 -->
      <g transform="translate(26.317187 212.760541)scale(0.1 -0.1)">
       <use xlink:href="#DejaVuSans-8722"/>
       <use x="83.789062" xlink:href="#DejaVuSans-48"/>
       <use x="147.412109" xlink:href="#DejaVuSans-46"/>
       <use x="179.199219" xlink:href="#DejaVuSans-56"/>
      </g>
     </g>
    </g>
    <g id="ytick_3">
     <g id="line2d_19">
      <path clip-path="url(#p553347f7c7)" d="M 57.6 150.929317 
L 414.72 150.929317 
" style="fill:none;stroke:#b0b0b0;stroke-linecap:square;stroke-width:0.8;"/>
     </g>
     <g id="line2d_20">
      <g>
       <use style="stroke:#000000;stroke-width:0.8;" x="57.6" xlink:href="#m320c444e23" y="150.929317"/>
      </g>
     </g>
     <g id="text_11">
      <!-- −0.6 -->
      <g transform="translate(26.317187 154.728535)scale(0.1 -0.1)">
       <use xlink:href="#DejaVuSans-8722"/>
       <use x="83.789062" xlink:href="#DejaVuSans-48"/>
       <use x="147.412109" xlink:href="#DejaVuSans-46"/>
       <use x="179.199219" xlink:href="#DejaVuSans-54"/>
      </g>
     </g>
    </g>
    <g id="ytick_4">
     <g id="line2d_21">
      <path clip-path="url(#p553347f7c7)" d="M 57.6 92.897311 
L 414.72 92.897311 
" style="fill:none;stroke:#b0b0b0;stroke-linecap:square;stroke-width:0.8;"/>
     </g>
     <g id="line2d_22">
      <g>
       <use style="stroke:#000000;stroke-width:0.8;" x="57.6" xlink:href="#m320c444e23" y="92.897311"/>
      </g>
     </g>
     <g id="text_12">
      <!-- −0.4 -->
      <g transform="translate(26.317187 96.69653)scale(0.1 -0.1)">
       <use xlink:href="#DejaVuSans-8722"/>
       <use x="83.789062" xlink:href="#DejaVuSans-48"/>
       <use x="147.412109" xlink:href="#DejaVuSans-46"/>
       <use x="179.199219" xlink:href="#DejaVuSans-52"/>
      </g>
     </g>
    </g>
    <g id="text_13">
     <!-- Entropy Loss -->
     <defs>
      <path d="M 9.8125 72.90625 
L 55.90625 72.90625 
L 55.90625 64.59375 
L 19.671875 64.59375 
L 19.671875 43.015625 
L 54.390625 43.015625 
L 54.390625 34.71875 
L 19.671875 34.71875 
L 19.671875 8.296875 
L 56.78125 8.296875 
L 56.78125 0 
L 9.8125 0 
z
" id="DejaVuSans-69"/>
      <path d="M 54.890625 33.015625 
L 54.890625 0 
L 45.90625 0 
L 45.90625 32.71875 
Q 45.90625 40.484375 42.875 44.328125 
Q 39.84375 48.1875 33.796875 48.1875 
Q 26.515625 48.1875 22.3125 43.546875 
Q 18.109375 38.921875 18.109375 30.90625 
L 18.109375 0 
L 9.078125 0 
L 9.078125 54.6875 
L 18.109375 54.6875 
L 18.109375 46.1875 
Q 21.34375 51.125 25.703125 53.5625 
Q 30.078125 56 35.796875 56 
Q 45.21875 56 50.046875 50.171875 
Q 54.890625 44.34375 54.890625 33.015625 
z
" id="DejaVuSans-110"/>
      <path d="M 18.3125 70.21875 
L 18.3125 54.6875 
L 36.8125 54.6875 
L 36.8125 47.703125 
L 18.3125 47.703125 
L 18.3125 18.015625 
Q 18.3125 11.328125 20.140625 9.421875 
Q 21.96875 7.515625 27.59375 7.515625 
L 36.8125 7.515625 
L 36.8125 0 
L 27.59375 0 
Q 17.1875 0 13.234375 3.875 
Q 9.28125 7.765625 9.28125 18.015625 
L 9.28125 47.703125 
L 2.6875 47.703125 
L 2.6875 54.6875 
L 9.28125 54.6875 
L 9.28125 70.21875 
z
" id="DejaVuSans-116"/>
      <path d="M 18.109375 8.203125 
L 18.109375 -20.796875 
L 9.078125 -20.796875 
L 9.078125 54.6875 
L 18.109375 54.6875 
L 18.109375 46.390625 
Q 20.953125 51.265625 25.265625 53.625 
Q 29.59375 56 35.59375 56 
Q 45.5625 56 51.78125 48.09375 
Q 58.015625 40.1875 58.015625 27.296875 
Q 58.015625 14.40625 51.78125 6.484375 
Q 45.5625 -1.421875 35.59375 -1.421875 
Q 29.59375 -1.421875 25.265625 0.953125 
Q 20.953125 3.328125 18.109375 8.203125 
z
M 48.6875 27.296875 
Q 48.6875 37.203125 44.609375 42.84375 
Q 40.53125 48.484375 33.40625 48.484375 
Q 26.265625 48.484375 22.1875 42.84375 
Q 18.109375 37.203125 18.109375 27.296875 
Q 18.109375 17.390625 22.1875 11.75 
Q 26.265625 6.109375 33.40625 6.109375 
Q 40.53125 6.109375 44.609375 11.75 
Q 48.6875 17.390625 48.6875 27.296875 
z
" id="DejaVuSans-112"/>
      <path d="M 32.171875 -5.078125 
Q 28.375 -14.84375 24.75 -17.8125 
Q 21.140625 -20.796875 15.09375 -20.796875 
L 7.90625 -20.796875 
L 7.90625 -13.28125 
L 13.1875 -13.28125 
Q 16.890625 -13.28125 18.9375 -11.515625 
Q 21 -9.765625 23.484375 -3.21875 
L 25.09375 0.875 
L 2.984375 54.6875 
L 12.5 54.6875 
L 29.59375 11.921875 
L 46.6875 54.6875 
L 56.203125 54.6875 
z
" id="DejaVuSans-121"/>
      <path id="DejaVuSans-32"/>
      <path d="M 9.8125 72.90625 
L 19.671875 72.90625 
L 19.671875 8.296875 
L 55.171875 8.296875 
L 55.171875 0 
L 9.8125 0 
z
" id="DejaVuSans-76"/>
     </defs>
     <g transform="translate(20.2375 206.706125)rotate(-90)scale(0.1 -0.1)">
      <use xlink:href="#DejaVuSans-69"/>
      <use x="63.183594" xlink:href="#DejaVuSans-110"/>
      <use x="126.5625" xlink:href="#DejaVuSans-116"/>
      <use x="165.771484" xlink:href="#DejaVuSans-114"/>
      <use x="206.853516" xlink:href="#DejaVuSans-111"/>
      <use x="268.035156" xlink:href="#DejaVuSans-112"/>
      <use x="331.511719" xlink:href="#DejaVuSans-121"/>
      <use x="390.691406" xlink:href="#DejaVuSans-32"/>
      <use x="422.478516" xlink:href="#DejaVuSans-76"/>
      <use x="478.175781" xlink:href="#DejaVuSans-111"/>
      <use x="539.357422" xlink:href="#DejaVuSans-115"/>
      <use x="591.457031" xlink:href="#DejaVuSans-115"/>
     </g>
    </g>
   </g>
   <g id="line2d_23">
    <path clip-path="url(#p553347f7c7)" d="M 57.6 292.627426 
L 57.757632 292.722133 
L 58.349825 287.405996 
L 58.498535 290.239729 
L 58.908704 293.741874 
L 59.069941 289.775569 
L 59.502569 291.964859 
L 59.66437 290.616169 
L 59.793156 286.17799 
L 60.390389 294.61869 
L 61.690977 292.840983 
L 62.122775 293.040462 
L 62.698217 293.827553 
L 63.003595 291.944451 
L 63.285756 295.020381 
L 63.441005 291.956004 
L 63.723963 294.523914 
L 64.003563 293.298917 
L 64.734782 295.082746 
L 64.867634 291.286623 
L 65.021431 295.082919 
L 65.147166 293.77674 
L 66.02855 294.512603 
L 66.339035 294.558988 
L 66.467844 295.216678 
L 66.625536 293.367509 
L 66.788044 294.22115 
L 67.232469 291.354522 
L 67.368324 293.286327 
L 67.516546 289.674843 
L 67.66525 291.591808 
L 68.394164 286.675322 
L 69.112737 291.721416 
L 69.565308 293.804827 
L 69.725718 293.617108 
L 70.57731 295.142552 
L 71.742724 289.526903 
L 72.324889 295.328299 
L 73.321758 292.61743 
L 73.74636 292.274299 
L 74.018915 293.97743 
L 75.036673 288.587168 
L 75.188022 285.701136 
L 75.626259 295.338711 
L 75.753386 294.8851 
L 76.803618 295.020934 
L 77.088973 291.529097 
L 77.39138 295.247324 
L 77.672889 294.549095 
L 78.663493 286.265814 
L 79.404657 291.453034 
L 79.691601 290.718762 
L 79.84796 295.149159 
L 79.979937 293.68231 
L 80.415656 295.283471 
L 80.855694 292.36994 
L 81.16733 293.081417 
L 81.293417 294.243218 
L 81.728431 293.471313 
L 82.596222 293.364742 
L 82.758019 293.617005 
L 83.046801 295.488 
L 83.486229 293.838933 
L 83.765143 292.223521 
L 83.916873 294.331214 
L 84.197501 293.010162 
L 84.498385 292.503491 
L 84.62372 293.916483 
L 85.669079 291.731758 
L 86.834112 294.359197 
L 86.99517 292.441437 
L 87.127633 295.050958 
L 87.712092 288.971979 
L 89.173435 295.091567 
L 89.295452 292.287651 
L 89.590822 288.598479 
L 89.872016 291.318757 
L 90.154081 287.807722 
L 90.747077 295.330063 
L 90.87845 294.340208 
L 91.305087 295.27133 
L 93.076555 291.759534 
L 93.983382 291.565693 
L 94.427216 294.40496 
L 94.582263 292.368867 
L 94.733075 292.029576 
L 94.861881 290.354774 
L 95.167725 294.899974 
L 95.74931 292.209685 
L 96.035628 292.632753 
L 96.352148 293.505972 
L 96.638316 291.997304 
L 97.373799 295.331066 
L 99.243274 293.887151 
L 99.390505 295.104642 
L 100.107226 293.587673 
L 100.240101 289.456893 
L 100.689572 290.92848 
L 100.852696 294.227445 
L 101.009564 294.76874 
L 101.582565 295.146115 
L 101.742715 292.997467 
L 102.026214 294.908725 
L 102.468328 294.942173 
L 103.065868 288.909406 
L 103.358736 294.619312 
L 103.507047 294.318658 
L 103.790503 294.044292 
L 104.210711 291.416611 
L 104.363288 295.218926 
L 104.494774 293.779162 
L 104.948866 295.222662 
L 105.373295 289.595217 
L 106.268478 290.547889 
L 106.574872 292.802104 
L 107.024113 294.811251 
L 107.149566 294.508279 
L 107.476156 287.556081 
L 107.603069 292.720057 
L 108.329441 293.575739 
L 108.482394 292.031098 
L 109.065917 293.890402 
L 109.345552 292.810579 
L 109.784561 294.913706 
L 110.382382 287.372756 
L 110.950315 289.190137 
L 111.262568 288.09371 
L 111.835533 289.847654 
L 111.99368 292.704665 
L 112.141003 291.558498 
L 112.424442 287.894404 
L 112.573394 289.395738 
L 113.150034 293.618492 
L 113.306479 292.25697 
L 113.876361 294.861095 
L 114.027031 293.860205 
L 114.18663 288.700415 
L 115.618866 289.826588 
L 116.355246 290.066814 
L 117.363385 291.246706 
L 117.513989 293.695835 
L 118.242619 284.572471 
L 118.398365 292.704769 
L 118.677553 288.453271 
L 118.962769 291.607443 
L 119.559894 290.594966 
L 120.880232 289.921261 
L 121.168622 291.238543 
L 121.326112 292.70847 
L 121.761045 294.0133 
L 122.664602 295.296511 
L 123.671788 292.165065 
L 123.828452 285.487578 
L 124.103816 294.019422 
L 124.414679 288.947732 
L 124.547684 283.980295 
L 124.974305 288.412178 
L 125.123592 288.309412 
L 125.842587 287.025889 
L 125.996942 289.912613 
L 127.569907 293.2085 
L 128.005321 293.017875 
L 128.15732 294.811286 
L 128.431987 291.976066 
L 128.723038 293.60099 
L 129.15309 276.553421 
L 130.772913 286.371762 
L 131.36656 287.290951 
L 131.521401 288.956552 
L 132.083265 287.853173 
L 132.232636 290.099156 
L 132.516809 291.189598 
L 133.267904 293.427349 
L 133.394124 292.738667 
L 134.272609 293.578091 
L 134.570556 289.041504 
L 134.882078 288.252477 
L 135.010491 280.059129 
L 135.160186 293.811607 
L 135.597379 285.717185 
L 135.761849 281.536908 
L 135.881912 287.516269 
L 136.764752 292.930917 
L 136.923185 288.688135 
L 137.202713 291.513532 
L 137.803069 290.952416 
L 138.100833 293.393797 
L 138.410955 289.996978 
L 138.977066 287.697484 
L 139.272189 293.06931 
L 139.87658 289.771314 
L 140.61481 290.487564 
L 141.051614 293.629353 
L 141.337098 286.620393 
L 141.498428 273.469985 
L 141.656311 277.438366 
L 141.788836 286.035999 
L 142.380417 291.847254 
L 142.525164 291.535704 
L 143.255087 276.659785 
L 143.40776 285.819294 
L 143.846692 285.968272 
L 143.974511 292.472083 
L 144.405636 282.907009 
L 144.708417 290.523399 
L 145.285892 289.698468 
L 145.569645 289.096537 
L 145.880052 285.987262 
L 146.161891 292.052509 
L 146.586831 287.821454 
L 147.189291 279.998943 
L 147.320191 282.221958 
L 147.621792 276.977665 
L 148.070292 292.550948 
L 148.643039 289.579548 
L 149.429663 287.026547 
L 150.482133 284.081643 
L 150.64256 288.24421 
L 150.937141 291.026681 
L 151.228074 286.35547 
L 151.391978 287.239204 
L 151.549277 291.211355 
L 151.673621 288.187898 
L 152.129304 290.492026 
L 152.72477 288.498583 
L 152.852751 287.196244 
L 153.458254 288.653719 
L 153.908095 279.133195 
L 154.216385 279.676428 
L 154.536908 285.09789 
L 155.005636 265.038711 
L 155.145249 279.001962 
L 155.313865 281.292704 
L 155.472083 288.578693 
L 155.607564 286.31711 
L 155.932391 268.307739 
L 156.234465 286.949308 
L 156.533325 287.240657 
L 156.69218 276.597731 
L 156.840823 287.476317 
L 156.96854 272.108151 
L 157.289417 282.305735 
L 157.587863 284.090532 
L 157.745835 275.287297 
L 158.793817 285.236007 
L 159.248781 280.96635 
L 159.407295 281.024322 
L 159.570992 281.260155 
L 159.869597 285.908986 
L 160.307787 280.900837 
L 160.600923 278.931157 
L 160.894846 269.425265 
L 161.500867 286.679473 
L 162.101616 274.048603 
L 162.54526 282.345997 
L 162.676203 281.51688 
L 162.83189 272.414444 
L 162.979529 285.729638 
L 163.105447 277.082368 
L 163.865722 288.751331 
L 164.723656 285.612448 
L 165.034913 279.096115 
L 165.172071 267.036357 
L 165.333097 276.501744 
L 165.789472 277.411939 
L 166.234785 281.849945 
L 166.3817 271.194601 
L 166.824861 277.137227 
L 166.949043 269.491677 
L 167.104825 268.16893 
L 167.385309 271.640256 
L 167.711817 278.366997 
L 168.622468 269.342699 
L 169.080857 282.819808 
L 169.212488 281.120032 
L 169.663076 283.865664 
L 169.955343 273.777696 
L 170.279655 287.497555 
L 170.57666 273.15885 
L 171.330166 287.652794 
L 172.102123 273.914083 
L 172.684866 277.836667 
L 172.973567 283.306797 
L 173.138416 276.338031 
L 173.304253 277.768456 
L 173.432186 282.604867 
L 173.599143 283.142876 
L 174.048425 274.432273 
L 174.346143 282.692517 
L 174.664573 277.086415 
L 175.111938 278.959243 
L 175.413423 268.612405 
L 175.694011 283.284694 
L 176.306797 276.220218 
L 176.598372 260.531716 
L 176.756411 267.368281 
L 177.041865 272.828725 
L 177.517774 257.816108 
L 178.53023 271.317049 
L 178.982953 281.245558 
L 179.116144 269.91388 
L 179.437466 281.487514 
L 179.729703 274.452681 
L 180.021862 270.986924 
L 180.805031 276.772651 
L 181.386771 259.077251 
L 181.543042 260.325215 
L 181.989593 270.081883 
L 182.877685 256.632429 
L 183.166694 276.952656 
L 183.321389 268.787914 
L 183.452606 271.028501 
L 183.771141 268.274187 
L 184.351564 279.95197 
L 184.649663 265.2903 
L 184.80843 263.848944 
L 185.407578 274.077658 
L 185.534817 265.177728 
L 185.6899 267.666929 
L 185.851054 274.650776 
L 186.311464 249.901865 
L 186.446319 250.982743 
L 186.605768 261.608945 
L 186.89427 265.422606 
L 187.367127 266.249094 
L 187.80867 259.56296 
L 188.11145 250.576054 
L 188.269202 266.748432 
L 188.730414 253.244551 
L 189.19085 251.674729 
L 189.353291 262.976781 
L 190.387629 262.974861 
L 190.545411 274.766202 
L 190.701926 276.994648 
L 191.144505 249.624247 
L 191.282682 238.297827 
L 191.581763 271.806667 
L 191.887168 253.175873 
L 192.329931 254.25056 
L 192.458533 268.624339 
L 192.616061 268.970375 
L 192.778711 260.899544 
L 193.047288 263.841023 
L 193.957241 263.895986 
L 194.111598 247.773815 
L 194.554787 258.620908 
L 196.005891 233.85394 
L 197.059745 238.681099 
L 197.19325 237.341835 
L 197.338916 260.386802 
L 197.621391 230.639202 
L 197.937901 247.758267 
L 198.353231 225.721263 
L 198.781029 236.525222 
L 199.10505 254.51173 
L 199.233657 246.242595 
L 199.837453 230.099705 
L 199.995874 229.32735 
L 200.561121 222.751091 
L 200.72608 204.163534 
L 200.887148 206.606782 
L 201.015714 223.562031 
L 201.462101 211.290393 
L 201.627476 211.90111 
L 201.757726 205.664799 
L 202.354271 200.646913 
L 204.139879 195.729943 
L 204.421696 202.67543 
L 204.733507 221.616252 
L 204.861301 176.344901 
L 205.30934 173.896516 
L 205.454471 150.16693 
L 205.893439 196.968377 
L 206.026034 198.589496 
L 206.181352 180.246593 
L 206.619259 151.832462 
L 207.791266 173.605962 
L 208.097944 170.429929 
L 208.387235 177.714449 
L 208.671857 126.814356 
L 208.822254 162.03245 
L 208.958702 162.524991 
L 209.268195 201.908143 
L 209.560722 152.483477 
L 209.719217 161.541846 
L 209.848953 128.831718 
L 210.289973 162.390315 
L 210.607586 168.937969 
L 211.681262 133.790455 
L 211.839764 136.771384 
L 212.263177 122.150375 
L 212.583778 149.51666 
L 213.469364 157.420578 
L 213.597249 109.711081 
L 214.190472 157.558834 
L 214.752331 164.661238 
L 215.360798 152.523428 
L 215.645309 113.764396 
L 215.974217 114.294839 
L 216.391272 153.575112 
L 216.545305 151.124738 
L 216.697713 152.325159 
L 216.827101 118.671154 
L 217.707091 160.055177 
L 217.864714 146.446385 
L 218.750102 165.588053 
L 219.031708 118.005699 
L 219.322029 119.430841 
L 219.475536 144.341408 
L 219.634257 140.166388 
L 220.977063 152.933645 
L 221.287515 125.129436 
L 221.692923 160.825353 
L 222.283596 144.296268 
L 222.584556 121.59226 
L 222.74281 149.37754 
L 223.353282 120.816637 
L 223.48086 164.258924 
L 223.917088 136.296121 
L 224.079136 153.273386 
L 224.526685 145.457256 
L 224.654569 131.412478 
L 226.155793 166.132496 
L 226.578112 146.851086 
L 227.028595 162.38504 
L 227.158291 160.896625 
L 227.333226 113.967196 
L 227.757377 164.538617 
L 227.887937 141.787818 
L 228.052978 139.15564 
L 230.262558 127.618274 
L 230.69713 142.163515 
L 230.984104 135.412975 
L 231.119552 151.712488 
L 231.437348 148.049379 
L 231.566463 140.740146 
L 232.029217 100.532624 
L 232.475874 96.097437 
L 232.63164 143.100984 
L 232.760906 115.929872 
L 232.911948 53.568 
L 233.191735 110.11604 
L 233.481901 123.267123 
L 233.792933 127.326751 
L 234.074878 124.308586 
L 234.232612 126.262735 
L 234.809116 114.161833 
L 235.085587 120.431609 
L 235.238612 165.839504 
L 235.528866 126.364447 
L 235.69518 144.927428 
L 237.142061 138.291449 
L 237.754715 116.186147 
L 238.32179 156.749364 
L 238.468967 117.69414 
L 238.595003 144.840503 
L 238.904775 125.996083 
L 239.357083 124.834472 
L 239.800324 137.410828 
L 240.08932 138.776156 
L 240.542262 80.554809 
L 240.841387 140.919943 
L 241.437977 151.32273 
L 241.566192 136.316114 
L 241.727817 139.535211 
L 242.01194 124.06862 
L 242.166872 164.076359 
L 242.611768 123.972858 
L 242.750666 99.194268 
L 242.902745 155.159877 
L 243.068138 135.479699 
L 243.360709 152.481557 
L 244.097688 130.423712 
L 244.543876 141.912047 
L 245.147325 108.093896 
L 245.281769 112.005904 
L 245.604344 101.597972 
L 246.194162 74.767534 
L 246.481811 105.785522 
L 247.073065 134.613588 
L 247.226619 170.697983 
L 247.359364 86.841535 
L 247.517009 136.285104 
L 247.801646 152.31537 
L 248.247815 146.722602 
L 248.377108 108.062774 
L 248.819595 157.4799 
L 248.977329 112.016056 
L 249.875995 168.754902 
L 250.158433 128.019965 
L 250.312763 143.492506 
L 250.600042 101.780874 
L 250.758521 121.551375 
L 251.182672 120.921201 
L 251.346326 154.788193 
L 252.068362 129.229656 
L 252.226857 133.573681 
L 252.383601 128.164516 
L 252.834616 77.431725 
L 253.250039 146.701935 
L 253.404437 126.466832 
L 253.563375 148.506206 
L 253.693974 146.572707 
L 253.854373 122.017049 
L 254.709361 115.525439 
L 255.598382 159.86694 
L 255.884515 147.194614 
L 256.502161 156.232472 
L 257.086423 148.001645 
L 257.537753 126.837808 
L 258.148953 156.295338 
L 258.719927 120.921833 
L 259.759303 88.837762 
L 260.082968 132.228866 
L 260.545222 158.930214 
L 260.827078 146.716497 
L 260.982909 147.696287 
L 261.2757 169.318318 
L 261.405179 136.630258 
L 261.561297 160.192672 
L 261.85432 146.014169 
L 262.019212 166.852586 
L 262.463501 137.587305 
L 264.966141 95.869474 
L 265.260758 170.870534 
L 265.389704 132.002476 
L 265.982334 123.284366 
L 266.431148 165.253363 
L 266.563252 127.678218 
L 267.008694 127.816421 
L 267.163584 162.591524 
L 267.322179 115.648017 
L 267.902607 112.91827 
L 268.057478 143.923252 
L 268.213714 120.955186 
L 268.506227 143.759833 
L 268.789284 124.646598 
L 269.075852 113.891739 
L 269.402356 120.586139 
L 270.258279 134.709834 
L 270.559792 131.691565 
L 271.271189 106.893882 
L 271.423222 117.295943 
L 272.753577 124.838 
L 272.880958 129.979441 
L 274.508821 152.001606 
L 275.104823 122.437003 
L 275.234842 147.455162 
L 275.675095 117.233171 
L 275.835753 119.558494 
L 276.281876 132.534899 
L 276.57932 107.575577 
L 276.857858 128.614407 
L 277.916873 119.772432 
L 278.051636 96.659815 
L 278.209424 165.726741 
L 278.803391 154.88411 
L 279.097303 127.168676 
L 279.256824 80.068062 
L 279.550227 131.92918 
L 280.27635 146.820768 
L 280.563711 107.998818 
L 281.310967 156.951316 
L 281.468979 128.694344 
L 281.908768 142.141239 
L 282.931843 114.667267 
L 283.254281 122.270021 
L 284.738297 125.183292 
L 285.018192 158.173995 
L 285.182805 127.158662 
L 285.922293 159.314645 
L 286.075805 145.292402 
L 287.070095 108.763649 
L 287.952071 122.771988 
L 288.10555 147.06428 
L 289.448354 156.885872 
L 290.014313 156.398623 
L 290.29827 149.220589 
L 290.889666 145.612928 
L 291.783599 113.584261 
L 292.060771 126.785681 
L 292.209292 152.254752 
L 292.496396 139.982457 
L 292.938891 135.035514 
L 293.221118 147.371472 
L 293.379658 115.961668 
L 293.965837 180.917876 
L 294.092363 142.305679 
L 294.384986 142.706903 
L 294.554523 142.12493 
L 294.705872 119.271036 
L 294.839038 155.412244 
L 295.270217 150.531956 
L 295.588539 133.984539 
L 296.159638 138.980772 
L 296.440079 175.892726 
L 296.747623 140.001464 
L 297.032827 130.99517 
L 297.328139 138.887033 
L 297.609099 167.42733 
L 298.47961 138.87657 
L 298.634043 137.445383 
L 298.782489 145.639838 
L 299.230458 153.075013 
L 299.638183 107.217219 
L 300.695894 153.194089 
L 301.142726 135.999479 
L 301.274203 121.220135 
L 301.435123 124.438765 
L 301.594816 163.561387 
L 302.003231 131.631224 
L 302.592053 149.49428 
L 302.867915 145.165215 
L 303.01814 122.224708 
L 303.173011 129.925982 
L 303.59123 120.20892 
L 303.75749 151.115987 
L 304.029531 153.679158 
L 304.642136 148.654769 
L 304.77307 128.149694 
L 304.925366 174.446303 
L 305.364845 130.096908 
L 305.962091 154.164124 
L 306.087395 145.932157 
L 306.371972 149.607233 
L 306.533966 149.306562 
L 306.688405 120.635853 
L 306.813031 131.657356 
L 307.196297 123.652747 
L 307.609346 173.426164 
L 307.875784 134.726472 
L 307.995638 151.290666 
L 308.554643 152.593714 
L 308.699882 138.625759 
L 309.37927 167.42605 
L 309.644232 132.500084 
L 309.791557 142.196219 
L 309.912323 170.451825 
L 310.466349 177.980012 
L 310.880112 145.901527 
L 311.148621 143.256188 
L 311.702087 155.200192 
L 311.822329 151.192171 
L 312.116279 115.519689 
L 312.379022 143.352607 
L 312.645005 135.970908 
L 313.065032 156.179169 
L 313.210512 138.33569 
L 313.478156 165.03242 
L 313.744083 140.113085 
L 314.156529 127.59944 
L 314.421957 139.910302 
L 314.566664 121.623235 
L 314.834657 147.558291 
L 315.803046 158.346667 
L 315.923771 172.947425 
L 316.333465 134.96732 
L 317.036796 158.234597 
L 317.572321 147.873594 
L 317.840085 153.694758 
L 318.39715 139.898023 
L 318.543031 143.837262 
L 318.807454 130.206384 
L 319.362895 145.458554 
L 319.482509 155.157041 
L 319.627738 108.048489 
L 319.895357 150.498681 
L 320.039887 129.400771 
L 320.159797 138.391898 
L 320.715707 143.291176 
L 321.245533 133.588918 
L 321.536686 133.437104 
L 321.656092 127.632646 
L 321.9245 131.304713 
L 322.749215 134.871195 
L 322.894171 165.073807 
L 323.305354 162.394362 
L 323.71898 126.515639 
L 324.251948 146.624765 
L 324.518897 146.746901 
L 325.082863 135.33795 
L 325.638645 156.175641 
L 325.904671 140.800539 
L 326.434264 151.312838 
L 326.580477 147.835217 
L 327.004438 117.208725 
L 327.152116 118.161102 
L 327.272611 170.572232 
L 327.679324 142.846351 
L 328.090035 158.203518 
L 328.503658 123.491507 
L 328.772284 155.079577 
L 328.91656 156.295667 
L 329.063775 160.176605 
L 330.037125 175.839354 
L 330.324134 174.115781 
L 331.36199 137.036844 
L 331.654277 163.928817 
L 331.950243 122.671643 
L 332.246607 150.846377 
L 332.67001 128.310156 
L 333.687808 115.545432 
L 333.83695 133.940955 
L 333.965917 122.079085 
L 335.260861 155.679883 
L 335.717171 128.564391 
L 335.847697 144.416969 
L 336.441548 149.752839 
L 336.597595 147.695266 
L 336.725752 132.715907 
L 336.88161 135.71593 
L 337.329546 160.759442 
L 337.482868 156.654916 
L 337.619211 148.609301 
L 337.775758 168.541311 
L 338.370374 139.984273 
L 338.497754 145.686794 
L 338.659943 163.253849 
L 339.118515 136.442955 
L 339.409731 168.621853 
L 339.693058 142.577866 
L 340.004613 146.827496 
L 340.133544 153.994669 
L 340.287513 126.207841 
L 340.583763 153.373904 
L 340.725877 151.5949 
L 341.46532 165.088957 
L 341.883118 146.94223 
L 342.167639 119.794682 
L 342.603919 137.451489 
L 343.04934 114.161582 
L 343.184934 145.064628 
L 343.500602 144.907781 
L 343.768986 131.761419 
L 344.66079 138.922419 
L 344.793246 164.99477 
L 345.101479 113.498029 
L 345.402669 103.469097 
L 346.111608 131.594697 
L 346.701396 146.157889 
L 346.829229 168.066134 
L 346.976478 132.192218 
L 347.126336 141.784549 
L 348.85085 117.959859 
L 349.157762 160.270326 
L 349.444006 123.847193 
L 349.722601 140.996179 
L 350.318263 144.553962 
L 350.445137 137.877392 
L 350.600105 123.150417 
L 350.754204 162.691592 
L 350.886198 164.524556 
L 351.036377 122.145619 
L 351.194589 131.3961 
L 351.48716 139.230665 
L 351.641509 175.10363 
L 351.777188 134.592938 
L 352.066436 142.738241 
L 352.819258 133.682449 
L 353.232867 164.359217 
L 353.542686 116.899726 
L 353.663936 128.435232 
L 353.97804 126.024291 
L 354.425785 126.378213 
L 354.872834 128.606365 
L 355.167439 172.327265 
L 355.618476 157.032412 
L 355.746882 145.9095 
L 356.059746 141.709801 
L 356.189945 133.555712 
L 356.62653 144.094558 
L 357.077317 135.965114 
L 358.277044 111.248198 
L 358.432155 113.173084 
L 358.714141 131.07246 
L 359.441532 101.646631 
L 360.171628 114.153626 
L 360.328664 138.059473 
L 360.491185 126.556524 
L 360.776073 139.973654 
L 360.928301 131.489821 
L 361.220322 161.781501 
L 361.511374 104.500555 
L 361.954243 159.660646 
L 362.110648 150.356292 
L 362.678351 146.311797 
L 363.39076 147.437936 
L 363.700427 149.459915 
L 364.553437 163.710624 
L 364.711523 128.44113 
L 364.996257 153.718401 
L 365.148034 143.368588 
L 365.870919 128.48416 
L 366.306361 140.020765 
L 366.869592 126.472142 
L 367.188425 145.326974 
L 367.466302 148.123367 
L 367.611839 155.487166 
L 367.740457 148.865456 
L 368.331073 149.916051 
L 369.052848 122.194961 
L 369.785323 142.15255 
L 369.940924 109.183967 
L 370.22318 139.00239 
L 370.389389 109.60617 
L 370.670298 143.105982 
L 370.824021 140.793206 
L 370.958467 165.00781 
L 371.266367 168.352641 
L 371.392655 115.882086 
L 371.555651 147.873092 
L 371.680652 124.344162 
L 372.128577 121.087129 
L 372.414401 141.915143 
L 372.568048 123.54481 
L 373.450013 144.901693 
L 373.734539 133.542187 
L 374.338909 140.722003 
L 374.625573 116.317329 
L 374.90461 132.44244 
L 375.515566 142.00141 
L 376.511871 141.797832 
L 376.944491 132.888596 
L 377.226152 146.633516 
L 377.542301 137.433502 
L 377.673264 117.805934 
L 377.976427 140.405974 
L 378.258777 150.102144 
L 378.544441 114.310586 
L 378.701706 124.210109 
L 378.830565 175.035384 
L 379.2671 116.813606 
L 379.42375 130.571791 
L 380.023188 121.376922 
L 380.427564 118.974947 
L 380.858354 147.540944 
L 381.448972 120.402485 
L 382.290576 104.781381 
L 382.435269 129.727299 
L 382.880201 128.167923 
L 383.038552 136.274105 
L 383.321459 160.713369 
L 383.607064 164.099067 
L 383.771329 152.45392 
L 384.048359 113.213485 
L 384.207961 154.504816 
L 384.48197 180.908209 
L 384.643092 137.93047 
L 384.769367 140.260801 
L 384.926671 120.910211 
L 385.21674 117.278432 
L 385.520189 144.417056 
L 385.649896 132.631404 
L 386.268771 142.931373 
L 386.400202 126.810222 
L 386.718172 144.230288 
L 387.139664 117.918956 
L 387.419658 115.45517 
L 387.865276 162.430215 
L 389.586419 136.853725 
L 390.173897 115.381477 
L 390.601678 108.456034 
L 391.604768 153.104484 
L 392.042755 144.603079 
L 392.896209 144.980938 
L 393.025248 131.914289 
L 393.304285 117.411671 
L 393.732667 75.448218 
L 394.324868 145.350858 
L 394.463454 142.371676 
L 395.776303 135.71126 
L 395.923213 108.075797 
L 396.205728 135.419478 
L 396.49018 121.792016 
L 396.807022 136.855749 
L 397.215239 119.375981 
L 397.368212 147.247104 
L 397.960199 141.604042 
L 398.243549 173.397247 
L 398.390874 142.487033 
L 398.520899 142.242604 
L 398.668861 123.877477 
L 399.79806 133.300578 
L 401.087399 167.410917 
L 401.37722 142.019016 
L 401.822321 157.799596 
L 402.548812 137.866687 
L 403.1226 146.655446 
L 403.562018 164.212764 
L 403.717884 130.925886 
L 404.153539 138.848742 
L 404.60479 149.716658 
L 404.891553 153.712001 
L 405.171039 125.116136 
L 405.607602 121.562842 
L 406.045893 126.731755 
L 406.196643 115.139867 
L 406.32501 144.563094 
L 406.597551 146.488377 
L 407.821187 132.796449 
L 408.103321 157.353837 
L 408.382465 154.657651 
L 408.665546 158.839606 
L 409.408569 124.07009 
L 410.12539 150.943678 
L 410.703038 143.083101 
L 411.294575 160.993788 
L 411.590198 122.319502 
L 412.15306 110.40745 
L 412.304821 110.866863 
L 412.578383 151.950414 
L 413.00733 145.093337 
L 413.295082 148.206278 
L 413.740899 98.37673 
L 414.170062 163.787621 
L 414.72 100.206685 
L 414.72 100.206685 
" style="fill:none;stroke:#000000;stroke-linecap:square;stroke-width:0.8;"/>
   </g>
   <g id="patch_3">
    <path d="M 57.6 307.584 
L 57.6 41.472 
" style="fill:none;stroke:#000000;stroke-linecap:square;stroke-linejoin:miter;stroke-width:0.8;"/>
   </g>
   <g id="patch_4">
    <path d="M 414.72 307.584 
L 414.72 41.472 
" style="fill:none;stroke:#000000;stroke-linecap:square;stroke-linejoin:miter;stroke-width:0.8;"/>
   </g>
   <g id="patch_5">
    <path d="M 57.6 307.584 
L 414.72 307.584 
" style="fill:none;stroke:#000000;stroke-linecap:square;stroke-linejoin:miter;stroke-width:0.8;"/>
   </g>
   <g id="patch_6">
    <path d="M 57.6 41.472 
L 414.72 41.472 
" style="fill:none;stroke:#000000;stroke-linecap:square;stroke-linejoin:miter;stroke-width:0.8;"/>
   </g>
  </g>
  <g id="axes_2">
   <g id="matplotlib.axis_3">
    <g id="xtick_8">
     <g id="line2d_24">
      <defs>
       <path d="M 0 0 
L 0 -3.5 
" id="m2203327679" style="stroke:#000000;stroke-width:0.8;"/>
      </defs>
      <g>
       <use style="stroke:#000000;stroke-width:0.8;" x="57.6" xlink:href="#m2203327679" y="41.472"/>
      </g>
     </g>
    </g>
    <g id="xtick_9">
     <g id="line2d_25">
      <g>
       <use style="stroke:#000000;stroke-width:0.8;" x="130.511392" xlink:href="#m2203327679" y="41.472"/>
      </g>
     </g>
     <g id="text_14">
      <!-- 500K -->
      <defs>
       <path d="M 10.796875 72.90625 
L 49.515625 72.90625 
L 49.515625 64.59375 
L 19.828125 64.59375 
L 19.828125 46.734375 
Q 21.96875 47.46875 24.109375 47.828125 
Q 26.265625 48.1875 28.421875 48.1875 
Q 40.625 48.1875 47.75 41.5 
Q 54.890625 34.8125 54.890625 23.390625 
Q 54.890625 11.625 47.5625 5.09375 
Q 40.234375 -1.421875 26.90625 -1.421875 
Q 22.3125 -1.421875 17.546875 -0.640625 
Q 12.796875 0.140625 7.71875 1.703125 
L 7.71875 11.625 
Q 12.109375 9.234375 16.796875 8.0625 
Q 21.484375 6.890625 26.703125 6.890625 
Q 35.15625 6.890625 40.078125 11.328125 
Q 45.015625 15.765625 45.015625 23.390625 
Q 45.015625 31 40.078125 35.4375 
Q 35.15625 39.890625 26.703125 39.890625 
Q 22.75 39.890625 18.8125 39.015625 
Q 14.890625 38.140625 10.796875 36.28125 
z
" id="DejaVuSans-53"/>
       <path d="M 9.8125 72.90625 
L 19.671875 72.90625 
L 19.671875 42.09375 
L 52.390625 72.90625 
L 65.09375 72.90625 
L 28.90625 38.921875 
L 67.671875 0 
L 54.6875 0 
L 19.671875 35.109375 
L 19.671875 0 
L 9.8125 0 
z
" id="DejaVuSans-75"/>
      </defs>
      <g transform="translate(117.688736 32.392313)scale(0.1 -0.1)">
       <use xlink:href="#DejaVuSans-53"/>
       <use x="63.623047" xlink:href="#DejaVuSans-48"/>
       <use x="127.246094" xlink:href="#DejaVuSans-48"/>
       <use x="190.869141" xlink:href="#DejaVuSans-75"/>
      </g>
     </g>
    </g>
    <g id="xtick_10">
     <g id="line2d_26">
      <g>
       <use style="stroke:#000000;stroke-width:0.8;" x="203.422785" xlink:href="#m2203327679" y="41.472"/>
      </g>
     </g>
     <g id="text_15">
      <!-- 1,000K -->
      <defs>
       <path d="M 11.71875 12.40625 
L 22.015625 12.40625 
L 22.015625 4 
L 14.015625 -11.625 
L 7.71875 -11.625 
L 11.71875 4 
z
" id="DejaVuSans-44"/>
      </defs>
      <g transform="translate(185.829816 32.392313)scale(0.1 -0.1)">
       <use xlink:href="#DejaVuSans-49"/>
       <use x="63.623047" xlink:href="#DejaVuSans-44"/>
       <use x="95.410156" xlink:href="#DejaVuSans-48"/>
       <use x="159.033203" xlink:href="#DejaVuSans-48"/>
       <use x="222.65625" xlink:href="#DejaVuSans-48"/>
       <use x="286.279297" xlink:href="#DejaVuSans-75"/>
      </g>
     </g>
    </g>
    <g id="xtick_11">
     <g id="line2d_27">
      <g>
       <use style="stroke:#000000;stroke-width:0.8;" x="276.334177" xlink:href="#m2203327679" y="41.472"/>
      </g>
     </g>
     <g id="text_16">
      <!-- 1.50M -->
      <defs>
       <path d="M 9.8125 72.90625 
L 24.515625 72.90625 
L 43.109375 23.296875 
L 61.8125 72.90625 
L 76.515625 72.90625 
L 76.515625 0 
L 66.890625 0 
L 66.890625 64.015625 
L 48.09375 14.015625 
L 38.1875 14.015625 
L 19.390625 64.015625 
L 19.390625 0 
L 9.8125 0 
z
" id="DejaVuSans-77"/>
      </defs>
      <g transform="translate(260.887302 32.392313)scale(0.1 -0.1)">
       <use xlink:href="#DejaVuSans-49"/>
       <use x="63.623047" xlink:href="#DejaVuSans-46"/>
       <use x="95.410156" xlink:href="#DejaVuSans-53"/>
       <use x="159.033203" xlink:href="#DejaVuSans-48"/>
       <use x="222.65625" xlink:href="#DejaVuSans-77"/>
      </g>
     </g>
    </g>
    <g id="xtick_12">
     <g id="line2d_28">
      <g>
       <use style="stroke:#000000;stroke-width:0.8;" x="349.24557" xlink:href="#m2203327679" y="41.472"/>
      </g>
     </g>
     <g id="text_17">
      <!-- 2.00M -->
      <g transform="translate(333.798695 32.392313)scale(0.1 -0.1)">
       <use xlink:href="#DejaVuSans-50"/>
       <use x="63.623047" xlink:href="#DejaVuSans-46"/>
       <use x="95.410156" xlink:href="#DejaVuSans-48"/>
       <use x="159.033203" xlink:href="#DejaVuSans-48"/>
       <use x="222.65625" xlink:href="#DejaVuSans-77"/>
      </g>
     </g>
    </g>
    <g id="text_18">
     <!-- Steps -->
     <defs>
      <path d="M 53.515625 70.515625 
L 53.515625 60.890625 
Q 47.90625 63.578125 42.921875 64.890625 
Q 37.9375 66.21875 33.296875 66.21875 
Q 25.25 66.21875 20.875 63.09375 
Q 16.5 59.96875 16.5 54.203125 
Q 16.5 49.359375 19.40625 46.890625 
Q 22.3125 44.4375 30.421875 42.921875 
L 36.375 41.703125 
Q 47.40625 39.59375 52.65625 34.296875 
Q 57.90625 29 57.90625 20.125 
Q 57.90625 9.515625 50.796875 4.046875 
Q 43.703125 -1.421875 29.984375 -1.421875 
Q 24.8125 -1.421875 18.96875 -0.25 
Q 13.140625 0.921875 6.890625 3.21875 
L 6.890625 13.375 
Q 12.890625 10.015625 18.65625 8.296875 
Q 24.421875 6.59375 29.984375 6.59375 
Q 38.421875 6.59375 43.015625 9.90625 
Q 47.609375 13.234375 47.609375 19.390625 
Q 47.609375 24.75 44.3125 27.78125 
Q 41.015625 30.8125 33.5 32.328125 
L 27.484375 33.5 
Q 16.453125 35.6875 11.515625 40.375 
Q 6.59375 45.0625 6.59375 53.421875 
Q 6.59375 63.09375 13.40625 68.65625 
Q 20.21875 74.21875 32.171875 74.21875 
Q 37.3125 74.21875 42.625 73.28125 
Q 47.953125 72.359375 53.515625 70.515625 
z
" id="DejaVuSans-83"/>
      <path d="M 56.203125 29.59375 
L 56.203125 25.203125 
L 14.890625 25.203125 
Q 15.484375 15.921875 20.484375 11.0625 
Q 25.484375 6.203125 34.421875 6.203125 
Q 39.59375 6.203125 44.453125 7.46875 
Q 49.3125 8.734375 54.109375 11.28125 
L 54.109375 2.78125 
Q 49.265625 0.734375 44.1875 -0.34375 
Q 39.109375 -1.421875 33.890625 -1.421875 
Q 20.796875 -1.421875 13.15625 6.1875 
Q 5.515625 13.8125 5.515625 26.8125 
Q 5.515625 40.234375 12.765625 48.109375 
Q 20.015625 56 32.328125 56 
Q 43.359375 56 49.78125 48.890625 
Q 56.203125 41.796875 56.203125 29.59375 
z
M 47.21875 32.234375 
Q 47.125 39.59375 43.09375 43.984375 
Q 39.0625 48.390625 32.421875 48.390625 
Q 24.90625 48.390625 20.390625 44.140625 
Q 15.875 39.890625 15.1875 32.171875 
z
" id="DejaVuSans-101"/>
     </defs>
     <g transform="translate(222.170156 20.793875)scale(0.1 -0.1)">
      <use xlink:href="#DejaVuSans-83"/>
      <use x="63.476562" xlink:href="#DejaVuSans-116"/>
      <use x="102.685547" xlink:href="#DejaVuSans-101"/>
      <use x="164.208984" xlink:href="#DejaVuSans-112"/>
      <use x="227.685547" xlink:href="#DejaVuSans-115"/>
     </g>
    </g>
   </g>
   <g id="patch_7">
    <path d="M 57.6 307.584 
L 57.6 41.472 
" style="fill:none;stroke:#000000;stroke-linecap:square;stroke-linejoin:miter;stroke-width:0.8;"/>
   </g>
   <g id="patch_8">
    <path d="M 414.72 307.584 
L 414.72 41.472 
" style="fill:none;stroke:#000000;stroke-linecap:square;stroke-linejoin:miter;stroke-width:0.8;"/>
   </g>
   <g id="patch_9">
    <path d="M 57.6 307.584 
L 414.72 307.584 
" style="fill:none;stroke:#000000;stroke-linecap:square;stroke-linejoin:miter;stroke-width:0.8;"/>
   </g>
   <g id="patch_10">
    <path d="M 57.6 41.472 
L 414.72 41.472 
" style="fill:none;stroke:#000000;stroke-linecap:square;stroke-linejoin:miter;stroke-width:0.8;"/>
   </g>
  </g>
 </g>
 <defs>
  <clipPath id="p553347f7c7">
   <rect height="266.112" width="357.12" x="57.6" y="41.472"/>
  </clipPath>
 </defs>
</svg>
