<?xml version="1.0" encoding="utf-8" standalone="no"?>
<!DOCTYPE svg PUBLIC "-//W3C//DTD SVG 1.1//EN"
  "http://www.w3.org/Graphics/SVG/1.1/DTD/svg11.dtd">
<!-- Created with matplotlib (https://matplotlib.org/) -->
<svg height="345.6pt" version="1.1" viewBox="0 0 460.8 345.6" width="460.8pt" xmlns="http://www.w3.org/2000/svg" xmlns:xlink="http://www.w3.org/1999/xlink">
 <defs>
  <style type="text/css">
*{stroke-linecap:butt;stroke-linejoin:round;}
  </style>
 </defs>
 <g id="figure_1">
  <g id="patch_1">
   <path d="M 0 345.6 
L 460.8 345.6 
L 460.8 0 
L 0 0 
z
" style="fill:#ffffff;"/>
  </g>
  <g id="axes_1">
   <g id="patch_2">
    <path d="M 57.6 307.584 
L 414.72 307.584 
L 414.72 41.472 
L 57.6 41.472 
z
" style="fill:#ffffff;"/>
   </g>
   <g id="matplotlib.axis_1">
    <g id="xtick_1">
     <g id="line2d_1">
      <path clip-path="url(#p1fef5511f6)" d="M 57.6 307.584 
L 57.6 41.472 
" style="fill:none;stroke:#b0b0b0;stroke-linecap:square;stroke-width:0.8;"/>
     </g>
     <g id="line2d_2">
      <defs>
       <path d="M 0 0 
L 0 3.5 
" id="m907fbfbb13" style="stroke:#000000;stroke-width:0.8;"/>
      </defs>
      <g>
       <use style="stroke:#000000;stroke-width:0.8;" x="57.6" xlink:href="#m907fbfbb13" y="307.584"/>
      </g>
     </g>
     <g id="text_1">
      <!-- 0.00 -->
      <defs>
       <path d="M 31.78125 66.40625 
Q 24.171875 66.40625 20.328125 58.90625 
Q 16.5 51.421875 16.5 36.375 
Q 16.5 21.390625 20.328125 13.890625 
Q 24.171875 6.390625 31.78125 6.390625 
Q 39.453125 6.390625 43.28125 13.890625 
Q 47.125 21.390625 47.125 36.375 
Q 47.125 51.421875 43.28125 58.90625 
Q 39.453125 66.40625 31.78125 66.40625 
z
M 31.78125 74.21875 
Q 44.046875 74.21875 50.515625 64.515625 
Q 56.984375 54.828125 56.984375 36.375 
Q 56.984375 17.96875 50.515625 8.265625 
Q 44.046875 -1.421875 31.78125 -1.421875 
Q 19.53125 -1.421875 13.0625 8.265625 
Q 6.59375 17.96875 6.59375 36.375 
Q 6.59375 54.828125 13.0625 64.515625 
Q 19.53125 74.21875 31.78125 74.21875 
z
" id="DejaVuSans-48"/>
       <path d="M 10.6875 12.40625 
L 21 12.40625 
L 21 0 
L 10.6875 0 
z
" id="DejaVuSans-46"/>
      </defs>
      <g transform="translate(46.467188 322.182437)scale(0.1 -0.1)">
       <use xlink:href="#DejaVuSans-48"/>
       <use x="63.623047" xlink:href="#DejaVuSans-46"/>
       <use x="95.410156" xlink:href="#DejaVuSans-48"/>
       <use x="159.033203" xlink:href="#DejaVuSans-48"/>
      </g>
     </g>
    </g>
    <g id="xtick_2">
     <g id="line2d_3">
      <path clip-path="url(#p1fef5511f6)" d="M 102.62601 307.584 
L 102.62601 41.472 
" style="fill:none;stroke:#b0b0b0;stroke-linecap:square;stroke-width:0.8;"/>
     </g>
     <g id="line2d_4">
      <g>
       <use style="stroke:#000000;stroke-width:0.8;" x="102.62601" xlink:href="#m907fbfbb13" y="307.584"/>
      </g>
     </g>
     <g id="text_2">
      <!-- 0.25 -->
      <defs>
       <path d="M 19.1875 8.296875 
L 53.609375 8.296875 
L 53.609375 0 
L 7.328125 0 
L 7.328125 8.296875 
Q 12.9375 14.109375 22.625 23.890625 
Q 32.328125 33.6875 34.8125 36.53125 
Q 39.546875 41.84375 41.421875 45.53125 
Q 43.3125 49.21875 43.3125 52.78125 
Q 43.3125 58.59375 39.234375 62.25 
Q 35.15625 65.921875 28.609375 65.921875 
Q 23.96875 65.921875 18.8125 64.3125 
Q 13.671875 62.703125 7.8125 59.421875 
L 7.8125 69.390625 
Q 13.765625 71.78125 18.9375 73 
Q 24.125 74.21875 28.421875 74.21875 
Q 39.75 74.21875 46.484375 68.546875 
Q 53.21875 62.890625 53.21875 53.421875 
Q 53.21875 48.921875 51.53125 44.890625 
Q 49.859375 40.875 45.40625 35.40625 
Q 44.1875 33.984375 37.640625 27.21875 
Q 31.109375 20.453125 19.1875 8.296875 
z
" id="DejaVuSans-50"/>
       <path d="M 10.796875 72.90625 
L 49.515625 72.90625 
L 49.515625 64.59375 
L 19.828125 64.59375 
L 19.828125 46.734375 
Q 21.96875 47.46875 24.109375 47.828125 
Q 26.265625 48.1875 28.421875 48.1875 
Q 40.625 48.1875 47.75 41.5 
Q 54.890625 34.8125 54.890625 23.390625 
Q 54.890625 11.625 47.5625 5.09375 
Q 40.234375 -1.421875 26.90625 -1.421875 
Q 22.3125 -1.421875 17.546875 -0.640625 
Q 12.796875 0.140625 7.71875 1.703125 
L 7.71875 11.625 
Q 12.109375 9.234375 16.796875 8.0625 
Q 21.484375 6.890625 26.703125 6.890625 
Q 35.15625 6.890625 40.078125 11.328125 
Q 45.015625 15.765625 45.015625 23.390625 
Q 45.015625 31 40.078125 35.4375 
Q 35.15625 39.890625 26.703125 39.890625 
Q 22.75 39.890625 18.8125 39.015625 
Q 14.890625 38.140625 10.796875 36.28125 
z
" id="DejaVuSans-53"/>
      </defs>
      <g transform="translate(91.493198 322.182437)scale(0.1 -0.1)">
       <use xlink:href="#DejaVuSans-48"/>
       <use x="63.623047" xlink:href="#DejaVuSans-46"/>
       <use x="95.410156" xlink:href="#DejaVuSans-50"/>
       <use x="159.033203" xlink:href="#DejaVuSans-53"/>
      </g>
     </g>
    </g>
    <g id="xtick_3">
     <g id="line2d_5">
      <path clip-path="url(#p1fef5511f6)" d="M 147.652021 307.584 
L 147.652021 41.472 
" style="fill:none;stroke:#b0b0b0;stroke-linecap:square;stroke-width:0.8;"/>
     </g>
     <g id="line2d_6">
      <g>
       <use style="stroke:#000000;stroke-width:0.8;" x="147.652021" xlink:href="#m907fbfbb13" y="307.584"/>
      </g>
     </g>
     <g id="text_3">
      <!-- 0.50 -->
      <g transform="translate(136.519208 322.182437)scale(0.1 -0.1)">
       <use xlink:href="#DejaVuSans-48"/>
       <use x="63.623047" xlink:href="#DejaVuSans-46"/>
       <use x="95.410156" xlink:href="#DejaVuSans-53"/>
       <use x="159.033203" xlink:href="#DejaVuSans-48"/>
      </g>
     </g>
    </g>
    <g id="xtick_4">
     <g id="line2d_7">
      <path clip-path="url(#p1fef5511f6)" d="M 192.678031 307.584 
L 192.678031 41.472 
" style="fill:none;stroke:#b0b0b0;stroke-linecap:square;stroke-width:0.8;"/>
     </g>
     <g id="line2d_8">
      <g>
       <use style="stroke:#000000;stroke-width:0.8;" x="192.678031" xlink:href="#m907fbfbb13" y="307.584"/>
      </g>
     </g>
     <g id="text_4">
      <!-- 0.75 -->
      <defs>
       <path d="M 8.203125 72.90625 
L 55.078125 72.90625 
L 55.078125 68.703125 
L 28.609375 0 
L 18.3125 0 
L 43.21875 64.59375 
L 8.203125 64.59375 
z
" id="DejaVuSans-55"/>
      </defs>
      <g transform="translate(181.545219 322.182437)scale(0.1 -0.1)">
       <use xlink:href="#DejaVuSans-48"/>
       <use x="63.623047" xlink:href="#DejaVuSans-46"/>
       <use x="95.410156" xlink:href="#DejaVuSans-55"/>
       <use x="159.033203" xlink:href="#DejaVuSans-53"/>
      </g>
     </g>
    </g>
    <g id="xtick_5">
     <g id="line2d_9">
      <path clip-path="url(#p1fef5511f6)" d="M 237.704042 307.584 
L 237.704042 41.472 
" style="fill:none;stroke:#b0b0b0;stroke-linecap:square;stroke-width:0.8;"/>
     </g>
     <g id="line2d_10">
      <g>
       <use style="stroke:#000000;stroke-width:0.8;" x="237.704042" xlink:href="#m907fbfbb13" y="307.584"/>
      </g>
     </g>
     <g id="text_5">
      <!-- 1.00 -->
      <defs>
       <path d="M 12.40625 8.296875 
L 28.515625 8.296875 
L 28.515625 63.921875 
L 10.984375 60.40625 
L 10.984375 69.390625 
L 28.421875 72.90625 
L 38.28125 72.90625 
L 38.28125 8.296875 
L 54.390625 8.296875 
L 54.390625 0 
L 12.40625 0 
z
" id="DejaVuSans-49"/>
      </defs>
      <g transform="translate(226.571229 322.182437)scale(0.1 -0.1)">
       <use xlink:href="#DejaVuSans-49"/>
       <use x="63.623047" xlink:href="#DejaVuSans-46"/>
       <use x="95.410156" xlink:href="#DejaVuSans-48"/>
       <use x="159.033203" xlink:href="#DejaVuSans-48"/>
      </g>
     </g>
    </g>
    <g id="xtick_6">
     <g id="line2d_11">
      <path clip-path="url(#p1fef5511f6)" d="M 282.730052 307.584 
L 282.730052 41.472 
" style="fill:none;stroke:#b0b0b0;stroke-linecap:square;stroke-width:0.8;"/>
     </g>
     <g id="line2d_12">
      <g>
       <use style="stroke:#000000;stroke-width:0.8;" x="282.730052" xlink:href="#m907fbfbb13" y="307.584"/>
      </g>
     </g>
     <g id="text_6">
      <!-- 1.25 -->
      <g transform="translate(271.59724 322.182437)scale(0.1 -0.1)">
       <use xlink:href="#DejaVuSans-49"/>
       <use x="63.623047" xlink:href="#DejaVuSans-46"/>
       <use x="95.410156" xlink:href="#DejaVuSans-50"/>
       <use x="159.033203" xlink:href="#DejaVuSans-53"/>
      </g>
     </g>
    </g>
    <g id="xtick_7">
     <g id="line2d_13">
      <path clip-path="url(#p1fef5511f6)" d="M 327.756063 307.584 
L 327.756063 41.472 
" style="fill:none;stroke:#b0b0b0;stroke-linecap:square;stroke-width:0.8;"/>
     </g>
     <g id="line2d_14">
      <g>
       <use style="stroke:#000000;stroke-width:0.8;" x="327.756063" xlink:href="#m907fbfbb13" y="307.584"/>
      </g>
     </g>
     <g id="text_7">
      <!-- 1.50 -->
      <g transform="translate(316.62325 322.182437)scale(0.1 -0.1)">
       <use xlink:href="#DejaVuSans-49"/>
       <use x="63.623047" xlink:href="#DejaVuSans-46"/>
       <use x="95.410156" xlink:href="#DejaVuSans-53"/>
       <use x="159.033203" xlink:href="#DejaVuSans-48"/>
      </g>
     </g>
    </g>
    <g id="xtick_8">
     <g id="line2d_15">
      <path clip-path="url(#p1fef5511f6)" d="M 372.782073 307.584 
L 372.782073 41.472 
" style="fill:none;stroke:#b0b0b0;stroke-linecap:square;stroke-width:0.8;"/>
     </g>
     <g id="line2d_16">
      <g>
       <use style="stroke:#000000;stroke-width:0.8;" x="372.782073" xlink:href="#m907fbfbb13" y="307.584"/>
      </g>
     </g>
     <g id="text_8">
      <!-- 1.75 -->
      <g transform="translate(361.649261 322.182437)scale(0.1 -0.1)">
       <use xlink:href="#DejaVuSans-49"/>
       <use x="63.623047" xlink:href="#DejaVuSans-46"/>
       <use x="95.410156" xlink:href="#DejaVuSans-55"/>
       <use x="159.033203" xlink:href="#DejaVuSans-53"/>
      </g>
     </g>
    </g>
    <g id="text_9">
     <!-- Hours -->
     <defs>
      <path d="M 9.8125 72.90625 
L 19.671875 72.90625 
L 19.671875 43.015625 
L 55.515625 43.015625 
L 55.515625 72.90625 
L 65.375 72.90625 
L 65.375 0 
L 55.515625 0 
L 55.515625 34.71875 
L 19.671875 34.71875 
L 19.671875 0 
L 9.8125 0 
z
" id="DejaVuSans-72"/>
      <path d="M 30.609375 48.390625 
Q 23.390625 48.390625 19.1875 42.75 
Q 14.984375 37.109375 14.984375 27.296875 
Q 14.984375 17.484375 19.15625 11.84375 
Q 23.34375 6.203125 30.609375 6.203125 
Q 37.796875 6.203125 41.984375 11.859375 
Q 46.1875 17.53125 46.1875 27.296875 
Q 46.1875 37.015625 41.984375 42.703125 
Q 37.796875 48.390625 30.609375 48.390625 
z
M 30.609375 56 
Q 42.328125 56 49.015625 48.375 
Q 55.71875 40.765625 55.71875 27.296875 
Q 55.71875 13.875 49.015625 6.21875 
Q 42.328125 -1.421875 30.609375 -1.421875 
Q 18.84375 -1.421875 12.171875 6.21875 
Q 5.515625 13.875 5.515625 27.296875 
Q 5.515625 40.765625 12.171875 48.375 
Q 18.84375 56 30.609375 56 
z
" id="DejaVuSans-111"/>
      <path d="M 8.5 21.578125 
L 8.5 54.6875 
L 17.484375 54.6875 
L 17.484375 21.921875 
Q 17.484375 14.15625 20.5 10.265625 
Q 23.53125 6.390625 29.59375 6.390625 
Q 36.859375 6.390625 41.078125 11.03125 
Q 45.3125 15.671875 45.3125 23.6875 
L 45.3125 54.6875 
L 54.296875 54.6875 
L 54.296875 0 
L 45.3125 0 
L 45.3125 8.40625 
Q 42.046875 3.421875 37.71875 1 
Q 33.40625 -1.421875 27.6875 -1.421875 
Q 18.265625 -1.421875 13.375 4.4375 
Q 8.5 10.296875 8.5 21.578125 
z
M 31.109375 56 
z
" id="DejaVuSans-117"/>
      <path d="M 41.109375 46.296875 
Q 39.59375 47.171875 37.8125 47.578125 
Q 36.03125 48 33.890625 48 
Q 26.265625 48 22.1875 43.046875 
Q 18.109375 38.09375 18.109375 28.8125 
L 18.109375 0 
L 9.078125 0 
L 9.078125 54.6875 
L 18.109375 54.6875 
L 18.109375 46.1875 
Q 20.953125 51.171875 25.484375 53.578125 
Q 30.03125 56 36.53125 56 
Q 37.453125 56 38.578125 55.875 
Q 39.703125 55.765625 41.0625 55.515625 
z
" id="DejaVuSans-114"/>
      <path d="M 44.28125 53.078125 
L 44.28125 44.578125 
Q 40.484375 46.53125 36.375 47.5 
Q 32.28125 48.484375 27.875 48.484375 
Q 21.1875 48.484375 17.84375 46.4375 
Q 14.5 44.390625 14.5 40.28125 
Q 14.5 37.15625 16.890625 35.375 
Q 19.28125 33.59375 26.515625 31.984375 
L 29.59375 31.296875 
Q 39.15625 29.25 43.1875 25.515625 
Q 47.21875 21.78125 47.21875 15.09375 
Q 47.21875 7.46875 41.1875 3.015625 
Q 35.15625 -1.421875 24.609375 -1.421875 
Q 20.21875 -1.421875 15.453125 -0.5625 
Q 10.6875 0.296875 5.421875 2 
L 5.421875 11.28125 
Q 10.40625 8.6875 15.234375 7.390625 
Q 20.0625 6.109375 24.8125 6.109375 
Q 31.15625 6.109375 34.5625 8.28125 
Q 37.984375 10.453125 37.984375 14.40625 
Q 37.984375 18.0625 35.515625 20.015625 
Q 33.0625 21.96875 24.703125 23.78125 
L 21.578125 24.515625 
Q 13.234375 26.265625 9.515625 29.90625 
Q 5.8125 33.546875 5.8125 39.890625 
Q 5.8125 47.609375 11.28125 51.796875 
Q 16.75 56 26.8125 56 
Q 31.78125 56 36.171875 55.265625 
Q 40.578125 54.546875 44.28125 53.078125 
z
" id="DejaVuSans-115"/>
     </defs>
     <g transform="translate(221.511562 335.860562)scale(0.1 -0.1)">
      <use xlink:href="#DejaVuSans-72"/>
      <use x="75.195312" xlink:href="#DejaVuSans-111"/>
      <use x="136.376953" xlink:href="#DejaVuSans-117"/>
      <use x="199.755859" xlink:href="#DejaVuSans-114"/>
      <use x="240.869141" xlink:href="#DejaVuSans-115"/>
     </g>
    </g>
   </g>
   <g id="matplotlib.axis_2">
    <g id="ytick_1">
     <g id="line2d_17">
      <path clip-path="url(#p1fef5511f6)" d="M 57.6 305.485521 
L 414.72 305.485521 
" style="fill:none;stroke:#b0b0b0;stroke-linecap:square;stroke-width:0.8;"/>
     </g>
     <g id="line2d_18">
      <defs>
       <path d="M 0 0 
L -3.5 0 
" id="me02f381a37" style="stroke:#000000;stroke-width:0.8;"/>
      </defs>
      <g>
       <use style="stroke:#000000;stroke-width:0.8;" x="57.6" xlink:href="#me02f381a37" y="305.485521"/>
      </g>
     </g>
     <g id="text_10">
      <!-- 0.000 -->
      <g transform="translate(21.971875 309.284739)scale(0.1 -0.1)">
       <use xlink:href="#DejaVuSans-48"/>
       <use x="63.623047" xlink:href="#DejaVuSans-46"/>
       <use x="95.410156" xlink:href="#DejaVuSans-48"/>
       <use x="159.033203" xlink:href="#DejaVuSans-48"/>
       <use x="222.65625" xlink:href="#DejaVuSans-48"/>
      </g>
     </g>
    </g>
    <g id="ytick_2">
     <g id="line2d_19">
      <path clip-path="url(#p1fef5511f6)" d="M 57.6 258.265802 
L 414.72 258.265802 
" style="fill:none;stroke:#b0b0b0;stroke-linecap:square;stroke-width:0.8;"/>
     </g>
     <g id="line2d_20">
      <g>
       <use style="stroke:#000000;stroke-width:0.8;" x="57.6" xlink:href="#me02f381a37" y="258.265802"/>
      </g>
     </g>
     <g id="text_11">
      <!-- 0.005 -->
      <g transform="translate(21.971875 262.065021)scale(0.1 -0.1)">
       <use xlink:href="#DejaVuSans-48"/>
       <use x="63.623047" xlink:href="#DejaVuSans-46"/>
       <use x="95.410156" xlink:href="#DejaVuSans-48"/>
       <use x="159.033203" xlink:href="#DejaVuSans-48"/>
       <use x="222.65625" xlink:href="#DejaVuSans-53"/>
      </g>
     </g>
    </g>
    <g id="ytick_3">
     <g id="line2d_21">
      <path clip-path="url(#p1fef5511f6)" d="M 57.6 211.046084 
L 414.72 211.046084 
" style="fill:none;stroke:#b0b0b0;stroke-linecap:square;stroke-width:0.8;"/>
     </g>
     <g id="line2d_22">
      <g>
       <use style="stroke:#000000;stroke-width:0.8;" x="57.6" xlink:href="#me02f381a37" y="211.046084"/>
      </g>
     </g>
     <g id="text_12">
      <!-- 0.010 -->
      <g transform="translate(21.971875 214.845303)scale(0.1 -0.1)">
       <use xlink:href="#DejaVuSans-48"/>
       <use x="63.623047" xlink:href="#DejaVuSans-46"/>
       <use x="95.410156" xlink:href="#DejaVuSans-48"/>
       <use x="159.033203" xlink:href="#DejaVuSans-49"/>
       <use x="222.65625" xlink:href="#DejaVuSans-48"/>
      </g>
     </g>
    </g>
    <g id="ytick_4">
     <g id="line2d_23">
      <path clip-path="url(#p1fef5511f6)" d="M 57.6 163.826366 
L 414.72 163.826366 
" style="fill:none;stroke:#b0b0b0;stroke-linecap:square;stroke-width:0.8;"/>
     </g>
     <g id="line2d_24">
      <g>
       <use style="stroke:#000000;stroke-width:0.8;" x="57.6" xlink:href="#me02f381a37" y="163.826366"/>
      </g>
     </g>
     <g id="text_13">
      <!-- 0.015 -->
      <g transform="translate(21.971875 167.625585)scale(0.1 -0.1)">
       <use xlink:href="#DejaVuSans-48"/>
       <use x="63.623047" xlink:href="#DejaVuSans-46"/>
       <use x="95.410156" xlink:href="#DejaVuSans-48"/>
       <use x="159.033203" xlink:href="#DejaVuSans-49"/>
       <use x="222.65625" xlink:href="#DejaVuSans-53"/>
      </g>
     </g>
    </g>
    <g id="ytick_5">
     <g id="line2d_25">
      <path clip-path="url(#p1fef5511f6)" d="M 57.6 116.606648 
L 414.72 116.606648 
" style="fill:none;stroke:#b0b0b0;stroke-linecap:square;stroke-width:0.8;"/>
     </g>
     <g id="line2d_26">
      <g>
       <use style="stroke:#000000;stroke-width:0.8;" x="57.6" xlink:href="#me02f381a37" y="116.606648"/>
      </g>
     </g>
     <g id="text_14">
      <!-- 0.020 -->
      <g transform="translate(21.971875 120.405867)scale(0.1 -0.1)">
       <use xlink:href="#DejaVuSans-48"/>
       <use x="63.623047" xlink:href="#DejaVuSans-46"/>
       <use x="95.410156" xlink:href="#DejaVuSans-48"/>
       <use x="159.033203" xlink:href="#DejaVuSans-50"/>
       <use x="222.65625" xlink:href="#DejaVuSans-48"/>
      </g>
     </g>
    </g>
    <g id="ytick_6">
     <g id="line2d_27">
      <path clip-path="url(#p1fef5511f6)" d="M 57.6 69.38693 
L 414.72 69.38693 
" style="fill:none;stroke:#b0b0b0;stroke-linecap:square;stroke-width:0.8;"/>
     </g>
     <g id="line2d_28">
      <g>
       <use style="stroke:#000000;stroke-width:0.8;" x="57.6" xlink:href="#me02f381a37" y="69.38693"/>
      </g>
     </g>
     <g id="text_15">
      <!-- 0.025 -->
      <g transform="translate(21.971875 73.186148)scale(0.1 -0.1)">
       <use xlink:href="#DejaVuSans-48"/>
       <use x="63.623047" xlink:href="#DejaVuSans-46"/>
       <use x="95.410156" xlink:href="#DejaVuSans-48"/>
       <use x="159.033203" xlink:href="#DejaVuSans-50"/>
       <use x="222.65625" xlink:href="#DejaVuSans-53"/>
      </g>
     </g>
    </g>
    <g id="text_16">
     <!-- Loss -->
     <defs>
      <path d="M 9.8125 72.90625 
L 19.671875 72.90625 
L 19.671875 8.296875 
L 55.171875 8.296875 
L 55.171875 0 
L 9.8125 0 
z
" id="DejaVuSans-76"/>
     </defs>
     <g transform="translate(15.892188 185.581906)rotate(-90)scale(0.1 -0.1)">
      <use xlink:href="#DejaVuSans-76"/>
      <use x="55.697266" xlink:href="#DejaVuSans-111"/>
      <use x="116.878906" xlink:href="#DejaVuSans-115"/>
      <use x="168.978516" xlink:href="#DejaVuSans-115"/>
     </g>
    </g>
   </g>
   <g id="line2d_29">
    <path clip-path="url(#p1fef5511f6)" d="M 57.6 59.657888 
L 59.363253 90.787721 
L 59.579386 53.568 
L 60.369288 87.413241 
L 61.483236 71.897438 
L 61.717433 63.449848 
L 63.187843 112.854728 
L 67.524351 100.031325 
L 67.616888 147.235571 
L 67.90145 131.595877 
L 68.394058 142.743729 
L 69.982349 221.082575 
L 70.629888 213.69385 
L 70.796725 222.092528 
L 71.018614 219.667806 
L 71.199528 234.08433 
L 72.268642 233.238085 
L 72.329516 225.600671 
L 72.574141 234.409679 
L 73.223345 238.005472 
L 73.467068 241.780778 
L 74.091519 241.037663 
L 75.767008 221.217751 
L 75.798006 222.1556 
L 76.50577 243.709798 
L 76.97834 218.679577 
L 77.10172 242.001973 
L 77.409192 240.560471 
L 77.993452 232.104873 
L 78.650522 228.851374 
L 79.327445 241.347334 
L 80.167613 242.162897 
L 80.878327 234.874268 
L 80.909198 243.805633 
L 81.940416 228.943857 
L 82.371502 235.657899 
L 82.588215 241.131263 
L 82.619198 245.381554 
L 82.680873 229.018345 
L 82.77395 229.244948 
L 82.843816 239.176033 
L 83.216842 224.428144 
L 83.525999 231.040204 
L 84.87007 236.536872 
L 85.120021 242.65951 
L 85.370009 237.262955 
L 86.056501 238.901275 
L 86.178006 230.376691 
L 86.451486 241.78442 
L 86.57233 235.770194 
L 86.632967 238.08978 
L 87.057561 238.224815 
L 87.118122 236.835619 
L 87.2698 226.757762 
L 87.330211 235.91741 
L 87.460619 235.217485 
L 87.581503 217.468879 
L 87.763931 227.764663 
L 87.794145 224.698619 
L 88.501061 233.735687 
L 88.623298 228.703805 
L 89.651532 226.984154 
L 90.052274 237.620653 
L 90.833558 240.015524 
L 90.896875 247.516284 
L 91.145877 242.677795 
L 91.929519 230.868193 
L 92.023863 233.632812 
L 92.303287 226.29962 
L 92.554841 227.601615 
L 92.834463 213.725847 
L 92.865428 225.898341 
L 93.083864 220.547465 
L 93.238851 211.558733 
L 93.802937 236.524822 
L 93.895842 223.82648 
L 94.177961 226.199257 
L 95.713371 224.735727 
L 95.867007 233.20724 
L 96.175718 224.836275 
L 96.329476 223.281326 
L 96.647348 236.834322 
L 96.832728 217.820324 
L 96.987773 227.275501 
L 97.298526 230.520882 
L 98.595361 221.241313 
L 98.720347 217.591732 
L 98.751284 211.121225 
L 98.782019 219.706304 
L 99.336882 201.255622 
L 99.741488 208.413178 
L 100.142973 219.521575 
L 101.319851 223.938128 
L 101.753105 226.927178 
L 101.846828 215.985322 
L 102.462579 220.477129 
L 102.652992 232.371663 
L 102.870101 224.674098 
L 103.552793 219.296211 
L 103.645506 230.143676 
L 103.982525 224.788516 
L 104.172661 230.695795 
L 104.203447 237.96679 
L 105.703474 210.195822 
L 105.888544 204.176182 
L 105.919337 216.527864 
L 106.600747 215.069936 
L 106.973517 205.237746 
L 107.290372 221.202139 
L 108.224524 224.625486 
L 108.565414 237.181396 
L 108.813488 218.084967 
L 108.996872 218.173792 
L 109.975341 226.783717 
L 110.098735 238.058504 
L 110.879933 238.142139 
L 111.375237 235.710434 
L 111.406098 236.555439 
L 111.880076 214.845549 
L 112.004883 218.98329 
L 112.531377 226.304115 
L 113.526195 227.491048 
L 113.61828 216.376759 
L 113.771708 235.088852 
L 113.863853 231.409935 
L 114.920221 213.420552 
L 115.200563 215.366507 
L 115.324141 232.274355 
L 115.385836 215.169209 
L 115.447502 225.312095 
L 115.541632 225.640074 
L 115.758006 224.355336 
L 116.039629 216.417447 
L 116.479369 218.908406 
L 116.541071 224.782333 
L 116.633614 211.784334 
L 116.788273 228.091508 
L 116.881095 226.264835 
L 116.91216 217.273877 
L 117.534311 231.682098 
L 118.005879 213.03856 
L 118.253418 217.18062 
L 118.534625 235.070884 
L 118.750153 225.403365 
L 119.536276 226.125868 
L 119.971972 219.492313 
L 120.249598 234.240311 
L 120.652358 220.326324 
L 120.751239 229.049595 
L 120.936662 231.014891 
L 120.99933 227.851447 
L 122.237137 228.25905 
L 122.766667 224.214874 
L 123.076669 233.4945 
L 123.16942 240.613542 
L 123.795862 238.225844 
L 124.22706 235.559839 
L 124.289081 233.444507 
L 124.845096 228.541478 
L 124.986927 233.699683 
L 125.242083 228.591691 
L 125.774402 215.487003 
L 125.958447 231.5703 
L 126.699129 232.144686 
L 127.109011 240.376459 
L 127.358911 232.839558 
L 127.48359 238.179779 
L 127.606778 234.127876 
L 127.822578 232.605993 
L 128.286784 232.431309 
L 129.349579 239.795451 
L 129.475514 231.839997 
L 129.692215 230.420685 
L 129.976911 227.388178 
L 130.725586 241.430714 
L 130.787538 228.214247 
L 131.036179 222.328358 
L 131.284479 228.968071 
L 131.416085 240.884466 
L 132.038985 227.424001 
L 132.192774 244.987153 
L 132.22369 244.552636 
L 132.285642 240.820374 
L 132.378394 227.335819 
L 132.751668 240.601616 
L 132.844695 233.456905 
L 133.005173 236.966349 
L 133.595662 241.641544 
L 133.907081 227.845229 
L 134.280854 236.866984 
L 134.40906 238.829993 
L 134.782868 241.953141 
L 135.592653 244.336995 
L 135.871285 231.290757 
L 136.966677 237.678289 
L 136.998934 217.207938 
L 137.062295 230.391986 
L 138.433947 239.317124 
L 138.68414 228.760949 
L 138.902011 226.114294 
L 138.969134 234.463819 
L 139.032015 224.397756 
L 139.185996 230.712269 
L 139.957599 227.173167 
L 139.9897 230.857164 
L 140.359467 242.603967 
L 140.519069 235.879639 
L 140.951836 237.508592 
L 141.137892 236.59486 
L 141.415313 236.343321 
L 141.879251 246.253134 
L 142.007672 222.732777 
L 142.069342 237.230047 
L 142.84127 239.523529 
L 143.527438 229.153828 
L 143.712357 240.020994 
L 144.2368 244.124064 
L 144.421578 248.415319 
L 144.885762 241.617866 
L 145.234755 241.621182 
L 145.945252 242.965381 
L 146.162085 237.423963 
L 146.316299 225.118914 
L 146.725629 236.894245 
L 146.942175 227.888476 
L 147.7811 248.811497 
L 147.874885 239.351659 
L 148.319556 233.618867 
L 149.40748 234.822854 
L 149.469147 226.544413 
L 150.499627 234.674745 
L 151.992994 229.2637 
L 152.271259 243.838417 
L 152.550849 241.031814 
L 152.742621 247.305218 
L 153.395017 253.174404 
L 153.488635 233.276244 
L 154.95136 250.488095 
L 155.200904 247.8211 
L 155.924667 242.663063 
L 156.331899 246.556816 
L 156.831849 252.853817 
L 156.925287 242.647266 
L 157.185014 249.849772 
L 157.27862 242.059297 
L 158.030781 246.542198 
L 158.21859 237.965172 
L 159.099957 233.89961 
L 159.822827 231.198705 
L 160.302041 241.819579 
L 160.869872 239.925824 
L 162.134094 231.672274 
L 162.165191 226.495616 
L 163.226765 236.202433 
L 163.539875 230.144142 
L 163.663956 241.608134 
L 163.725933 229.355524 
L 163.756908 244.568181 
L 164.536866 245.653071 
L 165.570359 239.872656 
L 165.818788 243.833197 
L 166.25627 245.921879 
L 166.289732 247.380704 
L 166.820699 241.186485 
L 167.726586 250.696035 
L 167.795623 249.20742 
L 168.107642 246.247611 
L 168.637027 245.376334 
L 168.791879 246.700567 
L 169.480322 225.265322 
L 169.727949 242.181719 
L 170.068782 245.295878 
L 170.130625 236.02197 
L 170.347122 246.699402 
L 170.533262 243.058955 
L 170.749758 241.752383 
L 170.941356 247.278625 
L 171.034878 235.168653 
L 171.56157 250.855314 
L 172.024893 244.486618 
L 172.807022 243.895024 
L 172.992928 240.694275 
L 173.116594 244.121395 
L 173.612261 219.426004 
L 174.144071 235.604529 
L 174.762086 236.558847 
L 175.318389 253.318643 
L 175.386914 239.868364 
L 175.449249 240.550581 
L 175.542444 241.00527 
L 175.634889 244.709804 
L 176.160818 240.700185 
L 176.501274 248.373876 
L 176.936405 230.942382 
L 177.932745 235.134171 
L 178.816347 237.150682 
L 179.065144 242.962189 
L 179.158877 236.40232 
L 179.719286 252.720467 
L 180.131169 246.685576 
L 180.380161 239.136573 
L 180.784464 244.874093 
L 180.940587 240.273953 
L 181.44444 239.605884 
L 181.600643 246.808346 
L 181.6626 235.569664 
L 182.097806 249.043743 
L 183.001816 245.591482 
L 183.157306 218.329839 
L 183.373181 243.515689 
L 184.989432 238.996907 
L 185.331906 241.305002 
L 185.676014 241.941716 
L 186.054591 245.439093 
L 186.735464 257.91402 
L 187.07725 254.333751 
L 187.232116 250.744818 
L 187.514212 248.829554 
L 187.545497 244.265106 
L 187.925831 249.513679 
L 188.267661 250.286967 
L 188.36039 247.64303 
L 190.133005 237.933935 
L 190.287712 249.13751 
L 190.318652 246.687827 
L 190.637817 249.459086 
L 192.92935 242.274827 
L 193.274128 246.968373 
L 193.367454 240.965339 
L 193.430154 247.027025 
L 193.524455 238.727224 
L 193.555514 242.007844 
L 194.34097 245.454978 
L 194.496957 233.306777 
L 194.591412 247.125942 
L 194.841233 239.097249 
L 195.470761 245.480603 
L 195.56463 248.134589 
L 195.595605 247.567878 
L 196.062538 240.24784 
L 196.563629 258.548561 
L 197.165282 244.225237 
L 197.510759 256.380127 
L 197.635713 253.556839 
L 198.793225 248.920186 
L 199.07437 248.94761 
L 199.542066 246.839864 
L 199.766028 239.30306 
L 199.951891 248.08833 
L 200.076907 239.807382 
L 200.107872 245.686225 
L 200.697527 241.802965 
L 200.790301 253.807036 
L 202.102317 249.28803 
L 202.632064 256.834487 
L 203.170568 256.309927 
L 203.201885 239.497992 
L 203.793384 236.544339 
L 203.824429 235.742875 
L 203.917618 247.438806 
L 204.205205 247.680375 
L 204.548636 253.806957 
L 205.326905 258.732868 
L 205.420216 246.369079 
L 205.771535 247.574501 
L 205.989384 257.904992 
L 207.781943 243.560743 
L 208.032954 258.31106 
L 208.376301 249.172622 
L 208.407501 256.261975 
L 208.443927 252.489056 
L 208.760389 255.701372 
L 209.574191 253.663404 
L 209.730419 264.490824 
L 210.231797 265.05432 
L 210.70484 259.19206 
L 210.735804 242.221395 
L 211.173804 260.355695 
L 211.267012 248.694418 
L 211.548361 261.869499 
L 211.672595 250.216472 
L 211.89624 253.721022 
L 211.927221 267.27046 
L 212.114497 272.982544 
L 212.300141 252.404366 
L 212.362106 264.767143 
L 212.455374 264.283886 
L 213.549998 248.834453 
L 213.921444 259.552608 
L 214.512726 260.98725 
L 215.23649 271.4555 
L 215.86309 272.399484 
L 216.614262 266.77686 
L 217.112329 259.720727 
L 217.36068 253.414385 
L 217.734711 252.102008 
L 217.82781 266.025539 
L 219.394373 265.76323 
L 219.487699 257.4877 
L 219.707245 261.6579 
L 220.113787 259.303621 
L 220.17606 255.865242 
L 220.207216 257.217678 
L 220.426155 253.620337 
L 220.994668 254.332229 
L 221.866134 260.317945 
L 222.494613 252.718281 
L 222.557949 265.6946 
L 222.746144 257.841001 
L 223.56054 255.197261 
L 223.718372 266.16944 
L 224.259984 262.722191 
L 224.824673 249.101872 
L 225.075761 262.526336 
L 226.047015 252.502249 
L 226.88542 261.009929 
L 227.611283 261.291006 
L 228.525988 259.428211 
L 228.870595 261.873343 
L 229.372028 254.526145 
L 229.812778 260.500431 
L 229.843977 243.304961 
L 230.475074 246.864465 
L 231.735968 241.097291 
L 232.425208 265.47056 
L 232.582416 264.687989 
L 233.748104 268.608746 
L 233.966705 266.112806 
L 234.28096 253.409482 
L 234.468898 270.060647 
L 234.723513 274.429301 
L 234.78625 259.091015 
L 235.538936 255.73369 
L 235.789521 267.42028 
L 236.328978 249.604131 
L 236.549183 265.465182 
L 236.925474 269.698537 
L 236.988009 273.032189 
L 237.176735 262.417995 
L 237.553032 265.897615 
L 237.717308 252.172929 
L 239.221187 269.75877 
L 239.283076 258.639791 
L 239.406699 270.654646 
L 239.872847 267.764931 
L 241.157558 265.077931 
L 241.251037 268.117563 
L 241.815735 272.759918 
L 242.385976 272.045996 
L 242.914485 268.178005 
L 243.007683 272.99639 
L 243.163685 273.263116 
L 243.318706 248.077811 
L 243.886479 247.00574 
L 243.917702 268.230117 
L 244.447558 261.336412 
L 244.542394 257.511791 
L 244.761401 255.583663 
L 245.60868 268.434381 
L 245.670673 260.183148 
L 245.887257 267.048931 
L 246.446432 264.155712 
L 246.731023 259.760755 
L 247.010041 269.750736 
L 247.321789 254.129747 
L 247.818758 265.00281 
L 248.415728 259.993106 
L 248.572653 247.415076 
L 248.635042 262.943826 
L 248.759148 257.893553 
L 249.040529 260.555583 
L 249.601976 244.796711 
L 250.229398 260.680864 
L 250.384984 259.794116 
L 250.667627 248.558481 
L 251.01053 268.555545 
L 251.105506 255.525838 
L 251.797693 244.601916 
L 252.35766 269.938044 
L 252.481617 267.382232 
L 252.637875 270.978563 
L 253.145931 267.598338 
L 253.208774 271.831181 
L 253.712034 263.093021 
L 253.774645 270.920751 
L 253.962517 270.974053 
L 254.088748 259.74031 
L 254.592754 264.707264 
L 255.308329 265.977881 
L 255.590108 258.357174 
L 255.682988 272.115865 
L 256.187327 259.000018 
L 256.592648 268.625119 
L 256.778643 273.378953 
L 257.182982 263.402253 
L 257.342829 266.159796 
L 257.746884 254.988257 
L 259.677425 269.107357 
L 259.803079 271.464933 
L 259.834508 275.091488 
L 260.053162 271.375293 
L 260.585119 260.136906 
L 260.926078 262.106692 
L 261.267919 270.713192 
L 261.485385 260.701766 
L 261.672431 260.57232 
L 262.424053 257.162778 
L 264.152049 267.139576 
L 264.276363 251.878557 
L 264.684177 262.678008 
L 265.156274 272.028142 
L 265.404761 266.239116 
L 265.435973 259.254498 
L 265.560934 258.960997 
L 265.870695 258.791423 
L 266.182197 244.380466 
L 266.244074 263.115414 
L 266.499406 245.213198 
L 267.121776 246.518811 
L 267.868658 268.693327 
L 268.094193 262.737311 
L 268.187184 267.724617 
L 268.501869 264.129312 
L 268.782077 278.9066 
L 268.874876 274.316822 
L 269.186056 269.853716 
L 269.341441 261.630437 
L 270.464402 275.395093 
L 270.744203 264.963425 
L 270.806167 271.473014 
L 270.930307 261.386731 
L 271.127627 269.628913 
L 271.220464 262.053938 
L 271.438097 269.800372 
L 271.687931 251.537737 
L 271.781064 267.108793 
L 272.029411 264.769909 
L 272.155068 265.092813 
L 272.998323 261.022053 
L 273.123321 271.050975 
L 273.465068 268.300977 
L 273.807726 273.275291 
L 274.184013 271.407036 
L 275.458813 261.588844 
L 275.932949 259.279284 
L 276.367433 266.099191 
L 276.616866 264.278675 
L 277.057491 269.523367 
L 277.088451 263.454673 
L 277.896415 265.586057 
L 278.331986 271.754573 
L 279.113399 265.621911 
L 280.014535 262.723867 
L 280.114812 270.988799 
L 280.860132 254.614732 
L 280.922349 263.531738 
L 281.482931 255.460537 
L 281.615588 270.180642 
L 282.616579 253.774955 
L 283.022189 270.712101 
L 283.212541 259.712561 
L 284.022085 262.897114 
L 284.488781 268.381679 
L 284.748279 258.058123 
L 284.779435 264.100121 
L 285.595422 271.302061 
L 286.033236 277.002693 
L 286.414841 279.39082 
L 286.445974 276.72122 
L 286.664447 270.174305 
L 287.100937 270.239502 
L 287.287282 267.445035 
L 287.568337 270.543452 
L 287.858012 267.811863 
L 287.920612 265.689798 
L 287.951858 274.437925 
L 288.546709 270.189518 
L 288.641711 266.138651 
L 288.924345 275.122947 
L 290.09511 265.072478 
L 290.597103 253.384472 
L 290.942694 264.416538 
L 291.818069 271.301091 
L 291.849147 265.018483 
L 292.035557 268.022454 
L 292.257471 266.445157 
L 292.381447 274.26538 
L 292.412869 266.339643 
L 292.44456 273.19343 
L 293.12949 258.193998 
L 293.160956 267.503168 
L 293.285784 265.159904 
L 293.347958 271.22 
L 293.62828 274.432813 
L 293.758388 267.085076 
L 294.699553 265.539063 
L 294.981122 263.313811 
L 295.075884 268.879386 
L 295.297548 266.45842 
L 295.610551 266.201371 
L 295.64166 272.440154 
L 295.703925 262.389648 
L 295.859926 272.116326 
L 296.173091 256.095004 
L 296.747783 273.428943 
L 296.939891 264.857133 
L 296.971149 276.28975 
L 297.221955 268.659445 
L 297.813623 264.063039 
L 298.348472 278.707482 
L 299.893797 252.679929 
L 300.301377 258.886725 
L 300.394938 272.999231 
L 301.371217 264.890718 
L 301.402683 272.756987 
L 301.937266 266.868464 
L 302.250787 264.840408 
L 302.344586 267.958701 
L 302.407062 253.309998 
L 302.752371 278.370646 
L 302.94231 274.580363 
L 303.160567 262.609813 
L 303.722652 262.86275 
L 303.878024 271.706098 
L 304.033652 258.072433 
L 304.474007 269.575451 
L 304.598821 276.082103 
L 304.940675 247.589686 
L 305.033532 260.354842 
L 305.655863 262.828826 
L 305.909366 269.642282 
L 306.223632 255.52911 
L 306.599545 253.979755 
L 307.318087 266.586032 
L 307.481131 261.234285 
L 308.008768 275.595156 
L 309.385668 272.690322 
L 309.417032 266.408612 
L 309.542211 270.956401 
L 310.419013 268.962502 
L 311.76592 278.135025 
L 312.017788 270.316598 
L 312.266609 274.968826 
L 312.297517 261.646906 
L 313.230377 264.858382 
L 313.354075 270.107924 
L 313.701724 275.081466 
L 314.077551 269.677448 
L 314.170783 244.890298 
L 314.233299 274.044269 
L 314.608909 278.103005 
L 316.48701 277.251487 
L 316.708213 269.172043 
L 317.240943 263.61799 
L 317.459476 270.223312 
L 318.183178 264.932254 
L 318.308606 276.446169 
L 318.747575 277.725405 
L 319.279259 278.509769 
L 319.465372 259.833083 
L 320.505794 277.438507 
L 320.786345 273.293941 
L 321.289575 277.121534 
L 321.633331 257.610466 
L 321.913643 274.493162 
L 322.164767 273.752569 
L 322.796451 269.053959 
L 322.859197 271.295566 
L 322.952404 269.750692 
L 323.014952 270.303405 
L 323.203016 269.759285 
L 323.577227 272.156558 
L 323.827265 262.05381 
L 323.92033 271.063443 
L 324.083443 274.494833 
L 324.300115 264.804941 
L 324.362035 281.346212 
L 325.952846 274.297846 
L 326.296745 259.489409 
L 326.545201 262.700937 
L 327.045356 266.200962 
L 327.174806 272.162983 
L 327.205833 270.717029 
L 327.268908 261.647658 
L 327.829572 270.547703 
L 328.110432 257.891359 
L 328.141544 268.767854 
L 328.297468 261.067217 
L 328.452638 274.973652 
L 328.930259 262.896023 
L 329.892479 269.71535 
L 330.2719 275.945933 
L 330.489124 260.837197 
L 330.644309 266.15746 
L 331.077434 261.037353 
L 331.35716 267.750629 
L 332.170411 277.541763 
L 332.387406 268.332711 
L 332.418258 268.85287 
L 332.697195 273.337384 
L 333.87956 275.688286 
L 333.972241 266.980354 
L 334.034438 271.627841 
L 334.128031 263.58072 
L 334.159428 270.233829 
L 334.283388 278.201617 
L 335.282261 284.853988 
L 335.716507 266.534926 
L 336.741378 274.086049 
L 336.865156 264.701266 
L 337.422105 274.987435 
L 337.577293 266.036595 
L 338.049516 276.052966 
L 338.143128 282.465474 
L 338.235361 278.46292 
L 338.885286 270.431184 
L 339.234862 276.999529 
L 339.66925 280.998281 
L 340.071673 269.471133 
L 340.196446 268.447697 
L 340.722683 261.716275 
L 340.88359 277.514798 
L 341.603135 264.927192 
L 341.759122 258.643269 
L 342.102477 266.952776 
L 342.354831 270.283165 
L 342.478384 279.120751 
L 343.004802 283.006015 
L 343.912295 273.90026 
L 344.0679 274.43389 
L 344.168341 273.799672 
L 344.639997 276.345944 
L 344.671025 279.671596 
L 345.521234 269.897159 
L 345.775517 261.34552 
L 346.086634 274.419833 
L 346.430169 274.87585 
L 347.097287 274.718101 
L 347.632838 273.118733 
L 347.664048 276.352186 
L 348.669799 283.085481 
L 348.701057 274.346818 
L 348.88855 268.869656 
L 350.524891 278.941555 
L 350.587574 270.336674 
L 350.904459 271.590434 
L 351.124891 279.426186 
L 351.972508 256.869017 
L 352.633984 271.332609 
L 352.95505 274.310117 
L 353.457234 282.615134 
L 353.519826 279.236089 
L 353.582552 256.988163 
L 353.741286 280.604966 
L 354.756392 274.019899 
L 354.911672 270.370252 
L 355.255111 275.359034 
L 355.286117 282.542179 
L 355.414396 280.876487 
L 356.756092 278.106634 
L 356.849384 275.605981 
L 357.479623 282.428681 
L 357.698088 270.689623 
L 358.508707 270.581473 
L 358.731182 271.575278 
L 358.955165 268.224523 
L 360.69048 275.702972 
L 360.72175 278.201144 
L 361.003976 250.923012 
L 361.224431 276.508977 
L 361.318004 263.273709 
L 361.632232 277.55618 
L 362.23288 274.962711 
L 362.327005 277.326221 
L 362.670169 261.212328 
L 363.013334 259.824587 
L 363.325921 257.608271 
L 363.517817 282.968619 
L 364.266732 274.789207 
L 364.422228 271.652862 
L 364.453325 277.126789 
L 364.578727 262.522831 
L 365.180618 261.395407 
L 365.742948 279.993251 
L 366.117741 273.89117 
L 367.370975 263.152931 
L 367.65161 277.204887 
L 367.682606 271.733533 
L 367.930618 286.784912 
L 368.215933 285.63889 
L 369.305831 279.758432 
L 370.185739 268.972828 
L 370.279377 281.37226 
L 370.373052 273.412525 
L 370.655453 282.467062 
L 371.535838 281.806849 
L 372.291372 273.561832 
L 372.608316 272.334898 
L 374.333387 282.701621 
L 374.654811 277.177395 
L 374.748638 280.625646 
L 375.09283 285.248315 
L 375.664951 277.884817 
L 375.820382 279.554855 
L 376.796033 266.502212 
L 376.95282 282.959248 
L 376.984669 269.341433 
L 377.047335 281.53042 
L 377.428912 265.749426 
L 377.491917 281.075678 
L 377.872566 274.002592 
L 378.185784 284.766771 
L 378.591866 281.486767 
L 378.753733 286.79042 
L 378.784829 275.936911 
L 379.257322 279.333634 
L 379.444464 278.400414 
L 379.758409 274.114618 
L 380.5146 280.765864 
L 381.052403 279.47852 
L 381.30406 286.289047 
L 381.749285 285.810364 
L 382.719915 272.482145 
L 383.03078 290.133563 
L 383.288413 282.028948 
L 383.788005 279.52229 
L 383.913368 275.255148 
L 384.069117 275.85925 
L 384.135843 284.452194 
L 384.198414 276.765847 
L 384.292955 281.90587 
L 385.391189 283.761998 
L 385.609288 271.627995 
L 385.83306 284.328149 
L 386.113849 279.382833 
L 386.75459 288.479201 
L 387.636291 261.175836 
L 387.699208 288.81166 
L 387.730645 282.614991 
L 387.796582 279.640289 
L 387.986308 279.731871 
L 388.110717 282.291194 
L 388.267719 288.987251 
L 388.454243 270.422055 
L 388.612623 292.686814 
L 388.863663 288.264719 
L 389.532759 290.510457 
L 389.970637 288.394173 
L 390.315333 286.095448 
L 390.628996 287.264869 
L 390.754422 273.661119 
L 390.785644 283.516346 
L 391.67395 270.683925 
L 391.956269 276.6336 
L 392.207503 278.865455 
L 392.690348 267.808934 
L 392.721566 273.873489 
L 393.097503 284.578607 
L 394.08066 285.597169 
L 394.368189 277.831739 
L 394.587084 285.977344 
L 394.77568 276.629959 
L 394.869049 259.29154 
L 394.900126 269.509134 
L 395.055647 285.285367 
L 395.33773 278.048729 
L 395.593662 278.172966 
L 395.818239 283.76949 
L 395.912314 279.584489 
L 396.226256 277.7838 
L 396.319897 286.017961 
L 396.38241 270.012483 
L 397.172429 286.908614 
L 397.646764 271.1356 
L 398.812653 287.981776 
L 399.004077 276.278971 
L 399.066731 282.10691 
L 399.098449 280.087104 
L 399.130603 272.17088 
L 399.318546 285.209512 
L 399.822966 275.781378 
L 400.018828 281.114714 
L 400.049859 287.92309 
L 400.92642 269.254104 
L 400.957452 285.111133 
L 401.237606 286.628887 
L 401.393146 279.441107 
L 401.743056 272.857203 
L 402.0243 281.948991 
L 402.466717 286.255889 
L 402.813011 285.177978 
L 403.759586 275.858514 
L 404.038783 279.995034 
L 404.826823 283.24769 
L 404.951819 275.761404 
L 405.234765 284.064547 
L 405.677465 282.736431 
L 405.865157 281.531783 
L 405.927502 274.980706 
L 406.99681 268.056286 
L 407.276284 277.238457 
L 407.369086 261.876812 
L 407.431003 266.111834 
L 407.461986 274.044959 
L 407.776059 280.111129 
L 407.930533 272.096 
L 408.366296 284.142696 
L 408.650363 271.80919 
L 409.153985 282.012801 
L 409.93297 281.635314 
L 410.54139 280.263453 
L 410.824395 270.108685 
L 411.389417 286.969265 
L 411.953883 285.32541 
L 412.243541 279.766977 
L 412.960652 276.707171 
L 413.053833 267.366158 
L 414.657559 272.251256 
L 414.72 284.027055 
L 414.72 284.027055 
" style="fill:none;stroke:#000000;stroke-linecap:square;stroke-width:0.8;"/>
   </g>
   <g id="line2d_30">
    <path clip-path="url(#p1fef5511f6)" d="M 57.6 99.871619 
L 58.073194 72.037161 
L 58.28827 190.576764 
L 58.869263 201.968186 
L 59.049603 238.54523 
L 59.445062 273.13756 
L 59.983736 265.090192 
L 60.092131 270.500637 
L 60.817947 265.596994 
L 61.213809 266.982672 
L 61.249448 270.373929 
L 61.502251 268.325745 
L 61.976895 272.915209 
L 62.445736 271.008208 
L 62.843822 268.693874 
L 63.026344 258.596439 
L 63.134312 269.298575 
L 63.464964 269.505062 
L 63.863822 257.371241 
L 64.047252 257.113744 
L 64.119633 256.027103 
L 64.15559 277.493832 
L 64.300599 263.924284 
L 64.592574 256.96771 
L 64.889963 274.068515 
L 65.108945 248.715659 
L 65.506179 247.102282 
L 65.7217 249.196083 
L 65.901332 237.74122 
L 66.447179 210.709198 
L 66.66415 191.23339 
L 66.845054 206.678549 
L 67.098362 186.482367 
L 67.315519 219.737738 
L 68.006463 245.453069 
L 68.184526 244.223434 
L 68.220253 250.517819 
L 68.399765 255.594126 
L 68.651455 248.402742 
L 68.938304 254.039792 
L 68.974007 264.370811 
L 69.69845 254.201557 
L 69.986142 260.135002 
L 70.567124 255.509519 
L 70.711597 250.608838 
L 71.07879 262.918411 
L 72.66713 239.490287 
L 72.70276 246.687986 
L 72.990743 253.09474 
L 73.316027 248.190576 
L 73.387395 245.23578 
L 73.531923 254.711168 
L 73.746824 240.046875 
L 74.077552 244.078909 
L 74.185688 247.257296 
L 74.221337 240.687331 
L 74.582172 249.007207 
L 75.193921 248.430003 
L 75.26552 250.089665 
L 75.957373 243.782492 
L 76.030835 252.058207 
L 76.137867 243.408826 
L 76.424823 247.542323 
L 76.641146 223.046983 
L 76.820775 233.865752 
L 77.04347 230.050163 
L 77.223498 231.651385 
L 77.584879 246.929207 
L 78.018133 234.639326 
L 78.162987 222.866977 
L 78.380506 243.503121 
L 78.452169 241.540445 
L 78.638122 230.679744 
L 78.673884 240.564719 
L 78.854186 233.10714 
L 78.890619 243.31191 
L 79.215019 236.827866 
L 79.68405 239.970228 
L 79.864337 236.589248 
L 79.935872 236.972963 
L 80.376583 216.226376 
L 80.665328 242.306943 
L 80.736894 227.541147 
L 80.845504 239.915934 
L 80.917175 232.140437 
L 81.351265 237.843563 
L 81.458108 234.449993 
L 81.608451 237.13135 
L 81.714492 235.321806 
L 81.821195 238.745536 
L 81.962967 236.192094 
L 81.998278 239.299063 
L 82.142051 240.898534 
L 82.320279 246.580863 
L 82.959777 234.698141 
L 83.250913 238.359054 
L 83.393888 233.559837 
L 83.536499 247.831303 
L 83.572587 245.576719 
L 83.8218 228.862262 
L 84.14361 244.016743 
L 84.427431 223.903545 
L 84.57218 235.715214 
L 84.616221 228.389019 
L 84.759215 239.700219 
L 85.081245 234.978374 
L 85.222692 245.229346 
L 85.36509 226.374794 
L 85.400557 236.121546 
L 85.614851 228.813439 
L 85.756182 232.632305 
L 85.791464 240.872842 
L 85.863216 238.765321 
L 86.041334 234.141245 
L 86.076669 227.964907 
L 86.11489 244.28246 
L 86.257634 231.557116 
L 86.398941 240.368112 
L 86.575475 233.777847 
L 86.646848 242.765643 
L 87.468409 221.665637 
L 87.690107 245.996561 
L 87.86998 243.147291 
L 88.790691 241.742558 
L 88.967325 228.089115 
L 89.038698 234.878934 
L 89.255949 233.715594 
L 89.539038 215.241296 
L 89.750325 228.630944 
L 89.892347 226.772054 
L 90.13934 246.26883 
L 90.42096 205.836077 
L 90.491117 235.66932 
L 90.708894 230.874579 
L 90.992928 229.125833 
L 91.029338 240.972419 
L 91.135752 235.129016 
L 91.388593 230.486712 
L 91.494667 234.849891 
L 91.815032 235.541453 
L 91.957558 245.311134 
L 92.100911 228.852491 
L 92.425276 228.390849 
L 92.460643 232.743416 
L 92.603253 225.533184 
L 92.675479 239.026745 
L 92.710808 234.292648 
L 92.888 240.930307 
L 93.030763 226.268511 
L 93.314517 236.332089 
L 93.456677 235.669953 
L 93.528947 232.196204 
L 93.635687 233.880467 
L 94.346751 238.996366 
L 94.771263 235.873416 
L 95.019666 228.386495 
L 95.484892 242.303641 
L 95.69732 244.425569 
L 95.80331 243.952502 
L 95.873646 247.775193 
L 96.227813 237.643337 
L 96.404106 247.001294 
L 96.43917 245.901456 
L 96.765193 236.068018 
L 96.983784 247.316964 
L 97.135617 229.46368 
L 97.174048 241.206055 
L 97.541654 243.67806 
L 97.720093 242.559819 
L 98.219116 232.793273 
L 99.005882 230.874649 
L 99.042657 240.742341 
L 99.185648 223.987136 
L 99.221083 230.607244 
L 99.256549 235.722123 
L 99.906405 230.249844 
L 100.371934 240.110883 
L 100.586693 247.976655 
L 100.657558 240.366247 
L 101.768976 231.514116 
L 101.839946 243.815642 
L 102.19723 241.244073 
L 102.589262 243.480284 
L 102.697031 238.828801 
L 102.809154 227.847164 
L 103.525411 224.288738 
L 103.738336 241.493887 
L 104.200657 226.544659 
L 104.564987 236.955003 
L 104.743715 233.816696 
L 104.779256 229.094706 
L 104.885885 236.221673 
L 105.1717 237.819991 
L 105.279178 221.821482 
L 105.38559 223.896421 
L 105.492661 232.77668 
L 105.529085 229.707338 
L 106.172761 226.323069 
L 106.703001 226.030931 
L 107.338423 235.906632 
L 107.379211 235.26786 
L 107.486826 223.154972 
L 108.271895 240.769726 
L 108.557318 236.801753 
L 108.770308 242.405614 
L 108.917713 233.99124 
L 109.060976 235.107653 
L 109.202887 211.62424 
L 110.093558 235.016959 
L 110.129479 232.264544 
L 110.525317 237.889576 
L 110.808823 237.804023 
L 110.844178 233.032383 
L 110.95046 235.30681 
L 111.023005 229.969686 
L 111.379266 224.559468 
L 111.629266 237.059734 
L 112.1737 223.318671 
L 112.316667 231.379819 
L 113.173617 223.27955 
L 113.209088 224.086559 
L 113.280615 219.71246 
L 113.536978 213.437984 
L 113.786651 238.700121 
L 113.822163 237.788675 
L 114.145837 228.177385 
L 114.358509 227.48162 
L 114.501221 216.72042 
L 114.822488 214.786479 
L 115.115406 232.32806 
L 115.293201 202.517993 
L 115.580087 235.188108 
L 115.902125 233.84284 
L 115.93775 242.204917 
L 116.081711 225.288946 
L 116.261322 240.845392 
L 116.369585 229.435148 
L 116.440815 230.98175 
L 116.55752 231.192689 
L 116.664892 233.355433 
L 117.090557 205.468712 
L 117.373318 234.000704 
L 117.515237 224.753555 
L 117.622395 233.552273 
L 117.869326 233.456135 
L 118.334893 216.539245 
L 118.475504 235.052211 
L 118.583303 230.792254 
L 118.830995 231.311409 
L 119.149854 234.168445 
L 119.50971 248.248735 
L 119.653664 242.946999 
L 119.7248 227.4319 
L 119.831929 243.455608 
L 120.009372 242.560716 
L 120.117564 221.114898 
L 120.152876 241.247789 
L 120.188209 230.165541 
L 120.365583 228.849351 
L 120.863154 241.307593 
L 121.187617 245.397232 
L 121.399354 227.126701 
L 121.647043 227.793231 
L 121.6822 240.708017 
L 122.247234 233.515543 
L 122.677468 237.672577 
L 122.994225 243.96427 
L 123.136295 233.096717 
L 123.488597 228.390611 
L 123.631097 239.913234 
L 123.807262 246.246626 
L 123.94762 258.141969 
L 124.412695 246.371027 
L 124.517942 249.401165 
L 124.73124 245.143578 
L 124.766321 257.563248 
L 124.801419 252.242395 
L 126.010255 231.937269 
L 126.473482 252.49268 
L 126.687795 236.728356 
L 126.831311 252.037001 
L 126.902205 250.306554 
L 126.973405 246.125237 
L 127.194475 244.058921 
L 127.372201 247.796126 
L 127.477735 234.625627 
L 127.584553 247.91836 
L 128.008637 251.633607 
L 128.08048 247.722852 
L 128.50295 215.77805 
L 128.57361 239.126388 
L 129.213786 230.678776 
L 129.35479 238.324471 
L 129.495653 238.233826 
L 129.638101 230.819625 
L 129.778654 236.147906 
L 130.061144 233.392219 
L 130.139789 242.099966 
L 130.245204 224.951538 
L 130.4574 247.241064 
L 130.634689 235.833903 
L 131.305363 226.253348 
L 131.734658 233.752701 
L 131.770144 223.323931 
L 131.911711 251.061988 
L 132.053441 233.540513 
L 132.335968 252.510552 
L 132.513068 240.753094 
L 132.584469 244.9798 
L 133.117841 234.662867 
L 133.266361 243.230253 
L 133.517065 242.541062 
L 133.553805 253.462267 
L 134.093181 248.79337 
L 134.201382 232.925366 
L 134.308993 250.063996 
L 134.345642 246.399977 
L 134.489976 240.101542 
L 134.563048 223.612463 
L 134.748242 240.362769 
L 135.036792 240.052319 
L 135.07326 241.73108 
L 135.217498 242.189939 
L 135.289373 233.36472 
L 135.361116 242.743967 
L 135.505264 241.628724 
L 135.86657 247.267732 
L 135.938753 244.551193 
L 136.010501 235.99371 
L 136.047596 236.266093 
L 136.195874 244.090972 
L 136.303008 237.857679 
L 136.590241 237.709012 
L 136.7334 231.665114 
L 137.235074 244.266083 
L 137.449514 226.617423 
L 137.743707 251.313904 
L 137.850919 248.942324 
L 137.923142 244.680102 
L 137.995189 253.133105 
L 138.031809 251.850865 
L 138.283654 239.280685 
L 138.392226 258.907944 
L 138.57182 243.508169 
L 139.622115 255.471237 
L 139.837305 267.330418 
L 139.945994 233.812941 
L 140.233677 261.946577 
L 140.62957 260.802314 
L 140.666232 250.90357 
L 140.743779 255.083142 
L 141.175855 252.149657 
L 141.21311 259.604329 
L 141.572878 258.702159 
L 141.896056 262.459791 
L 142.516022 245.355502 
L 143.02104 260.231153 
L 143.203416 233.669946 
L 143.275253 238.988846 
L 143.564377 235.285451 
L 143.784848 253.851057 
L 144.145935 236.821943 
L 144.47034 260.443204 
L 144.86694 256.953329 
L 145.153328 264.848183 
L 145.370351 245.97638 
L 145.406151 251.082107 
L 145.550951 262.291619 
L 145.728684 241.858103 
L 146.620456 255.473532 
L 146.656083 252.509655 
L 147.017536 264.422369 
L 147.231579 253.094371 
L 147.267008 262.63535 
L 147.659204 260.333148 
L 148.16019 263.178072 
L 148.232326 230.213133 
L 148.380335 261.209152 
L 148.844663 259.885798 
L 148.988716 253.84103 
L 149.168442 257.973072 
L 149.490519 266.262279 
L 149.526014 256.33626 
L 149.888036 259.959895 
L 149.961364 264.558922 
L 150.391368 240.323383 
L 150.463505 260.182334 
L 150.606926 261.805108 
L 150.75061 246.996465 
L 150.965407 270.310826 
L 151.580727 261.811656 
L 151.797022 272.593015 
L 151.833004 254.38366 
L 152.123223 270.82736 
L 152.340075 272.81461 
L 152.557632 253.854338 
L 152.738477 274.165891 
L 153.424847 267.746962 
L 153.569114 273.649157 
L 153.640286 252.824683 
L 153.819059 268.44198 
L 153.997305 246.459579 
L 154.468138 273.742507 
L 154.722327 261.432801 
L 155.264751 265.306782 
L 155.661629 263.828731 
L 155.697394 272.877184 
L 155.805622 247.005485 
L 156.027679 269.370976 
L 156.280752 268.911375 
L 156.352468 278.270669 
L 156.388327 268.67023 
L 156.424189 267.160316 
L 156.750644 273.558937 
L 157.585274 280.875392 
L 157.620841 262.695972 
L 157.656397 272.895912 
L 157.90606 270.837774 
L 158.307293 280.046769 
L 158.378638 278.256678 
L 158.808667 278.419577 
L 158.844135 270.407325 
L 158.95512 280.887238 
L 159.063509 257.162558 
L 159.134666 259.314285 
L 159.814648 276.271618 
L 160.100967 274.047998 
L 160.207568 279.385841 
L 160.535258 272.894181 
L 160.572573 264.295677 
L 160.860323 270.566879 
L 160.896087 260.124474 
L 161.113981 279.792981 
L 161.43869 271.689046 
L 161.510277 271.374029 
L 161.583771 270.331495 
L 162.200958 275.026352 
L 162.272136 272.572984 
L 162.308427 251.312369 
L 162.343992 255.8669 
L 162.737834 273.325866 
L 163.097036 272.073999 
L 163.383547 255.058141 
L 164.247598 283.348225 
L 164.2832 267.980144 
L 164.39103 277.253488 
L 164.964401 283.648344 
L 165.11487 275.951228 
L 165.366752 285.580238 
L 165.43845 278.786622 
L 165.510602 282.505447 
L 165.583598 262.94252 
L 165.727121 280.265962 
L 165.763045 275.760514 
L 166.16111 287.555533 
L 166.269099 267.901166 
L 166.561933 285.78774 
L 166.668584 273.526763 
L 166.704093 273.81066 
L 166.989607 273.481911 
L 167.670233 286.42151 
L 167.741218 265.810976 
L 168.141533 274.392686 
L 168.284281 272.830619 
L 168.753384 273.263182 
L 169.583723 281.63649 
L 170.123831 278.251311 
L 170.1596 289.083602 
L 170.376461 271.62931 
L 170.483432 284.227484 
L 170.592588 263.103822 
L 170.914508 286.498852 
L 170.985611 281.833145 
L 171.567604 291.889002 
L 171.961971 281.429953 
L 172.213768 284.021325 
L 172.249585 286.38896 
L 172.500283 285.695321 
L 172.615144 283.304813 
L 173.474645 276.558184 
L 173.582362 284.377961 
L 173.83321 272.744315 
L 173.940808 283.687482 
L 173.976429 275.307744 
L 174.047619 284.909104 
L 174.083885 282.046472 
L 174.339353 276.680913 
L 174.805099 284.854245 
L 174.984208 278.747056 
L 175.306585 279.011032 
L 175.37876 276.794705 
L 175.449931 289.865359 
L 175.706612 283.289826 
L 176.173257 279.64424 
L 176.24446 276.400473 
L 176.459427 276.234746 
L 176.747517 288.710678 
L 176.964525 286.537347 
L 177.000351 291.942027 
L 177.187046 283.280747 
L 177.365738 290.099333 
L 177.62073 290.301089 
L 177.907537 286.891952 
L 178.049692 280.74441 
L 178.193393 280.23796 
L 178.665947 289.307203 
L 178.737082 276.948967 
L 178.808196 283.015571 
L 178.915485 273.013349 
L 179.094163 286.845919 
L 179.703132 287.468722 
L 179.881523 289.22838 
L 180.529183 281.676792 
L 180.672568 274.763443 
L 180.957803 283.929174 
L 181.208935 284.028315 
L 181.423043 276.052651 
L 181.67265 285.837839 
L 181.890392 286.687708 
L 182.141515 272.255821 
L 182.35537 286.574111 
L 182.463363 270.989032 
L 182.681318 284.04856 
L 183.077817 283.697539 
L 183.150345 275.731913 
L 183.518499 282.879659 
L 183.62833 270.816513 
L 183.88126 287.604699 
L 184.46248 282.167864 
L 184.534965 283.728519 
L 184.899155 281.43016 
L 184.972337 280.694734 
L 185.479412 287.761403 
L 185.915145 280.022313 
L 186.096244 273.219156 
L 186.539008 285.7431 
L 186.576052 279.054817 
L 186.792666 286.410016 
L 186.828685 274.117319 
L 187.334583 288.338364 
L 187.478041 283.249037 
L 187.549392 276.066638 
L 187.841036 291.362921 
L 188.165765 291.155741 
L 188.380548 275.505993 
L 188.452783 283.142974 
L 188.848432 287.264167 
L 188.884138 286.295395 
L 189.099865 286.83715 
L 189.355957 278.5566 
L 190.225974 291.156018 
L 190.440431 282.606829 
L 190.511617 283.939961 
L 191.27532 273.907787 
L 191.382266 289.13187 
L 191.525741 277.589495 
L 191.561361 277.906959 
L 191.598146 286.949579 
L 191.812907 287.14453 
L 191.919774 278.593509 
L 191.992244 285.047182 
L 192.321421 270.054677 
L 192.756861 285.964428 
L 193.193048 281.910197 
L 193.337032 267.741531 
L 193.806787 276.125314 
L 193.88254 279.527258 
L 193.990928 290.747444 
L 194.423408 257.409369 
L 194.569463 279.143292 
L 194.751167 278.910848 
L 194.822828 280.991095 
L 195.183393 281.695333 
L 195.255784 282.130092 
L 195.329922 279.401798 
L 195.800508 279.579929 
L 196.372733 271.653627 
L 196.552059 285.793185 
L 196.80362 290.441999 
L 197.706151 284.955825 
L 197.742509 288.26569 
L 197.77829 287.305758 
L 198.028906 270.920923 
L 198.392851 276.845927 
L 198.681824 290.201419 
L 198.9345 283.255183 
L 199.0796 284.333001 
L 199.474423 280.990308 
L 199.691683 275.241436 
L 199.911488 281.150386 
L 200.018915 278.302625 
L 200.556672 279.024383 
L 200.700511 287.631677 
L 201.095341 269.411008 
L 201.273983 273.772571 
L 201.601811 291.954109 
L 201.637452 281.759502 
L 202.030099 275.081818 
L 202.065687 285.066565 
L 202.459714 273.146463 
L 202.567216 291.137508 
L 202.818747 282.630156 
L 202.890073 287.589857 
L 202.93227 283.450011 
L 202.96792 277.545386 
L 203.003656 288.911059 
L 203.219215 274.191604 
L 204.611705 287.219576 
L 204.789361 283.5681 
L 204.82481 287.63674 
L 204.895571 277.729269 
L 205.179197 290.258377 
L 205.606181 282.139954 
L 207.262695 279.530611 
L 207.773095 280.441451 
L 207.80984 287.397637 
L 208.206791 280.618346 
L 208.242572 277.705396 
L 208.386683 290.468409 
L 208.530463 272.451693 
L 208.603996 287.784792 
L 209.435025 290.324024 
L 209.615909 283.539671 
L 209.723371 275.022014 
L 209.831454 287.72432 
L 210.010674 275.541001 
L 210.844593 285.578695 
L 210.880425 284.404382 
L 211.420802 280.29257 
L 211.997558 280.290367 
L 212.222373 287.363078 
L 212.366475 281.822002 
L 212.692059 284.963558 
L 212.763657 283.094908 
L 213.088281 286.204878 
L 213.447867 280.723679 
L 213.631668 288.699657 
L 213.845592 288.530105 
L 214.167447 280.307984 
L 214.559248 289.47348 
L 214.882457 289.580811 
L 215.425584 285.778866 
L 215.67911 279.208844 
L 215.786907 280.378246 
L 215.895561 285.534661 
L 216.075305 273.889328 
L 216.544824 282.712789 
L 216.803483 276.91366 
L 216.875335 290.408999 
L 217.798868 283.068724 
L 218.158248 282.589973 
L 218.370433 280.785581 
L 218.512855 291.927956 
L 218.619835 289.048933 
L 218.90285 270.598107 
L 218.9739 282.405244 
L 219.438321 288.417304 
L 219.580253 286.269759 
L 219.623791 277.069456 
L 220.303251 282.949201 
L 220.338872 277.789994 
L 220.446246 288.54393 
L 220.768196 285.839827 
L 221.053355 278.933665 
L 221.130157 283.423581 
L 221.16588 278.319778 
L 221.633061 283.097335 
L 221.704531 282.512954 
L 222.062914 293.210904 
L 222.172467 285.284046 
L 222.567943 290.416492 
L 222.679946 288.488644 
L 222.751736 278.463402 
L 222.823595 281.805939 
L 223.256713 282.919605 
L 223.869187 283.206802 
L 224.417292 285.700603 
L 224.886204 292.712919 
L 225.102546 277.260491 
L 225.174743 287.817184 
L 225.318455 286.717977 
L 225.570683 288.65253 
L 225.607459 285.385076 
L 225.643973 291.555944 
L 226.009826 290.296661 
L 226.768146 290.579461 
L 227.128251 292.062365 
L 227.349224 286.628797 
L 227.708522 292.396166 
L 227.887295 283.145426 
L 228.247643 288.257244 
L 228.283283 277.869066 
L 228.678427 291.489736 
L 228.935222 283.685826 
L 228.971116 286.342776 
L 229.152181 286.219524 
L 229.225214 293.338448 
L 229.332907 288.296617 
L 229.404768 276.491166 
L 229.441613 281.720613 
L 229.513389 295.315867 
L 229.622188 292.825357 
L 229.658503 285.833778 
L 229.874721 293.356713 
L 230.092671 273.697353 
L 230.278125 287.799973 
L 230.994485 289.948775 
L 231.065604 292.533079 
L 231.281026 291.345755 
L 231.53067 276.515865 
L 231.969818 278.265717 
L 232.440133 285.453416 
L 232.657015 280.770596 
L 232.729948 280.999528 
L 233.313212 289.155771 
L 233.420237 281.062687 
L 233.492177 287.190813 
L 233.527805 286.233925 
L 234.210203 278.095428 
L 234.557062 275.347213 
L 235.209435 288.081989 
L 235.968227 287.579342 
L 236.28653 282.79426 
L 236.322688 278.183956 
L 236.430766 287.6525 
L 236.503438 286.168399 
L 236.539558 284.561593 
L 237.044827 286.036337 
L 237.333952 288.186761 
L 237.893711 286.841899 
L 238.151692 287.123229 
L 238.47397 273.437275 
L 238.725671 291.023353 
L 239.189896 276.674844 
L 239.337712 289.720556 
L 239.575263 276.733949 
L 240.221426 290.8825 
L 240.788593 289.090684 
L 241.241244 281.852266 
L 241.276497 282.214978 
L 241.491159 284.685904 
L 241.812507 292.000501 
L 241.954668 291.295465 
L 242.02708 287.743362 
L 242.242109 292.94649 
L 242.356944 292.855279 
L 243.197514 277.106467 
L 243.380053 283.267736 
L 243.597339 281.149717 
L 243.849118 290.962975 
L 243.997246 281.681946 
L 244.106328 290.805313 
L 244.648782 281.446543 
L 244.937997 291.632829 
L 245.081915 287.988626 
L 245.120443 294.060676 
L 245.785712 291.39971 
L 245.892575 287.231898 
L 245.92821 292.62012 
L 245.999436 289.471445 
L 246.108651 281.862377 
L 246.251082 283.54129 
L 246.287179 281.785074 
L 246.680891 283.682739 
L 246.896223 282.296329 
L 247.043411 289.899346 
L 247.891731 283.190414 
L 248.363812 283.557101 
L 248.653087 284.330902 
L 248.867456 294.029686 
L 248.938542 292.840916 
L 248.974126 288.297155 
L 249.333373 291.504774 
L 249.368888 287.18464 
L 249.940215 291.312142 
L 250.048875 281.926306 
L 250.447177 295.438258 
L 250.482962 286.260335 
L 250.591137 293.418379 
L 250.952425 287.31031 
L 251.206102 286.988162 
L 251.349993 289.595098 
L 251.52136 283.530049 
L 251.847766 284.782853 
L 252.026993 283.713015 
L 252.172745 292.265885 
L 252.496362 287.687696 
L 252.677632 277.096106 
L 252.857518 290.906121 
L 253.391344 291.991692 
L 253.498741 281.121838 
L 253.680069 289.604085 
L 254.000881 288.630455 
L 254.216245 285.591046 
L 254.685597 282.429174 
L 255.02358 282.183425 
L 255.097504 291.964162 
L 255.239712 286.711411 
L 255.274947 291.505237 
L 255.416906 294.006902 
L 255.630958 288.793365 
L 256.03352 289.71197 
L 256.215668 288.376644 
L 256.610654 288.441023 
L 256.753192 290.671459 
L 257.074017 285.57581 
L 257.24306 295.488 
L 257.387242 293.219073 
L 257.57203 293.95258 
L 257.753362 289.250053 
L 258.005561 289.365417 
L 258.186802 273.967356 
L 258.33021 289.572568 
L 258.366877 285.941263 
L 258.691952 284.678782 
L 258.727855 284.890636 
L 258.763829 286.132639 
L 258.982119 288.844565 
L 259.44348 284.492936 
L 259.624979 276.78247 
L 259.913217 289.852775 
L 259.984887 288.861488 
L 260.345741 282.025691 
L 260.418599 291.68 
L 260.967425 290.972229 
L 261.382975 289.102016 
L 261.454847 279.977085 
L 261.672376 286.548172 
L 262.032678 282.236362 
L 262.150117 282.832287 
L 262.438167 292.074831 
L 262.909128 290.674615 
L 262.980934 283.953825 
L 263.400791 293.010557 
L 263.660618 282.785689 
L 263.767726 287.726741 
L 263.911095 285.626513 
L 264.41357 286.06554 
L 264.807178 292.162912 
L 265.057672 294.222389 
L 265.312456 291.901561 
L 265.695032 290.538869 
L 265.802693 280.07414 
L 265.947146 293.068363 
L 265.983042 286.584015 
L 266.164195 293.765099 
L 266.380199 289.876486 
L 266.452841 285.384403 
L 266.855316 291.734106 
L 267.493095 287.512638 
L 267.600716 285.358061 
L 267.782776 291.596694 
L 267.854607 283.046691 
L 268.222596 290.151934 
L 268.294368 288.081275 
L 268.727853 290.590917 
L 268.908112 283.608957 
L 269.185602 285.092113 
L 269.842304 289.810633 
L 269.914659 288.456635 
L 269.986329 288.520259 
L 270.167192 290.934167 
L 270.490624 284.386875 
L 270.85144 290.113036 
L 270.887481 284.857974 
L 271.203621 292.088702 
L 271.274832 290.835533 
L 271.417294 286.333719 
L 271.454017 290.655775 
L 271.525282 280.944282 
L 271.883484 283.706609 
L 271.883484 283.706609 
" style="fill:none;stroke:#000000;stroke-dasharray:0.8,1.32;stroke-dashoffset:0;stroke-width:0.8;"/>
   </g>
   <g id="patch_3">
    <path d="M 57.6 307.584 
L 57.6 41.472 
" style="fill:none;stroke:#000000;stroke-linecap:square;stroke-linejoin:miter;stroke-width:0.8;"/>
   </g>
   <g id="patch_4">
    <path d="M 414.72 307.584 
L 414.72 41.472 
" style="fill:none;stroke:#000000;stroke-linecap:square;stroke-linejoin:miter;stroke-width:0.8;"/>
   </g>
   <g id="patch_5">
    <path d="M 57.6 307.584 
L 414.72 307.584 
" style="fill:none;stroke:#000000;stroke-linecap:square;stroke-linejoin:miter;stroke-width:0.8;"/>
   </g>
   <g id="patch_6">
    <path d="M 57.6 41.472 
L 414.72 41.472 
" style="fill:none;stroke:#000000;stroke-linecap:square;stroke-linejoin:miter;stroke-width:0.8;"/>
   </g>
   <g id="legend_1">
    <g id="patch_7">
     <path d="M 64.6 78.82825 
L 138.998437 78.82825 
Q 140.998437 78.82825 140.998437 76.82825 
L 140.998437 48.472 
Q 140.998437 46.472 138.998437 46.472 
L 64.6 46.472 
Q 62.6 46.472 62.6 48.472 
L 62.6 76.82825 
Q 62.6 78.82825 64.6 78.82825 
z
" style="fill:#ffffff;opacity:0.8;stroke:#cccccc;stroke-linejoin:miter;"/>
    </g>
    <g id="line2d_31">
     <path d="M 66.6 54.570437 
L 86.6 54.570437 
" style="fill:none;stroke:#000000;stroke-linecap:square;stroke-width:0.8;"/>
    </g>
    <g id="line2d_32"/>
    <g id="text_17">
     <!-- Baseline -->
     <defs>
      <path d="M 19.671875 34.8125 
L 19.671875 8.109375 
L 35.5 8.109375 
Q 43.453125 8.109375 47.28125 11.40625 
Q 51.125 14.703125 51.125 21.484375 
Q 51.125 28.328125 47.28125 31.5625 
Q 43.453125 34.8125 35.5 34.8125 
z
M 19.671875 64.796875 
L 19.671875 42.828125 
L 34.28125 42.828125 
Q 41.5 42.828125 45.03125 45.53125 
Q 48.578125 48.25 48.578125 53.8125 
Q 48.578125 59.328125 45.03125 62.0625 
Q 41.5 64.796875 34.28125 64.796875 
z
M 9.8125 72.90625 
L 35.015625 72.90625 
Q 46.296875 72.90625 52.390625 68.21875 
Q 58.5 63.53125 58.5 54.890625 
Q 58.5 48.1875 55.375 44.234375 
Q 52.25 40.28125 46.1875 39.3125 
Q 53.46875 37.75 57.5 32.78125 
Q 61.53125 27.828125 61.53125 20.40625 
Q 61.53125 10.640625 54.890625 5.3125 
Q 48.25 0 35.984375 0 
L 9.8125 0 
z
" id="DejaVuSans-66"/>
      <path d="M 34.28125 27.484375 
Q 23.390625 27.484375 19.1875 25 
Q 14.984375 22.515625 14.984375 16.5 
Q 14.984375 11.71875 18.140625 8.90625 
Q 21.296875 6.109375 26.703125 6.109375 
Q 34.1875 6.109375 38.703125 11.40625 
Q 43.21875 16.703125 43.21875 25.484375 
L 43.21875 27.484375 
z
M 52.203125 31.203125 
L 52.203125 0 
L 43.21875 0 
L 43.21875 8.296875 
Q 40.140625 3.328125 35.546875 0.953125 
Q 30.953125 -1.421875 24.3125 -1.421875 
Q 15.921875 -1.421875 10.953125 3.296875 
Q 6 8.015625 6 15.921875 
Q 6 25.140625 12.171875 29.828125 
Q 18.359375 34.515625 30.609375 34.515625 
L 43.21875 34.515625 
L 43.21875 35.40625 
Q 43.21875 41.609375 39.140625 45 
Q 35.0625 48.390625 27.6875 48.390625 
Q 23 48.390625 18.546875 47.265625 
Q 14.109375 46.140625 10.015625 43.890625 
L 10.015625 52.203125 
Q 14.9375 54.109375 19.578125 55.046875 
Q 24.21875 56 28.609375 56 
Q 40.484375 56 46.34375 49.84375 
Q 52.203125 43.703125 52.203125 31.203125 
z
" id="DejaVuSans-97"/>
      <path d="M 56.203125 29.59375 
L 56.203125 25.203125 
L 14.890625 25.203125 
Q 15.484375 15.921875 20.484375 11.0625 
Q 25.484375 6.203125 34.421875 6.203125 
Q 39.59375 6.203125 44.453125 7.46875 
Q 49.3125 8.734375 54.109375 11.28125 
L 54.109375 2.78125 
Q 49.265625 0.734375 44.1875 -0.34375 
Q 39.109375 -1.421875 33.890625 -1.421875 
Q 20.796875 -1.421875 13.15625 6.1875 
Q 5.515625 13.8125 5.515625 26.8125 
Q 5.515625 40.234375 12.765625 48.109375 
Q 20.015625 56 32.328125 56 
Q 43.359375 56 49.78125 48.890625 
Q 56.203125 41.796875 56.203125 29.59375 
z
M 47.21875 32.234375 
Q 47.125 39.59375 43.09375 43.984375 
Q 39.0625 48.390625 32.421875 48.390625 
Q 24.90625 48.390625 20.390625 44.140625 
Q 15.875 39.890625 15.1875 32.171875 
z
" id="DejaVuSans-101"/>
      <path d="M 9.421875 75.984375 
L 18.40625 75.984375 
L 18.40625 0 
L 9.421875 0 
z
" id="DejaVuSans-108"/>
      <path d="M 9.421875 54.6875 
L 18.40625 54.6875 
L 18.40625 0 
L 9.421875 0 
z
M 9.421875 75.984375 
L 18.40625 75.984375 
L 18.40625 64.59375 
L 9.421875 64.59375 
z
" id="DejaVuSans-105"/>
      <path d="M 54.890625 33.015625 
L 54.890625 0 
L 45.90625 0 
L 45.90625 32.71875 
Q 45.90625 40.484375 42.875 44.328125 
Q 39.84375 48.1875 33.796875 48.1875 
Q 26.515625 48.1875 22.3125 43.546875 
Q 18.109375 38.921875 18.109375 30.90625 
L 18.109375 0 
L 9.078125 0 
L 9.078125 54.6875 
L 18.109375 54.6875 
L 18.109375 46.1875 
Q 21.34375 51.125 25.703125 53.5625 
Q 30.078125 56 35.796875 56 
Q 45.21875 56 50.046875 50.171875 
Q 54.890625 44.34375 54.890625 33.015625 
z
" id="DejaVuSans-110"/>
     </defs>
     <g transform="translate(94.6 58.070437)scale(0.1 -0.1)">
      <use xlink:href="#DejaVuSans-66"/>
      <use x="68.603516" xlink:href="#DejaVuSans-97"/>
      <use x="129.882812" xlink:href="#DejaVuSans-115"/>
      <use x="181.982422" xlink:href="#DejaVuSans-101"/>
      <use x="243.505859" xlink:href="#DejaVuSans-108"/>
      <use x="271.289062" xlink:href="#DejaVuSans-105"/>
      <use x="299.072266" xlink:href="#DejaVuSans-110"/>
      <use x="362.451172" xlink:href="#DejaVuSans-101"/>
     </g>
    </g>
    <g id="line2d_33">
     <path d="M 66.6 69.248562 
L 86.6 69.248562 
" style="fill:none;stroke:#000000;stroke-dasharray:0.8,1.32;stroke-dashoffset:0;stroke-width:0.8;"/>
    </g>
    <g id="line2d_34"/>
    <g id="text_18">
     <!-- Dueling -->
     <defs>
      <path d="M 19.671875 64.796875 
L 19.671875 8.109375 
L 31.59375 8.109375 
Q 46.6875 8.109375 53.6875 14.9375 
Q 60.6875 21.78125 60.6875 36.53125 
Q 60.6875 51.171875 53.6875 57.984375 
Q 46.6875 64.796875 31.59375 64.796875 
z
M 9.8125 72.90625 
L 30.078125 72.90625 
Q 51.265625 72.90625 61.171875 64.09375 
Q 71.09375 55.28125 71.09375 36.53125 
Q 71.09375 17.671875 61.125 8.828125 
Q 51.171875 0 30.078125 0 
L 9.8125 0 
z
" id="DejaVuSans-68"/>
      <path d="M 45.40625 27.984375 
Q 45.40625 37.75 41.375 43.109375 
Q 37.359375 48.484375 30.078125 48.484375 
Q 22.859375 48.484375 18.828125 43.109375 
Q 14.796875 37.75 14.796875 27.984375 
Q 14.796875 18.265625 18.828125 12.890625 
Q 22.859375 7.515625 30.078125 7.515625 
Q 37.359375 7.515625 41.375 12.890625 
Q 45.40625 18.265625 45.40625 27.984375 
z
M 54.390625 6.78125 
Q 54.390625 -7.171875 48.1875 -13.984375 
Q 42 -20.796875 29.203125 -20.796875 
Q 24.46875 -20.796875 20.265625 -20.09375 
Q 16.0625 -19.390625 12.109375 -17.921875 
L 12.109375 -9.1875 
Q 16.0625 -11.328125 19.921875 -12.34375 
Q 23.78125 -13.375 27.78125 -13.375 
Q 36.625 -13.375 41.015625 -8.765625 
Q 45.40625 -4.15625 45.40625 5.171875 
L 45.40625 9.625 
Q 42.625 4.78125 38.28125 2.390625 
Q 33.9375 0 27.875 0 
Q 17.828125 0 11.671875 7.65625 
Q 5.515625 15.328125 5.515625 27.984375 
Q 5.515625 40.671875 11.671875 48.328125 
Q 17.828125 56 27.875 56 
Q 33.9375 56 38.28125 53.609375 
Q 42.625 51.21875 45.40625 46.390625 
L 45.40625 54.6875 
L 54.390625 54.6875 
z
" id="DejaVuSans-103"/>
     </defs>
     <g transform="translate(94.6 72.748562)scale(0.1 -0.1)">
      <use xlink:href="#DejaVuSans-68"/>
      <use x="77.001953" xlink:href="#DejaVuSans-117"/>
      <use x="140.380859" xlink:href="#DejaVuSans-101"/>
      <use x="201.904297" xlink:href="#DejaVuSans-108"/>
      <use x="229.6875" xlink:href="#DejaVuSans-105"/>
      <use x="257.470703" xlink:href="#DejaVuSans-110"/>
      <use x="320.849609" xlink:href="#DejaVuSans-103"/>
     </g>
    </g>
   </g>
  </g>
 </g>
 <defs>
  <clipPath id="p1fef5511f6">
   <rect height="266.112" width="357.12" x="57.6" y="41.472"/>
  </clipPath>
 </defs>
</svg>
