<?xml version="1.0" encoding="utf-8" standalone="no"?>
<!DOCTYPE svg PUBLIC "-//W3C//DTD SVG 1.1//EN"
  "http://www.w3.org/Graphics/SVG/1.1/DTD/svg11.dtd">
<!-- Created with matplotlib (https://matplotlib.org/) -->
<svg height="345.6pt" version="1.1" viewBox="0 0 460.8 345.6" width="460.8pt" xmlns="http://www.w3.org/2000/svg" xmlns:xlink="http://www.w3.org/1999/xlink">
 <defs>
  <style type="text/css">
*{stroke-linecap:butt;stroke-linejoin:round;}
  </style>
 </defs>
 <g id="figure_1">
  <g id="patch_1">
   <path d="M 0 345.6 
L 460.8 345.6 
L 460.8 0 
L 0 0 
z
" style="fill:#ffffff;"/>
  </g>
  <g id="axes_1">
   <g id="patch_2">
    <path d="M 57.6 307.584 
L 414.72 307.584 
L 414.72 41.472 
L 57.6 41.472 
z
" style="fill:#ffffff;"/>
   </g>
   <g id="matplotlib.axis_1">
    <g id="xtick_1">
     <g id="line2d_1">
      <defs>
       <path d="M 0 0 
L 0 3.5 
" id="m02b17235ce" style="stroke:#000000;stroke-width:0.8;"/>
      </defs>
      <g>
       <use style="stroke:#000000;stroke-width:0.8;" x="57.6" xlink:href="#m02b17235ce" y="307.584"/>
      </g>
     </g>
    </g>
    <g id="xtick_2">
     <g id="line2d_2">
      <g>
       <use style="stroke:#000000;stroke-width:0.8;" x="119.6" xlink:href="#m02b17235ce" y="307.584"/>
      </g>
     </g>
     <g id="text_1">
      <!-- 100 -->
      <defs>
       <path d="M 12.40625 8.296875 
L 28.515625 8.296875 
L 28.515625 63.921875 
L 10.984375 60.40625 
L 10.984375 69.390625 
L 28.421875 72.90625 
L 38.28125 72.90625 
L 38.28125 8.296875 
L 54.390625 8.296875 
L 54.390625 0 
L 12.40625 0 
z
" id="DejaVuSans-49"/>
       <path d="M 31.78125 66.40625 
Q 24.171875 66.40625 20.328125 58.90625 
Q 16.5 51.421875 16.5 36.375 
Q 16.5 21.390625 20.328125 13.890625 
Q 24.171875 6.390625 31.78125 6.390625 
Q 39.453125 6.390625 43.28125 13.890625 
Q 47.125 21.390625 47.125 36.375 
Q 47.125 51.421875 43.28125 58.90625 
Q 39.453125 66.40625 31.78125 66.40625 
z
M 31.78125 74.21875 
Q 44.046875 74.21875 50.515625 64.515625 
Q 56.984375 54.828125 56.984375 36.375 
Q 56.984375 17.96875 50.515625 8.265625 
Q 44.046875 -1.421875 31.78125 -1.421875 
Q 19.53125 -1.421875 13.0625 8.265625 
Q 6.59375 17.96875 6.59375 36.375 
Q 6.59375 54.828125 13.0625 64.515625 
Q 19.53125 74.21875 31.78125 74.21875 
z
" id="DejaVuSans-48"/>
      </defs>
      <g transform="translate(110.05625 322.182437)scale(0.1 -0.1)">
       <use xlink:href="#DejaVuSans-49"/>
       <use x="63.623047" xlink:href="#DejaVuSans-48"/>
       <use x="127.246094" xlink:href="#DejaVuSans-48"/>
      </g>
     </g>
    </g>
    <g id="xtick_3">
     <g id="line2d_3">
      <g>
       <use style="stroke:#000000;stroke-width:0.8;" x="181.6" xlink:href="#m02b17235ce" y="307.584"/>
      </g>
     </g>
     <g id="text_2">
      <!-- 200 -->
      <defs>
       <path d="M 19.1875 8.296875 
L 53.609375 8.296875 
L 53.609375 0 
L 7.328125 0 
L 7.328125 8.296875 
Q 12.9375 14.109375 22.625 23.890625 
Q 32.328125 33.6875 34.8125 36.53125 
Q 39.546875 41.84375 41.421875 45.53125 
Q 43.3125 49.21875 43.3125 52.78125 
Q 43.3125 58.59375 39.234375 62.25 
Q 35.15625 65.921875 28.609375 65.921875 
Q 23.96875 65.921875 18.8125 64.3125 
Q 13.671875 62.703125 7.8125 59.421875 
L 7.8125 69.390625 
Q 13.765625 71.78125 18.9375 73 
Q 24.125 74.21875 28.421875 74.21875 
Q 39.75 74.21875 46.484375 68.546875 
Q 53.21875 62.890625 53.21875 53.421875 
Q 53.21875 48.921875 51.53125 44.890625 
Q 49.859375 40.875 45.40625 35.40625 
Q 44.1875 33.984375 37.640625 27.21875 
Q 31.109375 20.453125 19.1875 8.296875 
z
" id="DejaVuSans-50"/>
      </defs>
      <g transform="translate(172.05625 322.182437)scale(0.1 -0.1)">
       <use xlink:href="#DejaVuSans-50"/>
       <use x="63.623047" xlink:href="#DejaVuSans-48"/>
       <use x="127.246094" xlink:href="#DejaVuSans-48"/>
      </g>
     </g>
    </g>
    <g id="xtick_4">
     <g id="line2d_4">
      <g>
       <use style="stroke:#000000;stroke-width:0.8;" x="243.6" xlink:href="#m02b17235ce" y="307.584"/>
      </g>
     </g>
     <g id="text_3">
      <!-- 300 -->
      <defs>
       <path d="M 40.578125 39.3125 
Q 47.65625 37.796875 51.625 33 
Q 55.609375 28.21875 55.609375 21.1875 
Q 55.609375 10.40625 48.1875 4.484375 
Q 40.765625 -1.421875 27.09375 -1.421875 
Q 22.515625 -1.421875 17.65625 -0.515625 
Q 12.796875 0.390625 7.625 2.203125 
L 7.625 11.71875 
Q 11.71875 9.328125 16.59375 8.109375 
Q 21.484375 6.890625 26.8125 6.890625 
Q 36.078125 6.890625 40.9375 10.546875 
Q 45.796875 14.203125 45.796875 21.1875 
Q 45.796875 27.640625 41.28125 31.265625 
Q 36.765625 34.90625 28.71875 34.90625 
L 20.21875 34.90625 
L 20.21875 43.015625 
L 29.109375 43.015625 
Q 36.375 43.015625 40.234375 45.921875 
Q 44.09375 48.828125 44.09375 54.296875 
Q 44.09375 59.90625 40.109375 62.90625 
Q 36.140625 65.921875 28.71875 65.921875 
Q 24.65625 65.921875 20.015625 65.03125 
Q 15.375 64.15625 9.8125 62.3125 
L 9.8125 71.09375 
Q 15.4375 72.65625 20.34375 73.4375 
Q 25.25 74.21875 29.59375 74.21875 
Q 40.828125 74.21875 47.359375 69.109375 
Q 53.90625 64.015625 53.90625 55.328125 
Q 53.90625 49.265625 50.4375 45.09375 
Q 46.96875 40.921875 40.578125 39.3125 
z
" id="DejaVuSans-51"/>
      </defs>
      <g transform="translate(234.05625 322.182437)scale(0.1 -0.1)">
       <use xlink:href="#DejaVuSans-51"/>
       <use x="63.623047" xlink:href="#DejaVuSans-48"/>
       <use x="127.246094" xlink:href="#DejaVuSans-48"/>
      </g>
     </g>
    </g>
    <g id="xtick_5">
     <g id="line2d_5">
      <g>
       <use style="stroke:#000000;stroke-width:0.8;" x="305.6" xlink:href="#m02b17235ce" y="307.584"/>
      </g>
     </g>
     <g id="text_4">
      <!-- 400 -->
      <defs>
       <path d="M 37.796875 64.3125 
L 12.890625 25.390625 
L 37.796875 25.390625 
z
M 35.203125 72.90625 
L 47.609375 72.90625 
L 47.609375 25.390625 
L 58.015625 25.390625 
L 58.015625 17.1875 
L 47.609375 17.1875 
L 47.609375 0 
L 37.796875 0 
L 37.796875 17.1875 
L 4.890625 17.1875 
L 4.890625 26.703125 
z
" id="DejaVuSans-52"/>
      </defs>
      <g transform="translate(296.05625 322.182437)scale(0.1 -0.1)">
       <use xlink:href="#DejaVuSans-52"/>
       <use x="63.623047" xlink:href="#DejaVuSans-48"/>
       <use x="127.246094" xlink:href="#DejaVuSans-48"/>
      </g>
     </g>
    </g>
    <g id="xtick_6">
     <g id="line2d_6">
      <g>
       <use style="stroke:#000000;stroke-width:0.8;" x="367.6" xlink:href="#m02b17235ce" y="307.584"/>
      </g>
     </g>
     <g id="text_5">
      <!-- 500 -->
      <defs>
       <path d="M 10.796875 72.90625 
L 49.515625 72.90625 
L 49.515625 64.59375 
L 19.828125 64.59375 
L 19.828125 46.734375 
Q 21.96875 47.46875 24.109375 47.828125 
Q 26.265625 48.1875 28.421875 48.1875 
Q 40.625 48.1875 47.75 41.5 
Q 54.890625 34.8125 54.890625 23.390625 
Q 54.890625 11.625 47.5625 5.09375 
Q 40.234375 -1.421875 26.90625 -1.421875 
Q 22.3125 -1.421875 17.546875 -0.640625 
Q 12.796875 0.140625 7.71875 1.703125 
L 7.71875 11.625 
Q 12.109375 9.234375 16.796875 8.0625 
Q 21.484375 6.890625 26.703125 6.890625 
Q 35.15625 6.890625 40.078125 11.328125 
Q 45.015625 15.765625 45.015625 23.390625 
Q 45.015625 31 40.078125 35.4375 
Q 35.15625 39.890625 26.703125 39.890625 
Q 22.75 39.890625 18.8125 39.015625 
Q 14.890625 38.140625 10.796875 36.28125 
z
" id="DejaVuSans-53"/>
      </defs>
      <g transform="translate(358.05625 322.182437)scale(0.1 -0.1)">
       <use xlink:href="#DejaVuSans-53"/>
       <use x="63.623047" xlink:href="#DejaVuSans-48"/>
       <use x="127.246094" xlink:href="#DejaVuSans-48"/>
      </g>
     </g>
    </g>
    <g id="text_6">
     <!-- Episodes -->
     <defs>
      <path d="M 9.8125 72.90625 
L 55.90625 72.90625 
L 55.90625 64.59375 
L 19.671875 64.59375 
L 19.671875 43.015625 
L 54.390625 43.015625 
L 54.390625 34.71875 
L 19.671875 34.71875 
L 19.671875 8.296875 
L 56.78125 8.296875 
L 56.78125 0 
L 9.8125 0 
z
" id="DejaVuSans-69"/>
      <path d="M 18.109375 8.203125 
L 18.109375 -20.796875 
L 9.078125 -20.796875 
L 9.078125 54.6875 
L 18.109375 54.6875 
L 18.109375 46.390625 
Q 20.953125 51.265625 25.265625 53.625 
Q 29.59375 56 35.59375 56 
Q 45.5625 56 51.78125 48.09375 
Q 58.015625 40.1875 58.015625 27.296875 
Q 58.015625 14.40625 51.78125 6.484375 
Q 45.5625 -1.421875 35.59375 -1.421875 
Q 29.59375 -1.421875 25.265625 0.953125 
Q 20.953125 3.328125 18.109375 8.203125 
z
M 48.6875 27.296875 
Q 48.6875 37.203125 44.609375 42.84375 
Q 40.53125 48.484375 33.40625 48.484375 
Q 26.265625 48.484375 22.1875 42.84375 
Q 18.109375 37.203125 18.109375 27.296875 
Q 18.109375 17.390625 22.1875 11.75 
Q 26.265625 6.109375 33.40625 6.109375 
Q 40.53125 6.109375 44.609375 11.75 
Q 48.6875 17.390625 48.6875 27.296875 
z
" id="DejaVuSans-112"/>
      <path d="M 9.421875 54.6875 
L 18.40625 54.6875 
L 18.40625 0 
L 9.421875 0 
z
M 9.421875 75.984375 
L 18.40625 75.984375 
L 18.40625 64.59375 
L 9.421875 64.59375 
z
" id="DejaVuSans-105"/>
      <path d="M 44.28125 53.078125 
L 44.28125 44.578125 
Q 40.484375 46.53125 36.375 47.5 
Q 32.28125 48.484375 27.875 48.484375 
Q 21.1875 48.484375 17.84375 46.4375 
Q 14.5 44.390625 14.5 40.28125 
Q 14.5 37.15625 16.890625 35.375 
Q 19.28125 33.59375 26.515625 31.984375 
L 29.59375 31.296875 
Q 39.15625 29.25 43.1875 25.515625 
Q 47.21875 21.78125 47.21875 15.09375 
Q 47.21875 7.46875 41.1875 3.015625 
Q 35.15625 -1.421875 24.609375 -1.421875 
Q 20.21875 -1.421875 15.453125 -0.5625 
Q 10.6875 0.296875 5.421875 2 
L 5.421875 11.28125 
Q 10.40625 8.6875 15.234375 7.390625 
Q 20.0625 6.109375 24.8125 6.109375 
Q 31.15625 6.109375 34.5625 8.28125 
Q 37.984375 10.453125 37.984375 14.40625 
Q 37.984375 18.0625 35.515625 20.015625 
Q 33.0625 21.96875 24.703125 23.78125 
L 21.578125 24.515625 
Q 13.234375 26.265625 9.515625 29.90625 
Q 5.8125 33.546875 5.8125 39.890625 
Q 5.8125 47.609375 11.28125 51.796875 
Q 16.75 56 26.8125 56 
Q 31.78125 56 36.171875 55.265625 
Q 40.578125 54.546875 44.28125 53.078125 
z
" id="DejaVuSans-115"/>
      <path d="M 30.609375 48.390625 
Q 23.390625 48.390625 19.1875 42.75 
Q 14.984375 37.109375 14.984375 27.296875 
Q 14.984375 17.484375 19.15625 11.84375 
Q 23.34375 6.203125 30.609375 6.203125 
Q 37.796875 6.203125 41.984375 11.859375 
Q 46.1875 17.53125 46.1875 27.296875 
Q 46.1875 37.015625 41.984375 42.703125 
Q 37.796875 48.390625 30.609375 48.390625 
z
M 30.609375 56 
Q 42.328125 56 49.015625 48.375 
Q 55.71875 40.765625 55.71875 27.296875 
Q 55.71875 13.875 49.015625 6.21875 
Q 42.328125 -1.421875 30.609375 -1.421875 
Q 18.84375 -1.421875 12.171875 6.21875 
Q 5.515625 13.875 5.515625 27.296875 
Q 5.515625 40.765625 12.171875 48.375 
Q 18.84375 56 30.609375 56 
z
" id="DejaVuSans-111"/>
      <path d="M 45.40625 46.390625 
L 45.40625 75.984375 
L 54.390625 75.984375 
L 54.390625 0 
L 45.40625 0 
L 45.40625 8.203125 
Q 42.578125 3.328125 38.25 0.953125 
Q 33.9375 -1.421875 27.875 -1.421875 
Q 17.96875 -1.421875 11.734375 6.484375 
Q 5.515625 14.40625 5.515625 27.296875 
Q 5.515625 40.1875 11.734375 48.09375 
Q 17.96875 56 27.875 56 
Q 33.9375 56 38.25 53.625 
Q 42.578125 51.265625 45.40625 46.390625 
z
M 14.796875 27.296875 
Q 14.796875 17.390625 18.875 11.75 
Q 22.953125 6.109375 30.078125 6.109375 
Q 37.203125 6.109375 41.296875 11.75 
Q 45.40625 17.390625 45.40625 27.296875 
Q 45.40625 37.203125 41.296875 42.84375 
Q 37.203125 48.484375 30.078125 48.484375 
Q 22.953125 48.484375 18.875 42.84375 
Q 14.796875 37.203125 14.796875 27.296875 
z
" id="DejaVuSans-100"/>
      <path d="M 56.203125 29.59375 
L 56.203125 25.203125 
L 14.890625 25.203125 
Q 15.484375 15.921875 20.484375 11.0625 
Q 25.484375 6.203125 34.421875 6.203125 
Q 39.59375 6.203125 44.453125 7.46875 
Q 49.3125 8.734375 54.109375 11.28125 
L 54.109375 2.78125 
Q 49.265625 0.734375 44.1875 -0.34375 
Q 39.109375 -1.421875 33.890625 -1.421875 
Q 20.796875 -1.421875 13.15625 6.1875 
Q 5.515625 13.8125 5.515625 26.8125 
Q 5.515625 40.234375 12.765625 48.109375 
Q 20.015625 56 32.328125 56 
Q 43.359375 56 49.78125 48.890625 
Q 56.203125 41.796875 56.203125 29.59375 
z
M 47.21875 32.234375 
Q 47.125 39.59375 43.09375 43.984375 
Q 39.0625 48.390625 32.421875 48.390625 
Q 24.90625 48.390625 20.390625 44.140625 
Q 15.875 39.890625 15.1875 32.171875 
z
" id="DejaVuSans-101"/>
     </defs>
     <g transform="translate(213.917812 335.860562)scale(0.1 -0.1)">
      <use xlink:href="#DejaVuSans-69"/>
      <use x="63.183594" xlink:href="#DejaVuSans-112"/>
      <use x="126.660156" xlink:href="#DejaVuSans-105"/>
      <use x="154.443359" xlink:href="#DejaVuSans-115"/>
      <use x="206.542969" xlink:href="#DejaVuSans-111"/>
      <use x="267.724609" xlink:href="#DejaVuSans-100"/>
      <use x="331.201172" xlink:href="#DejaVuSans-101"/>
      <use x="392.724609" xlink:href="#DejaVuSans-115"/>
     </g>
    </g>
   </g>
   <g id="matplotlib.axis_2">
    <g id="ytick_1">
     <g id="line2d_7">
      <path clip-path="url(#p21b009a13d)" d="M 57.6 291.7122 
L 414.72 291.7122 
" style="fill:none;stroke:#b0b0b0;stroke-linecap:square;stroke-width:0.8;"/>
     </g>
     <g id="line2d_8">
      <defs>
       <path d="M 0 0 
L -3.5 0 
" id="m21f838c18d" style="stroke:#000000;stroke-width:0.8;"/>
      </defs>
      <g>
       <use style="stroke:#000000;stroke-width:0.8;" x="57.6" xlink:href="#m21f838c18d" y="291.7122"/>
      </g>
     </g>
     <g id="text_7">
      <!-- −20 -->
      <defs>
       <path d="M 10.59375 35.5 
L 73.1875 35.5 
L 73.1875 27.203125 
L 10.59375 27.203125 
z
" id="DejaVuSans-8722"/>
      </defs>
      <g transform="translate(29.495313 295.511419)scale(0.1 -0.1)">
       <use xlink:href="#DejaVuSans-8722"/>
       <use x="83.789062" xlink:href="#DejaVuSans-50"/>
       <use x="147.412109" xlink:href="#DejaVuSans-48"/>
      </g>
     </g>
    </g>
    <g id="ytick_2">
     <g id="line2d_9">
      <path clip-path="url(#p21b009a13d)" d="M 57.6 259.529443 
L 414.72 259.529443 
" style="fill:none;stroke:#b0b0b0;stroke-linecap:square;stroke-width:0.8;"/>
     </g>
     <g id="line2d_10">
      <g>
       <use style="stroke:#000000;stroke-width:0.8;" x="57.6" xlink:href="#m21f838c18d" y="259.529443"/>
      </g>
     </g>
     <g id="text_8">
      <!-- −15 -->
      <g transform="translate(29.495313 263.328662)scale(0.1 -0.1)">
       <use xlink:href="#DejaVuSans-8722"/>
       <use x="83.789062" xlink:href="#DejaVuSans-49"/>
       <use x="147.412109" xlink:href="#DejaVuSans-53"/>
      </g>
     </g>
    </g>
    <g id="ytick_3">
     <g id="line2d_11">
      <path clip-path="url(#p21b009a13d)" d="M 57.6 227.346687 
L 414.72 227.346687 
" style="fill:none;stroke:#b0b0b0;stroke-linecap:square;stroke-width:0.8;"/>
     </g>
     <g id="line2d_12">
      <g>
       <use style="stroke:#000000;stroke-width:0.8;" x="57.6" xlink:href="#m21f838c18d" y="227.346687"/>
      </g>
     </g>
     <g id="text_9">
      <!-- −10 -->
      <g transform="translate(29.495313 231.145905)scale(0.1 -0.1)">
       <use xlink:href="#DejaVuSans-8722"/>
       <use x="83.789062" xlink:href="#DejaVuSans-49"/>
       <use x="147.412109" xlink:href="#DejaVuSans-48"/>
      </g>
     </g>
    </g>
    <g id="ytick_4">
     <g id="line2d_13">
      <path clip-path="url(#p21b009a13d)" d="M 57.6 195.16393 
L 414.72 195.16393 
" style="fill:none;stroke:#b0b0b0;stroke-linecap:square;stroke-width:0.8;"/>
     </g>
     <g id="line2d_14">
      <g>
       <use style="stroke:#000000;stroke-width:0.8;" x="57.6" xlink:href="#m21f838c18d" y="195.16393"/>
      </g>
     </g>
     <g id="text_10">
      <!-- −5 -->
      <g transform="translate(35.857813 198.963148)scale(0.1 -0.1)">
       <use xlink:href="#DejaVuSans-8722"/>
       <use x="83.789062" xlink:href="#DejaVuSans-53"/>
      </g>
     </g>
    </g>
    <g id="ytick_5">
     <g id="line2d_15">
      <path clip-path="url(#p21b009a13d)" d="M 57.6 162.981173 
L 414.72 162.981173 
" style="fill:none;stroke:#b0b0b0;stroke-linecap:square;stroke-width:0.8;"/>
     </g>
     <g id="line2d_16">
      <g>
       <use style="stroke:#000000;stroke-width:0.8;" x="57.6" xlink:href="#m21f838c18d" y="162.981173"/>
      </g>
     </g>
     <g id="text_11">
      <!-- 0 -->
      <g transform="translate(44.2375 166.780391)scale(0.1 -0.1)">
       <use xlink:href="#DejaVuSans-48"/>
      </g>
     </g>
    </g>
    <g id="ytick_6">
     <g id="line2d_17">
      <path clip-path="url(#p21b009a13d)" d="M 57.6 130.798416 
L 414.72 130.798416 
" style="fill:none;stroke:#b0b0b0;stroke-linecap:square;stroke-width:0.8;"/>
     </g>
     <g id="line2d_18">
      <g>
       <use style="stroke:#000000;stroke-width:0.8;" x="57.6" xlink:href="#m21f838c18d" y="130.798416"/>
      </g>
     </g>
     <g id="text_12">
      <!-- 5 -->
      <g transform="translate(44.2375 134.597635)scale(0.1 -0.1)">
       <use xlink:href="#DejaVuSans-53"/>
      </g>
     </g>
    </g>
    <g id="ytick_7">
     <g id="line2d_19">
      <path clip-path="url(#p21b009a13d)" d="M 57.6 98.615659 
L 414.72 98.615659 
" style="fill:none;stroke:#b0b0b0;stroke-linecap:square;stroke-width:0.8;"/>
     </g>
     <g id="line2d_20">
      <g>
       <use style="stroke:#000000;stroke-width:0.8;" x="57.6" xlink:href="#m21f838c18d" y="98.615659"/>
      </g>
     </g>
     <g id="text_13">
      <!-- 10 -->
      <g transform="translate(37.875 102.414878)scale(0.1 -0.1)">
       <use xlink:href="#DejaVuSans-49"/>
       <use x="63.623047" xlink:href="#DejaVuSans-48"/>
      </g>
     </g>
    </g>
    <g id="ytick_8">
     <g id="line2d_21">
      <path clip-path="url(#p21b009a13d)" d="M 57.6 66.432902 
L 414.72 66.432902 
" style="fill:none;stroke:#b0b0b0;stroke-linecap:square;stroke-width:0.8;"/>
     </g>
     <g id="line2d_22">
      <g>
       <use style="stroke:#000000;stroke-width:0.8;" x="57.6" xlink:href="#m21f838c18d" y="66.432902"/>
      </g>
     </g>
     <g id="text_14">
      <!-- 15 -->
      <g transform="translate(37.875 70.232121)scale(0.1 -0.1)">
       <use xlink:href="#DejaVuSans-49"/>
       <use x="63.623047" xlink:href="#DejaVuSans-53"/>
      </g>
     </g>
    </g>
    <g id="text_15">
     <!-- Reward -->
     <defs>
      <path d="M 44.390625 34.1875 
Q 47.5625 33.109375 50.5625 29.59375 
Q 53.5625 26.078125 56.59375 19.921875 
L 66.609375 0 
L 56 0 
L 46.6875 18.703125 
Q 43.0625 26.03125 39.671875 28.421875 
Q 36.28125 30.8125 30.421875 30.8125 
L 19.671875 30.8125 
L 19.671875 0 
L 9.8125 0 
L 9.8125 72.90625 
L 32.078125 72.90625 
Q 44.578125 72.90625 50.734375 67.671875 
Q 56.890625 62.453125 56.890625 51.90625 
Q 56.890625 45.015625 53.6875 40.46875 
Q 50.484375 35.9375 44.390625 34.1875 
z
M 19.671875 64.796875 
L 19.671875 38.921875 
L 32.078125 38.921875 
Q 39.203125 38.921875 42.84375 42.21875 
Q 46.484375 45.515625 46.484375 51.90625 
Q 46.484375 58.296875 42.84375 61.546875 
Q 39.203125 64.796875 32.078125 64.796875 
z
" id="DejaVuSans-82"/>
      <path d="M 4.203125 54.6875 
L 13.1875 54.6875 
L 24.421875 12.015625 
L 35.59375 54.6875 
L 46.1875 54.6875 
L 57.421875 12.015625 
L 68.609375 54.6875 
L 77.59375 54.6875 
L 63.28125 0 
L 52.6875 0 
L 40.921875 44.828125 
L 29.109375 0 
L 18.5 0 
z
" id="DejaVuSans-119"/>
      <path d="M 34.28125 27.484375 
Q 23.390625 27.484375 19.1875 25 
Q 14.984375 22.515625 14.984375 16.5 
Q 14.984375 11.71875 18.140625 8.90625 
Q 21.296875 6.109375 26.703125 6.109375 
Q 34.1875 6.109375 38.703125 11.40625 
Q 43.21875 16.703125 43.21875 25.484375 
L 43.21875 27.484375 
z
M 52.203125 31.203125 
L 52.203125 0 
L 43.21875 0 
L 43.21875 8.296875 
Q 40.140625 3.328125 35.546875 0.953125 
Q 30.953125 -1.421875 24.3125 -1.421875 
Q 15.921875 -1.421875 10.953125 3.296875 
Q 6 8.015625 6 15.921875 
Q 6 25.140625 12.171875 29.828125 
Q 18.359375 34.515625 30.609375 34.515625 
L 43.21875 34.515625 
L 43.21875 35.40625 
Q 43.21875 41.609375 39.140625 45 
Q 35.0625 48.390625 27.6875 48.390625 
Q 23 48.390625 18.546875 47.265625 
Q 14.109375 46.140625 10.015625 43.890625 
L 10.015625 52.203125 
Q 14.9375 54.109375 19.578125 55.046875 
Q 24.21875 56 28.609375 56 
Q 40.484375 56 46.34375 49.84375 
Q 52.203125 43.703125 52.203125 31.203125 
z
" id="DejaVuSans-97"/>
      <path d="M 41.109375 46.296875 
Q 39.59375 47.171875 37.8125 47.578125 
Q 36.03125 48 33.890625 48 
Q 26.265625 48 22.1875 43.046875 
Q 18.109375 38.09375 18.109375 28.8125 
L 18.109375 0 
L 9.078125 0 
L 9.078125 54.6875 
L 18.109375 54.6875 
L 18.109375 46.1875 
Q 20.953125 51.171875 25.484375 53.578125 
Q 30.03125 56 36.53125 56 
Q 37.453125 56 38.578125 55.875 
Q 39.703125 55.765625 41.0625 55.515625 
z
" id="DejaVuSans-114"/>
     </defs>
     <g transform="translate(23.415625 193.457687)rotate(-90)scale(0.1 -0.1)">
      <use xlink:href="#DejaVuSans-82"/>
      <use x="69.419922" xlink:href="#DejaVuSans-101"/>
      <use x="130.943359" xlink:href="#DejaVuSans-119"/>
      <use x="212.730469" xlink:href="#DejaVuSans-97"/>
      <use x="274.009766" xlink:href="#DejaVuSans-114"/>
      <use x="315.107422" xlink:href="#DejaVuSans-100"/>
     </g>
    </g>
   </g>
   <g id="line2d_23">
    <path clip-path="url(#p21b009a13d)" d="M 58.22 285.275649 
L 58.84 285.533117 
L 59.46 285.656695 
L 60.7 286.151374 
L 61.32 286.133867 
L 61.94 286.245426 
L 63.18 286.716804 
L 63.8 286.687978 
L 64.42 286.788463 
L 65.04 287.015669 
L 66.9 287.291859 
L 68.14 287.721791 
L 68.76 287.801602 
L 69.38 288.008551 
L 71.86 288.296073 
L 72.48 288.493127 
L 73.1 288.557506 
L 73.72 288.74933 
L 74.34 288.551122 
L 74.96 288.743081 
L 76.2 288.860656 
L 76.82 289.046415 
L 78.06 289.151983 
L 79.3 289.508254 
L 80.54 289.59553 
L 81.16 289.766594 
L 83.02 289.881013 
L 83.64 290.046369 
L 85.5 289.765808 
L 86.74 290.097771 
L 87.36 290.001337 
L 87.98 290.164274 
L 88.6 290.195236 
L 90.46 290.662968 
L 91.08 290.683949 
L 91.7 290.833247 
L 92.94 290.868051 
L 98.52 292.078489 
L 100.38 292.435473 
L 101 292.420998 
L 101.62 292.278097 
L 104.1 292.733847 
L 104.72 292.713418 
L 105.96 292.928654 
L 106.58 292.904322 
L 107.2 292.751746 
L 107.82 292.730962 
L 108.44 292.839316 
L 109.06 292.816776 
L 112.16 293.32906 
L 112.78 293.039268 
L 114.02 293.241601 
L 114.64 293.082285 
L 115.88 293.028022 
L 116.5 293.130435 
L 117.12 292.84462 
L 117.74 292.950691 
L 118.36 292.668461 
L 118.98 292.649334 
L 120.22 292.357343 
L 120.84 292.344441 
L 121.46 292.203062 
L 122.08 292.19324 
L 122.7 292.054894 
L 123.32 292.048043 
L 123.94 291.526404 
L 124.56 291.530112 
L 125.18 291.27629 
L 126.42 291.038673 
L 127.66 291.320228 
L 128.28 290.813137 
L 128.9 290.831123 
L 130.14 290.101356 
L 130.76 290.13357 
L 131.38 289.907678 
L 132 290.072506 
L 132.62 289.461639 
L 133.24 289.377924 
L 133.86 289.4246 
L 135.1 289.260313 
L 136.34 288.464006 
L 136.96 288.528975 
L 137.58 287.948984 
L 138.2 288.024241 
L 138.82 287.583076 
L 139.44 287.665662 
L 140.06 287.489134 
L 140.68 286.672473 
L 141.3 286.515809 
L 141.92 285.847353 
L 142.54 285.835923 
L 143.16 285.953448 
L 143.78 285.296237 
L 144.4 284.394706 
L 145.02 283.768666 
L 145.64 283.54135 
L 146.26 282.80364 
L 146.88 281.694509 
L 147.5 281.766132 
L 148.12 281.57885 
L 148.74 280.75168 
L 149.36 280.455958 
L 150.6 279.372387 
L 151.22 278.975529 
L 151.84 278.329146 
L 152.46 278.46807 
L 153.08 278.218029 
L 153.7 277.586796 
L 154.32 277.225651 
L 154.94 276.614269 
L 155.56 276.65876 
L 156.18 275.929975 
L 156.8 275.988167 
L 157.42 275.401522 
L 158.04 275.470272 
L 158.66 275.151457 
L 159.28 275.225216 
L 159.9 275.683679 
L 160.52 275.746794 
L 161.14 274.907518 
L 161.76 274.986151 
L 162.38 275.191946 
L 163 274.235035 
L 163.62 273.940921 
L 164.24 273.009042 
L 164.86 272.996913 
L 165.48 271.955182 
L 166.1 271.19174 
L 166.72 271.087228 
L 167.34 270.598601 
L 167.96 270.89215 
L 168.58 270.407427 
L 169.2 270.189871 
L 169.82 269.333003 
L 171.06 269.709445 
L 172.3 268.796546 
L 173.54 268.045946 
L 174.16 267.61815 
L 174.78 266.684 
L 175.4 266.025979 
L 176.64 263.984503 
L 177.26 263.509209 
L 177.88 262.528499 
L 178.5 262.597249 
L 179.12 262.1497 
L 179.74 261.839835 
L 180.36 261.02124 
L 181.6 259.813883 
L 182.22 259.808193 
L 182.84 259.545158 
L 184.7 255.890333 
L 185.32 256.091844 
L 185.94 255.64567 
L 187.18 254.015256 
L 188.42 252.830452 
L 189.04 251.934581 
L 189.66 251.314096 
L 190.28 249.804897 
L 190.9 249.741929 
L 191.52 248.521633 
L 192.14 248.355596 
L 192.76 248.450342 
L 194 246.595092 
L 194.62 246.08139 
L 195.24 245.191774 
L 195.86 244.706143 
L 196.48 243.329103 
L 197.1 242.880725 
L 197.72 242.698772 
L 198.34 241.490617 
L 199.58 240.546897 
L 200.82 239.130774 
L 202.06 237.134802 
L 202.68 236.552848 
L 203.3 236.626183 
L 203.92 235.925672 
L 204.54 234.981706 
L 205.78 234.679355 
L 206.4 234.275241 
L 207.02 233.493016 
L 207.64 232.983899 
L 208.26 232.871149 
L 208.88 231.988279 
L 209.5 231.509253 
L 210.12 231.29727 
L 210.74 231.218257 
L 211.36 230.625904 
L 212.6 228.71183 
L 213.22 228.298337 
L 213.84 228.02184 
L 214.46 228.008336 
L 215.08 228.381297 
L 216.94 225.79954 
L 217.56 225.186826 
L 218.18 224.972566 
L 218.8 225.14878 
L 219.42 223.390499 
L 220.04 222.697237 
L 220.66 221.76038 
L 221.28 221.485915 
L 221.9 220.830741 
L 222.52 220.446135 
L 223.14 220.584151 
L 223.76 218.659703 
L 225 217.090765 
L 225.62 216.137304 
L 226.24 215.846566 
L 226.86 215.304186 
L 227.48 214.128991 
L 228.1 214.135884 
L 228.72 213.498982 
L 229.34 212.231165 
L 230.58 211.426572 
L 231.2 209.814009 
L 231.82 209.649737 
L 232.44 209.102559 
L 233.06 208.308861 
L 233.68 207.144847 
L 234.3 206.647765 
L 234.92 205.903165 
L 235.54 205.559649 
L 236.16 205.351733 
L 236.78 204.375594 
L 237.4 204.706283 
L 238.02 204.000511 
L 238.64 202.021546 
L 239.26 202.399317 
L 239.88 201.353494 
L 240.5 198.912542 
L 241.74 199.528761 
L 242.36 199.570195 
L 242.98 199.095877 
L 243.6 198.24485 
L 244.22 197.153386 
L 244.84 195.568823 
L 246.08 193.130072 
L 246.7 191.239784 
L 247.32 189.773495 
L 247.94 189.108915 
L 248.56 187.685245 
L 249.18 186.547508 
L 249.8 183.887754 
L 250.42 182.568505 
L 251.66 178.226996 
L 252.28 176.248577 
L 254.14 169.288383 
L 254.76 167.617466 
L 255.38 166.366161 
L 256 164.367496 
L 256.62 164.082308 
L 257.24 163.030437 
L 257.86 163.158182 
L 258.48 161.996063 
L 259.1 160.213531 
L 260.34 156.118774 
L 261.58 153.71292 
L 262.2 151.967319 
L 262.82 151.029017 
L 263.44 149.079633 
L 266.54 142.991784 
L 267.16 141.203145 
L 267.78 139.965202 
L 269.02 138.453916 
L 269.64 138.043343 
L 270.26 137.254791 
L 270.88 135.709621 
L 271.5 133.809162 
L 272.12 132.976562 
L 274.6 125.927994 
L 275.22 125.381746 
L 275.84 123.687846 
L 278.32 119.11683 
L 278.94 117.676957 
L 279.56 116.909541 
L 281.42 112.421877 
L 282.04 111.115904 
L 282.66 110.093515 
L 283.28 108.834111 
L 285.76 105.418794 
L 286.38 103.995422 
L 287 104.016556 
L 287.62 103.779805 
L 288.24 103.933983 
L 288.86 103.570155 
L 290.72 101.005094 
L 291.34 101.214769 
L 291.96 100.004208 
L 292.58 99.075319 
L 293.2 97.907542 
L 293.82 97.02059 
L 294.44 96.408834 
L 296.3 92.882142 
L 298.16 91.705231 
L 298.78 90.942323 
L 299.4 90.967061 
L 300.02 89.703992 
L 303.12 85.002017 
L 303.74 84.501905 
L 304.36 83.368141 
L 304.98 82.514508 
L 305.6 82.064148 
L 306.22 81.236597 
L 306.84 80.811791 
L 307.46 80.138024 
L 308.08 79.735187 
L 308.7 79.082948 
L 309.32 79.473601 
L 309.94 78.826598 
L 311.18 76.935211 
L 311.8 76.853896 
L 312.42 76.130556 
L 313.04 75.807868 
L 313.66 74.976714 
L 314.28 74.548378 
L 314.9 73.871144 
L 315.52 73.851108 
L 316.76 72.666531 
L 317.38 72.541854 
L 318 71.776025 
L 318.62 71.540428 
L 319.24 71.052083 
L 319.86 70.830973 
L 321.1 69.382372 
L 321.72 69.580844 
L 323.58 67.881638 
L 324.2 67.466469 
L 324.82 67.574529 
L 325.44 67.036771 
L 326.06 67.024696 
L 326.68 66.626666 
L 327.3 66.494059 
L 327.92 65.977913 
L 328.54 65.858283 
L 329.16 65.226116 
L 329.78 64.99279 
L 330.4 65.279053 
L 331.02 64.915938 
L 331.64 64.302622 
L 332.26 64.087767 
L 333.5 63.289815 
L 334.74 63.924056 
L 335.36 64.617889 
L 336.6 63.286593 
L 337.22 63.092061 
L 338.46 62.459692 
L 339.08 61.895502 
L 340.32 61.181793 
L 340.94 61.286815 
L 341.56 61.518465 
L 342.18 61.488024 
L 342.8 61.20073 
L 343.42 61.047909 
L 344.04 60.511955 
L 344.66 60.759105 
L 345.28 60.615117 
L 345.9 60.34528 
L 347.14 59.05702 
L 347.76 59.719473 
L 348.38 59.853732 
L 349.62 59.094722 
L 350.24 59.112756 
L 350.86 59.259156 
L 351.48 58.758977 
L 353.34 57.945974 
L 353.96 58.115712 
L 354.58 58.024594 
L 355.2 57.549104 
L 355.82 57.340583 
L 356.44 57.007503 
L 357.06 56.809822 
L 358.3 57.445783 
L 359.54 56.40108 
L 360.16 55.958062 
L 360.78 55.910097 
L 361.4 55.734355 
L 362.02 55.433403 
L 362.64 55.395934 
L 363.26 55.61667 
L 363.88 55.318075 
L 364.5 56.827685 
L 365.74 55.807451 
L 366.36 55.891227 
L 366.98 55.8446 
L 367.6 55.283982 
L 368.22 54.992041 
L 368.84 54.577198 
L 370.08 55.301575 
L 370.7 55.009278 
L 371.32 54.98028 
L 371.94 54.82315 
L 373.18 53.879719 
L 373.18 53.879719 
" style="fill:none;stroke:#000000;stroke-linecap:square;stroke-width:0.8;"/>
   </g>
   <g id="line2d_24">
    <path clip-path="url(#p21b009a13d)" d="M 58.22 285.275649 
L 59.46 285.530539 
L 60.08 285.7829 
L 60.7 285.901481 
L 61.32 286.146426 
L 61.94 286.129018 
L 62.56 286.240675 
L 63.8 286.712237 
L 66.9 287.32136 
L 68.76 287.958106 
L 69.38 287.775723 
L 72.48 288.772349 
L 73.1 288.831155 
L 73.72 289.017503 
L 74.34 288.942664 
L 74.96 289.126791 
L 75.58 289.178501 
L 76.82 289.023936 
L 77.44 289.077709 
L 79.92 289.781915 
L 80.54 289.820513 
L 81.78 290.150316 
L 82.4 290.181548 
L 84.88 290.800063 
L 85.5 290.818306 
L 86.12 290.707447 
L 87.36 290.747236 
L 89.84 291.321824 
L 90.46 291.329632 
L 91.08 291.079825 
L 92.94 291.49554 
L 93.56 291.37114 
L 94.18 291.377954 
L 96.04 291.776138 
L 96.66 291.774861 
L 98.52 292.149695 
L 99.14 291.883486 
L 99.76 292.008782 
L 100.38 292.002852 
L 101 292.125779 
L 101.62 292.117505 
L 102.24 291.980668 
L 102.86 291.975291 
L 103.48 291.712569 
L 104.72 291.967446 
L 105.34 291.962339 
L 106.58 292.207322 
L 107.82 292.187716 
L 110.3 292.650475 
L 112.78 292.577637 
L 113.4 292.431605 
L 115.26 292.767817 
L 115.88 292.746701 
L 120.84 293.55289 
L 121.46 293.516072 
L 122.08 293.608725 
L 122.7 293.570802 
L 123.94 293.75208 
L 125.8 293.632124 
L 130.76 294.306167 
L 131.38 294.254297 
L 132 294.074713 
L 134.48 294.390999 
L 135.1 294.337423 
L 141.92 295.0969 
L 142.54 295.029206 
L 145.02 295.271377 
L 146.26 294.87555 
L 148.12 295.068037 
L 148.74 295.00092 
L 153.08 295.416046 
L 153.7 295.341968 
L 154.94 295.453109 
L 155.56 295.378295 
L 156.8 295.488 
L 158.04 295.338481 
L 158.66 295.137229 
L 159.28 294.811269 
L 159.9 294.749284 
L 160.52 294.559804 
L 161.14 294.631586 
L 161.76 293.672085 
L 162.38 293.504151 
L 163 293.597049 
L 164.24 293.012627 
L 164.86 292.085512 
L 165.48 292.206769 
L 166.1 291.68195 
L 167.96 292.06226 
L 168.58 292.05525 
L 169.82 291.786782 
L 170.44 291.785284 
L 171.06 291.140178 
L 171.68 291.022886 
L 172.3 291.165394 
L 173.54 290.422393 
L 174.16 290.57692 
L 174.78 290.59962 
L 175.4 290.750612 
L 176.02 290.383648 
L 176.64 290.28148 
L 177.26 290.438832 
L 178.5 289.598439 
L 179.12 289.383252 
L 179.74 289.043641 
L 180.36 289.097008 
L 180.98 289.278041 
L 181.6 289.197996 
L 182.22 288.86208 
L 182.84 288.661625 
L 183.46 288.851362 
L 184.08 288.651128 
L 185.32 288.517459 
L 185.94 288.323892 
L 186.56 288.005457 
L 187.18 287.435939 
L 187.8 286.36289 
L 188.42 286.46987 
L 189.04 286.445991 
L 189.66 286.293846 
L 190.28 286.273491 
L 190.9 286.124795 
L 191.52 285.592892 
L 192.14 285.32909 
L 193.38 285.581856 
L 194 285.57573 
L 194.62 285.441005 
L 195.24 285.0515 
L 195.86 284.412324 
L 196.48 284.300863 
L 197.1 284.449092 
L 197.72 284.208161 
L 198.96 283.230883 
L 199.58 283.014309 
L 200.2 283.317004 
L 200.82 283.227446 
L 201.44 282.624755 
L 202.06 282.549045 
L 203.3 281.766193 
L 203.92 281.578924 
L 204.54 281.137931 
L 205.16 280.834499 
L 206.4 280.755473 
L 207.02 280.202222 
L 207.64 280.561157 
L 208.26 280.784176 
L 208.88 280.359082 
L 209.5 280.071217 
L 210.74 279.257772 
L 211.36 279.249387 
L 211.98 279.498654 
L 212.6 279.099266 
L 213.22 279.351517 
L 213.84 279.341278 
L 214.46 279.459957 
L 215.08 279.705001 
L 215.7 279.816425 
L 216.32 279.539412 
L 216.94 278.624291 
L 217.56 278.37112 
L 218.18 278.766677 
L 218.8 278.89686 
L 219.42 279.153161 
L 220.04 278.50323 
L 220.66 278.381212 
L 221.28 278.519104 
L 221.9 278.268032 
L 222.52 278.408184 
L 223.14 278.416802 
L 224.38 278.178645 
L 225.62 275.910811 
L 226.24 276.226839 
L 226.86 274.605584 
L 228.1 273.624942 
L 228.72 273.085575 
L 229.34 273.329379 
L 230.58 272.146969 
L 231.82 271.392428 
L 232.44 269.867852 
L 233.06 270.304745 
L 233.68 269.445581 
L 234.3 269.633452 
L 234.92 268.530251 
L 235.54 266.805467 
L 236.16 267.303596 
L 236.78 267.405579 
L 237.4 265.059627 
L 238.02 264.949026 
L 238.64 264.196977 
L 239.88 262.0992 
L 240.5 262.820195 
L 241.12 261.724532 
L 241.74 260.908239 
L 242.36 259.464622 
L 242.98 258.950994 
L 243.6 257.28906 
L 244.84 257.377784 
L 246.7 253.21186 
L 247.32 252.823282 
L 247.94 250.64025 
L 248.56 249.015797 
L 249.18 247.81003 
L 249.8 246.885842 
L 250.42 246.752517 
L 251.04 247.136785 
L 251.66 245.968597 
L 252.28 243.279001 
L 252.9 242.187973 
L 253.52 241.762412 
L 254.14 240.444251 
L 254.76 237.736412 
L 255.38 237.399882 
L 256 234.881663 
L 256.62 235.374617 
L 257.24 233.540557 
L 257.86 230.069669 
L 258.48 227.698053 
L 259.1 228.077221 
L 260.34 222.950543 
L 260.96 221.23623 
L 262.2 219.439105 
L 262.82 217.666293 
L 263.44 214.641622 
L 264.06 212.707297 
L 264.68 213.000086 
L 265.3 209.425084 
L 266.54 206.308896 
L 268.4 201.487231 
L 269.02 202.133151 
L 269.64 201.478843 
L 270.26 199.807772 
L 270.88 196.625351 
L 271.5 194.150232 
L 272.12 192.239541 
L 273.36 187.386329 
L 273.98 185.610915 
L 274.6 182.583701 
L 277.08 173.190704 
L 279.56 163.769861 
L 280.8 159.021924 
L 281.42 157.813799 
L 284.52 147.431305 
L 285.14 146.19753 
L 285.76 144.087314 
L 287 140.886043 
L 287.62 139.654441 
L 288.24 137.932549 
L 288.86 136.631286 
L 290.72 131.370073 
L 291.34 130.457521 
L 292.58 127.538528 
L 293.82 124.482815 
L 295.06 123.587208 
L 295.68 122.057927 
L 296.3 121.717812 
L 297.54 119.273644 
L 298.16 118.474289 
L 298.78 117.304733 
L 299.4 116.544756 
L 300.02 115.542519 
L 300.64 114.302865 
L 301.26 112.573081 
L 301.88 114.611091 
L 302.5 114.16245 
L 303.74 111.505123 
L 308.7 101.41682 
L 309.32 100.845877 
L 309.94 99.513961 
L 310.56 98.98107 
L 311.18 98.716297 
L 311.8 97.813171 
L 312.42 96.41318 
L 314.28 93.257073 
L 314.9 93.235515 
L 315.52 92.57073 
L 316.14 91.53305 
L 316.76 91.417243 
L 317.38 90.788821 
L 319.24 87.337741 
L 319.86 87.69203 
L 320.48 86.880654 
L 321.72 86.325812 
L 322.96 84.899542 
L 323.58 84.144019 
L 324.2 83.789798 
L 324.82 83.056465 
L 325.44 82.852726 
L 326.06 82.266868 
L 326.68 82.078917 
L 327.3 81.251077 
L 327.92 80.95471 
L 328.54 80.14935 
L 329.16 79.87502 
L 329.78 78.833792 
L 330.4 78.843239 
L 331.02 78.337566 
L 331.64 78.099477 
L 332.26 77.994873 
L 332.88 78.536019 
L 333.5 78.551421 
L 334.12 78.180319 
L 334.74 78.97522 
L 335.36 81.170266 
L 335.98 80.746785 
L 336.6 80.8467 
L 337.22 80.558423 
L 337.84 79.760987 
L 338.46 79.494428 
L 339.08 78.58954 
L 339.7 78.217677 
L 340.32 78.883101 
L 342.18 76.886638 
L 343.42 75.324385 
L 344.04 75.532752 
L 347.14 72.674505 
L 347.76 71.906017 
L 349 71.17951 
L 349.62 70.955846 
L 352.1 68.605997 
L 353.34 67.755279 
L 353.96 67.600101 
L 355.2 67.808769 
L 355.82 68.038713 
L 356.44 68.006597 
L 357.06 68.103853 
L 357.68 68.327898 
L 358.3 68.289999 
L 358.92 67.86666 
L 359.54 70.798802 
L 360.16 70.840211 
L 360.78 70.108413 
L 361.4 71.322215 
L 362.64 70.109045 
L 363.26 70.421715 
L 363.88 70.213207 
L 366.36 68.420741 
L 366.98 68.63845 
L 369.46 66.471076 
L 370.7 65.704903 
L 371.32 65.462001 
L 371.94 65.481417 
L 372.56 64.856795 
L 373.18 64.888315 
L 373.8 64.533014 
L 374.42 63.927359 
L 375.04 63.848739 
L 376.28 63.186408 
L 377.52 62.040533 
L 378.14 62.12838 
L 379.38 61.024399 
L 380 60.875108 
L 381.24 59.820756 
L 381.86 59.566812 
L 382.48 59.575405 
L 383.1 59.068891 
L 383.72 59.087442 
L 384.34 58.848155 
L 384.96 58.356202 
L 386.2 57.911378 
L 386.82 57.438146 
L 387.44 58.132974 
L 388.06 59.071359 
L 388.68 59.604784 
L 389.92 59.11051 
L 391.16 58.126037 
L 391.78 57.777255 
L 393.02 57.355352 
L 393.64 57.279445 
L 394.26 57.076314 
L 394.88 56.748525 
L 395.5 56.942215 
L 396.12 57.003292 
L 396.74 57.191887 
L 397.36 56.733056 
L 398.6 56.862281 
L 399.22 57.311156 
L 399.84 56.978665 
L 400.46 56.781561 
L 401.08 56.459665 
L 401.7 55.886734 
L 402.94 55.284817 
L 404.18 54.96162 
L 404.8 54.418656 
L 405.42 54.272747 
L 406.04 54.515949 
L 407.28 54.223198 
L 408.52 55.090329 
L 409.14 55.059711 
L 409.76 54.772251 
L 410.38 54.876738 
L 411 54.850392 
L 411.62 55.210776 
L 412.24 54.920296 
L 412.86 54.506889 
L 413.48 54.23049 
L 414.1 53.830882 
L 414.72 53.568 
L 414.72 53.568 
" style="fill:none;stroke:#000000;stroke-dasharray:2.96,1.28;stroke-dashoffset:0;stroke-width:0.8;"/>
   </g>
   <g id="patch_3">
    <path d="M 57.6 307.584 
L 57.6 41.472 
" style="fill:none;stroke:#000000;stroke-linecap:square;stroke-linejoin:miter;stroke-width:0.8;"/>
   </g>
   <g id="patch_4">
    <path d="M 414.72 307.584 
L 414.72 41.472 
" style="fill:none;stroke:#000000;stroke-linecap:square;stroke-linejoin:miter;stroke-width:0.8;"/>
   </g>
   <g id="patch_5">
    <path d="M 57.6 307.584 
L 414.72 307.584 
" style="fill:none;stroke:#000000;stroke-linecap:square;stroke-linejoin:miter;stroke-width:0.8;"/>
   </g>
   <g id="patch_6">
    <path d="M 57.6 41.472 
L 414.72 41.472 
" style="fill:none;stroke:#000000;stroke-linecap:square;stroke-linejoin:miter;stroke-width:0.8;"/>
   </g>
   <g id="legend_1">
    <g id="patch_7">
     <path d="M 64.6 78.82825 
L 151.346875 78.82825 
Q 153.346875 78.82825 153.346875 76.82825 
L 153.346875 48.472 
Q 153.346875 46.472 151.346875 46.472 
L 64.6 46.472 
Q 62.6 46.472 62.6 48.472 
L 62.6 76.82825 
Q 62.6 78.82825 64.6 78.82825 
z
" style="fill:#ffffff;opacity:0.8;stroke:#cccccc;stroke-linejoin:miter;"/>
    </g>
    <g id="line2d_25">
     <path d="M 66.6 54.570437 
L 86.6 54.570437 
" style="fill:none;stroke:#000000;stroke-linecap:square;stroke-width:0.8;"/>
    </g>
    <g id="line2d_26"/>
    <g id="text_16">
     <!-- Baseline -->
     <defs>
      <path d="M 19.671875 34.8125 
L 19.671875 8.109375 
L 35.5 8.109375 
Q 43.453125 8.109375 47.28125 11.40625 
Q 51.125 14.703125 51.125 21.484375 
Q 51.125 28.328125 47.28125 31.5625 
Q 43.453125 34.8125 35.5 34.8125 
z
M 19.671875 64.796875 
L 19.671875 42.828125 
L 34.28125 42.828125 
Q 41.5 42.828125 45.03125 45.53125 
Q 48.578125 48.25 48.578125 53.8125 
Q 48.578125 59.328125 45.03125 62.0625 
Q 41.5 64.796875 34.28125 64.796875 
z
M 9.8125 72.90625 
L 35.015625 72.90625 
Q 46.296875 72.90625 52.390625 68.21875 
Q 58.5 63.53125 58.5 54.890625 
Q 58.5 48.1875 55.375 44.234375 
Q 52.25 40.28125 46.1875 39.3125 
Q 53.46875 37.75 57.5 32.78125 
Q 61.53125 27.828125 61.53125 20.40625 
Q 61.53125 10.640625 54.890625 5.3125 
Q 48.25 0 35.984375 0 
L 9.8125 0 
z
" id="DejaVuSans-66"/>
      <path d="M 9.421875 75.984375 
L 18.40625 75.984375 
L 18.40625 0 
L 9.421875 0 
z
" id="DejaVuSans-108"/>
      <path d="M 54.890625 33.015625 
L 54.890625 0 
L 45.90625 0 
L 45.90625 32.71875 
Q 45.90625 40.484375 42.875 44.328125 
Q 39.84375 48.1875 33.796875 48.1875 
Q 26.515625 48.1875 22.3125 43.546875 
Q 18.109375 38.921875 18.109375 30.90625 
L 18.109375 0 
L 9.078125 0 
L 9.078125 54.6875 
L 18.109375 54.6875 
L 18.109375 46.1875 
Q 21.34375 51.125 25.703125 53.5625 
Q 30.078125 56 35.796875 56 
Q 45.21875 56 50.046875 50.171875 
Q 54.890625 44.34375 54.890625 33.015625 
z
" id="DejaVuSans-110"/>
     </defs>
     <g transform="translate(94.6 58.070437)scale(0.1 -0.1)">
      <use xlink:href="#DejaVuSans-66"/>
      <use x="68.603516" xlink:href="#DejaVuSans-97"/>
      <use x="129.882812" xlink:href="#DejaVuSans-115"/>
      <use x="181.982422" xlink:href="#DejaVuSans-101"/>
      <use x="243.505859" xlink:href="#DejaVuSans-108"/>
      <use x="271.289062" xlink:href="#DejaVuSans-105"/>
      <use x="299.072266" xlink:href="#DejaVuSans-110"/>
      <use x="362.451172" xlink:href="#DejaVuSans-101"/>
     </g>
    </g>
    <g id="line2d_27">
     <path d="M 66.6 69.248562 
L 86.6 69.248562 
" style="fill:none;stroke:#000000;stroke-dasharray:2.96,1.28;stroke-dashoffset:0;stroke-width:0.8;"/>
    </g>
    <g id="line2d_28"/>
    <g id="text_17">
     <!-- Slow grads -->
     <defs>
      <path d="M 53.515625 70.515625 
L 53.515625 60.890625 
Q 47.90625 63.578125 42.921875 64.890625 
Q 37.9375 66.21875 33.296875 66.21875 
Q 25.25 66.21875 20.875 63.09375 
Q 16.5 59.96875 16.5 54.203125 
Q 16.5 49.359375 19.40625 46.890625 
Q 22.3125 44.4375 30.421875 42.921875 
L 36.375 41.703125 
Q 47.40625 39.59375 52.65625 34.296875 
Q 57.90625 29 57.90625 20.125 
Q 57.90625 9.515625 50.796875 4.046875 
Q 43.703125 -1.421875 29.984375 -1.421875 
Q 24.8125 -1.421875 18.96875 -0.25 
Q 13.140625 0.921875 6.890625 3.21875 
L 6.890625 13.375 
Q 12.890625 10.015625 18.65625 8.296875 
Q 24.421875 6.59375 29.984375 6.59375 
Q 38.421875 6.59375 43.015625 9.90625 
Q 47.609375 13.234375 47.609375 19.390625 
Q 47.609375 24.75 44.3125 27.78125 
Q 41.015625 30.8125 33.5 32.328125 
L 27.484375 33.5 
Q 16.453125 35.6875 11.515625 40.375 
Q 6.59375 45.0625 6.59375 53.421875 
Q 6.59375 63.09375 13.40625 68.65625 
Q 20.21875 74.21875 32.171875 74.21875 
Q 37.3125 74.21875 42.625 73.28125 
Q 47.953125 72.359375 53.515625 70.515625 
z
" id="DejaVuSans-83"/>
      <path id="DejaVuSans-32"/>
      <path d="M 45.40625 27.984375 
Q 45.40625 37.75 41.375 43.109375 
Q 37.359375 48.484375 30.078125 48.484375 
Q 22.859375 48.484375 18.828125 43.109375 
Q 14.796875 37.75 14.796875 27.984375 
Q 14.796875 18.265625 18.828125 12.890625 
Q 22.859375 7.515625 30.078125 7.515625 
Q 37.359375 7.515625 41.375 12.890625 
Q 45.40625 18.265625 45.40625 27.984375 
z
M 54.390625 6.78125 
Q 54.390625 -7.171875 48.1875 -13.984375 
Q 42 -20.796875 29.203125 -20.796875 
Q 24.46875 -20.796875 20.265625 -20.09375 
Q 16.0625 -19.390625 12.109375 -17.921875 
L 12.109375 -9.1875 
Q 16.0625 -11.328125 19.921875 -12.34375 
Q 23.78125 -13.375 27.78125 -13.375 
Q 36.625 -13.375 41.015625 -8.765625 
Q 45.40625 -4.15625 45.40625 5.171875 
L 45.40625 9.625 
Q 42.625 4.78125 38.28125 2.390625 
Q 33.9375 0 27.875 0 
Q 17.828125 0 11.671875 7.65625 
Q 5.515625 15.328125 5.515625 27.984375 
Q 5.515625 40.671875 11.671875 48.328125 
Q 17.828125 56 27.875 56 
Q 33.9375 56 38.28125 53.609375 
Q 42.625 51.21875 45.40625 46.390625 
L 45.40625 54.6875 
L 54.390625 54.6875 
z
" id="DejaVuSans-103"/>
     </defs>
     <g transform="translate(94.6 72.748562)scale(0.1 -0.1)">
      <use xlink:href="#DejaVuSans-83"/>
      <use x="63.476562" xlink:href="#DejaVuSans-108"/>
      <use x="91.259766" xlink:href="#DejaVuSans-111"/>
      <use x="152.441406" xlink:href="#DejaVuSans-119"/>
      <use x="234.228516" xlink:href="#DejaVuSans-32"/>
      <use x="266.015625" xlink:href="#DejaVuSans-103"/>
      <use x="329.492188" xlink:href="#DejaVuSans-114"/>
      <use x="370.605469" xlink:href="#DejaVuSans-97"/>
      <use x="431.884766" xlink:href="#DejaVuSans-100"/>
      <use x="495.361328" xlink:href="#DejaVuSans-115"/>
     </g>
    </g>
   </g>
  </g>
  <g id="axes_2">
   <g id="matplotlib.axis_3">
    <g id="xtick_7">
     <g id="line2d_29">
      <path clip-path="url(#p21b009a13d)" d="M 57.6 307.584 
L 57.6 41.472 
" style="fill:none;stroke:#b0b0b0;stroke-linecap:square;stroke-width:0.8;"/>
     </g>
     <g id="line2d_30">
      <defs>
       <path d="M 0 0 
L 0 -3.5 
" id="mcdc2aef2f7" style="stroke:#000000;stroke-width:0.8;"/>
      </defs>
      <g>
       <use style="stroke:#000000;stroke-width:0.8;" x="57.6" xlink:href="#mcdc2aef2f7" y="41.472"/>
      </g>
     </g>
     <g id="text_18">
      <!-- 0.0 -->
      <defs>
       <path d="M 10.6875 12.40625 
L 21 12.40625 
L 21 0 
L 10.6875 0 
z
" id="DejaVuSans-46"/>
      </defs>
      <g transform="translate(49.648438 32.392313)scale(0.1 -0.1)">
       <use xlink:href="#DejaVuSans-48"/>
       <use x="63.623047" xlink:href="#DejaVuSans-46"/>
       <use x="95.410156" xlink:href="#DejaVuSans-48"/>
      </g>
     </g>
    </g>
    <g id="xtick_8">
     <g id="line2d_31">
      <path clip-path="url(#p21b009a13d)" d="M 97.28 307.584 
L 97.28 41.472 
" style="fill:none;stroke:#b0b0b0;stroke-linecap:square;stroke-width:0.8;"/>
     </g>
     <g id="line2d_32">
      <g>
       <use style="stroke:#000000;stroke-width:0.8;" x="97.28" xlink:href="#mcdc2aef2f7" y="41.472"/>
      </g>
     </g>
     <g id="text_19">
      <!-- 0.2 -->
      <g transform="translate(89.328438 32.392313)scale(0.1 -0.1)">
       <use xlink:href="#DejaVuSans-48"/>
       <use x="63.623047" xlink:href="#DejaVuSans-46"/>
       <use x="95.410156" xlink:href="#DejaVuSans-50"/>
      </g>
     </g>
    </g>
    <g id="xtick_9">
     <g id="line2d_33">
      <path clip-path="url(#p21b009a13d)" d="M 136.96 307.584 
L 136.96 41.472 
" style="fill:none;stroke:#b0b0b0;stroke-linecap:square;stroke-width:0.8;"/>
     </g>
     <g id="line2d_34">
      <g>
       <use style="stroke:#000000;stroke-width:0.8;" x="136.96" xlink:href="#mcdc2aef2f7" y="41.472"/>
      </g>
     </g>
     <g id="text_20">
      <!-- 0.4 -->
      <g transform="translate(129.008438 32.392313)scale(0.1 -0.1)">
       <use xlink:href="#DejaVuSans-48"/>
       <use x="63.623047" xlink:href="#DejaVuSans-46"/>
       <use x="95.410156" xlink:href="#DejaVuSans-52"/>
      </g>
     </g>
    </g>
    <g id="xtick_10">
     <g id="line2d_35">
      <path clip-path="url(#p21b009a13d)" d="M 176.64 307.584 
L 176.64 41.472 
" style="fill:none;stroke:#b0b0b0;stroke-linecap:square;stroke-width:0.8;"/>
     </g>
     <g id="line2d_36">
      <g>
       <use style="stroke:#000000;stroke-width:0.8;" x="176.64" xlink:href="#mcdc2aef2f7" y="41.472"/>
      </g>
     </g>
     <g id="text_21">
      <!-- 0.6 -->
      <defs>
       <path d="M 33.015625 40.375 
Q 26.375 40.375 22.484375 35.828125 
Q 18.609375 31.296875 18.609375 23.390625 
Q 18.609375 15.53125 22.484375 10.953125 
Q 26.375 6.390625 33.015625 6.390625 
Q 39.65625 6.390625 43.53125 10.953125 
Q 47.40625 15.53125 47.40625 23.390625 
Q 47.40625 31.296875 43.53125 35.828125 
Q 39.65625 40.375 33.015625 40.375 
z
M 52.59375 71.296875 
L 52.59375 62.3125 
Q 48.875 64.0625 45.09375 64.984375 
Q 41.3125 65.921875 37.59375 65.921875 
Q 27.828125 65.921875 22.671875 59.328125 
Q 17.53125 52.734375 16.796875 39.40625 
Q 19.671875 43.65625 24.015625 45.921875 
Q 28.375 48.1875 33.59375 48.1875 
Q 44.578125 48.1875 50.953125 41.515625 
Q 57.328125 34.859375 57.328125 23.390625 
Q 57.328125 12.15625 50.6875 5.359375 
Q 44.046875 -1.421875 33.015625 -1.421875 
Q 20.359375 -1.421875 13.671875 8.265625 
Q 6.984375 17.96875 6.984375 36.375 
Q 6.984375 53.65625 15.1875 63.9375 
Q 23.390625 74.21875 37.203125 74.21875 
Q 40.921875 74.21875 44.703125 73.484375 
Q 48.484375 72.75 52.59375 71.296875 
z
" id="DejaVuSans-54"/>
      </defs>
      <g transform="translate(168.688437 32.392313)scale(0.1 -0.1)">
       <use xlink:href="#DejaVuSans-48"/>
       <use x="63.623047" xlink:href="#DejaVuSans-46"/>
       <use x="95.410156" xlink:href="#DejaVuSans-54"/>
      </g>
     </g>
    </g>
    <g id="xtick_11">
     <g id="line2d_37">
      <path clip-path="url(#p21b009a13d)" d="M 216.32 307.584 
L 216.32 41.472 
" style="fill:none;stroke:#b0b0b0;stroke-linecap:square;stroke-width:0.8;"/>
     </g>
     <g id="line2d_38">
      <g>
       <use style="stroke:#000000;stroke-width:0.8;" x="216.32" xlink:href="#mcdc2aef2f7" y="41.472"/>
      </g>
     </g>
     <g id="text_22">
      <!-- 0.9 -->
      <defs>
       <path d="M 10.984375 1.515625 
L 10.984375 10.5 
Q 14.703125 8.734375 18.5 7.8125 
Q 22.3125 6.890625 25.984375 6.890625 
Q 35.75 6.890625 40.890625 13.453125 
Q 46.046875 20.015625 46.78125 33.40625 
Q 43.953125 29.203125 39.59375 26.953125 
Q 35.25 24.703125 29.984375 24.703125 
Q 19.046875 24.703125 12.671875 31.3125 
Q 6.296875 37.9375 6.296875 49.421875 
Q 6.296875 60.640625 12.9375 67.421875 
Q 19.578125 74.21875 30.609375 74.21875 
Q 43.265625 74.21875 49.921875 64.515625 
Q 56.59375 54.828125 56.59375 36.375 
Q 56.59375 19.140625 48.40625 8.859375 
Q 40.234375 -1.421875 26.421875 -1.421875 
Q 22.703125 -1.421875 18.890625 -0.6875 
Q 15.09375 0.046875 10.984375 1.515625 
z
M 30.609375 32.421875 
Q 37.25 32.421875 41.125 36.953125 
Q 45.015625 41.5 45.015625 49.421875 
Q 45.015625 57.28125 41.125 61.84375 
Q 37.25 66.40625 30.609375 66.40625 
Q 23.96875 66.40625 20.09375 61.84375 
Q 16.21875 57.28125 16.21875 49.421875 
Q 16.21875 41.5 20.09375 36.953125 
Q 23.96875 32.421875 30.609375 32.421875 
z
" id="DejaVuSans-57"/>
      </defs>
      <g transform="translate(208.368437 32.392313)scale(0.1 -0.1)">
       <use xlink:href="#DejaVuSans-48"/>
       <use x="63.623047" xlink:href="#DejaVuSans-46"/>
       <use x="95.410156" xlink:href="#DejaVuSans-57"/>
      </g>
     </g>
    </g>
    <g id="xtick_12">
     <g id="line2d_39">
      <path clip-path="url(#p21b009a13d)" d="M 256 307.584 
L 256 41.472 
" style="fill:none;stroke:#b0b0b0;stroke-linecap:square;stroke-width:0.8;"/>
     </g>
     <g id="line2d_40">
      <g>
       <use style="stroke:#000000;stroke-width:0.8;" x="256" xlink:href="#mcdc2aef2f7" y="41.472"/>
      </g>
     </g>
     <g id="text_23">
      <!-- 1.1 -->
      <g transform="translate(248.048437 32.392313)scale(0.1 -0.1)">
       <use xlink:href="#DejaVuSans-49"/>
       <use x="63.623047" xlink:href="#DejaVuSans-46"/>
       <use x="95.410156" xlink:href="#DejaVuSans-49"/>
      </g>
     </g>
    </g>
    <g id="xtick_13">
     <g id="line2d_41">
      <path clip-path="url(#p21b009a13d)" d="M 295.68 307.584 
L 295.68 41.472 
" style="fill:none;stroke:#b0b0b0;stroke-linecap:square;stroke-width:0.8;"/>
     </g>
     <g id="line2d_42">
      <g>
       <use style="stroke:#000000;stroke-width:0.8;" x="295.68" xlink:href="#mcdc2aef2f7" y="41.472"/>
      </g>
     </g>
     <g id="text_24">
      <!-- 1.3 -->
      <g transform="translate(287.728437 32.392313)scale(0.1 -0.1)">
       <use xlink:href="#DejaVuSans-49"/>
       <use x="63.623047" xlink:href="#DejaVuSans-46"/>
       <use x="95.410156" xlink:href="#DejaVuSans-51"/>
      </g>
     </g>
    </g>
    <g id="xtick_14">
     <g id="line2d_43">
      <path clip-path="url(#p21b009a13d)" d="M 335.36 307.584 
L 335.36 41.472 
" style="fill:none;stroke:#b0b0b0;stroke-linecap:square;stroke-width:0.8;"/>
     </g>
     <g id="line2d_44">
      <g>
       <use style="stroke:#000000;stroke-width:0.8;" x="335.36" xlink:href="#mcdc2aef2f7" y="41.472"/>
      </g>
     </g>
     <g id="text_25">
      <!-- 1.5 -->
      <g transform="translate(327.408437 32.392313)scale(0.1 -0.1)">
       <use xlink:href="#DejaVuSans-49"/>
       <use x="63.623047" xlink:href="#DejaVuSans-46"/>
       <use x="95.410156" xlink:href="#DejaVuSans-53"/>
      </g>
     </g>
    </g>
    <g id="xtick_15">
     <g id="line2d_45">
      <path clip-path="url(#p21b009a13d)" d="M 375.04 307.584 
L 375.04 41.472 
" style="fill:none;stroke:#b0b0b0;stroke-linecap:square;stroke-width:0.8;"/>
     </g>
     <g id="line2d_46">
      <g>
       <use style="stroke:#000000;stroke-width:0.8;" x="375.04" xlink:href="#mcdc2aef2f7" y="41.472"/>
      </g>
     </g>
     <g id="text_26">
      <!-- 1.7 -->
      <defs>
       <path d="M 8.203125 72.90625 
L 55.078125 72.90625 
L 55.078125 68.703125 
L 28.609375 0 
L 18.3125 0 
L 43.21875 64.59375 
L 8.203125 64.59375 
z
" id="DejaVuSans-55"/>
      </defs>
      <g transform="translate(367.088437 32.392313)scale(0.1 -0.1)">
       <use xlink:href="#DejaVuSans-49"/>
       <use x="63.623047" xlink:href="#DejaVuSans-46"/>
       <use x="95.410156" xlink:href="#DejaVuSans-55"/>
      </g>
     </g>
    </g>
    <g id="xtick_16">
     <g id="line2d_47">
      <path clip-path="url(#p21b009a13d)" d="M 414.72 307.584 
L 414.72 41.472 
" style="fill:none;stroke:#b0b0b0;stroke-linecap:square;stroke-width:0.8;"/>
     </g>
     <g id="line2d_48">
      <g>
       <use style="stroke:#000000;stroke-width:0.8;" x="414.72" xlink:href="#mcdc2aef2f7" y="41.472"/>
      </g>
     </g>
     <g id="text_27">
      <!-- 1.9 -->
      <g transform="translate(406.768438 32.392313)scale(0.1 -0.1)">
       <use xlink:href="#DejaVuSans-49"/>
       <use x="63.623047" xlink:href="#DejaVuSans-46"/>
       <use x="95.410156" xlink:href="#DejaVuSans-57"/>
      </g>
     </g>
    </g>
    <g id="text_28">
     <!-- Hours -->
     <defs>
      <path d="M 9.8125 72.90625 
L 19.671875 72.90625 
L 19.671875 43.015625 
L 55.515625 43.015625 
L 55.515625 72.90625 
L 65.375 72.90625 
L 65.375 0 
L 55.515625 0 
L 55.515625 34.71875 
L 19.671875 34.71875 
L 19.671875 0 
L 9.8125 0 
z
" id="DejaVuSans-72"/>
      <path d="M 8.5 21.578125 
L 8.5 54.6875 
L 17.484375 54.6875 
L 17.484375 21.921875 
Q 17.484375 14.15625 20.5 10.265625 
Q 23.53125 6.390625 29.59375 6.390625 
Q 36.859375 6.390625 41.078125 11.03125 
Q 45.3125 15.671875 45.3125 23.6875 
L 45.3125 54.6875 
L 54.296875 54.6875 
L 54.296875 0 
L 45.3125 0 
L 45.3125 8.40625 
Q 42.046875 3.421875 37.71875 1 
Q 33.40625 -1.421875 27.6875 -1.421875 
Q 18.265625 -1.421875 13.375 4.4375 
Q 8.5 10.296875 8.5 21.578125 
z
M 31.109375 56 
z
" id="DejaVuSans-117"/>
     </defs>
     <g transform="translate(221.511562 20.793875)scale(0.1 -0.1)">
      <use xlink:href="#DejaVuSans-72"/>
      <use x="75.195312" xlink:href="#DejaVuSans-111"/>
      <use x="136.376953" xlink:href="#DejaVuSans-117"/>
      <use x="199.755859" xlink:href="#DejaVuSans-114"/>
      <use x="240.869141" xlink:href="#DejaVuSans-115"/>
     </g>
    </g>
   </g>
   <g id="patch_8">
    <path d="M 57.6 307.584 
L 57.6 41.472 
" style="fill:none;stroke:#000000;stroke-linecap:square;stroke-linejoin:miter;stroke-width:0.8;"/>
   </g>
   <g id="patch_9">
    <path d="M 414.72 307.584 
L 414.72 41.472 
" style="fill:none;stroke:#000000;stroke-linecap:square;stroke-linejoin:miter;stroke-width:0.8;"/>
   </g>
   <g id="patch_10">
    <path d="M 57.6 307.584 
L 414.72 307.584 
" style="fill:none;stroke:#000000;stroke-linecap:square;stroke-linejoin:miter;stroke-width:0.8;"/>
   </g>
   <g id="patch_11">
    <path d="M 57.6 41.472 
L 414.72 41.472 
" style="fill:none;stroke:#000000;stroke-linecap:square;stroke-linejoin:miter;stroke-width:0.8;"/>
   </g>
  </g>
 </g>
 <defs>
  <clipPath id="p21b009a13d">
   <rect height="266.112" width="357.12" x="57.6" y="41.472"/>
  </clipPath>
 </defs>
</svg>
