<?xml version="1.0" encoding="utf-8" standalone="no"?>
<!DOCTYPE svg PUBLIC "-//W3C//DTD SVG 1.1//EN"
  "http://www.w3.org/Graphics/SVG/1.1/DTD/svg11.dtd">
<!-- Created with matplotlib (https://matplotlib.org/) -->
<svg height="345.6pt" version="1.1" viewBox="0 0 460.8 345.6" width="460.8pt" xmlns="http://www.w3.org/2000/svg" xmlns:xlink="http://www.w3.org/1999/xlink">
 <defs>
  <style type="text/css">
*{stroke-linecap:butt;stroke-linejoin:round;}
  </style>
 </defs>
 <g id="figure_1">
  <g id="patch_1">
   <path d="M 0 345.6 
L 460.8 345.6 
L 460.8 0 
L 0 0 
z
" style="fill:#ffffff;"/>
  </g>
  <g id="axes_1">
   <g id="patch_2">
    <path d="M 57.6 307.584 
L 414.72 307.584 
L 414.72 41.472 
L 57.6 41.472 
z
" style="fill:#ffffff;"/>
   </g>
   <g id="matplotlib.axis_1">
    <g id="xtick_1">
     <g id="line2d_1">
      <defs>
       <path d="M 0 0 
L 0 3.5 
" id="m843b4ccbd0" style="stroke:#000000;stroke-width:0.8;"/>
      </defs>
      <g>
       <use style="stroke:#000000;stroke-width:0.8;" x="57.6" xlink:href="#m843b4ccbd0" y="307.584"/>
      </g>
     </g>
    </g>
    <g id="xtick_2">
     <g id="line2d_2">
      <g>
       <use style="stroke:#000000;stroke-width:0.8;" x="122.595905" xlink:href="#m843b4ccbd0" y="307.584"/>
      </g>
     </g>
     <g id="text_1">
      <!-- 200K -->
      <defs>
       <path d="M 19.1875 8.296875 
L 53.609375 8.296875 
L 53.609375 0 
L 7.328125 0 
L 7.328125 8.296875 
Q 12.9375 14.109375 22.625 23.890625 
Q 32.328125 33.6875 34.8125 36.53125 
Q 39.546875 41.84375 41.421875 45.53125 
Q 43.3125 49.21875 43.3125 52.78125 
Q 43.3125 58.59375 39.234375 62.25 
Q 35.15625 65.921875 28.609375 65.921875 
Q 23.96875 65.921875 18.8125 64.3125 
Q 13.671875 62.703125 7.8125 59.421875 
L 7.8125 69.390625 
Q 13.765625 71.78125 18.9375 73 
Q 24.125 74.21875 28.421875 74.21875 
Q 39.75 74.21875 46.484375 68.546875 
Q 53.21875 62.890625 53.21875 53.421875 
Q 53.21875 48.921875 51.53125 44.890625 
Q 49.859375 40.875 45.40625 35.40625 
Q 44.1875 33.984375 37.640625 27.21875 
Q 31.109375 20.453125 19.1875 8.296875 
z
" id="DejaVuSans-50"/>
       <path d="M 31.78125 66.40625 
Q 24.171875 66.40625 20.328125 58.90625 
Q 16.5 51.421875 16.5 36.375 
Q 16.5 21.390625 20.328125 13.890625 
Q 24.171875 6.390625 31.78125 6.390625 
Q 39.453125 6.390625 43.28125 13.890625 
Q 47.125 21.390625 47.125 36.375 
Q 47.125 51.421875 43.28125 58.90625 
Q 39.453125 66.40625 31.78125 66.40625 
z
M 31.78125 74.21875 
Q 44.046875 74.21875 50.515625 64.515625 
Q 56.984375 54.828125 56.984375 36.375 
Q 56.984375 17.96875 50.515625 8.265625 
Q 44.046875 -1.421875 31.78125 -1.421875 
Q 19.53125 -1.421875 13.0625 8.265625 
Q 6.59375 17.96875 6.59375 36.375 
Q 6.59375 54.828125 13.0625 64.515625 
Q 19.53125 74.21875 31.78125 74.21875 
z
" id="DejaVuSans-48"/>
       <path d="M 9.8125 72.90625 
L 19.671875 72.90625 
L 19.671875 42.09375 
L 52.390625 72.90625 
L 65.09375 72.90625 
L 28.90625 38.921875 
L 67.671875 0 
L 54.6875 0 
L 19.671875 35.109375 
L 19.671875 0 
L 9.8125 0 
z
" id="DejaVuSans-75"/>
      </defs>
      <g transform="translate(109.773249 322.182437)scale(0.1 -0.1)">
       <use xlink:href="#DejaVuSans-50"/>
       <use x="63.623047" xlink:href="#DejaVuSans-48"/>
       <use x="127.246094" xlink:href="#DejaVuSans-48"/>
       <use x="190.869141" xlink:href="#DejaVuSans-75"/>
      </g>
     </g>
    </g>
    <g id="xtick_3">
     <g id="line2d_3">
      <g>
       <use style="stroke:#000000;stroke-width:0.8;" x="187.59181" xlink:href="#m843b4ccbd0" y="307.584"/>
      </g>
     </g>
     <g id="text_2">
      <!-- 400K -->
      <defs>
       <path d="M 37.796875 64.3125 
L 12.890625 25.390625 
L 37.796875 25.390625 
z
M 35.203125 72.90625 
L 47.609375 72.90625 
L 47.609375 25.390625 
L 58.015625 25.390625 
L 58.015625 17.1875 
L 47.609375 17.1875 
L 47.609375 0 
L 37.796875 0 
L 37.796875 17.1875 
L 4.890625 17.1875 
L 4.890625 26.703125 
z
" id="DejaVuSans-52"/>
      </defs>
      <g transform="translate(174.769154 322.182437)scale(0.1 -0.1)">
       <use xlink:href="#DejaVuSans-52"/>
       <use x="63.623047" xlink:href="#DejaVuSans-48"/>
       <use x="127.246094" xlink:href="#DejaVuSans-48"/>
       <use x="190.869141" xlink:href="#DejaVuSans-75"/>
      </g>
     </g>
    </g>
    <g id="xtick_4">
     <g id="line2d_4">
      <g>
       <use style="stroke:#000000;stroke-width:0.8;" x="252.587715" xlink:href="#m843b4ccbd0" y="307.584"/>
      </g>
     </g>
     <g id="text_3">
      <!-- 600K -->
      <defs>
       <path d="M 33.015625 40.375 
Q 26.375 40.375 22.484375 35.828125 
Q 18.609375 31.296875 18.609375 23.390625 
Q 18.609375 15.53125 22.484375 10.953125 
Q 26.375 6.390625 33.015625 6.390625 
Q 39.65625 6.390625 43.53125 10.953125 
Q 47.40625 15.53125 47.40625 23.390625 
Q 47.40625 31.296875 43.53125 35.828125 
Q 39.65625 40.375 33.015625 40.375 
z
M 52.59375 71.296875 
L 52.59375 62.3125 
Q 48.875 64.0625 45.09375 64.984375 
Q 41.3125 65.921875 37.59375 65.921875 
Q 27.828125 65.921875 22.671875 59.328125 
Q 17.53125 52.734375 16.796875 39.40625 
Q 19.671875 43.65625 24.015625 45.921875 
Q 28.375 48.1875 33.59375 48.1875 
Q 44.578125 48.1875 50.953125 41.515625 
Q 57.328125 34.859375 57.328125 23.390625 
Q 57.328125 12.15625 50.6875 5.359375 
Q 44.046875 -1.421875 33.015625 -1.421875 
Q 20.359375 -1.421875 13.671875 8.265625 
Q 6.984375 17.96875 6.984375 36.375 
Q 6.984375 53.65625 15.1875 63.9375 
Q 23.390625 74.21875 37.203125 74.21875 
Q 40.921875 74.21875 44.703125 73.484375 
Q 48.484375 72.75 52.59375 71.296875 
z
" id="DejaVuSans-54"/>
      </defs>
      <g transform="translate(239.765059 322.182437)scale(0.1 -0.1)">
       <use xlink:href="#DejaVuSans-54"/>
       <use x="63.623047" xlink:href="#DejaVuSans-48"/>
       <use x="127.246094" xlink:href="#DejaVuSans-48"/>
       <use x="190.869141" xlink:href="#DejaVuSans-75"/>
      </g>
     </g>
    </g>
    <g id="xtick_5">
     <g id="line2d_5">
      <g>
       <use style="stroke:#000000;stroke-width:0.8;" x="317.58362" xlink:href="#m843b4ccbd0" y="307.584"/>
      </g>
     </g>
     <g id="text_4">
      <!-- 800K -->
      <defs>
       <path d="M 31.78125 34.625 
Q 24.75 34.625 20.71875 30.859375 
Q 16.703125 27.09375 16.703125 20.515625 
Q 16.703125 13.921875 20.71875 10.15625 
Q 24.75 6.390625 31.78125 6.390625 
Q 38.8125 6.390625 42.859375 10.171875 
Q 46.921875 13.96875 46.921875 20.515625 
Q 46.921875 27.09375 42.890625 30.859375 
Q 38.875 34.625 31.78125 34.625 
z
M 21.921875 38.8125 
Q 15.578125 40.375 12.03125 44.71875 
Q 8.5 49.078125 8.5 55.328125 
Q 8.5 64.0625 14.71875 69.140625 
Q 20.953125 74.21875 31.78125 74.21875 
Q 42.671875 74.21875 48.875 69.140625 
Q 55.078125 64.0625 55.078125 55.328125 
Q 55.078125 49.078125 51.53125 44.71875 
Q 48 40.375 41.703125 38.8125 
Q 48.828125 37.15625 52.796875 32.3125 
Q 56.78125 27.484375 56.78125 20.515625 
Q 56.78125 9.90625 50.3125 4.234375 
Q 43.84375 -1.421875 31.78125 -1.421875 
Q 19.734375 -1.421875 13.25 4.234375 
Q 6.78125 9.90625 6.78125 20.515625 
Q 6.78125 27.484375 10.78125 32.3125 
Q 14.796875 37.15625 21.921875 38.8125 
z
M 18.3125 54.390625 
Q 18.3125 48.734375 21.84375 45.5625 
Q 25.390625 42.390625 31.78125 42.390625 
Q 38.140625 42.390625 41.71875 45.5625 
Q 45.3125 48.734375 45.3125 54.390625 
Q 45.3125 60.0625 41.71875 63.234375 
Q 38.140625 66.40625 31.78125 66.40625 
Q 25.390625 66.40625 21.84375 63.234375 
Q 18.3125 60.0625 18.3125 54.390625 
z
" id="DejaVuSans-56"/>
      </defs>
      <g transform="translate(304.760964 322.182437)scale(0.1 -0.1)">
       <use xlink:href="#DejaVuSans-56"/>
       <use x="63.623047" xlink:href="#DejaVuSans-48"/>
       <use x="127.246094" xlink:href="#DejaVuSans-48"/>
       <use x="190.869141" xlink:href="#DejaVuSans-75"/>
      </g>
     </g>
    </g>
    <g id="xtick_6">
     <g id="line2d_6">
      <g>
       <use style="stroke:#000000;stroke-width:0.8;" x="382.579525" xlink:href="#m843b4ccbd0" y="307.584"/>
      </g>
     </g>
     <g id="text_5">
      <!-- 1,000K -->
      <defs>
       <path d="M 12.40625 8.296875 
L 28.515625 8.296875 
L 28.515625 63.921875 
L 10.984375 60.40625 
L 10.984375 69.390625 
L 28.421875 72.90625 
L 38.28125 72.90625 
L 38.28125 8.296875 
L 54.390625 8.296875 
L 54.390625 0 
L 12.40625 0 
z
" id="DejaVuSans-49"/>
       <path d="M 11.71875 12.40625 
L 22.015625 12.40625 
L 22.015625 4 
L 14.015625 -11.625 
L 7.71875 -11.625 
L 11.71875 4 
z
" id="DejaVuSans-44"/>
      </defs>
      <g transform="translate(364.986556 322.182437)scale(0.1 -0.1)">
       <use xlink:href="#DejaVuSans-49"/>
       <use x="63.623047" xlink:href="#DejaVuSans-44"/>
       <use x="95.410156" xlink:href="#DejaVuSans-48"/>
       <use x="159.033203" xlink:href="#DejaVuSans-48"/>
       <use x="222.65625" xlink:href="#DejaVuSans-48"/>
       <use x="286.279297" xlink:href="#DejaVuSans-75"/>
      </g>
     </g>
    </g>
    <g id="text_6">
     <!-- Train steps -->
     <defs>
      <path d="M -0.296875 72.90625 
L 61.375 72.90625 
L 61.375 64.59375 
L 35.5 64.59375 
L 35.5 0 
L 25.59375 0 
L 25.59375 64.59375 
L -0.296875 64.59375 
z
" id="DejaVuSans-84"/>
      <path d="M 41.109375 46.296875 
Q 39.59375 47.171875 37.8125 47.578125 
Q 36.03125 48 33.890625 48 
Q 26.265625 48 22.1875 43.046875 
Q 18.109375 38.09375 18.109375 28.8125 
L 18.109375 0 
L 9.078125 0 
L 9.078125 54.6875 
L 18.109375 54.6875 
L 18.109375 46.1875 
Q 20.953125 51.171875 25.484375 53.578125 
Q 30.03125 56 36.53125 56 
Q 37.453125 56 38.578125 55.875 
Q 39.703125 55.765625 41.0625 55.515625 
z
" id="DejaVuSans-114"/>
      <path d="M 34.28125 27.484375 
Q 23.390625 27.484375 19.1875 25 
Q 14.984375 22.515625 14.984375 16.5 
Q 14.984375 11.71875 18.140625 8.90625 
Q 21.296875 6.109375 26.703125 6.109375 
Q 34.1875 6.109375 38.703125 11.40625 
Q 43.21875 16.703125 43.21875 25.484375 
L 43.21875 27.484375 
z
M 52.203125 31.203125 
L 52.203125 0 
L 43.21875 0 
L 43.21875 8.296875 
Q 40.140625 3.328125 35.546875 0.953125 
Q 30.953125 -1.421875 24.3125 -1.421875 
Q 15.921875 -1.421875 10.953125 3.296875 
Q 6 8.015625 6 15.921875 
Q 6 25.140625 12.171875 29.828125 
Q 18.359375 34.515625 30.609375 34.515625 
L 43.21875 34.515625 
L 43.21875 35.40625 
Q 43.21875 41.609375 39.140625 45 
Q 35.0625 48.390625 27.6875 48.390625 
Q 23 48.390625 18.546875 47.265625 
Q 14.109375 46.140625 10.015625 43.890625 
L 10.015625 52.203125 
Q 14.9375 54.109375 19.578125 55.046875 
Q 24.21875 56 28.609375 56 
Q 40.484375 56 46.34375 49.84375 
Q 52.203125 43.703125 52.203125 31.203125 
z
" id="DejaVuSans-97"/>
      <path d="M 9.421875 54.6875 
L 18.40625 54.6875 
L 18.40625 0 
L 9.421875 0 
z
M 9.421875 75.984375 
L 18.40625 75.984375 
L 18.40625 64.59375 
L 9.421875 64.59375 
z
" id="DejaVuSans-105"/>
      <path d="M 54.890625 33.015625 
L 54.890625 0 
L 45.90625 0 
L 45.90625 32.71875 
Q 45.90625 40.484375 42.875 44.328125 
Q 39.84375 48.1875 33.796875 48.1875 
Q 26.515625 48.1875 22.3125 43.546875 
Q 18.109375 38.921875 18.109375 30.90625 
L 18.109375 0 
L 9.078125 0 
L 9.078125 54.6875 
L 18.109375 54.6875 
L 18.109375 46.1875 
Q 21.34375 51.125 25.703125 53.5625 
Q 30.078125 56 35.796875 56 
Q 45.21875 56 50.046875 50.171875 
Q 54.890625 44.34375 54.890625 33.015625 
z
" id="DejaVuSans-110"/>
      <path id="DejaVuSans-32"/>
      <path d="M 44.28125 53.078125 
L 44.28125 44.578125 
Q 40.484375 46.53125 36.375 47.5 
Q 32.28125 48.484375 27.875 48.484375 
Q 21.1875 48.484375 17.84375 46.4375 
Q 14.5 44.390625 14.5 40.28125 
Q 14.5 37.15625 16.890625 35.375 
Q 19.28125 33.59375 26.515625 31.984375 
L 29.59375 31.296875 
Q 39.15625 29.25 43.1875 25.515625 
Q 47.21875 21.78125 47.21875 15.09375 
Q 47.21875 7.46875 41.1875 3.015625 
Q 35.15625 -1.421875 24.609375 -1.421875 
Q 20.21875 -1.421875 15.453125 -0.5625 
Q 10.6875 0.296875 5.421875 2 
L 5.421875 11.28125 
Q 10.40625 8.6875 15.234375 7.390625 
Q 20.0625 6.109375 24.8125 6.109375 
Q 31.15625 6.109375 34.5625 8.28125 
Q 37.984375 10.453125 37.984375 14.40625 
Q 37.984375 18.0625 35.515625 20.015625 
Q 33.0625 21.96875 24.703125 23.78125 
L 21.578125 24.515625 
Q 13.234375 26.265625 9.515625 29.90625 
Q 5.8125 33.546875 5.8125 39.890625 
Q 5.8125 47.609375 11.28125 51.796875 
Q 16.75 56 26.8125 56 
Q 31.78125 56 36.171875 55.265625 
Q 40.578125 54.546875 44.28125 53.078125 
z
" id="DejaVuSans-115"/>
      <path d="M 18.3125 70.21875 
L 18.3125 54.6875 
L 36.8125 54.6875 
L 36.8125 47.703125 
L 18.3125 47.703125 
L 18.3125 18.015625 
Q 18.3125 11.328125 20.140625 9.421875 
Q 21.96875 7.515625 27.59375 7.515625 
L 36.8125 7.515625 
L 36.8125 0 
L 27.59375 0 
Q 17.1875 0 13.234375 3.875 
Q 9.28125 7.765625 9.28125 18.015625 
L 9.28125 47.703125 
L 2.6875 47.703125 
L 2.6875 54.6875 
L 9.28125 54.6875 
L 9.28125 70.21875 
z
" id="DejaVuSans-116"/>
      <path d="M 56.203125 29.59375 
L 56.203125 25.203125 
L 14.890625 25.203125 
Q 15.484375 15.921875 20.484375 11.0625 
Q 25.484375 6.203125 34.421875 6.203125 
Q 39.59375 6.203125 44.453125 7.46875 
Q 49.3125 8.734375 54.109375 11.28125 
L 54.109375 2.78125 
Q 49.265625 0.734375 44.1875 -0.34375 
Q 39.109375 -1.421875 33.890625 -1.421875 
Q 20.796875 -1.421875 13.15625 6.1875 
Q 5.515625 13.8125 5.515625 26.8125 
Q 5.515625 40.234375 12.765625 48.109375 
Q 20.015625 56 32.328125 56 
Q 43.359375 56 49.78125 48.890625 
Q 56.203125 41.796875 56.203125 29.59375 
z
M 47.21875 32.234375 
Q 47.125 39.59375 43.09375 43.984375 
Q 39.0625 48.390625 32.421875 48.390625 
Q 24.90625 48.390625 20.390625 44.140625 
Q 15.875 39.890625 15.1875 32.171875 
z
" id="DejaVuSans-101"/>
      <path d="M 18.109375 8.203125 
L 18.109375 -20.796875 
L 9.078125 -20.796875 
L 9.078125 54.6875 
L 18.109375 54.6875 
L 18.109375 46.390625 
Q 20.953125 51.265625 25.265625 53.625 
Q 29.59375 56 35.59375 56 
Q 45.5625 56 51.78125 48.09375 
Q 58.015625 40.1875 58.015625 27.296875 
Q 58.015625 14.40625 51.78125 6.484375 
Q 45.5625 -1.421875 35.59375 -1.421875 
Q 29.59375 -1.421875 25.265625 0.953125 
Q 20.953125 3.328125 18.109375 8.203125 
z
M 48.6875 27.296875 
Q 48.6875 37.203125 44.609375 42.84375 
Q 40.53125 48.484375 33.40625 48.484375 
Q 26.265625 48.484375 22.1875 42.84375 
Q 18.109375 37.203125 18.109375 27.296875 
Q 18.109375 17.390625 22.1875 11.75 
Q 26.265625 6.109375 33.40625 6.109375 
Q 40.53125 6.109375 44.609375 11.75 
Q 48.6875 17.390625 48.6875 27.296875 
z
" id="DejaVuSans-112"/>
     </defs>
     <g transform="translate(208.430312 335.860562)scale(0.1 -0.1)">
      <use xlink:href="#DejaVuSans-84"/>
      <use x="60.865234" xlink:href="#DejaVuSans-114"/>
      <use x="101.978516" xlink:href="#DejaVuSans-97"/>
      <use x="163.257812" xlink:href="#DejaVuSans-105"/>
      <use x="191.041016" xlink:href="#DejaVuSans-110"/>
      <use x="254.419922" xlink:href="#DejaVuSans-32"/>
      <use x="286.207031" xlink:href="#DejaVuSans-115"/>
      <use x="338.306641" xlink:href="#DejaVuSans-116"/>
      <use x="377.515625" xlink:href="#DejaVuSans-101"/>
      <use x="439.039062" xlink:href="#DejaVuSans-112"/>
      <use x="502.515625" xlink:href="#DejaVuSans-115"/>
     </g>
    </g>
   </g>
   <g id="matplotlib.axis_2">
    <g id="ytick_1">
     <g id="line2d_7">
      <path clip-path="url(#p7b1be02120)" d="M 57.6 288.297637 
L 414.72 288.297637 
" style="fill:none;stroke:#b0b0b0;stroke-linecap:square;stroke-width:0.8;"/>
     </g>
     <g id="line2d_8">
      <defs>
       <path d="M 0 0 
L -3.5 0 
" id="mb6b6256dfe" style="stroke:#000000;stroke-width:0.8;"/>
      </defs>
      <g>
       <use style="stroke:#000000;stroke-width:0.8;" x="57.6" xlink:href="#mb6b6256dfe" y="288.297637"/>
      </g>
     </g>
     <g id="text_7">
      <!-- 157 -->
      <defs>
       <path d="M 10.796875 72.90625 
L 49.515625 72.90625 
L 49.515625 64.59375 
L 19.828125 64.59375 
L 19.828125 46.734375 
Q 21.96875 47.46875 24.109375 47.828125 
Q 26.265625 48.1875 28.421875 48.1875 
Q 40.625 48.1875 47.75 41.5 
Q 54.890625 34.8125 54.890625 23.390625 
Q 54.890625 11.625 47.5625 5.09375 
Q 40.234375 -1.421875 26.90625 -1.421875 
Q 22.3125 -1.421875 17.546875 -0.640625 
Q 12.796875 0.140625 7.71875 1.703125 
L 7.71875 11.625 
Q 12.109375 9.234375 16.796875 8.0625 
Q 21.484375 6.890625 26.703125 6.890625 
Q 35.15625 6.890625 40.078125 11.328125 
Q 45.015625 15.765625 45.015625 23.390625 
Q 45.015625 31 40.078125 35.4375 
Q 35.15625 39.890625 26.703125 39.890625 
Q 22.75 39.890625 18.8125 39.015625 
Q 14.890625 38.140625 10.796875 36.28125 
z
" id="DejaVuSans-53"/>
       <path d="M 8.203125 72.90625 
L 55.078125 72.90625 
L 55.078125 68.703125 
L 28.609375 0 
L 18.3125 0 
L 43.21875 64.59375 
L 8.203125 64.59375 
z
" id="DejaVuSans-55"/>
      </defs>
      <g transform="translate(31.5125 292.096856)scale(0.1 -0.1)">
       <use xlink:href="#DejaVuSans-49"/>
       <use x="63.623047" xlink:href="#DejaVuSans-53"/>
       <use x="127.246094" xlink:href="#DejaVuSans-55"/>
      </g>
     </g>
    </g>
    <g id="ytick_2">
     <g id="line2d_9">
      <path clip-path="url(#p7b1be02120)" d="M 57.6 234.547479 
L 414.72 234.547479 
" style="fill:none;stroke:#b0b0b0;stroke-linecap:square;stroke-width:0.8;"/>
     </g>
     <g id="line2d_10">
      <g>
       <use style="stroke:#000000;stroke-width:0.8;" x="57.6" xlink:href="#mb6b6256dfe" y="234.547479"/>
      </g>
     </g>
     <g id="text_8">
      <!-- 158 -->
      <g transform="translate(31.5125 238.346698)scale(0.1 -0.1)">
       <use xlink:href="#DejaVuSans-49"/>
       <use x="63.623047" xlink:href="#DejaVuSans-53"/>
       <use x="127.246094" xlink:href="#DejaVuSans-56"/>
      </g>
     </g>
    </g>
    <g id="ytick_3">
     <g id="line2d_11">
      <path clip-path="url(#p7b1be02120)" d="M 57.6 180.797321 
L 414.72 180.797321 
" style="fill:none;stroke:#b0b0b0;stroke-linecap:square;stroke-width:0.8;"/>
     </g>
     <g id="line2d_12">
      <g>
       <use style="stroke:#000000;stroke-width:0.8;" x="57.6" xlink:href="#mb6b6256dfe" y="180.797321"/>
      </g>
     </g>
     <g id="text_9">
      <!-- 159 -->
      <defs>
       <path d="M 10.984375 1.515625 
L 10.984375 10.5 
Q 14.703125 8.734375 18.5 7.8125 
Q 22.3125 6.890625 25.984375 6.890625 
Q 35.75 6.890625 40.890625 13.453125 
Q 46.046875 20.015625 46.78125 33.40625 
Q 43.953125 29.203125 39.59375 26.953125 
Q 35.25 24.703125 29.984375 24.703125 
Q 19.046875 24.703125 12.671875 31.3125 
Q 6.296875 37.9375 6.296875 49.421875 
Q 6.296875 60.640625 12.9375 67.421875 
Q 19.578125 74.21875 30.609375 74.21875 
Q 43.265625 74.21875 49.921875 64.515625 
Q 56.59375 54.828125 56.59375 36.375 
Q 56.59375 19.140625 48.40625 8.859375 
Q 40.234375 -1.421875 26.421875 -1.421875 
Q 22.703125 -1.421875 18.890625 -0.6875 
Q 15.09375 0.046875 10.984375 1.515625 
z
M 30.609375 32.421875 
Q 37.25 32.421875 41.125 36.953125 
Q 45.015625 41.5 45.015625 49.421875 
Q 45.015625 57.28125 41.125 61.84375 
Q 37.25 66.40625 30.609375 66.40625 
Q 23.96875 66.40625 20.09375 61.84375 
Q 16.21875 57.28125 16.21875 49.421875 
Q 16.21875 41.5 20.09375 36.953125 
Q 23.96875 32.421875 30.609375 32.421875 
z
" id="DejaVuSans-57"/>
      </defs>
      <g transform="translate(31.5125 184.59654)scale(0.1 -0.1)">
       <use xlink:href="#DejaVuSans-49"/>
       <use x="63.623047" xlink:href="#DejaVuSans-53"/>
       <use x="127.246094" xlink:href="#DejaVuSans-57"/>
      </g>
     </g>
    </g>
    <g id="ytick_4">
     <g id="line2d_13">
      <path clip-path="url(#p7b1be02120)" d="M 57.6 127.047163 
L 414.72 127.047163 
" style="fill:none;stroke:#b0b0b0;stroke-linecap:square;stroke-width:0.8;"/>
     </g>
     <g id="line2d_14">
      <g>
       <use style="stroke:#000000;stroke-width:0.8;" x="57.6" xlink:href="#mb6b6256dfe" y="127.047163"/>
      </g>
     </g>
     <g id="text_10">
      <!-- 160 -->
      <g transform="translate(31.5125 130.846382)scale(0.1 -0.1)">
       <use xlink:href="#DejaVuSans-49"/>
       <use x="63.623047" xlink:href="#DejaVuSans-54"/>
       <use x="127.246094" xlink:href="#DejaVuSans-48"/>
      </g>
     </g>
    </g>
    <g id="ytick_5">
     <g id="line2d_15">
      <path clip-path="url(#p7b1be02120)" d="M 57.6 73.297005 
L 414.72 73.297005 
" style="fill:none;stroke:#b0b0b0;stroke-linecap:square;stroke-width:0.8;"/>
     </g>
     <g id="line2d_16">
      <g>
       <use style="stroke:#000000;stroke-width:0.8;" x="57.6" xlink:href="#mb6b6256dfe" y="73.297005"/>
      </g>
     </g>
     <g id="text_11">
      <!-- 161 -->
      <g transform="translate(31.5125 77.096223)scale(0.1 -0.1)">
       <use xlink:href="#DejaVuSans-49"/>
       <use x="63.623047" xlink:href="#DejaVuSans-54"/>
       <use x="127.246094" xlink:href="#DejaVuSans-49"/>
      </g>
     </g>
    </g>
    <g id="text_12">
     <!-- FPS -->
     <defs>
      <path d="M 9.8125 72.90625 
L 51.703125 72.90625 
L 51.703125 64.59375 
L 19.671875 64.59375 
L 19.671875 43.109375 
L 48.578125 43.109375 
L 48.578125 34.8125 
L 19.671875 34.8125 
L 19.671875 0 
L 9.8125 0 
z
" id="DejaVuSans-70"/>
      <path d="M 19.671875 64.796875 
L 19.671875 37.40625 
L 32.078125 37.40625 
Q 38.96875 37.40625 42.71875 40.96875 
Q 46.484375 44.53125 46.484375 51.125 
Q 46.484375 57.671875 42.71875 61.234375 
Q 38.96875 64.796875 32.078125 64.796875 
z
M 9.8125 72.90625 
L 32.078125 72.90625 
Q 44.34375 72.90625 50.609375 67.359375 
Q 56.890625 61.8125 56.890625 51.125 
Q 56.890625 40.328125 50.609375 34.8125 
Q 44.34375 29.296875 32.078125 29.296875 
L 19.671875 29.296875 
L 19.671875 0 
L 9.8125 0 
z
" id="DejaVuSans-80"/>
      <path d="M 53.515625 70.515625 
L 53.515625 60.890625 
Q 47.90625 63.578125 42.921875 64.890625 
Q 37.9375 66.21875 33.296875 66.21875 
Q 25.25 66.21875 20.875 63.09375 
Q 16.5 59.96875 16.5 54.203125 
Q 16.5 49.359375 19.40625 46.890625 
Q 22.3125 44.4375 30.421875 42.921875 
L 36.375 41.703125 
Q 47.40625 39.59375 52.65625 34.296875 
Q 57.90625 29 57.90625 20.125 
Q 57.90625 9.515625 50.796875 4.046875 
Q 43.703125 -1.421875 29.984375 -1.421875 
Q 24.8125 -1.421875 18.96875 -0.25 
Q 13.140625 0.921875 6.890625 3.21875 
L 6.890625 13.375 
Q 12.890625 10.015625 18.65625 8.296875 
Q 24.421875 6.59375 29.984375 6.59375 
Q 38.421875 6.59375 43.015625 9.90625 
Q 47.609375 13.234375 47.609375 19.390625 
Q 47.609375 24.75 44.3125 27.78125 
Q 41.015625 30.8125 33.5 32.328125 
L 27.484375 33.5 
Q 16.453125 35.6875 11.515625 40.375 
Q 6.59375 45.0625 6.59375 53.421875 
Q 6.59375 63.09375 13.40625 68.65625 
Q 20.21875 74.21875 32.171875 74.21875 
Q 37.3125 74.21875 42.625 73.28125 
Q 47.953125 72.359375 53.515625 70.515625 
z
" id="DejaVuSans-83"/>
     </defs>
     <g transform="translate(25.432812 183.592844)rotate(-90)scale(0.1 -0.1)">
      <use xlink:href="#DejaVuSans-70"/>
      <use x="57.519531" xlink:href="#DejaVuSans-80"/>
      <use x="117.822266" xlink:href="#DejaVuSans-83"/>
     </g>
    </g>
   </g>
   <g id="line2d_17">
    <path clip-path="url(#p7b1be02120)" d="M 58.249959 66.831665 
L 58.444947 66.831665 
L 59.02991 79.818115 
L 59.127404 77.82102 
L 59.484881 76.480875 
L 59.972351 75.257193 
L 60.069844 83.864796 
L 60.719803 82.403267 
L 61.109779 82.126052 
L 61.759738 85.113903 
L 62.702179 86.546727 
L 62.799672 83.692562 
L 63.092154 88.200994 
L 63.612121 86.489316 
L 63.677117 84.170717 
L 65.107027 87.995134 
L 65.269517 86.312981 
L 65.756986 83.502284 
L 65.951974 80.85234 
L 66.114464 80.85234 
L 66.341949 81.81111 
L 66.536937 86.892836 
L 67.739361 82.262199 
L 67.999345 83.68108 
L 68.681802 88.410136 
L 68.941785 87.854886 
L 69.591744 90.782865 
L 71.379132 85.04665 
L 72.126585 81.011452 
L 72.711548 83.192263 
L 72.744046 83.192263 
L 73.069025 83.763916 
L 73.686486 83.425189 
L 74.368943 84.948231 
L 74.921409 83.856595 
L 75.083898 83.856595 
L 75.961343 87.727761 
L 76.286323 81.995646 
L 76.48131 81.995646 
L 76.741294 79.162806 
L 77.878722 78.669888 
L 78.268698 75.916603 
L 78.496183 75.916603 
L 78.593677 72.531793 
L 79.146143 72.540815 
L 79.471122 72.961558 
L 80.868534 77.563489 
L 81.128518 76.768752 
L 81.388501 76.539927 
L 81.680983 75.746009 
L 82.233448 73.613587 
L 82.52593 69.450443 
L 82.785913 69.450443 
L 83.013399 65.375057 
L 83.175889 65.375057 
L 83.240885 60.99375 
L 83.46837 60.99375 
L 83.598362 57.373553 
L 83.728354 57.373553 
L 83.955839 58.286394 
L 84.703292 53.568 
L 84.833284 53.568 
L 86.133202 58.4168 
L 86.32819 58.279833 
L 86.913153 58.976971 
L 87.205635 61.386607 
L 87.465618 61.386607 
L 88.278067 64.982199 
L 88.375561 64.982199 
L 88.668043 70.74794 
L 88.928026 71.426214 
L 89.253006 71.426214 
L 89.480491 72.445676 
L 89.642981 72.445676 
L 90.227944 73.749734 
L 90.325438 77.1124 
L 90.61792 77.1124 
L 91.592858 80.681746 
L 92.015332 84.848991 
L 92.697789 84.817005 
L 92.860278 87.849965 
L 93.185258 88.597953 
L 93.380246 88.597953 
L 93.542735 92.109068 
L 93.867715 93.652613 
L 95.232629 96.040926 
L 96.01258 96.118842 
L 96.435053 96.268111 
L 96.857527 98.922156 
L 97.702473 100.690426 
L 98.092449 103.747171 
L 98.449926 103.747171 
L 98.644914 104.364754 
L 99.294873 105.462131 
L 99.489861 109.389888 
L 99.717346 109.389888 
L 99.912334 109.818833 
L 100.529795 110.567641 
L 100.887273 110.567641 
L 101.08226 111.883182 
L 101.114758 111.883182 
L 102.772154 118.320636 
L 102.902146 118.320636 
L 103.617101 118.607692 
L 104.007076 118.985787 
L 104.332056 120.555578 
L 104.462048 120.555578 
L 105.306994 119.823993 
L 105.664472 118.931657 
L 105.924455 118.931657 
L 106.119443 120.692545 
L 107.289369 121.799764 
L 108.101818 124.249589 
L 108.654283 125.16407 
L 109.141753 127.779568 
L 109.82421 127.827957 
L 110.539165 128.134698 
L 110.701654 131.017569 
L 111.221622 131.017569 
L 111.611597 131.454715 
L 112.326552 131.545753 
L 112.619034 134.564771 
L 112.879017 134.564771 
L 112.976511 134.846906 
L 113.496478 134.846906 
L 113.821458 136.550384 
L 114.016446 136.550384 
L 114.113939 135.951665 
L 114.406421 135.951665 
L 115.05638 135.608017 
L 115.348862 135.134783 
L 115.543849 135.134783 
L 115.803833 135.719559 
L 116.096314 135.719559 
L 116.3238 134.701738 
L 117.136249 133.730666 
L 117.59122 133.681456 
L 117.883702 132.43727 
L 118.403669 132.43727 
L 118.663653 133.781516 
L 119.768583 132.605403 
L 119.963571 131.725369 
L 120.516036 132.723506 
L 121.003505 132.723506 
L 121.588468 133.40178 
L 122.108436 136.159986 
L 122.823391 137.64366 
L 123.083374 137.64366 
L 123.635839 139.548077 
L 123.830827 139.548077 
L 124.610778 141.963455 
L 125.033251 141.963455 
L 125.163243 141.545992 
L 125.780704 141.545992 
L 127.373104 143.70466 
L 127.730581 143.70466 
L 128.023063 144.31158 
L 128.413038 144.31158 
L 128.86801 143.899038 
L 129.387977 143.899038 
L 129.517969 144.200858 
L 130.167928 143.565232 
L 130.687895 143.565232 
L 131.012875 142.638449 
L 131.175364 142.638449 
L 131.792826 144.027804 
L 132.507781 144.027804 
L 132.637772 145.632861 
L 133.060246 145.632861 
L 134.165176 145.870708 
L 135.400098 149.503207 
L 136.830008 151.216526 
L 137.089992 151.216526 
L 137.382473 152.85275 
L 137.609959 152.85275 
L 138.454906 153.213622 
L 138.844881 155.600294 
L 140.437281 155.676569 
L 140.632269 156.516415 
L 141.444717 156.516415 
L 141.834693 156.760003 
L 142.907125 156.868265 
L 143.134611 155.306676 
L 143.78457 155.306676 
L 143.94706 155.190213 
L 145.506962 155.159867 
L 145.734447 155.658525 
L 146.221916 155.658525 
L 146.709386 154.424181 
L 147.164357 154.424181 
L 148.366781 154.228982 
L 148.951744 154.228982 
L 149.439214 152.883916 
L 150.999115 152.226966 
L 151.291597 152.226966 
L 151.584079 153.197218 
L 151.779066 153.197218 
L 152.559017 153.791836 
L 154.086421 155.98249 
L 154.346405 155.98249 
L 155.093857 156.480328 
L 155.646323 156.480328 
L 156.133792 156.078449 
L 157.466208 155.970187 
L 158.376151 155.648683 
L 159.123604 154.691554 
L 159.611073 154.691554 
L 160.033546 154.880191 
L 160.391024 154.880191 
L 160.910991 156.263805 
L 161.528452 157.132357 
L 161.853432 157.132357 
L 162.730876 157.574425 
L 163.998296 157.476005 
L 164.290778 158.324873 
L 165.070729 157.077406 
L 165.818182 157.077406 
L 167.703063 157.562122 
L 168.255528 156.634519 
L 168.418018 156.634519 
L 169.132973 158.00583 
L 169.392957 158.00583 
L 169.81543 157.3497 
L 170.660377 157.3497 
L 170.757871 157.49979 
L 171.310336 157.49979 
L 171.797805 158.56272 
L 172.935233 158.587325 
L 173.455201 159.77328 
L 174.007666 159.77328 
L 174.657625 158.752178 
L 175.242588 158.752178 
L 175.37258 159.049076 
L 176.120033 159.049076 
L 176.47751 158.041917 
L 176.932482 158.041917 
L 177.972416 157.598209 
L 178.882359 158.239576 
L 178.947355 158.239576 
L 179.239836 157.344779 
L 180.507256 157.378406 
L 180.994726 156.830537 
L 181.839672 156.830537 
L 182.294644 157.307872 
L 183.399574 156.883028 
L 183.62706 156.883028 
L 185.316953 156.686189 
L 185.674431 156.909273 
L 186.421884 156.909273 
L 187.136839 158.771041 
L 187.494316 159.154877 
L 187.981785 159.154877 
L 188.371761 159.62237 
L 189.151712 159.62237 
L 190.874103 160.392502 
L 191.199083 160.392502 
L 193.571433 162.165693 
L 194.221392 162.165693 
L 195.033841 163.237645 
L 195.553808 163.237645 
L 195.911286 163.963489 
L 196.333759 163.963489 
L 196.821229 164.095535 
L 198.803604 164.174271 
L 199.64855 165.164207 
L 199.941032 165.164207 
L 200.428501 165.454544 
L 201.013464 165.454544 
L 201.728419 165.311016 
L 203.093333 165.763745 
L 203.645799 167.377825 
L 204.230762 167.377825 
L 204.978215 167.725574 
L 205.628174 167.725574 
L 206.538116 167.199029 
L 206.993088 167.199029 
L 207.123079 167.081746 
L 207.513055 167.081746 
L 208.06552 168.143856 
L 208.975463 168.143856 
L 209.365438 168.272622 
L 209.982899 168.272622 
L 210.990336 168.548196 
L 211.867781 168.384164 
L 212.582735 168.384164 
L 212.875217 167.862541 
L 214.955086 167.824813 
L 215.345061 168.169282 
L 216.027518 168.169282 
L 216.709975 170.199183 
L 217.359934 170.199183 
L 218.237379 171.118585 
L 218.659853 170.016287 
L 219.407305 170.016287 
L 221.032203 170.865155 
L 221.87715 170.865155 
L 222.104636 170.614185 
L 224.314496 170.68882 
L 224.509484 171.736988 
L 225.516921 171.736988 
L 226.069386 172.315202 
L 226.654349 172.315202 
L 226.914333 171.942028 
L 227.954267 171.942028 
L 228.799214 170.911084 
L 229.546667 171.580337 
L 230.846585 171.887897 
L 231.366552 171.887897 
L 231.854021 172.45627 
L 232.50398 172.560431 
L 233.283931 172.560431 
L 233.803898 172.733485 
L 234.518853 170.971776 
L 234.681343 170.971776 
L 236.241245 170.042532 
L 236.9562 170.042532 
L 237.736151 169.234672 
L 237.996134 169.234672 
L 238.5486 169.835031 
L 239.231057 169.835031 
L 239.426044 170.305804 
L 240.303489 170.305804 
L 240.628468 168.849196 
L 241.603407 169.518449 
L 242.220868 169.518449 
L 243.553284 169.210888 
L 243.650778 168.594946 
L 244.235741 168.594946 
L 244.820704 169.075561 
L 245.470663 169.075561 
L 245.633153 169.491383 
L 247.290549 169.540593 
L 248.232989 170.153254 
L 248.460475 170.153254 
L 249.045438 171.618064 
L 249.33792 171.828846 
L 249.955381 171.828846 
L 250.475348 171.998619 
L 251.092809 171.358073 
L 251.742768 171.358073 
L 252.327731 171.907581 
L 252.97769 171.254732 
L 253.14018 171.254732 
L 253.432662 172.192178 
L 253.887633 172.192178 
L 254.602588 170.829888 
L 255.317543 170.058935 
L 255.480033 170.058935 
L 256.064996 168.714689 
L 256.649959 168.714689 
L 256.909943 169.429051 
L 257.364914 169.429051 
L 257.494906 168.498167 
L 258.242359 168.498167 
L 258.632334 169.632451 
L 259.152301 169.632451 
L 259.574775 168.687624 
L 260.354726 168.687624 
L 260.582211 169.845693 
L 263.182048 169.864557 
L 263.734513 169.487282 
L 264.09199 169.487282 
L 264.449468 170.526428 
L 264.871941 170.526428 
L 265.651892 169.967077 
L 267.439279 168.957457 
L 267.569271 169.166599 
L 267.991744 169.166599 
L 268.901687 169.040294 
L 269.226667 170.122908 
L 269.876626 170.122908 
L 270.526585 168.895945 
L 271.306536 169.366718 
L 271.631515 169.366718 
L 271.956495 169.950674 
L 272.248976 169.950674 
L 272.34647 171.008683 
L 272.833939 171.008683 
L 274.003866 171.815723 
L 274.783817 171.815723 
L 275.011302 172.084736 
L 275.628763 172.084736 
L 275.758755 174.485352 
L 276.6362 174.485352 
L 276.766192 175.508914 
L 277.481147 175.508914 
L 278.391089 176.647299 
L 279.203538 177.944796 
L 280.145979 177.888205 
L 280.405962 179.526889 
L 280.665946 179.526889 
L 280.893432 178.390144 
L 282.19335 178.112109 
L 283.005799 177.960379 
L 283.558264 178.482003 
L 284.045733 178.482003 
L 284.240721 177.213211 
L 284.89068 177.213211 
L 285.605635 177.744677 
L 286.418084 177.140217 
L 286.645569 177.140217 
L 287.068043 175.926377 
L 287.26303 175.926377 
L 287.718002 177.268162 
L 288.107977 177.268162 
L 288.595446 176.958141 
L 288.887928 176.90483 
L 289.732875 177.316552 
L 290.187846 176.020695 
L 290.610319 176.020695 
L 290.837805 176.740798 
L 291.487764 176.740798 
L 291.780246 175.213656 
L 292.072727 175.213656 
L 292.170221 173.993254 
L 292.787682 173.993254 
L 292.885176 175.344062 
L 293.177658 175.344062 
L 293.600131 175.075868 
L 294.380082 175.909153 
L 294.900049 175.909153 
L 295.257527 174.877389 
L 295.84249 175.432639 
L 296.394955 175.432639 
L 296.622441 175.051264 
L 296.817428 175.051264 
L 297.564881 175.832058 
L 298.052351 175.832058 
L 298.182342 176.251161 
L 299.157281 177.008171 
L 299.547256 175.586009 
L 300.749681 175.578628 
L 301.269648 174.787171 
L 301.497133 174.787171 
L 301.757117 173.849726 
L 302.374578 175.573707 
L 302.927043 174.676449 
L 303.77199 174.712537 
L 305.03941 173.898935 
L 306.599312 173.744745 
L 306.63181 173.346146 
L 307.119279 173.346146 
L 307.476757 172.286496 
L 307.89923 172.286496 
L 308.646683 171.774715 
L 308.744177 171.774715 
L 308.809173 172.970512 
L 309.264144 172.970512 
L 309.394136 173.187035 
L 309.849107 173.187035 
L 310.499066 174.98237 
L 310.75905 174.315578 
L 311.116527 174.315578 
L 311.474005 173.708658 
L 312.221458 174.484531 
L 312.383948 174.484531 
L 312.936413 174.084292 
L 314.658804 174.467308 
L 315.243767 175.002054 
L 315.438755 175.002054 
L 316.836167 176.010853 
L 317.388632 176.010853 
L 317.941097 176.893348 
L 318.493563 176.328256 
L 318.85104 176.328256 
L 319.338509 175.869786 
L 319.403505 175.869786 
L 319.533497 176.95404 
L 319.793481 176.95404 
L 321.743358 177.279645 
L 321.970844 178.934732 
L 322.523309 178.934732 
L 322.750794 180.561934 
L 324.08321 179.904164 
L 325.253137 179.793442 
L 325.903096 181.592058 
L 326.195577 181.592058 
L 326.780541 180.684138 
L 327.073022 180.684138 
L 327.365504 181.194279 
L 327.625487 181.194279 
L 328.340442 180.335569 
L 328.502932 182.011161 
L 328.69792 182.011161 
L 329.120393 181.074536 
L 329.607862 181.074536 
L 329.900344 179.63269 
L 331.55774 178.279422 
L 332.012711 178.57058 
L 332.175201 178.57058 
L 332.695168 177.282925 
L 332.82516 177.282925 
L 332.922654 176.19293 
L 333.377625 176.19293 
L 333.507617 177.097569 
L 333.995086 177.097569 
L 334.157576 176.157663 
L 334.645045 176.157663 
L 335.652482 176.724395 
L 336.432432 176.788367 
L 336.887404 179.43011 
L 337.179885 179.43011 
L 337.667355 179.271819 
L 338.024832 179.929589 
L 338.577297 179.929589 
L 339.812219 180.277338 
L 339.974709 181.492818 
L 340.234693 181.492818 
L 341.274627 182.551648 
L 341.729599 181.40178 
L 342.607043 180.545531 
L 342.932023 180.545531 
L 343.516986 181.65357 
L 343.679476 180.28964 
L 344.264439 180.28964 
L 344.361933 180.502062 
L 345.04439 180.502062 
L 345.401867 179.444873 
L 345.856839 179.444873 
L 346.409304 179.590862 
L 346.961769 179.57938 
L 347.124259 179.820507 
L 347.871712 180.724326 
L 348.034201 180.724326 
L 348.391679 179.663036 
L 348.781654 179.663036 
L 349.33412 180.714484 
L 349.529107 179.308726 
L 349.919083 179.308726 
L 350.11407 178.280243 
L 350.536544 178.280243 
L 351.056511 178.443455 
L 351.933956 177.619192 
L 352.193939 177.847197 
L 352.518919 177.847197 
L 352.876396 176.727675 
L 353.558853 176.014134 
L 354.143817 176.673545 
L 355.216249 175.694271 
L 355.411237 177.094288 
L 357.393612 176.890888 
L 357.491106 177.752878 
L 357.718591 177.752878 
L 358.596036 180.751392 
L 359.278493 180.803062 
L 359.603473 180.697261 
L 360.188436 182.845266 
L 360.415921 182.845266 
L 361.455856 182.546727 
L 361.618346 182.758329 
L 363.633219 182.683694 
L 364.510663 182.362191 
L 365.35561 183.316859 
L 365.810581 183.316859 
L 366.980508 184.675868 
L 367.630467 184.853023 
L 367.922948 186.144779 
L 368.247928 186.144779 
L 368.572907 185.738799 
L 369.287862 185.120396 
L 369.64534 185.120396 
L 370.002817 184.960465 
L 370.522785 185.077748 
L 371.302735 186.233357 
L 371.497723 185.074467 
L 371.627715 185.074467 
L 372.570156 185.260644 
L 372.830139 186.693468 
L 374.520033 186.748419 
L 374.845012 186.126736 
L 375.397477 186.126736 
L 376.534906 184.192793 
L 377.932318 184.309256 
L 378.84226 187.753117 
L 379.622211 187.248718 
L 379.947191 186.725454 
L 381.734578 189.419687 
L 382.514529 189.311426 
L 383.261982 189.120328 
L 384.041933 190.053673 
L 384.041933 190.053673 
" style="fill:none;stroke:#000000;stroke-linecap:square;stroke-width:0.8;"/>
   </g>
   <g id="line2d_18">
    <path clip-path="url(#p7b1be02120)" d="M 58.347453 83.640892 
L 58.542441 87.278312 
L 59.127404 88.48067 
L 59.224898 88.255945 
L 59.582375 89.318876 
L 60.167338 93.059636 
L 62.897166 104.183498 
L 63.189648 108.418816 
L 63.709615 108.604173 
L 65.204521 116.458047 
L 65.367011 116.458047 
L 66.049468 114.20014 
L 66.211957 114.20014 
L 66.439443 115.841285 
L 66.634431 112.744352 
L 67.836855 108.752622 
L 68.096839 108.752622 
L 68.779296 112.570478 
L 69.039279 111.910247 
L 69.689238 114.697158 
L 71.444128 117.260986 
L 71.476626 114.770153 
L 72.224079 110.600448 
L 72.809042 108.878107 
L 72.84154 108.878107 
L 73.166519 105.919781 
L 73.78398 95.75879 
L 74.466437 92.42483 
L 75.181392 90.467923 
L 76.058837 97.846103 
L 76.578804 98.755663 
L 76.838788 98.868026 
L 77.91122 103.560174 
L 78.366192 103.141891 
L 78.853661 100.432075 
L 79.243636 101.905907 
L 79.568616 101.154638 
L 80.966028 104.864232 
L 81.226011 106.198636 
L 82.20095 116.16853 
L 82.330942 116.16853 
L 82.623423 118.210734 
L 82.753415 118.210734 
L 82.818411 119.221994 
L 83.110893 120.975501 
L 83.273382 120.975501 
L 83.338378 122.583839 
L 83.565864 122.583839 
L 83.695856 129.521592 
L 83.825848 129.521592 
L 84.053333 130.509068 
L 84.800786 123.427786 
L 84.930778 123.427786 
L 86.00321 118.4453 
L 86.425684 110.881763 
L 87.303129 105.087317 
L 87.563112 101.352297 
L 88.473055 92.175501 
L 88.765536 91.607129 
L 89.740475 82.557457 
L 90.422932 81.366582 
L 90.715414 79.681968 
L 92.405307 74.984079 
L 92.470303 74.984079 
L 92.795283 73.103446 
L 92.957772 73.103446 
L 93.282752 74.603523 
L 93.47774 74.603523 
L 93.965209 76.282396 
L 95.330123 88.059927 
L 95.492613 88.059927 
L 95.525111 89.495211 
L 96.110074 90.712331 
L 96.532547 91.945035 
L 96.95502 96.187735 
L 98.189943 102.511187 
L 98.644914 101.87064 
L 99.392367 101.861618 
L 99.587355 101.270281 
L 99.81484 105.907479 
L 101.08226 109.032297 
L 101.212252 109.032297 
L 102.772154 112.388402 
L 104.559541 112.411366 
L 105.404488 113.507923 
L 105.761966 113.507923 
L 106.021949 117.070708 
L 106.216937 117.070708 
L 107.386863 116.535142 
L 108.751777 116.470349 
L 109.239247 118.110674 
L 109.369238 118.110674 
L 109.921704 117.073989 
L 110.636658 116.143925 
L 111.221622 116.191494 
L 111.319115 115.432024 
L 111.969075 114.882515 
L 112.424046 116.596654 
L 112.846519 116.596654 
L 112.976511 115.938884 
L 113.301491 115.938884 
L 113.593972 115.095757 
L 114.113939 115.095757 
L 114.211433 116.562208 
L 114.503915 116.562208 
L 115.153874 123.313784 
L 115.446355 123.313784 
L 115.641343 124.544027 
L 116.193808 124.544027 
L 116.421294 124.329145 
L 117.103751 129.920191 
L 117.233743 129.920191 
L 117.558722 130.700166 
L 117.981196 130.700166 
L 118.501163 131.071699 
L 118.696151 131.071699 
L 118.761147 138.900149 
L 120.061065 140.212408 
L 120.61353 140.212408 
L 121.036003 140.652015 
L 121.100999 140.652015 
L 121.685962 143.663651 
L 122.20593 144.379653 
L 122.790893 143.117423 
L 122.920885 143.117423 
L 123.180868 145.321199 
L 123.928321 145.321199 
L 124.708272 144.130324 
L 125.228239 149.46794 
L 125.878198 149.534373 
L 126.365667 150.446394 
L 127.470598 157.279986 
L 127.60059 157.166804 
L 127.828075 157.166804 
L 128.120557 157.985326 
L 128.900508 162.151751 
L 129.615463 162.151751 
L 130.265422 163.436945 
L 130.525405 163.436945 
L 130.622899 166.5429 
L 131.272858 166.5429 
L 131.890319 167.805129 
L 132.215299 167.805129 
L 132.410287 172.513681 
L 133.15774 172.513681 
L 133.970188 173.261669 
L 134.26267 179.448154 
L 135.497592 179.771298 
L 136.927502 183.110179 
L 137.187486 182.204719 
L 137.544963 182.204719 
L 137.707453 182.504899 
L 138.5524 185.777346 
L 139.754824 185.864284 
L 140.047305 184.440482 
L 140.534775 184.440482 
L 140.729762 188.975159 
L 141.542211 189.071118 
L 142.257166 190.093041 
L 142.452154 190.093041 
L 143.004619 193.150606 
L 144.044554 193.241644 
L 144.792007 196.214732 
L 145.181982 196.00395 
L 145.604455 196.00395 
L 145.831941 194.353784 
L 146.31941 194.353784 
L 146.80688 197.852596 
L 147.261851 197.852596 
L 148.464275 199.201763 
L 149.049238 199.201763 
L 149.536708 200.134288 
L 151.096609 207.941413 
L 151.389091 210.6053 
L 151.87656 210.6053 
L 152.656511 214.870965 
L 154.183915 219.156313 
L 154.443898 219.156313 
L 155.191351 225.553579 
L 155.613825 227.78442 
L 156.231286 227.78442 
L 156.588763 232.992451 
L 157.368714 236.722549 
L 157.563702 236.722549 
L 158.473645 241.645984 
L 159.221097 246.800704 
L 159.708567 246.800704 
L 160.29353 252.819055 
L 160.488518 252.819055 
L 161.008485 256.33181 
L 161.625946 257.968854 
L 161.853432 257.968854 
L 162.730876 257.111785 
L 163.15335 254.699687 
L 163.283342 254.699687 
L 164.09579 260.908316 
L 165.168223 259.810939 
L 165.428206 263.544318 
L 165.883178 263.544318 
L 165.915676 262.884907 
L 166.468141 262.884907 
L 167.800557 263.105531 
L 168.353022 266.397663 
L 168.515512 266.397663 
L 169.230467 264.804087 
L 169.49045 264.804087 
L 169.912924 267.965813 
L 170.562883 267.965813 
L 170.855364 267.050512 
L 171.40783 267.050512 
L 171.895299 268.790896 
L 172.707748 266.561695 
L 173.032727 266.561695 
L 173.552695 266.168837 
L 174.10516 270.017859 
L 174.755119 270.017859 
L 175.405078 269.003318 
L 175.665061 269.003318 
L 176.217527 271.715595 
L 177.029975 271.715595 
L 178.06991 272.90155 
L 178.979853 272.192109 
L 179.33733 272.192109 
L 179.922293 276.063276 
L 181.027224 276.110845 
L 181.189713 273.755339 
L 182.392138 273.755339 
L 183.497068 274.582062 
L 183.724554 275.220149 
L 185.414447 273.980883 
L 185.641933 273.00161 
L 186.32439 273.00161 
L 186.519378 275.068419 
L 187.234333 275.068419 
L 187.59181 276.848171 
L 188.469255 276.848171 
L 188.924226 276.102643 
L 190.776609 278.492596 
L 191.296577 278.492596 
L 193.668927 284.781601 
L 195.293825 284.859516 
L 195.391319 286.833647 
L 196.301261 286.833647 
L 196.431253 285.910144 
L 196.918722 285.910144 
L 197.43869 290.359525 
L 198.121147 290.359525 
L 198.413628 289.833801 
L 198.901097 289.833801 
L 199.746044 290.293912 
L 200.038526 290.293912 
L 200.525995 289.924839 
L 200.753481 289.924839 
L 200.948468 292.877423 
L 201.825913 292.877423 
L 203.190827 293.613929 
L 203.743292 293.613929 
L 204.328256 293.407248 
L 205.075708 293.407248 
L 205.36819 295.488 
L 207.155577 295.483079 
L 207.220573 294.033852 
L 208.163014 293.592605 
L 209.072957 293.592605 
L 209.33294 291.208393 
L 210.080393 291.208393 
L 210.92534 290.046223 
L 211.08783 290.046223 
L 211.607797 288.559269 
L 212.680229 288.559269 
L 212.972711 287.619363 
L 213.752662 287.619363 
L 213.915152 285.726428 
L 215.05258 284.887402 
L 215.442555 284.887402 
L 216.060016 283.35944 
L 216.807469 283.35944 
L 217.457428 282.394929 
L 218.237379 282.394929 
L 218.757346 280.611076 
L 219.504799 280.611076 
L 221.227191 280.106676 
L 221.974644 280.106676 
L 222.202129 279.758107 
L 222.787093 279.758107 
L 223.697035 279.244685 
L 224.606978 279.244685 
L 225.614414 278.946146 
L 226.751843 278.906778 
L 227.011826 279.083933 
L 228.019263 279.083933 
L 228.896708 278.66401 
L 229.644161 279.500576 
L 230.586601 279.500576 
L 230.944079 279.062609 
L 231.951515 279.062609 
L 232.601474 278.176014 
L 234.616347 276.575877 
L 234.778837 276.575877 
L 235.981261 275.880379 
L 236.533726 275.880379 
L 236.728714 275.739311 
L 237.053694 275.739311 
L 237.833645 276.215826 
L 238.093628 276.215826 
L 238.646093 275.747513 
L 239.263554 275.747513 
L 239.32855 276.54061 
L 240.725962 276.568496 
L 241.700901 275.294783 
L 242.318362 275.294783 
L 243.748272 273.354279 
L 244.333235 273.354279 
L 244.918198 273.074604 
L 245.730647 273.074604 
L 245.893137 272.657141 
L 247.063063 272.657141 
L 247.160557 271.643421 
L 248.330483 271.643421 
L 248.557969 270.350025 
L 249.142932 268.820422 
L 251.190303 268.790896 
L 251.417789 267.088239 
L 251.840262 267.088239 
L 252.425225 267.513083 
L 253.075184 265.620969 
L 253.725143 265.620969 
L 253.985127 264.467 
L 254.700082 264.467 
L 255.415037 263.547598 
L 256.097494 263.547598 
L 256.16249 262.774185 
L 257.072432 262.774185 
L 257.462408 261.286411 
L 257.5924 261.286411 
L 258.339853 261.88595 
L 258.729828 261.88595 
L 259.249795 262.933297 
L 259.867256 262.933297 
L 260.452219 263.215433 
L 260.874693 263.868282 
L 262.142113 262.966103 
L 263.279541 263.171144 
L 263.832007 261.803933 
L 264.189484 261.528359 
L 264.969435 261.528359 
L 265.749386 260.8263 
L 267.666765 259.726462 
L 268.089238 259.124463 
L 268.576708 259.490255 
L 268.999181 259.490255 
L 269.324161 258.023805 
L 269.714136 258.023805 
L 269.97412 256.960875 
L 270.624079 257.571896 
L 271.729009 257.471016 
L 272.053989 261.306095 
L 272.443964 260.659807 
L 272.931433 260.659807 
L 274.10136 260.12014 
L 274.393841 260.12014 
L 274.458837 258.492118 
L 274.88131 258.492118 
L 275.108796 259.172853 
L 275.856249 259.236005 
L 276.733694 260.998534 
L 277.57864 261.054305 
L 277.968616 261.209316 
L 279.301032 259.862609 
L 279.788501 259.862609 
L 280.243473 259.214681 
L 280.503456 259.214681 
L 280.990925 257.515305 
L 281.835872 259.062951 
L 282.290844 258.443728 
L 283.103292 258.564292 
L 284.143227 256.777979 
L 284.988174 254.368342 
L 285.573137 251.978389 
L 286.743063 252.041541 
L 287.165536 250.529982 
L 287.360524 250.529982 
L 288.205471 249.591716 
L 288.69294 248.199901 
L 288.985422 248.199901 
L 289.830369 248.320465 
L 290.28534 246.813827 
L 290.707813 247.856253 
L 290.935299 247.856253 
L 291.39027 247.026249 
L 291.87774 247.026249 
L 292.267715 246.72771 
L 292.98267 245.089845 
L 293.275152 245.089845 
L 293.697625 244.86266 
L 294.477576 243.561063 
L 294.997543 241.959286 
L 295.939984 241.896133 
L 296.297461 240.450187 
L 296.914922 240.450187 
L 297.662375 241.195715 
L 297.857363 241.854305 
L 298.279836 241.854305 
L 299.254775 241.47539 
L 299.64475 240.947205 
L 299.872236 240.947205 
L 300.294709 241.380251 
L 300.457199 241.380251 
L 300.782179 240.998876 
L 301.367142 241.72882 
L 301.594627 241.72882 
L 301.854611 241.229341 
L 302.472072 240.837304 
L 303.024537 242.110196 
L 304.616937 241.458167 
L 305.136904 241.413058 
L 306.176839 241.850204 
L 306.729304 240.793015 
L 307.151777 239.648068 
L 307.574251 239.648068 
L 307.769238 240.512519 
L 307.996724 240.512519 
L 308.906667 239.769452 
L 309.49163 239.769452 
L 309.946601 240.067171 
L 310.59656 238.995219 
L 311.571499 239.09856 
L 312.318952 238.327607 
L 312.481441 239.519303 
L 313.033907 239.157611 
L 314.626306 239.513562 
L 315.536249 239.944967 
L 317.193645 239.469273 
L 317.453628 239.469273 
L 317.486126 237.950332 
L 318.591057 238.738508 
L 318.948534 239.499619 
L 319.338509 239.499619 
L 319.500999 238.177517 
L 319.890975 238.177517 
L 321.840852 241.965027 
L 322.068337 241.965027 
L 322.620803 240.501857 
L 322.848288 238.915663 
L 323.725733 239.509461 
L 324.180704 238.667974 
L 324.928157 238.554792 
L 325.350631 237.917526 
L 326.293071 237.88554 
L 326.878034 239.342148 
L 327.170516 239.342148 
L 327.462998 239.55539 
L 327.722981 239.55539 
L 328.437936 241.775569 
L 329.542867 241.718158 
L 329.705356 242.69005 
L 329.997838 242.69005 
L 332.012711 243.085369 
L 332.272695 243.085369 
L 332.922654 243.807932 
L 333.020147 243.807932 
L 333.605111 243.533997 
L 334.09258 243.533997 
L 334.25507 243.840738 
L 334.742539 242.68923 
L 335.749975 241.715698 
L 336.139951 242.956603 
L 336.529926 242.956603 
L 336.984898 243.151802 
L 337.277379 243.151802 
L 337.764848 243.009914 
L 338.122326 241.755886 
L 338.674791 241.755886 
L 340.072203 240.948026 
L 340.332187 240.948026 
L 341.372121 242.247983 
L 341.827093 242.247983 
L 343.029517 242.040482 
L 343.61448 240.81844 
L 343.77697 240.940644 
L 344.361933 240.940644 
L 344.459427 239.80554 
L 345.141884 240.707718 
L 345.499361 240.707718 
L 346.506798 240.259089 
L 347.124259 241.349085 
L 347.221753 241.349085 
L 347.969206 240.21234 
L 348.131695 240.569111 
L 348.489173 240.569111 
L 348.749156 240.102438 
L 348.879148 240.102438 
L 349.626601 239.919542 
L 350.016577 240.316501 
L 350.536544 240.316501 
L 350.634038 239.128085 
L 351.154005 239.128085 
L 352.616413 238.966513 
L 352.97389 238.670435 
L 353.656347 238.670435 
L 354.24131 237.629649 
L 355.508731 238.202122 
L 357.26362 239.931024 
L 357.816085 239.931024 
L 358.69353 238.89926 
L 359.375987 240.626522 
L 359.700966 240.626522 
L 360.350925 240.320601 
L 360.513415 240.320601 
L 361.55335 242.579328 
L 362.073317 242.579328 
L 362.105815 242.792571 
L 362.235807 242.792571 
L 363.730713 243.488068 
L 364.380672 245.41709 
L 364.608157 245.41709 
L 365.453104 246.467718 
L 365.908075 246.467718 
L 367.727961 244.925813 
L 368.020442 243.832537 
L 368.345422 243.832537 
L 368.670401 244.396808 
L 369.385356 242.977927 
L 369.742834 243.107513 
L 370.100311 243.107513 
L 370.620278 243.316654 
L 371.562719 243.718534 
L 371.595217 244.487846 
L 371.725209 244.487846 
L 372.34267 243.483968 
L 372.667649 243.483968 
L 372.927633 244.224574 
L 373.317609 244.224574 
L 374.617527 244.530495 
L 374.942506 244.801148 
L 375.20249 244.801148 
L 375.494971 243.59551 
L 376.6324 241.826419 
L 377.639836 241.283472 
L 377.73733 241.486052 
L 378.029812 241.486052 
L 378.939754 238.909102 
L 379.719705 239.481575 
L 380.044685 238.158654 
L 381.832072 237.112947 
L 382.02706 235.548897 
L 382.254545 235.548897 
L 382.612023 237.036672 
L 383.196986 237.036672 
L 383.359476 236.023771 
L 384.366912 236.076261 
L 384.626896 234.941977 
L 385.016871 234.941977 
L 385.081867 233.568205 
L 385.471843 233.568205 
L 385.796822 235.337295 
L 386.381785 235.337295 
L 386.414283 234.860781 
L 387.42172 234.872263 
L 388.201671 233.625616 
L 388.754136 234.902609 
L 389.01412 234.902609 
L 389.469091 233.209794 
L 390.476527 232.220678 
L 390.801507 232.220678 
L 391.061491 231.562908 
L 391.581458 232.558585 
L 392.101425 232.558585 
L 393.238853 231.668709 
L 393.466339 231.668709 
L 393.693825 232.553664 
L 393.986306 232.553664 
L 394.636265 232.087812 
L 395.026241 232.930119 
L 395.643702 232.143583 
L 396.196167 232.143583 
L 396.391155 233.532938 
L 396.813628 233.532938 
L 397.496085 232.598773 
L 397.951057 232.598773 
L 398.308534 233.286069 
L 398.796003 233.286069 
L 399.705946 234.490067 
L 399.998428 234.490067 
L 400.258411 233.5436 
L 400.778378 232.517577 
L 401.168354 232.517577 
L 402.17579 231.704796 
L 402.468272 233.352502 
L 403.020737 233.352502 
L 403.183227 232.237902 
L 403.475708 232.237902 
L 403.735692 231.271751 
L 404.060672 231.271751 
L 404.483145 232.963745 
L 404.548141 232.963745 
L 405.523079 230.789495 
L 405.848059 230.789495 
L 407.050483 229.716723 
L 407.375463 229.716723 
L 407.57045 230.388436 
L 408.285405 230.388436 
L 408.317903 229.432126 
L 409.552826 229.309922 
L 409.715315 227.617927 
L 410.820246 227.690922 
L 411.177723 227.830349 
L 412.152662 227.499824 
L 412.445143 228.94413 
L 413.257592 228.645591 
L 413.387584 230.282635 
L 413.680066 230.282635 
L 414.135037 229.592058 
L 414.39502 229.592058 
L 414.72 228.269136 
L 414.72 228.269136 
" style="fill:none;stroke:#000000;stroke-dasharray:2.96,1.28;stroke-dashoffset:0;stroke-width:0.8;"/>
   </g>
   <g id="patch_3">
    <path d="M 57.6 307.584 
L 57.6 41.472 
" style="fill:none;stroke:#000000;stroke-linecap:square;stroke-linejoin:miter;stroke-width:0.8;"/>
   </g>
   <g id="patch_4">
    <path d="M 414.72 307.584 
L 414.72 41.472 
" style="fill:none;stroke:#000000;stroke-linecap:square;stroke-linejoin:miter;stroke-width:0.8;"/>
   </g>
   <g id="patch_5">
    <path d="M 57.6 307.584 
L 414.72 307.584 
" style="fill:none;stroke:#000000;stroke-linecap:square;stroke-linejoin:miter;stroke-width:0.8;"/>
   </g>
   <g id="patch_6">
    <path d="M 57.6 41.472 
L 414.72 41.472 
" style="fill:none;stroke:#000000;stroke-linecap:square;stroke-linejoin:miter;stroke-width:0.8;"/>
   </g>
   <g id="legend_1">
    <g id="patch_7">
     <path d="M 64.6 78.82825 
L 151.346875 78.82825 
Q 153.346875 78.82825 153.346875 76.82825 
L 153.346875 48.472 
Q 153.346875 46.472 151.346875 46.472 
L 64.6 46.472 
Q 62.6 46.472 62.6 48.472 
L 62.6 76.82825 
Q 62.6 78.82825 64.6 78.82825 
z
" style="fill:#ffffff;opacity:0.8;stroke:#cccccc;stroke-linejoin:miter;"/>
    </g>
    <g id="line2d_19">
     <path d="M 66.6 54.570437 
L 86.6 54.570437 
" style="fill:none;stroke:#000000;stroke-linecap:square;stroke-width:0.8;"/>
    </g>
    <g id="line2d_20"/>
    <g id="text_13">
     <!-- Baseline -->
     <defs>
      <path d="M 19.671875 34.8125 
L 19.671875 8.109375 
L 35.5 8.109375 
Q 43.453125 8.109375 47.28125 11.40625 
Q 51.125 14.703125 51.125 21.484375 
Q 51.125 28.328125 47.28125 31.5625 
Q 43.453125 34.8125 35.5 34.8125 
z
M 19.671875 64.796875 
L 19.671875 42.828125 
L 34.28125 42.828125 
Q 41.5 42.828125 45.03125 45.53125 
Q 48.578125 48.25 48.578125 53.8125 
Q 48.578125 59.328125 45.03125 62.0625 
Q 41.5 64.796875 34.28125 64.796875 
z
M 9.8125 72.90625 
L 35.015625 72.90625 
Q 46.296875 72.90625 52.390625 68.21875 
Q 58.5 63.53125 58.5 54.890625 
Q 58.5 48.1875 55.375 44.234375 
Q 52.25 40.28125 46.1875 39.3125 
Q 53.46875 37.75 57.5 32.78125 
Q 61.53125 27.828125 61.53125 20.40625 
Q 61.53125 10.640625 54.890625 5.3125 
Q 48.25 0 35.984375 0 
L 9.8125 0 
z
" id="DejaVuSans-66"/>
      <path d="M 9.421875 75.984375 
L 18.40625 75.984375 
L 18.40625 0 
L 9.421875 0 
z
" id="DejaVuSans-108"/>
     </defs>
     <g transform="translate(94.6 58.070437)scale(0.1 -0.1)">
      <use xlink:href="#DejaVuSans-66"/>
      <use x="68.603516" xlink:href="#DejaVuSans-97"/>
      <use x="129.882812" xlink:href="#DejaVuSans-115"/>
      <use x="181.982422" xlink:href="#DejaVuSans-101"/>
      <use x="243.505859" xlink:href="#DejaVuSans-108"/>
      <use x="271.289062" xlink:href="#DejaVuSans-105"/>
      <use x="299.072266" xlink:href="#DejaVuSans-110"/>
      <use x="362.451172" xlink:href="#DejaVuSans-101"/>
     </g>
    </g>
    <g id="line2d_21">
     <path d="M 66.6 69.248562 
L 86.6 69.248562 
" style="fill:none;stroke:#000000;stroke-dasharray:2.96,1.28;stroke-dashoffset:0;stroke-width:0.8;"/>
    </g>
    <g id="line2d_22"/>
    <g id="text_14">
     <!-- Slow grads -->
     <defs>
      <path d="M 30.609375 48.390625 
Q 23.390625 48.390625 19.1875 42.75 
Q 14.984375 37.109375 14.984375 27.296875 
Q 14.984375 17.484375 19.15625 11.84375 
Q 23.34375 6.203125 30.609375 6.203125 
Q 37.796875 6.203125 41.984375 11.859375 
Q 46.1875 17.53125 46.1875 27.296875 
Q 46.1875 37.015625 41.984375 42.703125 
Q 37.796875 48.390625 30.609375 48.390625 
z
M 30.609375 56 
Q 42.328125 56 49.015625 48.375 
Q 55.71875 40.765625 55.71875 27.296875 
Q 55.71875 13.875 49.015625 6.21875 
Q 42.328125 -1.421875 30.609375 -1.421875 
Q 18.84375 -1.421875 12.171875 6.21875 
Q 5.515625 13.875 5.515625 27.296875 
Q 5.515625 40.765625 12.171875 48.375 
Q 18.84375 56 30.609375 56 
z
" id="DejaVuSans-111"/>
      <path d="M 4.203125 54.6875 
L 13.1875 54.6875 
L 24.421875 12.015625 
L 35.59375 54.6875 
L 46.1875 54.6875 
L 57.421875 12.015625 
L 68.609375 54.6875 
L 77.59375 54.6875 
L 63.28125 0 
L 52.6875 0 
L 40.921875 44.828125 
L 29.109375 0 
L 18.5 0 
z
" id="DejaVuSans-119"/>
      <path d="M 45.40625 27.984375 
Q 45.40625 37.75 41.375 43.109375 
Q 37.359375 48.484375 30.078125 48.484375 
Q 22.859375 48.484375 18.828125 43.109375 
Q 14.796875 37.75 14.796875 27.984375 
Q 14.796875 18.265625 18.828125 12.890625 
Q 22.859375 7.515625 30.078125 7.515625 
Q 37.359375 7.515625 41.375 12.890625 
Q 45.40625 18.265625 45.40625 27.984375 
z
M 54.390625 6.78125 
Q 54.390625 -7.171875 48.1875 -13.984375 
Q 42 -20.796875 29.203125 -20.796875 
Q 24.46875 -20.796875 20.265625 -20.09375 
Q 16.0625 -19.390625 12.109375 -17.921875 
L 12.109375 -9.1875 
Q 16.0625 -11.328125 19.921875 -12.34375 
Q 23.78125 -13.375 27.78125 -13.375 
Q 36.625 -13.375 41.015625 -8.765625 
Q 45.40625 -4.15625 45.40625 5.171875 
L 45.40625 9.625 
Q 42.625 4.78125 38.28125 2.390625 
Q 33.9375 0 27.875 0 
Q 17.828125 0 11.671875 7.65625 
Q 5.515625 15.328125 5.515625 27.984375 
Q 5.515625 40.671875 11.671875 48.328125 
Q 17.828125 56 27.875 56 
Q 33.9375 56 38.28125 53.609375 
Q 42.625 51.21875 45.40625 46.390625 
L 45.40625 54.6875 
L 54.390625 54.6875 
z
" id="DejaVuSans-103"/>
      <path d="M 45.40625 46.390625 
L 45.40625 75.984375 
L 54.390625 75.984375 
L 54.390625 0 
L 45.40625 0 
L 45.40625 8.203125 
Q 42.578125 3.328125 38.25 0.953125 
Q 33.9375 -1.421875 27.875 -1.421875 
Q 17.96875 -1.421875 11.734375 6.484375 
Q 5.515625 14.40625 5.515625 27.296875 
Q 5.515625 40.1875 11.734375 48.09375 
Q 17.96875 56 27.875 56 
Q 33.9375 56 38.25 53.625 
Q 42.578125 51.265625 45.40625 46.390625 
z
M 14.796875 27.296875 
Q 14.796875 17.390625 18.875 11.75 
Q 22.953125 6.109375 30.078125 6.109375 
Q 37.203125 6.109375 41.296875 11.75 
Q 45.40625 17.390625 45.40625 27.296875 
Q 45.40625 37.203125 41.296875 42.84375 
Q 37.203125 48.484375 30.078125 48.484375 
Q 22.953125 48.484375 18.875 42.84375 
Q 14.796875 37.203125 14.796875 27.296875 
z
" id="DejaVuSans-100"/>
     </defs>
     <g transform="translate(94.6 72.748562)scale(0.1 -0.1)">
      <use xlink:href="#DejaVuSans-83"/>
      <use x="63.476562" xlink:href="#DejaVuSans-108"/>
      <use x="91.259766" xlink:href="#DejaVuSans-111"/>
      <use x="152.441406" xlink:href="#DejaVuSans-119"/>
      <use x="234.228516" xlink:href="#DejaVuSans-32"/>
      <use x="266.015625" xlink:href="#DejaVuSans-103"/>
      <use x="329.492188" xlink:href="#DejaVuSans-114"/>
      <use x="370.605469" xlink:href="#DejaVuSans-97"/>
      <use x="431.884766" xlink:href="#DejaVuSans-100"/>
      <use x="495.361328" xlink:href="#DejaVuSans-115"/>
     </g>
    </g>
   </g>
  </g>
  <g id="axes_2">
   <g id="matplotlib.axis_3">
    <g id="xtick_7">
     <g id="line2d_23">
      <path clip-path="url(#p7b1be02120)" d="M 57.6 307.584 
L 57.6 41.472 
" style="fill:none;stroke:#b0b0b0;stroke-linecap:square;stroke-width:0.8;"/>
     </g>
     <g id="line2d_24">
      <defs>
       <path d="M 0 0 
L 0 -3.5 
" id="mc2151541d3" style="stroke:#000000;stroke-width:0.8;"/>
      </defs>
      <g>
       <use style="stroke:#000000;stroke-width:0.8;" x="57.6" xlink:href="#mc2151541d3" y="41.472"/>
      </g>
     </g>
     <g id="text_15">
      <!-- 0.0 -->
      <defs>
       <path d="M 10.6875 12.40625 
L 21 12.40625 
L 21 0 
L 10.6875 0 
z
" id="DejaVuSans-46"/>
      </defs>
      <g transform="translate(49.648438 32.392313)scale(0.1 -0.1)">
       <use xlink:href="#DejaVuSans-48"/>
       <use x="63.623047" xlink:href="#DejaVuSans-46"/>
       <use x="95.410156" xlink:href="#DejaVuSans-48"/>
      </g>
     </g>
    </g>
    <g id="xtick_8">
     <g id="line2d_25">
      <path clip-path="url(#p7b1be02120)" d="M 97.28 307.584 
L 97.28 41.472 
" style="fill:none;stroke:#b0b0b0;stroke-linecap:square;stroke-width:0.8;"/>
     </g>
     <g id="line2d_26">
      <g>
       <use style="stroke:#000000;stroke-width:0.8;" x="97.28" xlink:href="#mc2151541d3" y="41.472"/>
      </g>
     </g>
     <g id="text_16">
      <!-- 0.2 -->
      <g transform="translate(89.328438 32.392313)scale(0.1 -0.1)">
       <use xlink:href="#DejaVuSans-48"/>
       <use x="63.623047" xlink:href="#DejaVuSans-46"/>
       <use x="95.410156" xlink:href="#DejaVuSans-50"/>
      </g>
     </g>
    </g>
    <g id="xtick_9">
     <g id="line2d_27">
      <path clip-path="url(#p7b1be02120)" d="M 136.96 307.584 
L 136.96 41.472 
" style="fill:none;stroke:#b0b0b0;stroke-linecap:square;stroke-width:0.8;"/>
     </g>
     <g id="line2d_28">
      <g>
       <use style="stroke:#000000;stroke-width:0.8;" x="136.96" xlink:href="#mc2151541d3" y="41.472"/>
      </g>
     </g>
     <g id="text_17">
      <!-- 0.4 -->
      <g transform="translate(129.008438 32.392313)scale(0.1 -0.1)">
       <use xlink:href="#DejaVuSans-48"/>
       <use x="63.623047" xlink:href="#DejaVuSans-46"/>
       <use x="95.410156" xlink:href="#DejaVuSans-52"/>
      </g>
     </g>
    </g>
    <g id="xtick_10">
     <g id="line2d_29">
      <path clip-path="url(#p7b1be02120)" d="M 176.64 307.584 
L 176.64 41.472 
" style="fill:none;stroke:#b0b0b0;stroke-linecap:square;stroke-width:0.8;"/>
     </g>
     <g id="line2d_30">
      <g>
       <use style="stroke:#000000;stroke-width:0.8;" x="176.64" xlink:href="#mc2151541d3" y="41.472"/>
      </g>
     </g>
     <g id="text_18">
      <!-- 0.6 -->
      <g transform="translate(168.688437 32.392313)scale(0.1 -0.1)">
       <use xlink:href="#DejaVuSans-48"/>
       <use x="63.623047" xlink:href="#DejaVuSans-46"/>
       <use x="95.410156" xlink:href="#DejaVuSans-54"/>
      </g>
     </g>
    </g>
    <g id="xtick_11">
     <g id="line2d_31">
      <path clip-path="url(#p7b1be02120)" d="M 216.32 307.584 
L 216.32 41.472 
" style="fill:none;stroke:#b0b0b0;stroke-linecap:square;stroke-width:0.8;"/>
     </g>
     <g id="line2d_32">
      <g>
       <use style="stroke:#000000;stroke-width:0.8;" x="216.32" xlink:href="#mc2151541d3" y="41.472"/>
      </g>
     </g>
     <g id="text_19">
      <!-- 0.9 -->
      <g transform="translate(208.368437 32.392313)scale(0.1 -0.1)">
       <use xlink:href="#DejaVuSans-48"/>
       <use x="63.623047" xlink:href="#DejaVuSans-46"/>
       <use x="95.410156" xlink:href="#DejaVuSans-57"/>
      </g>
     </g>
    </g>
    <g id="xtick_12">
     <g id="line2d_33">
      <path clip-path="url(#p7b1be02120)" d="M 256 307.584 
L 256 41.472 
" style="fill:none;stroke:#b0b0b0;stroke-linecap:square;stroke-width:0.8;"/>
     </g>
     <g id="line2d_34">
      <g>
       <use style="stroke:#000000;stroke-width:0.8;" x="256" xlink:href="#mc2151541d3" y="41.472"/>
      </g>
     </g>
     <g id="text_20">
      <!-- 1.1 -->
      <g transform="translate(248.048438 32.392313)scale(0.1 -0.1)">
       <use xlink:href="#DejaVuSans-49"/>
       <use x="63.623047" xlink:href="#DejaVuSans-46"/>
       <use x="95.410156" xlink:href="#DejaVuSans-49"/>
      </g>
     </g>
    </g>
    <g id="xtick_13">
     <g id="line2d_35">
      <path clip-path="url(#p7b1be02120)" d="M 295.68 307.584 
L 295.68 41.472 
" style="fill:none;stroke:#b0b0b0;stroke-linecap:square;stroke-width:0.8;"/>
     </g>
     <g id="line2d_36">
      <g>
       <use style="stroke:#000000;stroke-width:0.8;" x="295.68" xlink:href="#mc2151541d3" y="41.472"/>
      </g>
     </g>
     <g id="text_21">
      <!-- 1.3 -->
      <defs>
       <path d="M 40.578125 39.3125 
Q 47.65625 37.796875 51.625 33 
Q 55.609375 28.21875 55.609375 21.1875 
Q 55.609375 10.40625 48.1875 4.484375 
Q 40.765625 -1.421875 27.09375 -1.421875 
Q 22.515625 -1.421875 17.65625 -0.515625 
Q 12.796875 0.390625 7.625 2.203125 
L 7.625 11.71875 
Q 11.71875 9.328125 16.59375 8.109375 
Q 21.484375 6.890625 26.8125 6.890625 
Q 36.078125 6.890625 40.9375 10.546875 
Q 45.796875 14.203125 45.796875 21.1875 
Q 45.796875 27.640625 41.28125 31.265625 
Q 36.765625 34.90625 28.71875 34.90625 
L 20.21875 34.90625 
L 20.21875 43.015625 
L 29.109375 43.015625 
Q 36.375 43.015625 40.234375 45.921875 
Q 44.09375 48.828125 44.09375 54.296875 
Q 44.09375 59.90625 40.109375 62.90625 
Q 36.140625 65.921875 28.71875 65.921875 
Q 24.65625 65.921875 20.015625 65.03125 
Q 15.375 64.15625 9.8125 62.3125 
L 9.8125 71.09375 
Q 15.4375 72.65625 20.34375 73.4375 
Q 25.25 74.21875 29.59375 74.21875 
Q 40.828125 74.21875 47.359375 69.109375 
Q 53.90625 64.015625 53.90625 55.328125 
Q 53.90625 49.265625 50.4375 45.09375 
Q 46.96875 40.921875 40.578125 39.3125 
z
" id="DejaVuSans-51"/>
      </defs>
      <g transform="translate(287.728437 32.392313)scale(0.1 -0.1)">
       <use xlink:href="#DejaVuSans-49"/>
       <use x="63.623047" xlink:href="#DejaVuSans-46"/>
       <use x="95.410156" xlink:href="#DejaVuSans-51"/>
      </g>
     </g>
    </g>
    <g id="xtick_14">
     <g id="line2d_37">
      <path clip-path="url(#p7b1be02120)" d="M 335.36 307.584 
L 335.36 41.472 
" style="fill:none;stroke:#b0b0b0;stroke-linecap:square;stroke-width:0.8;"/>
     </g>
     <g id="line2d_38">
      <g>
       <use style="stroke:#000000;stroke-width:0.8;" x="335.36" xlink:href="#mc2151541d3" y="41.472"/>
      </g>
     </g>
     <g id="text_22">
      <!-- 1.5 -->
      <g transform="translate(327.408437 32.392313)scale(0.1 -0.1)">
       <use xlink:href="#DejaVuSans-49"/>
       <use x="63.623047" xlink:href="#DejaVuSans-46"/>
       <use x="95.410156" xlink:href="#DejaVuSans-53"/>
      </g>
     </g>
    </g>
    <g id="xtick_15">
     <g id="line2d_39">
      <path clip-path="url(#p7b1be02120)" d="M 375.04 307.584 
L 375.04 41.472 
" style="fill:none;stroke:#b0b0b0;stroke-linecap:square;stroke-width:0.8;"/>
     </g>
     <g id="line2d_40">
      <g>
       <use style="stroke:#000000;stroke-width:0.8;" x="375.04" xlink:href="#mc2151541d3" y="41.472"/>
      </g>
     </g>
     <g id="text_23">
      <!-- 1.7 -->
      <g transform="translate(367.088437 32.392313)scale(0.1 -0.1)">
       <use xlink:href="#DejaVuSans-49"/>
       <use x="63.623047" xlink:href="#DejaVuSans-46"/>
       <use x="95.410156" xlink:href="#DejaVuSans-55"/>
      </g>
     </g>
    </g>
    <g id="xtick_16">
     <g id="line2d_41">
      <path clip-path="url(#p7b1be02120)" d="M 414.72 307.584 
L 414.72 41.472 
" style="fill:none;stroke:#b0b0b0;stroke-linecap:square;stroke-width:0.8;"/>
     </g>
     <g id="line2d_42">
      <g>
       <use style="stroke:#000000;stroke-width:0.8;" x="414.72" xlink:href="#mc2151541d3" y="41.472"/>
      </g>
     </g>
     <g id="text_24">
      <!-- 1.9 -->
      <g transform="translate(406.768438 32.392313)scale(0.1 -0.1)">
       <use xlink:href="#DejaVuSans-49"/>
       <use x="63.623047" xlink:href="#DejaVuSans-46"/>
       <use x="95.410156" xlink:href="#DejaVuSans-57"/>
      </g>
     </g>
    </g>
    <g id="text_25">
     <!-- Hours -->
     <defs>
      <path d="M 9.8125 72.90625 
L 19.671875 72.90625 
L 19.671875 43.015625 
L 55.515625 43.015625 
L 55.515625 72.90625 
L 65.375 72.90625 
L 65.375 0 
L 55.515625 0 
L 55.515625 34.71875 
L 19.671875 34.71875 
L 19.671875 0 
L 9.8125 0 
z
" id="DejaVuSans-72"/>
      <path d="M 8.5 21.578125 
L 8.5 54.6875 
L 17.484375 54.6875 
L 17.484375 21.921875 
Q 17.484375 14.15625 20.5 10.265625 
Q 23.53125 6.390625 29.59375 6.390625 
Q 36.859375 6.390625 41.078125 11.03125 
Q 45.3125 15.671875 45.3125 23.6875 
L 45.3125 54.6875 
L 54.296875 54.6875 
L 54.296875 0 
L 45.3125 0 
L 45.3125 8.40625 
Q 42.046875 3.421875 37.71875 1 
Q 33.40625 -1.421875 27.6875 -1.421875 
Q 18.265625 -1.421875 13.375 4.4375 
Q 8.5 10.296875 8.5 21.578125 
z
M 31.109375 56 
z
" id="DejaVuSans-117"/>
     </defs>
     <g transform="translate(221.511562 20.793875)scale(0.1 -0.1)">
      <use xlink:href="#DejaVuSans-72"/>
      <use x="75.195312" xlink:href="#DejaVuSans-111"/>
      <use x="136.376953" xlink:href="#DejaVuSans-117"/>
      <use x="199.755859" xlink:href="#DejaVuSans-114"/>
      <use x="240.869141" xlink:href="#DejaVuSans-115"/>
     </g>
    </g>
   </g>
   <g id="patch_8">
    <path d="M 57.6 307.584 
L 57.6 41.472 
" style="fill:none;stroke:#000000;stroke-linecap:square;stroke-linejoin:miter;stroke-width:0.8;"/>
   </g>
   <g id="patch_9">
    <path d="M 414.72 307.584 
L 414.72 41.472 
" style="fill:none;stroke:#000000;stroke-linecap:square;stroke-linejoin:miter;stroke-width:0.8;"/>
   </g>
   <g id="patch_10">
    <path d="M 57.6 307.584 
L 414.72 307.584 
" style="fill:none;stroke:#000000;stroke-linecap:square;stroke-linejoin:miter;stroke-width:0.8;"/>
   </g>
   <g id="patch_11">
    <path d="M 57.6 41.472 
L 414.72 41.472 
" style="fill:none;stroke:#000000;stroke-linecap:square;stroke-linejoin:miter;stroke-width:0.8;"/>
   </g>
  </g>
 </g>
 <defs>
  <clipPath id="p7b1be02120">
   <rect height="266.112" width="357.12" x="57.6" y="41.472"/>
  </clipPath>
 </defs>
</svg>
