<?xml version="1.0" encoding="utf-8" standalone="no"?>
<!DOCTYPE svg PUBLIC "-//W3C//DTD SVG 1.1//EN"
  "http://www.w3.org/Graphics/SVG/1.1/DTD/svg11.dtd">
<!-- Created with matplotlib (https://matplotlib.org/) -->
<svg height="345.6pt" version="1.1" viewBox="0 0 460.8 345.6" width="460.8pt" xmlns="http://www.w3.org/2000/svg" xmlns:xlink="http://www.w3.org/1999/xlink">
 <defs>
  <style type="text/css">
*{stroke-linecap:butt;stroke-linejoin:round;}
  </style>
 </defs>
 <g id="figure_1">
  <g id="patch_1">
   <path d="M 0 345.6 
L 460.8 345.6 
L 460.8 0 
L 0 0 
z
" style="fill:#ffffff;"/>
  </g>
  <g id="axes_1">
   <g id="patch_2">
    <path d="M 57.6 307.584 
L 414.72 307.584 
L 414.72 41.472 
L 57.6 41.472 
z
" style="fill:#ffffff;"/>
   </g>
   <g id="matplotlib.axis_1">
    <g id="xtick_1">
     <g id="line2d_1">
      <defs>
       <path d="M 0 0 
L 0 3.5 
" id="mf857b2e5b5" style="stroke:#000000;stroke-width:0.8;"/>
      </defs>
      <g>
       <use style="stroke:#000000;stroke-width:0.8;" x="57.6" xlink:href="#mf857b2e5b5" y="307.584"/>
      </g>
     </g>
    </g>
    <g id="xtick_2">
     <g id="line2d_2">
      <g>
       <use style="stroke:#000000;stroke-width:0.8;" x="119.6" xlink:href="#mf857b2e5b5" y="307.584"/>
      </g>
     </g>
     <g id="text_1">
      <!-- 100 -->
      <defs>
       <path d="M 12.40625 8.296875 
L 28.515625 8.296875 
L 28.515625 63.921875 
L 10.984375 60.40625 
L 10.984375 69.390625 
L 28.421875 72.90625 
L 38.28125 72.90625 
L 38.28125 8.296875 
L 54.390625 8.296875 
L 54.390625 0 
L 12.40625 0 
z
" id="DejaVuSans-49"/>
       <path d="M 31.78125 66.40625 
Q 24.171875 66.40625 20.328125 58.90625 
Q 16.5 51.421875 16.5 36.375 
Q 16.5 21.390625 20.328125 13.890625 
Q 24.171875 6.390625 31.78125 6.390625 
Q 39.453125 6.390625 43.28125 13.890625 
Q 47.125 21.390625 47.125 36.375 
Q 47.125 51.421875 43.28125 58.90625 
Q 39.453125 66.40625 31.78125 66.40625 
z
M 31.78125 74.21875 
Q 44.046875 74.21875 50.515625 64.515625 
Q 56.984375 54.828125 56.984375 36.375 
Q 56.984375 17.96875 50.515625 8.265625 
Q 44.046875 -1.421875 31.78125 -1.421875 
Q 19.53125 -1.421875 13.0625 8.265625 
Q 6.59375 17.96875 6.59375 36.375 
Q 6.59375 54.828125 13.0625 64.515625 
Q 19.53125 74.21875 31.78125 74.21875 
z
" id="DejaVuSans-48"/>
      </defs>
      <g transform="translate(110.05625 322.182437)scale(0.1 -0.1)">
       <use xlink:href="#DejaVuSans-49"/>
       <use x="63.623047" xlink:href="#DejaVuSans-48"/>
       <use x="127.246094" xlink:href="#DejaVuSans-48"/>
      </g>
     </g>
    </g>
    <g id="xtick_3">
     <g id="line2d_3">
      <g>
       <use style="stroke:#000000;stroke-width:0.8;" x="181.6" xlink:href="#mf857b2e5b5" y="307.584"/>
      </g>
     </g>
     <g id="text_2">
      <!-- 200 -->
      <defs>
       <path d="M 19.1875 8.296875 
L 53.609375 8.296875 
L 53.609375 0 
L 7.328125 0 
L 7.328125 8.296875 
Q 12.9375 14.109375 22.625 23.890625 
Q 32.328125 33.6875 34.8125 36.53125 
Q 39.546875 41.84375 41.421875 45.53125 
Q 43.3125 49.21875 43.3125 52.78125 
Q 43.3125 58.59375 39.234375 62.25 
Q 35.15625 65.921875 28.609375 65.921875 
Q 23.96875 65.921875 18.8125 64.3125 
Q 13.671875 62.703125 7.8125 59.421875 
L 7.8125 69.390625 
Q 13.765625 71.78125 18.9375 73 
Q 24.125 74.21875 28.421875 74.21875 
Q 39.75 74.21875 46.484375 68.546875 
Q 53.21875 62.890625 53.21875 53.421875 
Q 53.21875 48.921875 51.53125 44.890625 
Q 49.859375 40.875 45.40625 35.40625 
Q 44.1875 33.984375 37.640625 27.21875 
Q 31.109375 20.453125 19.1875 8.296875 
z
" id="DejaVuSans-50"/>
      </defs>
      <g transform="translate(172.05625 322.182437)scale(0.1 -0.1)">
       <use xlink:href="#DejaVuSans-50"/>
       <use x="63.623047" xlink:href="#DejaVuSans-48"/>
       <use x="127.246094" xlink:href="#DejaVuSans-48"/>
      </g>
     </g>
    </g>
    <g id="xtick_4">
     <g id="line2d_4">
      <g>
       <use style="stroke:#000000;stroke-width:0.8;" x="243.6" xlink:href="#mf857b2e5b5" y="307.584"/>
      </g>
     </g>
     <g id="text_3">
      <!-- 300 -->
      <defs>
       <path d="M 40.578125 39.3125 
Q 47.65625 37.796875 51.625 33 
Q 55.609375 28.21875 55.609375 21.1875 
Q 55.609375 10.40625 48.1875 4.484375 
Q 40.765625 -1.421875 27.09375 -1.421875 
Q 22.515625 -1.421875 17.65625 -0.515625 
Q 12.796875 0.390625 7.625 2.203125 
L 7.625 11.71875 
Q 11.71875 9.328125 16.59375 8.109375 
Q 21.484375 6.890625 26.8125 6.890625 
Q 36.078125 6.890625 40.9375 10.546875 
Q 45.796875 14.203125 45.796875 21.1875 
Q 45.796875 27.640625 41.28125 31.265625 
Q 36.765625 34.90625 28.71875 34.90625 
L 20.21875 34.90625 
L 20.21875 43.015625 
L 29.109375 43.015625 
Q 36.375 43.015625 40.234375 45.921875 
Q 44.09375 48.828125 44.09375 54.296875 
Q 44.09375 59.90625 40.109375 62.90625 
Q 36.140625 65.921875 28.71875 65.921875 
Q 24.65625 65.921875 20.015625 65.03125 
Q 15.375 64.15625 9.8125 62.3125 
L 9.8125 71.09375 
Q 15.4375 72.65625 20.34375 73.4375 
Q 25.25 74.21875 29.59375 74.21875 
Q 40.828125 74.21875 47.359375 69.109375 
Q 53.90625 64.015625 53.90625 55.328125 
Q 53.90625 49.265625 50.4375 45.09375 
Q 46.96875 40.921875 40.578125 39.3125 
z
" id="DejaVuSans-51"/>
      </defs>
      <g transform="translate(234.05625 322.182437)scale(0.1 -0.1)">
       <use xlink:href="#DejaVuSans-51"/>
       <use x="63.623047" xlink:href="#DejaVuSans-48"/>
       <use x="127.246094" xlink:href="#DejaVuSans-48"/>
      </g>
     </g>
    </g>
    <g id="xtick_5">
     <g id="line2d_5">
      <g>
       <use style="stroke:#000000;stroke-width:0.8;" x="305.6" xlink:href="#mf857b2e5b5" y="307.584"/>
      </g>
     </g>
     <g id="text_4">
      <!-- 400 -->
      <defs>
       <path d="M 37.796875 64.3125 
L 12.890625 25.390625 
L 37.796875 25.390625 
z
M 35.203125 72.90625 
L 47.609375 72.90625 
L 47.609375 25.390625 
L 58.015625 25.390625 
L 58.015625 17.1875 
L 47.609375 17.1875 
L 47.609375 0 
L 37.796875 0 
L 37.796875 17.1875 
L 4.890625 17.1875 
L 4.890625 26.703125 
z
" id="DejaVuSans-52"/>
      </defs>
      <g transform="translate(296.05625 322.182437)scale(0.1 -0.1)">
       <use xlink:href="#DejaVuSans-52"/>
       <use x="63.623047" xlink:href="#DejaVuSans-48"/>
       <use x="127.246094" xlink:href="#DejaVuSans-48"/>
      </g>
     </g>
    </g>
    <g id="xtick_6">
     <g id="line2d_6">
      <g>
       <use style="stroke:#000000;stroke-width:0.8;" x="367.6" xlink:href="#mf857b2e5b5" y="307.584"/>
      </g>
     </g>
     <g id="text_5">
      <!-- 500 -->
      <defs>
       <path d="M 10.796875 72.90625 
L 49.515625 72.90625 
L 49.515625 64.59375 
L 19.828125 64.59375 
L 19.828125 46.734375 
Q 21.96875 47.46875 24.109375 47.828125 
Q 26.265625 48.1875 28.421875 48.1875 
Q 40.625 48.1875 47.75 41.5 
Q 54.890625 34.8125 54.890625 23.390625 
Q 54.890625 11.625 47.5625 5.09375 
Q 40.234375 -1.421875 26.90625 -1.421875 
Q 22.3125 -1.421875 17.546875 -0.640625 
Q 12.796875 0.140625 7.71875 1.703125 
L 7.71875 11.625 
Q 12.109375 9.234375 16.796875 8.0625 
Q 21.484375 6.890625 26.703125 6.890625 
Q 35.15625 6.890625 40.078125 11.328125 
Q 45.015625 15.765625 45.015625 23.390625 
Q 45.015625 31 40.078125 35.4375 
Q 35.15625 39.890625 26.703125 39.890625 
Q 22.75 39.890625 18.8125 39.015625 
Q 14.890625 38.140625 10.796875 36.28125 
z
" id="DejaVuSans-53"/>
      </defs>
      <g transform="translate(358.05625 322.182437)scale(0.1 -0.1)">
       <use xlink:href="#DejaVuSans-53"/>
       <use x="63.623047" xlink:href="#DejaVuSans-48"/>
       <use x="127.246094" xlink:href="#DejaVuSans-48"/>
      </g>
     </g>
    </g>
    <g id="text_6">
     <!-- Episodes -->
     <defs>
      <path d="M 9.8125 72.90625 
L 55.90625 72.90625 
L 55.90625 64.59375 
L 19.671875 64.59375 
L 19.671875 43.015625 
L 54.390625 43.015625 
L 54.390625 34.71875 
L 19.671875 34.71875 
L 19.671875 8.296875 
L 56.78125 8.296875 
L 56.78125 0 
L 9.8125 0 
z
" id="DejaVuSans-69"/>
      <path d="M 18.109375 8.203125 
L 18.109375 -20.796875 
L 9.078125 -20.796875 
L 9.078125 54.6875 
L 18.109375 54.6875 
L 18.109375 46.390625 
Q 20.953125 51.265625 25.265625 53.625 
Q 29.59375 56 35.59375 56 
Q 45.5625 56 51.78125 48.09375 
Q 58.015625 40.1875 58.015625 27.296875 
Q 58.015625 14.40625 51.78125 6.484375 
Q 45.5625 -1.421875 35.59375 -1.421875 
Q 29.59375 -1.421875 25.265625 0.953125 
Q 20.953125 3.328125 18.109375 8.203125 
z
M 48.6875 27.296875 
Q 48.6875 37.203125 44.609375 42.84375 
Q 40.53125 48.484375 33.40625 48.484375 
Q 26.265625 48.484375 22.1875 42.84375 
Q 18.109375 37.203125 18.109375 27.296875 
Q 18.109375 17.390625 22.1875 11.75 
Q 26.265625 6.109375 33.40625 6.109375 
Q 40.53125 6.109375 44.609375 11.75 
Q 48.6875 17.390625 48.6875 27.296875 
z
" id="DejaVuSans-112"/>
      <path d="M 9.421875 54.6875 
L 18.40625 54.6875 
L 18.40625 0 
L 9.421875 0 
z
M 9.421875 75.984375 
L 18.40625 75.984375 
L 18.40625 64.59375 
L 9.421875 64.59375 
z
" id="DejaVuSans-105"/>
      <path d="M 44.28125 53.078125 
L 44.28125 44.578125 
Q 40.484375 46.53125 36.375 47.5 
Q 32.28125 48.484375 27.875 48.484375 
Q 21.1875 48.484375 17.84375 46.4375 
Q 14.5 44.390625 14.5 40.28125 
Q 14.5 37.15625 16.890625 35.375 
Q 19.28125 33.59375 26.515625 31.984375 
L 29.59375 31.296875 
Q 39.15625 29.25 43.1875 25.515625 
Q 47.21875 21.78125 47.21875 15.09375 
Q 47.21875 7.46875 41.1875 3.015625 
Q 35.15625 -1.421875 24.609375 -1.421875 
Q 20.21875 -1.421875 15.453125 -0.5625 
Q 10.6875 0.296875 5.421875 2 
L 5.421875 11.28125 
Q 10.40625 8.6875 15.234375 7.390625 
Q 20.0625 6.109375 24.8125 6.109375 
Q 31.15625 6.109375 34.5625 8.28125 
Q 37.984375 10.453125 37.984375 14.40625 
Q 37.984375 18.0625 35.515625 20.015625 
Q 33.0625 21.96875 24.703125 23.78125 
L 21.578125 24.515625 
Q 13.234375 26.265625 9.515625 29.90625 
Q 5.8125 33.546875 5.8125 39.890625 
Q 5.8125 47.609375 11.28125 51.796875 
Q 16.75 56 26.8125 56 
Q 31.78125 56 36.171875 55.265625 
Q 40.578125 54.546875 44.28125 53.078125 
z
" id="DejaVuSans-115"/>
      <path d="M 30.609375 48.390625 
Q 23.390625 48.390625 19.1875 42.75 
Q 14.984375 37.109375 14.984375 27.296875 
Q 14.984375 17.484375 19.15625 11.84375 
Q 23.34375 6.203125 30.609375 6.203125 
Q 37.796875 6.203125 41.984375 11.859375 
Q 46.1875 17.53125 46.1875 27.296875 
Q 46.1875 37.015625 41.984375 42.703125 
Q 37.796875 48.390625 30.609375 48.390625 
z
M 30.609375 56 
Q 42.328125 56 49.015625 48.375 
Q 55.71875 40.765625 55.71875 27.296875 
Q 55.71875 13.875 49.015625 6.21875 
Q 42.328125 -1.421875 30.609375 -1.421875 
Q 18.84375 -1.421875 12.171875 6.21875 
Q 5.515625 13.875 5.515625 27.296875 
Q 5.515625 40.765625 12.171875 48.375 
Q 18.84375 56 30.609375 56 
z
" id="DejaVuSans-111"/>
      <path d="M 45.40625 46.390625 
L 45.40625 75.984375 
L 54.390625 75.984375 
L 54.390625 0 
L 45.40625 0 
L 45.40625 8.203125 
Q 42.578125 3.328125 38.25 0.953125 
Q 33.9375 -1.421875 27.875 -1.421875 
Q 17.96875 -1.421875 11.734375 6.484375 
Q 5.515625 14.40625 5.515625 27.296875 
Q 5.515625 40.1875 11.734375 48.09375 
Q 17.96875 56 27.875 56 
Q 33.9375 56 38.25 53.625 
Q 42.578125 51.265625 45.40625 46.390625 
z
M 14.796875 27.296875 
Q 14.796875 17.390625 18.875 11.75 
Q 22.953125 6.109375 30.078125 6.109375 
Q 37.203125 6.109375 41.296875 11.75 
Q 45.40625 17.390625 45.40625 27.296875 
Q 45.40625 37.203125 41.296875 42.84375 
Q 37.203125 48.484375 30.078125 48.484375 
Q 22.953125 48.484375 18.875 42.84375 
Q 14.796875 37.203125 14.796875 27.296875 
z
" id="DejaVuSans-100"/>
      <path d="M 56.203125 29.59375 
L 56.203125 25.203125 
L 14.890625 25.203125 
Q 15.484375 15.921875 20.484375 11.0625 
Q 25.484375 6.203125 34.421875 6.203125 
Q 39.59375 6.203125 44.453125 7.46875 
Q 49.3125 8.734375 54.109375 11.28125 
L 54.109375 2.78125 
Q 49.265625 0.734375 44.1875 -0.34375 
Q 39.109375 -1.421875 33.890625 -1.421875 
Q 20.796875 -1.421875 13.15625 6.1875 
Q 5.515625 13.8125 5.515625 26.8125 
Q 5.515625 40.234375 12.765625 48.109375 
Q 20.015625 56 32.328125 56 
Q 43.359375 56 49.78125 48.890625 
Q 56.203125 41.796875 56.203125 29.59375 
z
M 47.21875 32.234375 
Q 47.125 39.59375 43.09375 43.984375 
Q 39.0625 48.390625 32.421875 48.390625 
Q 24.90625 48.390625 20.390625 44.140625 
Q 15.875 39.890625 15.1875 32.171875 
z
" id="DejaVuSans-101"/>
     </defs>
     <g transform="translate(213.917812 335.860562)scale(0.1 -0.1)">
      <use xlink:href="#DejaVuSans-69"/>
      <use x="63.183594" xlink:href="#DejaVuSans-112"/>
      <use x="126.660156" xlink:href="#DejaVuSans-105"/>
      <use x="154.443359" xlink:href="#DejaVuSans-115"/>
      <use x="206.542969" xlink:href="#DejaVuSans-111"/>
      <use x="267.724609" xlink:href="#DejaVuSans-100"/>
      <use x="331.201172" xlink:href="#DejaVuSans-101"/>
      <use x="392.724609" xlink:href="#DejaVuSans-115"/>
     </g>
    </g>
   </g>
   <g id="matplotlib.axis_2">
    <g id="ytick_1">
     <g id="line2d_7">
      <path clip-path="url(#p27afc388fe)" d="M 57.6 279.700763 
L 414.72 279.700763 
" style="fill:none;stroke:#b0b0b0;stroke-linecap:square;stroke-width:0.8;"/>
     </g>
     <g id="line2d_8">
      <defs>
       <path d="M 0 0 
L -3.5 0 
" id="m283bc0d14d" style="stroke:#000000;stroke-width:0.8;"/>
      </defs>
      <g>
       <use style="stroke:#000000;stroke-width:0.8;" x="57.6" xlink:href="#m283bc0d14d" y="279.700763"/>
      </g>
     </g>
     <g id="text_7">
      <!-- 1000 -->
      <g transform="translate(25.15 283.499982)scale(0.1 -0.1)">
       <use xlink:href="#DejaVuSans-49"/>
       <use x="63.623047" xlink:href="#DejaVuSans-48"/>
       <use x="127.246094" xlink:href="#DejaVuSans-48"/>
       <use x="190.869141" xlink:href="#DejaVuSans-48"/>
      </g>
     </g>
    </g>
    <g id="ytick_2">
     <g id="line2d_9">
      <path clip-path="url(#p27afc388fe)" d="M 57.6 247.349867 
L 414.72 247.349867 
" style="fill:none;stroke:#b0b0b0;stroke-linecap:square;stroke-width:0.8;"/>
     </g>
     <g id="line2d_10">
      <g>
       <use style="stroke:#000000;stroke-width:0.8;" x="57.6" xlink:href="#m283bc0d14d" y="247.349867"/>
      </g>
     </g>
     <g id="text_8">
      <!-- 1500 -->
      <g transform="translate(25.15 251.149086)scale(0.1 -0.1)">
       <use xlink:href="#DejaVuSans-49"/>
       <use x="63.623047" xlink:href="#DejaVuSans-53"/>
       <use x="127.246094" xlink:href="#DejaVuSans-48"/>
       <use x="190.869141" xlink:href="#DejaVuSans-48"/>
      </g>
     </g>
    </g>
    <g id="ytick_3">
     <g id="line2d_11">
      <path clip-path="url(#p27afc388fe)" d="M 57.6 214.998971 
L 414.72 214.998971 
" style="fill:none;stroke:#b0b0b0;stroke-linecap:square;stroke-width:0.8;"/>
     </g>
     <g id="line2d_12">
      <g>
       <use style="stroke:#000000;stroke-width:0.8;" x="57.6" xlink:href="#m283bc0d14d" y="214.998971"/>
      </g>
     </g>
     <g id="text_9">
      <!-- 2000 -->
      <g transform="translate(25.15 218.79819)scale(0.1 -0.1)">
       <use xlink:href="#DejaVuSans-50"/>
       <use x="63.623047" xlink:href="#DejaVuSans-48"/>
       <use x="127.246094" xlink:href="#DejaVuSans-48"/>
       <use x="190.869141" xlink:href="#DejaVuSans-48"/>
      </g>
     </g>
    </g>
    <g id="ytick_4">
     <g id="line2d_13">
      <path clip-path="url(#p27afc388fe)" d="M 57.6 182.648075 
L 414.72 182.648075 
" style="fill:none;stroke:#b0b0b0;stroke-linecap:square;stroke-width:0.8;"/>
     </g>
     <g id="line2d_14">
      <g>
       <use style="stroke:#000000;stroke-width:0.8;" x="57.6" xlink:href="#m283bc0d14d" y="182.648075"/>
      </g>
     </g>
     <g id="text_10">
      <!-- 2500 -->
      <g transform="translate(25.15 186.447294)scale(0.1 -0.1)">
       <use xlink:href="#DejaVuSans-50"/>
       <use x="63.623047" xlink:href="#DejaVuSans-53"/>
       <use x="127.246094" xlink:href="#DejaVuSans-48"/>
       <use x="190.869141" xlink:href="#DejaVuSans-48"/>
      </g>
     </g>
    </g>
    <g id="ytick_5">
     <g id="line2d_15">
      <path clip-path="url(#p27afc388fe)" d="M 57.6 150.297179 
L 414.72 150.297179 
" style="fill:none;stroke:#b0b0b0;stroke-linecap:square;stroke-width:0.8;"/>
     </g>
     <g id="line2d_16">
      <g>
       <use style="stroke:#000000;stroke-width:0.8;" x="57.6" xlink:href="#m283bc0d14d" y="150.297179"/>
      </g>
     </g>
     <g id="text_11">
      <!-- 3000 -->
      <g transform="translate(25.15 154.096398)scale(0.1 -0.1)">
       <use xlink:href="#DejaVuSans-51"/>
       <use x="63.623047" xlink:href="#DejaVuSans-48"/>
       <use x="127.246094" xlink:href="#DejaVuSans-48"/>
       <use x="190.869141" xlink:href="#DejaVuSans-48"/>
      </g>
     </g>
    </g>
    <g id="ytick_6">
     <g id="line2d_17">
      <path clip-path="url(#p27afc388fe)" d="M 57.6 117.946283 
L 414.72 117.946283 
" style="fill:none;stroke:#b0b0b0;stroke-linecap:square;stroke-width:0.8;"/>
     </g>
     <g id="line2d_18">
      <g>
       <use style="stroke:#000000;stroke-width:0.8;" x="57.6" xlink:href="#m283bc0d14d" y="117.946283"/>
      </g>
     </g>
     <g id="text_12">
      <!-- 3500 -->
      <g transform="translate(25.15 121.745502)scale(0.1 -0.1)">
       <use xlink:href="#DejaVuSans-51"/>
       <use x="63.623047" xlink:href="#DejaVuSans-53"/>
       <use x="127.246094" xlink:href="#DejaVuSans-48"/>
       <use x="190.869141" xlink:href="#DejaVuSans-48"/>
      </g>
     </g>
    </g>
    <g id="ytick_7">
     <g id="line2d_19">
      <path clip-path="url(#p27afc388fe)" d="M 57.6 85.595387 
L 414.72 85.595387 
" style="fill:none;stroke:#b0b0b0;stroke-linecap:square;stroke-width:0.8;"/>
     </g>
     <g id="line2d_20">
      <g>
       <use style="stroke:#000000;stroke-width:0.8;" x="57.6" xlink:href="#m283bc0d14d" y="85.595387"/>
      </g>
     </g>
     <g id="text_13">
      <!-- 4000 -->
      <g transform="translate(25.15 89.394606)scale(0.1 -0.1)">
       <use xlink:href="#DejaVuSans-52"/>
       <use x="63.623047" xlink:href="#DejaVuSans-48"/>
       <use x="127.246094" xlink:href="#DejaVuSans-48"/>
       <use x="190.869141" xlink:href="#DejaVuSans-48"/>
      </g>
     </g>
    </g>
    <g id="ytick_8">
     <g id="line2d_21">
      <path clip-path="url(#p27afc388fe)" d="M 57.6 53.244491 
L 414.72 53.244491 
" style="fill:none;stroke:#b0b0b0;stroke-linecap:square;stroke-width:0.8;"/>
     </g>
     <g id="line2d_22">
      <g>
       <use style="stroke:#000000;stroke-width:0.8;" x="57.6" xlink:href="#m283bc0d14d" y="53.244491"/>
      </g>
     </g>
     <g id="text_14">
      <!-- 4500 -->
      <g transform="translate(25.15 57.04371)scale(0.1 -0.1)">
       <use xlink:href="#DejaVuSans-52"/>
       <use x="63.623047" xlink:href="#DejaVuSans-53"/>
       <use x="127.246094" xlink:href="#DejaVuSans-48"/>
       <use x="190.869141" xlink:href="#DejaVuSans-48"/>
      </g>
     </g>
    </g>
    <g id="text_15">
     <!-- Episode steps -->
     <defs>
      <path id="DejaVuSans-32"/>
      <path d="M 18.3125 70.21875 
L 18.3125 54.6875 
L 36.8125 54.6875 
L 36.8125 47.703125 
L 18.3125 47.703125 
L 18.3125 18.015625 
Q 18.3125 11.328125 20.140625 9.421875 
Q 21.96875 7.515625 27.59375 7.515625 
L 36.8125 7.515625 
L 36.8125 0 
L 27.59375 0 
Q 17.1875 0 13.234375 3.875 
Q 9.28125 7.765625 9.28125 18.015625 
L 9.28125 47.703125 
L 2.6875 47.703125 
L 2.6875 54.6875 
L 9.28125 54.6875 
L 9.28125 70.21875 
z
" id="DejaVuSans-116"/>
     </defs>
     <g transform="translate(19.070312 209.174875)rotate(-90)scale(0.1 -0.1)">
      <use xlink:href="#DejaVuSans-69"/>
      <use x="63.183594" xlink:href="#DejaVuSans-112"/>
      <use x="126.660156" xlink:href="#DejaVuSans-105"/>
      <use x="154.443359" xlink:href="#DejaVuSans-115"/>
      <use x="206.542969" xlink:href="#DejaVuSans-111"/>
      <use x="267.724609" xlink:href="#DejaVuSans-100"/>
      <use x="331.201172" xlink:href="#DejaVuSans-101"/>
      <use x="392.724609" xlink:href="#DejaVuSans-32"/>
      <use x="424.511719" xlink:href="#DejaVuSans-115"/>
      <use x="476.611328" xlink:href="#DejaVuSans-116"/>
      <use x="515.820312" xlink:href="#DejaVuSans-101"/>
      <use x="577.34375" xlink:href="#DejaVuSans-112"/>
      <use x="640.820312" xlink:href="#DejaVuSans-115"/>
     </g>
    </g>
   </g>
   <g id="line2d_23">
    <path clip-path="url(#p27afc388fe)" d="M 58.22 272.518864 
L 58.84 282.224133 
L 59.46 282.677045 
L 60.08 293.352841 
L 60.7 293.546946 
L 61.32 282.418238 
L 61.94 283.388765 
L 62.56 291.088278 
L 63.18 289.794242 
L 63.8 278.406727 
L 64.42 280.412482 
L 65.04 295.358596 
L 65.66 281.641817 
L 66.28 290.635366 
L 66.9 281.447711 
L 67.52 287.464978 
L 68.14 275.753953 
L 68.76 282.547642 
L 69.38 284.359292 
L 70 290.44126 
L 70.62 284.553397 
L 71.24 283.453467 
L 71.86 283.712274 
L 72.48 288.241399 
L 73.1 283.776976 
L 73.72 281.512413 
L 74.34 268.895564 
L 74.96 293.67635 
L 75.58 288.564908 
L 76.2 278.924341 
L 76.82 294.129262 
L 77.44 281.124202 
L 78.06 285.329819 
L 78.68 291.541191 
L 79.3 294.258666 
L 79.92 275.430445 
L 81.16 293.482244 
L 81.78 288.500206 
L 82.4 288.306101 
L 83.64 281.512413 
L 84.88 271.030723 
L 85.5 272.583566 
L 86.12 287.853189 
L 86.74 291.605892 
L 87.36 282.418238 
L 87.98 278.018516 
L 89.22 291.217682 
L 89.84 284.488695 
L 90.46 291.411787 
L 91.08 279.765465 
L 91.7 291.476489 
L 92.32 287.723785 
L 92.94 274.524619 
L 93.56 286.365047 
L 94.18 285.653328 
L 94.8 291.670594 
L 95.42 287.659083 
L 96.04 291.670594 
L 96.66 293.546946 
L 97.28 291.282384 
L 97.9 291.605892 
L 98.52 282.612343 
L 99.14 288.500206 
L 99.76 291.605892 
L 100.38 287.464978 
L 101 284.941608 
L 101.62 280.024272 
L 102.24 281.253606 
L 102.86 293.611648 
L 103.48 294.193964 
L 104.1 294.193964 
L 104.72 288.759014 
L 105.34 289.664839 
L 105.96 287.012065 
L 106.58 289.211926 
L 107.2 280.606588 
L 107.82 282.418238 
L 108.44 292.25291 
L 109.06 281.835922 
L 109.68 294.064561 
L 110.3 277.759709 
L 110.92 271.936548 
L 111.54 288.500206 
L 112.16 286.623855 
L 112.78 276.530375 
L 113.4 292.123507 
L 114.02 293.546946 
L 114.64 280.800693 
L 115.26 280.024272 
L 115.88 287.788487 
L 116.5 271.483635 
L 117.12 263.137104 
L 117.74 286.235644 
L 118.36 271.160126 
L 118.98 282.871151 
L 119.6 274.718725 
L 120.22 279.312552 
L 120.84 278.665534 
L 121.46 270.254301 
L 122.08 277.630305 
L 122.7 269.089669 
L 123.32 278.665534 
L 123.94 255.955205 
L 124.56 276.206866 
L 125.18 263.525315 
L 125.8 278.342025 
L 126.42 271.354232 
L 127.04 275.818655 
L 127.66 276.012761 
L 128.28 253.496537 
L 128.9 259.254997 
L 129.52 243.403058 
L 130.14 257.443346 
L 130.76 274.848128 
L 131.38 259.319698 
L 132 276.077462 
L 132.62 246.314638 
L 133.24 262.684191 
L 133.86 267.860335 
L 135.1 270.448407 
L 135.72 254.984678 
L 136.34 255.955205 
L 136.96 266.889808 
L 137.58 234.668316 
L 138.2 265.466369 
L 138.82 249.743833 
L 139.44 259.837313 
L 140.06 246.767551 
L 140.68 238.550423 
L 141.3 255.566994 
L 141.92 235.832948 
L 142.54 255.566994 
L 143.16 262.425384 
L 143.78 239.197441 
L 144.4 229.168663 
L 145.02 240.167968 
L 145.64 245.66762 
L 146.26 233.050771 
L 146.88 215.645989 
L 147.5 242.950145 
L 148.12 243.597163 
L 148.74 226.904101 
L 149.36 237.385791 
L 149.98 220.175114 
L 150.6 225.157152 
L 151.22 243.791268 
L 151.84 235.315334 
L 152.46 253.561239 
L 153.08 250.00264 
L 153.7 236.156457 
L 154.32 224.963047 
L 154.94 247.608674 
L 155.56 241.914916 
L 156.18 210.081635 
L 156.8 241.591407 
L 157.42 231.692033 
L 158.04 246.961656 
L 158.66 215.32248 
L 159.28 243.532461 
L 159.9 259.254997 
L 160.52 228.133435 
L 161.14 220.692729 
L 161.76 249.743833 
L 162.38 259.966716 
L 163 206.005422 
L 163.62 238.42102 
L 164.24 219.851605 
L 164.86 228.651049 
L 165.48 192.288642 
L 166.1 218.104657 
L 166.72 230.915612 
L 167.34 220.045711 
L 167.96 241.009091 
L 168.58 219.722202 
L 169.2 225.09245 
L 169.82 200.829278 
L 170.44 247.220463 
L 171.06 244.697093 
L 171.68 195.523731 
L 172.3 214.675462 
L 172.92 211.763881 
L 173.54 216.163603 
L 174.78 177.989546 
L 175.4 211.505074 
L 176.02 207.687668 
L 176.64 158.773114 
L 177.26 167.831365 
L 177.88 173.654526 
L 178.5 197.788294 
L 179.12 174.17214 
L 179.74 208.205283 
L 180.36 177.666037 
L 180.98 197.9824 
L 181.6 187.1772 
L 182.22 217.975253 
L 182.84 188.147727 
L 183.46 140.397805 
L 184.08 160.002448 
L 184.7 162.655221 
L 185.32 206.846545 
L 186.56 150.879495 
L 187.18 174.560351 
L 187.8 188.924149 
L 188.42 160.45536 
L 189.04 164.078661 
L 189.66 133.73352 
L 190.28 110.311472 
L 190.9 184.330321 
L 191.52 171.001752 
L 192.14 180.965828 
L 192.76 204.258473 
L 193.38 142.338859 
L 194 150.038372 
L 194.62 152.755847 
L 195.24 128.945588 
L 195.86 177.019019 
L 196.48 117.687476 
L 197.72 205.423106 
L 198.34 117.687476 
L 198.96 188.730043 
L 199.58 181.936355 
L 200.2 184.977339 
L 200.82 130.627834 
L 201.44 134.574643 
L 202.06 151.267706 
L 202.68 172.101683 
L 203.3 198.176505 
L 203.92 126.745727 
L 204.54 145.444545 
L 205.16 190.671097 
L 205.78 179.9306 
L 206.4 164.531573 
L 207.02 130.045518 
L 207.64 174.366246 
L 208.26 166.21382 
L 208.88 123.575339 
L 209.5 153.273461 
L 210.12 165.760907 
L 210.74 187.436007 
L 211.98 77.831172 
L 212.6 94.783041 
L 213.22 129.139693 
L 213.84 154.761603 
L 214.46 174.430947 
L 215.08 205.229 
L 215.7 99.765079 
L 216.32 115.68172 
L 216.94 124.545866 
L 217.56 159.678939 
L 218.18 171.26056 
L 218.8 159.808342 
L 219.42 83.719035 
L 220.04 109.405646 
L 220.66 105.847048 
L 221.28 139.750787 
L 221.9 114.258281 
L 222.52 108.241014 
L 223.14 158.64371 
L 223.76 106.364662 
L 225 105.20003 
L 225.62 107.982207 
L 226.24 145.832755 
L 226.86 129.333798 
L 227.48 100.541501 
L 228.1 130.627834 
L 228.72 97.24171 
L 229.34 109.53505 
L 229.96 103.582485 
L 230.58 85.854194 
L 231.2 129.010289 
L 231.82 156.573253 
L 233.06 92.324373 
L 233.68 111.087893 
L 234.3 93.036093 
L 234.92 96.400586 
L 235.54 105.20003 
L 236.16 111.799613 
L 236.78 86.113001 
L 237.4 133.086502 
L 238.02 92.777286 
L 238.64 152.820549 
L 239.88 129.786711 
L 240.5 178.442458 
L 241.12 153.338163 
L 241.74 176.501405 
L 242.36 161.037676 
L 242.98 107.270487 
L 243.6 130.498431 
L 244.22 110.958489 
L 244.84 132.762993 
L 245.46 115.875826 
L 246.08 161.684694 
L 246.7 143.050578 
L 247.32 148.356125 
L 247.94 110.893788 
L 248.56 173.719228 
L 249.18 147.256195 
L 249.8 208.011177 
L 250.42 159.808342 
L 251.04 175.336772 
L 251.66 197.011873 
L 252.28 192.353344 
L 252.9 194.812012 
L 253.52 187.953622 
L 254.14 209.240511 
L 254.76 162.784625 
L 255.38 154.696901 
L 256 193.129765 
L 256.62 133.798222 
L 257.24 172.683999 
L 257.86 124.028251 
L 259.1 215.581287 
L 259.72 193.841485 
L 260.34 204.323175 
L 260.96 171.001752 
L 261.58 177.601335 
L 262.2 203.999666 
L 262.82 151.979426 
L 263.44 205.876018 
L 264.06 170.419436 
L 264.68 188.924149 
L 265.3 200.441068 
L 265.92 171.64877 
L 266.54 163.949257 
L 267.16 216.163603 
L 267.78 186.400779 
L 268.4 165.178591 
L 269.02 178.248353 
L 269.64 168.478382 
L 270.26 141.691841 
L 270.88 190.153483 
L 271.5 218.881078 
L 272.12 168.154873 
L 272.74 223.410204 
L 273.36 224.186625 
L 273.98 230.915612 
L 274.6 234.733017 
L 275.22 185.300848 
L 275.84 226.839399 
L 276.46 188.924149 
L 277.08 214.157848 
L 277.7 188.794745 
L 278.32 213.122619 
L 278.94 218.881078 
L 279.56 193.64738 
L 280.18 218.298762 
L 280.8 206.911247 
L 281.42 235.768246 
L 282.66 206.523036 
L 283.28 217.328235 
L 283.9 209.56402 
L 284.52 218.104657 
L 285.14 199.988155 
L 285.76 208.075879 
L 286.38 233.503683 
L 287 163.237537 
L 287.62 196.364855 
L 288.24 182.324566 
L 288.86 176.242597 
L 289.48 215.969498 
L 290.1 208.528792 
L 290.72 219.592798 
L 291.34 159.290728 
L 291.96 228.780453 
L 292.58 218.039955 
L 293.2 217.587043 
L 293.82 210.081635 
L 294.44 198.176505 
L 295.06 233.115473 
L 295.68 231.109717 
L 296.3 229.750979 
L 296.92 210.728653 
L 297.54 206.975949 
L 298.16 212.410899 
L 298.78 210.728653 
L 299.4 181.354039 
L 300.02 239.003336 
L 300.64 221.727957 
L 301.26 225.674767 
L 301.88 222.051466 
L 302.5 221.663255 
L 303.12 216.0342 
L 303.74 213.122619 
L 304.36 237.579896 
L 304.98 229.815681 
L 305.6 204.970193 
L 306.22 223.604309 
L 306.84 203.287947 
L 307.46 221.663255 
L 308.08 218.169359 
L 308.7 218.363464 
L 309.32 178.183651 
L 309.94 227.486417 
L 310.56 237.256387 
L 311.18 236.803475 
L 311.8 204.646684 
L 312.42 228.651049 
L 313.04 206.975949 
L 313.66 233.891894 
L 314.28 203.870263 
L 314.9 222.116168 
L 315.52 197.076574 
L 316.14 229.168663 
L 316.76 218.039955 
L 317.38 195.200223 
L 318 232.274349 
L 318.62 202.899736 
L 319.24 218.363464 
L 319.86 204.776088 
L 320.48 232.080244 
L 321.1 233.115473 
L 321.72 177.148423 
L 322.34 225.674767 
L 322.96 231.174419 
L 323.58 230.074488 
L 324.2 224.251327 
L 324.82 193.906187 
L 325.44 230.656804 
L 326.06 207.622967 
L 326.68 227.809926 
L 327.3 200.376366 
L 327.92 227.680522 
L 328.54 202.31742 
L 329.16 231.56263 
L 329.78 222.957291 
L 330.4 195.653135 
L 331.02 225.480661 
L 331.64 235.315334 
L 332.26 221.275045 
L 332.88 223.798415 
L 333.5 215.581287 
L 334.12 209.822827 
L 334.74 187.241902 
L 335.36 181.548144 
L 335.98 236.99758 
L 336.6 233.309578 
L 337.22 214.028444 
L 337.84 217.069428 
L 338.46 228.392242 
L 339.08 234.47421 
L 339.7 219.592798 
L 340.32 229.233365 
L 340.94 203.287947 
L 341.56 201.670402 
L 342.18 213.89904 
L 342.8 208.658195 
L 343.42 223.474906 
L 344.04 233.37428 
L 344.66 208.334686 
L 345.28 225.157152 
L 345.9 228.974558 
L 346.52 237.903405 
L 347.14 239.132739 
L 347.76 198.823523 
L 348.38 205.746615 
L 349 231.368524 
L 350.24 208.528792 
L 350.86 206.587738 
L 351.48 218.751675 
L 352.1 215.775392 
L 352.72 221.598554 
L 353.34 232.856665 
L 353.96 203.546754 
L 354.58 199.729348 
L 355.2 228.974558 
L 355.82 221.598554 
L 356.44 230.656804 
L 357.06 219.722202 
L 357.68 214.093146 
L 358.3 199.664646 
L 358.92 234.280105 
L 359.54 232.144946 
L 360.16 227.680522 
L 360.78 226.51589 
L 361.4 216.293007 
L 362.02 224.510134 
L 362.64 211.569776 
L 363.26 207.493563 
L 363.88 228.198136 
L 364.5 148.87374 
L 365.12 235.121228 
L 365.74 235.315334 
L 366.36 222.957291 
L 366.98 213.381426 
L 367.6 239.52095 
L 368.22 224.898345 
L 368.84 233.827192 
L 369.46 199.276435 
L 370.08 211.440372 
L 370.7 227.551118 
L 371.32 224.963047 
L 371.94 217.069428 
L 372.56 235.509439 
L 373.18 233.244876 
L 373.18 233.244876 
" style="fill:none;stroke:#000000;stroke-linecap:square;stroke-width:0.8;"/>
   </g>
   <g id="line2d_24">
    <path clip-path="url(#p27afc388fe)" d="M 58.22 276.789182 
L 58.84 282.741747 
L 59.46 280.218377 
L 60.08 285.976837 
L 60.7 273.489391 
L 61.32 293.352841 
L 61.94 271.224828 
L 62.56 286.623855 
L 63.18 286.170942 
L 64.42 290.117751 
L 65.04 282.935852 
L 65.66 281.253606 
L 66.28 281.641817 
L 66.9 292.317612 
L 67.52 290.182453 
L 68.14 295.164491 
L 68.76 295.358596 
L 69.38 276.400971 
L 70 291.929401 
L 70.62 291.282384 
L 71.24 291.411787 
L 71.86 292.576419 
L 72.48 287.52968 
L 73.1 290.311857 
L 73.72 291.411787 
L 74.34 283.000554 
L 74.96 294.064561 
L 75.58 290.505962 
L 76.2 279.636061 
L 76.82 277.500902 
L 77.44 281.124202 
L 78.06 290.247155 
L 78.68 291.217682 
L 79.3 291.411787 
L 79.92 289.794242 
L 80.54 285.265117 
L 81.16 288.111996 
L 81.78 290.311857 
L 82.4 280.930097 
L 83.02 295.358596 
L 83.64 295.229193 
L 84.26 281.641817 
L 84.88 292.382314 
L 85.5 287.723785 
L 86.12 269.607283 
L 86.74 265.53107 
L 87.36 285.718029 
L 87.98 292.382314 
L 88.6 293.67635 
L 89.22 274.071707 
L 89.84 290.376558 
L 91.08 268.442651 
L 91.7 282.353536 
L 92.32 289.406032 
L 92.94 291.411787 
L 93.56 274.20111 
L 94.18 290.053049 
L 94.8 282.224133 
L 95.42 283.58287 
L 96.04 288.370803 
L 96.66 281.512413 
L 97.28 295.488 
L 97.9 295.488 
L 98.52 291.541191 
L 99.14 273.877601 
L 99.76 291.541191 
L 100.38 286.235644 
L 101 291.347085 
L 101.62 285.329819 
L 102.24 280.412482 
L 102.86 279.636061 
L 103.48 279.24785 
L 104.1 281.77122 
L 104.72 290.182453 
L 105.34 275.62455 
L 105.96 289.470733 
L 106.58 295.293895 
L 107.2 290.117751 
L 107.82 274.589321 
L 108.44 288.241399 
L 109.06 294.129262 
L 109.68 287.52968 
L 110.3 285.00631 
L 110.92 288.306101 
L 111.54 285.135713 
L 112.16 286.365047 
L 112.78 290.053049 
L 113.4 283.841677 
L 114.02 293.352841 
L 114.64 293.741052 
L 115.26 290.117751 
L 115.88 279.571359 
L 116.5 287.659083 
L 117.12 289.794242 
L 117.74 284.618099 
L 118.36 284.423994 
L 118.98 291.411787 
L 119.6 291.347085 
L 120.22 295.229193 
L 120.84 294.064561 
L 121.46 285.071012 
L 122.08 293.288139 
L 122.7 277.4362 
L 123.32 289.988348 
L 123.94 286.170942 
L 124.56 290.44126 
L 125.18 285.071012 
L 125.8 290.764769 
L 126.42 291.411787 
L 127.04 291.605892 
L 127.66 293.546946 
L 128.28 291.15298 
L 128.9 294.258666 
L 129.52 287.659083 
L 130.14 291.217682 
L 130.76 295.488 
L 131.38 277.371498 
L 132 279.053745 
L 132.62 289.470733 
L 133.24 287.659083 
L 133.86 291.476489 
L 134.48 279.506657 
L 135.1 278.471429 
L 135.72 277.824411 
L 136.34 291.282384 
L 136.96 279.636061 
L 137.58 291.282384 
L 138.2 287.659083 
L 138.82 270.189599 
L 139.44 291.541191 
L 140.06 256.408118 
L 140.68 276.012761 
L 141.92 291.282384 
L 142.54 250.326149 
L 143.16 291.282384 
L 143.78 286.10624 
L 144.4 275.818655 
L 145.02 287.723785 
L 145.64 256.796328 
L 146.26 278.924341 
L 146.88 279.765465 
L 147.5 283.647572 
L 148.12 279.571359 
L 148.74 285.135713 
L 149.36 283.453467 
L 149.98 291.411787 
L 150.6 264.042929 
L 151.22 291.605892 
L 151.84 272.00125 
L 152.46 283.841677 
L 153.08 267.925037 
L 153.7 272.00125 
L 154.32 281.835922 
L 154.94 254.208257 
L 155.56 283.324063 
L 156.18 281.383009 
L 156.8 269.542581 
L 157.42 275.106936 
L 158.04 238.42102 
L 158.66 251.490781 
L 159.28 223.151397 
L 159.9 227.033504 
L 160.52 228.068733 
L 161.14 257.960961 
L 161.76 228.521645 
L 162.38 238.162212 
L 163 231.433226 
L 163.62 204.581982 
L 164.24 200.441068 
L 164.86 203.41735 
L 165.48 244.244181 
L 166.1 208.269984 
L 166.72 254.143555 
L 167.34 244.050075 
L 167.96 237.838703 
L 168.58 222.439677 
L 169.2 236.28586 
L 169.82 206.911247 
L 170.44 196.364855 
L 171.06 205.034895 
L 171.68 221.792659 
L 172.3 244.632392 
L 172.92 195.45903 
L 173.54 213.446128 
L 174.16 217.069428 
L 174.78 233.956596 
L 175.4 201.282191 
L 176.02 205.746615 
L 176.64 234.991825 
L 177.26 215.32248 
L 177.88 225.351258 
L 178.5 217.198832 
L 179.12 169.966524 
L 179.74 188.60064 
L 180.36 189.571167 
L 180.98 214.934269 
L 181.6 234.215403 
L 182.22 204.387877 
L 182.84 225.09245 
L 183.46 204.711386 
L 184.08 171.131156 
L 184.7 156.961463 
L 185.32 182.84218 
L 185.94 180.124705 
L 186.56 146.673879 
L 187.18 168.154873 
L 187.8 170.484138 
L 188.42 225.09245 
L 189.04 213.381426 
L 189.66 190.088781 
L 190.28 229.233365 
L 190.9 200.635173 
L 191.52 186.594884 
L 192.14 196.300153 
L 192.76 195.717837 
L 193.38 261.713665 
L 194 214.028444 
L 194.62 186.724288 
L 195.24 178.054248 
L 195.86 189.894676 
L 196.48 163.431643 
L 197.1 200.958682 
L 197.72 174.236842 
L 198.34 156.961463 
L 198.96 186.012568 
L 199.58 193.323871 
L 200.2 226.451188 
L 200.82 188.341833 
L 201.44 166.21382 
L 202.06 181.936355 
L 202.68 155.279217 
L 203.3 204.905491 
L 203.92 201.540998 
L 204.54 151.0736 
L 205.16 174.625053 
L 205.78 217.651744 
L 206.4 213.446128 
L 207.02 169.901822 
L 207.64 215.904796 
L 208.26 233.503683 
L 208.88 183.100987 
L 209.5 178.765967 
L 210.12 186.012568 
L 210.74 178.442458 
L 211.36 224.121924 
L 211.98 186.659586 
L 212.6 171.26056 
L 213.22 217.84585 
L 213.84 211.310969 
L 214.46 197.205978 
L 215.08 190.800501 
L 215.7 189.70057 
L 216.32 167.054943 
L 216.94 150.814793 
L 217.56 177.536633 
L 218.18 213.187321 
L 218.8 160.649466 
L 219.42 153.273461 
L 220.04 137.098013 
L 220.66 149.97367 
L 221.28 155.861533 
L 221.9 180.771723 
L 222.52 180.642319 
L 223.76 165.113889 
L 224.38 199.858752 
L 225 98.34164 
L 225.62 114.387684 
L 226.24 189.70057 
L 226.86 128.169166 
L 227.48 139.750787 
L 228.1 121.116671 
L 228.72 135.739276 
L 229.34 181.74225 
L 229.96 117.10516 
L 230.58 163.561046 
L 231.2 156.961463 
L 231.82 162.137607 
L 232.44 93.100795 
L 233.06 210.728653 
L 233.68 127.263341 
L 234.3 168.090172 
L 235.54 80.354542 
L 236.16 254.208257 
L 237.4 125.645796 
L 238.02 173.266315 
L 238.64 98.471044 
L 239.26 116.652247 
L 239.88 99.829781 
L 240.5 211.634478 
L 241.12 165.825609 
L 242.36 110.117366 
L 242.98 125.904603 
L 243.6 53.568 
L 244.22 147.773809 
L 244.84 188.859447 
L 245.46 98.600447 
L 246.08 63.790883 
L 246.7 110.311472 
L 247.32 122.604812 
L 247.94 78.413488 
L 248.56 80.483945 
L 249.18 70.131659 
L 249.8 106.170557 
L 250.42 112.317227 
L 251.04 131.21015 
L 251.66 88.054055 
L 252.28 86.113001 
L 252.9 76.537136 
L 253.52 98.406342 
L 254.14 66.508358 
L 254.76 151.979426 
L 256 122.734216 
L 256.62 186.594884 
L 257.24 125.322287 
L 257.86 200.570471 
L 258.48 129.786711 
L 259.1 139.750787 
L 259.72 151.78532 
L 260.34 143.050578 
L 260.96 102.029642 
L 261.58 94.524234 
L 262.2 100.15329 
L 262.82 78.542892 
L 263.44 201.929209 
L 264.06 104.294205 
L 264.68 145.897457 
L 265.3 236.28586 
L 265.92 136.386294 
L 266.54 155.473322 
L 267.16 99.959185 
L 267.78 144.409316 
L 268.4 141.30363 
L 269.02 167.960768 
L 269.64 110.311472 
L 270.26 134.315836 
L 270.88 228.651049 
L 271.5 204.646684 
L 272.12 188.924149 
L 272.74 144.21521 
L 273.36 197.011873 
L 273.98 154.567497 
L 274.6 231.821437 
L 275.22 206.199527 
L 275.84 189.182956 
L 276.46 206.005422 
L 277.08 193.323871 
L 278.32 211.246267 
L 278.94 224.186625 
L 279.56 211.699179 
L 280.18 225.80417 
L 280.8 230.203892 
L 281.42 180.707021 
L 282.04 213.316724 
L 282.66 220.239816 
L 283.28 222.116168 
L 283.9 205.229 
L 284.52 216.616516 
L 285.14 179.9306 
L 285.76 229.362769 
L 286.38 201.476296 
L 287 195.45903 
L 287.62 174.625053 
L 288.24 216.293007 
L 288.86 194.553205 
L 289.48 221.727957 
L 290.1 222.245572 
L 290.72 209.628722 
L 291.34 193.970888 
L 291.96 200.764577 
L 292.58 214.869567 
L 293.2 223.086695 
L 293.82 214.546058 
L 295.06 179.348283 
L 295.68 217.004726 
L 296.3 164.466871 
L 296.92 210.858056 
L 297.54 202.123314 
L 298.16 197.917698 
L 298.78 213.89904 
L 299.4 191.188711 
L 300.64 218.686973 
L 301.26 239.068037 
L 301.88 163.108134 
L 302.5 182.84218 
L 303.12 212.346197 
L 303.74 229.815681 
L 304.36 222.763186 
L 304.98 226.062977 
L 305.6 231.95084 
L 306.22 224.768941 
L 306.84 234.150701 
L 307.46 224.70424 
L 308.08 223.798415 
L 308.7 230.527401 
L 309.32 193.712081 
L 309.94 235.962351 
L 310.56 186.983095 
L 311.18 187.241902 
L 311.8 222.310273 
L 312.42 238.938634 
L 313.04 225.610065 
L 313.66 217.716446 
L 314.28 231.692033 
L 314.9 166.019714 
L 315.52 215.516585 
L 316.14 230.980313 
L 316.76 197.529487 
L 317.38 210.534547 
L 318 231.95084 
L 318.62 238.80923 
L 319.24 235.832948 
L 319.86 195.329626 
L 320.48 215.193076 
L 321.1 193.000362 
L 321.72 199.988155 
L 322.34 219.398693 
L 322.96 227.486417 
L 323.58 212.79911 
L 324.2 206.587738 
L 324.82 222.310273 
L 325.44 201.346893 
L 326.06 208.011177 
L 326.68 193.323871 
L 327.3 229.103961 
L 327.92 209.56402 
L 328.54 231.045015 
L 329.16 210.27574 
L 329.78 239.262143 
L 330.4 196.55896 
L 331.02 214.222549 
L 331.64 207.170054 
L 332.26 195.653135 
L 332.88 171.842876 
L 333.5 198.111803 
L 334.12 203.870263 
L 334.74 185.883164 
L 335.36 182.971584 
L 335.98 204.905491 
L 336.6 187.241902 
L 337.22 212.993215 
L 337.84 230.074488 
L 338.46 207.234756 
L 339.08 231.497928 
L 339.7 218.23406 
L 340.32 162.590519 
L 340.94 222.633782 
L 341.56 225.286556 
L 342.18 226.774697 
L 342.8 226.968802 
L 343.42 229.362769 
L 344.04 188.730043 
L 344.66 228.004031 
L 345.28 208.140581 
L 345.9 235.121228 
L 346.52 215.063673 
L 347.14 215.581287 
L 347.76 231.692033 
L 348.38 219.333991 
L 349 214.157848 
L 349.62 206.070124 
L 350.24 230.527401 
L 350.86 215.193076 
L 351.48 226.386486 
L 352.1 228.651049 
L 352.72 221.016237 
L 353.34 221.016237 
L 353.96 202.058612 
L 354.58 197.594189 
L 355.2 161.037676 
L 355.82 195.135521 
L 356.44 194.423801 
L 357.06 201.088086 
L 357.68 210.27574 
L 358.3 199.79405 
L 358.92 224.510134 
L 359.54 183.165689 
L 360.16 202.964438 
L 360.78 231.756735 
L 361.4 151.526513 
L 362.02 228.845154 
L 362.64 227.874627 
L 363.26 201.864507 
L 363.88 207.299458 
L 364.5 207.170054 
L 365.12 211.699179 
L 365.74 231.109717 
L 366.36 208.269984 
L 366.98 199.211734 
L 367.6 230.721506 
L 368.22 229.233365 
L 368.84 234.215403 
L 370.08 215.32248 
L 370.7 214.675462 
L 371.32 222.569081 
L 371.94 207.881774 
L 372.56 232.468455 
L 373.18 203.029139 
L 373.8 223.2808 
L 374.42 235.638842 
L 375.04 216.810621 
L 375.66 221.663255 
L 376.28 215.969498 
L 376.9 234.150701 
L 377.52 229.945085 
L 378.14 205.358404 
L 378.76 232.856665 
L 379.38 236.091755 
L 380 215.063673 
L 380.62 232.597858 
L 381.24 235.18593 
L 381.86 216.293007 
L 382.48 208.334686 
L 383.1 234.085999 
L 383.72 207.493563 
L 384.96 230.721506 
L 385.58 216.875323 
L 386.2 223.086695 
L 386.82 234.215403 
L 387.44 183.942111 
L 388.06 176.048492 
L 388.68 190.541694 
L 389.3 225.80417 
L 389.92 218.816377 
L 390.54 230.915612 
L 391.16 232.339051 
L 391.78 228.586347 
L 392.4 225.739468 
L 393.02 229.686278 
L 393.64 207.881774 
L 394.26 215.451883 
L 394.88 220.498623 
L 395.5 201.088086 
L 396.12 206.523036 
L 396.74 195.782539 
L 397.36 233.115473 
L 397.98 210.922758 
L 398.6 215.128374 
L 399.22 196.106048 
L 399.84 226.127679 
L 400.46 215.969498 
L 401.08 226.257083 
L 401.7 238.938634 
L 402.32 230.786208 
L 402.94 231.239121 
L 403.56 213.51083 
L 404.18 223.086695 
L 404.8 238.938634 
L 405.42 219.722202 
L 406.04 205.811316 
L 406.66 219.592798 
L 407.28 222.957291 
L 407.9 209.693424 
L 408.52 169.772418 
L 409.76 226.451188 
L 410.38 207.75237 
L 411 225.415959 
L 411.62 207.105352 
L 412.24 222.116168 
L 412.86 232.597858 
L 413.48 228.32754 
L 414.1 234.344807 
L 414.72 223.99252 
L 414.72 223.99252 
" style="fill:none;stroke:#000000;stroke-dasharray:2.96,1.28;stroke-dashoffset:0;stroke-width:0.8;"/>
   </g>
   <g id="patch_3">
    <path d="M 57.6 307.584 
L 57.6 41.472 
" style="fill:none;stroke:#000000;stroke-linecap:square;stroke-linejoin:miter;stroke-width:0.8;"/>
   </g>
   <g id="patch_4">
    <path d="M 414.72 307.584 
L 414.72 41.472 
" style="fill:none;stroke:#000000;stroke-linecap:square;stroke-linejoin:miter;stroke-width:0.8;"/>
   </g>
   <g id="patch_5">
    <path d="M 57.6 307.584 
L 414.72 307.584 
" style="fill:none;stroke:#000000;stroke-linecap:square;stroke-linejoin:miter;stroke-width:0.8;"/>
   </g>
   <g id="patch_6">
    <path d="M 57.6 41.472 
L 414.72 41.472 
" style="fill:none;stroke:#000000;stroke-linecap:square;stroke-linejoin:miter;stroke-width:0.8;"/>
   </g>
   <g id="legend_1">
    <g id="patch_7">
     <path d="M 64.6 78.82825 
L 151.346875 78.82825 
Q 153.346875 78.82825 153.346875 76.82825 
L 153.346875 48.472 
Q 153.346875 46.472 151.346875 46.472 
L 64.6 46.472 
Q 62.6 46.472 62.6 48.472 
L 62.6 76.82825 
Q 62.6 78.82825 64.6 78.82825 
z
" style="fill:#ffffff;opacity:0.8;stroke:#cccccc;stroke-linejoin:miter;"/>
    </g>
    <g id="line2d_25">
     <path d="M 66.6 54.570437 
L 86.6 54.570437 
" style="fill:none;stroke:#000000;stroke-linecap:square;stroke-width:0.8;"/>
    </g>
    <g id="line2d_26"/>
    <g id="text_16">
     <!-- Baseline -->
     <defs>
      <path d="M 19.671875 34.8125 
L 19.671875 8.109375 
L 35.5 8.109375 
Q 43.453125 8.109375 47.28125 11.40625 
Q 51.125 14.703125 51.125 21.484375 
Q 51.125 28.328125 47.28125 31.5625 
Q 43.453125 34.8125 35.5 34.8125 
z
M 19.671875 64.796875 
L 19.671875 42.828125 
L 34.28125 42.828125 
Q 41.5 42.828125 45.03125 45.53125 
Q 48.578125 48.25 48.578125 53.8125 
Q 48.578125 59.328125 45.03125 62.0625 
Q 41.5 64.796875 34.28125 64.796875 
z
M 9.8125 72.90625 
L 35.015625 72.90625 
Q 46.296875 72.90625 52.390625 68.21875 
Q 58.5 63.53125 58.5 54.890625 
Q 58.5 48.1875 55.375 44.234375 
Q 52.25 40.28125 46.1875 39.3125 
Q 53.46875 37.75 57.5 32.78125 
Q 61.53125 27.828125 61.53125 20.40625 
Q 61.53125 10.640625 54.890625 5.3125 
Q 48.25 0 35.984375 0 
L 9.8125 0 
z
" id="DejaVuSans-66"/>
      <path d="M 34.28125 27.484375 
Q 23.390625 27.484375 19.1875 25 
Q 14.984375 22.515625 14.984375 16.5 
Q 14.984375 11.71875 18.140625 8.90625 
Q 21.296875 6.109375 26.703125 6.109375 
Q 34.1875 6.109375 38.703125 11.40625 
Q 43.21875 16.703125 43.21875 25.484375 
L 43.21875 27.484375 
z
M 52.203125 31.203125 
L 52.203125 0 
L 43.21875 0 
L 43.21875 8.296875 
Q 40.140625 3.328125 35.546875 0.953125 
Q 30.953125 -1.421875 24.3125 -1.421875 
Q 15.921875 -1.421875 10.953125 3.296875 
Q 6 8.015625 6 15.921875 
Q 6 25.140625 12.171875 29.828125 
Q 18.359375 34.515625 30.609375 34.515625 
L 43.21875 34.515625 
L 43.21875 35.40625 
Q 43.21875 41.609375 39.140625 45 
Q 35.0625 48.390625 27.6875 48.390625 
Q 23 48.390625 18.546875 47.265625 
Q 14.109375 46.140625 10.015625 43.890625 
L 10.015625 52.203125 
Q 14.9375 54.109375 19.578125 55.046875 
Q 24.21875 56 28.609375 56 
Q 40.484375 56 46.34375 49.84375 
Q 52.203125 43.703125 52.203125 31.203125 
z
" id="DejaVuSans-97"/>
      <path d="M 9.421875 75.984375 
L 18.40625 75.984375 
L 18.40625 0 
L 9.421875 0 
z
" id="DejaVuSans-108"/>
      <path d="M 54.890625 33.015625 
L 54.890625 0 
L 45.90625 0 
L 45.90625 32.71875 
Q 45.90625 40.484375 42.875 44.328125 
Q 39.84375 48.1875 33.796875 48.1875 
Q 26.515625 48.1875 22.3125 43.546875 
Q 18.109375 38.921875 18.109375 30.90625 
L 18.109375 0 
L 9.078125 0 
L 9.078125 54.6875 
L 18.109375 54.6875 
L 18.109375 46.1875 
Q 21.34375 51.125 25.703125 53.5625 
Q 30.078125 56 35.796875 56 
Q 45.21875 56 50.046875 50.171875 
Q 54.890625 44.34375 54.890625 33.015625 
z
" id="DejaVuSans-110"/>
     </defs>
     <g transform="translate(94.6 58.070437)scale(0.1 -0.1)">
      <use xlink:href="#DejaVuSans-66"/>
      <use x="68.603516" xlink:href="#DejaVuSans-97"/>
      <use x="129.882812" xlink:href="#DejaVuSans-115"/>
      <use x="181.982422" xlink:href="#DejaVuSans-101"/>
      <use x="243.505859" xlink:href="#DejaVuSans-108"/>
      <use x="271.289062" xlink:href="#DejaVuSans-105"/>
      <use x="299.072266" xlink:href="#DejaVuSans-110"/>
      <use x="362.451172" xlink:href="#DejaVuSans-101"/>
     </g>
    </g>
    <g id="line2d_27">
     <path d="M 66.6 69.248562 
L 86.6 69.248562 
" style="fill:none;stroke:#000000;stroke-dasharray:2.96,1.28;stroke-dashoffset:0;stroke-width:0.8;"/>
    </g>
    <g id="line2d_28"/>
    <g id="text_17">
     <!-- Slow grads -->
     <defs>
      <path d="M 53.515625 70.515625 
L 53.515625 60.890625 
Q 47.90625 63.578125 42.921875 64.890625 
Q 37.9375 66.21875 33.296875 66.21875 
Q 25.25 66.21875 20.875 63.09375 
Q 16.5 59.96875 16.5 54.203125 
Q 16.5 49.359375 19.40625 46.890625 
Q 22.3125 44.4375 30.421875 42.921875 
L 36.375 41.703125 
Q 47.40625 39.59375 52.65625 34.296875 
Q 57.90625 29 57.90625 20.125 
Q 57.90625 9.515625 50.796875 4.046875 
Q 43.703125 -1.421875 29.984375 -1.421875 
Q 24.8125 -1.421875 18.96875 -0.25 
Q 13.140625 0.921875 6.890625 3.21875 
L 6.890625 13.375 
Q 12.890625 10.015625 18.65625 8.296875 
Q 24.421875 6.59375 29.984375 6.59375 
Q 38.421875 6.59375 43.015625 9.90625 
Q 47.609375 13.234375 47.609375 19.390625 
Q 47.609375 24.75 44.3125 27.78125 
Q 41.015625 30.8125 33.5 32.328125 
L 27.484375 33.5 
Q 16.453125 35.6875 11.515625 40.375 
Q 6.59375 45.0625 6.59375 53.421875 
Q 6.59375 63.09375 13.40625 68.65625 
Q 20.21875 74.21875 32.171875 74.21875 
Q 37.3125 74.21875 42.625 73.28125 
Q 47.953125 72.359375 53.515625 70.515625 
z
" id="DejaVuSans-83"/>
      <path d="M 4.203125 54.6875 
L 13.1875 54.6875 
L 24.421875 12.015625 
L 35.59375 54.6875 
L 46.1875 54.6875 
L 57.421875 12.015625 
L 68.609375 54.6875 
L 77.59375 54.6875 
L 63.28125 0 
L 52.6875 0 
L 40.921875 44.828125 
L 29.109375 0 
L 18.5 0 
z
" id="DejaVuSans-119"/>
      <path d="M 45.40625 27.984375 
Q 45.40625 37.75 41.375 43.109375 
Q 37.359375 48.484375 30.078125 48.484375 
Q 22.859375 48.484375 18.828125 43.109375 
Q 14.796875 37.75 14.796875 27.984375 
Q 14.796875 18.265625 18.828125 12.890625 
Q 22.859375 7.515625 30.078125 7.515625 
Q 37.359375 7.515625 41.375 12.890625 
Q 45.40625 18.265625 45.40625 27.984375 
z
M 54.390625 6.78125 
Q 54.390625 -7.171875 48.1875 -13.984375 
Q 42 -20.796875 29.203125 -20.796875 
Q 24.46875 -20.796875 20.265625 -20.09375 
Q 16.0625 -19.390625 12.109375 -17.921875 
L 12.109375 -9.1875 
Q 16.0625 -11.328125 19.921875 -12.34375 
Q 23.78125 -13.375 27.78125 -13.375 
Q 36.625 -13.375 41.015625 -8.765625 
Q 45.40625 -4.15625 45.40625 5.171875 
L 45.40625 9.625 
Q 42.625 4.78125 38.28125 2.390625 
Q 33.9375 0 27.875 0 
Q 17.828125 0 11.671875 7.65625 
Q 5.515625 15.328125 5.515625 27.984375 
Q 5.515625 40.671875 11.671875 48.328125 
Q 17.828125 56 27.875 56 
Q 33.9375 56 38.28125 53.609375 
Q 42.625 51.21875 45.40625 46.390625 
L 45.40625 54.6875 
L 54.390625 54.6875 
z
" id="DejaVuSans-103"/>
      <path d="M 41.109375 46.296875 
Q 39.59375 47.171875 37.8125 47.578125 
Q 36.03125 48 33.890625 48 
Q 26.265625 48 22.1875 43.046875 
Q 18.109375 38.09375 18.109375 28.8125 
L 18.109375 0 
L 9.078125 0 
L 9.078125 54.6875 
L 18.109375 54.6875 
L 18.109375 46.1875 
Q 20.953125 51.171875 25.484375 53.578125 
Q 30.03125 56 36.53125 56 
Q 37.453125 56 38.578125 55.875 
Q 39.703125 55.765625 41.0625 55.515625 
z
" id="DejaVuSans-114"/>
     </defs>
     <g transform="translate(94.6 72.748562)scale(0.1 -0.1)">
      <use xlink:href="#DejaVuSans-83"/>
      <use x="63.476562" xlink:href="#DejaVuSans-108"/>
      <use x="91.259766" xlink:href="#DejaVuSans-111"/>
      <use x="152.441406" xlink:href="#DejaVuSans-119"/>
      <use x="234.228516" xlink:href="#DejaVuSans-32"/>
      <use x="266.015625" xlink:href="#DejaVuSans-103"/>
      <use x="329.492188" xlink:href="#DejaVuSans-114"/>
      <use x="370.605469" xlink:href="#DejaVuSans-97"/>
      <use x="431.884766" xlink:href="#DejaVuSans-100"/>
      <use x="495.361328" xlink:href="#DejaVuSans-115"/>
     </g>
    </g>
   </g>
  </g>
  <g id="axes_2">
   <g id="matplotlib.axis_3">
    <g id="xtick_7">
     <g id="line2d_29">
      <path clip-path="url(#p27afc388fe)" d="M 57.6 307.584 
L 57.6 41.472 
" style="fill:none;stroke:#b0b0b0;stroke-linecap:square;stroke-width:0.8;"/>
     </g>
     <g id="line2d_30">
      <defs>
       <path d="M 0 0 
L 0 -3.5 
" id="m954cdde0c3" style="stroke:#000000;stroke-width:0.8;"/>
      </defs>
      <g>
       <use style="stroke:#000000;stroke-width:0.8;" x="57.6" xlink:href="#m954cdde0c3" y="41.472"/>
      </g>
     </g>
     <g id="text_18">
      <!-- 0.0 -->
      <defs>
       <path d="M 10.6875 12.40625 
L 21 12.40625 
L 21 0 
L 10.6875 0 
z
" id="DejaVuSans-46"/>
      </defs>
      <g transform="translate(49.648438 32.392313)scale(0.1 -0.1)">
       <use xlink:href="#DejaVuSans-48"/>
       <use x="63.623047" xlink:href="#DejaVuSans-46"/>
       <use x="95.410156" xlink:href="#DejaVuSans-48"/>
      </g>
     </g>
    </g>
    <g id="xtick_8">
     <g id="line2d_31">
      <path clip-path="url(#p27afc388fe)" d="M 97.28 307.584 
L 97.28 41.472 
" style="fill:none;stroke:#b0b0b0;stroke-linecap:square;stroke-width:0.8;"/>
     </g>
     <g id="line2d_32">
      <g>
       <use style="stroke:#000000;stroke-width:0.8;" x="97.28" xlink:href="#m954cdde0c3" y="41.472"/>
      </g>
     </g>
     <g id="text_19">
      <!-- 0.2 -->
      <g transform="translate(89.328438 32.392313)scale(0.1 -0.1)">
       <use xlink:href="#DejaVuSans-48"/>
       <use x="63.623047" xlink:href="#DejaVuSans-46"/>
       <use x="95.410156" xlink:href="#DejaVuSans-50"/>
      </g>
     </g>
    </g>
    <g id="xtick_9">
     <g id="line2d_33">
      <path clip-path="url(#p27afc388fe)" d="M 136.96 307.584 
L 136.96 41.472 
" style="fill:none;stroke:#b0b0b0;stroke-linecap:square;stroke-width:0.8;"/>
     </g>
     <g id="line2d_34">
      <g>
       <use style="stroke:#000000;stroke-width:0.8;" x="136.96" xlink:href="#m954cdde0c3" y="41.472"/>
      </g>
     </g>
     <g id="text_20">
      <!-- 0.4 -->
      <g transform="translate(129.008438 32.392313)scale(0.1 -0.1)">
       <use xlink:href="#DejaVuSans-48"/>
       <use x="63.623047" xlink:href="#DejaVuSans-46"/>
       <use x="95.410156" xlink:href="#DejaVuSans-52"/>
      </g>
     </g>
    </g>
    <g id="xtick_10">
     <g id="line2d_35">
      <path clip-path="url(#p27afc388fe)" d="M 176.64 307.584 
L 176.64 41.472 
" style="fill:none;stroke:#b0b0b0;stroke-linecap:square;stroke-width:0.8;"/>
     </g>
     <g id="line2d_36">
      <g>
       <use style="stroke:#000000;stroke-width:0.8;" x="176.64" xlink:href="#m954cdde0c3" y="41.472"/>
      </g>
     </g>
     <g id="text_21">
      <!-- 0.6 -->
      <defs>
       <path d="M 33.015625 40.375 
Q 26.375 40.375 22.484375 35.828125 
Q 18.609375 31.296875 18.609375 23.390625 
Q 18.609375 15.53125 22.484375 10.953125 
Q 26.375 6.390625 33.015625 6.390625 
Q 39.65625 6.390625 43.53125 10.953125 
Q 47.40625 15.53125 47.40625 23.390625 
Q 47.40625 31.296875 43.53125 35.828125 
Q 39.65625 40.375 33.015625 40.375 
z
M 52.59375 71.296875 
L 52.59375 62.3125 
Q 48.875 64.0625 45.09375 64.984375 
Q 41.3125 65.921875 37.59375 65.921875 
Q 27.828125 65.921875 22.671875 59.328125 
Q 17.53125 52.734375 16.796875 39.40625 
Q 19.671875 43.65625 24.015625 45.921875 
Q 28.375 48.1875 33.59375 48.1875 
Q 44.578125 48.1875 50.953125 41.515625 
Q 57.328125 34.859375 57.328125 23.390625 
Q 57.328125 12.15625 50.6875 5.359375 
Q 44.046875 -1.421875 33.015625 -1.421875 
Q 20.359375 -1.421875 13.671875 8.265625 
Q 6.984375 17.96875 6.984375 36.375 
Q 6.984375 53.65625 15.1875 63.9375 
Q 23.390625 74.21875 37.203125 74.21875 
Q 40.921875 74.21875 44.703125 73.484375 
Q 48.484375 72.75 52.59375 71.296875 
z
" id="DejaVuSans-54"/>
      </defs>
      <g transform="translate(168.688438 32.392313)scale(0.1 -0.1)">
       <use xlink:href="#DejaVuSans-48"/>
       <use x="63.623047" xlink:href="#DejaVuSans-46"/>
       <use x="95.410156" xlink:href="#DejaVuSans-54"/>
      </g>
     </g>
    </g>
    <g id="xtick_11">
     <g id="line2d_37">
      <path clip-path="url(#p27afc388fe)" d="M 216.32 307.584 
L 216.32 41.472 
" style="fill:none;stroke:#b0b0b0;stroke-linecap:square;stroke-width:0.8;"/>
     </g>
     <g id="line2d_38">
      <g>
       <use style="stroke:#000000;stroke-width:0.8;" x="216.32" xlink:href="#m954cdde0c3" y="41.472"/>
      </g>
     </g>
     <g id="text_22">
      <!-- 0.9 -->
      <defs>
       <path d="M 10.984375 1.515625 
L 10.984375 10.5 
Q 14.703125 8.734375 18.5 7.8125 
Q 22.3125 6.890625 25.984375 6.890625 
Q 35.75 6.890625 40.890625 13.453125 
Q 46.046875 20.015625 46.78125 33.40625 
Q 43.953125 29.203125 39.59375 26.953125 
Q 35.25 24.703125 29.984375 24.703125 
Q 19.046875 24.703125 12.671875 31.3125 
Q 6.296875 37.9375 6.296875 49.421875 
Q 6.296875 60.640625 12.9375 67.421875 
Q 19.578125 74.21875 30.609375 74.21875 
Q 43.265625 74.21875 49.921875 64.515625 
Q 56.59375 54.828125 56.59375 36.375 
Q 56.59375 19.140625 48.40625 8.859375 
Q 40.234375 -1.421875 26.421875 -1.421875 
Q 22.703125 -1.421875 18.890625 -0.6875 
Q 15.09375 0.046875 10.984375 1.515625 
z
M 30.609375 32.421875 
Q 37.25 32.421875 41.125 36.953125 
Q 45.015625 41.5 45.015625 49.421875 
Q 45.015625 57.28125 41.125 61.84375 
Q 37.25 66.40625 30.609375 66.40625 
Q 23.96875 66.40625 20.09375 61.84375 
Q 16.21875 57.28125 16.21875 49.421875 
Q 16.21875 41.5 20.09375 36.953125 
Q 23.96875 32.421875 30.609375 32.421875 
z
" id="DejaVuSans-57"/>
      </defs>
      <g transform="translate(208.368437 32.392313)scale(0.1 -0.1)">
       <use xlink:href="#DejaVuSans-48"/>
       <use x="63.623047" xlink:href="#DejaVuSans-46"/>
       <use x="95.410156" xlink:href="#DejaVuSans-57"/>
      </g>
     </g>
    </g>
    <g id="xtick_12">
     <g id="line2d_39">
      <path clip-path="url(#p27afc388fe)" d="M 256 307.584 
L 256 41.472 
" style="fill:none;stroke:#b0b0b0;stroke-linecap:square;stroke-width:0.8;"/>
     </g>
     <g id="line2d_40">
      <g>
       <use style="stroke:#000000;stroke-width:0.8;" x="256" xlink:href="#m954cdde0c3" y="41.472"/>
      </g>
     </g>
     <g id="text_23">
      <!-- 1.1 -->
      <g transform="translate(248.048438 32.392313)scale(0.1 -0.1)">
       <use xlink:href="#DejaVuSans-49"/>
       <use x="63.623047" xlink:href="#DejaVuSans-46"/>
       <use x="95.410156" xlink:href="#DejaVuSans-49"/>
      </g>
     </g>
    </g>
    <g id="xtick_13">
     <g id="line2d_41">
      <path clip-path="url(#p27afc388fe)" d="M 295.68 307.584 
L 295.68 41.472 
" style="fill:none;stroke:#b0b0b0;stroke-linecap:square;stroke-width:0.8;"/>
     </g>
     <g id="line2d_42">
      <g>
       <use style="stroke:#000000;stroke-width:0.8;" x="295.68" xlink:href="#m954cdde0c3" y="41.472"/>
      </g>
     </g>
     <g id="text_24">
      <!-- 1.3 -->
      <g transform="translate(287.728437 32.392313)scale(0.1 -0.1)">
       <use xlink:href="#DejaVuSans-49"/>
       <use x="63.623047" xlink:href="#DejaVuSans-46"/>
       <use x="95.410156" xlink:href="#DejaVuSans-51"/>
      </g>
     </g>
    </g>
    <g id="xtick_14">
     <g id="line2d_43">
      <path clip-path="url(#p27afc388fe)" d="M 335.36 307.584 
L 335.36 41.472 
" style="fill:none;stroke:#b0b0b0;stroke-linecap:square;stroke-width:0.8;"/>
     </g>
     <g id="line2d_44">
      <g>
       <use style="stroke:#000000;stroke-width:0.8;" x="335.36" xlink:href="#m954cdde0c3" y="41.472"/>
      </g>
     </g>
     <g id="text_25">
      <!-- 1.5 -->
      <g transform="translate(327.408437 32.392313)scale(0.1 -0.1)">
       <use xlink:href="#DejaVuSans-49"/>
       <use x="63.623047" xlink:href="#DejaVuSans-46"/>
       <use x="95.410156" xlink:href="#DejaVuSans-53"/>
      </g>
     </g>
    </g>
    <g id="xtick_15">
     <g id="line2d_45">
      <path clip-path="url(#p27afc388fe)" d="M 375.04 307.584 
L 375.04 41.472 
" style="fill:none;stroke:#b0b0b0;stroke-linecap:square;stroke-width:0.8;"/>
     </g>
     <g id="line2d_46">
      <g>
       <use style="stroke:#000000;stroke-width:0.8;" x="375.04" xlink:href="#m954cdde0c3" y="41.472"/>
      </g>
     </g>
     <g id="text_26">
      <!-- 1.7 -->
      <defs>
       <path d="M 8.203125 72.90625 
L 55.078125 72.90625 
L 55.078125 68.703125 
L 28.609375 0 
L 18.3125 0 
L 43.21875 64.59375 
L 8.203125 64.59375 
z
" id="DejaVuSans-55"/>
      </defs>
      <g transform="translate(367.088437 32.392313)scale(0.1 -0.1)">
       <use xlink:href="#DejaVuSans-49"/>
       <use x="63.623047" xlink:href="#DejaVuSans-46"/>
       <use x="95.410156" xlink:href="#DejaVuSans-55"/>
      </g>
     </g>
    </g>
    <g id="xtick_16">
     <g id="line2d_47">
      <path clip-path="url(#p27afc388fe)" d="M 414.72 307.584 
L 414.72 41.472 
" style="fill:none;stroke:#b0b0b0;stroke-linecap:square;stroke-width:0.8;"/>
     </g>
     <g id="line2d_48">
      <g>
       <use style="stroke:#000000;stroke-width:0.8;" x="414.72" xlink:href="#m954cdde0c3" y="41.472"/>
      </g>
     </g>
     <g id="text_27">
      <!-- 1.9 -->
      <g transform="translate(406.768438 32.392313)scale(0.1 -0.1)">
       <use xlink:href="#DejaVuSans-49"/>
       <use x="63.623047" xlink:href="#DejaVuSans-46"/>
       <use x="95.410156" xlink:href="#DejaVuSans-57"/>
      </g>
     </g>
    </g>
    <g id="text_28">
     <!-- Hours -->
     <defs>
      <path d="M 9.8125 72.90625 
L 19.671875 72.90625 
L 19.671875 43.015625 
L 55.515625 43.015625 
L 55.515625 72.90625 
L 65.375 72.90625 
L 65.375 0 
L 55.515625 0 
L 55.515625 34.71875 
L 19.671875 34.71875 
L 19.671875 0 
L 9.8125 0 
z
" id="DejaVuSans-72"/>
      <path d="M 8.5 21.578125 
L 8.5 54.6875 
L 17.484375 54.6875 
L 17.484375 21.921875 
Q 17.484375 14.15625 20.5 10.265625 
Q 23.53125 6.390625 29.59375 6.390625 
Q 36.859375 6.390625 41.078125 11.03125 
Q 45.3125 15.671875 45.3125 23.6875 
L 45.3125 54.6875 
L 54.296875 54.6875 
L 54.296875 0 
L 45.3125 0 
L 45.3125 8.40625 
Q 42.046875 3.421875 37.71875 1 
Q 33.40625 -1.421875 27.6875 -1.421875 
Q 18.265625 -1.421875 13.375 4.4375 
Q 8.5 10.296875 8.5 21.578125 
z
M 31.109375 56 
z
" id="DejaVuSans-117"/>
     </defs>
     <g transform="translate(221.511562 20.793875)scale(0.1 -0.1)">
      <use xlink:href="#DejaVuSans-72"/>
      <use x="75.195312" xlink:href="#DejaVuSans-111"/>
      <use x="136.376953" xlink:href="#DejaVuSans-117"/>
      <use x="199.755859" xlink:href="#DejaVuSans-114"/>
      <use x="240.869141" xlink:href="#DejaVuSans-115"/>
     </g>
    </g>
   </g>
   <g id="patch_8">
    <path d="M 57.6 307.584 
L 57.6 41.472 
" style="fill:none;stroke:#000000;stroke-linecap:square;stroke-linejoin:miter;stroke-width:0.8;"/>
   </g>
   <g id="patch_9">
    <path d="M 414.72 307.584 
L 414.72 41.472 
" style="fill:none;stroke:#000000;stroke-linecap:square;stroke-linejoin:miter;stroke-width:0.8;"/>
   </g>
   <g id="patch_10">
    <path d="M 57.6 307.584 
L 414.72 307.584 
" style="fill:none;stroke:#000000;stroke-linecap:square;stroke-linejoin:miter;stroke-width:0.8;"/>
   </g>
   <g id="patch_11">
    <path d="M 57.6 41.472 
L 414.72 41.472 
" style="fill:none;stroke:#000000;stroke-linecap:square;stroke-linejoin:miter;stroke-width:0.8;"/>
   </g>
  </g>
 </g>
 <defs>
  <clipPath id="p27afc388fe">
   <rect height="266.112" width="357.12" x="57.6" y="41.472"/>
  </clipPath>
 </defs>
</svg>
