<?xml version="1.0" encoding="utf-8" standalone="no"?>
<!DOCTYPE svg PUBLIC "-//W3C//DTD SVG 1.1//EN"
  "http://www.w3.org/Graphics/SVG/1.1/DTD/svg11.dtd">
<!-- Created with matplotlib (https://matplotlib.org/) -->
<svg height="345.6pt" version="1.1" viewBox="0 0 460.8 345.6" width="460.8pt" xmlns="http://www.w3.org/2000/svg" xmlns:xlink="http://www.w3.org/1999/xlink">
 <defs>
  <style type="text/css">
*{stroke-linecap:butt;stroke-linejoin:round;}
  </style>
 </defs>
 <g id="figure_1">
  <g id="patch_1">
   <path d="M 0 345.6 
L 460.8 345.6 
L 460.8 0 
L 0 0 
z
" style="fill:#ffffff;"/>
  </g>
  <g id="axes_1">
   <g id="patch_2">
    <path d="M 57.6 307.584 
L 414.72 307.584 
L 414.72 41.472 
L 57.6 41.472 
z
" style="fill:#ffffff;"/>
   </g>
   <g id="matplotlib.axis_1">
    <g id="xtick_1">
     <g id="line2d_1">
      <path clip-path="url(#p1b310d2a79)" d="M 57.6 307.584 
L 57.6 41.472 
" style="fill:none;stroke:#b0b0b0;stroke-linecap:square;stroke-width:0.8;"/>
     </g>
     <g id="line2d_2">
      <defs>
       <path d="M 0 0 
L 0 3.5 
" id="mdf5aa2ebc1" style="stroke:#000000;stroke-width:0.8;"/>
      </defs>
      <g>
       <use style="stroke:#000000;stroke-width:0.8;" x="57.6" xlink:href="#mdf5aa2ebc1" y="307.584"/>
      </g>
     </g>
     <g id="text_1">
      <!-- 0.0 -->
      <defs>
       <path d="M 31.78125 66.40625 
Q 24.171875 66.40625 20.328125 58.90625 
Q 16.5 51.421875 16.5 36.375 
Q 16.5 21.390625 20.328125 13.890625 
Q 24.171875 6.390625 31.78125 6.390625 
Q 39.453125 6.390625 43.28125 13.890625 
Q 47.125 21.390625 47.125 36.375 
Q 47.125 51.421875 43.28125 58.90625 
Q 39.453125 66.40625 31.78125 66.40625 
z
M 31.78125 74.21875 
Q 44.046875 74.21875 50.515625 64.515625 
Q 56.984375 54.828125 56.984375 36.375 
Q 56.984375 17.96875 50.515625 8.265625 
Q 44.046875 -1.421875 31.78125 -1.421875 
Q 19.53125 -1.421875 13.0625 8.265625 
Q 6.59375 17.96875 6.59375 36.375 
Q 6.59375 54.828125 13.0625 64.515625 
Q 19.53125 74.21875 31.78125 74.21875 
z
" id="DejaVuSans-48"/>
       <path d="M 10.6875 12.40625 
L 21 12.40625 
L 21 0 
L 10.6875 0 
z
" id="DejaVuSans-46"/>
      </defs>
      <g transform="translate(49.648438 322.182437)scale(0.1 -0.1)">
       <use xlink:href="#DejaVuSans-48"/>
       <use x="63.623047" xlink:href="#DejaVuSans-46"/>
       <use x="95.410156" xlink:href="#DejaVuSans-48"/>
      </g>
     </g>
    </g>
    <g id="xtick_2">
     <g id="line2d_3">
      <path clip-path="url(#p1b310d2a79)" d="M 98.374873 307.584 
L 98.374873 41.472 
" style="fill:none;stroke:#b0b0b0;stroke-linecap:square;stroke-width:0.8;"/>
     </g>
     <g id="line2d_4">
      <g>
       <use style="stroke:#000000;stroke-width:0.8;" x="98.374873" xlink:href="#mdf5aa2ebc1" y="307.584"/>
      </g>
     </g>
     <g id="text_2">
      <!-- 0.2 -->
      <defs>
       <path d="M 19.1875 8.296875 
L 53.609375 8.296875 
L 53.609375 0 
L 7.328125 0 
L 7.328125 8.296875 
Q 12.9375 14.109375 22.625 23.890625 
Q 32.328125 33.6875 34.8125 36.53125 
Q 39.546875 41.84375 41.421875 45.53125 
Q 43.3125 49.21875 43.3125 52.78125 
Q 43.3125 58.59375 39.234375 62.25 
Q 35.15625 65.921875 28.609375 65.921875 
Q 23.96875 65.921875 18.8125 64.3125 
Q 13.671875 62.703125 7.8125 59.421875 
L 7.8125 69.390625 
Q 13.765625 71.78125 18.9375 73 
Q 24.125 74.21875 28.421875 74.21875 
Q 39.75 74.21875 46.484375 68.546875 
Q 53.21875 62.890625 53.21875 53.421875 
Q 53.21875 48.921875 51.53125 44.890625 
Q 49.859375 40.875 45.40625 35.40625 
Q 44.1875 33.984375 37.640625 27.21875 
Q 31.109375 20.453125 19.1875 8.296875 
z
" id="DejaVuSans-50"/>
      </defs>
      <g transform="translate(90.423311 322.182437)scale(0.1 -0.1)">
       <use xlink:href="#DejaVuSans-48"/>
       <use x="63.623047" xlink:href="#DejaVuSans-46"/>
       <use x="95.410156" xlink:href="#DejaVuSans-50"/>
      </g>
     </g>
    </g>
    <g id="xtick_3">
     <g id="line2d_5">
      <path clip-path="url(#p1b310d2a79)" d="M 139.149746 307.584 
L 139.149746 41.472 
" style="fill:none;stroke:#b0b0b0;stroke-linecap:square;stroke-width:0.8;"/>
     </g>
     <g id="line2d_6">
      <g>
       <use style="stroke:#000000;stroke-width:0.8;" x="139.149746" xlink:href="#mdf5aa2ebc1" y="307.584"/>
      </g>
     </g>
     <g id="text_3">
      <!-- 0.4 -->
      <defs>
       <path d="M 37.796875 64.3125 
L 12.890625 25.390625 
L 37.796875 25.390625 
z
M 35.203125 72.90625 
L 47.609375 72.90625 
L 47.609375 25.390625 
L 58.015625 25.390625 
L 58.015625 17.1875 
L 47.609375 17.1875 
L 47.609375 0 
L 37.796875 0 
L 37.796875 17.1875 
L 4.890625 17.1875 
L 4.890625 26.703125 
z
" id="DejaVuSans-52"/>
      </defs>
      <g transform="translate(131.198184 322.182437)scale(0.1 -0.1)">
       <use xlink:href="#DejaVuSans-48"/>
       <use x="63.623047" xlink:href="#DejaVuSans-46"/>
       <use x="95.410156" xlink:href="#DejaVuSans-52"/>
      </g>
     </g>
    </g>
    <g id="xtick_4">
     <g id="line2d_7">
      <path clip-path="url(#p1b310d2a79)" d="M 179.924619 307.584 
L 179.924619 41.472 
" style="fill:none;stroke:#b0b0b0;stroke-linecap:square;stroke-width:0.8;"/>
     </g>
     <g id="line2d_8">
      <g>
       <use style="stroke:#000000;stroke-width:0.8;" x="179.924619" xlink:href="#mdf5aa2ebc1" y="307.584"/>
      </g>
     </g>
     <g id="text_4">
      <!-- 0.6 -->
      <defs>
       <path d="M 33.015625 40.375 
Q 26.375 40.375 22.484375 35.828125 
Q 18.609375 31.296875 18.609375 23.390625 
Q 18.609375 15.53125 22.484375 10.953125 
Q 26.375 6.390625 33.015625 6.390625 
Q 39.65625 6.390625 43.53125 10.953125 
Q 47.40625 15.53125 47.40625 23.390625 
Q 47.40625 31.296875 43.53125 35.828125 
Q 39.65625 40.375 33.015625 40.375 
z
M 52.59375 71.296875 
L 52.59375 62.3125 
Q 48.875 64.0625 45.09375 64.984375 
Q 41.3125 65.921875 37.59375 65.921875 
Q 27.828125 65.921875 22.671875 59.328125 
Q 17.53125 52.734375 16.796875 39.40625 
Q 19.671875 43.65625 24.015625 45.921875 
Q 28.375 48.1875 33.59375 48.1875 
Q 44.578125 48.1875 50.953125 41.515625 
Q 57.328125 34.859375 57.328125 23.390625 
Q 57.328125 12.15625 50.6875 5.359375 
Q 44.046875 -1.421875 33.015625 -1.421875 
Q 20.359375 -1.421875 13.671875 8.265625 
Q 6.984375 17.96875 6.984375 36.375 
Q 6.984375 53.65625 15.1875 63.9375 
Q 23.390625 74.21875 37.203125 74.21875 
Q 40.921875 74.21875 44.703125 73.484375 
Q 48.484375 72.75 52.59375 71.296875 
z
" id="DejaVuSans-54"/>
      </defs>
      <g transform="translate(171.973057 322.182437)scale(0.1 -0.1)">
       <use xlink:href="#DejaVuSans-48"/>
       <use x="63.623047" xlink:href="#DejaVuSans-46"/>
       <use x="95.410156" xlink:href="#DejaVuSans-54"/>
      </g>
     </g>
    </g>
    <g id="xtick_5">
     <g id="line2d_9">
      <path clip-path="url(#p1b310d2a79)" d="M 220.699492 307.584 
L 220.699492 41.472 
" style="fill:none;stroke:#b0b0b0;stroke-linecap:square;stroke-width:0.8;"/>
     </g>
     <g id="line2d_10">
      <g>
       <use style="stroke:#000000;stroke-width:0.8;" x="220.699492" xlink:href="#mdf5aa2ebc1" y="307.584"/>
      </g>
     </g>
     <g id="text_5">
      <!-- 0.8 -->
      <defs>
       <path d="M 31.78125 34.625 
Q 24.75 34.625 20.71875 30.859375 
Q 16.703125 27.09375 16.703125 20.515625 
Q 16.703125 13.921875 20.71875 10.15625 
Q 24.75 6.390625 31.78125 6.390625 
Q 38.8125 6.390625 42.859375 10.171875 
Q 46.921875 13.96875 46.921875 20.515625 
Q 46.921875 27.09375 42.890625 30.859375 
Q 38.875 34.625 31.78125 34.625 
z
M 21.921875 38.8125 
Q 15.578125 40.375 12.03125 44.71875 
Q 8.5 49.078125 8.5 55.328125 
Q 8.5 64.0625 14.71875 69.140625 
Q 20.953125 74.21875 31.78125 74.21875 
Q 42.671875 74.21875 48.875 69.140625 
Q 55.078125 64.0625 55.078125 55.328125 
Q 55.078125 49.078125 51.53125 44.71875 
Q 48 40.375 41.703125 38.8125 
Q 48.828125 37.15625 52.796875 32.3125 
Q 56.78125 27.484375 56.78125 20.515625 
Q 56.78125 9.90625 50.3125 4.234375 
Q 43.84375 -1.421875 31.78125 -1.421875 
Q 19.734375 -1.421875 13.25 4.234375 
Q 6.78125 9.90625 6.78125 20.515625 
Q 6.78125 27.484375 10.78125 32.3125 
Q 14.796875 37.15625 21.921875 38.8125 
z
M 18.3125 54.390625 
Q 18.3125 48.734375 21.84375 45.5625 
Q 25.390625 42.390625 31.78125 42.390625 
Q 38.140625 42.390625 41.71875 45.5625 
Q 45.3125 48.734375 45.3125 54.390625 
Q 45.3125 60.0625 41.71875 63.234375 
Q 38.140625 66.40625 31.78125 66.40625 
Q 25.390625 66.40625 21.84375 63.234375 
Q 18.3125 60.0625 18.3125 54.390625 
z
" id="DejaVuSans-56"/>
      </defs>
      <g transform="translate(212.74793 322.182437)scale(0.1 -0.1)">
       <use xlink:href="#DejaVuSans-48"/>
       <use x="63.623047" xlink:href="#DejaVuSans-46"/>
       <use x="95.410156" xlink:href="#DejaVuSans-56"/>
      </g>
     </g>
    </g>
    <g id="xtick_6">
     <g id="line2d_11">
      <path clip-path="url(#p1b310d2a79)" d="M 261.474365 307.584 
L 261.474365 41.472 
" style="fill:none;stroke:#b0b0b0;stroke-linecap:square;stroke-width:0.8;"/>
     </g>
     <g id="line2d_12">
      <g>
       <use style="stroke:#000000;stroke-width:0.8;" x="261.474365" xlink:href="#mdf5aa2ebc1" y="307.584"/>
      </g>
     </g>
     <g id="text_6">
      <!-- 1.0 -->
      <defs>
       <path d="M 12.40625 8.296875 
L 28.515625 8.296875 
L 28.515625 63.921875 
L 10.984375 60.40625 
L 10.984375 69.390625 
L 28.421875 72.90625 
L 38.28125 72.90625 
L 38.28125 8.296875 
L 54.390625 8.296875 
L 54.390625 0 
L 12.40625 0 
z
" id="DejaVuSans-49"/>
      </defs>
      <g transform="translate(253.522803 322.182437)scale(0.1 -0.1)">
       <use xlink:href="#DejaVuSans-49"/>
       <use x="63.623047" xlink:href="#DejaVuSans-46"/>
       <use x="95.410156" xlink:href="#DejaVuSans-48"/>
      </g>
     </g>
    </g>
    <g id="xtick_7">
     <g id="line2d_13">
      <path clip-path="url(#p1b310d2a79)" d="M 302.249238 307.584 
L 302.249238 41.472 
" style="fill:none;stroke:#b0b0b0;stroke-linecap:square;stroke-width:0.8;"/>
     </g>
     <g id="line2d_14">
      <g>
       <use style="stroke:#000000;stroke-width:0.8;" x="302.249238" xlink:href="#mdf5aa2ebc1" y="307.584"/>
      </g>
     </g>
     <g id="text_7">
      <!-- 1.2 -->
      <g transform="translate(294.297676 322.182437)scale(0.1 -0.1)">
       <use xlink:href="#DejaVuSans-49"/>
       <use x="63.623047" xlink:href="#DejaVuSans-46"/>
       <use x="95.410156" xlink:href="#DejaVuSans-50"/>
      </g>
     </g>
    </g>
    <g id="xtick_8">
     <g id="line2d_15">
      <path clip-path="url(#p1b310d2a79)" d="M 343.024111 307.584 
L 343.024111 41.472 
" style="fill:none;stroke:#b0b0b0;stroke-linecap:square;stroke-width:0.8;"/>
     </g>
     <g id="line2d_16">
      <g>
       <use style="stroke:#000000;stroke-width:0.8;" x="343.024111" xlink:href="#mdf5aa2ebc1" y="307.584"/>
      </g>
     </g>
     <g id="text_8">
      <!-- 1.4 -->
      <g transform="translate(335.072549 322.182437)scale(0.1 -0.1)">
       <use xlink:href="#DejaVuSans-49"/>
       <use x="63.623047" xlink:href="#DejaVuSans-46"/>
       <use x="95.410156" xlink:href="#DejaVuSans-52"/>
      </g>
     </g>
    </g>
    <g id="xtick_9">
     <g id="line2d_17">
      <path clip-path="url(#p1b310d2a79)" d="M 383.798984 307.584 
L 383.798984 41.472 
" style="fill:none;stroke:#b0b0b0;stroke-linecap:square;stroke-width:0.8;"/>
     </g>
     <g id="line2d_18">
      <g>
       <use style="stroke:#000000;stroke-width:0.8;" x="383.798984" xlink:href="#mdf5aa2ebc1" y="307.584"/>
      </g>
     </g>
     <g id="text_9">
      <!-- 1.6 -->
      <g transform="translate(375.847422 322.182437)scale(0.1 -0.1)">
       <use xlink:href="#DejaVuSans-49"/>
       <use x="63.623047" xlink:href="#DejaVuSans-46"/>
       <use x="95.410156" xlink:href="#DejaVuSans-54"/>
      </g>
     </g>
    </g>
    <g id="text_10">
     <!-- Hours -->
     <defs>
      <path d="M 9.8125 72.90625 
L 19.671875 72.90625 
L 19.671875 43.015625 
L 55.515625 43.015625 
L 55.515625 72.90625 
L 65.375 72.90625 
L 65.375 0 
L 55.515625 0 
L 55.515625 34.71875 
L 19.671875 34.71875 
L 19.671875 0 
L 9.8125 0 
z
" id="DejaVuSans-72"/>
      <path d="M 30.609375 48.390625 
Q 23.390625 48.390625 19.1875 42.75 
Q 14.984375 37.109375 14.984375 27.296875 
Q 14.984375 17.484375 19.15625 11.84375 
Q 23.34375 6.203125 30.609375 6.203125 
Q 37.796875 6.203125 41.984375 11.859375 
Q 46.1875 17.53125 46.1875 27.296875 
Q 46.1875 37.015625 41.984375 42.703125 
Q 37.796875 48.390625 30.609375 48.390625 
z
M 30.609375 56 
Q 42.328125 56 49.015625 48.375 
Q 55.71875 40.765625 55.71875 27.296875 
Q 55.71875 13.875 49.015625 6.21875 
Q 42.328125 -1.421875 30.609375 -1.421875 
Q 18.84375 -1.421875 12.171875 6.21875 
Q 5.515625 13.875 5.515625 27.296875 
Q 5.515625 40.765625 12.171875 48.375 
Q 18.84375 56 30.609375 56 
z
" id="DejaVuSans-111"/>
      <path d="M 8.5 21.578125 
L 8.5 54.6875 
L 17.484375 54.6875 
L 17.484375 21.921875 
Q 17.484375 14.15625 20.5 10.265625 
Q 23.53125 6.390625 29.59375 6.390625 
Q 36.859375 6.390625 41.078125 11.03125 
Q 45.3125 15.671875 45.3125 23.6875 
L 45.3125 54.6875 
L 54.296875 54.6875 
L 54.296875 0 
L 45.3125 0 
L 45.3125 8.40625 
Q 42.046875 3.421875 37.71875 1 
Q 33.40625 -1.421875 27.6875 -1.421875 
Q 18.265625 -1.421875 13.375 4.4375 
Q 8.5 10.296875 8.5 21.578125 
z
M 31.109375 56 
z
" id="DejaVuSans-117"/>
      <path d="M 41.109375 46.296875 
Q 39.59375 47.171875 37.8125 47.578125 
Q 36.03125 48 33.890625 48 
Q 26.265625 48 22.1875 43.046875 
Q 18.109375 38.09375 18.109375 28.8125 
L 18.109375 0 
L 9.078125 0 
L 9.078125 54.6875 
L 18.109375 54.6875 
L 18.109375 46.1875 
Q 20.953125 51.171875 25.484375 53.578125 
Q 30.03125 56 36.53125 56 
Q 37.453125 56 38.578125 55.875 
Q 39.703125 55.765625 41.0625 55.515625 
z
" id="DejaVuSans-114"/>
      <path d="M 44.28125 53.078125 
L 44.28125 44.578125 
Q 40.484375 46.53125 36.375 47.5 
Q 32.28125 48.484375 27.875 48.484375 
Q 21.1875 48.484375 17.84375 46.4375 
Q 14.5 44.390625 14.5 40.28125 
Q 14.5 37.15625 16.890625 35.375 
Q 19.28125 33.59375 26.515625 31.984375 
L 29.59375 31.296875 
Q 39.15625 29.25 43.1875 25.515625 
Q 47.21875 21.78125 47.21875 15.09375 
Q 47.21875 7.46875 41.1875 3.015625 
Q 35.15625 -1.421875 24.609375 -1.421875 
Q 20.21875 -1.421875 15.453125 -0.5625 
Q 10.6875 0.296875 5.421875 2 
L 5.421875 11.28125 
Q 10.40625 8.6875 15.234375 7.390625 
Q 20.0625 6.109375 24.8125 6.109375 
Q 31.15625 6.109375 34.5625 8.28125 
Q 37.984375 10.453125 37.984375 14.40625 
Q 37.984375 18.0625 35.515625 20.015625 
Q 33.0625 21.96875 24.703125 23.78125 
L 21.578125 24.515625 
Q 13.234375 26.265625 9.515625 29.90625 
Q 5.8125 33.546875 5.8125 39.890625 
Q 5.8125 47.609375 11.28125 51.796875 
Q 16.75 56 26.8125 56 
Q 31.78125 56 36.171875 55.265625 
Q 40.578125 54.546875 44.28125 53.078125 
z
" id="DejaVuSans-115"/>
     </defs>
     <g transform="translate(221.511562 335.860562)scale(0.1 -0.1)">
      <use xlink:href="#DejaVuSans-72"/>
      <use x="75.195312" xlink:href="#DejaVuSans-111"/>
      <use x="136.376953" xlink:href="#DejaVuSans-117"/>
      <use x="199.755859" xlink:href="#DejaVuSans-114"/>
      <use x="240.869141" xlink:href="#DejaVuSans-115"/>
     </g>
    </g>
   </g>
   <g id="matplotlib.axis_2">
    <g id="ytick_1">
     <g id="line2d_19">
      <path clip-path="url(#p1b310d2a79)" d="M 57.6 293.854903 
L 414.72 293.854903 
" style="fill:none;stroke:#b0b0b0;stroke-linecap:square;stroke-width:0.8;"/>
     </g>
     <g id="line2d_20">
      <defs>
       <path d="M 0 0 
L -3.5 0 
" id="mefe389ccf0" style="stroke:#000000;stroke-width:0.8;"/>
      </defs>
      <g>
       <use style="stroke:#000000;stroke-width:0.8;" x="57.6" xlink:href="#mefe389ccf0" y="293.854903"/>
      </g>
     </g>
     <g id="text_11">
      <!-- −20 -->
      <defs>
       <path d="M 10.59375 35.5 
L 73.1875 35.5 
L 73.1875 27.203125 
L 10.59375 27.203125 
z
" id="DejaVuSans-8722"/>
      </defs>
      <g transform="translate(29.495313 297.654121)scale(0.1 -0.1)">
       <use xlink:href="#DejaVuSans-8722"/>
       <use x="83.789062" xlink:href="#DejaVuSans-50"/>
       <use x="147.412109" xlink:href="#DejaVuSans-48"/>
      </g>
     </g>
    </g>
    <g id="ytick_2">
     <g id="line2d_21">
      <path clip-path="url(#p1b310d2a79)" d="M 57.6 261.348946 
L 414.72 261.348946 
" style="fill:none;stroke:#b0b0b0;stroke-linecap:square;stroke-width:0.8;"/>
     </g>
     <g id="line2d_22">
      <g>
       <use style="stroke:#000000;stroke-width:0.8;" x="57.6" xlink:href="#mefe389ccf0" y="261.348946"/>
      </g>
     </g>
     <g id="text_12">
      <!-- −15 -->
      <defs>
       <path d="M 10.796875 72.90625 
L 49.515625 72.90625 
L 49.515625 64.59375 
L 19.828125 64.59375 
L 19.828125 46.734375 
Q 21.96875 47.46875 24.109375 47.828125 
Q 26.265625 48.1875 28.421875 48.1875 
Q 40.625 48.1875 47.75 41.5 
Q 54.890625 34.8125 54.890625 23.390625 
Q 54.890625 11.625 47.5625 5.09375 
Q 40.234375 -1.421875 26.90625 -1.421875 
Q 22.3125 -1.421875 17.546875 -0.640625 
Q 12.796875 0.140625 7.71875 1.703125 
L 7.71875 11.625 
Q 12.109375 9.234375 16.796875 8.0625 
Q 21.484375 6.890625 26.703125 6.890625 
Q 35.15625 6.890625 40.078125 11.328125 
Q 45.015625 15.765625 45.015625 23.390625 
Q 45.015625 31 40.078125 35.4375 
Q 35.15625 39.890625 26.703125 39.890625 
Q 22.75 39.890625 18.8125 39.015625 
Q 14.890625 38.140625 10.796875 36.28125 
z
" id="DejaVuSans-53"/>
      </defs>
      <g transform="translate(29.495313 265.148165)scale(0.1 -0.1)">
       <use xlink:href="#DejaVuSans-8722"/>
       <use x="83.789062" xlink:href="#DejaVuSans-49"/>
       <use x="147.412109" xlink:href="#DejaVuSans-53"/>
      </g>
     </g>
    </g>
    <g id="ytick_3">
     <g id="line2d_23">
      <path clip-path="url(#p1b310d2a79)" d="M 57.6 228.842989 
L 414.72 228.842989 
" style="fill:none;stroke:#b0b0b0;stroke-linecap:square;stroke-width:0.8;"/>
     </g>
     <g id="line2d_24">
      <g>
       <use style="stroke:#000000;stroke-width:0.8;" x="57.6" xlink:href="#mefe389ccf0" y="228.842989"/>
      </g>
     </g>
     <g id="text_13">
      <!-- −10 -->
      <g transform="translate(29.495313 232.642208)scale(0.1 -0.1)">
       <use xlink:href="#DejaVuSans-8722"/>
       <use x="83.789062" xlink:href="#DejaVuSans-49"/>
       <use x="147.412109" xlink:href="#DejaVuSans-48"/>
      </g>
     </g>
    </g>
    <g id="ytick_4">
     <g id="line2d_25">
      <path clip-path="url(#p1b310d2a79)" d="M 57.6 196.337033 
L 414.72 196.337033 
" style="fill:none;stroke:#b0b0b0;stroke-linecap:square;stroke-width:0.8;"/>
     </g>
     <g id="line2d_26">
      <g>
       <use style="stroke:#000000;stroke-width:0.8;" x="57.6" xlink:href="#mefe389ccf0" y="196.337033"/>
      </g>
     </g>
     <g id="text_14">
      <!-- −5 -->
      <g transform="translate(35.857813 200.136251)scale(0.1 -0.1)">
       <use xlink:href="#DejaVuSans-8722"/>
       <use x="83.789062" xlink:href="#DejaVuSans-53"/>
      </g>
     </g>
    </g>
    <g id="ytick_5">
     <g id="line2d_27">
      <path clip-path="url(#p1b310d2a79)" d="M 57.6 163.831076 
L 414.72 163.831076 
" style="fill:none;stroke:#b0b0b0;stroke-linecap:square;stroke-width:0.8;"/>
     </g>
     <g id="line2d_28">
      <g>
       <use style="stroke:#000000;stroke-width:0.8;" x="57.6" xlink:href="#mefe389ccf0" y="163.831076"/>
      </g>
     </g>
     <g id="text_15">
      <!-- 0 -->
      <g transform="translate(44.2375 167.630295)scale(0.1 -0.1)">
       <use xlink:href="#DejaVuSans-48"/>
      </g>
     </g>
    </g>
    <g id="ytick_6">
     <g id="line2d_29">
      <path clip-path="url(#p1b310d2a79)" d="M 57.6 131.325119 
L 414.72 131.325119 
" style="fill:none;stroke:#b0b0b0;stroke-linecap:square;stroke-width:0.8;"/>
     </g>
     <g id="line2d_30">
      <g>
       <use style="stroke:#000000;stroke-width:0.8;" x="57.6" xlink:href="#mefe389ccf0" y="131.325119"/>
      </g>
     </g>
     <g id="text_16">
      <!-- 5 -->
      <g transform="translate(44.2375 135.124338)scale(0.1 -0.1)">
       <use xlink:href="#DejaVuSans-53"/>
      </g>
     </g>
    </g>
    <g id="ytick_7">
     <g id="line2d_31">
      <path clip-path="url(#p1b310d2a79)" d="M 57.6 98.819163 
L 414.72 98.819163 
" style="fill:none;stroke:#b0b0b0;stroke-linecap:square;stroke-width:0.8;"/>
     </g>
     <g id="line2d_32">
      <g>
       <use style="stroke:#000000;stroke-width:0.8;" x="57.6" xlink:href="#mefe389ccf0" y="98.819163"/>
      </g>
     </g>
     <g id="text_17">
      <!-- 10 -->
      <g transform="translate(37.875 102.618381)scale(0.1 -0.1)">
       <use xlink:href="#DejaVuSans-49"/>
       <use x="63.623047" xlink:href="#DejaVuSans-48"/>
      </g>
     </g>
    </g>
    <g id="ytick_8">
     <g id="line2d_33">
      <path clip-path="url(#p1b310d2a79)" d="M 57.6 66.313206 
L 414.72 66.313206 
" style="fill:none;stroke:#b0b0b0;stroke-linecap:square;stroke-width:0.8;"/>
     </g>
     <g id="line2d_34">
      <g>
       <use style="stroke:#000000;stroke-width:0.8;" x="57.6" xlink:href="#mefe389ccf0" y="66.313206"/>
      </g>
     </g>
     <g id="text_18">
      <!-- 15 -->
      <g transform="translate(37.875 70.112425)scale(0.1 -0.1)">
       <use xlink:href="#DejaVuSans-49"/>
       <use x="63.623047" xlink:href="#DejaVuSans-53"/>
      </g>
     </g>
    </g>
    <g id="text_19">
     <!-- Reward -->
     <defs>
      <path d="M 44.390625 34.1875 
Q 47.5625 33.109375 50.5625 29.59375 
Q 53.5625 26.078125 56.59375 19.921875 
L 66.609375 0 
L 56 0 
L 46.6875 18.703125 
Q 43.0625 26.03125 39.671875 28.421875 
Q 36.28125 30.8125 30.421875 30.8125 
L 19.671875 30.8125 
L 19.671875 0 
L 9.8125 0 
L 9.8125 72.90625 
L 32.078125 72.90625 
Q 44.578125 72.90625 50.734375 67.671875 
Q 56.890625 62.453125 56.890625 51.90625 
Q 56.890625 45.015625 53.6875 40.46875 
Q 50.484375 35.9375 44.390625 34.1875 
z
M 19.671875 64.796875 
L 19.671875 38.921875 
L 32.078125 38.921875 
Q 39.203125 38.921875 42.84375 42.21875 
Q 46.484375 45.515625 46.484375 51.90625 
Q 46.484375 58.296875 42.84375 61.546875 
Q 39.203125 64.796875 32.078125 64.796875 
z
" id="DejaVuSans-82"/>
      <path d="M 56.203125 29.59375 
L 56.203125 25.203125 
L 14.890625 25.203125 
Q 15.484375 15.921875 20.484375 11.0625 
Q 25.484375 6.203125 34.421875 6.203125 
Q 39.59375 6.203125 44.453125 7.46875 
Q 49.3125 8.734375 54.109375 11.28125 
L 54.109375 2.78125 
Q 49.265625 0.734375 44.1875 -0.34375 
Q 39.109375 -1.421875 33.890625 -1.421875 
Q 20.796875 -1.421875 13.15625 6.1875 
Q 5.515625 13.8125 5.515625 26.8125 
Q 5.515625 40.234375 12.765625 48.109375 
Q 20.015625 56 32.328125 56 
Q 43.359375 56 49.78125 48.890625 
Q 56.203125 41.796875 56.203125 29.59375 
z
M 47.21875 32.234375 
Q 47.125 39.59375 43.09375 43.984375 
Q 39.0625 48.390625 32.421875 48.390625 
Q 24.90625 48.390625 20.390625 44.140625 
Q 15.875 39.890625 15.1875 32.171875 
z
" id="DejaVuSans-101"/>
      <path d="M 4.203125 54.6875 
L 13.1875 54.6875 
L 24.421875 12.015625 
L 35.59375 54.6875 
L 46.1875 54.6875 
L 57.421875 12.015625 
L 68.609375 54.6875 
L 77.59375 54.6875 
L 63.28125 0 
L 52.6875 0 
L 40.921875 44.828125 
L 29.109375 0 
L 18.5 0 
z
" id="DejaVuSans-119"/>
      <path d="M 34.28125 27.484375 
Q 23.390625 27.484375 19.1875 25 
Q 14.984375 22.515625 14.984375 16.5 
Q 14.984375 11.71875 18.140625 8.90625 
Q 21.296875 6.109375 26.703125 6.109375 
Q 34.1875 6.109375 38.703125 11.40625 
Q 43.21875 16.703125 43.21875 25.484375 
L 43.21875 27.484375 
z
M 52.203125 31.203125 
L 52.203125 0 
L 43.21875 0 
L 43.21875 8.296875 
Q 40.140625 3.328125 35.546875 0.953125 
Q 30.953125 -1.421875 24.3125 -1.421875 
Q 15.921875 -1.421875 10.953125 3.296875 
Q 6 8.015625 6 15.921875 
Q 6 25.140625 12.171875 29.828125 
Q 18.359375 34.515625 30.609375 34.515625 
L 43.21875 34.515625 
L 43.21875 35.40625 
Q 43.21875 41.609375 39.140625 45 
Q 35.0625 48.390625 27.6875 48.390625 
Q 23 48.390625 18.546875 47.265625 
Q 14.109375 46.140625 10.015625 43.890625 
L 10.015625 52.203125 
Q 14.9375 54.109375 19.578125 55.046875 
Q 24.21875 56 28.609375 56 
Q 40.484375 56 46.34375 49.84375 
Q 52.203125 43.703125 52.203125 31.203125 
z
" id="DejaVuSans-97"/>
      <path d="M 45.40625 46.390625 
L 45.40625 75.984375 
L 54.390625 75.984375 
L 54.390625 0 
L 45.40625 0 
L 45.40625 8.203125 
Q 42.578125 3.328125 38.25 0.953125 
Q 33.9375 -1.421875 27.875 -1.421875 
Q 17.96875 -1.421875 11.734375 6.484375 
Q 5.515625 14.40625 5.515625 27.296875 
Q 5.515625 40.1875 11.734375 48.09375 
Q 17.96875 56 27.875 56 
Q 33.9375 56 38.25 53.625 
Q 42.578125 51.265625 45.40625 46.390625 
z
M 14.796875 27.296875 
Q 14.796875 17.390625 18.875 11.75 
Q 22.953125 6.109375 30.078125 6.109375 
Q 37.203125 6.109375 41.296875 11.75 
Q 45.40625 17.390625 45.40625 27.296875 
Q 45.40625 37.203125 41.296875 42.84375 
Q 37.203125 48.484375 30.078125 48.484375 
Q 22.953125 48.484375 18.875 42.84375 
Q 14.796875 37.203125 14.796875 27.296875 
z
" id="DejaVuSans-100"/>
     </defs>
     <g transform="translate(23.415625 193.457687)rotate(-90)scale(0.1 -0.1)">
      <use xlink:href="#DejaVuSans-82"/>
      <use x="69.419922" xlink:href="#DejaVuSans-101"/>
      <use x="130.943359" xlink:href="#DejaVuSans-119"/>
      <use x="212.730469" xlink:href="#DejaVuSans-97"/>
      <use x="274.009766" xlink:href="#DejaVuSans-114"/>
      <use x="315.107422" xlink:href="#DejaVuSans-100"/>
     </g>
    </g>
   </g>
   <g id="line2d_35">
    <path clip-path="url(#p1b310d2a79)" d="M 57.6 287.353711 
L 57.663044 288.881718 
L 57.927749 289.111206 
L 58.926822 289.39017 
L 59.603588 289.824419 
L 59.937627 289.905032 
L 60.573993 290.188868 
L 61.559356 290.404468 
L 61.870486 290.603501 
L 62.211867 290.668527 
L 62.549587 290.862277 
L 62.956521 290.662079 
L 63.228229 290.855966 
L 63.893383 290.974721 
L 64.163485 291.162346 
L 64.835705 291.268974 
L 65.397285 291.628823 
L 66.091571 291.716975 
L 66.367312 291.889757 
L 67.308752 292.005325 
L 67.646217 292.172341 
L 68.804139 291.888963 
L 69.407366 292.22426 
L 69.743851 292.126858 
L 71.335852 292.795133 
L 71.68482 292.816325 
L 71.970193 292.967122 
L 72.656352 293.002276 
L 76.266306 294.585438 
L 76.590581 294.570819 
L 76.944664 294.426482 
L 79.012975 295.083573 
L 79.314325 295.058996 
L 79.660249 294.904888 
L 79.99319 294.883895 
L 80.271345 294.993338 
L 80.606204 294.970571 
L 81.943523 295.388651 
L 82.259353 295.488 
L 82.638164 295.195297 
L 83.19744 295.399662 
L 83.54176 295.238747 
L 84.195431 295.183939 
L 84.582555 295.28738 
L 85.014004 294.998694 
L 85.322145 295.105831 
L 85.711626 294.820766 
L 86.047292 294.801447 
L 86.768542 294.506525 
L 87.12407 294.493492 
L 87.526218 294.350693 
L 87.897457 294.340773 
L 88.665279 294.194118 
L 89.147227 293.66724 
L 89.522577 293.670985 
L 90.325429 293.293404 
L 90.725355 293.174612 
L 91.48383 293.458994 
L 91.980859 292.946811 
L 92.447231 292.964977 
L 93.483753 292.227881 
L 93.863941 292.260419 
L 94.330695 292.032258 
L 94.711641 292.198741 
L 95.245509 291.58174 
L 95.698306 291.497184 
L 96.116941 291.544329 
L 96.941093 291.378392 
L 97.917677 290.574088 
L 98.339702 290.639709 
L 98.938112 290.053894 
L 99.368754 290.129906 
L 99.892792 289.684311 
L 100.356789 289.767726 
L 100.891368 289.589426 
L 101.47907 288.764563 
L 101.965471 288.606326 
L 102.561629 287.931156 
L 103.057684 287.919612 
L 103.506335 288.038317 
L 104.08321 287.374506 
L 104.717228 286.463922 
L 105.299119 285.831594 
L 105.840254 285.601995 
L 106.456261 284.856877 
L 107.16108 283.736608 
L 107.716747 283.808949 
L 108.272754 283.619787 
L 108.912322 282.784309 
L 109.494244 282.485617 
L 111.987771 280.337447 
L 112.487125 280.477766 
L 113.006127 280.225214 
L 113.607292 279.587642 
L 114.260922 279.22287 
L 114.791424 278.605348 
L 115.36171 278.650285 
L 116.098718 277.914182 
L 116.661732 277.972958 
L 117.28966 277.380422 
L 117.82405 277.449863 
L 118.537894 277.127846 
L 119.088394 277.202345 
L 119.553742 277.665412 
L 120.188674 277.729161 
L 120.868374 276.881457 
L 121.38367 276.960879 
L 121.843388 277.168741 
L 122.600855 276.20222 
L 123.176902 275.905153 
L 123.864054 274.963915 
L 124.493457 274.951664 
L 126.017208 273.128362 
L 126.640904 273.022801 
L 127.3328 272.529267 
L 127.90341 272.825764 
L 128.58693 272.336174 
L 129.247745 272.116432 
L 130.032629 271.250959 
L 131.11883 271.631182 
L 134.903385 269.518885 
L 136.542909 267.910724 
L 137.28822 266.869325 
L 138.313842 265.848746 
L 139.290813 265.368679 
L 140.228207 264.37812 
L 141.043359 264.44756 
L 142.739365 263.68254 
L 143.652773 262.855724 
L 145.328257 261.636242 
L 146.031774 261.630495 
L 146.88979 261.364818 
L 148.01503 260.064258 
L 149.028694 258.659694 
L 150.027014 257.673289 
L 150.775309 257.876824 
L 151.674916 257.426169 
L 154.519022 255.240656 
L 155.526887 254.582679 
L 156.516931 253.677811 
L 157.664043 253.051094 
L 158.943587 251.526739 
L 159.826823 251.463139 
L 160.781613 250.230588 
L 161.695404 250.062884 
L 162.460334 250.158581 
L 164.637092 248.284699 
L 165.688377 247.765838 
L 166.868791 246.867288 
L 167.78241 246.37678 
L 169.028012 244.985911 
L 170.033241 244.533031 
L 170.800002 244.34925 
L 172.047809 243.128962 
L 173.798312 242.175765 
L 176.996024 239.727228 
L 178.050616 238.729403 
L 179.004062 238.141604 
L 179.803814 238.215676 
L 180.999753 237.50813 
L 182.09883 236.554685 
L 183.852368 236.249297 
L 184.834253 235.841124 
L 186.941462 234.536814 
L 187.917239 234.422932 
L 189.134128 233.531196 
L 190.178048 233.047359 
L 192.017919 232.753441 
L 193.203253 232.155139 
L 196.03177 230.221842 
L 198.267438 229.524923 
L 199.202799 229.511283 
L 199.969087 229.88799 
L 204.811865 226.661438 
L 205.760138 226.445026 
L 206.780479 226.62301 
L 208.218661 224.847071 
L 209.51074 224.146847 
L 210.822001 223.200581 
L 211.952933 222.92336 
L 213.21968 222.261607 
L 214.516298 221.873138 
L 215.539732 222.01254 
L 216.860245 220.068765 
L 219.485523 218.484072 
L 220.784025 217.521035 
L 221.882189 217.227377 
L 223.06525 216.67955 
L 224.407871 215.492553 
L 225.581862 215.499516 
L 226.93635 214.856217 
L 228.22703 213.575668 
L 230.9916 212.762995 
L 232.182231 211.134237 
L 233.208426 210.968315 
L 234.43791 210.415642 
L 235.825092 209.613974 
L 237.106086 208.43827 
L 238.488783 207.936196 
L 239.860792 207.184118 
L 241.180633 206.837153 
L 242.457027 206.627149 
L 243.868898 205.641206 
L 245.035387 205.975217 
L 246.421546 205.262357 
L 247.478593 203.263517 
L 248.599065 203.645082 
L 249.780555 202.588757 
L 250.683979 200.123291 
L 252.652155 200.745699 
L 253.655551 200.787549 
L 254.963752 200.308467 
L 256.143004 199.448893 
L 257.415674 198.346468 
L 258.583659 196.745992 
L 259.837758 195.567598 
L 260.838632 194.282749 
L 261.948583 192.373478 
L 263.02894 190.892464 
L 264.313046 190.22121 
L 265.25477 188.783242 
L 266.348044 187.63408 
L 267.098981 184.947614 
L 268.115087 183.615117 
L 271.514481 174.753302 
L 273.107898 170.201627 
L 274.098643 168.51393 
L 275.145846 167.250059 
L 275.972979 165.231322 
L 277.138384 164.943269 
L 278.077252 163.880835 
L 279.296923 164.009863 
L 280.26465 162.836073 
L 282.565543 156.899761 
L 284.438783 154.469745 
L 285.209673 152.706614 
L 286.262763 151.758889 
L 287.02521 149.789928 
L 288.841113 147.386615 
L 289.626976 146.025194 
L 291.5747 143.640941 
L 292.284131 141.834339 
L 293.151595 140.583964 
L 294.143223 139.878692 
L 295.058363 139.057501 
L 296.039578 138.642805 
L 297.161367 137.846334 
L 298.012152 136.285646 
L 298.705569 134.366102 
L 299.682735 133.52514 
L 301.6368 128.295551 
L 302.239914 126.405785 
L 303.114692 125.854052 
L 303.761083 124.143141 
L 304.619308 122.98654 
L 305.330811 121.72305 
L 306.189724 120.744876 
L 306.907944 119.526219 
L 307.600198 118.071887 
L 308.423883 117.296764 
L 309.123157 115.756995 
L 309.878349 114.508072 
L 310.475911 112.764032 
L 311.150041 111.444944 
L 311.903037 110.412287 
L 312.605128 109.140235 
L 315.579834 105.690619 
L 316.192897 104.252952 
L 317.183639 104.274299 
L 318.000655 104.03517 
L 318.89033 104.190896 
L 319.819645 103.823415 
L 320.527979 102.943186 
L 321.278873 102.210585 
L 321.959964 101.232594 
L 322.978318 101.444375 
L 323.611482 100.221656 
L 324.302816 99.283439 
L 325.00745 98.103935 
L 325.742561 97.208075 
L 326.54711 96.590175 
L 327.779552 94.103974 
L 328.414966 93.028066 
L 330.619824 91.839336 
L 331.352758 91.068767 
L 332.25568 91.093753 
L 332.836095 89.817999 
L 336.221854 85.068803 
L 336.953257 84.563669 
L 337.538942 83.418519 
L 338.164983 82.556314 
L 338.934377 82.101431 
L 339.598958 81.265569 
L 340.38194 80.836497 
L 341.055427 80.155964 
L 341.753536 79.749081 
L 342.444765 79.090292 
L 343.356854 79.484868 
L 344.004197 78.831367 
L 345.189779 76.920986 
L 345.955231 76.838854 
L 346.598391 76.10825 
L 347.36201 75.782322 
L 347.969069 74.94282 
L 348.741273 74.510183 
L 349.414168 73.826147 
L 350.22481 73.80591 
L 350.865828 73.135961 
L 351.557825 72.609437 
L 352.38161 72.483508 
L 352.995805 71.709988 
L 353.782427 71.472025 
L 354.472573 70.978776 
L 355.234792 70.755445 
L 356.460747 69.292296 
L 357.382755 69.492762 
L 359.282753 67.776491 
L 359.940268 67.357153 
L 360.770204 67.466298 
L 361.396674 66.923139 
L 362.149552 66.910944 
L 362.801143 66.508916 
L 363.593129 66.374977 
L 364.238034 65.853648 
L 365.018961 65.732816 
L 365.642237 65.094301 
L 366.315525 64.858632 
L 367.128571 65.14777 
L 367.792077 64.781008 
L 368.388694 64.161533 
L 369.063165 63.94452 
L 369.731389 63.471799 
L 370.434988 63.138554 
L 372.03651 63.779165 
L 372.933626 64.479966 
L 374.137083 63.135299 
L 374.858505 62.938814 
L 376.197614 62.300095 
L 376.797815 61.730238 
L 377.480649 61.431825 
L 378.11506 61.009362 
L 378.887933 61.115438 
L 379.674414 61.349415 
L 380.3879 61.318669 
L 381.799589 60.874134 
L 382.40701 60.332798 
L 383.161778 60.582429 
L 383.813246 60.436995 
L 384.44586 60.164448 
L 385.619728 58.86325 
L 386.435138 59.532356 
L 387.198648 59.667963 
L 388.510885 58.901331 
L 389.257728 58.919547 
L 390.017477 59.067417 
L 390.709635 58.562215 
L 392.093288 58.096816 
L 392.706317 57.741047 
L 393.487649 57.91249 
L 394.282862 57.820457 
L 394.917558 57.340191 
L 395.600161 57.129576 
L 396.227252 56.793151 
L 396.919158 56.593485 
L 398.429591 57.235832 
L 399.654228 56.180638 
L 400.301466 55.733171 
L 400.946454 55.684724 
L 401.652803 55.507217 
L 402.318725 55.203243 
L 403.045631 55.165398 
L 403.805004 55.38835 
L 404.442817 55.086757 
L 405.516719 56.611527 
L 406.710745 55.581047 
L 407.384014 55.665665 
L 408.104945 55.61857 
L 408.694933 55.052322 
L 409.351383 54.757449 
L 409.958685 54.338439 
L 411.495213 55.070091 
L 412.14548 54.774859 
L 412.803226 54.74557 
L 413.504094 54.586862 
L 414.72 53.633956 
L 414.72 53.633956 
" style="fill:none;stroke:#000000;stroke-linecap:square;stroke-width:0.8;"/>
   </g>
   <g id="line2d_36">
    <path clip-path="url(#p1b310d2a79)" d="M 57.6 287.353711 
L 57.600116 288.321584 
L 57.719565 288.302227 
L 57.909427 288.153228 
L 58.502243 288.506431 
L 58.71414 288.613406 
L 59.321428 289.303964 
L 59.815491 289.394993 
L 59.932561 289.224145 
L 60.277084 289.446776 
L 60.355614 289.664967 
L 60.866772 290.088329 
L 61.562129 290.692161 
L 61.83642 290.625387 
L 62.347194 290.753281 
L 62.491556 290.945333 
L 63.369053 291.116441 
L 63.390027 291.301239 
L 64.23699 291.706311 
L 64.343947 291.879304 
L 65.557674 292.571375 
L 65.921575 292.597043 
L 66.036722 292.752217 
L 67.30808 293.225353 
L 67.561804 293.237939 
L 68.149043 293.00493 
L 68.332123 293.02193 
L 69.120894 293.325805 
L 69.996143 292.972007 
L 70.218507 292.729611 
L 71.550052 293.210063 
L 71.961535 293.092933 
L 72.146074 293.238199 
L 72.50384 293.250525 
L 72.603757 293.392642 
L 73.707583 293.678326 
L 74.147201 293.68186 
L 74.336725 293.295252 
L 75.131428 293.710479 
L 75.426874 293.583354 
L 75.62715 293.7188 
L 77.167771 293.731882 
L 77.1768 293.474296 
L 77.638233 293.611924 
L 78.044127 293.09669 
L 78.32902 293.241882 
L 78.708543 293.254145 
L 79.183735 293.405352 
L 79.920744 293.414342 
L 79.994495 293.163104 
L 80.737833 293.176943 
L 81.039835 292.800428 
L 81.866308 292.714769 
L 82.525716 292.737572 
L 83.253219 292.52697 
L 84.063334 291.903409 
L 84.583244 291.682391 
L 85.086899 291.725841 
L 86.525304 291.167839 
L 86.794018 290.571459 
L 87.952305 290.571459 
L 88.610826 290.377076 
L 89.40014 289.796519 
L 89.858878 289.097541 
L 90.711281 289.028485 
L 91.863036 288.734939 
L 91.872642 288.577297 
L 93.088166 288.422793 
L 93.151315 288.271388 
L 94.35179 287.992995 
L 95.008316 286.679968 
L 96.075608 286.043325 
L 96.401604 285.679458 
L 97.414143 285.842965 
L 97.60127 285.353089 
L 98.940031 285.393104 
L 99.30369 284.392123 
L 100.363672 284.321331 
L 100.886364 283.471805 
L 102.017954 283.419427 
L 102.622693 282.97801 
L 103.776468 283.06553 
L 103.914567 282.111099 
L 105.501713 282.215954 
L 105.922507 281.408538 
L 107.104842 280.877332 
L 107.304552 280.486756 
L 108.729748 280.104004 
L 109.147121 279.728903 
L 109.92911 279.751372 
L 110.52755 279.643367 
L 112.94339 278.534047 
L 113.549823 278.840465 
L 115.094903 278.230581 
L 115.129902 277.762926 
L 116.986076 277.304621 
L 117.278437 276.855479 
L 119.445629 276.285301 
L 119.69071 275.72653 
L 121.764074 275.308959 
L 122.065336 273.98957 
L 123.916157 273.866772 
L 124.032305 273.486401 
L 125.403093 273.373672 
L 125.620594 273.523254 
L 127.330879 273.539808 
L 127.765546 273.426013 
L 129.343256 273.444526 
L 129.967128 273.332641 
L 132.571347 272.572865 
L 132.667102 272.218361 
L 135.260118 270.830759 
L 135.602792 270.251057 
L 136.952109 269.55291 
L 137.619806 268.868738 
L 139.896551 267.418944 
L 142.059804 267.167521 
L 142.297871 266.791106 
L 144.651787 266.682258 
L 145.102309 265.925471 
L 147.613159 265.313846 
L 147.980551 264.064337 
L 149.808166 263.749978 
L 150.684308 263.441911 
L 152.595484 263.009981 
L 153.249756 262.456666 
L 154.849247 261.914419 
L 156.030101 261.773083 
L 156.990959 261.504554 
L 158.648826 261.371415 
L 160.408978 260.460799 
L 160.872643 260.348542 
L 163.736295 259.848454 
L 163.898778 259.618415 
L 166.273411 259.686944 
L 168.337664 259.200087 
L 168.691628 258.592944 
L 170.403405 258.908116 
L 171.199232 258.696881 
L 174.168824 257.254621 
L 174.90841 256.426341 
L 176.433693 256.394771 
L 179.938842 255.173696 
L 184.019674 252.101152 
L 190.457746 249.283529 
L 191.734308 247.834528 
L 192.933689 247.32467 
L 194.641105 246.044868 
L 195.75816 244.920687 
L 197.306425 243.818993 
L 198.772634 242.999375 
L 199.206415 242.976299 
L 201.578773 242.433586 
L 201.880709 241.51165 
L 204.379254 240.738185 
L 204.42615 239.07002 
L 206.91224 238.475407 
L 207.199412 237.112544 
L 209.118023 235.386868 
L 209.190687 235.125965 
L 211.276116 235.26035 
L 211.99068 234.871956 
L 213.686053 232.410951 
L 214.23634 229.869136 
L 215.827323 229.718593 
L 216.159696 229.831105 
L 218.298498 228.641129 
L 218.617504 228.645165 
L 220.580271 228.519094 
L 220.761857 226.965289 
L 223.206015 222.548624 
L 225.535617 221.260998 
L 227.251697 219.332259 
L 227.432307 217.182043 
L 229.4679 214.554735 
L 229.889456 214.450429 
L 231.389606 212.137803 
L 232.143695 210.521551 
L 234.15306 209.457718 
L 234.157857 207.114923 
L 236.11032 205.079032 
L 236.427923 203.603954 
L 238.0104 201.24821 
L 238.131327 199.329652 
L 239.44471 196.149228 
L 239.666057 193.29246 
L 241.304401 188.531931 
L 242.246525 186.347603 
L 244.094528 183.263748 
L 244.657795 181.574857 
L 245.766651 180.17979 
L 245.908084 177.772434 
L 247.783699 176.973512 
L 248.03084 176.450615 
L 249.471914 174.637939 
L 249.532011 173.381611 
L 251.184491 172.410457 
L 251.604957 171.458727 
L 253.145211 170.656055 
L 253.154738 169.089293 
L 254.53922 167.293819 
L 254.811872 165.664278 
L 255.775643 163.547233 
L 255.84131 160.952433 
L 257.062155 159.189672 
L 257.110767 157.332143 
L 258.320904 155.251716 
L 258.521841 153.60297 
L 259.515417 151.727151 
L 259.597445 149.368753 
L 260.614618 147.187547 
L 260.818791 145.049965 
L 261.876795 143.47523 
L 262.015877 141.541917 
L 263.023003 139.647272 
L 263.304879 138.18059 
L 264.317454 136.223147 
L 264.32021 135.215021 
L 265.380359 133.446911 
L 265.656564 131.844191 
L 266.559749 129.88345 
L 266.832663 128.221975 
L 267.727783 126.463706 
L 268.060389 125.000647 
L 268.850446 123.306802 
L 269.28941 121.77686 
L 271.073237 117.108088 
L 271.471595 115.702119 
L 272.280775 114.974388 
L 272.5587 113.481067 
L 273.496318 112.407689 
L 273.520874 110.83568 
L 274.565379 109.425132 
L 274.730623 108.172822 
L 276.679263 104.699298 
L 277.347435 104.061601 
L 278.271962 101.276925 
L 278.733285 100.187581 
L 279.200177 98.72995 
L 279.842431 97.56152 
L 280.138952 96.286436 
L 281.095048 95.296901 
L 281.142178 94.067108 
L 282.162784 92.861911 
L 282.267483 92.200909 
L 283.141044 91.033036 
L 284.080518 89.019146 
L 284.627395 88.304978 
L 285.040135 87.215021 
L 285.714083 86.406916 
L 286.061188 85.354922 
L 287.089793 83.701104 
L 287.61987 82.703229 
L 287.990647 81.725307 
L 288.977346 80.766945 
L 289.215762 81.258017 
L 289.968519 80.569046 
L 290.281685 80.023885 
L 290.998337 79.229576 
L 291.433071 78.971246 
L 292.088226 78.718086 
L 292.555074 78.079919 
L 293.176138 77.714558 
L 293.513557 76.706391 
L 294.139927 75.848408 
L 294.462791 75.00758 
L 295.195538 74.313599 
L 295.396887 73.503474 
L 296.361449 72.839569 
L 296.365167 72.058925 
L 297.306817 71.163865 
L 297.328707 70.416738 
L 298.21533 69.684547 
L 298.420928 69.097021 
L 299.466683 67.832173 
L 300.184445 67.281698 
L 300.493808 66.482187 
L 301.067141 65.69866 
L 301.529775 65.450907 
L 302.339818 65.468149 
L 302.480307 64.834935 
L 303.461652 64.60445 
L 303.487814 64.118529 
L 304.438782 63.382283 
L 304.525635 62.790783 
L 305.356149 62.341133 
L 305.501108 61.770458 
L 306.391284 61.471239 
L 306.426066 60.787935 
L 307.323297 60.118302 
L 307.365808 59.592075 
L 309.280496 58.460596 
L 309.483994 57.837507 
L 310.479767 57.145957 
L 311.236708 56.939223 
L 311.422227 56.47659 
L 312.184999 56.023195 
L 312.324439 55.578877 
L 313.389432 55.106795 
L 314.160988 54.940858 
L 314.42572 54.518178 
L 315.07959 54.103967 
L 315.430635 53.568 
L 315.430635 53.568 
" style="fill:none;stroke:#000000;stroke-dasharray:0.8,1.32;stroke-dashoffset:0;stroke-width:0.8;"/>
   </g>
   <g id="line2d_37">
    <path clip-path="url(#p1b310d2a79)" d="M 57.6 293.854903 
L 57.600023 293.597453 
L 57.600056 293.994911 
L 57.600087 293.859205 
L 57.830376 293.986467 
L 58.002133 293.983826 
L 58.472523 294.111273 
L 58.474493 293.976125 
L 58.781998 293.843681 
L 59.409036 294.099233 
L 59.777344 294.094347 
L 59.869621 294.219588 
L 60.195192 294.212284 
L 60.47899 294.325558 
L 60.968842 294.18612 
L 61.141982 294.43045 
L 61.656647 294.54897 
L 61.970138 294.134015 
L 63.530742 294.709736 
L 63.772851 294.692649 
L 63.968989 294.54587 
L 64.082065 294.662071 
L 64.519326 294.645926 
L 64.830435 294.742026 
L 65.332257 294.83432 
L 65.486005 294.814728 
L 65.807817 294.925559 
L 66.11709 294.644091 
L 66.174914 294.758332 
L 66.799248 294.722558 
L 66.93629 294.835225 
L 67.291104 294.685606 
L 67.648094 294.66899 
L 67.775623 294.522682 
L 68.023464 294.509327 
L 68.247114 294.626259 
L 68.477171 294.610834 
L 68.591714 294.725745 
L 69.093744 294.708323 
L 69.357226 294.801955 
L 69.812827 294.783008 
L 69.906415 294.894472 
L 70.148253 294.873677 
L 70.761902 295.090777 
L 70.806611 294.806023 
L 71.379504 294.656974 
L 71.814029 294.380887 
L 71.840641 293.850265 
L 72.184208 293.980379 
L 72.753297 293.977874 
L 72.771382 293.585338 
L 73.174953 293.330691 
L 73.813149 293.351449 
L 74.845079 292.868703 
L 76.858388 291.211896 
L 76.860477 291.004717 
L 77.855722 290.732709 
L 77.869465 290.405075 
L 78.496905 290.604096 
L 78.899081 290.475384 
L 79.649717 290.152908 
L 79.846544 289.706854 
L 80.191398 289.269716 
L 80.664838 289.361414 
L 81.013485 289.66679 
L 82.067276 289.702613 
L 82.175542 289.135535 
L 83.447328 288.162615 
L 84.288693 286.336251 
L 85.142771 285.734229 
L 86.36533 284.90639 
L 86.772302 284.695292 
L 88.398952 283.578247 
L 88.520175 282.873615 
L 88.5482 281.402933 
L 89.841837 280.7418 
L 90.40987 279.963871 
L 90.72589 278.68141 
L 92.849376 277.152324 
L 94.46131 274.069339 
L 94.956661 273.81494 
L 96.024908 273.565613 
L 96.46582 273.321282 
L 96.5524 273.081837 
L 98.155406 272.874658 
L 98.503715 272.254073 
L 99.394548 271.385859 
L 99.846502 271.835237 
L 101.166346 271.419984 
L 102.194151 270.82849 
L 102.304274 269.858757 
L 102.924802 268.908418 
L 104.542393 267.717035 
L 104.563551 266.159411 
L 105.254417 265.023009 
L 106.522905 264.689479 
L 106.710463 264.2326 
L 107.455307 263.784853 
L 108.575278 263.476086 
L 108.631051 262.913453 
L 109.265316 263.012182 
L 111.060096 261.938729 
L 111.242588 259.460525 
L 113.580624 258.32808 
L 113.594924 257.738377 
L 113.796303 256.770399 
L 116.044188 256.60192 
L 116.194398 256.436813 
L 116.350885 255.104795 
L 118.592282 254.709581 
L 118.75233 253.037746 
L 121.255884 252.981995 
L 122.02463 251.979123 
L 123.728703 249.956113 
L 123.985714 247.583496 
L 125.831955 246.428544 
L 127.024173 244.840192 
L 128.331457 242.049793 
L 129.351898 239.575253 
L 130.296342 238.320419 
L 131.121253 236.180507 
L 132.641455 235.12359 
L 133.368799 235.258031 
L 133.432631 233.959512 
L 135.768968 231.64678 
L 136.323592 227.544017 
L 138.508204 224.839494 
L 138.937926 220.361382 
L 141.045367 217.93054 
L 141.327117 214.370942 
L 143.843305 213.100096 
L 143.967419 209.736985 
L 145.540863 206.868509 
L 145.916569 201.822614 
L 147.394699 199.372472 
L 147.56976 194.488196 
L 148.899574 191.664648 
L 150.579963 185.047224 
L 150.758257 181.892401 
L 151.251027 179.190745 
L 152.361442 176.283075 
L 152.402536 174.47375 
L 152.601013 171.66042 
L 153.949918 168.903356 
L 154.009524 164.718564 
L 155.418432 162.360385 
L 155.452391 157.784575 
L 156.782754 155.565076 
L 156.865291 151.258361 
L 158.264873 149.039363 
L 158.663923 145.766007 
L 159.652344 143.656855 
L 159.918347 141.719912 
L 160.327134 140.341801 
L 161.117438 138.341134 
L 161.767372 134.971332 
L 162.687163 133.208099 
L 162.850866 131.350105 
L 163.27252 129.789319 
L 164.097116 127.999702 
L 164.177217 126.115854 
L 164.834066 124.659751 
L 165.837441 121.842137 
L 166.073205 120.08144 
L 166.958831 118.876051 
L 167.545465 116.287469 
L 168.845186 113.66877 
L 168.848163 112.201563 
L 169.885354 111.41382 
L 170.075125 109.731668 
L 170.116197 108.213177 
L 171.116645 106.595034 
L 171.560856 105.139282 
L 171.583703 104.102707 
L 172.616523 103.086871 
L 172.921884 101.831305 
L 173.024094 100.73087 
L 174.177642 99.262377 
L 174.281873 98.473369 
L 174.645828 97.570119 
L 175.477047 96.294856 
L 175.530598 94.915085 
L 176.764762 92.750057 
L 176.845143 91.571204 
L 177.543128 90.675971 
L 178.132658 89.538596 
L 178.244976 88.684016 
L 179.388807 86.510897 
L 179.532623 85.456825 
L 180.207811 84.423834 
L 180.658598 83.28148 
L 180.86984 82.291995 
L 181.878038 80.114548 
L 182.149846 79.188401 
L 182.73421 78.280781 
L 183.321257 77.651361 
L 183.572886 76.9045 
L 184.241442 76.172576 
L 184.962254 75.84537 
L 185.172878 75.524698 
L 186.525746 74.384986 
L 186.689286 73.963503 
L 187.797312 72.498134 
L 188.250003 72.11439 
L 188.448399 71.478268 
L 189.255532 70.854875 
L 189.615113 70.243944 
L 189.761906 69.515212 
L 191.286153 68.488644 
L 191.292442 68.315111 
L 192.270679 68.015031 
L 192.711162 67.460898 
L 193.090309 67.567966 
L 194.499608 65.840014 
L 195.578058 64.958985 
L 195.786596 64.335952 
L 196.550828 63.595353 
L 196.964758 62.869566 
L 197.370724 62.808416 
L 198.12747 62.488439 
L 198.376341 62.174867 
L 198.839986 61.867563 
L 200.233418 60.602263 
L 200.954912 60.456432 
L 201.32633 59.923447 
L 201.547911 59.2711 
L 202.237796 58.631804 
L 202.910347 58.265333 
L 202.953108 58.036217 
L 203.682453 57.551636 
L 204.39734 56.743985 
L 205.057744 56.415272 
L 205.525428 55.83309 
L 205.74291 55.262552 
L 206.503972 54.963463 
L 206.854393 54.670363 
L 207.153256 54.123075 
L 207.153256 54.123075 
" style="fill:none;stroke:#000000;stroke-dasharray:2.96,1.28;stroke-dashoffset:0;stroke-width:0.8;"/>
   </g>
   <g id="patch_3">
    <path d="M 57.6 307.584 
L 57.6 41.472 
" style="fill:none;stroke:#000000;stroke-linecap:square;stroke-linejoin:miter;stroke-width:0.8;"/>
   </g>
   <g id="patch_4">
    <path d="M 414.72 307.584 
L 414.72 41.472 
" style="fill:none;stroke:#000000;stroke-linecap:square;stroke-linejoin:miter;stroke-width:0.8;"/>
   </g>
   <g id="patch_5">
    <path d="M 57.6 307.584 
L 414.72 307.584 
" style="fill:none;stroke:#000000;stroke-linecap:square;stroke-linejoin:miter;stroke-width:0.8;"/>
   </g>
   <g id="patch_6">
    <path d="M 57.6 41.472 
L 414.72 41.472 
" style="fill:none;stroke:#000000;stroke-linecap:square;stroke-linejoin:miter;stroke-width:0.8;"/>
   </g>
   <g id="legend_1">
    <g id="patch_7">
     <path d="M 64.6 93.506375 
L 138.998437 93.506375 
Q 140.998437 93.506375 140.998437 91.506375 
L 140.998437 48.472 
Q 140.998437 46.472 138.998437 46.472 
L 64.6 46.472 
Q 62.6 46.472 62.6 48.472 
L 62.6 91.506375 
Q 62.6 93.506375 64.6 93.506375 
z
" style="fill:#ffffff;opacity:0.8;stroke:#cccccc;stroke-linejoin:miter;"/>
    </g>
    <g id="line2d_38">
     <path d="M 66.6 54.570438 
L 86.6 54.570438 
" style="fill:none;stroke:#000000;stroke-linecap:square;stroke-width:0.8;"/>
    </g>
    <g id="line2d_39"/>
    <g id="text_20">
     <!-- Baseline -->
     <defs>
      <path d="M 19.671875 34.8125 
L 19.671875 8.109375 
L 35.5 8.109375 
Q 43.453125 8.109375 47.28125 11.40625 
Q 51.125 14.703125 51.125 21.484375 
Q 51.125 28.328125 47.28125 31.5625 
Q 43.453125 34.8125 35.5 34.8125 
z
M 19.671875 64.796875 
L 19.671875 42.828125 
L 34.28125 42.828125 
Q 41.5 42.828125 45.03125 45.53125 
Q 48.578125 48.25 48.578125 53.8125 
Q 48.578125 59.328125 45.03125 62.0625 
Q 41.5 64.796875 34.28125 64.796875 
z
M 9.8125 72.90625 
L 35.015625 72.90625 
Q 46.296875 72.90625 52.390625 68.21875 
Q 58.5 63.53125 58.5 54.890625 
Q 58.5 48.1875 55.375 44.234375 
Q 52.25 40.28125 46.1875 39.3125 
Q 53.46875 37.75 57.5 32.78125 
Q 61.53125 27.828125 61.53125 20.40625 
Q 61.53125 10.640625 54.890625 5.3125 
Q 48.25 0 35.984375 0 
L 9.8125 0 
z
" id="DejaVuSans-66"/>
      <path d="M 9.421875 75.984375 
L 18.40625 75.984375 
L 18.40625 0 
L 9.421875 0 
z
" id="DejaVuSans-108"/>
      <path d="M 9.421875 54.6875 
L 18.40625 54.6875 
L 18.40625 0 
L 9.421875 0 
z
M 9.421875 75.984375 
L 18.40625 75.984375 
L 18.40625 64.59375 
L 9.421875 64.59375 
z
" id="DejaVuSans-105"/>
      <path d="M 54.890625 33.015625 
L 54.890625 0 
L 45.90625 0 
L 45.90625 32.71875 
Q 45.90625 40.484375 42.875 44.328125 
Q 39.84375 48.1875 33.796875 48.1875 
Q 26.515625 48.1875 22.3125 43.546875 
Q 18.109375 38.921875 18.109375 30.90625 
L 18.109375 0 
L 9.078125 0 
L 9.078125 54.6875 
L 18.109375 54.6875 
L 18.109375 46.1875 
Q 21.34375 51.125 25.703125 53.5625 
Q 30.078125 56 35.796875 56 
Q 45.21875 56 50.046875 50.171875 
Q 54.890625 44.34375 54.890625 33.015625 
z
" id="DejaVuSans-110"/>
     </defs>
     <g transform="translate(94.6 58.070438)scale(0.1 -0.1)">
      <use xlink:href="#DejaVuSans-66"/>
      <use x="68.603516" xlink:href="#DejaVuSans-97"/>
      <use x="129.882812" xlink:href="#DejaVuSans-115"/>
      <use x="181.982422" xlink:href="#DejaVuSans-101"/>
      <use x="243.505859" xlink:href="#DejaVuSans-108"/>
      <use x="271.289062" xlink:href="#DejaVuSans-105"/>
      <use x="299.072266" xlink:href="#DejaVuSans-110"/>
      <use x="362.451172" xlink:href="#DejaVuSans-101"/>
     </g>
    </g>
    <g id="line2d_40">
     <path d="M 66.6 69.248563 
L 86.6 69.248563 
" style="fill:none;stroke:#000000;stroke-dasharray:0.8,1.32;stroke-dashoffset:0;stroke-width:0.8;"/>
    </g>
    <g id="line2d_41"/>
    <g id="text_21">
     <!-- 2 envs -->
     <defs>
      <path id="DejaVuSans-32"/>
      <path d="M 2.984375 54.6875 
L 12.5 54.6875 
L 29.59375 8.796875 
L 46.6875 54.6875 
L 56.203125 54.6875 
L 35.6875 0 
L 23.484375 0 
z
" id="DejaVuSans-118"/>
     </defs>
     <g transform="translate(94.6 72.748563)scale(0.1 -0.1)">
      <use xlink:href="#DejaVuSans-50"/>
      <use x="63.623047" xlink:href="#DejaVuSans-32"/>
      <use x="95.410156" xlink:href="#DejaVuSans-101"/>
      <use x="156.933594" xlink:href="#DejaVuSans-110"/>
      <use x="220.3125" xlink:href="#DejaVuSans-118"/>
      <use x="279.492188" xlink:href="#DejaVuSans-115"/>
     </g>
    </g>
    <g id="line2d_42">
     <path d="M 66.6 83.926688 
L 86.6 83.926688 
" style="fill:none;stroke:#000000;stroke-dasharray:2.96,1.28;stroke-dashoffset:0;stroke-width:0.8;"/>
    </g>
    <g id="line2d_43"/>
    <g id="text_22">
     <!-- 3 envs -->
     <defs>
      <path d="M 40.578125 39.3125 
Q 47.65625 37.796875 51.625 33 
Q 55.609375 28.21875 55.609375 21.1875 
Q 55.609375 10.40625 48.1875 4.484375 
Q 40.765625 -1.421875 27.09375 -1.421875 
Q 22.515625 -1.421875 17.65625 -0.515625 
Q 12.796875 0.390625 7.625 2.203125 
L 7.625 11.71875 
Q 11.71875 9.328125 16.59375 8.109375 
Q 21.484375 6.890625 26.8125 6.890625 
Q 36.078125 6.890625 40.9375 10.546875 
Q 45.796875 14.203125 45.796875 21.1875 
Q 45.796875 27.640625 41.28125 31.265625 
Q 36.765625 34.90625 28.71875 34.90625 
L 20.21875 34.90625 
L 20.21875 43.015625 
L 29.109375 43.015625 
Q 36.375 43.015625 40.234375 45.921875 
Q 44.09375 48.828125 44.09375 54.296875 
Q 44.09375 59.90625 40.109375 62.90625 
Q 36.140625 65.921875 28.71875 65.921875 
Q 24.65625 65.921875 20.015625 65.03125 
Q 15.375 64.15625 9.8125 62.3125 
L 9.8125 71.09375 
Q 15.4375 72.65625 20.34375 73.4375 
Q 25.25 74.21875 29.59375 74.21875 
Q 40.828125 74.21875 47.359375 69.109375 
Q 53.90625 64.015625 53.90625 55.328125 
Q 53.90625 49.265625 50.4375 45.09375 
Q 46.96875 40.921875 40.578125 39.3125 
z
" id="DejaVuSans-51"/>
     </defs>
     <g transform="translate(94.6 87.426688)scale(0.1 -0.1)">
      <use xlink:href="#DejaVuSans-51"/>
      <use x="63.623047" xlink:href="#DejaVuSans-32"/>
      <use x="95.410156" xlink:href="#DejaVuSans-101"/>
      <use x="156.933594" xlink:href="#DejaVuSans-110"/>
      <use x="220.3125" xlink:href="#DejaVuSans-118"/>
      <use x="279.492188" xlink:href="#DejaVuSans-115"/>
     </g>
    </g>
   </g>
  </g>
 </g>
 <defs>
  <clipPath id="p1b310d2a79">
   <rect height="266.112" width="357.12" x="57.6" y="41.472"/>
  </clipPath>
 </defs>
</svg>
