<?xml version="1.0" encoding="utf-8" standalone="no"?>
<!DOCTYPE svg PUBLIC "-//W3C//DTD SVG 1.1//EN"
  "http://www.w3.org/Graphics/SVG/1.1/DTD/svg11.dtd">
<!-- Created with matplotlib (https://matplotlib.org/) -->
<svg height="345.6pt" version="1.1" viewBox="0 0 460.8 345.6" width="460.8pt" xmlns="http://www.w3.org/2000/svg" xmlns:xlink="http://www.w3.org/1999/xlink">
 <defs>
  <style type="text/css">
*{stroke-linecap:butt;stroke-linejoin:round;}
  </style>
 </defs>
 <g id="figure_1">
  <g id="patch_1">
   <path d="M 0 345.6 
L 460.8 345.6 
L 460.8 0 
L 0 0 
z
" style="fill:#ffffff;"/>
  </g>
  <g id="axes_1">
   <g id="patch_2">
    <path d="M 57.6 307.584 
L 414.72 307.584 
L 414.72 41.472 
L 57.6 41.472 
z
" style="fill:#ffffff;"/>
   </g>
   <g id="matplotlib.axis_1">
    <g id="xtick_1">
     <g id="line2d_1">
      <path clip-path="url(#pff66b29303)" d="M 57.6 307.584 
L 57.6 41.472 
" style="fill:none;stroke:#b0b0b0;stroke-linecap:square;stroke-width:0.8;"/>
     </g>
     <g id="line2d_2">
      <defs>
       <path d="M 0 0 
L 0 3.5 
" id="m3c76f56889" style="stroke:#000000;stroke-width:0.8;"/>
      </defs>
      <g>
       <use style="stroke:#000000;stroke-width:0.8;" x="57.6" xlink:href="#m3c76f56889" y="307.584"/>
      </g>
     </g>
     <g id="text_1">
      <!-- 0.0 -->
      <defs>
       <path d="M 31.78125 66.40625 
Q 24.171875 66.40625 20.328125 58.90625 
Q 16.5 51.421875 16.5 36.375 
Q 16.5 21.390625 20.328125 13.890625 
Q 24.171875 6.390625 31.78125 6.390625 
Q 39.453125 6.390625 43.28125 13.890625 
Q 47.125 21.390625 47.125 36.375 
Q 47.125 51.421875 43.28125 58.90625 
Q 39.453125 66.40625 31.78125 66.40625 
z
M 31.78125 74.21875 
Q 44.046875 74.21875 50.515625 64.515625 
Q 56.984375 54.828125 56.984375 36.375 
Q 56.984375 17.96875 50.515625 8.265625 
Q 44.046875 -1.421875 31.78125 -1.421875 
Q 19.53125 -1.421875 13.0625 8.265625 
Q 6.59375 17.96875 6.59375 36.375 
Q 6.59375 54.828125 13.0625 64.515625 
Q 19.53125 74.21875 31.78125 74.21875 
z
" id="DejaVuSans-48"/>
       <path d="M 10.6875 12.40625 
L 21 12.40625 
L 21 0 
L 10.6875 0 
z
" id="DejaVuSans-46"/>
      </defs>
      <g transform="translate(49.648438 322.182437)scale(0.1 -0.1)">
       <use xlink:href="#DejaVuSans-48"/>
       <use x="63.623047" xlink:href="#DejaVuSans-46"/>
       <use x="95.410156" xlink:href="#DejaVuSans-48"/>
      </g>
     </g>
    </g>
    <g id="xtick_2">
     <g id="line2d_3">
      <path clip-path="url(#pff66b29303)" d="M 98.444673 307.584 
L 98.444673 41.472 
" style="fill:none;stroke:#b0b0b0;stroke-linecap:square;stroke-width:0.8;"/>
     </g>
     <g id="line2d_4">
      <g>
       <use style="stroke:#000000;stroke-width:0.8;" x="98.444673" xlink:href="#m3c76f56889" y="307.584"/>
      </g>
     </g>
     <g id="text_2">
      <!-- 0.2 -->
      <defs>
       <path d="M 19.1875 8.296875 
L 53.609375 8.296875 
L 53.609375 0 
L 7.328125 0 
L 7.328125 8.296875 
Q 12.9375 14.109375 22.625 23.890625 
Q 32.328125 33.6875 34.8125 36.53125 
Q 39.546875 41.84375 41.421875 45.53125 
Q 43.3125 49.21875 43.3125 52.78125 
Q 43.3125 58.59375 39.234375 62.25 
Q 35.15625 65.921875 28.609375 65.921875 
Q 23.96875 65.921875 18.8125 64.3125 
Q 13.671875 62.703125 7.8125 59.421875 
L 7.8125 69.390625 
Q 13.765625 71.78125 18.9375 73 
Q 24.125 74.21875 28.421875 74.21875 
Q 39.75 74.21875 46.484375 68.546875 
Q 53.21875 62.890625 53.21875 53.421875 
Q 53.21875 48.921875 51.53125 44.890625 
Q 49.859375 40.875 45.40625 35.40625 
Q 44.1875 33.984375 37.640625 27.21875 
Q 31.109375 20.453125 19.1875 8.296875 
z
" id="DejaVuSans-50"/>
      </defs>
      <g transform="translate(90.49311 322.182437)scale(0.1 -0.1)">
       <use xlink:href="#DejaVuSans-48"/>
       <use x="63.623047" xlink:href="#DejaVuSans-46"/>
       <use x="95.410156" xlink:href="#DejaVuSans-50"/>
      </g>
     </g>
    </g>
    <g id="xtick_3">
     <g id="line2d_5">
      <path clip-path="url(#pff66b29303)" d="M 139.289346 307.584 
L 139.289346 41.472 
" style="fill:none;stroke:#b0b0b0;stroke-linecap:square;stroke-width:0.8;"/>
     </g>
     <g id="line2d_6">
      <g>
       <use style="stroke:#000000;stroke-width:0.8;" x="139.289346" xlink:href="#m3c76f56889" y="307.584"/>
      </g>
     </g>
     <g id="text_3">
      <!-- 0.4 -->
      <defs>
       <path d="M 37.796875 64.3125 
L 12.890625 25.390625 
L 37.796875 25.390625 
z
M 35.203125 72.90625 
L 47.609375 72.90625 
L 47.609375 25.390625 
L 58.015625 25.390625 
L 58.015625 17.1875 
L 47.609375 17.1875 
L 47.609375 0 
L 37.796875 0 
L 37.796875 17.1875 
L 4.890625 17.1875 
L 4.890625 26.703125 
z
" id="DejaVuSans-52"/>
      </defs>
      <g transform="translate(131.337783 322.182437)scale(0.1 -0.1)">
       <use xlink:href="#DejaVuSans-48"/>
       <use x="63.623047" xlink:href="#DejaVuSans-46"/>
       <use x="95.410156" xlink:href="#DejaVuSans-52"/>
      </g>
     </g>
    </g>
    <g id="xtick_4">
     <g id="line2d_7">
      <path clip-path="url(#pff66b29303)" d="M 180.134019 307.584 
L 180.134019 41.472 
" style="fill:none;stroke:#b0b0b0;stroke-linecap:square;stroke-width:0.8;"/>
     </g>
     <g id="line2d_8">
      <g>
       <use style="stroke:#000000;stroke-width:0.8;" x="180.134019" xlink:href="#m3c76f56889" y="307.584"/>
      </g>
     </g>
     <g id="text_4">
      <!-- 0.6 -->
      <defs>
       <path d="M 33.015625 40.375 
Q 26.375 40.375 22.484375 35.828125 
Q 18.609375 31.296875 18.609375 23.390625 
Q 18.609375 15.53125 22.484375 10.953125 
Q 26.375 6.390625 33.015625 6.390625 
Q 39.65625 6.390625 43.53125 10.953125 
Q 47.40625 15.53125 47.40625 23.390625 
Q 47.40625 31.296875 43.53125 35.828125 
Q 39.65625 40.375 33.015625 40.375 
z
M 52.59375 71.296875 
L 52.59375 62.3125 
Q 48.875 64.0625 45.09375 64.984375 
Q 41.3125 65.921875 37.59375 65.921875 
Q 27.828125 65.921875 22.671875 59.328125 
Q 17.53125 52.734375 16.796875 39.40625 
Q 19.671875 43.65625 24.015625 45.921875 
Q 28.375 48.1875 33.59375 48.1875 
Q 44.578125 48.1875 50.953125 41.515625 
Q 57.328125 34.859375 57.328125 23.390625 
Q 57.328125 12.15625 50.6875 5.359375 
Q 44.046875 -1.421875 33.015625 -1.421875 
Q 20.359375 -1.421875 13.671875 8.265625 
Q 6.984375 17.96875 6.984375 36.375 
Q 6.984375 53.65625 15.1875 63.9375 
Q 23.390625 74.21875 37.203125 74.21875 
Q 40.921875 74.21875 44.703125 73.484375 
Q 48.484375 72.75 52.59375 71.296875 
z
" id="DejaVuSans-54"/>
      </defs>
      <g transform="translate(172.182456 322.182437)scale(0.1 -0.1)">
       <use xlink:href="#DejaVuSans-48"/>
       <use x="63.623047" xlink:href="#DejaVuSans-46"/>
       <use x="95.410156" xlink:href="#DejaVuSans-54"/>
      </g>
     </g>
    </g>
    <g id="xtick_5">
     <g id="line2d_9">
      <path clip-path="url(#pff66b29303)" d="M 220.978692 307.584 
L 220.978692 41.472 
" style="fill:none;stroke:#b0b0b0;stroke-linecap:square;stroke-width:0.8;"/>
     </g>
     <g id="line2d_10">
      <g>
       <use style="stroke:#000000;stroke-width:0.8;" x="220.978692" xlink:href="#m3c76f56889" y="307.584"/>
      </g>
     </g>
     <g id="text_5">
      <!-- 0.8 -->
      <defs>
       <path d="M 31.78125 34.625 
Q 24.75 34.625 20.71875 30.859375 
Q 16.703125 27.09375 16.703125 20.515625 
Q 16.703125 13.921875 20.71875 10.15625 
Q 24.75 6.390625 31.78125 6.390625 
Q 38.8125 6.390625 42.859375 10.171875 
Q 46.921875 13.96875 46.921875 20.515625 
Q 46.921875 27.09375 42.890625 30.859375 
Q 38.875 34.625 31.78125 34.625 
z
M 21.921875 38.8125 
Q 15.578125 40.375 12.03125 44.71875 
Q 8.5 49.078125 8.5 55.328125 
Q 8.5 64.0625 14.71875 69.140625 
Q 20.953125 74.21875 31.78125 74.21875 
Q 42.671875 74.21875 48.875 69.140625 
Q 55.078125 64.0625 55.078125 55.328125 
Q 55.078125 49.078125 51.53125 44.71875 
Q 48 40.375 41.703125 38.8125 
Q 48.828125 37.15625 52.796875 32.3125 
Q 56.78125 27.484375 56.78125 20.515625 
Q 56.78125 9.90625 50.3125 4.234375 
Q 43.84375 -1.421875 31.78125 -1.421875 
Q 19.734375 -1.421875 13.25 4.234375 
Q 6.78125 9.90625 6.78125 20.515625 
Q 6.78125 27.484375 10.78125 32.3125 
Q 14.796875 37.15625 21.921875 38.8125 
z
M 18.3125 54.390625 
Q 18.3125 48.734375 21.84375 45.5625 
Q 25.390625 42.390625 31.78125 42.390625 
Q 38.140625 42.390625 41.71875 45.5625 
Q 45.3125 48.734375 45.3125 54.390625 
Q 45.3125 60.0625 41.71875 63.234375 
Q 38.140625 66.40625 31.78125 66.40625 
Q 25.390625 66.40625 21.84375 63.234375 
Q 18.3125 60.0625 18.3125 54.390625 
z
" id="DejaVuSans-56"/>
      </defs>
      <g transform="translate(213.027129 322.182437)scale(0.1 -0.1)">
       <use xlink:href="#DejaVuSans-48"/>
       <use x="63.623047" xlink:href="#DejaVuSans-46"/>
       <use x="95.410156" xlink:href="#DejaVuSans-56"/>
      </g>
     </g>
    </g>
    <g id="xtick_6">
     <g id="line2d_11">
      <path clip-path="url(#pff66b29303)" d="M 261.823365 307.584 
L 261.823365 41.472 
" style="fill:none;stroke:#b0b0b0;stroke-linecap:square;stroke-width:0.8;"/>
     </g>
     <g id="line2d_12">
      <g>
       <use style="stroke:#000000;stroke-width:0.8;" x="261.823365" xlink:href="#m3c76f56889" y="307.584"/>
      </g>
     </g>
     <g id="text_6">
      <!-- 1.0 -->
      <defs>
       <path d="M 12.40625 8.296875 
L 28.515625 8.296875 
L 28.515625 63.921875 
L 10.984375 60.40625 
L 10.984375 69.390625 
L 28.421875 72.90625 
L 38.28125 72.90625 
L 38.28125 8.296875 
L 54.390625 8.296875 
L 54.390625 0 
L 12.40625 0 
z
" id="DejaVuSans-49"/>
      </defs>
      <g transform="translate(253.871802 322.182437)scale(0.1 -0.1)">
       <use xlink:href="#DejaVuSans-49"/>
       <use x="63.623047" xlink:href="#DejaVuSans-46"/>
       <use x="95.410156" xlink:href="#DejaVuSans-48"/>
      </g>
     </g>
    </g>
    <g id="xtick_7">
     <g id="line2d_13">
      <path clip-path="url(#pff66b29303)" d="M 302.668038 307.584 
L 302.668038 41.472 
" style="fill:none;stroke:#b0b0b0;stroke-linecap:square;stroke-width:0.8;"/>
     </g>
     <g id="line2d_14">
      <g>
       <use style="stroke:#000000;stroke-width:0.8;" x="302.668038" xlink:href="#m3c76f56889" y="307.584"/>
      </g>
     </g>
     <g id="text_7">
      <!-- 1.2 -->
      <g transform="translate(294.716475 322.182437)scale(0.1 -0.1)">
       <use xlink:href="#DejaVuSans-49"/>
       <use x="63.623047" xlink:href="#DejaVuSans-46"/>
       <use x="95.410156" xlink:href="#DejaVuSans-50"/>
      </g>
     </g>
    </g>
    <g id="xtick_8">
     <g id="line2d_15">
      <path clip-path="url(#pff66b29303)" d="M 343.512711 307.584 
L 343.512711 41.472 
" style="fill:none;stroke:#b0b0b0;stroke-linecap:square;stroke-width:0.8;"/>
     </g>
     <g id="line2d_16">
      <g>
       <use style="stroke:#000000;stroke-width:0.8;" x="343.512711" xlink:href="#m3c76f56889" y="307.584"/>
      </g>
     </g>
     <g id="text_8">
      <!-- 1.4 -->
      <g transform="translate(335.561148 322.182437)scale(0.1 -0.1)">
       <use xlink:href="#DejaVuSans-49"/>
       <use x="63.623047" xlink:href="#DejaVuSans-46"/>
       <use x="95.410156" xlink:href="#DejaVuSans-52"/>
      </g>
     </g>
    </g>
    <g id="xtick_9">
     <g id="line2d_17">
      <path clip-path="url(#pff66b29303)" d="M 384.357384 307.584 
L 384.357384 41.472 
" style="fill:none;stroke:#b0b0b0;stroke-linecap:square;stroke-width:0.8;"/>
     </g>
     <g id="line2d_18">
      <g>
       <use style="stroke:#000000;stroke-width:0.8;" x="384.357384" xlink:href="#m3c76f56889" y="307.584"/>
      </g>
     </g>
     <g id="text_9">
      <!-- 1.6 -->
      <g transform="translate(376.405821 322.182437)scale(0.1 -0.1)">
       <use xlink:href="#DejaVuSans-49"/>
       <use x="63.623047" xlink:href="#DejaVuSans-46"/>
       <use x="95.410156" xlink:href="#DejaVuSans-54"/>
      </g>
     </g>
    </g>
    <g id="text_10">
     <!-- Hours -->
     <defs>
      <path d="M 9.8125 72.90625 
L 19.671875 72.90625 
L 19.671875 43.015625 
L 55.515625 43.015625 
L 55.515625 72.90625 
L 65.375 72.90625 
L 65.375 0 
L 55.515625 0 
L 55.515625 34.71875 
L 19.671875 34.71875 
L 19.671875 0 
L 9.8125 0 
z
" id="DejaVuSans-72"/>
      <path d="M 30.609375 48.390625 
Q 23.390625 48.390625 19.1875 42.75 
Q 14.984375 37.109375 14.984375 27.296875 
Q 14.984375 17.484375 19.15625 11.84375 
Q 23.34375 6.203125 30.609375 6.203125 
Q 37.796875 6.203125 41.984375 11.859375 
Q 46.1875 17.53125 46.1875 27.296875 
Q 46.1875 37.015625 41.984375 42.703125 
Q 37.796875 48.390625 30.609375 48.390625 
z
M 30.609375 56 
Q 42.328125 56 49.015625 48.375 
Q 55.71875 40.765625 55.71875 27.296875 
Q 55.71875 13.875 49.015625 6.21875 
Q 42.328125 -1.421875 30.609375 -1.421875 
Q 18.84375 -1.421875 12.171875 6.21875 
Q 5.515625 13.875 5.515625 27.296875 
Q 5.515625 40.765625 12.171875 48.375 
Q 18.84375 56 30.609375 56 
z
" id="DejaVuSans-111"/>
      <path d="M 8.5 21.578125 
L 8.5 54.6875 
L 17.484375 54.6875 
L 17.484375 21.921875 
Q 17.484375 14.15625 20.5 10.265625 
Q 23.53125 6.390625 29.59375 6.390625 
Q 36.859375 6.390625 41.078125 11.03125 
Q 45.3125 15.671875 45.3125 23.6875 
L 45.3125 54.6875 
L 54.296875 54.6875 
L 54.296875 0 
L 45.3125 0 
L 45.3125 8.40625 
Q 42.046875 3.421875 37.71875 1 
Q 33.40625 -1.421875 27.6875 -1.421875 
Q 18.265625 -1.421875 13.375 4.4375 
Q 8.5 10.296875 8.5 21.578125 
z
M 31.109375 56 
z
" id="DejaVuSans-117"/>
      <path d="M 41.109375 46.296875 
Q 39.59375 47.171875 37.8125 47.578125 
Q 36.03125 48 33.890625 48 
Q 26.265625 48 22.1875 43.046875 
Q 18.109375 38.09375 18.109375 28.8125 
L 18.109375 0 
L 9.078125 0 
L 9.078125 54.6875 
L 18.109375 54.6875 
L 18.109375 46.1875 
Q 20.953125 51.171875 25.484375 53.578125 
Q 30.03125 56 36.53125 56 
Q 37.453125 56 38.578125 55.875 
Q 39.703125 55.765625 41.0625 55.515625 
z
" id="DejaVuSans-114"/>
      <path d="M 44.28125 53.078125 
L 44.28125 44.578125 
Q 40.484375 46.53125 36.375 47.5 
Q 32.28125 48.484375 27.875 48.484375 
Q 21.1875 48.484375 17.84375 46.4375 
Q 14.5 44.390625 14.5 40.28125 
Q 14.5 37.15625 16.890625 35.375 
Q 19.28125 33.59375 26.515625 31.984375 
L 29.59375 31.296875 
Q 39.15625 29.25 43.1875 25.515625 
Q 47.21875 21.78125 47.21875 15.09375 
Q 47.21875 7.46875 41.1875 3.015625 
Q 35.15625 -1.421875 24.609375 -1.421875 
Q 20.21875 -1.421875 15.453125 -0.5625 
Q 10.6875 0.296875 5.421875 2 
L 5.421875 11.28125 
Q 10.40625 8.6875 15.234375 7.390625 
Q 20.0625 6.109375 24.8125 6.109375 
Q 31.15625 6.109375 34.5625 8.28125 
Q 37.984375 10.453125 37.984375 14.40625 
Q 37.984375 18.0625 35.515625 20.015625 
Q 33.0625 21.96875 24.703125 23.78125 
L 21.578125 24.515625 
Q 13.234375 26.265625 9.515625 29.90625 
Q 5.8125 33.546875 5.8125 39.890625 
Q 5.8125 47.609375 11.28125 51.796875 
Q 16.75 56 26.8125 56 
Q 31.78125 56 36.171875 55.265625 
Q 40.578125 54.546875 44.28125 53.078125 
z
" id="DejaVuSans-115"/>
     </defs>
     <g transform="translate(221.511562 335.860562)scale(0.1 -0.1)">
      <use xlink:href="#DejaVuSans-72"/>
      <use x="75.195312" xlink:href="#DejaVuSans-111"/>
      <use x="136.376953" xlink:href="#DejaVuSans-117"/>
      <use x="199.755859" xlink:href="#DejaVuSans-114"/>
      <use x="240.869141" xlink:href="#DejaVuSans-115"/>
     </g>
    </g>
   </g>
   <g id="matplotlib.axis_2">
    <g id="ytick_1">
     <g id="line2d_19">
      <path clip-path="url(#pff66b29303)" d="M 57.6 304.178253 
L 414.72 304.178253 
" style="fill:none;stroke:#b0b0b0;stroke-linecap:square;stroke-width:0.8;"/>
     </g>
     <g id="line2d_20">
      <defs>
       <path d="M 0 0 
L -3.5 0 
" id="m9dd99580ce" style="stroke:#000000;stroke-width:0.8;"/>
      </defs>
      <g>
       <use style="stroke:#000000;stroke-width:0.8;" x="57.6" xlink:href="#m9dd99580ce" y="304.178253"/>
      </g>
     </g>
     <g id="text_11">
      <!-- 150 -->
      <defs>
       <path d="M 10.796875 72.90625 
L 49.515625 72.90625 
L 49.515625 64.59375 
L 19.828125 64.59375 
L 19.828125 46.734375 
Q 21.96875 47.46875 24.109375 47.828125 
Q 26.265625 48.1875 28.421875 48.1875 
Q 40.625 48.1875 47.75 41.5 
Q 54.890625 34.8125 54.890625 23.390625 
Q 54.890625 11.625 47.5625 5.09375 
Q 40.234375 -1.421875 26.90625 -1.421875 
Q 22.3125 -1.421875 17.546875 -0.640625 
Q 12.796875 0.140625 7.71875 1.703125 
L 7.71875 11.625 
Q 12.109375 9.234375 16.796875 8.0625 
Q 21.484375 6.890625 26.703125 6.890625 
Q 35.15625 6.890625 40.078125 11.328125 
Q 45.015625 15.765625 45.015625 23.390625 
Q 45.015625 31 40.078125 35.4375 
Q 35.15625 39.890625 26.703125 39.890625 
Q 22.75 39.890625 18.8125 39.015625 
Q 14.890625 38.140625 10.796875 36.28125 
z
" id="DejaVuSans-53"/>
      </defs>
      <g transform="translate(31.5125 307.977472)scale(0.1 -0.1)">
       <use xlink:href="#DejaVuSans-49"/>
       <use x="63.623047" xlink:href="#DejaVuSans-53"/>
       <use x="127.246094" xlink:href="#DejaVuSans-48"/>
      </g>
     </g>
    </g>
    <g id="ytick_2">
     <g id="line2d_21">
      <path clip-path="url(#pff66b29303)" d="M 57.6 254.95725 
L 414.72 254.95725 
" style="fill:none;stroke:#b0b0b0;stroke-linecap:square;stroke-width:0.8;"/>
     </g>
     <g id="line2d_22">
      <g>
       <use style="stroke:#000000;stroke-width:0.8;" x="57.6" xlink:href="#m9dd99580ce" y="254.95725"/>
      </g>
     </g>
     <g id="text_12">
      <!-- 200 -->
      <g transform="translate(31.5125 258.756468)scale(0.1 -0.1)">
       <use xlink:href="#DejaVuSans-50"/>
       <use x="63.623047" xlink:href="#DejaVuSans-48"/>
       <use x="127.246094" xlink:href="#DejaVuSans-48"/>
      </g>
     </g>
    </g>
    <g id="ytick_3">
     <g id="line2d_23">
      <path clip-path="url(#pff66b29303)" d="M 57.6 205.736246 
L 414.72 205.736246 
" style="fill:none;stroke:#b0b0b0;stroke-linecap:square;stroke-width:0.8;"/>
     </g>
     <g id="line2d_24">
      <g>
       <use style="stroke:#000000;stroke-width:0.8;" x="57.6" xlink:href="#m9dd99580ce" y="205.736246"/>
      </g>
     </g>
     <g id="text_13">
      <!-- 250 -->
      <g transform="translate(31.5125 209.535465)scale(0.1 -0.1)">
       <use xlink:href="#DejaVuSans-50"/>
       <use x="63.623047" xlink:href="#DejaVuSans-53"/>
       <use x="127.246094" xlink:href="#DejaVuSans-48"/>
      </g>
     </g>
    </g>
    <g id="ytick_4">
     <g id="line2d_25">
      <path clip-path="url(#pff66b29303)" d="M 57.6 156.515243 
L 414.72 156.515243 
" style="fill:none;stroke:#b0b0b0;stroke-linecap:square;stroke-width:0.8;"/>
     </g>
     <g id="line2d_26">
      <g>
       <use style="stroke:#000000;stroke-width:0.8;" x="57.6" xlink:href="#m9dd99580ce" y="156.515243"/>
      </g>
     </g>
     <g id="text_14">
      <!-- 300 -->
      <defs>
       <path d="M 40.578125 39.3125 
Q 47.65625 37.796875 51.625 33 
Q 55.609375 28.21875 55.609375 21.1875 
Q 55.609375 10.40625 48.1875 4.484375 
Q 40.765625 -1.421875 27.09375 -1.421875 
Q 22.515625 -1.421875 17.65625 -0.515625 
Q 12.796875 0.390625 7.625 2.203125 
L 7.625 11.71875 
Q 11.71875 9.328125 16.59375 8.109375 
Q 21.484375 6.890625 26.8125 6.890625 
Q 36.078125 6.890625 40.9375 10.546875 
Q 45.796875 14.203125 45.796875 21.1875 
Q 45.796875 27.640625 41.28125 31.265625 
Q 36.765625 34.90625 28.71875 34.90625 
L 20.21875 34.90625 
L 20.21875 43.015625 
L 29.109375 43.015625 
Q 36.375 43.015625 40.234375 45.921875 
Q 44.09375 48.828125 44.09375 54.296875 
Q 44.09375 59.90625 40.109375 62.90625 
Q 36.140625 65.921875 28.71875 65.921875 
Q 24.65625 65.921875 20.015625 65.03125 
Q 15.375 64.15625 9.8125 62.3125 
L 9.8125 71.09375 
Q 15.4375 72.65625 20.34375 73.4375 
Q 25.25 74.21875 29.59375 74.21875 
Q 40.828125 74.21875 47.359375 69.109375 
Q 53.90625 64.015625 53.90625 55.328125 
Q 53.90625 49.265625 50.4375 45.09375 
Q 46.96875 40.921875 40.578125 39.3125 
z
" id="DejaVuSans-51"/>
      </defs>
      <g transform="translate(31.5125 160.314461)scale(0.1 -0.1)">
       <use xlink:href="#DejaVuSans-51"/>
       <use x="63.623047" xlink:href="#DejaVuSans-48"/>
       <use x="127.246094" xlink:href="#DejaVuSans-48"/>
      </g>
     </g>
    </g>
    <g id="ytick_5">
     <g id="line2d_27">
      <path clip-path="url(#pff66b29303)" d="M 57.6 107.294239 
L 414.72 107.294239 
" style="fill:none;stroke:#b0b0b0;stroke-linecap:square;stroke-width:0.8;"/>
     </g>
     <g id="line2d_28">
      <g>
       <use style="stroke:#000000;stroke-width:0.8;" x="57.6" xlink:href="#m9dd99580ce" y="107.294239"/>
      </g>
     </g>
     <g id="text_15">
      <!-- 350 -->
      <g transform="translate(31.5125 111.093458)scale(0.1 -0.1)">
       <use xlink:href="#DejaVuSans-51"/>
       <use x="63.623047" xlink:href="#DejaVuSans-53"/>
       <use x="127.246094" xlink:href="#DejaVuSans-48"/>
      </g>
     </g>
    </g>
    <g id="ytick_6">
     <g id="line2d_29">
      <path clip-path="url(#pff66b29303)" d="M 57.6 58.073236 
L 414.72 58.073236 
" style="fill:none;stroke:#b0b0b0;stroke-linecap:square;stroke-width:0.8;"/>
     </g>
     <g id="line2d_30">
      <g>
       <use style="stroke:#000000;stroke-width:0.8;" x="57.6" xlink:href="#m9dd99580ce" y="58.073236"/>
      </g>
     </g>
     <g id="text_16">
      <!-- 400 -->
      <g transform="translate(31.5125 61.872455)scale(0.1 -0.1)">
       <use xlink:href="#DejaVuSans-52"/>
       <use x="63.623047" xlink:href="#DejaVuSans-48"/>
       <use x="127.246094" xlink:href="#DejaVuSans-48"/>
      </g>
     </g>
    </g>
    <g id="text_17">
     <!-- FPS -->
     <defs>
      <path d="M 9.8125 72.90625 
L 51.703125 72.90625 
L 51.703125 64.59375 
L 19.671875 64.59375 
L 19.671875 43.109375 
L 48.578125 43.109375 
L 48.578125 34.8125 
L 19.671875 34.8125 
L 19.671875 0 
L 9.8125 0 
z
" id="DejaVuSans-70"/>
      <path d="M 19.671875 64.796875 
L 19.671875 37.40625 
L 32.078125 37.40625 
Q 38.96875 37.40625 42.71875 40.96875 
Q 46.484375 44.53125 46.484375 51.125 
Q 46.484375 57.671875 42.71875 61.234375 
Q 38.96875 64.796875 32.078125 64.796875 
z
M 9.8125 72.90625 
L 32.078125 72.90625 
Q 44.34375 72.90625 50.609375 67.359375 
Q 56.890625 61.8125 56.890625 51.125 
Q 56.890625 40.328125 50.609375 34.8125 
Q 44.34375 29.296875 32.078125 29.296875 
L 19.671875 29.296875 
L 19.671875 0 
L 9.8125 0 
z
" id="DejaVuSans-80"/>
      <path d="M 53.515625 70.515625 
L 53.515625 60.890625 
Q 47.90625 63.578125 42.921875 64.890625 
Q 37.9375 66.21875 33.296875 66.21875 
Q 25.25 66.21875 20.875 63.09375 
Q 16.5 59.96875 16.5 54.203125 
Q 16.5 49.359375 19.40625 46.890625 
Q 22.3125 44.4375 30.421875 42.921875 
L 36.375 41.703125 
Q 47.40625 39.59375 52.65625 34.296875 
Q 57.90625 29 57.90625 20.125 
Q 57.90625 9.515625 50.796875 4.046875 
Q 43.703125 -1.421875 29.984375 -1.421875 
Q 24.8125 -1.421875 18.96875 -0.25 
Q 13.140625 0.921875 6.890625 3.21875 
L 6.890625 13.375 
Q 12.890625 10.015625 18.65625 8.296875 
Q 24.421875 6.59375 29.984375 6.59375 
Q 38.421875 6.59375 43.015625 9.90625 
Q 47.609375 13.234375 47.609375 19.390625 
Q 47.609375 24.75 44.3125 27.78125 
Q 41.015625 30.8125 33.5 32.328125 
L 27.484375 33.5 
Q 16.453125 35.6875 11.515625 40.375 
Q 6.59375 45.0625 6.59375 53.421875 
Q 6.59375 63.09375 13.40625 68.65625 
Q 20.21875 74.21875 32.171875 74.21875 
Q 37.3125 74.21875 42.625 73.28125 
Q 47.953125 72.359375 53.515625 70.515625 
z
" id="DejaVuSans-83"/>
     </defs>
     <g transform="translate(25.432812 183.592844)rotate(-90)scale(0.1 -0.1)">
      <use xlink:href="#DejaVuSans-70"/>
      <use x="57.519531" xlink:href="#DejaVuSans-80"/>
      <use x="117.822266" xlink:href="#DejaVuSans-83"/>
     </g>
    </g>
   </g>
   <g id="line2d_31">
    <path clip-path="url(#pff66b29303)" d="M 57.6 293.231221 
L 57.838648 293.231221 
L 58.571835 293.432488 
L 59.50051 293.385533 
L 59.606319 293.543179 
L 61.453055 293.566056 
L 65.254269 293.588016 
L 66.425255 293.505566 
L 66.633925 293.598636 
L 68.214348 293.539814 
L 69.95561 293.669881 
L 74.388114 293.535127 
L 76.863732 293.613928 
L 77.694205 293.457063 
L 83.645866 293.35543 
L 85.235368 293.057998 
L 85.477217 293.074717 
L 86.417318 292.988301 
L 93.816398 293.484882 
L 94.805275 293.560618 
L 95.775889 293.629865 
L 96.310067 293.72244 
L 104.258979 294.056328 
L 107.92516 294.215161 
L 111.018805 294.237948 
L 118.405609 294.508101 
L 119.537529 294.490842 
L 125.492946 294.438013 
L 128.32423 294.528124 
L 131.277614 294.599595 
L 136.644452 294.636576 
L 137.860378 294.645048 
L 141.835374 294.745329 
L 152.465325 294.848929 
L 202.987818 294.944763 
L 223.267821 295.089086 
L 295.651474 295.158904 
L 295.938463 295.20287 
L 347.136095 295.28436 
L 348.20154 295.307612 
L 402.105186 295.400217 
L 402.814533 295.426459 
L 414.72 295.488 
L 414.72 295.488 
" style="fill:none;stroke:#000000;stroke-linecap:square;stroke-width:0.8;"/>
   </g>
   <g id="line2d_32">
    <path clip-path="url(#pff66b29303)" d="M 57.6 65.200878 
L 57.677998 65.200878 
L 58.008286 64.818352 
L 58.096721 65.413246 
L 58.411749 65.581602 
L 58.728766 64.919684 
L 58.81372 64.542325 
L 59.134874 64.423929 
L 59.861389 66.144261 
L 60.095083 65.733465 
L 60.423713 64.231209 
L 60.60082 64.438409 
L 60.76255 64.077423 
L 60.84769 63.434071 
L 61.026035 64.209969 
L 61.186667 63.562381 
L 61.525921 63.162851 
L 61.776864 64.006974 
L 61.864114 63.998142 
L 62.509258 64.81706 
L 62.591523 64.81706 
L 62.75839 65.156656 
L 63.000255 64.454692 
L 63.16059 64.604722 
L 63.241803 64.537999 
L 64.027899 61.497196 
L 64.345148 61.198247 
L 64.821515 61.277258 
L 65.490578 60.916482 
L 66.380559 61.214349 
L 66.628235 61.617334 
L 67.427906 59.219583 
L 67.747386 59.687459 
L 68.666242 60.204814 
L 68.83212 60.483064 
L 69.397497 59.410531 
L 69.817399 60.95091 
L 70.131564 59.785787 
L 70.389628 59.656155 
L 70.789631 59.353571 
L 70.891897 60.188231 
L 71.147515 61.240606 
L 71.643697 60.732204 
L 71.721472 60.093688 
L 71.871251 60.110362 
L 72.358354 60.421838 
L 72.770715 60.020596 
L 73.367564 59.21739 
L 74.031273 58.845799 
L 74.191077 58.66807 
L 74.50361 58.942505 
L 75.369268 57.385692 
L 75.527153 57.303497 
L 75.692385 57.409215 
L 75.850183 57.338616 
L 76.283014 57.450283 
L 76.53319 57.706662 
L 77.477993 56.677389 
L 78.313701 57.050843 
L 78.472232 57.402936 
L 78.622488 57.171642 
L 78.929934 55.818695 
L 79.294173 56.294773 
L 79.445734 56.069727 
L 79.866746 57.550743 
L 80.359323 57.457433 
L 81.024533 57.842723 
L 81.504399 57.979474 
L 81.902667 56.25713 
L 82.307442 55.77207 
L 83.029574 55.281332 
L 83.188059 55.349708 
L 83.265631 55.699428 
L 83.444493 55.699428 
L 84.339979 56.258782 
L 85.547918 55.324052 
L 86.03573 55.653884 
L 86.375203 55.338833 
L 86.544199 55.395041 
L 86.77783 55.340665 
L 87.125549 55.80809 
L 88.263302 55.520647 
L 88.755486 55.720397 
L 89.243148 55.712977 
L 91.154083 57.27012 
L 91.795124 57.204027 
L 91.955788 56.925777 
L 92.285449 56.789176 
L 93.183523 56.936532 
L 93.262839 56.395684 
L 93.505356 56.217685 
L 93.999284 56.406019 
L 95.051767 56.533638 
L 95.389808 55.825695 
L 95.870551 55.42265 
L 96.761349 55.873612 
L 97.414258 55.492258 
L 97.647986 54.945611 
L 98.937507 55.328378 
L 99.102291 55.328378 
L 99.336787 56.090516 
L 100.002674 56.191608 
L 100.491296 55.762817 
L 101.073571 55.840896 
L 101.243186 56.202183 
L 101.401391 56.202183 
L 101.978667 56.436121 
L 102.135826 56.445043 
L 102.620731 56.654016 
L 102.793261 55.861025 
L 103.621489 56.134198 
L 104.033826 55.877668 
L 104.295512 56.7424 
L 104.453949 56.7424 
L 104.621264 56.501492 
L 105.504125 56.468386 
L 105.600053 57.145926 
L 105.934919 57.074726 
L 106.33883 57.149952 
L 106.656422 57.526229 
L 107.140269 57.468698 
L 107.386107 57.794866 
L 107.727297 57.794866 
L 107.81872 58.317478 
L 108.217342 58.37555 
L 109.614053 58.576411 
L 109.770744 58.576411 
L 109.929931 57.93312 
L 110.831829 57.973106 
L 111.174859 58.295157 
L 111.423139 58.295157 
L 111.749273 58.591432 
L 112.070898 58.315526 
L 112.317596 58.315526 
L 112.549537 58.039409 
L 113.211387 58.12584 
L 113.453154 58.371764 
L 114.018689 58.735034 
L 114.440467 58.583651 
L 114.597577 58.583651 
L 114.988393 58.383361 
L 115.161856 58.550845 
L 115.473724 58.550845 
L 115.79484 58.288127 
L 116.127328 58.23282 
L 116.290077 58.427523 
L 116.774389 58.33298 
L 117.246282 57.810848 
L 117.576998 57.810848 
L 117.824963 58.129174 
L 118.56578 58.194666 
L 118.73916 58.509237 
L 118.912977 58.509237 
L 119.382399 58.82513 
L 119.711168 58.521134 
L 120.032378 58.738188 
L 120.130434 58.738188 
L 120.383674 59.57375 
L 120.887224 59.70978 
L 121.284542 59.945761 
L 121.459364 59.945761 
L 121.620547 59.785607 
L 121.867279 59.785607 
L 122.026413 60.143498 
L 122.350743 60.143498 
L 122.515528 59.953332 
L 122.680365 59.953332 
L 123.081562 59.813546 
L 123.236758 59.813546 
L 123.549203 59.48104 
L 123.798759 59.48104 
L 123.959388 59.299765 
L 125.582163 59.257706 
L 125.972713 58.884824 
L 127.599013 58.91087 
L 128.092137 58.764145 
L 128.179215 58.427042 
L 128.51994 58.427042 
L 129.196245 58.921115 
L 129.360999 58.921115 
L 129.872263 58.798513 
L 130.36329 58.809869 
L 130.674844 58.524469 
L 131.312755 58.050224 
L 131.473289 57.640539 
L 133.306931 57.636604 
L 133.544155 58.091892 
L 134.127718 58.097901 
L 134.369384 57.889949 
L 134.929315 57.889949 
L 135.091746 58.018289 
L 136.908224 58.112651 
L 137.086091 58.257755 
L 137.499804 58.257755 
L 137.583476 58.371164 
L 137.909442 58.371164 
L 138.560559 57.764433 
L 139.019408 57.764433 
L 139.311785 58.270372 
L 139.635589 58.270372 
L 139.88009 57.963973 
L 140.28097 57.963973 
L 141.078808 57.694405 
L 141.576866 57.694405 
L 141.743775 57.875138 
L 142.062806 57.875138 
L 142.498335 57.685572 
L 143.136575 58.328354 
L 143.550616 58.328354 
L 144.114055 58.069481 
L 144.755255 58.066476 
L 145.091192 57.759236 
L 145.417224 57.759236 
L 145.739311 57.33447 
L 146.442357 57.294424 
L 148.518801 56.843642 
L 148.998543 56.923704 
L 149.078746 56.680243 
L 150.077353 56.681445 
L 150.152397 56.418787 
L 151.212528 56.613309 
L 151.621655 56.611867 
L 152.049525 56.787764 
L 153.281506 57.126969 
L 153.674958 56.986823 
L 154.491268 57.030144 
L 154.6651 57.492342 
L 154.901013 57.492342 
L 155.075557 57.24167 
L 155.487273 57.24167 
L 155.64572 57.024105 
L 156.064849 57.024105 
L 156.223932 57.515324 
L 156.297523 57.515324 
L 157.766253 57.77645 
L 157.928712 57.941111 
L 158.720646 57.99735 
L 158.953235 57.773506 
L 159.836292 57.684851 
L 160.232852 57.624347 
L 160.308018 57.352616 
L 160.489417 57.352616 
L 160.90877 57.580215 
L 161.173034 57.580215 
L 161.73899 57.46263 
L 162.222514 57.182728 
L 162.793202 57.086352 
L 162.957996 57.086352 
L 163.280067 56.890207 
L 163.595017 56.890207 
L 164.070789 56.734619 
L 164.320101 56.231955 
L 164.488214 56.231955 
L 164.575143 56.382706 
L 165.472336 56.37829 
L 165.712752 56.8276 
L 166.279507 56.798489 
L 167.168458 57.161187 
L 167.334609 56.675707 
L 168.953402 56.601593 
L 169.672863 56.511106 
L 169.91537 56.184007 
L 170.165391 56.184007 
L 170.472062 56.296305 
L 170.700082 56.288404 
L 170.93336 55.690536 
L 172.53654 55.186789 
L 173.108755 55.314318 
L 173.587039 55.329099 
L 173.905541 55.683025 
L 174.06717 55.46573 
L 174.691538 55.424783 
L 175.173896 55.290645 
L 175.338037 55.394921 
L 175.737509 55.394921 
L 175.815402 55.107358 
L 176.648969 55.22308 
L 177.955532 55.226415 
L 178.686607 55.545372 
L 178.851086 55.545372 
L 179.517402 56.205337 
L 179.683069 56.294082 
L 179.964869 56.954978 
L 180.204262 56.954978 
L 180.361607 56.434138 
L 181.677935 56.311506 
L 182.403741 56.153364 
L 183.660175 56.316824 
L 183.744408 56.186831 
L 183.979524 56.186831 
L 185.115142 55.94358 
L 185.840105 55.167833 
L 186.168095 55.380892 
L 186.327184 55.234556 
L 186.656623 55.227647 
L 187.135909 55.630632 
L 187.527923 55.404955 
L 187.920628 55.227016 
L 188.011215 55.227016 
L 188.666282 55.705076 
L 188.827943 55.705076 
L 189.143743 55.55781 
L 189.223193 55.300589 
L 189.549881 55.300589 
L 189.793453 55.792799 
L 189.871785 55.792799 
L 190.201888 55.928379 
L 190.362908 55.535608 
L 190.618016 55.893771 
L 190.939348 55.893771 
L 191.01912 55.709642 
L 191.265868 55.95076 
L 191.779312 55.986511 
L 191.870132 56.396886 
L 192.123813 56.396886 
L 192.528852 56.245654 
L 192.607356 55.970859 
L 193.186272 56.323433 
L 193.448969 55.974764 
L 193.53003 56.262087 
L 193.782142 56.262087 
L 193.859459 55.987562 
L 194.033077 55.987562 
L 194.755829 56.537813 
L 195.161064 56.222341 
L 195.40628 56.210144 
L 195.571712 56.397577 
L 195.740387 56.552714 
L 195.975075 56.552714 
L 196.124049 56.418516 
L 196.607692 56.32133 
L 197.039326 56.712238 
L 197.270482 57.043392 
L 197.349996 57.043392 
L 197.677253 56.804617 
L 197.942947 56.804617 
L 198.104844 57.001213 
L 198.345216 57.001213 
L 198.496424 56.495124 
L 198.578549 56.495124 
L 198.667138 55.945894 
L 198.83777 55.945894 
L 199.502743 57.309475 
L 199.659801 57.309475 
L 200.212958 56.577439 
L 200.319864 56.576628 
L 201.182133 56.19293 
L 201.901115 56.17863 
L 202.633807 56.151292 
L 202.956891 55.991317 
L 203.124959 55.687441 
L 203.825398 55.858411 
L 204.376062 57.244644 
L 205.130672 57.404348 
L 205.615655 57.322243 
L 206.099266 57.366465 
L 206.432357 57.56979 
L 206.940898 57.998041 
L 207.366053 57.705971 
L 207.691094 57.780716 
L 207.77495 58.00501 
L 207.999717 58.00501 
L 208.319085 57.139587 
L 208.482136 56.678501 
L 208.806766 56.573023 
L 209.618027 56.404456 
L 210.165633 56.50711 
L 210.326866 55.976717 
L 210.41084 55.976717 
L 210.816376 56.569958 
L 211.488224 56.598709 
L 211.572388 56.288704 
L 212.326409 56.02178 
L 212.63957 56.149309 
L 213.124378 56.108151 
L 213.202159 55.809082 
L 213.599944 55.589384 
L 213.682782 55.589384 
L 214.016104 55.767984 
L 214.173878 56.012948 
L 214.588135 55.560273 
L 214.750759 55.560273 
L 214.986273 55.823382 
L 215.324151 55.736019 
L 215.707538 56.01475 
L 216.138963 57.151484 
L 216.37754 56.630854 
L 216.629034 56.630854 
L 216.708223 56.49957 
L 217.043047 56.459043 
L 217.627196 56.838205 
L 217.792378 56.838205 
L 217.950512 56.654227 
L 218.942715 56.868157 
L 220.876547 56.353685 
L 221.057075 56.735941 
L 221.53928 56.703616 
L 221.695101 56.37165 
L 222.780916 55.95067 
L 223.468825 56.009613 
L 223.712836 56.427018 
L 224.046855 56.235289 
L 225.275138 57.167376 
L 225.443881 57.167376 
L 225.855858 56.855779 
L 226.356703 57.216134 
L 226.437249 56.743902 
L 226.85156 56.838144 
L 227.004096 56.542891 
L 227.327784 56.339956 
L 227.654202 56.173012 
L 228.232449 56.47124 
L 228.809927 56.552324 
L 228.968835 57.037624 
L 229.042554 57.037624 
L 229.435876 56.586692 
L 229.67333 56.586692 
L 229.752435 56.42822 
L 230.008631 56.42822 
L 230.178281 56.250881 
L 230.338261 56.250881 
L 230.499391 55.991467 
L 230.803251 55.684737 
L 231.286587 55.875745 
L 231.699753 55.389994 
L 231.861571 55.389994 
L 231.939436 55.738242 
L 232.253656 55.738242 
L 232.52322 55.388702 
L 232.928134 55.446894 
L 233.19124 56.20026 
L 233.843581 56.517805 
L 234.16189 56.109323 
L 234.318836 56.109323 
L 234.483691 55.858982 
L 234.831428 56.531685 
L 235.395188 56.201913 
L 235.652595 56.596155 
L 235.96143 56.596155 
L 236.041133 56.282966 
L 236.203248 56.282966 
L 236.360242 55.944031 
L 237.35723 56.05056 
L 237.608906 55.581152 
L 237.84834 55.557359 
L 238.185786 55.390685 
L 238.768165 56.039835 
L 239.961132 54.235055 
L 240.116625 54.235055 
L 240.274796 54.091724 
L 240.947122 54.155143 
L 241.12373 54.390072 
L 241.526929 54.466409 
L 241.773899 54.729999 
L 242.269153 54.500898 
L 242.753183 54.799967 
L 243.065642 54.009379 
L 243.308983 53.837808 
L 243.899662 53.876743 
L 244.156116 53.979096 
L 244.741705 54.301659 
L 244.909489 54.301659 
L 245.488811 54.899346 
L 245.570711 54.899346 
L 246.486534 54.777195 
L 246.562803 54.942877 
L 246.896999 54.879489 
L 247.209975 54.650147 
L 247.530274 54.513335 
L 247.781886 54.191855 
L 247.941118 54.398334 
L 248.568547 53.568 
L 249.46928 54.020795 
L 249.730647 53.766038 
L 250.159747 54.098123 
L 250.405663 54.146521 
L 250.489091 53.816118 
L 251.313717 53.828135 
L 251.4744 54.304452 
L 251.63578 53.922437 
L 251.887043 54.333653 
L 252.286309 54.292496 
L 252.441269 55.041115 
L 253.117475 56.148197 
L 253.267817 56.148197 
L 253.42268 56.280022 
L 253.59731 56.280022 
L 254.00373 56.533517 
L 254.419616 57.343633 
L 254.737141 56.611507 
L 255.128188 57.230525 
L 255.778145 57.20559 
L 256.03181 56.881766 
L 256.207948 57.181796 
L 256.869996 56.402864 
L 257.210576 56.58558 
L 257.373928 56.99184 
L 257.454057 56.99184 
L 257.765948 57.124055 
L 258.003305 56.745795 
L 258.466044 57.131836 
L 258.621145 57.257172 
L 259.187063 56.616524 
L 259.508789 56.578971 
L 259.673191 57.261258 
L 259.843127 57.261258 
L 260.069396 56.850702 
L 260.150794 56.850702 
L 260.150794 56.850702 
" style="fill:none;stroke:#000000;stroke-dasharray:0.8,1.32;stroke-dashoffset:0;stroke-width:0.8;"/>
   </g>
   <g id="patch_3">
    <path d="M 57.6 307.584 
L 57.6 41.472 
" style="fill:none;stroke:#000000;stroke-linecap:square;stroke-linejoin:miter;stroke-width:0.8;"/>
   </g>
   <g id="patch_4">
    <path d="M 414.72 307.584 
L 414.72 41.472 
" style="fill:none;stroke:#000000;stroke-linecap:square;stroke-linejoin:miter;stroke-width:0.8;"/>
   </g>
   <g id="patch_5">
    <path d="M 57.6 307.584 
L 414.72 307.584 
" style="fill:none;stroke:#000000;stroke-linecap:square;stroke-linejoin:miter;stroke-width:0.8;"/>
   </g>
   <g id="patch_6">
    <path d="M 57.6 41.472 
L 414.72 41.472 
" style="fill:none;stroke:#000000;stroke-linecap:square;stroke-linejoin:miter;stroke-width:0.8;"/>
   </g>
   <g id="legend_1">
    <g id="patch_7">
     <path d="M 64.6 78.82825 
L 138.998437 78.82825 
Q 140.998437 78.82825 140.998437 76.82825 
L 140.998437 48.472 
Q 140.998437 46.472 138.998437 46.472 
L 64.6 46.472 
Q 62.6 46.472 62.6 48.472 
L 62.6 76.82825 
Q 62.6 78.82825 64.6 78.82825 
z
" style="fill:#ffffff;opacity:0.8;stroke:#cccccc;stroke-linejoin:miter;"/>
    </g>
    <g id="line2d_33">
     <path d="M 66.6 54.570437 
L 86.6 54.570437 
" style="fill:none;stroke:#000000;stroke-linecap:square;stroke-width:0.8;"/>
    </g>
    <g id="line2d_34"/>
    <g id="text_18">
     <!-- Baseline -->
     <defs>
      <path d="M 19.671875 34.8125 
L 19.671875 8.109375 
L 35.5 8.109375 
Q 43.453125 8.109375 47.28125 11.40625 
Q 51.125 14.703125 51.125 21.484375 
Q 51.125 28.328125 47.28125 31.5625 
Q 43.453125 34.8125 35.5 34.8125 
z
M 19.671875 64.796875 
L 19.671875 42.828125 
L 34.28125 42.828125 
Q 41.5 42.828125 45.03125 45.53125 
Q 48.578125 48.25 48.578125 53.8125 
Q 48.578125 59.328125 45.03125 62.0625 
Q 41.5 64.796875 34.28125 64.796875 
z
M 9.8125 72.90625 
L 35.015625 72.90625 
Q 46.296875 72.90625 52.390625 68.21875 
Q 58.5 63.53125 58.5 54.890625 
Q 58.5 48.1875 55.375 44.234375 
Q 52.25 40.28125 46.1875 39.3125 
Q 53.46875 37.75 57.5 32.78125 
Q 61.53125 27.828125 61.53125 20.40625 
Q 61.53125 10.640625 54.890625 5.3125 
Q 48.25 0 35.984375 0 
L 9.8125 0 
z
" id="DejaVuSans-66"/>
      <path d="M 34.28125 27.484375 
Q 23.390625 27.484375 19.1875 25 
Q 14.984375 22.515625 14.984375 16.5 
Q 14.984375 11.71875 18.140625 8.90625 
Q 21.296875 6.109375 26.703125 6.109375 
Q 34.1875 6.109375 38.703125 11.40625 
Q 43.21875 16.703125 43.21875 25.484375 
L 43.21875 27.484375 
z
M 52.203125 31.203125 
L 52.203125 0 
L 43.21875 0 
L 43.21875 8.296875 
Q 40.140625 3.328125 35.546875 0.953125 
Q 30.953125 -1.421875 24.3125 -1.421875 
Q 15.921875 -1.421875 10.953125 3.296875 
Q 6 8.015625 6 15.921875 
Q 6 25.140625 12.171875 29.828125 
Q 18.359375 34.515625 30.609375 34.515625 
L 43.21875 34.515625 
L 43.21875 35.40625 
Q 43.21875 41.609375 39.140625 45 
Q 35.0625 48.390625 27.6875 48.390625 
Q 23 48.390625 18.546875 47.265625 
Q 14.109375 46.140625 10.015625 43.890625 
L 10.015625 52.203125 
Q 14.9375 54.109375 19.578125 55.046875 
Q 24.21875 56 28.609375 56 
Q 40.484375 56 46.34375 49.84375 
Q 52.203125 43.703125 52.203125 31.203125 
z
" id="DejaVuSans-97"/>
      <path d="M 56.203125 29.59375 
L 56.203125 25.203125 
L 14.890625 25.203125 
Q 15.484375 15.921875 20.484375 11.0625 
Q 25.484375 6.203125 34.421875 6.203125 
Q 39.59375 6.203125 44.453125 7.46875 
Q 49.3125 8.734375 54.109375 11.28125 
L 54.109375 2.78125 
Q 49.265625 0.734375 44.1875 -0.34375 
Q 39.109375 -1.421875 33.890625 -1.421875 
Q 20.796875 -1.421875 13.15625 6.1875 
Q 5.515625 13.8125 5.515625 26.8125 
Q 5.515625 40.234375 12.765625 48.109375 
Q 20.015625 56 32.328125 56 
Q 43.359375 56 49.78125 48.890625 
Q 56.203125 41.796875 56.203125 29.59375 
z
M 47.21875 32.234375 
Q 47.125 39.59375 43.09375 43.984375 
Q 39.0625 48.390625 32.421875 48.390625 
Q 24.90625 48.390625 20.390625 44.140625 
Q 15.875 39.890625 15.1875 32.171875 
z
" id="DejaVuSans-101"/>
      <path d="M 9.421875 75.984375 
L 18.40625 75.984375 
L 18.40625 0 
L 9.421875 0 
z
" id="DejaVuSans-108"/>
      <path d="M 9.421875 54.6875 
L 18.40625 54.6875 
L 18.40625 0 
L 9.421875 0 
z
M 9.421875 75.984375 
L 18.40625 75.984375 
L 18.40625 64.59375 
L 9.421875 64.59375 
z
" id="DejaVuSans-105"/>
      <path d="M 54.890625 33.015625 
L 54.890625 0 
L 45.90625 0 
L 45.90625 32.71875 
Q 45.90625 40.484375 42.875 44.328125 
Q 39.84375 48.1875 33.796875 48.1875 
Q 26.515625 48.1875 22.3125 43.546875 
Q 18.109375 38.921875 18.109375 30.90625 
L 18.109375 0 
L 9.078125 0 
L 9.078125 54.6875 
L 18.109375 54.6875 
L 18.109375 46.1875 
Q 21.34375 51.125 25.703125 53.5625 
Q 30.078125 56 35.796875 56 
Q 45.21875 56 50.046875 50.171875 
Q 54.890625 44.34375 54.890625 33.015625 
z
" id="DejaVuSans-110"/>
     </defs>
     <g transform="translate(94.6 58.070437)scale(0.1 -0.1)">
      <use xlink:href="#DejaVuSans-66"/>
      <use x="68.603516" xlink:href="#DejaVuSans-97"/>
      <use x="129.882812" xlink:href="#DejaVuSans-115"/>
      <use x="181.982422" xlink:href="#DejaVuSans-101"/>
      <use x="243.505859" xlink:href="#DejaVuSans-108"/>
      <use x="271.289062" xlink:href="#DejaVuSans-105"/>
      <use x="299.072266" xlink:href="#DejaVuSans-110"/>
      <use x="362.451172" xlink:href="#DejaVuSans-101"/>
     </g>
    </g>
    <g id="line2d_35">
     <path d="M 66.6 69.248562 
L 86.6 69.248562 
" style="fill:none;stroke:#000000;stroke-dasharray:0.8,1.32;stroke-dashoffset:0;stroke-width:0.8;"/>
    </g>
    <g id="line2d_36"/>
    <g id="text_19">
     <!-- Parallel -->
     <g transform="translate(94.6 72.748562)scale(0.1 -0.1)">
      <use xlink:href="#DejaVuSans-80"/>
      <use x="60.240234" xlink:href="#DejaVuSans-97"/>
      <use x="121.519531" xlink:href="#DejaVuSans-114"/>
      <use x="162.632812" xlink:href="#DejaVuSans-97"/>
      <use x="223.912109" xlink:href="#DejaVuSans-108"/>
      <use x="251.695312" xlink:href="#DejaVuSans-108"/>
      <use x="279.478516" xlink:href="#DejaVuSans-101"/>
      <use x="341.001953" xlink:href="#DejaVuSans-108"/>
     </g>
    </g>
   </g>
  </g>
 </g>
 <defs>
  <clipPath id="pff66b29303">
   <rect height="266.112" width="357.12" x="57.6" y="41.472"/>
  </clipPath>
 </defs>
</svg>
