<?xml version="1.0" encoding="utf-8" standalone="no"?>
<!DOCTYPE svg PUBLIC "-//W3C//DTD SVG 1.1//EN"
  "http://www.w3.org/Graphics/SVG/1.1/DTD/svg11.dtd">
<!-- Created with matplotlib (https://matplotlib.org/) -->
<svg height="345.6pt" version="1.1" viewBox="0 0 460.8 345.6" width="460.8pt" xmlns="http://www.w3.org/2000/svg" xmlns:xlink="http://www.w3.org/1999/xlink">
 <defs>
  <style type="text/css">
*{stroke-linecap:butt;stroke-linejoin:round;}
  </style>
 </defs>
 <g id="figure_1">
  <g id="patch_1">
   <path d="M 0 345.6 
L 460.8 345.6 
L 460.8 0 
L 0 0 
z
" style="fill:#ffffff;"/>
  </g>
  <g id="axes_1">
   <g id="patch_2">
    <path d="M 57.6 307.584 
L 414.72 307.584 
L 414.72 41.472 
L 57.6 41.472 
z
" style="fill:#ffffff;"/>
   </g>
   <g id="matplotlib.axis_1">
    <g id="xtick_1">
     <g id="line2d_1">
      <path clip-path="url(#pa7eaa5400d)" d="M 57.6 307.584 
L 57.6 41.472 
" style="fill:none;stroke:#b0b0b0;stroke-linecap:square;stroke-width:0.8;"/>
     </g>
     <g id="line2d_2">
      <defs>
       <path d="M 0 0 
L 0 3.5 
" id="m20180cae70" style="stroke:#000000;stroke-width:0.8;"/>
      </defs>
      <g>
       <use style="stroke:#000000;stroke-width:0.8;" x="57.6" xlink:href="#m20180cae70" y="307.584"/>
      </g>
     </g>
     <g id="text_1">
      <!-- 0 -->
      <defs>
       <path d="M 31.78125 66.40625 
Q 24.171875 66.40625 20.328125 58.90625 
Q 16.5 51.421875 16.5 36.375 
Q 16.5 21.390625 20.328125 13.890625 
Q 24.171875 6.390625 31.78125 6.390625 
Q 39.453125 6.390625 43.28125 13.890625 
Q 47.125 21.390625 47.125 36.375 
Q 47.125 51.421875 43.28125 58.90625 
Q 39.453125 66.40625 31.78125 66.40625 
z
M 31.78125 74.21875 
Q 44.046875 74.21875 50.515625 64.515625 
Q 56.984375 54.828125 56.984375 36.375 
Q 56.984375 17.96875 50.515625 8.265625 
Q 44.046875 -1.421875 31.78125 -1.421875 
Q 19.53125 -1.421875 13.0625 8.265625 
Q 6.59375 17.96875 6.59375 36.375 
Q 6.59375 54.828125 13.0625 64.515625 
Q 19.53125 74.21875 31.78125 74.21875 
z
" id="DejaVuSans-48"/>
      </defs>
      <g transform="translate(54.41875 322.182437)scale(0.1 -0.1)">
       <use xlink:href="#DejaVuSans-48"/>
      </g>
     </g>
    </g>
    <g id="xtick_2">
     <g id="line2d_3">
      <path clip-path="url(#pa7eaa5400d)" d="M 102.648243 307.584 
L 102.648243 41.472 
" style="fill:none;stroke:#b0b0b0;stroke-linecap:square;stroke-width:0.8;"/>
     </g>
     <g id="line2d_4">
      <g>
       <use style="stroke:#000000;stroke-width:0.8;" x="102.648243" xlink:href="#m20180cae70" y="307.584"/>
      </g>
     </g>
     <g id="text_2">
      <!-- 2 -->
      <defs>
       <path d="M 19.1875 8.296875 
L 53.609375 8.296875 
L 53.609375 0 
L 7.328125 0 
L 7.328125 8.296875 
Q 12.9375 14.109375 22.625 23.890625 
Q 32.328125 33.6875 34.8125 36.53125 
Q 39.546875 41.84375 41.421875 45.53125 
Q 43.3125 49.21875 43.3125 52.78125 
Q 43.3125 58.59375 39.234375 62.25 
Q 35.15625 65.921875 28.609375 65.921875 
Q 23.96875 65.921875 18.8125 64.3125 
Q 13.671875 62.703125 7.8125 59.421875 
L 7.8125 69.390625 
Q 13.765625 71.78125 18.9375 73 
Q 24.125 74.21875 28.421875 74.21875 
Q 39.75 74.21875 46.484375 68.546875 
Q 53.21875 62.890625 53.21875 53.421875 
Q 53.21875 48.921875 51.53125 44.890625 
Q 49.859375 40.875 45.40625 35.40625 
Q 44.1875 33.984375 37.640625 27.21875 
Q 31.109375 20.453125 19.1875 8.296875 
z
" id="DejaVuSans-50"/>
      </defs>
      <g transform="translate(99.466993 322.182437)scale(0.1 -0.1)">
       <use xlink:href="#DejaVuSans-50"/>
      </g>
     </g>
    </g>
    <g id="xtick_3">
     <g id="line2d_5">
      <path clip-path="url(#pa7eaa5400d)" d="M 147.696485 307.584 
L 147.696485 41.472 
" style="fill:none;stroke:#b0b0b0;stroke-linecap:square;stroke-width:0.8;"/>
     </g>
     <g id="line2d_6">
      <g>
       <use style="stroke:#000000;stroke-width:0.8;" x="147.696485" xlink:href="#m20180cae70" y="307.584"/>
      </g>
     </g>
     <g id="text_3">
      <!-- 4 -->
      <defs>
       <path d="M 37.796875 64.3125 
L 12.890625 25.390625 
L 37.796875 25.390625 
z
M 35.203125 72.90625 
L 47.609375 72.90625 
L 47.609375 25.390625 
L 58.015625 25.390625 
L 58.015625 17.1875 
L 47.609375 17.1875 
L 47.609375 0 
L 37.796875 0 
L 37.796875 17.1875 
L 4.890625 17.1875 
L 4.890625 26.703125 
z
" id="DejaVuSans-52"/>
      </defs>
      <g transform="translate(144.515235 322.182437)scale(0.1 -0.1)">
       <use xlink:href="#DejaVuSans-52"/>
      </g>
     </g>
    </g>
    <g id="xtick_4">
     <g id="line2d_7">
      <path clip-path="url(#pa7eaa5400d)" d="M 192.744728 307.584 
L 192.744728 41.472 
" style="fill:none;stroke:#b0b0b0;stroke-linecap:square;stroke-width:0.8;"/>
     </g>
     <g id="line2d_8">
      <g>
       <use style="stroke:#000000;stroke-width:0.8;" x="192.744728" xlink:href="#m20180cae70" y="307.584"/>
      </g>
     </g>
     <g id="text_4">
      <!-- 6 -->
      <defs>
       <path d="M 33.015625 40.375 
Q 26.375 40.375 22.484375 35.828125 
Q 18.609375 31.296875 18.609375 23.390625 
Q 18.609375 15.53125 22.484375 10.953125 
Q 26.375 6.390625 33.015625 6.390625 
Q 39.65625 6.390625 43.53125 10.953125 
Q 47.40625 15.53125 47.40625 23.390625 
Q 47.40625 31.296875 43.53125 35.828125 
Q 39.65625 40.375 33.015625 40.375 
z
M 52.59375 71.296875 
L 52.59375 62.3125 
Q 48.875 64.0625 45.09375 64.984375 
Q 41.3125 65.921875 37.59375 65.921875 
Q 27.828125 65.921875 22.671875 59.328125 
Q 17.53125 52.734375 16.796875 39.40625 
Q 19.671875 43.65625 24.015625 45.921875 
Q 28.375 48.1875 33.59375 48.1875 
Q 44.578125 48.1875 50.953125 41.515625 
Q 57.328125 34.859375 57.328125 23.390625 
Q 57.328125 12.15625 50.6875 5.359375 
Q 44.046875 -1.421875 33.015625 -1.421875 
Q 20.359375 -1.421875 13.671875 8.265625 
Q 6.984375 17.96875 6.984375 36.375 
Q 6.984375 53.65625 15.1875 63.9375 
Q 23.390625 74.21875 37.203125 74.21875 
Q 40.921875 74.21875 44.703125 73.484375 
Q 48.484375 72.75 52.59375 71.296875 
z
" id="DejaVuSans-54"/>
      </defs>
      <g transform="translate(189.563478 322.182437)scale(0.1 -0.1)">
       <use xlink:href="#DejaVuSans-54"/>
      </g>
     </g>
    </g>
    <g id="xtick_5">
     <g id="line2d_9">
      <path clip-path="url(#pa7eaa5400d)" d="M 237.792971 307.584 
L 237.792971 41.472 
" style="fill:none;stroke:#b0b0b0;stroke-linecap:square;stroke-width:0.8;"/>
     </g>
     <g id="line2d_10">
      <g>
       <use style="stroke:#000000;stroke-width:0.8;" x="237.792971" xlink:href="#m20180cae70" y="307.584"/>
      </g>
     </g>
     <g id="text_5">
      <!-- 8 -->
      <defs>
       <path d="M 31.78125 34.625 
Q 24.75 34.625 20.71875 30.859375 
Q 16.703125 27.09375 16.703125 20.515625 
Q 16.703125 13.921875 20.71875 10.15625 
Q 24.75 6.390625 31.78125 6.390625 
Q 38.8125 6.390625 42.859375 10.171875 
Q 46.921875 13.96875 46.921875 20.515625 
Q 46.921875 27.09375 42.890625 30.859375 
Q 38.875 34.625 31.78125 34.625 
z
M 21.921875 38.8125 
Q 15.578125 40.375 12.03125 44.71875 
Q 8.5 49.078125 8.5 55.328125 
Q 8.5 64.0625 14.71875 69.140625 
Q 20.953125 74.21875 31.78125 74.21875 
Q 42.671875 74.21875 48.875 69.140625 
Q 55.078125 64.0625 55.078125 55.328125 
Q 55.078125 49.078125 51.53125 44.71875 
Q 48 40.375 41.703125 38.8125 
Q 48.828125 37.15625 52.796875 32.3125 
Q 56.78125 27.484375 56.78125 20.515625 
Q 56.78125 9.90625 50.3125 4.234375 
Q 43.84375 -1.421875 31.78125 -1.421875 
Q 19.734375 -1.421875 13.25 4.234375 
Q 6.78125 9.90625 6.78125 20.515625 
Q 6.78125 27.484375 10.78125 32.3125 
Q 14.796875 37.15625 21.921875 38.8125 
z
M 18.3125 54.390625 
Q 18.3125 48.734375 21.84375 45.5625 
Q 25.390625 42.390625 31.78125 42.390625 
Q 38.140625 42.390625 41.71875 45.5625 
Q 45.3125 48.734375 45.3125 54.390625 
Q 45.3125 60.0625 41.71875 63.234375 
Q 38.140625 66.40625 31.78125 66.40625 
Q 25.390625 66.40625 21.84375 63.234375 
Q 18.3125 60.0625 18.3125 54.390625 
z
" id="DejaVuSans-56"/>
      </defs>
      <g transform="translate(234.611721 322.182437)scale(0.1 -0.1)">
       <use xlink:href="#DejaVuSans-56"/>
      </g>
     </g>
    </g>
    <g id="xtick_6">
     <g id="line2d_11">
      <path clip-path="url(#pa7eaa5400d)" d="M 282.841214 307.584 
L 282.841214 41.472 
" style="fill:none;stroke:#b0b0b0;stroke-linecap:square;stroke-width:0.8;"/>
     </g>
     <g id="line2d_12">
      <g>
       <use style="stroke:#000000;stroke-width:0.8;" x="282.841214" xlink:href="#m20180cae70" y="307.584"/>
      </g>
     </g>
     <g id="text_6">
      <!-- 10 -->
      <defs>
       <path d="M 12.40625 8.296875 
L 28.515625 8.296875 
L 28.515625 63.921875 
L 10.984375 60.40625 
L 10.984375 69.390625 
L 28.421875 72.90625 
L 38.28125 72.90625 
L 38.28125 8.296875 
L 54.390625 8.296875 
L 54.390625 0 
L 12.40625 0 
z
" id="DejaVuSans-49"/>
      </defs>
      <g transform="translate(276.478714 322.182437)scale(0.1 -0.1)">
       <use xlink:href="#DejaVuSans-49"/>
       <use x="63.623047" xlink:href="#DejaVuSans-48"/>
      </g>
     </g>
    </g>
    <g id="xtick_7">
     <g id="line2d_13">
      <path clip-path="url(#pa7eaa5400d)" d="M 327.889456 307.584 
L 327.889456 41.472 
" style="fill:none;stroke:#b0b0b0;stroke-linecap:square;stroke-width:0.8;"/>
     </g>
     <g id="line2d_14">
      <g>
       <use style="stroke:#000000;stroke-width:0.8;" x="327.889456" xlink:href="#m20180cae70" y="307.584"/>
      </g>
     </g>
     <g id="text_7">
      <!-- 12 -->
      <g transform="translate(321.526956 322.182437)scale(0.1 -0.1)">
       <use xlink:href="#DejaVuSans-49"/>
       <use x="63.623047" xlink:href="#DejaVuSans-50"/>
      </g>
     </g>
    </g>
    <g id="xtick_8">
     <g id="line2d_15">
      <path clip-path="url(#pa7eaa5400d)" d="M 372.937699 307.584 
L 372.937699 41.472 
" style="fill:none;stroke:#b0b0b0;stroke-linecap:square;stroke-width:0.8;"/>
     </g>
     <g id="line2d_16">
      <g>
       <use style="stroke:#000000;stroke-width:0.8;" x="372.937699" xlink:href="#m20180cae70" y="307.584"/>
      </g>
     </g>
     <g id="text_8">
      <!-- 14 -->
      <g transform="translate(366.575199 322.182437)scale(0.1 -0.1)">
       <use xlink:href="#DejaVuSans-49"/>
       <use x="63.623047" xlink:href="#DejaVuSans-52"/>
      </g>
     </g>
    </g>
    <g id="text_9">
     <!-- Hours -->
     <defs>
      <path d="M 9.8125 72.90625 
L 19.671875 72.90625 
L 19.671875 43.015625 
L 55.515625 43.015625 
L 55.515625 72.90625 
L 65.375 72.90625 
L 65.375 0 
L 55.515625 0 
L 55.515625 34.71875 
L 19.671875 34.71875 
L 19.671875 0 
L 9.8125 0 
z
" id="DejaVuSans-72"/>
      <path d="M 30.609375 48.390625 
Q 23.390625 48.390625 19.1875 42.75 
Q 14.984375 37.109375 14.984375 27.296875 
Q 14.984375 17.484375 19.15625 11.84375 
Q 23.34375 6.203125 30.609375 6.203125 
Q 37.796875 6.203125 41.984375 11.859375 
Q 46.1875 17.53125 46.1875 27.296875 
Q 46.1875 37.015625 41.984375 42.703125 
Q 37.796875 48.390625 30.609375 48.390625 
z
M 30.609375 56 
Q 42.328125 56 49.015625 48.375 
Q 55.71875 40.765625 55.71875 27.296875 
Q 55.71875 13.875 49.015625 6.21875 
Q 42.328125 -1.421875 30.609375 -1.421875 
Q 18.84375 -1.421875 12.171875 6.21875 
Q 5.515625 13.875 5.515625 27.296875 
Q 5.515625 40.765625 12.171875 48.375 
Q 18.84375 56 30.609375 56 
z
" id="DejaVuSans-111"/>
      <path d="M 8.5 21.578125 
L 8.5 54.6875 
L 17.484375 54.6875 
L 17.484375 21.921875 
Q 17.484375 14.15625 20.5 10.265625 
Q 23.53125 6.390625 29.59375 6.390625 
Q 36.859375 6.390625 41.078125 11.03125 
Q 45.3125 15.671875 45.3125 23.6875 
L 45.3125 54.6875 
L 54.296875 54.6875 
L 54.296875 0 
L 45.3125 0 
L 45.3125 8.40625 
Q 42.046875 3.421875 37.71875 1 
Q 33.40625 -1.421875 27.6875 -1.421875 
Q 18.265625 -1.421875 13.375 4.4375 
Q 8.5 10.296875 8.5 21.578125 
z
M 31.109375 56 
z
" id="DejaVuSans-117"/>
      <path d="M 41.109375 46.296875 
Q 39.59375 47.171875 37.8125 47.578125 
Q 36.03125 48 33.890625 48 
Q 26.265625 48 22.1875 43.046875 
Q 18.109375 38.09375 18.109375 28.8125 
L 18.109375 0 
L 9.078125 0 
L 9.078125 54.6875 
L 18.109375 54.6875 
L 18.109375 46.1875 
Q 20.953125 51.171875 25.484375 53.578125 
Q 30.03125 56 36.53125 56 
Q 37.453125 56 38.578125 55.875 
Q 39.703125 55.765625 41.0625 55.515625 
z
" id="DejaVuSans-114"/>
      <path d="M 44.28125 53.078125 
L 44.28125 44.578125 
Q 40.484375 46.53125 36.375 47.5 
Q 32.28125 48.484375 27.875 48.484375 
Q 21.1875 48.484375 17.84375 46.4375 
Q 14.5 44.390625 14.5 40.28125 
Q 14.5 37.15625 16.890625 35.375 
Q 19.28125 33.59375 26.515625 31.984375 
L 29.59375 31.296875 
Q 39.15625 29.25 43.1875 25.515625 
Q 47.21875 21.78125 47.21875 15.09375 
Q 47.21875 7.46875 41.1875 3.015625 
Q 35.15625 -1.421875 24.609375 -1.421875 
Q 20.21875 -1.421875 15.453125 -0.5625 
Q 10.6875 0.296875 5.421875 2 
L 5.421875 11.28125 
Q 10.40625 8.6875 15.234375 7.390625 
Q 20.0625 6.109375 24.8125 6.109375 
Q 31.15625 6.109375 34.5625 8.28125 
Q 37.984375 10.453125 37.984375 14.40625 
Q 37.984375 18.0625 35.515625 20.015625 
Q 33.0625 21.96875 24.703125 23.78125 
L 21.578125 24.515625 
Q 13.234375 26.265625 9.515625 29.90625 
Q 5.8125 33.546875 5.8125 39.890625 
Q 5.8125 47.609375 11.28125 51.796875 
Q 16.75 56 26.8125 56 
Q 31.78125 56 36.171875 55.265625 
Q 40.578125 54.546875 44.28125 53.078125 
z
" id="DejaVuSans-115"/>
     </defs>
     <g transform="translate(221.511562 335.860562)scale(0.1 -0.1)">
      <use xlink:href="#DejaVuSans-72"/>
      <use x="75.195312" xlink:href="#DejaVuSans-111"/>
      <use x="136.376953" xlink:href="#DejaVuSans-117"/>
      <use x="199.755859" xlink:href="#DejaVuSans-114"/>
      <use x="240.869141" xlink:href="#DejaVuSans-115"/>
     </g>
    </g>
   </g>
   <g id="matplotlib.axis_2">
    <g id="ytick_1">
     <g id="line2d_17">
      <path clip-path="url(#pa7eaa5400d)" d="M 57.6 270.866284 
L 414.72 270.866284 
" style="fill:none;stroke:#b0b0b0;stroke-linecap:square;stroke-width:0.8;"/>
     </g>
     <g id="line2d_18">
      <defs>
       <path d="M 0 0 
L -3.5 0 
" id="mda80f4bf62" style="stroke:#000000;stroke-width:0.8;"/>
      </defs>
      <g>
       <use style="stroke:#000000;stroke-width:0.8;" x="57.6" xlink:href="#mda80f4bf62" y="270.866284"/>
      </g>
     </g>
     <g id="text_10">
      <!-- −0.9 -->
      <defs>
       <path d="M 10.59375 35.5 
L 73.1875 35.5 
L 73.1875 27.203125 
L 10.59375 27.203125 
z
" id="DejaVuSans-8722"/>
       <path d="M 10.6875 12.40625 
L 21 12.40625 
L 21 0 
L 10.6875 0 
z
" id="DejaVuSans-46"/>
       <path d="M 10.984375 1.515625 
L 10.984375 10.5 
Q 14.703125 8.734375 18.5 7.8125 
Q 22.3125 6.890625 25.984375 6.890625 
Q 35.75 6.890625 40.890625 13.453125 
Q 46.046875 20.015625 46.78125 33.40625 
Q 43.953125 29.203125 39.59375 26.953125 
Q 35.25 24.703125 29.984375 24.703125 
Q 19.046875 24.703125 12.671875 31.3125 
Q 6.296875 37.9375 6.296875 49.421875 
Q 6.296875 60.640625 12.9375 67.421875 
Q 19.578125 74.21875 30.609375 74.21875 
Q 43.265625 74.21875 49.921875 64.515625 
Q 56.59375 54.828125 56.59375 36.375 
Q 56.59375 19.140625 48.40625 8.859375 
Q 40.234375 -1.421875 26.421875 -1.421875 
Q 22.703125 -1.421875 18.890625 -0.6875 
Q 15.09375 0.046875 10.984375 1.515625 
z
M 30.609375 32.421875 
Q 37.25 32.421875 41.125 36.953125 
Q 45.015625 41.5 45.015625 49.421875 
Q 45.015625 57.28125 41.125 61.84375 
Q 37.25 66.40625 30.609375 66.40625 
Q 23.96875 66.40625 20.09375 61.84375 
Q 16.21875 57.28125 16.21875 49.421875 
Q 16.21875 41.5 20.09375 36.953125 
Q 23.96875 32.421875 30.609375 32.421875 
z
" id="DejaVuSans-57"/>
      </defs>
      <g transform="translate(26.317187 274.665503)scale(0.1 -0.1)">
       <use xlink:href="#DejaVuSans-8722"/>
       <use x="83.789062" xlink:href="#DejaVuSans-48"/>
       <use x="147.412109" xlink:href="#DejaVuSans-46"/>
       <use x="179.199219" xlink:href="#DejaVuSans-57"/>
      </g>
     </g>
    </g>
    <g id="ytick_2">
     <g id="line2d_19">
      <path clip-path="url(#pa7eaa5400d)" d="M 57.6 227.490688 
L 414.72 227.490688 
" style="fill:none;stroke:#b0b0b0;stroke-linecap:square;stroke-width:0.8;"/>
     </g>
     <g id="line2d_20">
      <g>
       <use style="stroke:#000000;stroke-width:0.8;" x="57.6" xlink:href="#mda80f4bf62" y="227.490688"/>
      </g>
     </g>
     <g id="text_11">
      <!-- −0.8 -->
      <g transform="translate(26.317187 231.289907)scale(0.1 -0.1)">
       <use xlink:href="#DejaVuSans-8722"/>
       <use x="83.789062" xlink:href="#DejaVuSans-48"/>
       <use x="147.412109" xlink:href="#DejaVuSans-46"/>
       <use x="179.199219" xlink:href="#DejaVuSans-56"/>
      </g>
     </g>
    </g>
    <g id="ytick_3">
     <g id="line2d_21">
      <path clip-path="url(#pa7eaa5400d)" d="M 57.6 184.115092 
L 414.72 184.115092 
" style="fill:none;stroke:#b0b0b0;stroke-linecap:square;stroke-width:0.8;"/>
     </g>
     <g id="line2d_22">
      <g>
       <use style="stroke:#000000;stroke-width:0.8;" x="57.6" xlink:href="#mda80f4bf62" y="184.115092"/>
      </g>
     </g>
     <g id="text_12">
      <!-- −0.7 -->
      <defs>
       <path d="M 8.203125 72.90625 
L 55.078125 72.90625 
L 55.078125 68.703125 
L 28.609375 0 
L 18.3125 0 
L 43.21875 64.59375 
L 8.203125 64.59375 
z
" id="DejaVuSans-55"/>
      </defs>
      <g transform="translate(26.317187 187.914311)scale(0.1 -0.1)">
       <use xlink:href="#DejaVuSans-8722"/>
       <use x="83.789062" xlink:href="#DejaVuSans-48"/>
       <use x="147.412109" xlink:href="#DejaVuSans-46"/>
       <use x="179.199219" xlink:href="#DejaVuSans-55"/>
      </g>
     </g>
    </g>
    <g id="ytick_4">
     <g id="line2d_23">
      <path clip-path="url(#pa7eaa5400d)" d="M 57.6 140.739496 
L 414.72 140.739496 
" style="fill:none;stroke:#b0b0b0;stroke-linecap:square;stroke-width:0.8;"/>
     </g>
     <g id="line2d_24">
      <g>
       <use style="stroke:#000000;stroke-width:0.8;" x="57.6" xlink:href="#mda80f4bf62" y="140.739496"/>
      </g>
     </g>
     <g id="text_13">
      <!-- −0.6 -->
      <g transform="translate(26.317187 144.538715)scale(0.1 -0.1)">
       <use xlink:href="#DejaVuSans-8722"/>
       <use x="83.789062" xlink:href="#DejaVuSans-48"/>
       <use x="147.412109" xlink:href="#DejaVuSans-46"/>
       <use x="179.199219" xlink:href="#DejaVuSans-54"/>
      </g>
     </g>
    </g>
    <g id="ytick_5">
     <g id="line2d_25">
      <path clip-path="url(#pa7eaa5400d)" d="M 57.6 97.3639 
L 414.72 97.3639 
" style="fill:none;stroke:#b0b0b0;stroke-linecap:square;stroke-width:0.8;"/>
     </g>
     <g id="line2d_26">
      <g>
       <use style="stroke:#000000;stroke-width:0.8;" x="57.6" xlink:href="#mda80f4bf62" y="97.3639"/>
      </g>
     </g>
     <g id="text_14">
      <!-- −0.5 -->
      <defs>
       <path d="M 10.796875 72.90625 
L 49.515625 72.90625 
L 49.515625 64.59375 
L 19.828125 64.59375 
L 19.828125 46.734375 
Q 21.96875 47.46875 24.109375 47.828125 
Q 26.265625 48.1875 28.421875 48.1875 
Q 40.625 48.1875 47.75 41.5 
Q 54.890625 34.8125 54.890625 23.390625 
Q 54.890625 11.625 47.5625 5.09375 
Q 40.234375 -1.421875 26.90625 -1.421875 
Q 22.3125 -1.421875 17.546875 -0.640625 
Q 12.796875 0.140625 7.71875 1.703125 
L 7.71875 11.625 
Q 12.109375 9.234375 16.796875 8.0625 
Q 21.484375 6.890625 26.703125 6.890625 
Q 35.15625 6.890625 40.078125 11.328125 
Q 45.015625 15.765625 45.015625 23.390625 
Q 45.015625 31 40.078125 35.4375 
Q 35.15625 39.890625 26.703125 39.890625 
Q 22.75 39.890625 18.8125 39.015625 
Q 14.890625 38.140625 10.796875 36.28125 
z
" id="DejaVuSans-53"/>
      </defs>
      <g transform="translate(26.317187 101.163119)scale(0.1 -0.1)">
       <use xlink:href="#DejaVuSans-8722"/>
       <use x="83.789062" xlink:href="#DejaVuSans-48"/>
       <use x="147.412109" xlink:href="#DejaVuSans-46"/>
       <use x="179.199219" xlink:href="#DejaVuSans-53"/>
      </g>
     </g>
    </g>
    <g id="ytick_6">
     <g id="line2d_27">
      <path clip-path="url(#pa7eaa5400d)" d="M 57.6 53.988304 
L 414.72 53.988304 
" style="fill:none;stroke:#b0b0b0;stroke-linecap:square;stroke-width:0.8;"/>
     </g>
     <g id="line2d_28">
      <g>
       <use style="stroke:#000000;stroke-width:0.8;" x="57.6" xlink:href="#mda80f4bf62" y="53.988304"/>
      </g>
     </g>
     <g id="text_15">
      <!-- −0.4 -->
      <g transform="translate(26.317187 57.787523)scale(0.1 -0.1)">
       <use xlink:href="#DejaVuSans-8722"/>
       <use x="83.789062" xlink:href="#DejaVuSans-48"/>
       <use x="147.412109" xlink:href="#DejaVuSans-46"/>
       <use x="179.199219" xlink:href="#DejaVuSans-52"/>
      </g>
     </g>
    </g>
    <g id="text_16">
     <!-- Mean reward -->
     <defs>
      <path d="M 9.8125 72.90625 
L 24.515625 72.90625 
L 43.109375 23.296875 
L 61.8125 72.90625 
L 76.515625 72.90625 
L 76.515625 0 
L 66.890625 0 
L 66.890625 64.015625 
L 48.09375 14.015625 
L 38.1875 14.015625 
L 19.390625 64.015625 
L 19.390625 0 
L 9.8125 0 
z
" id="DejaVuSans-77"/>
      <path d="M 56.203125 29.59375 
L 56.203125 25.203125 
L 14.890625 25.203125 
Q 15.484375 15.921875 20.484375 11.0625 
Q 25.484375 6.203125 34.421875 6.203125 
Q 39.59375 6.203125 44.453125 7.46875 
Q 49.3125 8.734375 54.109375 11.28125 
L 54.109375 2.78125 
Q 49.265625 0.734375 44.1875 -0.34375 
Q 39.109375 -1.421875 33.890625 -1.421875 
Q 20.796875 -1.421875 13.15625 6.1875 
Q 5.515625 13.8125 5.515625 26.8125 
Q 5.515625 40.234375 12.765625 48.109375 
Q 20.015625 56 32.328125 56 
Q 43.359375 56 49.78125 48.890625 
Q 56.203125 41.796875 56.203125 29.59375 
z
M 47.21875 32.234375 
Q 47.125 39.59375 43.09375 43.984375 
Q 39.0625 48.390625 32.421875 48.390625 
Q 24.90625 48.390625 20.390625 44.140625 
Q 15.875 39.890625 15.1875 32.171875 
z
" id="DejaVuSans-101"/>
      <path d="M 34.28125 27.484375 
Q 23.390625 27.484375 19.1875 25 
Q 14.984375 22.515625 14.984375 16.5 
Q 14.984375 11.71875 18.140625 8.90625 
Q 21.296875 6.109375 26.703125 6.109375 
Q 34.1875 6.109375 38.703125 11.40625 
Q 43.21875 16.703125 43.21875 25.484375 
L 43.21875 27.484375 
z
M 52.203125 31.203125 
L 52.203125 0 
L 43.21875 0 
L 43.21875 8.296875 
Q 40.140625 3.328125 35.546875 0.953125 
Q 30.953125 -1.421875 24.3125 -1.421875 
Q 15.921875 -1.421875 10.953125 3.296875 
Q 6 8.015625 6 15.921875 
Q 6 25.140625 12.171875 29.828125 
Q 18.359375 34.515625 30.609375 34.515625 
L 43.21875 34.515625 
L 43.21875 35.40625 
Q 43.21875 41.609375 39.140625 45 
Q 35.0625 48.390625 27.6875 48.390625 
Q 23 48.390625 18.546875 47.265625 
Q 14.109375 46.140625 10.015625 43.890625 
L 10.015625 52.203125 
Q 14.9375 54.109375 19.578125 55.046875 
Q 24.21875 56 28.609375 56 
Q 40.484375 56 46.34375 49.84375 
Q 52.203125 43.703125 52.203125 31.203125 
z
" id="DejaVuSans-97"/>
      <path d="M 54.890625 33.015625 
L 54.890625 0 
L 45.90625 0 
L 45.90625 32.71875 
Q 45.90625 40.484375 42.875 44.328125 
Q 39.84375 48.1875 33.796875 48.1875 
Q 26.515625 48.1875 22.3125 43.546875 
Q 18.109375 38.921875 18.109375 30.90625 
L 18.109375 0 
L 9.078125 0 
L 9.078125 54.6875 
L 18.109375 54.6875 
L 18.109375 46.1875 
Q 21.34375 51.125 25.703125 53.5625 
Q 30.078125 56 35.796875 56 
Q 45.21875 56 50.046875 50.171875 
Q 54.890625 44.34375 54.890625 33.015625 
z
" id="DejaVuSans-110"/>
      <path id="DejaVuSans-32"/>
      <path d="M 4.203125 54.6875 
L 13.1875 54.6875 
L 24.421875 12.015625 
L 35.59375 54.6875 
L 46.1875 54.6875 
L 57.421875 12.015625 
L 68.609375 54.6875 
L 77.59375 54.6875 
L 63.28125 0 
L 52.6875 0 
L 40.921875 44.828125 
L 29.109375 0 
L 18.5 0 
z
" id="DejaVuSans-119"/>
      <path d="M 45.40625 46.390625 
L 45.40625 75.984375 
L 54.390625 75.984375 
L 54.390625 0 
L 45.40625 0 
L 45.40625 8.203125 
Q 42.578125 3.328125 38.25 0.953125 
Q 33.9375 -1.421875 27.875 -1.421875 
Q 17.96875 -1.421875 11.734375 6.484375 
Q 5.515625 14.40625 5.515625 27.296875 
Q 5.515625 40.1875 11.734375 48.09375 
Q 17.96875 56 27.875 56 
Q 33.9375 56 38.25 53.625 
Q 42.578125 51.265625 45.40625 46.390625 
z
M 14.796875 27.296875 
Q 14.796875 17.390625 18.875 11.75 
Q 22.953125 6.109375 30.078125 6.109375 
Q 37.203125 6.109375 41.296875 11.75 
Q 45.40625 17.390625 45.40625 27.296875 
Q 45.40625 37.203125 41.296875 42.84375 
Q 37.203125 48.484375 30.078125 48.484375 
Q 22.953125 48.484375 18.875 42.84375 
Q 14.796875 37.203125 14.796875 27.296875 
z
" id="DejaVuSans-100"/>
     </defs>
     <g transform="translate(20.2375 207.253)rotate(-90)scale(0.1 -0.1)">
      <use xlink:href="#DejaVuSans-77"/>
      <use x="86.279297" xlink:href="#DejaVuSans-101"/>
      <use x="147.802734" xlink:href="#DejaVuSans-97"/>
      <use x="209.082031" xlink:href="#DejaVuSans-110"/>
      <use x="272.460938" xlink:href="#DejaVuSans-32"/>
      <use x="304.248047" xlink:href="#DejaVuSans-114"/>
      <use x="345.330078" xlink:href="#DejaVuSans-101"/>
      <use x="406.853516" xlink:href="#DejaVuSans-119"/>
      <use x="488.640625" xlink:href="#DejaVuSans-97"/>
      <use x="549.919922" xlink:href="#DejaVuSans-114"/>
      <use x="591.017578" xlink:href="#DejaVuSans-100"/>
     </g>
    </g>
   </g>
   <g id="line2d_29">
    <path clip-path="url(#pa7eaa5400d)" d="M 57.6 183.408966 
L 57.837422 164.43039 
L 58.042983 213.091303 
L 58.113202 144.352248 
L 58.128457 169.542191 
L 58.423537 155.640746 
L 58.541129 123.517209 
L 58.623943 180.175293 
L 58.70329 168.511578 
L 58.721818 149.452364 
L 58.85313 151.749092 
L 58.867892 170.033647 
L 59.025989 70.61113 
L 59.389872 153.301514 
L 59.569316 98.967072 
L 59.844376 201.79629 
L 60.086379 150.145506 
L 60.157976 158.786335 
L 60.367628 150.472558 
L 60.626053 144.783413 
L 60.70916 206.846507 
L 60.715474 193.943565 
L 60.974881 147.18728 
L 61.042639 189.124972 
L 61.249668 174.233272 
L 61.362588 180.143622 
L 61.544544 179.631793 
L 61.725223 85.312429 
L 61.967385 143.94929 
L 62.060244 143.237068 
L 62.082833 151.275424 
L 62.141808 135.081594 
L 62.514491 173.384826 
L 62.912253 172.077499 
L 63.03903 161.350289 
L 63.411512 92.478074 
L 63.524445 135.108921 
L 64.067816 112.214414 
L 64.069411 116.55197 
L 64.254772 204.859896 
L 64.387783 143.391467 
L 64.401586 149.027714 
L 64.596083 159.450417 
L 64.779263 102.631859 
L 65.084155 156.648375 
L 65.158177 128.756548 
L 65.307495 217.039783 
L 65.463129 108.154452 
L 65.671733 171.589094 
L 65.960006 178.734354 
L 65.97632 167.799795 
L 66.165767 161.77406 
L 66.487293 168.526341 
L 66.716663 108.130589 
L 66.77192 114.557551 
L 67.193735 154.875601 
L 67.218571 142.153971 
L 67.553747 159.964418 
L 67.783919 157.907562 
L 67.880542 157.930106 
L 68.026954 129.495245 
L 68.13367 159.729768 
L 68.147425 158.807613 
L 68.216438 143.693363 
L 68.349437 189.865841 
L 68.749709 140.052414 
L 68.912833 192.402002 
L 69.426072 137.448153 
L 69.477459 112.213535 
L 69.663184 168.014072 
L 69.684574 139.72363 
L 69.94299 159.533279 
L 70.1563 239.925603 
L 70.417657 187.943864 
L 70.485398 148.964372 
L 70.911052 133.371283 
L 71.042805 183.339548 
L 71.06665 179.181548 
L 71.123115 163.640063 
L 71.670273 142.340921 
L 71.761881 189.38046 
L 72.043019 125.705507 
L 72.375564 151.386026 
L 72.443328 134.703352 
L 72.684545 173.467688 
L 72.713085 146.312385 
L 72.935171 160.960775 
L 72.953991 155.771308 
L 73.132194 130.314605 
L 73.675777 160.959896 
L 73.882556 98.648682 
L 74.370636 161.366318 
L 74.767157 148.873728 
L 74.926575 155.61603 
L 74.94409 153.042561 
L 75.183754 146.006172 
L 75.452277 192.745109 
L 75.565213 171.953452 
L 76.265401 166.249106 
L 76.276691 166.911017 
L 76.495063 198.57738 
L 76.638338 184.421765 
L 76.72496 160.968143 
L 76.902801 177.107757 
L 77.235307 87.181043 
L 77.364543 124.161333 
L 77.536455 235.356423 
L 77.688339 156.964128 
L 77.855415 142.722627 
L 77.902883 153.366123 
L 78.465045 159.065686 
L 78.63696 96.597888 
L 78.650764 112.758328 
L 78.700981 135.356575 
L 78.910531 119.915739 
L 79.069902 165.007707 
L 79.472742 131.565545 
L 79.480342 134.359805 
L 79.871792 177.598334 
L 80.119032 164.940487 
L 80.851764 141.767068 
L 81.268344 155.419101 
L 81.373737 106.826287 
L 81.553186 145.211941 
L 81.689969 265.054376 
L 82.210674 155.578723 
L 82.387592 64.690361 
L 82.553225 175.662914 
L 82.593382 128.202654 
L 82.713845 126.509252 
L 82.973605 125.152906 
L 83.116663 105.034019 
L 83.476851 118.333405 
L 83.764203 191.25559 
L 84.182095 81.977706 
L 84.587805 162.635071 
L 84.608671 162.634192 
L 84.790673 161.117346 
L 84.843656 162.645051 
L 84.990195 184.106839 
L 85.336506 145.811415 
L 85.50755 155.067333 
L 85.655558 141.556695 
L 85.776938 184.966558 
L 86.130791 126.553953 
L 86.641827 101.801665 
L 87.203686 132.405304 
L 87.237506 128.202215 
L 87.493601 116.558899 
L 87.668233 179.878155 
L 87.798728 169.762544 
L 87.983159 140.456691 
L 88.309398 126.566079 
L 88.514015 172.29568 
L 88.600936 135.538768 
L 88.670854 140.813241 
L 88.975766 162.232526 
L 89.028462 154.575877 
L 89.293218 185.776379 
L 89.665898 126.213432 
L 89.839048 136.557643 
L 89.868216 134.177199 
L 89.931957 118.422756 
L 89.975821 125.692942 
L 90.59466 139.291172 
L 90.719894 147.220684 
L 91.175392 53.568 
L 91.27327 130.161059 
L 91.537068 138.037208 
L 91.767656 157.926642 
L 92.215651 122.729959 
L 92.433982 96.518944 
L 92.716237 102.886907 
L 92.819127 134.55283 
L 93.00239 138.803207 
L 93.490478 118.104805 
L 93.697505 161.219287 
L 93.726365 158.159146 
L 93.874606 160.058113 
L 94.119347 141.115551 
L 94.301213 188.210624 
L 94.550951 132.695488 
L 94.697767 148.126371 
L 94.883508 153.082894 
L 94.896115 160.173498 
L 95.027825 124.117976 
L 95.241437 204.476897 
L 95.42786 115.25894 
L 95.470874 136.453116 
L 95.500626 153.473261 
L 95.857019 227.388312 
L 95.981194 201.426295 
L 96.40901 147.104419 
L 96.533236 116.494264 
L 96.698866 179.198456 
L 96.858679 180.593867 
L 96.866999 175.809971 
L 96.873272 179.845191 
L 96.983732 199.150379 
L 97.022628 192.720806 
L 97.237195 196.828908 
L 97.561106 167.104042 
L 97.755604 162.314949 
L 97.816095 133.008656 
L 97.854734 192.746401 
L 97.868901 187.718728 
L 98.609666 130.690236 
L 98.703774 137.632492 
L 98.780706 162.49453 
L 98.833027 127.33686 
L 99.058939 148.580494 
L 99.597241 143.02323 
L 99.744278 126.824617 
L 99.908439 139.504157 
L 100.326282 193.803463 
L 100.347608 184.734494 
L 100.421677 152.344197 
L 100.489436 155.956086 
L 100.64252 205.089789 
L 100.802223 191.387884 
L 101.424317 92.668488 
L 101.464472 94.21093 
L 101.907412 164.586521 
L 102.152125 161.852578 
L 102.224902 168.019269 
L 102.271623 130.586149 
L 102.441973 140.120952 
L 102.547622 127.162062 
L 102.655296 85.318065 
L 103.087337 206.23664 
L 103.207499 126.106293 
L 103.39945 140.480114 
L 103.418622 130.662056 
L 103.711889 145.126934 
L 103.772176 182.609513 
L 103.917744 136.028905 
L 104.004327 151.565607 
L 104.17497 129.562465 
L 104.350644 142.462382 
L 104.397074 161.98919 
L 104.579081 129.339966 
L 104.689504 76.761365 
L 104.905333 116.994381 
L 105.240383 128.13758 
L 105.463737 211.348468 
L 105.531495 178.864476 
L 105.665768 185.270186 
L 105.948375 167.914302 
L 106.114946 130.105525 
L 106.137534 140.598525 
L 106.397262 132.813899 
L 106.593011 219.796737 
L 106.723559 175.240436 
L 107.35718 152.847365 
L 107.590554 205.072001 
L 108.005872 139.547539 
L 108.005874 143.885095 
L 108.217933 184.14849 
L 108.663378 156.925968 
L 108.86546 207.49151 
L 108.882963 195.888965 
L 108.923175 162.750871 
L 109.283249 181.104817 
L 109.457659 168.611348 
L 109.516645 203.636284 
L 109.5593 196.044683 
L 110.069058 150.225317 
L 110.203296 106.207319 
L 110.440139 189.996377 
L 110.622084 182.796048 
L 110.672275 190.27746 
L 110.753832 145.523403 
L 111.470363 152.005873 
L 111.519504 155.775652 
L 111.641393 149.652757 
L 111.677609 154.391539 
L 111.907522 230.105812 
L 112.024329 184.752721 
L 112.433403 120.911656 
L 112.585225 192.208098 
L 112.949125 131.772453 
L 113.14362 116.068322 
L 113.487444 155.062111 
L 113.502703 155.016996 
L 113.54637 138.237162 
L 113.683183 140.191223 
L 113.837526 200.089883 
L 113.969474 183.323054 
L 114.057312 209.678928 
L 114.140207 195.58619 
L 114.398618 177.927558 
L 114.418701 161.346385 
L 114.717327 104.646237 
L 114.946965 167.639295 
L 114.973624 162.721811 
L 115.707436 114.479472 
L 116.338602 212.026408 
L 116.425178 176.891748 
L 116.962199 142.921288 
L 117.193377 151.692705 
L 117.322325 184.645143 
L 117.346164 177.292121 
L 117.456857 133.176525 
L 117.471653 147.185548 
L 117.600907 124.246366 
L 117.624743 126.245542 
L 117.953505 227.087295 
L 118.020015 193.632129 
L 118.481796 183.088817 
L 118.727732 160.460218 
L 118.967762 118.627053 
L 119.193315 155.174472 
L 119.518981 165.572898 
L 119.535531 170.331639 
L 119.824203 186.373216 
L 120.062328 217.457478 
L 120.126325 137.766104 
L 120.327092 119.592152 
L 120.480181 168.312917 
L 120.545443 159.203616 
L 120.629867 118.49737 
L 120.928154 179.387577 
L 121.11763 142.05508 
L 121.34229 154.178555 
L 121.363568 132.545407 
L 121.405067 163.578479 
L 121.439164 169.346581 
L 121.542986 153.057298 
L 121.568086 156.56466 
L 121.639611 164.157554 
L 121.732474 138.865669 
L 122.012296 206.674295 
L 122.287164 126.552195 
L 122.808157 123.288196 
L 122.860565 151.132297 
L 122.983858 148.775251 
L 123.205704 140.770738 
L 123.279725 196.752562 
L 123.366287 185.314862 
L 123.786652 151.075909 
L 124.56246 182.68891 
L 124.719092 144.288493 
L 124.898584 218.591739 
L 125.115623 221.938187 
L 125.163604 189.677133 
L 125.207229 223.819366 
L 125.446912 146.227817 
L 125.68161 132.209255 
L 126.174849 80.812201 
L 126.201198 93.745935 
L 126.366833 110.09812 
L 126.637852 111.035452 
L 126.685541 75.848309 
L 126.871251 124.472355 
L 127.434896 124.098017 
L 127.526236 97.483629 
L 127.723256 151.054218 
L 128.471343 178.603352 
L 128.657056 173.36965 
L 128.749919 143.831319 
L 128.803936 148.178854 
L 129.106336 195.615276 
L 129.283267 174.610196 
L 129.381477 201.81537 
L 129.57811 160.006508 
L 130.154067 214.849314 
L 130.584445 186.783982 
L 130.681062 163.92549 
L 131.815549 185.416364 
L 131.974919 168.913244 
L 133.199669 186.245704 
L 133.715758 145.980991 
L 135.316567 185.859215 
L 135.570312 154.264441 
L 135.64406 161.824811 
L 136.174852 181.05192 
L 136.626816 220.367125 
L 136.691893 198.738294 
L 137.586492 125.952747 
L 137.976743 186.187145 
L 138.605433 209.163195 
L 139.303136 185.16434 
L 139.416387 189.702315 
L 140.088623 231.382347 
L 140.630706 231.211453 
L 140.938604 196.07245 
L 140.990049 172.35336 
L 143.255541 212.638007 
L 143.432537 211.047011 
L 143.711061 196.196936 
L 144.261999 197.746747 
L 144.434245 203.843193 
L 144.546866 227.72449 
L 145.031239 208.2111 
L 146.434876 167.472744 
L 147.40267 220.960497 
L 147.488933 219.452311 
L 148.249395 156.805825 
L 148.310942 163.814447 
L 148.342255 181.189851 
L 148.36616 168.924103 
L 148.618318 214.609003 
L 149.022742 173.233451 
L 150.356316 224.68211 
L 150.820694 252.173124 
L 150.968777 221.18951 
L 151.452109 197.642633 
L 151.625035 198.947374 
L 152.020312 191.692804 
L 152.371671 212.795457 
L 152.839729 211.601784 
L 153.080979 224.944966 
L 153.143764 179.963188 
L 154.89771 203.837117 
L 155.577777 193.914505 
L 155.614171 181.029789 
L 156.281896 190.303495 
L 156.397272 197.10738 
L 156.547865 217.922021 
L 156.919631 183.743799 
L 157.4413 193.698056 
L 158.011014 180.570883 
L 159.20443 264.076272 
L 160.812228 162.750871 
L 161.129448 223.592524 
L 162.515394 201.555125 
L 163.58465 208.98015 
L 163.869567 198.161856 
L 164.07411 220.423926 
L 164.396534 216.735276 
L 164.568515 226.54726 
L 165.025224 214.62679 
L 165.18464 193.321133 
L 165.578955 217.351633 
L 166.612068 242.637881 
L 166.64218 238.300326 
L 166.722618 247.32374 
L 167.209513 195.90502 
L 167.437893 212.135718 
L 167.923561 195.531122 
L 168.577048 257.201676 
L 170.16113 205.394735 
L 170.516027 236.35839 
L 171.007979 203.617204 
L 171.464926 258.504246 
L 171.540032 243.405198 
L 172.476621 226.084889 
L 173.352535 213.822605 
L 174.593464 206.139042 
L 174.652435 196.397769 
L 174.987471 219.01944 
L 175.767968 205.144444 
L 175.99024 217.723799 
L 176.62771 145.677802 
L 177.563267 174.966747 
L 177.755491 186.062219 
L 178.635047 157.386606 
L 178.951574 174.821448 
L 179.412493 181.973637 
L 179.655875 173.96478 
L 180.337482 271.362927 
L 180.920992 219.679619 
L 181.433662 268.66324 
L 182.691942 249.430494 
L 185.979982 228.934658 
L 186.273614 213.014077 
L 186.817242 242.217135 
L 186.978013 232.027763 
L 187.550215 247.843377 
L 187.852731 211.175815 
L 188.249136 247.983065 
L 188.466635 243.327998 
L 188.763959 232.896582 
L 188.781827 219.883916 
L 188.861832 225.464603 
L 188.944653 241.579941 
L 189.10277 248.862717 
L 189.189359 223.553045 
L 189.520667 235.862616 
L 190.276067 242.152061 
L 190.307441 238.295982 
L 190.583538 256.199684 
L 190.710384 230.793318 
L 190.860708 236.707572 
L 191.501005 226.441 
L 192.18423 243.417349 
L 192.281132 238.700673 
L 192.459146 244.416291 
L 194.368205 232.384753 
L 194.411149 230.821059 
L 195.238057 251.447458 
L 196.50463 226.236263 
L 197.328691 182.629472 
L 199.50566 229.153718 
L 199.668787 221.90998 
L 200.466263 216.141025 
L 200.959738 186.546281 
L 201.457909 219.241938 
L 203.819857 238.063065 
L 204.1347 193.440423 
L 204.875299 268.092412 
L 205.078935 276.616149 
L 205.544146 241.040345 
L 206.272179 245.504998 
L 206.855707 258.386249 
L 207.311205 261.459421 
L 207.947477 238.232666 
L 207.971319 251.245332 
L 209.166254 211.613496 
L 210.198563 202.27862 
L 210.418588 219.377283 
L 211.185831 199.889489 
L 211.753961 232.320558 
L 212.109052 225.11935 
L 213.083884 181.076637 
L 215.105453 206.60361 
L 215.434526 227.033933 
L 215.456797 209.683711 
L 215.521657 215.64264 
L 216.471815 250.713105 
L 216.807635 249.915435 
L 217.269404 247.541481 
L 217.275742 251.879062 
L 218.378881 259.172646 
L 218.761591 235.807961 
L 219.196279 245.714078 
L 219.398245 244.006378 
L 220.151026 190.494348 
L 220.261676 203.061113 
L 220.992488 238.012313 
L 221.238435 237.566412 
L 222.010399 195.983513 
L 222.648664 221.945116 
L 222.841056 214.342682 
L 223.293981 178.213838 
L 223.878761 231.882904 
L 224.10952 274.201423 
L 225.806205 234.241656 
L 225.860158 224.118676 
L 226.22402 221.596812 
L 226.315681 178.556944 
L 227.377221 250.167872 
L 227.736393 257.104517 
L 227.779061 232.861447 
L 227.834274 243.166618 
L 228.71393 215.536381 
L 228.931352 227.115916 
L 229.004668 221.035085 
L 230.093919 222.994369 
L 230.174217 225.745686 
L 230.309851 244.405872 
L 230.402939 222.786607 
L 231.130082 197.159424 
L 231.96677 228.382497 
L 232.623214 233.458749 
L 233.672152 220.017063 
L 233.803889 234.153623 
L 234.086491 233.565448 
L 234.274465 233.876004 
L 234.842115 226.593254 
L 235.674371 232.415985 
L 235.943907 220.210967 
L 237.359009 257.965089 
L 238.046317 225.37352 
L 238.056355 216.698409 
L 238.240798 196.371734 
L 238.430273 191.357945 
L 239.588196 245.380511 
L 239.618035 241.839772 
L 240.742458 216.822456 
L 241.073528 239.822808 
L 241.283152 235.148222 
L 241.752795 205.686651 
L 242.372663 211.795662 
L 243.188265 246.735564 
L 244.591898 248.799815 
L 244.839078 238.996053 
L 245.113885 218.478551 
L 245.437661 210.652275 
L 245.931556 234.509735 
L 246.031015 220.647329 
L 246.077449 232.838902 
L 246.589479 226.937214 
L 247.741437 220.178004 
L 248.206965 257.53956 
L 249.131048 201.269698 
L 249.394909 213.890265 
L 250.798169 269.208472 
L 250.97316 259.512728 
L 251.233224 279.928314 
L 251.291904 275.590758 
L 252.380835 232.073757 
L 252.478711 211.42696 
L 252.687001 242.823538 
L 254.331372 252.853262 
L 255.104796 262.818378 
L 258.028793 234.727915 
L 258.371728 259.039938 
L 258.963694 236.782186 
L 259.698605 237.79889 
L 260.072973 235.20329 
L 260.256205 216.229084 
L 260.267499 229.24175 
L 260.74434 228.05847 
L 260.974737 235.378967 
L 261.086818 248.39166 
L 261.264167 252.729215 
L 261.86283 245.280327 
L 262.840555 229.886313 
L 262.982422 218.637294 
L 264.539322 244.120032 
L 264.883215 271.103561 
L 265.771778 268.799438 
L 267.128402 274.132471 
L 267.258953 265.268652 
L 267.469768 272.255609 
L 267.919105 247.421778 
L 268.020751 248.084981 
L 268.966106 223.367415 
L 269.756432 211.783511 
L 270.296034 269.824415 
L 270.972628 261.811189 
L 271.134502 261.329298 
L 271.752004 267.96185 
L 272.430927 258.024941 
L 272.921568 240.627432 
L 273.134896 244.817931 
L 273.763696 236.2391 
L 274.249487 206.79012 
L 274.674898 213.754506 
L 275.629866 258.917598 
L 276.615764 245.790864 
L 277.28085 214.48886 
L 277.872821 240.357182 
L 278.372437 276.645648 
L 279.153241 259.32446 
L 279.501915 277.494947 
L 280.213751 265.758816 
L 281.263094 239.95337 
L 281.709532 276.534166 
L 284.53975 220.252178 
L 284.921238 203.325701 
L 285.964369 196.837595 
L 286.812262 206.498204 
L 287.009059 197.495163 
L 289.172471 242.173339 
L 289.565265 223.839325 
L 289.756003 236.114614 
L 290.182837 255.622806 
L 291.557909 251.23406 
L 292.55239 270.19353 
L 293.045063 234.780399 
L 293.587991 226.230627 
L 294.267328 239.136155 
L 294.630058 228.066278 
L 294.633763 219.61152 
L 295.379176 254.923149 
L 295.722369 231.622219 
L 295.936885 239.826273 
L 296.791903 251.503845 
L 297.509732 203.793295 
L 297.995352 241.59946 
L 298.390602 251.756722 
L 300.389633 251.371551 
L 300.459911 242.69644 
L 300.499116 251.371551 
L 301.603077 255.029848 
L 302.988377 256.851201 
L 303.597221 203.021634 
L 303.679801 218.554019 
L 304.057629 236.402626 
L 305.411352 271.273576 
L 305.619784 267.011074 
L 305.743264 253.998382 
L 306.198113 259.174404 
L 306.35998 251.090054 
L 306.897049 248.653197 
L 307.121649 279.073817 
L 307.271209 283.411373 
L 307.461954 283.450412 
L 307.973961 256.351937 
L 308.27884 267.633066 
L 308.766977 267.817404 
L 309.386861 253.277472 
L 310.220235 276.433103 
L 310.483825 264.657493 
L 311.182788 264.544279 
L 311.248021 251.489962 
L 313.031206 209.014846 
L 314.679297 232.97554 
L 315.484926 289.518212 
L 316.48036 274.253493 
L 317.621395 273.051107 
L 317.827449 279.789944 
L 317.892639 271.114833 
L 318.176473 270.187455 
L 321.213035 265.701989 
L 321.470059 238.202288 
L 321.747382 251.067484 
L 323.185416 230.790268 
L 325.776956 230.8306 
L 327.039513 256.222694 
L 327.04585 260.560249 
L 327.177587 266.622852 
L 327.583645 257.966821 
L 327.869392 255.117027 
L 328.213224 257.165662 
L 328.83339 256.646464 
L 329.392676 244.70906 
L 330.102174 254.567917 
L 331.003165 243.859761 
L 331.813777 227.907096 
L 333.511664 272.802134 
L 333.61325 268.464579 
L 334.612206 234.486311 
L 334.944678 233.976654 
L 335.485554 221.824094 
L 335.640164 223.277185 
L 336.64513 268.690128 
L 336.928717 266.938192 
L 337.081808 236.657674 
L 337.270042 222.377573 
L 337.761952 224.692968 
L 338.570556 274.320273 
L 340.060026 259.223397 
L 342.440978 193.028338 
L 342.469783 218.857207 
L 342.694707 199.768907 
L 343.029827 215.775814 
L 343.350795 250.992016 
L 343.53282 257.092806 
L 345.276167 265.20968 
L 345.849386 242.413185 
L 347.730614 253.608014 
L 348.023065 214.954695 
L 348.809961 228.791944 
L 349.689125 270.668052 
L 349.868569 259.672789 
L 350.64579 240.314678 
L 351.171821 244.859142 
L 352.076792 215.616192 
L 352.213482 218.015715 
L 352.415568 217.423636 
L 352.876045 187.956429 
L 352.901135 176.696552 
L 353.819691 217.838746 
L 354.324296 229.071295 
L 354.456088 203.716095 
L 354.490199 212.391206 
L 355.542092 274.414847 
L 356.340161 253.881703 
L 356.382824 249.544148 
L 357.512553 266.287993 
L 358.509471 235.814036 
L 359.006447 247.742753 
L 359.444911 225.139723 
L 360.652056 262.702552 
L 361.678538 246.782851 
L 364.775556 242.874702 
L 364.968649 221.582076 
L 365.046391 227.216565 
L 365.073998 222.481687 
L 365.370544 220.200548 
L 365.775589 267.738912 
L 365.921164 244.978871 
L 366.139595 240.519854 
L 366.521488 237.240653 
L 366.74853 224.602738 
L 367.699698 230.469731 
L 367.746126 234.807287 
L 369.193633 266.299265 
L 372.012735 290.119832 
L 372.478278 274.78267 
L 372.738734 258.037506 
L 373.447759 281.539708 
L 374.484408 242.319077 
L 374.696839 250.104117 
L 376.55621 255.556879 
L 376.746997 268.222095 
L 376.86239 267.944502 
L 377.393232 239.420703 
L 377.806408 229.197954 
L 378.270092 221.027303 
L 379.650814 238.655144 
L 379.829747 186.213594 
L 380.074491 207.162726 
L 380.977972 267.13207 
L 381.827696 279.220848 
L 383.299337 259.579948 
L 383.682162 277.967298 
L 384.674712 250.147499 
L 385.034732 222.628718 
L 385.26055 238.341097 
L 385.87387 234.862381 
L 386.7079 264.194683 
L 386.738336 247.279064 
L 386.849549 258.208426 
L 387.915164 289.670026 
L 388.757796 213.893729 
L 389.317577 216.97427 
L 389.644975 224.542447 
L 390.172149 243.580875 
L 390.565626 250.713105 
L 391.051571 225.459406 
L 391.833028 217.958888 
L 392.982152 277.278499 
L 393.268572 283.878966 
L 393.657582 267.235744 
L 395.013246 243.411713 
L 395.079704 252.086824 
L 395.336202 238.824306 
L 395.873199 258.886366 
L 396.271239 248.794618 
L 399.863414 250.357872 
L 400.367862 272.739232 
L 400.911358 254.47854 
L 401.031761 258.816121 
L 401.163516 241.877519 
L 401.294035 252.238638 
L 401.508918 231.687707 
L 402.285774 237.506534 
L 403.653965 268.80117 
L 403.717398 264.463615 
L 404.149935 271.896033 
L 404.429749 280.994476 
L 404.558179 263.807779 
L 405.766597 295.488 
L 405.927219 273.800197 
L 406.481872 267.084809 
L 408.389047 215.371976 
L 408.429208 219.709532 
L 408.597716 214.731757 
L 408.811033 202.602646 
L 408.839892 220.158924 
L 409.320768 275.195168 
L 409.763743 251.12475 
L 411.129608 233.840869 
L 411.196132 225.533142 
L 411.503563 268.263306 
L 412.564444 237.097526 
L 412.758244 242.435316 
L 413.018609 224.530735 
L 413.275427 248.805011 
L 414.087155 234.782984 
L 414.494136 231.379322 
L 414.72 215.910693 
L 414.72 215.910693 
" style="fill:none;stroke:#000000;stroke-linecap:square;stroke-width:0.8;"/>
   </g>
   <g id="patch_3">
    <path d="M 57.6 307.584 
L 57.6 41.472 
" style="fill:none;stroke:#000000;stroke-linecap:square;stroke-linejoin:miter;stroke-width:0.8;"/>
   </g>
   <g id="patch_4">
    <path d="M 414.72 307.584 
L 414.72 41.472 
" style="fill:none;stroke:#000000;stroke-linecap:square;stroke-linejoin:miter;stroke-width:0.8;"/>
   </g>
   <g id="patch_5">
    <path d="M 57.6 307.584 
L 414.72 307.584 
" style="fill:none;stroke:#000000;stroke-linecap:square;stroke-linejoin:miter;stroke-width:0.8;"/>
   </g>
   <g id="patch_6">
    <path d="M 57.6 41.472 
L 414.72 41.472 
" style="fill:none;stroke:#000000;stroke-linecap:square;stroke-linejoin:miter;stroke-width:0.8;"/>
   </g>
  </g>
  <g id="axes_2">
   <g id="matplotlib.axis_3">
    <g id="xtick_9">
     <g id="line2d_30">
      <defs>
       <path d="M 0 0 
L 0 -3.5 
" id="m8669b66f9e" style="stroke:#000000;stroke-width:0.8;"/>
      </defs>
      <g>
       <use style="stroke:#000000;stroke-width:0.8;" x="57.6" xlink:href="#m8669b66f9e" y="41.472"/>
      </g>
     </g>
    </g>
    <g id="xtick_10">
     <g id="line2d_31">
      <g>
       <use style="stroke:#000000;stroke-width:0.8;" x="98.378593" xlink:href="#m8669b66f9e" y="41.472"/>
      </g>
     </g>
     <g id="text_17">
      <!-- 250K -->
      <defs>
       <path d="M 9.8125 72.90625 
L 19.671875 72.90625 
L 19.671875 42.09375 
L 52.390625 72.90625 
L 65.09375 72.90625 
L 28.90625 38.921875 
L 67.671875 0 
L 54.6875 0 
L 19.671875 35.109375 
L 19.671875 0 
L 9.8125 0 
z
" id="DejaVuSans-75"/>
      </defs>
      <g transform="translate(85.555937 32.392313)scale(0.1 -0.1)">
       <use xlink:href="#DejaVuSans-50"/>
       <use x="63.623047" xlink:href="#DejaVuSans-53"/>
       <use x="127.246094" xlink:href="#DejaVuSans-48"/>
       <use x="190.869141" xlink:href="#DejaVuSans-75"/>
      </g>
     </g>
    </g>
    <g id="xtick_11">
     <g id="line2d_32">
      <g>
       <use style="stroke:#000000;stroke-width:0.8;" x="139.157187" xlink:href="#m8669b66f9e" y="41.472"/>
      </g>
     </g>
     <g id="text_18">
      <!-- 500K -->
      <g transform="translate(126.334531 32.392313)scale(0.1 -0.1)">
       <use xlink:href="#DejaVuSans-53"/>
       <use x="63.623047" xlink:href="#DejaVuSans-48"/>
       <use x="127.246094" xlink:href="#DejaVuSans-48"/>
       <use x="190.869141" xlink:href="#DejaVuSans-75"/>
      </g>
     </g>
    </g>
    <g id="xtick_12">
     <g id="line2d_33">
      <g>
       <use style="stroke:#000000;stroke-width:0.8;" x="179.93578" xlink:href="#m8669b66f9e" y="41.472"/>
      </g>
     </g>
     <g id="text_19">
      <!-- 750K -->
      <g transform="translate(167.113124 32.392313)scale(0.1 -0.1)">
       <use xlink:href="#DejaVuSans-55"/>
       <use x="63.623047" xlink:href="#DejaVuSans-53"/>
       <use x="127.246094" xlink:href="#DejaVuSans-48"/>
       <use x="190.869141" xlink:href="#DejaVuSans-75"/>
      </g>
     </g>
    </g>
    <g id="xtick_13">
     <g id="line2d_34">
      <g>
       <use style="stroke:#000000;stroke-width:0.8;" x="220.714374" xlink:href="#m8669b66f9e" y="41.472"/>
      </g>
     </g>
     <g id="text_20">
      <!-- 1,000K -->
      <defs>
       <path d="M 11.71875 12.40625 
L 22.015625 12.40625 
L 22.015625 4 
L 14.015625 -11.625 
L 7.71875 -11.625 
L 11.71875 4 
z
" id="DejaVuSans-44"/>
      </defs>
      <g transform="translate(203.121405 32.392313)scale(0.1 -0.1)">
       <use xlink:href="#DejaVuSans-49"/>
       <use x="63.623047" xlink:href="#DejaVuSans-44"/>
       <use x="95.410156" xlink:href="#DejaVuSans-48"/>
       <use x="159.033203" xlink:href="#DejaVuSans-48"/>
       <use x="222.65625" xlink:href="#DejaVuSans-48"/>
       <use x="286.279297" xlink:href="#DejaVuSans-75"/>
      </g>
     </g>
    </g>
    <g id="xtick_14">
     <g id="line2d_35">
      <g>
       <use style="stroke:#000000;stroke-width:0.8;" x="261.492967" xlink:href="#m8669b66f9e" y="41.472"/>
      </g>
     </g>
     <g id="text_21">
      <!-- 1.25M -->
      <g transform="translate(246.046092 32.392313)scale(0.1 -0.1)">
       <use xlink:href="#DejaVuSans-49"/>
       <use x="63.623047" xlink:href="#DejaVuSans-46"/>
       <use x="95.410156" xlink:href="#DejaVuSans-50"/>
       <use x="159.033203" xlink:href="#DejaVuSans-53"/>
       <use x="222.65625" xlink:href="#DejaVuSans-77"/>
      </g>
     </g>
    </g>
    <g id="xtick_15">
     <g id="line2d_36">
      <g>
       <use style="stroke:#000000;stroke-width:0.8;" x="302.271561" xlink:href="#m8669b66f9e" y="41.472"/>
      </g>
     </g>
     <g id="text_22">
      <!-- 1.50M -->
      <g transform="translate(286.824686 32.392313)scale(0.1 -0.1)">
       <use xlink:href="#DejaVuSans-49"/>
       <use x="63.623047" xlink:href="#DejaVuSans-46"/>
       <use x="95.410156" xlink:href="#DejaVuSans-53"/>
       <use x="159.033203" xlink:href="#DejaVuSans-48"/>
       <use x="222.65625" xlink:href="#DejaVuSans-77"/>
      </g>
     </g>
    </g>
    <g id="xtick_16">
     <g id="line2d_37">
      <g>
       <use style="stroke:#000000;stroke-width:0.8;" x="343.050154" xlink:href="#m8669b66f9e" y="41.472"/>
      </g>
     </g>
     <g id="text_23">
      <!-- 1.75M -->
      <g transform="translate(327.603279 32.392313)scale(0.1 -0.1)">
       <use xlink:href="#DejaVuSans-49"/>
       <use x="63.623047" xlink:href="#DejaVuSans-46"/>
       <use x="95.410156" xlink:href="#DejaVuSans-55"/>
       <use x="159.033203" xlink:href="#DejaVuSans-53"/>
       <use x="222.65625" xlink:href="#DejaVuSans-77"/>
      </g>
     </g>
    </g>
    <g id="xtick_17">
     <g id="line2d_38">
      <g>
       <use style="stroke:#000000;stroke-width:0.8;" x="383.828747" xlink:href="#m8669b66f9e" y="41.472"/>
      </g>
     </g>
     <g id="text_24">
      <!-- 2.00M -->
      <g transform="translate(368.381872 32.392313)scale(0.1 -0.1)">
       <use xlink:href="#DejaVuSans-50"/>
       <use x="63.623047" xlink:href="#DejaVuSans-46"/>
       <use x="95.410156" xlink:href="#DejaVuSans-48"/>
       <use x="159.033203" xlink:href="#DejaVuSans-48"/>
       <use x="222.65625" xlink:href="#DejaVuSans-77"/>
      </g>
     </g>
    </g>
    <g id="text_25">
     <!-- Steps -->
     <defs>
      <path d="M 53.515625 70.515625 
L 53.515625 60.890625 
Q 47.90625 63.578125 42.921875 64.890625 
Q 37.9375 66.21875 33.296875 66.21875 
Q 25.25 66.21875 20.875 63.09375 
Q 16.5 59.96875 16.5 54.203125 
Q 16.5 49.359375 19.40625 46.890625 
Q 22.3125 44.4375 30.421875 42.921875 
L 36.375 41.703125 
Q 47.40625 39.59375 52.65625 34.296875 
Q 57.90625 29 57.90625 20.125 
Q 57.90625 9.515625 50.796875 4.046875 
Q 43.703125 -1.421875 29.984375 -1.421875 
Q 24.8125 -1.421875 18.96875 -0.25 
Q 13.140625 0.921875 6.890625 3.21875 
L 6.890625 13.375 
Q 12.890625 10.015625 18.65625 8.296875 
Q 24.421875 6.59375 29.984375 6.59375 
Q 38.421875 6.59375 43.015625 9.90625 
Q 47.609375 13.234375 47.609375 19.390625 
Q 47.609375 24.75 44.3125 27.78125 
Q 41.015625 30.8125 33.5 32.328125 
L 27.484375 33.5 
Q 16.453125 35.6875 11.515625 40.375 
Q 6.59375 45.0625 6.59375 53.421875 
Q 6.59375 63.09375 13.40625 68.65625 
Q 20.21875 74.21875 32.171875 74.21875 
Q 37.3125 74.21875 42.625 73.28125 
Q 47.953125 72.359375 53.515625 70.515625 
z
" id="DejaVuSans-83"/>
      <path d="M 18.3125 70.21875 
L 18.3125 54.6875 
L 36.8125 54.6875 
L 36.8125 47.703125 
L 18.3125 47.703125 
L 18.3125 18.015625 
Q 18.3125 11.328125 20.140625 9.421875 
Q 21.96875 7.515625 27.59375 7.515625 
L 36.8125 7.515625 
L 36.8125 0 
L 27.59375 0 
Q 17.1875 0 13.234375 3.875 
Q 9.28125 7.765625 9.28125 18.015625 
L 9.28125 47.703125 
L 2.6875 47.703125 
L 2.6875 54.6875 
L 9.28125 54.6875 
L 9.28125 70.21875 
z
" id="DejaVuSans-116"/>
      <path d="M 18.109375 8.203125 
L 18.109375 -20.796875 
L 9.078125 -20.796875 
L 9.078125 54.6875 
L 18.109375 54.6875 
L 18.109375 46.390625 
Q 20.953125 51.265625 25.265625 53.625 
Q 29.59375 56 35.59375 56 
Q 45.5625 56 51.78125 48.09375 
Q 58.015625 40.1875 58.015625 27.296875 
Q 58.015625 14.40625 51.78125 6.484375 
Q 45.5625 -1.421875 35.59375 -1.421875 
Q 29.59375 -1.421875 25.265625 0.953125 
Q 20.953125 3.328125 18.109375 8.203125 
z
M 48.6875 27.296875 
Q 48.6875 37.203125 44.609375 42.84375 
Q 40.53125 48.484375 33.40625 48.484375 
Q 26.265625 48.484375 22.1875 42.84375 
Q 18.109375 37.203125 18.109375 27.296875 
Q 18.109375 17.390625 22.1875 11.75 
Q 26.265625 6.109375 33.40625 6.109375 
Q 40.53125 6.109375 44.609375 11.75 
Q 48.6875 17.390625 48.6875 27.296875 
z
" id="DejaVuSans-112"/>
     </defs>
     <g transform="translate(222.170156 20.793875)scale(0.1 -0.1)">
      <use xlink:href="#DejaVuSans-83"/>
      <use x="63.476562" xlink:href="#DejaVuSans-116"/>
      <use x="102.685547" xlink:href="#DejaVuSans-101"/>
      <use x="164.208984" xlink:href="#DejaVuSans-112"/>
      <use x="227.685547" xlink:href="#DejaVuSans-115"/>
     </g>
    </g>
   </g>
   <g id="patch_7">
    <path d="M 57.6 307.584 
L 57.6 41.472 
" style="fill:none;stroke:#000000;stroke-linecap:square;stroke-linejoin:miter;stroke-width:0.8;"/>
   </g>
   <g id="patch_8">
    <path d="M 414.72 307.584 
L 414.72 41.472 
" style="fill:none;stroke:#000000;stroke-linecap:square;stroke-linejoin:miter;stroke-width:0.8;"/>
   </g>
   <g id="patch_9">
    <path d="M 57.6 307.584 
L 414.72 307.584 
" style="fill:none;stroke:#000000;stroke-linecap:square;stroke-linejoin:miter;stroke-width:0.8;"/>
   </g>
   <g id="patch_10">
    <path d="M 57.6 41.472 
L 414.72 41.472 
" style="fill:none;stroke:#000000;stroke-linecap:square;stroke-linejoin:miter;stroke-width:0.8;"/>
   </g>
  </g>
 </g>
 <defs>
  <clipPath id="pa7eaa5400d">
   <rect height="266.112" width="357.12" x="57.6" y="41.472"/>
  </clipPath>
 </defs>
</svg>
