<?xml version="1.0" encoding="utf-8" standalone="no"?>
<!DOCTYPE svg PUBLIC "-//W3C//DTD SVG 1.1//EN"
  "http://www.w3.org/Graphics/SVG/1.1/DTD/svg11.dtd">
<!-- Created with matplotlib (https://matplotlib.org/) -->
<svg height="345.6pt" version="1.1" viewBox="0 0 460.8 345.6" width="460.8pt" xmlns="http://www.w3.org/2000/svg" xmlns:xlink="http://www.w3.org/1999/xlink">
 <defs>
  <style type="text/css">
*{stroke-linecap:butt;stroke-linejoin:round;}
  </style>
 </defs>
 <g id="figure_1">
  <g id="patch_1">
   <path d="M 0 345.6 
L 460.8 345.6 
L 460.8 0 
L 0 0 
z
" style="fill:#ffffff;"/>
  </g>
  <g id="axes_1">
   <g id="patch_2">
    <path d="M 57.6 307.584 
L 414.72 307.584 
L 414.72 41.472 
L 57.6 41.472 
z
" style="fill:#ffffff;"/>
   </g>
   <g id="matplotlib.axis_1">
    <g id="xtick_1">
     <g id="line2d_1">
      <path clip-path="url(#pf7963f5ed2)" d="M 57.6 307.584 
L 57.6 41.472 
" style="fill:none;stroke:#b0b0b0;stroke-linecap:square;stroke-width:0.8;"/>
     </g>
     <g id="line2d_2">
      <defs>
       <path d="M 0 0 
L 0 3.5 
" id="m9a346e4ff0" style="stroke:#000000;stroke-width:0.8;"/>
      </defs>
      <g>
       <use style="stroke:#000000;stroke-width:0.8;" x="57.6" xlink:href="#m9a346e4ff0" y="307.584"/>
      </g>
     </g>
     <g id="text_1">
      <!-- 0 -->
      <defs>
       <path d="M 31.78125 66.40625 
Q 24.171875 66.40625 20.328125 58.90625 
Q 16.5 51.421875 16.5 36.375 
Q 16.5 21.390625 20.328125 13.890625 
Q 24.171875 6.390625 31.78125 6.390625 
Q 39.453125 6.390625 43.28125 13.890625 
Q 47.125 21.390625 47.125 36.375 
Q 47.125 51.421875 43.28125 58.90625 
Q 39.453125 66.40625 31.78125 66.40625 
z
M 31.78125 74.21875 
Q 44.046875 74.21875 50.515625 64.515625 
Q 56.984375 54.828125 56.984375 36.375 
Q 56.984375 17.96875 50.515625 8.265625 
Q 44.046875 -1.421875 31.78125 -1.421875 
Q 19.53125 -1.421875 13.0625 8.265625 
Q 6.59375 17.96875 6.59375 36.375 
Q 6.59375 54.828125 13.0625 64.515625 
Q 19.53125 74.21875 31.78125 74.21875 
z
" id="DejaVuSans-48"/>
      </defs>
      <g transform="translate(54.41875 322.182437)scale(0.1 -0.1)">
       <use xlink:href="#DejaVuSans-48"/>
      </g>
     </g>
    </g>
    <g id="xtick_2">
     <g id="line2d_3">
      <path clip-path="url(#pf7963f5ed2)" d="M 102.655677 307.584 
L 102.655677 41.472 
" style="fill:none;stroke:#b0b0b0;stroke-linecap:square;stroke-width:0.8;"/>
     </g>
     <g id="line2d_4">
      <g>
       <use style="stroke:#000000;stroke-width:0.8;" x="102.655677" xlink:href="#m9a346e4ff0" y="307.584"/>
      </g>
     </g>
     <g id="text_2">
      <!-- 2 -->
      <defs>
       <path d="M 19.1875 8.296875 
L 53.609375 8.296875 
L 53.609375 0 
L 7.328125 0 
L 7.328125 8.296875 
Q 12.9375 14.109375 22.625 23.890625 
Q 32.328125 33.6875 34.8125 36.53125 
Q 39.546875 41.84375 41.421875 45.53125 
Q 43.3125 49.21875 43.3125 52.78125 
Q 43.3125 58.59375 39.234375 62.25 
Q 35.15625 65.921875 28.609375 65.921875 
Q 23.96875 65.921875 18.8125 64.3125 
Q 13.671875 62.703125 7.8125 59.421875 
L 7.8125 69.390625 
Q 13.765625 71.78125 18.9375 73 
Q 24.125 74.21875 28.421875 74.21875 
Q 39.75 74.21875 46.484375 68.546875 
Q 53.21875 62.890625 53.21875 53.421875 
Q 53.21875 48.921875 51.53125 44.890625 
Q 49.859375 40.875 45.40625 35.40625 
Q 44.1875 33.984375 37.640625 27.21875 
Q 31.109375 20.453125 19.1875 8.296875 
z
" id="DejaVuSans-50"/>
      </defs>
      <g transform="translate(99.474427 322.182437)scale(0.1 -0.1)">
       <use xlink:href="#DejaVuSans-50"/>
      </g>
     </g>
    </g>
    <g id="xtick_3">
     <g id="line2d_5">
      <path clip-path="url(#pf7963f5ed2)" d="M 147.711353 307.584 
L 147.711353 41.472 
" style="fill:none;stroke:#b0b0b0;stroke-linecap:square;stroke-width:0.8;"/>
     </g>
     <g id="line2d_6">
      <g>
       <use style="stroke:#000000;stroke-width:0.8;" x="147.711353" xlink:href="#m9a346e4ff0" y="307.584"/>
      </g>
     </g>
     <g id="text_3">
      <!-- 4 -->
      <defs>
       <path d="M 37.796875 64.3125 
L 12.890625 25.390625 
L 37.796875 25.390625 
z
M 35.203125 72.90625 
L 47.609375 72.90625 
L 47.609375 25.390625 
L 58.015625 25.390625 
L 58.015625 17.1875 
L 47.609375 17.1875 
L 47.609375 0 
L 37.796875 0 
L 37.796875 17.1875 
L 4.890625 17.1875 
L 4.890625 26.703125 
z
" id="DejaVuSans-52"/>
      </defs>
      <g transform="translate(144.530103 322.182437)scale(0.1 -0.1)">
       <use xlink:href="#DejaVuSans-52"/>
      </g>
     </g>
    </g>
    <g id="xtick_4">
     <g id="line2d_7">
      <path clip-path="url(#pf7963f5ed2)" d="M 192.76703 307.584 
L 192.76703 41.472 
" style="fill:none;stroke:#b0b0b0;stroke-linecap:square;stroke-width:0.8;"/>
     </g>
     <g id="line2d_8">
      <g>
       <use style="stroke:#000000;stroke-width:0.8;" x="192.76703" xlink:href="#m9a346e4ff0" y="307.584"/>
      </g>
     </g>
     <g id="text_4">
      <!-- 6 -->
      <defs>
       <path d="M 33.015625 40.375 
Q 26.375 40.375 22.484375 35.828125 
Q 18.609375 31.296875 18.609375 23.390625 
Q 18.609375 15.53125 22.484375 10.953125 
Q 26.375 6.390625 33.015625 6.390625 
Q 39.65625 6.390625 43.53125 10.953125 
Q 47.40625 15.53125 47.40625 23.390625 
Q 47.40625 31.296875 43.53125 35.828125 
Q 39.65625 40.375 33.015625 40.375 
z
M 52.59375 71.296875 
L 52.59375 62.3125 
Q 48.875 64.0625 45.09375 64.984375 
Q 41.3125 65.921875 37.59375 65.921875 
Q 27.828125 65.921875 22.671875 59.328125 
Q 17.53125 52.734375 16.796875 39.40625 
Q 19.671875 43.65625 24.015625 45.921875 
Q 28.375 48.1875 33.59375 48.1875 
Q 44.578125 48.1875 50.953125 41.515625 
Q 57.328125 34.859375 57.328125 23.390625 
Q 57.328125 12.15625 50.6875 5.359375 
Q 44.046875 -1.421875 33.015625 -1.421875 
Q 20.359375 -1.421875 13.671875 8.265625 
Q 6.984375 17.96875 6.984375 36.375 
Q 6.984375 53.65625 15.1875 63.9375 
Q 23.390625 74.21875 37.203125 74.21875 
Q 40.921875 74.21875 44.703125 73.484375 
Q 48.484375 72.75 52.59375 71.296875 
z
" id="DejaVuSans-54"/>
      </defs>
      <g transform="translate(189.58578 322.182437)scale(0.1 -0.1)">
       <use xlink:href="#DejaVuSans-54"/>
      </g>
     </g>
    </g>
    <g id="xtick_5">
     <g id="line2d_9">
      <path clip-path="url(#pf7963f5ed2)" d="M 237.822707 307.584 
L 237.822707 41.472 
" style="fill:none;stroke:#b0b0b0;stroke-linecap:square;stroke-width:0.8;"/>
     </g>
     <g id="line2d_10">
      <g>
       <use style="stroke:#000000;stroke-width:0.8;" x="237.822707" xlink:href="#m9a346e4ff0" y="307.584"/>
      </g>
     </g>
     <g id="text_5">
      <!-- 8 -->
      <defs>
       <path d="M 31.78125 34.625 
Q 24.75 34.625 20.71875 30.859375 
Q 16.703125 27.09375 16.703125 20.515625 
Q 16.703125 13.921875 20.71875 10.15625 
Q 24.75 6.390625 31.78125 6.390625 
Q 38.8125 6.390625 42.859375 10.171875 
Q 46.921875 13.96875 46.921875 20.515625 
Q 46.921875 27.09375 42.890625 30.859375 
Q 38.875 34.625 31.78125 34.625 
z
M 21.921875 38.8125 
Q 15.578125 40.375 12.03125 44.71875 
Q 8.5 49.078125 8.5 55.328125 
Q 8.5 64.0625 14.71875 69.140625 
Q 20.953125 74.21875 31.78125 74.21875 
Q 42.671875 74.21875 48.875 69.140625 
Q 55.078125 64.0625 55.078125 55.328125 
Q 55.078125 49.078125 51.53125 44.71875 
Q 48 40.375 41.703125 38.8125 
Q 48.828125 37.15625 52.796875 32.3125 
Q 56.78125 27.484375 56.78125 20.515625 
Q 56.78125 9.90625 50.3125 4.234375 
Q 43.84375 -1.421875 31.78125 -1.421875 
Q 19.734375 -1.421875 13.25 4.234375 
Q 6.78125 9.90625 6.78125 20.515625 
Q 6.78125 27.484375 10.78125 32.3125 
Q 14.796875 37.15625 21.921875 38.8125 
z
M 18.3125 54.390625 
Q 18.3125 48.734375 21.84375 45.5625 
Q 25.390625 42.390625 31.78125 42.390625 
Q 38.140625 42.390625 41.71875 45.5625 
Q 45.3125 48.734375 45.3125 54.390625 
Q 45.3125 60.0625 41.71875 63.234375 
Q 38.140625 66.40625 31.78125 66.40625 
Q 25.390625 66.40625 21.84375 63.234375 
Q 18.3125 60.0625 18.3125 54.390625 
z
" id="DejaVuSans-56"/>
      </defs>
      <g transform="translate(234.641457 322.182437)scale(0.1 -0.1)">
       <use xlink:href="#DejaVuSans-56"/>
      </g>
     </g>
    </g>
    <g id="xtick_6">
     <g id="line2d_11">
      <path clip-path="url(#pf7963f5ed2)" d="M 282.878384 307.584 
L 282.878384 41.472 
" style="fill:none;stroke:#b0b0b0;stroke-linecap:square;stroke-width:0.8;"/>
     </g>
     <g id="line2d_12">
      <g>
       <use style="stroke:#000000;stroke-width:0.8;" x="282.878384" xlink:href="#m9a346e4ff0" y="307.584"/>
      </g>
     </g>
     <g id="text_6">
      <!-- 10 -->
      <defs>
       <path d="M 12.40625 8.296875 
L 28.515625 8.296875 
L 28.515625 63.921875 
L 10.984375 60.40625 
L 10.984375 69.390625 
L 28.421875 72.90625 
L 38.28125 72.90625 
L 38.28125 8.296875 
L 54.390625 8.296875 
L 54.390625 0 
L 12.40625 0 
z
" id="DejaVuSans-49"/>
      </defs>
      <g transform="translate(276.515884 322.182437)scale(0.1 -0.1)">
       <use xlink:href="#DejaVuSans-49"/>
       <use x="63.623047" xlink:href="#DejaVuSans-48"/>
      </g>
     </g>
    </g>
    <g id="xtick_7">
     <g id="line2d_13">
      <path clip-path="url(#pf7963f5ed2)" d="M 327.93406 307.584 
L 327.93406 41.472 
" style="fill:none;stroke:#b0b0b0;stroke-linecap:square;stroke-width:0.8;"/>
     </g>
     <g id="line2d_14">
      <g>
       <use style="stroke:#000000;stroke-width:0.8;" x="327.93406" xlink:href="#m9a346e4ff0" y="307.584"/>
      </g>
     </g>
     <g id="text_7">
      <!-- 12 -->
      <g transform="translate(321.57156 322.182437)scale(0.1 -0.1)">
       <use xlink:href="#DejaVuSans-49"/>
       <use x="63.623047" xlink:href="#DejaVuSans-50"/>
      </g>
     </g>
    </g>
    <g id="xtick_8">
     <g id="line2d_15">
      <path clip-path="url(#pf7963f5ed2)" d="M 372.989737 307.584 
L 372.989737 41.472 
" style="fill:none;stroke:#b0b0b0;stroke-linecap:square;stroke-width:0.8;"/>
     </g>
     <g id="line2d_16">
      <g>
       <use style="stroke:#000000;stroke-width:0.8;" x="372.989737" xlink:href="#m9a346e4ff0" y="307.584"/>
      </g>
     </g>
     <g id="text_8">
      <!-- 14 -->
      <g transform="translate(366.627237 322.182437)scale(0.1 -0.1)">
       <use xlink:href="#DejaVuSans-49"/>
       <use x="63.623047" xlink:href="#DejaVuSans-52"/>
      </g>
     </g>
    </g>
    <g id="text_9">
     <!-- Hours -->
     <defs>
      <path d="M 9.8125 72.90625 
L 19.671875 72.90625 
L 19.671875 43.015625 
L 55.515625 43.015625 
L 55.515625 72.90625 
L 65.375 72.90625 
L 65.375 0 
L 55.515625 0 
L 55.515625 34.71875 
L 19.671875 34.71875 
L 19.671875 0 
L 9.8125 0 
z
" id="DejaVuSans-72"/>
      <path d="M 30.609375 48.390625 
Q 23.390625 48.390625 19.1875 42.75 
Q 14.984375 37.109375 14.984375 27.296875 
Q 14.984375 17.484375 19.15625 11.84375 
Q 23.34375 6.203125 30.609375 6.203125 
Q 37.796875 6.203125 41.984375 11.859375 
Q 46.1875 17.53125 46.1875 27.296875 
Q 46.1875 37.015625 41.984375 42.703125 
Q 37.796875 48.390625 30.609375 48.390625 
z
M 30.609375 56 
Q 42.328125 56 49.015625 48.375 
Q 55.71875 40.765625 55.71875 27.296875 
Q 55.71875 13.875 49.015625 6.21875 
Q 42.328125 -1.421875 30.609375 -1.421875 
Q 18.84375 -1.421875 12.171875 6.21875 
Q 5.515625 13.875 5.515625 27.296875 
Q 5.515625 40.765625 12.171875 48.375 
Q 18.84375 56 30.609375 56 
z
" id="DejaVuSans-111"/>
      <path d="M 8.5 21.578125 
L 8.5 54.6875 
L 17.484375 54.6875 
L 17.484375 21.921875 
Q 17.484375 14.15625 20.5 10.265625 
Q 23.53125 6.390625 29.59375 6.390625 
Q 36.859375 6.390625 41.078125 11.03125 
Q 45.3125 15.671875 45.3125 23.6875 
L 45.3125 54.6875 
L 54.296875 54.6875 
L 54.296875 0 
L 45.3125 0 
L 45.3125 8.40625 
Q 42.046875 3.421875 37.71875 1 
Q 33.40625 -1.421875 27.6875 -1.421875 
Q 18.265625 -1.421875 13.375 4.4375 
Q 8.5 10.296875 8.5 21.578125 
z
M 31.109375 56 
z
" id="DejaVuSans-117"/>
      <path d="M 41.109375 46.296875 
Q 39.59375 47.171875 37.8125 47.578125 
Q 36.03125 48 33.890625 48 
Q 26.265625 48 22.1875 43.046875 
Q 18.109375 38.09375 18.109375 28.8125 
L 18.109375 0 
L 9.078125 0 
L 9.078125 54.6875 
L 18.109375 54.6875 
L 18.109375 46.1875 
Q 20.953125 51.171875 25.484375 53.578125 
Q 30.03125 56 36.53125 56 
Q 37.453125 56 38.578125 55.875 
Q 39.703125 55.765625 41.0625 55.515625 
z
" id="DejaVuSans-114"/>
      <path d="M 44.28125 53.078125 
L 44.28125 44.578125 
Q 40.484375 46.53125 36.375 47.5 
Q 32.28125 48.484375 27.875 48.484375 
Q 21.1875 48.484375 17.84375 46.4375 
Q 14.5 44.390625 14.5 40.28125 
Q 14.5 37.15625 16.890625 35.375 
Q 19.28125 33.59375 26.515625 31.984375 
L 29.59375 31.296875 
Q 39.15625 29.25 43.1875 25.515625 
Q 47.21875 21.78125 47.21875 15.09375 
Q 47.21875 7.46875 41.1875 3.015625 
Q 35.15625 -1.421875 24.609375 -1.421875 
Q 20.21875 -1.421875 15.453125 -0.5625 
Q 10.6875 0.296875 5.421875 2 
L 5.421875 11.28125 
Q 10.40625 8.6875 15.234375 7.390625 
Q 20.0625 6.109375 24.8125 6.109375 
Q 31.15625 6.109375 34.5625 8.28125 
Q 37.984375 10.453125 37.984375 14.40625 
Q 37.984375 18.0625 35.515625 20.015625 
Q 33.0625 21.96875 24.703125 23.78125 
L 21.578125 24.515625 
Q 13.234375 26.265625 9.515625 29.90625 
Q 5.8125 33.546875 5.8125 39.890625 
Q 5.8125 47.609375 11.28125 51.796875 
Q 16.75 56 26.8125 56 
Q 31.78125 56 36.171875 55.265625 
Q 40.578125 54.546875 44.28125 53.078125 
z
" id="DejaVuSans-115"/>
     </defs>
     <g transform="translate(221.511562 335.860562)scale(0.1 -0.1)">
      <use xlink:href="#DejaVuSans-72"/>
      <use x="75.195312" xlink:href="#DejaVuSans-111"/>
      <use x="136.376953" xlink:href="#DejaVuSans-117"/>
      <use x="199.755859" xlink:href="#DejaVuSans-114"/>
      <use x="240.869141" xlink:href="#DejaVuSans-115"/>
     </g>
    </g>
   </g>
   <g id="matplotlib.axis_2">
    <g id="ytick_1">
     <g id="line2d_17">
      <path clip-path="url(#pf7963f5ed2)" d="M 57.6 274.203194 
L 414.72 274.203194 
" style="fill:none;stroke:#b0b0b0;stroke-linecap:square;stroke-width:0.8;"/>
     </g>
     <g id="line2d_18">
      <defs>
       <path d="M 0 0 
L -3.5 0 
" id="m2ae25e2e84" style="stroke:#000000;stroke-width:0.8;"/>
      </defs>
      <g>
       <use style="stroke:#000000;stroke-width:0.8;" x="57.6" xlink:href="#m2ae25e2e84" y="274.203194"/>
      </g>
     </g>
     <g id="text_10">
      <!-- 10 -->
      <g transform="translate(37.875 278.002412)scale(0.1 -0.1)">
       <use xlink:href="#DejaVuSans-49"/>
       <use x="63.623047" xlink:href="#DejaVuSans-48"/>
      </g>
     </g>
    </g>
    <g id="ytick_2">
     <g id="line2d_19">
      <path clip-path="url(#pf7963f5ed2)" d="M 57.6 222.28903 
L 414.72 222.28903 
" style="fill:none;stroke:#b0b0b0;stroke-linecap:square;stroke-width:0.8;"/>
     </g>
     <g id="line2d_20">
      <g>
       <use style="stroke:#000000;stroke-width:0.8;" x="57.6" xlink:href="#m2ae25e2e84" y="222.28903"/>
      </g>
     </g>
     <g id="text_11">
      <!-- 20 -->
      <g transform="translate(37.875 226.088249)scale(0.1 -0.1)">
       <use xlink:href="#DejaVuSans-50"/>
       <use x="63.623047" xlink:href="#DejaVuSans-48"/>
      </g>
     </g>
    </g>
    <g id="ytick_3">
     <g id="line2d_21">
      <path clip-path="url(#pf7963f5ed2)" d="M 57.6 170.374867 
L 414.72 170.374867 
" style="fill:none;stroke:#b0b0b0;stroke-linecap:square;stroke-width:0.8;"/>
     </g>
     <g id="line2d_22">
      <g>
       <use style="stroke:#000000;stroke-width:0.8;" x="57.6" xlink:href="#m2ae25e2e84" y="170.374867"/>
      </g>
     </g>
     <g id="text_12">
      <!-- 30 -->
      <defs>
       <path d="M 40.578125 39.3125 
Q 47.65625 37.796875 51.625 33 
Q 55.609375 28.21875 55.609375 21.1875 
Q 55.609375 10.40625 48.1875 4.484375 
Q 40.765625 -1.421875 27.09375 -1.421875 
Q 22.515625 -1.421875 17.65625 -0.515625 
Q 12.796875 0.390625 7.625 2.203125 
L 7.625 11.71875 
Q 11.71875 9.328125 16.59375 8.109375 
Q 21.484375 6.890625 26.8125 6.890625 
Q 36.078125 6.890625 40.9375 10.546875 
Q 45.796875 14.203125 45.796875 21.1875 
Q 45.796875 27.640625 41.28125 31.265625 
Q 36.765625 34.90625 28.71875 34.90625 
L 20.21875 34.90625 
L 20.21875 43.015625 
L 29.109375 43.015625 
Q 36.375 43.015625 40.234375 45.921875 
Q 44.09375 48.828125 44.09375 54.296875 
Q 44.09375 59.90625 40.109375 62.90625 
Q 36.140625 65.921875 28.71875 65.921875 
Q 24.65625 65.921875 20.015625 65.03125 
Q 15.375 64.15625 9.8125 62.3125 
L 9.8125 71.09375 
Q 15.4375 72.65625 20.34375 73.4375 
Q 25.25 74.21875 29.59375 74.21875 
Q 40.828125 74.21875 47.359375 69.109375 
Q 53.90625 64.015625 53.90625 55.328125 
Q 53.90625 49.265625 50.4375 45.09375 
Q 46.96875 40.921875 40.578125 39.3125 
z
" id="DejaVuSans-51"/>
      </defs>
      <g transform="translate(37.875 174.174086)scale(0.1 -0.1)">
       <use xlink:href="#DejaVuSans-51"/>
       <use x="63.623047" xlink:href="#DejaVuSans-48"/>
      </g>
     </g>
    </g>
    <g id="ytick_4">
     <g id="line2d_23">
      <path clip-path="url(#pf7963f5ed2)" d="M 57.6 118.460704 
L 414.72 118.460704 
" style="fill:none;stroke:#b0b0b0;stroke-linecap:square;stroke-width:0.8;"/>
     </g>
     <g id="line2d_24">
      <g>
       <use style="stroke:#000000;stroke-width:0.8;" x="57.6" xlink:href="#m2ae25e2e84" y="118.460704"/>
      </g>
     </g>
     <g id="text_13">
      <!-- 40 -->
      <g transform="translate(37.875 122.259923)scale(0.1 -0.1)">
       <use xlink:href="#DejaVuSans-52"/>
       <use x="63.623047" xlink:href="#DejaVuSans-48"/>
      </g>
     </g>
    </g>
    <g id="ytick_5">
     <g id="line2d_25">
      <path clip-path="url(#pf7963f5ed2)" d="M 57.6 66.546541 
L 414.72 66.546541 
" style="fill:none;stroke:#b0b0b0;stroke-linecap:square;stroke-width:0.8;"/>
     </g>
     <g id="line2d_26">
      <g>
       <use style="stroke:#000000;stroke-width:0.8;" x="57.6" xlink:href="#m2ae25e2e84" y="66.546541"/>
      </g>
     </g>
     <g id="text_14">
      <!-- 50 -->
      <defs>
       <path d="M 10.796875 72.90625 
L 49.515625 72.90625 
L 49.515625 64.59375 
L 19.828125 64.59375 
L 19.828125 46.734375 
Q 21.96875 47.46875 24.109375 47.828125 
Q 26.265625 48.1875 28.421875 48.1875 
Q 40.625 48.1875 47.75 41.5 
Q 54.890625 34.8125 54.890625 23.390625 
Q 54.890625 11.625 47.5625 5.09375 
Q 40.234375 -1.421875 26.90625 -1.421875 
Q 22.3125 -1.421875 17.546875 -0.640625 
Q 12.796875 0.140625 7.71875 1.703125 
L 7.71875 11.625 
Q 12.109375 9.234375 16.796875 8.0625 
Q 21.484375 6.890625 26.703125 6.890625 
Q 35.15625 6.890625 40.078125 11.328125 
Q 45.015625 15.765625 45.015625 23.390625 
Q 45.015625 31 40.078125 35.4375 
Q 35.15625 39.890625 26.703125 39.890625 
Q 22.75 39.890625 18.8125 39.015625 
Q 14.890625 38.140625 10.796875 36.28125 
z
" id="DejaVuSans-53"/>
      </defs>
      <g transform="translate(37.875 70.34576)scale(0.1 -0.1)">
       <use xlink:href="#DejaVuSans-53"/>
       <use x="63.623047" xlink:href="#DejaVuSans-48"/>
      </g>
     </g>
    </g>
    <g id="text_15">
     <!-- Episode steps -->
     <defs>
      <path d="M 9.8125 72.90625 
L 55.90625 72.90625 
L 55.90625 64.59375 
L 19.671875 64.59375 
L 19.671875 43.015625 
L 54.390625 43.015625 
L 54.390625 34.71875 
L 19.671875 34.71875 
L 19.671875 8.296875 
L 56.78125 8.296875 
L 56.78125 0 
L 9.8125 0 
z
" id="DejaVuSans-69"/>
      <path d="M 18.109375 8.203125 
L 18.109375 -20.796875 
L 9.078125 -20.796875 
L 9.078125 54.6875 
L 18.109375 54.6875 
L 18.109375 46.390625 
Q 20.953125 51.265625 25.265625 53.625 
Q 29.59375 56 35.59375 56 
Q 45.5625 56 51.78125 48.09375 
Q 58.015625 40.1875 58.015625 27.296875 
Q 58.015625 14.40625 51.78125 6.484375 
Q 45.5625 -1.421875 35.59375 -1.421875 
Q 29.59375 -1.421875 25.265625 0.953125 
Q 20.953125 3.328125 18.109375 8.203125 
z
M 48.6875 27.296875 
Q 48.6875 37.203125 44.609375 42.84375 
Q 40.53125 48.484375 33.40625 48.484375 
Q 26.265625 48.484375 22.1875 42.84375 
Q 18.109375 37.203125 18.109375 27.296875 
Q 18.109375 17.390625 22.1875 11.75 
Q 26.265625 6.109375 33.40625 6.109375 
Q 40.53125 6.109375 44.609375 11.75 
Q 48.6875 17.390625 48.6875 27.296875 
z
" id="DejaVuSans-112"/>
      <path d="M 9.421875 54.6875 
L 18.40625 54.6875 
L 18.40625 0 
L 9.421875 0 
z
M 9.421875 75.984375 
L 18.40625 75.984375 
L 18.40625 64.59375 
L 9.421875 64.59375 
z
" id="DejaVuSans-105"/>
      <path d="M 45.40625 46.390625 
L 45.40625 75.984375 
L 54.390625 75.984375 
L 54.390625 0 
L 45.40625 0 
L 45.40625 8.203125 
Q 42.578125 3.328125 38.25 0.953125 
Q 33.9375 -1.421875 27.875 -1.421875 
Q 17.96875 -1.421875 11.734375 6.484375 
Q 5.515625 14.40625 5.515625 27.296875 
Q 5.515625 40.1875 11.734375 48.09375 
Q 17.96875 56 27.875 56 
Q 33.9375 56 38.25 53.625 
Q 42.578125 51.265625 45.40625 46.390625 
z
M 14.796875 27.296875 
Q 14.796875 17.390625 18.875 11.75 
Q 22.953125 6.109375 30.078125 6.109375 
Q 37.203125 6.109375 41.296875 11.75 
Q 45.40625 17.390625 45.40625 27.296875 
Q 45.40625 37.203125 41.296875 42.84375 
Q 37.203125 48.484375 30.078125 48.484375 
Q 22.953125 48.484375 18.875 42.84375 
Q 14.796875 37.203125 14.796875 27.296875 
z
" id="DejaVuSans-100"/>
      <path d="M 56.203125 29.59375 
L 56.203125 25.203125 
L 14.890625 25.203125 
Q 15.484375 15.921875 20.484375 11.0625 
Q 25.484375 6.203125 34.421875 6.203125 
Q 39.59375 6.203125 44.453125 7.46875 
Q 49.3125 8.734375 54.109375 11.28125 
L 54.109375 2.78125 
Q 49.265625 0.734375 44.1875 -0.34375 
Q 39.109375 -1.421875 33.890625 -1.421875 
Q 20.796875 -1.421875 13.15625 6.1875 
Q 5.515625 13.8125 5.515625 26.8125 
Q 5.515625 40.234375 12.765625 48.109375 
Q 20.015625 56 32.328125 56 
Q 43.359375 56 49.78125 48.890625 
Q 56.203125 41.796875 56.203125 29.59375 
z
M 47.21875 32.234375 
Q 47.125 39.59375 43.09375 43.984375 
Q 39.0625 48.390625 32.421875 48.390625 
Q 24.90625 48.390625 20.390625 44.140625 
Q 15.875 39.890625 15.1875 32.171875 
z
" id="DejaVuSans-101"/>
      <path id="DejaVuSans-32"/>
      <path d="M 18.3125 70.21875 
L 18.3125 54.6875 
L 36.8125 54.6875 
L 36.8125 47.703125 
L 18.3125 47.703125 
L 18.3125 18.015625 
Q 18.3125 11.328125 20.140625 9.421875 
Q 21.96875 7.515625 27.59375 7.515625 
L 36.8125 7.515625 
L 36.8125 0 
L 27.59375 0 
Q 17.1875 0 13.234375 3.875 
Q 9.28125 7.765625 9.28125 18.015625 
L 9.28125 47.703125 
L 2.6875 47.703125 
L 2.6875 54.6875 
L 9.28125 54.6875 
L 9.28125 70.21875 
z
" id="DejaVuSans-116"/>
     </defs>
     <g transform="translate(31.795312 209.174875)rotate(-90)scale(0.1 -0.1)">
      <use xlink:href="#DejaVuSans-69"/>
      <use x="63.183594" xlink:href="#DejaVuSans-112"/>
      <use x="126.660156" xlink:href="#DejaVuSans-105"/>
      <use x="154.443359" xlink:href="#DejaVuSans-115"/>
      <use x="206.542969" xlink:href="#DejaVuSans-111"/>
      <use x="267.724609" xlink:href="#DejaVuSans-100"/>
      <use x="331.201172" xlink:href="#DejaVuSans-101"/>
      <use x="392.724609" xlink:href="#DejaVuSans-32"/>
      <use x="424.511719" xlink:href="#DejaVuSans-115"/>
      <use x="476.611328" xlink:href="#DejaVuSans-116"/>
      <use x="515.820312" xlink:href="#DejaVuSans-101"/>
      <use x="577.34375" xlink:href="#DejaVuSans-112"/>
      <use x="640.820312" xlink:href="#DejaVuSans-115"/>
     </g>
    </g>
   </g>
   <g id="line2d_27">
    <path clip-path="url(#pf7963f5ed2)" d="M 57.6 276.279758 
L 57.860009 238.382423 
L 57.971462 238.901567 
L 58.27676 291.85401 
L 58.365579 255.514093 
L 58.518694 257.590662 
L 58.567637 289.258301 
L 58.831707 274.722337 
L 58.898211 260.705509 
L 59.249605 262.782079 
L 59.471747 252.399246 
L 59.831958 249.803538 
L 60.072944 278.875466 
L 60.346695 266.416069 
L 60.403217 276.279758 
L 60.581614 250.84182 
L 60.871279 269.530921 
L 60.931572 248.246112 
L 61.004306 262.782079 
L 61.310498 267.454351 
L 61.684777 264.339505 
L 61.763556 257.590662 
L 62.055965 273.164911 
L 62.162854 254.994954 
L 62.249238 266.935213 
L 62.386036 256.55238 
L 62.485183 280.952036 
L 62.822767 259.148088 
L 63.107696 254.994954 
L 63.505341 292.892292 
L 63.674786 257.590662 
L 63.814106 270.05006 
L 64.067678 270.05006 
L 64.130368 276.798902 
L 65.104211 247.20783 
L 65.126797 256.033236 
L 65.435811 251.360964 
L 65.563632 269.011777 
L 65.823352 267.973495 
L 65.877689 277.318045 
L 65.89893 267.973495 
L 66.07181 283.547744 
L 66.371746 277.318045 
L 66.405632 265.377787 
L 66.771177 264.339505 
L 67.113725 282.509462 
L 67.210118 259.148088 
L 67.687615 271.088342 
L 67.884331 280.952036 
L 67.989752 257.071519 
L 68.116536 290.815725 
L 68.136922 257.071519 
L 68.403918 249.284394 
L 68.740253 258.109801 
L 68.777908 276.798902 
L 69.000031 272.126629 
L 69.135568 280.432892 
L 69.224715 253.956672 
L 69.262321 271.088342 
L 69.480674 269.011777 
L 69.670196 269.530921 
L 69.982686 260.705509 
L 70.453317 259.148088 
L 70.527359 257.590662 
L 70.595175 278.356328 
L 70.612694 259.667227 
L 70.758319 258.628945 
L 70.981019 285.105167 
L 71.041313 274.722337 
L 71.136638 283.547744 
L 71.215698 252.918385 
L 71.410247 264.858643 
L 71.476768 258.628945 
L 71.5508 271.088342 
L 71.691451 258.628945 
L 71.773017 275.241476 
L 71.808478 267.454351 
L 71.942494 240.458988 
L 72.014029 248.765256 
L 72.075522 280.432892 
L 72.180948 264.858643 
L 72.196009 279.913754 
L 72.61018 263.820361 
L 72.671659 277.318045 
L 73.462312 237.344136 
L 73.563966 266.416069 
L 73.88027 281.471174 
L 74.017011 280.432892 
L 74.049859 256.033236 
L 74.15882 273.68405 
L 74.198971 251.360964 
L 74.462523 259.667227 
L 74.481348 275.241476 
L 74.66081 283.0286 
L 74.718541 259.667227 
L 74.892987 248.246112 
L 74.949518 285.624308 
L 75.037315 237.344136 
L 75.200462 259.148088 
L 75.220826 281.990318 
L 75.327212 237.863279 
L 75.345082 269.011777 
L 75.435142 269.011777 
L 75.654777 272.645768 
L 75.771495 236.305858 
L 75.827971 265.377787 
L 75.994909 246.169547 
L 76.210756 275.241476 
L 76.554596 271.088342 
L 76.817162 259.148088 
L 76.92983 259.667227 
L 77.035537 243.573839 
L 77.120576 252.918385 
L 77.232268 234.229284 
L 77.320361 273.164911 
L 77.507114 273.68405 
L 77.626341 258.109801 
L 77.722976 280.432892 
L 77.937612 255.514093 
L 78.026716 270.05006 
L 78.680619 268.492634 
L 78.742119 260.186371 
L 78.762356 261.743796 
L 78.779771 270.569203 
L 79.134978 254.994954 
L 79.378463 254.475811 
L 79.508987 267.973495 
L 79.64704 254.994954 
L 80.162875 273.68405 
L 80.40256 268.492634 
L 80.613951 270.05006 
L 80.660337 295.488 
L 80.715617 247.726968 
L 81.12069 270.05006 
L 81.248734 266.935213 
L 81.373909 220.731609 
L 81.48561 271.088342 
L 81.764213 263.820361 
L 81.814401 274.722337 
L 82.065394 271.607485 
L 82.130704 245.13126 
L 82.147235 246.688686 
L 83.044317 254.994954 
L 83.100854 260.705509 
L 83.153503 277.318045 
L 83.173584 269.530921 
L 83.589063 286.143452 
L 83.820213 277.837184 
L 83.942959 263.301217 
L 84.0158 272.645768 
L 84.083517 270.05006 
L 84.530302 281.471174 
L 84.550383 263.820361 
L 84.767549 261.743796 
L 84.910683 255.514093 
L 85.009775 273.68405 
L 85.311322 270.05006 
L 85.584575 237.344136 
L 85.659861 275.241476 
L 86.152098 267.973495 
L 86.489425 274.203194 
L 86.503228 280.432892 
L 86.75705 287.181734 
L 86.828268 271.088342 
L 87.095611 287.181734 
L 87.110669 272.645768 
L 87.367068 261.224653 
L 87.518977 264.858643 
L 87.73093 237.344136 
L 87.782376 287.181734 
L 87.872715 272.645768 
L 87.929193 250.322677 
L 88.131466 251.360964 
L 88.269284 281.990318 
L 88.522878 271.088342 
L 88.677235 276.798902 
L 88.760258 239.4207 
L 88.802746 262.782079 
L 88.839132 274.203194 
L 88.893099 262.782079 
L 89.006043 271.088342 
L 89.171692 266.935213 
L 89.373752 269.011777 
L 89.447798 271.607485 
L 89.484196 256.033236 
L 89.52812 280.952036 
L 89.621038 271.088342 
L 89.671183 277.837184 
L 89.687496 260.186371 
L 89.705383 283.0286 
L 90.027603 287.181734 
L 90.21088 256.033236 
L 90.326285 271.088342 
L 90.466838 260.186371 
L 90.482208 271.607485 
L 90.6463 252.399246 
L 90.990225 276.279758 
L 91.157088 244.092978 
L 91.236155 279.39461 
L 91.43696 237.344136 
L 91.511011 270.05006 
L 91.660347 258.109801 
L 91.892554 275.241476 
L 91.96285 264.339505 
L 92.088672 284.066883 
L 92.696935 276.279758 
L 92.808624 262.262935 
L 93.12495 262.262935 
L 93.161344 273.164911 
L 93.202801 267.454351 
L 93.31969 280.952036 
L 93.41483 252.918385 
L 93.748638 258.628945 
L 94.043739 260.186371 
L 94.087657 251.880102 
L 94.439444 270.569203 
L 94.525674 262.782079 
L 94.679019 266.416069 
L 94.976551 241.497275 
L 95.087987 276.279758 
L 95.53197 277.837184 
L 95.750404 264.858643 
L 95.764142 246.169547 
L 95.819363 276.279758 
L 95.83196 271.607485 
L 95.868307 274.722337 
L 95.894713 293.411433 
L 95.968751 256.55238 
L 96.051525 265.377787 
L 96.140636 279.913754 
L 96.173265 269.530921 
L 96.463109 271.088342 
L 97.109454 252.399246 
L 97.211107 278.356328 
L 97.503697 199.965944 
L 97.708321 273.68405 
L 97.904052 251.880102 
L 98.053741 280.952036 
L 98.262552 265.377787 
L 98.330273 280.952036 
L 98.612722 278.356328 
L 98.734711 268.492634 
L 98.828589 275.760619 
L 98.853652 263.301217 
L 98.890075 270.05006 
L 98.945297 273.164911 
L 98.994297 248.246112 
L 99.048481 275.241476 
L 99.178734 285.624308 
L 99.245355 263.301217 
L 99.326822 271.088342 
L 99.675723 283.0286 
L 99.980954 264.339505 
L 100.093631 265.377787 
L 100.170184 261.224653 
L 100.194023 264.339505 
L 100.426232 259.148088 
L 100.447567 266.935213 
L 100.776699 251.360964 
L 100.974978 258.109801 
L 101.151623 268.492634 
L 101.471767 232.671863 
L 101.803025 263.820361 
L 101.820595 283.547744 
L 101.870798 254.994954 
L 102.04652 251.880102 
L 102.114344 247.726968 
L 102.476987 249.284394 
L 102.681919 272.126629 
L 102.843451 232.152719 
L 102.965185 239.939844 
L 102.98401 224.365595 
L 103.030468 248.246112 
L 103.164821 267.973495 
L 103.617887 257.590662 
L 103.63296 287.700876 
L 103.971823 233.191007 
L 104.234116 279.39461 
L 104.501491 227.480447 
L 104.550438 243.054696 
L 104.908119 266.416069 
L 104.957083 238.382423 
L 105.182065 246.688686 
L 105.404147 245.650404 
L 105.629778 262.782079 
L 105.644834 274.203194 
L 105.668724 266.935213 
L 105.810476 260.705509 
L 105.940987 229.557011 
L 106.250954 271.607485 
L 106.533329 263.301217 
L 106.651292 290.815725 
L 106.90607 247.20783 
L 107.31394 278.356328 
L 107.352842 252.918385 
L 107.537313 277.837184 
L 107.79359 238.382423 
L 107.907524 280.432892 
L 108.167358 268.492634 
L 108.415783 273.164911 
L 108.472311 260.705509 
L 108.736087 243.573839 
L 108.755888 271.088342 
L 108.802379 242.016408 
L 109.404726 274.722337 
L 109.44112 254.994954 
L 109.56668 261.743796 
L 109.766155 274.203194 
L 110.048525 272.126629 
L 110.111278 266.935213 
L 110.146417 273.164911 
L 110.703624 260.705509 
L 110.962134 267.454351 
L 111.15917 243.054696 
L 111.3286 239.4207 
L 111.451582 278.875466 
L 111.519617 273.164911 
L 111.849681 276.798902 
L 111.931259 251.360964 
L 112.133715 274.203194 
L 112.473822 250.322677 
L 112.796366 274.203194 
L 112.967047 219.174179 
L 113.440157 246.169547 
L 113.639731 222.808174 
L 113.710011 277.837184 
L 113.811667 262.262935 
L 114.033999 257.590662 
L 114.082941 283.0286 
L 114.306335 239.4207 
L 114.493336 267.454351 
L 114.807072 236.824992 
L 114.928816 265.377787 
L 115.202396 264.339505 
L 115.49007 241.497275 
L 115.968277 237.344136 
L 116.285501 247.20783 
L 116.294281 273.68405 
L 116.44487 233.191007 
L 116.538998 276.798902 
L 116.649781 243.054696 
L 116.777466 267.454351 
L 117.106282 262.782079 
L 117.479021 273.164911 
L 117.501612 246.169547 
L 117.712453 261.224653 
L 118.215734 254.475811 
L 118.2697 263.820361 
L 118.417801 258.628945 
L 118.472034 279.39461 
L 118.495671 227.99959 
L 118.549569 271.088342 
L 118.988888 263.301217 
L 119.101834 274.203194 
L 119.325274 232.671863 
L 119.365496 269.011777 
L 119.866804 242.016408 
L 120.019919 263.820361 
L 120.32615 274.722337 
L 120.362545 195.293662 
L 120.459249 261.743796 
L 120.730282 243.573839 
L 121.34648 266.935213 
L 121.38914 273.68405 
L 121.437174 244.612122 
L 121.607506 243.054696 
L 122.003177 253.437528 
L 122.142151 248.246112 
L 122.67178 245.13126 
L 122.751162 252.918385 
L 122.855017 226.442159 
L 123.0386 237.344136 
L 123.177627 269.011777 
L 123.291809 260.186371 
L 123.318114 272.645768 
L 123.453701 270.569203 
L 123.599277 258.109801 
L 123.758879 271.607485 
L 123.845464 249.284394 
L 124.185694 264.858643 
L 124.497905 268.492634 
L 124.580738 247.726968 
L 124.736443 270.569203 
L 125.155634 253.956672 
L 125.194541 277.318045 
L 125.419251 238.382423 
L 125.465637 259.148088 
L 125.838479 245.650404 
L 126.263975 239.4207 
L 126.560149 241.497275 
L 126.789811 189.063968 
L 127.26048 217.616758 
L 127.308117 267.973495 
L 127.355803 238.382423 
L 127.456203 248.765256 
L 127.54531 229.557011 
L 128.084978 200.485078 
L 128.470492 252.918385 
L 128.90102 249.284394 
L 129.961469 161.030322 
L 130.025476 222.28903 
L 130.956728 206.195638 
L 131.154962 207.233925 
L 131.250453 152.20491 
L 131.520292 181.276843 
L 131.6182 236.305858 
L 131.731155 122.094699 
L 132.122729 174.527996 
L 132.401341 176.604571 
L 133.02263 184.391695 
L 133.385347 202.561652 
L 134.010345 158.953747 
L 134.228731 187.506537 
L 135.108516 110.67358 
L 135.340674 182.315121 
L 135.432284 172.451432 
L 135.910464 170.894011 
L 136.116285 145.456073 
L 137.60597 195.293662 
L 137.867064 158.434614 
L 138.236061 168.817446 
L 139.464713 177.642848 
L 139.521455 173.489719 
L 139.911476 158.953747 
L 140.468702 88.869627 
L 140.892119 136.111527 
L 141.290273 93.54191 
L 141.522152 109.116159 
L 142.512862 141.302944 
L 142.850523 143.898652 
L 144.091808 150.128336 
L 144.679175 168.298303 
L 144.956556 134.034953 
L 145.421688 132.996666 
L 145.465652 171.413154 
L 146.054237 124.171254 
L 146.641831 126.766962 
L 146.785903 126.766962 
L 147.282004 211.906198 
L 147.336848 138.188082 
L 147.393315 142.341211 
L 149.784226 162.587743 
L 150.050329 161.030322 
L 150.114335 113.788421 
L 150.632724 147.013494 
L 154.633897 200.485078 
L 155.212425 184.910829 
L 155.378086 109.635292 
L 155.625328 167.779159 
L 155.690644 112.231 
L 155.811067 155.319752 
L 157.12517 72.776244 
L 157.363638 132.996666 
L 157.540681 134.554087 
L 157.956042 188.544824 
L 158.527216 90.427048 
L 158.992788 195.293662 
L 159.148469 198.927657 
L 159.197352 162.068599 
L 160.034482 192.697953 
L 160.933505 120.018125 
L 161.260706 176.085427 
L 161.482838 193.217097 
L 161.932204 167.779159 
L 162.067567 82.639923 
L 162.571715 106.52045 
L 162.809213 131.958379 
L 163.12145 231.114442 
L 163.401333 123.132987 
L 164.948812 114.826709 
L 165.467131 143.379498 
L 166.387833 141.822077 
L 166.802142 130.920111 
L 167.167358 90.946201 
L 167.410838 88.350493 
L 167.471083 132.996666 
L 168.59536 76.929373 
L 168.749748 193.217097 
L 169.096348 130.400958 
L 170.827391 103.924742 
L 171.428307 153.762331 
L 171.605556 127.805249 
L 172.130054 111.711867 
L 172.259325 138.707236 
L 173.306132 126.247828 
L 173.370197 120.018125 
L 174.524926 109.116159 
L 174.581396 159.472901 
L 174.748359 147.013494 
L 175.3256 125.209541 
L 175.773716 116.903283 
L 175.965753 141.302944 
L 176.780394 123.132987 
L 177.319735 129.36267 
L 177.459118 190.102245 
L 178.050398 119.498991 
L 178.318669 173.489719 
L 178.451698 111.711867 
L 179.133176 127.286116 
L 180.166985 110.67358 
L 181.04547 173.489719 
L 181.426466 106.52045 
L 181.873076 120.537278 
L 182.382195 126.247828 
L 182.636986 102.367321 
L 183.084156 126.766962 
L 183.241021 81.082503 
L 183.862819 182.315121 
L 185.603299 83.159077 
L 185.91073 54.606287 
L 187.283006 126.247828 
L 187.651972 104.963029 
L 187.909257 148.570915 
L 187.978277 71.218823 
L 188.481885 171.413154 
L 188.64886 111.711867 
L 188.692948 165.183451 
L 189.010257 103.405589 
L 189.581401 113.269288 
L 189.846215 88.869627 
L 190.063276 131.958379 
L 190.257804 100.809881 
L 190.306752 121.575546 
L 190.708248 82.639923 
L 191.123026 93.022756 
L 191.247 142.860365 
L 191.378779 123.65212 
L 193.680223 157.396326 
L 194.463799 123.132987 
L 195.686254 124.690408 
L 195.828065 114.826709 
L 196.847298 116.38413 
L 197.022951 111.192713 
L 197.192384 141.302944 
L 198.440202 98.214172 
L 199.901818 101.329034 
L 200.099541 92.503622 
L 200.890575 112.231 
L 201.391292 110.67358 
L 201.939753 169.33658 
L 202.151092 99.25246 
L 202.266283 177.123704 
L 202.331848 93.54191 
L 203.236484 93.54191 
L 203.777472 91.465335 
L 205.236348 76.929373 
L 205.613128 134.554087 
L 205.793843 108.077871 
L 206.261564 73.295378 
L 207.117532 60.835991 
L 207.256842 106.52045 
L 207.322157 93.54191 
L 207.79429 120.018125 
L 208.972877 79.005948 
L 210.014214 113.269288 
L 210.44758 114.307575 
L 210.746882 126.766962 
L 210.817031 106.52045 
L 211.194802 140.264656 
L 212.020021 168.817446 
L 212.158372 113.269288 
L 212.527207 110.67358 
L 214.248437 159.992035 
L 214.560302 156.877193 
L 215.388729 74.333665 
L 215.656977 133.515819 
L 216.871561 101.329034 
L 217.408706 121.575546 
L 218.952608 90.946201 
L 219.146383 143.898652 
L 219.216613 107.558738 
L 219.481427 75.371953 
L 219.544247 97.695039 
L 219.801387 106.001297 
L 221.168803 115.864996 
L 222.605617 135.07324 
L 223.405424 109.116159 
L 224.438182 68.103962 
L 225.103408 83.678211 
L 226.186584 61.874258 
L 226.348531 121.056412 
L 227.05006 108.597005 
L 227.116578 102.367321 
L 227.31237 107.558738 
L 228.404625 103.405589 
L 228.659387 136.111527 
L 229.947979 184.910829 
L 230.067157 152.724044 
L 230.904144 139.226369 
L 231.260254 103.405589 
L 232.180183 87.312206 
L 232.230393 167.779159 
L 232.377242 84.716498 
L 232.708582 73.814532 
L 235.090939 125.728695 
L 235.555327 89.388781 
L 235.821728 129.36267 
L 236.20052 130.400958 
L 236.589549 56.163708 
L 236.918372 83.159077 
L 237.126728 72.776244 
L 237.275732 87.312206 
L 238.242999 135.07324 
L 238.837866 99.771613 
L 239.349943 136.111527 
L 240.47672 161.030322 
L 240.770104 144.417786 
L 240.905508 126.766962 
L 241.683972 134.034953 
L 241.815506 128.843537 
L 242.19202 79.005948 
L 243.001531 100.290747 
L 243.307765 102.367321 
L 243.97444 105.482163 
L 244.630274 147.532627 
L 246.467518 134.034953 
L 246.593321 91.984489 
L 246.851651 110.154446 
L 247.613408 128.843537 
L 247.810785 137.668948 
L 250.607519 115.864996 
L 251.111714 73.295378 
L 252.045252 101.329034 
L 252.760618 96.137618 
L 253.220194 128.324403 
L 253.703389 106.52045 
L 254.401174 86.273919 
L 254.588182 93.54191 
L 255.311793 80.563369 
L 255.747295 93.54191 
L 256.564246 89.907914 
L 256.603155 144.417786 
L 257.778285 74.333665 
L 257.984039 95.618464 
L 258.474806 106.001297 
L 259.20116 127.286116 
L 260.176682 115.864996 
L 260.28463 159.472901 
L 260.750253 56.682842 
L 261.487358 100.809881 
L 262.040863 75.371953 
L 262.17385 77.448507 
L 262.303136 103.405589 
L 262.669904 84.716498 
L 263.269503 71.218823 
L 263.958489 134.034953 
L 264.035035 86.273919 
L 264.741663 62.393412 
L 265.026665 59.27855 
L 265.101921 73.295378 
L 266.461401 97.175905 
L 266.948366 59.797704 
L 267.260921 54.087134 
L 267.877144 93.022756 
L 269.107401 91.465335 
L 270.49202 61.874258 
L 270.81687 104.443876 
L 271.443401 75.371953 
L 271.857683 75.371953 
L 271.985684 119.498991 
L 272.176469 96.137618 
L 272.393639 101.848168 
L 273.857028 127.805249 
L 274.993332 82.639923 
L 275.058391 101.329034 
L 275.359613 75.891086 
L 275.698491 110.154446 
L 276.1358 170.374867 
L 276.769891 62.393412 
L 276.887869 116.38413 
L 277.549019 71.737957 
L 277.981957 117.94157 
L 278.112475 88.350493 
L 278.535534 73.295378 
L 278.663449 125.728695 
L 278.788942 114.826709 
L 279.666547 88.350493 
L 279.818679 117.94157 
L 279.96181 89.907914 
L 281.597205 106.52045 
L 282.227239 138.707236 
L 282.389147 135.07324 
L 283.492917 70.69967 
L 284.16555 147.532627 
L 284.243366 69.142249 
L 284.385185 101.848168 
L 284.790573 96.656751 
L 285.187195 138.188082 
L 285.62712 134.034953 
L 285.948091 126.766962 
L 286.418727 121.056412 
L 286.790958 96.137618 
L 287.62292 98.214172 
L 288.077349 64.469966 
L 289.345179 140.264656 
L 290.696589 156.358039 
L 290.91372 74.852799 
L 291.280189 79.005948 
L 291.766208 80.044215 
L 292.970912 109.635292 
L 293.712386 103.405589 
L 294.435723 93.022756 
L 294.898812 92.503622 
L 295.305741 96.656751 
L 296.915472 153.243197 
L 298.493096 117.422417 
L 300.173658 138.188082 
L 300.733432 110.67358 
L 300.999554 86.273919 
L 301.894764 126.766962 
L 302.662415 91.984489 
L 302.933483 116.903283 
L 303.422941 111.192713 
L 303.484759 124.690408 
L 303.732962 129.881824 
L 304.405825 84.716498 
L 304.48109 67.065675 
L 305.16241 124.171254 
L 305.329086 63.431699 
L 305.887079 83.678211 
L 306.201486 75.371953 
L 307.346431 68.623115 
L 309.073268 123.132987 
L 309.361901 107.039584 
L 309.494919 62.912545 
L 309.591555 69.142249 
L 309.795216 116.38413 
L 310.432625 117.422417 
L 310.526755 78.486794 
L 311.194516 80.044215 
L 311.416628 90.427048 
L 312.105641 89.907914 
L 312.47214 71.218823 
L 315.011704 120.537278 
L 315.664307 60.835991 
L 315.803888 61.355124 
L 316.091037 103.924742 
L 316.497787 108.077871 
L 316.702649 115.864996 
L 317.224663 81.082503 
L 317.420452 82.639923 
L 317.803871 80.044215 
L 318.639683 54.606287 
L 318.919586 74.333665 
L 319.205453 63.431699 
L 319.928342 77.967661 
L 320.039263 71.218823 
L 320.902427 88.869627 
L 321.143642 136.630661 
L 321.669572 102.367321 
L 321.946601 98.214172 
L 322.754359 83.678211 
L 323.580681 113.269288 
L 324.751858 72.776244 
L 326.498663 67.584828 
L 327.532474 144.417786 
L 328.094733 109.116159 
L 328.542791 61.874258 
L 328.824191 104.963029 
L 329.108897 104.963029 
L 329.684048 100.290747 
L 330.115825 109.635292 
L 330.18107 96.656751 
L 331.383382 99.25246 
L 332.022186 114.826709 
L 332.435144 74.333665 
L 333.008747 100.809881 
L 333.234651 80.044215 
L 334.758256 118.460704 
L 334.9958 106.52045 
L 335.945586 103.924742 
L 336.239269 84.716498 
L 336.763978 149.609202 
L 336.987372 92.503622 
L 337.353848 93.022756 
L 338.53403 77.448507 
L 338.690922 103.924742 
L 339.942279 97.695039 
L 340.207041 148.570915 
L 340.424197 85.754785 
L 341.465057 86.273919 
L 341.675921 67.584828 
L 341.92818 176.085427 
L 342.341093 112.750154 
L 343.173279 141.302944 
L 343.5662 100.290747 
L 344.498757 97.695039 
L 345.347806 89.388781 
L 345.824105 117.94157 
L 346.36997 85.754785 
L 346.957533 67.065675 
L 347.025247 106.52045 
L 347.349488 66.027407 
L 347.61909 97.175905 
L 348.508944 127.286116 
L 348.765084 102.367321 
L 349.734763 115.345862 
L 350.568639 92.503622 
L 350.63892 84.197364 
L 351.119583 104.443876 
L 351.665701 94.061043 
L 352.053609 148.570915 
L 352.444085 133.515819 
L 352.85576 137.668948 
L 352.993853 122.094699 
L 353.492387 164.145164 
L 353.615107 149.609202 
L 353.681579 158.953747 
L 354.92529 72.776244 
L 355.140204 97.175905 
L 355.790794 102.367321 
L 356.710478 96.137618 
L 357.49171 85.235632 
L 357.701672 125.209541 
L 358.367435 111.192713 
L 359.467107 123.65212 
L 360.264041 53.568 
L 360.459839 73.295378 
L 361.559034 103.405589 
L 362.303825 83.678211 
L 362.384463 99.25246 
L 362.762994 62.393412 
L 362.829525 85.754785 
L 363.619515 70.69967 
L 363.698772 58.759416 
L 363.785375 68.623115 
L 364.802131 132.996666 
L 365.250259 109.116159 
L 365.563221 143.898652 
L 365.719829 78.486794 
L 366.339904 89.388781 
L 366.61133 67.584828 
L 366.813358 89.907914 
L 368.563003 117.422417 
L 368.635853 55.644574 
L 369.276802 76.929373 
L 369.777219 111.192713 
L 369.989618 122.094699 
L 370.737971 81.082503 
L 370.801022 131.958379 
L 370.881059 55.125421 
L 370.9526 119.498991 
L 371.27165 142.341211 
L 371.696906 55.644574 
L 371.981786 71.737957 
L 372.116083 95.618464 
L 373.262635 57.201995 
L 373.755886 84.197364 
L 374.352544 88.350493 
L 374.781457 129.36267 
L 375.661533 94.061043 
L 376.147005 89.388781 
L 376.85358 94.061043 
L 378.027244 77.967661 
L 378.548689 66.546541 
L 380.105316 98.733326 
L 380.577 116.903283 
L 381.003726 74.333665 
L 381.214585 67.065675 
L 383.390828 68.623115 
L 383.46143 99.25246 
L 384.593162 71.218823 
L 384.667247 97.695039 
L 385.404979 82.12079 
L 385.602039 86.273919 
L 385.760221 77.967661 
L 386.524975 121.056412 
L 386.959111 112.231 
L 387.176656 115.864996 
L 387.470631 97.175905 
L 388.618166 136.111527 
L 388.749981 144.417786 
L 388.794876 158.434614 
L 389.080856 71.737957 
L 389.291696 71.737957 
L 389.415948 139.745503 
L 390.393973 95.618464 
L 390.67077 64.469966 
L 391.412613 100.290747 
L 391.632136 81.601656 
L 393.611377 98.214172 
L 394.328374 90.946201 
L 394.396148 91.984489 
L 395.169334 54.606287 
L 396.79994 113.269288 
L 397.165518 86.273919 
L 398.356082 115.345862 
L 399.559712 107.558738 
L 399.98265 76.41024 
L 400.139844 77.448507 
L 401.504152 121.575546 
L 401.575427 80.044215 
L 401.851522 134.034953 
L 402.12805 72.776244 
L 403.39066 85.754785 
L 403.825972 76.929373 
L 403.896249 100.290747 
L 406.88977 132.996666 
L 407.494813 103.405589 
L 408.040755 90.427048 
L 408.13112 71.218823 
L 409.328616 78.486794 
L 409.901731 79.525082 
L 410.283036 85.754785 
L 410.590593 98.214172 
L 411.367433 54.606287 
L 412.227349 67.584828 
L 412.592593 114.826709 
L 412.872703 126.247828 
L 413.444575 105.482163 
L 414.72 170.374867 
L 414.72 170.374867 
" style="fill:none;stroke:#000000;stroke-linecap:square;stroke-width:0.8;"/>
   </g>
   <g id="patch_3">
    <path d="M 57.6 307.584 
L 57.6 41.472 
" style="fill:none;stroke:#000000;stroke-linecap:square;stroke-linejoin:miter;stroke-width:0.8;"/>
   </g>
   <g id="patch_4">
    <path d="M 414.72 307.584 
L 414.72 41.472 
" style="fill:none;stroke:#000000;stroke-linecap:square;stroke-linejoin:miter;stroke-width:0.8;"/>
   </g>
   <g id="patch_5">
    <path d="M 57.6 307.584 
L 414.72 307.584 
" style="fill:none;stroke:#000000;stroke-linecap:square;stroke-linejoin:miter;stroke-width:0.8;"/>
   </g>
   <g id="patch_6">
    <path d="M 57.6 41.472 
L 414.72 41.472 
" style="fill:none;stroke:#000000;stroke-linecap:square;stroke-linejoin:miter;stroke-width:0.8;"/>
   </g>
  </g>
  <g id="axes_2">
   <g id="matplotlib.axis_3">
    <g id="xtick_9">
     <g id="line2d_28">
      <defs>
       <path d="M 0 0 
L 0 -3.5 
" id="mfbc70b0909" style="stroke:#000000;stroke-width:0.8;"/>
      </defs>
      <g>
       <use style="stroke:#000000;stroke-width:0.8;" x="57.6" xlink:href="#mfbc70b0909" y="41.472"/>
      </g>
     </g>
    </g>
    <g id="xtick_10">
     <g id="line2d_29">
      <g>
       <use style="stroke:#000000;stroke-width:0.8;" x="98.382282" xlink:href="#mfbc70b0909" y="41.472"/>
      </g>
     </g>
     <g id="text_16">
      <!-- 250K -->
      <defs>
       <path d="M 9.8125 72.90625 
L 19.671875 72.90625 
L 19.671875 42.09375 
L 52.390625 72.90625 
L 65.09375 72.90625 
L 28.90625 38.921875 
L 67.671875 0 
L 54.6875 0 
L 19.671875 35.109375 
L 19.671875 0 
L 9.8125 0 
z
" id="DejaVuSans-75"/>
      </defs>
      <g transform="translate(85.559625 32.392313)scale(0.1 -0.1)">
       <use xlink:href="#DejaVuSans-50"/>
       <use x="63.623047" xlink:href="#DejaVuSans-53"/>
       <use x="127.246094" xlink:href="#DejaVuSans-48"/>
       <use x="190.869141" xlink:href="#DejaVuSans-75"/>
      </g>
     </g>
    </g>
    <g id="xtick_11">
     <g id="line2d_30">
      <g>
       <use style="stroke:#000000;stroke-width:0.8;" x="139.164563" xlink:href="#mfbc70b0909" y="41.472"/>
      </g>
     </g>
     <g id="text_17">
      <!-- 500K -->
      <g transform="translate(126.341907 32.392313)scale(0.1 -0.1)">
       <use xlink:href="#DejaVuSans-53"/>
       <use x="63.623047" xlink:href="#DejaVuSans-48"/>
       <use x="127.246094" xlink:href="#DejaVuSans-48"/>
       <use x="190.869141" xlink:href="#DejaVuSans-75"/>
      </g>
     </g>
    </g>
    <g id="xtick_12">
     <g id="line2d_31">
      <g>
       <use style="stroke:#000000;stroke-width:0.8;" x="179.946845" xlink:href="#mfbc70b0909" y="41.472"/>
      </g>
     </g>
     <g id="text_18">
      <!-- 750K -->
      <defs>
       <path d="M 8.203125 72.90625 
L 55.078125 72.90625 
L 55.078125 68.703125 
L 28.609375 0 
L 18.3125 0 
L 43.21875 64.59375 
L 8.203125 64.59375 
z
" id="DejaVuSans-55"/>
      </defs>
      <g transform="translate(167.124189 32.392313)scale(0.1 -0.1)">
       <use xlink:href="#DejaVuSans-55"/>
       <use x="63.623047" xlink:href="#DejaVuSans-53"/>
       <use x="127.246094" xlink:href="#DejaVuSans-48"/>
       <use x="190.869141" xlink:href="#DejaVuSans-75"/>
      </g>
     </g>
    </g>
    <g id="xtick_13">
     <g id="line2d_32">
      <g>
       <use style="stroke:#000000;stroke-width:0.8;" x="220.729127" xlink:href="#mfbc70b0909" y="41.472"/>
      </g>
     </g>
     <g id="text_19">
      <!-- 1,000K -->
      <defs>
       <path d="M 11.71875 12.40625 
L 22.015625 12.40625 
L 22.015625 4 
L 14.015625 -11.625 
L 7.71875 -11.625 
L 11.71875 4 
z
" id="DejaVuSans-44"/>
      </defs>
      <g transform="translate(203.136158 32.392313)scale(0.1 -0.1)">
       <use xlink:href="#DejaVuSans-49"/>
       <use x="63.623047" xlink:href="#DejaVuSans-44"/>
       <use x="95.410156" xlink:href="#DejaVuSans-48"/>
       <use x="159.033203" xlink:href="#DejaVuSans-48"/>
       <use x="222.65625" xlink:href="#DejaVuSans-48"/>
       <use x="286.279297" xlink:href="#DejaVuSans-75"/>
      </g>
     </g>
    </g>
    <g id="xtick_14">
     <g id="line2d_33">
      <g>
       <use style="stroke:#000000;stroke-width:0.8;" x="261.511408" xlink:href="#mfbc70b0909" y="41.472"/>
      </g>
     </g>
     <g id="text_20">
      <!-- 1.25M -->
      <defs>
       <path d="M 10.6875 12.40625 
L 21 12.40625 
L 21 0 
L 10.6875 0 
z
" id="DejaVuSans-46"/>
       <path d="M 9.8125 72.90625 
L 24.515625 72.90625 
L 43.109375 23.296875 
L 61.8125 72.90625 
L 76.515625 72.90625 
L 76.515625 0 
L 66.890625 0 
L 66.890625 64.015625 
L 48.09375 14.015625 
L 38.1875 14.015625 
L 19.390625 64.015625 
L 19.390625 0 
L 9.8125 0 
z
" id="DejaVuSans-77"/>
      </defs>
      <g transform="translate(246.064533 32.392313)scale(0.1 -0.1)">
       <use xlink:href="#DejaVuSans-49"/>
       <use x="63.623047" xlink:href="#DejaVuSans-46"/>
       <use x="95.410156" xlink:href="#DejaVuSans-50"/>
       <use x="159.033203" xlink:href="#DejaVuSans-53"/>
       <use x="222.65625" xlink:href="#DejaVuSans-77"/>
      </g>
     </g>
    </g>
    <g id="xtick_15">
     <g id="line2d_34">
      <g>
       <use style="stroke:#000000;stroke-width:0.8;" x="302.29369" xlink:href="#mfbc70b0909" y="41.472"/>
      </g>
     </g>
     <g id="text_21">
      <!-- 1.50M -->
      <g transform="translate(286.846815 32.392313)scale(0.1 -0.1)">
       <use xlink:href="#DejaVuSans-49"/>
       <use x="63.623047" xlink:href="#DejaVuSans-46"/>
       <use x="95.410156" xlink:href="#DejaVuSans-53"/>
       <use x="159.033203" xlink:href="#DejaVuSans-48"/>
       <use x="222.65625" xlink:href="#DejaVuSans-77"/>
      </g>
     </g>
    </g>
    <g id="xtick_16">
     <g id="line2d_35">
      <g>
       <use style="stroke:#000000;stroke-width:0.8;" x="343.075971" xlink:href="#mfbc70b0909" y="41.472"/>
      </g>
     </g>
     <g id="text_22">
      <!-- 1.75M -->
      <g transform="translate(327.629096 32.392313)scale(0.1 -0.1)">
       <use xlink:href="#DejaVuSans-49"/>
       <use x="63.623047" xlink:href="#DejaVuSans-46"/>
       <use x="95.410156" xlink:href="#DejaVuSans-55"/>
       <use x="159.033203" xlink:href="#DejaVuSans-53"/>
       <use x="222.65625" xlink:href="#DejaVuSans-77"/>
      </g>
     </g>
    </g>
    <g id="xtick_17">
     <g id="line2d_36">
      <g>
       <use style="stroke:#000000;stroke-width:0.8;" x="383.858253" xlink:href="#mfbc70b0909" y="41.472"/>
      </g>
     </g>
     <g id="text_23">
      <!-- 2.00M -->
      <g transform="translate(368.411378 32.392313)scale(0.1 -0.1)">
       <use xlink:href="#DejaVuSans-50"/>
       <use x="63.623047" xlink:href="#DejaVuSans-46"/>
       <use x="95.410156" xlink:href="#DejaVuSans-48"/>
       <use x="159.033203" xlink:href="#DejaVuSans-48"/>
       <use x="222.65625" xlink:href="#DejaVuSans-77"/>
      </g>
     </g>
    </g>
    <g id="text_24">
     <!-- Steps -->
     <defs>
      <path d="M 53.515625 70.515625 
L 53.515625 60.890625 
Q 47.90625 63.578125 42.921875 64.890625 
Q 37.9375 66.21875 33.296875 66.21875 
Q 25.25 66.21875 20.875 63.09375 
Q 16.5 59.96875 16.5 54.203125 
Q 16.5 49.359375 19.40625 46.890625 
Q 22.3125 44.4375 30.421875 42.921875 
L 36.375 41.703125 
Q 47.40625 39.59375 52.65625 34.296875 
Q 57.90625 29 57.90625 20.125 
Q 57.90625 9.515625 50.796875 4.046875 
Q 43.703125 -1.421875 29.984375 -1.421875 
Q 24.8125 -1.421875 18.96875 -0.25 
Q 13.140625 0.921875 6.890625 3.21875 
L 6.890625 13.375 
Q 12.890625 10.015625 18.65625 8.296875 
Q 24.421875 6.59375 29.984375 6.59375 
Q 38.421875 6.59375 43.015625 9.90625 
Q 47.609375 13.234375 47.609375 19.390625 
Q 47.609375 24.75 44.3125 27.78125 
Q 41.015625 30.8125 33.5 32.328125 
L 27.484375 33.5 
Q 16.453125 35.6875 11.515625 40.375 
Q 6.59375 45.0625 6.59375 53.421875 
Q 6.59375 63.09375 13.40625 68.65625 
Q 20.21875 74.21875 32.171875 74.21875 
Q 37.3125 74.21875 42.625 73.28125 
Q 47.953125 72.359375 53.515625 70.515625 
z
" id="DejaVuSans-83"/>
     </defs>
     <g transform="translate(222.170156 20.793875)scale(0.1 -0.1)">
      <use xlink:href="#DejaVuSans-83"/>
      <use x="63.476562" xlink:href="#DejaVuSans-116"/>
      <use x="102.685547" xlink:href="#DejaVuSans-101"/>
      <use x="164.208984" xlink:href="#DejaVuSans-112"/>
      <use x="227.685547" xlink:href="#DejaVuSans-115"/>
     </g>
    </g>
   </g>
   <g id="patch_7">
    <path d="M 57.6 307.584 
L 57.6 41.472 
" style="fill:none;stroke:#000000;stroke-linecap:square;stroke-linejoin:miter;stroke-width:0.8;"/>
   </g>
   <g id="patch_8">
    <path d="M 414.72 307.584 
L 414.72 41.472 
" style="fill:none;stroke:#000000;stroke-linecap:square;stroke-linejoin:miter;stroke-width:0.8;"/>
   </g>
   <g id="patch_9">
    <path d="M 57.6 307.584 
L 414.72 307.584 
" style="fill:none;stroke:#000000;stroke-linecap:square;stroke-linejoin:miter;stroke-width:0.8;"/>
   </g>
   <g id="patch_10">
    <path d="M 57.6 41.472 
L 414.72 41.472 
" style="fill:none;stroke:#000000;stroke-linecap:square;stroke-linejoin:miter;stroke-width:0.8;"/>
   </g>
  </g>
 </g>
 <defs>
  <clipPath id="pf7963f5ed2">
   <rect height="266.112" width="357.12" x="57.6" y="41.472"/>
  </clipPath>
 </defs>
</svg>
