<?xml version="1.0" encoding="utf-8" standalone="no"?>
<!DOCTYPE svg PUBLIC "-//W3C//DTD SVG 1.1//EN"
  "http://www.w3.org/Graphics/SVG/1.1/DTD/svg11.dtd">
<!-- Created with matplotlib (https://matplotlib.org/) -->
<svg height="345.6pt" version="1.1" viewBox="0 0 460.8 345.6" width="460.8pt" xmlns="http://www.w3.org/2000/svg" xmlns:xlink="http://www.w3.org/1999/xlink">
 <defs>
  <style type="text/css">
*{stroke-linecap:butt;stroke-linejoin:round;}
  </style>
 </defs>
 <g id="figure_1">
  <g id="patch_1">
   <path d="M 0 345.6 
L 460.8 345.6 
L 460.8 0 
L 0 0 
z
" style="fill:#ffffff;"/>
  </g>
  <g id="axes_1">
   <g id="patch_2">
    <path d="M 57.6 307.584 
L 414.72 307.584 
L 414.72 41.472 
L 57.6 41.472 
z
" style="fill:#ffffff;"/>
   </g>
   <g id="matplotlib.axis_1">
    <g id="xtick_1">
     <g id="line2d_1">
      <path clip-path="url(#p0441ebe35c)" d="M 57.6 307.584 
L 57.6 41.472 
" style="fill:none;stroke:#b0b0b0;stroke-linecap:square;stroke-width:0.8;"/>
     </g>
     <g id="line2d_2">
      <defs>
       <path d="M 0 0 
L 0 3.5 
" id="mb5dc136e61" style="stroke:#000000;stroke-width:0.8;"/>
      </defs>
      <g>
       <use style="stroke:#000000;stroke-width:0.8;" x="57.6" xlink:href="#mb5dc136e61" y="307.584"/>
      </g>
     </g>
     <g id="text_1">
      <!-- 0.0 -->
      <defs>
       <path d="M 31.78125 66.40625 
Q 24.171875 66.40625 20.328125 58.90625 
Q 16.5 51.421875 16.5 36.375 
Q 16.5 21.390625 20.328125 13.890625 
Q 24.171875 6.390625 31.78125 6.390625 
Q 39.453125 6.390625 43.28125 13.890625 
Q 47.125 21.390625 47.125 36.375 
Q 47.125 51.421875 43.28125 58.90625 
Q 39.453125 66.40625 31.78125 66.40625 
z
M 31.78125 74.21875 
Q 44.046875 74.21875 50.515625 64.515625 
Q 56.984375 54.828125 56.984375 36.375 
Q 56.984375 17.96875 50.515625 8.265625 
Q 44.046875 -1.421875 31.78125 -1.421875 
Q 19.53125 -1.421875 13.0625 8.265625 
Q 6.59375 17.96875 6.59375 36.375 
Q 6.59375 54.828125 13.0625 64.515625 
Q 19.53125 74.21875 31.78125 74.21875 
z
" id="DejaVuSans-48"/>
       <path d="M 10.6875 12.40625 
L 21 12.40625 
L 21 0 
L 10.6875 0 
z
" id="DejaVuSans-46"/>
      </defs>
      <g transform="translate(49.648438 322.182437)scale(0.1 -0.1)">
       <use xlink:href="#DejaVuSans-48"/>
       <use x="63.623047" xlink:href="#DejaVuSans-46"/>
       <use x="95.410156" xlink:href="#DejaVuSans-48"/>
      </g>
     </g>
    </g>
    <g id="xtick_2">
     <g id="line2d_3">
      <path clip-path="url(#p0441ebe35c)" d="M 111.660675 307.584 
L 111.660675 41.472 
" style="fill:none;stroke:#b0b0b0;stroke-linecap:square;stroke-width:0.8;"/>
     </g>
     <g id="line2d_4">
      <g>
       <use style="stroke:#000000;stroke-width:0.8;" x="111.660675" xlink:href="#mb5dc136e61" y="307.584"/>
      </g>
     </g>
     <g id="text_2">
      <!-- 0.1 -->
      <defs>
       <path d="M 12.40625 8.296875 
L 28.515625 8.296875 
L 28.515625 63.921875 
L 10.984375 60.40625 
L 10.984375 69.390625 
L 28.421875 72.90625 
L 38.28125 72.90625 
L 38.28125 8.296875 
L 54.390625 8.296875 
L 54.390625 0 
L 12.40625 0 
z
" id="DejaVuSans-49"/>
      </defs>
      <g transform="translate(103.709113 322.182437)scale(0.1 -0.1)">
       <use xlink:href="#DejaVuSans-48"/>
       <use x="63.623047" xlink:href="#DejaVuSans-46"/>
       <use x="95.410156" xlink:href="#DejaVuSans-49"/>
      </g>
     </g>
    </g>
    <g id="xtick_3">
     <g id="line2d_5">
      <path clip-path="url(#p0441ebe35c)" d="M 165.72135 307.584 
L 165.72135 41.472 
" style="fill:none;stroke:#b0b0b0;stroke-linecap:square;stroke-width:0.8;"/>
     </g>
     <g id="line2d_6">
      <g>
       <use style="stroke:#000000;stroke-width:0.8;" x="165.72135" xlink:href="#mb5dc136e61" y="307.584"/>
      </g>
     </g>
     <g id="text_3">
      <!-- 0.2 -->
      <defs>
       <path d="M 19.1875 8.296875 
L 53.609375 8.296875 
L 53.609375 0 
L 7.328125 0 
L 7.328125 8.296875 
Q 12.9375 14.109375 22.625 23.890625 
Q 32.328125 33.6875 34.8125 36.53125 
Q 39.546875 41.84375 41.421875 45.53125 
Q 43.3125 49.21875 43.3125 52.78125 
Q 43.3125 58.59375 39.234375 62.25 
Q 35.15625 65.921875 28.609375 65.921875 
Q 23.96875 65.921875 18.8125 64.3125 
Q 13.671875 62.703125 7.8125 59.421875 
L 7.8125 69.390625 
Q 13.765625 71.78125 18.9375 73 
Q 24.125 74.21875 28.421875 74.21875 
Q 39.75 74.21875 46.484375 68.546875 
Q 53.21875 62.890625 53.21875 53.421875 
Q 53.21875 48.921875 51.53125 44.890625 
Q 49.859375 40.875 45.40625 35.40625 
Q 44.1875 33.984375 37.640625 27.21875 
Q 31.109375 20.453125 19.1875 8.296875 
z
" id="DejaVuSans-50"/>
      </defs>
      <g transform="translate(157.769788 322.182437)scale(0.1 -0.1)">
       <use xlink:href="#DejaVuSans-48"/>
       <use x="63.623047" xlink:href="#DejaVuSans-46"/>
       <use x="95.410156" xlink:href="#DejaVuSans-50"/>
      </g>
     </g>
    </g>
    <g id="xtick_4">
     <g id="line2d_7">
      <path clip-path="url(#p0441ebe35c)" d="M 219.782025 307.584 
L 219.782025 41.472 
" style="fill:none;stroke:#b0b0b0;stroke-linecap:square;stroke-width:0.8;"/>
     </g>
     <g id="line2d_8">
      <g>
       <use style="stroke:#000000;stroke-width:0.8;" x="219.782025" xlink:href="#mb5dc136e61" y="307.584"/>
      </g>
     </g>
     <g id="text_4">
      <!-- 0.3 -->
      <defs>
       <path d="M 40.578125 39.3125 
Q 47.65625 37.796875 51.625 33 
Q 55.609375 28.21875 55.609375 21.1875 
Q 55.609375 10.40625 48.1875 4.484375 
Q 40.765625 -1.421875 27.09375 -1.421875 
Q 22.515625 -1.421875 17.65625 -0.515625 
Q 12.796875 0.390625 7.625 2.203125 
L 7.625 11.71875 
Q 11.71875 9.328125 16.59375 8.109375 
Q 21.484375 6.890625 26.8125 6.890625 
Q 36.078125 6.890625 40.9375 10.546875 
Q 45.796875 14.203125 45.796875 21.1875 
Q 45.796875 27.640625 41.28125 31.265625 
Q 36.765625 34.90625 28.71875 34.90625 
L 20.21875 34.90625 
L 20.21875 43.015625 
L 29.109375 43.015625 
Q 36.375 43.015625 40.234375 45.921875 
Q 44.09375 48.828125 44.09375 54.296875 
Q 44.09375 59.90625 40.109375 62.90625 
Q 36.140625 65.921875 28.71875 65.921875 
Q 24.65625 65.921875 20.015625 65.03125 
Q 15.375 64.15625 9.8125 62.3125 
L 9.8125 71.09375 
Q 15.4375 72.65625 20.34375 73.4375 
Q 25.25 74.21875 29.59375 74.21875 
Q 40.828125 74.21875 47.359375 69.109375 
Q 53.90625 64.015625 53.90625 55.328125 
Q 53.90625 49.265625 50.4375 45.09375 
Q 46.96875 40.921875 40.578125 39.3125 
z
" id="DejaVuSans-51"/>
      </defs>
      <g transform="translate(211.830463 322.182437)scale(0.1 -0.1)">
       <use xlink:href="#DejaVuSans-48"/>
       <use x="63.623047" xlink:href="#DejaVuSans-46"/>
       <use x="95.410156" xlink:href="#DejaVuSans-51"/>
      </g>
     </g>
    </g>
    <g id="xtick_5">
     <g id="line2d_9">
      <path clip-path="url(#p0441ebe35c)" d="M 273.8427 307.584 
L 273.8427 41.472 
" style="fill:none;stroke:#b0b0b0;stroke-linecap:square;stroke-width:0.8;"/>
     </g>
     <g id="line2d_10">
      <g>
       <use style="stroke:#000000;stroke-width:0.8;" x="273.8427" xlink:href="#mb5dc136e61" y="307.584"/>
      </g>
     </g>
     <g id="text_5">
      <!-- 0.4 -->
      <defs>
       <path d="M 37.796875 64.3125 
L 12.890625 25.390625 
L 37.796875 25.390625 
z
M 35.203125 72.90625 
L 47.609375 72.90625 
L 47.609375 25.390625 
L 58.015625 25.390625 
L 58.015625 17.1875 
L 47.609375 17.1875 
L 47.609375 0 
L 37.796875 0 
L 37.796875 17.1875 
L 4.890625 17.1875 
L 4.890625 26.703125 
z
" id="DejaVuSans-52"/>
      </defs>
      <g transform="translate(265.891138 322.182437)scale(0.1 -0.1)">
       <use xlink:href="#DejaVuSans-48"/>
       <use x="63.623047" xlink:href="#DejaVuSans-46"/>
       <use x="95.410156" xlink:href="#DejaVuSans-52"/>
      </g>
     </g>
    </g>
    <g id="xtick_6">
     <g id="line2d_11">
      <path clip-path="url(#p0441ebe35c)" d="M 327.903376 307.584 
L 327.903376 41.472 
" style="fill:none;stroke:#b0b0b0;stroke-linecap:square;stroke-width:0.8;"/>
     </g>
     <g id="line2d_12">
      <g>
       <use style="stroke:#000000;stroke-width:0.8;" x="327.903376" xlink:href="#mb5dc136e61" y="307.584"/>
      </g>
     </g>
     <g id="text_6">
      <!-- 0.5 -->
      <defs>
       <path d="M 10.796875 72.90625 
L 49.515625 72.90625 
L 49.515625 64.59375 
L 19.828125 64.59375 
L 19.828125 46.734375 
Q 21.96875 47.46875 24.109375 47.828125 
Q 26.265625 48.1875 28.421875 48.1875 
Q 40.625 48.1875 47.75 41.5 
Q 54.890625 34.8125 54.890625 23.390625 
Q 54.890625 11.625 47.5625 5.09375 
Q 40.234375 -1.421875 26.90625 -1.421875 
Q 22.3125 -1.421875 17.546875 -0.640625 
Q 12.796875 0.140625 7.71875 1.703125 
L 7.71875 11.625 
Q 12.109375 9.234375 16.796875 8.0625 
Q 21.484375 6.890625 26.703125 6.890625 
Q 35.15625 6.890625 40.078125 11.328125 
Q 45.015625 15.765625 45.015625 23.390625 
Q 45.015625 31 40.078125 35.4375 
Q 35.15625 39.890625 26.703125 39.890625 
Q 22.75 39.890625 18.8125 39.015625 
Q 14.890625 38.140625 10.796875 36.28125 
z
" id="DejaVuSans-53"/>
      </defs>
      <g transform="translate(319.951813 322.182437)scale(0.1 -0.1)">
       <use xlink:href="#DejaVuSans-48"/>
       <use x="63.623047" xlink:href="#DejaVuSans-46"/>
       <use x="95.410156" xlink:href="#DejaVuSans-53"/>
      </g>
     </g>
    </g>
    <g id="xtick_7">
     <g id="line2d_13">
      <path clip-path="url(#p0441ebe35c)" d="M 381.964051 307.584 
L 381.964051 41.472 
" style="fill:none;stroke:#b0b0b0;stroke-linecap:square;stroke-width:0.8;"/>
     </g>
     <g id="line2d_14">
      <g>
       <use style="stroke:#000000;stroke-width:0.8;" x="381.964051" xlink:href="#mb5dc136e61" y="307.584"/>
      </g>
     </g>
     <g id="text_7">
      <!-- 0.6 -->
      <defs>
       <path d="M 33.015625 40.375 
Q 26.375 40.375 22.484375 35.828125 
Q 18.609375 31.296875 18.609375 23.390625 
Q 18.609375 15.53125 22.484375 10.953125 
Q 26.375 6.390625 33.015625 6.390625 
Q 39.65625 6.390625 43.53125 10.953125 
Q 47.40625 15.53125 47.40625 23.390625 
Q 47.40625 31.296875 43.53125 35.828125 
Q 39.65625 40.375 33.015625 40.375 
z
M 52.59375 71.296875 
L 52.59375 62.3125 
Q 48.875 64.0625 45.09375 64.984375 
Q 41.3125 65.921875 37.59375 65.921875 
Q 27.828125 65.921875 22.671875 59.328125 
Q 17.53125 52.734375 16.796875 39.40625 
Q 19.671875 43.65625 24.015625 45.921875 
Q 28.375 48.1875 33.59375 48.1875 
Q 44.578125 48.1875 50.953125 41.515625 
Q 57.328125 34.859375 57.328125 23.390625 
Q 57.328125 12.15625 50.6875 5.359375 
Q 44.046875 -1.421875 33.015625 -1.421875 
Q 20.359375 -1.421875 13.671875 8.265625 
Q 6.984375 17.96875 6.984375 36.375 
Q 6.984375 53.65625 15.1875 63.9375 
Q 23.390625 74.21875 37.203125 74.21875 
Q 40.921875 74.21875 44.703125 73.484375 
Q 48.484375 72.75 52.59375 71.296875 
z
" id="DejaVuSans-54"/>
      </defs>
      <g transform="translate(374.012488 322.182437)scale(0.1 -0.1)">
       <use xlink:href="#DejaVuSans-48"/>
       <use x="63.623047" xlink:href="#DejaVuSans-46"/>
       <use x="95.410156" xlink:href="#DejaVuSans-54"/>
      </g>
     </g>
    </g>
    <g id="text_8">
     <!-- Hours -->
     <defs>
      <path d="M 9.8125 72.90625 
L 19.671875 72.90625 
L 19.671875 43.015625 
L 55.515625 43.015625 
L 55.515625 72.90625 
L 65.375 72.90625 
L 65.375 0 
L 55.515625 0 
L 55.515625 34.71875 
L 19.671875 34.71875 
L 19.671875 0 
L 9.8125 0 
z
" id="DejaVuSans-72"/>
      <path d="M 30.609375 48.390625 
Q 23.390625 48.390625 19.1875 42.75 
Q 14.984375 37.109375 14.984375 27.296875 
Q 14.984375 17.484375 19.15625 11.84375 
Q 23.34375 6.203125 30.609375 6.203125 
Q 37.796875 6.203125 41.984375 11.859375 
Q 46.1875 17.53125 46.1875 27.296875 
Q 46.1875 37.015625 41.984375 42.703125 
Q 37.796875 48.390625 30.609375 48.390625 
z
M 30.609375 56 
Q 42.328125 56 49.015625 48.375 
Q 55.71875 40.765625 55.71875 27.296875 
Q 55.71875 13.875 49.015625 6.21875 
Q 42.328125 -1.421875 30.609375 -1.421875 
Q 18.84375 -1.421875 12.171875 6.21875 
Q 5.515625 13.875 5.515625 27.296875 
Q 5.515625 40.765625 12.171875 48.375 
Q 18.84375 56 30.609375 56 
z
" id="DejaVuSans-111"/>
      <path d="M 8.5 21.578125 
L 8.5 54.6875 
L 17.484375 54.6875 
L 17.484375 21.921875 
Q 17.484375 14.15625 20.5 10.265625 
Q 23.53125 6.390625 29.59375 6.390625 
Q 36.859375 6.390625 41.078125 11.03125 
Q 45.3125 15.671875 45.3125 23.6875 
L 45.3125 54.6875 
L 54.296875 54.6875 
L 54.296875 0 
L 45.3125 0 
L 45.3125 8.40625 
Q 42.046875 3.421875 37.71875 1 
Q 33.40625 -1.421875 27.6875 -1.421875 
Q 18.265625 -1.421875 13.375 4.4375 
Q 8.5 10.296875 8.5 21.578125 
z
M 31.109375 56 
z
" id="DejaVuSans-117"/>
      <path d="M 41.109375 46.296875 
Q 39.59375 47.171875 37.8125 47.578125 
Q 36.03125 48 33.890625 48 
Q 26.265625 48 22.1875 43.046875 
Q 18.109375 38.09375 18.109375 28.8125 
L 18.109375 0 
L 9.078125 0 
L 9.078125 54.6875 
L 18.109375 54.6875 
L 18.109375 46.1875 
Q 20.953125 51.171875 25.484375 53.578125 
Q 30.03125 56 36.53125 56 
Q 37.453125 56 38.578125 55.875 
Q 39.703125 55.765625 41.0625 55.515625 
z
" id="DejaVuSans-114"/>
      <path d="M 44.28125 53.078125 
L 44.28125 44.578125 
Q 40.484375 46.53125 36.375 47.5 
Q 32.28125 48.484375 27.875 48.484375 
Q 21.1875 48.484375 17.84375 46.4375 
Q 14.5 44.390625 14.5 40.28125 
Q 14.5 37.15625 16.890625 35.375 
Q 19.28125 33.59375 26.515625 31.984375 
L 29.59375 31.296875 
Q 39.15625 29.25 43.1875 25.515625 
Q 47.21875 21.78125 47.21875 15.09375 
Q 47.21875 7.46875 41.1875 3.015625 
Q 35.15625 -1.421875 24.609375 -1.421875 
Q 20.21875 -1.421875 15.453125 -0.5625 
Q 10.6875 0.296875 5.421875 2 
L 5.421875 11.28125 
Q 10.40625 8.6875 15.234375 7.390625 
Q 20.0625 6.109375 24.8125 6.109375 
Q 31.15625 6.109375 34.5625 8.28125 
Q 37.984375 10.453125 37.984375 14.40625 
Q 37.984375 18.0625 35.515625 20.015625 
Q 33.0625 21.96875 24.703125 23.78125 
L 21.578125 24.515625 
Q 13.234375 26.265625 9.515625 29.90625 
Q 5.8125 33.546875 5.8125 39.890625 
Q 5.8125 47.609375 11.28125 51.796875 
Q 16.75 56 26.8125 56 
Q 31.78125 56 36.171875 55.265625 
Q 40.578125 54.546875 44.28125 53.078125 
z
" id="DejaVuSans-115"/>
     </defs>
     <g transform="translate(221.511562 335.860562)scale(0.1 -0.1)">
      <use xlink:href="#DejaVuSans-72"/>
      <use x="75.195312" xlink:href="#DejaVuSans-111"/>
      <use x="136.376953" xlink:href="#DejaVuSans-117"/>
      <use x="199.755859" xlink:href="#DejaVuSans-114"/>
      <use x="240.869141" xlink:href="#DejaVuSans-115"/>
     </g>
    </g>
   </g>
   <g id="matplotlib.axis_2">
    <g id="ytick_1">
     <g id="line2d_15">
      <path clip-path="url(#p0441ebe35c)" d="M 57.6 288.154885 
L 414.72 288.154885 
" style="fill:none;stroke:#b0b0b0;stroke-linecap:square;stroke-width:0.8;"/>
     </g>
     <g id="line2d_16">
      <defs>
       <path d="M 0 0 
L -3.5 0 
" id="m9738eaafc1" style="stroke:#000000;stroke-width:0.8;"/>
      </defs>
      <g>
       <use style="stroke:#000000;stroke-width:0.8;" x="57.6" xlink:href="#m9738eaafc1" y="288.154885"/>
      </g>
     </g>
     <g id="text_9">
      <!-- −1.0 -->
      <defs>
       <path d="M 10.59375 35.5 
L 73.1875 35.5 
L 73.1875 27.203125 
L 10.59375 27.203125 
z
" id="DejaVuSans-8722"/>
      </defs>
      <g transform="translate(26.317187 291.954104)scale(0.1 -0.1)">
       <use xlink:href="#DejaVuSans-8722"/>
       <use x="83.789062" xlink:href="#DejaVuSans-49"/>
       <use x="147.412109" xlink:href="#DejaVuSans-46"/>
       <use x="179.199219" xlink:href="#DejaVuSans-48"/>
      </g>
     </g>
    </g>
    <g id="ytick_2">
     <g id="line2d_17">
      <path clip-path="url(#p0441ebe35c)" d="M 57.6 255.636299 
L 414.72 255.636299 
" style="fill:none;stroke:#b0b0b0;stroke-linecap:square;stroke-width:0.8;"/>
     </g>
     <g id="line2d_18">
      <g>
       <use style="stroke:#000000;stroke-width:0.8;" x="57.6" xlink:href="#m9738eaafc1" y="255.636299"/>
      </g>
     </g>
     <g id="text_10">
      <!-- −0.5 -->
      <g transform="translate(26.317187 259.435518)scale(0.1 -0.1)">
       <use xlink:href="#DejaVuSans-8722"/>
       <use x="83.789062" xlink:href="#DejaVuSans-48"/>
       <use x="147.412109" xlink:href="#DejaVuSans-46"/>
       <use x="179.199219" xlink:href="#DejaVuSans-53"/>
      </g>
     </g>
    </g>
    <g id="ytick_3">
     <g id="line2d_19">
      <path clip-path="url(#p0441ebe35c)" d="M 57.6 223.117713 
L 414.72 223.117713 
" style="fill:none;stroke:#b0b0b0;stroke-linecap:square;stroke-width:0.8;"/>
     </g>
     <g id="line2d_20">
      <g>
       <use style="stroke:#000000;stroke-width:0.8;" x="57.6" xlink:href="#m9738eaafc1" y="223.117713"/>
      </g>
     </g>
     <g id="text_11">
      <!-- 0.0 -->
      <g transform="translate(34.696875 226.916932)scale(0.1 -0.1)">
       <use xlink:href="#DejaVuSans-48"/>
       <use x="63.623047" xlink:href="#DejaVuSans-46"/>
       <use x="95.410156" xlink:href="#DejaVuSans-48"/>
      </g>
     </g>
    </g>
    <g id="ytick_4">
     <g id="line2d_21">
      <path clip-path="url(#p0441ebe35c)" d="M 57.6 190.599127 
L 414.72 190.599127 
" style="fill:none;stroke:#b0b0b0;stroke-linecap:square;stroke-width:0.8;"/>
     </g>
     <g id="line2d_22">
      <g>
       <use style="stroke:#000000;stroke-width:0.8;" x="57.6" xlink:href="#m9738eaafc1" y="190.599127"/>
      </g>
     </g>
     <g id="text_12">
      <!-- 0.5 -->
      <g transform="translate(34.696875 194.398346)scale(0.1 -0.1)">
       <use xlink:href="#DejaVuSans-48"/>
       <use x="63.623047" xlink:href="#DejaVuSans-46"/>
       <use x="95.410156" xlink:href="#DejaVuSans-53"/>
      </g>
     </g>
    </g>
    <g id="ytick_5">
     <g id="line2d_23">
      <path clip-path="url(#p0441ebe35c)" d="M 57.6 158.080541 
L 414.72 158.080541 
" style="fill:none;stroke:#b0b0b0;stroke-linecap:square;stroke-width:0.8;"/>
     </g>
     <g id="line2d_24">
      <g>
       <use style="stroke:#000000;stroke-width:0.8;" x="57.6" xlink:href="#m9738eaafc1" y="158.080541"/>
      </g>
     </g>
     <g id="text_13">
      <!-- 1.0 -->
      <g transform="translate(34.696875 161.87976)scale(0.1 -0.1)">
       <use xlink:href="#DejaVuSans-49"/>
       <use x="63.623047" xlink:href="#DejaVuSans-46"/>
       <use x="95.410156" xlink:href="#DejaVuSans-48"/>
      </g>
     </g>
    </g>
    <g id="ytick_6">
     <g id="line2d_25">
      <path clip-path="url(#p0441ebe35c)" d="M 57.6 125.561955 
L 414.72 125.561955 
" style="fill:none;stroke:#b0b0b0;stroke-linecap:square;stroke-width:0.8;"/>
     </g>
     <g id="line2d_26">
      <g>
       <use style="stroke:#000000;stroke-width:0.8;" x="57.6" xlink:href="#m9738eaafc1" y="125.561955"/>
      </g>
     </g>
     <g id="text_14">
      <!-- 1.5 -->
      <g transform="translate(34.696875 129.361174)scale(0.1 -0.1)">
       <use xlink:href="#DejaVuSans-49"/>
       <use x="63.623047" xlink:href="#DejaVuSans-46"/>
       <use x="95.410156" xlink:href="#DejaVuSans-53"/>
      </g>
     </g>
    </g>
    <g id="ytick_7">
     <g id="line2d_27">
      <path clip-path="url(#p0441ebe35c)" d="M 57.6 93.043369 
L 414.72 93.043369 
" style="fill:none;stroke:#b0b0b0;stroke-linecap:square;stroke-width:0.8;"/>
     </g>
     <g id="line2d_28">
      <g>
       <use style="stroke:#000000;stroke-width:0.8;" x="57.6" xlink:href="#m9738eaafc1" y="93.043369"/>
      </g>
     </g>
     <g id="text_15">
      <!-- 2.0 -->
      <g transform="translate(34.696875 96.842588)scale(0.1 -0.1)">
       <use xlink:href="#DejaVuSans-50"/>
       <use x="63.623047" xlink:href="#DejaVuSans-46"/>
       <use x="95.410156" xlink:href="#DejaVuSans-48"/>
      </g>
     </g>
    </g>
    <g id="ytick_8">
     <g id="line2d_29">
      <path clip-path="url(#p0441ebe35c)" d="M 57.6 60.524783 
L 414.72 60.524783 
" style="fill:none;stroke:#b0b0b0;stroke-linecap:square;stroke-width:0.8;"/>
     </g>
     <g id="line2d_30">
      <g>
       <use style="stroke:#000000;stroke-width:0.8;" x="57.6" xlink:href="#m9738eaafc1" y="60.524783"/>
      </g>
     </g>
     <g id="text_16">
      <!-- 2.5 -->
      <g transform="translate(34.696875 64.324002)scale(0.1 -0.1)">
       <use xlink:href="#DejaVuSans-50"/>
       <use x="63.623047" xlink:href="#DejaVuSans-46"/>
       <use x="95.410156" xlink:href="#DejaVuSans-53"/>
      </g>
     </g>
    </g>
    <g id="text_17">
     <!-- Total loss -->
     <defs>
      <path d="M -0.296875 72.90625 
L 61.375 72.90625 
L 61.375 64.59375 
L 35.5 64.59375 
L 35.5 0 
L 25.59375 0 
L 25.59375 64.59375 
L -0.296875 64.59375 
z
" id="DejaVuSans-84"/>
      <path d="M 18.3125 70.21875 
L 18.3125 54.6875 
L 36.8125 54.6875 
L 36.8125 47.703125 
L 18.3125 47.703125 
L 18.3125 18.015625 
Q 18.3125 11.328125 20.140625 9.421875 
Q 21.96875 7.515625 27.59375 7.515625 
L 36.8125 7.515625 
L 36.8125 0 
L 27.59375 0 
Q 17.1875 0 13.234375 3.875 
Q 9.28125 7.765625 9.28125 18.015625 
L 9.28125 47.703125 
L 2.6875 47.703125 
L 2.6875 54.6875 
L 9.28125 54.6875 
L 9.28125 70.21875 
z
" id="DejaVuSans-116"/>
      <path d="M 34.28125 27.484375 
Q 23.390625 27.484375 19.1875 25 
Q 14.984375 22.515625 14.984375 16.5 
Q 14.984375 11.71875 18.140625 8.90625 
Q 21.296875 6.109375 26.703125 6.109375 
Q 34.1875 6.109375 38.703125 11.40625 
Q 43.21875 16.703125 43.21875 25.484375 
L 43.21875 27.484375 
z
M 52.203125 31.203125 
L 52.203125 0 
L 43.21875 0 
L 43.21875 8.296875 
Q 40.140625 3.328125 35.546875 0.953125 
Q 30.953125 -1.421875 24.3125 -1.421875 
Q 15.921875 -1.421875 10.953125 3.296875 
Q 6 8.015625 6 15.921875 
Q 6 25.140625 12.171875 29.828125 
Q 18.359375 34.515625 30.609375 34.515625 
L 43.21875 34.515625 
L 43.21875 35.40625 
Q 43.21875 41.609375 39.140625 45 
Q 35.0625 48.390625 27.6875 48.390625 
Q 23 48.390625 18.546875 47.265625 
Q 14.109375 46.140625 10.015625 43.890625 
L 10.015625 52.203125 
Q 14.9375 54.109375 19.578125 55.046875 
Q 24.21875 56 28.609375 56 
Q 40.484375 56 46.34375 49.84375 
Q 52.203125 43.703125 52.203125 31.203125 
z
" id="DejaVuSans-97"/>
      <path d="M 9.421875 75.984375 
L 18.40625 75.984375 
L 18.40625 0 
L 9.421875 0 
z
" id="DejaVuSans-108"/>
      <path id="DejaVuSans-32"/>
     </defs>
     <g transform="translate(20.2375 198.288156)rotate(-90)scale(0.1 -0.1)">
      <use xlink:href="#DejaVuSans-84"/>
      <use x="60.818359" xlink:href="#DejaVuSans-111"/>
      <use x="122" xlink:href="#DejaVuSans-116"/>
      <use x="161.208984" xlink:href="#DejaVuSans-97"/>
      <use x="222.488281" xlink:href="#DejaVuSans-108"/>
      <use x="250.271484" xlink:href="#DejaVuSans-32"/>
      <use x="282.058594" xlink:href="#DejaVuSans-108"/>
      <use x="309.841797" xlink:href="#DejaVuSans-111"/>
      <use x="371.023438" xlink:href="#DejaVuSans-115"/>
      <use x="423.123047" xlink:href="#DejaVuSans-115"/>
     </g>
    </g>
   </g>
   <g id="line2d_31">
    <path clip-path="url(#p0441ebe35c)" d="M 57.6 263.455018 
L 58.352627 216.125225 
L 59.73761 154.531442 
L 60.469183 179.647317 
L 61.182606 222.789019 
L 61.906196 173.68081 
L 62.630619 115.3552 
L 63.332205 156.998465 
L 64.048968 180.025103 
L 64.740958 182.162654 
L 65.428104 213.067286 
L 66.149974 187.457849 
L 66.875088 156.503473 
L 67.649644 203.843175 
L 68.397463 196.510512 
L 69.061919 198.256332 
L 69.71778 190.359217 
L 70.45107 137.744826 
L 71.19953 157.31351 
L 71.891392 211.35942 
L 72.606786 178.03036 
L 73.299246 196.179197 
L 74.028167 176.528066 
L 74.683783 172.963449 
L 75.410418 162.057476 
L 76.133897 187.488946 
L 76.827885 199.25043 
L 77.580712 177.540946 
L 79.101896 184.899243 
L 79.825277 177.168719 
L 80.493439 212.962445 
L 81.236614 179.357319 
L 82.004824 135.505447 
L 82.702278 177.909599 
L 83.422938 198.326538 
L 84.213701 180.718705 
L 84.980786 178.093384 
L 85.672158 167.23446 
L 86.372632 162.461626 
L 87.082952 228.454644 
L 87.783042 170.337547 
L 88.538512 178.835625 
L 89.253937 192.752209 
L 89.912364 172.572824 
L 90.758932 215.888159 
L 91.59647 152.944659 
L 92.254859 173.550761 
L 93.015934 186.047297 
L 93.729123 212.22136 
L 94.391803 169.959625 
L 95.120741 168.36231 
L 95.872084 164.243207 
L 96.502546 193.882663 
L 97.199111 160.651788 
L 97.949593 162.668523 
L 98.581474 150.257721 
L 99.365239 242.14496 
L 100.050976 188.649855 
L 100.807613 170.106095 
L 101.474174 162.273948 
L 102.188161 214.132636 
L 102.910525 143.90017 
L 103.633313 149.670545 
L 104.32455 203.82878 
L 105.047642 152.52705 
L 105.781384 181.156492 
L 107.976443 191.745832 
L 108.701686 184.21013 
L 109.387687 245.482808 
L 110.114264 157.5833 
L 110.836622 157.145153 
L 111.498061 190.541037 
L 112.277156 215.63966 
L 112.948151 181.846008 
L 113.724693 195.988337 
L 114.425683 179.871155 
L 115.118093 214.55396 
L 115.829192 123.000654 
L 116.525612 221.098262 
L 117.222136 220.449516 
L 117.944442 134.832778 
L 118.659048 149.187996 
L 119.322027 181.584491 
L 120.073937 200.51935 
L 120.797853 203.1832 
L 121.49534 174.572371 
L 122.250137 230.893449 
L 122.946337 139.106298 
L 123.627336 203.143869 
L 124.3879 139.748164 
L 125.049146 179.989587 
L 125.734188 149.18636 
L 126.491864 177.402151 
L 127.185683 190.357686 
L 127.910996 156.73066 
L 128.594499 222.466742 
L 129.323165 221.828148 
L 129.984431 156.0797 
L 130.70153 159.429693 
L 131.454961 222.864689 
L 132.153954 196.807153 
L 132.901176 128.140095 
L 133.59706 206.986979 
L 134.293657 188.88654 
L 134.975956 73.742684 
L 135.729888 192.353935 
L 136.421315 218.841645 
L 137.147032 158.202097 
L 137.873228 202.31272 
L 138.559325 91.84582 
L 139.225732 208.597551 
L 139.977193 171.743839 
L 140.647716 202.367172 
L 141.338419 227.968594 
L 142.020517 145.777118 
L 142.774625 134.677183 
L 143.472515 254.46775 
L 144.22047 200.91578 
L 144.910677 165.414823 
L 145.636783 199.599759 
L 146.32892 223.666394 
L 147.027401 153.112156 
L 148.463373 285.194737 
L 149.219469 208.251231 
L 149.915728 98.141284 
L 150.570096 211.528461 
L 151.322172 192.635807 
L 151.985308 204.054081 
L 152.707818 195.463734 
L 153.429405 157.242957 
L 154.159558 208.856485 
L 154.882669 228.987985 
L 155.528944 137.847275 
L 156.229934 198.9138 
L 156.956183 110.629315 
L 157.708106 200.078616 
L 158.426265 123.584729 
L 159.126366 186.968004 
L 159.819756 215.659563 
L 161.197661 165.136574 
L 161.953239 149.918487 
L 162.553258 226.921626 
L 163.337204 87.44881 
L 164.032304 128.763679 
L 164.72463 162.538819 
L 165.411546 184.183347 
L 166.138366 182.0232 
L 166.796421 107.336027 
L 167.553986 280.045656 
L 168.241459 150.737827 
L 168.992852 227.644192 
L 169.686069 174.996923 
L 171.107436 81.617566 
L 171.775607 149.079321 
L 172.496438 237.968938 
L 173.243916 265.811196 
L 173.965718 137.83963 
L 174.652381 231.125527 
L 175.376514 102.116606 
L 176.037368 235.003452 
L 176.789881 166.920137 
L 177.452069 157.598364 
L 178.236265 237.627408 
L 179.626499 130.984249 
L 180.346992 213.10031 
L 181.04368 173.077865 
L 181.73386 180.729017 
L 182.424719 195.979718 
L 183.146687 194.716812 
L 183.864242 151.288394 
L 184.592175 178.383724 
L 185.254785 155.546802 
L 185.941799 192.77716 
L 186.664248 241.756924 
L 187.393216 151.279881 
L 188.10946 172.85557 
L 188.837678 295.488 
L 189.524428 127.547034 
L 190.252445 223.766298 
L 190.939415 168.029863 
L 191.631999 203.02535 
L 192.354384 133.036129 
L 193.161398 251.246932 
L 193.91233 168.103009 
L 194.518002 130.876374 
L 195.298417 145.227303 
L 195.962317 149.38683 
L 196.677258 96.747645 
L 197.369564 171.146754 
L 198.034339 178.662287 
L 198.789935 280.959429 
L 199.511293 138.749906 
L 200.233769 235.968139 
L 200.956705 168.79912 
L 201.649414 209.375577 
L 203.16236 108.809166 
L 203.889759 201.762354 
L 204.612567 228.030817 
L 205.335069 166.921435 
L 206.056038 231.45789 
L 206.698424 166.595505 
L 207.473981 221.275081 
L 208.159162 168.886729 
L 209.573733 241.695105 
L 210.270182 185.811604 
L 210.993537 196.52319 
L 211.680879 186.224469 
L 212.379991 234.11218 
L 213.096499 191.571297 
L 213.825838 112.068045 
L 214.5179 177.568589 
L 215.24013 155.867173 
L 215.925777 200.083471 
L 216.654244 222.667067 
L 217.345637 97.293893 
L 218.06867 123.178664 
L 218.790912 242.005403 
L 219.485952 201.345539 
L 220.145149 194.834906 
L 220.897341 192.939594 
L 221.589795 141.965896 
L 222.277638 144.174465 
L 223.005313 229.694177 
L 223.692438 249.097048 
L 224.398391 212.643197 
L 225.143364 118.500049 
L 225.860353 165.695211 
L 226.583736 188.28188 
L 227.281667 155.353783 
L 228.002643 111.484017 
L 228.696179 184.927514 
L 229.418859 188.831396 
L 230.140701 217.081798 
L 230.797134 151.820903 
L 231.527207 209.957504 
L 232.276626 242.491615 
L 232.964306 171.308215 
L 234.349128 144.351838 
L 235.071979 184.190189 
L 235.769041 272.081878 
L 236.486469 53.568 
L 237.209111 95.898277 
L 237.907514 161.994401 
L 238.624457 292.570688 
L 239.353165 207.891879 
L 240.045341 165.660381 
L 240.741226 166.990088 
L 241.489339 170.806714 
L 242.176292 173.524843 
L 242.904716 156.118333 
L 243.598245 233.975223 
L 244.319749 187.344918 
L 245.012645 181.93399 
L 245.698278 183.785849 
L 246.427404 195.433464 
L 247.149197 154.628246 
L 247.865925 222.045889 
L 248.564917 219.955272 
L 249.226032 212.256566 
L 249.973434 155.656237 
L 250.670901 230.231393 
L 251.388191 154.027735 
L 252.808265 229.025001 
L 253.531033 173.386621 
L 254.223306 174.014893 
L 254.915843 211.610366 
L 255.639226 152.645617 
L 256.302434 251.622894 
L 257.054002 171.343747 
L 257.745846 168.21401 
L 258.470519 205.839499 
L 259.154708 178.82757 
L 259.851147 78.913866 
L 260.547377 177.659649 
L 261.262037 202.346518 
L 261.990834 193.962514 
L 262.681475 148.012077 
L 263.339663 287.941238 
L 264.06738 181.725321 
L 264.754622 108.339991 
L 265.452002 218.791194 
L 266.140728 188.56896 
L 266.891684 170.682471 
L 268.306757 241.165639 
L 269.029288 117.321052 
L 269.671207 183.981656 
L 270.448184 180.688081 
L 271.829348 165.873865 
L 272.557944 220.071965 
L 273.281981 220.755376 
L 273.943757 222.767648 
L 274.634447 221.114061 
L 275.297231 196.503615 
L 275.985026 185.791881 
L 276.684253 234.001256 
L 277.376043 203.636386 
L 278.065584 239.878751 
L 278.790819 191.993107 
L 279.479857 236.071248 
L 280.175325 197.784593 
L 280.897087 135.918451 
L 281.619291 204.971903 
L 282.346528 253.34951 
L 283.029908 180.713864 
L 283.727694 120.931625 
L 284.389886 120.524482 
L 285.10776 148.260911 
L 286.53013 191.072787 
L 287.215152 187.660606 
L 287.974137 218.087807 
L 288.634823 231.615921 
L 289.389436 193.131353 
L 290.082489 208.33536 
L 290.77398 204.173596 
L 291.466141 207.994748 
L 292.21787 173.869341 
L 292.93483 154.859628 
L 293.631643 192.262217 
L 294.355819 160.667857 
L 295.012117 228.9283 
L 295.739955 193.556753 
L 296.462855 199.220211 
L 297.149582 186.273073 
L 297.910542 214.685519 
L 298.600905 235.544293 
L 299.317224 188.596138 
L 299.97945 188.416655 
L 300.732252 196.415448 
L 301.424505 101.785435 
L 302.153686 193.01141 
L 302.876879 190.996464 
L 303.562201 221.133253 
L 304.228786 170.488603 
L 304.952089 155.241674 
L 305.643705 153.829358 
L 306.391755 191.96163 
L 307.085872 197.580857 
L 307.839166 233.561405 
L 308.507207 168.38201 
L 309.257527 184.474031 
L 309.944886 186.154025 
L 310.643566 225.274569 
L 311.421367 230.147098 
L 312.178126 182.924886 
L 312.867082 110.00918 
L 313.508384 151.446432 
L 314.283391 189.973755 
L 315.007886 210.639169 
L 315.668795 160.090825 
L 316.423033 196.605167 
L 317.144823 155.589739 
L 317.806984 166.848658 
L 318.499275 259.356686 
L 319.186293 161.483251 
L 319.944575 212.946673 
L 320.632379 202.73057 
L 321.323777 188.346312 
L 322.052586 151.10581 
L 322.776653 178.624646 
L 323.461437 154.984816 
L 324.153796 168.883903 
L 324.878192 202.6411 
L 325.598986 198.306824 
L 326.295918 191.070732 
L 326.983275 208.812659 
L 327.739916 213.782933 
L 328.404349 213.303328 
L 329.121183 115.662546 
L 329.843658 124.239799 
L 330.505952 262.448356 
L 331.258915 181.048593 
L 331.951118 166.494131 
L 332.643485 137.858563 
L 333.341294 179.518962 
L 334.061727 150.51685 
L 334.7812 174.069807 
L 335.503927 172.40344 
L 336.172048 218.408741 
L 336.926892 187.963924 
L 337.617855 196.100031 
L 338.279487 198.934159 
L 338.995738 183.657521 
L 339.693721 182.900309 
L 340.415261 146.547436 
L 341.133121 208.215863 
L 341.825807 189.275564 
L 342.553537 214.746695 
L 343.274554 201.535391 
L 343.936751 130.047341 
L 344.659622 205.830668 
L 345.35351 184.307372 
L 346.01006 99.336321 
L 346.734404 208.582035 
L 347.485873 203.968858 
L 348.177971 214.257426 
L 348.903885 148.771758 
L 349.597894 183.33268 
L 350.291966 166.664011 
L 350.978584 176.064396 
L 351.703662 227.810377 
L 352.453211 122.744122 
L 353.151492 157.140059 
L 353.80816 183.665452 
L 354.53499 186.196725 
L 355.229825 190.081705 
L 355.950865 142.839772 
L 356.637942 138.899904 
L 357.390775 193.877957 
L 358.088846 144.624551 
L 358.781737 178.910981 
L 359.473378 198.282776 
L 360.169088 182.941532 
L 360.889498 204.353174 
L 361.575877 183.621473 
L 362.273779 147.736938 
L 363.020709 181.427422 
L 363.748752 162.494406 
L 364.443107 203.476059 
L 365.163092 181.672732 
L 365.850753 128.415529 
L 366.549637 177.34536 
L 367.265831 164.574386 
L 367.98828 217.069656 
L 368.710857 168.807229 
L 369.374738 177.175138 
L 370.129933 168.3405 
L 370.789815 223.635835 
L 371.518348 175.988935 
L 372.269303 176.371745 
L 372.926994 153.240802 
L 373.649652 207.589966 
L 374.379323 252.260877 
L 375.039749 79.341073 
L 375.76426 180.931933 
L 376.485994 233.182786 
L 377.173063 152.873223 
L 377.895244 191.087653 
L 378.564408 162.657627 
L 379.286351 155.485236 
L 380.002497 255.366338 
L 380.69565 141.296864 
L 381.418128 186.558636 
L 382.118458 190.204086 
L 382.802803 201.925371 
L 383.530731 231.054823 
L 384.187595 192.547121 
L 384.946504 213.810152 
L 385.572158 151.855931 
L 386.324797 150.617337 
L 387.023051 177.857335 
L 387.714999 180.358445 
L 388.468864 187.932304 
L 389.159415 112.225269 
L 389.847209 224.810868 
L 391.262386 154.95737 
L 391.959736 200.584402 
L 392.711898 190.290033 
L 393.400522 139.85804 
L 394.129639 178.364562 
L 394.789524 226.647672 
L 395.477449 190.390214 
L 396.233176 167.301512 
L 396.928868 187.055761 
L 397.674543 149.196222 
L 398.372322 200.019272 
L 399.040369 191.066478 
L 399.787663 149.36033 
L 400.47988 204.515538 
L 401.230195 213.94014 
L 401.954015 148.50479 
L 402.646335 162.108436 
L 403.369112 190.306438 
L 404.062647 171.714206 
L 404.786516 148.437688 
L 405.478134 163.612878 
L 406.164959 142.236012 
L 406.920524 184.770701 
L 407.643504 171.688354 
L 408.362341 177.226099 
L 409.059254 147.836874 
L 409.75308 173.001377 
L 410.469482 207.887085 
L 411.199641 184.266739 
L 411.891647 212.446077 
L 412.607017 162.865361 
L 413.299808 179.322896 
L 414.029878 140.161625 
L 414.72 198.208376 
L 414.72 198.208376 
" style="fill:none;stroke:#000000;stroke-linecap:square;stroke-width:0.8;"/>
   </g>
   <g id="patch_3">
    <path d="M 57.6 307.584 
L 57.6 41.472 
" style="fill:none;stroke:#000000;stroke-linecap:square;stroke-linejoin:miter;stroke-width:0.8;"/>
   </g>
   <g id="patch_4">
    <path d="M 414.72 307.584 
L 414.72 41.472 
" style="fill:none;stroke:#000000;stroke-linecap:square;stroke-linejoin:miter;stroke-width:0.8;"/>
   </g>
   <g id="patch_5">
    <path d="M 57.6 307.584 
L 414.72 307.584 
" style="fill:none;stroke:#000000;stroke-linecap:square;stroke-linejoin:miter;stroke-width:0.8;"/>
   </g>
   <g id="patch_6">
    <path d="M 57.6 41.472 
L 414.72 41.472 
" style="fill:none;stroke:#000000;stroke-linecap:square;stroke-linejoin:miter;stroke-width:0.8;"/>
   </g>
  </g>
  <g id="axes_2">
   <g id="matplotlib.axis_3">
    <g id="xtick_8">
     <g id="line2d_32">
      <defs>
       <path d="M 0 0 
L 0 -3.5 
" id="m7f97f07458" style="stroke:#000000;stroke-width:0.8;"/>
      </defs>
      <g>
       <use style="stroke:#000000;stroke-width:0.8;" x="57.6" xlink:href="#m7f97f07458" y="41.472"/>
      </g>
     </g>
    </g>
    <g id="xtick_9">
     <g id="line2d_33">
      <g>
       <use style="stroke:#000000;stroke-width:0.8;" x="101.886263" xlink:href="#m7f97f07458" y="41.472"/>
      </g>
     </g>
     <g id="text_18">
      <!-- 10.0K -->
      <defs>
       <path d="M 9.8125 72.90625 
L 19.671875 72.90625 
L 19.671875 42.09375 
L 52.390625 72.90625 
L 65.09375 72.90625 
L 28.90625 38.921875 
L 67.671875 0 
L 54.6875 0 
L 19.671875 35.109375 
L 19.671875 0 
L 9.8125 0 
z
" id="DejaVuSans-75"/>
      </defs>
      <g transform="translate(87.474545 32.392313)scale(0.1 -0.1)">
       <use xlink:href="#DejaVuSans-49"/>
       <use x="63.623047" xlink:href="#DejaVuSans-48"/>
       <use x="127.246094" xlink:href="#DejaVuSans-46"/>
       <use x="159.033203" xlink:href="#DejaVuSans-48"/>
       <use x="222.65625" xlink:href="#DejaVuSans-75"/>
      </g>
     </g>
    </g>
    <g id="xtick_10">
     <g id="line2d_34">
      <g>
       <use style="stroke:#000000;stroke-width:0.8;" x="146.172527" xlink:href="#m7f97f07458" y="41.472"/>
      </g>
     </g>
     <g id="text_19">
      <!-- 20.0K -->
      <g transform="translate(131.760808 32.392313)scale(0.1 -0.1)">
       <use xlink:href="#DejaVuSans-50"/>
       <use x="63.623047" xlink:href="#DejaVuSans-48"/>
       <use x="127.246094" xlink:href="#DejaVuSans-46"/>
       <use x="159.033203" xlink:href="#DejaVuSans-48"/>
       <use x="222.65625" xlink:href="#DejaVuSans-75"/>
      </g>
     </g>
    </g>
    <g id="xtick_11">
     <g id="line2d_35">
      <g>
       <use style="stroke:#000000;stroke-width:0.8;" x="190.45879" xlink:href="#m7f97f07458" y="41.472"/>
      </g>
     </g>
     <g id="text_20">
      <!-- 30.0K -->
      <g transform="translate(176.047072 32.392313)scale(0.1 -0.1)">
       <use xlink:href="#DejaVuSans-51"/>
       <use x="63.623047" xlink:href="#DejaVuSans-48"/>
       <use x="127.246094" xlink:href="#DejaVuSans-46"/>
       <use x="159.033203" xlink:href="#DejaVuSans-48"/>
       <use x="222.65625" xlink:href="#DejaVuSans-75"/>
      </g>
     </g>
    </g>
    <g id="xtick_12">
     <g id="line2d_36">
      <g>
       <use style="stroke:#000000;stroke-width:0.8;" x="234.745054" xlink:href="#m7f97f07458" y="41.472"/>
      </g>
     </g>
     <g id="text_21">
      <!-- 40.0K -->
      <g transform="translate(220.333335 32.392313)scale(0.1 -0.1)">
       <use xlink:href="#DejaVuSans-52"/>
       <use x="63.623047" xlink:href="#DejaVuSans-48"/>
       <use x="127.246094" xlink:href="#DejaVuSans-46"/>
       <use x="159.033203" xlink:href="#DejaVuSans-48"/>
       <use x="222.65625" xlink:href="#DejaVuSans-75"/>
      </g>
     </g>
    </g>
    <g id="xtick_13">
     <g id="line2d_37">
      <g>
       <use style="stroke:#000000;stroke-width:0.8;" x="279.031317" xlink:href="#m7f97f07458" y="41.472"/>
      </g>
     </g>
     <g id="text_22">
      <!-- 50.0K -->
      <g transform="translate(264.619599 32.392313)scale(0.1 -0.1)">
       <use xlink:href="#DejaVuSans-53"/>
       <use x="63.623047" xlink:href="#DejaVuSans-48"/>
       <use x="127.246094" xlink:href="#DejaVuSans-46"/>
       <use x="159.033203" xlink:href="#DejaVuSans-48"/>
       <use x="222.65625" xlink:href="#DejaVuSans-75"/>
      </g>
     </g>
    </g>
    <g id="xtick_14">
     <g id="line2d_38">
      <g>
       <use style="stroke:#000000;stroke-width:0.8;" x="323.317581" xlink:href="#m7f97f07458" y="41.472"/>
      </g>
     </g>
     <g id="text_23">
      <!-- 60.0K -->
      <g transform="translate(308.905862 32.392313)scale(0.1 -0.1)">
       <use xlink:href="#DejaVuSans-54"/>
       <use x="63.623047" xlink:href="#DejaVuSans-48"/>
       <use x="127.246094" xlink:href="#DejaVuSans-46"/>
       <use x="159.033203" xlink:href="#DejaVuSans-48"/>
       <use x="222.65625" xlink:href="#DejaVuSans-75"/>
      </g>
     </g>
    </g>
    <g id="xtick_15">
     <g id="line2d_39">
      <g>
       <use style="stroke:#000000;stroke-width:0.8;" x="367.603844" xlink:href="#m7f97f07458" y="41.472"/>
      </g>
     </g>
     <g id="text_24">
      <!-- 70.0K -->
      <defs>
       <path d="M 8.203125 72.90625 
L 55.078125 72.90625 
L 55.078125 68.703125 
L 28.609375 0 
L 18.3125 0 
L 43.21875 64.59375 
L 8.203125 64.59375 
z
" id="DejaVuSans-55"/>
      </defs>
      <g transform="translate(353.192126 32.392313)scale(0.1 -0.1)">
       <use xlink:href="#DejaVuSans-55"/>
       <use x="63.623047" xlink:href="#DejaVuSans-48"/>
       <use x="127.246094" xlink:href="#DejaVuSans-46"/>
       <use x="159.033203" xlink:href="#DejaVuSans-48"/>
       <use x="222.65625" xlink:href="#DejaVuSans-75"/>
      </g>
     </g>
    </g>
    <g id="xtick_16">
     <g id="line2d_40">
      <g>
       <use style="stroke:#000000;stroke-width:0.8;" x="411.890108" xlink:href="#m7f97f07458" y="41.472"/>
      </g>
     </g>
     <g id="text_25">
      <!-- 80.0K -->
      <defs>
       <path d="M 31.78125 34.625 
Q 24.75 34.625 20.71875 30.859375 
Q 16.703125 27.09375 16.703125 20.515625 
Q 16.703125 13.921875 20.71875 10.15625 
Q 24.75 6.390625 31.78125 6.390625 
Q 38.8125 6.390625 42.859375 10.171875 
Q 46.921875 13.96875 46.921875 20.515625 
Q 46.921875 27.09375 42.890625 30.859375 
Q 38.875 34.625 31.78125 34.625 
z
M 21.921875 38.8125 
Q 15.578125 40.375 12.03125 44.71875 
Q 8.5 49.078125 8.5 55.328125 
Q 8.5 64.0625 14.71875 69.140625 
Q 20.953125 74.21875 31.78125 74.21875 
Q 42.671875 74.21875 48.875 69.140625 
Q 55.078125 64.0625 55.078125 55.328125 
Q 55.078125 49.078125 51.53125 44.71875 
Q 48 40.375 41.703125 38.8125 
Q 48.828125 37.15625 52.796875 32.3125 
Q 56.78125 27.484375 56.78125 20.515625 
Q 56.78125 9.90625 50.3125 4.234375 
Q 43.84375 -1.421875 31.78125 -1.421875 
Q 19.734375 -1.421875 13.25 4.234375 
Q 6.78125 9.90625 6.78125 20.515625 
Q 6.78125 27.484375 10.78125 32.3125 
Q 14.796875 37.15625 21.921875 38.8125 
z
M 18.3125 54.390625 
Q 18.3125 48.734375 21.84375 45.5625 
Q 25.390625 42.390625 31.78125 42.390625 
Q 38.140625 42.390625 41.71875 45.5625 
Q 45.3125 48.734375 45.3125 54.390625 
Q 45.3125 60.0625 41.71875 63.234375 
Q 38.140625 66.40625 31.78125 66.40625 
Q 25.390625 66.40625 21.84375 63.234375 
Q 18.3125 60.0625 18.3125 54.390625 
z
" id="DejaVuSans-56"/>
      </defs>
      <g transform="translate(397.478389 32.392313)scale(0.1 -0.1)">
       <use xlink:href="#DejaVuSans-56"/>
       <use x="63.623047" xlink:href="#DejaVuSans-48"/>
       <use x="127.246094" xlink:href="#DejaVuSans-46"/>
       <use x="159.033203" xlink:href="#DejaVuSans-48"/>
       <use x="222.65625" xlink:href="#DejaVuSans-75"/>
      </g>
     </g>
    </g>
    <g id="text_26">
     <!-- Steps -->
     <defs>
      <path d="M 53.515625 70.515625 
L 53.515625 60.890625 
Q 47.90625 63.578125 42.921875 64.890625 
Q 37.9375 66.21875 33.296875 66.21875 
Q 25.25 66.21875 20.875 63.09375 
Q 16.5 59.96875 16.5 54.203125 
Q 16.5 49.359375 19.40625 46.890625 
Q 22.3125 44.4375 30.421875 42.921875 
L 36.375 41.703125 
Q 47.40625 39.59375 52.65625 34.296875 
Q 57.90625 29 57.90625 20.125 
Q 57.90625 9.515625 50.796875 4.046875 
Q 43.703125 -1.421875 29.984375 -1.421875 
Q 24.8125 -1.421875 18.96875 -0.25 
Q 13.140625 0.921875 6.890625 3.21875 
L 6.890625 13.375 
Q 12.890625 10.015625 18.65625 8.296875 
Q 24.421875 6.59375 29.984375 6.59375 
Q 38.421875 6.59375 43.015625 9.90625 
Q 47.609375 13.234375 47.609375 19.390625 
Q 47.609375 24.75 44.3125 27.78125 
Q 41.015625 30.8125 33.5 32.328125 
L 27.484375 33.5 
Q 16.453125 35.6875 11.515625 40.375 
Q 6.59375 45.0625 6.59375 53.421875 
Q 6.59375 63.09375 13.40625 68.65625 
Q 20.21875 74.21875 32.171875 74.21875 
Q 37.3125 74.21875 42.625 73.28125 
Q 47.953125 72.359375 53.515625 70.515625 
z
" id="DejaVuSans-83"/>
      <path d="M 56.203125 29.59375 
L 56.203125 25.203125 
L 14.890625 25.203125 
Q 15.484375 15.921875 20.484375 11.0625 
Q 25.484375 6.203125 34.421875 6.203125 
Q 39.59375 6.203125 44.453125 7.46875 
Q 49.3125 8.734375 54.109375 11.28125 
L 54.109375 2.78125 
Q 49.265625 0.734375 44.1875 -0.34375 
Q 39.109375 -1.421875 33.890625 -1.421875 
Q 20.796875 -1.421875 13.15625 6.1875 
Q 5.515625 13.8125 5.515625 26.8125 
Q 5.515625 40.234375 12.765625 48.109375 
Q 20.015625 56 32.328125 56 
Q 43.359375 56 49.78125 48.890625 
Q 56.203125 41.796875 56.203125 29.59375 
z
M 47.21875 32.234375 
Q 47.125 39.59375 43.09375 43.984375 
Q 39.0625 48.390625 32.421875 48.390625 
Q 24.90625 48.390625 20.390625 44.140625 
Q 15.875 39.890625 15.1875 32.171875 
z
" id="DejaVuSans-101"/>
      <path d="M 18.109375 8.203125 
L 18.109375 -20.796875 
L 9.078125 -20.796875 
L 9.078125 54.6875 
L 18.109375 54.6875 
L 18.109375 46.390625 
Q 20.953125 51.265625 25.265625 53.625 
Q 29.59375 56 35.59375 56 
Q 45.5625 56 51.78125 48.09375 
Q 58.015625 40.1875 58.015625 27.296875 
Q 58.015625 14.40625 51.78125 6.484375 
Q 45.5625 -1.421875 35.59375 -1.421875 
Q 29.59375 -1.421875 25.265625 0.953125 
Q 20.953125 3.328125 18.109375 8.203125 
z
M 48.6875 27.296875 
Q 48.6875 37.203125 44.609375 42.84375 
Q 40.53125 48.484375 33.40625 48.484375 
Q 26.265625 48.484375 22.1875 42.84375 
Q 18.109375 37.203125 18.109375 27.296875 
Q 18.109375 17.390625 22.1875 11.75 
Q 26.265625 6.109375 33.40625 6.109375 
Q 40.53125 6.109375 44.609375 11.75 
Q 48.6875 17.390625 48.6875 27.296875 
z
" id="DejaVuSans-112"/>
     </defs>
     <g transform="translate(222.170156 20.793875)scale(0.1 -0.1)">
      <use xlink:href="#DejaVuSans-83"/>
      <use x="63.476562" xlink:href="#DejaVuSans-116"/>
      <use x="102.685547" xlink:href="#DejaVuSans-101"/>
      <use x="164.208984" xlink:href="#DejaVuSans-112"/>
      <use x="227.685547" xlink:href="#DejaVuSans-115"/>
     </g>
    </g>
   </g>
   <g id="patch_7">
    <path d="M 57.6 307.584 
L 57.6 41.472 
" style="fill:none;stroke:#000000;stroke-linecap:square;stroke-linejoin:miter;stroke-width:0.8;"/>
   </g>
   <g id="patch_8">
    <path d="M 414.72 307.584 
L 414.72 41.472 
" style="fill:none;stroke:#000000;stroke-linecap:square;stroke-linejoin:miter;stroke-width:0.8;"/>
   </g>
   <g id="patch_9">
    <path d="M 57.6 307.584 
L 414.72 307.584 
" style="fill:none;stroke:#000000;stroke-linecap:square;stroke-linejoin:miter;stroke-width:0.8;"/>
   </g>
   <g id="patch_10">
    <path d="M 57.6 41.472 
L 414.72 41.472 
" style="fill:none;stroke:#000000;stroke-linecap:square;stroke-linejoin:miter;stroke-width:0.8;"/>
   </g>
  </g>
 </g>
 <defs>
  <clipPath id="p0441ebe35c">
   <rect height="266.112" width="357.12" x="57.6" y="41.472"/>
  </clipPath>
 </defs>
</svg>
