<?xml version="1.0" encoding="utf-8" standalone="no"?>
<!DOCTYPE svg PUBLIC "-//W3C//DTD SVG 1.1//EN"
  "http://www.w3.org/Graphics/SVG/1.1/DTD/svg11.dtd">
<!-- Created with matplotlib (https://matplotlib.org/) -->
<svg height="345.6pt" version="1.1" viewBox="0 0 460.8 345.6" width="460.8pt" xmlns="http://www.w3.org/2000/svg" xmlns:xlink="http://www.w3.org/1999/xlink">
 <defs>
  <style type="text/css">
*{stroke-linecap:butt;stroke-linejoin:round;}
  </style>
 </defs>
 <g id="figure_1">
  <g id="patch_1">
   <path d="M 0 345.6 
L 460.8 345.6 
L 460.8 0 
L 0 0 
z
" style="fill:#ffffff;"/>
  </g>
  <g id="axes_1">
   <g id="patch_2">
    <path d="M 57.6 307.584 
L 414.72 307.584 
L 414.72 41.472 
L 57.6 41.472 
z
" style="fill:#ffffff;"/>
   </g>
   <g id="matplotlib.axis_1">
    <g id="xtick_1">
     <g id="line2d_1">
      <path clip-path="url(#pf8bdf0f106)" d="M 57.6 307.584 
L 57.6 41.472 
" style="fill:none;stroke:#b0b0b0;stroke-linecap:square;stroke-width:0.8;"/>
     </g>
     <g id="line2d_2">
      <defs>
       <path d="M 0 0 
L 0 3.5 
" id="m61da2f6ee4" style="stroke:#000000;stroke-width:0.8;"/>
      </defs>
      <g>
       <use style="stroke:#000000;stroke-width:0.8;" x="57.6" xlink:href="#m61da2f6ee4" y="307.584"/>
      </g>
     </g>
     <g id="text_1">
      <!-- 0.0 -->
      <defs>
       <path d="M 31.78125 66.40625 
Q 24.171875 66.40625 20.328125 58.90625 
Q 16.5 51.421875 16.5 36.375 
Q 16.5 21.390625 20.328125 13.890625 
Q 24.171875 6.390625 31.78125 6.390625 
Q 39.453125 6.390625 43.28125 13.890625 
Q 47.125 21.390625 47.125 36.375 
Q 47.125 51.421875 43.28125 58.90625 
Q 39.453125 66.40625 31.78125 66.40625 
z
M 31.78125 74.21875 
Q 44.046875 74.21875 50.515625 64.515625 
Q 56.984375 54.828125 56.984375 36.375 
Q 56.984375 17.96875 50.515625 8.265625 
Q 44.046875 -1.421875 31.78125 -1.421875 
Q 19.53125 -1.421875 13.0625 8.265625 
Q 6.59375 17.96875 6.59375 36.375 
Q 6.59375 54.828125 13.0625 64.515625 
Q 19.53125 74.21875 31.78125 74.21875 
z
" id="DejaVuSans-48"/>
       <path d="M 10.6875 12.40625 
L 21 12.40625 
L 21 0 
L 10.6875 0 
z
" id="DejaVuSans-46"/>
      </defs>
      <g transform="translate(49.648438 322.182437)scale(0.1 -0.1)">
       <use xlink:href="#DejaVuSans-48"/>
       <use x="63.623047" xlink:href="#DejaVuSans-46"/>
       <use x="95.410156" xlink:href="#DejaVuSans-48"/>
      </g>
     </g>
    </g>
    <g id="xtick_2">
     <g id="line2d_3">
      <path clip-path="url(#pf8bdf0f106)" d="M 111.611114 307.584 
L 111.611114 41.472 
" style="fill:none;stroke:#b0b0b0;stroke-linecap:square;stroke-width:0.8;"/>
     </g>
     <g id="line2d_4">
      <g>
       <use style="stroke:#000000;stroke-width:0.8;" x="111.611114" xlink:href="#m61da2f6ee4" y="307.584"/>
      </g>
     </g>
     <g id="text_2">
      <!-- 0.1 -->
      <defs>
       <path d="M 12.40625 8.296875 
L 28.515625 8.296875 
L 28.515625 63.921875 
L 10.984375 60.40625 
L 10.984375 69.390625 
L 28.421875 72.90625 
L 38.28125 72.90625 
L 38.28125 8.296875 
L 54.390625 8.296875 
L 54.390625 0 
L 12.40625 0 
z
" id="DejaVuSans-49"/>
      </defs>
      <g transform="translate(103.659551 322.182437)scale(0.1 -0.1)">
       <use xlink:href="#DejaVuSans-48"/>
       <use x="63.623047" xlink:href="#DejaVuSans-46"/>
       <use x="95.410156" xlink:href="#DejaVuSans-49"/>
      </g>
     </g>
    </g>
    <g id="xtick_3">
     <g id="line2d_5">
      <path clip-path="url(#pf8bdf0f106)" d="M 165.622228 307.584 
L 165.622228 41.472 
" style="fill:none;stroke:#b0b0b0;stroke-linecap:square;stroke-width:0.8;"/>
     </g>
     <g id="line2d_6">
      <g>
       <use style="stroke:#000000;stroke-width:0.8;" x="165.622228" xlink:href="#m61da2f6ee4" y="307.584"/>
      </g>
     </g>
     <g id="text_3">
      <!-- 0.2 -->
      <defs>
       <path d="M 19.1875 8.296875 
L 53.609375 8.296875 
L 53.609375 0 
L 7.328125 0 
L 7.328125 8.296875 
Q 12.9375 14.109375 22.625 23.890625 
Q 32.328125 33.6875 34.8125 36.53125 
Q 39.546875 41.84375 41.421875 45.53125 
Q 43.3125 49.21875 43.3125 52.78125 
Q 43.3125 58.59375 39.234375 62.25 
Q 35.15625 65.921875 28.609375 65.921875 
Q 23.96875 65.921875 18.8125 64.3125 
Q 13.671875 62.703125 7.8125 59.421875 
L 7.8125 69.390625 
Q 13.765625 71.78125 18.9375 73 
Q 24.125 74.21875 28.421875 74.21875 
Q 39.75 74.21875 46.484375 68.546875 
Q 53.21875 62.890625 53.21875 53.421875 
Q 53.21875 48.921875 51.53125 44.890625 
Q 49.859375 40.875 45.40625 35.40625 
Q 44.1875 33.984375 37.640625 27.21875 
Q 31.109375 20.453125 19.1875 8.296875 
z
" id="DejaVuSans-50"/>
      </defs>
      <g transform="translate(157.670665 322.182437)scale(0.1 -0.1)">
       <use xlink:href="#DejaVuSans-48"/>
       <use x="63.623047" xlink:href="#DejaVuSans-46"/>
       <use x="95.410156" xlink:href="#DejaVuSans-50"/>
      </g>
     </g>
    </g>
    <g id="xtick_4">
     <g id="line2d_7">
      <path clip-path="url(#pf8bdf0f106)" d="M 219.633342 307.584 
L 219.633342 41.472 
" style="fill:none;stroke:#b0b0b0;stroke-linecap:square;stroke-width:0.8;"/>
     </g>
     <g id="line2d_8">
      <g>
       <use style="stroke:#000000;stroke-width:0.8;" x="219.633342" xlink:href="#m61da2f6ee4" y="307.584"/>
      </g>
     </g>
     <g id="text_4">
      <!-- 0.3 -->
      <defs>
       <path d="M 40.578125 39.3125 
Q 47.65625 37.796875 51.625 33 
Q 55.609375 28.21875 55.609375 21.1875 
Q 55.609375 10.40625 48.1875 4.484375 
Q 40.765625 -1.421875 27.09375 -1.421875 
Q 22.515625 -1.421875 17.65625 -0.515625 
Q 12.796875 0.390625 7.625 2.203125 
L 7.625 11.71875 
Q 11.71875 9.328125 16.59375 8.109375 
Q 21.484375 6.890625 26.8125 6.890625 
Q 36.078125 6.890625 40.9375 10.546875 
Q 45.796875 14.203125 45.796875 21.1875 
Q 45.796875 27.640625 41.28125 31.265625 
Q 36.765625 34.90625 28.71875 34.90625 
L 20.21875 34.90625 
L 20.21875 43.015625 
L 29.109375 43.015625 
Q 36.375 43.015625 40.234375 45.921875 
Q 44.09375 48.828125 44.09375 54.296875 
Q 44.09375 59.90625 40.109375 62.90625 
Q 36.140625 65.921875 28.71875 65.921875 
Q 24.65625 65.921875 20.015625 65.03125 
Q 15.375 64.15625 9.8125 62.3125 
L 9.8125 71.09375 
Q 15.4375 72.65625 20.34375 73.4375 
Q 25.25 74.21875 29.59375 74.21875 
Q 40.828125 74.21875 47.359375 69.109375 
Q 53.90625 64.015625 53.90625 55.328125 
Q 53.90625 49.265625 50.4375 45.09375 
Q 46.96875 40.921875 40.578125 39.3125 
z
" id="DejaVuSans-51"/>
      </defs>
      <g transform="translate(211.681779 322.182437)scale(0.1 -0.1)">
       <use xlink:href="#DejaVuSans-48"/>
       <use x="63.623047" xlink:href="#DejaVuSans-46"/>
       <use x="95.410156" xlink:href="#DejaVuSans-51"/>
      </g>
     </g>
    </g>
    <g id="xtick_5">
     <g id="line2d_9">
      <path clip-path="url(#pf8bdf0f106)" d="M 273.644456 307.584 
L 273.644456 41.472 
" style="fill:none;stroke:#b0b0b0;stroke-linecap:square;stroke-width:0.8;"/>
     </g>
     <g id="line2d_10">
      <g>
       <use style="stroke:#000000;stroke-width:0.8;" x="273.644456" xlink:href="#m61da2f6ee4" y="307.584"/>
      </g>
     </g>
     <g id="text_5">
      <!-- 0.4 -->
      <defs>
       <path d="M 37.796875 64.3125 
L 12.890625 25.390625 
L 37.796875 25.390625 
z
M 35.203125 72.90625 
L 47.609375 72.90625 
L 47.609375 25.390625 
L 58.015625 25.390625 
L 58.015625 17.1875 
L 47.609375 17.1875 
L 47.609375 0 
L 37.796875 0 
L 37.796875 17.1875 
L 4.890625 17.1875 
L 4.890625 26.703125 
z
" id="DejaVuSans-52"/>
      </defs>
      <g transform="translate(265.692893 322.182437)scale(0.1 -0.1)">
       <use xlink:href="#DejaVuSans-48"/>
       <use x="63.623047" xlink:href="#DejaVuSans-46"/>
       <use x="95.410156" xlink:href="#DejaVuSans-52"/>
      </g>
     </g>
    </g>
    <g id="xtick_6">
     <g id="line2d_11">
      <path clip-path="url(#pf8bdf0f106)" d="M 327.65557 307.584 
L 327.65557 41.472 
" style="fill:none;stroke:#b0b0b0;stroke-linecap:square;stroke-width:0.8;"/>
     </g>
     <g id="line2d_12">
      <g>
       <use style="stroke:#000000;stroke-width:0.8;" x="327.65557" xlink:href="#m61da2f6ee4" y="307.584"/>
      </g>
     </g>
     <g id="text_6">
      <!-- 0.5 -->
      <defs>
       <path d="M 10.796875 72.90625 
L 49.515625 72.90625 
L 49.515625 64.59375 
L 19.828125 64.59375 
L 19.828125 46.734375 
Q 21.96875 47.46875 24.109375 47.828125 
Q 26.265625 48.1875 28.421875 48.1875 
Q 40.625 48.1875 47.75 41.5 
Q 54.890625 34.8125 54.890625 23.390625 
Q 54.890625 11.625 47.5625 5.09375 
Q 40.234375 -1.421875 26.90625 -1.421875 
Q 22.3125 -1.421875 17.546875 -0.640625 
Q 12.796875 0.140625 7.71875 1.703125 
L 7.71875 11.625 
Q 12.109375 9.234375 16.796875 8.0625 
Q 21.484375 6.890625 26.703125 6.890625 
Q 35.15625 6.890625 40.078125 11.328125 
Q 45.015625 15.765625 45.015625 23.390625 
Q 45.015625 31 40.078125 35.4375 
Q 35.15625 39.890625 26.703125 39.890625 
Q 22.75 39.890625 18.8125 39.015625 
Q 14.890625 38.140625 10.796875 36.28125 
z
" id="DejaVuSans-53"/>
      </defs>
      <g transform="translate(319.704007 322.182437)scale(0.1 -0.1)">
       <use xlink:href="#DejaVuSans-48"/>
       <use x="63.623047" xlink:href="#DejaVuSans-46"/>
       <use x="95.410156" xlink:href="#DejaVuSans-53"/>
      </g>
     </g>
    </g>
    <g id="xtick_7">
     <g id="line2d_13">
      <path clip-path="url(#pf8bdf0f106)" d="M 381.666684 307.584 
L 381.666684 41.472 
" style="fill:none;stroke:#b0b0b0;stroke-linecap:square;stroke-width:0.8;"/>
     </g>
     <g id="line2d_14">
      <g>
       <use style="stroke:#000000;stroke-width:0.8;" x="381.666684" xlink:href="#m61da2f6ee4" y="307.584"/>
      </g>
     </g>
     <g id="text_7">
      <!-- 0.6 -->
      <defs>
       <path d="M 33.015625 40.375 
Q 26.375 40.375 22.484375 35.828125 
Q 18.609375 31.296875 18.609375 23.390625 
Q 18.609375 15.53125 22.484375 10.953125 
Q 26.375 6.390625 33.015625 6.390625 
Q 39.65625 6.390625 43.53125 10.953125 
Q 47.40625 15.53125 47.40625 23.390625 
Q 47.40625 31.296875 43.53125 35.828125 
Q 39.65625 40.375 33.015625 40.375 
z
M 52.59375 71.296875 
L 52.59375 62.3125 
Q 48.875 64.0625 45.09375 64.984375 
Q 41.3125 65.921875 37.59375 65.921875 
Q 27.828125 65.921875 22.671875 59.328125 
Q 17.53125 52.734375 16.796875 39.40625 
Q 19.671875 43.65625 24.015625 45.921875 
Q 28.375 48.1875 33.59375 48.1875 
Q 44.578125 48.1875 50.953125 41.515625 
Q 57.328125 34.859375 57.328125 23.390625 
Q 57.328125 12.15625 50.6875 5.359375 
Q 44.046875 -1.421875 33.015625 -1.421875 
Q 20.359375 -1.421875 13.671875 8.265625 
Q 6.984375 17.96875 6.984375 36.375 
Q 6.984375 53.65625 15.1875 63.9375 
Q 23.390625 74.21875 37.203125 74.21875 
Q 40.921875 74.21875 44.703125 73.484375 
Q 48.484375 72.75 52.59375 71.296875 
z
" id="DejaVuSans-54"/>
      </defs>
      <g transform="translate(373.715121 322.182437)scale(0.1 -0.1)">
       <use xlink:href="#DejaVuSans-48"/>
       <use x="63.623047" xlink:href="#DejaVuSans-46"/>
       <use x="95.410156" xlink:href="#DejaVuSans-54"/>
      </g>
     </g>
    </g>
    <g id="text_8">
     <!-- Hours -->
     <defs>
      <path d="M 9.8125 72.90625 
L 19.671875 72.90625 
L 19.671875 43.015625 
L 55.515625 43.015625 
L 55.515625 72.90625 
L 65.375 72.90625 
L 65.375 0 
L 55.515625 0 
L 55.515625 34.71875 
L 19.671875 34.71875 
L 19.671875 0 
L 9.8125 0 
z
" id="DejaVuSans-72"/>
      <path d="M 30.609375 48.390625 
Q 23.390625 48.390625 19.1875 42.75 
Q 14.984375 37.109375 14.984375 27.296875 
Q 14.984375 17.484375 19.15625 11.84375 
Q 23.34375 6.203125 30.609375 6.203125 
Q 37.796875 6.203125 41.984375 11.859375 
Q 46.1875 17.53125 46.1875 27.296875 
Q 46.1875 37.015625 41.984375 42.703125 
Q 37.796875 48.390625 30.609375 48.390625 
z
M 30.609375 56 
Q 42.328125 56 49.015625 48.375 
Q 55.71875 40.765625 55.71875 27.296875 
Q 55.71875 13.875 49.015625 6.21875 
Q 42.328125 -1.421875 30.609375 -1.421875 
Q 18.84375 -1.421875 12.171875 6.21875 
Q 5.515625 13.875 5.515625 27.296875 
Q 5.515625 40.765625 12.171875 48.375 
Q 18.84375 56 30.609375 56 
z
" id="DejaVuSans-111"/>
      <path d="M 8.5 21.578125 
L 8.5 54.6875 
L 17.484375 54.6875 
L 17.484375 21.921875 
Q 17.484375 14.15625 20.5 10.265625 
Q 23.53125 6.390625 29.59375 6.390625 
Q 36.859375 6.390625 41.078125 11.03125 
Q 45.3125 15.671875 45.3125 23.6875 
L 45.3125 54.6875 
L 54.296875 54.6875 
L 54.296875 0 
L 45.3125 0 
L 45.3125 8.40625 
Q 42.046875 3.421875 37.71875 1 
Q 33.40625 -1.421875 27.6875 -1.421875 
Q 18.265625 -1.421875 13.375 4.4375 
Q 8.5 10.296875 8.5 21.578125 
z
M 31.109375 56 
z
" id="DejaVuSans-117"/>
      <path d="M 41.109375 46.296875 
Q 39.59375 47.171875 37.8125 47.578125 
Q 36.03125 48 33.890625 48 
Q 26.265625 48 22.1875 43.046875 
Q 18.109375 38.09375 18.109375 28.8125 
L 18.109375 0 
L 9.078125 0 
L 9.078125 54.6875 
L 18.109375 54.6875 
L 18.109375 46.1875 
Q 20.953125 51.171875 25.484375 53.578125 
Q 30.03125 56 36.53125 56 
Q 37.453125 56 38.578125 55.875 
Q 39.703125 55.765625 41.0625 55.515625 
z
" id="DejaVuSans-114"/>
      <path d="M 44.28125 53.078125 
L 44.28125 44.578125 
Q 40.484375 46.53125 36.375 47.5 
Q 32.28125 48.484375 27.875 48.484375 
Q 21.1875 48.484375 17.84375 46.4375 
Q 14.5 44.390625 14.5 40.28125 
Q 14.5 37.15625 16.890625 35.375 
Q 19.28125 33.59375 26.515625 31.984375 
L 29.59375 31.296875 
Q 39.15625 29.25 43.1875 25.515625 
Q 47.21875 21.78125 47.21875 15.09375 
Q 47.21875 7.46875 41.1875 3.015625 
Q 35.15625 -1.421875 24.609375 -1.421875 
Q 20.21875 -1.421875 15.453125 -0.5625 
Q 10.6875 0.296875 5.421875 2 
L 5.421875 11.28125 
Q 10.40625 8.6875 15.234375 7.390625 
Q 20.0625 6.109375 24.8125 6.109375 
Q 31.15625 6.109375 34.5625 8.28125 
Q 37.984375 10.453125 37.984375 14.40625 
Q 37.984375 18.0625 35.515625 20.015625 
Q 33.0625 21.96875 24.703125 23.78125 
L 21.578125 24.515625 
Q 13.234375 26.265625 9.515625 29.90625 
Q 5.8125 33.546875 5.8125 39.890625 
Q 5.8125 47.609375 11.28125 51.796875 
Q 16.75 56 26.8125 56 
Q 31.78125 56 36.171875 55.265625 
Q 40.578125 54.546875 44.28125 53.078125 
z
" id="DejaVuSans-115"/>
     </defs>
     <g transform="translate(221.511562 335.860562)scale(0.1 -0.1)">
      <use xlink:href="#DejaVuSans-72"/>
      <use x="75.195312" xlink:href="#DejaVuSans-111"/>
      <use x="136.376953" xlink:href="#DejaVuSans-117"/>
      <use x="199.755859" xlink:href="#DejaVuSans-114"/>
      <use x="240.869141" xlink:href="#DejaVuSans-115"/>
     </g>
    </g>
   </g>
   <g id="matplotlib.axis_2">
    <g id="ytick_1">
     <g id="line2d_15">
      <path clip-path="url(#pf8bdf0f106)" d="M 57.6 278.803861 
L 414.72 278.803861 
" style="fill:none;stroke:#b0b0b0;stroke-linecap:square;stroke-width:0.8;"/>
     </g>
     <g id="line2d_16">
      <defs>
       <path d="M 0 0 
L -3.5 0 
" id="m35997780f4" style="stroke:#000000;stroke-width:0.8;"/>
      </defs>
      <g>
       <use style="stroke:#000000;stroke-width:0.8;" x="57.6" xlink:href="#m35997780f4" y="278.803861"/>
      </g>
     </g>
     <g id="text_9">
      <!-- 5.0 -->
      <g transform="translate(34.696875 282.603079)scale(0.1 -0.1)">
       <use xlink:href="#DejaVuSans-53"/>
       <use x="63.623047" xlink:href="#DejaVuSans-46"/>
       <use x="95.410156" xlink:href="#DejaVuSans-48"/>
      </g>
     </g>
    </g>
    <g id="ytick_2">
     <g id="line2d_17">
      <path clip-path="url(#pf8bdf0f106)" d="M 57.6 249.010757 
L 414.72 249.010757 
" style="fill:none;stroke:#b0b0b0;stroke-linecap:square;stroke-width:0.8;"/>
     </g>
     <g id="line2d_18">
      <g>
       <use style="stroke:#000000;stroke-width:0.8;" x="57.6" xlink:href="#m35997780f4" y="249.010757"/>
      </g>
     </g>
     <g id="text_10">
      <!-- 7.5 -->
      <defs>
       <path d="M 8.203125 72.90625 
L 55.078125 72.90625 
L 55.078125 68.703125 
L 28.609375 0 
L 18.3125 0 
L 43.21875 64.59375 
L 8.203125 64.59375 
z
" id="DejaVuSans-55"/>
      </defs>
      <g transform="translate(34.696875 252.809976)scale(0.1 -0.1)">
       <use xlink:href="#DejaVuSans-55"/>
       <use x="63.623047" xlink:href="#DejaVuSans-46"/>
       <use x="95.410156" xlink:href="#DejaVuSans-53"/>
      </g>
     </g>
    </g>
    <g id="ytick_3">
     <g id="line2d_19">
      <path clip-path="url(#pf8bdf0f106)" d="M 57.6 219.217653 
L 414.72 219.217653 
" style="fill:none;stroke:#b0b0b0;stroke-linecap:square;stroke-width:0.8;"/>
     </g>
     <g id="line2d_20">
      <g>
       <use style="stroke:#000000;stroke-width:0.8;" x="57.6" xlink:href="#m35997780f4" y="219.217653"/>
      </g>
     </g>
     <g id="text_11">
      <!-- 10.0 -->
      <g transform="translate(28.334375 223.016872)scale(0.1 -0.1)">
       <use xlink:href="#DejaVuSans-49"/>
       <use x="63.623047" xlink:href="#DejaVuSans-48"/>
       <use x="127.246094" xlink:href="#DejaVuSans-46"/>
       <use x="159.033203" xlink:href="#DejaVuSans-48"/>
      </g>
     </g>
    </g>
    <g id="ytick_4">
     <g id="line2d_21">
      <path clip-path="url(#pf8bdf0f106)" d="M 57.6 189.424549 
L 414.72 189.424549 
" style="fill:none;stroke:#b0b0b0;stroke-linecap:square;stroke-width:0.8;"/>
     </g>
     <g id="line2d_22">
      <g>
       <use style="stroke:#000000;stroke-width:0.8;" x="57.6" xlink:href="#m35997780f4" y="189.424549"/>
      </g>
     </g>
     <g id="text_12">
      <!-- 12.5 -->
      <g transform="translate(28.334375 193.223768)scale(0.1 -0.1)">
       <use xlink:href="#DejaVuSans-49"/>
       <use x="63.623047" xlink:href="#DejaVuSans-50"/>
       <use x="127.246094" xlink:href="#DejaVuSans-46"/>
       <use x="159.033203" xlink:href="#DejaVuSans-53"/>
      </g>
     </g>
    </g>
    <g id="ytick_5">
     <g id="line2d_23">
      <path clip-path="url(#pf8bdf0f106)" d="M 57.6 159.631445 
L 414.72 159.631445 
" style="fill:none;stroke:#b0b0b0;stroke-linecap:square;stroke-width:0.8;"/>
     </g>
     <g id="line2d_24">
      <g>
       <use style="stroke:#000000;stroke-width:0.8;" x="57.6" xlink:href="#m35997780f4" y="159.631445"/>
      </g>
     </g>
     <g id="text_13">
      <!-- 15.0 -->
      <g transform="translate(28.334375 163.430664)scale(0.1 -0.1)">
       <use xlink:href="#DejaVuSans-49"/>
       <use x="63.623047" xlink:href="#DejaVuSans-53"/>
       <use x="127.246094" xlink:href="#DejaVuSans-46"/>
       <use x="159.033203" xlink:href="#DejaVuSans-48"/>
      </g>
     </g>
    </g>
    <g id="ytick_6">
     <g id="line2d_25">
      <path clip-path="url(#pf8bdf0f106)" d="M 57.6 129.838341 
L 414.72 129.838341 
" style="fill:none;stroke:#b0b0b0;stroke-linecap:square;stroke-width:0.8;"/>
     </g>
     <g id="line2d_26">
      <g>
       <use style="stroke:#000000;stroke-width:0.8;" x="57.6" xlink:href="#m35997780f4" y="129.838341"/>
      </g>
     </g>
     <g id="text_14">
      <!-- 17.5 -->
      <g transform="translate(28.334375 133.63756)scale(0.1 -0.1)">
       <use xlink:href="#DejaVuSans-49"/>
       <use x="63.623047" xlink:href="#DejaVuSans-55"/>
       <use x="127.246094" xlink:href="#DejaVuSans-46"/>
       <use x="159.033203" xlink:href="#DejaVuSans-53"/>
      </g>
     </g>
    </g>
    <g id="ytick_7">
     <g id="line2d_27">
      <path clip-path="url(#pf8bdf0f106)" d="M 57.6 100.045237 
L 414.72 100.045237 
" style="fill:none;stroke:#b0b0b0;stroke-linecap:square;stroke-width:0.8;"/>
     </g>
     <g id="line2d_28">
      <g>
       <use style="stroke:#000000;stroke-width:0.8;" x="57.6" xlink:href="#m35997780f4" y="100.045237"/>
      </g>
     </g>
     <g id="text_15">
      <!-- 20.0 -->
      <g transform="translate(28.334375 103.844456)scale(0.1 -0.1)">
       <use xlink:href="#DejaVuSans-50"/>
       <use x="63.623047" xlink:href="#DejaVuSans-48"/>
       <use x="127.246094" xlink:href="#DejaVuSans-46"/>
       <use x="159.033203" xlink:href="#DejaVuSans-48"/>
      </g>
     </g>
    </g>
    <g id="ytick_8">
     <g id="line2d_29">
      <path clip-path="url(#pf8bdf0f106)" d="M 57.6 70.252134 
L 414.72 70.252134 
" style="fill:none;stroke:#b0b0b0;stroke-linecap:square;stroke-width:0.8;"/>
     </g>
     <g id="line2d_30">
      <g>
       <use style="stroke:#000000;stroke-width:0.8;" x="57.6" xlink:href="#m35997780f4" y="70.252134"/>
      </g>
     </g>
     <g id="text_16">
      <!-- 22.5 -->
      <g transform="translate(28.334375 74.051352)scale(0.1 -0.1)">
       <use xlink:href="#DejaVuSans-50"/>
       <use x="63.623047" xlink:href="#DejaVuSans-50"/>
       <use x="127.246094" xlink:href="#DejaVuSans-46"/>
       <use x="159.033203" xlink:href="#DejaVuSans-53"/>
      </g>
     </g>
    </g>
    <g id="text_17">
     <!-- Episode steps -->
     <defs>
      <path d="M 9.8125 72.90625 
L 55.90625 72.90625 
L 55.90625 64.59375 
L 19.671875 64.59375 
L 19.671875 43.015625 
L 54.390625 43.015625 
L 54.390625 34.71875 
L 19.671875 34.71875 
L 19.671875 8.296875 
L 56.78125 8.296875 
L 56.78125 0 
L 9.8125 0 
z
" id="DejaVuSans-69"/>
      <path d="M 18.109375 8.203125 
L 18.109375 -20.796875 
L 9.078125 -20.796875 
L 9.078125 54.6875 
L 18.109375 54.6875 
L 18.109375 46.390625 
Q 20.953125 51.265625 25.265625 53.625 
Q 29.59375 56 35.59375 56 
Q 45.5625 56 51.78125 48.09375 
Q 58.015625 40.1875 58.015625 27.296875 
Q 58.015625 14.40625 51.78125 6.484375 
Q 45.5625 -1.421875 35.59375 -1.421875 
Q 29.59375 -1.421875 25.265625 0.953125 
Q 20.953125 3.328125 18.109375 8.203125 
z
M 48.6875 27.296875 
Q 48.6875 37.203125 44.609375 42.84375 
Q 40.53125 48.484375 33.40625 48.484375 
Q 26.265625 48.484375 22.1875 42.84375 
Q 18.109375 37.203125 18.109375 27.296875 
Q 18.109375 17.390625 22.1875 11.75 
Q 26.265625 6.109375 33.40625 6.109375 
Q 40.53125 6.109375 44.609375 11.75 
Q 48.6875 17.390625 48.6875 27.296875 
z
" id="DejaVuSans-112"/>
      <path d="M 9.421875 54.6875 
L 18.40625 54.6875 
L 18.40625 0 
L 9.421875 0 
z
M 9.421875 75.984375 
L 18.40625 75.984375 
L 18.40625 64.59375 
L 9.421875 64.59375 
z
" id="DejaVuSans-105"/>
      <path d="M 45.40625 46.390625 
L 45.40625 75.984375 
L 54.390625 75.984375 
L 54.390625 0 
L 45.40625 0 
L 45.40625 8.203125 
Q 42.578125 3.328125 38.25 0.953125 
Q 33.9375 -1.421875 27.875 -1.421875 
Q 17.96875 -1.421875 11.734375 6.484375 
Q 5.515625 14.40625 5.515625 27.296875 
Q 5.515625 40.1875 11.734375 48.09375 
Q 17.96875 56 27.875 56 
Q 33.9375 56 38.25 53.625 
Q 42.578125 51.265625 45.40625 46.390625 
z
M 14.796875 27.296875 
Q 14.796875 17.390625 18.875 11.75 
Q 22.953125 6.109375 30.078125 6.109375 
Q 37.203125 6.109375 41.296875 11.75 
Q 45.40625 17.390625 45.40625 27.296875 
Q 45.40625 37.203125 41.296875 42.84375 
Q 37.203125 48.484375 30.078125 48.484375 
Q 22.953125 48.484375 18.875 42.84375 
Q 14.796875 37.203125 14.796875 27.296875 
z
" id="DejaVuSans-100"/>
      <path d="M 56.203125 29.59375 
L 56.203125 25.203125 
L 14.890625 25.203125 
Q 15.484375 15.921875 20.484375 11.0625 
Q 25.484375 6.203125 34.421875 6.203125 
Q 39.59375 6.203125 44.453125 7.46875 
Q 49.3125 8.734375 54.109375 11.28125 
L 54.109375 2.78125 
Q 49.265625 0.734375 44.1875 -0.34375 
Q 39.109375 -1.421875 33.890625 -1.421875 
Q 20.796875 -1.421875 13.15625 6.1875 
Q 5.515625 13.8125 5.515625 26.8125 
Q 5.515625 40.234375 12.765625 48.109375 
Q 20.015625 56 32.328125 56 
Q 43.359375 56 49.78125 48.890625 
Q 56.203125 41.796875 56.203125 29.59375 
z
M 47.21875 32.234375 
Q 47.125 39.59375 43.09375 43.984375 
Q 39.0625 48.390625 32.421875 48.390625 
Q 24.90625 48.390625 20.390625 44.140625 
Q 15.875 39.890625 15.1875 32.171875 
z
" id="DejaVuSans-101"/>
      <path id="DejaVuSans-32"/>
      <path d="M 18.3125 70.21875 
L 18.3125 54.6875 
L 36.8125 54.6875 
L 36.8125 47.703125 
L 18.3125 47.703125 
L 18.3125 18.015625 
Q 18.3125 11.328125 20.140625 9.421875 
Q 21.96875 7.515625 27.59375 7.515625 
L 36.8125 7.515625 
L 36.8125 0 
L 27.59375 0 
Q 17.1875 0 13.234375 3.875 
Q 9.28125 7.765625 9.28125 18.015625 
L 9.28125 47.703125 
L 2.6875 47.703125 
L 2.6875 54.6875 
L 9.28125 54.6875 
L 9.28125 70.21875 
z
" id="DejaVuSans-116"/>
     </defs>
     <g transform="translate(22.254687 209.174875)rotate(-90)scale(0.1 -0.1)">
      <use xlink:href="#DejaVuSans-69"/>
      <use x="63.183594" xlink:href="#DejaVuSans-112"/>
      <use x="126.660156" xlink:href="#DejaVuSans-105"/>
      <use x="154.443359" xlink:href="#DejaVuSans-115"/>
      <use x="206.542969" xlink:href="#DejaVuSans-111"/>
      <use x="267.724609" xlink:href="#DejaVuSans-100"/>
      <use x="331.201172" xlink:href="#DejaVuSans-101"/>
      <use x="392.724609" xlink:href="#DejaVuSans-32"/>
      <use x="424.511719" xlink:href="#DejaVuSans-115"/>
      <use x="476.611328" xlink:href="#DejaVuSans-116"/>
      <use x="515.820312" xlink:href="#DejaVuSans-101"/>
      <use x="577.34375" xlink:href="#DejaVuSans-112"/>
      <use x="640.820312" xlink:href="#DejaVuSans-115"/>
     </g>
    </g>
   </g>
   <g id="line2d_31">
    <path clip-path="url(#pf8bdf0f106)" d="M 57.6 53.568 
L 58.021073 268.078342 
L 58.514373 254.969378 
L 58.773018 268.078342 
L 59.314378 244.243859 
L 59.79549 272.84524 
L 60.096262 254.969378 
L 60.306823 268.078342 
L 60.517283 256.161101 
L 60.766936 263.311444 
L 61.058721 259.736275 
L 61.299483 253.777655 
L 61.570177 259.736275 
L 61.840947 270.461794 
L 62.063165 252.585932 
L 62.322199 256.161101 
L 62.773493 259.736275 
L 63.314878 254.969378 
L 63.585646 246.627311 
L 65.119481 264.503173 
L 65.36206 254.969378 
L 65.600756 265.694896 
L 65.841407 259.736275 
L 66.322609 266.886619 
L 67.088106 261.523863 
L 67.329246 272.249376 
L 68.021105 238.285244 
L 68.211136 266.886619 
L 68.472287 263.311444 
L 68.773168 238.285244 
L 69.284474 266.886619 
L 69.829748 240.66869 
L 70.006444 270.461794 
L 70.788318 252.585932 
L 71.188575 274.036963 
L 71.54024 251.394203 
L 71.810896 249.010757 
L 72.562863 270.461794 
L 73.075297 256.161101 
L 73.55524 265.694896 
L 73.745977 278.803861 
L 74.016126 249.010757 
L 74.307164 231.134895 
L 74.668038 244.243859 
L 74.917142 258.544552 
L 75.359843 258.544552 
L 75.575576 270.461794 
L 75.851328 254.969378 
L 76.119122 249.010757 
L 76.623149 263.311444 
L 77.206607 251.394203 
L 77.38743 265.694896 
L 77.858311 249.010757 
L 78.127198 256.161101 
L 78.664976 264.503173 
L 78.929416 263.311444 
L 79.228726 245.435582 
L 79.409344 275.228686 
L 79.592212 274.036963 
L 79.890457 258.544552 
L 80.341668 262.119721 
L 80.583487 256.161101 
L 80.771545 270.461794 
L 81.048977 256.161101 
L 81.532414 276.420415 
L 82.34269 256.161101 
L 82.583254 266.886619 
L 82.80013 263.311444 
L 83.06641 266.886619 
L 83.545771 266.886619 
L 83.873735 257.352824 
L 84.104538 290.721102 
L 84.769912 270.461794 
L 85.100784 249.010757 
L 85.762382 266.886619 
L 86.604538 234.710069 
L 87.145916 259.736275 
L 87.356457 263.311444 
L 87.539092 274.036963 
L 88.348992 256.161101 
L 88.559549 264.503173 
L 88.803838 264.503173 
L 89.010656 263.311444 
L 89.281337 249.010757 
L 89.795093 266.886619 
L 89.979113 259.736275 
L 90.78908 262.119721 
L 91.52932 284.762481 
L 91.714752 266.886619 
L 92.191146 270.461794 
L 92.673569 249.010757 
L 92.924625 272.84524 
L 93.123516 269.270065 
L 93.395325 251.394203 
L 93.853069 266.886619 
L 94.47696 263.311444 
L 94.657488 263.311444 
L 94.958161 259.736275 
L 95.208786 252.585932 
L 95.649976 262.119721 
L 95.9506 238.285244 
L 96.221377 258.544552 
L 97.093552 241.860407 
L 97.364096 263.311444 
L 97.906673 241.860407 
L 98.190421 256.161101 
L 98.657533 270.461794 
L 99.379382 249.010757 
L 99.710196 259.736275 
L 99.892067 270.461794 
L 100.281724 283.570758 
L 100.552491 259.736275 
L 101.281874 256.161101 
L 101.635224 276.420415 
L 101.816994 241.860407 
L 102.089064 245.435582 
L 102.627642 270.461794 
L 102.810196 259.736275 
L 103.349421 266.886619 
L 103.807356 249.010757 
L 103.99319 270.461794 
L 104.341822 249.010757 
L 105.063667 266.886619 
L 105.309226 270.461794 
L 106.030964 252.585932 
L 107.030675 256.161101 
L 107.205363 263.311444 
L 107.871676 266.886619 
L 108.136358 266.886619 
L 108.67777 256.161101 
L 108.859963 270.461794 
L 109.219273 241.860407 
L 109.399817 259.736275 
L 109.67047 263.311444 
L 110.392289 263.311444 
L 110.602747 258.544552 
L 110.84334 270.461794 
L 111.11411 259.736275 
L 111.845145 249.010757 
L 112.018205 259.736275 
L 112.347222 238.285244 
L 112.678057 244.243859 
L 112.932004 266.886619 
L 113.101788 266.886619 
L 113.494149 284.762481 
L 113.684673 278.803861 
L 113.881098 266.886619 
L 114.482637 256.161101 
L 114.676993 263.311444 
L 114.939964 256.161101 
L 115.20439 259.736275 
L 115.414876 249.010757 
L 115.943642 263.311444 
L 116.467631 269.270065 
L 116.73825 259.736275 
L 117.12919 266.886619 
L 118.123131 259.736275 
L 118.309124 266.886619 
L 118.843532 252.585932 
L 119.174408 259.736275 
L 119.384936 252.585932 
L 119.655623 263.311444 
L 119.866201 259.736275 
L 120.136945 252.585932 
L 120.347559 263.311444 
L 120.91914 249.010757 
L 121.851412 266.886619 
L 122.010277 266.886619 
L 122.302602 259.736275 
L 122.844127 269.270065 
L 123.385691 238.285244 
L 123.897047 259.736275 
L 124.357045 262.119721 
L 124.829381 266.886619 
L 125.070002 263.311444 
L 125.370736 252.585932 
L 125.582389 259.736275 
L 125.851916 259.736275 
L 126.369838 238.285244 
L 126.663992 266.886619 
L 127.145375 256.161101 
L 127.415926 259.736275 
L 127.656548 252.585932 
L 128.139932 263.311444 
L 129.401161 263.311444 
L 129.852452 249.010757 
L 130.039572 274.036963 
L 130.665451 238.285244 
L 130.874875 266.886619 
L 131.145504 259.736275 
L 131.356075 283.570758 
L 131.656796 245.435582 
L 131.747144 281.187307 
L 132.047706 249.010757 
L 132.348491 245.435582 
L 132.649238 266.886619 
L 134.002687 266.886619 
L 134.513948 249.010757 
L 135.32615 249.010757 
L 136.318615 256.161101 
L 136.529119 256.161101 
L 137.040415 266.886619 
L 137.556594 256.161101 
L 137.822429 247.819034 
L 138.093164 247.819034 
L 138.814969 270.461794 
L 139.566833 245.435582 
L 139.837498 263.311444 
L 140.438919 241.860407 
L 140.920193 259.736275 
L 141.431497 266.886619 
L 142.45407 252.585932 
L 142.876735 266.886619 
L 143.386409 256.161101 
L 143.779158 256.161101 
L 143.95788 245.435582 
L 144.147054 266.886619 
L 144.438984 266.886619 
L 144.950259 256.161101 
L 145.323834 270.461794 
L 145.611996 266.886619 
L 146.183435 245.435582 
L 146.875281 272.84524 
L 147.063239 271.653517 
L 147.244026 266.886619 
L 147.428197 266.886619 
L 147.807417 241.860407 
L 148.048071 266.886619 
L 148.499253 259.736275 
L 148.682141 263.311444 
L 149.070682 241.860407 
L 149.581988 245.435582 
L 149.852632 259.736275 
L 150.33378 259.736275 
L 150.765131 270.461794 
L 151.027195 249.010757 
L 151.326211 259.736275 
L 151.658966 259.736275 
L 151.839907 245.435582 
L 152.318743 263.311444 
L 152.55938 266.886619 
L 153.013141 252.585932 
L 153.282682 263.311444 
L 153.551775 259.736275 
L 153.762265 263.311444 
L 154.012518 263.311444 
L 154.45399 266.886619 
L 154.734658 259.736275 
L 154.995306 263.311444 
L 155.175872 263.311444 
L 155.957645 231.134895 
L 156.529119 241.860407 
L 156.799822 252.585932 
L 157.280896 238.285244 
L 157.557461 284.762481 
L 157.83052 245.435582 
L 158.365646 245.435582 
L 159.085669 256.161101 
L 159.77738 245.435582 
L 161.01039 256.161101 
L 161.311198 249.010757 
L 162.093323 249.010757 
L 162.678027 237.093515 
L 162.875361 256.161101 
L 163.246913 263.311444 
L 163.575785 234.710069 
L 163.937354 270.461794 
L 164.56759 256.161101 
L 165.010863 263.311444 
L 165.492027 266.886619 
L 166.193311 252.585932 
L 166.546386 241.860407 
L 167.182024 266.886619 
L 167.446965 283.570758 
L 167.657511 252.585932 
L 167.958295 238.285244 
L 168.439574 263.311444 
L 168.656759 263.311444 
L 169.402077 270.461794 
L 169.644067 249.010757 
L 169.97893 263.311444 
L 170.159987 259.736275 
L 170.96599 256.161101 
L 171.241663 266.886619 
L 171.717802 252.585932 
L 171.964294 266.886619 
L 172.143341 266.886619 
L 172.439702 263.311444 
L 172.620239 259.736275 
L 172.860682 270.461794 
L 173.132814 241.860407 
L 173.404083 252.585932 
L 173.672838 256.161101 
L 173.973585 256.161101 
L 174.214214 249.010757 
L 174.425988 295.488 
L 174.665423 245.435582 
L 174.936033 256.161101 
L 175.154866 259.736275 
L 175.666006 245.435582 
L 175.868426 274.036963 
L 176.680397 249.010757 
L 176.865734 263.311444 
L 177.913537 266.886619 
L 178.665519 263.311444 
L 178.936148 252.585932 
L 179.45576 256.161101 
L 179.688018 263.311444 
L 180.175593 266.886619 
L 180.470152 247.819034 
L 180.710721 259.736275 
L 181.492673 241.860407 
L 181.73922 266.886619 
L 182.244654 249.010757 
L 183.207122 266.886619 
L 183.447743 274.036963 
L 183.960339 266.886619 
L 184.173187 266.886619 
L 184.416912 277.612138 
L 184.681154 256.161101 
L 184.921784 249.010757 
L 185.252644 259.736275 
L 185.525282 241.860407 
L 185.951778 263.311444 
L 186.222419 263.311444 
L 186.487342 245.435582 
L 186.786461 263.311444 
L 186.96697 266.886619 
L 187.207539 263.311444 
L 187.478359 263.311444 
L 188.141465 256.161101 
L 188.417645 259.736275 
L 188.658493 270.461794 
L 190.281522 249.010757 
L 190.997654 266.886619 
L 191.298404 245.435582 
L 191.749651 266.886619 
L 192.020325 259.736275 
L 192.399526 254.969378 
L 192.61012 269.270065 
L 192.820539 260.927998 
L 193.161288 263.311444 
L 193.423567 245.435582 
L 193.903053 263.311444 
L 194.504578 241.860407 
L 194.693455 266.886619 
L 194.964151 245.435582 
L 195.677423 241.860407 
L 195.948108 241.860407 
L 196.308981 245.435582 
L 196.6999 266.886619 
L 197.301391 259.736275 
L 197.668202 266.886619 
L 197.962986 266.886619 
L 198.661922 259.736275 
L 198.926648 241.860407 
L 199.1961 266.886619 
L 199.587014 260.927998 
L 199.827651 266.886619 
L 200.038118 266.886619 
L 200.519405 245.435582 
L 200.820205 259.736275 
L 201.060799 263.311444 
L 201.30143 256.161101 
L 201.782693 263.311444 
L 202.030175 263.311444 
L 202.295158 256.161101 
L 202.564594 263.311444 
L 202.775122 256.161101 
L 203.149949 271.653517 
L 203.539698 259.736275 
L 203.810333 266.886619 
L 204.261374 259.736275 
L 204.592275 263.311444 
L 204.862931 249.010757 
L 205.524639 259.736275 
L 205.861097 263.311444 
L 206.130225 252.585932 
L 206.607378 263.311444 
L 206.847991 263.311444 
L 207.303881 256.161101 
L 208.022215 231.134895 
L 208.387065 266.886619 
L 208.682399 256.161101 
L 208.928761 263.311444 
L 209.375577 266.886619 
L 209.855299 259.736275 
L 210.367617 259.736275 
L 210.637171 263.311444 
L 210.817695 270.461794 
L 211.569532 266.886619 
L 212.62863 252.585932 
L 212.895172 238.285244 
L 213.07548 256.161101 
L 213.624335 266.886619 
L 214.156411 259.736275 
L 214.427031 259.736275 
L 215.150642 245.435582 
L 215.516766 245.435582 
L 215.960818 263.311444 
L 216.411993 263.311444 
L 216.773105 256.161101 
L 217.495963 249.010757 
L 218.224449 274.036963 
L 218.407933 263.311444 
L 218.667803 263.311444 
L 218.968542 256.161101 
L 219.239308 252.585932 
L 219.48648 252.585932 
L 219.750637 259.736275 
L 219.931166 256.161101 
L 220.201664 266.886619 
L 220.472337 263.311444 
L 220.748804 263.311444 
L 221.015161 231.134895 
L 222.036141 263.311444 
L 222.276757 259.736275 
L 222.735661 263.311444 
L 223.269307 263.311444 
L 223.451248 266.886619 
L 223.660299 263.311444 
L 223.900982 263.311444 
L 224.171664 281.187307 
L 224.624256 249.010757 
L 224.893786 252.585932 
L 225.165603 274.036963 
L 225.916279 252.585932 
L 226.435147 266.886619 
L 226.638314 259.736275 
L 227.067666 270.461794 
L 227.511609 263.311444 
L 227.692068 238.285244 
L 227.874981 263.311444 
L 228.171957 263.311444 
L 228.413827 256.161101 
L 228.623028 263.311444 
L 228.893688 259.736275 
L 229.14197 259.736275 
L 229.322811 270.461794 
L 229.675619 241.860407 
L 229.946251 263.311444 
L 230.132719 266.886619 
L 230.848457 266.886619 
L 231.29961 263.311444 
L 231.780696 266.886619 
L 232.592866 252.585932 
L 232.842091 241.860407 
L 233.134193 266.886619 
L 233.465116 241.860407 
L 233.826007 234.710069 
L 234.217091 263.311444 
L 234.547948 266.886619 
L 234.728474 259.736275 
L 234.91039 266.886619 
L 235.450199 259.736275 
L 235.811336 259.736275 
L 236.442914 263.311444 
L 236.713565 259.736275 
L 236.924088 266.886619 
L 237.435467 259.736275 
L 237.706054 263.311444 
L 238.157223 263.311444 
L 238.367775 266.886619 
L 239.149835 266.886619 
L 239.331729 252.585932 
L 240.142364 270.461794 
L 240.330244 245.435582 
L 240.593467 259.736275 
L 241.587394 231.134895 
L 241.886704 266.886619 
L 242.315753 259.736275 
L 242.586393 263.311444 
L 242.85049 256.161101 
L 243.059652 256.161101 
L 243.574743 266.886619 
L 244.11232 256.161101 
L 244.302509 256.161101 
L 244.571025 249.010757 
L 245.164867 250.20248 
L 245.465627 252.585932 
L 245.646172 266.886619 
L 245.856624 266.886619 
L 246.127323 256.161101 
L 246.367962 259.736275 
L 246.578485 277.612138 
L 246.84913 252.585932 
L 247.661226 256.161101 
L 247.908953 252.585932 
L 248.384184 256.161101 
L 248.660248 252.585932 
L 248.924499 266.886619 
L 249.172548 263.311444 
L 249.444331 245.435582 
L 249.616436 259.736275 
L 250.127559 266.886619 
L 250.428391 256.161101 
L 250.608815 266.886619 
L 250.909532 256.161101 
L 251.120085 263.311444 
L 251.420938 249.010757 
L 251.63864 259.736275 
L 251.905173 249.010757 
L 252.684148 259.736275 
L 252.954912 252.585932 
L 253.436047 263.311444 
L 253.678885 252.585932 
L 253.977425 263.311444 
L 254.166816 262.119721 
L 254.67608 249.010757 
L 255.157616 256.161101 
L 255.360812 266.886619 
L 255.662684 241.860407 
L 256.052534 238.285244 
L 256.240344 266.886619 
L 256.533735 263.311444 
L 256.74565 256.161101 
L 257.105138 252.585932 
L 257.503714 263.311444 
L 257.766898 274.036963 
L 258.037573 256.161101 
L 258.58679 271.653517 
L 259.031622 245.435582 
L 259.240555 259.736275 
L 259.571413 249.010757 
L 259.848113 266.886619 
L 260.114108 249.010757 
L 260.391789 256.161101 
L 260.864871 256.161101 
L 261.106936 263.311444 
L 261.346091 259.736275 
L 261.857389 263.311444 
L 262.278465 238.285244 
L 262.819843 245.435582 
L 263.63203 270.461794 
L 264.113318 245.435582 
L 264.383954 245.435582 
L 264.774973 238.285244 
L 265.526862 259.736275 
L 265.737384 249.010757 
L 266.248675 266.886619 
L 266.438785 266.886619 
L 266.970814 249.010757 
L 267.211389 256.161101 
L 267.423005 266.886619 
L 267.873056 259.736275 
L 268.173724 266.886619 
L 268.985827 266.886619 
L 269.232351 249.010757 
L 269.707727 263.311444 
L 269.948376 266.886619 
L 270.219106 256.161101 
L 270.407479 259.736275 
L 270.888575 263.311444 
L 271.151561 274.036963 
L 271.362146 268.078342 
L 272.151323 235.901787 
L 272.655694 245.435582 
L 273.288745 244.243859 
L 273.558343 246.627311 
L 273.859182 238.285244 
L 274.160098 246.627311 
L 274.58132 196.574899 
L 275.87506 235.901787 
L 276.145803 237.093515 
L 276.506793 214.450761 
L 276.80761 246.627311 
L 277.078277 245.435582 
L 277.679976 241.860407 
L 277.83036 263.311444 
L 278.046104 277.612138 
L 278.318042 256.161101 
L 278.590462 256.161101 
L 278.883056 238.285244 
L 279.093677 263.311444 
L 279.364349 263.311444 
L 279.635067 259.736275 
L 279.90575 263.311444 
L 280.327999 263.311444 
L 280.537323 266.886619 
L 280.838072 263.311444 
L 281.05642 256.161101 
L 281.349406 256.161101 
L 281.620107 266.886619 
L 281.868111 249.010757 
L 282.406961 231.134895 
L 282.642731 256.161101 
L 282.981185 245.435582 
L 283.154101 270.461794 
L 283.485116 245.435582 
L 283.78589 256.161101 
L 284.304374 249.010757 
L 284.573809 256.161101 
L 285.620871 251.394203 
L 285.921699 244.243859 
L 286.372823 259.736275 
L 286.67369 252.585932 
L 287.154898 264.503173 
L 287.372082 266.886619 
L 287.579839 263.311444 
L 287.876781 249.010757 
L 288.388252 249.010757 
L 288.929495 263.311444 
L 289.1181 265.694896 
L 289.621244 259.736275 
L 289.861822 262.119721 
L 290.132524 256.161101 
L 290.403237 259.736275 
L 290.643893 249.010757 
L 290.914602 259.736275 
L 292.058622 252.585932 
L 292.273858 263.311444 
L 292.568675 251.394203 
L 292.870622 256.161101 
L 293.080029 266.886619 
L 293.261718 266.886619 
L 294.313182 263.311444 
L 295.065134 266.886619 
L 295.254 263.311444 
L 295.456132 269.270065 
L 295.756825 266.886619 
L 296.71941 256.161101 
L 297.230706 266.886619 
L 297.441316 259.736275 
L 297.681941 263.311444 
L 297.958206 259.736275 
L 298.433771 259.736275 
L 298.945085 263.311444 
L 299.215824 256.161101 
L 299.40341 256.161101 
L 299.696981 247.819034 
L 300.208318 272.84524 
L 300.479069 268.078342 
L 300.96021 252.585932 
L 301.20085 254.969378 
L 301.666417 277.612138 
L 302.223631 241.860407 
L 302.49434 252.585932 
L 303.035758 252.585932 
L 303.548264 265.694896 
L 303.72757 266.886619 
L 304.298953 249.010757 
L 305.050917 252.585932 
L 305.29148 266.886619 
L 305.533293 270.461794 
L 305.712635 259.736275 
L 306.255171 263.311444 
L 306.524796 252.585932 
L 306.735392 266.886619 
L 307.006129 266.886619 
L 307.216799 252.585932 
L 308.449885 252.585932 
L 308.725932 256.161101 
L 309.171814 266.886619 
L 309.442931 252.585932 
L 309.954269 256.161101 
L 310.164834 266.886619 
L 310.435444 266.886619 
L 310.706171 263.311444 
L 311.12853 276.420415 
L 311.427768 241.860407 
L 311.938999 238.285244 
L 312.399505 241.860407 
L 312.575619 263.311444 
L 312.931443 245.435582 
L 313.21041 263.311444 
L 313.654759 249.010757 
L 313.954003 263.311444 
L 314.383746 266.886619 
L 315.18693 263.311444 
L 315.554376 274.036963 
L 315.827374 252.585932 
L 316.029004 269.270065 
L 316.299652 270.461794 
L 316.901235 252.585932 
L 317.412405 252.585932 
L 317.713166 257.352824 
L 317.983898 259.736275 
L 318.172065 259.736275 
L 318.404971 263.311444 
L 318.675718 249.010757 
L 318.916317 256.161101 
L 319.278462 263.311444 
L 319.51793 241.860407 
L 320.239603 259.736275 
L 320.450227 274.036963 
L 320.785555 249.010757 
L 321.954128 259.736275 
L 322.194726 249.010757 
L 322.46535 263.311444 
L 322.737284 249.010757 
L 323.488129 265.694896 
L 323.75876 263.311444 
L 324.029448 249.010757 
L 324.30129 249.010757 
L 325.474299 252.585932 
L 325.749624 247.819034 
L 326.291718 266.886619 
L 326.495671 256.161101 
L 326.774512 256.161101 
L 327.27775 263.311444 
L 327.488343 245.435582 
L 327.759346 263.311444 
L 328.090133 264.503173 
L 328.27211 250.20248 
L 328.541294 263.311444 
L 328.751909 245.435582 
L 329.082651 249.010757 
L 329.293286 274.036963 
L 329.834594 245.435582 
L 330.165491 252.585932 
L 330.616665 266.886619 
L 330.804221 270.461794 
L 331.067829 256.161101 
L 331.278316 266.886619 
L 331.879926 256.161101 
L 332.332465 259.736275 
L 332.812543 270.461794 
L 333.083225 249.010757 
L 333.330314 252.585932 
L 333.865317 256.161101 
L 334.40655 247.819034 
L 334.685073 256.161101 
L 335.218571 263.311444 
L 335.669728 259.736275 
L 335.976858 252.585932 
L 336.211109 259.736275 
L 336.698507 245.435582 
L 337.564518 252.585932 
L 338.527038 270.461794 
L 338.827832 256.161101 
L 339.038365 270.461794 
L 339.820358 256.161101 
L 340.151217 237.093515 
L 340.692545 241.860407 
L 340.903065 259.736275 
L 341.17368 265.694896 
L 341.68511 259.736275 
L 342.347929 259.736275 
L 342.677556 245.435582 
L 342.978367 256.161101 
L 343.36935 263.311444 
L 343.911811 249.010757 
L 345.114011 249.010757 
L 345.565128 259.736275 
L 345.865971 259.736275 
L 346.407704 247.819034 
L 346.866783 263.311444 
L 347.189742 266.886619 
L 347.642073 270.461794 
L 347.912864 252.585932 
L 348.1522 256.161101 
L 348.633439 272.84524 
L 348.904211 256.161101 
L 349.114711 252.585932 
L 349.385384 270.461794 
L 349.656107 252.585932 
L 349.866651 252.585932 
L 350.107403 263.311444 
L 350.378078 245.435582 
L 350.648808 266.886619 
L 350.890521 263.311444 
L 351.37062 268.078342 
L 351.641334 252.585932 
L 351.851897 265.694896 
L 352.124029 252.585932 
L 352.634177 270.461794 
L 352.904799 258.544552 
L 353.927458 263.311444 
L 354.715919 252.585932 
L 355.521609 245.435582 
L 355.708982 266.886619 
L 356.032969 252.585932 
L 356.251931 256.161101 
L 356.725937 252.585932 
L 356.995375 256.161101 
L 357.243404 256.161101 
L 357.539343 259.736275 
L 357.809967 249.010757 
L 358.288824 252.585932 
L 358.529491 259.736275 
L 358.830233 245.435582 
L 359.131051 249.010757 
L 359.342797 263.311444 
L 359.619538 252.585932 
L 360.093617 274.036963 
L 360.335782 238.285244 
L 360.57482 266.886619 
L 360.815567 266.886619 
L 361.326909 249.010757 
L 361.59773 252.585932 
L 362.116902 263.311444 
L 362.349619 259.736275 
L 362.590266 263.311444 
L 363.191829 256.161101 
L 363.372315 266.886619 
L 363.584015 263.311444 
L 363.823431 263.311444 
L 364.283981 270.461794 
L 365.38767 241.860407 
L 365.838894 252.585932 
L 366.65916 256.161101 
L 366.92307 256.161101 
L 367.462987 263.311444 
L 367.673541 263.311444 
L 367.944239 252.585932 
L 368.462538 263.311444 
L 368.667755 252.585932 
L 368.938447 263.311444 
L 369.278555 241.860407 
L 369.455824 266.886619 
L 369.645223 268.078342 
L 369.961183 241.860407 
L 370.202993 269.270065 
L 370.388799 263.311444 
L 370.713142 259.736275 
L 371.194358 281.187307 
L 371.385339 252.585932 
L 371.615378 262.119721 
L 372.18806 241.860407 
L 372.374368 263.311444 
L 372.667985 263.311444 
L 372.878542 270.461794 
L 373.180654 241.860407 
L 373.419873 258.544552 
L 373.901076 266.886619 
L 374.111636 263.311444 
L 374.412351 238.285244 
L 374.683058 245.435582 
L 375.013938 241.860407 
L 375.260367 266.886619 
L 375.435194 266.886619 
L 375.985045 256.161101 
L 376.307492 245.435582 
L 376.608295 257.352824 
L 376.881798 238.285244 
L 377.060288 263.311444 
L 377.330877 251.394203 
L 377.631609 256.161101 
L 378.142842 256.161101 
L 378.593956 266.886619 
L 378.834633 252.585932 
L 379.31586 263.311444 
L 380.609814 263.311444 
L 381.127406 252.585932 
L 381.361779 266.886619 
L 381.692559 263.311444 
L 382.295315 238.285244 
L 382.775327 266.886619 
L 383.017141 266.886619 
L 383.226363 263.311444 
L 383.827888 256.161101 
L 384.01592 249.010757 
L 384.218801 274.036963 
L 384.459394 263.311444 
L 385.181242 238.285244 
L 385.579882 262.119721 
L 385.903083 252.585932 
L 386.182687 252.585932 
L 386.685188 249.010757 
L 386.925979 252.585932 
L 387.19668 263.311444 
L 387.70806 245.435582 
L 387.978654 259.736275 
L 388.70052 259.736275 
L 389.241951 245.435582 
L 389.452432 266.886619 
L 389.933817 259.736275 
L 390.234604 259.736275 
L 390.476281 256.161101 
L 390.715809 259.736275 
L 391.016658 256.161101 
L 391.227273 263.311444 
L 391.497913 256.161101 
L 391.738579 259.736275 
L 392.249943 249.010757 
L 392.490528 259.736275 
L 392.791282 245.435582 
L 393.031951 266.886619 
L 393.242534 256.161101 
L 393.513231 263.311444 
L 393.783901 259.736275 
L 394.295275 256.161101 
L 394.565967 249.010757 
L 394.776513 266.886619 
L 395.078443 265.694896 
L 395.29672 245.435582 
L 395.498257 266.886619 
L 396.288067 259.736275 
L 396.761297 259.736275 
L 397.031987 270.461794 
L 397.363979 245.435582 
L 397.549469 263.311444 
L 397.762001 263.311444 
L 398.024378 265.694896 
L 398.204791 263.311444 
L 398.47543 254.969378 
L 398.685959 265.694896 
L 399.018017 264.503173 
L 399.654691 281.187307 
L 399.920346 257.352824 
L 400.640917 263.311444 
L 400.851417 270.461794 
L 401.182373 249.010757 
L 401.369038 252.585932 
L 401.639422 249.010757 
L 401.874758 263.311444 
L 402.446152 266.886619 
L 402.63562 259.736275 
L 402.897255 259.736275 
L 403.137908 252.585932 
L 403.408597 269.270065 
L 403.709354 245.435582 
L 403.891059 266.886619 
L 404.401044 258.544552 
L 404.611624 274.036963 
L 404.882277 249.010757 
L 405.393615 271.653517 
L 405.605332 252.585932 
L 405.844751 262.119721 
L 406.295942 266.886619 
L 406.506487 272.84524 
L 406.987765 263.311444 
L 407.228292 269.270065 
L 407.468905 266.886619 
L 407.709599 252.585932 
L 407.920153 264.503173 
L 408.190868 259.736275 
L 408.67818 262.119721 
L 408.97293 270.461794 
L 409.724846 241.860407 
L 410.236232 251.394203 
L 410.98829 263.311444 
L 412.040917 256.161101 
L 413.282751 269.270065 
L 414.086427 251.394203 
L 414.454329 276.420415 
L 414.72 265.694896 
L 414.72 265.694896 
" style="fill:none;stroke:#000000;stroke-linecap:square;stroke-width:0.8;"/>
   </g>
   <g id="patch_3">
    <path d="M 57.6 307.584 
L 57.6 41.472 
" style="fill:none;stroke:#000000;stroke-linecap:square;stroke-linejoin:miter;stroke-width:0.8;"/>
   </g>
   <g id="patch_4">
    <path d="M 414.72 307.584 
L 414.72 41.472 
" style="fill:none;stroke:#000000;stroke-linecap:square;stroke-linejoin:miter;stroke-width:0.8;"/>
   </g>
   <g id="patch_5">
    <path d="M 57.6 307.584 
L 414.72 307.584 
" style="fill:none;stroke:#000000;stroke-linecap:square;stroke-linejoin:miter;stroke-width:0.8;"/>
   </g>
   <g id="patch_6">
    <path d="M 57.6 41.472 
L 414.72 41.472 
" style="fill:none;stroke:#000000;stroke-linecap:square;stroke-linejoin:miter;stroke-width:0.8;"/>
   </g>
  </g>
  <g id="axes_2">
   <g id="matplotlib.axis_3">
    <g id="xtick_8">
     <g id="line2d_32">
      <defs>
       <path d="M 0 0 
L 0 -3.5 
" id="mb6ab74d8ce" style="stroke:#000000;stroke-width:0.8;"/>
      </defs>
      <g>
       <use style="stroke:#000000;stroke-width:0.8;" x="57.6" xlink:href="#mb6ab74d8ce" y="41.472"/>
      </g>
     </g>
    </g>
    <g id="xtick_9">
     <g id="line2d_33">
      <g>
       <use style="stroke:#000000;stroke-width:0.8;" x="101.844016" xlink:href="#mb6ab74d8ce" y="41.472"/>
      </g>
     </g>
     <g id="text_18">
      <!-- 10.0K -->
      <defs>
       <path d="M 9.8125 72.90625 
L 19.671875 72.90625 
L 19.671875 42.09375 
L 52.390625 72.90625 
L 65.09375 72.90625 
L 28.90625 38.921875 
L 67.671875 0 
L 54.6875 0 
L 19.671875 35.109375 
L 19.671875 0 
L 9.8125 0 
z
" id="DejaVuSans-75"/>
      </defs>
      <g transform="translate(87.432297 32.392313)scale(0.1 -0.1)">
       <use xlink:href="#DejaVuSans-49"/>
       <use x="63.623047" xlink:href="#DejaVuSans-48"/>
       <use x="127.246094" xlink:href="#DejaVuSans-46"/>
       <use x="159.033203" xlink:href="#DejaVuSans-48"/>
       <use x="222.65625" xlink:href="#DejaVuSans-75"/>
      </g>
     </g>
    </g>
    <g id="xtick_10">
     <g id="line2d_34">
      <g>
       <use style="stroke:#000000;stroke-width:0.8;" x="146.088032" xlink:href="#mb6ab74d8ce" y="41.472"/>
      </g>
     </g>
     <g id="text_19">
      <!-- 20.0K -->
      <g transform="translate(131.676313 32.392313)scale(0.1 -0.1)">
       <use xlink:href="#DejaVuSans-50"/>
       <use x="63.623047" xlink:href="#DejaVuSans-48"/>
       <use x="127.246094" xlink:href="#DejaVuSans-46"/>
       <use x="159.033203" xlink:href="#DejaVuSans-48"/>
       <use x="222.65625" xlink:href="#DejaVuSans-75"/>
      </g>
     </g>
    </g>
    <g id="xtick_11">
     <g id="line2d_35">
      <g>
       <use style="stroke:#000000;stroke-width:0.8;" x="190.332048" xlink:href="#mb6ab74d8ce" y="41.472"/>
      </g>
     </g>
     <g id="text_20">
      <!-- 30.0K -->
      <g transform="translate(175.920329 32.392313)scale(0.1 -0.1)">
       <use xlink:href="#DejaVuSans-51"/>
       <use x="63.623047" xlink:href="#DejaVuSans-48"/>
       <use x="127.246094" xlink:href="#DejaVuSans-46"/>
       <use x="159.033203" xlink:href="#DejaVuSans-48"/>
       <use x="222.65625" xlink:href="#DejaVuSans-75"/>
      </g>
     </g>
    </g>
    <g id="xtick_12">
     <g id="line2d_36">
      <g>
       <use style="stroke:#000000;stroke-width:0.8;" x="234.576064" xlink:href="#mb6ab74d8ce" y="41.472"/>
      </g>
     </g>
     <g id="text_21">
      <!-- 40.0K -->
      <g transform="translate(220.164345 32.392313)scale(0.1 -0.1)">
       <use xlink:href="#DejaVuSans-52"/>
       <use x="63.623047" xlink:href="#DejaVuSans-48"/>
       <use x="127.246094" xlink:href="#DejaVuSans-46"/>
       <use x="159.033203" xlink:href="#DejaVuSans-48"/>
       <use x="222.65625" xlink:href="#DejaVuSans-75"/>
      </g>
     </g>
    </g>
    <g id="xtick_13">
     <g id="line2d_37">
      <g>
       <use style="stroke:#000000;stroke-width:0.8;" x="278.82008" xlink:href="#mb6ab74d8ce" y="41.472"/>
      </g>
     </g>
     <g id="text_22">
      <!-- 50.0K -->
      <g transform="translate(264.408362 32.392313)scale(0.1 -0.1)">
       <use xlink:href="#DejaVuSans-53"/>
       <use x="63.623047" xlink:href="#DejaVuSans-48"/>
       <use x="127.246094" xlink:href="#DejaVuSans-46"/>
       <use x="159.033203" xlink:href="#DejaVuSans-48"/>
       <use x="222.65625" xlink:href="#DejaVuSans-75"/>
      </g>
     </g>
    </g>
    <g id="xtick_14">
     <g id="line2d_38">
      <g>
       <use style="stroke:#000000;stroke-width:0.8;" x="323.064096" xlink:href="#mb6ab74d8ce" y="41.472"/>
      </g>
     </g>
     <g id="text_23">
      <!-- 60.0K -->
      <g transform="translate(308.652378 32.392313)scale(0.1 -0.1)">
       <use xlink:href="#DejaVuSans-54"/>
       <use x="63.623047" xlink:href="#DejaVuSans-48"/>
       <use x="127.246094" xlink:href="#DejaVuSans-46"/>
       <use x="159.033203" xlink:href="#DejaVuSans-48"/>
       <use x="222.65625" xlink:href="#DejaVuSans-75"/>
      </g>
     </g>
    </g>
    <g id="xtick_15">
     <g id="line2d_39">
      <g>
       <use style="stroke:#000000;stroke-width:0.8;" x="367.308112" xlink:href="#mb6ab74d8ce" y="41.472"/>
      </g>
     </g>
     <g id="text_24">
      <!-- 70.0K -->
      <g transform="translate(352.896394 32.392313)scale(0.1 -0.1)">
       <use xlink:href="#DejaVuSans-55"/>
       <use x="63.623047" xlink:href="#DejaVuSans-48"/>
       <use x="127.246094" xlink:href="#DejaVuSans-46"/>
       <use x="159.033203" xlink:href="#DejaVuSans-48"/>
       <use x="222.65625" xlink:href="#DejaVuSans-75"/>
      </g>
     </g>
    </g>
    <g id="xtick_16">
     <g id="line2d_40">
      <g>
       <use style="stroke:#000000;stroke-width:0.8;" x="411.552128" xlink:href="#mb6ab74d8ce" y="41.472"/>
      </g>
     </g>
     <g id="text_25">
      <!-- 80.0K -->
      <defs>
       <path d="M 31.78125 34.625 
Q 24.75 34.625 20.71875 30.859375 
Q 16.703125 27.09375 16.703125 20.515625 
Q 16.703125 13.921875 20.71875 10.15625 
Q 24.75 6.390625 31.78125 6.390625 
Q 38.8125 6.390625 42.859375 10.171875 
Q 46.921875 13.96875 46.921875 20.515625 
Q 46.921875 27.09375 42.890625 30.859375 
Q 38.875 34.625 31.78125 34.625 
z
M 21.921875 38.8125 
Q 15.578125 40.375 12.03125 44.71875 
Q 8.5 49.078125 8.5 55.328125 
Q 8.5 64.0625 14.71875 69.140625 
Q 20.953125 74.21875 31.78125 74.21875 
Q 42.671875 74.21875 48.875 69.140625 
Q 55.078125 64.0625 55.078125 55.328125 
Q 55.078125 49.078125 51.53125 44.71875 
Q 48 40.375 41.703125 38.8125 
Q 48.828125 37.15625 52.796875 32.3125 
Q 56.78125 27.484375 56.78125 20.515625 
Q 56.78125 9.90625 50.3125 4.234375 
Q 43.84375 -1.421875 31.78125 -1.421875 
Q 19.734375 -1.421875 13.25 4.234375 
Q 6.78125 9.90625 6.78125 20.515625 
Q 6.78125 27.484375 10.78125 32.3125 
Q 14.796875 37.15625 21.921875 38.8125 
z
M 18.3125 54.390625 
Q 18.3125 48.734375 21.84375 45.5625 
Q 25.390625 42.390625 31.78125 42.390625 
Q 38.140625 42.390625 41.71875 45.5625 
Q 45.3125 48.734375 45.3125 54.390625 
Q 45.3125 60.0625 41.71875 63.234375 
Q 38.140625 66.40625 31.78125 66.40625 
Q 25.390625 66.40625 21.84375 63.234375 
Q 18.3125 60.0625 18.3125 54.390625 
z
" id="DejaVuSans-56"/>
      </defs>
      <g transform="translate(397.14041 32.392313)scale(0.1 -0.1)">
       <use xlink:href="#DejaVuSans-56"/>
       <use x="63.623047" xlink:href="#DejaVuSans-48"/>
       <use x="127.246094" xlink:href="#DejaVuSans-46"/>
       <use x="159.033203" xlink:href="#DejaVuSans-48"/>
       <use x="222.65625" xlink:href="#DejaVuSans-75"/>
      </g>
     </g>
    </g>
    <g id="text_26">
     <!-- Steps -->
     <defs>
      <path d="M 53.515625 70.515625 
L 53.515625 60.890625 
Q 47.90625 63.578125 42.921875 64.890625 
Q 37.9375 66.21875 33.296875 66.21875 
Q 25.25 66.21875 20.875 63.09375 
Q 16.5 59.96875 16.5 54.203125 
Q 16.5 49.359375 19.40625 46.890625 
Q 22.3125 44.4375 30.421875 42.921875 
L 36.375 41.703125 
Q 47.40625 39.59375 52.65625 34.296875 
Q 57.90625 29 57.90625 20.125 
Q 57.90625 9.515625 50.796875 4.046875 
Q 43.703125 -1.421875 29.984375 -1.421875 
Q 24.8125 -1.421875 18.96875 -0.25 
Q 13.140625 0.921875 6.890625 3.21875 
L 6.890625 13.375 
Q 12.890625 10.015625 18.65625 8.296875 
Q 24.421875 6.59375 29.984375 6.59375 
Q 38.421875 6.59375 43.015625 9.90625 
Q 47.609375 13.234375 47.609375 19.390625 
Q 47.609375 24.75 44.3125 27.78125 
Q 41.015625 30.8125 33.5 32.328125 
L 27.484375 33.5 
Q 16.453125 35.6875 11.515625 40.375 
Q 6.59375 45.0625 6.59375 53.421875 
Q 6.59375 63.09375 13.40625 68.65625 
Q 20.21875 74.21875 32.171875 74.21875 
Q 37.3125 74.21875 42.625 73.28125 
Q 47.953125 72.359375 53.515625 70.515625 
z
" id="DejaVuSans-83"/>
     </defs>
     <g transform="translate(222.170156 20.793875)scale(0.1 -0.1)">
      <use xlink:href="#DejaVuSans-83"/>
      <use x="63.476562" xlink:href="#DejaVuSans-116"/>
      <use x="102.685547" xlink:href="#DejaVuSans-101"/>
      <use x="164.208984" xlink:href="#DejaVuSans-112"/>
      <use x="227.685547" xlink:href="#DejaVuSans-115"/>
     </g>
    </g>
   </g>
   <g id="patch_7">
    <path d="M 57.6 307.584 
L 57.6 41.472 
" style="fill:none;stroke:#000000;stroke-linecap:square;stroke-linejoin:miter;stroke-width:0.8;"/>
   </g>
   <g id="patch_8">
    <path d="M 414.72 307.584 
L 414.72 41.472 
" style="fill:none;stroke:#000000;stroke-linecap:square;stroke-linejoin:miter;stroke-width:0.8;"/>
   </g>
   <g id="patch_9">
    <path d="M 57.6 307.584 
L 414.72 307.584 
" style="fill:none;stroke:#000000;stroke-linecap:square;stroke-linejoin:miter;stroke-width:0.8;"/>
   </g>
   <g id="patch_10">
    <path d="M 57.6 41.472 
L 414.72 41.472 
" style="fill:none;stroke:#000000;stroke-linecap:square;stroke-linejoin:miter;stroke-width:0.8;"/>
   </g>
  </g>
 </g>
 <defs>
  <clipPath id="pf8bdf0f106">
   <rect height="266.112" width="357.12" x="57.6" y="41.472"/>
  </clipPath>
 </defs>
</svg>
