<?xml version="1.0" encoding="utf-8" standalone="no"?>
<!DOCTYPE svg PUBLIC "-//W3C//DTD SVG 1.1//EN"
  "http://www.w3.org/Graphics/SVG/1.1/DTD/svg11.dtd">
<!-- Created with matplotlib (https://matplotlib.org/) -->
<svg height="345.6pt" version="1.1" viewBox="0 0 460.8 345.6" width="460.8pt" xmlns="http://www.w3.org/2000/svg" xmlns:xlink="http://www.w3.org/1999/xlink">
 <defs>
  <style type="text/css">
*{stroke-linecap:butt;stroke-linejoin:round;}
  </style>
 </defs>
 <g id="figure_1">
  <g id="patch_1">
   <path d="M 0 345.6 
L 460.8 345.6 
L 460.8 0 
L 0 0 
z
" style="fill:#ffffff;"/>
  </g>
  <g id="axes_1">
   <g id="patch_2">
    <path d="M 57.6 307.584 
L 414.72 307.584 
L 414.72 41.472 
L 57.6 41.472 
z
" style="fill:#ffffff;"/>
   </g>
   <g id="matplotlib.axis_1">
    <g id="xtick_1">
     <g id="line2d_1">
      <path clip-path="url(#p3f21571fb9)" d="M 57.6 307.584 
L 57.6 41.472 
" style="fill:none;stroke:#b0b0b0;stroke-linecap:square;stroke-width:0.8;"/>
     </g>
     <g id="line2d_2">
      <defs>
       <path d="M 0 0 
L 0 3.5 
" id="m37ff21e3ae" style="stroke:#000000;stroke-width:0.8;"/>
      </defs>
      <g>
       <use style="stroke:#000000;stroke-width:0.8;" x="57.6" xlink:href="#m37ff21e3ae" y="307.584"/>
      </g>
     </g>
     <g id="text_1">
      <!-- 0.0 -->
      <defs>
       <path d="M 31.78125 66.40625 
Q 24.171875 66.40625 20.328125 58.90625 
Q 16.5 51.421875 16.5 36.375 
Q 16.5 21.390625 20.328125 13.890625 
Q 24.171875 6.390625 31.78125 6.390625 
Q 39.453125 6.390625 43.28125 13.890625 
Q 47.125 21.390625 47.125 36.375 
Q 47.125 51.421875 43.28125 58.90625 
Q 39.453125 66.40625 31.78125 66.40625 
z
M 31.78125 74.21875 
Q 44.046875 74.21875 50.515625 64.515625 
Q 56.984375 54.828125 56.984375 36.375 
Q 56.984375 17.96875 50.515625 8.265625 
Q 44.046875 -1.421875 31.78125 -1.421875 
Q 19.53125 -1.421875 13.0625 8.265625 
Q 6.59375 17.96875 6.59375 36.375 
Q 6.59375 54.828125 13.0625 64.515625 
Q 19.53125 74.21875 31.78125 74.21875 
z
" id="DejaVuSans-48"/>
       <path d="M 10.6875 12.40625 
L 21 12.40625 
L 21 0 
L 10.6875 0 
z
" id="DejaVuSans-46"/>
      </defs>
      <g transform="translate(49.648438 322.182437)scale(0.1 -0.1)">
       <use xlink:href="#DejaVuSans-48"/>
       <use x="63.623047" xlink:href="#DejaVuSans-46"/>
       <use x="95.410156" xlink:href="#DejaVuSans-48"/>
      </g>
     </g>
    </g>
    <g id="xtick_2">
     <g id="line2d_3">
      <path clip-path="url(#p3f21571fb9)" d="M 99.354578 307.584 
L 99.354578 41.472 
" style="fill:none;stroke:#b0b0b0;stroke-linecap:square;stroke-width:0.8;"/>
     </g>
     <g id="line2d_4">
      <g>
       <use style="stroke:#000000;stroke-width:0.8;" x="99.354578" xlink:href="#m37ff21e3ae" y="307.584"/>
      </g>
     </g>
     <g id="text_2">
      <!-- 0.1 -->
      <defs>
       <path d="M 12.40625 8.296875 
L 28.515625 8.296875 
L 28.515625 63.921875 
L 10.984375 60.40625 
L 10.984375 69.390625 
L 28.421875 72.90625 
L 38.28125 72.90625 
L 38.28125 8.296875 
L 54.390625 8.296875 
L 54.390625 0 
L 12.40625 0 
z
" id="DejaVuSans-49"/>
      </defs>
      <g transform="translate(91.403015 322.182437)scale(0.1 -0.1)">
       <use xlink:href="#DejaVuSans-48"/>
       <use x="63.623047" xlink:href="#DejaVuSans-46"/>
       <use x="95.410156" xlink:href="#DejaVuSans-49"/>
      </g>
     </g>
    </g>
    <g id="xtick_3">
     <g id="line2d_5">
      <path clip-path="url(#p3f21571fb9)" d="M 141.109156 307.584 
L 141.109156 41.472 
" style="fill:none;stroke:#b0b0b0;stroke-linecap:square;stroke-width:0.8;"/>
     </g>
     <g id="line2d_6">
      <g>
       <use style="stroke:#000000;stroke-width:0.8;" x="141.109156" xlink:href="#m37ff21e3ae" y="307.584"/>
      </g>
     </g>
     <g id="text_3">
      <!-- 0.2 -->
      <defs>
       <path d="M 19.1875 8.296875 
L 53.609375 8.296875 
L 53.609375 0 
L 7.328125 0 
L 7.328125 8.296875 
Q 12.9375 14.109375 22.625 23.890625 
Q 32.328125 33.6875 34.8125 36.53125 
Q 39.546875 41.84375 41.421875 45.53125 
Q 43.3125 49.21875 43.3125 52.78125 
Q 43.3125 58.59375 39.234375 62.25 
Q 35.15625 65.921875 28.609375 65.921875 
Q 23.96875 65.921875 18.8125 64.3125 
Q 13.671875 62.703125 7.8125 59.421875 
L 7.8125 69.390625 
Q 13.765625 71.78125 18.9375 73 
Q 24.125 74.21875 28.421875 74.21875 
Q 39.75 74.21875 46.484375 68.546875 
Q 53.21875 62.890625 53.21875 53.421875 
Q 53.21875 48.921875 51.53125 44.890625 
Q 49.859375 40.875 45.40625 35.40625 
Q 44.1875 33.984375 37.640625 27.21875 
Q 31.109375 20.453125 19.1875 8.296875 
z
" id="DejaVuSans-50"/>
      </defs>
      <g transform="translate(133.157593 322.182437)scale(0.1 -0.1)">
       <use xlink:href="#DejaVuSans-48"/>
       <use x="63.623047" xlink:href="#DejaVuSans-46"/>
       <use x="95.410156" xlink:href="#DejaVuSans-50"/>
      </g>
     </g>
    </g>
    <g id="xtick_4">
     <g id="line2d_7">
      <path clip-path="url(#p3f21571fb9)" d="M 182.863733 307.584 
L 182.863733 41.472 
" style="fill:none;stroke:#b0b0b0;stroke-linecap:square;stroke-width:0.8;"/>
     </g>
     <g id="line2d_8">
      <g>
       <use style="stroke:#000000;stroke-width:0.8;" x="182.863733" xlink:href="#m37ff21e3ae" y="307.584"/>
      </g>
     </g>
     <g id="text_4">
      <!-- 0.3 -->
      <defs>
       <path d="M 40.578125 39.3125 
Q 47.65625 37.796875 51.625 33 
Q 55.609375 28.21875 55.609375 21.1875 
Q 55.609375 10.40625 48.1875 4.484375 
Q 40.765625 -1.421875 27.09375 -1.421875 
Q 22.515625 -1.421875 17.65625 -0.515625 
Q 12.796875 0.390625 7.625 2.203125 
L 7.625 11.71875 
Q 11.71875 9.328125 16.59375 8.109375 
Q 21.484375 6.890625 26.8125 6.890625 
Q 36.078125 6.890625 40.9375 10.546875 
Q 45.796875 14.203125 45.796875 21.1875 
Q 45.796875 27.640625 41.28125 31.265625 
Q 36.765625 34.90625 28.71875 34.90625 
L 20.21875 34.90625 
L 20.21875 43.015625 
L 29.109375 43.015625 
Q 36.375 43.015625 40.234375 45.921875 
Q 44.09375 48.828125 44.09375 54.296875 
Q 44.09375 59.90625 40.109375 62.90625 
Q 36.140625 65.921875 28.71875 65.921875 
Q 24.65625 65.921875 20.015625 65.03125 
Q 15.375 64.15625 9.8125 62.3125 
L 9.8125 71.09375 
Q 15.4375 72.65625 20.34375 73.4375 
Q 25.25 74.21875 29.59375 74.21875 
Q 40.828125 74.21875 47.359375 69.109375 
Q 53.90625 64.015625 53.90625 55.328125 
Q 53.90625 49.265625 50.4375 45.09375 
Q 46.96875 40.921875 40.578125 39.3125 
z
" id="DejaVuSans-51"/>
      </defs>
      <g transform="translate(174.912171 322.182437)scale(0.1 -0.1)">
       <use xlink:href="#DejaVuSans-48"/>
       <use x="63.623047" xlink:href="#DejaVuSans-46"/>
       <use x="95.410156" xlink:href="#DejaVuSans-51"/>
      </g>
     </g>
    </g>
    <g id="xtick_5">
     <g id="line2d_9">
      <path clip-path="url(#p3f21571fb9)" d="M 224.618311 307.584 
L 224.618311 41.472 
" style="fill:none;stroke:#b0b0b0;stroke-linecap:square;stroke-width:0.8;"/>
     </g>
     <g id="line2d_10">
      <g>
       <use style="stroke:#000000;stroke-width:0.8;" x="224.618311" xlink:href="#m37ff21e3ae" y="307.584"/>
      </g>
     </g>
     <g id="text_5">
      <!-- 0.4 -->
      <defs>
       <path d="M 37.796875 64.3125 
L 12.890625 25.390625 
L 37.796875 25.390625 
z
M 35.203125 72.90625 
L 47.609375 72.90625 
L 47.609375 25.390625 
L 58.015625 25.390625 
L 58.015625 17.1875 
L 47.609375 17.1875 
L 47.609375 0 
L 37.796875 0 
L 37.796875 17.1875 
L 4.890625 17.1875 
L 4.890625 26.703125 
z
" id="DejaVuSans-52"/>
      </defs>
      <g transform="translate(216.666749 322.182437)scale(0.1 -0.1)">
       <use xlink:href="#DejaVuSans-48"/>
       <use x="63.623047" xlink:href="#DejaVuSans-46"/>
       <use x="95.410156" xlink:href="#DejaVuSans-52"/>
      </g>
     </g>
    </g>
    <g id="xtick_6">
     <g id="line2d_11">
      <path clip-path="url(#p3f21571fb9)" d="M 266.372889 307.584 
L 266.372889 41.472 
" style="fill:none;stroke:#b0b0b0;stroke-linecap:square;stroke-width:0.8;"/>
     </g>
     <g id="line2d_12">
      <g>
       <use style="stroke:#000000;stroke-width:0.8;" x="266.372889" xlink:href="#m37ff21e3ae" y="307.584"/>
      </g>
     </g>
     <g id="text_6">
      <!-- 0.5 -->
      <defs>
       <path d="M 10.796875 72.90625 
L 49.515625 72.90625 
L 49.515625 64.59375 
L 19.828125 64.59375 
L 19.828125 46.734375 
Q 21.96875 47.46875 24.109375 47.828125 
Q 26.265625 48.1875 28.421875 48.1875 
Q 40.625 48.1875 47.75 41.5 
Q 54.890625 34.8125 54.890625 23.390625 
Q 54.890625 11.625 47.5625 5.09375 
Q 40.234375 -1.421875 26.90625 -1.421875 
Q 22.3125 -1.421875 17.546875 -0.640625 
Q 12.796875 0.140625 7.71875 1.703125 
L 7.71875 11.625 
Q 12.109375 9.234375 16.796875 8.0625 
Q 21.484375 6.890625 26.703125 6.890625 
Q 35.15625 6.890625 40.078125 11.328125 
Q 45.015625 15.765625 45.015625 23.390625 
Q 45.015625 31 40.078125 35.4375 
Q 35.15625 39.890625 26.703125 39.890625 
Q 22.75 39.890625 18.8125 39.015625 
Q 14.890625 38.140625 10.796875 36.28125 
z
" id="DejaVuSans-53"/>
      </defs>
      <g transform="translate(258.421327 322.182437)scale(0.1 -0.1)">
       <use xlink:href="#DejaVuSans-48"/>
       <use x="63.623047" xlink:href="#DejaVuSans-46"/>
       <use x="95.410156" xlink:href="#DejaVuSans-53"/>
      </g>
     </g>
    </g>
    <g id="xtick_7">
     <g id="line2d_13">
      <path clip-path="url(#p3f21571fb9)" d="M 308.127467 307.584 
L 308.127467 41.472 
" style="fill:none;stroke:#b0b0b0;stroke-linecap:square;stroke-width:0.8;"/>
     </g>
     <g id="line2d_14">
      <g>
       <use style="stroke:#000000;stroke-width:0.8;" x="308.127467" xlink:href="#m37ff21e3ae" y="307.584"/>
      </g>
     </g>
     <g id="text_7">
      <!-- 0.6 -->
      <defs>
       <path d="M 33.015625 40.375 
Q 26.375 40.375 22.484375 35.828125 
Q 18.609375 31.296875 18.609375 23.390625 
Q 18.609375 15.53125 22.484375 10.953125 
Q 26.375 6.390625 33.015625 6.390625 
Q 39.65625 6.390625 43.53125 10.953125 
Q 47.40625 15.53125 47.40625 23.390625 
Q 47.40625 31.296875 43.53125 35.828125 
Q 39.65625 40.375 33.015625 40.375 
z
M 52.59375 71.296875 
L 52.59375 62.3125 
Q 48.875 64.0625 45.09375 64.984375 
Q 41.3125 65.921875 37.59375 65.921875 
Q 27.828125 65.921875 22.671875 59.328125 
Q 17.53125 52.734375 16.796875 39.40625 
Q 19.671875 43.65625 24.015625 45.921875 
Q 28.375 48.1875 33.59375 48.1875 
Q 44.578125 48.1875 50.953125 41.515625 
Q 57.328125 34.859375 57.328125 23.390625 
Q 57.328125 12.15625 50.6875 5.359375 
Q 44.046875 -1.421875 33.015625 -1.421875 
Q 20.359375 -1.421875 13.671875 8.265625 
Q 6.984375 17.96875 6.984375 36.375 
Q 6.984375 53.65625 15.1875 63.9375 
Q 23.390625 74.21875 37.203125 74.21875 
Q 40.921875 74.21875 44.703125 73.484375 
Q 48.484375 72.75 52.59375 71.296875 
z
" id="DejaVuSans-54"/>
      </defs>
      <g transform="translate(300.175904 322.182437)scale(0.1 -0.1)">
       <use xlink:href="#DejaVuSans-48"/>
       <use x="63.623047" xlink:href="#DejaVuSans-46"/>
       <use x="95.410156" xlink:href="#DejaVuSans-54"/>
      </g>
     </g>
    </g>
    <g id="xtick_8">
     <g id="line2d_15">
      <path clip-path="url(#p3f21571fb9)" d="M 349.882045 307.584 
L 349.882045 41.472 
" style="fill:none;stroke:#b0b0b0;stroke-linecap:square;stroke-width:0.8;"/>
     </g>
     <g id="line2d_16">
      <g>
       <use style="stroke:#000000;stroke-width:0.8;" x="349.882045" xlink:href="#m37ff21e3ae" y="307.584"/>
      </g>
     </g>
     <g id="text_8">
      <!-- 0.7 -->
      <defs>
       <path d="M 8.203125 72.90625 
L 55.078125 72.90625 
L 55.078125 68.703125 
L 28.609375 0 
L 18.3125 0 
L 43.21875 64.59375 
L 8.203125 64.59375 
z
" id="DejaVuSans-55"/>
      </defs>
      <g transform="translate(341.930482 322.182437)scale(0.1 -0.1)">
       <use xlink:href="#DejaVuSans-48"/>
       <use x="63.623047" xlink:href="#DejaVuSans-46"/>
       <use x="95.410156" xlink:href="#DejaVuSans-55"/>
      </g>
     </g>
    </g>
    <g id="xtick_9">
     <g id="line2d_17">
      <path clip-path="url(#p3f21571fb9)" d="M 391.636622 307.584 
L 391.636622 41.472 
" style="fill:none;stroke:#b0b0b0;stroke-linecap:square;stroke-width:0.8;"/>
     </g>
     <g id="line2d_18">
      <g>
       <use style="stroke:#000000;stroke-width:0.8;" x="391.636622" xlink:href="#m37ff21e3ae" y="307.584"/>
      </g>
     </g>
     <g id="text_9">
      <!-- 0.8 -->
      <defs>
       <path d="M 31.78125 34.625 
Q 24.75 34.625 20.71875 30.859375 
Q 16.703125 27.09375 16.703125 20.515625 
Q 16.703125 13.921875 20.71875 10.15625 
Q 24.75 6.390625 31.78125 6.390625 
Q 38.8125 6.390625 42.859375 10.171875 
Q 46.921875 13.96875 46.921875 20.515625 
Q 46.921875 27.09375 42.890625 30.859375 
Q 38.875 34.625 31.78125 34.625 
z
M 21.921875 38.8125 
Q 15.578125 40.375 12.03125 44.71875 
Q 8.5 49.078125 8.5 55.328125 
Q 8.5 64.0625 14.71875 69.140625 
Q 20.953125 74.21875 31.78125 74.21875 
Q 42.671875 74.21875 48.875 69.140625 
Q 55.078125 64.0625 55.078125 55.328125 
Q 55.078125 49.078125 51.53125 44.71875 
Q 48 40.375 41.703125 38.8125 
Q 48.828125 37.15625 52.796875 32.3125 
Q 56.78125 27.484375 56.78125 20.515625 
Q 56.78125 9.90625 50.3125 4.234375 
Q 43.84375 -1.421875 31.78125 -1.421875 
Q 19.734375 -1.421875 13.25 4.234375 
Q 6.78125 9.90625 6.78125 20.515625 
Q 6.78125 27.484375 10.78125 32.3125 
Q 14.796875 37.15625 21.921875 38.8125 
z
M 18.3125 54.390625 
Q 18.3125 48.734375 21.84375 45.5625 
Q 25.390625 42.390625 31.78125 42.390625 
Q 38.140625 42.390625 41.71875 45.5625 
Q 45.3125 48.734375 45.3125 54.390625 
Q 45.3125 60.0625 41.71875 63.234375 
Q 38.140625 66.40625 31.78125 66.40625 
Q 25.390625 66.40625 21.84375 63.234375 
Q 18.3125 60.0625 18.3125 54.390625 
z
" id="DejaVuSans-56"/>
      </defs>
      <g transform="translate(383.68506 322.182437)scale(0.1 -0.1)">
       <use xlink:href="#DejaVuSans-48"/>
       <use x="63.623047" xlink:href="#DejaVuSans-46"/>
       <use x="95.410156" xlink:href="#DejaVuSans-56"/>
      </g>
     </g>
    </g>
    <g id="text_10">
     <!-- Hours -->
     <defs>
      <path d="M 9.8125 72.90625 
L 19.671875 72.90625 
L 19.671875 43.015625 
L 55.515625 43.015625 
L 55.515625 72.90625 
L 65.375 72.90625 
L 65.375 0 
L 55.515625 0 
L 55.515625 34.71875 
L 19.671875 34.71875 
L 19.671875 0 
L 9.8125 0 
z
" id="DejaVuSans-72"/>
      <path d="M 30.609375 48.390625 
Q 23.390625 48.390625 19.1875 42.75 
Q 14.984375 37.109375 14.984375 27.296875 
Q 14.984375 17.484375 19.15625 11.84375 
Q 23.34375 6.203125 30.609375 6.203125 
Q 37.796875 6.203125 41.984375 11.859375 
Q 46.1875 17.53125 46.1875 27.296875 
Q 46.1875 37.015625 41.984375 42.703125 
Q 37.796875 48.390625 30.609375 48.390625 
z
M 30.609375 56 
Q 42.328125 56 49.015625 48.375 
Q 55.71875 40.765625 55.71875 27.296875 
Q 55.71875 13.875 49.015625 6.21875 
Q 42.328125 -1.421875 30.609375 -1.421875 
Q 18.84375 -1.421875 12.171875 6.21875 
Q 5.515625 13.875 5.515625 27.296875 
Q 5.515625 40.765625 12.171875 48.375 
Q 18.84375 56 30.609375 56 
z
" id="DejaVuSans-111"/>
      <path d="M 8.5 21.578125 
L 8.5 54.6875 
L 17.484375 54.6875 
L 17.484375 21.921875 
Q 17.484375 14.15625 20.5 10.265625 
Q 23.53125 6.390625 29.59375 6.390625 
Q 36.859375 6.390625 41.078125 11.03125 
Q 45.3125 15.671875 45.3125 23.6875 
L 45.3125 54.6875 
L 54.296875 54.6875 
L 54.296875 0 
L 45.3125 0 
L 45.3125 8.40625 
Q 42.046875 3.421875 37.71875 1 
Q 33.40625 -1.421875 27.6875 -1.421875 
Q 18.265625 -1.421875 13.375 4.4375 
Q 8.5 10.296875 8.5 21.578125 
z
M 31.109375 56 
z
" id="DejaVuSans-117"/>
      <path d="M 41.109375 46.296875 
Q 39.59375 47.171875 37.8125 47.578125 
Q 36.03125 48 33.890625 48 
Q 26.265625 48 22.1875 43.046875 
Q 18.109375 38.09375 18.109375 28.8125 
L 18.109375 0 
L 9.078125 0 
L 9.078125 54.6875 
L 18.109375 54.6875 
L 18.109375 46.1875 
Q 20.953125 51.171875 25.484375 53.578125 
Q 30.03125 56 36.53125 56 
Q 37.453125 56 38.578125 55.875 
Q 39.703125 55.765625 41.0625 55.515625 
z
" id="DejaVuSans-114"/>
      <path d="M 44.28125 53.078125 
L 44.28125 44.578125 
Q 40.484375 46.53125 36.375 47.5 
Q 32.28125 48.484375 27.875 48.484375 
Q 21.1875 48.484375 17.84375 46.4375 
Q 14.5 44.390625 14.5 40.28125 
Q 14.5 37.15625 16.890625 35.375 
Q 19.28125 33.59375 26.515625 31.984375 
L 29.59375 31.296875 
Q 39.15625 29.25 43.1875 25.515625 
Q 47.21875 21.78125 47.21875 15.09375 
Q 47.21875 7.46875 41.1875 3.015625 
Q 35.15625 -1.421875 24.609375 -1.421875 
Q 20.21875 -1.421875 15.453125 -0.5625 
Q 10.6875 0.296875 5.421875 2 
L 5.421875 11.28125 
Q 10.40625 8.6875 15.234375 7.390625 
Q 20.0625 6.109375 24.8125 6.109375 
Q 31.15625 6.109375 34.5625 8.28125 
Q 37.984375 10.453125 37.984375 14.40625 
Q 37.984375 18.0625 35.515625 20.015625 
Q 33.0625 21.96875 24.703125 23.78125 
L 21.578125 24.515625 
Q 13.234375 26.265625 9.515625 29.90625 
Q 5.8125 33.546875 5.8125 39.890625 
Q 5.8125 47.609375 11.28125 51.796875 
Q 16.75 56 26.8125 56 
Q 31.78125 56 36.171875 55.265625 
Q 40.578125 54.546875 44.28125 53.078125 
z
" id="DejaVuSans-115"/>
     </defs>
     <g transform="translate(221.511562 335.860562)scale(0.1 -0.1)">
      <use xlink:href="#DejaVuSans-72"/>
      <use x="75.195312" xlink:href="#DejaVuSans-111"/>
      <use x="136.376953" xlink:href="#DejaVuSans-117"/>
      <use x="199.755859" xlink:href="#DejaVuSans-114"/>
      <use x="240.869141" xlink:href="#DejaVuSans-115"/>
     </g>
    </g>
   </g>
   <g id="matplotlib.axis_2">
    <g id="ytick_1">
     <g id="line2d_19">
      <path clip-path="url(#p3f21571fb9)" d="M 57.6 276.208957 
L 414.72 276.208957 
" style="fill:none;stroke:#b0b0b0;stroke-linecap:square;stroke-width:0.8;"/>
     </g>
     <g id="line2d_20">
      <defs>
       <path d="M 0 0 
L -3.5 0 
" id="ma45d79a10c" style="stroke:#000000;stroke-width:0.8;"/>
      </defs>
      <g>
       <use style="stroke:#000000;stroke-width:0.8;" x="57.6" xlink:href="#ma45d79a10c" y="276.208957"/>
      </g>
     </g>
     <g id="text_11">
      <!-- −0.005 -->
      <defs>
       <path d="M 10.59375 35.5 
L 73.1875 35.5 
L 73.1875 27.203125 
L 10.59375 27.203125 
z
" id="DejaVuSans-8722"/>
      </defs>
      <g transform="translate(13.592188 280.008175)scale(0.1 -0.1)">
       <use xlink:href="#DejaVuSans-8722"/>
       <use x="83.789062" xlink:href="#DejaVuSans-48"/>
       <use x="147.412109" xlink:href="#DejaVuSans-46"/>
       <use x="179.199219" xlink:href="#DejaVuSans-48"/>
       <use x="242.822266" xlink:href="#DejaVuSans-48"/>
       <use x="306.445312" xlink:href="#DejaVuSans-53"/>
      </g>
     </g>
    </g>
    <g id="ytick_2">
     <g id="line2d_21">
      <path clip-path="url(#p3f21571fb9)" d="M 57.6 229.466539 
L 414.72 229.466539 
" style="fill:none;stroke:#b0b0b0;stroke-linecap:square;stroke-width:0.8;"/>
     </g>
     <g id="line2d_22">
      <g>
       <use style="stroke:#000000;stroke-width:0.8;" x="57.6" xlink:href="#ma45d79a10c" y="229.466539"/>
      </g>
     </g>
     <g id="text_12">
      <!-- −0.004 -->
      <g transform="translate(13.592188 233.265758)scale(0.1 -0.1)">
       <use xlink:href="#DejaVuSans-8722"/>
       <use x="83.789062" xlink:href="#DejaVuSans-48"/>
       <use x="147.412109" xlink:href="#DejaVuSans-46"/>
       <use x="179.199219" xlink:href="#DejaVuSans-48"/>
       <use x="242.822266" xlink:href="#DejaVuSans-48"/>
       <use x="306.445312" xlink:href="#DejaVuSans-52"/>
      </g>
     </g>
    </g>
    <g id="ytick_3">
     <g id="line2d_23">
      <path clip-path="url(#p3f21571fb9)" d="M 57.6 182.724122 
L 414.72 182.724122 
" style="fill:none;stroke:#b0b0b0;stroke-linecap:square;stroke-width:0.8;"/>
     </g>
     <g id="line2d_24">
      <g>
       <use style="stroke:#000000;stroke-width:0.8;" x="57.6" xlink:href="#ma45d79a10c" y="182.724122"/>
      </g>
     </g>
     <g id="text_13">
      <!-- −0.003 -->
      <g transform="translate(13.592188 186.52334)scale(0.1 -0.1)">
       <use xlink:href="#DejaVuSans-8722"/>
       <use x="83.789062" xlink:href="#DejaVuSans-48"/>
       <use x="147.412109" xlink:href="#DejaVuSans-46"/>
       <use x="179.199219" xlink:href="#DejaVuSans-48"/>
       <use x="242.822266" xlink:href="#DejaVuSans-48"/>
       <use x="306.445312" xlink:href="#DejaVuSans-51"/>
      </g>
     </g>
    </g>
    <g id="ytick_4">
     <g id="line2d_25">
      <path clip-path="url(#p3f21571fb9)" d="M 57.6 135.981704 
L 414.72 135.981704 
" style="fill:none;stroke:#b0b0b0;stroke-linecap:square;stroke-width:0.8;"/>
     </g>
     <g id="line2d_26">
      <g>
       <use style="stroke:#000000;stroke-width:0.8;" x="57.6" xlink:href="#ma45d79a10c" y="135.981704"/>
      </g>
     </g>
     <g id="text_14">
      <!-- −0.002 -->
      <g transform="translate(13.592188 139.780923)scale(0.1 -0.1)">
       <use xlink:href="#DejaVuSans-8722"/>
       <use x="83.789062" xlink:href="#DejaVuSans-48"/>
       <use x="147.412109" xlink:href="#DejaVuSans-46"/>
       <use x="179.199219" xlink:href="#DejaVuSans-48"/>
       <use x="242.822266" xlink:href="#DejaVuSans-48"/>
       <use x="306.445312" xlink:href="#DejaVuSans-50"/>
      </g>
     </g>
    </g>
    <g id="ytick_5">
     <g id="line2d_27">
      <path clip-path="url(#p3f21571fb9)" d="M 57.6 89.239287 
L 414.72 89.239287 
" style="fill:none;stroke:#b0b0b0;stroke-linecap:square;stroke-width:0.8;"/>
     </g>
     <g id="line2d_28">
      <g>
       <use style="stroke:#000000;stroke-width:0.8;" x="57.6" xlink:href="#ma45d79a10c" y="89.239287"/>
      </g>
     </g>
     <g id="text_15">
      <!-- −0.001 -->
      <g transform="translate(13.592188 93.038506)scale(0.1 -0.1)">
       <use xlink:href="#DejaVuSans-8722"/>
       <use x="83.789062" xlink:href="#DejaVuSans-48"/>
       <use x="147.412109" xlink:href="#DejaVuSans-46"/>
       <use x="179.199219" xlink:href="#DejaVuSans-48"/>
       <use x="242.822266" xlink:href="#DejaVuSans-48"/>
       <use x="306.445312" xlink:href="#DejaVuSans-49"/>
      </g>
     </g>
    </g>
    <g id="ytick_6">
     <g id="line2d_29">
      <path clip-path="url(#p3f21571fb9)" d="M 57.6 42.496869 
L 414.72 42.496869 
" style="fill:none;stroke:#b0b0b0;stroke-linecap:square;stroke-width:0.8;"/>
     </g>
     <g id="line2d_30">
      <g>
       <use style="stroke:#000000;stroke-width:0.8;" x="57.6" xlink:href="#ma45d79a10c" y="42.496869"/>
      </g>
     </g>
     <g id="text_16">
      <!-- 0.000 -->
      <g transform="translate(21.971875 46.296088)scale(0.1 -0.1)">
       <use xlink:href="#DejaVuSans-48"/>
       <use x="63.623047" xlink:href="#DejaVuSans-46"/>
       <use x="95.410156" xlink:href="#DejaVuSans-48"/>
       <use x="159.033203" xlink:href="#DejaVuSans-48"/>
       <use x="222.65625" xlink:href="#DejaVuSans-48"/>
      </g>
     </g>
    </g>
    <g id="text_17">
     <!-- Entropy loss -->
     <defs>
      <path d="M 9.8125 72.90625 
L 55.90625 72.90625 
L 55.90625 64.59375 
L 19.671875 64.59375 
L 19.671875 43.015625 
L 54.390625 43.015625 
L 54.390625 34.71875 
L 19.671875 34.71875 
L 19.671875 8.296875 
L 56.78125 8.296875 
L 56.78125 0 
L 9.8125 0 
z
" id="DejaVuSans-69"/>
      <path d="M 54.890625 33.015625 
L 54.890625 0 
L 45.90625 0 
L 45.90625 32.71875 
Q 45.90625 40.484375 42.875 44.328125 
Q 39.84375 48.1875 33.796875 48.1875 
Q 26.515625 48.1875 22.3125 43.546875 
Q 18.109375 38.921875 18.109375 30.90625 
L 18.109375 0 
L 9.078125 0 
L 9.078125 54.6875 
L 18.109375 54.6875 
L 18.109375 46.1875 
Q 21.34375 51.125 25.703125 53.5625 
Q 30.078125 56 35.796875 56 
Q 45.21875 56 50.046875 50.171875 
Q 54.890625 44.34375 54.890625 33.015625 
z
" id="DejaVuSans-110"/>
      <path d="M 18.3125 70.21875 
L 18.3125 54.6875 
L 36.8125 54.6875 
L 36.8125 47.703125 
L 18.3125 47.703125 
L 18.3125 18.015625 
Q 18.3125 11.328125 20.140625 9.421875 
Q 21.96875 7.515625 27.59375 7.515625 
L 36.8125 7.515625 
L 36.8125 0 
L 27.59375 0 
Q 17.1875 0 13.234375 3.875 
Q 9.28125 7.765625 9.28125 18.015625 
L 9.28125 47.703125 
L 2.6875 47.703125 
L 2.6875 54.6875 
L 9.28125 54.6875 
L 9.28125 70.21875 
z
" id="DejaVuSans-116"/>
      <path d="M 18.109375 8.203125 
L 18.109375 -20.796875 
L 9.078125 -20.796875 
L 9.078125 54.6875 
L 18.109375 54.6875 
L 18.109375 46.390625 
Q 20.953125 51.265625 25.265625 53.625 
Q 29.59375 56 35.59375 56 
Q 45.5625 56 51.78125 48.09375 
Q 58.015625 40.1875 58.015625 27.296875 
Q 58.015625 14.40625 51.78125 6.484375 
Q 45.5625 -1.421875 35.59375 -1.421875 
Q 29.59375 -1.421875 25.265625 0.953125 
Q 20.953125 3.328125 18.109375 8.203125 
z
M 48.6875 27.296875 
Q 48.6875 37.203125 44.609375 42.84375 
Q 40.53125 48.484375 33.40625 48.484375 
Q 26.265625 48.484375 22.1875 42.84375 
Q 18.109375 37.203125 18.109375 27.296875 
Q 18.109375 17.390625 22.1875 11.75 
Q 26.265625 6.109375 33.40625 6.109375 
Q 40.53125 6.109375 44.609375 11.75 
Q 48.6875 17.390625 48.6875 27.296875 
z
" id="DejaVuSans-112"/>
      <path d="M 32.171875 -5.078125 
Q 28.375 -14.84375 24.75 -17.8125 
Q 21.140625 -20.796875 15.09375 -20.796875 
L 7.90625 -20.796875 
L 7.90625 -13.28125 
L 13.1875 -13.28125 
Q 16.890625 -13.28125 18.9375 -11.515625 
Q 21 -9.765625 23.484375 -3.21875 
L 25.09375 0.875 
L 2.984375 54.6875 
L 12.5 54.6875 
L 29.59375 11.921875 
L 46.6875 54.6875 
L 56.203125 54.6875 
z
" id="DejaVuSans-121"/>
      <path id="DejaVuSans-32"/>
      <path d="M 9.421875 75.984375 
L 18.40625 75.984375 
L 18.40625 0 
L 9.421875 0 
z
" id="DejaVuSans-108"/>
     </defs>
     <g transform="translate(7.5125 205.310031)rotate(-90)scale(0.1 -0.1)">
      <use xlink:href="#DejaVuSans-69"/>
      <use x="63.183594" xlink:href="#DejaVuSans-110"/>
      <use x="126.5625" xlink:href="#DejaVuSans-116"/>
      <use x="165.771484" xlink:href="#DejaVuSans-114"/>
      <use x="206.853516" xlink:href="#DejaVuSans-111"/>
      <use x="268.035156" xlink:href="#DejaVuSans-112"/>
      <use x="331.511719" xlink:href="#DejaVuSans-121"/>
      <use x="390.691406" xlink:href="#DejaVuSans-32"/>
      <use x="422.478516" xlink:href="#DejaVuSans-108"/>
      <use x="450.261719" xlink:href="#DejaVuSans-111"/>
      <use x="511.443359" xlink:href="#DejaVuSans-115"/>
      <use x="563.542969" xlink:href="#DejaVuSans-115"/>
     </g>
    </g>
   </g>
   <g id="line2d_31">
    <path clip-path="url(#p3f21571fb9)" d="M 57.6 295.488 
L 58.119584 263.970202 
L 58.629054 246.367755 
L 59.164278 244.552242 
L 59.654438 239.014132 
L 60.161212 236.541848 
L 60.670199 235.797446 
L 61.186578 241.505484 
L 61.726311 225.373339 
L 62.228583 234.798315 
L 62.717799 235.049997 
L 63.235274 219.742049 
L 63.741094 232.119121 
L 64.252257 228.031028 
L 64.81811 233.77141 
L 65.35018 228.857575 
L 65.862372 232.036192 
L 66.881232 225.637428 
L 67.400301 225.547512 
L 67.908594 231.06477 
L 68.439267 223.654696 
L 69.444521 220.652472 
L 70.517097 208.30019 
L 71.026037 217.490146 
L 71.663323 205.670352 
L 72.178973 208.510092 
L 72.729302 200.349805 
L 73.240403 215.020691 
L 73.751978 206.141654 
L 74.28823 194.591465 
L 74.79869 187.117769 
L 75.3414 198.764697 
L 75.874074 180.529171 
L 76.40424 181.011476 
L 76.939197 195.896672 
L 77.48099 173.277446 
L 77.98934 175.036923 
L 78.525236 172.81731 
L 79.062514 171.710698 
L 79.599884 168.875518 
L 80.128507 161.879893 
L 80.614376 173.243546 
L 81.207392 159.032741 
L 81.746534 153.689395 
L 82.250233 157.332327 
L 82.763003 157.639948 
L 83.320022 144.07155 
L 83.856635 151.705336 
L 84.371621 145.977088 
L 84.902416 144.900828 
L 85.436801 143.475462 
L 85.93019 153.368769 
L 86.48343 135.065017 
L 87.023264 140.797499 
L 87.577148 145.468272 
L 88.089467 135.55518 
L 88.630429 137.65375 
L 89.747176 131.928441 
L 90.304364 131.879581 
L 90.858426 120.294507 
L 91.370836 128.202688 
L 91.903123 127.948628 
L 92.414657 125.364003 
L 92.955307 126.427132 
L 93.539499 123.728676 
L 94.044836 129.773605 
L 94.584414 120.504235 
L 95.119624 127.694242 
L 95.651916 115.007873 
L 96.15944 123.053267 
L 96.702698 122.816909 
L 97.26179 128.928611 
L 97.774545 113.476435 
L 98.30359 114.955155 
L 98.838343 123.697496 
L 99.398247 116.022936 
L 99.927666 114.908167 
L 100.44276 112.646214 
L 101.024175 114.434291 
L 101.510135 117.605786 
L 102.073805 107.593555 
L 102.60856 103.980599 
L 103.12033 108.088854 
L 103.657996 98.060984 
L 104.165783 105.504849 
L 104.700667 108.991604 
L 105.259244 104.070717 
L 105.743575 92.769985 
L 106.277972 99.008164 
L 106.767042 109.521882 
L 107.392805 107.4681 
L 107.912255 103.981851 
L 108.474072 96.322359 
L 108.957767 93.302433 
L 109.48741 97.30639 
L 110.005963 97.236357 
L 110.534904 93.701123 
L 111.07676 88.06099 
L 111.58456 93.949687 
L 112.099584 89.527478 
L 113.139358 100.239578 
L 113.674322 108.01893 
L 114.212231 93.224451 
L 114.72312 99.833917 
L 115.257046 82.910464 
L 115.832392 85.355903 
L 116.342379 89.645695 
L 116.853554 87.989829 
L 117.390004 82.810348 
L 117.876089 81.945096 
L 118.390573 83.326701 
L 118.898727 84.149646 
L 119.408158 80.774156 
L 120.463055 91.086695 
L 120.997222 100.648357 
L 121.549432 94.841342 
L 122.557953 72.226672 
L 123.063613 79.063107 
L 123.577061 76.888287 
L 124.062475 73.824997 
L 125.176615 92.482133 
L 125.729082 78.513841 
L 126.264046 90.73151 
L 126.780599 74.815106 
L 127.269247 72.122782 
L 127.780061 85.512181 
L 128.311159 83.444815 
L 128.799096 79.621719 
L 129.28764 94.088838 
L 129.7999 80.099023 
L 130.357165 89.888388 
L 130.87437 83.662531 
L 131.385467 82.802455 
L 131.897583 88.953353 
L 132.426981 86.843526 
L 132.968459 85.26704 
L 134.032042 91.210904 
L 134.594215 78.248009 
L 135.088858 81.518444 
L 135.618633 81.753956 
L 136.13224 83.833134 
L 136.637327 83.26806 
L 137.156661 84.243286 
L 137.709887 81.786967 
L 138.2239 76.55431 
L 138.711471 67.597848 
L 139.219503 67.600838 
L 139.734552 80.030674 
L 140.242985 86.884947 
L 140.736798 76.961813 
L 141.243075 75.821414 
L 141.759007 78.017631 
L 142.266396 81.069313 
L 142.807259 68.54995 
L 143.295286 78.266175 
L 143.919283 81.079388 
L 144.430138 76.514053 
L 144.919559 73.498086 
L 145.431517 66.786833 
L 146.454518 78.235583 
L 146.943523 69.379452 
L 147.45487 81.736946 
L 147.98533 88.892609 
L 148.499172 76.021676 
L 149.009578 73.239096 
L 149.519836 74.670919 
L 150.574108 82.334179 
L 151.083322 74.201263 
L 151.572044 76.115382 
L 152.079355 85.737711 
L 152.59603 65.760876 
L 153.059077 67.267628 
L 153.574036 76.371085 
L 154.084268 69.043867 
L 154.568568 82.329328 
L 155.131219 89.059332 
L 155.641347 78.412947 
L 156.15453 77.322973 
L 156.684748 78.555336 
L 157.201102 76.202487 
L 157.711427 78.889432 
L 158.224202 82.348882 
L 158.736881 74.118326 
L 159.732117 67.90805 
L 160.220413 73.03601 
L 160.732202 80.181908 
L 161.243992 77.928224 
L 161.755659 82.264024 
L 162.294613 83.600867 
L 162.802817 76.045894 
L 163.317447 80.509554 
L 163.827203 79.187383 
L 164.319188 69.394288 
L 164.803167 69.811393 
L 165.291774 78.784386 
L 165.83255 83.227466 
L 166.31531 79.697691 
L 166.803973 70.620124 
L 167.320134 81.966228 
L 167.827206 78.349398 
L 168.342906 87.44278 
L 168.878067 86.160192 
L 169.368537 81.466845 
L 169.874401 78.427971 
L 170.878856 82.763399 
L 171.409693 87.211613 
L 171.948183 77.907236 
L 172.436755 73.891574 
L 172.921644 71.041087 
L 173.460678 71.317087 
L 173.968316 79.987716 
L 174.456691 79.157662 
L 174.991828 85.772129 
L 175.52668 72.085684 
L 176.043238 71.75387 
L 176.557008 79.022249 
L 177.071497 74.207692 
L 177.555173 83.666163 
L 178.072716 84.628479 
L 178.583046 84.373905 
L 179.116547 87.649308 
L 179.629184 73.000134 
L 180.142713 75.065071 
L 181.164824 84.463987 
L 181.64935 70.959186 
L 182.137299 73.216625 
L 182.65203 90.184804 
L 183.211438 94.92475 
L 183.748671 84.685112 
L 184.255083 84.405817 
L 184.790146 78.580614 
L 185.325044 80.396258 
L 185.814708 76.854737 
L 186.325222 70.89918 
L 186.814386 79.158018 
L 187.349296 74.893837 
L 187.860335 72.728316 
L 188.372058 68.761511 
L 188.911627 85.410675 
L 189.423116 87.504079 
L 189.99876 86.981017 
L 190.553119 74.152058 
L 191.044881 69.791814 
L 191.553693 77.072858 
L 192.067954 76.37909 
L 192.580757 72.871654 
L 193.092088 84.391353 
L 193.624001 81.872495 
L 194.28059 81.497987 
L 194.815291 67.557436 
L 195.299564 65.1648 
L 195.769034 67.89412 
L 196.253167 90.989428 
L 196.794446 83.70144 
L 197.793925 64.131713 
L 198.303973 74.928039 
L 199.280648 65.767822 
L 200.307286 82.882802 
L 200.793366 72.692674 
L 201.282813 67.926932 
L 201.794838 79.325854 
L 202.281692 68.551882 
L 202.795435 78.87514 
L 203.306845 69.239009 
L 203.772506 68.918916 
L 204.278696 76.372097 
L 204.794016 72.666862 
L 205.28338 76.399533 
L 206.25576 65.002693 
L 206.747117 65.504721 
L 207.25605 71.33583 
L 207.74885 72.133398 
L 208.232686 76.111309 
L 208.749454 73.155457 
L 209.238727 69.686526 
L 209.748963 73.891778 
L 210.25618 86.670937 
L 210.750191 84.060301 
L 211.282642 82.222295 
L 211.794493 89.577883 
L 212.328162 80.251348 
L 212.843629 77.583663 
L 213.326381 76.547209 
L 213.819226 77.431156 
L 214.349889 85.888153 
L 214.884756 86.891594 
L 215.908366 80.2495 
L 216.426645 83.301825 
L 216.959292 80.095747 
L 217.490098 83.708909 
L 217.978419 84.516299 
L 218.495092 77.870037 
L 219.494393 86.881301 
L 220.025859 80.660469 
L 220.518329 63.146484 
L 221.002768 67.505328 
L 221.514631 78.394223 
L 221.983921 78.438691 
L 222.519244 73.858035 
L 223.008134 71.650906 
L 223.522313 64.278855 
L 224.030357 66.745828 
L 224.517734 64.118392 
L 225.032331 69.679133 
L 225.515527 62.342748 
L 226.0095 70.41352 
L 226.520166 73.604052 
L 227.009678 72.905576 
L 227.521194 75.179 
L 228.053708 82.526698 
L 228.591896 77.902047 
L 229.077922 79.401258 
L 229.587449 70.906129 
L 230.127211 68.760336 
L 230.634813 75.915495 
L 231.151751 70.444178 
L 231.634412 63.426976 
L 232.146228 90.176887 
L 232.68605 69.937642 
L 233.151031 59.608845 
L 233.634768 59.606146 
L 234.150614 83.623259 
L 234.664786 85.428053 
L 235.660125 63.749456 
L 236.173455 74.07247 
L 236.687206 65.566387 
L 237.17581 66.742751 
L 237.664359 65.589372 
L 238.1582 53.568 
L 238.622997 54.167277 
L 239.134627 61.295739 
L 239.645175 58.39307 
L 240.106375 70.023264 
L 240.64127 91.650324 
L 241.153049 97.649136 
L 241.69256 91.574719 
L 242.176417 95.210975 
L 242.688099 82.639669 
L 243.199913 82.548306 
L 243.711823 62.889785 
L 244.176802 65.815985 
L 244.71468 74.47187 
L 245.223653 77.414184 
L 245.758261 83.183872 
L 246.266017 84.868856 
L 246.80112 89.213638 
L 247.340718 84.471994 
L 247.8246 74.194322 
L 248.365322 75.738262 
L 248.871352 67.820197 
L 249.874748 92.669305 
L 250.382999 76.908622 
L 250.900595 78.602035 
L 251.3833 76.858957 
L 251.895 89.355537 
L 252.408145 68.271934 
L 252.900154 91.300406 
L 253.388154 82.900697 
L 253.899469 81.81605 
L 254.411438 84.774924 
L 254.90074 91.834204 
L 255.435121 96.892305 
L 255.94232 89.835387 
L 256.454036 85.16672 
L 256.942495 83.844689 
L 257.458111 96.265979 
L 257.965762 97.764817 
L 258.454296 67.567296 
L 258.942747 68.777436 
L 259.431422 73.99215 
L 259.947884 76.055599 
L 260.436486 62.429494 
L 260.947146 76.662545 
L 261.431748 86.827947 
L 261.94374 89.066733 
L 262.455555 85.699615 
L 262.971781 86.345471 
L 263.479127 73.767407 
L 263.970856 71.27556 
L 264.479274 90.476482 
L 264.995759 89.230185 
L 265.529082 94.514469 
L 266.014724 103.271611 
L 266.532554 75.896499 
L 267.038128 72.962119 
L 267.526621 88.236213 
L 268.038344 76.757067 
L 269.069714 94.822493 
L 269.6011 86.635866 
L 270.10921 82.911 
L 270.623063 75.552926 
L 271.132776 75.900452 
L 271.648451 76.022457 
L 272.156195 83.114965 
L 272.65092 84.058546 
L 273.156449 82.674277 
L 273.648682 70.632438 
L 274.158064 77.097299 
L 274.668334 87.712691 
L 275.185406 84.528502 
L 275.72122 72.994467 
L 276.22686 74.992048 
L 276.717211 78.369023 
L 277.209031 63.527431 
L 277.692603 67.012627 
L 279.211399 85.506373 
L 279.721513 91.053567 
L 280.23064 89.223291 
L 280.763613 93.782512 
L 281.275389 103.221478 
L 281.787151 88.022241 
L 282.304452 87.379814 
L 282.810661 76.629542 
L 283.304046 88.625402 
L 283.834165 76.200999 
L 284.304172 70.173119 
L 284.811122 73.479149 
L 285.32295 75.82306 
L 285.857889 96.080788 
L 286.881277 75.486488 
L 287.396552 87.365848 
L 287.933659 85.218056 
L 288.444263 82.390518 
L 288.959435 85.217035 
L 289.490955 91.842007 
L 289.998573 77.813943 
L 290.487055 85.066471 
L 290.980135 85.74602 
L 291.5139 89.896583 
L 292.026739 94.823277 
L 292.561889 89.844186 
L 293.071185 88.604463 
L 293.605159 84.577933 
L 294.070127 83.518091 
L 294.633719 90.67211 
L 295.167427 91.575111 
L 295.675128 91.538326 
L 296.167152 83.975196 
L 296.702026 82.195267 
L 297.191544 81.130873 
L 297.704701 85.239144 
L 298.214893 92.924372 
L 298.745741 74.315296 
L 299.211014 79.876592 
L 299.725134 78.876639 
L 300.234668 68.179855 
L 300.723081 62.511218 
L 301.234863 73.501911 
L 301.746542 81.146774 
L 302.260401 74.437257 
L 302.726811 69.988667 
L 303.265951 68.453235 
L 303.751231 61.321768 
L 304.747242 74.153589 
L 305.238955 59.910102 
L 305.724193 71.300161 
L 306.25926 92.224895 
L 306.748315 87.088447 
L 307.218102 72.432751 
L 307.751738 85.412199 
L 308.73097 69.345861 
L 309.219234 72.132109 
L 309.708015 95.377769 
L 310.218319 96.1918 
L 310.729534 88.302306 
L 311.237484 75.003606 
L 311.753029 93.679842 
L 312.28881 90.732506 
L 312.776269 80.058328 
L 313.266581 76.695292 
L 313.755597 78.002522 
L 314.238345 84.057624 
L 314.755766 93.508689 
L 315.264949 86.019136 
L 315.773473 85.080358 
L 316.289398 86.711819 
L 316.778561 87.31017 
L 317.26741 80.25523 
L 317.779025 89.745025 
L 318.265591 72.342454 
L 318.779985 77.469203 
L 319.291693 101.619502 
L 319.863413 81.501485 
L 320.351932 80.538035 
L 320.863604 91.360018 
L 321.352087 88.625604 
L 321.864445 84.411084 
L 322.375563 86.858319 
L 322.88723 81.003871 
L 323.405014 79.902918 
L 323.910444 78.37502 
L 324.401882 82.376963 
L 324.864262 68.412546 
L 325.405206 75.682231 
L 325.890013 78.099618 
L 326.428203 90.215288 
L 326.938275 85.479674 
L 327.958873 70.292849 
L 328.472708 72.993055 
L 329.498714 89.396495 
L 330.010238 84.355714 
L 330.517513 90.709885 
L 331.052475 90.367934 
L 331.567212 101.962895 
L 332.122729 92.403938 
L 332.639376 97.1943 
L 333.173989 99.802029 
L 333.684942 93.034166 
L 334.286881 89.927659 
L 334.773926 95.468925 
L 335.281849 88.045275 
L 335.770319 99.615749 
L 336.310576 87.033765 
L 336.816981 68.669166 
L 337.287229 61.731828 
L 337.770833 74.093637 
L 338.288152 81.492589 
L 338.778815 76.413499 
L 339.771315 91.854751 
L 340.311007 82.150138 
L 340.794983 77.231802 
L 341.329952 85.039739 
L 341.845745 86.456862 
L 342.35349 89.313376 
L 343.355646 66.54318 
L 343.847853 75.900028 
L 344.359551 80.301162 
L 344.868328 87.984017 
L 345.40892 81.193231 
L 345.942214 82.333553 
L 346.45007 88.8371 
L 346.990209 78.078377 
L 347.473948 81.911121 
L 348.497365 69.283417 
L 349.008978 80.032241 
L 350.037969 67.440633 
L 350.54897 74.731263 
L 351.06175 66.878126 
L 351.521008 66.427129 
L 352.043688 89.088238 
L 352.571857 85.907378 
L 353.102906 90.285092 
L 353.569355 72.972456 
L 354.03947 65.620764 
L 354.549211 72.242523 
L 355.033655 69.783238 
L 355.527232 66.055412 
L 356.033839 61.350249 
L 356.526026 70.16728 
L 357.015686 73.994678 
L 357.527231 72.193663 
L 358.011 66.004292 
L 358.527315 68.903184 
L 359.017014 62.786653 
L 359.522949 65.788709 
L 359.993526 64.686865 
L 360.500604 61.289868 
L 360.98843 68.559821 
L 361.477457 61.192363 
L 361.97335 63.177569 
L 362.459701 65.933274 
L 362.970564 65.077378 
L 363.436136 71.22694 
L 363.948753 68.217546 
L 364.43654 63.442618 
L 365.559168 68.03326 
L 366.047897 54.451808 
L 366.484909 57.305504 
L 367.018662 65.574468 
L 367.484001 62.217863 
L 367.977742 71.504722 
L 368.508328 77.820451 
L 369.002265 76.254781 
L 369.510456 78.647088 
L 370.004632 88.446485 
L 370.512441 84.970591 
L 371.049574 103.722796 
L 371.578177 104.91207 
L 372.071415 75.269994 
L 372.582594 76.256954 
L 373.095122 79.804611 
L 373.579044 71.214824 
L 374.090792 91.869596 
L 374.743011 97.17754 
L 375.226388 83.366378 
L 375.742173 76.725291 
L 376.24996 95.952988 
L 376.78979 88.288071 
L 377.3001 90.713874 
L 377.83784 80.422416 
L 378.319934 78.104037 
L 378.808322 80.837088 
L 379.348382 88.022042 
L 379.836454 92.527439 
L 380.366871 92.225135 
L 380.860415 69.958681 
L 381.372095 79.84296 
L 381.879068 78.193515 
L 382.367557 57.904025 
L 382.879181 77.704598 
L 383.418724 77.07316 
L 384.039953 75.191437 
L 384.528324 78.52335 
L 385.045189 88.280442 
L 385.534434 78.234511 
L 386.041182 88.701372 
L 386.557014 83.382868 
L 387.040406 71.867683 
L 387.509855 85.866714 
L 388.043355 113.923391 
L 388.552507 92.105486 
L 389.047339 82.129811 
L 389.552596 94.798131 
L 390.064513 90.978409 
L 390.576177 76.461284 
L 391.065157 80.800159 
L 391.553022 81.322587 
L 392.047337 72.497002 
L 392.535266 83.594076 
L 393.166988 88.598146 
L 393.675305 84.913349 
L 394.191556 83.717357 
L 394.701528 89.138702 
L 395.237677 89.571533 
L 395.702998 76.821992 
L 396.168447 71.408709 
L 396.675979 76.726583 
L 397.164386 84.355009 
L 397.656762 80.355417 
L 398.168968 87.541324 
L 398.676502 101.472705 
L 399.188155 101.272337 
L 400.16834 80.733661 
L 400.676991 83.781632 
L 401.727934 109.208226 
L 402.391107 111.663397 
L 402.896959 109.137519 
L 403.39032 97.792428 
L 403.900513 100.489709 
L 404.414051 98.501955 
L 405.48486 112.601371 
L 405.995664 92.93834 
L 406.505764 88.107306 
L 406.996152 90.002339 
L 407.502862 99.286025 
L 407.997359 75.6162 
L 408.506428 78.631221 
L 408.99547 103.342563 
L 409.53156 99.468561 
L 410.040682 109.042983 
L 410.52699 89.675705 
L 411.03873 80.249993 
L 411.719298 71.658532 
L 412.207941 67.029305 
L 412.719184 69.804482 
L 413.23149 71.754953 
L 413.71603 70.496376 
L 414.211753 93.241298 
L 414.72 97.562615 
L 414.72 97.562615 
" style="fill:none;stroke:#000000;stroke-linecap:square;stroke-width:0.8;"/>
   </g>
   <g id="patch_3">
    <path d="M 57.6 307.584 
L 57.6 41.472 
" style="fill:none;stroke:#000000;stroke-linecap:square;stroke-linejoin:miter;stroke-width:0.8;"/>
   </g>
   <g id="patch_4">
    <path d="M 414.72 307.584 
L 414.72 41.472 
" style="fill:none;stroke:#000000;stroke-linecap:square;stroke-linejoin:miter;stroke-width:0.8;"/>
   </g>
   <g id="patch_5">
    <path d="M 57.6 307.584 
L 414.72 307.584 
" style="fill:none;stroke:#000000;stroke-linecap:square;stroke-linejoin:miter;stroke-width:0.8;"/>
   </g>
   <g id="patch_6">
    <path d="M 57.6 41.472 
L 414.72 41.472 
" style="fill:none;stroke:#000000;stroke-linecap:square;stroke-linejoin:miter;stroke-width:0.8;"/>
   </g>
  </g>
  <g id="axes_2">
   <g id="matplotlib.axis_3">
    <g id="xtick_10">
     <g id="line2d_32">
      <defs>
       <path d="M 0 0 
L 0 -3.5 
" id="m5c0dd36f80" style="stroke:#000000;stroke-width:0.8;"/>
      </defs>
      <g>
       <use style="stroke:#000000;stroke-width:0.8;" x="57.6" xlink:href="#m5c0dd36f80" y="41.472"/>
      </g>
     </g>
    </g>
    <g id="xtick_11">
     <g id="line2d_33">
      <g>
       <use style="stroke:#000000;stroke-width:0.8;" x="121.646485" xlink:href="#m5c0dd36f80" y="41.472"/>
      </g>
     </g>
     <g id="text_18">
      <!-- 20.0K -->
      <defs>
       <path d="M 9.8125 72.90625 
L 19.671875 72.90625 
L 19.671875 42.09375 
L 52.390625 72.90625 
L 65.09375 72.90625 
L 28.90625 38.921875 
L 67.671875 0 
L 54.6875 0 
L 19.671875 35.109375 
L 19.671875 0 
L 9.8125 0 
z
" id="DejaVuSans-75"/>
      </defs>
      <g transform="translate(107.234767 32.392313)scale(0.1 -0.1)">
       <use xlink:href="#DejaVuSans-50"/>
       <use x="63.623047" xlink:href="#DejaVuSans-48"/>
       <use x="127.246094" xlink:href="#DejaVuSans-46"/>
       <use x="159.033203" xlink:href="#DejaVuSans-48"/>
       <use x="222.65625" xlink:href="#DejaVuSans-75"/>
      </g>
     </g>
    </g>
    <g id="xtick_12">
     <g id="line2d_34">
      <g>
       <use style="stroke:#000000;stroke-width:0.8;" x="185.692971" xlink:href="#m5c0dd36f80" y="41.472"/>
      </g>
     </g>
     <g id="text_19">
      <!-- 40.0K -->
      <g transform="translate(171.281252 32.392313)scale(0.1 -0.1)">
       <use xlink:href="#DejaVuSans-52"/>
       <use x="63.623047" xlink:href="#DejaVuSans-48"/>
       <use x="127.246094" xlink:href="#DejaVuSans-46"/>
       <use x="159.033203" xlink:href="#DejaVuSans-48"/>
       <use x="222.65625" xlink:href="#DejaVuSans-75"/>
      </g>
     </g>
    </g>
    <g id="xtick_13">
     <g id="line2d_35">
      <g>
       <use style="stroke:#000000;stroke-width:0.8;" x="249.739456" xlink:href="#m5c0dd36f80" y="41.472"/>
      </g>
     </g>
     <g id="text_20">
      <!-- 60.0K -->
      <g transform="translate(235.327737 32.392313)scale(0.1 -0.1)">
       <use xlink:href="#DejaVuSans-54"/>
       <use x="63.623047" xlink:href="#DejaVuSans-48"/>
       <use x="127.246094" xlink:href="#DejaVuSans-46"/>
       <use x="159.033203" xlink:href="#DejaVuSans-48"/>
       <use x="222.65625" xlink:href="#DejaVuSans-75"/>
      </g>
     </g>
    </g>
    <g id="xtick_14">
     <g id="line2d_36">
      <g>
       <use style="stroke:#000000;stroke-width:0.8;" x="313.785941" xlink:href="#m5c0dd36f80" y="41.472"/>
      </g>
     </g>
     <g id="text_21">
      <!-- 80.0K -->
      <g transform="translate(299.374223 32.392313)scale(0.1 -0.1)">
       <use xlink:href="#DejaVuSans-56"/>
       <use x="63.623047" xlink:href="#DejaVuSans-48"/>
       <use x="127.246094" xlink:href="#DejaVuSans-46"/>
       <use x="159.033203" xlink:href="#DejaVuSans-48"/>
       <use x="222.65625" xlink:href="#DejaVuSans-75"/>
      </g>
     </g>
    </g>
    <g id="xtick_15">
     <g id="line2d_37">
      <g>
       <use style="stroke:#000000;stroke-width:0.8;" x="377.832427" xlink:href="#m5c0dd36f80" y="41.472"/>
      </g>
     </g>
     <g id="text_22">
      <!-- 100K -->
      <g transform="translate(365.009771 32.392313)scale(0.1 -0.1)">
       <use xlink:href="#DejaVuSans-49"/>
       <use x="63.623047" xlink:href="#DejaVuSans-48"/>
       <use x="127.246094" xlink:href="#DejaVuSans-48"/>
       <use x="190.869141" xlink:href="#DejaVuSans-75"/>
      </g>
     </g>
    </g>
    <g id="text_23">
     <!-- Steps -->
     <defs>
      <path d="M 53.515625 70.515625 
L 53.515625 60.890625 
Q 47.90625 63.578125 42.921875 64.890625 
Q 37.9375 66.21875 33.296875 66.21875 
Q 25.25 66.21875 20.875 63.09375 
Q 16.5 59.96875 16.5 54.203125 
Q 16.5 49.359375 19.40625 46.890625 
Q 22.3125 44.4375 30.421875 42.921875 
L 36.375 41.703125 
Q 47.40625 39.59375 52.65625 34.296875 
Q 57.90625 29 57.90625 20.125 
Q 57.90625 9.515625 50.796875 4.046875 
Q 43.703125 -1.421875 29.984375 -1.421875 
Q 24.8125 -1.421875 18.96875 -0.25 
Q 13.140625 0.921875 6.890625 3.21875 
L 6.890625 13.375 
Q 12.890625 10.015625 18.65625 8.296875 
Q 24.421875 6.59375 29.984375 6.59375 
Q 38.421875 6.59375 43.015625 9.90625 
Q 47.609375 13.234375 47.609375 19.390625 
Q 47.609375 24.75 44.3125 27.78125 
Q 41.015625 30.8125 33.5 32.328125 
L 27.484375 33.5 
Q 16.453125 35.6875 11.515625 40.375 
Q 6.59375 45.0625 6.59375 53.421875 
Q 6.59375 63.09375 13.40625 68.65625 
Q 20.21875 74.21875 32.171875 74.21875 
Q 37.3125 74.21875 42.625 73.28125 
Q 47.953125 72.359375 53.515625 70.515625 
z
" id="DejaVuSans-83"/>
      <path d="M 56.203125 29.59375 
L 56.203125 25.203125 
L 14.890625 25.203125 
Q 15.484375 15.921875 20.484375 11.0625 
Q 25.484375 6.203125 34.421875 6.203125 
Q 39.59375 6.203125 44.453125 7.46875 
Q 49.3125 8.734375 54.109375 11.28125 
L 54.109375 2.78125 
Q 49.265625 0.734375 44.1875 -0.34375 
Q 39.109375 -1.421875 33.890625 -1.421875 
Q 20.796875 -1.421875 13.15625 6.1875 
Q 5.515625 13.8125 5.515625 26.8125 
Q 5.515625 40.234375 12.765625 48.109375 
Q 20.015625 56 32.328125 56 
Q 43.359375 56 49.78125 48.890625 
Q 56.203125 41.796875 56.203125 29.59375 
z
M 47.21875 32.234375 
Q 47.125 39.59375 43.09375 43.984375 
Q 39.0625 48.390625 32.421875 48.390625 
Q 24.90625 48.390625 20.390625 44.140625 
Q 15.875 39.890625 15.1875 32.171875 
z
" id="DejaVuSans-101"/>
     </defs>
     <g transform="translate(222.170156 20.793875)scale(0.1 -0.1)">
      <use xlink:href="#DejaVuSans-83"/>
      <use x="63.476562" xlink:href="#DejaVuSans-116"/>
      <use x="102.685547" xlink:href="#DejaVuSans-101"/>
      <use x="164.208984" xlink:href="#DejaVuSans-112"/>
      <use x="227.685547" xlink:href="#DejaVuSans-115"/>
     </g>
    </g>
   </g>
   <g id="patch_7">
    <path d="M 57.6 307.584 
L 57.6 41.472 
" style="fill:none;stroke:#000000;stroke-linecap:square;stroke-linejoin:miter;stroke-width:0.8;"/>
   </g>
   <g id="patch_8">
    <path d="M 414.72 307.584 
L 414.72 41.472 
" style="fill:none;stroke:#000000;stroke-linecap:square;stroke-linejoin:miter;stroke-width:0.8;"/>
   </g>
   <g id="patch_9">
    <path d="M 57.6 307.584 
L 414.72 307.584 
" style="fill:none;stroke:#000000;stroke-linecap:square;stroke-linejoin:miter;stroke-width:0.8;"/>
   </g>
   <g id="patch_10">
    <path d="M 57.6 41.472 
L 414.72 41.472 
" style="fill:none;stroke:#000000;stroke-linecap:square;stroke-linejoin:miter;stroke-width:0.8;"/>
   </g>
  </g>
 </g>
 <defs>
  <clipPath id="p3f21571fb9">
   <rect height="266.112" width="357.12" x="57.6" y="41.472"/>
  </clipPath>
 </defs>
</svg>
