<?xml version="1.0" encoding="utf-8" standalone="no"?>
<!DOCTYPE svg PUBLIC "-//W3C//DTD SVG 1.1//EN"
  "http://www.w3.org/Graphics/SVG/1.1/DTD/svg11.dtd">
<!-- Created with matplotlib (https://matplotlib.org/) -->
<svg height="345.6pt" version="1.1" viewBox="0 0 460.8 345.6" width="460.8pt" xmlns="http://www.w3.org/2000/svg" xmlns:xlink="http://www.w3.org/1999/xlink">
 <defs>
  <style type="text/css">
*{stroke-linecap:butt;stroke-linejoin:round;}
  </style>
 </defs>
 <g id="figure_1">
  <g id="patch_1">
   <path d="M 0 345.6 
L 460.8 345.6 
L 460.8 0 
L 0 0 
z
" style="fill:#ffffff;"/>
  </g>
  <g id="axes_1">
   <g id="patch_2">
    <path d="M 57.6 307.584 
L 414.72 307.584 
L 414.72 41.472 
L 57.6 41.472 
z
" style="fill:#ffffff;"/>
   </g>
   <g id="matplotlib.axis_1">
    <g id="xtick_1">
     <g id="line2d_1">
      <path clip-path="url(#p17d6a2e4fa)" d="M 57.6 307.584 
L 57.6 41.472 
" style="fill:none;stroke:#b0b0b0;stroke-linecap:square;stroke-width:0.8;"/>
     </g>
     <g id="line2d_2">
      <defs>
       <path d="M 0 0 
L 0 3.5 
" id="m4d23f7b1fb" style="stroke:#000000;stroke-width:0.8;"/>
      </defs>
      <g>
       <use style="stroke:#000000;stroke-width:0.8;" x="57.6" xlink:href="#m4d23f7b1fb" y="307.584"/>
      </g>
     </g>
     <g id="text_1">
      <!-- 0 -->
      <defs>
       <path d="M 31.78125 66.40625 
Q 24.171875 66.40625 20.328125 58.90625 
Q 16.5 51.421875 16.5 36.375 
Q 16.5 21.390625 20.328125 13.890625 
Q 24.171875 6.390625 31.78125 6.390625 
Q 39.453125 6.390625 43.28125 13.890625 
Q 47.125 21.390625 47.125 36.375 
Q 47.125 51.421875 43.28125 58.90625 
Q 39.453125 66.40625 31.78125 66.40625 
z
M 31.78125 74.21875 
Q 44.046875 74.21875 50.515625 64.515625 
Q 56.984375 54.828125 56.984375 36.375 
Q 56.984375 17.96875 50.515625 8.265625 
Q 44.046875 -1.421875 31.78125 -1.421875 
Q 19.53125 -1.421875 13.0625 8.265625 
Q 6.59375 17.96875 6.59375 36.375 
Q 6.59375 54.828125 13.0625 64.515625 
Q 19.53125 74.21875 31.78125 74.21875 
z
" id="DejaVuSans-48"/>
      </defs>
      <g transform="translate(54.41875 322.182437)scale(0.1 -0.1)">
       <use xlink:href="#DejaVuSans-48"/>
      </g>
     </g>
    </g>
    <g id="xtick_2">
     <g id="line2d_3">
      <path clip-path="url(#p17d6a2e4fa)" d="M 130.329547 307.584 
L 130.329547 41.472 
" style="fill:none;stroke:#b0b0b0;stroke-linecap:square;stroke-width:0.8;"/>
     </g>
     <g id="line2d_4">
      <g>
       <use style="stroke:#000000;stroke-width:0.8;" x="130.329547" xlink:href="#m4d23f7b1fb" y="307.584"/>
      </g>
     </g>
     <g id="text_2">
      <!-- 2 -->
      <defs>
       <path d="M 19.1875 8.296875 
L 53.609375 8.296875 
L 53.609375 0 
L 7.328125 0 
L 7.328125 8.296875 
Q 12.9375 14.109375 22.625 23.890625 
Q 32.328125 33.6875 34.8125 36.53125 
Q 39.546875 41.84375 41.421875 45.53125 
Q 43.3125 49.21875 43.3125 52.78125 
Q 43.3125 58.59375 39.234375 62.25 
Q 35.15625 65.921875 28.609375 65.921875 
Q 23.96875 65.921875 18.8125 64.3125 
Q 13.671875 62.703125 7.8125 59.421875 
L 7.8125 69.390625 
Q 13.765625 71.78125 18.9375 73 
Q 24.125 74.21875 28.421875 74.21875 
Q 39.75 74.21875 46.484375 68.546875 
Q 53.21875 62.890625 53.21875 53.421875 
Q 53.21875 48.921875 51.53125 44.890625 
Q 49.859375 40.875 45.40625 35.40625 
Q 44.1875 33.984375 37.640625 27.21875 
Q 31.109375 20.453125 19.1875 8.296875 
z
" id="DejaVuSans-50"/>
      </defs>
      <g transform="translate(127.148297 322.182437)scale(0.1 -0.1)">
       <use xlink:href="#DejaVuSans-50"/>
      </g>
     </g>
    </g>
    <g id="xtick_3">
     <g id="line2d_5">
      <path clip-path="url(#p17d6a2e4fa)" d="M 203.059094 307.584 
L 203.059094 41.472 
" style="fill:none;stroke:#b0b0b0;stroke-linecap:square;stroke-width:0.8;"/>
     </g>
     <g id="line2d_6">
      <g>
       <use style="stroke:#000000;stroke-width:0.8;" x="203.059094" xlink:href="#m4d23f7b1fb" y="307.584"/>
      </g>
     </g>
     <g id="text_3">
      <!-- 4 -->
      <defs>
       <path d="M 37.796875 64.3125 
L 12.890625 25.390625 
L 37.796875 25.390625 
z
M 35.203125 72.90625 
L 47.609375 72.90625 
L 47.609375 25.390625 
L 58.015625 25.390625 
L 58.015625 17.1875 
L 47.609375 17.1875 
L 47.609375 0 
L 37.796875 0 
L 37.796875 17.1875 
L 4.890625 17.1875 
L 4.890625 26.703125 
z
" id="DejaVuSans-52"/>
      </defs>
      <g transform="translate(199.877844 322.182437)scale(0.1 -0.1)">
       <use xlink:href="#DejaVuSans-52"/>
      </g>
     </g>
    </g>
    <g id="xtick_4">
     <g id="line2d_7">
      <path clip-path="url(#p17d6a2e4fa)" d="M 275.788641 307.584 
L 275.788641 41.472 
" style="fill:none;stroke:#b0b0b0;stroke-linecap:square;stroke-width:0.8;"/>
     </g>
     <g id="line2d_8">
      <g>
       <use style="stroke:#000000;stroke-width:0.8;" x="275.788641" xlink:href="#m4d23f7b1fb" y="307.584"/>
      </g>
     </g>
     <g id="text_4">
      <!-- 6 -->
      <defs>
       <path d="M 33.015625 40.375 
Q 26.375 40.375 22.484375 35.828125 
Q 18.609375 31.296875 18.609375 23.390625 
Q 18.609375 15.53125 22.484375 10.953125 
Q 26.375 6.390625 33.015625 6.390625 
Q 39.65625 6.390625 43.53125 10.953125 
Q 47.40625 15.53125 47.40625 23.390625 
Q 47.40625 31.296875 43.53125 35.828125 
Q 39.65625 40.375 33.015625 40.375 
z
M 52.59375 71.296875 
L 52.59375 62.3125 
Q 48.875 64.0625 45.09375 64.984375 
Q 41.3125 65.921875 37.59375 65.921875 
Q 27.828125 65.921875 22.671875 59.328125 
Q 17.53125 52.734375 16.796875 39.40625 
Q 19.671875 43.65625 24.015625 45.921875 
Q 28.375 48.1875 33.59375 48.1875 
Q 44.578125 48.1875 50.953125 41.515625 
Q 57.328125 34.859375 57.328125 23.390625 
Q 57.328125 12.15625 50.6875 5.359375 
Q 44.046875 -1.421875 33.015625 -1.421875 
Q 20.359375 -1.421875 13.671875 8.265625 
Q 6.984375 17.96875 6.984375 36.375 
Q 6.984375 53.65625 15.1875 63.9375 
Q 23.390625 74.21875 37.203125 74.21875 
Q 40.921875 74.21875 44.703125 73.484375 
Q 48.484375 72.75 52.59375 71.296875 
z
" id="DejaVuSans-54"/>
      </defs>
      <g transform="translate(272.607391 322.182437)scale(0.1 -0.1)">
       <use xlink:href="#DejaVuSans-54"/>
      </g>
     </g>
    </g>
    <g id="xtick_5">
     <g id="line2d_9">
      <path clip-path="url(#p17d6a2e4fa)" d="M 348.518188 307.584 
L 348.518188 41.472 
" style="fill:none;stroke:#b0b0b0;stroke-linecap:square;stroke-width:0.8;"/>
     </g>
     <g id="line2d_10">
      <g>
       <use style="stroke:#000000;stroke-width:0.8;" x="348.518188" xlink:href="#m4d23f7b1fb" y="307.584"/>
      </g>
     </g>
     <g id="text_5">
      <!-- 8 -->
      <defs>
       <path d="M 31.78125 34.625 
Q 24.75 34.625 20.71875 30.859375 
Q 16.703125 27.09375 16.703125 20.515625 
Q 16.703125 13.921875 20.71875 10.15625 
Q 24.75 6.390625 31.78125 6.390625 
Q 38.8125 6.390625 42.859375 10.171875 
Q 46.921875 13.96875 46.921875 20.515625 
Q 46.921875 27.09375 42.890625 30.859375 
Q 38.875 34.625 31.78125 34.625 
z
M 21.921875 38.8125 
Q 15.578125 40.375 12.03125 44.71875 
Q 8.5 49.078125 8.5 55.328125 
Q 8.5 64.0625 14.71875 69.140625 
Q 20.953125 74.21875 31.78125 74.21875 
Q 42.671875 74.21875 48.875 69.140625 
Q 55.078125 64.0625 55.078125 55.328125 
Q 55.078125 49.078125 51.53125 44.71875 
Q 48 40.375 41.703125 38.8125 
Q 48.828125 37.15625 52.796875 32.3125 
Q 56.78125 27.484375 56.78125 20.515625 
Q 56.78125 9.90625 50.3125 4.234375 
Q 43.84375 -1.421875 31.78125 -1.421875 
Q 19.734375 -1.421875 13.25 4.234375 
Q 6.78125 9.90625 6.78125 20.515625 
Q 6.78125 27.484375 10.78125 32.3125 
Q 14.796875 37.15625 21.921875 38.8125 
z
M 18.3125 54.390625 
Q 18.3125 48.734375 21.84375 45.5625 
Q 25.390625 42.390625 31.78125 42.390625 
Q 38.140625 42.390625 41.71875 45.5625 
Q 45.3125 48.734375 45.3125 54.390625 
Q 45.3125 60.0625 41.71875 63.234375 
Q 38.140625 66.40625 31.78125 66.40625 
Q 25.390625 66.40625 21.84375 63.234375 
Q 18.3125 60.0625 18.3125 54.390625 
z
" id="DejaVuSans-56"/>
      </defs>
      <g transform="translate(345.336938 322.182437)scale(0.1 -0.1)">
       <use xlink:href="#DejaVuSans-56"/>
      </g>
     </g>
    </g>
    <g id="text_6">
     <!-- Hours -->
     <defs>
      <path d="M 9.8125 72.90625 
L 19.671875 72.90625 
L 19.671875 43.015625 
L 55.515625 43.015625 
L 55.515625 72.90625 
L 65.375 72.90625 
L 65.375 0 
L 55.515625 0 
L 55.515625 34.71875 
L 19.671875 34.71875 
L 19.671875 0 
L 9.8125 0 
z
" id="DejaVuSans-72"/>
      <path d="M 30.609375 48.390625 
Q 23.390625 48.390625 19.1875 42.75 
Q 14.984375 37.109375 14.984375 27.296875 
Q 14.984375 17.484375 19.15625 11.84375 
Q 23.34375 6.203125 30.609375 6.203125 
Q 37.796875 6.203125 41.984375 11.859375 
Q 46.1875 17.53125 46.1875 27.296875 
Q 46.1875 37.015625 41.984375 42.703125 
Q 37.796875 48.390625 30.609375 48.390625 
z
M 30.609375 56 
Q 42.328125 56 49.015625 48.375 
Q 55.71875 40.765625 55.71875 27.296875 
Q 55.71875 13.875 49.015625 6.21875 
Q 42.328125 -1.421875 30.609375 -1.421875 
Q 18.84375 -1.421875 12.171875 6.21875 
Q 5.515625 13.875 5.515625 27.296875 
Q 5.515625 40.765625 12.171875 48.375 
Q 18.84375 56 30.609375 56 
z
" id="DejaVuSans-111"/>
      <path d="M 8.5 21.578125 
L 8.5 54.6875 
L 17.484375 54.6875 
L 17.484375 21.921875 
Q 17.484375 14.15625 20.5 10.265625 
Q 23.53125 6.390625 29.59375 6.390625 
Q 36.859375 6.390625 41.078125 11.03125 
Q 45.3125 15.671875 45.3125 23.6875 
L 45.3125 54.6875 
L 54.296875 54.6875 
L 54.296875 0 
L 45.3125 0 
L 45.3125 8.40625 
Q 42.046875 3.421875 37.71875 1 
Q 33.40625 -1.421875 27.6875 -1.421875 
Q 18.265625 -1.421875 13.375 4.4375 
Q 8.5 10.296875 8.5 21.578125 
z
M 31.109375 56 
z
" id="DejaVuSans-117"/>
      <path d="M 41.109375 46.296875 
Q 39.59375 47.171875 37.8125 47.578125 
Q 36.03125 48 33.890625 48 
Q 26.265625 48 22.1875 43.046875 
Q 18.109375 38.09375 18.109375 28.8125 
L 18.109375 0 
L 9.078125 0 
L 9.078125 54.6875 
L 18.109375 54.6875 
L 18.109375 46.1875 
Q 20.953125 51.171875 25.484375 53.578125 
Q 30.03125 56 36.53125 56 
Q 37.453125 56 38.578125 55.875 
Q 39.703125 55.765625 41.0625 55.515625 
z
" id="DejaVuSans-114"/>
      <path d="M 44.28125 53.078125 
L 44.28125 44.578125 
Q 40.484375 46.53125 36.375 47.5 
Q 32.28125 48.484375 27.875 48.484375 
Q 21.1875 48.484375 17.84375 46.4375 
Q 14.5 44.390625 14.5 40.28125 
Q 14.5 37.15625 16.890625 35.375 
Q 19.28125 33.59375 26.515625 31.984375 
L 29.59375 31.296875 
Q 39.15625 29.25 43.1875 25.515625 
Q 47.21875 21.78125 47.21875 15.09375 
Q 47.21875 7.46875 41.1875 3.015625 
Q 35.15625 -1.421875 24.609375 -1.421875 
Q 20.21875 -1.421875 15.453125 -0.5625 
Q 10.6875 0.296875 5.421875 2 
L 5.421875 11.28125 
Q 10.40625 8.6875 15.234375 7.390625 
Q 20.0625 6.109375 24.8125 6.109375 
Q 31.15625 6.109375 34.5625 8.28125 
Q 37.984375 10.453125 37.984375 14.40625 
Q 37.984375 18.0625 35.515625 20.015625 
Q 33.0625 21.96875 24.703125 23.78125 
L 21.578125 24.515625 
Q 13.234375 26.265625 9.515625 29.90625 
Q 5.8125 33.546875 5.8125 39.890625 
Q 5.8125 47.609375 11.28125 51.796875 
Q 16.75 56 26.8125 56 
Q 31.78125 56 36.171875 55.265625 
Q 40.578125 54.546875 44.28125 53.078125 
z
" id="DejaVuSans-115"/>
     </defs>
     <g transform="translate(221.511562 335.860562)scale(0.1 -0.1)">
      <use xlink:href="#DejaVuSans-72"/>
      <use x="75.195312" xlink:href="#DejaVuSans-111"/>
      <use x="136.376953" xlink:href="#DejaVuSans-117"/>
      <use x="199.755859" xlink:href="#DejaVuSans-114"/>
      <use x="240.869141" xlink:href="#DejaVuSans-115"/>
     </g>
    </g>
   </g>
   <g id="matplotlib.axis_2">
    <g id="ytick_1">
     <g id="line2d_11">
      <path clip-path="url(#p17d6a2e4fa)" d="M 57.6 293.500627 
L 414.72 293.500627 
" style="fill:none;stroke:#b0b0b0;stroke-linecap:square;stroke-width:0.8;"/>
     </g>
     <g id="line2d_12">
      <defs>
       <path d="M 0 0 
L -3.5 0 
" id="m4fe2f411e2" style="stroke:#000000;stroke-width:0.8;"/>
      </defs>
      <g>
       <use style="stroke:#000000;stroke-width:0.8;" x="57.6" xlink:href="#m4fe2f411e2" y="293.500627"/>
      </g>
     </g>
     <g id="text_7">
      <!-- −0.0055 -->
      <defs>
       <path d="M 10.59375 35.5 
L 73.1875 35.5 
L 73.1875 27.203125 
L 10.59375 27.203125 
z
" id="DejaVuSans-8722"/>
       <path d="M 10.6875 12.40625 
L 21 12.40625 
L 21 0 
L 10.6875 0 
z
" id="DejaVuSans-46"/>
       <path d="M 10.796875 72.90625 
L 49.515625 72.90625 
L 49.515625 64.59375 
L 19.828125 64.59375 
L 19.828125 46.734375 
Q 21.96875 47.46875 24.109375 47.828125 
Q 26.265625 48.1875 28.421875 48.1875 
Q 40.625 48.1875 47.75 41.5 
Q 54.890625 34.8125 54.890625 23.390625 
Q 54.890625 11.625 47.5625 5.09375 
Q 40.234375 -1.421875 26.90625 -1.421875 
Q 22.3125 -1.421875 17.546875 -0.640625 
Q 12.796875 0.140625 7.71875 1.703125 
L 7.71875 11.625 
Q 12.109375 9.234375 16.796875 8.0625 
Q 21.484375 6.890625 26.703125 6.890625 
Q 35.15625 6.890625 40.078125 11.328125 
Q 45.015625 15.765625 45.015625 23.390625 
Q 45.015625 31 40.078125 35.4375 
Q 35.15625 39.890625 26.703125 39.890625 
Q 22.75 39.890625 18.8125 39.015625 
Q 14.890625 38.140625 10.796875 36.28125 
z
" id="DejaVuSans-53"/>
      </defs>
      <g transform="translate(7.229687 297.299845)scale(0.1 -0.1)">
       <use xlink:href="#DejaVuSans-8722"/>
       <use x="83.789062" xlink:href="#DejaVuSans-48"/>
       <use x="147.412109" xlink:href="#DejaVuSans-46"/>
       <use x="179.199219" xlink:href="#DejaVuSans-48"/>
       <use x="242.822266" xlink:href="#DejaVuSans-48"/>
       <use x="306.445312" xlink:href="#DejaVuSans-53"/>
       <use x="370.068359" xlink:href="#DejaVuSans-53"/>
      </g>
     </g>
    </g>
    <g id="ytick_2">
     <g id="line2d_13">
      <path clip-path="url(#p17d6a2e4fa)" d="M 57.6 263.812847 
L 414.72 263.812847 
" style="fill:none;stroke:#b0b0b0;stroke-linecap:square;stroke-width:0.8;"/>
     </g>
     <g id="line2d_14">
      <g>
       <use style="stroke:#000000;stroke-width:0.8;" x="57.6" xlink:href="#m4fe2f411e2" y="263.812847"/>
      </g>
     </g>
     <g id="text_8">
      <!-- −0.0050 -->
      <g transform="translate(7.229687 267.612066)scale(0.1 -0.1)">
       <use xlink:href="#DejaVuSans-8722"/>
       <use x="83.789062" xlink:href="#DejaVuSans-48"/>
       <use x="147.412109" xlink:href="#DejaVuSans-46"/>
       <use x="179.199219" xlink:href="#DejaVuSans-48"/>
       <use x="242.822266" xlink:href="#DejaVuSans-48"/>
       <use x="306.445312" xlink:href="#DejaVuSans-53"/>
       <use x="370.068359" xlink:href="#DejaVuSans-48"/>
      </g>
     </g>
    </g>
    <g id="ytick_3">
     <g id="line2d_15">
      <path clip-path="url(#p17d6a2e4fa)" d="M 57.6 234.125068 
L 414.72 234.125068 
" style="fill:none;stroke:#b0b0b0;stroke-linecap:square;stroke-width:0.8;"/>
     </g>
     <g id="line2d_16">
      <g>
       <use style="stroke:#000000;stroke-width:0.8;" x="57.6" xlink:href="#m4fe2f411e2" y="234.125068"/>
      </g>
     </g>
     <g id="text_9">
      <!-- −0.0045 -->
      <g transform="translate(7.229687 237.924287)scale(0.1 -0.1)">
       <use xlink:href="#DejaVuSans-8722"/>
       <use x="83.789062" xlink:href="#DejaVuSans-48"/>
       <use x="147.412109" xlink:href="#DejaVuSans-46"/>
       <use x="179.199219" xlink:href="#DejaVuSans-48"/>
       <use x="242.822266" xlink:href="#DejaVuSans-48"/>
       <use x="306.445312" xlink:href="#DejaVuSans-52"/>
       <use x="370.068359" xlink:href="#DejaVuSans-53"/>
      </g>
     </g>
    </g>
    <g id="ytick_4">
     <g id="line2d_17">
      <path clip-path="url(#p17d6a2e4fa)" d="M 57.6 204.437289 
L 414.72 204.437289 
" style="fill:none;stroke:#b0b0b0;stroke-linecap:square;stroke-width:0.8;"/>
     </g>
     <g id="line2d_18">
      <g>
       <use style="stroke:#000000;stroke-width:0.8;" x="57.6" xlink:href="#m4fe2f411e2" y="204.437289"/>
      </g>
     </g>
     <g id="text_10">
      <!-- −0.0040 -->
      <g transform="translate(7.229687 208.236508)scale(0.1 -0.1)">
       <use xlink:href="#DejaVuSans-8722"/>
       <use x="83.789062" xlink:href="#DejaVuSans-48"/>
       <use x="147.412109" xlink:href="#DejaVuSans-46"/>
       <use x="179.199219" xlink:href="#DejaVuSans-48"/>
       <use x="242.822266" xlink:href="#DejaVuSans-48"/>
       <use x="306.445312" xlink:href="#DejaVuSans-52"/>
       <use x="370.068359" xlink:href="#DejaVuSans-48"/>
      </g>
     </g>
    </g>
    <g id="ytick_5">
     <g id="line2d_19">
      <path clip-path="url(#p17d6a2e4fa)" d="M 57.6 174.74951 
L 414.72 174.74951 
" style="fill:none;stroke:#b0b0b0;stroke-linecap:square;stroke-width:0.8;"/>
     </g>
     <g id="line2d_20">
      <g>
       <use style="stroke:#000000;stroke-width:0.8;" x="57.6" xlink:href="#m4fe2f411e2" y="174.74951"/>
      </g>
     </g>
     <g id="text_11">
      <!-- −0.0035 -->
      <defs>
       <path d="M 40.578125 39.3125 
Q 47.65625 37.796875 51.625 33 
Q 55.609375 28.21875 55.609375 21.1875 
Q 55.609375 10.40625 48.1875 4.484375 
Q 40.765625 -1.421875 27.09375 -1.421875 
Q 22.515625 -1.421875 17.65625 -0.515625 
Q 12.796875 0.390625 7.625 2.203125 
L 7.625 11.71875 
Q 11.71875 9.328125 16.59375 8.109375 
Q 21.484375 6.890625 26.8125 6.890625 
Q 36.078125 6.890625 40.9375 10.546875 
Q 45.796875 14.203125 45.796875 21.1875 
Q 45.796875 27.640625 41.28125 31.265625 
Q 36.765625 34.90625 28.71875 34.90625 
L 20.21875 34.90625 
L 20.21875 43.015625 
L 29.109375 43.015625 
Q 36.375 43.015625 40.234375 45.921875 
Q 44.09375 48.828125 44.09375 54.296875 
Q 44.09375 59.90625 40.109375 62.90625 
Q 36.140625 65.921875 28.71875 65.921875 
Q 24.65625 65.921875 20.015625 65.03125 
Q 15.375 64.15625 9.8125 62.3125 
L 9.8125 71.09375 
Q 15.4375 72.65625 20.34375 73.4375 
Q 25.25 74.21875 29.59375 74.21875 
Q 40.828125 74.21875 47.359375 69.109375 
Q 53.90625 64.015625 53.90625 55.328125 
Q 53.90625 49.265625 50.4375 45.09375 
Q 46.96875 40.921875 40.578125 39.3125 
z
" id="DejaVuSans-51"/>
      </defs>
      <g transform="translate(7.229687 178.548728)scale(0.1 -0.1)">
       <use xlink:href="#DejaVuSans-8722"/>
       <use x="83.789062" xlink:href="#DejaVuSans-48"/>
       <use x="147.412109" xlink:href="#DejaVuSans-46"/>
       <use x="179.199219" xlink:href="#DejaVuSans-48"/>
       <use x="242.822266" xlink:href="#DejaVuSans-48"/>
       <use x="306.445312" xlink:href="#DejaVuSans-51"/>
       <use x="370.068359" xlink:href="#DejaVuSans-53"/>
      </g>
     </g>
    </g>
    <g id="ytick_6">
     <g id="line2d_21">
      <path clip-path="url(#p17d6a2e4fa)" d="M 57.6 145.06173 
L 414.72 145.06173 
" style="fill:none;stroke:#b0b0b0;stroke-linecap:square;stroke-width:0.8;"/>
     </g>
     <g id="line2d_22">
      <g>
       <use style="stroke:#000000;stroke-width:0.8;" x="57.6" xlink:href="#m4fe2f411e2" y="145.06173"/>
      </g>
     </g>
     <g id="text_12">
      <!-- −0.0030 -->
      <g transform="translate(7.229687 148.860949)scale(0.1 -0.1)">
       <use xlink:href="#DejaVuSans-8722"/>
       <use x="83.789062" xlink:href="#DejaVuSans-48"/>
       <use x="147.412109" xlink:href="#DejaVuSans-46"/>
       <use x="179.199219" xlink:href="#DejaVuSans-48"/>
       <use x="242.822266" xlink:href="#DejaVuSans-48"/>
       <use x="306.445312" xlink:href="#DejaVuSans-51"/>
       <use x="370.068359" xlink:href="#DejaVuSans-48"/>
      </g>
     </g>
    </g>
    <g id="ytick_7">
     <g id="line2d_23">
      <path clip-path="url(#p17d6a2e4fa)" d="M 57.6 115.373951 
L 414.72 115.373951 
" style="fill:none;stroke:#b0b0b0;stroke-linecap:square;stroke-width:0.8;"/>
     </g>
     <g id="line2d_24">
      <g>
       <use style="stroke:#000000;stroke-width:0.8;" x="57.6" xlink:href="#m4fe2f411e2" y="115.373951"/>
      </g>
     </g>
     <g id="text_13">
      <!-- −0.0025 -->
      <g transform="translate(7.229687 119.17317)scale(0.1 -0.1)">
       <use xlink:href="#DejaVuSans-8722"/>
       <use x="83.789062" xlink:href="#DejaVuSans-48"/>
       <use x="147.412109" xlink:href="#DejaVuSans-46"/>
       <use x="179.199219" xlink:href="#DejaVuSans-48"/>
       <use x="242.822266" xlink:href="#DejaVuSans-48"/>
       <use x="306.445312" xlink:href="#DejaVuSans-50"/>
       <use x="370.068359" xlink:href="#DejaVuSans-53"/>
      </g>
     </g>
    </g>
    <g id="ytick_8">
     <g id="line2d_25">
      <path clip-path="url(#p17d6a2e4fa)" d="M 57.6 85.686172 
L 414.72 85.686172 
" style="fill:none;stroke:#b0b0b0;stroke-linecap:square;stroke-width:0.8;"/>
     </g>
     <g id="line2d_26">
      <g>
       <use style="stroke:#000000;stroke-width:0.8;" x="57.6" xlink:href="#m4fe2f411e2" y="85.686172"/>
      </g>
     </g>
     <g id="text_14">
      <!-- −0.0020 -->
      <g transform="translate(7.229687 89.485391)scale(0.1 -0.1)">
       <use xlink:href="#DejaVuSans-8722"/>
       <use x="83.789062" xlink:href="#DejaVuSans-48"/>
       <use x="147.412109" xlink:href="#DejaVuSans-46"/>
       <use x="179.199219" xlink:href="#DejaVuSans-48"/>
       <use x="242.822266" xlink:href="#DejaVuSans-48"/>
       <use x="306.445312" xlink:href="#DejaVuSans-50"/>
       <use x="370.068359" xlink:href="#DejaVuSans-48"/>
      </g>
     </g>
    </g>
    <g id="ytick_9">
     <g id="line2d_27">
      <path clip-path="url(#p17d6a2e4fa)" d="M 57.6 55.998393 
L 414.72 55.998393 
" style="fill:none;stroke:#b0b0b0;stroke-linecap:square;stroke-width:0.8;"/>
     </g>
     <g id="line2d_28">
      <g>
       <use style="stroke:#000000;stroke-width:0.8;" x="57.6" xlink:href="#m4fe2f411e2" y="55.998393"/>
      </g>
     </g>
     <g id="text_15">
      <!-- −0.0015 -->
      <defs>
       <path d="M 12.40625 8.296875 
L 28.515625 8.296875 
L 28.515625 63.921875 
L 10.984375 60.40625 
L 10.984375 69.390625 
L 28.421875 72.90625 
L 38.28125 72.90625 
L 38.28125 8.296875 
L 54.390625 8.296875 
L 54.390625 0 
L 12.40625 0 
z
" id="DejaVuSans-49"/>
      </defs>
      <g transform="translate(7.229687 59.797611)scale(0.1 -0.1)">
       <use xlink:href="#DejaVuSans-8722"/>
       <use x="83.789062" xlink:href="#DejaVuSans-48"/>
       <use x="147.412109" xlink:href="#DejaVuSans-46"/>
       <use x="179.199219" xlink:href="#DejaVuSans-48"/>
       <use x="242.822266" xlink:href="#DejaVuSans-48"/>
       <use x="306.445312" xlink:href="#DejaVuSans-49"/>
       <use x="370.068359" xlink:href="#DejaVuSans-53"/>
      </g>
     </g>
    </g>
    <g id="text_16">
     <!-- Entropy loss -->
     <defs>
      <path d="M 9.8125 72.90625 
L 55.90625 72.90625 
L 55.90625 64.59375 
L 19.671875 64.59375 
L 19.671875 43.015625 
L 54.390625 43.015625 
L 54.390625 34.71875 
L 19.671875 34.71875 
L 19.671875 8.296875 
L 56.78125 8.296875 
L 56.78125 0 
L 9.8125 0 
z
" id="DejaVuSans-69"/>
      <path d="M 54.890625 33.015625 
L 54.890625 0 
L 45.90625 0 
L 45.90625 32.71875 
Q 45.90625 40.484375 42.875 44.328125 
Q 39.84375 48.1875 33.796875 48.1875 
Q 26.515625 48.1875 22.3125 43.546875 
Q 18.109375 38.921875 18.109375 30.90625 
L 18.109375 0 
L 9.078125 0 
L 9.078125 54.6875 
L 18.109375 54.6875 
L 18.109375 46.1875 
Q 21.34375 51.125 25.703125 53.5625 
Q 30.078125 56 35.796875 56 
Q 45.21875 56 50.046875 50.171875 
Q 54.890625 44.34375 54.890625 33.015625 
z
" id="DejaVuSans-110"/>
      <path d="M 18.3125 70.21875 
L 18.3125 54.6875 
L 36.8125 54.6875 
L 36.8125 47.703125 
L 18.3125 47.703125 
L 18.3125 18.015625 
Q 18.3125 11.328125 20.140625 9.421875 
Q 21.96875 7.515625 27.59375 7.515625 
L 36.8125 7.515625 
L 36.8125 0 
L 27.59375 0 
Q 17.1875 0 13.234375 3.875 
Q 9.28125 7.765625 9.28125 18.015625 
L 9.28125 47.703125 
L 2.6875 47.703125 
L 2.6875 54.6875 
L 9.28125 54.6875 
L 9.28125 70.21875 
z
" id="DejaVuSans-116"/>
      <path d="M 18.109375 8.203125 
L 18.109375 -20.796875 
L 9.078125 -20.796875 
L 9.078125 54.6875 
L 18.109375 54.6875 
L 18.109375 46.390625 
Q 20.953125 51.265625 25.265625 53.625 
Q 29.59375 56 35.59375 56 
Q 45.5625 56 51.78125 48.09375 
Q 58.015625 40.1875 58.015625 27.296875 
Q 58.015625 14.40625 51.78125 6.484375 
Q 45.5625 -1.421875 35.59375 -1.421875 
Q 29.59375 -1.421875 25.265625 0.953125 
Q 20.953125 3.328125 18.109375 8.203125 
z
M 48.6875 27.296875 
Q 48.6875 37.203125 44.609375 42.84375 
Q 40.53125 48.484375 33.40625 48.484375 
Q 26.265625 48.484375 22.1875 42.84375 
Q 18.109375 37.203125 18.109375 27.296875 
Q 18.109375 17.390625 22.1875 11.75 
Q 26.265625 6.109375 33.40625 6.109375 
Q 40.53125 6.109375 44.609375 11.75 
Q 48.6875 17.390625 48.6875 27.296875 
z
" id="DejaVuSans-112"/>
      <path d="M 32.171875 -5.078125 
Q 28.375 -14.84375 24.75 -17.8125 
Q 21.140625 -20.796875 15.09375 -20.796875 
L 7.90625 -20.796875 
L 7.90625 -13.28125 
L 13.1875 -13.28125 
Q 16.890625 -13.28125 18.9375 -11.515625 
Q 21 -9.765625 23.484375 -3.21875 
L 25.09375 0.875 
L 2.984375 54.6875 
L 12.5 54.6875 
L 29.59375 11.921875 
L 46.6875 54.6875 
L 56.203125 54.6875 
z
" id="DejaVuSans-121"/>
      <path id="DejaVuSans-32"/>
      <path d="M 9.421875 75.984375 
L 18.40625 75.984375 
L 18.40625 0 
L 9.421875 0 
z
" id="DejaVuSans-108"/>
     </defs>
     <g transform="translate(1.15 205.310031)rotate(-90)scale(0.1 -0.1)">
      <use xlink:href="#DejaVuSans-69"/>
      <use x="63.183594" xlink:href="#DejaVuSans-110"/>
      <use x="126.5625" xlink:href="#DejaVuSans-116"/>
      <use x="165.771484" xlink:href="#DejaVuSans-114"/>
      <use x="206.853516" xlink:href="#DejaVuSans-111"/>
      <use x="268.035156" xlink:href="#DejaVuSans-112"/>
      <use x="331.511719" xlink:href="#DejaVuSans-121"/>
      <use x="390.691406" xlink:href="#DejaVuSans-32"/>
      <use x="422.478516" xlink:href="#DejaVuSans-108"/>
      <use x="450.261719" xlink:href="#DejaVuSans-111"/>
      <use x="511.443359" xlink:href="#DejaVuSans-115"/>
      <use x="563.542969" xlink:href="#DejaVuSans-115"/>
     </g>
    </g>
   </g>
   <g id="line2d_29">
    <path clip-path="url(#p17d6a2e4fa)" d="M 57.6 295.488 
L 58.442542 227.584848 
L 58.838494 210.18523 
L 60.007401 197.322727 
L 60.208291 190.728589 
L 60.722758 192.656201 
L 60.912714 191.249038 
L 61.889104 189.941204 
L 62.087961 191.459515 
L 63.377038 184.931721 
L 63.900021 188.608955 
L 64.09585 186.579457 
L 64.153938 184.782997 
L 65.469919 189.62508 
L 66.318528 187.937695 
L 67.041441 187.239491 
L 67.356125 187.660114 
L 67.554548 185.737755 
L 68.139005 183.625559 
L 68.851683 185.397909 
L 69.178789 181.821192 
L 69.306329 184.00887 
L 69.372617 181.372326 
L 69.630305 188.470877 
L 70.152478 181.559385 
L 70.665901 182.67575 
L 70.735091 181.653377 
L 71.054159 182.215396 
L 71.766133 177.559197 
L 72.15665 183.018624 
L 72.481394 183.900527 
L 73.450061 182.637 
L 73.832696 178.707179 
L 74.172103 183.726975 
L 74.611906 177.337978 
L 74.876621 175.256818 
L 75.004996 183.314398 
L 76.249356 176.910347 
L 76.578794 178.935628 
L 76.957239 175.682238 
L 77.279015 177.503623 
L 77.404619 174.903673 
L 77.886043 178.960665 
L 77.944804 180.49052 
L 78.582551 179.181427 
L 79.103318 175.209912 
L 79.562871 177.196513 
L 80.487412 172.07237 
L 80.718651 169.94646 
L 81.296459 162.449364 
L 83.852865 164.350267 
L 83.909536 161.718728 
L 84.892965 161.976527 
L 85.010486 162.870982 
L 85.254054 148.556332 
L 85.601395 155.703434 
L 86.119313 152.904591 
L 86.293426 156.070404 
L 86.351176 148.638559 
L 86.935685 138.649261 
L 87.915535 132.670463 
L 88.028557 135.622896 
L 89.126958 170.672534 
L 89.417921 154.755671 
L 89.881028 158.06906 
L 90.341207 153.192623 
L 90.516513 166.47344 
L 90.862904 156.678362 
L 91.150585 115.505681 
L 91.728353 166.897685 
L 92.072932 175.382081 
L 92.416154 162.736719 
L 92.647346 158.453725 
L 92.991292 157.77735 
L 93.105612 156.487073 
L 93.278181 157.415177 
L 93.392787 156.347155 
L 93.449975 158.592827 
L 93.73536 154.998207 
L 93.792839 156.069173 
L 94.313527 132.15177 
L 95.060199 144.28224 
L 95.352023 143.029566 
L 95.468186 139.572955 
L 96.158831 143.688563 
L 96.562982 151.962634 
L 96.620602 143.026317 
L 96.90672 166.122285 
L 97.022787 148.197725 
L 97.718998 147.338163 
L 97.893322 150.040939 
L 98.125911 163.994634 
L 98.29983 162.194262 
L 98.469011 165.683262 
L 98.698274 164.894564 
L 98.754645 163.476853 
L 98.984864 163.403196 
L 99.273542 143.248448 
L 100.309846 143.580912 
L 100.995839 113.326768 
L 101.229975 137.67837 
L 101.284786 123.490863 
L 101.697877 170.032254 
L 102.216716 158.563118 
L 102.445015 168.100564 
L 102.676926 166.260184 
L 102.966795 169.023996 
L 103.194882 169.613249 
L 103.711743 165.586242 
L 103.996952 146.166015 
L 104.05468 148.268907 
L 104.173262 146.837123 
L 104.231966 147.10211 
L 104.578237 160.029726 
L 104.978595 150.996001 
L 105.272983 152.04189 
L 105.329716 153.567349 
L 105.387005 148.881607 
L 105.616581 158.641986 
L 105.845939 158.310946 
L 106.12872 165.670737 
L 106.244038 161.898612 
L 107.568582 160.851977 
L 107.799845 149.309128 
L 107.912904 152.246768 
L 108.201588 147.261769 
L 109.691799 144.096827 
L 109.980878 142.933831 
L 110.093854 139.171936 
L 110.439691 144.161276 
L 110.896578 140.9991 
L 111.241392 148.499416 
L 111.472315 144.6615 
L 111.873585 140.93877 
L 111.988342 169.703855 
L 112.334746 152.43803 
L 112.45007 153.024172 
L 113.261305 144.949934 
L 113.319165 163.441987 
L 113.494419 154.176855 
L 113.896215 147.633439 
L 114.068251 149.289235 
L 114.586987 150.249841 
L 114.816794 151.259219 
L 114.988534 152.73267 
L 115.048128 149.197026 
L 115.566614 140.857067 
L 115.623993 143.140286 
L 115.857324 135.738731 
L 116.025748 143.372688 
L 116.311271 143.935634 
L 117.000335 141.966576 
L 117.231891 137.928427 
L 117.34641 139.153964 
L 117.522551 145.521671 
L 118.03834 137.962919 
L 118.211356 137.938256 
L 118.677062 138.063063 
L 119.370989 142.5991 
L 119.773846 133.619885 
L 120.525607 154.173523 
L 120.871868 156.508349 
L 121.049644 154.917956 
L 121.163908 140.562579 
L 121.393501 142.061052 
L 121.623382 141.45503 
L 121.737021 137.414613 
L 122.601438 149.038501 
L 122.949847 151.364658 
L 123.233423 133.977966 
L 124.096972 139.822114 
L 124.901018 136.793398 
L 126.229026 163.876766 
L 126.460489 163.198193 
L 126.515849 160.212444 
L 126.575985 163.553551 
L 127.624577 162.317963 
L 128.37484 152.628558 
L 128.719869 160.443022 
L 128.833715 156.869955 
L 129.120309 151.516437 
L 130.624355 148.347016 
L 130.742295 147.294021 
L 131.95038 152.221179 
L 132.124118 140.375299 
L 132.297225 145.894116 
L 133.455799 140.392248 
L 133.797628 135.61091 
L 134.205744 164.096755 
L 134.553354 169.118624 
L 135.130049 139.697376 
L 135.416448 158.07611 
L 135.473216 155.687702 
L 135.64953 142.857202 
L 136.106624 139.732365 
L 136.44976 154.015441 
L 136.621137 143.024976 
L 136.67772 148.230268 
L 137.714788 154.782725 
L 138.582102 155.032962 
L 139.458618 170.046812 
L 139.631919 165.558165 
L 139.693526 169.334286 
L 139.806975 167.440751 
L 139.866152 168.554697 
L 141.13759 174.537269 
L 141.425801 167.70018 
L 141.596932 157.139725 
L 141.82807 157.653649 
L 141.94593 156.648321 
L 142.177411 155.903266 
L 142.405632 156.785045 
L 142.632264 151.698021 
L 144.08175 172.879842 
L 144.138339 170.106741 
L 144.773775 170.800728 
L 145.289369 156.548011 
L 145.464927 167.201325 
L 145.580084 162.852914 
L 146.154559 170.953239 
L 146.560589 168.078459 
L 147.432957 144.273337 
L 147.489537 154.506554 
L 147.665127 155.762146 
L 149.053003 164.504286 
L 149.225836 163.238934 
L 149.627426 164.120865 
L 150.028064 161.238702 
L 150.086579 161.27065 
L 150.616895 161.721244 
L 150.847833 160.115548 
L 150.96274 165.540041 
L 151.716562 154.686328 
L 152.130632 154.759556 
L 152.186887 153.648457 
L 152.474121 152.324752 
L 152.933575 154.6238 
L 153.455586 165.397013 
L 153.510938 161.111462 
L 153.740273 161.820725 
L 154.032536 155.590723 
L 154.205135 158.644157 
L 154.31979 170.57297 
L 154.49825 169.938068 
L 154.670874 170.241004 
L 154.904609 171.938466 
L 155.368133 173.447198 
L 155.829558 171.232258 
L 156.065037 168.949289 
L 156.250374 164.894619 
L 156.653484 164.459868 
L 157.181327 165.519747 
L 157.411884 164.903868 
L 157.469293 160.32445 
L 157.525625 161.868488 
L 157.641916 164.90319 
L 157.817755 162.651215 
L 158.234102 138.545287 
L 158.758562 127.695279 
L 159.350956 159.701658 
L 159.698146 136.877478 
L 159.872345 136.994834 
L 160.163055 140.409915 
L 160.333873 135.056508 
L 160.391518 123.506747 
L 160.450026 139.569569 
L 160.733315 131.986111 
L 161.531953 140.237359 
L 162.059297 159.326863 
L 162.405144 162.932764 
L 162.810155 164.154126 
L 162.866036 165.187296 
L 163.385515 152.258326 
L 163.790722 163.91235 
L 164.481511 160.616021 
L 165.226884 153.667908 
L 165.80076 154.550986 
L 165.856271 159.712994 
L 166.030308 164.306403 
L 166.315946 155.680388 
L 166.545072 167.651864 
L 167.293704 162.459249 
L 167.468222 167.862825 
L 167.874174 155.326206 
L 167.931151 160.494532 
L 169.886435 168.342188 
L 170.230616 167.114176 
L 170.636024 168.94568 
L 170.980754 157.221842 
L 171.328412 172.821987 
L 171.442269 169.589914 
L 171.785335 168.183787 
L 171.957817 164.817797 
L 172.072975 166.205564 
L 172.248 166.93497 
L 172.424674 169.197783 
L 173.119824 165.046259 
L 173.233782 163.209377 
L 173.923249 148.661743 
L 173.983688 149.37232 
L 174.039038 150.085965 
L 174.853687 154.774196 
L 175.087125 165.848796 
L 175.321727 153.13087 
L 175.549247 158.30185 
L 175.781297 156.652925 
L 176.010579 163.101837 
L 176.481982 144.080555 
L 176.772034 160.707898 
L 176.943242 159.800226 
L 177.116017 162.144812 
L 177.403244 160.455782 
L 178.50245 160.258908 
L 179.19167 157.577227 
L 179.425111 163.020272 
L 179.597306 153.104797 
L 179.712453 159.219461 
L 179.941639 161.914192 
L 180.167897 159.179799 
L 180.457595 158.72861 
L 180.581141 147.667433 
L 180.994055 156.23815 
L 181.453584 158.759715 
L 181.681373 152.620582 
L 182.088274 150.695223 
L 182.144561 149.515375 
L 183.018895 150.362095 
L 183.19362 151.631829 
L 183.43476 157.260329 
L 183.666448 160.724087 
L 183.783207 157.274638 
L 184.071491 156.419789 
L 184.5945 143.993931 
L 184.937898 161.130249 
L 185.056941 156.757907 
L 185.288661 154.172127 
L 185.871731 165.47725 
L 185.984191 161.168722 
L 186.098364 163.945045 
L 186.155851 163.406472 
L 186.385835 163.346364 
L 186.559063 154.498647 
L 187.01644 165.891942 
L 187.247134 166.434815 
L 188.066149 167.351763 
L 188.299365 170.022384 
L 188.413129 166.491993 
L 188.701111 168.767953 
L 188.761137 167.897234 
L 188.875125 164.336955 
L 189.04509 166.210624 
L 189.160423 168.909211 
L 189.275534 163.150112 
L 189.334239 163.631852 
L 189.73828 159.090825 
L 189.911024 129.498499 
L 190.203185 161.26342 
L 191.309253 155.859166 
L 191.8884 152.104916 
L 192.236227 153.318301 
L 192.592193 160.135317 
L 192.763912 152.116017 
L 192.820802 159.342153 
L 192.880842 158.569546 
L 193.525834 151.798041 
L 193.585339 137.769998 
L 194.467489 161.151953 
L 195.046546 157.942469 
L 195.566689 166.093973 
L 196.542583 152.053931 
L 197.581465 151.965731 
L 197.639807 154.755782 
L 197.754912 152.918222 
L 198.219181 142.590598 
L 198.563164 127.996085 
L 199.14458 154.359863 
L 199.659249 149.12977 
L 200.297998 140.297357 
L 200.75949 124.560543 
L 201.158129 142.054375 
L 201.275696 153.423284 
L 201.391197 145.649838 
L 201.675284 138.189349 
L 203.124981 153.648664 
L 203.182783 149.838964 
L 203.764767 158.445154 
L 203.880214 158.039088 
L 204.110526 157.779673 
L 204.167546 156.361035 
L 204.988173 153.630471 
L 205.333832 151.500469 
L 205.62639 155.680775 
L 205.865193 152.267629 
L 205.979365 141.816802 
L 206.728592 164.706219 
L 206.961135 165.276229 
L 207.075507 164.309886 
L 207.244667 166.711636 
L 207.825567 144.498455 
L 208.401791 147.843902 
L 209.214028 136.300653 
L 209.333061 148.440718 
L 209.564792 138.792759 
L 209.800982 141.060079 
L 210.149727 150.140793 
L 211.135145 156.9525 
L 211.306447 143.516172 
L 211.478896 142.038698 
L 211.536209 148.460224 
L 211.998369 146.802396 
L 212.343134 140.091856 
L 212.684534 141.145749 
L 212.975545 139.737356 
L 214.070639 144.359243 
L 214.303179 142.53342 
L 214.710324 136.696184 
L 214.997948 138.225224 
L 215.74852 146.921051 
L 216.158117 149.369845 
L 217.037419 146.913683 
L 217.66653 138.783303 
L 217.726263 149.320575 
L 217.901199 151.674021 
L 218.25176 149.494514 
L 218.712923 150.996167 
L 218.770268 154.593897 
L 218.826656 151.786221 
L 218.883963 143.737847 
L 219.404079 149.907796 
L 220.733854 143.746723 
L 220.790858 123.796162 
L 220.850026 131.363002 
L 221.254368 143.318358 
L 221.884924 150.987278 
L 221.999431 148.624541 
L 222.692168 154.064255 
L 222.919248 152.556782 
L 223.033688 145.915599 
L 223.10343 147.95783 
L 223.220904 148.781463 
L 224.318117 141.522548 
L 224.782418 139.830657 
L 224.952887 144.224399 
L 225.468352 144.559158 
L 225.526261 152.341894 
L 225.992167 148.196191 
L 226.05052 150.310074 
L 226.399634 145.245984 
L 226.571804 146.781355 
L 226.924246 142.435501 
L 227.041866 138.490031 
L 227.158917 150.115882 
L 228.143114 133.60407 
L 228.27028 136.891137 
L 228.384259 154.562626 
L 229.02527 150.971311 
L 229.59733 150.083837 
L 230.067292 148.105655 
L 231.050193 154.455985 
L 231.45 146.189392 
L 231.508081 149.680674 
L 231.682549 144.514823 
L 232.602683 140.640023 
L 232.831653 144.901341 
L 233.1251 130.615818 
L 233.242321 135.490291 
L 233.354134 128.986012 
L 233.469349 135.41481 
L 233.587611 131.330362 
L 233.820672 113.883534 
L 233.877187 126.231767 
L 234.510408 141.61896 
L 234.683115 140.003781 
L 235.151433 121.175129 
L 235.325272 140.592785 
L 235.385683 137.985024 
L 235.85128 135.636513 
L 236.724898 146.567021 
L 236.840519 155.524214 
L 236.957223 152.990316 
L 237.073623 145.388957 
L 237.708507 148.720359 
L 237.943094 142.273023 
L 238.699837 147.336697 
L 240.035333 132.948998 
L 240.905153 155.572032 
L 240.964743 160.275359 
L 241.313486 142.249728 
L 241.380413 151.395362 
L 241.49342 149.746064 
L 241.665172 138.720913 
L 241.95707 129.924858 
L 242.189849 131.564065 
L 242.3043 141.713464 
L 243.226871 150.540748 
L 243.862148 143.253701 
L 244.265371 144.998789 
L 244.323558 118.813872 
L 244.732483 88.945084 
L 244.901626 117.361904 
L 246.294463 130.495476 
L 246.466605 130.586179 
L 246.874964 133.307798 
L 247.048085 128.039729 
L 247.105339 137.924141 
L 247.22032 130.327565 
L 247.277746 131.952214 
L 247.686584 140.945046 
L 248.730007 128.09634 
L 249.253329 130.458261 
L 249.36729 124.271433 
L 249.484397 133.778216 
L 249.887456 140.249828 
L 250.639709 136.061794 
L 250.753748 141.396442 
L 251.099681 133.326779 
L 251.561483 147.679198 
L 251.907251 149.7561 
L 251.965965 146.736771 
L 252.260218 124.267437 
L 252.549478 142.39588 
L 252.960386 140.018573 
L 253.423298 126.484879 
L 253.886384 130.777965 
L 254.641166 127.724075 
L 254.873 140.297177 
L 255.042481 129.433413 
L 255.333293 138.049543 
L 256.322111 137.501306 
L 256.61615 131.612644 
L 257.666638 138.538859 
L 257.900263 141.439477 
L 258.069935 121.129716 
L 258.360205 143.357717 
L 258.781904 134.606577 
L 259.013844 138.193939 
L 259.12995 132.339188 
L 259.482396 105.413197 
L 259.538319 113.191897 
L 259.889148 92.385285 
L 260.295478 117.208439 
L 260.64374 108.267061 
L 260.81685 139.027028 
L 261.163191 123.826133 
L 261.805381 118.185578 
L 261.922726 118.418852 
L 262.509396 113.971195 
L 262.679016 116.652903 
L 262.794695 112.455164 
L 263.086123 125.126046 
L 264.020887 119.563613 
L 264.133237 120.944828 
L 264.479318 116.846459 
L 264.711256 100.259069 
L 264.828248 115.496709 
L 265.65327 123.908499 
L 266.35513 133.417578 
L 266.64354 145.265532 
L 267.340973 132.77611 
L 267.3982 126.456097 
L 267.752871 117.750205 
L 267.811942 127.198483 
L 268.615242 116.766512 
L 268.845494 123.287215 
L 268.960928 111.427814 
L 269.077288 113.472699 
L 269.251407 129.805913 
L 269.424561 125.781463 
L 270.412535 120.465866 
L 271.105304 135.168057 
L 271.446313 122.285606 
L 271.853653 126.16729 
L 273.237322 127.215128 
L 273.585952 124.951167 
L 273.697642 135.475029 
L 274.921939 128.614549 
L 275.095606 132.973495 
L 275.329555 134.637198 
L 275.385365 139.817551 
L 275.444217 131.419102 
L 275.797413 133.22398 
L 275.972327 133.330429 
L 276.086321 132.756465 
L 276.605652 118.406645 
L 277.00917 116.970713 
L 277.299495 124.640228 
L 277.774376 125.404277 
L 278.003144 118.396843 
L 278.231814 118.655845 
L 278.982332 104.35018 
L 279.10139 130.363591 
L 279.274917 131.925754 
L 279.966824 125.703521 
L 280.199066 114.92775 
L 280.485147 112.821581 
L 280.607575 118.946144 
L 281.187861 118.81589 
L 281.310025 141.067766 
L 281.426157 139.623221 
L 282.174127 115.8652 
L 283.098345 127.714467 
L 283.388811 129.114289 
L 283.795862 135.399617 
L 285.298222 118.786181 
L 285.357542 135.057254 
L 285.763525 143.475625 
L 286.343723 125.732553 
L 286.803892 136.893418 
L 287.210019 136.875612 
L 287.435138 99.09147 
L 288.069228 108.466437 
L 288.414853 104.360424 
L 288.761494 118.573561 
L 288.931333 105.036522 
L 289.830644 116.966372 
L 290.061056 107.79367 
L 290.709269 105.97635 
L 290.996142 113.267876 
L 291.290158 134.09217 
L 291.520532 99.94112 
L 291.576658 105.063978 
L 292.217799 114.433001 
L 292.287621 106.4137 
L 292.922201 112.633513 
L 293.035703 120.074634 
L 293.094182 118.269894 
L 293.495949 115.417163 
L 293.671882 129.7973 
L 293.729065 124.660384 
L 293.78877 124.851631 
L 294.134952 112.113921 
L 295.433416 81.253368 
L 296.414752 97.094155 
L 296.771804 120.002982 
L 296.886761 111.018292 
L 298.039691 121.724499 
L 300.701814 112.784435 
L 301.516487 106.602238 
L 301.579199 91.714896 
L 302.224059 132.954182 
L 302.400847 121.928741 
L 302.512849 120.817159 
L 302.688527 115.517847 
L 302.746591 128.072603 
L 302.864919 105.64766 
L 304.207223 102.594475 
L 304.495001 108.40478 
L 304.669271 118.043864 
L 304.847671 121.014448 
L 305.146385 117.422012 
L 305.792177 113.652638 
L 306.320107 127.034456 
L 306.55768 117.244562 
L 307.080563 107.759635 
L 307.436969 107.820186 
L 308.359946 109.451443 
L 308.707255 97.786359 
L 308.9389 115.634096 
L 309.455753 100.86317 
L 309.572491 118.922325 
L 310.097826 119.832457 
L 310.324687 114.018751 
L 310.674897 123.719049 
L 310.964448 110.253289 
L 311.311436 126.399416 
L 311.833959 92.911443 
L 312.236926 56.05421 
L 312.46679 92.210129 
L 312.991338 121.107915 
L 313.863718 123.053319 
L 314.268121 114.030792 
L 314.44085 134.588495 
L 314.846207 83.35268 
L 314.902614 98.887767 
L 315.655569 119.585179 
L 316.00298 105.979474 
L 316.058575 106.89598 
L 316.17043 85.576066 
L 316.521514 83.753533 
L 316.693734 102.433765 
L 318.253369 114.170834 
L 318.602114 120.873977 
L 318.834733 112.400724 
L 319.008129 112.803167 
L 319.475305 117.620532 
L 319.590165 106.666577 
L 320.572194 91.471945 
L 320.629642 107.125397 
L 321.74151 108.477635 
L 321.799342 107.421903 
L 321.972582 101.291589 
L 322.489989 112.840009 
L 323.123279 99.224945 
L 323.876458 115.830556 
L 323.990894 109.002812 
L 324.575142 121.558758 
L 324.748934 107.99371 
L 325.395824 111.535728 
L 325.568433 82.411401 
L 325.810795 106.023063 
L 326.503747 108.676016 
L 327.48379 118.958614 
L 328.723712 86.894808 
L 329.127661 97.484391 
L 329.593069 122.234953 
L 329.830267 102.790049 
L 330.236061 100.63591 
L 330.292461 98.989597 
L 330.35027 83.965932 
L 330.926281 87.208761 
L 332.150505 116.707828 
L 332.437828 102.094348 
L 332.725259 117.126045 
L 333.079641 128.959856 
L 333.658081 87.902265 
L 333.949457 90.655998 
L 334.306311 102.288042 
L 334.597406 95.38743 
L 335.059589 106.948775 
L 335.233277 120.803376 
L 335.406266 101.297423 
L 335.582958 99.319269 
L 335.639671 115.235869 
L 335.69701 108.911944 
L 336.103802 106.232627 
L 336.278287 95.031948 
L 336.334607 107.875746 
L 336.405509 101.620363 
L 336.465106 99.342176 
L 336.580037 81.899184 
L 336.752579 103.482613 
L 336.809201 88.952812 
L 337.15501 98.14838 
L 337.50457 101.668707 
L 337.621254 80.372322 
L 337.792503 104.780245 
L 338.95448 111.746606 
L 339.069048 117.717842 
L 339.418662 99.958691 
L 339.825384 101.959255 
L 340.522195 104.733283 
L 341.281035 106.614583 
L 341.632103 111.857575 
L 341.74559 99.630139 
L 342.678952 104.33406 
L 342.850588 95.034948 
L 342.973845 113.10454 
L 343.030586 111.351545 
L 344.128694 105.337356 
L 345.516917 99.87768 
L 345.690981 95.346357 
L 346.443022 94.162805 
L 346.910042 105.73033 
L 347.366938 113.079062 
L 347.42699 104.123818 
L 347.603413 113.041611 
L 347.776645 80.947695 
L 348.583989 71.766913 
L 349.043696 96.609179 
L 349.906621 62.701897 
L 350.312845 98.893822 
L 350.660075 92.836293 
L 350.835564 101.71159 
L 351.240454 104.25851 
L 352.105244 111.82629 
L 352.165687 116.478508 
L 352.572117 107.237886 
L 353.613034 115.593992 
L 354.536845 110.775466 
L 354.945268 122.538662 
L 355.29163 102.432176 
L 355.652114 100.811079 
L 356.174623 107.096531 
L 356.40472 95.658624 
L 356.522627 82.277428 
L 356.870164 76.397896 
L 357.041389 107.360841 
L 358.386801 98.598822 
L 358.674406 107.027644 
L 359.433131 116.903029 
L 359.662639 95.465427 
L 359.83652 110.227327 
L 360.701405 106.616228 
L 361.172847 93.170997 
L 361.4015 96.265669 
L 362.494917 117.547469 
L 362.722191 95.049118 
L 362.83885 79.378883 
L 362.954339 103.126426 
L 363.01363 95.870981 
L 363.299362 112.303178 
L 363.939911 102.009521 
L 364.290675 105.739924 
L 364.521215 109.782511 
L 365.844893 74.783042 
L 366.594499 102.621889 
L 367.054804 105.237889 
L 367.405141 81.590422 
L 367.519147 95.582645 
L 368.167686 95.602939 
L 368.225698 92.772812 
L 369.112641 85.155789 
L 369.287906 77.117466 
L 369.924797 104.896522 
L 369.981992 104.698874 
L 370.154705 102.349298 
L 371.154617 83.548835 
L 371.384292 75.546642 
L 371.616221 109.778889 
L 372.139429 105.276058 
L 372.432843 91.315728 
L 372.549717 100.083568 
L 372.664222 89.441133 
L 373.185321 85.452268 
L 373.473247 74.607492 
L 374.56824 108.426775 
L 374.629539 96.380233 
L 374.743318 96.425895 
L 375.028393 97.573379 
L 375.551236 102.61235 
L 375.898852 94.089286 
L 376.654506 96.801795 
L 377.174374 100.298635 
L 377.524937 114.49246 
L 377.584177 93.470269 
L 377.814638 98.782549 
L 378.509721 98.396376 
L 378.808917 90.583945 
L 378.98488 97.552214 
L 379.097714 82.416149 
L 379.739914 80.743101 
L 379.966765 86.684068 
L 380.485764 72.871888 
L 380.71399 80.113556 
L 380.953789 66.426197 
L 381.24581 72.85693 
L 381.527855 93.228161 
L 381.93079 96.066915 
L 382.219591 77.255869 
L 382.512989 96.387822 
L 383.091479 82.5859 
L 383.14742 88.702161 
L 383.495007 90.386325 
L 384.186892 96.044271 
L 384.482262 99.665751 
L 384.94715 95.552245 
L 385.061687 103.031894 
L 385.639661 59.873186 
L 385.75257 92.599467 
L 386.619453 80.65038 
L 387.255006 101.551835 
L 387.372646 77.816859 
L 387.60672 88.977475 
L 387.721559 113.419973 
L 388.484077 87.913407 
L 388.944411 102.970514 
L 389.695574 77.043947 
L 390.449714 93.599528 
L 390.854718 93.505742 
L 391.024752 91.094897 
L 391.257788 91.959713 
L 392.065284 88.138566 
L 392.694751 92.43067 
L 393.097969 60.845923 
L 393.508184 86.422883 
L 394.094212 87.345568 
L 394.266261 79.175118 
L 394.49662 84.380362 
L 394.556005 91.223063 
L 394.841205 96.912308 
L 395.193957 94.894298 
L 395.316526 82.198117 
L 395.920057 94.154358 
L 395.979851 100.257216 
L 397.021287 110.868657 
L 397.198557 109.170226 
L 397.501329 100.827917 
L 397.627719 89.497233 
L 398.237808 97.312277 
L 398.353946 94.52954 
L 399.089206 99.630084 
L 399.270092 87.792706 
L 399.39165 102.144005 
L 399.810461 80.780496 
L 400.409968 89.884234 
L 400.884392 94.902786 
L 401.004588 106.393475 
L 401.119557 69.482561 
L 401.410566 101.826582 
L 401.935946 92.015937 
L 402.512006 98.409164 
L 402.572487 105.486563 
L 403.048986 107.736327 
L 403.166269 98.177328 
L 403.405064 88.163187 
L 403.466774 94.547249 
L 404.873401 67.64964 
L 405.051402 95.580129 
L 405.226755 99.757449 
L 405.751459 107.498892 
L 406.782129 93.523548 
L 407.376134 72.906822 
L 407.969522 86.565592 
L 408.258164 77.884792 
L 408.487276 78.619396 
L 408.543142 66.776342 
L 408.775737 85.095708 
L 409.180594 105.639932 
L 409.239586 82.669434 
L 409.415304 91.644142 
L 409.58858 81.02787 
L 410.410646 75.527834 
L 410.702992 69.937379 
L 410.873639 57.181711 
L 411.856058 53.568 
L 412.146914 94.168791 
L 412.437103 81.355966 
L 412.84506 98.895508 
L 413.372643 89.495629 
L 413.489918 73.160148 
L 414.077579 90.419987 
L 414.428423 93.235613 
L 414.543845 87.213959 
L 414.72 104.733698 
L 414.72 104.733698 
" style="fill:none;stroke:#000000;stroke-linecap:square;stroke-width:0.8;"/>
   </g>
   <g id="patch_3">
    <path d="M 57.6 307.584 
L 57.6 41.472 
" style="fill:none;stroke:#000000;stroke-linecap:square;stroke-linejoin:miter;stroke-width:0.8;"/>
   </g>
   <g id="patch_4">
    <path d="M 414.72 307.584 
L 414.72 41.472 
" style="fill:none;stroke:#000000;stroke-linecap:square;stroke-linejoin:miter;stroke-width:0.8;"/>
   </g>
   <g id="patch_5">
    <path d="M 57.6 307.584 
L 414.72 307.584 
" style="fill:none;stroke:#000000;stroke-linecap:square;stroke-linejoin:miter;stroke-width:0.8;"/>
   </g>
   <g id="patch_6">
    <path d="M 57.6 41.472 
L 414.72 41.472 
" style="fill:none;stroke:#000000;stroke-linecap:square;stroke-linejoin:miter;stroke-width:0.8;"/>
   </g>
  </g>
  <g id="axes_2">
   <g id="matplotlib.axis_3">
    <g id="xtick_6">
     <g id="line2d_30">
      <defs>
       <path d="M 0 0 
L 0 -3.5 
" id="mcbf9f1a6ce" style="stroke:#000000;stroke-width:0.8;"/>
      </defs>
      <g>
       <use style="stroke:#000000;stroke-width:0.8;" x="57.6" xlink:href="#mcbf9f1a6ce" y="41.472"/>
      </g>
     </g>
    </g>
    <g id="xtick_7">
     <g id="line2d_31">
      <g>
       <use style="stroke:#000000;stroke-width:0.8;" x="130.457917" xlink:href="#mcbf9f1a6ce" y="41.472"/>
      </g>
     </g>
     <g id="text_17">
      <!-- 200K -->
      <defs>
       <path d="M 9.8125 72.90625 
L 19.671875 72.90625 
L 19.671875 42.09375 
L 52.390625 72.90625 
L 65.09375 72.90625 
L 28.90625 38.921875 
L 67.671875 0 
L 54.6875 0 
L 19.671875 35.109375 
L 19.671875 0 
L 9.8125 0 
z
" id="DejaVuSans-75"/>
      </defs>
      <g transform="translate(117.63526 32.392313)scale(0.1 -0.1)">
       <use xlink:href="#DejaVuSans-50"/>
       <use x="63.623047" xlink:href="#DejaVuSans-48"/>
       <use x="127.246094" xlink:href="#DejaVuSans-48"/>
       <use x="190.869141" xlink:href="#DejaVuSans-75"/>
      </g>
     </g>
    </g>
    <g id="xtick_8">
     <g id="line2d_32">
      <g>
       <use style="stroke:#000000;stroke-width:0.8;" x="203.315833" xlink:href="#mcbf9f1a6ce" y="41.472"/>
      </g>
     </g>
     <g id="text_18">
      <!-- 400K -->
      <g transform="translate(190.493177 32.392313)scale(0.1 -0.1)">
       <use xlink:href="#DejaVuSans-52"/>
       <use x="63.623047" xlink:href="#DejaVuSans-48"/>
       <use x="127.246094" xlink:href="#DejaVuSans-48"/>
       <use x="190.869141" xlink:href="#DejaVuSans-75"/>
      </g>
     </g>
    </g>
    <g id="xtick_9">
     <g id="line2d_33">
      <g>
       <use style="stroke:#000000;stroke-width:0.8;" x="276.17375" xlink:href="#mcbf9f1a6ce" y="41.472"/>
      </g>
     </g>
     <g id="text_19">
      <!-- 600K -->
      <g transform="translate(263.351094 32.392313)scale(0.1 -0.1)">
       <use xlink:href="#DejaVuSans-54"/>
       <use x="63.623047" xlink:href="#DejaVuSans-48"/>
       <use x="127.246094" xlink:href="#DejaVuSans-48"/>
       <use x="190.869141" xlink:href="#DejaVuSans-75"/>
      </g>
     </g>
    </g>
    <g id="xtick_10">
     <g id="line2d_34">
      <g>
       <use style="stroke:#000000;stroke-width:0.8;" x="349.031667" xlink:href="#mcbf9f1a6ce" y="41.472"/>
      </g>
     </g>
     <g id="text_20">
      <!-- 800K -->
      <g transform="translate(336.20901 32.392313)scale(0.1 -0.1)">
       <use xlink:href="#DejaVuSans-56"/>
       <use x="63.623047" xlink:href="#DejaVuSans-48"/>
       <use x="127.246094" xlink:href="#DejaVuSans-48"/>
       <use x="190.869141" xlink:href="#DejaVuSans-75"/>
      </g>
     </g>
    </g>
    <g id="text_21">
     <!-- Steps -->
     <defs>
      <path d="M 53.515625 70.515625 
L 53.515625 60.890625 
Q 47.90625 63.578125 42.921875 64.890625 
Q 37.9375 66.21875 33.296875 66.21875 
Q 25.25 66.21875 20.875 63.09375 
Q 16.5 59.96875 16.5 54.203125 
Q 16.5 49.359375 19.40625 46.890625 
Q 22.3125 44.4375 30.421875 42.921875 
L 36.375 41.703125 
Q 47.40625 39.59375 52.65625 34.296875 
Q 57.90625 29 57.90625 20.125 
Q 57.90625 9.515625 50.796875 4.046875 
Q 43.703125 -1.421875 29.984375 -1.421875 
Q 24.8125 -1.421875 18.96875 -0.25 
Q 13.140625 0.921875 6.890625 3.21875 
L 6.890625 13.375 
Q 12.890625 10.015625 18.65625 8.296875 
Q 24.421875 6.59375 29.984375 6.59375 
Q 38.421875 6.59375 43.015625 9.90625 
Q 47.609375 13.234375 47.609375 19.390625 
Q 47.609375 24.75 44.3125 27.78125 
Q 41.015625 30.8125 33.5 32.328125 
L 27.484375 33.5 
Q 16.453125 35.6875 11.515625 40.375 
Q 6.59375 45.0625 6.59375 53.421875 
Q 6.59375 63.09375 13.40625 68.65625 
Q 20.21875 74.21875 32.171875 74.21875 
Q 37.3125 74.21875 42.625 73.28125 
Q 47.953125 72.359375 53.515625 70.515625 
z
" id="DejaVuSans-83"/>
      <path d="M 56.203125 29.59375 
L 56.203125 25.203125 
L 14.890625 25.203125 
Q 15.484375 15.921875 20.484375 11.0625 
Q 25.484375 6.203125 34.421875 6.203125 
Q 39.59375 6.203125 44.453125 7.46875 
Q 49.3125 8.734375 54.109375 11.28125 
L 54.109375 2.78125 
Q 49.265625 0.734375 44.1875 -0.34375 
Q 39.109375 -1.421875 33.890625 -1.421875 
Q 20.796875 -1.421875 13.15625 6.1875 
Q 5.515625 13.8125 5.515625 26.8125 
Q 5.515625 40.234375 12.765625 48.109375 
Q 20.015625 56 32.328125 56 
Q 43.359375 56 49.78125 48.890625 
Q 56.203125 41.796875 56.203125 29.59375 
z
M 47.21875 32.234375 
Q 47.125 39.59375 43.09375 43.984375 
Q 39.0625 48.390625 32.421875 48.390625 
Q 24.90625 48.390625 20.390625 44.140625 
Q 15.875 39.890625 15.1875 32.171875 
z
" id="DejaVuSans-101"/>
     </defs>
     <g transform="translate(222.170156 20.793875)scale(0.1 -0.1)">
      <use xlink:href="#DejaVuSans-83"/>
      <use x="63.476562" xlink:href="#DejaVuSans-116"/>
      <use x="102.685547" xlink:href="#DejaVuSans-101"/>
      <use x="164.208984" xlink:href="#DejaVuSans-112"/>
      <use x="227.685547" xlink:href="#DejaVuSans-115"/>
     </g>
    </g>
   </g>
   <g id="patch_7">
    <path d="M 57.6 307.584 
L 57.6 41.472 
" style="fill:none;stroke:#000000;stroke-linecap:square;stroke-linejoin:miter;stroke-width:0.8;"/>
   </g>
   <g id="patch_8">
    <path d="M 414.72 307.584 
L 414.72 41.472 
" style="fill:none;stroke:#000000;stroke-linecap:square;stroke-linejoin:miter;stroke-width:0.8;"/>
   </g>
   <g id="patch_9">
    <path d="M 57.6 307.584 
L 414.72 307.584 
" style="fill:none;stroke:#000000;stroke-linecap:square;stroke-linejoin:miter;stroke-width:0.8;"/>
   </g>
   <g id="patch_10">
    <path d="M 57.6 41.472 
L 414.72 41.472 
" style="fill:none;stroke:#000000;stroke-linecap:square;stroke-linejoin:miter;stroke-width:0.8;"/>
   </g>
  </g>
 </g>
 <defs>
  <clipPath id="p17d6a2e4fa">
   <rect height="266.112" width="357.12" x="57.6" y="41.472"/>
  </clipPath>
 </defs>
</svg>
