<?xml version="1.0" encoding="utf-8" standalone="no"?>
<!DOCTYPE svg PUBLIC "-//W3C//DTD SVG 1.1//EN"
  "http://www.w3.org/Graphics/SVG/1.1/DTD/svg11.dtd">
<!-- Created with matplotlib (https://matplotlib.org/) -->
<svg height="345.6pt" version="1.1" viewBox="0 0 460.8 345.6" width="460.8pt" xmlns="http://www.w3.org/2000/svg" xmlns:xlink="http://www.w3.org/1999/xlink">
 <defs>
  <style type="text/css">
*{stroke-linecap:butt;stroke-linejoin:round;}
  </style>
 </defs>
 <g id="figure_1">
  <g id="patch_1">
   <path d="M 0 345.6 
L 460.8 345.6 
L 460.8 0 
L 0 0 
z
" style="fill:#ffffff;"/>
  </g>
  <g id="axes_1">
   <g id="patch_2">
    <path d="M 57.6 307.584 
L 414.72 307.584 
L 414.72 41.472 
L 57.6 41.472 
z
" style="fill:#ffffff;"/>
   </g>
   <g id="matplotlib.axis_1">
    <g id="xtick_1">
     <g id="line2d_1">
      <path clip-path="url(#pfd40af3899)" d="M 57.6 307.584 
L 57.6 41.472 
" style="fill:none;stroke:#b0b0b0;stroke-linecap:square;stroke-width:0.8;"/>
     </g>
     <g id="line2d_2">
      <defs>
       <path d="M 0 0 
L 0 3.5 
" id="m56ed93c2b1" style="stroke:#000000;stroke-width:0.8;"/>
      </defs>
      <g>
       <use style="stroke:#000000;stroke-width:0.8;" x="57.6" xlink:href="#m56ed93c2b1" y="307.584"/>
      </g>
     </g>
     <g id="text_1">
      <!-- 0.0 -->
      <defs>
       <path d="M 31.78125 66.40625 
Q 24.171875 66.40625 20.328125 58.90625 
Q 16.5 51.421875 16.5 36.375 
Q 16.5 21.390625 20.328125 13.890625 
Q 24.171875 6.390625 31.78125 6.390625 
Q 39.453125 6.390625 43.28125 13.890625 
Q 47.125 21.390625 47.125 36.375 
Q 47.125 51.421875 43.28125 58.90625 
Q 39.453125 66.40625 31.78125 66.40625 
z
M 31.78125 74.21875 
Q 44.046875 74.21875 50.515625 64.515625 
Q 56.984375 54.828125 56.984375 36.375 
Q 56.984375 17.96875 50.515625 8.265625 
Q 44.046875 -1.421875 31.78125 -1.421875 
Q 19.53125 -1.421875 13.0625 8.265625 
Q 6.59375 17.96875 6.59375 36.375 
Q 6.59375 54.828125 13.0625 64.515625 
Q 19.53125 74.21875 31.78125 74.21875 
z
" id="DejaVuSans-48"/>
       <path d="M 10.6875 12.40625 
L 21 12.40625 
L 21 0 
L 10.6875 0 
z
" id="DejaVuSans-46"/>
      </defs>
      <g transform="translate(49.648438 322.182437)scale(0.1 -0.1)">
       <use xlink:href="#DejaVuSans-48"/>
       <use x="63.623047" xlink:href="#DejaVuSans-46"/>
       <use x="95.410156" xlink:href="#DejaVuSans-48"/>
      </g>
     </g>
    </g>
    <g id="xtick_2">
     <g id="line2d_3">
      <path clip-path="url(#pfd40af3899)" d="M 130.631784 307.584 
L 130.631784 41.472 
" style="fill:none;stroke:#b0b0b0;stroke-linecap:square;stroke-width:0.8;"/>
     </g>
     <g id="line2d_4">
      <g>
       <use style="stroke:#000000;stroke-width:0.8;" x="130.631784" xlink:href="#m56ed93c2b1" y="307.584"/>
      </g>
     </g>
     <g id="text_2">
      <!-- 0.5 -->
      <defs>
       <path d="M 10.796875 72.90625 
L 49.515625 72.90625 
L 49.515625 64.59375 
L 19.828125 64.59375 
L 19.828125 46.734375 
Q 21.96875 47.46875 24.109375 47.828125 
Q 26.265625 48.1875 28.421875 48.1875 
Q 40.625 48.1875 47.75 41.5 
Q 54.890625 34.8125 54.890625 23.390625 
Q 54.890625 11.625 47.5625 5.09375 
Q 40.234375 -1.421875 26.90625 -1.421875 
Q 22.3125 -1.421875 17.546875 -0.640625 
Q 12.796875 0.140625 7.71875 1.703125 
L 7.71875 11.625 
Q 12.109375 9.234375 16.796875 8.0625 
Q 21.484375 6.890625 26.703125 6.890625 
Q 35.15625 6.890625 40.078125 11.328125 
Q 45.015625 15.765625 45.015625 23.390625 
Q 45.015625 31 40.078125 35.4375 
Q 35.15625 39.890625 26.703125 39.890625 
Q 22.75 39.890625 18.8125 39.015625 
Q 14.890625 38.140625 10.796875 36.28125 
z
" id="DejaVuSans-53"/>
      </defs>
      <g transform="translate(122.680222 322.182437)scale(0.1 -0.1)">
       <use xlink:href="#DejaVuSans-48"/>
       <use x="63.623047" xlink:href="#DejaVuSans-46"/>
       <use x="95.410156" xlink:href="#DejaVuSans-53"/>
      </g>
     </g>
    </g>
    <g id="xtick_3">
     <g id="line2d_5">
      <path clip-path="url(#pfd40af3899)" d="M 203.663568 307.584 
L 203.663568 41.472 
" style="fill:none;stroke:#b0b0b0;stroke-linecap:square;stroke-width:0.8;"/>
     </g>
     <g id="line2d_6">
      <g>
       <use style="stroke:#000000;stroke-width:0.8;" x="203.663568" xlink:href="#m56ed93c2b1" y="307.584"/>
      </g>
     </g>
     <g id="text_3">
      <!-- 1.0 -->
      <defs>
       <path d="M 12.40625 8.296875 
L 28.515625 8.296875 
L 28.515625 63.921875 
L 10.984375 60.40625 
L 10.984375 69.390625 
L 28.421875 72.90625 
L 38.28125 72.90625 
L 38.28125 8.296875 
L 54.390625 8.296875 
L 54.390625 0 
L 12.40625 0 
z
" id="DejaVuSans-49"/>
      </defs>
      <g transform="translate(195.712006 322.182437)scale(0.1 -0.1)">
       <use xlink:href="#DejaVuSans-49"/>
       <use x="63.623047" xlink:href="#DejaVuSans-46"/>
       <use x="95.410156" xlink:href="#DejaVuSans-48"/>
      </g>
     </g>
    </g>
    <g id="xtick_4">
     <g id="line2d_7">
      <path clip-path="url(#pfd40af3899)" d="M 276.695352 307.584 
L 276.695352 41.472 
" style="fill:none;stroke:#b0b0b0;stroke-linecap:square;stroke-width:0.8;"/>
     </g>
     <g id="line2d_8">
      <g>
       <use style="stroke:#000000;stroke-width:0.8;" x="276.695352" xlink:href="#m56ed93c2b1" y="307.584"/>
      </g>
     </g>
     <g id="text_4">
      <!-- 1.5 -->
      <g transform="translate(268.74379 322.182437)scale(0.1 -0.1)">
       <use xlink:href="#DejaVuSans-49"/>
       <use x="63.623047" xlink:href="#DejaVuSans-46"/>
       <use x="95.410156" xlink:href="#DejaVuSans-53"/>
      </g>
     </g>
    </g>
    <g id="xtick_5">
     <g id="line2d_9">
      <path clip-path="url(#pfd40af3899)" d="M 349.727137 307.584 
L 349.727137 41.472 
" style="fill:none;stroke:#b0b0b0;stroke-linecap:square;stroke-width:0.8;"/>
     </g>
     <g id="line2d_10">
      <g>
       <use style="stroke:#000000;stroke-width:0.8;" x="349.727137" xlink:href="#m56ed93c2b1" y="307.584"/>
      </g>
     </g>
     <g id="text_5">
      <!-- 2.0 -->
      <defs>
       <path d="M 19.1875 8.296875 
L 53.609375 8.296875 
L 53.609375 0 
L 7.328125 0 
L 7.328125 8.296875 
Q 12.9375 14.109375 22.625 23.890625 
Q 32.328125 33.6875 34.8125 36.53125 
Q 39.546875 41.84375 41.421875 45.53125 
Q 43.3125 49.21875 43.3125 52.78125 
Q 43.3125 58.59375 39.234375 62.25 
Q 35.15625 65.921875 28.609375 65.921875 
Q 23.96875 65.921875 18.8125 64.3125 
Q 13.671875 62.703125 7.8125 59.421875 
L 7.8125 69.390625 
Q 13.765625 71.78125 18.9375 73 
Q 24.125 74.21875 28.421875 74.21875 
Q 39.75 74.21875 46.484375 68.546875 
Q 53.21875 62.890625 53.21875 53.421875 
Q 53.21875 48.921875 51.53125 44.890625 
Q 49.859375 40.875 45.40625 35.40625 
Q 44.1875 33.984375 37.640625 27.21875 
Q 31.109375 20.453125 19.1875 8.296875 
z
" id="DejaVuSans-50"/>
      </defs>
      <g transform="translate(341.775574 322.182437)scale(0.1 -0.1)">
       <use xlink:href="#DejaVuSans-50"/>
       <use x="63.623047" xlink:href="#DejaVuSans-46"/>
       <use x="95.410156" xlink:href="#DejaVuSans-48"/>
      </g>
     </g>
    </g>
    <g id="text_6">
     <!-- Hours -->
     <defs>
      <path d="M 9.8125 72.90625 
L 19.671875 72.90625 
L 19.671875 43.015625 
L 55.515625 43.015625 
L 55.515625 72.90625 
L 65.375 72.90625 
L 65.375 0 
L 55.515625 0 
L 55.515625 34.71875 
L 19.671875 34.71875 
L 19.671875 0 
L 9.8125 0 
z
" id="DejaVuSans-72"/>
      <path d="M 30.609375 48.390625 
Q 23.390625 48.390625 19.1875 42.75 
Q 14.984375 37.109375 14.984375 27.296875 
Q 14.984375 17.484375 19.15625 11.84375 
Q 23.34375 6.203125 30.609375 6.203125 
Q 37.796875 6.203125 41.984375 11.859375 
Q 46.1875 17.53125 46.1875 27.296875 
Q 46.1875 37.015625 41.984375 42.703125 
Q 37.796875 48.390625 30.609375 48.390625 
z
M 30.609375 56 
Q 42.328125 56 49.015625 48.375 
Q 55.71875 40.765625 55.71875 27.296875 
Q 55.71875 13.875 49.015625 6.21875 
Q 42.328125 -1.421875 30.609375 -1.421875 
Q 18.84375 -1.421875 12.171875 6.21875 
Q 5.515625 13.875 5.515625 27.296875 
Q 5.515625 40.765625 12.171875 48.375 
Q 18.84375 56 30.609375 56 
z
" id="DejaVuSans-111"/>
      <path d="M 8.5 21.578125 
L 8.5 54.6875 
L 17.484375 54.6875 
L 17.484375 21.921875 
Q 17.484375 14.15625 20.5 10.265625 
Q 23.53125 6.390625 29.59375 6.390625 
Q 36.859375 6.390625 41.078125 11.03125 
Q 45.3125 15.671875 45.3125 23.6875 
L 45.3125 54.6875 
L 54.296875 54.6875 
L 54.296875 0 
L 45.3125 0 
L 45.3125 8.40625 
Q 42.046875 3.421875 37.71875 1 
Q 33.40625 -1.421875 27.6875 -1.421875 
Q 18.265625 -1.421875 13.375 4.4375 
Q 8.5 10.296875 8.5 21.578125 
z
M 31.109375 56 
z
" id="DejaVuSans-117"/>
      <path d="M 41.109375 46.296875 
Q 39.59375 47.171875 37.8125 47.578125 
Q 36.03125 48 33.890625 48 
Q 26.265625 48 22.1875 43.046875 
Q 18.109375 38.09375 18.109375 28.8125 
L 18.109375 0 
L 9.078125 0 
L 9.078125 54.6875 
L 18.109375 54.6875 
L 18.109375 46.1875 
Q 20.953125 51.171875 25.484375 53.578125 
Q 30.03125 56 36.53125 56 
Q 37.453125 56 38.578125 55.875 
Q 39.703125 55.765625 41.0625 55.515625 
z
" id="DejaVuSans-114"/>
      <path d="M 44.28125 53.078125 
L 44.28125 44.578125 
Q 40.484375 46.53125 36.375 47.5 
Q 32.28125 48.484375 27.875 48.484375 
Q 21.1875 48.484375 17.84375 46.4375 
Q 14.5 44.390625 14.5 40.28125 
Q 14.5 37.15625 16.890625 35.375 
Q 19.28125 33.59375 26.515625 31.984375 
L 29.59375 31.296875 
Q 39.15625 29.25 43.1875 25.515625 
Q 47.21875 21.78125 47.21875 15.09375 
Q 47.21875 7.46875 41.1875 3.015625 
Q 35.15625 -1.421875 24.609375 -1.421875 
Q 20.21875 -1.421875 15.453125 -0.5625 
Q 10.6875 0.296875 5.421875 2 
L 5.421875 11.28125 
Q 10.40625 8.6875 15.234375 7.390625 
Q 20.0625 6.109375 24.8125 6.109375 
Q 31.15625 6.109375 34.5625 8.28125 
Q 37.984375 10.453125 37.984375 14.40625 
Q 37.984375 18.0625 35.515625 20.015625 
Q 33.0625 21.96875 24.703125 23.78125 
L 21.578125 24.515625 
Q 13.234375 26.265625 9.515625 29.90625 
Q 5.8125 33.546875 5.8125 39.890625 
Q 5.8125 47.609375 11.28125 51.796875 
Q 16.75 56 26.8125 56 
Q 31.78125 56 36.171875 55.265625 
Q 40.578125 54.546875 44.28125 53.078125 
z
" id="DejaVuSans-115"/>
     </defs>
     <g transform="translate(221.511562 335.860562)scale(0.1 -0.1)">
      <use xlink:href="#DejaVuSans-72"/>
      <use x="75.195312" xlink:href="#DejaVuSans-111"/>
      <use x="136.376953" xlink:href="#DejaVuSans-117"/>
      <use x="199.755859" xlink:href="#DejaVuSans-114"/>
      <use x="240.869141" xlink:href="#DejaVuSans-115"/>
     </g>
    </g>
   </g>
   <g id="matplotlib.axis_2">
    <g id="ytick_1">
     <g id="line2d_11">
      <path clip-path="url(#pfd40af3899)" d="M 57.6 295.507655 
L 414.72 295.507655 
" style="fill:none;stroke:#b0b0b0;stroke-linecap:square;stroke-width:0.8;"/>
     </g>
     <g id="line2d_12">
      <defs>
       <path d="M 0 0 
L -3.5 0 
" id="mb1a13a0205" style="stroke:#000000;stroke-width:0.8;"/>
      </defs>
      <g>
       <use style="stroke:#000000;stroke-width:0.8;" x="57.6" xlink:href="#mb1a13a0205" y="295.507655"/>
      </g>
     </g>
     <g id="text_7">
      <!-- 0.0 -->
      <g transform="translate(34.696875 299.306874)scale(0.1 -0.1)">
       <use xlink:href="#DejaVuSans-48"/>
       <use x="63.623047" xlink:href="#DejaVuSans-46"/>
       <use x="95.410156" xlink:href="#DejaVuSans-48"/>
      </g>
     </g>
    </g>
    <g id="ytick_2">
     <g id="line2d_13">
      <path clip-path="url(#pfd40af3899)" d="M 57.6 242.313804 
L 414.72 242.313804 
" style="fill:none;stroke:#b0b0b0;stroke-linecap:square;stroke-width:0.8;"/>
     </g>
     <g id="line2d_14">
      <g>
       <use style="stroke:#000000;stroke-width:0.8;" x="57.6" xlink:href="#mb1a13a0205" y="242.313804"/>
      </g>
     </g>
     <g id="text_8">
      <!-- 0.2 -->
      <g transform="translate(34.696875 246.113022)scale(0.1 -0.1)">
       <use xlink:href="#DejaVuSans-48"/>
       <use x="63.623047" xlink:href="#DejaVuSans-46"/>
       <use x="95.410156" xlink:href="#DejaVuSans-50"/>
      </g>
     </g>
    </g>
    <g id="ytick_3">
     <g id="line2d_15">
      <path clip-path="url(#pfd40af3899)" d="M 57.6 189.119952 
L 414.72 189.119952 
" style="fill:none;stroke:#b0b0b0;stroke-linecap:square;stroke-width:0.8;"/>
     </g>
     <g id="line2d_16">
      <g>
       <use style="stroke:#000000;stroke-width:0.8;" x="57.6" xlink:href="#mb1a13a0205" y="189.119952"/>
      </g>
     </g>
     <g id="text_9">
      <!-- 0.4 -->
      <defs>
       <path d="M 37.796875 64.3125 
L 12.890625 25.390625 
L 37.796875 25.390625 
z
M 35.203125 72.90625 
L 47.609375 72.90625 
L 47.609375 25.390625 
L 58.015625 25.390625 
L 58.015625 17.1875 
L 47.609375 17.1875 
L 47.609375 0 
L 37.796875 0 
L 37.796875 17.1875 
L 4.890625 17.1875 
L 4.890625 26.703125 
z
" id="DejaVuSans-52"/>
      </defs>
      <g transform="translate(34.696875 192.919171)scale(0.1 -0.1)">
       <use xlink:href="#DejaVuSans-48"/>
       <use x="63.623047" xlink:href="#DejaVuSans-46"/>
       <use x="95.410156" xlink:href="#DejaVuSans-52"/>
      </g>
     </g>
    </g>
    <g id="ytick_4">
     <g id="line2d_17">
      <path clip-path="url(#pfd40af3899)" d="M 57.6 135.926101 
L 414.72 135.926101 
" style="fill:none;stroke:#b0b0b0;stroke-linecap:square;stroke-width:0.8;"/>
     </g>
     <g id="line2d_18">
      <g>
       <use style="stroke:#000000;stroke-width:0.8;" x="57.6" xlink:href="#mb1a13a0205" y="135.926101"/>
      </g>
     </g>
     <g id="text_10">
      <!-- 0.6 -->
      <defs>
       <path d="M 33.015625 40.375 
Q 26.375 40.375 22.484375 35.828125 
Q 18.609375 31.296875 18.609375 23.390625 
Q 18.609375 15.53125 22.484375 10.953125 
Q 26.375 6.390625 33.015625 6.390625 
Q 39.65625 6.390625 43.53125 10.953125 
Q 47.40625 15.53125 47.40625 23.390625 
Q 47.40625 31.296875 43.53125 35.828125 
Q 39.65625 40.375 33.015625 40.375 
z
M 52.59375 71.296875 
L 52.59375 62.3125 
Q 48.875 64.0625 45.09375 64.984375 
Q 41.3125 65.921875 37.59375 65.921875 
Q 27.828125 65.921875 22.671875 59.328125 
Q 17.53125 52.734375 16.796875 39.40625 
Q 19.671875 43.65625 24.015625 45.921875 
Q 28.375 48.1875 33.59375 48.1875 
Q 44.578125 48.1875 50.953125 41.515625 
Q 57.328125 34.859375 57.328125 23.390625 
Q 57.328125 12.15625 50.6875 5.359375 
Q 44.046875 -1.421875 33.015625 -1.421875 
Q 20.359375 -1.421875 13.671875 8.265625 
Q 6.984375 17.96875 6.984375 36.375 
Q 6.984375 53.65625 15.1875 63.9375 
Q 23.390625 74.21875 37.203125 74.21875 
Q 40.921875 74.21875 44.703125 73.484375 
Q 48.484375 72.75 52.59375 71.296875 
z
" id="DejaVuSans-54"/>
      </defs>
      <g transform="translate(34.696875 139.72532)scale(0.1 -0.1)">
       <use xlink:href="#DejaVuSans-48"/>
       <use x="63.623047" xlink:href="#DejaVuSans-46"/>
       <use x="95.410156" xlink:href="#DejaVuSans-54"/>
      </g>
     </g>
    </g>
    <g id="ytick_5">
     <g id="line2d_19">
      <path clip-path="url(#pfd40af3899)" d="M 57.6 82.73225 
L 414.72 82.73225 
" style="fill:none;stroke:#b0b0b0;stroke-linecap:square;stroke-width:0.8;"/>
     </g>
     <g id="line2d_20">
      <g>
       <use style="stroke:#000000;stroke-width:0.8;" x="57.6" xlink:href="#mb1a13a0205" y="82.73225"/>
      </g>
     </g>
     <g id="text_11">
      <!-- 0.8 -->
      <defs>
       <path d="M 31.78125 34.625 
Q 24.75 34.625 20.71875 30.859375 
Q 16.703125 27.09375 16.703125 20.515625 
Q 16.703125 13.921875 20.71875 10.15625 
Q 24.75 6.390625 31.78125 6.390625 
Q 38.8125 6.390625 42.859375 10.171875 
Q 46.921875 13.96875 46.921875 20.515625 
Q 46.921875 27.09375 42.890625 30.859375 
Q 38.875 34.625 31.78125 34.625 
z
M 21.921875 38.8125 
Q 15.578125 40.375 12.03125 44.71875 
Q 8.5 49.078125 8.5 55.328125 
Q 8.5 64.0625 14.71875 69.140625 
Q 20.953125 74.21875 31.78125 74.21875 
Q 42.671875 74.21875 48.875 69.140625 
Q 55.078125 64.0625 55.078125 55.328125 
Q 55.078125 49.078125 51.53125 44.71875 
Q 48 40.375 41.703125 38.8125 
Q 48.828125 37.15625 52.796875 32.3125 
Q 56.78125 27.484375 56.78125 20.515625 
Q 56.78125 9.90625 50.3125 4.234375 
Q 43.84375 -1.421875 31.78125 -1.421875 
Q 19.734375 -1.421875 13.25 4.234375 
Q 6.78125 9.90625 6.78125 20.515625 
Q 6.78125 27.484375 10.78125 32.3125 
Q 14.796875 37.15625 21.921875 38.8125 
z
M 18.3125 54.390625 
Q 18.3125 48.734375 21.84375 45.5625 
Q 25.390625 42.390625 31.78125 42.390625 
Q 38.140625 42.390625 41.71875 45.5625 
Q 45.3125 48.734375 45.3125 54.390625 
Q 45.3125 60.0625 41.71875 63.234375 
Q 38.140625 66.40625 31.78125 66.40625 
Q 25.390625 66.40625 21.84375 63.234375 
Q 18.3125 60.0625 18.3125 54.390625 
z
" id="DejaVuSans-56"/>
      </defs>
      <g transform="translate(34.696875 86.531468)scale(0.1 -0.1)">
       <use xlink:href="#DejaVuSans-48"/>
       <use x="63.623047" xlink:href="#DejaVuSans-46"/>
       <use x="95.410156" xlink:href="#DejaVuSans-56"/>
      </g>
     </g>
    </g>
    <g id="text_12">
     <!-- Loss -->
     <defs>
      <path d="M 9.8125 72.90625 
L 19.671875 72.90625 
L 19.671875 8.296875 
L 55.171875 8.296875 
L 55.171875 0 
L 9.8125 0 
z
" id="DejaVuSans-76"/>
     </defs>
     <g transform="translate(28.617188 185.581906)rotate(-90)scale(0.1 -0.1)">
      <use xlink:href="#DejaVuSans-76"/>
      <use x="55.697266" xlink:href="#DejaVuSans-111"/>
      <use x="116.878906" xlink:href="#DejaVuSans-115"/>
      <use x="168.978516" xlink:href="#DejaVuSans-115"/>
     </g>
    </g>
   </g>
   <g id="line2d_21">
    <path clip-path="url(#pfd40af3899)" d="M 57.6 295.401222 
L 58.595538 294.028321 
L 58.99888 292.519095 
L 59.080616 292.679784 
L 59.605775 292.402719 
L 61.213958 293.916751 
L 61.292689 293.799552 
L 61.528425 294.317771 
L 63.314738 295.029206 
L 66.853987 295.16829 
L 72.645408 295.126175 
L 72.671549 295.064717 
L 76.028031 295.078601 
L 77.485163 295.173657 
L 77.537839 295.147507 
L 78.385692 295.23089 
L 79.287589 295.241186 
L 86.392813 295.414407 
L 96.305999 295.473845 
L 102.709586 295.482544 
L 110.541853 295.486086 
L 110.993248 295.032886 
L 111.150451 295.479556 
L 115.701693 295.471901 
L 115.807513 294.513999 
L 116.346719 294.603528 
L 116.558708 295.475848 
L 117.670398 295.415716 
L 118.098507 294.77419 
L 118.372286 295.168302 
L 118.691295 292.796167 
L 119.383581 295.414739 
L 119.621366 295.314622 
L 120.554833 295.327153 
L 120.581311 293.644898 
L 120.634234 295.012323 
L 121.827191 294.523629 
L 122.04024 295.25221 
L 122.338348 294.262719 
L 122.470562 292.762839 
L 123.179205 292.5378 
L 123.499293 293.696417 
L 123.636039 295.391149 
L 124.013506 294.406203 
L 124.170825 295.019596 
L 124.412727 292.005279 
L 124.817769 295.114311 
L 124.923462 290.764377 
L 124.976885 291.008974 
L 125.643588 290.75096 
L 126.262619 292.395588 
L 126.420022 292.401715 
L 126.871738 291.732705 
L 127.04645 293.092532 
L 127.747779 289.429701 
L 128.375698 285.288414 
L 128.564612 288.894605 
L 128.709868 282.386533 
L 129.267962 285.669121 
L 129.670334 283.676404 
L 130.080015 286.579581 
L 130.45405 279.963082 
L 131.409424 286.853537 
L 131.46338 280.938349 
L 133.679472 281.094457 
L 133.943789 264.160412 
L 134.182099 259.542973 
L 134.341613 272.501111 
L 135.040581 280.038184 
L 136.312493 253.634587 
L 136.522556 273.713527 
L 137.154582 272.716341 
L 137.53436 220.196712 
L 137.962275 250.058776 
L 138.047003 272.873453 
L 138.258035 266.064077 
L 138.33738 251.969506 
L 139.000973 255.776958 
L 139.105314 262.121742 
L 139.925917 253.040151 
L 140.576232 240.221956 
L 140.986809 248.459223 
L 141.493651 229.388418 
L 141.652153 250.769145 
L 142.567588 257.779573 
L 142.595549 224.426649 
L 143.595871 235.62296 
L 143.85818 210.457451 
L 143.937693 263.310016 
L 143.96442 243.896686 
L 144.018144 239.405558 
L 144.04548 242.983247 
L 144.724788 245.514738 
L 145.644883 237.036073 
L 146.273672 173.831418 
L 146.769934 244.593092 
L 147.630082 250.121795 
L 148.547498 182.526076 
L 149.139544 161.935086 
L 149.669322 198.410801 
L 149.928094 146.877127 
L 150.086484 225.833548 
L 150.51395 185.697454 
L 150.982459 230.496011 
L 151.356034 167.94045 
L 151.434916 228.175052 
L 152.098823 241.073369 
L 152.822249 209.814572 
L 153.274931 159.481945 
L 153.858932 198.20304 
L 154.353932 145.521537 
L 154.460267 201.754501 
L 154.621663 178.859158 
L 155.382224 190.15986 
L 155.753647 214.257614 
L 157.339643 200.84568 
L 157.461911 205.21667 
L 157.671676 164.601982 
L 157.751013 193.17935 
L 158.576478 191.03493 
L 158.798241 146.441312 
L 159.2902 200.681847 
L 159.781743 205.189553 
L 159.912139 153.823089 
L 159.96487 191.459569 
L 160.228822 97.17996 
L 160.334323 185.295033 
L 161.116589 138.022417 
L 161.249243 192.278646 
L 161.440668 163.537468 
L 162.868115 132.552385 
L 163.069693 183.308929 
L 163.193183 174.441576 
L 163.488177 137.278641 
L 163.806536 184.353246 
L 164.41332 170.733852 
L 164.873802 182.773391 
L 165.116644 196.091975 
L 165.143786 133.955154 
L 165.476548 204.898334 
L 165.888251 151.345391 
L 167.449811 189.426944 
L 167.581849 53.568 
L 167.608394 96.427577 
L 167.912671 179.046485 
L 169.886418 229.912094 
L 170.278447 108.536148 
L 170.464971 164.977405 
L 170.491781 71.690139 
L 171.156125 134.087622 
L 171.298642 209.432039 
L 171.386861 131.9887 
L 171.597878 96.057108 
L 172.228726 176.112752 
L 172.630497 211.377813 
L 173.066147 162.687383 
L 173.279543 176.684356 
L 173.686158 111.218381 
L 174.028159 206.670914 
L 174.323211 125.640872 
L 175.060472 127.81527 
L 175.296883 134.256345 
L 175.694327 106.41573 
L 176.091099 95.205802 
L 176.198674 195.94493 
L 176.781032 128.586456 
L 176.865135 142.639112 
L 177.996001 175.068784 
L 178.476127 184.739481 
L 179.023049 142.4916 
L 179.049229 118.256401 
L 179.577304 141.628198 
L 179.662037 137.728328 
L 179.902813 173.516529 
L 180.197045 168.498269 
L 180.895448 122.436901 
L 180.974077 67.02479 
L 181.342974 148.92161 
L 181.395141 187.474686 
L 181.447578 159.068071 
L 182.257705 101.041768 
L 183.025835 105.86655 
L 183.24534 64.959413 
L 183.351195 147.993987 
L 183.56411 216.540874 
L 183.863344 118.253516 
L 184.651652 128.362342 
L 184.783009 131.926113 
L 185.204439 130.98809 
L 185.623266 189.571769 
L 185.832705 173.026711 
L 186.069766 181.313924 
L 186.314301 203.599846 
L 186.627263 147.281395 
L 186.659912 117.884807 
L 186.865275 133.518166 
L 187.102466 61.095799 
L 187.250329 185.42911 
L 188.170213 150.810828 
L 188.48707 159.4838 
L 188.998304 128.668685 
L 189.640345 176.06463 
L 190.247013 145.895129 
L 190.882261 92.612869 
L 191.30918 108.191646 
L 191.529566 212.520592 
L 191.773671 184.401281 
L 191.855587 186.681172 
L 191.910383 112.973943 
L 193.326114 131.830614 
L 193.404523 168.575584 
L 193.933876 170.891177 
L 193.988619 167.936249 
L 194.016256 94.694812 
L 194.21764 137.186424 
L 194.705359 171.85802 
L 195.485635 163.059381 
L 196.010676 86.771243 
L 196.063194 114.542581 
L 196.221182 108.995029 
L 197.053002 174.446697 
L 197.553463 126.48487 
L 198.081306 141.067842 
L 198.292851 175.83649 
L 199.116568 146.903301 
L 199.892628 63.665776 
L 200.507458 124.71818 
L 201.354864 172.926671 
L 201.656466 74.909915 
L 202.131767 176.37909 
L 202.502426 162.769882 
L 202.528711 94.770034 
L 203.060348 154.80003 
L 204.159895 148.370877 
L 204.78172 227.742281 
L 204.913327 209.433521 
L 205.894897 129.277615 
L 206.082766 199.93116 
L 206.191341 186.690922 
L 206.411188 138.784011 
L 206.57505 143.497251 
L 206.809101 156.474916 
L 206.866469 190.943355 
L 207.731362 153.760723 
L 208.701031 199.794911 
L 208.753692 147.685583 
L 208.913467 159.579726 
L 209.297419 136.566413 
L 209.976969 136.070896 
L 210.717143 154.12195 
L 210.770096 99.794279 
L 210.876515 153.268583 
L 211.278601 169.736333 
L 212.489405 190.823618 
L 212.56791 152.015656 
L 213.04346 139.907164 
L 213.516702 183.350219 
L 213.965517 166.404048 
L 214.044499 214.636057 
L 214.177189 216.815488 
L 214.31001 167.725578 
L 214.854552 144.618915 
L 214.881888 104.946441 
L 215.340592 157.344897 
L 215.422578 144.099538 
L 216.412967 159.538112 
L 216.471744 202.930659 
L 216.65739 171.860533 
L 217.373673 106.936564 
L 217.671091 162.529297 
L 218.247732 158.06846 
L 218.919929 195.511541 
L 219.072498 170.795869 
L 219.230007 163.891862 
L 219.943874 113.093855 
L 220.521146 176.328392 
L 220.65481 173.146481 
L 221.05608 135.320827 
L 221.190963 207.056887 
L 221.91541 201.646074 
L 222.398595 173.917793 
L 222.50446 124.059773 
L 222.63654 123.231105 
L 223.126184 193.799084 
L 223.17924 188.199866 
L 223.605842 152.76804 
L 223.817829 180.257195 
L 223.870833 171.172647 
L 223.924008 120.438868 
L 224.252196 197.930138 
L 224.365479 172.62586 
L 224.995467 108.800449 
L 225.233315 111.983098 
L 225.786486 172.589803 
L 226.079311 149.053729 
L 226.13252 184.36099 
L 226.293795 196.18217 
L 226.640562 201.662118 
L 227.132971 135.191895 
L 228.20252 179.925518 
L 228.880101 189.512487 
L 228.987889 155.71765 
L 229.0146 221.300295 
L 229.204723 214.572106 
L 229.677667 137.158618 
L 229.99999 209.667971 
L 230.476018 172.22168 
L 230.633324 175.325096 
L 231.313626 192.373629 
L 232.803996 154.768086 
L 232.924635 178.13871 
L 233.287439 175.143468 
L 233.892444 140.429663 
L 233.918897 201.498245 
L 234.088919 191.14262 
L 234.352776 203.325827 
L 234.618976 147.111942 
L 234.645401 217.826252 
L 234.671942 191.540554 
L 234.885763 181.727672 
L 235.424367 181.964753 
L 236.119197 164.467501 
L 236.30366 162.751302 
L 236.382466 170.359166 
L 236.947764 148.227486 
L 237.294144 142.584324 
L 237.426393 156.554387 
L 238.420316 214.894017 
L 238.703404 162.646292 
L 238.861481 188.336733 
L 239.018784 133.637 
L 239.097952 178.796951 
L 239.283178 191.802509 
L 239.496482 216.921053 
L 239.575615 165.929425 
L 239.978876 156.319636 
L 240.699789 187.026467 
L 240.809138 162.976898 
L 241.112249 202.524624 
L 241.42225 159.497735 
L 241.741213 220.423457 
L 243.275503 185.312083 
L 243.665542 214.279229 
L 244.295805 142.193278 
L 244.322259 219.239769 
L 245.021028 102.914419 
L 245.452992 170.492997 
L 246.203635 129.409432 
L 246.965454 171.493013 
L 247.044349 157.353584 
L 247.732901 179.886979 
L 248.265659 153.013286 
L 248.374458 209.09808 
L 249.085292 141.615722 
L 249.269568 195.927722 
L 249.768413 192.008574 
L 250.458877 160.127686 
L 250.915105 113.766577 
L 251.151584 213.542104 
L 251.736411 173.982774 
L 251.844291 203.688979 
L 252.249765 134.254332 
L 252.571497 205.807924 
L 252.784308 164.616836 
L 253.156119 198.725698 
L 253.317195 202.984298 
L 253.608923 175.465181 
L 253.860944 210.017332 
L 253.921558 181.257598 
L 253.950444 200.256083 
L 254.482086 233.696142 
L 254.561274 177.336208 
L 254.799423 174.915716 
L 255.79013 162.013781 
L 256.304531 200.035274 
L 256.597858 173.24962 
L 257.072869 207.351935 
L 257.336821 160.72268 
L 257.363095 177.215289 
L 257.714866 158.414975 
L 258.502154 212.522534 
L 258.609423 198.97956 
L 259.046082 219.333991 
L 259.851022 200.046126 
L 260.101632 129.826509 
L 260.369933 192.619771 
L 260.63887 179.574953 
L 260.66558 232.084966 
L 260.719009 197.430832 
L 260.852761 181.912375 
L 261.117969 186.203545 
L 261.826344 192.966634 
L 262.074326 200.173283 
L 262.605631 202.100651 
L 263.083691 167.116189 
L 264.396134 209.147042 
L 264.828643 179.458314 
L 264.910407 212.127755 
L 265.775047 212.542208 
L 265.801228 185.750506 
L 266.253961 179.829742 
L 266.519348 129.698242 
L 266.943001 186.685516 
L 267.101913 183.400718 
L 267.317714 189.705751 
L 267.817668 208.283418 
L 267.964503 134.370709 
L 268.108894 152.806816 
L 268.629247 183.896466 
L 268.919428 151.844523 
L 268.998866 216.574142 
L 269.534158 189.317448 
L 269.746029 214.296121 
L 270.016576 204.757924 
L 270.396573 166.447715 
L 271.01343 189.175936 
L 271.147121 159.037316 
L 272.796425 224.438476 
L 272.865537 128.63514 
L 272.970864 203.318772 
L 273.708882 217.90256 
L 274.850581 193.07866 
L 275.064428 183.239327 
L 275.282589 183.033484 
L 275.31061 139.269271 
L 276.309001 178.187363 
L 276.599365 223.912703 
L 276.916597 169.205686 
L 277.003753 191.680322 
L 277.373781 181.818985 
L 279.07416 231.526916 
L 279.715932 154.941693 
L 279.900018 175.810705 
L 280.505144 166.435247 
L 280.611023 170.955112 
L 280.981267 163.577521 
L 281.497885 213.49495 
L 281.659994 195.571275 
L 282.835202 133.186458 
L 283.25571 204.317916 
L 283.545005 190.74761 
L 283.782782 192.940643 
L 284.027374 185.518751 
L 284.561543 185.346239 
L 284.615736 189.864812 
L 284.697323 188.765287 
L 284.752142 107.91089 
L 284.931367 155.089982 
L 285.267682 148.554201 
L 285.477241 204.591348 
L 285.557417 136.621106 
L 285.688703 180.895928 
L 285.872984 190.564128 
L 285.92566 185.128299 
L 287.354062 202.707116 
L 287.66661 161.352013 
L 287.911834 203.441427 
L 288.444626 191.508602 
L 288.47087 226.254406 
L 288.523411 216.936407 
L 288.894383 215.858109 
L 289.000241 174.508317 
L 289.238799 125.131309 
L 289.265298 164.759798 
L 289.453533 182.710685 
L 289.561108 218.769759 
L 289.587943 218.041417 
L 289.995497 230.988065 
L 290.905432 112.304423 
L 291.222823 204.213896 
L 291.408512 161.398906 
L 291.539963 190.757146 
L 291.914154 209.166176 
L 292.199509 190.794297 
L 292.593492 185.807283 
L 292.883114 186.405608 
L 293.069681 175.653189 
L 293.096057 200.95096 
L 293.334648 206.109083 
L 294.391096 158.146377 
L 294.601458 138.977925 
L 294.627678 196.654764 
L 294.732957 170.311996 
L 295.629479 193.12262 
L 296.885349 237.271577 
L 297.001702 175.475556 
L 297.503454 182.954694 
L 297.695325 234.615224 
L 298.173704 204.827463 
L 298.253714 215.237813 
L 298.820575 138.654904 
L 299.1216 211.879267 
L 299.510331 180.151756 
L 299.796985 126.237278 
L 300.003935 219.377413 
L 300.504823 194.498114 
L 300.557759 154.656085 
L 300.636844 222.110304 
L 301.198889 223.733096 
L 301.251858 165.295693 
L 301.38474 205.193152 
L 301.678916 195.319775 
L 301.896926 194.248944 
L 302.006521 228.874669 
L 302.493834 177.97441 
L 303.021728 218.970942 
L 303.358151 179.609187 
L 303.490169 211.325942 
L 303.967499 190.978977 
L 303.993968 193.928928 
L 304.709628 134.833744 
L 304.92529 223.302045 
L 305.193586 132.97872 
L 305.49035 160.097073 
L 306.1736 171.471318 
L 306.674072 233.235739 
L 307.522009 185.647953 
L 307.548481 165.658671 
L 307.707436 129.829236 
L 309.192824 223.20279 
L 309.245603 222.645026 
L 309.69504 185.840091 
L 310.416974 238.376912 
L 310.98573 206.016906 
L 311.260822 235.970925 
L 311.772067 150.873432 
L 311.831822 184.649666 
L 312.049781 212.717495 
L 312.900508 203.973049 
L 313.323749 165.179134 
L 313.45625 217.323054 
L 314.717709 178.535527 
L 314.797044 242.747121 
L 315.325733 201.82014 
L 315.485139 206.893276 
L 315.511848 214.259017 
L 316.205177 233.871013 
L 316.579867 188.386321 
L 318.127972 230.253076 
L 318.154222 248.336149 
L 318.392801 215.010473 
L 318.577945 236.263905 
L 318.657343 227.803743 
L 318.843701 233.626393 
L 318.923426 223.635323 
L 319.883459 193.964835 
L 320.188738 219.049002 
L 320.474362 125.046543 
L 320.650618 236.66581 
L 321.295556 210.755305 
L 321.427349 232.28786 
L 321.454084 186.146879 
L 321.561211 197.402455 
L 322.062928 195.701111 
L 322.32926 149.546694 
L 322.544991 222.743885 
L 322.960399 189.182467 
L 324.028042 253.807995 
L 324.273089 185.094311 
L 324.299298 236.628682 
L 324.762732 201.141259 
L 325.821819 146.740934 
L 326.660926 239.507096 
L 326.977905 190.643686 
L 327.720194 198.575348 
L 328.421452 186.371365 
L 328.700847 232.299239 
L 330.222329 245.686581 
L 330.571174 244.227847 
L 330.864143 176.6572 
L 331.409726 230.806159 
L 331.550917 229.331141 
L 332.396919 212.991799 
L 332.545154 207.767006 
L 332.575607 250.778193 
L 332.638675 194.071161 
L 333.019802 233.879106 
L 333.072914 195.610265 
L 333.393834 247.847028 
L 334.080239 227.465203 
L 334.215756 240.797269 
L 334.242732 231.573742 
L 334.652643 138.41852 
L 334.814581 227.405706 
L 335.083031 229.187405 
L 335.731726 215.586658 
L 336.2248 241.164373 
L 336.848935 192.775059 
L 337.686704 233.822609 
L 337.876401 236.585316 
L 337.957656 206.413794 
L 338.177942 186.057729 
L 338.63303 187.136669 
L 338.750127 247.082061 
L 338.891684 208.024443 
L 339.077469 250.42607 
L 340.063783 200.519457 
L 340.689171 245.134825 
L 341.275548 184.734574 
L 342.096009 243.185239 
L 342.150531 193.838423 
L 342.180916 215.044937 
L 342.234109 219.426264 
L 342.472092 205.23395 
L 342.711158 213.351757 
L 342.87099 243.169255 
L 343.004533 241.267778 
L 343.788973 176.984358 
L 344.181319 232.612839 
L 344.498934 249.048127 
L 344.765184 226.152986 
L 344.871151 228.872941 
L 344.897724 252.313663 
L 345.69675 206.980586 
L 345.9401 253.4158 
L 346.158491 213.727458 
L 346.603205 251.487008 
L 346.939246 198.11141 
L 347.818935 221.728143 
L 348.095755 254.371272 
L 348.445801 240.045833 
L 348.52742 245.023481 
L 348.554657 259.918591 
L 348.692522 248.039927 
L 348.942231 244.829112 
L 349.165425 197.878783 
L 349.360626 232.482726 
L 349.388474 210.604408 
L 349.898964 224.189568 
L 350.805363 236.43413 
L 351.07099 213.785226 
L 352.330755 243.128683 
L 352.494963 203.584683 
L 352.941418 219.332065 
L 353.139041 236.551518 
L 353.939886 210.685385 
L 353.966348 245.755082 
L 354.204686 230.83139 
L 354.337011 190.43598 
L 354.630898 162.103112 
L 354.870821 219.752328 
L 355.54185 239.2025 
L 356.358611 228.480484 
L 356.4424 221.597182 
L 356.704942 223.11257 
L 357.376687 217.143376 
L 357.482575 234.757152 
L 357.721652 225.285724 
L 358.101786 203.568306 
L 358.262745 240.342304 
L 358.316469 199.202857 
L 359.298729 238.454167 
L 359.463553 224.46564 
L 359.628907 232.704299 
L 359.684303 209.033352 
L 359.711941 217.654508 
L 359.992298 214.110292 
L 360.137353 230.171909 
L 360.551026 210.185136 
L 360.789411 232.401217 
L 361.21538 225.308061 
L 361.957331 181.474555 
L 362.466959 244.687913 
L 362.71378 243.038408 
L 363.226396 232.888174 
L 363.738242 218.765225 
L 363.97605 242.170048 
L 364.58771 226.667915 
L 364.723006 208.291606 
L 366.107513 194.315677 
L 366.334434 234.2192 
L 366.430002 217.332906 
L 366.689939 243.660385 
L 367.142432 244.087045 
L 368.143174 216.808275 
L 368.576598 237.170141 
L 369.176187 219.611744 
L 369.360925 259.435316 
L 369.546096 245.222571 
L 369.680426 195.891482 
L 370.549025 240.163042 
L 370.763367 211.220963 
L 370.817287 213.437593 
L 371.762996 207.844099 
L 371.866873 212.064795 
L 372.260357 213.066768 
L 372.340051 243.663579 
L 372.632314 207.237587 
L 372.791879 240.696567 
L 373.573808 230.897516 
L 373.654534 238.332864 
L 373.681689 223.098334 
L 373.843852 237.322647 
L 373.898312 237.283875 
L 374.383995 247.39043 
L 374.608238 248.744447 
L 374.847574 223.954555 
L 375.248975 227.660131 
L 375.685875 206.157221 
L 376.829663 198.520639 
L 377.14837 215.619934 
L 377.201481 251.251147 
L 377.467179 221.335972 
L 377.760761 229.255161 
L 377.948972 198.303611 
L 378.191388 237.341239 
L 378.719234 230.371185 
L 379.252468 200.412108 
L 380.529597 249.083653 
L 380.984658 238.851091 
L 381.14561 217.329006 
L 381.424045 209.556564 
L 382.309771 234.36198 
L 382.921592 230.327347 
L 382.948266 216.079465 
L 383.430198 252.934063 
L 384.234357 246.564916 
L 384.371261 246.697737 
L 384.728293 198.870459 
L 384.755967 219.972883 
L 385.125885 258.046985 
L 385.368012 243.164404 
L 385.501163 255.379674 
L 385.554775 220.659944 
L 385.581291 221.96188 
L 386.116856 232.861973 
L 386.251286 227.572741 
L 386.577831 253.794017 
L 386.631655 269.077298 
L 387.097593 233.159245 
L 387.291348 179.772109 
L 387.733515 214.718366 
L 387.873366 250.263672 
L 388.199262 252.968277 
L 389.131566 262.131618 
L 389.508242 216.944856 
L 390.762594 225.38601 
L 390.908777 230.153729 
L 391.192266 245.467013 
L 391.370897 245.975462 
L 391.665068 247.554148 
L 391.771464 242.882977 
L 392.19814 258.465385 
L 392.545821 213.083731 
L 393.155886 240.702016 
L 393.401486 181.939032 
L 393.620557 206.053407 
L 394.213654 237.373203 
L 394.640383 251.494899 
L 395.179564 239.201636 
L 395.744166 204.856196 
L 396.133406 247.86942 
L 396.190322 225.245917 
L 396.506928 203.106508 
L 398.1881 234.313264 
L 398.499377 246.119526 
L 398.530619 253.551224 
L 399.380785 225.819478 
L 399.889433 244.941894 
L 399.970153 233.758345 
L 400.579048 230.87776 
L 401.654269 238.482623 
L 401.842471 249.757588 
L 402.419048 218.851584 
L 402.64127 241.02233 
L 403.245929 262.481395 
L 403.839132 232.506402 
L 404.676546 226.071724 
L 404.734378 249.961014 
L 405.552901 236.152081 
L 405.927214 255.157993 
L 406.286377 223.646682 
L 406.38516 239.300016 
L 406.730885 270.196402 
L 407.250434 256.284817 
L 408.388523 256.11966 
L 408.833096 264.811582 
L 409.740499 220.221831 
L 409.952607 222.333363 
L 410.522349 234.892533 
L 411.203509 263.99437 
L 411.341249 257.913523 
L 411.733295 278.454165 
L 412.084376 264.956877 
L 412.325388 207.732193 
L 413.178981 261.061469 
L 413.42195 261.484507 
L 413.449099 236.490464 
L 413.587349 231.34817 
L 413.72791 253.151998 
L 413.970537 249.822534 
L 413.997231 264.887823 
L 414.72 226.421274 
L 414.72 226.421274 
" style="fill:none;stroke:#000000;stroke-linecap:square;stroke-width:0.8;"/>
   </g>
   <g id="patch_3">
    <path d="M 57.6 307.584 
L 57.6 41.472 
" style="fill:none;stroke:#000000;stroke-linecap:square;stroke-linejoin:miter;stroke-width:0.8;"/>
   </g>
   <g id="patch_4">
    <path d="M 414.72 307.584 
L 414.72 41.472 
" style="fill:none;stroke:#000000;stroke-linecap:square;stroke-linejoin:miter;stroke-width:0.8;"/>
   </g>
   <g id="patch_5">
    <path d="M 57.6 307.584 
L 414.72 307.584 
" style="fill:none;stroke:#000000;stroke-linecap:square;stroke-linejoin:miter;stroke-width:0.8;"/>
   </g>
   <g id="patch_6">
    <path d="M 57.6 41.472 
L 414.72 41.472 
" style="fill:none;stroke:#000000;stroke-linecap:square;stroke-linejoin:miter;stroke-width:0.8;"/>
   </g>
  </g>
  <g id="axes_2">
   <g id="matplotlib.axis_3">
    <g id="xtick_6">
     <g id="line2d_22">
      <defs>
       <path d="M 0 0 
L 0 -3.5 
" id="m8589611d9b" style="stroke:#000000;stroke-width:0.8;"/>
      </defs>
      <g>
       <use style="stroke:#000000;stroke-width:0.8;" x="57.6" xlink:href="#m8589611d9b" y="41.472"/>
      </g>
     </g>
    </g>
    <g id="xtick_7">
     <g id="line2d_23">
      <g>
       <use style="stroke:#000000;stroke-width:0.8;" x="112.596535" xlink:href="#m8589611d9b" y="41.472"/>
      </g>
     </g>
     <g id="text_13">
      <!-- 200K -->
      <defs>
       <path d="M 9.8125 72.90625 
L 19.671875 72.90625 
L 19.671875 42.09375 
L 52.390625 72.90625 
L 65.09375 72.90625 
L 28.90625 38.921875 
L 67.671875 0 
L 54.6875 0 
L 19.671875 35.109375 
L 19.671875 0 
L 9.8125 0 
z
" id="DejaVuSans-75"/>
      </defs>
      <g transform="translate(99.773879 32.392313)scale(0.1 -0.1)">
       <use xlink:href="#DejaVuSans-50"/>
       <use x="63.623047" xlink:href="#DejaVuSans-48"/>
       <use x="127.246094" xlink:href="#DejaVuSans-48"/>
       <use x="190.869141" xlink:href="#DejaVuSans-75"/>
      </g>
     </g>
    </g>
    <g id="xtick_8">
     <g id="line2d_24">
      <g>
       <use style="stroke:#000000;stroke-width:0.8;" x="167.59307" xlink:href="#m8589611d9b" y="41.472"/>
      </g>
     </g>
     <g id="text_14">
      <!-- 400K -->
      <g transform="translate(154.770414 32.392313)scale(0.1 -0.1)">
       <use xlink:href="#DejaVuSans-52"/>
       <use x="63.623047" xlink:href="#DejaVuSans-48"/>
       <use x="127.246094" xlink:href="#DejaVuSans-48"/>
       <use x="190.869141" xlink:href="#DejaVuSans-75"/>
      </g>
     </g>
    </g>
    <g id="xtick_9">
     <g id="line2d_25">
      <g>
       <use style="stroke:#000000;stroke-width:0.8;" x="222.589605" xlink:href="#m8589611d9b" y="41.472"/>
      </g>
     </g>
     <g id="text_15">
      <!-- 600K -->
      <g transform="translate(209.766949 32.392313)scale(0.1 -0.1)">
       <use xlink:href="#DejaVuSans-54"/>
       <use x="63.623047" xlink:href="#DejaVuSans-48"/>
       <use x="127.246094" xlink:href="#DejaVuSans-48"/>
       <use x="190.869141" xlink:href="#DejaVuSans-75"/>
      </g>
     </g>
    </g>
    <g id="xtick_10">
     <g id="line2d_26">
      <g>
       <use style="stroke:#000000;stroke-width:0.8;" x="277.58614" xlink:href="#m8589611d9b" y="41.472"/>
      </g>
     </g>
     <g id="text_16">
      <!-- 800K -->
      <g transform="translate(264.763484 32.392313)scale(0.1 -0.1)">
       <use xlink:href="#DejaVuSans-56"/>
       <use x="63.623047" xlink:href="#DejaVuSans-48"/>
       <use x="127.246094" xlink:href="#DejaVuSans-48"/>
       <use x="190.869141" xlink:href="#DejaVuSans-75"/>
      </g>
     </g>
    </g>
    <g id="xtick_11">
     <g id="line2d_27">
      <g>
       <use style="stroke:#000000;stroke-width:0.8;" x="332.582675" xlink:href="#m8589611d9b" y="41.472"/>
      </g>
     </g>
     <g id="text_17">
      <!-- 1,000K -->
      <defs>
       <path d="M 11.71875 12.40625 
L 22.015625 12.40625 
L 22.015625 4 
L 14.015625 -11.625 
L 7.71875 -11.625 
L 11.71875 4 
z
" id="DejaVuSans-44"/>
      </defs>
      <g transform="translate(314.989706 32.392313)scale(0.1 -0.1)">
       <use xlink:href="#DejaVuSans-49"/>
       <use x="63.623047" xlink:href="#DejaVuSans-44"/>
       <use x="95.410156" xlink:href="#DejaVuSans-48"/>
       <use x="159.033203" xlink:href="#DejaVuSans-48"/>
       <use x="222.65625" xlink:href="#DejaVuSans-48"/>
       <use x="286.279297" xlink:href="#DejaVuSans-75"/>
      </g>
     </g>
    </g>
    <g id="xtick_12">
     <g id="line2d_28">
      <g>
       <use style="stroke:#000000;stroke-width:0.8;" x="387.57921" xlink:href="#m8589611d9b" y="41.472"/>
      </g>
     </g>
     <g id="text_18">
      <!-- 1.20M -->
      <defs>
       <path d="M 9.8125 72.90625 
L 24.515625 72.90625 
L 43.109375 23.296875 
L 61.8125 72.90625 
L 76.515625 72.90625 
L 76.515625 0 
L 66.890625 0 
L 66.890625 64.015625 
L 48.09375 14.015625 
L 38.1875 14.015625 
L 19.390625 64.015625 
L 19.390625 0 
L 9.8125 0 
z
" id="DejaVuSans-77"/>
      </defs>
      <g transform="translate(372.132335 32.392313)scale(0.1 -0.1)">
       <use xlink:href="#DejaVuSans-49"/>
       <use x="63.623047" xlink:href="#DejaVuSans-46"/>
       <use x="95.410156" xlink:href="#DejaVuSans-50"/>
       <use x="159.033203" xlink:href="#DejaVuSans-48"/>
       <use x="222.65625" xlink:href="#DejaVuSans-77"/>
      </g>
     </g>
    </g>
    <g id="text_19">
     <!-- Steps -->
     <defs>
      <path d="M 53.515625 70.515625 
L 53.515625 60.890625 
Q 47.90625 63.578125 42.921875 64.890625 
Q 37.9375 66.21875 33.296875 66.21875 
Q 25.25 66.21875 20.875 63.09375 
Q 16.5 59.96875 16.5 54.203125 
Q 16.5 49.359375 19.40625 46.890625 
Q 22.3125 44.4375 30.421875 42.921875 
L 36.375 41.703125 
Q 47.40625 39.59375 52.65625 34.296875 
Q 57.90625 29 57.90625 20.125 
Q 57.90625 9.515625 50.796875 4.046875 
Q 43.703125 -1.421875 29.984375 -1.421875 
Q 24.8125 -1.421875 18.96875 -0.25 
Q 13.140625 0.921875 6.890625 3.21875 
L 6.890625 13.375 
Q 12.890625 10.015625 18.65625 8.296875 
Q 24.421875 6.59375 29.984375 6.59375 
Q 38.421875 6.59375 43.015625 9.90625 
Q 47.609375 13.234375 47.609375 19.390625 
Q 47.609375 24.75 44.3125 27.78125 
Q 41.015625 30.8125 33.5 32.328125 
L 27.484375 33.5 
Q 16.453125 35.6875 11.515625 40.375 
Q 6.59375 45.0625 6.59375 53.421875 
Q 6.59375 63.09375 13.40625 68.65625 
Q 20.21875 74.21875 32.171875 74.21875 
Q 37.3125 74.21875 42.625 73.28125 
Q 47.953125 72.359375 53.515625 70.515625 
z
" id="DejaVuSans-83"/>
      <path d="M 18.3125 70.21875 
L 18.3125 54.6875 
L 36.8125 54.6875 
L 36.8125 47.703125 
L 18.3125 47.703125 
L 18.3125 18.015625 
Q 18.3125 11.328125 20.140625 9.421875 
Q 21.96875 7.515625 27.59375 7.515625 
L 36.8125 7.515625 
L 36.8125 0 
L 27.59375 0 
Q 17.1875 0 13.234375 3.875 
Q 9.28125 7.765625 9.28125 18.015625 
L 9.28125 47.703125 
L 2.6875 47.703125 
L 2.6875 54.6875 
L 9.28125 54.6875 
L 9.28125 70.21875 
z
" id="DejaVuSans-116"/>
      <path d="M 56.203125 29.59375 
L 56.203125 25.203125 
L 14.890625 25.203125 
Q 15.484375 15.921875 20.484375 11.0625 
Q 25.484375 6.203125 34.421875 6.203125 
Q 39.59375 6.203125 44.453125 7.46875 
Q 49.3125 8.734375 54.109375 11.28125 
L 54.109375 2.78125 
Q 49.265625 0.734375 44.1875 -0.34375 
Q 39.109375 -1.421875 33.890625 -1.421875 
Q 20.796875 -1.421875 13.15625 6.1875 
Q 5.515625 13.8125 5.515625 26.8125 
Q 5.515625 40.234375 12.765625 48.109375 
Q 20.015625 56 32.328125 56 
Q 43.359375 56 49.78125 48.890625 
Q 56.203125 41.796875 56.203125 29.59375 
z
M 47.21875 32.234375 
Q 47.125 39.59375 43.09375 43.984375 
Q 39.0625 48.390625 32.421875 48.390625 
Q 24.90625 48.390625 20.390625 44.140625 
Q 15.875 39.890625 15.1875 32.171875 
z
" id="DejaVuSans-101"/>
      <path d="M 18.109375 8.203125 
L 18.109375 -20.796875 
L 9.078125 -20.796875 
L 9.078125 54.6875 
L 18.109375 54.6875 
L 18.109375 46.390625 
Q 20.953125 51.265625 25.265625 53.625 
Q 29.59375 56 35.59375 56 
Q 45.5625 56 51.78125 48.09375 
Q 58.015625 40.1875 58.015625 27.296875 
Q 58.015625 14.40625 51.78125 6.484375 
Q 45.5625 -1.421875 35.59375 -1.421875 
Q 29.59375 -1.421875 25.265625 0.953125 
Q 20.953125 3.328125 18.109375 8.203125 
z
M 48.6875 27.296875 
Q 48.6875 37.203125 44.609375 42.84375 
Q 40.53125 48.484375 33.40625 48.484375 
Q 26.265625 48.484375 22.1875 42.84375 
Q 18.109375 37.203125 18.109375 27.296875 
Q 18.109375 17.390625 22.1875 11.75 
Q 26.265625 6.109375 33.40625 6.109375 
Q 40.53125 6.109375 44.609375 11.75 
Q 48.6875 17.390625 48.6875 27.296875 
z
" id="DejaVuSans-112"/>
     </defs>
     <g transform="translate(222.170156 20.793875)scale(0.1 -0.1)">
      <use xlink:href="#DejaVuSans-83"/>
      <use x="63.476562" xlink:href="#DejaVuSans-116"/>
      <use x="102.685547" xlink:href="#DejaVuSans-101"/>
      <use x="164.208984" xlink:href="#DejaVuSans-112"/>
      <use x="227.685547" xlink:href="#DejaVuSans-115"/>
     </g>
    </g>
   </g>
   <g id="patch_7">
    <path d="M 57.6 307.584 
L 57.6 41.472 
" style="fill:none;stroke:#000000;stroke-linecap:square;stroke-linejoin:miter;stroke-width:0.8;"/>
   </g>
   <g id="patch_8">
    <path d="M 414.72 307.584 
L 414.72 41.472 
" style="fill:none;stroke:#000000;stroke-linecap:square;stroke-linejoin:miter;stroke-width:0.8;"/>
   </g>
   <g id="patch_9">
    <path d="M 57.6 307.584 
L 414.72 307.584 
" style="fill:none;stroke:#000000;stroke-linecap:square;stroke-linejoin:miter;stroke-width:0.8;"/>
   </g>
   <g id="patch_10">
    <path d="M 57.6 41.472 
L 414.72 41.472 
" style="fill:none;stroke:#000000;stroke-linecap:square;stroke-linejoin:miter;stroke-width:0.8;"/>
   </g>
  </g>
 </g>
 <defs>
  <clipPath id="pfd40af3899">
   <rect height="266.112" width="357.12" x="57.6" y="41.472"/>
  </clipPath>
 </defs>
</svg>
