<?xml version="1.0" encoding="utf-8" standalone="no"?>
<!DOCTYPE svg PUBLIC "-//W3C//DTD SVG 1.1//EN"
  "http://www.w3.org/Graphics/SVG/1.1/DTD/svg11.dtd">
<!-- Created with matplotlib (https://matplotlib.org/) -->
<svg height="345.6pt" version="1.1" viewBox="0 0 460.8 345.6" width="460.8pt" xmlns="http://www.w3.org/2000/svg" xmlns:xlink="http://www.w3.org/1999/xlink">
 <defs>
  <style type="text/css">
*{stroke-linecap:butt;stroke-linejoin:round;}
  </style>
 </defs>
 <g id="figure_1">
  <g id="patch_1">
   <path d="M 0 345.6 
L 460.8 345.6 
L 460.8 0 
L 0 0 
z
" style="fill:#ffffff;"/>
  </g>
  <g id="axes_1">
   <g id="patch_2">
    <path d="M 57.6 307.584 
L 414.72 307.584 
L 414.72 41.472 
L 57.6 41.472 
z
" style="fill:#ffffff;"/>
   </g>
   <g id="matplotlib.axis_1">
    <g id="xtick_1">
     <g id="line2d_1">
      <path clip-path="url(#pebae061397)" d="M 57.6 307.584 
L 57.6 41.472 
" style="fill:none;stroke:#b0b0b0;stroke-linecap:square;stroke-width:0.8;"/>
     </g>
     <g id="line2d_2">
      <defs>
       <path d="M 0 0 
L 0 3.5 
" id="m19b18a4c65" style="stroke:#000000;stroke-width:0.8;"/>
      </defs>
      <g>
       <use style="stroke:#000000;stroke-width:0.8;" x="57.6" xlink:href="#m19b18a4c65" y="307.584"/>
      </g>
     </g>
     <g id="text_1">
      <!-- 0 -->
      <defs>
       <path d="M 31.78125 66.40625 
Q 24.171875 66.40625 20.328125 58.90625 
Q 16.5 51.421875 16.5 36.375 
Q 16.5 21.390625 20.328125 13.890625 
Q 24.171875 6.390625 31.78125 6.390625 
Q 39.453125 6.390625 43.28125 13.890625 
Q 47.125 21.390625 47.125 36.375 
Q 47.125 51.421875 43.28125 58.90625 
Q 39.453125 66.40625 31.78125 66.40625 
z
M 31.78125 74.21875 
Q 44.046875 74.21875 50.515625 64.515625 
Q 56.984375 54.828125 56.984375 36.375 
Q 56.984375 17.96875 50.515625 8.265625 
Q 44.046875 -1.421875 31.78125 -1.421875 
Q 19.53125 -1.421875 13.0625 8.265625 
Q 6.59375 17.96875 6.59375 36.375 
Q 6.59375 54.828125 13.0625 64.515625 
Q 19.53125 74.21875 31.78125 74.21875 
z
" id="DejaVuSans-48"/>
      </defs>
      <g transform="translate(54.41875 322.182437)scale(0.1 -0.1)">
       <use xlink:href="#DejaVuSans-48"/>
      </g>
     </g>
    </g>
    <g id="xtick_2">
     <g id="line2d_3">
      <path clip-path="url(#pebae061397)" d="M 123.673227 307.584 
L 123.673227 41.472 
" style="fill:none;stroke:#b0b0b0;stroke-linecap:square;stroke-width:0.8;"/>
     </g>
     <g id="line2d_4">
      <g>
       <use style="stroke:#000000;stroke-width:0.8;" x="123.673227" xlink:href="#m19b18a4c65" y="307.584"/>
      </g>
     </g>
     <g id="text_2">
      <!-- 2 -->
      <defs>
       <path d="M 19.1875 8.296875 
L 53.609375 8.296875 
L 53.609375 0 
L 7.328125 0 
L 7.328125 8.296875 
Q 12.9375 14.109375 22.625 23.890625 
Q 32.328125 33.6875 34.8125 36.53125 
Q 39.546875 41.84375 41.421875 45.53125 
Q 43.3125 49.21875 43.3125 52.78125 
Q 43.3125 58.59375 39.234375 62.25 
Q 35.15625 65.921875 28.609375 65.921875 
Q 23.96875 65.921875 18.8125 64.3125 
Q 13.671875 62.703125 7.8125 59.421875 
L 7.8125 69.390625 
Q 13.765625 71.78125 18.9375 73 
Q 24.125 74.21875 28.421875 74.21875 
Q 39.75 74.21875 46.484375 68.546875 
Q 53.21875 62.890625 53.21875 53.421875 
Q 53.21875 48.921875 51.53125 44.890625 
Q 49.859375 40.875 45.40625 35.40625 
Q 44.1875 33.984375 37.640625 27.21875 
Q 31.109375 20.453125 19.1875 8.296875 
z
" id="DejaVuSans-50"/>
      </defs>
      <g transform="translate(120.491977 322.182437)scale(0.1 -0.1)">
       <use xlink:href="#DejaVuSans-50"/>
      </g>
     </g>
    </g>
    <g id="xtick_3">
     <g id="line2d_5">
      <path clip-path="url(#pebae061397)" d="M 189.746454 307.584 
L 189.746454 41.472 
" style="fill:none;stroke:#b0b0b0;stroke-linecap:square;stroke-width:0.8;"/>
     </g>
     <g id="line2d_6">
      <g>
       <use style="stroke:#000000;stroke-width:0.8;" x="189.746454" xlink:href="#m19b18a4c65" y="307.584"/>
      </g>
     </g>
     <g id="text_3">
      <!-- 4 -->
      <defs>
       <path d="M 37.796875 64.3125 
L 12.890625 25.390625 
L 37.796875 25.390625 
z
M 35.203125 72.90625 
L 47.609375 72.90625 
L 47.609375 25.390625 
L 58.015625 25.390625 
L 58.015625 17.1875 
L 47.609375 17.1875 
L 47.609375 0 
L 37.796875 0 
L 37.796875 17.1875 
L 4.890625 17.1875 
L 4.890625 26.703125 
z
" id="DejaVuSans-52"/>
      </defs>
      <g transform="translate(186.565204 322.182437)scale(0.1 -0.1)">
       <use xlink:href="#DejaVuSans-52"/>
      </g>
     </g>
    </g>
    <g id="xtick_4">
     <g id="line2d_7">
      <path clip-path="url(#pebae061397)" d="M 255.819681 307.584 
L 255.819681 41.472 
" style="fill:none;stroke:#b0b0b0;stroke-linecap:square;stroke-width:0.8;"/>
     </g>
     <g id="line2d_8">
      <g>
       <use style="stroke:#000000;stroke-width:0.8;" x="255.819681" xlink:href="#m19b18a4c65" y="307.584"/>
      </g>
     </g>
     <g id="text_4">
      <!-- 6 -->
      <defs>
       <path d="M 33.015625 40.375 
Q 26.375 40.375 22.484375 35.828125 
Q 18.609375 31.296875 18.609375 23.390625 
Q 18.609375 15.53125 22.484375 10.953125 
Q 26.375 6.390625 33.015625 6.390625 
Q 39.65625 6.390625 43.53125 10.953125 
Q 47.40625 15.53125 47.40625 23.390625 
Q 47.40625 31.296875 43.53125 35.828125 
Q 39.65625 40.375 33.015625 40.375 
z
M 52.59375 71.296875 
L 52.59375 62.3125 
Q 48.875 64.0625 45.09375 64.984375 
Q 41.3125 65.921875 37.59375 65.921875 
Q 27.828125 65.921875 22.671875 59.328125 
Q 17.53125 52.734375 16.796875 39.40625 
Q 19.671875 43.65625 24.015625 45.921875 
Q 28.375 48.1875 33.59375 48.1875 
Q 44.578125 48.1875 50.953125 41.515625 
Q 57.328125 34.859375 57.328125 23.390625 
Q 57.328125 12.15625 50.6875 5.359375 
Q 44.046875 -1.421875 33.015625 -1.421875 
Q 20.359375 -1.421875 13.671875 8.265625 
Q 6.984375 17.96875 6.984375 36.375 
Q 6.984375 53.65625 15.1875 63.9375 
Q 23.390625 74.21875 37.203125 74.21875 
Q 40.921875 74.21875 44.703125 73.484375 
Q 48.484375 72.75 52.59375 71.296875 
z
" id="DejaVuSans-54"/>
      </defs>
      <g transform="translate(252.638431 322.182437)scale(0.1 -0.1)">
       <use xlink:href="#DejaVuSans-54"/>
      </g>
     </g>
    </g>
    <g id="xtick_5">
     <g id="line2d_9">
      <path clip-path="url(#pebae061397)" d="M 321.892908 307.584 
L 321.892908 41.472 
" style="fill:none;stroke:#b0b0b0;stroke-linecap:square;stroke-width:0.8;"/>
     </g>
     <g id="line2d_10">
      <g>
       <use style="stroke:#000000;stroke-width:0.8;" x="321.892908" xlink:href="#m19b18a4c65" y="307.584"/>
      </g>
     </g>
     <g id="text_5">
      <!-- 8 -->
      <defs>
       <path d="M 31.78125 34.625 
Q 24.75 34.625 20.71875 30.859375 
Q 16.703125 27.09375 16.703125 20.515625 
Q 16.703125 13.921875 20.71875 10.15625 
Q 24.75 6.390625 31.78125 6.390625 
Q 38.8125 6.390625 42.859375 10.171875 
Q 46.921875 13.96875 46.921875 20.515625 
Q 46.921875 27.09375 42.890625 30.859375 
Q 38.875 34.625 31.78125 34.625 
z
M 21.921875 38.8125 
Q 15.578125 40.375 12.03125 44.71875 
Q 8.5 49.078125 8.5 55.328125 
Q 8.5 64.0625 14.71875 69.140625 
Q 20.953125 74.21875 31.78125 74.21875 
Q 42.671875 74.21875 48.875 69.140625 
Q 55.078125 64.0625 55.078125 55.328125 
Q 55.078125 49.078125 51.53125 44.71875 
Q 48 40.375 41.703125 38.8125 
Q 48.828125 37.15625 52.796875 32.3125 
Q 56.78125 27.484375 56.78125 20.515625 
Q 56.78125 9.90625 50.3125 4.234375 
Q 43.84375 -1.421875 31.78125 -1.421875 
Q 19.734375 -1.421875 13.25 4.234375 
Q 6.78125 9.90625 6.78125 20.515625 
Q 6.78125 27.484375 10.78125 32.3125 
Q 14.796875 37.15625 21.921875 38.8125 
z
M 18.3125 54.390625 
Q 18.3125 48.734375 21.84375 45.5625 
Q 25.390625 42.390625 31.78125 42.390625 
Q 38.140625 42.390625 41.71875 45.5625 
Q 45.3125 48.734375 45.3125 54.390625 
Q 45.3125 60.0625 41.71875 63.234375 
Q 38.140625 66.40625 31.78125 66.40625 
Q 25.390625 66.40625 21.84375 63.234375 
Q 18.3125 60.0625 18.3125 54.390625 
z
" id="DejaVuSans-56"/>
      </defs>
      <g transform="translate(318.711658 322.182437)scale(0.1 -0.1)">
       <use xlink:href="#DejaVuSans-56"/>
      </g>
     </g>
    </g>
    <g id="xtick_6">
     <g id="line2d_11">
      <path clip-path="url(#pebae061397)" d="M 387.966134 307.584 
L 387.966134 41.472 
" style="fill:none;stroke:#b0b0b0;stroke-linecap:square;stroke-width:0.8;"/>
     </g>
     <g id="line2d_12">
      <g>
       <use style="stroke:#000000;stroke-width:0.8;" x="387.966134" xlink:href="#m19b18a4c65" y="307.584"/>
      </g>
     </g>
     <g id="text_6">
      <!-- 10 -->
      <defs>
       <path d="M 12.40625 8.296875 
L 28.515625 8.296875 
L 28.515625 63.921875 
L 10.984375 60.40625 
L 10.984375 69.390625 
L 28.421875 72.90625 
L 38.28125 72.90625 
L 38.28125 8.296875 
L 54.390625 8.296875 
L 54.390625 0 
L 12.40625 0 
z
" id="DejaVuSans-49"/>
      </defs>
      <g transform="translate(381.603634 322.182437)scale(0.1 -0.1)">
       <use xlink:href="#DejaVuSans-49"/>
       <use x="63.623047" xlink:href="#DejaVuSans-48"/>
      </g>
     </g>
    </g>
    <g id="text_7">
     <!-- Hours -->
     <defs>
      <path d="M 9.8125 72.90625 
L 19.671875 72.90625 
L 19.671875 43.015625 
L 55.515625 43.015625 
L 55.515625 72.90625 
L 65.375 72.90625 
L 65.375 0 
L 55.515625 0 
L 55.515625 34.71875 
L 19.671875 34.71875 
L 19.671875 0 
L 9.8125 0 
z
" id="DejaVuSans-72"/>
      <path d="M 30.609375 48.390625 
Q 23.390625 48.390625 19.1875 42.75 
Q 14.984375 37.109375 14.984375 27.296875 
Q 14.984375 17.484375 19.15625 11.84375 
Q 23.34375 6.203125 30.609375 6.203125 
Q 37.796875 6.203125 41.984375 11.859375 
Q 46.1875 17.53125 46.1875 27.296875 
Q 46.1875 37.015625 41.984375 42.703125 
Q 37.796875 48.390625 30.609375 48.390625 
z
M 30.609375 56 
Q 42.328125 56 49.015625 48.375 
Q 55.71875 40.765625 55.71875 27.296875 
Q 55.71875 13.875 49.015625 6.21875 
Q 42.328125 -1.421875 30.609375 -1.421875 
Q 18.84375 -1.421875 12.171875 6.21875 
Q 5.515625 13.875 5.515625 27.296875 
Q 5.515625 40.765625 12.171875 48.375 
Q 18.84375 56 30.609375 56 
z
" id="DejaVuSans-111"/>
      <path d="M 8.5 21.578125 
L 8.5 54.6875 
L 17.484375 54.6875 
L 17.484375 21.921875 
Q 17.484375 14.15625 20.5 10.265625 
Q 23.53125 6.390625 29.59375 6.390625 
Q 36.859375 6.390625 41.078125 11.03125 
Q 45.3125 15.671875 45.3125 23.6875 
L 45.3125 54.6875 
L 54.296875 54.6875 
L 54.296875 0 
L 45.3125 0 
L 45.3125 8.40625 
Q 42.046875 3.421875 37.71875 1 
Q 33.40625 -1.421875 27.6875 -1.421875 
Q 18.265625 -1.421875 13.375 4.4375 
Q 8.5 10.296875 8.5 21.578125 
z
M 31.109375 56 
z
" id="DejaVuSans-117"/>
      <path d="M 41.109375 46.296875 
Q 39.59375 47.171875 37.8125 47.578125 
Q 36.03125 48 33.890625 48 
Q 26.265625 48 22.1875 43.046875 
Q 18.109375 38.09375 18.109375 28.8125 
L 18.109375 0 
L 9.078125 0 
L 9.078125 54.6875 
L 18.109375 54.6875 
L 18.109375 46.1875 
Q 20.953125 51.171875 25.484375 53.578125 
Q 30.03125 56 36.53125 56 
Q 37.453125 56 38.578125 55.875 
Q 39.703125 55.765625 41.0625 55.515625 
z
" id="DejaVuSans-114"/>
      <path d="M 44.28125 53.078125 
L 44.28125 44.578125 
Q 40.484375 46.53125 36.375 47.5 
Q 32.28125 48.484375 27.875 48.484375 
Q 21.1875 48.484375 17.84375 46.4375 
Q 14.5 44.390625 14.5 40.28125 
Q 14.5 37.15625 16.890625 35.375 
Q 19.28125 33.59375 26.515625 31.984375 
L 29.59375 31.296875 
Q 39.15625 29.25 43.1875 25.515625 
Q 47.21875 21.78125 47.21875 15.09375 
Q 47.21875 7.46875 41.1875 3.015625 
Q 35.15625 -1.421875 24.609375 -1.421875 
Q 20.21875 -1.421875 15.453125 -0.5625 
Q 10.6875 0.296875 5.421875 2 
L 5.421875 11.28125 
Q 10.40625 8.6875 15.234375 7.390625 
Q 20.0625 6.109375 24.8125 6.109375 
Q 31.15625 6.109375 34.5625 8.28125 
Q 37.984375 10.453125 37.984375 14.40625 
Q 37.984375 18.0625 35.515625 20.015625 
Q 33.0625 21.96875 24.703125 23.78125 
L 21.578125 24.515625 
Q 13.234375 26.265625 9.515625 29.90625 
Q 5.8125 33.546875 5.8125 39.890625 
Q 5.8125 47.609375 11.28125 51.796875 
Q 16.75 56 26.8125 56 
Q 31.78125 56 36.171875 55.265625 
Q 40.578125 54.546875 44.28125 53.078125 
z
" id="DejaVuSans-115"/>
     </defs>
     <g transform="translate(221.511562 335.860562)scale(0.1 -0.1)">
      <use xlink:href="#DejaVuSans-72"/>
      <use x="75.195312" xlink:href="#DejaVuSans-111"/>
      <use x="136.376953" xlink:href="#DejaVuSans-117"/>
      <use x="199.755859" xlink:href="#DejaVuSans-114"/>
      <use x="240.869141" xlink:href="#DejaVuSans-115"/>
     </g>
    </g>
   </g>
   <g id="matplotlib.axis_2">
    <g id="ytick_1">
     <g id="line2d_13">
      <path clip-path="url(#pebae061397)" d="M 57.6 295.597992 
L 414.72 295.597992 
" style="fill:none;stroke:#b0b0b0;stroke-linecap:square;stroke-width:0.8;"/>
     </g>
     <g id="line2d_14">
      <defs>
       <path d="M 0 0 
L -3.5 0 
" id="m8903f3964b" style="stroke:#000000;stroke-width:0.8;"/>
      </defs>
      <g>
       <use style="stroke:#000000;stroke-width:0.8;" x="57.6" xlink:href="#m8903f3964b" y="295.597992"/>
      </g>
     </g>
     <g id="text_8">
      <!-- 0 -->
      <g transform="translate(44.2375 299.39721)scale(0.1 -0.1)">
       <use xlink:href="#DejaVuSans-48"/>
      </g>
     </g>
    </g>
    <g id="ytick_2">
     <g id="line2d_15">
      <path clip-path="url(#pebae061397)" d="M 57.6 253.512118 
L 414.72 253.512118 
" style="fill:none;stroke:#b0b0b0;stroke-linecap:square;stroke-width:0.8;"/>
     </g>
     <g id="line2d_16">
      <g>
       <use style="stroke:#000000;stroke-width:0.8;" x="57.6" xlink:href="#m8903f3964b" y="253.512118"/>
      </g>
     </g>
     <g id="text_9">
      <!-- 20 -->
      <g transform="translate(37.875 257.311337)scale(0.1 -0.1)">
       <use xlink:href="#DejaVuSans-50"/>
       <use x="63.623047" xlink:href="#DejaVuSans-48"/>
      </g>
     </g>
    </g>
    <g id="ytick_3">
     <g id="line2d_17">
      <path clip-path="url(#pebae061397)" d="M 57.6 211.426245 
L 414.72 211.426245 
" style="fill:none;stroke:#b0b0b0;stroke-linecap:square;stroke-width:0.8;"/>
     </g>
     <g id="line2d_18">
      <g>
       <use style="stroke:#000000;stroke-width:0.8;" x="57.6" xlink:href="#m8903f3964b" y="211.426245"/>
      </g>
     </g>
     <g id="text_10">
      <!-- 40 -->
      <g transform="translate(37.875 215.225463)scale(0.1 -0.1)">
       <use xlink:href="#DejaVuSans-52"/>
       <use x="63.623047" xlink:href="#DejaVuSans-48"/>
      </g>
     </g>
    </g>
    <g id="ytick_4">
     <g id="line2d_19">
      <path clip-path="url(#pebae061397)" d="M 57.6 169.340371 
L 414.72 169.340371 
" style="fill:none;stroke:#b0b0b0;stroke-linecap:square;stroke-width:0.8;"/>
     </g>
     <g id="line2d_20">
      <g>
       <use style="stroke:#000000;stroke-width:0.8;" x="57.6" xlink:href="#m8903f3964b" y="169.340371"/>
      </g>
     </g>
     <g id="text_11">
      <!-- 60 -->
      <g transform="translate(37.875 173.13959)scale(0.1 -0.1)">
       <use xlink:href="#DejaVuSans-54"/>
       <use x="63.623047" xlink:href="#DejaVuSans-48"/>
      </g>
     </g>
    </g>
    <g id="ytick_5">
     <g id="line2d_21">
      <path clip-path="url(#pebae061397)" d="M 57.6 127.254498 
L 414.72 127.254498 
" style="fill:none;stroke:#b0b0b0;stroke-linecap:square;stroke-width:0.8;"/>
     </g>
     <g id="line2d_22">
      <g>
       <use style="stroke:#000000;stroke-width:0.8;" x="57.6" xlink:href="#m8903f3964b" y="127.254498"/>
      </g>
     </g>
     <g id="text_12">
      <!-- 80 -->
      <g transform="translate(37.875 131.053716)scale(0.1 -0.1)">
       <use xlink:href="#DejaVuSans-56"/>
       <use x="63.623047" xlink:href="#DejaVuSans-48"/>
      </g>
     </g>
    </g>
    <g id="ytick_6">
     <g id="line2d_23">
      <path clip-path="url(#pebae061397)" d="M 57.6 85.168624 
L 414.72 85.168624 
" style="fill:none;stroke:#b0b0b0;stroke-linecap:square;stroke-width:0.8;"/>
     </g>
     <g id="line2d_24">
      <g>
       <use style="stroke:#000000;stroke-width:0.8;" x="57.6" xlink:href="#m8903f3964b" y="85.168624"/>
      </g>
     </g>
     <g id="text_13">
      <!-- 100 -->
      <g transform="translate(31.5125 88.967843)scale(0.1 -0.1)">
       <use xlink:href="#DejaVuSans-49"/>
       <use x="63.623047" xlink:href="#DejaVuSans-48"/>
       <use x="127.246094" xlink:href="#DejaVuSans-48"/>
      </g>
     </g>
    </g>
    <g id="ytick_7">
     <g id="line2d_25">
      <path clip-path="url(#pebae061397)" d="M 57.6 43.082751 
L 414.72 43.082751 
" style="fill:none;stroke:#b0b0b0;stroke-linecap:square;stroke-width:0.8;"/>
     </g>
     <g id="line2d_26">
      <g>
       <use style="stroke:#000000;stroke-width:0.8;" x="57.6" xlink:href="#m8903f3964b" y="43.082751"/>
      </g>
     </g>
     <g id="text_14">
      <!-- 120 -->
      <g transform="translate(31.5125 46.881969)scale(0.1 -0.1)">
       <use xlink:href="#DejaVuSans-49"/>
       <use x="63.623047" xlink:href="#DejaVuSans-50"/>
       <use x="127.246094" xlink:href="#DejaVuSans-48"/>
      </g>
     </g>
    </g>
    <g id="text_15">
     <!-- Loss -->
     <defs>
      <path d="M 9.8125 72.90625 
L 19.671875 72.90625 
L 19.671875 8.296875 
L 55.171875 8.296875 
L 55.171875 0 
L 9.8125 0 
z
" id="DejaVuSans-76"/>
     </defs>
     <g transform="translate(25.432812 185.581906)rotate(-90)scale(0.1 -0.1)">
      <use xlink:href="#DejaVuSans-76"/>
      <use x="55.697266" xlink:href="#DejaVuSans-111"/>
      <use x="116.878906" xlink:href="#DejaVuSans-115"/>
      <use x="168.978516" xlink:href="#DejaVuSans-115"/>
     </g>
    </g>
   </g>
   <g id="line2d_27">
    <path clip-path="url(#pebae061397)" d="M 57.6 295.085077 
L 57.617889 295.085891 
L 57.774215 295.464124 
L 57.911699 295.488 
L 58.354097 294.838846 
L 58.758549 294.684201 
L 58.884826 294.231477 
L 59.204084 294.584775 
L 59.264203 293.694121 
L 60.202455 289.511301 
L 60.579989 287.035215 
L 60.841201 286.266123 
L 60.884505 284.458302 
L 61.178023 280.897281 
L 61.256992 282.772205 
L 61.665817 280.181606 
L 62.098664 268.427529 
L 62.202612 268.739462 
L 62.239232 270.600349 
L 62.410482 266.568369 
L 63.231573 236.87088 
L 63.492693 249.358088 
L 63.810594 252.139452 
L 64.043167 246.210774 
L 64.513892 238.681224 
L 65.008848 210.189977 
L 65.347028 231.734881 
L 65.365066 211.506798 
L 65.450268 223.057487 
L 65.474662 219.006611 
L 65.767083 212.540819 
L 65.809375 214.467173 
L 66.078261 194.004775 
L 66.261161 205.725304 
L 66.610386 220.886768 
L 66.981965 141.025747 
L 67.637627 194.236979 
L 67.900411 157.451366 
L 67.918446 159.103998 
L 68.577501 191.956375 
L 68.711233 138.837986 
L 68.779378 166.258086 
L 69.024564 122.643344 
L 69.207532 117.033762 
L 69.752211 53.568 
L 70.680217 155.508949 
L 70.753963 132.508055 
L 70.950752 137.091017 
L 71.140638 86.653022 
L 71.416533 128.419283 
L 71.924593 137.357281 
L 72.220717 136.643836 
L 72.337481 108.430917 
L 72.368337 58.457876 
L 72.527739 102.929446 
L 72.60266 86.237564 
L 72.634021 128.93362 
L 72.813984 108.705352 
L 73.754778 77.723147 
L 74.098293 80.605104 
L 75.502913 113.249093 
L 75.943344 95.656314 
L 75.962221 121.631606 
L 76.702631 136.747564 
L 77.13498 149.978002 
L 77.233787 139.776323 
L 77.240124 158.520787 
L 77.602301 148.603786 
L 78.699429 166.254016 
L 79.57099 184.850811 
L 79.58333 141.340576 
L 79.893113 197.022432 
L 80.331484 130.569428 
L 80.78095 188.739112 
L 80.82324 186.473904 
L 81.486803 210.429935 
L 81.673184 195.087995 
L 82.171779 181.70593 
L 82.552696 195.051712 
L 83.161062 207.602218 
L 83.353324 200.060021 
L 83.38387 215.403463 
L 83.908043 217.454592 
L 83.920113 222.381048 
L 84.425315 217.051873 
L 85.009698 233.227916 
L 85.116114 225.281363 
L 85.244911 230.52286 
L 86.073197 233.058441 
L 86.097722 213.872539 
L 86.146366 218.617635 
L 86.839065 214.970433 
L 86.926508 227.160581 
L 87.161709 235.613573 
L 88.463761 220.327101 
L 88.476165 232.497726 
L 88.984612 220.524435 
L 90.289885 230.492212 
L 90.377486 234.858213 
L 90.756136 228.842393 
L 91.557008 218.526622 
L 92.359892 213.374408 
L 92.631974 231.272388 
L 93.158354 239.132395 
L 93.503901 215.151343 
L 93.546971 239.635467 
L 93.771638 232.61419 
L 94.284062 237.546971 
L 94.408313 239.886463 
L 95.094297 239.424631 
L 95.156436 238.412332 
L 95.662486 223.423185 
L 95.699678 244.634553 
L 96.134244 244.812376 
L 96.276701 241.360674 
L 96.670324 236.325437 
L 97.566507 232.987998 
L 97.90031 222.723891 
L 98.080505 223.519271 
L 98.674316 239.534043 
L 98.749965 223.682127 
L 99.633182 238.373492 
L 100.319524 233.502962 
L 100.479451 238.351766 
L 101.180897 228.181413 
L 101.229971 240.718643 
L 101.480893 249.756897 
L 102.047385 240.710764 
L 102.444846 239.31514 
L 102.737836 226.119873 
L 102.879177 230.048823 
L 103.298289 229.615063 
L 103.359554 239.460662 
L 103.378275 227.225971 
L 103.469629 237.534163 
L 103.673008 246.915671 
L 104.805533 228.824877 
L 105.393391 236.721268 
L 105.454225 230.761674 
L 105.673155 223.026888 
L 106.646688 240.869025 
L 107.108144 242.299552 
L 107.80887 243.099158 
L 108.061211 246.203767 
L 108.948502 254.47546 
L 108.979421 243.553295 
L 109.035098 246.828262 
L 109.606359 254.095205 
L 109.848497 245.10155 
L 110.426317 237.408862 
L 110.637179 239.825367 
L 111.007632 240.976438 
L 112.136407 247.969796 
L 112.297664 252.497017 
L 112.316175 243.935248 
L 112.444656 251.96701 
L 112.486999 243.928127 
L 112.843408 246.758204 
L 113.223496 246.867106 
L 114.481344 236.944325 
L 114.823094 235.225681 
L 115.019147 232.108216 
L 115.75728 247.028646 
L 116.243709 243.127863 
L 116.285956 241.556599 
L 116.365859 244.078851 
L 116.915379 248.765396 
L 117.054883 246.807371 
L 117.16536 248.823385 
L 118.057366 256.040539 
L 119.384883 241.703273 
L 119.546319 241.238266 
L 120.743098 253.058318 
L 120.786304 250.613477 
L 121.509982 255.691828 
L 122.012258 249.685074 
L 122.280404 249.324807 
L 122.812361 250.776931 
L 123.006921 253.250257 
L 123.108504 259.599145 
L 123.465035 243.976544 
L 123.750178 253.88341 
L 123.756368 250.474385 
L 124.277428 254.039231 
L 124.334088 251.191113 
L 124.660177 246.409581 
L 124.679634 250.544659 
L 125.060234 238.204201 
L 125.109513 249.243042 
L 125.905797 257.128504 
L 126.024165 252.976155 
L 126.081043 262.399848 
L 126.505463 255.286283 
L 126.519059 251.648313 
L 126.896199 257.241587 
L 127.892355 258.168305 
L 128.225026 252.415288 
L 128.54501 257.079658 
L 128.600655 252.057582 
L 128.706467 253.136536 
L 128.812855 247.818378 
L 129.328533 260.71327 
L 129.56129 258.332658 
L 130.025377 261.137128 
L 130.738486 258.754502 
L 131.340855 255.782624 
L 131.372176 247.848236 
L 131.599915 254.693736 
L 131.794796 248.362838 
L 132.400361 256.534745 
L 132.565514 248.383248 
L 132.690608 257.971055 
L 132.955295 257.141006 
L 133.355928 259.782824 
L 134.079789 259.841648 
L 134.4115 260.863195 
L 135.743649 262.215934 
L 135.918521 254.226567 
L 137.028186 263.406264 
L 137.416673 259.173163 
L 137.906235 257.270245 
L 138.012522 266.661899 
L 138.1821 264.84062 
L 138.313587 268.264801 
L 138.388444 258.731954 
L 138.483321 262.737684 
L 139.298443 250.251083 
L 140.348109 261.571085 
L 140.960722 257.026562 
L 141.225886 269.006695 
L 141.544401 259.993339 
L 141.689916 265.031881 
L 142.058914 258.319337 
L 142.07781 245.923941 
L 142.88033 265.099219 
L 143.099901 256.284648 
L 143.345185 260.353405 
L 144.567623 261.801431 
L 145.446655 262.106129 
L 145.857384 259.476974 
L 145.901481 257.022909 
L 146.064007 263.661299 
L 146.176153 258.957816 
L 146.543314 265.371371 
L 146.856244 261.220319 
L 148.009547 256.14743 
L 148.047502 265.425647 
L 148.235353 251.513022 
L 148.291174 262.617553 
L 148.352714 260.726306 
L 148.927965 259.685116 
L 148.984413 257.559262 
L 149.115997 256.871022 
L 149.512298 256.300803 
L 149.630715 258.380517 
L 150.866738 261.128463 
L 151.155936 263.859662 
L 151.430796 261.946666 
L 151.973779 260.25908 
L 152.336387 253.574851 
L 153.263925 257.783001 
L 153.27635 262.085527 
L 153.475694 260.362158 
L 153.669629 256.349917 
L 154.932566 268.9901 
L 155.082508 262.524286 
L 155.138091 264.551769 
L 155.48173 257.594622 
L 156.507754 261.683944 
L 157.143297 266.2844 
L 157.275024 266.366942 
L 158.107634 258.867313 
L 158.556602 264.126622 
L 158.693282 268.359952 
L 158.799226 261.877333 
L 159.086185 263.311811 
L 159.701103 262.346768 
L 160.19773 274.195621 
L 160.895009 268.133933 
L 161.58873 271.142965 
L 161.594933 268.284409 
L 161.893275 269.010289 
L 162.157453 264.017199 
L 163.205126 265.420349 
L 163.398432 272.65265 
L 163.6125 268.040483 
L 164.284347 261.454469 
L 164.766267 269.01831 
L 164.791692 260.824351 
L 164.909728 266.187306 
L 165.319671 256.906005 
L 165.564278 269.249733 
L 165.626932 261.269466 
L 166.180197 263.536668 
L 166.268404 268.041543 
L 166.499772 261.024895 
L 166.681603 262.734706 
L 167.296281 271.878951 
L 168.744516 257.96646 
L 168.91943 269.403802 
L 168.975765 266.159086 
L 169.368417 260.728666 
L 169.442852 261.6874 
L 169.84331 256.140326 
L 170.687656 268.674176 
L 171.023272 265.013669 
L 171.853891 270.728819 
L 171.860399 265.591861 
L 172.733726 259.158188 
L 173.491052 267.608273 
L 173.534264 266.370381 
L 174.313342 265.925289 
L 175.310779 259.990256 
L 175.577631 269.960365 
L 176.000608 261.270048 
L 176.33391 271.722165 
L 176.974417 265.149253 
L 178.56377 270.702873 
L 178.601274 262.447576 
L 179.369405 264.579722 
L 179.851273 267.891492 
L 179.888254 258.449784 
L 180.425394 270.174516 
L 180.570854 265.30393 
L 181.009333 264.123827 
L 181.146026 263.418539 
L 181.353624 267.341917 
L 181.504028 263.409334 
L 181.756704 262.916903 
L 181.869918 265.058421 
L 181.907208 264.996091 
L 181.926289 262.128443 
L 182.403739 261.845248 
L 182.410324 254.919892 
L 182.705986 267.529698 
L 182.902184 267.194374 
L 183.069904 268.141205 
L 183.088138 261.422088 
L 183.119439 269.428602 
L 183.56482 264.649411 
L 183.633067 262.429167 
L 183.939359 263.210999 
L 184.294149 256.176208 
L 184.576181 266.000245 
L 184.831672 262.674161 
L 184.918686 271.393758 
L 185.156263 260.046387 
L 185.856686 267.93216 
L 185.989069 267.515588 
L 186.423095 266.878177 
L 186.442203 263.309523 
L 186.448273 265.860164 
L 186.75244 267.098452 
L 186.903755 266.06364 
L 187.7317 270.06386 
L 188.312786 262.384058 
L 188.712249 270.504554 
L 189.11859 267.826836 
L 189.262295 265.394836 
L 189.787405 264.872584 
L 189.805981 267.816132 
L 189.838128 266.216569 
L 190.256964 267.711724 
L 190.369644 266.756452 
L 190.836611 260.19884 
L 191.080537 263.388706 
L 192.070833 266.510477 
L 192.339509 266.066175 
L 192.784569 261.119485 
L 192.946773 262.215275 
L 193.078736 259.057354 
L 193.116129 261.634071 
L 194.108976 266.178687 
L 195.613557 266.133291 
L 195.908505 272.082696 
L 196.148661 265.931885 
L 196.322812 273.871768 
L 197.036317 270.786439 
L 197.255855 266.091605 
L 197.488155 256.394657 
L 198.058456 268.988852 
L 198.875649 264.965403 
L 199.345037 260.51537 
L 199.909582 263.284583 
L 199.928201 264.940854 
L 200.844259 260.19931 
L 200.869286 259.00073 
L 201.209641 268.810563 
L 201.484463 259.315534 
L 201.547572 269.604674 
L 201.711134 259.608364 
L 201.991036 260.805643 
L 202.135602 262.37757 
L 202.455439 262.859062 
L 202.725603 267.066893 
L 203.021678 268.315152 
L 203.728173 269.009293 
L 204.034549 266.385816 
L 204.544596 268.89229 
L 204.613188 266.346069 
L 205.191438 271.248027 
L 205.5489 267.617889 
L 206.217657 265.547412 
L 207.100231 269.26942 
L 207.344298 265.802638 
L 207.524854 266.783172 
L 208.070447 266.406739 
L 208.370674 271.627264 
L 208.383118 270.661312 
L 208.62169 265.128428 
L 208.76484 265.63931 
L 209.212671 267.809933 
L 210.497183 264.492398 
L 211.110462 261.494236 
L 211.160414 260.33839 
L 212.24696 261.655223 
L 212.453742 265.830017 
L 213.163863 262.958775 
L 213.705121 262.03328 
L 214.16528 262.44234 
L 214.322842 266.547386 
L 214.404741 265.991134 
L 214.461057 263.316722 
L 214.957446 266.481884 
L 215.323969 263.409958 
L 216.03412 259.797137 
L 216.127775 268.301963 
L 216.620733 258.694795 
L 217.955748 268.115944 
L 218.173548 266.329378 
L 218.635426 260.651083 
L 219.409905 265.632332 
L 219.541139 261.49351 
L 220.097214 268.36419 
L 220.185031 264.254847 
L 220.955914 261.534288 
L 221.024922 267.928329 
L 221.648591 266.295886 
L 222.066146 269.526904 
L 223.315107 268.019285 
L 224.10788 266.308381 
L 224.113939 265.906084 
L 224.295071 271.697641 
L 224.307699 263.169847 
L 224.923528 270.952807 
L 226.258213 267.623679 
L 226.295143 270.374404 
L 226.333038 261.648564 
L 226.36433 267.959808 
L 227.082782 266.675639 
L 228.523633 262.089645 
L 229.133049 271.963558 
L 229.238901 265.223581 
L 229.351622 270.406857 
L 229.982472 271.363074 
L 230.521029 269.602354 
L 231.089964 268.998447 
L 231.102526 271.943423 
L 231.302873 272.019074 
L 231.415214 266.515243 
L 233.180661 267.285756 
L 233.34408 264.569718 
L 233.619872 269.461839 
L 234.355824 266.750441 
L 234.436081 272.903355 
L 235.022449 271.254873 
L 235.204648 267.460453 
L 235.452876 264.668319 
L 237.69955 266.71345 
L 237.86132 270.116034 
L 238.000136 262.947922 
L 238.274455 272.988689 
L 238.374771 272.687671 
L 238.449155 264.732069 
L 239.146057 272.143858 
L 239.533801 268.37781 
L 240.841857 268.394529 
L 240.941894 265.581085 
L 241.257053 264.594667 
L 241.276071 263.261217 
L 241.407495 269.5022 
L 241.601401 263.656782 
L 241.721405 268.246471 
L 242.575142 265.117028 
L 243.082261 268.758033 
L 243.088729 266.21026 
L 243.3002 267.115077 
L 244.156505 265.434445 
L 244.187308 266.500906 
L 244.348699 267.253926 
L 244.635423 266.309059 
L 244.730035 272.967096 
L 245.24269 267.381934 
L 245.674004 265.510228 
L 245.929357 268.605407 
L 246.199145 270.262613 
L 247.024093 262.791636 
L 247.067141 271.851419 
L 247.092385 271.669759 
L 247.730094 267.309404 
L 247.980765 259.851589 
L 248.569098 264.163194 
L 248.768495 262.962977 
L 250.738906 268.898102 
L 251.072666 272.36382 
L 252.963507 262.129352 
L 253.205472 266.943733 
L 254.809579 268.768141 
L 254.974363 269.649219 
L 255.225873 269.813876 
L 255.515629 272.000068 
L 255.921005 262.948149 
L 255.96567 269.792602 
L 256.016338 268.612511 
L 256.318711 258.244668 
L 256.375037 265.50265 
L 256.746002 268.941307 
L 256.827588 271.219771 
L 257.812975 270.002829 
L 258.019913 264.072083 
L 258.282849 266.340215 
L 260.032379 268.771948 
L 260.112867 264.273505 
L 260.542674 271.141672 
L 260.832732 268.935989 
L 261.139062 270.503288 
L 261.487646 262.594366 
L 262.312112 274.2997 
L 262.362768 264.751238 
L 262.994343 265.995916 
L 263.069233 270.485859 
L 263.1947 267.074264 
L 263.934708 272.320208 
L 264.102038 269.396672 
L 264.114629 266.760445 
L 264.679032 272.651244 
L 265.285755 266.843092 
L 265.330068 271.503302 
L 265.507403 266.657985 
L 266.362838 269.191187 
L 266.937643 271.870707 
L 266.981614 274.376991 
L 267.54632 269.887369 
L 267.602133 272.401452 
L 267.795853 266.869594 
L 267.902166 269.38189 
L 268.239271 264.530605 
L 268.314122 265.824924 
L 268.470727 272.244746 
L 268.704373 269.166435 
L 269.35393 270.137966 
L 269.473363 274.898045 
L 269.516761 270.842244 
L 269.804436 267.275967 
L 270.130915 269.790089 
L 270.149553 267.154121 
L 270.368234 269.564971 
L 271.182674 267.598734 
L 271.507744 273.818822 
L 271.513788 269.398809 
L 271.645284 272.172116 
L 271.989822 266.483666 
L 272.533546 261.172328 
L 272.540058 259.847624 
L 272.777388 269.463288 
L 273.054816 264.841607 
L 274.147381 271.08217 
L 274.740452 269.871921 
L 275.997066 264.824816 
L 276.222372 266.885843 
L 276.610832 267.763459 
L 277.092576 268.095877 
L 277.587299 269.069126 
L 277.718615 266.58455 
L 277.768758 268.214476 
L 277.850616 259.679606 
L 277.900432 262.47292 
L 278.524674 264.562074 
L 278.537365 267.471998 
L 279.084595 262.545372 
L 279.103684 268.833539 
L 280.342686 262.778551 
L 280.385979 270.292721 
L 280.79693 264.340191 
L 280.828895 265.260155 
L 281.48431 268.170699 
L 281.590453 264.819994 
L 282.012048 263.493752 
L 282.138219 265.065936 
L 282.808724 266.077535 
L 283.228578 266.205652 
L 283.322899 271.209529 
L 283.503301 263.714122 
L 283.721415 265.400201 
L 283.883568 269.198963 
L 285.33763 265.916208 
L 285.712204 266.893615 
L 285.898023 270.082745 
L 286.016612 264.931717 
L 286.846718 269.538604 
L 286.90231 267.603884 
L 287.095241 272.963931 
L 287.452917 269.043247 
L 288.36638 270.361286 
L 289.090135 267.336352 
L 289.296699 269.841504 
L 289.980382 268.446214 
L 290.884421 259.078835 
L 291.096414 266.443917 
L 292.831707 260.695088 
L 293.10252 269.93048 
L 293.537432 269.08246 
L 294.890595 273.432915 
L 295.528638 271.213227 
L 295.87571 265.944018 
L 295.969738 275.660894 
L 296.617933 270.966428 
L 297.08238 270.715779 
L 297.183257 266.544795 
L 297.251514 269.450882 
L 297.46496 268.275949 
L 297.969711 266.426791 
L 298.354228 266.693175 
L 298.360507 259.123518 
L 298.847235 267.712322 
L 299.114769 268.764503 
L 299.596978 264.476991 
L 300.475639 268.220944 
L 300.620684 270.690126 
L 300.626834 262.074957 
L 301.479737 269.434342 
L 302.079694 259.012755 
L 302.449403 267.21045 
L 302.519398 263.503706 
L 304.303751 271.038639 
L 305.002142 264.109605 
L 305.177541 260.58353 
L 306.101564 268.895068 
L 306.295428 268.76562 
L 306.326718 265.825982 
L 306.433273 267.665473 
L 306.753425 266.492967 
L 306.99255 266.890495 
L 308.276954 265.197643 
L 308.729764 267.028417 
L 309.388373 271.603937 
L 309.935506 270.0367 
L 310.010705 270.415353 
L 310.211062 270.674812 
L 310.385763 266.614975 
L 310.933422 256.62597 
L 311.058066 269.064804 
L 311.251595 271.886083 
L 311.265181 264.594047 
L 311.353161 271.923074 
L 311.39045 266.288855 
L 311.849548 268.431199 
L 313.398647 268.134189 
L 313.952646 267.108278 
L 314.116925 271.309925 
L 314.684022 265.657869 
L 314.854364 262.037207 
L 315.294172 260.598512 
L 315.72221 269.447741 
L 316.233498 268.032763 
L 316.532306 261.401919 
L 316.970357 265.75354 
L 317.087771 262.872472 
L 318.035659 270.228212 
L 318.438712 266.861663 
L 318.605615 263.559181 
L 319.455697 265.495869 
L 319.499648 272.286759 
L 319.612334 269.751856 
L 320.257239 270.737101 
L 320.407713 270.038761 
L 320.469359 266.589531 
L 320.556789 267.429899 
L 320.946212 262.744853 
L 321.54261 260.302171 
L 322.239463 264.354975 
L 322.351661 266.276099 
L 322.414949 269.592976 
L 322.548175 265.994999 
L 323.229576 270.364031 
L 323.673162 267.06653 
L 324.29032 266.755715 
L 325.258267 265.435506 
L 325.463415 266.094969 
L 325.570096 268.532144 
L 325.8142 265.721036 
L 327.427388 269.354535 
L 328.656192 263.850602 
L 328.931896 269.841307 
L 329.337984 262.305153 
L 329.690559 265.994195 
L 330.143108 270.117298 
L 330.338107 266.55099 
L 330.737142 270.730451 
L 330.943333 268.952904 
L 331.812524 272.914387 
L 331.837564 267.293225 
L 331.91958 268.066604 
L 332.423717 267.979037 
L 332.448693 266.036944 
L 332.674953 271.282749 
L 333.221141 272.469226 
L 333.264858 266.119343 
L 333.541164 273.865936 
L 333.874575 271.973273 
L 334.120608 267.895642 
L 334.506891 267.459261 
L 335.11793 267.716994 
L 335.356168 268.673877 
L 335.643225 269.03711 
L 335.65009 265.428244 
L 336.020373 266.739331 
L 336.548555 266.061304 
L 336.69938 261.807893 
L 337.00806 260.459027 
L 337.095169 264.879381 
L 338.026065 263.101535 
L 338.214167 268.710156 
L 338.586001 267.060644 
L 338.907521 266.43478 
L 340.253297 271.39186 
L 340.583129 269.528457 
L 341.428934 269.345009 
L 341.652504 272.055777 
L 342.298194 259.883767 
L 342.373392 263.417949 
L 343.082696 266.749319 
L 343.51082 256.351768 
L 343.731113 260.0292 
L 344.678223 267.016458 
L 344.734555 270.589213 
L 344.904511 267.708021 
L 345.092873 260.565143 
L 345.305968 264.526461 
L 345.587549 264.772159 
L 345.637453 265.356972 
L 345.81928 265.504328 
L 346.525775 274.945675 
L 346.62612 266.694395 
L 347.013551 267.745938 
L 347.120252 269.685364 
L 347.659893 268.082899 
L 347.717093 272.78701 
L 348.902025 261.18469 
L 349.229691 263.824445 
L 351.178452 270.457998 
L 352.057951 263.074293 
L 352.328564 267.298913 
L 352.660502 270.658549 
L 352.705233 260.924928 
L 352.829362 267.934903 
L 352.993376 265.886096 
L 353.555279 267.095892 
L 353.882456 268.734864 
L 354.259254 264.320689 
L 354.302737 258.450916 
L 354.484382 268.897133 
L 354.817774 267.15715 
L 354.924875 268.235252 
L 355.162962 261.763205 
L 355.239657 269.241098 
L 355.441285 269.979428 
L 355.484948 263.294964 
L 355.573618 269.480467 
L 356.355536 257.266942 
L 356.393947 263.245365 
L 356.654129 259.493221 
L 356.680313 269.038398 
L 356.768144 258.909552 
L 356.912516 266.560031 
L 357.579288 269.4445 
L 357.84979 257.88296 
L 358.236562 263.227027 
L 358.337026 261.451897 
L 358.525181 265.521396 
L 359.740001 261.434136 
L 360.021525 260.944715 
L 360.323622 266.67052 
L 360.373714 264.989974 
L 361.051284 266.382701 
L 361.176372 260.792431 
L 362.389349 263.733008 
L 363.257403 264.817471 
L 365.083342 270.077942 
L 365.425489 267.800896 
L 365.582685 264.358435 
L 366.377196 262.299002 
L 366.887542 268.812026 
L 367.270488 262.589847 
L 367.389733 264.429073 
L 367.762069 254.231801 
L 368.985092 265.125603 
L 369.700988 268.561124 
L 370.010773 265.492434 
L 370.242749 267.324941 
L 370.593072 262.410484 
L 370.693304 269.101095 
L 370.88022 266.200085 
L 371.336407 272.681526 
L 372.056379 270.977933 
L 372.607889 265.453251 
L 373.032485 269.465413 
L 373.220325 269.30104 
L 373.482835 266.638329 
L 373.614751 274.755066 
L 373.65269 264.005325 
L 374.794403 263.86434 
L 375.8024 269.836647 
L 376.029619 270.410188 
L 376.754286 269.321866 
L 376.779741 271.08367 
L 377.365433 266.853561 
L 377.711732 266.283432 
L 378.090155 266.121324 
L 378.684253 264.985092 
L 379.968252 271.385829 
L 380.654644 260.910331 
L 380.929419 265.333783 
L 380.955349 268.401559 
L 381.00717 262.803646 
L 381.938013 265.286396 
L 382.232599 264.160662 
L 382.645156 271.231832 
L 382.657644 267.937241 
L 383.713536 264.343986 
L 384.059325 273.763645 
L 384.234975 264.09185 
L 384.442035 269.406036 
L 384.592524 269.258907 
L 384.655234 267.082299 
L 385.392903 265.11255 
L 385.430912 267.503666 
L 385.545981 261.580252 
L 386.256915 272.774598 
L 386.513509 271.85803 
L 387.148843 265.484218 
L 387.268414 274.884983 
L 387.864331 268.66657 
L 387.921453 269.5687 
L 388.129173 262.158435 
L 389.089386 275.803933 
L 389.185581 271.440248 
L 389.624588 267.102817 
L 391.030377 266.253531 
L 391.080373 271.387888 
L 391.538787 265.185536 
L 392.585168 271.576827 
L 392.949441 265.859443 
L 392.992967 263.08762 
L 393.017593 265.572086 
L 393.043229 268.525658 
L 393.687542 269.804538 
L 393.926762 267.570803 
L 394.132011 259.775379 
L 394.202081 266.003326 
L 394.93226 271.908419 
L 395.239195 272.932119 
L 395.483683 264.889483 
L 395.558102 267.786839 
L 395.933707 270.090549 
L 396.297395 266.398168 
L 397.09221 266.205863 
L 397.706628 273.057189 
L 398.476725 262.837307 
L 398.841324 271.086355 
L 399.116592 271.871208 
L 399.199108 271.757872 
L 399.293204 267.459167 
L 399.847343 273.334916 
L 399.859736 263.620194 
L 400.200518 265.521378 
L 400.666904 269.247175 
L 400.948001 264.416677 
L 401.255327 265.772819 
L 402.272854 263.208284 
L 402.940536 266.614789 
L 402.961668 258.433328 
L 403.127068 265.188249 
L 403.32326 264.775063 
L 404.446011 260.110753 
L 404.476928 265.101834 
L 404.526877 261.456412 
L 404.714983 266.297496 
L 405.552553 269.157693 
L 406.068027 263.685878 
L 406.54052 271.072187 
L 407.127397 269.501297 
L 407.146908 264.632806 
L 407.93344 269.061362 
L 409.274948 268.601046 
L 409.483257 267.186533 
L 409.746513 259.0331 
L 409.949121 269.973405 
L 410.082017 262.70631 
L 410.555822 271.635876 
L 410.688081 271.54356 
L 410.7004 268.782919 
L 411.194003 270.273799 
L 411.852999 264.941408 
L 412.315611 267.5628 
L 412.521773 259.937156 
L 412.746886 268.28455 
L 412.946625 268.707443 
L 413.644355 267.980851 
L 413.876023 268.002029 
L 414.72 262.961111 
L 414.72 262.961111 
" style="fill:none;stroke:#000000;stroke-linecap:square;stroke-width:0.8;"/>
   </g>
   <g id="patch_3">
    <path d="M 57.6 307.584 
L 57.6 41.472 
" style="fill:none;stroke:#000000;stroke-linecap:square;stroke-linejoin:miter;stroke-width:0.8;"/>
   </g>
   <g id="patch_4">
    <path d="M 414.72 307.584 
L 414.72 41.472 
" style="fill:none;stroke:#000000;stroke-linecap:square;stroke-linejoin:miter;stroke-width:0.8;"/>
   </g>
   <g id="patch_5">
    <path d="M 57.6 307.584 
L 414.72 307.584 
" style="fill:none;stroke:#000000;stroke-linecap:square;stroke-linejoin:miter;stroke-width:0.8;"/>
   </g>
   <g id="patch_6">
    <path d="M 57.6 41.472 
L 414.72 41.472 
" style="fill:none;stroke:#000000;stroke-linecap:square;stroke-linejoin:miter;stroke-width:0.8;"/>
   </g>
  </g>
  <g id="axes_2">
   <g id="matplotlib.axis_3">
    <g id="xtick_7">
     <g id="line2d_28">
      <defs>
       <path d="M 0 0 
L 0 -3.5 
" id="me5b70f152c" style="stroke:#000000;stroke-width:0.8;"/>
      </defs>
      <g>
       <use style="stroke:#000000;stroke-width:0.8;" x="57.6" xlink:href="#me5b70f152c" y="41.472"/>
      </g>
     </g>
    </g>
    <g id="xtick_8">
     <g id="line2d_29">
      <g>
       <use style="stroke:#000000;stroke-width:0.8;" x="120.067421" xlink:href="#me5b70f152c" y="41.472"/>
      </g>
     </g>
     <g id="text_16">
      <!-- 1,000K -->
      <defs>
       <path d="M 11.71875 12.40625 
L 22.015625 12.40625 
L 22.015625 4 
L 14.015625 -11.625 
L 7.71875 -11.625 
L 11.71875 4 
z
" id="DejaVuSans-44"/>
       <path d="M 9.8125 72.90625 
L 19.671875 72.90625 
L 19.671875 42.09375 
L 52.390625 72.90625 
L 65.09375 72.90625 
L 28.90625 38.921875 
L 67.671875 0 
L 54.6875 0 
L 19.671875 35.109375 
L 19.671875 0 
L 9.8125 0 
z
" id="DejaVuSans-75"/>
      </defs>
      <g transform="translate(102.474452 32.392313)scale(0.1 -0.1)">
       <use xlink:href="#DejaVuSans-49"/>
       <use x="63.623047" xlink:href="#DejaVuSans-44"/>
       <use x="95.410156" xlink:href="#DejaVuSans-48"/>
       <use x="159.033203" xlink:href="#DejaVuSans-48"/>
       <use x="222.65625" xlink:href="#DejaVuSans-48"/>
       <use x="286.279297" xlink:href="#DejaVuSans-75"/>
      </g>
     </g>
    </g>
    <g id="xtick_9">
     <g id="line2d_30">
      <g>
       <use style="stroke:#000000;stroke-width:0.8;" x="182.534842" xlink:href="#me5b70f152c" y="41.472"/>
      </g>
     </g>
     <g id="text_17">
      <!-- 2.00M -->
      <defs>
       <path d="M 10.6875 12.40625 
L 21 12.40625 
L 21 0 
L 10.6875 0 
z
" id="DejaVuSans-46"/>
       <path d="M 9.8125 72.90625 
L 24.515625 72.90625 
L 43.109375 23.296875 
L 61.8125 72.90625 
L 76.515625 72.90625 
L 76.515625 0 
L 66.890625 0 
L 66.890625 64.015625 
L 48.09375 14.015625 
L 38.1875 14.015625 
L 19.390625 64.015625 
L 19.390625 0 
L 9.8125 0 
z
" id="DejaVuSans-77"/>
      </defs>
      <g transform="translate(167.087967 32.392313)scale(0.1 -0.1)">
       <use xlink:href="#DejaVuSans-50"/>
       <use x="63.623047" xlink:href="#DejaVuSans-46"/>
       <use x="95.410156" xlink:href="#DejaVuSans-48"/>
       <use x="159.033203" xlink:href="#DejaVuSans-48"/>
       <use x="222.65625" xlink:href="#DejaVuSans-77"/>
      </g>
     </g>
    </g>
    <g id="xtick_10">
     <g id="line2d_31">
      <g>
       <use style="stroke:#000000;stroke-width:0.8;" x="245.002263" xlink:href="#me5b70f152c" y="41.472"/>
      </g>
     </g>
     <g id="text_18">
      <!-- 3.00M -->
      <defs>
       <path d="M 40.578125 39.3125 
Q 47.65625 37.796875 51.625 33 
Q 55.609375 28.21875 55.609375 21.1875 
Q 55.609375 10.40625 48.1875 4.484375 
Q 40.765625 -1.421875 27.09375 -1.421875 
Q 22.515625 -1.421875 17.65625 -0.515625 
Q 12.796875 0.390625 7.625 2.203125 
L 7.625 11.71875 
Q 11.71875 9.328125 16.59375 8.109375 
Q 21.484375 6.890625 26.8125 6.890625 
Q 36.078125 6.890625 40.9375 10.546875 
Q 45.796875 14.203125 45.796875 21.1875 
Q 45.796875 27.640625 41.28125 31.265625 
Q 36.765625 34.90625 28.71875 34.90625 
L 20.21875 34.90625 
L 20.21875 43.015625 
L 29.109375 43.015625 
Q 36.375 43.015625 40.234375 45.921875 
Q 44.09375 48.828125 44.09375 54.296875 
Q 44.09375 59.90625 40.109375 62.90625 
Q 36.140625 65.921875 28.71875 65.921875 
Q 24.65625 65.921875 20.015625 65.03125 
Q 15.375 64.15625 9.8125 62.3125 
L 9.8125 71.09375 
Q 15.4375 72.65625 20.34375 73.4375 
Q 25.25 74.21875 29.59375 74.21875 
Q 40.828125 74.21875 47.359375 69.109375 
Q 53.90625 64.015625 53.90625 55.328125 
Q 53.90625 49.265625 50.4375 45.09375 
Q 46.96875 40.921875 40.578125 39.3125 
z
" id="DejaVuSans-51"/>
      </defs>
      <g transform="translate(229.555388 32.392313)scale(0.1 -0.1)">
       <use xlink:href="#DejaVuSans-51"/>
       <use x="63.623047" xlink:href="#DejaVuSans-46"/>
       <use x="95.410156" xlink:href="#DejaVuSans-48"/>
       <use x="159.033203" xlink:href="#DejaVuSans-48"/>
       <use x="222.65625" xlink:href="#DejaVuSans-77"/>
      </g>
     </g>
    </g>
    <g id="xtick_11">
     <g id="line2d_32">
      <g>
       <use style="stroke:#000000;stroke-width:0.8;" x="307.469685" xlink:href="#me5b70f152c" y="41.472"/>
      </g>
     </g>
     <g id="text_19">
      <!-- 4.00M -->
      <g transform="translate(292.02281 32.392313)scale(0.1 -0.1)">
       <use xlink:href="#DejaVuSans-52"/>
       <use x="63.623047" xlink:href="#DejaVuSans-46"/>
       <use x="95.410156" xlink:href="#DejaVuSans-48"/>
       <use x="159.033203" xlink:href="#DejaVuSans-48"/>
       <use x="222.65625" xlink:href="#DejaVuSans-77"/>
      </g>
     </g>
    </g>
    <g id="xtick_12">
     <g id="line2d_33">
      <g>
       <use style="stroke:#000000;stroke-width:0.8;" x="369.937106" xlink:href="#me5b70f152c" y="41.472"/>
      </g>
     </g>
     <g id="text_20">
      <!-- 5.00M -->
      <defs>
       <path d="M 10.796875 72.90625 
L 49.515625 72.90625 
L 49.515625 64.59375 
L 19.828125 64.59375 
L 19.828125 46.734375 
Q 21.96875 47.46875 24.109375 47.828125 
Q 26.265625 48.1875 28.421875 48.1875 
Q 40.625 48.1875 47.75 41.5 
Q 54.890625 34.8125 54.890625 23.390625 
Q 54.890625 11.625 47.5625 5.09375 
Q 40.234375 -1.421875 26.90625 -1.421875 
Q 22.3125 -1.421875 17.546875 -0.640625 
Q 12.796875 0.140625 7.71875 1.703125 
L 7.71875 11.625 
Q 12.109375 9.234375 16.796875 8.0625 
Q 21.484375 6.890625 26.703125 6.890625 
Q 35.15625 6.890625 40.078125 11.328125 
Q 45.015625 15.765625 45.015625 23.390625 
Q 45.015625 31 40.078125 35.4375 
Q 35.15625 39.890625 26.703125 39.890625 
Q 22.75 39.890625 18.8125 39.015625 
Q 14.890625 38.140625 10.796875 36.28125 
z
" id="DejaVuSans-53"/>
      </defs>
      <g transform="translate(354.490231 32.392313)scale(0.1 -0.1)">
       <use xlink:href="#DejaVuSans-53"/>
       <use x="63.623047" xlink:href="#DejaVuSans-46"/>
       <use x="95.410156" xlink:href="#DejaVuSans-48"/>
       <use x="159.033203" xlink:href="#DejaVuSans-48"/>
       <use x="222.65625" xlink:href="#DejaVuSans-77"/>
      </g>
     </g>
    </g>
    <g id="text_21">
     <!-- Steps -->
     <defs>
      <path d="M 53.515625 70.515625 
L 53.515625 60.890625 
Q 47.90625 63.578125 42.921875 64.890625 
Q 37.9375 66.21875 33.296875 66.21875 
Q 25.25 66.21875 20.875 63.09375 
Q 16.5 59.96875 16.5 54.203125 
Q 16.5 49.359375 19.40625 46.890625 
Q 22.3125 44.4375 30.421875 42.921875 
L 36.375 41.703125 
Q 47.40625 39.59375 52.65625 34.296875 
Q 57.90625 29 57.90625 20.125 
Q 57.90625 9.515625 50.796875 4.046875 
Q 43.703125 -1.421875 29.984375 -1.421875 
Q 24.8125 -1.421875 18.96875 -0.25 
Q 13.140625 0.921875 6.890625 3.21875 
L 6.890625 13.375 
Q 12.890625 10.015625 18.65625 8.296875 
Q 24.421875 6.59375 29.984375 6.59375 
Q 38.421875 6.59375 43.015625 9.90625 
Q 47.609375 13.234375 47.609375 19.390625 
Q 47.609375 24.75 44.3125 27.78125 
Q 41.015625 30.8125 33.5 32.328125 
L 27.484375 33.5 
Q 16.453125 35.6875 11.515625 40.375 
Q 6.59375 45.0625 6.59375 53.421875 
Q 6.59375 63.09375 13.40625 68.65625 
Q 20.21875 74.21875 32.171875 74.21875 
Q 37.3125 74.21875 42.625 73.28125 
Q 47.953125 72.359375 53.515625 70.515625 
z
" id="DejaVuSans-83"/>
      <path d="M 18.3125 70.21875 
L 18.3125 54.6875 
L 36.8125 54.6875 
L 36.8125 47.703125 
L 18.3125 47.703125 
L 18.3125 18.015625 
Q 18.3125 11.328125 20.140625 9.421875 
Q 21.96875 7.515625 27.59375 7.515625 
L 36.8125 7.515625 
L 36.8125 0 
L 27.59375 0 
Q 17.1875 0 13.234375 3.875 
Q 9.28125 7.765625 9.28125 18.015625 
L 9.28125 47.703125 
L 2.6875 47.703125 
L 2.6875 54.6875 
L 9.28125 54.6875 
L 9.28125 70.21875 
z
" id="DejaVuSans-116"/>
      <path d="M 56.203125 29.59375 
L 56.203125 25.203125 
L 14.890625 25.203125 
Q 15.484375 15.921875 20.484375 11.0625 
Q 25.484375 6.203125 34.421875 6.203125 
Q 39.59375 6.203125 44.453125 7.46875 
Q 49.3125 8.734375 54.109375 11.28125 
L 54.109375 2.78125 
Q 49.265625 0.734375 44.1875 -0.34375 
Q 39.109375 -1.421875 33.890625 -1.421875 
Q 20.796875 -1.421875 13.15625 6.1875 
Q 5.515625 13.8125 5.515625 26.8125 
Q 5.515625 40.234375 12.765625 48.109375 
Q 20.015625 56 32.328125 56 
Q 43.359375 56 49.78125 48.890625 
Q 56.203125 41.796875 56.203125 29.59375 
z
M 47.21875 32.234375 
Q 47.125 39.59375 43.09375 43.984375 
Q 39.0625 48.390625 32.421875 48.390625 
Q 24.90625 48.390625 20.390625 44.140625 
Q 15.875 39.890625 15.1875 32.171875 
z
" id="DejaVuSans-101"/>
      <path d="M 18.109375 8.203125 
L 18.109375 -20.796875 
L 9.078125 -20.796875 
L 9.078125 54.6875 
L 18.109375 54.6875 
L 18.109375 46.390625 
Q 20.953125 51.265625 25.265625 53.625 
Q 29.59375 56 35.59375 56 
Q 45.5625 56 51.78125 48.09375 
Q 58.015625 40.1875 58.015625 27.296875 
Q 58.015625 14.40625 51.78125 6.484375 
Q 45.5625 -1.421875 35.59375 -1.421875 
Q 29.59375 -1.421875 25.265625 0.953125 
Q 20.953125 3.328125 18.109375 8.203125 
z
M 48.6875 27.296875 
Q 48.6875 37.203125 44.609375 42.84375 
Q 40.53125 48.484375 33.40625 48.484375 
Q 26.265625 48.484375 22.1875 42.84375 
Q 18.109375 37.203125 18.109375 27.296875 
Q 18.109375 17.390625 22.1875 11.75 
Q 26.265625 6.109375 33.40625 6.109375 
Q 40.53125 6.109375 44.609375 11.75 
Q 48.6875 17.390625 48.6875 27.296875 
z
" id="DejaVuSans-112"/>
     </defs>
     <g transform="translate(222.170156 20.793875)scale(0.1 -0.1)">
      <use xlink:href="#DejaVuSans-83"/>
      <use x="63.476562" xlink:href="#DejaVuSans-116"/>
      <use x="102.685547" xlink:href="#DejaVuSans-101"/>
      <use x="164.208984" xlink:href="#DejaVuSans-112"/>
      <use x="227.685547" xlink:href="#DejaVuSans-115"/>
     </g>
    </g>
   </g>
   <g id="patch_7">
    <path d="M 57.6 307.584 
L 57.6 41.472 
" style="fill:none;stroke:#000000;stroke-linecap:square;stroke-linejoin:miter;stroke-width:0.8;"/>
   </g>
   <g id="patch_8">
    <path d="M 414.72 307.584 
L 414.72 41.472 
" style="fill:none;stroke:#000000;stroke-linecap:square;stroke-linejoin:miter;stroke-width:0.8;"/>
   </g>
   <g id="patch_9">
    <path d="M 57.6 307.584 
L 414.72 307.584 
" style="fill:none;stroke:#000000;stroke-linecap:square;stroke-linejoin:miter;stroke-width:0.8;"/>
   </g>
   <g id="patch_10">
    <path d="M 57.6 41.472 
L 414.72 41.472 
" style="fill:none;stroke:#000000;stroke-linecap:square;stroke-linejoin:miter;stroke-width:0.8;"/>
   </g>
  </g>
 </g>
 <defs>
  <clipPath id="pebae061397">
   <rect height="266.112" width="357.12" x="57.6" y="41.472"/>
  </clipPath>
 </defs>
</svg>
