<?xml version="1.0" encoding="utf-8" standalone="no"?>
<!DOCTYPE svg PUBLIC "-//W3C//DTD SVG 1.1//EN"
  "http://www.w3.org/Graphics/SVG/1.1/DTD/svg11.dtd">
<!-- Created with matplotlib (https://matplotlib.org/) -->
<svg height="345.6pt" version="1.1" viewBox="0 0 460.8 345.6" width="460.8pt" xmlns="http://www.w3.org/2000/svg" xmlns:xlink="http://www.w3.org/1999/xlink">
 <defs>
  <style type="text/css">
*{stroke-linecap:butt;stroke-linejoin:round;}
  </style>
 </defs>
 <g id="figure_1">
  <g id="patch_1">
   <path d="M 0 345.6 
L 460.8 345.6 
L 460.8 0 
L 0 0 
z
" style="fill:#ffffff;"/>
  </g>
  <g id="axes_1">
   <g id="patch_2">
    <path d="M 57.6 307.584 
L 414.72 307.584 
L 414.72 41.472 
L 57.6 41.472 
z
" style="fill:#ffffff;"/>
   </g>
   <g id="matplotlib.axis_1">
    <g id="xtick_1">
     <g id="line2d_1">
      <path clip-path="url(#p2cf103660e)" d="M 57.6 307.584 
L 57.6 41.472 
" style="fill:none;stroke:#b0b0b0;stroke-linecap:square;stroke-width:0.8;"/>
     </g>
     <g id="line2d_2">
      <defs>
       <path d="M 0 0 
L 0 3.5 
" id="m9d5dbee366" style="stroke:#000000;stroke-width:0.8;"/>
      </defs>
      <g>
       <use style="stroke:#000000;stroke-width:0.8;" x="57.6" xlink:href="#m9d5dbee366" y="307.584"/>
      </g>
     </g>
     <g id="text_1">
      <!-- 0 -->
      <defs>
       <path d="M 31.78125 66.40625 
Q 24.171875 66.40625 20.328125 58.90625 
Q 16.5 51.421875 16.5 36.375 
Q 16.5 21.390625 20.328125 13.890625 
Q 24.171875 6.390625 31.78125 6.390625 
Q 39.453125 6.390625 43.28125 13.890625 
Q 47.125 21.390625 47.125 36.375 
Q 47.125 51.421875 43.28125 58.90625 
Q 39.453125 66.40625 31.78125 66.40625 
z
M 31.78125 74.21875 
Q 44.046875 74.21875 50.515625 64.515625 
Q 56.984375 54.828125 56.984375 36.375 
Q 56.984375 17.96875 50.515625 8.265625 
Q 44.046875 -1.421875 31.78125 -1.421875 
Q 19.53125 -1.421875 13.0625 8.265625 
Q 6.59375 17.96875 6.59375 36.375 
Q 6.59375 54.828125 13.0625 64.515625 
Q 19.53125 74.21875 31.78125 74.21875 
z
" id="DejaVuSans-48"/>
      </defs>
      <g transform="translate(54.41875 322.182437)scale(0.1 -0.1)">
       <use xlink:href="#DejaVuSans-48"/>
      </g>
     </g>
    </g>
    <g id="xtick_2">
     <g id="line2d_3">
      <path clip-path="url(#p2cf103660e)" d="M 123.64068 307.584 
L 123.64068 41.472 
" style="fill:none;stroke:#b0b0b0;stroke-linecap:square;stroke-width:0.8;"/>
     </g>
     <g id="line2d_4">
      <g>
       <use style="stroke:#000000;stroke-width:0.8;" x="123.64068" xlink:href="#m9d5dbee366" y="307.584"/>
      </g>
     </g>
     <g id="text_2">
      <!-- 2 -->
      <defs>
       <path d="M 19.1875 8.296875 
L 53.609375 8.296875 
L 53.609375 0 
L 7.328125 0 
L 7.328125 8.296875 
Q 12.9375 14.109375 22.625 23.890625 
Q 32.328125 33.6875 34.8125 36.53125 
Q 39.546875 41.84375 41.421875 45.53125 
Q 43.3125 49.21875 43.3125 52.78125 
Q 43.3125 58.59375 39.234375 62.25 
Q 35.15625 65.921875 28.609375 65.921875 
Q 23.96875 65.921875 18.8125 64.3125 
Q 13.671875 62.703125 7.8125 59.421875 
L 7.8125 69.390625 
Q 13.765625 71.78125 18.9375 73 
Q 24.125 74.21875 28.421875 74.21875 
Q 39.75 74.21875 46.484375 68.546875 
Q 53.21875 62.890625 53.21875 53.421875 
Q 53.21875 48.921875 51.53125 44.890625 
Q 49.859375 40.875 45.40625 35.40625 
Q 44.1875 33.984375 37.640625 27.21875 
Q 31.109375 20.453125 19.1875 8.296875 
z
" id="DejaVuSans-50"/>
      </defs>
      <g transform="translate(120.45943 322.182437)scale(0.1 -0.1)">
       <use xlink:href="#DejaVuSans-50"/>
      </g>
     </g>
    </g>
    <g id="xtick_3">
     <g id="line2d_5">
      <path clip-path="url(#p2cf103660e)" d="M 189.68136 307.584 
L 189.68136 41.472 
" style="fill:none;stroke:#b0b0b0;stroke-linecap:square;stroke-width:0.8;"/>
     </g>
     <g id="line2d_6">
      <g>
       <use style="stroke:#000000;stroke-width:0.8;" x="189.68136" xlink:href="#m9d5dbee366" y="307.584"/>
      </g>
     </g>
     <g id="text_3">
      <!-- 4 -->
      <defs>
       <path d="M 37.796875 64.3125 
L 12.890625 25.390625 
L 37.796875 25.390625 
z
M 35.203125 72.90625 
L 47.609375 72.90625 
L 47.609375 25.390625 
L 58.015625 25.390625 
L 58.015625 17.1875 
L 47.609375 17.1875 
L 47.609375 0 
L 37.796875 0 
L 37.796875 17.1875 
L 4.890625 17.1875 
L 4.890625 26.703125 
z
" id="DejaVuSans-52"/>
      </defs>
      <g transform="translate(186.50011 322.182437)scale(0.1 -0.1)">
       <use xlink:href="#DejaVuSans-52"/>
      </g>
     </g>
    </g>
    <g id="xtick_4">
     <g id="line2d_7">
      <path clip-path="url(#p2cf103660e)" d="M 255.722041 307.584 
L 255.722041 41.472 
" style="fill:none;stroke:#b0b0b0;stroke-linecap:square;stroke-width:0.8;"/>
     </g>
     <g id="line2d_8">
      <g>
       <use style="stroke:#000000;stroke-width:0.8;" x="255.722041" xlink:href="#m9d5dbee366" y="307.584"/>
      </g>
     </g>
     <g id="text_4">
      <!-- 6 -->
      <defs>
       <path d="M 33.015625 40.375 
Q 26.375 40.375 22.484375 35.828125 
Q 18.609375 31.296875 18.609375 23.390625 
Q 18.609375 15.53125 22.484375 10.953125 
Q 26.375 6.390625 33.015625 6.390625 
Q 39.65625 6.390625 43.53125 10.953125 
Q 47.40625 15.53125 47.40625 23.390625 
Q 47.40625 31.296875 43.53125 35.828125 
Q 39.65625 40.375 33.015625 40.375 
z
M 52.59375 71.296875 
L 52.59375 62.3125 
Q 48.875 64.0625 45.09375 64.984375 
Q 41.3125 65.921875 37.59375 65.921875 
Q 27.828125 65.921875 22.671875 59.328125 
Q 17.53125 52.734375 16.796875 39.40625 
Q 19.671875 43.65625 24.015625 45.921875 
Q 28.375 48.1875 33.59375 48.1875 
Q 44.578125 48.1875 50.953125 41.515625 
Q 57.328125 34.859375 57.328125 23.390625 
Q 57.328125 12.15625 50.6875 5.359375 
Q 44.046875 -1.421875 33.015625 -1.421875 
Q 20.359375 -1.421875 13.671875 8.265625 
Q 6.984375 17.96875 6.984375 36.375 
Q 6.984375 53.65625 15.1875 63.9375 
Q 23.390625 74.21875 37.203125 74.21875 
Q 40.921875 74.21875 44.703125 73.484375 
Q 48.484375 72.75 52.59375 71.296875 
z
" id="DejaVuSans-54"/>
      </defs>
      <g transform="translate(252.540791 322.182437)scale(0.1 -0.1)">
       <use xlink:href="#DejaVuSans-54"/>
      </g>
     </g>
    </g>
    <g id="xtick_5">
     <g id="line2d_9">
      <path clip-path="url(#p2cf103660e)" d="M 321.762721 307.584 
L 321.762721 41.472 
" style="fill:none;stroke:#b0b0b0;stroke-linecap:square;stroke-width:0.8;"/>
     </g>
     <g id="line2d_10">
      <g>
       <use style="stroke:#000000;stroke-width:0.8;" x="321.762721" xlink:href="#m9d5dbee366" y="307.584"/>
      </g>
     </g>
     <g id="text_5">
      <!-- 8 -->
      <defs>
       <path d="M 31.78125 34.625 
Q 24.75 34.625 20.71875 30.859375 
Q 16.703125 27.09375 16.703125 20.515625 
Q 16.703125 13.921875 20.71875 10.15625 
Q 24.75 6.390625 31.78125 6.390625 
Q 38.8125 6.390625 42.859375 10.171875 
Q 46.921875 13.96875 46.921875 20.515625 
Q 46.921875 27.09375 42.890625 30.859375 
Q 38.875 34.625 31.78125 34.625 
z
M 21.921875 38.8125 
Q 15.578125 40.375 12.03125 44.71875 
Q 8.5 49.078125 8.5 55.328125 
Q 8.5 64.0625 14.71875 69.140625 
Q 20.953125 74.21875 31.78125 74.21875 
Q 42.671875 74.21875 48.875 69.140625 
Q 55.078125 64.0625 55.078125 55.328125 
Q 55.078125 49.078125 51.53125 44.71875 
Q 48 40.375 41.703125 38.8125 
Q 48.828125 37.15625 52.796875 32.3125 
Q 56.78125 27.484375 56.78125 20.515625 
Q 56.78125 9.90625 50.3125 4.234375 
Q 43.84375 -1.421875 31.78125 -1.421875 
Q 19.734375 -1.421875 13.25 4.234375 
Q 6.78125 9.90625 6.78125 20.515625 
Q 6.78125 27.484375 10.78125 32.3125 
Q 14.796875 37.15625 21.921875 38.8125 
z
M 18.3125 54.390625 
Q 18.3125 48.734375 21.84375 45.5625 
Q 25.390625 42.390625 31.78125 42.390625 
Q 38.140625 42.390625 41.71875 45.5625 
Q 45.3125 48.734375 45.3125 54.390625 
Q 45.3125 60.0625 41.71875 63.234375 
Q 38.140625 66.40625 31.78125 66.40625 
Q 25.390625 66.40625 21.84375 63.234375 
Q 18.3125 60.0625 18.3125 54.390625 
z
" id="DejaVuSans-56"/>
      </defs>
      <g transform="translate(318.581471 322.182437)scale(0.1 -0.1)">
       <use xlink:href="#DejaVuSans-56"/>
      </g>
     </g>
    </g>
    <g id="xtick_6">
     <g id="line2d_11">
      <path clip-path="url(#p2cf103660e)" d="M 387.803401 307.584 
L 387.803401 41.472 
" style="fill:none;stroke:#b0b0b0;stroke-linecap:square;stroke-width:0.8;"/>
     </g>
     <g id="line2d_12">
      <g>
       <use style="stroke:#000000;stroke-width:0.8;" x="387.803401" xlink:href="#m9d5dbee366" y="307.584"/>
      </g>
     </g>
     <g id="text_6">
      <!-- 10 -->
      <defs>
       <path d="M 12.40625 8.296875 
L 28.515625 8.296875 
L 28.515625 63.921875 
L 10.984375 60.40625 
L 10.984375 69.390625 
L 28.421875 72.90625 
L 38.28125 72.90625 
L 38.28125 8.296875 
L 54.390625 8.296875 
L 54.390625 0 
L 12.40625 0 
z
" id="DejaVuSans-49"/>
      </defs>
      <g transform="translate(381.440901 322.182437)scale(0.1 -0.1)">
       <use xlink:href="#DejaVuSans-49"/>
       <use x="63.623047" xlink:href="#DejaVuSans-48"/>
      </g>
     </g>
    </g>
    <g id="text_7">
     <!-- Hours -->
     <defs>
      <path d="M 9.8125 72.90625 
L 19.671875 72.90625 
L 19.671875 43.015625 
L 55.515625 43.015625 
L 55.515625 72.90625 
L 65.375 72.90625 
L 65.375 0 
L 55.515625 0 
L 55.515625 34.71875 
L 19.671875 34.71875 
L 19.671875 0 
L 9.8125 0 
z
" id="DejaVuSans-72"/>
      <path d="M 30.609375 48.390625 
Q 23.390625 48.390625 19.1875 42.75 
Q 14.984375 37.109375 14.984375 27.296875 
Q 14.984375 17.484375 19.15625 11.84375 
Q 23.34375 6.203125 30.609375 6.203125 
Q 37.796875 6.203125 41.984375 11.859375 
Q 46.1875 17.53125 46.1875 27.296875 
Q 46.1875 37.015625 41.984375 42.703125 
Q 37.796875 48.390625 30.609375 48.390625 
z
M 30.609375 56 
Q 42.328125 56 49.015625 48.375 
Q 55.71875 40.765625 55.71875 27.296875 
Q 55.71875 13.875 49.015625 6.21875 
Q 42.328125 -1.421875 30.609375 -1.421875 
Q 18.84375 -1.421875 12.171875 6.21875 
Q 5.515625 13.875 5.515625 27.296875 
Q 5.515625 40.765625 12.171875 48.375 
Q 18.84375 56 30.609375 56 
z
" id="DejaVuSans-111"/>
      <path d="M 8.5 21.578125 
L 8.5 54.6875 
L 17.484375 54.6875 
L 17.484375 21.921875 
Q 17.484375 14.15625 20.5 10.265625 
Q 23.53125 6.390625 29.59375 6.390625 
Q 36.859375 6.390625 41.078125 11.03125 
Q 45.3125 15.671875 45.3125 23.6875 
L 45.3125 54.6875 
L 54.296875 54.6875 
L 54.296875 0 
L 45.3125 0 
L 45.3125 8.40625 
Q 42.046875 3.421875 37.71875 1 
Q 33.40625 -1.421875 27.6875 -1.421875 
Q 18.265625 -1.421875 13.375 4.4375 
Q 8.5 10.296875 8.5 21.578125 
z
M 31.109375 56 
z
" id="DejaVuSans-117"/>
      <path d="M 41.109375 46.296875 
Q 39.59375 47.171875 37.8125 47.578125 
Q 36.03125 48 33.890625 48 
Q 26.265625 48 22.1875 43.046875 
Q 18.109375 38.09375 18.109375 28.8125 
L 18.109375 0 
L 9.078125 0 
L 9.078125 54.6875 
L 18.109375 54.6875 
L 18.109375 46.1875 
Q 20.953125 51.171875 25.484375 53.578125 
Q 30.03125 56 36.53125 56 
Q 37.453125 56 38.578125 55.875 
Q 39.703125 55.765625 41.0625 55.515625 
z
" id="DejaVuSans-114"/>
      <path d="M 44.28125 53.078125 
L 44.28125 44.578125 
Q 40.484375 46.53125 36.375 47.5 
Q 32.28125 48.484375 27.875 48.484375 
Q 21.1875 48.484375 17.84375 46.4375 
Q 14.5 44.390625 14.5 40.28125 
Q 14.5 37.15625 16.890625 35.375 
Q 19.28125 33.59375 26.515625 31.984375 
L 29.59375 31.296875 
Q 39.15625 29.25 43.1875 25.515625 
Q 47.21875 21.78125 47.21875 15.09375 
Q 47.21875 7.46875 41.1875 3.015625 
Q 35.15625 -1.421875 24.609375 -1.421875 
Q 20.21875 -1.421875 15.453125 -0.5625 
Q 10.6875 0.296875 5.421875 2 
L 5.421875 11.28125 
Q 10.40625 8.6875 15.234375 7.390625 
Q 20.0625 6.109375 24.8125 6.109375 
Q 31.15625 6.109375 34.5625 8.28125 
Q 37.984375 10.453125 37.984375 14.40625 
Q 37.984375 18.0625 35.515625 20.015625 
Q 33.0625 21.96875 24.703125 23.78125 
L 21.578125 24.515625 
Q 13.234375 26.265625 9.515625 29.90625 
Q 5.8125 33.546875 5.8125 39.890625 
Q 5.8125 47.609375 11.28125 51.796875 
Q 16.75 56 26.8125 56 
Q 31.78125 56 36.171875 55.265625 
Q 40.578125 54.546875 44.28125 53.078125 
z
" id="DejaVuSans-115"/>
     </defs>
     <g transform="translate(221.511562 335.860562)scale(0.1 -0.1)">
      <use xlink:href="#DejaVuSans-72"/>
      <use x="75.195312" xlink:href="#DejaVuSans-111"/>
      <use x="136.376953" xlink:href="#DejaVuSans-117"/>
      <use x="199.755859" xlink:href="#DejaVuSans-114"/>
      <use x="240.869141" xlink:href="#DejaVuSans-115"/>
     </g>
    </g>
   </g>
   <g id="matplotlib.axis_2">
    <g id="ytick_1">
     <g id="line2d_13">
      <path clip-path="url(#p2cf103660e)" d="M 57.6 295.514552 
L 414.72 295.514552 
" style="fill:none;stroke:#b0b0b0;stroke-linecap:square;stroke-width:0.8;"/>
     </g>
     <g id="line2d_14">
      <defs>
       <path d="M 0 0 
L -3.5 0 
" id="m2e5a13a1ec" style="stroke:#000000;stroke-width:0.8;"/>
      </defs>
      <g>
       <use style="stroke:#000000;stroke-width:0.8;" x="57.6" xlink:href="#m2e5a13a1ec" y="295.514552"/>
      </g>
     </g>
     <g id="text_8">
      <!-- 20 -->
      <g transform="translate(37.875 299.313771)scale(0.1 -0.1)">
       <use xlink:href="#DejaVuSans-50"/>
       <use x="63.623047" xlink:href="#DejaVuSans-48"/>
      </g>
     </g>
    </g>
    <g id="ytick_2">
     <g id="line2d_15">
      <path clip-path="url(#p2cf103660e)" d="M 57.6 265.845212 
L 414.72 265.845212 
" style="fill:none;stroke:#b0b0b0;stroke-linecap:square;stroke-width:0.8;"/>
     </g>
     <g id="line2d_16">
      <g>
       <use style="stroke:#000000;stroke-width:0.8;" x="57.6" xlink:href="#m2e5a13a1ec" y="265.845212"/>
      </g>
     </g>
     <g id="text_9">
      <!-- 25 -->
      <defs>
       <path d="M 10.796875 72.90625 
L 49.515625 72.90625 
L 49.515625 64.59375 
L 19.828125 64.59375 
L 19.828125 46.734375 
Q 21.96875 47.46875 24.109375 47.828125 
Q 26.265625 48.1875 28.421875 48.1875 
Q 40.625 48.1875 47.75 41.5 
Q 54.890625 34.8125 54.890625 23.390625 
Q 54.890625 11.625 47.5625 5.09375 
Q 40.234375 -1.421875 26.90625 -1.421875 
Q 22.3125 -1.421875 17.546875 -0.640625 
Q 12.796875 0.140625 7.71875 1.703125 
L 7.71875 11.625 
Q 12.109375 9.234375 16.796875 8.0625 
Q 21.484375 6.890625 26.703125 6.890625 
Q 35.15625 6.890625 40.078125 11.328125 
Q 45.015625 15.765625 45.015625 23.390625 
Q 45.015625 31 40.078125 35.4375 
Q 35.15625 39.890625 26.703125 39.890625 
Q 22.75 39.890625 18.8125 39.015625 
Q 14.890625 38.140625 10.796875 36.28125 
z
" id="DejaVuSans-53"/>
      </defs>
      <g transform="translate(37.875 269.64443)scale(0.1 -0.1)">
       <use xlink:href="#DejaVuSans-50"/>
       <use x="63.623047" xlink:href="#DejaVuSans-53"/>
      </g>
     </g>
    </g>
    <g id="ytick_3">
     <g id="line2d_17">
      <path clip-path="url(#p2cf103660e)" d="M 57.6 236.175871 
L 414.72 236.175871 
" style="fill:none;stroke:#b0b0b0;stroke-linecap:square;stroke-width:0.8;"/>
     </g>
     <g id="line2d_18">
      <g>
       <use style="stroke:#000000;stroke-width:0.8;" x="57.6" xlink:href="#m2e5a13a1ec" y="236.175871"/>
      </g>
     </g>
     <g id="text_10">
      <!-- 30 -->
      <defs>
       <path d="M 40.578125 39.3125 
Q 47.65625 37.796875 51.625 33 
Q 55.609375 28.21875 55.609375 21.1875 
Q 55.609375 10.40625 48.1875 4.484375 
Q 40.765625 -1.421875 27.09375 -1.421875 
Q 22.515625 -1.421875 17.65625 -0.515625 
Q 12.796875 0.390625 7.625 2.203125 
L 7.625 11.71875 
Q 11.71875 9.328125 16.59375 8.109375 
Q 21.484375 6.890625 26.8125 6.890625 
Q 36.078125 6.890625 40.9375 10.546875 
Q 45.796875 14.203125 45.796875 21.1875 
Q 45.796875 27.640625 41.28125 31.265625 
Q 36.765625 34.90625 28.71875 34.90625 
L 20.21875 34.90625 
L 20.21875 43.015625 
L 29.109375 43.015625 
Q 36.375 43.015625 40.234375 45.921875 
Q 44.09375 48.828125 44.09375 54.296875 
Q 44.09375 59.90625 40.109375 62.90625 
Q 36.140625 65.921875 28.71875 65.921875 
Q 24.65625 65.921875 20.015625 65.03125 
Q 15.375 64.15625 9.8125 62.3125 
L 9.8125 71.09375 
Q 15.4375 72.65625 20.34375 73.4375 
Q 25.25 74.21875 29.59375 74.21875 
Q 40.828125 74.21875 47.359375 69.109375 
Q 53.90625 64.015625 53.90625 55.328125 
Q 53.90625 49.265625 50.4375 45.09375 
Q 46.96875 40.921875 40.578125 39.3125 
z
" id="DejaVuSans-51"/>
      </defs>
      <g transform="translate(37.875 239.97509)scale(0.1 -0.1)">
       <use xlink:href="#DejaVuSans-51"/>
       <use x="63.623047" xlink:href="#DejaVuSans-48"/>
      </g>
     </g>
    </g>
    <g id="ytick_4">
     <g id="line2d_19">
      <path clip-path="url(#p2cf103660e)" d="M 57.6 206.506531 
L 414.72 206.506531 
" style="fill:none;stroke:#b0b0b0;stroke-linecap:square;stroke-width:0.8;"/>
     </g>
     <g id="line2d_20">
      <g>
       <use style="stroke:#000000;stroke-width:0.8;" x="57.6" xlink:href="#m2e5a13a1ec" y="206.506531"/>
      </g>
     </g>
     <g id="text_11">
      <!-- 35 -->
      <g transform="translate(37.875 210.30575)scale(0.1 -0.1)">
       <use xlink:href="#DejaVuSans-51"/>
       <use x="63.623047" xlink:href="#DejaVuSans-53"/>
      </g>
     </g>
    </g>
    <g id="ytick_5">
     <g id="line2d_21">
      <path clip-path="url(#p2cf103660e)" d="M 57.6 176.837191 
L 414.72 176.837191 
" style="fill:none;stroke:#b0b0b0;stroke-linecap:square;stroke-width:0.8;"/>
     </g>
     <g id="line2d_22">
      <g>
       <use style="stroke:#000000;stroke-width:0.8;" x="57.6" xlink:href="#m2e5a13a1ec" y="176.837191"/>
      </g>
     </g>
     <g id="text_12">
      <!-- 40 -->
      <g transform="translate(37.875 180.63641)scale(0.1 -0.1)">
       <use xlink:href="#DejaVuSans-52"/>
       <use x="63.623047" xlink:href="#DejaVuSans-48"/>
      </g>
     </g>
    </g>
    <g id="ytick_6">
     <g id="line2d_23">
      <path clip-path="url(#p2cf103660e)" d="M 57.6 147.167851 
L 414.72 147.167851 
" style="fill:none;stroke:#b0b0b0;stroke-linecap:square;stroke-width:0.8;"/>
     </g>
     <g id="line2d_24">
      <g>
       <use style="stroke:#000000;stroke-width:0.8;" x="57.6" xlink:href="#m2e5a13a1ec" y="147.167851"/>
      </g>
     </g>
     <g id="text_13">
      <!-- 45 -->
      <g transform="translate(37.875 150.96707)scale(0.1 -0.1)">
       <use xlink:href="#DejaVuSans-52"/>
       <use x="63.623047" xlink:href="#DejaVuSans-53"/>
      </g>
     </g>
    </g>
    <g id="ytick_7">
     <g id="line2d_25">
      <path clip-path="url(#p2cf103660e)" d="M 57.6 117.498511 
L 414.72 117.498511 
" style="fill:none;stroke:#b0b0b0;stroke-linecap:square;stroke-width:0.8;"/>
     </g>
     <g id="line2d_26">
      <g>
       <use style="stroke:#000000;stroke-width:0.8;" x="57.6" xlink:href="#m2e5a13a1ec" y="117.498511"/>
      </g>
     </g>
     <g id="text_14">
      <!-- 50 -->
      <g transform="translate(37.875 121.297729)scale(0.1 -0.1)">
       <use xlink:href="#DejaVuSans-53"/>
       <use x="63.623047" xlink:href="#DejaVuSans-48"/>
      </g>
     </g>
    </g>
    <g id="ytick_8">
     <g id="line2d_27">
      <path clip-path="url(#p2cf103660e)" d="M 57.6 87.82917 
L 414.72 87.82917 
" style="fill:none;stroke:#b0b0b0;stroke-linecap:square;stroke-width:0.8;"/>
     </g>
     <g id="line2d_28">
      <g>
       <use style="stroke:#000000;stroke-width:0.8;" x="57.6" xlink:href="#m2e5a13a1ec" y="87.82917"/>
      </g>
     </g>
     <g id="text_15">
      <!-- 55 -->
      <g transform="translate(37.875 91.628389)scale(0.1 -0.1)">
       <use xlink:href="#DejaVuSans-53"/>
       <use x="63.623047" xlink:href="#DejaVuSans-53"/>
      </g>
     </g>
    </g>
    <g id="ytick_9">
     <g id="line2d_29">
      <path clip-path="url(#p2cf103660e)" d="M 57.6 58.15983 
L 414.72 58.15983 
" style="fill:none;stroke:#b0b0b0;stroke-linecap:square;stroke-width:0.8;"/>
     </g>
     <g id="line2d_30">
      <g>
       <use style="stroke:#000000;stroke-width:0.8;" x="57.6" xlink:href="#m2e5a13a1ec" y="58.15983"/>
      </g>
     </g>
     <g id="text_16">
      <!-- 60 -->
      <g transform="translate(37.875 61.959049)scale(0.1 -0.1)">
       <use xlink:href="#DejaVuSans-54"/>
       <use x="63.623047" xlink:href="#DejaVuSans-48"/>
      </g>
     </g>
    </g>
    <g id="text_17">
     <!-- Reward -->
     <defs>
      <path d="M 44.390625 34.1875 
Q 47.5625 33.109375 50.5625 29.59375 
Q 53.5625 26.078125 56.59375 19.921875 
L 66.609375 0 
L 56 0 
L 46.6875 18.703125 
Q 43.0625 26.03125 39.671875 28.421875 
Q 36.28125 30.8125 30.421875 30.8125 
L 19.671875 30.8125 
L 19.671875 0 
L 9.8125 0 
L 9.8125 72.90625 
L 32.078125 72.90625 
Q 44.578125 72.90625 50.734375 67.671875 
Q 56.890625 62.453125 56.890625 51.90625 
Q 56.890625 45.015625 53.6875 40.46875 
Q 50.484375 35.9375 44.390625 34.1875 
z
M 19.671875 64.796875 
L 19.671875 38.921875 
L 32.078125 38.921875 
Q 39.203125 38.921875 42.84375 42.21875 
Q 46.484375 45.515625 46.484375 51.90625 
Q 46.484375 58.296875 42.84375 61.546875 
Q 39.203125 64.796875 32.078125 64.796875 
z
" id="DejaVuSans-82"/>
      <path d="M 56.203125 29.59375 
L 56.203125 25.203125 
L 14.890625 25.203125 
Q 15.484375 15.921875 20.484375 11.0625 
Q 25.484375 6.203125 34.421875 6.203125 
Q 39.59375 6.203125 44.453125 7.46875 
Q 49.3125 8.734375 54.109375 11.28125 
L 54.109375 2.78125 
Q 49.265625 0.734375 44.1875 -0.34375 
Q 39.109375 -1.421875 33.890625 -1.421875 
Q 20.796875 -1.421875 13.15625 6.1875 
Q 5.515625 13.8125 5.515625 26.8125 
Q 5.515625 40.234375 12.765625 48.109375 
Q 20.015625 56 32.328125 56 
Q 43.359375 56 49.78125 48.890625 
Q 56.203125 41.796875 56.203125 29.59375 
z
M 47.21875 32.234375 
Q 47.125 39.59375 43.09375 43.984375 
Q 39.0625 48.390625 32.421875 48.390625 
Q 24.90625 48.390625 20.390625 44.140625 
Q 15.875 39.890625 15.1875 32.171875 
z
" id="DejaVuSans-101"/>
      <path d="M 4.203125 54.6875 
L 13.1875 54.6875 
L 24.421875 12.015625 
L 35.59375 54.6875 
L 46.1875 54.6875 
L 57.421875 12.015625 
L 68.609375 54.6875 
L 77.59375 54.6875 
L 63.28125 0 
L 52.6875 0 
L 40.921875 44.828125 
L 29.109375 0 
L 18.5 0 
z
" id="DejaVuSans-119"/>
      <path d="M 34.28125 27.484375 
Q 23.390625 27.484375 19.1875 25 
Q 14.984375 22.515625 14.984375 16.5 
Q 14.984375 11.71875 18.140625 8.90625 
Q 21.296875 6.109375 26.703125 6.109375 
Q 34.1875 6.109375 38.703125 11.40625 
Q 43.21875 16.703125 43.21875 25.484375 
L 43.21875 27.484375 
z
M 52.203125 31.203125 
L 52.203125 0 
L 43.21875 0 
L 43.21875 8.296875 
Q 40.140625 3.328125 35.546875 0.953125 
Q 30.953125 -1.421875 24.3125 -1.421875 
Q 15.921875 -1.421875 10.953125 3.296875 
Q 6 8.015625 6 15.921875 
Q 6 25.140625 12.171875 29.828125 
Q 18.359375 34.515625 30.609375 34.515625 
L 43.21875 34.515625 
L 43.21875 35.40625 
Q 43.21875 41.609375 39.140625 45 
Q 35.0625 48.390625 27.6875 48.390625 
Q 23 48.390625 18.546875 47.265625 
Q 14.109375 46.140625 10.015625 43.890625 
L 10.015625 52.203125 
Q 14.9375 54.109375 19.578125 55.046875 
Q 24.21875 56 28.609375 56 
Q 40.484375 56 46.34375 49.84375 
Q 52.203125 43.703125 52.203125 31.203125 
z
" id="DejaVuSans-97"/>
      <path d="M 45.40625 46.390625 
L 45.40625 75.984375 
L 54.390625 75.984375 
L 54.390625 0 
L 45.40625 0 
L 45.40625 8.203125 
Q 42.578125 3.328125 38.25 0.953125 
Q 33.9375 -1.421875 27.875 -1.421875 
Q 17.96875 -1.421875 11.734375 6.484375 
Q 5.515625 14.40625 5.515625 27.296875 
Q 5.515625 40.1875 11.734375 48.09375 
Q 17.96875 56 27.875 56 
Q 33.9375 56 38.25 53.625 
Q 42.578125 51.265625 45.40625 46.390625 
z
M 14.796875 27.296875 
Q 14.796875 17.390625 18.875 11.75 
Q 22.953125 6.109375 30.078125 6.109375 
Q 37.203125 6.109375 41.296875 11.75 
Q 45.40625 17.390625 45.40625 27.296875 
Q 45.40625 37.203125 41.296875 42.84375 
Q 37.203125 48.484375 30.078125 48.484375 
Q 22.953125 48.484375 18.875 42.84375 
Q 14.796875 37.203125 14.796875 27.296875 
z
" id="DejaVuSans-100"/>
     </defs>
     <g transform="translate(31.795312 193.457687)rotate(-90)scale(0.1 -0.1)">
      <use xlink:href="#DejaVuSans-82"/>
      <use x="69.419922" xlink:href="#DejaVuSans-101"/>
      <use x="130.943359" xlink:href="#DejaVuSans-119"/>
      <use x="212.730469" xlink:href="#DejaVuSans-97"/>
      <use x="274.009766" xlink:href="#DejaVuSans-114"/>
      <use x="315.107422" xlink:href="#DejaVuSans-100"/>
     </g>
    </g>
   </g>
   <g id="line2d_31">
    <path clip-path="url(#p2cf103660e)" d="M 57.6 254.418061 
L 57.830807 294.27158 
L 57.879657 293.974382 
L 58.119483 295.488 
L 58.257742 290.665227 
L 58.331296 292.612504 
L 58.528897 293.02974 
L 58.787551 293.255465 
L 59.180585 293.988461 
L 59.256312 289.293966 
L 59.30511 292.116234 
L 59.627366 291.954467 
L 59.675947 294.108952 
L 59.848169 292.428655 
L 59.902151 286.087431 
L 60.049464 293.001581 
L 60.249979 287.73597 
L 60.383998 293.260694 
L 60.483418 292.527053 
L 60.618054 283.607418 
L 60.630448 286.357692 
L 60.873597 290.784371 
L 61.606586 283.451038 
L 61.687497 284.817817 
L 62.092435 287.004299 
L 62.104325 285.917175 
L 62.167784 289.152605 
L 62.359078 281.094277 
L 62.37072 282.995943 
L 62.541958 289.198114 
L 63.132514 285.379165 
L 63.255775 280.023927 
L 63.270505 281.521791 
L 63.496831 283.447314 
L 63.64323 283.674024 
L 63.901639 281.620721 
L 64.122508 274.504726 
L 64.40873 281.373423 
L 64.424174 280.626269 
L 64.942975 280.154423 
L 65.052188 284.385754 
L 65.316065 271.535053 
L 65.614281 277.450134 
L 65.627444 280.709999 
L 66.148816 265.930187 
L 66.318456 277.325738 
L 66.348192 272.034119 
L 66.559035 268.949817 
L 66.725412 274.874891 
L 67.004465 270.133574 
L 67.34794 270.388262 
L 67.47221 263.630322 
L 67.472576 264.707531 
L 67.543536 269.849787 
L 67.975863 256.525985 
L 68.036018 260.950638 
L 68.38579 266.021138 
L 68.591314 252.072098 
L 68.652704 258.95715 
L 68.880073 257.551482 
L 68.897188 258.653579 
L 69.103358 256.510841 
L 69.122129 253.400079 
L 69.283728 253.373968 
L 69.735222 252.507998 
L 69.831358 255.470314 
L 69.928917 254.268075 
L 70.367032 259.806438 
L 70.708907 252.717629 
L 70.8692 238.686692 
L 70.885296 245.342725 
L 71.117872 233.379024 
L 71.385073 236.625681 
L 71.495753 239.476776 
L 72.15858 244.374768 
L 72.181514 237.620235 
L 72.374375 249.473507 
L 72.607758 241.667932 
L 72.747666 246.514586 
L 73.074685 243.144585 
L 73.419155 225.957659 
L 73.438556 224.039176 
L 73.526844 235.231863 
L 73.680342 227.142366 
L 74.272799 230.597251 
L 74.386325 227.165761 
L 74.499854 232.769846 
L 74.565712 223.397968 
L 74.804056 228.236054 
L 74.952884 226.43513 
L 75.359161 232.439441 
L 75.380051 222.941108 
L 75.766427 206.002746 
L 76.054178 206.383233 
L 76.838642 208.431648 
L 77.280926 210.276882 
L 77.410236 212.836731 
L 77.635605 192.1859 
L 77.690803 208.481809 
L 78.457195 188.848258 
L 78.894995 195.823695 
L 78.974156 176.472232 
L 79.444758 173.176263 
L 80.072206 190.191427 
L 80.447308 142.89281 
L 80.628789 150.517671 
L 80.731146 165.350146 
L 80.999546 177.61195 
L 81.460503 185.368303 
L 81.603641 164.330896 
L 81.85403 163.022291 
L 81.927357 177.251836 
L 82.175972 139.946226 
L 83.667731 171.293974 
L 83.762417 140.762816 
L 84.423702 131.745258 
L 84.47932 136.942531 
L 85.468084 162.188362 
L 85.857288 141.716807 
L 86.104119 117.666695 
L 87.442085 155.584924 
L 87.591492 140.218921 
L 88.211709 136.588302 
L 88.289436 151.96809 
L 88.849487 126.511972 
L 88.917636 118.033873 
L 88.971993 137.769195 
L 89.56759 143.173835 
L 89.589774 159.081447 
L 89.667773 158.637195 
L 92.28449 133.989745 
L 94.303717 119.217934 
L 94.451048 133.385388 
L 95.543321 127.172895 
L 95.847464 147.171427 
L 95.877063 130.182679 
L 96.117127 119.564717 
L 96.429957 153.351416 
L 96.869606 137.053764 
L 97.091595 122.052245 
L 97.308115 123.012301 
L 97.657285 114.101177 
L 97.681558 117.951591 
L 97.893278 122.718352 
L 98.23779 137.773903 
L 98.49974 136.203401 
L 98.621484 128.712295 
L 99.268254 119.373398 
L 99.297897 113.664169 
L 99.432621 133.933766 
L 99.493246 132.456909 
L 100.175793 126.531235 
L 100.378732 91.595152 
L 100.565385 115.872573 
L 100.654366 107.548489 
L 100.898676 125.146777 
L 101.145828 109.580175 
L 101.523755 133.472242 
L 102.473375 149.803757 
L 103.698358 79.718724 
L 103.855412 96.709351 
L 103.989985 89.000398 
L 104.04961 108.148929 
L 104.436328 104.191878 
L 105.56837 129.677015 
L 106.46935 117.750561 
L 106.506673 107.085132 
L 106.654146 108.525998 
L 106.720045 117.99924 
L 107.148825 137.13471 
L 107.334022 120.560402 
L 107.707122 121.44988 
L 108.115705 118.413929 
L 108.1435 109.459661 
L 108.20352 113.872193 
L 108.922238 126.222074 
L 109.37427 104.620647 
L 109.581012 121.016516 
L 109.994464 104.718819 
L 109.994704 104.754923 
L 110.167603 126.497507 
L 111.018241 104.038451 
L 111.304512 150.239815 
L 111.873835 106.196016 
L 112.165948 137.29495 
L 113.1574 110.701332 
L 113.3191 131.605504 
L 114.590342 113.599566 
L 114.672037 137.632474 
L 114.925568 100.809733 
L 115.362322 115.234897 
L 115.657026 96.126861 
L 116.07779 130.635782 
L 116.57692 121.592396 
L 117.519075 138.474054 
L 117.519197 141.614877 
L 117.61327 130.924073 
L 118.588539 109.86618 
L 118.618901 110.481424 
L 118.619537 119.607295 
L 118.973345 123.273701 
L 119.669907 121.764271 
L 119.984537 120.569977 
L 120.051708 123.094923 
L 120.086184 112.766247 
L 120.665424 115.8716 
L 120.935778 127.969883 
L 121.062412 122.012994 
L 121.09146 128.372462 
L 122.528359 115.564612 
L 122.590825 105.62627 
L 122.872567 107.810341 
L 122.972627 106.340365 
L 124.229309 129.257934 
L 124.286928 128.248055 
L 124.507492 128.925005 
L 124.957986 98.411277 
L 125.150783 108.110199 
L 125.844159 107.154035 
L 125.881029 102.761356 
L 126.135284 109.015703 
L 126.297525 103.962689 
L 127.007969 104.924014 
L 127.570472 131.387181 
L 127.651395 140.524347 
L 127.848341 111.041663 
L 128.111986 102.568928 
L 128.35332 89.071701 
L 128.6 122.976967 
L 129.000379 122.052946 
L 129.055072 122.645554 
L 129.831245 78.637497 
L 129.89137 92.49751 
L 132.110785 107.700149 
L 132.234864 109.426047 
L 133.079584 85.79633 
L 133.458642 103.103566 
L 133.714255 106.428147 
L 133.862913 120.033619 
L 133.898758 114.577392 
L 134.089809 109.379078 
L 134.659969 106.708878 
L 134.768685 93.454602 
L 135.568559 80.421546 
L 135.933213 91.641601 
L 136.323636 75.965645 
L 136.677741 107.551364 
L 137.140054 90.891764 
L 137.540811 108.338097 
L 137.935171 102.527301 
L 137.991402 130.555085 
L 138.02198 118.326962 
L 138.302265 125.285422 
L 138.533452 96.595855 
L 138.613963 127.670568 
L 138.716541 98.867142 
L 139.708617 138.352364 
L 139.73825 135.296425 
L 139.771324 134.217892 
L 139.836908 124.129406 
L 139.895551 124.514579 
L 140.051609 129.658341 
L 140.305996 104.303088 
L 140.643962 109.884039 
L 140.717794 92.63534 
L 141.068521 94.703855 
L 141.793672 97.956341 
L 142.010412 125.027124 
L 142.290774 118.949925 
L 142.5034 130.963052 
L 143.165774 64.826015 
L 144.9577 91.232502 
L 145.055732 91.140895 
L 145.086187 107.260922 
L 145.418585 116.565594 
L 145.688966 111.126208 
L 146.342924 73.66905 
L 146.343796 77.633843 
L 146.542862 125.167172 
L 146.897955 109.393565 
L 146.952849 132.849076 
L 147.151235 113.204026 
L 147.82808 106.651564 
L 147.926154 102.155778 
L 149.018779 119.57574 
L 149.126605 104.314791 
L 149.471327 108.797312 
L 149.649334 93.494599 
L 149.779382 101.381992 
L 149.9539 85.630205 
L 150.933787 108.536818 
L 151.751376 116.284818 
L 151.844802 127.662351 
L 152.757758 91.889442 
L 153.122061 112.304497 
L 154.145643 110.017161 
L 154.882835 143.375544 
L 154.977892 120.680712 
L 155.778322 92.677918 
L 155.843629 83.765051 
L 156.204216 116.591603 
L 156.661275 91.846026 
L 156.724321 93.858494 
L 157.628974 126.231218 
L 158.933731 115.555806 
L 159.046499 89.173494 
L 159.195093 114.364682 
L 159.511917 93.218645 
L 159.604615 110.919949 
L 159.631343 107.32471 
L 159.956748 137.127829 
L 160.813913 109.352526 
L 161.465072 99.944136 
L 161.934158 87.485919 
L 162.187217 112.038231 
L 162.40774 105.982763 
L 163.210647 117.82363 
L 163.828128 120.035679 
L 163.909997 133.052527 
L 164.139619 111.269651 
L 164.762722 104.509301 
L 164.830398 85.655851 
L 166.348959 98.586547 
L 166.741963 108.3352 
L 167.084926 108.121313 
L 167.762487 92.559736 
L 167.798051 102.570988 
L 168.486561 91.754486 
L 169.49199 82.919532 
L 170.452661 102.125468 
L 171.19516 136.014685 
L 171.313902 126.373146 
L 171.472671 127.530361 
L 171.565042 133.176346 
L 171.797463 133.712613 
L 171.849233 153.774322 
L 171.882517 140.739524 
L 172.055186 144.168185 
L 172.700057 86.275057 
L 172.971893 88.173372 
L 172.972376 93.40229 
L 173.431868 70.023537 
L 173.432718 73.868428 
L 173.757018 99.969194 
L 174.686058 85.123387 
L 175.405541 88.089325 
L 175.43493 97.408846 
L 175.953826 80.413375 
L 176.358262 134.517478 
L 176.98473 135.510108 
L 176.985851 141.055363 
L 177.193001 95.091042 
L 177.615865 109.566028 
L 178.111574 111.275989 
L 179.339654 87.737178 
L 179.534211 118.156288 
L 179.898955 90.077527 
L 180.30526 118.206562 
L 180.876558 72.454634 
L 183.276217 93.021011 
L 183.453265 118.187661 
L 183.52397 115.602844 
L 183.994063 156.906657 
L 184.312955 115.737527 
L 184.475545 115.553769 
L 184.586376 96.730108 
L 184.711039 99.368437 
L 184.850875 88.863043 
L 185.318547 107.740781 
L 185.568571 145.472263 
L 185.916365 100.123865 
L 186.270139 104.222572 
L 186.407218 104.166254 
L 187.373243 115.568935 
L 188.40326 101.989517 
L 188.835686 107.090927 
L 189.766816 106.662225 
L 189.928537 99.399063 
L 190.014533 113.2184 
L 190.384225 136.081144 
L 190.631612 120.583287 
L 190.828174 125.258508 
L 192.054456 119.851808 
L 192.211049 125.095733 
L 192.518055 104.883608 
L 192.598307 75.747231 
L 192.923111 114.005586 
L 194.706168 122.356652 
L 195.213889 122.569475 
L 195.717245 99.261844 
L 195.983099 136.746391 
L 196.179265 110.980636 
L 196.365635 119.856471 
L 197.722395 102.041715 
L 197.88764 97.702615 
L 198.354799 123.742491 
L 198.512796 117.249674 
L 198.72821 88.180502 
L 199.271108 105.950054 
L 199.490826 65.005971 
L 199.648751 127.969204 
L 200.224193 98.404849 
L 200.797364 76.616201 
L 201.198289 104.452915 
L 201.603812 107.329237 
L 201.839864 88.576472 
L 202.142458 114.763866 
L 203.319335 103.711996 
L 204.147765 90.476961 
L 204.184709 81.586616 
L 204.217386 92.745079 
L 204.691212 90.345944 
L 204.831025 80.676336 
L 205.398106 90.046924 
L 205.558393 102.510165 
L 205.950465 113.713583 
L 207.259861 112.430896 
L 207.437461 87.31984 
L 207.803023 105.42189 
L 208.208882 119.046196 
L 208.378986 94.0248 
L 209.076759 105.451634 
L 209.399132 118.190785 
L 209.429382 103.823682 
L 209.473348 147.689224 
L 209.592517 103.029659 
L 210.148446 145.684248 
L 210.178598 133.76214 
L 210.214543 134.896969 
L 210.761318 94.522111 
L 210.932992 91.093699 
L 211.565646 112.536945 
L 212.022793 95.736618 
L 212.663179 130.979304 
L 212.766262 117.667986 
L 213.340323 114.0179 
L 213.412693 101.889443 
L 213.654695 120.359169 
L 214.241783 111.003068 
L 214.3806 96.069796 
L 214.922548 122.867635 
L 215.888892 129.473201 
L 215.920079 119.156184 
L 216.524588 82.15883 
L 217.402344 121.408479 
L 219.086189 85.066888 
L 219.583768 121.613878 
L 219.983853 70.086284 
L 220.25622 111.506219 
L 220.48281 128.059566 
L 220.645322 109.34827 
L 221.504824 118.120704 
L 222.25847 103.407091 
L 222.412794 120.212013 
L 222.815121 96.506805 
L 223.505461 96.859337 
L 223.59945 107.157521 
L 223.801986 102.040493 
L 224.954457 89.150745 
L 225.259653 105.896837 
L 225.293624 91.052184 
L 225.352829 108.666318 
L 225.639235 116.168606 
L 226.261537 79.038356 
L 228.362457 109.738355 
L 228.634611 101.137682 
L 228.85597 112.640233 
L 229.172115 102.933887 
L 229.360784 115.665025 
L 229.678202 109.439629 
L 230.15978 106.780068 
L 231.624218 119.060886 
L 231.89866 104.378058 
L 232.905764 89.602671 
L 233.050987 75.975288 
L 234.131113 74.029278 
L 234.634989 90.32564 
L 235.292054 100.839726 
L 235.727201 105.260904 
L 235.964423 101.125255 
L 235.964572 105.013041 
L 236.263326 92.248175 
L 236.793746 101.904474 
L 237.160528 92.168474 
L 237.405728 129.67817 
L 237.785963 105.472731 
L 238.15493 101.801073 
L 238.586201 84.33328 
L 239.512142 117.188308 
L 239.542927 124.438862 
L 240.072463 113.884371 
L 240.716506 123.452751 
L 241.103832 111.147802 
L 241.27223 94.98334 
L 241.891361 108.156693 
L 242.061419 90.892307 
L 242.312162 101.716935 
L 242.563229 122.209655 
L 243.100462 69.300342 
L 243.227777 87.90783 
L 243.441555 87.446171 
L 244.084209 113.094853 
L 244.52566 109.938049 
L 245.363824 101.46287 
L 246.493762 112.047942 
L 246.961695 108.452205 
L 247.445706 118.109476 
L 247.528782 127.202027 
L 247.681042 131.455089 
L 249.070048 113.949947 
L 249.180865 86.398038 
L 249.318208 80.156955 
L 251.664102 121.960094 
L 251.734276 117.667193 
L 252.011763 128.812097 
L 252.196312 102.260288 
L 252.768934 88.462976 
L 253.886608 103.89494 
L 254.081715 113.277728 
L 254.743609 68.550958 
L 254.786911 56.280755 
L 255.750333 117.279802 
L 256.391183 94.743513 
L 256.831762 110.090479 
L 257.216611 115.902407 
L 259.008447 107.467135 
L 259.039128 101.899381 
L 259.120077 123.928716 
L 259.406163 118.304756 
L 259.630814 110.572488 
L 260.448095 112.444727 
L 260.729489 87.176215 
L 261.826054 74.1928 
L 262.192904 91.214461 
L 262.591282 137.339837 
L 262.700348 118.708898 
L 263.061452 99.608966 
L 263.586045 102.217234 
L 263.931292 89.579922 
L 263.997469 104.361353 
L 264.121596 102.592832 
L 264.195759 90.783745 
L 264.702156 106.459566 
L 265.013446 127.159087 
L 265.358804 120.441134 
L 265.359172 116.00196 
L 265.851303 111.825612 
L 266.426915 93.328316 
L 266.909293 100.595507 
L 267.336286 117.390379 
L 267.857954 116.263269 
L 268.295963 125.373929 
L 269.811345 125.643205 
L 270.021672 89.591783 
L 270.224527 94.888111 
L 270.297291 86.963551 
L 270.609391 82.597332 
L 271.211927 83.564452 
L 271.250243 76.909992 
L 273.431678 101.516268 
L 273.556671 105.779108 
L 274.456167 113.461532 
L 275.425222 117.743658 
L 275.475869 129.235094 
L 275.768441 92.778105 
L 275.966857 100.316859 
L 276.212819 83.379313 
L 277.01752 115.537313 
L 277.404222 115.244223 
L 277.93462 104.717121 
L 278.672985 104.891124 
L 278.832769 98.19472 
L 279.287129 122.35251 
L 279.446873 105.656806 
L 279.540014 114.049545 
L 279.81791 125.278133 
L 280.202324 89.34134 
L 280.227662 98.625821 
L 280.268421 80.624568 
L 281.568437 96.588883 
L 282.011572 130.923529 
L 282.260089 104.368143 
L 282.640614 89.655458 
L 283.173575 90.53518 
L 283.514888 77.984881 
L 284.255547 136.839176 
L 284.475569 123.699867 
L 284.683305 90.105415 
L 286.335825 124.257639 
L 286.577494 97.795173 
L 286.823097 122.487443 
L 287.00405 89.49995 
L 287.102298 91.667315 
L 288.06359 147.830042 
L 288.40338 136.390215 
L 288.975189 107.477344 
L 289.059216 120.891679 
L 289.711399 82.869552 
L 289.770351 99.72115 
L 290.220965 94.714697 
L 290.247081 96.645043 
L 290.300838 127.47608 
L 290.432743 106.557398 
L 290.657773 112.869807 
L 290.857483 94.339236 
L 291.521443 75.463965 
L 291.675844 103.80331 
L 292.16228 117.695466 
L 292.235757 106.578314 
L 292.36736 103.795998 
L 293.090176 92.110006 
L 293.213338 108.075317 
L 293.465229 107.581266 
L 293.6214 111.457303 
L 293.70035 89.107443 
L 294.039986 83.665634 
L 294.945497 78.908449 
L 295.308442 106.467783 
L 295.401674 125.968416 
L 296.843751 114.586559 
L 297.288405 115.75756 
L 299.397014 94.770925 
L 299.541374 82.958624 
L 299.721091 114.931055 
L 299.743107 147.452882 
L 299.998492 116.289685 
L 300.504809 90.769055 
L 300.655038 118.014858 
L 301.111958 110.812632 
L 301.879194 121.600771 
L 302.657278 121.104909 
L 303.175564 91.782215 
L 303.319061 126.119986 
L 303.978438 93.44643 
L 304.069382 107.75228 
L 304.100861 103.280873 
L 304.723134 100.100075 
L 304.74876 124.555278 
L 304.978281 104.358274 
L 305.391632 121.049677 
L 305.660589 112.281748 
L 305.845827 120.031582 
L 306.09856 94.370903 
L 306.792869 105.201734 
L 306.891384 94.0193 
L 306.984851 124.759432 
L 307.227992 124.205282 
L 307.77717 93.614253 
L 308.3788 99.843021 
L 308.478021 107.091945 
L 308.619663 84.518872 
L 308.948286 96.807387 
L 308.975307 114.073154 
L 309.160226 136.224792 
L 309.891821 132.277904 
L 310.01333 85.677107 
L 311.4773 90.42139 
L 312.11414 105.56341 
L 312.115031 120.489982 
L 312.58869 111.626846 
L 312.62299 97.934724 
L 312.747133 119.282039 
L 312.841024 106.047456 
L 313.009123 112.67086 
L 313.308871 97.242314 
L 314.547189 104.754991 
L 314.760462 85.606233 
L 315.458034 102.588553 
L 315.984926 126.8777 
L 316.829044 123.015267 
L 316.913362 130.812319 
L 316.949462 127.619999 
L 317.734737 75.208609 
L 317.941266 121.27031 
L 318.634716 121.274022 
L 318.89629 141.308749 
L 319.048669 123.91312 
L 319.398742 115.386376 
L 320.551739 80.605576 
L 320.818593 101.020745 
L 320.885315 93.593495 
L 322.123383 87.68756 
L 322.19474 81.423072 
L 322.542395 104.033313 
L 322.620625 89.098728 
L 322.893956 73.568207 
L 323.093789 89.929443 
L 323.715992 105.392667 
L 323.972771 117.803394 
L 324.462736 85.336413 
L 325.977256 94.663857 
L 326.44553 114.47098 
L 326.518784 91.890302 
L 327.209997 104.277849 
L 327.772858 109.370023 
L 328.283603 87.51976 
L 328.337333 111.799241 
L 328.636719 90.442486 
L 328.637086 96.919028 
L 329.497589 132.128824 
L 329.807527 101.972608 
L 329.92337 79.126387 
L 330.324453 85.16764 
L 330.507671 121.729524 
L 331.923189 103.591777 
L 332.143673 78.248046 
L 332.17194 79.256453 
L 332.272961 88.980274 
L 333.287687 97.63473 
L 333.608639 104.299466 
L 334.415834 89.095469 
L 335.885598 82.167793 
L 336.378222 126.110139 
L 337.393374 105.878434 
L 337.526816 96.84992 
L 337.995342 126.017151 
L 339.029442 100.05023 
L 339.493169 108.433213 
L 339.560726 103.333796 
L 339.99854 79.569938 
L 340.457003 92.927615 
L 340.722251 105.656059 
L 340.992075 95.06277 
L 341.097116 85.957271 
L 342.275558 96.069457 
L 342.534835 101.655954 
L 342.633007 88.962483 
L 342.83936 87.66798 
L 343.76931 89.342132 
L 344.03231 102.434041 
L 344.280762 120.589014 
L 344.41667 103.708963 
L 344.50293 121.01269 
L 344.712298 124.386233 
L 344.813595 109.223478 
L 346.07026 95.505958 
L 346.512619 124.503374 
L 346.977155 98.945779 
L 347.375753 87.109507 
L 347.52458 115.091996 
L 347.966542 88.112504 
L 348.158664 103.59189 
L 348.467046 86.348125 
L 348.61612 119.258136 
L 348.893441 93.220094 
L 349.26371 81.063387 
L 349.293895 84.897299 
L 349.754667 106.682937 
L 350.022512 96.404853 
L 350.694084 91.198956 
L 350.953207 64.981501 
L 351.119837 78.440678 
L 351.180085 93.225368 
L 351.377717 97.574337 
L 351.864508 102.837684 
L 352.677405 100.305066 
L 352.875305 109.979812 
L 353.584354 90.037779 
L 354.319745 95.144033 
L 354.382561 107.045315 
L 354.680814 100.631679 
L 355.569885 99.065048 
L 356.887773 118.791881 
L 357.033906 93.203139 
L 357.584134 106.850578 
L 357.885006 67.020386 
L 357.941981 102.657253 
L 358.542573 53.568 
L 358.863608 104.860746 
L 358.991923 104.8497 
L 359.10315 88.436175 
L 359.348682 85.421094 
L 359.593762 107.287225 
L 359.852079 110.582719 
L 360.14831 73.608228 
L 360.49619 81.703576 
L 360.554218 100.240576 
L 361.011844 90.571488 
L 361.037023 110.708326 
L 361.687281 98.055599 
L 362.463259 89.574874 
L 362.52587 85.89457 
L 363.793846 93.368291 
L 363.794722 81.871127 
L 364.476392 95.426755 
L 364.769474 96.203506 
L 365.059887 112.665133 
L 365.847611 87.701911 
L 365.998014 110.668147 
L 366.129996 99.165868 
L 366.168186 106.001143 
L 366.806831 92.152403 
L 367.142429 122.254655 
L 367.668357 81.511148 
L 367.8163 122.343025 
L 368.532174 105.5951 
L 369.280854 113.58449 
L 370.317802 87.47399 
L 370.535887 72.120641 
L 371.789175 83.673761 
L 372.137569 111.170981 
L 372.202423 110.137064 
L 372.267726 106.909454 
L 372.484096 145.930979 
L 372.794208 88.953904 
L 372.963009 105.381825 
L 373.056496 98.838485 
L 373.599908 86.757677 
L 373.600156 93.163594 
L 374.185992 84.838605 
L 374.77055 107.102403 
L 375.319873 82.744896 
L 375.353963 89.65401 
L 376.041724 103.580052 
L 376.830498 105.995235 
L 377.004298 93.604564 
L 377.418381 121.911064 
L 378.022347 94.49479 
L 378.36152 92.573612 
L 378.685946 118.824862 
L 379.870093 97.270541 
L 382.058887 110.415101 
L 382.191543 98.897904 
L 382.286747 112.598787 
L 382.925667 79.428418 
L 384.313123 80.822179 
L 384.799279 97.275204 
L 385.761754 100.366929 
L 386.584504 90.723421 
L 387.078619 90.76833 
L 387.078744 91.065585 
L 387.262482 111.535442 
L 387.920676 102.054278 
L 387.945074 107.925309 
L 388.233077 80.483908 
L 389.023099 106.556198 
L 389.812775 117.169317 
L 390.334051 96.715734 
L 390.620022 87.225358 
L 390.977261 103.789841 
L 391.18707 95.32186 
L 391.349226 101.46914 
L 391.682309 87.304244 
L 391.752489 94.212701 
L 392.191859 101.414112 
L 392.224338 94.279477 
L 392.817676 95.78026 
L 393.758929 84.875229 
L 394.055126 100.172012 
L 394.778423 87.66051 
L 394.907792 106.351162 
L 395.26645 112.493892 
L 395.885604 120.758104 
L 395.97648 118.153119 
L 397.407651 88.921783 
L 397.874313 107.191543 
L 398.523019 89.06912 
L 398.65467 102.86822 
L 399.302786 83.768763 
L 400.697075 105.648929 
L 401.16653 99.715762 
L 401.567292 102.758323 
L 402.117646 75.489113 
L 402.91474 100.112773 
L 403.97188 98.81972 
L 403.972614 114.195298 
L 404.501681 101.284951 
L 404.537088 90.833771 
L 405.336173 102.994302 
L 405.7265 118.00019 
L 406.814766 86.089261 
L 408.009565 87.261168 
L 408.039549 105.615246 
L 408.862692 82.245503 
L 408.863303 83.190144 
L 408.891743 90.054665 
L 409.226934 121.310262 
L 409.74651 123.712204 
L 410.064648 93.648953 
L 410.919083 108.914091 
L 411.154244 100.526943 
L 411.730252 74.921767 
L 411.900176 81.349256 
L 412.038547 78.897561 
L 412.251044 115.676569 
L 412.391471 96.331513 
L 412.565995 121.98316 
L 413.021632 78.418313 
L 413.116719 98.12491 
L 413.504182 77.802617 
L 413.574407 81.91495 
L 413.67222 101.602488 
L 413.859253 103.485818 
L 414.72 101.249164 
L 414.72 101.249164 
" style="fill:none;stroke:#000000;stroke-linecap:square;stroke-width:0.8;"/>
   </g>
   <g id="patch_3">
    <path d="M 57.6 307.584 
L 57.6 41.472 
" style="fill:none;stroke:#000000;stroke-linecap:square;stroke-linejoin:miter;stroke-width:0.8;"/>
   </g>
   <g id="patch_4">
    <path d="M 414.72 307.584 
L 414.72 41.472 
" style="fill:none;stroke:#000000;stroke-linecap:square;stroke-linejoin:miter;stroke-width:0.8;"/>
   </g>
   <g id="patch_5">
    <path d="M 57.6 307.584 
L 414.72 307.584 
" style="fill:none;stroke:#000000;stroke-linecap:square;stroke-linejoin:miter;stroke-width:0.8;"/>
   </g>
   <g id="patch_6">
    <path d="M 57.6 41.472 
L 414.72 41.472 
" style="fill:none;stroke:#000000;stroke-linecap:square;stroke-linejoin:miter;stroke-width:0.8;"/>
   </g>
  </g>
  <g id="axes_2">
   <g id="matplotlib.axis_3">
    <g id="xtick_7">
     <g id="line2d_32">
      <defs>
       <path d="M 0 0 
L 0 -3.5 
" id="m24786cfa1f" style="stroke:#000000;stroke-width:0.8;"/>
      </defs>
      <g>
       <use style="stroke:#000000;stroke-width:0.8;" x="57.6" xlink:href="#m24786cfa1f" y="41.472"/>
      </g>
     </g>
    </g>
    <g id="xtick_8">
     <g id="line2d_33">
      <g>
       <use style="stroke:#000000;stroke-width:0.8;" x="118.376038" xlink:href="#m24786cfa1f" y="41.472"/>
      </g>
     </g>
     <g id="text_18">
      <!-- 20.0K -->
      <defs>
       <path d="M 10.6875 12.40625 
L 21 12.40625 
L 21 0 
L 10.6875 0 
z
" id="DejaVuSans-46"/>
       <path d="M 9.8125 72.90625 
L 19.671875 72.90625 
L 19.671875 42.09375 
L 52.390625 72.90625 
L 65.09375 72.90625 
L 28.90625 38.921875 
L 67.671875 0 
L 54.6875 0 
L 19.671875 35.109375 
L 19.671875 0 
L 9.8125 0 
z
" id="DejaVuSans-75"/>
      </defs>
      <g transform="translate(103.964319 32.392313)scale(0.1 -0.1)">
       <use xlink:href="#DejaVuSans-50"/>
       <use x="63.623047" xlink:href="#DejaVuSans-48"/>
       <use x="127.246094" xlink:href="#DejaVuSans-46"/>
       <use x="159.033203" xlink:href="#DejaVuSans-48"/>
       <use x="222.65625" xlink:href="#DejaVuSans-75"/>
      </g>
     </g>
    </g>
    <g id="xtick_9">
     <g id="line2d_34">
      <g>
       <use style="stroke:#000000;stroke-width:0.8;" x="179.152076" xlink:href="#m24786cfa1f" y="41.472"/>
      </g>
     </g>
     <g id="text_19">
      <!-- 40.0K -->
      <g transform="translate(164.740357 32.392313)scale(0.1 -0.1)">
       <use xlink:href="#DejaVuSans-52"/>
       <use x="63.623047" xlink:href="#DejaVuSans-48"/>
       <use x="127.246094" xlink:href="#DejaVuSans-46"/>
       <use x="159.033203" xlink:href="#DejaVuSans-48"/>
       <use x="222.65625" xlink:href="#DejaVuSans-75"/>
      </g>
     </g>
    </g>
    <g id="xtick_10">
     <g id="line2d_35">
      <g>
       <use style="stroke:#000000;stroke-width:0.8;" x="239.928114" xlink:href="#m24786cfa1f" y="41.472"/>
      </g>
     </g>
     <g id="text_20">
      <!-- 60.0K -->
      <g transform="translate(225.516396 32.392313)scale(0.1 -0.1)">
       <use xlink:href="#DejaVuSans-54"/>
       <use x="63.623047" xlink:href="#DejaVuSans-48"/>
       <use x="127.246094" xlink:href="#DejaVuSans-46"/>
       <use x="159.033203" xlink:href="#DejaVuSans-48"/>
       <use x="222.65625" xlink:href="#DejaVuSans-75"/>
      </g>
     </g>
    </g>
    <g id="xtick_11">
     <g id="line2d_36">
      <g>
       <use style="stroke:#000000;stroke-width:0.8;" x="300.704152" xlink:href="#m24786cfa1f" y="41.472"/>
      </g>
     </g>
     <g id="text_21">
      <!-- 80.0K -->
      <g transform="translate(286.292434 32.392313)scale(0.1 -0.1)">
       <use xlink:href="#DejaVuSans-56"/>
       <use x="63.623047" xlink:href="#DejaVuSans-48"/>
       <use x="127.246094" xlink:href="#DejaVuSans-46"/>
       <use x="159.033203" xlink:href="#DejaVuSans-48"/>
       <use x="222.65625" xlink:href="#DejaVuSans-75"/>
      </g>
     </g>
    </g>
    <g id="xtick_12">
     <g id="line2d_37">
      <g>
       <use style="stroke:#000000;stroke-width:0.8;" x="361.480191" xlink:href="#m24786cfa1f" y="41.472"/>
      </g>
     </g>
     <g id="text_22">
      <!-- 100K -->
      <g transform="translate(348.657534 32.392313)scale(0.1 -0.1)">
       <use xlink:href="#DejaVuSans-49"/>
       <use x="63.623047" xlink:href="#DejaVuSans-48"/>
       <use x="127.246094" xlink:href="#DejaVuSans-48"/>
       <use x="190.869141" xlink:href="#DejaVuSans-75"/>
      </g>
     </g>
    </g>
    <g id="text_23">
     <!-- Episodes -->
     <defs>
      <path d="M 9.8125 72.90625 
L 55.90625 72.90625 
L 55.90625 64.59375 
L 19.671875 64.59375 
L 19.671875 43.015625 
L 54.390625 43.015625 
L 54.390625 34.71875 
L 19.671875 34.71875 
L 19.671875 8.296875 
L 56.78125 8.296875 
L 56.78125 0 
L 9.8125 0 
z
" id="DejaVuSans-69"/>
      <path d="M 18.109375 8.203125 
L 18.109375 -20.796875 
L 9.078125 -20.796875 
L 9.078125 54.6875 
L 18.109375 54.6875 
L 18.109375 46.390625 
Q 20.953125 51.265625 25.265625 53.625 
Q 29.59375 56 35.59375 56 
Q 45.5625 56 51.78125 48.09375 
Q 58.015625 40.1875 58.015625 27.296875 
Q 58.015625 14.40625 51.78125 6.484375 
Q 45.5625 -1.421875 35.59375 -1.421875 
Q 29.59375 -1.421875 25.265625 0.953125 
Q 20.953125 3.328125 18.109375 8.203125 
z
M 48.6875 27.296875 
Q 48.6875 37.203125 44.609375 42.84375 
Q 40.53125 48.484375 33.40625 48.484375 
Q 26.265625 48.484375 22.1875 42.84375 
Q 18.109375 37.203125 18.109375 27.296875 
Q 18.109375 17.390625 22.1875 11.75 
Q 26.265625 6.109375 33.40625 6.109375 
Q 40.53125 6.109375 44.609375 11.75 
Q 48.6875 17.390625 48.6875 27.296875 
z
" id="DejaVuSans-112"/>
      <path d="M 9.421875 54.6875 
L 18.40625 54.6875 
L 18.40625 0 
L 9.421875 0 
z
M 9.421875 75.984375 
L 18.40625 75.984375 
L 18.40625 64.59375 
L 9.421875 64.59375 
z
" id="DejaVuSans-105"/>
     </defs>
     <g transform="translate(213.917812 20.793875)scale(0.1 -0.1)">
      <use xlink:href="#DejaVuSans-69"/>
      <use x="63.183594" xlink:href="#DejaVuSans-112"/>
      <use x="126.660156" xlink:href="#DejaVuSans-105"/>
      <use x="154.443359" xlink:href="#DejaVuSans-115"/>
      <use x="206.542969" xlink:href="#DejaVuSans-111"/>
      <use x="267.724609" xlink:href="#DejaVuSans-100"/>
      <use x="331.201172" xlink:href="#DejaVuSans-101"/>
      <use x="392.724609" xlink:href="#DejaVuSans-115"/>
     </g>
    </g>
   </g>
   <g id="patch_7">
    <path d="M 57.6 307.584 
L 57.6 41.472 
" style="fill:none;stroke:#000000;stroke-linecap:square;stroke-linejoin:miter;stroke-width:0.8;"/>
   </g>
   <g id="patch_8">
    <path d="M 414.72 307.584 
L 414.72 41.472 
" style="fill:none;stroke:#000000;stroke-linecap:square;stroke-linejoin:miter;stroke-width:0.8;"/>
   </g>
   <g id="patch_9">
    <path d="M 57.6 307.584 
L 414.72 307.584 
" style="fill:none;stroke:#000000;stroke-linecap:square;stroke-linejoin:miter;stroke-width:0.8;"/>
   </g>
   <g id="patch_10">
    <path d="M 57.6 41.472 
L 414.72 41.472 
" style="fill:none;stroke:#000000;stroke-linecap:square;stroke-linejoin:miter;stroke-width:0.8;"/>
   </g>
  </g>
 </g>
 <defs>
  <clipPath id="p2cf103660e">
   <rect height="266.112" width="357.12" x="57.6" y="41.472"/>
  </clipPath>
 </defs>
</svg>
