<?xml version="1.0" encoding="utf-8" standalone="no"?>
<!DOCTYPE svg PUBLIC "-//W3C//DTD SVG 1.1//EN"
  "http://www.w3.org/Graphics/SVG/1.1/DTD/svg11.dtd">
<!-- Created with matplotlib (https://matplotlib.org/) -->
<svg height="345.6pt" version="1.1" viewBox="0 0 460.8 345.6" width="460.8pt" xmlns="http://www.w3.org/2000/svg" xmlns:xlink="http://www.w3.org/1999/xlink">
 <defs>
  <style type="text/css">
*{stroke-linecap:butt;stroke-linejoin:round;}
  </style>
 </defs>
 <g id="figure_1">
  <g id="patch_1">
   <path d="M 0 345.6 
L 460.8 345.6 
L 460.8 0 
L 0 0 
z
" style="fill:#ffffff;"/>
  </g>
  <g id="axes_1">
   <g id="patch_2">
    <path d="M 57.6 307.584 
L 414.72 307.584 
L 414.72 41.472 
L 57.6 41.472 
z
" style="fill:#ffffff;"/>
   </g>
   <g id="matplotlib.axis_1">
    <g id="xtick_1">
     <g id="line2d_1">
      <path clip-path="url(#pef4f14ea74)" d="M 57.6 307.584 
L 57.6 41.472 
" style="fill:none;stroke:#b0b0b0;stroke-linecap:square;stroke-width:0.8;"/>
     </g>
     <g id="line2d_2">
      <defs>
       <path d="M 0 0 
L 0 3.5 
" id="me2f809ded8" style="stroke:#000000;stroke-width:0.8;"/>
      </defs>
      <g>
       <use style="stroke:#000000;stroke-width:0.8;" x="57.6" xlink:href="#me2f809ded8" y="307.584"/>
      </g>
     </g>
     <g id="text_1">
      <!-- 0 -->
      <defs>
       <path d="M 31.78125 66.40625 
Q 24.171875 66.40625 20.328125 58.90625 
Q 16.5 51.421875 16.5 36.375 
Q 16.5 21.390625 20.328125 13.890625 
Q 24.171875 6.390625 31.78125 6.390625 
Q 39.453125 6.390625 43.28125 13.890625 
Q 47.125 21.390625 47.125 36.375 
Q 47.125 51.421875 43.28125 58.90625 
Q 39.453125 66.40625 31.78125 66.40625 
z
M 31.78125 74.21875 
Q 44.046875 74.21875 50.515625 64.515625 
Q 56.984375 54.828125 56.984375 36.375 
Q 56.984375 17.96875 50.515625 8.265625 
Q 44.046875 -1.421875 31.78125 -1.421875 
Q 19.53125 -1.421875 13.0625 8.265625 
Q 6.59375 17.96875 6.59375 36.375 
Q 6.59375 54.828125 13.0625 64.515625 
Q 19.53125 74.21875 31.78125 74.21875 
z
" id="DejaVuSans-48"/>
      </defs>
      <g transform="translate(54.41875 322.182437)scale(0.1 -0.1)">
       <use xlink:href="#DejaVuSans-48"/>
      </g>
     </g>
    </g>
    <g id="xtick_2">
     <g id="line2d_3">
      <path clip-path="url(#pef4f14ea74)" d="M 100.569375 307.584 
L 100.569375 41.472 
" style="fill:none;stroke:#b0b0b0;stroke-linecap:square;stroke-width:0.8;"/>
     </g>
     <g id="line2d_4">
      <g>
       <use style="stroke:#000000;stroke-width:0.8;" x="100.569375" xlink:href="#me2f809ded8" y="307.584"/>
      </g>
     </g>
     <g id="text_2">
      <!-- 1 -->
      <defs>
       <path d="M 12.40625 8.296875 
L 28.515625 8.296875 
L 28.515625 63.921875 
L 10.984375 60.40625 
L 10.984375 69.390625 
L 28.421875 72.90625 
L 38.28125 72.90625 
L 38.28125 8.296875 
L 54.390625 8.296875 
L 54.390625 0 
L 12.40625 0 
z
" id="DejaVuSans-49"/>
      </defs>
      <g transform="translate(97.388125 322.182437)scale(0.1 -0.1)">
       <use xlink:href="#DejaVuSans-49"/>
      </g>
     </g>
    </g>
    <g id="xtick_3">
     <g id="line2d_5">
      <path clip-path="url(#pef4f14ea74)" d="M 143.53875 307.584 
L 143.53875 41.472 
" style="fill:none;stroke:#b0b0b0;stroke-linecap:square;stroke-width:0.8;"/>
     </g>
     <g id="line2d_6">
      <g>
       <use style="stroke:#000000;stroke-width:0.8;" x="143.53875" xlink:href="#me2f809ded8" y="307.584"/>
      </g>
     </g>
     <g id="text_3">
      <!-- 2 -->
      <defs>
       <path d="M 19.1875 8.296875 
L 53.609375 8.296875 
L 53.609375 0 
L 7.328125 0 
L 7.328125 8.296875 
Q 12.9375 14.109375 22.625 23.890625 
Q 32.328125 33.6875 34.8125 36.53125 
Q 39.546875 41.84375 41.421875 45.53125 
Q 43.3125 49.21875 43.3125 52.78125 
Q 43.3125 58.59375 39.234375 62.25 
Q 35.15625 65.921875 28.609375 65.921875 
Q 23.96875 65.921875 18.8125 64.3125 
Q 13.671875 62.703125 7.8125 59.421875 
L 7.8125 69.390625 
Q 13.765625 71.78125 18.9375 73 
Q 24.125 74.21875 28.421875 74.21875 
Q 39.75 74.21875 46.484375 68.546875 
Q 53.21875 62.890625 53.21875 53.421875 
Q 53.21875 48.921875 51.53125 44.890625 
Q 49.859375 40.875 45.40625 35.40625 
Q 44.1875 33.984375 37.640625 27.21875 
Q 31.109375 20.453125 19.1875 8.296875 
z
" id="DejaVuSans-50"/>
      </defs>
      <g transform="translate(140.3575 322.182437)scale(0.1 -0.1)">
       <use xlink:href="#DejaVuSans-50"/>
      </g>
     </g>
    </g>
    <g id="xtick_4">
     <g id="line2d_7">
      <path clip-path="url(#pef4f14ea74)" d="M 186.508125 307.584 
L 186.508125 41.472 
" style="fill:none;stroke:#b0b0b0;stroke-linecap:square;stroke-width:0.8;"/>
     </g>
     <g id="line2d_8">
      <g>
       <use style="stroke:#000000;stroke-width:0.8;" x="186.508125" xlink:href="#me2f809ded8" y="307.584"/>
      </g>
     </g>
     <g id="text_4">
      <!-- 3 -->
      <defs>
       <path d="M 40.578125 39.3125 
Q 47.65625 37.796875 51.625 33 
Q 55.609375 28.21875 55.609375 21.1875 
Q 55.609375 10.40625 48.1875 4.484375 
Q 40.765625 -1.421875 27.09375 -1.421875 
Q 22.515625 -1.421875 17.65625 -0.515625 
Q 12.796875 0.390625 7.625 2.203125 
L 7.625 11.71875 
Q 11.71875 9.328125 16.59375 8.109375 
Q 21.484375 6.890625 26.8125 6.890625 
Q 36.078125 6.890625 40.9375 10.546875 
Q 45.796875 14.203125 45.796875 21.1875 
Q 45.796875 27.640625 41.28125 31.265625 
Q 36.765625 34.90625 28.71875 34.90625 
L 20.21875 34.90625 
L 20.21875 43.015625 
L 29.109375 43.015625 
Q 36.375 43.015625 40.234375 45.921875 
Q 44.09375 48.828125 44.09375 54.296875 
Q 44.09375 59.90625 40.109375 62.90625 
Q 36.140625 65.921875 28.71875 65.921875 
Q 24.65625 65.921875 20.015625 65.03125 
Q 15.375 64.15625 9.8125 62.3125 
L 9.8125 71.09375 
Q 15.4375 72.65625 20.34375 73.4375 
Q 25.25 74.21875 29.59375 74.21875 
Q 40.828125 74.21875 47.359375 69.109375 
Q 53.90625 64.015625 53.90625 55.328125 
Q 53.90625 49.265625 50.4375 45.09375 
Q 46.96875 40.921875 40.578125 39.3125 
z
" id="DejaVuSans-51"/>
      </defs>
      <g transform="translate(183.326875 322.182437)scale(0.1 -0.1)">
       <use xlink:href="#DejaVuSans-51"/>
      </g>
     </g>
    </g>
    <g id="xtick_5">
     <g id="line2d_9">
      <path clip-path="url(#pef4f14ea74)" d="M 229.4775 307.584 
L 229.4775 41.472 
" style="fill:none;stroke:#b0b0b0;stroke-linecap:square;stroke-width:0.8;"/>
     </g>
     <g id="line2d_10">
      <g>
       <use style="stroke:#000000;stroke-width:0.8;" x="229.4775" xlink:href="#me2f809ded8" y="307.584"/>
      </g>
     </g>
     <g id="text_5">
      <!-- 4 -->
      <defs>
       <path d="M 37.796875 64.3125 
L 12.890625 25.390625 
L 37.796875 25.390625 
z
M 35.203125 72.90625 
L 47.609375 72.90625 
L 47.609375 25.390625 
L 58.015625 25.390625 
L 58.015625 17.1875 
L 47.609375 17.1875 
L 47.609375 0 
L 37.796875 0 
L 37.796875 17.1875 
L 4.890625 17.1875 
L 4.890625 26.703125 
z
" id="DejaVuSans-52"/>
      </defs>
      <g transform="translate(226.29625 322.182437)scale(0.1 -0.1)">
       <use xlink:href="#DejaVuSans-52"/>
      </g>
     </g>
    </g>
    <g id="xtick_6">
     <g id="line2d_11">
      <path clip-path="url(#pef4f14ea74)" d="M 272.446876 307.584 
L 272.446876 41.472 
" style="fill:none;stroke:#b0b0b0;stroke-linecap:square;stroke-width:0.8;"/>
     </g>
     <g id="line2d_12">
      <g>
       <use style="stroke:#000000;stroke-width:0.8;" x="272.446876" xlink:href="#me2f809ded8" y="307.584"/>
      </g>
     </g>
     <g id="text_6">
      <!-- 5 -->
      <defs>
       <path d="M 10.796875 72.90625 
L 49.515625 72.90625 
L 49.515625 64.59375 
L 19.828125 64.59375 
L 19.828125 46.734375 
Q 21.96875 47.46875 24.109375 47.828125 
Q 26.265625 48.1875 28.421875 48.1875 
Q 40.625 48.1875 47.75 41.5 
Q 54.890625 34.8125 54.890625 23.390625 
Q 54.890625 11.625 47.5625 5.09375 
Q 40.234375 -1.421875 26.90625 -1.421875 
Q 22.3125 -1.421875 17.546875 -0.640625 
Q 12.796875 0.140625 7.71875 1.703125 
L 7.71875 11.625 
Q 12.109375 9.234375 16.796875 8.0625 
Q 21.484375 6.890625 26.703125 6.890625 
Q 35.15625 6.890625 40.078125 11.328125 
Q 45.015625 15.765625 45.015625 23.390625 
Q 45.015625 31 40.078125 35.4375 
Q 35.15625 39.890625 26.703125 39.890625 
Q 22.75 39.890625 18.8125 39.015625 
Q 14.890625 38.140625 10.796875 36.28125 
z
" id="DejaVuSans-53"/>
      </defs>
      <g transform="translate(269.265626 322.182437)scale(0.1 -0.1)">
       <use xlink:href="#DejaVuSans-53"/>
      </g>
     </g>
    </g>
    <g id="xtick_7">
     <g id="line2d_13">
      <path clip-path="url(#pef4f14ea74)" d="M 315.416251 307.584 
L 315.416251 41.472 
" style="fill:none;stroke:#b0b0b0;stroke-linecap:square;stroke-width:0.8;"/>
     </g>
     <g id="line2d_14">
      <g>
       <use style="stroke:#000000;stroke-width:0.8;" x="315.416251" xlink:href="#me2f809ded8" y="307.584"/>
      </g>
     </g>
     <g id="text_7">
      <!-- 6 -->
      <defs>
       <path d="M 33.015625 40.375 
Q 26.375 40.375 22.484375 35.828125 
Q 18.609375 31.296875 18.609375 23.390625 
Q 18.609375 15.53125 22.484375 10.953125 
Q 26.375 6.390625 33.015625 6.390625 
Q 39.65625 6.390625 43.53125 10.953125 
Q 47.40625 15.53125 47.40625 23.390625 
Q 47.40625 31.296875 43.53125 35.828125 
Q 39.65625 40.375 33.015625 40.375 
z
M 52.59375 71.296875 
L 52.59375 62.3125 
Q 48.875 64.0625 45.09375 64.984375 
Q 41.3125 65.921875 37.59375 65.921875 
Q 27.828125 65.921875 22.671875 59.328125 
Q 17.53125 52.734375 16.796875 39.40625 
Q 19.671875 43.65625 24.015625 45.921875 
Q 28.375 48.1875 33.59375 48.1875 
Q 44.578125 48.1875 50.953125 41.515625 
Q 57.328125 34.859375 57.328125 23.390625 
Q 57.328125 12.15625 50.6875 5.359375 
Q 44.046875 -1.421875 33.015625 -1.421875 
Q 20.359375 -1.421875 13.671875 8.265625 
Q 6.984375 17.96875 6.984375 36.375 
Q 6.984375 53.65625 15.1875 63.9375 
Q 23.390625 74.21875 37.203125 74.21875 
Q 40.921875 74.21875 44.703125 73.484375 
Q 48.484375 72.75 52.59375 71.296875 
z
" id="DejaVuSans-54"/>
      </defs>
      <g transform="translate(312.235001 322.182437)scale(0.1 -0.1)">
       <use xlink:href="#DejaVuSans-54"/>
      </g>
     </g>
    </g>
    <g id="xtick_8">
     <g id="line2d_15">
      <path clip-path="url(#pef4f14ea74)" d="M 358.385626 307.584 
L 358.385626 41.472 
" style="fill:none;stroke:#b0b0b0;stroke-linecap:square;stroke-width:0.8;"/>
     </g>
     <g id="line2d_16">
      <g>
       <use style="stroke:#000000;stroke-width:0.8;" x="358.385626" xlink:href="#me2f809ded8" y="307.584"/>
      </g>
     </g>
     <g id="text_8">
      <!-- 7 -->
      <defs>
       <path d="M 8.203125 72.90625 
L 55.078125 72.90625 
L 55.078125 68.703125 
L 28.609375 0 
L 18.3125 0 
L 43.21875 64.59375 
L 8.203125 64.59375 
z
" id="DejaVuSans-55"/>
      </defs>
      <g transform="translate(355.204376 322.182437)scale(0.1 -0.1)">
       <use xlink:href="#DejaVuSans-55"/>
      </g>
     </g>
    </g>
    <g id="xtick_9">
     <g id="line2d_17">
      <path clip-path="url(#pef4f14ea74)" d="M 401.355001 307.584 
L 401.355001 41.472 
" style="fill:none;stroke:#b0b0b0;stroke-linecap:square;stroke-width:0.8;"/>
     </g>
     <g id="line2d_18">
      <g>
       <use style="stroke:#000000;stroke-width:0.8;" x="401.355001" xlink:href="#me2f809ded8" y="307.584"/>
      </g>
     </g>
     <g id="text_9">
      <!-- 8 -->
      <defs>
       <path d="M 31.78125 34.625 
Q 24.75 34.625 20.71875 30.859375 
Q 16.703125 27.09375 16.703125 20.515625 
Q 16.703125 13.921875 20.71875 10.15625 
Q 24.75 6.390625 31.78125 6.390625 
Q 38.8125 6.390625 42.859375 10.171875 
Q 46.921875 13.96875 46.921875 20.515625 
Q 46.921875 27.09375 42.890625 30.859375 
Q 38.875 34.625 31.78125 34.625 
z
M 21.921875 38.8125 
Q 15.578125 40.375 12.03125 44.71875 
Q 8.5 49.078125 8.5 55.328125 
Q 8.5 64.0625 14.71875 69.140625 
Q 20.953125 74.21875 31.78125 74.21875 
Q 42.671875 74.21875 48.875 69.140625 
Q 55.078125 64.0625 55.078125 55.328125 
Q 55.078125 49.078125 51.53125 44.71875 
Q 48 40.375 41.703125 38.8125 
Q 48.828125 37.15625 52.796875 32.3125 
Q 56.78125 27.484375 56.78125 20.515625 
Q 56.78125 9.90625 50.3125 4.234375 
Q 43.84375 -1.421875 31.78125 -1.421875 
Q 19.734375 -1.421875 13.25 4.234375 
Q 6.78125 9.90625 6.78125 20.515625 
Q 6.78125 27.484375 10.78125 32.3125 
Q 14.796875 37.15625 21.921875 38.8125 
z
M 18.3125 54.390625 
Q 18.3125 48.734375 21.84375 45.5625 
Q 25.390625 42.390625 31.78125 42.390625 
Q 38.140625 42.390625 41.71875 45.5625 
Q 45.3125 48.734375 45.3125 54.390625 
Q 45.3125 60.0625 41.71875 63.234375 
Q 38.140625 66.40625 31.78125 66.40625 
Q 25.390625 66.40625 21.84375 63.234375 
Q 18.3125 60.0625 18.3125 54.390625 
z
" id="DejaVuSans-56"/>
      </defs>
      <g transform="translate(398.173751 322.182437)scale(0.1 -0.1)">
       <use xlink:href="#DejaVuSans-56"/>
      </g>
     </g>
    </g>
    <g id="text_10">
     <!-- Hours -->
     <defs>
      <path d="M 9.8125 72.90625 
L 19.671875 72.90625 
L 19.671875 43.015625 
L 55.515625 43.015625 
L 55.515625 72.90625 
L 65.375 72.90625 
L 65.375 0 
L 55.515625 0 
L 55.515625 34.71875 
L 19.671875 34.71875 
L 19.671875 0 
L 9.8125 0 
z
" id="DejaVuSans-72"/>
      <path d="M 30.609375 48.390625 
Q 23.390625 48.390625 19.1875 42.75 
Q 14.984375 37.109375 14.984375 27.296875 
Q 14.984375 17.484375 19.15625 11.84375 
Q 23.34375 6.203125 30.609375 6.203125 
Q 37.796875 6.203125 41.984375 11.859375 
Q 46.1875 17.53125 46.1875 27.296875 
Q 46.1875 37.015625 41.984375 42.703125 
Q 37.796875 48.390625 30.609375 48.390625 
z
M 30.609375 56 
Q 42.328125 56 49.015625 48.375 
Q 55.71875 40.765625 55.71875 27.296875 
Q 55.71875 13.875 49.015625 6.21875 
Q 42.328125 -1.421875 30.609375 -1.421875 
Q 18.84375 -1.421875 12.171875 6.21875 
Q 5.515625 13.875 5.515625 27.296875 
Q 5.515625 40.765625 12.171875 48.375 
Q 18.84375 56 30.609375 56 
z
" id="DejaVuSans-111"/>
      <path d="M 8.5 21.578125 
L 8.5 54.6875 
L 17.484375 54.6875 
L 17.484375 21.921875 
Q 17.484375 14.15625 20.5 10.265625 
Q 23.53125 6.390625 29.59375 6.390625 
Q 36.859375 6.390625 41.078125 11.03125 
Q 45.3125 15.671875 45.3125 23.6875 
L 45.3125 54.6875 
L 54.296875 54.6875 
L 54.296875 0 
L 45.3125 0 
L 45.3125 8.40625 
Q 42.046875 3.421875 37.71875 1 
Q 33.40625 -1.421875 27.6875 -1.421875 
Q 18.265625 -1.421875 13.375 4.4375 
Q 8.5 10.296875 8.5 21.578125 
z
M 31.109375 56 
z
" id="DejaVuSans-117"/>
      <path d="M 41.109375 46.296875 
Q 39.59375 47.171875 37.8125 47.578125 
Q 36.03125 48 33.890625 48 
Q 26.265625 48 22.1875 43.046875 
Q 18.109375 38.09375 18.109375 28.8125 
L 18.109375 0 
L 9.078125 0 
L 9.078125 54.6875 
L 18.109375 54.6875 
L 18.109375 46.1875 
Q 20.953125 51.171875 25.484375 53.578125 
Q 30.03125 56 36.53125 56 
Q 37.453125 56 38.578125 55.875 
Q 39.703125 55.765625 41.0625 55.515625 
z
" id="DejaVuSans-114"/>
      <path d="M 44.28125 53.078125 
L 44.28125 44.578125 
Q 40.484375 46.53125 36.375 47.5 
Q 32.28125 48.484375 27.875 48.484375 
Q 21.1875 48.484375 17.84375 46.4375 
Q 14.5 44.390625 14.5 40.28125 
Q 14.5 37.15625 16.890625 35.375 
Q 19.28125 33.59375 26.515625 31.984375 
L 29.59375 31.296875 
Q 39.15625 29.25 43.1875 25.515625 
Q 47.21875 21.78125 47.21875 15.09375 
Q 47.21875 7.46875 41.1875 3.015625 
Q 35.15625 -1.421875 24.609375 -1.421875 
Q 20.21875 -1.421875 15.453125 -0.5625 
Q 10.6875 0.296875 5.421875 2 
L 5.421875 11.28125 
Q 10.40625 8.6875 15.234375 7.390625 
Q 20.0625 6.109375 24.8125 6.109375 
Q 31.15625 6.109375 34.5625 8.28125 
Q 37.984375 10.453125 37.984375 14.40625 
Q 37.984375 18.0625 35.515625 20.015625 
Q 33.0625 21.96875 24.703125 23.78125 
L 21.578125 24.515625 
Q 13.234375 26.265625 9.515625 29.90625 
Q 5.8125 33.546875 5.8125 39.890625 
Q 5.8125 47.609375 11.28125 51.796875 
Q 16.75 56 26.8125 56 
Q 31.78125 56 36.171875 55.265625 
Q 40.578125 54.546875 44.28125 53.078125 
z
" id="DejaVuSans-115"/>
     </defs>
     <g transform="translate(221.511562 335.860562)scale(0.1 -0.1)">
      <use xlink:href="#DejaVuSans-72"/>
      <use x="75.195312" xlink:href="#DejaVuSans-111"/>
      <use x="136.376953" xlink:href="#DejaVuSans-117"/>
      <use x="199.755859" xlink:href="#DejaVuSans-114"/>
      <use x="240.869141" xlink:href="#DejaVuSans-115"/>
     </g>
    </g>
   </g>
   <g id="matplotlib.axis_2">
    <g id="ytick_1">
     <g id="line2d_19">
      <path clip-path="url(#pef4f14ea74)" d="M 57.6 293.001924 
L 414.72 293.001924 
" style="fill:none;stroke:#b0b0b0;stroke-linecap:square;stroke-width:0.8;"/>
     </g>
     <g id="line2d_20">
      <defs>
       <path d="M 0 0 
L -3.5 0 
" id="m0de32cd1b9" style="stroke:#000000;stroke-width:0.8;"/>
      </defs>
      <g>
       <use style="stroke:#000000;stroke-width:0.8;" x="57.6" xlink:href="#m0de32cd1b9" y="293.001924"/>
      </g>
     </g>
     <g id="text_11">
      <!-- −0.3 -->
      <defs>
       <path d="M 10.59375 35.5 
L 73.1875 35.5 
L 73.1875 27.203125 
L 10.59375 27.203125 
z
" id="DejaVuSans-8722"/>
       <path d="M 10.6875 12.40625 
L 21 12.40625 
L 21 0 
L 10.6875 0 
z
" id="DejaVuSans-46"/>
      </defs>
      <g transform="translate(26.317187 296.801142)scale(0.1 -0.1)">
       <use xlink:href="#DejaVuSans-8722"/>
       <use x="83.789062" xlink:href="#DejaVuSans-48"/>
       <use x="147.412109" xlink:href="#DejaVuSans-46"/>
       <use x="179.199219" xlink:href="#DejaVuSans-51"/>
      </g>
     </g>
    </g>
    <g id="ytick_2">
     <g id="line2d_21">
      <path clip-path="url(#pef4f14ea74)" d="M 57.6 258.820637 
L 414.72 258.820637 
" style="fill:none;stroke:#b0b0b0;stroke-linecap:square;stroke-width:0.8;"/>
     </g>
     <g id="line2d_22">
      <g>
       <use style="stroke:#000000;stroke-width:0.8;" x="57.6" xlink:href="#m0de32cd1b9" y="258.820637"/>
      </g>
     </g>
     <g id="text_12">
      <!-- −0.2 -->
      <g transform="translate(26.317187 262.619856)scale(0.1 -0.1)">
       <use xlink:href="#DejaVuSans-8722"/>
       <use x="83.789062" xlink:href="#DejaVuSans-48"/>
       <use x="147.412109" xlink:href="#DejaVuSans-46"/>
       <use x="179.199219" xlink:href="#DejaVuSans-50"/>
      </g>
     </g>
    </g>
    <g id="ytick_3">
     <g id="line2d_23">
      <path clip-path="url(#pef4f14ea74)" d="M 57.6 224.63935 
L 414.72 224.63935 
" style="fill:none;stroke:#b0b0b0;stroke-linecap:square;stroke-width:0.8;"/>
     </g>
     <g id="line2d_24">
      <g>
       <use style="stroke:#000000;stroke-width:0.8;" x="57.6" xlink:href="#m0de32cd1b9" y="224.63935"/>
      </g>
     </g>
     <g id="text_13">
      <!-- −0.1 -->
      <g transform="translate(26.317187 228.438569)scale(0.1 -0.1)">
       <use xlink:href="#DejaVuSans-8722"/>
       <use x="83.789062" xlink:href="#DejaVuSans-48"/>
       <use x="147.412109" xlink:href="#DejaVuSans-46"/>
       <use x="179.199219" xlink:href="#DejaVuSans-49"/>
      </g>
     </g>
    </g>
    <g id="ytick_4">
     <g id="line2d_25">
      <path clip-path="url(#pef4f14ea74)" d="M 57.6 190.458063 
L 414.72 190.458063 
" style="fill:none;stroke:#b0b0b0;stroke-linecap:square;stroke-width:0.8;"/>
     </g>
     <g id="line2d_26">
      <g>
       <use style="stroke:#000000;stroke-width:0.8;" x="57.6" xlink:href="#m0de32cd1b9" y="190.458063"/>
      </g>
     </g>
     <g id="text_14">
      <!-- 0.0 -->
      <g transform="translate(34.696875 194.257282)scale(0.1 -0.1)">
       <use xlink:href="#DejaVuSans-48"/>
       <use x="63.623047" xlink:href="#DejaVuSans-46"/>
       <use x="95.410156" xlink:href="#DejaVuSans-48"/>
      </g>
     </g>
    </g>
    <g id="ytick_5">
     <g id="line2d_27">
      <path clip-path="url(#pef4f14ea74)" d="M 57.6 156.276777 
L 414.72 156.276777 
" style="fill:none;stroke:#b0b0b0;stroke-linecap:square;stroke-width:0.8;"/>
     </g>
     <g id="line2d_28">
      <g>
       <use style="stroke:#000000;stroke-width:0.8;" x="57.6" xlink:href="#m0de32cd1b9" y="156.276777"/>
      </g>
     </g>
     <g id="text_15">
      <!-- 0.1 -->
      <g transform="translate(34.696875 160.075995)scale(0.1 -0.1)">
       <use xlink:href="#DejaVuSans-48"/>
       <use x="63.623047" xlink:href="#DejaVuSans-46"/>
       <use x="95.410156" xlink:href="#DejaVuSans-49"/>
      </g>
     </g>
    </g>
    <g id="ytick_6">
     <g id="line2d_29">
      <path clip-path="url(#pef4f14ea74)" d="M 57.6 122.09549 
L 414.72 122.09549 
" style="fill:none;stroke:#b0b0b0;stroke-linecap:square;stroke-width:0.8;"/>
     </g>
     <g id="line2d_30">
      <g>
       <use style="stroke:#000000;stroke-width:0.8;" x="57.6" xlink:href="#m0de32cd1b9" y="122.09549"/>
      </g>
     </g>
     <g id="text_16">
      <!-- 0.2 -->
      <g transform="translate(34.696875 125.894709)scale(0.1 -0.1)">
       <use xlink:href="#DejaVuSans-48"/>
       <use x="63.623047" xlink:href="#DejaVuSans-46"/>
       <use x="95.410156" xlink:href="#DejaVuSans-50"/>
      </g>
     </g>
    </g>
    <g id="ytick_7">
     <g id="line2d_31">
      <path clip-path="url(#pef4f14ea74)" d="M 57.6 87.914203 
L 414.72 87.914203 
" style="fill:none;stroke:#b0b0b0;stroke-linecap:square;stroke-width:0.8;"/>
     </g>
     <g id="line2d_32">
      <g>
       <use style="stroke:#000000;stroke-width:0.8;" x="57.6" xlink:href="#m0de32cd1b9" y="87.914203"/>
      </g>
     </g>
     <g id="text_17">
      <!-- 0.3 -->
      <g transform="translate(34.696875 91.713422)scale(0.1 -0.1)">
       <use xlink:href="#DejaVuSans-48"/>
       <use x="63.623047" xlink:href="#DejaVuSans-46"/>
       <use x="95.410156" xlink:href="#DejaVuSans-51"/>
      </g>
     </g>
    </g>
    <g id="ytick_8">
     <g id="line2d_33">
      <path clip-path="url(#pef4f14ea74)" d="M 57.6 53.732916 
L 414.72 53.732916 
" style="fill:none;stroke:#b0b0b0;stroke-linecap:square;stroke-width:0.8;"/>
     </g>
     <g id="line2d_34">
      <g>
       <use style="stroke:#000000;stroke-width:0.8;" x="57.6" xlink:href="#m0de32cd1b9" y="53.732916"/>
      </g>
     </g>
     <g id="text_18">
      <!-- 0.4 -->
      <g transform="translate(34.696875 57.532135)scale(0.1 -0.1)">
       <use xlink:href="#DejaVuSans-48"/>
       <use x="63.623047" xlink:href="#DejaVuSans-46"/>
       <use x="95.410156" xlink:href="#DejaVuSans-52"/>
      </g>
     </g>
    </g>
    <g id="text_19">
     <!-- Reward -->
     <defs>
      <path d="M 44.390625 34.1875 
Q 47.5625 33.109375 50.5625 29.59375 
Q 53.5625 26.078125 56.59375 19.921875 
L 66.609375 0 
L 56 0 
L 46.6875 18.703125 
Q 43.0625 26.03125 39.671875 28.421875 
Q 36.28125 30.8125 30.421875 30.8125 
L 19.671875 30.8125 
L 19.671875 0 
L 9.8125 0 
L 9.8125 72.90625 
L 32.078125 72.90625 
Q 44.578125 72.90625 50.734375 67.671875 
Q 56.890625 62.453125 56.890625 51.90625 
Q 56.890625 45.015625 53.6875 40.46875 
Q 50.484375 35.9375 44.390625 34.1875 
z
M 19.671875 64.796875 
L 19.671875 38.921875 
L 32.078125 38.921875 
Q 39.203125 38.921875 42.84375 42.21875 
Q 46.484375 45.515625 46.484375 51.90625 
Q 46.484375 58.296875 42.84375 61.546875 
Q 39.203125 64.796875 32.078125 64.796875 
z
" id="DejaVuSans-82"/>
      <path d="M 56.203125 29.59375 
L 56.203125 25.203125 
L 14.890625 25.203125 
Q 15.484375 15.921875 20.484375 11.0625 
Q 25.484375 6.203125 34.421875 6.203125 
Q 39.59375 6.203125 44.453125 7.46875 
Q 49.3125 8.734375 54.109375 11.28125 
L 54.109375 2.78125 
Q 49.265625 0.734375 44.1875 -0.34375 
Q 39.109375 -1.421875 33.890625 -1.421875 
Q 20.796875 -1.421875 13.15625 6.1875 
Q 5.515625 13.8125 5.515625 26.8125 
Q 5.515625 40.234375 12.765625 48.109375 
Q 20.015625 56 32.328125 56 
Q 43.359375 56 49.78125 48.890625 
Q 56.203125 41.796875 56.203125 29.59375 
z
M 47.21875 32.234375 
Q 47.125 39.59375 43.09375 43.984375 
Q 39.0625 48.390625 32.421875 48.390625 
Q 24.90625 48.390625 20.390625 44.140625 
Q 15.875 39.890625 15.1875 32.171875 
z
" id="DejaVuSans-101"/>
      <path d="M 4.203125 54.6875 
L 13.1875 54.6875 
L 24.421875 12.015625 
L 35.59375 54.6875 
L 46.1875 54.6875 
L 57.421875 12.015625 
L 68.609375 54.6875 
L 77.59375 54.6875 
L 63.28125 0 
L 52.6875 0 
L 40.921875 44.828125 
L 29.109375 0 
L 18.5 0 
z
" id="DejaVuSans-119"/>
      <path d="M 34.28125 27.484375 
Q 23.390625 27.484375 19.1875 25 
Q 14.984375 22.515625 14.984375 16.5 
Q 14.984375 11.71875 18.140625 8.90625 
Q 21.296875 6.109375 26.703125 6.109375 
Q 34.1875 6.109375 38.703125 11.40625 
Q 43.21875 16.703125 43.21875 25.484375 
L 43.21875 27.484375 
z
M 52.203125 31.203125 
L 52.203125 0 
L 43.21875 0 
L 43.21875 8.296875 
Q 40.140625 3.328125 35.546875 0.953125 
Q 30.953125 -1.421875 24.3125 -1.421875 
Q 15.921875 -1.421875 10.953125 3.296875 
Q 6 8.015625 6 15.921875 
Q 6 25.140625 12.171875 29.828125 
Q 18.359375 34.515625 30.609375 34.515625 
L 43.21875 34.515625 
L 43.21875 35.40625 
Q 43.21875 41.609375 39.140625 45 
Q 35.0625 48.390625 27.6875 48.390625 
Q 23 48.390625 18.546875 47.265625 
Q 14.109375 46.140625 10.015625 43.890625 
L 10.015625 52.203125 
Q 14.9375 54.109375 19.578125 55.046875 
Q 24.21875 56 28.609375 56 
Q 40.484375 56 46.34375 49.84375 
Q 52.203125 43.703125 52.203125 31.203125 
z
" id="DejaVuSans-97"/>
      <path d="M 45.40625 46.390625 
L 45.40625 75.984375 
L 54.390625 75.984375 
L 54.390625 0 
L 45.40625 0 
L 45.40625 8.203125 
Q 42.578125 3.328125 38.25 0.953125 
Q 33.9375 -1.421875 27.875 -1.421875 
Q 17.96875 -1.421875 11.734375 6.484375 
Q 5.515625 14.40625 5.515625 27.296875 
Q 5.515625 40.1875 11.734375 48.09375 
Q 17.96875 56 27.875 56 
Q 33.9375 56 38.25 53.625 
Q 42.578125 51.265625 45.40625 46.390625 
z
M 14.796875 27.296875 
Q 14.796875 17.390625 18.875 11.75 
Q 22.953125 6.109375 30.078125 6.109375 
Q 37.203125 6.109375 41.296875 11.75 
Q 45.40625 17.390625 45.40625 27.296875 
Q 45.40625 37.203125 41.296875 42.84375 
Q 37.203125 48.484375 30.078125 48.484375 
Q 22.953125 48.484375 18.875 42.84375 
Q 14.796875 37.203125 14.796875 27.296875 
z
" id="DejaVuSans-100"/>
     </defs>
     <g transform="translate(20.2375 193.457687)rotate(-90)scale(0.1 -0.1)">
      <use xlink:href="#DejaVuSans-82"/>
      <use x="69.419922" xlink:href="#DejaVuSans-101"/>
      <use x="130.943359" xlink:href="#DejaVuSans-119"/>
      <use x="212.730469" xlink:href="#DejaVuSans-97"/>
      <use x="274.009766" xlink:href="#DejaVuSans-114"/>
      <use x="315.107422" xlink:href="#DejaVuSans-100"/>
     </g>
    </g>
   </g>
   <g id="line2d_35">
    <path clip-path="url(#pef4f14ea74)" d="M 57.6 239.794857 
L 57.673117 295.488 
L 57.703651 262.812276 
L 57.736037 247.014626 
L 57.862324 277.209529 
L 58.660353 263.215144 
L 58.784951 266.489106 
L 58.942055 250.728459 
L 59.007555 267.759687 
L 59.464231 258.241201 
L 59.589452 271.802524 
L 59.620419 269.039737 
L 59.65019 265.91681 
L 59.679412 275.884484 
L 59.713079 234.798462 
L 59.90501 240.725341 
L 59.973613 257.282046 
L 60.414997 252.095744 
L 60.445764 225.700096 
L 60.475901 287.941035 
L 60.573272 274.804289 
L 60.672381 253.497445 
L 60.842705 279.426109 
L 61.215517 264.62992 
L 61.352316 239.403708 
L 61.559181 254.778972 
L 62.226779 273.593443 
L 62.329663 271.306635 
L 62.363855 260.16653 
L 63.022443 249.347799 
L 63.125981 260.85603 
L 63.19242 249.206666 
L 63.439846 236.008361 
L 63.474166 265.992498 
L 63.982024 248.52857 
L 64.019096 259.329449 
L 64.251283 264.987304 
L 64.389346 289.857451 
L 64.426678 251.843498 
L 64.456472 265.019311 
L 64.972188 273.200965 
L 65.146273 263.940191 
L 65.218307 253.488786 
L 65.249712 275.025873 
L 65.282518 257.575982 
L 65.590395 251.649862 
L 65.689108 239.777203 
L 65.797039 276.328644 
L 65.898666 254.063262 
L 66.331228 242.039731 
L 66.366325 273.539871 
L 66.432302 257.778419 
L 66.538213 239.3501 
L 66.608087 240.960819 
L 66.71217 264.891456 
L 67.021554 250.953451 
L 67.26271 262.769476 
L 67.814642 244.090617 
L 67.948361 259.7663 
L 68.498496 261.193423 
L 68.536174 235.094547 
L 68.606877 253.470903 
L 68.746982 252.6697 
L 68.889474 234.375531 
L 68.929287 254.321492 
L 69.245765 243.229857 
L 69.59941 237.428749 
L 69.67147 254.113758 
L 69.926423 272.315451 
L 70.062049 255.819663 
L 70.129974 283.508018 
L 70.200923 241.001068 
L 70.503738 251.835323 
L 70.56713 252.627848 
L 70.740666 234.492557 
L 70.941223 247.653202 
L 71.171058 254.652151 
L 71.205762 248.123166 
L 71.375712 264.087319 
L 71.427131 283.250301 
L 71.567069 243.786948 
L 71.601453 248.970826 
L 71.733445 260.166637 
L 71.770531 283.277419 
L 71.837756 242.023941 
L 71.959847 247.063579 
L 72.099914 268.775639 
L 72.215105 237.22619 
L 72.286321 274.080831 
L 72.402489 272.891001 
L 72.475219 250.684407 
L 72.603845 251.49924 
L 72.710538 268.521223 
L 73.127797 235.329491 
L 73.160081 275.165972 
L 73.232431 243.412634 
L 73.267352 246.055827 
L 73.436014 245.892691 
L 73.469906 237.097815 
L 73.60847 250.266253 
L 73.668348 271.165288 
L 73.762222 250.084362 
L 73.89467 267.410254 
L 74.103639 251.262335 
L 74.28935 258.120213 
L 74.42327 243.498345 
L 74.594017 258.87531 
L 74.628025 289.933434 
L 74.826385 246.708553 
L 74.861139 265.172974 
L 75.209216 253.088928 
L 75.416242 266.939562 
L 75.692148 230.224049 
L 75.869794 260.413968 
L 75.901922 254.501891 
L 75.970843 254.223485 
L 76.041128 240.098011 
L 76.185274 241.287883 
L 76.533811 245.121401 
L 76.600848 238.259428 
L 76.640146 266.826753 
L 76.968279 246.10341 
L 77.256804 234.590483 
L 77.43857 267.7432 
L 77.584124 264.215408 
L 77.621915 247.326327 
L 77.805379 249.849801 
L 77.838407 262.607786 
L 78.244478 255.715253 
L 78.354498 276.000293 
L 78.394423 267.09106 
L 78.553032 246.240581 
L 78.692845 243.6033 
L 79.104597 238.705529 
L 79.317002 270.269469 
L 79.500444 242.154083 
L 79.583307 257.461126 
L 79.789759 238.287371 
L 79.831024 266.733462 
L 80.072929 247.973272 
L 80.14669 263.140516 
L 80.218731 236.056427 
L 80.285205 240.031644 
L 80.363903 269.312423 
L 80.520313 231.802204 
L 80.705414 239.706873 
L 80.771061 229.980347 
L 80.864166 274.507797 
L 81.013851 259.426433 
L 81.086587 218.326269 
L 81.15949 234.030723 
L 81.314276 237.886122 
L 81.383328 223.657881 
L 81.420215 265.86526 
L 81.738805 242.838005 
L 81.780823 216.744455 
L 82.00916 270.561474 
L 82.121619 226.843607 
L 82.159649 239.515651 
L 82.539706 266.73525 
L 82.580837 231.388058 
L 82.708325 266.407341 
L 82.748346 233.692225 
L 82.959787 256.28685 
L 83.141547 245.690426 
L 83.224884 255.474355 
L 83.304818 243.824889 
L 83.391888 209.610961 
L 83.539071 264.093543 
L 83.756378 255.364938 
L 83.794985 229.912282 
L 83.876774 233.656164 
L 84.010676 266.784916 
L 84.187019 255.223566 
L 84.386714 250.821037 
L 84.659214 271.33169 
L 84.815786 225.222538 
L 84.852108 250.273205 
L 84.886686 248.879715 
L 84.962103 227.894321 
L 85.08079 245.270398 
L 85.242657 224.255287 
L 85.281826 235.014535 
L 85.450567 232.10803 
L 85.562829 235.153254 
L 85.715182 244.888148 
L 85.844223 240.075223 
L 85.880748 260.828597 
L 85.960517 249.06074 
L 86.080925 218.369983 
L 86.159935 244.964111 
L 86.277349 240.756803 
L 86.337783 241.182317 
L 86.377443 236.465071 
L 86.456586 237.275672 
L 86.534827 252.957814 
L 86.574559 248.726602 
L 86.999105 245.106666 
L 87.038013 250.377824 
L 87.073473 235.928608 
L 87.146983 264.917957 
L 87.257587 245.093871 
L 87.333818 250.254879 
L 87.425996 254.703758 
L 87.725955 236.136521 
L 87.839325 268.311094 
L 87.87941 251.808924 
L 87.913102 227.431904 
L 87.953505 268.633599 
L 88.003754 232.650857 
L 88.202653 254.868947 
L 88.562223 243.36665 
L 88.603077 234.595347 
L 88.646694 237.592915 
L 88.891612 255.195139 
L 88.925782 234.752688 
L 89.04657 236.108986 
L 89.107721 252.61683 
L 89.152326 244.722974 
L 89.31392 238.64774 
L 89.56477 256.860445 
L 89.70098 229.636346 
L 89.74523 259.408081 
L 90.07729 222.268562 
L 90.34642 263.99057 
L 90.527816 226.101712 
L 90.56722 239.409495 
L 90.655169 246.552557 
L 90.744577 245.590876 
L 90.855307 218.602676 
L 90.88877 230.165057 
L 90.964904 256.430067 
L 91.078817 253.920942 
L 91.160451 221.990195 
L 91.258908 270.597846 
L 91.51601 253.806727 
L 91.555967 224.86657 
L 91.834822 246.576817 
L 91.882848 230.013556 
L 91.974268 243.898672 
L 92.108453 226.183473 
L 92.300021 238.289189 
L 92.517132 237.293316 
L 92.649974 245.771437 
L 92.694765 276.500292 
L 92.779185 226.318377 
L 92.87367 265.080315 
L 92.979299 227.669567 
L 93.194071 251.707662 
L 93.334417 242.501285 
L 93.38038 279.002949 
L 93.426681 239.060525 
L 93.577652 234.917302 
L 93.950202 219.753549 
L 94.005915 220.303151 
L 94.457078 263.564659 
L 94.505078 224.493139 
L 94.724487 238.282945 
L 94.821617 211.918759 
L 94.871001 276.071244 
L 95.16958 233.162167 
L 95.272468 250.454852 
L 95.421771 254.739376 
L 95.517005 265.561571 
L 95.565073 215.026347 
L 95.733924 262.832466 
L 95.888445 235.526631 
L 96.047435 242.146942 
L 96.093342 241.848626 
L 96.5309 209.490993 
L 96.582661 231.783185 
L 96.628163 228.564609 
L 96.675738 220.932982 
L 96.767391 237.147303 
L 96.827559 203.235323 
L 96.935005 260.370552 
L 96.996165 242.621174 
L 97.055967 246.813681 
L 97.20069 244.257498 
L 97.353598 211.70167 
L 97.457304 240.222082 
L 97.776797 232.433088 
L 97.824239 233.07386 
L 97.994204 195.523392 
L 98.546161 230.978964 
L 98.899546 221.424587 
L 98.946111 249.921679 
L 99.011973 232.238169 
L 99.11305 215.773695 
L 99.158865 231.193093 
L 99.210665 226.446456 
L 99.387782 260.036185 
L 99.453818 237.3399 
L 99.626371 246.23235 
L 99.755156 237.805809 
L 99.818422 242.820484 
L 100.055493 197.215801 
L 100.14241 246.348347 
L 100.39065 251.6601 
L 100.457379 228.769924 
L 100.530529 254.147614 
L 100.595437 223.528117 
L 100.816484 239.872429 
L 100.876507 230.296401 
L 100.947119 257.04587 
L 101.135063 244.795346 
L 101.194397 232.928295 
L 101.754494 227.015989 
L 102.09835 261.186256 
L 102.283318 209.895175 
L 102.49957 221.36176 
L 102.578629 259.646218 
L 102.979369 199.482582 
L 103.119564 279.89947 
L 103.181425 237.450875 
L 103.428767 256.698388 
L 104.121966 254.260789 
L 104.537117 203.960943 
L 104.622062 245.406438 
L 104.7356 235.045615 
L 104.886448 245.084433 
L 105.027833 231.360057 
L 105.102749 259.603541 
L 105.17728 219.986074 
L 105.48051 224.32512 
L 105.673177 245.85558 
L 106.308057 202.883609 
L 106.421037 221.846892 
L 106.695016 235.989057 
L 106.926243 220.400051 
L 107.548738 205.746083 
L 107.642988 213.498574 
L 107.825638 214.106095 
L 108.004662 215.589278 
L 108.412443 213.411206 
L 108.880731 207.30197 
L 109.098475 210.785903 
L 109.349924 164.751864 
L 109.999831 250.378318 
L 111.129271 208.375924 
L 111.278845 180.444802 
L 112.30731 193.905883 
L 112.691277 188.342909 
L 113.016102 186.554204 
L 113.180517 244.692908 
L 113.478375 190.137822 
L 115.299439 258.16612 
L 115.715261 219.212894 
L 116.283277 215.497477 
L 117.143675 250.426818 
L 117.596045 247.617059 
L 117.768933 233.554178 
L 118.700444 170.477798 
L 118.902491 288.682524 
L 119.554599 204.278506 
L 119.748164 216.023567 
L 120.404771 204.404609 
L 120.711841 223.646528 
L 123.033862 219.971264 
L 123.721579 188.737525 
L 124.384145 198.462883 
L 124.562521 209.175007 
L 124.753488 170.584491 
L 125.459516 214.31876 
L 125.6304 241.304513 
L 125.820843 207.722568 
L 129.037595 257.576578 
L 129.997049 197.067479 
L 130.179962 237.246441 
L 130.603387 166.618076 
L 130.766351 203.45144 
L 131.314137 208.885492 
L 131.910717 162.437374 
L 132.172543 196.902411 
L 132.337065 246.444332 
L 132.540866 197.250548 
L 133.005533 295.105699 
L 133.473897 172.490411 
L 133.946636 234.04803 
L 134.351207 225.601368 
L 134.59906 177.814815 
L 134.999881 207.303378 
L 135.424913 206.614735 
L 135.895182 174.311135 
L 136.081118 215.598158 
L 136.281996 174.550853 
L 136.55741 210.220504 
L 136.735802 126.628307 
L 139.097479 167.463722 
L 139.922715 224.439266 
L 140.987336 225.026231 
L 141.201965 221.762237 
L 141.511231 202.957959 
L 142.057846 199.189084 
L 142.802633 179.929844 
L 143.477438 200.533149 
L 144.020452 170.205916 
L 144.776122 208.19794 
L 145.320342 188.289009 
L 146.4212 251.219454 
L 146.640325 183.529773 
L 146.848781 201.841149 
L 147.419219 170.640644 
L 147.775714 262.729569 
L 148.755752 181.406238 
L 149.073526 239.699182 
L 149.299415 217.916525 
L 149.864225 213.584158 
L 151.080744 210.271161 
L 151.716265 155.711275 
L 152.857143 213.533723 
L 153.205788 206.510874 
L 154.134708 193.801513 
L 154.581663 196.694242 
L 155.474002 180.057259 
L 155.663149 194.9504 
L 155.954207 169.769801 
L 156.130508 210.700038 
L 156.64429 160.17358 
L 157.341626 116.891095 
L 157.556256 190.324946 
L 158.011316 280.437324 
L 158.322603 242.446271 
L 159.937292 243.013631 
L 160.677633 180.524456 
L 161.495013 164.517208 
L 162.255126 206.628015 
L 162.439443 233.141393 
L 163.636563 230.577768 
L 163.956099 179.293268 
L 164.148194 237.874443 
L 164.770483 236.08877 
L 165.229955 182.945107 
L 165.378823 148.340965 
L 165.838134 222.224471 
L 166.019948 212.898985 
L 166.218269 193.639601 
L 167.749702 223.405511 
L 169.003661 202.376018 
L 169.371287 149.314823 
L 170.511129 204.73908 
L 171.521985 218.384495 
L 172.004225 138.091685 
L 172.174991 188.714245 
L 172.915009 175.391745 
L 173.846154 207.593661 
L 175.44619 170.135829 
L 175.936397 184.820146 
L 176.610741 193.273673 
L 177.076744 205.591628 
L 177.254563 184.558753 
L 177.942404 193.428608 
L 178.231948 204.1721 
L 178.745118 123.538986 
L 178.960771 180.550723 
L 179.63437 189.288834 
L 183.36397 231.523935 
L 183.659356 203.941898 
L 183.866725 259.297727 
L 184.038279 218.973728 
L 184.926502 211.369274 
L 185.668695 160.472217 
L 186.499219 170.810979 
L 186.779852 170.356472 
L 186.958537 173.924482 
L 187.887816 117.043897 
L 188.053412 158.382837 
L 188.243521 168.258162 
L 188.698947 198.823067 
L 189.150542 156.76844 
L 189.512587 161.868104 
L 189.964053 200.949664 
L 191.24364 164.615796 
L 191.779985 163.271294 
L 192.941165 238.040453 
L 193.157715 146.666179 
L 195.243489 187.368424 
L 195.417189 180.92188 
L 197.834868 177.841059 
L 198.710118 207.072439 
L 198.933964 169.280534 
L 199.565382 168.503664 
L 199.765993 159.592651 
L 200.436404 146.526176 
L 200.884147 165.613572 
L 201.092932 188.57382 
L 201.32275 200.037577 
L 202.775406 196.173349 
L 203.206199 122.407211 
L 203.397108 157.340876 
L 204.073623 229.729466 
L 204.521839 224.913086 
L 204.713628 173.342948 
L 205.023235 216.96473 
L 205.199157 187.263734 
L 206.383548 213.522146 
L 206.839367 184.133427 
L 207.781792 201.725459 
L 207.934836 141.352017 
L 208.52489 217.690543 
L 210.276088 201.288252 
L 210.778646 143.33485 
L 213.086969 205.253487 
L 213.562763 202.386488 
L 213.786052 165.652585 
L 214.248265 151.7495 
L 214.426814 178.150966 
L 214.907457 172.377991 
L 215.095687 199.538505 
L 216.311539 268.848256 
L 216.608327 202.903941 
L 217.887995 222.587433 
L 218.102162 154.837692 
L 220.115806 212.978595 
L 220.942699 216.005784 
L 221.288799 161.823631 
L 222.097732 159.552879 
L 223.249676 226.623287 
L 223.899413 154.616019 
L 224.286331 222.918963 
L 225.064862 194.599398 
L 225.450238 204.555796 
L 225.722917 183.358357 
L 226.551987 160.313583 
L 226.720962 194.645555 
L 227.1725 149.750783 
L 227.388355 231.893778 
L 227.827899 163.029747 
L 228.459613 225.795598 
L 228.723118 171.015434 
L 228.898788 191.884151 
L 229.674266 145.02248 
L 230.087834 163.965753 
L 230.275367 161.769768 
L 230.52739 192.865641 
L 230.902622 142.087006 
L 231.355757 184.190311 
L 231.808384 202.02115 
L 232.496019 106.729449 
L 233.289321 226.811529 
L 233.608882 199.932685 
L 234.23521 121.853043 
L 234.612769 196.725414 
L 234.872265 198.138774 
L 235.491724 205.544786 
L 235.687839 169.680628 
L 236.394692 212.319854 
L 237.344447 173.905448 
L 237.579851 241.182755 
L 237.890578 215.758262 
L 239.47424 101.304393 
L 239.909724 164.329715 
L 240.087445 214.061933 
L 240.366464 197.705442 
L 241.016755 195.165735 
L 241.199292 210.348321 
L 241.657553 159.389712 
L 242.516469 189.822061 
L 242.970768 127.175751 
L 244.492572 182.74552 
L 244.676246 114.869623 
L 245.144627 204.779854 
L 245.339283 143.077057 
L 245.528004 202.763663 
L 245.794736 168.894759 
L 246.15539 171.756213 
L 246.780577 142.940065 
L 247.030273 155.526695 
L 247.425415 236.525006 
L 248.368374 149.578417 
L 248.571382 167.796747 
L 249.56791 155.454318 
L 249.989277 114.142636 
L 250.150306 142.344208 
L 250.341566 133.794524 
L 251.234905 209.541805 
L 251.916397 128.643865 
L 252.286078 163.993229 
L 252.946976 160.162102 
L 253.298458 120.550964 
L 253.46674 176.202108 
L 253.679074 145.204401 
L 254.040601 172.085969 
L 254.467994 176.252486 
L 255.028123 119.890725 
L 255.204686 159.187478 
L 255.70203 202.010785 
L 255.946387 163.365522 
L 256.128312 170.545912 
L 256.772159 212.234817 
L 257.23032 220.996046 
L 257.41021 177.118278 
L 257.884956 162.176897 
L 259.255333 168.584181 
L 259.429316 135.192991 
L 259.967965 169.494439 
L 260.89428 197.639684 
L 261.702492 193.47896 
L 262.832313 140.770568 
L 262.976358 165.84259 
L 263.347621 142.227385 
L 264.080697 141.696183 
L 264.343692 196.410653 
L 264.515453 160.684757 
L 264.937767 177.023528 
L 265.286221 141.531753 
L 266.138229 209.859353 
L 266.955245 171.232218 
L 267.341749 128.049098 
L 267.50301 161.642058 
L 268.976576 96.868737 
L 269.19975 174.50502 
L 269.791062 190.918622 
L 270.418956 112.131315 
L 271.22265 105.558556 
L 271.684289 202.172673 
L 272.488486 163.792264 
L 273.587159 143.316931 
L 273.768132 173.398686 
L 274.646555 185.477104 
L 274.819155 138.992368 
L 275.399387 177.274412 
L 275.593965 164.373697 
L 276.422225 199.885365 
L 276.962583 124.723525 
L 277.123419 167.755338 
L 277.524595 57.632306 
L 277.872151 147.134426 
L 278.09954 150.245847 
L 278.261325 113.080405 
L 280.021773 171.081069 
L 280.196408 184.292303 
L 281.460106 191.881757 
L 281.725139 145.549077 
L 281.916832 132.252342 
L 282.110158 160.390366 
L 282.779113 114.372598 
L 283.491941 153.955132 
L 284.957763 149.693561 
L 285.16304 146.189497 
L 285.420347 166.306907 
L 287.284625 117.306849 
L 288.120975 155.356463 
L 289.053833 130.871427 
L 289.222033 166.801488 
L 289.415418 152.77315 
L 289.683085 178.678187 
L 290.289192 192.459683 
L 290.493234 158.502206 
L 290.800691 86.560575 
L 290.983975 155.866133 
L 291.784921 142.699824 
L 292.066774 147.842142 
L 292.273712 137.062557 
L 292.968887 132.769297 
L 293.435935 128.12148 
L 293.861352 147.485306 
L 294.251586 189.160734 
L 294.537541 194.069475 
L 294.745364 97.465043 
L 295.401913 144.323068 
L 296.482287 150.760452 
L 297.088265 123.582382 
L 297.518027 148.865492 
L 298.112507 191.082155 
L 299.382917 141.900867 
L 299.768828 186.011396 
L 301.116244 166.809158 
L 301.298529 132.22525 
L 301.712172 175.902543 
L 302.127278 166.536457 
L 304.103148 182.605474 
L 304.290151 210.785692 
L 304.477753 140.543993 
L 304.73172 127.900813 
L 307.351543 178.530374 
L 307.766219 163.154918 
L 308.115255 124.070275 
L 308.51329 127.209205 
L 309.267679 129.067066 
L 309.482676 125.824582 
L 309.842118 194.98269 
L 310.057734 128.408636 
L 310.246931 143.49979 
L 310.415785 207.372741 
L 310.959787 163.321602 
L 311.150705 138.606837 
L 311.59449 137.22495 
L 312.630936 157.925729 
L 313.178686 148.741941 
L 313.592911 53.568 
L 313.762384 115.662463 
L 314.196401 171.92469 
L 314.805918 181.979228 
L 315.402063 137.304855 
L 315.748873 144.9797 
L 316.307134 160.124121 
L 316.8791 100.237548 
L 317.037562 170.407851 
L 317.666638 178.327626 
L 318.073663 174.157882 
L 318.254283 162.428261 
L 319.894075 126.214651 
L 320.134753 87.656809 
L 320.524528 88.466406 
L 321.5744 182.367975 
L 322.64253 160.614522 
L 322.82719 152.749181 
L 323.442369 107.415542 
L 323.645256 123.660795 
L 324.049457 87.820491 
L 324.480468 100.426738 
L 325.381683 144.288209 
L 326.381748 171.579864 
L 327.505996 128.381738 
L 327.912364 152.383622 
L 329.320164 96.124804 
L 329.492989 103.740204 
L 329.672537 130.839532 
L 329.903745 143.513965 
L 330.065959 186.169605 
L 330.625973 128.376309 
L 331.050268 135.922657 
L 331.614718 116.321871 
L 331.781998 168.752474 
L 332.439906 166.425337 
L 333.296841 129.619854 
L 333.565365 147.020879 
L 333.761098 172.290785 
L 334.520711 185.604852 
L 335.3903 170.995563 
L 335.585909 133.169909 
L 335.768355 147.930819 
L 336.63712 119.050889 
L 336.816801 133.873996 
L 337.230554 114.880161 
L 337.375168 147.417945 
L 337.907197 138.467003 
L 338.092066 188.545508 
L 338.525882 120.994834 
L 338.704695 169.993515 
L 338.992468 115.844506 
L 339.161275 184.570371 
L 339.784595 54.06423 
L 340.399075 168.287724 
L 341.604604 172.290682 
L 341.862694 154.780266 
L 342.053173 132.461528 
L 342.849092 133.384581 
L 343.255939 108.272645 
L 343.699144 168.083257 
L 344.461548 134.775509 
L 345.923045 116.887468 
L 346.534493 144.006421 
L 346.996597 80.264266 
L 347.426435 148.016737 
L 347.607262 115.816482 
L 348.046591 101.543458 
L 348.500687 133.696389 
L 348.913787 102.045444 
L 349.157449 197.247264 
L 349.350554 163.45848 
L 350.021807 178.364126 
L 350.287978 153.190868 
L 350.968877 213.307749 
L 351.148971 191.999414 
L 351.808155 140.552392 
L 352.437808 135.719445 
L 353.192792 105.947158 
L 354.349132 180.95651 
L 354.58368 109.440716 
L 355.16994 144.566477 
L 355.340802 181.502185 
L 355.799056 209.189448 
L 356.180066 146.014462 
L 356.433608 160.709519 
L 356.862045 147.200223 
L 357.026356 166.386805 
L 357.476741 129.058566 
L 357.657233 185.950703 
L 357.833332 104.551228 
L 358.473764 182.880403 
L 359.131798 169.208887 
L 360.039039 149.486218 
L 360.233985 177.977794 
L 360.686169 116.832724 
L 361.292013 150.834487 
L 361.701224 77.524715 
L 362.170933 108.833271 
L 363.331952 115.692376 
L 364.42578 156.939026 
L 365.26843 153.44958 
L 365.781119 204.666533 
L 366.782661 176.7441 
L 367.207737 119.653913 
L 367.792876 102.362661 
L 368.944677 191.887182 
L 369.120533 158.722272 
L 369.537197 123.733509 
L 370.114463 120.747182 
L 370.716722 133.750384 
L 370.886906 155.116505 
L 371.070224 159.097289 
L 372.836233 114.054795 
L 373.464081 180.038715 
L 374.299267 112.715035 
L 374.883917 167.32634 
L 375.065374 155.33908 
L 375.790582 197.195149 
L 376.189187 80.404712 
L 376.625125 187.284799 
L 376.821588 114.516436 
L 378.490711 160.635524 
L 380.349886 166.669879 
L 380.821579 110.671992 
L 381.449226 188.106791 
L 382.417095 133.927691 
L 383.069781 157.228752 
L 383.334398 144.453393 
L 383.941487 120.987158 
L 384.126535 166.707812 
L 384.768603 118.913183 
L 385.353201 136.733095 
L 385.783052 127.896805 
L 386.874003 167.477767 
L 387.483863 155.308858 
L 387.664822 105.121975 
L 387.843657 156.220316 
L 388.271384 184.342646 
L 389.930877 127.032163 
L 390.296735 158.873503 
L 390.722507 137.512982 
L 391.181663 97.651166 
L 392.248423 136.218747 
L 393.192741 146.185942 
L 394.063072 74.942367 
L 394.887461 114.820594 
L 395.065083 167.584047 
L 395.32571 125.935634 
L 396.175997 174.216036 
L 396.468708 139.45707 
L 396.651997 186.82532 
L 396.83151 173.943767 
L 397.463227 111.562956 
L 398.544142 157.66663 
L 399.169712 131.49047 
L 399.58756 130.06538 
L 400.42034 172.001376 
L 400.67982 193.948091 
L 400.851186 193.751944 
L 401.017894 142.853014 
L 401.432807 159.999913 
L 401.845168 207.57727 
L 402.429508 96.498253 
L 403.059791 108.49866 
L 403.25297 138.065031 
L 403.658627 160.978255 
L 404.051262 126.073405 
L 405.53181 82.831415 
L 406.166584 182.74893 
L 406.334286 102.354216 
L 406.75552 129.840893 
L 407.183419 123.024308 
L 407.531916 171.724073 
L 407.791092 159.167331 
L 408.142988 97.023037 
L 408.731619 189.348038 
L 409.163455 130.521291 
L 409.748435 175.509457 
L 410.147096 132.545213 
L 410.798967 120.571134 
L 410.983362 188.049707 
L 411.174669 96.461224 
L 413.291465 112.081674 
L 413.456647 109.320884 
L 413.828166 123.878987 
L 414.0023 104.002209 
L 414.174287 118.276512 
L 414.407406 154.582764 
L 414.72 100.65588 
L 414.72 100.65588 
" style="fill:none;stroke:#000000;stroke-linecap:square;stroke-width:0.8;"/>
   </g>
   <g id="patch_3">
    <path d="M 57.6 307.584 
L 57.6 41.472 
" style="fill:none;stroke:#000000;stroke-linecap:square;stroke-linejoin:miter;stroke-width:0.8;"/>
   </g>
   <g id="patch_4">
    <path d="M 414.72 307.584 
L 414.72 41.472 
" style="fill:none;stroke:#000000;stroke-linecap:square;stroke-linejoin:miter;stroke-width:0.8;"/>
   </g>
   <g id="patch_5">
    <path d="M 57.6 307.584 
L 414.72 307.584 
" style="fill:none;stroke:#000000;stroke-linecap:square;stroke-linejoin:miter;stroke-width:0.8;"/>
   </g>
   <g id="patch_6">
    <path d="M 57.6 41.472 
L 414.72 41.472 
" style="fill:none;stroke:#000000;stroke-linecap:square;stroke-linejoin:miter;stroke-width:0.8;"/>
   </g>
  </g>
  <g id="axes_2">
   <g id="matplotlib.axis_3">
    <g id="xtick_10">
     <g id="line2d_36">
      <defs>
       <path d="M 0 0 
L 0 -3.5 
" id="m3390219752" style="stroke:#000000;stroke-width:0.8;"/>
      </defs>
      <g>
       <use style="stroke:#000000;stroke-width:0.8;" x="57.6" xlink:href="#m3390219752" y="41.472"/>
      </g>
     </g>
    </g>
    <g id="xtick_11">
     <g id="line2d_37">
      <g>
       <use style="stroke:#000000;stroke-width:0.8;" x="128.400952" xlink:href="#m3390219752" y="41.472"/>
      </g>
     </g>
     <g id="text_20">
      <!-- 50.0K -->
      <defs>
       <path d="M 9.8125 72.90625 
L 19.671875 72.90625 
L 19.671875 42.09375 
L 52.390625 72.90625 
L 65.09375 72.90625 
L 28.90625 38.921875 
L 67.671875 0 
L 54.6875 0 
L 19.671875 35.109375 
L 19.671875 0 
L 9.8125 0 
z
" id="DejaVuSans-75"/>
      </defs>
      <g transform="translate(113.989233 32.392313)scale(0.1 -0.1)">
       <use xlink:href="#DejaVuSans-53"/>
       <use x="63.623047" xlink:href="#DejaVuSans-48"/>
       <use x="127.246094" xlink:href="#DejaVuSans-46"/>
       <use x="159.033203" xlink:href="#DejaVuSans-48"/>
       <use x="222.65625" xlink:href="#DejaVuSans-75"/>
      </g>
     </g>
    </g>
    <g id="xtick_12">
     <g id="line2d_38">
      <g>
       <use style="stroke:#000000;stroke-width:0.8;" x="199.201903" xlink:href="#m3390219752" y="41.472"/>
      </g>
     </g>
     <g id="text_21">
      <!-- 100K -->
      <g transform="translate(186.379247 32.392313)scale(0.1 -0.1)">
       <use xlink:href="#DejaVuSans-49"/>
       <use x="63.623047" xlink:href="#DejaVuSans-48"/>
       <use x="127.246094" xlink:href="#DejaVuSans-48"/>
       <use x="190.869141" xlink:href="#DejaVuSans-75"/>
      </g>
     </g>
    </g>
    <g id="xtick_13">
     <g id="line2d_39">
      <g>
       <use style="stroke:#000000;stroke-width:0.8;" x="270.002855" xlink:href="#m3390219752" y="41.472"/>
      </g>
     </g>
     <g id="text_22">
      <!-- 150K -->
      <g transform="translate(257.180199 32.392313)scale(0.1 -0.1)">
       <use xlink:href="#DejaVuSans-49"/>
       <use x="63.623047" xlink:href="#DejaVuSans-53"/>
       <use x="127.246094" xlink:href="#DejaVuSans-48"/>
       <use x="190.869141" xlink:href="#DejaVuSans-75"/>
      </g>
     </g>
    </g>
    <g id="xtick_14">
     <g id="line2d_40">
      <g>
       <use style="stroke:#000000;stroke-width:0.8;" x="340.803807" xlink:href="#m3390219752" y="41.472"/>
      </g>
     </g>
     <g id="text_23">
      <!-- 200K -->
      <g transform="translate(327.98115 32.392313)scale(0.1 -0.1)">
       <use xlink:href="#DejaVuSans-50"/>
       <use x="63.623047" xlink:href="#DejaVuSans-48"/>
       <use x="127.246094" xlink:href="#DejaVuSans-48"/>
       <use x="190.869141" xlink:href="#DejaVuSans-75"/>
      </g>
     </g>
    </g>
    <g id="xtick_15">
     <g id="line2d_41">
      <g>
       <use style="stroke:#000000;stroke-width:0.8;" x="411.604758" xlink:href="#m3390219752" y="41.472"/>
      </g>
     </g>
     <g id="text_24">
      <!-- 250K -->
      <g transform="translate(398.782102 32.392313)scale(0.1 -0.1)">
       <use xlink:href="#DejaVuSans-50"/>
       <use x="63.623047" xlink:href="#DejaVuSans-53"/>
       <use x="127.246094" xlink:href="#DejaVuSans-48"/>
       <use x="190.869141" xlink:href="#DejaVuSans-75"/>
      </g>
     </g>
    </g>
    <g id="text_25">
     <!-- Episodes -->
     <defs>
      <path d="M 9.8125 72.90625 
L 55.90625 72.90625 
L 55.90625 64.59375 
L 19.671875 64.59375 
L 19.671875 43.015625 
L 54.390625 43.015625 
L 54.390625 34.71875 
L 19.671875 34.71875 
L 19.671875 8.296875 
L 56.78125 8.296875 
L 56.78125 0 
L 9.8125 0 
z
" id="DejaVuSans-69"/>
      <path d="M 18.109375 8.203125 
L 18.109375 -20.796875 
L 9.078125 -20.796875 
L 9.078125 54.6875 
L 18.109375 54.6875 
L 18.109375 46.390625 
Q 20.953125 51.265625 25.265625 53.625 
Q 29.59375 56 35.59375 56 
Q 45.5625 56 51.78125 48.09375 
Q 58.015625 40.1875 58.015625 27.296875 
Q 58.015625 14.40625 51.78125 6.484375 
Q 45.5625 -1.421875 35.59375 -1.421875 
Q 29.59375 -1.421875 25.265625 0.953125 
Q 20.953125 3.328125 18.109375 8.203125 
z
M 48.6875 27.296875 
Q 48.6875 37.203125 44.609375 42.84375 
Q 40.53125 48.484375 33.40625 48.484375 
Q 26.265625 48.484375 22.1875 42.84375 
Q 18.109375 37.203125 18.109375 27.296875 
Q 18.109375 17.390625 22.1875 11.75 
Q 26.265625 6.109375 33.40625 6.109375 
Q 40.53125 6.109375 44.609375 11.75 
Q 48.6875 17.390625 48.6875 27.296875 
z
" id="DejaVuSans-112"/>
      <path d="M 9.421875 54.6875 
L 18.40625 54.6875 
L 18.40625 0 
L 9.421875 0 
z
M 9.421875 75.984375 
L 18.40625 75.984375 
L 18.40625 64.59375 
L 9.421875 64.59375 
z
" id="DejaVuSans-105"/>
     </defs>
     <g transform="translate(213.917812 20.793875)scale(0.1 -0.1)">
      <use xlink:href="#DejaVuSans-69"/>
      <use x="63.183594" xlink:href="#DejaVuSans-112"/>
      <use x="126.660156" xlink:href="#DejaVuSans-105"/>
      <use x="154.443359" xlink:href="#DejaVuSans-115"/>
      <use x="206.542969" xlink:href="#DejaVuSans-111"/>
      <use x="267.724609" xlink:href="#DejaVuSans-100"/>
      <use x="331.201172" xlink:href="#DejaVuSans-101"/>
      <use x="392.724609" xlink:href="#DejaVuSans-115"/>
     </g>
    </g>
   </g>
   <g id="patch_7">
    <path d="M 57.6 307.584 
L 57.6 41.472 
" style="fill:none;stroke:#000000;stroke-linecap:square;stroke-linejoin:miter;stroke-width:0.8;"/>
   </g>
   <g id="patch_8">
    <path d="M 414.72 307.584 
L 414.72 41.472 
" style="fill:none;stroke:#000000;stroke-linecap:square;stroke-linejoin:miter;stroke-width:0.8;"/>
   </g>
   <g id="patch_9">
    <path d="M 57.6 307.584 
L 414.72 307.584 
" style="fill:none;stroke:#000000;stroke-linecap:square;stroke-linejoin:miter;stroke-width:0.8;"/>
   </g>
   <g id="patch_10">
    <path d="M 57.6 41.472 
L 414.72 41.472 
" style="fill:none;stroke:#000000;stroke-linecap:square;stroke-linejoin:miter;stroke-width:0.8;"/>
   </g>
  </g>
 </g>
 <defs>
  <clipPath id="pef4f14ea74">
   <rect height="266.112" width="357.12" x="57.6" y="41.472"/>
  </clipPath>
 </defs>
</svg>
