<?xml version="1.0" encoding="utf-8" standalone="no"?>
<!DOCTYPE svg PUBLIC "-//W3C//DTD SVG 1.1//EN"
  "http://www.w3.org/Graphics/SVG/1.1/DTD/svg11.dtd">
<!-- Created with matplotlib (https://matplotlib.org/) -->
<svg height="345.6pt" version="1.1" viewBox="0 0 460.8 345.6" width="460.8pt" xmlns="http://www.w3.org/2000/svg" xmlns:xlink="http://www.w3.org/1999/xlink">
 <defs>
  <style type="text/css">
*{stroke-linecap:butt;stroke-linejoin:round;}
  </style>
 </defs>
 <g id="figure_1">
  <g id="patch_1">
   <path d="M 0 345.6 
L 460.8 345.6 
L 460.8 0 
L 0 0 
z
" style="fill:#ffffff;"/>
  </g>
  <g id="axes_1">
   <g id="patch_2">
    <path d="M 57.6 307.584 
L 414.72 307.584 
L 414.72 41.472 
L 57.6 41.472 
z
" style="fill:#ffffff;"/>
   </g>
   <g id="matplotlib.axis_1">
    <g id="xtick_1">
     <g id="line2d_1">
      <path clip-path="url(#p0ec7232367)" d="M 57.6 307.584 
L 57.6 41.472 
" style="fill:none;stroke:#b0b0b0;stroke-linecap:square;stroke-width:0.8;"/>
     </g>
     <g id="line2d_2">
      <defs>
       <path d="M 0 0 
L 0 3.5 
" id="m9605b2e22c" style="stroke:#000000;stroke-width:0.8;"/>
      </defs>
      <g>
       <use style="stroke:#000000;stroke-width:0.8;" x="57.6" xlink:href="#m9605b2e22c" y="307.584"/>
      </g>
     </g>
     <g id="text_1">
      <!-- 0 -->
      <defs>
       <path d="M 31.78125 66.40625 
Q 24.171875 66.40625 20.328125 58.90625 
Q 16.5 51.421875 16.5 36.375 
Q 16.5 21.390625 20.328125 13.890625 
Q 24.171875 6.390625 31.78125 6.390625 
Q 39.453125 6.390625 43.28125 13.890625 
Q 47.125 21.390625 47.125 36.375 
Q 47.125 51.421875 43.28125 58.90625 
Q 39.453125 66.40625 31.78125 66.40625 
z
M 31.78125 74.21875 
Q 44.046875 74.21875 50.515625 64.515625 
Q 56.984375 54.828125 56.984375 36.375 
Q 56.984375 17.96875 50.515625 8.265625 
Q 44.046875 -1.421875 31.78125 -1.421875 
Q 19.53125 -1.421875 13.0625 8.265625 
Q 6.59375 17.96875 6.59375 36.375 
Q 6.59375 54.828125 13.0625 64.515625 
Q 19.53125 74.21875 31.78125 74.21875 
z
" id="DejaVuSans-48"/>
      </defs>
      <g transform="translate(54.41875 322.182437)scale(0.1 -0.1)">
       <use xlink:href="#DejaVuSans-48"/>
      </g>
     </g>
    </g>
    <g id="xtick_2">
     <g id="line2d_3">
      <path clip-path="url(#p0ec7232367)" d="M 100.587478 307.584 
L 100.587478 41.472 
" style="fill:none;stroke:#b0b0b0;stroke-linecap:square;stroke-width:0.8;"/>
     </g>
     <g id="line2d_4">
      <g>
       <use style="stroke:#000000;stroke-width:0.8;" x="100.587478" xlink:href="#m9605b2e22c" y="307.584"/>
      </g>
     </g>
     <g id="text_2">
      <!-- 1 -->
      <defs>
       <path d="M 12.40625 8.296875 
L 28.515625 8.296875 
L 28.515625 63.921875 
L 10.984375 60.40625 
L 10.984375 69.390625 
L 28.421875 72.90625 
L 38.28125 72.90625 
L 38.28125 8.296875 
L 54.390625 8.296875 
L 54.390625 0 
L 12.40625 0 
z
" id="DejaVuSans-49"/>
      </defs>
      <g transform="translate(97.406228 322.182437)scale(0.1 -0.1)">
       <use xlink:href="#DejaVuSans-49"/>
      </g>
     </g>
    </g>
    <g id="xtick_3">
     <g id="line2d_5">
      <path clip-path="url(#p0ec7232367)" d="M 143.574956 307.584 
L 143.574956 41.472 
" style="fill:none;stroke:#b0b0b0;stroke-linecap:square;stroke-width:0.8;"/>
     </g>
     <g id="line2d_6">
      <g>
       <use style="stroke:#000000;stroke-width:0.8;" x="143.574956" xlink:href="#m9605b2e22c" y="307.584"/>
      </g>
     </g>
     <g id="text_3">
      <!-- 2 -->
      <defs>
       <path d="M 19.1875 8.296875 
L 53.609375 8.296875 
L 53.609375 0 
L 7.328125 0 
L 7.328125 8.296875 
Q 12.9375 14.109375 22.625 23.890625 
Q 32.328125 33.6875 34.8125 36.53125 
Q 39.546875 41.84375 41.421875 45.53125 
Q 43.3125 49.21875 43.3125 52.78125 
Q 43.3125 58.59375 39.234375 62.25 
Q 35.15625 65.921875 28.609375 65.921875 
Q 23.96875 65.921875 18.8125 64.3125 
Q 13.671875 62.703125 7.8125 59.421875 
L 7.8125 69.390625 
Q 13.765625 71.78125 18.9375 73 
Q 24.125 74.21875 28.421875 74.21875 
Q 39.75 74.21875 46.484375 68.546875 
Q 53.21875 62.890625 53.21875 53.421875 
Q 53.21875 48.921875 51.53125 44.890625 
Q 49.859375 40.875 45.40625 35.40625 
Q 44.1875 33.984375 37.640625 27.21875 
Q 31.109375 20.453125 19.1875 8.296875 
z
" id="DejaVuSans-50"/>
      </defs>
      <g transform="translate(140.393706 322.182437)scale(0.1 -0.1)">
       <use xlink:href="#DejaVuSans-50"/>
      </g>
     </g>
    </g>
    <g id="xtick_4">
     <g id="line2d_7">
      <path clip-path="url(#p0ec7232367)" d="M 186.562435 307.584 
L 186.562435 41.472 
" style="fill:none;stroke:#b0b0b0;stroke-linecap:square;stroke-width:0.8;"/>
     </g>
     <g id="line2d_8">
      <g>
       <use style="stroke:#000000;stroke-width:0.8;" x="186.562435" xlink:href="#m9605b2e22c" y="307.584"/>
      </g>
     </g>
     <g id="text_4">
      <!-- 3 -->
      <defs>
       <path d="M 40.578125 39.3125 
Q 47.65625 37.796875 51.625 33 
Q 55.609375 28.21875 55.609375 21.1875 
Q 55.609375 10.40625 48.1875 4.484375 
Q 40.765625 -1.421875 27.09375 -1.421875 
Q 22.515625 -1.421875 17.65625 -0.515625 
Q 12.796875 0.390625 7.625 2.203125 
L 7.625 11.71875 
Q 11.71875 9.328125 16.59375 8.109375 
Q 21.484375 6.890625 26.8125 6.890625 
Q 36.078125 6.890625 40.9375 10.546875 
Q 45.796875 14.203125 45.796875 21.1875 
Q 45.796875 27.640625 41.28125 31.265625 
Q 36.765625 34.90625 28.71875 34.90625 
L 20.21875 34.90625 
L 20.21875 43.015625 
L 29.109375 43.015625 
Q 36.375 43.015625 40.234375 45.921875 
Q 44.09375 48.828125 44.09375 54.296875 
Q 44.09375 59.90625 40.109375 62.90625 
Q 36.140625 65.921875 28.71875 65.921875 
Q 24.65625 65.921875 20.015625 65.03125 
Q 15.375 64.15625 9.8125 62.3125 
L 9.8125 71.09375 
Q 15.4375 72.65625 20.34375 73.4375 
Q 25.25 74.21875 29.59375 74.21875 
Q 40.828125 74.21875 47.359375 69.109375 
Q 53.90625 64.015625 53.90625 55.328125 
Q 53.90625 49.265625 50.4375 45.09375 
Q 46.96875 40.921875 40.578125 39.3125 
z
" id="DejaVuSans-51"/>
      </defs>
      <g transform="translate(183.381185 322.182437)scale(0.1 -0.1)">
       <use xlink:href="#DejaVuSans-51"/>
      </g>
     </g>
    </g>
    <g id="xtick_5">
     <g id="line2d_9">
      <path clip-path="url(#p0ec7232367)" d="M 229.549913 307.584 
L 229.549913 41.472 
" style="fill:none;stroke:#b0b0b0;stroke-linecap:square;stroke-width:0.8;"/>
     </g>
     <g id="line2d_10">
      <g>
       <use style="stroke:#000000;stroke-width:0.8;" x="229.549913" xlink:href="#m9605b2e22c" y="307.584"/>
      </g>
     </g>
     <g id="text_5">
      <!-- 4 -->
      <defs>
       <path d="M 37.796875 64.3125 
L 12.890625 25.390625 
L 37.796875 25.390625 
z
M 35.203125 72.90625 
L 47.609375 72.90625 
L 47.609375 25.390625 
L 58.015625 25.390625 
L 58.015625 17.1875 
L 47.609375 17.1875 
L 47.609375 0 
L 37.796875 0 
L 37.796875 17.1875 
L 4.890625 17.1875 
L 4.890625 26.703125 
z
" id="DejaVuSans-52"/>
      </defs>
      <g transform="translate(226.368663 322.182437)scale(0.1 -0.1)">
       <use xlink:href="#DejaVuSans-52"/>
      </g>
     </g>
    </g>
    <g id="xtick_6">
     <g id="line2d_11">
      <path clip-path="url(#p0ec7232367)" d="M 272.537391 307.584 
L 272.537391 41.472 
" style="fill:none;stroke:#b0b0b0;stroke-linecap:square;stroke-width:0.8;"/>
     </g>
     <g id="line2d_12">
      <g>
       <use style="stroke:#000000;stroke-width:0.8;" x="272.537391" xlink:href="#m9605b2e22c" y="307.584"/>
      </g>
     </g>
     <g id="text_6">
      <!-- 5 -->
      <defs>
       <path d="M 10.796875 72.90625 
L 49.515625 72.90625 
L 49.515625 64.59375 
L 19.828125 64.59375 
L 19.828125 46.734375 
Q 21.96875 47.46875 24.109375 47.828125 
Q 26.265625 48.1875 28.421875 48.1875 
Q 40.625 48.1875 47.75 41.5 
Q 54.890625 34.8125 54.890625 23.390625 
Q 54.890625 11.625 47.5625 5.09375 
Q 40.234375 -1.421875 26.90625 -1.421875 
Q 22.3125 -1.421875 17.546875 -0.640625 
Q 12.796875 0.140625 7.71875 1.703125 
L 7.71875 11.625 
Q 12.109375 9.234375 16.796875 8.0625 
Q 21.484375 6.890625 26.703125 6.890625 
Q 35.15625 6.890625 40.078125 11.328125 
Q 45.015625 15.765625 45.015625 23.390625 
Q 45.015625 31 40.078125 35.4375 
Q 35.15625 39.890625 26.703125 39.890625 
Q 22.75 39.890625 18.8125 39.015625 
Q 14.890625 38.140625 10.796875 36.28125 
z
" id="DejaVuSans-53"/>
      </defs>
      <g transform="translate(269.356141 322.182437)scale(0.1 -0.1)">
       <use xlink:href="#DejaVuSans-53"/>
      </g>
     </g>
    </g>
    <g id="xtick_7">
     <g id="line2d_13">
      <path clip-path="url(#p0ec7232367)" d="M 315.524869 307.584 
L 315.524869 41.472 
" style="fill:none;stroke:#b0b0b0;stroke-linecap:square;stroke-width:0.8;"/>
     </g>
     <g id="line2d_14">
      <g>
       <use style="stroke:#000000;stroke-width:0.8;" x="315.524869" xlink:href="#m9605b2e22c" y="307.584"/>
      </g>
     </g>
     <g id="text_7">
      <!-- 6 -->
      <defs>
       <path d="M 33.015625 40.375 
Q 26.375 40.375 22.484375 35.828125 
Q 18.609375 31.296875 18.609375 23.390625 
Q 18.609375 15.53125 22.484375 10.953125 
Q 26.375 6.390625 33.015625 6.390625 
Q 39.65625 6.390625 43.53125 10.953125 
Q 47.40625 15.53125 47.40625 23.390625 
Q 47.40625 31.296875 43.53125 35.828125 
Q 39.65625 40.375 33.015625 40.375 
z
M 52.59375 71.296875 
L 52.59375 62.3125 
Q 48.875 64.0625 45.09375 64.984375 
Q 41.3125 65.921875 37.59375 65.921875 
Q 27.828125 65.921875 22.671875 59.328125 
Q 17.53125 52.734375 16.796875 39.40625 
Q 19.671875 43.65625 24.015625 45.921875 
Q 28.375 48.1875 33.59375 48.1875 
Q 44.578125 48.1875 50.953125 41.515625 
Q 57.328125 34.859375 57.328125 23.390625 
Q 57.328125 12.15625 50.6875 5.359375 
Q 44.046875 -1.421875 33.015625 -1.421875 
Q 20.359375 -1.421875 13.671875 8.265625 
Q 6.984375 17.96875 6.984375 36.375 
Q 6.984375 53.65625 15.1875 63.9375 
Q 23.390625 74.21875 37.203125 74.21875 
Q 40.921875 74.21875 44.703125 73.484375 
Q 48.484375 72.75 52.59375 71.296875 
z
" id="DejaVuSans-54"/>
      </defs>
      <g transform="translate(312.343619 322.182437)scale(0.1 -0.1)">
       <use xlink:href="#DejaVuSans-54"/>
      </g>
     </g>
    </g>
    <g id="xtick_8">
     <g id="line2d_15">
      <path clip-path="url(#p0ec7232367)" d="M 358.512348 307.584 
L 358.512348 41.472 
" style="fill:none;stroke:#b0b0b0;stroke-linecap:square;stroke-width:0.8;"/>
     </g>
     <g id="line2d_16">
      <g>
       <use style="stroke:#000000;stroke-width:0.8;" x="358.512348" xlink:href="#m9605b2e22c" y="307.584"/>
      </g>
     </g>
     <g id="text_8">
      <!-- 7 -->
      <defs>
       <path d="M 8.203125 72.90625 
L 55.078125 72.90625 
L 55.078125 68.703125 
L 28.609375 0 
L 18.3125 0 
L 43.21875 64.59375 
L 8.203125 64.59375 
z
" id="DejaVuSans-55"/>
      </defs>
      <g transform="translate(355.331098 322.182437)scale(0.1 -0.1)">
       <use xlink:href="#DejaVuSans-55"/>
      </g>
     </g>
    </g>
    <g id="xtick_9">
     <g id="line2d_17">
      <path clip-path="url(#p0ec7232367)" d="M 401.499826 307.584 
L 401.499826 41.472 
" style="fill:none;stroke:#b0b0b0;stroke-linecap:square;stroke-width:0.8;"/>
     </g>
     <g id="line2d_18">
      <g>
       <use style="stroke:#000000;stroke-width:0.8;" x="401.499826" xlink:href="#m9605b2e22c" y="307.584"/>
      </g>
     </g>
     <g id="text_9">
      <!-- 8 -->
      <defs>
       <path d="M 31.78125 34.625 
Q 24.75 34.625 20.71875 30.859375 
Q 16.703125 27.09375 16.703125 20.515625 
Q 16.703125 13.921875 20.71875 10.15625 
Q 24.75 6.390625 31.78125 6.390625 
Q 38.8125 6.390625 42.859375 10.171875 
Q 46.921875 13.96875 46.921875 20.515625 
Q 46.921875 27.09375 42.890625 30.859375 
Q 38.875 34.625 31.78125 34.625 
z
M 21.921875 38.8125 
Q 15.578125 40.375 12.03125 44.71875 
Q 8.5 49.078125 8.5 55.328125 
Q 8.5 64.0625 14.71875 69.140625 
Q 20.953125 74.21875 31.78125 74.21875 
Q 42.671875 74.21875 48.875 69.140625 
Q 55.078125 64.0625 55.078125 55.328125 
Q 55.078125 49.078125 51.53125 44.71875 
Q 48 40.375 41.703125 38.8125 
Q 48.828125 37.15625 52.796875 32.3125 
Q 56.78125 27.484375 56.78125 20.515625 
Q 56.78125 9.90625 50.3125 4.234375 
Q 43.84375 -1.421875 31.78125 -1.421875 
Q 19.734375 -1.421875 13.25 4.234375 
Q 6.78125 9.90625 6.78125 20.515625 
Q 6.78125 27.484375 10.78125 32.3125 
Q 14.796875 37.15625 21.921875 38.8125 
z
M 18.3125 54.390625 
Q 18.3125 48.734375 21.84375 45.5625 
Q 25.390625 42.390625 31.78125 42.390625 
Q 38.140625 42.390625 41.71875 45.5625 
Q 45.3125 48.734375 45.3125 54.390625 
Q 45.3125 60.0625 41.71875 63.234375 
Q 38.140625 66.40625 31.78125 66.40625 
Q 25.390625 66.40625 21.84375 63.234375 
Q 18.3125 60.0625 18.3125 54.390625 
z
" id="DejaVuSans-56"/>
      </defs>
      <g transform="translate(398.318576 322.182437)scale(0.1 -0.1)">
       <use xlink:href="#DejaVuSans-56"/>
      </g>
     </g>
    </g>
    <g id="text_10">
     <!-- Hours -->
     <defs>
      <path d="M 9.8125 72.90625 
L 19.671875 72.90625 
L 19.671875 43.015625 
L 55.515625 43.015625 
L 55.515625 72.90625 
L 65.375 72.90625 
L 65.375 0 
L 55.515625 0 
L 55.515625 34.71875 
L 19.671875 34.71875 
L 19.671875 0 
L 9.8125 0 
z
" id="DejaVuSans-72"/>
      <path d="M 30.609375 48.390625 
Q 23.390625 48.390625 19.1875 42.75 
Q 14.984375 37.109375 14.984375 27.296875 
Q 14.984375 17.484375 19.15625 11.84375 
Q 23.34375 6.203125 30.609375 6.203125 
Q 37.796875 6.203125 41.984375 11.859375 
Q 46.1875 17.53125 46.1875 27.296875 
Q 46.1875 37.015625 41.984375 42.703125 
Q 37.796875 48.390625 30.609375 48.390625 
z
M 30.609375 56 
Q 42.328125 56 49.015625 48.375 
Q 55.71875 40.765625 55.71875 27.296875 
Q 55.71875 13.875 49.015625 6.21875 
Q 42.328125 -1.421875 30.609375 -1.421875 
Q 18.84375 -1.421875 12.171875 6.21875 
Q 5.515625 13.875 5.515625 27.296875 
Q 5.515625 40.765625 12.171875 48.375 
Q 18.84375 56 30.609375 56 
z
" id="DejaVuSans-111"/>
      <path d="M 8.5 21.578125 
L 8.5 54.6875 
L 17.484375 54.6875 
L 17.484375 21.921875 
Q 17.484375 14.15625 20.5 10.265625 
Q 23.53125 6.390625 29.59375 6.390625 
Q 36.859375 6.390625 41.078125 11.03125 
Q 45.3125 15.671875 45.3125 23.6875 
L 45.3125 54.6875 
L 54.296875 54.6875 
L 54.296875 0 
L 45.3125 0 
L 45.3125 8.40625 
Q 42.046875 3.421875 37.71875 1 
Q 33.40625 -1.421875 27.6875 -1.421875 
Q 18.265625 -1.421875 13.375 4.4375 
Q 8.5 10.296875 8.5 21.578125 
z
M 31.109375 56 
z
" id="DejaVuSans-117"/>
      <path d="M 41.109375 46.296875 
Q 39.59375 47.171875 37.8125 47.578125 
Q 36.03125 48 33.890625 48 
Q 26.265625 48 22.1875 43.046875 
Q 18.109375 38.09375 18.109375 28.8125 
L 18.109375 0 
L 9.078125 0 
L 9.078125 54.6875 
L 18.109375 54.6875 
L 18.109375 46.1875 
Q 20.953125 51.171875 25.484375 53.578125 
Q 30.03125 56 36.53125 56 
Q 37.453125 56 38.578125 55.875 
Q 39.703125 55.765625 41.0625 55.515625 
z
" id="DejaVuSans-114"/>
      <path d="M 44.28125 53.078125 
L 44.28125 44.578125 
Q 40.484375 46.53125 36.375 47.5 
Q 32.28125 48.484375 27.875 48.484375 
Q 21.1875 48.484375 17.84375 46.4375 
Q 14.5 44.390625 14.5 40.28125 
Q 14.5 37.15625 16.890625 35.375 
Q 19.28125 33.59375 26.515625 31.984375 
L 29.59375 31.296875 
Q 39.15625 29.25 43.1875 25.515625 
Q 47.21875 21.78125 47.21875 15.09375 
Q 47.21875 7.46875 41.1875 3.015625 
Q 35.15625 -1.421875 24.609375 -1.421875 
Q 20.21875 -1.421875 15.453125 -0.5625 
Q 10.6875 0.296875 5.421875 2 
L 5.421875 11.28125 
Q 10.40625 8.6875 15.234375 7.390625 
Q 20.0625 6.109375 24.8125 6.109375 
Q 31.15625 6.109375 34.5625 8.28125 
Q 37.984375 10.453125 37.984375 14.40625 
Q 37.984375 18.0625 35.515625 20.015625 
Q 33.0625 21.96875 24.703125 23.78125 
L 21.578125 24.515625 
Q 13.234375 26.265625 9.515625 29.90625 
Q 5.8125 33.546875 5.8125 39.890625 
Q 5.8125 47.609375 11.28125 51.796875 
Q 16.75 56 26.8125 56 
Q 31.78125 56 36.171875 55.265625 
Q 40.578125 54.546875 44.28125 53.078125 
z
" id="DejaVuSans-115"/>
     </defs>
     <g transform="translate(221.511562 335.860562)scale(0.1 -0.1)">
      <use xlink:href="#DejaVuSans-72"/>
      <use x="75.195312" xlink:href="#DejaVuSans-111"/>
      <use x="136.376953" xlink:href="#DejaVuSans-117"/>
      <use x="199.755859" xlink:href="#DejaVuSans-114"/>
      <use x="240.869141" xlink:href="#DejaVuSans-115"/>
     </g>
    </g>
   </g>
   <g id="matplotlib.axis_2">
    <g id="ytick_1">
     <g id="line2d_19">
      <path clip-path="url(#p0ec7232367)" d="M 57.6 281.299116 
L 414.72 281.299116 
" style="fill:none;stroke:#b0b0b0;stroke-linecap:square;stroke-width:0.8;"/>
     </g>
     <g id="line2d_20">
      <defs>
       <path d="M 0 0 
L -3.5 0 
" id="m137d60d0f1" style="stroke:#000000;stroke-width:0.8;"/>
      </defs>
      <g>
       <use style="stroke:#000000;stroke-width:0.8;" x="57.6" xlink:href="#m137d60d0f1" y="281.299116"/>
      </g>
     </g>
     <g id="text_11">
      <!-- −0.3 -->
      <defs>
       <path d="M 10.59375 35.5 
L 73.1875 35.5 
L 73.1875 27.203125 
L 10.59375 27.203125 
z
" id="DejaVuSans-8722"/>
       <path d="M 10.6875 12.40625 
L 21 12.40625 
L 21 0 
L 10.6875 0 
z
" id="DejaVuSans-46"/>
      </defs>
      <g transform="translate(26.317187 285.098335)scale(0.1 -0.1)">
       <use xlink:href="#DejaVuSans-8722"/>
       <use x="83.789062" xlink:href="#DejaVuSans-48"/>
       <use x="147.412109" xlink:href="#DejaVuSans-46"/>
       <use x="179.199219" xlink:href="#DejaVuSans-51"/>
      </g>
     </g>
    </g>
    <g id="ytick_2">
     <g id="line2d_21">
      <path clip-path="url(#p0ec7232367)" d="M 57.6 248.159142 
L 414.72 248.159142 
" style="fill:none;stroke:#b0b0b0;stroke-linecap:square;stroke-width:0.8;"/>
     </g>
     <g id="line2d_22">
      <g>
       <use style="stroke:#000000;stroke-width:0.8;" x="57.6" xlink:href="#m137d60d0f1" y="248.159142"/>
      </g>
     </g>
     <g id="text_12">
      <!-- −0.2 -->
      <g transform="translate(26.317187 251.958361)scale(0.1 -0.1)">
       <use xlink:href="#DejaVuSans-8722"/>
       <use x="83.789062" xlink:href="#DejaVuSans-48"/>
       <use x="147.412109" xlink:href="#DejaVuSans-46"/>
       <use x="179.199219" xlink:href="#DejaVuSans-50"/>
      </g>
     </g>
    </g>
    <g id="ytick_3">
     <g id="line2d_23">
      <path clip-path="url(#p0ec7232367)" d="M 57.6 215.019168 
L 414.72 215.019168 
" style="fill:none;stroke:#b0b0b0;stroke-linecap:square;stroke-width:0.8;"/>
     </g>
     <g id="line2d_24">
      <g>
       <use style="stroke:#000000;stroke-width:0.8;" x="57.6" xlink:href="#m137d60d0f1" y="215.019168"/>
      </g>
     </g>
     <g id="text_13">
      <!-- −0.1 -->
      <g transform="translate(26.317187 218.818387)scale(0.1 -0.1)">
       <use xlink:href="#DejaVuSans-8722"/>
       <use x="83.789062" xlink:href="#DejaVuSans-48"/>
       <use x="147.412109" xlink:href="#DejaVuSans-46"/>
       <use x="179.199219" xlink:href="#DejaVuSans-49"/>
      </g>
     </g>
    </g>
    <g id="ytick_4">
     <g id="line2d_25">
      <path clip-path="url(#p0ec7232367)" d="M 57.6 181.879194 
L 414.72 181.879194 
" style="fill:none;stroke:#b0b0b0;stroke-linecap:square;stroke-width:0.8;"/>
     </g>
     <g id="line2d_26">
      <g>
       <use style="stroke:#000000;stroke-width:0.8;" x="57.6" xlink:href="#m137d60d0f1" y="181.879194"/>
      </g>
     </g>
     <g id="text_14">
      <!-- 0.0 -->
      <g transform="translate(34.696875 185.678413)scale(0.1 -0.1)">
       <use xlink:href="#DejaVuSans-48"/>
       <use x="63.623047" xlink:href="#DejaVuSans-46"/>
       <use x="95.410156" xlink:href="#DejaVuSans-48"/>
      </g>
     </g>
    </g>
    <g id="ytick_5">
     <g id="line2d_27">
      <path clip-path="url(#p0ec7232367)" d="M 57.6 148.73922 
L 414.72 148.73922 
" style="fill:none;stroke:#b0b0b0;stroke-linecap:square;stroke-width:0.8;"/>
     </g>
     <g id="line2d_28">
      <g>
       <use style="stroke:#000000;stroke-width:0.8;" x="57.6" xlink:href="#m137d60d0f1" y="148.73922"/>
      </g>
     </g>
     <g id="text_15">
      <!-- 0.1 -->
      <g transform="translate(34.696875 152.538439)scale(0.1 -0.1)">
       <use xlink:href="#DejaVuSans-48"/>
       <use x="63.623047" xlink:href="#DejaVuSans-46"/>
       <use x="95.410156" xlink:href="#DejaVuSans-49"/>
      </g>
     </g>
    </g>
    <g id="ytick_6">
     <g id="line2d_29">
      <path clip-path="url(#p0ec7232367)" d="M 57.6 115.599246 
L 414.72 115.599246 
" style="fill:none;stroke:#b0b0b0;stroke-linecap:square;stroke-width:0.8;"/>
     </g>
     <g id="line2d_30">
      <g>
       <use style="stroke:#000000;stroke-width:0.8;" x="57.6" xlink:href="#m137d60d0f1" y="115.599246"/>
      </g>
     </g>
     <g id="text_16">
      <!-- 0.2 -->
      <g transform="translate(34.696875 119.398464)scale(0.1 -0.1)">
       <use xlink:href="#DejaVuSans-48"/>
       <use x="63.623047" xlink:href="#DejaVuSans-46"/>
       <use x="95.410156" xlink:href="#DejaVuSans-50"/>
      </g>
     </g>
    </g>
    <g id="ytick_7">
     <g id="line2d_31">
      <path clip-path="url(#p0ec7232367)" d="M 57.6 82.459272 
L 414.72 82.459272 
" style="fill:none;stroke:#b0b0b0;stroke-linecap:square;stroke-width:0.8;"/>
     </g>
     <g id="line2d_32">
      <g>
       <use style="stroke:#000000;stroke-width:0.8;" x="57.6" xlink:href="#m137d60d0f1" y="82.459272"/>
      </g>
     </g>
     <g id="text_17">
      <!-- 0.3 -->
      <g transform="translate(34.696875 86.25849)scale(0.1 -0.1)">
       <use xlink:href="#DejaVuSans-48"/>
       <use x="63.623047" xlink:href="#DejaVuSans-46"/>
       <use x="95.410156" xlink:href="#DejaVuSans-51"/>
      </g>
     </g>
    </g>
    <g id="ytick_8">
     <g id="line2d_33">
      <path clip-path="url(#p0ec7232367)" d="M 57.6 49.319297 
L 414.72 49.319297 
" style="fill:none;stroke:#b0b0b0;stroke-linecap:square;stroke-width:0.8;"/>
     </g>
     <g id="line2d_34">
      <g>
       <use style="stroke:#000000;stroke-width:0.8;" x="57.6" xlink:href="#m137d60d0f1" y="49.319297"/>
      </g>
     </g>
     <g id="text_18">
      <!-- 0.4 -->
      <g transform="translate(34.696875 53.118516)scale(0.1 -0.1)">
       <use xlink:href="#DejaVuSans-48"/>
       <use x="63.623047" xlink:href="#DejaVuSans-46"/>
       <use x="95.410156" xlink:href="#DejaVuSans-52"/>
      </g>
     </g>
    </g>
    <g id="text_19">
     <!-- Reward -->
     <defs>
      <path d="M 44.390625 34.1875 
Q 47.5625 33.109375 50.5625 29.59375 
Q 53.5625 26.078125 56.59375 19.921875 
L 66.609375 0 
L 56 0 
L 46.6875 18.703125 
Q 43.0625 26.03125 39.671875 28.421875 
Q 36.28125 30.8125 30.421875 30.8125 
L 19.671875 30.8125 
L 19.671875 0 
L 9.8125 0 
L 9.8125 72.90625 
L 32.078125 72.90625 
Q 44.578125 72.90625 50.734375 67.671875 
Q 56.890625 62.453125 56.890625 51.90625 
Q 56.890625 45.015625 53.6875 40.46875 
Q 50.484375 35.9375 44.390625 34.1875 
z
M 19.671875 64.796875 
L 19.671875 38.921875 
L 32.078125 38.921875 
Q 39.203125 38.921875 42.84375 42.21875 
Q 46.484375 45.515625 46.484375 51.90625 
Q 46.484375 58.296875 42.84375 61.546875 
Q 39.203125 64.796875 32.078125 64.796875 
z
" id="DejaVuSans-82"/>
      <path d="M 56.203125 29.59375 
L 56.203125 25.203125 
L 14.890625 25.203125 
Q 15.484375 15.921875 20.484375 11.0625 
Q 25.484375 6.203125 34.421875 6.203125 
Q 39.59375 6.203125 44.453125 7.46875 
Q 49.3125 8.734375 54.109375 11.28125 
L 54.109375 2.78125 
Q 49.265625 0.734375 44.1875 -0.34375 
Q 39.109375 -1.421875 33.890625 -1.421875 
Q 20.796875 -1.421875 13.15625 6.1875 
Q 5.515625 13.8125 5.515625 26.8125 
Q 5.515625 40.234375 12.765625 48.109375 
Q 20.015625 56 32.328125 56 
Q 43.359375 56 49.78125 48.890625 
Q 56.203125 41.796875 56.203125 29.59375 
z
M 47.21875 32.234375 
Q 47.125 39.59375 43.09375 43.984375 
Q 39.0625 48.390625 32.421875 48.390625 
Q 24.90625 48.390625 20.390625 44.140625 
Q 15.875 39.890625 15.1875 32.171875 
z
" id="DejaVuSans-101"/>
      <path d="M 4.203125 54.6875 
L 13.1875 54.6875 
L 24.421875 12.015625 
L 35.59375 54.6875 
L 46.1875 54.6875 
L 57.421875 12.015625 
L 68.609375 54.6875 
L 77.59375 54.6875 
L 63.28125 0 
L 52.6875 0 
L 40.921875 44.828125 
L 29.109375 0 
L 18.5 0 
z
" id="DejaVuSans-119"/>
      <path d="M 34.28125 27.484375 
Q 23.390625 27.484375 19.1875 25 
Q 14.984375 22.515625 14.984375 16.5 
Q 14.984375 11.71875 18.140625 8.90625 
Q 21.296875 6.109375 26.703125 6.109375 
Q 34.1875 6.109375 38.703125 11.40625 
Q 43.21875 16.703125 43.21875 25.484375 
L 43.21875 27.484375 
z
M 52.203125 31.203125 
L 52.203125 0 
L 43.21875 0 
L 43.21875 8.296875 
Q 40.140625 3.328125 35.546875 0.953125 
Q 30.953125 -1.421875 24.3125 -1.421875 
Q 15.921875 -1.421875 10.953125 3.296875 
Q 6 8.015625 6 15.921875 
Q 6 25.140625 12.171875 29.828125 
Q 18.359375 34.515625 30.609375 34.515625 
L 43.21875 34.515625 
L 43.21875 35.40625 
Q 43.21875 41.609375 39.140625 45 
Q 35.0625 48.390625 27.6875 48.390625 
Q 23 48.390625 18.546875 47.265625 
Q 14.109375 46.140625 10.015625 43.890625 
L 10.015625 52.203125 
Q 14.9375 54.109375 19.578125 55.046875 
Q 24.21875 56 28.609375 56 
Q 40.484375 56 46.34375 49.84375 
Q 52.203125 43.703125 52.203125 31.203125 
z
" id="DejaVuSans-97"/>
      <path d="M 45.40625 46.390625 
L 45.40625 75.984375 
L 54.390625 75.984375 
L 54.390625 0 
L 45.40625 0 
L 45.40625 8.203125 
Q 42.578125 3.328125 38.25 0.953125 
Q 33.9375 -1.421875 27.875 -1.421875 
Q 17.96875 -1.421875 11.734375 6.484375 
Q 5.515625 14.40625 5.515625 27.296875 
Q 5.515625 40.1875 11.734375 48.09375 
Q 17.96875 56 27.875 56 
Q 33.9375 56 38.25 53.625 
Q 42.578125 51.265625 45.40625 46.390625 
z
M 14.796875 27.296875 
Q 14.796875 17.390625 18.875 11.75 
Q 22.953125 6.109375 30.078125 6.109375 
Q 37.203125 6.109375 41.296875 11.75 
Q 45.40625 17.390625 45.40625 27.296875 
Q 45.40625 37.203125 41.296875 42.84375 
Q 37.203125 48.484375 30.078125 48.484375 
Q 22.953125 48.484375 18.875 42.84375 
Q 14.796875 37.203125 14.796875 27.296875 
z
" id="DejaVuSans-100"/>
     </defs>
     <g transform="translate(20.2375 193.457687)rotate(-90)scale(0.1 -0.1)">
      <use xlink:href="#DejaVuSans-82"/>
      <use x="69.419922" xlink:href="#DejaVuSans-101"/>
      <use x="130.943359" xlink:href="#DejaVuSans-119"/>
      <use x="212.730469" xlink:href="#DejaVuSans-97"/>
      <use x="274.009766" xlink:href="#DejaVuSans-114"/>
      <use x="315.107422" xlink:href="#DejaVuSans-100"/>
     </g>
    </g>
   </g>
   <g id="line2d_35">
    <path clip-path="url(#p0ec7232367)" d="M 57.6 263.469018 
L 57.600041 242.485805 
L 57.709972 248.305147 
L 57.84678 279.97263 
L 58.450831 244.095415 
L 58.566674 247.934374 
L 58.621469 263.468688 
L 58.677121 262.329549 
L 58.757603 227.916054 
L 59.04959 236.548129 
L 59.076026 250.983619 
L 59.156999 247.58008 
L 59.373014 241.985562 
L 59.435293 243.873762 
L 59.461155 270.744272 
L 59.544776 257.865325 
L 59.630395 237.521579 
L 59.921916 236.031944 
L 60.001626 246.670056 
L 60.031321 244.476001 
L 60.198904 238.144731 
L 60.440494 244.144743 
L 60.526528 242.469381 
L 60.557406 256.834803 
L 60.8586 234.557469 
L 60.913467 259.693694 
L 61.107671 251.218062 
L 61.22404 237.334223 
L 61.252056 265.051695 
L 61.508435 270.601567 
L 61.623503 232.771303 
L 61.836185 262.029827 
L 62.055268 236.26257 
L 62.171858 249.007217 
L 62.322694 242.113689 
L 62.43401 264.944604 
L 62.602046 247.475937 
L 62.627652 230.583144 
L 62.686405 240.410697 
L 62.838547 265.03694 
L 62.865343 214.709543 
L 62.925386 228.168867 
L 62.983047 252.446766 
L 63.010642 244.112734 
L 63.222808 262.365015 
L 63.449104 250.874953 
L 63.477957 219.543726 
L 63.507662 257.081157 
L 63.624894 241.75025 
L 63.906684 262.604169 
L 63.934898 258.802465 
L 64.104951 246.176321 
L 64.225121 255.963401 
L 64.250848 249.382375 
L 64.333667 228.018113 
L 64.692314 237.615796 
L 64.864959 236.592632 
L 64.950799 233.918135 
L 65.004386 251.085174 
L 65.031936 241.756704 
L 65.098025 225.319645 
L 65.206758 248.84148 
L 65.324495 241.087103 
L 65.384349 244.98817 
L 65.526423 241.013928 
L 65.949457 256.140624 
L 66.097313 213.972592 
L 66.127516 234.867784 
L 66.23886 244.575378 
L 66.266743 235.332309 
L 66.376214 240.437285 
L 66.404633 252.08623 
L 66.466086 238.576417 
L 66.562694 259.481137 
L 66.710561 240.597432 
L 66.765244 241.641302 
L 66.902475 251.014019 
L 66.963952 233.837158 
L 67.063544 244.972471 
L 67.319 224.405044 
L 67.375717 233.891577 
L 67.558326 243.05398 
L 67.734701 233.180362 
L 67.761678 248.133351 
L 67.947231 252.837558 
L 68.033449 252.446647 
L 68.283984 209.260651 
L 68.468398 247.997905 
L 68.495686 238.346641 
L 68.526411 252.17696 
L 68.583512 263.206358 
L 68.726934 235.503987 
L 68.883644 235.767225 
L 68.912436 233.347536 
L 68.940177 219.209249 
L 69.591873 251.341025 
L 69.81775 237.648937 
L 69.875402 247.528574 
L 70.047709 219.014487 
L 70.385608 248.497679 
L 70.499835 231.710435 
L 70.68035 240.034581 
L 70.934104 231.404911 
L 70.963535 251.494782 
L 71.085695 233.830516 
L 71.214522 233.058299 
L 71.371568 235.729067 
L 71.401393 259.633571 
L 71.733497 253.109611 
L 71.826958 235.924592 
L 71.92373 258.326433 
L 71.983655 238.253718 
L 72.4055 219.685626 
L 72.627698 251.468125 
L 72.718218 239.558994 
L 72.777594 254.394388 
L 72.920943 228.406861 
L 72.94884 242.129971 
L 73.15159 256.110205 
L 73.212898 230.734851 
L 73.243535 247.602021 
L 73.438695 219.524138 
L 73.689687 256.244323 
L 73.752856 233.294653 
L 74.003455 240.773861 
L 74.070426 231.948177 
L 74.186619 244.739401 
L 74.215022 225.889183 
L 74.242747 248.363285 
L 74.361021 232.416021 
L 74.490213 235.295208 
L 74.618055 254.355618 
L 74.742952 225.284189 
L 74.802421 231.941525 
L 74.931135 242.026865 
L 75.110882 246.454828 
L 75.142837 240.128255 
L 75.277738 238.333081 
L 75.373087 239.461483 
L 75.438322 243.707507 
L 75.652591 240.938225 
L 75.718184 224.011604 
L 75.880858 250.540896 
L 76.02239 246.585039 
L 76.052001 239.688445 
L 76.127681 268.974831 
L 76.531929 233.110456 
L 76.853125 260.272327 
L 76.939913 226.500744 
L 76.972883 246.194311 
L 77.036516 234.835922 
L 77.133539 235.472688 
L 77.266831 226.374681 
L 77.304108 240.04029 
L 77.460867 247.970902 
L 77.567636 229.355615 
L 77.711121 255.894443 
L 77.814644 230.047265 
L 77.851768 255.087026 
L 77.928253 247.344378 
L 77.962958 243.98552 
L 78.09421 202.286298 
L 78.189439 204.189678 
L 78.221777 257.212287 
L 78.252849 242.513711 
L 78.442484 227.477074 
L 78.774986 219.037783 
L 78.924607 221.528256 
L 79.023581 229.057059 
L 79.162234 255.256358 
L 79.328731 240.348194 
L 79.468948 213.59834 
L 79.576165 260.023089 
L 79.609729 227.019185 
L 79.64642 229.042077 
L 79.681453 205.442771 
L 79.913622 210.585813 
L 80.104762 237.089696 
L 80.207838 205.271454 
L 80.246947 245.976959 
L 80.404158 238.030287 
L 80.518972 238.756811 
L 80.556223 237.733879 
L 80.670242 196.165148 
L 80.843021 262.016198 
L 80.911852 214.247734 
L 81.146113 248.784221 
L 81.256235 220.858606 
L 81.288693 253.067019 
L 81.380652 209.329861 
L 81.450768 219.840282 
L 81.517652 207.323011 
L 81.555965 240.859816 
L 81.766428 239.920883 
L 81.91407 236.54844 
L 81.954034 231.235702 
L 82.025511 233.70547 
L 82.098464 244.299246 
L 82.185445 232.815396 
L 82.226742 235.197782 
L 82.296478 246.986686 
L 82.327411 242.536255 
L 82.592547 218.532611 
L 82.844273 240.787451 
L 82.884172 231.904034 
L 82.921484 260.72749 
L 83.168671 229.904555 
L 83.209483 237.481703 
L 83.285013 249.067537 
L 83.542774 214.543241 
L 83.787793 231.801566 
L 83.825197 255.205203 
L 83.980883 218.346953 
L 84.056073 216.859402 
L 84.26786 239.402842 
L 84.392065 232.14701 
L 84.460918 249.941305 
L 84.604402 224.249909 
L 84.930271 244.195296 
L 85.097867 246.233387 
L 85.250357 217.261483 
L 85.357323 268.294026 
L 85.505933 214.71762 
L 85.633271 242.949062 
L 85.752057 215.824193 
L 85.824364 219.506995 
L 85.90121 207.40651 
L 86.001552 229.632883 
L 86.094754 191.304444 
L 86.133247 244.536262 
L 86.21212 210.58468 
L 86.378361 256.844062 
L 86.545271 207.169128 
L 86.820553 230.644501 
L 86.86169 244.865065 
L 86.894779 225.24813 
L 86.933602 239.82195 
L 87.021449 229.335724 
L 87.139623 249.412039 
L 87.219576 220.314029 
L 87.340143 234.283244 
L 87.376316 228.789303 
L 87.414375 214.015115 
L 87.461744 232.716676 
L 87.772744 215.592444 
L 87.812463 243.357459 
L 87.94258 222.290864 
L 88.182352 224.020483 
L 88.296424 215.508148 
L 88.632426 220.522287 
L 88.669825 246.00005 
L 88.744697 244.660172 
L 88.818932 222.743851 
L 88.948505 210.645307 
L 89.091013 226.910821 
L 89.174166 220.340992 
L 89.212986 223.621592 
L 89.392719 225.29645 
L 89.434418 239.296531 
L 89.645576 208.258951 
L 89.686055 215.727646 
L 89.725217 214.743607 
L 89.876934 228.766631 
L 89.919432 206.498251 
L 89.964831 235.896459 
L 90.11246 224.252595 
L 90.160471 226.696881 
L 90.643678 238.417376 
L 90.864955 239.569152 
L 91.048963 212.209393 
L 91.092228 250.160365 
L 91.238106 227.910627 
L 91.462022 219.98475 
L 91.503695 209.498539 
L 91.550841 223.513864 
L 91.709255 229.693855 
L 92.149756 196.881217 
L 92.268282 232.96902 
L 92.37012 221.458054 
L 92.47921 243.637383 
L 92.676219 194.325623 
L 92.840771 235.260216 
L 92.891439 211.552701 
L 93.177359 195.737808 
L 93.606096 257.45555 
L 93.667713 220.259072 
L 93.833166 189.304277 
L 94.380164 249.95811 
L 94.525387 234.933749 
L 94.679948 234.185274 
L 94.955192 230.995946 
L 95.263563 207.339384 
L 95.441118 214.927715 
L 95.835132 220.102342 
L 95.911005 232.250012 
L 95.991676 196.089404 
L 96.697394 263.832957 
L 96.781306 295.488 
L 97.360755 217.770201 
L 97.808767 205.851922 
L 97.894486 210.301951 
L 98.739108 219.343038 
L 98.929194 174.652497 
L 99.251579 224.144596 
L 99.781686 231.189535 
L 100.166921 190.547757 
L 100.515201 221.239873 
L 100.678784 255.289795 
L 101.001588 215.276792 
L 101.086321 223.372354 
L 101.527805 217.087388 
L 101.748436 216.3844 
L 103.440978 196.617372 
L 103.867709 212.360607 
L 104.354393 220.675064 
L 104.512246 220.590154 
L 104.661031 198.129407 
L 105.187614 249.214114 
L 105.559035 217.123138 
L 108.109286 216.852135 
L 108.675517 241.99727 
L 108.948542 161.324926 
L 109.165975 158.370285 
L 109.58686 186.563133 
L 109.793771 240.453586 
L 110.393663 203.686708 
L 111.058313 242.352473 
L 111.296097 231.508639 
L 111.489147 208.046898 
L 111.750438 226.53662 
L 112.083019 204.184636 
L 112.479637 210.359086 
L 112.831763 191.32339 
L 113.411737 191.839293 
L 113.846502 196.724604 
L 114.187516 175.47876 
L 114.602555 180.964311 
L 115.055263 210.592793 
L 115.209117 164.29833 
L 115.3731 168.680096 
L 117.303041 215.286863 
L 118.26928 176.935798 
L 119.08646 186.356286 
L 119.358612 227.540012 
L 119.585426 208.646499 
L 120.103771 210.207959 
L 120.793718 224.352516 
L 121.532765 194.395206 
L 121.850504 215.663624 
L 123.218474 143.644866 
L 123.624618 245.891004 
L 123.972224 216.023357 
L 124.223161 219.613962 
L 124.803675 198.635529 
L 124.982132 247.984374 
L 125.246188 195.237642 
L 125.887032 162.576391 
L 127.550864 224.843431 
L 128.553169 186.641919 
L 128.942853 140.94844 
L 130.184742 179.176716 
L 130.961828 160.457801 
L 131.247964 216.630958 
L 131.405303 147.379504 
L 131.626578 142.983072 
L 132.00335 288.392291 
L 132.93943 222.13329 
L 133.390427 167.80419 
L 133.601163 191.225482 
L 135.142016 243.654356 
L 135.612718 199.177658 
L 136.255254 190.344527 
L 136.506829 169.637961 
L 137.088936 165.634721 
L 137.247276 209.723162 
L 138.195886 163.533139 
L 138.390897 230.720575 
L 138.607227 191.142246 
L 139.221201 240.092156 
L 139.623794 202.349732 
L 139.81914 168.088551 
L 139.982555 205.636666 
L 140.1957 192.314711 
L 140.376193 232.755782 
L 140.541467 180.050115 
L 141.739178 183.761585 
L 142.987566 183.017612 
L 143.15413 214.668711 
L 144.158478 207.321453 
L 145.01176 211.40829 
L 145.400306 156.851087 
L 146.397609 205.477643 
L 147.317308 177.418205 
L 148.707126 231.362482 
L 149.014907 214.733713 
L 149.619066 200.121482 
L 149.964916 228.103623 
L 150.217484 223.424961 
L 150.856029 206.044829 
L 151.45705 166.997718 
L 151.630817 196.354703 
L 152.303989 209.023653 
L 155.544467 166.406776 
L 155.708797 222.74494 
L 155.910555 190.08871 
L 156.043419 140.864742 
L 156.741745 175.279421 
L 157.317915 184.490812 
L 158.117171 194.442241 
L 158.284891 189.734335 
L 158.502635 187.177227 
L 159.233118 197.128928 
L 159.414614 206.471829 
L 159.649978 172.030605 
L 159.954412 203.996904 
L 160.340105 159.167248 
L 160.773971 236.280358 
L 161.200999 209.162721 
L 162.895415 157.732077 
L 163.957124 180.89485 
L 164.161033 165.002584 
L 166.133076 226.132865 
L 166.328051 205.727811 
L 168.820702 252.743806 
L 169.769762 206.729343 
L 169.960437 138.148142 
L 170.66411 189.268403 
L 170.918901 159.661317 
L 171.582751 249.330242 
L 172.086391 220.463767 
L 172.264423 246.199644 
L 173.884375 176.095295 
L 174.09699 187.383278 
L 174.27429 156.429725 
L 175.01762 216.031807 
L 175.369864 189.265307 
L 175.516101 163.665282 
L 175.734275 177.615168 
L 177.121594 153.196122 
L 177.965944 210.205021 
L 178.712299 103.916265 
L 179.96663 203.533492 
L 180.374195 251.902883 
L 182.452746 188.756669 
L 183.405686 181.287667 
L 183.62298 182.951331 
L 184.01747 139.829396 
L 184.175377 204.237971 
L 185.2451 185.632884 
L 186.364941 216.302462 
L 186.533626 163.433655 
L 188.074011 197.253898 
L 188.848207 158.789246 
L 189.226711 183.453111 
L 189.911632 166.230348 
L 191.918438 186.916159 
L 192.438813 138.796943 
L 192.857589 204.429182 
L 193.039113 209.728999 
L 193.828994 162.01828 
L 193.977958 172.097728 
L 194.464033 133.149709 
L 195.374343 203.305133 
L 195.701771 123.830132 
L 196.409079 190.648168 
L 196.679608 180.432105 
L 196.871925 212.38058 
L 197.007725 182.588469 
L 197.373831 165.34249 
L 197.706302 197.074601 
L 198.615348 162.914926 
L 199.138544 200.638279 
L 199.510306 170.330078 
L 200.068885 222.618519 
L 200.65226 214.028747 
L 201.349673 170.194465 
L 201.9728 187.849147 
L 202.714411 193.974219 
L 202.890739 225.567313 
L 203.157744 198.431775 
L 204.563461 232.979983 
L 204.900181 186.102799 
L 205.127688 184.254458 
L 205.316179 197.994143 
L 206.02647 152.38754 
L 207.073245 142.393538 
L 207.302471 216.087754 
L 207.497908 165.699529 
L 208.053049 147.64011 
L 208.876331 198.351883 
L 209.509541 227.041664 
L 209.760882 164.026266 
L 209.940239 199.806297 
L 210.123563 183.24226 
L 210.504605 194.037314 
L 211.087697 193.501753 
L 211.669837 190.329807 
L 212.370171 163.637089 
L 212.507178 168.492071 
L 213.380002 144.879522 
L 213.692714 143.743798 
L 213.877198 209.846208 
L 214.016457 185.69987 
L 215.065108 162.431327 
L 215.411542 162.109542 
L 216.014251 192.008711 
L 216.153479 175.029631 
L 216.281871 207.65712 
L 216.496515 162.804607 
L 216.778722 152.46008 
L 217.599822 182.295057 
L 217.756118 166.333405 
L 218.277789 203.646219 
L 218.502943 180.464213 
L 219.074619 193.988514 
L 219.456021 217.197424 
L 219.630467 137.028865 
L 219.810073 174.935319 
L 221.483578 167.343719 
L 222.10693 201.678829 
L 223.815879 198.455031 
L 225.001116 208.398079 
L 225.219313 176.776494 
L 226.346529 196.241994 
L 226.530361 175.847146 
L 226.74418 165.699655 
L 227.067527 142.712402 
L 227.419676 128.822373 
L 228.087974 145.666061 
L 229.23587 187.779181 
L 229.433348 129.842732 
L 230.881953 225.000408 
L 231.031383 184.538777 
L 231.622014 150.197736 
L 232.231879 209.424433 
L 233.055052 198.357614 
L 233.387957 160.30092 
L 234.21128 177.666338 
L 236.11485 127.642024 
L 236.246233 136.026757 
L 236.737173 136.310617 
L 237.126904 196.300204 
L 237.644601 160.488541 
L 238.377311 188.23689 
L 238.77643 179.240934 
L 239.171977 122.174187 
L 239.366181 129.315392 
L 239.506687 156.936433 
L 240.801905 215.546592 
L 241.088378 161.492371 
L 241.304261 163.358266 
L 242.360006 174.39771 
L 242.490513 219.600594 
L 243.012212 148.8139 
L 243.383825 177.622482 
L 245.391164 216.296082 
L 246.890079 162.642677 
L 247.610844 166.754352 
L 248.519584 211.727754 
L 248.718834 147.78324 
L 249.705731 122.082543 
L 249.960735 186.265204 
L 250.124359 152.286212 
L 250.867063 144.491209 
L 251.064903 161.895048 
L 251.775484 171.027871 
L 252.171489 173.202927 
L 252.602172 177.981805 
L 252.987779 151.329732 
L 253.197574 180.604616 
L 253.374992 184.863601 
L 253.761427 125.751725 
L 253.938772 136.040515 
L 254.891946 168.175515 
L 255.406311 148.636892 
L 255.78615 148.456204 
L 256.313896 144.932687 
L 256.872224 164.107407 
L 257.37217 142.948139 
L 257.708261 180.348349 
L 258.730923 160.661303 
L 258.872985 173.322143 
L 259.24739 169.083879 
L 259.57229 191.704718 
L 261.074891 156.218649 
L 261.263192 121.841369 
L 261.426668 119.969376 
L 261.591321 151.625354 
L 264.256083 132.185907 
L 264.970981 141.36306 
L 265.619916 164.508746 
L 265.771686 196.483123 
L 266.265267 171.396812 
L 266.473892 146.183193 
L 267.378854 165.475631 
L 267.720613 126.244181 
L 268.604518 194.3501 
L 269.112325 178.46833 
L 269.488457 162.884985 
L 269.63944 141.099114 
L 270.007911 170.912953 
L 270.571941 170.083626 
L 271.152208 158.889741 
L 271.530939 160.604706 
L 272.077691 109.491707 
L 272.598518 178.578214 
L 272.778441 120.630231 
L 273.324613 176.905036 
L 273.873157 138.413745 
L 275.301262 144.396493 
L 275.438307 158.611852 
L 275.779534 177.77456 
L 276.715409 101.678467 
L 277.716684 145.583029 
L 277.872182 144.385607 
L 278.0528 175.40759 
L 278.43001 158.826238 
L 278.591087 138.209983 
L 278.96382 140.068653 
L 279.337064 156.019394 
L 279.872521 147.556237 
L 280.037366 125.177743 
L 280.826211 119.306525 
L 281.69935 215.292066 
L 282.131383 84.999864 
L 283.332586 144.193406 
L 283.590063 112.416203 
L 283.782636 164.385341 
L 284.050563 135.122738 
L 284.234358 158.844816 
L 284.851713 177.565949 
L 285.233595 142.08513 
L 285.812598 169.43863 
L 285.992415 170.789508 
L 286.507813 156.497448 
L 286.889424 157.202826 
L 287.266283 155.09975 
L 287.421661 158.873356 
L 287.651884 139.406648 
L 288.396922 134.00596 
L 289.195552 117.189971 
L 289.36916 110.239209 
L 289.550549 118.75643 
L 290.489441 192.253065 
L 290.846591 175.353981 
L 291.003882 105.732032 
L 291.363509 159.044163 
L 291.525843 149.69366 
L 291.758324 176.565211 
L 292.088322 98.700905 
L 292.485489 192.273918 
L 292.648708 124.039479 
L 293.240538 149.986947 
L 293.597614 106.195693 
L 293.821375 114.217456 
L 294.949022 123.451606 
L 295.10067 158.718375 
L 295.333273 173.221686 
L 296.109294 137.155387 
L 296.520249 170.710929 
L 296.894976 163.158655 
L 297.603124 123.611536 
L 298.799456 164.645651 
L 299.336222 197.531791 
L 300.094706 91.091609 
L 300.260304 138.789125 
L 301.067099 157.392862 
L 301.393674 98.852983 
L 301.73533 181.498291 
L 302.21263 168.180736 
L 302.367042 115.499438 
L 302.886214 173.947383 
L 303.087005 137.6525 
L 303.660197 136.550922 
L 304.19287 139.35168 
L 304.849218 146.286711 
L 305.871815 194.295082 
L 306.089108 126.169219 
L 306.59836 91.504604 
L 306.760172 213.86564 
L 307.729577 130.302793 
L 308.07606 152.287948 
L 308.287053 141.888333 
L 308.697359 157.00538 
L 308.849405 111.861367 
L 309.020193 99.154369 
L 309.226711 199.783159 
L 309.521983 190.66966 
L 309.887987 101.515574 
L 310.045445 142.960922 
L 310.764094 151.01243 
L 310.925022 72.928344 
L 311.341934 136.766299 
L 311.895732 168.199943 
L 312.268999 89.829256 
L 312.812606 150.858999 
L 314.045574 158.667634 
L 315.261291 167.996417 
L 316.087855 150.951623 
L 316.652223 144.236087 
L 317.600928 102.482373 
L 318.035937 201.710197 
L 318.587598 170.170439 
L 319.662983 115.786636 
L 319.81489 117.091369 
L 320.192991 134.313292 
L 320.731906 133.560155 
L 321.343185 189.381912 
L 321.582335 160.187632 
L 321.775279 106.619414 
L 323.39328 108.257112 
L 323.55732 145.151758 
L 323.79387 171.597129 
L 323.940196 99.797209 
L 324.279849 105.730066 
L 324.609286 148.483117 
L 325.239124 190.942673 
L 326.413177 166.430244 
L 326.547183 119.701076 
L 326.777767 130.838251 
L 326.934351 162.86706 
L 328.266871 104.898126 
L 329.677077 174.207012 
L 330.503269 161.427037 
L 331.915154 119.387503 
L 332.083735 140.118648 
L 332.605099 109.853063 
L 333.30476 153.156217 
L 333.866544 149.786223 
L 334.201188 96.812028 
L 334.602412 189.297876 
L 335.150452 165.07604 
L 335.662714 102.271308 
L 335.80794 144.084228 
L 336.014849 102.485874 
L 336.323384 184.392606 
L 337.657449 188.073076 
L 337.98866 118.914009 
L 338.319949 157.805993 
L 338.689151 112.69631 
L 339.573434 131.030942 
L 340.41754 196.127255 
L 341.216672 141.710957 
L 341.870991 127.615452 
L 342.096759 166.727858 
L 342.249204 126.205831 
L 343.007676 101.432162 
L 343.491753 202.561621 
L 344.094562 125.474941 
L 345.469575 154.445162 
L 345.81005 146.499537 
L 346.461976 94.690026 
L 346.67197 59.067956 
L 346.980714 181.244296 
L 347.345749 146.108801 
L 347.742331 122.685902 
L 348.260291 130.569823 
L 348.780958 122.109189 
L 348.922718 111.272743 
L 349.297499 178.535198 
L 349.609975 133.987876 
L 350.884215 92.060206 
L 351.917705 141.681026 
L 352.300944 149.643705 
L 352.623555 172.064635 
L 352.83635 169.491083 
L 353.192161 122.698519 
L 353.724104 141.490504 
L 354.090355 129.155551 
L 354.61087 161.522375 
L 354.959264 124.524063 
L 355.450245 126.561147 
L 355.599572 79.384541 
L 355.755363 126.691151 
L 357.46101 99.236373 
L 357.604464 131.93739 
L 357.899581 155.719487 
L 358.198507 84.746147 
L 358.377807 120.6143 
L 358.879736 141.670611 
L 359.035506 193.15163 
L 359.419666 105.335699 
L 359.898483 117.215857 
L 360.192025 139.402672 
L 360.574408 95.690524 
L 360.949443 83.07877 
L 362.546812 137.426907 
L 362.694741 162.40642 
L 363.210293 142.810715 
L 363.593695 180.963975 
L 363.905923 108.945098 
L 364.27053 156.860949 
L 364.637745 118.33384 
L 364.80881 172.451644 
L 365.298635 139.557545 
L 366.315464 150.669765 
L 366.461485 116.305309 
L 367.181677 134.268704 
L 367.685077 124.269734 
L 368.150359 162.013464 
L 368.455831 133.415455 
L 368.621739 104.532118 
L 369.218831 141.978466 
L 369.818678 154.440018 
L 370.310879 75.190463 
L 370.686455 182.632502 
L 370.865451 189.07231 
L 371.342575 116.519827 
L 372.003027 138.718346 
L 372.392489 169.030155 
L 372.990123 119.199163 
L 373.131326 126.457627 
L 373.44248 133.370028 
L 373.596916 87.677359 
L 374.457445 146.5952 
L 374.99824 171.076855 
L 375.553902 126.49216 
L 375.914456 136.092856 
L 376.264533 176.225558 
L 376.444184 76.645338 
L 377.033222 202.829634 
L 377.203125 152.934899 
L 377.561394 161.06853 
L 378.075205 152.510947 
L 378.231315 147.426469 
L 378.586614 108.548024 
L 379.566752 180.046165 
L 380.025278 116.037306 
L 380.551862 104.976417 
L 380.689172 152.052423 
L 381.39151 115.722182 
L 382.370912 155.877121 
L 383.50509 158.284975 
L 384.585721 113.109695 
L 385.326761 98.551434 
L 385.671597 78.730511 
L 386.497551 111.789935 
L 386.776939 113.569662 
L 386.968214 105.696328 
L 387.280421 87.169095 
L 388.029038 108.399176 
L 388.693502 219.633762 
L 388.851834 150.98061 
L 389.529931 111.96025 
L 390.181076 141.71226 
L 390.688403 94.196726 
L 391.761632 114.195895 
L 391.906262 154.906895 
L 392.266977 53.568 
L 393.33344 96.606528 
L 394.004729 149.155953 
L 394.753133 146.517129 
L 395.121359 145.757781 
L 395.280303 176.453966 
L 395.439476 168.988327 
L 395.947716 204.508713 
L 396.143989 139.700986 
L 397.033831 119.384643 
L 397.38828 105.950944 
L 398.069647 86.663409 
L 398.272344 159.734307 
L 398.42763 174.387176 
L 398.571358 85.205325 
L 398.784966 190.12584 
L 398.938422 177.346226 
L 399.090601 133.720352 
L 399.447093 144.163665 
L 400.389076 123.114823 
L 400.902013 104.655051 
L 401.99218 116.34166 
L 402.675557 181.625675 
L 404.314847 180.442909 
L 404.461227 177.801254 
L 404.820743 132.308608 
L 405.680001 139.092783 
L 406.019551 106.381973 
L 406.916936 139.491333 
L 407.474275 118.015783 
L 407.767173 111.266748 
L 407.96597 119.478554 
L 408.105811 68.231662 
L 408.246255 110.110518 
L 408.924814 123.267819 
L 410.217959 139.982032 
L 410.397086 114.911343 
L 411.195955 196.271186 
L 411.357654 185.195847 
L 411.708161 148.455784 
L 412.585871 185.107267 
L 413.363668 107.942477 
L 413.702258 109.901132 
L 414.046416 88.238145 
L 414.563441 180.728201 
L 414.72 162.011704 
L 414.72 162.011704 
" style="fill:none;stroke:#000000;stroke-linecap:square;stroke-width:0.8;"/>
   </g>
   <g id="patch_3">
    <path d="M 57.6 307.584 
L 57.6 41.472 
" style="fill:none;stroke:#000000;stroke-linecap:square;stroke-linejoin:miter;stroke-width:0.8;"/>
   </g>
   <g id="patch_4">
    <path d="M 414.72 307.584 
L 414.72 41.472 
" style="fill:none;stroke:#000000;stroke-linecap:square;stroke-linejoin:miter;stroke-width:0.8;"/>
   </g>
   <g id="patch_5">
    <path d="M 57.6 307.584 
L 414.72 307.584 
" style="fill:none;stroke:#000000;stroke-linecap:square;stroke-linejoin:miter;stroke-width:0.8;"/>
   </g>
   <g id="patch_6">
    <path d="M 57.6 41.472 
L 414.72 41.472 
" style="fill:none;stroke:#000000;stroke-linecap:square;stroke-linejoin:miter;stroke-width:0.8;"/>
   </g>
  </g>
  <g id="axes_2">
   <g id="matplotlib.axis_3">
    <g id="xtick_10">
     <g id="line2d_36">
      <defs>
       <path d="M 0 0 
L 0 -3.5 
" id="m07cc821d00" style="stroke:#000000;stroke-width:0.8;"/>
      </defs>
      <g>
       <use style="stroke:#000000;stroke-width:0.8;" x="57.6" xlink:href="#m07cc821d00" y="41.472"/>
      </g>
     </g>
    </g>
    <g id="xtick_11">
     <g id="line2d_37">
      <g>
       <use style="stroke:#000000;stroke-width:0.8;" x="120.230656" xlink:href="#m07cc821d00" y="41.472"/>
      </g>
     </g>
     <g id="text_20">
      <!-- 50.0K -->
      <defs>
       <path d="M 9.8125 72.90625 
L 19.671875 72.90625 
L 19.671875 42.09375 
L 52.390625 72.90625 
L 65.09375 72.90625 
L 28.90625 38.921875 
L 67.671875 0 
L 54.6875 0 
L 19.671875 35.109375 
L 19.671875 0 
L 9.8125 0 
z
" id="DejaVuSans-75"/>
      </defs>
      <g transform="translate(105.818937 32.392313)scale(0.1 -0.1)">
       <use xlink:href="#DejaVuSans-53"/>
       <use x="63.623047" xlink:href="#DejaVuSans-48"/>
       <use x="127.246094" xlink:href="#DejaVuSans-46"/>
       <use x="159.033203" xlink:href="#DejaVuSans-48"/>
       <use x="222.65625" xlink:href="#DejaVuSans-75"/>
      </g>
     </g>
    </g>
    <g id="xtick_12">
     <g id="line2d_38">
      <g>
       <use style="stroke:#000000;stroke-width:0.8;" x="182.861312" xlink:href="#m07cc821d00" y="41.472"/>
      </g>
     </g>
     <g id="text_21">
      <!-- 100K -->
      <g transform="translate(170.038656 32.392313)scale(0.1 -0.1)">
       <use xlink:href="#DejaVuSans-49"/>
       <use x="63.623047" xlink:href="#DejaVuSans-48"/>
       <use x="127.246094" xlink:href="#DejaVuSans-48"/>
       <use x="190.869141" xlink:href="#DejaVuSans-75"/>
      </g>
     </g>
    </g>
    <g id="xtick_13">
     <g id="line2d_39">
      <g>
       <use style="stroke:#000000;stroke-width:0.8;" x="245.491968" xlink:href="#m07cc821d00" y="41.472"/>
      </g>
     </g>
     <g id="text_22">
      <!-- 150K -->
      <g transform="translate(232.669311 32.392313)scale(0.1 -0.1)">
       <use xlink:href="#DejaVuSans-49"/>
       <use x="63.623047" xlink:href="#DejaVuSans-53"/>
       <use x="127.246094" xlink:href="#DejaVuSans-48"/>
       <use x="190.869141" xlink:href="#DejaVuSans-75"/>
      </g>
     </g>
    </g>
    <g id="xtick_14">
     <g id="line2d_40">
      <g>
       <use style="stroke:#000000;stroke-width:0.8;" x="308.122624" xlink:href="#m07cc821d00" y="41.472"/>
      </g>
     </g>
     <g id="text_23">
      <!-- 200K -->
      <g transform="translate(295.299967 32.392313)scale(0.1 -0.1)">
       <use xlink:href="#DejaVuSans-50"/>
       <use x="63.623047" xlink:href="#DejaVuSans-48"/>
       <use x="127.246094" xlink:href="#DejaVuSans-48"/>
       <use x="190.869141" xlink:href="#DejaVuSans-75"/>
      </g>
     </g>
    </g>
    <g id="xtick_15">
     <g id="line2d_41">
      <g>
       <use style="stroke:#000000;stroke-width:0.8;" x="370.75328" xlink:href="#m07cc821d00" y="41.472"/>
      </g>
     </g>
     <g id="text_24">
      <!-- 250K -->
      <g transform="translate(357.930623 32.392313)scale(0.1 -0.1)">
       <use xlink:href="#DejaVuSans-50"/>
       <use x="63.623047" xlink:href="#DejaVuSans-53"/>
       <use x="127.246094" xlink:href="#DejaVuSans-48"/>
       <use x="190.869141" xlink:href="#DejaVuSans-75"/>
      </g>
     </g>
    </g>
    <g id="text_25">
     <!-- Episodes -->
     <defs>
      <path d="M 9.8125 72.90625 
L 55.90625 72.90625 
L 55.90625 64.59375 
L 19.671875 64.59375 
L 19.671875 43.015625 
L 54.390625 43.015625 
L 54.390625 34.71875 
L 19.671875 34.71875 
L 19.671875 8.296875 
L 56.78125 8.296875 
L 56.78125 0 
L 9.8125 0 
z
" id="DejaVuSans-69"/>
      <path d="M 18.109375 8.203125 
L 18.109375 -20.796875 
L 9.078125 -20.796875 
L 9.078125 54.6875 
L 18.109375 54.6875 
L 18.109375 46.390625 
Q 20.953125 51.265625 25.265625 53.625 
Q 29.59375 56 35.59375 56 
Q 45.5625 56 51.78125 48.09375 
Q 58.015625 40.1875 58.015625 27.296875 
Q 58.015625 14.40625 51.78125 6.484375 
Q 45.5625 -1.421875 35.59375 -1.421875 
Q 29.59375 -1.421875 25.265625 0.953125 
Q 20.953125 3.328125 18.109375 8.203125 
z
M 48.6875 27.296875 
Q 48.6875 37.203125 44.609375 42.84375 
Q 40.53125 48.484375 33.40625 48.484375 
Q 26.265625 48.484375 22.1875 42.84375 
Q 18.109375 37.203125 18.109375 27.296875 
Q 18.109375 17.390625 22.1875 11.75 
Q 26.265625 6.109375 33.40625 6.109375 
Q 40.53125 6.109375 44.609375 11.75 
Q 48.6875 17.390625 48.6875 27.296875 
z
" id="DejaVuSans-112"/>
      <path d="M 9.421875 54.6875 
L 18.40625 54.6875 
L 18.40625 0 
L 9.421875 0 
z
M 9.421875 75.984375 
L 18.40625 75.984375 
L 18.40625 64.59375 
L 9.421875 64.59375 
z
" id="DejaVuSans-105"/>
     </defs>
     <g transform="translate(213.917812 20.793875)scale(0.1 -0.1)">
      <use xlink:href="#DejaVuSans-69"/>
      <use x="63.183594" xlink:href="#DejaVuSans-112"/>
      <use x="126.660156" xlink:href="#DejaVuSans-105"/>
      <use x="154.443359" xlink:href="#DejaVuSans-115"/>
      <use x="206.542969" xlink:href="#DejaVuSans-111"/>
      <use x="267.724609" xlink:href="#DejaVuSans-100"/>
      <use x="331.201172" xlink:href="#DejaVuSans-101"/>
      <use x="392.724609" xlink:href="#DejaVuSans-115"/>
     </g>
    </g>
   </g>
   <g id="patch_7">
    <path d="M 57.6 307.584 
L 57.6 41.472 
" style="fill:none;stroke:#000000;stroke-linecap:square;stroke-linejoin:miter;stroke-width:0.8;"/>
   </g>
   <g id="patch_8">
    <path d="M 414.72 307.584 
L 414.72 41.472 
" style="fill:none;stroke:#000000;stroke-linecap:square;stroke-linejoin:miter;stroke-width:0.8;"/>
   </g>
   <g id="patch_9">
    <path d="M 57.6 307.584 
L 414.72 307.584 
" style="fill:none;stroke:#000000;stroke-linecap:square;stroke-linejoin:miter;stroke-width:0.8;"/>
   </g>
   <g id="patch_10">
    <path d="M 57.6 41.472 
L 414.72 41.472 
" style="fill:none;stroke:#000000;stroke-linecap:square;stroke-linejoin:miter;stroke-width:0.8;"/>
   </g>
  </g>
 </g>
 <defs>
  <clipPath id="p0ec7232367">
   <rect height="266.112" width="357.12" x="57.6" y="41.472"/>
  </clipPath>
 </defs>
</svg>
