<?xml version="1.0" encoding="utf-8" standalone="no"?>
<!DOCTYPE svg PUBLIC "-//W3C//DTD SVG 1.1//EN"
  "http://www.w3.org/Graphics/SVG/1.1/DTD/svg11.dtd">
<!-- Created with matplotlib (https://matplotlib.org/) -->
<svg height="345.6pt" version="1.1" viewBox="0 0 460.8 345.6" width="460.8pt" xmlns="http://www.w3.org/2000/svg" xmlns:xlink="http://www.w3.org/1999/xlink">
 <defs>
  <style type="text/css">
*{stroke-linecap:butt;stroke-linejoin:round;}
  </style>
 </defs>
 <g id="figure_1">
  <g id="patch_1">
   <path d="M 0 345.6 
L 460.8 345.6 
L 460.8 0 
L 0 0 
z
" style="fill:#ffffff;"/>
  </g>
  <g id="axes_1">
   <g id="patch_2">
    <path d="M 57.6 307.584 
L 414.72 307.584 
L 414.72 41.472 
L 57.6 41.472 
z
" style="fill:#ffffff;"/>
   </g>
   <g id="matplotlib.axis_1">
    <g id="xtick_1">
     <g id="line2d_1">
      <path clip-path="url(#p6c7ccb072e)" d="M 57.6 307.584 
L 57.6 41.472 
" style="fill:none;stroke:#b0b0b0;stroke-linecap:square;stroke-width:0.8;"/>
     </g>
     <g id="line2d_2">
      <defs>
       <path d="M 0 0 
L 0 3.5 
" id="ma5703fb80c" style="stroke:#000000;stroke-width:0.8;"/>
      </defs>
      <g>
       <use style="stroke:#000000;stroke-width:0.8;" x="57.6" xlink:href="#ma5703fb80c" y="307.584"/>
      </g>
     </g>
     <g id="text_1">
      <!-- 0.0 -->
      <defs>
       <path d="M 31.78125 66.40625 
Q 24.171875 66.40625 20.328125 58.90625 
Q 16.5 51.421875 16.5 36.375 
Q 16.5 21.390625 20.328125 13.890625 
Q 24.171875 6.390625 31.78125 6.390625 
Q 39.453125 6.390625 43.28125 13.890625 
Q 47.125 21.390625 47.125 36.375 
Q 47.125 51.421875 43.28125 58.90625 
Q 39.453125 66.40625 31.78125 66.40625 
z
M 31.78125 74.21875 
Q 44.046875 74.21875 50.515625 64.515625 
Q 56.984375 54.828125 56.984375 36.375 
Q 56.984375 17.96875 50.515625 8.265625 
Q 44.046875 -1.421875 31.78125 -1.421875 
Q 19.53125 -1.421875 13.0625 8.265625 
Q 6.59375 17.96875 6.59375 36.375 
Q 6.59375 54.828125 13.0625 64.515625 
Q 19.53125 74.21875 31.78125 74.21875 
z
" id="DejaVuSans-48"/>
       <path d="M 10.6875 12.40625 
L 21 12.40625 
L 21 0 
L 10.6875 0 
z
" id="DejaVuSans-46"/>
      </defs>
      <g transform="translate(49.648438 322.182437)scale(0.1 -0.1)">
       <use xlink:href="#DejaVuSans-48"/>
       <use x="63.623047" xlink:href="#DejaVuSans-46"/>
       <use x="95.410156" xlink:href="#DejaVuSans-48"/>
      </g>
     </g>
    </g>
    <g id="xtick_2">
     <g id="line2d_3">
      <path clip-path="url(#p6c7ccb072e)" d="M 104.639249 307.584 
L 104.639249 41.472 
" style="fill:none;stroke:#b0b0b0;stroke-linecap:square;stroke-width:0.8;"/>
     </g>
     <g id="line2d_4">
      <g>
       <use style="stroke:#000000;stroke-width:0.8;" x="104.639249" xlink:href="#ma5703fb80c" y="307.584"/>
      </g>
     </g>
     <g id="text_2">
      <!-- 0.1 -->
      <defs>
       <path d="M 12.40625 8.296875 
L 28.515625 8.296875 
L 28.515625 63.921875 
L 10.984375 60.40625 
L 10.984375 69.390625 
L 28.421875 72.90625 
L 38.28125 72.90625 
L 38.28125 8.296875 
L 54.390625 8.296875 
L 54.390625 0 
L 12.40625 0 
z
" id="DejaVuSans-49"/>
      </defs>
      <g transform="translate(96.687686 322.182437)scale(0.1 -0.1)">
       <use xlink:href="#DejaVuSans-48"/>
       <use x="63.623047" xlink:href="#DejaVuSans-46"/>
       <use x="95.410156" xlink:href="#DejaVuSans-49"/>
      </g>
     </g>
    </g>
    <g id="xtick_3">
     <g id="line2d_5">
      <path clip-path="url(#p6c7ccb072e)" d="M 151.678497 307.584 
L 151.678497 41.472 
" style="fill:none;stroke:#b0b0b0;stroke-linecap:square;stroke-width:0.8;"/>
     </g>
     <g id="line2d_6">
      <g>
       <use style="stroke:#000000;stroke-width:0.8;" x="151.678497" xlink:href="#ma5703fb80c" y="307.584"/>
      </g>
     </g>
     <g id="text_3">
      <!-- 0.2 -->
      <defs>
       <path d="M 19.1875 8.296875 
L 53.609375 8.296875 
L 53.609375 0 
L 7.328125 0 
L 7.328125 8.296875 
Q 12.9375 14.109375 22.625 23.890625 
Q 32.328125 33.6875 34.8125 36.53125 
Q 39.546875 41.84375 41.421875 45.53125 
Q 43.3125 49.21875 43.3125 52.78125 
Q 43.3125 58.59375 39.234375 62.25 
Q 35.15625 65.921875 28.609375 65.921875 
Q 23.96875 65.921875 18.8125 64.3125 
Q 13.671875 62.703125 7.8125 59.421875 
L 7.8125 69.390625 
Q 13.765625 71.78125 18.9375 73 
Q 24.125 74.21875 28.421875 74.21875 
Q 39.75 74.21875 46.484375 68.546875 
Q 53.21875 62.890625 53.21875 53.421875 
Q 53.21875 48.921875 51.53125 44.890625 
Q 49.859375 40.875 45.40625 35.40625 
Q 44.1875 33.984375 37.640625 27.21875 
Q 31.109375 20.453125 19.1875 8.296875 
z
" id="DejaVuSans-50"/>
      </defs>
      <g transform="translate(143.726935 322.182437)scale(0.1 -0.1)">
       <use xlink:href="#DejaVuSans-48"/>
       <use x="63.623047" xlink:href="#DejaVuSans-46"/>
       <use x="95.410156" xlink:href="#DejaVuSans-50"/>
      </g>
     </g>
    </g>
    <g id="xtick_4">
     <g id="line2d_7">
      <path clip-path="url(#p6c7ccb072e)" d="M 198.717746 307.584 
L 198.717746 41.472 
" style="fill:none;stroke:#b0b0b0;stroke-linecap:square;stroke-width:0.8;"/>
     </g>
     <g id="line2d_8">
      <g>
       <use style="stroke:#000000;stroke-width:0.8;" x="198.717746" xlink:href="#ma5703fb80c" y="307.584"/>
      </g>
     </g>
     <g id="text_4">
      <!-- 0.3 -->
      <defs>
       <path d="M 40.578125 39.3125 
Q 47.65625 37.796875 51.625 33 
Q 55.609375 28.21875 55.609375 21.1875 
Q 55.609375 10.40625 48.1875 4.484375 
Q 40.765625 -1.421875 27.09375 -1.421875 
Q 22.515625 -1.421875 17.65625 -0.515625 
Q 12.796875 0.390625 7.625 2.203125 
L 7.625 11.71875 
Q 11.71875 9.328125 16.59375 8.109375 
Q 21.484375 6.890625 26.8125 6.890625 
Q 36.078125 6.890625 40.9375 10.546875 
Q 45.796875 14.203125 45.796875 21.1875 
Q 45.796875 27.640625 41.28125 31.265625 
Q 36.765625 34.90625 28.71875 34.90625 
L 20.21875 34.90625 
L 20.21875 43.015625 
L 29.109375 43.015625 
Q 36.375 43.015625 40.234375 45.921875 
Q 44.09375 48.828125 44.09375 54.296875 
Q 44.09375 59.90625 40.109375 62.90625 
Q 36.140625 65.921875 28.71875 65.921875 
Q 24.65625 65.921875 20.015625 65.03125 
Q 15.375 64.15625 9.8125 62.3125 
L 9.8125 71.09375 
Q 15.4375 72.65625 20.34375 73.4375 
Q 25.25 74.21875 29.59375 74.21875 
Q 40.828125 74.21875 47.359375 69.109375 
Q 53.90625 64.015625 53.90625 55.328125 
Q 53.90625 49.265625 50.4375 45.09375 
Q 46.96875 40.921875 40.578125 39.3125 
z
" id="DejaVuSans-51"/>
      </defs>
      <g transform="translate(190.766184 322.182437)scale(0.1 -0.1)">
       <use xlink:href="#DejaVuSans-48"/>
       <use x="63.623047" xlink:href="#DejaVuSans-46"/>
       <use x="95.410156" xlink:href="#DejaVuSans-51"/>
      </g>
     </g>
    </g>
    <g id="xtick_5">
     <g id="line2d_9">
      <path clip-path="url(#p6c7ccb072e)" d="M 245.756995 307.584 
L 245.756995 41.472 
" style="fill:none;stroke:#b0b0b0;stroke-linecap:square;stroke-width:0.8;"/>
     </g>
     <g id="line2d_10">
      <g>
       <use style="stroke:#000000;stroke-width:0.8;" x="245.756995" xlink:href="#ma5703fb80c" y="307.584"/>
      </g>
     </g>
     <g id="text_5">
      <!-- 0.4 -->
      <defs>
       <path d="M 37.796875 64.3125 
L 12.890625 25.390625 
L 37.796875 25.390625 
z
M 35.203125 72.90625 
L 47.609375 72.90625 
L 47.609375 25.390625 
L 58.015625 25.390625 
L 58.015625 17.1875 
L 47.609375 17.1875 
L 47.609375 0 
L 37.796875 0 
L 37.796875 17.1875 
L 4.890625 17.1875 
L 4.890625 26.703125 
z
" id="DejaVuSans-52"/>
      </defs>
      <g transform="translate(237.805432 322.182437)scale(0.1 -0.1)">
       <use xlink:href="#DejaVuSans-48"/>
       <use x="63.623047" xlink:href="#DejaVuSans-46"/>
       <use x="95.410156" xlink:href="#DejaVuSans-52"/>
      </g>
     </g>
    </g>
    <g id="xtick_6">
     <g id="line2d_11">
      <path clip-path="url(#p6c7ccb072e)" d="M 292.796243 307.584 
L 292.796243 41.472 
" style="fill:none;stroke:#b0b0b0;stroke-linecap:square;stroke-width:0.8;"/>
     </g>
     <g id="line2d_12">
      <g>
       <use style="stroke:#000000;stroke-width:0.8;" x="292.796243" xlink:href="#ma5703fb80c" y="307.584"/>
      </g>
     </g>
     <g id="text_6">
      <!-- 0.5 -->
      <defs>
       <path d="M 10.796875 72.90625 
L 49.515625 72.90625 
L 49.515625 64.59375 
L 19.828125 64.59375 
L 19.828125 46.734375 
Q 21.96875 47.46875 24.109375 47.828125 
Q 26.265625 48.1875 28.421875 48.1875 
Q 40.625 48.1875 47.75 41.5 
Q 54.890625 34.8125 54.890625 23.390625 
Q 54.890625 11.625 47.5625 5.09375 
Q 40.234375 -1.421875 26.90625 -1.421875 
Q 22.3125 -1.421875 17.546875 -0.640625 
Q 12.796875 0.140625 7.71875 1.703125 
L 7.71875 11.625 
Q 12.109375 9.234375 16.796875 8.0625 
Q 21.484375 6.890625 26.703125 6.890625 
Q 35.15625 6.890625 40.078125 11.328125 
Q 45.015625 15.765625 45.015625 23.390625 
Q 45.015625 31 40.078125 35.4375 
Q 35.15625 39.890625 26.703125 39.890625 
Q 22.75 39.890625 18.8125 39.015625 
Q 14.890625 38.140625 10.796875 36.28125 
z
" id="DejaVuSans-53"/>
      </defs>
      <g transform="translate(284.844681 322.182437)scale(0.1 -0.1)">
       <use xlink:href="#DejaVuSans-48"/>
       <use x="63.623047" xlink:href="#DejaVuSans-46"/>
       <use x="95.410156" xlink:href="#DejaVuSans-53"/>
      </g>
     </g>
    </g>
    <g id="xtick_7">
     <g id="line2d_13">
      <path clip-path="url(#p6c7ccb072e)" d="M 339.835492 307.584 
L 339.835492 41.472 
" style="fill:none;stroke:#b0b0b0;stroke-linecap:square;stroke-width:0.8;"/>
     </g>
     <g id="line2d_14">
      <g>
       <use style="stroke:#000000;stroke-width:0.8;" x="339.835492" xlink:href="#ma5703fb80c" y="307.584"/>
      </g>
     </g>
     <g id="text_7">
      <!-- 0.6 -->
      <defs>
       <path d="M 33.015625 40.375 
Q 26.375 40.375 22.484375 35.828125 
Q 18.609375 31.296875 18.609375 23.390625 
Q 18.609375 15.53125 22.484375 10.953125 
Q 26.375 6.390625 33.015625 6.390625 
Q 39.65625 6.390625 43.53125 10.953125 
Q 47.40625 15.53125 47.40625 23.390625 
Q 47.40625 31.296875 43.53125 35.828125 
Q 39.65625 40.375 33.015625 40.375 
z
M 52.59375 71.296875 
L 52.59375 62.3125 
Q 48.875 64.0625 45.09375 64.984375 
Q 41.3125 65.921875 37.59375 65.921875 
Q 27.828125 65.921875 22.671875 59.328125 
Q 17.53125 52.734375 16.796875 39.40625 
Q 19.671875 43.65625 24.015625 45.921875 
Q 28.375 48.1875 33.59375 48.1875 
Q 44.578125 48.1875 50.953125 41.515625 
Q 57.328125 34.859375 57.328125 23.390625 
Q 57.328125 12.15625 50.6875 5.359375 
Q 44.046875 -1.421875 33.015625 -1.421875 
Q 20.359375 -1.421875 13.671875 8.265625 
Q 6.984375 17.96875 6.984375 36.375 
Q 6.984375 53.65625 15.1875 63.9375 
Q 23.390625 74.21875 37.203125 74.21875 
Q 40.921875 74.21875 44.703125 73.484375 
Q 48.484375 72.75 52.59375 71.296875 
z
" id="DejaVuSans-54"/>
      </defs>
      <g transform="translate(331.88393 322.182437)scale(0.1 -0.1)">
       <use xlink:href="#DejaVuSans-48"/>
       <use x="63.623047" xlink:href="#DejaVuSans-46"/>
       <use x="95.410156" xlink:href="#DejaVuSans-54"/>
      </g>
     </g>
    </g>
    <g id="xtick_8">
     <g id="line2d_15">
      <path clip-path="url(#p6c7ccb072e)" d="M 386.874741 307.584 
L 386.874741 41.472 
" style="fill:none;stroke:#b0b0b0;stroke-linecap:square;stroke-width:0.8;"/>
     </g>
     <g id="line2d_16">
      <g>
       <use style="stroke:#000000;stroke-width:0.8;" x="386.874741" xlink:href="#ma5703fb80c" y="307.584"/>
      </g>
     </g>
     <g id="text_8">
      <!-- 0.7 -->
      <defs>
       <path d="M 8.203125 72.90625 
L 55.078125 72.90625 
L 55.078125 68.703125 
L 28.609375 0 
L 18.3125 0 
L 43.21875 64.59375 
L 8.203125 64.59375 
z
" id="DejaVuSans-55"/>
      </defs>
      <g transform="translate(378.923178 322.182437)scale(0.1 -0.1)">
       <use xlink:href="#DejaVuSans-48"/>
       <use x="63.623047" xlink:href="#DejaVuSans-46"/>
       <use x="95.410156" xlink:href="#DejaVuSans-55"/>
      </g>
     </g>
    </g>
    <g id="text_9">
     <!-- Hours -->
     <defs>
      <path d="M 9.8125 72.90625 
L 19.671875 72.90625 
L 19.671875 43.015625 
L 55.515625 43.015625 
L 55.515625 72.90625 
L 65.375 72.90625 
L 65.375 0 
L 55.515625 0 
L 55.515625 34.71875 
L 19.671875 34.71875 
L 19.671875 0 
L 9.8125 0 
z
" id="DejaVuSans-72"/>
      <path d="M 30.609375 48.390625 
Q 23.390625 48.390625 19.1875 42.75 
Q 14.984375 37.109375 14.984375 27.296875 
Q 14.984375 17.484375 19.15625 11.84375 
Q 23.34375 6.203125 30.609375 6.203125 
Q 37.796875 6.203125 41.984375 11.859375 
Q 46.1875 17.53125 46.1875 27.296875 
Q 46.1875 37.015625 41.984375 42.703125 
Q 37.796875 48.390625 30.609375 48.390625 
z
M 30.609375 56 
Q 42.328125 56 49.015625 48.375 
Q 55.71875 40.765625 55.71875 27.296875 
Q 55.71875 13.875 49.015625 6.21875 
Q 42.328125 -1.421875 30.609375 -1.421875 
Q 18.84375 -1.421875 12.171875 6.21875 
Q 5.515625 13.875 5.515625 27.296875 
Q 5.515625 40.765625 12.171875 48.375 
Q 18.84375 56 30.609375 56 
z
" id="DejaVuSans-111"/>
      <path d="M 8.5 21.578125 
L 8.5 54.6875 
L 17.484375 54.6875 
L 17.484375 21.921875 
Q 17.484375 14.15625 20.5 10.265625 
Q 23.53125 6.390625 29.59375 6.390625 
Q 36.859375 6.390625 41.078125 11.03125 
Q 45.3125 15.671875 45.3125 23.6875 
L 45.3125 54.6875 
L 54.296875 54.6875 
L 54.296875 0 
L 45.3125 0 
L 45.3125 8.40625 
Q 42.046875 3.421875 37.71875 1 
Q 33.40625 -1.421875 27.6875 -1.421875 
Q 18.265625 -1.421875 13.375 4.4375 
Q 8.5 10.296875 8.5 21.578125 
z
M 31.109375 56 
z
" id="DejaVuSans-117"/>
      <path d="M 41.109375 46.296875 
Q 39.59375 47.171875 37.8125 47.578125 
Q 36.03125 48 33.890625 48 
Q 26.265625 48 22.1875 43.046875 
Q 18.109375 38.09375 18.109375 28.8125 
L 18.109375 0 
L 9.078125 0 
L 9.078125 54.6875 
L 18.109375 54.6875 
L 18.109375 46.1875 
Q 20.953125 51.171875 25.484375 53.578125 
Q 30.03125 56 36.53125 56 
Q 37.453125 56 38.578125 55.875 
Q 39.703125 55.765625 41.0625 55.515625 
z
" id="DejaVuSans-114"/>
      <path d="M 44.28125 53.078125 
L 44.28125 44.578125 
Q 40.484375 46.53125 36.375 47.5 
Q 32.28125 48.484375 27.875 48.484375 
Q 21.1875 48.484375 17.84375 46.4375 
Q 14.5 44.390625 14.5 40.28125 
Q 14.5 37.15625 16.890625 35.375 
Q 19.28125 33.59375 26.515625 31.984375 
L 29.59375 31.296875 
Q 39.15625 29.25 43.1875 25.515625 
Q 47.21875 21.78125 47.21875 15.09375 
Q 47.21875 7.46875 41.1875 3.015625 
Q 35.15625 -1.421875 24.609375 -1.421875 
Q 20.21875 -1.421875 15.453125 -0.5625 
Q 10.6875 0.296875 5.421875 2 
L 5.421875 11.28125 
Q 10.40625 8.6875 15.234375 7.390625 
Q 20.0625 6.109375 24.8125 6.109375 
Q 31.15625 6.109375 34.5625 8.28125 
Q 37.984375 10.453125 37.984375 14.40625 
Q 37.984375 18.0625 35.515625 20.015625 
Q 33.0625 21.96875 24.703125 23.78125 
L 21.578125 24.515625 
Q 13.234375 26.265625 9.515625 29.90625 
Q 5.8125 33.546875 5.8125 39.890625 
Q 5.8125 47.609375 11.28125 51.796875 
Q 16.75 56 26.8125 56 
Q 31.78125 56 36.171875 55.265625 
Q 40.578125 54.546875 44.28125 53.078125 
z
" id="DejaVuSans-115"/>
     </defs>
     <g transform="translate(221.511562 335.860562)scale(0.1 -0.1)">
      <use xlink:href="#DejaVuSans-72"/>
      <use x="75.195312" xlink:href="#DejaVuSans-111"/>
      <use x="136.376953" xlink:href="#DejaVuSans-117"/>
      <use x="199.755859" xlink:href="#DejaVuSans-114"/>
      <use x="240.869141" xlink:href="#DejaVuSans-115"/>
     </g>
    </g>
   </g>
   <g id="matplotlib.axis_2">
    <g id="ytick_1">
     <g id="line2d_17">
      <path clip-path="url(#p6c7ccb072e)" d="M 57.6 285.653856 
L 414.72 285.653856 
" style="fill:none;stroke:#b0b0b0;stroke-linecap:square;stroke-width:0.8;"/>
     </g>
     <g id="line2d_18">
      <defs>
       <path d="M 0 0 
L -3.5 0 
" id="m080a812a3e" style="stroke:#000000;stroke-width:0.8;"/>
      </defs>
      <g>
       <use style="stroke:#000000;stroke-width:0.8;" x="57.6" xlink:href="#m080a812a3e" y="285.653856"/>
      </g>
     </g>
     <g id="text_10">
      <!-- −0.04 -->
      <defs>
       <path d="M 10.59375 35.5 
L 73.1875 35.5 
L 73.1875 27.203125 
L 10.59375 27.203125 
z
" id="DejaVuSans-8722"/>
      </defs>
      <g transform="translate(19.954687 289.453075)scale(0.1 -0.1)">
       <use xlink:href="#DejaVuSans-8722"/>
       <use x="83.789062" xlink:href="#DejaVuSans-48"/>
       <use x="147.412109" xlink:href="#DejaVuSans-46"/>
       <use x="179.199219" xlink:href="#DejaVuSans-48"/>
       <use x="242.822266" xlink:href="#DejaVuSans-52"/>
      </g>
     </g>
    </g>
    <g id="ytick_2">
     <g id="line2d_19">
      <path clip-path="url(#p6c7ccb072e)" d="M 57.6 249.509357 
L 414.72 249.509357 
" style="fill:none;stroke:#b0b0b0;stroke-linecap:square;stroke-width:0.8;"/>
     </g>
     <g id="line2d_20">
      <g>
       <use style="stroke:#000000;stroke-width:0.8;" x="57.6" xlink:href="#m080a812a3e" y="249.509357"/>
      </g>
     </g>
     <g id="text_11">
      <!-- −0.02 -->
      <g transform="translate(19.954687 253.308575)scale(0.1 -0.1)">
       <use xlink:href="#DejaVuSans-8722"/>
       <use x="83.789062" xlink:href="#DejaVuSans-48"/>
       <use x="147.412109" xlink:href="#DejaVuSans-46"/>
       <use x="179.199219" xlink:href="#DejaVuSans-48"/>
       <use x="242.822266" xlink:href="#DejaVuSans-50"/>
      </g>
     </g>
    </g>
    <g id="ytick_3">
     <g id="line2d_21">
      <path clip-path="url(#p6c7ccb072e)" d="M 57.6 213.364857 
L 414.72 213.364857 
" style="fill:none;stroke:#b0b0b0;stroke-linecap:square;stroke-width:0.8;"/>
     </g>
     <g id="line2d_22">
      <g>
       <use style="stroke:#000000;stroke-width:0.8;" x="57.6" xlink:href="#m080a812a3e" y="213.364857"/>
      </g>
     </g>
     <g id="text_12">
      <!-- 0.00 -->
      <g transform="translate(28.334375 217.164076)scale(0.1 -0.1)">
       <use xlink:href="#DejaVuSans-48"/>
       <use x="63.623047" xlink:href="#DejaVuSans-46"/>
       <use x="95.410156" xlink:href="#DejaVuSans-48"/>
       <use x="159.033203" xlink:href="#DejaVuSans-48"/>
      </g>
     </g>
    </g>
    <g id="ytick_4">
     <g id="line2d_23">
      <path clip-path="url(#p6c7ccb072e)" d="M 57.6 177.220358 
L 414.72 177.220358 
" style="fill:none;stroke:#b0b0b0;stroke-linecap:square;stroke-width:0.8;"/>
     </g>
     <g id="line2d_24">
      <g>
       <use style="stroke:#000000;stroke-width:0.8;" x="57.6" xlink:href="#m080a812a3e" y="177.220358"/>
      </g>
     </g>
     <g id="text_13">
      <!-- 0.02 -->
      <g transform="translate(28.334375 181.019577)scale(0.1 -0.1)">
       <use xlink:href="#DejaVuSans-48"/>
       <use x="63.623047" xlink:href="#DejaVuSans-46"/>
       <use x="95.410156" xlink:href="#DejaVuSans-48"/>
       <use x="159.033203" xlink:href="#DejaVuSans-50"/>
      </g>
     </g>
    </g>
    <g id="ytick_5">
     <g id="line2d_25">
      <path clip-path="url(#p6c7ccb072e)" d="M 57.6 141.075859 
L 414.72 141.075859 
" style="fill:none;stroke:#b0b0b0;stroke-linecap:square;stroke-width:0.8;"/>
     </g>
     <g id="line2d_26">
      <g>
       <use style="stroke:#000000;stroke-width:0.8;" x="57.6" xlink:href="#m080a812a3e" y="141.075859"/>
      </g>
     </g>
     <g id="text_14">
      <!-- 0.04 -->
      <g transform="translate(28.334375 144.875078)scale(0.1 -0.1)">
       <use xlink:href="#DejaVuSans-48"/>
       <use x="63.623047" xlink:href="#DejaVuSans-46"/>
       <use x="95.410156" xlink:href="#DejaVuSans-48"/>
       <use x="159.033203" xlink:href="#DejaVuSans-52"/>
      </g>
     </g>
    </g>
    <g id="ytick_6">
     <g id="line2d_27">
      <path clip-path="url(#p6c7ccb072e)" d="M 57.6 104.93136 
L 414.72 104.93136 
" style="fill:none;stroke:#b0b0b0;stroke-linecap:square;stroke-width:0.8;"/>
     </g>
     <g id="line2d_28">
      <g>
       <use style="stroke:#000000;stroke-width:0.8;" x="57.6" xlink:href="#m080a812a3e" y="104.93136"/>
      </g>
     </g>
     <g id="text_15">
      <!-- 0.06 -->
      <g transform="translate(28.334375 108.730578)scale(0.1 -0.1)">
       <use xlink:href="#DejaVuSans-48"/>
       <use x="63.623047" xlink:href="#DejaVuSans-46"/>
       <use x="95.410156" xlink:href="#DejaVuSans-48"/>
       <use x="159.033203" xlink:href="#DejaVuSans-54"/>
      </g>
     </g>
    </g>
    <g id="ytick_7">
     <g id="line2d_29">
      <path clip-path="url(#p6c7ccb072e)" d="M 57.6 68.786861 
L 414.72 68.786861 
" style="fill:none;stroke:#b0b0b0;stroke-linecap:square;stroke-width:0.8;"/>
     </g>
     <g id="line2d_30">
      <g>
       <use style="stroke:#000000;stroke-width:0.8;" x="57.6" xlink:href="#m080a812a3e" y="68.786861"/>
      </g>
     </g>
     <g id="text_16">
      <!-- 0.08 -->
      <defs>
       <path d="M 31.78125 34.625 
Q 24.75 34.625 20.71875 30.859375 
Q 16.703125 27.09375 16.703125 20.515625 
Q 16.703125 13.921875 20.71875 10.15625 
Q 24.75 6.390625 31.78125 6.390625 
Q 38.8125 6.390625 42.859375 10.171875 
Q 46.921875 13.96875 46.921875 20.515625 
Q 46.921875 27.09375 42.890625 30.859375 
Q 38.875 34.625 31.78125 34.625 
z
M 21.921875 38.8125 
Q 15.578125 40.375 12.03125 44.71875 
Q 8.5 49.078125 8.5 55.328125 
Q 8.5 64.0625 14.71875 69.140625 
Q 20.953125 74.21875 31.78125 74.21875 
Q 42.671875 74.21875 48.875 69.140625 
Q 55.078125 64.0625 55.078125 55.328125 
Q 55.078125 49.078125 51.53125 44.71875 
Q 48 40.375 41.703125 38.8125 
Q 48.828125 37.15625 52.796875 32.3125 
Q 56.78125 27.484375 56.78125 20.515625 
Q 56.78125 9.90625 50.3125 4.234375 
Q 43.84375 -1.421875 31.78125 -1.421875 
Q 19.734375 -1.421875 13.25 4.234375 
Q 6.78125 9.90625 6.78125 20.515625 
Q 6.78125 27.484375 10.78125 32.3125 
Q 14.796875 37.15625 21.921875 38.8125 
z
M 18.3125 54.390625 
Q 18.3125 48.734375 21.84375 45.5625 
Q 25.390625 42.390625 31.78125 42.390625 
Q 38.140625 42.390625 41.71875 45.5625 
Q 45.3125 48.734375 45.3125 54.390625 
Q 45.3125 60.0625 41.71875 63.234375 
Q 38.140625 66.40625 31.78125 66.40625 
Q 25.390625 66.40625 21.84375 63.234375 
Q 18.3125 60.0625 18.3125 54.390625 
z
" id="DejaVuSans-56"/>
      </defs>
      <g transform="translate(28.334375 72.586079)scale(0.1 -0.1)">
       <use xlink:href="#DejaVuSans-48"/>
       <use x="63.623047" xlink:href="#DejaVuSans-46"/>
       <use x="95.410156" xlink:href="#DejaVuSans-48"/>
       <use x="159.033203" xlink:href="#DejaVuSans-56"/>
      </g>
     </g>
    </g>
    <g id="text_17">
     <!-- Total loss -->
     <defs>
      <path d="M -0.296875 72.90625 
L 61.375 72.90625 
L 61.375 64.59375 
L 35.5 64.59375 
L 35.5 0 
L 25.59375 0 
L 25.59375 64.59375 
L -0.296875 64.59375 
z
" id="DejaVuSans-84"/>
      <path d="M 18.3125 70.21875 
L 18.3125 54.6875 
L 36.8125 54.6875 
L 36.8125 47.703125 
L 18.3125 47.703125 
L 18.3125 18.015625 
Q 18.3125 11.328125 20.140625 9.421875 
Q 21.96875 7.515625 27.59375 7.515625 
L 36.8125 7.515625 
L 36.8125 0 
L 27.59375 0 
Q 17.1875 0 13.234375 3.875 
Q 9.28125 7.765625 9.28125 18.015625 
L 9.28125 47.703125 
L 2.6875 47.703125 
L 2.6875 54.6875 
L 9.28125 54.6875 
L 9.28125 70.21875 
z
" id="DejaVuSans-116"/>
      <path d="M 34.28125 27.484375 
Q 23.390625 27.484375 19.1875 25 
Q 14.984375 22.515625 14.984375 16.5 
Q 14.984375 11.71875 18.140625 8.90625 
Q 21.296875 6.109375 26.703125 6.109375 
Q 34.1875 6.109375 38.703125 11.40625 
Q 43.21875 16.703125 43.21875 25.484375 
L 43.21875 27.484375 
z
M 52.203125 31.203125 
L 52.203125 0 
L 43.21875 0 
L 43.21875 8.296875 
Q 40.140625 3.328125 35.546875 0.953125 
Q 30.953125 -1.421875 24.3125 -1.421875 
Q 15.921875 -1.421875 10.953125 3.296875 
Q 6 8.015625 6 15.921875 
Q 6 25.140625 12.171875 29.828125 
Q 18.359375 34.515625 30.609375 34.515625 
L 43.21875 34.515625 
L 43.21875 35.40625 
Q 43.21875 41.609375 39.140625 45 
Q 35.0625 48.390625 27.6875 48.390625 
Q 23 48.390625 18.546875 47.265625 
Q 14.109375 46.140625 10.015625 43.890625 
L 10.015625 52.203125 
Q 14.9375 54.109375 19.578125 55.046875 
Q 24.21875 56 28.609375 56 
Q 40.484375 56 46.34375 49.84375 
Q 52.203125 43.703125 52.203125 31.203125 
z
" id="DejaVuSans-97"/>
      <path d="M 9.421875 75.984375 
L 18.40625 75.984375 
L 18.40625 0 
L 9.421875 0 
z
" id="DejaVuSans-108"/>
      <path id="DejaVuSans-32"/>
     </defs>
     <g transform="translate(13.875 198.288156)rotate(-90)scale(0.1 -0.1)">
      <use xlink:href="#DejaVuSans-84"/>
      <use x="60.818359" xlink:href="#DejaVuSans-111"/>
      <use x="122" xlink:href="#DejaVuSans-116"/>
      <use x="161.208984" xlink:href="#DejaVuSans-97"/>
      <use x="222.488281" xlink:href="#DejaVuSans-108"/>
      <use x="250.271484" xlink:href="#DejaVuSans-32"/>
      <use x="282.058594" xlink:href="#DejaVuSans-108"/>
      <use x="309.841797" xlink:href="#DejaVuSans-111"/>
      <use x="371.023438" xlink:href="#DejaVuSans-115"/>
      <use x="423.123047" xlink:href="#DejaVuSans-115"/>
     </g>
    </g>
   </g>
   <g id="line2d_31">
    <path clip-path="url(#p6c7ccb072e)" d="M 57.6 172.397971 
L 58.254812 92.061089 
L 58.896631 104.491525 
L 59.532134 102.260005 
L 60.171947 73.424907 
L 60.808094 98.721018 
L 61.444133 79.947495 
L 62.079622 118.285711 
L 62.714139 109.631412 
L 63.353296 111.418948 
L 63.987372 96.901187 
L 64.623453 102.475376 
L 65.261622 83.715869 
L 65.898518 87.349473 
L 66.534766 121.88463 
L 67.173985 113.341941 
L 67.810049 70.753476 
L 68.446035 55.760566 
L 69.083772 53.568 
L 69.720748 92.151223 
L 70.358543 91.272936 
L 70.99514 91.184768 
L 71.631239 123.054781 
L 72.270422 111.430521 
L 72.908063 122.506007 
L 73.544981 162.794139 
L 74.182322 134.602413 
L 74.817339 159.306686 
L 75.455966 146.444892 
L 76.092054 136.826487 
L 76.727657 153.930326 
L 77.366643 159.61084 
L 78.002414 154.881121 
L 78.638465 159.936485 
L 79.275136 152.223498 
L 79.913194 148.814831 
L 80.54946 164.380065 
L 81.189085 147.686165 
L 81.826704 160.268876 
L 82.461496 149.443015 
L 83.099949 166.70859 
L 83.734452 168.584116 
L 84.373594 155.965178 
L 85.007025 185.432852 
L 85.644233 147.667738 
L 86.282352 186.489668 
L 86.918968 143.859979 
L 87.556092 149.408504 
L 88.193387 175.433829 
L 88.82901 146.254216 
L 89.468042 163.123473 
L 90.107702 161.10599 
L 90.745872 156.244325 
L 91.381992 172.484395 
L 92.019357 169.08307 
L 92.655032 163.556379 
L 93.295729 168.852804 
L 93.936713 157.682764 
L 94.573787 157.74752 
L 95.206277 161.122528 
L 95.847021 154.529742 
L 96.484154 167.538121 
L 97.120203 158.824313 
L 97.760884 154.978324 
L 98.398639 168.310654 
L 99.036281 172.255132 
L 99.671763 173.976448 
L 100.309453 157.54411 
L 100.947649 155.786459 
L 101.58584 157.996516 
L 102.22087 153.583201 
L 102.858375 146.358044 
L 103.49341 178.941722 
L 104.132721 159.430525 
L 104.767766 171.207868 
L 105.404366 154.534077 
L 106.041431 131.275559 
L 106.675435 171.796936 
L 107.313502 162.015819 
L 107.948638 162.081662 
L 108.589169 145.952374 
L 109.227575 170.646103 
L 109.865773 148.163131 
L 110.509165 184.71093 
L 111.150377 140.92018 
L 111.786045 171.878557 
L 112.420058 185.576051 
L 113.058185 161.616434 
L 113.695813 154.892008 
L 114.335495 141.722882 
L 114.970564 157.209262 
L 115.609986 153.903665 
L 116.244291 172.414651 
L 116.879564 159.01337 
L 117.518876 154.950149 
L 118.155639 162.81478 
L 118.793287 160.780689 
L 119.432205 159.705027 
L 120.067501 163.727625 
L 120.70825 152.594179 
L 121.343654 157.751186 
L 121.981061 138.510795 
L 122.61864 172.089148 
L 123.257851 172.366275 
L 123.897021 156.212838 
L 124.531529 160.68255 
L 125.170862 173.470411 
L 125.804687 155.257054 
L 126.439012 161.405883 
L 127.0779 147.922804 
L 127.712975 178.264897 
L 128.350632 166.345456 
L 128.988302 157.673151 
L 129.625402 161.094589 
L 130.263571 176.14771 
L 130.900145 147.870257 
L 131.537276 171.080834 
L 132.17003 173.622107 
L 132.812033 134.710637 
L 133.446022 177.461838 
L 134.084569 150.139297 
L 134.721831 179.665365 
L 135.356474 153.131085 
L 135.996326 140.722004 
L 136.634284 183.021923 
L 137.27088 149.307828 
L 137.90638 154.306218 
L 138.543115 160.507857 
L 139.181998 173.92104 
L 139.816968 183.104196 
L 140.455737 167.561738 
L 141.093078 161.769186 
L 141.731177 169.826571 
L 142.367793 147.998907 
L 143.006493 180.559083 
L 143.643598 139.743195 
L 144.279159 166.674699 
L 144.918718 159.124967 
L 145.555476 180.4469 
L 146.192489 163.606576 
L 146.829327 174.787727 
L 147.465648 164.89507 
L 148.106683 148.983156 
L 148.738761 177.733027 
L 149.379231 154.08699 
L 150.014995 179.918043 
L 150.653688 159.000265 
L 151.293233 175.94575 
L 151.92615 179.220351 
L 152.566018 155.192968 
L 153.200937 168.604825 
L 153.835971 164.356606 
L 154.472567 161.996507 
L 155.112288 156.882722 
L 155.747237 160.775263 
L 156.386339 175.481108 
L 157.030869 160.396661 
L 157.666482 172.7827 
L 158.302104 173.640426 
L 158.939194 164.139357 
L 159.577129 161.744831 
L 160.215527 175.811724 
L 160.853141 158.853586 
L 161.491338 181.139065 
L 162.129044 168.431983 
L 162.764549 173.287808 
L 163.399309 168.184398 
L 164.035234 172.798316 
L 164.670654 172.067267 
L 165.309634 157.027143 
L 165.950122 173.199778 
L 166.586204 163.384449 
L 167.219836 168.088979 
L 167.85522 177.764926 
L 168.491005 158.76252 
L 169.130392 160.250408 
L 169.767075 162.157466 
L 170.403031 170.513367 
L 171.039982 165.169286 
L 171.676897 172.333047 
L 172.314054 175.036353 
L 172.951968 170.93881 
L 173.59349 177.193917 
L 174.229602 174.393819 
L 174.865663 183.697957 
L 175.503101 160.525738 
L 176.139529 168.238102 
L 176.779117 163.50094 
L 177.417106 168.871456 
L 178.054957 167.670568 
L 178.690893 170.412266 
L 179.327045 170.138579 
L 179.962089 177.747283 
L 180.597131 179.484252 
L 181.23949 160.733589 
L 181.875452 185.359183 
L 182.511054 173.581672 
L 183.148219 170.782381 
L 183.783262 188.411911 
L 184.417737 172.424167 
L 185.053812 183.955543 
L 185.692552 189.952368 
L 186.32756 171.057156 
L 186.962286 188.859402 
L 187.598925 188.85352 
L 188.23733 169.387407 
L 188.877562 198.699865 
L 189.516197 176.757921 
L 190.153449 185.864482 
L 190.789997 196.802509 
L 191.425536 182.054189 
L 192.059469 189.954043 
L 192.697306 183.898284 
L 193.334993 203.111414 
L 193.970883 192.991466 
L 194.603478 187.050135 
L 195.240937 202.004101 
L 195.878486 200.491009 
L 196.513139 203.198229 
L 197.153876 196.42609 
L 197.791953 200.072194 
L 198.426052 184.726532 
L 199.063113 200.246648 
L 199.69626 198.37236 
L 200.333198 201.270441 
L 200.972927 201.492429 
L 201.608476 206.17986 
L 202.246474 200.23781 
L 202.882215 201.760488 
L 203.518847 201.136443 
L 204.154374 204.025565 
L 204.791963 204.214697 
L 205.430181 199.997402 
L 206.065221 194.882648 
L 206.702721 193.735604 
L 207.338446 199.358666 
L 207.973615 198.695618 
L 208.610684 209.083053 
L 209.249532 207.046186 
L 209.886375 201.550932 
L 210.52191 204.061702 
L 211.158492 201.878244 
L 211.792495 211.011033 
L 212.430123 204.83376 
L 213.067787 201.631346 
L 213.702289 213.586384 
L 214.335743 213.024886 
L 214.975174 220.318215 
L 215.608948 215.885953 
L 216.246603 208.532744 
L 216.878997 213.617206 
L 217.521344 211.235563 
L 218.158466 214.784494 
L 218.793688 228.496183 
L 219.430109 193.212033 
L 220.068267 222.30757 
L 220.703883 219.074549 
L 221.342172 213.136157 
L 222.613602 205.017778 
L 223.249163 221.171454 
L 224.518406 212.83266 
L 225.158566 209.579056 
L 225.790588 207.514432 
L 226.43019 208.219643 
L 227.067179 208.005881 
L 227.701172 208.709477 
L 228.339378 207.618345 
L 228.971792 210.384927 
L 229.61044 211.296192 
L 230.247539 214.834003 
L 230.883087 202.513183 
L 231.52027 217.557833 
L 232.154795 206.134136 
L 232.785855 205.302888 
L 233.427413 204.035407 
L 234.064581 201.392709 
L 234.702175 211.958988 
L 235.337211 208.608188 
L 235.97224 192.356256 
L 236.609436 216.8587 
L 237.248085 192.060838 
L 237.884685 204.429416 
L 238.52019 196.222572 
L 239.155895 207.482632 
L 239.795206 206.620958 
L 240.428946 200.847023 
L 241.06664 219.506374 
L 241.700606 216.08422 
L 242.336592 202.875157 
L 242.972637 210.290262 
L 243.6089 195.976292 
L 244.242044 205.117289 
L 244.880974 217.674525 
L 245.518397 193.571639 
L 246.15574 215.933501 
L 246.791325 202.116548 
L 248.064982 208.137495 
L 248.699986 207.898331 
L 249.339275 213.859483 
L 249.974736 201.209734 
L 250.610323 198.453218 
L 251.245351 198.089286 
L 251.881232 192.0858 
L 252.516481 199.546411 
L 253.155668 196.141691 
L 253.790701 196.952745 
L 254.42827 200.163303 
L 255.063511 194.95794 
L 255.698048 210.157451 
L 256.334482 209.037287 
L 256.972194 218.703866 
L 257.608404 208.824441 
L 258.244274 204.675748 
L 258.878794 199.20713 
L 259.517496 206.209603 
L 260.153719 191.560593 
L 260.787419 183.950124 
L 261.424122 192.923494 
L 262.059803 193.148002 
L 262.694688 197.995271 
L 263.328708 212.279917 
L 263.96535 205.996146 
L 264.598749 197.081887 
L 265.239535 195.542141 
L 265.874352 202.969858 
L 266.509925 199.384793 
L 267.150917 189.74461 
L 267.785759 210.404372 
L 268.42309 200.199678 
L 269.060164 206.014572 
L 269.696271 213.788913 
L 270.333374 215.735932 
L 270.96893 203.896504 
L 271.602427 206.913545 
L 272.238449 220.429576 
L 272.872426 219.817551 
L 273.509635 238.264118 
L 274.143569 207.002062 
L 274.780148 210.359799 
L 275.415494 221.177614 
L 276.05076 199.931105 
L 276.687074 228.562765 
L 277.323284 215.877067 
L 277.960505 212.736364 
L 278.596045 204.302074 
L 279.232672 202.87514 
L 279.866959 199.710163 
L 280.503251 200.741683 
L 281.138796 187.890823 
L 281.778013 214.891508 
L 282.410451 205.36571 
L 283.047037 216.115972 
L 283.68153 208.180226 
L 284.319999 206.271129 
L 284.954192 212.671897 
L 285.592865 197.787932 
L 286.227903 205.32133 
L 286.860886 204.810392 
L 287.496415 200.448155 
L 288.130916 203.465168 
L 289.405152 193.339707 
L 290.041245 176.863173 
L 291.312423 196.208075 
L 291.947375 200.359086 
L 292.580598 190.501084 
L 293.21485 211.143963 
L 293.854558 214.309693 
L 294.491684 231.024014 
L 295.125667 200.473477 
L 295.764352 214.02296 
L 296.399373 193.914985 
L 297.032351 212.563317 
L 297.668815 198.150602 
L 298.95364 225.523532 
L 299.589046 217.332636 
L 300.22523 228.598186 
L 300.857669 211.303626 
L 301.49514 208.935501 
L 302.131792 225.979603 
L 302.766177 210.733358 
L 303.404566 205.446987 
L 304.038485 222.06595 
L 304.672135 212.675491 
L 305.308553 212.297491 
L 305.947301 197.676386 
L 307.223406 215.959819 
L 307.856071 196.674279 
L 308.492291 208.517034 
L 309.128196 196.726394 
L 309.763002 181.364615 
L 310.403553 180.137534 
L 311.043211 182.295446 
L 311.678508 210.641135 
L 312.316904 192.946162 
L 312.952489 190.809922 
L 313.587037 203.560854 
L 314.227503 201.252219 
L 314.860652 213.53274 
L 315.497895 232.934448 
L 316.133913 219.981647 
L 316.769158 203.426552 
L 317.404895 205.290068 
L 318.042678 196.029154 
L 318.67936 196.557218 
L 319.316918 192.701478 
L 319.951349 208.845752 
L 320.585734 191.53148 
L 321.22152 197.236339 
L 321.855449 198.90936 
L 322.494418 208.071897 
L 323.128972 207.041879 
L 323.765728 211.48947 
L 324.398237 216.862919 
L 325.033224 213.899487 
L 325.669936 223.332296 
L 326.30389 220.004192 
L 326.940607 249.973773 
L 327.574609 245.653672 
L 328.210305 230.781079 
L 328.846529 257.301893 
L 329.483004 254.989186 
L 330.117136 248.231573 
L 330.756089 249.234989 
L 331.38938 265.787606 
L 332.026895 242.362062 
L 332.662984 246.23655 
L 333.298019 244.129559 
L 333.932515 258.278618 
L 334.565634 253.05181 
L 335.204624 246.779012 
L 335.840218 249.109631 
L 336.478061 263.056724 
L 337.112089 260.683149 
L 337.74893 269.853705 
L 338.38416 258.405703 
L 339.022691 259.074046 
L 339.658253 271.16577 
L 340.291219 271.117666 
L 340.925242 295.488 
L 341.561415 246.301905 
L 342.197436 234.399275 
L 342.833909 241.610274 
L 343.470608 232.368565 
L 344.106555 246.58527 
L 344.742699 246.989058 
L 345.383466 243.618661 
L 346.017909 241.314168 
L 346.652972 244.785834 
L 347.288001 245.677693 
L 347.923061 230.154465 
L 348.557567 225.380646 
L 349.194771 246.03765 
L 349.830739 245.824726 
L 351.100843 266.962958 
L 351.737873 263.278154 
L 352.373439 268.510624 
L 353.005026 279.943697 
L 353.642479 245.914382 
L 354.913078 268.436291 
L 355.552316 270.595802 
L 356.185726 270.04354 
L 356.820179 253.802897 
L 357.455457 255.944371 
L 358.090868 239.650428 
L 358.724857 252.64991 
L 359.360344 241.402856 
L 359.997384 254.962368 
L 360.632039 250.604639 
L 361.269123 259.909959 
L 361.90467 266.336885 
L 362.538665 245.541597 
L 363.176534 245.149911 
L 363.812452 235.208102 
L 364.445809 240.096314 
L 365.082995 235.854681 
L 365.720626 255.045561 
L 366.353544 267.26515 
L 366.989056 231.52962 
L 367.627791 247.001964 
L 368.259219 258.961826 
L 368.893937 236.561635 
L 369.531817 246.812806 
L 370.1647 240.043084 
L 370.800896 262.144223 
L 371.435349 256.790225 
L 372.072408 232.160366 
L 372.707489 245.692249 
L 373.343336 263.63575 
L 373.978279 271.973211 
L 374.613644 234.84836 
L 375.249782 244.768656 
L 375.888359 260.258548 
L 376.525894 248.479064 
L 377.163111 260.618827 
L 377.79937 247.048956 
L 378.433743 266.252999 
L 379.068365 264.238438 
L 379.704881 252.819483 
L 380.34094 253.078803 
L 380.978558 257.593889 
L 382.250676 281.833876 
L 382.884132 287.106142 
L 383.519203 261.453969 
L 384.157919 266.40525 
L 384.795534 276.187374 
L 385.429519 264.840419 
L 386.065667 267.78892 
L 386.707863 276.008917 
L 387.342968 265.275368 
L 387.983747 262.326369 
L 388.618548 269.450351 
L 389.261666 268.230104 
L 389.899359 272.646852 
L 390.533924 254.234739 
L 391.805805 281.116959 
L 392.4436 266.781956 
L 393.079094 276.012781 
L 393.712097 257.335518 
L 394.347482 251.901896 
L 394.982161 259.485044 
L 395.61717 254.562878 
L 396.257432 268.40847 
L 396.893516 264.969655 
L 397.534199 252.6803 
L 398.169212 265.675379 
L 398.803828 268.169418 
L 399.443025 261.670771 
L 400.085372 279.993571 
L 400.718327 262.037803 
L 401.351789 262.761914 
L 401.985766 244.936997 
L 402.619645 267.877489 
L 403.255841 264.625954 
L 403.893126 259.135715 
L 404.531341 258.14605 
L 405.168688 260.836837 
L 405.804306 272.749259 
L 406.438255 257.41489 
L 407.077748 262.114465 
L 407.717361 274.651186 
L 408.351246 267.573933 
L 408.98782 264.28337 
L 409.626405 270.373961 
L 410.265194 264.404524 
L 410.901793 271.061646 
L 411.539505 275.269729 
L 412.179537 282.305355 
L 412.814709 292.996089 
L 414.085208 258.227358 
L 414.72 259.974664 
L 414.72 259.974664 
" style="fill:none;stroke:#000000;stroke-linecap:square;stroke-width:0.8;"/>
   </g>
   <g id="patch_3">
    <path d="M 57.6 307.584 
L 57.6 41.472 
" style="fill:none;stroke:#000000;stroke-linecap:square;stroke-linejoin:miter;stroke-width:0.8;"/>
   </g>
   <g id="patch_4">
    <path d="M 414.72 307.584 
L 414.72 41.472 
" style="fill:none;stroke:#000000;stroke-linecap:square;stroke-linejoin:miter;stroke-width:0.8;"/>
   </g>
   <g id="patch_5">
    <path d="M 57.6 307.584 
L 414.72 307.584 
" style="fill:none;stroke:#000000;stroke-linecap:square;stroke-linejoin:miter;stroke-width:0.8;"/>
   </g>
   <g id="patch_6">
    <path d="M 57.6 41.472 
L 414.72 41.472 
" style="fill:none;stroke:#000000;stroke-linecap:square;stroke-linejoin:miter;stroke-width:0.8;"/>
   </g>
  </g>
  <g id="axes_2">
   <g id="matplotlib.axis_3">
    <g id="xtick_9">
     <g id="line2d_32">
      <defs>
       <path d="M 0 0 
L 0 -3.5 
" id="me1142d4225" style="stroke:#000000;stroke-width:0.8;"/>
      </defs>
      <g>
       <use style="stroke:#000000;stroke-width:0.8;" x="57.6" xlink:href="#me1142d4225" y="41.472"/>
      </g>
     </g>
    </g>
    <g id="xtick_10">
     <g id="line2d_33">
      <g>
       <use style="stroke:#000000;stroke-width:0.8;" x="107.244128" xlink:href="#me1142d4225" y="41.472"/>
      </g>
     </g>
     <g id="text_18">
      <!-- 1,000K -->
      <defs>
       <path d="M 11.71875 12.40625 
L 22.015625 12.40625 
L 22.015625 4 
L 14.015625 -11.625 
L 7.71875 -11.625 
L 11.71875 4 
z
" id="DejaVuSans-44"/>
       <path d="M 9.8125 72.90625 
L 19.671875 72.90625 
L 19.671875 42.09375 
L 52.390625 72.90625 
L 65.09375 72.90625 
L 28.90625 38.921875 
L 67.671875 0 
L 54.6875 0 
L 19.671875 35.109375 
L 19.671875 0 
L 9.8125 0 
z
" id="DejaVuSans-75"/>
      </defs>
      <g transform="translate(89.651159 32.392313)scale(0.1 -0.1)">
       <use xlink:href="#DejaVuSans-49"/>
       <use x="63.623047" xlink:href="#DejaVuSans-44"/>
       <use x="95.410156" xlink:href="#DejaVuSans-48"/>
       <use x="159.033203" xlink:href="#DejaVuSans-48"/>
       <use x="222.65625" xlink:href="#DejaVuSans-48"/>
       <use x="286.279297" xlink:href="#DejaVuSans-75"/>
      </g>
     </g>
    </g>
    <g id="xtick_11">
     <g id="line2d_34">
      <g>
       <use style="stroke:#000000;stroke-width:0.8;" x="156.888256" xlink:href="#me1142d4225" y="41.472"/>
      </g>
     </g>
     <g id="text_19">
      <!-- 2.00M -->
      <defs>
       <path d="M 9.8125 72.90625 
L 24.515625 72.90625 
L 43.109375 23.296875 
L 61.8125 72.90625 
L 76.515625 72.90625 
L 76.515625 0 
L 66.890625 0 
L 66.890625 64.015625 
L 48.09375 14.015625 
L 38.1875 14.015625 
L 19.390625 64.015625 
L 19.390625 0 
L 9.8125 0 
z
" id="DejaVuSans-77"/>
      </defs>
      <g transform="translate(141.441381 32.392313)scale(0.1 -0.1)">
       <use xlink:href="#DejaVuSans-50"/>
       <use x="63.623047" xlink:href="#DejaVuSans-46"/>
       <use x="95.410156" xlink:href="#DejaVuSans-48"/>
       <use x="159.033203" xlink:href="#DejaVuSans-48"/>
       <use x="222.65625" xlink:href="#DejaVuSans-77"/>
      </g>
     </g>
    </g>
    <g id="xtick_12">
     <g id="line2d_35">
      <g>
       <use style="stroke:#000000;stroke-width:0.8;" x="206.532384" xlink:href="#me1142d4225" y="41.472"/>
      </g>
     </g>
     <g id="text_20">
      <!-- 3.00M -->
      <g transform="translate(191.085509 32.392313)scale(0.1 -0.1)">
       <use xlink:href="#DejaVuSans-51"/>
       <use x="63.623047" xlink:href="#DejaVuSans-46"/>
       <use x="95.410156" xlink:href="#DejaVuSans-48"/>
       <use x="159.033203" xlink:href="#DejaVuSans-48"/>
       <use x="222.65625" xlink:href="#DejaVuSans-77"/>
      </g>
     </g>
    </g>
    <g id="xtick_13">
     <g id="line2d_36">
      <g>
       <use style="stroke:#000000;stroke-width:0.8;" x="256.176512" xlink:href="#me1142d4225" y="41.472"/>
      </g>
     </g>
     <g id="text_21">
      <!-- 4.00M -->
      <g transform="translate(240.729637 32.392313)scale(0.1 -0.1)">
       <use xlink:href="#DejaVuSans-52"/>
       <use x="63.623047" xlink:href="#DejaVuSans-46"/>
       <use x="95.410156" xlink:href="#DejaVuSans-48"/>
       <use x="159.033203" xlink:href="#DejaVuSans-48"/>
       <use x="222.65625" xlink:href="#DejaVuSans-77"/>
      </g>
     </g>
    </g>
    <g id="xtick_14">
     <g id="line2d_37">
      <g>
       <use style="stroke:#000000;stroke-width:0.8;" x="305.820641" xlink:href="#me1142d4225" y="41.472"/>
      </g>
     </g>
     <g id="text_22">
      <!-- 5.00M -->
      <g transform="translate(290.373766 32.392313)scale(0.1 -0.1)">
       <use xlink:href="#DejaVuSans-53"/>
       <use x="63.623047" xlink:href="#DejaVuSans-46"/>
       <use x="95.410156" xlink:href="#DejaVuSans-48"/>
       <use x="159.033203" xlink:href="#DejaVuSans-48"/>
       <use x="222.65625" xlink:href="#DejaVuSans-77"/>
      </g>
     </g>
    </g>
    <g id="xtick_15">
     <g id="line2d_38">
      <g>
       <use style="stroke:#000000;stroke-width:0.8;" x="355.464769" xlink:href="#me1142d4225" y="41.472"/>
      </g>
     </g>
     <g id="text_23">
      <!-- 6.00M -->
      <g transform="translate(340.017894 32.392313)scale(0.1 -0.1)">
       <use xlink:href="#DejaVuSans-54"/>
       <use x="63.623047" xlink:href="#DejaVuSans-46"/>
       <use x="95.410156" xlink:href="#DejaVuSans-48"/>
       <use x="159.033203" xlink:href="#DejaVuSans-48"/>
       <use x="222.65625" xlink:href="#DejaVuSans-77"/>
      </g>
     </g>
    </g>
    <g id="xtick_16">
     <g id="line2d_39">
      <g>
       <use style="stroke:#000000;stroke-width:0.8;" x="405.108897" xlink:href="#me1142d4225" y="41.472"/>
      </g>
     </g>
     <g id="text_24">
      <!-- 7.00M -->
      <g transform="translate(389.662022 32.392313)scale(0.1 -0.1)">
       <use xlink:href="#DejaVuSans-55"/>
       <use x="63.623047" xlink:href="#DejaVuSans-46"/>
       <use x="95.410156" xlink:href="#DejaVuSans-48"/>
       <use x="159.033203" xlink:href="#DejaVuSans-48"/>
       <use x="222.65625" xlink:href="#DejaVuSans-77"/>
      </g>
     </g>
    </g>
    <g id="text_25">
     <!-- Steps -->
     <defs>
      <path d="M 53.515625 70.515625 
L 53.515625 60.890625 
Q 47.90625 63.578125 42.921875 64.890625 
Q 37.9375 66.21875 33.296875 66.21875 
Q 25.25 66.21875 20.875 63.09375 
Q 16.5 59.96875 16.5 54.203125 
Q 16.5 49.359375 19.40625 46.890625 
Q 22.3125 44.4375 30.421875 42.921875 
L 36.375 41.703125 
Q 47.40625 39.59375 52.65625 34.296875 
Q 57.90625 29 57.90625 20.125 
Q 57.90625 9.515625 50.796875 4.046875 
Q 43.703125 -1.421875 29.984375 -1.421875 
Q 24.8125 -1.421875 18.96875 -0.25 
Q 13.140625 0.921875 6.890625 3.21875 
L 6.890625 13.375 
Q 12.890625 10.015625 18.65625 8.296875 
Q 24.421875 6.59375 29.984375 6.59375 
Q 38.421875 6.59375 43.015625 9.90625 
Q 47.609375 13.234375 47.609375 19.390625 
Q 47.609375 24.75 44.3125 27.78125 
Q 41.015625 30.8125 33.5 32.328125 
L 27.484375 33.5 
Q 16.453125 35.6875 11.515625 40.375 
Q 6.59375 45.0625 6.59375 53.421875 
Q 6.59375 63.09375 13.40625 68.65625 
Q 20.21875 74.21875 32.171875 74.21875 
Q 37.3125 74.21875 42.625 73.28125 
Q 47.953125 72.359375 53.515625 70.515625 
z
" id="DejaVuSans-83"/>
      <path d="M 56.203125 29.59375 
L 56.203125 25.203125 
L 14.890625 25.203125 
Q 15.484375 15.921875 20.484375 11.0625 
Q 25.484375 6.203125 34.421875 6.203125 
Q 39.59375 6.203125 44.453125 7.46875 
Q 49.3125 8.734375 54.109375 11.28125 
L 54.109375 2.78125 
Q 49.265625 0.734375 44.1875 -0.34375 
Q 39.109375 -1.421875 33.890625 -1.421875 
Q 20.796875 -1.421875 13.15625 6.1875 
Q 5.515625 13.8125 5.515625 26.8125 
Q 5.515625 40.234375 12.765625 48.109375 
Q 20.015625 56 32.328125 56 
Q 43.359375 56 49.78125 48.890625 
Q 56.203125 41.796875 56.203125 29.59375 
z
M 47.21875 32.234375 
Q 47.125 39.59375 43.09375 43.984375 
Q 39.0625 48.390625 32.421875 48.390625 
Q 24.90625 48.390625 20.390625 44.140625 
Q 15.875 39.890625 15.1875 32.171875 
z
" id="DejaVuSans-101"/>
      <path d="M 18.109375 8.203125 
L 18.109375 -20.796875 
L 9.078125 -20.796875 
L 9.078125 54.6875 
L 18.109375 54.6875 
L 18.109375 46.390625 
Q 20.953125 51.265625 25.265625 53.625 
Q 29.59375 56 35.59375 56 
Q 45.5625 56 51.78125 48.09375 
Q 58.015625 40.1875 58.015625 27.296875 
Q 58.015625 14.40625 51.78125 6.484375 
Q 45.5625 -1.421875 35.59375 -1.421875 
Q 29.59375 -1.421875 25.265625 0.953125 
Q 20.953125 3.328125 18.109375 8.203125 
z
M 48.6875 27.296875 
Q 48.6875 37.203125 44.609375 42.84375 
Q 40.53125 48.484375 33.40625 48.484375 
Q 26.265625 48.484375 22.1875 42.84375 
Q 18.109375 37.203125 18.109375 27.296875 
Q 18.109375 17.390625 22.1875 11.75 
Q 26.265625 6.109375 33.40625 6.109375 
Q 40.53125 6.109375 44.609375 11.75 
Q 48.6875 17.390625 48.6875 27.296875 
z
" id="DejaVuSans-112"/>
     </defs>
     <g transform="translate(222.170156 20.793875)scale(0.1 -0.1)">
      <use xlink:href="#DejaVuSans-83"/>
      <use x="63.476562" xlink:href="#DejaVuSans-116"/>
      <use x="102.685547" xlink:href="#DejaVuSans-101"/>
      <use x="164.208984" xlink:href="#DejaVuSans-112"/>
      <use x="227.685547" xlink:href="#DejaVuSans-115"/>
     </g>
    </g>
   </g>
   <g id="patch_7">
    <path d="M 57.6 307.584 
L 57.6 41.472 
" style="fill:none;stroke:#000000;stroke-linecap:square;stroke-linejoin:miter;stroke-width:0.8;"/>
   </g>
   <g id="patch_8">
    <path d="M 414.72 307.584 
L 414.72 41.472 
" style="fill:none;stroke:#000000;stroke-linecap:square;stroke-linejoin:miter;stroke-width:0.8;"/>
   </g>
   <g id="patch_9">
    <path d="M 57.6 307.584 
L 414.72 307.584 
" style="fill:none;stroke:#000000;stroke-linecap:square;stroke-linejoin:miter;stroke-width:0.8;"/>
   </g>
   <g id="patch_10">
    <path d="M 57.6 41.472 
L 414.72 41.472 
" style="fill:none;stroke:#000000;stroke-linecap:square;stroke-linejoin:miter;stroke-width:0.8;"/>
   </g>
  </g>
 </g>
 <defs>
  <clipPath id="p6c7ccb072e">
   <rect height="266.112" width="357.12" x="57.6" y="41.472"/>
  </clipPath>
 </defs>
</svg>
