<?xml version="1.0" encoding="utf-8" standalone="no"?>
<!DOCTYPE svg PUBLIC "-//W3C//DTD SVG 1.1//EN"
  "http://www.w3.org/Graphics/SVG/1.1/DTD/svg11.dtd">
<!-- Created with matplotlib (https://matplotlib.org/) -->
<svg height="345.6pt" version="1.1" viewBox="0 0 460.8 345.6" width="460.8pt" xmlns="http://www.w3.org/2000/svg" xmlns:xlink="http://www.w3.org/1999/xlink">
 <defs>
  <style type="text/css">
*{stroke-linecap:butt;stroke-linejoin:round;}
  </style>
 </defs>
 <g id="figure_1">
  <g id="patch_1">
   <path d="M 0 345.6 
L 460.8 345.6 
L 460.8 0 
L 0 0 
z
" style="fill:#ffffff;"/>
  </g>
  <g id="axes_1">
   <g id="patch_2">
    <path d="M 57.6 307.584 
L 414.72 307.584 
L 414.72 41.472 
L 57.6 41.472 
z
" style="fill:#ffffff;"/>
   </g>
   <g id="matplotlib.axis_1">
    <g id="xtick_1">
     <g id="line2d_1">
      <path clip-path="url(#pe36c6f2400)" d="M 57.6 307.584 
L 57.6 41.472 
" style="fill:none;stroke:#b0b0b0;stroke-linecap:square;stroke-width:0.8;"/>
     </g>
     <g id="line2d_2">
      <defs>
       <path d="M 0 0 
L 0 3.5 
" id="m01b795de65" style="stroke:#000000;stroke-width:0.8;"/>
      </defs>
      <g>
       <use style="stroke:#000000;stroke-width:0.8;" x="57.6" xlink:href="#m01b795de65" y="307.584"/>
      </g>
     </g>
     <g id="text_1">
      <!-- 0.0 -->
      <defs>
       <path d="M 31.78125 66.40625 
Q 24.171875 66.40625 20.328125 58.90625 
Q 16.5 51.421875 16.5 36.375 
Q 16.5 21.390625 20.328125 13.890625 
Q 24.171875 6.390625 31.78125 6.390625 
Q 39.453125 6.390625 43.28125 13.890625 
Q 47.125 21.390625 47.125 36.375 
Q 47.125 51.421875 43.28125 58.90625 
Q 39.453125 66.40625 31.78125 66.40625 
z
M 31.78125 74.21875 
Q 44.046875 74.21875 50.515625 64.515625 
Q 56.984375 54.828125 56.984375 36.375 
Q 56.984375 17.96875 50.515625 8.265625 
Q 44.046875 -1.421875 31.78125 -1.421875 
Q 19.53125 -1.421875 13.0625 8.265625 
Q 6.59375 17.96875 6.59375 36.375 
Q 6.59375 54.828125 13.0625 64.515625 
Q 19.53125 74.21875 31.78125 74.21875 
z
" id="DejaVuSans-48"/>
       <path d="M 10.6875 12.40625 
L 21 12.40625 
L 21 0 
L 10.6875 0 
z
" id="DejaVuSans-46"/>
      </defs>
      <g transform="translate(49.648438 322.182437)scale(0.1 -0.1)">
       <use xlink:href="#DejaVuSans-48"/>
       <use x="63.623047" xlink:href="#DejaVuSans-46"/>
       <use x="95.410156" xlink:href="#DejaVuSans-48"/>
      </g>
     </g>
    </g>
    <g id="xtick_2">
     <g id="line2d_3">
      <path clip-path="url(#pe36c6f2400)" d="M 104.639105 307.584 
L 104.639105 41.472 
" style="fill:none;stroke:#b0b0b0;stroke-linecap:square;stroke-width:0.8;"/>
     </g>
     <g id="line2d_4">
      <g>
       <use style="stroke:#000000;stroke-width:0.8;" x="104.639105" xlink:href="#m01b795de65" y="307.584"/>
      </g>
     </g>
     <g id="text_2">
      <!-- 0.1 -->
      <defs>
       <path d="M 12.40625 8.296875 
L 28.515625 8.296875 
L 28.515625 63.921875 
L 10.984375 60.40625 
L 10.984375 69.390625 
L 28.421875 72.90625 
L 38.28125 72.90625 
L 38.28125 8.296875 
L 54.390625 8.296875 
L 54.390625 0 
L 12.40625 0 
z
" id="DejaVuSans-49"/>
      </defs>
      <g transform="translate(96.687542 322.182437)scale(0.1 -0.1)">
       <use xlink:href="#DejaVuSans-48"/>
       <use x="63.623047" xlink:href="#DejaVuSans-46"/>
       <use x="95.410156" xlink:href="#DejaVuSans-49"/>
      </g>
     </g>
    </g>
    <g id="xtick_3">
     <g id="line2d_5">
      <path clip-path="url(#pe36c6f2400)" d="M 151.678209 307.584 
L 151.678209 41.472 
" style="fill:none;stroke:#b0b0b0;stroke-linecap:square;stroke-width:0.8;"/>
     </g>
     <g id="line2d_6">
      <g>
       <use style="stroke:#000000;stroke-width:0.8;" x="151.678209" xlink:href="#m01b795de65" y="307.584"/>
      </g>
     </g>
     <g id="text_3">
      <!-- 0.2 -->
      <defs>
       <path d="M 19.1875 8.296875 
L 53.609375 8.296875 
L 53.609375 0 
L 7.328125 0 
L 7.328125 8.296875 
Q 12.9375 14.109375 22.625 23.890625 
Q 32.328125 33.6875 34.8125 36.53125 
Q 39.546875 41.84375 41.421875 45.53125 
Q 43.3125 49.21875 43.3125 52.78125 
Q 43.3125 58.59375 39.234375 62.25 
Q 35.15625 65.921875 28.609375 65.921875 
Q 23.96875 65.921875 18.8125 64.3125 
Q 13.671875 62.703125 7.8125 59.421875 
L 7.8125 69.390625 
Q 13.765625 71.78125 18.9375 73 
Q 24.125 74.21875 28.421875 74.21875 
Q 39.75 74.21875 46.484375 68.546875 
Q 53.21875 62.890625 53.21875 53.421875 
Q 53.21875 48.921875 51.53125 44.890625 
Q 49.859375 40.875 45.40625 35.40625 
Q 44.1875 33.984375 37.640625 27.21875 
Q 31.109375 20.453125 19.1875 8.296875 
z
" id="DejaVuSans-50"/>
      </defs>
      <g transform="translate(143.726647 322.182437)scale(0.1 -0.1)">
       <use xlink:href="#DejaVuSans-48"/>
       <use x="63.623047" xlink:href="#DejaVuSans-46"/>
       <use x="95.410156" xlink:href="#DejaVuSans-50"/>
      </g>
     </g>
    </g>
    <g id="xtick_4">
     <g id="line2d_7">
      <path clip-path="url(#pe36c6f2400)" d="M 198.717314 307.584 
L 198.717314 41.472 
" style="fill:none;stroke:#b0b0b0;stroke-linecap:square;stroke-width:0.8;"/>
     </g>
     <g id="line2d_8">
      <g>
       <use style="stroke:#000000;stroke-width:0.8;" x="198.717314" xlink:href="#m01b795de65" y="307.584"/>
      </g>
     </g>
     <g id="text_4">
      <!-- 0.3 -->
      <defs>
       <path d="M 40.578125 39.3125 
Q 47.65625 37.796875 51.625 33 
Q 55.609375 28.21875 55.609375 21.1875 
Q 55.609375 10.40625 48.1875 4.484375 
Q 40.765625 -1.421875 27.09375 -1.421875 
Q 22.515625 -1.421875 17.65625 -0.515625 
Q 12.796875 0.390625 7.625 2.203125 
L 7.625 11.71875 
Q 11.71875 9.328125 16.59375 8.109375 
Q 21.484375 6.890625 26.8125 6.890625 
Q 36.078125 6.890625 40.9375 10.546875 
Q 45.796875 14.203125 45.796875 21.1875 
Q 45.796875 27.640625 41.28125 31.265625 
Q 36.765625 34.90625 28.71875 34.90625 
L 20.21875 34.90625 
L 20.21875 43.015625 
L 29.109375 43.015625 
Q 36.375 43.015625 40.234375 45.921875 
Q 44.09375 48.828125 44.09375 54.296875 
Q 44.09375 59.90625 40.109375 62.90625 
Q 36.140625 65.921875 28.71875 65.921875 
Q 24.65625 65.921875 20.015625 65.03125 
Q 15.375 64.15625 9.8125 62.3125 
L 9.8125 71.09375 
Q 15.4375 72.65625 20.34375 73.4375 
Q 25.25 74.21875 29.59375 74.21875 
Q 40.828125 74.21875 47.359375 69.109375 
Q 53.90625 64.015625 53.90625 55.328125 
Q 53.90625 49.265625 50.4375 45.09375 
Q 46.96875 40.921875 40.578125 39.3125 
z
" id="DejaVuSans-51"/>
      </defs>
      <g transform="translate(190.765751 322.182437)scale(0.1 -0.1)">
       <use xlink:href="#DejaVuSans-48"/>
       <use x="63.623047" xlink:href="#DejaVuSans-46"/>
       <use x="95.410156" xlink:href="#DejaVuSans-51"/>
      </g>
     </g>
    </g>
    <g id="xtick_5">
     <g id="line2d_9">
      <path clip-path="url(#pe36c6f2400)" d="M 245.756418 307.584 
L 245.756418 41.472 
" style="fill:none;stroke:#b0b0b0;stroke-linecap:square;stroke-width:0.8;"/>
     </g>
     <g id="line2d_10">
      <g>
       <use style="stroke:#000000;stroke-width:0.8;" x="245.756418" xlink:href="#m01b795de65" y="307.584"/>
      </g>
     </g>
     <g id="text_5">
      <!-- 0.4 -->
      <defs>
       <path d="M 37.796875 64.3125 
L 12.890625 25.390625 
L 37.796875 25.390625 
z
M 35.203125 72.90625 
L 47.609375 72.90625 
L 47.609375 25.390625 
L 58.015625 25.390625 
L 58.015625 17.1875 
L 47.609375 17.1875 
L 47.609375 0 
L 37.796875 0 
L 37.796875 17.1875 
L 4.890625 17.1875 
L 4.890625 26.703125 
z
" id="DejaVuSans-52"/>
      </defs>
      <g transform="translate(237.804856 322.182437)scale(0.1 -0.1)">
       <use xlink:href="#DejaVuSans-48"/>
       <use x="63.623047" xlink:href="#DejaVuSans-46"/>
       <use x="95.410156" xlink:href="#DejaVuSans-52"/>
      </g>
     </g>
    </g>
    <g id="xtick_6">
     <g id="line2d_11">
      <path clip-path="url(#pe36c6f2400)" d="M 292.795523 307.584 
L 292.795523 41.472 
" style="fill:none;stroke:#b0b0b0;stroke-linecap:square;stroke-width:0.8;"/>
     </g>
     <g id="line2d_12">
      <g>
       <use style="stroke:#000000;stroke-width:0.8;" x="292.795523" xlink:href="#m01b795de65" y="307.584"/>
      </g>
     </g>
     <g id="text_6">
      <!-- 0.5 -->
      <defs>
       <path d="M 10.796875 72.90625 
L 49.515625 72.90625 
L 49.515625 64.59375 
L 19.828125 64.59375 
L 19.828125 46.734375 
Q 21.96875 47.46875 24.109375 47.828125 
Q 26.265625 48.1875 28.421875 48.1875 
Q 40.625 48.1875 47.75 41.5 
Q 54.890625 34.8125 54.890625 23.390625 
Q 54.890625 11.625 47.5625 5.09375 
Q 40.234375 -1.421875 26.90625 -1.421875 
Q 22.3125 -1.421875 17.546875 -0.640625 
Q 12.796875 0.140625 7.71875 1.703125 
L 7.71875 11.625 
Q 12.109375 9.234375 16.796875 8.0625 
Q 21.484375 6.890625 26.703125 6.890625 
Q 35.15625 6.890625 40.078125 11.328125 
Q 45.015625 15.765625 45.015625 23.390625 
Q 45.015625 31 40.078125 35.4375 
Q 35.15625 39.890625 26.703125 39.890625 
Q 22.75 39.890625 18.8125 39.015625 
Q 14.890625 38.140625 10.796875 36.28125 
z
" id="DejaVuSans-53"/>
      </defs>
      <g transform="translate(284.84396 322.182437)scale(0.1 -0.1)">
       <use xlink:href="#DejaVuSans-48"/>
       <use x="63.623047" xlink:href="#DejaVuSans-46"/>
       <use x="95.410156" xlink:href="#DejaVuSans-53"/>
      </g>
     </g>
    </g>
    <g id="xtick_7">
     <g id="line2d_13">
      <path clip-path="url(#pe36c6f2400)" d="M 339.834627 307.584 
L 339.834627 41.472 
" style="fill:none;stroke:#b0b0b0;stroke-linecap:square;stroke-width:0.8;"/>
     </g>
     <g id="line2d_14">
      <g>
       <use style="stroke:#000000;stroke-width:0.8;" x="339.834627" xlink:href="#m01b795de65" y="307.584"/>
      </g>
     </g>
     <g id="text_7">
      <!-- 0.6 -->
      <defs>
       <path d="M 33.015625 40.375 
Q 26.375 40.375 22.484375 35.828125 
Q 18.609375 31.296875 18.609375 23.390625 
Q 18.609375 15.53125 22.484375 10.953125 
Q 26.375 6.390625 33.015625 6.390625 
Q 39.65625 6.390625 43.53125 10.953125 
Q 47.40625 15.53125 47.40625 23.390625 
Q 47.40625 31.296875 43.53125 35.828125 
Q 39.65625 40.375 33.015625 40.375 
z
M 52.59375 71.296875 
L 52.59375 62.3125 
Q 48.875 64.0625 45.09375 64.984375 
Q 41.3125 65.921875 37.59375 65.921875 
Q 27.828125 65.921875 22.671875 59.328125 
Q 17.53125 52.734375 16.796875 39.40625 
Q 19.671875 43.65625 24.015625 45.921875 
Q 28.375 48.1875 33.59375 48.1875 
Q 44.578125 48.1875 50.953125 41.515625 
Q 57.328125 34.859375 57.328125 23.390625 
Q 57.328125 12.15625 50.6875 5.359375 
Q 44.046875 -1.421875 33.015625 -1.421875 
Q 20.359375 -1.421875 13.671875 8.265625 
Q 6.984375 17.96875 6.984375 36.375 
Q 6.984375 53.65625 15.1875 63.9375 
Q 23.390625 74.21875 37.203125 74.21875 
Q 40.921875 74.21875 44.703125 73.484375 
Q 48.484375 72.75 52.59375 71.296875 
z
" id="DejaVuSans-54"/>
      </defs>
      <g transform="translate(331.883065 322.182437)scale(0.1 -0.1)">
       <use xlink:href="#DejaVuSans-48"/>
       <use x="63.623047" xlink:href="#DejaVuSans-46"/>
       <use x="95.410156" xlink:href="#DejaVuSans-54"/>
      </g>
     </g>
    </g>
    <g id="xtick_8">
     <g id="line2d_15">
      <path clip-path="url(#pe36c6f2400)" d="M 386.873732 307.584 
L 386.873732 41.472 
" style="fill:none;stroke:#b0b0b0;stroke-linecap:square;stroke-width:0.8;"/>
     </g>
     <g id="line2d_16">
      <g>
       <use style="stroke:#000000;stroke-width:0.8;" x="386.873732" xlink:href="#m01b795de65" y="307.584"/>
      </g>
     </g>
     <g id="text_8">
      <!-- 0.7 -->
      <defs>
       <path d="M 8.203125 72.90625 
L 55.078125 72.90625 
L 55.078125 68.703125 
L 28.609375 0 
L 18.3125 0 
L 43.21875 64.59375 
L 8.203125 64.59375 
z
" id="DejaVuSans-55"/>
      </defs>
      <g transform="translate(378.922169 322.182437)scale(0.1 -0.1)">
       <use xlink:href="#DejaVuSans-48"/>
       <use x="63.623047" xlink:href="#DejaVuSans-46"/>
       <use x="95.410156" xlink:href="#DejaVuSans-55"/>
      </g>
     </g>
    </g>
    <g id="text_9">
     <!-- Hours -->
     <defs>
      <path d="M 9.8125 72.90625 
L 19.671875 72.90625 
L 19.671875 43.015625 
L 55.515625 43.015625 
L 55.515625 72.90625 
L 65.375 72.90625 
L 65.375 0 
L 55.515625 0 
L 55.515625 34.71875 
L 19.671875 34.71875 
L 19.671875 0 
L 9.8125 0 
z
" id="DejaVuSans-72"/>
      <path d="M 30.609375 48.390625 
Q 23.390625 48.390625 19.1875 42.75 
Q 14.984375 37.109375 14.984375 27.296875 
Q 14.984375 17.484375 19.15625 11.84375 
Q 23.34375 6.203125 30.609375 6.203125 
Q 37.796875 6.203125 41.984375 11.859375 
Q 46.1875 17.53125 46.1875 27.296875 
Q 46.1875 37.015625 41.984375 42.703125 
Q 37.796875 48.390625 30.609375 48.390625 
z
M 30.609375 56 
Q 42.328125 56 49.015625 48.375 
Q 55.71875 40.765625 55.71875 27.296875 
Q 55.71875 13.875 49.015625 6.21875 
Q 42.328125 -1.421875 30.609375 -1.421875 
Q 18.84375 -1.421875 12.171875 6.21875 
Q 5.515625 13.875 5.515625 27.296875 
Q 5.515625 40.765625 12.171875 48.375 
Q 18.84375 56 30.609375 56 
z
" id="DejaVuSans-111"/>
      <path d="M 8.5 21.578125 
L 8.5 54.6875 
L 17.484375 54.6875 
L 17.484375 21.921875 
Q 17.484375 14.15625 20.5 10.265625 
Q 23.53125 6.390625 29.59375 6.390625 
Q 36.859375 6.390625 41.078125 11.03125 
Q 45.3125 15.671875 45.3125 23.6875 
L 45.3125 54.6875 
L 54.296875 54.6875 
L 54.296875 0 
L 45.3125 0 
L 45.3125 8.40625 
Q 42.046875 3.421875 37.71875 1 
Q 33.40625 -1.421875 27.6875 -1.421875 
Q 18.265625 -1.421875 13.375 4.4375 
Q 8.5 10.296875 8.5 21.578125 
z
M 31.109375 56 
z
" id="DejaVuSans-117"/>
      <path d="M 41.109375 46.296875 
Q 39.59375 47.171875 37.8125 47.578125 
Q 36.03125 48 33.890625 48 
Q 26.265625 48 22.1875 43.046875 
Q 18.109375 38.09375 18.109375 28.8125 
L 18.109375 0 
L 9.078125 0 
L 9.078125 54.6875 
L 18.109375 54.6875 
L 18.109375 46.1875 
Q 20.953125 51.171875 25.484375 53.578125 
Q 30.03125 56 36.53125 56 
Q 37.453125 56 38.578125 55.875 
Q 39.703125 55.765625 41.0625 55.515625 
z
" id="DejaVuSans-114"/>
      <path d="M 44.28125 53.078125 
L 44.28125 44.578125 
Q 40.484375 46.53125 36.375 47.5 
Q 32.28125 48.484375 27.875 48.484375 
Q 21.1875 48.484375 17.84375 46.4375 
Q 14.5 44.390625 14.5 40.28125 
Q 14.5 37.15625 16.890625 35.375 
Q 19.28125 33.59375 26.515625 31.984375 
L 29.59375 31.296875 
Q 39.15625 29.25 43.1875 25.515625 
Q 47.21875 21.78125 47.21875 15.09375 
Q 47.21875 7.46875 41.1875 3.015625 
Q 35.15625 -1.421875 24.609375 -1.421875 
Q 20.21875 -1.421875 15.453125 -0.5625 
Q 10.6875 0.296875 5.421875 2 
L 5.421875 11.28125 
Q 10.40625 8.6875 15.234375 7.390625 
Q 20.0625 6.109375 24.8125 6.109375 
Q 31.15625 6.109375 34.5625 8.28125 
Q 37.984375 10.453125 37.984375 14.40625 
Q 37.984375 18.0625 35.515625 20.015625 
Q 33.0625 21.96875 24.703125 23.78125 
L 21.578125 24.515625 
Q 13.234375 26.265625 9.515625 29.90625 
Q 5.8125 33.546875 5.8125 39.890625 
Q 5.8125 47.609375 11.28125 51.796875 
Q 16.75 56 26.8125 56 
Q 31.78125 56 36.171875 55.265625 
Q 40.578125 54.546875 44.28125 53.078125 
z
" id="DejaVuSans-115"/>
     </defs>
     <g transform="translate(221.511562 335.860562)scale(0.1 -0.1)">
      <use xlink:href="#DejaVuSans-72"/>
      <use x="75.195312" xlink:href="#DejaVuSans-111"/>
      <use x="136.376953" xlink:href="#DejaVuSans-117"/>
      <use x="199.755859" xlink:href="#DejaVuSans-114"/>
      <use x="240.869141" xlink:href="#DejaVuSans-115"/>
     </g>
    </g>
   </g>
   <g id="matplotlib.axis_2">
    <g id="ytick_1">
     <g id="line2d_17">
      <path clip-path="url(#pe36c6f2400)" d="M 57.6 277.550163 
L 414.72 277.550163 
" style="fill:none;stroke:#b0b0b0;stroke-linecap:square;stroke-width:0.8;"/>
     </g>
     <g id="line2d_18">
      <defs>
       <path d="M 0 0 
L -3.5 0 
" id="m3801807733" style="stroke:#000000;stroke-width:0.8;"/>
      </defs>
      <g>
       <use style="stroke:#000000;stroke-width:0.8;" x="57.6" xlink:href="#m3801807733" y="277.550163"/>
      </g>
     </g>
     <g id="text_10">
      <!-- −0.020 -->
      <defs>
       <path d="M 10.59375 35.5 
L 73.1875 35.5 
L 73.1875 27.203125 
L 10.59375 27.203125 
z
" id="DejaVuSans-8722"/>
      </defs>
      <g transform="translate(13.592188 281.349382)scale(0.1 -0.1)">
       <use xlink:href="#DejaVuSans-8722"/>
       <use x="83.789062" xlink:href="#DejaVuSans-48"/>
       <use x="147.412109" xlink:href="#DejaVuSans-46"/>
       <use x="179.199219" xlink:href="#DejaVuSans-48"/>
       <use x="242.822266" xlink:href="#DejaVuSans-50"/>
       <use x="306.445312" xlink:href="#DejaVuSans-48"/>
      </g>
     </g>
    </g>
    <g id="ytick_2">
     <g id="line2d_19">
      <path clip-path="url(#pe36c6f2400)" d="M 57.6 241.119592 
L 414.72 241.119592 
" style="fill:none;stroke:#b0b0b0;stroke-linecap:square;stroke-width:0.8;"/>
     </g>
     <g id="line2d_20">
      <g>
       <use style="stroke:#000000;stroke-width:0.8;" x="57.6" xlink:href="#m3801807733" y="241.119592"/>
      </g>
     </g>
     <g id="text_11">
      <!-- −0.015 -->
      <g transform="translate(13.592188 244.918811)scale(0.1 -0.1)">
       <use xlink:href="#DejaVuSans-8722"/>
       <use x="83.789062" xlink:href="#DejaVuSans-48"/>
       <use x="147.412109" xlink:href="#DejaVuSans-46"/>
       <use x="179.199219" xlink:href="#DejaVuSans-48"/>
       <use x="242.822266" xlink:href="#DejaVuSans-49"/>
       <use x="306.445312" xlink:href="#DejaVuSans-53"/>
      </g>
     </g>
    </g>
    <g id="ytick_3">
     <g id="line2d_21">
      <path clip-path="url(#pe36c6f2400)" d="M 57.6 204.689022 
L 414.72 204.689022 
" style="fill:none;stroke:#b0b0b0;stroke-linecap:square;stroke-width:0.8;"/>
     </g>
     <g id="line2d_22">
      <g>
       <use style="stroke:#000000;stroke-width:0.8;" x="57.6" xlink:href="#m3801807733" y="204.689022"/>
      </g>
     </g>
     <g id="text_12">
      <!-- −0.010 -->
      <g transform="translate(13.592188 208.488241)scale(0.1 -0.1)">
       <use xlink:href="#DejaVuSans-8722"/>
       <use x="83.789062" xlink:href="#DejaVuSans-48"/>
       <use x="147.412109" xlink:href="#DejaVuSans-46"/>
       <use x="179.199219" xlink:href="#DejaVuSans-48"/>
       <use x="242.822266" xlink:href="#DejaVuSans-49"/>
       <use x="306.445312" xlink:href="#DejaVuSans-48"/>
      </g>
     </g>
    </g>
    <g id="ytick_4">
     <g id="line2d_23">
      <path clip-path="url(#pe36c6f2400)" d="M 57.6 168.258451 
L 414.72 168.258451 
" style="fill:none;stroke:#b0b0b0;stroke-linecap:square;stroke-width:0.8;"/>
     </g>
     <g id="line2d_24">
      <g>
       <use style="stroke:#000000;stroke-width:0.8;" x="57.6" xlink:href="#m3801807733" y="168.258451"/>
      </g>
     </g>
     <g id="text_13">
      <!-- −0.005 -->
      <g transform="translate(13.592188 172.05767)scale(0.1 -0.1)">
       <use xlink:href="#DejaVuSans-8722"/>
       <use x="83.789062" xlink:href="#DejaVuSans-48"/>
       <use x="147.412109" xlink:href="#DejaVuSans-46"/>
       <use x="179.199219" xlink:href="#DejaVuSans-48"/>
       <use x="242.822266" xlink:href="#DejaVuSans-48"/>
       <use x="306.445312" xlink:href="#DejaVuSans-53"/>
      </g>
     </g>
    </g>
    <g id="ytick_5">
     <g id="line2d_25">
      <path clip-path="url(#pe36c6f2400)" d="M 57.6 131.827881 
L 414.72 131.827881 
" style="fill:none;stroke:#b0b0b0;stroke-linecap:square;stroke-width:0.8;"/>
     </g>
     <g id="line2d_26">
      <g>
       <use style="stroke:#000000;stroke-width:0.8;" x="57.6" xlink:href="#m3801807733" y="131.827881"/>
      </g>
     </g>
     <g id="text_14">
      <!-- 0.000 -->
      <g transform="translate(21.971875 135.627099)scale(0.1 -0.1)">
       <use xlink:href="#DejaVuSans-48"/>
       <use x="63.623047" xlink:href="#DejaVuSans-46"/>
       <use x="95.410156" xlink:href="#DejaVuSans-48"/>
       <use x="159.033203" xlink:href="#DejaVuSans-48"/>
       <use x="222.65625" xlink:href="#DejaVuSans-48"/>
      </g>
     </g>
    </g>
    <g id="ytick_6">
     <g id="line2d_27">
      <path clip-path="url(#pe36c6f2400)" d="M 57.6 95.39731 
L 414.72 95.39731 
" style="fill:none;stroke:#b0b0b0;stroke-linecap:square;stroke-width:0.8;"/>
     </g>
     <g id="line2d_28">
      <g>
       <use style="stroke:#000000;stroke-width:0.8;" x="57.6" xlink:href="#m3801807733" y="95.39731"/>
      </g>
     </g>
     <g id="text_15">
      <!-- 0.005 -->
      <g transform="translate(21.971875 99.196529)scale(0.1 -0.1)">
       <use xlink:href="#DejaVuSans-48"/>
       <use x="63.623047" xlink:href="#DejaVuSans-46"/>
       <use x="95.410156" xlink:href="#DejaVuSans-48"/>
       <use x="159.033203" xlink:href="#DejaVuSans-48"/>
       <use x="222.65625" xlink:href="#DejaVuSans-53"/>
      </g>
     </g>
    </g>
    <g id="ytick_7">
     <g id="line2d_29">
      <path clip-path="url(#pe36c6f2400)" d="M 57.6 58.96674 
L 414.72 58.96674 
" style="fill:none;stroke:#b0b0b0;stroke-linecap:square;stroke-width:0.8;"/>
     </g>
     <g id="line2d_30">
      <g>
       <use style="stroke:#000000;stroke-width:0.8;" x="57.6" xlink:href="#m3801807733" y="58.96674"/>
      </g>
     </g>
     <g id="text_16">
      <!-- 0.010 -->
      <g transform="translate(21.971875 62.765958)scale(0.1 -0.1)">
       <use xlink:href="#DejaVuSans-48"/>
       <use x="63.623047" xlink:href="#DejaVuSans-46"/>
       <use x="95.410156" xlink:href="#DejaVuSans-48"/>
       <use x="159.033203" xlink:href="#DejaVuSans-49"/>
       <use x="222.65625" xlink:href="#DejaVuSans-48"/>
      </g>
     </g>
    </g>
    <g id="text_17">
     <!-- Advantage -->
     <defs>
      <path d="M 34.1875 63.1875 
L 20.796875 26.90625 
L 47.609375 26.90625 
z
M 28.609375 72.90625 
L 39.796875 72.90625 
L 67.578125 0 
L 57.328125 0 
L 50.6875 18.703125 
L 17.828125 18.703125 
L 11.1875 0 
L 0.78125 0 
z
" id="DejaVuSans-65"/>
      <path d="M 45.40625 46.390625 
L 45.40625 75.984375 
L 54.390625 75.984375 
L 54.390625 0 
L 45.40625 0 
L 45.40625 8.203125 
Q 42.578125 3.328125 38.25 0.953125 
Q 33.9375 -1.421875 27.875 -1.421875 
Q 17.96875 -1.421875 11.734375 6.484375 
Q 5.515625 14.40625 5.515625 27.296875 
Q 5.515625 40.1875 11.734375 48.09375 
Q 17.96875 56 27.875 56 
Q 33.9375 56 38.25 53.625 
Q 42.578125 51.265625 45.40625 46.390625 
z
M 14.796875 27.296875 
Q 14.796875 17.390625 18.875 11.75 
Q 22.953125 6.109375 30.078125 6.109375 
Q 37.203125 6.109375 41.296875 11.75 
Q 45.40625 17.390625 45.40625 27.296875 
Q 45.40625 37.203125 41.296875 42.84375 
Q 37.203125 48.484375 30.078125 48.484375 
Q 22.953125 48.484375 18.875 42.84375 
Q 14.796875 37.203125 14.796875 27.296875 
z
" id="DejaVuSans-100"/>
      <path d="M 2.984375 54.6875 
L 12.5 54.6875 
L 29.59375 8.796875 
L 46.6875 54.6875 
L 56.203125 54.6875 
L 35.6875 0 
L 23.484375 0 
z
" id="DejaVuSans-118"/>
      <path d="M 34.28125 27.484375 
Q 23.390625 27.484375 19.1875 25 
Q 14.984375 22.515625 14.984375 16.5 
Q 14.984375 11.71875 18.140625 8.90625 
Q 21.296875 6.109375 26.703125 6.109375 
Q 34.1875 6.109375 38.703125 11.40625 
Q 43.21875 16.703125 43.21875 25.484375 
L 43.21875 27.484375 
z
M 52.203125 31.203125 
L 52.203125 0 
L 43.21875 0 
L 43.21875 8.296875 
Q 40.140625 3.328125 35.546875 0.953125 
Q 30.953125 -1.421875 24.3125 -1.421875 
Q 15.921875 -1.421875 10.953125 3.296875 
Q 6 8.015625 6 15.921875 
Q 6 25.140625 12.171875 29.828125 
Q 18.359375 34.515625 30.609375 34.515625 
L 43.21875 34.515625 
L 43.21875 35.40625 
Q 43.21875 41.609375 39.140625 45 
Q 35.0625 48.390625 27.6875 48.390625 
Q 23 48.390625 18.546875 47.265625 
Q 14.109375 46.140625 10.015625 43.890625 
L 10.015625 52.203125 
Q 14.9375 54.109375 19.578125 55.046875 
Q 24.21875 56 28.609375 56 
Q 40.484375 56 46.34375 49.84375 
Q 52.203125 43.703125 52.203125 31.203125 
z
" id="DejaVuSans-97"/>
      <path d="M 54.890625 33.015625 
L 54.890625 0 
L 45.90625 0 
L 45.90625 32.71875 
Q 45.90625 40.484375 42.875 44.328125 
Q 39.84375 48.1875 33.796875 48.1875 
Q 26.515625 48.1875 22.3125 43.546875 
Q 18.109375 38.921875 18.109375 30.90625 
L 18.109375 0 
L 9.078125 0 
L 9.078125 54.6875 
L 18.109375 54.6875 
L 18.109375 46.1875 
Q 21.34375 51.125 25.703125 53.5625 
Q 30.078125 56 35.796875 56 
Q 45.21875 56 50.046875 50.171875 
Q 54.890625 44.34375 54.890625 33.015625 
z
" id="DejaVuSans-110"/>
      <path d="M 18.3125 70.21875 
L 18.3125 54.6875 
L 36.8125 54.6875 
L 36.8125 47.703125 
L 18.3125 47.703125 
L 18.3125 18.015625 
Q 18.3125 11.328125 20.140625 9.421875 
Q 21.96875 7.515625 27.59375 7.515625 
L 36.8125 7.515625 
L 36.8125 0 
L 27.59375 0 
Q 17.1875 0 13.234375 3.875 
Q 9.28125 7.765625 9.28125 18.015625 
L 9.28125 47.703125 
L 2.6875 47.703125 
L 2.6875 54.6875 
L 9.28125 54.6875 
L 9.28125 70.21875 
z
" id="DejaVuSans-116"/>
      <path d="M 45.40625 27.984375 
Q 45.40625 37.75 41.375 43.109375 
Q 37.359375 48.484375 30.078125 48.484375 
Q 22.859375 48.484375 18.828125 43.109375 
Q 14.796875 37.75 14.796875 27.984375 
Q 14.796875 18.265625 18.828125 12.890625 
Q 22.859375 7.515625 30.078125 7.515625 
Q 37.359375 7.515625 41.375 12.890625 
Q 45.40625 18.265625 45.40625 27.984375 
z
M 54.390625 6.78125 
Q 54.390625 -7.171875 48.1875 -13.984375 
Q 42 -20.796875 29.203125 -20.796875 
Q 24.46875 -20.796875 20.265625 -20.09375 
Q 16.0625 -19.390625 12.109375 -17.921875 
L 12.109375 -9.1875 
Q 16.0625 -11.328125 19.921875 -12.34375 
Q 23.78125 -13.375 27.78125 -13.375 
Q 36.625 -13.375 41.015625 -8.765625 
Q 45.40625 -4.15625 45.40625 5.171875 
L 45.40625 9.625 
Q 42.625 4.78125 38.28125 2.390625 
Q 33.9375 0 27.875 0 
Q 17.828125 0 11.671875 7.65625 
Q 5.515625 15.328125 5.515625 27.984375 
Q 5.515625 40.671875 11.671875 48.328125 
Q 17.828125 56 27.875 56 
Q 33.9375 56 38.28125 53.609375 
Q 42.625 51.21875 45.40625 46.390625 
L 45.40625 54.6875 
L 54.390625 54.6875 
z
" id="DejaVuSans-103"/>
      <path d="M 56.203125 29.59375 
L 56.203125 25.203125 
L 14.890625 25.203125 
Q 15.484375 15.921875 20.484375 11.0625 
Q 25.484375 6.203125 34.421875 6.203125 
Q 39.59375 6.203125 44.453125 7.46875 
Q 49.3125 8.734375 54.109375 11.28125 
L 54.109375 2.78125 
Q 49.265625 0.734375 44.1875 -0.34375 
Q 39.109375 -1.421875 33.890625 -1.421875 
Q 20.796875 -1.421875 13.15625 6.1875 
Q 5.515625 13.8125 5.515625 26.8125 
Q 5.515625 40.234375 12.765625 48.109375 
Q 20.015625 56 32.328125 56 
Q 43.359375 56 49.78125 48.890625 
Q 56.203125 41.796875 56.203125 29.59375 
z
M 47.21875 32.234375 
Q 47.125 39.59375 43.09375 43.984375 
Q 39.0625 48.390625 32.421875 48.390625 
Q 24.90625 48.390625 20.390625 44.140625 
Q 15.875 39.890625 15.1875 32.171875 
z
" id="DejaVuSans-101"/>
     </defs>
     <g transform="translate(7.5125 201.588937)rotate(-90)scale(0.1 -0.1)">
      <use xlink:href="#DejaVuSans-65"/>
      <use x="68.392578" xlink:href="#DejaVuSans-100"/>
      <use x="131.869141" xlink:href="#DejaVuSans-118"/>
      <use x="191.048828" xlink:href="#DejaVuSans-97"/>
      <use x="252.328125" xlink:href="#DejaVuSans-110"/>
      <use x="315.707031" xlink:href="#DejaVuSans-116"/>
      <use x="354.916016" xlink:href="#DejaVuSans-97"/>
      <use x="416.195312" xlink:href="#DejaVuSans-103"/>
      <use x="479.671875" xlink:href="#DejaVuSans-101"/>
     </g>
    </g>
   </g>
   <g id="line2d_31">
    <path clip-path="url(#pe36c6f2400)" d="M 57.6 295.488 
L 58.254677 161.054246 
L 58.896573 149.769998 
L 59.531812 141.632414 
L 60.172584 101.464069 
L 60.807782 136.09728 
L 61.443714 110.357924 
L 62.080689 162.684448 
L 62.714745 176.514133 
L 63.353042 170.207921 
L 63.987142 157.279051 
L 64.624572 139.443151 
L 65.261277 127.312127 
L 65.899093 128.716433 
L 66.534557 191.547247 
L 67.173881 169.829746 
L 67.809737 132.006285 
L 68.446748 117.835299 
L 69.083798 85.266207 
L 69.721315 137.21926 
L 70.359543 138.401093 
L 70.995212 135.805617 
L 71.631197 168.071229 
L 72.270627 105.839803 
L 72.9079 122.731838 
L 73.545196 155.286353 
L 74.182382 106.079097 
L 74.817619 128.252345 
L 76.092352 94.712055 
L 76.728239 134.243939 
L 77.366901 126.808927 
L 78.002385 118.104561 
L 78.6391 125.44963 
L 79.275856 108.80075 
L 79.912865 114.907449 
L 80.550494 140.22054 
L 81.189026 107.229847 
L 81.826593 112.87209 
L 82.462557 105.103349 
L 83.099382 130.310272 
L 83.734778 133.430184 
L 84.374036 109.884294 
L 85.007284 155.871782 
L 85.644519 103.865667 
L 86.282384 163.920993 
L 86.918828 91.871497 
L 87.556392 93.355911 
L 88.193789 148.251962 
L 88.830015 84.935742 
L 89.468061 117.103521 
L 90.107681 120.94952 
L 90.745747 120.198261 
L 91.383028 121.114979 
L 92.020247 127.552795 
L 92.655946 115.546802 
L 93.29672 125.508801 
L 93.936293 95.34994 
L 94.57348 104.998513 
L 95.207235 103.278609 
L 95.846722 96.976406 
L 96.484046 114.62368 
L 97.120059 102.405826 
L 97.761093 101.994621 
L 98.398538 108.790663 
L 99.036244 121.23424 
L 99.672045 123.939276 
L 100.947412 87.836387 
L 101.586273 115.402179 
L 102.221871 75.003721 
L 102.859366 90.800116 
L 103.494187 132.905 
L 104.132241 96.596592 
L 104.767148 117.268728 
L 105.40401 99.184915 
L 106.040687 69.777442 
L 106.675698 114.840795 
L 107.313267 121.238962 
L 107.948671 100.219456 
L 108.589574 85.276229 
L 109.227452 122.770953 
L 109.865287 86.092603 
L 110.509716 131.270858 
L 111.150184 89.076729 
L 111.785769 112.578514 
L 112.420729 149.95876 
L 113.057732 100.171966 
L 113.695463 96.454961 
L 114.334977 67.448562 
L 114.96991 87.219368 
L 115.610932 98.282156 
L 116.245247 116.374512 
L 116.879873 87.776839 
L 117.519822 99.708535 
L 118.15624 105.880082 
L 118.793426 96.235813 
L 119.432613 104.378649 
L 120.068408 107.466813 
L 120.709129 93.107605 
L 121.344526 102.966069 
L 121.980476 66.674806 
L 122.618678 120.741589 
L 123.258418 112.587412 
L 123.896517 92.79727 
L 124.531379 95.726212 
L 125.170318 119.845397 
L 125.805269 87.045447 
L 126.43984 92.39658 
L 127.077403 78.455201 
L 127.712331 121.833841 
L 128.350043 105.798799 
L 128.987914 94.53166 
L 129.625521 96.229281 
L 130.263081 126.834199 
L 130.900013 71.150995 
L 131.538186 116.198925 
L 132.17091 109.321642 
L 132.812047 60.161103 
L 133.446843 116.965664 
L 134.085442 90.915182 
L 134.721473 124.34089 
L 135.996933 53.568 
L 136.63395 145.450146 
L 137.270439 81.646109 
L 137.906262 89.08339 
L 138.543846 93.288027 
L 139.817852 128.821195 
L 140.456533 105.407081 
L 141.093915 109.161377 
L 141.730997 108.658165 
L 142.368065 79.484595 
L 143.005894 127.048551 
L 143.644424 77.493847 
L 144.280025 102.726794 
L 144.918857 94.367126 
L 145.555066 123.37213 
L 146.192896 106.785524 
L 146.830123 120.264226 
L 147.466468 104.895825 
L 148.106816 84.294142 
L 148.739579 129.929216 
L 149.378949 97.521459 
L 150.015815 138.897467 
L 150.653796 92.363957 
L 151.29284 124.179773 
L 151.92585 122.419148 
L 152.565527 90.87118 
L 153.201133 114.387868 
L 153.836452 106.113852 
L 154.472874 94.149769 
L 155.112163 89.793068 
L 155.748069 99.228486 
L 156.386676 114.728169 
L 157.031191 105.119326 
L 157.666622 127.980033 
L 158.30191 111.45138 
L 158.939516 105.244745 
L 159.577897 111.909787 
L 160.215289 127.239495 
L 160.853958 97.92562 
L 161.49126 129.486787 
L 162.128427 115.053524 
L 162.765314 131.730874 
L 163.400108 110.696613 
L 164.036034 128.106897 
L 164.67146 110.527228 
L 165.310443 88.896494 
L 165.949782 132.177108 
L 166.585547 105.205335 
L 167.220579 103.233633 
L 167.855992 138.395816 
L 168.4918 104.566154 
L 169.131183 109.730126 
L 169.767866 100.405961 
L 170.403792 118.893259 
L 171.040693 117.711484 
L 171.67673 115.420713 
L 172.313741 128.551078 
L 172.952677 116.116139 
L 173.593315 124.262983 
L 174.230336 122.057629 
L 174.866153 143.049404 
L 175.50354 107.491599 
L 176.778509 115.031017 
L 177.417636 107.715369 
L 178.054205 129.324736 
L 178.69162 113.804438 
L 179.326772 124.047252 
L 179.962001 129.235916 
L 180.59687 140.097701 
L 181.239943 99.85376 
L 181.875179 140.51239 
L 182.511229 118.406977 
L 183.147843 114.027723 
L 183.782627 151.282369 
L 184.41713 114.620114 
L 185.691979 143.842263 
L 186.326981 112.80436 
L 186.961841 132.536956 
L 187.599544 127.766022 
L 188.237429 121.737525 
L 188.878294 148.66421 
L 189.516816 120.533817 
L 190.154182 122.180511 
L 190.78949 139.584062 
L 191.424673 123.204649 
L 192.058892 115.506786 
L 192.697295 112.067678 
L 193.335731 151.993554 
L 193.969913 128.202613 
L 194.604192 119.463369 
L 195.241619 139.980681 
L 195.879178 126.829168 
L 196.513851 143.035261 
L 197.153258 121.282642 
L 197.792007 140.685074 
L 198.425218 120.562724 
L 199.062573 150.807484 
L 199.69688 135.84178 
L 200.333562 135.740856 
L 200.972946 120.341033 
L 201.608612 143.170028 
L 202.24711 138.677681 
L 202.881914 137.423909 
L 203.518623 135.272859 
L 204.153906 134.389556 
L 204.791327 126.279248 
L 205.429876 128.151372 
L 206.064851 135.147342 
L 206.702533 123.19574 
L 207.337832 130.948614 
L 207.974217 124.843766 
L 208.611357 142.990771 
L 209.250057 144.93431 
L 209.886446 117.176249 
L 210.521346 141.217757 
L 211.157829 117.167237 
L 211.791986 139.303426 
L 212.429572 137.477486 
L 213.066933 125.323695 
L 213.70155 133.002824 
L 214.33562 124.81423 
L 214.97501 152.30609 
L 215.608564 128.19503 
L 216.24607 120.661588 
L 216.879645 157.292482 
L 217.520727 122.113373 
L 218.157561 128.767513 
L 218.794299 144.950756 
L 219.42944 101.552905 
L 220.067762 149.485401 
L 220.703056 138.881636 
L 221.342751 130.100892 
L 221.977934 125.16166 
L 222.613468 128.781741 
L 223.248757 135.577227 
L 223.885948 140.389005 
L 224.51903 129.940128 
L 225.159181 132.482447 
L 225.791191 131.308458 
L 226.429497 127.113061 
L 227.066511 125.248555 
L 227.700775 124.290225 
L 228.33866 112.055727 
L 228.972381 121.132092 
L 229.610458 132.620323 
L 230.247005 136.442946 
L 230.882533 112.791981 
L 231.519196 139.974736 
L 232.153995 140.38713 
L 233.427151 125.01317 
L 234.063808 117.155462 
L 234.701761 133.214532 
L 235.336711 143.11198 
L 235.971856 113.078429 
L 236.609998 155.985747 
L 237.247358 106.875015 
L 237.884009 139.00697 
L 238.51972 115.775314 
L 239.156444 122.967043 
L 239.795486 139.942628 
L 240.42924 114.668568 
L 241.065985 143.492113 
L 241.701143 136.537896 
L 242.337142 114.926056 
L 242.973192 134.640734 
L 243.608727 110.606285 
L 244.242465 128.683111 
L 244.880536 139.090396 
L 245.518927 107.633948 
L 246.155846 147.824506 
L 246.791086 114.942077 
L 247.430419 100.900081 
L 248.064214 134.950359 
L 248.69978 135.648827 
L 249.338347 139.446748 
L 249.975282 145.955495 
L 250.609782 131.324209 
L 251.24499 137.370177 
L 251.881185 131.676299 
L 252.516607 120.17826 
L 253.155184 142.943862 
L 253.790623 119.967632 
L 254.427736 142.934497 
L 255.062843 109.04099 
L 255.698165 135.640137 
L 256.333833 130.577047 
L 256.972695 136.647492 
L 257.608914 140.784475 
L 258.243516 122.420314 
L 258.87896 119.867853 
L 259.517284 153.574948 
L 260.154084 129.856708 
L 260.787857 135.146411 
L 261.423923 151.162711 
L 262.060317 114.69338 
L 262.695147 117.320454 
L 263.329178 131.108053 
L 263.964617 139.579417 
L 265.23905 118.1918 
L 265.874838 131.355416 
L 266.510051 135.552164 
L 267.150978 100.503839 
L 267.786213 143.613474 
L 268.422826 110.526442 
L 269.059541 129.475654 
L 269.696075 137.757809 
L 270.332537 128.054384 
L 270.969147 126.135222 
L 271.602169 129.680929 
L 272.237334 127.248628 
L 272.871723 112.75838 
L 273.508571 133.651781 
L 274.14263 177.051719 
L 274.779497 130.820998 
L 275.415943 126.007389 
L 276.051112 113.813387 
L 276.686787 125.833589 
L 277.32371 156.295861 
L 277.960029 148.149868 
L 278.595424 134.054792 
L 279.231994 150.150797 
L 279.867383 119.612826 
L 280.502532 145.563874 
L 281.137754 103.450511 
L 281.777613 150.618055 
L 282.409695 126.188648 
L 283.046276 143.717261 
L 283.681849 132.54123 
L 284.319781 133.062973 
L 284.95325 128.861956 
L 285.592604 104.89434 
L 286.22727 114.365041 
L 286.859758 135.14043 
L 287.495688 134.211422 
L 288.767207 145.725912 
L 289.404512 136.016545 
L 290.041256 147.368992 
L 290.678861 136.980266 
L 291.311173 121.712514 
L 291.946685 132.077657 
L 292.580931 109.224026 
L 293.215225 132.700118 
L 293.853896 110.664671 
L 294.490815 149.657009 
L 295.124899 126.665393 
L 295.763691 133.290123 
L 296.398325 111.397144 
L 297.031608 109.601457 
L 297.668351 112.837922 
L 298.306749 123.159242 
L 298.953186 150.91509 
L 299.588191 131.899582 
L 300.224118 133.60319 
L 300.85681 132.157809 
L 301.494397 132.771732 
L 302.132178 143.536038 
L 302.766561 129.433206 
L 303.403535 121.025973 
L 304.038863 136.46207 
L 304.671792 111.329578 
L 305.307284 156.45796 
L 305.947027 113.388241 
L 306.581352 123.041007 
L 307.223422 128.992334 
L 307.855945 147.475843 
L 308.492659 160.775953 
L 309.127454 158.089207 
L 309.763343 135.294035 
L 310.403553 122.87799 
L 311.042044 126.170753 
L 311.678872 159.747692 
L 312.31602 113.409939 
L 312.952474 113.191185 
L 313.586866 137.124872 
L 314.227815 147.077231 
L 314.860999 120.076179 
L 315.498199 130.997065 
L 316.133275 123.757554 
L 316.769452 135.527712 
L 317.405216 173.235652 
L 318.042245 135.508658 
L 318.679664 143.633042 
L 319.317239 133.219529 
L 319.951566 159.645139 
L 320.585927 114.959094 
L 321.220415 128.493415 
L 321.854699 161.93868 
L 322.494017 112.643427 
L 323.129247 98.672694 
L 323.765541 138.563126 
L 324.397846 124.597022 
L 325.032358 181.368918 
L 325.66945 117.463122 
L 326.302711 153.379191 
L 326.940903 139.518068 
L 327.574179 109.044563 
L 328.209797 119.22344 
L 328.84562 144.319601 
L 329.482872 112.884162 
L 330.116224 150.645208 
L 330.756388 125.587098 
L 331.389637 141.028102 
L 332.025835 111.997787 
L 332.662259 138.473525 
L 333.296966 159.271653 
L 333.932344 142.029789 
L 334.565875 148.408568 
L 335.204909 105.883985 
L 335.839294 139.87704 
L 336.478288 130.745921 
L 337.112345 142.91138 
L 337.749176 103.154851 
L 338.383173 134.56191 
L 339.021966 136.967055 
L 339.657292 137.071102 
L 340.289832 129.706436 
L 340.92546 149.862284 
L 341.56164 149.702929 
L 342.197356 151.017692 
L 343.47087 139.892323 
L 344.106788 92.029397 
L 344.742579 143.735139 
L 345.382317 127.882805 
L 346.017262 125.918693 
L 346.652218 134.058408 
L 347.286686 127.670455 
L 347.921864 137.139835 
L 348.556379 97.182333 
L 349.194024 139.102982 
L 349.830662 148.201159 
L 350.465075 102.640605 
L 351.099709 153.989525 
L 351.736832 123.544195 
L 352.372528 121.333744 
L 353.005269 141.581485 
L 353.642331 135.871119 
L 354.276145 104.945482 
L 354.913081 129.704097 
L 355.550991 128.553475 
L 356.185906 150.395234 
L 356.819874 129.971643 
L 357.455634 132.674796 
L 358.089692 115.20113 
L 358.723828 133.467128 
L 359.360555 141.540706 
L 359.997583 115.817087 
L 360.632047 128.462998 
L 361.268371 116.592826 
L 361.903261 155.018452 
L 362.537256 139.290641 
L 363.175867 137.272596 
L 363.812648 134.411258 
L 364.445962 132.358731 
L 365.719584 108.845777 
L 366.352562 124.749482 
L 366.989228 117.116205 
L 367.627284 121.766213 
L 368.259256 133.972997 
L 368.894041 141.840581 
L 369.530468 137.566347 
L 370.163574 123.421049 
L 370.800432 125.628023 
L 371.43448 121.201663 
L 372.071438 127.227303 
L 372.706453 121.883604 
L 373.342946 135.741678 
L 374.613414 99.26917 
L 375.248796 117.948393 
L 375.888425 120.119465 
L 376.526049 136.650373 
L 377.162668 129.422532 
L 377.7988 143.520946 
L 378.432883 132.629196 
L 379.067049 152.698468 
L 379.704994 140.110662 
L 380.339777 121.71903 
L 380.977331 127.459436 
L 381.612301 141.576145 
L 382.249007 138.873754 
L 382.882859 127.198799 
L 383.518191 127.351121 
L 384.15685 141.492985 
L 384.794583 127.177456 
L 385.428778 125.122739 
L 386.064707 132.183001 
L 386.707242 134.174921 
L 387.342141 138.214523 
L 387.982672 149.865822 
L 388.618196 119.817346 
L 389.260227 145.289032 
L 389.897924 147.767874 
L 390.534008 138.194184 
L 391.168748 134.243476 
L 391.805867 124.86098 
L 392.44367 143.351863 
L 393.079187 134.557994 
L 393.712165 133.208239 
L 394.347174 107.147505 
L 394.9817 140.24122 
L 396.255964 136.281578 
L 396.892302 144.170878 
L 397.533543 130.978286 
L 398.168593 142.542773 
L 398.802758 139.051654 
L 399.441752 146.06282 
L 400.084262 133.347343 
L 400.716919 118.222007 
L 401.350489 141.963264 
L 401.985479 134.369903 
L 402.619007 150.997007 
L 403.254547 141.769807 
L 403.891723 124.660905 
L 404.530642 145.343603 
L 405.168706 117.807692 
L 405.803054 136.343057 
L 406.438321 139.232503 
L 407.077776 115.807614 
L 407.716429 131.892948 
L 408.350819 144.859746 
L 408.987008 130.622935 
L 409.626429 142.386535 
L 410.264066 131.805145 
L 410.901181 129.862238 
L 411.538803 134.011909 
L 412.179157 143.869226 
L 412.814676 143.546921 
L 413.451684 132.166707 
L 414.085194 127.130083 
L 414.72 139.837452 
L 414.72 139.837452 
" style="fill:none;stroke:#000000;stroke-linecap:square;stroke-width:0.8;"/>
   </g>
   <g id="patch_3">
    <path d="M 57.6 307.584 
L 57.6 41.472 
" style="fill:none;stroke:#000000;stroke-linecap:square;stroke-linejoin:miter;stroke-width:0.8;"/>
   </g>
   <g id="patch_4">
    <path d="M 414.72 307.584 
L 414.72 41.472 
" style="fill:none;stroke:#000000;stroke-linecap:square;stroke-linejoin:miter;stroke-width:0.8;"/>
   </g>
   <g id="patch_5">
    <path d="M 57.6 307.584 
L 414.72 307.584 
" style="fill:none;stroke:#000000;stroke-linecap:square;stroke-linejoin:miter;stroke-width:0.8;"/>
   </g>
   <g id="patch_6">
    <path d="M 57.6 41.472 
L 414.72 41.472 
" style="fill:none;stroke:#000000;stroke-linecap:square;stroke-linejoin:miter;stroke-width:0.8;"/>
   </g>
  </g>
  <g id="axes_2">
   <g id="matplotlib.axis_3">
    <g id="xtick_9">
     <g id="line2d_32">
      <defs>
       <path d="M 0 0 
L 0 -3.5 
" id="m33b1a68420" style="stroke:#000000;stroke-width:0.8;"/>
      </defs>
      <g>
       <use style="stroke:#000000;stroke-width:0.8;" x="57.6" xlink:href="#m33b1a68420" y="41.472"/>
      </g>
     </g>
    </g>
    <g id="xtick_10">
     <g id="line2d_33">
      <g>
       <use style="stroke:#000000;stroke-width:0.8;" x="107.244128" xlink:href="#m33b1a68420" y="41.472"/>
      </g>
     </g>
     <g id="text_18">
      <!-- 1,000K -->
      <defs>
       <path d="M 11.71875 12.40625 
L 22.015625 12.40625 
L 22.015625 4 
L 14.015625 -11.625 
L 7.71875 -11.625 
L 11.71875 4 
z
" id="DejaVuSans-44"/>
       <path d="M 9.8125 72.90625 
L 19.671875 72.90625 
L 19.671875 42.09375 
L 52.390625 72.90625 
L 65.09375 72.90625 
L 28.90625 38.921875 
L 67.671875 0 
L 54.6875 0 
L 19.671875 35.109375 
L 19.671875 0 
L 9.8125 0 
z
" id="DejaVuSans-75"/>
      </defs>
      <g transform="translate(89.651159 32.392313)scale(0.1 -0.1)">
       <use xlink:href="#DejaVuSans-49"/>
       <use x="63.623047" xlink:href="#DejaVuSans-44"/>
       <use x="95.410156" xlink:href="#DejaVuSans-48"/>
       <use x="159.033203" xlink:href="#DejaVuSans-48"/>
       <use x="222.65625" xlink:href="#DejaVuSans-48"/>
       <use x="286.279297" xlink:href="#DejaVuSans-75"/>
      </g>
     </g>
    </g>
    <g id="xtick_11">
     <g id="line2d_34">
      <g>
       <use style="stroke:#000000;stroke-width:0.8;" x="156.888256" xlink:href="#m33b1a68420" y="41.472"/>
      </g>
     </g>
     <g id="text_19">
      <!-- 2.00M -->
      <defs>
       <path d="M 9.8125 72.90625 
L 24.515625 72.90625 
L 43.109375 23.296875 
L 61.8125 72.90625 
L 76.515625 72.90625 
L 76.515625 0 
L 66.890625 0 
L 66.890625 64.015625 
L 48.09375 14.015625 
L 38.1875 14.015625 
L 19.390625 64.015625 
L 19.390625 0 
L 9.8125 0 
z
" id="DejaVuSans-77"/>
      </defs>
      <g transform="translate(141.441381 32.392313)scale(0.1 -0.1)">
       <use xlink:href="#DejaVuSans-50"/>
       <use x="63.623047" xlink:href="#DejaVuSans-46"/>
       <use x="95.410156" xlink:href="#DejaVuSans-48"/>
       <use x="159.033203" xlink:href="#DejaVuSans-48"/>
       <use x="222.65625" xlink:href="#DejaVuSans-77"/>
      </g>
     </g>
    </g>
    <g id="xtick_12">
     <g id="line2d_35">
      <g>
       <use style="stroke:#000000;stroke-width:0.8;" x="206.532384" xlink:href="#m33b1a68420" y="41.472"/>
      </g>
     </g>
     <g id="text_20">
      <!-- 3.00M -->
      <g transform="translate(191.085509 32.392313)scale(0.1 -0.1)">
       <use xlink:href="#DejaVuSans-51"/>
       <use x="63.623047" xlink:href="#DejaVuSans-46"/>
       <use x="95.410156" xlink:href="#DejaVuSans-48"/>
       <use x="159.033203" xlink:href="#DejaVuSans-48"/>
       <use x="222.65625" xlink:href="#DejaVuSans-77"/>
      </g>
     </g>
    </g>
    <g id="xtick_13">
     <g id="line2d_36">
      <g>
       <use style="stroke:#000000;stroke-width:0.8;" x="256.176512" xlink:href="#m33b1a68420" y="41.472"/>
      </g>
     </g>
     <g id="text_21">
      <!-- 4.00M -->
      <g transform="translate(240.729637 32.392313)scale(0.1 -0.1)">
       <use xlink:href="#DejaVuSans-52"/>
       <use x="63.623047" xlink:href="#DejaVuSans-46"/>
       <use x="95.410156" xlink:href="#DejaVuSans-48"/>
       <use x="159.033203" xlink:href="#DejaVuSans-48"/>
       <use x="222.65625" xlink:href="#DejaVuSans-77"/>
      </g>
     </g>
    </g>
    <g id="xtick_14">
     <g id="line2d_37">
      <g>
       <use style="stroke:#000000;stroke-width:0.8;" x="305.820641" xlink:href="#m33b1a68420" y="41.472"/>
      </g>
     </g>
     <g id="text_22">
      <!-- 5.00M -->
      <g transform="translate(290.373766 32.392313)scale(0.1 -0.1)">
       <use xlink:href="#DejaVuSans-53"/>
       <use x="63.623047" xlink:href="#DejaVuSans-46"/>
       <use x="95.410156" xlink:href="#DejaVuSans-48"/>
       <use x="159.033203" xlink:href="#DejaVuSans-48"/>
       <use x="222.65625" xlink:href="#DejaVuSans-77"/>
      </g>
     </g>
    </g>
    <g id="xtick_15">
     <g id="line2d_38">
      <g>
       <use style="stroke:#000000;stroke-width:0.8;" x="355.464769" xlink:href="#m33b1a68420" y="41.472"/>
      </g>
     </g>
     <g id="text_23">
      <!-- 6.00M -->
      <g transform="translate(340.017894 32.392313)scale(0.1 -0.1)">
       <use xlink:href="#DejaVuSans-54"/>
       <use x="63.623047" xlink:href="#DejaVuSans-46"/>
       <use x="95.410156" xlink:href="#DejaVuSans-48"/>
       <use x="159.033203" xlink:href="#DejaVuSans-48"/>
       <use x="222.65625" xlink:href="#DejaVuSans-77"/>
      </g>
     </g>
    </g>
    <g id="xtick_16">
     <g id="line2d_39">
      <g>
       <use style="stroke:#000000;stroke-width:0.8;" x="405.108897" xlink:href="#m33b1a68420" y="41.472"/>
      </g>
     </g>
     <g id="text_24">
      <!-- 7.00M -->
      <g transform="translate(389.662022 32.392313)scale(0.1 -0.1)">
       <use xlink:href="#DejaVuSans-55"/>
       <use x="63.623047" xlink:href="#DejaVuSans-46"/>
       <use x="95.410156" xlink:href="#DejaVuSans-48"/>
       <use x="159.033203" xlink:href="#DejaVuSans-48"/>
       <use x="222.65625" xlink:href="#DejaVuSans-77"/>
      </g>
     </g>
    </g>
    <g id="text_25">
     <!-- Steps -->
     <defs>
      <path d="M 53.515625 70.515625 
L 53.515625 60.890625 
Q 47.90625 63.578125 42.921875 64.890625 
Q 37.9375 66.21875 33.296875 66.21875 
Q 25.25 66.21875 20.875 63.09375 
Q 16.5 59.96875 16.5 54.203125 
Q 16.5 49.359375 19.40625 46.890625 
Q 22.3125 44.4375 30.421875 42.921875 
L 36.375 41.703125 
Q 47.40625 39.59375 52.65625 34.296875 
Q 57.90625 29 57.90625 20.125 
Q 57.90625 9.515625 50.796875 4.046875 
Q 43.703125 -1.421875 29.984375 -1.421875 
Q 24.8125 -1.421875 18.96875 -0.25 
Q 13.140625 0.921875 6.890625 3.21875 
L 6.890625 13.375 
Q 12.890625 10.015625 18.65625 8.296875 
Q 24.421875 6.59375 29.984375 6.59375 
Q 38.421875 6.59375 43.015625 9.90625 
Q 47.609375 13.234375 47.609375 19.390625 
Q 47.609375 24.75 44.3125 27.78125 
Q 41.015625 30.8125 33.5 32.328125 
L 27.484375 33.5 
Q 16.453125 35.6875 11.515625 40.375 
Q 6.59375 45.0625 6.59375 53.421875 
Q 6.59375 63.09375 13.40625 68.65625 
Q 20.21875 74.21875 32.171875 74.21875 
Q 37.3125 74.21875 42.625 73.28125 
Q 47.953125 72.359375 53.515625 70.515625 
z
" id="DejaVuSans-83"/>
      <path d="M 18.109375 8.203125 
L 18.109375 -20.796875 
L 9.078125 -20.796875 
L 9.078125 54.6875 
L 18.109375 54.6875 
L 18.109375 46.390625 
Q 20.953125 51.265625 25.265625 53.625 
Q 29.59375 56 35.59375 56 
Q 45.5625 56 51.78125 48.09375 
Q 58.015625 40.1875 58.015625 27.296875 
Q 58.015625 14.40625 51.78125 6.484375 
Q 45.5625 -1.421875 35.59375 -1.421875 
Q 29.59375 -1.421875 25.265625 0.953125 
Q 20.953125 3.328125 18.109375 8.203125 
z
M 48.6875 27.296875 
Q 48.6875 37.203125 44.609375 42.84375 
Q 40.53125 48.484375 33.40625 48.484375 
Q 26.265625 48.484375 22.1875 42.84375 
Q 18.109375 37.203125 18.109375 27.296875 
Q 18.109375 17.390625 22.1875 11.75 
Q 26.265625 6.109375 33.40625 6.109375 
Q 40.53125 6.109375 44.609375 11.75 
Q 48.6875 17.390625 48.6875 27.296875 
z
" id="DejaVuSans-112"/>
     </defs>
     <g transform="translate(222.170156 20.793875)scale(0.1 -0.1)">
      <use xlink:href="#DejaVuSans-83"/>
      <use x="63.476562" xlink:href="#DejaVuSans-116"/>
      <use x="102.685547" xlink:href="#DejaVuSans-101"/>
      <use x="164.208984" xlink:href="#DejaVuSans-112"/>
      <use x="227.685547" xlink:href="#DejaVuSans-115"/>
     </g>
    </g>
   </g>
   <g id="patch_7">
    <path d="M 57.6 307.584 
L 57.6 41.472 
" style="fill:none;stroke:#000000;stroke-linecap:square;stroke-linejoin:miter;stroke-width:0.8;"/>
   </g>
   <g id="patch_8">
    <path d="M 414.72 307.584 
L 414.72 41.472 
" style="fill:none;stroke:#000000;stroke-linecap:square;stroke-linejoin:miter;stroke-width:0.8;"/>
   </g>
   <g id="patch_9">
    <path d="M 57.6 307.584 
L 414.72 307.584 
" style="fill:none;stroke:#000000;stroke-linecap:square;stroke-linejoin:miter;stroke-width:0.8;"/>
   </g>
   <g id="patch_10">
    <path d="M 57.6 41.472 
L 414.72 41.472 
" style="fill:none;stroke:#000000;stroke-linecap:square;stroke-linejoin:miter;stroke-width:0.8;"/>
   </g>
  </g>
 </g>
 <defs>
  <clipPath id="pe36c6f2400">
   <rect height="266.112" width="357.12" x="57.6" y="41.472"/>
  </clipPath>
 </defs>
</svg>
